<svg width="24" height="24" viewBox="0 0 24 24" fill="none" xmlns="http://www.w3.org/2000/svg"><path d="M11.538 2.538 C 10.764 2.802,3.645 5.875,3.124 6.170 C 2.666 6.430,2.493 6.668,2.453 7.094 C 2.420 7.455,2.515 7.756,2.728 7.963 C 2.934 8.163,3.800 8.593,5.218 9.200 L 6.256 9.645 6.798 9.386 C 7.438 9.079,8.750 8.494,10.440 7.760 L 11.660 7.230 12.032 7.275 C 12.503 7.333,12.749 7.451,12.920 7.701 C 13.090 7.948,13.148 8.270,13.090 8.647 C 13.018 9.113,12.931 9.204,12.220 9.561 C 11.890 9.727,11.341 9.986,11.000 10.137 C 10.014 10.574,9.360 10.889,9.360 10.928 C 9.360 10.993,10.801 11.615,11.470 11.839 C 11.906 11.985,12.098 11.990,12.464 11.865 C 13.092 11.652,19.074 9.090,20.457 8.443 C 21.365 8.018,21.539 7.818,21.539 7.200 C 21.539 6.516,21.370 6.371,19.720 5.639 C 17.689 4.739,14.172 3.229,13.180 2.832 C 12.598 2.599,12.075 2.439,11.904 2.441 C 11.858 2.442,11.693 2.485,11.538 2.538 M3.965 11.407 C 3.945 11.459,3.900 11.645,3.865 11.821 C 3.562 13.332,3.517 15.146,3.762 15.970 C 3.828 16.193,3.880 16.279,4.058 16.456 C 4.201 16.599,4.346 16.699,4.488 16.752 C 4.711 16.835,5.594 17.000,5.819 17.000 L 5.947 17.000 5.974 16.154 C 5.988 15.688,6.000 14.611,6.000 13.760 C 6.000 12.336,5.994 12.207,5.930 12.151 C 5.876 12.103,5.035 11.737,4.051 11.332 C 4.023 11.321,3.985 11.355,3.965 11.407 M18.160 12.084 C 16.289 12.888,13.470 14.066,12.996 14.243 L 12.660 14.369 11.974 14.343 C 11.537 14.327,11.210 14.295,11.074 14.255 C 10.956 14.220,10.345 13.987,9.716 13.736 C 9.087 13.485,8.545 13.280,8.511 13.280 C 8.475 13.280,8.440 13.330,8.425 13.405 C 8.411 13.474,8.400 14.515,8.400 15.719 L 8.400 17.908 8.910 18.216 C 9.503 18.574,9.929 18.873,10.633 19.428 C 11.326 19.973,11.546 20.113,11.803 20.167 C 12.214 20.253,12.423 20.154,13.381 19.413 C 14.207 18.774,14.913 18.314,15.620 17.954 C 16.541 17.485,17.154 17.282,18.620 16.960 C 19.491 16.769,19.702 16.690,19.945 16.468 C 20.211 16.225,20.270 16.053,20.320 15.376 C 20.413 14.104,20.299 12.260,20.088 11.624 C 19.981 11.302,19.984 11.301,18.160 12.084 M6.000 18.923 L 6.000 20.726 6.119 20.899 C 6.261 21.105,6.518 21.334,6.740 21.452 C 6.987 21.584,7.392 21.574,7.689 21.428 C 7.932 21.308,8.214 21.027,8.305 20.811 C 8.346 20.715,8.367 20.334,8.386 19.310 L 8.413 17.939 8.296 17.885 C 7.701 17.613,6.288 17.120,6.102 17.120 L 6.000 17.120 6.000 18.923 " fill="#373B4D" stroke="none" fill-rule="evenodd"></path></svg>