<svg width="24" height="24" viewBox="0 0 24 24" fill="none" xmlns="http://www.w3.org/2000/svg"><path d="M11.340 2.632 C 10.684 2.867,6.513 4.654,4.598 5.520 C 2.761 6.350,2.480 6.576,2.480 7.220 C 2.480 7.533,2.549 7.712,2.738 7.896 C 3.009 8.159,4.055 8.694,5.656 9.388 L 6.251 9.646 7.356 9.146 C 7.963 8.871,9.180 8.328,10.060 7.939 L 11.660 7.233 11.978 7.295 C 12.361 7.369,12.767 7.561,12.881 7.721 C 13.047 7.954,13.085 8.719,12.945 8.990 C 12.823 9.227,12.410 9.465,10.668 10.304 C 10.003 10.624,9.444 10.901,9.425 10.920 C 9.314 11.028,11.456 11.871,11.941 11.910 C 12.260 11.936,12.513 11.848,14.500 11.019 C 18.672 9.279,20.704 8.357,21.160 7.997 C 21.431 7.782,21.488 7.657,21.491 7.264 C 21.499 6.458,21.376 6.375,17.993 4.898 C 15.268 3.708,12.889 2.725,12.494 2.625 C 12.365 2.593,12.125 2.555,11.960 2.542 C 11.695 2.520,11.623 2.530,11.340 2.632 M3.959 11.424 C 3.895 11.591,3.729 12.542,3.678 13.029 C 3.648 13.312,3.638 13.867,3.650 14.529 C 3.667 15.469,3.678 15.609,3.756 15.851 C 3.872 16.208,4.111 16.505,4.400 16.650 C 4.667 16.784,5.324 16.956,5.686 16.988 L 5.952 17.011 5.979 16.635 C 5.994 16.429,6.000 15.356,5.993 14.251 C 5.982 12.531,5.971 12.234,5.920 12.183 C 5.873 12.137,4.068 11.320,4.012 11.320 C 4.004 11.320,3.980 11.367,3.959 11.424 M19.000 11.755 C 18.571 11.929,17.158 12.515,15.860 13.059 C 12.625 14.414,12.766 14.360,12.469 14.360 C 11.991 14.360,11.364 14.278,10.974 14.165 C 10.757 14.102,10.144 13.895,9.610 13.705 C 9.077 13.515,8.598 13.360,8.546 13.360 C 8.454 13.360,8.452 13.369,8.426 13.870 C 8.412 14.150,8.400 15.175,8.400 16.146 L 8.400 17.912 8.790 18.162 C 9.005 18.300,9.504 18.639,9.900 18.916 C 11.552 20.070,11.782 20.199,12.103 20.147 C 12.341 20.109,12.551 19.985,13.587 19.274 C 14.725 18.493,15.330 18.124,15.970 17.822 C 16.568 17.539,16.841 17.445,17.892 17.158 C 19.384 16.752,19.653 16.656,19.884 16.449 C 20.283 16.090,20.340 15.822,20.338 14.320 C 20.335 12.453,20.148 11.439,19.807 11.440 C 19.792 11.440,19.429 11.582,19.000 11.755 M6.082 17.159 C 6.033 17.189,6.021 17.480,6.007 18.976 L 5.990 20.756 6.241 21.018 C 6.844 21.646,7.425 21.680,8.016 21.120 C 8.167 20.977,8.244 20.868,8.276 20.749 C 8.349 20.479,8.399 19.687,8.399 18.774 L 8.400 17.927 8.070 17.800 C 7.598 17.618,6.358 17.176,6.240 17.148 C 6.184 17.134,6.113 17.139,6.082 17.159 " fill="#373B4D" stroke="none" fill-rule="evenodd"></path></svg>