<svg width="24" height="24" viewBox="0 0 24 24" fill="none" xmlns="http://www.w3.org/2000/svg"><path d="M10.920 2.782 C 9.021 3.564,4.388 5.574,3.504 5.999 C 2.682 6.394,2.478 6.624,2.466 7.170 C 2.458 7.547,2.550 7.790,2.773 7.984 C 2.979 8.162,4.162 8.747,5.356 9.259 L 6.253 9.644 7.176 9.216 C 7.684 8.981,8.900 8.439,9.877 8.011 L 11.653 7.234 11.997 7.278 C 12.452 7.336,12.727 7.474,12.917 7.738 C 13.053 7.928,13.059 7.951,13.074 8.342 C 13.092 8.845,13.020 9.046,12.753 9.241 C 12.545 9.393,11.673 9.835,10.740 10.260 C 9.959 10.616,9.360 10.911,9.360 10.941 C 9.360 10.998,10.929 11.655,11.506 11.840 C 11.963 11.986,12.029 11.987,12.442 11.857 C 12.929 11.703,17.098 9.940,19.627 8.818 C 21.362 8.048,21.517 7.915,21.519 7.203 C 21.521 6.620,21.381 6.450,20.564 6.041 C 19.460 5.489,13.478 2.925,12.560 2.611 C 12.379 2.549,12.141 2.502,11.960 2.493 C 11.664 2.478,11.651 2.481,10.920 2.782 M3.961 11.418 C 3.906 11.563,3.776 12.271,3.696 12.860 C 3.609 13.504,3.595 15.159,3.673 15.560 C 3.784 16.129,3.941 16.400,4.306 16.649 C 4.476 16.765,5.183 16.939,5.664 16.984 L 5.947 17.010 5.974 16.399 C 6.007 15.618,6.008 13.197,5.974 12.613 L 5.948 12.166 5.593 12.001 C 5.212 11.824,4.044 11.320,4.015 11.320 C 4.006 11.320,3.981 11.364,3.961 11.418 M19.500 11.538 C 19.346 11.591,18.536 11.925,17.700 12.281 C 16.105 12.960,13.752 13.947,13.140 14.194 L 12.780 14.339 12.140 14.336 C 11.233 14.333,11.277 14.344,9.420 13.622 C 9.046 13.477,8.675 13.347,8.596 13.335 C 8.454 13.312,8.451 13.314,8.426 13.466 C 8.412 13.551,8.401 14.585,8.400 15.765 L 8.400 17.909 8.750 18.122 C 9.307 18.460,9.849 18.835,10.610 19.411 C 11.441 20.039,11.676 20.168,11.999 20.171 C 12.293 20.173,12.511 20.057,13.300 19.474 C 14.842 18.334,15.831 17.770,16.916 17.414 C 17.144 17.339,17.738 17.178,18.236 17.055 C 19.588 16.722,19.734 16.670,19.962 16.441 C 20.100 16.303,20.172 16.190,20.218 16.035 C 20.426 15.341,20.377 12.775,20.138 11.825 C 20.076 11.579,19.969 11.439,19.846 11.441 C 19.810 11.442,19.654 11.485,19.500 11.538 M6.024 17.183 C 6.011 17.218,6.000 18.033,6.000 18.993 L 6.000 20.740 6.151 20.939 C 6.354 21.207,6.653 21.428,6.920 21.507 C 7.124 21.568,7.158 21.568,7.400 21.505 C 7.860 21.386,8.235 21.064,8.320 20.714 C 8.343 20.618,8.374 19.954,8.387 19.237 L 8.412 17.935 7.996 17.762 C 7.532 17.570,6.217 17.121,6.114 17.120 C 6.078 17.120,6.038 17.148,6.024 17.183 " fill="#373B4D" stroke="none" fill-rule="evenodd"></path></svg>