<svg width="24" height="24" viewBox="0 0 24 24" fill="none" xmlns="http://www.w3.org/2000/svg"><path d="M11.300 2.647 C 11.190 2.694,10.567 2.953,9.916 3.223 C 7.381 4.275,4.051 5.752,3.361 6.131 C 2.902 6.383,2.586 6.674,2.524 6.900 C 2.398 7.363,2.543 7.767,2.931 8.034 C 3.362 8.329,4.422 8.856,5.694 9.407 L 6.248 9.647 6.754 9.420 C 7.032 9.294,8.250 8.750,9.460 8.211 L 11.660 7.230 11.947 7.298 C 12.269 7.374,12.747 7.590,12.844 7.704 C 12.956 7.836,13.000 8.041,13.000 8.436 C 13.000 8.902,12.945 9.034,12.660 9.250 C 12.550 9.334,11.790 9.739,10.970 10.151 C 10.151 10.563,9.481 10.920,9.480 10.944 C 9.480 11.042,10.177 11.350,11.140 11.679 C 11.957 11.957,12.036 11.963,12.580 11.778 C 13.666 11.410,18.672 9.274,20.222 8.519 C 21.004 8.137,21.321 7.915,21.414 7.684 C 21.489 7.497,21.502 7.059,21.439 6.833 C 21.373 6.597,21.046 6.334,20.415 6.011 C 19.223 5.400,14.112 3.208,12.740 2.720 C 12.438 2.612,12.309 2.589,11.940 2.576 C 11.558 2.563,11.474 2.572,11.300 2.647 M3.962 11.414 C 3.941 11.471,3.876 11.756,3.818 12.048 C 3.676 12.769,3.610 14.042,3.664 15.031 C 3.702 15.721,3.709 15.759,3.832 16.010 C 4.004 16.360,4.219 16.567,4.546 16.698 C 4.882 16.832,5.570 17.000,5.787 17.000 L 5.953 17.000 5.982 16.693 C 5.998 16.523,6.002 15.459,5.992 14.326 L 5.973 12.267 5.866 12.181 C 5.785 12.117,4.367 11.452,4.051 11.331 C 4.023 11.320,3.984 11.358,3.962 11.414 M19.280 11.646 C 19.005 11.756,17.547 12.360,16.040 12.987 C 14.533 13.614,13.138 14.182,12.940 14.249 C 12.597 14.364,12.559 14.369,12.143 14.344 C 11.555 14.309,11.165 14.218,10.090 13.865 C 8.941 13.487,8.510 13.357,8.486 13.381 C 8.432 13.434,8.405 14.289,8.403 16.003 L 8.400 17.906 9.850 18.888 C 11.533 20.029,11.728 20.141,12.020 20.138 C 12.271 20.136,12.277 20.132,13.700 19.201 C 15.881 17.775,16.101 17.674,18.700 16.921 C 19.624 16.653,19.867 16.530,20.078 16.222 C 20.238 15.990,20.275 15.824,20.326 15.105 C 20.403 14.024,20.266 12.194,20.076 11.761 C 19.988 11.563,19.890 11.439,19.824 11.442 C 19.800 11.443,19.555 11.535,19.280 11.646 M6.081 17.198 C 6.032 17.230,6.020 17.506,6.007 19.010 L 5.991 20.785 6.283 21.052 C 6.443 21.198,6.657 21.357,6.757 21.405 C 7.006 21.524,7.355 21.524,7.605 21.404 C 7.849 21.288,8.148 20.997,8.242 20.786 C 8.342 20.560,8.400 19.812,8.400 18.757 L 8.400 17.926 8.170 17.838 C 7.322 17.516,6.270 17.159,6.174 17.161 C 6.155 17.161,6.114 17.178,6.081 17.198 " fill="#373B4D" stroke="none" fill-rule="evenodd"></path></svg>