<svg width="24" height="24" viewBox="0 0 24 24" fill="none" xmlns="http://www.w3.org/2000/svg"><path d="M11.780 2.437 C 11.614 2.467,10.549 2.913,6.897 4.483 C 4.463 5.529,3.438 5.980,3.041 6.179 C 2.612 6.396,2.431 6.702,2.427 7.220 C 2.425 7.447,2.446 7.544,2.537 7.733 C 2.721 8.117,2.852 8.189,5.030 9.118 L 6.279 9.651 6.430 9.552 C 6.638 9.414,7.458 9.045,9.718 8.073 L 11.657 7.240 11.961 7.240 C 12.370 7.240,12.611 7.327,12.842 7.558 C 13.071 7.787,13.160 8.031,13.160 8.428 C 13.160 8.676,13.141 8.760,13.039 8.962 C 12.851 9.333,12.772 9.377,10.428 10.380 C 9.772 10.661,9.250 10.906,9.268 10.924 C 9.331 10.987,11.464 11.877,11.699 11.938 C 11.830 11.972,12.010 12.000,12.100 12.000 C 12.226 12.000,13.029 11.671,15.601 10.565 C 21.153 8.180,21.186 8.164,21.369 7.900 C 21.430 7.812,21.510 7.615,21.547 7.463 C 21.611 7.204,21.611 7.170,21.548 6.931 C 21.444 6.536,21.291 6.347,20.928 6.164 C 20.316 5.857,13.994 3.132,12.800 2.661 C 12.222 2.433,12.033 2.392,11.780 2.437 M3.925 11.510 C 3.667 12.650,3.550 14.152,3.635 15.240 C 3.696 16.014,3.757 16.201,4.038 16.482 C 4.300 16.745,4.460 16.805,5.202 16.919 C 5.476 16.962,5.757 17.008,5.827 17.023 C 5.947 17.047,5.956 17.041,5.979 16.914 C 5.992 16.841,5.998 15.737,5.991 14.462 L 5.980 12.144 5.022 11.732 C 4.494 11.505,4.042 11.320,4.016 11.320 C 3.989 11.320,3.949 11.405,3.925 11.510 M17.820 12.225 C 15.547 13.205,13.295 14.151,12.980 14.259 C 12.472 14.432,11.481 14.412,10.900 14.217 C 10.724 14.158,10.097 13.905,9.506 13.655 C 8.916 13.405,8.425 13.200,8.416 13.200 C 8.407 13.200,8.400 14.260,8.400 15.555 L 8.400 17.910 8.810 18.140 C 9.549 18.554,10.118 18.960,10.812 19.570 C 11.425 20.108,11.602 20.200,12.020 20.200 C 12.360 20.200,12.631 20.055,13.160 19.593 C 14.887 18.082,16.700 17.234,18.911 16.901 C 19.775 16.772,20.078 16.570,20.267 16.000 C 20.332 15.804,20.340 15.628,20.340 14.380 C 20.340 13.102,20.332 12.931,20.247 12.420 C 20.101 11.540,20.045 11.319,19.967 11.324 C 19.930 11.326,18.964 11.731,17.820 12.225 M6.027 17.106 C 6.012 17.121,6.000 17.928,6.000 18.899 L 6.000 20.664 6.103 20.871 C 6.474 21.615,7.391 21.811,7.981 21.272 C 8.379 20.909,8.378 20.913,8.394 19.317 L 8.408 17.934 7.994 17.750 C 7.446 17.506,7.113 17.383,6.603 17.237 C 6.370 17.170,6.152 17.107,6.117 17.097 C 6.083 17.087,6.042 17.091,6.027 17.106 " fill="#373B4D" stroke="none" fill-rule="evenodd"></path></svg>