<svg width="24" height="24" viewBox="0 0 24 24" fill="none" xmlns="http://www.w3.org/2000/svg"><path d="M11.660 2.494 C 10.996 2.715,4.856 5.349,3.524 5.984 C 2.649 6.402,2.462 6.619,2.461 7.220 C 2.461 7.599,2.543 7.791,2.802 8.012 C 3.018 8.197,3.930 8.645,5.216 9.198 L 6.253 9.644 6.976 9.306 C 7.825 8.909,8.713 8.514,10.417 7.773 L 11.653 7.235 11.917 7.263 C 12.370 7.310,12.649 7.417,12.830 7.613 C 12.918 7.709,13.013 7.857,13.043 7.943 C 13.107 8.133,13.109 8.638,13.046 8.865 C 12.949 9.213,12.631 9.400,10.480 10.376 C 9.963 10.611,9.497 10.836,9.444 10.876 L 9.349 10.949 9.624 11.080 C 10.302 11.403,11.395 11.833,11.754 11.919 C 12.063 11.993,12.255 11.952,12.998 11.655 C 13.847 11.317,18.665 9.252,19.830 8.728 C 20.835 8.276,21.024 8.174,21.265 7.951 C 21.477 7.756,21.535 7.589,21.533 7.180 C 21.531 6.548,21.341 6.374,19.980 5.758 C 17.887 4.811,13.289 2.856,12.636 2.636 C 12.090 2.453,11.878 2.422,11.660 2.494 M3.964 11.411 C 3.915 11.538,3.812 12.068,3.743 12.540 C 3.529 14.003,3.573 15.637,3.839 16.159 C 3.930 16.337,4.278 16.667,4.452 16.739 C 4.624 16.811,5.598 17.000,5.796 17.000 L 5.951 17.000 5.979 16.070 C 6.019 14.712,5.991 12.215,5.935 12.159 C 5.896 12.120,4.067 11.320,4.017 11.320 C 4.007 11.320,3.983 11.361,3.964 11.411 M19.320 11.595 C 19.111 11.680,18.328 12.011,17.580 12.330 C 15.992 13.009,14.278 13.728,13.400 14.085 C 12.837 14.313,12.748 14.338,12.434 14.352 C 12.243 14.361,11.866 14.348,11.597 14.323 C 11.124 14.280,11.076 14.267,10.283 13.956 C 8.557 13.280,8.511 13.264,8.452 13.344 C 8.411 13.401,8.400 13.880,8.400 15.660 L 8.400 17.905 8.910 18.219 C 9.515 18.591,9.887 18.853,10.720 19.495 C 11.432 20.043,11.680 20.176,12.000 20.178 C 12.307 20.181,12.487 20.082,13.338 19.445 C 14.512 18.567,15.269 18.097,16.119 17.717 C 16.711 17.453,17.308 17.269,18.450 16.999 C 19.522 16.744,19.706 16.680,19.934 16.480 C 20.245 16.207,20.310 15.933,20.346 14.760 C 20.382 13.592,20.258 12.109,20.087 11.646 C 20.022 11.471,20.009 11.459,19.859 11.451 C 19.751 11.444,19.579 11.490,19.320 11.595 M6.000 18.923 L 6.000 20.726 6.119 20.899 C 6.348 21.231,6.709 21.485,7.027 21.538 C 7.413 21.602,7.956 21.341,8.216 20.966 C 8.325 20.809,8.332 20.769,8.363 20.210 C 8.381 19.886,8.396 19.239,8.398 18.774 L 8.400 17.927 8.090 17.798 C 7.370 17.497,6.248 17.120,6.072 17.120 C 6.004 17.120,6.000 17.216,6.000 18.923 " fill="#373B4D" stroke="none" fill-rule="evenodd"></path></svg>