<svg width="24" height="24" viewBox="0 0 24 24" fill="none" xmlns="http://www.w3.org/2000/svg"><path d="M11.600 2.549 C 11.226 2.621,4.998 5.301,3.740 5.930 C 2.715 6.443,2.482 6.682,2.482 7.220 C 2.482 7.518,2.575 7.732,2.787 7.924 C 3.088 8.195,4.123 8.723,5.673 9.397 L 6.247 9.647 7.513 9.077 C 8.210 8.763,9.428 8.220,10.220 7.870 L 11.660 7.232 11.960 7.296 C 12.356 7.379,12.822 7.609,12.899 7.757 C 13.048 8.046,13.066 8.705,12.932 8.990 C 12.839 9.189,12.433 9.433,11.143 10.068 C 9.549 10.852,9.467 10.894,9.463 10.940 C 9.453 11.089,11.621 11.920,12.021 11.920 C 12.275 11.920,12.856 11.706,14.740 10.920 C 17.602 9.726,20.021 8.654,20.694 8.281 C 21.384 7.899,21.480 7.771,21.480 7.237 C 21.480 6.454,21.347 6.366,17.883 4.852 C 14.899 3.549,12.729 2.666,12.350 2.601 C 12.046 2.550,11.715 2.526,11.600 2.549 M3.964 11.411 C 3.922 11.519,3.828 11.984,3.731 12.560 C 3.673 12.905,3.660 13.213,3.662 14.280 C 3.664 15.529,3.668 15.590,3.756 15.840 C 3.866 16.152,4.064 16.432,4.269 16.568 C 4.542 16.748,5.446 17.000,5.820 17.000 L 5.953 17.000 5.980 16.670 C 6.016 16.243,5.984 12.321,5.945 12.234 C 5.928 12.198,5.767 12.101,5.587 12.018 C 5.038 11.766,4.035 11.320,4.016 11.320 C 4.006 11.320,3.983 11.361,3.964 11.411 M19.100 11.717 C 18.726 11.868,17.268 12.472,15.860 13.060 C 12.456 14.481,12.763 14.374,12.200 14.346 C 11.498 14.312,11.166 14.232,9.793 13.768 C 9.096 13.533,8.512 13.355,8.494 13.373 C 8.428 13.439,8.406 14.072,8.403 15.962 L 8.400 17.904 9.282 18.502 C 9.767 18.831,10.438 19.285,10.772 19.512 C 11.770 20.187,11.947 20.249,12.349 20.062 C 12.464 20.008,13.094 19.607,13.749 19.170 C 15.722 17.853,16.116 17.664,18.008 17.125 C 18.697 16.929,19.367 16.728,19.499 16.678 C 19.809 16.561,20.118 16.259,20.215 15.980 C 20.435 15.345,20.358 12.531,20.100 11.800 C 20.035 11.616,19.898 11.439,19.823 11.441 C 19.799 11.442,19.474 11.566,19.100 11.717 M6.053 17.210 C 6.035 17.238,6.014 18.053,6.006 19.021 L 5.991 20.782 6.269 21.045 C 6.422 21.189,6.636 21.350,6.744 21.403 C 7.014 21.536,7.347 21.536,7.620 21.402 C 7.895 21.267,8.223 20.933,8.277 20.732 C 8.349 20.465,8.399 19.666,8.399 18.773 L 8.400 17.926 8.170 17.838 C 7.320 17.515,6.286 17.160,6.194 17.160 C 6.134 17.160,6.070 17.183,6.053 17.210 " fill="#373B4D" stroke="none" fill-rule="evenodd"></path></svg>