<svg width="24" height="24" viewBox="0 0 24 24" fill="none" xmlns="http://www.w3.org/2000/svg"><path d="M11.540 2.555 C 11.116 2.669,5.280 5.178,3.840 5.866 C 2.703 6.409,2.480 6.631,2.480 7.220 C 2.481 7.802,2.647 7.965,3.848 8.556 C 4.339 8.798,5.080 9.141,5.496 9.319 L 6.252 9.644 7.396 9.125 C 8.025 8.839,9.240 8.298,10.097 7.921 L 11.653 7.236 11.926 7.278 C 12.424 7.355,12.815 7.559,12.943 7.807 C 13.021 7.957,13.061 8.427,13.022 8.744 C 12.968 9.182,12.867 9.246,10.180 10.539 L 9.380 10.924 9.478 10.999 C 9.609 11.098,10.656 11.533,11.280 11.748 C 11.899 11.961,12.095 11.969,12.569 11.802 C 13.232 11.567,16.562 10.167,18.820 9.172 C 20.750 8.322,21.252 8.040,21.429 7.705 C 21.477 7.616,21.496 7.477,21.497 7.220 C 21.498 6.497,21.345 6.382,18.980 5.329 C 16.778 4.349,13.466 2.953,12.687 2.677 C 12.321 2.547,11.782 2.490,11.540 2.555 M3.959 11.424 C 3.901 11.576,3.732 12.519,3.683 12.968 C 3.631 13.442,3.628 14.970,3.678 15.449 C 3.725 15.892,3.861 16.205,4.118 16.458 C 4.274 16.611,4.375 16.669,4.658 16.764 C 5.013 16.883,5.588 17.000,5.819 17.000 L 5.948 17.000 5.974 16.670 C 6.007 16.245,6.007 12.783,5.974 12.434 C 5.952 12.198,5.937 12.162,5.845 12.119 C 5.620 12.014,4.030 11.320,4.014 11.320 C 4.005 11.320,3.980 11.367,3.959 11.424 M19.380 11.595 C 19.160 11.680,17.756 12.263,16.260 12.891 C 14.764 13.519,13.353 14.108,13.125 14.200 L 12.710 14.367 12.105 14.339 C 11.338 14.303,11.075 14.237,9.728 13.746 C 9.150 13.535,8.628 13.357,8.568 13.351 L 8.460 13.340 8.435 13.740 C 8.421 13.960,8.407 14.988,8.405 16.025 L 8.400 17.910 8.886 18.222 C 9.154 18.394,9.774 18.819,10.266 19.166 C 11.627 20.128,11.767 20.201,12.132 20.143 C 12.348 20.108,12.616 19.956,13.260 19.503 C 14.626 18.540,15.090 18.249,15.877 17.864 C 16.587 17.516,16.772 17.453,18.240 17.062 C 18.872 16.893,19.492 16.703,19.631 16.636 C 19.916 16.498,20.163 16.212,20.235 15.940 C 20.436 15.174,20.365 12.621,20.120 11.830 C 20.043 11.582,19.933 11.438,19.821 11.441 C 19.798 11.442,19.600 11.511,19.380 11.595 M6.054 17.168 C 6.035 17.196,6.015 18.014,6.008 18.983 L 5.996 20.747 6.128 20.906 C 6.440 21.283,6.863 21.542,7.163 21.537 C 7.570 21.531,8.187 21.107,8.277 20.770 C 8.349 20.503,8.399 19.701,8.399 18.793 L 8.400 17.926 7.990 17.768 C 7.399 17.540,6.361 17.174,6.214 17.142 C 6.128 17.124,6.077 17.132,6.054 17.168 " fill="#373B4D" stroke="none" fill-rule="evenodd"></path></svg>