<svg width="24" height="24" viewBox="0 0 24 24" fill="none" xmlns="http://www.w3.org/2000/svg"><path d="M11.620 2.516 C 11.203 2.626,4.938 5.321,3.615 5.959 C 2.626 6.435,2.458 6.634,2.486 7.293 C 2.505 7.749,2.608 7.902,3.082 8.176 C 3.495 8.414,4.528 8.903,5.517 9.327 L 6.254 9.643 7.077 9.265 C 7.976 8.852,9.209 8.303,10.699 7.652 L 11.658 7.233 11.979 7.280 C 12.360 7.335,12.611 7.437,12.793 7.612 C 13.024 7.833,13.057 7.933,13.058 8.420 C 13.061 9.084,13.003 9.151,11.960 9.677 C 11.663 9.827,10.985 10.151,10.453 10.398 C 9.921 10.645,9.453 10.871,9.413 10.901 C 9.347 10.949,9.371 10.969,9.660 11.102 C 10.148 11.326,11.304 11.781,11.636 11.880 C 12.026 11.995,12.146 11.975,12.940 11.662 C 14.834 10.915,19.655 8.837,20.575 8.370 C 21.376 7.964,21.520 7.782,21.519 7.180 C 21.518 6.708,21.361 6.481,20.832 6.186 C 19.949 5.692,13.010 2.716,12.400 2.569 C 12.137 2.505,11.758 2.479,11.620 2.516 M3.959 11.424 C 3.900 11.579,3.732 12.521,3.678 13.000 C 3.652 13.231,3.631 13.870,3.631 14.420 C 3.631 15.310,3.641 15.455,3.716 15.737 C 3.874 16.332,4.126 16.616,4.638 16.777 C 4.958 16.877,5.609 17.000,5.821 17.000 L 5.948 17.000 5.974 16.514 C 6.008 15.886,6.008 13.002,5.974 12.528 L 5.948 12.164 5.444 11.936 C 4.871 11.678,4.042 11.320,4.015 11.320 C 4.006 11.320,3.980 11.367,3.959 11.424 M19.551 11.522 C 19.424 11.565,18.740 11.846,18.031 12.145 C 15.338 13.281,13.683 13.974,13.209 14.164 C 12.660 14.383,12.570 14.393,11.680 14.321 C 11.164 14.280,10.990 14.227,9.580 13.689 C 9.118 13.513,8.682 13.356,8.610 13.341 C 8.495 13.317,8.476 13.326,8.440 13.419 C 8.415 13.486,8.400 14.346,8.400 15.720 L 8.400 17.914 8.650 18.064 C 9.118 18.345,9.853 18.849,10.577 19.386 C 11.453 20.034,11.684 20.160,12.002 20.160 C 12.280 20.160,12.492 20.058,13.043 19.658 C 14.495 18.605,15.141 18.195,15.964 17.805 C 16.602 17.503,16.885 17.409,18.100 17.095 C 19.439 16.749,19.599 16.700,19.799 16.565 C 19.993 16.435,20.182 16.176,20.238 15.964 C 20.350 15.541,20.387 14.324,20.319 13.300 C 20.247 12.218,20.151 11.704,19.990 11.530 C 19.889 11.421,19.845 11.420,19.551 11.522 M6.048 17.168 C 6.012 17.204,6.000 17.662,6.000 18.983 L 6.000 20.750 6.159 20.949 C 6.406 21.259,6.742 21.483,7.046 21.540 C 7.334 21.594,7.806 21.390,8.086 21.091 C 8.229 20.938,8.281 20.845,8.317 20.677 C 8.343 20.555,8.374 19.904,8.388 19.196 L 8.413 17.931 7.876 17.720 C 7.377 17.523,6.202 17.120,6.129 17.120 C 6.111 17.120,6.074 17.142,6.048 17.168 " fill="#373B4D" stroke="none" fill-rule="evenodd"></path></svg>