<svg width="24" height="24" viewBox="0 0 24 24" fill="none" xmlns="http://www.w3.org/2000/svg"><path d="M11.100 2.715 C 9.690 3.285,5.861 4.936,4.280 5.656 C 2.760 6.349,2.528 6.532,2.490 7.076 C 2.461 7.471,2.535 7.735,2.723 7.918 C 2.962 8.150,3.967 8.657,5.500 9.319 L 6.251 9.643 7.451 9.097 C 8.112 8.797,9.329 8.255,10.156 7.892 L 11.660 7.233 11.960 7.279 C 12.303 7.333,12.648 7.475,12.815 7.632 C 12.998 7.804,13.040 7.952,13.040 8.423 C 13.040 8.957,12.984 9.075,12.613 9.319 C 12.365 9.481,11.379 9.971,10.030 10.600 C 9.684 10.762,9.400 10.916,9.400 10.941 C 9.400 10.992,9.841 11.195,10.640 11.512 C 11.854 11.993,11.986 12.013,12.564 11.806 C 13.279 11.549,16.294 10.281,18.636 9.252 C 20.795 8.304,21.217 8.075,21.403 7.749 C 21.486 7.605,21.500 7.528,21.500 7.220 C 21.500 6.480,21.393 6.400,18.900 5.291 C 16.324 4.145,12.851 2.694,12.406 2.578 C 12.283 2.546,12.047 2.520,11.882 2.520 C 11.614 2.521,11.526 2.543,11.100 2.715 M3.959 11.424 C 3.902 11.574,3.734 12.512,3.680 12.980 C 3.652 13.226,3.640 13.811,3.650 14.500 C 3.664 15.536,3.672 15.639,3.755 15.881 C 3.878 16.233,4.074 16.492,4.329 16.638 C 4.564 16.772,5.262 16.953,5.678 16.988 L 5.947 17.011 5.973 16.615 C 6.007 16.106,6.008 12.866,5.974 12.469 L 5.949 12.166 5.664 12.037 C 5.142 11.801,4.038 11.320,4.018 11.320 C 4.007 11.320,3.980 11.367,3.959 11.424 M19.580 11.516 C 19.245 11.639,18.602 11.905,16.100 12.958 C 14.780 13.514,13.493 14.052,13.240 14.154 L 12.780 14.340 12.160 14.335 C 11.371 14.329,11.156 14.278,9.833 13.786 C 8.532 13.302,8.524 13.300,8.466 13.358 C 8.433 13.391,8.417 14.017,8.408 15.656 L 8.396 17.909 8.853 18.194 C 9.104 18.351,9.641 18.716,10.045 19.007 C 11.580 20.108,11.707 20.181,12.054 20.152 C 12.333 20.129,12.512 20.033,13.240 19.514 C 14.630 18.524,15.311 18.104,16.116 17.739 C 16.675 17.486,16.949 17.398,18.165 17.080 C 19.572 16.713,19.699 16.666,19.943 16.422 C 20.081 16.284,20.169 16.153,20.213 16.019 C 20.321 15.691,20.373 14.899,20.346 13.980 C 20.300 12.404,20.165 11.611,19.922 11.481 C 19.824 11.428,19.818 11.429,19.580 11.516 M6.040 17.219 C 6.016 17.284,6.000 17.987,6.000 19.037 L 6.000 20.750 6.162 20.953 C 6.348 21.187,6.734 21.459,6.970 21.523 C 7.165 21.575,7.351 21.545,7.621 21.417 C 7.891 21.290,8.144 21.067,8.245 20.870 C 8.343 20.677,8.396 19.929,8.398 18.693 L 8.400 17.926 7.970 17.758 C 7.421 17.543,6.379 17.178,6.210 17.142 C 6.095 17.117,6.076 17.125,6.040 17.219 " fill="#373B4D" stroke="none" fill-rule="evenodd"></path></svg>