<svg width="24" height="24" viewBox="0 0 24 24" fill="none" xmlns="http://www.w3.org/2000/svg"><path d="M11.520 2.536 C 10.748 2.814,3.901 5.764,3.231 6.108 C 2.774 6.343,2.583 6.529,2.497 6.825 C 2.411 7.121,2.436 7.517,2.555 7.750 C 2.720 8.074,3.144 8.307,5.078 9.139 L 6.257 9.645 6.958 9.306 C 7.344 9.119,8.560 8.576,9.660 8.098 L 11.660 7.229 12.049 7.271 C 12.507 7.320,12.712 7.416,12.907 7.672 C 13.080 7.898,13.132 8.112,13.111 8.500 C 13.091 8.870,12.993 9.100,12.790 9.255 C 12.599 9.401,11.853 9.761,10.586 10.322 C 9.973 10.593,9.435 10.844,9.390 10.880 C 9.311 10.944,9.328 10.955,9.864 11.191 C 11.030 11.705,11.764 11.974,12.000 11.975 C 12.283 11.975,12.536 11.875,16.245 10.285 C 20.535 8.447,21.142 8.163,21.338 7.906 C 21.479 7.721,21.560 7.467,21.560 7.210 C 21.560 6.680,21.341 6.395,20.690 6.078 C 19.888 5.688,14.669 3.430,13.140 2.811 C 12.534 2.566,12.104 2.440,11.880 2.442 C 11.825 2.443,11.663 2.485,11.520 2.536 M3.964 11.411 C 3.945 11.461,3.900 11.645,3.865 11.821 C 3.673 12.776,3.579 13.911,3.614 14.820 C 3.644 15.561,3.716 15.978,3.859 16.221 C 4.001 16.464,4.302 16.710,4.540 16.780 C 4.884 16.880,5.897 17.039,5.937 16.999 C 5.979 16.957,6.025 12.386,5.986 12.228 C 5.971 12.168,5.916 12.111,5.850 12.087 C 5.790 12.064,5.355 11.883,4.885 11.683 C 4.415 11.483,4.023 11.320,4.014 11.320 C 4.005 11.320,3.983 11.361,3.964 11.411 M19.620 11.465 C 16.687 12.722,13.722 13.967,13.126 14.192 L 12.740 14.337 12.020 14.336 C 11.313 14.335,11.293 14.333,10.920 14.205 C 10.711 14.134,10.075 13.885,9.506 13.652 C 8.677 13.314,8.464 13.240,8.436 13.285 C 8.417 13.315,8.401 14.369,8.401 15.626 L 8.400 17.912 8.857 18.177 C 9.419 18.504,9.964 18.889,10.717 19.493 C 11.412 20.050,11.605 20.161,11.924 20.190 C 12.140 20.209,12.189 20.198,12.451 20.067 C 12.610 19.988,12.866 19.821,13.020 19.697 C 14.061 18.857,14.798 18.361,15.640 17.932 C 16.506 17.492,17.172 17.272,18.506 16.985 C 19.514 16.768,19.740 16.689,19.961 16.475 C 20.246 16.197,20.285 16.057,20.333 15.125 C 20.400 13.824,20.275 12.136,20.068 11.540 C 19.999 11.341,19.934 11.330,19.620 11.465 M6.022 17.111 C 6.010 17.123,6.000 17.942,6.000 18.929 L 6.000 20.726 6.118 20.898 C 6.301 21.164,6.618 21.426,6.847 21.502 C 7.098 21.586,7.455 21.558,7.706 21.437 C 7.952 21.318,8.301 20.927,8.335 20.734 C 8.350 20.649,8.373 19.985,8.387 19.257 L 8.412 17.935 8.060 17.783 C 7.292 17.454,6.080 17.053,6.022 17.111 " fill="#373B4D" stroke="none" fill-rule="evenodd"></path></svg>