<svg width="24" height="24" viewBox="0 0 24 24" fill="none" xmlns="http://www.w3.org/2000/svg"><path d="M4.459 3.764 C 4.265 3.809,3.867 4.113,3.779 4.283 C 3.665 4.502,3.643 5.185,3.615 9.359 L 3.587 13.457 3.275 13.810 C 2.513 14.674,2.296 15.423,2.575 16.235 C 2.702 16.606,3.024 17.117,3.370 17.500 L 3.587 17.740 3.613 18.440 C 3.641 19.212,3.694 19.500,3.856 19.777 C 3.981 19.990,4.288 20.210,4.558 20.281 C 5.101 20.423,5.699 20.065,5.860 19.503 C 5.930 19.258,6.000 18.547,6.000 18.077 C 6.000 17.747,6.004 17.731,6.124 17.617 C 6.357 17.396,6.732 16.860,6.906 16.500 C 7.133 16.032,7.222 15.621,7.157 15.342 C 7.040 14.837,6.656 14.158,6.227 13.695 L 6.000 13.449 6.000 8.928 L 6.000 4.406 5.730 4.162 C 5.582 4.028,5.388 3.884,5.300 3.843 C 5.108 3.752,4.681 3.712,4.459 3.764 M18.791 3.798 C 18.402 3.950,18.191 4.215,18.122 4.637 C 18.061 5.013,18.001 8.169,18.000 11.014 L 18.000 13.449 17.793 13.674 C 17.075 14.457,16.763 15.191,16.879 15.825 C 16.986 16.409,17.205 16.833,17.699 17.412 L 17.960 17.717 17.960 18.069 C 17.960 18.918,18.128 19.621,18.405 19.936 C 18.643 20.206,18.837 20.296,19.180 20.293 C 19.519 20.291,19.694 20.222,19.941 19.995 C 20.151 19.802,20.248 19.631,20.315 19.340 C 20.375 19.080,20.438 18.422,20.439 18.032 C 20.440 17.733,20.444 17.720,20.596 17.545 C 21.315 16.714,21.552 16.187,21.507 15.520 C 21.469 14.947,21.264 14.491,20.769 13.876 L 20.492 13.532 20.466 10.576 C 20.452 8.950,20.428 6.911,20.414 6.045 L 20.388 4.470 20.151 4.216 C 19.722 3.759,19.257 3.615,18.791 3.798 M11.614 3.798 C 11.334 3.865,11.076 4.110,10.959 4.420 C 10.884 4.620,10.802 5.353,10.801 5.834 L 10.800 6.288 10.538 6.572 C 10.167 6.972,9.892 7.350,9.818 7.560 C 9.670 7.984,9.677 8.821,9.833 9.231 C 9.929 9.483,10.131 9.787,10.459 10.172 L 10.720 10.477 10.720 11.989 C 10.721 14.086,10.793 18.306,10.839 18.974 C 10.883 19.613,10.941 19.755,11.270 20.036 C 11.590 20.310,11.884 20.374,12.282 20.256 C 12.736 20.121,12.989 19.829,13.077 19.336 C 13.155 18.907,13.200 17.230,13.227 13.822 L 13.253 10.504 13.491 10.222 C 13.990 9.630,14.241 9.175,14.324 8.715 C 14.367 8.475,14.364 8.394,14.303 8.109 C 14.183 7.549,13.929 7.072,13.474 6.553 L 13.240 6.287 13.240 6.008 C 13.240 5.623,13.172 4.959,13.096 4.606 C 13.038 4.336,13.015 4.295,12.803 4.083 C 12.630 3.910,12.527 3.841,12.389 3.806 C 12.186 3.755,11.810 3.751,11.614 3.798 " fill="#373B4D" stroke="none" fill-rule="evenodd"></path></svg>