<svg width="24" height="24" viewBox="0 0 24 24" fill="none" xmlns="http://www.w3.org/2000/svg"><path d="M4.540 3.635 C 4.176 3.730,3.886 3.958,3.733 4.271 L 3.620 4.500 3.609 9.005 L 3.597 13.509 3.360 13.693 C 2.914 14.040,2.626 14.486,2.481 15.056 C 2.379 15.456,2.379 15.744,2.481 16.144 C 2.626 16.713,2.914 17.160,3.358 17.505 L 3.592 17.687 3.607 18.594 C 3.624 19.626,3.650 19.735,3.958 20.034 C 4.219 20.287,4.446 20.380,4.800 20.380 C 5.154 20.380,5.381 20.287,5.642 20.034 C 5.950 19.735,5.976 19.626,5.993 18.594 L 6.008 17.687 6.242 17.505 C 6.686 17.160,6.974 16.713,7.119 16.144 C 7.221 15.744,7.221 15.456,7.119 15.056 C 6.974 14.486,6.686 14.040,6.240 13.693 L 6.002 13.509 5.991 9.004 L 5.980 4.500 5.890 4.318 C 5.765 4.069,5.539 3.845,5.300 3.735 C 5.078 3.633,4.725 3.587,4.540 3.635 M11.476 3.740 C 11.249 3.858,10.955 4.177,10.882 4.385 C 10.845 4.491,10.822 4.820,10.810 5.426 L 10.793 6.311 10.542 6.516 C 9.270 7.547,9.317 9.369,10.640 10.372 L 10.780 10.478 10.792 14.969 L 10.805 19.460 10.904 19.668 C 11.036 19.944,11.374 20.251,11.626 20.324 C 11.903 20.404,12.281 20.386,12.496 20.282 C 12.706 20.180,13.019 19.858,13.110 19.649 C 13.168 19.516,13.177 19.031,13.199 14.987 L 13.224 10.475 13.362 10.371 C 13.976 9.909,14.399 9.106,14.399 8.400 C 14.399 7.699,13.972 6.888,13.363 6.430 L 13.225 6.327 13.199 5.410 C 13.176 4.572,13.166 4.477,13.084 4.308 C 12.970 4.074,12.620 3.751,12.411 3.688 C 12.133 3.605,11.687 3.629,11.476 3.740 M18.676 3.740 C 18.451 3.857,18.156 4.176,18.080 4.385 C 18.032 4.515,18.021 5.276,18.010 9.024 L 17.997 13.508 17.743 13.714 C 16.928 14.376,16.620 15.389,16.942 16.350 C 17.105 16.836,17.384 17.214,17.838 17.567 L 17.975 17.674 18.000 18.588 C 18.028 19.651,18.052 19.737,18.419 20.072 C 18.669 20.301,18.901 20.383,19.270 20.374 C 19.589 20.366,19.815 20.258,20.058 19.997 C 20.354 19.681,20.368 19.624,20.399 18.587 L 20.425 17.673 20.563 17.570 C 20.858 17.348,21.166 16.979,21.323 16.661 C 21.682 15.934,21.681 15.264,21.320 14.533 C 21.161 14.209,20.912 13.911,20.582 13.648 L 20.424 13.522 20.401 9.011 L 20.378 4.500 20.286 4.311 C 20.170 4.074,19.821 3.751,19.611 3.688 C 19.333 3.605,18.887 3.629,18.676 3.740 " fill="#373B4D" stroke="none" fill-rule="evenodd"></path></svg>