<svg width="24" height="24" viewBox="0 0 24 24" fill="none" xmlns="http://www.w3.org/2000/svg"><path d="M4.320 3.743 C 4.243 3.777,4.084 3.897,3.967 4.012 C 3.584 4.386,3.621 3.871,3.609 8.971 L 3.598 13.483 3.223 13.851 C 2.937 14.133,2.815 14.288,2.704 14.510 C 2.352 15.215,2.353 15.937,2.707 16.679 C 2.821 16.918,2.926 17.056,3.219 17.346 L 3.587 17.712 3.612 18.546 C 3.643 19.578,3.675 19.708,3.972 19.989 C 4.258 20.259,4.407 20.329,4.742 20.351 C 5.118 20.376,5.357 20.274,5.653 19.964 C 5.931 19.672,5.960 19.546,5.989 18.504 L 6.012 17.707 6.287 17.448 C 6.798 16.966,7.121 16.339,7.181 15.717 C 7.211 15.401,7.113 14.992,6.900 14.542 C 6.784 14.299,6.675 14.154,6.377 13.850 L 6.000 13.465 6.000 8.953 L 6.000 4.441 5.787 4.190 C 5.548 3.909,5.377 3.780,5.165 3.721 C 4.951 3.661,4.481 3.674,4.320 3.743 M11.545 3.737 C 11.374 3.800,11.120 4.028,10.994 4.230 C 10.868 4.433,10.803 4.912,10.801 5.641 L 10.800 6.302 10.475 6.621 C 9.776 7.308,9.547 7.924,9.682 8.756 C 9.774 9.321,9.962 9.671,10.447 10.182 L 10.732 10.482 10.764 13.031 C 10.781 14.433,10.796 16.453,10.798 17.520 L 10.801 19.460 10.918 19.665 C 11.040 19.877,11.333 20.163,11.538 20.269 C 11.727 20.367,12.115 20.381,12.362 20.299 C 12.637 20.208,13.012 19.853,13.078 19.620 C 13.142 19.397,13.190 17.425,13.224 13.680 L 13.252 10.500 13.531 10.200 C 14.318 9.354,14.543 8.587,14.251 7.750 C 14.091 7.291,13.926 7.023,13.557 6.626 L 13.254 6.300 13.207 5.460 C 13.181 4.998,13.141 4.553,13.118 4.472 C 13.061 4.264,12.796 3.945,12.574 3.814 C 12.415 3.721,12.331 3.702,12.043 3.691 C 11.814 3.683,11.648 3.698,11.545 3.737 M18.832 3.718 C 18.670 3.749,18.378 3.969,18.218 4.180 C 18.139 4.283,18.106 4.391,18.075 4.647 C 18.052 4.838,18.025 6.790,18.013 9.219 L 17.990 13.458 17.673 13.797 C 17.301 14.195,17.081 14.512,16.955 14.831 C 16.879 15.023,16.864 15.138,16.862 15.540 C 16.859 16.317,17.035 16.727,17.657 17.390 L 17.948 17.700 17.976 18.260 C 18.017 19.088,18.076 19.556,18.161 19.722 C 18.266 19.928,18.606 20.221,18.827 20.296 C 19.066 20.378,19.335 20.377,19.576 20.295 C 19.785 20.224,20.144 19.904,20.254 19.691 C 20.328 19.548,20.383 19.089,20.424 18.260 L 20.451 17.700 20.707 17.428 C 21.358 16.735,21.588 16.197,21.549 15.460 C 21.517 14.852,21.314 14.439,20.739 13.810 L 20.473 13.520 20.454 12.450 C 20.443 11.861,20.421 9.829,20.406 7.934 L 20.377 4.489 20.232 4.270 C 20.075 4.034,19.806 3.791,19.626 3.722 C 19.503 3.676,19.063 3.673,18.832 3.718 " fill="#373B4D" stroke="none" fill-rule="evenodd"></path></svg>