<svg width="24" height="24" viewBox="0 0 24 24" fill="none" xmlns="http://www.w3.org/2000/svg"><path d="M4.540 3.677 C 4.452 3.692,4.320 3.737,4.246 3.776 C 4.061 3.873,3.782 4.160,3.683 4.355 C 3.601 4.516,3.600 4.546,3.600 9.012 L 3.600 13.507 3.391 13.684 C 2.938 14.065,2.694 14.412,2.540 14.892 C 2.248 15.802,2.595 16.893,3.372 17.511 L 3.587 17.682 3.614 18.585 C 3.644 19.619,3.668 19.715,3.975 20.013 C 4.357 20.384,4.846 20.473,5.304 20.255 C 5.481 20.171,5.772 19.890,5.862 19.717 C 5.942 19.561,5.995 18.986,5.998 18.227 L 6.000 17.715 6.330 17.402 C 6.706 17.045,6.884 16.774,7.050 16.307 C 7.269 15.688,7.234 15.242,6.912 14.560 C 6.775 14.272,6.693 14.163,6.375 13.850 L 6.000 13.481 6.000 8.970 L 5.999 4.460 5.829 4.233 C 5.619 3.954,5.396 3.772,5.205 3.724 C 4.973 3.665,4.712 3.647,4.540 3.677 M11.471 3.762 C 11.265 3.871,11.044 4.101,10.957 4.297 C 10.844 4.552,10.801 4.924,10.800 5.633 L 10.800 6.287 10.430 6.653 C 10.032 7.048,9.871 7.302,9.718 7.777 C 9.641 8.016,9.632 8.108,9.652 8.457 C 9.694 9.179,9.881 9.594,10.412 10.148 L 10.737 10.487 10.765 12.733 C 10.781 13.969,10.795 15.984,10.797 17.211 L 10.800 19.443 10.897 19.634 C 11.035 19.906,11.425 20.257,11.654 20.314 C 12.104 20.428,12.477 20.334,12.793 20.028 C 13.135 19.697,13.128 19.730,13.163 18.080 C 13.179 17.277,13.206 15.243,13.222 13.560 L 13.251 10.500 13.540 10.193 C 14.053 9.647,14.281 9.225,14.364 8.668 C 14.425 8.256,14.345 7.867,14.096 7.363 C 13.946 7.060,13.845 6.921,13.581 6.653 L 13.253 6.321 13.206 5.450 C 13.181 4.972,13.142 4.516,13.120 4.439 C 13.067 4.248,12.721 3.867,12.507 3.764 C 12.268 3.648,11.689 3.647,11.471 3.762 M18.731 3.739 C 18.547 3.819,18.199 4.154,18.129 4.320 C 18.040 4.527,18.006 6.104,18.003 10.073 L 18.000 13.446 17.630 13.842 C 17.023 14.492,16.839 14.895,16.841 15.568 C 16.842 16.262,17.054 16.753,17.599 17.332 L 17.946 17.700 17.997 18.554 C 18.024 19.024,18.072 19.493,18.103 19.596 C 18.174 19.836,18.454 20.133,18.732 20.262 C 19.015 20.394,19.382 20.396,19.660 20.266 C 19.926 20.142,20.255 19.782,20.313 19.551 C 20.337 19.455,20.378 19.000,20.405 18.538 L 20.452 17.700 20.800 17.332 C 21.326 16.775,21.560 16.242,21.560 15.603 C 21.559 14.898,21.365 14.485,20.698 13.765 L 20.465 13.513 20.451 12.726 C 20.443 12.294,20.422 10.273,20.404 8.235 L 20.372 4.530 20.283 4.347 C 20.171 4.114,19.771 3.740,19.599 3.706 C 19.375 3.661,18.866 3.681,18.731 3.739 " fill="#373B4D" stroke="none" fill-rule="evenodd"></path></svg>