<svg width="24" height="24" viewBox="0 0 24 24" fill="none" xmlns="http://www.w3.org/2000/svg"><path d="M18.892 3.753 C 18.426 3.917,18.191 4.175,18.121 4.600 C 18.063 4.945,18.004 8.212,18.002 11.114 L 18.000 13.447 17.737 13.734 C 17.238 14.278,16.956 14.790,16.870 15.306 C 16.836 15.513,16.841 15.627,16.895 15.905 C 17.007 16.471,17.215 16.862,17.709 17.428 L 17.960 17.717 17.961 18.088 C 17.961 18.293,17.987 18.649,18.018 18.880 C 18.113 19.597,18.306 19.971,18.688 20.183 C 18.871 20.284,18.940 20.300,19.200 20.298 C 19.559 20.295,19.738 20.216,20.012 19.937 C 20.293 19.652,20.379 19.312,20.426 18.285 L 20.453 17.710 20.613 17.525 C 21.282 16.752,21.519 16.262,21.520 15.646 C 21.521 15.012,21.272 14.454,20.680 13.760 L 20.493 13.540 20.444 9.021 L 20.396 4.502 20.290 4.363 C 19.876 3.821,19.350 3.591,18.892 3.753 M4.390 3.774 C 4.209 3.842,3.918 4.074,3.793 4.250 C 3.656 4.442,3.645 4.765,3.615 9.340 L 3.589 13.460 3.378 13.689 C 2.857 14.253,2.607 14.678,2.500 15.184 C 2.422 15.552,2.425 15.689,2.520 16.061 C 2.643 16.540,2.920 17.007,3.388 17.520 L 3.589 17.740 3.611 18.460 C 3.644 19.501,3.743 19.794,4.164 20.103 C 4.536 20.376,5.094 20.377,5.450 20.106 C 5.844 19.805,5.938 19.500,5.986 18.380 L 6.013 17.740 6.230 17.500 C 6.884 16.777,7.273 15.884,7.163 15.356 C 7.059 14.856,6.679 14.176,6.246 13.712 L 6.000 13.450 6.000 8.928 L 6.000 4.407 5.730 4.159 C 5.582 4.023,5.392 3.877,5.309 3.835 C 5.107 3.731,4.594 3.698,4.390 3.774 M11.449 3.845 C 11.235 3.950,11.061 4.158,10.960 4.429 C 10.871 4.668,10.800 5.315,10.800 5.894 L 10.800 6.288 10.534 6.574 C 10.202 6.930,9.931 7.291,9.837 7.500 C 9.668 7.877,9.656 8.737,9.813 9.192 C 9.901 9.449,10.107 9.766,10.423 10.131 L 10.707 10.461 10.736 13.520 C 10.775 17.660,10.819 19.282,10.898 19.544 C 10.972 19.789,11.294 20.118,11.587 20.247 C 11.967 20.415,12.575 20.254,12.844 19.915 C 13.023 19.689,13.075 19.506,13.121 18.948 C 13.175 18.282,13.238 14.840,13.239 12.470 L 13.240 10.519 13.486 10.230 C 14.192 9.396,14.432 8.806,14.322 8.174 C 14.224 7.610,13.933 7.052,13.470 6.540 L 13.253 6.300 13.226 5.740 C 13.199 5.167,13.121 4.586,13.045 4.390 C 12.980 4.223,12.679 3.917,12.500 3.835 C 12.261 3.726,11.679 3.731,11.449 3.845 " fill="#373B4D" stroke="none" fill-rule="evenodd"></path></svg>