<svg width="24" height="24" viewBox="0 0 24 24" fill="none" xmlns="http://www.w3.org/2000/svg"><path d="M18.980 3.715 C 18.650 3.800,18.323 4.040,18.196 4.288 C 18.069 4.537,18.043 5.294,18.014 9.600 L 17.989 13.460 17.767 13.700 C 17.048 14.479,16.767 15.147,16.877 15.816 C 16.981 16.444,17.173 16.822,17.681 17.398 L 17.960 17.715 17.960 18.007 C 17.960 18.486,18.036 19.162,18.121 19.447 C 18.322 20.122,18.890 20.451,19.531 20.264 C 19.799 20.186,20.122 19.898,20.239 19.631 C 20.335 19.412,20.397 18.963,20.428 18.267 L 20.453 17.715 20.681 17.443 C 21.352 16.641,21.527 16.254,21.524 15.587 C 21.521 15.018,21.271 14.451,20.758 13.849 L 20.492 13.537 20.442 9.018 L 20.392 4.500 20.226 4.283 C 19.886 3.838,19.386 3.611,18.980 3.715 M4.300 3.813 C 4.073 3.924,3.787 4.202,3.718 4.380 C 3.652 4.549,3.605 7.037,3.602 10.554 L 3.600 13.447 3.318 13.754 C 2.782 14.334,2.575 14.717,2.472 15.317 C 2.359 15.979,2.668 16.738,3.355 17.486 L 3.600 17.752 3.600 18.246 C 3.601 18.891,3.661 19.402,3.767 19.646 C 3.858 19.858,4.106 20.104,4.351 20.226 C 4.571 20.335,5.084 20.328,5.303 20.212 C 5.466 20.125,5.714 19.881,5.799 19.722 C 5.891 19.551,5.962 19.045,5.987 18.400 L 6.012 17.740 6.224 17.510 C 6.842 16.839,7.255 15.949,7.180 15.449 C 7.096 14.884,6.664 14.108,6.163 13.622 L 6.000 13.464 6.000 8.936 L 6.000 4.409 5.754 4.181 C 5.333 3.792,5.242 3.746,4.846 3.730 C 4.544 3.718,4.475 3.728,4.300 3.813 M11.660 3.756 C 11.253 3.859,10.980 4.191,10.881 4.701 C 10.856 4.833,10.824 5.246,10.812 5.620 L 10.789 6.300 10.531 6.574 C 10.206 6.920,9.932 7.289,9.828 7.519 C 9.644 7.930,9.662 8.929,9.861 9.323 C 10.009 9.616,10.170 9.846,10.463 10.181 L 10.708 10.463 10.737 13.381 C 10.753 14.987,10.781 17.006,10.799 17.868 C 10.836 19.680,10.826 19.630,11.241 20.015 C 11.522 20.275,11.678 20.334,12.036 20.313 C 12.385 20.294,12.645 20.162,12.863 19.895 C 13.002 19.724,13.034 19.648,13.075 19.397 C 13.158 18.878,13.200 17.355,13.227 13.881 L 13.252 10.503 13.510 10.201 C 13.839 9.815,14.109 9.409,14.225 9.125 C 14.535 8.362,14.253 7.396,13.472 6.540 L 13.252 6.300 13.225 5.707 C 13.195 5.064,13.111 4.495,13.022 4.326 C 12.946 4.181,12.603 3.853,12.480 3.808 C 12.335 3.754,11.801 3.720,11.660 3.756 " fill="#373B4D" stroke="none" fill-rule="evenodd"></path></svg>