<svg width="24" height="24" viewBox="0 0 24 24" fill="none" xmlns="http://www.w3.org/2000/svg"><path d="M4.454 3.717 C 4.159 3.790,3.760 4.159,3.678 4.435 C 3.649 4.532,3.627 6.036,3.612 9.020 L 3.589 13.460 3.270 13.797 C 2.867 14.224,2.701 14.473,2.576 14.845 C 2.430 15.276,2.412 15.659,2.516 16.095 C 2.636 16.598,2.822 16.923,3.243 17.372 L 3.600 17.753 3.601 18.246 C 3.602 18.869,3.660 19.476,3.736 19.657 C 3.812 19.838,4.105 20.130,4.326 20.245 C 4.573 20.373,5.031 20.375,5.269 20.249 C 5.850 19.941,5.996 19.536,5.999 18.226 L 6.000 17.751 6.294 17.438 C 6.790 16.911,7.024 16.490,7.147 15.901 C 7.218 15.561,7.193 15.341,7.031 14.880 C 6.883 14.462,6.733 14.231,6.320 13.790 L 6.000 13.448 6.000 8.933 L 6.000 4.418 5.690 4.111 C 5.520 3.942,5.335 3.788,5.280 3.767 C 5.133 3.713,4.600 3.681,4.454 3.717 M11.638 3.724 C 11.395 3.793,11.112 4.037,10.991 4.280 C 10.863 4.539,10.800 5.048,10.800 5.815 L 10.800 6.303 10.557 6.541 C 10.151 6.940,9.853 7.365,9.756 7.684 C 9.640 8.066,9.660 8.858,9.795 9.206 C 9.915 9.515,10.137 9.846,10.452 10.185 L 10.717 10.469 10.759 14.105 C 10.783 16.104,10.806 18.136,10.811 18.620 C 10.821 19.625,10.816 19.605,11.177 19.972 C 11.486 20.286,11.594 20.334,11.980 20.334 C 12.325 20.334,12.452 20.290,12.731 20.071 C 13.008 19.853,13.080 19.671,13.121 19.092 C 13.171 18.394,13.240 14.403,13.240 12.263 L 13.240 10.512 13.486 10.246 C 13.805 9.901,14.182 9.328,14.263 9.066 C 14.522 8.223,14.250 7.363,13.457 6.520 L 13.251 6.300 13.224 5.740 C 13.180 4.833,13.130 4.485,13.019 4.294 C 12.884 4.065,12.692 3.881,12.497 3.794 C 12.298 3.706,11.833 3.668,11.638 3.724 M18.916 3.717 C 18.580 3.783,18.198 4.113,18.119 4.406 C 18.056 4.636,18.002 7.515,18.001 10.615 L 18.000 13.450 17.761 13.705 C 16.989 14.530,16.775 15.051,16.877 15.849 C 16.956 16.463,17.141 16.825,17.671 17.400 L 17.947 17.700 17.974 18.263 C 18.028 19.414,18.100 19.704,18.406 20.002 C 18.655 20.246,18.878 20.336,19.225 20.334 C 19.573 20.333,19.768 20.233,20.069 19.905 C 20.233 19.724,20.276 19.646,20.314 19.453 C 20.369 19.170,20.438 18.362,20.439 17.986 L 20.440 17.713 20.703 17.426 C 21.043 17.055,21.294 16.677,21.427 16.334 C 21.578 15.947,21.584 15.355,21.442 14.922 C 21.332 14.583,21.075 14.182,20.724 13.795 L 20.483 13.531 20.442 10.515 C 20.419 8.857,20.400 6.825,20.400 6.000 L 20.399 4.500 20.210 4.250 C 19.839 3.763,19.467 3.610,18.916 3.717 " fill="#373B4D" stroke="none" fill-rule="evenodd"></path></svg>