<svg width="24" height="24" viewBox="0 0 24 24" fill="none" xmlns="http://www.w3.org/2000/svg"><path d="M12.180 2.066 C 10.760 2.219,9.367 2.650,8.233 3.285 C 7.260 3.830,6.561 4.361,5.854 5.092 C 3.616 7.407,2.640 10.500,3.144 13.680 C 3.455 15.641,4.280 17.350,5.608 18.781 C 6.230 19.452,6.658 19.825,7.340 20.290 C 8.873 21.337,10.833 21.958,12.653 21.975 C 13.120 21.980,13.171 21.973,13.224 21.902 C 13.275 21.831,13.272 21.814,13.189 21.731 C 13.138 21.680,12.845 21.533,12.538 21.405 C 10.967 20.747,10.016 20.138,9.007 19.145 C 8.065 18.218,7.557 17.514,6.979 16.340 C 6.596 15.563,6.409 15.076,6.239 14.417 C 6.068 13.753,6.029 13.190,6.051 11.704 C 6.071 10.312,6.082 10.229,6.383 9.182 C 6.852 7.551,7.911 5.856,9.165 4.729 C 10.141 3.852,11.189 3.219,12.651 2.625 C 13.419 2.312,13.468 2.272,13.257 2.134 C 13.151 2.065,12.544 2.027,12.180 2.066 M14.040 3.642 C 12.294 3.771,10.453 4.659,9.217 5.970 C 8.568 6.659,8.221 7.169,7.801 8.050 C 7.173 9.371,6.940 10.739,7.083 12.280 C 7.177 13.296,7.604 14.819,7.736 14.607 C 7.748 14.587,7.786 14.167,7.819 13.675 C 7.925 12.113,7.984 11.735,8.244 10.942 C 9.079 8.399,11.197 6.447,13.760 5.856 C 14.452 5.697,15.163 5.657,16.329 5.711 C 17.149 5.748,17.423 5.776,17.780 5.858 C 18.830 6.100,19.406 6.352,20.488 7.046 C 20.926 7.327,21.000 7.359,21.000 7.268 C 21.000 7.156,20.662 6.525,20.450 6.240 C 20.098 5.768,19.395 5.093,18.937 4.789 C 17.920 4.113,16.810 3.746,15.464 3.640 C 14.897 3.596,14.668 3.596,14.040 3.642 M14.537 6.962 C 13.644 7.022,12.674 7.360,11.659 7.964 C 11.258 8.203,10.840 8.529,10.840 8.603 C 10.840 8.673,11.000 8.640,11.410 8.484 C 11.892 8.302,12.295 8.185,12.831 8.075 C 13.401 7.957,14.954 7.926,15.620 8.018 C 17.175 8.232,18.303 8.643,20.253 9.707 C 20.513 9.849,20.753 9.959,20.786 9.952 C 20.832 9.943,20.798 9.866,20.649 9.640 C 19.945 8.573,18.842 7.724,17.560 7.262 C 17.043 7.076,16.642 7.001,15.935 6.960 C 15.201 6.918,15.188 6.918,14.537 6.962 " fill="#373B4D" stroke="none" fill-rule="evenodd"></path></svg>