<svg width="24" height="24" viewBox="0 0 24 24" fill="none" xmlns="http://www.w3.org/2000/svg"><path d="M12.260 2.044 C 8.774 2.364,5.728 4.375,4.148 7.400 C 3.592 8.466,3.259 9.526,3.072 10.820 C 3.004 11.292,3.004 12.868,3.072 13.340 C 3.416 15.727,4.363 17.627,6.005 19.220 C 7.763 20.927,9.994 21.879,12.488 21.987 C 12.998 22.009,13.089 22.003,13.178 21.945 C 13.407 21.795,13.228 21.637,12.563 21.403 C 9.470 20.312,7.017 17.608,6.240 14.432 C 6.024 13.550,5.981 13.152,5.981 12.060 C 5.982 10.967,6.026 10.551,6.240 9.660 C 7.024 6.383,9.466 3.717,12.709 2.599 C 13.239 2.416,13.360 2.350,13.360 2.245 C 13.360 2.027,13.054 1.971,12.260 2.044 M13.620 3.664 C 11.951 3.922,10.505 4.652,9.317 5.838 C 8.075 7.076,7.309 8.680,7.082 10.519 C 7.023 10.996,7.031 12.023,7.098 12.520 C 7.210 13.355,7.481 14.377,7.640 14.567 C 7.768 14.719,7.799 14.600,7.799 13.956 C 7.801 12.054,8.159 10.646,8.985 9.286 C 9.530 8.388,10.360 7.523,11.250 6.926 C 12.538 6.061,13.969 5.640,15.618 5.640 C 17.698 5.640,19.271 6.108,20.607 7.125 C 20.776 7.254,20.937 7.360,20.963 7.360 C 21.028 7.360,20.984 7.159,20.859 6.886 C 20.544 6.199,19.712 5.277,18.946 4.767 C 18.026 4.153,17.015 3.787,15.841 3.642 C 15.368 3.583,14.055 3.596,13.620 3.664 M14.375 6.939 C 13.657 7.049,13.062 7.234,12.371 7.561 C 11.660 7.899,10.840 8.446,10.840 8.584 C 10.840 8.660,10.947 8.700,11.011 8.649 C 11.079 8.594,11.731 8.338,12.042 8.244 C 13.449 7.818,15.216 7.815,16.842 8.236 C 18.016 8.540,19.069 8.993,20.254 9.704 C 20.565 9.891,20.825 10.026,20.832 10.005 C 20.873 9.882,20.401 9.213,19.948 8.750 C 19.017 7.800,17.936 7.241,16.514 6.975 C 16.047 6.888,14.842 6.868,14.375 6.939 " fill="#373B4D" stroke="none" fill-rule="evenodd"></path></svg>