<svg width="24" height="24" viewBox="0 0 24 24" fill="none" xmlns="http://www.w3.org/2000/svg"><path d="M12.560 2.027 C 10.685 2.157,8.966 2.733,7.464 3.737 C 6.828 4.161,6.439 4.479,5.919 4.999 C 4.210 6.709,3.177 8.998,3.036 11.390 C 2.940 13.028,3.186 14.539,3.789 16.000 C 4.655 18.098,6.414 19.957,8.500 20.979 C 9.745 21.589,11.060 21.919,12.508 21.986 C 13.000 22.009,13.089 22.003,13.178 21.945 C 13.408 21.794,13.273 21.683,12.489 21.377 C 11.466 20.979,10.739 20.581,9.940 19.980 C 8.214 18.682,6.895 16.768,6.327 14.740 C 6.032 13.689,6.022 13.598,6.021 12.080 C 6.020 10.806,6.027 10.666,6.110 10.258 C 6.470 8.483,7.121 7.066,8.177 5.760 C 9.299 4.374,10.880 3.265,12.660 2.617 C 13.249 2.402,13.360 2.342,13.360 2.236 C 13.360 2.081,13.029 1.995,12.560 2.027 M14.080 3.627 C 13.739 3.645,13.297 3.717,12.874 3.823 C 11.525 4.160,10.337 4.834,9.332 5.832 C 8.089 7.067,7.309 8.693,7.082 10.519 C 7.029 10.949,7.028 11.912,7.082 12.380 C 7.171 13.165,7.475 14.366,7.635 14.563 C 7.707 14.652,7.710 14.653,7.749 14.578 C 7.771 14.535,7.800 14.140,7.812 13.700 C 7.839 12.777,7.921 12.084,8.079 11.460 C 8.753 8.795,10.774 6.691,13.380 5.940 C 14.106 5.731,14.654 5.665,15.660 5.664 C 16.167 5.664,16.751 5.686,16.960 5.714 C 18.407 5.903,19.451 6.301,20.541 7.078 C 20.758 7.233,20.950 7.360,20.968 7.360 C 21.075 7.360,20.894 6.893,20.628 6.485 C 20.208 5.840,19.558 5.183,18.907 4.748 C 18.749 4.642,18.404 4.449,18.140 4.319 C 16.957 3.736,15.776 3.535,14.080 3.627 M14.058 6.997 C 13.052 7.205,11.924 7.704,11.147 8.287 C 10.858 8.503,10.802 8.578,10.873 8.649 C 10.905 8.681,10.992 8.659,11.189 8.570 C 12.836 7.823,14.968 7.724,17.046 8.296 C 18.014 8.563,18.947 8.960,19.940 9.527 C 20.660 9.939,20.801 10.012,20.827 9.987 C 20.861 9.952,20.687 9.654,20.444 9.332 C 20.313 9.158,20.018 8.835,19.789 8.614 C 18.961 7.817,18.025 7.321,16.807 7.033 C 16.290 6.911,14.582 6.889,14.058 6.997 " fill="#373B4D" stroke="none" fill-rule="evenodd"></path></svg>