<svg width="24" height="24" viewBox="0 0 24 24" fill="none" xmlns="http://www.w3.org/2000/svg"><path d="M11.724 2.122 C 10.106 2.367,8.811 2.860,7.480 3.737 C 6.850 4.152,6.485 4.447,5.984 4.946 C 4.491 6.431,3.504 8.310,3.163 10.320 C 2.705 13.017,3.336 15.820,4.872 17.906 C 6.715 20.410,9.424 21.850,12.540 21.983 C 13.101 22.007,13.260 21.971,13.260 21.820 C 13.260 21.722,13.070 21.613,12.520 21.396 C 11.459 20.976,10.434 20.390,9.656 19.758 C 9.235 19.417,8.523 18.700,8.186 18.280 C 7.139 16.974,6.340 15.251,6.099 13.780 C 6.055 13.512,6.040 13.063,6.040 12.025 C 6.040 10.678,6.044 10.611,6.144 10.125 C 6.345 9.149,6.657 8.263,7.100 7.411 C 8.231 5.238,10.088 3.622,12.568 2.655 C 13.289 2.374,13.360 2.337,13.360 2.237 C 13.360 2.030,12.661 1.980,11.724 2.122 M14.160 3.627 C 12.692 3.709,11.138 4.325,9.919 5.309 C 9.490 5.656,8.823 6.361,8.520 6.790 C 7.727 7.912,7.240 9.189,7.076 10.581 C 7.003 11.196,7.053 12.381,7.176 12.990 C 7.398 14.083,7.638 14.765,7.742 14.597 C 7.757 14.573,7.793 14.117,7.823 13.585 C 7.852 13.053,7.904 12.430,7.938 12.202 C 8.447 8.797,11.177 6.113,14.533 5.717 C 15.079 5.652,16.947 5.692,17.400 5.778 C 18.631 6.010,19.381 6.314,20.415 6.998 C 20.719 7.200,20.980 7.354,20.993 7.340 C 21.033 7.300,20.884 6.918,20.716 6.631 C 20.359 6.022,19.568 5.196,18.955 4.790 C 17.591 3.888,16.075 3.520,14.160 3.627 M14.418 6.961 C 13.459 7.040,12.158 7.570,11.154 8.290 C 10.887 8.481,10.807 8.583,10.873 8.649 C 10.894 8.670,11.099 8.607,11.364 8.499 C 11.898 8.283,12.527 8.113,13.141 8.019 C 13.683 7.936,14.932 7.924,15.500 7.996 C 17.107 8.200,18.312 8.629,20.151 9.650 C 20.509 9.849,20.812 10.001,20.824 9.989 C 20.859 9.954,20.728 9.723,20.499 9.417 C 19.616 8.233,18.411 7.444,16.900 7.061 C 16.440 6.945,15.216 6.896,14.418 6.961 " fill="#373B4D" stroke="none" fill-rule="evenodd"></path></svg>