<svg width="24" height="24" viewBox="0 0 24 24" fill="none" xmlns="http://www.w3.org/2000/svg"><path d="M11.060 3.047 C 9.405 3.214,7.706 3.916,6.371 4.985 C 4.168 6.751,2.911 9.478,3.011 12.280 C 3.147 16.085,5.604 19.352,9.229 20.545 C 11.437 21.272,13.840 21.106,15.947 20.080 C 16.366 19.875,16.443 19.795,16.363 19.646 C 16.310 19.546,15.481 18.816,15.333 18.739 C 15.156 18.647,15.031 18.666,14.405 18.878 C 13.490 19.188,12.934 19.282,12.019 19.282 C 11.287 19.283,10.673 19.200,10.020 19.013 C 7.397 18.263,5.428 16.141,4.850 13.442 C 4.751 12.979,4.742 12.867,4.741 12.000 C 4.741 11.177,4.752 11.004,4.832 10.607 C 5.219 8.694,6.327 7.022,7.917 5.954 C 9.012 5.218,10.180 4.816,11.504 4.721 C 11.814 4.698,13.659 4.681,15.670 4.680 L 19.280 4.680 19.280 11.167 L 19.280 17.655 19.170 17.553 C 19.110 17.497,18.165 16.657,17.070 15.686 C 15.350 14.159,15.063 13.920,14.955 13.920 C 14.851 13.920,14.783 13.971,14.545 14.225 C 14.070 14.734,13.692 14.989,13.114 15.193 C 11.910 15.617,10.607 15.333,9.665 14.442 C 8.889 13.707,8.496 12.604,8.638 11.560 C 8.860 9.937,10.174 8.712,11.800 8.613 C 13.520 8.509,15.046 9.726,15.342 11.440 C 15.377 11.644,15.422 11.852,15.441 11.902 C 15.475 11.991,16.396 12.845,16.663 13.035 C 16.790 13.126,16.803 13.127,16.897 13.066 C 17.037 12.974,17.060 12.812,17.057 11.940 C 17.055 11.106,17.002 10.816,16.724 10.097 C 16.205 8.754,14.977 7.610,13.555 7.146 C 12.631 6.844,11.369 6.844,10.445 7.146 C 9.170 7.562,8.041 8.529,7.442 9.717 C 6.869 10.852,6.760 12.258,7.147 13.497 C 7.428 14.398,7.999 15.247,8.745 15.873 C 9.379 16.405,10.005 16.728,10.831 16.949 C 11.179 17.043,11.296 17.054,11.940 17.057 C 12.730 17.060,12.997 17.023,13.580 16.830 C 13.963 16.703,14.505 16.442,14.797 16.244 C 14.895 16.178,14.992 16.135,15.013 16.148 C 15.034 16.161,16.241 17.227,17.696 18.517 C 19.150 19.806,20.385 20.893,20.439 20.931 C 20.588 21.035,20.748 21.018,20.883 20.883 L 21.000 20.766 21.000 12.020 C 21.000 5.448,20.988 3.253,20.953 3.187 C 20.851 2.995,21.057 3.002,16.100 3.007 C 13.526 3.009,11.258 3.027,11.060 3.047 " fill="#373B4D" stroke="none" fill-rule="evenodd"></path></svg>