<svg width="24" height="24" viewBox="0 0 24 24" fill="none" xmlns="http://www.w3.org/2000/svg"><path d="M11.220 3.068 C 9.718 3.132,7.938 3.813,6.540 4.859 C 6.108 5.182,5.205 6.093,4.852 6.560 C 3.106 8.874,2.575 11.758,3.382 14.542 C 3.657 15.493,4.183 16.542,4.790 17.351 C 6.237 19.279,8.358 20.533,10.800 20.906 C 11.421 21.001,12.615 21.002,13.222 20.908 C 14.273 20.745,15.476 20.358,16.156 19.962 C 16.451 19.790,16.453 19.756,16.179 19.477 C 16.048 19.343,15.797 19.118,15.622 18.977 C 15.331 18.743,15.286 18.720,15.115 18.720 C 15.008 18.720,14.670 18.797,14.333 18.897 C 13.464 19.157,13.309 19.192,12.780 19.244 C 10.064 19.510,7.478 18.299,5.979 16.060 C 5.469 15.298,5.035 14.287,4.853 13.438 C 4.746 12.937,4.747 11.013,4.854 10.520 C 5.016 9.779,5.399 8.831,5.799 8.181 C 6.675 6.757,8.123 5.610,9.716 5.078 C 10.712 4.746,11.081 4.721,15.570 4.693 L 19.280 4.669 19.280 11.158 L 19.280 17.647 19.107 17.493 C 16.128 14.846,15.242 14.076,15.053 13.974 L 14.926 13.905 14.702 14.103 C 14.012 14.711,13.879 14.819,13.660 14.941 C 13.528 15.015,13.257 15.130,13.058 15.196 C 11.389 15.754,9.690 14.993,8.916 13.341 C 8.831 13.160,8.735 12.897,8.702 12.756 C 8.622 12.419,8.623 11.682,8.703 11.288 C 8.912 10.257,9.661 9.345,10.663 8.900 C 11.432 8.558,12.479 8.550,13.275 8.878 C 14.270 9.288,14.969 10.095,15.262 11.170 C 15.490 12.006,15.435 11.910,15.971 12.423 C 16.540 12.967,16.775 13.136,16.884 13.078 C 17.116 12.954,17.137 11.548,16.920 10.699 C 16.490 9.018,15.111 7.630,13.340 7.096 C 13.013 6.997,12.907 6.986,12.170 6.970 C 11.294 6.950,11.046 6.977,10.506 7.146 C 9.503 7.461,8.488 8.192,7.848 9.060 C 7.467 9.576,7.120 10.385,6.999 11.042 C 6.928 11.421,6.937 12.635,7.013 12.980 C 7.231 13.968,7.724 14.857,8.456 15.580 C 9.087 16.204,9.648 16.548,10.527 16.850 L 11.020 17.019 11.860 17.033 C 12.374 17.041,12.788 17.029,12.928 17.002 C 13.336 16.921,13.889 16.717,14.456 16.436 L 15.011 16.160 15.276 16.389 C 15.733 16.786,16.411 17.382,18.040 18.823 C 19.961 20.521,20.393 20.894,20.512 20.957 C 20.622 21.015,20.833 20.958,20.937 20.843 C 21.000 20.774,21.003 20.163,20.990 12.034 C 20.981 7.230,20.961 3.261,20.943 3.213 C 20.926 3.164,20.857 3.106,20.790 3.083 C 20.706 3.053,19.237 3.042,16.084 3.048 C 13.563 3.052,11.374 3.061,11.220 3.068 " fill="#373B4D" stroke="none" fill-rule="evenodd"></path></svg>