<svg width="24" height="24" viewBox="0 0 24 24" fill="none" xmlns="http://www.w3.org/2000/svg"><path d="M10.760 3.045 C 8.486 3.306,6.995 4.440,6.501 6.284 C 6.312 6.989,6.375 7.160,6.860 7.258 C 7.272 7.341,8.508 7.480,8.836 7.480 C 9.195 7.480,9.236 7.441,9.385 6.975 C 9.578 6.371,9.854 6.040,10.366 5.801 C 11.236 5.396,12.225 5.674,12.580 6.423 C 12.727 6.734,12.760 6.969,12.760 7.699 L 12.760 8.346 12.130 8.415 C 11.258 8.509,10.469 8.625,9.886 8.744 C 7.751 9.181,6.507 10.318,6.097 12.206 C 5.998 12.659,6.006 13.792,6.112 14.262 C 6.339 15.276,6.866 16.065,7.617 16.516 C 8.267 16.906,9.224 17.073,10.161 16.959 C 11.243 16.827,11.863 16.515,12.855 15.601 L 13.249 15.238 13.541 15.669 C 13.898 16.195,14.371 16.712,14.614 16.841 C 14.787 16.933,14.801 16.934,14.927 16.873 C 15.218 16.732,17.000 15.046,17.000 14.912 C 17.000 14.789,16.897 14.580,16.617 14.134 C 16.256 13.558,16.130 13.274,16.080 12.921 C 16.056 12.754,16.021 11.249,16.000 9.521 C 15.978 7.757,15.943 6.296,15.919 6.132 C 15.832 5.546,15.546 4.877,15.209 4.474 C 14.499 3.624,13.385 3.142,11.900 3.042 C 11.228 2.996,11.181 2.996,10.760 3.045 M12.800 10.772 C 12.800 11.403,12.732 12.267,12.656 12.598 C 12.527 13.165,12.070 13.930,11.705 14.192 C 11.357 14.442,11.182 14.498,10.740 14.499 C 10.398 14.500,10.315 14.487,10.168 14.408 C 9.920 14.276,9.686 14.018,9.544 13.720 C 9.424 13.467,9.420 13.441,9.407 12.814 C 9.396 12.215,9.402 12.147,9.491 11.890 C 9.617 11.527,9.844 11.191,10.097 10.990 C 10.637 10.561,11.521 10.307,12.550 10.285 L 12.800 10.280 12.800 10.772 M18.300 17.042 C 17.799 17.098,17.156 17.345,16.905 17.579 C 16.802 17.675,16.796 17.693,16.849 17.747 C 16.901 17.799,16.970 17.801,17.342 17.763 C 17.806 17.717,18.676 17.705,18.866 17.743 C 19.299 17.830,19.297 18.233,18.854 19.555 C 18.619 20.258,18.616 20.360,18.831 20.233 C 18.993 20.137,19.332 19.703,19.513 19.361 C 19.873 18.677,20.100 17.622,19.954 17.303 C 19.895 17.172,19.653 17.093,19.160 17.041 C 18.740 16.997,18.702 16.997,18.300 17.042 M3.020 17.400 C 2.970 17.481,3.048 17.598,3.332 17.867 C 4.139 18.633,5.334 19.407,6.541 19.944 C 9.559 21.288,12.875 21.347,15.980 20.112 C 17.004 19.704,18.207 19.004,18.453 18.672 C 18.527 18.571,18.528 18.558,18.467 18.465 C 18.364 18.308,18.278 18.307,17.855 18.462 C 17.638 18.541,17.265 18.677,17.027 18.764 C 15.625 19.273,14.018 19.604,12.562 19.684 C 10.912 19.774,9.431 19.635,7.808 19.239 C 6.344 18.882,5.058 18.386,3.758 17.677 C 3.184 17.364,3.069 17.321,3.020 17.400 " fill="#373B4D" stroke="none" fill-rule="evenodd"></path></svg>