<svg width="24" height="24" viewBox="0 0 24 24" fill="none" xmlns="http://www.w3.org/2000/svg"><path d="M10.660 3.063 C 8.875 3.305,7.632 4.041,6.915 5.280 C 6.658 5.723,6.429 6.420,6.424 6.773 C 6.419 7.108,6.472 7.165,6.871 7.255 C 7.208 7.331,8.498 7.480,8.825 7.480 C 9.150 7.480,9.246 7.403,9.362 7.050 C 9.573 6.403,9.918 5.990,10.426 5.776 C 10.676 5.671,10.742 5.661,11.180 5.661 C 11.616 5.660,11.681 5.670,11.885 5.765 C 12.196 5.911,12.418 6.125,12.562 6.417 C 12.715 6.729,12.758 7.024,12.759 7.770 C 12.760 8.308,12.754 8.360,12.689 8.360 C 12.537 8.360,10.921 8.565,10.464 8.642 C 9.446 8.814,8.927 8.972,8.272 9.309 C 7.298 9.811,6.655 10.536,6.301 11.531 C 6.060 12.205,6.030 12.425,6.050 13.330 C 6.066 14.062,6.078 14.175,6.174 14.500 C 6.470 15.495,7.061 16.254,7.828 16.624 C 8.446 16.923,9.329 17.054,10.113 16.963 C 11.200 16.836,11.875 16.499,12.875 15.583 L 13.249 15.239 13.481 15.579 C 13.958 16.277,14.497 16.843,14.745 16.905 C 14.812 16.922,14.889 16.898,14.991 16.830 C 15.221 16.678,15.884 16.080,16.475 15.493 C 17.111 14.860,17.099 14.933,16.682 14.240 C 16.361 13.707,16.187 13.366,16.123 13.140 C 16.094 13.039,16.062 12.260,16.038 11.040 C 15.940 6.129,15.938 6.099,15.821 5.702 C 15.534 4.728,14.955 4.036,14.045 3.580 C 13.436 3.274,12.758 3.111,11.800 3.040 C 11.164 2.993,11.174 2.993,10.660 3.063 M12.787 11.050 C 12.754 12.034,12.702 12.459,12.562 12.869 C 12.351 13.488,11.896 14.110,11.492 14.330 C 11.121 14.532,10.482 14.564,10.156 14.398 C 9.964 14.300,9.669 13.967,9.539 13.701 C 9.443 13.506,9.431 13.428,9.411 12.873 C 9.387 12.218,9.423 11.989,9.608 11.621 C 10.025 10.793,11.079 10.319,12.576 10.285 L 12.813 10.280 12.787 11.050 M18.339 17.042 C 17.761 17.117,17.128 17.361,16.906 17.593 C 16.793 17.712,16.792 17.713,16.876 17.758 C 16.938 17.791,17.087 17.792,17.430 17.762 C 18.028 17.710,18.698 17.709,18.884 17.760 C 19.112 17.824,19.175 17.923,19.172 18.211 C 19.168 18.496,19.107 18.754,18.857 19.534 C 18.666 20.130,18.643 20.280,18.741 20.280 C 18.829 20.280,19.125 19.964,19.342 19.637 C 19.670 19.143,19.940 18.355,19.985 17.760 C 20.025 17.235,19.936 17.150,19.248 17.058 C 18.780 16.996,18.698 16.995,18.339 17.042 M3.014 17.420 C 2.978 17.515,3.171 17.733,3.654 18.146 C 4.478 18.851,5.706 19.594,6.809 20.056 C 9.633 21.240,12.724 21.302,15.651 20.236 C 16.749 19.836,18.241 19.001,18.463 18.661 C 18.524 18.567,18.524 18.553,18.464 18.460 C 18.364 18.308,18.220 18.330,17.419 18.621 C 15.248 19.409,13.709 19.695,11.620 19.695 C 10.463 19.696,9.872 19.645,8.840 19.456 C 7.001 19.120,5.492 18.588,3.640 17.621 C 3.365 17.478,3.117 17.360,3.089 17.360 C 3.061 17.360,3.027 17.387,3.014 17.420 " fill="#373B4D" stroke="none" fill-rule="evenodd"></path></svg>