<svg width="24" height="24" viewBox="0 0 24 24" fill="none" xmlns="http://www.w3.org/2000/svg"><path d="M10.356 3.117 C 8.663 3.444,7.518 4.187,6.877 5.376 C 6.571 5.943,6.376 6.699,6.454 7.011 C 6.499 7.190,6.917 7.297,8.055 7.423 C 8.728 7.498,9.042 7.487,9.156 7.384 C 9.198 7.346,9.341 7.094,9.473 6.824 C 9.752 6.256,9.949 6.027,10.319 5.841 C 10.546 5.726,10.606 5.714,11.096 5.692 C 11.613 5.669,11.634 5.671,11.864 5.776 C 12.276 5.964,12.542 6.293,12.667 6.767 C 12.743 7.058,12.769 8.247,12.700 8.315 C 12.678 8.338,12.363 8.393,12.000 8.439 C 9.893 8.707,9.147 8.881,8.342 9.292 C 7.384 9.781,6.789 10.406,6.380 11.350 C 6.104 11.987,6.068 12.195,6.066 13.180 C 6.064 14.005,6.071 14.084,6.168 14.443 C 6.650 16.221,8.025 17.117,10.029 16.957 C 11.099 16.872,11.880 16.489,12.915 15.545 L 13.250 15.240 13.449 15.530 C 13.870 16.141,14.469 16.794,14.682 16.874 C 14.884 16.949,15.098 16.794,16.134 15.820 C 16.780 15.212,16.960 14.998,16.960 14.837 C 16.960 14.783,16.850 14.541,16.716 14.299 C 16.221 13.410,16.158 13.262,16.119 12.886 C 16.100 12.696,16.064 11.613,16.041 10.480 C 15.983 7.709,15.929 6.341,15.864 5.968 C 15.758 5.363,15.422 4.706,15.006 4.290 C 14.597 3.881,13.958 3.501,13.380 3.322 C 12.557 3.068,11.114 2.970,10.356 3.117 M12.800 10.510 C 12.799 10.923,12.722 12.053,12.676 12.340 C 12.541 13.166,11.984 14.064,11.432 14.344 C 11.079 14.523,10.471 14.541,10.163 14.382 C 9.974 14.284,9.709 13.991,9.582 13.741 C 9.442 13.463,9.369 12.735,9.433 12.253 C 9.544 11.422,10.215 10.752,11.209 10.481 C 11.542 10.390,12.232 10.290,12.570 10.284 L 12.800 10.280 12.800 10.510 M18.273 17.058 C 17.919 17.120,17.639 17.206,17.300 17.359 C 17.031 17.480,16.788 17.667,16.824 17.726 C 16.838 17.749,17.238 17.760,17.854 17.752 C 19.199 17.736,19.215 17.744,19.128 18.436 C 19.105 18.625,19.004 19.050,18.905 19.380 C 18.685 20.112,18.652 20.280,18.723 20.280 C 18.799 20.280,19.155 19.899,19.339 19.620 C 19.646 19.156,19.932 18.329,19.984 17.760 C 20.025 17.311,19.928 17.195,19.436 17.103 C 18.964 17.015,18.605 17.001,18.273 17.058 M3.021 17.399 C 2.980 17.465,3.060 17.570,3.407 17.902 C 4.490 18.941,6.290 19.958,7.920 20.453 C 9.335 20.883,10.611 21.036,12.140 20.959 C 13.905 20.871,15.872 20.292,17.420 19.404 C 17.924 19.114,18.416 18.759,18.482 18.637 C 18.545 18.518,18.431 18.400,18.253 18.400 C 18.178 18.400,17.700 18.536,17.189 18.703 C 14.641 19.534,13.928 19.656,11.600 19.657 C 9.994 19.657,9.793 19.642,8.748 19.436 C 6.926 19.078,5.761 18.670,3.802 17.704 C 3.418 17.515,3.091 17.360,3.074 17.360 C 3.058 17.360,3.034 17.378,3.021 17.399 " fill="#373B4D" stroke="none" fill-rule="evenodd"></path></svg>