<svg width="24" height="24" viewBox="0 0 24 24" fill="none" xmlns="http://www.w3.org/2000/svg"><path d="M10.630 3.081 C 10.206 3.129,9.481 3.324,9.022 3.513 C 7.955 3.953,7.123 4.748,6.715 5.719 C 6.460 6.325,6.365 6.962,6.510 7.089 C 6.549 7.122,6.670 7.179,6.780 7.215 C 7.185 7.346,8.613 7.511,8.931 7.463 C 9.150 7.431,9.171 7.405,9.484 6.803 C 9.751 6.287,10.002 6.004,10.337 5.838 C 10.577 5.720,10.611 5.715,11.144 5.708 C 11.649 5.701,11.717 5.708,11.883 5.790 C 12.302 5.997,12.590 6.384,12.677 6.857 C 12.700 6.988,12.720 7.368,12.720 7.703 C 12.720 8.204,12.710 8.315,12.661 8.334 C 12.628 8.347,12.137 8.422,11.571 8.501 C 9.820 8.745,9.153 8.903,8.460 9.238 C 7.464 9.720,6.808 10.380,6.394 11.319 C 6.103 11.978,6.072 12.184,6.090 13.311 C 6.105 14.293,6.106 14.302,6.227 14.640 C 6.652 15.829,7.319 16.491,8.428 16.825 C 8.900 16.967,9.904 17.005,10.455 16.902 C 11.330 16.738,11.991 16.373,12.916 15.545 L 13.253 15.244 13.450 15.531 C 13.723 15.927,14.113 16.388,14.402 16.655 C 14.686 16.918,14.779 16.934,15.042 16.766 C 15.427 16.521,16.780 15.235,16.900 15.002 C 16.990 14.826,16.967 14.759,16.571 14.032 C 16.407 13.731,16.239 13.375,16.197 13.241 C 16.116 12.981,16.101 12.625,15.999 8.740 C 15.932 6.164,15.894 5.814,15.620 5.215 C 15.352 4.629,14.961 4.180,14.403 3.819 C 13.813 3.438,13.297 3.255,12.487 3.143 C 11.933 3.066,11.023 3.036,10.630 3.081 M12.800 10.491 C 12.800 10.828,12.723 11.955,12.678 12.260 C 12.553 13.130,11.984 14.066,11.410 14.346 C 11.148 14.475,10.620 14.521,10.324 14.441 C 10.109 14.383,9.776 14.081,9.631 13.810 C 9.364 13.316,9.340 12.292,9.582 11.763 C 9.873 11.129,10.501 10.653,11.300 10.462 C 11.639 10.381,12.303 10.290,12.590 10.284 L 12.800 10.280 12.800 10.491 M17.938 17.138 C 17.577 17.231,17.108 17.440,16.924 17.589 C 16.735 17.742,16.830 17.760,17.832 17.760 C 18.866 17.760,19.058 17.788,19.129 17.944 C 19.199 18.097,19.111 18.635,18.881 19.458 C 18.675 20.194,18.657 20.280,18.711 20.280 C 18.848 20.280,19.344 19.670,19.534 19.270 C 19.834 18.635,20.061 17.682,19.973 17.420 C 19.920 17.261,19.753 17.170,19.381 17.099 C 18.921 17.011,18.371 17.026,17.938 17.138 M3.021 17.399 C 2.980 17.464,3.061 17.571,3.375 17.870 C 4.879 19.299,7.254 20.453,9.440 20.816 C 10.462 20.985,11.860 21.021,12.820 20.902 C 14.238 20.726,15.581 20.325,16.862 19.696 C 17.433 19.416,18.132 18.978,18.373 18.750 C 18.504 18.626,18.519 18.594,18.482 18.523 C 18.384 18.341,18.211 18.374,16.620 18.883 C 14.574 19.537,13.818 19.650,11.500 19.650 C 9.966 19.651,9.785 19.637,8.760 19.436 C 7.028 19.097,5.899 18.710,4.032 17.815 C 3.511 17.565,3.075 17.360,3.065 17.360 C 3.054 17.360,3.034 17.378,3.021 17.399 " fill="#373B4D" stroke="none" fill-rule="evenodd"></path></svg>