<svg width="24" height="24" viewBox="0 0 24 24" fill="none" xmlns="http://www.w3.org/2000/svg"><path d="M8.666 2.098 L 8.560 2.196 8.643 2.408 C 8.689 2.525,8.842 2.838,8.983 3.103 L 9.239 3.587 8.980 3.797 C 8.650 4.065,8.033 4.715,7.840 5.000 C 7.649 5.281,7.316 5.948,7.206 6.269 C 7.089 6.610,6.920 7.466,6.920 7.715 L 6.920 7.920 12.000 7.920 L 17.080 7.920 17.080 7.698 C 17.080 7.314,16.865 6.427,16.636 5.864 C 16.363 5.193,15.734 4.388,15.038 3.818 L 14.763 3.593 15.003 3.114 C 15.431 2.260,15.483 2.040,15.255 2.040 C 15.110 2.040,14.963 2.213,14.637 2.765 C 14.484 3.024,14.342 3.247,14.320 3.260 C 14.298 3.273,14.051 3.210,13.770 3.118 C 13.001 2.868,12.833 2.841,12.000 2.841 C 11.163 2.841,10.961 2.873,10.211 3.123 C 9.942 3.213,9.705 3.275,9.684 3.262 C 9.663 3.249,9.514 3.022,9.353 2.757 C 9.059 2.273,8.861 2.000,8.803 2.000 C 8.786 2.000,8.724 2.044,8.666 2.098 M9.958 5.259 C 10.148 5.357,10.240 5.508,10.240 5.720 C 10.240 6.061,9.959 6.268,9.664 6.144 C 9.506 6.078,9.360 5.874,9.360 5.719 C 9.360 5.563,9.492 5.354,9.642 5.273 C 9.807 5.185,9.814 5.185,9.958 5.259 M14.510 5.418 C 14.730 5.656,14.652 5.989,14.341 6.137 C 14.157 6.224,14.025 6.195,13.875 6.035 C 13.655 5.799,13.689 5.511,13.960 5.328 C 14.151 5.199,14.336 5.229,14.510 5.418 M4.730 8.307 C 4.510 8.430,4.216 8.707,4.144 8.857 C 4.035 9.088,4.003 9.870,4.001 12.375 L 4.000 14.690 4.199 14.959 C 4.399 15.228,4.600 15.398,4.813 15.478 C 4.954 15.531,5.414 15.532,5.601 15.480 C 5.781 15.430,6.168 15.087,6.258 14.899 C 6.364 14.675,6.398 13.825,6.399 11.340 L 6.399 9.100 6.282 8.895 C 6.139 8.646,5.859 8.393,5.653 8.325 C 5.569 8.298,5.356 8.266,5.180 8.255 C 4.918 8.238,4.836 8.247,4.730 8.307 M18.373 8.282 C 18.218 8.329,17.820 8.685,17.733 8.853 C 17.633 9.048,17.590 10.381,17.613 12.620 C 17.627 14.005,17.648 14.672,17.682 14.790 C 17.716 14.913,17.794 15.020,17.960 15.173 C 18.261 15.452,18.417 15.522,18.738 15.525 C 19.276 15.529,19.651 15.289,19.914 14.772 C 19.999 14.604,20.000 14.586,19.999 11.872 C 19.998 9.269,19.995 9.132,19.922 8.972 C 19.823 8.754,19.522 8.454,19.306 8.358 C 19.105 8.270,18.557 8.225,18.373 8.282 M6.920 12.356 L 6.920 16.271 7.093 16.506 C 7.303 16.790,7.540 17.008,7.762 17.121 C 7.962 17.223,8.389 17.318,8.650 17.319 L 8.840 17.320 8.840 18.682 C 8.840 20.220,8.833 20.181,9.171 20.548 C 9.433 20.832,9.676 20.938,10.060 20.938 C 10.444 20.938,10.687 20.832,10.949 20.548 C 11.287 20.181,11.280 20.220,11.280 18.682 L 11.280 17.320 12.000 17.320 L 12.720 17.320 12.720 18.682 C 12.720 20.220,12.713 20.181,13.051 20.548 C 13.313 20.832,13.556 20.938,13.940 20.938 C 14.324 20.938,14.567 20.832,14.829 20.548 C 15.167 20.181,15.160 20.219,15.160 18.688 L 15.160 17.332 15.470 17.307 C 16.194 17.247,16.536 17.046,16.953 16.433 L 17.080 16.246 17.080 12.343 L 17.080 8.440 12.000 8.440 L 6.920 8.440 6.920 12.356 " fill="#373B4D" stroke="none" fill-rule="evenodd"></path></svg>