<svg width="24" height="24" viewBox="0 0 24 24" fill="none" xmlns="http://www.w3.org/2000/svg"><path d="M8.640 2.080 C 8.596 2.124,8.560 2.190,8.560 2.226 C 8.560 2.262,8.713 2.578,8.900 2.927 C 9.087 3.276,9.240 3.568,9.240 3.575 C 9.240 3.583,9.119 3.679,8.970 3.790 C 8.593 4.071,8.060 4.637,7.789 5.045 C 7.290 5.795,6.998 6.655,6.934 7.561 L 6.908 7.920 12.000 7.920 L 17.092 7.920 17.066 7.561 C 17.002 6.655,16.710 5.795,16.211 5.045 C 15.940 4.637,15.407 4.071,15.030 3.790 C 14.882 3.679,14.760 3.583,14.760 3.576 C 14.760 3.568,14.915 3.274,15.104 2.921 C 15.475 2.231,15.498 2.123,15.299 2.032 C 15.117 1.949,15.040 2.032,14.686 2.695 C 14.503 3.039,14.341 3.320,14.328 3.320 C 14.314 3.320,14.159 3.258,13.982 3.182 C 12.688 2.629,11.312 2.629,10.018 3.182 C 9.841 3.258,9.685 3.320,9.672 3.320 C 9.658 3.320,9.506 3.055,9.333 2.730 C 9.161 2.406,8.989 2.109,8.950 2.070 C 8.858 1.978,8.739 1.981,8.640 2.080 M9.997 5.263 C 10.351 5.405,10.413 5.847,10.114 6.099 C 9.782 6.378,9.256 6.055,9.337 5.622 C 9.366 5.465,9.556 5.254,9.690 5.228 C 9.740 5.219,9.793 5.208,9.809 5.205 C 9.825 5.202,9.910 5.229,9.997 5.263 M14.466 5.308 C 14.566 5.373,14.680 5.592,14.680 5.718 C 14.680 5.765,14.653 5.855,14.621 5.918 C 14.412 6.322,13.860 6.285,13.720 5.859 C 13.575 5.422,14.076 5.052,14.466 5.308 M4.692 8.319 C 4.415 8.459,4.229 8.648,4.104 8.918 C 4.021 9.098,4.020 9.138,4.020 11.880 L 4.020 14.660 4.110 14.841 C 4.330 15.283,4.665 15.518,5.121 15.551 C 5.514 15.579,5.761 15.486,6.043 15.204 C 6.418 14.827,6.400 14.999,6.400 11.874 C 6.400 9.266,6.397 9.155,6.320 8.950 C 6.234 8.718,5.958 8.419,5.720 8.297 C 5.633 8.253,5.459 8.220,5.260 8.210 C 4.964 8.195,4.921 8.203,4.692 8.319 M18.440 8.237 C 18.252 8.295,18.100 8.393,17.934 8.567 C 17.596 8.920,17.621 8.673,17.609 11.796 C 17.596 15.003,17.578 14.824,17.957 15.203 C 18.240 15.486,18.486 15.579,18.879 15.551 C 19.335 15.518,19.638 15.309,19.872 14.864 L 19.980 14.660 19.980 11.880 C 19.980 9.138,19.979 9.098,19.896 8.918 C 19.771 8.649,19.585 8.459,19.311 8.322 C 19.109 8.221,19.022 8.201,18.804 8.203 C 18.659 8.205,18.495 8.221,18.440 8.237 M6.929 12.330 L 6.940 16.220 7.047 16.448 C 7.308 17.004,7.862 17.320,8.580 17.320 L 8.836 17.320 8.848 18.690 C 8.860 20.035,8.862 20.064,8.955 20.271 C 9.146 20.692,9.612 21.000,10.060 21.000 C 10.508 21.000,10.974 20.692,11.165 20.271 C 11.258 20.064,11.260 20.035,11.272 18.690 L 11.284 17.320 12.000 17.320 L 12.716 17.320 12.728 18.690 C 12.740 20.035,12.742 20.064,12.835 20.271 C 13.026 20.692,13.492 21.000,13.940 21.000 C 14.388 21.000,14.854 20.692,15.045 20.271 C 15.138 20.064,15.140 20.035,15.152 18.690 L 15.164 17.320 15.420 17.320 C 16.138 17.320,16.692 17.004,16.953 16.448 L 17.060 16.220 17.071 12.330 L 17.082 8.440 12.000 8.440 L 6.918 8.440 6.929 12.330 " fill="#373B4D" stroke="none" fill-rule="evenodd"></path></svg>