<svg width="24" height="24" viewBox="0 0 24 24" fill="none" xmlns="http://www.w3.org/2000/svg"><path d="M8.659 2.097 C 8.567 2.190,8.564 2.203,8.617 2.350 C 8.647 2.436,8.800 2.750,8.957 3.048 L 9.241 3.589 9.091 3.703 C 8.796 3.926,8.144 4.585,7.918 4.888 C 7.661 5.233,7.336 5.867,7.185 6.321 C 7.066 6.675,6.920 7.453,6.920 7.727 L 6.920 7.920 12.000 7.920 L 17.080 7.920 17.080 7.696 C 17.080 7.216,16.791 6.136,16.517 5.593 C 16.216 4.998,15.622 4.285,15.014 3.792 L 14.766 3.591 15.083 2.951 C 15.415 2.281,15.458 2.114,15.317 2.039 C 15.154 1.951,14.978 2.157,14.520 2.970 C 14.424 3.141,14.325 3.280,14.301 3.280 C 14.276 3.280,14.072 3.218,13.847 3.142 C 13.002 2.858,12.810 2.824,12.020 2.823 C 11.212 2.821,11.009 2.855,10.212 3.123 C 9.954 3.209,9.724 3.280,9.699 3.280 C 9.674 3.280,9.530 3.062,9.377 2.796 C 9.103 2.319,8.870 2.000,8.795 2.000 C 8.774 2.000,8.713 2.044,8.659 2.097 M9.952 5.256 C 10.165 5.367,10.260 5.510,10.260 5.721 C 10.260 5.881,10.239 5.936,10.143 6.037 C 9.752 6.445,9.144 5.935,9.441 5.448 C 9.485 5.375,9.580 5.290,9.651 5.259 C 9.814 5.188,9.822 5.188,9.952 5.256 M14.377 5.286 C 14.432 5.311,14.524 5.399,14.581 5.482 C 14.676 5.618,14.681 5.647,14.642 5.793 C 14.565 6.079,14.242 6.263,14.013 6.153 C 13.870 6.084,13.720 5.859,13.720 5.712 C 13.720 5.381,14.077 5.149,14.377 5.286 M4.659 8.345 C 4.439 8.491,4.205 8.718,4.133 8.856 C 4.033 9.046,4.003 9.832,4.001 12.325 L 4.000 14.671 4.163 14.915 C 4.336 15.174,4.535 15.360,4.744 15.459 C 4.917 15.541,5.473 15.540,5.671 15.458 C 5.843 15.387,6.177 15.075,6.269 14.901 C 6.365 14.718,6.395 13.890,6.398 11.359 L 6.400 9.098 6.250 8.843 C 6.001 8.419,5.660 8.240,5.102 8.240 C 4.863 8.240,4.794 8.256,4.659 8.345 M18.364 8.281 C 18.164 8.365,17.875 8.615,17.771 8.793 C 17.663 8.975,17.662 8.989,17.628 9.999 C 17.609 10.560,17.603 11.861,17.613 12.889 C 17.635 15.015,17.607 14.848,18.001 15.217 C 18.265 15.464,18.435 15.533,18.781 15.536 C 19.267 15.539,19.656 15.282,19.902 14.795 L 20.008 14.587 19.994 11.844 L 19.980 9.100 19.887 8.910 C 19.784 8.702,19.521 8.449,19.289 8.335 C 19.117 8.251,18.519 8.216,18.364 8.281 M6.921 12.350 L 6.921 16.260 7.113 16.540 C 7.452 17.035,7.870 17.265,8.510 17.309 L 8.840 17.331 8.840 18.696 L 8.841 20.060 8.962 20.272 C 9.216 20.714,9.608 20.960,10.060 20.960 C 10.512 20.960,10.904 20.714,11.158 20.272 L 11.279 20.060 11.280 18.690 L 11.280 17.320 12.000 17.320 L 12.720 17.320 12.720 18.690 L 12.721 20.060 12.842 20.272 C 13.096 20.714,13.488 20.960,13.940 20.960 C 14.392 20.960,14.784 20.714,15.038 20.272 L 15.159 20.060 15.160 18.696 L 15.160 17.332 15.491 17.309 C 15.898 17.280,16.297 17.141,16.536 16.946 C 16.633 16.866,16.795 16.676,16.896 16.522 L 17.080 16.243 17.080 12.341 L 17.080 8.440 12.000 8.440 L 6.920 8.440 6.921 12.350 " fill="#373B4D" stroke="none" fill-rule="evenodd"></path></svg>