<svg width="24" height="24" viewBox="0 0 24 24" fill="none" xmlns="http://www.w3.org/2000/svg"><path d="M8.641 2.098 C 8.528 2.219,8.529 2.222,8.947 3.024 L 9.240 3.588 8.993 3.783 C 8.616 4.079,8.082 4.634,7.846 4.975 C 7.574 5.368,7.273 6.003,7.140 6.460 C 7.028 6.849,6.921 7.476,6.920 7.750 L 6.920 7.920 12.000 7.920 L 17.080 7.920 17.080 7.727 C 17.080 7.200,16.811 6.171,16.521 5.592 C 16.201 4.953,15.630 4.272,14.999 3.776 L 14.763 3.590 15.081 2.970 C 15.425 2.302,15.470 2.120,15.315 2.037 C 15.139 1.943,15.009 2.094,14.572 2.894 C 14.399 3.211,14.325 3.313,14.280 3.295 C 13.944 3.154,13.148 2.910,12.865 2.861 C 12.402 2.781,11.594 2.783,11.117 2.864 C 10.817 2.916,10.167 3.116,9.720 3.295 C 9.675 3.313,9.583 3.180,9.360 2.775 C 9.054 2.220,8.893 2.000,8.791 2.000 C 8.760 2.000,8.692 2.044,8.641 2.098 M10.001 5.280 C 10.534 5.552,10.231 6.348,9.666 6.162 C 9.263 6.029,9.256 5.431,9.656 5.257 C 9.818 5.187,9.817 5.187,10.001 5.280 M14.376 5.278 C 14.431 5.300,14.525 5.390,14.584 5.479 C 14.683 5.628,14.688 5.655,14.646 5.796 C 14.551 6.114,14.268 6.263,13.985 6.145 C 13.823 6.077,13.720 5.896,13.720 5.680 C 13.720 5.368,14.061 5.159,14.376 5.278 M4.878 8.236 C 4.707 8.291,4.468 8.460,4.306 8.639 C 4.008 8.969,4.025 8.786,4.008 11.870 L 3.993 14.640 4.102 14.828 C 4.264 15.103,4.501 15.344,4.712 15.446 C 4.858 15.517,4.967 15.536,5.219 15.535 C 5.608 15.535,5.756 15.473,6.034 15.194 C 6.395 14.833,6.369 15.068,6.392 11.917 L 6.411 9.132 6.278 8.883 C 6.051 8.456,5.749 8.268,5.220 8.223 C 5.088 8.212,4.934 8.218,4.878 8.236 M18.516 8.236 C 18.180 8.305,17.765 8.667,17.678 8.966 C 17.623 9.154,17.586 12.830,17.628 13.923 L 17.663 14.826 17.808 15.024 C 18.115 15.442,18.532 15.614,19.018 15.524 C 19.400 15.453,19.690 15.214,19.903 14.795 L 20.008 14.587 19.993 11.843 C 19.978 9.173,19.975 9.095,19.895 8.920 C 19.797 8.706,19.499 8.421,19.267 8.320 C 19.069 8.233,18.718 8.194,18.516 8.236 M6.920 12.332 L 6.920 16.225 7.063 16.462 C 7.141 16.593,7.269 16.766,7.347 16.846 C 7.627 17.134,8.113 17.320,8.588 17.320 L 8.840 17.320 8.840 18.672 L 8.840 20.024 8.948 20.242 C 9.181 20.710,9.574 20.966,10.060 20.966 C 10.546 20.966,10.939 20.710,11.172 20.242 L 11.280 20.024 11.280 18.672 L 11.280 17.320 12.000 17.320 L 12.720 17.320 12.720 18.672 L 12.720 20.024 12.828 20.242 C 13.061 20.710,13.454 20.966,13.940 20.966 C 14.426 20.966,14.819 20.710,15.052 20.242 L 15.160 20.024 15.160 18.672 L 15.160 17.320 15.390 17.319 C 15.691 17.319,16.086 17.224,16.322 17.095 C 16.562 16.964,16.756 16.765,16.937 16.462 L 17.080 16.225 17.080 12.332 L 17.080 8.440 12.000 8.440 L 6.920 8.440 6.920 12.332 " fill="#373B4D" stroke="none" fill-rule="evenodd"></path></svg>