<svg width="24" height="24" viewBox="0 0 24 24" fill="none" xmlns="http://www.w3.org/2000/svg"><path d="M8.642 2.098 C 8.552 2.194,8.551 2.200,8.615 2.360 C 8.651 2.450,8.807 2.761,8.962 3.052 L 9.243 3.580 9.152 3.652 C 8.526 4.147,8.091 4.594,7.781 5.061 C 7.307 5.775,7.003 6.673,6.936 7.553 L 6.909 7.920 11.994 7.920 L 17.080 7.920 17.080 7.755 C 17.080 7.435,16.952 6.735,16.818 6.320 C 16.469 5.244,15.919 4.498,14.848 3.652 L 14.757 3.580 15.043 3.043 C 15.200 2.748,15.353 2.436,15.384 2.350 C 15.446 2.173,15.411 2.062,15.282 2.020 C 15.112 1.967,15.014 2.086,14.580 2.880 C 14.454 3.111,14.347 3.305,14.341 3.311 C 14.336 3.317,14.126 3.242,13.876 3.144 C 13.208 2.882,12.709 2.788,12.000 2.788 C 11.291 2.788,10.792 2.882,10.124 3.144 C 9.874 3.242,9.664 3.317,9.659 3.311 C 9.654 3.305,9.510 3.048,9.341 2.740 C 8.915 1.967,8.835 1.893,8.642 2.098 M9.975 5.255 C 10.357 5.415,10.395 5.957,10.036 6.142 C 9.676 6.328,9.241 5.982,9.355 5.600 C 9.418 5.392,9.597 5.236,9.811 5.205 C 9.828 5.202,9.902 5.225,9.975 5.255 M14.415 5.285 C 14.470 5.310,14.556 5.408,14.606 5.504 C 14.694 5.668,14.695 5.686,14.639 5.847 C 14.536 6.143,14.227 6.278,13.964 6.142 C 13.801 6.058,13.720 5.910,13.720 5.697 C 13.720 5.540,13.740 5.492,13.856 5.376 C 13.966 5.266,14.023 5.240,14.154 5.240 C 14.243 5.240,14.361 5.260,14.415 5.285 M4.723 8.304 C 4.450 8.443,4.217 8.674,4.107 8.914 C 4.024 9.097,4.022 9.150,4.007 11.851 L 3.992 14.603 4.105 14.825 C 4.248 15.109,4.477 15.345,4.714 15.453 C 4.967 15.569,5.472 15.574,5.696 15.463 C 5.944 15.340,6.265 15.000,6.327 14.797 C 6.369 14.657,6.380 14.042,6.380 11.840 L 6.380 9.060 6.288 8.888 C 6.053 8.447,5.761 8.257,5.260 8.218 C 4.964 8.195,4.924 8.202,4.723 8.304 M18.386 8.263 C 18.120 8.348,17.747 8.712,17.674 8.960 C 17.596 9.223,17.595 14.537,17.673 14.800 C 17.734 15.004,18.052 15.337,18.308 15.464 C 18.527 15.573,19.035 15.568,19.283 15.454 C 19.521 15.346,19.739 15.118,19.888 14.823 L 20.008 14.586 19.993 11.843 C 19.977 9.153,19.975 9.096,19.893 8.914 C 19.644 8.368,18.972 8.077,18.386 8.263 M6.920 12.314 L 6.920 16.187 7.042 16.432 C 7.324 16.995,7.888 17.320,8.584 17.320 L 8.832 17.320 8.846 18.690 L 8.860 20.060 8.971 20.286 C 9.187 20.726,9.584 20.978,10.060 20.978 C 10.536 20.978,10.933 20.726,11.149 20.286 L 11.260 20.060 11.274 18.690 L 11.288 17.320 12.000 17.320 L 12.712 17.320 12.726 18.690 L 12.740 20.060 12.851 20.286 C 13.067 20.726,13.464 20.978,13.940 20.978 C 14.416 20.978,14.813 20.726,15.029 20.286 L 15.140 20.060 15.154 18.690 L 15.168 17.320 15.416 17.320 C 15.690 17.320,16.056 17.237,16.300 17.120 C 16.532 17.008,16.822 16.704,16.960 16.428 L 17.080 16.187 17.080 12.314 L 17.080 8.440 12.000 8.440 L 6.920 8.440 6.920 12.314 " fill="#373B4D" stroke="none" fill-rule="evenodd"></path></svg>