<svg width="24" height="24" viewBox="0 0 24 24" fill="none" xmlns="http://www.w3.org/2000/svg"><path d="M10.920 3.236 C 9.702 3.672,3.641 6.018,3.146 6.244 L 3.032 6.296 3.059 6.598 C 3.195 8.154,4.280 17.332,4.334 17.385 C 4.399 17.449,11.449 21.293,11.500 21.293 C 11.552 21.293,18.601 17.449,18.666 17.385 C 18.706 17.345,19.188 13.360,19.678 9.020 C 19.951 6.595,19.975 6.314,19.914 6.275 C 19.719 6.149,11.866 3.131,11.560 3.064 C 11.496 3.050,11.265 3.112,10.920 3.236 M11.734 5.590 C 13.418 9.324,16.680 16.737,16.692 16.857 C 16.700 16.938,16.683 16.940,15.758 16.951 L 14.815 16.961 14.299 15.667 L 13.782 14.372 12.765 14.346 C 12.205 14.332,11.177 14.320,10.481 14.320 L 9.215 14.320 8.697 15.630 L 8.179 16.940 7.229 16.951 C 6.417 16.960,6.280 16.953,6.280 16.903 C 6.280 16.798,7.756 13.418,9.531 9.460 C 10.957 6.278,11.474 5.160,11.518 5.160 C 11.530 5.160,11.627 5.354,11.734 5.590 M11.266 9.496 C 10.986 10.116,10.543 11.186,10.237 11.979 C 10.070 12.411,10.018 12.587,10.053 12.609 C 10.108 12.644,12.844 12.651,12.934 12.617 C 12.986 12.597,12.985 12.568,12.922 12.387 C 12.747 11.879,11.586 9.090,11.524 9.028 C 11.506 9.010,11.390 9.221,11.266 9.496 " fill="#373B4D" stroke="none" fill-rule="evenodd"></path></svg>