<svg width="24" height="24" viewBox="0 0 24 24" fill="none" xmlns="http://www.w3.org/2000/svg"><path d="M11.100 3.176 C 10.447 3.393,4.452 5.700,3.344 6.161 L 3.030 6.292 3.057 6.596 C 3.165 7.835,4.114 15.954,4.283 17.085 L 4.328 17.389 4.814 17.660 C 5.571 18.083,10.399 20.716,10.979 21.022 L 11.497 21.296 12.012 21.026 C 12.555 20.741,17.353 18.125,18.186 17.660 L 18.672 17.389 18.714 17.105 C 18.849 16.196,19.361 11.883,19.697 8.834 C 20.002 6.065,19.983 6.337,19.873 6.266 C 19.757 6.193,18.623 5.744,15.940 4.712 C 12.828 3.514,11.646 3.080,11.506 3.082 C 11.437 3.083,11.254 3.125,11.100 3.176 M11.636 5.390 C 11.771 5.667,12.961 8.328,13.929 10.520 C 15.777 14.700,16.680 16.780,16.680 16.856 C 16.680 16.938,16.455 16.959,15.597 16.960 L 14.815 16.960 14.298 15.666 L 13.782 14.372 12.621 14.346 C 11.983 14.332,10.954 14.320,10.337 14.320 L 9.213 14.320 8.695 15.630 L 8.178 16.940 7.262 16.951 C 6.724 16.957,6.330 16.946,6.308 16.924 C 6.260 16.876,6.873 15.441,8.581 11.600 C 10.616 7.022,11.450 5.200,11.510 5.200 C 11.529 5.200,11.586 5.285,11.636 5.390 M11.322 9.376 C 10.988 10.075,10.040 12.427,10.040 12.556 C 10.040 12.634,10.212 12.642,11.580 12.631 C 12.906 12.620,12.940 12.618,12.951 12.540 C 12.968 12.410,11.585 9.040,11.514 9.040 C 11.497 9.040,11.410 9.191,11.322 9.376 " fill="#373B4D" stroke="none" fill-rule="evenodd"></path></svg>