<svg width="24" height="24" viewBox="0 0 24 24" fill="none" xmlns="http://www.w3.org/2000/svg"><path d="M10.469 3.400 C 7.835 4.391,3.119 6.225,3.066 6.278 C 3.006 6.338,3.115 7.340,3.953 14.440 L 4.300 17.380 7.720 19.248 C 9.601 20.276,11.221 21.161,11.320 21.215 L 11.500 21.314 15.100 19.347 L 18.700 17.380 19.106 13.940 C 19.672 9.135,19.977 6.383,19.951 6.314 C 19.925 6.247,19.576 6.108,14.971 4.336 C 13.117 3.623,11.560 3.040,11.511 3.041 C 11.461 3.041,10.992 3.203,10.469 3.400 M14.149 11.005 C 15.584 14.242,16.749 16.906,16.737 16.925 C 16.725 16.944,16.288 16.960,15.765 16.960 L 14.815 16.960 14.298 15.666 L 13.782 14.372 12.921 14.346 C 12.447 14.332,11.420 14.320,10.639 14.320 L 9.217 14.320 8.698 15.630 L 8.179 16.940 7.240 16.951 C 6.724 16.957,6.280 16.953,6.253 16.943 C 6.187 16.917,11.439 5.120,11.517 5.120 C 11.530 5.120,12.714 7.768,14.149 11.005 M11.305 9.410 C 10.833 10.447,9.973 12.581,10.015 12.609 C 10.074 12.648,12.926 12.648,12.985 12.609 C 13.015 12.590,12.786 11.995,12.286 10.790 C 11.877 9.806,11.531 9.000,11.517 9.000 C 11.503 9.000,11.407 9.184,11.305 9.410 " fill="#373B4D" stroke="none" fill-rule="evenodd"></path></svg>