<svg width="24" height="24" viewBox="0 0 24 24" fill="none" xmlns="http://www.w3.org/2000/svg"><path d="M11.180 3.157 C 10.691 3.303,5.029 5.472,3.530 6.087 C 3.050 6.285,3.040 6.291,3.040 6.414 C 3.040 6.771,4.121 16.055,4.286 17.109 L 4.331 17.399 4.595 17.545 C 5.667 18.136,10.563 20.803,10.981 21.022 L 11.503 21.296 12.021 21.022 C 12.447 20.797,17.469 18.061,18.405 17.545 L 18.669 17.399 18.714 17.109 C 18.859 16.181,19.743 8.610,19.942 6.593 L 19.969 6.326 19.810 6.245 C 19.585 6.131,18.519 5.707,16.300 4.852 C 12.933 3.555,11.629 3.076,11.482 3.083 C 11.448 3.084,11.312 3.118,11.180 3.157 M11.748 5.635 C 12.008 6.193,14.631 12.104,15.451 13.980 C 16.571 16.540,16.694 16.842,16.642 16.894 C 16.611 16.925,16.308 16.944,15.707 16.953 L 14.817 16.965 14.300 15.669 L 13.782 14.373 12.465 14.346 C 11.740 14.332,10.712 14.320,10.180 14.320 L 9.213 14.320 8.695 15.630 L 8.177 16.940 7.281 16.951 C 6.768 16.957,6.370 16.946,6.348 16.924 C 6.326 16.902,6.330 16.828,6.361 16.734 C 6.452 16.449,7.463 14.119,8.771 11.180 C 10.933 6.325,11.461 5.184,11.531 5.227 C 11.552 5.240,11.650 5.424,11.748 5.635 M11.323 9.375 C 11.001 10.048,10.040 12.432,10.040 12.555 C 10.040 12.633,10.313 12.647,11.593 12.633 C 12.473 12.624,12.890 12.606,12.921 12.575 C 12.954 12.542,12.912 12.386,12.757 11.975 C 12.346 10.884,11.559 9.040,11.504 9.040 C 11.492 9.040,11.410 9.191,11.323 9.375 " fill="#373B4D" stroke="none" fill-rule="evenodd"></path></svg>