<svg width="24" height="24" viewBox="0 0 24 24" fill="none" xmlns="http://www.w3.org/2000/svg"><path d="M10.860 3.273 C 9.867 3.620,4.539 5.666,3.522 6.091 C 3.293 6.187,3.087 6.295,3.064 6.331 C 3.035 6.377,3.078 6.893,3.212 8.108 C 3.587 11.503,4.238 16.926,4.312 17.276 C 4.341 17.409,4.409 17.448,7.341 19.048 C 8.990 19.948,10.600 20.821,10.917 20.989 L 11.495 21.294 11.857 21.108 C 12.057 21.006,13.669 20.132,15.439 19.167 L 18.658 17.412 18.690 17.257 C 18.808 16.690,19.906 7.247,19.929 6.599 L 19.940 6.304 19.560 6.137 C 18.853 5.827,13.582 3.796,12.307 3.343 C 11.973 3.224,11.637 3.116,11.560 3.102 C 11.452 3.083,11.293 3.122,10.860 3.273 M11.723 5.590 C 11.936 6.038,14.653 12.159,15.575 14.270 C 16.422 16.208,16.640 16.733,16.640 16.833 C 16.640 16.932,16.384 16.960,15.481 16.960 L 14.815 16.960 14.299 15.666 L 13.782 14.373 12.321 14.346 C 11.518 14.332,10.489 14.320,10.036 14.320 L 9.213 14.320 8.694 15.630 L 8.176 16.940 7.303 16.951 C 6.719 16.958,6.413 16.947,6.378 16.918 C 6.335 16.883,6.335 16.844,6.377 16.707 C 6.454 16.455,7.388 14.300,8.719 11.304 C 10.754 6.726,11.440 5.240,11.518 5.240 C 11.539 5.240,11.631 5.397,11.723 5.590 M11.325 9.369 C 11.041 9.965,10.129 12.212,10.060 12.485 C 10.037 12.577,10.048 12.592,10.162 12.614 C 10.328 12.648,12.162 12.647,12.590 12.614 C 12.972 12.584,12.970 12.588,12.834 12.190 C 12.597 11.496,11.591 9.104,11.517 9.058 C 11.499 9.047,11.412 9.187,11.325 9.369 " fill="#373B4D" stroke="none" fill-rule="evenodd"></path></svg>