<svg width="24" height="24" viewBox="0 0 24 24" fill="none" xmlns="http://www.w3.org/2000/svg"><path d="M4.700 3.758 C 3.839 3.783,3.873 3.772,3.352 4.187 C 3.062 4.417,2.822 4.726,2.564 5.200 L 2.401 5.500 2.401 10.800 L 2.401 16.100 2.571 16.409 C 2.945 17.094,3.295 17.455,3.930 17.814 L 4.260 18.000 6.340 18.000 L 8.420 18.000 10.220 19.800 L 12.020 21.600 13.820 19.800 L 15.620 18.000 17.200 17.999 C 18.069 17.998,19.012 17.981,19.296 17.962 C 19.775 17.929,19.833 17.916,20.111 17.778 C 20.347 17.662,20.497 17.544,20.818 17.223 C 21.172 16.869,21.250 16.766,21.413 16.433 L 21.600 16.050 21.600 10.784 L 21.600 5.517 21.495 5.309 C 21.197 4.714,20.752 4.215,20.242 3.903 L 19.944 3.720 12.702 3.728 C 8.719 3.732,5.118 3.746,4.700 3.758 M17.440 7.457 C 17.588 7.577,17.738 7.738,17.776 7.818 C 17.877 8.030,17.912 8.743,17.829 8.901 C 17.727 9.097,17.484 9.354,17.302 9.461 L 17.132 9.561 11.994 9.587 L 6.856 9.613 6.602 9.397 C 6.454 9.270,6.297 9.088,6.224 8.960 C 6.112 8.761,6.100 8.708,6.102 8.400 C 6.103 8.018,6.172 7.840,6.424 7.561 C 6.530 7.443,6.615 7.394,6.772 7.358 C 6.972 7.311,10.305 7.269,15.396 7.247 L 17.171 7.240 17.440 7.457 M11.440 12.257 C 11.786 12.536,11.844 12.661,11.870 13.183 C 11.890 13.571,11.886 13.603,11.789 13.767 C 11.622 14.048,11.394 14.243,11.153 14.307 C 10.988 14.351,10.482 14.369,8.900 14.387 L 6.860 14.410 6.680 14.267 C 6.477 14.106,6.227 13.795,6.160 13.621 C 6.093 13.443,6.105 12.874,6.180 12.694 C 6.252 12.522,6.449 12.300,6.601 12.220 C 6.656 12.191,6.789 12.155,6.896 12.139 C 7.133 12.103,8.825 12.055,10.176 12.047 L 11.171 12.040 11.440 12.257 " fill="#373B4D" stroke="none" fill-rule="evenodd"></path></svg>