<svg width="24" height="24" viewBox="0 0 24 24" fill="none" xmlns="http://www.w3.org/2000/svg"><path d="M7.820 3.763 C 5.593 3.778,4.044 3.805,3.960 3.828 C 3.727 3.893,3.590 3.981,3.295 4.254 C 3.004 4.524,2.689 4.945,2.505 5.309 L 2.400 5.517 2.400 10.819 L 2.400 16.120 2.623 16.493 C 2.995 17.115,3.422 17.536,4.006 17.857 L 4.267 18.000 6.343 18.000 L 8.420 18.000 10.220 19.800 L 12.020 21.600 13.820 19.804 L 15.620 18.008 17.560 17.985 C 18.639 17.972,19.589 17.944,19.700 17.920 C 20.031 17.852,20.304 17.690,20.664 17.349 C 21.038 16.996,21.282 16.677,21.475 16.291 L 21.600 16.042 21.600 10.780 L 21.600 5.517 21.494 5.309 C 21.223 4.773,20.830 4.328,20.294 3.950 L 19.968 3.720 15.754 3.728 C 13.436 3.733,9.866 3.748,7.820 3.763 M17.430 7.460 C 17.769 7.767,17.843 7.937,17.851 8.427 C 17.859 8.867,17.846 8.906,17.573 9.229 C 17.456 9.367,17.346 9.452,17.248 9.482 C 17.003 9.556,14.843 9.594,10.717 9.597 L 6.813 9.600 6.546 9.323 C 6.215 8.980,6.122 8.787,6.121 8.437 C 6.120 8.075,6.211 7.794,6.392 7.605 C 6.584 7.403,6.730 7.365,7.440 7.335 C 8.056 7.310,12.797 7.258,15.543 7.247 L 17.186 7.240 17.430 7.460 M11.476 12.310 C 11.799 12.623,11.846 12.745,11.855 13.283 C 11.860 13.616,11.856 13.632,11.710 13.852 C 11.520 14.139,11.330 14.264,11.000 14.320 C 10.854 14.344,9.881 14.374,8.780 14.388 L 6.820 14.412 6.564 14.138 C 6.424 13.988,6.264 13.767,6.209 13.647 C 6.119 13.450,6.112 13.397,6.135 13.097 C 6.164 12.710,6.192 12.623,6.345 12.442 C 6.496 12.262,6.718 12.171,7.080 12.139 C 7.452 12.106,9.262 12.055,10.369 12.046 L 11.197 12.040 11.476 12.310 " fill="#373B4D" stroke="none" fill-rule="evenodd"></path></svg>