<svg width="24" height="24" viewBox="0 0 24 24" fill="none" xmlns="http://www.w3.org/2000/svg"><path d="M6.420 3.759 C 3.646 3.783,3.893 3.751,3.408 4.149 C 3.082 4.416,2.788 4.781,2.569 5.193 L 2.400 5.509 2.400 10.806 L 2.400 16.103 2.605 16.462 C 2.968 17.098,3.348 17.485,3.940 17.819 L 4.260 18.000 6.340 18.000 L 8.420 18.000 10.220 19.800 L 12.020 21.600 13.820 19.803 L 15.620 18.007 17.580 17.988 C 19.707 17.968,19.811 17.958,20.194 17.734 C 20.631 17.478,21.208 16.849,21.437 16.381 L 21.600 16.048 21.600 10.783 L 21.600 5.517 21.494 5.309 C 21.210 4.747,20.815 4.295,20.313 3.960 L 19.955 3.720 14.407 3.729 C 11.356 3.733,7.762 3.747,6.420 3.759 M17.460 7.489 C 17.609 7.626,17.755 7.793,17.783 7.861 C 17.861 8.048,17.897 8.630,17.843 8.830 C 17.812 8.943,17.728 9.070,17.588 9.214 C 17.209 9.601,17.793 9.563,11.967 9.588 L 6.820 9.610 6.565 9.351 C 6.168 8.949,6.120 8.848,6.121 8.420 C 6.122 8.026,6.180 7.844,6.379 7.609 C 6.550 7.406,6.662 7.368,7.183 7.338 C 7.665 7.310,12.284 7.259,15.464 7.247 L 17.188 7.240 17.460 7.489 M11.396 12.224 C 11.747 12.513,11.807 12.622,11.853 13.050 C 11.875 13.254,11.881 13.483,11.866 13.560 C 11.834 13.728,11.588 14.064,11.408 14.186 C 11.172 14.345,10.942 14.363,8.853 14.388 L 6.846 14.413 6.583 14.160 C 6.427 14.010,6.276 13.819,6.214 13.692 C 6.118 13.494,6.111 13.447,6.129 13.103 C 6.144 12.811,6.168 12.697,6.236 12.587 C 6.380 12.353,6.573 12.211,6.815 12.161 C 7.042 12.114,8.755 12.058,10.296 12.046 L 11.172 12.040 11.396 12.224 " fill="#373B4D" stroke="none" fill-rule="evenodd"></path></svg>