<svg width="24" height="24" viewBox="0 0 24 24" fill="none" xmlns="http://www.w3.org/2000/svg"><path d="M5.380 3.639 C 4.197 3.661,4.177 3.663,3.933 3.766 C 3.269 4.050,2.735 4.622,2.517 5.285 L 2.420 5.580 2.420 10.800 L 2.420 16.020 2.517 16.315 C 2.746 17.011,3.341 17.617,4.045 17.871 L 4.340 17.978 6.380 17.991 L 8.420 18.003 10.220 19.802 L 12.020 21.600 13.818 19.802 L 15.615 18.005 17.638 17.991 L 19.660 17.978 19.955 17.871 C 20.659 17.617,21.254 17.011,21.483 16.315 L 21.580 16.020 21.580 10.800 L 21.580 5.580 21.483 5.285 C 21.257 4.600,20.654 3.978,19.980 3.737 C 19.812 3.676,19.581 3.660,18.520 3.637 C 17.062 3.604,7.158 3.605,5.380 3.639 M17.364 7.365 C 17.789 7.592,17.960 7.898,17.960 8.432 C 17.960 8.689,17.943 8.761,17.833 8.966 C 17.700 9.216,17.510 9.395,17.254 9.511 C 17.110 9.575,16.756 9.580,12.000 9.580 L 6.900 9.580 6.706 9.484 C 6.274 9.272,6.021 8.860,6.027 8.380 C 6.033 7.934,6.235 7.583,6.603 7.381 C 6.787 7.279,6.881 7.257,7.220 7.234 C 7.440 7.219,9.758 7.214,12.371 7.222 L 17.123 7.237 17.364 7.365 M11.365 12.166 C 11.789 12.392,11.960 12.698,11.960 13.232 C 11.960 13.489,11.943 13.561,11.833 13.766 C 11.700 14.016,11.510 14.195,11.254 14.311 C 11.114 14.374,10.908 14.380,9.000 14.380 L 6.900 14.380 6.714 14.288 C 6.002 13.933,5.796 13.003,6.298 12.409 C 6.482 12.191,6.726 12.074,7.072 12.037 C 7.241 12.020,8.222 12.012,9.252 12.021 L 11.123 12.037 11.365 12.166 " fill="#373B4D" stroke="none" fill-rule="evenodd"></path></svg>