<svg width="24" height="24" viewBox="0 0 24 24" fill="none" xmlns="http://www.w3.org/2000/svg"><path d="M9.920 3.764 C 7.225 3.780,4.764 3.812,4.452 3.834 C 3.947 3.869,3.860 3.886,3.679 3.985 C 3.392 4.141,2.864 4.712,2.610 5.140 L 2.400 5.495 2.400 10.829 L 2.400 16.164 2.596 16.452 C 2.988 17.029,3.535 17.577,4.005 17.863 L 4.230 18.000 6.325 18.000 L 8.420 18.000 10.220 19.800 L 12.020 21.600 13.820 19.804 L 15.620 18.009 17.666 17.987 C 19.675 17.966,19.716 17.964,19.886 17.877 C 20.495 17.568,20.955 17.122,21.396 16.411 L 21.600 16.081 21.600 10.796 L 21.600 5.511 21.477 5.280 C 21.223 4.804,20.717 4.254,20.175 3.867 L 19.970 3.720 17.395 3.727 C 15.979 3.730,12.615 3.747,9.920 3.764 M17.287 7.330 C 17.355 7.380,17.498 7.535,17.605 7.676 L 17.800 7.932 17.800 8.437 L 17.800 8.941 17.616 9.152 C 17.515 9.267,17.379 9.390,17.313 9.423 C 17.093 9.537,16.318 9.559,11.559 9.586 L 6.819 9.613 6.586 9.357 C 6.268 9.006,6.191 8.844,6.169 8.480 C 6.147 8.113,6.202 7.896,6.372 7.673 C 6.554 7.435,6.690 7.405,7.800 7.357 C 8.727 7.316,12.824 7.259,15.692 7.246 C 17.159 7.240,17.164 7.240,17.287 7.330 M11.434 12.269 C 11.759 12.640,11.820 12.794,11.818 13.240 C 11.817 13.549,11.800 13.651,11.731 13.784 C 11.612 14.010,11.400 14.185,11.151 14.261 C 10.892 14.340,9.610 14.395,7.953 14.398 L 6.806 14.400 6.601 14.170 C 6.289 13.820,6.160 13.531,6.160 13.184 C 6.160 13.028,6.180 12.828,6.205 12.741 C 6.267 12.516,6.495 12.302,6.757 12.225 C 7.045 12.139,8.407 12.076,10.547 12.049 L 11.233 12.040 11.434 12.269 " fill="#373B4D" stroke="none" fill-rule="evenodd"></path></svg>