<svg width="24" height="24" viewBox="0 0 24 24" fill="none" xmlns="http://www.w3.org/2000/svg"><path d="M4.337 3.715 C 3.983 3.740,3.967 3.745,3.645 3.957 C 3.184 4.259,2.851 4.632,2.613 5.112 L 2.420 5.500 2.410 10.788 L 2.399 16.076 2.595 16.457 C 2.921 17.094,3.244 17.430,3.869 17.782 L 4.220 17.980 6.320 17.991 L 8.420 18.002 10.220 19.801 L 12.020 21.600 13.817 19.803 L 15.613 18.007 17.616 17.990 C 19.394 17.976,19.645 17.966,19.840 17.903 C 20.179 17.794,20.511 17.573,20.840 17.239 C 21.159 16.915,21.348 16.631,21.505 16.244 L 21.601 16.006 21.590 10.753 L 21.580 5.500 21.388 5.114 C 21.099 4.533,20.683 4.114,20.080 3.797 L 19.900 3.702 12.300 3.696 C 8.120 3.692,4.537 3.701,4.337 3.715 M17.400 7.414 C 17.810 7.712,17.893 7.888,17.897 8.465 C 17.900 8.823,17.897 8.834,17.751 9.045 C 17.604 9.258,17.432 9.418,17.242 9.519 C 17.164 9.561,16.126 9.575,12.015 9.591 L 6.886 9.612 6.693 9.469 C 6.243 9.137,6.065 8.834,6.065 8.400 C 6.065 7.993,6.252 7.652,6.620 7.387 C 6.739 7.300,6.753 7.300,9.420 7.278 C 10.894 7.266,13.239 7.253,14.631 7.248 L 17.161 7.240 17.400 7.414 M11.400 12.214 C 11.810 12.512,11.894 12.689,11.898 13.265 C 11.900 13.626,11.898 13.633,11.743 13.859 C 11.545 14.146,11.385 14.268,11.136 14.324 C 11.016 14.350,10.148 14.374,8.900 14.386 L 6.860 14.405 6.661 14.251 C 6.419 14.065,6.186 13.765,6.125 13.562 C 6.055 13.326,6.070 12.885,6.156 12.697 C 6.256 12.476,6.450 12.263,6.628 12.179 C 6.803 12.096,7.745 12.057,9.851 12.047 L 11.161 12.040 11.400 12.214 " fill="#373B4D" stroke="none" fill-rule="evenodd"></path></svg>