<svg width="24" height="24" viewBox="0 0 24 24" fill="none" xmlns="http://www.w3.org/2000/svg"><path d="M5.400 3.679 C 4.495 3.694,4.066 3.716,3.986 3.751 C 3.776 3.843,3.341 4.145,3.150 4.331 C 2.910 4.566,2.681 4.919,2.523 5.299 L 2.399 5.597 2.410 10.848 L 2.420 16.100 2.584 16.440 C 2.903 17.102,3.283 17.492,3.920 17.810 L 4.260 17.980 6.340 17.991 L 8.420 18.002 10.220 19.801 L 12.020 21.600 13.820 19.800 L 15.620 18.000 17.400 17.997 C 19.592 17.994,19.744 17.982,20.147 17.778 C 20.718 17.488,21.273 16.868,21.498 16.269 L 21.600 15.998 21.600 10.796 L 21.600 5.594 21.472 5.287 C 21.200 4.634,20.787 4.171,20.200 3.863 L 19.931 3.722 18.636 3.701 C 16.664 3.670,6.874 3.653,5.400 3.679 M17.406 7.410 C 17.770 7.655,17.878 7.848,17.908 8.307 C 17.923 8.538,17.914 8.717,17.883 8.810 C 17.818 9.009,17.603 9.279,17.398 9.421 L 17.227 9.540 15.743 9.566 C 14.928 9.580,12.597 9.593,10.564 9.596 L 6.867 9.600 6.645 9.432 C 6.372 9.226,6.264 9.107,6.163 8.900 C 5.918 8.396,6.082 7.774,6.549 7.438 L 6.740 7.300 8.660 7.279 C 9.716 7.267,12.059 7.253,13.866 7.249 L 17.153 7.240 17.406 7.410 M11.406 12.210 C 11.770 12.455,11.878 12.648,11.908 13.107 C 11.935 13.534,11.895 13.683,11.680 13.955 C 11.428 14.275,11.317 14.322,10.729 14.362 C 10.449 14.381,9.467 14.398,8.547 14.399 L 6.874 14.400 6.707 14.284 C 6.453 14.107,6.254 13.882,6.155 13.660 C 6.030 13.378,6.031 12.930,6.158 12.680 C 6.266 12.466,6.454 12.258,6.620 12.169 C 6.773 12.087,7.545 12.056,9.626 12.047 L 11.153 12.040 11.406 12.210 " fill="#373B4D" stroke="none" fill-rule="evenodd"></path></svg>