<svg width="24" height="24" viewBox="0 0 24 24" fill="none" xmlns="http://www.w3.org/2000/svg"><path d="M10.380 3.765 C 7.718 3.782,5.175 3.814,4.729 3.835 C 4.014 3.869,3.895 3.885,3.729 3.965 C 3.408 4.120,2.874 4.701,2.528 5.271 L 2.400 5.481 2.400 10.824 L 2.400 16.167 2.609 16.473 C 2.881 16.872,3.671 17.663,3.985 17.853 L 4.230 18.000 6.325 18.000 L 8.420 18.000 10.220 19.800 L 12.020 21.600 13.820 19.804 L 15.620 18.008 17.620 17.986 C 18.881 17.972,19.675 17.948,19.769 17.920 C 20.202 17.794,20.914 17.145,21.350 16.480 L 21.599 16.100 21.600 10.808 L 21.600 5.517 21.515 5.348 C 21.298 4.922,20.724 4.279,20.238 3.918 L 19.970 3.720 17.595 3.727 C 16.289 3.730,13.042 3.747,10.380 3.765 M17.289 7.340 C 17.349 7.384,17.488 7.534,17.598 7.673 L 17.800 7.925 17.800 8.433 L 17.800 8.941 17.622 9.145 C 17.365 9.439,17.252 9.480,16.587 9.522 C 16.275 9.542,13.950 9.570,11.419 9.585 L 6.818 9.613 6.588 9.357 C 6.250 8.979,6.183 8.817,6.182 8.380 C 6.182 8.108,6.200 7.983,6.257 7.867 C 6.375 7.625,6.535 7.492,6.763 7.443 C 7.204 7.348,12.180 7.244,15.721 7.255 C 17.115 7.260,17.187 7.264,17.289 7.340 M11.445 12.290 C 11.752 12.658,11.798 12.786,11.799 13.262 C 11.800 13.639,11.793 13.676,11.682 13.850 C 11.543 14.070,11.329 14.221,11.078 14.276 C 10.788 14.341,9.320 14.400,8.013 14.400 L 6.807 14.400 6.605 14.170 C 6.224 13.736,6.094 13.315,6.196 12.843 C 6.295 12.380,6.553 12.224,7.327 12.158 C 7.811 12.117,9.523 12.060,10.689 12.046 L 11.237 12.040 11.445 12.290 " fill="#373B4D" stroke="none" fill-rule="evenodd"></path></svg>