<svg width="24" height="24" viewBox="0 0 24 24" fill="none" xmlns="http://www.w3.org/2000/svg"><path d="M8.800 3.763 C 5.774 3.782,4.181 3.807,4.022 3.836 C 3.767 3.883,3.611 3.971,3.311 4.237 C 3.074 4.447,2.673 4.977,2.518 5.284 L 2.400 5.518 2.400 10.831 L 2.400 16.144 2.685 16.582 C 3.034 17.120,3.424 17.508,3.900 17.790 L 4.255 18.000 6.337 18.000 L 8.420 18.000 10.220 19.800 L 12.020 21.600 13.820 19.800 L 15.620 18.000 16.760 17.998 C 17.387 17.997,18.319 17.981,18.831 17.963 L 19.762 17.931 20.051 17.787 C 20.550 17.539,21.104 16.967,21.436 16.358 L 21.599 16.060 21.599 10.789 L 21.600 5.517 21.495 5.309 C 21.247 4.815,20.776 4.291,20.235 3.908 L 19.970 3.720 16.655 3.727 C 14.832 3.731,11.297 3.747,8.800 3.763 M17.391 7.423 C 17.506 7.524,17.650 7.691,17.710 7.793 C 17.813 7.968,17.820 8.010,17.820 8.443 L 17.820 8.906 17.647 9.130 C 17.404 9.445,17.329 9.485,16.884 9.526 C 16.673 9.546,14.322 9.573,11.659 9.586 L 6.819 9.610 6.570 9.344 C 6.203 8.953,6.140 8.813,6.140 8.397 C 6.140 8.094,6.154 8.027,6.261 7.817 C 6.439 7.469,6.577 7.405,7.250 7.355 C 7.748 7.319,12.211 7.261,15.641 7.247 L 17.181 7.240 17.391 7.423 M11.414 12.241 C 11.535 12.352,11.681 12.536,11.737 12.649 C 11.827 12.829,11.840 12.907,11.840 13.249 C 11.840 13.594,11.828 13.660,11.745 13.791 C 11.437 14.275,11.309 14.320,10.144 14.363 C 9.636 14.381,8.678 14.397,8.015 14.398 L 6.811 14.400 6.634 14.210 C 6.210 13.756,6.098 13.497,6.141 13.068 C 6.204 12.418,6.449 12.195,7.161 12.139 C 7.562 12.107,9.389 12.056,10.447 12.046 L 11.194 12.040 11.414 12.241 " fill="#373B4D" stroke="none" fill-rule="evenodd"></path></svg>