<svg width="24" height="24" viewBox="0 0 24 24" fill="none" xmlns="http://www.w3.org/2000/svg"><path d="M3.995 3.775 C 3.669 3.892,3.197 4.261,2.927 4.611 C 2.832 4.734,2.675 4.990,2.577 5.179 L 2.400 5.523 2.400 10.807 L 2.400 16.090 2.588 16.447 C 2.924 17.084,3.280 17.447,3.930 17.814 L 4.260 18.000 6.340 18.000 L 8.420 18.000 10.220 19.800 L 12.020 21.600 13.820 19.800 L 15.620 18.000 17.180 17.998 C 18.038 17.997,18.978 17.982,19.270 17.964 C 19.771 17.934,19.816 17.924,20.110 17.781 C 20.361 17.658,20.498 17.551,20.826 17.222 C 21.182 16.864,21.254 16.768,21.416 16.430 L 21.601 16.045 21.590 10.753 L 21.580 5.460 21.360 5.062 C 21.085 4.565,20.708 4.168,20.259 3.906 L 19.942 3.720 12.041 3.722 C 5.685 3.723,4.112 3.734,3.995 3.775 M17.438 7.451 C 17.814 7.756,17.857 7.848,17.874 8.387 C 17.888 8.830,17.888 8.835,17.765 9.012 C 17.607 9.242,17.310 9.503,17.170 9.537 C 17.109 9.551,14.765 9.573,11.960 9.585 L 6.860 9.607 6.634 9.426 C 6.226 9.099,6.085 8.842,6.082 8.417 C 6.079 8.097,6.170 7.846,6.368 7.621 C 6.668 7.280,6.391 7.307,9.920 7.279 C 11.647 7.266,13.987 7.252,15.120 7.248 L 17.180 7.242 17.438 7.451 M11.438 12.251 C 11.813 12.556,11.857 12.649,11.874 13.182 C 11.886 13.560,11.877 13.642,11.814 13.743 C 11.651 14.004,11.532 14.133,11.362 14.232 C 11.191 14.333,11.154 14.338,10.322 14.365 C 9.848 14.381,8.873 14.395,8.157 14.397 L 6.853 14.400 6.673 14.260 C 6.473 14.104,6.291 13.892,6.176 13.680 C 6.067 13.478,6.068 12.884,6.179 12.661 C 6.295 12.426,6.529 12.212,6.728 12.157 C 6.926 12.103,8.339 12.056,10.020 12.047 L 11.180 12.042 11.438 12.251 " fill="#373B4D" stroke="none" fill-rule="evenodd"></path></svg>