<svg width="24" height="24" viewBox="0 0 24 24" fill="none" xmlns="http://www.w3.org/2000/svg"><path d="M9.600 3.762 C 4.561 3.793,4.026 3.807,3.780 3.917 C 3.399 4.086,2.866 4.659,2.545 5.243 L 2.400 5.507 2.400 10.829 L 2.400 16.151 2.645 16.526 C 2.959 17.005,3.519 17.565,3.931 17.813 L 4.243 18.000 6.331 18.000 L 8.420 18.000 10.220 19.800 L 12.020 21.600 13.820 19.800 L 15.620 18.000 16.880 17.997 C 17.573 17.996,18.510 17.981,18.962 17.965 L 19.784 17.936 20.053 17.786 C 20.598 17.480,21.067 16.997,21.422 16.374 L 21.600 16.062 21.600 10.784 L 21.600 5.507 21.456 5.243 C 21.184 4.747,20.689 4.218,20.149 3.846 L 19.966 3.720 17.093 3.727 C 15.513 3.731,12.141 3.746,9.600 3.762 M17.310 7.350 C 17.389 7.410,17.532 7.565,17.627 7.694 L 17.800 7.929 17.800 8.426 L 17.800 8.923 17.643 9.132 C 17.426 9.419,17.305 9.480,16.868 9.522 C 16.666 9.542,14.322 9.571,11.660 9.586 L 6.819 9.613 6.571 9.343 C 6.223 8.962,6.160 8.816,6.160 8.383 C 6.160 8.066,6.172 8.008,6.285 7.797 C 6.474 7.442,6.575 7.405,7.507 7.356 C 8.229 7.318,12.540 7.260,15.673 7.246 L 17.165 7.240 17.310 7.350 M11.424 12.259 C 11.548 12.383,11.688 12.575,11.746 12.701 C 11.836 12.899,11.846 12.965,11.834 13.295 C 11.821 13.646,11.812 13.680,11.673 13.889 C 11.495 14.157,11.299 14.263,10.877 14.321 C 10.714 14.344,9.733 14.373,8.698 14.387 L 6.817 14.412 6.587 14.156 C 6.263 13.793,6.148 13.546,6.151 13.207 C 6.155 12.501,6.375 12.249,7.067 12.158 C 7.380 12.117,9.203 12.058,10.513 12.046 L 11.205 12.040 11.424 12.259 " fill="#373B4D" stroke="none" fill-rule="evenodd"></path></svg>