<svg width="24" height="24" viewBox="0 0 24 24" fill="none" xmlns="http://www.w3.org/2000/svg"><path d="M7.209 3.159 C 7.049 3.197,6.785 3.375,6.703 3.501 C 6.615 3.635,6.425 4.281,5.815 6.520 C 4.862 10.015,4.713 10.538,4.634 10.668 C 4.535 10.831,4.325 11.004,3.580 11.538 C 2.804 12.094,2.619 12.272,2.558 12.527 C 2.437 13.033,2.691 13.468,3.180 13.594 C 3.371 13.643,4.022 13.698,5.380 13.778 C 8.056 13.938,9.105 13.967,12.000 13.967 C 14.895 13.967,15.944 13.938,18.620 13.778 C 19.978 13.698,20.629 13.643,20.820 13.594 C 21.311 13.468,21.563 13.033,21.441 12.524 C 21.379 12.267,21.188 12.085,20.340 11.480 C 19.541 10.909,19.347 10.721,19.261 10.435 C 19.226 10.317,18.846 8.933,18.417 7.360 C 17.447 3.806,17.391 3.620,17.226 3.446 C 17.087 3.300,16.885 3.184,16.700 3.144 C 16.547 3.111,15.801 3.186,13.690 3.445 L 12.000 3.653 10.310 3.446 C 7.557 3.108,7.461 3.100,7.209 3.159 M7.060 15.037 C 6.736 15.090,6.518 15.160,6.232 15.301 C 5.861 15.484,5.661 15.630,5.376 15.927 C 4.944 16.374,4.739 16.749,4.593 17.356 C 4.497 17.757,4.509 18.369,4.621 18.780 C 4.897 19.798,5.688 20.589,6.720 20.879 C 7.355 21.057,7.963 21.020,8.628 20.762 C 9.591 20.388,10.392 19.313,10.470 18.290 L 10.492 18.000 12.006 18.000 L 13.520 18.000 13.520 18.192 C 13.520 18.298,13.556 18.523,13.601 18.693 C 13.911 19.877,14.770 20.691,15.968 20.937 C 16.506 21.047,17.037 20.993,17.600 20.771 C 19.203 20.139,19.927 18.264,19.176 16.692 C 18.897 16.106,18.428 15.638,17.820 15.338 C 17.317 15.090,17.033 15.023,16.500 15.028 C 15.966 15.033,15.571 15.128,15.127 15.359 C 14.549 15.660,14.122 16.096,13.816 16.698 L 13.653 17.020 12.002 17.020 L 10.350 17.020 10.165 16.670 C 9.838 16.050,9.392 15.614,8.787 15.321 C 8.607 15.234,8.343 15.136,8.200 15.102 C 7.877 15.025,7.325 14.994,7.060 15.037 " fill="#373B4D" stroke="none" fill-rule="evenodd"></path></svg>