<svg width="24" height="24" viewBox="0 0 24 24" fill="none" xmlns="http://www.w3.org/2000/svg">
<path d="M19.2393 10.4163L17.4643 3.83839C17.3346 3.35747 16.8706 3.04539 16.3763 3.10646L12.1226 3.63191C12.0412 3.64197 11.9588 3.64197 11.8774 3.63191L7.62374 3.10646C7.12937 3.04539 6.66544 3.35747 6.53567 3.83839L4.76067 10.4163C4.69992 10.6415 4.5624 10.8383 4.37189 10.9728L2.92568 11.9936C2.20455 12.5027 2.45928 13.5588 3.3389 13.6325C6.26315 13.8775 10.4209 14 12 14C13.5791 14 17.7369 13.8775 20.6611 13.6325C21.5407 13.5588 21.7955 12.5027 21.0743 11.9936L19.6281 10.9728C19.4376 10.8383 19.3001 10.6415 19.2393 10.4163Z" fill="#373B4D"/>
<path fill-rule="evenodd" clip-rule="evenodd" d="M10.5 18C10.5 19.6569 9.15685 21 7.5 21C5.84315 21 4.5 19.6569 4.5 18C4.5 16.3431 5.84315 15 7.5 15C8.81615 15 9.93434 15.8475 10.3386 17.0266C10.3892 17.0094 10.4435 17 10.5 17H13.5C13.5565 17 13.6108 17.0094 13.6614 17.0266C14.0657 15.8476 15.1838 15 16.5 15C18.1569 15 19.5 16.3431 19.5 18C19.5 19.6569 18.1569 21 16.5 21C14.8431 21 13.5 19.6569 13.5 18H10.5Z" fill="#373B4D"/>
</svg>
