<svg width="24" height="24" viewBox="0 0 24 24" fill="none" xmlns="http://www.w3.org/2000/svg"><path d="M7.127 3.181 C 6.907 3.276,6.766 3.396,6.660 3.576 C 6.593 3.690,6.260 4.858,5.660 7.083 C 5.166 8.919,4.731 10.488,4.694 10.571 C 4.597 10.790,4.431 10.934,3.562 11.549 C 2.607 12.225,2.540 12.304,2.540 12.756 C 2.540 13.028,2.554 13.086,2.652 13.234 C 2.774 13.419,2.943 13.541,3.160 13.598 C 3.421 13.668,5.863 13.820,8.440 13.928 C 10.010 13.993,13.990 13.993,15.560 13.928 C 18.137 13.820,20.579 13.668,20.840 13.598 C 21.057 13.541,21.226 13.419,21.348 13.234 C 21.446 13.086,21.460 13.028,21.460 12.756 C 21.460 12.304,21.393 12.225,20.438 11.549 C 19.569 10.934,19.403 10.790,19.306 10.571 C 19.269 10.488,18.834 8.917,18.339 7.080 C 17.663 4.572,17.411 3.695,17.328 3.561 C 17.171 3.306,16.899 3.147,16.586 3.128 C 16.435 3.119,15.501 3.217,14.170 3.381 L 12.000 3.650 9.850 3.384 C 8.668 3.239,7.601 3.120,7.480 3.121 C 7.359 3.122,7.200 3.149,7.127 3.181 M7.010 15.044 C 6.055 15.203,5.216 15.847,4.798 16.740 C 4.072 18.292,4.814 20.159,6.406 20.782 C 6.705 20.899,7.210 21.000,7.500 21.000 C 7.948 21.000,8.622 20.817,8.991 20.596 C 9.289 20.417,9.674 20.079,9.861 19.833 C 10.214 19.367,10.480 18.657,10.480 18.182 L 10.480 18.000 12.000 18.000 L 13.520 18.000 13.520 18.182 C 13.520 18.467,13.634 18.910,13.798 19.260 C 14.217 20.155,14.991 20.754,15.971 20.940 C 16.372 21.016,16.628 21.016,17.029 20.940 C 18.009 20.754,18.783 20.155,19.202 19.260 C 19.947 17.668,19.147 15.760,17.492 15.181 C 16.933 14.986,16.475 14.957,15.886 15.078 C 14.967 15.268,14.177 15.896,13.795 16.740 L 13.669 17.020 12.000 17.020 L 10.331 17.020 10.205 16.740 C 9.666 15.545,8.313 14.827,7.010 15.044 " fill="#373B4D" stroke="none" fill-rule="evenodd"></path></svg>