<svg width="24" height="24" viewBox="0 0 24 24" fill="none" xmlns="http://www.w3.org/2000/svg"><path d="M7.171 3.199 C 6.967 3.247,6.759 3.432,6.657 3.656 C 6.554 3.881,6.222 5.031,5.342 8.220 C 5.020 9.386,4.710 10.435,4.654 10.552 C 4.544 10.780,4.485 10.834,3.369 11.720 C 3.029 11.990,2.711 12.276,2.651 12.366 C 2.436 12.691,2.556 13.208,2.902 13.449 C 3.166 13.632,3.662 13.688,6.600 13.865 C 7.503 13.920,8.465 13.932,11.980 13.933 C 14.874 13.933,16.513 13.918,17.040 13.885 C 17.469 13.859,18.261 13.810,18.800 13.777 C 20.617 13.665,20.955 13.602,21.228 13.320 C 21.359 13.186,21.480 12.902,21.480 12.732 C 21.480 12.452,21.251 12.187,20.520 11.623 C 19.816 11.078,19.483 10.792,19.401 10.660 C 19.301 10.499,19.144 9.973,18.435 7.420 C 17.378 3.612,17.355 3.542,17.084 3.333 L 16.900 3.191 16.220 3.212 C 15.846 3.224,15.162 3.279,14.700 3.334 C 14.238 3.388,13.441 3.484,12.928 3.545 L 11.996 3.656 10.408 3.467 C 7.923 3.170,7.454 3.132,7.171 3.199 M6.920 15.080 C 6.779 15.101,6.523 15.203,6.208 15.362 C 5.510 15.713,5.142 16.087,4.819 16.770 C 4.606 17.221,4.540 17.517,4.542 18.020 C 4.544 18.863,4.785 19.425,5.419 20.065 C 5.774 20.424,5.864 20.491,6.200 20.652 C 6.721 20.900,7.047 20.978,7.540 20.972 C 8.441 20.962,9.199 20.585,9.782 19.857 C 10.163 19.382,10.480 18.608,10.480 18.154 L 10.480 18.000 11.994 18.000 L 13.508 18.000 13.532 18.250 C 13.561 18.559,13.686 18.969,13.865 19.347 C 14.019 19.672,14.469 20.182,14.849 20.463 C 15.266 20.771,15.937 20.974,16.540 20.974 C 16.899 20.975,16.986 20.959,17.395 20.821 C 17.956 20.631,18.212 20.464,18.654 19.999 C 19.019 19.616,19.150 19.392,19.342 18.820 C 19.435 18.540,19.449 18.439,19.447 18.015 C 19.444 17.440,19.382 17.162,19.152 16.704 C 18.871 16.143,18.539 15.787,17.977 15.445 C 17.128 14.929,15.869 14.929,15.014 15.447 C 14.508 15.753,14.060 16.233,13.779 16.768 L 13.636 17.040 12.004 17.040 L 10.373 17.040 10.157 16.670 C 10.006 16.414,9.829 16.188,9.578 15.935 C 9.260 15.613,9.167 15.546,8.798 15.367 C 8.553 15.248,8.281 15.148,8.140 15.125 C 7.776 15.065,7.167 15.043,6.920 15.080 " fill="#373B4D" stroke="none" fill-rule="evenodd"></path></svg>