<svg width="24" height="24" viewBox="0 0 24 24" fill="none" xmlns="http://www.w3.org/2000/svg"><path d="M7.217 3.198 C 7.027 3.243,6.848 3.365,6.742 3.519 C 6.623 3.693,6.416 4.360,5.842 6.420 C 4.917 9.740,4.726 10.396,4.625 10.590 C 4.539 10.757,4.378 10.906,3.619 11.520 C 2.885 12.114,2.618 12.376,2.577 12.539 C 2.530 12.727,2.580 13.052,2.681 13.205 C 2.890 13.523,3.135 13.605,4.160 13.698 C 6.305 13.894,6.542 13.900,11.980 13.900 C 16.954 13.900,17.188 13.897,18.480 13.808 C 20.898 13.641,21.140 13.579,21.385 13.060 C 21.604 12.595,21.473 12.388,20.440 11.565 C 19.727 10.998,19.453 10.743,19.361 10.560 C 19.269 10.377,19.042 9.604,18.380 7.220 C 17.412 3.732,17.334 3.504,17.040 3.300 L 16.878 3.188 16.281 3.215 C 15.509 3.250,15.101 3.289,13.496 3.481 C 12.767 3.569,12.096 3.640,12.004 3.640 C 11.912 3.640,11.077 3.550,10.148 3.441 C 8.665 3.266,7.520 3.151,7.384 3.164 C 7.360 3.166,7.285 3.181,7.217 3.198 M6.562 15.201 C 5.611 15.595,5.057 16.140,4.718 17.011 C 4.429 17.755,4.501 18.746,4.890 19.405 C 5.050 19.676,5.456 20.137,5.729 20.358 C 5.992 20.571,6.477 20.800,6.886 20.905 C 7.276 21.005,8.003 20.966,8.420 20.824 C 9.204 20.555,9.812 19.984,10.196 19.154 C 10.364 18.792,10.480 18.381,10.480 18.147 L 10.480 18.000 11.994 18.000 L 13.509 18.000 13.535 18.258 C 13.586 18.752,13.829 19.356,14.141 19.760 C 14.542 20.280,14.992 20.611,15.568 20.807 C 15.883 20.914,16.015 20.936,16.427 20.951 C 16.990 20.972,17.253 20.913,17.836 20.633 C 18.116 20.499,18.236 20.408,18.557 20.086 C 18.976 19.665,19.145 19.393,19.340 18.820 C 19.444 18.515,19.448 18.473,19.430 17.920 C 19.414 17.433,19.396 17.298,19.314 17.078 C 19.036 16.335,18.508 15.725,17.855 15.393 C 17.350 15.137,17.007 15.066,16.367 15.088 C 15.934 15.103,15.810 15.123,15.515 15.226 C 14.845 15.461,14.205 16.016,13.825 16.693 L 13.630 17.040 12.001 17.040 L 10.371 17.040 10.189 16.730 C 9.975 16.363,9.564 15.879,9.291 15.672 C 9.076 15.509,8.650 15.288,8.340 15.179 C 8.192 15.128,7.973 15.105,7.500 15.093 L 6.860 15.077 6.562 15.201 " fill="#373B4D" stroke="none" fill-rule="evenodd"></path></svg>