<svg width="24" height="24" viewBox="0 0 24 24" fill="none" xmlns="http://www.w3.org/2000/svg"><path d="M7.060 3.236 C 6.834 3.341,6.695 3.505,6.599 3.781 C 6.476 4.136,6.196 5.124,5.499 7.660 C 5.155 8.914,4.820 10.104,4.756 10.305 C 4.617 10.739,4.597 10.760,3.573 11.553 C 2.803 12.148,2.626 12.322,2.556 12.558 C 2.448 12.917,2.685 13.393,3.042 13.536 C 3.331 13.652,4.114 13.719,7.180 13.889 C 8.451 13.959,15.548 13.960,16.820 13.889 C 19.545 13.738,20.329 13.679,20.747 13.597 C 21.130 13.521,21.401 13.236,21.464 12.843 C 21.522 12.480,21.324 12.225,20.520 11.622 C 19.887 11.147,19.458 10.778,19.367 10.632 C 19.323 10.559,19.080 9.753,18.827 8.840 C 18.574 7.927,18.195 6.559,17.984 5.800 C 17.584 4.356,17.363 3.652,17.260 3.494 C 17.226 3.442,17.123 3.350,17.032 3.290 C 16.871 3.183,16.850 3.180,16.363 3.188 C 15.878 3.195,15.452 3.239,13.086 3.524 L 11.992 3.655 11.086 3.545 C 7.638 3.128,7.342 3.105,7.060 3.236 M6.871 15.078 C 6.595 15.129,5.896 15.478,5.632 15.697 C 4.816 16.375,4.388 17.480,4.562 18.463 C 4.680 19.130,4.906 19.566,5.392 20.066 C 5.857 20.545,6.338 20.801,7.037 20.942 C 7.639 21.064,8.401 20.919,8.999 20.571 C 9.749 20.134,10.385 19.144,10.465 18.289 L 10.491 18.000 12.000 18.000 L 13.508 18.000 13.531 18.270 C 13.558 18.587,13.748 19.154,13.949 19.516 C 14.118 19.821,14.650 20.359,14.975 20.555 C 15.462 20.847,16.220 21.030,16.743 20.981 C 17.093 20.948,17.713 20.742,18.023 20.556 C 18.348 20.360,18.882 19.822,19.052 19.516 C 19.131 19.375,19.254 19.089,19.326 18.880 C 19.445 18.533,19.456 18.459,19.456 18.020 C 19.455 17.461,19.392 17.179,19.159 16.700 C 18.887 16.138,18.506 15.741,17.927 15.413 C 17.364 15.094,16.825 14.995,16.106 15.077 C 15.115 15.189,14.250 15.831,13.745 16.830 L 13.639 17.040 12.004 17.040 L 10.370 17.040 10.184 16.710 C 9.748 15.936,9.102 15.393,8.340 15.162 C 8.024 15.066,7.196 15.019,6.871 15.078 " fill="#373B4D" stroke="none" fill-rule="evenodd"></path></svg>