<svg width="24" height="24" viewBox="0 0 24 24" fill="none" xmlns="http://www.w3.org/2000/svg"><path d="M5.200 3.133 C 4.663 3.293,4.297 3.504,3.935 3.862 C 3.527 4.265,3.321 4.580,3.183 5.013 C 2.827 6.134,3.064 7.243,3.834 8.052 C 4.097 8.328,4.444 8.585,4.770 8.744 L 5.000 8.857 5.000 11.205 L 5.000 13.552 4.720 13.760 C 4.373 14.017,3.873 14.548,3.616 14.931 C 3.079 15.731,2.882 16.954,3.134 17.928 C 3.248 18.368,3.474 18.878,3.710 19.225 C 3.915 19.527,4.640 20.221,4.930 20.393 C 5.261 20.590,5.747 20.790,6.119 20.885 C 6.407 20.957,6.534 20.966,7.134 20.950 C 7.771 20.934,7.844 20.924,8.160 20.812 C 8.550 20.674,8.941 20.484,9.199 20.307 C 9.492 20.106,9.996 19.600,10.212 19.290 L 10.415 19.000 12.763 19.000 L 15.111 19.000 15.177 19.164 C 15.360 19.622,16.026 20.358,16.470 20.593 C 17.063 20.906,17.741 21.046,18.261 20.962 C 19.264 20.801,20.049 20.247,20.532 19.360 C 20.778 18.910,20.843 18.650,20.868 18.023 C 20.894 17.374,20.850 17.135,20.624 16.691 C 20.338 16.132,19.736 15.575,19.138 15.319 C 18.422 15.012,17.281 15.071,16.600 15.449 C 16.126 15.712,15.800 16.013,15.531 16.434 C 15.452 16.558,15.327 16.755,15.253 16.870 L 15.119 17.080 13.060 17.080 L 11.000 17.080 10.999 16.930 C 10.998 16.696,10.861 16.132,10.703 15.711 C 10.624 15.501,10.560 15.313,10.560 15.292 C 10.560 15.213,11.369 14.366,15.548 10.075 L 17.599 7.969 18.189 7.989 C 18.652 8.004,18.840 7.994,19.059 7.943 C 19.913 7.741,20.569 7.132,20.857 6.273 C 20.942 6.019,20.960 5.892,20.960 5.539 C 20.960 4.693,20.707 4.149,20.057 3.597 C 19.179 2.850,17.862 2.855,16.932 3.609 C 16.492 3.966,16.199 4.416,16.079 4.920 C 16.002 5.241,16.020 5.840,16.118 6.216 L 16.200 6.532 15.610 7.136 C 15.285 7.469,13.710 9.094,12.109 10.747 L 9.197 13.753 8.929 13.596 C 8.416 13.296,7.692 13.080,7.196 13.080 L 7.000 13.080 7.000 10.968 L 7.000 8.857 7.230 8.744 C 7.942 8.396,8.513 7.784,8.804 7.056 C 8.904 6.806,8.930 6.676,8.947 6.326 C 9.000 5.235,8.778 4.588,8.120 3.918 C 7.528 3.315,6.828 3.037,5.912 3.042 C 5.607 3.044,5.422 3.068,5.200 3.133 " fill="#373B4D" stroke="none" fill-rule="evenodd"></path></svg>