<svg width="24" height="24" viewBox="0 0 24 24" fill="none" xmlns="http://www.w3.org/2000/svg"><path d="M5.388 3.078 C 5.176 3.124,4.881 3.229,4.648 3.342 C 4.310 3.506,4.211 3.579,3.876 3.916 C 3.441 4.353,3.272 4.647,3.114 5.240 C 2.998 5.675,2.990 6.326,3.096 6.740 C 3.325 7.635,3.941 8.353,4.850 8.784 L 5.000 8.855 5.000 11.204 L 5.000 13.553 4.750 13.732 C 4.230 14.105,3.597 14.846,3.381 15.333 C 2.802 16.644,2.920 18.038,3.712 19.236 C 3.919 19.550,4.485 20.105,4.833 20.336 C 5.177 20.564,5.567 20.736,6.040 20.866 C 6.331 20.947,6.471 20.960,7.025 20.960 C 7.598 20.960,7.711 20.948,8.026 20.858 C 8.971 20.586,9.756 20.004,10.300 19.170 L 10.411 19.000 12.761 19.000 L 15.111 19.000 15.179 19.170 C 15.333 19.555,15.794 20.121,16.200 20.422 C 16.767 20.844,17.622 21.063,18.299 20.960 C 19.442 20.787,20.358 20.001,20.769 18.840 C 20.828 18.673,20.852 18.472,20.868 18.000 C 20.891 17.327,20.859 17.160,20.611 16.653 C 20.317 16.052,19.547 15.416,18.880 15.224 C 18.326 15.064,17.557 15.078,17.023 15.258 C 16.378 15.474,15.773 15.972,15.458 16.545 C 15.375 16.696,15.264 16.878,15.212 16.950 L 15.116 17.080 13.064 17.080 L 11.012 17.080 10.988 16.824 C 10.956 16.483,10.829 15.998,10.677 15.636 C 10.609 15.473,10.551 15.318,10.547 15.292 C 10.543 15.266,10.899 14.870,11.338 14.412 C 12.408 13.297,17.135 8.435,17.409 8.168 L 17.627 7.956 18.063 7.992 C 18.791 8.053,19.301 7.950,19.824 7.635 C 20.302 7.347,20.747 6.739,20.903 6.160 C 20.995 5.818,20.997 5.224,20.906 4.883 C 20.785 4.425,20.612 4.128,20.262 3.778 C 19.742 3.258,19.233 3.040,18.538 3.040 C 17.801 3.040,17.261 3.262,16.735 3.780 C 16.386 4.124,16.184 4.474,16.075 4.920 C 15.992 5.260,16.010 5.844,16.114 6.214 L 16.202 6.528 15.030 7.734 C 14.386 8.397,12.809 10.023,11.528 11.348 L 9.197 13.755 8.948 13.600 C 8.462 13.296,7.734 13.080,7.195 13.080 L 7.000 13.080 7.000 10.968 L 7.000 8.856 7.189 8.764 C 7.960 8.390,8.505 7.817,8.811 7.060 C 8.939 6.742,8.940 6.736,8.940 6.040 C 8.940 5.257,8.916 5.145,8.636 4.600 C 8.349 4.044,7.915 3.620,7.343 3.337 C 6.763 3.051,5.988 2.948,5.388 3.078 " fill="#373B4D" stroke="none" fill-rule="evenodd"></path></svg>