<svg width="24" height="24" viewBox="0 0 24 24" fill="none" xmlns="http://www.w3.org/2000/svg"><path d="M5.513 3.038 C 5.167 3.102,4.862 3.206,4.540 3.372 C 4.096 3.601,3.601 4.096,3.371 4.541 C 2.570 6.092,3.133 7.940,4.628 8.667 L 5.000 8.848 5.000 11.202 L 5.000 13.556 4.770 13.707 C 4.435 13.928,3.880 14.493,3.649 14.848 C 2.625 16.424,2.842 18.462,4.177 19.813 C 5.308 20.956,7.030 21.309,8.523 20.702 C 9.169 20.439,9.831 19.894,10.211 19.310 L 10.413 19.000 12.757 19.001 L 15.100 19.002 15.227 19.271 C 15.584 20.031,16.278 20.624,17.120 20.886 C 17.507 21.007,18.236 21.016,18.640 20.906 C 19.509 20.667,20.221 20.070,20.605 19.256 C 20.824 18.792,20.891 18.473,20.891 17.880 C 20.892 17.448,20.878 17.336,20.787 17.060 C 20.605 16.500,20.291 16.059,19.820 15.701 C 19.293 15.301,18.815 15.125,18.158 15.091 C 16.964 15.030,15.883 15.640,15.385 16.657 C 15.309 16.813,15.237 16.972,15.225 17.010 C 15.204 17.075,15.068 17.080,13.107 17.080 L 11.012 17.080 10.987 16.790 C 10.953 16.396,10.833 15.946,10.662 15.577 L 10.520 15.269 10.669 15.105 C 10.750 15.014,12.345 13.360,14.214 11.429 C 17.488 8.044,17.615 7.919,17.735 7.938 C 18.534 8.066,18.767 8.060,19.285 7.896 C 21.039 7.342,21.578 5.039,20.260 3.735 C 19.486 2.970,18.362 2.791,17.380 3.277 C 16.825 3.551,16.412 3.996,16.189 4.560 C 15.956 5.152,15.942 5.688,16.146 6.328 L 16.205 6.517 12.704 10.135 L 9.203 13.754 8.937 13.579 C 8.491 13.286,7.808 13.082,7.270 13.081 L 7.000 13.080 7.000 10.964 L 7.000 8.848 7.372 8.667 C 8.139 8.294,8.702 7.587,8.924 6.717 C 9.016 6.358,8.997 5.564,8.887 5.182 C 8.595 4.165,7.838 3.403,6.839 3.121 C 6.504 3.026,5.813 2.983,5.513 3.038 " fill="#373B4D" stroke="none" fill-rule="evenodd"></path></svg>