<svg width="24" height="24" viewBox="0 0 24 24" fill="none" xmlns="http://www.w3.org/2000/svg"><path d="M5.528 3.046 C 5.200 3.093,4.702 3.276,4.390 3.466 C 4.068 3.660,3.622 4.115,3.429 4.443 C 3.140 4.935,2.972 5.657,3.015 6.220 C 3.098 7.304,3.677 8.172,4.659 8.683 L 4.999 8.860 5.000 11.208 L 5.000 13.556 4.810 13.685 C 4.363 13.989,3.819 14.561,3.555 15.005 C 3.360 15.332,3.193 15.759,3.096 16.180 C 2.988 16.646,2.995 17.424,3.112 17.892 C 3.306 18.671,3.679 19.318,4.247 19.862 C 4.795 20.386,5.308 20.676,6.035 20.870 C 6.368 20.959,6.502 20.973,7.020 20.973 C 7.541 20.973,7.672 20.959,8.011 20.869 C 8.923 20.625,9.706 20.061,10.232 19.270 L 10.412 19.000 12.762 19.000 L 15.111 19.000 15.178 19.167 C 15.286 19.436,15.591 19.878,15.832 20.113 C 16.506 20.772,17.390 21.078,18.282 20.964 C 18.934 20.880,19.451 20.626,19.953 20.142 C 20.299 19.810,20.554 19.419,20.727 18.955 C 20.843 18.646,20.854 18.573,20.871 18.000 C 20.888 17.408,20.884 17.365,20.781 17.060 C 20.625 16.595,20.466 16.341,20.103 15.977 C 19.581 15.454,19.086 15.209,18.367 15.117 C 17.751 15.038,17.073 15.162,16.560 15.449 C 16.018 15.751,15.652 16.139,15.358 16.725 C 15.273 16.893,15.175 17.041,15.139 17.055 C 15.103 17.069,14.160 17.080,13.043 17.080 L 11.012 17.080 10.987 16.789 C 10.958 16.446,10.808 15.905,10.639 15.532 L 10.519 15.267 10.769 15.004 C 11.601 14.125,16.607 8.966,17.074 8.505 L 17.637 7.949 17.969 7.985 C 18.545 8.046,18.865 8.025,19.252 7.902 C 21.393 7.218,21.604 4.245,19.581 3.265 C 19.205 3.082,18.931 3.021,18.500 3.025 C 17.814 3.031,17.193 3.289,16.715 3.768 C 16.083 4.399,15.862 5.316,16.119 6.231 L 16.201 6.523 12.698 10.141 L 9.195 13.760 9.027 13.645 C 8.529 13.304,7.813 13.081,7.210 13.080 L 7.000 13.080 7.000 10.970 L 7.001 8.860 7.341 8.683 C 8.124 8.275,8.625 7.677,8.885 6.839 C 8.962 6.589,8.977 6.457,8.974 6.040 C 8.970 5.437,8.898 5.103,8.678 4.657 C 8.327 3.947,7.702 3.402,6.962 3.163 C 6.760 3.097,5.904 2.981,5.800 3.005 C 5.789 3.008,5.667 3.026,5.528 3.046 " fill="#373B4D" stroke="none" fill-rule="evenodd"></path></svg>