<svg width="24" height="24" viewBox="0 0 24 24" fill="none" xmlns="http://www.w3.org/2000/svg"><path d="M15.284 2.062 C 13.519 2.445,12.111 3.741,11.636 5.418 C 11.586 5.595,11.547 5.890,11.532 6.210 L 11.508 6.720 11.804 6.720 C 12.403 6.719,13.196 6.434,13.740 6.022 C 14.311 5.590,14.931 4.882,15.238 4.313 C 15.695 3.464,15.933 1.989,15.611 2.003 C 15.572 2.005,15.425 2.031,15.284 2.062 M7.720 6.843 C 6.573 6.949,5.495 7.495,4.606 8.420 C 3.847 9.211,3.392 10.096,3.162 11.230 C 2.812 12.957,3.058 14.922,3.887 17.020 C 4.624 18.885,6.143 20.955,7.284 21.648 C 7.679 21.888,8.000 21.981,8.420 21.976 C 8.827 21.971,9.111 21.905,10.043 21.599 C 10.906 21.316,11.071 21.281,11.660 21.253 C 12.411 21.219,12.747 21.275,13.759 21.606 C 14.768 21.937,15.146 22.002,15.641 21.930 C 16.240 21.842,16.706 21.597,17.252 21.080 C 17.910 20.458,18.778 19.273,19.274 18.320 C 19.554 17.783,19.960 16.841,19.960 16.729 C 19.960 16.673,19.888 16.616,19.708 16.527 C 19.183 16.268,18.392 15.583,18.025 15.070 C 17.780 14.725,17.458 14.048,17.356 13.660 C 17.235 13.202,17.205 12.196,17.298 11.705 C 17.428 11.015,17.692 10.438,18.127 9.897 C 18.385 9.577,18.883 9.122,19.230 8.889 C 19.346 8.812,19.440 8.734,19.440 8.715 C 19.440 8.639,18.657 7.874,18.390 7.690 C 17.839 7.310,17.224 7.049,16.518 6.895 C 16.250 6.836,16.007 6.821,15.340 6.820 C 14.376 6.820,14.436 6.808,12.850 7.328 C 12.033 7.596,11.958 7.613,11.620 7.613 C 11.284 7.614,11.206 7.596,10.460 7.351 C 8.911 6.842,8.517 6.769,7.720 6.843 " fill="#373B4D" stroke="none" fill-rule="evenodd"></path></svg>