<svg width="24" height="24" viewBox="0 0 24 24" fill="none" xmlns="http://www.w3.org/2000/svg"><path d="M15.180 2.095 C 13.955 2.401,12.919 3.125,12.239 4.151 C 11.776 4.850,11.576 5.445,11.533 6.256 L 11.507 6.733 11.864 6.709 C 12.867 6.642,13.773 6.142,14.577 5.212 C 15.170 4.527,15.389 4.118,15.599 3.303 C 15.756 2.696,15.796 2.240,15.705 2.102 C 15.626 1.981,15.637 1.981,15.180 2.095 M7.540 6.882 C 6.715 6.963,5.811 7.386,4.992 8.071 C 3.410 9.396,2.724 11.643,3.119 14.206 C 3.384 15.927,3.989 17.522,4.964 19.072 C 5.791 20.389,6.986 21.602,7.709 21.860 C 7.814 21.897,8.073 21.937,8.285 21.949 C 8.746 21.974,8.993 21.926,9.992 21.616 C 11.029 21.295,11.197 21.268,12.053 21.290 C 12.768 21.308,12.789 21.311,13.320 21.475 C 14.730 21.908,14.830 21.931,15.300 21.935 C 15.683 21.937,15.781 21.923,16.060 21.826 C 16.456 21.687,16.733 21.521,17.126 21.185 C 17.887 20.536,19.009 18.944,19.553 17.742 C 19.725 17.362,19.960 16.758,19.960 16.696 C 19.960 16.690,19.821 16.602,19.651 16.498 C 18.635 15.881,17.936 15.103,17.544 14.151 C 17.118 13.116,17.160 11.688,17.645 10.695 C 17.940 10.090,18.428 9.512,19.041 9.042 C 19.513 8.678,19.511 8.735,19.068 8.301 C 18.429 7.675,17.853 7.319,17.061 7.059 C 16.467 6.865,16.126 6.827,15.168 6.850 C 14.242 6.872,14.229 6.875,12.740 7.364 C 12.113 7.570,12.090 7.574,11.620 7.575 L 11.140 7.576 10.241 7.287 C 9.746 7.128,9.206 6.973,9.041 6.942 C 8.657 6.869,7.952 6.841,7.540 6.882 " fill="#373B4D" stroke="none" fill-rule="evenodd"></path></svg>