<svg width="24" height="24" viewBox="0 0 24 24" fill="none" xmlns="http://www.w3.org/2000/svg"><path d="M15.170 2.099 C 13.633 2.498,12.387 3.560,11.812 4.960 C 11.645 5.365,11.563 5.758,11.532 6.289 L 11.507 6.733 11.864 6.707 C 12.497 6.661,13.015 6.477,13.597 6.090 C 14.199 5.690,14.951 4.854,15.258 4.243 C 15.490 3.783,15.761 2.768,15.759 2.366 C 15.759 2.194,15.682 2.024,15.599 2.012 C 15.567 2.007,15.373 2.046,15.170 2.099 M14.597 6.878 C 14.194 6.912,13.923 6.981,12.820 7.333 C 12.219 7.525,12.087 7.553,11.680 7.576 L 11.220 7.602 10.460 7.359 C 9.155 6.942,9.023 6.914,8.288 6.890 C 7.863 6.877,7.530 6.887,7.329 6.919 C 6.353 7.077,5.239 7.729,4.464 8.596 C 3.422 9.763,2.890 11.534,3.031 13.373 C 3.175 15.258,3.776 17.086,4.829 18.846 C 5.693 20.288,6.993 21.635,7.740 21.863 C 8.027 21.950,8.540 21.979,8.850 21.925 C 8.996 21.899,9.501 21.763,9.971 21.622 C 10.892 21.346,11.251 21.279,11.793 21.281 C 12.513 21.284,12.875 21.342,13.644 21.573 C 14.734 21.902,14.834 21.923,15.311 21.923 C 15.975 21.923,16.409 21.755,17.028 21.260 C 17.749 20.683,18.902 19.107,19.458 17.940 C 19.618 17.603,19.882 16.963,19.936 16.778 C 19.957 16.709,19.887 16.648,19.474 16.378 C 17.888 15.340,17.117 13.843,17.280 12.116 C 17.399 10.863,17.923 9.944,19.023 9.059 C 19.230 8.892,19.400 8.730,19.400 8.699 C 19.400 8.617,19.207 8.410,18.818 8.075 C 18.171 7.517,17.507 7.167,16.700 6.958 C 16.334 6.863,15.263 6.822,14.597 6.878 " fill="#373B4D" stroke="none" fill-rule="evenodd"></path></svg>