<svg width="24" height="24" viewBox="0 0 24 24" fill="none" xmlns="http://www.w3.org/2000/svg"><path d="M15.280 2.062 C 13.523 2.439,12.151 3.681,11.657 5.340 C 11.573 5.620,11.545 5.814,11.530 6.210 L 11.511 6.720 11.797 6.720 C 12.672 6.720,13.529 6.313,14.322 5.521 C 15.103 4.742,15.542 3.924,15.699 2.957 C 15.802 2.322,15.771 1.996,15.609 2.003 C 15.571 2.005,15.423 2.031,15.280 2.062 M14.754 6.799 C 14.369 6.848,13.939 6.966,12.900 7.308 C 11.593 7.739,11.647 7.739,10.399 7.326 C 9.860 7.148,9.270 6.967,9.087 6.923 C 7.225 6.482,5.175 7.389,3.977 9.185 C 2.977 10.683,2.733 12.945,3.321 15.280 C 3.826 17.288,4.727 19.021,6.070 20.570 C 6.615 21.199,7.036 21.547,7.538 21.786 C 8.180 22.090,8.695 22.059,9.922 21.640 C 10.985 21.278,11.163 21.242,11.892 21.241 C 12.606 21.240,12.898 21.294,13.639 21.565 C 14.389 21.839,14.721 21.923,15.149 21.949 C 16.172 22.010,16.972 21.549,17.929 20.349 C 18.752 19.317,19.279 18.435,19.752 17.300 C 20.037 16.614,20.032 16.663,19.828 16.585 C 19.409 16.425,18.684 15.857,18.213 15.320 C 17.860 14.918,17.492 14.215,17.362 13.695 C 17.046 12.430,17.249 11.149,17.922 10.157 C 18.230 9.703,18.809 9.155,19.360 8.796 L 19.459 8.731 19.300 8.536 C 18.408 7.437,17.106 6.833,15.520 6.781 C 15.245 6.772,14.900 6.780,14.754 6.799 " fill="#373B4D" stroke="none" fill-rule="evenodd"></path></svg>