<svg width="24" height="24" viewBox="0 0 24 24" fill="none" xmlns="http://www.w3.org/2000/svg"><path d="M15.265 2.062 C 14.668 2.181,13.910 2.509,13.412 2.864 C 12.296 3.661,11.529 5.030,11.507 6.267 C 11.503 6.490,11.512 6.686,11.528 6.701 C 11.582 6.755,12.194 6.718,12.488 6.643 C 13.117 6.482,13.667 6.159,14.242 5.612 C 14.841 5.042,15.279 4.386,15.519 3.700 C 15.702 3.177,15.810 2.371,15.735 2.090 C 15.707 1.986,15.662 1.983,15.265 2.062 M14.380 6.858 C 14.138 6.908,13.472 7.109,12.900 7.303 C 12.033 7.598,11.820 7.657,11.620 7.655 C 11.370 7.653,11.053 7.562,9.920 7.167 C 8.895 6.811,8.293 6.735,7.468 6.860 C 6.433 7.016,5.473 7.516,4.678 8.316 C 3.497 9.502,2.944 11.094,3.013 13.100 C 3.052 14.210,3.216 15.090,3.600 16.240 C 4.117 17.789,4.749 18.947,5.772 20.220 C 6.487 21.111,7.073 21.614,7.680 21.856 C 7.945 21.963,8.029 21.977,8.400 21.978 C 8.898 21.980,9.167 21.919,10.012 21.613 C 10.939 21.276,11.196 21.223,11.900 21.223 C 12.600 21.223,12.870 21.278,13.725 21.594 C 14.368 21.833,14.652 21.909,15.044 21.950 C 15.992 22.049,16.824 21.647,17.653 20.687 C 18.319 19.916,18.947 18.990,19.368 18.160 C 19.580 17.742,20.020 16.684,19.992 16.660 C 19.985 16.655,19.894 16.613,19.789 16.567 C 19.143 16.285,18.203 15.445,17.828 14.814 C 17.246 13.836,17.067 12.676,17.320 11.513 C 17.551 10.448,18.241 9.529,19.360 8.796 L 19.458 8.731 19.224 8.445 C 18.857 7.996,18.342 7.593,17.766 7.303 C 16.790 6.812,15.442 6.635,14.380 6.858 " fill="#373B4D" stroke="none" fill-rule="evenodd"></path></svg>