<svg width="24" height="24" viewBox="0 0 24 24" fill="none" xmlns="http://www.w3.org/2000/svg"><path d="M14.560 6.043 C 13.789 6.099,13.213 6.249,12.444 6.596 L 12.004 6.795 11.572 6.602 C 10.552 6.147,9.930 6.024,8.780 6.051 C 8.098 6.068,7.973 6.082,7.558 6.190 C 5.560 6.711,4.007 8.128,3.343 10.037 C 3.092 10.757,3.026 11.163,3.024 11.980 C 3.022 12.776,3.073 13.126,3.288 13.799 C 3.590 14.746,4.049 15.491,4.779 16.220 C 5.322 16.763,5.667 17.015,6.301 17.332 C 7.264 17.813,7.919 17.970,8.980 17.972 C 10.001 17.974,10.699 17.818,11.630 17.379 L 12.000 17.205 12.370 17.379 C 12.838 17.600,13.482 17.815,13.943 17.904 C 14.481 18.009,15.606 17.999,16.148 17.885 C 18.169 17.460,19.829 16.079,20.560 14.213 C 20.799 13.604,20.914 13.124,20.964 12.530 C 21.114 10.723,20.514 9.074,19.241 7.798 C 17.972 6.527,16.339 5.914,14.560 6.043 M9.840 7.206 C 10.749 7.336,11.889 7.944,12.536 8.643 C 13.042 9.189,13.487 9.974,13.703 10.700 C 13.796 11.013,13.813 11.153,13.830 11.768 C 13.861 12.873,13.745 13.417,13.293 14.287 C 12.621 15.581,11.410 16.480,9.900 16.807 C 9.539 16.885,8.457 16.874,8.052 16.788 C 6.300 16.416,4.906 15.182,4.364 13.522 C 4.194 13.004,4.142 12.647,4.142 12.000 C 4.142 11.143,4.260 10.602,4.600 9.900 C 5.220 8.621,6.436 7.615,7.763 7.285 C 8.394 7.128,9.107 7.101,9.840 7.206 M9.120 10.079 C 8.915 10.840,8.309 13.482,8.334 13.507 C 8.343 13.517,8.451 13.535,8.573 13.548 L 8.794 13.571 8.835 13.415 C 8.886 13.223,9.447 10.827,9.555 10.341 C 9.599 10.145,9.626 9.970,9.615 9.952 C 9.604 9.934,9.498 9.920,9.379 9.920 L 9.163 9.920 9.120 10.079 M7.285 11.430 C 7.129 11.601,7.001 11.771,7.001 11.810 C 7.000 11.848,7.127 12.024,7.282 12.200 L 7.564 12.520 7.887 12.520 C 8.252 12.520,8.249 12.541,7.938 12.199 C 7.848 12.099,7.741 11.969,7.702 11.908 L 7.630 11.798 7.867 11.509 C 8.209 11.092,8.209 11.120,7.866 11.120 L 7.567 11.120 7.285 11.430 M9.795 11.190 C 9.816 11.229,9.872 11.297,9.921 11.340 C 9.969 11.384,10.081 11.506,10.169 11.611 C 10.355 11.833,10.361 11.811,9.977 12.240 L 9.744 12.500 10.062 12.512 L 10.380 12.524 10.611 12.272 C 10.880 11.979,10.976 11.820,10.931 11.745 C 10.914 11.715,10.781 11.562,10.635 11.405 L 10.369 11.120 10.063 11.120 C 9.783 11.120,9.760 11.126,9.795 11.190 " fill="#373B4D" stroke="none" fill-rule="evenodd"></path></svg>