<svg width="24" height="24" viewBox="0 0 24 24" fill="none" xmlns="http://www.w3.org/2000/svg"><path d="M14.291 6.081 C 13.698 6.144,13.105 6.315,12.357 6.639 L 12.000 6.794 11.630 6.632 C 11.175 6.433,10.798 6.301,10.380 6.194 C 9.917 6.074,8.384 6.041,7.860 6.138 C 6.427 6.405,4.972 7.339,4.133 8.531 C 3.630 9.246,3.225 10.202,3.100 10.970 C 3.031 11.395,3.021 12.474,3.081 12.900 C 3.211 13.813,3.587 14.716,4.153 15.480 C 4.446 15.873,5.063 16.508,5.419 16.781 C 5.986 17.215,6.830 17.622,7.583 17.825 C 7.964 17.928,8.021 17.932,8.980 17.932 C 9.930 17.931,9.999 17.926,10.367 17.827 C 10.822 17.705,11.447 17.477,11.767 17.316 L 11.993 17.202 12.332 17.359 C 12.826 17.587,13.564 17.828,14.000 17.903 C 14.301 17.955,14.550 17.964,15.200 17.948 C 16.077 17.927,16.289 17.889,17.040 17.618 C 18.207 17.198,19.345 16.290,20.022 15.240 C 20.424 14.618,20.777 13.725,20.898 13.025 C 20.981 12.550,20.981 11.450,20.898 10.975 C 20.821 10.528,20.575 9.787,20.367 9.373 C 19.593 7.835,18.130 6.645,16.490 6.218 C 15.908 6.067,14.977 6.009,14.291 6.081 M10.211 7.296 C 10.963 7.488,11.789 7.958,12.394 8.538 C 12.950 9.071,13.500 9.998,13.681 10.702 C 13.857 11.393,13.874 12.371,13.721 13.116 C 13.442 14.476,12.375 15.794,11.061 16.402 C 10.324 16.743,9.860 16.848,9.080 16.852 C 8.154 16.857,7.609 16.731,6.784 16.320 C 5.840 15.850,5.093 15.084,4.619 14.101 C 4.235 13.303,4.220 13.226,4.220 11.980 C 4.220 10.901,4.220 10.900,4.331 10.586 C 4.392 10.413,4.524 10.104,4.624 9.898 C 5.333 8.440,6.785 7.374,8.300 7.198 C 8.454 7.180,8.859 7.172,9.200 7.181 C 9.694 7.193,9.900 7.216,10.211 7.296 M9.123 10.070 C 8.827 11.180,8.321 13.453,8.361 13.496 C 8.380 13.515,8.485 13.540,8.595 13.550 L 8.794 13.570 8.842 13.395 C 8.952 12.986,9.600 10.133,9.600 10.054 C 9.600 9.953,9.530 9.920,9.318 9.920 C 9.173 9.920,9.161 9.929,9.123 10.070 M7.340 11.370 C 7.215 11.508,7.088 11.668,7.058 11.726 C 7.007 11.823,7.012 11.844,7.120 11.994 C 7.185 12.083,7.316 12.238,7.412 12.338 C 7.584 12.518,7.589 12.520,7.851 12.520 C 7.996 12.520,8.125 12.505,8.136 12.486 C 8.148 12.467,8.050 12.327,7.919 12.176 C 7.788 12.024,7.681 11.864,7.681 11.820 C 7.681 11.776,7.779 11.615,7.898 11.462 C 8.018 11.309,8.106 11.170,8.095 11.152 C 8.084 11.134,7.961 11.120,7.821 11.120 L 7.567 11.120 7.340 11.370 M9.824 11.154 C 9.812 11.173,9.885 11.285,9.987 11.403 C 10.285 11.753,10.295 11.775,10.224 11.912 C 10.190 11.977,10.073 12.129,9.963 12.250 C 9.852 12.370,9.774 12.480,9.788 12.494 C 9.802 12.508,9.944 12.520,10.105 12.520 L 10.396 12.520 10.658 12.210 C 10.802 12.040,10.919 11.864,10.919 11.820 C 10.919 11.776,10.799 11.601,10.653 11.430 L 10.386 11.120 10.115 11.120 C 9.966 11.120,9.835 11.135,9.824 11.154 " fill="#373B4D" stroke="none" fill-rule="evenodd"></path></svg>