<svg width="24" height="24" viewBox="0 0 24 24" fill="none" xmlns="http://www.w3.org/2000/svg"><path d="M8.220 6.080 C 7.379 6.153,6.310 6.575,5.505 7.152 C 4.356 7.976,3.536 9.186,3.174 10.594 C 2.978 11.356,2.981 12.662,3.179 13.418 C 3.483 14.575,3.961 15.392,4.847 16.270 C 5.353 16.772,5.675 17.010,6.232 17.292 C 6.772 17.566,7.113 17.701,7.597 17.831 C 7.955 17.927,8.041 17.934,8.920 17.937 C 9.569 17.939,9.947 17.923,10.140 17.885 C 10.549 17.804,11.165 17.596,11.610 17.388 L 12.000 17.205 12.330 17.359 C 12.714 17.538,13.245 17.728,13.676 17.843 C 14.296 18.006,15.589 18.016,16.251 17.861 C 18.345 17.372,19.999 15.890,20.674 13.900 C 20.898 13.238,20.971 12.777,20.972 12.020 C 20.974 11.244,20.912 10.833,20.693 10.160 C 20.120 8.394,18.661 6.923,16.906 6.340 C 16.281 6.133,15.960 6.077,15.240 6.053 C 14.181 6.016,13.487 6.149,12.499 6.577 L 11.997 6.794 11.608 6.622 C 10.683 6.213,10.150 6.087,9.230 6.062 C 8.895 6.053,8.440 6.061,8.220 6.080 M9.785 7.203 C 10.990 7.371,12.298 8.194,12.973 9.208 C 13.497 9.996,13.745 10.646,13.807 11.395 C 13.884 12.333,13.795 13.113,13.536 13.760 C 12.928 15.279,11.687 16.358,10.094 16.754 C 9.431 16.919,8.380 16.895,7.700 16.698 C 7.250 16.569,6.548 16.233,6.179 15.970 C 5.243 15.305,4.592 14.363,4.270 13.208 C 4.194 12.937,4.183 12.795,4.182 12.020 C 4.180 11.223,4.189 11.106,4.274 10.780 C 4.383 10.359,4.678 9.714,4.948 9.307 C 5.194 8.936,5.738 8.369,6.123 8.081 C 6.688 7.660,7.406 7.343,8.066 7.224 C 8.447 7.155,9.360 7.144,9.785 7.203 M9.123 10.068 C 8.909 10.864,8.311 13.484,8.337 13.511 C 8.345 13.519,8.451 13.535,8.573 13.548 L 8.794 13.571 8.836 13.415 C 8.929 13.066,9.595 10.171,9.607 10.060 C 9.620 9.940,9.619 9.940,9.392 9.928 L 9.164 9.916 9.123 10.068 M7.327 11.385 C 6.962 11.789,6.959 11.801,7.141 12.029 C 7.225 12.134,7.357 12.287,7.435 12.370 C 7.573 12.517,7.583 12.520,7.868 12.520 C 8.034 12.520,8.160 12.503,8.160 12.480 C 8.160 12.459,8.071 12.343,7.962 12.223 C 7.591 11.813,7.595 11.848,7.876 11.499 C 8.010 11.332,8.120 11.178,8.120 11.158 C 8.120 11.137,7.995 11.120,7.843 11.120 L 7.566 11.120 7.327 11.385 M9.800 11.164 C 9.800 11.188,9.908 11.326,10.040 11.470 C 10.172 11.614,10.280 11.763,10.280 11.802 C 10.280 11.877,10.044 12.193,9.865 12.357 C 9.807 12.410,9.760 12.469,9.760 12.487 C 9.760 12.505,9.903 12.520,10.079 12.520 L 10.398 12.520 10.654 12.219 C 10.796 12.054,10.920 11.883,10.932 11.840 C 10.946 11.783,10.873 11.673,10.666 11.442 L 10.380 11.122 10.090 11.121 C 9.906 11.120,9.800 11.136,9.800 11.164 " fill="#373B4D" stroke="none" fill-rule="evenodd"></path></svg>