<svg width="24" height="24" viewBox="0 0 24 24" fill="none" xmlns="http://www.w3.org/2000/svg"><path d="M8.380 6.038 C 7.661 6.121,7.048 6.296,6.416 6.597 C 3.849 7.819,2.493 10.689,3.181 13.441 C 3.452 14.521,3.991 15.466,4.785 16.250 C 5.284 16.743,5.699 17.040,6.300 17.338 C 6.881 17.625,7.260 17.759,7.856 17.888 C 8.435 18.013,9.559 18.013,10.146 17.887 C 10.649 17.779,11.274 17.564,11.687 17.357 L 12.000 17.199 12.313 17.357 C 12.726 17.564,13.351 17.779,13.854 17.887 C 14.448 18.014,15.564 18.013,16.160 17.886 C 18.587 17.365,20.350 15.608,20.887 13.174 C 21.013 12.603,21.013 11.397,20.887 10.826 C 20.481 8.984,19.351 7.500,17.717 6.665 C 16.735 6.163,15.574 5.936,14.505 6.037 C 13.687 6.114,13.104 6.275,12.370 6.625 L 12.001 6.801 11.590 6.604 C 11.132 6.384,10.550 6.195,10.042 6.101 C 9.635 6.026,8.766 5.993,8.380 6.038 M10.140 7.255 C 12.007 7.722,13.380 9.147,13.787 11.040 C 13.898 11.557,13.885 12.570,13.761 13.080 C 13.400 14.565,12.474 15.731,11.140 16.382 C 10.345 16.770,9.674 16.907,8.760 16.867 C 7.481 16.811,6.357 16.297,5.459 15.356 C 4.593 14.449,4.120 13.263,4.120 12.003 C 4.121 10.679,4.611 9.502,5.556 8.556 C 6.279 7.834,7.185 7.352,8.100 7.205 C 8.254 7.180,8.425 7.152,8.480 7.142 C 8.535 7.133,8.841 7.132,9.160 7.140 C 9.608 7.152,9.831 7.178,10.140 7.255 M9.120 10.079 C 9.069 10.268,8.575 12.337,8.420 13.012 C 8.360 13.272,8.320 13.494,8.331 13.505 C 8.342 13.516,8.451 13.535,8.571 13.548 C 8.763 13.567,8.794 13.561,8.814 13.495 C 8.855 13.355,9.640 9.995,9.640 9.957 C 9.640 9.937,9.533 9.920,9.402 9.920 L 9.163 9.920 9.120 10.079 M7.259 11.460 C 6.903 11.852,6.897 11.784,7.329 12.252 L 7.580 12.524 7.896 12.512 L 8.211 12.500 7.926 12.186 C 7.768 12.013,7.640 11.847,7.640 11.817 C 7.640 11.787,7.757 11.628,7.900 11.464 C 8.043 11.300,8.160 11.156,8.160 11.143 C 8.160 11.130,8.027 11.120,7.864 11.120 L 7.568 11.120 7.259 11.460 M9.760 11.145 C 9.760 11.159,9.886 11.303,10.040 11.465 C 10.194 11.628,10.320 11.784,10.320 11.813 C 10.320 11.841,10.194 12.002,10.040 12.169 C 9.886 12.336,9.760 12.483,9.760 12.496 C 9.760 12.509,9.901 12.520,10.074 12.520 L 10.388 12.520 10.691 12.173 C 11.038 11.777,11.044 11.847,10.635 11.406 L 10.369 11.120 10.065 11.120 C 9.897 11.120,9.760 11.131,9.760 11.145 " fill="#373B4D" stroke="none" fill-rule="evenodd"></path></svg>