<svg width="24" height="24" viewBox="0 0 24 24" fill="none" xmlns="http://www.w3.org/2000/svg"><path d="M3.840 3.862 C 3.195 4.339,2.752 4.827,2.599 5.229 C 2.411 5.723,2.464 6.465,2.725 6.995 C 2.902 7.355,3.330 7.791,3.836 8.125 L 4.252 8.400 11.970 8.400 L 19.688 8.400 19.955 8.260 C 20.717 7.859,21.381 7.030,21.525 6.300 C 21.566 6.090,21.561 6.010,21.488 5.670 C 21.366 5.103,21.226 4.842,20.832 4.446 C 20.650 4.262,20.392 4.034,20.260 3.941 L 20.020 3.770 14.940 3.745 C 12.146 3.731,8.564 3.709,6.980 3.695 L 4.100 3.669 3.840 3.862 M3.600 14.059 L 3.600 18.517 3.780 18.813 C 4.101 19.343,4.657 19.899,5.187 20.220 L 5.483 20.400 12.011 20.400 L 18.540 20.400 18.860 20.183 C 19.514 19.739,20.003 19.239,20.260 18.754 L 20.400 18.488 20.400 14.044 L 20.400 9.600 12.000 9.600 L 3.600 9.600 3.600 14.059 M14.000 12.424 L 14.252 12.727 14.229 13.162 C 14.214 13.438,14.182 13.646,14.140 13.734 C 14.044 13.938,13.822 14.181,13.664 14.255 C 13.455 14.355,12.561 14.410,11.482 14.392 C 10.402 14.373,10.354 14.362,10.084 14.055 C 9.801 13.734,9.780 13.673,9.783 13.200 C 9.787 12.738,9.820 12.637,10.070 12.331 L 10.207 12.163 10.594 12.150 C 10.806 12.143,11.603 12.133,12.365 12.128 L 13.749 12.120 14.000 12.424 " fill="#373B4D" stroke="none" fill-rule="evenodd"></path></svg>