<svg width="24" height="24" viewBox="0 0 24 24" fill="none" xmlns="http://www.w3.org/2000/svg"><path d="M3.881 3.822 C 2.721 4.483,2.240 5.443,2.519 6.537 C 2.704 7.258,3.157 7.785,3.969 8.221 L 4.300 8.399 11.994 8.399 L 19.688 8.400 19.994 8.240 C 20.765 7.837,21.274 7.278,21.481 6.606 C 21.629 6.128,21.558 5.497,21.296 4.966 C 21.122 4.611,20.665 4.135,20.289 3.916 L 20.042 3.772 19.351 3.747 C 18.971 3.732,15.393 3.710,11.400 3.697 L 4.140 3.674 3.881 3.822 M3.600 14.044 L 3.600 18.488 3.760 18.794 C 4.113 19.468,4.511 19.873,5.157 20.214 L 5.510 20.400 11.996 20.400 L 18.482 20.400 18.731 20.275 C 19.408 19.936,19.932 19.412,20.275 18.731 L 20.400 18.482 20.400 14.041 L 20.400 9.600 12.000 9.600 L 3.600 9.600 3.600 14.044 M13.936 12.323 C 14.226 12.636,14.288 12.762,14.311 13.083 C 14.341 13.507,14.247 13.761,13.947 14.059 C 13.781 14.223,13.646 14.319,13.535 14.352 C 13.347 14.407,11.798 14.414,10.912 14.364 L 10.365 14.333 10.179 14.182 C 10.077 14.098,9.930 13.934,9.853 13.817 C 9.727 13.627,9.709 13.568,9.691 13.272 C 9.676 13.029,9.686 12.902,9.730 12.800 C 9.803 12.627,10.093 12.238,10.189 12.184 C 10.279 12.133,11.236 12.095,12.626 12.087 L 13.711 12.080 13.936 12.323 " fill="#373B4D" stroke="none" fill-rule="evenodd"></path></svg>