<svg width="24" height="24" viewBox="0 0 24 24" fill="none" xmlns="http://www.w3.org/2000/svg"><path d="M3.720 3.934 C 2.982 4.428,2.554 5.020,2.475 5.658 C 2.340 6.748,2.929 7.698,4.109 8.295 L 4.317 8.400 12.000 8.400 L 19.683 8.400 19.891 8.295 C 20.887 7.793,21.561 6.891,21.560 6.062 C 21.559 5.816,21.432 5.267,21.320 5.030 C 21.151 4.669,20.600 4.104,20.176 3.855 L 20.009 3.758 14.074 3.720 C 10.810 3.699,7.231 3.682,6.120 3.681 L 4.099 3.680 3.720 3.934 M3.600 14.041 L 3.600 18.483 3.706 18.691 C 4.062 19.396,4.607 19.941,5.309 20.295 L 5.517 20.400 12.010 20.400 L 18.502 20.400 18.816 20.221 C 19.500 19.831,19.958 19.357,20.295 18.691 L 20.400 18.483 20.400 14.041 L 20.400 9.600 12.000 9.600 L 3.600 9.600 3.600 14.041 M13.920 12.310 C 14.232 12.658,14.280 12.775,14.279 13.188 C 14.278 13.631,14.212 13.783,13.892 14.087 C 13.724 14.246,13.605 14.324,13.496 14.347 C 13.410 14.365,12.690 14.380,11.897 14.380 L 10.453 14.380 10.285 14.264 C 10.068 14.113,9.771 13.717,9.734 13.528 C 9.637 13.042,9.727 12.712,10.056 12.338 L 10.220 12.152 11.180 12.122 C 11.708 12.106,12.494 12.090,12.927 12.086 L 13.714 12.080 13.920 12.310 " fill="#373B4D" stroke="none" fill-rule="evenodd"></path></svg>