<svg width="24" height="24" viewBox="0 0 24 24" fill="none" xmlns="http://www.w3.org/2000/svg"><path d="M3.792 3.886 C 3.105 4.364,2.754 4.768,2.569 5.291 C 2.487 5.525,2.467 5.653,2.468 5.960 C 2.471 6.911,2.995 7.687,4.006 8.238 L 4.300 8.399 11.994 8.399 L 19.688 8.400 19.956 8.259 C 20.769 7.832,21.410 7.051,21.532 6.338 C 21.606 5.904,21.438 5.172,21.176 4.794 C 21.008 4.552,20.546 4.104,20.282 3.928 L 20.049 3.772 16.955 3.746 C 15.253 3.732,11.664 3.709,8.980 3.696 L 4.100 3.671 3.792 3.886 M3.600 14.044 L 3.600 18.488 3.741 18.756 C 4.052 19.348,4.651 19.948,5.242 20.258 L 5.512 20.400 12.014 20.400 L 18.516 20.400 18.723 20.278 C 19.478 19.833,19.964 19.346,20.284 18.711 L 20.400 18.482 20.400 14.041 L 20.400 9.600 12.000 9.600 L 3.600 9.600 3.600 14.044 M13.871 12.255 C 13.959 12.351,14.083 12.507,14.146 12.602 C 14.252 12.763,14.260 12.801,14.260 13.177 C 14.260 13.648,14.200 13.799,13.908 14.068 C 13.578 14.373,13.642 14.362,12.008 14.388 C 10.335 14.416,10.436 14.432,10.094 14.071 C 9.791 13.751,9.720 13.587,9.720 13.209 C 9.720 12.850,9.809 12.626,10.069 12.327 L 10.220 12.154 11.260 12.123 C 11.832 12.106,12.617 12.090,13.005 12.086 L 13.710 12.080 13.871 12.255 " fill="#373B4D" stroke="none" fill-rule="evenodd"></path></svg>