<svg width="24" height="24" viewBox="0 0 24 24" fill="none" xmlns="http://www.w3.org/2000/svg"><path d="M3.756 3.901 C 3.157 4.278,2.771 4.715,2.558 5.260 C 2.480 5.460,2.464 5.574,2.463 5.940 C 2.463 6.317,2.479 6.425,2.572 6.693 C 2.813 7.384,3.292 7.883,4.109 8.295 L 4.317 8.400 12.000 8.400 L 19.683 8.400 19.891 8.295 C 20.932 7.773,21.560 6.918,21.560 6.024 C 21.560 5.761,21.439 5.278,21.296 4.972 C 21.159 4.681,20.561 4.071,20.225 3.881 L 19.991 3.749 14.565 3.717 C 11.581 3.699,8.006 3.685,6.620 3.685 L 4.100 3.685 3.756 3.901 M3.600 14.041 L 3.600 18.483 3.705 18.691 C 4.078 19.428,4.574 19.925,5.309 20.295 L 5.517 20.400 12.009 20.399 L 18.500 20.399 18.794 20.238 C 19.471 19.870,19.947 19.379,20.294 18.691 L 20.400 18.483 20.400 14.041 L 20.400 9.600 12.000 9.600 L 3.600 9.600 3.600 14.041 M13.934 12.324 C 14.247 12.670,14.298 12.792,14.297 13.200 C 14.297 13.603,14.219 13.787,13.931 14.066 C 13.592 14.396,13.690 14.380,11.973 14.377 L 10.445 14.374 10.283 14.262 C 10.105 14.138,9.888 13.889,9.785 13.691 C 9.749 13.620,9.708 13.429,9.694 13.267 C 9.672 13.005,9.681 12.946,9.768 12.755 C 9.823 12.637,9.947 12.453,10.044 12.346 L 10.220 12.152 11.040 12.122 C 11.491 12.106,12.277 12.090,12.787 12.086 L 13.713 12.080 13.934 12.324 " fill="#373B4D" stroke="none" fill-rule="evenodd"></path></svg>