<svg width="24" height="24" viewBox="0 0 24 24" fill="none" xmlns="http://www.w3.org/2000/svg"><path d="M3.959 3.772 C 3.658 3.897,3.430 4.060,3.107 4.384 C 2.792 4.698,2.668 4.892,2.541 5.271 C 2.409 5.661,2.386 5.961,2.456 6.359 C 2.608 7.210,3.219 7.935,4.070 8.271 L 4.396 8.400 12.008 8.399 L 19.620 8.399 19.940 8.269 C 20.691 7.963,21.223 7.406,21.482 6.655 C 21.540 6.487,21.560 6.320,21.560 6.016 C 21.560 5.353,21.371 4.865,20.932 4.396 C 20.728 4.178,20.322 3.896,20.040 3.776 C 19.865 3.702,19.629 3.700,12.020 3.690 L 4.180 3.681 3.959 3.772 M3.601 14.030 L 3.601 18.460 3.794 18.860 C 4.123 19.540,4.501 19.916,5.186 20.243 L 5.517 20.401 12.008 20.390 L 18.500 20.380 18.850 20.213 C 19.502 19.901,19.901 19.502,20.213 18.850 L 20.380 18.500 20.391 14.050 L 20.401 9.600 12.001 9.600 L 3.600 9.600 3.601 14.030 M13.845 12.225 C 13.947 12.299,14.100 12.461,14.185 12.585 C 14.338 12.807,14.340 12.814,14.337 13.175 C 14.334 13.411,14.311 13.590,14.271 13.680 C 14.181 13.884,13.941 14.144,13.727 14.270 L 13.540 14.380 12.000 14.380 C 10.585 14.380,10.449 14.374,10.326 14.307 C 10.137 14.204,9.861 13.918,9.760 13.720 C 9.654 13.512,9.611 13.069,9.678 12.867 C 9.739 12.682,10.043 12.266,10.186 12.172 C 10.328 12.080,11.136 12.046,12.600 12.072 L 13.660 12.091 13.845 12.225 " fill="#373B4D" stroke="none" fill-rule="evenodd"></path></svg>