<svg width="24" height="24" viewBox="0 0 24 24" fill="none" xmlns="http://www.w3.org/2000/svg"><path d="M10.960 2.483 C 10.529 2.522,9.753 2.687,9.175 2.863 C 7.694 3.311,6.417 4.074,5.312 5.171 C 3.805 6.665,2.893 8.403,2.543 10.445 C 2.150 12.732,2.671 15.225,3.947 17.178 C 5.248 19.167,7.063 20.510,9.409 21.217 C 10.384 21.511,10.564 21.534,11.920 21.537 C 13.206 21.540,13.437 21.520,14.160 21.339 C 16.336 20.794,18.255 19.563,19.560 17.875 C 20.466 16.703,21.204 15.049,21.468 13.600 C 21.571 13.039,21.571 10.898,21.468 10.380 C 20.876 7.391,19.104 4.964,16.480 3.550 C 15.484 3.013,14.237 2.625,13.173 2.522 C 12.619 2.469,11.364 2.446,10.960 2.483 M12.505 7.365 C 12.702 7.457,12.934 7.674,13.026 7.851 C 13.118 8.030,13.149 8.607,13.183 10.810 L 13.212 12.679 13.796 12.110 C 14.913 11.021,15.132 10.866,15.560 10.865 C 16.059 10.865,16.427 11.068,16.616 11.448 C 16.705 11.626,16.720 11.708,16.720 12.024 L 16.720 12.392 16.532 12.646 C 16.428 12.786,15.524 13.720,14.522 14.722 C 12.492 16.752,12.458 16.779,12.000 16.779 C 11.544 16.779,11.510 16.751,9.456 14.701 C 8.442 13.688,7.542 12.772,7.456 12.664 C 7.306 12.475,7.300 12.455,7.286 12.122 C 7.279 11.932,7.293 11.701,7.317 11.610 C 7.381 11.374,7.585 11.128,7.832 10.989 C 8.016 10.886,8.087 10.869,8.372 10.865 C 8.870 10.858,9.019 10.959,10.200 12.107 L 10.800 12.689 10.801 11.215 C 10.803 9.616,10.849 8.377,10.919 8.060 C 11.004 7.678,11.274 7.404,11.672 7.296 C 11.909 7.231,12.286 7.263,12.505 7.365 " fill="#373B4D" stroke="none" fill-rule="evenodd"></path></svg>