<svg width="24" height="24" viewBox="0 0 24 24" fill="none" xmlns="http://www.w3.org/2000/svg"><path d="M15.092 6.139 C 14.920 6.214,14.637 6.502,14.541 6.700 C 14.437 6.914,14.410 7.411,14.492 7.607 C 14.578 7.813,14.978 8.253,16.306 9.599 L 17.480 10.790 11.410 10.818 C 4.716 10.849,3.262 10.876,3.037 10.970 C 2.728 11.100,2.442 11.586,2.441 11.985 C 2.439 12.439,2.594 12.718,3.016 13.019 L 3.270 13.200 10.385 13.200 L 17.499 13.200 16.537 14.170 C 15.135 15.583,14.617 16.139,14.523 16.333 C 14.411 16.565,14.409 17.028,14.519 17.271 C 14.628 17.510,14.966 17.823,15.194 17.895 C 15.691 18.053,15.922 18.002,16.388 17.631 C 16.749 17.344,20.040 14.065,20.850 13.185 C 21.589 12.382,21.684 12.178,21.540 11.694 C 21.456 11.408,21.008 10.921,18.863 8.779 C 16.945 6.863,16.317 6.276,16.060 6.156 C 15.862 6.064,15.287 6.054,15.092 6.139 " fill="#373B4D" stroke="none" fill-rule="evenodd"></path></svg>