<svg width="24" height="24" viewBox="0 0 24 24" fill="none" xmlns="http://www.w3.org/2000/svg"><path d="M11.740 2.435 C 11.376 2.530,11.086 2.758,10.933 3.071 L 10.820 3.300 10.809 10.396 L 10.798 17.493 9.469 16.175 C 7.709 14.428,7.724 14.440,7.208 14.440 C 6.936 14.440,6.859 14.457,6.645 14.564 C 6.124 14.824,5.886 15.399,6.067 15.960 C 6.123 16.131,6.226 16.267,6.642 16.714 C 7.350 17.477,11.186 21.276,11.384 21.411 C 11.734 21.649,12.266 21.649,12.616 21.411 C 12.814 21.276,16.650 17.477,17.358 16.714 C 17.774 16.267,17.877 16.131,17.933 15.960 C 18.111 15.407,17.882 14.842,17.368 14.568 C 17.155 14.454,17.093 14.440,16.802 14.440 C 16.274 14.440,16.297 14.423,14.531 16.175 L 13.202 17.493 13.191 10.397 L 13.180 3.300 13.090 3.118 C 12.965 2.869,12.739 2.645,12.500 2.535 C 12.278 2.433,11.925 2.387,11.740 2.435 " fill="#373B4D" stroke="none" fill-rule="evenodd"></path></svg>