<svg width="24" height="24" viewBox="0 0 24 24" fill="none" xmlns="http://www.w3.org/2000/svg"><path d="M11.460 2.632 C 11.285 2.715,11.044 2.960,10.935 3.168 C 10.842 3.345,10.843 3.300,10.786 10.848 C 10.759 14.362,10.726 17.248,10.712 17.262 C 10.667 17.306,10.593 17.243,9.534 16.255 C 7.879 14.710,7.632 14.520,7.280 14.520 C 6.681 14.520,6.141 14.936,6.062 15.459 C 6.029 15.680,6.146 15.998,6.376 16.310 C 6.776 16.854,10.516 20.586,11.240 21.165 C 11.747 21.570,12.066 21.619,12.501 21.357 C 12.935 21.096,17.201 16.858,17.672 16.220 C 17.884 15.933,17.926 15.832,17.926 15.616 C 17.927 15.248,17.691 14.828,17.400 14.680 C 17.240 14.599,16.810 14.523,16.500 14.522 C 16.353 14.521,16.300 14.557,15.840 14.965 C 15.565 15.209,14.858 15.876,14.270 16.447 L 13.200 17.487 13.200 10.347 L 13.200 3.208 12.971 2.998 C 12.550 2.614,12.482 2.583,12.024 2.569 C 11.694 2.559,11.591 2.571,11.460 2.632 " fill="#373B4D" stroke="none" fill-rule="evenodd"></path></svg>