<svg width="24" height="24" viewBox="0 0 24 24" fill="none" xmlns="http://www.w3.org/2000/svg"><path d="M11.660 4.916 C 11.411 4.979,11.113 5.213,10.951 5.474 C 10.863 5.615,10.859 5.662,10.834 6.880 C 10.820 7.573,10.806 9.693,10.804 11.590 C 10.802 13.488,10.789 15.040,10.776 15.040 C 10.763 15.040,10.299 14.596,9.746 14.054 C 8.443 12.776,7.917 12.304,7.653 12.175 C 7.458 12.080,7.412 12.072,7.149 12.098 C 6.499 12.161,6.096 12.528,6.050 13.097 C 6.014 13.551,6.175 13.795,7.251 14.920 C 7.947 15.647,10.354 18.005,10.959 18.552 C 11.575 19.109,11.630 19.140,11.997 19.136 C 12.353 19.133,12.436 19.096,12.800 18.778 C 13.314 18.330,15.906 15.804,16.616 15.060 C 17.712 13.911,17.829 13.759,17.938 13.342 C 17.988 13.149,17.988 13.095,17.938 12.926 C 17.864 12.677,17.654 12.404,17.415 12.245 C 17.233 12.124,17.211 12.120,16.796 12.120 L 16.365 12.120 16.069 12.356 C 15.730 12.625,15.081 13.238,13.970 14.337 L 13.200 15.099 13.200 10.359 L 13.200 5.618 12.890 5.311 C 12.720 5.142,12.535 4.988,12.480 4.967 C 12.335 4.914,11.801 4.881,11.660 4.916 " fill="#373B4D" stroke="none" fill-rule="evenodd"></path></svg>