<svg width="24" height="24" viewBox="0 0 24 24" fill="none" xmlns="http://www.w3.org/2000/svg"><path d="M7.840 6.190 C 7.474 6.429,3.560 10.293,2.848 11.120 C 2.392 11.649,2.307 11.979,2.515 12.409 C 2.563 12.509,2.849 12.858,3.150 13.185 C 3.965 14.069,7.252 17.346,7.612 17.631 C 7.953 17.903,8.263 18.026,8.491 17.980 C 8.826 17.913,8.993 17.831,9.195 17.634 C 9.471 17.363,9.530 17.238,9.552 16.877 C 9.584 16.332,9.521 16.248,7.704 14.410 L 6.509 13.200 13.619 13.200 L 20.730 13.200 20.984 13.019 C 21.406 12.718,21.561 12.439,21.559 11.985 C 21.558 11.586,21.272 11.100,20.963 10.970 C 20.738 10.876,19.284 10.849,12.586 10.818 L 6.511 10.790 7.428 9.865 C 8.699 8.583,9.273 7.974,9.404 7.767 C 9.580 7.489,9.624 7.224,9.541 6.939 C 9.450 6.626,9.287 6.398,9.038 6.239 C 8.847 6.116,8.803 6.105,8.426 6.090 C 8.032 6.074,8.015 6.077,7.840 6.190 " fill="#373B4D" stroke="none" fill-rule="evenodd"></path></svg>