<svg width="24" height="24" viewBox="0 0 24 24" fill="none" xmlns="http://www.w3.org/2000/svg"><path d="M11.475 2.596 C 11.142 2.820,10.061 3.860,7.541 6.382 C 5.158 8.765,4.033 9.925,3.779 10.258 C 3.667 10.405,3.660 10.434,3.663 10.777 C 3.665 11.201,3.730 11.359,4.007 11.628 C 4.232 11.846,4.402 11.914,4.809 11.945 L 5.142 11.970 5.442 11.730 C 5.802 11.440,7.150 10.135,9.250 8.044 L 10.800 6.500 10.802 12.280 C 10.803 18.831,10.834 20.674,10.942 20.884 C 11.049 21.090,11.413 21.423,11.618 21.501 C 11.826 21.581,12.217 21.565,12.447 21.467 C 12.649 21.381,12.943 21.100,13.039 20.901 C 13.121 20.732,13.127 20.643,13.161 19.012 C 13.181 18.070,13.198 14.873,13.198 11.906 L 13.200 6.511 15.290 8.582 C 17.335 10.609,18.357 11.592,18.652 11.817 C 18.843 11.963,19.204 11.999,19.524 11.906 C 19.932 11.788,20.399 11.214,20.400 10.830 C 20.400 10.638,20.291 10.409,20.041 10.076 C 19.815 9.775,14.114 4.019,13.253 3.222 C 12.941 2.933,12.605 2.657,12.505 2.607 C 12.380 2.544,12.222 2.510,11.992 2.494 C 11.670 2.473,11.654 2.476,11.475 2.596 " fill="#373B4D" stroke="none" fill-rule="evenodd"></path></svg>