<svg width="24" height="24" viewBox="0 0 24 24" fill="none" xmlns="http://www.w3.org/2000/svg"><path d="M10.680 2.562 C 9.847 2.629,8.634 3.012,7.629 3.528 C 6.202 4.260,4.700 5.649,3.844 7.030 C 3.150 8.149,2.629 9.657,2.483 10.968 C 2.393 11.782,2.448 13.117,2.601 13.808 C 2.934 15.313,3.521 16.620,4.374 17.760 C 4.745 18.256,5.679 19.189,6.160 19.545 C 7.337 20.416,8.933 21.157,10.160 21.403 C 10.776 21.526,11.996 21.584,12.790 21.528 C 13.767 21.459,14.413 21.305,15.429 20.897 C 17.178 20.195,18.614 19.108,19.703 17.660 C 20.334 16.821,21.026 15.314,21.362 14.047 C 21.467 13.651,21.517 12.929,21.518 11.780 C 21.520 10.756,21.475 10.352,21.285 9.680 C 20.787 7.921,19.954 6.474,18.748 5.274 C 17.986 4.515,17.233 3.978,16.240 3.485 C 15.354 3.044,14.574 2.780,13.756 2.644 C 13.093 2.533,11.552 2.492,10.680 2.562 M12.319 7.360 C 12.512 7.360,12.796 7.548,12.911 7.752 C 12.959 7.838,13.016 8.033,13.037 8.184 C 13.073 8.442,13.126 9.658,13.180 11.480 C 13.204 12.300,13.228 12.560,13.277 12.560 C 13.293 12.560,13.548 12.334,13.843 12.058 C 14.878 11.091,15.132 10.920,15.539 10.920 C 15.887 10.920,16.156 11.011,16.373 11.203 C 16.591 11.394,16.667 11.601,16.706 12.099 L 16.730 12.420 16.119 13.060 C 14.345 14.918,12.737 16.473,12.402 16.655 C 11.941 16.906,11.661 16.795,10.843 16.036 C 10.025 15.276,7.637 12.847,7.492 12.627 C 7.351 12.412,7.295 12.120,7.333 11.798 C 7.374 11.449,7.581 11.162,7.898 11.015 C 8.167 10.890,8.618 10.883,8.860 11.000 C 9.058 11.096,9.482 11.447,10.199 12.110 C 10.490 12.379,10.742 12.591,10.758 12.581 C 10.774 12.571,10.800 11.991,10.815 11.292 C 10.852 9.554,10.913 8.390,10.983 8.083 C 11.112 7.522,11.397 7.300,11.936 7.342 C 12.066 7.352,12.238 7.360,12.319 7.360 " fill="#373B4D" stroke="none" fill-rule="evenodd"></path></svg>