<svg width="24" height="24" viewBox="0 0 24 24" fill="none" xmlns="http://www.w3.org/2000/svg"><path d="M11.740 2.437 C 11.405 2.523,11.294 2.622,9.275 4.628 C 6.986 6.902,6.181 7.743,6.089 7.955 C 6.051 8.041,6.025 8.222,6.023 8.400 C 6.019 8.755,6.113 8.983,6.365 9.235 C 6.614 9.485,6.845 9.580,7.200 9.580 C 7.696 9.580,7.713 9.567,9.349 7.946 L 10.800 6.508 10.800 13.547 C 10.800 21.592,10.762 20.809,11.177 21.222 C 11.690 21.732,12.313 21.732,12.820 21.222 C 13.240 20.800,13.200 21.593,13.200 13.544 L 13.200 6.508 14.650 7.946 C 16.285 9.567,16.302 9.580,16.800 9.580 C 17.155 9.580,17.386 9.485,17.635 9.235 C 17.887 8.983,17.981 8.755,17.977 8.400 C 17.975 8.221,17.949 8.041,17.911 7.955 C 17.820 7.745,16.959 6.846,14.713 4.617 C 12.574 2.493,12.545 2.469,12.080 2.427 C 11.959 2.416,11.806 2.420,11.740 2.437 " fill="#373B4D" stroke="none" fill-rule="evenodd"></path></svg>