<svg width="24" height="24" viewBox="0 0 24 24" fill="none" xmlns="http://www.w3.org/2000/svg"><path d="M11.630 4.895 C 11.547 4.925,11.394 5.020,11.290 5.105 C 10.727 5.566,7.433 8.837,6.515 9.848 C 6.316 10.067,6.128 10.307,6.097 10.381 C 6.013 10.582,6.025 11.062,6.118 11.268 C 6.216 11.484,6.516 11.784,6.732 11.882 C 6.925 11.970,7.350 11.986,7.564 11.914 C 7.789 11.838,8.177 11.492,9.519 10.172 L 10.800 8.912 10.804 12.406 C 10.809 16.863,10.839 18.335,10.928 18.501 C 11.018 18.669,11.411 19.032,11.578 19.102 C 11.787 19.189,12.258 19.178,12.459 19.081 C 12.666 18.980,13.048 18.601,13.091 18.453 C 13.163 18.202,13.197 16.423,13.198 12.765 L 13.200 8.911 14.468 10.161 C 15.759 11.434,16.148 11.787,16.381 11.898 C 16.549 11.978,16.978 11.978,17.201 11.899 C 17.432 11.818,17.696 11.595,17.827 11.371 C 17.962 11.141,18.006 10.627,17.910 10.398 C 17.818 10.178,17.131 9.447,15.262 7.578 C 13.480 5.797,12.794 5.150,12.505 4.981 C 12.290 4.855,11.851 4.812,11.630 4.895 " fill="#373B4D" stroke="none" fill-rule="evenodd"></path></svg>