<svg width="24" height="24" viewBox="0 0 24 24" fill="none" xmlns="http://www.w3.org/2000/svg"><path d="M11.440 2.661 C 11.231 2.783,11.118 2.882,10.953 3.090 L 10.833 3.240 10.798 10.305 C 10.779 14.191,10.754 17.379,10.743 17.390 C 10.732 17.401,9.899 16.601,8.891 15.613 C 6.093 12.865,5.636 12.443,5.220 12.221 C 5.043 12.127,4.993 12.118,4.780 12.142 C 4.159 12.213,3.738 12.561,3.657 13.072 C 3.604 13.399,3.758 13.663,4.403 14.360 C 5.699 15.759,10.029 20.084,11.020 20.969 C 11.539 21.433,11.706 21.531,11.974 21.531 C 12.368 21.531,12.572 21.372,14.230 19.765 C 15.683 18.357,19.020 14.992,19.667 14.282 C 20.208 13.688,20.301 13.523,20.298 13.160 C 20.294 12.571,19.910 12.221,19.151 12.116 L 18.802 12.068 18.493 12.344 C 17.960 12.818,16.524 14.204,14.830 15.878 L 13.200 17.488 13.200 10.348 L 13.200 3.208 12.971 2.998 C 12.550 2.614,12.482 2.583,12.024 2.569 C 11.648 2.557,11.607 2.564,11.440 2.661 " fill="#373B4D" stroke="none" fill-rule="evenodd"></path></svg>