<svg width="24" height="24" viewBox="0 0 24 24" fill="none" xmlns="http://www.w3.org/2000/svg"><path d="M11.658 4.995 C 11.449 5.032,11.233 5.167,11.087 5.352 C 10.834 5.675,10.851 5.470,10.803 8.762 C 10.779 10.422,10.758 12.428,10.755 13.220 C 10.753 14.012,10.739 14.713,10.725 14.778 L 10.700 14.895 10.420 14.654 C 10.266 14.521,9.744 14.047,9.260 13.601 C 8.212 12.635,8.048 12.493,7.761 12.304 C 7.559 12.171,7.518 12.160,7.246 12.160 C 6.702 12.160,6.232 12.481,6.097 12.946 C 6.035 13.158,6.035 13.190,6.095 13.382 C 6.208 13.740,6.292 13.835,8.317 15.917 C 9.757 17.397,11.113 18.702,11.428 18.911 C 11.637 19.049,11.677 19.061,11.998 19.074 L 12.342 19.087 12.553 18.929 C 13.125 18.499,16.024 15.671,17.113 14.480 C 17.857 13.667,18.017 13.314,17.859 12.838 C 17.713 12.396,17.380 12.200,16.671 12.138 L 16.361 12.111 15.971 12.451 C 15.493 12.867,14.625 13.688,13.810 14.495 L 13.200 15.099 13.200 10.353 L 13.200 5.607 12.950 5.380 C 12.813 5.255,12.637 5.120,12.560 5.081 C 12.401 4.999,11.904 4.952,11.658 4.995 " fill="#373B4D" stroke="none" fill-rule="evenodd"></path></svg>