<svg width="24" height="24" viewBox="0 0 24 24" fill="none" xmlns="http://www.w3.org/2000/svg"><path d="M11.588 2.575 C 11.177 2.728,10.930 3.006,10.878 3.374 C 10.847 3.593,10.761 12.897,10.760 16.150 C 10.760 16.992,10.747 17.320,10.715 17.320 C 10.668 17.320,10.594 17.252,9.345 16.069 C 8.283 15.063,7.897 14.734,7.610 14.593 C 7.366 14.472,7.355 14.471,7.110 14.518 C 6.743 14.590,6.502 14.707,6.324 14.901 C 6.169 15.068,6.040 15.381,6.040 15.586 C 6.040 15.754,6.198 16.098,6.398 16.363 C 6.780 16.871,10.378 20.448,11.238 21.176 C 11.542 21.433,11.775 21.540,12.025 21.538 C 12.457 21.534,12.805 21.231,15.461 18.555 C 17.417 16.585,17.837 16.118,17.920 15.819 C 18.005 15.517,17.875 15.104,17.608 14.825 C 17.403 14.612,17.254 14.559,16.783 14.532 L 16.376 14.509 15.999 14.824 C 15.579 15.176,14.921 15.798,13.890 16.817 L 13.200 17.499 13.200 10.354 L 13.200 3.209 12.954 2.981 C 12.539 2.596,12.442 2.547,12.067 2.532 C 11.853 2.523,11.687 2.538,11.588 2.575 " fill="#373B4D" stroke="none" fill-rule="evenodd"></path></svg>