<svg width="24" height="24" viewBox="0 0 24 24" fill="none" xmlns="http://www.w3.org/2000/svg"><path d="M10.800 2.602 C 9.953 2.652,9.188 2.852,8.279 3.261 C 6.771 3.938,5.535 4.887,4.488 6.170 C 3.517 7.359,2.767 9.091,2.533 10.680 C 2.428 11.395,2.439 12.868,2.554 13.500 C 2.856 15.155,3.599 16.799,4.565 17.948 C 4.922 18.373,5.698 19.144,6.080 19.452 C 6.934 20.141,8.561 20.975,9.600 21.255 C 10.436 21.481,10.632 21.500,12.100 21.497 L 13.460 21.494 14.014 21.346 C 15.888 20.845,17.402 20.015,18.653 18.802 C 19.696 17.790,20.318 16.838,20.913 15.340 C 21.339 14.268,21.411 13.950,21.483 12.820 C 21.537 11.953,21.512 10.911,21.423 10.380 C 21.183 8.955,20.388 7.240,19.397 6.013 C 18.128 4.440,15.991 3.130,14.061 2.740 C 13.262 2.578,12.060 2.527,10.800 2.602 M12.604 7.492 C 12.829 7.609,12.946 7.833,12.999 8.252 C 13.021 8.423,13.075 9.367,13.121 10.351 C 13.166 11.335,13.216 12.236,13.232 12.353 L 13.260 12.567 13.680 12.198 C 14.349 11.611,14.956 11.124,15.123 11.039 C 15.294 10.951,15.680 10.933,15.921 11.000 C 16.188 11.074,16.439 11.267,16.527 11.466 C 16.605 11.643,16.716 12.155,16.719 12.354 C 16.720 12.466,15.699 13.514,13.812 15.338 C 12.547 16.561,12.331 16.729,12.023 16.736 C 11.630 16.745,11.148 16.355,9.458 14.663 C 8.153 13.355,7.581 12.727,7.455 12.460 C 7.384 12.309,7.361 12.191,7.360 11.975 C 7.360 11.600,7.494 11.327,7.780 11.122 C 7.962 10.991,8.003 10.979,8.311 10.966 C 8.618 10.953,8.665 10.961,8.893 11.074 C 9.051 11.152,9.418 11.435,9.915 11.861 C 10.419 12.294,10.704 12.512,10.729 12.487 C 10.772 12.444,10.814 11.755,10.879 10.040 C 10.954 8.063,11.026 7.689,11.375 7.477 C 11.479 7.413,11.578 7.400,11.964 7.400 C 12.369 7.400,12.450 7.412,12.604 7.492 " fill="#373B4D" stroke="none" fill-rule="evenodd"></path></svg>