<svg width="24" height="24" viewBox="0 0 24 24" fill="none" xmlns="http://www.w3.org/2000/svg"><path d="M11.740 2.437 C 11.400 2.524,11.297 2.619,8.335 5.568 C 5.021 8.867,3.778 10.146,3.696 10.343 C 3.666 10.415,3.630 10.570,3.616 10.687 C 3.505 11.635,4.636 12.341,5.417 11.811 C 5.507 11.750,6.755 10.532,8.190 9.103 L 10.800 6.507 10.800 13.546 C 10.800 21.592,10.762 20.809,11.177 21.222 C 11.690 21.732,12.313 21.732,12.820 21.222 C 13.240 20.800,13.200 21.593,13.200 13.540 L 13.200 6.500 15.550 8.843 C 18.540 11.823,18.579 11.860,18.868 11.944 C 19.554 12.144,20.287 11.666,20.384 10.956 C 20.428 10.634,20.339 10.347,20.108 10.068 C 19.853 9.759,14.458 4.336,13.407 3.331 C 12.910 2.857,12.574 2.567,12.467 2.521 C 12.269 2.436,11.909 2.394,11.740 2.437 " fill="#373B4D" stroke="none" fill-rule="evenodd"></path></svg>