<svg width="24" height="24" viewBox="0 0 24 24" fill="none" xmlns="http://www.w3.org/2000/svg"><path d="M10.289 2.625 C 9.884 2.688,9.108 2.900,8.687 3.064 C 7.846 3.390,6.714 4.042,6.040 4.589 C 5.622 4.928,4.580 5.998,4.311 6.365 C 3.488 7.486,2.931 8.746,2.599 10.240 C 2.430 11.002,2.402 12.647,2.544 13.480 C 2.754 14.707,3.342 16.217,3.993 17.200 C 4.677 18.233,5.842 19.378,6.866 20.023 C 7.315 20.306,8.462 20.870,8.970 21.057 C 9.925 21.410,10.747 21.536,12.080 21.534 C 12.901 21.533,13.134 21.519,13.520 21.448 C 15.715 21.046,17.863 19.828,19.258 18.196 C 20.031 17.291,20.567 16.333,21.060 14.972 C 21.389 14.066,21.440 13.808,21.485 12.820 C 21.527 11.881,21.505 10.799,21.433 10.340 C 21.294 9.444,20.679 7.897,20.099 6.980 C 19.148 5.480,17.896 4.341,16.320 3.543 C 15.235 2.994,14.306 2.706,13.286 2.602 C 12.677 2.540,10.743 2.555,10.289 2.625 M12.327 7.401 C 12.621 7.483,12.996 7.798,14.133 8.918 C 15.460 10.225,16.185 10.993,16.465 11.385 C 16.657 11.654,16.660 11.663,16.660 11.959 C 16.660 12.330,16.591 12.484,16.212 12.960 C 15.900 13.352,13.762 15.507,13.080 16.116 C 12.398 16.727,12.168 16.823,11.718 16.683 C 11.241 16.535,10.991 16.226,10.939 15.718 C 10.907 15.405,10.962 15.170,11.121 14.939 C 11.259 14.738,11.817 14.106,12.290 13.615 L 12.641 13.251 12.491 13.226 C 12.408 13.212,11.809 13.200,11.160 13.200 C 9.830 13.199,8.257 13.138,8.040 13.080 C 7.830 13.023,7.581 12.791,7.455 12.534 C 7.307 12.232,7.294 11.745,7.428 11.500 C 7.523 11.325,7.675 11.151,7.812 11.062 C 7.980 10.952,8.709 10.905,11.560 10.819 C 12.350 10.796,12.560 10.776,12.560 10.726 C 12.560 10.711,12.315 10.429,12.015 10.099 C 11.012 8.996,11.000 8.976,11.000 8.368 C 11.000 7.949,11.004 7.927,11.124 7.747 C 11.311 7.464,11.513 7.361,11.880 7.361 C 12.045 7.361,12.246 7.379,12.327 7.401 " fill="#373B4D" stroke="none" fill-rule="evenodd"></path></svg>