<svg width="24" height="24" viewBox="0 0 24 24" fill="none" xmlns="http://www.w3.org/2000/svg"><path d="M14.926 6.318 C 14.632 6.563,14.488 6.835,14.457 7.202 C 14.422 7.623,14.448 7.657,16.327 9.617 C 16.895 10.210,17.360 10.707,17.360 10.723 C 17.360 10.778,16.437 10.801,12.560 10.841 C 7.574 10.892,4.153 10.952,3.529 11.001 C 3.249 11.023,2.989 11.065,2.924 11.098 C 2.789 11.168,2.585 11.475,2.524 11.700 C 2.463 11.924,2.469 12.257,2.538 12.421 C 2.617 12.610,2.807 12.839,3.048 13.035 L 3.251 13.200 10.370 13.200 L 17.490 13.200 16.662 14.044 C 15.696 15.030,14.761 16.036,14.616 16.246 C 14.538 16.359,14.509 16.460,14.492 16.691 C 14.460 17.113,14.494 17.243,14.697 17.469 C 14.892 17.685,15.165 17.850,15.447 17.921 C 15.840 18.020,16.109 17.837,17.373 16.616 C 18.758 15.278,21.152 12.813,21.324 12.547 C 21.407 12.419,21.506 12.236,21.542 12.139 C 21.609 11.965,21.609 11.963,21.490 11.712 C 21.424 11.573,21.248 11.316,21.097 11.140 C 20.737 10.719,17.568 7.526,16.890 6.901 C 16.282 6.341,16.083 6.217,15.696 6.161 C 15.222 6.093,15.188 6.100,14.926 6.318 " fill="#373B4D" stroke="none" fill-rule="evenodd"></path></svg>