<svg width="24" height="24" viewBox="0 0 24 24" fill="none" xmlns="http://www.w3.org/2000/svg"><path d="M10.460 2.556 C 8.397 2.940,6.796 3.749,5.385 5.120 C 4.496 5.984,3.882 6.821,3.377 7.860 C 2.066 10.554,2.096 13.601,3.462 16.323 C 4.177 17.749,5.334 19.053,6.680 19.949 C 7.607 20.566,8.758 21.065,9.980 21.380 C 10.692 21.563,12.698 21.607,13.602 21.459 C 14.327 21.340,15.373 20.991,16.183 20.597 C 17.678 19.870,19.020 18.714,19.908 17.388 C 20.322 16.768,20.870 15.645,21.111 14.919 C 21.413 14.007,21.475 13.692,21.529 12.787 C 21.595 11.660,21.531 10.569,21.360 9.900 C 21.053 8.702,20.624 7.713,19.996 6.757 C 18.554 4.560,16.139 2.990,13.567 2.575 C 13.303 2.532,12.811 2.507,12.020 2.497 C 11.015 2.484,10.807 2.492,10.460 2.556 M12.625 7.458 C 12.932 7.664,16.334 11.066,16.542 11.375 C 16.689 11.594,16.701 11.632,16.714 11.940 C 16.730 12.328,16.661 12.528,16.417 12.798 C 16.243 12.991,16.068 13.089,15.772 13.158 C 15.312 13.266,15.107 13.138,13.862 11.965 C 13.556 11.676,13.291 11.440,13.275 11.440 C 13.216 11.440,13.199 11.808,13.166 13.840 C 13.129 16.179,13.142 16.088,12.785 16.446 C 12.366 16.867,11.703 16.868,11.236 16.448 C 10.844 16.097,10.876 16.312,10.825 13.655 L 10.780 11.317 10.580 11.523 C 10.188 11.926,9.102 12.931,8.945 13.034 C 8.800 13.131,8.752 13.140,8.403 13.138 C 7.971 13.135,7.852 13.092,7.607 12.847 C 7.422 12.662,7.328 12.469,7.275 12.166 C 7.194 11.709,7.323 11.484,8.220 10.514 C 8.988 9.683,11.107 7.644,11.420 7.434 L 11.660 7.273 12.025 7.286 C 12.374 7.299,12.401 7.307,12.625 7.458 " fill="#373B4D" stroke="none" fill-rule="evenodd"></path></svg>