<svg width="24" height="24" viewBox="0 0 24 24" fill="none" xmlns="http://www.w3.org/2000/svg"><path d="M11.486 2.593 C 11.391 2.658,11.040 2.964,10.706 3.272 C 9.927 3.995,4.390 9.550,3.992 10.010 C 3.648 10.407,3.612 10.517,3.676 10.972 C 3.720 11.283,3.815 11.456,4.060 11.672 C 4.264 11.851,4.460 11.919,4.865 11.949 L 5.157 11.971 5.488 11.690 C 5.904 11.337,7.379 9.907,9.310 7.984 L 10.800 6.500 10.801 12.260 C 10.803 17.980,10.837 20.491,10.918 20.791 C 10.962 20.956,11.272 21.295,11.525 21.455 C 11.702 21.567,12.224 21.573,12.446 21.466 C 12.686 21.349,12.909 21.131,13.020 20.903 L 13.125 20.689 13.161 18.994 C 13.181 18.063,13.198 14.873,13.199 11.906 L 13.200 6.512 15.210 8.502 C 17.421 10.692,18.550 11.770,18.737 11.873 C 18.924 11.974,19.450 11.962,19.663 11.851 C 20.027 11.661,20.400 11.128,20.400 10.799 C 20.400 10.556,20.163 10.209,19.547 9.552 C 18.602 8.543,13.173 3.119,12.856 2.867 C 12.501 2.584,12.380 2.534,11.980 2.501 C 11.672 2.476,11.654 2.480,11.486 2.593 " fill="#373B4D" stroke="none" fill-rule="evenodd"></path></svg>