<svg width="24" height="24" viewBox="0 0 24 24" fill="none" xmlns="http://www.w3.org/2000/svg"><path d="M10.380 2.584 C 9.146 2.805,7.814 3.332,6.818 3.994 C 5.607 4.798,4.441 6.012,3.731 7.210 C 3.095 8.282,2.595 9.799,2.477 11.017 C 2.416 11.644,2.450 13.022,2.538 13.500 C 2.834 15.098,3.464 16.562,4.384 17.783 C 4.692 18.193,5.413 18.941,5.860 19.314 C 6.955 20.230,8.796 21.132,10.113 21.398 C 10.966 21.570,12.647 21.601,13.520 21.460 C 14.869 21.242,16.569 20.504,17.751 19.625 C 18.512 19.058,19.458 18.066,19.930 17.340 C 20.536 16.406,21.175 14.903,21.408 13.860 C 21.477 13.553,21.492 13.309,21.509 12.193 C 21.531 10.702,21.515 10.522,21.278 9.660 C 20.383 6.398,18.040 3.934,14.858 2.907 C 14.259 2.714,13.727 2.612,13.060 2.562 C 12.253 2.502,10.772 2.514,10.380 2.584 M12.598 7.454 C 12.682 7.509,12.820 7.640,12.905 7.744 L 13.060 7.932 13.073 8.376 L 13.086 8.820 12.889 9.080 C 12.708 9.320,11.684 10.440,11.486 10.616 C 11.329 10.755,11.375 10.800,11.670 10.800 C 12.295 10.799,15.175 10.885,15.583 10.917 C 16.177 10.963,16.364 11.066,16.573 11.460 C 16.689 11.680,16.698 12.350,16.587 12.554 C 16.467 12.774,16.183 13.031,16.008 13.078 C 15.731 13.153,14.549 13.199,12.907 13.199 L 11.314 13.200 11.916 13.830 C 12.553 14.498,12.919 14.934,13.019 15.144 C 13.112 15.340,13.102 15.921,13.002 16.116 C 12.822 16.469,12.350 16.762,11.963 16.759 C 11.589 16.757,11.187 16.425,9.375 14.620 C 7.471 12.723,7.314 12.524,7.305 12.006 C 7.299 11.702,7.365 11.546,7.669 11.143 C 7.889 10.853,10.648 8.085,11.091 7.711 C 11.544 7.329,11.586 7.313,12.053 7.334 C 12.387 7.350,12.468 7.368,12.598 7.454 " fill="#373B4D" stroke="none" fill-rule="evenodd"></path></svg>