<svg width="24" height="24" viewBox="0 0 24 24" fill="none" xmlns="http://www.w3.org/2000/svg"><path d="M10.800 2.560 C 9.246 2.685,7.471 3.441,6.040 4.585 C 5.599 4.937,4.771 5.770,4.440 6.194 C 3.480 7.422,2.855 8.853,2.533 10.560 C 2.444 11.034,2.431 12.733,2.513 13.300 C 2.652 14.269,3.083 15.571,3.565 16.480 C 3.987 17.275,4.415 17.854,5.100 18.555 C 6.022 19.499,6.625 19.943,7.760 20.518 C 9.182 21.237,10.130 21.486,11.668 21.544 C 12.869 21.589,13.772 21.467,14.800 21.121 C 16.055 20.698,17.043 20.168,18.000 19.405 C 19.520 18.193,20.455 16.796,21.163 14.680 C 21.468 13.769,21.494 13.558,21.497 12.000 C 21.500 10.529,21.486 10.391,21.255 9.591 C 20.689 7.634,19.633 5.982,18.143 4.724 C 16.822 3.609,14.953 2.773,13.400 2.604 C 12.865 2.546,11.301 2.519,10.800 2.560 M12.550 7.466 C 12.672 7.524,12.818 7.637,12.901 7.738 C 13.040 7.908,13.043 7.919,13.067 8.372 L 13.092 8.832 12.786 9.193 C 12.618 9.391,12.247 9.808,11.960 10.120 C 11.674 10.431,11.440 10.701,11.440 10.720 C 11.440 10.779,11.715 10.798,13.160 10.839 C 15.383 10.902,15.979 10.946,16.202 11.061 C 16.496 11.213,16.640 11.540,16.640 12.057 C 16.640 12.448,16.606 12.547,16.390 12.783 C 16.235 12.953,16.147 13.013,15.986 13.060 C 15.669 13.152,14.614 13.199,12.886 13.200 L 11.311 13.200 11.743 13.650 C 12.625 14.570,12.965 15.000,13.044 15.296 C 13.106 15.526,13.055 15.988,12.947 16.181 C 12.766 16.504,12.239 16.792,11.911 16.748 C 11.549 16.699,10.990 16.228,9.341 14.580 C 8.246 13.486,7.623 12.807,7.447 12.515 C 7.374 12.394,7.360 12.310,7.360 11.993 C 7.360 11.645,7.369 11.602,7.475 11.438 C 7.711 11.073,9.098 9.615,10.298 8.470 C 11.215 7.596,11.415 7.432,11.643 7.367 C 11.861 7.305,12.312 7.354,12.550 7.466 " fill="#373B4D" stroke="none" fill-rule="evenodd"></path></svg>