<svg width="24" height="24" viewBox="0 0 24 24" fill="none" xmlns="http://www.w3.org/2000/svg"><path d="M12.562 6.275 C 12.442 6.365,12.295 6.512,12.235 6.601 C 12.040 6.891,11.984 7.374,12.116 7.632 C 12.216 7.828,12.843 8.512,14.078 9.770 L 15.088 10.800 14.754 10.799 C 14.570 10.799,12.431 10.819,10.000 10.844 L 5.580 10.890 5.460 10.980 C 5.066 11.273,4.859 11.635,4.866 12.020 C 4.873 12.402,5.029 12.677,5.430 13.010 L 5.659 13.200 10.374 13.200 L 15.089 13.200 14.137 14.170 C 13.079 15.248,12.395 15.988,12.217 16.244 C 12.111 16.397,12.099 16.448,12.087 16.797 C 12.073 17.178,12.074 17.183,12.209 17.378 C 12.375 17.619,12.656 17.819,12.948 17.904 C 13.402 18.036,13.608 17.926,14.524 17.064 C 15.503 16.142,18.483 13.134,18.770 12.778 C 19.004 12.486,19.199 12.123,19.200 11.976 C 19.200 11.804,18.949 11.406,18.571 10.980 C 18.086 10.433,14.943 7.288,14.320 6.725 C 14.067 6.496,13.788 6.277,13.700 6.237 C 13.606 6.195,13.383 6.154,13.160 6.138 L 12.780 6.111 12.562 6.275 " fill="#373B4D" stroke="none" fill-rule="evenodd"></path></svg>