<svg width="24" height="24" viewBox="0 0 24 24" fill="none" xmlns="http://www.w3.org/2000/svg"><path d="M12.820 6.151 C 12.644 6.188,12.326 6.485,12.188 6.740 C 12.119 6.868,12.102 6.969,12.101 7.243 C 12.100 7.552,12.111 7.602,12.209 7.744 C 12.327 7.915,12.750 8.372,14.110 9.800 C 14.600 10.314,15.000 10.746,15.000 10.761 C 15.000 10.800,12.895 10.837,8.987 10.867 L 5.515 10.893 5.256 11.195 C 4.731 11.807,4.755 12.267,5.342 12.910 L 5.606 13.200 10.348 13.200 L 15.089 13.200 14.315 13.992 C 12.738 15.605,12.217 16.196,12.137 16.465 C 11.955 17.068,12.165 17.498,12.800 17.820 C 13.207 18.027,13.478 17.956,14.007 17.504 C 14.781 16.844,18.037 13.587,18.707 12.804 C 19.194 12.234,19.258 11.949,18.989 11.546 C 18.777 11.229,17.989 10.391,16.519 8.921 C 14.999 7.401,14.072 6.524,13.809 6.357 C 13.590 6.218,13.044 6.104,12.820 6.151 " fill="#373B4D" stroke="none" fill-rule="evenodd"></path></svg>