<svg width="24" height="24" viewBox="0 0 24 24" fill="none" xmlns="http://www.w3.org/2000/svg"><path d="M15.180 6.122 C 15.010 6.174,14.698 6.454,14.573 6.668 C 14.480 6.828,14.466 6.895,14.463 7.218 L 14.460 7.586 14.629 7.810 C 14.835 8.083,15.450 8.732,16.617 9.910 L 17.499 10.800 15.960 10.801 C 13.006 10.802,4.773 10.881,3.924 10.917 C 3.072 10.953,3.068 10.953,2.904 11.068 C 2.790 11.148,2.697 11.267,2.600 11.458 C 2.476 11.701,2.460 11.766,2.461 12.036 C 2.462 12.269,2.482 12.377,2.548 12.500 C 2.631 12.656,2.902 12.939,3.135 13.113 L 3.251 13.200 10.370 13.200 L 17.489 13.200 16.357 14.350 C 15.133 15.594,14.643 16.133,14.531 16.357 C 14.481 16.458,14.460 16.593,14.460 16.820 C 14.460 17.097,14.475 17.165,14.570 17.327 C 14.898 17.885,15.522 18.111,16.033 17.856 C 16.161 17.792,16.471 17.538,16.831 17.202 C 17.742 16.351,20.908 13.141,21.211 12.760 C 21.546 12.340,21.640 12.089,21.567 11.814 C 21.462 11.423,21.149 11.077,18.695 8.637 C 16.752 6.707,16.285 6.270,16.063 6.180 C 15.899 6.113,15.331 6.076,15.180 6.122 " fill="#373B4D" stroke="none" fill-rule="evenodd"></path></svg>