<svg width="24" height="24" viewBox="0 0 24 24" fill="none" xmlns="http://www.w3.org/2000/svg"><path d="M11.493 4.984 C 11.309 5.075,11.059 5.299,10.955 5.467 C 10.870 5.606,10.864 5.668,10.835 6.737 C 10.819 7.355,10.802 9.417,10.798 11.320 C 10.794 13.223,10.779 14.833,10.765 14.899 C 10.740 15.015,10.721 14.999,9.640 13.954 C 8.225 12.586,7.955 12.347,7.647 12.193 C 7.397 12.067,7.393 12.067,7.097 12.113 C 6.548 12.198,6.219 12.448,6.094 12.877 C 6.007 13.173,6.044 13.436,6.208 13.708 C 6.417 14.053,7.037 14.710,8.784 16.440 C 10.571 18.210,11.374 18.959,11.596 19.065 C 11.778 19.152,12.225 19.150,12.412 19.061 C 12.612 18.966,12.952 18.655,14.660 16.998 C 16.218 15.486,17.327 14.342,17.663 13.896 C 18.109 13.305,18.029 12.693,17.450 12.276 C 17.265 12.144,17.248 12.140,16.818 12.127 L 16.376 12.114 16.045 12.381 C 15.680 12.676,15.037 13.282,13.930 14.377 L 13.200 15.099 13.200 10.354 L 13.200 5.609 12.863 5.290 C 12.640 5.078,12.484 4.963,12.398 4.946 C 12.153 4.897,11.626 4.919,11.493 4.984 " fill="#373B4D" stroke="none" fill-rule="evenodd"></path></svg>