<svg width="24" height="24" viewBox="0 0 24 24" fill="none" xmlns="http://www.w3.org/2000/svg"><path d="M6.356 3.681 C 5.529 3.697,4.733 3.722,4.586 3.738 C 4.264 3.772,4.012 3.927,3.801 4.221 L 3.663 4.414 3.634 5.117 C 3.619 5.504,3.605 6.747,3.603 7.880 L 3.601 9.940 3.730 10.103 C 3.926 10.349,4.126 10.509,4.384 10.627 C 4.869 10.849,5.170 10.784,5.601 10.362 C 5.902 10.067,5.947 9.915,5.979 9.092 C 6.016 8.092,6.039 7.874,6.102 7.888 C 6.132 7.894,6.657 8.379,7.268 8.965 C 8.830 10.461,9.064 10.658,9.352 10.723 C 9.514 10.759,9.851 10.721,10.053 10.643 C 10.516 10.465,10.825 9.887,10.722 9.390 C 10.647 9.031,10.277 8.600,8.503 6.810 L 7.701 6.000 8.500 5.999 C 9.290 5.998,9.728 5.962,9.999 5.873 C 10.173 5.816,10.541 5.471,10.653 5.260 C 10.772 5.035,10.771 4.603,10.651 4.375 C 10.534 4.155,10.383 3.980,10.148 3.794 L 9.953 3.640 8.906 3.647 C 8.331 3.650,7.183 3.666,6.356 3.681 M14.577 3.758 C 13.919 3.779,13.888 3.784,13.730 3.888 C 13.437 4.083,13.240 4.441,13.240 4.779 C 13.240 5.178,13.529 5.641,13.888 5.815 C 14.151 5.942,14.693 6.000,15.635 6.000 L 16.289 6.000 15.277 7.030 C 14.044 8.285,13.465 8.924,13.354 9.153 C 13.284 9.296,13.273 9.378,13.288 9.633 C 13.309 9.993,13.392 10.192,13.613 10.413 C 13.833 10.633,14.083 10.736,14.401 10.738 C 14.631 10.740,14.691 10.723,14.893 10.600 C 15.174 10.431,15.728 9.932,16.936 8.765 C 17.440 8.278,17.877 7.880,17.906 7.880 C 17.936 7.880,17.960 7.912,17.960 7.950 C 17.960 7.989,17.979 8.407,18.001 8.880 C 18.053 9.947,18.086 10.078,18.372 10.349 C 18.689 10.649,18.882 10.737,19.220 10.739 C 19.576 10.740,19.764 10.637,20.135 10.236 L 20.400 9.950 20.400 8.045 C 20.400 6.997,20.388 5.744,20.373 5.260 L 20.347 4.380 20.022 4.050 L 19.698 3.720 17.479 3.728 C 16.259 3.732,14.953 3.746,14.577 3.758 M13.793 13.452 C 13.257 13.817,13.088 14.447,13.397 14.927 C 13.544 15.155,14.101 15.764,15.257 16.959 C 16.029 17.758,16.189 17.942,16.130 17.964 C 16.090 17.979,15.707 18.012,15.278 18.038 C 14.289 18.097,13.933 18.146,13.769 18.247 C 13.491 18.418,13.240 18.881,13.240 19.222 C 13.240 19.543,13.504 19.975,13.868 20.249 L 14.085 20.413 16.712 20.386 C 18.158 20.371,19.409 20.343,19.493 20.323 C 19.711 20.272,19.943 20.098,20.187 19.802 L 20.400 19.544 20.399 17.642 C 20.398 16.596,20.381 15.363,20.360 14.902 C 20.316 13.910,20.285 13.817,19.903 13.521 L 19.671 13.340 19.225 13.340 C 18.884 13.340,18.751 13.356,18.658 13.407 C 18.472 13.509,18.200 13.790,18.134 13.949 C 18.072 14.096,18.018 14.665,17.976 15.610 C 17.963 15.912,17.938 16.160,17.920 16.160 C 17.903 16.160,17.495 15.780,17.014 15.315 C 15.947 14.284,15.260 13.653,15.040 13.500 C 14.867 13.380,14.498 13.282,14.213 13.281 C 14.080 13.280,13.992 13.316,13.793 13.452 M4.140 13.490 C 3.815 13.732,3.733 13.829,3.677 14.040 C 3.644 14.167,3.624 15.001,3.612 16.880 L 3.594 19.540 3.810 19.800 C 4.058 20.099,4.289 20.272,4.507 20.323 C 4.591 20.343,5.852 20.371,7.308 20.386 L 9.956 20.413 10.258 20.111 C 10.618 19.751,10.730 19.532,10.731 19.183 C 10.734 18.629,10.370 18.207,9.814 18.120 C 9.685 18.100,9.202 18.063,8.740 18.039 C 8.278 18.014,7.884 17.978,7.864 17.959 C 7.828 17.924,7.965 17.773,9.377 16.293 C 10.538 15.076,10.839 14.657,10.786 14.330 C 10.737 14.029,10.443 13.589,10.172 13.411 C 10.120 13.377,9.932 13.345,9.704 13.331 C 9.102 13.295,9.062 13.323,7.400 14.917 C 6.322 15.952,6.079 16.172,6.048 16.141 C 6.033 16.127,6.011 15.671,5.997 15.128 C 5.969 14.012,5.955 13.952,5.673 13.677 C 5.417 13.427,5.210 13.347,4.760 13.328 L 4.380 13.312 4.140 13.490 " fill="#373B4D" stroke="none" fill-rule="evenodd"></path></svg>