<svg width="24" height="24" viewBox="0 0 24 24" fill="none" xmlns="http://www.w3.org/2000/svg"><path d="M11.520 2.543 C 11.358 2.613,10.984 2.965,10.887 3.140 C 10.825 3.251,10.819 3.811,10.809 10.379 L 10.798 17.498 9.069 15.775 C 6.740 13.455,5.763 12.514,5.446 12.289 C 5.195 12.110,5.166 12.099,4.881 12.086 C 4.502 12.070,4.208 12.171,3.968 12.401 C 3.532 12.820,3.496 13.338,3.868 13.849 C 4.066 14.122,10.434 20.530,11.020 21.046 C 11.505 21.474,11.714 21.574,12.076 21.553 C 12.319 21.540,12.382 21.518,12.587 21.381 C 12.837 21.213,18.922 15.178,19.705 14.321 C 20.229 13.749,20.360 13.526,20.360 13.207 C 20.360 12.858,20.288 12.685,20.042 12.438 C 19.737 12.133,19.607 12.080,19.170 12.080 L 18.812 12.080 18.550 12.278 C 18.240 12.513,17.114 13.602,14.850 15.856 L 13.200 17.500 13.200 10.370 L 13.200 3.241 12.987 2.990 C 12.748 2.709,12.577 2.580,12.365 2.521 C 12.151 2.461,11.681 2.474,11.520 2.543 " fill="#373B4D" stroke="none" fill-rule="evenodd"></path></svg>