<svg width="24" height="24" viewBox="0 0 24 24" fill="none" xmlns="http://www.w3.org/2000/svg"><path d="M11.698 2.555 C 11.477 2.594,11.277 2.725,11.047 2.984 L 10.853 3.201 10.827 5.271 C 10.812 6.409,10.800 8.843,10.800 10.680 C 10.800 12.517,10.788 14.788,10.773 15.727 L 10.747 17.434 8.804 15.522 C 6.087 12.851,5.553 12.362,5.160 12.187 C 5.001 12.116,4.948 12.112,4.699 12.148 C 4.544 12.170,4.346 12.222,4.259 12.263 C 3.867 12.449,3.603 12.890,3.655 13.271 C 3.688 13.506,3.809 13.709,4.142 14.080 C 4.755 14.765,7.727 17.793,9.158 19.189 C 11.436 21.411,11.587 21.537,11.978 21.537 C 12.285 21.537,12.489 21.413,13.104 20.850 C 13.845 20.172,16.731 17.308,18.579 15.417 C 20.172 13.787,20.270 13.664,20.311 13.241 C 20.338 12.962,20.227 12.665,20.019 12.456 C 19.825 12.262,19.519 12.148,19.069 12.099 L 18.800 12.071 18.491 12.345 C 17.916 12.856,16.668 14.059,14.930 15.778 L 13.200 17.489 13.200 10.348 L 13.200 3.207 12.930 2.959 C 12.782 2.823,12.597 2.680,12.520 2.640 C 12.358 2.558,11.934 2.513,11.698 2.555 " fill="#373B4D" stroke="none" fill-rule="evenodd"></path></svg>