<svg width="24" height="24" viewBox="0 0 24 24" fill="none" xmlns="http://www.w3.org/2000/svg"><path d="M10.471 3.710 C 10.351 3.722,10.250 3.789,9.951 4.055 C 8.942 4.954,3.474 10.420,2.800 11.204 C 2.500 11.552,2.440 11.684,2.440 11.996 C 2.440 12.290,2.479 12.396,2.682 12.656 C 3.132 13.232,8.762 18.876,9.850 19.841 C 10.350 20.285,10.458 20.340,10.820 20.338 C 11.153 20.337,11.356 20.246,11.621 19.982 C 11.859 19.743,11.930 19.588,11.952 19.253 C 11.967 19.017,11.955 18.935,11.885 18.791 C 11.772 18.557,11.005 17.742,8.625 15.324 C 7.533 14.216,6.640 13.296,6.640 13.281 C 6.640 13.251,13.805 13.200,18.071 13.200 L 20.729 13.200 20.924 13.057 C 21.333 12.757,21.560 12.387,21.560 12.020 C 21.560 11.667,21.290 11.165,21.028 11.029 C 20.800 10.911,20.011 10.890,13.900 10.842 C 8.055 10.796,6.629 10.772,6.648 10.716 C 6.655 10.697,7.606 9.714,8.762 8.531 C 11.532 5.695,11.762 5.449,11.885 5.180 C 11.976 4.982,11.980 4.721,11.897 4.441 C 11.816 4.169,11.489 3.826,11.256 3.767 C 11.063 3.719,10.670 3.690,10.471 3.710 " fill="#373B4D" stroke="none" fill-rule="evenodd"></path></svg>