<svg width="24" height="24" viewBox="0 0 24 24" fill="none" xmlns="http://www.w3.org/2000/svg"><path d="M8.036 8.345 C 5.612 10.756,5.133 11.264,4.975 11.586 C 4.854 11.834,4.837 12.157,4.935 12.363 C 5.050 12.606,5.740 13.340,7.620 15.223 C 9.900 17.506,10.265 17.831,10.640 17.915 C 10.839 17.960,11.165 17.893,11.374 17.764 C 11.709 17.557,11.961 17.126,11.959 16.765 C 11.958 16.580,11.838 16.315,11.649 16.082 C 11.415 15.793,10.610 14.935,9.725 14.032 L 8.910 13.200 13.651 13.200 L 18.393 13.200 18.660 12.911 C 18.997 12.547,19.087 12.372,19.111 12.033 C 19.127 11.811,19.115 11.735,19.037 11.574 C 18.912 11.316,18.645 11.055,18.454 11.004 C 18.256 10.952,16.108 10.892,12.620 10.841 C 9.808 10.799,9.258 10.780,9.160 10.720 C 9.091 10.677,9.205 10.542,10.240 9.440 C 11.686 7.901,11.859 7.691,11.925 7.398 C 11.998 7.075,11.777 6.531,11.490 6.327 C 11.337 6.218,11.125 6.169,10.672 6.137 L 10.283 6.109 8.036 8.345 " fill="#373B4D" stroke="none" fill-rule="evenodd"></path></svg>