<svg width="24" height="24" viewBox="0 0 24 24" fill="none" xmlns="http://www.w3.org/2000/svg"><path d="M10.380 2.584 C 9.146 2.805,7.814 3.332,6.818 3.994 C 5.607 4.798,4.441 6.012,3.731 7.210 C 3.095 8.282,2.595 9.799,2.477 11.017 C 2.416 11.644,2.450 13.022,2.538 13.500 C 2.834 15.098,3.464 16.562,4.384 17.783 C 4.692 18.193,5.413 18.941,5.860 19.314 C 6.955 20.230,8.796 21.132,10.113 21.398 C 10.966 21.570,12.647 21.601,13.520 21.460 C 14.869 21.242,16.569 20.504,17.751 19.625 C 18.512 19.058,19.458 18.066,19.930 17.340 C 20.536 16.406,21.175 14.903,21.408 13.860 C 21.477 13.553,21.492 13.309,21.509 12.193 C 21.531 10.702,21.515 10.522,21.278 9.660 C 20.383 6.398,18.040 3.934,14.858 2.907 C 14.259 2.714,13.727 2.612,13.060 2.562 C 12.253 2.502,10.772 2.514,10.380 2.584 M12.437 7.366 C 12.594 7.426,12.915 7.714,13.875 8.659 C 15.203 9.966,16.506 11.335,16.605 11.529 C 16.797 11.904,16.682 12.512,16.357 12.837 C 16.219 12.975,15.922 13.127,15.693 13.177 C 15.395 13.242,15.018 13.018,14.243 12.315 C 13.511 11.650,13.311 11.481,13.279 11.501 C 13.221 11.537,13.200 11.881,13.159 13.520 C 13.107 15.609,13.076 15.991,12.940 16.224 C 12.777 16.501,12.456 16.708,12.128 16.746 C 11.800 16.785,11.245 16.527,11.043 16.244 C 10.929 16.085,10.895 15.603,10.838 13.420 C 10.813 12.452,10.781 11.601,10.766 11.528 L 10.740 11.396 10.020 12.063 C 9.624 12.430,9.203 12.814,9.084 12.915 L 8.868 13.100 8.507 13.114 C 8.084 13.131,7.892 13.083,7.698 12.913 C 7.442 12.688,7.346 12.471,7.327 12.075 C 7.307 11.645,7.361 11.513,7.748 11.054 C 8.363 10.326,10.887 7.853,11.440 7.439 L 11.660 7.274 11.999 7.301 C 12.185 7.316,12.382 7.346,12.437 7.366 " fill="#373B4D" stroke="none" fill-rule="evenodd"></path></svg>