<svg width="24" height="24" viewBox="0 0 24 24" fill="none" xmlns="http://www.w3.org/2000/svg"><path d="M10.680 2.562 C 9.847 2.629,8.634 3.012,7.629 3.528 C 6.202 4.260,4.700 5.649,3.844 7.030 C 3.150 8.149,2.629 9.657,2.483 10.968 C 2.393 11.782,2.448 13.117,2.601 13.808 C 2.934 15.313,3.521 16.620,4.374 17.760 C 4.745 18.256,5.679 19.189,6.160 19.545 C 7.337 20.416,8.933 21.157,10.160 21.403 C 10.776 21.526,11.996 21.584,12.790 21.528 C 13.767 21.459,14.413 21.305,15.429 20.897 C 17.178 20.195,18.614 19.108,19.703 17.660 C 20.334 16.821,21.026 15.314,21.362 14.047 C 21.467 13.651,21.517 12.929,21.518 11.780 C 21.520 10.756,21.475 10.352,21.285 9.680 C 20.787 7.921,19.954 6.474,18.748 5.274 C 17.986 4.515,17.233 3.978,16.240 3.485 C 15.354 3.044,14.574 2.780,13.756 2.644 C 13.093 2.533,11.552 2.492,10.680 2.562 M12.500 7.440 C 12.755 7.564,13.337 8.094,14.561 9.320 C 15.892 10.653,16.430 11.246,16.605 11.576 C 16.729 11.809,16.731 11.819,16.689 12.089 C 16.631 12.469,16.485 12.691,15.837 13.393 C 15.221 14.058,13.433 15.824,12.921 16.271 C 12.390 16.735,12.183 16.811,11.755 16.702 C 11.433 16.620,11.237 16.484,11.076 16.233 C 10.962 16.057,10.947 15.995,10.929 15.664 C 10.914 15.373,10.924 15.264,10.976 15.155 C 11.080 14.934,11.436 14.509,12.079 13.835 L 12.676 13.211 10.608 13.188 C 9.471 13.175,8.405 13.146,8.240 13.123 C 7.868 13.070,7.687 12.951,7.488 12.627 C 7.358 12.416,7.343 12.361,7.328 12.043 C 7.309 11.645,7.349 11.521,7.587 11.243 C 7.801 10.993,7.895 10.960,8.532 10.919 C 9.130 10.880,11.600 10.801,12.230 10.800 C 12.470 10.800,12.600 10.785,12.600 10.756 C 12.600 10.732,12.352 10.449,12.050 10.126 C 10.992 9.000,10.960 8.950,10.960 8.418 C 10.960 8.102,10.976 7.992,11.043 7.853 C 11.142 7.649,11.442 7.372,11.593 7.346 C 11.811 7.308,12.339 7.362,12.500 7.440 " fill="#373B4D" stroke="none" fill-rule="evenodd"></path></svg>