<svg width="24" height="24" viewBox="0 0 24 24" fill="none" xmlns="http://www.w3.org/2000/svg"><path d="M11.000 2.463 C 8.701 2.737,6.759 3.671,5.175 5.265 C 2.751 7.704,1.820 11.347,2.781 14.634 C 3.551 17.270,5.288 19.358,7.732 20.586 C 8.548 20.996,9.533 21.315,10.507 21.484 C 10.943 21.559,11.167 21.573,12.000 21.573 C 12.833 21.573,13.057 21.559,13.493 21.484 C 16.681 20.930,19.280 18.988,20.644 16.140 C 20.953 15.495,21.137 14.984,21.320 14.263 C 21.528 13.445,21.573 13.025,21.570 11.920 C 21.567 11.152,21.552 10.892,21.483 10.500 C 21.304 9.479,21.026 8.628,20.573 7.714 C 19.332 5.208,17.068 3.393,14.321 2.701 C 13.686 2.541,13.242 2.480,12.412 2.440 C 11.490 2.395,11.587 2.393,11.000 2.463 M12.503 7.338 C 12.742 7.445,12.965 7.663,13.082 7.903 C 13.163 8.072,13.166 8.147,13.189 10.378 L 13.213 12.680 13.996 11.908 C 14.427 11.484,14.870 11.074,14.980 10.998 C 15.161 10.873,15.211 10.859,15.509 10.846 C 16.066 10.822,16.401 10.997,16.633 11.434 C 16.746 11.644,16.760 11.708,16.760 11.997 C 16.760 12.415,16.711 12.512,16.227 13.045 C 15.703 13.624,12.814 16.476,12.616 16.611 C 12.266 16.849,11.734 16.849,11.384 16.611 C 11.186 16.476,8.297 13.624,7.773 13.045 C 7.273 12.494,7.229 12.403,7.246 11.964 C 7.266 11.470,7.421 11.189,7.798 10.968 C 7.947 10.880,8.037 10.860,8.344 10.847 C 8.689 10.832,8.726 10.838,8.925 10.945 C 9.065 11.021,9.420 11.337,9.969 11.875 L 10.800 12.691 10.801 10.695 C 10.803 8.033,10.817 7.903,11.153 7.567 C 11.510 7.210,12.021 7.124,12.503 7.338 " fill="#373B4D" stroke="none" fill-rule="evenodd"></path></svg>