<svg width="24" height="24" viewBox="0 0 24 24" fill="none" xmlns="http://www.w3.org/2000/svg"><path d="M10.451 3.757 C 10.380 3.775,10.281 3.816,10.231 3.849 C 9.992 4.006,8.754 5.206,6.340 7.620 C 3.567 10.394,2.626 11.375,2.535 11.589 C 2.460 11.765,2.464 12.253,2.541 12.402 C 2.575 12.468,2.712 12.648,2.845 12.802 C 3.505 13.569,9.044 19.103,9.889 19.839 C 10.355 20.246,10.465 20.300,10.820 20.300 C 11.161 20.300,11.341 20.221,11.612 19.951 C 11.849 19.715,11.929 19.531,11.932 19.219 C 11.937 18.721,11.938 18.722,7.967 14.649 C 7.275 13.939,6.719 13.348,6.731 13.335 C 6.761 13.305,11.216 13.253,16.540 13.219 L 20.780 13.193 21.064 12.902 C 21.553 12.400,21.646 12.061,21.426 11.580 C 21.291 11.287,21.110 11.092,20.922 11.039 C 20.694 10.975,18.937 10.925,15.320 10.881 C 8.444 10.796,6.720 10.757,6.720 10.689 C 6.720 10.662,6.776 10.603,8.820 8.480 C 11.719 5.469,11.829 5.346,11.920 5.021 C 12.046 4.570,11.690 3.929,11.242 3.801 C 11.049 3.745,10.595 3.720,10.451 3.757 " fill="#373B4D" stroke="none" fill-rule="evenodd"></path></svg>