<svg width="24" height="24" viewBox="0 0 24 24" fill="none" xmlns="http://www.w3.org/2000/svg"><path d="M7.797 8.590 C 6.446 9.949,5.259 11.173,5.160 11.311 C 4.939 11.620,4.887 11.757,4.883 12.042 C 4.879 12.327,4.966 12.467,5.530 13.084 C 6.125 13.736,9.207 16.818,9.755 17.310 C 10.426 17.912,10.702 18.017,11.183 17.853 C 11.456 17.760,11.761 17.448,11.874 17.147 C 11.975 16.876,11.981 16.749,11.902 16.525 C 11.783 16.189,11.548 15.917,9.932 14.250 L 8.914 13.200 13.654 13.200 L 18.394 13.200 18.658 12.910 C 18.978 12.559,19.084 12.353,19.108 12.027 C 19.131 11.725,19.064 11.548,18.830 11.294 C 18.622 11.068,18.521 11.017,18.220 10.986 C 17.884 10.951,15.355 10.888,12.380 10.840 C 9.604 10.795,9.204 10.777,9.172 10.694 C 9.146 10.626,9.310 10.434,10.240 9.440 C 11.502 8.091,11.803 7.741,11.888 7.521 C 11.988 7.262,11.881 6.787,11.657 6.493 C 11.516 6.307,11.298 6.215,10.881 6.162 C 10.217 6.079,10.575 5.798,7.797 8.590 " fill="#373B4D" stroke="none" fill-rule="evenodd"></path></svg>