<svg width="24" height="24" viewBox="0 0 24 24" fill="none" xmlns="http://www.w3.org/2000/svg"><path d="M9.999 6.409 C 9.425 6.912,7.058 9.229,6.159 10.169 C 5.003 11.377,4.837 11.610,4.832 12.028 C 4.829 12.296,4.923 12.455,5.405 13.000 C 5.926 13.588,9.639 17.296,9.984 17.572 C 10.140 17.697,10.355 17.838,10.461 17.884 C 10.917 18.086,11.532 17.835,11.831 17.325 C 11.925 17.165,11.940 17.096,11.940 16.820 C 11.940 16.544,11.925 16.475,11.831 16.316 C 11.674 16.047,11.175 15.501,9.974 14.280 L 8.910 13.200 13.625 13.200 L 18.340 13.200 18.560 13.027 C 18.681 12.932,18.852 12.750,18.940 12.622 C 19.088 12.407,19.101 12.368,19.114 12.069 C 19.122 11.892,19.108 11.678,19.083 11.593 C 19.023 11.395,18.626 10.982,18.460 10.947 C 18.225 10.898,15.729 10.844,12.370 10.817 C 10.494 10.802,8.960 10.781,8.960 10.771 C 8.960 10.760,9.386 10.316,9.907 9.785 C 11.155 8.513,11.739 7.867,11.861 7.624 C 12.092 7.158,11.885 6.531,11.406 6.250 C 11.240 6.152,11.173 6.139,10.779 6.126 L 10.339 6.112 9.999 6.409 " fill="#373B4D" stroke="none" fill-rule="evenodd"></path></svg>