<svg width="24" height="24" viewBox="0 0 24 24" fill="none" xmlns="http://www.w3.org/2000/svg"><path d="M11.394 2.695 C 10.960 3.021,7.698 6.257,6.528 7.523 C 6.303 7.766,6.040 8.229,6.040 8.381 C 6.040 8.566,6.206 8.918,6.388 9.120 C 6.614 9.372,6.824 9.483,7.127 9.510 C 7.584 9.551,7.841 9.359,9.656 7.617 C 10.181 7.113,10.643 6.678,10.681 6.651 C 10.747 6.605,10.752 6.670,10.775 7.771 C 10.788 8.414,10.809 11.318,10.821 14.224 C 10.844 19.493,10.864 20.425,10.963 20.754 C 11.030 20.979,11.296 21.272,11.566 21.420 C 11.972 21.642,12.368 21.547,12.799 21.124 C 12.955 20.971,13.036 20.856,13.055 20.760 C 13.120 20.444,13.158 18.222,13.184 13.280 C 13.198 10.409,13.222 7.727,13.236 7.320 L 13.262 6.580 13.941 7.242 C 16.014 9.264,16.383 9.551,16.854 9.512 C 17.412 9.466,17.935 8.918,17.935 8.380 C 17.935 7.994,17.813 7.840,16.126 6.092 C 15.024 4.951,13.342 3.325,12.880 2.955 C 12.523 2.669,12.345 2.598,11.928 2.575 C 11.580 2.556,11.580 2.556,11.394 2.695 " fill="#373B4D" stroke="none" fill-rule="evenodd"></path></svg>