<svg width="24" height="24" viewBox="0 0 24 24" fill="none" xmlns="http://www.w3.org/2000/svg"><path d="M11.740 4.837 C 11.405 4.923,11.294 5.022,9.275 7.028 C 6.986 9.302,6.181 10.143,6.089 10.355 C 6.051 10.441,6.025 10.622,6.023 10.800 C 6.019 11.155,6.113 11.383,6.365 11.635 C 6.614 11.885,6.845 11.980,7.200 11.980 C 7.696 11.980,7.713 11.967,9.349 10.346 L 10.800 8.908 10.800 13.547 C 10.800 18.872,10.767 18.415,11.177 18.822 C 11.690 19.332,12.313 19.332,12.820 18.822 C 13.234 18.406,13.200 18.868,13.200 13.544 L 13.200 8.908 14.650 10.346 C 16.285 11.967,16.302 11.980,16.800 11.980 C 17.155 11.980,17.386 11.885,17.635 11.635 C 17.887 11.383,17.981 11.155,17.977 10.800 C 17.975 10.621,17.949 10.441,17.911 10.355 C 17.820 10.145,16.959 9.246,14.713 7.017 C 12.574 4.893,12.545 4.869,12.080 4.827 C 11.959 4.816,11.806 4.820,11.740 4.837 " fill="#373B4D" stroke="none" fill-rule="evenodd"></path></svg>