<svg width="24" height="24" viewBox="0 0 24 24" fill="none" xmlns="http://www.w3.org/2000/svg"><path d="M10.780 2.522 C 9.848 2.624,8.586 3.017,7.649 3.498 C 6.239 4.220,4.873 5.459,3.942 6.860 C 3.237 7.919,2.668 9.464,2.501 10.772 C 2.431 11.317,2.420 12.576,2.481 13.081 C 2.696 14.862,3.457 16.662,4.570 18.020 C 4.877 18.396,5.581 19.099,5.937 19.386 C 6.938 20.194,8.256 20.876,9.552 21.258 C 10.154 21.435,10.437 21.479,11.293 21.528 C 12.395 21.591,13.323 21.535,14.020 21.363 C 15.488 21.001,16.913 20.310,18.020 19.422 C 18.626 18.936,19.442 18.067,19.832 17.491 C 20.332 16.753,20.800 15.791,21.123 14.839 C 21.420 13.961,21.478 13.657,21.519 12.742 C 21.551 12.020,21.517 10.595,21.463 10.380 C 21.451 10.336,21.387 10.078,21.320 9.807 C 20.774 7.596,19.537 5.736,17.700 4.361 C 16.366 3.362,14.633 2.668,13.220 2.565 C 12.385 2.504,11.143 2.483,10.780 2.522 M12.411 7.362 C 12.584 7.410,12.802 7.588,12.967 7.816 C 13.074 7.964,13.080 7.993,13.080 8.402 L 13.080 8.831 12.907 9.066 C 12.725 9.312,12.307 9.773,11.705 10.389 C 11.506 10.592,11.352 10.764,11.362 10.773 C 11.372 10.782,12.307 10.810,13.440 10.837 C 14.573 10.863,15.631 10.900,15.791 10.918 C 16.151 10.959,16.334 11.071,16.523 11.365 C 16.648 11.560,16.661 11.609,16.674 11.936 C 16.682 12.133,16.668 12.361,16.644 12.443 C 16.589 12.628,16.288 12.968,16.104 13.056 C 15.908 13.148,14.771 13.199,12.865 13.199 L 11.310 13.200 11.825 13.731 C 12.429 14.353,12.807 14.785,12.966 15.036 C 13.072 15.203,13.080 15.244,13.080 15.618 C 13.080 16.013,13.077 16.025,12.939 16.231 C 12.723 16.551,12.346 16.760,11.985 16.760 C 11.584 16.759,11.283 16.516,9.524 14.781 C 8.213 13.486,7.578 12.804,7.425 12.522 C 7.302 12.296,7.255 11.961,7.315 11.738 C 7.411 11.382,7.842 10.876,9.228 9.494 C 10.359 8.366,11.193 7.588,11.435 7.435 C 11.595 7.333,11.652 7.320,11.938 7.320 C 12.115 7.320,12.328 7.339,12.411 7.362 " fill="#373B4D" stroke="none" fill-rule="evenodd"></path></svg>