<svg width="24" height="24" viewBox="0 0 24 24" fill="none" xmlns="http://www.w3.org/2000/svg"><path d="M11.680 2.555 C 11.372 2.621,11.113 2.824,10.974 3.108 L 10.867 3.328 10.836 5.494 C 10.820 6.685,10.795 9.757,10.781 12.320 C 10.768 14.883,10.747 17.057,10.736 17.151 C 10.720 17.278,10.701 17.313,10.661 17.291 C 10.632 17.274,10.116 16.798,9.514 16.233 C 8.225 15.022,7.917 14.760,7.596 14.598 C 7.336 14.467,7.254 14.466,6.860 14.589 C 6.395 14.735,6.116 15.050,6.055 15.495 C 6.024 15.715,6.178 16.079,6.437 16.400 C 6.921 16.999,10.286 20.355,11.120 21.071 C 11.807 21.660,12.120 21.680,12.760 21.174 C 13.142 20.872,16.781 17.250,17.356 16.600 C 17.846 16.045,17.940 15.884,17.936 15.600 C 17.930 15.209,17.665 14.780,17.340 14.636 C 17.243 14.593,17.019 14.554,16.774 14.537 L 16.368 14.509 15.954 14.864 C 15.493 15.260,14.873 15.847,13.870 16.838 L 13.200 17.499 13.200 10.353 L 13.200 3.207 12.930 2.959 C 12.782 2.823,12.596 2.679,12.518 2.639 C 12.357 2.557,11.890 2.510,11.680 2.555 " fill="#373B4D" stroke="none" fill-rule="evenodd"></path></svg>