<svg width="24" height="24" viewBox="0 0 24 24" fill="none" xmlns="http://www.w3.org/2000/svg"><path d="M10.300 3.814 C 10.102 3.904,8.930 5.039,6.075 7.905 C 3.411 10.579,2.846 11.160,2.616 11.461 C 2.507 11.604,2.500 11.637,2.500 11.980 C 2.500 12.322,2.508 12.358,2.620 12.520 C 2.686 12.615,3.048 13.019,3.424 13.417 C 4.398 14.446,9.514 19.524,9.920 19.865 C 10.379 20.249,10.477 20.296,10.820 20.294 C 11.150 20.292,11.335 20.212,11.595 19.960 C 11.828 19.734,11.918 19.522,11.919 19.196 C 11.920 18.957,11.906 18.911,11.766 18.696 C 11.555 18.374,11.042 17.815,9.517 16.246 C 7.785 14.465,6.760 13.391,6.760 13.359 C 6.760 13.315,8.970 13.283,15.020 13.238 L 20.780 13.196 21.048 12.910 C 21.529 12.396,21.630 12.063,21.439 11.617 C 21.278 11.241,21.103 11.079,20.800 11.026 C 20.542 10.980,18.166 10.922,14.820 10.880 C 10.698 10.828,7.485 10.768,7.049 10.734 C 6.866 10.720,6.722 10.694,6.729 10.677 C 6.735 10.659,7.695 9.649,8.863 8.432 C 11.783 5.389,11.832 5.334,11.918 5.009 C 12.020 4.625,11.761 4.066,11.391 3.873 C 11.176 3.761,10.495 3.724,10.300 3.814 " fill="#373B4D" stroke="none" fill-rule="evenodd"></path></svg>