<svg width="24" height="24" viewBox="0 0 24 24" fill="none" xmlns="http://www.w3.org/2000/svg"><path d="M15.092 6.199 C 14.903 6.314,14.667 6.562,14.588 6.729 C 14.549 6.810,14.498 6.977,14.473 7.100 C 14.382 7.553,14.453 7.652,16.175 9.460 C 16.824 10.142,17.340 10.715,17.322 10.734 C 17.281 10.775,14.862 10.824,9.980 10.880 C 5.750 10.929,3.591 10.981,3.203 11.043 C 2.898 11.091,2.772 11.188,2.607 11.500 C 2.516 11.671,2.501 11.750,2.501 12.045 C 2.500 12.380,2.504 12.397,2.653 12.613 C 2.738 12.736,2.906 12.918,3.028 13.018 L 3.249 13.200 10.369 13.200 L 17.489 13.200 16.678 14.029 C 15.552 15.179,14.735 16.068,14.611 16.275 C 14.459 16.530,14.434 16.999,14.559 17.257 C 14.724 17.598,15.241 17.933,15.605 17.935 C 15.864 17.936,16.130 17.765,16.753 17.200 C 17.386 16.625,19.477 14.533,20.525 13.425 C 21.173 12.740,21.341 12.537,21.463 12.296 C 21.611 12.005,21.612 12.000,21.551 11.845 C 21.425 11.523,21.156 11.195,20.235 10.240 C 18.967 8.925,16.887 6.872,16.540 6.594 C 16.184 6.309,15.993 6.214,15.675 6.162 C 15.319 6.104,15.238 6.109,15.092 6.199 " fill="#373B4D" stroke="none" fill-rule="evenodd"></path></svg>