<svg width="24" height="24" viewBox="0 0 24 24" fill="none" xmlns="http://www.w3.org/2000/svg"><path d="M12.526 6.318 C 12.208 6.582,12.065 6.867,12.063 7.236 C 12.062 7.407,12.086 7.549,12.131 7.640 C 12.220 7.820,12.640 8.279,13.972 9.651 C 14.565 10.262,15.044 10.770,15.035 10.778 C 15.014 10.799,8.539 10.880,6.883 10.880 L 5.561 10.880 5.308 11.130 C 5.013 11.422,4.912 11.614,4.888 11.926 C 4.861 12.289,4.956 12.507,5.307 12.880 L 5.608 13.200 10.349 13.200 L 15.090 13.200 14.262 14.044 C 13.296 15.030,12.361 16.036,12.216 16.246 C 12.138 16.359,12.109 16.460,12.092 16.691 C 12.079 16.855,12.081 17.054,12.096 17.132 C 12.155 17.449,12.708 17.877,13.141 17.942 C 13.536 18.001,13.913 17.687,16.243 15.361 C 18.510 13.098,19.001 12.555,19.142 12.153 C 19.214 11.949,19.182 11.828,18.964 11.491 C 18.617 10.954,14.188 6.534,13.772 6.309 C 13.642 6.239,13.459 6.185,13.273 6.161 C 12.800 6.099,12.786 6.102,12.526 6.318 " fill="#373B4D" stroke="none" fill-rule="evenodd"></path></svg>