<svg width="24" height="24" viewBox="0 0 24 24" fill="none" xmlns="http://www.w3.org/2000/svg"><path d="M10.800 2.560 C 9.246 2.685,7.471 3.441,6.040 4.585 C 5.599 4.937,4.771 5.770,4.440 6.194 C 3.480 7.422,2.855 8.853,2.533 10.560 C 2.444 11.034,2.431 12.733,2.513 13.300 C 2.652 14.269,3.083 15.571,3.565 16.480 C 3.987 17.275,4.415 17.854,5.100 18.555 C 6.022 19.499,6.625 19.943,7.760 20.518 C 9.182 21.237,10.130 21.486,11.668 21.544 C 12.869 21.589,13.772 21.467,14.800 21.121 C 16.055 20.698,17.043 20.168,18.000 19.405 C 19.520 18.193,20.455 16.796,21.163 14.680 C 21.468 13.769,21.494 13.558,21.497 12.000 C 21.500 10.529,21.486 10.391,21.255 9.591 C 20.689 7.634,19.633 5.982,18.143 4.724 C 16.822 3.609,14.953 2.773,13.400 2.604 C 12.865 2.546,11.301 2.519,10.800 2.560 M12.366 7.405 C 12.447 7.425,12.618 7.519,12.746 7.613 C 13.246 7.981,15.821 10.555,16.333 11.199 C 16.674 11.627,16.738 11.787,16.686 12.080 C 16.634 12.379,16.538 12.564,16.246 12.926 C 15.720 13.579,13.160 16.114,12.638 16.498 C 12.330 16.725,12.112 16.785,11.832 16.719 C 11.551 16.653,11.367 16.556,11.214 16.394 C 11.021 16.188,10.958 16.025,10.933 15.668 C 10.906 15.281,10.947 15.155,11.214 14.807 C 11.389 14.580,12.328 13.553,12.535 13.363 C 12.593 13.310,12.640 13.251,12.640 13.233 C 12.640 13.215,12.059 13.199,11.350 13.198 C 9.755 13.195,8.230 13.141,8.027 13.080 C 7.838 13.024,7.597 12.811,7.462 12.580 C 7.338 12.368,7.286 11.911,7.356 11.652 C 7.421 11.412,7.677 11.106,7.880 11.025 C 8.095 10.939,8.755 10.898,10.880 10.837 C 11.793 10.811,12.554 10.777,12.571 10.762 C 12.589 10.746,12.400 10.513,12.151 10.243 C 10.966 8.954,10.980 8.976,10.980 8.400 C 10.980 8.013,10.989 7.965,11.091 7.791 C 11.219 7.574,11.425 7.403,11.611 7.360 C 11.756 7.326,12.145 7.349,12.366 7.405 " fill="#373B4D" stroke="none" fill-rule="evenodd"></path></svg>