<svg width="24" height="24" viewBox="0 0 24 24" fill="none" xmlns="http://www.w3.org/2000/svg"><path d="M11.415 2.638 C 11.178 2.774,10.901 3.072,10.863 3.230 C 10.849 3.291,10.826 6.521,10.813 10.409 L 10.789 17.478 8.864 15.572 C 6.004 12.739,5.436 12.226,5.048 12.122 C 4.743 12.040,4.261 12.171,3.973 12.415 C 3.638 12.698,3.540 13.244,3.756 13.620 C 3.937 13.935,4.860 14.900,7.740 17.784 C 11.393 21.442,11.573 21.599,12.059 21.549 C 12.177 21.536,12.337 21.497,12.413 21.461 C 12.489 21.425,12.971 20.996,13.485 20.508 C 14.703 19.353,19.413 14.645,19.816 14.180 C 20.232 13.702,20.337 13.496,20.337 13.160 C 20.337 12.842,20.246 12.650,19.981 12.405 C 19.736 12.180,19.603 12.129,19.169 12.096 L 18.806 12.069 18.389 12.432 C 17.868 12.885,16.616 14.099,14.690 16.016 L 13.200 17.500 13.200 10.354 L 13.200 3.209 12.863 2.890 C 12.490 2.536,12.449 2.520,11.945 2.520 C 11.659 2.521,11.595 2.535,11.415 2.638 " fill="#373B4D" stroke="none" fill-rule="evenodd"></path></svg>