<svg width="24" height="24" viewBox="0 0 24 24" fill="none" xmlns="http://www.w3.org/2000/svg"><path d="M11.654 2.517 C 11.389 2.583,10.976 2.939,10.873 3.190 C 10.841 3.269,10.823 5.294,10.809 10.390 L 10.790 17.480 8.795 15.502 C 5.965 12.698,5.434 12.215,5.066 12.116 C 4.742 12.029,4.284 12.154,3.974 12.414 C 3.775 12.582,3.626 12.901,3.628 13.158 C 3.631 13.525,3.730 13.681,4.436 14.431 C 5.404 15.459,8.906 18.984,10.192 20.225 C 11.131 21.130,11.369 21.339,11.582 21.444 C 11.811 21.557,11.867 21.569,12.081 21.549 C 12.229 21.536,12.382 21.491,12.480 21.433 C 12.845 21.218,19.603 14.508,20.035 13.932 C 20.352 13.509,20.417 13.246,20.300 12.854 C 20.255 12.699,20.186 12.600,20.004 12.427 C 19.715 12.152,19.646 12.124,19.182 12.093 L 18.816 12.069 18.458 12.368 C 18.026 12.729,16.784 13.931,14.730 15.976 L 13.200 17.500 13.200 10.359 L 13.200 3.218 12.890 2.911 C 12.720 2.742,12.535 2.588,12.480 2.567 C 12.333 2.513,11.800 2.481,11.654 2.517 " fill="#373B4D" stroke="none" fill-rule="evenodd"></path></svg>