<svg width="24" height="24" viewBox="0 0 24 24" fill="none" xmlns="http://www.w3.org/2000/svg"><path d="M11.000 2.463 C 8.701 2.737,6.759 3.671,5.175 5.265 C 2.751 7.704,1.820 11.347,2.781 14.634 C 3.551 17.270,5.288 19.358,7.732 20.586 C 8.548 20.996,9.533 21.315,10.507 21.484 C 10.943 21.559,11.167 21.573,12.000 21.573 C 12.833 21.573,13.057 21.559,13.493 21.484 C 16.681 20.930,19.280 18.988,20.644 16.140 C 20.953 15.495,21.137 14.984,21.320 14.263 C 21.528 13.445,21.573 13.025,21.570 11.920 C 21.567 11.152,21.552 10.892,21.483 10.500 C 21.304 9.479,21.026 8.628,20.573 7.714 C 19.332 5.208,17.068 3.393,14.321 2.701 C 13.686 2.541,13.242 2.480,12.412 2.440 C 11.490 2.395,11.587 2.393,11.000 2.463 M12.518 7.350 C 12.695 7.434,13.020 7.735,14.234 8.937 C 15.845 10.532,16.564 11.293,16.684 11.528 C 16.740 11.637,16.760 11.762,16.760 11.995 C 16.760 12.276,16.745 12.342,16.630 12.565 C 16.337 13.131,15.664 13.353,15.088 13.074 C 14.961 13.013,14.628 12.715,14.056 12.152 L 13.212 11.320 13.191 13.616 L 13.169 15.912 13.037 16.160 C 12.574 17.029,11.386 17.000,10.935 16.110 L 10.830 15.903 10.809 13.611 L 10.788 11.320 9.944 12.152 C 8.966 13.115,8.868 13.180,8.400 13.179 C 7.912 13.178,7.563 12.961,7.340 12.520 C 7.258 12.358,7.240 12.265,7.240 12.000 C 7.240 11.574,7.290 11.482,7.854 10.872 C 8.678 9.980,11.290 7.423,11.460 7.341 C 11.799 7.179,12.163 7.182,12.518 7.350 " fill="#373B4D" stroke="none" fill-rule="evenodd"></path></svg>