<svg width="24" height="24" viewBox="0 0 24 24" fill="none" xmlns="http://www.w3.org/2000/svg"><path d="M12.618 3.831 C 12.377 4.007,12.171 4.266,12.080 4.508 C 11.860 5.097,11.834 5.065,15.612 8.918 C 16.593 9.918,17.388 10.747,17.379 10.762 C 17.370 10.776,15.935 10.800,14.191 10.815 C 8.292 10.865,4.022 10.923,3.527 10.959 C 2.890 11.006,2.821 11.045,2.600 11.496 C 2.463 11.775,2.416 12.082,2.477 12.307 C 2.531 12.508,2.776 12.823,3.047 13.038 L 3.250 13.200 10.375 13.200 L 17.500 13.200 15.898 14.810 C 11.926 18.804,11.902 18.834,12.104 19.523 C 12.187 19.808,12.564 20.193,12.858 20.293 C 13.222 20.417,13.432 20.373,13.837 20.087 C 14.304 19.758,20.710 13.387,21.246 12.720 C 21.483 12.424,21.533 12.293,21.536 11.956 C 21.539 11.685,21.527 11.635,21.427 11.489 C 21.249 11.233,18.841 8.766,16.677 6.623 C 14.675 4.640,13.918 3.924,13.700 3.808 C 13.621 3.766,13.444 3.739,13.180 3.728 C 12.789 3.713,12.776 3.715,12.618 3.831 " fill="#373B4D" stroke="none" fill-rule="evenodd"></path></svg>