<svg width="24" height="24" viewBox="0 0 24 24" fill="none" xmlns="http://www.w3.org/2000/svg"><path d="M11.513 2.559 C 11.265 2.694,10.495 3.421,8.719 5.198 C 6.875 7.042,6.231 7.731,6.116 7.980 C 6.015 8.198,6.017 8.605,6.119 8.831 C 6.205 9.019,6.535 9.363,6.733 9.470 C 6.911 9.565,7.449 9.566,7.640 9.470 C 7.847 9.367,8.488 8.783,9.710 7.582 L 10.800 6.512 10.802 12.286 C 10.803 18.831,10.834 20.674,10.942 20.884 C 11.049 21.090,11.413 21.423,11.618 21.501 C 11.826 21.581,12.217 21.565,12.447 21.467 C 12.649 21.381,12.943 21.100,13.039 20.901 C 13.121 20.732,13.127 20.643,13.161 19.012 C 13.181 18.070,13.198 14.872,13.198 11.905 L 13.200 6.511 14.347 7.640 C 15.693 8.965,16.107 9.337,16.380 9.465 C 16.764 9.645,17.236 9.559,17.571 9.247 C 17.826 9.010,17.923 8.793,17.948 8.405 C 17.966 8.119,17.960 8.089,17.850 7.920 C 17.653 7.618,16.854 6.784,14.955 4.897 C 13.114 3.069,12.767 2.747,12.467 2.592 C 12.223 2.467,11.715 2.449,11.513 2.559 " fill="#373B4D" stroke="none" fill-rule="evenodd"></path></svg>