<svg width="24" height="24" viewBox="0 0 24 24" fill="none" xmlns="http://www.w3.org/2000/svg"><path d="M11.630 2.495 C 11.547 2.525,11.394 2.620,11.290 2.705 C 10.727 3.166,7.433 6.437,6.515 7.448 C 6.316 7.667,6.128 7.907,6.097 7.981 C 6.013 8.182,6.025 8.662,6.118 8.868 C 6.216 9.084,6.516 9.384,6.732 9.482 C 6.925 9.570,7.350 9.586,7.564 9.514 C 7.789 9.438,8.177 9.092,9.519 7.772 L 10.800 6.512 10.802 12.746 C 10.803 19.186,10.826 20.635,10.930 20.881 C 11.002 21.052,11.390 21.423,11.578 21.502 C 11.787 21.589,12.258 21.578,12.457 21.481 C 12.672 21.377,12.994 21.064,13.067 20.889 C 13.164 20.656,13.197 18.527,13.199 12.285 L 13.200 6.511 14.468 7.761 C 15.759 9.034,16.148 9.387,16.381 9.498 C 16.549 9.578,16.978 9.578,17.201 9.499 C 17.432 9.418,17.696 9.195,17.827 8.971 C 17.962 8.741,18.006 8.227,17.910 7.998 C 17.818 7.778,17.131 7.047,15.262 5.178 C 13.480 3.397,12.794 2.750,12.505 2.581 C 12.290 2.455,11.851 2.412,11.630 2.495 " fill="#373B4D" stroke="none" fill-rule="evenodd"></path></svg>