<svg width="24" height="24" viewBox="0 0 24 24" fill="none" xmlns="http://www.w3.org/2000/svg"><path d="M12.692 6.139 C 12.520 6.214,12.237 6.502,12.141 6.700 C 12.037 6.914,12.010 7.411,12.092 7.607 C 12.178 7.813,12.578 8.253,13.911 9.604 L 15.090 10.800 13.235 10.803 C 12.215 10.805,10.080 10.819,8.491 10.835 L 5.603 10.865 5.385 11.015 C 5.020 11.266,4.840 11.597,4.840 12.015 C 4.840 12.451,5.027 12.755,5.491 13.074 L 5.674 13.200 10.387 13.200 L 15.099 13.200 14.137 14.170 C 12.735 15.583,12.217 16.139,12.123 16.333 C 12.011 16.565,12.009 17.028,12.119 17.271 C 12.228 17.510,12.566 17.823,12.794 17.895 C 13.291 18.053,13.522 18.002,13.988 17.631 C 14.349 17.344,17.640 14.065,18.450 13.185 C 19.189 12.382,19.284 12.178,19.140 11.694 C 19.056 11.408,18.608 10.921,16.463 8.779 C 14.545 6.863,13.917 6.276,13.660 6.156 C 13.462 6.064,12.887 6.054,12.692 6.139 " fill="#373B4D" stroke="none" fill-rule="evenodd"></path></svg>