<svg width="24" height="24" viewBox="0 0 24 24" fill="none" xmlns="http://www.w3.org/2000/svg"><path d="M10.960 2.483 C 10.529 2.522,9.753 2.687,9.175 2.863 C 7.694 3.311,6.417 4.074,5.312 5.171 C 3.805 6.665,2.893 8.403,2.543 10.445 C 2.150 12.732,2.671 15.225,3.947 17.178 C 5.248 19.167,7.063 20.510,9.409 21.217 C 10.384 21.511,10.564 21.534,11.920 21.537 C 13.206 21.540,13.437 21.520,14.160 21.339 C 16.336 20.794,18.255 19.563,19.560 17.875 C 20.466 16.703,21.204 15.049,21.468 13.600 C 21.571 13.039,21.571 10.898,21.468 10.380 C 20.876 7.391,19.104 4.964,16.480 3.550 C 15.484 3.013,14.237 2.625,13.173 2.522 C 12.619 2.469,11.364 2.446,10.960 2.483 M12.455 7.347 C 12.726 7.484,13.190 7.912,14.553 9.277 C 16.050 10.777,16.513 11.276,16.653 11.539 C 16.761 11.743,16.767 12.182,16.665 12.420 C 16.493 12.821,16.250 13.036,15.850 13.142 C 15.317 13.282,15.099 13.154,13.906 12.001 C 13.545 11.652,13.259 11.405,13.240 11.425 C 13.220 11.444,13.192 12.468,13.177 13.700 C 13.147 16.206,13.174 15.985,12.848 16.389 C 12.386 16.962,11.470 16.876,11.016 16.217 L 10.868 16.002 10.836 14.551 C 10.819 13.753,10.804 12.695,10.802 12.201 L 10.800 11.301 10.270 11.823 C 9.586 12.498,9.139 12.906,8.943 13.036 C 8.801 13.130,8.749 13.140,8.402 13.139 C 8.058 13.138,7.999 13.127,7.833 13.030 C 7.501 12.835,7.310 12.531,7.260 12.118 C 7.204 11.657,7.333 11.449,8.327 10.397 C 9.080 9.601,10.998 7.743,11.333 7.485 C 11.458 7.389,11.619 7.295,11.690 7.277 C 11.871 7.231,12.305 7.271,12.455 7.347 " fill="#373B4D" stroke="none" fill-rule="evenodd"></path></svg>