<svg width="24" height="24" viewBox="0 0 24 24" fill="none" xmlns="http://www.w3.org/2000/svg"><path d="M10.760 2.522 C 10.374 2.561,9.778 2.692,9.213 2.863 C 7.699 3.321,6.431 4.086,5.278 5.239 C 4.146 6.370,3.447 7.473,2.937 8.932 C 2.589 9.928,2.429 10.874,2.427 11.940 C 2.425 12.966,2.541 13.773,2.827 14.720 C 3.603 17.286,5.348 19.360,7.722 20.537 C 8.525 20.935,9.507 21.288,10.181 21.420 C 10.954 21.572,12.804 21.593,13.592 21.458 C 14.060 21.378,14.717 21.191,15.300 20.971 C 17.069 20.304,18.595 19.166,19.682 17.700 C 20.542 16.540,21.320 14.686,21.487 13.400 C 21.553 12.883,21.554 11.041,21.487 10.580 C 21.355 9.662,20.930 8.407,20.452 7.520 C 19.135 5.077,16.774 3.289,14.060 2.676 C 13.604 2.573,13.417 2.554,12.540 2.521 C 11.413 2.478,11.186 2.478,10.760 2.522 M12.498 7.399 C 12.746 7.519,13.430 8.157,14.821 9.564 C 16.083 10.841,16.515 11.317,16.649 11.578 C 16.715 11.707,16.726 11.789,16.712 12.042 C 16.681 12.563,16.545 12.733,14.615 14.660 C 13.313 15.959,12.692 16.529,12.435 16.663 C 12.098 16.837,11.561 16.753,11.264 16.480 C 10.999 16.235,10.880 15.952,10.880 15.567 C 10.880 15.262,10.887 15.239,11.042 15.006 C 11.225 14.733,11.559 14.359,12.237 13.670 L 12.699 13.200 11.219 13.197 C 10.406 13.195,9.352 13.181,8.878 13.165 C 8.041 13.138,8.010 13.133,7.834 13.030 C 7.370 12.759,7.139 12.016,7.363 11.520 C 7.467 11.290,7.803 10.972,7.994 10.923 C 8.144 10.884,10.928 10.800,12.054 10.800 L 12.688 10.800 12.078 10.170 C 11.437 9.507,11.100 9.113,10.975 8.880 C 10.870 8.685,10.872 8.120,10.978 7.920 C 11.137 7.619,11.397 7.372,11.614 7.316 C 11.828 7.260,12.305 7.305,12.498 7.399 " fill="#373B4D" stroke="none" fill-rule="evenodd"></path></svg>