<svg width="24" height="24" viewBox="0 0 24 24" fill="none" xmlns="http://www.w3.org/2000/svg"><path d="M10.460 2.556 C 8.397 2.940,6.796 3.749,5.385 5.120 C 4.496 5.984,3.882 6.821,3.377 7.860 C 2.066 10.554,2.096 13.601,3.462 16.323 C 4.177 17.749,5.334 19.053,6.680 19.949 C 7.607 20.566,8.758 21.065,9.980 21.380 C 10.692 21.563,12.698 21.607,13.602 21.459 C 14.327 21.340,15.373 20.991,16.183 20.597 C 17.678 19.870,19.020 18.714,19.908 17.388 C 20.322 16.768,20.870 15.645,21.111 14.919 C 21.413 14.007,21.475 13.692,21.529 12.787 C 21.595 11.660,21.531 10.569,21.360 9.900 C 21.053 8.702,20.624 7.713,19.996 6.757 C 18.554 4.560,16.139 2.990,13.567 2.575 C 13.303 2.532,12.811 2.507,12.020 2.497 C 11.015 2.484,10.807 2.492,10.460 2.556 M12.438 7.362 C 12.683 7.474,12.859 7.625,13.779 8.514 C 14.913 9.609,16.296 11.051,16.525 11.376 C 16.719 11.651,16.720 11.654,16.720 11.974 C 16.720 12.382,16.662 12.504,16.235 13.000 C 15.843 13.456,13.623 15.676,13.062 16.174 C 12.518 16.657,12.332 16.759,12.000 16.759 C 11.542 16.758,11.194 16.540,10.992 16.130 C 10.884 15.911,10.863 15.821,10.862 15.584 C 10.860 15.344,10.877 15.271,10.972 15.110 C 11.134 14.834,11.405 14.520,12.082 13.825 L 12.682 13.208 10.471 13.188 C 9.093 13.175,8.186 13.151,8.064 13.124 C 7.816 13.069,7.655 12.946,7.462 12.665 C 7.317 12.455,7.308 12.424,7.289 12.065 C 7.272 11.733,7.280 11.665,7.358 11.505 C 7.469 11.274,7.831 10.940,8.007 10.904 C 8.162 10.873,10.832 10.803,11.935 10.801 L 12.690 10.800 12.082 10.176 C 11.385 9.460,11.073 9.093,10.960 8.859 C 10.859 8.652,10.854 8.251,10.947 7.977 C 11.028 7.740,11.366 7.383,11.565 7.326 C 11.809 7.256,12.243 7.274,12.438 7.362 " fill="#373B4D" stroke="none" fill-rule="evenodd"></path></svg>