<svg width="24" height="24" viewBox="0 0 24 24" fill="none" xmlns="http://www.w3.org/2000/svg"><path d="M7.515 6.485 C 6.840 7.094,3.037 10.919,2.826 11.200 C 2.720 11.342,2.595 11.530,2.549 11.619 C 2.441 11.825,2.434 12.166,2.531 12.363 C 2.666 12.633,3.258 13.264,5.217 15.225 C 7.725 17.735,7.960 17.935,8.400 17.938 C 8.838 17.942,9.319 17.602,9.478 17.176 C 9.613 16.816,9.578 16.543,9.358 16.220 C 9.204 15.992,8.439 15.167,7.402 14.109 L 6.511 13.200 13.651 13.200 L 20.790 13.200 21.052 12.923 C 21.414 12.538,21.538 12.317,21.533 12.062 C 21.525 11.683,21.299 11.213,21.066 11.093 C 20.999 11.058,20.764 11.016,20.532 10.998 C 19.927 10.949,16.331 10.886,11.540 10.841 C 9.230 10.818,7.183 10.789,6.990 10.776 L 6.640 10.752 6.745 10.626 C 6.802 10.557,7.323 9.996,7.902 9.380 C 8.984 8.230,9.346 7.810,9.469 7.562 C 9.638 7.222,9.489 6.671,9.150 6.380 C 8.952 6.211,8.821 6.173,8.315 6.137 L 7.930 6.110 7.515 6.485 " fill="#373B4D" stroke="none" fill-rule="evenodd"></path></svg>