<svg width="24" height="24" viewBox="0 0 24 24" fill="none" xmlns="http://www.w3.org/2000/svg"><path d="M10.154 3.889 C 9.769 4.193,8.383 5.548,5.718 8.226 C 3.026 10.931,2.644 11.335,2.516 11.617 C 2.406 11.859,2.417 12.178,2.543 12.432 C 2.684 12.714,3.804 13.878,6.885 16.942 C 9.427 19.470,10.096 20.103,10.380 20.249 C 10.596 20.361,10.994 20.362,11.243 20.252 C 11.511 20.133,11.827 19.794,11.900 19.547 C 11.983 19.269,11.976 18.988,11.883 18.805 C 11.768 18.581,11.258 18.023,9.782 16.511 C 9.055 15.766,8.051 14.737,7.552 14.224 L 6.644 13.293 7.612 13.266 C 8.144 13.252,11.321 13.228,14.670 13.214 L 20.760 13.187 20.987 13.003 C 21.391 12.676,21.591 12.290,21.547 11.920 C 21.500 11.518,21.204 11.079,20.926 11.000 C 20.673 10.928,18.625 10.884,13.200 10.837 C 7.579 10.788,6.700 10.769,6.700 10.694 C 6.700 10.668,7.566 9.759,8.624 8.674 C 11.823 5.391,11.892 5.315,11.943 4.976 C 12.023 4.443,11.663 3.871,11.177 3.758 C 11.091 3.738,10.873 3.721,10.694 3.721 C 10.370 3.720,10.365 3.721,10.154 3.889 " fill="#373B4D" stroke="none" fill-rule="evenodd"></path></svg>