<svg width="24" height="24" viewBox="0 0 24 24" fill="none" xmlns="http://www.w3.org/2000/svg"><path d="M12.572 6.274 C 12.296 6.492,12.180 6.654,12.099 6.937 C 12.013 7.232,12.041 7.518,12.174 7.716 C 12.329 7.946,12.732 8.381,13.942 9.624 L 15.075 10.788 13.207 10.814 C 12.180 10.828,10.040 10.851,8.450 10.866 L 5.560 10.892 5.323 11.106 C 5.008 11.392,4.880 11.650,4.880 11.998 C 4.881 12.366,4.996 12.592,5.355 12.930 L 5.641 13.200 10.365 13.200 L 15.089 13.200 14.197 14.110 C 13.181 15.146,12.377 16.014,12.214 16.248 C 12.117 16.389,12.101 16.453,12.087 16.782 C 12.073 17.110,12.081 17.172,12.156 17.293 C 12.360 17.623,12.773 17.896,13.146 17.947 C 13.526 17.999,13.861 17.732,15.736 15.880 C 17.649 13.990,18.806 12.771,19.008 12.431 C 19.254 12.017,19.247 11.908,18.943 11.454 C 18.749 11.165,18.296 10.690,16.463 8.857 C 15.229 7.623,14.106 6.530,13.967 6.428 C 13.682 6.218,13.557 6.176,13.099 6.138 L 12.778 6.111 12.572 6.274 " fill="#373B4D" stroke="none" fill-rule="evenodd"></path></svg>