<svg width="24" height="24" viewBox="0 0 24 24" fill="none" xmlns="http://www.w3.org/2000/svg"><path d="M11.529 5.008 C 11.341 5.071,11.074 5.320,10.952 5.546 L 10.848 5.740 10.803 9.080 C 10.779 10.917,10.760 12.972,10.760 13.648 C 10.760 14.370,10.745 14.885,10.722 14.899 C 10.702 14.911,10.193 14.465,9.592 13.907 C 8.241 12.651,8.001 12.442,7.723 12.273 C 7.529 12.156,7.470 12.140,7.233 12.143 C 7.006 12.146,6.916 12.170,6.659 12.297 C 6.316 12.466,6.164 12.650,6.081 12.998 C 6.025 13.228,6.064 13.404,6.236 13.702 C 6.443 14.060,10.610 18.282,11.260 18.792 C 11.584 19.046,11.707 19.095,12.020 19.095 C 12.200 19.095,12.343 19.072,12.421 19.031 C 12.881 18.788,17.024 14.698,17.620 13.900 C 17.993 13.400,18.018 12.953,17.697 12.533 C 17.514 12.293,17.288 12.196,16.803 12.148 L 16.368 12.105 15.957 12.462 C 15.469 12.887,14.742 13.576,13.850 14.457 L 13.200 15.099 13.200 10.354 L 13.200 5.608 12.971 5.398 C 12.553 5.017,12.481 4.984,12.045 4.973 C 11.833 4.968,11.601 4.984,11.529 5.008 " fill="#373B4D" stroke="none" fill-rule="evenodd"></path></svg>