<svg width="24" height="24" viewBox="0 0 24 24" fill="none" xmlns="http://www.w3.org/2000/svg"><path d="M12.960 6.036 C 12.883 6.051,12.723 6.117,12.605 6.181 C 12.070 6.472,11.856 7.155,12.126 7.712 C 12.191 7.848,12.612 8.298,13.649 9.344 L 15.081 10.788 10.385 10.809 L 5.690 10.830 5.441 10.963 C 4.570 11.427,4.611 12.644,5.512 13.087 L 5.700 13.180 10.396 13.190 L 15.091 13.201 13.654 14.650 C 12.035 16.283,12.023 16.298,12.021 16.800 C 12.020 17.155,12.114 17.385,12.365 17.635 C 12.682 17.953,13.111 18.066,13.531 17.944 C 13.732 17.886,13.822 17.817,14.388 17.285 C 15.301 16.426,18.752 12.940,18.945 12.680 C 19.210 12.325,19.260 12.057,19.139 11.649 C 19.087 11.473,18.993 11.353,18.485 10.812 C 18.158 10.464,17.001 9.297,15.914 8.217 C 14.288 6.603,13.897 6.235,13.718 6.150 C 13.480 6.036,13.179 5.991,12.960 6.036 " fill="#373B4D" stroke="none" fill-rule="evenodd"></path></svg>