<svg width="24" height="24" viewBox="0 0 24 24" fill="none" xmlns="http://www.w3.org/2000/svg"><path d="M11.740 4.959 C 11.396 5.001,11.120 5.209,10.942 5.560 L 10.850 5.740 10.805 9.380 C 10.779 11.382,10.759 13.458,10.759 13.992 C 10.760 14.947,10.759 14.964,10.682 14.910 C 10.639 14.880,10.113 14.394,9.512 13.831 C 7.776 12.202,7.627 12.094,7.174 12.130 C 6.853 12.156,6.452 12.344,6.286 12.546 C 6.221 12.624,6.137 12.787,6.099 12.909 C 6.001 13.219,6.060 13.461,6.328 13.847 C 6.548 14.164,10.564 18.214,11.132 18.691 C 11.550 19.042,11.675 19.100,12.020 19.100 C 12.251 19.100,12.331 19.082,12.480 18.994 C 12.759 18.829,13.629 18.009,15.445 16.200 C 17.157 14.494,17.661 13.938,17.830 13.570 C 17.999 13.200,17.944 12.809,17.680 12.509 C 17.449 12.247,17.259 12.169,16.772 12.136 L 16.363 12.109 15.955 12.463 C 15.480 12.874,14.813 13.506,13.870 14.437 L 13.200 15.099 13.200 10.353 L 13.200 5.606 12.913 5.344 C 12.755 5.200,12.570 5.057,12.503 5.026 C 12.352 4.957,12.008 4.927,11.740 4.959 " fill="#373B4D" stroke="none" fill-rule="evenodd"></path></svg>