<svg width="24" height="24" viewBox="0 0 24 24" fill="none" xmlns="http://www.w3.org/2000/svg"><path d="M5.840 3.680 C 5.030 3.696,4.437 3.724,4.340 3.752 C 4.124 3.814,3.730 4.210,3.672 4.424 C 3.645 4.523,3.623 5.553,3.611 7.248 L 3.593 9.915 3.716 10.094 C 4.052 10.583,4.667 10.863,5.094 10.722 C 5.323 10.646,5.703 10.344,5.820 10.144 C 5.911 9.988,5.931 9.893,5.962 9.471 C 5.981 9.201,5.999 8.746,6.002 8.460 C 6.004 8.174,6.019 7.905,6.036 7.862 C 6.062 7.796,6.230 7.944,7.183 8.878 C 9.019 10.675,9.175 10.793,9.670 10.746 C 10.003 10.715,10.226 10.606,10.453 10.363 C 10.759 10.037,10.844 9.560,10.665 9.180 C 10.538 8.909,10.174 8.503,8.843 7.150 L 7.711 6.000 8.426 5.999 C 9.450 5.997,9.926 5.948,10.140 5.822 C 10.372 5.686,10.620 5.396,10.697 5.171 C 10.869 4.666,10.688 4.182,10.190 3.816 L 9.951 3.640 8.566 3.647 C 7.804 3.651,6.577 3.666,5.840 3.680 M13.849 3.786 C 13.777 3.822,13.630 3.948,13.522 4.066 C 13.297 4.312,13.215 4.582,13.253 4.951 C 13.289 5.307,13.600 5.721,13.935 5.861 C 14.134 5.944,14.807 5.999,15.635 5.999 L 16.290 6.000 15.166 7.141 C 13.944 8.380,13.440 8.935,13.335 9.157 C 13.250 9.336,13.242 9.716,13.318 9.980 C 13.400 10.265,13.747 10.609,14.041 10.696 C 14.708 10.895,14.859 10.795,16.837 8.857 C 17.850 7.865,17.937 7.790,17.961 7.881 C 17.975 7.936,17.999 8.408,18.014 8.932 C 18.044 10.024,18.053 10.061,18.367 10.367 C 18.639 10.632,18.911 10.760,19.200 10.758 C 19.604 10.755,19.860 10.607,20.201 10.179 L 20.400 9.929 20.397 8.194 C 20.395 7.240,20.381 5.998,20.366 5.433 L 20.338 4.406 20.214 4.233 C 20.146 4.138,19.997 3.984,19.884 3.890 L 19.677 3.720 16.829 3.721 C 14.289 3.722,13.966 3.729,13.849 3.786 M4.408 13.317 C 4.270 13.352,4.209 13.395,3.927 13.659 C 3.600 13.963,3.624 13.732,3.607 16.789 L 3.592 19.519 3.735 19.713 C 3.926 19.973,4.212 20.232,4.390 20.307 C 4.514 20.358,4.944 20.371,7.238 20.388 L 9.940 20.409 10.177 20.214 C 10.873 19.643,10.947 18.875,10.358 18.343 C 10.089 18.100,10.026 18.087,8.914 18.040 C 8.356 18.016,7.864 17.993,7.820 17.988 C 7.759 17.982,7.983 17.732,8.737 16.960 C 10.852 14.797,10.962 14.628,10.670 13.991 C 10.546 13.720,10.354 13.500,10.144 13.388 C 9.928 13.272,9.342 13.266,9.112 13.376 C 8.912 13.472,8.298 14.032,7.074 15.233 C 6.510 15.787,6.038 16.240,6.024 16.240 C 6.011 16.240,6.000 15.771,6.000 15.198 C 6.000 14.224,5.995 14.146,5.917 13.994 C 5.789 13.744,5.539 13.498,5.314 13.401 C 5.088 13.304,4.626 13.261,4.408 13.317 M13.816 13.414 C 13.422 13.685,13.240 14.000,13.240 14.411 C 13.240 14.572,13.267 14.710,13.319 14.818 C 13.434 15.056,13.892 15.563,15.133 16.826 C 15.742 17.445,16.240 17.960,16.240 17.970 C 16.240 17.981,15.912 18.001,15.510 18.016 C 14.624 18.049,14.027 18.108,13.855 18.180 C 13.659 18.261,13.413 18.540,13.322 18.785 C 13.113 19.342,13.328 19.888,13.911 20.281 L 14.100 20.409 16.782 20.388 C 19.056 20.371,19.487 20.358,19.610 20.307 C 19.787 20.233,20.074 19.974,20.261 19.719 L 20.400 19.529 20.398 17.655 C 20.396 15.359,20.354 14.116,20.271 13.920 C 20.205 13.764,19.921 13.485,19.715 13.375 C 19.613 13.320,19.488 13.302,19.200 13.301 C 18.758 13.300,18.655 13.341,18.358 13.638 C 18.056 13.941,18.051 13.956,18.023 14.900 C 18.009 15.362,17.988 15.853,17.976 15.991 L 17.953 16.242 16.947 15.254 C 15.755 14.085,15.178 13.557,14.938 13.417 C 14.794 13.332,14.695 13.310,14.391 13.294 L 14.020 13.273 13.816 13.414 " fill="#373B4D" stroke="none" fill-rule="evenodd"></path></svg>