<svg width="24" height="24" viewBox="0 0 24 24" fill="none" xmlns="http://www.w3.org/2000/svg"><path d="M15.140 6.180 C 14.969 6.272,14.686 6.556,14.600 6.722 C 14.559 6.800,14.504 6.974,14.476 7.107 C 14.428 7.340,14.430 7.359,14.532 7.565 C 14.663 7.832,14.968 8.188,15.984 9.262 C 16.936 10.268,17.338 10.715,17.313 10.740 C 17.282 10.771,14.077 10.836,10.420 10.880 C 6.502 10.927,3.705 10.989,3.310 11.039 C 2.963 11.082,2.810 11.174,2.655 11.432 C 2.454 11.767,2.431 12.259,2.602 12.542 C 2.643 12.608,2.801 12.784,2.954 12.932 L 3.232 13.200 10.361 13.200 L 17.489 13.200 16.715 13.992 C 15.882 14.844,15.097 15.681,14.786 16.048 C 14.369 16.541,14.374 17.141,14.797 17.548 C 15.055 17.796,15.293 17.900,15.600 17.900 C 15.831 17.900,15.883 17.884,16.067 17.760 C 16.180 17.683,16.450 17.464,16.667 17.274 C 17.207 16.800,20.709 13.264,21.085 12.815 C 21.441 12.389,21.617 12.063,21.578 11.904 C 21.496 11.581,21.023 11.036,19.330 9.316 C 17.868 7.831,16.605 6.624,16.304 6.425 C 15.920 6.170,15.374 6.055,15.140 6.180 " fill="#373B4D" stroke="none" fill-rule="evenodd"></path></svg>