<svg width="24" height="24" viewBox="0 0 24 24" fill="none" xmlns="http://www.w3.org/2000/svg"><path d="M12.676 3.777 C 12.250 4.005,11.960 4.504,12.016 4.913 C 12.070 5.311,12.285 5.552,15.253 8.545 L 17.479 10.790 12.029 10.818 C 6.170 10.847,3.351 10.893,3.109 10.961 C 2.661 11.089,2.341 11.765,2.476 12.300 C 2.544 12.570,2.698 12.777,2.996 13.001 L 3.260 13.199 10.374 13.200 L 17.488 13.200 15.238 15.470 C 12.019 18.717,12.010 18.728,12.049 19.275 C 12.072 19.593,12.169 19.798,12.407 20.028 C 12.637 20.252,12.908 20.368,13.199 20.368 C 13.503 20.368,13.659 20.284,14.131 19.863 C 15.100 19.000,19.908 14.207,21.010 13.006 C 21.473 12.501,21.560 12.344,21.560 12.017 C 21.559 11.601,21.528 11.546,20.875 10.844 C 20.101 10.011,15.473 5.380,14.580 4.545 C 13.684 3.707,13.683 3.706,13.225 3.691 C 12.900 3.680,12.840 3.690,12.676 3.777 " fill="#373B4D" stroke="none" fill-rule="evenodd"></path></svg>