<svg width="24" height="24" viewBox="0 0 24 24" fill="none" xmlns="http://www.w3.org/2000/svg"><path d="M11.500 2.599 C 11.263 2.717,11.053 2.904,10.938 3.099 L 10.837 3.272 10.812 10.356 C 10.798 14.252,10.776 17.440,10.763 17.440 C 10.750 17.440,10.406 17.105,10.000 16.697 C 8.851 15.542,6.424 13.179,5.980 12.783 C 5.760 12.587,5.474 12.358,5.344 12.273 C 5.130 12.134,5.082 12.120,4.841 12.120 C 4.021 12.120,3.465 12.774,3.696 13.468 C 3.790 13.750,4.114 14.106,6.397 16.432 C 8.614 18.690,10.802 20.833,11.272 21.207 C 11.667 21.521,11.797 21.576,12.073 21.544 C 12.366 21.509,12.434 21.467,12.960 20.994 C 14.083 19.982,19.744 14.314,20.050 13.894 C 20.258 13.610,20.328 13.422,20.328 13.153 C 20.328 12.865,20.216 12.620,19.993 12.418 C 19.764 12.211,19.553 12.131,19.151 12.099 L 18.801 12.071 18.350 12.469 C 17.791 12.963,16.500 14.215,14.630 16.076 L 13.200 17.500 13.200 10.353 L 13.200 3.207 12.873 2.904 C 12.506 2.562,12.407 2.521,11.960 2.520 C 11.741 2.520,11.617 2.542,11.500 2.599 " fill="#373B4D" stroke="none" fill-rule="evenodd"></path></svg>