<svg width="24" height="24" viewBox="0 0 24 24" fill="none" xmlns="http://www.w3.org/2000/svg"><path d="M12.558 6.272 C 12.265 6.484,12.127 6.689,12.079 6.984 C 12.000 7.467,12.016 7.542,12.265 7.849 C 12.528 8.175,13.178 8.860,14.297 9.990 L 15.099 10.800 14.440 10.799 C 14.077 10.799,11.935 10.819,9.680 10.844 L 5.580 10.889 5.376 11.041 C 4.977 11.339,4.783 11.800,4.877 12.224 C 4.940 12.503,5.120 12.764,5.415 13.003 L 5.659 13.200 10.374 13.200 L 15.089 13.200 14.077 14.230 C 12.906 15.423,12.313 16.070,12.172 16.310 C 12.090 16.450,12.071 16.537,12.066 16.810 C 12.061 17.105,12.072 17.160,12.172 17.331 C 12.402 17.723,12.916 17.999,13.315 17.944 C 13.415 17.930,13.595 17.861,13.714 17.790 C 14.121 17.545,18.388 13.299,18.872 12.657 C 18.986 12.505,19.110 12.288,19.146 12.176 C 19.206 11.988,19.206 11.958,19.145 11.774 C 19.032 11.434,18.613 10.970,16.601 8.957 C 14.643 6.997,13.944 6.338,13.696 6.221 C 13.616 6.183,13.401 6.147,13.170 6.134 L 12.780 6.111 12.558 6.272 " fill="#373B4D" stroke="none" fill-rule="evenodd"></path></svg>