<svg width="24" height="24" viewBox="0 0 24 24" fill="none" xmlns="http://www.w3.org/2000/svg"><path d="M10.328 3.784 C 10.080 3.912,9.138 4.817,6.318 7.637 C 3.554 10.403,2.655 11.338,2.530 11.580 C 2.442 11.747,2.446 12.217,2.536 12.406 C 2.656 12.658,3.535 13.577,6.279 16.320 C 9.186 19.226,10.072 20.069,10.377 20.221 C 10.797 20.430,11.304 20.313,11.644 19.927 C 11.888 19.649,11.935 19.537,11.937 19.220 C 11.942 18.750,11.867 18.658,9.477 16.200 C 8.631 15.331,7.661 14.333,7.320 13.982 L 6.700 13.344 6.860 13.313 C 6.948 13.296,10.115 13.260,13.898 13.233 L 20.775 13.184 21.040 12.934 C 21.309 12.681,21.489 12.404,21.539 12.171 C 21.610 11.832,21.317 11.203,21.021 11.063 C 20.809 10.962,19.972 10.934,15.760 10.882 C 9.900 10.809,6.987 10.759,6.842 10.727 L 6.703 10.697 6.939 10.439 C 7.068 10.296,7.905 9.424,8.798 8.500 C 11.554 5.648,11.757 5.427,11.890 5.126 C 12.083 4.691,11.779 4.018,11.300 3.817 C 11.062 3.717,10.496 3.698,10.328 3.784 " fill="#373B4D" stroke="none" fill-rule="evenodd"></path></svg>