<svg width="24" height="24" viewBox="0 0 24 24" fill="none" xmlns="http://www.w3.org/2000/svg"><path d="M11.660 2.522 C 11.594 2.542,11.413 2.662,11.257 2.789 C 10.557 3.360,4.069 9.867,3.812 10.255 C 3.741 10.361,3.672 10.525,3.658 10.619 C 3.626 10.832,3.727 11.245,3.860 11.447 C 4.056 11.743,4.514 11.960,4.944 11.960 C 5.126 11.960,5.178 11.940,5.346 11.807 C 5.659 11.559,7.050 10.222,8.990 8.302 L 10.800 6.512 10.802 12.106 C 10.804 17.826,10.838 20.338,10.920 20.709 C 11.005 21.093,11.452 21.488,11.865 21.542 C 12.213 21.588,12.486 21.481,12.783 21.185 C 12.942 21.026,13.050 20.878,13.081 20.778 C 13.142 20.583,13.190 16.300,13.196 10.530 C 13.198 8.347,13.211 6.560,13.224 6.560 C 13.237 6.560,14.043 7.346,15.014 8.307 C 16.990 10.261,18.455 11.664,18.690 11.827 C 18.827 11.922,18.882 11.934,19.154 11.933 C 19.532 11.930,19.736 11.840,20.009 11.553 C 20.269 11.278,20.417 10.967,20.388 10.753 C 20.335 10.357,20.100 10.100,16.363 6.346 C 13.522 3.494,12.803 2.803,12.524 2.662 C 12.369 2.583,11.898 2.468,11.800 2.484 C 11.789 2.486,11.726 2.503,11.660 2.522 " fill="#373B4D" stroke="none" fill-rule="evenodd"></path></svg>