<svg width="24" height="24" viewBox="0 0 24 24" fill="none" xmlns="http://www.w3.org/2000/svg"><path d="M10.800 2.602 C 9.953 2.652,9.188 2.852,8.279 3.261 C 6.771 3.938,5.535 4.887,4.488 6.170 C 3.517 7.359,2.767 9.091,2.533 10.680 C 2.428 11.395,2.439 12.868,2.554 13.500 C 2.856 15.155,3.599 16.799,4.565 17.948 C 4.922 18.373,5.698 19.144,6.080 19.452 C 6.934 20.141,8.561 20.975,9.600 21.255 C 10.436 21.481,10.632 21.500,12.100 21.497 L 13.460 21.494 14.014 21.346 C 15.888 20.845,17.402 20.015,18.653 18.802 C 19.696 17.790,20.318 16.838,20.913 15.340 C 21.339 14.268,21.411 13.950,21.483 12.820 C 21.537 11.953,21.512 10.911,21.423 10.380 C 21.183 8.955,20.388 7.240,19.397 6.013 C 18.128 4.440,15.991 3.130,14.061 2.740 C 13.262 2.578,12.060 2.527,10.800 2.602 M12.500 7.489 C 12.781 7.630,13.307 8.108,14.599 9.400 C 15.838 10.638,16.451 11.314,16.577 11.579 C 16.656 11.746,16.658 12.086,16.580 12.343 C 16.484 12.662,16.171 13.028,14.880 14.336 C 13.546 15.686,12.863 16.331,12.531 16.551 C 12.152 16.803,11.686 16.764,11.320 16.451 C 11.073 16.240,10.961 15.973,10.961 15.600 C 10.961 15.101,11.098 14.893,12.183 13.734 L 12.639 13.248 12.189 13.225 C 11.942 13.212,11.083 13.193,10.280 13.182 C 8.724 13.160,8.110 13.119,7.925 13.022 C 7.728 12.921,7.484 12.607,7.414 12.366 C 7.298 11.966,7.381 11.504,7.615 11.246 C 7.861 10.975,8.119 10.945,11.100 10.839 C 12.294 10.797,12.520 10.777,12.520 10.712 C 12.520 10.689,12.280 10.399,11.986 10.065 C 11.293 9.279,11.131 9.062,11.059 8.823 C 10.990 8.593,10.982 8.166,11.042 7.949 C 11.087 7.789,11.275 7.548,11.415 7.470 C 11.633 7.350,12.245 7.361,12.500 7.489 " fill="#373B4D" stroke="none" fill-rule="evenodd"></path></svg>