<svg width="24" height="24" viewBox="0 0 24 24" fill="none" xmlns="http://www.w3.org/2000/svg"><path d="M11.654 2.517 C 11.389 2.583,10.976 2.939,10.873 3.190 C 10.841 3.269,10.823 5.290,10.809 10.370 C 10.799 14.259,10.781 17.440,10.771 17.440 C 10.760 17.440,10.299 16.996,9.746 16.453 C 8.449 15.181,7.919 14.705,7.652 14.574 C 7.460 14.480,7.409 14.472,7.169 14.496 C 6.771 14.536,6.634 14.583,6.448 14.743 C 6.200 14.955,6.075 15.194,6.050 15.502 C 6.031 15.733,6.042 15.786,6.153 16.010 C 6.295 16.297,6.505 16.542,7.488 17.564 C 8.198 18.303,10.559 20.599,11.120 21.096 C 11.285 21.242,11.515 21.409,11.631 21.466 C 11.813 21.556,11.874 21.567,12.064 21.545 C 12.398 21.505,12.500 21.446,13.000 20.999 C 13.714 20.360,17.480 16.570,17.681 16.289 C 17.894 15.990,17.953 15.842,17.957 15.597 C 17.963 15.219,17.770 14.880,17.414 14.644 C 17.233 14.525,17.210 14.520,16.796 14.520 L 16.365 14.520 16.069 14.756 C 15.730 15.025,15.081 15.638,13.970 16.737 L 13.200 17.499 13.200 10.359 L 13.200 3.218 12.890 2.911 C 12.720 2.742,12.535 2.588,12.480 2.567 C 12.333 2.513,11.800 2.481,11.654 2.517 " fill="#373B4D" stroke="none" fill-rule="evenodd"></path></svg>