<svg width="24" height="24" viewBox="0 0 24 24" fill="none" xmlns="http://www.w3.org/2000/svg"><path d="M10.240 6.190 C 9.874 6.429,5.960 10.293,5.248 11.120 C 4.792 11.649,4.707 11.979,4.915 12.409 C 4.963 12.509,5.249 12.858,5.550 13.185 C 6.365 14.069,9.652 17.346,10.012 17.631 C 10.353 17.903,10.663 18.026,10.891 17.980 C 11.226 17.913,11.393 17.831,11.595 17.634 C 11.871 17.363,11.930 17.238,11.952 16.877 C 11.984 16.332,11.921 16.248,10.104 14.410 L 8.909 13.200 13.617 13.200 L 18.326 13.200 18.509 13.074 C 18.943 12.775,19.160 12.412,19.160 11.984 C 19.160 11.575,18.991 11.274,18.616 11.016 L 18.397 10.865 15.509 10.835 C 13.920 10.819,11.783 10.805,10.760 10.803 L 8.901 10.800 9.823 9.870 C 11.098 8.584,11.673 7.974,11.804 7.767 C 11.980 7.489,12.024 7.224,11.941 6.939 C 11.850 6.626,11.687 6.398,11.438 6.239 C 11.247 6.116,11.203 6.105,10.826 6.090 C 10.432 6.074,10.415 6.077,10.240 6.190 " fill="#373B4D" stroke="none" fill-rule="evenodd"></path></svg>