<svg width="24" height="24" viewBox="0 0 24 24" fill="none" xmlns="http://www.w3.org/2000/svg"><path d="M12.780 6.122 C 12.610 6.174,12.298 6.454,12.173 6.668 C 12.080 6.828,12.066 6.895,12.063 7.218 L 12.060 7.586 12.229 7.810 C 12.435 8.083,13.050 8.732,14.217 9.910 L 15.099 10.800 13.800 10.801 C 13.085 10.801,10.944 10.819,9.042 10.841 L 5.584 10.880 5.430 10.987 C 4.781 11.437,4.656 12.213,5.145 12.757 C 5.247 12.871,5.408 13.017,5.502 13.082 L 5.674 13.200 10.382 13.200 L 15.089 13.200 13.957 14.350 C 12.733 15.594,12.243 16.133,12.131 16.357 C 12.081 16.458,12.060 16.593,12.060 16.820 C 12.060 17.097,12.075 17.165,12.170 17.327 C 12.498 17.885,13.122 18.111,13.633 17.856 C 13.761 17.792,14.071 17.538,14.431 17.202 C 15.342 16.351,18.508 13.141,18.811 12.760 C 19.146 12.340,19.240 12.089,19.167 11.814 C 19.063 11.427,18.747 11.075,16.395 8.734 C 14.401 6.750,13.940 6.317,13.700 6.203 C 13.515 6.116,12.961 6.067,12.780 6.122 " fill="#373B4D" stroke="none" fill-rule="evenodd"></path></svg>