<svg width="24" height="24" viewBox="0 0 24 24" fill="none" xmlns="http://www.w3.org/2000/svg"><path d="M11.528 2.584 C 11.455 2.622,11.239 2.788,11.048 2.954 C 10.576 3.365,8.626 5.296,7.330 6.636 C 6.428 7.569,6.252 7.771,6.150 7.989 C 5.958 8.399,6.025 8.749,6.368 9.140 C 6.616 9.422,6.841 9.535,7.157 9.538 C 7.660 9.542,7.764 9.462,9.670 7.610 L 10.800 6.512 10.802 12.106 C 10.804 17.826,10.838 20.338,10.920 20.709 C 11.005 21.093,11.452 21.488,11.865 21.542 C 12.213 21.588,12.486 21.481,12.783 21.185 C 12.942 21.026,13.050 20.878,13.081 20.778 C 13.142 20.582,13.190 16.296,13.196 10.500 L 13.200 6.501 13.990 7.283 C 15.756 9.031,16.176 9.396,16.549 9.504 C 16.902 9.607,17.237 9.515,17.546 9.230 C 17.753 9.040,17.848 8.871,17.919 8.567 C 17.992 8.259,17.954 8.072,17.770 7.828 C 17.383 7.317,13.968 3.868,13.067 3.079 C 12.570 2.644,12.381 2.548,11.980 2.531 C 11.737 2.520,11.628 2.533,11.528 2.584 " fill="#373B4D" stroke="none" fill-rule="evenodd"></path></svg>