<svg width="24" height="24" viewBox="0 0 24 24" fill="none" xmlns="http://www.w3.org/2000/svg"><path d="M12.834 3.717 C 12.370 3.866,11.937 4.511,12.016 4.935 C 12.084 5.295,12.492 5.749,15.415 8.713 C 16.507 9.820,17.400 10.742,17.400 10.763 C 17.400 10.785,17.066 10.800,16.590 10.800 C 14.701 10.799,5.710 10.886,4.474 10.917 C 2.918 10.955,2.927 10.953,2.668 11.346 C 2.448 11.681,2.387 12.174,2.530 12.460 C 2.607 12.612,2.851 12.887,3.049 13.043 L 3.247 13.200 10.373 13.200 L 17.500 13.200 15.858 14.850 C 12.138 18.589,12.002 18.747,12.050 19.278 C 12.062 19.403,12.110 19.582,12.157 19.675 C 12.354 20.060,12.800 20.359,13.180 20.359 C 13.488 20.359,13.724 20.222,14.280 19.719 C 14.960 19.104,20.667 13.394,21.073 12.923 C 21.493 12.435,21.540 12.338,21.540 11.957 C 21.540 11.685,21.528 11.635,21.420 11.480 C 21.232 11.209,19.340 9.268,16.895 6.839 C 14.578 4.536,13.903 3.897,13.674 3.790 C 13.514 3.715,12.984 3.669,12.834 3.717 " fill="#373B4D" stroke="none" fill-rule="evenodd"></path></svg>