<svg width="24" height="24" viewBox="0 0 24 24" fill="none" xmlns="http://www.w3.org/2000/svg"><path d="M6.720 3.682 C 4.874 3.718,4.515 3.742,4.280 3.845 C 4.075 3.935,3.885 4.104,3.716 4.347 L 3.600 4.514 3.600 7.247 L 3.600 9.979 3.872 10.239 C 4.150 10.506,4.466 10.691,4.728 10.740 C 4.955 10.783,5.243 10.668,5.503 10.431 C 5.888 10.079,5.933 9.931,6.001 8.800 C 6.027 8.371,6.061 7.997,6.077 7.968 C 6.117 7.895,6.240 8.000,7.534 9.216 C 9.133 10.718,9.164 10.741,9.619 10.711 C 10.040 10.684,10.315 10.546,10.495 10.273 C 10.689 9.980,10.782 9.630,10.724 9.416 C 10.621 9.031,10.235 8.572,8.702 7.010 L 7.711 6.000 8.366 5.999 C 9.867 5.996,10.269 5.875,10.587 5.331 C 10.879 4.834,10.726 4.278,10.174 3.824 L 9.951 3.640 9.085 3.647 C 8.609 3.650,7.545 3.666,6.720 3.682 M15.400 3.758 C 14.330 3.774,13.876 3.794,13.815 3.829 C 13.546 3.983,13.240 4.478,13.240 4.760 C 13.240 5.094,13.519 5.574,13.822 5.761 C 14.074 5.917,14.366 5.961,15.330 5.987 C 15.831 6.001,16.240 6.021,16.240 6.031 C 16.240 6.041,15.848 6.449,15.370 6.938 C 13.883 8.456,13.393 9.013,13.322 9.269 C 13.179 9.786,13.458 10.402,13.938 10.625 C 14.178 10.737,14.615 10.756,14.796 10.662 C 15.000 10.557,15.445 10.168,16.560 9.122 C 17.165 8.554,17.718 8.042,17.788 7.983 L 17.916 7.876 17.936 8.008 C 17.947 8.081,17.975 8.473,17.999 8.880 C 18.063 9.991,18.130 10.187,18.549 10.490 C 18.794 10.667,18.955 10.720,19.250 10.720 C 19.562 10.720,19.687 10.655,20.076 10.294 L 20.400 9.993 20.400 7.206 L 20.400 4.418 20.049 4.069 L 19.698 3.720 18.299 3.728 C 17.530 3.732,16.225 3.746,15.400 3.758 M13.975 13.354 C 13.708 13.480,13.374 13.842,13.302 14.086 C 13.132 14.658,13.246 14.843,14.725 16.401 C 15.820 17.555,16.120 17.882,16.120 17.922 C 16.120 17.972,15.952 17.995,15.118 18.059 C 14.235 18.127,13.965 18.170,13.761 18.273 C 13.480 18.417,13.204 18.996,13.257 19.331 C 13.298 19.589,13.471 19.862,13.775 20.149 L 14.055 20.413 16.578 20.386 C 17.965 20.372,19.215 20.343,19.357 20.322 C 19.670 20.276,19.932 20.108,20.216 19.772 L 20.412 19.540 20.386 17.040 C 20.371 15.665,20.343 14.427,20.323 14.288 C 20.271 13.939,20.157 13.729,19.911 13.530 L 19.700 13.361 19.295 13.360 C 18.715 13.360,18.655 13.379,18.394 13.640 C 18.084 13.950,18.091 13.915,17.964 15.573 C 17.944 15.833,17.917 16.056,17.905 16.068 C 17.865 16.108,17.712 15.979,17.040 15.338 C 16.077 14.418,15.368 13.769,15.140 13.598 C 14.776 13.325,14.266 13.218,13.975 13.354 M4.090 13.538 C 3.922 13.669,3.783 13.815,3.740 13.905 C 3.640 14.115,3.604 15.074,3.602 17.546 L 3.600 19.551 3.790 19.778 C 4.056 20.095,4.328 20.272,4.621 20.321 C 4.753 20.343,6.012 20.372,7.421 20.387 L 9.981 20.413 10.235 20.136 C 10.586 19.753,10.685 19.571,10.710 19.264 C 10.747 18.803,10.550 18.452,10.140 18.249 C 9.918 18.139,9.846 18.128,8.920 18.060 C 8.048 17.996,7.880 17.974,7.880 17.920 C 7.880 17.885,8.093 17.652,9.160 16.520 C 10.335 15.275,10.723 14.792,10.776 14.507 C 10.810 14.326,10.690 14.004,10.490 13.744 C 10.279 13.467,10.176 13.403,9.861 13.354 C 9.197 13.251,9.088 13.320,7.380 14.940 C 6.361 15.907,6.092 16.147,6.064 16.116 C 6.056 16.107,6.029 15.675,6.003 15.156 C 5.978 14.637,5.940 14.150,5.919 14.073 C 5.869 13.894,5.638 13.626,5.425 13.501 C 5.257 13.402,4.861 13.322,4.534 13.321 C 4.393 13.320,4.326 13.353,4.090 13.538 " fill="#373B4D" stroke="none" fill-rule="evenodd"></path></svg>