<svg width="24" height="24" viewBox="0 0 24 24" fill="none" xmlns="http://www.w3.org/2000/svg"><path d="M7.020 3.684 C 5.341 3.719,4.582 3.767,4.330 3.857 C 4.103 3.936,3.945 4.060,3.758 4.303 L 3.600 4.507 3.600 7.250 L 3.600 9.994 3.850 10.216 C 4.160 10.493,4.498 10.676,4.752 10.707 C 4.977 10.733,5.225 10.642,5.484 10.437 C 5.812 10.177,5.907 9.868,6.020 8.700 C 6.056 8.326,6.099 8.006,6.115 7.990 C 6.148 7.956,6.338 8.118,7.340 9.041 C 8.575 10.178,8.973 10.519,9.192 10.627 C 9.377 10.718,9.434 10.728,9.652 10.705 C 9.998 10.669,10.293 10.516,10.460 10.286 C 10.627 10.057,10.771 9.638,10.735 9.488 C 10.683 9.273,10.515 8.997,10.220 8.643 C 9.925 8.289,8.605 6.892,8.044 6.341 C 7.888 6.188,7.760 6.048,7.760 6.031 C 7.760 6.014,8.008 5.999,8.310 5.999 C 8.989 5.997,9.623 5.942,9.903 5.861 C 10.192 5.777,10.436 5.581,10.579 5.319 C 10.678 5.139,10.699 5.054,10.698 4.840 C 10.697 4.490,10.588 4.263,10.254 3.917 L 9.987 3.640 9.263 3.646 C 8.866 3.650,7.856 3.667,7.020 3.684 M16.080 3.763 C 15.101 3.780,14.185 3.806,14.044 3.821 C 13.804 3.846,13.775 3.860,13.597 4.043 C 13.180 4.471,13.176 5.037,13.586 5.516 C 13.893 5.874,14.149 5.944,15.373 5.999 C 15.788 6.018,16.136 6.043,16.147 6.054 C 16.172 6.079,16.048 6.215,14.947 7.373 C 13.548 8.845,13.280 9.187,13.280 9.501 C 13.280 9.694,13.394 10.040,13.527 10.249 C 13.673 10.479,14.027 10.672,14.366 10.707 C 14.765 10.748,14.890 10.658,16.600 9.084 C 17.885 7.902,17.880 7.907,17.897 7.924 C 17.905 7.933,17.942 8.282,17.978 8.700 C 18.047 9.514,18.115 9.914,18.222 10.140 C 18.347 10.402,18.784 10.672,19.145 10.709 C 19.330 10.728,19.394 10.714,19.610 10.607 C 19.747 10.539,19.982 10.373,20.130 10.238 L 20.400 9.994 20.400 7.208 L 20.400 4.422 20.051 4.071 L 19.702 3.720 18.781 3.727 C 18.274 3.730,17.059 3.747,16.080 3.763 M4.339 13.393 C 4.158 13.478,3.827 13.791,3.738 13.963 C 3.647 14.140,3.601 15.352,3.601 17.606 L 3.600 19.592 3.898 19.871 C 4.062 20.024,4.259 20.179,4.335 20.215 C 4.583 20.333,5.144 20.362,7.582 20.387 L 9.984 20.411 10.212 20.155 C 10.337 20.015,10.498 19.792,10.569 19.660 C 10.799 19.236,10.731 18.772,10.394 18.454 C 10.125 18.202,9.985 18.168,8.800 18.061 C 8.047 17.993,7.880 17.969,7.880 17.927 C 7.880 17.912,8.206 17.549,8.604 17.120 C 9.511 16.142,10.169 15.409,10.415 15.103 C 10.797 14.627,10.841 14.414,10.637 14.008 C 10.419 13.571,10.087 13.360,9.620 13.360 C 9.166 13.360,8.940 13.504,7.940 14.427 C 7.654 14.691,7.123 15.181,6.760 15.517 L 6.100 16.126 6.075 15.973 C 6.061 15.889,6.028 15.487,6.003 15.080 C 5.977 14.673,5.929 14.241,5.895 14.120 C 5.808 13.811,5.539 13.554,5.191 13.446 C 4.786 13.321,4.528 13.305,4.339 13.393 M14.031 13.348 C 13.870 13.373,13.452 13.803,13.332 14.067 C 13.213 14.325,13.225 14.494,13.382 14.804 C 13.511 15.058,13.736 15.323,14.858 16.540 C 15.365 17.090,15.860 17.629,15.958 17.738 L 16.136 17.936 16.018 17.965 C 15.953 17.981,15.603 18.024,15.240 18.059 C 14.273 18.153,13.958 18.199,13.834 18.263 C 13.526 18.422,13.272 18.871,13.274 19.250 C 13.276 19.500,13.413 19.750,13.753 20.122 L 14.016 20.411 16.358 20.388 C 18.738 20.364,19.427 20.328,19.669 20.213 C 19.743 20.178,19.940 20.021,20.108 19.865 L 20.412 19.581 20.387 17.240 C 20.361 14.863,20.328 14.193,20.228 13.953 C 20.198 13.880,20.078 13.717,19.962 13.590 L 19.752 13.360 19.421 13.360 C 18.569 13.360,18.227 13.589,18.102 14.243 C 18.071 14.406,18.014 14.859,17.976 15.249 C 17.938 15.639,17.893 15.979,17.877 16.005 C 17.837 16.070,17.777 16.020,16.660 14.984 C 15.327 13.747,15.187 13.629,14.856 13.466 C 14.660 13.369,14.256 13.311,14.031 13.348 " fill="#373B4D" stroke="none" fill-rule="evenodd"></path></svg>