<svg width="24" height="24" viewBox="0 0 24 24" fill="none" xmlns="http://www.w3.org/2000/svg"><path d="M11.520 4.943 C 11.443 4.977,11.284 5.097,11.167 5.212 C 10.784 5.586,10.821 5.045,10.809 10.373 L 10.798 15.087 9.669 13.977 C 8.374 12.703,7.868 12.241,7.657 12.141 C 7.540 12.086,7.436 12.074,7.164 12.088 C 6.769 12.108,6.596 12.175,6.362 12.402 C 6.144 12.614,6.071 12.774,6.049 13.090 C 6.013 13.585,6.108 13.732,7.197 14.875 C 7.945 15.659,10.595 18.253,11.118 18.711 C 11.306 18.876,11.532 19.044,11.620 19.085 C 11.804 19.169,12.100 19.181,12.327 19.113 C 12.552 19.046,12.867 18.763,14.637 17.037 C 16.378 15.340,17.511 14.164,17.755 13.798 C 18.081 13.310,18.055 12.860,17.679 12.463 C 17.396 12.163,17.206 12.080,16.804 12.080 C 16.559 12.080,16.439 12.100,16.325 12.157 C 16.107 12.269,15.572 12.757,14.310 13.998 L 13.200 15.089 13.200 10.365 L 13.200 5.641 12.987 5.390 C 12.748 5.109,12.577 4.980,12.365 4.921 C 12.151 4.861,11.681 4.874,11.520 4.943 " fill="#373B4D" stroke="none" fill-rule="evenodd"></path></svg>