<svg width="24" height="24" viewBox="0 0 24 24" fill="none" xmlns="http://www.w3.org/2000/svg"><path d="M10.660 2.601 C 9.835 2.654,8.901 2.934,7.932 3.419 C 6.915 3.928,6.190 4.422,5.524 5.059 C 4.210 6.315,3.506 7.395,2.955 8.996 C 2.612 9.992,2.499 10.606,2.456 11.693 C 2.402 13.057,2.604 14.186,3.137 15.514 C 3.660 16.813,4.230 17.672,5.239 18.681 C 6.113 19.556,6.684 19.967,7.781 20.513 C 8.654 20.948,9.091 21.124,9.682 21.279 C 10.454 21.481,11.004 21.530,12.289 21.509 C 13.385 21.492,13.435 21.487,13.920 21.369 C 16.834 20.654,19.188 18.870,20.433 16.434 C 20.676 15.959,21.082 14.964,21.239 14.460 C 21.392 13.967,21.438 13.640,21.487 12.712 C 21.590 10.728,21.434 9.797,20.732 8.201 C 19.765 6.002,18.098 4.338,15.838 3.317 C 14.934 2.909,14.057 2.676,13.140 2.601 C 12.607 2.557,11.338 2.557,10.660 2.601 M12.483 7.450 C 12.676 7.531,12.921 7.752,12.983 7.900 C 13.011 7.967,13.045 8.210,13.059 8.441 L 13.085 8.860 12.264 9.780 C 11.812 10.286,11.442 10.711,11.441 10.725 C 11.439 10.771,11.816 10.798,13.040 10.839 C 14.618 10.892,15.734 10.956,15.959 11.005 C 16.387 11.099,16.546 11.306,16.608 11.849 C 16.658 12.290,16.621 12.474,16.429 12.726 C 16.255 12.953,16.014 13.068,15.600 13.120 C 15.413 13.144,14.383 13.174,13.310 13.188 C 12.238 13.201,11.360 13.221,11.360 13.231 C 11.360 13.241,11.582 13.485,11.853 13.774 C 12.518 14.483,12.820 14.851,12.945 15.107 C 13.040 15.300,13.048 15.355,13.033 15.673 C 13.019 15.963,12.997 16.058,12.911 16.206 C 12.728 16.518,12.218 16.790,11.913 16.739 C 11.639 16.693,11.204 16.355,10.280 15.471 C 8.768 14.026,7.615 12.818,7.456 12.511 C 7.376 12.357,7.341 11.856,7.397 11.651 C 7.458 11.425,7.696 11.135,8.628 10.150 C 9.817 8.892,11.280 7.528,11.580 7.395 C 11.698 7.343,12.318 7.380,12.483 7.450 " fill="#373B4D" stroke="none" fill-rule="evenodd"></path></svg>