<svg width="24" height="24" viewBox="0 0 24 24" fill="none" xmlns="http://www.w3.org/2000/svg"><path d="M10.660 2.601 C 9.835 2.654,8.901 2.934,7.932 3.419 C 6.915 3.928,6.190 4.422,5.524 5.059 C 4.210 6.315,3.506 7.395,2.955 8.996 C 2.612 9.992,2.499 10.606,2.456 11.693 C 2.402 13.057,2.604 14.186,3.137 15.514 C 3.660 16.813,4.230 17.672,5.239 18.681 C 6.113 19.556,6.684 19.967,7.781 20.513 C 8.654 20.948,9.091 21.124,9.682 21.279 C 10.454 21.481,11.004 21.530,12.289 21.509 C 13.385 21.492,13.435 21.487,13.920 21.369 C 16.834 20.654,19.188 18.870,20.433 16.434 C 20.676 15.959,21.082 14.964,21.239 14.460 C 21.392 13.967,21.438 13.640,21.487 12.712 C 21.590 10.728,21.434 9.797,20.732 8.201 C 19.765 6.002,18.098 4.338,15.838 3.317 C 14.934 2.909,14.057 2.676,13.140 2.601 C 12.607 2.557,11.338 2.557,10.660 2.601 M12.648 7.507 C 13.010 7.755,13.020 7.820,13.142 10.680 C 13.177 11.505,13.218 12.267,13.233 12.373 L 13.260 12.566 14.000 11.920 C 14.407 11.565,14.848 11.204,14.980 11.117 C 15.210 10.966,15.232 10.960,15.551 10.960 C 15.837 10.960,15.914 10.976,16.111 11.076 C 16.237 11.139,16.371 11.225,16.408 11.267 C 16.533 11.405,16.634 11.695,16.681 12.050 L 16.727 12.399 16.607 12.550 C 16.353 12.868,12.847 16.315,12.600 16.488 C 12.127 16.822,11.922 16.829,11.457 16.527 C 11.020 16.244,9.141 14.410,7.933 13.087 C 7.466 12.577,7.410 12.487,7.357 12.167 C 7.282 11.714,7.455 11.316,7.829 11.078 C 7.999 10.971,8.047 10.960,8.362 10.960 C 8.874 10.960,8.919 10.988,10.095 12.018 C 10.422 12.305,10.701 12.536,10.715 12.532 C 10.772 12.514,10.797 12.190,10.839 10.880 C 10.909 8.690,10.965 8.079,11.126 7.736 C 11.270 7.429,11.488 7.352,12.120 7.385 C 12.442 7.402,12.523 7.420,12.648 7.507 " fill="#373B4D" stroke="none" fill-rule="evenodd"></path></svg>