<svg width="24" height="24" viewBox="0 0 24 24" fill="none" xmlns="http://www.w3.org/2000/svg"><path d="M11.540 4.993 C 11.452 5.034,11.218 5.209,11.020 5.381 C 10.559 5.781,7.148 9.195,6.610 9.795 C 6.039 10.432,5.931 10.747,6.135 11.180 C 6.358 11.654,6.737 11.928,7.175 11.932 C 7.644 11.937,7.772 11.839,9.559 10.119 C 10.650 9.067,10.739 8.991,10.765 9.082 C 10.780 9.136,10.794 10.449,10.797 12.000 C 10.803 15.589,10.858 18.063,10.939 18.341 C 11.007 18.578,11.225 18.847,11.476 19.006 C 11.633 19.106,11.694 19.120,11.963 19.120 C 12.222 19.120,12.305 19.102,12.484 19.009 C 12.736 18.877,13.017 18.553,13.079 18.322 C 13.152 18.052,13.198 15.728,13.199 12.247 L 13.200 8.914 14.350 10.033 C 15.772 11.417,16.034 11.650,16.350 11.807 C 16.805 12.033,17.208 11.956,17.596 11.568 C 17.752 11.411,17.811 11.314,17.877 11.101 C 18.038 10.578,17.987 10.450,17.332 9.740 C 16.030 8.328,13.292 5.627,12.782 5.250 C 12.469 5.020,12.337 4.968,11.989 4.940 C 11.754 4.921,11.670 4.931,11.540 4.993 " fill="#373B4D" stroke="none" fill-rule="evenodd"></path></svg>