<svg width="24" height="24" viewBox="0 0 24 24" fill="none" xmlns="http://www.w3.org/2000/svg"><path d="M10.240 3.791 C 9.875 4.028,4.332 9.523,3.051 10.918 C 2.777 11.216,2.526 11.511,2.493 11.574 C 2.455 11.647,2.434 11.802,2.434 12.007 C 2.434 12.404,2.453 12.436,3.149 13.187 C 4.407 14.545,9.489 19.585,10.087 20.068 C 10.413 20.332,10.637 20.408,10.947 20.359 C 11.348 20.295,11.731 20.006,11.890 19.647 C 11.989 19.424,11.999 19.007,11.911 18.800 C 11.818 18.578,11.249 17.976,8.828 15.535 L 6.564 13.253 8.872 13.227 C 10.141 13.212,13.329 13.200,15.955 13.200 L 20.730 13.200 20.984 13.019 C 21.406 12.718,21.561 12.439,21.559 11.985 C 21.558 11.586,21.272 11.100,20.963 10.970 C 20.738 10.876,19.287 10.849,12.630 10.818 C 9.314 10.803,6.600 10.774,6.600 10.755 C 6.600 10.737,7.557 9.753,8.726 8.571 C 11.085 6.183,11.704 5.529,11.865 5.255 C 12.143 4.781,11.877 4.041,11.336 3.780 C 11.227 3.727,11.065 3.700,10.800 3.689 C 10.436 3.675,10.413 3.679,10.240 3.791 " fill="#373B4D" stroke="none" fill-rule="evenodd"></path></svg>