<svg width="24" height="24" viewBox="0 0 24 24" fill="none" xmlns="http://www.w3.org/2000/svg"><path d="M15.190 6.106 C 15.046 6.131,14.658 6.488,14.549 6.696 C 14.480 6.828,14.463 6.931,14.462 7.220 C 14.460 7.560,14.467 7.590,14.585 7.760 C 14.746 7.990,15.454 8.741,16.590 9.885 L 17.489 10.790 12.035 10.818 C 6.170 10.847,3.351 10.893,3.109 10.961 C 2.661 11.089,2.341 11.765,2.476 12.300 C 2.544 12.570,2.698 12.777,2.996 13.001 L 3.260 13.199 10.374 13.200 L 17.488 13.200 16.318 14.390 C 14.516 16.222,14.440 16.319,14.440 16.800 C 14.440 17.117,14.515 17.308,14.734 17.548 C 15.184 18.041,15.736 18.110,16.244 17.737 C 16.722 17.387,20.745 13.360,21.242 12.734 C 21.527 12.375,21.620 12.148,21.585 11.893 C 21.530 11.488,21.262 11.181,18.960 8.880 C 17.149 7.069,16.315 6.285,16.088 6.177 C 15.947 6.110,15.410 6.068,15.190 6.106 " fill="#373B4D" stroke="none" fill-rule="evenodd"></path></svg>