<svg width="24" height="24" viewBox="0 0 24 24" fill="none" xmlns="http://www.w3.org/2000/svg"><path d="M10.289 2.625 C 9.884 2.688,9.108 2.900,8.687 3.064 C 7.846 3.390,6.714 4.042,6.040 4.589 C 5.622 4.928,4.580 5.998,4.311 6.365 C 3.488 7.486,2.931 8.746,2.599 10.240 C 2.430 11.002,2.402 12.647,2.544 13.480 C 2.754 14.707,3.342 16.217,3.993 17.200 C 4.677 18.233,5.842 19.378,6.866 20.023 C 7.315 20.306,8.462 20.870,8.970 21.057 C 9.925 21.410,10.747 21.536,12.080 21.534 C 12.901 21.533,13.134 21.519,13.520 21.448 C 15.715 21.046,17.863 19.828,19.258 18.196 C 20.031 17.291,20.567 16.333,21.060 14.972 C 21.389 14.066,21.440 13.808,21.485 12.820 C 21.527 11.881,21.505 10.799,21.433 10.340 C 21.294 9.444,20.679 7.897,20.099 6.980 C 19.148 5.480,17.896 4.341,16.320 3.543 C 15.235 2.994,14.306 2.706,13.286 2.602 C 12.677 2.540,10.743 2.555,10.289 2.625 M12.412 7.418 C 12.627 7.494,12.867 7.670,12.957 7.816 C 13.015 7.909,13.042 8.053,13.063 8.389 L 13.091 8.837 12.751 9.228 C 12.564 9.444,12.193 9.863,11.926 10.160 C 11.658 10.457,11.440 10.711,11.440 10.725 C 11.440 10.775,11.769 10.798,13.120 10.839 C 14.763 10.890,15.726 10.945,16.003 11.004 C 16.251 11.058,16.447 11.220,16.538 11.447 C 16.625 11.663,16.662 12.212,16.605 12.422 C 16.550 12.624,16.320 12.898,16.121 13.000 C 15.857 13.134,15.398 13.165,13.332 13.188 L 11.323 13.210 11.838 13.755 C 12.993 14.979,13.133 15.219,13.040 15.816 C 12.976 16.230,12.830 16.422,12.420 16.629 C 12.024 16.830,11.802 16.786,11.295 16.407 C 10.910 16.120,8.499 13.758,7.930 13.111 C 7.399 12.505,7.386 12.482,7.367 12.056 C 7.348 11.613,7.381 11.528,7.744 11.103 C 8.571 10.133,10.897 7.838,11.383 7.511 C 11.599 7.366,11.622 7.360,11.934 7.362 C 12.113 7.363,12.328 7.388,12.412 7.418 " fill="#373B4D" stroke="none" fill-rule="evenodd"></path></svg>