<svg width="24" height="24" viewBox="0 0 24 24" fill="none" xmlns="http://www.w3.org/2000/svg"><path d="M12.471 3.994 C 12.042 4.449,11.941 4.770,12.113 5.126 C 12.262 5.434,12.703 5.911,15.895 9.220 L 17.361 10.740 17.103 10.766 C 16.961 10.781,15.219 10.813,13.232 10.837 C 4.756 10.939,3.200 10.979,2.949 11.099 C 2.806 11.168,2.703 11.312,2.561 11.640 C 2.359 12.106,2.470 12.464,2.962 12.939 L 3.232 13.200 10.366 13.200 L 17.500 13.200 16.096 14.610 C 13.359 17.360,12.418 18.369,12.176 18.815 C 11.963 19.207,12.079 19.648,12.496 20.030 C 12.846 20.349,13.257 20.413,13.623 20.203 C 13.884 20.053,14.890 19.098,17.337 16.676 C 19.843 14.196,21.223 12.762,21.376 12.480 C 21.524 12.208,21.567 11.767,21.465 11.569 C 21.338 11.323,16.280 6.193,14.752 4.760 C 13.872 3.935,13.696 3.815,13.278 3.761 C 12.747 3.692,12.759 3.689,12.471 3.994 " fill="#373B4D" stroke="none" fill-rule="evenodd"></path></svg>