<svg width="24" height="24" viewBox="0 0 24 24" fill="none" xmlns="http://www.w3.org/2000/svg"><path d="M7.940 6.134 C 7.757 6.219,6.591 7.326,4.857 9.058 C 3.162 10.751,2.695 11.260,2.528 11.600 C 2.402 11.857,2.388 12.148,2.492 12.347 C 2.654 12.654,3.177 13.220,4.959 15.015 C 7.679 17.755,7.925 17.966,8.406 17.966 C 8.791 17.966,9.207 17.706,9.430 17.327 C 9.525 17.165,9.540 17.097,9.540 16.820 C 9.540 16.540,9.526 16.476,9.425 16.305 C 9.257 16.018,8.869 15.593,7.625 14.331 L 6.510 13.200 13.631 13.200 L 20.753 13.200 20.949 13.045 C 21.353 12.726,21.560 12.378,21.560 12.020 C 21.560 11.667,21.290 11.165,21.027 11.029 C 20.795 10.908,20.043 10.890,13.000 10.837 C 9.469 10.810,6.573 10.783,6.565 10.776 C 6.556 10.769,7.023 10.281,7.601 9.691 C 8.833 8.436,9.371 7.842,9.481 7.617 C 9.579 7.415,9.584 7.086,9.493 6.817 C 9.406 6.563,9.074 6.223,8.856 6.165 C 8.573 6.089,8.072 6.072,7.940 6.134 " fill="#373B4D" stroke="none" fill-rule="evenodd"></path></svg>