<svg width="24" height="24" viewBox="0 0 24 24" fill="none" xmlns="http://www.w3.org/2000/svg"><path d="M11.520 2.543 C 11.358 2.613,10.984 2.965,10.887 3.140 C 10.825 3.251,10.819 3.810,10.809 10.373 L 10.798 17.487 9.669 16.377 C 8.374 15.103,7.868 14.641,7.657 14.541 C 7.540 14.486,7.436 14.474,7.164 14.488 C 6.769 14.508,6.596 14.575,6.362 14.802 C 6.144 15.014,6.071 15.174,6.049 15.490 C 6.024 15.828,6.100 16.042,6.353 16.355 C 6.693 16.776,7.856 17.966,9.318 19.390 C 11.506 21.522,11.584 21.584,12.056 21.552 C 12.190 21.543,12.366 21.504,12.446 21.465 C 12.649 21.367,13.665 20.408,15.525 18.557 C 17.172 16.918,17.672 16.377,17.865 16.027 C 18.140 15.526,17.889 14.873,17.301 14.564 C 17.081 14.448,16.546 14.445,16.325 14.557 C 16.107 14.669,15.572 15.157,14.310 16.398 L 13.200 17.489 13.200 10.365 L 13.200 3.241 12.987 2.990 C 12.748 2.709,12.577 2.580,12.365 2.521 C 12.151 2.461,11.681 2.474,11.520 2.543 " fill="#373B4D" stroke="none" fill-rule="evenodd"></path></svg>