<svg width="24" height="24" viewBox="0 0 24 24" fill="none" xmlns="http://www.w3.org/2000/svg"><path d="M10.218 6.245 C 9.799 6.510,5.221 11.158,5.025 11.517 C 4.901 11.746,4.846 12.113,4.912 12.280 C 5.012 12.537,5.487 13.051,7.438 15.014 C 9.602 17.191,10.110 17.663,10.458 17.825 C 10.906 18.034,11.387 17.875,11.721 17.409 C 11.923 17.127,11.992 16.837,11.919 16.578 C 11.825 16.239,11.603 15.980,9.909 14.230 L 8.912 13.200 13.653 13.200 L 18.394 13.200 18.638 12.930 C 19.070 12.453,19.213 12.002,19.049 11.632 C 18.948 11.403,18.720 11.148,18.539 11.062 C 18.359 10.977,17.467 10.940,14.140 10.881 C 11.260 10.829,9.378 10.774,9.250 10.737 C 9.200 10.722,9.160 10.696,9.160 10.677 C 9.160 10.624,9.506 10.225,10.165 9.520 C 11.085 8.537,11.634 7.921,11.772 7.722 C 11.927 7.497,11.959 7.213,11.862 6.911 C 11.712 6.443,11.504 6.273,10.963 6.177 C 10.521 6.098,10.439 6.105,10.218 6.245 " fill="#373B4D" stroke="none" fill-rule="evenodd"></path></svg>