<svg width="24" height="24" viewBox="0 0 24 24" fill="none" xmlns="http://www.w3.org/2000/svg"><path d="M11.614 2.561 C 11.411 2.624,11.114 2.851,10.979 3.047 L 10.853 3.230 10.827 5.761 C 10.812 7.154,10.800 9.744,10.800 11.517 C 10.800 13.289,10.788 15.347,10.773 16.088 L 10.747 17.437 9.161 15.868 C 6.434 13.171,5.611 12.408,5.207 12.199 C 5.060 12.122,4.994 12.112,4.761 12.132 C 4.389 12.163,4.116 12.288,3.905 12.523 C 3.623 12.836,3.569 13.227,3.756 13.590 C 3.880 13.832,4.429 14.420,6.486 16.520 C 8.438 18.511,10.848 20.868,11.307 21.234 C 11.658 21.514,11.868 21.587,12.150 21.528 C 12.445 21.466,12.605 21.338,13.771 20.220 C 15.084 18.962,19.819 14.193,20.029 13.917 C 20.335 13.515,20.401 13.117,20.225 12.738 C 20.052 12.367,19.731 12.174,19.178 12.110 L 18.806 12.066 18.353 12.468 C 17.783 12.974,16.384 14.331,14.590 16.116 L 13.200 17.500 13.200 10.354 L 13.200 3.209 12.954 2.981 C 12.537 2.595,12.442 2.547,12.067 2.534 C 11.887 2.528,11.683 2.540,11.614 2.561 " fill="#373B4D" stroke="none" fill-rule="evenodd"></path></svg>