<svg width="24" height="24" viewBox="0 0 24 24" fill="none" xmlns="http://www.w3.org/2000/svg"><path d="M10.340 6.134 C 10.157 6.219,8.991 7.326,7.257 9.058 C 5.562 10.751,5.095 11.260,4.928 11.600 C 4.802 11.857,4.788 12.148,4.892 12.347 C 5.054 12.654,5.577 13.220,7.359 15.015 C 10.079 17.755,10.325 17.966,10.806 17.966 C 11.191 17.966,11.607 17.706,11.830 17.327 C 11.925 17.165,11.940 17.097,11.940 16.820 C 11.940 16.540,11.926 16.476,11.825 16.305 C 11.657 16.018,11.269 15.593,10.025 14.331 L 8.910 13.200 13.620 13.200 L 18.329 13.200 18.525 13.056 C 18.740 12.898,18.951 12.656,19.061 12.440 C 19.149 12.269,19.160 11.811,19.082 11.582 C 19.021 11.403,18.722 11.064,18.543 10.971 C 18.371 10.882,17.234 10.852,12.731 10.818 L 8.922 10.790 9.987 9.705 C 11.231 8.438,11.771 7.844,11.881 7.617 C 11.979 7.415,11.984 7.086,11.893 6.817 C 11.806 6.563,11.474 6.223,11.256 6.165 C 10.973 6.089,10.472 6.072,10.340 6.134 " fill="#373B4D" stroke="none" fill-rule="evenodd"></path></svg>