<svg width="24" height="24" viewBox="0 0 24 24" fill="none" xmlns="http://www.w3.org/2000/svg"><path d="M11.613 2.516 C 11.395 2.572,10.969 2.955,10.875 3.180 C 10.835 3.274,10.821 4.807,10.809 10.391 L 10.793 17.481 9.707 16.414 C 8.377 15.108,7.874 14.654,7.642 14.550 C 7.494 14.483,7.413 14.473,7.154 14.493 C 6.984 14.506,6.776 14.546,6.692 14.580 C 6.453 14.680,6.167 14.986,6.099 15.217 C 5.979 15.620,6.035 15.916,6.298 16.273 C 6.579 16.655,8.033 18.147,9.545 19.607 C 11.538 21.531,11.613 21.589,12.073 21.546 C 12.239 21.531,12.388 21.488,12.495 21.424 C 12.722 21.290,13.869 20.201,15.561 18.516 C 17.148 16.934,17.713 16.319,17.865 16.011 C 18.109 15.518,17.895 14.921,17.365 14.608 C 17.199 14.511,17.141 14.500,16.797 14.500 C 16.451 14.500,16.399 14.510,16.257 14.604 C 16.001 14.774,15.407 15.323,14.270 16.438 L 13.200 17.488 13.200 10.352 L 13.200 3.216 12.930 2.934 C 12.782 2.779,12.598 2.620,12.523 2.581 C 12.368 2.501,11.820 2.462,11.613 2.516 " fill="#373B4D" stroke="none" fill-rule="evenodd"></path></svg>