<svg width="24" height="24" viewBox="0 0 24 24" fill="none" xmlns="http://www.w3.org/2000/svg"><path d="M11.740 2.477 C 11.652 2.492,11.520 2.537,11.446 2.576 C 11.261 2.673,10.982 2.960,10.883 3.155 C 10.800 3.317,10.800 3.317,10.800 10.402 L 10.800 17.487 8.450 15.158 C 5.296 12.032,5.328 12.059,4.817 12.065 C 4.341 12.070,3.957 12.291,3.738 12.687 C 3.639 12.867,3.621 12.944,3.621 13.180 C 3.623 13.530,3.689 13.664,4.089 14.121 C 4.480 14.568,10.693 20.780,11.080 21.111 C 11.491 21.463,11.716 21.573,12.024 21.574 C 12.316 21.575,12.471 21.495,12.923 21.109 C 13.336 20.755,19.237 14.854,19.773 14.258 C 20.282 13.691,20.375 13.524,20.370 13.183 C 20.362 12.765,20.197 12.477,19.824 12.234 C 19.591 12.082,19.582 12.080,19.198 12.080 L 18.809 12.080 18.571 12.255 C 18.276 12.472,17.343 13.375,15.010 15.697 L 13.200 17.500 13.200 10.380 L 13.199 3.260 13.029 3.033 C 12.819 2.754,12.596 2.572,12.405 2.524 C 12.173 2.465,11.912 2.447,11.740 2.477 " fill="#373B4D" stroke="none" fill-rule="evenodd"></path></svg>