<svg width="24" height="24" viewBox="0 0 24 24" fill="none" xmlns="http://www.w3.org/2000/svg"><path d="M14.962 6.275 C 14.603 6.545,14.440 6.872,14.440 7.324 C 14.440 7.648,14.562 7.796,16.264 9.548 C 16.889 10.191,17.400 10.733,17.400 10.753 C 17.400 10.774,16.152 10.800,14.390 10.816 C 5.085 10.899,3.194 10.939,2.963 11.058 C 2.827 11.129,2.626 11.381,2.537 11.595 C 2.471 11.751,2.461 12.265,2.520 12.421 C 2.579 12.575,2.821 12.858,3.051 13.041 L 3.250 13.200 10.370 13.200 L 17.489 13.200 16.537 14.170 C 15.479 15.248,14.795 15.988,14.617 16.244 C 14.511 16.397,14.499 16.448,14.487 16.797 C 14.473 17.178,14.474 17.183,14.609 17.378 C 14.775 17.619,15.056 17.819,15.348 17.904 C 15.802 18.036,16.008 17.926,16.924 17.064 C 17.910 16.136,20.886 13.131,21.166 12.780 C 21.408 12.477,21.534 12.254,21.578 12.050 C 21.620 11.858,21.468 11.564,21.097 11.119 C 20.725 10.673,17.621 7.555,16.843 6.845 C 16.139 6.203,16.083 6.172,15.580 6.138 L 15.180 6.110 14.962 6.275 " fill="#373B4D" stroke="none" fill-rule="evenodd"></path></svg>