<svg width="24" height="24" viewBox="0 0 24 24" fill="none" xmlns="http://www.w3.org/2000/svg"><path d="M10.660 2.601 C 9.835 2.654,8.901 2.934,7.932 3.419 C 6.915 3.928,6.190 4.422,5.524 5.059 C 4.210 6.315,3.506 7.395,2.955 8.996 C 2.612 9.992,2.499 10.606,2.456 11.693 C 2.402 13.057,2.604 14.186,3.137 15.514 C 3.660 16.813,4.230 17.672,5.239 18.681 C 6.113 19.556,6.684 19.967,7.781 20.513 C 8.654 20.948,9.091 21.124,9.682 21.279 C 10.454 21.481,11.004 21.530,12.289 21.509 C 13.385 21.492,13.435 21.487,13.920 21.369 C 16.834 20.654,19.188 18.870,20.433 16.434 C 20.676 15.959,21.082 14.964,21.239 14.460 C 21.392 13.967,21.438 13.640,21.487 12.712 C 21.590 10.728,21.434 9.797,20.732 8.201 C 19.765 6.002,18.098 4.338,15.838 3.317 C 14.934 2.909,14.057 2.676,13.140 2.601 C 12.607 2.557,11.338 2.557,10.660 2.601 M12.534 7.495 C 12.839 7.674,13.329 8.124,14.564 9.357 C 15.783 10.576,16.285 11.118,16.518 11.469 C 16.627 11.635,16.640 11.685,16.639 11.957 C 16.638 12.315,16.571 12.488,16.295 12.846 C 15.874 13.393,13.267 16.000,12.724 16.416 C 12.397 16.667,12.252 16.731,12.008 16.731 C 11.697 16.731,11.304 16.524,11.134 16.272 C 10.881 15.893,10.874 15.323,11.119 14.954 C 11.252 14.754,11.827 14.098,12.309 13.596 L 12.640 13.251 12.394 13.226 C 12.259 13.212,11.642 13.200,11.024 13.199 C 9.729 13.198,8.345 13.141,8.071 13.077 C 7.835 13.021,7.591 12.795,7.457 12.507 C 7.329 12.232,7.320 11.747,7.439 11.501 C 7.568 11.236,7.789 11.048,8.026 11.003 C 8.290 10.953,9.415 10.891,11.020 10.839 C 12.314 10.797,12.573 10.777,12.552 10.718 C 12.545 10.700,12.279 10.394,11.960 10.038 C 11.055 9.028,11.001 8.932,11.000 8.326 C 11.000 7.947,11.054 7.797,11.262 7.592 C 11.449 7.409,11.635 7.357,12.034 7.379 C 12.294 7.393,12.404 7.418,12.534 7.495 " fill="#373B4D" stroke="none" fill-rule="evenodd"></path></svg>