<svg width="24" height="24" viewBox="0 0 24 24" fill="none" xmlns="http://www.w3.org/2000/svg"><path d="M11.626 2.561 C 11.563 2.580,11.375 2.700,11.208 2.828 C 10.872 3.084,7.105 6.830,6.597 7.413 C 6.249 7.812,6.040 8.177,6.040 8.385 C 6.040 8.610,6.192 8.942,6.392 9.155 C 6.634 9.413,6.865 9.518,7.191 9.519 C 7.655 9.521,7.808 9.403,9.648 7.627 L 10.791 6.524 10.813 13.092 C 10.826 16.810,10.852 19.890,10.875 20.189 C 10.909 20.652,10.929 20.745,11.027 20.926 C 11.241 21.320,11.747 21.601,12.131 21.539 C 12.224 21.525,12.372 21.471,12.460 21.420 C 12.660 21.304,12.995 20.973,13.047 20.840 C 13.129 20.632,13.158 18.910,13.185 12.812 L 13.213 6.524 14.177 7.469 C 15.778 9.040,16.211 9.404,16.587 9.500 C 17.200 9.655,17.847 9.143,17.946 8.425 C 17.980 8.176,17.847 7.915,17.477 7.500 C 16.526 6.435,13.385 3.320,12.830 2.893 C 12.704 2.795,12.524 2.683,12.430 2.643 C 12.231 2.557,11.789 2.512,11.626 2.561 " fill="#373B4D" stroke="none" fill-rule="evenodd"></path></svg>