<svg width="24" height="24" viewBox="0 0 24 24" fill="none" xmlns="http://www.w3.org/2000/svg"><path d="M7.895 6.153 C 7.591 6.346,4.739 9.118,3.483 10.442 C 2.716 11.249,2.504 11.530,2.436 11.827 C 2.317 12.343,2.502 12.573,5.265 15.336 C 7.231 17.304,7.665 17.709,7.980 17.872 C 8.395 18.087,8.876 17.968,9.256 17.558 C 9.500 17.294,9.582 17.059,9.552 16.707 C 9.516 16.280,9.365 16.093,7.691 14.397 L 6.510 13.200 13.625 13.200 L 20.740 13.199 20.992 13.010 C 21.413 12.692,21.588 12.348,21.548 11.920 C 21.507 11.480,21.218 11.053,20.900 10.964 C 20.647 10.892,17.912 10.848,11.971 10.818 L 6.522 10.790 7.627 9.665 C 8.968 8.301,9.387 7.836,9.493 7.600 C 9.659 7.227,9.559 6.749,9.248 6.427 C 9.014 6.184,8.850 6.119,8.408 6.095 C 8.068 6.077,8.005 6.084,7.895 6.153 " fill="#373B4D" stroke="none" fill-rule="evenodd"></path></svg>