<svg width="24" height="24" viewBox="0 0 24 24" fill="none" xmlns="http://www.w3.org/2000/svg"><path d="M5.631 8.350 C 3.212 10.756,2.733 11.264,2.575 11.586 C 2.454 11.834,2.437 12.157,2.535 12.363 C 2.650 12.606,3.340 13.340,5.220 15.223 C 7.500 17.506,7.865 17.831,8.240 17.915 C 8.439 17.960,8.765 17.893,8.974 17.764 C 9.309 17.557,9.561 17.126,9.559 16.765 C 9.558 16.580,9.438 16.315,9.249 16.082 C 9.015 15.793,8.210 14.935,7.325 14.032 L 6.510 13.200 13.652 13.200 L 20.793 13.200 21.077 12.892 C 21.418 12.523,21.520 12.328,21.520 12.049 C 21.520 11.663,21.260 11.171,21.004 11.074 C 20.738 10.973,18.500 10.920,11.040 10.837 C 8.873 10.812,6.995 10.781,6.867 10.766 L 6.635 10.740 7.604 9.700 C 9.268 7.915,9.448 7.698,9.514 7.407 C 9.548 7.254,9.523 7.002,9.456 6.820 C 9.389 6.639,9.187 6.396,9.023 6.300 C 8.852 6.200,8.416 6.121,8.026 6.120 C 7.876 6.120,7.815 6.177,5.631 8.350 " fill="#373B4D" stroke="none" fill-rule="evenodd"></path></svg>