<svg width="24" height="24" viewBox="0 0 24 24" fill="none" xmlns="http://www.w3.org/2000/svg"><path d="M10.660 2.601 C 9.835 2.654,8.901 2.934,7.932 3.419 C 6.915 3.928,6.190 4.422,5.524 5.059 C 4.210 6.315,3.506 7.395,2.955 8.996 C 2.612 9.992,2.499 10.606,2.456 11.693 C 2.402 13.057,2.604 14.186,3.137 15.514 C 3.660 16.813,4.230 17.672,5.239 18.681 C 6.113 19.556,6.684 19.967,7.781 20.513 C 8.654 20.948,9.091 21.124,9.682 21.279 C 10.454 21.481,11.004 21.530,12.289 21.509 C 13.385 21.492,13.435 21.487,13.920 21.369 C 16.834 20.654,19.188 18.870,20.433 16.434 C 20.676 15.959,21.082 14.964,21.239 14.460 C 21.392 13.967,21.438 13.640,21.487 12.712 C 21.590 10.728,21.434 9.797,20.732 8.201 C 19.765 6.002,18.098 4.338,15.838 3.317 C 14.934 2.909,14.057 2.676,13.140 2.601 C 12.607 2.557,11.338 2.557,10.660 2.601 M12.309 7.383 C 12.447 7.422,12.603 7.512,12.769 7.650 C 13.239 8.041,16.222 11.051,16.424 11.339 C 16.611 11.605,16.621 11.633,16.634 11.919 C 16.659 12.494,16.382 12.917,15.849 13.117 L 15.615 13.204 15.388 13.120 C 15.123 13.021,14.870 12.840,14.240 12.301 C 13.987 12.085,13.686 11.837,13.570 11.750 C 13.358 11.589,13.240 11.574,13.240 11.709 C 13.240 11.748,13.222 12.023,13.201 12.320 C 13.180 12.617,13.143 13.373,13.120 14.000 C 13.067 15.390,13.018 15.929,12.924 16.139 C 12.799 16.417,12.527 16.636,12.194 16.725 C 12.028 16.769,11.984 16.765,11.755 16.682 C 11.457 16.573,11.200 16.407,11.104 16.260 C 10.976 16.065,10.920 15.393,10.840 13.100 C 10.794 11.761,10.771 11.480,10.706 11.481 C 10.681 11.482,10.256 11.851,9.761 12.301 L 8.862 13.120 8.597 13.120 C 7.981 13.120,7.673 12.977,7.491 12.605 C 7.395 12.410,7.380 12.333,7.380 12.020 C 7.381 11.699,7.393 11.637,7.495 11.453 C 7.669 11.139,8.157 10.597,9.219 9.540 C 10.471 8.295,11.457 7.400,11.680 7.308 C 11.759 7.275,12.049 7.310,12.309 7.383 " fill="#373B4D" stroke="none" fill-rule="evenodd"></path></svg>