<svg width="24" height="24" viewBox="0 0 24 24" fill="none" xmlns="http://www.w3.org/2000/svg"><path d="M11.707 4.884 C 11.623 4.904,11.479 4.972,11.387 5.035 C 10.892 5.376,6.705 9.559,6.232 10.186 C 6.087 10.379,6.067 10.431,6.049 10.680 C 6.018 11.113,6.085 11.291,6.397 11.602 C 6.578 11.782,6.711 11.879,6.825 11.912 C 7.067 11.983,7.433 11.970,7.620 11.885 C 7.839 11.785,8.343 11.328,9.670 10.022 L 10.800 8.911 10.802 12.506 C 10.804 16.770,10.839 18.281,10.941 18.497 C 11.039 18.704,11.458 19.071,11.657 19.125 C 11.914 19.194,12.324 19.149,12.529 19.028 C 12.735 18.908,13.024 18.606,13.084 18.450 C 13.160 18.251,13.198 16.317,13.199 12.586 L 13.200 8.911 14.410 10.103 C 16.251 11.914,16.344 11.985,16.857 11.951 C 17.190 11.929,17.410 11.830,17.645 11.595 C 17.854 11.386,17.924 11.212,17.950 10.838 C 17.966 10.604,17.955 10.502,17.903 10.393 C 17.796 10.167,17.017 9.338,15.279 7.600 C 13.370 5.691,12.738 5.104,12.460 4.978 C 12.224 4.872,11.920 4.834,11.707 4.884 " fill="#373B4D" stroke="none" fill-rule="evenodd"></path></svg>