<svg width="24" height="24" viewBox="0 0 24 24" fill="none" xmlns="http://www.w3.org/2000/svg"><path d="M7.840 6.202 C 7.627 6.334,2.964 11.024,2.759 11.311 C 2.539 11.620,2.487 11.757,2.483 12.042 C 2.479 12.327,2.566 12.467,3.133 13.087 C 3.746 13.759,6.859 16.870,7.380 17.332 C 8.038 17.915,8.307 18.015,8.783 17.853 C 9.056 17.760,9.361 17.448,9.474 17.147 C 9.575 16.876,9.581 16.749,9.502 16.525 C 9.383 16.189,9.148 15.917,7.532 14.250 L 6.514 13.200 13.654 13.200 L 20.794 13.200 21.058 12.910 C 21.369 12.570,21.520 12.291,21.520 12.059 C 21.520 11.852,21.420 11.548,21.284 11.342 C 21.103 11.068,21.033 11.047,20.138 11.002 C 19.200 10.955,15.873 10.896,11.020 10.841 C 7.547 10.801,6.680 10.777,6.680 10.722 C 6.680 10.706,7.090 10.253,7.590 9.714 C 9.446 7.717,9.520 7.622,9.520 7.237 C 9.520 6.912,9.444 6.723,9.221 6.494 C 8.989 6.256,8.776 6.175,8.284 6.138 C 8.017 6.117,7.963 6.125,7.840 6.202 " fill="#373B4D" stroke="none" fill-rule="evenodd"></path></svg>