<svg width="24" height="24" viewBox="0 0 24 24" fill="none" xmlns="http://www.w3.org/2000/svg"><path d="M11.415 2.638 C 11.150 2.790,10.897 3.079,10.861 3.269 C 10.846 3.350,10.820 6.553,10.805 10.387 C 10.789 14.221,10.765 17.369,10.751 17.382 C 10.737 17.396,10.225 16.921,9.613 16.327 C 8.334 15.086,7.924 14.724,7.630 14.575 C 7.425 14.471,7.411 14.469,7.086 14.513 C 6.547 14.585,6.223 14.834,6.094 15.276 C 5.955 15.752,6.077 16.031,6.759 16.792 C 7.667 17.805,10.994 21.038,11.444 21.346 C 11.759 21.561,11.937 21.595,12.254 21.504 C 12.413 21.457,12.560 21.371,12.752 21.209 C 13.216 20.820,14.817 19.250,16.302 17.725 C 17.506 16.490,17.739 16.232,17.845 16.015 C 17.956 15.790,17.969 15.732,17.950 15.523 C 17.913 15.120,17.658 14.753,17.296 14.581 C 17.208 14.539,17.042 14.520,16.768 14.520 L 16.368 14.520 16.041 14.784 C 15.679 15.076,15.034 15.685,13.930 16.777 L 13.200 17.499 13.200 10.354 L 13.200 3.209 12.863 2.890 C 12.490 2.536,12.449 2.520,11.945 2.520 C 11.659 2.521,11.595 2.535,11.415 2.638 " fill="#373B4D" stroke="none" fill-rule="evenodd"></path></svg>