<svg width="24" height="24" viewBox="0 0 24 24" fill="none" xmlns="http://www.w3.org/2000/svg"><path d="M9.940 6.461 C 9.411 6.927,5.646 10.692,5.308 11.094 C 4.845 11.644,4.745 11.985,4.934 12.372 C 5.067 12.643,5.869 13.502,7.683 15.316 C 10.294 17.926,10.504 18.086,11.087 17.902 C 11.839 17.666,12.188 16.858,11.794 16.264 C 11.628 16.013,10.958 15.287,9.863 14.170 L 8.911 13.200 13.650 13.200 L 18.390 13.200 18.679 12.896 C 18.838 12.729,19.001 12.517,19.043 12.426 C 19.128 12.238,19.144 11.867,19.076 11.625 C 19.028 11.451,18.729 11.107,18.541 11.010 C 18.378 10.926,17.398 10.895,13.160 10.842 C 11.301 10.819,9.614 10.789,9.411 10.775 C 9.086 10.754,9.046 10.743,9.078 10.685 C 9.097 10.649,9.595 10.116,10.183 9.500 C 11.752 7.857,11.894 7.680,11.946 7.304 C 11.980 7.053,11.866 6.721,11.669 6.497 C 11.432 6.227,11.280 6.166,10.773 6.136 L 10.340 6.109 9.940 6.461 " fill="#373B4D" stroke="none" fill-rule="evenodd"></path></svg>