<svg width="24" height="24" viewBox="0 0 24 24" fill="none" xmlns="http://www.w3.org/2000/svg"><path d="M11.606 4.960 C 11.268 5.040,10.938 5.394,10.877 5.742 C 10.851 5.889,10.822 7.702,10.801 10.460 C 10.782 12.924,10.765 14.945,10.763 14.951 C 10.750 14.999,10.469 14.748,9.515 13.835 C 8.186 12.563,7.948 12.356,7.634 12.197 C 7.420 12.089,7.365 12.077,7.185 12.101 C 6.697 12.167,6.357 12.361,6.188 12.672 C 5.946 13.118,6.009 13.473,6.425 14.000 C 6.719 14.372,9.934 17.603,10.800 18.397 C 11.526 19.063,11.619 19.120,11.978 19.119 C 12.165 19.119,12.314 19.094,12.420 19.045 C 12.640 18.944,13.389 18.247,15.196 16.460 C 17.662 14.021,17.942 13.682,17.938 13.141 C 17.936 12.857,17.837 12.639,17.610 12.418 C 17.376 12.190,17.268 12.152,16.800 12.130 L 16.376 12.109 16.012 12.412 C 15.601 12.754,14.946 13.373,13.910 14.397 L 13.200 15.099 13.200 10.354 L 13.200 5.608 12.890 5.318 C 12.720 5.159,12.522 5.004,12.451 4.974 C 12.313 4.916,11.827 4.908,11.606 4.960 " fill="#373B4D" stroke="none" fill-rule="evenodd"></path></svg>