<svg width="24" height="24" viewBox="0 0 24 24" fill="none" xmlns="http://www.w3.org/2000/svg"><path d="M11.513 4.959 C 11.265 5.094,10.495 5.821,8.719 7.598 C 6.875 9.442,6.231 10.131,6.116 10.380 C 6.015 10.598,6.017 11.005,6.119 11.231 C 6.205 11.419,6.535 11.763,6.733 11.870 C 6.911 11.965,7.449 11.966,7.640 11.870 C 7.847 11.767,8.488 11.183,9.710 9.982 L 10.800 8.912 10.802 12.566 C 10.803 16.320,10.839 18.101,10.921 18.403 C 10.981 18.626,11.355 19.001,11.617 19.101 C 11.829 19.182,12.215 19.165,12.458 19.063 C 12.631 18.991,13.023 18.609,13.082 18.456 C 13.157 18.258,13.198 16.158,13.199 12.505 L 13.200 8.911 14.347 10.040 C 15.693 11.365,16.107 11.737,16.380 11.865 C 16.764 12.045,17.236 11.959,17.571 11.647 C 17.826 11.410,17.923 11.193,17.948 10.805 C 17.966 10.519,17.960 10.489,17.850 10.320 C 17.653 10.018,16.854 9.184,14.955 7.297 C 13.114 5.469,12.767 5.147,12.467 4.992 C 12.223 4.867,11.715 4.849,11.513 4.959 " fill="#373B4D" stroke="none" fill-rule="evenodd"></path></svg>