<svg width="24" height="24" viewBox="0 0 24 24" fill="none" xmlns="http://www.w3.org/2000/svg"><path d="M11.000 2.463 C 8.701 2.737,6.759 3.671,5.175 5.265 C 2.751 7.704,1.820 11.347,2.781 14.634 C 3.551 17.270,5.288 19.358,7.732 20.586 C 8.548 20.996,9.533 21.315,10.507 21.484 C 10.943 21.559,11.167 21.573,12.000 21.573 C 12.833 21.573,13.057 21.559,13.493 21.484 C 16.681 20.930,19.280 18.988,20.644 16.140 C 20.953 15.495,21.137 14.984,21.320 14.263 C 21.528 13.445,21.573 13.025,21.570 11.920 C 21.567 11.152,21.552 10.892,21.483 10.500 C 21.304 9.479,21.026 8.628,20.573 7.714 C 19.332 5.208,17.068 3.393,14.321 2.701 C 13.686 2.541,13.242 2.480,12.412 2.440 C 11.490 2.395,11.587 2.393,11.000 2.463 M12.552 7.367 C 12.992 7.577,13.181 7.935,13.154 8.507 C 13.141 8.786,13.124 8.842,13.001 9.020 C 12.926 9.130,12.513 9.575,12.085 10.010 L 11.307 10.800 12.904 10.804 C 13.782 10.806,14.845 10.819,15.266 10.834 L 16.033 10.860 16.266 11.020 C 16.454 11.148,16.526 11.231,16.630 11.436 C 16.743 11.659,16.760 11.732,16.760 12.000 C 16.760 12.263,16.742 12.343,16.638 12.552 C 16.509 12.809,16.320 12.990,16.054 13.111 C 15.915 13.173,15.683 13.181,13.606 13.192 L 11.312 13.203 12.113 14.017 C 13.078 14.998,13.159 15.120,13.160 15.584 C 13.160 15.865,13.144 15.939,13.038 16.152 C 12.903 16.422,12.748 16.574,12.490 16.688 C 12.086 16.868,11.649 16.816,11.308 16.548 C 11.041 16.339,8.269 13.591,7.773 13.045 C 7.290 12.513,7.240 12.415,7.240 12.000 C 7.240 11.574,7.290 11.482,7.854 10.872 C 8.678 9.980,11.290 7.423,11.460 7.341 C 11.811 7.173,12.164 7.181,12.552 7.367 " fill="#373B4D" stroke="none" fill-rule="evenodd"></path></svg>