<svg width="24" height="24" viewBox="0 0 24 24" fill="none" xmlns="http://www.w3.org/2000/svg"><path d="M4.680 3.634 C 4.241 3.682,3.914 3.902,3.732 4.272 L 3.620 4.500 3.620 7.200 L 3.620 9.900 3.710 10.082 C 3.980 10.631,4.590 10.911,5.140 10.738 C 5.420 10.650,5.750 10.364,5.885 10.090 C 5.976 9.907,5.980 9.861,5.993 8.807 L 6.006 7.713 7.453 9.148 C 9.085 10.767,9.102 10.780,9.600 10.780 C 9.955 10.780,10.186 10.685,10.435 10.435 C 10.686 10.185,10.780 9.955,10.779 9.600 C 10.777 9.100,10.765 9.085,9.150 7.454 L 7.715 6.007 8.807 5.993 C 10.048 5.978,10.123 5.961,10.432 5.643 C 11.005 5.054,10.875 4.145,10.165 3.766 L 9.923 3.637 7.431 3.621 C 6.061 3.613,4.823 3.619,4.680 3.634 M14.280 3.633 C 13.268 3.739,12.853 4.907,13.566 5.642 C 13.877 5.962,13.951 5.978,15.193 5.993 L 16.286 6.007 14.851 7.453 C 13.235 9.083,13.223 9.098,13.221 9.600 C 13.220 9.955,13.314 10.185,13.565 10.435 C 13.814 10.685,14.045 10.780,14.400 10.780 C 14.896 10.780,14.913 10.767,16.549 9.146 L 18.000 7.708 18.000 8.727 C 18.000 9.990,18.016 10.065,18.374 10.419 C 18.740 10.782,19.107 10.879,19.561 10.732 C 19.822 10.648,20.155 10.353,20.286 10.090 L 20.380 9.900 20.380 7.200 C 20.380 4.723,20.374 4.487,20.311 4.346 C 20.194 4.089,20.016 3.899,19.763 3.765 L 19.523 3.637 17.031 3.621 C 15.661 3.613,14.423 3.618,14.280 3.633 M4.560 13.236 C 4.199 13.311,3.891 13.548,3.733 13.871 L 3.620 14.100 3.620 16.800 L 3.620 19.500 3.713 19.688 C 3.831 19.927,4.073 20.169,4.312 20.287 L 4.500 20.380 7.200 20.380 L 9.900 20.380 10.088 20.287 C 10.990 19.843,11.030 18.627,10.158 18.162 L 9.908 18.029 8.814 18.009 L 7.720 17.988 9.152 16.543 C 10.182 15.503,10.610 15.045,10.675 14.911 C 10.950 14.342,10.728 13.666,10.168 13.368 C 9.955 13.254,9.893 13.240,9.602 13.240 C 9.074 13.240,9.096 13.223,7.333 14.972 L 6.007 16.289 5.993 15.194 L 5.980 14.100 5.868 13.872 C 5.806 13.746,5.698 13.595,5.628 13.535 C 5.350 13.300,4.882 13.169,4.560 13.236 M14.138 13.236 C 13.907 13.294,13.590 13.498,13.454 13.676 C 13.184 14.030,13.134 14.515,13.326 14.912 C 13.391 15.048,13.812 15.498,14.849 16.544 L 16.281 17.988 15.186 18.009 L 14.092 18.029 13.842 18.162 C 12.970 18.627,13.010 19.843,13.912 20.287 L 14.100 20.380 16.800 20.380 L 19.500 20.380 19.688 20.287 C 19.927 20.169,20.169 19.927,20.287 19.688 L 20.380 19.500 20.380 16.800 C 20.380 14.323,20.374 14.087,20.311 13.946 C 20.195 13.690,20.016 13.500,19.766 13.367 C 19.555 13.254,19.492 13.240,19.200 13.240 C 18.907 13.240,18.845 13.254,18.632 13.368 C 18.484 13.446,18.340 13.564,18.256 13.674 C 18.025 13.977,18.000 14.130,18.000 15.275 L 18.000 16.296 16.670 14.976 C 15.347 13.662,15.089 13.425,14.860 13.310 C 14.713 13.236,14.304 13.194,14.138 13.236 " fill="#373B4D" stroke="none" fill-rule="evenodd"></path></svg>