<svg width="24" height="24" viewBox="0 0 24 24" fill="none" xmlns="http://www.w3.org/2000/svg"><path d="M12.508 3.955 C 12.077 4.370,11.931 4.733,12.070 5.046 C 12.228 5.401,12.569 5.777,15.201 8.499 C 16.159 9.490,17.037 10.402,17.153 10.526 L 17.363 10.751 16.972 10.776 C 16.756 10.789,14.888 10.819,12.820 10.840 C 7.602 10.896,4.066 10.956,3.507 11.000 C 2.912 11.046,2.825 11.090,2.651 11.440 C 2.580 11.583,2.500 11.785,2.473 11.888 C 2.383 12.237,2.579 12.624,3.056 13.036 L 3.245 13.200 10.367 13.200 L 17.489 13.200 15.687 15.020 C 12.276 18.464,11.953 18.852,12.078 19.348 C 12.145 19.615,12.251 19.801,12.447 19.998 C 12.665 20.218,12.904 20.326,13.172 20.326 C 13.449 20.326,13.568 20.275,13.879 20.023 C 14.534 19.494,20.693 13.370,21.210 12.734 C 21.458 12.429,21.520 12.245,21.520 11.818 C 21.520 11.636,21.501 11.584,21.378 11.434 C 21.123 11.123,17.212 7.147,16.020 5.986 C 13.674 3.702,13.796 3.796,13.092 3.737 L 12.764 3.710 12.508 3.955 " fill="#373B4D" stroke="none" fill-rule="evenodd"></path></svg>