<svg width="24" height="24" viewBox="0 0 24 24" fill="none" xmlns="http://www.w3.org/2000/svg"><path d="M10.340 3.733 C 10.144 3.823,8.780 5.138,6.039 7.879 C 3.530 10.389,2.654 11.305,2.510 11.570 C 2.461 11.660,2.440 11.789,2.440 12.002 C 2.440 12.266,2.455 12.327,2.554 12.484 C 2.760 12.808,3.584 13.669,6.078 16.160 C 9.006 19.086,10.084 20.115,10.371 20.258 C 10.615 20.380,10.892 20.392,11.183 20.293 C 11.442 20.205,11.843 19.811,11.912 19.575 C 11.980 19.344,11.972 18.938,11.897 18.780 C 11.797 18.568,10.996 17.723,8.722 15.429 C 7.549 14.246,6.599 13.268,6.611 13.256 C 6.623 13.244,9.810 13.223,13.694 13.211 L 20.755 13.187 20.999 13.003 C 21.412 12.693,21.588 12.346,21.548 11.920 C 21.507 11.480,21.218 11.054,20.900 10.963 C 20.659 10.895,18.004 10.849,12.460 10.818 C 9.754 10.802,7.328 10.779,7.068 10.765 L 6.596 10.740 8.603 8.700 C 11.016 6.247,11.772 5.442,11.885 5.209 C 11.994 4.985,11.977 4.545,11.850 4.300 C 11.743 4.094,11.500 3.861,11.310 3.782 C 11.097 3.693,10.493 3.662,10.340 3.733 " fill="#373B4D" stroke="none" fill-rule="evenodd"></path></svg>