<svg width="24" height="24" viewBox="0 0 24 24" fill="none" xmlns="http://www.w3.org/2000/svg"><path d="M10.289 2.625 C 9.884 2.688,9.108 2.900,8.687 3.064 C 7.846 3.390,6.714 4.042,6.040 4.589 C 5.622 4.928,4.580 5.998,4.311 6.365 C 3.488 7.486,2.931 8.746,2.599 10.240 C 2.430 11.002,2.402 12.647,2.544 13.480 C 2.754 14.707,3.342 16.217,3.993 17.200 C 4.677 18.233,5.842 19.378,6.866 20.023 C 7.315 20.306,8.462 20.870,8.970 21.057 C 9.925 21.410,10.747 21.536,12.080 21.534 C 12.901 21.533,13.134 21.519,13.520 21.448 C 15.715 21.046,17.863 19.828,19.258 18.196 C 20.031 17.291,20.567 16.333,21.060 14.972 C 21.389 14.066,21.440 13.808,21.485 12.820 C 21.527 11.881,21.505 10.799,21.433 10.340 C 21.294 9.444,20.679 7.897,20.099 6.980 C 19.148 5.480,17.896 4.341,16.320 3.543 C 15.235 2.994,14.306 2.706,13.286 2.602 C 12.677 2.540,10.743 2.555,10.289 2.625 M12.647 7.502 C 12.852 7.646,12.947 7.800,12.998 8.069 C 13.037 8.277,13.084 9.134,13.163 11.094 C 13.187 11.706,13.219 12.288,13.234 12.387 L 13.260 12.567 13.560 12.306 C 13.725 12.162,14.070 11.859,14.327 11.632 C 14.584 11.406,14.898 11.157,15.025 11.081 C 15.235 10.953,15.282 10.941,15.563 10.941 C 15.835 10.941,15.902 10.957,16.144 11.081 C 16.387 11.204,16.430 11.245,16.530 11.440 C 16.609 11.596,16.654 11.767,16.685 12.030 L 16.729 12.401 16.590 12.570 C 16.317 12.902,13.214 15.990,12.849 16.292 C 11.933 17.051,11.820 17.006,9.928 15.143 C 8.920 14.149,7.675 12.844,7.499 12.596 C 7.379 12.428,7.305 12.055,7.340 11.797 C 7.381 11.500,7.578 11.211,7.840 11.064 C 8.036 10.954,8.095 10.941,8.380 10.942 C 8.851 10.944,8.987 11.030,10.087 12.008 C 10.416 12.301,10.700 12.545,10.718 12.552 C 10.775 12.572,10.797 12.253,10.840 10.800 C 10.939 7.448,10.976 7.348,12.088 7.374 C 12.448 7.382,12.490 7.392,12.647 7.502 " fill="#373B4D" stroke="none" fill-rule="evenodd"></path></svg>