<svg width="24" height="24" viewBox="0 0 24 24" fill="none" xmlns="http://www.w3.org/2000/svg"><path d="M11.520 2.630 C 11.184 2.848,10.544 3.453,8.465 5.519 C 6.186 7.783,4.153 9.865,3.892 10.204 C 3.661 10.504,3.609 10.714,3.694 11.005 C 3.782 11.309,3.982 11.595,4.200 11.728 C 4.437 11.873,4.857 11.981,5.045 11.946 C 5.293 11.899,5.754 11.473,8.843 8.436 L 10.787 6.526 10.814 13.113 C 10.829 16.736,10.857 19.917,10.877 20.182 C 10.918 20.741,10.977 20.911,11.212 21.153 C 11.693 21.650,12.210 21.672,12.713 21.217 C 12.850 21.093,12.990 20.937,13.024 20.872 C 13.120 20.686,13.154 19.099,13.200 12.600 C 13.222 9.399,13.252 6.739,13.265 6.690 C 13.287 6.610,13.456 6.764,14.696 7.990 C 16.218 9.494,18.001 11.215,18.493 11.655 L 18.800 11.930 19.153 11.913 C 19.445 11.899,19.537 11.878,19.689 11.788 C 20.061 11.571,20.433 11.010,20.383 10.743 C 20.312 10.365,19.678 9.674,16.322 6.319 C 12.690 2.688,12.555 2.571,11.960 2.531 C 11.725 2.515,11.683 2.525,11.520 2.630 " fill="#373B4D" stroke="none" fill-rule="evenodd"></path></svg>