<svg width="24" height="24" viewBox="0 0 24 24" fill="none" xmlns="http://www.w3.org/2000/svg"><path d="M10.580 3.638 C 10.492 3.653,10.353 3.696,10.270 3.731 C 10.111 3.800,4.881 8.974,3.336 10.592 C 2.615 11.347,2.515 11.467,2.461 11.649 C 2.384 11.909,2.384 12.091,2.461 12.351 C 2.515 12.533,2.614 12.653,3.336 13.408 C 4.437 14.560,9.675 19.772,10.000 20.039 C 10.362 20.337,10.552 20.415,10.857 20.390 C 11.635 20.327,12.156 19.597,11.944 18.867 C 11.885 18.666,11.816 18.577,11.243 17.972 C 10.893 17.602,9.688 16.382,8.564 15.260 L 6.520 13.220 13.610 13.200 L 20.700 13.180 20.888 13.087 C 21.788 12.644,21.830 11.427,20.961 10.964 L 20.715 10.833 13.616 10.810 L 6.518 10.788 9.052 8.244 C 10.445 6.845,11.659 5.605,11.750 5.490 C 12.015 5.151,12.066 4.711,11.885 4.303 C 11.683 3.845,11.095 3.546,10.580 3.638 " fill="#373B4D" stroke="none" fill-rule="evenodd"></path></svg>