<svg width="24" height="24" viewBox="0 0 24 24" fill="none" xmlns="http://www.w3.org/2000/svg"><path d="M12.610 3.847 C 12.240 4.141,11.974 4.602,12.011 4.881 C 12.055 5.205,12.442 5.656,14.463 7.736 C 15.187 8.482,16.137 9.463,16.573 9.916 L 17.367 10.740 17.181 10.767 C 17.079 10.782,15.056 10.814,12.687 10.838 C 7.153 10.893,3.737 10.952,3.327 10.999 C 2.949 11.042,2.880 11.073,2.739 11.258 C 2.612 11.424,2.442 11.889,2.441 12.071 C 2.439 12.345,2.680 12.731,3.033 13.022 L 3.249 13.200 10.369 13.200 L 17.490 13.200 15.564 15.143 C 12.792 17.940,12.184 18.615,12.077 19.012 C 11.973 19.398,12.273 19.966,12.708 20.209 C 12.999 20.372,13.352 20.380,13.605 20.230 C 13.932 20.036,14.734 19.270,17.555 16.462 C 20.462 13.569,21.302 12.697,21.427 12.446 C 21.482 12.337,21.500 12.207,21.500 11.936 L 21.500 11.572 21.263 11.302 C 20.877 10.862,17.386 7.320,16.017 5.980 C 14.430 4.426,13.903 3.940,13.700 3.842 C 13.596 3.792,13.406 3.755,13.160 3.738 L 12.780 3.711 12.610 3.847 " fill="#373B4D" stroke="none" fill-rule="evenodd"></path></svg>