<svg width="24" height="24" viewBox="0 0 24 24" fill="none" xmlns="http://www.w3.org/2000/svg"><path d="M10.800 2.560 C 9.246 2.685,7.471 3.441,6.040 4.585 C 5.599 4.937,4.771 5.770,4.440 6.194 C 3.480 7.422,2.855 8.853,2.533 10.560 C 2.444 11.034,2.431 12.733,2.513 13.300 C 2.652 14.269,3.083 15.571,3.565 16.480 C 3.987 17.275,4.415 17.854,5.100 18.555 C 6.022 19.499,6.625 19.943,7.760 20.518 C 9.182 21.237,10.130 21.486,11.668 21.544 C 12.869 21.589,13.772 21.467,14.800 21.121 C 16.055 20.698,17.043 20.168,18.000 19.405 C 19.520 18.193,20.455 16.796,21.163 14.680 C 21.468 13.769,21.494 13.558,21.497 12.000 C 21.500 10.529,21.486 10.391,21.255 9.591 C 20.689 7.634,19.633 5.982,18.143 4.724 C 16.822 3.609,14.953 2.773,13.400 2.604 C 12.865 2.546,11.301 2.519,10.800 2.560 M12.107 7.322 C 12.358 7.356,12.461 7.392,12.627 7.505 C 12.860 7.663,15.625 10.407,16.167 11.017 C 16.632 11.541,16.699 11.680,16.665 12.054 C 16.619 12.549,16.424 12.846,16.004 13.057 C 15.720 13.200,15.598 13.214,15.372 13.128 C 15.115 13.031,14.912 12.889,14.420 12.461 C 13.532 11.690,13.310 11.514,13.272 11.552 C 13.229 11.595,13.184 12.405,13.121 14.260 C 13.074 15.625,13.039 15.967,12.921 16.197 C 12.751 16.531,12.257 16.802,11.930 16.741 C 11.710 16.700,11.317 16.509,11.173 16.374 C 11.104 16.308,11.028 16.184,11.005 16.097 C 10.944 15.867,10.889 14.939,10.837 13.240 C 10.811 12.415,10.779 11.664,10.765 11.572 L 10.740 11.403 10.240 11.864 C 9.965 12.117,9.540 12.503,9.295 12.722 L 8.849 13.120 8.495 13.118 C 7.936 13.115,7.630 12.959,7.456 12.585 C 7.379 12.418,7.361 12.314,7.360 12.029 C 7.360 11.601,7.394 11.513,7.721 11.100 C 8.222 10.468,11.057 7.702,11.517 7.397 C 11.719 7.263,11.694 7.266,12.107 7.322 " fill="#373B4D" stroke="none" fill-rule="evenodd"></path></svg>