<svg width="24" height="24" viewBox="0 0 24 24" fill="none" xmlns="http://www.w3.org/2000/svg"><path d="M10.960 2.483 C 10.529 2.522,9.753 2.687,9.175 2.863 C 7.694 3.311,6.417 4.074,5.312 5.171 C 3.805 6.665,2.893 8.403,2.543 10.445 C 2.150 12.732,2.671 15.225,3.947 17.178 C 5.248 19.167,7.063 20.510,9.409 21.217 C 10.384 21.511,10.564 21.534,11.920 21.537 C 13.206 21.540,13.437 21.520,14.160 21.339 C 16.336 20.794,18.255 19.563,19.560 17.875 C 20.466 16.703,21.204 15.049,21.468 13.600 C 21.571 13.039,21.571 10.898,21.468 10.380 C 20.876 7.391,19.104 4.964,16.480 3.550 C 15.484 3.013,14.237 2.625,13.173 2.522 C 12.619 2.469,11.364 2.446,10.960 2.483 M12.372 7.322 C 12.631 7.388,12.893 7.601,13.015 7.844 C 13.103 8.022,13.120 8.109,13.120 8.389 C 13.120 8.582,13.097 8.778,13.065 8.855 C 12.993 9.028,12.671 9.398,11.922 10.170 L 11.311 10.800 12.146 10.802 C 12.605 10.803,13.657 10.819,14.484 10.838 C 16.141 10.876,16.108 10.870,16.379 11.142 C 16.630 11.393,16.720 11.627,16.720 12.029 C 16.720 12.315,16.704 12.406,16.635 12.520 C 16.478 12.782,16.267 13.009,16.131 13.067 C 15.905 13.161,15.076 13.198,13.145 13.199 L 11.310 13.200 11.932 13.838 C 13.025 14.959,13.140 15.129,13.136 15.606 C 13.134 15.855,13.113 15.954,13.024 16.135 C 12.831 16.530,12.431 16.775,11.980 16.775 C 11.538 16.775,11.298 16.578,9.238 14.520 C 7.388 12.673,7.273 12.525,7.265 11.980 C 7.257 11.522,7.392 11.342,8.877 9.831 C 9.926 8.763,11.186 7.568,11.444 7.397 C 11.598 7.295,11.656 7.280,11.912 7.280 C 12.073 7.280,12.280 7.299,12.372 7.322 " fill="#373B4D" stroke="none" fill-rule="evenodd"></path></svg>