<svg width="24" height="24" viewBox="0 0 24 24" fill="none" xmlns="http://www.w3.org/2000/svg"><path d="M10.580 6.038 C 10.492 6.053,10.353 6.095,10.270 6.131 C 10.110 6.200,6.510 9.746,5.475 10.852 C 5.007 11.354,4.912 11.476,4.861 11.650 C 4.740 12.057,4.791 12.325,5.055 12.680 C 5.248 12.940,8.699 16.426,9.612 17.285 C 10.178 17.817,10.268 17.886,10.469 17.944 C 10.889 18.066,11.318 17.953,11.635 17.635 C 11.886 17.385,11.980 17.155,11.979 16.800 C 11.977 16.300,11.965 16.285,10.347 14.652 L 8.909 13.201 13.605 13.190 L 18.300 13.180 18.488 13.087 C 19.389 12.644,19.430 11.427,18.559 10.963 L 18.310 10.830 13.615 10.809 L 8.920 10.788 10.352 9.343 C 11.347 8.339,11.811 7.843,11.871 7.719 C 12.154 7.133,11.921 6.439,11.350 6.166 C 11.077 6.035,10.827 5.994,10.580 6.038 " fill="#373B4D" stroke="none" fill-rule="evenodd"></path></svg>