<svg width="24" height="24" viewBox="0 0 24 24" fill="none" xmlns="http://www.w3.org/2000/svg"><path d="M10.680 2.562 C 9.847 2.629,8.634 3.012,7.629 3.528 C 6.202 4.260,4.700 5.649,3.844 7.030 C 3.150 8.149,2.629 9.657,2.483 10.968 C 2.393 11.782,2.448 13.117,2.601 13.808 C 2.934 15.313,3.521 16.620,4.374 17.760 C 4.745 18.256,5.679 19.189,6.160 19.545 C 7.337 20.416,8.933 21.157,10.160 21.403 C 10.776 21.526,11.996 21.584,12.790 21.528 C 13.767 21.459,14.413 21.305,15.429 20.897 C 17.178 20.195,18.614 19.108,19.703 17.660 C 20.334 16.821,21.026 15.314,21.362 14.047 C 21.467 13.651,21.517 12.929,21.518 11.780 C 21.520 10.756,21.475 10.352,21.285 9.680 C 20.787 7.921,19.954 6.474,18.748 5.274 C 17.986 4.515,17.233 3.978,16.240 3.485 C 15.354 3.044,14.574 2.780,13.756 2.644 C 13.093 2.533,11.552 2.492,10.680 2.562 M12.115 7.319 C 12.419 7.354,12.470 7.373,12.675 7.528 C 12.953 7.739,15.593 10.371,16.158 11.000 C 16.385 11.253,16.597 11.523,16.630 11.600 C 16.720 11.813,16.680 12.287,16.550 12.540 C 16.424 12.785,16.281 12.924,16.020 13.054 C 15.698 13.214,15.560 13.224,15.302 13.106 C 15.018 12.976,14.771 12.785,13.986 12.085 C 13.638 11.774,13.329 11.520,13.301 11.520 C 13.224 11.520,13.206 11.761,13.159 13.420 C 13.102 15.494,13.067 15.923,12.938 16.188 C 12.816 16.437,12.588 16.618,12.287 16.706 C 12.038 16.778,11.876 16.758,11.562 16.616 C 11.264 16.481,11.082 16.335,11.016 16.177 C 10.939 15.993,10.890 15.206,10.837 13.320 C 10.812 12.429,10.780 11.632,10.766 11.550 L 10.740 11.400 10.020 12.065 C 9.624 12.430,9.196 12.817,9.068 12.925 L 8.836 13.120 8.493 13.120 C 8.073 13.120,7.887 13.068,7.683 12.893 C 7.435 12.681,7.344 12.448,7.342 12.021 C 7.340 11.603,7.369 11.531,7.715 11.100 C 8.195 10.501,10.703 8.034,11.393 7.482 C 11.671 7.259,11.645 7.265,12.115 7.319 " fill="#373B4D" stroke="none" fill-rule="evenodd"></path></svg>