<svg width="24" height="24" viewBox="0 0 24 24" fill="none" xmlns="http://www.w3.org/2000/svg"><path d="M10.780 2.522 C 9.848 2.624,8.586 3.017,7.649 3.498 C 6.239 4.220,4.873 5.459,3.942 6.860 C 3.237 7.919,2.668 9.464,2.501 10.772 C 2.431 11.317,2.420 12.576,2.481 13.081 C 2.696 14.862,3.457 16.662,4.570 18.020 C 4.877 18.396,5.581 19.099,5.937 19.386 C 6.938 20.194,8.256 20.876,9.552 21.258 C 10.154 21.435,10.437 21.479,11.293 21.528 C 12.395 21.591,13.323 21.535,14.020 21.363 C 15.488 21.001,16.913 20.310,18.020 19.422 C 18.626 18.936,19.442 18.067,19.832 17.491 C 20.332 16.753,20.800 15.791,21.123 14.839 C 21.420 13.961,21.478 13.657,21.519 12.742 C 21.551 12.020,21.517 10.595,21.463 10.380 C 21.451 10.336,21.387 10.078,21.320 9.807 C 20.774 7.596,19.537 5.736,17.700 4.361 C 16.366 3.362,14.633 2.668,13.220 2.565 C 12.385 2.504,11.143 2.483,10.780 2.522 M12.456 7.358 C 12.507 7.378,12.753 7.582,13.004 7.811 C 13.713 8.461,16.407 11.198,16.546 11.410 C 16.864 11.893,16.700 12.651,16.211 12.962 C 16.106 13.029,15.921 13.112,15.800 13.147 C 15.348 13.279,15.128 13.141,13.710 11.830 C 13.501 11.638,13.313 11.480,13.290 11.480 C 13.220 11.480,13.204 11.743,13.160 13.640 C 13.109 15.824,13.091 16.029,12.932 16.255 C 12.691 16.598,12.322 16.786,11.958 16.751 C 11.603 16.717,11.115 16.420,10.978 16.156 C 10.912 16.028,10.863 14.992,10.817 12.750 C 10.802 11.977,10.774 11.400,10.753 11.400 C 10.733 11.400,10.497 11.610,10.228 11.867 C 9.664 12.406,9.021 12.984,8.889 13.071 C 8.825 13.113,8.690 13.130,8.425 13.129 C 7.988 13.128,7.822 13.062,7.583 12.798 C 7.366 12.558,7.320 12.418,7.320 11.998 C 7.320 11.650,7.326 11.624,7.457 11.427 C 7.669 11.108,8.252 10.469,9.135 9.589 C 10.136 8.592,11.104 7.684,11.420 7.449 L 11.660 7.271 12.011 7.297 C 12.205 7.311,12.405 7.339,12.456 7.358 " fill="#373B4D" stroke="none" fill-rule="evenodd"></path></svg>