<svg width="24" height="24" viewBox="0 0 24 24" fill="none" xmlns="http://www.w3.org/2000/svg"><path d="M11.528 4.984 C 11.455 5.022,11.239 5.188,11.048 5.355 C 10.573 5.767,8.705 7.617,7.370 8.996 C 6.430 9.967,6.253 10.169,6.150 10.388 C 5.958 10.799,6.024 11.149,6.368 11.540 C 6.616 11.822,6.841 11.935,7.157 11.938 C 7.659 11.942,7.763 11.862,9.646 10.034 C 10.254 9.443,10.762 8.960,10.776 8.960 C 10.789 8.960,10.801 10.252,10.802 11.830 C 10.805 15.278,10.854 18.017,10.920 18.309 C 10.971 18.540,11.189 18.819,11.473 19.015 C 11.615 19.113,11.666 19.125,11.959 19.124 C 12.211 19.124,12.328 19.104,12.462 19.039 C 12.690 18.929,13.026 18.560,13.079 18.362 C 13.153 18.088,13.199 15.809,13.199 12.320 L 13.200 8.901 13.990 9.683 C 15.099 10.781,15.778 11.420,16.077 11.647 C 16.609 12.050,17.097 12.044,17.546 11.630 C 17.753 11.440,17.848 11.271,17.919 10.967 C 17.992 10.659,17.954 10.472,17.770 10.228 C 17.383 9.717,13.968 6.268,13.067 5.479 C 12.570 5.044,12.381 4.948,11.980 4.931 C 11.737 4.920,11.628 4.933,11.528 4.984 " fill="#373B4D" stroke="none" fill-rule="evenodd"></path></svg>