<svg width="24" height="24" viewBox="0 0 24 24" fill="none" xmlns="http://www.w3.org/2000/svg"><path d="M5.500 3.679 C 4.237 3.706,4.250 3.703,3.933 4.029 C 3.600 4.372,3.625 4.129,3.607 7.187 L 3.592 9.913 3.712 10.089 C 3.986 10.486,4.350 10.719,4.749 10.751 C 4.972 10.769,5.028 10.757,5.257 10.644 C 5.569 10.491,5.849 10.197,5.917 9.952 C 5.944 9.854,5.974 9.346,5.988 8.770 C 6.001 8.215,6.020 7.760,6.030 7.760 C 6.040 7.760,6.564 8.267,7.194 8.886 C 9.054 10.715,9.150 10.787,9.662 10.749 C 10.002 10.723,10.194 10.635,10.428 10.398 C 10.654 10.170,10.730 9.996,10.751 9.657 C 10.784 9.146,10.707 9.044,8.863 7.170 L 7.711 6.000 8.366 5.999 C 8.725 5.998,9.242 5.981,9.514 5.962 C 9.957 5.929,10.024 5.914,10.167 5.815 C 10.989 5.246,10.965 4.303,10.116 3.758 L 9.933 3.640 8.276 3.647 C 7.365 3.651,6.116 3.666,5.500 3.679 M14.240 3.706 C 13.896 3.729,13.846 3.750,13.612 3.971 C 13.328 4.240,13.276 4.347,13.251 4.719 C 13.226 5.077,13.298 5.287,13.535 5.549 C 13.837 5.883,13.935 5.924,14.528 5.962 C 14.821 5.981,15.337 5.997,15.676 5.998 L 16.291 6.000 15.115 7.190 C 13.877 8.443,13.455 8.908,13.334 9.152 C 13.214 9.393,13.232 9.842,13.373 10.129 C 13.564 10.520,13.967 10.760,14.429 10.760 C 14.867 10.760,15.042 10.622,16.806 8.887 C 17.436 8.267,17.959 7.760,17.969 7.760 C 17.979 7.760,17.999 8.249,18.014 8.848 C 18.041 9.915,18.043 9.939,18.142 10.108 C 18.270 10.325,18.673 10.663,18.870 10.718 C 19.085 10.778,19.420 10.770,19.585 10.701 C 19.801 10.610,20.033 10.410,20.232 10.142 L 20.411 9.900 20.386 7.188 C 20.365 4.977,20.350 4.457,20.304 4.368 C 20.217 4.200,19.933 3.895,19.769 3.793 L 19.620 3.700 17.040 3.696 C 15.621 3.693,14.361 3.698,14.240 3.706 M4.320 13.343 C 4.158 13.413,3.784 13.765,3.687 13.940 C 3.627 14.048,3.619 14.326,3.609 16.791 L 3.597 19.522 3.715 19.691 C 3.914 19.977,4.254 20.282,4.424 20.328 C 4.523 20.355,5.555 20.377,7.249 20.389 L 9.918 20.407 10.049 20.317 C 10.288 20.154,10.525 19.903,10.633 19.700 C 10.775 19.431,10.785 18.947,10.653 18.698 C 10.555 18.514,10.368 18.316,10.156 18.174 C 10.017 18.081,9.970 18.075,9.036 18.038 C 8.499 18.016,7.988 17.994,7.901 17.989 L 7.742 17.980 8.895 16.800 C 10.615 15.039,10.834 14.756,10.787 14.356 C 10.733 13.901,10.361 13.417,9.988 13.317 C 9.769 13.257,9.254 13.289,9.096 13.371 C 8.903 13.472,8.313 14.014,7.114 15.193 L 6.008 16.281 5.994 15.190 L 5.980 14.100 5.856 13.880 C 5.631 13.481,5.248 13.278,4.723 13.282 C 4.578 13.282,4.397 13.310,4.320 13.343 M13.840 13.392 C 13.437 13.655,13.228 14.006,13.225 14.420 C 13.222 14.850,13.355 15.018,15.131 16.824 L 16.276 17.987 15.471 18.014 C 14.331 18.052,13.948 18.100,13.754 18.229 C 13.452 18.428,13.241 18.815,13.240 19.168 C 13.240 19.513,13.318 19.713,13.550 19.964 C 13.672 20.096,13.850 20.249,13.946 20.305 L 14.119 20.407 16.770 20.389 C 18.450 20.377,19.477 20.355,19.576 20.328 C 19.746 20.282,20.085 19.977,20.283 19.693 L 20.400 19.526 20.397 17.773 C 20.395 16.809,20.381 15.570,20.365 15.020 C 20.332 13.879,20.335 13.891,19.985 13.571 C 19.745 13.352,19.550 13.280,19.200 13.280 C 18.808 13.280,18.644 13.349,18.356 13.637 C 18.195 13.798,18.083 13.947,18.067 14.020 C 18.053 14.086,18.029 14.613,18.014 15.190 C 17.999 15.768,17.977 16.240,17.964 16.240 C 17.951 16.240,17.581 15.883,17.140 15.446 C 16.016 14.330,15.267 13.628,15.012 13.453 C 14.803 13.309,14.779 13.302,14.407 13.288 C 14.035 13.274,14.013 13.278,13.840 13.392 " fill="#373B4D" stroke="none" fill-rule="evenodd"></path></svg>