<svg width="24" height="24" viewBox="0 0 24 24" fill="none" xmlns="http://www.w3.org/2000/svg"><path d="M11.360 5.123 C 10.971 5.380,6.552 9.806,6.312 10.180 C 6.003 10.660,5.980 10.812,6.158 11.190 C 6.380 11.659,6.761 11.921,7.217 11.919 C 7.623 11.917,7.852 11.743,9.500 10.179 C 10.072 9.637,10.590 9.157,10.650 9.114 L 10.760 9.035 10.760 9.387 C 10.760 10.980,10.850 17.151,10.880 17.649 C 10.929 18.461,11.023 18.686,11.437 18.973 C 11.608 19.091,11.643 19.100,11.960 19.100 C 12.257 19.100,12.323 19.086,12.483 18.992 C 12.701 18.864,12.946 18.604,13.024 18.416 C 13.138 18.145,13.159 17.457,13.186 13.250 C 13.201 10.890,13.221 8.960,13.231 8.960 C 13.241 8.960,13.710 9.407,14.274 9.953 C 15.948 11.574,16.167 11.762,16.512 11.865 C 16.775 11.945,16.993 11.932,17.220 11.824 C 17.596 11.646,17.888 11.245,17.945 10.828 C 17.999 10.431,17.649 10.008,15.421 7.779 C 13.636 5.994,12.881 5.294,12.550 5.117 C 12.336 5.003,12.251 4.982,11.960 4.968 L 11.620 4.952 11.360 5.123 " fill="#373B4D" stroke="none" fill-rule="evenodd"></path></svg>