<svg width="24" height="24" viewBox="0 0 24 24" fill="none" xmlns="http://www.w3.org/2000/svg"><path d="M11.394 5.095 C 10.960 5.421,7.698 8.657,6.528 9.923 C 6.303 10.166,6.040 10.629,6.040 10.781 C 6.040 11.098,6.406 11.640,6.733 11.806 C 6.979 11.932,7.305 11.948,7.536 11.846 C 7.855 11.705,7.964 11.612,9.512 10.165 C 10.113 9.604,10.639 9.120,10.682 9.090 C 10.759 9.036,10.760 9.052,10.760 10.008 C 10.759 11.672,10.840 16.704,10.879 17.460 C 10.930 18.456,11.012 18.678,11.431 18.969 C 11.609 19.092,11.640 19.100,11.960 19.098 C 12.210 19.097,12.336 19.078,12.436 19.024 C 12.627 18.922,12.953 18.586,13.023 18.420 C 13.124 18.177,13.157 17.240,13.180 13.883 C 13.207 9.899,13.229 8.989,13.299 9.030 C 13.326 9.047,13.886 9.577,14.544 10.209 C 15.202 10.841,15.862 11.455,16.012 11.573 C 16.289 11.793,16.584 11.920,16.817 11.920 C 17.310 11.920,17.855 11.401,17.943 10.848 C 17.998 10.506,17.745 10.165,16.407 8.780 C 15.295 7.629,13.338 5.726,12.920 5.389 C 12.523 5.069,12.355 4.999,11.928 4.975 C 11.580 4.956,11.580 4.956,11.394 5.095 " fill="#373B4D" stroke="none" fill-rule="evenodd"></path></svg>