<svg width="24" height="24" viewBox="0 0 24 24" fill="none" xmlns="http://www.w3.org/2000/svg"><path d="M10.800 2.602 C 9.953 2.652,9.188 2.852,8.279 3.261 C 6.771 3.938,5.535 4.887,4.488 6.170 C 3.517 7.359,2.767 9.091,2.533 10.680 C 2.428 11.395,2.439 12.868,2.554 13.500 C 2.856 15.155,3.599 16.799,4.565 17.948 C 4.922 18.373,5.698 19.144,6.080 19.452 C 6.934 20.141,8.561 20.975,9.600 21.255 C 10.436 21.481,10.632 21.500,12.100 21.497 L 13.460 21.494 14.014 21.346 C 15.888 20.845,17.402 20.015,18.653 18.802 C 19.696 17.790,20.318 16.838,20.913 15.340 C 21.339 14.268,21.411 13.950,21.483 12.820 C 21.537 11.953,21.512 10.911,21.423 10.380 C 21.183 8.955,20.388 7.240,19.397 6.013 C 18.128 4.440,15.991 3.130,14.061 2.740 C 13.262 2.578,12.060 2.527,10.800 2.602 M12.457 7.457 C 12.615 7.534,12.893 7.768,13.404 8.251 C 14.384 9.179,16.378 11.249,16.512 11.476 C 16.606 11.636,16.620 11.702,16.618 11.980 C 16.615 12.524,16.405 12.854,15.922 13.076 L 15.640 13.206 15.439 13.140 C 15.198 13.060,14.821 12.794,14.157 12.236 C 13.553 11.728,13.430 11.640,13.329 11.640 C 13.234 11.640,13.221 11.750,13.160 13.060 C 13.036 15.717,13.017 15.932,12.880 16.200 C 12.771 16.414,12.515 16.618,12.254 16.700 C 12.065 16.760,12.007 16.763,11.866 16.721 C 11.431 16.590,11.112 16.349,11.045 16.097 C 10.974 15.834,10.925 15.132,10.861 13.500 C 10.798 11.891,10.773 11.533,10.720 11.500 C 10.686 11.479,10.275 11.830,9.422 12.612 L 8.860 13.126 8.480 13.109 C 7.912 13.083,7.686 12.964,7.496 12.591 C 7.414 12.430,7.400 12.346,7.400 12.005 L 7.400 11.607 7.597 11.313 C 8.001 10.712,10.637 8.083,11.459 7.461 C 11.655 7.313,11.664 7.311,11.946 7.329 C 12.150 7.342,12.299 7.379,12.457 7.457 " fill="#373B4D" stroke="none" fill-rule="evenodd"></path></svg>