<svg width="24" height="24" viewBox="0 0 24 24" fill="none" xmlns="http://www.w3.org/2000/svg"><path d="M11.740 2.477 C 11.652 2.492,11.520 2.537,11.446 2.576 C 11.261 2.673,10.982 2.960,10.883 3.155 C 10.800 3.317,10.800 3.317,10.800 10.408 L 10.800 17.499 9.850 16.557 C 8.570 15.287,7.976 14.728,7.762 14.593 C 7.600 14.490,7.552 14.480,7.222 14.481 C 6.783 14.482,6.605 14.551,6.329 14.828 C 6.109 15.048,6.040 15.233,6.040 15.596 C 6.040 16.101,6.149 16.235,8.297 18.382 C 10.221 20.305,11.347 21.367,11.582 21.481 C 11.797 21.585,12.199 21.586,12.420 21.484 C 12.632 21.385,13.001 21.043,14.896 19.186 C 16.553 17.562,17.444 16.638,17.739 16.237 C 17.960 15.937,18.029 15.673,17.963 15.379 C 17.896 15.077,17.708 14.816,17.426 14.634 C 17.191 14.483,17.181 14.480,16.803 14.480 C 16.431 14.480,16.413 14.484,16.212 14.619 C 15.972 14.781,15.380 15.337,14.110 16.597 L 13.200 17.499 13.200 10.380 L 13.199 3.260 13.029 3.033 C 12.819 2.754,12.596 2.572,12.405 2.524 C 12.173 2.465,11.912 2.447,11.740 2.477 " fill="#373B4D" stroke="none" fill-rule="evenodd"></path></svg>