<svg width="24" height="24" viewBox="0 0 24 24" fill="none" xmlns="http://www.w3.org/2000/svg"><path d="M12.495 3.977 C 12.075 4.417,11.957 4.751,12.100 5.093 C 12.216 5.372,12.854 6.066,15.855 9.180 C 16.660 10.016,17.320 10.712,17.320 10.726 C 17.320 10.779,16.312 10.803,11.720 10.861 C 6.565 10.926,3.893 10.983,3.342 11.040 C 2.898 11.086,2.825 11.134,2.630 11.517 C 2.359 12.048,2.427 12.364,2.927 12.900 L 3.208 13.200 10.348 13.200 L 17.489 13.200 15.737 14.970 C 13.182 17.553,12.331 18.477,12.155 18.860 C 11.990 19.221,12.100 19.631,12.457 19.979 C 12.792 20.306,13.194 20.404,13.540 20.244 C 13.773 20.136,14.296 19.654,16.200 17.793 C 18.142 15.896,20.177 13.842,20.857 13.094 C 21.356 12.545,21.469 12.362,21.506 12.048 C 21.552 11.665,21.525 11.615,20.909 10.952 C 20.111 10.092,15.382 5.345,14.668 4.686 C 13.790 3.876,13.650 3.794,13.046 3.737 L 12.752 3.709 12.495 3.977 " fill="#373B4D" stroke="none" fill-rule="evenodd"></path></svg>