<svg width="24" height="24" viewBox="0 0 24 24" fill="none" xmlns="http://www.w3.org/2000/svg"><path d="M10.289 2.625 C 9.884 2.688,9.108 2.900,8.687 3.064 C 7.846 3.390,6.714 4.042,6.040 4.589 C 5.622 4.928,4.580 5.998,4.311 6.365 C 3.488 7.486,2.931 8.746,2.599 10.240 C 2.430 11.002,2.402 12.647,2.544 13.480 C 2.754 14.707,3.342 16.217,3.993 17.200 C 4.677 18.233,5.842 19.378,6.866 20.023 C 7.315 20.306,8.462 20.870,8.970 21.057 C 9.925 21.410,10.747 21.536,12.080 21.534 C 12.901 21.533,13.134 21.519,13.520 21.448 C 15.715 21.046,17.863 19.828,19.258 18.196 C 20.031 17.291,20.567 16.333,21.060 14.972 C 21.389 14.066,21.440 13.808,21.485 12.820 C 21.527 11.881,21.505 10.799,21.433 10.340 C 21.294 9.444,20.679 7.897,20.099 6.980 C 19.148 5.480,17.896 4.341,16.320 3.543 C 15.235 2.994,14.306 2.706,13.286 2.602 C 12.677 2.540,10.743 2.555,10.289 2.625 M12.092 7.324 C 12.262 7.349,12.454 7.410,12.559 7.470 C 12.749 7.580,15.433 10.215,16.066 10.913 C 16.573 11.473,16.661 11.628,16.657 11.960 C 16.651 12.535,16.382 12.921,15.849 13.121 C 15.634 13.201,15.617 13.202,15.424 13.139 C 15.148 13.048,14.912 12.883,14.280 12.337 C 13.560 11.716,13.325 11.539,13.279 11.585 C 13.233 11.631,13.175 12.564,13.119 14.140 C 13.068 15.578,13.029 15.958,12.907 16.200 C 12.794 16.422,12.547 16.615,12.259 16.705 C 12.051 16.771,12.029 16.771,11.810 16.704 C 11.476 16.601,11.182 16.413,11.085 16.240 C 10.954 16.007,10.917 15.506,10.820 12.620 C 10.794 11.840,10.762 11.439,10.725 11.441 C 10.711 11.442,10.286 11.821,9.780 12.284 L 8.860 13.125 8.457 13.109 C 8.140 13.097,8.013 13.074,7.863 13.002 C 7.503 12.827,7.334 12.448,7.369 11.898 C 7.395 11.490,7.517 11.305,8.324 10.446 C 9.246 9.467,10.990 7.799,11.454 7.454 C 11.716 7.260,11.696 7.264,12.092 7.324 " fill="#373B4D" stroke="none" fill-rule="evenodd"></path></svg>