<svg width="24" height="24" viewBox="0 0 24 24" fill="none" xmlns="http://www.w3.org/2000/svg"><path d="M10.228 3.843 C 9.943 4.032,8.181 5.745,5.620 8.324 C 3.320 10.640,2.657 11.338,2.529 11.576 C 2.435 11.752,2.437 12.215,2.533 12.408 C 2.671 12.685,3.412 13.459,6.296 16.342 C 9.269 19.312,10.098 20.103,10.381 20.240 C 10.564 20.329,10.923 20.346,11.167 20.279 C 11.353 20.227,11.689 19.927,11.831 19.685 C 11.924 19.527,11.940 19.455,11.940 19.195 C 11.940 18.716,12.020 18.809,8.702 15.406 C 7.601 14.277,6.695 13.339,6.689 13.322 C 6.671 13.274,9.160 13.243,15.167 13.214 L 20.754 13.188 20.977 13.007 C 21.244 12.791,21.459 12.488,21.526 12.234 C 21.589 11.992,21.525 11.691,21.348 11.399 C 21.198 11.150,21.073 11.048,20.857 10.999 C 20.601 10.940,17.842 10.885,12.860 10.838 C 8.336 10.796,6.790 10.763,6.735 10.708 C 6.698 10.671,6.831 10.529,8.745 8.555 C 11.788 5.416,11.894 5.297,11.943 4.974 C 12.001 4.586,11.798 4.115,11.481 3.906 C 11.284 3.775,11.060 3.722,10.697 3.721 C 10.447 3.720,10.392 3.734,10.228 3.843 " fill="#373B4D" stroke="none" fill-rule="evenodd"></path></svg>