<svg width="24" height="24" viewBox="0 0 24 24" fill="none" xmlns="http://www.w3.org/2000/svg"><path d="M10.960 2.483 C 10.529 2.522,9.753 2.687,9.175 2.863 C 7.694 3.311,6.417 4.074,5.312 5.171 C 3.805 6.665,2.893 8.403,2.543 10.445 C 2.150 12.732,2.671 15.225,3.947 17.178 C 5.248 19.167,7.063 20.510,9.409 21.217 C 10.384 21.511,10.564 21.534,11.920 21.537 C 13.206 21.540,13.437 21.520,14.160 21.339 C 16.336 20.794,18.255 19.563,19.560 17.875 C 20.466 16.703,21.204 15.049,21.468 13.600 C 21.571 13.039,21.571 10.898,21.468 10.380 C 20.876 7.391,19.104 4.964,16.480 3.550 C 15.484 3.013,14.237 2.625,13.173 2.522 C 12.619 2.469,11.364 2.446,10.960 2.483 M12.460 7.359 C 12.703 7.465,13.217 7.935,14.620 9.339 C 15.960 10.680,16.455 11.216,16.633 11.519 C 16.725 11.674,16.740 11.743,16.737 12.002 C 16.734 12.254,16.714 12.339,16.622 12.509 C 16.471 12.786,15.625 13.693,14.377 14.916 C 12.617 16.640,12.438 16.780,12.000 16.772 C 11.374 16.762,10.902 16.306,10.850 15.665 C 10.813 15.203,10.977 14.957,12.068 13.838 L 12.690 13.200 10.835 13.199 C 8.617 13.197,8.023 13.166,7.821 13.040 C 7.666 12.945,7.446 12.691,7.345 12.492 C 7.271 12.345,7.254 11.715,7.319 11.542 C 7.370 11.408,7.692 11.064,7.868 10.955 C 7.997 10.875,8.081 10.869,9.492 10.837 C 10.310 10.819,11.365 10.803,11.835 10.802 L 12.690 10.800 12.068 10.162 C 10.986 9.051,10.860 8.869,10.865 8.413 C 10.869 8.001,11.034 7.679,11.368 7.426 C 11.609 7.243,12.122 7.211,12.460 7.359 " fill="#373B4D" stroke="none" fill-rule="evenodd"></path></svg>