<svg width="24" height="24" viewBox="0 0 24 24" fill="none" xmlns="http://www.w3.org/2000/svg"><path d="M12.880 3.692 C 12.338 3.844,11.939 4.417,12.017 4.932 C 12.079 5.345,12.162 5.437,15.713 9.005 L 17.489 10.790 11.415 10.818 C 4.716 10.849,3.262 10.876,3.037 10.970 C 2.728 11.100,2.442 11.586,2.441 11.985 C 2.439 12.439,2.594 12.718,3.016 13.019 L 3.270 13.200 10.385 13.200 L 17.500 13.200 15.698 15.010 C 12.772 17.948,12.265 18.480,12.151 18.725 C 12.015 19.017,11.994 19.199,12.064 19.469 C 12.243 20.155,13.025 20.572,13.603 20.289 C 13.880 20.154,15.087 18.999,18.000 16.083 C 20.526 13.555,21.341 12.702,21.490 12.429 C 21.590 12.246,21.588 11.705,21.486 11.540 C 21.328 11.283,20.318 10.236,17.761 7.677 C 15.028 4.943,13.927 3.886,13.677 3.759 C 13.485 3.660,13.105 3.629,12.880 3.692 " fill="#373B4D" stroke="none" fill-rule="evenodd"></path></svg>