<svg width="24" height="24" viewBox="0 0 24 24" fill="none" xmlns="http://www.w3.org/2000/svg"><path d="M11.572 2.580 C 11.279 2.728,10.436 3.530,7.744 6.223 C 4.684 9.284,3.859 10.148,3.729 10.433 C 3.635 10.638,3.631 10.668,3.674 10.902 C 3.739 11.252,3.817 11.418,4.004 11.599 C 4.197 11.786,4.528 11.921,4.860 11.948 C 5.077 11.965,5.117 11.956,5.280 11.846 C 5.518 11.686,7.026 10.244,9.110 8.183 L 10.800 6.511 10.801 11.926 C 10.802 17.945,10.841 20.416,10.939 20.744 C 11.015 21.001,11.246 21.266,11.526 21.421 C 11.806 21.575,12.168 21.585,12.434 21.446 C 12.617 21.349,12.901 21.087,13.024 20.900 C 13.136 20.729,13.153 19.863,13.183 13.000 C 13.197 9.623,13.221 6.798,13.236 6.723 L 13.263 6.585 14.901 8.198 C 16.802 10.068,18.234 11.446,18.569 11.724 L 18.804 11.920 19.119 11.920 C 19.293 11.920,19.485 11.901,19.547 11.878 C 19.874 11.755,20.263 11.326,20.359 10.983 C 20.473 10.577,20.345 10.406,18.593 8.600 C 16.824 6.777,13.201 3.189,12.832 2.893 C 12.526 2.648,12.319 2.557,11.940 2.500 C 11.814 2.480,11.736 2.498,11.572 2.580 " fill="#373B4D" stroke="none" fill-rule="evenodd"></path></svg>