<svg width="24" height="24" viewBox="0 0 24 24" fill="none" xmlns="http://www.w3.org/2000/svg"><path d="M10.680 2.562 C 9.847 2.629,8.634 3.012,7.629 3.528 C 6.202 4.260,4.700 5.649,3.844 7.030 C 3.150 8.149,2.629 9.657,2.483 10.968 C 2.393 11.782,2.448 13.117,2.601 13.808 C 2.934 15.313,3.521 16.620,4.374 17.760 C 4.745 18.256,5.679 19.189,6.160 19.545 C 7.337 20.416,8.933 21.157,10.160 21.403 C 10.776 21.526,11.996 21.584,12.790 21.528 C 13.767 21.459,14.413 21.305,15.429 20.897 C 17.178 20.195,18.614 19.108,19.703 17.660 C 20.334 16.821,21.026 15.314,21.362 14.047 C 21.467 13.651,21.517 12.929,21.518 11.780 C 21.520 10.756,21.475 10.352,21.285 9.680 C 20.787 7.921,19.954 6.474,18.748 5.274 C 17.986 4.515,17.233 3.978,16.240 3.485 C 15.354 3.044,14.574 2.780,13.756 2.644 C 13.093 2.533,11.552 2.492,10.680 2.562 M12.588 7.464 C 12.680 7.517,12.823 7.643,12.905 7.744 L 13.055 7.927 13.072 8.376 L 13.090 8.825 12.898 9.063 C 12.642 9.380,12.179 9.897,11.743 10.351 C 11.534 10.568,11.401 10.736,11.423 10.756 C 11.443 10.775,12.243 10.812,13.200 10.838 C 15.881 10.910,16.107 10.935,16.367 11.180 C 16.580 11.381,16.638 11.566,16.639 12.040 C 16.640 12.503,16.612 12.581,16.356 12.835 C 16.116 13.074,15.975 13.111,15.159 13.158 C 14.752 13.181,13.718 13.200,12.861 13.200 L 11.302 13.200 11.643 13.550 C 12.560 14.489,12.973 14.991,13.045 15.256 C 13.112 15.504,13.066 16.008,12.961 16.178 C 12.835 16.383,12.577 16.588,12.332 16.680 C 11.777 16.887,11.608 16.784,10.023 15.261 C 8.862 14.145,7.662 12.878,7.480 12.576 C 7.349 12.358,7.340 12.321,7.340 12.000 C 7.340 11.679,7.349 11.641,7.480 11.421 C 7.648 11.139,9.156 9.559,10.327 8.438 C 11.503 7.312,11.516 7.304,12.080 7.343 C 12.337 7.361,12.461 7.391,12.588 7.464 " fill="#373B4D" stroke="none" fill-rule="evenodd"></path></svg>