<svg width="24" height="24" viewBox="0 0 24 24" fill="none" xmlns="http://www.w3.org/2000/svg"><path d="M7.540 6.461 C 7.011 6.927,3.246 10.692,2.908 11.094 C 2.445 11.644,2.345 11.985,2.534 12.372 C 2.667 12.643,3.469 13.502,5.283 15.316 C 7.894 17.926,8.104 18.086,8.687 17.902 C 9.439 17.666,9.788 16.858,9.394 16.264 C 9.228 16.013,8.558 15.287,7.463 14.170 L 6.511 13.200 13.649 13.200 L 20.786 13.200 21.067 12.910 C 21.529 12.434,21.621 12.174,21.485 11.729 C 21.382 11.389,21.202 11.133,21.009 11.053 C 20.749 10.944,18.614 10.900,9.700 10.817 C 8.182 10.803,6.871 10.780,6.788 10.765 L 6.635 10.740 6.988 10.354 C 7.181 10.141,7.669 9.622,8.072 9.200 C 9.271 7.943,9.498 7.652,9.545 7.311 C 9.580 7.053,9.469 6.724,9.269 6.497 C 9.032 6.227,8.880 6.166,8.373 6.136 L 7.940 6.109 7.540 6.461 " fill="#373B4D" stroke="none" fill-rule="evenodd"></path></svg>