<svg width="24" height="24" viewBox="0 0 24 24" fill="none" xmlns="http://www.w3.org/2000/svg"><path d="M5.120 3.677 C 4.404 3.699,4.374 3.704,4.192 3.810 C 4.012 3.916,3.790 4.152,3.675 4.360 C 3.630 4.442,3.618 4.958,3.609 7.191 L 3.597 9.922 3.717 10.096 C 4.243 10.860,5.046 10.982,5.632 10.388 C 5.956 10.059,5.964 10.024,5.990 8.795 L 6.012 7.724 7.282 8.974 C 8.634 10.305,9.034 10.661,9.246 10.722 C 9.443 10.778,9.758 10.768,9.994 10.698 C 10.267 10.617,10.601 10.292,10.695 10.017 C 10.767 9.804,10.780 9.449,10.722 9.246 C 10.661 9.033,10.299 8.626,8.971 7.279 L 7.722 6.012 8.771 5.988 C 9.374 5.975,9.887 5.945,9.977 5.919 C 10.194 5.855,10.568 5.489,10.684 5.228 C 10.925 4.684,10.691 4.088,10.101 3.743 L 9.926 3.640 7.893 3.647 C 6.775 3.651,5.527 3.665,5.120 3.677 M15.140 3.680 C 14.155 3.697,13.961 3.710,13.858 3.767 C 13.697 3.855,13.411 4.143,13.331 4.298 C 13.247 4.458,13.219 4.934,13.279 5.156 C 13.343 5.395,13.791 5.854,14.020 5.917 C 14.108 5.941,14.652 5.972,15.230 5.987 L 16.279 6.013 15.089 7.216 C 13.293 9.033,13.215 9.136,13.249 9.659 C 13.291 10.315,13.763 10.760,14.418 10.760 C 14.883 10.760,14.983 10.682,16.718 8.974 L 17.988 7.724 18.014 8.792 C 18.029 9.379,18.052 9.914,18.067 9.980 C 18.105 10.158,18.615 10.651,18.825 10.712 C 19.061 10.781,19.462 10.772,19.626 10.695 C 19.825 10.600,20.131 10.312,20.282 10.077 L 20.412 9.874 20.386 7.207 C 20.372 5.740,20.349 4.488,20.335 4.425 C 20.299 4.269,19.828 3.774,19.667 3.726 C 19.516 3.679,16.774 3.652,15.140 3.680 M4.540 13.281 C 4.452 13.294,4.320 13.337,4.246 13.376 C 4.061 13.473,3.782 13.760,3.683 13.955 C 3.601 14.114,3.600 14.166,3.600 16.821 L 3.600 19.526 3.729 19.713 C 3.800 19.816,3.937 19.977,4.034 20.072 C 4.371 20.399,4.133 20.375,7.187 20.393 L 9.913 20.408 10.102 20.278 C 10.543 19.975,10.760 19.614,10.760 19.184 C 10.760 18.775,10.591 18.474,10.219 18.217 L 10.002 18.068 8.873 18.024 L 7.744 17.980 8.878 16.820 C 10.690 14.965,10.828 14.787,10.789 14.352 C 10.762 14.063,10.643 13.812,10.430 13.599 C 10.169 13.339,10.019 13.280,9.614 13.280 C 9.345 13.280,9.227 13.299,9.097 13.361 C 8.910 13.452,8.225 14.089,6.894 15.411 L 6.009 16.291 5.994 15.195 C 5.980 14.139,5.977 14.094,5.886 13.920 C 5.772 13.700,5.664 13.578,5.480 13.461 C 5.229 13.301,4.864 13.231,4.540 13.281 M14.102 13.270 C 13.928 13.295,13.574 13.545,13.443 13.736 C 13.327 13.904,13.200 14.262,13.200 14.420 C 13.200 14.467,13.227 14.597,13.260 14.708 C 13.339 14.974,13.594 15.263,15.098 16.790 L 16.289 18.000 15.874 18.001 C 15.125 18.002,14.044 18.077,13.898 18.138 C 13.675 18.231,13.381 18.555,13.301 18.796 C 13.215 19.057,13.232 19.473,13.338 19.693 C 13.430 19.884,13.713 20.169,13.944 20.305 L 14.122 20.409 16.831 20.393 C 19.877 20.375,19.633 20.401,19.976 20.057 C 20.078 19.955,20.218 19.790,20.287 19.690 L 20.412 19.508 20.388 16.824 C 20.372 15.098,20.348 14.087,20.320 13.991 C 20.265 13.803,19.937 13.462,19.711 13.359 C 19.473 13.251,18.928 13.251,18.690 13.359 C 18.459 13.464,18.138 13.793,18.079 13.985 C 18.051 14.079,18.024 14.561,18.011 15.210 L 17.990 16.279 16.865 15.172 C 15.472 13.801,14.991 13.371,14.802 13.323 C 14.614 13.277,14.249 13.249,14.102 13.270 " fill="#373B4D" stroke="none" fill-rule="evenodd"></path></svg>