<svg width="24" height="24" viewBox="0 0 24 24" fill="none" xmlns="http://www.w3.org/2000/svg"><path d="M11.540 2.593 C 11.452 2.635,11.236 2.792,11.060 2.942 C 10.646 3.294,7.141 6.801,6.609 7.395 C 6.039 8.032,5.931 8.347,6.135 8.780 C 6.358 9.254,6.737 9.528,7.175 9.532 C 7.647 9.537,7.785 9.431,9.594 7.682 L 10.800 6.515 10.801 11.927 C 10.802 17.945,10.841 20.416,10.939 20.744 C 11.015 21.001,11.246 21.266,11.526 21.421 C 11.806 21.575,12.168 21.585,12.434 21.446 C 12.617 21.349,12.901 21.087,13.024 20.900 C 13.136 20.728,13.153 19.864,13.185 12.827 L 13.213 6.513 13.976 7.269 C 15.516 8.794,16.021 9.246,16.400 9.441 C 16.951 9.724,17.674 9.358,17.880 8.690 C 18.038 8.180,17.984 8.046,17.332 7.340 C 16.030 5.928,13.292 3.227,12.782 2.850 C 12.469 2.620,12.337 2.568,11.989 2.540 C 11.754 2.521,11.670 2.531,11.540 2.593 " fill="#373B4D" stroke="none" fill-rule="evenodd"></path></svg>