<svg width="24" height="24" viewBox="0 0 24 24" fill="none" xmlns="http://www.w3.org/2000/svg"><path d="M10.100 6.319 C 9.086 7.201,5.717 10.573,5.197 11.227 C 4.764 11.771,4.728 12.116,5.053 12.573 C 5.450 13.129,9.793 17.476,10.222 17.746 C 10.491 17.916,10.694 17.974,10.909 17.945 C 11.290 17.893,11.634 17.661,11.831 17.325 C 11.925 17.165,11.940 17.096,11.940 16.820 C 11.940 16.546,11.925 16.474,11.834 16.320 C 11.685 16.068,11.101 15.429,9.923 14.230 L 8.911 13.200 13.640 13.200 L 18.370 13.200 18.701 12.869 C 19.087 12.484,19.139 12.356,19.111 11.873 C 19.095 11.591,19.081 11.550,18.938 11.363 C 18.853 11.251,18.713 11.111,18.628 11.052 C 18.484 10.952,18.433 10.942,17.907 10.916 C 17.595 10.901,15.477 10.866,13.200 10.838 C 10.923 10.811,9.045 10.775,9.026 10.758 C 9.007 10.741,9.468 10.235,10.051 9.634 C 11.572 8.062,11.810 7.787,11.914 7.484 C 12.053 7.075,11.840 6.537,11.437 6.278 C 11.257 6.163,11.210 6.152,10.791 6.132 L 10.340 6.111 10.100 6.319 " fill="#373B4D" stroke="none" fill-rule="evenodd"></path></svg>