<svg width="24" height="24" viewBox="0 0 24 24" fill="none" xmlns="http://www.w3.org/2000/svg"><path d="M11.707 2.484 C 11.623 2.504,11.479 2.572,11.387 2.635 C 10.892 2.976,6.705 7.159,6.232 7.786 C 6.087 7.979,6.067 8.031,6.049 8.280 C 6.018 8.713,6.085 8.891,6.397 9.202 C 6.578 9.382,6.711 9.479,6.825 9.512 C 7.067 9.583,7.433 9.570,7.620 9.485 C 7.839 9.385,8.343 8.928,9.670 7.622 L 10.800 6.511 10.802 12.566 C 10.804 18.181,10.832 20.452,10.904 20.800 C 10.946 21.003,11.415 21.459,11.647 21.522 C 11.915 21.594,12.321 21.551,12.532 21.427 C 12.788 21.277,13.063 20.957,13.096 20.772 C 13.161 20.397,13.197 17.390,13.199 12.166 L 13.200 6.511 14.410 7.703 C 16.251 9.514,16.344 9.585,16.857 9.551 C 17.190 9.529,17.410 9.430,17.645 9.195 C 17.854 8.986,17.924 8.812,17.950 8.438 C 17.966 8.204,17.955 8.102,17.903 7.993 C 17.796 7.767,17.017 6.938,15.279 5.200 C 13.370 3.291,12.738 2.704,12.460 2.578 C 12.224 2.472,11.920 2.434,11.707 2.484 " fill="#373B4D" stroke="none" fill-rule="evenodd"></path></svg>