<svg width="24" height="24" viewBox="0 0 24 24" fill="none" xmlns="http://www.w3.org/2000/svg"><path d="M8.180 6.038 C 8.092 6.053,7.953 6.095,7.870 6.131 C 7.710 6.200,4.110 9.746,3.075 10.852 C 2.607 11.354,2.512 11.476,2.461 11.650 C 2.340 12.057,2.391 12.325,2.655 12.680 C 2.848 12.940,6.299 16.426,7.212 17.285 C 7.778 17.817,7.868 17.886,8.069 17.944 C 8.489 18.066,8.918 17.953,9.235 17.635 C 9.486 17.385,9.580 17.155,9.579 16.800 C 9.577 16.300,9.565 16.285,7.947 14.651 L 6.509 13.201 13.604 13.190 L 20.700 13.180 20.888 13.087 C 21.788 12.644,21.830 11.427,20.961 10.964 L 20.715 10.833 13.618 10.810 L 6.521 10.788 7.952 9.343 C 8.947 8.339,9.411 7.843,9.471 7.719 C 9.754 7.133,9.521 6.439,8.950 6.166 C 8.677 6.035,8.427 5.994,8.180 6.038 " fill="#373B4D" stroke="none" fill-rule="evenodd"></path></svg>