<svg width="24" height="24" viewBox="0 0 24 24" fill="none" xmlns="http://www.w3.org/2000/svg"><path d="M14.958 6.272 C 14.665 6.484,14.527 6.689,14.479 6.984 C 14.400 7.467,14.416 7.542,14.665 7.849 C 14.926 8.172,15.575 8.857,16.676 9.969 C 17.105 10.402,17.448 10.764,17.438 10.773 C 17.428 10.782,14.909 10.811,11.840 10.837 C 5.309 10.892,3.220 10.934,3.029 11.014 C 2.866 11.082,2.681 11.289,2.560 11.541 C 2.485 11.695,2.467 11.796,2.470 12.043 C 2.471 12.213,2.495 12.394,2.523 12.446 C 2.611 12.613,2.847 12.879,3.051 13.041 L 3.250 13.200 10.370 13.200 L 17.489 13.200 16.477 14.230 C 15.306 15.423,14.713 16.070,14.572 16.310 C 14.490 16.450,14.471 16.537,14.466 16.810 C 14.461 17.105,14.472 17.160,14.572 17.331 C 14.802 17.723,15.316 17.999,15.715 17.944 C 15.815 17.930,15.995 17.861,16.114 17.790 C 16.521 17.545,20.788 13.299,21.272 12.657 C 21.386 12.505,21.510 12.288,21.546 12.176 C 21.690 11.723,21.502 11.471,19.517 9.464 C 17.961 7.890,16.520 6.508,16.212 6.293 C 16.027 6.164,15.991 6.155,15.598 6.134 L 15.180 6.111 14.958 6.272 " fill="#373B4D" stroke="none" fill-rule="evenodd"></path></svg>