<svg width="24" height="24" viewBox="0 0 24 24" fill="none" xmlns="http://www.w3.org/2000/svg"><path d="M12.693 3.779 C 12.216 4.022,11.907 4.614,12.041 5.026 C 12.160 5.389,12.567 5.834,15.359 8.651 C 16.509 9.812,17.444 10.768,17.435 10.775 C 17.427 10.783,14.531 10.810,11.000 10.837 C 7.469 10.864,4.240 10.900,3.826 10.918 C 3.081 10.951,3.069 10.953,2.906 11.067 C 2.790 11.148,2.698 11.267,2.600 11.458 C 2.476 11.701,2.460 11.766,2.461 12.036 C 2.462 12.269,2.482 12.377,2.548 12.500 C 2.631 12.656,2.902 12.939,3.135 13.113 L 3.251 13.200 10.370 13.200 L 17.489 13.200 15.338 15.370 C 12.304 18.430,12.083 18.680,12.049 19.096 C 12.019 19.452,12.126 19.733,12.393 20.000 C 12.802 20.408,13.309 20.479,13.735 20.185 C 14.066 19.958,15.429 18.645,17.877 16.197 C 20.452 13.623,21.317 12.712,21.460 12.426 C 21.575 12.194,21.595 11.842,21.505 11.625 C 21.402 11.380,20.954 10.909,18.103 8.045 C 15.138 5.068,14.014 3.980,13.734 3.815 C 13.606 3.740,13.489 3.712,13.234 3.695 C 12.929 3.675,12.882 3.682,12.693 3.779 " fill="#373B4D" stroke="none" fill-rule="evenodd"></path></svg>