<svg width="24" height="24" viewBox="0 0 24 24" fill="none" xmlns="http://www.w3.org/2000/svg"><path d="M12.960 3.636 C 12.725 3.684,12.398 3.888,12.255 4.075 C 12.015 4.389,11.947 4.767,12.061 5.152 C 12.141 5.419,12.221 5.505,15.151 8.444 L 17.487 10.788 10.386 10.810 L 3.285 10.833 3.039 10.964 C 2.170 11.427,2.212 12.644,3.112 13.087 L 3.300 13.180 10.396 13.190 L 17.493 13.201 14.896 15.810 C 13.468 17.246,12.250 18.494,12.189 18.584 C 12.036 18.809,11.971 19.173,12.034 19.450 C 12.097 19.726,12.321 20.047,12.554 20.195 C 13.032 20.498,13.514 20.461,13.960 20.087 C 14.271 19.825,19.597 14.520,20.624 13.449 C 21.385 12.654,21.484 12.535,21.539 12.352 C 21.616 12.091,21.616 11.909,21.539 11.648 C 21.461 11.385,21.343 11.260,17.983 7.887 C 14.852 4.743,13.895 3.819,13.667 3.720 C 13.467 3.634,13.153 3.596,12.960 3.636 " fill="#373B4D" stroke="none" fill-rule="evenodd"></path></svg>