<svg width="24" height="24" viewBox="0 0 24 24" fill="none" xmlns="http://www.w3.org/2000/svg"><path d="M11.495 2.601 C 11.250 2.723,11.017 2.939,10.925 3.130 C 10.843 3.299,10.842 3.359,10.802 10.040 C 10.779 13.747,10.761 16.910,10.760 17.070 C 10.760 17.230,10.746 17.360,10.729 17.360 C 10.712 17.360,10.168 16.853,9.519 16.234 C 7.844 14.635,7.590 14.444,7.205 14.498 C 6.487 14.599,6.111 14.925,6.051 15.501 C 6.025 15.756,6.129 16.007,6.423 16.400 C 6.789 16.889,10.288 20.361,11.240 21.180 C 11.361 21.284,11.556 21.415,11.674 21.470 C 12.088 21.663,12.388 21.540,13.120 20.874 C 13.740 20.310,16.414 17.634,17.186 16.805 C 17.862 16.080,17.983 15.877,17.948 15.537 C 17.920 15.269,17.794 14.997,17.614 14.816 C 17.386 14.589,17.264 14.545,16.797 14.528 L 16.373 14.512 15.997 14.825 C 15.585 15.167,15.004 15.716,13.910 16.798 L 13.200 17.499 13.200 10.353 L 13.200 3.207 12.873 2.904 C 12.506 2.562,12.407 2.521,11.960 2.520 C 11.738 2.520,11.617 2.541,11.495 2.601 " fill="#373B4D" stroke="none" fill-rule="evenodd"></path></svg>