<svg width="24" height="24" viewBox="0 0 24 24" fill="none" xmlns="http://www.w3.org/2000/svg"><path d="M10.780 2.522 C 9.848 2.624,8.586 3.017,7.649 3.498 C 6.239 4.220,4.873 5.459,3.942 6.860 C 3.237 7.919,2.668 9.464,2.501 10.772 C 2.431 11.317,2.420 12.576,2.481 13.081 C 2.696 14.862,3.457 16.662,4.570 18.020 C 4.877 18.396,5.581 19.099,5.937 19.386 C 6.938 20.194,8.256 20.876,9.552 21.258 C 10.154 21.435,10.437 21.479,11.293 21.528 C 12.395 21.591,13.323 21.535,14.020 21.363 C 15.488 21.001,16.913 20.310,18.020 19.422 C 18.626 18.936,19.442 18.067,19.832 17.491 C 20.332 16.753,20.800 15.791,21.123 14.839 C 21.420 13.961,21.478 13.657,21.519 12.742 C 21.551 12.020,21.517 10.595,21.463 10.380 C 21.451 10.336,21.387 10.078,21.320 9.807 C 20.774 7.596,19.537 5.736,17.700 4.361 C 16.366 3.362,14.633 2.668,13.220 2.565 C 12.385 2.504,11.143 2.483,10.780 2.522 M12.638 7.459 C 12.875 7.623,12.993 7.792,13.039 8.033 C 13.090 8.303,13.150 9.661,13.183 11.290 C 13.200 12.120,13.225 12.600,13.250 12.600 C 13.272 12.600,13.511 12.386,13.781 12.125 C 14.969 10.977,15.218 10.825,15.762 10.915 C 16.224 10.991,16.425 11.131,16.616 11.510 C 16.655 11.587,16.692 11.792,16.707 12.013 L 16.731 12.385 16.478 12.683 C 16.157 13.061,13.697 15.543,13.048 16.145 C 12.778 16.395,12.490 16.634,12.408 16.675 C 12.080 16.840,11.802 16.818,11.477 16.603 C 10.998 16.286,7.530 12.810,7.383 12.500 C 7.340 12.409,7.320 12.250,7.320 11.992 C 7.320 11.639,7.328 11.603,7.450 11.400 C 7.615 11.125,7.832 10.973,8.140 10.916 C 8.748 10.805,8.928 10.908,10.146 12.064 C 10.480 12.381,10.761 12.640,10.771 12.640 C 10.780 12.640,10.801 11.888,10.816 10.970 C 10.867 7.981,10.905 7.748,11.396 7.432 C 11.576 7.317,11.590 7.314,12.024 7.327 C 12.440 7.339,12.478 7.347,12.638 7.459 " fill="#373B4D" stroke="none" fill-rule="evenodd"></path></svg>