<svg width="24" height="24" viewBox="0 0 24 24" fill="none" xmlns="http://www.w3.org/2000/svg"><path d="M11.613 4.916 C 11.349 4.984,10.946 5.381,10.876 5.640 C 10.841 5.774,10.824 7.016,10.811 10.451 L 10.794 15.082 9.707 14.015 C 8.377 12.708,7.874 12.254,7.642 12.150 C 7.494 12.083,7.413 12.073,7.154 12.093 C 6.762 12.124,6.588 12.196,6.349 12.432 C 6.133 12.643,6.040 12.881,6.040 13.219 C 6.040 13.667,6.329 14.020,8.316 15.997 C 9.985 17.657,11.171 18.783,11.465 18.985 C 11.678 19.132,11.705 19.140,11.995 19.139 C 12.201 19.139,12.339 19.117,12.421 19.073 C 12.631 18.959,13.176 18.456,14.700 16.972 C 16.501 15.217,17.543 14.129,17.785 13.750 C 17.909 13.557,18.004 13.190,17.973 13.027 C 17.914 12.719,17.667 12.386,17.365 12.208 C 17.199 12.111,17.141 12.100,16.797 12.100 C 16.451 12.100,16.399 12.110,16.257 12.204 C 16.001 12.374,15.407 12.923,14.270 14.038 L 13.200 15.088 13.200 10.352 L 13.200 5.616 12.930 5.334 C 12.782 5.179,12.598 5.020,12.523 4.981 C 12.368 4.901,11.820 4.862,11.613 4.916 " fill="#373B4D" stroke="none" fill-rule="evenodd"></path></svg>