<svg width="24" height="24" viewBox="0 0 24 24" fill="none" xmlns="http://www.w3.org/2000/svg"><path d="M11.432 2.636 C 11.331 2.700,10.972 3.013,10.634 3.331 C 9.740 4.173,6.530 7.420,6.325 7.690 C 5.897 8.253,5.947 8.761,6.482 9.255 C 6.678 9.436,6.757 9.482,6.945 9.521 C 7.370 9.609,7.667 9.496,8.160 9.058 C 8.325 8.912,8.986 8.279,9.630 7.653 L 10.800 6.514 10.801 12.067 C 10.802 15.121,10.819 18.310,10.839 19.153 C 10.881 20.923,10.871 20.875,11.282 21.255 C 11.477 21.436,11.557 21.482,11.743 21.521 C 12.228 21.621,12.670 21.435,12.952 21.011 C 13.080 20.817,13.104 20.744,13.129 20.464 C 13.145 20.286,13.170 17.073,13.184 13.325 L 13.210 6.511 14.015 7.307 C 15.828 9.103,16.227 9.447,16.579 9.520 C 17.167 9.642,17.743 9.268,17.899 8.662 C 17.992 8.300,17.979 8.120,17.846 7.922 C 17.651 7.632,16.484 6.414,14.887 4.834 C 12.604 2.576,12.534 2.521,11.938 2.520 C 11.650 2.520,11.596 2.533,11.432 2.636 " fill="#373B4D" stroke="none" fill-rule="evenodd"></path></svg>