<svg width="24" height="24" viewBox="0 0 24 24" fill="none" xmlns="http://www.w3.org/2000/svg"><path d="M11.474 2.593 C 11.160 2.796,10.123 3.793,7.499 6.418 C 5.124 8.794,4.049 9.904,3.778 10.260 C 3.667 10.404,3.660 10.437,3.660 10.777 C 3.660 11.204,3.712 11.338,3.987 11.613 C 4.258 11.883,4.395 11.936,4.823 11.938 L 5.186 11.940 5.463 11.716 C 5.811 11.436,7.072 10.214,9.170 8.124 L 10.800 6.500 10.802 12.560 C 10.804 18.181,10.832 20.452,10.904 20.800 C 10.946 21.003,11.415 21.459,11.647 21.522 C 11.915 21.594,12.321 21.551,12.532 21.427 C 12.788 21.277,13.063 20.957,13.096 20.772 C 13.161 20.397,13.197 17.390,13.199 12.166 L 13.200 6.511 15.390 8.683 C 17.803 11.075,18.589 11.820,18.800 11.909 C 18.985 11.989,19.487 11.961,19.680 11.861 C 19.757 11.821,19.923 11.683,20.048 11.555 C 20.284 11.314,20.400 11.059,20.400 10.781 C 20.400 10.595,20.230 10.288,19.932 9.935 C 19.605 9.547,13.709 3.624,13.100 3.071 C 12.543 2.566,12.437 2.510,12.000 2.490 C 11.677 2.475,11.650 2.480,11.474 2.593 " fill="#373B4D" stroke="none" fill-rule="evenodd"></path></svg>