<svg width="24" height="24" viewBox="0 0 24 24" fill="none" xmlns="http://www.w3.org/2000/svg"><path d="M11.374 2.653 C 11.036 2.904,8.878 5.006,6.663 7.243 C 4.539 9.389,3.778 10.196,3.695 10.389 C 3.620 10.565,3.626 10.984,3.707 11.223 C 3.795 11.481,4.122 11.806,4.384 11.895 C 4.490 11.931,4.702 11.960,4.863 11.960 C 5.145 11.960,5.158 11.955,5.400 11.773 C 5.701 11.547,6.814 10.471,9.090 8.204 L 10.800 6.500 10.802 12.740 C 10.803 19.186,10.826 20.635,10.930 20.881 C 11.002 21.052,11.390 21.423,11.578 21.502 C 11.787 21.589,12.258 21.578,12.457 21.481 C 12.672 21.377,12.994 21.064,13.067 20.889 C 13.164 20.656,13.197 18.527,13.199 12.285 L 13.200 6.510 15.477 8.771 C 17.700 10.977,18.496 11.737,18.740 11.886 C 18.826 11.939,18.939 11.960,19.135 11.960 C 19.560 11.960,19.703 11.901,20.007 11.599 C 20.229 11.379,20.285 11.296,20.341 11.102 C 20.482 10.618,20.381 10.410,19.590 9.558 C 18.831 8.740,13.752 3.657,13.101 3.064 C 12.520 2.535,12.416 2.482,11.954 2.481 C 11.609 2.480,11.609 2.480,11.374 2.653 " fill="#373B4D" stroke="none" fill-rule="evenodd"></path></svg>