<svg width="24" height="24" viewBox="0 0 24 24" fill="none" xmlns="http://www.w3.org/2000/svg"><path d="M11.433 5.036 C 11.333 5.099,10.992 5.394,10.676 5.691 C 9.835 6.478,6.530 9.821,6.325 10.090 C 5.897 10.654,5.947 11.161,6.482 11.655 C 6.678 11.836,6.757 11.882,6.945 11.921 C 7.370 12.009,7.667 11.896,8.160 11.458 C 8.325 11.312,8.984 10.681,9.625 10.057 L 10.791 8.923 10.813 13.291 C 10.835 17.616,10.855 18.279,10.975 18.510 C 11.040 18.637,11.413 19.000,11.561 19.082 C 11.717 19.168,12.271 19.147,12.464 19.047 C 12.705 18.923,13.039 18.559,13.082 18.376 C 13.156 18.062,13.199 15.897,13.199 12.440 L 13.200 8.901 14.010 9.703 C 15.829 11.503,16.227 11.847,16.579 11.920 C 17.167 12.042,17.743 11.668,17.899 11.062 C 17.992 10.700,17.979 10.520,17.846 10.322 C 17.651 10.032,16.484 8.814,14.887 7.234 C 12.604 4.976,12.534 4.921,11.938 4.920 C 11.651 4.920,11.596 4.933,11.433 5.036 " fill="#373B4D" stroke="none" fill-rule="evenodd"></path></svg>