<svg width="24" height="24" viewBox="0 0 24 24" fill="none" xmlns="http://www.w3.org/2000/svg"><path d="M9.069 2.142 C 8.820 2.311,8.960 1.956,6.508 8.620 C 4.725 13.463,4.068 15.282,4.093 15.306 C 4.102 15.315,4.404 15.215,4.764 15.084 C 6.470 14.467,7.563 14.210,8.937 14.105 L 9.534 14.060 9.890 12.960 C 10.613 10.719,11.678 7.520,11.740 7.400 C 11.941 7.011,12.477 7.042,12.677 7.454 C 12.722 7.548,12.959 8.236,13.203 8.982 C 14.536 13.066,14.854 14.005,14.915 14.036 C 14.951 14.055,15.205 14.082,15.480 14.097 C 16.970 14.179,18.541 14.555,19.871 15.148 C 20.097 15.249,20.292 15.322,20.303 15.310 C 20.327 15.286,19.657 13.432,17.959 8.820 C 16.153 3.917,15.619 2.506,15.500 2.327 C 15.295 2.018,15.547 2.040,12.211 2.040 L 9.219 2.040 9.069 2.142 M8.162 15.152 C 7.889 16.165,8.012 17.386,8.483 18.351 C 8.634 18.660,9.001 19.160,9.077 19.160 C 9.096 19.160,9.123 19.098,9.137 19.023 C 9.174 18.827,9.483 18.425,9.691 18.303 C 9.850 18.210,9.908 18.200,10.285 18.200 C 10.734 18.200,10.773 18.213,11.032 18.455 C 11.206 18.619,11.263 18.836,11.340 19.619 C 11.464 20.875,11.590 21.223,12.127 21.783 C 12.427 22.096,12.859 22.440,12.951 22.440 C 12.971 22.440,12.953 22.247,12.911 22.010 C 12.796 21.364,12.868 20.874,13.141 20.439 C 13.261 20.249,13.635 19.910,14.043 19.623 C 15.578 18.544,15.995 18.065,16.262 17.077 C 16.384 16.625,16.370 15.634,16.239 15.503 C 16.217 15.481,16.018 15.554,15.731 15.689 C 15.160 15.958,14.653 16.135,14.152 16.240 C 12.719 16.539,10.716 16.394,9.498 15.902 C 9.101 15.743,8.821 15.562,8.468 15.238 L 8.204 14.997 8.162 15.152 " fill="#373B4D" stroke="none" fill-rule="evenodd"></path></svg>