<svg width="24" height="24" viewBox="0 0 24 24" fill="none" xmlns="http://www.w3.org/2000/svg"><path d="M9.121 2.085 C 8.963 2.182,8.910 2.241,8.802 2.442 C 8.705 2.624,4.031 15.325,4.053 15.347 C 4.062 15.356,4.287 15.274,4.553 15.164 C 6.019 14.562,7.710 14.152,8.997 14.087 L 9.535 14.060 10.603 10.760 C 11.191 8.945,11.708 7.404,11.752 7.336 C 11.859 7.172,12.089 7.065,12.272 7.094 C 12.409 7.116,12.608 7.269,12.685 7.411 C 12.707 7.450,13.191 8.926,13.762 10.691 C 14.333 12.456,14.817 13.941,14.839 13.990 C 14.876 14.075,14.902 14.080,15.269 14.080 C 16.682 14.080,18.763 14.579,20.054 15.228 C 20.205 15.303,20.334 15.359,20.342 15.351 C 20.353 15.341,17.142 6.582,15.852 3.104 C 15.572 2.347,15.455 2.156,15.212 2.054 C 15.107 2.010,14.526 2.000,12.171 2.000 C 9.274 2.000,9.259 2.001,9.121 2.085 M8.164 15.132 C 8.037 15.535,7.980 16.269,8.037 16.780 C 8.143 17.738,8.452 18.524,8.914 19.010 C 8.992 19.093,9.069 19.160,9.084 19.160 C 9.099 19.160,9.122 19.102,9.136 19.030 C 9.177 18.813,9.387 18.493,9.570 18.368 C 9.807 18.206,10.016 18.145,10.327 18.147 C 10.816 18.150,11.179 18.433,11.279 18.888 C 11.304 19.005,11.341 19.397,11.361 19.760 C 11.401 20.509,11.460 20.770,11.683 21.200 C 11.871 21.562,12.105 21.852,12.400 22.090 C 12.640 22.284,12.947 22.466,12.980 22.434 C 12.991 22.422,12.964 22.272,12.920 22.100 C 12.759 21.472,12.835 20.882,13.135 20.430 C 13.341 20.119,13.540 19.948,14.230 19.487 C 14.561 19.266,14.937 19.001,15.066 18.899 C 15.897 18.239,16.360 17.316,16.359 16.320 C 16.359 15.980,16.288 15.514,16.227 15.453 C 16.214 15.441,16.117 15.481,16.012 15.543 C 15.339 15.939,14.528 16.207,13.600 16.342 C 13.026 16.426,11.645 16.404,11.004 16.301 C 9.765 16.103,8.993 15.779,8.424 15.219 L 8.205 15.003 8.164 15.132 " fill="#373B4D" stroke="none" fill-rule="evenodd"></path></svg>