<svg width="24" height="24" viewBox="0 0 24 24" fill="none" xmlns="http://www.w3.org/2000/svg"><path d="M9.066 2.143 C 8.899 2.258,8.839 2.371,8.531 3.160 C 8.092 4.288,4.616 13.750,4.195 14.968 C 4.144 15.115,4.114 15.247,4.129 15.262 C 4.144 15.277,4.584 15.143,5.108 14.966 C 6.819 14.385,7.708 14.199,9.397 14.070 C 9.532 14.060,9.536 14.054,9.643 13.720 C 9.703 13.533,10.197 12.031,10.740 10.383 C 11.809 7.140,11.786 7.196,12.092 7.139 C 12.280 7.104,12.507 7.212,12.630 7.396 C 12.680 7.472,13.145 8.822,13.664 10.396 C 14.492 12.908,14.859 13.986,14.902 14.034 C 14.908 14.041,15.199 14.073,15.547 14.104 C 17.194 14.250,18.417 14.539,19.741 15.096 C 20.027 15.215,20.266 15.297,20.273 15.277 C 20.281 15.257,20.256 15.146,20.218 15.030 C 20.016 14.417,17.499 7.546,16.448 4.740 C 15.543 2.328,15.485 2.196,15.287 2.109 C 15.209 2.074,14.382 2.058,12.200 2.049 L 9.220 2.037 9.066 2.143 M8.160 15.168 C 8.136 15.263,8.109 15.362,8.099 15.390 C 8.090 15.417,8.064 15.628,8.040 15.860 C 7.967 16.575,8.106 17.476,8.393 18.150 C 8.518 18.443,8.848 18.965,8.989 19.091 C 9.066 19.160,9.071 19.156,9.195 18.904 C 9.343 18.604,9.686 18.265,9.882 18.226 C 9.952 18.212,10.143 18.200,10.306 18.200 C 10.625 18.200,10.836 18.265,10.993 18.412 C 11.197 18.602,11.240 18.764,11.359 19.780 C 11.496 20.961,11.614 21.255,12.176 21.819 C 12.534 22.179,12.904 22.469,12.948 22.425 C 12.960 22.413,12.948 22.236,12.920 22.031 C 12.892 21.827,12.877 21.495,12.887 21.294 C 12.902 20.971,12.922 20.891,13.053 20.627 C 13.248 20.231,13.361 20.128,14.535 19.263 C 15.876 18.275,16.326 17.541,16.336 16.320 C 16.341 15.708,16.308 15.520,16.196 15.520 C 16.152 15.520,15.896 15.617,15.628 15.735 C 15.046 15.991,14.626 16.132,14.140 16.237 C 12.611 16.567,10.398 16.360,9.240 15.778 C 8.933 15.624,8.742 15.488,8.432 15.205 L 8.204 14.996 8.160 15.168 " fill="#373B4D" stroke="none" fill-rule="evenodd"></path></svg>