<svg width="24" height="24" viewBox="0 0 24 24" fill="none" xmlns="http://www.w3.org/2000/svg"><path d="M9.328 2.028 C 9.193 2.041,9.120 2.080,8.984 2.212 C 8.788 2.404,9.003 1.850,6.721 8.040 C 4.715 13.482,4.065 15.278,4.093 15.306 C 4.106 15.320,4.402 15.222,4.749 15.089 C 6.289 14.500,7.723 14.165,9.037 14.089 L 9.535 14.060 9.890 12.960 C 10.705 10.434,11.654 7.570,11.728 7.412 C 11.787 7.287,11.853 7.222,11.983 7.159 C 12.196 7.055,12.328 7.076,12.532 7.244 C 12.672 7.359,12.698 7.427,13.182 8.912 C 14.541 13.088,14.852 14.022,14.887 14.044 C 14.908 14.057,15.180 14.079,15.492 14.093 C 16.913 14.157,18.683 14.586,19.914 15.164 C 20.316 15.353,20.328 15.355,20.304 15.260 C 20.225 14.946,15.780 2.877,15.615 2.531 C 15.526 2.342,15.428 2.204,15.332 2.131 L 15.186 2.020 12.343 2.016 C 10.779 2.013,9.423 2.019,9.328 2.028 M8.166 15.129 C 8.037 15.535,7.979 16.274,8.037 16.760 C 8.153 17.725,8.436 18.466,8.879 18.970 C 9.058 19.172,9.119 19.203,9.121 19.090 C 9.124 18.861,9.455 18.418,9.737 18.267 C 9.872 18.195,9.966 18.180,10.283 18.180 C 10.640 18.180,10.680 18.188,10.863 18.301 C 11.168 18.490,11.272 18.730,11.321 19.360 C 11.441 20.891,11.567 21.247,12.220 21.900 C 12.491 22.171,12.932 22.481,12.979 22.434 C 12.987 22.426,12.959 22.258,12.917 22.060 C 12.790 21.457,12.826 21.054,13.047 20.600 C 13.222 20.241,13.499 19.985,14.301 19.440 C 15.361 18.720,15.857 18.191,16.129 17.490 C 16.344 16.936,16.408 16.362,16.318 15.803 C 16.255 15.416,16.263 15.420,15.906 15.605 C 14.910 16.120,14.012 16.351,12.860 16.388 C 11.297 16.438,9.864 16.172,9.033 15.679 C 8.879 15.587,8.631 15.397,8.480 15.255 L 8.207 14.997 8.166 15.129 " fill="#373B4D" stroke="none" fill-rule="evenodd"></path></svg>