<svg width="24" height="24" viewBox="0 0 24 24" fill="none" xmlns="http://www.w3.org/2000/svg"><path d="M11.140 2.506 C 9.629 2.626,8.046 3.191,6.647 4.110 C 4.799 5.325,3.428 7.205,2.803 9.382 C 2.520 10.368,2.470 10.697,2.451 11.736 C 2.431 12.783,2.464 13.197,2.625 13.916 C 3.012 15.649,3.783 17.179,4.816 18.270 C 5.444 18.933,6.097 19.540,6.462 19.799 C 7.448 20.500,8.593 21.014,9.856 21.322 C 10.609 21.506,10.929 21.537,12.100 21.537 C 13.121 21.538,13.207 21.532,13.682 21.430 C 15.429 21.056,16.748 20.467,17.412 19.763 C 17.633 19.528,17.679 19.455,17.702 19.298 C 17.747 19.002,17.696 18.731,17.552 18.493 C 17.343 18.149,17.045 17.990,16.506 17.937 C 16.271 17.914,16.241 17.922,15.820 18.121 C 15.200 18.413,14.424 18.736,14.006 18.876 C 12.427 19.405,10.578 19.252,8.920 18.456 C 8.107 18.066,7.659 17.754,7.046 17.149 C 6.194 16.308,5.547 15.245,5.131 14.001 C 4.995 13.594,4.990 13.559,4.952 12.661 C 4.913 11.726,4.932 10.882,5.002 10.507 C 5.120 9.870,5.632 8.699,6.107 7.980 C 6.431 7.490,6.909 6.929,7.232 6.658 C 8.026 5.993,9.315 5.307,10.231 5.061 C 10.552 4.974,11.928 4.908,12.720 4.941 C 13.461 4.971,13.859 5.053,14.488 5.302 C 16.497 6.099,17.914 7.523,18.702 9.538 C 18.926 10.113,19.027 10.624,19.079 11.456 C 19.122 12.144,19.111 12.338,19.017 12.524 C 18.940 12.676,18.615 12.984,18.446 13.064 C 18.254 13.156,17.921 13.182,17.705 13.122 C 17.462 13.053,17.162 12.814,17.052 12.600 C 17.001 12.501,16.879 12.062,16.781 11.625 C 16.552 10.607,16.442 10.251,16.222 9.814 C 15.736 8.847,14.702 7.959,13.500 7.478 C 13.216 7.364,13.124 7.347,12.680 7.330 C 12.405 7.320,11.831 7.331,11.405 7.355 L 10.630 7.399 10.125 7.662 C 9.411 8.035,9.002 8.319,8.579 8.737 C 8.029 9.280,7.692 9.837,7.449 10.600 C 7.268 11.169,7.226 11.509,7.251 12.209 C 7.269 12.696,7.294 12.896,7.377 13.196 C 7.622 14.079,8.138 14.876,8.927 15.591 C 9.927 16.498,11.225 16.892,12.641 16.719 C 13.150 16.656,13.532 16.541,14.020 16.301 C 14.514 16.058,14.908 15.775,15.460 15.265 L 15.837 14.917 16.160 15.080 C 17.090 15.548,18.037 15.671,18.937 15.441 C 19.796 15.221,20.783 14.382,21.219 13.500 C 21.494 12.945,21.520 12.797,21.520 11.782 C 21.520 10.800,21.471 10.369,21.279 9.652 C 20.545 6.897,18.757 4.716,16.180 3.431 C 15.677 3.180,15.132 2.966,14.640 2.826 C 13.775 2.579,12.125 2.428,11.140 2.506 M13.073 9.938 C 13.394 10.133,13.761 10.462,13.923 10.700 C 13.968 10.766,14.068 10.945,14.146 11.097 L 14.288 11.373 14.273 12.037 L 14.259 12.700 14.120 12.980 C 13.919 13.387,13.366 13.937,12.960 14.135 C 12.373 14.420,11.626 14.421,11.047 14.136 C 10.529 13.882,9.974 13.277,9.789 12.765 C 9.665 12.422,9.667 11.639,9.793 11.272 C 9.906 10.942,10.124 10.601,10.383 10.347 C 10.598 10.135,11.030 9.836,11.220 9.767 C 11.294 9.740,11.612 9.726,12.043 9.732 L 12.745 9.740 13.073 9.938 " fill="#373B4D" stroke="none" fill-rule="evenodd"></path></svg>