<svg width="24" height="24" viewBox="0 0 24 24" fill="none" xmlns="http://www.w3.org/2000/svg"><path d="M10.920 2.544 C 10.865 2.555,10.631 2.600,10.400 2.645 C 9.124 2.892,8.459 3.124,7.460 3.672 C 6.310 4.303,5.545 4.917,4.709 5.880 C 3.723 7.015,2.830 8.871,2.580 10.307 C 2.412 11.269,2.403 12.765,2.560 13.574 C 2.859 15.114,3.592 16.752,4.460 17.821 C 5.106 18.616,6.315 19.706,7.050 20.155 C 7.823 20.626,9.158 21.163,10.103 21.382 C 10.461 21.465,11.390 21.518,12.524 21.519 L 13.469 21.520 14.163 21.317 C 16.095 20.752,17.262 20.123,17.612 19.460 C 17.773 19.153,17.694 18.690,17.424 18.372 C 17.271 18.190,16.952 18.053,16.558 17.999 L 16.220 17.952 15.740 18.160 C 13.726 19.033,12.614 19.297,11.520 19.163 C 9.001 18.855,7.079 17.641,5.920 15.624 C 5.646 15.148,5.293 14.395,5.166 14.019 C 5.047 13.662,5.000 13.110,5.000 12.049 C 5.000 10.388,5.062 10.079,5.619 8.940 C 6.427 7.290,7.239 6.481,8.961 5.610 C 10.061 5.054,10.238 5.020,12.000 5.022 C 13.448 5.025,13.767 5.060,14.335 5.280 C 14.995 5.536,15.765 5.962,16.371 6.409 C 17.365 7.141,18.321 8.512,18.761 9.836 C 18.949 10.403,18.995 10.703,19.027 11.582 C 19.055 12.365,19.036 12.463,18.798 12.733 C 18.391 13.195,17.731 13.255,17.326 12.868 C 17.116 12.667,17.025 12.442,16.723 11.384 C 16.422 10.332,16.282 9.951,16.057 9.577 C 15.604 8.825,14.812 8.141,13.860 7.681 C 13.251 7.386,13.195 7.378,11.821 7.391 L 10.622 7.402 10.223 7.628 C 9.440 8.071,9.001 8.393,8.520 8.877 C 8.022 9.378,7.820 9.682,7.568 10.312 C 7.355 10.840,7.281 11.278,7.281 12.006 C 7.280 12.741,7.337 13.093,7.533 13.566 C 7.965 14.607,8.602 15.383,9.552 16.029 C 10.329 16.557,11.480 16.835,12.447 16.728 C 13.049 16.662,13.439 16.548,13.980 16.280 C 14.481 16.033,15.007 15.664,15.526 15.196 L 15.831 14.921 16.166 15.078 C 17.048 15.491,18.115 15.624,18.900 15.418 C 19.873 15.163,20.940 14.187,21.334 13.193 C 21.511 12.746,21.563 11.904,21.478 10.856 C 21.425 10.203,21.360 9.888,21.145 9.250 C 20.240 6.567,18.528 4.605,16.052 3.412 C 14.809 2.813,13.671 2.577,11.840 2.541 C 11.389 2.532,10.975 2.534,10.920 2.544 M12.940 9.902 C 13.324 10.083,13.848 10.609,14.113 11.080 L 14.260 11.340 14.256 11.820 C 14.249 12.802,14.144 13.056,13.480 13.696 C 12.953 14.203,12.550 14.355,11.847 14.309 C 11.219 14.268,10.877 14.091,10.336 13.526 C 9.833 13.002,9.766 12.801,9.762 11.798 L 9.760 11.296 9.939 11.006 C 10.037 10.847,10.184 10.636,10.264 10.537 C 10.429 10.337,10.828 10.008,11.037 9.901 C 11.221 9.807,11.635 9.768,12.240 9.790 C 12.659 9.805,12.773 9.823,12.940 9.902 " fill="#373B4D" stroke="none" fill-rule="evenodd"></path></svg>