<svg width="24" height="24" viewBox="0 0 24 24" fill="none" xmlns="http://www.w3.org/2000/svg"><path d="M10.900 2.507 C 8.291 2.831,5.887 4.207,4.339 6.263 C 2.979 8.071,2.268 10.446,2.435 12.627 C 2.542 14.010,2.889 15.225,3.525 16.440 C 4.004 17.355,4.519 18.038,5.324 18.828 C 6.110 19.600,6.780 20.089,7.640 20.519 C 9.236 21.317,10.822 21.653,12.560 21.559 C 13.470 21.510,14.052 21.396,15.040 21.074 C 16.088 20.732,16.886 20.311,17.347 19.858 C 17.584 19.624,17.644 19.538,17.697 19.356 C 17.800 19.003,17.708 18.654,17.415 18.294 C 17.228 18.063,17.010 17.967,16.599 17.937 L 16.260 17.912 15.580 18.230 C 14.082 18.931,13.410 19.129,12.340 19.185 C 10.615 19.276,8.647 18.592,7.331 17.445 C 6.318 16.561,5.481 15.227,5.071 13.843 L 4.945 13.420 4.930 12.170 C 4.912 10.766,4.930 10.583,5.144 9.939 C 5.668 8.369,6.557 7.100,7.719 6.263 C 8.445 5.740,9.399 5.280,10.224 5.054 C 10.609 4.949,10.655 4.945,11.912 4.930 C 13.191 4.915,13.208 4.916,13.614 5.018 C 15.782 5.561,17.535 6.977,18.459 8.931 C 18.720 9.485,18.942 10.136,19.016 10.571 C 19.086 10.973,19.140 12.122,19.101 12.353 C 19.065 12.568,18.774 12.896,18.474 13.061 C 18.081 13.277,17.583 13.192,17.227 12.848 C 16.990 12.620,16.933 12.467,16.780 11.641 C 16.491 10.081,16.176 9.435,15.296 8.599 C 14.736 8.067,14.200 7.734,13.460 7.459 L 13.060 7.311 11.940 7.329 C 10.668 7.350,10.725 7.338,9.936 7.743 C 8.672 8.391,7.865 9.300,7.462 10.531 C 6.904 12.233,7.304 13.940,8.572 15.266 C 9.209 15.932,9.755 16.282,10.580 16.554 C 10.982 16.687,11.134 16.716,11.520 16.738 C 13.205 16.831,14.189 16.466,15.448 15.282 L 15.836 14.917 16.188 15.093 C 16.875 15.438,17.359 15.560,18.038 15.560 C 19.015 15.560,19.777 15.227,20.521 14.477 C 21.015 13.978,21.350 13.408,21.472 12.860 C 21.594 12.308,21.556 10.858,21.400 10.120 C 20.769 7.137,18.853 4.700,16.100 3.376 C 14.747 2.726,13.529 2.473,11.811 2.486 C 11.376 2.489,10.966 2.499,10.900 2.507 M12.986 9.879 C 13.473 10.120,13.882 10.531,14.127 11.024 C 14.296 11.366,14.300 11.383,14.314 11.835 C 14.338 12.674,14.175 13.106,13.621 13.663 C 13.137 14.149,12.655 14.359,12.017 14.360 C 11.374 14.360,10.892 14.166,10.440 13.723 C 9.867 13.161,9.671 12.739,9.668 12.060 C 9.663 11.185,10.028 10.507,10.767 10.016 C 11.242 9.700,11.330 9.677,12.026 9.691 L 12.633 9.703 12.986 9.879 " fill="#373B4D" stroke="none" fill-rule="evenodd"></path></svg>