<svg width="24" height="24" viewBox="0 0 24 24" fill="none" xmlns="http://www.w3.org/2000/svg"><path d="M10.620 2.508 C 8.143 2.877,5.824 4.247,4.363 6.202 C 3.342 7.569,2.777 8.916,2.494 10.660 C 2.393 11.277,2.393 12.679,2.492 13.320 C 2.710 14.719,3.144 15.916,3.830 17.010 C 4.861 18.653,6.101 19.780,7.780 20.602 C 10.006 21.692,12.432 21.891,14.785 21.178 C 16.133 20.769,17.337 20.101,17.611 19.608 C 17.868 19.149,17.779 18.613,17.380 18.215 C 17.141 17.976,16.892 17.880,16.512 17.880 C 16.305 17.880,16.226 17.907,15.810 18.123 C 14.405 18.849,13.479 19.134,12.360 19.187 C 9.817 19.307,7.412 18.092,6.024 15.985 C 4.210 13.230,4.457 9.695,6.638 7.210 C 7.607 6.105,9.080 5.258,10.545 4.962 C 11.961 4.677,13.480 4.822,14.760 5.366 C 16.419 6.071,17.692 7.273,18.462 8.860 C 18.862 9.685,19.076 10.481,19.162 11.466 C 19.212 12.040,19.186 12.273,19.040 12.560 C 18.609 13.405,17.377 13.399,16.963 12.550 C 16.861 12.341,16.834 12.222,16.799 11.820 C 16.707 10.762,16.494 10.121,15.968 9.320 C 15.699 8.911,15.126 8.332,14.728 8.067 C 14.144 7.678,13.435 7.384,12.822 7.277 C 12.656 7.249,12.285 7.238,11.829 7.250 C 11.184 7.266,11.058 7.281,10.740 7.376 C 9.945 7.615,9.183 8.062,8.619 8.620 C 7.313 9.910,6.868 11.814,7.466 13.554 C 7.936 14.927,9.092 16.080,10.452 16.534 C 11.003 16.718,11.374 16.777,11.980 16.776 C 13.375 16.775,14.465 16.312,15.461 15.299 L 15.863 14.891 16.001 14.990 C 16.226 15.150,16.758 15.389,17.094 15.481 C 17.370 15.557,17.486 15.565,18.093 15.552 C 18.724 15.538,18.807 15.528,19.112 15.423 C 20.177 15.055,21.011 14.233,21.403 13.163 C 21.562 12.730,21.602 12.258,21.556 11.380 C 21.433 9.049,20.462 6.907,18.754 5.198 C 17.255 3.699,15.235 2.721,13.140 2.482 C 12.608 2.421,11.097 2.437,10.620 2.508 M12.641 9.704 C 13.836 10.059,14.582 11.259,14.342 12.441 C 14.115 13.561,13.107 14.400,11.989 14.400 C 11.708 14.400,11.204 14.271,10.896 14.120 C 10.611 13.981,10.184 13.582,9.981 13.264 C 9.222 12.078,9.685 10.494,10.975 9.859 C 11.176 9.760,11.439 9.663,11.560 9.642 C 11.848 9.593,12.366 9.622,12.641 9.704 " fill="#373B4D" stroke="none" fill-rule="evenodd"></path></svg>