<svg width="24" height="24" viewBox="0 0 24 24" fill="none" xmlns="http://www.w3.org/2000/svg"><path d="M10.759 2.559 C 10.153 2.640,9.304 2.851,8.725 3.065 C 7.874 3.379,6.732 4.017,6.022 4.575 C 4.316 5.915,3.112 7.884,2.596 10.180 C 2.453 10.816,2.396 12.278,2.483 13.072 C 2.663 14.714,3.526 16.772,4.515 17.920 C 6.061 19.712,7.465 20.635,9.568 21.239 C 10.451 21.493,10.801 21.528,12.249 21.511 L 13.500 21.495 14.077 21.344 C 15.574 20.952,16.652 20.458,17.307 19.866 C 17.543 19.652,17.720 19.332,17.720 19.119 C 17.720 18.904,17.616 18.595,17.483 18.410 C 17.307 18.168,16.926 17.992,16.525 17.969 L 16.216 17.951 15.558 18.240 C 14.310 18.789,13.743 18.986,13.080 19.099 C 12.031 19.277,11.028 19.189,9.879 18.818 C 8.240 18.290,7.054 17.399,6.101 15.980 C 5.856 15.614,5.317 14.517,5.159 14.060 C 4.992 13.579,4.948 13.000,4.971 11.640 C 4.987 10.740,5.002 10.532,5.072 10.260 C 5.241 9.607,5.727 8.572,6.193 7.877 C 6.867 6.870,7.708 6.187,9.100 5.517 C 10.145 5.014,10.305 4.984,12.000 4.982 C 12.912 4.980,13.337 4.995,13.540 5.035 C 14.544 5.232,15.847 5.895,16.711 6.650 C 17.809 7.608,18.782 9.310,18.978 10.614 C 19.065 11.194,19.102 12.232,19.042 12.415 C 18.985 12.587,18.643 12.954,18.439 13.062 C 18.264 13.154,17.804 13.159,17.594 13.070 C 17.374 12.976,17.139 12.742,17.044 12.521 C 16.997 12.411,16.853 11.903,16.724 11.391 C 16.595 10.879,16.425 10.302,16.347 10.108 C 15.913 9.036,14.867 8.064,13.553 7.511 C 13.166 7.349,12.662 7.313,11.520 7.365 L 10.620 7.406 10.096 7.688 C 8.544 8.523,7.738 9.468,7.373 10.880 C 7.193 11.575,7.206 12.522,7.405 13.252 C 7.518 13.666,7.874 14.366,8.174 14.761 C 8.649 15.388,9.422 16.042,10.020 16.322 C 11.056 16.808,12.380 16.890,13.436 16.536 C 14.100 16.313,14.832 15.847,15.526 15.204 L 15.831 14.921 16.166 15.077 C 16.869 15.406,17.410 15.537,18.060 15.537 C 18.910 15.537,19.573 15.275,20.308 14.650 C 20.762 14.265,21.241 13.556,21.411 13.020 C 21.494 12.760,21.500 12.665,21.499 11.700 C 21.497 10.558,21.451 10.195,21.202 9.387 C 20.381 6.720,18.667 4.695,16.175 3.448 C 14.987 2.853,14.076 2.633,12.340 2.520 C 11.561 2.470,11.407 2.473,10.759 2.559 M12.900 9.856 C 13.179 9.984,13.633 10.351,13.828 10.606 C 13.918 10.724,14.060 10.944,14.142 11.094 L 14.292 11.369 14.267 12.050 C 14.241 12.731,14.241 12.731,14.104 12.975 C 13.885 13.367,13.452 13.829,13.093 14.053 C 12.751 14.267,12.471 14.329,11.917 14.314 C 11.416 14.300,11.412 14.299,11.067 14.128 C 10.677 13.935,10.286 13.582,10.028 13.191 C 9.768 12.797,9.744 12.695,9.742 11.980 L 9.740 11.340 9.912 11.023 C 10.113 10.652,10.238 10.499,10.574 10.207 C 10.879 9.943,11.159 9.793,11.420 9.755 C 11.530 9.739,11.863 9.735,12.160 9.745 C 12.612 9.761,12.732 9.779,12.900 9.856 " fill="#373B4D" stroke="none" fill-rule="evenodd"></path></svg>