<svg width="24" height="24" viewBox="0 0 24 24" fill="none" xmlns="http://www.w3.org/2000/svg"><path d="M11.200 2.505 C 10.311 2.612,9.263 2.856,8.640 3.101 C 6.892 3.789,5.416 4.886,4.376 6.268 C 3.482 7.455,2.755 9.136,2.537 10.520 C 2.454 11.045,2.418 12.476,2.475 12.993 C 2.648 14.569,3.368 16.398,4.313 17.667 C 4.677 18.154,5.807 19.274,6.330 19.665 C 7.186 20.304,8.014 20.731,9.080 21.081 C 10.282 21.476,10.593 21.519,12.241 21.520 L 13.423 21.520 14.021 21.359 C 16.085 20.802,17.397 20.079,17.667 19.347 C 17.737 19.158,17.729 19.003,17.637 18.729 C 17.483 18.273,17.110 18.024,16.506 17.975 L 16.220 17.952 15.421 18.299 C 13.663 19.064,12.654 19.286,11.500 19.162 C 9.593 18.958,7.810 18.067,6.700 16.763 C 6.277 16.266,6.027 15.883,5.680 15.198 C 5.283 14.414,5.126 14.020,5.057 13.640 C 4.978 13.205,4.945 11.933,4.992 11.097 C 5.029 10.435,5.044 10.338,5.172 9.957 C 5.342 9.449,5.635 8.817,5.943 8.292 C 6.676 7.042,7.437 6.362,8.960 5.593 C 9.628 5.256,10.056 5.099,10.457 5.043 C 10.959 4.973,13.261 4.987,13.625 5.062 C 14.661 5.276,16.036 6.018,16.865 6.811 C 17.868 7.770,18.684 9.193,18.939 10.428 C 19.016 10.801,19.095 11.961,19.062 12.215 C 19.026 12.483,18.968 12.582,18.690 12.847 C 18.421 13.104,18.317 13.138,17.882 13.113 C 17.650 13.100,17.577 13.078,17.436 12.975 C 17.163 12.778,17.056 12.589,16.903 12.040 C 16.827 11.765,16.683 11.243,16.583 10.880 C 16.293 9.831,15.987 9.297,15.300 8.647 C 14.691 8.070,13.789 7.542,13.197 7.415 C 12.949 7.362,12.712 7.355,11.769 7.373 L 10.638 7.395 10.189 7.641 C 8.668 8.475,7.920 9.261,7.509 10.460 C 7.303 11.059,7.259 11.339,7.264 12.040 C 7.269 12.898,7.350 13.242,7.719 13.980 C 8.047 14.635,8.395 15.092,8.916 15.550 C 9.802 16.329,10.653 16.682,11.800 16.744 C 13.151 16.818,14.288 16.341,15.566 15.165 L 15.831 14.921 16.166 15.075 C 16.886 15.406,17.387 15.524,18.060 15.523 C 18.861 15.522,19.401 15.334,20.090 14.818 C 20.644 14.402,21.198 13.656,21.392 13.067 C 21.573 12.516,21.545 10.720,21.344 9.900 C 20.837 7.841,19.645 5.940,18.065 4.672 C 16.697 3.574,15.193 2.880,13.719 2.665 C 12.940 2.552,11.546 2.463,11.200 2.505 M12.740 9.804 C 13.152 9.918,13.751 10.451,14.078 10.996 C 14.277 11.328,14.280 11.337,14.278 11.656 C 14.277 11.834,14.262 12.161,14.245 12.382 C 14.218 12.752,14.203 12.806,14.061 13.042 C 13.976 13.184,13.743 13.462,13.543 13.660 C 12.987 14.212,12.639 14.345,11.840 14.311 C 11.375 14.291,11.153 14.219,10.810 13.975 C 10.363 13.657,9.920 13.120,9.814 12.767 C 9.778 12.648,9.760 12.369,9.760 11.943 L 9.760 11.298 9.942 10.979 C 10.223 10.483,10.773 9.974,11.190 9.821 C 11.377 9.752,12.506 9.740,12.740 9.804 " fill="#373B4D" stroke="none" fill-rule="evenodd"></path></svg>