<svg width="24" height="24" viewBox="0 0 24 24" fill="none" xmlns="http://www.w3.org/2000/svg"><path d="M11.240 2.510 C 10.667 2.557,9.426 2.829,8.820 3.039 C 7.949 3.342,6.680 4.061,5.900 4.692 C 5.432 5.071,4.700 5.837,4.337 6.328 C 3.563 7.374,2.911 8.806,2.623 10.093 C 2.427 10.963,2.387 12.630,2.541 13.480 C 2.710 14.414,3.010 15.305,3.478 16.260 C 4.020 17.365,4.484 17.965,5.642 19.061 C 6.715 20.075,7.784 20.677,9.420 21.188 C 10.305 21.465,10.475 21.486,12.020 21.508 L 13.420 21.528 13.940 21.383 C 15.435 20.964,16.402 20.556,17.043 20.073 C 17.680 19.593,17.838 19.188,17.598 18.646 C 17.426 18.256,17.112 18.058,16.565 17.992 L 16.220 17.950 15.460 18.280 C 13.700 19.043,12.611 19.287,11.520 19.163 C 9.218 18.900,7.302 17.785,6.172 16.052 C 5.749 15.404,5.235 14.330,5.100 13.813 C 4.999 13.429,4.947 12.083,4.997 11.193 C 5.021 10.768,5.066 10.324,5.098 10.206 C 5.246 9.649,5.666 8.742,6.090 8.060 C 6.749 7.000,7.515 6.340,8.913 5.627 C 10.020 5.062,10.308 5.002,11.900 5.002 C 13.165 5.002,13.648 5.045,14.120 5.198 C 14.932 5.462,16.004 6.071,16.689 6.657 C 17.760 7.573,18.755 9.290,18.959 10.574 C 18.980 10.709,19.017 11.107,19.040 11.458 C 19.095 12.290,19.067 12.441,18.796 12.737 C 18.542 13.015,18.328 13.120,18.017 13.120 C 17.668 13.119,17.506 13.060,17.304 12.858 C 17.092 12.646,17.032 12.497,16.758 11.507 C 16.480 10.503,16.376 10.191,16.193 9.820 C 15.790 9.002,14.947 8.213,13.937 7.707 C 13.269 7.372,13.053 7.341,11.655 7.380 L 10.605 7.409 10.103 7.694 C 8.513 8.600,7.785 9.437,7.401 10.802 C 7.221 11.440,7.222 12.633,7.402 13.220 C 7.581 13.803,7.995 14.543,8.433 15.065 C 8.685 15.366,9.195 15.802,9.608 16.071 C 10.781 16.834,12.468 16.967,13.762 16.399 C 14.328 16.151,14.923 15.747,15.518 15.206 L 15.837 14.917 16.029 15.014 C 17.161 15.584,18.439 15.679,19.348 15.260 C 20.309 14.816,21.188 13.832,21.421 12.940 C 21.559 12.408,21.534 10.815,21.375 10.040 C 21.269 9.523,20.934 8.579,20.648 7.986 C 20.139 6.931,19.585 6.145,18.780 5.337 C 17.347 3.897,15.460 2.913,13.657 2.665 C 12.946 2.567,11.596 2.481,11.240 2.510 M12.920 9.879 C 13.348 10.098,13.796 10.540,14.106 11.050 C 14.287 11.348,14.309 11.535,14.246 12.267 C 14.213 12.650,14.183 12.795,14.106 12.947 C 13.921 13.308,13.295 13.949,12.958 14.121 C 12.424 14.394,11.556 14.388,11.020 14.108 C 10.692 13.936,10.104 13.343,9.922 13.000 L 9.784 12.740 9.767 12.032 L 9.750 11.324 9.881 11.092 C 10.077 10.743,10.339 10.420,10.606 10.198 C 11.078 9.806,11.246 9.760,12.160 9.777 C 12.674 9.786,12.761 9.798,12.920 9.879 " fill="#373B4D" stroke="none" fill-rule="evenodd"></path></svg>