<svg width="24" height="24" viewBox="0 0 24 24" fill="none" xmlns="http://www.w3.org/2000/svg"><path d="M10.680 2.585 C 9.119 2.890,8.259 3.201,7.095 3.884 C 6.042 4.501,5.100 5.336,4.389 6.283 C 3.706 7.192,3.073 8.475,2.740 9.624 C 2.401 10.792,2.344 12.580,2.605 13.798 C 2.715 14.309,3.065 15.361,3.298 15.880 C 3.545 16.430,3.899 17.049,4.231 17.515 C 4.862 18.400,6.315 19.732,7.220 20.254 C 8.092 20.757,9.676 21.336,10.460 21.439 C 10.658 21.465,11.405 21.496,12.120 21.508 L 13.420 21.530 13.879 21.400 C 15.197 21.027,16.318 20.570,16.918 20.161 C 17.221 19.954,17.577 19.571,17.638 19.385 C 17.768 18.992,17.598 18.476,17.265 18.251 C 17.050 18.106,16.904 18.057,16.500 17.997 L 16.220 17.955 15.520 18.252 C 14.638 18.627,13.791 18.921,13.177 19.064 C 11.676 19.413,9.583 18.949,8.058 17.928 C 7.006 17.223,6.255 16.326,5.593 14.980 C 5.176 14.132,5.092 13.859,5.036 13.150 C 4.983 12.494,5.011 10.786,5.079 10.420 C 5.160 9.990,5.291 9.635,5.603 9.000 C 6.479 7.214,7.250 6.460,9.159 5.523 C 10.079 5.071,10.109 5.066,11.774 5.048 C 13.701 5.028,13.964 5.071,14.980 5.576 C 16.472 6.316,17.437 7.228,18.224 8.638 C 18.752 9.586,18.943 10.245,19.008 11.348 C 19.065 12.320,19.039 12.474,18.767 12.752 C 18.440 13.086,18.025 13.202,17.657 13.061 C 17.231 12.898,17.104 12.674,16.741 11.447 C 16.331 10.058,16.203 9.744,15.862 9.291 C 15.412 8.692,14.728 8.134,13.965 7.744 C 13.307 7.408,13.260 7.400,11.846 7.400 L 10.629 7.400 10.265 7.607 C 9.168 8.228,8.370 8.909,7.917 9.609 C 7.735 9.892,7.505 10.431,7.395 10.837 C 7.290 11.225,7.247 12.277,7.317 12.753 C 7.560 14.421,9.117 16.130,10.800 16.579 C 12.468 17.023,13.880 16.619,15.466 15.243 L 15.840 14.918 15.990 14.995 C 16.288 15.147,16.657 15.280,17.074 15.386 C 17.618 15.525,18.456 15.543,18.880 15.425 C 19.988 15.118,21.110 14.013,21.407 12.937 C 21.485 12.657,21.495 12.518,21.497 11.740 C 21.499 10.511,21.420 10.021,21.054 9.000 C 20.213 6.656,18.655 4.822,16.520 3.663 C 15.475 3.096,14.635 2.815,13.520 2.658 C 13.072 2.595,10.913 2.540,10.680 2.585 M13.000 9.940 C 13.300 10.103,13.867 10.675,14.073 11.022 L 14.240 11.305 14.240 11.827 C 14.240 12.770,14.142 13.026,13.563 13.600 C 13.152 14.007,12.912 14.161,12.539 14.259 C 12.086 14.377,11.454 14.310,11.040 14.100 C 10.745 13.951,10.122 13.337,9.964 13.042 C 9.815 12.763,9.763 12.431,9.761 11.755 L 9.760 11.290 9.965 10.975 C 10.273 10.503,10.372 10.390,10.701 10.138 C 11.107 9.827,11.223 9.799,12.080 9.811 C 12.774 9.820,12.782 9.821,13.000 9.940 " fill="#373B4D" stroke="none" fill-rule="evenodd"></path></svg>