<svg width="24" height="24" viewBox="0 0 24 24" fill="none" xmlns="http://www.w3.org/2000/svg"><path d="M11.200 2.503 C 11.123 2.512,10.889 2.539,10.680 2.563 C 10.156 2.624,9.189 2.876,8.617 3.102 C 6.657 3.876,5.139 5.077,4.023 6.740 C 3.347 7.746,2.727 9.323,2.520 10.560 C 2.496 10.703,2.466 11.243,2.454 11.760 C 2.427 12.852,2.477 13.351,2.697 14.211 C 3.032 15.518,3.589 16.713,4.309 17.671 C 4.594 18.049,5.365 18.853,5.900 19.329 C 6.903 20.222,8.157 20.867,9.680 21.274 C 10.499 21.493,10.825 21.528,12.080 21.531 C 13.107 21.533,13.260 21.525,13.620 21.446 C 15.311 21.078,16.589 20.531,17.307 19.865 C 17.637 19.560,17.737 19.352,17.711 19.026 C 17.662 18.426,17.299 18.068,16.627 17.961 C 16.300 17.909,16.258 17.920,15.605 18.219 C 14.954 18.517,14.222 18.808,13.800 18.935 C 12.233 19.407,10.479 19.213,8.775 18.378 C 7.700 17.851,6.828 17.073,6.111 16.001 C 5.686 15.366,5.202 14.320,5.041 13.693 C 4.970 13.414,4.916 11.724,4.958 11.080 C 5.002 10.398,5.092 10.049,5.417 9.297 C 6.015 7.917,6.795 6.915,7.794 6.247 C 8.635 5.685,9.688 5.181,10.277 5.058 C 10.692 4.971,12.169 4.915,12.862 4.959 C 13.575 5.005,14.034 5.112,14.660 5.380 C 16.408 6.128,17.598 7.253,18.426 8.940 C 18.720 9.538,18.884 10.019,18.978 10.560 C 19.052 10.978,19.107 12.143,19.064 12.370 C 19.031 12.550,18.740 12.881,18.485 13.031 C 18.327 13.124,18.256 13.140,18.000 13.139 C 17.641 13.138,17.460 13.057,17.211 12.787 C 17.024 12.585,16.966 12.420,16.744 11.460 C 16.438 10.135,16.211 9.631,15.609 8.933 C 15.393 8.683,14.928 8.286,14.568 8.044 C 14.280 7.850,13.626 7.517,13.358 7.427 C 13.073 7.332,12.416 7.308,11.480 7.358 L 10.620 7.404 10.160 7.647 C 8.863 8.331,8.147 9.014,7.679 10.013 C 7.386 10.637,7.241 11.278,7.241 11.940 C 7.241 13.054,7.521 13.899,8.182 14.780 C 8.619 15.363,9.366 16.003,9.951 16.296 C 10.496 16.570,11.318 16.760,11.961 16.760 C 13.323 16.760,14.330 16.318,15.548 15.185 L 15.835 14.917 16.121 15.061 C 16.566 15.284,17.180 15.474,17.634 15.527 C 18.622 15.643,19.481 15.365,20.293 14.666 C 20.851 14.186,21.339 13.427,21.462 12.849 C 21.538 12.486,21.538 11.125,21.460 10.543 C 21.255 8.997,20.417 7.176,19.302 5.852 C 18.027 4.338,15.976 3.087,14.171 2.723 C 13.401 2.568,11.716 2.443,11.200 2.503 M12.527 9.754 C 12.816 9.780,12.855 9.796,13.175 10.013 C 13.609 10.308,13.894 10.619,14.115 11.038 L 14.291 11.370 14.272 12.037 L 14.252 12.705 14.098 12.998 C 13.922 13.334,13.498 13.792,13.160 14.012 C 12.797 14.248,12.486 14.334,12.000 14.335 C 11.649 14.335,11.533 14.319,11.291 14.232 C 10.791 14.053,10.334 13.671,9.998 13.152 C 9.754 12.775,9.709 12.567,9.726 11.920 L 9.741 11.371 9.917 11.016 C 10.056 10.733,10.155 10.598,10.398 10.360 C 10.755 10.009,11.099 9.793,11.357 9.756 C 11.607 9.721,12.157 9.720,12.527 9.754 " fill="#373B4D" stroke="none" fill-rule="evenodd"></path></svg>