<svg width="24" height="24" viewBox="0 0 24 24" fill="none" xmlns="http://www.w3.org/2000/svg"><path d="M7.310 3.027 C 6.678 3.035,6.160 3.051,6.160 3.063 C 6.160 3.075,5.898 3.898,5.577 4.892 C 4.839 7.183,4.480 8.341,4.480 8.436 C 4.480 8.507,4.543 8.512,5.650 8.538 C 6.294 8.553,7.584 8.559,8.517 8.553 L 10.213 8.540 10.549 7.500 C 11.258 5.306,11.846 3.534,11.916 3.380 L 11.988 3.220 12.055 3.377 C 12.092 3.463,12.502 4.665,12.966 6.047 L 13.811 8.560 16.667 8.560 C 19.077 8.560,19.526 8.551,19.544 8.504 C 19.572 8.432,19.578 8.450,18.633 5.532 L 17.826 3.040 15.983 3.040 C 14.969 3.040,12.862 3.034,11.300 3.026 C 9.738 3.018,7.942 3.019,7.310 3.027 M4.362 8.717 C 4.239 8.946,4.067 9.996,4.021 10.800 C 3.928 12.412,4.571 14.478,5.584 15.824 C 6.062 16.458,6.677 17.040,7.740 17.864 C 8.630 18.554,11.727 20.817,11.927 20.924 C 12.028 20.978,12.207 20.862,13.560 19.866 C 16.104 17.994,17.231 17.121,17.677 16.675 C 18.782 15.570,19.551 14.065,19.865 12.394 C 19.948 11.951,19.983 10.620,19.925 10.088 C 19.850 9.404,19.682 8.680,19.597 8.680 C 19.508 8.680,16.744 10.631,15.620 11.488 L 15.020 11.946 15.026 12.143 C 15.031 12.272,15.262 13.071,15.698 14.460 C 16.463 16.896,16.571 17.258,16.553 17.339 C 16.535 17.421,16.318 17.270,13.150 14.984 L 12.000 14.154 11.210 14.725 C 9.649 15.853,7.591 17.322,7.513 17.364 C 7.469 17.387,7.425 17.399,7.416 17.389 C 7.388 17.362,7.625 16.575,8.355 14.268 C 8.729 13.085,9.041 12.083,9.048 12.042 C 9.057 11.985,8.864 11.824,8.240 11.372 C 7.322 10.706,4.526 8.709,4.452 8.666 C 4.424 8.650,4.386 8.671,4.362 8.717 " fill="#373B4D" stroke="none" fill-rule="evenodd"></path></svg>