<svg width="24" height="24" viewBox="0 0 24 24" fill="none" xmlns="http://www.w3.org/2000/svg"><path d="M6.164 3.090 C 6.145 3.139,5.747 4.368,5.279 5.820 C 4.811 7.272,4.420 8.483,4.410 8.510 C 4.395 8.550,4.979 8.558,7.301 8.550 L 10.212 8.540 11.077 5.860 C 11.553 4.386,11.957 3.144,11.974 3.100 C 11.998 3.042,12.247 3.765,12.897 5.780 L 13.788 8.540 16.694 8.550 C 18.292 8.556,19.599 8.547,19.598 8.530 C 19.596 8.514,19.196 7.267,18.707 5.760 L 17.819 3.020 12.009 3.010 L 6.198 3.000 6.164 3.090 M4.286 8.930 C 3.773 10.905,3.959 12.826,4.839 14.620 C 5.245 15.450,5.672 16.046,6.351 16.733 C 6.853 17.241,6.810 17.208,9.610 19.255 L 11.999 21.002 14.390 19.254 C 15.704 18.293,16.906 17.404,17.060 17.278 C 17.400 17.001,18.075 16.308,18.326 15.980 C 19.572 14.348,20.177 12.209,19.957 10.208 C 19.886 9.559,19.669 8.600,19.593 8.600 C 19.567 8.600,15.101 11.838,14.923 11.986 C 14.914 11.994,15.305 13.237,15.792 14.748 C 16.279 16.259,16.672 17.502,16.663 17.510 C 16.655 17.518,15.603 16.760,14.325 15.825 L 12.001 14.126 9.676 15.825 C 8.398 16.760,7.344 17.517,7.334 17.508 C 7.325 17.498,7.717 16.255,8.206 14.746 C 8.694 13.236,9.087 11.995,9.077 11.987 C 8.902 11.841,4.435 8.600,4.409 8.600 C 4.389 8.600,4.333 8.748,4.286 8.930 " fill="#373B4D" stroke="none" fill-rule="evenodd"></path></svg>