<svg width="24" height="24" viewBox="0 0 24 24" fill="none" xmlns="http://www.w3.org/2000/svg"><path d="M8.120 8.876 L 2.020 12.751 2.010 15.876 C 2.001 18.541,2.008 19.000,2.056 19.000 C 2.087 19.000,4.869 17.245,8.238 15.099 L 14.363 11.199 17.625 11.209 L 20.887 11.220 20.983 11.332 C 21.109 11.478,21.111 11.681,20.990 11.815 C 20.941 11.870,19.541 12.746,17.880 13.761 C 16.219 14.777,14.794 15.672,14.712 15.750 C 14.631 15.828,14.523 15.983,14.472 16.096 C 14.383 16.294,14.380 16.338,14.368 17.650 L 14.355 19.000 18.178 19.000 L 22.000 19.000 22.000 12.196 C 22.000 6.083,21.994 5.379,21.937 5.259 C 21.808 4.987,22.009 5.000,17.914 5.000 L 14.220 5.000 8.120 8.876 " fill="#373B4D" stroke="none" fill-rule="evenodd"></path></svg>