<svg width="24" height="24" viewBox="0 0 24 24" fill="none" xmlns="http://www.w3.org/2000/svg"><path d="M8.103 8.885 L 1.997 12.771 2.008 15.842 C 2.015 17.531,2.033 18.926,2.048 18.942 C 2.064 18.957,2.181 18.911,2.308 18.840 C 2.613 18.668,5.623 16.767,10.455 13.692 L 14.371 11.200 15.659 11.200 C 16.367 11.200,17.842 11.212,18.936 11.227 L 20.925 11.253 20.985 11.369 C 21.018 11.433,21.039 11.551,21.032 11.632 C 21.021 11.772,20.996 11.796,20.560 12.087 C 20.307 12.256,19.120 13.000,17.923 13.740 C 14.748 15.704,14.637 15.779,14.468 16.096 C 14.383 16.254,14.380 16.309,14.368 17.630 L 14.356 19.000 18.182 19.000 L 22.007 19.000 21.985 12.270 C 21.973 8.568,21.952 5.457,21.938 5.355 C 21.918 5.206,21.892 5.160,21.806 5.120 C 21.699 5.070,18.290 5.007,15.415 5.002 L 14.210 5.000 8.103 8.885 " fill="#373B4D" stroke="none" fill-rule="evenodd"></path></svg>