<svg width="24" height="24" viewBox="0 0 24 24" fill="none" xmlns="http://www.w3.org/2000/svg"><path d="M8.110 8.880 L 2.000 12.768 2.000 15.177 C 2.000 16.503,2.012 17.887,2.026 18.254 C 2.050 18.849,2.060 18.920,2.122 18.920 C 2.218 18.920,3.765 17.949,10.897 13.412 L 14.375 11.200 15.421 11.200 C 15.996 11.200,17.471 11.212,18.698 11.227 L 20.930 11.253 20.985 11.385 C 21.015 11.458,21.040 11.562,21.040 11.616 C 21.040 11.801,20.898 11.897,17.700 13.879 C 14.893 15.620,14.623 15.805,14.470 16.093 C 14.386 16.254,14.382 16.311,14.367 17.630 L 14.352 19.000 18.176 19.000 L 22.000 19.000 21.995 14.710 C 21.992 12.351,21.979 9.255,21.965 7.831 C 21.943 5.506,21.933 5.236,21.874 5.177 C 21.786 5.089,20.680 5.053,17.020 5.018 L 14.220 4.991 8.110 8.880 " fill="#373B4D" stroke="none" fill-rule="evenodd"></path></svg>