<svg width="24" height="24" viewBox="0 0 24 24" fill="none" xmlns="http://www.w3.org/2000/svg"><path d="M8.110 8.880 L 2.000 12.768 2.004 15.794 C 2.006 17.458,2.020 18.862,2.034 18.913 C 2.059 19.003,2.110 18.976,3.140 18.330 C 4.323 17.589,7.298 15.701,11.594 12.966 L 14.368 11.200 15.897 11.200 C 16.739 11.200,18.213 11.212,19.173 11.227 L 20.919 11.253 20.987 11.357 C 21.025 11.413,21.056 11.521,21.056 11.596 C 21.056 11.811,21.226 11.696,17.660 13.900 C 14.594 15.796,14.625 15.774,14.454 16.140 C 14.362 16.337,14.361 16.361,14.360 17.670 L 14.360 19.000 18.180 19.000 L 22.000 19.000 22.000 13.627 C 22.000 7.595,21.973 5.272,21.900 5.173 C 21.874 5.138,21.765 5.094,21.657 5.076 C 21.548 5.058,19.831 5.032,17.840 5.018 L 14.220 4.993 8.110 8.880 " fill="#373B4D" stroke="none" fill-rule="evenodd"></path></svg>