<svg width="24" height="24" viewBox="0 0 24 24" fill="none" xmlns="http://www.w3.org/2000/svg"><path d="M8.120 8.876 L 2.020 12.753 2.008 15.707 C 2.002 17.331,2.008 18.737,2.021 18.832 L 2.046 19.004 2.233 18.895 C 2.553 18.709,6.445 16.244,10.500 13.661 L 14.380 11.189 17.637 11.209 L 20.895 11.230 20.968 11.320 C 21.070 11.446,21.097 11.583,21.044 11.711 C 20.989 11.842,20.937 11.876,18.080 13.639 C 14.511 15.842,14.652 15.746,14.494 16.067 L 14.380 16.300 14.366 17.650 L 14.352 19.000 18.177 19.000 L 22.002 19.000 21.991 12.170 C 21.983 7.033,21.968 5.314,21.933 5.235 C 21.836 5.020,21.914 5.024,17.920 5.010 L 14.220 4.998 8.120 8.876 " fill="#373B4D" stroke="none" fill-rule="evenodd"></path></svg>