<svg width="24" height="24" viewBox="0 0 24 24" fill="none" xmlns="http://www.w3.org/2000/svg"><path d="M9.180 4.780 C 8.835 4.901,8.970 4.544,6.525 11.793 C 4.417 18.041,4.272 18.487,4.298 18.661 C 4.333 18.895,4.576 19.179,4.795 19.239 C 4.883 19.264,5.674 19.279,6.820 19.279 C 8.570 19.278,8.711 19.273,8.865 19.203 C 8.955 19.162,9.075 19.068,9.130 18.994 C 9.191 18.913,9.410 18.331,9.681 17.529 C 9.929 16.796,10.146 16.202,10.162 16.209 C 10.179 16.215,10.897 16.877,11.758 17.680 C 12.618 18.482,13.372 19.166,13.431 19.200 C 13.525 19.252,13.924 19.262,16.271 19.271 C 18.207 19.279,19.050 19.270,19.169 19.237 C 19.494 19.150,19.767 18.743,19.701 18.443 C 19.659 18.253,15.248 5.212,15.183 5.086 C 15.112 4.949,14.960 4.833,14.764 4.766 C 14.547 4.692,9.393 4.705,9.180 4.780 M13.199 14.190 C 13.200 14.195,12.661 14.200,12.001 14.200 L 10.802 14.200 11.366 12.530 C 11.677 11.612,11.948 10.815,11.969 10.760 C 12.002 10.675,12.095 10.919,12.603 12.420 C 12.931 13.388,13.199 14.184,13.199 14.190 " fill="#373B4D" stroke="none" fill-rule="evenodd"></path></svg>