<svg width="24" height="24" viewBox="0 0 24 24" fill="none" xmlns="http://www.w3.org/2000/svg"><path d="M10.400 4.762 C 9.707 4.774,9.108 4.799,9.069 4.817 C 8.888 4.899,8.714 5.349,7.612 8.580 C 6.383 12.184,4.408 18.115,4.344 18.394 C 4.279 18.677,4.298 18.771,4.465 18.990 C 4.671 19.261,4.612 19.253,6.780 19.272 L 8.740 19.289 8.935 19.154 C 9.163 18.998,9.139 19.050,9.678 17.538 C 9.882 16.967,10.079 16.441,10.116 16.368 L 10.184 16.236 10.461 16.488 C 10.614 16.627,11.226 17.190,11.822 17.740 C 12.417 18.290,13.027 18.847,13.176 18.978 L 13.448 19.217 14.074 19.251 C 14.418 19.271,15.704 19.276,16.930 19.264 C 18.784 19.246,19.180 19.232,19.274 19.183 C 19.439 19.098,19.629 18.866,19.684 18.683 C 19.737 18.505,19.800 18.697,17.027 10.500 C 15.438 5.803,15.222 5.179,15.141 5.056 C 15.106 5.003,15.011 4.917,14.929 4.864 L 14.780 4.769 13.220 4.754 C 12.362 4.746,11.093 4.749,10.400 4.762 M12.080 10.930 C 12.171 11.177,13.200 14.167,13.200 14.184 C 13.200 14.193,12.660 14.200,12.001 14.200 L 10.802 14.200 11.357 12.570 C 11.662 11.673,11.924 10.909,11.940 10.870 C 11.983 10.766,12.027 10.785,12.080 10.930 " fill="#373B4D" stroke="none" fill-rule="evenodd"></path></svg>