<svg width="24" height="24" viewBox="0 0 24 24" fill="none" xmlns="http://www.w3.org/2000/svg"><path d="M9.640 4.756 C 9.354 4.770,9.101 4.803,9.050 4.832 C 8.925 4.903,8.810 5.147,8.508 5.980 C 7.968 7.470,4.545 17.651,4.378 18.263 C 4.282 18.616,4.280 18.643,4.340 18.787 C 4.416 18.968,4.536 19.103,4.700 19.194 C 4.807 19.253,5.033 19.260,6.800 19.260 L 8.780 19.260 8.932 19.165 C 9.016 19.113,9.109 19.032,9.139 18.985 C 9.191 18.904,9.449 18.201,9.922 16.849 C 10.052 16.476,10.154 16.242,10.183 16.249 C 10.210 16.255,10.697 16.693,11.266 17.223 C 12.683 18.542,13.311 19.112,13.433 19.192 C 13.528 19.254,13.770 19.260,16.278 19.260 C 17.786 19.260,19.085 19.246,19.165 19.229 C 19.354 19.189,19.574 18.972,19.663 18.737 L 19.735 18.549 19.462 17.725 C 19.151 16.782,16.696 9.508,15.827 6.953 C 15.508 6.014,15.216 5.181,15.178 5.102 C 15.135 5.010,15.041 4.917,14.925 4.849 L 14.740 4.740 12.440 4.735 C 11.175 4.733,9.915 4.742,9.640 4.756 M12.121 11.031 C 12.206 11.259,13.200 14.167,13.200 14.189 C 13.200 14.195,12.661 14.200,12.002 14.200 L 10.804 14.200 11.246 12.890 C 11.490 12.170,11.751 11.395,11.828 11.170 C 11.905 10.944,11.982 10.769,12.001 10.781 C 12.020 10.792,12.073 10.905,12.121 11.031 " fill="#373B4D" stroke="none" fill-rule="evenodd"></path></svg>