<svg width="24" height="24" viewBox="0 0 24 24" fill="none" xmlns="http://www.w3.org/2000/svg"><path d="M9.427 4.797 C 8.989 4.823,8.980 4.828,8.832 5.160 C 8.608 5.664,8.358 6.382,6.775 11.060 C 5.077 16.082,4.320 18.412,4.320 18.620 C 4.320 18.755,4.350 18.833,4.452 18.967 C 4.669 19.252,4.651 19.250,6.830 19.271 L 8.761 19.289 8.946 19.137 C 9.167 18.956,9.182 18.923,9.645 17.634 C 9.844 17.081,10.045 16.540,10.093 16.430 L 10.181 16.231 11.560 17.501 C 12.319 18.200,13.059 18.874,13.203 18.999 L 13.467 19.227 14.020 19.253 C 14.722 19.287,17.188 19.282,18.349 19.245 C 19.158 19.219,19.249 19.209,19.349 19.135 C 19.529 19.001,19.696 18.735,19.692 18.590 C 19.685 18.391,19.383 17.467,17.546 12.040 C 15.784 6.831,15.294 5.401,15.190 5.155 C 15.153 5.067,15.055 4.959,14.947 4.885 L 14.766 4.760 12.293 4.767 C 10.933 4.771,9.643 4.785,9.427 4.797 M12.092 10.970 C 12.286 11.519,13.200 14.174,13.200 14.186 C 13.200 14.194,12.661 14.200,12.001 14.200 L 10.803 14.200 11.338 12.630 C 11.989 10.721,11.961 10.800,12.000 10.800 C 12.018 10.800,12.059 10.877,12.092 10.970 " fill="#373B4D" stroke="none" fill-rule="evenodd"></path></svg>