<svg width="24" height="24" viewBox="0 0 24 24" fill="none" xmlns="http://www.w3.org/2000/svg"><path d="M10.640 4.839 C 9.818 4.869,9.683 4.894,9.173 5.109 C 8.555 5.369,8.454 5.460,5.499 8.417 C 3.958 9.959,2.648 11.293,2.588 11.383 C 2.351 11.737,2.351 12.266,2.589 12.617 C 2.720 12.809,7.515 17.643,8.103 18.175 C 8.579 18.606,8.956 18.831,9.561 19.044 L 10.004 19.200 14.292 19.200 L 18.580 19.201 19.016 19.052 C 20.236 18.636,21.036 17.836,21.452 16.616 L 21.601 16.180 21.600 11.992 L 21.600 7.804 21.444 7.361 C 21.257 6.831,21.028 6.417,20.735 6.081 C 20.268 5.546,19.747 5.197,19.084 4.976 L 18.700 4.848 15.060 4.829 C 13.058 4.819,11.069 4.823,10.640 4.839 M12.400 8.488 C 12.614 8.552,12.756 8.673,13.610 9.515 L 14.399 10.293 15.190 9.515 C 15.624 9.087,16.070 8.674,16.180 8.598 C 16.375 8.463,16.389 8.460,16.780 8.460 C 17.127 8.460,17.206 8.473,17.375 8.560 C 17.770 8.761,17.960 9.112,17.960 9.637 C 17.959 10.077,17.867 10.212,16.911 11.184 L 16.108 12.000 16.911 12.816 C 17.879 13.800,17.959 13.920,17.960 14.387 C 17.960 14.677,17.946 14.741,17.830 14.965 C 17.537 15.531,16.864 15.753,16.288 15.474 C 16.161 15.413,15.827 15.114,15.251 14.546 L 14.401 13.709 13.547 14.547 C 12.561 15.517,12.465 15.580,12.000 15.579 C 11.512 15.578,11.163 15.361,10.940 14.920 C 10.857 14.756,10.840 14.666,10.840 14.391 C 10.841 13.919,10.919 13.802,11.890 12.815 L 12.693 11.999 11.914 11.209 C 11.486 10.775,11.088 10.356,11.029 10.278 C 10.891 10.094,10.786 9.687,10.820 9.467 C 10.879 9.077,11.144 8.696,11.475 8.522 C 11.695 8.406,12.082 8.392,12.400 8.488 " fill="#373B4D" stroke="none" fill-rule="evenodd"></path></svg>