<svg width="24" height="24" viewBox="0 0 24 24" fill="none" xmlns="http://www.w3.org/2000/svg"><path d="M12.160 4.882 C 10.877 4.899,9.865 4.930,9.700 4.956 C 9.378 5.008,8.955 5.201,8.614 5.453 C 7.931 5.956,3.022 10.848,2.558 11.488 C 2.449 11.640,2.440 11.678,2.440 12.002 L 2.440 12.353 2.607 12.565 C 2.882 12.912,4.077 14.152,5.820 15.898 C 8.289 18.372,8.611 18.647,9.443 19.002 L 9.860 19.180 14.260 19.191 L 18.660 19.201 18.880 19.114 C 19.207 18.984,19.795 18.687,20.000 18.547 C 20.265 18.367,20.704 17.934,20.901 17.660 C 21.106 17.374,21.351 16.890,21.495 16.488 L 21.600 16.195 21.600 12.000 L 21.600 7.805 21.478 7.473 C 21.201 6.720,20.925 6.283,20.435 5.818 C 20.105 5.504,19.668 5.236,19.131 5.017 L 18.700 4.841 16.520 4.847 C 15.321 4.851,13.359 4.867,12.160 4.882 M12.368 8.521 C 12.589 8.583,12.864 8.808,13.673 9.586 L 14.406 10.292 14.873 9.834 C 15.542 9.178,15.969 8.783,16.163 8.642 C 16.329 8.522,16.341 8.520,16.800 8.520 C 17.254 8.520,17.273 8.523,17.430 8.637 C 17.756 8.874,17.925 9.206,17.930 9.620 C 17.931 9.752,17.905 9.923,17.872 10.000 C 17.782 10.210,17.397 10.668,16.720 11.371 L 16.112 12.001 16.719 12.625 C 17.770 13.705,17.920 13.924,17.920 14.371 C 17.920 14.759,17.807 15.029,17.543 15.270 C 17.305 15.488,17.116 15.560,16.784 15.560 C 16.365 15.560,16.151 15.411,15.070 14.362 L 14.400 13.712 13.770 14.322 C 12.644 15.414,12.444 15.557,12.048 15.559 C 11.702 15.561,11.499 15.489,11.273 15.286 C 10.984 15.027,10.881 14.787,10.880 14.378 C 10.880 14.092,10.893 14.035,10.994 13.876 C 11.155 13.621,11.534 13.189,12.155 12.550 L 12.690 12.000 12.135 11.430 C 11.463 10.739,11.124 10.349,10.974 10.093 C 10.875 9.925,10.861 9.862,10.865 9.599 C 10.869 9.361,10.891 9.256,10.971 9.099 C 11.070 8.906,11.277 8.681,11.479 8.546 C 11.594 8.469,12.126 8.454,12.368 8.521 " fill="#373B4D" stroke="none" fill-rule="evenodd"></path></svg>