<svg width="24" height="24" viewBox="0 0 24 24" fill="none" xmlns="http://www.w3.org/2000/svg"><path d="M12.580 4.883 C 11.238 4.900,9.987 4.933,9.800 4.957 C 9.429 5.004,8.987 5.190,8.628 5.450 C 8.279 5.703,6.967 6.966,5.018 8.927 C 3.077 10.880,2.548 11.442,2.478 11.625 C 2.457 11.680,2.440 11.866,2.440 12.039 C 2.440 12.344,2.444 12.358,2.599 12.554 C 2.879 12.908,4.218 14.286,6.106 16.164 C 8.460 18.504,8.631 18.649,9.460 19.009 L 9.900 19.199 14.283 19.200 L 18.666 19.200 18.923 19.096 C 20.054 18.641,20.764 18.024,21.221 17.101 C 21.639 16.258,21.600 16.777,21.600 11.996 L 21.600 7.805 21.483 7.487 C 21.006 6.195,20.367 5.542,19.023 4.975 L 18.702 4.840 16.861 4.847 C 15.849 4.850,13.922 4.867,12.580 4.883 M12.613 8.650 C 12.838 8.800,13.269 9.189,13.967 9.874 L 14.394 10.292 15.107 9.609 C 15.499 9.233,15.926 8.839,16.056 8.733 L 16.292 8.540 16.800 8.540 L 17.307 8.540 17.485 8.685 C 17.886 9.014,18.038 9.619,17.827 10.049 C 17.710 10.288,17.307 10.762,16.597 11.496 L 16.111 11.999 16.722 12.630 C 17.360 13.289,17.698 13.684,17.825 13.920 C 17.936 14.128,17.928 14.680,17.810 14.905 C 17.593 15.318,17.303 15.520,16.882 15.551 C 16.401 15.585,16.172 15.432,15.000 14.293 L 14.401 13.711 13.790 14.302 C 13.059 15.011,12.648 15.367,12.448 15.466 C 12.341 15.519,12.211 15.540,11.980 15.540 C 11.703 15.540,11.635 15.525,11.473 15.430 C 11.223 15.283,11.011 15.027,10.939 14.784 C 10.863 14.527,10.864 14.147,10.941 13.983 C 11.042 13.770,11.475 13.256,12.099 12.610 L 12.688 11.999 12.154 11.447 C 11.486 10.757,11.208 10.440,11.024 10.161 C 10.889 9.955,10.880 9.923,10.881 9.621 C 10.882 9.389,10.904 9.252,10.960 9.127 C 11.051 8.927,11.435 8.535,11.569 8.506 C 11.619 8.495,11.827 8.491,12.030 8.497 C 12.378 8.508,12.413 8.517,12.613 8.650 " fill="#373B4D" stroke="none" fill-rule="evenodd"></path></svg>