<svg width="24" height="24" viewBox="0 0 24 24" fill="none" xmlns="http://www.w3.org/2000/svg"><path d="M13.940 4.884 C 11.434 4.915,10.074 4.965,9.602 5.042 C 9.300 5.091,8.939 5.271,8.540 5.570 C 8.106 5.896,7.254 6.708,5.341 8.621 C 3.369 10.594,2.577 11.429,2.495 11.625 C 2.432 11.777,2.422 12.187,2.478 12.335 C 2.541 12.499,3.021 13.018,4.538 14.559 C 6.387 16.437,7.944 17.958,8.367 18.297 C 8.714 18.576,9.165 18.863,9.589 19.075 L 9.838 19.200 14.283 19.200 L 18.728 19.200 19.132 18.998 C 19.700 18.714,20.046 18.474,20.452 18.083 C 20.845 17.706,21.076 17.382,21.325 16.864 C 21.492 16.516,21.492 16.514,21.525 15.888 C 21.543 15.542,21.570 13.559,21.584 11.480 L 21.611 7.700 21.307 7.099 C 21.125 6.741,20.915 6.392,20.787 6.237 C 20.436 5.811,19.914 5.439,19.089 5.024 L 18.722 4.840 17.571 4.847 C 16.938 4.850,15.304 4.867,13.940 4.884 M12.499 8.640 C 12.715 8.744,13.069 9.039,13.800 9.724 L 14.400 10.286 15.234 9.503 C 15.693 9.073,16.118 8.682,16.178 8.634 C 16.281 8.553,16.316 8.550,16.764 8.574 C 17.416 8.609,17.589 8.695,17.743 9.061 C 17.843 9.298,17.867 9.871,17.785 10.043 C 17.672 10.279,17.381 10.637,16.738 11.331 L 16.116 12.002 16.634 12.551 C 17.788 13.773,17.930 14.015,17.838 14.592 C 17.770 15.020,17.615 15.228,17.212 15.434 C 16.831 15.628,16.522 15.577,16.080 15.244 C 15.937 15.136,15.500 14.748,15.109 14.382 L 14.399 13.716 13.789 14.288 C 12.591 15.412,12.440 15.518,12.020 15.519 C 11.699 15.520,11.547 15.471,11.339 15.301 C 11.082 15.091,10.955 14.802,10.947 14.413 C 10.941 14.154,10.956 14.069,11.034 13.920 C 11.166 13.668,11.489 13.276,12.132 12.590 L 12.685 12.000 12.132 11.409 C 11.423 10.651,11.236 10.429,11.059 10.138 C 10.920 9.909,10.915 9.888,10.928 9.580 C 10.945 9.200,11.005 9.060,11.290 8.741 L 11.496 8.509 11.916 8.535 C 12.210 8.553,12.384 8.584,12.499 8.640 " fill="#373B4D" stroke="none" fill-rule="evenodd"></path></svg>