<svg width="24" height="24" viewBox="0 0 24 24" fill="none" xmlns="http://www.w3.org/2000/svg"><path d="M13.400 4.882 C 9.833 4.924,9.591 4.943,9.051 5.214 C 8.547 5.468,8.092 5.875,6.006 7.937 C 4.777 9.153,2.815 11.173,2.602 11.442 C 2.440 11.647,2.440 11.648,2.440 12.000 C 2.440 12.349,2.442 12.355,2.594 12.547 C 2.841 12.861,5.154 15.229,6.643 16.695 C 8.315 18.340,8.632 18.604,9.345 18.947 L 9.870 19.200 14.285 19.200 L 18.700 19.199 19.131 19.003 C 19.680 18.752,20.151 18.439,20.495 18.095 C 20.970 17.619,21.444 16.810,21.526 16.333 C 21.550 16.193,21.575 14.440,21.587 11.954 L 21.608 7.808 21.442 7.394 C 20.978 6.238,20.454 5.680,19.300 5.116 L 18.736 4.840 17.278 4.847 C 16.476 4.850,14.731 4.866,13.400 4.882 M12.379 8.565 C 12.624 8.633,12.808 8.778,13.636 9.561 L 14.402 10.286 15.071 9.651 C 15.439 9.302,15.856 8.914,15.997 8.788 L 16.254 8.560 16.751 8.560 C 17.335 8.560,17.448 8.598,17.636 8.861 C 17.832 9.133,17.880 9.285,17.880 9.633 C 17.880 9.930,17.872 9.960,17.726 10.184 C 17.547 10.458,17.152 10.914,16.543 11.549 L 16.113 11.999 16.715 12.629 C 17.363 13.308,17.719 13.734,17.824 13.955 C 17.908 14.131,17.884 14.715,17.785 14.924 C 17.633 15.245,17.272 15.506,16.924 15.547 C 16.462 15.602,16.182 15.421,15.070 14.356 L 14.400 13.714 13.750 14.333 C 12.560 15.466,12.470 15.528,11.988 15.530 C 11.590 15.532,11.487 15.486,11.212 15.186 C 10.984 14.936,10.901 14.711,10.903 14.340 C 10.903 14.171,10.930 14.050,10.992 13.931 C 11.112 13.703,11.564 13.168,12.177 12.530 L 12.687 12.001 12.085 11.370 C 11.365 10.616,11.101 10.293,10.968 10.005 C 10.883 9.819,10.872 9.752,10.892 9.518 C 10.920 9.180,10.990 9.044,11.282 8.751 L 11.514 8.520 11.867 8.520 C 12.061 8.520,12.292 8.540,12.379 8.565 " fill="#373B4D" stroke="none" fill-rule="evenodd"></path></svg>