<svg width="24" height="24" viewBox="0 0 24 24" fill="none" xmlns="http://www.w3.org/2000/svg"><path d="M12.935 4.884 C 11.546 4.901,10.223 4.932,9.995 4.953 C 9.249 5.023,8.853 5.225,8.075 5.933 C 6.965 6.945,3.082 10.848,2.620 11.416 L 2.460 11.613 2.460 12.000 L 2.460 12.387 2.610 12.570 C 3.097 13.165,7.398 17.493,8.180 18.176 C 8.670 18.604,8.927 18.772,9.447 19.003 L 9.889 19.200 14.284 19.200 L 18.679 19.200 19.031 19.048 C 20.108 18.584,20.735 18.026,21.228 17.092 C 21.605 16.380,21.576 16.785,21.590 12.011 L 21.603 7.803 21.442 7.391 C 20.964 6.178,20.359 5.565,19.085 5.005 L 18.710 4.840 17.085 4.847 C 16.191 4.850,14.324 4.867,12.935 4.884 M12.520 8.603 C 12.721 8.706,12.971 8.922,13.730 9.647 L 14.400 10.287 15.070 9.648 C 15.439 9.297,15.857 8.908,16.000 8.785 L 16.259 8.560 16.794 8.560 C 17.326 8.560,17.329 8.561,17.478 8.678 C 17.560 8.743,17.688 8.910,17.762 9.048 C 17.880 9.269,17.897 9.337,17.898 9.600 C 17.898 9.835,17.879 9.937,17.809 10.069 C 17.689 10.295,17.240 10.825,16.621 11.470 L 16.112 12.001 16.642 12.550 C 17.268 13.197,17.608 13.587,17.766 13.836 C 17.870 14.000,17.880 14.047,17.879 14.378 C 17.878 14.812,17.810 14.992,17.546 15.256 C 17.222 15.580,16.688 15.649,16.295 15.419 C 16.053 15.277,15.684 14.956,14.984 14.277 L 14.402 13.712 13.711 14.375 C 12.890 15.161,12.514 15.469,12.321 15.509 C 12.139 15.547,11.770 15.547,11.634 15.510 C 11.456 15.461,11.146 15.185,11.032 14.975 C 10.903 14.737,10.850 14.339,10.916 14.096 C 10.985 13.837,11.361 13.375,12.235 12.471 L 12.690 12.001 12.158 11.451 C 11.101 10.356,10.881 10.050,10.880 9.668 C 10.880 9.260,10.945 9.098,11.229 8.796 C 11.420 8.594,11.518 8.521,11.613 8.509 C 11.865 8.477,12.379 8.530,12.520 8.603 " fill="#373B4D" stroke="none" fill-rule="evenodd"></path></svg>