<svg width="24" height="24" viewBox="0 0 24 24" fill="none" xmlns="http://www.w3.org/2000/svg"><path d="M14.440 4.884 C 12.044 4.917,10.147 4.980,9.700 5.043 C 9.211 5.111,8.755 5.375,8.032 6.007 C 7.213 6.725,2.758 11.224,2.538 11.556 C 2.435 11.711,2.430 11.741,2.451 12.042 C 2.471 12.339,2.484 12.376,2.623 12.546 C 3.091 13.117,7.382 17.432,8.148 18.101 C 8.532 18.437,9.133 18.846,9.549 19.055 L 9.838 19.200 14.289 19.199 L 18.740 19.198 19.141 18.987 C 19.648 18.720,19.908 18.547,20.259 18.244 C 20.771 17.801,21.206 17.207,21.404 16.680 C 21.531 16.344,21.554 15.677,21.585 11.480 L 21.613 7.699 21.383 7.249 C 20.812 6.134,20.384 5.714,19.157 5.064 L 18.733 4.840 17.697 4.847 C 17.126 4.850,15.661 4.867,14.440 4.884 M12.092 8.561 C 12.559 8.628,12.785 8.784,13.811 9.738 L 14.401 10.288 14.951 9.771 C 15.763 9.008,16.236 8.603,16.347 8.575 C 16.503 8.535,17.284 8.636,17.440 8.716 C 17.623 8.808,17.745 9.033,17.800 9.379 C 17.897 9.987,17.789 10.181,16.696 11.370 L 16.116 12.001 16.664 12.590 C 17.373 13.353,17.614 13.654,17.745 13.939 C 17.840 14.148,17.848 14.200,17.825 14.473 C 17.810 14.652,17.765 14.847,17.715 14.951 C 17.549 15.293,16.990 15.607,16.669 15.538 C 16.348 15.469,15.989 15.199,15.029 14.303 L 14.398 13.715 13.818 14.258 C 13.062 14.964,12.656 15.309,12.468 15.406 C 12.385 15.448,12.201 15.494,12.059 15.507 C 11.711 15.540,11.498 15.456,11.264 15.196 C 11.027 14.933,10.944 14.680,10.969 14.295 C 10.985 14.041,11.007 13.972,11.133 13.783 C 11.315 13.508,11.649 13.115,12.231 12.491 L 12.687 12.002 12.137 11.411 C 11.481 10.706,11.153 10.302,11.014 10.028 C 10.921 9.845,10.914 9.797,10.939 9.545 C 10.972 9.210,11.093 8.952,11.334 8.700 C 11.527 8.498,11.585 8.488,12.092 8.561 " fill="#373B4D" stroke="none" fill-rule="evenodd"></path></svg>