<svg width="24" height="24" viewBox="0 0 24 24" fill="none" xmlns="http://www.w3.org/2000/svg"><path d="M10.960 2.483 C 10.529 2.522,9.753 2.687,9.175 2.863 C 7.694 3.311,6.417 4.074,5.312 5.171 C 3.805 6.665,2.893 8.403,2.543 10.445 C 2.150 12.732,2.671 15.225,3.947 17.178 C 5.248 19.167,7.063 20.510,9.409 21.217 C 10.384 21.511,10.564 21.534,11.920 21.537 C 13.206 21.540,13.437 21.520,14.160 21.339 C 16.336 20.794,18.255 19.563,19.560 17.875 C 20.466 16.703,21.204 15.049,21.468 13.600 C 21.571 13.039,21.571 10.898,21.468 10.380 C 20.876 7.391,19.104 4.964,16.480 3.550 C 15.484 3.013,14.237 2.625,13.173 2.522 C 12.619 2.469,11.364 2.446,10.960 2.483 M12.937 4.905 C 15.344 5.236,17.398 6.710,18.440 8.854 C 19.260 10.540,19.374 12.708,18.735 14.433 C 18.562 14.901,17.965 16.086,17.891 16.110 C 17.834 16.129,13.828 12.153,10.310 8.587 L 7.871 6.114 8.021 6.011 C 8.253 5.854,9.339 5.341,9.729 5.205 C 10.133 5.064,10.909 4.896,11.400 4.843 C 11.799 4.800,12.327 4.821,12.937 4.905 M11.298 13.004 L 16.177 17.871 15.918 18.039 C 15.168 18.527,14.011 18.953,12.972 19.126 C 12.507 19.203,11.387 19.190,10.902 19.103 C 9.751 18.896,8.570 18.398,7.755 17.776 C 7.361 17.476,6.612 16.736,6.303 16.340 C 5.681 15.547,5.201 14.507,5.000 13.519 C 4.771 12.396,4.843 10.781,5.164 9.822 C 5.286 9.458,5.682 8.598,5.945 8.129 L 6.085 7.877 6.253 8.008 C 6.345 8.079,8.615 10.328,11.298 13.004 " fill="#373B4D" stroke="none" fill-rule="evenodd"></path></svg>