<svg width="24" height="24" viewBox="0 0 24 24" fill="none" xmlns="http://www.w3.org/2000/svg"><path d="M10.660 2.601 C 9.835 2.654,8.901 2.934,7.932 3.419 C 6.915 3.928,6.190 4.422,5.524 5.059 C 4.210 6.315,3.506 7.395,2.955 8.996 C 2.612 9.992,2.499 10.606,2.456 11.693 C 2.402 13.057,2.604 14.186,3.137 15.514 C 3.660 16.813,4.230 17.672,5.239 18.681 C 6.113 19.556,6.684 19.967,7.781 20.513 C 8.654 20.948,9.091 21.124,9.682 21.279 C 10.454 21.481,11.004 21.530,12.289 21.509 C 13.385 21.492,13.435 21.487,13.920 21.369 C 16.834 20.654,19.188 18.870,20.433 16.434 C 20.676 15.959,21.082 14.964,21.239 14.460 C 21.392 13.967,21.438 13.640,21.487 12.712 C 21.590 10.728,21.434 9.797,20.732 8.201 C 19.765 6.002,18.098 4.338,15.838 3.317 C 14.934 2.909,14.057 2.676,13.140 2.601 C 12.607 2.557,11.338 2.557,10.660 2.601 M13.151 5.001 C 14.022 5.110,15.435 5.704,16.220 6.291 C 16.598 6.574,17.543 7.519,17.768 7.840 C 18.139 8.370,18.476 9.041,18.792 9.880 L 18.936 10.260 18.950 11.280 C 18.958 11.841,18.949 12.669,18.929 13.120 L 18.893 13.940 18.743 14.300 C 18.537 14.796,17.940 16.023,17.891 16.053 C 17.852 16.077,7.880 6.185,7.880 6.122 C 7.880 6.088,8.706 5.691,9.289 5.444 C 9.904 5.184,10.363 5.044,10.725 5.006 C 11.205 4.955,12.763 4.953,13.151 5.001 M12.493 14.220 L 16.165 17.859 16.053 17.949 C 15.890 18.080,14.862 18.544,14.280 18.750 C 13.427 19.052,13.227 19.085,12.133 19.109 C 11.248 19.127,11.132 19.122,10.763 19.043 C 9.965 18.872,9.093 18.537,8.432 18.148 C 6.883 17.236,5.852 15.929,5.155 13.988 L 5.000 13.556 5.003 12.608 C 5.004 12.087,5.020 11.336,5.038 10.940 C 5.067 10.275,5.079 10.195,5.193 9.892 C 5.360 9.448,5.589 8.914,5.857 8.344 L 6.081 7.868 7.451 9.224 C 8.204 9.970,10.473 12.218,12.493 14.220 " fill="#373B4D" stroke="none" fill-rule="evenodd"></path></svg>