<svg width="24" height="24" viewBox="0 0 24 24" fill="none" xmlns="http://www.w3.org/2000/svg"><path d="M10.800 2.560 C 9.246 2.685,7.471 3.441,6.040 4.585 C 5.599 4.937,4.771 5.770,4.440 6.194 C 3.480 7.422,2.855 8.853,2.533 10.560 C 2.444 11.034,2.431 12.733,2.513 13.300 C 2.652 14.269,3.083 15.571,3.565 16.480 C 3.987 17.275,4.415 17.854,5.100 18.555 C 6.022 19.499,6.625 19.943,7.760 20.518 C 9.182 21.237,10.130 21.486,11.668 21.544 C 12.869 21.589,13.772 21.467,14.800 21.121 C 16.055 20.698,17.043 20.168,18.000 19.405 C 19.520 18.193,20.455 16.796,21.163 14.680 C 21.468 13.769,21.494 13.558,21.497 12.000 C 21.500 10.529,21.486 10.391,21.255 9.591 C 20.689 7.634,19.633 5.982,18.143 4.724 C 16.822 3.609,14.953 2.773,13.400 2.604 C 12.865 2.546,11.301 2.519,10.800 2.560 M13.520 5.052 C 13.751 5.108,14.102 5.209,14.300 5.278 C 14.860 5.473,15.817 5.965,16.205 6.258 C 16.628 6.576,17.340 7.273,17.669 7.688 C 18.092 8.222,18.497 9.019,18.815 9.940 L 18.980 10.420 18.974 11.986 C 18.970 13.035,18.952 13.628,18.919 13.785 C 18.892 13.914,18.793 14.199,18.699 14.419 C 18.454 14.994,17.938 16.064,17.893 16.092 C 17.851 16.118,7.851 6.136,7.884 6.102 C 7.930 6.057,9.204 5.462,9.564 5.318 C 10.413 4.980,10.805 4.921,12.080 4.937 C 13.008 4.949,13.138 4.960,13.520 5.052 M12.013 13.740 L 16.166 17.858 16.073 17.934 C 15.928 18.051,15.240 18.386,14.705 18.599 C 13.757 18.977,13.193 19.102,12.240 19.146 C 11.271 19.190,10.410 19.037,9.403 18.639 C 7.397 17.849,5.886 16.211,5.179 14.063 L 5.000 13.520 5.000 12.024 C 5.000 10.541,5.001 10.526,5.102 10.178 C 5.227 9.747,5.467 9.158,5.816 8.423 L 6.081 7.865 6.971 8.744 C 7.460 9.227,9.729 11.475,12.013 13.740 " fill="#373B4D" stroke="none" fill-rule="evenodd"></path></svg>