<svg width="24" height="24" viewBox="0 0 24 24" fill="none" xmlns="http://www.w3.org/2000/svg"><path d="M10.800 2.602 C 9.953 2.652,9.188 2.852,8.279 3.261 C 6.771 3.938,5.535 4.887,4.488 6.170 C 3.517 7.359,2.767 9.091,2.533 10.680 C 2.428 11.395,2.439 12.868,2.554 13.500 C 2.856 15.155,3.599 16.799,4.565 17.948 C 4.922 18.373,5.698 19.144,6.080 19.452 C 6.934 20.141,8.561 20.975,9.600 21.255 C 10.436 21.481,10.632 21.500,12.100 21.497 L 13.460 21.494 14.014 21.346 C 15.888 20.845,17.402 20.015,18.653 18.802 C 19.696 17.790,20.318 16.838,20.913 15.340 C 21.339 14.268,21.411 13.950,21.483 12.820 C 21.537 11.953,21.512 10.911,21.423 10.380 C 21.183 8.955,20.388 7.240,19.397 6.013 C 18.128 4.440,15.991 3.130,14.061 2.740 C 13.262 2.578,12.060 2.527,10.800 2.602 M13.460 5.059 C 14.257 5.233,15.245 5.656,16.020 6.155 C 16.383 6.389,17.647 7.646,17.875 8.000 C 18.128 8.394,18.462 9.065,18.702 9.663 L 18.917 10.198 18.942 11.129 C 18.956 11.641,18.949 12.486,18.927 13.008 L 18.886 13.955 18.720 14.345 C 18.477 14.913,17.922 16.040,17.885 16.040 C 17.842 16.040,14.401 12.648,10.829 9.084 C 7.993 6.254,7.881 6.137,7.957 6.076 C 8.094 5.963,9.464 5.363,9.969 5.194 C 10.356 5.064,10.544 5.025,10.897 4.999 C 11.568 4.949,13.125 4.985,13.460 5.059 M13.932 15.644 L 16.180 17.868 15.986 17.992 C 15.495 18.304,13.836 18.947,13.280 19.040 C 13.137 19.064,12.615 19.095,12.120 19.107 C 11.075 19.135,10.848 19.104,9.961 18.814 C 7.614 18.049,6.076 16.509,5.164 14.010 L 5.000 13.560 5.001 12.770 C 5.002 12.336,5.019 11.591,5.039 11.116 C 5.069 10.405,5.090 10.207,5.161 9.996 C 5.264 9.688,5.597 8.902,5.877 8.305 L 6.080 7.871 8.882 10.645 C 10.424 12.171,12.696 14.421,13.932 15.644 " fill="#373B4D" stroke="none" fill-rule="evenodd"></path></svg>