<svg width="24" height="24" viewBox="0 0 24 24" fill="none" xmlns="http://www.w3.org/2000/svg"><path d="M11.000 2.463 C 8.701 2.737,6.759 3.671,5.175 5.265 C 2.751 7.704,1.820 11.347,2.781 14.634 C 3.551 17.270,5.288 19.358,7.732 20.586 C 8.548 20.996,9.533 21.315,10.507 21.484 C 10.943 21.559,11.167 21.573,12.000 21.573 C 12.833 21.573,13.057 21.559,13.493 21.484 C 16.681 20.930,19.280 18.988,20.644 16.140 C 20.953 15.495,21.137 14.984,21.320 14.263 C 21.528 13.445,21.573 13.025,21.570 11.920 C 21.567 11.152,21.552 10.892,21.483 10.500 C 21.304 9.479,21.026 8.628,20.573 7.714 C 19.332 5.208,17.068 3.393,14.321 2.701 C 13.686 2.541,13.242 2.480,12.412 2.440 C 11.490 2.395,11.587 2.393,11.000 2.463 M12.646 4.842 C 14.863 5.067,16.763 6.195,17.964 7.998 C 19.209 9.868,19.523 12.168,18.818 14.273 C 18.663 14.736,18.297 15.508,18.037 15.917 L 17.874 16.173 12.859 11.159 C 10.101 8.401,7.854 6.130,7.865 6.112 C 7.906 6.045,8.670 5.620,9.077 5.438 C 10.213 4.929,11.458 4.721,12.646 4.842 M11.157 12.857 L 16.173 17.873 15.884 18.060 C 15.495 18.312,14.704 18.686,14.240 18.838 C 12.137 19.526,9.841 19.205,7.996 17.966 C 5.424 16.237,4.259 13.092,5.074 10.079 C 5.202 9.604,5.363 9.202,5.643 8.658 C 5.816 8.321,6.102 7.840,6.130 7.840 C 6.135 7.840,8.398 10.097,11.157 12.857 " fill="#373B4D" stroke="none" fill-rule="evenodd"></path></svg>