<svg width="24" height="24" viewBox="0 0 24 24" fill="none" xmlns="http://www.w3.org/2000/svg"><path d="M10.380 2.584 C 9.146 2.805,7.814 3.332,6.818 3.994 C 5.607 4.798,4.441 6.012,3.731 7.210 C 3.095 8.282,2.595 9.799,2.477 11.017 C 2.416 11.644,2.450 13.022,2.538 13.500 C 2.834 15.098,3.464 16.562,4.384 17.783 C 4.692 18.193,5.413 18.941,5.860 19.314 C 6.955 20.230,8.796 21.132,10.113 21.398 C 10.966 21.570,12.647 21.601,13.520 21.460 C 14.869 21.242,16.569 20.504,17.751 19.625 C 18.512 19.058,19.458 18.066,19.930 17.340 C 20.536 16.406,21.175 14.903,21.408 13.860 C 21.477 13.553,21.492 13.309,21.509 12.193 C 21.531 10.702,21.515 10.522,21.278 9.660 C 20.383 6.398,18.040 3.934,14.858 2.907 C 14.259 2.714,13.727 2.612,13.060 2.562 C 12.253 2.502,10.772 2.514,10.380 2.584 M12.969 4.939 C 13.738 5.055,14.409 5.262,15.114 5.602 C 15.947 6.003,16.338 6.284,17.042 6.994 C 17.718 7.674,17.932 7.964,18.318 8.720 C 18.623 9.317,18.765 9.680,18.905 10.220 L 19.020 10.660 19.019 12.060 C 19.017 13.594,19.009 13.660,18.737 14.347 C 18.591 14.715,18.073 15.826,17.967 15.999 L 17.882 16.138 12.881 11.140 C 10.130 8.391,7.880 6.129,7.880 6.112 C 7.880 6.072,8.932 5.561,9.460 5.346 C 9.947 5.147,10.398 5.022,10.917 4.941 C 11.389 4.868,12.488 4.867,12.969 4.939 M11.374 13.096 L 16.169 17.856 16.054 17.949 C 15.904 18.071,15.165 18.433,14.652 18.636 C 13.897 18.935,13.320 19.080,12.700 19.125 C 11.850 19.188,11.004 19.139,10.447 18.995 C 8.234 18.421,6.548 17.072,5.582 15.105 C 5.343 14.619,5.117 13.982,5.021 13.526 C 4.936 13.121,4.934 10.868,5.019 10.469 C 5.122 9.981,5.360 9.353,5.723 8.604 L 6.081 7.869 6.330 8.102 C 6.468 8.231,8.738 10.478,11.374 13.096 " fill="#373B4D" stroke="none" fill-rule="evenodd"></path></svg>