<svg width="24" height="24" viewBox="0 0 24 24" fill="none" xmlns="http://www.w3.org/2000/svg"><path d="M10.780 2.522 C 9.848 2.624,8.586 3.017,7.649 3.498 C 6.239 4.220,4.873 5.459,3.942 6.860 C 3.237 7.919,2.668 9.464,2.501 10.772 C 2.431 11.317,2.420 12.576,2.481 13.081 C 2.696 14.862,3.457 16.662,4.570 18.020 C 4.877 18.396,5.581 19.099,5.937 19.386 C 6.938 20.194,8.256 20.876,9.552 21.258 C 10.154 21.435,10.437 21.479,11.293 21.528 C 12.395 21.591,13.323 21.535,14.020 21.363 C 15.488 21.001,16.913 20.310,18.020 19.422 C 18.626 18.936,19.442 18.067,19.832 17.491 C 20.332 16.753,20.800 15.791,21.123 14.839 C 21.420 13.961,21.478 13.657,21.519 12.742 C 21.551 12.020,21.517 10.595,21.463 10.380 C 21.451 10.336,21.387 10.078,21.320 9.807 C 20.774 7.596,19.537 5.736,17.700 4.361 C 16.366 3.362,14.633 2.668,13.220 2.565 C 12.385 2.504,11.143 2.483,10.780 2.522 M13.122 4.957 C 14.286 5.157,15.389 5.622,16.300 6.297 C 16.741 6.623,17.485 7.384,17.810 7.841 C 18.135 8.296,18.595 9.202,18.757 9.704 C 19.028 10.548,19.060 10.791,19.059 12.020 C 19.059 13.276,19.028 13.518,18.776 14.250 C 18.633 14.666,17.943 16.120,17.888 16.120 C 17.872 16.120,15.609 13.870,12.860 11.119 L 7.861 6.119 8.001 6.033 C 8.282 5.859,9.376 5.355,9.767 5.220 C 10.814 4.855,11.991 4.763,13.122 4.957 M11.255 12.971 L 16.169 17.856 16.055 17.949 C 15.819 18.140,14.843 18.591,14.236 18.790 C 13.235 19.118,13.089 19.140,11.960 19.138 C 11.020 19.136,10.962 19.132,10.542 19.024 C 9.228 18.687,8.211 18.171,7.309 17.382 C 6.173 16.389,5.334 14.977,5.015 13.520 C 4.951 13.230,4.940 13.003,4.940 11.980 C 4.940 10.949,4.951 10.735,5.015 10.460 C 5.169 9.801,5.464 9.051,5.869 8.290 L 6.088 7.879 6.214 7.983 C 6.283 8.040,8.552 10.284,11.255 12.971 " fill="#373B4D" stroke="none" fill-rule="evenodd"></path></svg>