<svg width="24" height="24" viewBox="0 0 24 24" fill="none" xmlns="http://www.w3.org/2000/svg"><path d="M10.760 2.522 C 10.374 2.561,9.778 2.692,9.213 2.863 C 7.699 3.321,6.431 4.086,5.278 5.239 C 4.146 6.370,3.447 7.473,2.937 8.932 C 2.589 9.928,2.429 10.874,2.427 11.940 C 2.425 12.966,2.541 13.773,2.827 14.720 C 3.603 17.286,5.348 19.360,7.722 20.537 C 8.525 20.935,9.507 21.288,10.181 21.420 C 10.954 21.572,12.804 21.593,13.592 21.458 C 14.060 21.378,14.717 21.191,15.300 20.971 C 17.069 20.304,18.595 19.166,19.682 17.700 C 20.542 16.540,21.320 14.686,21.487 13.400 C 21.553 12.883,21.554 11.041,21.487 10.580 C 21.355 9.662,20.930 8.407,20.452 7.520 C 19.135 5.077,16.774 3.289,14.060 2.676 C 13.604 2.573,13.417 2.554,12.540 2.521 C 11.413 2.478,11.186 2.478,10.760 2.522 M12.631 4.881 C 15.884 5.223,18.416 7.519,19.007 10.660 C 19.082 11.062,19.097 11.280,19.098 12.000 C 19.100 13.093,19.004 13.682,18.696 14.490 C 18.567 14.829,18.134 15.723,17.964 16.002 L 17.881 16.140 12.880 11.140 C 10.130 8.390,7.880 6.128,7.880 6.113 C 7.880 6.069,9.022 5.502,9.478 5.321 C 10.471 4.925,11.583 4.770,12.631 4.881 M11.280 12.990 L 16.180 17.868 15.940 18.022 C 15.164 18.520,13.906 18.979,12.926 19.122 C 12.705 19.154,12.311 19.164,11.766 19.150 C 10.983 19.130,10.912 19.122,10.400 18.988 C 8.753 18.556,7.525 17.783,6.463 16.510 C 5.687 15.580,5.124 14.341,4.956 13.195 C 4.891 12.752,4.890 11.192,4.955 10.780 C 5.073 10.024,5.384 9.179,5.886 8.249 L 6.086 7.878 6.233 7.996 C 6.314 8.060,8.585 10.308,11.280 12.990 " fill="#373B4D" stroke="none" fill-rule="evenodd"></path></svg>