<svg width="24" height="24" viewBox="0 0 24 24" fill="none" xmlns="http://www.w3.org/2000/svg"><path d="M10.680 2.562 C 9.847 2.629,8.634 3.012,7.629 3.528 C 6.202 4.260,4.700 5.649,3.844 7.030 C 3.150 8.149,2.629 9.657,2.483 10.968 C 2.393 11.782,2.448 13.117,2.601 13.808 C 2.934 15.313,3.521 16.620,4.374 17.760 C 4.745 18.256,5.679 19.189,6.160 19.545 C 7.337 20.416,8.933 21.157,10.160 21.403 C 10.776 21.526,11.996 21.584,12.790 21.528 C 13.767 21.459,14.413 21.305,15.429 20.897 C 17.178 20.195,18.614 19.108,19.703 17.660 C 20.334 16.821,21.026 15.314,21.362 14.047 C 21.467 13.651,21.517 12.929,21.518 11.780 C 21.520 10.756,21.475 10.352,21.285 9.680 C 20.787 7.921,19.954 6.474,18.748 5.274 C 17.986 4.515,17.233 3.978,16.240 3.485 C 15.354 3.044,14.574 2.780,13.756 2.644 C 13.093 2.533,11.552 2.492,10.680 2.562 M13.370 5.017 C 14.237 5.193,15.251 5.607,15.962 6.075 C 16.547 6.461,17.492 7.389,17.880 7.960 C 18.273 8.539,18.715 9.514,18.902 10.215 L 19.006 10.606 18.990 12.153 C 18.972 13.843,18.987 13.728,18.702 14.421 C 18.516 14.873,17.915 16.120,17.882 16.120 C 17.869 16.120,15.609 13.868,12.859 11.115 L 7.860 6.110 8.562 5.765 C 10.039 5.040,10.752 4.869,12.168 4.901 C 12.716 4.914,12.988 4.940,13.370 5.017 M11.594 13.321 L 16.167 17.857 16.074 17.933 C 15.763 18.185,14.380 18.774,13.669 18.958 C 12.798 19.182,11.551 19.217,10.688 19.042 C 10.208 18.944,9.484 18.699,8.986 18.466 C 7.097 17.581,5.686 15.892,5.090 13.800 L 4.981 13.420 4.982 12.000 C 4.982 10.662,4.987 10.561,5.070 10.260 C 5.193 9.809,5.421 9.242,5.776 8.502 L 6.082 7.863 6.551 8.324 C 6.809 8.577,9.078 10.826,11.594 13.321 " fill="#373B4D" stroke="none" fill-rule="evenodd"></path></svg>