<svg width="24" height="24" viewBox="0 0 24 24" fill="none" xmlns="http://www.w3.org/2000/svg"><path d="M10.460 2.556 C 8.397 2.940,6.796 3.749,5.385 5.120 C 4.496 5.984,3.882 6.821,3.377 7.860 C 2.066 10.554,2.096 13.601,3.462 16.323 C 4.177 17.749,5.334 19.053,6.680 19.949 C 7.607 20.566,8.758 21.065,9.980 21.380 C 10.692 21.563,12.698 21.607,13.602 21.459 C 14.327 21.340,15.373 20.991,16.183 20.597 C 17.678 19.870,19.020 18.714,19.908 17.388 C 20.322 16.768,20.870 15.645,21.111 14.919 C 21.413 14.007,21.475 13.692,21.529 12.787 C 21.595 11.660,21.531 10.569,21.360 9.900 C 21.053 8.702,20.624 7.713,19.996 6.757 C 18.554 4.560,16.139 2.990,13.567 2.575 C 13.303 2.532,12.811 2.507,12.020 2.497 C 11.015 2.484,10.807 2.492,10.460 2.556 M12.721 4.882 C 15.223 5.191,17.271 6.585,18.357 8.719 C 18.940 9.863,19.185 11.076,19.115 12.480 C 19.060 13.602,18.773 14.534,18.109 15.748 L 17.907 16.117 17.744 15.992 C 17.557 15.849,7.880 6.167,7.880 6.123 C 7.880 6.070,8.465 5.759,9.103 5.474 C 9.736 5.190,10.255 5.032,10.960 4.908 C 11.364 4.836,12.247 4.823,12.721 4.882 M11.288 12.996 L 16.180 17.869 15.920 18.036 C 15.040 18.602,13.609 19.083,12.580 19.158 C 12.062 19.195,11.118 19.154,10.760 19.079 C 9.345 18.780,8.159 18.187,7.223 17.312 C 6.423 16.564,5.971 15.965,5.557 15.105 C 5.088 14.130,4.927 13.462,4.892 12.338 C 4.860 11.300,4.944 10.531,5.164 9.840 C 5.265 9.523,5.645 8.685,5.899 8.220 L 6.085 7.878 6.240 8.000 C 6.326 8.068,8.597 10.316,11.288 12.996 " fill="#373B4D" stroke="none" fill-rule="evenodd"></path></svg>