<svg width="24" height="24" viewBox="0 0 24 24" fill="none" xmlns="http://www.w3.org/2000/svg"><path d="M9.480 2.599 C 8.347 2.615,7.835 2.637,7.775 2.670 C 7.648 2.741,7.439 2.994,7.356 3.177 C 7.274 3.358,7.259 3.662,7.321 3.887 C 7.380 4.097,7.619 4.438,8.042 4.913 L 8.410 5.325 8.383 6.133 C 8.278 9.338,8.232 10.129,8.141 10.339 C 8.078 10.483,7.881 10.698,5.561 13.140 C 2.695 16.157,2.689 16.164,2.479 16.696 C 2.335 17.060,2.283 17.462,2.281 18.229 C 2.280 18.648,2.294 18.754,2.375 18.971 C 2.595 19.554,2.864 19.979,3.316 20.452 C 3.660 20.812,4.007 21.060,4.626 21.388 L 5.052 21.613 10.536 21.586 C 16.124 21.558,18.629 21.515,19.059 21.437 C 19.332 21.387,19.781 21.191,20.067 20.997 C 20.173 20.924,20.393 20.738,20.554 20.583 C 21.445 19.728,21.771 18.929,21.706 17.762 C 21.675 17.223,21.611 16.921,21.448 16.558 C 21.250 16.117,21.194 16.054,17.958 12.636 L 15.640 10.187 15.640 7.732 L 15.640 5.277 16.012 4.857 C 16.217 4.626,16.447 4.335,16.522 4.210 C 16.654 3.993,16.660 3.966,16.660 3.599 C 16.660 3.246,16.651 3.200,16.550 3.048 C 16.490 2.957,16.349 2.810,16.237 2.721 L 16.033 2.560 13.566 2.568 C 12.210 2.572,10.371 2.586,9.480 2.599 M13.200 7.599 L 13.200 10.398 13.319 10.724 C 13.529 11.299,13.750 11.638,14.549 12.614 C 15.012 13.178,15.187 13.426,15.151 13.462 C 15.143 13.471,14.708 13.532,14.185 13.599 C 13.662 13.665,12.898 13.793,12.487 13.882 C 11.354 14.128,11.332 14.131,10.920 14.102 C 10.226 14.053,9.294 13.888,8.728 13.713 L 8.475 13.635 8.888 13.192 C 10.035 11.959,10.367 11.497,10.696 10.683 L 10.800 10.426 10.800 7.613 L 10.800 4.800 12.000 4.800 L 13.200 4.800 13.200 7.599 " fill="#373B4D" stroke="none" fill-rule="evenodd"></path></svg>