<svg width="24" height="24" viewBox="0 0 24 24" fill="none" xmlns="http://www.w3.org/2000/svg"><path d="M7.976 2.564 C 7.753 2.616,7.507 2.836,7.378 3.100 C 7.283 3.294,7.273 3.355,7.286 3.652 C 7.299 3.959,7.312 4.005,7.446 4.207 C 7.527 4.328,7.776 4.629,8.000 4.876 L 8.407 5.324 8.364 7.212 C 8.295 10.229,8.292 10.252,8.011 10.572 C 7.911 10.687,6.835 11.815,5.620 13.080 C 3.159 15.643,2.898 15.924,2.697 16.227 C 2.294 16.834,2.128 17.951,2.321 18.756 C 2.476 19.401,2.781 19.933,3.318 20.494 C 3.674 20.868,3.982 21.079,4.587 21.367 L 5.100 21.612 10.900 21.585 C 16.755 21.558,18.758 21.522,19.160 21.436 C 20.115 21.233,21.216 20.171,21.585 19.097 C 21.681 18.817,21.696 18.705,21.711 18.133 C 21.733 17.351,21.688 17.054,21.483 16.620 C 21.205 16.031,21.179 16.001,18.381 13.080 C 17.233 11.881,16.150 10.742,15.973 10.549 L 15.652 10.198 15.629 7.749 L 15.605 5.300 15.837 5.060 C 16.495 4.378,16.737 3.985,16.736 3.600 C 16.735 3.209,16.496 2.819,16.140 2.626 L 15.980 2.540 12.060 2.533 C 9.699 2.529,8.075 2.542,7.976 2.564 M13.200 7.593 L 13.200 10.386 13.294 10.663 C 13.501 11.271,13.842 11.811,14.475 12.534 C 14.992 13.124,15.200 13.375,15.200 13.408 C 15.200 13.481,15.008 13.519,14.436 13.560 C 13.601 13.620,13.206 13.685,12.220 13.927 L 11.380 14.134 10.760 14.087 C 9.916 14.023,9.545 13.956,8.809 13.736 L 8.479 13.637 9.105 12.969 C 10.109 11.897,10.362 11.538,10.665 10.753 L 10.800 10.403 10.800 7.602 L 10.800 4.800 12.000 4.800 L 13.200 4.800 13.200 7.593 " fill="#373B4D" stroke="none" fill-rule="evenodd"></path></svg>