<svg width="24" height="24" viewBox="0 0 24 24" fill="none" xmlns="http://www.w3.org/2000/svg"><path d="M8.700 2.598 C 8.146 2.613,7.831 2.637,7.774 2.669 C 7.627 2.753,7.363 3.083,7.321 3.235 C 7.262 3.446,7.271 3.764,7.341 3.963 C 7.414 4.169,7.590 4.407,8.059 4.933 L 8.409 5.326 8.383 6.213 C 8.290 9.352,8.242 10.162,8.138 10.365 C 8.067 10.501,7.636 10.964,5.219 13.500 C 2.955 15.875,2.749 16.107,2.580 16.460 C 2.328 16.988,2.301 17.137,2.300 18.000 L 2.300 18.780 2.451 19.158 C 2.731 19.855,3.305 20.572,3.902 20.968 C 4.055 21.069,4.376 21.256,4.616 21.383 L 5.052 21.613 10.616 21.586 C 16.068 21.560,18.593 21.517,19.048 21.442 C 19.772 21.324,20.632 20.682,21.194 19.843 C 21.617 19.210,21.748 18.670,21.703 17.735 C 21.677 17.181,21.629 16.960,21.444 16.551 C 21.241 16.101,21.199 16.053,18.341 13.040 C 17.371 12.017,16.366 10.956,16.108 10.682 L 15.640 10.184 15.640 7.729 L 15.640 5.274 15.922 4.963 C 16.553 4.268,16.693 4.021,16.695 3.600 C 16.697 3.199,16.555 2.942,16.185 2.674 L 16.028 2.560 12.784 2.568 C 11.000 2.573,9.162 2.586,8.700 2.598 M13.200 7.598 L 13.200 10.396 13.324 10.738 C 13.533 11.317,13.801 11.721,14.634 12.717 C 15.080 13.251,15.195 13.418,15.150 13.463 C 15.138 13.476,14.761 13.528,14.314 13.579 C 13.341 13.691,13.210 13.713,12.180 13.947 C 11.417 14.120,11.360 14.127,10.960 14.103 C 10.214 14.058,9.250 13.886,8.669 13.695 L 8.477 13.633 8.930 13.146 C 10.076 11.917,10.349 11.536,10.696 10.682 L 10.800 10.426 10.800 7.613 L 10.800 4.800 12.000 4.800 L 13.200 4.800 13.200 7.598 " fill="#373B4D" stroke="none" fill-rule="evenodd"></path></svg>