<svg width="24" height="24" viewBox="0 0 24 24" fill="none" xmlns="http://www.w3.org/2000/svg"><path d="M8.599 2.477 L 7.978 2.500 7.767 2.635 C 7.335 2.913,7.147 3.404,7.285 3.900 C 7.350 4.137,7.548 4.409,8.002 4.891 L 8.408 5.322 8.380 7.191 C 8.365 8.219,8.339 9.333,8.323 9.667 L 8.293 10.273 8.129 10.470 C 7.966 10.663,6.819 11.853,4.539 14.190 C 2.777 15.997,2.578 16.248,2.360 16.940 C 2.291 17.158,2.267 17.355,2.250 17.828 C 2.232 18.360,2.240 18.485,2.317 18.815 C 2.468 19.471,2.807 20.053,3.345 20.584 C 3.750 20.982,4.092 21.189,4.807 21.465 L 5.157 21.600 9.348 21.597 C 15.097 21.594,18.778 21.544,19.123 21.466 C 20.252 21.212,21.273 20.181,21.666 18.900 C 21.725 18.706,21.739 18.525,21.740 17.960 C 21.740 17.170,21.722 17.088,21.412 16.454 C 21.183 15.987,20.993 15.771,19.156 13.884 C 16.798 11.461,16.085 10.716,15.861 10.440 L 15.650 10.180 15.622 7.748 L 15.594 5.315 15.888 5.008 C 16.589 4.272,16.758 4.007,16.759 3.637 C 16.760 3.326,16.663 3.075,16.451 2.839 C 16.178 2.535,16.143 2.524,15.271 2.480 C 14.469 2.440,9.682 2.437,8.599 2.477 M13.200 7.597 L 13.200 10.394 13.324 10.747 C 13.592 11.510,13.847 11.882,14.796 12.897 C 15.082 13.203,15.307 13.469,15.296 13.487 C 15.285 13.505,15.074 13.520,14.828 13.520 C 13.907 13.520,13.317 13.611,12.060 13.949 L 11.380 14.131 10.640 14.086 C 9.869 14.039,9.562 13.983,8.866 13.760 L 8.474 13.634 8.967 13.127 C 10.101 11.961,10.388 11.561,10.675 10.747 L 10.800 10.394 10.800 7.597 L 10.800 4.800 12.000 4.800 L 13.200 4.800 13.200 7.597 " fill="#373B4D" stroke="none" fill-rule="evenodd"></path></svg>