<svg width="24" height="24" viewBox="0 0 24 24" fill="none" xmlns="http://www.w3.org/2000/svg"><path d="M8.837 2.556 C 7.901 2.580,7.893 2.581,7.733 2.687 C 7.544 2.811,7.332 3.113,7.296 3.309 C 7.281 3.385,7.279 3.572,7.290 3.726 C 7.314 4.062,7.396 4.195,8.001 4.872 L 8.406 5.325 8.362 7.212 C 8.312 9.321,8.266 10.100,8.178 10.311 C 8.107 10.481,8.231 10.346,5.619 13.080 C 2.659 16.178,2.755 16.072,2.562 16.482 C 2.334 16.970,2.267 17.311,2.265 18.000 C 2.263 18.594,2.268 18.636,2.391 19.000 C 2.538 19.440,2.754 19.826,3.063 20.203 C 3.504 20.743,3.918 21.054,4.663 21.405 L 5.076 21.600 8.328 21.599 C 12.458 21.598,18.073 21.534,18.708 21.482 C 19.050 21.453,19.273 21.412,19.458 21.342 C 20.263 21.039,21.149 20.145,21.515 19.265 C 21.668 18.898,21.718 18.566,21.719 17.920 C 21.719 17.329,21.656 16.994,21.469 16.593 C 21.216 16.053,21.209 16.045,18.381 13.080 C 17.300 11.947,16.244 10.836,16.034 10.610 L 15.652 10.201 15.631 7.751 L 15.611 5.300 15.930 4.960 C 16.317 4.548,16.580 4.188,16.660 3.960 C 16.832 3.473,16.629 2.920,16.186 2.662 L 16.020 2.566 12.900 2.549 C 11.184 2.539,9.356 2.542,8.837 2.556 M13.200 7.599 L 13.200 10.398 13.319 10.724 C 13.555 11.369,13.799 11.740,14.637 12.720 C 14.947 13.083,15.200 13.394,15.200 13.411 C 15.200 13.476,14.993 13.514,14.284 13.577 C 13.436 13.654,13.177 13.699,12.140 13.949 L 11.380 14.133 10.738 14.085 C 10.051 14.034,9.396 13.916,8.830 13.743 L 8.479 13.635 9.061 13.013 C 10.074 11.929,10.360 11.530,10.640 10.814 L 10.800 10.406 10.800 7.603 L 10.800 4.800 12.000 4.800 L 13.200 4.800 13.200 7.599 " fill="#373B4D" stroke="none" fill-rule="evenodd"></path></svg>