<svg width="24" height="24" viewBox="0 0 24 24" fill="none" xmlns="http://www.w3.org/2000/svg"><path d="M9.380 2.476 C 7.842 2.506,7.846 2.505,7.563 2.826 C 7.323 3.099,7.261 3.256,7.261 3.600 C 7.260 3.859,7.276 3.927,7.374 4.095 C 7.509 4.323,7.834 4.720,8.171 5.066 L 8.410 5.312 8.364 7.506 C 8.316 9.845,8.299 10.162,8.219 10.321 C 8.152 10.452,7.715 10.916,5.602 13.100 C 3.443 15.331,3.318 15.464,2.974 15.866 C 2.457 16.471,2.291 16.926,2.252 17.840 C 2.235 18.254,2.245 18.453,2.294 18.691 C 2.434 19.365,2.790 19.997,3.333 20.537 C 3.747 20.948,4.017 21.126,4.630 21.389 L 5.120 21.600 8.790 21.598 C 13.309 21.596,18.561 21.536,18.949 21.482 C 19.568 21.397,20.091 21.112,20.640 20.561 C 21.014 20.187,21.297 19.789,21.483 19.380 C 21.689 18.926,21.731 18.687,21.732 17.960 C 21.734 17.198,21.697 17.022,21.416 16.478 C 21.141 15.944,21.082 15.877,18.361 13.060 C 16.376 11.004,16.068 10.680,15.835 10.400 L 15.651 10.180 15.625 7.745 L 15.600 5.310 15.870 5.025 C 16.258 4.616,16.549 4.259,16.643 4.074 C 16.882 3.605,16.693 2.946,16.236 2.657 C 16.093 2.567,16.006 2.549,15.585 2.520 C 14.898 2.472,10.996 2.445,9.380 2.476 M13.200 7.593 L 13.200 10.386 13.299 10.676 C 13.543 11.395,13.819 11.817,14.636 12.720 C 14.905 13.017,15.160 13.309,15.204 13.368 L 15.283 13.476 15.151 13.495 C 15.079 13.506,14.712 13.534,14.336 13.557 C 13.534 13.607,13.255 13.655,12.180 13.928 L 11.380 14.132 10.700 14.085 C 9.954 14.034,9.428 13.940,8.853 13.756 L 8.478 13.636 9.055 13.028 C 10.145 11.879,10.370 11.560,10.681 10.718 L 10.800 10.395 10.800 7.597 L 10.800 4.800 12.000 4.800 L 13.200 4.800 13.200 7.593 " fill="#373B4D" stroke="none" fill-rule="evenodd"></path></svg>