<svg width="24" height="24" viewBox="0 0 24 24" fill="none" xmlns="http://www.w3.org/2000/svg"><path d="M8.980 2.478 C 7.874 2.502,7.909 2.494,7.594 2.790 C 7.292 3.072,7.172 3.494,7.282 3.888 C 7.343 4.110,7.576 4.432,8.016 4.903 L 8.412 5.326 8.365 7.613 C 8.340 8.871,8.308 9.995,8.294 10.112 C 8.264 10.364,8.376 10.240,5.561 13.140 C 2.623 16.167,2.599 16.195,2.376 16.900 C 2.251 17.293,2.200 18.176,2.276 18.613 C 2.403 19.342,2.782 20.020,3.390 20.606 C 3.790 20.992,4.116 21.192,4.760 21.445 L 5.180 21.611 11.280 21.586 C 14.635 21.573,17.767 21.545,18.240 21.524 C 19.034 21.489,19.125 21.477,19.427 21.370 C 19.879 21.209,20.155 21.034,20.561 20.651 C 20.950 20.282,21.260 19.861,21.459 19.429 C 21.704 18.898,21.735 18.733,21.737 17.960 C 21.738 17.176,21.717 17.077,21.429 16.500 C 21.153 15.948,21.089 15.876,18.322 13.020 C 16.355 10.990,16.090 10.711,15.833 10.400 L 15.651 10.180 15.624 7.747 L 15.597 5.314 15.925 4.967 C 16.615 4.238,16.783 3.949,16.750 3.544 C 16.718 3.134,16.456 2.736,16.125 2.589 C 15.970 2.520,15.803 2.508,14.665 2.478 C 13.299 2.442,10.633 2.442,8.980 2.478 M13.200 7.597 L 13.200 10.394 13.324 10.747 C 13.562 11.425,13.823 11.828,14.516 12.588 C 15.055 13.180,15.280 13.442,15.280 13.477 C 15.280 13.494,14.970 13.519,14.590 13.532 C 13.763 13.560,13.221 13.648,12.160 13.926 L 11.380 14.131 10.680 14.086 C 9.917 14.036,9.471 13.957,8.869 13.762 L 8.478 13.636 9.098 12.988 C 10.096 11.944,10.358 11.578,10.639 10.831 L 10.800 10.405 10.800 7.603 L 10.800 4.800 12.000 4.800 L 13.200 4.800 13.200 7.597 " fill="#373B4D" stroke="none" fill-rule="evenodd"></path></svg>