<svg width="24" height="24" viewBox="0 0 24 24" fill="none" xmlns="http://www.w3.org/2000/svg"><path d="M8.339 2.437 C 8.084 2.457,7.974 2.487,7.799 2.585 C 7.267 2.884,7.057 3.557,7.323 4.107 C 7.375 4.214,7.620 4.505,7.912 4.806 L 8.412 5.322 8.390 7.736 C 8.374 9.546,8.356 10.173,8.319 10.245 C 8.214 10.445,7.830 10.849,5.563 13.139 C 4.278 14.438,3.116 15.630,2.980 15.789 C 2.518 16.328,2.264 16.956,2.221 17.662 C 2.159 18.689,2.365 19.400,2.949 20.179 C 3.437 20.828,3.983 21.203,4.844 21.479 L 5.228 21.602 12.004 21.590 C 18.278 21.578,18.799 21.572,19.040 21.508 C 19.715 21.328,20.150 21.086,20.635 20.621 C 21.326 19.959,21.647 19.331,21.762 18.423 C 21.890 17.405,21.619 16.477,20.982 15.750 C 20.823 15.569,19.613 14.328,18.293 12.994 C 16.973 11.659,15.839 10.486,15.773 10.387 L 15.653 10.206 15.627 9.333 C 15.612 8.853,15.600 7.751,15.600 6.885 L 15.600 5.310 16.094 4.800 C 16.690 4.184,16.779 4.029,16.776 3.600 C 16.775 3.240,16.672 2.993,16.423 2.752 C 16.178 2.514,16.079 2.478,15.566 2.438 C 15.053 2.398,8.853 2.398,8.339 2.437 M13.200 7.585 L 13.200 10.370 13.341 10.790 C 13.627 11.647,13.766 11.844,14.867 12.960 L 15.439 13.540 14.596 13.526 C 13.610 13.511,13.498 13.526,12.536 13.816 C 11.602 14.097,11.344 14.136,10.610 14.109 C 9.975 14.084,9.702 14.031,8.919 13.778 L 8.469 13.632 9.047 13.046 C 10.217 11.861,10.375 11.640,10.658 10.793 L 10.800 10.370 10.800 7.585 L 10.800 4.800 12.000 4.800 L 13.200 4.800 13.200 7.585 " fill="#373B4D" stroke="none" fill-rule="evenodd"></path></svg>