<svg width="24" height="24" viewBox="0 0 24 24" fill="none" xmlns="http://www.w3.org/2000/svg"><path d="M2.000 11.863 L 2.000 17.725 5.130 17.708 C 7.775 17.693,8.308 17.681,8.569 17.628 C 10.149 17.305,10.995 16.765,11.465 15.780 C 11.695 15.299,11.771 14.935,11.771 14.320 C 11.771 13.668,11.692 13.320,11.419 12.776 C 11.109 12.157,10.645 11.736,9.974 11.466 L 9.656 11.337 9.884 11.204 C 10.380 10.915,10.831 10.443,11.024 10.013 C 11.341 9.304,11.297 8.145,10.923 7.407 C 10.541 6.651,9.654 6.195,8.272 6.043 C 8.032 6.016,6.759 6.000,4.942 6.000 L 2.000 6.000 2.000 11.863 M14.400 7.380 L 14.400 7.960 16.760 7.960 L 19.120 7.960 19.120 7.380 L 19.120 6.800 16.760 6.800 L 14.400 6.800 14.400 7.380 M7.969 8.116 C 8.249 8.231,8.497 8.438,8.601 8.642 C 8.780 8.992,8.780 9.728,8.601 10.078 C 8.440 10.394,8.029 10.639,7.520 10.723 C 7.399 10.743,6.684 10.760,5.930 10.760 L 4.560 10.760 4.560 9.378 L 4.560 7.995 6.150 8.009 C 7.712 8.022,7.744 8.024,7.969 8.116 M16.400 9.046 C 15.410 9.149,14.563 9.549,13.878 10.237 C 13.264 10.853,12.863 11.651,12.702 12.575 C 12.586 13.239,12.637 14.408,12.805 14.960 C 12.929 15.368,13.107 15.809,13.241 16.040 C 13.426 16.359,13.898 16.894,14.220 17.149 C 15.209 17.934,16.903 18.212,18.275 17.815 C 19.347 17.504,20.065 16.904,20.574 15.893 C 20.714 15.615,20.880 15.211,20.880 15.150 C 20.880 15.133,20.423 15.120,19.864 15.120 L 18.848 15.120 18.747 15.290 C 18.605 15.529,18.257 15.857,18.017 15.976 C 17.679 16.145,17.379 16.207,16.920 16.205 C 16.018 16.202,15.474 15.904,15.145 15.236 C 14.996 14.934,14.882 14.499,14.881 14.230 L 14.880 14.080 17.930 14.070 L 20.980 14.060 20.992 13.600 C 21.009 12.985,20.936 12.298,20.814 11.924 C 20.759 11.757,20.626 11.440,20.518 11.220 C 19.882 9.923,18.812 9.174,17.408 9.041 C 16.932 8.995,16.883 8.996,16.400 9.046 M17.288 10.845 C 17.795 10.951,18.188 11.247,18.427 11.700 C 18.551 11.936,18.680 12.351,18.680 12.516 L 18.680 12.600 16.794 12.600 L 14.909 12.600 14.934 12.390 C 14.994 11.876,15.161 11.554,15.523 11.257 C 15.908 10.940,16.273 10.809,16.788 10.803 C 16.946 10.802,17.171 10.820,17.288 10.845 M8.072 12.570 C 8.701 12.758,9.045 13.119,9.162 13.713 C 9.222 14.019,9.192 14.547,9.099 14.810 C 9.005 15.078,8.725 15.373,8.424 15.521 C 8.004 15.728,7.713 15.757,6.050 15.759 L 4.560 15.760 4.560 14.117 L 4.560 12.474 6.210 12.491 C 7.562 12.504,7.898 12.519,8.072 12.570 " fill="#373B4D" stroke="none" fill-rule="evenodd"></path></svg>