<svg width="24" height="24" viewBox="0 0 24 24" fill="none" xmlns="http://www.w3.org/2000/svg"><path d="M2.000 11.859 L 2.000 17.731 5.050 17.707 C 6.762 17.694,8.242 17.666,8.424 17.642 C 8.786 17.596,9.292 17.458,9.753 17.280 C 10.807 16.873,11.508 16.073,11.703 15.052 C 11.778 14.659,11.776 13.954,11.698 13.568 C 11.661 13.384,11.558 13.099,11.441 12.860 C 11.126 12.211,10.708 11.814,9.990 11.483 L 9.671 11.335 9.945 11.158 C 10.317 10.916,10.791 10.434,10.949 10.136 C 11.155 9.747,11.207 9.492,11.206 8.860 C 11.205 7.931,11.029 7.422,10.543 6.938 C 10.081 6.477,9.319 6.164,8.460 6.082 C 8.240 6.061,6.697 6.031,5.030 6.016 L 2.000 5.987 2.000 11.859 M14.400 7.380 L 14.400 7.960 16.760 7.960 L 19.120 7.960 19.120 7.380 L 19.120 6.800 16.760 6.800 L 14.400 6.800 14.400 7.380 M7.987 8.139 C 8.271 8.268,8.540 8.525,8.628 8.753 C 8.682 8.893,8.700 9.052,8.700 9.380 C 8.700 9.780,8.690 9.841,8.589 10.046 C 8.458 10.312,8.205 10.505,7.800 10.646 C 7.551 10.733,7.475 10.738,6.050 10.752 L 4.560 10.767 4.560 9.377 L 4.560 7.988 6.170 8.017 C 7.744 8.044,7.785 8.047,7.987 8.139 M16.380 9.058 C 15.751 9.150,15.401 9.256,14.913 9.500 C 13.665 10.126,12.800 11.438,12.671 12.901 C 12.560 14.148,12.812 15.376,13.343 16.184 C 13.564 16.519,14.170 17.119,14.500 17.328 C 15.825 18.168,17.777 18.210,19.165 17.429 C 19.880 17.027,20.494 16.244,20.820 15.321 L 20.872 15.172 20.390 15.146 C 20.125 15.132,19.670 15.120,19.380 15.120 L 18.853 15.120 18.700 15.342 C 18.307 15.913,17.713 16.199,16.920 16.199 C 15.844 16.199,15.231 15.718,14.961 14.664 C 14.916 14.490,14.880 14.287,14.880 14.214 L 14.880 14.080 17.930 14.070 L 20.980 14.060 20.992 13.800 C 21.014 13.357,20.927 12.361,20.840 12.040 C 20.719 11.599,20.326 10.834,20.023 10.452 C 19.446 9.724,18.663 9.260,17.743 9.103 C 17.232 9.015,16.773 9.000,16.380 9.058 M17.245 10.858 C 17.942 11.005,18.364 11.416,18.596 12.174 C 18.742 12.650,18.949 12.600,16.850 12.599 C 15.843 12.599,14.995 12.583,14.964 12.563 C 14.917 12.534,14.916 12.487,14.957 12.274 C 15.066 11.710,15.369 11.312,15.908 11.029 C 16.325 10.810,16.758 10.754,17.245 10.858 M6.900 12.518 C 7.867 12.550,8.005 12.563,8.220 12.642 C 8.884 12.889,9.172 13.346,9.167 14.147 C 9.164 14.676,9.090 14.902,8.822 15.190 C 8.578 15.454,8.299 15.609,7.940 15.680 C 7.795 15.708,7.080 15.736,6.130 15.749 L 4.560 15.771 4.560 14.126 L 4.560 12.480 5.190 12.481 C 5.537 12.482,6.306 12.499,6.900 12.518 " fill="#373B4D" stroke="none" fill-rule="evenodd"></path></svg>