<svg width="24" height="24" viewBox="0 0 24 24" fill="none" xmlns="http://www.w3.org/2000/svg"><path d="M2.000 11.856 L 2.000 17.720 4.290 17.717 C 5.550 17.716,7.021 17.700,7.560 17.682 C 8.474 17.652,8.572 17.642,9.013 17.525 C 10.301 17.184,11.038 16.660,11.460 15.783 C 11.686 15.312,11.760 14.953,11.760 14.320 C 11.760 13.671,11.685 13.320,11.442 12.835 C 11.104 12.158,10.698 11.787,9.926 11.450 L 9.672 11.338 9.990 11.131 C 10.367 10.886,10.817 10.419,10.969 10.116 C 11.161 9.734,11.219 9.435,11.218 8.840 C 11.214 7.435,10.654 6.658,9.360 6.264 C 8.608 6.035,8.600 6.034,5.170 6.012 L 2.000 5.991 2.000 11.856 M14.400 7.380 L 14.400 7.960 16.760 7.960 L 19.120 7.960 19.120 7.380 L 19.120 6.800 16.760 6.800 L 14.400 6.800 14.400 7.380 M8.031 8.159 C 8.541 8.398,8.720 8.711,8.720 9.360 C 8.720 9.806,8.640 10.075,8.446 10.278 C 8.259 10.475,7.863 10.663,7.520 10.718 C 7.377 10.741,6.652 10.760,5.910 10.760 L 4.560 10.760 4.560 9.374 L 4.560 7.987 6.164 8.012 L 7.768 8.036 8.031 8.159 M16.440 9.045 C 14.583 9.257,13.255 10.419,12.768 12.260 C 12.671 12.628,12.662 12.725,12.661 13.460 C 12.660 14.366,12.700 14.658,12.908 15.257 C 13.164 15.994,13.397 16.356,13.967 16.903 C 14.340 17.261,14.643 17.460,15.082 17.635 C 16.027 18.013,17.107 18.095,18.060 17.863 C 19.393 17.537,20.208 16.819,20.758 15.484 C 20.826 15.321,20.870 15.177,20.857 15.164 C 20.844 15.151,20.387 15.135,19.842 15.128 L 18.851 15.116 18.721 15.318 C 18.345 15.905,17.745 16.201,16.934 16.199 C 16.037 16.198,15.473 15.890,15.148 15.226 C 15.016 14.957,14.880 14.452,14.880 14.234 L 14.880 14.080 17.930 14.070 L 20.980 14.060 20.977 13.380 C 20.973 12.392,20.879 11.959,20.510 11.220 C 20.169 10.539,19.727 10.020,19.183 9.664 C 18.615 9.293,18.115 9.123,17.352 9.042 C 16.920 8.995,16.869 8.996,16.440 9.045 M17.213 10.839 C 17.683 10.916,18.148 11.227,18.377 11.619 C 18.497 11.823,18.680 12.354,18.680 12.497 L 18.680 12.600 16.800 12.600 C 15.010 12.600,14.920 12.597,14.920 12.527 C 14.920 12.345,15.017 11.961,15.112 11.767 C 15.312 11.358,15.913 10.921,16.384 10.842 C 16.662 10.796,16.943 10.794,17.213 10.839 M8.064 12.583 C 8.702 12.749,9.056 13.139,9.165 13.796 C 9.222 14.145,9.163 14.680,9.039 14.923 C 8.927 15.141,8.647 15.410,8.413 15.523 C 8.016 15.715,7.876 15.730,6.170 15.749 L 4.560 15.768 4.560 14.117 L 4.560 12.467 6.197 12.495 C 7.448 12.516,7.889 12.537,8.064 12.583 " fill="#373B4D" stroke="none" fill-rule="evenodd"></path></svg>