<svg width="24" height="24" viewBox="0 0 24 24" fill="none" xmlns="http://www.w3.org/2000/svg"><path d="M2.000 11.867 L 2.000 17.733 4.870 17.706 C 6.449 17.692,7.947 17.662,8.200 17.639 C 9.296 17.543,10.326 17.114,10.931 16.501 C 11.235 16.193,11.410 15.909,11.593 15.427 L 11.732 15.060 11.730 14.380 C 11.729 14.006,11.708 13.610,11.683 13.500 C 11.658 13.390,11.546 13.114,11.434 12.887 C 11.123 12.256,10.803 11.945,10.030 11.522 C 9.860 11.429,9.721 11.341,9.722 11.326 C 9.723 11.312,9.825 11.228,9.949 11.140 C 10.236 10.937,10.706 10.475,10.869 10.237 C 10.938 10.136,11.036 9.938,11.086 9.797 C 11.167 9.569,11.177 9.466,11.177 8.880 C 11.176 7.960,11.075 7.598,10.689 7.135 C 10.363 6.743,9.745 6.379,9.138 6.221 C 9.012 6.188,8.638 6.143,8.305 6.121 C 7.649 6.076,4.190 6.000,2.838 6.000 L 2.000 6.000 2.000 11.867 M14.400 7.380 L 14.400 7.960 16.760 7.960 L 19.120 7.960 19.120 7.380 L 19.120 6.800 16.760 6.800 L 14.400 6.800 14.400 7.380 M7.393 8.082 C 7.969 8.125,8.151 8.191,8.374 8.438 C 8.619 8.710,8.657 8.834,8.658 9.380 C 8.659 9.947,8.616 10.066,8.314 10.338 C 7.924 10.688,7.492 10.759,5.750 10.760 L 4.560 10.760 4.560 9.374 L 4.560 7.988 5.730 8.017 C 6.373 8.032,7.122 8.062,7.393 8.082 M15.960 9.140 C 14.538 9.458,13.384 10.489,12.919 11.858 C 12.724 12.429,12.663 12.830,12.663 13.540 C 12.663 14.449,12.801 15.079,13.168 15.839 C 13.307 16.127,13.399 16.248,13.791 16.648 C 14.728 17.605,15.391 17.903,16.680 17.949 C 17.436 17.975,17.828 17.927,18.390 17.740 C 19.076 17.510,19.323 17.360,19.800 16.881 C 20.270 16.410,20.477 16.122,20.665 15.680 C 20.864 15.212,20.864 15.213,20.711 15.187 C 20.639 15.174,20.193 15.153,19.720 15.139 L 18.860 15.114 18.649 15.378 C 18.398 15.691,18.040 15.966,17.750 16.067 C 17.579 16.126,17.416 16.140,16.880 16.140 L 16.220 16.140 15.964 16.006 C 15.628 15.831,15.368 15.558,15.189 15.195 C 15.036 14.883,14.880 14.376,14.880 14.191 L 14.880 14.080 17.930 14.070 L 20.980 14.060 20.977 13.520 C 20.971 12.305,20.786 11.636,20.219 10.780 C 19.725 10.034,18.926 9.433,18.113 9.197 C 17.724 9.084,16.371 9.048,15.960 9.140 M17.620 11.014 C 18.013 11.200,18.225 11.420,18.454 11.877 C 18.653 12.275,18.691 12.491,18.570 12.539 C 18.458 12.584,16.282 12.614,15.585 12.581 L 14.950 12.551 14.972 12.333 C 15.024 11.828,15.408 11.309,15.922 11.049 C 16.261 10.878,16.459 10.840,16.932 10.858 C 17.280 10.871,17.356 10.888,17.620 11.014 M6.400 12.520 C 8.160 12.582,8.395 12.632,8.767 13.030 C 9.062 13.345,9.086 13.418,9.110 14.057 C 9.129 14.580,9.124 14.635,9.040 14.831 C 8.866 15.235,8.359 15.592,7.837 15.678 C 7.695 15.701,6.901 15.732,6.070 15.747 L 4.560 15.773 4.560 14.126 L 4.560 12.480 4.930 12.481 C 5.134 12.481,5.795 12.498,6.400 12.520 " fill="#373B4D" stroke="none" fill-rule="evenodd"></path></svg>