<svg width="24" height="24" viewBox="0 0 24 24" fill="none" xmlns="http://www.w3.org/2000/svg"><path d="M2.000 11.854 L 2.000 17.720 3.890 17.717 C 6.473 17.714,8.428 17.661,8.760 17.585 C 9.800 17.347,10.588 16.936,11.050 16.393 C 11.317 16.078,11.460 15.823,11.607 15.400 C 11.736 15.026,11.738 15.008,11.738 14.320 C 11.737 13.544,11.707 13.402,11.414 12.820 C 11.112 12.217,10.769 11.889,10.075 11.539 L 9.676 11.337 9.948 11.150 C 10.299 10.910,10.758 10.443,10.935 10.146 C 11.128 9.824,11.200 9.472,11.199 8.852 C 11.199 8.264,11.133 7.895,10.966 7.544 C 10.741 7.069,10.394 6.740,9.820 6.459 C 9.058 6.086,8.745 6.059,4.730 6.017 L 2.000 5.989 2.000 11.854 M14.400 7.380 L 14.400 7.960 16.760 7.960 L 19.120 7.960 19.120 7.380 L 19.120 6.800 16.760 6.800 L 14.400 6.800 14.400 7.380 M6.801 8.035 C 7.970 8.068,8.058 8.090,8.402 8.443 C 8.633 8.679,8.680 8.839,8.680 9.396 C 8.680 9.791,8.669 9.865,8.582 10.036 C 8.462 10.272,8.298 10.416,7.974 10.568 C 7.636 10.727,7.275 10.758,5.790 10.759 L 4.560 10.760 4.560 9.380 L 4.560 8.000 5.170 8.003 C 5.505 8.005,6.239 8.019,6.801 8.035 M16.106 9.101 C 15.032 9.304,14.156 9.842,13.518 10.689 C 12.887 11.526,12.593 12.571,12.655 13.760 C 12.714 14.908,13.031 15.847,13.572 16.471 C 14.477 17.516,15.483 17.970,16.900 17.973 C 17.590 17.974,18.026 17.898,18.627 17.672 C 19.164 17.469,19.415 17.305,19.840 16.878 C 20.258 16.459,20.523 16.057,20.744 15.510 L 20.877 15.180 20.469 15.155 C 20.244 15.141,19.790 15.128,19.459 15.125 L 18.858 15.120 18.655 15.391 C 18.290 15.879,17.764 16.148,17.098 16.189 C 16.143 16.247,15.513 15.918,15.160 15.180 C 15.014 14.873,14.880 14.397,14.880 14.182 L 14.880 14.080 17.930 14.070 L 20.980 14.060 20.993 13.740 C 21.008 13.361,20.939 12.532,20.859 12.145 C 20.794 11.828,20.447 11.082,20.176 10.674 C 19.690 9.943,18.875 9.376,17.996 9.158 C 17.544 9.046,16.555 9.016,16.106 9.101 M17.457 10.922 C 18.014 11.095,18.397 11.532,18.623 12.251 C 18.680 12.434,18.685 12.491,18.645 12.531 C 18.578 12.598,15.027 12.603,14.960 12.536 C 14.899 12.475,15.010 12.005,15.144 11.759 C 15.393 11.303,15.919 10.941,16.480 10.839 C 16.722 10.795,17.168 10.833,17.457 10.922 M7.678 12.561 C 8.240 12.605,8.534 12.730,8.815 13.042 C 9.076 13.334,9.140 13.552,9.140 14.160 C 9.139 14.589,9.127 14.687,9.052 14.849 C 8.872 15.241,8.411 15.584,7.936 15.680 C 7.828 15.701,7.025 15.731,6.150 15.746 L 4.560 15.773 4.560 14.120 L 4.560 12.468 5.890 12.496 C 6.622 12.512,7.426 12.541,7.678 12.561 " fill="#373B4D" stroke="none" fill-rule="evenodd"></path></svg>