<svg width="24" height="24" viewBox="0 0 24 24" fill="none" xmlns="http://www.w3.org/2000/svg"><path d="M2.000 11.866 L 2.000 17.732 4.830 17.707 C 6.387 17.693,7.898 17.665,8.188 17.643 C 8.849 17.595,9.408 17.441,10.020 17.142 C 10.876 16.722,11.342 16.194,11.643 15.300 C 11.728 15.048,11.738 14.952,11.736 14.340 C 11.734 13.542,11.697 13.380,11.391 12.793 C 11.083 12.200,10.777 11.914,10.037 11.523 L 9.686 11.337 10.009 11.099 C 10.400 10.810,10.846 10.333,10.981 10.059 C 11.153 9.711,11.211 9.331,11.187 8.700 C 11.154 7.830,11.010 7.444,10.543 6.976 C 10.314 6.746,10.180 6.653,9.840 6.486 C 9.350 6.245,9.101 6.177,8.500 6.120 C 8.054 6.077,4.580 6.004,2.910 6.001 L 2.000 6.000 2.000 11.866 M14.400 7.380 L 14.400 7.960 16.760 7.960 L 19.120 7.960 19.120 7.380 L 19.120 6.800 16.760 6.800 L 14.400 6.800 14.400 7.380 M6.680 8.040 C 7.975 8.085,8.056 8.104,8.369 8.432 C 8.558 8.630,8.598 8.700,8.640 8.900 C 8.667 9.030,8.682 9.305,8.673 9.519 C 8.660 9.847,8.642 9.929,8.550 10.087 C 8.343 10.439,7.937 10.650,7.329 10.719 C 7.137 10.741,6.435 10.759,5.770 10.760 L 4.560 10.760 4.560 9.380 L 4.560 8.000 5.090 8.001 C 5.381 8.002,6.097 8.019,6.680 8.040 M16.320 9.081 C 14.976 9.229,13.734 10.105,13.129 11.334 C 12.464 12.683,12.491 14.541,13.194 15.900 C 13.352 16.207,13.451 16.331,13.860 16.740 C 14.563 17.443,15.121 17.743,16.015 17.898 C 16.521 17.986,17.441 17.979,17.901 17.884 C 18.349 17.792,18.992 17.543,19.286 17.348 C 19.563 17.164,20.169 16.539,20.378 16.222 C 20.602 15.882,20.885 15.228,20.823 15.192 C 20.797 15.177,20.344 15.152,19.816 15.136 L 18.857 15.108 18.781 15.224 C 18.652 15.422,18.319 15.752,18.125 15.876 C 17.767 16.104,17.478 16.174,16.900 16.174 C 16.469 16.174,16.341 16.160,16.151 16.090 C 15.677 15.914,15.378 15.625,15.145 15.116 C 15.004 14.809,14.880 14.373,14.880 14.188 L 14.880 14.080 17.930 14.070 L 20.980 14.060 20.993 13.760 C 21.009 13.384,20.934 12.500,20.860 12.174 C 20.706 11.507,20.248 10.689,19.740 10.177 C 19.181 9.613,18.464 9.225,17.790 9.124 C 17.406 9.066,16.654 9.044,16.320 9.081 M17.288 10.884 C 17.595 10.949,17.939 11.145,18.144 11.373 C 18.425 11.685,18.755 12.449,18.641 12.520 C 18.531 12.587,16.517 12.622,15.506 12.574 L 14.960 12.548 14.960 12.400 C 14.960 12.201,15.089 11.840,15.235 11.627 C 15.448 11.317,15.812 11.053,16.219 10.912 C 16.453 10.831,16.970 10.818,17.288 10.884 M7.500 12.561 C 7.786 12.581,8.115 12.625,8.231 12.660 C 8.506 12.743,8.820 13.004,8.976 13.280 C 9.097 13.494,9.100 13.516,9.114 14.090 C 9.126 14.631,9.120 14.695,9.040 14.861 C 8.855 15.243,8.369 15.591,7.901 15.677 C 7.770 15.701,6.964 15.732,6.111 15.747 L 4.560 15.773 4.560 14.121 L 4.560 12.469 5.770 12.497 C 6.435 12.512,7.214 12.541,7.500 12.561 " fill="#373B4D" stroke="none" fill-rule="evenodd"></path></svg>