<svg width="24" height="24" viewBox="0 0 24 24" fill="none" xmlns="http://www.w3.org/2000/svg"><path d="M10.900 2.560 C 10.172 2.633,8.956 3.103,8.151 3.623 C 6.714 4.549,5.730 5.808,5.197 7.400 C 4.878 8.352,4.848 8.689,4.814 11.660 L 4.788 13.900 4.487 14.220 C 4.091 14.641,3.733 15.126,3.682 15.311 C 3.630 15.499,3.629 15.739,3.680 15.920 C 3.736 16.120,4.044 16.493,4.289 16.659 L 4.499 16.800 12.006 16.800 L 19.512 16.800 19.754 16.618 C 20.164 16.310,20.312 16.083,20.347 15.705 C 20.367 15.488,20.356 15.419,20.272 15.235 C 20.165 15.003,19.833 14.567,19.450 14.156 L 19.212 13.900 19.186 11.740 C 19.150 8.728,19.120 8.381,18.816 7.452 C 18.653 6.951,18.211 6.034,17.925 5.600 C 17.029 4.243,15.265 3.034,13.638 2.662 C 13.155 2.551,11.572 2.492,10.900 2.560 M8.400 18.150 C 8.400 18.344,8.570 18.975,8.713 19.316 C 9.137 20.326,10.102 21.168,11.155 21.447 C 11.550 21.551,12.333 21.560,12.736 21.464 C 13.727 21.229,14.724 20.466,15.153 19.614 C 15.303 19.316,15.550 18.520,15.585 18.218 L 15.611 18.000 12.006 18.000 L 8.400 18.000 8.400 18.150 " fill="#373B4D" stroke="none" fill-rule="evenodd"></path></svg>