<svg width="24" height="24" viewBox="0 0 24 24" fill="none" xmlns="http://www.w3.org/2000/svg"><path d="M11.321 2.445 C 8.894 2.660,6.616 4.224,5.546 6.410 C 5.303 6.908,5.138 7.363,4.995 7.940 C 4.840 8.562,4.804 9.293,4.802 11.935 L 4.800 13.890 4.306 14.400 C 3.710 15.015,3.620 15.173,3.620 15.600 C 3.620 15.837,3.640 15.942,3.717 16.097 C 3.844 16.354,4.077 16.583,4.333 16.703 L 4.540 16.799 12.000 16.799 L 19.460 16.799 19.667 16.703 C 19.923 16.583,20.156 16.354,20.283 16.097 C 20.360 15.942,20.380 15.837,20.380 15.600 C 20.380 15.173,20.290 15.015,19.694 14.400 L 19.200 13.890 19.199 11.675 C 19.199 10.457,19.181 9.242,19.160 8.975 C 19.093 8.107,18.871 7.309,18.461 6.460 C 17.765 5.016,16.666 3.907,15.220 3.187 C 13.947 2.554,12.722 2.320,11.321 2.445 M8.418 18.285 C 8.498 19.099,8.847 19.873,9.398 20.455 C 10.008 21.100,10.713 21.452,11.610 21.559 C 12.357 21.648,13.202 21.466,13.827 21.081 C 14.240 20.827,14.745 20.353,14.979 20.002 C 15.295 19.527,15.522 18.876,15.584 18.270 L 15.611 18.000 12.000 18.000 L 8.390 18.000 8.418 18.285 " fill="#373B4D" stroke="none" fill-rule="evenodd"></path></svg>