<svg width="24" height="24" viewBox="0 0 24 24" fill="none" xmlns="http://www.w3.org/2000/svg"><path d="M11.220 2.548 C 10.584 2.606,9.998 2.757,9.363 3.028 C 8.470 3.408,7.717 3.897,7.069 4.517 C 6.131 5.417,5.609 6.232,5.199 7.438 C 4.899 8.323,4.850 8.873,4.814 11.780 L 4.787 13.900 4.474 14.249 C 3.888 14.902,3.640 15.321,3.640 15.654 C 3.640 15.854,3.810 16.149,4.123 16.490 L 4.406 16.800 11.960 16.800 L 19.513 16.800 19.728 16.624 C 20.069 16.347,20.284 16.020,20.338 15.697 C 20.390 15.382,20.166 14.982,19.535 14.260 L 19.220 13.901 19.194 11.840 C 19.162 9.305,19.110 8.556,18.917 7.844 C 18.774 7.314,18.353 6.359,18.008 5.780 C 17.416 4.785,16.382 3.888,15.048 3.212 C 14.188 2.776,13.630 2.645,12.280 2.561 C 11.628 2.521,11.533 2.519,11.220 2.548 M8.400 18.116 C 8.400 18.276,8.577 18.942,8.705 19.261 C 9.051 20.126,9.992 21.028,10.857 21.325 C 11.440 21.525,12.144 21.577,12.694 21.461 C 13.597 21.269,14.746 20.398,15.119 19.620 C 15.300 19.243,15.556 18.465,15.588 18.192 L 15.611 18.000 12.006 18.000 L 8.400 18.000 8.400 18.116 " fill="#373B4D" stroke="none" fill-rule="evenodd"></path></svg>