<svg width="24" height="24" viewBox="0 0 24 24" fill="none" xmlns="http://www.w3.org/2000/svg"><path d="M11.260 2.480 C 9.588 2.610,7.730 3.577,6.568 4.922 C 5.817 5.791,5.320 6.733,5.038 7.820 C 4.856 8.518,4.834 8.884,4.811 11.479 L 4.791 13.897 4.374 14.338 C 4.145 14.580,3.890 14.875,3.809 14.994 C 3.661 15.208,3.660 15.212,3.660 15.618 C 3.660 16.008,3.665 16.033,3.778 16.183 C 3.943 16.403,4.193 16.631,4.368 16.723 C 4.514 16.798,4.677 16.800,12.000 16.800 C 19.323 16.800,19.486 16.798,19.632 16.723 C 19.805 16.632,20.056 16.403,20.219 16.187 C 20.316 16.058,20.336 15.988,20.351 15.727 C 20.361 15.558,20.349 15.347,20.325 15.259 C 20.278 15.083,19.999 14.725,19.516 14.220 L 19.210 13.900 19.187 11.520 C 19.174 10.211,19.145 8.942,19.122 8.700 C 19.002 7.449,18.271 5.830,17.384 4.849 C 16.573 3.953,15.372 3.174,14.199 2.783 C 13.599 2.583,13.265 2.521,12.560 2.479 C 11.880 2.439,11.788 2.439,11.260 2.480 M8.417 18.279 C 8.474 18.854,8.745 19.564,9.094 20.054 C 9.337 20.394,9.853 20.877,10.184 21.073 C 11.591 21.907,13.407 21.658,14.544 20.476 C 14.885 20.122,15.167 19.698,15.303 19.335 C 15.439 18.975,15.599 18.334,15.600 18.150 L 15.600 18.000 11.995 18.000 L 8.390 18.000 8.417 18.279 " fill="#373B4D" stroke="none" fill-rule="evenodd"></path></svg>