<svg width="24" height="24" viewBox="0 0 24 24" fill="none" xmlns="http://www.w3.org/2000/svg"><path d="M11.062 2.564 C 10.372 2.637,9.770 2.818,9.020 3.177 C 8.183 3.578,7.512 4.047,6.900 4.660 C 6.127 5.433,5.596 6.285,5.226 7.349 C 4.897 8.294,4.848 8.821,4.813 11.778 L 4.788 13.896 4.413 14.315 C 3.967 14.815,3.791 15.069,3.699 15.353 C 3.570 15.746,3.657 15.985,4.103 16.471 L 4.406 16.800 11.960 16.800 L 19.513 16.800 19.716 16.639 C 20.005 16.411,20.229 16.111,20.305 15.849 C 20.422 15.445,20.299 15.168,19.664 14.409 C 19.503 14.217,19.333 14.026,19.286 13.984 C 19.201 13.909,19.200 13.890,19.199 12.484 C 19.199 10.082,19.120 8.606,18.960 7.981 C 18.784 7.291,18.273 6.157,17.861 5.542 C 17.267 4.653,16.252 3.807,15.070 3.215 C 14.146 2.752,13.687 2.642,12.349 2.562 C 11.565 2.516,11.521 2.516,11.062 2.564 M8.400 18.130 C 8.400 18.306,8.566 18.911,8.719 19.298 C 9.049 20.127,9.928 20.979,10.803 21.318 C 11.350 21.530,12.265 21.585,12.801 21.438 C 13.656 21.203,14.614 20.495,15.051 19.774 C 15.247 19.452,15.600 18.370,15.600 18.092 L 15.600 18.000 12.000 18.000 L 8.400 18.000 8.400 18.130 " fill="#373B4D" stroke="none" fill-rule="evenodd"></path></svg>