<svg width="24" height="24" viewBox="0 0 24 24" fill="none" xmlns="http://www.w3.org/2000/svg"><path d="M11.260 2.482 C 10.126 2.596,9.011 3.009,7.980 3.700 C 6.921 4.409,6.113 5.323,5.558 6.440 C 5.310 6.939,5.025 7.780,4.939 8.269 C 4.855 8.743,4.803 10.235,4.801 12.234 L 4.800 13.887 4.419 14.291 C 3.741 15.010,3.643 15.176,3.641 15.600 C 3.640 15.975,3.679 16.077,3.930 16.344 C 4.060 16.484,4.233 16.639,4.314 16.689 L 4.460 16.780 12.000 16.780 L 19.540 16.780 19.683 16.691 C 19.919 16.545,20.268 16.151,20.316 15.977 C 20.383 15.736,20.368 15.362,20.285 15.180 C 20.202 14.996,19.912 14.637,19.491 14.196 L 19.200 13.891 19.198 12.476 C 19.196 10.393,19.139 8.690,19.060 8.280 C 18.855 7.225,18.314 6.037,17.650 5.179 C 16.583 3.802,14.647 2.693,13.016 2.525 C 12.399 2.461,11.655 2.443,11.260 2.482 M8.400 18.116 C 8.400 18.326,8.511 18.813,8.638 19.163 C 8.829 19.688,9.086 20.092,9.480 20.486 C 10.003 21.009,10.467 21.282,11.147 21.465 C 11.562 21.577,12.472 21.569,12.892 21.449 C 13.937 21.149,14.795 20.426,15.242 19.467 C 15.373 19.186,15.600 18.343,15.600 18.137 L 15.600 18.000 12.000 18.000 L 8.400 18.000 8.400 18.116 " fill="#373B4D" stroke="none" fill-rule="evenodd"></path></svg>