<svg width="24" height="24" viewBox="0 0 24 24" fill="none" xmlns="http://www.w3.org/2000/svg"><path d="M10.934 2.523 C 9.905 2.682,8.719 3.176,7.821 3.820 C 6.366 4.862,5.438 6.249,4.984 8.060 C 4.873 8.502,4.835 9.285,4.812 11.599 L 4.789 13.898 4.391 14.323 C 3.929 14.818,3.736 15.078,3.680 15.277 C 3.622 15.485,3.631 15.861,3.698 16.020 C 3.771 16.196,4.077 16.524,4.312 16.680 L 4.494 16.800 11.999 16.800 L 19.504 16.800 19.682 16.686 C 19.913 16.539,20.186 16.239,20.282 16.028 C 20.368 15.838,20.383 15.506,20.315 15.280 C 20.258 15.088,20.012 14.760,19.565 14.280 L 19.212 13.899 19.188 11.640 C 19.160 9.145,19.126 8.530,18.979 7.948 C 18.764 7.099,18.307 6.104,17.809 5.401 C 16.856 4.057,15.114 2.936,13.444 2.595 C 13.000 2.504,11.360 2.457,10.934 2.523 M8.415 18.253 C 8.478 18.869,8.796 19.655,9.180 20.141 C 9.799 20.927,10.627 21.413,11.531 21.524 C 12.242 21.611,12.875 21.507,13.506 21.200 C 14.355 20.787,15.020 20.082,15.307 19.292 C 15.443 18.919,15.600 18.297,15.600 18.136 L 15.600 18.000 11.994 18.000 L 8.389 18.000 8.415 18.253 " fill="#373B4D" stroke="none" fill-rule="evenodd"></path></svg>