<svg width="24" height="24" viewBox="0 0 24 24" fill="none" xmlns="http://www.w3.org/2000/svg"><path d="M10.680 2.580 C 9.159 2.924,7.885 3.620,6.840 4.678 C 5.979 5.550,5.375 6.629,5.040 7.898 C 4.874 8.526,4.840 9.080,4.813 11.660 L 4.789 13.900 4.524 14.180 C 4.135 14.591,3.813 15.002,3.722 15.203 C 3.618 15.432,3.615 15.802,3.715 16.020 C 3.813 16.232,4.076 16.523,4.307 16.676 L 4.494 16.800 12.002 16.800 L 19.511 16.800 19.747 16.626 C 19.974 16.459,20.177 16.238,20.275 16.052 C 20.347 15.913,20.374 15.518,20.323 15.331 C 20.270 15.133,19.934 14.676,19.504 14.214 L 19.200 13.887 19.199 12.594 C 19.198 10.993,19.137 8.927,19.079 8.500 C 18.959 7.618,18.487 6.444,17.888 5.540 C 17.004 4.205,15.193 2.986,13.579 2.640 C 13.045 2.525,11.099 2.485,10.680 2.580 M8.400 18.152 C 8.400 18.345,8.530 18.845,8.683 19.242 C 9.087 20.289,10.047 21.150,11.140 21.446 C 11.634 21.579,12.416 21.570,12.892 21.426 C 13.945 21.106,14.896 20.300,15.244 19.433 C 15.374 19.111,15.558 18.453,15.586 18.213 L 15.611 18.000 12.006 18.000 L 8.400 18.000 8.400 18.152 " fill="#373B4D" stroke="none" fill-rule="evenodd"></path></svg>