<svg width="24" height="24" viewBox="0 0 24 24" fill="none" xmlns="http://www.w3.org/2000/svg"><path d="M11.060 2.519 C 10.670 2.555,9.942 2.747,9.475 2.935 C 8.000 3.530,6.826 4.462,6.001 5.693 C 5.546 6.372,5.075 7.532,4.940 8.307 C 4.862 8.754,4.802 10.516,4.801 12.434 L 4.800 13.887 4.419 14.294 C 4.209 14.517,3.955 14.820,3.854 14.967 C 3.689 15.206,3.668 15.263,3.650 15.507 C 3.640 15.657,3.651 15.852,3.675 15.941 C 3.727 16.134,4.042 16.501,4.306 16.676 L 4.494 16.800 12.000 16.800 L 19.506 16.800 19.693 16.676 C 19.898 16.541,20.173 16.247,20.269 16.062 C 20.367 15.873,20.383 15.472,20.301 15.257 C 20.224 15.054,19.919 14.657,19.493 14.200 L 19.212 13.900 19.186 11.660 C 19.159 9.267,19.123 8.568,19.002 8.060 C 18.735 6.942,18.109 5.696,17.429 4.930 C 16.326 3.689,14.545 2.708,13.134 2.565 C 12.577 2.509,11.438 2.483,11.060 2.519 M8.401 18.130 C 8.402 18.444,8.596 19.110,8.811 19.540 C 9.002 19.922,9.208 20.198,9.546 20.523 C 10.144 21.099,10.685 21.379,11.440 21.504 C 11.878 21.576,12.146 21.575,12.585 21.498 C 13.716 21.301,14.825 20.441,15.249 19.431 C 15.385 19.108,15.599 18.312,15.600 18.130 L 15.600 18.000 12.000 18.000 L 8.400 18.000 8.401 18.130 " fill="#373B4D" stroke="none" fill-rule="evenodd"></path></svg>