<svg width="24" height="24" viewBox="0 0 24 24" fill="none" xmlns="http://www.w3.org/2000/svg"><path d="M3.765 3.037 L 3.311 3.060 3.176 3.216 C 2.941 3.488,2.844 2.651,4.063 10.880 C 5.397 19.887,5.479 20.390,5.658 20.662 C 5.693 20.716,5.814 20.806,5.927 20.864 L 6.133 20.968 12.096 20.953 C 17.763 20.939,18.067 20.935,18.208 20.866 C 18.289 20.826,18.383 20.751,18.417 20.699 C 18.512 20.554,18.659 19.630,19.558 13.540 C 20.725 5.630,20.969 3.928,20.974 3.680 C 20.981 3.372,20.889 3.207,20.638 3.079 C 20.485 3.001,20.381 3.000,12.352 3.007 C 7.879 3.011,4.015 3.025,3.765 3.037 M14.742 9.089 C 14.765 9.111,14.088 13.643,13.912 14.650 L 13.871 14.880 12.006 14.880 L 10.140 14.880 9.638 11.959 L 9.137 9.037 11.925 9.049 C 13.459 9.055,14.726 9.073,14.742 9.089 " fill="#373B4D" stroke="none" fill-rule="evenodd"></path></svg>