<svg width="24" height="24" viewBox="0 0 24 24" fill="none" xmlns="http://www.w3.org/2000/svg"><path d="M5.247 3.079 L 3.273 3.100 3.157 3.231 C 3.017 3.387,3.011 3.492,3.100 4.260 C 3.253 5.573,4.879 16.520,5.283 18.953 C 5.533 20.458,5.614 20.696,5.932 20.870 C 6.052 20.935,6.390 20.941,11.120 20.951 C 16.569 20.963,18.013 20.937,18.229 20.825 C 18.449 20.712,18.489 20.586,18.679 19.400 C 18.969 17.588,20.243 8.994,20.676 5.920 C 21.018 3.499,21.020 3.451,20.787 3.219 L 20.660 3.093 20.080 3.067 C 19.435 3.037,8.333 3.047,5.247 3.079 M14.717 9.104 C 14.750 9.136,13.911 14.758,13.860 14.840 C 13.844 14.866,13.188 14.880,11.988 14.880 L 10.140 14.880 9.663 12.050 C 9.400 10.493,9.178 9.189,9.168 9.152 C 9.154 9.092,9.196 9.081,9.506 9.067 C 9.935 9.048,14.693 9.081,14.717 9.104 " fill="#373B4D" stroke="none" fill-rule="evenodd"></path></svg>