<svg width="24" height="24" viewBox="0 0 24 24" fill="none" xmlns="http://www.w3.org/2000/svg"><path d="M6.776 3.076 C 2.990 3.102,3.221 3.086,3.097 3.325 C 3.018 3.479,3.025 3.680,3.141 4.590 C 3.319 5.971,4.373 13.116,4.981 17.060 C 5.413 19.860,5.535 20.456,5.727 20.699 C 5.924 20.951,5.616 20.936,11.040 20.952 C 16.224 20.967,17.947 20.937,18.216 20.824 C 18.396 20.749,18.458 20.615,18.562 20.079 C 18.784 18.934,20.789 5.336,20.923 4.070 C 20.981 3.524,20.951 3.363,20.760 3.180 L 20.638 3.063 15.449 3.058 C 12.595 3.055,8.692 3.063,6.776 3.076 M14.698 9.125 C 14.731 9.157,14.236 12.584,13.898 14.667 C 13.878 14.790,13.849 14.839,13.785 14.856 C 13.738 14.869,12.897 14.879,11.915 14.879 L 10.129 14.880 10.102 14.670 C 10.087 14.555,9.871 13.263,9.622 11.800 C 9.374 10.337,9.178 9.126,9.188 9.109 C 9.209 9.072,14.661 9.088,14.698 9.125 " fill="#373B4D" stroke="none" fill-rule="evenodd"></path></svg>