<svg width="24" height="24" viewBox="0 0 24 24" fill="none" xmlns="http://www.w3.org/2000/svg"><path d="M5.532 3.038 L 3.324 3.060 3.178 3.200 L 3.031 3.340 3.054 3.760 C 3.080 4.254,3.138 4.663,4.060 10.880 C 5.238 18.827,5.459 20.205,5.612 20.567 C 5.657 20.674,5.733 20.749,5.887 20.837 L 6.100 20.959 11.320 20.956 C 14.191 20.954,16.909 20.941,17.360 20.926 C 18.476 20.890,18.416 20.941,18.601 19.864 C 18.744 19.034,19.050 17.002,19.820 11.780 C 20.699 5.819,20.960 3.966,20.960 3.688 C 20.960 3.383,20.893 3.239,20.691 3.114 L 20.540 3.020 14.140 3.018 C 10.620 3.017,6.746 3.026,5.532 3.038 M13.393 9.066 L 14.720 9.093 14.720 9.210 C 14.720 9.340,14.285 12.302,14.038 13.855 C 13.951 14.402,13.880 14.856,13.880 14.865 C 13.880 14.873,13.038 14.880,12.010 14.880 L 10.140 14.880 9.649 12.010 C 9.379 10.431,9.159 9.117,9.159 9.090 C 9.160 9.032,11.130 9.021,13.393 9.066 " fill="#373B4D" stroke="none" fill-rule="evenodd"></path></svg>