<svg width="24" height="24" viewBox="0 0 24 24" fill="none" xmlns="http://www.w3.org/2000/svg"><path d="M3.560 3.070 C 3.333 3.082,3.284 3.100,3.170 3.210 C 2.939 3.433,2.888 3.003,4.220 11.980 C 5.085 17.807,5.391 19.736,5.545 20.340 C 5.613 20.605,5.737 20.765,5.968 20.884 C 6.112 20.958,6.275 20.960,11.308 20.957 C 14.164 20.956,16.874 20.941,17.330 20.925 C 18.460 20.885,18.419 20.919,18.605 19.843 C 18.729 19.127,19.278 15.489,19.917 11.140 C 20.742 5.530,20.960 3.967,20.960 3.649 C 20.960 3.418,20.863 3.221,20.701 3.121 C 20.571 3.040,20.529 3.040,12.195 3.048 C 7.589 3.052,3.703 3.062,3.560 3.070 M13.278 9.067 L 14.729 9.093 14.702 9.337 C 14.666 9.667,14.195 12.852,14.021 13.940 C 13.944 14.424,13.880 14.833,13.880 14.850 C 13.880 14.867,13.038 14.880,12.009 14.880 L 10.137 14.880 10.029 14.230 C 9.969 13.873,9.749 12.572,9.540 11.340 C 9.331 10.108,9.160 9.097,9.160 9.092 C 9.159 9.044,11.331 9.031,13.278 9.067 " fill="#373B4D" stroke="none" fill-rule="evenodd"></path></svg>