<svg width="24" height="24" viewBox="0 0 24 24" fill="none" xmlns="http://www.w3.org/2000/svg"><path d="M11.300 3.024 C 9.981 3.160,9.045 3.416,8.020 3.921 C 5.355 5.233,3.566 7.730,3.093 10.800 C 2.995 11.440,2.993 12.819,3.091 13.387 C 3.451 15.487,4.563 17.441,6.180 18.816 C 6.566 19.144,6.745 19.241,7.015 19.266 C 7.177 19.282,7.257 19.266,7.398 19.193 C 7.643 19.064,7.736 18.925,7.732 18.690 C 7.728 18.374,7.633 18.223,7.101 17.685 C 6.516 17.092,6.284 16.810,5.911 16.240 C 3.941 13.229,4.307 9.693,6.846 7.216 C 8.401 5.699,10.443 4.945,12.551 5.111 C 13.484 5.185,14.155 5.343,14.915 5.668 C 16.488 6.339,17.707 7.521,18.476 9.120 C 19.308 10.851,19.412 12.612,18.796 14.498 C 18.463 15.517,17.808 16.655,17.090 17.461 C 16.791 17.797,16.520 18.047,16.520 17.987 C 16.520 17.979,16.556 17.868,16.600 17.741 C 16.770 17.247,16.818 16.862,16.817 16.020 C 16.815 15.280,16.807 15.190,16.708 14.820 C 16.385 13.621,15.659 12.822,14.580 12.479 C 14.186 12.354,13.289 12.323,12.780 12.418 C 12.326 12.503,11.858 12.692,11.477 12.944 C 11.313 13.052,11.166 13.146,11.149 13.154 C 11.132 13.161,11.120 12.441,11.121 11.554 C 11.123 10.072,11.117 9.915,11.044 9.633 C 10.946 9.254,10.840 9.042,10.639 8.823 C 10.331 8.490,9.866 8.320,9.262 8.320 C 8.847 8.321,8.576 8.383,8.281 8.543 C 7.868 8.768,7.418 9.395,7.371 9.810 C 7.333 10.144,7.564 10.441,7.860 10.439 C 8.032 10.438,8.278 10.313,8.438 10.145 C 8.596 9.978,8.770 9.950,8.839 10.079 C 8.924 10.237,8.969 11.848,8.978 15.060 C 8.987 17.999,8.995 18.366,9.056 18.593 C 9.355 19.707,10.237 20.524,11.480 20.839 C 12.919 21.203,14.275 20.978,15.860 20.113 C 16.902 19.545,17.683 18.966,18.440 18.201 C 20.206 16.418,21.076 14.218,20.987 11.760 C 20.959 11.002,20.891 10.503,20.719 9.813 C 19.847 6.307,16.909 3.658,13.278 3.102 C 12.872 3.040,11.624 2.991,11.300 3.024 M13.968 14.570 C 14.205 14.679,14.411 14.870,14.519 15.080 C 14.860 15.742,14.822 17.051,14.438 17.875 C 14.080 18.644,13.558 18.968,12.680 18.964 C 11.998 18.960,11.512 18.784,11.252 18.445 C 11.090 18.235,11.046 18.077,11.016 17.600 C 10.984 17.109,11.052 16.522,11.184 16.153 C 11.480 15.320,12.155 14.665,12.891 14.498 C 13.247 14.417,13.702 14.447,13.968 14.570 " fill="#373B4D" stroke="none" fill-rule="evenodd"></path></svg>