<svg width="24" height="24" viewBox="0 0 24 24" fill="none" xmlns="http://www.w3.org/2000/svg"><path d="M11.080 3.064 C 9.520 3.258,8.238 3.718,7.026 4.519 C 4.886 5.933,3.475 8.226,3.099 10.900 C 2.849 12.680,3.130 14.303,3.978 15.980 C 4.434 16.881,4.984 17.627,5.767 18.405 C 6.395 19.029,6.849 19.312,7.148 19.266 C 7.662 19.186,7.859 18.785,7.610 18.326 C 7.550 18.215,7.293 17.895,7.040 17.616 C 6.255 16.752,5.788 16.091,5.401 15.300 C 4.713 13.891,4.518 12.317,4.840 10.771 C 5.323 8.452,7.280 6.301,9.633 5.500 C 11.074 5.010,12.838 4.998,14.340 5.468 C 15.106 5.707,16.092 6.269,16.736 6.832 C 17.835 7.792,18.742 9.367,19.038 10.826 C 19.157 11.416,19.158 12.942,19.039 13.527 C 18.772 14.837,18.026 16.328,17.074 17.456 C 16.749 17.841,16.625 17.958,16.584 17.917 C 16.573 17.906,16.611 17.727,16.669 17.519 C 16.770 17.155,16.774 17.097,16.777 16.080 L 16.780 15.020 16.648 14.640 C 16.236 13.457,15.495 12.739,14.412 12.473 C 14.139 12.406,13.943 12.387,13.540 12.388 C 12.776 12.391,12.298 12.514,11.608 12.882 C 11.400 12.993,11.220 13.073,11.207 13.060 C 11.164 13.018,11.127 12.090,11.122 10.980 C 11.120 10.386,11.099 9.820,11.077 9.721 C 10.963 9.226,10.605 8.734,10.223 8.547 C 9.904 8.390,9.615 8.347,9.069 8.373 C 8.655 8.393,8.572 8.410,8.389 8.508 C 7.900 8.768,7.378 9.468,7.382 9.859 C 7.384 10.097,7.506 10.318,7.675 10.389 C 7.855 10.464,8.034 10.415,8.381 10.196 C 8.649 10.027,8.783 10.000,8.814 10.110 C 8.866 10.293,8.882 10.773,8.921 13.320 C 8.968 16.451,9.024 18.305,9.081 18.605 C 9.138 18.905,9.366 19.352,9.635 19.691 C 10.032 20.190,10.575 20.536,11.380 20.803 C 11.769 20.932,11.802 20.936,12.580 20.952 C 13.517 20.970,13.785 20.937,14.460 20.714 C 15.379 20.412,16.654 19.701,17.500 19.022 C 19.684 17.265,20.874 15.013,20.987 12.420 C 21.077 10.361,20.368 8.136,19.107 6.520 C 18.995 6.377,18.723 6.073,18.502 5.845 C 17.073 4.369,15.274 3.425,13.352 3.142 C 12.941 3.082,11.372 3.028,11.080 3.064 M13.989 14.605 C 14.218 14.715,14.498 15.036,14.598 15.303 C 14.670 15.497,14.680 15.613,14.679 16.272 C 14.679 17.118,14.635 17.402,14.441 17.811 C 14.195 18.333,13.871 18.667,13.440 18.845 C 13.252 18.922,13.146 18.936,12.720 18.937 C 11.899 18.940,11.447 18.747,11.184 18.280 L 11.060 18.060 11.062 17.360 C 11.064 16.555,11.100 16.349,11.319 15.900 C 11.651 15.217,12.325 14.618,12.876 14.518 C 13.175 14.464,13.794 14.512,13.989 14.605 " fill="#373B4D" stroke="none" fill-rule="evenodd"></path></svg>