<svg width="24" height="24" viewBox="0 0 24 24" fill="none" xmlns="http://www.w3.org/2000/svg"><path d="M10.740 3.119 C 8.013 3.540,5.722 5.059,4.329 7.368 C 3.754 8.322,3.329 9.520,3.112 10.800 C 2.989 11.527,2.990 12.663,3.116 13.375 C 3.335 14.621,3.815 15.831,4.499 16.860 C 5.192 17.903,6.392 19.087,6.915 19.243 C 7.218 19.334,7.597 19.134,7.686 18.837 C 7.775 18.539,7.652 18.319,6.938 17.500 C 5.957 16.376,5.350 15.365,5.025 14.320 C 4.775 13.511,4.740 13.252,4.741 12.200 C 4.743 11.382,4.754 11.207,4.831 10.854 C 5.425 8.131,7.717 5.865,10.456 5.294 C 11.687 5.038,13.351 5.133,14.464 5.523 C 15.277 5.808,16.210 6.373,16.870 6.981 C 17.792 7.831,18.563 9.138,18.968 10.540 C 19.056 10.846,19.060 10.920,19.060 12.180 C 19.060 13.428,19.055 13.518,18.969 13.829 C 18.710 14.770,18.246 15.758,17.620 16.700 C 17.275 17.218,16.734 17.880,16.655 17.880 C 16.588 17.880,16.585 17.923,16.680 17.476 C 16.742 17.184,16.765 16.876,16.784 16.100 L 16.809 15.100 16.680 14.740 C 16.261 13.571,15.604 12.866,14.633 12.542 C 14.347 12.447,14.275 12.440,13.573 12.441 C 12.663 12.441,12.504 12.473,11.785 12.801 C 11.496 12.932,11.247 13.040,11.233 13.040 C 11.191 13.040,11.162 12.547,11.121 11.140 C 11.095 10.284,11.063 9.740,11.027 9.593 C 10.918 9.144,10.478 8.640,10.058 8.483 C 9.871 8.413,9.746 8.400,9.245 8.400 C 8.666 8.400,8.647 8.403,8.410 8.521 C 8.125 8.664,7.668 9.123,7.528 9.410 C 7.355 9.761,7.363 10.062,7.549 10.283 C 7.646 10.398,7.670 10.407,7.845 10.390 C 7.953 10.380,8.181 10.302,8.372 10.210 C 8.571 10.115,8.730 10.061,8.760 10.080 C 8.837 10.127,8.871 10.899,8.919 13.680 C 8.968 16.502,9.023 18.137,9.083 18.520 C 9.204 19.289,9.910 20.138,10.780 20.560 C 11.418 20.869,11.864 20.958,12.781 20.959 C 13.816 20.961,14.479 20.784,15.620 20.200 C 16.698 19.650,17.585 19.017,18.340 18.259 C 19.791 16.803,20.600 15.229,20.906 13.268 C 21.001 12.654,21.001 11.464,20.906 10.846 C 20.573 8.688,19.563 6.762,18.070 5.436 C 16.496 4.039,14.728 3.248,12.900 3.124 C 11.670 3.041,11.250 3.040,10.740 3.119 M14.079 14.679 C 14.262 14.797,14.444 15.013,14.574 15.268 C 14.629 15.375,14.640 15.541,14.640 16.290 C 14.640 17.285,14.609 17.480,14.389 17.896 C 14.210 18.233,13.771 18.688,13.519 18.796 C 13.245 18.914,12.820 18.961,12.408 18.919 C 11.761 18.852,11.467 18.697,11.200 18.280 L 11.070 18.077 11.089 17.269 C 11.105 16.575,11.120 16.426,11.193 16.224 C 11.463 15.476,12.191 14.709,12.778 14.555 C 12.845 14.537,13.123 14.531,13.396 14.541 C 13.863 14.558,13.902 14.566,14.079 14.679 " fill="#373B4D" stroke="none" fill-rule="evenodd"></path></svg>