<svg width="24" height="24" viewBox="0 0 24 24" fill="none" xmlns="http://www.w3.org/2000/svg"><path d="M11.000 3.068 C 8.707 3.314,6.493 4.508,5.087 6.258 C 3.868 7.775,3.185 9.521,3.034 11.510 C 2.920 13.004,3.203 14.414,3.900 15.832 C 4.391 16.830,4.930 17.579,5.736 18.381 C 6.609 19.250,7.039 19.436,7.487 19.140 C 7.677 19.014,7.732 18.884,7.710 18.612 C 7.689 18.350,7.611 18.236,7.016 17.596 C 5.693 16.176,4.963 14.756,4.739 13.167 C 4.605 12.218,4.697 11.103,4.985 10.191 C 5.710 7.895,7.768 5.957,10.133 5.343 C 11.303 5.039,12.797 5.045,13.980 5.359 C 15.968 5.887,17.547 7.223,18.477 9.166 C 18.758 9.752,18.928 10.254,19.050 10.858 C 19.127 11.237,19.140 11.426,19.140 12.180 C 19.140 12.948,19.128 13.119,19.045 13.520 C 18.769 14.868,18.074 16.274,17.124 17.408 C 16.784 17.813,16.591 17.993,16.569 17.926 C 16.562 17.905,16.592 17.764,16.637 17.613 C 16.769 17.170,16.799 16.867,16.800 15.994 C 16.800 15.230,16.793 15.143,16.698 14.814 C 16.466 14.002,16.057 13.374,15.487 12.951 C 14.464 12.193,12.804 12.171,11.562 12.899 C 11.392 12.998,11.235 13.080,11.213 13.080 C 11.157 13.080,11.120 12.210,11.120 10.900 C 11.120 9.942,11.111 9.787,11.045 9.595 C 10.805 8.898,10.437 8.533,9.839 8.400 C 9.704 8.370,9.424 8.357,9.119 8.366 C 8.643 8.381,8.609 8.387,8.372 8.515 C 7.940 8.748,7.563 9.191,7.417 9.636 C 7.359 9.814,7.357 9.871,7.398 10.010 C 7.466 10.237,7.544 10.344,7.681 10.401 C 7.859 10.474,8.045 10.419,8.382 10.191 C 8.716 9.965,8.786 9.964,8.850 10.183 C 8.869 10.247,8.901 11.533,8.922 13.040 C 8.979 17.065,9.020 18.410,9.098 18.696 C 9.237 19.207,9.609 19.760,10.066 20.138 C 10.490 20.488,11.201 20.801,11.849 20.924 C 12.235 20.997,13.437 20.985,13.799 20.904 C 15.245 20.582,16.954 19.609,18.233 18.380 C 19.540 17.125,20.323 15.804,20.742 14.150 C 21.257 12.121,20.979 9.835,19.981 7.886 C 18.627 5.241,15.848 3.351,12.920 3.082 C 12.490 3.043,11.315 3.034,11.000 3.068 M14.043 14.626 C 14.305 14.773,14.526 15.049,14.626 15.356 C 14.687 15.539,14.700 15.708,14.700 16.280 C 14.700 17.105,14.639 17.433,14.396 17.918 C 13.962 18.786,13.252 19.098,12.158 18.903 C 11.584 18.801,11.222 18.525,11.097 18.094 C 11.008 17.789,11.035 16.656,11.140 16.320 C 11.397 15.491,12.054 14.775,12.780 14.534 C 12.886 14.499,13.091 14.485,13.383 14.493 C 13.791 14.504,13.844 14.514,14.043 14.626 " fill="#373B4D" stroke="none" fill-rule="evenodd"></path></svg>