<svg width="24" height="24" viewBox="0 0 24 24" fill="none" xmlns="http://www.w3.org/2000/svg"><path d="M11.380 3.026 C 11.314 3.034,11.089 3.059,10.880 3.083 C 8.722 3.329,6.663 4.417,5.249 6.060 C 3.705 7.854,2.910 10.180,3.020 12.580 C 3.117 14.671,4.143 16.849,5.785 18.444 C 6.665 19.300,7.110 19.461,7.557 19.088 C 7.679 18.986,7.696 18.948,7.711 18.734 C 7.736 18.397,7.663 18.277,7.041 17.623 C 6.253 16.794,5.872 16.261,5.419 15.359 C 3.941 12.411,4.674 9.021,7.260 6.848 C 8.935 5.441,10.945 4.874,13.160 5.186 C 15.342 5.493,17.158 6.756,18.272 8.740 C 19.227 10.442,19.434 12.378,18.861 14.273 C 18.540 15.337,17.923 16.461,17.163 17.368 C 16.876 17.710,16.564 18.017,16.534 17.987 C 16.528 17.981,16.567 17.839,16.621 17.670 C 16.772 17.193,16.808 16.883,16.810 16.020 C 16.812 15.330,16.801 15.176,16.728 14.900 C 16.482 13.965,16.027 13.291,15.336 12.840 C 14.947 12.586,14.575 12.456,14.076 12.398 C 13.083 12.282,12.211 12.471,11.449 12.967 C 11.311 13.057,11.185 13.118,11.169 13.102 C 11.153 13.086,11.130 12.323,11.118 11.407 L 11.097 9.740 10.989 9.442 C 10.796 8.904,10.482 8.589,9.980 8.429 C 9.586 8.304,8.844 8.306,8.520 8.434 C 8.209 8.557,7.948 8.762,7.734 9.051 C 7.393 9.512,7.302 9.837,7.432 10.132 C 7.608 10.528,7.968 10.541,8.419 10.166 C 8.738 9.901,8.837 9.943,8.884 10.366 C 8.902 10.528,8.935 12.388,8.957 14.500 C 9.003 18.787,8.985 18.544,9.298 19.182 C 9.731 20.065,10.561 20.644,11.768 20.906 C 12.187 20.997,13.282 21.007,13.700 20.924 C 14.622 20.742,15.660 20.287,16.698 19.610 C 17.973 18.780,19.073 17.663,19.798 16.463 C 21.640 13.414,21.333 9.309,19.048 6.434 C 17.573 4.578,15.234 3.284,12.988 3.081 C 12.519 3.039,11.557 3.006,11.380 3.026 M13.884 14.545 C 13.986 14.577,14.143 14.667,14.235 14.745 C 14.600 15.057,14.735 15.485,14.731 16.320 C 14.726 17.323,14.470 18.059,13.959 18.537 C 13.610 18.864,13.180 18.986,12.508 18.949 C 11.702 18.904,11.229 18.617,11.077 18.079 C 11.003 17.817,11.015 16.852,11.097 16.480 C 11.320 15.466,12.159 14.594,13.020 14.482 C 13.313 14.444,13.638 14.468,13.884 14.545 " fill="#373B4D" stroke="none" fill-rule="evenodd"></path></svg>