<svg width="24" height="24" viewBox="0 0 24 24" fill="none" xmlns="http://www.w3.org/2000/svg"><path d="M10.941 3.086 C 7.476 3.530,4.648 5.815,3.547 9.060 C 2.779 11.325,2.836 13.361,3.724 15.433 C 4.214 16.575,4.853 17.492,5.806 18.421 C 6.542 19.138,6.886 19.337,7.234 19.245 C 7.483 19.180,7.679 18.984,7.707 18.772 C 7.747 18.477,7.621 18.273,6.885 17.440 C 5.767 16.176,5.105 14.949,4.843 13.658 C 4.536 12.143,4.716 10.616,5.358 9.300 C 6.344 7.277,8.328 5.715,10.463 5.283 C 11.937 4.984,13.650 5.139,14.882 5.681 C 16.165 6.245,17.134 7.049,17.886 8.174 C 18.441 9.004,18.899 10.072,19.045 10.880 C 19.129 11.341,19.119 13.164,19.030 13.567 C 18.750 14.843,17.972 16.378,17.045 17.485 C 16.582 18.038,16.534 18.038,16.680 17.480 C 16.742 17.239,16.763 16.979,16.785 16.159 L 16.812 15.137 16.701 14.799 C 16.298 13.569,15.619 12.844,14.560 12.514 C 14.292 12.430,14.184 12.420,13.540 12.421 C 12.679 12.422,12.450 12.473,11.700 12.837 L 11.220 13.069 11.190 12.930 C 11.173 12.854,11.144 12.105,11.126 11.266 C 11.088 9.534,11.082 9.497,10.746 9.027 C 10.548 8.748,10.357 8.599,10.035 8.470 C 9.849 8.395,9.743 8.384,9.240 8.385 C 8.744 8.386,8.634 8.398,8.480 8.468 C 8.117 8.632,7.697 9.059,7.495 9.467 C 7.332 9.800,7.370 10.132,7.595 10.336 C 7.739 10.466,7.947 10.433,8.356 10.215 C 8.701 10.032,8.727 10.024,8.778 10.092 C 8.853 10.193,8.875 10.719,8.921 13.560 C 8.974 16.852,9.028 18.359,9.102 18.655 C 9.296 19.429,9.979 20.197,10.815 20.581 C 11.461 20.877,11.704 20.929,12.560 20.950 C 13.732 20.978,14.275 20.857,15.394 20.317 C 17.167 19.462,18.500 18.340,19.529 16.840 C 20.905 14.832,21.336 12.264,20.704 9.840 C 20.343 8.457,19.655 7.127,18.811 6.179 C 17.388 4.582,15.532 3.522,13.559 3.180 C 13.371 3.147,12.804 3.103,12.299 3.081 C 11.274 3.037,11.325 3.037,10.941 3.086 M14.047 14.650 C 14.249 14.768,14.416 14.959,14.565 15.240 C 14.657 15.414,14.660 15.449,14.659 16.300 C 14.657 17.285,14.631 17.432,14.368 17.940 C 14.192 18.280,13.817 18.668,13.540 18.797 C 13.275 18.921,12.835 18.967,12.376 18.920 C 11.747 18.854,11.459 18.701,11.201 18.296 L 11.080 18.104 11.080 17.361 C 11.080 16.506,11.116 16.315,11.362 15.840 C 11.655 15.279,12.156 14.787,12.633 14.594 C 12.789 14.531,12.906 14.521,13.341 14.530 C 13.825 14.541,13.875 14.549,14.047 14.650 " fill="#373B4D" stroke="none" fill-rule="evenodd"></path></svg>