<svg width="24" height="24" viewBox="0 0 24 24" fill="none" xmlns="http://www.w3.org/2000/svg"><path d="M4.914 3.935 C 4.448 4.247,3.968 4.789,3.716 5.289 L 3.600 5.518 3.601 12.009 L 3.601 18.500 3.764 18.800 C 4.127 19.468,4.625 19.949,5.316 20.298 L 5.531 20.407 11.756 20.388 C 15.921 20.375,18.097 20.354,18.334 20.324 C 18.752 20.272,18.982 20.168,19.369 19.855 C 19.741 19.555,20.024 19.203,20.217 18.800 L 20.380 18.460 20.390 12.022 L 20.401 5.583 20.199 5.171 C 20.030 4.825,19.945 4.704,19.669 4.426 C 19.488 4.243,19.241 4.029,19.120 3.950 L 18.900 3.807 12.040 3.782 L 5.180 3.758 4.914 3.935 M16.800 12.000 L 16.800 16.800 14.400 15.600 L 12.000 14.400 9.600 15.600 L 7.200 16.800 7.200 12.000 L 7.200 7.200 12.000 7.200 L 16.800 7.200 16.800 12.000 " fill="#373B4D" stroke="none" fill-rule="evenodd"></path></svg>