<svg width="24" height="24" viewBox="0 0 24 24" fill="none" xmlns="http://www.w3.org/2000/svg"><path d="M4.994 3.881 C 4.543 4.133,3.994 4.737,3.718 5.284 L 3.600 5.518 3.600 12.000 L 3.600 18.482 3.725 18.731 C 4.069 19.418,4.588 19.930,5.309 20.295 L 5.517 20.400 11.089 20.399 C 16.852 20.398,18.345 20.371,18.703 20.263 C 19.106 20.141,19.745 19.597,20.050 19.117 C 20.126 18.998,20.236 18.780,20.294 18.633 L 20.400 18.366 20.400 11.987 L 20.400 5.608 20.275 5.314 C 20.206 5.152,20.088 4.925,20.011 4.810 C 19.850 4.566,19.297 4.038,19.052 3.894 L 18.884 3.795 12.052 3.775 L 5.220 3.755 4.994 3.881 M16.800 12.000 L 16.800 16.800 14.400 15.600 L 12.000 14.400 9.600 15.600 L 7.200 16.800 7.200 12.000 L 7.200 7.200 12.000 7.200 L 16.800 7.200 16.800 12.000 " fill="#373B4D" stroke="none" fill-rule="evenodd"></path></svg>