<svg width="24" height="24" viewBox="0 0 24 24" fill="none" xmlns="http://www.w3.org/2000/svg"><path d="M5.317 3.756 C 4.863 3.821,4.201 4.406,3.840 5.061 L 3.620 5.460 3.610 11.970 L 3.599 18.481 3.725 18.730 C 4.121 19.515,4.534 19.924,5.297 20.285 L 5.540 20.400 11.620 20.399 C 15.057 20.399,17.897 20.382,18.154 20.361 C 18.689 20.317,18.946 20.216,19.360 19.886 C 19.843 19.500,20.101 19.153,20.305 18.612 L 20.400 18.358 20.400 11.998 L 20.400 5.637 20.280 5.327 C 20.121 4.913,19.985 4.707,19.647 4.369 C 19.319 4.042,19.084 3.871,18.859 3.796 C 18.730 3.753,17.452 3.742,12.100 3.736 C 8.470 3.732,5.417 3.741,5.317 3.756 M16.800 12.000 L 16.800 16.800 14.400 15.600 L 12.000 14.400 9.600 15.600 L 7.200 16.800 7.200 12.000 L 7.200 7.200 12.000 7.200 L 16.800 7.200 16.800 12.000 " fill="#373B4D" stroke="none" fill-rule="evenodd"></path></svg>