<svg width="24" height="24" viewBox="0 0 24 24" fill="none" xmlns="http://www.w3.org/2000/svg"><path d="M5.654 4.884 C 4.892 4.952,3.716 5.243,2.868 5.574 L 2.420 5.749 2.410 11.754 L 2.400 17.759 2.610 17.674 C 2.725 17.627,3.126 17.485,3.500 17.358 C 4.648 16.967,5.452 16.856,6.857 16.892 C 8.674 16.939,9.887 17.275,11.527 18.184 L 11.997 18.445 12.589 18.124 C 14.034 17.341,15.152 16.992,16.460 16.919 C 18.448 16.807,19.507 16.950,21.045 17.539 C 21.311 17.641,21.541 17.713,21.555 17.699 C 21.569 17.685,21.580 15.009,21.580 11.753 L 21.580 5.833 21.489 5.759 C 21.241 5.559,19.953 5.147,19.100 4.995 C 18.639 4.913,18.452 4.903,17.440 4.902 C 16.191 4.901,15.798 4.941,14.947 5.157 C 14.549 5.258,13.767 5.523,13.350 5.698 L 13.200 5.761 13.197 8.291 C 13.193 11.647,13.141 14.659,13.084 14.845 C 13.027 15.028,12.665 15.375,12.410 15.490 C 12.159 15.603,11.841 15.603,11.590 15.490 C 11.331 15.374,10.972 15.027,10.919 14.845 C 10.855 14.619,10.834 13.632,10.806 9.543 L 10.780 5.746 10.500 5.631 C 9.362 5.163,8.402 4.958,6.980 4.881 C 6.183 4.837,6.173 4.837,5.654 4.884 " fill="#373B4D" stroke="none" fill-rule="evenodd"></path></svg>