<svg width="24" height="24" viewBox="0 0 24 24" fill="none" xmlns="http://www.w3.org/2000/svg"><path d="M5.791 4.841 C 4.754 4.934,3.684 5.208,2.700 5.633 L 2.420 5.754 2.410 11.756 L 2.400 17.758 2.490 17.723 C 2.539 17.703,2.724 17.626,2.900 17.550 C 4.177 17.001,5.700 16.752,7.225 16.843 C 8.787 16.936,10.207 17.383,11.629 18.229 L 11.998 18.449 12.518 18.142 C 14.018 17.259,15.593 16.830,17.340 16.830 C 18.881 16.829,19.960 17.056,21.450 17.697 L 21.600 17.761 21.590 11.758 L 21.580 5.754 21.173 5.580 C 20.395 5.247,19.580 5.026,18.660 4.898 C 18.096 4.819,16.857 4.808,16.280 4.877 C 15.389 4.983,14.333 5.268,13.540 5.615 L 13.220 5.755 13.199 10.228 L 13.178 14.700 13.041 14.954 C 12.569 15.830,11.397 15.804,10.931 14.909 L 10.823 14.700 10.801 10.227 L 10.780 5.754 10.373 5.580 C 9.605 5.252,8.776 5.025,7.900 4.904 C 7.340 4.827,6.294 4.795,5.791 4.841 " fill="#373B4D" stroke="none" fill-rule="evenodd"></path></svg>