<svg width="24" height="24" viewBox="0 0 24 24" fill="none" xmlns="http://www.w3.org/2000/svg"><path d="M5.588 4.899 C 4.656 5.016,3.355 5.358,2.550 5.698 L 2.400 5.761 2.400 11.759 L 2.400 17.756 2.670 17.654 C 3.409 17.372,4.301 17.109,4.811 17.022 C 5.456 16.911,6.378 16.870,7.139 16.917 C 8.815 17.020,9.662 17.250,11.153 18.005 L 12.005 18.437 12.833 18.024 C 14.495 17.193,15.149 17.011,16.803 16.917 C 18.349 16.829,19.338 16.968,20.905 17.494 L 21.551 17.711 21.578 15.706 C 21.593 14.602,21.599 11.927,21.593 9.760 L 21.580 5.820 21.340 5.691 C 21.064 5.543,20.354 5.299,19.660 5.113 L 19.180 4.985 17.538 4.970 C 15.999 4.956,15.870 4.960,15.487 5.038 C 15.002 5.137,14.326 5.339,13.685 5.575 L 13.220 5.746 13.192 9.063 C 13.155 13.369,13.114 14.692,13.008 14.931 C 12.929 15.109,12.694 15.330,12.440 15.464 C 12.247 15.566,11.756 15.568,11.554 15.467 C 11.375 15.378,11.059 15.072,10.972 14.904 C 10.878 14.724,10.843 13.499,10.809 9.301 L 10.780 5.743 10.340 5.569 C 9.471 5.226,8.654 5.042,7.560 4.941 C 6.571 4.850,6.060 4.839,5.588 4.899 " fill="#373B4D" stroke="none" fill-rule="evenodd"></path></svg>