<svg width="24" height="24" viewBox="0 0 24 24" fill="none" xmlns="http://www.w3.org/2000/svg"><path d="M5.780 4.866 C 4.850 4.940,3.678 5.236,2.660 5.654 L 2.420 5.753 2.410 11.757 L 2.400 17.761 2.550 17.696 C 2.832 17.573,3.919 17.202,4.230 17.123 C 5.059 16.911,6.149 16.821,7.153 16.880 C 8.852 16.981,10.047 17.345,11.649 18.247 L 11.998 18.444 12.478 18.179 C 13.714 17.500,14.500 17.208,15.728 16.974 C 16.170 16.889,18.160 16.851,18.665 16.918 C 19.486 17.026,20.359 17.255,21.098 17.557 C 21.317 17.647,21.520 17.720,21.548 17.720 C 21.590 17.720,21.600 16.616,21.600 11.823 C 21.600 8.248,21.585 5.886,21.562 5.827 C 21.533 5.749,21.438 5.694,21.112 5.569 C 19.742 5.040,18.822 4.869,17.360 4.870 C 15.982 4.871,14.977 5.060,13.720 5.553 L 13.220 5.750 13.192 10.233 C 13.161 15.267,13.194 14.799,12.847 15.170 C 12.330 15.722,11.670 15.722,11.153 15.170 C 10.808 14.801,10.841 15.267,10.809 10.232 L 10.780 5.746 10.500 5.631 C 9.755 5.323,8.929 5.089,8.206 4.981 C 7.544 4.882,6.318 4.824,5.780 4.866 " fill="#373B4D" stroke="none" fill-rule="evenodd"></path></svg>