<svg width="24" height="24" viewBox="0 0 24 24" fill="none" xmlns="http://www.w3.org/2000/svg"><path d="M4.680 5.077 C 4.083 5.216,3.042 5.514,2.680 5.650 L 2.420 5.748 2.410 11.749 L 2.400 17.749 2.975 17.555 C 3.291 17.448,3.835 17.285,4.185 17.191 L 4.820 17.021 6.500 17.021 C 7.954 17.021,8.234 17.031,8.580 17.094 C 9.325 17.231,10.041 17.499,11.410 18.153 L 11.999 18.434 12.834 18.041 C 14.677 17.173,15.134 17.052,16.905 16.962 C 18.263 16.893,19.151 17.005,20.698 17.439 C 21.093 17.549,21.446 17.640,21.483 17.640 C 21.545 17.640,21.553 17.492,21.578 15.870 C 21.593 14.897,21.599 12.237,21.592 9.960 L 21.580 5.820 21.341 5.706 C 21.210 5.644,20.697 5.458,20.201 5.294 L 19.300 4.995 17.280 5.024 L 15.260 5.052 14.240 5.396 L 13.220 5.740 13.212 6.320 C 13.141 11.276,13.063 14.275,12.995 14.658 C 12.899 15.206,12.625 15.454,12.056 15.507 C 11.736 15.538,11.552 15.473,11.309 15.246 C 11.045 14.999,11.004 14.906,10.961 14.449 C 10.924 14.063,10.868 11.433,10.817 7.706 L 10.790 5.793 10.669 5.719 C 10.489 5.610,9.646 5.341,9.112 5.222 C 8.224 5.026,7.896 4.995,6.500 4.977 L 5.180 4.961 4.680 5.077 " fill="#373B4D" stroke="none" fill-rule="evenodd"></path></svg>