<svg width="24" height="24" viewBox="0 0 24 24" fill="none" xmlns="http://www.w3.org/2000/svg"><path d="M5.660 4.887 C 4.872 4.966,3.637 5.273,2.820 5.593 L 2.420 5.750 2.410 11.753 L 2.400 17.757 2.670 17.653 C 3.265 17.424,4.157 17.148,4.592 17.058 C 5.752 16.818,7.416 16.835,8.750 17.102 C 9.615 17.276,10.451 17.600,11.481 18.164 L 11.985 18.439 12.883 17.986 C 14.490 17.175,15.307 16.962,17.060 16.897 C 18.451 16.845,19.430 16.988,20.744 17.436 L 21.547 17.710 21.574 15.848 C 21.588 14.824,21.600 12.155,21.600 9.916 L 21.600 5.845 21.482 5.761 C 21.204 5.563,20.190 5.226,19.298 5.034 C 18.882 4.945,18.786 4.940,17.380 4.941 C 15.993 4.942,15.874 4.948,15.480 5.033 C 14.932 5.152,14.253 5.355,13.680 5.573 L 13.220 5.747 13.191 9.364 C 13.176 11.353,13.147 13.397,13.127 13.906 C 13.087 14.947,13.078 14.978,12.750 15.259 C 12.382 15.574,11.939 15.653,11.563 15.472 C 11.308 15.349,10.978 15.010,10.924 14.816 C 10.865 14.603,10.835 13.181,10.805 9.163 L 10.780 5.746 10.500 5.631 C 9.388 5.173,8.412 4.970,6.900 4.881 C 6.145 4.836,6.164 4.836,5.660 4.887 " fill="#373B4D" stroke="none" fill-rule="evenodd"></path></svg>