<svg width="24" height="24" viewBox="0 0 24 24" fill="none" xmlns="http://www.w3.org/2000/svg"><path d="M5.274 4.960 C 4.788 5.019,3.301 5.414,2.680 5.650 L 2.420 5.748 2.410 11.749 L 2.400 17.751 2.910 17.573 C 3.449 17.385,4.234 17.168,4.800 17.052 C 5.082 16.993,5.358 16.981,6.420 16.981 C 8.702 16.979,9.210 17.097,11.349 18.122 L 11.998 18.433 12.909 18.002 C 14.678 17.165,15.093 17.055,16.840 16.958 C 18.317 16.876,19.127 16.981,20.820 17.475 C 21.260 17.604,21.514 17.660,21.540 17.635 C 21.566 17.610,21.585 15.539,21.594 11.722 L 21.609 5.848 21.511 5.784 C 21.369 5.690,20.675 5.436,19.920 5.200 L 19.260 4.993 17.280 5.020 L 15.300 5.046 14.260 5.393 L 13.220 5.740 13.193 7.820 C 13.160 10.444,13.085 13.624,13.041 14.290 C 13.003 14.866,12.931 15.072,12.698 15.277 C 12.428 15.513,11.861 15.594,11.557 15.438 C 11.352 15.334,11.117 15.099,11.027 14.909 C 10.926 14.696,10.893 13.747,10.839 9.460 C 10.814 7.458,10.788 5.800,10.780 5.776 C 10.765 5.723,10.111 5.479,9.620 5.342 C 9.078 5.192,8.313 5.048,7.820 5.004 C 7.209 4.949,5.595 4.922,5.274 4.960 " fill="#373B4D" stroke="none" fill-rule="evenodd"></path></svg>