<svg width="24" height="24" viewBox="0 0 24 24" fill="none" xmlns="http://www.w3.org/2000/svg"><path d="M5.180 4.960 C 4.314 5.116,3.164 5.439,2.550 5.698 L 2.400 5.761 2.400 11.758 L 2.400 17.754 2.730 17.631 C 3.233 17.443,4.134 17.170,4.538 17.083 C 5.172 16.945,5.740 16.908,6.796 16.932 C 8.639 16.975,9.432 17.170,11.092 17.988 L 12.004 18.438 12.632 18.124 C 13.862 17.509,14.536 17.242,15.220 17.101 C 16.135 16.912,17.916 16.851,18.819 16.978 C 19.388 17.058,20.298 17.287,21.024 17.533 L 21.547 17.710 21.574 16.365 C 21.588 15.625,21.600 12.954,21.600 10.429 L 21.600 5.839 21.470 5.759 C 21.250 5.624,20.535 5.364,19.862 5.174 L 19.220 4.992 17.460 4.986 C 15.780 4.980,15.684 4.984,15.340 5.067 C 14.860 5.183,14.155 5.400,13.640 5.592 L 13.220 5.748 13.212 6.944 C 13.193 9.629,13.116 13.930,13.079 14.374 C 13.027 15.009,12.903 15.219,12.440 15.461 C 12.249 15.561,11.758 15.562,11.550 15.463 C 11.343 15.364,10.978 14.961,10.944 14.794 C 10.886 14.511,10.843 12.643,10.816 9.264 L 10.787 5.752 10.604 5.673 C 9.462 5.182,8.131 4.930,6.520 4.898 C 5.745 4.883,5.559 4.892,5.180 4.960 " fill="#373B4D" stroke="none" fill-rule="evenodd"></path></svg>