<svg width="24" height="24" viewBox="0 0 24 24" fill="none" xmlns="http://www.w3.org/2000/svg"><path d="M5.920 3.716 C 5.340 3.736,5.196 3.753,5.080 3.816 C 4.504 4.128,4.093 4.548,3.812 5.114 L 3.620 5.500 3.610 11.987 L 3.599 18.475 3.800 18.867 C 4.137 19.527,4.491 19.882,5.120 20.192 L 5.500 20.380 11.919 20.390 C 19.062 20.402,18.442 20.425,19.017 20.126 C 19.333 19.963,19.840 19.492,20.036 19.182 C 20.104 19.073,20.214 18.844,20.280 18.673 L 20.400 18.363 20.400 12.000 L 20.400 5.637 20.280 5.327 C 20.214 5.156,20.104 4.928,20.036 4.819 C 19.885 4.582,19.451 4.144,19.193 3.968 C 18.794 3.696,19.177 3.711,12.580 3.701 C 9.302 3.696,6.305 3.703,5.920 3.716 M16.800 12.000 L 16.800 16.800 14.400 15.600 L 12.000 14.400 9.600 15.600 L 7.200 16.800 7.200 12.000 L 7.200 7.200 12.000 7.200 L 16.800 7.200 16.800 12.000 " fill="#373B4D" stroke="none" fill-rule="evenodd"></path></svg>