<svg width="24" height="24" viewBox="0 0 24 24" fill="none" xmlns="http://www.w3.org/2000/svg"><path d="M4.847 4.000 C 4.359 4.367,3.933 4.863,3.686 5.348 L 3.600 5.517 3.600 12.017 L 3.600 18.516 3.722 18.723 C 4.184 19.508,4.636 19.953,5.320 20.301 L 5.540 20.412 11.700 20.386 C 15.088 20.372,18.027 20.343,18.232 20.323 C 19.045 20.242,19.730 19.708,20.234 18.762 L 20.400 18.451 20.400 12.000 L 20.400 5.550 20.210 5.188 C 19.993 4.775,19.540 4.263,19.142 3.982 L 18.900 3.811 12.032 3.786 L 5.163 3.761 4.847 4.000 M16.800 12.000 L 16.800 16.800 14.400 15.600 L 12.000 14.400 9.600 15.600 L 7.200 16.800 7.200 12.000 L 7.200 7.200 12.000 7.200 L 16.800 7.200 16.800 12.000 " fill="#373B4D" stroke="none" fill-rule="evenodd"></path></svg>