<svg width="24" height="24" viewBox="0 0 24 24" fill="none" xmlns="http://www.w3.org/2000/svg"><path d="M4.380 5.158 C 3.572 5.365,2.797 5.594,2.550 5.698 L 2.400 5.761 2.400 11.756 L 2.400 17.751 3.110 17.519 C 3.501 17.392,4.033 17.231,4.292 17.162 L 4.765 17.035 6.652 17.049 L 8.540 17.063 9.010 17.191 C 9.589 17.348,10.226 17.601,11.231 18.072 L 12.002 18.434 12.771 18.072 C 14.116 17.440,14.702 17.227,15.431 17.103 C 16.309 16.954,17.927 16.914,18.748 17.022 C 19.332 17.098,19.726 17.183,20.711 17.445 C 21.136 17.558,21.496 17.638,21.511 17.622 C 21.569 17.564,21.593 15.662,21.596 10.811 L 21.600 5.841 21.395 5.738 C 21.283 5.681,20.766 5.491,20.247 5.316 L 19.303 4.999 17.281 5.026 L 15.259 5.053 14.239 5.396 L 13.220 5.740 13.174 8.460 C 13.119 11.707,13.048 14.150,12.998 14.554 C 12.944 14.986,12.801 15.230,12.520 15.369 C 12.259 15.499,11.924 15.546,11.696 15.484 C 11.493 15.430,11.184 15.164,11.076 14.952 C 10.943 14.691,10.917 13.970,10.816 7.487 L 10.789 5.795 10.696 5.734 C 10.576 5.655,9.897 5.425,9.406 5.297 C 8.648 5.099,8.153 5.036,7.060 4.999 C 5.219 4.937,5.247 4.935,4.380 5.158 " fill="#373B4D" stroke="none" fill-rule="evenodd"></path></svg>