<svg width="24" height="24" viewBox="0 0 24 24" fill="none" xmlns="http://www.w3.org/2000/svg"><path d="M6.400 3.639 C 5.415 3.661,5.372 3.666,5.133 3.767 C 4.470 4.049,3.936 4.622,3.717 5.285 L 3.620 5.580 3.620 12.000 L 3.620 18.420 3.717 18.715 C 3.951 19.425,4.575 20.049,5.285 20.283 L 5.580 20.380 12.000 20.380 L 18.420 20.380 18.715 20.283 C 19.425 20.049,20.049 19.425,20.283 18.715 L 20.380 18.420 20.380 12.000 L 20.380 5.580 20.283 5.285 C 20.057 4.600,19.453 3.977,18.780 3.737 C 18.616 3.678,18.383 3.660,17.480 3.637 C 16.198 3.603,7.896 3.605,6.400 3.639 M16.800 12.000 L 16.800 16.800 14.400 15.600 L 12.000 14.400 9.600 15.600 L 7.200 16.800 7.200 12.000 L 7.200 7.200 12.000 7.200 L 16.800 7.200 16.800 12.000 " fill="#373B4D" stroke="none" fill-rule="evenodd"></path></svg>