<svg width="24" height="24" viewBox="0 0 24 24" fill="none" xmlns="http://www.w3.org/2000/svg"><path d="M4.898 3.953 C 4.430 4.282,3.946 4.833,3.705 5.309 L 3.600 5.517 3.600 12.010 L 3.600 18.502 3.779 18.816 C 4.171 19.505,4.640 19.957,5.320 20.301 L 5.540 20.412 11.760 20.388 C 15.806 20.372,18.099 20.349,18.320 20.321 C 18.742 20.267,19.040 20.129,19.420 19.808 C 19.768 19.516,19.993 19.227,20.223 18.781 L 20.400 18.437 20.400 11.993 L 20.400 5.550 20.191 5.150 C 20.024 4.831,19.914 4.682,19.650 4.418 C 19.468 4.236,19.225 4.025,19.110 3.949 L 18.900 3.812 12.038 3.785 L 5.175 3.758 4.898 3.953 M16.800 12.000 L 16.800 16.800 14.400 15.600 L 12.000 14.400 9.600 15.600 L 7.200 16.800 7.200 12.000 L 7.200 7.200 12.000 7.200 L 16.800 7.200 16.800 12.000 " fill="#373B4D" stroke="none" fill-rule="evenodd"></path></svg>