<svg width="24" height="24" viewBox="0 0 24 24" fill="none" xmlns="http://www.w3.org/2000/svg"><path d="M5.689 3.080 L 5.118 3.107 4.749 3.292 C 3.942 3.695,3.426 4.292,3.104 5.192 L 3.000 5.485 3.001 12.032 L 3.002 18.580 3.157 18.951 C 3.382 19.492,3.541 19.738,3.900 20.101 C 4.257 20.461,4.665 20.726,5.049 20.846 C 5.438 20.967,6.821 20.998,11.940 20.997 C 16.815 20.997,18.506 20.964,18.900 20.860 C 19.266 20.764,19.734 20.466,20.100 20.097 C 20.449 19.746,20.610 19.503,20.831 18.993 L 20.975 18.660 20.992 13.240 C 21.010 7.181,20.979 5.476,20.843 5.039 C 20.737 4.696,20.346 4.106,20.045 3.834 C 19.790 3.604,19.393 3.353,19.040 3.200 C 18.846 3.116,18.733 3.102,18.080 3.076 C 17.158 3.039,6.468 3.043,5.689 3.080 M6.091 8.574 C 6.345 8.682,6.363 8.732,6.402 9.427 C 6.421 9.775,6.438 10.272,6.438 10.530 C 6.439 10.788,6.456 11.000,6.476 11.000 C 6.496 11.000,6.663 10.928,6.846 10.841 C 7.286 10.632,7.637 10.577,8.148 10.637 C 8.899 10.725,9.323 10.970,9.907 11.650 L 10.070 11.840 10.142 11.730 C 10.291 11.503,10.666 11.149,10.938 10.981 C 11.302 10.755,11.633 10.647,12.047 10.617 C 13.138 10.540,14.079 11.153,14.498 12.216 C 14.603 12.480,14.606 12.516,14.593 13.096 L 14.580 13.700 14.405 14.060 C 14.262 14.354,14.170 14.479,13.905 14.740 C 13.398 15.241,12.907 15.443,12.200 15.442 C 11.364 15.442,10.766 15.129,10.169 14.380 L 10.042 14.220 9.955 14.340 C 9.755 14.614,9.290 15.025,9.019 15.165 C 8.569 15.399,8.349 15.457,7.920 15.454 C 7.228 15.449,6.667 15.223,6.203 14.760 C 5.671 14.228,5.533 13.876,5.473 12.886 C 5.426 12.102,5.454 9.016,5.511 8.820 C 5.534 8.741,5.600 8.669,5.703 8.611 C 5.888 8.506,5.921 8.502,6.091 8.574 M15.248 10.785 C 15.315 10.848,15.603 11.175,15.889 11.510 C 16.175 11.845,16.432 12.120,16.460 12.120 C 16.489 12.120,16.698 11.900,16.925 11.630 C 17.573 10.862,17.751 10.685,17.909 10.656 C 18.207 10.600,18.487 10.782,18.543 11.067 C 18.571 11.209,18.495 11.325,17.781 12.220 C 17.483 12.594,17.229 12.940,17.216 12.988 C 17.197 13.059,17.307 13.223,17.749 13.788 C 18.470 14.710,18.520 14.785,18.520 14.967 C 18.520 15.240,18.183 15.475,17.906 15.396 C 17.747 15.350,17.645 15.250,17.032 14.530 C 16.745 14.195,16.491 13.920,16.465 13.920 C 16.440 13.920,16.239 14.131,16.020 14.390 C 15.209 15.342,15.062 15.468,14.815 15.422 C 14.609 15.383,14.400 15.154,14.400 14.968 C 14.400 14.785,14.449 14.710,15.167 13.793 C 15.471 13.405,15.720 13.054,15.719 13.013 C 15.719 12.973,15.502 12.670,15.238 12.340 C 14.534 11.462,14.348 11.183,14.379 11.049 C 14.464 10.667,14.961 10.516,15.248 10.785 M7.297 11.713 C 7.011 11.851,6.697 12.155,6.561 12.426 C 6.476 12.595,6.463 12.674,6.464 13.040 C 6.465 13.546,6.529 13.699,6.881 14.044 C 7.226 14.381,7.415 14.459,7.884 14.455 C 8.206 14.452,8.303 14.435,8.492 14.349 C 8.902 14.161,9.178 13.810,9.305 13.314 C 9.465 12.688,9.120 12.020,8.487 11.728 C 8.309 11.646,8.183 11.621,7.900 11.610 C 7.568 11.596,7.521 11.605,7.297 11.713 M11.615 11.717 C 11.364 11.844,10.994 12.178,10.898 12.363 C 10.869 12.420,10.823 12.589,10.797 12.739 C 10.697 13.316,10.881 13.808,11.330 14.164 C 11.648 14.417,11.763 14.455,12.220 14.457 C 12.715 14.458,12.898 14.379,13.238 14.016 C 13.576 13.654,13.655 13.467,13.655 13.020 C 13.655 12.567,13.568 12.364,13.234 12.029 C 12.925 11.718,12.719 11.632,12.240 11.610 C 11.878 11.594,11.848 11.599,11.615 11.717 " fill="#373B4D" stroke="none" fill-rule="evenodd"></path></svg>