<svg width="24" height="24" viewBox="0 0 24 24" fill="none" xmlns="http://www.w3.org/2000/svg"><path d="M5.240 3.115 C 4.880 3.157,4.232 3.564,3.814 4.012 C 3.522 4.324,3.335 4.623,3.144 5.088 L 3.000 5.435 3.000 12.016 L 3.000 18.596 3.153 18.949 C 3.348 19.399,3.550 19.713,3.834 20.012 C 4.253 20.451,4.733 20.761,5.160 20.869 C 5.469 20.948,8.060 20.995,12.040 20.995 C 16.123 20.996,18.481 20.949,18.836 20.861 C 19.286 20.750,19.616 20.544,20.083 20.080 C 20.478 19.688,20.523 19.626,20.758 19.160 L 21.009 18.660 20.988 12.300 C 20.966 5.743,20.956 5.361,20.801 4.954 C 20.523 4.222,19.760 3.484,18.980 3.193 L 18.740 3.104 12.100 3.096 C 8.448 3.092,5.361 3.101,5.240 3.115 M6.188 8.620 C 6.235 8.653,6.292 8.739,6.315 8.810 C 6.360 8.951,6.440 10.120,6.440 10.638 C 6.440 10.890,6.452 10.960,6.497 10.960 C 6.528 10.960,6.688 10.906,6.852 10.841 C 7.293 10.664,7.523 10.626,8.002 10.651 C 8.742 10.690,9.194 10.909,9.751 11.497 L 10.061 11.825 10.194 11.662 C 10.586 11.183,11.219 10.772,11.712 10.677 C 12.236 10.577,12.915 10.673,13.389 10.914 C 13.756 11.102,14.236 11.646,14.462 12.132 C 14.553 12.327,14.559 12.384,14.560 13.031 L 14.560 13.722 14.435 13.971 C 14.093 14.650,13.594 15.111,12.968 15.328 C 12.742 15.406,12.622 15.420,12.200 15.418 C 11.767 15.417,11.662 15.403,11.416 15.314 C 10.975 15.156,10.511 14.810,10.176 14.392 L 10.058 14.243 9.657 14.635 C 9.196 15.085,8.858 15.295,8.454 15.381 C 7.926 15.492,7.282 15.428,6.860 15.222 C 6.582 15.086,6.127 14.694,5.906 14.399 C 5.532 13.902,5.464 13.383,5.469 11.060 C 5.471 10.180,5.491 9.299,5.512 9.101 C 5.547 8.788,5.565 8.731,5.658 8.651 C 5.784 8.543,6.055 8.527,6.188 8.620 M15.102 10.715 C 15.169 10.756,15.403 10.984,15.622 11.223 C 16.444 12.119,16.418 12.095,16.506 12.047 C 16.550 12.024,16.709 11.864,16.860 11.692 C 17.296 11.195,17.730 10.759,17.855 10.694 C 18.018 10.607,18.212 10.655,18.381 10.823 C 18.646 11.089,18.630 11.121,17.607 12.455 C 17.224 12.953,17.197 13.000,17.243 13.086 C 17.270 13.138,17.532 13.500,17.825 13.890 C 18.371 14.616,18.520 14.855,18.520 14.998 C 18.520 15.043,18.448 15.152,18.360 15.240 C 18.233 15.367,18.171 15.400,18.056 15.400 C 17.834 15.400,17.713 15.303,17.191 14.708 C 16.717 14.167,16.508 13.960,16.440 13.960 C 16.421 13.960,16.142 14.256,15.820 14.618 C 15.038 15.497,14.847 15.587,14.536 15.225 C 14.302 14.953,14.331 14.889,15.250 13.677 C 15.510 13.334,15.680 13.073,15.680 13.017 C 15.680 12.925,15.609 12.824,14.974 12.000 C 14.574 11.481,14.400 11.209,14.400 11.102 C 14.400 10.971,14.538 10.781,14.685 10.708 C 14.860 10.622,14.952 10.623,15.102 10.715 M7.476 11.655 C 7.137 11.746,6.682 12.154,6.541 12.492 C 6.466 12.671,6.459 13.300,6.529 13.534 C 6.589 13.734,7.024 14.210,7.258 14.330 C 7.383 14.394,7.518 14.418,7.849 14.432 C 8.259 14.449,8.289 14.445,8.501 14.338 C 9.046 14.062,9.424 13.365,9.324 12.823 C 9.206 12.187,8.734 11.734,8.091 11.641 C 7.755 11.592,7.705 11.593,7.476 11.655 M11.797 11.636 C 11.543 11.718,11.080 12.096,10.943 12.333 C 10.636 12.866,10.754 13.588,11.224 14.055 C 11.526 14.356,11.739 14.439,12.210 14.440 C 12.696 14.440,12.876 14.365,13.220 14.021 C 13.569 13.672,13.616 13.554,13.616 13.020 C 13.615 12.483,13.566 12.367,13.183 12.008 C 12.982 11.821,12.869 11.748,12.710 11.703 C 12.447 11.630,11.934 11.592,11.797 11.636 " fill="#373B4D" stroke="none" fill-rule="evenodd"></path></svg>