<svg width="24" height="24" viewBox="0 0 24 24" fill="none" xmlns="http://www.w3.org/2000/svg"><path d="M7.620 3.041 C 5.152 3.063,5.253 3.055,4.780 3.260 C 4.282 3.476,3.703 4.000,3.410 4.500 C 3.320 4.654,3.191 4.939,3.123 5.134 L 2.999 5.488 3.010 12.054 L 3.020 18.620 3.175 19.000 C 3.471 19.724,3.875 20.213,4.479 20.577 C 5.027 20.908,5.105 20.924,6.360 20.963 C 7.812 21.007,16.237 21.006,17.640 20.961 C 18.893 20.921,18.962 20.907,19.480 20.599 C 20.079 20.242,20.561 19.681,20.814 19.046 L 20.935 18.740 20.964 17.560 C 21.004 15.904,21.003 7.686,20.963 6.360 C 20.924 5.107,20.911 5.043,20.579 4.485 C 20.288 3.997,19.849 3.594,19.314 3.324 C 19.019 3.176,18.825 3.106,18.640 3.080 C 18.330 3.038,10.905 3.011,7.620 3.041 M6.157 8.599 C 6.261 8.651,6.327 8.720,6.358 8.809 C 6.386 8.888,6.414 9.350,6.428 9.984 L 6.452 11.028 6.796 10.854 C 7.247 10.626,7.617 10.568,8.208 10.634 C 8.772 10.697,9.179 10.893,9.582 11.297 C 9.737 11.453,9.908 11.639,9.962 11.712 L 10.060 11.844 10.242 11.591 C 10.597 11.099,11.269 10.700,11.865 10.626 C 13.102 10.473,14.134 11.125,14.544 12.320 C 14.604 12.492,14.619 12.648,14.617 13.040 C 14.614 13.471,14.600 13.580,14.511 13.831 C 14.379 14.201,14.222 14.445,13.925 14.739 C 13.616 15.044,13.334 15.218,12.940 15.348 C 12.316 15.554,11.478 15.460,10.960 15.127 C 10.689 14.953,10.405 14.687,10.217 14.431 L 10.048 14.202 9.860 14.459 C 9.556 14.872,9.101 15.186,8.520 15.385 C 8.180 15.501,7.558 15.483,7.134 15.345 C 6.458 15.125,5.905 14.598,5.607 13.891 C 5.469 13.564,5.433 12.854,5.447 10.740 C 5.461 8.652,5.452 8.723,5.732 8.585 C 5.900 8.502,5.972 8.504,6.157 8.599 M15.168 10.710 C 15.227 10.749,15.398 10.925,15.548 11.102 C 15.698 11.279,15.961 11.590,16.133 11.794 C 16.390 12.099,16.456 12.156,16.503 12.117 C 16.535 12.091,16.813 11.768,17.122 11.399 C 17.468 10.985,17.729 10.709,17.802 10.679 C 18.000 10.597,18.278 10.651,18.408 10.796 C 18.533 10.935,18.580 11.078,18.545 11.210 C 18.532 11.259,18.214 11.683,17.837 12.151 C 17.182 12.966,17.155 13.007,17.211 13.092 C 17.243 13.141,17.532 13.512,17.853 13.917 C 18.174 14.322,18.466 14.713,18.501 14.788 C 18.663 15.130,18.276 15.507,17.873 15.398 C 17.742 15.363,17.635 15.254,17.114 14.629 C 16.780 14.228,16.488 13.900,16.464 13.900 C 16.441 13.900,16.160 14.214,15.839 14.597 C 15.209 15.350,15.063 15.468,14.820 15.423 C 14.639 15.389,14.457 15.231,14.400 15.060 C 14.335 14.864,14.389 14.771,15.067 13.917 C 15.388 13.512,15.677 13.140,15.710 13.090 C 15.768 13.003,15.756 12.982,15.452 12.609 C 14.849 11.873,14.400 11.273,14.375 11.172 C 14.339 11.032,14.451 10.816,14.609 10.720 C 14.771 10.621,15.024 10.617,15.168 10.710 M7.587 11.603 C 7.202 11.666,6.751 12.028,6.552 12.434 C 6.475 12.592,6.461 12.682,6.462 13.040 C 6.463 13.401,6.476 13.485,6.556 13.637 C 6.694 13.901,7.022 14.225,7.276 14.350 C 7.476 14.448,7.543 14.459,7.900 14.458 C 8.342 14.456,8.497 14.402,8.826 14.136 C 9.178 13.851,9.397 13.307,9.341 12.856 C 9.239 12.034,8.440 11.463,7.587 11.603 M11.918 11.596 C 11.523 11.676,11.036 12.063,10.870 12.429 C 10.746 12.703,10.746 13.337,10.869 13.610 C 10.989 13.874,11.326 14.218,11.596 14.350 C 11.795 14.448,11.864 14.460,12.220 14.459 C 12.560 14.459,12.649 14.444,12.815 14.363 C 13.078 14.235,13.405 13.899,13.544 13.615 C 13.644 13.411,13.658 13.337,13.658 13.020 C 13.658 12.706,13.644 12.628,13.548 12.432 C 13.391 12.111,12.986 11.740,12.710 11.664 C 12.439 11.589,12.098 11.560,11.918 11.596 " fill="#373B4D" stroke="none" fill-rule="evenodd"></path></svg>