<svg width="24" height="24" viewBox="0 0 24 24" fill="none" xmlns="http://www.w3.org/2000/svg"><path d="M5.490 3.044 C 4.373 3.232,3.464 4.042,3.114 5.160 L 3.020 5.460 3.020 12.000 L 3.020 18.540 3.110 18.825 C 3.379 19.674,3.920 20.321,4.660 20.680 C 5.333 21.006,4.700 20.980,12.000 20.980 C 19.302 20.980,18.672 21.006,19.340 20.678 C 20.098 20.307,20.673 19.602,20.908 18.760 C 20.976 18.514,20.980 18.148,20.980 12.000 C 20.980 4.700,21.006 5.333,20.680 4.660 C 20.320 3.918,19.628 3.348,18.780 3.094 C 18.554 3.026,18.172 3.022,12.120 3.015 C 8.533 3.012,5.607 3.024,5.490 3.044 M6.146 8.585 C 6.405 8.708,6.419 8.775,6.432 9.967 L 6.445 11.034 6.732 10.880 C 7.163 10.649,7.450 10.588,8.000 10.610 C 8.515 10.630,8.818 10.721,9.212 10.973 C 9.467 11.136,9.838 11.506,9.944 11.701 C 9.985 11.778,10.030 11.840,10.045 11.840 C 10.060 11.840,10.130 11.750,10.201 11.639 C 10.485 11.196,11.139 10.753,11.672 10.644 C 11.977 10.581,12.544 10.590,12.820 10.662 C 14.370 11.065,15.104 12.776,14.346 14.220 C 14.276 14.354,14.095 14.586,13.938 14.744 C 13.440 15.245,12.737 15.514,12.054 15.464 C 11.694 15.438,11.263 15.308,10.971 15.137 C 10.726 14.994,10.347 14.634,10.178 14.385 L 10.047 14.191 9.937 14.365 C 9.625 14.863,8.984 15.293,8.360 15.425 C 7.796 15.543,7.130 15.425,6.613 15.113 C 6.288 14.917,5.876 14.465,5.704 14.115 C 5.449 13.596,5.441 13.512,5.441 11.080 C 5.440 8.964,5.443 8.896,5.521 8.768 C 5.600 8.637,5.790 8.525,5.934 8.522 C 5.975 8.521,6.070 8.549,6.146 8.585 M15.200 10.716 C 15.255 10.755,15.555 11.097,15.866 11.477 C 16.178 11.856,16.445 12.167,16.461 12.167 C 16.477 12.167,16.744 11.857,17.055 11.477 C 17.366 11.097,17.667 10.752,17.724 10.710 C 17.860 10.610,18.148 10.604,18.308 10.699 C 18.529 10.830,18.620 11.092,18.513 11.293 C 18.477 11.360,17.440 12.654,17.177 12.960 C 17.133 13.011,17.230 13.148,17.822 13.874 C 18.302 14.464,18.526 14.769,18.543 14.860 C 18.623 15.287,18.059 15.595,17.706 15.317 C 17.650 15.273,17.366 14.945,17.076 14.589 C 16.785 14.232,16.527 13.917,16.502 13.890 C 16.467 13.851,16.333 13.992,15.906 14.518 C 15.294 15.272,15.179 15.385,14.983 15.422 C 14.658 15.483,14.319 15.171,14.377 14.864 C 14.393 14.778,14.630 14.453,15.097 13.878 C 15.688 13.151,15.786 13.011,15.743 12.960 C 15.333 12.481,14.426 11.329,14.395 11.248 C 14.233 10.821,14.808 10.441,15.200 10.716 M7.550 11.601 C 7.137 11.705,6.758 12.014,6.568 12.400 C 6.471 12.597,6.460 12.664,6.460 13.040 C 6.461 13.422,6.471 13.479,6.573 13.674 C 6.723 13.959,6.994 14.223,7.272 14.353 C 7.472 14.447,7.550 14.460,7.900 14.460 C 8.262 14.459,8.322 14.448,8.531 14.343 C 8.789 14.213,9.069 13.936,9.196 13.688 C 9.242 13.598,9.301 13.400,9.327 13.248 C 9.439 12.597,9.083 11.959,8.447 11.672 C 8.247 11.581,7.775 11.544,7.550 11.601 M11.870 11.601 C 11.463 11.704,11.042 12.052,10.867 12.431 C 10.797 12.585,10.780 12.694,10.780 13.020 C 10.780 13.381,10.791 13.443,10.897 13.658 C 11.045 13.961,11.302 14.217,11.592 14.353 C 11.792 14.447,11.870 14.460,12.220 14.460 C 12.575 14.459,12.645 14.447,12.845 14.349 C 13.123 14.213,13.411 13.911,13.552 13.609 C 13.643 13.414,13.659 13.326,13.659 13.020 C 13.659 12.714,13.643 12.626,13.552 12.431 C 13.416 12.140,13.102 11.824,12.819 11.694 C 12.572 11.582,12.122 11.537,11.870 11.601 " fill="#373B4D" stroke="none" fill-rule="evenodd"></path></svg>