<svg width="24" height="24" viewBox="0 0 24 24" fill="none" xmlns="http://www.w3.org/2000/svg"><path d="M4.775 3.299 C 4.365 3.506,3.919 3.863,3.657 4.191 C 3.557 4.317,3.373 4.627,3.248 4.880 L 3.020 5.340 3.010 11.966 L 2.999 18.591 3.142 18.925 C 3.507 19.778,4.193 20.493,4.935 20.792 C 5.298 20.939,5.892 20.959,10.620 20.986 C 14.922 21.010,18.176 20.966,18.720 20.878 C 19.085 20.818,19.487 20.610,19.851 20.292 C 20.303 19.898,20.522 19.620,20.776 19.125 L 21.000 18.686 20.998 14.233 C 20.995 9.110,20.949 5.615,20.880 5.260 C 20.738 4.529,20.056 3.727,19.211 3.298 L 18.900 3.140 12.015 3.130 L 5.129 3.119 4.775 3.299 M6.243 8.684 C 6.281 8.735,6.324 8.867,6.337 8.978 C 6.376 9.300,6.439 10.314,6.439 10.628 C 6.440 10.786,6.456 10.925,6.475 10.937 C 6.494 10.949,6.689 10.896,6.908 10.820 C 7.388 10.653,7.744 10.614,8.215 10.677 C 8.848 10.761,9.157 10.924,9.719 11.469 L 10.058 11.797 10.359 11.495 C 10.689 11.164,11.103 10.885,11.466 10.749 C 11.663 10.675,11.778 10.662,12.200 10.665 C 12.628 10.667,12.747 10.683,13.026 10.774 C 13.541 10.943,13.903 11.248,14.297 11.845 C 14.524 12.190,14.560 12.362,14.560 13.096 L 14.560 13.740 14.372 14.073 C 13.796 15.093,12.940 15.543,11.841 15.403 C 11.269 15.330,10.719 15.008,10.257 14.475 L 10.061 14.250 9.689 14.602 C 9.262 15.006,9.000 15.189,8.660 15.322 C 8.451 15.404,8.352 15.416,7.900 15.415 C 7.307 15.414,7.028 15.342,6.653 15.094 C 6.316 14.870,5.897 14.425,5.759 14.144 C 5.521 13.660,5.503 13.451,5.501 11.120 C 5.500 8.832,5.508 8.735,5.711 8.620 C 5.869 8.531,6.154 8.565,6.243 8.684 M15.144 10.754 C 15.230 10.817,15.540 11.130,15.833 11.451 C 16.125 11.771,16.394 12.045,16.430 12.058 C 16.477 12.076,16.586 11.985,16.817 11.732 C 17.358 11.139,17.786 10.723,17.901 10.679 C 18.052 10.622,18.232 10.687,18.398 10.858 C 18.618 11.085,18.572 11.182,17.725 12.300 C 17.459 12.652,17.240 12.976,17.240 13.020 C 17.240 13.064,17.414 13.334,17.628 13.620 C 18.197 14.383,18.520 14.871,18.520 14.966 C 18.520 15.013,18.441 15.129,18.345 15.225 C 18.010 15.561,17.878 15.484,16.900 14.388 C 16.482 13.919,16.461 13.909,16.287 14.105 C 15.687 14.778,15.151 15.312,15.007 15.377 C 14.849 15.448,14.841 15.448,14.712 15.373 C 14.528 15.265,14.395 15.057,14.426 14.925 C 14.461 14.775,14.643 14.485,14.993 14.022 C 15.437 13.437,15.680 13.075,15.680 13.000 C 15.680 12.964,15.473 12.660,15.219 12.324 C 14.376 11.206,14.324 11.107,14.483 10.905 C 14.593 10.765,14.791 10.640,14.904 10.640 C 14.950 10.640,15.058 10.691,15.144 10.754 M7.453 11.674 C 7.169 11.772,6.847 12.026,6.658 12.300 L 6.500 12.530 6.500 13.015 C 6.500 13.576,6.517 13.623,6.861 13.995 C 7.171 14.328,7.355 14.409,7.857 14.432 C 8.218 14.448,8.282 14.440,8.460 14.356 C 8.871 14.165,9.229 13.684,9.320 13.202 C 9.352 13.032,9.347 12.933,9.299 12.743 C 9.145 12.144,8.701 11.744,8.079 11.643 C 7.740 11.588,7.697 11.590,7.453 11.674 M11.570 11.758 C 11.455 11.826,11.263 11.979,11.145 12.097 C 10.879 12.363,10.780 12.616,10.785 13.020 C 10.790 13.443,10.911 13.719,11.239 14.047 C 11.573 14.381,11.789 14.458,12.316 14.432 C 12.735 14.411,12.887 14.340,13.216 14.014 C 13.546 13.687,13.610 13.525,13.610 13.016 C 13.610 12.516,13.543 12.349,13.219 12.042 C 12.903 11.744,12.709 11.669,12.200 11.651 C 11.790 11.636,11.775 11.638,11.570 11.758 " fill="#373B4D" stroke="none" fill-rule="evenodd"></path></svg>