<svg width="24" height="24" viewBox="0 0 24 24" fill="none" xmlns="http://www.w3.org/2000/svg"><path d="M10.280 2.561 C 10.005 2.576,9.704 2.616,9.611 2.649 C 9.128 2.822,8.388 3.372,8.013 3.836 C 7.436 4.550,7.265 5.102,7.204 6.451 C 7.186 6.842,7.165 7.168,7.156 7.176 C 7.147 7.183,6.609 7.211,5.960 7.236 C 3.939 7.316,4.087 7.295,3.685 7.561 C 3.130 7.928,2.728 8.380,2.562 8.824 C 2.487 9.026,2.479 9.183,2.444 11.210 C 2.423 12.403,2.416 13.502,2.429 13.650 L 2.451 13.920 3.075 14.118 C 5.473 14.876,7.687 15.344,9.560 15.486 C 10.423 15.552,13.838 15.552,14.520 15.487 C 16.304 15.315,18.495 14.866,20.315 14.300 C 21.659 13.881,21.548 13.928,21.574 13.767 C 21.602 13.599,21.533 9.573,21.497 9.200 C 21.453 8.750,21.291 8.450,20.861 8.019 C 20.210 7.369,20.044 7.324,17.956 7.235 L 16.812 7.186 16.787 6.483 C 16.738 5.139,16.578 4.579,16.049 3.915 C 15.639 3.400,15.194 3.048,14.577 2.752 C 14.240 2.590,14.234 2.589,13.609 2.556 C 12.873 2.518,10.998 2.521,10.280 2.561 M13.823 5.046 C 14.025 5.198,14.202 5.463,14.256 5.693 C 14.292 5.843,14.399 6.860,14.400 7.050 L 14.400 7.200 11.995 7.200 L 9.590 7.200 9.617 6.770 C 9.686 5.665,9.792 5.339,10.186 5.027 L 10.409 4.850 12.014 4.871 L 13.619 4.892 13.823 5.046 M12.651 11.074 C 12.757 11.146,12.892 11.280,12.951 11.370 C 13.054 11.525,13.060 11.560,13.059 11.997 C 13.059 12.520,13.025 12.619,12.774 12.840 C 12.488 13.091,12.078 13.204,11.757 13.121 C 11.507 13.056,11.174 12.818,11.059 12.622 C 10.945 12.427,10.871 11.972,10.916 11.740 C 10.957 11.527,11.085 11.286,11.232 11.147 C 11.422 10.966,11.609 10.918,12.060 10.930 C 12.439 10.941,12.470 10.949,12.651 11.074 M2.434 16.630 C 2.381 16.766,2.418 19.202,2.480 19.617 C 2.544 20.043,2.722 20.363,3.119 20.764 C 3.453 21.101,3.718 21.296,4.117 21.499 L 4.317 21.600 12.020 21.600 L 19.723 21.600 19.931 21.495 C 20.272 21.324,20.610 21.064,20.915 20.737 C 21.261 20.367,21.455 19.991,21.524 19.560 C 21.591 19.142,21.598 16.662,21.532 16.596 C 21.479 16.543,21.600 16.518,19.522 17.020 C 17.334 17.550,16.175 17.756,14.660 17.888 C 13.875 17.956,9.999 17.954,9.260 17.885 C 7.751 17.744,5.212 17.248,3.200 16.700 C 2.837 16.601,2.526 16.520,2.509 16.520 C 2.492 16.520,2.458 16.570,2.434 16.630 " fill="#373B4D" stroke="none" fill-rule="evenodd"></path></svg>