<svg width="24" height="24" viewBox="0 0 24 24" fill="none" xmlns="http://www.w3.org/2000/svg"><path d="M9.751 2.661 C 9.281 2.777,8.781 3.096,8.278 3.598 C 7.534 4.341,7.297 4.971,7.192 6.485 L 7.144 7.191 6.582 7.217 C 6.273 7.232,5.597 7.271,5.080 7.303 C 3.891 7.378,3.843 7.397,3.205 8.019 C 2.722 8.490,2.584 8.705,2.524 9.077 C 2.470 9.410,2.379 13.302,2.417 13.649 L 2.446 13.919 2.956 14.079 C 5.299 14.815,7.759 15.343,9.478 15.478 C 10.147 15.530,13.188 15.532,14.252 15.480 C 15.115 15.438,15.917 15.327,17.180 15.074 C 18.575 14.794,20.727 14.218,21.267 13.979 C 21.628 13.819,21.616 13.916,21.561 11.582 C 21.512 9.505,21.486 9.097,21.384 8.810 C 21.219 8.347,20.570 7.695,20.085 7.505 C 19.760 7.378,19.026 7.301,17.330 7.216 L 16.800 7.190 16.800 6.773 C 16.800 5.930,16.627 4.930,16.406 4.491 C 16.253 4.190,15.880 3.717,15.597 3.466 C 15.287 3.192,14.727 2.824,14.454 2.715 C 14.220 2.621,14.220 2.621,12.100 2.613 C 10.380 2.606,9.937 2.615,9.751 2.661 M13.841 5.070 C 14.135 5.404,14.193 5.540,14.278 6.103 C 14.321 6.387,14.368 6.750,14.383 6.910 L 14.410 7.200 12.005 7.200 L 9.600 7.200 9.600 7.110 C 9.600 6.952,9.716 6.025,9.764 5.798 C 9.824 5.511,9.891 5.388,10.135 5.111 L 10.338 4.880 12.005 4.880 L 13.673 4.880 13.841 5.070 M12.350 10.996 C 12.560 11.037,12.814 11.208,12.920 11.380 C 12.988 11.490,13.000 11.580,13.000 11.976 C 13.000 12.637,12.919 12.790,12.445 13.022 C 12.148 13.168,11.893 13.171,11.600 13.032 C 11.199 12.843,11.028 12.600,10.960 12.121 C 10.912 11.783,10.950 11.576,11.099 11.361 C 11.244 11.152,11.327 11.082,11.507 11.018 C 11.678 10.957,12.092 10.946,12.350 10.996 M2.418 16.829 C 2.380 17.176,2.425 19.088,2.479 19.480 C 2.579 20.205,3.207 20.997,4.043 21.456 L 4.307 21.600 12.015 21.600 L 19.723 21.600 19.916 21.502 C 20.188 21.364,20.659 20.981,20.930 20.677 C 21.210 20.363,21.379 20.055,21.458 19.716 C 21.571 19.226,21.630 17.840,21.574 16.986 L 21.547 16.593 21.364 16.620 C 21.263 16.635,20.667 16.763,20.040 16.905 C 16.360 17.739,15.766 17.835,13.800 17.920 C 12.082 17.993,9.775 17.948,8.724 17.819 C 7.353 17.652,5.293 17.238,3.241 16.717 C 2.900 16.631,2.582 16.560,2.534 16.560 C 2.455 16.560,2.443 16.588,2.418 16.829 " fill="#373B4D" stroke="none" fill-rule="evenodd"></path></svg>