<svg width="24" height="24" viewBox="0 0 24 24" fill="none" xmlns="http://www.w3.org/2000/svg"><path d="M10.660 2.559 C 10.264 2.577,9.851 2.612,9.742 2.638 C 9.094 2.789,8.122 3.573,7.703 4.282 C 7.383 4.824,7.258 5.406,7.176 6.745 L 7.149 7.190 6.525 7.216 C 5.247 7.271,4.374 7.324,4.160 7.362 C 3.882 7.410,3.527 7.647,3.130 8.048 C 2.692 8.490,2.563 8.710,2.506 9.120 C 2.465 9.415,2.392 13.274,2.421 13.610 L 2.448 13.919 2.954 14.078 C 5.383 14.841,7.670 15.332,9.500 15.482 C 9.877 15.513,10.816 15.522,12.380 15.509 C 14.446 15.492,14.762 15.481,15.264 15.408 C 17.136 15.135,18.887 14.741,20.640 14.199 C 21.432 13.954,21.527 13.905,21.568 13.719 C 21.607 13.537,21.530 9.545,21.480 9.170 C 21.421 8.734,21.260 8.450,20.821 8.011 C 20.185 7.374,20.000 7.330,17.416 7.217 L 16.811 7.190 16.788 6.525 C 16.750 5.455,16.584 4.701,16.289 4.265 C 15.882 3.662,15.491 3.288,14.906 2.943 C 14.474 2.687,14.370 2.650,13.951 2.603 C 13.435 2.546,11.525 2.520,10.660 2.559 M12.268 4.880 L 13.645 4.880 13.858 5.093 C 14.175 5.410,14.222 5.530,14.317 6.275 C 14.363 6.632,14.400 6.987,14.400 7.062 L 14.400 7.200 11.995 7.200 L 9.590 7.200 9.617 6.830 C 9.661 6.232,9.752 5.694,9.844 5.479 C 9.900 5.350,10.016 5.200,10.173 5.055 L 10.415 4.830 10.653 4.855 C 10.785 4.869,11.511 4.880,12.268 4.880 M12.437 10.985 C 12.592 11.016,12.931 11.314,13.000 11.479 C 13.071 11.653,13.036 12.458,12.949 12.623 C 12.832 12.848,12.436 13.088,12.092 13.143 C 11.745 13.198,11.213 12.898,11.046 12.552 C 10.992 12.440,10.953 12.257,10.935 12.035 C 10.910 11.699,10.912 11.686,11.044 11.439 C 11.142 11.256,11.227 11.156,11.357 11.073 C 11.521 10.969,11.566 10.960,11.923 10.960 C 12.136 10.960,12.367 10.971,12.437 10.985 M2.435 16.627 C 2.381 16.764,2.417 19.208,2.479 19.580 C 2.591 20.255,3.243 21.038,4.044 21.459 L 4.312 21.600 12.017 21.600 L 19.723 21.600 19.892 21.514 C 20.589 21.160,21.211 20.496,21.427 19.877 C 21.506 19.649,21.528 19.472,21.563 18.773 C 21.587 18.315,21.594 17.639,21.578 17.270 L 21.551 16.600 21.438 16.600 C 21.375 16.600,21.058 16.662,20.732 16.737 C 20.406 16.813,19.636 16.992,19.020 17.135 C 16.973 17.609,15.825 17.805,14.680 17.877 C 12.890 17.988,9.796 17.959,8.680 17.820 C 7.397 17.661,5.453 17.273,3.654 16.818 C 3.085 16.675,2.589 16.547,2.550 16.536 C 2.500 16.521,2.467 16.547,2.435 16.627 " fill="#373B4D" stroke="none" fill-rule="evenodd"></path></svg>