<svg width="24" height="24" viewBox="0 0 24 24" fill="none" xmlns="http://www.w3.org/2000/svg"><path d="M10.020 2.561 C 9.654 2.601,9.405 2.700,8.990 2.970 C 8.167 3.506,7.558 4.287,7.361 5.056 C 7.272 5.405,7.200 6.085,7.200 6.582 C 7.200 6.784,7.189 7.004,7.176 7.069 L 7.152 7.188 6.346 7.216 C 5.903 7.231,5.208 7.260,4.801 7.282 L 4.062 7.321 3.796 7.480 C 3.124 7.879,2.600 8.494,2.503 9.000 C 2.467 9.188,2.402 13.308,2.429 13.650 L 2.451 13.919 3.135 14.138 C 5.033 14.744,6.561 15.097,8.520 15.382 C 9.884 15.580,13.556 15.610,15.000 15.435 C 16.434 15.261,18.099 14.936,19.386 14.579 C 20.098 14.381,21.525 13.928,21.566 13.886 C 21.608 13.844,21.528 9.242,21.481 9.020 C 21.406 8.661,21.246 8.401,20.862 8.016 C 20.398 7.549,20.078 7.381,19.540 7.321 C 19.190 7.283,17.487 7.200,17.036 7.200 L 16.811 7.200 16.787 6.450 C 16.741 5.003,16.534 4.402,15.818 3.644 C 15.464 3.268,15.103 2.999,14.660 2.778 C 14.350 2.624,14.247 2.594,13.920 2.560 C 13.481 2.515,10.437 2.516,10.020 2.561 M13.825 5.043 C 14.073 5.227,14.178 5.388,14.258 5.703 C 14.311 5.913,14.400 6.779,14.400 7.086 L 14.400 7.200 11.996 7.200 L 9.591 7.200 9.619 6.710 C 9.680 5.633,9.772 5.354,10.175 5.033 L 10.409 4.845 12.015 4.868 L 13.620 4.890 13.825 5.043 M12.464 10.964 C 12.637 11.017,12.907 11.258,13.001 11.443 C 13.064 11.566,13.080 11.678,13.080 12.002 C 13.080 12.473,13.034 12.604,12.791 12.824 C 12.303 13.265,11.651 13.254,11.195 12.799 C 10.993 12.597,10.943 12.472,10.898 12.059 C 10.854 11.657,11.004 11.313,11.335 11.061 C 11.544 10.901,12.104 10.853,12.464 10.964 M2.448 16.568 C 2.390 16.626,2.385 17.819,2.438 18.980 C 2.465 19.593,2.488 19.782,2.555 19.956 C 2.784 20.559,3.338 21.106,4.109 21.495 L 4.317 21.600 12.023 21.600 L 19.728 21.600 19.996 21.459 C 20.812 21.031,21.421 20.293,21.518 19.617 C 21.575 19.223,21.617 17.460,21.582 16.955 C 21.557 16.588,21.544 16.531,21.486 16.544 C 21.450 16.552,20.763 16.719,19.960 16.916 C 16.991 17.643,15.937 17.819,13.920 17.924 C 12.909 17.977,10.060 17.949,9.240 17.879 C 7.755 17.751,5.214 17.253,3.143 16.684 C 2.463 16.497,2.511 16.505,2.448 16.568 " fill="#373B4D" stroke="none" fill-rule="evenodd"></path></svg>