<svg width="24" height="24" viewBox="0 0 24 24" fill="none" xmlns="http://www.w3.org/2000/svg"><path d="M10.620 2.518 C 9.813 2.553,9.652 2.586,9.280 2.787 C 8.670 3.118,8.145 3.592,7.777 4.143 C 7.373 4.750,7.246 5.254,7.206 6.411 L 7.180 7.180 6.380 7.209 C 5.940 7.225,5.242 7.255,4.829 7.275 L 4.078 7.312 3.773 7.486 C 3.204 7.811,2.682 8.391,2.536 8.860 C 2.484 9.025,2.468 9.448,2.441 11.280 C 2.423 12.501,2.418 13.594,2.430 13.709 L 2.451 13.917 3.135 14.138 C 4.878 14.699,6.318 15.045,7.960 15.295 C 9.523 15.534,9.571 15.537,12.000 15.536 C 14.227 15.535,14.272 15.534,15.086 15.426 C 17.244 15.142,18.955 14.761,20.807 14.150 L 21.580 13.895 21.567 11.838 C 21.552 9.450,21.528 9.030,21.384 8.705 C 21.176 8.235,20.661 7.713,20.176 7.479 C 19.847 7.320,19.597 7.291,18.090 7.233 L 16.800 7.184 16.800 6.696 C 16.800 5.828,16.698 5.115,16.506 4.640 C 16.281 4.083,15.712 3.426,15.107 3.024 C 14.675 2.737,14.361 2.603,14.020 2.560 C 13.612 2.508,11.457 2.482,10.620 2.518 M13.780 5.002 C 14.216 5.301,14.319 5.594,14.382 6.710 L 14.410 7.200 12.000 7.200 L 9.590 7.200 9.618 6.670 C 9.678 5.521,9.742 5.354,10.280 4.948 L 10.420 4.842 12.020 4.867 L 13.620 4.892 13.780 5.002 M12.606 11.027 C 12.742 11.101,12.856 11.206,12.945 11.339 C 13.079 11.538,13.080 11.542,13.080 12.003 C 13.080 12.445,13.074 12.476,12.969 12.633 C 12.769 12.931,12.339 13.160,11.980 13.160 C 11.615 13.160,11.166 12.885,11.000 12.560 C 10.891 12.347,10.850 11.749,10.930 11.557 C 10.999 11.392,11.197 11.156,11.369 11.033 C 11.542 10.910,11.697 10.881,12.071 10.900 C 12.337 10.913,12.442 10.938,12.606 11.027 M2.415 16.627 C 2.377 16.778,2.433 19.414,2.479 19.680 C 2.589 20.306,3.121 20.954,3.860 21.360 L 4.260 21.580 11.991 21.590 L 19.721 21.601 19.931 21.495 C 20.717 21.097,21.316 20.448,21.493 19.800 C 21.565 19.538,21.622 17.615,21.578 16.952 L 21.550 16.532 21.385 16.564 C 21.294 16.581,20.653 16.739,19.960 16.914 C 16.433 17.808,14.921 17.991,11.412 17.948 C 9.664 17.927,9.085 17.889,7.900 17.717 C 6.713 17.546,4.346 17.028,3.081 16.664 C 2.807 16.585,2.551 16.520,2.512 16.520 C 2.469 16.520,2.431 16.562,2.415 16.627 " fill="#373B4D" stroke="none" fill-rule="evenodd"></path></svg>