<svg width="24" height="24" viewBox="0 0 24 24" fill="none" xmlns="http://www.w3.org/2000/svg"><path d="M10.160 2.519 C 9.869 2.540,9.714 2.575,9.500 2.666 C 8.944 2.904,8.384 3.340,7.964 3.862 C 7.389 4.576,7.201 5.252,7.200 6.610 L 7.200 7.200 6.730 7.200 C 6.471 7.200,5.785 7.219,5.204 7.243 L 4.147 7.286 3.884 7.418 C 3.148 7.788,2.607 8.418,2.487 9.040 C 2.462 9.173,2.440 10.173,2.433 11.577 L 2.420 13.893 2.920 14.070 C 3.668 14.334,5.108 14.738,6.015 14.938 C 7.311 15.223,8.561 15.409,9.980 15.528 C 10.742 15.591,13.277 15.591,14.020 15.526 C 16.499 15.313,18.692 14.868,20.860 14.141 L 21.580 13.900 21.569 11.600 C 21.562 10.188,21.541 9.215,21.515 9.080 C 21.392 8.442,20.847 7.784,20.172 7.456 C 19.823 7.287,19.573 7.260,17.915 7.217 L 16.811 7.188 16.789 6.404 C 16.757 5.223,16.632 4.718,16.222 4.101 C 15.983 3.741,15.504 3.262,15.152 3.029 C 15.026 2.946,14.769 2.804,14.581 2.714 C 14.268 2.564,14.200 2.547,13.789 2.517 C 13.259 2.479,10.706 2.480,10.160 2.519 M13.839 5.032 C 14.249 5.310,14.331 5.553,14.385 6.650 L 14.412 7.200 12.000 7.200 L 9.588 7.200 9.614 6.610 C 9.663 5.507,9.727 5.332,10.200 5.007 L 10.460 4.829 12.040 4.857 L 13.620 4.884 13.839 5.032 M12.520 10.967 C 12.750 11.066,12.903 11.212,13.024 11.449 C 13.105 11.608,13.120 11.694,13.119 12.009 C 13.118 12.462,13.051 12.633,12.780 12.872 C 12.468 13.147,11.994 13.235,11.584 13.095 C 11.333 13.010,10.994 12.679,10.928 12.455 C 10.902 12.365,10.880 12.131,10.880 11.935 C 10.880 11.595,10.886 11.570,11.020 11.372 C 11.186 11.125,11.456 10.928,11.690 10.883 C 11.928 10.837,12.307 10.876,12.520 10.967 M2.417 16.578 C 2.403 16.635,2.400 17.324,2.410 18.110 C 2.427 19.356,2.439 19.577,2.506 19.824 C 2.697 20.531,3.281 21.136,4.098 21.477 L 4.394 21.600 12.061 21.600 L 19.728 21.600 20.034 21.440 C 20.835 21.021,21.386 20.388,21.521 19.734 C 21.578 19.454,21.616 17.802,21.581 17.106 L 21.551 16.513 21.406 16.539 C 21.326 16.554,20.801 16.691,20.240 16.844 C 17.122 17.693,15.022 17.978,11.880 17.976 C 9.882 17.975,8.887 17.893,7.044 17.577 C 5.730 17.352,3.959 16.930,2.511 16.496 C 2.462 16.481,2.435 16.505,2.417 16.578 " fill="#373B4D" stroke="none" fill-rule="evenodd"></path></svg>