<svg width="24" height="24" viewBox="0 0 24 24" fill="none" xmlns="http://www.w3.org/2000/svg"><path d="M10.080 2.636 C 9.509 2.678,9.115 2.866,8.520 3.379 C 7.953 3.868,7.570 4.437,7.402 5.041 C 7.303 5.399,7.214 6.045,7.176 6.694 C 7.159 6.978,7.130 7.173,7.104 7.182 C 7.080 7.189,6.538 7.225,5.900 7.260 C 3.861 7.373,3.867 7.371,3.196 8.038 C 2.715 8.516,2.580 8.737,2.521 9.149 C 2.469 9.516,2.379 13.401,2.416 13.689 L 2.446 13.918 2.953 14.077 C 5.357 14.826,7.795 15.347,9.521 15.479 C 10.207 15.531,13.314 15.531,14.260 15.479 C 15.525 15.409,17.005 15.152,18.900 14.674 C 20.542 14.259,21.399 13.980,21.501 13.824 C 21.532 13.777,21.569 13.612,21.583 13.459 C 21.615 13.113,21.533 9.933,21.477 9.360 C 21.422 8.792,21.308 8.550,20.887 8.112 C 20.532 7.743,20.234 7.543,19.915 7.459 C 19.586 7.372,17.592 7.200,16.916 7.200 L 16.800 7.200 16.800 6.762 C 16.800 5.979,16.610 4.892,16.402 4.485 C 16.277 4.238,15.859 3.704,15.632 3.500 C 15.353 3.250,14.687 2.810,14.449 2.720 C 14.274 2.653,14.073 2.644,12.358 2.627 C 11.314 2.616,10.289 2.620,10.080 2.636 M13.852 5.090 C 14.075 5.354,14.146 5.492,14.217 5.808 C 14.273 6.052,14.400 6.969,14.400 7.124 C 14.400 7.198,14.335 7.200,11.995 7.200 L 9.591 7.200 9.619 6.890 C 9.677 6.268,9.792 5.640,9.878 5.475 C 9.925 5.384,10.047 5.213,10.150 5.095 L 10.335 4.880 12.005 4.880 L 13.674 4.880 13.852 5.090 M12.548 11.074 C 12.929 11.268,13.018 11.468,12.992 12.075 C 12.967 12.661,12.878 12.814,12.440 13.017 C 12.065 13.191,11.648 13.132,11.328 12.858 C 11.091 12.655,10.993 12.422,10.970 12.002 C 10.951 11.674,10.957 11.636,11.060 11.447 C 11.206 11.179,11.318 11.079,11.549 11.014 C 11.813 10.939,12.347 10.971,12.548 11.074 M2.449 16.630 C 2.403 16.742,2.425 19.109,2.475 19.440 C 2.590 20.202,3.245 21.032,4.083 21.479 L 4.311 21.600 12.028 21.600 L 19.745 21.600 19.993 21.450 C 20.596 21.085,21.189 20.459,21.365 20.000 C 21.411 19.879,21.474 19.618,21.504 19.420 C 21.577 18.948,21.619 17.665,21.582 17.067 L 21.552 16.594 21.386 16.621 C 21.295 16.635,20.545 16.797,19.720 16.981 C 17.121 17.561,16.112 17.750,15.160 17.839 C 13.371 18.004,10.182 17.994,8.720 17.818 C 7.526 17.675,5.656 17.306,3.640 16.817 C 3.057 16.676,2.557 16.560,2.529 16.560 C 2.501 16.560,2.465 16.591,2.449 16.630 " fill="#373B4D" stroke="none" fill-rule="evenodd"></path></svg>