<svg width="24" height="24" viewBox="0 0 24 24" fill="none" xmlns="http://www.w3.org/2000/svg"><path d="M10.520 2.560 C 9.739 2.592,9.543 2.641,9.098 2.916 C 8.426 3.330,7.863 3.918,7.580 4.501 C 7.345 4.983,7.261 5.466,7.177 6.805 L 7.153 7.190 6.467 7.217 C 4.852 7.281,4.189 7.324,4.038 7.376 C 3.789 7.462,3.449 7.710,3.100 8.059 C 2.745 8.415,2.580 8.684,2.519 9.006 C 2.471 9.257,2.392 13.285,2.428 13.663 L 2.452 13.921 3.016 14.098 C 5.426 14.856,7.605 15.324,9.460 15.481 C 10.292 15.552,14.097 15.538,14.771 15.463 C 16.523 15.266,18.529 14.843,20.360 14.286 C 21.439 13.957,21.529 13.919,21.567 13.780 C 21.610 13.625,21.528 9.333,21.478 9.068 C 21.396 8.638,21.107 8.212,20.614 7.795 C 20.107 7.367,19.822 7.314,17.450 7.216 L 16.800 7.189 16.800 6.817 C 16.800 5.832,16.643 4.902,16.400 4.446 C 16.216 4.100,15.801 3.596,15.492 3.340 C 15.179 3.083,14.694 2.788,14.390 2.672 C 14.047 2.541,12.249 2.489,10.520 2.560 M12.326 4.880 L 13.639 4.880 13.894 5.130 C 14.083 5.317,14.164 5.431,14.212 5.580 C 14.270 5.763,14.400 6.798,14.400 7.080 L 14.400 7.200 12.000 7.200 L 9.600 7.200 9.600 7.090 C 9.601 6.815,9.685 6.033,9.742 5.773 C 9.814 5.438,9.941 5.233,10.220 5.000 L 10.420 4.833 10.716 4.857 C 10.879 4.869,11.603 4.880,12.326 4.880 M12.551 11.019 C 12.688 11.094,12.790 11.184,12.930 11.353 C 13.036 11.482,13.040 11.502,13.040 11.964 C 13.040 12.285,13.021 12.487,12.984 12.577 C 12.854 12.889,12.237 13.202,11.869 13.143 C 11.544 13.091,11.177 12.829,11.032 12.544 C 10.974 12.431,10.943 12.276,10.929 12.032 C 10.911 11.712,10.918 11.665,11.017 11.462 C 11.144 11.203,11.353 11.017,11.578 10.962 C 11.799 10.909,12.416 10.945,12.551 11.019 M2.434 16.630 C 2.381 16.766,2.418 19.210,2.480 19.600 C 2.591 20.294,3.249 21.059,4.109 21.494 L 4.317 21.600 12.020 21.600 L 19.723 21.600 19.892 21.514 C 20.704 21.101,21.360 20.340,21.498 19.650 C 21.564 19.320,21.606 17.765,21.568 17.080 L 21.540 16.580 21.403 16.591 C 21.327 16.597,20.634 16.753,19.863 16.938 C 17.619 17.475,16.624 17.672,15.380 17.822 C 14.209 17.964,10.258 17.985,9.006 17.855 C 7.593 17.710,5.338 17.265,3.349 16.739 C 2.893 16.619,2.510 16.520,2.498 16.520 C 2.487 16.520,2.458 16.570,2.434 16.630 " fill="#373B4D" stroke="none" fill-rule="evenodd"></path></svg>