<svg width="24" height="24" viewBox="0 0 24 24" fill="none" xmlns="http://www.w3.org/2000/svg"><path d="M10.053 2.600 C 9.481 2.660,8.943 2.949,8.345 3.519 C 7.519 4.308,7.273 4.977,7.176 6.710 L 7.148 7.200 6.997 7.200 C 6.632 7.200,4.437 7.327,4.224 7.360 C 3.888 7.413,3.603 7.597,3.140 8.060 C 2.718 8.482,2.587 8.688,2.521 9.035 C 2.470 9.303,2.383 13.234,2.419 13.621 L 2.447 13.919 2.953 14.078 C 5.352 14.830,7.659 15.327,9.460 15.479 C 10.048 15.528,13.066 15.530,14.240 15.481 C 14.949 15.452,15.265 15.417,16.040 15.285 C 17.567 15.024,18.722 14.759,20.170 14.337 C 21.423 13.972,21.531 13.919,21.575 13.640 C 21.610 13.425,21.527 9.614,21.479 9.220 C 21.423 8.757,21.274 8.479,20.847 8.046 C 20.203 7.391,19.982 7.339,17.370 7.216 L 16.800 7.190 16.800 6.825 C 16.800 6.043,16.676 5.165,16.498 4.691 C 16.244 4.014,15.458 3.213,14.640 2.798 C 14.254 2.602,14.139 2.591,12.200 2.579 C 11.199 2.572,10.233 2.582,10.053 2.600 M13.773 4.993 C 13.940 5.150,14.141 5.440,14.196 5.600 C 14.244 5.745,14.400 6.872,14.400 7.082 L 14.400 7.200 11.995 7.200 L 9.591 7.200 9.618 6.850 C 9.655 6.370,9.749 5.779,9.825 5.548 C 9.869 5.414,9.962 5.281,10.134 5.107 L 10.380 4.858 12.020 4.872 L 13.660 4.886 13.773 4.993 M12.638 11.099 C 12.732 11.164,12.856 11.279,12.914 11.356 C 13.016 11.489,13.020 11.515,13.017 11.977 C 13.013 12.587,12.963 12.708,12.633 12.922 C 12.235 13.179,11.936 13.209,11.581 13.030 C 11.160 12.816,11.019 12.611,10.952 12.108 C 10.898 11.708,10.948 11.522,11.179 11.252 C 11.401 10.993,11.512 10.956,12.024 10.969 C 12.441 10.979,12.477 10.987,12.638 11.099 M2.475 16.563 C 2.432 16.589,2.417 16.763,2.407 17.348 C 2.388 18.453,2.452 19.565,2.551 19.844 C 2.766 20.454,3.424 21.151,4.109 21.495 L 4.317 21.600 12.020 21.600 L 19.723 21.600 19.892 21.515 C 20.358 21.280,20.997 20.690,21.239 20.272 C 21.464 19.881,21.518 19.622,21.566 18.701 C 21.592 18.209,21.598 17.593,21.581 17.224 L 21.551 16.591 21.349 16.618 C 21.237 16.633,20.533 16.786,19.783 16.959 C 16.399 17.740,15.726 17.845,13.614 17.924 C 12.378 17.971,10.364 17.949,9.320 17.877 C 8.026 17.789,5.483 17.299,3.135 16.687 C 2.760 16.589,2.510 16.542,2.475 16.563 " fill="#373B4D" stroke="none" fill-rule="evenodd"></path></svg>