<svg width="24" height="24" viewBox="0 0 24 24" fill="none" xmlns="http://www.w3.org/2000/svg"><path d="M11.175 4.278 C 10.621 4.364,10.099 4.620,8.360 5.658 C 7.667 6.071,6.902 6.527,6.660 6.670 C 5.776 7.194,5.127 7.721,4.613 8.333 C 3.686 9.438,3.189 10.647,3.131 11.940 C 3.074 13.232,3.525 14.586,4.391 15.716 C 4.651 16.055,5.713 17.136,6.289 17.646 C 7.460 18.685,9.048 19.394,10.907 19.707 C 11.452 19.799,13.395 19.812,13.880 19.728 C 15.429 19.457,16.726 18.979,17.780 18.290 C 19.320 17.284,20.446 15.739,20.760 14.201 C 21.158 12.248,20.547 10.378,18.994 8.800 C 17.703 7.487,17.272 7.139,16.120 6.481 C 15.801 6.299,15.031 5.844,14.408 5.471 C 13.177 4.734,12.603 4.441,12.200 4.347 C 11.862 4.268,11.433 4.239,11.175 4.278 M12.049 4.877 C 12.462 4.983,12.898 5.210,14.320 6.060 C 14.991 6.461,15.802 6.944,16.121 7.133 C 16.884 7.583,17.297 7.892,17.760 8.359 C 18.588 9.195,19.156 10.251,19.338 11.295 C 19.428 11.810,19.419 12.632,19.319 13.123 C 18.831 15.519,16.615 17.474,13.635 18.135 C 12.875 18.303,12.556 18.333,11.500 18.330 C 10.668 18.328,10.420 18.313,10.020 18.243 C 6.698 17.658,4.325 15.708,3.772 13.108 C 3.687 12.708,3.679 11.726,3.757 11.280 C 3.878 10.591,4.277 9.683,4.731 9.066 C 5.191 8.441,5.994 7.720,6.740 7.262 C 7.821 6.599,9.908 5.390,10.340 5.177 C 11.134 4.787,11.466 4.728,12.049 4.877 M12.000 5.224 C 12.000 5.237,12.184 5.431,12.410 5.656 C 12.681 5.926,12.893 6.184,13.036 6.415 C 13.265 6.785,13.507 7.420,13.547 7.754 C 13.596 8.169,13.705 8.128,13.771 7.669 C 13.826 7.292,13.744 6.829,13.555 6.442 C 13.365 6.053,12.880 5.583,12.445 5.366 C 12.131 5.210,12.000 5.168,12.000 5.224 M11.440 5.302 C 11.440 5.336,11.519 5.548,11.616 5.772 C 11.868 6.355,11.884 6.430,11.909 7.134 C 11.927 7.650,11.918 7.831,11.860 8.105 C 11.821 8.291,11.801 8.454,11.814 8.468 C 11.861 8.514,12.001 8.347,12.120 8.103 C 12.538 7.243,12.400 6.309,11.735 5.503 C 11.518 5.239,11.440 5.186,11.440 5.302 M10.942 5.327 C 10.933 5.356,10.905 5.542,10.880 5.740 C 10.774 6.576,10.495 7.210,9.956 7.840 C 9.595 8.262,9.558 8.355,9.790 8.259 C 10.038 8.157,10.353 7.920,10.580 7.666 C 10.961 7.238,11.133 6.761,11.136 6.120 C 11.138 5.750,11.069 5.342,10.996 5.297 C 10.976 5.285,10.952 5.299,10.942 5.327 M10.208 5.723 C 9.998 6.104,9.730 6.458,9.450 6.725 C 8.979 7.176,8.736 7.329,7.968 7.663 C 7.785 7.743,7.843 7.800,8.107 7.800 C 8.829 7.800,9.646 7.302,10.009 6.640 C 10.174 6.340,10.360 5.840,10.360 5.698 C 10.360 5.563,10.290 5.575,10.208 5.723 M8.420 10.453 C 8.205 10.524,7.944 10.701,7.827 10.854 C 7.626 11.119,7.585 11.244,7.583 11.604 C 7.580 11.914,7.592 11.971,7.707 12.194 C 7.798 12.370,7.818 12.440,7.779 12.440 C 7.635 12.440,7.264 12.621,7.099 12.772 C 6.879 12.974,6.833 13.149,6.941 13.377 C 7.095 13.701,7.566 13.900,8.180 13.900 C 8.630 13.900,8.907 13.828,9.182 13.639 C 9.478 13.435,9.555 13.108,9.367 12.851 L 9.289 12.744 9.463 12.634 C 9.941 12.331,10.142 11.593,9.884 11.087 C 9.773 10.871,9.531 10.628,9.316 10.518 C 9.107 10.411,8.647 10.378,8.420 10.453 M14.037 10.435 C 13.709 10.504,13.333 10.860,13.215 11.213 C 13.121 11.496,13.129 11.857,13.234 12.096 C 13.282 12.204,13.424 12.390,13.562 12.525 L 13.805 12.763 13.738 12.940 C 13.648 13.174,13.686 13.363,13.856 13.533 C 14.224 13.901,15.030 14.025,15.648 13.808 C 15.959 13.698,16.142 13.549,16.222 13.340 C 16.302 13.130,16.259 12.951,16.089 12.789 C 15.977 12.682,15.503 12.440,15.405 12.440 C 15.344 12.440,15.345 12.436,15.502 12.001 C 15.585 11.768,15.604 11.659,15.586 11.508 C 15.537 11.093,15.260 10.693,14.905 10.524 C 14.721 10.436,14.258 10.389,14.037 10.435 M8.689 10.867 C 8.911 11.065,8.903 11.386,8.671 11.582 C 8.324 11.873,7.771 11.443,7.978 11.043 C 8.117 10.775,8.483 10.684,8.689 10.867 M14.181 10.823 C 14.318 10.888,14.440 11.084,14.440 11.238 C 14.440 11.357,14.338 11.543,14.231 11.618 C 14.182 11.652,14.063 11.680,13.966 11.680 C 13.815 11.680,13.770 11.659,13.655 11.537 C 13.434 11.303,13.482 10.982,13.759 10.834 C 13.930 10.744,14.009 10.741,14.181 10.823 M10.420 13.518 C 9.987 13.540,9.980 13.542,9.927 13.653 C 9.772 13.976,10.247 14.758,10.838 15.153 C 11.256 15.431,11.761 15.455,12.201 15.216 C 12.609 14.994,13.016 14.507,13.193 14.031 C 13.281 13.794,13.270 13.666,13.154 13.574 C 13.091 13.524,11.103 13.483,10.420 13.518 M12.140 14.377 C 12.250 14.427,12.385 14.507,12.440 14.553 L 12.540 14.638 12.380 14.778 C 12.103 15.021,11.899 15.100,11.560 15.099 C 11.241 15.098,11.158 15.067,10.846 14.841 C 10.676 14.716,10.674 14.713,10.746 14.632 C 10.871 14.494,11.147 14.322,11.307 14.282 C 11.528 14.227,11.909 14.271,12.140 14.377 " fill="#373B4D" stroke="none" fill-rule="evenodd"></path></svg>