<svg width="24" height="24" viewBox="0 0 24 24" fill="none" xmlns="http://www.w3.org/2000/svg"><path d="M11.060 4.296 C 10.460 4.435,9.940 4.695,8.480 5.587 C 7.941 5.916,7.218 6.345,6.873 6.539 C 5.828 7.126,5.090 7.727,4.481 8.484 C 2.685 10.716,2.671 13.527,4.443 15.784 C 4.816 16.259,6.201 17.619,6.668 17.969 C 7.953 18.932,9.414 19.505,11.180 19.741 C 11.819 19.826,13.100 19.826,13.740 19.741 C 15.279 19.536,16.715 19.013,17.864 18.237 C 18.917 17.527,19.850 16.485,20.320 15.494 C 20.681 14.735,20.835 14.110,20.868 13.275 C 20.920 11.929,20.529 10.713,19.678 9.577 C 19.377 9.176,18.644 8.393,18.596 8.423 C 18.575 8.435,18.562 8.431,18.568 8.413 C 18.584 8.358,17.636 7.466,17.279 7.202 C 16.945 6.954,16.686 6.796,15.700 6.239 C 15.414 6.078,14.793 5.709,14.320 5.419 C 13.189 4.728,12.856 4.550,12.403 4.399 C 11.952 4.248,11.439 4.209,11.060 4.296 M12.045 4.864 C 12.419 4.949,13.020 5.262,14.160 5.966 C 14.677 6.285,15.370 6.696,15.700 6.880 C 17.012 7.608,17.698 8.163,18.323 9.001 C 19.986 11.228,19.748 13.994,17.723 16.000 C 16.522 17.190,14.843 17.983,12.922 18.268 C 12.270 18.365,10.793 18.364,10.160 18.267 C 6.726 17.739,4.179 15.623,3.736 12.929 C 3.644 12.371,3.679 11.516,3.814 10.991 C 4.235 9.362,5.311 8.064,7.068 7.062 C 7.372 6.889,8.159 6.424,8.817 6.028 C 10.807 4.832,11.231 4.679,12.045 4.864 M12.000 5.235 C 12.000 5.260,12.049 5.321,12.109 5.370 C 12.631 5.801,13.015 6.282,13.260 6.812 C 13.396 7.105,13.560 7.660,13.560 7.824 C 13.560 7.953,13.601 8.040,13.661 8.040 C 13.694 8.040,13.730 7.936,13.762 7.750 C 13.916 6.840,13.438 5.912,12.557 5.411 C 12.243 5.233,12.000 5.156,12.000 5.235 M11.422 5.276 C 11.410 5.296,11.481 5.481,11.580 5.686 C 11.859 6.267,11.931 6.592,11.932 7.280 C 11.933 7.739,11.916 7.921,11.853 8.154 C 11.786 8.398,11.782 8.451,11.828 8.469 C 11.893 8.494,11.953 8.421,12.117 8.117 C 12.282 7.811,12.360 7.484,12.360 7.102 C 12.359 6.494,12.115 5.909,11.648 5.392 C 11.507 5.236,11.462 5.213,11.422 5.276 M10.943 5.323 C 10.932 5.354,10.905 5.553,10.882 5.764 C 10.791 6.618,10.452 7.340,9.845 7.971 C 9.522 8.307,9.547 8.388,9.916 8.202 C 10.292 8.012,10.732 7.572,10.905 7.212 C 11.144 6.715,11.210 6.076,11.081 5.505 C 11.041 5.325,10.973 5.237,10.943 5.323 M10.227 5.690 C 10.197 5.740,10.124 5.865,10.065 5.969 C 9.669 6.668,8.841 7.353,8.092 7.603 C 7.752 7.716,7.752 7.800,8.092 7.800 C 8.800 7.800,9.530 7.398,9.924 6.789 C 10.113 6.497,10.314 6.018,10.346 5.781 C 10.374 5.580,10.320 5.538,10.227 5.690 M8.260 10.514 C 8.002 10.635,7.815 10.819,7.671 11.091 C 7.599 11.227,7.582 11.326,7.581 11.603 C 7.580 11.911,7.593 11.972,7.705 12.190 L 7.831 12.433 7.685 12.460 C 7.452 12.503,7.082 12.721,6.976 12.877 C 6.635 13.379,7.260 13.920,8.180 13.920 C 9.103 13.920,9.725 13.379,9.382 12.875 L 9.284 12.731 9.377 12.689 C 9.726 12.529,10.000 12.068,10.000 11.637 C 10.000 11.251,9.907 11.021,9.643 10.757 C 9.379 10.493,9.149 10.400,8.763 10.400 C 8.557 10.400,8.448 10.425,8.260 10.514 M14.000 10.435 C 13.679 10.540,13.394 10.798,13.245 11.120 C 13.109 11.415,13.105 11.809,13.237 12.109 C 13.322 12.301,13.596 12.607,13.774 12.706 C 13.844 12.745,13.843 12.753,13.764 12.883 C 13.591 13.166,13.698 13.477,14.041 13.687 C 14.671 14.073,15.821 13.956,16.167 13.470 C 16.296 13.290,16.293 13.025,16.162 12.849 C 16.056 12.708,15.678 12.498,15.454 12.456 C 15.378 12.442,15.323 12.419,15.330 12.405 C 15.601 11.905,15.654 11.588,15.526 11.226 C 15.419 10.923,15.222 10.686,14.955 10.541 C 14.778 10.445,14.686 10.423,14.420 10.413 C 14.244 10.407,14.055 10.417,14.000 10.435 M8.643 10.828 C 9.040 11.063,8.873 11.680,8.412 11.680 C 7.979 11.680,7.765 11.196,8.072 10.911 C 8.252 10.743,8.451 10.715,8.643 10.828 M14.201 10.821 C 14.346 10.896,14.440 11.069,14.440 11.262 C 14.440 11.375,14.409 11.439,14.304 11.544 C 14.188 11.660,14.140 11.680,13.980 11.680 C 13.820 11.680,13.772 11.660,13.656 11.544 C 13.545 11.433,13.520 11.378,13.520 11.241 C 13.520 11.033,13.571 10.937,13.733 10.838 C 13.886 10.745,14.043 10.739,14.201 10.821 M10.089 13.508 C 9.714 13.582,9.899 14.259,10.449 14.826 C 10.840 15.229,11.139 15.379,11.560 15.379 C 11.815 15.380,11.900 15.361,12.129 15.253 C 12.505 15.074,12.905 14.668,13.092 14.276 C 13.292 13.853,13.306 13.755,13.186 13.615 L 13.087 13.500 11.634 13.495 C 10.834 13.492,10.139 13.498,10.089 13.508 M12.120 14.350 C 12.219 14.399,12.354 14.484,12.420 14.538 L 12.540 14.638 12.380 14.778 C 11.868 15.228,11.353 15.246,10.831 14.833 L 10.668 14.704 10.854 14.535 C 10.957 14.442,11.117 14.339,11.210 14.304 C 11.453 14.215,11.891 14.237,12.120 14.350 " fill="#373B4D" stroke="none" fill-rule="evenodd"></path></svg>