<svg width="24" height="24" viewBox="0 0 24 24" fill="none" xmlns="http://www.w3.org/2000/svg"><path d="M11.674 2.521 C 11.491 2.573,11.214 2.790,11.088 2.980 C 10.769 3.461,10.836 3.960,11.279 4.403 C 11.510 4.634,11.703 4.696,12.106 4.671 C 12.320 4.657,12.437 4.626,12.572 4.547 C 12.930 4.337,13.090 4.053,13.095 3.619 C 13.099 3.266,12.953 2.933,12.727 2.778 C 12.476 2.606,11.884 2.462,11.674 2.521 M15.274 2.521 C 15.091 2.573,14.814 2.790,14.688 2.980 C 14.369 3.461,14.436 3.960,14.879 4.403 C 15.110 4.634,15.303 4.696,15.706 4.671 C 15.920 4.657,16.037 4.626,16.172 4.547 C 16.530 4.337,16.690 4.053,16.695 3.619 C 16.699 3.266,16.553 2.933,16.327 2.778 C 16.076 2.606,15.484 2.462,15.274 2.521 M7.759 2.687 C 7.551 2.845,7.339 3.143,7.281 3.358 C 7.231 3.542,7.284 3.860,7.406 4.112 C 7.560 4.430,8.043 4.720,8.421 4.720 C 8.905 4.720,9.348 4.347,9.505 3.808 C 9.562 3.613,9.562 3.577,9.501 3.387 C 9.400 3.072,9.188 2.776,8.990 2.674 C 8.854 2.604,8.731 2.582,8.379 2.568 L 7.938 2.551 7.759 2.687 M11.640 6.181 C 11.283 6.292,11.000 6.630,10.893 7.074 C 10.863 7.198,10.827 7.548,10.813 7.850 L 10.788 8.400 10.200 8.400 L 9.613 8.400 9.587 7.730 C 9.573 7.361,9.550 7.000,9.536 6.928 C 9.504 6.770,9.090 6.337,8.891 6.254 C 8.699 6.173,8.211 6.142,8.008 6.198 C 7.821 6.248,7.567 6.453,7.444 6.654 C 7.339 6.826,7.252 7.181,7.198 7.660 C 7.122 8.344,7.122 8.344,6.543 8.601 C 6.106 8.794,5.797 9.012,5.456 9.366 C 5.150 9.682,5.043 9.858,4.945 10.201 C 4.867 10.474,4.800 11.131,4.800 11.619 L 4.800 11.991 4.624 12.035 C 4.354 12.103,3.835 12.332,3.617 12.480 C 3.337 12.670,2.839 13.189,2.711 13.425 C 2.652 13.536,2.577 13.725,2.545 13.846 C 2.472 14.128,2.386 14.938,2.416 15.059 C 2.429 15.111,2.523 15.205,2.632 15.275 C 3.010 15.518,4.308 16.009,4.712 16.063 C 4.920 16.090,5.337 15.969,6.600 15.511 L 7.260 15.272 8.380 15.252 L 9.500 15.231 10.472 15.598 C 11.006 15.800,11.569 15.991,11.722 16.023 C 12.090 16.100,12.306 16.054,13.315 15.684 C 14.418 15.280,14.398 15.284,15.580 15.232 L 16.620 15.186 17.460 15.518 C 18.709 16.011,18.815 16.044,19.160 16.045 C 19.388 16.046,19.554 16.016,19.849 15.921 C 20.630 15.671,21.326 15.346,21.517 15.143 C 21.607 15.048,21.610 15.024,21.585 14.691 C 21.479 13.308,20.865 12.526,19.551 12.098 L 19.212 11.987 19.187 11.383 C 19.147 10.404,19.021 9.918,18.705 9.517 C 18.386 9.112,17.706 8.672,17.096 8.478 L 16.812 8.388 16.787 7.864 C 16.760 7.267,16.658 6.805,16.501 6.568 C 16.440 6.477,16.309 6.362,16.188 6.295 C 15.997 6.190,15.946 6.180,15.577 6.180 C 15.204 6.180,15.162 6.188,15.007 6.291 C 14.607 6.555,14.445 6.974,14.411 7.830 L 14.388 8.400 13.800 8.400 L 13.212 8.400 13.187 7.870 C 13.133 6.706,12.891 6.295,12.181 6.164 C 11.893 6.110,11.866 6.111,11.640 6.181 M8.080 17.589 C 7.913 17.615,7.743 17.675,6.600 18.110 L 5.500 18.529 5.000 18.504 C 4.038 18.455,3.297 18.292,2.640 17.985 L 2.420 17.882 2.409 19.330 L 2.399 20.778 2.769 21.149 L 3.140 21.519 8.460 21.559 C 11.386 21.581,15.338 21.599,17.243 21.600 L 20.706 21.600 20.951 21.388 C 21.459 20.948,21.514 20.815,21.562 19.908 C 21.602 19.147,21.612 17.945,21.578 17.912 C 21.567 17.900,21.393 17.961,21.192 18.048 C 20.458 18.364,19.663 18.505,18.794 18.472 C 18.373 18.456,18.302 18.440,17.820 18.263 C 17.534 18.158,17.066 17.976,16.780 17.858 L 16.260 17.644 15.640 17.618 L 15.020 17.593 14.640 17.760 C 13.905 18.084,13.265 18.325,12.964 18.391 C 12.744 18.439,12.461 18.458,11.940 18.459 L 11.220 18.460 9.960 18.033 C 8.716 17.612,8.405 17.538,8.080 17.589 " fill="#373B4D" stroke="none" fill-rule="evenodd"></path></svg>