<svg width="24" height="24" viewBox="0 0 24 24" fill="none" xmlns="http://www.w3.org/2000/svg"><path d="M7.900 2.552 C 7.677 2.657,7.333 3.043,7.276 3.252 C 7.215 3.481,7.252 3.877,7.356 4.091 C 7.608 4.612,8.220 4.879,8.755 4.702 C 9.011 4.617,9.361 4.306,9.482 4.056 C 9.556 3.903,9.567 3.826,9.552 3.567 C 9.530 3.211,9.444 3.013,9.213 2.794 C 8.976 2.570,8.834 2.515,8.425 2.495 C 8.124 2.479,8.032 2.489,7.900 2.552 M11.438 2.591 C 11.101 2.808,10.840 3.248,10.840 3.600 C 10.840 3.984,11.146 4.461,11.497 4.625 C 11.722 4.729,12.137 4.754,12.408 4.678 C 12.623 4.619,12.979 4.278,13.067 4.048 C 13.170 3.778,13.163 3.311,13.051 3.100 C 12.848 2.714,12.490 2.514,11.960 2.490 C 11.639 2.475,11.610 2.480,11.438 2.591 M15.038 2.591 C 14.701 2.808,14.440 3.248,14.440 3.600 C 14.440 3.984,14.746 4.461,15.097 4.625 C 15.322 4.729,15.737 4.754,16.008 4.678 C 16.223 4.619,16.579 4.278,16.667 4.048 C 16.770 3.778,16.763 3.311,16.651 3.100 C 16.448 2.714,16.090 2.514,15.560 2.490 C 15.239 2.475,15.210 2.480,15.038 2.591 M8.040 6.107 C 7.811 6.155,7.434 6.511,7.328 6.780 C 7.264 6.942,7.202 7.398,7.198 7.740 C 7.196 7.894,7.182 8.100,7.167 8.198 L 7.140 8.377 6.824 8.467 C 6.170 8.655,5.637 8.995,5.294 9.444 C 4.930 9.921,4.851 10.221,4.814 11.265 L 4.788 11.990 4.484 12.057 C 4.317 12.093,4.027 12.197,3.840 12.287 C 3.560 12.422,3.434 12.516,3.131 12.819 C 2.586 13.362,2.461 13.700,2.434 14.711 L 2.420 15.203 3.119 15.525 C 4.695 16.252,4.884 16.256,6.345 15.600 C 7.240 15.198,7.227 15.201,8.360 15.173 L 9.340 15.149 9.700 15.290 C 9.898 15.367,10.366 15.560,10.740 15.719 C 11.970 16.241,12.031 16.239,13.585 15.585 C 14.614 15.153,14.633 15.150,15.716 15.168 L 16.620 15.183 17.040 15.349 C 17.271 15.440,17.712 15.621,18.020 15.751 C 18.675 16.027,18.865 16.080,19.208 16.080 C 19.613 16.079,19.989 15.948,21.130 15.410 C 21.511 15.230,21.600 15.172,21.600 15.104 C 21.600 15.058,21.581 14.772,21.558 14.468 C 21.490 13.564,21.362 13.276,20.796 12.743 C 20.420 12.389,20.016 12.172,19.536 12.063 L 19.212 11.990 19.186 11.265 C 19.147 10.190,19.063 9.878,18.691 9.430 C 18.286 8.941,17.712 8.587,17.110 8.456 L 16.800 8.388 16.799 8.004 C 16.797 6.939,16.665 6.543,16.209 6.241 C 16.034 6.125,16.008 6.120,15.600 6.120 L 15.174 6.120 14.958 6.271 C 14.726 6.433,14.535 6.700,14.477 6.946 C 14.457 7.031,14.428 7.393,14.414 7.750 L 14.387 8.400 13.794 8.400 L 13.200 8.400 13.199 8.010 C 13.197 6.939,13.065 6.543,12.609 6.241 C 12.434 6.125,12.408 6.120,12.000 6.120 L 11.574 6.120 11.358 6.271 C 11.126 6.433,10.935 6.700,10.877 6.946 C 10.857 7.031,10.828 7.393,10.814 7.750 L 10.787 8.400 10.200 8.400 L 9.612 8.400 9.589 7.666 C 9.573 7.159,9.548 6.890,9.508 6.796 C 9.437 6.629,9.063 6.249,8.900 6.179 C 8.768 6.122,8.198 6.075,8.040 6.107 M7.320 17.821 C 6.913 17.990,6.346 18.212,6.060 18.314 L 5.540 18.500 4.840 18.499 C 4.238 18.498,4.090 18.484,3.780 18.404 C 3.395 18.304,2.958 18.141,2.639 17.979 C 2.531 17.925,2.430 17.880,2.415 17.880 C 2.370 17.880,2.432 20.604,2.481 20.773 C 2.539 20.971,3.010 21.458,3.180 21.493 C 3.246 21.507,7.192 21.539,11.949 21.563 L 20.599 21.608 20.769 21.525 C 20.963 21.431,21.376 21.040,21.471 20.860 C 21.515 20.777,21.543 20.563,21.564 20.160 C 21.599 19.485,21.610 17.880,21.579 17.880 C 21.567 17.880,21.437 17.940,21.289 18.014 C 20.700 18.309,20.018 18.476,19.279 18.509 C 18.524 18.542,18.165 18.454,16.970 17.944 C 16.119 17.581,15.988 17.544,15.560 17.545 C 15.134 17.545,15.152 17.539,14.010 18.037 C 13.026 18.466,12.887 18.497,12.000 18.496 C 11.308 18.496,11.237 18.489,10.900 18.386 C 10.702 18.325,10.263 18.157,9.924 18.013 C 9.019 17.628,8.789 17.556,8.400 17.534 L 8.060 17.515 7.320 17.821 " fill="#373B4D" stroke="none" fill-rule="evenodd"></path></svg>