<svg width="24" height="24" viewBox="0 0 24 24" fill="none" xmlns="http://www.w3.org/2000/svg"><path d="M11.530 2.564 C 11.436 2.611,11.280 2.737,11.183 2.845 C 10.767 3.308,10.785 3.932,11.226 4.374 C 11.477 4.625,11.654 4.699,12.000 4.697 C 12.484 4.695,12.830 4.485,13.016 4.080 C 13.134 3.823,13.133 3.323,13.013 3.100 C 12.837 2.771,12.540 2.591,12.056 2.521 C 11.697 2.470,11.726 2.467,11.530 2.564 M15.130 2.564 C 15.036 2.611,14.880 2.737,14.783 2.845 C 14.367 3.308,14.385 3.932,14.826 4.374 C 15.077 4.625,15.254 4.699,15.600 4.697 C 16.084 4.695,16.430 4.485,16.616 4.080 C 16.734 3.823,16.733 3.323,16.613 3.100 C 16.437 2.771,16.140 2.591,15.656 2.521 C 15.297 2.470,15.326 2.467,15.130 2.564 M7.889 2.584 C 7.741 2.660,7.429 2.991,7.328 3.177 C 7.224 3.373,7.240 3.774,7.364 4.040 C 7.559 4.460,7.881 4.676,8.361 4.711 C 8.572 4.726,8.663 4.712,8.831 4.640 C 9.242 4.463,9.592 3.933,9.547 3.555 C 9.502 3.176,9.236 2.763,8.948 2.627 C 8.874 2.592,8.646 2.554,8.419 2.541 C 8.090 2.521,7.997 2.528,7.889 2.584 M8.049 6.158 C 7.859 6.205,7.610 6.390,7.477 6.585 C 7.327 6.802,7.256 7.082,7.198 7.682 C 7.129 8.399,7.163 8.342,6.679 8.537 C 6.122 8.761,5.788 8.979,5.440 9.346 C 4.969 9.841,4.857 10.195,4.814 11.324 L 4.788 11.988 4.585 12.040 C 4.016 12.186,3.510 12.476,3.120 12.880 C 2.635 13.382,2.515 13.682,2.439 14.575 C 2.399 15.050,2.402 15.096,2.468 15.169 C 2.682 15.406,4.422 16.080,4.820 16.080 C 5.019 16.080,5.554 15.913,6.346 15.604 C 6.740 15.451,7.187 15.302,7.341 15.274 C 7.515 15.242,7.972 15.222,8.560 15.221 L 9.500 15.220 10.140 15.475 C 11.143 15.874,11.633 16.040,11.876 16.065 C 12.170 16.096,12.418 16.029,13.389 15.656 C 13.819 15.491,14.270 15.330,14.392 15.298 C 14.539 15.260,14.953 15.232,15.618 15.214 L 16.623 15.188 17.581 15.571 C 18.711 16.023,18.967 16.097,19.300 16.067 C 19.707 16.029,21.019 15.522,21.420 15.247 C 21.555 15.154,21.582 15.112,21.593 14.978 C 21.614 14.718,21.520 14.045,21.416 13.715 C 21.192 13.005,20.511 12.398,19.616 12.111 L 19.212 11.981 19.187 11.341 C 19.148 10.307,19.036 9.893,18.679 9.463 C 18.323 9.034,17.659 8.621,17.070 8.461 L 16.811 8.391 16.787 7.826 C 16.759 7.161,16.686 6.821,16.517 6.576 C 16.347 6.328,16.153 6.212,15.820 6.159 C 15.350 6.084,15.101 6.151,14.826 6.426 C 14.527 6.725,14.445 7.001,14.412 7.810 L 14.388 8.400 13.800 8.400 L 13.212 8.400 13.187 7.830 C 13.149 6.962,13.007 6.555,12.657 6.309 C 12.470 6.178,12.053 6.101,11.749 6.142 C 11.342 6.197,10.986 6.578,10.883 7.068 C 10.857 7.196,10.825 7.548,10.812 7.850 L 10.788 8.400 10.200 8.400 L 9.612 8.400 9.586 7.710 C 9.571 7.330,9.547 6.966,9.533 6.900 C 9.495 6.721,9.017 6.258,8.818 6.207 C 8.580 6.146,8.196 6.121,8.049 6.158 M7.680 17.696 C 7.471 17.769,6.896 17.987,6.402 18.179 L 5.503 18.528 4.942 18.501 C 3.958 18.454,3.284 18.305,2.682 18.001 C 2.550 17.935,2.430 17.880,2.415 17.880 C 2.401 17.880,2.398 18.539,2.409 19.344 L 2.430 20.809 2.775 21.154 L 3.121 21.500 5.050 21.526 C 6.112 21.540,10.067 21.564,13.840 21.580 L 20.700 21.607 21.007 21.345 C 21.466 20.951,21.520 20.819,21.562 19.971 C 21.600 19.214,21.611 17.880,21.579 17.880 C 21.567 17.880,21.455 17.932,21.329 17.995 C 21.037 18.142,20.589 18.291,20.158 18.386 C 19.898 18.443,19.654 18.460,19.100 18.460 L 18.380 18.460 17.840 18.273 C 17.542 18.170,17.056 17.981,16.760 17.854 L 16.220 17.623 15.630 17.608 L 15.039 17.593 14.276 17.918 C 13.112 18.413,12.965 18.450,12.090 18.471 C 11.236 18.491,11.155 18.473,9.934 18.016 C 8.554 17.498,8.330 17.466,7.680 17.696 " fill="#373B4D" stroke="none" fill-rule="evenodd"></path></svg>