<svg width="24" height="24" viewBox="0 0 24 24" fill="none" xmlns="http://www.w3.org/2000/svg"><path d="M8.140 2.435 C 7.778 2.529,7.454 2.793,7.307 3.114 C 7.184 3.382,7.187 3.832,7.313 4.088 C 7.431 4.327,7.673 4.569,7.912 4.687 C 8.195 4.827,8.622 4.818,8.929 4.668 C 9.662 4.307,9.821 3.338,9.242 2.758 C 8.982 2.498,8.473 2.349,8.140 2.435 M11.800 2.441 C 11.073 2.532,10.607 3.383,10.913 4.060 C 11.265 4.838,12.255 5.025,12.852 4.428 C 13.264 4.016,13.305 3.346,12.946 2.876 C 12.703 2.558,12.248 2.385,11.800 2.441 M15.400 2.441 C 14.673 2.532,14.207 3.383,14.513 4.060 C 14.865 4.838,15.855 5.025,16.452 4.428 C 16.864 4.016,16.905 3.346,16.546 2.876 C 16.303 2.558,15.848 2.385,15.400 2.441 M7.876 6.140 C 7.648 6.258,7.355 6.578,7.283 6.785 C 7.248 6.883,7.222 7.206,7.211 7.667 L 7.192 8.394 6.986 8.419 C 6.031 8.539,5.239 9.166,4.932 10.045 C 4.838 10.315,4.828 10.411,4.809 11.167 L 4.789 11.994 4.584 12.020 C 3.846 12.112,3.188 12.520,2.774 13.142 C 2.507 13.542,2.385 14.105,2.408 14.832 L 2.420 15.203 2.740 15.335 C 2.916 15.407,3.285 15.585,3.560 15.731 C 4.120 16.028,4.414 16.120,4.800 16.120 C 5.194 16.120,5.479 16.028,6.110 15.696 C 7.022 15.216,7.537 15.076,8.402 15.075 C 8.944 15.075,9.547 15.173,9.931 15.324 C 10.046 15.369,10.392 15.539,10.701 15.701 C 11.322 16.028,11.608 16.120,12.000 16.120 C 12.394 16.120,12.679 16.028,13.310 15.696 C 14.222 15.216,14.737 15.076,15.602 15.075 C 16.144 15.075,16.747 15.173,17.131 15.324 C 17.246 15.369,17.592 15.539,17.901 15.701 C 18.522 16.028,18.808 16.120,19.200 16.120 C 19.586 16.120,19.880 16.028,20.440 15.731 C 20.715 15.585,21.084 15.407,21.260 15.335 L 21.580 15.203 21.592 14.832 C 21.615 14.105,21.493 13.542,21.226 13.142 C 20.812 12.520,20.154 12.112,19.416 12.020 L 19.211 11.994 19.191 11.167 C 19.172 10.411,19.162 10.315,19.068 10.045 C 18.762 9.169,17.966 8.539,17.015 8.420 L 16.810 8.394 16.789 7.667 C 16.778 7.267,16.747 6.868,16.721 6.780 C 16.656 6.563,16.240 6.155,16.015 6.089 C 15.804 6.026,15.396 6.026,15.185 6.089 C 14.960 6.155,14.544 6.563,14.479 6.780 C 14.453 6.868,14.422 7.269,14.411 7.670 L 14.390 8.400 13.800 8.400 L 13.210 8.400 13.189 7.670 C 13.178 7.269,13.147 6.868,13.121 6.780 C 13.056 6.563,12.640 6.155,12.415 6.089 C 12.325 6.062,12.138 6.040,12.000 6.040 C 11.862 6.040,11.675 6.062,11.585 6.089 C 11.360 6.155,10.944 6.563,10.879 6.780 C 10.853 6.868,10.822 7.269,10.811 7.670 L 10.790 8.400 10.200 8.400 L 9.610 8.400 9.593 7.650 C 9.579 6.969,9.569 6.883,9.486 6.711 C 9.370 6.474,9.021 6.151,8.811 6.088 C 8.533 6.005,8.087 6.029,7.876 6.140 M7.920 17.535 C 7.798 17.562,7.438 17.721,7.113 17.893 C 6.282 18.331,5.819 18.478,5.060 18.542 C 4.313 18.604,3.222 18.346,2.590 17.958 L 2.392 17.836 2.406 19.268 C 2.420 20.666,2.422 20.704,2.512 20.886 C 2.622 21.111,2.939 21.416,3.171 21.521 C 3.336 21.596,3.544 21.598,12.000 21.598 C 20.456 21.598,20.664 21.596,20.829 21.521 C 21.061 21.416,21.378 21.111,21.488 20.886 C 21.578 20.704,21.580 20.666,21.594 19.268 L 21.608 17.836 21.407 17.960 C 20.722 18.381,19.621 18.619,18.794 18.525 C 18.099 18.446,17.804 18.351,16.980 17.939 C 16.139 17.518,15.927 17.457,15.440 17.494 C 15.063 17.522,14.904 17.579,14.325 17.890 C 13.755 18.196,13.509 18.300,13.115 18.401 C 12.599 18.533,12.056 18.578,11.599 18.526 C 10.889 18.445,10.567 18.341,9.776 17.936 C 8.872 17.474,8.532 17.401,7.920 17.535 " fill="#373B4D" stroke="none" fill-rule="evenodd"></path></svg>