<svg width="24" height="24" viewBox="0 0 24 24" fill="none" xmlns="http://www.w3.org/2000/svg"><path d="M11.397 2.637 C 10.782 3.083,10.691 3.814,11.183 4.358 C 11.382 4.578,11.602 4.686,11.902 4.710 C 12.595 4.766,13.120 4.299,13.120 3.627 C 13.120 3.474,13.099 3.281,13.074 3.197 C 12.970 2.850,12.609 2.590,12.136 2.521 C 11.689 2.457,11.633 2.465,11.397 2.637 M14.997 2.637 C 14.382 3.083,14.291 3.814,14.783 4.358 C 14.982 4.578,15.202 4.686,15.502 4.710 C 16.195 4.766,16.720 4.299,16.720 3.627 C 16.720 3.474,16.699 3.281,16.674 3.197 C 16.570 2.850,16.209 2.590,15.736 2.521 C 15.289 2.457,15.233 2.465,14.997 2.637 M7.776 2.643 C 7.438 2.909,7.241 3.242,7.240 3.546 C 7.240 3.770,7.391 4.175,7.540 4.349 C 7.842 4.702,8.423 4.837,8.842 4.652 C 9.071 4.551,9.391 4.231,9.492 4.003 C 9.657 3.630,9.487 3.022,9.138 2.736 C 8.925 2.562,8.771 2.522,8.296 2.521 C 7.949 2.520,7.924 2.526,7.776 2.643 M7.983 6.149 C 7.906 6.161,7.781 6.252,7.621 6.413 C 7.313 6.723,7.253 6.908,7.196 7.739 C 7.174 8.069,7.146 8.347,7.136 8.358 C 7.125 8.368,6.927 8.444,6.696 8.525 C 6.136 8.722,5.883 8.878,5.499 9.260 C 4.974 9.783,4.856 10.139,4.812 11.323 L 4.788 11.985 4.504 12.056 C 4.010 12.180,3.592 12.408,3.230 12.753 C 2.850 13.114,2.637 13.424,2.547 13.747 C 2.483 13.977,2.393 15.026,2.427 15.156 C 2.448 15.233,3.456 15.701,4.047 15.907 C 4.797 16.169,5.102 16.132,6.260 15.638 C 6.634 15.478,7.030 15.323,7.140 15.294 C 7.250 15.264,7.716 15.219,8.175 15.194 C 9.275 15.133,9.371 15.149,10.353 15.557 C 11.627 16.087,11.911 16.151,12.407 16.022 C 12.530 15.990,12.988 15.821,13.425 15.646 C 14.591 15.181,14.494 15.200,15.657 15.200 L 16.660 15.200 17.747 15.640 C 18.919 16.115,18.954 16.123,19.503 16.043 C 19.903 15.985,21.485 15.299,21.566 15.149 C 21.594 15.097,21.599 14.934,21.581 14.685 C 21.511 13.727,21.372 13.346,20.926 12.889 C 20.493 12.445,20.085 12.213,19.471 12.058 L 19.212 11.993 19.187 11.327 C 19.145 10.212,19.061 9.903,18.682 9.452 C 18.262 8.953,17.778 8.649,17.124 8.474 L 16.812 8.390 16.787 7.785 C 16.753 6.967,16.683 6.720,16.405 6.427 C 16.196 6.206,16.076 6.157,15.678 6.131 C 15.398 6.113,15.284 6.123,15.144 6.176 C 14.933 6.257,14.665 6.533,14.554 6.785 C 14.463 6.989,14.402 7.491,14.401 8.030 L 14.400 8.400 13.806 8.400 L 13.212 8.400 13.187 7.790 C 13.152 6.950,13.071 6.677,12.773 6.395 C 12.553 6.186,12.477 6.157,12.079 6.131 C 11.798 6.113,11.684 6.123,11.544 6.176 C 11.333 6.257,11.065 6.533,10.954 6.785 C 10.863 6.989,10.802 7.491,10.801 8.030 L 10.800 8.400 10.206 8.400 L 9.613 8.400 9.586 7.650 C 9.560 6.925,9.555 6.894,9.449 6.722 C 9.312 6.499,8.971 6.218,8.771 6.162 C 8.624 6.121,8.217 6.115,7.983 6.149 M8.051 17.562 C 7.959 17.580,7.500 17.747,7.031 17.933 C 6.563 18.119,6.009 18.330,5.800 18.401 C 5.422 18.530,5.416 18.531,4.840 18.508 C 3.980 18.475,3.307 18.316,2.671 17.995 C 2.545 17.932,2.433 17.880,2.421 17.880 C 2.392 17.880,2.401 19.625,2.434 20.266 L 2.461 20.792 2.642 21.021 C 2.741 21.147,2.898 21.305,2.991 21.372 L 3.159 21.493 5.829 21.523 C 7.298 21.540,11.236 21.567,14.580 21.583 L 20.660 21.612 20.917 21.416 C 21.296 21.127,21.475 20.896,21.522 20.636 C 21.568 20.386,21.624 17.880,21.584 17.880 C 21.569 17.880,21.464 17.927,21.350 17.985 C 20.805 18.261,20.206 18.421,19.497 18.479 C 18.599 18.552,18.218 18.467,16.817 17.881 L 16.144 17.600 15.581 17.600 L 15.017 17.600 14.232 17.937 C 13.800 18.123,13.326 18.312,13.177 18.358 C 12.789 18.478,12.019 18.536,11.505 18.484 C 11.028 18.436,10.997 18.427,9.826 17.973 C 8.722 17.545,8.453 17.483,8.051 17.562 " fill="#373B4D" stroke="none" fill-rule="evenodd"></path></svg>