<svg width="24" height="24" viewBox="0 0 24 24" fill="none" xmlns="http://www.w3.org/2000/svg"><path d="M11.520 2.562 C 10.796 3.007,10.663 3.811,11.218 4.380 C 11.471 4.638,11.758 4.744,12.112 4.707 C 12.767 4.640,13.159 4.157,13.110 3.476 C 13.069 2.894,12.678 2.569,11.939 2.501 C 11.696 2.479,11.642 2.487,11.520 2.562 M15.120 2.562 C 14.396 3.007,14.263 3.811,14.818 4.380 C 15.071 4.638,15.358 4.744,15.712 4.707 C 16.367 4.640,16.759 4.157,16.710 3.476 C 16.669 2.894,16.278 2.569,15.539 2.501 C 15.296 2.479,15.242 2.487,15.120 2.562 M7.860 2.591 C 7.658 2.721,7.377 3.052,7.301 3.251 C 7.215 3.478,7.235 3.746,7.359 4.028 C 7.490 4.324,7.620 4.464,7.886 4.597 C 8.199 4.753,8.593 4.769,8.866 4.637 C 9.227 4.462,9.560 3.990,9.560 3.653 C 9.560 3.296,9.304 2.824,9.021 2.659 C 8.859 2.564,8.783 2.548,8.408 2.532 C 8.035 2.517,7.965 2.524,7.860 2.591 M8.013 6.156 C 7.846 6.199,7.602 6.395,7.461 6.599 C 7.308 6.820,7.248 7.075,7.195 7.739 C 7.170 8.047,7.134 8.320,7.114 8.345 C 7.095 8.370,6.939 8.440,6.769 8.500 C 6.126 8.728,5.721 8.996,5.318 9.463 C 5.127 9.683,5.029 9.867,4.945 10.161 C 4.866 10.438,4.800 11.093,4.800 11.595 L 4.800 11.982 4.515 12.056 C 4.358 12.096,4.068 12.210,3.870 12.309 C 3.217 12.636,2.619 13.336,2.520 13.887 C 2.462 14.215,2.397 15.067,2.426 15.140 C 2.483 15.289,3.952 15.914,4.525 16.033 C 4.807 16.091,4.854 16.091,5.140 16.029 C 5.311 15.992,5.830 15.809,6.295 15.624 C 7.108 15.298,7.158 15.284,7.620 15.239 C 7.884 15.213,8.370 15.189,8.700 15.186 C 9.397 15.179,9.421 15.185,10.458 15.600 C 11.361 15.961,11.612 16.043,11.906 16.069 C 12.205 16.095,12.437 16.030,13.460 15.631 C 14.562 15.201,14.410 15.231,15.591 15.211 L 16.642 15.192 17.451 15.522 C 18.883 16.105,19.058 16.145,19.593 16.019 C 20.055 15.910,21.196 15.420,21.475 15.210 L 21.611 15.108 21.583 14.704 C 21.516 13.730,21.350 13.313,20.831 12.816 C 20.449 12.449,20.039 12.216,19.536 12.079 L 19.212 11.991 19.187 11.324 C 19.146 10.249,19.051 9.905,18.659 9.429 C 18.302 8.996,17.690 8.622,17.070 8.459 L 16.800 8.388 16.800 8.044 C 16.799 7.599,16.739 7.076,16.660 6.839 C 16.583 6.609,16.362 6.343,16.162 6.241 C 15.956 6.136,15.455 6.094,15.215 6.161 C 14.962 6.232,14.633 6.559,14.545 6.826 C 14.453 7.106,14.402 7.521,14.401 7.990 L 14.400 8.400 13.806 8.400 L 13.212 8.400 13.187 7.810 C 13.150 6.929,13.038 6.603,12.672 6.308 C 12.549 6.209,12.466 6.182,12.181 6.147 C 11.772 6.096,11.545 6.142,11.321 6.319 C 10.960 6.605,10.845 6.941,10.811 7.810 L 10.788 8.400 10.200 8.400 L 9.613 8.400 9.588 7.682 C 9.571 7.190,9.544 6.920,9.504 6.823 C 9.431 6.648,9.122 6.343,8.907 6.234 C 8.729 6.143,8.231 6.100,8.013 6.156 M8.120 17.561 C 7.935 17.592,7.494 17.751,6.280 18.226 L 5.580 18.500 4.940 18.495 C 4.043 18.487,3.344 18.333,2.671 17.995 C 2.545 17.932,2.433 17.880,2.421 17.880 C 2.391 17.880,2.395 19.547,2.427 20.237 L 2.453 20.814 2.777 21.144 L 3.100 21.474 3.360 21.497 C 3.683 21.525,14.521 21.601,18.080 21.600 L 20.700 21.599 20.990 21.358 C 21.339 21.069,21.465 20.889,21.520 20.602 C 21.567 20.352,21.627 17.880,21.585 17.880 C 21.570 17.880,21.449 17.935,21.315 18.002 C 20.449 18.440,19.095 18.617,18.260 18.403 C 17.908 18.313,17.156 18.033,16.486 17.744 C 16.155 17.601,16.149 17.600,15.584 17.600 L 15.016 17.600 14.498 17.824 C 13.101 18.427,12.871 18.488,11.980 18.491 C 11.240 18.493,11.105 18.463,10.008 18.044 C 8.789 17.579,8.481 17.500,8.120 17.561 " fill="#373B4D" stroke="none" fill-rule="evenodd"></path></svg>