<svg width="24" height="24" viewBox="0 0 24 24" fill="none" xmlns="http://www.w3.org/2000/svg"><path d="M7.963 2.525 C 7.775 2.581,7.387 2.985,7.299 3.216 C 7.159 3.583,7.304 4.148,7.610 4.424 C 7.856 4.647,8.092 4.738,8.420 4.738 C 8.757 4.738,8.958 4.646,9.237 4.366 C 9.512 4.090,9.575 3.929,9.548 3.572 C 9.535 3.394,9.492 3.208,9.441 3.101 C 9.344 2.902,9.093 2.658,8.906 2.580 C 8.734 2.509,8.132 2.474,7.963 2.525 M11.434 2.597 C 10.917 2.945,10.716 3.577,10.968 4.062 C 11.122 4.358,11.370 4.588,11.612 4.660 C 12.101 4.805,12.567 4.689,12.865 4.346 C 13.072 4.108,13.130 3.946,13.132 3.598 C 13.135 3.231,13.034 2.990,12.792 2.782 C 12.586 2.606,12.346 2.525,11.942 2.496 C 11.630 2.473,11.614 2.476,11.434 2.597 M15.034 2.597 C 14.517 2.945,14.316 3.577,14.568 4.062 C 14.722 4.358,14.970 4.588,15.212 4.660 C 15.701 4.805,16.167 4.689,16.465 4.346 C 16.672 4.108,16.730 3.946,16.732 3.598 C 16.735 3.231,16.634 2.990,16.392 2.782 C 16.186 2.606,15.946 2.525,15.542 2.496 C 15.230 2.473,15.214 2.476,15.034 2.597 M7.856 6.196 C 7.667 6.311,7.437 6.562,7.357 6.740 C 7.267 6.940,7.202 7.333,7.197 7.700 C 7.195 7.854,7.181 8.068,7.166 8.176 L 7.140 8.372 6.800 8.479 C 6.144 8.686,5.619 9.025,5.296 9.452 C 4.938 9.925,4.853 10.247,4.814 11.282 L 4.788 11.984 4.456 12.069 C 3.898 12.214,3.549 12.410,3.160 12.800 C 2.800 13.160,2.608 13.466,2.521 13.820 C 2.466 14.045,2.396 15.166,2.435 15.205 C 2.449 15.219,2.721 15.347,3.040 15.491 C 4.714 16.243,4.873 16.250,6.300 15.620 C 7.148 15.247,7.178 15.239,7.980 15.194 C 8.376 15.172,8.871 15.160,9.080 15.168 C 9.458 15.181,9.465 15.183,10.380 15.567 C 11.451 16.015,11.651 16.080,11.970 16.080 C 12.306 16.080,12.479 16.029,13.420 15.650 C 14.670 15.146,14.511 15.180,15.642 15.182 L 16.624 15.184 17.702 15.622 L 18.780 16.059 19.180 16.059 C 19.514 16.059,19.632 16.041,19.892 15.949 C 20.281 15.812,21.475 15.262,21.554 15.183 C 21.604 15.133,21.606 15.045,21.565 14.551 C 21.485 13.586,21.387 13.341,20.878 12.835 C 20.599 12.558,20.459 12.454,20.168 12.308 C 19.968 12.208,19.672 12.097,19.509 12.061 L 19.212 11.995 19.187 11.307 C 19.143 10.089,19.042 9.790,18.484 9.237 C 18.206 8.961,18.066 8.857,17.771 8.710 C 17.570 8.609,17.271 8.497,17.108 8.461 L 16.811 8.394 16.789 7.767 C 16.757 6.872,16.644 6.560,16.248 6.276 C 16.066 6.145,16.045 6.140,15.630 6.126 C 15.131 6.111,15.050 6.143,14.742 6.486 C 14.496 6.760,14.444 6.957,14.413 7.749 L 14.387 8.400 13.799 8.400 L 13.211 8.400 13.189 7.770 C 13.157 6.872,13.044 6.561,12.648 6.276 C 12.466 6.145,12.445 6.140,12.030 6.126 C 11.531 6.111,11.450 6.143,11.142 6.486 C 10.896 6.760,10.844 6.957,10.813 7.749 L 10.787 8.400 10.200 8.400 L 9.612 8.400 9.586 7.690 C 9.571 7.300,9.548 6.926,9.533 6.861 C 9.494 6.682,9.019 6.218,8.820 6.164 C 8.548 6.090,8.000 6.108,7.856 6.196 M7.300 17.826 C 6.904 17.990,6.332 18.213,6.029 18.322 C 5.498 18.513,5.464 18.520,5.049 18.519 C 4.141 18.518,3.374 18.350,2.686 18.003 C 2.552 17.935,2.433 17.880,2.421 17.880 C 2.389 17.880,2.400 19.409,2.436 20.149 L 2.468 20.798 2.637 21.016 C 2.817 21.249,3.011 21.416,3.175 21.478 C 3.236 21.501,6.662 21.535,11.953 21.565 L 20.630 21.614 20.831 21.486 C 21.070 21.332,21.424 20.968,21.482 20.814 C 21.505 20.753,21.541 20.478,21.561 20.202 C 21.600 19.665,21.614 17.880,21.579 17.880 C 21.567 17.880,21.450 17.935,21.318 18.001 C 20.665 18.330,19.922 18.497,19.100 18.498 C 18.339 18.499,18.167 18.451,16.660 17.816 L 16.100 17.580 15.580 17.580 L 15.060 17.580 14.260 17.926 C 13.820 18.117,13.344 18.312,13.201 18.360 C 12.717 18.522,11.510 18.552,11.000 18.413 C 10.879 18.380,10.356 18.184,9.839 17.978 C 8.420 17.412,8.313 17.405,7.300 17.826 " fill="#373B4D" stroke="none" fill-rule="evenodd"></path></svg>