<svg width="24" height="24" viewBox="0 0 24 24" fill="none" xmlns="http://www.w3.org/2000/svg"><path d="M8.056 2.475 C 7.759 2.552,7.379 2.914,7.281 3.213 C 7.212 3.425,7.244 3.901,7.341 4.100 C 7.528 4.487,7.964 4.776,8.360 4.776 C 8.714 4.776,8.976 4.664,9.240 4.400 C 9.506 4.134,9.577 3.967,9.579 3.600 C 9.581 3.146,9.295 2.719,8.869 2.541 C 8.696 2.469,8.228 2.431,8.056 2.475 M11.563 2.513 C 11.309 2.609,11.026 2.906,10.919 3.188 C 10.755 3.624,10.854 4.080,11.186 4.415 C 11.422 4.654,11.641 4.739,12.020 4.739 C 12.398 4.739,12.589 4.656,12.861 4.377 C 13.144 4.086,13.233 3.658,13.101 3.217 C 12.986 2.830,12.663 2.573,12.181 2.484 C 11.875 2.427,11.778 2.432,11.563 2.513 M15.163 2.513 C 14.909 2.609,14.626 2.906,14.519 3.188 C 14.355 3.624,14.454 4.080,14.786 4.415 C 15.022 4.654,15.241 4.739,15.620 4.739 C 15.998 4.739,16.189 4.656,16.461 4.377 C 16.744 4.086,16.833 3.658,16.701 3.217 C 16.586 2.830,16.263 2.573,15.781 2.484 C 15.475 2.427,15.378 2.432,15.163 2.513 M7.875 6.160 C 7.795 6.203,7.649 6.317,7.551 6.415 C 7.293 6.673,7.232 6.902,7.203 7.718 L 7.180 8.377 7.020 8.412 C 6.229 8.583,5.675 8.909,5.282 9.432 C 4.919 9.916,4.802 10.397,4.801 11.406 L 4.800 11.993 4.630 12.019 C 4.032 12.111,3.554 12.356,3.117 12.795 C 2.584 13.330,2.444 13.713,2.428 14.685 L 2.420 15.201 3.140 15.535 C 4.201 16.028,4.392 16.093,4.800 16.095 C 5.202 16.098,5.329 16.057,6.280 15.627 C 7.329 15.151,7.379 15.140,8.420 15.140 L 9.300 15.140 9.661 15.266 C 9.859 15.336,10.263 15.504,10.559 15.641 C 11.899 16.261,12.043 16.262,13.414 15.654 C 14.570 15.141,14.742 15.103,15.801 15.129 C 16.625 15.150,16.695 15.168,17.759 15.639 C 18.754 16.081,18.805 16.097,19.200 16.095 C 19.608 16.093,19.798 16.029,20.860 15.535 L 21.580 15.201 21.572 14.685 C 21.556 13.705,21.416 13.321,20.885 12.796 C 20.471 12.387,20.045 12.154,19.527 12.052 L 19.212 11.990 19.188 11.205 C 19.152 10.039,19.061 9.781,18.481 9.195 C 18.253 8.965,18.059 8.810,17.896 8.728 C 17.626 8.592,17.227 8.459,16.976 8.420 L 16.811 8.395 16.789 7.747 C 16.759 6.838,16.728 6.725,16.425 6.417 C 16.149 6.135,16.014 6.080,15.600 6.080 C 15.204 6.080,15.054 6.139,14.788 6.396 C 14.485 6.689,14.442 6.838,14.412 7.730 L 14.388 8.400 13.800 8.400 L 13.211 8.400 13.189 7.750 C 13.159 6.837,13.128 6.725,12.825 6.417 C 12.549 6.135,12.414 6.080,12.000 6.080 C 11.604 6.080,11.454 6.139,11.188 6.396 C 10.885 6.689,10.842 6.838,10.812 7.730 L 10.788 8.400 10.200 8.400 L 9.612 8.400 9.589 7.650 C 9.577 7.237,9.549 6.854,9.527 6.797 C 9.464 6.633,9.092 6.253,8.906 6.163 C 8.670 6.049,8.089 6.047,7.875 6.160 M8.059 17.518 C 7.971 17.537,7.728 17.628,7.519 17.721 C 6.459 18.192,6.232 18.284,5.908 18.377 C 5.358 18.536,4.915 18.579,4.451 18.521 C 3.747 18.433,3.031 18.214,2.587 17.952 L 2.392 17.837 2.407 19.249 C 2.425 20.880,2.422 20.863,2.814 21.232 C 3.216 21.610,2.222 21.573,12.001 21.574 L 20.662 21.576 20.846 21.487 C 21.086 21.371,21.458 20.979,21.521 20.777 C 21.554 20.671,21.577 20.164,21.589 19.230 L 21.608 17.840 21.374 17.972 C 20.734 18.333,19.979 18.518,19.140 18.519 C 18.416 18.520,18.049 18.424,17.050 17.975 C 16.187 17.587,15.969 17.520,15.574 17.520 C 15.178 17.520,15.057 17.558,14.262 17.929 C 13.933 18.082,13.474 18.272,13.242 18.350 C 12.848 18.483,12.779 18.493,12.200 18.511 C 11.246 18.540,10.893 18.457,9.755 17.936 C 8.916 17.552,8.445 17.436,8.059 17.518 " fill="#373B4D" stroke="none" fill-rule="evenodd"></path></svg>