<svg width="24" height="24" viewBox="0 0 24 24" fill="none" xmlns="http://www.w3.org/2000/svg"><path d="M11.496 2.597 C 11.007 2.880,10.776 3.426,10.938 3.915 C 11.025 4.177,11.339 4.527,11.570 4.620 C 11.783 4.706,12.179 4.707,12.433 4.622 C 12.653 4.549,12.926 4.294,13.014 4.080 C 13.158 3.728,13.127 3.278,12.938 2.990 C 12.768 2.732,12.406 2.561,11.900 2.502 C 11.727 2.481,11.673 2.494,11.496 2.597 M15.096 2.597 C 14.607 2.880,14.376 3.426,14.538 3.915 C 14.625 4.177,14.939 4.527,15.170 4.620 C 15.383 4.706,15.779 4.707,16.033 4.622 C 16.253 4.549,16.526 4.294,16.614 4.080 C 16.758 3.728,16.727 3.278,16.538 2.990 C 16.368 2.732,16.006 2.561,15.500 2.502 C 15.327 2.481,15.273 2.494,15.096 2.597 M7.937 2.576 C 7.652 2.702,7.340 3.074,7.275 3.364 C 7.227 3.577,7.292 3.918,7.423 4.147 C 7.722 4.665,8.447 4.871,8.945 4.579 C 9.308 4.366,9.596 3.853,9.540 3.518 C 9.500 3.285,9.297 2.904,9.139 2.764 C 8.977 2.622,8.816 2.576,8.380 2.544 C 8.153 2.528,8.024 2.537,7.937 2.576 M11.700 6.157 C 11.378 6.236,11.051 6.547,10.940 6.880 C 10.864 7.107,10.802 7.653,10.801 8.090 L 10.800 8.400 10.206 8.400 L 9.612 8.400 9.585 7.681 C 9.571 7.285,9.541 6.915,9.519 6.858 C 9.468 6.724,9.094 6.350,8.918 6.257 C 8.719 6.153,8.100 6.128,7.914 6.216 C 7.717 6.310,7.480 6.552,7.392 6.750 C 7.303 6.950,7.220 7.371,7.180 7.820 C 7.136 8.321,7.110 8.360,6.695 8.532 C 6.148 8.758,5.849 8.951,5.500 9.301 C 4.981 9.821,4.855 10.194,4.812 11.342 L 4.788 11.991 4.524 12.063 C 4.379 12.102,4.098 12.215,3.900 12.314 C 3.603 12.463,3.473 12.561,3.156 12.877 C 2.630 13.403,2.527 13.644,2.438 14.560 C 2.397 14.988,2.399 15.053,2.457 15.141 C 2.610 15.375,4.400 16.080,4.841 16.080 C 4.971 16.080,5.635 15.864,6.820 15.434 L 7.300 15.261 8.406 15.247 L 9.511 15.233 10.346 15.552 C 11.538 16.008,11.700 16.057,12.000 16.057 C 12.290 16.057,12.427 16.016,13.556 15.594 C 13.971 15.438,14.408 15.302,14.556 15.281 C 14.701 15.261,15.227 15.231,15.724 15.216 L 16.628 15.188 17.544 15.550 C 18.789 16.042,18.847 16.060,19.200 16.055 C 19.443 16.052,19.589 16.020,19.968 15.886 C 20.960 15.536,21.539 15.238,21.586 15.052 C 21.617 14.925,21.573 14.426,21.495 14.040 C 21.308 13.106,20.612 12.418,19.516 12.082 L 19.212 11.989 19.187 11.365 C 19.142 10.214,18.980 9.731,18.485 9.273 C 18.128 8.943,17.603 8.634,17.164 8.495 L 16.812 8.383 16.788 7.859 C 16.734 6.672,16.489 6.263,15.771 6.162 C 15.309 6.096,15.045 6.185,14.767 6.502 C 14.512 6.792,14.404 7.242,14.401 8.030 L 14.400 8.400 13.800 8.400 L 13.200 8.400 13.200 8.089 C 13.200 7.689,13.135 7.155,13.054 6.900 C 12.914 6.453,12.665 6.238,12.200 6.163 C 11.911 6.116,11.872 6.115,11.700 6.157 M8.060 17.585 C 7.830 17.644,7.485 17.767,6.540 18.130 L 5.500 18.529 4.980 18.503 C 4.015 18.454,3.362 18.317,2.776 18.043 C 2.585 17.953,2.421 17.880,2.410 17.880 C 2.400 17.880,2.398 18.537,2.406 19.340 L 2.420 20.799 2.780 21.159 L 3.140 21.518 9.080 21.559 C 12.347 21.581,16.299 21.599,17.863 21.600 L 20.706 21.600 21.009 21.340 C 21.341 21.056,21.460 20.864,21.521 20.514 C 21.542 20.396,21.571 19.752,21.586 19.083 C 21.609 18.044,21.605 17.870,21.556 17.891 C 21.525 17.904,21.356 17.978,21.180 18.055 C 20.482 18.362,19.865 18.476,18.893 18.479 C 18.463 18.480,18.426 18.473,17.913 18.295 C 17.620 18.193,17.128 18.003,16.820 17.874 L 16.260 17.638 15.655 17.613 L 15.050 17.588 14.295 17.909 C 13.880 18.086,13.416 18.269,13.265 18.316 C 12.873 18.437,12.311 18.493,11.705 18.472 C 11.195 18.454,11.163 18.448,10.580 18.243 C 8.748 17.600,8.728 17.594,8.431 17.579 C 8.271 17.571,8.104 17.573,8.060 17.585 " fill="#373B4D" stroke="none" fill-rule="evenodd"></path></svg>