<svg width="24" height="24" viewBox="0 0 24 24" fill="none" xmlns="http://www.w3.org/2000/svg"><path d="M6.580 2.596 C 6.280 2.626,6.050 2.757,5.676 3.109 C 5.351 3.416,5.078 3.768,4.916 4.089 L 4.800 4.318 4.800 12.017 L 4.800 19.716 4.922 19.923 C 5.375 20.691,5.849 21.161,6.509 21.494 L 6.717 21.600 12.011 21.600 L 17.305 21.600 17.660 21.390 C 18.248 21.041,18.749 20.497,19.075 19.851 L 19.200 19.602 19.200 11.928 L 19.200 4.254 18.953 3.877 C 18.660 3.428,18.098 2.851,17.832 2.724 C 17.659 2.642,17.556 2.632,16.592 2.599 C 15.447 2.559,6.970 2.557,6.580 2.596 M16.256 5.083 C 16.582 5.435,16.611 5.508,16.632 6.022 L 16.649 6.464 16.430 6.723 C 16.309 6.866,16.139 7.031,16.053 7.091 L 15.896 7.200 11.951 7.200 L 8.007 7.200 7.758 6.930 C 7.425 6.569,7.362 6.423,7.361 6.009 C 7.360 5.720,7.375 5.648,7.479 5.442 C 7.677 5.050,7.851 4.974,8.640 4.936 C 9.173 4.910,12.773 4.858,14.806 4.847 L 16.031 4.840 16.256 5.083 M9.050 9.904 C 9.154 9.977,9.266 10.107,9.338 10.241 C 9.442 10.434,9.456 10.500,9.457 10.800 C 9.457 11.091,9.442 11.169,9.350 11.346 C 9.218 11.599,9.019 11.769,8.753 11.855 C 8.325 11.993,7.972 11.908,7.608 11.577 L 7.360 11.353 7.360 10.805 L 7.360 10.257 7.530 10.095 C 7.888 9.755,7.886 9.755,8.410 9.771 C 8.855 9.784,8.888 9.790,9.050 9.904 M12.510 9.822 C 12.699 9.901,12.786 9.979,12.926 10.198 C 13.027 10.356,13.040 10.412,13.040 10.701 C 13.040 11.340,12.817 11.721,12.362 11.856 C 11.898 11.994,11.564 11.901,11.145 11.518 L 10.910 11.303 10.937 10.861 C 10.971 10.308,11.038 10.154,11.346 9.926 L 11.570 9.760 11.966 9.760 C 12.232 9.760,12.411 9.780,12.510 9.822 M16.110 9.822 C 16.299 9.901,16.386 9.979,16.526 10.198 C 16.627 10.356,16.640 10.412,16.640 10.701 C 16.640 11.340,16.417 11.721,15.962 11.856 C 15.498 11.994,15.164 11.901,14.745 11.518 L 14.510 11.303 14.537 10.861 C 14.571 10.308,14.638 10.154,14.946 9.926 L 15.170 9.760 15.566 9.760 C 15.832 9.760,16.011 9.780,16.110 9.822 M9.050 13.504 C 9.154 13.577,9.266 13.707,9.338 13.841 C 9.442 14.034,9.456 14.100,9.457 14.400 C 9.457 14.691,9.442 14.769,9.350 14.946 C 9.218 15.199,9.019 15.369,8.753 15.455 C 8.325 15.593,7.972 15.508,7.608 15.177 L 7.360 14.953 7.360 14.405 L 7.360 13.857 7.530 13.695 C 7.888 13.355,7.886 13.355,8.410 13.371 C 8.855 13.384,8.888 13.390,9.050 13.504 M12.613 13.479 C 12.718 13.546,12.854 13.682,12.921 13.787 C 13.028 13.957,13.040 14.009,13.040 14.301 C 13.040 14.940,12.817 15.321,12.362 15.456 C 11.898 15.594,11.564 15.501,11.145 15.118 L 10.910 14.903 10.937 14.461 C 10.971 13.908,11.038 13.754,11.346 13.526 L 11.570 13.360 11.997 13.360 C 12.403 13.360,12.434 13.366,12.613 13.479 M16.238 13.499 C 16.438 13.637,16.551 13.853,16.597 14.184 C 16.638 14.474,16.699 15.847,16.744 17.462 L 16.770 18.424 16.495 18.673 C 16.177 18.962,15.812 19.160,15.600 19.160 C 15.389 19.160,15.024 18.962,14.710 18.678 L 14.440 18.434 14.440 16.221 L 14.440 14.009 14.690 13.742 C 15.015 13.395,15.132 13.352,15.675 13.377 C 16.038 13.394,16.109 13.409,16.238 13.499 M9.050 17.104 C 9.154 17.177,9.266 17.307,9.338 17.441 C 9.442 17.634,9.456 17.700,9.457 18.000 C 9.457 18.291,9.442 18.369,9.350 18.546 C 9.218 18.799,9.019 18.969,8.753 19.055 C 8.325 19.193,7.972 19.108,7.608 18.777 L 7.360 18.553 7.360 18.005 L 7.360 17.457 7.530 17.295 C 7.888 16.955,7.886 16.955,8.410 16.971 C 8.855 16.984,8.888 16.990,9.050 17.104 M12.613 17.079 C 12.718 17.146,12.854 17.282,12.921 17.387 C 13.028 17.557,13.040 17.609,13.040 17.901 C 13.040 18.540,12.817 18.921,12.362 19.056 C 11.898 19.194,11.564 19.101,11.145 18.718 L 10.910 18.503 10.937 18.061 C 10.971 17.508,11.038 17.354,11.346 17.126 L 11.570 16.960 11.997 16.960 C 12.403 16.960,12.434 16.966,12.613 17.079 " fill="#373B4D" stroke="none" fill-rule="evenodd"></path></svg>