<svg width="24" height="24" viewBox="0 0 24 24" fill="none" xmlns="http://www.w3.org/2000/svg"><path d="M6.740 2.515 C 6.476 2.536,6.379 2.564,6.185 2.676 C 5.658 2.980,5.309 3.353,4.984 3.960 L 4.801 4.300 4.801 11.994 L 4.800 19.687 4.979 20.034 C 5.303 20.661,5.739 21.097,6.366 21.421 L 6.713 21.600 12.002 21.600 L 17.290 21.600 17.651 21.410 C 18.333 21.051,18.786 20.561,19.072 19.873 L 19.200 19.566 19.200 11.941 L 19.200 4.317 19.095 4.109 C 18.769 3.464,18.319 2.940,17.893 2.710 C 17.781 2.650,17.575 2.581,17.435 2.557 C 17.155 2.509,7.310 2.470,6.740 2.515 M16.238 5.051 C 16.380 5.166,16.529 5.317,16.569 5.386 C 16.675 5.567,16.743 6.134,16.684 6.348 C 16.627 6.557,16.371 6.885,16.152 7.030 L 15.986 7.140 14.443 7.165 C 13.594 7.179,11.811 7.193,10.480 7.195 L 8.060 7.200 7.828 7.017 C 7.433 6.707,7.253 6.339,7.291 5.915 C 7.331 5.470,7.617 5.044,7.939 4.952 C 8.111 4.903,10.615 4.860,14.080 4.848 L 15.980 4.842 16.238 5.051 M8.923 9.780 C 9.093 9.865,9.348 10.104,9.423 10.248 C 9.463 10.323,9.480 10.496,9.480 10.812 C 9.480 11.249,9.475 11.274,9.367 11.424 C 9.101 11.791,8.834 11.931,8.400 11.931 C 7.966 11.931,7.699 11.791,7.433 11.424 C 7.324 11.274,7.320 11.250,7.320 10.800 C 7.320 10.346,7.323 10.327,7.438 10.170 C 7.590 9.960,7.799 9.793,7.989 9.730 C 8.197 9.662,8.747 9.691,8.923 9.780 M12.404 9.726 C 12.630 9.803,12.872 9.992,12.979 10.175 C 13.070 10.330,13.080 10.390,13.080 10.771 C 13.080 11.269,13.051 11.362,12.828 11.593 C 12.528 11.903,12.229 11.995,11.778 11.917 C 11.470 11.863,11.323 11.771,11.092 11.489 L 10.920 11.277 10.920 10.805 C 10.920 10.345,10.923 10.327,11.037 10.170 C 11.181 9.972,11.377 9.819,11.584 9.743 C 11.775 9.673,12.220 9.664,12.404 9.726 M16.004 9.726 C 16.230 9.803,16.472 9.992,16.579 10.175 C 16.670 10.330,16.680 10.390,16.680 10.771 C 16.680 11.269,16.651 11.362,16.428 11.593 C 16.128 11.903,15.829 11.995,15.378 11.917 C 15.070 11.863,14.923 11.771,14.692 11.489 L 14.520 11.277 14.520 10.805 C 14.520 10.345,14.523 10.327,14.637 10.170 C 14.781 9.972,14.977 9.819,15.184 9.743 C 15.375 9.673,15.820 9.664,16.004 9.726 M8.923 13.380 C 9.093 13.465,9.348 13.704,9.423 13.848 C 9.463 13.923,9.480 14.096,9.480 14.412 C 9.480 14.849,9.475 14.874,9.367 15.024 C 9.101 15.391,8.834 15.531,8.400 15.531 C 7.966 15.531,7.699 15.391,7.433 15.024 C 7.324 14.874,7.320 14.850,7.320 14.400 C 7.320 13.946,7.323 13.927,7.438 13.770 C 7.590 13.560,7.799 13.393,7.989 13.330 C 8.197 13.262,8.747 13.291,8.923 13.380 M12.404 13.326 C 12.630 13.403,12.872 13.592,12.979 13.775 C 13.070 13.930,13.080 13.990,13.080 14.371 C 13.080 14.869,13.051 14.962,12.828 15.193 C 12.528 15.503,12.229 15.595,11.778 15.517 C 11.470 15.463,11.323 15.371,11.092 15.089 L 10.920 14.877 10.920 14.405 C 10.920 13.945,10.923 13.927,11.037 13.770 C 11.181 13.572,11.377 13.419,11.584 13.343 C 11.775 13.273,12.220 13.264,12.404 13.326 M16.100 13.371 C 16.259 13.452,16.477 13.646,16.560 13.780 C 16.676 13.968,16.709 14.479,16.740 16.640 L 16.766 18.380 16.593 18.586 C 15.922 19.383,15.265 19.384,14.610 18.587 L 14.440 18.381 14.440 16.207 L 14.440 14.034 14.622 13.798 C 14.852 13.499,15.025 13.367,15.246 13.322 C 15.448 13.281,15.983 13.311,16.100 13.371 M8.923 16.980 C 9.093 17.065,9.348 17.304,9.423 17.448 C 9.463 17.523,9.480 17.696,9.480 18.012 C 9.480 18.449,9.475 18.474,9.367 18.624 C 9.101 18.991,8.834 19.131,8.400 19.131 C 7.966 19.131,7.699 18.991,7.433 18.624 C 7.324 18.474,7.320 18.450,7.320 18.000 C 7.320 17.546,7.323 17.527,7.438 17.370 C 7.590 17.160,7.799 16.993,7.989 16.930 C 8.197 16.862,8.747 16.891,8.923 16.980 M12.404 16.926 C 12.630 17.003,12.872 17.192,12.979 17.375 C 13.070 17.530,13.080 17.590,13.080 17.971 C 13.080 18.469,13.051 18.562,12.828 18.793 C 12.528 19.103,12.229 19.195,11.778 19.117 C 11.470 19.063,11.323 18.971,11.092 18.689 L 10.920 18.477 10.920 18.005 C 10.920 17.545,10.923 17.527,11.037 17.370 C 11.181 17.172,11.377 17.019,11.584 16.943 C 11.775 16.873,12.220 16.864,12.404 16.926 " fill="#373B4D" stroke="none" fill-rule="evenodd"></path></svg>