<svg width="24" height="24" viewBox="0 0 24 24" fill="none" xmlns="http://www.w3.org/2000/svg"><path d="M7.000 2.558 C 6.293 2.583,6.246 2.599,5.784 2.970 C 5.482 3.212,5.169 3.608,4.950 4.026 L 4.800 4.312 4.800 11.997 L 4.800 19.682 4.925 19.931 C 5.264 20.608,5.788 21.132,6.469 21.475 L 6.718 21.600 12.000 21.600 L 17.283 21.600 17.491 21.495 C 18.222 21.127,18.761 20.572,19.081 19.858 L 19.200 19.593 19.200 11.955 L 19.200 4.317 19.115 4.148 C 18.806 3.532,18.225 2.880,17.819 2.695 C 17.600 2.594,17.557 2.590,16.486 2.557 C 15.297 2.521,8.024 2.522,7.000 2.558 M16.243 5.063 C 16.594 5.349,16.660 5.506,16.660 6.047 L 16.660 6.434 16.496 6.666 C 16.406 6.793,16.251 6.953,16.152 7.022 L 15.970 7.147 14.579 7.173 C 13.813 7.188,12.033 7.200,10.623 7.200 L 8.059 7.200 7.871 7.045 C 7.469 6.713,7.322 6.443,7.321 6.035 C 7.320 5.740,7.382 5.525,7.538 5.291 C 7.677 5.080,7.898 4.963,8.208 4.935 C 8.494 4.909,12.233 4.856,14.476 4.847 L 15.971 4.840 16.243 5.063 M12.550 9.808 C 12.763 9.907,12.988 10.166,13.045 10.378 C 13.070 10.469,13.081 10.692,13.070 10.888 C 13.054 11.169,13.030 11.270,12.944 11.416 C 12.746 11.755,12.426 11.926,11.995 11.925 C 11.635 11.924,11.443 11.834,11.144 11.528 L 10.909 11.286 10.928 10.807 C 10.945 10.409,10.963 10.305,11.035 10.189 C 11.149 10.004,11.498 9.768,11.721 9.723 C 11.969 9.674,12.347 9.713,12.550 9.808 M16.150 9.808 C 16.363 9.907,16.588 10.166,16.645 10.378 C 16.670 10.469,16.681 10.692,16.670 10.888 C 16.654 11.169,16.630 11.270,16.544 11.416 C 16.346 11.755,16.026 11.926,15.595 11.925 C 15.235 11.924,15.043 11.834,14.744 11.528 L 14.509 11.286 14.528 10.807 C 14.545 10.409,14.563 10.305,14.635 10.189 C 14.749 10.004,15.098 9.768,15.321 9.723 C 15.569 9.674,15.947 9.713,16.150 9.808 M9.023 9.862 C 9.130 9.928,9.272 10.059,9.338 10.153 C 9.449 10.312,9.459 10.355,9.474 10.740 C 9.487 11.106,9.478 11.178,9.401 11.338 C 9.170 11.814,8.586 12.030,8.000 11.856 C 7.837 11.808,7.736 11.741,7.573 11.575 L 7.360 11.356 7.360 10.814 L 7.360 10.272 7.485 10.114 C 7.554 10.027,7.702 9.902,7.815 9.836 C 8.012 9.721,8.036 9.717,8.424 9.729 C 8.793 9.740,8.846 9.752,9.023 9.862 M12.550 13.408 C 12.763 13.507,12.988 13.766,13.045 13.978 C 13.070 14.069,13.081 14.292,13.070 14.488 C 13.054 14.769,13.030 14.870,12.944 15.016 C 12.746 15.355,12.426 15.526,11.995 15.525 C 11.635 15.524,11.443 15.434,11.144 15.128 L 10.909 14.886 10.928 14.407 C 10.945 14.009,10.963 13.905,11.035 13.789 C 11.149 13.604,11.498 13.368,11.721 13.323 C 11.969 13.274,12.347 13.313,12.550 13.408 M9.023 13.462 C 9.130 13.528,9.272 13.659,9.338 13.753 C 9.449 13.912,9.459 13.955,9.474 14.340 C 9.487 14.706,9.478 14.778,9.401 14.938 C 9.170 15.414,8.586 15.630,8.000 15.456 C 7.837 15.408,7.736 15.341,7.573 15.175 L 7.360 14.956 7.360 14.414 L 7.360 13.872 7.485 13.714 C 7.554 13.627,7.702 13.502,7.815 13.436 C 8.012 13.321,8.036 13.317,8.424 13.329 C 8.793 13.340,8.846 13.352,9.023 13.462 M16.145 13.414 C 16.454 13.578,16.587 13.796,16.641 14.230 C 16.676 14.520,16.758 17.133,16.760 18.019 L 16.760 18.417 16.470 18.701 C 15.823 19.334,15.377 19.334,14.730 18.701 L 14.440 18.417 14.441 16.219 L 14.442 14.020 14.631 13.793 C 14.861 13.517,14.982 13.419,15.162 13.364 C 15.354 13.305,16.003 13.338,16.145 13.414 M12.550 17.008 C 12.763 17.107,12.988 17.366,13.045 17.578 C 13.070 17.669,13.081 17.892,13.070 18.088 C 13.054 18.369,13.030 18.470,12.944 18.616 C 12.746 18.955,12.426 19.126,11.995 19.125 C 11.635 19.124,11.443 19.034,11.144 18.728 L 10.909 18.486 10.928 18.007 C 10.945 17.609,10.963 17.505,11.035 17.389 C 11.149 17.204,11.498 16.968,11.721 16.923 C 11.969 16.874,12.347 16.913,12.550 17.008 M9.023 17.062 C 9.130 17.128,9.272 17.259,9.338 17.353 C 9.449 17.512,9.459 17.555,9.474 17.940 C 9.487 18.306,9.478 18.378,9.401 18.538 C 9.170 19.014,8.586 19.230,8.000 19.056 C 7.837 19.008,7.736 18.941,7.573 18.775 L 7.360 18.556 7.360 18.014 L 7.360 17.472 7.485 17.314 C 7.554 17.227,7.702 17.102,7.815 17.036 C 8.012 16.921,8.036 16.917,8.424 16.929 C 8.793 16.940,8.846 16.952,9.023 17.062 " fill="#373B4D" stroke="none" fill-rule="evenodd"></path></svg>