<svg width="24" height="24" viewBox="0 0 24 24" fill="none" xmlns="http://www.w3.org/2000/svg"><path d="M8.320 2.555 L 6.420 2.580 6.172 2.715 C 5.735 2.951,5.188 3.550,4.916 4.089 L 4.800 4.318 4.800 12.010 L 4.800 19.702 4.979 20.016 C 5.369 20.700,5.843 21.158,6.509 21.495 L 6.717 21.600 12.005 21.600 L 17.293 21.600 17.554 21.457 C 18.208 21.097,18.709 20.578,19.043 19.914 L 19.200 19.602 19.200 11.943 L 19.200 4.284 19.076 4.072 C 18.727 3.477,18.245 2.943,17.878 2.743 C 17.679 2.634,17.640 2.629,16.905 2.598 C 15.806 2.553,10.550 2.527,8.320 2.555 M16.295 5.124 C 16.604 5.457,16.639 5.557,16.640 6.086 L 16.640 6.473 16.462 6.692 C 16.363 6.812,16.207 6.971,16.113 7.045 L 15.943 7.180 11.979 7.191 L 8.015 7.203 7.773 6.951 C 7.425 6.588,7.346 6.415,7.345 6.017 C 7.344 5.744,7.361 5.658,7.454 5.469 C 7.649 5.069,7.832 4.974,8.480 4.935 C 8.887 4.910,12.627 4.857,14.746 4.847 L 16.033 4.840 16.295 5.124 M8.966 9.843 C 9.326 10.026,9.511 10.429,9.470 10.940 C 9.420 11.559,8.908 11.972,8.272 11.905 C 7.974 11.874,7.831 11.801,7.570 11.547 L 7.360 11.343 7.360 10.796 L 7.360 10.249 7.601 10.025 C 7.734 9.902,7.901 9.784,7.971 9.763 C 8.164 9.704,8.792 9.755,8.966 9.843 M12.501 9.800 C 12.659 9.859,12.866 10.062,12.973 10.260 C 13.042 10.388,13.059 10.485,13.057 10.740 C 13.050 11.462,12.728 11.851,12.088 11.909 C 11.737 11.940,11.505 11.849,11.178 11.549 L 10.909 11.303 10.933 10.847 C 10.950 10.532,10.980 10.347,11.029 10.246 C 11.107 10.087,11.431 9.821,11.620 9.760 C 11.768 9.713,12.338 9.739,12.501 9.800 M16.101 9.800 C 16.259 9.859,16.466 10.062,16.573 10.260 C 16.642 10.388,16.659 10.485,16.657 10.740 C 16.650 11.462,16.328 11.851,15.688 11.909 C 15.337 11.940,15.105 11.849,14.778 11.549 L 14.509 11.303 14.533 10.847 C 14.550 10.532,14.580 10.347,14.629 10.246 C 14.707 10.087,15.031 9.821,15.220 9.760 C 15.368 9.713,15.938 9.739,16.101 9.800 M8.966 13.443 C 9.326 13.626,9.511 14.029,9.470 14.540 C 9.420 15.159,8.908 15.572,8.272 15.505 C 7.974 15.474,7.831 15.401,7.570 15.147 L 7.360 14.943 7.360 14.396 L 7.360 13.849 7.601 13.625 C 7.734 13.502,7.901 13.384,7.971 13.363 C 8.164 13.304,8.792 13.355,8.966 13.443 M12.486 13.395 C 12.645 13.455,12.874 13.673,12.972 13.856 C 13.042 13.987,13.059 14.084,13.057 14.340 C 13.050 15.062,12.728 15.451,12.088 15.509 C 11.737 15.540,11.505 15.449,11.178 15.149 L 10.909 14.903 10.933 14.447 C 10.950 14.132,10.980 13.947,11.029 13.846 C 11.107 13.687,11.431 13.421,11.620 13.360 C 11.762 13.315,12.336 13.338,12.486 13.395 M16.245 13.500 C 16.514 13.690,16.591 13.887,16.638 14.500 C 16.659 14.786,16.699 15.784,16.725 16.719 L 16.773 18.418 16.479 18.689 C 15.803 19.313,15.406 19.315,14.730 18.698 L 14.440 18.434 14.440 16.223 L 14.440 14.012 14.689 13.740 C 15.017 13.382,15.079 13.357,15.627 13.370 C 16.051 13.379,16.082 13.386,16.245 13.500 M8.966 17.043 C 9.326 17.226,9.511 17.629,9.470 18.140 C 9.420 18.759,8.908 19.172,8.272 19.105 C 7.974 19.074,7.831 19.001,7.570 18.747 L 7.360 18.543 7.360 17.996 L 7.360 17.449 7.601 17.225 C 7.734 17.102,7.901 16.984,7.971 16.963 C 8.164 16.904,8.792 16.955,8.966 17.043 M12.486 16.995 C 12.645 17.055,12.874 17.273,12.972 17.456 C 13.042 17.587,13.059 17.684,13.057 17.940 C 13.050 18.662,12.728 19.051,12.088 19.109 C 11.737 19.140,11.505 19.049,11.178 18.749 L 10.909 18.503 10.933 18.047 C 10.950 17.732,10.980 17.547,11.029 17.446 C 11.107 17.287,11.431 17.021,11.620 16.960 C 11.762 16.915,12.336 16.938,12.486 16.995 " fill="#373B4D" stroke="none" fill-rule="evenodd"></path></svg>