<svg width="24" height="24" viewBox="0 0 24 24" fill="none" xmlns="http://www.w3.org/2000/svg"><path d="M6.417 2.576 C 6.207 2.642,5.792 2.924,5.551 3.165 C 5.352 3.364,5.081 3.760,4.905 4.109 L 4.800 4.317 4.800 12.000 L 4.800 19.682 4.925 19.931 C 5.283 20.640,5.760 21.117,6.469 21.475 L 6.718 21.600 12.000 21.600 L 17.283 21.600 17.491 21.495 C 18.253 21.110,18.755 20.595,19.068 19.880 L 19.199 19.580 19.199 11.940 L 19.199 4.300 19.036 4.000 C 18.699 3.378,18.244 2.885,17.814 2.677 C 17.524 2.537,17.038 2.525,11.540 2.525 C 7.632 2.525,6.545 2.536,6.417 2.576 M16.219 5.040 C 16.357 5.149,16.498 5.281,16.532 5.333 C 16.692 5.577,16.742 6.243,16.619 6.485 C 16.505 6.709,16.285 6.954,16.101 7.062 L 15.927 7.164 12.005 7.188 L 8.084 7.213 7.856 7.037 C 7.272 6.587,7.135 5.952,7.492 5.357 C 7.652 5.089,7.822 4.973,8.104 4.938 C 8.350 4.907,11.748 4.857,14.294 4.847 L 15.969 4.840 16.219 5.040 M8.950 9.807 C 9.157 9.905,9.421 10.196,9.455 10.365 C 9.469 10.434,9.480 10.654,9.480 10.855 C 9.480 11.154,9.465 11.245,9.396 11.360 C 9.162 11.751,8.861 11.919,8.397 11.920 C 8.016 11.920,7.742 11.793,7.502 11.506 L 7.340 11.312 7.340 10.802 L 7.340 10.293 7.490 10.110 C 7.664 9.897,7.873 9.757,8.077 9.717 C 8.301 9.672,8.762 9.720,8.950 9.807 M12.545 9.792 C 12.753 9.898,13.022 10.201,13.055 10.365 C 13.094 10.562,13.084 11.085,13.037 11.254 C 12.981 11.453,12.723 11.732,12.489 11.845 C 12.270 11.951,11.919 11.966,11.620 11.882 C 11.461 11.837,11.368 11.772,11.167 11.563 L 10.914 11.300 10.927 10.798 C 10.940 10.298,10.940 10.296,11.074 10.128 C 11.224 9.938,11.500 9.761,11.716 9.715 C 11.962 9.663,12.365 9.700,12.545 9.792 M16.145 9.792 C 16.353 9.898,16.622 10.201,16.655 10.365 C 16.694 10.562,16.684 11.085,16.637 11.254 C 16.581 11.453,16.323 11.732,16.089 11.845 C 15.870 11.951,15.519 11.966,15.220 11.882 C 15.061 11.837,14.968 11.772,14.767 11.563 L 14.514 11.300 14.527 10.798 C 14.540 10.298,14.540 10.296,14.674 10.128 C 14.824 9.938,15.100 9.761,15.316 9.715 C 15.562 9.663,15.965 9.700,16.145 9.792 M8.950 13.407 C 9.157 13.505,9.421 13.796,9.455 13.965 C 9.469 14.034,9.480 14.254,9.480 14.455 C 9.480 14.754,9.465 14.845,9.396 14.960 C 9.162 15.351,8.861 15.519,8.397 15.520 C 8.016 15.520,7.742 15.393,7.502 15.106 L 7.340 14.912 7.340 14.402 L 7.340 13.893 7.490 13.710 C 7.664 13.497,7.873 13.357,8.077 13.317 C 8.301 13.272,8.762 13.320,8.950 13.407 M12.545 13.392 C 12.753 13.498,13.022 13.801,13.055 13.965 C 13.094 14.162,13.084 14.685,13.037 14.854 C 12.981 15.053,12.723 15.332,12.489 15.445 C 12.270 15.551,11.919 15.566,11.620 15.482 C 11.461 15.437,11.368 15.372,11.167 15.163 L 10.914 14.900 10.927 14.398 C 10.940 13.898,10.940 13.896,11.074 13.728 C 11.224 13.538,11.500 13.361,11.716 13.315 C 11.962 13.263,12.365 13.300,12.545 13.392 M16.269 13.492 C 16.583 13.723,16.634 13.863,16.678 14.624 C 16.698 14.974,16.727 15.964,16.741 16.825 L 16.768 18.390 16.506 18.668 C 15.864 19.349,15.341 19.353,14.708 18.683 L 14.440 18.399 14.440 16.214 L 14.440 14.029 14.657 13.760 C 14.970 13.373,15.108 13.312,15.641 13.328 C 16.058 13.341,16.065 13.343,16.269 13.492 M8.950 17.007 C 9.157 17.105,9.421 17.396,9.455 17.565 C 9.469 17.634,9.480 17.854,9.480 18.055 C 9.480 18.354,9.465 18.445,9.396 18.560 C 9.162 18.951,8.861 19.119,8.397 19.120 C 8.016 19.120,7.742 18.993,7.502 18.706 L 7.340 18.512 7.340 18.002 L 7.340 17.493 7.490 17.310 C 7.664 17.097,7.873 16.957,8.077 16.917 C 8.301 16.872,8.762 16.920,8.950 17.007 M12.545 16.992 C 12.753 17.098,13.022 17.401,13.055 17.565 C 13.094 17.762,13.084 18.285,13.037 18.454 C 12.981 18.653,12.723 18.932,12.489 19.045 C 12.270 19.151,11.919 19.166,11.620 19.082 C 11.461 19.037,11.368 18.972,11.167 18.763 L 10.914 18.500 10.927 17.998 C 10.940 17.498,10.940 17.496,11.074 17.328 C 11.224 17.138,11.500 16.961,11.716 16.915 C 11.962 16.863,12.365 16.900,12.545 16.992 " fill="#373B4D" stroke="none" fill-rule="evenodd"></path></svg>