<svg width="24" height="24" viewBox="0 0 24 24" fill="none" xmlns="http://www.w3.org/2000/svg"><path d="M7.400 2.478 L 6.500 2.500 6.220 2.650 C 5.647 2.956,5.301 3.318,5.007 3.918 L 4.820 4.300 4.820 12.000 L 4.820 19.700 4.987 20.050 C 5.299 20.702,5.698 21.101,6.350 21.413 L 6.700 21.580 11.951 21.590 L 17.202 21.601 17.493 21.488 C 18.235 21.200,18.784 20.642,19.079 19.876 L 19.201 19.561 19.190 11.930 L 19.180 4.300 18.972 3.876 C 18.741 3.404,18.436 3.049,18.035 2.784 C 17.641 2.524,17.579 2.515,15.940 2.478 C 14.342 2.443,8.866 2.443,7.400 2.478 M16.206 5.010 C 16.571 5.256,16.678 5.448,16.708 5.913 C 16.727 6.207,16.718 6.314,16.661 6.463 C 16.570 6.701,16.215 7.060,16.011 7.120 C 15.908 7.150,14.619 7.171,11.974 7.188 L 8.087 7.212 7.888 7.066 C 7.636 6.881,7.418 6.640,7.346 6.467 C 7.129 5.949,7.345 5.257,7.802 5.001 C 7.976 4.903,8.004 4.901,9.080 4.878 C 9.685 4.865,11.479 4.851,13.066 4.847 L 15.953 4.840 16.206 5.010 M8.870 9.743 C 9.074 9.826,9.284 10.004,9.407 10.198 C 9.512 10.363,9.520 10.405,9.520 10.778 C 9.519 11.150,9.510 11.196,9.401 11.386 C 9.165 11.798,8.779 11.992,8.287 11.946 C 7.852 11.905,7.550 11.696,7.345 11.292 C 7.254 11.113,7.255 10.485,7.346 10.308 C 7.526 9.959,7.798 9.734,8.106 9.681 C 8.339 9.641,8.691 9.670,8.870 9.743 M12.510 9.755 C 12.953 9.981,13.120 10.256,13.120 10.758 C 13.120 11.215,13.063 11.379,12.820 11.624 C 12.556 11.890,12.302 11.980,11.911 11.947 C 11.565 11.918,11.320 11.803,11.145 11.586 C 10.915 11.302,10.880 11.199,10.880 10.800 C 10.880 10.417,10.913 10.310,11.110 10.051 C 11.394 9.677,12.076 9.533,12.510 9.755 M16.110 9.755 C 16.553 9.981,16.720 10.256,16.720 10.758 C 16.720 11.215,16.663 11.379,16.420 11.624 C 16.156 11.890,15.902 11.980,15.511 11.947 C 15.165 11.918,14.920 11.803,14.745 11.586 C 14.515 11.302,14.480 11.199,14.480 10.800 C 14.480 10.417,14.513 10.310,14.710 10.051 C 14.994 9.677,15.676 9.533,16.110 9.755 M8.870 13.343 C 9.074 13.426,9.284 13.604,9.407 13.798 C 9.512 13.963,9.520 14.005,9.520 14.378 C 9.519 14.750,9.510 14.796,9.401 14.986 C 9.165 15.398,8.779 15.592,8.287 15.546 C 7.852 15.505,7.550 15.296,7.345 14.892 C 7.254 14.713,7.255 14.085,7.346 13.908 C 7.526 13.559,7.798 13.334,8.106 13.281 C 8.339 13.241,8.691 13.270,8.870 13.343 M12.510 13.355 C 12.953 13.581,13.120 13.856,13.120 14.358 C 13.120 14.815,13.063 14.979,12.820 15.224 C 12.556 15.490,12.302 15.580,11.911 15.547 C 11.565 15.518,11.320 15.403,11.145 15.186 C 10.915 14.902,10.880 14.799,10.880 14.400 C 10.880 14.017,10.913 13.910,11.110 13.651 C 11.394 13.277,12.076 13.133,12.510 13.355 M16.245 13.449 C 16.476 13.609,16.620 13.791,16.679 13.997 C 16.700 14.069,16.729 15.078,16.745 16.241 L 16.773 18.356 16.660 18.508 C 16.460 18.779,16.264 18.965,16.079 19.060 C 15.543 19.334,15.034 19.168,14.597 18.576 L 14.440 18.363 14.440 16.205 L 14.440 14.047 14.610 13.794 C 14.731 13.613,14.843 13.502,15.000 13.408 C 15.216 13.278,15.228 13.275,15.625 13.288 C 16.019 13.300,16.037 13.304,16.245 13.449 M8.870 16.943 C 9.074 17.026,9.284 17.204,9.407 17.398 C 9.512 17.563,9.520 17.605,9.520 17.978 C 9.519 18.350,9.510 18.396,9.401 18.586 C 9.165 18.998,8.779 19.192,8.287 19.146 C 7.852 19.105,7.550 18.896,7.345 18.492 C 7.254 18.313,7.255 17.685,7.346 17.508 C 7.526 17.159,7.798 16.934,8.106 16.881 C 8.339 16.841,8.691 16.870,8.870 16.943 M12.510 16.955 C 12.953 17.181,13.120 17.456,13.120 17.958 C 13.120 18.415,13.063 18.579,12.820 18.824 C 12.556 19.090,12.302 19.180,11.911 19.147 C 11.565 19.118,11.320 19.003,11.145 18.786 C 10.915 18.502,10.880 18.399,10.880 18.000 C 10.880 17.617,10.913 17.510,11.110 17.251 C 11.394 16.877,12.076 16.733,12.510 16.955 " fill="#373B4D" stroke="none" fill-rule="evenodd"></path></svg>