<svg width="24" height="24" viewBox="0 0 24 24" fill="none" xmlns="http://www.w3.org/2000/svg"><path d="M6.475 2.637 C 6.039 2.698,5.385 3.297,4.960 4.025 L 4.800 4.299 4.800 12.022 L 4.800 19.745 5.038 20.094 C 5.499 20.770,5.972 21.224,6.484 21.482 L 6.718 21.600 12.022 21.600 L 17.326 21.600 17.613 21.415 C 18.203 21.035,18.763 20.439,19.059 19.877 L 19.200 19.608 19.200 11.920 L 19.200 4.232 18.971 3.906 C 18.664 3.469,18.076 2.865,17.852 2.756 C 17.698 2.682,17.568 2.665,16.927 2.637 C 16.056 2.598,6.749 2.598,6.475 2.637 M16.191 5.015 C 16.477 5.325,16.557 5.480,16.599 5.802 C 16.675 6.389,16.665 6.447,16.437 6.708 C 16.326 6.835,16.162 6.998,16.072 7.070 L 15.909 7.200 11.958 7.200 L 8.006 7.200 7.783 6.950 C 7.449 6.577,7.400 6.453,7.400 5.972 C 7.400 5.584,7.405 5.562,7.530 5.375 C 7.737 5.064,7.895 5.007,8.682 4.958 C 9.326 4.917,12.554 4.859,14.865 4.846 L 16.030 4.840 16.191 5.015 M8.958 9.859 C 9.239 10.006,9.407 10.312,9.431 10.720 C 9.456 11.150,9.396 11.329,9.142 11.583 C 8.684 12.041,8.125 12.025,7.570 11.538 L 7.360 11.354 7.360 10.805 L 7.360 10.256 7.510 10.114 C 7.709 9.926,7.879 9.813,8.001 9.787 C 8.169 9.752,8.850 9.803,8.958 9.859 M12.337 9.799 C 12.530 9.831,12.604 9.867,12.731 9.989 C 12.971 10.222,13.000 10.305,13.000 10.762 C 13.000 11.138,12.991 11.186,12.879 11.396 C 12.740 11.657,12.540 11.808,12.236 11.881 C 11.865 11.970,11.511 11.842,11.101 11.471 L 10.907 11.295 10.952 10.848 C 11.006 10.322,11.056 10.204,11.333 9.951 C 11.538 9.764,11.543 9.763,11.820 9.762 C 11.974 9.761,12.207 9.778,12.337 9.799 M15.937 9.799 C 16.130 9.831,16.204 9.867,16.331 9.989 C 16.571 10.222,16.600 10.305,16.600 10.762 C 16.600 11.138,16.591 11.186,16.479 11.396 C 16.340 11.657,16.140 11.808,15.836 11.881 C 15.465 11.970,15.111 11.842,14.701 11.471 L 14.507 11.295 14.552 10.848 C 14.606 10.322,14.656 10.204,14.933 9.951 C 15.138 9.764,15.143 9.763,15.420 9.762 C 15.574 9.761,15.807 9.778,15.937 9.799 M8.958 13.459 C 9.239 13.606,9.407 13.912,9.431 14.320 C 9.456 14.750,9.396 14.929,9.142 15.183 C 8.684 15.641,8.125 15.625,7.570 15.138 L 7.360 14.954 7.360 14.405 L 7.360 13.856 7.510 13.714 C 7.709 13.526,7.879 13.413,8.001 13.387 C 8.169 13.352,8.850 13.403,8.958 13.459 M12.522 13.439 C 12.660 13.510,12.876 13.720,12.943 13.848 C 12.981 13.921,13.000 14.090,13.000 14.362 C 13.000 14.738,12.991 14.786,12.879 14.996 C 12.740 15.257,12.540 15.408,12.236 15.481 C 11.865 15.570,11.511 15.442,11.101 15.071 L 10.907 14.895 10.952 14.448 C 11.006 13.923,11.055 13.806,11.333 13.548 L 11.540 13.356 11.982 13.372 C 12.226 13.381,12.468 13.411,12.522 13.439 M16.188 13.473 C 16.334 13.552,16.473 13.768,16.537 14.015 C 16.606 14.279,16.656 15.106,16.723 17.053 L 16.769 18.406 16.635 18.546 C 16.451 18.738,15.951 19.067,15.758 19.125 C 15.638 19.161,15.563 19.162,15.447 19.127 C 15.255 19.069,14.856 18.813,14.620 18.596 L 14.440 18.430 14.440 16.216 L 14.440 14.002 14.670 13.769 C 15.012 13.423,15.091 13.394,15.640 13.411 C 15.895 13.419,16.139 13.446,16.188 13.473 M8.958 17.059 C 9.239 17.206,9.407 17.512,9.431 17.920 C 9.456 18.350,9.396 18.529,9.142 18.783 C 8.684 19.241,8.125 19.225,7.570 18.738 L 7.360 18.554 7.360 18.005 L 7.360 17.456 7.510 17.314 C 7.709 17.126,7.879 17.013,8.001 16.987 C 8.169 16.952,8.850 17.003,8.958 17.059 M12.522 17.039 C 12.660 17.110,12.876 17.320,12.943 17.448 C 12.981 17.521,13.000 17.690,13.000 17.962 C 13.000 18.338,12.991 18.386,12.879 18.596 C 12.740 18.857,12.540 19.008,12.236 19.081 C 11.865 19.170,11.511 19.042,11.101 18.671 L 10.907 18.495 10.952 18.048 C 11.006 17.523,11.055 17.406,11.333 17.148 L 11.540 16.956 11.982 16.972 C 12.226 16.981,12.468 17.011,12.522 17.039 " fill="#373B4D" stroke="none" fill-rule="evenodd"></path></svg>