<svg width="24" height="24" viewBox="0 0 24 24" fill="none" xmlns="http://www.w3.org/2000/svg"><path d="M8.160 2.478 C 6.506 2.500,6.499 2.500,6.320 2.596 C 5.712 2.919,5.309 3.325,5.004 3.923 L 4.800 4.324 4.800 12.000 L 4.800 19.676 5.009 20.088 C 5.182 20.431,5.275 20.557,5.559 20.841 C 5.843 21.125,5.969 21.218,6.313 21.392 L 6.726 21.601 12.017 21.590 L 17.308 21.580 17.696 21.387 C 18.345 21.065,18.801 20.563,19.082 19.861 L 19.200 19.567 19.200 11.945 L 19.200 4.323 19.008 3.949 C 18.612 3.175,18.062 2.669,17.500 2.561 C 17.028 2.470,12.141 2.427,8.160 2.478 M16.200 5.014 C 16.580 5.291,16.654 5.423,16.703 5.919 C 16.745 6.349,16.681 6.525,16.363 6.844 C 16.139 7.068,16.073 7.111,15.920 7.134 C 15.821 7.148,14.018 7.172,11.914 7.186 L 8.088 7.213 7.887 7.065 C 7.455 6.748,7.282 6.454,7.281 6.032 C 7.280 5.695,7.391 5.382,7.583 5.185 C 7.864 4.896,7.800 4.905,9.620 4.879 C 10.522 4.866,12.318 4.852,13.611 4.848 L 15.961 4.840 16.200 5.014 M12.500 9.756 C 12.724 9.856,12.908 10.021,13.011 10.215 C 13.085 10.354,13.099 10.445,13.099 10.800 C 13.099 11.277,13.061 11.382,12.798 11.638 C 12.550 11.878,12.390 11.940,12.016 11.939 C 11.575 11.939,11.301 11.803,11.064 11.467 L 10.900 11.234 10.900 10.804 C 10.900 10.376,10.901 10.372,11.044 10.156 C 11.342 9.707,11.989 9.529,12.500 9.756 M16.100 9.756 C 16.324 9.856,16.508 10.021,16.611 10.215 C 16.685 10.354,16.699 10.445,16.699 10.800 C 16.699 11.277,16.661 11.382,16.398 11.638 C 16.150 11.878,15.990 11.940,15.616 11.939 C 15.175 11.939,14.901 11.803,14.664 11.467 L 14.500 11.234 14.500 10.804 C 14.500 10.376,14.501 10.372,14.644 10.156 C 14.942 9.707,15.589 9.529,16.100 9.756 M8.804 9.726 C 9.020 9.800,9.255 9.979,9.383 10.167 C 9.495 10.333,9.500 10.359,9.500 10.786 L 9.500 11.233 9.340 11.465 C 9.112 11.796,8.825 11.940,8.398 11.939 C 7.970 11.938,7.686 11.794,7.460 11.465 L 7.300 11.232 7.300 10.803 C 7.300 10.398,7.306 10.365,7.415 10.201 C 7.671 9.814,7.911 9.682,8.364 9.681 C 8.531 9.680,8.729 9.701,8.804 9.726 M12.500 13.356 C 12.724 13.456,12.908 13.621,13.011 13.815 C 13.085 13.954,13.099 14.045,13.099 14.400 C 13.099 14.877,13.061 14.982,12.798 15.238 C 12.550 15.478,12.390 15.540,12.016 15.539 C 11.575 15.539,11.301 15.403,11.064 15.067 L 10.900 14.834 10.900 14.404 C 10.900 13.976,10.901 13.972,11.044 13.756 C 11.342 13.307,11.989 13.129,12.500 13.356 M8.804 13.326 C 9.020 13.400,9.255 13.579,9.383 13.767 C 9.495 13.933,9.500 13.959,9.500 14.386 L 9.500 14.833 9.340 15.065 C 9.112 15.396,8.825 15.540,8.398 15.539 C 7.970 15.538,7.686 15.394,7.460 15.065 L 7.300 14.832 7.300 14.403 C 7.300 13.998,7.306 13.965,7.415 13.801 C 7.671 13.414,7.911 13.282,8.364 13.281 C 8.531 13.280,8.729 13.301,8.804 13.326 M16.226 13.446 C 16.328 13.520,16.465 13.647,16.531 13.728 C 16.692 13.927,16.706 14.106,16.742 16.458 L 16.772 18.358 16.597 18.583 C 16.267 19.012,15.837 19.239,15.462 19.182 C 15.204 19.144,14.890 18.933,14.652 18.640 L 14.442 18.380 14.441 16.208 L 14.440 14.037 14.596 13.825 C 14.936 13.365,15.122 13.271,15.650 13.295 C 16.015 13.311,16.052 13.321,16.226 13.446 M12.500 16.956 C 12.724 17.056,12.908 17.221,13.011 17.415 C 13.085 17.554,13.099 17.645,13.099 18.000 C 13.099 18.477,13.061 18.582,12.798 18.838 C 12.550 19.078,12.390 19.140,12.016 19.139 C 11.575 19.139,11.301 19.003,11.064 18.667 L 10.900 18.434 10.900 18.004 C 10.900 17.576,10.901 17.572,11.044 17.356 C 11.342 16.907,11.989 16.729,12.500 16.956 M8.804 16.926 C 9.020 17.000,9.255 17.179,9.383 17.367 C 9.495 17.533,9.500 17.559,9.500 17.986 L 9.500 18.433 9.340 18.665 C 9.112 18.996,8.825 19.140,8.398 19.139 C 7.970 19.138,7.686 18.994,7.460 18.665 L 7.300 18.432 7.300 18.003 C 7.300 17.598,7.306 17.565,7.415 17.401 C 7.671 17.014,7.911 16.882,8.364 16.881 C 8.531 16.880,8.729 16.901,8.804 16.926 " fill="#373B4D" stroke="none" fill-rule="evenodd"></path></svg>