<svg width="24" height="24" viewBox="0 0 24 24" fill="none" xmlns="http://www.w3.org/2000/svg"><path d="M7.840 2.558 L 6.420 2.580 6.200 2.688 C 5.764 2.903,5.203 3.518,4.905 4.109 L 4.800 4.317 4.801 12.009 L 4.801 19.700 4.962 19.994 C 5.330 20.671,5.821 21.147,6.509 21.494 L 6.717 21.600 12.003 21.600 L 17.288 21.600 17.556 21.459 C 18.174 21.134,18.736 20.557,19.040 19.935 L 19.200 19.608 19.200 11.953 L 19.200 4.298 19.022 3.986 C 18.670 3.369,18.108 2.795,17.722 2.657 C 17.570 2.604,17.218 2.587,15.580 2.559 C 13.487 2.522,10.161 2.522,7.840 2.558 M16.295 5.130 C 16.629 5.460,16.640 5.492,16.640 6.081 L 16.640 6.473 16.483 6.671 C 16.397 6.780,16.243 6.938,16.141 7.021 L 15.955 7.174 11.998 7.192 L 8.042 7.211 7.744 6.913 C 7.491 6.660,7.437 6.581,7.378 6.380 C 7.260 5.973,7.357 5.489,7.615 5.206 C 7.766 5.040,7.984 4.957,8.333 4.934 C 8.701 4.909,12.496 4.857,14.611 4.847 L 16.002 4.840 16.295 5.130 M8.982 9.841 C 9.056 9.887,9.188 10.005,9.273 10.102 C 9.439 10.290,9.479 10.448,9.480 10.922 C 9.481 11.525,8.929 11.974,8.273 11.906 C 7.948 11.872,7.806 11.802,7.567 11.560 L 7.360 11.349 7.360 10.798 L 7.360 10.247 7.530 10.073 C 7.623 9.977,7.781 9.857,7.880 9.806 C 8.043 9.723,8.098 9.716,8.453 9.736 C 8.756 9.752,8.877 9.776,8.982 9.841 M12.615 9.855 C 12.844 9.989,13.025 10.255,13.064 10.514 C 13.079 10.615,13.073 10.837,13.051 11.007 C 12.976 11.576,12.637 11.884,12.057 11.914 C 11.689 11.932,11.484 11.846,11.159 11.536 L 10.920 11.308 10.921 11.024 C 10.921 10.868,10.938 10.625,10.959 10.484 C 10.990 10.267,11.018 10.204,11.147 10.073 C 11.230 9.988,11.388 9.872,11.499 9.816 C 11.679 9.725,11.737 9.716,12.062 9.729 C 12.371 9.741,12.452 9.759,12.615 9.855 M16.215 9.855 C 16.444 9.989,16.625 10.255,16.664 10.514 C 16.679 10.615,16.673 10.837,16.651 11.007 C 16.576 11.576,16.237 11.884,15.657 11.914 C 15.289 11.932,15.084 11.846,14.759 11.536 L 14.520 11.308 14.521 11.024 C 14.521 10.868,14.538 10.625,14.559 10.484 C 14.590 10.267,14.618 10.204,14.747 10.073 C 14.830 9.988,14.988 9.872,15.099 9.816 C 15.279 9.725,15.337 9.716,15.662 9.729 C 15.971 9.741,16.052 9.759,16.215 9.855 M8.982 13.441 C 9.056 13.487,9.188 13.605,9.273 13.702 C 9.439 13.890,9.479 14.048,9.480 14.522 C 9.481 15.125,8.929 15.574,8.273 15.506 C 7.948 15.472,7.806 15.402,7.567 15.160 L 7.360 14.949 7.360 14.398 L 7.360 13.847 7.530 13.673 C 7.623 13.577,7.781 13.457,7.880 13.406 C 8.043 13.323,8.098 13.316,8.453 13.336 C 8.756 13.352,8.877 13.376,8.982 13.441 M12.615 13.455 C 12.844 13.589,13.025 13.855,13.064 14.114 C 13.079 14.215,13.073 14.437,13.051 14.607 C 12.976 15.176,12.637 15.484,12.057 15.514 C 11.689 15.532,11.484 15.446,11.159 15.136 L 10.920 14.908 10.921 14.624 C 10.921 14.468,10.938 14.225,10.959 14.084 C 10.990 13.867,11.018 13.804,11.147 13.673 C 11.230 13.588,11.388 13.472,11.499 13.416 C 11.679 13.325,11.737 13.316,12.062 13.329 C 12.371 13.341,12.452 13.359,12.615 13.455 M16.021 13.382 C 16.181 13.406,16.423 13.610,16.522 13.804 C 16.636 14.027,16.668 14.467,16.725 16.576 L 16.775 18.413 16.509 18.665 C 15.817 19.320,15.407 19.328,14.729 18.700 L 14.440 18.433 14.440 16.222 L 14.440 14.012 14.684 13.745 C 14.819 13.598,14.967 13.457,15.014 13.431 C 15.192 13.334,15.578 13.315,16.021 13.382 M8.982 17.041 C 9.056 17.087,9.188 17.205,9.273 17.302 C 9.439 17.490,9.479 17.648,9.480 18.122 C 9.481 18.725,8.929 19.174,8.273 19.106 C 7.948 19.072,7.806 19.002,7.567 18.760 L 7.360 18.549 7.360 17.998 L 7.360 17.447 7.530 17.273 C 7.623 17.177,7.781 17.057,7.880 17.006 C 8.043 16.923,8.098 16.916,8.453 16.936 C 8.756 16.952,8.877 16.976,8.982 17.041 M12.615 17.055 C 12.844 17.189,13.025 17.455,13.064 17.714 C 13.079 17.815,13.073 18.037,13.051 18.207 C 12.976 18.776,12.637 19.084,12.057 19.114 C 11.689 19.132,11.484 19.046,11.159 18.736 L 10.920 18.508 10.921 18.224 C 10.921 18.068,10.938 17.825,10.959 17.684 C 10.990 17.467,11.018 17.404,11.147 17.273 C 11.230 17.188,11.388 17.072,11.499 17.016 C 11.679 16.925,11.737 16.916,12.062 16.929 C 12.371 16.941,12.452 16.959,12.615 17.055 " fill="#373B4D" stroke="none" fill-rule="evenodd"></path></svg>