<svg width="24" height="24" viewBox="0 0 24 24" fill="none" xmlns="http://www.w3.org/2000/svg"><path d="M7.460 2.439 C 6.629 2.462,6.566 2.469,6.333 2.567 C 5.671 2.847,5.136 3.422,4.917 4.085 L 4.820 4.380 4.820 12.000 L 4.820 19.620 4.917 19.915 C 5.151 20.625,5.775 21.249,6.485 21.483 L 6.780 21.580 12.000 21.580 L 17.220 21.580 17.515 21.483 C 18.222 21.250,18.826 20.652,19.070 19.941 L 19.180 19.620 19.180 12.000 L 19.180 4.380 19.083 4.085 C 18.857 3.400,18.251 2.776,17.580 2.537 C 17.422 2.481,17.183 2.460,16.440 2.437 C 15.340 2.403,8.742 2.404,7.460 2.439 M16.164 4.965 C 16.589 5.192,16.760 5.497,16.760 6.032 C 16.760 6.289,16.743 6.361,16.633 6.566 C 16.500 6.816,16.310 6.995,16.054 7.111 C 15.911 7.175,15.617 7.180,12.000 7.180 L 8.100 7.180 7.906 7.084 C 7.474 6.872,7.221 6.460,7.227 5.980 C 7.236 5.325,7.654 4.895,8.340 4.834 C 8.516 4.819,10.294 4.813,12.291 4.821 L 15.922 4.836 16.164 4.965 M8.947 9.743 C 9.801 10.157,9.799 11.421,8.944 11.858 C 8.745 11.960,8.664 11.978,8.405 11.978 C 7.899 11.979,7.541 11.749,7.326 11.283 C 7.084 10.757,7.275 10.090,7.750 9.812 C 8.148 9.579,8.561 9.555,8.947 9.743 M12.547 9.743 C 12.956 9.941,13.180 10.316,13.177 10.800 C 13.174 11.297,12.955 11.658,12.527 11.868 C 12.339 11.961,12.248 11.980,12.000 11.979 C 11.498 11.978,11.140 11.746,10.926 11.283 C 10.684 10.757,10.875 10.090,11.350 9.812 C 11.748 9.579,12.161 9.555,12.547 9.743 M16.147 9.743 C 16.556 9.941,16.780 10.316,16.777 10.800 C 16.774 11.297,16.555 11.658,16.127 11.868 C 15.939 11.961,15.848 11.980,15.600 11.979 C 15.098 11.978,14.740 11.746,14.526 11.283 C 14.284 10.757,14.475 10.090,14.950 9.812 C 15.348 9.579,15.761 9.555,16.147 9.743 M8.947 13.343 C 9.801 13.757,9.799 15.021,8.944 15.458 C 8.745 15.560,8.664 15.578,8.405 15.578 C 7.899 15.579,7.541 15.349,7.326 14.883 C 7.084 14.357,7.275 13.690,7.750 13.412 C 8.148 13.179,8.561 13.155,8.947 13.343 M12.547 13.343 C 12.956 13.541,13.180 13.916,13.177 14.400 C 13.174 14.897,12.955 15.258,12.527 15.468 C 12.339 15.561,12.248 15.580,12.000 15.579 C 11.498 15.578,11.140 15.346,10.926 14.883 C 10.684 14.357,10.875 13.690,11.350 13.412 C 11.748 13.179,12.161 13.155,12.547 13.343 M16.103 13.338 C 16.341 13.445,16.565 13.663,16.679 13.898 C 16.757 14.060,16.760 14.137,16.760 16.197 L 16.760 18.329 16.632 18.568 C 16.173 19.430,14.993 19.396,14.531 18.509 L 14.423 18.300 14.421 16.200 L 14.420 14.100 14.518 13.902 C 14.820 13.294,15.480 13.059,16.103 13.338 M8.947 16.943 C 9.801 17.357,9.799 18.621,8.944 19.058 C 8.745 19.160,8.664 19.178,8.405 19.178 C 7.899 19.179,7.541 18.949,7.326 18.483 C 7.084 17.957,7.275 17.290,7.750 17.012 C 8.148 16.779,8.561 16.755,8.947 16.943 M12.547 16.943 C 12.956 17.141,13.180 17.516,13.177 18.000 C 13.174 18.497,12.955 18.858,12.527 19.068 C 12.339 19.161,12.248 19.180,12.000 19.179 C 11.498 19.178,11.140 18.946,10.926 18.483 C 10.684 17.957,10.875 17.290,11.350 17.012 C 11.748 16.779,12.161 16.755,12.547 16.943 " fill="#373B4D" stroke="none" fill-rule="evenodd"></path></svg>