<svg width="24" height="24" viewBox="0 0 24 24" fill="none" xmlns="http://www.w3.org/2000/svg"><path d="M7.200 2.595 C 6.390 2.620,6.377 2.621,6.169 2.737 C 5.748 2.970,5.231 3.521,4.945 4.043 L 4.800 4.307 4.800 12.023 L 4.800 19.740 5.045 20.115 C 5.458 20.745,5.962 21.221,6.509 21.495 L 6.717 21.600 12.018 21.600 L 17.318 21.600 17.629 21.410 C 18.205 21.058,18.789 20.421,19.095 19.811 L 19.200 19.603 19.200 11.925 L 19.200 4.247 19.003 3.953 C 18.646 3.420,18.144 2.896,17.843 2.741 C 17.759 2.698,17.547 2.657,17.303 2.636 C 16.814 2.594,8.351 2.560,7.200 2.595 M16.254 5.084 C 16.557 5.419,16.597 5.521,16.626 6.028 L 16.651 6.461 16.425 6.725 C 16.301 6.870,16.131 7.037,16.048 7.095 L 15.896 7.200 11.951 7.200 L 8.007 7.200 7.780 6.950 C 7.428 6.563,7.380 6.449,7.380 6.000 C 7.380 5.648,7.389 5.604,7.505 5.400 C 7.683 5.086,7.849 5.009,8.462 4.957 C 8.908 4.919,12.270 4.861,14.887 4.846 L 16.033 4.840 16.254 5.084 M8.730 9.796 C 8.925 9.820,8.985 9.849,9.121 9.981 C 9.373 10.227,9.440 10.404,9.440 10.823 C 9.439 11.146,9.428 11.200,9.320 11.389 C 9.050 11.858,8.412 12.051,7.933 11.807 C 7.847 11.763,7.682 11.642,7.568 11.540 L 7.360 11.353 7.360 10.802 L 7.360 10.251 7.561 10.063 C 7.671 9.960,7.819 9.850,7.891 9.819 C 8.030 9.759,8.361 9.749,8.730 9.796 M12.613 9.876 C 12.695 9.926,12.819 10.051,12.891 10.154 C 13.016 10.334,13.020 10.352,13.018 10.743 C 13.017 11.100,13.004 11.171,12.905 11.373 C 12.776 11.637,12.624 11.765,12.329 11.861 C 11.922 11.994,11.553 11.883,11.138 11.506 L 10.904 11.294 10.947 10.829 C 10.998 10.285,11.045 10.182,11.359 9.926 L 11.575 9.750 12.020 9.768 C 12.396 9.782,12.489 9.799,12.613 9.876 M16.213 9.876 C 16.295 9.926,16.419 10.051,16.491 10.154 C 16.616 10.334,16.620 10.352,16.618 10.743 C 16.617 11.100,16.604 11.171,16.505 11.373 C 16.376 11.637,16.224 11.765,15.929 11.861 C 15.522 11.994,15.153 11.883,14.738 11.506 L 14.504 11.294 14.547 10.829 C 14.598 10.285,14.645 10.182,14.959 9.926 L 15.175 9.750 15.620 9.768 C 15.996 9.782,16.089 9.799,16.213 9.876 M8.730 13.396 C 8.925 13.420,8.985 13.449,9.121 13.581 C 9.373 13.827,9.440 14.004,9.440 14.423 C 9.439 14.746,9.428 14.800,9.320 14.989 C 9.050 15.458,8.412 15.651,7.933 15.407 C 7.847 15.363,7.682 15.242,7.568 15.140 L 7.360 14.953 7.360 14.402 L 7.360 13.851 7.561 13.663 C 7.671 13.560,7.819 13.450,7.891 13.419 C 8.030 13.359,8.361 13.349,8.730 13.396 M12.623 13.497 C 12.712 13.562,12.838 13.688,12.903 13.777 C 13.014 13.932,13.020 13.960,13.018 14.343 C 13.017 14.700,13.004 14.771,12.905 14.973 C 12.776 15.237,12.624 15.365,12.329 15.461 C 11.922 15.594,11.553 15.483,11.138 15.106 L 10.904 14.894 10.947 14.429 C 10.998 13.886,11.045 13.782,11.357 13.528 L 11.571 13.353 12.016 13.367 C 12.433 13.379,12.470 13.387,12.623 13.497 M16.160 13.461 C 16.417 13.593,16.553 13.855,16.601 14.312 C 16.638 14.662,16.695 15.968,16.744 17.561 L 16.771 18.423 16.555 18.618 C 16.279 18.868,15.981 19.058,15.768 19.122 C 15.633 19.163,15.567 19.163,15.432 19.122 C 15.220 19.059,14.922 18.868,14.650 18.622 L 14.440 18.433 14.440 16.226 L 14.440 14.019 14.621 13.812 C 14.818 13.586,15.020 13.445,15.214 13.397 C 15.387 13.354,16.037 13.399,16.160 13.461 M8.730 16.996 C 8.925 17.020,8.985 17.049,9.121 17.181 C 9.373 17.427,9.440 17.604,9.440 18.023 C 9.439 18.346,9.428 18.400,9.320 18.589 C 9.050 19.058,8.412 19.251,7.933 19.007 C 7.847 18.963,7.682 18.842,7.568 18.740 L 7.360 18.553 7.360 18.002 L 7.360 17.451 7.561 17.263 C 7.671 17.160,7.819 17.050,7.891 17.019 C 8.030 16.959,8.361 16.949,8.730 16.996 M12.623 17.097 C 12.712 17.162,12.838 17.288,12.903 17.377 C 13.014 17.532,13.020 17.560,13.018 17.943 C 13.017 18.300,13.004 18.371,12.905 18.573 C 12.776 18.837,12.624 18.965,12.329 19.061 C 11.922 19.194,11.553 19.083,11.138 18.706 L 10.904 18.494 10.947 18.029 C 10.998 17.486,11.045 17.382,11.357 17.128 L 11.571 16.953 12.016 16.967 C 12.433 16.979,12.470 16.987,12.623 17.097 " fill="#373B4D" stroke="none" fill-rule="evenodd"></path></svg>