<svg width="24" height="24" viewBox="0 0 24 24" fill="none" xmlns="http://www.w3.org/2000/svg"><path d="M6.651 2.599 C 6.489 2.698,6.211 2.982,6.138 3.124 C 6.065 3.266,6.001 3.835,6.000 4.348 C 6.000 4.572,5.986 4.764,5.968 4.775 C 5.951 4.786,5.676 4.814,5.358 4.838 C 4.522 4.902,4.106 4.980,3.779 5.135 C 3.304 5.359,2.826 5.867,2.525 6.469 L 2.400 6.718 2.401 13.209 L 2.401 19.700 2.562 19.994 C 2.930 20.671,3.421 21.147,4.109 21.494 L 4.317 21.600 12.003 21.600 L 19.688 21.600 19.958 21.458 C 20.549 21.148,21.148 20.548,21.459 19.956 L 21.600 19.688 21.600 13.203 L 21.600 6.717 21.495 6.509 C 21.185 5.890,20.682 5.340,20.233 5.127 C 20.064 5.047,19.840 4.986,19.560 4.943 C 19.160 4.882,18.338 4.801,18.116 4.800 L 18.013 4.800 17.987 4.110 C 17.973 3.730,17.941 3.350,17.917 3.264 C 17.857 3.052,17.521 2.702,17.294 2.615 C 17.016 2.509,16.507 2.517,16.276 2.631 C 15.786 2.872,15.647 3.194,15.611 4.170 L 15.588 4.800 11.994 4.800 L 8.400 4.800 8.400 4.310 C 8.399 3.389,8.276 2.996,7.909 2.746 C 7.666 2.580,7.449 2.522,7.060 2.521 C 6.851 2.521,6.747 2.540,6.651 2.599 M17.495 8.730 C 17.829 9.060,17.840 9.092,17.840 9.681 L 17.840 10.073 17.683 10.271 C 17.597 10.380,17.443 10.537,17.342 10.621 L 17.156 10.773 12.001 10.792 L 6.845 10.811 6.578 10.556 C 6.243 10.234,6.153 10.062,6.129 9.697 C 6.104 9.316,6.193 9.012,6.391 8.805 C 6.584 8.603,6.730 8.565,7.440 8.535 C 8.057 8.510,12.802 8.458,15.551 8.447 L 17.202 8.440 17.495 8.730 " fill="#373B4D" stroke="none" fill-rule="evenodd"></path></svg>