<svg width="24" height="24" viewBox="0 0 24 24" fill="none" xmlns="http://www.w3.org/2000/svg"><path d="M6.700 2.554 C 6.496 2.652,6.182 2.975,6.101 3.170 C 6.057 3.278,6.032 3.529,6.013 4.054 L 5.988 4.788 5.264 4.836 C 3.985 4.920,3.692 5.021,3.157 5.556 C 2.874 5.840,2.778 5.971,2.607 6.307 L 2.400 6.713 2.400 13.200 L 2.400 19.687 2.579 20.034 C 2.903 20.661,3.339 21.097,3.966 21.421 L 4.313 21.600 11.992 21.600 L 19.672 21.600 20.026 21.422 C 20.657 21.104,21.104 20.657,21.422 20.026 L 21.600 19.672 21.600 13.195 L 21.600 6.718 21.475 6.469 C 21.250 6.024,21.042 5.732,20.764 5.469 C 20.280 5.013,19.974 4.916,18.763 4.837 L 18.010 4.788 17.991 4.064 C 17.971 3.247,17.947 3.155,17.682 2.867 C 17.447 2.612,17.180 2.504,16.780 2.504 C 16.391 2.504,16.139 2.616,15.890 2.898 C 15.677 3.140,15.637 3.319,15.610 4.130 L 15.588 4.800 12.000 4.800 L 8.411 4.800 8.389 4.090 C 8.377 3.700,8.345 3.308,8.320 3.220 C 8.257 3.006,7.866 2.621,7.654 2.564 C 7.569 2.541,7.356 2.512,7.180 2.500 C 6.914 2.480,6.833 2.489,6.700 2.554 M17.438 8.651 C 17.580 8.766,17.729 8.917,17.769 8.986 C 17.875 9.167,17.943 9.734,17.884 9.948 C 17.827 10.157,17.571 10.485,17.352 10.630 L 17.186 10.740 15.123 10.766 C 13.988 10.780,11.665 10.793,9.960 10.796 L 6.860 10.800 6.634 10.622 C 6.228 10.304,6.085 10.043,6.082 9.617 C 6.079 9.297,6.170 9.046,6.368 8.821 C 6.668 8.480,6.391 8.507,9.920 8.479 C 11.647 8.466,13.987 8.452,15.120 8.448 L 17.180 8.442 17.438 8.651 " fill="#373B4D" stroke="none" fill-rule="evenodd"></path></svg>