<svg width="24" height="24" viewBox="0 0 24 24" fill="none" xmlns="http://www.w3.org/2000/svg"><path d="M6.790 2.575 C 6.513 2.678,6.305 2.875,6.146 3.187 C 6.083 3.310,6.033 3.680,5.979 4.410 C 5.948 4.820,6.028 4.772,5.220 4.861 C 4.472 4.943,4.064 5.027,3.806 5.153 C 3.358 5.371,2.814 5.934,2.521 6.483 L 2.400 6.711 2.400 13.226 L 2.400 19.740 2.645 20.115 C 3.058 20.745,3.562 21.221,4.109 21.495 L 4.317 21.600 12.017 21.600 L 19.717 21.600 20.013 21.420 C 20.543 21.099,21.099 20.543,21.420 20.013 L 21.600 19.717 21.600 13.214 L 21.600 6.712 21.455 6.437 C 21.298 6.138,20.914 5.664,20.635 5.425 C 20.240 5.087,19.761 4.953,18.536 4.840 L 18.012 4.791 17.988 4.166 C 17.957 3.326,17.909 3.157,17.626 2.894 C 17.334 2.622,17.096 2.540,16.705 2.578 C 16.180 2.628,15.884 2.834,15.747 3.242 C 15.660 3.502,15.600 3.986,15.600 4.423 L 15.600 4.800 12.000 4.800 L 8.400 4.800 8.399 4.470 C 8.397 3.602,8.265 3.053,8.007 2.840 C 7.708 2.593,7.098 2.460,6.790 2.575 M17.454 8.684 C 17.757 9.019,17.797 9.121,17.826 9.628 L 17.851 10.061 17.625 10.325 C 17.501 10.470,17.331 10.637,17.248 10.695 L 17.096 10.800 11.952 10.800 L 6.809 10.800 6.578 10.551 C 6.451 10.414,6.303 10.205,6.249 10.087 C 6.162 9.898,6.153 9.831,6.168 9.526 C 6.194 9.011,6.361 8.740,6.715 8.640 C 7.045 8.547,10.693 8.469,15.787 8.446 L 17.233 8.440 17.454 8.684 " fill="#373B4D" stroke="none" fill-rule="evenodd"></path></svg>