<svg width="24" height="24" viewBox="0 0 24 24" fill="none" xmlns="http://www.w3.org/2000/svg"><path d="M6.574 2.618 C 6.327 2.784,6.133 3.010,6.076 3.200 C 6.052 3.277,6.023 3.666,6.011 4.064 L 5.990 4.788 5.385 4.814 C 4.083 4.871,3.659 5.008,3.132 5.542 C 2.898 5.779,2.805 5.915,2.632 6.267 L 2.420 6.700 2.420 13.200 L 2.420 19.700 2.589 20.053 C 2.903 20.709,3.293 21.098,3.955 21.415 L 4.300 21.580 11.952 21.590 L 19.604 21.601 19.901 21.477 C 20.673 21.156,21.163 20.668,21.474 19.912 L 21.601 19.604 21.590 13.151 L 21.580 6.699 21.394 6.319 C 21.161 5.845,20.913 5.533,20.568 5.280 C 20.112 4.944,19.778 4.865,18.595 4.814 L 18.009 4.788 17.992 4.044 C 17.977 3.382,17.965 3.282,17.889 3.135 C 17.749 2.865,17.597 2.715,17.342 2.594 C 17.025 2.445,16.572 2.432,16.308 2.565 C 16.026 2.709,15.849 2.873,15.741 3.095 C 15.644 3.292,15.635 3.358,15.612 4.053 L 15.587 4.800 11.999 4.800 L 8.411 4.800 8.392 4.064 C 8.375 3.363,8.369 3.319,8.264 3.105 C 8.134 2.838,7.881 2.616,7.615 2.537 C 7.512 2.505,7.281 2.480,7.103 2.480 C 6.800 2.480,6.766 2.489,6.574 2.618 M17.406 8.610 C 17.771 8.856,17.878 9.048,17.908 9.513 C 17.927 9.807,17.918 9.914,17.861 10.063 C 17.770 10.301,17.415 10.660,17.211 10.720 C 17.106 10.751,15.508 10.771,11.972 10.788 L 6.883 10.812 6.653 10.638 C 6.372 10.426,6.265 10.308,6.163 10.100 C 5.918 9.596,6.082 8.974,6.549 8.638 L 6.740 8.500 8.660 8.479 C 9.716 8.467,12.059 8.453,13.866 8.449 L 17.153 8.440 17.406 8.610 " fill="#373B4D" stroke="none" fill-rule="evenodd"></path></svg>