<svg width="24" height="24" viewBox="0 0 24 24" fill="none" xmlns="http://www.w3.org/2000/svg"><path d="M6.663 2.563 C 6.436 2.687,6.130 3.017,6.081 3.191 C 6.057 3.273,6.027 3.665,6.013 4.063 L 5.988 4.785 5.224 4.831 C 4.027 4.903,3.653 5.031,3.140 5.542 C 2.912 5.769,2.812 5.912,2.629 6.274 L 2.400 6.723 2.400 13.200 L 2.400 19.676 2.609 20.088 C 2.782 20.431,2.875 20.557,3.159 20.841 C 3.443 21.125,3.569 21.218,3.913 21.392 L 4.325 21.601 12.013 21.590 L 19.700 21.580 20.100 21.382 C 20.435 21.216,20.555 21.129,20.842 20.842 C 21.129 20.555,21.216 20.435,21.382 20.100 L 21.580 19.700 21.590 13.215 L 21.601 6.730 21.420 6.368 C 21.187 5.903,20.944 5.582,20.653 5.354 C 20.168 4.974,19.906 4.900,18.795 4.833 L 18.009 4.785 17.993 4.060 C 17.977 3.364,17.972 3.326,17.865 3.107 C 17.658 2.683,17.211 2.451,16.676 2.490 C 16.369 2.512,16.145 2.621,15.908 2.865 C 15.682 3.097,15.638 3.281,15.611 4.090 L 15.588 4.800 11.999 4.800 L 8.410 4.800 8.393 4.070 C 8.375 3.252,8.337 3.114,8.057 2.825 C 7.824 2.586,7.639 2.514,7.203 2.495 C 6.867 2.480,6.801 2.488,6.663 2.563 M17.400 8.614 C 17.780 8.891,17.854 9.023,17.903 9.519 C 17.945 9.949,17.881 10.125,17.563 10.444 C 17.327 10.681,17.280 10.710,17.100 10.733 C 16.990 10.747,14.647 10.771,11.894 10.786 L 6.888 10.813 6.694 10.670 C 6.243 10.337,6.065 10.035,6.065 9.600 C 6.065 9.193,6.252 8.852,6.620 8.587 C 6.739 8.500,6.753 8.500,9.420 8.478 C 10.894 8.466,13.239 8.453,14.631 8.448 L 17.161 8.440 17.400 8.614 " fill="#373B4D" stroke="none" fill-rule="evenodd"></path></svg>