<svg width="24" height="24" viewBox="0 0 24 24" fill="none" xmlns="http://www.w3.org/2000/svg"><path d="M6.692 2.582 C 6.622 2.618,6.467 2.750,6.348 2.875 C 6.083 3.153,6.043 3.297,6.015 4.080 C 5.987 4.856,6.026 4.787,5.590 4.819 C 4.934 4.868,4.307 4.958,4.040 5.042 C 3.489 5.215,2.915 5.743,2.566 6.398 L 2.400 6.709 2.400 13.206 L 2.400 19.702 2.579 20.016 C 2.969 20.700,3.443 21.158,4.109 21.495 L 4.317 21.600 12.005 21.600 L 19.693 21.600 19.957 21.455 C 20.574 21.116,21.116 20.574,21.457 19.954 L 21.600 19.693 21.600 13.205 L 21.600 6.717 21.494 6.509 C 21.212 5.950,20.711 5.390,20.300 5.173 C 19.996 5.013,19.644 4.941,18.736 4.854 L 18.012 4.784 17.986 4.122 C 17.971 3.758,17.943 3.391,17.923 3.306 C 17.873 3.096,17.614 2.803,17.361 2.670 C 17.178 2.574,17.106 2.560,16.805 2.561 C 16.423 2.562,16.191 2.639,15.986 2.832 C 15.732 3.073,15.644 3.401,15.611 4.230 L 15.588 4.800 11.999 4.800 L 8.410 4.800 8.389 4.170 C 8.358 3.212,8.222 2.894,7.738 2.657 C 7.454 2.518,6.895 2.478,6.692 2.582 M17.495 8.724 C 17.804 9.057,17.839 9.157,17.840 9.686 L 17.840 10.073 17.662 10.292 C 17.563 10.412,17.407 10.571,17.313 10.645 L 17.143 10.780 11.985 10.792 L 6.827 10.804 6.630 10.612 C 6.338 10.327,6.203 10.112,6.156 9.855 C 6.094 9.523,6.143 9.204,6.294 8.955 C 6.475 8.656,6.601 8.603,7.248 8.556 C 7.750 8.519,12.224 8.461,15.666 8.447 L 17.233 8.440 17.495 8.724 " fill="#373B4D" stroke="none" fill-rule="evenodd"></path></svg>