<svg width="24" height="24" viewBox="0 0 24 24" fill="none" xmlns="http://www.w3.org/2000/svg"><path d="M6.763 2.526 C 6.569 2.583,6.140 3.022,6.083 3.222 C 6.059 3.309,6.027 3.700,6.013 4.090 L 5.987 4.800 5.886 4.800 C 5.830 4.800,5.532 4.819,5.222 4.842 C 3.984 4.934,3.671 5.045,3.143 5.578 C 2.889 5.835,2.775 5.991,2.610 6.307 L 2.400 6.710 2.400 13.196 L 2.400 19.682 2.525 19.931 C 2.883 20.640,3.360 21.117,4.069 21.475 L 4.318 21.600 12.000 21.600 L 19.683 21.600 19.891 21.495 C 20.641 21.117,21.117 20.641,21.495 19.891 L 21.600 19.683 21.599 13.191 L 21.599 6.700 21.421 6.369 C 20.956 5.503,20.429 5.068,19.689 4.940 C 19.416 4.892,18.369 4.800,18.108 4.800 L 18.011 4.800 17.989 4.090 C 17.977 3.700,17.947 3.316,17.923 3.237 C 17.866 3.046,17.635 2.784,17.409 2.651 C 17.252 2.560,17.167 2.540,16.852 2.527 C 16.512 2.512,16.462 2.520,16.261 2.618 C 15.991 2.750,15.778 2.992,15.697 3.258 C 15.658 3.385,15.627 3.709,15.612 4.130 L 15.588 4.800 11.994 4.800 L 8.400 4.800 8.399 4.370 C 8.398 4.134,8.382 3.772,8.362 3.566 C 8.332 3.257,8.306 3.164,8.214 3.031 C 8.072 2.826,7.790 2.611,7.604 2.564 C 7.366 2.504,6.909 2.483,6.763 2.526 M17.419 8.640 C 17.557 8.749,17.698 8.881,17.732 8.933 C 17.892 9.177,17.942 9.843,17.819 10.085 C 17.705 10.309,17.485 10.554,17.300 10.662 L 17.126 10.764 11.993 10.787 L 6.860 10.809 6.600 10.592 C 6.438 10.457,6.295 10.292,6.221 10.157 C 6.114 9.964,6.101 9.903,6.102 9.600 C 6.103 9.218,6.171 9.041,6.424 8.761 C 6.530 8.643,6.615 8.594,6.772 8.558 C 6.972 8.511,10.304 8.469,15.394 8.447 L 17.169 8.440 17.419 8.640 " fill="#373B4D" stroke="none" fill-rule="evenodd"></path></svg>