<svg width="24" height="24" viewBox="0 0 24 24" fill="none" xmlns="http://www.w3.org/2000/svg"><path d="M6.690 2.601 C 6.444 2.727,6.172 3.047,6.100 3.295 C 6.067 3.408,6.026 3.774,6.008 4.110 C 5.990 4.445,5.959 4.737,5.938 4.757 C 5.917 4.778,5.675 4.814,5.400 4.839 C 4.800 4.891,4.248 4.979,3.993 5.063 C 3.520 5.218,2.925 5.769,2.590 6.363 L 2.400 6.700 2.400 13.208 L 2.400 19.716 2.522 19.923 C 2.975 20.691,3.449 21.161,4.109 21.494 L 4.317 21.600 12.011 21.600 L 19.705 21.600 20.062 21.390 C 20.548 21.104,21.104 20.548,21.390 20.062 L 21.600 19.705 21.600 13.211 L 21.600 6.717 21.495 6.509 C 21.335 6.193,21.172 5.968,20.882 5.666 C 20.317 5.075,20.039 4.977,18.530 4.837 L 18.000 4.787 17.999 4.424 C 17.996 3.882,17.936 3.308,17.868 3.176 C 17.767 2.981,17.517 2.754,17.287 2.649 C 17.095 2.561,17.032 2.552,16.745 2.570 C 16.020 2.615,15.736 2.919,15.641 3.751 C 15.619 3.943,15.601 4.258,15.600 4.450 L 15.600 4.800 12.006 4.800 L 8.412 4.800 8.387 4.190 C 8.344 3.169,8.224 2.895,7.714 2.661 C 7.384 2.510,6.921 2.483,6.690 2.601 M17.456 8.683 C 17.782 9.035,17.811 9.108,17.832 9.622 L 17.849 10.064 17.630 10.323 C 17.509 10.466,17.339 10.631,17.253 10.691 L 17.096 10.800 11.952 10.800 L 6.809 10.800 6.571 10.545 C 6.240 10.191,6.146 9.984,6.145 9.603 C 6.143 9.143,6.329 8.782,6.636 8.652 C 6.723 8.615,7.040 8.581,7.536 8.555 C 8.274 8.518,12.628 8.460,15.726 8.447 L 17.231 8.440 17.456 8.683 " fill="#373B4D" stroke="none" fill-rule="evenodd"></path></svg>