<svg width="24" height="24" viewBox="0 0 24 24" fill="none" xmlns="http://www.w3.org/2000/svg"><path d="M6.960 2.436 C 6.599 2.511,6.291 2.748,6.133 3.071 C 6.023 3.293,6.020 3.323,6.006 4.044 L 5.993 4.789 5.186 4.812 C 4.156 4.842,3.876 4.917,3.372 5.297 C 2.964 5.604,2.677 6.007,2.513 6.500 L 2.420 6.780 2.420 13.200 L 2.420 19.620 2.517 19.915 C 2.751 20.625,3.375 21.249,4.085 21.483 L 4.380 21.580 12.000 21.580 L 19.620 21.580 19.915 21.483 C 20.625 21.249,21.249 20.625,21.483 19.915 L 21.580 19.620 21.580 13.200 L 21.580 6.780 21.487 6.500 C 21.325 6.011,21.031 5.601,20.620 5.291 C 20.125 4.917,19.840 4.842,18.814 4.812 L 18.008 4.789 17.994 4.044 C 17.980 3.324,17.976 3.293,17.868 3.072 C 17.407 2.133,15.957 2.252,15.660 3.253 C 15.617 3.397,15.600 3.647,15.600 4.127 L 15.600 4.800 12.004 4.800 L 8.409 4.800 8.394 4.050 C 8.380 3.324,8.376 3.293,8.268 3.072 C 8.206 2.946,8.098 2.795,8.028 2.735 C 7.750 2.500,7.282 2.369,6.960 2.436 M17.364 8.565 C 17.789 8.792,17.960 9.098,17.960 9.632 C 17.960 9.889,17.943 9.961,17.833 10.166 C 17.700 10.416,17.510 10.595,17.254 10.711 C 17.110 10.775,16.756 10.780,12.000 10.780 L 6.900 10.780 6.706 10.684 C 6.274 10.472,6.021 10.060,6.027 9.580 C 6.033 9.134,6.235 8.783,6.603 8.581 C 6.787 8.479,6.881 8.457,7.220 8.434 C 7.440 8.419,9.758 8.414,12.371 8.422 L 17.123 8.437 17.364 8.565 " fill="#373B4D" stroke="none" fill-rule="evenodd"></path></svg>