<svg width="24" height="24" viewBox="0 0 24 24" fill="none" xmlns="http://www.w3.org/2000/svg"><path d="M10.560 3.679 C 10.158 3.699,9.879 3.733,9.765 3.775 C 9.523 3.865,9.180 4.119,8.643 4.606 C 7.665 5.492,7.301 5.808,7.196 5.862 C 7.045 5.940,6.506 5.993,5.376 6.039 C 4.847 6.060,4.316 6.098,4.196 6.123 C 3.471 6.275,2.813 6.921,2.483 7.803 C 2.399 8.027,2.399 8.038,2.410 13.263 L 2.420 18.500 2.589 18.853 C 2.926 19.558,3.366 19.975,4.087 20.273 L 4.394 20.400 11.970 20.400 L 19.546 20.400 19.839 20.300 C 20.204 20.176,20.468 20.011,20.795 19.701 C 21.126 19.387,21.341 19.067,21.485 18.673 L 21.601 18.355 21.590 13.128 L 21.580 7.900 21.413 7.552 C 21.045 6.786,20.496 6.292,19.840 6.134 C 19.719 6.104,19.206 6.062,18.700 6.038 C 18.194 6.015,17.578 5.981,17.331 5.962 C 16.786 5.921,16.831 5.949,15.850 5.033 C 14.757 4.012,14.476 3.816,13.980 3.723 C 13.678 3.666,11.387 3.636,10.560 3.679 M12.500 9.718 C 13.110 9.757,13.394 9.855,13.938 10.218 C 14.723 10.740,15.406 11.736,15.483 12.471 C 15.529 12.908,15.527 13.693,15.479 14.000 C 15.431 14.305,15.158 14.902,14.902 15.258 C 14.455 15.883,13.624 16.487,12.970 16.663 C 12.608 16.760,11.566 16.785,11.224 16.704 C 10.140 16.447,9.163 15.618,8.700 14.560 C 8.522 14.156,8.481 13.914,8.481 13.280 C 8.482 12.533,8.529 12.223,8.696 11.860 C 9.111 10.963,9.698 10.359,10.564 9.940 C 11.088 9.687,11.424 9.649,12.500 9.718 " fill="#373B4D" stroke="none" fill-rule="evenodd"></path></svg>