<svg width="24" height="24" viewBox="0 0 24 24" fill="none" xmlns="http://www.w3.org/2000/svg"><path d="M10.400 3.637 C 9.978 3.669,9.600 3.794,9.302 3.999 C 9.204 4.066,8.759 4.474,8.312 4.905 C 7.865 5.336,7.423 5.742,7.329 5.807 C 7.097 5.967,6.892 5.991,5.489 6.016 C 4.377 6.037,4.304 6.043,4.034 6.137 C 3.334 6.380,2.776 6.944,2.532 7.653 L 2.420 7.980 2.420 13.200 L 2.420 18.420 2.517 18.715 C 2.751 19.425,3.375 20.049,4.085 20.283 L 4.380 20.380 12.000 20.380 L 19.620 20.380 19.915 20.283 C 20.625 20.049,21.249 19.425,21.483 18.715 L 21.580 18.420 21.580 13.200 L 21.580 7.980 21.487 7.700 C 21.225 6.912,20.616 6.324,19.820 6.092 C 19.674 6.050,19.265 6.026,18.300 6.005 C 17.120 5.979,16.963 5.968,16.823 5.900 C 16.736 5.858,16.376 5.544,16.023 5.201 C 14.843 4.058,14.595 3.864,14.141 3.723 C 13.924 3.656,13.717 3.645,12.338 3.628 C 11.481 3.617,10.609 3.621,10.400 3.637 M12.783 9.702 C 14.064 9.967,15.192 11.077,15.502 12.380 C 15.590 12.750,15.579 13.712,15.484 14.084 C 15.315 14.738,14.985 15.292,14.467 15.789 C 14.086 16.154,13.666 16.417,13.163 16.606 C 12.834 16.729,12.791 16.735,12.116 16.751 C 11.561 16.764,11.359 16.754,11.164 16.704 C 9.879 16.375,8.843 15.349,8.516 14.084 C 8.419 13.706,8.410 12.751,8.501 12.368 C 8.743 11.340,9.561 10.359,10.543 9.919 C 11.019 9.705,11.320 9.645,11.932 9.642 C 12.283 9.641,12.592 9.662,12.783 9.702 " fill="#373B4D" stroke="none" fill-rule="evenodd"></path></svg>