<svg width="24" height="24" viewBox="0 0 24 24" fill="none" xmlns="http://www.w3.org/2000/svg"><path d="M10.080 3.795 C 9.894 3.811,9.718 3.854,9.618 3.908 C 9.369 4.039,8.884 4.413,8.200 4.998 C 7.480 5.613,7.196 5.817,6.977 5.874 C 6.823 5.915,6.345 5.971,5.060 6.101 C 4.335 6.174,3.879 6.258,3.701 6.349 C 3.526 6.440,3.020 6.940,2.820 7.220 C 2.726 7.352,2.593 7.572,2.525 7.709 L 2.400 7.958 2.400 13.220 L 2.400 18.482 2.516 18.711 C 2.834 19.341,3.459 19.966,4.089 20.284 L 4.318 20.400 9.229 20.397 C 15.220 20.392,19.509 20.346,19.756 20.282 C 20.383 20.120,21.087 19.461,21.495 18.651 L 21.600 18.443 21.600 13.171 L 21.600 7.900 21.410 7.561 C 21.140 7.079,20.608 6.546,20.200 6.348 C 19.857 6.182,19.745 6.164,18.299 6.039 C 17.770 5.994,17.236 5.933,17.112 5.904 C 16.833 5.840,16.613 5.683,15.640 4.860 C 15.233 4.515,14.795 4.163,14.666 4.077 C 14.245 3.795,14.235 3.794,12.200 3.780 C 11.199 3.773,10.245 3.780,10.080 3.795 M13.093 9.875 C 13.264 9.921,13.507 10.013,13.633 10.079 C 14.184 10.373,14.805 11.031,15.193 11.731 L 15.400 12.105 15.400 13.194 L 15.400 14.283 15.296 14.491 C 14.980 15.122,14.327 15.887,13.823 16.218 C 13.281 16.574,12.729 16.720,11.930 16.720 C 11.374 16.720,11.129 16.674,10.681 16.486 C 9.756 16.097,8.889 15.115,8.632 14.165 C 8.565 13.919,8.549 13.740,8.548 13.240 C 8.547 12.035,8.763 11.518,9.607 10.697 C 10.065 10.251,10.441 10.004,10.889 9.855 C 11.167 9.763,11.216 9.759,11.980 9.775 C 12.623 9.789,12.841 9.808,13.093 9.875 " fill="#373B4D" stroke="none" fill-rule="evenodd"></path></svg>