<svg width="24" height="24" viewBox="0 0 24 24" fill="none" xmlns="http://www.w3.org/2000/svg"><path d="M10.054 3.722 C 9.631 3.777,9.367 3.954,8.380 4.843 C 7.337 5.783,7.228 5.867,7.009 5.914 C 6.902 5.937,6.492 5.975,6.097 5.999 C 4.362 6.104,4.153 6.123,3.955 6.198 C 3.265 6.460,2.552 7.318,2.439 8.020 C 2.416 8.165,2.400 10.291,2.400 13.368 L 2.400 18.476 2.600 18.868 C 2.937 19.527,3.291 19.882,3.920 20.192 L 4.300 20.380 11.919 20.390 C 20.400 20.402,19.640 20.426,20.217 20.126 C 20.533 19.963,21.040 19.492,21.236 19.182 C 21.304 19.073,21.414 18.844,21.480 18.673 L 21.600 18.363 21.600 13.150 L 21.600 7.938 21.462 7.649 C 21.043 6.775,20.407 6.223,19.700 6.121 C 19.546 6.099,18.907 6.053,18.280 6.019 C 17.653 5.985,17.068 5.938,16.980 5.915 C 16.764 5.857,16.614 5.740,15.884 5.065 C 14.693 3.963,14.426 3.787,13.840 3.720 C 13.439 3.674,10.411 3.676,10.054 3.722 M12.877 9.764 C 13.307 9.830,13.831 10.101,14.303 10.502 C 14.747 10.879,15.244 11.609,15.401 12.114 C 15.501 12.438,15.548 13.359,15.488 13.841 C 15.353 14.922,14.400 16.083,13.256 16.559 C 12.746 16.771,11.581 16.824,11.040 16.660 C 9.939 16.325,8.908 15.310,8.582 14.240 C 8.430 13.743,8.465 12.445,8.641 11.996 C 8.764 11.685,9.053 11.208,9.299 10.910 C 9.782 10.325,10.634 9.807,11.257 9.720 C 11.538 9.680,12.501 9.707,12.877 9.764 " fill="#373B4D" stroke="none" fill-rule="evenodd"></path></svg>