<svg width="24" height="24" viewBox="0 0 24 24" fill="none" xmlns="http://www.w3.org/2000/svg"><path d="M9.898 3.797 C 9.561 3.878,9.219 4.119,8.220 4.980 C 7.496 5.604,7.255 5.784,7.038 5.862 C 6.930 5.901,6.368 5.971,5.611 6.042 C 4.379 6.156,3.943 6.225,3.727 6.337 C 3.362 6.525,2.839 7.103,2.581 7.602 L 2.400 7.953 2.400 13.218 L 2.400 18.483 2.506 18.691 C 2.861 19.395,3.410 19.942,4.120 20.301 L 4.340 20.412 11.760 20.388 C 16.743 20.372,19.292 20.349,19.520 20.320 C 19.938 20.266,20.255 20.125,20.577 19.850 C 20.899 19.574,21.251 19.124,21.442 18.745 L 21.600 18.431 21.600 13.171 L 21.600 7.912 21.459 7.644 C 21.160 7.074,20.648 6.546,20.175 6.318 C 19.892 6.183,19.660 6.146,18.560 6.061 C 17.562 5.984,17.093 5.925,16.929 5.857 C 16.762 5.789,16.439 5.540,15.760 4.958 C 14.633 3.993,14.452 3.875,14.000 3.802 C 13.706 3.755,10.093 3.751,9.898 3.797 M12.740 9.804 C 13.195 9.860,13.507 9.974,13.845 10.205 C 14.420 10.598,14.847 11.084,15.214 11.764 L 15.400 12.108 15.400 13.198 L 15.400 14.288 15.233 14.610 C 15.025 15.008,14.785 15.338,14.443 15.694 C 13.753 16.414,12.982 16.737,11.960 16.735 C 11.392 16.734,11.070 16.668,10.613 16.459 C 10.227 16.283,10.003 16.123,9.605 15.741 C 8.721 14.893,8.427 14.039,8.554 12.693 C 8.630 11.896,8.886 11.394,9.560 10.720 C 10.117 10.162,10.629 9.872,11.250 9.762 C 11.483 9.721,12.246 9.742,12.740 9.804 " fill="#373B4D" stroke="none" fill-rule="evenodd"></path></svg>