<svg width="24" height="24" viewBox="0 0 24 24" fill="none" xmlns="http://www.w3.org/2000/svg"><path d="M10.092 3.760 C 9.626 3.825,9.336 4.008,8.400 4.825 C 7.356 5.738,7.186 5.857,6.836 5.919 C 6.717 5.940,6.170 5.994,5.620 6.039 C 3.838 6.185,3.728 6.218,3.166 6.793 C 2.901 7.063,2.773 7.234,2.621 7.523 L 2.421 7.900 2.406 13.183 L 2.392 18.466 2.501 18.683 C 2.876 19.424,3.381 19.930,4.116 20.299 L 4.331 20.407 11.756 20.388 C 16.787 20.375,19.293 20.354,19.532 20.325 C 19.742 20.298,19.967 20.241,20.092 20.182 C 20.574 19.954,21.160 19.335,21.436 18.760 L 21.580 18.460 21.590 13.187 L 21.601 7.913 21.460 7.647 C 21.031 6.833,20.362 6.265,19.714 6.163 C 19.574 6.141,19.082 6.095,18.620 6.061 C 17.352 5.966,17.053 5.928,16.878 5.839 C 16.694 5.745,16.250 5.392,15.601 4.823 C 15.348 4.601,15.032 4.337,14.900 4.237 C 14.250 3.744,14.290 3.752,12.120 3.737 C 11.141 3.731,10.228 3.741,10.092 3.760 M12.374 9.762 C 13.224 9.819,13.561 9.947,14.184 10.448 C 14.579 10.766,14.960 11.250,15.212 11.756 L 15.420 12.171 15.420 13.196 L 15.420 14.220 15.260 14.559 C 14.974 15.166,14.431 15.807,13.871 16.201 C 13.345 16.570,12.512 16.788,11.780 16.747 C 10.886 16.697,10.193 16.364,9.494 15.649 C 8.732 14.869,8.480 14.159,8.533 12.940 C 8.566 12.174,8.665 11.876,9.091 11.244 C 9.612 10.471,10.485 9.873,11.256 9.760 C 11.553 9.716,11.713 9.717,12.374 9.762 " fill="#373B4D" stroke="none" fill-rule="evenodd"></path></svg>