<svg width="24" height="24" viewBox="0 0 24 24" fill="none" xmlns="http://www.w3.org/2000/svg"><path d="M9.960 3.838 C 9.601 3.879,9.377 4.025,8.320 4.902 C 7.491 5.589,7.201 5.796,6.980 5.859 C 6.870 5.891,6.213 5.981,5.520 6.060 C 4.016 6.232,3.863 6.263,3.574 6.462 C 3.203 6.718,2.753 7.260,2.506 7.749 L 2.400 7.957 2.400 13.223 L 2.400 18.489 2.525 18.724 C 2.820 19.277,3.523 19.980,4.076 20.275 L 4.311 20.400 9.366 20.399 C 14.584 20.399,19.170 20.347,19.624 20.282 C 19.955 20.235,20.179 20.126,20.535 19.836 C 20.883 19.554,21.159 19.224,21.410 18.791 L 21.600 18.463 21.600 13.190 L 21.600 7.917 21.515 7.748 C 21.205 7.139,20.521 6.474,19.999 6.276 C 19.821 6.208,19.613 6.181,17.900 6.000 C 16.981 5.903,16.881 5.863,16.200 5.314 C 15.947 5.110,15.488 4.740,15.180 4.492 C 14.392 3.856,14.431 3.871,13.461 3.835 C 12.506 3.799,10.271 3.801,9.960 3.838 M12.296 9.801 C 12.601 9.823,12.968 9.868,13.111 9.901 C 13.847 10.072,14.586 10.731,15.203 11.769 L 15.400 12.100 15.400 13.204 L 15.400 14.307 15.198 14.644 C 14.910 15.123,14.610 15.501,14.224 15.872 C 13.954 16.131,13.814 16.230,13.514 16.373 C 12.919 16.656,12.723 16.697,11.960 16.699 C 11.374 16.700,11.269 16.690,11.023 16.607 C 10.082 16.292,9.330 15.625,8.850 14.680 C 8.605 14.196,8.580 14.060,8.583 13.220 C 8.587 12.116,8.679 11.813,9.218 11.131 C 9.753 10.455,10.552 9.901,11.133 9.804 C 11.424 9.755,11.658 9.755,12.296 9.801 " fill="#373B4D" stroke="none" fill-rule="evenodd"></path></svg>