<svg width="24" height="24" viewBox="0 0 24 24" fill="none" xmlns="http://www.w3.org/2000/svg"><path d="M9.736 3.872 C 9.483 3.961,9.155 4.202,8.181 5.014 C 7.378 5.683,7.170 5.827,6.929 5.884 C 6.847 5.903,6.276 5.973,5.660 6.040 C 4.399 6.177,4.138 6.214,3.866 6.296 C 3.505 6.405,2.878 7.049,2.570 7.630 L 2.400 7.949 2.400 13.225 L 2.400 18.500 2.590 18.840 C 2.855 19.315,3.485 19.945,3.960 20.210 L 4.300 20.400 9.200 20.399 C 15.205 20.398,19.488 20.345,19.787 20.267 C 20.369 20.116,21.107 19.418,21.494 18.651 L 21.600 18.443 21.600 13.180 L 21.600 7.917 21.514 7.748 C 21.124 6.981,20.368 6.316,19.753 6.199 C 19.636 6.176,19.058 6.113,18.469 6.058 C 17.880 6.003,17.304 5.940,17.190 5.918 C 16.893 5.862,16.671 5.713,15.774 4.970 C 15.337 4.608,14.866 4.230,14.727 4.130 C 14.278 3.808,14.399 3.822,12.040 3.811 C 10.107 3.801,9.924 3.806,9.736 3.872 M12.380 9.798 C 13.067 9.839,13.446 9.946,13.849 10.214 C 14.322 10.529,14.860 11.145,15.217 11.780 L 15.400 12.107 15.400 13.204 L 15.400 14.302 15.221 14.616 C 14.863 15.244,14.269 15.920,13.805 16.228 C 13.520 16.417,13.059 16.596,12.680 16.663 C 12.289 16.734,11.569 16.733,11.237 16.663 C 10.256 16.455,9.301 15.652,8.818 14.628 C 8.607 14.179,8.560 13.937,8.560 13.289 C 8.560 12.647,8.610 12.246,8.730 11.920 C 8.980 11.242,9.837 10.350,10.581 9.993 C 11.078 9.754,11.276 9.733,12.380 9.798 " fill="#373B4D" stroke="none" fill-rule="evenodd"></path></svg>