<svg width="24" height="24" viewBox="0 0 24 24" fill="none" xmlns="http://www.w3.org/2000/svg"><path d="M4.254 4.956 C 3.996 4.978,3.941 4.999,3.684 5.175 C 3.244 5.476,2.734 6.060,2.486 6.548 C 2.400 6.716,2.400 6.733,2.400 9.600 L 2.400 12.483 2.506 12.691 C 2.786 13.245,3.332 13.864,3.711 14.055 C 3.961 14.182,4.597 14.400,4.716 14.400 L 4.800 14.400 4.800 10.804 L 4.800 7.208 10.739 7.194 C 16.055 7.181,16.684 7.173,16.740 7.118 C 16.796 7.061,16.794 7.029,16.717 6.778 C 16.499 6.069,16.144 5.596,15.511 5.172 L 15.213 4.973 13.377 4.947 C 11.216 4.915,4.667 4.922,4.254 4.956 M12.840 9.718 L 8.860 9.742 8.620 9.878 C 8.281 10.070,7.738 10.626,7.445 11.079 L 7.200 11.458 7.200 14.370 L 7.200 17.282 7.316 17.511 C 7.634 18.141,8.259 18.766,8.889 19.084 L 9.118 19.200 14.449 19.200 L 19.780 19.200 20.100 18.992 C 20.509 18.727,21.127 18.111,21.393 17.702 L 21.600 17.384 21.600 14.450 C 21.600 11.532,21.600 11.516,21.514 11.348 C 21.255 10.839,20.785 10.319,20.213 9.910 L 19.891 9.680 18.356 9.688 C 17.511 9.692,15.029 9.706,12.840 9.718 M15.386 12.317 C 15.706 12.468,16.171 12.910,16.463 13.339 L 16.688 13.670 16.674 14.429 L 16.660 15.187 16.505 15.424 C 16.309 15.721,15.680 16.350,15.434 16.494 C 14.893 16.811,13.800 16.776,13.247 16.423 C 12.834 16.161,12.439 15.686,12.286 15.269 C 12.179 14.980,12.107 14.375,12.143 14.060 C 12.206 13.490,12.508 12.983,13.044 12.546 C 13.456 12.210,13.479 12.204,14.360 12.202 L 15.140 12.200 15.386 12.317 " fill="#373B4D" stroke="none" fill-rule="evenodd"></path></svg>