<svg width="24" height="24" viewBox="0 0 24 24" fill="none" xmlns="http://www.w3.org/2000/svg"><path d="M4.118 4.996 C 3.871 5.031,3.604 5.211,3.210 5.608 C 2.854 5.966,2.649 6.231,2.497 6.529 L 2.400 6.717 2.400 9.617 L 2.400 12.516 2.524 12.728 C 2.839 13.264,3.297 13.790,3.637 14.007 C 3.846 14.139,4.703 14.431,4.748 14.385 C 4.766 14.368,4.785 12.745,4.791 10.780 L 4.802 7.206 10.631 7.188 C 13.990 7.178,16.519 7.155,16.600 7.134 C 16.789 7.084,16.798 6.968,16.644 6.583 C 16.415 6.013,16.113 5.630,15.567 5.220 L 15.220 4.960 9.760 4.965 C 6.757 4.968,4.218 4.982,4.118 4.996 M12.960 9.718 L 8.860 9.741 8.660 9.858 C 8.372 10.026,7.689 10.724,7.426 11.120 L 7.200 11.459 7.200 14.371 C 7.200 17.268,7.200 17.284,7.286 17.452 C 7.610 18.090,8.310 18.790,8.948 19.114 L 9.117 19.200 14.452 19.200 L 19.787 19.200 20.083 18.993 C 20.483 18.712,21.035 18.172,21.345 17.760 L 21.600 17.420 21.599 14.640 C 21.599 13.111,21.582 11.746,21.562 11.607 C 21.534 11.414,21.484 11.290,21.353 11.088 C 21.138 10.757,20.597 10.204,20.196 9.906 L 19.893 9.680 18.476 9.688 C 17.697 9.692,15.215 9.706,12.960 9.718 M15.440 12.349 C 15.675 12.484,16.347 13.157,16.540 13.451 L 16.693 13.682 16.667 14.448 C 16.636 15.360,16.666 15.294,15.979 15.989 C 15.469 16.504,15.279 16.614,14.766 16.686 C 13.960 16.800,13.155 16.497,12.682 15.902 C 12.305 15.429,12.161 14.985,12.160 14.298 C 12.160 13.903,12.243 13.567,12.412 13.285 C 12.564 13.031,13.030 12.540,13.274 12.379 C 13.494 12.234,13.799 12.199,14.640 12.226 C 15.215 12.244,15.273 12.253,15.440 12.349 " fill="#373B4D" stroke="none" fill-rule="evenodd"></path></svg>