<svg width="24" height="24" viewBox="0 0 24 24" fill="none" xmlns="http://www.w3.org/2000/svg"><path d="M4.240 4.917 C 3.676 4.983,2.974 5.586,2.612 6.314 L 2.420 6.700 2.420 9.600 L 2.420 12.500 2.634 12.936 C 2.812 13.299,2.896 13.421,3.136 13.657 C 3.313 13.832,3.531 13.998,3.703 14.088 C 3.992 14.240,4.497 14.400,4.689 14.400 L 4.800 14.400 4.800 10.800 L 4.800 7.200 10.800 7.200 L 16.800 7.200 16.800 7.109 C 16.800 6.975,16.655 6.477,16.541 6.218 C 16.332 5.746,15.938 5.352,15.400 5.076 C 15.155 4.950,15.109 4.941,14.580 4.914 C 13.887 4.879,4.543 4.882,4.240 4.917 M10.220 9.718 L 8.820 9.740 8.584 9.860 C 8.294 10.006,7.809 10.452,7.594 10.768 C 7.507 10.897,7.382 11.127,7.318 11.279 L 7.200 11.556 7.200 14.423 L 7.200 17.290 7.404 17.680 C 7.754 18.350,8.068 18.662,8.731 19.000 L 9.124 19.200 14.423 19.200 L 19.722 19.200 19.971 19.075 C 20.660 18.727,21.128 18.259,21.475 17.571 L 21.600 17.322 21.600 14.423 L 21.600 11.524 21.392 11.112 C 21.125 10.584,20.715 10.156,20.200 9.869 L 19.860 9.680 15.740 9.688 C 13.474 9.693,10.990 9.706,10.220 9.718 M15.206 12.182 C 15.727 12.366,16.249 12.841,16.522 13.378 L 16.698 13.727 16.714 14.403 L 16.729 15.080 16.555 15.390 C 16.333 15.784,15.749 16.385,15.460 16.518 C 15.124 16.672,14.916 16.723,14.520 16.746 C 13.808 16.788,13.260 16.582,12.757 16.082 C 12.266 15.594,12.080 15.117,12.080 14.350 C 12.080 13.799,12.194 13.421,12.477 13.036 C 12.755 12.657,13.367 12.225,13.780 12.115 C 13.963 12.066,15.019 12.116,15.206 12.182 " fill="#373B4D" stroke="none" fill-rule="evenodd"></path></svg>