<svg width="24" height="24" viewBox="0 0 24 24" fill="none" xmlns="http://www.w3.org/2000/svg"><path d="M6.400 4.915 L 4.060 4.940 3.821 5.078 C 3.360 5.344,2.764 5.992,2.505 6.509 L 2.400 6.717 2.400 9.600 L 2.400 12.482 2.516 12.711 C 2.839 13.347,3.364 13.918,3.800 14.107 C 4.066 14.223,4.615 14.400,4.708 14.400 L 4.800 14.400 4.800 10.801 L 4.800 7.201 10.758 7.191 C 15.454 7.182,16.727 7.169,16.766 7.130 C 16.826 7.070,16.710 6.673,16.497 6.207 C 16.334 5.853,15.971 5.470,15.512 5.171 L 15.206 4.970 13.453 4.945 C 10.104 4.896,8.727 4.891,6.400 4.915 M12.700 9.719 L 8.860 9.742 8.652 9.856 C 8.199 10.105,7.712 10.613,7.359 11.207 L 7.200 11.474 7.200 14.378 L 7.200 17.283 7.306 17.491 C 7.659 18.191,8.212 18.744,8.909 19.095 L 9.117 19.200 14.449 19.200 L 19.780 19.200 20.160 18.953 C 20.635 18.645,21.033 18.246,21.354 17.759 L 21.602 17.382 21.591 14.421 L 21.580 11.459 21.400 11.143 C 21.163 10.728,20.757 10.299,20.279 9.957 L 19.891 9.680 18.215 9.688 C 17.294 9.692,14.812 9.706,12.700 9.719 M15.320 12.270 C 15.738 12.454,16.203 12.905,16.553 13.464 L 16.680 13.667 16.680 14.395 C 16.680 15.208,16.680 15.209,16.379 15.600 C 16.124 15.932,15.564 16.451,15.355 16.549 C 15.082 16.677,14.682 16.734,14.243 16.708 C 13.596 16.670,13.202 16.484,12.752 16.006 C 12.333 15.560,12.183 15.195,12.136 14.503 C 12.104 14.045,12.159 13.742,12.341 13.372 C 12.594 12.857,13.274 12.256,13.675 12.194 C 13.777 12.178,14.148 12.171,14.500 12.178 C 15.032 12.189,15.170 12.204,15.320 12.270 " fill="#373B4D" stroke="none" fill-rule="evenodd"></path></svg>