<svg width="24" height="24" viewBox="0 0 24 24" fill="none" xmlns="http://www.w3.org/2000/svg"><path d="M6.040 4.918 L 4.060 4.940 3.765 5.098 C 3.280 5.357,2.834 5.856,2.505 6.509 L 2.400 6.717 2.400 9.600 L 2.400 12.482 2.545 12.771 C 2.860 13.396,3.271 13.853,3.723 14.081 C 4.015 14.229,4.532 14.400,4.685 14.400 L 4.800 14.400 4.800 10.800 L 4.800 7.200 10.805 7.200 L 16.809 7.200 16.782 7.020 C 16.748 6.790,16.601 6.358,16.470 6.100 C 16.279 5.725,15.816 5.293,15.341 5.049 L 15.140 4.945 13.000 4.916 C 10.661 4.884,9.063 4.884,6.040 4.918 M11.860 9.718 C 8.980 9.739,8.813 9.744,8.680 9.816 C 8.132 10.111,7.673 10.598,7.336 11.240 L 7.220 11.460 7.209 14.372 L 7.197 17.285 7.387 17.645 C 7.729 18.293,8.096 18.660,8.760 19.016 L 9.100 19.199 14.420 19.199 L 19.740 19.200 20.070 19.014 C 20.695 18.661,21.054 18.299,21.421 17.656 L 21.600 17.342 21.600 14.430 L 21.600 11.517 21.495 11.309 C 21.179 10.683,20.799 10.262,20.224 9.903 L 19.868 9.680 17.384 9.688 C 16.018 9.693,13.532 9.706,11.860 9.718 M15.389 12.276 C 15.821 12.497,16.275 12.949,16.542 13.423 L 16.679 13.666 16.706 14.364 C 16.735 15.155,16.740 15.136,16.398 15.600 C 16.174 15.905,15.673 16.401,15.498 16.491 C 15.154 16.668,14.827 16.740,14.380 16.737 C 14.001 16.734,13.899 16.718,13.640 16.621 C 13.249 16.475,12.992 16.306,12.714 16.013 C 12.350 15.628,12.150 15.161,12.099 14.571 C 12.015 13.612,12.419 12.876,13.335 12.321 C 13.652 12.129,13.734 12.116,14.469 12.138 C 15.135 12.157,15.166 12.162,15.389 12.276 " fill="#373B4D" stroke="none" fill-rule="evenodd"></path></svg>