<svg width="24" height="24" viewBox="0 0 24 24" fill="none" xmlns="http://www.w3.org/2000/svg"><path d="M6.440 4.918 L 4.060 4.940 3.850 5.056 C 3.354 5.331,2.801 5.924,2.518 6.484 L 2.400 6.718 2.400 9.600 L 2.400 12.483 2.505 12.691 C 2.836 13.347,3.296 13.868,3.727 14.074 C 4.032 14.219,4.574 14.400,4.705 14.400 L 4.800 14.400 4.800 10.800 L 4.800 7.200 10.614 7.200 C 13.812 7.200,16.512 7.189,16.614 7.175 C 16.733 7.158,16.800 7.129,16.800 7.094 C 16.800 6.947,16.506 6.157,16.386 5.980 C 16.191 5.694,15.786 5.321,15.457 5.127 L 15.174 4.959 12.357 4.921 C 10.808 4.899,9.378 4.885,9.180 4.889 C 8.982 4.893,7.749 4.906,6.440 4.918 M12.520 9.719 L 8.860 9.742 8.601 9.881 C 8.165 10.115,7.680 10.639,7.337 11.246 L 7.200 11.488 7.200 14.385 L 7.200 17.283 7.305 17.491 C 7.674 18.221,8.185 18.732,8.909 19.095 L 9.117 19.200 14.437 19.200 L 19.756 19.200 19.963 19.078 C 20.609 18.697,20.972 18.353,21.358 17.757 L 21.600 17.382 21.600 14.450 C 21.600 11.536,21.599 11.516,21.515 11.348 C 21.212 10.751,20.817 10.310,20.235 9.921 L 19.875 9.680 18.027 9.688 C 17.011 9.692,14.533 9.706,12.520 9.719 M15.097 12.199 C 15.525 12.269,16.118 12.764,16.491 13.363 L 16.678 13.664 16.689 14.382 C 16.699 15.054,16.694 15.110,16.613 15.263 C 16.412 15.638,15.794 16.302,15.468 16.493 C 15.195 16.653,14.878 16.720,14.390 16.720 C 13.730 16.720,13.269 16.537,12.821 16.095 C 12.347 15.630,12.159 15.194,12.129 14.497 C 12.108 13.985,12.151 13.735,12.323 13.374 C 12.519 12.962,13.099 12.407,13.525 12.222 C 13.685 12.152,14.718 12.137,15.097 12.199 " fill="#373B4D" stroke="none" fill-rule="evenodd"></path></svg>