<svg width="24" height="24" viewBox="0 0 24 24" fill="none" xmlns="http://www.w3.org/2000/svg"><path d="M5.160 4.918 C 4.063 4.940,4.059 4.940,3.840 5.049 C 3.330 5.301,2.901 5.753,2.582 6.372 L 2.400 6.725 2.400 9.601 L 2.400 12.477 2.623 12.916 C 2.873 13.406,3.164 13.740,3.577 14.007 C 3.825 14.168,4.477 14.400,4.680 14.400 L 4.800 14.400 4.800 10.800 L 4.800 7.200 10.805 7.200 L 16.811 7.200 16.787 7.029 C 16.751 6.763,16.538 6.175,16.400 5.959 C 16.213 5.669,15.779 5.281,15.440 5.102 L 15.140 4.943 13.780 4.915 C 12.255 4.883,6.845 4.886,5.160 4.918 M11.180 9.718 L 8.820 9.740 8.564 9.879 C 8.067 10.148,7.541 10.754,7.288 11.347 C 7.200 11.555,7.200 11.555,7.200 14.419 L 7.200 17.282 7.325 17.531 C 7.718 18.311,8.092 18.684,8.869 19.075 L 9.118 19.200 14.424 19.200 L 19.731 19.200 20.050 19.030 C 20.654 18.708,21.109 18.253,21.432 17.646 L 21.600 17.331 21.599 14.415 L 21.599 11.500 21.419 11.165 C 21.085 10.543,20.755 10.202,20.141 9.843 L 19.861 9.680 16.701 9.688 C 14.962 9.693,12.478 9.707,11.180 9.718 M15.420 12.282 C 15.794 12.465,16.277 12.945,16.515 13.369 L 16.688 13.679 16.710 14.334 C 16.722 14.694,16.720 15.033,16.707 15.088 C 16.622 15.424,15.857 16.309,15.490 16.495 C 14.315 17.090,12.890 16.628,12.320 15.466 C 12.019 14.853,12.002 13.938,12.281 13.371 C 12.500 12.927,12.989 12.474,13.532 12.215 C 13.734 12.119,13.762 12.116,14.440 12.130 L 15.140 12.144 15.420 12.282 " fill="#373B4D" stroke="none" fill-rule="evenodd"></path></svg>