<svg width="24" height="24" viewBox="0 0 24 24" fill="none" xmlns="http://www.w3.org/2000/svg"><path d="M4.840 4.955 C 4.102 4.977,4.004 4.989,3.860 5.067 C 3.443 5.293,2.812 5.952,2.535 6.452 L 2.420 6.660 2.409 9.580 L 2.398 12.500 2.577 12.813 C 2.898 13.374,3.371 13.881,3.760 14.080 C 3.945 14.174,4.624 14.400,4.722 14.400 C 4.799 14.400,4.800 14.338,4.800 10.800 L 4.800 7.200 9.774 7.200 C 15.263 7.200,16.656 7.179,16.741 7.093 C 16.814 7.021,16.735 6.739,16.515 6.287 C 16.321 5.887,15.969 5.497,15.516 5.177 L 15.206 4.959 10.433 4.944 C 7.808 4.936,5.291 4.941,4.840 4.955 M12.920 9.718 L 8.860 9.741 8.674 9.850 C 8.258 10.093,7.747 10.617,7.395 11.160 L 7.200 11.460 7.200 14.380 L 7.200 17.300 7.390 17.640 C 7.655 18.115,8.285 18.745,8.760 19.010 L 9.100 19.200 14.443 19.200 L 19.786 19.200 20.083 18.996 C 20.564 18.665,21.127 18.099,21.438 17.634 L 21.600 17.391 21.599 14.525 C 21.599 12.949,21.582 11.592,21.563 11.508 C 21.474 11.124,20.876 10.412,20.243 9.937 L 19.900 9.680 18.440 9.688 C 17.637 9.692,15.153 9.705,12.920 9.718 M15.458 12.360 C 15.764 12.543,16.215 12.985,16.478 13.360 L 16.688 13.660 16.671 14.429 L 16.655 15.198 16.497 15.427 C 16.278 15.746,15.594 16.416,15.384 16.518 C 15.095 16.658,14.663 16.731,14.277 16.705 C 13.615 16.660,13.100 16.413,12.719 15.955 C 12.343 15.503,12.226 15.222,12.165 14.626 C 12.083 13.825,12.262 13.327,12.839 12.754 C 13.199 12.397,13.361 12.287,13.600 12.236 C 13.677 12.220,14.074 12.210,14.482 12.213 L 15.223 12.220 15.458 12.360 " fill="#373B4D" stroke="none" fill-rule="evenodd"></path></svg>