<svg width="24" height="24" viewBox="0 0 24 24" fill="none" xmlns="http://www.w3.org/2000/svg"><path d="M4.880 4.840 C 4.250 4.862,4.155 4.875,3.933 4.968 C 3.274 5.245,2.736 5.821,2.517 6.485 L 2.420 6.780 2.420 9.600 L 2.420 12.420 2.532 12.746 C 2.594 12.926,2.697 13.153,2.763 13.252 C 2.909 13.472,3.467 14.010,3.644 14.102 C 3.873 14.221,4.332 14.362,4.570 14.387 L 4.800 14.411 4.800 10.806 L 4.800 7.200 10.800 7.200 L 16.800 7.200 16.800 7.064 C 16.800 6.875,16.616 6.260,16.490 6.029 C 16.356 5.782,15.946 5.361,15.664 5.181 C 15.258 4.921,15.090 4.878,14.341 4.838 C 13.589 4.798,5.992 4.799,4.880 4.840 M10.560 9.638 C 8.881 9.664,8.942 9.655,8.445 9.921 C 8.181 10.061,7.795 10.416,7.607 10.689 C 7.536 10.793,7.415 11.039,7.339 11.237 L 7.200 11.597 7.200 14.400 L 7.200 17.203 7.339 17.563 C 7.629 18.314,8.101 18.779,8.870 19.075 L 9.200 19.201 14.450 19.191 L 19.700 19.180 19.980 19.063 C 20.705 18.761,21.161 18.305,21.463 17.580 L 21.580 17.300 21.591 14.483 C 21.602 11.706,21.601 11.661,21.517 11.403 C 21.342 10.861,21.092 10.480,20.696 10.152 C 20.493 9.985,20.081 9.762,19.840 9.689 C 19.673 9.638,12.916 9.601,10.560 9.638 M15.130 12.123 C 15.730 12.324,16.280 12.795,16.533 13.325 C 16.737 13.753,16.776 13.928,16.774 14.420 C 16.773 14.908,16.699 15.192,16.469 15.600 C 16.310 15.882,15.882 16.310,15.600 16.469 C 15.079 16.763,14.452 16.864,13.906 16.743 C 12.321 16.390,11.527 14.614,12.326 13.210 C 12.659 12.626,13.316 12.159,13.970 12.042 C 14.279 11.986,14.840 12.026,15.130 12.123 " fill="#373B4D" stroke="none" fill-rule="evenodd"></path></svg>