<svg width="24" height="24" viewBox="0 0 24 24" fill="none" xmlns="http://www.w3.org/2000/svg"><path d="M5.520 4.879 L 4.100 4.900 3.815 5.052 C 3.208 5.377,2.802 5.830,2.528 6.487 L 2.400 6.794 2.400 9.598 L 2.400 12.401 2.535 12.737 C 2.768 13.313,3.066 13.684,3.563 14.014 C 3.813 14.180,4.283 14.350,4.589 14.386 L 4.800 14.411 4.800 10.806 L 4.800 7.200 10.805 7.200 L 16.811 7.200 16.785 7.010 C 16.737 6.655,16.522 6.092,16.341 5.846 C 16.070 5.478,15.621 5.138,15.180 4.968 C 14.988 4.895,14.811 4.891,10.960 4.874 C 8.749 4.865,6.301 4.867,5.520 4.879 M9.175 9.721 C 8.845 9.744,8.735 9.769,8.575 9.857 C 8.047 10.148,7.595 10.643,7.352 11.199 L 7.220 11.500 7.209 14.375 L 7.198 17.250 7.393 17.655 C 7.718 18.333,8.076 18.690,8.755 19.015 L 9.100 19.180 14.413 19.190 L 19.726 19.201 20.073 19.021 C 20.695 18.699,21.100 18.295,21.421 17.674 L 21.600 17.327 21.600 14.438 L 21.600 11.549 21.423 11.175 C 21.114 10.523,20.799 10.191,20.160 9.844 L 19.860 9.681 14.720 9.686 C 11.893 9.689,9.398 9.705,9.175 9.721 M15.288 12.209 C 15.804 12.446,16.176 12.772,16.456 13.233 C 16.688 13.615,16.720 13.767,16.720 14.476 L 16.720 15.100 16.530 15.437 C 16.280 15.880,15.827 16.343,15.475 16.514 C 14.442 17.017,13.194 16.740,12.532 15.861 C 12.006 15.164,11.903 14.103,12.284 13.324 C 12.511 12.861,13.031 12.411,13.632 12.158 C 13.798 12.088,13.894 12.081,14.441 12.092 C 15.008 12.105,15.081 12.115,15.288 12.209 " fill="#373B4D" stroke="none" fill-rule="evenodd"></path></svg>