<svg width="24" height="24" viewBox="0 0 24 24" fill="none" xmlns="http://www.w3.org/2000/svg"><path d="M6.380 4.918 L 4.060 4.940 3.800 5.080 C 3.325 5.336,2.808 5.906,2.505 6.509 L 2.400 6.717 2.401 9.609 L 2.401 12.500 2.579 12.831 C 2.886 13.402,3.226 13.789,3.636 14.031 C 3.852 14.158,4.540 14.399,4.690 14.400 L 4.800 14.400 4.800 10.800 L 4.800 7.200 10.800 7.200 C 16.514 7.200,16.800 7.197,16.800 7.129 C 16.800 7.011,16.647 6.499,16.539 6.254 C 16.340 5.803,15.929 5.384,15.389 5.081 L 15.158 4.951 12.629 4.918 C 11.238 4.899,9.785 4.887,9.400 4.890 C 9.015 4.893,7.656 4.906,6.380 4.918 M12.319 9.718 L 8.857 9.742 8.622 9.861 C 8.178 10.086,7.629 10.678,7.325 11.260 L 7.200 11.500 7.200 14.391 L 7.200 17.283 7.305 17.491 C 7.688 18.251,8.149 18.712,8.909 19.095 L 9.117 19.200 14.430 19.200 L 19.742 19.200 20.055 19.022 C 20.696 18.656,21.044 18.300,21.478 17.563 L 21.600 17.356 21.599 14.428 L 21.599 11.500 21.436 11.202 C 21.123 10.627,20.797 10.284,20.185 9.885 L 19.870 9.680 17.825 9.687 C 16.700 9.692,14.222 9.705,12.319 9.718 M15.242 12.217 C 15.631 12.348,16.223 12.893,16.513 13.387 L 16.673 13.660 16.701 14.300 C 16.719 14.719,16.713 14.996,16.685 15.101 C 16.626 15.320,16.333 15.715,15.939 16.107 C 15.441 16.601,15.132 16.724,14.380 16.726 C 14.012 16.727,13.897 16.712,13.675 16.631 C 13.293 16.491,13.053 16.339,12.778 16.063 C 12.382 15.667,12.201 15.282,12.119 14.671 C 11.999 13.767,12.364 12.979,13.148 12.449 C 13.470 12.231,13.556 12.189,13.740 12.156 C 13.968 12.115,15.073 12.161,15.242 12.217 " fill="#373B4D" stroke="none" fill-rule="evenodd"></path></svg>