<svg width="24" height="24" viewBox="0 0 24 24" fill="none" xmlns="http://www.w3.org/2000/svg"><path d="M18.198 3.758 C 17.431 3.787,17.396 3.801,17.023 4.204 L 16.800 4.445 16.800 11.996 L 16.800 19.547 16.946 19.734 C 17.027 19.838,17.219 20.030,17.374 20.161 L 17.656 20.400 19.208 20.400 L 20.760 20.400 21.092 20.070 C 21.274 19.889,21.455 19.672,21.494 19.589 C 21.561 19.446,21.567 18.999,21.589 11.936 L 21.613 4.435 21.257 4.077 L 20.902 3.720 19.881 3.727 C 19.319 3.730,18.562 3.745,18.198 3.758 M11.060 7.361 C 10.708 7.376,10.357 7.411,10.280 7.440 C 10.078 7.514,9.895 7.661,9.739 7.874 L 9.602 8.060 9.601 13.825 L 9.600 19.590 10.001 19.975 L 10.402 20.360 11.451 20.357 C 12.028 20.356,12.756 20.341,13.069 20.324 L 13.639 20.294 13.829 20.133 C 13.934 20.045,14.105 19.867,14.210 19.738 L 14.400 19.504 14.400 13.763 L 14.400 8.022 14.051 7.671 L 13.702 7.320 12.701 7.327 C 12.150 7.331,11.412 7.346,11.060 7.361 M3.920 12.160 C 3.491 12.175,3.091 12.207,3.032 12.232 C 2.884 12.293,2.608 12.548,2.530 12.697 C 2.478 12.794,2.459 13.008,2.436 13.720 C 2.394 15.009,2.396 17.683,2.439 18.620 C 2.484 19.600,2.525 19.759,2.794 20.010 C 3.162 20.355,3.067 20.338,4.772 20.353 L 6.284 20.365 6.469 20.257 C 6.571 20.197,6.777 20.022,6.927 19.867 L 7.200 19.586 7.198 17.783 C 7.196 16.791,7.180 15.323,7.161 14.520 C 7.121 12.821,7.113 12.773,6.785 12.388 L 6.575 12.140 5.637 12.137 C 5.122 12.135,4.349 12.146,3.920 12.160 " fill="#373B4D" stroke="none" fill-rule="evenodd"></path></svg>