<svg width="24" height="24" viewBox="0 0 24 24" fill="none" xmlns="http://www.w3.org/2000/svg"><path d="M5.317 3.756 C 4.863 3.821,4.201 4.406,3.840 5.061 L 3.620 5.460 3.610 11.970 L 3.599 18.481 3.725 18.730 C 4.121 19.515,4.534 19.924,5.297 20.285 L 5.540 20.400 11.620 20.399 C 15.057 20.399,17.897 20.382,18.154 20.361 C 18.689 20.317,18.946 20.216,19.360 19.886 C 19.843 19.500,20.101 19.153,20.305 18.612 L 20.400 18.358 20.400 11.998 L 20.400 5.637 20.280 5.327 C 20.121 4.913,19.985 4.707,19.647 4.369 C 19.319 4.042,19.084 3.871,18.859 3.796 C 18.730 3.753,17.452 3.742,12.100 3.736 C 8.470 3.732,5.417 3.741,5.317 3.756 M15.915 7.322 C 16.171 7.381,16.518 7.625,16.589 7.795 C 16.672 7.995,16.709 9.225,16.739 12.900 L 16.765 15.980 16.593 16.186 C 15.923 16.983,15.265 16.983,14.610 16.187 L 14.440 15.981 14.440 12.007 L 14.440 8.034 14.622 7.798 C 14.814 7.548,15.078 7.340,15.242 7.309 C 15.423 7.275,15.738 7.282,15.915 7.322 M12.206 9.694 C 12.482 9.759,12.730 9.902,12.934 10.112 L 13.087 10.271 13.131 13.112 L 13.175 15.953 13.059 16.104 C 12.770 16.484,12.416 16.731,12.087 16.783 C 11.762 16.835,11.360 16.613,11.010 16.187 L 10.840 15.981 10.840 13.207 L 10.840 10.434 11.024 10.195 C 11.219 9.941,11.420 9.786,11.668 9.698 C 11.860 9.629,11.927 9.629,12.206 9.694 M8.900 13.382 C 9.139 13.496,9.424 13.792,9.476 13.980 C 9.502 14.075,9.520 14.525,9.520 15.085 C 9.520 16.139,9.541 16.052,9.203 16.413 C 8.966 16.667,8.793 16.737,8.400 16.737 C 8.007 16.737,7.834 16.667,7.597 16.413 C 7.258 16.051,7.280 16.151,7.280 15.000 C 7.280 14.006,7.283 13.967,7.367 13.855 C 7.610 13.531,7.800 13.384,8.060 13.315 C 8.260 13.262,8.725 13.300,8.900 13.382 " fill="#373B4D" stroke="none" fill-rule="evenodd"></path></svg>