<svg width="24" height="24" viewBox="0 0 24 24" fill="none" xmlns="http://www.w3.org/2000/svg"><path d="M18.380 3.760 C 17.446 3.791,17.398 3.807,17.030 4.193 L 16.800 4.434 16.800 11.990 L 16.800 19.547 16.946 19.734 C 17.027 19.838,17.219 20.030,17.374 20.161 L 17.656 20.400 19.225 20.400 L 20.794 20.400 21.107 20.057 C 21.279 19.868,21.447 19.665,21.479 19.607 C 21.560 19.461,21.591 16.859,21.596 9.841 L 21.600 4.422 21.251 4.071 L 20.902 3.720 20.041 3.727 C 19.567 3.730,18.820 3.745,18.380 3.760 M11.300 7.361 C 10.882 7.376,10.477 7.401,10.400 7.418 C 10.175 7.466,9.940 7.624,9.764 7.845 L 9.600 8.050 9.600 13.818 L 9.600 19.585 9.994 19.973 L 10.389 20.360 11.388 20.360 C 11.938 20.360,12.661 20.348,12.996 20.334 L 13.605 20.307 13.784 20.171 C 13.883 20.095,14.062 19.915,14.182 19.769 L 14.400 19.504 14.400 13.763 L 14.400 8.022 14.051 7.671 L 13.702 7.320 12.881 7.327 C 12.429 7.330,11.718 7.345,11.300 7.361 M3.317 12.198 C 2.946 12.236,2.630 12.451,2.519 12.740 C 2.448 12.923,2.404 14.234,2.403 16.180 C 2.402 18.159,2.447 19.265,2.541 19.589 C 2.617 19.852,2.848 20.117,3.113 20.248 C 3.296 20.338,3.331 20.340,4.784 20.354 C 6.114 20.366,6.282 20.361,6.399 20.301 C 6.470 20.264,6.682 20.086,6.870 19.907 L 7.211 19.580 7.187 16.700 C 7.162 13.820,7.129 12.993,7.026 12.750 C 6.996 12.678,6.887 12.517,6.784 12.390 L 6.596 12.160 5.088 12.166 C 4.259 12.169,3.461 12.184,3.317 12.198 " fill="#373B4D" stroke="none" fill-rule="evenodd"></path></svg>