<svg width="24" height="24" viewBox="0 0 24 24" fill="none" xmlns="http://www.w3.org/2000/svg"><path d="M6.400 3.639 C 5.415 3.661,5.372 3.666,5.133 3.767 C 4.470 4.049,3.936 4.622,3.717 5.285 L 3.620 5.580 3.620 12.000 L 3.620 18.420 3.717 18.715 C 3.951 19.425,4.575 20.049,5.285 20.283 L 5.580 20.380 12.000 20.380 L 18.420 20.380 18.715 20.283 C 19.425 20.049,20.049 19.425,20.283 18.715 L 20.380 18.420 20.380 12.000 L 20.380 5.580 20.283 5.285 C 20.057 4.600,19.453 3.977,18.780 3.737 C 18.616 3.678,18.383 3.660,17.480 3.637 C 16.198 3.603,7.896 3.605,6.400 3.639 M16.100 7.338 C 16.334 7.444,16.467 7.561,16.625 7.801 L 16.740 7.974 16.751 11.950 L 16.762 15.926 16.633 16.167 C 16.173 17.030,14.990 16.997,14.532 16.109 L 14.425 15.900 14.422 12.000 L 14.420 8.100 14.518 7.902 C 14.819 7.295,15.483 7.058,16.100 7.338 M12.500 9.738 C 12.734 9.844,12.867 9.961,13.025 10.201 L 13.140 10.374 13.151 13.149 L 13.162 15.925 13.033 16.167 C 12.573 17.030,11.393 16.997,10.932 16.109 L 10.824 15.900 10.822 13.200 L 10.820 10.500 10.918 10.302 C 11.219 9.695,11.883 9.458,12.500 9.738 M8.903 13.337 C 9.141 13.445,9.365 13.663,9.479 13.898 C 9.553 14.051,9.560 14.142,9.560 14.994 C 9.560 15.905,9.558 15.926,9.460 16.120 C 9.190 16.652,8.627 16.907,8.074 16.746 C 7.761 16.655,7.522 16.457,7.358 16.154 L 7.221 15.900 7.221 15.000 C 7.220 14.124,7.223 14.095,7.318 13.902 C 7.620 13.294,8.286 13.056,8.903 13.337 " fill="#373B4D" stroke="none" fill-rule="evenodd"></path></svg>