<svg width="24" height="24" viewBox="0 0 24 24" fill="none" xmlns="http://www.w3.org/2000/svg"><path d="M11.620 2.427 C 8.952 2.761,7.185 3.497,5.688 4.895 C 4.540 5.967,4.041 6.602,3.499 7.680 C 3.085 8.501,2.772 9.406,2.572 10.355 C 2.471 10.833,2.466 10.919,2.467 11.980 C 2.467 13.086,2.469 13.108,2.597 13.720 C 3.103 16.152,4.359 18.181,6.225 19.585 C 7.103 20.246,8.033 20.736,9.053 21.075 C 10.160 21.443,11.263 21.594,12.500 21.548 C 14.187 21.484,16.026 20.845,17.447 19.828 C 18.485 19.086,19.735 17.724,20.315 16.703 C 20.965 15.561,21.506 13.743,21.585 12.438 L 21.612 12.000 16.806 12.000 L 12.000 12.000 12.000 7.200 L 12.000 2.400 11.870 2.406 C 11.798 2.409,11.686 2.419,11.620 2.427 M14.456 2.846 C 14.438 2.876,14.415 4.409,14.406 6.253 L 14.390 9.606 17.792 9.593 C 19.663 9.586,21.207 9.566,21.224 9.550 C 21.322 9.452,20.512 7.619,20.029 6.843 C 19.026 5.234,17.228 3.818,15.128 2.982 C 14.684 2.806,14.504 2.769,14.456 2.846 " fill="#373B4D" stroke="none" fill-rule="evenodd"></path></svg>