<svg width="24" height="24" viewBox="0 0 24 24" fill="none" xmlns="http://www.w3.org/2000/svg"><path d="M11.460 2.427 C 11.033 2.464,10.096 2.614,9.723 2.705 C 8.419 3.025,7.048 3.697,6.035 4.513 C 5.641 4.832,4.941 5.529,4.576 5.967 C 2.948 7.923,2.155 10.651,2.484 13.160 C 2.927 16.538,5.049 19.391,8.123 20.742 C 9.084 21.164,10.146 21.459,10.924 21.520 C 11.567 21.570,12.678 21.569,13.157 21.519 C 14.331 21.395,15.824 20.874,16.950 20.194 C 18.193 19.444,19.449 18.188,20.187 16.960 C 20.769 15.991,21.214 14.841,21.417 13.780 C 21.510 13.296,21.600 12.547,21.600 12.258 L 21.600 12.000 16.800 12.000 L 12.000 12.000 12.000 7.200 L 12.000 2.400 11.810 2.407 C 11.705 2.410,11.548 2.420,11.460 2.427 M14.426 3.630 C 14.412 4.109,14.400 5.647,14.400 7.050 L 14.400 9.600 17.034 9.600 C 18.482 9.600,20.023 9.588,20.458 9.574 L 21.249 9.547 21.229 9.400 C 21.187 9.083,20.568 7.706,20.150 6.995 C 19.363 5.660,18.137 4.493,16.650 3.664 C 15.992 3.297,14.742 2.760,14.546 2.760 L 14.453 2.760 14.426 3.630 " fill="#373B4D" stroke="none" fill-rule="evenodd"></path></svg>