<svg width="24" height="24" viewBox="0 0 24 24" fill="none" xmlns="http://www.w3.org/2000/svg"><path d="M17.544 3.743 C 17.307 3.830,17.128 3.985,16.953 4.255 L 16.795 4.500 16.808 12.020 C 16.818 18.388,16.829 19.555,16.876 19.639 C 16.963 19.791,17.320 20.156,17.514 20.289 L 17.688 20.409 19.194 20.394 L 20.700 20.379 20.886 20.270 C 20.989 20.210,21.172 20.051,21.293 19.917 C 21.509 19.678,21.514 19.667,21.544 19.367 C 21.561 19.198,21.576 15.775,21.577 11.760 L 21.580 4.460 21.492 4.320 C 21.399 4.171,21.084 3.855,20.921 3.746 C 20.833 3.687,20.647 3.680,19.261 3.683 C 18.011 3.685,17.669 3.697,17.544 3.743 M10.344 7.343 C 10.108 7.429,9.928 7.585,9.756 7.852 L 9.600 8.092 9.600 13.809 L 9.600 19.526 9.717 19.696 C 9.907 19.971,10.300 20.312,10.470 20.348 C 10.553 20.366,11.268 20.378,12.060 20.377 C 13.716 20.373,13.614 20.393,14.026 19.981 C 14.201 19.806,14.288 19.683,14.325 19.557 C 14.367 19.415,14.377 18.248,14.379 13.720 L 14.380 8.060 14.292 7.920 C 14.199 7.771,13.884 7.455,13.721 7.346 C 13.633 7.287,13.447 7.280,12.061 7.283 C 10.811 7.285,10.469 7.297,10.344 7.343 M3.600 12.075 C 3.129 12.103,2.923 12.190,2.686 12.459 C 2.401 12.783,2.421 12.550,2.408 15.720 C 2.396 18.650,2.424 19.536,2.536 19.751 C 2.624 19.923,3.032 20.274,3.199 20.322 C 3.403 20.381,4.989 20.412,5.768 20.372 C 6.427 20.337,6.439 20.335,6.608 20.213 C 6.703 20.145,6.876 19.966,6.994 19.815 L 7.207 19.540 7.184 16.240 C 7.172 14.425,7.150 12.889,7.135 12.826 C 7.106 12.697,6.682 12.224,6.522 12.141 C 6.403 12.079,4.312 12.032,3.600 12.075 " fill="#373B4D" stroke="none" fill-rule="evenodd"></path></svg>