<svg width="24" height="24" viewBox="0 0 24 24" fill="none" xmlns="http://www.w3.org/2000/svg"><path d="M11.520 2.427 C 10.099 2.572,8.993 2.863,7.894 3.381 C 6.856 3.870,6.137 4.380,5.279 5.239 C 4.416 6.101,3.932 6.759,3.455 7.717 C 2.393 9.853,2.142 12.115,2.720 14.336 C 3.499 17.327,5.543 19.671,8.400 20.851 C 9.610 21.350,10.678 21.560,12.000 21.560 C 13.084 21.559,13.693 21.478,14.578 21.216 C 16.261 20.718,17.498 19.984,18.743 18.742 C 19.738 17.750,20.411 16.742,20.894 15.520 C 21.264 14.585,21.542 13.366,21.588 12.470 L 21.612 12.000 16.806 12.000 L 12.000 12.000 12.000 7.200 L 12.000 2.400 11.830 2.406 C 11.737 2.410,11.597 2.419,11.520 2.427 M14.427 3.327 C 14.412 3.642,14.400 5.184,14.400 6.753 L 14.400 9.607 17.797 9.593 C 19.665 9.586,21.207 9.566,21.225 9.549 C 21.348 9.425,20.501 7.528,19.948 6.689 C 19.158 5.491,18.040 4.468,16.680 3.699 C 16.053 3.344,14.905 2.838,14.593 2.780 L 14.453 2.753 14.427 3.327 " fill="#373B4D" stroke="none" fill-rule="evenodd"></path></svg>