<svg width="24" height="24" viewBox="0 0 24 24" fill="none" xmlns="http://www.w3.org/2000/svg"><path d="M17.780 3.716 C 17.444 3.750,17.208 3.898,16.978 4.221 L 16.792 4.481 16.809 11.990 C 16.821 17.613,16.837 19.528,16.872 19.611 C 16.933 19.755,17.244 20.087,17.483 20.262 L 17.671 20.400 19.157 20.400 C 20.538 20.400,20.654 20.395,20.792 20.324 C 20.992 20.221,21.279 19.964,21.422 19.757 L 21.540 19.587 21.565 16.223 C 21.579 14.374,21.592 10.978,21.595 8.677 L 21.600 4.494 21.476 4.306 C 21.408 4.203,21.254 4.032,21.134 3.925 C 20.963 3.772,20.876 3.725,20.732 3.705 C 20.507 3.674,18.111 3.683,17.780 3.716 M10.580 7.316 C 10.246 7.349,10.008 7.498,9.781 7.816 L 9.600 8.070 9.600 13.798 L 9.600 19.526 9.718 19.698 C 9.856 19.898,10.201 20.218,10.377 20.309 C 10.481 20.363,10.708 20.372,11.939 20.373 C 12.936 20.374,13.431 20.360,13.544 20.327 C 13.739 20.271,14.031 20.025,14.211 19.766 L 14.340 19.580 14.365 17.880 C 14.379 16.945,14.393 14.361,14.395 12.137 L 14.400 8.094 14.276 7.906 C 14.208 7.803,14.054 7.632,13.934 7.525 C 13.763 7.372,13.676 7.325,13.532 7.305 C 13.307 7.274,10.911 7.283,10.580 7.316 M3.198 12.135 C 2.882 12.220,2.567 12.505,2.476 12.789 C 2.440 12.899,2.423 13.675,2.410 15.642 C 2.393 18.405,2.425 19.470,2.532 19.727 C 2.603 19.897,2.921 20.184,3.160 20.294 C 3.330 20.372,3.413 20.376,4.680 20.378 C 5.417 20.379,6.127 20.365,6.257 20.346 C 6.475 20.315,6.516 20.292,6.744 20.073 C 6.881 19.941,7.043 19.762,7.103 19.675 L 7.213 19.517 7.186 16.196 C 7.156 12.423,7.194 12.786,6.784 12.377 L 6.540 12.133 6.200 12.107 C 5.597 12.060,3.398 12.080,3.198 12.135 " fill="#373B4D" stroke="none" fill-rule="evenodd"></path></svg>