<svg width="24" height="24" viewBox="0 0 24 24" fill="none" xmlns="http://www.w3.org/2000/svg"><path d="M11.340 2.444 C 9.924 2.590,8.845 2.896,7.682 3.479 C 6.741 3.951,6.129 4.389,5.366 5.137 C 4.459 6.027,3.924 6.752,3.419 7.780 C 2.063 10.538,2.081 13.593,3.467 16.330 C 4.624 18.612,6.594 20.283,9.112 21.116 C 10.201 21.476,10.984 21.581,12.339 21.549 C 13.311 21.526,13.696 21.473,14.447 21.258 C 16.276 20.733,17.598 19.942,18.906 18.588 C 20.044 17.411,20.775 16.131,21.236 14.515 C 21.436 13.811,21.600 12.796,21.600 12.258 L 21.600 12.000 16.800 12.000 L 12.000 12.000 12.000 7.200 L 12.000 2.400 11.830 2.405 C 11.737 2.408,11.516 2.426,11.340 2.444 M14.427 3.446 C 14.412 3.828,14.400 5.368,14.400 6.870 L 14.400 9.600 17.190 9.600 C 18.725 9.600,20.265 9.588,20.614 9.573 L 21.248 9.547 21.224 9.393 C 21.157 8.976,20.380 7.321,19.944 6.668 C 19.045 5.322,17.820 4.260,16.251 3.468 C 15.618 3.148,14.804 2.809,14.586 2.773 L 14.453 2.752 14.427 3.446 " fill="#373B4D" stroke="none" fill-rule="evenodd"></path></svg>