<svg width="24" height="24" viewBox="0 0 24 24" fill="none" xmlns="http://www.w3.org/2000/svg"><path d="M18.340 3.716 C 17.515 3.746,17.459 3.760,17.178 4.007 C 17.100 4.076,16.980 4.213,16.913 4.311 L 16.790 4.489 16.807 12.038 L 16.824 19.587 16.982 19.780 C 17.069 19.887,17.256 20.070,17.398 20.187 L 17.656 20.400 19.178 20.400 L 20.700 20.399 20.968 20.198 C 21.359 19.904,21.492 19.719,21.527 19.423 C 21.542 19.289,21.567 15.877,21.583 11.840 L 21.611 4.500 21.427 4.257 C 21.326 4.123,21.158 3.947,21.055 3.867 L 20.867 3.720 20.363 3.720 C 20.087 3.720,19.689 3.713,19.480 3.704 C 19.271 3.696,18.758 3.701,18.340 3.716 M11.140 7.316 C 10.315 7.346,10.259 7.360,9.978 7.607 C 9.900 7.676,9.782 7.809,9.718 7.903 L 9.600 8.074 9.600 13.815 L 9.600 19.556 9.796 19.792 C 9.905 19.922,10.089 20.098,10.205 20.184 L 10.418 20.340 11.939 20.340 C 12.776 20.340,13.508 20.327,13.566 20.310 C 13.737 20.262,14.049 19.991,14.221 19.742 L 14.380 19.510 14.394 13.805 L 14.409 8.100 14.226 7.856 C 14.125 7.723,13.958 7.547,13.855 7.467 L 13.667 7.320 13.163 7.320 C 12.887 7.320,12.489 7.313,12.280 7.304 C 12.071 7.296,11.558 7.301,11.140 7.316 M3.163 12.167 C 2.960 12.225,2.711 12.410,2.578 12.603 L 2.460 12.773 2.434 13.897 C 2.398 15.471,2.399 17.792,2.436 18.745 C 2.473 19.688,2.507 19.797,2.850 20.078 C 3.230 20.390,3.173 20.381,4.707 20.375 C 5.458 20.372,6.156 20.358,6.256 20.343 C 6.476 20.310,6.748 20.108,7.016 19.779 L 7.200 19.553 7.198 17.206 C 7.195 14.526,7.155 13.065,7.076 12.802 C 7.041 12.685,6.942 12.539,6.787 12.372 L 6.551 12.120 4.925 12.124 C 3.990 12.126,3.242 12.144,3.163 12.167 " fill="#373B4D" stroke="none" fill-rule="evenodd"></path></svg>