<svg width="24" height="24" viewBox="0 0 24 24" fill="none" xmlns="http://www.w3.org/2000/svg"><path d="M11.155 2.501 C 9.134 2.826,7.645 3.387,6.464 4.269 C 5.821 4.748,4.903 5.633,4.431 6.228 C 3.648 7.214,3.044 8.503,2.618 10.100 C 2.515 10.487,2.511 10.544,2.491 11.880 L 2.470 13.260 2.637 13.900 C 3.171 15.955,3.881 17.293,5.119 18.575 C 6.671 20.183,8.646 21.174,10.920 21.485 C 11.484 21.563,12.717 21.551,13.300 21.463 C 13.906 21.371,14.707 21.170,15.222 20.981 C 15.810 20.765,16.690 20.324,17.164 20.007 C 18.433 19.158,19.863 17.594,20.461 16.402 C 21.023 15.282,21.527 13.510,21.587 12.450 L 21.612 12.000 16.806 12.000 L 12.000 12.000 12.000 7.200 L 12.000 2.400 11.870 2.404 C 11.798 2.406,11.477 2.449,11.155 2.501 M14.457 2.845 C 14.440 2.872,14.418 4.403,14.408 6.247 L 14.389 9.600 17.028 9.600 C 18.480 9.600,20.022 9.588,20.456 9.574 L 21.245 9.547 21.220 9.444 C 21.126 9.056,20.495 7.660,20.148 7.072 C 19.141 5.368,17.259 3.839,15.140 3.006 C 14.651 2.814,14.498 2.778,14.457 2.845 " fill="#373B4D" stroke="none" fill-rule="evenodd"></path></svg>