<svg width="24" height="24" viewBox="0 0 24 24" fill="none" xmlns="http://www.w3.org/2000/svg"><path d="M11.600 2.425 C 11.545 2.433,11.338 2.459,11.140 2.483 C 9.206 2.713,7.344 3.468,6.047 4.549 C 5.669 4.863,4.884 5.642,4.564 6.020 C 3.921 6.778,3.368 7.780,2.952 8.940 C 2.104 11.302,2.289 13.937,3.468 16.295 C 4.490 18.339,6.270 19.977,8.420 20.854 C 9.644 21.354,10.719 21.557,12.152 21.559 C 13.097 21.561,13.896 21.430,14.880 21.111 C 16.494 20.589,17.611 19.881,18.881 18.575 C 19.376 18.065,19.931 17.366,20.211 16.898 C 20.952 15.660,21.510 13.858,21.587 12.450 L 21.612 12.000 16.806 12.000 L 12.000 12.000 12.000 7.200 L 12.000 2.400 11.850 2.405 C 11.768 2.408,11.655 2.417,11.600 2.425 M14.456 2.827 C 14.437 2.867,14.416 4.407,14.408 6.250 L 14.395 9.600 17.151 9.600 C 18.667 9.600,20.209 9.588,20.577 9.574 L 21.246 9.547 21.220 9.404 C 21.144 8.983,20.366 7.342,19.928 6.680 C 18.876 5.085,17.204 3.796,15.120 2.972 C 14.557 2.749,14.499 2.736,14.456 2.827 " fill="#373B4D" stroke="none" fill-rule="evenodd"></path></svg>