<svg width="24" height="24" viewBox="0 0 24 24" fill="none" xmlns="http://www.w3.org/2000/svg"><path d="M11.160 2.445 C 8.812 2.686,6.793 3.637,5.175 5.265 C 2.751 7.704,1.820 11.347,2.781 14.634 C 3.551 17.270,5.288 19.358,7.732 20.586 C 8.548 20.996,9.532 21.314,10.507 21.484 C 10.948 21.560,11.160 21.573,12.020 21.571 C 12.858 21.569,13.098 21.555,13.500 21.484 C 14.529 21.301,15.377 21.024,16.280 20.575 C 19.379 19.036,21.385 15.970,21.585 12.470 L 21.612 12.000 16.806 12.000 L 12.000 12.000 12.000 7.200 L 12.000 2.400 11.750 2.405 C 11.613 2.408,11.347 2.426,11.160 2.445 M14.425 2.845 C 14.411 2.914,14.400 4.462,14.400 6.285 L 14.400 9.600 17.690 9.600 C 19.500 9.599,21.049 9.588,21.133 9.574 C 21.317 9.543,21.321 9.574,21.033 8.800 C 20.354 6.973,19.268 5.478,17.842 4.405 C 17.256 3.964,16.827 3.706,16.110 3.361 C 15.618 3.125,14.593 2.720,14.486 2.720 C 14.466 2.720,14.439 2.776,14.425 2.845 " fill="#373B4D" stroke="none" fill-rule="evenodd"></path></svg>