<svg width="24" height="24" viewBox="0 0 24 24" fill="none" xmlns="http://www.w3.org/2000/svg"><path d="M4.898 3.953 C 4.430 4.282,3.946 4.833,3.705 5.309 L 3.600 5.517 3.600 12.010 L 3.600 18.502 3.779 18.816 C 4.171 19.505,4.640 19.957,5.320 20.301 L 5.540 20.412 11.760 20.388 C 15.806 20.372,18.099 20.349,18.320 20.321 C 18.742 20.267,19.040 20.129,19.420 19.808 C 19.768 19.516,19.993 19.227,20.223 18.781 L 20.400 18.437 20.400 11.993 L 20.400 5.550 20.191 5.150 C 20.024 4.831,19.914 4.682,19.650 4.418 C 19.468 4.236,19.225 4.025,19.110 3.949 L 18.900 3.812 12.038 3.785 L 5.175 3.758 4.898 3.953 M16.097 7.416 C 16.288 7.496,16.509 7.706,16.556 7.852 C 16.617 8.039,16.671 9.712,16.724 13.053 L 16.771 16.005 16.616 16.166 C 16.378 16.412,15.996 16.671,15.788 16.726 C 15.454 16.816,15.121 16.669,14.650 16.226 L 14.440 16.028 14.440 12.012 L 14.440 7.996 14.732 7.704 C 14.937 7.499,15.072 7.398,15.182 7.367 C 15.375 7.314,15.921 7.343,16.097 7.416 M12.180 9.741 C 12.376 9.773,12.729 9.957,12.927 10.131 L 13.073 10.260 13.120 13.140 L 13.167 16.020 12.893 16.272 C 12.567 16.572,12.216 16.760,11.981 16.760 C 11.749 16.760,11.471 16.609,11.130 16.298 L 10.840 16.034 10.840 13.225 L 10.840 10.416 11.036 10.196 C 11.359 9.834,11.672 9.663,11.940 9.703 C 11.984 9.710,12.092 9.727,12.180 9.741 M8.898 13.417 C 9.048 13.482,9.296 13.720,9.390 13.892 C 9.451 14.004,9.460 14.143,9.460 15.020 C 9.460 15.897,9.451 16.036,9.390 16.148 C 9.295 16.322,9.066 16.539,8.889 16.623 C 8.701 16.712,8.269 16.742,8.046 16.682 C 7.810 16.618,7.425 16.244,7.364 16.020 C 7.338 15.926,7.320 15.471,7.320 14.916 L 7.320 13.972 7.437 13.810 C 7.570 13.627,7.759 13.472,7.962 13.381 C 8.123 13.308,8.692 13.330,8.898 13.417 " fill="#373B4D" stroke="none" fill-rule="evenodd"></path></svg>