<svg width="24" height="24" viewBox="0 0 24 24" fill="none" xmlns="http://www.w3.org/2000/svg"><path d="M17.980 3.718 C 17.760 3.733,17.531 3.766,17.472 3.791 C 17.325 3.853,17.058 4.100,16.917 4.305 L 16.800 4.474 16.805 10.487 C 16.808 13.794,16.821 17.205,16.835 18.066 L 16.860 19.632 17.024 19.826 C 17.114 19.933,17.294 20.106,17.424 20.212 L 17.660 20.403 19.185 20.392 L 20.710 20.380 20.938 20.223 C 21.174 20.061,21.406 19.818,21.503 19.632 C 21.551 19.540,21.564 18.385,21.587 12.071 C 21.601 7.972,21.601 4.570,21.586 4.511 C 21.550 4.364,21.212 3.967,21.000 3.820 L 20.827 3.700 19.603 3.695 C 18.931 3.692,18.200 3.702,17.980 3.718 M10.780 7.318 C 10.560 7.333,10.331 7.366,10.272 7.391 C 10.125 7.453,9.858 7.700,9.717 7.905 L 9.600 8.074 9.601 13.807 L 9.602 19.540 9.736 19.723 C 9.895 19.940,10.259 20.259,10.414 20.318 C 10.485 20.345,11.060 20.360,11.993 20.359 C 13.342 20.358,13.473 20.352,13.625 20.283 C 13.843 20.184,14.084 19.963,14.242 19.717 L 14.369 19.519 14.391 13.866 C 14.402 10.757,14.400 8.166,14.386 8.108 C 14.349 7.964,14.011 7.566,13.800 7.420 L 13.627 7.300 12.403 7.295 C 11.731 7.292,11.000 7.302,10.780 7.318 M3.500 12.114 C 3.210 12.135,3.104 12.162,2.953 12.250 C 2.722 12.386,2.533 12.609,2.471 12.820 C 2.437 12.936,2.424 13.837,2.422 16.080 C 2.420 19.742,2.413 19.663,2.741 19.983 C 2.858 20.096,3.040 20.232,3.146 20.285 C 3.340 20.380,3.340 20.380,4.780 20.377 C 5.844 20.374,6.261 20.360,6.377 20.321 C 6.552 20.263,6.815 20.037,7.046 19.746 L 7.200 19.553 7.197 17.326 C 7.196 16.102,7.181 14.605,7.164 14.000 C 7.129 12.725,7.119 12.686,6.747 12.323 L 6.524 12.107 5.192 12.097 C 4.459 12.092,3.698 12.100,3.500 12.114 " fill="#373B4D" stroke="none" fill-rule="evenodd"></path></svg>