<svg width="24" height="24" viewBox="0 0 24 24" fill="none" xmlns="http://www.w3.org/2000/svg"><path d="M5.920 3.716 C 5.340 3.736,5.196 3.753,5.080 3.816 C 4.504 4.128,4.093 4.548,3.812 5.114 L 3.620 5.500 3.610 11.987 L 3.599 18.475 3.800 18.867 C 4.137 19.527,4.491 19.882,5.120 20.192 L 5.500 20.380 11.919 20.390 C 19.062 20.402,18.442 20.425,19.017 20.126 C 19.333 19.963,19.840 19.492,20.036 19.182 C 20.104 19.073,20.214 18.844,20.280 18.673 L 20.400 18.363 20.400 12.000 L 20.400 5.637 20.280 5.327 C 20.214 5.156,20.104 4.928,20.036 4.819 C 19.885 4.582,19.451 4.144,19.193 3.968 C 18.794 3.696,19.177 3.711,12.580 3.701 C 9.302 3.696,6.305 3.703,5.920 3.716 M15.943 7.315 C 16.035 7.333,16.202 7.420,16.329 7.516 C 16.719 7.809,16.687 7.454,16.733 11.987 L 16.774 15.955 16.599 16.182 C 16.266 16.612,15.838 16.839,15.462 16.782 C 15.204 16.744,14.890 16.533,14.652 16.240 L 14.442 15.980 14.441 12.008 L 14.440 8.037 14.596 7.825 C 14.775 7.584,14.966 7.412,15.140 7.336 C 15.274 7.277,15.693 7.267,15.943 7.315 M12.183 9.683 C 12.474 9.736,12.694 9.860,12.907 10.090 L 13.069 10.266 13.094 10.743 C 13.107 11.005,13.130 12.286,13.145 13.589 L 13.171 15.958 12.997 16.184 C 12.667 16.612,12.237 16.839,11.862 16.782 C 11.604 16.744,11.290 16.533,11.052 16.240 L 10.842 15.980 10.841 13.208 L 10.840 10.437 10.998 10.223 C 11.204 9.944,11.417 9.771,11.640 9.701 C 11.866 9.631,11.893 9.630,12.183 9.683 M8.900 13.376 C 9.010 13.428,9.165 13.540,9.244 13.625 C 9.533 13.935,9.520 13.872,9.520 15.004 L 9.520 16.031 9.347 16.266 C 9.230 16.424,9.104 16.539,8.957 16.620 C 8.764 16.727,8.703 16.740,8.400 16.740 C 8.097 16.740,8.036 16.727,7.843 16.620 C 7.696 16.539,7.570 16.424,7.453 16.266 L 7.280 16.031 7.280 15.002 L 7.280 13.972 7.395 13.816 C 7.691 13.413,7.931 13.284,8.380 13.282 C 8.635 13.281,8.740 13.300,8.900 13.376 " fill="#373B4D" stroke="none" fill-rule="evenodd"></path></svg>