<svg width="24" height="24" viewBox="0 0 24 24" fill="none" xmlns="http://www.w3.org/2000/svg"><path d="M4.847 4.000 C 4.359 4.367,3.933 4.863,3.686 5.348 L 3.600 5.517 3.600 12.017 L 3.600 18.516 3.722 18.723 C 4.184 19.508,4.636 19.953,5.320 20.301 L 5.540 20.412 11.700 20.386 C 15.088 20.372,18.027 20.343,18.232 20.323 C 19.045 20.242,19.730 19.708,20.234 18.762 L 20.400 18.451 20.400 12.000 L 20.400 5.550 20.210 5.188 C 19.993 4.775,19.540 4.263,19.142 3.982 L 18.900 3.811 12.032 3.786 L 5.163 3.761 4.847 4.000 M16.048 7.401 C 16.129 7.424,16.275 7.520,16.372 7.614 C 16.526 7.764,16.552 7.815,16.575 8.003 C 16.618 8.365,16.675 10.393,16.724 13.280 L 16.770 16.019 16.529 16.240 C 15.811 16.898,15.406 16.905,14.706 16.274 L 14.440 16.034 14.440 12.001 L 14.440 7.969 14.688 7.739 C 15.072 7.383,15.124 7.360,15.540 7.360 C 15.738 7.360,15.966 7.379,16.048 7.401 M12.478 9.855 C 12.597 9.915,12.782 10.028,12.888 10.106 L 13.080 10.247 13.080 10.749 C 13.080 11.026,13.100 12.325,13.123 13.636 L 13.167 16.020 12.961 16.210 C 12.574 16.566,12.222 16.760,11.961 16.760 C 11.787 16.760,11.401 16.542,11.110 16.278 L 10.840 16.034 10.840 13.217 L 10.840 10.401 11.090 10.146 C 11.448 9.782,11.588 9.715,11.960 9.732 C 12.188 9.742,12.312 9.772,12.478 9.855 M8.871 13.422 C 9.041 13.492,9.299 13.728,9.383 13.888 C 9.428 13.973,9.440 14.214,9.440 15.020 C 9.440 16.154,9.440 16.152,9.173 16.406 C 8.954 16.614,8.790 16.684,8.463 16.709 C 8.230 16.726,8.141 16.715,7.998 16.652 C 7.756 16.544,7.580 16.388,7.449 16.166 L 7.340 15.980 7.326 14.980 L 7.312 13.980 7.454 13.795 C 7.532 13.694,7.681 13.554,7.785 13.485 C 7.963 13.367,7.996 13.360,8.348 13.360 C 8.596 13.360,8.773 13.381,8.871 13.422 " fill="#373B4D" stroke="none" fill-rule="evenodd"></path></svg>