<svg width="24" height="24" viewBox="0 0 24 24" fill="none" xmlns="http://www.w3.org/2000/svg"><path d="M11.243 2.482 C 9.066 2.811,7.588 3.381,6.280 4.394 C 5.856 4.723,4.792 5.760,4.469 6.160 C 3.587 7.251,2.888 8.807,2.561 10.405 C 2.480 10.802,2.475 10.916,2.490 12.105 C 2.506 13.318,2.512 13.401,2.613 13.820 C 3.111 15.880,3.934 17.416,5.239 18.721 C 6.145 19.627,7.289 20.382,8.479 20.860 C 11.054 21.893,13.855 21.771,16.302 20.519 C 17.237 20.040,17.909 19.531,18.783 18.635 C 20.003 17.386,20.571 16.468,21.060 14.955 C 21.364 14.015,21.600 12.818,21.600 12.218 L 21.600 12.000 16.800 12.000 L 12.000 12.000 12.000 7.200 L 12.000 2.400 11.870 2.404 C 11.798 2.405,11.516 2.441,11.243 2.482 M14.457 2.845 C 14.439 2.874,14.417 4.405,14.407 6.248 L 14.390 9.600 17.005 9.600 C 18.443 9.600,19.985 9.588,20.432 9.573 L 21.244 9.547 21.217 9.424 C 21.123 8.985,20.325 7.294,19.932 6.700 C 18.924 5.174,17.136 3.787,15.167 3.003 C 14.694 2.814,14.502 2.772,14.457 2.845 " fill="#373B4D" stroke="none" fill-rule="evenodd"></path></svg>