<svg width="24" height="24" viewBox="0 0 24 24" fill="none" xmlns="http://www.w3.org/2000/svg"><path d="M4.761 4.076 C 4.348 4.413,3.922 4.906,3.725 5.276 L 3.600 5.511 3.600 12.021 L 3.600 18.531 3.823 18.885 C 4.213 19.503,4.756 20.017,5.320 20.301 L 5.540 20.412 11.620 20.385 C 14.964 20.369,17.880 20.342,18.100 20.323 C 18.557 20.284,18.885 20.181,19.185 19.982 C 19.589 19.714,20.023 19.193,20.295 18.651 L 20.400 18.443 20.400 12.000 L 20.400 5.557 20.294 5.349 C 20.036 4.838,19.614 4.335,19.167 4.007 L 18.900 3.811 12.020 3.788 L 5.140 3.766 4.761 4.076 M16.143 7.451 C 16.211 7.486,16.330 7.585,16.408 7.672 C 16.529 7.806,16.553 7.866,16.575 8.084 C 16.613 8.464,16.672 10.617,16.724 13.479 L 16.769 16.019 16.556 16.215 C 15.808 16.903,15.409 16.904,14.649 16.221 L 14.440 16.033 14.440 12.005 L 14.440 7.977 14.630 7.794 C 14.861 7.573,15.072 7.416,15.180 7.386 C 15.345 7.341,16.018 7.386,16.143 7.451 M12.426 9.838 C 12.518 9.879,12.699 9.984,12.829 10.072 L 13.064 10.232 13.114 13.126 L 13.163 16.020 12.912 16.251 C 12.637 16.502,12.174 16.760,11.998 16.760 C 11.768 16.760,11.358 16.519,10.990 16.167 L 10.840 16.024 10.840 13.215 L 10.840 10.406 10.941 10.286 C 11.105 10.091,11.433 9.833,11.592 9.774 C 11.780 9.704,12.194 9.736,12.426 9.838 M9.011 13.509 C 9.104 13.577,9.234 13.698,9.300 13.779 L 9.420 13.927 9.420 14.994 C 9.420 16.184,9.419 16.190,9.135 16.439 C 8.936 16.614,8.763 16.681,8.445 16.708 C 8.034 16.742,7.721 16.575,7.475 16.192 L 7.345 15.989 7.328 14.985 L 7.311 13.980 7.446 13.813 C 7.757 13.425,7.922 13.351,8.431 13.371 C 8.813 13.386,8.853 13.395,9.011 13.509 " fill="#373B4D" stroke="none" fill-rule="evenodd"></path></svg>