<svg width="24" height="24" viewBox="0 0 24 24" fill="none" xmlns="http://www.w3.org/2000/svg"><path d="M5.003 3.871 C 4.567 4.090,4.003 4.714,3.705 5.309 L 3.600 5.517 3.600 12.000 L 3.600 18.482 3.736 18.751 C 4.085 19.438,4.502 19.869,5.153 20.212 L 5.510 20.400 11.425 20.398 C 17.410 20.395,18.334 20.378,18.706 20.263 C 18.981 20.178,19.321 19.945,19.652 19.615 C 19.960 19.308,20.154 19.011,20.300 18.624 L 20.400 18.358 20.399 11.989 L 20.399 5.620 20.269 5.300 C 20.197 5.124,20.082 4.899,20.014 4.800 C 19.842 4.550,19.244 3.985,19.034 3.873 L 18.860 3.780 12.040 3.771 L 5.220 3.762 5.003 3.871 M16.096 7.394 C 16.340 7.502,16.552 7.703,16.599 7.873 C 16.657 8.079,16.711 10.160,16.742 13.305 L 16.767 15.991 16.506 16.268 C 15.865 16.947,15.339 16.951,14.708 16.283 L 14.440 15.999 14.440 12.013 L 14.440 8.028 14.615 7.816 C 14.983 7.369,15.183 7.267,15.634 7.299 C 15.795 7.310,16.003 7.353,16.096 7.394 M12.500 9.819 C 12.654 9.894,12.847 10.024,12.928 10.108 L 13.076 10.260 13.118 12.580 C 13.141 13.856,13.160 15.150,13.160 15.455 L 13.160 16.010 12.850 16.319 C 12.212 16.955,11.730 16.942,11.098 16.272 L 10.840 15.999 10.840 13.216 L 10.840 10.433 11.024 10.200 C 11.460 9.644,11.906 9.529,12.500 9.819 M8.904 13.398 C 8.994 13.437,9.133 13.535,9.213 13.616 C 9.486 13.889,9.494 13.922,9.512 14.920 C 9.523 15.516,9.513 15.877,9.483 15.988 C 9.424 16.208,9.094 16.570,8.871 16.659 C 8.646 16.749,8.154 16.749,7.929 16.659 C 7.718 16.575,7.377 16.209,7.322 16.008 C 7.277 15.846,7.264 14.210,7.306 14.000 C 7.346 13.801,7.736 13.422,7.983 13.344 C 8.225 13.267,8.664 13.293,8.904 13.398 " fill="#373B4D" stroke="none" fill-rule="evenodd"></path></svg>