<svg width="24" height="24" viewBox="0 0 24 24" fill="none" xmlns="http://www.w3.org/2000/svg"><path d="M18.560 3.761 C 18.087 3.776,17.623 3.810,17.529 3.836 C 17.410 3.869,17.273 3.964,17.079 4.147 L 16.800 4.410 16.800 11.978 L 16.800 19.547 16.946 19.734 C 17.027 19.838,17.219 20.030,17.374 20.161 L 17.656 20.400 19.225 20.400 L 20.795 20.400 21.087 20.079 C 21.561 19.559,21.522 19.762,21.562 17.610 C 21.581 16.582,21.597 13.193,21.598 10.081 L 21.600 4.422 21.251 4.071 L 20.902 3.720 20.161 3.727 C 19.753 3.730,19.033 3.746,18.560 3.761 M11.382 7.364 C 10.405 7.398,10.267 7.423,9.997 7.622 C 9.922 7.678,9.802 7.797,9.730 7.887 L 9.600 8.051 9.600 13.816 L 9.600 19.582 9.996 19.976 L 10.392 20.371 11.974 20.352 L 13.556 20.334 13.725 20.217 C 13.818 20.153,14.008 19.967,14.147 19.804 L 14.400 19.508 14.400 13.763 L 14.400 8.018 14.049 7.669 L 13.698 7.320 12.999 7.326 C 12.615 7.330,11.887 7.347,11.382 7.364 M3.600 12.199 C 3.202 12.219,3.067 12.241,2.940 12.308 C 2.745 12.411,2.580 12.580,2.521 12.737 C 2.436 12.961,2.391 14.667,2.414 16.800 C 2.426 17.955,2.455 19.050,2.478 19.233 C 2.543 19.740,2.749 20.068,3.112 20.247 C 3.296 20.338,3.328 20.340,4.762 20.354 C 5.977 20.365,6.248 20.357,6.362 20.309 C 6.438 20.277,6.660 20.100,6.856 19.916 L 7.213 19.581 7.186 16.760 C 7.159 13.837,7.122 12.961,7.020 12.746 C 6.987 12.677,6.879 12.517,6.779 12.390 L 6.599 12.160 5.349 12.167 C 4.662 12.170,3.875 12.185,3.600 12.199 " fill="#373B4D" stroke="none" fill-rule="evenodd"></path></svg>