<svg width="24" height="24" viewBox="0 0 24 24" fill="none" xmlns="http://www.w3.org/2000/svg"><path d="M17.980 3.757 C 17.596 3.777,17.516 3.794,17.354 3.890 C 17.251 3.950,17.085 4.103,16.984 4.230 L 16.801 4.460 16.800 12.003 L 16.800 19.547 16.946 19.734 C 17.027 19.838,17.219 20.030,17.374 20.161 L 17.656 20.400 19.201 20.400 L 20.747 20.400 21.070 20.100 C 21.255 19.928,21.429 19.725,21.477 19.626 L 21.561 19.452 21.587 11.944 L 21.613 4.435 21.257 4.077 L 20.902 3.720 19.661 3.727 C 18.978 3.731,18.222 3.744,17.980 3.757 M10.780 7.358 C 10.217 7.389,9.993 7.503,9.719 7.902 L 9.600 8.074 9.600 13.828 L 9.600 19.581 9.830 19.821 C 9.957 19.953,10.146 20.131,10.251 20.216 L 10.443 20.372 11.971 20.350 C 12.927 20.336,13.542 20.311,13.612 20.284 C 13.754 20.229,14.133 19.873,14.285 19.653 L 14.400 19.486 14.400 13.752 L 14.400 8.018 14.049 7.669 L 13.698 7.320 12.459 7.327 C 11.778 7.331,11.022 7.345,10.780 7.358 M3.720 12.157 C 3.178 12.178,3.082 12.192,2.960 12.268 C 2.731 12.410,2.517 12.657,2.477 12.825 C 2.420 13.058,2.387 16.972,2.430 18.320 C 2.473 19.670,2.487 19.731,2.817 20.034 C 3.186 20.372,3.163 20.368,4.857 20.353 L 6.347 20.340 6.571 20.191 C 6.694 20.109,6.889 19.929,7.004 19.791 L 7.213 19.540 7.186 16.480 C 7.171 14.797,7.141 13.288,7.120 13.128 C 7.072 12.765,7.011 12.633,6.755 12.346 L 6.554 12.120 5.447 12.127 C 4.838 12.131,4.061 12.144,3.720 12.157 " fill="#373B4D" stroke="none" fill-rule="evenodd"></path></svg>