<svg width="24" height="24" viewBox="0 0 24 24" fill="none" xmlns="http://www.w3.org/2000/svg"><path d="M4.994 3.881 C 4.543 4.133,3.994 4.737,3.718 5.284 L 3.600 5.518 3.600 12.000 L 3.600 18.482 3.725 18.731 C 4.069 19.418,4.588 19.930,5.309 20.295 L 5.517 20.400 11.089 20.399 C 16.852 20.398,18.345 20.371,18.703 20.263 C 19.106 20.141,19.745 19.597,20.050 19.117 C 20.126 18.998,20.236 18.780,20.294 18.633 L 20.400 18.366 20.400 11.987 L 20.400 5.608 20.275 5.314 C 20.206 5.152,20.088 4.925,20.011 4.810 C 19.850 4.566,19.297 4.038,19.052 3.894 L 18.884 3.795 12.052 3.775 L 5.220 3.755 4.994 3.881 M16.000 7.369 C 16.205 7.431,16.470 7.626,16.544 7.768 C 16.590 7.857,16.618 8.082,16.643 8.576 C 16.677 9.241,16.759 14.034,16.760 15.359 L 16.760 16.017 16.470 16.301 C 15.824 16.932,15.376 16.932,14.730 16.301 L 14.440 16.017 14.440 12.015 L 14.440 8.014 14.663 7.768 C 14.944 7.457,15.074 7.364,15.289 7.324 C 15.483 7.288,15.794 7.307,16.000 7.369 M12.546 9.855 C 12.701 9.937,12.883 10.061,12.950 10.132 L 13.073 10.260 13.122 13.139 L 13.171 16.019 12.860 16.308 C 12.488 16.655,12.257 16.777,11.980 16.776 C 11.707 16.774,11.487 16.652,11.132 16.304 L 10.840 16.017 10.840 13.214 L 10.840 10.410 11.100 10.129 C 11.448 9.754,11.615 9.670,11.982 9.691 C 12.210 9.704,12.316 9.735,12.546 9.855 M8.811 13.368 C 9.023 13.432,9.381 13.762,9.444 13.952 C 9.477 14.051,9.495 14.410,9.497 15.040 C 9.500 16.109,9.502 16.102,9.161 16.443 C 8.943 16.661,8.782 16.720,8.400 16.720 C 8.024 16.720,7.869 16.663,7.646 16.446 C 7.313 16.121,7.308 16.104,7.288 15.080 C 7.277 14.481,7.286 14.124,7.316 14.013 C 7.369 13.819,7.632 13.528,7.865 13.405 C 8.047 13.309,8.549 13.290,8.811 13.368 " fill="#373B4D" stroke="none" fill-rule="evenodd"></path></svg>