<svg width="24" height="24" viewBox="0 0 24 24" fill="none" xmlns="http://www.w3.org/2000/svg"><path d="M5.231 3.741 C 5.012 3.821,4.569 4.119,4.350 4.331 C 4.110 4.566,3.881 4.919,3.723 5.299 L 3.599 5.596 3.610 12.048 L 3.620 18.500 3.789 18.853 C 4.126 19.558,4.566 19.975,5.287 20.273 L 5.594 20.400 11.970 20.400 L 18.346 20.400 18.639 20.300 C 19.004 20.176,19.268 20.011,19.595 19.701 C 19.926 19.387,20.141 19.067,20.284 18.675 L 20.400 18.358 20.400 12.000 L 20.400 5.642 20.284 5.323 C 20.130 4.902,19.940 4.625,19.564 4.271 C 19.128 3.861,18.939 3.768,18.453 3.720 C 18.221 3.698,15.467 3.683,11.720 3.684 C 6.448 3.685,5.355 3.695,5.231 3.741 M16.267 7.464 C 16.611 7.706,16.666 7.807,16.694 8.249 C 16.708 8.453,16.730 10.271,16.745 12.289 L 16.771 15.958 16.659 16.109 C 16.460 16.379,16.264 16.565,16.079 16.660 C 15.543 16.934,15.034 16.768,14.597 16.176 L 14.440 15.963 14.440 12.005 L 14.440 8.047 14.610 7.794 C 14.731 7.613,14.843 7.502,15.000 7.408 C 15.216 7.278,15.228 7.275,15.627 7.288 C 16.032 7.300,16.036 7.301,16.267 7.464 M12.197 9.679 C 12.501 9.723,12.809 9.913,12.984 10.166 L 13.097 10.328 13.125 12.034 C 13.141 12.972,13.155 14.242,13.157 14.856 L 13.160 15.972 13.054 16.116 C 12.860 16.378,12.662 16.566,12.479 16.660 C 11.943 16.934,11.434 16.768,10.997 16.176 L 10.840 15.963 10.840 13.205 L 10.840 10.447 11.010 10.194 C 11.234 9.861,11.527 9.681,11.900 9.645 C 11.922 9.643,12.055 9.658,12.197 9.679 M8.693 13.296 C 8.915 13.325,9.224 13.540,9.383 13.776 L 9.520 13.979 9.520 15.000 L 9.520 16.021 9.381 16.228 C 9.135 16.592,8.826 16.760,8.400 16.760 C 7.974 16.760,7.665 16.592,7.419 16.228 L 7.280 16.021 7.280 14.997 L 7.280 13.974 7.431 13.758 C 7.609 13.502,7.896 13.312,8.155 13.278 C 8.337 13.254,8.385 13.256,8.693 13.296 " fill="#373B4D" stroke="none" fill-rule="evenodd"></path></svg>