<svg width="24" height="24" viewBox="0 0 24 24" fill="none" xmlns="http://www.w3.org/2000/svg"><path d="M11.107 2.481 C 9.085 2.749,7.481 3.396,6.100 4.500 C 5.696 4.823,4.802 5.715,4.455 6.140 C 3.681 7.090,2.929 8.684,2.644 9.980 C 2.417 11.015,2.360 12.212,2.493 13.185 C 2.627 14.162,2.982 15.322,3.424 16.221 C 4.789 18.998,7.446 20.950,10.560 21.462 C 11.087 21.548,12.424 21.582,13.020 21.524 C 14.252 21.404,15.808 20.879,16.880 20.223 C 18.152 19.444,19.439 18.164,20.200 16.918 C 20.428 16.546,20.730 15.933,20.901 15.500 C 21.281 14.533,21.600 13.038,21.600 12.222 L 21.600 12.000 16.800 12.000 L 12.000 12.000 12.000 7.200 L 12.000 2.400 11.830 2.404 C 11.737 2.406,11.411 2.441,11.107 2.481 M14.426 3.246 C 14.412 3.514,14.400 5.053,14.400 6.666 L 14.400 9.600 17.010 9.600 C 18.445 9.600,19.986 9.588,20.433 9.573 L 21.246 9.547 21.221 9.404 C 21.142 8.968,20.360 7.313,19.924 6.658 C 19.136 5.476,17.955 4.411,16.600 3.662 C 15.939 3.296,14.692 2.760,14.503 2.760 C 14.466 2.760,14.445 2.894,14.426 3.246 " fill="#373B4D" stroke="none" fill-rule="evenodd"></path></svg>