<svg width="24" height="24" viewBox="0 0 24 24" fill="none" xmlns="http://www.w3.org/2000/svg"><path d="M11.160 2.483 C 10.092 2.629,9.288 2.835,8.400 3.187 C 7.596 3.507,6.993 3.841,6.314 4.346 C 5.810 4.719,4.636 5.889,4.300 6.351 C 3.444 7.529,2.838 8.952,2.552 10.460 C 2.471 10.884,2.461 11.062,2.462 11.980 C 2.462 12.899,2.473 13.078,2.556 13.520 C 2.932 15.524,3.746 17.161,5.061 18.551 C 6.511 20.085,8.538 21.149,10.600 21.459 C 11.192 21.548,12.439 21.581,12.980 21.523 C 14.748 21.332,16.534 20.597,17.876 19.508 C 18.626 18.900,19.603 17.825,20.108 17.051 C 20.863 15.896,21.503 13.907,21.586 12.458 L 21.612 12.000 16.806 12.000 L 12.000 12.000 12.000 7.200 L 12.000 2.400 11.850 2.404 C 11.768 2.407,11.457 2.442,11.160 2.483 M14.479 2.801 C 14.435 2.828,14.422 3.450,14.407 6.217 L 14.389 9.600 17.268 9.600 C 18.852 9.600,20.395 9.588,20.697 9.574 L 21.247 9.547 21.220 9.404 C 21.155 9.055,20.439 7.510,20.041 6.860 C 19.048 5.240,17.299 3.852,15.168 2.994 C 14.723 2.814,14.540 2.763,14.479 2.801 " fill="#373B4D" stroke="none" fill-rule="evenodd"></path></svg>