<svg width="24" height="24" viewBox="0 0 24 24" fill="none" xmlns="http://www.w3.org/2000/svg"><path d="M11.275 2.479 C 9.024 2.825,7.506 3.420,6.200 4.467 C 5.767 4.815,4.888 5.670,4.548 6.076 C 3.685 7.105,3.037 8.467,2.608 10.153 C 2.501 10.578,2.500 10.587,2.501 11.980 L 2.503 13.380 2.653 13.970 C 3.202 16.126,4.083 17.656,5.558 19.014 C 7.225 20.548,9.415 21.451,11.700 21.545 C 13.584 21.623,15.611 21.049,17.200 19.989 C 18.334 19.231,19.698 17.778,20.341 16.641 C 20.975 15.521,21.600 13.339,21.600 12.245 L 21.600 12.000 16.800 12.000 L 12.000 12.000 12.000 7.200 L 12.000 2.400 11.870 2.404 C 11.798 2.406,11.531 2.440,11.275 2.479 M14.455 2.847 C 14.439 2.873,14.418 4.405,14.408 6.251 L 14.389 9.608 17.791 9.594 C 19.662 9.586,21.206 9.567,21.223 9.551 C 21.298 9.475,20.731 8.131,20.252 7.251 C 19.346 5.588,17.643 4.108,15.570 3.181 C 15.146 2.992,14.617 2.800,14.518 2.800 C 14.500 2.800,14.472 2.821,14.455 2.847 " fill="#373B4D" stroke="none" fill-rule="evenodd"></path></svg>