<svg width="24" height="24" viewBox="0 0 24 24" fill="none" xmlns="http://www.w3.org/2000/svg"><path d="M11.101 3.642 C 8.946 3.821,6.844 4.679,5.300 6.010 C 4.572 6.637,4.160 7.099,3.677 7.829 C 2.389 9.776,2.062 12.147,2.783 14.320 C 3.003 14.985,3.302 15.605,3.676 16.171 C 3.832 16.408,3.960 16.622,3.960 16.646 C 3.960 16.714,3.723 17.294,3.051 18.873 C 2.710 19.672,2.444 20.337,2.458 20.352 C 2.473 20.366,3.518 20.120,4.781 19.805 L 7.078 19.231 7.532 19.433 C 8.369 19.805,9.349 20.106,10.220 20.258 C 10.831 20.365,11.995 20.414,12.751 20.366 C 15.862 20.164,18.702 18.606,20.276 16.237 C 21.612 14.226,21.948 11.887,21.216 9.691 C 20.799 8.443,20.197 7.476,19.241 6.519 C 17.677 4.954,15.706 4.007,13.377 3.700 C 12.807 3.625,11.656 3.596,11.101 3.642 M8.400 12.000 L 8.400 13.200 7.200 13.200 L 6.000 13.200 6.000 12.000 L 6.000 10.800 7.200 10.800 L 8.400 10.800 8.400 12.000 M13.200 12.000 L 13.200 13.200 12.000 13.200 L 10.800 13.200 10.800 12.000 L 10.800 10.800 12.000 10.800 L 13.200 10.800 13.200 12.000 M18.000 12.000 L 18.000 13.200 16.800 13.200 L 15.600 13.200 15.600 12.000 L 15.600 10.800 16.800 10.800 L 18.000 10.800 18.000 12.000 " fill="#373B4D" stroke="none" fill-rule="evenodd"></path></svg>