<svg width="24" height="24" viewBox="0 0 24 24" fill="none" xmlns="http://www.w3.org/2000/svg"><path d="M9.640 3.918 C 8.410 4.187,6.791 4.970,5.568 5.888 C 5.079 6.256,4.376 6.954,4.033 7.413 C 3.259 8.451,2.705 9.716,2.541 10.816 C 2.458 11.378,2.457 12.633,2.540 13.179 C 2.652 13.916,2.817 14.394,3.414 15.710 C 3.621 16.167,3.803 16.581,3.818 16.631 C 3.854 16.748,3.777 16.978,3.200 18.480 C 2.684 19.823,2.540 20.234,2.574 20.267 C 2.610 20.303,3.016 20.218,5.100 19.737 L 7.059 19.284 7.880 19.560 C 9.864 20.227,10.403 20.331,11.880 20.330 C 13.544 20.329,14.284 20.210,15.580 19.733 C 17.655 18.970,19.459 17.532,20.479 15.827 C 20.872 15.170,21.218 14.273,21.421 13.380 C 21.553 12.804,21.599 11.841,21.523 11.259 C 21.369 10.077,20.782 8.512,20.206 7.746 C 19.857 7.283,19.199 6.560,18.806 6.208 C 18.069 5.549,17.591 5.234,16.580 4.739 C 15.737 4.327,15.344 4.174,14.649 3.989 L 14.180 3.864 12.080 3.853 C 10.157 3.844,9.951 3.849,9.640 3.918 M8.400 12.000 L 8.400 13.200 7.200 13.200 L 6.000 13.200 6.000 12.000 L 6.000 10.800 7.200 10.800 L 8.400 10.800 8.400 12.000 M13.200 12.000 L 13.200 13.200 12.000 13.200 L 10.800 13.200 10.800 12.000 L 10.800 10.800 12.000 10.800 L 13.200 10.800 13.200 12.000 M18.000 12.000 L 18.000 13.200 16.800 13.200 L 15.600 13.200 15.600 12.000 L 15.600 10.800 16.800 10.800 L 18.000 10.800 18.000 12.000 " fill="#373B4D" stroke="none" fill-rule="evenodd"></path></svg>