<svg width="24" height="24" viewBox="0 0 24 24" fill="none" xmlns="http://www.w3.org/2000/svg"><path d="M5.620 3.718 L 4.060 3.741 3.850 3.857 C 3.355 4.130,2.801 4.724,2.518 5.284 L 2.400 5.518 2.400 8.431 L 2.400 11.344 2.578 11.632 C 2.969 12.267,3.424 12.748,3.814 12.939 C 4.173 13.115,4.544 13.158,5.930 13.186 L 7.200 13.212 7.200 15.016 L 7.200 16.820 9.010 15.010 L 10.820 13.200 11.620 13.200 C 12.488 13.199,13.404 13.146,13.771 13.074 C 14.329 12.965,15.067 12.302,15.459 11.557 L 15.600 11.288 15.600 8.400 L 15.600 5.512 15.460 5.246 C 15.158 4.674,14.726 4.212,14.192 3.890 L 13.977 3.761 11.359 3.721 C 8.653 3.680,8.248 3.680,5.620 3.718 M18.000 8.590 C 18.000 9.019,17.917 11.103,17.877 11.680 C 17.853 12.021,17.810 12.439,17.780 12.610 C 17.676 13.210,17.317 13.802,16.676 14.429 C 15.699 15.386,15.205 15.540,12.960 15.586 L 11.820 15.609 11.567 15.855 C 11.428 15.990,10.955 16.472,10.516 16.926 L 9.718 17.752 10.061 17.876 L 10.404 18.000 11.812 18.000 L 13.220 18.000 15.010 19.790 L 16.800 21.580 16.800 19.790 L 16.800 18.000 17.530 17.999 C 17.931 17.998,18.575 17.982,18.960 17.962 C 19.738 17.923,19.956 17.867,20.360 17.607 C 20.713 17.379,21.194 16.862,21.410 16.478 L 21.600 16.140 21.600 13.226 L 21.600 10.312 21.460 10.046 C 21.051 9.271,20.450 8.750,19.769 8.581 C 19.534 8.522,18.445 8.400,18.160 8.400 L 18.000 8.400 18.000 8.590 " fill="#373B4D" stroke="none" fill-rule="evenodd"></path></svg>