<svg width="24" height="24" viewBox="0 0 24 24" fill="none" xmlns="http://www.w3.org/2000/svg"><path d="M10.380 3.765 C 7.718 3.782,5.175 3.814,4.729 3.835 C 4.014 3.869,3.895 3.885,3.729 3.965 C 3.408 4.120,2.874 4.701,2.528 5.271 L 2.400 5.481 2.400 10.824 L 2.400 16.166 2.645 16.524 C 2.921 16.927,3.364 17.397,3.653 17.596 C 4.091 17.896,4.420 17.950,6.030 17.986 L 7.200 18.013 7.200 20.407 L 7.200 22.801 10.200 20.400 L 13.199 18.000 16.512 18.000 L 19.825 18.000 20.245 17.664 C 20.834 17.192,21.298 16.676,21.515 16.251 L 21.600 16.083 21.600 10.800 L 21.600 5.517 21.515 5.348 C 21.298 4.922,20.724 4.279,20.238 3.918 L 19.970 3.720 17.595 3.727 C 16.289 3.730,13.042 3.747,10.380 3.765 M8.400 10.800 L 8.400 12.000 7.200 12.000 L 6.000 12.000 6.000 10.800 L 6.000 9.600 7.200 9.600 L 8.400 9.600 8.400 10.800 M13.200 10.800 L 13.200 12.000 12.000 12.000 L 10.800 12.000 10.800 10.800 L 10.800 9.600 12.000 9.600 L 13.200 9.600 13.200 10.800 M18.000 10.800 L 18.000 12.000 16.800 12.000 L 15.600 12.000 15.600 10.800 L 15.600 9.600 16.800 9.600 L 18.000 9.600 18.000 10.800 " fill="#373B4D" stroke="none" fill-rule="evenodd"></path></svg>