<svg width="24" height="24" viewBox="0 0 24 24" fill="none" xmlns="http://www.w3.org/2000/svg"><path d="M10.160 3.826 C 9.356 3.924,8.459 4.224,7.440 4.735 C 5.352 5.782,4.050 7.023,3.199 8.779 C 2.588 10.038,2.400 11.035,2.483 12.579 C 2.541 13.660,2.726 14.250,3.577 16.060 C 3.721 16.368,3.840 16.662,3.840 16.713 C 3.840 16.811,3.643 17.347,2.941 19.156 C 2.707 19.759,2.530 20.266,2.548 20.283 C 2.580 20.315,3.388 20.139,5.785 19.578 L 7.071 19.278 7.465 19.421 C 8.163 19.674,9.462 20.072,9.947 20.181 C 10.567 20.320,11.550 20.370,12.672 20.320 C 13.872 20.266,14.479 20.142,15.640 19.713 C 17.663 18.966,19.437 17.554,20.446 15.890 C 21.034 14.918,21.470 13.592,21.557 12.510 C 21.644 11.430,21.416 10.242,20.879 8.968 C 20.532 8.149,20.261 7.741,19.512 6.919 C 18.625 5.943,17.828 5.337,16.708 4.785 C 15.738 4.306,15.116 4.079,14.325 3.913 C 13.977 3.840,13.763 3.831,12.120 3.820 C 11.119 3.814,10.237 3.816,10.160 3.826 M8.400 12.000 L 8.400 13.200 7.200 13.200 L 6.000 13.200 6.000 12.000 L 6.000 10.800 7.200 10.800 L 8.400 10.800 8.400 12.000 M13.200 12.000 L 13.200 13.200 12.000 13.200 L 10.800 13.200 10.800 12.000 L 10.800 10.800 12.000 10.800 L 13.200 10.800 13.200 12.000 M18.000 12.000 L 18.000 13.200 16.800 13.200 L 15.600 13.200 15.600 12.000 L 15.600 10.800 16.800 10.800 L 18.000 10.800 18.000 12.000 " fill="#373B4D" stroke="none" fill-rule="evenodd"></path></svg>