<svg width="24" height="24" viewBox="0 0 24 24" fill="none" xmlns="http://www.w3.org/2000/svg"><path d="M7.820 3.763 C 5.593 3.778,4.044 3.805,3.960 3.828 C 3.727 3.893,3.590 3.981,3.295 4.254 C 3.004 4.524,2.689 4.945,2.505 5.309 L 2.400 5.517 2.400 10.831 L 2.400 16.144 2.578 16.432 C 2.969 17.067,3.424 17.548,3.814 17.739 C 4.173 17.915,4.544 17.958,5.930 17.986 L 7.200 18.012 7.200 20.407 L 7.200 22.801 10.200 20.400 L 13.199 18.000 16.492 18.000 L 19.785 18.000 20.143 17.757 C 20.736 17.354,21.230 16.819,21.495 16.291 L 21.600 16.083 21.600 10.800 L 21.600 5.517 21.494 5.309 C 21.223 4.773,20.830 4.328,20.294 3.950 L 19.968 3.720 15.754 3.728 C 13.436 3.733,9.866 3.748,7.820 3.763 M8.400 10.800 L 8.400 12.000 7.200 12.000 L 6.000 12.000 6.000 10.800 L 6.000 9.600 7.200 9.600 L 8.400 9.600 8.400 10.800 M13.200 10.800 L 13.200 12.000 12.000 12.000 L 10.800 12.000 10.800 10.800 L 10.800 9.600 12.000 9.600 L 13.200 9.600 13.200 10.800 M18.000 10.800 L 18.000 12.000 16.800 12.000 L 15.600 12.000 15.600 10.800 L 15.600 9.600 16.800 9.600 L 18.000 9.600 18.000 10.800 " fill="#373B4D" stroke="none" fill-rule="evenodd"></path></svg>