<svg width="24" height="24" viewBox="0 0 24 24" fill="none" xmlns="http://www.w3.org/2000/svg"><path d="M3.895 3.860 C 3.432 4.091,2.604 4.979,2.477 5.380 C 2.439 5.500,2.423 6.258,2.410 8.449 L 2.394 11.357 2.639 11.716 C 2.920 12.126,3.370 12.606,3.653 12.797 C 4.094 13.096,4.423 13.150,6.030 13.186 L 7.200 13.213 7.200 15.016 L 7.200 16.820 9.010 15.010 L 10.820 13.200 11.521 13.200 C 12.299 13.200,13.405 13.136,13.675 13.076 C 14.283 12.941,14.961 12.368,15.436 11.587 L 15.602 11.315 15.591 8.387 C 15.578 5.047,15.623 5.429,15.180 4.860 C 14.893 4.492,14.609 4.215,14.246 3.947 L 13.991 3.760 9.043 3.760 L 4.096 3.760 3.895 3.860 M18.000 8.546 C 17.999 8.776,17.926 10.365,17.879 11.140 C 17.824 12.068,17.768 12.579,17.695 12.838 C 17.521 13.450,16.961 14.215,16.292 14.754 C 15.488 15.402,14.932 15.536,12.840 15.586 C 11.875 15.609,11.815 15.615,11.726 15.695 C 11.674 15.742,11.201 16.224,10.675 16.766 L 9.718 17.752 10.061 17.876 L 10.404 18.000 11.812 18.000 L 13.220 18.000 15.010 19.790 L 16.800 21.580 16.800 19.790 L 16.800 18.000 17.590 18.000 C 18.963 18.000,19.740 17.914,20.117 17.722 C 20.504 17.524,21.325 16.683,21.505 16.300 L 21.599 16.100 21.596 13.640 C 21.594 12.287,21.580 10.954,21.566 10.678 C 21.541 10.198,21.534 10.166,21.400 9.938 C 21.323 9.807,21.089 9.528,20.880 9.319 C 20.242 8.679,19.915 8.565,18.290 8.418 L 18.000 8.392 18.000 8.546 " fill="#373B4D" stroke="none" fill-rule="evenodd"></path></svg>