<svg width="24" height="24" viewBox="0 0 24 24" fill="none" xmlns="http://www.w3.org/2000/svg"><path d="M5.360 3.718 L 4.060 3.742 3.801 3.881 C 3.333 4.132,2.805 4.713,2.505 5.309 L 2.400 5.517 2.400 8.422 L 2.400 11.326 2.561 11.602 C 2.833 12.067,3.198 12.518,3.457 12.710 C 3.997 13.110,4.257 13.161,5.910 13.188 L 7.200 13.210 7.200 15.015 L 7.200 16.820 9.010 15.010 L 10.820 13.200 11.520 13.199 C 12.684 13.197,13.622 13.136,13.920 13.042 C 14.425 12.884,15.086 12.255,15.434 11.603 L 15.600 11.291 15.600 8.404 L 15.600 5.517 15.495 5.309 C 15.194 4.709,14.759 4.224,14.252 3.924 L 13.965 3.754 11.692 3.718 C 9.267 3.681,7.455 3.681,5.360 3.718 M17.983 9.310 C 17.916 11.574,17.854 12.426,17.723 12.900 C 17.577 13.427,17.110 14.072,16.460 14.645 C 15.611 15.395,15.036 15.553,13.040 15.587 L 11.820 15.608 11.527 15.894 C 11.366 16.051,10.893 16.534,10.476 16.966 L 9.718 17.752 10.061 17.876 L 10.404 18.000 11.812 18.000 L 13.220 18.000 15.010 19.790 L 16.800 21.580 16.800 19.796 L 16.800 18.013 18.090 17.987 C 18.800 17.972,19.488 17.943,19.620 17.921 C 20.291 17.811,21.094 17.130,21.495 16.331 L 21.600 16.123 21.600 13.220 L 21.600 10.317 21.495 10.109 C 21.048 9.222,20.389 8.672,19.616 8.542 C 19.259 8.482,18.426 8.401,18.155 8.400 L 18.011 8.400 17.983 9.310 " fill="#373B4D" stroke="none" fill-rule="evenodd"></path></svg>