<svg width="24" height="24" viewBox="0 0 24 24" fill="none" xmlns="http://www.w3.org/2000/svg"><path d="M4.337 3.715 C 3.983 3.740,3.967 3.745,3.645 3.957 C 3.184 4.259,2.851 4.632,2.613 5.112 L 2.420 5.500 2.410 10.787 L 2.399 16.074 2.602 16.472 C 2.993 17.239,3.516 17.705,4.190 17.887 C 4.467 17.962,4.643 17.973,5.850 17.990 L 7.200 18.009 7.200 20.405 L 7.200 22.801 10.200 20.400 L 13.199 18.000 16.470 17.999 L 19.740 17.999 20.034 17.838 C 20.679 17.487,21.125 17.035,21.415 16.440 L 21.580 16.100 21.580 10.800 L 21.580 5.500 21.388 5.114 C 21.099 4.533,20.683 4.114,20.080 3.797 L 19.900 3.702 12.300 3.696 C 8.120 3.692,4.537 3.701,4.337 3.715 M8.400 10.800 L 8.400 12.000 7.200 12.000 L 6.000 12.000 6.000 10.800 L 6.000 9.600 7.200 9.600 L 8.400 9.600 8.400 10.800 M13.200 10.800 L 13.200 12.000 12.000 12.000 L 10.800 12.000 10.800 10.800 L 10.800 9.600 12.000 9.600 L 13.200 9.600 13.200 10.800 M18.000 10.800 L 18.000 12.000 16.800 12.000 L 15.600 12.000 15.600 10.800 L 15.600 9.600 16.800 9.600 L 18.000 9.600 18.000 10.800 " fill="#373B4D" stroke="none" fill-rule="evenodd"></path></svg>