<svg width="24" height="24" viewBox="0 0 24 24" fill="none" xmlns="http://www.w3.org/2000/svg"><path d="M5.400 3.679 C 4.495 3.694,4.066 3.716,3.986 3.751 C 3.776 3.843,3.341 4.145,3.150 4.331 C 2.910 4.566,2.681 4.919,2.523 5.299 L 2.399 5.597 2.410 10.848 L 2.420 16.100 2.629 16.526 C 2.857 16.993,3.144 17.326,3.560 17.610 C 4.042 17.937,4.439 17.999,6.070 18.000 L 7.200 18.000 7.200 20.400 L 7.200 22.801 10.199 20.401 L 13.198 18.001 16.474 17.991 L 19.750 17.980 20.099 17.803 C 20.718 17.489,21.265 16.890,21.498 16.269 L 21.600 15.998 21.600 10.796 L 21.600 5.594 21.472 5.287 C 21.200 4.634,20.787 4.171,20.200 3.863 L 19.931 3.722 18.636 3.701 C 16.664 3.670,6.874 3.653,5.400 3.679 M8.400 10.800 L 8.400 12.000 7.200 12.000 L 6.000 12.000 6.000 10.800 L 6.000 9.600 7.200 9.600 L 8.400 9.600 8.400 10.800 M13.200 10.800 L 13.200 12.000 12.000 12.000 L 10.800 12.000 10.800 10.800 L 10.800 9.600 12.000 9.600 L 13.200 9.600 13.200 10.800 M18.000 10.800 L 18.000 12.000 16.800 12.000 L 15.600 12.000 15.600 10.800 L 15.600 9.600 16.800 9.600 L 18.000 9.600 18.000 10.800 " fill="#373B4D" stroke="none" fill-rule="evenodd"></path></svg>