<svg width="24" height="24" viewBox="0 0 24 24" fill="none" xmlns="http://www.w3.org/2000/svg"><path d="M5.380 3.639 C 4.197 3.661,4.177 3.663,3.933 3.766 C 3.269 4.050,2.735 4.622,2.517 5.285 L 2.420 5.580 2.420 10.800 L 2.420 16.020 2.517 16.315 C 2.747 17.012,3.343 17.619,4.045 17.870 C 4.339 17.976,4.343 17.976,5.770 17.991 L 7.200 18.006 7.200 20.403 L 7.200 22.801 10.197 20.402 L 13.195 18.004 16.427 17.991 L 19.660 17.979 19.955 17.872 C 20.661 17.615,21.254 17.011,21.483 16.315 L 21.580 16.020 21.580 10.800 L 21.580 5.580 21.483 5.285 C 21.257 4.600,20.654 3.978,19.980 3.737 C 19.812 3.676,19.581 3.660,18.520 3.637 C 17.062 3.604,7.158 3.605,5.380 3.639 M8.400 10.800 L 8.400 12.000 7.200 12.000 L 6.000 12.000 6.000 10.800 L 6.000 9.600 7.200 9.600 L 8.400 9.600 8.400 10.800 M13.200 10.800 L 13.200 12.000 12.000 12.000 L 10.800 12.000 10.800 10.800 L 10.800 9.600 12.000 9.600 L 13.200 9.600 13.200 10.800 M18.000 10.800 L 18.000 12.000 16.800 12.000 L 15.600 12.000 15.600 10.800 L 15.600 9.600 16.800 9.600 L 18.000 9.600 18.000 10.800 " fill="#373B4D" stroke="none" fill-rule="evenodd"></path></svg>