<svg width="24" height="24" viewBox="0 0 24 24" fill="none" xmlns="http://www.w3.org/2000/svg"><path d="M4.279 3.716 C 3.732 3.766,3.044 4.330,2.640 5.062 L 2.420 5.460 2.410 8.380 L 2.399 11.300 2.630 11.720 C 2.923 12.255,3.367 12.724,3.760 12.913 C 4.248 13.148,4.375 13.165,5.850 13.189 L 7.200 13.211 7.200 15.015 L 7.200 16.820 9.010 15.014 L 10.820 13.209 12.120 13.184 C 12.835 13.170,13.535 13.140,13.677 13.118 C 14.112 13.047,14.334 12.915,14.805 12.443 C 15.178 12.069,15.253 11.970,15.415 11.637 L 15.600 11.256 15.600 8.387 L 15.600 5.518 15.475 5.269 C 15.139 4.598,14.728 4.147,14.226 3.899 L 13.931 3.753 13.056 3.718 C 12.097 3.680,4.699 3.678,4.279 3.716 M17.999 8.790 C 17.998 9.509,17.920 11.655,17.878 12.100 C 17.827 12.647,17.753 12.937,17.571 13.304 C 17.387 13.677,17.158 13.982,16.751 14.394 C 16.199 14.955,15.669 15.274,15.011 15.442 C 14.632 15.539,13.722 15.600,12.640 15.600 L 11.819 15.600 11.079 16.350 C 10.672 16.762,10.198 17.246,10.026 17.425 L 9.712 17.750 10.058 17.875 L 10.404 18.000 11.812 18.000 L 13.220 18.000 15.010 19.790 L 16.800 21.580 16.800 19.796 L 16.800 18.013 18.110 17.987 C 18.831 17.973,19.528 17.944,19.660 17.922 C 20.343 17.808,21.064 17.182,21.494 16.331 L 21.600 16.123 21.599 13.211 L 21.599 10.300 21.419 9.965 C 20.974 9.137,20.361 8.638,19.646 8.523 C 19.323 8.472,18.499 8.401,18.210 8.400 L 18.000 8.400 17.999 8.790 " fill="#373B4D" stroke="none" fill-rule="evenodd"></path></svg>