<svg width="24" height="24" viewBox="0 0 24 24" fill="none" xmlns="http://www.w3.org/2000/svg"><path d="M9.760 3.908 C 8.729 4.082,6.983 4.883,5.829 5.711 C 5.136 6.208,4.184 7.172,3.776 7.788 C 3.231 8.613,2.804 9.606,2.594 10.540 C 2.490 10.999,2.447 12.387,2.517 12.991 C 2.601 13.713,2.838 14.427,3.454 15.810 C 3.802 16.592,3.823 16.666,3.763 16.907 C 3.736 17.013,3.466 17.766,3.162 18.580 C 2.535 20.262,2.529 20.280,2.629 20.280 C 2.705 20.280,4.556 19.869,6.128 19.504 L 7.076 19.284 7.668 19.484 C 9.201 20.000,9.988 20.208,10.674 20.278 C 11.179 20.329,12.518 20.331,13.202 20.281 C 14.244 20.205,15.289 19.907,16.420 19.363 C 17.451 18.868,18.318 18.271,19.095 17.520 C 20.239 16.415,20.845 15.398,21.297 13.825 C 21.503 13.109,21.528 12.905,21.528 11.960 C 21.528 11.136,21.522 11.080,21.406 10.620 C 21.340 10.356,21.215 9.933,21.129 9.680 C 20.655 8.290,20.187 7.576,18.993 6.420 C 18.336 5.783,17.927 5.479,17.192 5.076 C 16.223 4.545,15.530 4.245,14.754 4.021 L 14.263 3.880 12.061 3.885 C 10.851 3.888,9.815 3.899,9.760 3.908 M8.400 12.000 L 8.400 13.200 7.200 13.200 L 6.000 13.200 6.000 12.000 L 6.000 10.800 7.200 10.800 L 8.400 10.800 8.400 12.000 M13.200 12.000 L 13.200 13.200 12.000 13.200 L 10.800 13.200 10.800 12.000 L 10.800 10.800 12.000 10.800 L 13.200 10.800 13.200 12.000 M18.000 12.000 L 18.000 13.200 16.800 13.200 L 15.600 13.200 15.600 12.000 L 15.600 10.800 16.800 10.800 L 18.000 10.800 18.000 12.000 " fill="#373B4D" stroke="none" fill-rule="evenodd"></path></svg>