<svg width="24" height="24" viewBox="0 0 24 24" fill="none" xmlns="http://www.w3.org/2000/svg"><path d="M4.860 3.718 C 4.077 3.740,4.055 3.743,3.840 3.856 C 3.568 3.998,3.481 4.064,3.187 4.352 C 2.942 4.591,2.682 4.956,2.505 5.309 L 2.400 5.517 2.400 8.417 L 2.400 11.316 2.597 11.659 C 2.836 12.075,3.139 12.461,3.369 12.646 C 3.963 13.122,4.351 13.196,6.270 13.199 L 7.200 13.200 7.200 15.010 L 7.200 16.820 9.010 15.014 L 10.820 13.209 12.100 13.184 C 13.552 13.155,13.797 13.128,14.156 12.954 C 14.552 12.761,15.162 12.130,15.410 11.654 L 15.600 11.290 15.600 8.401 L 15.600 5.512 15.440 5.206 C 15.113 4.581,14.753 4.196,14.208 3.892 L 13.955 3.750 12.267 3.717 C 10.431 3.681,6.140 3.682,4.860 3.718 M17.966 9.945 C 17.880 12.677,17.830 12.965,17.307 13.740 C 17.070 14.091,16.387 14.760,16.031 14.992 C 15.295 15.469,14.577 15.599,12.680 15.600 L 11.819 15.600 11.119 16.310 C 10.734 16.700,10.260 17.184,10.066 17.385 L 9.712 17.750 10.058 17.875 L 10.404 18.000 11.812 18.000 L 13.220 18.000 15.010 19.790 L 16.800 21.580 16.800 19.796 L 16.800 18.013 18.110 17.987 C 18.831 17.973,19.528 17.942,19.660 17.917 C 20.321 17.796,21.045 17.185,21.459 16.396 L 21.600 16.128 21.600 13.223 L 21.600 10.317 21.495 10.109 C 21.124 9.375,20.604 8.851,20.033 8.634 C 19.790 8.541,19.188 8.456,18.497 8.417 L 18.015 8.390 17.966 9.945 " fill="#373B4D" stroke="none" fill-rule="evenodd"></path></svg>