<svg width="24" height="24" viewBox="0 0 24 24" fill="none" xmlns="http://www.w3.org/2000/svg"><path d="M9.920 3.764 C 7.225 3.780,4.764 3.812,4.452 3.834 C 3.947 3.869,3.860 3.886,3.679 3.985 C 3.392 4.141,2.864 4.712,2.610 5.140 L 2.400 5.495 2.400 10.831 L 2.400 16.166 2.648 16.533 C 3.019 17.081,3.516 17.564,3.883 17.736 C 4.276 17.920,4.612 17.959,6.050 17.988 L 7.200 18.012 7.200 20.406 L 7.200 22.801 10.200 20.400 L 13.199 18.000 16.502 18.000 L 19.804 18.000 20.112 17.774 C 20.712 17.332,21.282 16.714,21.515 16.252 L 21.600 16.083 21.600 10.797 L 21.600 5.511 21.477 5.280 C 21.223 4.804,20.717 4.254,20.175 3.867 L 19.970 3.720 17.395 3.727 C 15.979 3.730,12.615 3.747,9.920 3.764 M8.400 10.800 L 8.400 12.000 7.200 12.000 L 6.000 12.000 6.000 10.800 L 6.000 9.600 7.200 9.600 L 8.400 9.600 8.400 10.800 M13.200 10.800 L 13.200 12.000 12.000 12.000 L 10.800 12.000 10.800 10.800 L 10.800 9.600 12.000 9.600 L 13.200 9.600 13.200 10.800 M18.000 10.800 L 18.000 12.000 16.800 12.000 L 15.600 12.000 15.600 10.800 L 15.600 9.600 16.800 9.600 L 18.000 9.600 18.000 10.800 " fill="#373B4D" stroke="none" fill-rule="evenodd"></path></svg>