<svg width="24" height="24" viewBox="0 0 24 24" fill="none" xmlns="http://www.w3.org/2000/svg"><path d="M5.460 3.675 C 4.126 3.700,4.097 3.702,3.920 3.796 C 3.312 4.119,2.900 4.533,2.612 5.114 L 2.420 5.500 2.409 8.387 L 2.398 11.273 2.602 11.672 C 2.993 12.439,3.515 12.905,4.190 13.087 C 4.467 13.162,4.643 13.173,5.850 13.190 L 7.200 13.209 7.200 15.014 L 7.200 16.820 9.010 15.014 L 10.820 13.209 12.160 13.184 C 12.897 13.170,13.599 13.141,13.719 13.120 C 14.098 13.054,14.418 12.864,14.797 12.482 C 15.152 12.125,15.338 11.852,15.503 11.452 L 15.598 11.220 15.599 8.374 L 15.600 5.528 15.418 5.164 C 15.110 4.550,14.710 4.121,14.219 3.877 C 14.003 3.770,13.918 3.754,13.419 3.721 C 12.703 3.675,7.239 3.643,5.460 3.675 M17.983 9.730 C 17.949 11.355,17.899 12.233,17.816 12.633 C 17.691 13.240,17.355 13.803,16.760 14.402 C 16.308 14.857,15.908 15.131,15.436 15.308 C 14.850 15.528,14.526 15.567,13.100 15.588 L 11.820 15.607 11.327 16.094 C 11.056 16.361,10.583 16.844,10.276 17.166 L 9.718 17.752 10.061 17.876 L 10.404 18.000 11.812 18.000 L 13.220 18.000 15.010 19.790 L 16.800 21.580 16.800 19.795 L 16.800 18.010 18.110 17.989 C 18.831 17.977,19.534 17.947,19.674 17.922 C 20.346 17.803,20.990 17.261,21.436 16.440 L 21.599 16.140 21.599 13.232 L 21.600 10.324 21.391 9.912 C 21.031 9.205,20.429 8.689,19.791 8.541 C 19.543 8.484,18.616 8.402,18.195 8.401 L 18.011 8.400 17.983 9.730 " fill="#373B4D" stroke="none" fill-rule="evenodd"></path></svg>