<svg width="24" height="24" viewBox="0 0 24 24" fill="none" xmlns="http://www.w3.org/2000/svg"><path d="M10.440 3.800 C 9.449 3.856,8.296 4.244,6.992 4.960 C 5.201 5.944,4.038 7.091,3.257 8.643 C 2.671 9.808,2.462 10.686,2.464 11.980 C 2.466 13.439,2.614 14.004,3.469 15.820 C 3.666 16.238,3.838 16.612,3.852 16.650 C 3.882 16.732,3.833 16.868,3.105 18.728 C 2.807 19.492,2.551 20.162,2.537 20.218 C 2.513 20.315,2.518 20.319,2.646 20.295 C 2.803 20.267,4.969 19.771,6.194 19.483 L 7.048 19.282 8.114 19.639 C 9.985 20.266,10.365 20.337,11.860 20.337 C 13.365 20.337,14.010 20.253,15.058 19.918 C 16.754 19.375,17.914 18.690,19.159 17.495 C 20.409 16.295,21.175 14.828,21.505 13.000 C 21.609 12.428,21.600 11.504,21.487 10.931 C 21.262 9.795,20.816 8.641,20.307 7.873 C 20.062 7.504,19.445 6.810,18.874 6.263 C 18.276 5.689,17.751 5.317,16.960 4.905 C 15.638 4.216,14.540 3.862,13.593 3.821 C 12.744 3.784,10.941 3.772,10.440 3.800 M8.400 12.000 L 8.400 13.200 7.200 13.200 L 6.000 13.200 6.000 12.000 L 6.000 10.800 7.200 10.800 L 8.400 10.800 8.400 12.000 M13.200 12.000 L 13.200 13.200 12.000 13.200 L 10.800 13.200 10.800 12.000 L 10.800 10.800 12.000 10.800 L 13.200 10.800 13.200 12.000 M18.000 12.000 L 18.000 13.200 16.800 13.200 L 15.600 13.200 15.600 12.000 L 15.600 10.800 16.800 10.800 L 18.000 10.800 18.000 12.000 " fill="#373B4D" stroke="none" fill-rule="evenodd"></path></svg>