<svg width="24" height="24" viewBox="0 0 24 24" fill="none" xmlns="http://www.w3.org/2000/svg"><path d="M6.420 3.759 C 3.646 3.783,3.893 3.751,3.408 4.149 C 3.082 4.416,2.788 4.781,2.569 5.193 L 2.400 5.509 2.400 10.818 L 2.400 16.126 2.561 16.402 C 2.833 16.867,3.198 17.318,3.457 17.510 C 3.997 17.910,4.257 17.961,5.910 17.988 L 7.200 18.010 7.200 20.405 L 7.200 22.801 10.200 20.400 L 13.199 18.000 16.490 18.000 L 19.780 18.000 20.160 17.751 C 20.752 17.364,21.199 16.875,21.494 16.291 L 21.600 16.083 21.600 10.800 L 21.600 5.517 21.494 5.309 C 21.210 4.747,20.815 4.295,20.313 3.960 L 19.955 3.720 14.407 3.729 C 11.356 3.733,7.762 3.747,6.420 3.759 M8.400 10.800 L 8.400 12.000 7.200 12.000 L 6.000 12.000 6.000 10.800 L 6.000 9.600 7.200 9.600 L 8.400 9.600 8.400 10.800 M13.200 10.800 L 13.200 12.000 12.000 12.000 L 10.800 12.000 10.800 10.800 L 10.800 9.600 12.000 9.600 L 13.200 9.600 13.200 10.800 M18.000 10.800 L 18.000 12.000 16.800 12.000 L 15.600 12.000 15.600 10.800 L 15.600 9.600 16.800 9.600 L 18.000 9.600 18.000 10.800 " fill="#373B4D" stroke="none" fill-rule="evenodd"></path></svg>