<svg width="24" height="24" viewBox="0 0 24 24" fill="none" xmlns="http://www.w3.org/2000/svg"><path d="M9.980 3.877 C 9.105 3.963,7.614 4.566,6.417 5.317 C 5.676 5.783,5.381 6.019,4.738 6.660 C 4.230 7.167,4.033 7.396,3.792 7.760 C 3.110 8.792,2.634 10.005,2.520 10.996 C 2.468 11.447,2.469 12.612,2.521 13.041 C 2.611 13.777,2.835 14.435,3.480 15.860 C 3.702 16.349,3.806 16.627,3.806 16.727 C 3.805 16.812,3.675 17.219,3.498 17.687 C 2.491 20.352,2.516 20.280,2.620 20.280 C 2.706 20.280,3.907 20.015,5.683 19.605 L 7.066 19.285 8.203 19.658 C 10.080 20.275,10.471 20.339,12.232 20.310 C 13.199 20.294,13.505 20.275,13.880 20.207 C 16.748 19.688,19.497 17.766,20.681 15.453 C 21.016 14.800,21.373 13.736,21.485 13.060 C 21.516 12.871,21.538 12.421,21.537 11.960 C 21.537 11.249,21.527 11.138,21.426 10.700 C 21.148 9.505,20.645 8.324,20.130 7.659 C 19.445 6.774,18.562 5.923,17.820 5.433 C 17.409 5.161,16.155 4.520,15.620 4.307 C 15.422 4.228,15.042 4.102,14.775 4.026 L 14.290 3.888 12.295 3.867 C 11.198 3.855,10.156 3.860,9.980 3.877 M8.400 12.000 L 8.400 13.200 7.200 13.200 L 6.000 13.200 6.000 12.000 L 6.000 10.800 7.200 10.800 L 8.400 10.800 8.400 12.000 M13.200 12.000 L 13.200 13.200 12.000 13.200 L 10.800 13.200 10.800 12.000 L 10.800 10.800 12.000 10.800 L 13.200 10.800 13.200 12.000 M18.000 12.000 L 18.000 13.200 16.800 13.200 L 15.600 13.200 15.600 12.000 L 15.600 10.800 16.800 10.800 L 18.000 10.800 18.000 12.000 " fill="#373B4D" stroke="none" fill-rule="evenodd"></path></svg>