<svg width="24" height="24" viewBox="0 0 24 24" fill="none" xmlns="http://www.w3.org/2000/svg"><path d="M5.698 3.715 L 4.057 3.740 3.819 3.880 C 3.379 4.139,2.746 4.836,2.486 5.348 C 2.400 5.516,2.400 5.532,2.400 8.436 L 2.400 11.356 2.677 11.771 C 3.155 12.485,3.646 12.913,4.147 13.052 C 4.439 13.134,5.470 13.200,6.450 13.200 L 7.200 13.200 7.200 15.010 L 7.200 16.820 9.010 15.014 L 10.820 13.209 11.980 13.186 C 13.225 13.161,13.657 13.119,13.971 12.996 C 14.493 12.790,15.103 12.199,15.455 11.557 L 15.600 11.293 15.600 8.405 L 15.600 5.517 15.504 5.329 C 15.268 4.862,14.693 4.225,14.243 3.931 L 13.999 3.772 12.169 3.746 C 8.676 3.696,7.331 3.690,5.698 3.715 M18.000 8.585 C 18.000 8.885,17.925 10.619,17.879 11.380 C 17.807 12.577,17.747 12.885,17.495 13.353 C 17.225 13.853,16.755 14.398,16.235 14.814 C 15.492 15.409,14.915 15.542,12.900 15.586 L 11.820 15.609 11.647 15.775 C 11.551 15.866,11.078 16.348,10.596 16.846 L 9.718 17.752 10.061 17.876 L 10.404 18.000 11.812 18.000 L 13.220 18.000 15.010 19.790 L 16.800 21.580 16.800 19.790 L 16.800 18.000 17.510 17.999 C 18.463 17.999,19.487 17.935,19.777 17.859 C 20.168 17.757,20.394 17.608,20.840 17.160 C 21.271 16.726,21.501 16.399,21.563 16.132 C 21.582 16.048,21.599 14.706,21.599 13.148 C 21.600 10.335,21.599 10.316,21.515 10.148 C 21.128 9.387,20.432 8.761,19.800 8.608 C 19.570 8.553,18.802 8.451,18.350 8.417 L 18.000 8.391 18.000 8.585 " fill="#373B4D" stroke="none" fill-rule="evenodd"></path></svg>