<svg width="24" height="24" viewBox="0 0 24 24" fill="none" xmlns="http://www.w3.org/2000/svg"><path d="M4.980 3.639 C 4.238 3.662,4.162 3.671,3.933 3.768 C 3.272 4.046,2.736 4.621,2.517 5.285 L 2.420 5.580 2.420 8.400 L 2.420 11.220 2.517 11.515 C 2.747 12.212,3.343 12.819,4.045 13.070 C 4.339 13.176,4.343 13.176,5.770 13.191 L 7.200 13.206 7.200 15.013 L 7.200 16.820 9.010 15.012 L 10.820 13.204 12.240 13.190 C 13.657 13.176,13.661 13.176,13.955 13.070 C 14.657 12.819,15.253 12.212,15.483 11.515 L 15.580 11.220 15.580 8.400 L 15.580 5.580 15.483 5.285 C 15.257 4.600,14.650 3.975,13.980 3.738 C 13.826 3.683,13.581 3.660,12.920 3.637 C 11.918 3.602,6.151 3.603,4.980 3.639 M17.988 10.290 C 17.965 12.387,17.955 12.486,17.699 13.105 C 17.493 13.605,17.188 14.043,16.754 14.461 C 16.300 14.898,16.017 15.089,15.526 15.292 C 14.889 15.554,14.779 15.568,13.220 15.588 L 11.820 15.606 10.967 16.453 C 10.498 16.919,10.026 17.402,9.917 17.526 L 9.719 17.752 10.062 17.876 L 10.404 18.000 11.812 18.000 L 13.220 18.000 15.010 19.790 L 16.800 21.580 16.800 19.795 L 16.800 18.009 18.230 17.992 C 19.650 17.974,19.662 17.973,19.955 17.869 C 20.639 17.626,21.156 17.116,21.463 16.380 L 21.580 16.100 21.591 13.283 C 21.602 10.506,21.601 10.461,21.517 10.203 C 21.272 9.443,20.851 8.953,20.167 8.630 C 19.862 8.486,19.793 8.470,19.347 8.438 C 19.079 8.418,18.668 8.402,18.434 8.401 L 18.009 8.400 17.988 10.290 " fill="#373B4D" stroke="none" fill-rule="evenodd"></path></svg>