<svg width="24" height="24" viewBox="0 0 24 24" fill="none" xmlns="http://www.w3.org/2000/svg"><path d="M9.600 3.762 C 4.561 3.793,4.026 3.807,3.780 3.917 C 3.399 4.086,2.866 4.659,2.545 5.243 L 2.400 5.507 2.400 10.831 L 2.400 16.156 2.677 16.571 C 3.155 17.285,3.646 17.713,4.147 17.852 C 4.439 17.934,5.470 18.000,6.450 18.000 L 7.200 18.000 7.200 20.400 L 7.200 22.801 10.200 20.400 L 13.199 18.000 16.495 18.000 L 19.790 18.000 20.143 17.750 C 20.748 17.322,21.248 16.775,21.514 16.252 L 21.600 16.083 21.600 10.795 L 21.600 5.507 21.456 5.243 C 21.184 4.747,20.689 4.218,20.149 3.846 L 19.966 3.720 17.093 3.727 C 15.513 3.731,12.141 3.746,9.600 3.762 M8.400 10.800 L 8.400 12.000 7.200 12.000 L 6.000 12.000 6.000 10.800 L 6.000 9.600 7.200 9.600 L 8.400 9.600 8.400 10.800 M13.200 10.800 L 13.200 12.000 12.000 12.000 L 10.800 12.000 10.800 10.800 L 10.800 9.600 12.000 9.600 L 13.200 9.600 13.200 10.800 M18.000 10.800 L 18.000 12.000 16.800 12.000 L 15.600 12.000 15.600 10.800 L 15.600 9.600 16.800 9.600 L 18.000 9.600 18.000 10.800 " fill="#373B4D" stroke="none" fill-rule="evenodd"></path></svg>