<svg width="24" height="24" viewBox="0 0 24 24" fill="none" xmlns="http://www.w3.org/2000/svg"><path d="M3.995 3.775 C 3.669 3.892,3.197 4.261,2.927 4.611 C 2.832 4.734,2.675 4.990,2.577 5.179 L 2.400 5.523 2.400 10.812 L 2.400 16.100 2.630 16.520 C 2.923 17.055,3.367 17.524,3.760 17.713 C 4.248 17.948,4.375 17.965,5.850 17.989 L 7.200 18.011 7.200 20.406 L 7.200 22.801 10.200 20.400 L 13.199 18.000 16.471 18.000 L 19.743 18.000 20.073 17.810 C 20.726 17.433,21.101 17.047,21.426 16.415 L 21.601 16.075 21.590 10.768 L 21.580 5.460 21.360 5.062 C 21.085 4.565,20.708 4.168,20.259 3.906 L 19.942 3.720 12.041 3.722 C 5.685 3.723,4.112 3.734,3.995 3.775 M8.400 10.800 L 8.400 12.000 7.200 12.000 L 6.000 12.000 6.000 10.800 L 6.000 9.600 7.200 9.600 L 8.400 9.600 8.400 10.800 M13.200 10.800 L 13.200 12.000 12.000 12.000 L 10.800 12.000 10.800 10.800 L 10.800 9.600 12.000 9.600 L 13.200 9.600 13.200 10.800 M18.000 10.800 L 18.000 12.000 16.800 12.000 L 15.600 12.000 15.600 10.800 L 15.600 9.600 16.800 9.600 L 18.000 9.600 18.000 10.800 " fill="#373B4D" stroke="none" fill-rule="evenodd"></path></svg>