<svg width="24" height="24" viewBox="0 0 24 24" fill="none" xmlns="http://www.w3.org/2000/svg"><path d="M4.860 3.678 L 4.100 3.700 3.815 3.852 C 3.207 4.177,2.802 4.630,2.527 5.289 L 2.398 5.598 2.409 8.449 L 2.420 11.300 2.629 11.726 C 2.857 12.193,3.144 12.526,3.560 12.810 C 4.042 13.137,4.439 13.199,6.070 13.200 L 7.200 13.200 7.200 15.010 L 7.200 16.820 9.010 15.014 L 10.820 13.208 12.200 13.187 C 13.694 13.164,13.857 13.143,14.256 12.929 C 14.532 12.781,15.003 12.326,15.221 11.999 C 15.320 11.850,15.446 11.609,15.501 11.461 L 15.602 11.194 15.591 8.347 L 15.580 5.500 15.372 5.076 C 15.139 4.601,14.838 4.253,14.425 3.983 C 14.030 3.724,13.970 3.715,12.420 3.679 C 10.900 3.643,6.086 3.642,4.860 3.678 M17.984 9.825 C 17.936 12.325,17.892 12.704,17.574 13.332 C 17.202 14.069,16.412 14.858,15.705 15.200 C 15.052 15.516,14.454 15.599,12.820 15.600 L 11.819 15.600 10.979 16.450 C 10.517 16.918,10.043 17.401,9.926 17.525 L 9.713 17.750 10.058 17.875 L 10.404 18.000 11.812 18.000 L 13.220 18.000 15.010 19.790 L 16.800 21.580 16.800 19.790 L 16.800 18.000 17.730 17.998 C 19.060 17.995,19.729 17.949,19.993 17.844 C 20.610 17.597,21.111 17.093,21.496 16.330 L 21.602 16.120 21.591 13.210 L 21.580 10.300 21.416 9.960 C 21.116 9.338,20.760 8.962,20.202 8.681 C 19.876 8.516,19.518 8.455,18.676 8.419 L 18.012 8.391 17.984 9.825 " fill="#373B4D" stroke="none" fill-rule="evenodd"></path></svg>