<svg width="24" height="24" viewBox="0 0 24 24" fill="none" xmlns="http://www.w3.org/2000/svg"><path d="M4.176 3.753 C 3.820 3.802,3.248 4.266,2.786 4.881 C 2.383 5.417,2.422 5.054,2.409 8.411 L 2.398 11.363 2.647 11.731 C 3.019 12.281,3.515 12.764,3.883 12.936 C 4.276 13.120,4.612 13.159,6.050 13.188 L 7.200 13.212 7.200 15.016 L 7.200 16.820 9.010 15.010 L 10.820 13.200 11.500 13.199 C 12.351 13.197,13.391 13.139,13.680 13.078 C 14.264 12.954,14.972 12.367,15.390 11.660 L 15.600 11.305 15.600 8.411 C 15.600 5.534,15.599 5.516,15.515 5.348 C 15.290 4.906,14.697 4.250,14.241 3.938 L 13.972 3.754 9.176 3.740 C 6.538 3.732,4.288 3.738,4.176 3.753 M17.984 9.066 C 17.896 11.230,17.825 12.269,17.737 12.694 C 17.600 13.350,17.015 14.181,16.271 14.779 C 15.487 15.408,14.939 15.538,12.860 15.586 L 11.820 15.610 11.686 15.735 C 11.613 15.804,11.140 16.286,10.636 16.806 L 9.718 17.752 10.061 17.876 L 10.404 18.000 11.812 18.000 L 13.220 18.000 15.010 19.790 L 16.800 21.580 16.800 19.790 L 16.800 18.000 17.570 18.000 C 17.994 17.999,18.592 17.981,18.900 17.960 C 20.001 17.882,20.153 17.817,20.843 17.124 C 21.217 16.749,21.376 16.558,21.463 16.380 L 21.580 16.140 21.580 13.200 C 21.580 10.390,21.577 10.254,21.504 10.120 C 21.104 9.381,20.421 8.774,19.820 8.623 C 19.577 8.562,18.873 8.466,18.316 8.418 L 18.011 8.392 17.984 9.066 " fill="#373B4D" stroke="none" fill-rule="evenodd"></path></svg>