<svg width="24" height="24" viewBox="0 0 24 24" fill="none" xmlns="http://www.w3.org/2000/svg"><path d="M4.700 3.758 C 3.839 3.783,3.873 3.772,3.352 4.187 C 3.062 4.417,2.822 4.726,2.564 5.200 L 2.401 5.500 2.401 10.808 L 2.400 16.116 2.597 16.459 C 2.836 16.875,3.139 17.261,3.369 17.446 C 3.963 17.922,4.351 17.996,6.270 17.999 L 7.200 18.000 7.200 20.400 L 7.200 22.801 10.200 20.400 L 13.199 18.000 16.480 18.000 L 19.761 18.000 20.130 17.773 C 20.736 17.400,21.182 16.916,21.495 16.291 L 21.600 16.083 21.600 10.800 L 21.600 5.517 21.495 5.309 C 21.197 4.714,20.752 4.215,20.242 3.903 L 19.944 3.720 12.702 3.728 C 8.719 3.732,5.118 3.746,4.700 3.758 M8.400 10.800 L 8.400 12.000 7.200 12.000 L 6.000 12.000 6.000 10.800 L 6.000 9.600 7.200 9.600 L 8.400 9.600 8.400 10.800 M13.200 10.800 L 13.200 12.000 12.000 12.000 L 10.800 12.000 10.800 10.800 L 10.800 9.600 12.000 9.600 L 13.200 9.600 13.200 10.800 M18.000 10.800 L 18.000 12.000 16.800 12.000 L 15.600 12.000 15.600 10.800 L 15.600 9.600 16.800 9.600 L 18.000 9.600 18.000 10.800 " fill="#373B4D" stroke="none" fill-rule="evenodd"></path></svg>