<svg width="24" height="24" viewBox="0 0 24 24" fill="none" xmlns="http://www.w3.org/2000/svg"><path d="M5.740 3.718 L 4.060 3.740 3.821 3.878 C 3.360 4.144,2.764 4.792,2.505 5.309 L 2.400 5.517 2.400 8.428 L 2.400 11.338 2.547 11.579 C 3.080 12.449,3.615 12.930,4.210 13.075 C 4.467 13.137,5.580 13.199,6.470 13.199 L 7.200 13.200 7.200 15.010 L 7.200 16.820 9.010 15.014 L 10.820 13.208 12.000 13.185 C 13.458 13.157,13.725 13.125,14.116 12.934 C 14.604 12.696,15.207 12.065,15.495 11.491 L 15.600 11.283 15.600 8.391 L 15.600 5.500 15.410 5.160 C 15.183 4.753,14.590 4.130,14.220 3.910 L 13.980 3.767 11.120 3.723 C 9.547 3.699,8.071 3.683,7.840 3.687 C 7.609 3.692,6.664 3.705,5.740 3.718 M17.985 9.145 C 17.902 11.442,17.838 12.366,17.735 12.780 C 17.598 13.327,17.209 13.913,16.586 14.508 C 15.770 15.289,15.280 15.473,13.787 15.559 C 13.409 15.581,12.812 15.599,12.460 15.599 L 11.819 15.600 11.199 16.230 C 10.859 16.577,10.384 17.060,10.146 17.305 L 9.712 17.749 10.058 17.875 L 10.404 18.000 11.812 18.000 L 13.220 18.000 15.010 19.790 L 16.800 21.580 16.800 19.796 L 16.800 18.013 18.050 17.986 C 19.438 17.957,19.773 17.916,20.142 17.728 C 20.627 17.481,21.232 16.848,21.515 16.292 C 21.599 16.124,21.600 16.106,21.600 13.212 L 21.600 10.300 21.410 9.963 C 21.068 9.358,20.511 8.848,19.979 8.655 C 19.734 8.567,19.046 8.464,18.376 8.416 L 18.012 8.389 17.985 9.145 " fill="#373B4D" stroke="none" fill-rule="evenodd"></path></svg>