<svg width="24" height="24" viewBox="0 0 24 24" fill="none" xmlns="http://www.w3.org/2000/svg"><path d="M8.800 3.763 C 5.774 3.782,4.181 3.807,4.022 3.836 C 3.767 3.883,3.611 3.971,3.311 4.237 C 3.074 4.447,2.673 4.977,2.518 5.284 L 2.400 5.518 2.400 10.828 L 2.400 16.138 2.547 16.379 C 3.080 17.249,3.615 17.730,4.210 17.875 C 4.467 17.937,5.580 17.999,6.470 17.999 L 7.200 18.000 7.200 20.400 L 7.200 22.801 10.200 20.400 L 13.199 18.000 16.492 18.000 L 19.785 18.000 20.093 17.788 C 20.713 17.362,21.165 16.888,21.456 16.357 L 21.600 16.093 21.600 10.805 L 21.600 5.517 21.495 5.309 C 21.247 4.815,20.776 4.291,20.235 3.908 L 19.970 3.720 16.655 3.727 C 14.832 3.731,11.297 3.747,8.800 3.763 M8.400 10.800 L 8.400 12.000 7.200 12.000 L 6.000 12.000 6.000 10.800 L 6.000 9.600 7.200 9.600 L 8.400 9.600 8.400 10.800 M13.200 10.800 L 13.200 12.000 12.000 12.000 L 10.800 12.000 10.800 10.800 L 10.800 9.600 12.000 9.600 L 13.200 9.600 13.200 10.800 M18.000 10.800 L 18.000 12.000 16.800 12.000 L 15.600 12.000 15.600 10.800 L 15.600 9.600 16.800 9.600 L 18.000 9.600 18.000 10.800 " fill="#373B4D" stroke="none" fill-rule="evenodd"></path></svg>