<svg width="24" height="24" viewBox="0 0 24 24" fill="none" xmlns="http://www.w3.org/2000/svg"><path d="M18.811 6.148 C 18.633 6.171,17.992 6.784,13.406 11.320 L 9.593 15.092 8.686 14.194 C 7.424 12.943,6.473 12.025,5.840 11.444 L 5.300 10.949 4.835 10.971 C 4.333 10.994,4.275 11.012,4.033 11.231 C 3.660 11.568,3.561 12.035,3.779 12.433 C 3.971 12.784,7.858 16.749,8.772 17.527 C 9.159 17.857,9.316 17.933,9.605 17.933 C 9.893 17.933,10.051 17.842,10.580 17.370 C 11.815 16.267,19.682 8.376,20.026 7.893 C 20.258 7.569,20.337 7.334,20.308 7.054 C 20.266 6.651,19.960 6.303,19.561 6.203 C 19.377 6.157,18.974 6.128,18.811 6.148 " fill="#373B4D" stroke="none" fill-rule="evenodd"></path></svg>