<svg width="24" height="24" viewBox="0 0 24 24" fill="none" xmlns="http://www.w3.org/2000/svg"><path d="M17.680 7.089 C 17.097 7.649,15.040 9.679,13.110 11.598 L 9.600 15.088 8.150 13.658 C 6.579 12.108,5.649 11.225,5.392 11.038 C 5.237 10.926,5.207 10.920,4.833 10.920 C 4.360 10.920,4.248 10.961,3.992 11.226 C 3.621 11.609,3.529 12.046,3.737 12.428 C 3.905 12.736,4.550 13.420,6.525 15.386 C 8.967 17.816,9.163 17.981,9.600 17.979 C 10.039 17.976,10.085 17.936,13.718 14.356 C 16.512 11.603,19.615 8.455,19.985 7.997 C 20.335 7.565,20.426 7.259,20.320 6.879 C 20.184 6.387,19.812 6.140,19.140 6.096 L 18.739 6.070 17.680 7.089 " fill="#373B4D" stroke="none" fill-rule="evenodd"></path></svg>