<svg width="24" height="24" viewBox="0 0 24 24" fill="none" xmlns="http://www.w3.org/2000/svg"><path d="M18.340 6.509 C 17.830 6.965,16.076 8.680,12.462 12.257 L 9.595 15.095 8.748 14.255 C 7.634 13.153,6.594 12.146,5.886 11.485 L 5.312 10.949 4.906 10.976 C 4.347 11.014,4.235 11.051,4.008 11.272 C 3.698 11.574,3.598 11.998,3.755 12.340 C 3.796 12.428,3.970 12.661,4.142 12.857 C 5.004 13.840,8.624 17.449,9.011 17.712 C 9.355 17.946,9.663 17.981,9.982 17.821 C 10.091 17.766,10.378 17.546,10.620 17.332 C 11.207 16.812,18.885 9.137,19.550 8.405 C 20.178 7.714,20.290 7.529,20.290 7.185 C 20.290 6.553,19.890 6.206,19.120 6.170 L 18.740 6.152 18.340 6.509 " fill="#373B4D" stroke="none" fill-rule="evenodd"></path></svg>