<svg width="24" height="24" viewBox="0 0 24 24" fill="none" xmlns="http://www.w3.org/2000/svg"><path d="M10.460 2.556 C 8.397 2.940,6.796 3.749,5.385 5.120 C 4.496 5.984,3.882 6.821,3.377 7.860 C 2.066 10.554,2.096 13.601,3.462 16.323 C 4.177 17.749,5.334 19.053,6.680 19.949 C 7.607 20.566,8.758 21.065,9.980 21.380 C 10.692 21.563,12.698 21.607,13.602 21.459 C 14.327 21.340,15.373 20.991,16.183 20.597 C 17.678 19.870,19.020 18.714,19.908 17.388 C 20.322 16.768,20.870 15.645,21.111 14.919 C 21.413 14.007,21.475 13.692,21.529 12.787 C 21.595 11.660,21.531 10.569,21.360 9.900 C 21.053 8.702,20.624 7.713,19.996 6.757 C 18.554 4.560,16.139 2.990,13.567 2.575 C 13.303 2.532,12.811 2.507,12.020 2.497 C 11.015 2.484,10.807 2.492,10.460 2.556 M16.100 8.577 C 16.301 8.661,16.503 8.853,16.610 9.060 C 16.676 9.189,16.693 9.299,16.696 9.623 L 16.700 10.026 16.465 10.314 C 15.848 11.069,11.964 14.944,11.411 15.357 C 11.059 15.619,10.614 15.646,10.281 15.425 C 9.716 15.050,7.578 12.902,7.370 12.501 C 7.286 12.338,7.259 11.894,7.319 11.644 C 7.379 11.396,7.640 11.086,7.894 10.963 C 8.130 10.848,8.626 10.847,8.859 10.960 C 9.091 11.072,9.443 11.372,10.170 12.077 L 10.800 12.688 12.510 10.998 C 14.188 9.339,14.861 8.704,15.100 8.551 C 15.202 8.486,15.275 8.477,15.580 8.492 C 15.790 8.502,16.006 8.537,16.100 8.577 " fill="#373B4D" stroke="none" fill-rule="evenodd"></path></svg>