<svg width="24" height="24" viewBox="0 0 24 24" fill="none" xmlns="http://www.w3.org/2000/svg"><path d="M18.956 6.040 C 18.855 6.057,18.716 6.101,18.646 6.137 C 18.577 6.173,16.513 8.202,14.059 10.647 L 9.598 15.093 7.709 13.215 C 6.670 12.182,5.721 11.254,5.600 11.154 C 5.272 10.880,5.171 10.840,4.808 10.840 C 4.536 10.840,4.459 10.857,4.245 10.964 C 3.703 11.235,3.461 11.894,3.697 12.458 C 3.777 12.650,4.660 13.571,6.805 15.701 C 8.686 17.568,9.015 17.867,9.276 17.954 C 9.599 18.063,9.960 17.988,10.280 17.746 C 10.541 17.549,18.052 10.076,19.359 8.713 C 20.194 7.842,20.273 7.748,20.339 7.539 C 20.604 6.696,19.857 5.886,18.956 6.040 " fill="#373B4D" stroke="none" fill-rule="evenodd"></path></svg>