<svg width="24" height="24" viewBox="0 0 24 24" fill="none" xmlns="http://www.w3.org/2000/svg"><path d="M18.873 6.122 C 18.793 6.135,18.683 6.175,18.630 6.210 C 18.481 6.308,17.192 7.568,13.228 11.496 L 9.595 15.094 8.628 14.135 C 7.332 12.850,6.288 11.842,5.750 11.358 L 5.308 10.960 4.866 10.960 C 4.502 10.960,4.395 10.974,4.254 11.043 C 3.951 11.190,3.695 11.561,3.654 11.913 C 3.615 12.247,3.741 12.484,4.252 13.046 C 4.819 13.670,7.543 16.394,8.360 17.156 C 9.172 17.911,9.217 17.940,9.582 17.940 C 9.850 17.940,9.885 17.929,10.091 17.788 C 10.213 17.704,10.642 17.327,11.046 16.950 C 12.014 16.046,19.283 8.777,19.746 8.250 C 20.181 7.756,20.335 7.472,20.337 7.159 C 20.340 6.711,20.032 6.317,19.582 6.195 C 19.326 6.125,19.033 6.095,18.873 6.122 " fill="#373B4D" stroke="none" fill-rule="evenodd"></path></svg>