<svg width="24" height="24" viewBox="0 0 24 24" fill="none" xmlns="http://www.w3.org/2000/svg"><path d="M18.378 6.472 C 17.920 6.872,16.783 7.983,12.808 11.916 L 9.595 15.095 8.728 14.235 C 7.526 13.045,6.520 12.073,5.863 11.465 L 5.306 10.949 4.843 10.977 C 4.456 11.000,4.353 11.020,4.214 11.101 C 3.758 11.368,3.551 11.949,3.759 12.377 C 3.802 12.467,4.121 12.846,4.467 13.220 C 5.358 14.184,8.480 17.297,8.847 17.588 C 9.206 17.873,9.365 17.935,9.675 17.913 C 9.946 17.893,10.084 17.807,10.663 17.295 C 11.190 16.828,17.150 10.892,18.760 9.230 C 20.205 7.738,20.299 7.611,20.298 7.160 C 20.297 6.849,20.204 6.645,19.965 6.430 C 19.761 6.245,19.476 6.160,19.061 6.160 L 18.737 6.160 18.378 6.472 " fill="#373B4D" stroke="none" fill-rule="evenodd"></path></svg>