<svg width="24" height="24" viewBox="0 0 24 24" fill="none" xmlns="http://www.w3.org/2000/svg"><path d="M17.840 6.930 C 17.345 7.401,15.288 9.430,13.270 11.438 L 9.600 15.088 8.050 13.558 C 6.389 11.917,5.493 11.073,5.300 10.966 C 5.212 10.918,5.079 10.900,4.800 10.900 C 4.361 10.900,4.251 10.944,3.979 11.224 C 3.626 11.586,3.525 12.028,3.709 12.400 C 3.852 12.688,4.463 13.344,6.300 15.180 C 9.038 17.918,9.270 18.103,9.783 17.965 C 10.162 17.863,10.298 17.737,14.020 14.060 C 16.790 11.324,19.458 8.619,19.936 8.060 C 20.270 7.670,20.358 7.491,20.359 7.197 C 20.361 6.749,20.157 6.403,19.785 6.221 C 19.611 6.136,19.494 6.112,19.156 6.094 L 18.740 6.072 17.840 6.930 " fill="#373B4D" stroke="none" fill-rule="evenodd"></path></svg>