<svg width="24" height="24" viewBox="0 0 24 24" fill="none" xmlns="http://www.w3.org/2000/svg"><path d="M10.800 2.602 C 9.953 2.652,9.188 2.852,8.279 3.261 C 6.771 3.938,5.535 4.887,4.488 6.170 C 3.517 7.359,2.767 9.091,2.533 10.680 C 2.428 11.395,2.439 12.868,2.554 13.500 C 2.856 15.155,3.599 16.799,4.565 17.948 C 4.922 18.373,5.698 19.144,6.080 19.452 C 6.934 20.141,8.561 20.975,9.600 21.255 C 10.436 21.481,10.632 21.500,12.100 21.497 L 13.460 21.494 14.014 21.346 C 15.888 20.845,17.402 20.015,18.653 18.802 C 19.696 17.790,20.318 16.838,20.913 15.340 C 21.339 14.268,21.411 13.950,21.483 12.820 C 21.537 11.953,21.512 10.911,21.423 10.380 C 21.183 8.955,20.388 7.240,19.397 6.013 C 18.128 4.440,15.991 3.130,14.061 2.740 C 13.262 2.578,12.060 2.527,10.800 2.602 M16.142 8.683 C 16.440 8.836,16.546 9.019,16.627 9.511 C 16.688 9.886,16.688 9.934,16.631 10.054 C 16.542 10.240,14.967 11.868,13.368 13.425 C 11.365 15.377,11.192 15.517,10.798 15.519 C 10.546 15.520,10.286 15.381,9.836 15.004 C 9.414 14.651,8.158 13.387,7.748 12.904 C 7.459 12.563,7.421 12.472,7.354 11.973 C 7.313 11.665,7.315 11.637,7.398 11.504 C 7.446 11.426,7.566 11.291,7.666 11.203 C 7.877 11.018,8.167 10.939,8.522 10.971 C 8.926 11.007,9.197 11.194,10.211 12.137 L 10.802 12.687 12.351 11.171 C 14.198 9.364,14.757 8.832,14.976 8.672 C 15.136 8.555,15.149 8.553,15.542 8.567 C 15.877 8.579,15.978 8.599,16.142 8.683 " fill="#373B4D" stroke="none" fill-rule="evenodd"></path></svg>