<svg width="24" height="24" viewBox="0 0 24 24" fill="none" xmlns="http://www.w3.org/2000/svg"><path d="M10.960 2.483 C 10.529 2.522,9.753 2.687,9.175 2.863 C 7.694 3.311,6.417 4.074,5.312 5.171 C 3.805 6.665,2.893 8.403,2.543 10.445 C 2.150 12.732,2.671 15.225,3.947 17.178 C 5.248 19.167,7.063 20.510,9.409 21.217 C 10.384 21.511,10.564 21.534,11.920 21.537 C 13.206 21.540,13.437 21.520,14.160 21.339 C 16.336 20.794,18.255 19.563,19.560 17.875 C 20.466 16.703,21.204 15.049,21.468 13.600 C 21.571 13.039,21.571 10.898,21.468 10.380 C 20.876 7.391,19.104 4.964,16.480 3.550 C 15.484 3.013,14.237 2.625,13.173 2.522 C 12.619 2.469,11.364 2.446,10.960 2.483 M15.960 8.525 C 16.216 8.581,16.490 8.794,16.605 9.027 C 16.680 9.180,16.703 9.299,16.713 9.600 C 16.726 9.967,16.723 9.985,16.608 10.143 C 16.376 10.462,15.518 11.362,13.880 13.004 C 12.166 14.721,11.496 15.347,11.220 15.489 C 10.970 15.618,10.596 15.607,10.333 15.463 C 10.064 15.317,8.822 14.151,8.090 13.358 C 7.306 12.509,7.303 12.504,7.286 12.103 C 7.279 11.924,7.293 11.702,7.317 11.610 C 7.381 11.374,7.585 11.128,7.832 10.989 C 8.016 10.886,8.087 10.869,8.372 10.865 C 8.870 10.858,9.019 10.959,10.203 12.109 L 10.805 12.694 12.153 11.355 C 14.585 8.937,15.022 8.532,15.250 8.481 C 15.396 8.448,15.691 8.466,15.960 8.525 " fill="#373B4D" stroke="none" fill-rule="evenodd"></path></svg>