<svg width="24" height="24" viewBox="0 0 24 24" fill="none" xmlns="http://www.w3.org/2000/svg"><path d="M17.492 7.274 C 16.814 7.931,14.760 9.959,12.927 11.781 L 9.594 15.094 8.567 14.073 C 7.140 12.655,5.871 11.435,5.543 11.167 L 5.267 10.940 4.921 10.926 C 4.475 10.909,4.277 10.964,4.054 11.170 C 3.801 11.403,3.677 11.633,3.651 11.914 C 3.622 12.231,3.682 12.388,3.972 12.753 C 4.260 13.115,8.234 17.104,8.700 17.497 C 9.167 17.892,9.322 17.973,9.603 17.973 C 10.032 17.973,10.158 17.862,13.940 14.132 C 16.719 11.391,19.698 8.360,20.013 7.953 C 20.346 7.522,20.425 7.216,20.300 6.841 C 20.166 6.437,19.853 6.205,19.332 6.125 C 18.717 6.029,18.883 5.925,17.492 7.274 " fill="#373B4D" stroke="none" fill-rule="evenodd"></path></svg>