<svg width="24" height="24" viewBox="0 0 24 24" fill="none" xmlns="http://www.w3.org/2000/svg"><path d="M18.700 6.174 C 18.555 6.241,17.169 7.591,12.863 11.857 L 9.595 15.095 8.668 14.175 C 7.378 12.896,6.387 11.940,5.800 11.406 L 5.301 10.952 4.837 10.966 C 4.404 10.979,4.361 10.988,4.180 11.100 C 3.804 11.334,3.571 11.849,3.678 12.210 C 3.706 12.303,3.811 12.497,3.912 12.640 C 4.109 12.921,7.450 16.306,8.400 17.189 C 9.127 17.864,9.250 17.941,9.606 17.938 C 9.926 17.935,9.991 17.897,10.600 17.355 C 11.646 16.424,19.387 8.686,19.914 8.045 C 20.207 7.689,20.319 7.441,20.320 7.150 C 20.320 6.728,20.057 6.364,19.645 6.219 C 19.386 6.128,18.853 6.102,18.700 6.174 " fill="#373B4D" stroke="none" fill-rule="evenodd"></path></svg>