<svg width="24" height="24" viewBox="0 0 24 24" fill="none" xmlns="http://www.w3.org/2000/svg"><path d="M10.760 2.522 C 10.374 2.561,9.778 2.692,9.213 2.863 C 7.699 3.321,6.431 4.086,5.278 5.239 C 4.146 6.370,3.447 7.473,2.937 8.932 C 2.589 9.928,2.429 10.874,2.427 11.940 C 2.425 12.966,2.541 13.773,2.827 14.720 C 3.603 17.286,5.348 19.360,7.722 20.537 C 8.525 20.935,9.507 21.288,10.181 21.420 C 10.954 21.572,12.804 21.593,13.592 21.458 C 14.060 21.378,14.717 21.191,15.300 20.971 C 17.069 20.304,18.595 19.166,19.682 17.700 C 20.542 16.540,21.320 14.686,21.487 13.400 C 21.553 12.883,21.554 11.041,21.487 10.580 C 21.355 9.662,20.930 8.407,20.452 7.520 C 19.135 5.077,16.774 3.289,14.060 2.676 C 13.604 2.573,13.417 2.554,12.540 2.521 C 11.413 2.478,11.186 2.478,10.760 2.522 M16.042 8.561 C 16.235 8.612,16.495 8.843,16.596 9.053 C 16.665 9.194,16.680 9.301,16.680 9.644 L 16.680 10.063 16.353 10.442 C 15.941 10.917,12.960 13.923,12.088 14.743 C 11.681 15.124,11.358 15.394,11.230 15.458 C 10.969 15.587,10.636 15.596,10.390 15.480 C 9.947 15.272,7.590 12.931,7.374 12.486 C 7.286 12.303,7.275 11.673,7.358 11.520 C 7.469 11.313,7.654 11.115,7.834 11.009 C 8.000 10.912,8.059 10.900,8.380 10.900 C 8.671 10.901,8.770 10.917,8.900 10.986 C 9.117 11.103,9.581 11.504,10.246 12.151 L 10.799 12.689 12.390 11.118 C 14.162 9.367,14.961 8.616,15.140 8.533 C 15.269 8.474,15.773 8.489,16.042 8.561 " fill="#373B4D" stroke="none" fill-rule="evenodd"></path></svg>