<svg width="24" height="24" viewBox="0 0 24 24" fill="none" xmlns="http://www.w3.org/2000/svg"><path d="M10.289 2.625 C 9.884 2.688,9.108 2.900,8.687 3.064 C 7.846 3.390,6.714 4.042,6.040 4.589 C 5.622 4.928,4.580 5.998,4.311 6.365 C 3.488 7.486,2.931 8.746,2.599 10.240 C 2.430 11.002,2.402 12.647,2.544 13.480 C 2.754 14.707,3.342 16.217,3.993 17.200 C 4.677 18.233,5.842 19.378,6.866 20.023 C 7.315 20.306,8.462 20.870,8.970 21.057 C 9.925 21.410,10.747 21.536,12.080 21.534 C 12.901 21.533,13.134 21.519,13.520 21.448 C 15.715 21.046,17.863 19.828,19.258 18.196 C 20.031 17.291,20.567 16.333,21.060 14.972 C 21.389 14.066,21.440 13.808,21.485 12.820 C 21.527 11.881,21.505 10.799,21.433 10.340 C 21.294 9.444,20.679 7.897,20.099 6.980 C 19.148 5.480,17.896 4.341,16.320 3.543 C 15.235 2.994,14.306 2.706,13.286 2.602 C 12.677 2.540,10.743 2.555,10.289 2.625 M15.718 8.562 C 16.095 8.609,16.164 8.637,16.353 8.815 C 16.543 8.993,16.590 9.104,16.638 9.483 C 16.719 10.133,16.832 9.953,15.498 11.312 C 13.944 12.896,11.710 15.068,11.405 15.293 C 10.812 15.730,10.481 15.627,9.467 14.692 C 8.857 14.128,7.737 12.949,7.537 12.659 C 7.410 12.474,7.391 12.409,7.351 12.049 L 7.308 11.646 7.436 11.446 C 7.671 11.081,7.945 10.938,8.400 10.944 C 8.894 10.951,9.074 11.069,10.203 12.127 L 10.807 12.693 11.813 11.695 C 13.220 10.301,14.144 9.406,14.669 8.928 C 15.171 8.471,15.124 8.488,15.718 8.562 " fill="#373B4D" stroke="none" fill-rule="evenodd"></path></svg>