<svg width="24" height="24" viewBox="0 0 24 24" fill="none" xmlns="http://www.w3.org/2000/svg"><path d="M18.723 6.147 C 18.537 6.242,17.837 6.923,13.410 11.311 L 9.599 15.087 8.270 13.778 C 6.847 12.376,5.781 11.359,5.463 11.100 L 5.267 10.940 4.844 10.941 C 4.341 10.942,4.186 11.004,3.924 11.309 C 3.579 11.708,3.554 12.157,3.851 12.593 C 4.164 13.054,8.574 17.448,9.055 17.779 C 9.258 17.918,9.320 17.940,9.553 17.952 C 10.020 17.978,9.985 18.008,13.460 14.597 C 15.764 12.336,19.448 8.608,19.917 8.064 C 20.151 7.792,20.317 7.476,20.348 7.246 C 20.362 7.147,20.342 6.999,20.296 6.854 C 20.193 6.526,19.971 6.311,19.623 6.204 C 19.229 6.082,18.892 6.061,18.723 6.147 " fill="#373B4D" stroke="none" fill-rule="evenodd"></path></svg>