<svg width="24" height="24" viewBox="0 0 24 24" fill="none" xmlns="http://www.w3.org/2000/svg"><path d="M18.436 6.366 C 17.979 6.767,16.108 8.608,12.573 12.134 L 9.606 15.094 7.993 13.501 C 6.124 11.654,5.438 11.012,5.254 10.935 C 5.098 10.870,4.603 10.863,4.385 10.923 C 4.286 10.951,4.148 11.048,4.000 11.193 C 3.598 11.589,3.501 12.056,3.737 12.458 C 3.918 12.768,4.512 13.398,6.357 15.241 C 8.938 17.819,9.201 18.039,9.641 17.987 C 9.926 17.954,10.076 17.870,10.471 17.525 C 11.332 16.774,18.566 9.567,19.696 8.335 C 19.973 8.034,20.238 7.706,20.286 7.607 C 20.467 7.233,20.345 6.643,20.033 6.380 C 19.775 6.163,19.606 6.105,19.175 6.088 L 18.770 6.071 18.436 6.366 " fill="#373B4D" stroke="none" fill-rule="evenodd"></path></svg>