<svg width="24" height="24" viewBox="0 0 24 24" fill="none" xmlns="http://www.w3.org/2000/svg"><path d="M10.380 2.584 C 9.146 2.805,7.814 3.332,6.818 3.994 C 5.607 4.798,4.441 6.012,3.731 7.210 C 3.095 8.282,2.595 9.799,2.477 11.017 C 2.416 11.644,2.450 13.022,2.538 13.500 C 2.834 15.098,3.464 16.562,4.384 17.783 C 4.692 18.193,5.413 18.941,5.860 19.314 C 6.955 20.230,8.796 21.132,10.113 21.398 C 10.966 21.570,12.647 21.601,13.520 21.460 C 14.869 21.242,16.569 20.504,17.751 19.625 C 18.512 19.058,19.458 18.066,19.930 17.340 C 20.536 16.406,21.175 14.903,21.408 13.860 C 21.477 13.553,21.492 13.309,21.509 12.193 C 21.531 10.702,21.515 10.522,21.278 9.660 C 20.383 6.398,18.040 3.934,14.858 2.907 C 14.259 2.714,13.727 2.612,13.060 2.562 C 12.253 2.502,10.772 2.514,10.380 2.584 M16.213 8.667 C 16.581 8.927,16.673 9.145,16.678 9.767 L 16.680 10.074 16.295 10.501 C 15.774 11.077,12.120 14.729,11.731 15.062 C 11.318 15.414,11.129 15.521,10.867 15.548 C 10.471 15.589,10.183 15.402,9.237 14.491 C 8.600 13.878,7.580 12.790,7.451 12.586 C 7.366 12.451,7.348 12.364,7.330 12.017 C 7.311 11.647,7.317 11.594,7.395 11.469 C 7.502 11.294,7.808 11.010,7.943 10.959 C 8.107 10.897,8.709 10.911,8.856 10.981 C 9.067 11.081,9.502 11.447,10.173 12.088 L 10.807 12.693 11.913 11.594 C 13.430 10.089,14.353 9.197,14.780 8.824 L 15.140 8.510 15.597 8.532 C 16.015 8.552,16.066 8.564,16.213 8.667 " fill="#373B4D" stroke="none" fill-rule="evenodd"></path></svg>