<svg width="24" height="24" viewBox="0 0 24 24" fill="none" xmlns="http://www.w3.org/2000/svg"><path d="M10.660 2.601 C 9.835 2.654,8.901 2.934,7.932 3.419 C 6.915 3.928,6.190 4.422,5.524 5.059 C 4.210 6.315,3.506 7.395,2.955 8.996 C 2.612 9.992,2.499 10.606,2.456 11.693 C 2.402 13.057,2.604 14.186,3.137 15.514 C 3.660 16.813,4.230 17.672,5.239 18.681 C 6.113 19.556,6.684 19.967,7.781 20.513 C 8.654 20.948,9.091 21.124,9.682 21.279 C 10.454 21.481,11.004 21.530,12.289 21.509 C 13.385 21.492,13.435 21.487,13.920 21.369 C 16.834 20.654,19.188 18.870,20.433 16.434 C 20.676 15.959,21.082 14.964,21.239 14.460 C 21.392 13.967,21.438 13.640,21.487 12.712 C 21.590 10.728,21.434 9.797,20.732 8.201 C 19.765 6.002,18.098 4.338,15.838 3.317 C 14.934 2.909,14.057 2.676,13.140 2.601 C 12.607 2.557,11.338 2.557,10.660 2.601 M15.963 8.605 C 16.183 8.652,16.414 8.832,16.521 9.041 C 16.564 9.126,16.619 9.363,16.645 9.573 L 16.692 9.953 16.580 10.146 C 16.509 10.268,15.770 11.037,14.584 12.221 C 12.390 14.412,11.498 15.255,11.204 15.415 C 10.789 15.639,10.480 15.551,9.852 15.027 C 9.179 14.466,7.631 12.854,7.477 12.553 C 7.435 12.472,7.380 12.234,7.354 12.024 L 7.308 11.643 7.418 11.475 C 7.674 11.089,7.912 10.962,8.382 10.961 C 8.894 10.959,9.080 11.079,10.216 12.141 L 10.800 12.687 12.430 11.089 C 14.300 9.256,14.926 8.668,15.098 8.580 C 15.227 8.514,15.582 8.524,15.963 8.605 " fill="#373B4D" stroke="none" fill-rule="evenodd"></path></svg>