<svg width="24" height="24" viewBox="0 0 24 24" fill="none" xmlns="http://www.w3.org/2000/svg"><path d="M10.160 5.059 C 9.349 5.749,4.548 10.544,3.975 11.235 C 3.704 11.563,3.640 11.703,3.640 11.966 C 3.641 12.419,3.780 12.598,5.530 14.400 C 7.581 16.512,10.115 18.959,10.380 19.083 C 10.743 19.253,11.256 19.147,11.565 18.839 C 11.813 18.591,11.926 18.360,11.951 18.053 C 11.968 17.840,11.955 17.771,11.867 17.590 C 11.726 17.303,11.009 16.540,8.540 14.047 L 6.506 11.994 8.046 10.447 C 10.931 7.550,11.740 6.693,11.884 6.380 C 11.970 6.195,11.981 5.900,11.912 5.668 C 11.854 5.474,11.476 5.051,11.292 4.974 C 11.222 4.945,10.988 4.910,10.772 4.896 L 10.380 4.872 10.160 5.059 M17.360 5.059 C 16.541 5.757,11.742 10.549,11.175 11.235 C 10.904 11.564,10.840 11.703,10.840 11.966 C 10.841 12.419,10.980 12.598,12.730 14.400 C 14.781 16.512,17.315 18.959,17.580 19.083 C 17.943 19.253,18.456 19.147,18.765 18.839 C 19.013 18.591,19.126 18.360,19.151 18.053 C 19.168 17.840,19.155 17.771,19.067 17.590 C 18.926 17.303,18.209 16.540,15.740 14.047 L 13.706 11.994 15.246 10.447 C 18.131 7.550,18.940 6.693,19.084 6.380 C 19.170 6.195,19.181 5.900,19.112 5.668 C 19.054 5.474,18.676 5.051,18.492 4.974 C 18.422 4.945,18.188 4.910,17.972 4.896 L 17.580 4.872 17.360 5.059 " fill="#373B4D" stroke="none" fill-rule="evenodd"></path></svg>