<svg width="24" height="24" viewBox="0 0 24 24" fill="none" xmlns="http://www.w3.org/2000/svg"><path d="M9.260 6.110 C 9.014 6.144,8.560 6.590,8.481 6.875 C 8.415 7.113,8.432 7.388,8.525 7.572 C 8.715 7.949,9.257 8.537,11.434 10.727 L 12.694 11.994 11.160 13.547 C 9.469 15.259,8.823 15.950,8.605 16.277 C 8.470 16.478,8.460 16.514,8.461 16.797 C 8.462 17.032,8.482 17.138,8.551 17.269 C 8.756 17.657,9.161 17.920,9.600 17.950 C 9.849 17.967,9.871 17.961,10.100 17.810 C 10.232 17.723,10.574 17.436,10.860 17.172 C 11.706 16.389,15.046 13.004,15.268 12.703 C 15.505 12.383,15.581 12.161,15.547 11.879 C 15.511 11.576,15.435 11.454,14.934 10.903 C 13.980 9.853,10.702 6.630,10.269 6.317 C 10.045 6.154,9.599 6.062,9.260 6.110 " fill="#373B4D" stroke="none" fill-rule="evenodd"></path></svg>