<svg width="24" height="24" viewBox="0 0 24 24" fill="none" xmlns="http://www.w3.org/2000/svg"><path d="M10.367 4.947 C 10.174 5.042,9.025 6.140,7.003 8.163 C 4.904 10.262,3.991 11.226,3.803 11.539 C 3.563 11.939,3.615 12.202,4.050 12.779 C 4.452 13.314,8.298 17.204,9.567 18.360 C 10.358 19.081,10.576 19.201,10.937 19.118 C 11.458 18.998,11.859 18.573,11.942 18.054 C 12.011 17.626,11.775 17.349,8.471 13.990 L 6.513 12.000 8.511 9.970 C 10.669 7.777,11.239 7.180,11.603 6.729 C 12.032 6.198,12.050 5.832,11.671 5.349 C 11.511 5.147,11.265 5.010,10.935 4.940 C 10.588 4.866,10.530 4.867,10.367 4.947 M17.567 4.947 C 17.374 5.042,16.225 6.140,14.203 8.163 C 12.104 10.262,11.191 11.226,11.003 11.539 C 10.763 11.939,10.815 12.202,11.250 12.779 C 11.652 13.314,15.498 17.204,16.767 18.360 C 17.558 19.081,17.776 19.201,18.137 19.118 C 18.658 18.998,19.059 18.573,19.142 18.054 C 19.211 17.626,18.975 17.349,15.671 13.990 L 13.713 12.000 15.711 9.970 C 17.869 7.777,18.439 7.180,18.803 6.729 C 19.232 6.198,19.250 5.832,18.871 5.349 C 18.711 5.147,18.465 5.010,18.135 4.940 C 17.788 4.866,17.730 4.867,17.567 4.947 " fill="#373B4D" stroke="none" fill-rule="evenodd"></path></svg>