<svg width="24" height="24" viewBox="0 0 24 24" fill="none" xmlns="http://www.w3.org/2000/svg"><path d="M5.312 5.148 C 5.015 5.398,4.880 5.654,4.880 5.969 C 4.880 6.098,4.904 6.260,4.934 6.331 C 5.068 6.651,5.721 7.358,8.370 10.051 L 10.288 12.002 8.590 13.731 C 5.714 16.659,5.118 17.296,4.981 17.584 C 4.889 17.777,4.861 18.104,4.919 18.316 C 5.013 18.664,5.617 19.122,5.988 19.127 C 6.345 19.132,6.765 18.791,8.448 17.130 C 10.024 15.575,12.304 13.266,12.645 12.880 C 12.984 12.496,13.092 12.286,13.096 11.998 C 13.098 11.811,13.076 11.738,12.960 11.544 C 12.720 11.146,8.262 6.616,7.060 5.549 C 6.509 5.060,6.407 5.009,5.920 4.980 L 5.540 4.957 5.312 5.148 M12.694 5.037 C 12.489 5.130,12.212 5.401,12.136 5.582 C 12.065 5.754,12.063 6.203,12.134 6.371 C 12.244 6.631,12.913 7.347,15.571 10.051 L 17.488 12.001 15.919 13.589 C 14.303 15.224,12.952 16.626,12.552 17.084 C 12.226 17.457,12.080 17.751,12.081 18.034 C 12.082 18.317,12.180 18.540,12.400 18.760 C 12.722 19.082,13.234 19.207,13.567 19.046 C 13.851 18.908,14.591 18.213,16.700 16.102 C 18.783 14.018,19.913 12.841,20.118 12.543 C 20.388 12.151,20.373 11.800,20.072 11.409 C 19.407 10.548,14.516 5.642,13.895 5.215 C 13.543 4.972,13.011 4.893,12.694 5.037 " fill="#373B4D" stroke="none" fill-rule="evenodd"></path></svg>