<svg width="24" height="24" viewBox="0 0 24 24" fill="none" xmlns="http://www.w3.org/2000/svg"><path d="M5.319 5.146 C 4.983 5.402,4.880 5.596,4.880 5.970 C 4.880 6.160,4.903 6.288,4.956 6.392 C 5.123 6.717,6.089 7.751,8.638 10.330 L 10.289 12.000 8.453 13.870 C 5.540 16.837,5.125 17.281,4.976 17.592 C 4.873 17.806,4.855 18.164,4.937 18.378 C 5.070 18.727,5.638 19.130,6.006 19.137 C 6.395 19.144,6.943 18.661,9.820 15.780 C 11.805 13.792,12.691 12.869,12.922 12.550 C 12.985 12.464,13.057 12.296,13.084 12.177 C 13.150 11.881,13.091 11.697,12.806 11.320 C 12.555 10.987,8.946 7.333,7.595 6.044 C 7.086 5.557,6.648 5.173,6.528 5.108 C 6.364 5.019,6.255 4.994,5.952 4.974 L 5.579 4.949 5.319 5.146 M12.690 5.023 C 12.468 5.137,12.212 5.391,12.140 5.569 C 12.030 5.838,12.044 6.233,12.171 6.446 C 12.359 6.763,13.781 8.260,16.294 10.787 L 17.494 11.995 15.840 13.667 C 13.800 15.730,12.566 17.024,12.340 17.340 C 12.001 17.813,11.977 18.220,12.263 18.612 C 12.501 18.938,12.859 19.120,13.260 19.120 C 13.520 19.120,13.612 19.068,14.084 18.657 C 15.019 17.842,19.538 13.287,20.038 12.654 C 20.344 12.267,20.396 11.969,20.221 11.618 C 20.092 11.359,19.195 10.400,17.140 8.324 C 15.064 6.227,14.032 5.249,13.739 5.101 C 13.454 4.957,12.898 4.916,12.690 5.023 " fill="#373B4D" stroke="none" fill-rule="evenodd"></path></svg>