<svg width="24" height="24" viewBox="0 0 24 24" fill="none" xmlns="http://www.w3.org/2000/svg"><path d="M11.423 8.646 C 11.009 8.920,6.876 13.032,6.363 13.680 C 6.041 14.086,5.983 14.315,6.101 14.712 C 6.189 15.006,6.530 15.368,6.824 15.478 C 7.323 15.665,7.607 15.549,8.380 14.842 C 8.556 14.681,9.444 13.820,10.353 12.928 L 12.007 11.307 13.033 12.327 C 15.224 14.504,16.080 15.295,16.432 15.467 C 16.607 15.553,16.680 15.567,16.856 15.549 C 17.532 15.479,18.085 14.769,17.921 14.182 C 17.891 14.077,17.787 13.881,17.689 13.746 C 17.498 13.483,13.674 9.620,13.040 9.050 C 12.552 8.611,12.365 8.521,11.937 8.520 C 11.641 8.520,11.598 8.531,11.423 8.646 " fill="#373B4D" stroke="none" fill-rule="evenodd"></path></svg>