<svg width="24" height="24" viewBox="0 0 24 24" fill="none" xmlns="http://www.w3.org/2000/svg"><path d="M6.764 8.526 C 6.562 8.584,6.189 8.976,6.107 9.217 C 6.017 9.481,6.021 9.786,6.117 9.974 C 6.281 10.296,6.606 10.647,8.519 12.575 C 11.388 15.464,11.532 15.586,12.058 15.553 C 12.275 15.539,12.349 15.513,12.532 15.388 C 13.206 14.923,17.360 10.784,17.824 10.114 C 17.978 9.891,18.009 9.462,17.890 9.193 C 17.786 8.959,17.591 8.742,17.365 8.608 C 17.199 8.511,17.142 8.500,16.820 8.503 C 16.565 8.504,16.418 8.525,16.315 8.575 C 16.119 8.669,15.187 9.542,13.447 11.260 L 11.995 12.694 10.847 11.553 C 9.353 10.067,8.285 9.041,7.956 8.774 C 7.752 8.609,7.643 8.551,7.480 8.520 C 7.224 8.471,6.947 8.474,6.764 8.526 " fill="#373B4D" stroke="none" fill-rule="evenodd"></path></svg>