<svg width="24" height="24" viewBox="0 0 24 24" fill="none" xmlns="http://www.w3.org/2000/svg"><path d="M10.325 4.948 C 10.009 5.104,4.186 10.930,3.871 11.405 C 3.447 12.046,3.565 12.326,4.809 13.640 C 6.455 15.378,9.636 18.500,10.173 18.903 C 10.469 19.126,10.650 19.177,10.947 19.122 C 11.464 19.026,11.853 18.623,11.939 18.095 C 11.977 17.860,11.905 17.642,11.703 17.373 C 11.454 17.042,10.167 15.696,8.200 13.707 L 6.506 11.995 7.905 10.587 C 10.693 7.783,11.693 6.723,11.843 6.415 C 12.036 6.015,11.971 5.664,11.635 5.300 C 11.418 5.064,11.253 4.980,10.892 4.924 C 10.522 4.867,10.487 4.869,10.325 4.948 M17.525 4.948 C 17.209 5.104,11.386 10.930,11.071 11.405 C 10.647 12.046,10.765 12.326,12.009 13.640 C 13.655 15.378,16.836 18.500,17.373 18.903 C 17.669 19.126,17.850 19.177,18.147 19.122 C 18.664 19.026,19.053 18.623,19.139 18.095 C 19.177 17.860,19.105 17.642,18.903 17.373 C 18.654 17.042,17.367 15.696,15.400 13.707 L 13.706 11.995 15.105 10.587 C 17.893 7.783,18.893 6.723,19.043 6.415 C 19.236 6.015,19.171 5.664,18.835 5.300 C 18.618 5.064,18.453 4.980,18.092 4.924 C 17.722 4.867,17.687 4.869,17.525 4.948 " fill="#373B4D" stroke="none" fill-rule="evenodd"></path></svg>