<svg width="24" height="24" viewBox="0 0 24 24" fill="none" xmlns="http://www.w3.org/2000/svg"><path d="M16.589 8.562 C 16.186 8.629,15.988 8.799,13.609 11.117 L 11.998 12.687 10.749 11.457 C 8.664 9.403,7.860 8.683,7.560 8.599 C 7.333 8.536,6.811 8.551,6.655 8.625 C 6.360 8.765,6.080 9.247,6.080 9.612 C 6.081 10.037,6.342 10.346,8.659 12.660 C 10.497 14.498,11.336 15.281,11.618 15.421 C 11.986 15.605,12.295 15.538,12.741 15.180 C 13.581 14.504,17.123 10.971,17.592 10.340 C 17.812 10.045,17.959 9.740,17.959 9.580 C 17.959 9.290,17.622 8.795,17.320 8.642 C 17.145 8.553,16.839 8.520,16.589 8.562 " fill="#373B4D" stroke="none" fill-rule="evenodd"></path></svg>