<svg width="24" height="24" viewBox="0 0 24 24" fill="none" xmlns="http://www.w3.org/2000/svg"><path d="M5.642 4.924 C 5.427 4.990,5.175 5.192,5.010 5.431 C 4.866 5.641,4.860 5.662,4.862 5.978 C 4.864 6.258,4.880 6.333,4.969 6.483 C 5.117 6.733,6.165 7.836,8.377 10.070 L 10.289 12.000 8.557 13.750 C 6.590 15.737,5.206 17.182,5.037 17.425 C 4.559 18.114,5.054 19.057,5.941 19.149 C 6.257 19.181,6.477 19.056,7.120 18.475 C 7.900 17.770,12.451 13.200,12.769 12.802 C 13.176 12.292,13.242 11.998,13.042 11.584 C 12.909 11.310,12.229 10.587,10.190 8.552 C 7.764 6.131,6.700 5.116,6.471 5.005 C 6.261 4.904,5.844 4.863,5.642 4.924 M12.575 5.050 C 12.468 5.122,12.309 5.285,12.220 5.414 C 12.063 5.643,12.060 5.655,12.060 5.997 C 12.060 6.316,12.070 6.361,12.174 6.512 C 12.360 6.780,13.501 7.973,15.557 10.050 L 17.489 12.000 15.517 13.990 C 13.323 16.205,12.320 17.260,12.178 17.501 C 12.126 17.590,12.071 17.762,12.057 17.885 C 11.980 18.538,12.478 19.098,13.180 19.148 C 13.391 19.163,13.444 19.150,13.624 19.045 C 13.737 18.979,14.025 18.750,14.264 18.536 C 14.841 18.020,19.413 13.444,19.827 12.967 C 20.544 12.141,20.548 11.852,19.856 11.064 C 19.432 10.580,15.362 6.482,14.584 5.753 C 13.758 4.981,13.652 4.920,13.137 4.920 C 12.788 4.920,12.759 4.927,12.575 5.050 " fill="#373B4D" stroke="none" fill-rule="evenodd"></path></svg>