<svg width="24" height="24" viewBox="0 0 24 24" fill="none" xmlns="http://www.w3.org/2000/svg"><path d="M12.900 4.876 C 12.586 4.956,12.273 5.225,12.113 5.552 C 11.995 5.794,11.986 6.192,12.093 6.408 C 12.216 6.655,12.850 7.325,15.222 9.715 L 17.495 12.005 15.755 13.753 C 12.778 16.744,12.266 17.279,12.141 17.535 C 11.927 17.971,12.017 18.463,12.376 18.822 C 12.620 19.066,12.861 19.160,13.237 19.160 C 13.456 19.159,13.535 19.139,13.710 19.039 C 14.097 18.817,19.728 13.201,20.129 12.637 C 20.460 12.171,20.477 11.865,20.195 11.442 C 19.987 11.131,17.532 8.608,15.677 6.800 C 14.099 5.263,13.845 5.031,13.636 4.945 C 13.464 4.874,13.057 4.836,12.900 4.876 M5.437 4.993 C 5.201 5.143,4.931 5.455,4.881 5.635 C 4.814 5.876,4.831 6.265,4.916 6.432 C 5.041 6.677,5.789 7.467,8.095 9.789 L 10.290 11.999 8.218 14.090 C 5.902 16.425,5.041 17.334,4.940 17.546 C 4.845 17.746,4.818 18.118,4.881 18.345 C 4.954 18.606,5.335 19.010,5.589 19.097 C 5.802 19.170,6.113 19.178,6.332 19.117 C 6.417 19.094,6.610 18.967,6.772 18.830 C 7.161 18.499,11.882 13.796,12.493 13.130 C 13.088 12.482,13.160 12.360,13.160 12.000 C 13.160 11.645,13.089 11.521,12.533 10.911 C 11.951 10.272,7.326 5.667,6.866 5.268 C 6.470 4.925,6.362 4.881,5.918 4.880 C 5.655 4.880,5.593 4.895,5.437 4.993 " fill="#373B4D" stroke="none" fill-rule="evenodd"></path></svg>