<svg width="24" height="24" viewBox="0 0 24 24" fill="none" xmlns="http://www.w3.org/2000/svg"><path d="M17.100 5.311 C 16.516 5.834,15.414 6.904,13.473 8.834 L 12.007 10.293 9.973 8.292 C 7.776 6.130,7.250 5.628,6.843 5.301 C 6.459 4.993,6.352 4.948,5.954 4.928 C 5.618 4.911,5.603 4.914,5.423 5.038 C 5.177 5.207,4.935 5.519,4.864 5.759 C 4.771 6.072,4.853 6.301,5.231 6.780 C 5.352 6.934,6.749 8.356,8.336 9.941 C 11.328 12.930,11.485 13.072,11.870 13.145 C 12.080 13.184,12.350 13.084,12.657 12.853 C 13.203 12.443,17.236 8.456,18.695 6.885 C 19.129 6.417,19.228 6.125,19.101 5.696 C 18.977 5.278,18.604 4.984,18.116 4.921 C 17.591 4.853,17.630 4.838,17.100 5.311 M17.100 12.511 C 16.516 13.034,15.414 14.104,13.473 16.034 L 12.007 17.493 9.973 15.492 C 7.776 13.330,7.250 12.828,6.843 12.501 C 6.454 12.189,6.354 12.147,5.939 12.128 L 5.578 12.111 5.366 12.279 C 5.141 12.457,4.863 12.845,4.820 13.041 C 4.778 13.231,4.900 13.555,5.126 13.855 C 5.549 14.415,10.780 19.662,11.322 20.071 C 11.857 20.473,12.179 20.451,12.777 19.970 C 13.132 19.685,18.350 14.494,18.718 14.060 C 19.077 13.637,19.132 13.522,19.131 13.201 C 19.131 12.900,19.064 12.715,18.880 12.506 C 18.681 12.279,18.453 12.165,18.116 12.121 C 17.591 12.053,17.630 12.038,17.100 12.511 " fill="#373B4D" stroke="none" fill-rule="evenodd"></path></svg>