<svg width="24" height="24" viewBox="0 0 24 24" fill="none" xmlns="http://www.w3.org/2000/svg"><path d="M10.580 4.838 C 10.492 4.853,10.353 4.895,10.270 4.931 C 10.112 4.999,5.683 9.372,4.396 10.731 C 3.809 11.350,3.715 11.467,3.661 11.648 C 3.538 12.064,3.592 12.322,3.889 12.718 C 4.084 12.979,8.448 17.376,9.513 18.384 C 10.151 18.988,10.273 19.087,10.451 19.139 C 10.964 19.292,11.461 19.112,11.784 18.657 C 12.045 18.290,12.057 17.746,11.811 17.384 C 11.750 17.294,10.531 16.045,9.103 14.610 L 6.506 11.999 9.046 9.450 C 10.442 8.047,11.659 6.805,11.750 6.690 C 12.015 6.351,12.066 5.911,11.885 5.503 C 11.683 5.045,11.095 4.746,10.580 4.838 M17.780 4.838 C 17.692 4.853,17.553 4.895,17.470 4.931 C 17.312 4.999,12.883 9.372,11.596 10.731 C 11.009 11.350,10.915 11.467,10.861 11.648 C 10.738 12.064,10.792 12.322,11.089 12.718 C 11.284 12.979,15.648 17.376,16.713 18.384 C 17.351 18.988,17.473 19.087,17.651 19.139 C 18.164 19.292,18.661 19.112,18.984 18.657 C 19.245 18.290,19.257 17.746,19.011 17.384 C 18.950 17.294,17.731 16.045,16.303 14.610 L 13.706 11.999 16.246 9.450 C 17.642 8.047,18.859 6.805,18.950 6.690 C 19.215 6.351,19.266 5.911,19.085 5.503 C 18.883 5.045,18.295 4.746,17.780 4.838 " fill="#373B4D" stroke="none" fill-rule="evenodd"></path></svg>