<svg width="24" height="24" viewBox="0 0 24 24" fill="none" xmlns="http://www.w3.org/2000/svg"><path d="M11.740 8.437 C 11.386 8.528,11.310 8.597,8.801 11.111 C 7.424 12.491,6.248 13.694,6.187 13.784 C 6.126 13.876,6.057 14.056,6.032 14.194 C 5.847 15.185,6.996 15.968,7.817 15.411 C 7.907 15.350,8.885 14.402,9.990 13.303 L 12.000 11.307 14.010 13.303 C 15.115 14.402,16.093 15.350,16.183 15.411 C 16.831 15.850,17.784 15.443,17.966 14.650 C 18.029 14.374,17.964 14.010,17.813 13.784 C 17.752 13.694,16.586 12.502,15.221 11.136 C 13.116 9.029,12.707 8.637,12.520 8.550 C 12.282 8.438,11.933 8.388,11.740 8.437 " fill="#373B4D" stroke="none" fill-rule="evenodd"></path></svg>