<svg width="24" height="24" viewBox="0 0 24 24" fill="none" xmlns="http://www.w3.org/2000/svg"><path d="M11.720 8.471 C 11.636 8.480,11.497 8.548,11.375 8.641 C 10.782 9.087,6.551 13.337,6.219 13.819 C 6.082 14.018,6.060 14.080,6.047 14.320 C 6.038 14.474,6.053 14.659,6.081 14.746 C 6.294 15.399,7.077 15.767,7.640 15.479 C 7.869 15.361,8.485 14.786,10.290 13.002 L 12.001 11.312 13.609 12.902 C 15.477 14.748,16.138 15.366,16.372 15.487 C 16.738 15.675,17.278 15.559,17.619 15.219 C 17.952 14.886,18.072 14.335,17.889 13.978 C 17.768 13.741,16.878 12.796,15.181 11.100 C 13.419 9.338,12.689 8.656,12.462 8.559 C 12.292 8.486,11.957 8.447,11.720 8.471 " fill="#373B4D" stroke="none" fill-rule="evenodd"></path></svg>