<svg width="24" height="24" viewBox="0 0 24 24" fill="none" xmlns="http://www.w3.org/2000/svg"><path d="M9.360 6.036 C 9.125 6.084,8.798 6.288,8.655 6.475 C 8.319 6.914,8.323 7.487,8.665 7.912 C 8.748 8.015,9.689 8.977,10.755 10.050 L 12.694 11.999 10.697 14.010 C 9.599 15.115,8.650 16.094,8.589 16.184 C 8.525 16.278,8.458 16.453,8.432 16.594 C 8.247 17.585,9.397 18.368,10.216 17.811 C 10.421 17.671,14.376 13.751,14.984 13.084 C 15.233 12.811,15.467 12.523,15.505 12.444 C 15.605 12.236,15.620 11.930,15.544 11.668 C 15.486 11.469,15.415 11.377,14.885 10.812 C 14.559 10.465,13.401 9.297,12.314 8.217 C 10.688 6.603,10.297 6.235,10.118 6.150 C 9.880 6.036,9.579 5.991,9.360 6.036 " fill="#373B4D" stroke="none" fill-rule="evenodd"></path></svg>