<svg width="24" height="24" viewBox="0 0 24 24" fill="none" xmlns="http://www.w3.org/2000/svg"><path d="M5.756 4.836 C 5.529 4.883,5.192 5.093,5.051 5.276 C 4.811 5.588,4.734 6.071,4.875 6.380 C 4.915 6.469,5.044 6.658,5.161 6.800 C 5.425 7.122,9.665 11.388,10.690 12.363 C 11.350 12.991,11.465 13.084,11.647 13.138 C 12.092 13.270,12.361 13.201,12.800 12.839 C 13.129 12.569,17.459 8.263,18.384 7.287 C 18.988 6.649,19.087 6.527,19.139 6.349 C 19.305 5.792,19.077 5.239,18.568 4.968 C 18.354 4.853,18.294 4.840,17.992 4.840 C 17.451 4.840,17.640 4.678,14.331 7.976 L 12.002 10.297 9.491 7.797 C 8.110 6.422,6.881 5.215,6.760 5.114 C 6.463 4.866,6.099 4.765,5.756 4.836 M5.756 12.036 C 5.529 12.083,5.192 12.293,5.051 12.476 C 4.811 12.788,4.734 13.271,4.875 13.580 C 4.915 13.669,5.044 13.858,5.161 14.000 C 5.431 14.329,9.737 18.659,10.713 19.584 C 11.351 20.188,11.473 20.287,11.651 20.339 C 12.092 20.470,12.362 20.400,12.800 20.039 C 13.129 19.769,17.459 15.463,18.384 14.487 C 18.988 13.849,19.087 13.727,19.139 13.549 C 19.305 12.992,19.077 12.439,18.568 12.168 C 18.354 12.053,18.294 12.040,17.992 12.040 C 17.451 12.040,17.640 11.878,14.331 15.176 L 12.002 17.497 9.491 14.997 C 8.110 13.622,6.881 12.415,6.760 12.314 C 6.463 12.066,6.099 11.965,5.756 12.036 " fill="#373B4D" stroke="none" fill-rule="evenodd"></path></svg>