<svg width="24" height="24" viewBox="0 0 24 24" fill="none" xmlns="http://www.w3.org/2000/svg"><path d="M5.486 4.982 C 5.234 5.111,4.971 5.423,4.863 5.721 C 4.783 5.944,4.810 6.147,4.958 6.435 C 5.097 6.707,5.854 7.500,8.477 10.122 C 11.354 12.998,11.481 13.110,11.913 13.149 C 12.421 13.195,12.597 13.044,15.984 9.661 C 18.510 7.138,19.039 6.574,19.114 6.325 C 19.230 5.937,19.130 5.538,18.846 5.247 C 18.592 4.988,18.435 4.923,17.990 4.894 L 17.616 4.869 17.258 5.168 C 16.825 5.528,15.626 6.689,13.553 8.754 L 12.005 10.294 10.173 8.480 C 7.752 6.083,6.811 5.198,6.512 5.039 C 6.332 4.943,6.209 4.909,5.988 4.894 C 5.731 4.876,5.677 4.885,5.486 4.982 M5.486 12.182 C 5.234 12.311,4.971 12.623,4.863 12.921 C 4.802 13.092,4.798 13.150,4.837 13.307 C 4.911 13.598,5.009 13.753,5.390 14.180 C 5.902 14.753,9.894 18.775,10.696 19.526 C 11.443 20.225,11.651 20.360,11.980 20.360 C 12.452 20.360,12.644 20.192,15.920 16.924 C 18.423 14.428,18.952 13.869,19.085 13.580 C 19.247 13.227,19.147 12.755,18.846 12.447 C 18.592 12.188,18.435 12.123,17.990 12.094 L 17.616 12.069 17.258 12.368 C 16.825 12.728,15.626 13.889,13.553 15.954 L 12.005 17.494 10.173 15.680 C 7.752 13.283,6.811 12.398,6.512 12.239 C 6.332 12.143,6.209 12.109,5.988 12.094 C 5.731 12.076,5.677 12.085,5.486 12.182 " fill="#373B4D" stroke="none" fill-rule="evenodd"></path></svg>