<svg width="24" height="24" viewBox="0 0 24 24" fill="none" xmlns="http://www.w3.org/2000/svg"><path d="M13.940 6.196 C 13.699 6.307,12.849 7.107,10.897 9.058 C 9.075 10.879,8.655 11.348,8.519 11.711 C 8.378 12.088,8.430 12.259,8.840 12.780 C 9.131 13.151,13.000 17.032,13.552 17.508 C 13.939 17.842,14.100 17.920,14.400 17.920 C 14.721 17.920,14.881 17.843,15.186 17.540 C 15.457 17.272,15.474 17.245,15.501 17.029 C 15.540 16.712,15.493 16.452,15.360 16.262 C 15.096 15.882,14.096 14.820,12.225 12.933 L 11.306 12.005 12.480 10.813 C 14.422 8.840,15.249 7.939,15.411 7.620 C 15.619 7.210,15.582 6.882,15.290 6.558 C 15.061 6.303,14.874 6.207,14.509 6.160 C 14.126 6.110,14.125 6.110,13.940 6.196 " fill="#373B4D" stroke="none" fill-rule="evenodd"></path></svg>