<svg width="24" height="24" viewBox="0 0 24 24" fill="none" xmlns="http://www.w3.org/2000/svg"><path d="M6.765 8.600 C 6.569 8.646,6.437 8.758,6.289 9.003 C 6.030 9.431,6.019 9.745,6.249 10.091 C 6.487 10.448,7.023 11.019,8.609 12.604 C 10.202 14.195,11.050 15.004,11.410 15.276 C 11.812 15.579,12.146 15.587,12.575 15.301 C 12.883 15.097,13.948 14.094,15.400 12.641 C 17.377 10.663,17.803 10.170,17.925 9.712 C 17.984 9.492,17.922 9.294,17.699 8.991 C 17.483 8.696,17.294 8.591,16.939 8.569 C 16.270 8.526,16.277 8.521,13.450 11.274 L 11.999 12.688 10.829 11.537 C 8.684 9.425,7.863 8.695,7.530 8.602 C 7.358 8.554,6.963 8.553,6.765 8.600 " fill="#373B4D" stroke="none" fill-rule="evenodd"></path></svg>