<svg width="24" height="24" viewBox="0 0 24 24" fill="none" xmlns="http://www.w3.org/2000/svg"><path d="M11.740 3.637 C 11.402 3.724,11.295 3.821,8.775 6.328 C 6.005 9.083,4.979 10.146,4.895 10.345 C 4.866 10.416,4.830 10.570,4.816 10.687 C 4.705 11.635,5.836 12.340,6.617 11.811 C 6.707 11.750,7.955 10.531,9.392 9.102 L 12.003 6.504 14.352 8.845 C 17.340 11.823,17.379 11.860,17.668 11.944 C 18.354 12.144,19.087 11.666,19.184 10.956 C 19.228 10.634,19.139 10.347,18.909 10.068 C 18.651 9.756,14.167 5.245,13.285 4.411 C 12.886 4.033,12.566 3.763,12.465 3.720 C 12.269 3.635,11.908 3.594,11.740 3.637 M11.740 10.837 C 11.402 10.924,11.295 11.021,8.775 13.528 C 6.005 16.283,4.979 17.346,4.895 17.545 C 4.866 17.616,4.830 17.770,4.816 17.887 C 4.705 18.835,5.836 19.540,6.617 19.011 C 6.707 18.950,7.955 17.731,9.392 16.302 L 12.003 13.704 14.352 16.045 C 17.340 19.023,17.379 19.060,17.668 19.144 C 18.354 19.344,19.087 18.866,19.184 18.156 C 19.228 17.834,19.139 17.547,18.909 17.268 C 18.651 16.956,14.167 12.445,13.285 11.611 C 12.886 11.233,12.566 10.963,12.465 10.920 C 12.269 10.835,11.908 10.794,11.740 10.837 " fill="#373B4D" stroke="none" fill-rule="evenodd"></path></svg>