<svg width="24" height="24" viewBox="0 0 24 24" fill="none" xmlns="http://www.w3.org/2000/svg"><path d="M6.790 8.534 C 6.562 8.620,6.452 8.705,6.302 8.911 C 6.119 9.163,6.023 9.475,6.055 9.711 C 6.112 10.122,6.336 10.377,8.809 12.848 C 10.882 14.920,11.285 15.296,11.594 15.449 C 11.862 15.580,12.201 15.574,12.440 15.433 C 12.942 15.137,16.191 11.964,17.479 10.512 C 17.970 9.959,18.053 9.691,17.877 9.222 C 17.784 8.974,17.529 8.692,17.299 8.582 C 17.183 8.527,17.071 8.516,16.763 8.526 C 16.377 8.540,16.372 8.541,16.157 8.704 C 15.841 8.944,14.803 9.926,13.307 11.400 L 11.995 12.694 10.947 11.654 C 8.693 9.417,7.978 8.754,7.659 8.604 C 7.428 8.495,6.989 8.460,6.790 8.534 " fill="#373B4D" stroke="none" fill-rule="evenodd"></path></svg>