<svg width="24" height="24" viewBox="0 0 24 24" fill="none" xmlns="http://www.w3.org/2000/svg"><path d="M14.030 6.095 C 13.947 6.125,13.821 6.196,13.748 6.251 C 13.398 6.518,10.640 9.233,9.437 10.493 C 8.492 11.485,8.424 11.593,8.446 12.069 C 8.459 12.344,8.476 12.402,8.595 12.575 C 8.775 12.835,10.680 14.792,12.104 16.180 C 13.889 17.920,13.953 17.971,14.380 17.976 C 15.183 17.984,15.805 17.080,15.477 16.382 C 15.357 16.127,14.826 15.554,12.963 13.670 L 11.312 12.000 13.002 10.290 C 14.815 8.456,15.359 7.873,15.491 7.620 C 15.606 7.399,15.607 7.004,15.494 6.760 C 15.254 6.242,14.524 5.910,14.030 6.095 " fill="#373B4D" stroke="none" fill-rule="evenodd"></path></svg>