<svg width="24" height="24" viewBox="0 0 24 24" fill="none" xmlns="http://www.w3.org/2000/svg"><path d="M10.277 4.997 C 9.898 5.252,5.847 9.268,4.262 10.960 C 3.788 11.466,3.616 11.779,3.657 12.057 C 3.692 12.287,3.907 12.633,4.300 13.089 C 4.718 13.575,8.114 16.994,9.142 17.965 C 10.330 19.086,10.523 19.210,10.949 19.119 C 11.475 19.006,11.862 18.593,11.942 18.060 C 12.001 17.667,11.749 17.345,9.881 15.420 C 9.411 14.936,8.458 13.968,7.764 13.270 L 6.500 12.000 7.802 10.690 C 10.662 7.813,11.624 6.793,11.824 6.426 C 12.032 6.047,11.971 5.686,11.637 5.306 C 11.452 5.096,11.234 4.987,10.877 4.925 C 10.507 4.862,10.473 4.866,10.277 4.997 M17.477 4.997 C 17.098 5.252,13.047 9.268,11.462 10.960 C 10.988 11.466,10.816 11.779,10.857 12.057 C 10.892 12.287,11.107 12.633,11.500 13.089 C 11.918 13.575,15.314 16.994,16.342 17.965 C 17.530 19.086,17.723 19.210,18.149 19.119 C 18.675 19.006,19.062 18.593,19.142 18.060 C 19.201 17.667,18.949 17.345,17.081 15.420 C 16.611 14.936,15.658 13.968,14.964 13.270 L 13.700 12.000 15.002 10.690 C 17.862 7.813,18.824 6.793,19.024 6.426 C 19.232 6.047,19.171 5.686,18.837 5.306 C 18.652 5.096,18.434 4.987,18.077 4.925 C 17.707 4.862,17.673 4.866,17.477 4.997 " fill="#373B4D" stroke="none" fill-rule="evenodd"></path></svg>