<svg width="24" height="24" viewBox="0 0 24 24" fill="none" xmlns="http://www.w3.org/2000/svg"><path d="M5.574 4.961 C 5.420 5.009,5.076 5.313,4.955 5.508 C 4.882 5.626,4.867 5.707,4.870 5.962 C 4.872 6.159,4.897 6.323,4.937 6.409 C 5.067 6.682,6.182 7.859,8.898 10.590 L 10.300 12.000 9.036 13.270 C 6.708 15.611,5.224 17.164,5.018 17.475 C 4.862 17.711,4.817 18.021,4.898 18.301 C 4.952 18.485,5.012 18.579,5.195 18.761 C 5.384 18.950,5.473 19.006,5.705 19.081 C 6.336 19.284,6.384 19.246,9.983 15.633 C 12.471 13.135,12.891 12.688,13.043 12.373 C 13.144 12.165,13.155 11.882,13.071 11.680 C 12.944 11.375,12.408 10.803,10.023 8.418 C 7.526 5.922,6.700 5.137,6.447 5.017 C 6.285 4.940,5.752 4.906,5.574 4.961 M12.732 4.976 C 12.572 5.049,12.265 5.330,12.164 5.495 C 12.065 5.659,12.025 5.916,12.059 6.185 C 12.082 6.366,12.118 6.442,12.276 6.632 C 12.587 7.005,13.993 8.466,15.800 10.293 L 17.494 12.005 16.074 13.433 C 13.377 16.143,12.308 17.269,12.161 17.558 C 11.984 17.906,12.035 18.349,12.292 18.687 C 12.486 18.942,12.892 19.140,13.219 19.140 C 13.438 19.140,13.493 19.123,13.692 18.990 C 14.028 18.767,14.892 17.944,16.936 15.900 C 19.968 12.866,20.360 12.420,20.360 12.000 C 20.360 11.758,20.150 11.406,19.727 10.936 C 19.201 10.353,14.563 5.713,14.176 5.383 C 14.008 5.240,13.796 5.087,13.705 5.042 C 13.480 4.933,12.911 4.894,12.732 4.976 " fill="#373B4D" stroke="none" fill-rule="evenodd"></path></svg>