<svg width="24" height="24" viewBox="0 0 24 24" fill="none" xmlns="http://www.w3.org/2000/svg"><path d="M11.590 8.575 C 11.382 8.652,11.071 8.932,9.820 10.164 C 8.094 11.865,6.635 13.355,6.371 13.689 C 6.066 14.073,5.998 14.314,6.096 14.653 C 6.261 15.220,6.904 15.654,7.386 15.524 C 7.771 15.420,8.049 15.174,10.510 12.768 L 11.999 11.311 13.330 12.622 C 15.983 15.238,16.441 15.615,16.882 15.544 C 17.276 15.481,17.691 15.166,17.849 14.809 C 17.958 14.563,17.957 14.261,17.846 14.033 C 17.715 13.762,16.985 12.981,15.062 11.056 C 13.325 9.318,12.823 8.848,12.491 8.653 C 12.280 8.529,11.819 8.488,11.590 8.575 " fill="#373B4D" stroke="none" fill-rule="evenodd"></path></svg>