<svg width="24" height="24" viewBox="0 0 24 24" fill="none" xmlns="http://www.w3.org/2000/svg"><path d="M5.397 5.087 C 5.105 5.325,4.877 5.661,4.851 5.892 C 4.825 6.121,4.953 6.410,5.218 6.720 C 5.608 7.176,8.109 9.735,9.340 10.935 C 11.535 13.077,11.587 13.120,11.977 13.120 C 12.412 13.120,12.790 12.799,15.416 10.200 C 17.324 8.311,18.720 6.862,18.941 6.542 C 19.074 6.348,19.099 6.278,19.113 6.056 C 19.134 5.732,19.055 5.509,18.850 5.311 C 18.582 5.053,18.207 4.921,17.738 4.920 C 17.471 4.920,17.358 5.023,14.070 8.255 L 12.000 10.290 10.335 8.655 C 7.189 5.567,6.707 5.127,6.351 5.021 C 6.248 4.990,6.039 4.953,5.888 4.938 L 5.614 4.911 5.397 5.087 M5.276 12.386 C 4.732 12.950,4.705 13.245,5.140 13.836 C 5.523 14.355,10.394 19.260,11.163 19.901 C 11.368 20.071,11.595 20.235,11.667 20.265 C 11.892 20.359,12.193 20.335,12.420 20.204 C 12.729 20.026,13.626 19.174,16.004 16.800 C 18.164 14.645,18.894 13.872,19.030 13.600 C 19.135 13.389,19.124 12.911,19.009 12.692 C 18.845 12.381,18.323 12.120,17.862 12.120 C 17.624 12.120,17.594 12.131,17.374 12.296 C 17.035 12.552,15.750 13.779,13.750 15.758 L 11.999 17.489 10.334 15.855 C 7.173 12.751,6.708 12.327,6.344 12.219 C 6.237 12.187,6.012 12.150,5.844 12.136 L 5.540 12.111 5.276 12.386 " fill="#373B4D" stroke="none" fill-rule="evenodd"></path></svg>