<svg width="24" height="24" viewBox="0 0 24 24" fill="none" xmlns="http://www.w3.org/2000/svg"><path d="M14.019 6.120 C 13.853 6.172,13.623 6.373,12.405 7.534 C 11.194 8.689,9.350 10.553,8.933 11.045 C 8.546 11.501,8.461 11.674,8.460 12.000 C 8.460 12.173,8.485 12.310,8.534 12.408 C 8.664 12.670,9.102 13.148,10.577 14.635 C 12.316 16.387,13.580 17.600,13.875 17.796 C 14.075 17.928,14.117 17.940,14.377 17.939 C 14.723 17.938,14.960 17.840,15.200 17.600 C 15.433 17.367,15.536 17.122,15.538 16.799 C 15.540 16.571,15.523 16.509,15.404 16.313 C 15.217 16.004,14.465 15.195,12.763 13.470 L 11.312 12.000 12.722 10.570 C 14.231 9.041,15.080 8.143,15.322 7.820 C 15.761 7.236,15.569 6.521,14.890 6.210 C 14.646 6.099,14.228 6.055,14.019 6.120 " fill="#373B4D" stroke="none" fill-rule="evenodd"></path></svg>