<svg width="24" height="24" viewBox="0 0 24 24" fill="none" xmlns="http://www.w3.org/2000/svg"><path d="M13.871 6.190 C 13.518 6.394,9.852 9.992,8.970 10.999 C 8.571 11.454,8.483 11.613,8.454 11.930 C 8.404 12.459,8.507 12.583,11.385 15.443 C 13.368 17.414,13.746 17.763,14.034 17.890 C 14.407 18.055,14.960 17.900,15.264 17.544 C 15.515 17.252,15.619 16.824,15.514 16.516 C 15.401 16.185,14.944 15.679,12.803 13.510 L 11.311 12.000 12.783 10.510 C 14.611 8.658,15.333 7.880,15.461 7.623 C 15.656 7.231,15.551 6.688,15.227 6.415 C 14.823 6.073,14.239 5.977,13.871 6.190 " fill="#373B4D" stroke="none" fill-rule="evenodd"></path></svg>