<svg width="24" height="24" viewBox="0 0 24 24" fill="none" xmlns="http://www.w3.org/2000/svg"><path d="M5.613 4.922 C 5.429 4.978,5.052 5.339,4.931 5.576 C 4.698 6.030,4.814 6.336,5.508 7.100 C 6.158 7.816,10.700 12.353,11.124 12.709 C 11.836 13.308,12.148 13.306,12.860 12.696 C 13.697 11.979,18.286 7.392,18.869 6.690 C 19.105 6.405,19.179 6.196,19.148 5.895 C 19.120 5.622,19.009 5.417,18.769 5.192 C 18.545 4.982,18.412 4.935,17.933 4.896 L 17.606 4.869 17.177 5.242 C 16.655 5.697,15.468 6.847,13.490 8.816 L 12.000 10.300 10.610 8.918 C 7.771 6.096,6.801 5.184,6.460 5.021 C 6.233 4.912,5.809 4.863,5.613 4.922 M5.611 12.123 C 5.397 12.187,5.027 12.564,4.901 12.845 C 4.797 13.076,4.793 13.106,4.837 13.301 C 4.899 13.578,5.030 13.776,5.494 14.289 C 6.056 14.910,10.635 19.495,11.060 19.861 C 11.514 20.253,11.766 20.376,12.064 20.351 C 12.341 20.328,12.554 20.184,13.237 19.557 C 13.961 18.891,18.192 14.662,18.630 14.166 C 19.086 13.648,19.140 13.543,19.138 13.180 C 19.137 12.837,19.052 12.657,18.769 12.392 C 18.545 12.182,18.412 12.135,17.933 12.096 L 17.606 12.069 17.177 12.442 C 16.655 12.897,15.468 14.047,13.490 16.016 L 12.000 17.500 10.610 16.118 C 7.771 13.296,6.801 12.384,6.460 12.221 C 6.233 12.112,5.809 12.063,5.611 12.123 " fill="#373B4D" stroke="none" fill-rule="evenodd"></path></svg>