<svg width="24" height="24" viewBox="0 0 24 24" fill="none" xmlns="http://www.w3.org/2000/svg"><path d="M6.900 8.475 C 6.408 8.604,6.025 9.087,6.024 9.580 C 6.023 9.935,6.125 10.109,6.703 10.740 C 7.377 11.476,10.600 14.699,11.059 15.097 C 11.531 15.505,11.670 15.576,12.003 15.578 C 12.437 15.581,12.525 15.509,14.817 13.265 C 16.555 11.564,17.638 10.428,17.840 10.094 C 17.962 9.892,17.980 9.830,17.979 9.601 C 17.978 9.282,17.870 9.036,17.619 8.785 C 17.365 8.532,17.230 8.480,16.817 8.480 C 16.547 8.480,16.427 8.499,16.300 8.560 C 16.115 8.650,15.136 9.579,13.252 11.453 L 12.005 12.695 10.344 11.050 C 8.540 9.265,7.913 8.679,7.680 8.560 C 7.511 8.474,7.083 8.427,6.900 8.475 " fill="#373B4D" stroke="none" fill-rule="evenodd"></path></svg>