<svg width="24" height="24" viewBox="0 0 24 24" fill="none" xmlns="http://www.w3.org/2000/svg"><path d="M11.580 3.695 C 11.365 3.792,10.497 4.618,8.257 6.858 C 5.911 9.204,5.046 10.114,4.911 10.377 C 4.724 10.743,4.835 11.269,5.174 11.615 C 5.424 11.871,5.653 11.960,6.063 11.960 C 6.345 11.960,6.358 11.955,6.600 11.773 C 6.901 11.547,8.014 10.471,10.287 8.206 L 11.995 6.505 14.281 8.774 C 16.703 11.178,17.312 11.753,17.569 11.885 C 17.888 12.048,18.365 11.981,18.703 11.726 C 19.207 11.345,19.318 10.710,18.970 10.202 C 18.775 9.919,16.652 7.743,14.695 5.820 C 12.922 4.078,12.681 3.856,12.460 3.759 C 12.238 3.661,11.735 3.625,11.580 3.695 M11.580 10.895 C 11.365 10.992,10.497 11.818,8.257 14.058 C 5.911 16.404,5.046 17.314,4.911 17.577 C 4.724 17.943,4.835 18.469,5.174 18.815 C 5.424 19.071,5.653 19.160,6.063 19.160 C 6.345 19.160,6.358 19.155,6.600 18.973 C 6.901 18.747,8.014 17.671,10.287 15.406 L 11.995 13.705 14.281 15.974 C 16.703 18.378,17.312 18.953,17.569 19.085 C 17.888 19.248,18.365 19.181,18.703 18.926 C 19.227 18.529,19.324 17.883,18.937 17.356 C 18.714 17.052,16.612 14.908,14.609 12.940 C 12.838 11.201,12.658 11.036,12.434 10.944 C 12.226 10.859,11.723 10.830,11.580 10.895 " fill="#373B4D" stroke="none" fill-rule="evenodd"></path></svg>