<svg width="24" height="24" viewBox="0 0 24 24" fill="none" xmlns="http://www.w3.org/2000/svg"><path d="M10.318 4.993 C 10.040 5.171,8.840 6.330,6.618 8.565 C 4.045 11.155,3.782 11.447,3.682 11.827 C 3.592 12.170,3.809 12.539,4.604 13.395 C 5.470 14.327,8.030 16.906,8.985 17.808 C 9.973 18.741,10.310 19.017,10.568 19.103 C 10.741 19.160,10.779 19.160,10.969 19.105 C 11.421 18.973,11.765 18.642,11.902 18.209 C 12.072 17.669,12.039 17.630,8.367 13.890 L 6.512 12.000 8.408 10.070 C 9.451 9.008,10.536 7.897,10.818 7.600 C 11.834 6.531,12.030 6.204,11.904 5.787 C 11.773 5.350,11.432 5.059,10.912 4.941 C 10.554 4.859,10.524 4.862,10.318 4.993 M17.518 4.993 C 17.240 5.171,16.040 6.330,13.818 8.565 C 11.245 11.155,10.982 11.447,10.882 11.827 C 10.792 12.170,11.009 12.539,11.804 13.395 C 12.670 14.327,15.230 16.906,16.185 17.808 C 17.173 18.741,17.510 19.017,17.768 19.103 C 17.941 19.160,17.979 19.160,18.169 19.105 C 18.621 18.973,18.965 18.642,19.102 18.209 C 19.272 17.669,19.239 17.630,15.567 13.890 L 13.712 12.000 15.608 10.070 C 16.651 9.008,17.736 7.897,18.018 7.600 C 19.034 6.531,19.230 6.204,19.104 5.787 C 18.973 5.350,18.632 5.059,18.112 4.941 C 17.754 4.859,17.724 4.862,17.518 4.993 " fill="#373B4D" stroke="none" fill-rule="evenodd"></path></svg>