<svg width="24" height="24" viewBox="0 0 24 24" fill="none" xmlns="http://www.w3.org/2000/svg"><path d="M8.843 6.425 C 8.553 6.739,8.471 6.903,8.471 7.164 C 8.471 7.642,8.717 7.940,11.252 10.533 L 12.693 12.006 11.793 12.913 C 9.787 14.934,8.732 16.073,8.575 16.390 C 8.472 16.597,8.474 17.006,8.579 17.220 C 8.766 17.601,9.267 17.928,9.671 17.932 C 9.810 17.933,9.892 17.898,10.120 17.743 C 10.654 17.378,14.709 13.355,15.226 12.677 C 15.392 12.460,15.520 12.158,15.520 11.986 C 15.520 11.810,15.397 11.538,15.198 11.272 C 14.959 10.954,10.943 6.922,10.535 6.590 C 10.147 6.276,9.974 6.207,9.494 6.175 L 9.097 6.149 8.843 6.425 " fill="#373B4D" stroke="none" fill-rule="evenodd"></path></svg>