<svg width="24" height="24" viewBox="0 0 24 24" fill="none" xmlns="http://www.w3.org/2000/svg"><path d="M6.700 8.553 C 6.313 8.737,6.032 9.178,6.032 9.600 C 6.032 9.920,6.148 10.119,6.666 10.696 C 7.278 11.377,10.812 14.899,11.183 15.197 C 11.562 15.502,11.706 15.568,11.999 15.570 C 12.420 15.574,12.566 15.457,14.594 13.481 C 16.537 11.589,17.727 10.335,17.905 9.990 C 17.989 9.829,17.996 9.515,17.922 9.260 C 17.842 8.983,17.456 8.587,17.200 8.519 C 16.969 8.458,16.457 8.487,16.296 8.571 C 16.110 8.668,15.207 9.519,13.520 11.187 L 12.000 12.689 10.410 11.118 C 8.749 9.476,8.016 8.785,7.749 8.608 C 7.613 8.518,7.540 8.501,7.225 8.490 C 6.930 8.480,6.829 8.492,6.700 8.553 " fill="#373B4D" stroke="none" fill-rule="evenodd"></path></svg>