<svg width="24" height="24" viewBox="0 0 24 24" fill="none" xmlns="http://www.w3.org/2000/svg"><path d="M10.299 5.015 C 10.002 5.216,8.445 6.721,6.420 8.764 C 4.478 10.723,3.954 11.288,3.783 11.602 C 3.589 11.958,3.648 12.237,4.021 12.720 C 4.626 13.503,8.573 17.485,9.845 18.596 C 10.295 18.990,10.649 19.181,10.847 19.139 C 11.385 19.024,11.863 18.541,11.947 18.027 C 12.010 17.638,11.701 17.283,8.210 13.730 L 6.510 12.000 8.288 10.190 C 11.434 6.987,11.774 6.611,11.895 6.203 C 11.960 5.984,11.939 5.831,11.810 5.580 C 11.650 5.272,11.343 5.057,10.893 4.940 C 10.572 4.856,10.525 4.862,10.299 5.015 M17.499 5.015 C 17.202 5.216,15.645 6.721,13.620 8.764 C 11.678 10.723,11.154 11.288,10.983 11.602 C 10.789 11.958,10.848 12.237,11.221 12.720 C 11.826 13.503,15.773 17.485,17.045 18.596 C 17.495 18.990,17.849 19.181,18.047 19.139 C 18.585 19.024,19.063 18.541,19.147 18.027 C 19.210 17.638,18.901 17.283,15.410 13.730 L 13.710 12.000 15.488 10.190 C 18.634 6.987,18.974 6.611,19.095 6.203 C 19.160 5.984,19.139 5.831,19.010 5.580 C 18.850 5.272,18.543 5.057,18.093 4.940 C 17.772 4.856,17.725 4.862,17.499 5.015 " fill="#373B4D" stroke="none" fill-rule="evenodd"></path></svg>