<svg width="24" height="24" viewBox="0 0 24 24" fill="none" xmlns="http://www.w3.org/2000/svg"><path d="M6.815 8.518 C 6.397 8.618,5.997 9.231,6.049 9.693 C 6.078 9.949,6.170 10.109,6.529 10.523 C 7.019 11.087,10.853 14.913,11.207 15.191 C 11.579 15.482,11.807 15.577,12.069 15.552 C 12.455 15.515,12.556 15.434,14.212 13.846 C 15.830 12.295,17.620 10.434,17.826 10.090 C 18.109 9.617,17.928 8.985,17.412 8.643 C 17.235 8.526,17.207 8.520,16.820 8.520 C 16.437 8.520,16.403 8.527,16.237 8.637 C 15.980 8.808,14.975 9.754,13.390 11.317 L 12.000 12.689 10.570 11.278 C 8.935 9.665,8.089 8.865,7.826 8.684 C 7.568 8.507,7.151 8.438,6.815 8.518 " fill="#373B4D" stroke="none" fill-rule="evenodd"></path></svg>