<svg width="24" height="24" viewBox="0 0 24 24" fill="none" xmlns="http://www.w3.org/2000/svg"><path d="M14.180 6.038 C 14.092 6.053,13.953 6.095,13.870 6.131 C 13.710 6.200,10.109 9.746,9.075 10.853 C 8.585 11.377,8.513 11.472,8.456 11.669 C 8.380 11.930,8.395 12.236,8.495 12.444 C 8.533 12.523,8.767 12.811,9.016 13.084 C 9.624 13.751,13.579 17.671,13.784 17.811 C 14.603 18.368,15.753 17.585,15.568 16.594 C 15.542 16.453,15.475 16.278,15.411 16.184 C 15.350 16.094,14.401 15.115,13.303 14.010 L 11.306 11.999 13.246 10.050 C 14.313 8.977,15.259 8.006,15.349 7.891 C 15.590 7.584,15.654 7.236,15.540 6.853 C 15.376 6.301,14.763 5.934,14.180 6.038 " fill="#373B4D" stroke="none" fill-rule="evenodd"></path></svg>