<svg width="24" height="24" viewBox="0 0 24 24" fill="none" xmlns="http://www.w3.org/2000/svg"><path d="M11.540 8.553 C 11.300 8.669,10.492 9.436,8.518 11.425 C 6.549 13.408,6.159 13.833,6.087 14.071 C 5.963 14.485,6.070 14.876,6.397 15.203 C 6.756 15.562,7.208 15.659,7.620 15.465 C 7.868 15.349,8.565 14.701,10.530 12.762 L 12.000 11.312 13.470 12.763 C 15.365 14.633,16.122 15.334,16.391 15.467 C 17.065 15.799,17.963 15.170,17.959 14.370 C 17.958 14.112,17.859 13.918,17.538 13.540 C 17.179 13.117,13.307 9.245,12.908 8.910 C 12.512 8.577,12.395 8.523,12.012 8.497 C 11.757 8.480,11.671 8.490,11.540 8.553 " fill="#373B4D" stroke="none" fill-rule="evenodd"></path></svg>