<svg width="24" height="24" viewBox="0 0 24 24" fill="none" xmlns="http://www.w3.org/2000/svg"><path d="M5.530 4.946 C 5.305 5.057,5.048 5.315,4.937 5.542 C 4.842 5.737,4.832 5.796,4.849 6.060 C 4.863 6.290,4.891 6.392,4.968 6.509 C 5.153 6.786,6.007 7.681,8.157 9.850 L 10.289 12.000 8.318 13.990 C 6.076 16.253,5.120 17.260,4.967 17.520 C 4.876 17.674,4.861 17.746,4.861 18.020 C 4.861 18.377,4.907 18.497,5.149 18.765 C 5.375 19.015,5.601 19.128,5.922 19.151 C 6.390 19.184,6.468 19.129,7.878 17.758 C 9.438 16.242,12.378 13.277,12.736 12.860 C 13.070 12.470,13.158 12.291,13.158 12.000 C 13.158 11.711,13.071 11.532,12.740 11.140 C 12.355 10.684,7.138 5.487,6.778 5.201 C 6.614 5.071,6.412 4.945,6.330 4.922 C 6.104 4.859,5.680 4.872,5.530 4.946 M12.731 4.937 C 12.532 5.027,12.217 5.344,12.118 5.552 C 12.004 5.793,11.994 6.195,12.096 6.407 C 12.204 6.632,13.019 7.492,15.357 9.850 L 17.489 11.999 15.238 14.270 C 12.859 16.670,12.251 17.313,12.135 17.552 C 12.096 17.634,12.057 17.820,12.048 17.967 C 12.009 18.595,12.486 19.108,13.147 19.151 C 13.540 19.177,13.670 19.107,14.281 18.536 C 15.037 17.831,18.721 14.156,19.478 13.352 C 20.699 12.055,20.698 11.943,19.456 10.620 C 18.590 9.697,15.420 6.525,14.550 5.711 C 13.706 4.921,13.683 4.906,13.225 4.891 C 12.967 4.882,12.822 4.896,12.731 4.937 " fill="#373B4D" stroke="none" fill-rule="evenodd"></path></svg>