<svg width="24" height="24" viewBox="0 0 24 24" fill="none" xmlns="http://www.w3.org/2000/svg"><path d="M11.179 4.025 C 10.619 4.521,5.894 9.247,5.425 9.780 C 4.959 10.310,4.865 10.486,4.866 10.818 C 4.868 11.136,4.987 11.384,5.259 11.632 C 5.496 11.849,5.677 11.917,6.099 11.949 L 6.385 11.970 6.902 11.495 C 7.530 10.918,8.844 9.637,10.647 7.845 L 11.995 6.506 13.867 8.360 C 16.728 11.193,17.416 11.818,17.785 11.922 C 18.210 12.041,18.790 11.735,19.027 11.266 C 19.114 11.094,19.126 11.026,19.114 10.758 C 19.101 10.477,19.086 10.430,18.947 10.227 C 18.620 9.753,13.623 4.732,12.800 4.051 C 12.514 3.815,12.315 3.740,11.859 3.697 L 11.577 3.671 11.179 4.025 M11.178 11.225 C 10.616 11.724,5.892 16.449,5.425 16.980 C 4.959 17.510,4.865 17.686,4.866 18.018 C 4.868 18.336,4.987 18.584,5.259 18.832 C 5.496 19.049,5.677 19.117,6.099 19.149 L 6.385 19.170 6.902 18.695 C 7.530 18.118,8.844 16.837,10.647 15.045 L 11.995 13.706 13.827 15.520 C 15.791 17.464,17.034 18.653,17.382 18.921 C 17.640 19.120,17.828 19.171,18.130 19.122 C 18.573 19.050,18.933 18.763,19.084 18.362 C 19.262 17.888,19.125 17.586,18.362 16.770 C 17.444 15.789,12.874 11.265,12.662 11.127 C 12.431 10.977,12.288 10.935,11.878 10.899 L 11.576 10.872 11.178 11.225 " fill="#373B4D" stroke="none" fill-rule="evenodd"></path></svg>