<svg width="24" height="24" viewBox="0 0 24 24" fill="none" xmlns="http://www.w3.org/2000/svg"><path d="M13.935 6.181 C 13.723 6.290,12.846 7.110,11.245 8.698 C 8.881 11.041,8.519 11.461,8.455 11.933 C 8.394 12.373,8.653 12.685,11.104 15.136 C 12.881 16.913,13.765 17.746,13.980 17.845 C 14.158 17.926,14.498 17.942,14.725 17.879 C 14.910 17.828,15.154 17.634,15.348 17.384 C 15.499 17.190,15.500 17.185,15.500 16.824 C 15.500 16.480,15.493 16.450,15.374 16.280 C 15.086 15.870,14.147 14.870,12.305 13.013 L 11.306 12.006 12.579 10.713 C 14.040 9.230,14.873 8.346,15.206 7.928 C 15.653 7.367,15.661 6.893,15.229 6.474 C 15.000 6.252,14.791 6.168,14.400 6.140 C 14.131 6.122,14.034 6.130,13.935 6.181 " fill="#373B4D" stroke="none" fill-rule="evenodd"></path></svg>