<svg width="24" height="24" viewBox="0 0 24 24" fill="none" xmlns="http://www.w3.org/2000/svg"><path d="M11.236 3.972 C 10.255 4.829,5.869 9.227,5.164 10.060 C 4.715 10.590,4.740 11.145,5.234 11.636 C 5.452 11.853,5.622 11.917,6.060 11.946 L 6.380 11.966 6.805 11.586 C 7.339 11.109,8.680 9.805,10.550 7.943 L 12.000 6.500 13.590 8.084 C 16.501 10.983,17.284 11.714,17.660 11.885 C 18.104 12.087,18.744 11.819,19.018 11.317 C 19.172 11.036,19.187 10.632,19.053 10.379 C 18.891 10.073,18.336 9.488,15.884 7.039 C 13.308 4.465,12.725 3.914,12.460 3.797 C 12.372 3.758,12.138 3.714,11.940 3.699 L 11.580 3.671 11.236 3.972 M11.236 11.171 C 10.252 12.033,5.867 16.430,5.164 17.260 C 4.715 17.790,4.740 18.345,5.234 18.836 C 5.452 19.053,5.622 19.117,6.060 19.146 L 6.380 19.166 6.805 18.786 C 7.339 18.309,8.680 17.005,10.550 15.143 L 12.000 13.700 13.570 15.263 C 16.461 18.139,17.314 18.944,17.620 19.085 C 17.829 19.181,18.011 19.179,18.342 19.077 C 18.862 18.916,19.207 18.419,19.147 17.916 C 19.116 17.657,19.016 17.477,18.697 17.104 C 18.330 16.674,13.391 11.729,12.940 11.340 C 12.742 11.169,12.523 11.005,12.454 10.976 C 12.384 10.946,12.159 10.910,11.954 10.896 L 11.580 10.870 11.236 11.171 " fill="#373B4D" stroke="none" fill-rule="evenodd"></path></svg>