<svg width="24" height="24" viewBox="0 0 24 24" fill="none" xmlns="http://www.w3.org/2000/svg"><path d="M11.268 3.939 C 10.768 4.367,8.487 6.601,7.157 7.966 C 5.374 9.793,5.043 10.153,4.936 10.380 C 4.750 10.772,4.835 11.216,5.164 11.577 C 5.402 11.837,5.587 11.917,6.018 11.948 L 6.342 11.971 6.641 11.730 C 6.995 11.445,8.405 10.080,10.487 8.007 L 11.994 6.506 14.087 8.580 C 17.271 11.735,17.529 11.960,17.966 11.960 C 18.459 11.960,18.971 11.592,19.101 11.143 C 19.199 10.806,19.163 10.528,18.988 10.265 C 18.759 9.921,17.913 9.043,15.455 6.599 C 13.170 4.328,12.661 3.852,12.422 3.761 C 12.358 3.737,12.143 3.707,11.943 3.694 L 11.580 3.671 11.268 3.939 M11.268 11.139 C 10.768 11.567,8.487 13.802,7.157 15.166 C 5.374 16.993,5.043 17.353,4.936 17.580 C 4.750 17.972,4.835 18.416,5.164 18.777 C 5.402 19.037,5.587 19.117,6.018 19.148 L 6.342 19.171 6.641 18.930 C 6.995 18.645,8.405 17.280,10.487 15.207 L 11.994 13.706 14.087 15.780 C 16.426 18.097,17.246 18.873,17.540 19.047 C 17.718 19.152,17.768 19.163,18.001 19.148 C 18.627 19.109,19.098 18.686,19.150 18.117 C 19.178 17.801,19.091 17.572,18.811 17.226 C 18.533 16.882,14.476 12.789,13.457 11.825 C 12.487 10.906,12.510 10.922,11.995 10.893 L 11.580 10.871 11.268 11.139 " fill="#373B4D" stroke="none" fill-rule="evenodd"></path></svg>