<svg width="24" height="24" viewBox="0 0 24 24" fill="none" xmlns="http://www.w3.org/2000/svg"><path d="M9.015 6.234 C 8.773 6.409,8.525 6.714,8.476 6.895 C 8.404 7.161,8.448 7.443,8.600 7.694 C 8.794 8.014,9.463 8.734,11.177 10.470 L 12.689 12.000 11.257 13.450 C 9.639 15.088,8.835 15.945,8.613 16.268 C 8.468 16.478,8.461 16.504,8.464 16.794 C 8.467 17.164,8.548 17.345,8.820 17.595 C 9.050 17.808,9.281 17.913,9.589 17.945 C 9.882 17.976,9.952 17.942,10.449 17.535 C 10.857 17.201,14.558 13.507,15.056 12.938 C 15.471 12.463,15.537 12.332,15.539 11.980 C 15.540 11.618,15.467 11.491,14.889 10.860 C 14.334 10.253,11.149 7.092,10.629 6.631 C 10.156 6.213,9.949 6.120,9.485 6.120 C 9.204 6.120,9.156 6.132,9.015 6.234 " fill="#373B4D" stroke="none" fill-rule="evenodd"></path></svg>