<svg width="24" height="24" viewBox="0 0 24 24" fill="none" xmlns="http://www.w3.org/2000/svg"><path d="M5.620 4.887 C 5.267 5.020,4.985 5.327,4.856 5.719 C 4.797 5.902,4.793 5.966,4.833 6.154 C 4.858 6.275,4.922 6.438,4.974 6.517 C 5.145 6.774,6.577 8.261,8.658 10.343 C 10.719 12.404,11.286 12.938,11.579 13.092 C 11.802 13.209,12.159 13.208,12.401 13.090 C 12.659 12.964,13.947 11.738,16.380 9.302 C 18.393 7.288,18.949 6.695,19.102 6.400 C 19.206 6.198,19.202 5.793,19.093 5.554 C 18.992 5.332,18.744 5.074,18.523 4.962 C 18.396 4.897,18.287 4.880,17.986 4.880 L 17.609 4.880 17.365 5.059 C 17.068 5.278,16.216 6.101,13.833 8.475 L 12.005 10.294 9.753 8.060 C 7.285 5.613,6.729 5.091,6.447 4.958 C 6.230 4.855,5.802 4.818,5.620 4.887 M5.620 12.087 C 5.267 12.220,4.985 12.527,4.856 12.919 C 4.797 13.102,4.793 13.166,4.833 13.354 C 4.858 13.475,4.922 13.638,4.974 13.717 C 5.148 13.979,6.592 15.477,8.698 17.581 C 10.713 19.594,11.306 20.150,11.600 20.301 C 11.805 20.407,12.173 20.402,12.401 20.290 C 12.659 20.164,13.948 18.936,16.380 16.502 C 18.393 14.488,18.949 13.895,19.102 13.600 C 19.206 13.398,19.202 12.993,19.093 12.754 C 18.992 12.532,18.744 12.274,18.523 12.162 C 18.396 12.097,18.287 12.080,17.986 12.080 L 17.609 12.080 17.365 12.259 C 17.068 12.478,16.216 13.301,13.833 15.675 L 12.005 17.494 9.753 15.260 C 7.285 12.813,6.729 12.291,6.447 12.158 C 6.230 12.055,5.802 12.018,5.620 12.087 " fill="#373B4D" stroke="none" fill-rule="evenodd"></path></svg>