<svg width="24" height="24" viewBox="0 0 24 24" fill="none" xmlns="http://www.w3.org/2000/svg"><path d="M13.980 6.187 C 13.759 6.304,13.428 6.598,12.264 7.713 C 11.130 8.799,9.414 10.550,8.919 11.124 C 8.661 11.425,8.492 11.732,8.453 11.978 C 8.395 12.330,8.790 12.793,11.199 15.200 C 12.902 16.902,13.733 17.683,13.978 17.812 C 14.190 17.922,14.598 17.931,14.804 17.828 C 15.005 17.728,15.359 17.371,15.445 17.180 C 15.542 16.969,15.538 16.664,15.438 16.443 C 15.277 16.087,15.001 15.783,12.706 13.431 L 11.312 12.002 12.691 10.591 C 14.674 8.562,15.260 7.912,15.441 7.537 C 15.534 7.347,15.545 7.018,15.466 6.829 C 15.327 6.497,14.942 6.238,14.474 6.162 C 14.149 6.109,14.124 6.110,13.980 6.187 " fill="#373B4D" stroke="none" fill-rule="evenodd"></path></svg>