<svg width="24" height="24" viewBox="0 0 24 24" fill="none" xmlns="http://www.w3.org/2000/svg"><path d="M8.711 6.470 C 5.639 9.530,5.180 10.012,5.000 10.372 C 4.640 11.093,5.167 11.873,6.062 11.946 C 6.325 11.967,6.349 11.962,6.500 11.849 C 6.735 11.674,7.608 10.834,9.930 8.549 L 12.001 6.512 13.790 8.282 C 16.362 10.826,17.273 11.670,17.632 11.845 C 17.985 12.017,18.449 11.905,18.786 11.566 C 19.004 11.346,19.092 11.154,19.112 10.850 C 19.140 10.447,19.044 10.300,18.124 9.333 C 17.159 8.319,13.470 4.652,13.004 4.244 C 12.820 4.083,12.576 3.908,12.463 3.856 C 12.277 3.771,11.846 3.683,11.606 3.681 C 11.535 3.680,10.840 4.349,8.711 6.470 M8.715 13.665 C 5.637 16.732,5.180 17.212,5.000 17.572 C 4.640 18.293,5.167 19.073,6.062 19.146 C 6.325 19.167,6.349 19.162,6.500 19.049 C 6.735 18.874,7.608 18.034,9.933 15.747 L 12.006 13.707 13.293 14.987 C 16.076 17.755,17.283 18.894,17.593 19.046 C 17.734 19.114,17.816 19.127,18.033 19.111 C 18.481 19.079,18.834 18.844,19.027 18.449 C 19.243 18.008,19.155 17.686,18.658 17.106 C 18.281 16.665,13.152 11.552,12.815 11.281 C 12.486 11.017,12.289 10.941,11.811 10.897 L 11.521 10.870 8.715 13.665 " fill="#373B4D" stroke="none" fill-rule="evenodd"></path></svg>