<svg width="24" height="24" viewBox="0 0 24 24" fill="none" xmlns="http://www.w3.org/2000/svg"><path d="M10.080 5.129 C 9.614 5.528,6.992 8.100,5.657 9.468 C 3.634 11.539,3.643 11.528,3.641 11.982 C 3.640 12.349,3.753 12.531,4.450 13.282 C 5.714 14.644,9.757 18.639,10.254 19.018 C 10.504 19.209,10.971 19.218,11.322 19.039 C 11.528 18.934,11.821 18.594,11.896 18.373 C 11.985 18.113,11.978 17.797,11.878 17.586 C 11.756 17.325,11.114 16.643,8.702 14.210 L 6.512 12.000 8.623 9.870 C 10.782 7.691,11.594 6.839,11.814 6.520 C 11.916 6.372,11.941 6.292,11.954 6.068 C 11.974 5.716,11.892 5.499,11.643 5.244 C 11.366 4.959,11.247 4.910,10.780 4.889 L 10.380 4.871 10.080 5.129 M17.280 5.129 C 16.821 5.522,14.162 8.130,12.840 9.484 C 10.844 11.528,10.843 11.530,10.841 11.982 C 10.840 12.349,10.953 12.531,11.650 13.282 C 12.914 14.644,16.957 18.639,17.454 19.018 C 17.704 19.209,18.171 19.218,18.522 19.039 C 18.728 18.934,19.021 18.594,19.096 18.373 C 19.185 18.113,19.178 17.797,19.078 17.586 C 18.956 17.326,18.317 16.646,15.902 14.210 L 13.712 12.000 15.823 9.870 C 17.982 7.691,18.794 6.839,19.014 6.520 C 19.116 6.372,19.141 6.292,19.154 6.068 C 19.174 5.716,19.092 5.499,18.843 5.244 C 18.566 4.959,18.447 4.910,17.980 4.889 L 17.580 4.871 17.280 5.129 " fill="#373B4D" stroke="none" fill-rule="evenodd"></path></svg>