<svg width="24" height="24" viewBox="0 0 24 24" fill="none" xmlns="http://www.w3.org/2000/svg"><path d="M5.680 4.877 C 5.345 4.980,5.019 5.301,4.881 5.662 C 4.801 5.873,4.795 5.924,4.834 6.114 C 4.858 6.232,4.922 6.403,4.975 6.494 C 5.120 6.740,6.416 8.093,8.620 10.300 C 11.331 13.014,11.521 13.175,11.999 13.171 C 12.302 13.168,12.454 13.084,12.940 12.651 C 13.949 11.752,18.295 7.411,18.832 6.766 C 19.125 6.414,19.167 6.317,19.167 5.995 C 19.167 5.642,19.067 5.429,18.775 5.163 C 18.519 4.929,18.376 4.881,17.934 4.880 L 17.608 4.880 17.360 5.067 C 17.060 5.292,15.948 6.368,13.693 8.614 L 12.006 10.294 9.893 8.200 C 7.453 5.782,6.743 5.116,6.460 4.982 C 6.246 4.880,5.844 4.826,5.680 4.877 M5.680 12.077 C 5.345 12.180,5.019 12.501,4.881 12.862 C 4.801 13.073,4.795 13.124,4.834 13.314 C 4.858 13.432,4.922 13.603,4.975 13.694 C 5.119 13.939,6.398 15.274,8.554 17.432 C 10.516 19.394,11.255 20.094,11.548 20.266 C 11.679 20.344,11.771 20.365,11.974 20.365 C 12.312 20.365,12.439 20.297,12.940 19.851 C 13.941 18.959,18.299 14.607,18.831 13.967 C 19.125 13.614,19.167 13.517,19.167 13.195 C 19.167 12.842,19.067 12.629,18.775 12.363 C 18.519 12.129,18.376 12.081,17.934 12.080 L 17.608 12.080 17.360 12.267 C 17.060 12.492,15.948 13.568,13.693 15.814 L 12.006 17.494 9.893 15.400 C 7.453 12.982,6.743 12.316,6.460 12.182 C 6.246 12.080,5.844 12.026,5.680 12.077 " fill="#373B4D" stroke="none" fill-rule="evenodd"></path></svg>