<svg width="24" height="24" viewBox="0 0 24 24" fill="none" xmlns="http://www.w3.org/2000/svg"><path d="M9.100 6.144 C 8.905 6.250,8.641 6.525,8.529 6.740 C 8.450 6.890,8.424 7.000,8.423 7.180 C 8.421 7.654,8.594 7.862,11.022 10.316 L 12.689 11.999 11.038 13.670 C 8.561 16.176,8.429 16.335,8.428 16.800 C 8.427 17.338,8.854 17.814,9.469 17.958 C 9.752 18.025,9.986 17.945,10.323 17.666 C 11.032 17.081,14.634 13.484,15.236 12.761 C 15.523 12.416,15.571 12.290,15.553 11.938 C 15.541 11.689,15.520 11.624,15.395 11.436 C 15.182 11.116,13.844 9.725,12.217 8.133 C 10.658 6.608,10.344 6.319,10.100 6.190 C 9.883 6.075,9.278 6.047,9.100 6.144 " fill="#373B4D" stroke="none" fill-rule="evenodd"></path></svg>