<svg width="24" height="24" viewBox="0 0 24 24" fill="none" xmlns="http://www.w3.org/2000/svg"><path d="M13.900 6.192 C 13.379 6.526,9.301 10.553,8.760 11.268 C 8.571 11.518,8.440 11.826,8.440 12.022 C 8.440 12.180,8.558 12.451,8.722 12.667 C 9.127 13.204,13.204 17.275,13.785 17.724 C 13.993 17.884,14.033 17.899,14.287 17.914 C 14.699 17.937,14.889 17.868,15.167 17.597 C 15.295 17.471,15.428 17.303,15.461 17.225 C 15.535 17.046,15.538 16.600,15.465 16.425 C 15.350 16.150,14.340 15.059,12.284 12.990 L 11.301 12.000 12.264 11.030 C 14.335 8.945,15.263 7.945,15.427 7.625 C 15.482 7.517,15.537 7.333,15.549 7.216 C 15.588 6.839,15.323 6.444,14.880 6.219 C 14.788 6.172,14.618 6.142,14.380 6.131 C 14.075 6.117,14.002 6.126,13.900 6.192 " fill="#373B4D" stroke="none" fill-rule="evenodd"></path></svg>