<svg width="24" height="24" viewBox="0 0 24 24" fill="none" xmlns="http://www.w3.org/2000/svg"><path d="M6.700 8.592 C 6.354 8.756,6.069 9.207,6.065 9.600 C 6.061 9.967,6.187 10.141,7.284 11.279 C 8.459 12.499,11.083 15.075,11.367 15.289 C 11.478 15.372,11.665 15.468,11.784 15.503 C 11.981 15.560,12.020 15.560,12.218 15.502 C 12.496 15.422,12.728 15.235,13.735 14.288 C 14.753 13.329,17.052 11.001,17.458 10.517 C 17.793 10.118,17.959 9.818,17.960 9.612 C 17.960 9.371,17.801 9.036,17.581 8.816 C 17.320 8.554,17.067 8.485,16.610 8.550 C 16.364 8.584,16.287 8.616,16.110 8.753 C 15.787 9.003,15.155 9.599,13.507 11.212 L 11.994 12.693 10.987 11.693 C 8.932 9.651,8.033 8.819,7.689 8.640 C 7.444 8.512,6.922 8.487,6.700 8.592 " fill="#373B4D" stroke="none" fill-rule="evenodd"></path></svg>