<svg width="24" height="24" viewBox="0 0 24 24" fill="none" xmlns="http://www.w3.org/2000/svg"><path d="M13.974 6.184 C 13.750 6.294,13.364 6.642,12.065 7.902 C 10.536 9.384,8.981 10.997,8.716 11.373 C 8.485 11.702,8.404 11.989,8.478 12.214 C 8.504 12.294,8.606 12.468,8.704 12.602 C 9.135 13.187,13.391 17.434,13.856 17.742 C 14.026 17.855,14.126 17.892,14.316 17.909 C 14.654 17.940,14.857 17.854,15.175 17.546 C 15.446 17.284,15.519 17.130,15.520 16.817 C 15.520 16.329,15.380 16.160,12.769 13.490 L 11.312 11.999 12.443 10.850 C 14.543 8.715,15.288 7.891,15.452 7.521 C 15.726 6.904,15.282 6.275,14.491 6.161 C 14.139 6.110,14.123 6.111,13.974 6.184 " fill="#373B4D" stroke="none" fill-rule="evenodd"></path></svg>