<svg width="24" height="24" viewBox="0 0 24 24" fill="none" xmlns="http://www.w3.org/2000/svg"><path d="M14.060 6.087 C 13.994 6.112,13.877 6.172,13.800 6.221 C 13.473 6.427,9.684 10.177,8.915 11.057 C 8.537 11.489,8.469 11.622,8.448 11.965 C 8.424 12.351,8.502 12.492,9.104 13.143 C 9.791 13.885,12.560 16.650,13.258 17.290 C 13.894 17.873,14.052 17.967,14.399 17.965 C 15.199 17.961,15.802 17.060,15.461 16.376 C 15.324 16.102,14.720 15.449,12.883 13.590 L 11.312 12.000 12.902 10.390 C 14.731 8.538,15.366 7.855,15.485 7.610 C 15.600 7.373,15.598 6.983,15.481 6.741 C 15.308 6.385,14.858 6.097,14.417 6.061 C 14.286 6.050,14.126 6.062,14.060 6.087 " fill="#373B4D" stroke="none" fill-rule="evenodd"></path></svg>