<svg width="24" height="24" viewBox="0 0 24 24" fill="none" xmlns="http://www.w3.org/2000/svg"><path d="M9.187 6.147 C 9.047 6.171,8.645 6.564,8.544 6.777 C 8.383 7.116,8.421 7.403,8.678 7.786 C 8.886 8.098,9.742 9.012,11.357 10.650 L 12.689 12.000 11.397 13.310 C 9.864 14.865,8.850 15.942,8.655 16.225 C 8.477 16.483,8.434 16.670,8.486 16.957 C 8.576 17.457,8.906 17.780,9.468 17.922 C 9.738 17.990,9.914 17.939,10.227 17.703 C 10.779 17.287,14.873 13.193,15.266 12.665 C 15.600 12.216,15.622 11.841,15.340 11.413 C 15.051 10.976,10.914 6.831,10.356 6.420 C 10.222 6.322,10.047 6.224,9.966 6.202 C 9.782 6.153,9.336 6.121,9.187 6.147 " fill="#373B4D" stroke="none" fill-rule="evenodd"></path></svg>