<svg width="24" height="24" viewBox="0 0 24 24" fill="none" xmlns="http://www.w3.org/2000/svg"><path d="M5.500 4.986 C 5.342 5.069,5.058 5.344,4.948 5.520 C 4.875 5.636,4.861 5.715,4.864 5.981 C 4.867 6.186,4.891 6.345,4.931 6.421 C 5.072 6.690,6.294 7.975,8.873 10.567 L 10.294 11.994 8.620 13.687 C 6.595 15.734,5.196 17.199,5.040 17.434 C 4.876 17.680,4.816 17.974,4.878 18.234 C 4.983 18.670,5.306 18.986,5.773 19.109 C 6.356 19.262,6.451 19.184,9.776 15.858 C 12.980 12.652,13.137 12.471,13.137 12.000 C 13.137 11.531,12.927 11.291,9.655 8.038 C 7.271 5.667,6.684 5.116,6.420 4.995 C 6.212 4.900,5.674 4.895,5.500 4.986 M12.700 4.980 C 12.544 5.064,12.258 5.343,12.148 5.520 C 12.075 5.636,12.060 5.719,12.060 6.003 C 12.060 6.312,12.071 6.363,12.169 6.505 C 12.341 6.752,13.705 8.178,15.680 10.173 L 17.494 12.005 16.034 13.473 C 14.218 15.296,12.973 16.579,12.511 17.099 C 12.227 17.419,12.145 17.541,12.094 17.716 C 11.925 18.297,12.265 18.893,12.873 19.081 C 13.332 19.223,13.506 19.173,14.003 18.755 C 14.793 18.091,19.698 13.168,20.063 12.672 C 20.518 12.054,20.472 11.766,19.798 11.007 C 19.295 10.440,14.572 5.710,14.180 5.381 C 13.725 4.999,13.612 4.948,13.180 4.930 C 12.904 4.919,12.792 4.931,12.700 4.980 " fill="#373B4D" stroke="none" fill-rule="evenodd"></path></svg>