<svg width="24" height="24" viewBox="0 0 24 24" fill="none" xmlns="http://www.w3.org/2000/svg"><path d="M9.974 5.230 C 9.428 5.714,4.521 10.618,4.140 11.060 C 3.791 11.463,3.641 11.741,3.640 11.984 C 3.640 12.224,3.828 12.565,4.191 12.980 C 4.751 13.620,7.278 16.189,8.465 17.325 C 10.364 19.142,10.363 19.141,10.777 19.139 C 11.111 19.137,11.372 19.022,11.603 18.773 C 11.808 18.553,11.877 18.427,11.922 18.190 C 11.983 17.870,11.936 17.669,11.739 17.407 C 11.479 17.061,10.325 15.853,8.320 13.827 L 6.506 11.995 7.926 10.567 C 10.613 7.868,11.690 6.731,11.846 6.427 C 11.950 6.224,11.982 5.929,11.920 5.736 C 11.849 5.515,11.577 5.173,11.379 5.058 C 11.274 4.996,11.101 4.945,10.916 4.921 C 10.383 4.852,10.410 4.843,9.974 5.230 M17.174 5.230 C 16.628 5.714,11.721 10.618,11.340 11.060 C 10.991 11.463,10.841 11.741,10.840 11.984 C 10.840 12.224,11.028 12.565,11.391 12.980 C 11.951 13.620,14.478 16.189,15.665 17.325 C 17.564 19.142,17.563 19.141,17.977 19.139 C 18.311 19.137,18.572 19.022,18.803 18.773 C 19.008 18.553,19.077 18.427,19.122 18.190 C 19.183 17.870,19.136 17.669,18.939 17.407 C 18.679 17.061,17.525 15.853,15.520 13.827 L 13.706 11.995 15.126 10.567 C 17.813 7.868,18.890 6.731,19.046 6.427 C 19.150 6.224,19.182 5.929,19.120 5.736 C 19.049 5.515,18.777 5.173,18.579 5.058 C 18.474 4.996,18.301 4.945,18.116 4.921 C 17.583 4.852,17.610 4.843,17.174 5.230 " fill="#373B4D" stroke="none" fill-rule="evenodd"></path></svg>