<svg width="24" height="24" viewBox="0 0 24 24" fill="none" xmlns="http://www.w3.org/2000/svg"><path d="M12.960 4.836 C 12.725 4.884,12.398 5.088,12.255 5.275 C 12.015 5.589,11.947 5.967,12.061 6.352 C 12.141 6.619,12.221 6.704,15.156 9.648 L 17.497 11.997 14.898 14.608 C 13.469 16.045,12.250 17.294,12.189 17.384 C 11.943 17.746,11.955 18.290,12.216 18.657 C 12.539 19.112,13.036 19.292,13.549 19.139 C 13.727 19.087,13.849 18.988,14.487 18.384 C 15.463 17.459,19.769 13.129,20.039 12.800 C 20.400 12.362,20.470 12.092,20.339 11.651 C 20.262 11.389,20.117 11.234,17.323 8.427 C 14.730 5.821,13.893 5.018,13.665 4.920 C 13.467 4.834,13.153 4.796,12.960 4.836 M5.500 4.926 C 5.264 5.048,5.017 5.305,4.914 5.536 C 4.796 5.801,4.787 6.234,4.896 6.440 C 5.036 6.704,5.342 7.026,7.816 9.510 L 10.296 11.999 7.737 14.570 C 6.329 15.983,5.110 17.241,5.026 17.365 C 4.942 17.488,4.858 17.659,4.839 17.744 C 4.796 17.933,4.849 18.385,4.932 18.543 C 5.025 18.719,5.359 19.028,5.537 19.102 C 5.754 19.192,6.261 19.192,6.452 19.101 C 6.828 18.923,12.924 12.825,13.104 12.447 C 13.199 12.247,13.200 11.753,13.104 11.554 C 12.917 11.163,6.836 5.086,6.460 4.915 C 6.228 4.809,5.715 4.815,5.500 4.926 " fill="#373B4D" stroke="none" fill-rule="evenodd"></path></svg>