<svg width="24" height="24" viewBox="0 0 24 24" fill="none" xmlns="http://www.w3.org/2000/svg"><path d="M10.676 4.532 C 9.467 5.691,5.680 9.503,5.349 9.894 C 4.992 10.316,4.901 10.510,4.902 10.840 C 4.903 11.440,5.378 11.880,6.098 11.947 C 6.335 11.969,6.345 11.966,6.547 11.807 C 6.803 11.604,7.476 10.955,10.012 8.463 L 12.005 6.505 13.292 7.786 C 16.067 10.547,17.253 11.654,17.620 11.826 C 17.986 11.997,18.377 11.921,18.722 11.611 C 19.003 11.358,19.093 11.168,19.097 10.820 C 19.101 10.457,19.047 10.353,18.588 9.834 C 17.642 8.766,13.084 4.261,12.674 3.991 C 12.441 3.836,12.170 3.747,11.792 3.700 L 11.573 3.672 10.676 4.532 M8.557 13.827 C 6.938 15.451,5.494 16.921,5.348 17.094 C 4.992 17.516,4.901 17.710,4.902 18.040 C 4.903 18.640,5.378 19.080,6.098 19.147 C 6.335 19.169,6.345 19.166,6.542 19.010 C 6.802 18.805,7.594 18.042,10.033 15.645 L 12.005 13.706 13.333 15.025 C 16.018 17.694,17.178 18.791,17.540 19.006 C 17.722 19.114,17.764 19.123,18.009 19.105 C 18.486 19.069,18.842 18.832,19.036 18.419 C 19.221 18.025,19.142 17.709,18.730 17.200 C 18.367 16.750,12.897 11.321,12.651 11.165 C 12.392 11.001,12.181 10.936,11.797 10.901 L 11.500 10.874 8.557 13.827 " fill="#373B4D" stroke="none" fill-rule="evenodd"></path></svg>