<svg width="24" height="24" viewBox="0 0 24 24" fill="none" xmlns="http://www.w3.org/2000/svg"><path d="M6.890 8.522 C 6.532 8.571,6.179 8.964,6.075 9.427 C 6.007 9.731,6.091 9.979,6.384 10.341 C 6.717 10.752,11.058 15.079,11.351 15.292 C 11.820 15.634,12.210 15.628,12.651 15.274 C 13.123 14.895,14.239 13.828,15.662 12.394 C 17.980 10.058,18.093 9.900,17.892 9.279 C 17.804 9.005,17.501 8.670,17.258 8.577 C 17.042 8.495,16.484 8.515,16.297 8.611 C 16.058 8.736,14.904 9.819,12.990 11.718 L 12.000 12.699 10.950 11.657 C 8.857 9.581,8.090 8.864,7.735 8.655 C 7.550 8.547,7.158 8.485,6.890 8.522 " fill="#373B4D" stroke="none" fill-rule="evenodd"></path></svg>