<svg width="24" height="24" viewBox="0 0 24 24" fill="none" xmlns="http://www.w3.org/2000/svg"><path d="M11.528 8.624 C 11.310 8.736,10.429 9.568,8.759 11.238 C 7.007 12.991,6.281 13.769,6.155 14.031 C 6.054 14.238,6.064 14.574,6.177 14.809 C 6.373 15.217,6.831 15.537,7.220 15.537 C 7.631 15.537,7.872 15.332,10.749 12.529 L 11.998 11.312 13.449 12.731 C 14.247 13.512,15.089 14.323,15.320 14.533 C 16.180 15.317,16.597 15.592,16.850 15.544 C 17.084 15.499,17.393 15.329,17.581 15.141 C 18.008 14.714,18.025 14.285,17.636 13.770 C 17.381 13.433,15.431 11.436,14.015 10.064 C 12.555 8.649,12.483 8.596,11.966 8.572 C 11.735 8.560,11.628 8.573,11.528 8.624 " fill="#373B4D" stroke="none" fill-rule="evenodd"></path></svg>