<svg width="24" height="24" viewBox="0 0 24 24" fill="none" xmlns="http://www.w3.org/2000/svg"><path d="M11.311 3.896 C 10.473 4.593,5.492 9.597,5.015 10.223 C 4.712 10.621,4.785 11.212,5.186 11.614 C 5.449 11.877,5.608 11.939,6.023 11.939 L 6.386 11.940 6.664 11.716 C 7.008 11.438,8.285 10.200,10.387 8.106 L 11.995 6.506 14.207 8.700 C 16.623 11.096,17.326 11.757,17.590 11.885 C 17.945 12.057,18.512 11.928,18.838 11.602 C 19.041 11.399,19.133 11.184,19.152 10.873 C 19.178 10.456,19.086 10.302,18.336 9.500 C 17.545 8.654,13.975 5.087,13.223 4.390 C 12.917 4.107,12.593 3.837,12.503 3.790 C 12.380 3.726,12.247 3.701,11.960 3.689 L 11.580 3.673 11.311 3.896 M11.311 11.096 C 10.474 11.792,5.492 16.797,5.015 17.423 C 4.712 17.821,4.785 18.412,5.186 18.814 C 5.449 19.077,5.608 19.139,6.023 19.139 L 6.386 19.140 6.664 18.916 C 7.008 18.638,8.285 17.400,10.387 15.306 L 11.995 13.706 14.207 15.900 C 16.623 18.296,17.326 18.957,17.590 19.085 C 17.728 19.152,17.819 19.166,18.032 19.153 C 18.865 19.105,19.398 18.293,19.066 17.579 C 18.940 17.308,18.202 16.528,15.857 14.185 C 13.791 12.121,12.818 11.186,12.555 11.012 C 12.406 10.913,12.345 10.900,11.984 10.887 L 11.580 10.873 11.311 11.096 " fill="#373B4D" stroke="none" fill-rule="evenodd"></path></svg>