<svg width="24" height="24" viewBox="0 0 24 24" fill="none" xmlns="http://www.w3.org/2000/svg"><path d="M5.489 4.965 C 5.264 5.076,4.978 5.407,4.879 5.672 C 4.782 5.931,4.782 5.933,4.879 6.246 C 4.947 6.467,5.012 6.561,5.381 6.971 C 6.276 7.966,10.632 12.328,11.200 12.798 C 11.342 12.916,11.531 13.045,11.620 13.085 C 11.836 13.184,12.171 13.182,12.377 13.081 C 12.655 12.946,13.342 12.301,15.595 10.062 C 18.038 7.634,18.957 6.675,19.078 6.425 C 19.185 6.203,19.188 5.806,19.084 5.577 C 18.984 5.357,18.786 5.138,18.570 5.012 C 18.420 4.924,18.329 4.904,18.005 4.889 L 17.618 4.870 17.319 5.108 C 16.963 5.391,15.760 6.555,13.593 8.713 L 12.006 10.294 9.993 8.300 C 7.985 6.312,6.914 5.290,6.633 5.095 C 6.300 4.864,5.805 4.808,5.489 4.965 M5.489 12.165 C 5.264 12.276,4.978 12.607,4.879 12.872 C 4.782 13.131,4.782 13.133,4.879 13.446 C 4.947 13.667,5.013 13.763,5.387 14.180 C 5.913 14.768,10.013 18.898,10.763 19.595 C 11.501 20.281,11.583 20.334,11.923 20.353 C 12.287 20.374,12.425 20.304,12.980 19.812 C 13.530 19.326,17.558 15.327,18.383 14.448 C 18.720 14.089,19.032 13.719,19.078 13.625 C 19.185 13.403,19.188 13.006,19.084 12.777 C 18.984 12.557,18.786 12.338,18.570 12.212 C 18.420 12.124,18.329 12.104,18.005 12.089 L 17.618 12.070 17.319 12.308 C 16.963 12.591,15.760 13.755,13.593 15.913 L 12.006 17.494 9.993 15.500 C 7.985 13.512,6.914 12.490,6.633 12.295 C 6.300 12.064,5.805 12.008,5.489 12.165 " fill="#373B4D" stroke="none" fill-rule="evenodd"></path></svg>