<svg width="24" height="24" viewBox="0 0 24 24" fill="none" xmlns="http://www.w3.org/2000/svg"><path d="M9.099 1.392 C 9.011 1.434,8.855 1.561,8.752 1.675 C 8.515 1.939,8.439 2.236,8.410 3.025 L 8.389 3.590 7.765 3.616 C 6.839 3.655,5.856 3.718,5.549 3.759 C 5.026 3.827,4.516 4.154,4.080 4.703 C 3.694 5.189,3.651 5.419,3.613 7.165 L 3.587 8.390 3.044 8.438 C 1.982 8.533,1.678 8.634,1.453 8.971 C 1.178 9.381,1.202 9.936,1.511 10.301 C 1.793 10.633,2.157 10.753,2.987 10.787 L 3.600 10.813 3.600 12.006 L 3.600 13.200 3.510 13.200 C 3.254 13.202,2.428 13.291,2.209 13.342 C 1.722 13.454,1.429 13.691,1.300 14.080 C 1.141 14.558,1.405 15.158,1.882 15.401 C 2.101 15.513,2.663 15.600,3.165 15.600 L 3.600 15.600 3.600 16.470 C 3.600 17.436,3.656 18.330,3.735 18.635 C 3.764 18.744,3.848 18.939,3.923 19.066 C 4.101 19.368,4.634 19.904,4.943 20.090 C 5.357 20.341,5.499 20.361,7.030 20.388 L 8.400 20.412 8.401 20.856 C 8.404 21.637,8.536 22.123,8.826 22.413 C 9.094 22.680,9.457 22.772,9.892 22.682 C 10.513 22.553,10.795 21.982,10.799 20.850 L 10.800 20.400 11.994 20.400 L 13.188 20.400 13.211 20.970 C 13.247 21.862,13.333 22.144,13.659 22.431 C 14.144 22.858,14.967 22.776,15.309 22.265 C 15.516 21.957,15.599 21.552,15.600 20.850 L 15.600 20.400 16.350 20.399 C 17.312 20.398,18.241 20.340,18.583 20.261 C 18.980 20.169,19.219 20.021,19.620 19.620 C 20.021 19.219,20.169 18.980,20.261 18.583 C 20.340 18.241,20.398 17.312,20.399 16.350 L 20.400 15.600 20.870 15.600 C 21.912 15.599,22.318 15.427,22.612 14.860 C 22.830 14.440,22.772 14.045,22.438 13.664 C 22.371 13.588,22.241 13.489,22.148 13.445 C 21.970 13.360,21.385 13.264,20.770 13.219 L 20.400 13.192 20.400 11.996 L 20.400 10.800 20.870 10.800 C 21.912 10.799,22.318 10.627,22.612 10.060 C 22.830 9.640,22.772 9.245,22.438 8.864 C 22.371 8.788,22.241 8.689,22.148 8.645 C 21.970 8.560,21.385 8.464,20.770 8.419 L 20.400 8.392 20.399 7.646 C 20.397 6.452,20.339 5.581,20.241 5.300 C 20.037 4.714,19.378 4.033,18.827 3.839 C 18.575 3.750,16.676 3.601,15.790 3.600 L 15.600 3.600 15.600 3.250 C 15.599 2.800,15.539 2.277,15.460 2.039 C 15.383 1.809,15.162 1.543,14.962 1.441 C 14.756 1.336,14.255 1.294,14.015 1.361 C 13.762 1.432,13.433 1.759,13.345 2.026 C 13.253 2.306,13.202 2.721,13.201 3.190 L 13.200 3.600 12.006 3.600 L 10.813 3.600 10.787 2.910 C 10.773 2.530,10.742 2.152,10.719 2.070 C 10.667 1.889,10.325 1.527,10.108 1.426 C 10.015 1.382,9.821 1.347,9.608 1.335 C 9.322 1.319,9.231 1.329,9.099 1.392 M18.000 12.000 L 18.000 18.000 12.000 18.000 L 6.000 18.000 6.000 12.000 L 6.000 6.000 12.000 6.000 L 18.000 6.000 18.000 12.000 M8.400 12.000 L 8.400 15.600 12.000 15.600 L 15.600 15.600 15.600 12.000 L 15.600 8.400 12.000 8.400 L 8.400 8.400 8.400 12.000 " fill="#373B4D" stroke="none" fill-rule="evenodd"></path></svg>