<svg width="24" height="24" viewBox="0 0 24 24" fill="none" xmlns="http://www.w3.org/2000/svg"><path d="M9.076 1.340 C 8.848 1.458,8.555 1.778,8.483 1.985 C 8.448 2.083,8.422 2.407,8.411 2.870 L 8.392 3.600 7.506 3.603 C 7.019 3.605,6.337 3.619,5.992 3.635 L 5.364 3.664 4.992 3.849 C 4.382 4.152,3.948 4.632,3.731 5.245 C 3.627 5.538,3.626 5.550,3.608 6.964 L 3.591 8.388 2.865 8.413 C 2.466 8.426,2.070 8.457,1.984 8.482 C 1.783 8.540,1.412 8.887,1.312 9.111 C 1.207 9.346,1.207 9.854,1.312 10.090 C 1.410 10.310,1.783 10.659,1.984 10.721 C 2.070 10.747,2.469 10.778,2.870 10.789 L 3.600 10.810 3.600 11.999 L 3.600 13.188 2.870 13.212 C 2.469 13.226,2.070 13.257,1.984 13.282 C 1.783 13.340,1.412 13.687,1.312 13.911 C 1.207 14.146,1.207 14.654,1.312 14.890 C 1.410 15.110,1.783 15.459,1.984 15.521 C 2.070 15.547,2.466 15.578,2.865 15.589 L 3.591 15.610 3.608 17.035 C 3.626 18.450,3.627 18.462,3.731 18.755 C 3.977 19.450,4.550 20.023,5.245 20.269 C 5.538 20.373,5.550 20.374,6.965 20.392 L 8.391 20.409 8.407 21.155 C 8.426 22.029,8.462 22.146,8.819 22.472 C 9.139 22.764,9.533 22.850,9.974 22.723 C 10.217 22.653,10.559 22.349,10.686 22.089 C 10.771 21.916,10.780 21.835,10.794 21.150 L 10.809 20.400 12.000 20.400 L 13.191 20.400 13.206 21.150 C 13.224 22.022,13.259 22.137,13.603 22.458 C 13.869 22.708,14.033 22.772,14.400 22.772 C 14.767 22.772,14.931 22.708,15.197 22.458 C 15.541 22.137,15.576 22.021,15.594 21.155 L 15.608 20.409 17.034 20.392 C 18.450 20.374,18.462 20.373,18.755 20.269 C 19.450 20.023,20.023 19.450,20.269 18.755 C 20.373 18.462,20.374 18.450,20.392 17.034 L 20.409 15.608 21.155 15.594 C 22.028 15.576,22.144 15.540,22.472 15.181 C 22.701 14.931,22.783 14.699,22.774 14.330 C 22.766 14.011,22.658 13.785,22.397 13.542 C 22.096 13.260,22.019 13.239,21.156 13.212 L 20.400 13.187 20.400 11.998 L 20.400 10.809 21.150 10.794 C 22.029 10.776,22.144 10.740,22.472 10.381 C 22.701 10.131,22.783 9.899,22.774 9.530 C 22.766 9.211,22.658 8.985,22.397 8.742 C 22.097 8.460,22.018 8.439,21.161 8.412 L 20.409 8.388 20.392 6.964 C 20.374 5.550,20.373 5.538,20.269 5.245 C 20.053 4.636,19.613 4.149,19.009 3.849 L 18.636 3.664 18.008 3.635 C 17.663 3.619,16.982 3.605,16.495 3.603 L 15.610 3.600 15.589 2.870 C 15.578 2.469,15.547 2.068,15.521 1.980 C 15.456 1.763,15.040 1.355,14.815 1.289 C 14.604 1.226,14.196 1.226,13.985 1.289 C 13.760 1.355,13.344 1.763,13.279 1.980 C 13.253 2.068,13.222 2.469,13.211 2.870 L 13.190 3.600 12.000 3.600 L 10.810 3.600 10.793 2.850 C 10.779 2.169,10.769 2.083,10.686 1.911 C 10.570 1.674,10.221 1.351,10.011 1.288 C 9.733 1.205,9.287 1.229,9.076 1.340 M18.000 12.000 L 18.000 18.000 12.000 18.000 L 6.000 18.000 6.000 12.000 L 6.000 6.000 12.000 6.000 L 18.000 6.000 18.000 12.000 M8.400 12.000 L 8.400 15.600 12.000 15.600 L 15.600 15.600 15.600 12.000 L 15.600 8.400 12.000 8.400 L 8.400 8.400 8.400 12.000 " fill="#373B4D" stroke="none" fill-rule="evenodd"></path></svg>