<svg width="24" height="24" viewBox="0 0 24 24" fill="none" xmlns="http://www.w3.org/2000/svg"><path d="M14.075 1.375 C 13.721 1.502,13.490 1.727,13.357 2.077 C 13.277 2.289,13.200 2.896,13.200 3.318 L 13.200 3.600 12.000 3.600 L 10.800 3.600 10.800 3.230 C 10.799 1.870,10.501 1.437,9.520 1.373 C 9.187 1.352,9.176 1.354,9.010 1.476 C 8.592 1.782,8.447 2.168,8.410 3.066 L 8.389 3.592 7.904 3.619 C 7.008 3.668,5.782 3.762,5.540 3.800 C 5.053 3.877,4.427 4.282,4.074 4.748 C 3.706 5.234,3.649 5.541,3.613 7.226 L 3.588 8.392 3.324 8.419 C 2.748 8.477,2.025 8.603,1.867 8.673 C 1.637 8.775,1.418 9.031,1.342 9.285 C 1.155 9.916,1.460 10.439,2.140 10.654 C 2.390 10.733,2.926 10.800,3.309 10.800 L 3.600 10.800 3.600 11.996 L 3.600 13.192 3.310 13.219 C 2.826 13.264,2.312 13.353,2.023 13.442 C 1.280 13.672,1.051 14.463,1.543 15.107 C 1.754 15.384,2.288 15.553,3.064 15.588 L 3.588 15.611 3.611 16.796 C 3.648 18.675,3.706 18.875,4.416 19.583 C 4.931 20.096,5.193 20.250,5.680 20.320 C 5.845 20.344,6.522 20.375,7.184 20.388 L 8.388 20.411 8.413 20.936 C 8.450 21.723,8.568 22.122,8.848 22.402 C 9.039 22.593,9.295 22.696,9.584 22.698 C 9.903 22.701,10.313 22.501,10.485 22.260 C 10.651 22.027,10.759 21.554,10.788 20.930 L 10.812 20.400 12.006 20.400 L 13.200 20.400 13.200 20.750 C 13.201 21.211,13.300 21.852,13.403 22.067 C 13.528 22.324,13.838 22.584,14.083 22.637 C 14.537 22.734,14.893 22.654,15.161 22.394 C 15.447 22.117,15.550 21.765,15.588 20.936 L 15.612 20.413 16.736 20.387 C 18.343 20.349,18.828 20.257,19.257 19.904 C 19.513 19.694,19.971 19.212,20.069 19.050 C 20.280 18.700,20.399 17.691,20.400 16.250 L 20.400 15.600 20.842 15.600 C 21.611 15.600,22.121 15.445,22.412 15.124 C 22.614 14.901,22.690 14.706,22.695 14.399 C 22.704 13.931,22.416 13.555,21.947 13.421 C 21.833 13.389,21.470 13.324,21.140 13.277 C 20.810 13.230,20.523 13.176,20.502 13.156 C 20.439 13.096,20.405 12.595,20.402 11.676 L 20.400 10.811 20.970 10.788 C 21.770 10.756,22.124 10.642,22.412 10.324 C 22.776 9.921,22.805 9.344,22.481 8.953 C 22.271 8.700,22.021 8.609,21.216 8.494 C 20.822 8.438,20.488 8.380,20.473 8.366 C 20.457 8.352,20.426 7.827,20.402 7.200 C 20.378 6.573,20.341 5.943,20.320 5.799 C 20.238 5.236,20.032 4.840,19.596 4.406 C 19.048 3.862,18.736 3.777,16.840 3.660 C 16.301 3.626,15.812 3.589,15.753 3.577 C 15.653 3.556,15.644 3.537,15.621 3.287 C 15.537 2.370,15.435 1.935,15.254 1.720 C 15.118 1.559,14.837 1.418,14.541 1.364 C 14.255 1.311,14.256 1.311,14.075 1.375 M18.000 12.000 L 18.000 18.000 12.000 18.000 L 6.000 18.000 6.000 12.000 L 6.000 6.000 12.000 6.000 L 18.000 6.000 18.000 12.000 M8.400 12.000 L 8.400 15.600 12.000 15.600 L 15.600 15.600 15.600 12.000 L 15.600 8.400 12.000 8.400 L 8.400 8.400 8.400 12.000 " fill="#373B4D" stroke="none" fill-rule="evenodd"></path></svg>