<svg width="24" height="24" viewBox="0 0 24 24" fill="none" xmlns="http://www.w3.org/2000/svg"><path d="M8.977 1.452 C 8.546 1.749,8.450 2.009,8.412 2.970 L 8.388 3.600 8.200 3.600 C 7.801 3.600,6.120 3.683,5.730 3.722 C 5.505 3.745,5.249 3.789,5.161 3.820 C 4.732 3.971,4.041 4.617,3.833 5.062 C 3.668 5.416,3.643 5.644,3.613 7.105 L 3.587 8.389 3.224 8.415 C 2.501 8.467,2.056 8.530,1.870 8.609 C 1.347 8.831,1.092 9.555,1.356 10.072 C 1.636 10.622,2.085 10.800,3.189 10.800 L 3.600 10.800 3.600 11.996 L 3.600 13.191 3.150 13.219 C 1.918 13.295,1.615 13.417,1.356 13.941 C 1.243 14.172,1.231 14.227,1.249 14.451 C 1.283 14.876,1.525 15.239,1.893 15.417 C 2.136 15.535,2.597 15.600,3.183 15.600 L 3.588 15.600 3.612 16.870 C 3.639 18.305,3.671 18.598,3.839 18.942 C 4.056 19.386,4.599 19.923,5.096 20.185 C 5.361 20.325,5.393 20.332,5.936 20.363 C 6.246 20.381,6.928 20.397,7.450 20.398 L 8.400 20.400 8.400 20.837 C 8.400 21.732,8.529 22.191,8.856 22.459 C 9.102 22.660,9.274 22.720,9.611 22.720 C 10.078 22.720,10.423 22.506,10.640 22.080 C 10.733 21.898,10.798 21.369,10.799 20.790 L 10.800 20.400 12.000 20.400 L 13.200 20.400 13.200 20.810 C 13.201 21.426,13.262 21.862,13.382 22.107 C 13.588 22.529,14.000 22.748,14.517 22.711 C 14.843 22.687,15.059 22.581,15.270 22.342 C 15.496 22.085,15.563 21.812,15.590 21.033 L 15.612 20.400 16.416 20.399 C 18.156 20.396,18.754 20.315,19.183 20.024 C 19.444 19.848,19.848 19.444,20.024 19.183 C 20.315 18.753,20.396 18.156,20.399 16.410 L 20.400 15.600 20.831 15.600 C 21.400 15.600,21.900 15.535,22.110 15.434 C 22.413 15.289,22.710 14.836,22.747 14.465 C 22.791 14.026,22.468 13.521,22.056 13.386 C 21.815 13.307,21.440 13.254,20.850 13.218 L 20.400 13.190 20.400 11.995 L 20.400 10.800 20.831 10.800 C 21.400 10.800,21.900 10.735,22.110 10.634 C 22.413 10.489,22.710 10.036,22.747 9.665 C 22.791 9.226,22.468 8.721,22.056 8.586 C 21.815 8.507,21.440 8.454,20.850 8.418 L 20.400 8.390 20.399 7.525 C 20.397 6.284,20.346 5.553,20.242 5.274 C 19.987 4.594,19.316 3.942,18.707 3.783 C 18.475 3.723,17.627 3.663,16.336 3.617 L 15.611 3.590 15.589 2.965 C 15.557 2.073,15.444 1.760,15.048 1.476 C 14.866 1.345,14.845 1.340,14.430 1.326 C 13.931 1.311,13.850 1.343,13.542 1.686 C 13.296 1.960,13.244 2.157,13.213 2.949 L 13.187 3.600 12.000 3.600 L 10.812 3.600 10.786 2.890 C 10.771 2.499,10.748 2.126,10.733 2.061 C 10.718 1.990,10.600 1.834,10.444 1.675 C 10.136 1.363,10.025 1.321,9.514 1.320 C 9.189 1.320,9.158 1.328,8.977 1.452 M18.000 12.000 L 18.000 18.000 12.000 18.000 L 6.000 18.000 6.000 12.000 L 6.000 6.000 12.000 6.000 L 18.000 6.000 18.000 12.000 M8.400 12.000 L 8.400 15.600 12.000 15.600 L 15.600 15.600 15.600 12.000 L 15.600 8.400 12.000 8.400 L 8.400 8.400 8.400 12.000 " fill="#373B4D" stroke="none" fill-rule="evenodd"></path></svg>