<svg width="24" height="24" viewBox="0 0 24 24" fill="none" xmlns="http://www.w3.org/2000/svg"><path d="M9.075 1.360 C 8.995 1.403,8.849 1.517,8.752 1.614 C 8.489 1.878,8.436 2.077,8.410 2.910 L 8.389 3.600 8.085 3.601 C 7.239 3.602,5.516 3.686,5.331 3.734 C 5.218 3.763,5.022 3.848,4.895 3.923 C 4.556 4.123,4.035 4.636,3.887 4.914 C 3.654 5.350,3.636 5.488,3.611 7.005 L 3.589 8.390 3.024 8.418 C 1.983 8.468,1.724 8.550,1.461 8.913 C 1.280 9.162,1.223 9.380,1.252 9.719 C 1.281 10.063,1.333 10.164,1.628 10.445 C 1.921 10.725,2.053 10.759,2.950 10.789 L 3.600 10.811 3.600 12.000 L 3.600 13.189 3.010 13.218 C 2.033 13.267,1.832 13.323,1.533 13.630 C 1.307 13.862,1.223 14.122,1.251 14.502 C 1.278 14.859,1.330 14.961,1.628 15.245 C 1.921 15.525,2.054 15.559,2.944 15.589 L 3.588 15.611 3.613 16.995 C 3.627 17.757,3.658 18.461,3.682 18.560 C 3.866 19.332,4.670 20.134,5.444 20.319 C 5.541 20.342,6.245 20.373,7.010 20.387 L 8.400 20.413 8.400 20.909 C 8.400 21.444,8.454 21.887,8.545 22.105 C 8.615 22.273,8.882 22.538,9.098 22.653 C 9.326 22.775,9.868 22.774,10.100 22.652 C 10.327 22.534,10.664 22.165,10.718 21.976 C 10.742 21.890,10.774 21.501,10.787 21.110 L 10.812 20.400 12.000 20.400 L 13.187 20.400 13.213 21.140 C 13.243 21.989,13.268 22.082,13.552 22.373 C 13.839 22.669,13.996 22.736,14.400 22.738 C 14.680 22.739,14.771 22.723,14.912 22.648 C 15.115 22.540,15.370 22.294,15.460 22.120 C 15.543 21.959,15.599 21.459,15.600 20.876 L 15.600 20.411 16.950 20.390 C 17.771 20.376,18.386 20.349,18.520 20.320 C 19.343 20.140,20.140 19.343,20.320 18.520 C 20.349 18.386,20.376 17.771,20.390 16.950 L 20.411 15.600 20.876 15.600 C 21.459 15.599,21.959 15.543,22.120 15.460 C 22.296 15.369,22.542 15.112,22.643 14.915 C 22.750 14.703,22.786 14.344,22.723 14.094 C 22.661 13.848,22.437 13.545,22.226 13.422 C 22.020 13.301,21.708 13.250,20.972 13.215 L 20.400 13.188 20.400 11.994 L 20.400 10.800 20.870 10.800 C 21.458 10.799,21.959 10.743,22.120 10.660 C 22.296 10.569,22.542 10.312,22.643 10.115 C 22.750 9.903,22.786 9.544,22.723 9.294 C 22.661 9.048,22.437 8.745,22.226 8.622 C 22.020 8.501,21.708 8.450,20.972 8.415 L 20.400 8.388 20.398 7.464 C 20.397 6.956,20.381 6.282,20.363 5.966 C 20.330 5.402,20.327 5.387,20.162 5.055 C 19.907 4.539,19.448 4.089,18.891 3.805 C 18.681 3.699,18.175 3.656,16.675 3.618 L 15.611 3.591 15.589 2.946 C 15.559 2.038,15.528 1.925,15.225 1.617 C 14.949 1.335,14.814 1.280,14.400 1.280 C 14.004 1.280,13.854 1.339,13.588 1.596 C 13.285 1.889,13.242 2.038,13.212 2.930 L 13.188 3.600 12.000 3.600 L 10.812 3.600 10.789 2.850 C 10.777 2.438,10.749 2.054,10.727 1.997 C 10.664 1.833,10.292 1.453,10.106 1.363 C 9.870 1.249,9.289 1.247,9.075 1.360 M18.000 12.000 L 18.000 18.000 12.000 18.000 L 6.000 18.000 6.000 12.000 L 6.000 6.000 12.000 6.000 L 18.000 6.000 18.000 12.000 M8.400 12.000 L 8.400 15.600 12.000 15.600 L 15.600 15.600 15.600 12.000 L 15.600 8.400 12.000 8.400 L 8.400 8.400 8.400 12.000 " fill="#373B4D" stroke="none" fill-rule="evenodd"></path></svg>