<svg width="24" height="24" viewBox="0 0 24 24" fill="none" xmlns="http://www.w3.org/2000/svg"><path d="M10.208 2.617 C 10.072 2.717,9.908 2.872,9.843 2.962 C 9.617 3.274,9.589 3.809,9.780 4.140 C 9.905 4.356,10.150 4.598,10.318 4.669 C 10.522 4.756,11.437 4.807,12.534 4.793 C 13.388 4.781,13.516 4.771,13.638 4.705 C 13.817 4.607,14.171 4.252,14.260 4.081 C 14.343 3.919,14.353 3.460,14.278 3.209 C 14.218 3.009,14.019 2.764,13.786 2.605 L 13.620 2.492 12.037 2.464 L 10.455 2.435 10.208 2.617 M6.680 3.694 C 6.300 3.829,6.012 3.985,5.736 4.204 C 5.413 4.460,5.235 4.683,4.998 5.130 L 4.802 5.500 4.801 12.588 L 4.800 19.676 5.010 20.088 C 5.182 20.426,5.281 20.562,5.560 20.844 C 5.854 21.141,5.958 21.217,6.320 21.394 L 6.739 21.600 12.035 21.600 L 17.331 21.600 17.646 21.432 C 18.253 21.109,18.708 20.654,19.030 20.050 L 19.200 19.731 19.200 12.643 L 19.200 5.555 19.043 5.228 C 18.849 4.821,18.542 4.411,18.268 4.193 C 17.867 3.873,17.054 3.561,16.890 3.664 C 16.848 3.691,16.778 3.896,16.695 4.236 C 16.604 4.611,16.505 4.891,16.358 5.193 C 16.162 5.594,16.118 5.651,15.645 6.123 C 15.203 6.562,15.097 6.646,14.800 6.790 C 14.302 7.030,13.952 7.115,13.240 7.166 C 12.541 7.216,10.730 7.188,10.203 7.120 C 9.557 7.036,8.887 6.687,8.328 6.146 C 7.813 5.647,7.559 5.181,7.299 4.261 C 7.219 3.976,7.136 3.710,7.115 3.671 C 7.066 3.579,6.994 3.582,6.680 3.694 M8.921 10.959 C 9.062 11.031,9.356 11.319,9.427 11.455 C 9.508 11.610,9.545 12.262,9.483 12.450 C 9.412 12.665,8.979 13.056,8.747 13.114 C 8.496 13.177,8.145 13.172,7.978 13.102 C 7.802 13.028,7.439 12.666,7.349 12.474 C 7.271 12.309,7.255 11.830,7.320 11.598 C 7.393 11.333,7.715 11.007,7.990 10.917 C 8.143 10.868,8.802 10.897,8.921 10.959 M16.142 10.987 C 16.344 11.095,16.535 11.287,16.627 11.476 C 16.731 11.690,16.748 12.196,16.658 12.432 C 16.579 12.638,16.287 12.974,16.104 13.068 C 15.950 13.148,14.995 13.196,13.540 13.197 C 12.291 13.197,11.712 13.156,11.467 13.047 C 11.278 12.964,11.082 12.742,10.961 12.474 C 10.872 12.278,10.850 11.766,10.922 11.573 C 11.046 11.242,11.339 10.992,11.686 10.922 C 11.782 10.902,12.787 10.890,13.920 10.893 C 15.951 10.900,15.982 10.901,16.142 10.987 M8.921 15.759 C 9.062 15.831,9.356 16.119,9.427 16.255 C 9.508 16.410,9.545 17.062,9.483 17.250 C 9.412 17.465,8.979 17.856,8.747 17.914 C 8.496 17.977,8.145 17.972,7.978 17.902 C 7.802 17.828,7.439 17.466,7.349 17.274 C 7.271 17.109,7.255 16.630,7.320 16.398 C 7.393 16.133,7.715 15.807,7.990 15.717 C 8.143 15.668,8.802 15.697,8.921 15.759 M16.142 15.787 C 16.344 15.895,16.535 16.087,16.627 16.276 C 16.731 16.490,16.748 16.996,16.658 17.232 C 16.579 17.438,16.287 17.774,16.104 17.868 C 15.950 17.948,14.995 17.996,13.540 17.997 C 12.291 17.997,11.712 17.956,11.467 17.847 C 11.278 17.764,11.082 17.542,10.961 17.274 C 10.872 17.078,10.850 16.566,10.922 16.373 C 11.046 16.042,11.339 15.792,11.686 15.722 C 11.782 15.702,12.787 15.690,13.920 15.693 C 15.951 15.700,15.982 15.701,16.142 15.787 " fill="#373B4D" stroke="none" fill-rule="evenodd"></path></svg>