<svg width="24" height="24" viewBox="0 0 24 24" fill="none" xmlns="http://www.w3.org/2000/svg"><path d="M10.267 2.580 C 10.160 2.662,9.995 2.835,9.899 2.965 C 9.564 3.421,9.569 3.837,9.915 4.291 C 10.255 4.737,10.431 4.775,12.180 4.778 C 13.666 4.780,13.615 4.791,13.994 4.377 C 14.253 4.094,14.320 3.928,14.319 3.575 C 14.318 3.256,14.215 3.048,13.904 2.737 L 13.647 2.480 12.650 2.480 C 12.102 2.480,11.384 2.469,11.056 2.455 L 10.460 2.430 10.267 2.580 M6.660 3.714 C 6.309 3.852,6.055 3.997,5.706 4.256 C 5.426 4.465,5.137 4.844,4.904 5.309 L 4.800 5.517 4.800 12.600 L 4.800 19.683 4.906 19.891 C 5.140 20.354,5.551 20.877,5.872 21.117 C 5.979 21.198,6.213 21.340,6.390 21.432 L 6.712 21.600 12.047 21.600 L 17.382 21.600 17.757 21.358 C 18.353 20.972,18.697 20.609,19.078 19.963 L 19.200 19.756 19.200 12.663 L 19.200 5.570 19.115 5.375 C 18.972 5.051,18.683 4.634,18.424 4.380 C 18.065 4.029,17.394 3.686,17.056 3.682 C 16.861 3.680,16.876 3.654,16.641 4.400 C 16.351 5.322,16.079 5.751,15.421 6.326 C 14.688 6.966,14.088 7.145,12.540 7.187 C 11.492 7.215,10.337 7.152,9.900 7.041 C 9.487 6.937,9.103 6.742,8.670 6.418 C 8.030 5.937,7.717 5.454,7.338 4.360 C 7.125 3.745,7.058 3.599,6.989 3.601 C 6.962 3.602,6.814 3.653,6.660 3.714 " fill="#373B4D" stroke="none" fill-rule="evenodd"></path></svg>