<svg width="24" height="24" viewBox="0 0 24 24" fill="none" xmlns="http://www.w3.org/2000/svg"><path d="M9.060 2.577 C 8.597 2.855,8.417 3.178,8.448 3.673 C 8.467 3.994,8.560 4.202,8.785 4.427 C 9.124 4.767,9.096 4.761,10.753 4.788 L 12.220 4.812 12.400 4.721 C 12.683 4.578,12.892 4.387,13.021 4.155 C 13.127 3.964,13.140 3.902,13.140 3.600 C 13.140 3.125,12.989 2.859,12.556 2.573 L 12.400 2.469 10.850 2.451 L 9.300 2.432 9.060 2.577 M5.460 3.694 C 4.601 3.973,4.043 4.486,3.718 5.297 L 3.599 5.595 3.610 12.627 L 3.620 19.660 3.736 19.940 C 3.892 20.317,4.070 20.588,4.334 20.852 C 4.630 21.148,4.878 21.313,5.260 21.469 L 5.580 21.599 10.855 21.599 L 16.130 21.600 16.495 21.411 C 16.791 21.258,16.932 21.151,17.241 20.841 C 17.693 20.388,17.896 20.032,17.959 19.580 C 17.981 19.426,17.999 18.470,17.999 17.456 L 18.000 15.613 19.290 15.587 C 20.000 15.573,20.652 15.549,20.740 15.534 C 20.964 15.496,21.399 15.063,21.493 14.783 C 21.662 14.285,21.486 13.759,21.044 13.434 C 20.839 13.283,20.573 13.254,19.071 13.215 L 18.001 13.187 17.991 9.339 L 17.980 5.491 17.768 5.065 C 17.500 4.527,17.171 4.178,16.696 3.931 C 16.362 3.757,15.792 3.585,15.674 3.622 C 15.626 3.637,15.596 3.704,15.578 3.832 C 15.488 4.484,15.338 4.973,15.115 5.344 C 14.838 5.805,14.233 6.427,13.787 6.708 C 13.700 6.763,13.410 6.896,13.144 7.004 L 12.660 7.199 10.808 7.200 L 8.957 7.200 8.606 7.064 C 7.870 6.780,7.509 6.546,7.019 6.035 C 6.495 5.489,6.284 5.080,6.078 4.211 C 6.012 3.933,5.938 3.682,5.914 3.653 C 5.855 3.582,5.789 3.588,5.460 3.694 M13.769 9.789 C 14.124 9.982,14.330 10.357,14.335 10.820 C 14.340 11.268,14.210 11.456,13.132 12.562 L 12.510 13.200 15.255 13.200 L 18.000 13.200 18.000 14.400 L 18.000 15.600 15.256 15.600 L 12.512 15.600 13.142 16.250 C 13.888 17.019,14.229 17.409,14.287 17.554 C 14.310 17.612,14.331 17.813,14.333 18.000 C 14.337 18.275,14.321 18.371,14.252 18.501 C 14.155 18.686,13.836 18.998,13.636 19.104 C 13.457 19.199,12.952 19.204,12.780 19.112 C 12.578 19.005,11.721 18.204,10.457 16.941 C 9.200 15.687,8.685 15.125,8.554 14.869 C 8.512 14.785,8.466 14.601,8.453 14.460 C 8.418 14.090,8.523 13.904,9.151 13.220 C 9.876 12.431,12.174 10.135,12.450 9.925 C 12.770 9.682,12.919 9.634,13.274 9.659 C 13.491 9.674,13.621 9.708,13.769 9.789 " fill="#373B4D" stroke="none" fill-rule="evenodd"></path></svg>