<svg width="24" height="24" viewBox="0 0 24 24" fill="none" xmlns="http://www.w3.org/2000/svg"><path d="M10.262 2.595 C 9.878 2.915,9.605 3.420,9.659 3.710 C 9.735 4.114,10.091 4.563,10.415 4.664 C 10.824 4.790,13.081 4.826,13.540 4.713 C 13.738 4.664,14.167 4.238,14.245 4.012 C 14.274 3.928,14.297 3.734,14.295 3.580 C 14.291 3.236,14.216 3.077,13.893 2.730 L 13.660 2.480 12.042 2.470 L 10.424 2.460 10.262 2.595 M6.632 3.735 C 5.786 4.105,5.327 4.515,4.941 5.246 L 4.800 5.512 4.800 12.600 L 4.800 19.688 4.943 19.961 C 5.263 20.570,5.833 21.138,6.446 21.460 L 6.712 21.600 12.052 21.600 L 17.393 21.600 17.707 21.393 C 18.116 21.122,18.732 20.503,18.992 20.100 L 19.200 19.780 19.200 12.669 L 19.200 5.558 19.075 5.309 C 18.835 4.833,18.472 4.389,18.129 4.152 C 17.732 3.879,17.105 3.642,16.944 3.704 C 16.885 3.727,16.839 3.835,16.522 4.694 C 16.295 5.310,16.117 5.605,15.723 6.013 C 14.790 6.982,14.166 7.181,12.060 7.179 C 10.152 7.176,9.644 7.076,8.860 6.547 C 8.146 6.065,7.777 5.527,7.322 4.302 C 7.083 3.659,7.055 3.600,6.989 3.600 C 6.962 3.601,6.802 3.661,6.632 3.735 " fill="#373B4D" stroke="none" fill-rule="evenodd"></path></svg>