<svg width="24" height="24" viewBox="0 0 24 24" fill="none" xmlns="http://www.w3.org/2000/svg"><path d="M10.199 2.627 C 9.521 3.137,9.463 3.927,10.064 4.476 C 10.369 4.756,10.525 4.778,12.180 4.779 C 13.694 4.780,13.593 4.802,13.995 4.396 C 14.286 4.102,14.334 3.971,14.315 3.533 C 14.302 3.262,14.282 3.184,14.179 3.019 C 14.113 2.911,13.960 2.748,13.839 2.656 L 13.620 2.489 12.035 2.464 L 10.450 2.439 10.199 2.627 M6.720 3.681 C 6.137 3.891,5.591 4.258,5.313 4.626 C 5.232 4.733,5.084 4.974,4.984 5.161 L 4.801 5.500 4.801 12.594 L 4.800 19.687 4.979 20.034 C 5.175 20.414,5.490 20.815,5.779 21.054 C 5.881 21.139,6.131 21.296,6.333 21.403 L 6.700 21.598 12.021 21.599 L 17.342 21.600 17.656 21.421 C 18.299 21.054,18.661 20.695,19.014 20.070 L 19.200 19.740 19.200 12.655 L 19.200 5.570 19.097 5.338 C 18.850 4.778,18.437 4.279,18.018 4.034 C 17.720 3.859,17.309 3.692,17.091 3.657 C 16.879 3.623,16.843 3.677,16.682 4.272 C 16.439 5.167,16.246 5.517,15.682 6.083 C 15.193 6.573,14.998 6.715,14.587 6.880 C 14.196 7.036,13.877 7.108,13.340 7.158 C 12.438 7.244,10.378 7.185,9.900 7.060 C 9.367 6.922,8.660 6.498,8.255 6.073 C 7.821 5.619,7.604 5.222,7.361 4.439 C 7.112 3.637,7.106 3.621,7.019 3.611 C 6.975 3.606,6.841 3.637,6.720 3.681 M15.910 10.916 C 16.146 10.962,16.386 11.140,16.556 11.396 C 16.695 11.605,16.700 11.626,16.700 11.977 C 16.700 12.301,16.688 12.360,16.590 12.527 C 16.530 12.629,16.132 13.079,15.705 13.527 C 14.801 14.475,11.864 17.394,11.469 17.736 L 11.199 17.971 10.849 17.951 C 10.454 17.929,10.301 17.866,9.980 17.599 C 9.277 17.013,7.939 15.641,7.497 15.054 C 7.255 14.732,7.237 14.636,7.325 14.130 C 7.379 13.820,7.535 13.596,7.818 13.421 C 8.000 13.308,8.040 13.300,8.397 13.300 C 8.924 13.300,8.927 13.302,10.133 14.452 L 10.806 15.093 11.933 13.974 C 14.103 11.820,14.926 11.050,15.180 10.937 C 15.315 10.876,15.655 10.867,15.910 10.916 " fill="#373B4D" stroke="none" fill-rule="evenodd"></path></svg>