<svg width="24" height="24" viewBox="0 0 24 24" fill="none" xmlns="http://www.w3.org/2000/svg"><path d="M10.260 2.577 C 9.797 2.855,9.617 3.178,9.648 3.673 C 9.667 3.994,9.760 4.202,9.985 4.427 C 10.324 4.767,10.296 4.761,11.953 4.788 L 13.420 4.812 13.600 4.721 C 13.883 4.578,14.092 4.387,14.221 4.155 C 14.327 3.964,14.340 3.902,14.340 3.600 C 14.340 3.125,14.189 2.859,13.756 2.573 L 13.600 2.469 12.050 2.451 L 10.500 2.432 10.260 2.577 M6.660 3.694 C 5.801 3.973,5.243 4.486,4.918 5.297 L 4.799 5.595 4.810 12.627 L 4.820 19.660 4.936 19.940 C 5.092 20.317,5.270 20.588,5.534 20.852 C 5.830 21.148,6.078 21.313,6.460 21.469 L 6.780 21.599 12.054 21.599 L 17.327 21.600 17.674 21.421 C 18.295 21.100,18.699 20.695,19.022 20.072 L 19.202 19.723 19.191 12.632 L 19.180 5.540 19.065 5.269 C 18.704 4.416,18.016 3.833,17.164 3.657 C 16.824 3.587,16.817 3.591,16.778 3.880 C 16.693 4.495,16.455 5.152,16.159 5.582 C 15.978 5.845,15.544 6.297,15.270 6.508 C 15.001 6.715,14.484 6.966,14.140 7.057 C 13.732 7.164,12.752 7.212,11.460 7.186 C 10.127 7.160,9.911 7.131,9.427 6.907 C 8.739 6.589,8.218 6.159,7.844 5.599 C 7.565 5.182,7.399 4.771,7.279 4.200 C 7.185 3.747,7.118 3.599,7.009 3.602 C 6.971 3.603,6.814 3.644,6.660 3.694 M16.119 10.960 C 16.326 11.065,16.562 11.299,16.652 11.488 C 16.689 11.568,16.732 11.766,16.745 11.929 C 16.779 12.322,16.710 12.471,16.272 12.960 C 15.428 13.902,12.084 17.221,11.431 17.764 L 11.196 17.960 10.844 17.960 C 10.555 17.960,10.463 17.944,10.327 17.870 C 9.855 17.614,7.577 15.321,7.317 14.840 C 7.232 14.684,7.251 14.137,7.349 13.916 C 7.442 13.706,7.671 13.469,7.900 13.346 C 8.031 13.276,8.121 13.261,8.400 13.266 C 8.587 13.269,8.788 13.290,8.846 13.313 C 8.991 13.370,9.380 13.712,10.150 14.458 L 10.800 15.088 12.490 13.418 C 14.269 11.659,14.959 11.012,15.171 10.902 C 15.351 10.810,15.890 10.842,16.119 10.960 " fill="#373B4D" stroke="none" fill-rule="evenodd"></path></svg>