<svg width="24" height="24" viewBox="0 0 24 24" fill="none" xmlns="http://www.w3.org/2000/svg"><path d="M10.260 2.577 C 9.797 2.855,9.617 3.178,9.648 3.673 C 9.667 3.994,9.760 4.202,9.985 4.427 C 10.324 4.767,10.296 4.761,11.953 4.788 L 13.420 4.812 13.600 4.721 C 13.883 4.578,14.092 4.387,14.221 4.155 C 14.327 3.964,14.340 3.902,14.340 3.600 C 14.340 3.125,14.189 2.859,13.756 2.573 L 13.600 2.469 12.050 2.451 L 10.500 2.432 10.260 2.577 M6.660 3.694 C 5.801 3.973,5.243 4.486,4.918 5.297 L 4.799 5.595 4.810 12.627 L 4.820 19.660 4.936 19.940 C 5.092 20.317,5.270 20.588,5.534 20.852 C 5.830 21.148,6.078 21.313,6.460 21.469 L 6.780 21.599 12.054 21.599 L 17.327 21.600 17.674 21.421 C 18.295 21.100,18.699 20.695,19.022 20.072 L 19.202 19.723 19.191 12.632 L 19.180 5.540 19.065 5.269 C 18.704 4.416,18.016 3.833,17.164 3.657 C 16.824 3.587,16.817 3.591,16.778 3.880 C 16.693 4.495,16.455 5.152,16.159 5.582 C 15.978 5.845,15.544 6.297,15.270 6.508 C 15.001 6.715,14.484 6.966,14.140 7.057 C 13.732 7.164,12.752 7.212,11.460 7.186 C 10.127 7.160,9.911 7.131,9.427 6.907 C 8.739 6.589,8.218 6.159,7.844 5.599 C 7.565 5.182,7.399 4.771,7.279 4.200 C 7.185 3.747,7.118 3.599,7.009 3.602 C 6.971 3.603,6.814 3.644,6.660 3.694 M8.858 10.919 C 9.037 10.987,9.282 11.200,9.406 11.396 C 9.514 11.566,9.520 11.600,9.520 12.025 C 9.520 12.471,9.519 12.475,9.388 12.647 C 9.224 12.862,8.907 13.105,8.749 13.136 C 8.537 13.179,8.081 13.161,7.949 13.106 C 7.878 13.076,7.709 12.933,7.573 12.788 C 7.367 12.568,7.318 12.487,7.277 12.300 C 7.214 12.020,7.272 11.588,7.399 11.381 C 7.510 11.202,7.795 10.968,7.990 10.894 C 8.157 10.832,8.666 10.846,8.858 10.919 M15.693 10.878 C 16.151 10.919,16.313 11.002,16.539 11.311 C 16.724 11.564,16.784 11.851,16.728 12.214 C 16.693 12.443,16.658 12.525,16.513 12.711 C 16.303 12.980,16.183 13.073,15.977 13.125 C 15.749 13.182,12.846 13.215,12.156 13.168 C 11.489 13.122,11.405 13.092,11.164 12.811 C 10.947 12.557,10.889 12.427,10.857 12.115 C 10.821 11.762,10.907 11.471,11.118 11.232 C 11.316 11.007,11.491 10.922,11.834 10.882 C 12.206 10.838,15.216 10.835,15.693 10.878 M8.858 15.719 C 9.037 15.787,9.282 16.000,9.406 16.196 C 9.514 16.366,9.520 16.400,9.520 16.825 C 9.520 17.271,9.519 17.275,9.388 17.447 C 9.224 17.662,8.907 17.905,8.749 17.936 C 8.537 17.979,8.081 17.961,7.949 17.906 C 7.878 17.876,7.709 17.733,7.573 17.588 C 7.367 17.368,7.318 17.287,7.277 17.100 C 7.214 16.820,7.272 16.388,7.399 16.181 C 7.510 16.002,7.795 15.768,7.990 15.694 C 8.157 15.632,8.666 15.646,8.858 15.719 M15.693 15.678 C 16.151 15.719,16.313 15.802,16.539 16.111 C 16.724 16.364,16.784 16.651,16.728 17.014 C 16.693 17.243,16.658 17.325,16.513 17.511 C 16.303 17.780,16.183 17.873,15.977 17.925 C 15.749 17.982,12.846 18.015,12.156 17.968 C 11.489 17.922,11.405 17.892,11.164 17.611 C 10.947 17.357,10.889 17.227,10.857 16.915 C 10.821 16.562,10.907 16.271,11.118 16.032 C 11.316 15.807,11.491 15.722,11.834 15.682 C 12.206 15.638,15.216 15.635,15.693 15.678 " fill="#373B4D" stroke="none" fill-rule="evenodd"></path></svg>