<svg width="24" height="24" viewBox="0 0 24 24" fill="none" xmlns="http://www.w3.org/2000/svg"><path d="M8.953 2.716 C 8.680 3.019,8.478 3.354,8.453 3.548 C 8.437 3.670,8.465 3.764,8.598 4.029 C 8.935 4.698,9.072 4.740,10.945 4.740 L 12.310 4.740 12.525 4.591 C 12.924 4.315,13.080 4.039,13.080 3.609 C 13.080 3.277,12.979 3.051,12.677 2.710 L 12.473 2.480 10.820 2.480 L 9.167 2.480 8.953 2.716 M5.239 3.844 C 4.797 4.065,4.709 4.128,4.382 4.455 C 4.182 4.656,3.923 4.963,3.809 5.138 L 3.600 5.456 3.600 12.570 L 3.600 19.683 3.686 19.852 C 4.010 20.490,4.710 21.190,5.348 21.514 L 5.517 21.600 10.843 21.600 L 16.169 21.600 16.435 21.423 C 17.020 21.034,17.511 20.522,17.743 20.059 C 17.935 19.674,17.956 19.444,17.986 17.350 L 18.012 15.600 18.796 15.599 C 19.713 15.599,20.415 15.547,20.710 15.460 C 20.953 15.387,21.294 15.081,21.422 14.820 C 21.539 14.580,21.524 14.204,21.384 13.910 C 21.166 13.453,20.835 13.365,18.861 13.240 C 18.509 13.218,18.172 13.200,18.111 13.200 L 18.000 13.200 18.000 9.358 C 18.000 5.523,18.000 5.517,17.915 5.348 C 17.716 4.953,17.262 4.423,16.880 4.138 C 16.529 3.876,15.904 3.643,15.761 3.720 C 15.722 3.740,15.644 3.870,15.587 4.009 C 15.530 4.147,15.394 4.481,15.285 4.751 C 14.852 5.820,14.303 6.390,13.126 6.995 L 12.727 7.200 10.783 7.200 L 8.838 7.200 8.527 7.044 C 7.766 6.661,7.023 6.049,6.688 5.528 C 6.599 5.390,6.451 5.102,6.360 4.888 C 6.268 4.675,6.110 4.303,6.007 4.063 C 5.904 3.822,5.800 3.619,5.776 3.611 C 5.751 3.604,5.510 3.708,5.239 3.844 M13.752 9.874 C 14.069 10.039,14.265 10.463,14.229 10.908 C 14.198 11.296,13.976 11.616,13.020 12.652 L 12.515 13.200 15.258 13.200 L 18.000 13.200 18.000 14.400 L 18.000 15.600 15.255 15.600 L 12.511 15.600 12.988 16.110 C 14.089 17.286,14.252 17.527,14.254 17.977 C 14.258 18.744,13.571 19.299,12.910 19.063 C 12.642 18.967,12.323 18.684,10.905 17.281 C 9.385 15.777,8.824 15.174,8.655 14.864 C 8.499 14.578,8.499 14.257,8.655 13.974 C 8.982 13.380,11.616 10.673,12.588 9.933 L 12.820 9.756 13.200 9.770 C 13.496 9.782,13.618 9.805,13.752 9.874 " fill="#373B4D" stroke="none" fill-rule="evenodd"></path></svg>