<svg width="24" height="24" viewBox="0 0 24 24" fill="none" xmlns="http://www.w3.org/2000/svg"><path d="M9.399 2.433 C 9.148 2.473,8.804 2.676,8.650 2.877 C 8.388 3.218,8.336 3.700,8.520 4.092 C 8.632 4.330,8.889 4.589,9.120 4.696 C 9.293 4.777,9.361 4.780,10.800 4.780 C 12.287 4.780,12.302 4.779,12.488 4.687 C 13.387 4.245,13.430 3.027,12.562 2.564 L 12.317 2.433 10.948 2.419 C 10.196 2.411,9.499 2.417,9.399 2.433 M5.449 3.681 C 4.647 3.891,4.043 4.441,3.735 5.240 L 3.620 5.540 3.620 12.560 C 3.620 19.262,3.623 19.591,3.694 19.820 C 3.809 20.198,4.027 20.574,4.279 20.832 C 4.591 21.152,4.811 21.296,5.239 21.462 L 5.600 21.601 10.850 21.591 L 16.100 21.580 16.380 21.463 C 17.115 21.156,17.625 20.640,17.870 19.955 L 17.975 19.660 17.992 17.634 L 18.009 15.608 19.354 15.594 C 20.907 15.578,20.910 15.577,21.272 15.181 C 21.803 14.601,21.624 13.697,20.908 13.334 C 20.708 13.233,20.704 13.232,19.354 13.210 L 18.000 13.188 18.000 9.395 L 18.000 5.602 17.879 5.272 C 17.544 4.353,16.778 3.741,15.815 3.620 L 15.610 3.594 15.581 3.907 C 15.482 4.962,14.968 5.873,14.120 6.497 C 13.793 6.738,13.497 6.888,13.029 7.050 L 12.660 7.178 10.800 7.178 L 8.940 7.178 8.571 7.050 C 7.930 6.828,7.492 6.568,7.086 6.167 C 6.506 5.596,6.157 4.905,6.043 4.099 C 5.972 3.598,5.972 3.600,5.849 3.602 C 5.789 3.603,5.609 3.639,5.449 3.681 M13.715 9.727 C 13.945 9.839,14.163 10.057,14.276 10.292 C 14.402 10.552,14.404 11.044,14.280 11.300 C 14.225 11.413,13.890 11.789,13.353 12.339 L 12.512 13.200 15.256 13.200 L 18.000 13.200 18.000 14.400 L 18.000 15.600 15.255 15.600 L 12.511 15.600 13.322 16.428 C 13.768 16.884,14.184 17.338,14.246 17.436 C 14.351 17.601,14.360 17.646,14.360 18.002 C 14.360 18.382,14.358 18.391,14.206 18.624 C 13.985 18.963,13.735 19.130,13.375 19.178 C 13.082 19.218,12.827 19.169,12.623 19.034 C 12.404 18.889,10.147 16.673,9.228 15.703 C 8.855 15.308,8.524 14.923,8.492 14.846 C 8.416 14.665,8.416 14.135,8.492 13.953 C 8.585 13.730,12.074 10.162,12.533 9.820 C 12.843 9.589,13.347 9.549,13.715 9.727 " fill="#373B4D" stroke="none" fill-rule="evenodd"></path></svg>