<svg width="24" height="24" viewBox="0 0 24 24" fill="none" xmlns="http://www.w3.org/2000/svg"><path d="M10.262 2.595 C 9.878 2.915,9.605 3.420,9.659 3.710 C 9.735 4.114,10.091 4.563,10.415 4.664 C 10.824 4.790,13.081 4.826,13.540 4.713 C 13.738 4.664,14.167 4.238,14.245 4.012 C 14.274 3.928,14.297 3.734,14.295 3.580 C 14.291 3.236,14.216 3.077,13.893 2.730 L 13.660 2.480 12.042 2.470 L 10.424 2.460 10.262 2.595 M6.632 3.735 C 5.786 4.105,5.327 4.515,4.941 5.246 L 4.800 5.512 4.800 12.600 L 4.800 19.688 4.943 19.961 C 5.263 20.570,5.833 21.138,6.446 21.460 L 6.712 21.600 12.052 21.600 L 17.393 21.600 17.707 21.393 C 18.116 21.122,18.732 20.503,18.992 20.100 L 19.200 19.780 19.200 12.669 L 19.200 5.558 19.075 5.309 C 18.835 4.833,18.472 4.389,18.129 4.152 C 17.732 3.879,17.105 3.642,16.944 3.704 C 16.885 3.727,16.839 3.835,16.522 4.694 C 16.295 5.310,16.117 5.605,15.723 6.013 C 14.790 6.982,14.166 7.181,12.060 7.179 C 10.152 7.176,9.644 7.076,8.860 6.547 C 8.146 6.065,7.777 5.527,7.322 4.302 C 7.083 3.659,7.055 3.600,6.989 3.600 C 6.962 3.601,6.802 3.661,6.632 3.735 M8.948 11.044 C 9.207 11.169,9.395 11.421,9.441 11.706 C 9.525 12.218,9.471 12.484,9.233 12.743 C 8.997 12.999,8.686 13.140,8.354 13.140 C 8.109 13.140,8.070 13.127,7.854 12.979 C 7.436 12.692,7.264 12.277,7.351 11.766 C 7.402 11.468,7.535 11.247,7.767 11.080 C 7.925 10.965,7.949 10.960,8.353 10.960 C 8.699 10.960,8.806 10.975,8.948 11.044 M16.327 11.150 C 16.606 11.438,16.640 11.531,16.640 12.010 C 16.640 12.397,16.632 12.436,16.526 12.605 C 16.383 12.829,16.144 13.030,15.960 13.080 C 15.580 13.183,13.115 13.236,12.213 13.162 C 11.676 13.117,11.429 13.024,11.204 12.779 C 10.779 12.318,10.846 11.386,11.324 11.104 C 11.519 10.989,11.872 10.971,14.062 10.965 L 16.143 10.960 16.327 11.150 M8.948 15.844 C 9.207 15.969,9.395 16.221,9.441 16.506 C 9.525 17.018,9.471 17.284,9.233 17.543 C 8.997 17.799,8.686 17.940,8.354 17.940 C 8.109 17.940,8.070 17.927,7.854 17.779 C 7.436 17.492,7.264 17.077,7.351 16.566 C 7.402 16.268,7.535 16.047,7.767 15.880 C 7.925 15.765,7.949 15.760,8.353 15.760 C 8.699 15.760,8.806 15.775,8.948 15.844 M16.327 15.950 C 16.606 16.238,16.640 16.331,16.640 16.810 C 16.640 17.197,16.632 17.236,16.526 17.405 C 16.383 17.629,16.144 17.830,15.960 17.880 C 15.580 17.983,13.115 18.036,12.213 17.962 C 11.676 17.917,11.429 17.824,11.204 17.579 C 10.779 17.118,10.846 16.186,11.324 15.904 C 11.519 15.789,11.872 15.771,14.062 15.765 L 16.143 15.760 16.327 15.950 " fill="#373B4D" stroke="none" fill-rule="evenodd"></path></svg>