<svg width="24" height="24" viewBox="0 0 24 24" fill="none" xmlns="http://www.w3.org/2000/svg"><path d="M10.340 2.521 C 9.590 3.095,9.446 3.731,9.932 4.328 C 10.209 4.668,10.358 4.722,11.148 4.768 C 11.949 4.815,13.409 4.787,13.580 4.722 C 13.748 4.657,14.154 4.252,14.244 4.060 C 14.292 3.956,14.318 3.809,14.319 3.640 C 14.320 3.210,14.270 3.095,13.936 2.770 L 13.638 2.480 12.826 2.480 C 12.379 2.480,11.663 2.469,11.236 2.455 C 10.470 2.430,10.458 2.431,10.340 2.521 M6.754 3.677 C 6.281 3.828,5.592 4.268,5.358 4.569 C 5.241 4.719,5.009 5.101,4.885 5.348 L 4.800 5.517 4.800 12.602 L 4.800 19.688 4.959 19.994 C 5.164 20.388,5.572 20.903,5.828 21.091 C 5.937 21.172,6.179 21.319,6.364 21.418 L 6.700 21.599 12.028 21.599 L 17.356 21.600 17.563 21.478 C 18.300 21.044,18.656 20.696,19.022 20.055 L 19.200 19.742 19.200 12.656 L 19.200 5.570 19.096 5.335 C 18.937 4.975,18.667 4.594,18.379 4.325 C 17.974 3.946,17.127 3.569,16.925 3.678 C 16.857 3.714,16.784 3.906,16.618 4.495 C 16.403 5.255,16.055 5.779,15.360 6.388 C 14.609 7.046,13.744 7.234,11.682 7.188 C 10.080 7.152,9.743 7.089,9.080 6.700 C 8.451 6.331,7.977 5.848,7.700 5.294 C 7.621 5.136,7.459 4.716,7.340 4.360 C 7.138 3.756,7.068 3.597,7.005 3.602 C 6.991 3.603,6.878 3.637,6.754 3.677 M16.111 10.996 C 16.267 11.077,16.499 11.304,16.613 11.489 C 16.664 11.571,16.680 11.692,16.680 11.993 C 16.680 12.372,16.675 12.395,16.554 12.564 C 16.485 12.661,16.273 12.911,16.084 13.120 C 15.549 13.709,13.244 16.031,12.181 17.051 L 11.222 17.970 10.881 17.950 C 10.461 17.926,10.306 17.862,9.946 17.569 C 9.328 17.067,7.733 15.410,7.436 14.961 C 7.274 14.717,7.259 14.632,7.313 14.265 C 7.371 13.866,7.497 13.645,7.771 13.460 C 7.974 13.324,7.989 13.320,8.371 13.320 C 8.935 13.320,8.941 13.324,10.093 14.416 L 10.807 15.093 11.873 14.033 C 14.166 11.754,15.044 10.947,15.276 10.906 C 15.489 10.868,15.961 10.919,16.111 10.996 " fill="#373B4D" stroke="none" fill-rule="evenodd"></path></svg>