<svg width="24" height="24" viewBox="0 0 24 24" fill="none" xmlns="http://www.w3.org/2000/svg"><path d="M8.920 2.747 C 8.658 3.027,8.440 3.420,8.440 3.614 C 8.440 3.760,8.638 4.174,8.802 4.371 C 8.979 4.584,9.175 4.670,9.606 4.724 C 10.111 4.787,12.049 4.791,12.261 4.729 C 12.483 4.664,12.728 4.475,12.908 4.229 C 13.052 4.033,13.061 4.004,13.074 3.679 C 13.091 3.253,13.050 3.146,12.723 2.767 L 12.476 2.480 10.823 2.480 L 9.169 2.480 8.920 2.747 M5.396 3.754 C 5.208 3.838,4.953 3.973,4.832 4.054 C 4.511 4.267,3.965 4.852,3.769 5.194 L 3.600 5.487 3.600 12.594 L 3.600 19.700 3.790 20.040 C 4.055 20.515,4.685 21.145,5.160 21.410 L 5.500 21.600 10.832 21.600 L 16.164 21.600 16.512 21.372 C 17.144 20.957,17.685 20.334,17.860 19.820 C 17.941 19.580,17.995 18.364,17.998 16.690 L 18.000 15.600 18.710 15.599 C 19.838 15.597,20.554 15.542,20.794 15.439 C 21.037 15.334,21.332 15.033,21.448 14.772 C 21.552 14.536,21.530 14.216,21.388 13.905 C 21.178 13.448,20.839 13.356,18.920 13.240 C 18.557 13.218,18.202 13.200,18.130 13.200 L 18.000 13.200 18.000 9.356 L 18.000 5.511 17.879 5.283 C 17.467 4.510,16.714 3.882,16.008 3.720 C 15.822 3.677,15.787 3.679,15.722 3.738 C 15.681 3.775,15.554 4.061,15.439 4.373 C 15.189 5.050,15.029 5.378,14.791 5.701 C 14.418 6.207,13.947 6.575,13.153 6.982 L 12.726 7.200 10.773 7.199 L 8.820 7.198 8.407 6.981 C 7.602 6.557,6.945 5.986,6.607 5.416 C 6.517 5.264,6.314 4.816,6.156 4.420 C 5.880 3.727,5.819 3.599,5.765 3.601 C 5.751 3.601,5.585 3.670,5.396 3.754 M13.600 9.801 C 14.126 9.940,14.417 10.733,14.142 11.276 C 14.009 11.539,13.677 11.948,13.045 12.630 L 12.516 13.200 15.258 13.200 L 18.000 13.200 18.000 14.400 L 18.000 15.600 15.258 15.600 L 12.517 15.600 13.158 16.290 C 13.934 17.125,14.142 17.394,14.225 17.674 C 14.347 18.088,14.224 18.539,13.909 18.828 C 13.657 19.059,13.476 19.130,13.179 19.112 C 12.863 19.093,12.730 19.017,12.211 18.560 C 11.666 18.080,9.619 16.036,9.126 15.480 C 8.667 14.963,8.561 14.789,8.532 14.502 C 8.488 14.081,8.716 13.748,9.903 12.500 C 11.304 11.027,12.576 9.848,12.860 9.760 C 12.989 9.720,13.373 9.742,13.600 9.801 " fill="#373B4D" stroke="none" fill-rule="evenodd"></path></svg>