<svg width="24" height="24" viewBox="0 0 24 24" fill="none" xmlns="http://www.w3.org/2000/svg"><path d="M10.240 2.608 C 9.935 2.850,9.641 3.338,9.640 3.603 C 9.640 3.762,9.776 4.093,9.921 4.286 C 10.251 4.725,10.455 4.770,12.160 4.776 C 13.597 4.781,13.629 4.774,13.960 4.412 C 14.258 4.087,14.298 3.993,14.299 3.620 C 14.300 3.225,14.241 3.094,13.905 2.742 L 13.660 2.485 12.047 2.469 L 10.435 2.453 10.240 2.608 M6.616 3.735 C 6.243 3.888,5.801 4.164,5.539 4.405 C 5.346 4.583,5.076 4.968,4.905 5.309 L 4.800 5.517 4.800 12.600 L 4.800 19.683 4.885 19.852 C 5.263 20.597,5.780 21.127,6.469 21.475 L 6.718 21.600 12.052 21.600 L 17.386 21.600 17.761 21.353 C 18.246 21.033,18.645 20.634,18.953 20.160 L 19.200 19.780 19.200 12.664 L 19.200 5.547 19.053 5.254 C 18.875 4.899,18.550 4.482,18.268 4.248 C 17.841 3.894,17.056 3.590,16.900 3.720 C 16.867 3.748,16.767 3.999,16.679 4.279 C 16.508 4.821,16.281 5.327,16.072 5.632 C 15.891 5.897,15.352 6.413,15.036 6.623 C 14.347 7.081,13.415 7.234,11.600 7.186 C 10.023 7.145,9.597 7.046,8.860 6.549 C 8.115 6.047,7.744 5.505,7.318 4.300 C 7.118 3.733,7.055 3.600,6.989 3.601 C 6.962 3.601,6.794 3.662,6.616 3.735 M16.174 11.054 C 16.394 11.183,16.581 11.423,16.645 11.656 C 16.669 11.746,16.681 11.950,16.670 12.109 C 16.656 12.340,16.630 12.430,16.544 12.555 C 16.250 12.978,14.454 14.836,12.492 16.746 L 11.245 17.960 11.031 17.960 C 10.722 17.960,10.373 17.858,10.120 17.694 C 9.855 17.522,8.041 15.711,7.682 15.260 C 7.315 14.800,7.269 14.679,7.321 14.313 C 7.373 13.945,7.481 13.719,7.691 13.540 C 7.888 13.371,8.055 13.320,8.400 13.322 C 8.885 13.325,9.006 13.403,10.095 14.424 L 10.808 15.092 11.834 14.074 C 13.853 12.071,14.696 11.280,15.080 11.031 C 15.251 10.919,15.278 10.915,15.622 10.928 C 15.930 10.941,16.012 10.960,16.174 11.054 " fill="#373B4D" stroke="none" fill-rule="evenodd"></path></svg>