<svg width="24" height="24" viewBox="0 0 24 24" fill="none" xmlns="http://www.w3.org/2000/svg"><path d="M10.199 2.627 C 9.521 3.137,9.463 3.927,10.064 4.476 C 10.369 4.756,10.525 4.778,12.180 4.779 C 13.694 4.780,13.593 4.802,13.995 4.396 C 14.286 4.102,14.334 3.971,14.315 3.533 C 14.302 3.262,14.282 3.184,14.179 3.019 C 14.113 2.911,13.960 2.748,13.839 2.656 L 13.620 2.489 12.035 2.464 L 10.450 2.439 10.199 2.627 M6.720 3.681 C 6.137 3.891,5.591 4.258,5.313 4.626 C 5.232 4.733,5.084 4.974,4.984 5.161 L 4.801 5.500 4.801 12.594 L 4.800 19.687 4.979 20.034 C 5.175 20.414,5.490 20.815,5.779 21.054 C 5.881 21.139,6.131 21.296,6.333 21.403 L 6.700 21.598 12.021 21.599 L 17.342 21.600 17.656 21.421 C 18.299 21.054,18.661 20.695,19.014 20.070 L 19.200 19.740 19.200 12.655 L 19.200 5.570 19.097 5.338 C 18.850 4.778,18.437 4.279,18.018 4.034 C 17.720 3.859,17.309 3.692,17.091 3.657 C 16.879 3.623,16.843 3.677,16.682 4.272 C 16.439 5.167,16.246 5.517,15.682 6.083 C 15.193 6.573,14.998 6.715,14.587 6.880 C 14.196 7.036,13.877 7.108,13.340 7.158 C 12.438 7.244,10.378 7.185,9.900 7.060 C 9.367 6.922,8.660 6.498,8.255 6.073 C 7.821 5.619,7.604 5.222,7.361 4.439 C 7.112 3.637,7.106 3.621,7.019 3.611 C 6.975 3.606,6.841 3.637,6.720 3.681 " fill="#373B4D" stroke="none" fill-rule="evenodd"></path></svg>