<svg width="24" height="24" viewBox="0 0 24 24" fill="none" xmlns="http://www.w3.org/2000/svg"><path d="M10.125 2.738 C 9.686 3.195,9.563 3.618,9.759 4.000 C 10.005 4.482,10.247 4.653,10.780 4.722 C 11.263 4.785,13.248 4.789,13.461 4.728 C 13.682 4.665,13.927 4.475,14.108 4.229 C 14.252 4.033,14.261 4.004,14.274 3.679 C 14.291 3.253,14.250 3.146,13.923 2.767 L 13.676 2.480 12.024 2.480 L 10.373 2.480 10.125 2.738 M6.600 3.752 C 5.786 4.116,5.268 4.593,4.906 5.309 L 4.800 5.517 4.800 12.609 L 4.800 19.700 4.990 20.040 C 5.255 20.515,5.885 21.145,6.360 21.410 L 6.700 21.600 12.052 21.600 L 17.404 21.600 17.633 21.445 C 18.094 21.131,18.671 20.555,18.996 20.083 L 19.200 19.786 19.199 12.663 L 19.199 5.540 19.038 5.246 C 18.687 4.601,18.299 4.211,17.740 3.941 C 17.281 3.719,17.007 3.656,16.914 3.752 C 16.878 3.789,16.747 4.089,16.623 4.417 C 16.340 5.165,16.172 5.486,15.885 5.828 C 15.333 6.484,14.708 6.888,14.003 7.041 C 13.254 7.205,11.312 7.234,10.314 7.097 C 9.675 7.009,9.351 6.882,8.807 6.508 C 8.182 6.077,7.827 5.558,7.360 4.388 C 7.181 3.939,7.030 3.616,6.997 3.610 C 6.966 3.605,6.787 3.669,6.600 3.752 M16.080 11.026 C 16.258 11.100,16.465 11.298,16.564 11.488 C 16.623 11.603,16.640 11.721,16.640 12.009 C 16.640 12.346,16.630 12.397,16.534 12.541 C 16.317 12.865,15.851 13.353,13.582 15.634 L 11.260 17.967 10.980 17.949 C 10.620 17.925,10.285 17.804,10.025 17.604 C 9.743 17.386,7.860 15.478,7.634 15.180 C 7.337 14.789,7.306 14.707,7.335 14.382 C 7.367 14.031,7.538 13.666,7.744 13.512 C 8.021 13.304,8.548 13.272,8.902 13.442 C 9.112 13.542,9.440 13.816,10.191 14.516 L 10.801 15.085 12.331 13.589 C 14.339 11.623,14.868 11.138,15.174 10.982 C 15.324 10.905,15.851 10.930,16.080 11.026 " fill="#373B4D" stroke="none" fill-rule="evenodd"></path></svg>