<svg width="24" height="24" viewBox="0 0 24 24" fill="none" xmlns="http://www.w3.org/2000/svg"><path d="M8.999 2.627 C 8.321 3.137,8.263 3.927,8.864 4.476 C 9.169 4.756,9.325 4.778,10.980 4.779 C 12.494 4.780,12.393 4.802,12.795 4.396 C 13.086 4.102,13.134 3.971,13.115 3.533 C 13.102 3.262,13.082 3.184,12.979 3.019 C 12.913 2.911,12.760 2.748,12.639 2.656 L 12.420 2.489 10.835 2.464 L 9.250 2.439 8.999 2.627 M5.520 3.681 C 4.939 3.890,4.391 4.258,4.113 4.626 C 4.032 4.733,3.884 4.974,3.784 5.161 L 3.601 5.500 3.601 12.594 L 3.600 19.687 3.779 20.034 C 3.975 20.414,4.290 20.815,4.579 21.054 C 4.681 21.139,4.931 21.296,5.133 21.403 L 5.500 21.598 10.812 21.599 L 16.123 21.600 16.292 21.514 C 16.952 21.178,17.602 20.534,17.841 19.977 C 17.965 19.691,17.998 19.114,17.999 17.236 L 18.000 15.612 19.250 15.586 C 19.938 15.572,20.587 15.545,20.693 15.526 C 20.850 15.498,20.926 15.452,21.106 15.276 C 21.447 14.941,21.528 14.778,21.527 14.425 C 21.524 13.780,21.183 13.400,20.536 13.321 C 20.232 13.283,18.643 13.201,18.210 13.200 L 18.000 13.200 17.999 9.350 L 17.999 5.500 17.820 5.168 C 17.402 4.388,16.945 3.997,16.131 3.724 C 15.825 3.620,15.695 3.618,15.644 3.713 C 15.622 3.754,15.550 4.009,15.483 4.281 C 15.291 5.062,15.003 5.588,14.468 6.131 C 14.085 6.519,13.606 6.818,12.922 7.096 L 12.666 7.200 10.769 7.200 L 8.872 7.200 8.373 6.961 C 7.740 6.659,7.469 6.464,7.009 5.983 C 6.697 5.656,6.609 5.534,6.442 5.188 C 6.334 4.964,6.188 4.583,6.119 4.342 C 5.971 3.827,5.883 3.625,5.800 3.611 C 5.767 3.606,5.641 3.637,5.520 3.681 M13.595 9.742 C 13.840 9.815,14.087 10.040,14.203 10.294 C 14.295 10.496,14.308 11.055,14.226 11.251 C 14.143 11.449,13.817 11.837,13.136 12.550 L 12.514 13.200 15.257 13.200 L 18.000 13.200 18.000 14.400 L 18.000 15.600 15.256 15.600 L 12.513 15.600 13.152 16.270 C 13.873 17.026,14.136 17.326,14.233 17.500 C 14.283 17.589,14.300 17.718,14.299 18.000 C 14.297 18.438,14.255 18.547,13.976 18.826 C 13.629 19.173,13.185 19.260,12.776 19.060 C 12.521 18.935,11.442 17.923,10.000 16.455 C 8.630 15.060,8.480 14.854,8.480 14.361 C 8.480 13.943,8.797 13.563,10.880 11.479 C 12.236 10.121,12.558 9.834,12.830 9.737 C 13.033 9.665,13.341 9.667,13.595 9.742 " fill="#373B4D" stroke="none" fill-rule="evenodd"></path></svg>