<svg width="24" height="24" viewBox="0 0 24 24" fill="none" xmlns="http://www.w3.org/2000/svg"><path d="M9.040 2.608 C 8.735 2.850,8.441 3.338,8.440 3.603 C 8.440 3.762,8.576 4.093,8.721 4.286 C 9.051 4.725,9.255 4.770,10.960 4.776 C 12.397 4.781,12.429 4.774,12.760 4.412 C 13.058 4.087,13.098 3.993,13.099 3.620 C 13.100 3.225,13.041 3.094,12.705 2.742 L 12.460 2.485 10.847 2.469 L 9.235 2.453 9.040 2.608 M5.516 3.694 C 4.662 4.045,4.142 4.492,3.768 5.194 L 3.600 5.509 3.600 12.596 L 3.600 19.683 3.685 19.852 C 4.063 20.597,4.580 21.127,5.269 21.475 L 5.518 21.600 10.820 21.600 L 16.123 21.600 16.316 21.502 C 16.589 21.364,17.053 20.986,17.370 20.643 C 17.679 20.308,17.869 19.955,17.923 19.616 C 17.943 19.486,17.972 18.530,17.986 17.490 L 18.012 15.600 18.844 15.600 C 19.931 15.600,20.644 15.541,20.873 15.433 C 21.075 15.336,21.409 14.954,21.481 14.736 C 21.588 14.412,21.463 13.863,21.234 13.655 C 20.922 13.370,20.597 13.317,18.550 13.216 L 18.000 13.189 18.000 9.353 L 18.000 5.517 17.895 5.309 C 17.641 4.802,17.185 4.292,16.754 4.030 C 16.304 3.758,15.787 3.612,15.689 3.729 C 15.662 3.761,15.551 4.052,15.440 4.375 C 15.223 5.013,15.109 5.262,14.880 5.600 C 14.492 6.172,13.988 6.584,13.224 6.956 L 12.724 7.200 10.781 7.200 L 8.838 7.200 8.549 7.055 C 7.784 6.672,7.263 6.291,6.900 5.851 C 6.551 5.428,6.407 5.140,6.059 4.167 C 5.926 3.796,5.825 3.599,5.769 3.601 C 5.753 3.601,5.639 3.643,5.516 3.694 M13.492 9.758 C 13.897 9.825,14.194 10.167,14.262 10.645 C 14.332 11.146,14.149 11.457,13.163 12.510 L 12.517 13.200 15.258 13.200 L 18.000 13.200 18.000 14.400 L 18.000 15.600 15.256 15.600 L 12.513 15.600 13.129 16.252 C 14.240 17.429,14.304 17.531,14.272 18.078 C 14.257 18.342,14.233 18.430,14.136 18.587 C 13.987 18.828,13.740 19.017,13.460 19.105 C 13.162 19.199,12.918 19.141,12.564 18.893 C 12.220 18.651,8.942 15.372,8.751 15.079 C 8.672 14.957,8.577 14.764,8.539 14.650 C 8.391 14.195,8.580 13.876,9.682 12.723 C 10.701 11.657,12.205 10.179,12.491 9.964 C 12.816 9.718,13.007 9.679,13.492 9.758 " fill="#373B4D" stroke="none" fill-rule="evenodd"></path></svg>