<svg width="24" height="24" viewBox="0 0 24 24" fill="none" xmlns="http://www.w3.org/2000/svg"><path d="M10.599 2.433 C 10.348 2.473,10.004 2.676,9.850 2.877 C 9.588 3.218,9.536 3.700,9.720 4.092 C 9.832 4.330,10.089 4.589,10.320 4.696 C 10.493 4.777,10.561 4.780,12.000 4.780 C 13.487 4.780,13.502 4.779,13.688 4.687 C 14.587 4.245,14.630 3.027,13.762 2.564 L 13.517 2.433 12.148 2.419 C 11.396 2.411,10.699 2.417,10.599 2.433 M6.649 3.681 C 5.847 3.891,5.243 4.441,4.935 5.240 L 4.820 5.540 4.820 12.560 C 4.820 19.262,4.823 19.591,4.894 19.820 C 5.009 20.198,5.227 20.574,5.479 20.832 C 5.791 21.152,6.011 21.296,6.439 21.462 L 6.800 21.601 12.050 21.591 L 17.300 21.580 17.580 21.463 C 18.305 21.161,18.761 20.705,19.063 19.980 L 19.180 19.700 19.190 12.681 L 19.201 5.661 19.117 5.401 C 18.789 4.385,18.037 3.748,17.016 3.620 L 16.812 3.594 16.784 3.897 C 16.673 5.121,15.892 6.283,14.828 6.809 C 14.105 7.167,13.616 7.222,11.457 7.188 L 10.134 7.167 9.767 7.045 C 9.141 6.835,8.696 6.571,8.286 6.167 C 7.706 5.596,7.357 4.905,7.243 4.099 C 7.172 3.598,7.172 3.600,7.049 3.602 C 6.989 3.603,6.809 3.639,6.649 3.681 M8.891 10.905 C 9.112 11.018,9.307 11.193,9.436 11.394 C 9.554 11.578,9.560 11.606,9.560 12.004 C 9.560 12.415,9.558 12.424,9.418 12.632 C 9.104 13.098,8.576 13.297,8.062 13.143 C 7.773 13.056,7.572 12.901,7.398 12.632 C 7.242 12.391,7.240 12.383,7.240 12.004 C 7.241 11.653,7.251 11.603,7.358 11.415 C 7.509 11.153,7.782 10.933,8.078 10.835 C 8.230 10.785,8.743 10.829,8.891 10.905 M15.141 10.834 L 16.022 10.860 16.237 10.998 C 16.381 11.091,16.503 11.215,16.606 11.374 C 16.758 11.609,16.760 11.618,16.760 12.000 C 16.760 12.382,16.758 12.391,16.606 12.624 C 16.445 12.870,16.330 12.972,16.050 13.115 C 15.886 13.199,15.847 13.200,13.800 13.200 C 11.753 13.200,11.714 13.199,11.550 13.115 C 11.270 12.972,11.155 12.870,10.994 12.624 C 10.842 12.391,10.840 12.382,10.840 12.004 C 10.841 11.653,10.851 11.603,10.958 11.415 C 11.070 11.220,11.260 11.039,11.480 10.916 C 11.652 10.820,13.337 10.782,15.141 10.834 M8.891 15.705 C 9.112 15.818,9.307 15.993,9.436 16.194 C 9.554 16.378,9.560 16.406,9.560 16.804 C 9.560 17.215,9.558 17.224,9.418 17.432 C 9.104 17.898,8.576 18.097,8.062 17.943 C 7.773 17.856,7.572 17.701,7.398 17.432 C 7.242 17.191,7.240 17.183,7.240 16.804 C 7.241 16.453,7.251 16.403,7.358 16.215 C 7.509 15.953,7.782 15.733,8.078 15.635 C 8.230 15.585,8.743 15.629,8.891 15.705 M15.141 15.634 L 16.022 15.660 16.237 15.798 C 16.381 15.891,16.503 16.015,16.606 16.174 C 16.758 16.409,16.760 16.418,16.760 16.800 C 16.760 17.182,16.758 17.191,16.606 17.424 C 16.445 17.670,16.330 17.772,16.050 17.915 C 15.886 17.999,15.847 18.000,13.800 18.000 C 11.753 18.000,11.714 17.999,11.550 17.915 C 11.270 17.772,11.155 17.670,10.994 17.424 C 10.842 17.191,10.840 17.182,10.840 16.804 C 10.841 16.453,10.851 16.403,10.958 16.215 C 11.070 16.020,11.260 15.839,11.480 15.716 C 11.652 15.620,13.337 15.582,15.141 15.634 " fill="#373B4D" stroke="none" fill-rule="evenodd"></path></svg>