<svg width="24" height="24" viewBox="0 0 24 24" fill="none" xmlns="http://www.w3.org/2000/svg"><path d="M10.599 2.433 C 10.348 2.473,10.004 2.676,9.850 2.877 C 9.588 3.218,9.536 3.700,9.720 4.092 C 9.832 4.330,10.089 4.589,10.320 4.696 C 10.493 4.777,10.561 4.780,12.000 4.780 C 13.487 4.780,13.502 4.779,13.688 4.687 C 14.587 4.245,14.630 3.027,13.762 2.564 L 13.517 2.433 12.148 2.419 C 11.396 2.411,10.699 2.417,10.599 2.433 M6.649 3.681 C 5.847 3.891,5.243 4.441,4.935 5.240 L 4.820 5.540 4.820 12.560 C 4.820 19.262,4.823 19.591,4.894 19.820 C 5.009 20.198,5.227 20.574,5.479 20.832 C 5.791 21.152,6.011 21.296,6.439 21.462 L 6.800 21.601 12.050 21.591 L 17.300 21.580 17.580 21.463 C 18.305 21.161,18.761 20.705,19.063 19.980 L 19.180 19.700 19.190 12.681 L 19.201 5.661 19.117 5.401 C 18.789 4.385,18.037 3.748,17.016 3.620 L 16.812 3.594 16.784 3.897 C 16.673 5.121,15.892 6.283,14.828 6.809 C 14.105 7.167,13.616 7.222,11.457 7.188 L 10.134 7.167 9.767 7.045 C 9.141 6.835,8.696 6.571,8.286 6.167 C 7.706 5.596,7.357 4.905,7.243 4.099 C 7.172 3.598,7.172 3.600,7.049 3.602 C 6.989 3.603,6.809 3.639,6.649 3.681 M15.814 10.839 C 16.141 10.892,16.414 11.077,16.606 11.374 C 16.757 11.608,16.760 11.619,16.760 11.996 C 16.760 12.309,16.745 12.404,16.680 12.511 C 16.569 12.693,15.216 14.092,13.673 15.622 C 11.970 17.311,11.435 17.820,11.274 17.904 C 11.087 18.003,10.511 18.005,10.331 17.908 C 10.261 17.870,9.982 17.636,9.711 17.386 C 9.099 16.822,7.530 15.217,7.383 15.005 C 7.315 14.906,7.263 14.764,7.244 14.624 C 7.170 14.083,7.349 13.669,7.774 13.394 C 8.009 13.242,8.019 13.240,8.398 13.240 C 8.754 13.240,8.799 13.249,8.964 13.354 C 9.062 13.416,9.516 13.832,9.971 14.278 L 10.800 15.089 12.813 13.095 C 13.920 11.998,14.902 11.048,14.995 10.983 C 15.143 10.881,15.325 10.819,15.520 10.805 C 15.553 10.802,15.685 10.818,15.814 10.839 " fill="#373B4D" stroke="none" fill-rule="evenodd"></path></svg>