<svg width="24" height="24" viewBox="0 0 24 24" fill="none" xmlns="http://www.w3.org/2000/svg"><path d="M10.240 2.608 C 9.935 2.850,9.641 3.338,9.640 3.603 C 9.640 3.762,9.776 4.093,9.921 4.286 C 10.251 4.725,10.455 4.770,12.160 4.776 C 13.597 4.781,13.629 4.774,13.960 4.412 C 14.258 4.087,14.298 3.993,14.299 3.620 C 14.300 3.225,14.241 3.094,13.905 2.742 L 13.660 2.485 12.047 2.469 L 10.435 2.453 10.240 2.608 M6.616 3.735 C 6.243 3.888,5.801 4.164,5.539 4.405 C 5.346 4.583,5.076 4.968,4.905 5.309 L 4.800 5.517 4.800 12.600 L 4.800 19.683 4.885 19.852 C 5.263 20.597,5.780 21.127,6.469 21.475 L 6.718 21.600 12.052 21.600 L 17.386 21.600 17.761 21.353 C 18.246 21.033,18.645 20.634,18.953 20.160 L 19.200 19.780 19.200 12.664 L 19.200 5.547 19.053 5.254 C 18.875 4.899,18.550 4.482,18.268 4.248 C 17.841 3.894,17.056 3.590,16.900 3.720 C 16.867 3.748,16.767 3.999,16.679 4.279 C 16.508 4.821,16.281 5.327,16.072 5.632 C 15.891 5.897,15.352 6.413,15.036 6.623 C 14.347 7.081,13.415 7.234,11.600 7.186 C 10.023 7.145,9.597 7.046,8.860 6.549 C 8.115 6.047,7.744 5.505,7.318 4.300 C 7.118 3.733,7.055 3.600,6.989 3.601 C 6.962 3.601,6.794 3.662,6.616 3.735 " fill="#373B4D" stroke="none" fill-rule="evenodd"></path></svg>