<svg width="24" height="24" viewBox="0 0 24 24" fill="none" xmlns="http://www.w3.org/2000/svg"><path d="M10.125 2.744 C 9.816 3.081,9.680 3.350,9.681 3.618 C 9.683 3.996,9.946 4.409,10.292 4.577 C 10.621 4.736,10.954 4.766,12.290 4.752 L 13.510 4.740 13.725 4.591 C 14.124 4.315,14.280 4.039,14.280 3.609 C 14.280 3.277,14.179 3.051,13.877 2.710 L 13.673 2.480 12.020 2.480 L 10.367 2.480 10.125 2.744 M6.831 3.662 C 6.535 3.767,5.975 4.083,5.731 4.280 C 5.423 4.529,5.124 4.894,4.940 5.245 L 4.800 5.512 4.800 12.614 L 4.800 19.716 4.924 19.927 C 5.329 20.613,5.928 21.199,6.548 21.514 L 6.717 21.600 12.068 21.600 L 17.420 21.600 17.760 21.345 C 18.172 21.035,18.712 20.483,18.993 20.083 L 19.200 19.787 19.200 12.667 L 19.200 5.547 19.056 5.283 C 18.823 4.858,18.572 4.533,18.308 4.313 C 17.999 4.056,17.387 3.755,17.123 3.729 C 16.892 3.707,16.920 3.669,16.636 4.386 C 16.418 4.938,16.210 5.376,16.073 5.573 C 15.593 6.265,14.862 6.807,14.152 6.997 C 13.280 7.231,11.044 7.255,10.011 7.042 C 9.141 6.864,8.359 6.296,7.893 5.506 C 7.779 5.313,7.548 4.827,7.379 4.427 C 7.211 4.027,7.052 3.679,7.026 3.654 C 6.992 3.620,6.943 3.622,6.831 3.662 M8.706 10.995 C 8.986 11.035,9.174 11.173,9.319 11.446 C 9.429 11.651,9.440 11.706,9.440 12.048 C 9.440 12.393,9.431 12.439,9.326 12.605 C 9.146 12.888,8.659 13.160,8.331 13.160 C 8.070 13.160,7.663 12.867,7.479 12.546 C 7.375 12.365,7.361 12.302,7.361 12.020 C 7.362 11.788,7.383 11.652,7.440 11.527 C 7.674 11.012,7.966 10.890,8.706 10.995 M16.312 11.135 C 16.548 11.392,16.598 11.515,16.626 11.917 C 16.647 12.205,16.638 12.313,16.584 12.455 C 16.497 12.683,16.146 13.019,15.936 13.076 C 15.523 13.186,12.971 13.242,12.211 13.157 C 11.513 13.079,11.280 12.952,11.077 12.540 C 10.967 12.316,10.949 12.239,10.949 11.969 C 10.949 11.559,11.108 11.231,11.373 11.093 C 11.526 11.013,12.485 10.977,14.705 10.967 L 16.150 10.960 16.312 11.135 M8.706 15.795 C 8.986 15.835,9.174 15.973,9.319 16.246 C 9.429 16.451,9.440 16.506,9.440 16.848 C 9.440 17.193,9.431 17.239,9.326 17.405 C 9.146 17.688,8.659 17.960,8.331 17.960 C 8.070 17.960,7.663 17.667,7.479 17.346 C 7.375 17.165,7.361 17.102,7.361 16.820 C 7.362 16.588,7.383 16.452,7.440 16.327 C 7.674 15.812,7.966 15.690,8.706 15.795 M16.312 15.935 C 16.548 16.192,16.598 16.315,16.626 16.717 C 16.647 17.005,16.638 17.113,16.584 17.255 C 16.497 17.483,16.146 17.819,15.936 17.876 C 15.523 17.986,12.971 18.042,12.211 17.957 C 11.513 17.879,11.280 17.752,11.077 17.340 C 10.967 17.116,10.949 17.039,10.949 16.769 C 10.949 16.359,11.108 16.031,11.373 15.893 C 11.526 15.813,12.485 15.777,14.705 15.767 L 16.150 15.760 16.312 15.935 " fill="#373B4D" stroke="none" fill-rule="evenodd"></path></svg>