<svg width="24" height="24" viewBox="0 0 24 24" fill="none" xmlns="http://www.w3.org/2000/svg"><path d="M10.340 2.521 C 9.590 3.095,9.446 3.731,9.932 4.328 C 10.209 4.668,10.358 4.722,11.148 4.768 C 11.949 4.815,13.409 4.787,13.580 4.722 C 13.748 4.657,14.154 4.252,14.244 4.060 C 14.292 3.956,14.318 3.809,14.319 3.640 C 14.320 3.210,14.270 3.095,13.936 2.770 L 13.638 2.480 12.826 2.480 C 12.379 2.480,11.663 2.469,11.236 2.455 C 10.470 2.430,10.458 2.431,10.340 2.521 M6.754 3.677 C 6.281 3.828,5.592 4.268,5.358 4.569 C 5.241 4.719,5.009 5.101,4.885 5.348 L 4.800 5.517 4.800 12.602 L 4.800 19.688 4.959 19.994 C 5.164 20.388,5.572 20.903,5.828 21.091 C 5.937 21.172,6.179 21.319,6.364 21.418 L 6.700 21.599 12.028 21.599 L 17.356 21.600 17.563 21.478 C 18.300 21.044,18.656 20.696,19.022 20.055 L 19.200 19.742 19.200 12.656 L 19.200 5.570 19.096 5.335 C 18.937 4.975,18.667 4.594,18.379 4.325 C 17.974 3.946,17.127 3.569,16.925 3.678 C 16.857 3.714,16.784 3.906,16.618 4.495 C 16.403 5.255,16.055 5.779,15.360 6.388 C 14.609 7.046,13.744 7.234,11.682 7.188 C 10.080 7.152,9.743 7.089,9.080 6.700 C 8.451 6.331,7.977 5.848,7.700 5.294 C 7.621 5.136,7.459 4.716,7.340 4.360 C 7.138 3.756,7.068 3.597,7.005 3.602 C 6.991 3.603,6.878 3.637,6.754 3.677 M8.947 11.004 C 9.164 11.108,9.388 11.366,9.445 11.578 C 9.470 11.667,9.492 11.884,9.495 12.060 C 9.499 12.344,9.487 12.402,9.388 12.571 C 9.228 12.842,8.933 13.063,8.653 13.121 C 8.405 13.173,8.088 13.147,7.923 13.062 C 7.783 12.989,7.409 12.590,7.360 12.460 C 7.290 12.275,7.312 11.641,7.395 11.458 C 7.468 11.297,7.745 11.023,7.900 10.959 C 7.944 10.940,8.159 10.924,8.377 10.923 C 8.702 10.920,8.806 10.935,8.947 11.004 M16.246 11.065 C 16.342 11.134,16.474 11.266,16.540 11.358 C 16.652 11.515,16.661 11.556,16.673 11.938 C 16.685 12.298,16.676 12.371,16.600 12.520 C 16.470 12.774,16.165 13.063,15.991 13.095 C 15.467 13.194,12.835 13.236,12.078 13.158 C 11.599 13.109,11.435 13.049,11.232 12.852 C 11.046 12.670,10.931 12.405,10.897 12.077 C 10.865 11.758,10.921 11.537,11.092 11.314 C 11.249 11.107,11.416 11.005,11.669 10.959 C 11.774 10.941,12.808 10.928,13.966 10.933 L 16.072 10.940 16.246 11.065 M8.947 15.804 C 9.164 15.908,9.388 16.166,9.445 16.378 C 9.470 16.467,9.492 16.684,9.495 16.860 C 9.499 17.144,9.487 17.202,9.388 17.371 C 9.228 17.642,8.933 17.863,8.653 17.921 C 8.405 17.973,8.088 17.947,7.923 17.862 C 7.783 17.789,7.409 17.390,7.360 17.260 C 7.290 17.075,7.312 16.441,7.395 16.258 C 7.468 16.097,7.745 15.823,7.900 15.759 C 7.944 15.740,8.159 15.724,8.377 15.723 C 8.702 15.720,8.806 15.735,8.947 15.804 M16.246 15.865 C 16.342 15.934,16.474 16.066,16.540 16.158 C 16.652 16.315,16.661 16.356,16.673 16.738 C 16.685 17.098,16.676 17.171,16.600 17.320 C 16.470 17.574,16.165 17.863,15.991 17.895 C 15.467 17.994,12.835 18.036,12.078 17.958 C 11.599 17.909,11.435 17.849,11.232 17.652 C 11.046 17.470,10.931 17.205,10.897 16.877 C 10.865 16.558,10.921 16.337,11.092 16.114 C 11.249 15.907,11.416 15.805,11.669 15.759 C 11.774 15.741,12.808 15.728,13.966 15.733 L 16.072 15.740 16.246 15.865 " fill="#373B4D" stroke="none" fill-rule="evenodd"></path></svg>