<svg width="24" height="24" viewBox="0 0 24 24" fill="none" xmlns="http://www.w3.org/2000/svg"><path d="M9.140 2.521 C 8.390 3.095,8.246 3.731,8.732 4.328 C 9.009 4.668,9.158 4.722,9.948 4.768 C 10.749 4.815,12.209 4.787,12.380 4.722 C 12.548 4.657,12.954 4.252,13.044 4.060 C 13.092 3.956,13.118 3.809,13.119 3.640 C 13.120 3.210,13.070 3.095,12.736 2.770 L 12.438 2.480 11.626 2.480 C 11.179 2.480,10.463 2.469,10.036 2.455 C 9.270 2.430,9.258 2.431,9.140 2.521 M5.531 3.680 C 5.034 3.857,4.407 4.264,4.158 4.572 C 4.044 4.713,3.816 5.088,3.685 5.348 L 3.600 5.517 3.600 12.602 L 3.600 19.688 3.759 19.994 C 3.964 20.388,4.372 20.903,4.628 21.091 C 4.737 21.172,4.979 21.319,5.164 21.418 L 5.500 21.599 10.811 21.599 L 16.123 21.600 16.317 21.502 C 16.640 21.338,17.153 20.925,17.415 20.618 C 17.694 20.291,17.858 19.995,17.923 19.700 C 17.950 19.578,17.975 18.743,17.988 17.550 L 18.009 15.600 18.734 15.598 C 19.861 15.595,20.719 15.543,20.861 15.470 C 21.026 15.384,21.391 14.991,21.462 14.822 C 21.494 14.745,21.520 14.567,21.520 14.426 C 21.520 13.763,21.174 13.404,20.457 13.322 C 20.282 13.302,19.658 13.263,19.070 13.236 L 18.000 13.186 18.000 9.352 L 18.000 5.517 17.894 5.309 C 17.465 4.461,16.902 3.965,16.092 3.720 C 15.721 3.608,15.660 3.629,15.586 3.892 C 15.555 4.006,15.482 4.266,15.425 4.470 C 15.229 5.167,14.901 5.703,14.350 6.222 C 13.991 6.562,13.620 6.794,13.039 7.045 L 12.679 7.200 10.769 7.200 L 8.860 7.199 8.413 6.983 C 7.870 6.721,7.560 6.514,7.201 6.176 C 6.666 5.671,6.442 5.291,6.133 4.366 C 5.938 3.782,5.893 3.677,5.824 3.631 C 5.769 3.594,5.779 3.592,5.531 3.680 M13.718 9.799 C 13.802 9.842,13.943 9.960,14.033 10.061 C 14.225 10.280,14.300 10.561,14.269 10.948 C 14.238 11.342,14.115 11.514,13.093 12.590 L 12.514 13.200 15.257 13.200 L 18.000 13.200 18.000 14.400 L 18.000 15.600 15.256 15.600 L 12.513 15.600 13.111 16.230 C 13.809 16.964,14.101 17.293,14.205 17.460 C 14.299 17.611,14.312 18.288,14.225 18.491 C 14.085 18.817,13.583 19.159,13.245 19.160 C 12.943 19.160,12.773 19.080,12.368 18.745 C 11.847 18.313,9.117 15.577,8.831 15.199 C 8.367 14.587,8.363 14.251,8.813 13.656 C 9.232 13.102,12.150 10.176,12.575 9.883 C 12.669 9.819,12.807 9.747,12.883 9.724 C 13.077 9.665,13.536 9.706,13.718 9.799 " fill="#373B4D" stroke="none" fill-rule="evenodd"></path></svg>