<svg width="24" height="24" viewBox="0 0 24 24" fill="none" xmlns="http://www.w3.org/2000/svg"><path d="M10.208 2.617 C 10.072 2.717,9.908 2.872,9.843 2.962 C 9.617 3.274,9.589 3.809,9.780 4.140 C 9.905 4.356,10.150 4.598,10.318 4.669 C 10.522 4.756,11.437 4.807,12.534 4.793 C 13.388 4.781,13.516 4.771,13.638 4.705 C 13.817 4.607,14.171 4.252,14.260 4.081 C 14.343 3.919,14.353 3.460,14.278 3.209 C 14.218 3.009,14.019 2.764,13.786 2.605 L 13.620 2.492 12.037 2.464 L 10.455 2.435 10.208 2.617 M6.680 3.694 C 6.300 3.829,6.012 3.985,5.736 4.204 C 5.413 4.460,5.235 4.683,4.998 5.130 L 4.802 5.500 4.801 12.588 L 4.800 19.676 5.010 20.088 C 5.182 20.426,5.281 20.562,5.560 20.844 C 5.854 21.141,5.958 21.217,6.320 21.394 L 6.739 21.600 12.035 21.600 L 17.331 21.600 17.646 21.432 C 18.253 21.109,18.708 20.654,19.030 20.050 L 19.200 19.731 19.200 12.643 L 19.200 5.555 19.043 5.228 C 18.849 4.821,18.542 4.411,18.268 4.193 C 17.867 3.873,17.054 3.561,16.890 3.664 C 16.848 3.691,16.778 3.896,16.695 4.236 C 16.604 4.611,16.505 4.891,16.358 5.193 C 16.162 5.594,16.118 5.651,15.645 6.123 C 15.203 6.562,15.097 6.646,14.800 6.790 C 14.302 7.030,13.952 7.115,13.240 7.166 C 12.541 7.216,10.730 7.188,10.203 7.120 C 9.557 7.036,8.887 6.687,8.328 6.146 C 7.813 5.647,7.559 5.181,7.299 4.261 C 7.219 3.976,7.136 3.710,7.115 3.671 C 7.066 3.579,6.994 3.582,6.680 3.694 M16.212 11.035 C 16.433 11.187,16.621 11.427,16.685 11.641 C 16.709 11.722,16.722 11.925,16.714 12.090 C 16.700 12.365,16.684 12.413,16.539 12.624 C 16.274 13.009,12.364 16.950,11.469 17.734 L 11.202 17.968 10.851 17.953 C 10.426 17.935,10.310 17.884,9.901 17.535 C 9.139 16.884,7.742 15.436,7.425 14.968 L 7.271 14.740 7.290 14.373 C 7.311 13.954,7.407 13.739,7.668 13.523 C 7.905 13.328,8.044 13.280,8.366 13.280 C 8.905 13.281,8.924 13.293,10.110 14.427 L 10.801 15.087 12.350 13.558 C 14.086 11.846,14.811 11.163,15.079 10.991 C 15.252 10.879,15.277 10.875,15.640 10.888 C 15.994 10.901,16.033 10.911,16.212 11.035 " fill="#373B4D" stroke="none" fill-rule="evenodd"></path></svg>