<svg width="24" height="24" viewBox="0 0 24 24" fill="none" xmlns="http://www.w3.org/2000/svg"><path d="M10.199 2.627 C 9.521 3.137,9.463 3.927,10.064 4.476 C 10.369 4.756,10.525 4.778,12.180 4.779 C 13.694 4.780,13.593 4.802,13.995 4.396 C 14.286 4.102,14.334 3.971,14.315 3.533 C 14.302 3.262,14.282 3.184,14.179 3.019 C 14.113 2.911,13.960 2.748,13.839 2.656 L 13.620 2.489 12.035 2.464 L 10.450 2.439 10.199 2.627 M6.720 3.681 C 6.137 3.891,5.591 4.258,5.313 4.626 C 5.232 4.733,5.084 4.974,4.984 5.161 L 4.801 5.500 4.801 12.594 L 4.800 19.687 4.979 20.034 C 5.175 20.414,5.490 20.815,5.779 21.054 C 5.881 21.139,6.131 21.296,6.333 21.403 L 6.700 21.598 12.021 21.599 L 17.342 21.600 17.656 21.421 C 18.299 21.054,18.661 20.695,19.014 20.070 L 19.200 19.740 19.200 12.655 L 19.200 5.570 19.097 5.338 C 18.850 4.778,18.437 4.279,18.018 4.034 C 17.720 3.859,17.309 3.692,17.091 3.657 C 16.879 3.623,16.843 3.677,16.682 4.272 C 16.439 5.167,16.246 5.517,15.682 6.083 C 15.193 6.573,14.998 6.715,14.587 6.880 C 14.196 7.036,13.877 7.108,13.340 7.158 C 12.438 7.244,10.378 7.185,9.900 7.060 C 9.367 6.922,8.660 6.498,8.255 6.073 C 7.821 5.619,7.604 5.222,7.361 4.439 C 7.112 3.637,7.106 3.621,7.019 3.611 C 6.975 3.606,6.841 3.637,6.720 3.681 M8.910 10.964 C 9.043 11.014,9.344 11.305,9.413 11.452 C 9.446 11.522,9.486 11.724,9.501 11.900 C 9.540 12.355,9.485 12.529,9.221 12.787 C 8.900 13.099,8.803 13.140,8.377 13.140 C 7.975 13.140,7.920 13.115,7.587 12.776 C 7.338 12.522,7.303 12.427,7.301 12.000 C 7.300 11.572,7.364 11.400,7.606 11.178 C 7.820 10.982,7.876 10.948,8.032 10.917 C 8.201 10.883,8.775 10.914,8.910 10.964 M16.103 10.979 C 16.284 11.054,16.513 11.270,16.610 11.456 C 16.679 11.589,16.696 11.693,16.698 12.001 C 16.700 12.363,16.694 12.392,16.572 12.581 C 16.416 12.825,16.217 13.021,16.069 13.077 C 15.785 13.184,13.025 13.244,12.120 13.163 C 11.585 13.115,11.435 13.066,11.247 12.877 C 11.021 12.651,10.918 12.418,10.892 12.071 C 10.864 11.696,10.921 11.495,11.119 11.271 C 11.374 10.981,11.487 10.944,12.200 10.915 C 13.214 10.874,15.959 10.919,16.103 10.979 M8.910 15.764 C 9.043 15.814,9.344 16.105,9.413 16.252 C 9.446 16.322,9.486 16.524,9.501 16.700 C 9.540 17.155,9.485 17.329,9.221 17.587 C 8.900 17.899,8.803 17.940,8.377 17.940 C 7.975 17.940,7.920 17.915,7.587 17.576 C 7.338 17.322,7.303 17.227,7.301 16.800 C 7.300 16.372,7.364 16.200,7.606 15.978 C 7.820 15.782,7.876 15.748,8.032 15.717 C 8.201 15.683,8.775 15.714,8.910 15.764 M16.103 15.779 C 16.284 15.854,16.513 16.070,16.610 16.256 C 16.679 16.389,16.696 16.493,16.698 16.801 C 16.700 17.163,16.694 17.192,16.572 17.381 C 16.416 17.625,16.217 17.821,16.069 17.877 C 15.785 17.984,13.025 18.044,12.120 17.963 C 11.585 17.915,11.435 17.866,11.247 17.677 C 11.021 17.451,10.918 17.218,10.892 16.871 C 10.864 16.496,10.921 16.295,11.119 16.071 C 11.374 15.781,11.487 15.744,12.200 15.715 C 13.214 15.674,15.959 15.719,16.103 15.779 " fill="#373B4D" stroke="none" fill-rule="evenodd"></path></svg>