<svg width="24" height="24" viewBox="0 0 24 24" fill="none" xmlns="http://www.w3.org/2000/svg"><path d="M9.008 2.617 C 8.872 2.717,8.708 2.872,8.643 2.962 C 8.417 3.274,8.389 3.809,8.580 4.140 C 8.705 4.356,8.950 4.598,9.118 4.669 C 9.322 4.756,10.237 4.807,11.334 4.793 C 12.188 4.781,12.316 4.771,12.438 4.705 C 12.617 4.607,12.971 4.252,13.060 4.081 C 13.143 3.919,13.153 3.460,13.078 3.209 C 13.018 3.009,12.819 2.764,12.586 2.605 L 12.420 2.492 10.837 2.464 L 9.255 2.435 9.008 2.617 M5.480 3.694 C 5.100 3.829,4.812 3.985,4.536 4.204 C 4.213 4.460,4.035 4.683,3.798 5.130 L 3.602 5.500 3.601 12.588 L 3.600 19.676 3.810 20.088 C 3.982 20.426,4.081 20.562,4.360 20.844 C 4.654 21.141,4.758 21.217,5.120 21.394 L 5.539 21.600 10.831 21.600 L 16.123 21.600 16.331 21.494 C 16.922 21.195,17.530 20.615,17.780 20.108 C 17.916 19.833,17.934 19.760,17.963 19.352 C 17.981 19.103,17.996 18.157,17.998 17.250 L 18.000 15.600 18.810 15.598 C 19.801 15.595,20.763 15.545,20.858 15.492 C 20.996 15.414,21.396 14.989,21.465 14.846 C 21.566 14.637,21.560 14.195,21.453 13.958 C 21.343 13.712,21.151 13.502,20.947 13.403 C 20.756 13.311,20.218 13.264,18.810 13.217 L 18.000 13.190 18.000 9.354 L 18.000 5.518 17.875 5.269 C 17.548 4.615,17.181 4.205,16.695 3.952 C 16.406 3.801,15.935 3.640,15.781 3.640 C 15.642 3.640,15.599 3.724,15.517 4.146 C 15.370 4.903,15.152 5.360,14.669 5.920 C 14.237 6.421,13.783 6.737,13.065 7.036 L 12.671 7.200 10.785 7.200 L 8.900 7.199 8.451 7.004 C 7.884 6.756,7.503 6.503,7.115 6.115 C 6.573 5.573,6.344 5.156,6.097 4.267 C 5.963 3.786,5.877 3.599,5.789 3.601 C 5.762 3.601,5.623 3.643,5.480 3.694 M13.702 9.775 C 13.919 9.876,14.073 10.034,14.210 10.295 C 14.334 10.532,14.336 11.072,14.214 11.300 C 14.097 11.517,13.695 11.981,13.048 12.646 L 12.510 13.200 15.255 13.200 L 18.000 13.200 18.000 14.400 L 18.000 15.600 15.257 15.600 L 12.514 15.600 13.173 16.290 C 14.014 17.170,14.231 17.426,14.280 17.600 C 14.342 17.819,14.329 18.309,14.257 18.460 C 14.164 18.658,13.934 18.908,13.747 19.018 C 13.337 19.257,12.958 19.230,12.552 18.931 C 12.275 18.727,9.878 16.369,9.176 15.610 C 8.927 15.341,8.676 15.040,8.618 14.941 C 8.481 14.707,8.433 14.359,8.504 14.120 C 8.585 13.847,8.889 13.497,10.250 12.105 C 11.694 10.627,12.473 9.891,12.723 9.768 C 12.976 9.642,13.424 9.645,13.702 9.775 " fill="#373B4D" stroke="none" fill-rule="evenodd"></path></svg>