<svg width="24" height="24" viewBox="0 0 24 24" fill="none" xmlns="http://www.w3.org/2000/svg"><path d="M9.062 2.595 C 8.728 2.873,8.440 3.356,8.440 3.637 C 8.440 3.796,8.657 4.216,8.842 4.418 C 9.086 4.682,9.245 4.720,10.300 4.764 C 11.216 4.802,12.065 4.781,12.340 4.713 C 12.538 4.664,12.967 4.238,13.045 4.012 C 13.074 3.928,13.097 3.734,13.095 3.580 C 13.091 3.236,13.016 3.077,12.693 2.730 L 12.460 2.480 10.842 2.470 L 9.224 2.460 9.062 2.595 M5.426 3.738 C 4.924 3.957,4.685 4.117,4.320 4.480 C 4.075 4.723,3.924 4.917,3.789 5.160 L 3.600 5.500 3.600 12.594 L 3.600 19.688 3.743 19.961 C 4.063 20.570,4.633 21.138,5.246 21.460 L 5.512 21.600 10.828 21.600 L 16.145 21.600 16.380 21.458 C 17.201 20.964,17.816 20.220,17.918 19.598 C 17.941 19.456,17.972 18.501,17.986 17.475 L 18.013 15.611 19.156 15.589 C 19.785 15.577,20.413 15.545,20.550 15.519 C 20.847 15.462,21.052 15.333,21.277 15.060 C 21.528 14.755,21.577 14.487,21.456 14.077 C 21.265 13.425,20.977 13.341,18.530 13.217 L 18.000 13.190 18.000 9.348 L 18.000 5.507 17.857 5.246 C 17.422 4.456,16.725 3.878,16.014 3.719 C 15.690 3.646,15.713 3.615,15.376 4.552 C 15.162 5.146,15.006 5.442,14.701 5.832 C 14.386 6.235,13.925 6.586,13.278 6.918 L 12.729 7.200 10.783 7.200 L 8.838 7.200 8.509 7.035 C 7.795 6.677,7.221 6.246,6.872 5.806 C 6.582 5.441,6.413 5.111,6.131 4.360 C 5.918 3.791,5.827 3.600,5.769 3.600 C 5.753 3.601,5.599 3.663,5.426 3.738 M13.663 9.818 C 14.116 10.008,14.371 10.588,14.223 11.096 C 14.139 11.385,13.843 11.775,13.103 12.570 L 12.516 13.200 15.258 13.200 L 18.000 13.200 18.000 14.400 L 18.000 15.600 15.258 15.600 L 12.516 15.600 13.182 16.310 C 14.185 17.378,14.310 17.583,14.268 18.085 C 14.240 18.413,14.155 18.606,13.949 18.806 C 13.597 19.148,13.194 19.225,12.792 19.028 C 12.515 18.892,11.034 17.484,9.661 16.051 C 8.657 15.003,8.520 14.806,8.520 14.412 C 8.520 13.987,8.810 13.611,10.345 12.043 C 11.627 10.733,12.459 9.958,12.729 9.821 C 12.915 9.726,12.973 9.716,13.223 9.733 C 13.378 9.744,13.576 9.782,13.663 9.818 " fill="#373B4D" stroke="none" fill-rule="evenodd"></path></svg>