<svg width="24" height="24" viewBox="0 0 24 24" fill="none" xmlns="http://www.w3.org/2000/svg"><path d="M9.100 2.543 C 8.861 2.702,8.644 2.920,8.547 3.100 C 8.430 3.315,8.425 3.869,8.538 4.080 C 8.662 4.313,8.850 4.523,9.031 4.628 C 9.177 4.714,9.275 4.733,9.731 4.762 C 10.022 4.781,10.706 4.797,11.252 4.798 C 12.178 4.800,12.254 4.795,12.406 4.717 C 12.627 4.604,12.904 4.342,13.033 4.122 C 13.127 3.963,13.139 3.900,13.136 3.619 C 13.129 3.132,12.991 2.878,12.577 2.592 L 12.420 2.483 10.840 2.460 L 9.260 2.437 9.100 2.543 M5.440 3.704 C 4.980 3.860,4.651 4.062,4.315 4.397 C 4.061 4.650,3.977 4.770,3.805 5.122 L 3.599 5.543 3.610 12.622 L 3.620 19.700 3.812 20.092 C 3.957 20.389,4.073 20.557,4.292 20.788 C 4.618 21.132,4.849 21.294,5.274 21.475 L 5.568 21.600 10.848 21.600 L 16.128 21.600 16.436 21.440 C 17.080 21.104,17.706 20.434,17.888 19.883 C 17.972 19.630,17.976 19.546,17.991 17.616 L 18.006 15.613 19.345 15.586 C 20.377 15.566,20.716 15.546,20.823 15.501 C 21.002 15.427,21.360 15.066,21.461 14.860 C 21.582 14.610,21.569 14.159,21.432 13.900 C 21.276 13.604,21.047 13.401,20.793 13.333 C 20.653 13.296,20.141 13.261,19.290 13.231 L 18.000 13.185 18.000 9.352 L 18.000 5.518 17.855 5.229 C 17.539 4.601,17.255 4.270,16.800 3.999 C 16.498 3.820,15.989 3.640,15.782 3.640 C 15.619 3.640,15.590 3.686,15.543 4.020 C 15.432 4.800,15.190 5.331,14.674 5.921 C 14.205 6.458,13.741 6.774,12.978 7.075 L 12.657 7.202 10.758 7.191 L 8.860 7.180 8.420 6.990 C 7.837 6.739,7.531 6.535,7.115 6.122 C 6.558 5.569,6.314 5.126,6.100 4.282 C 5.964 3.745,5.903 3.600,5.812 3.601 C 5.772 3.602,5.605 3.648,5.440 3.704 M13.668 9.742 C 13.889 9.832,14.149 10.107,14.239 10.345 C 14.347 10.636,14.348 11.037,14.240 11.259 C 14.127 11.493,13.815 11.860,13.118 12.576 L 12.510 13.200 15.255 13.200 L 18.000 13.200 18.000 14.400 L 18.000 15.600 15.255 15.600 L 12.511 15.600 13.073 16.180 C 13.761 16.890,14.176 17.357,14.258 17.516 C 14.301 17.599,14.320 17.750,14.320 18.010 C 14.320 18.352,14.310 18.400,14.207 18.562 C 14.004 18.882,13.712 19.101,13.412 19.158 C 13.103 19.216,12.836 19.159,12.611 18.985 C 11.982 18.500,8.990 15.502,8.665 15.030 C 8.556 14.872,8.505 14.744,8.473 14.548 C 8.415 14.203,8.480 14.026,8.814 13.607 C 9.141 13.196,12.186 10.131,12.484 9.913 C 12.613 9.818,12.796 9.719,12.889 9.694 C 13.084 9.642,13.479 9.666,13.668 9.742 " fill="#373B4D" stroke="none" fill-rule="evenodd"></path></svg>