<svg width="24" height="24" viewBox="0 0 24 24" fill="none" xmlns="http://www.w3.org/2000/svg"><path d="M9.067 2.580 C 8.960 2.662,8.795 2.835,8.699 2.965 C 8.364 3.421,8.369 3.837,8.715 4.291 C 9.055 4.737,9.231 4.775,10.980 4.778 C 12.466 4.780,12.415 4.791,12.794 4.377 C 13.053 4.094,13.120 3.928,13.119 3.575 C 13.118 3.256,13.015 3.048,12.704 2.737 L 12.447 2.480 11.450 2.480 C 10.902 2.480,10.184 2.469,9.856 2.455 L 9.260 2.430 9.067 2.580 M5.450 3.717 C 5.077 3.864,4.597 4.163,4.330 4.414 C 4.117 4.614,3.899 4.927,3.706 5.309 L 3.600 5.517 3.600 12.600 L 3.600 19.683 3.706 19.891 C 3.940 20.354,4.351 20.877,4.672 21.117 C 4.779 21.198,5.013 21.340,5.190 21.432 L 5.512 21.600 10.818 21.600 L 16.123 21.600 16.292 21.516 C 16.698 21.312,17.345 20.750,17.599 20.382 C 17.898 19.947,17.929 19.824,17.964 18.943 C 17.981 18.501,17.996 17.569,17.998 16.870 L 18.000 15.600 18.810 15.600 C 19.849 15.599,20.686 15.540,20.866 15.454 C 21.048 15.368,21.431 14.935,21.480 14.760 C 21.537 14.558,21.529 14.245,21.461 14.016 C 21.339 13.606,20.980 13.385,20.337 13.322 C 19.940 13.283,18.456 13.200,18.158 13.200 L 18.000 13.200 18.000 9.359 L 18.000 5.517 17.894 5.309 C 17.629 4.783,17.235 4.323,16.826 4.062 C 16.487 3.845,16.029 3.673,15.828 3.688 C 15.638 3.702,15.673 3.633,15.385 4.560 C 15.171 5.250,14.794 5.834,14.268 6.294 C 13.936 6.583,13.624 6.777,13.120 7.008 L 12.700 7.199 10.767 7.200 L 8.834 7.200 8.352 6.954 C 7.799 6.672,7.349 6.348,7.026 6.000 C 6.600 5.539,6.426 5.215,6.102 4.281 C 5.935 3.798,5.835 3.597,5.764 3.601 C 5.751 3.602,5.610 3.654,5.450 3.717 M13.795 9.852 C 14.139 10.080,14.317 10.497,14.264 10.951 C 14.218 11.343,14.070 11.551,13.132 12.545 L 12.514 13.200 15.257 13.200 L 18.000 13.200 18.000 14.400 L 18.000 15.600 15.258 15.600 L 12.515 15.600 13.204 16.330 C 14.253 17.442,14.280 17.484,14.280 18.000 C 14.280 18.369,14.219 18.543,14.016 18.760 C 13.767 19.026,13.422 19.178,13.132 19.148 C 12.854 19.119,12.661 19.004,12.196 18.588 C 11.763 18.201,9.221 15.652,8.931 15.313 C 8.672 15.012,8.522 14.727,8.493 14.486 C 8.463 14.231,8.593 13.938,8.909 13.543 C 9.181 13.205,11.565 10.788,12.154 10.253 C 12.722 9.738,12.769 9.716,13.245 9.731 C 13.586 9.741,13.648 9.755,13.795 9.852 " fill="#373B4D" stroke="none" fill-rule="evenodd"></path></svg>