<svg width="24" height="24" viewBox="0 0 24 24" fill="none" xmlns="http://www.w3.org/2000/svg"><path d="M10.125 2.744 C 9.816 3.081,9.680 3.350,9.681 3.618 C 9.683 3.996,9.946 4.409,10.292 4.577 C 10.621 4.736,10.954 4.766,12.290 4.752 L 13.510 4.740 13.725 4.591 C 14.124 4.315,14.280 4.039,14.280 3.609 C 14.280 3.277,14.179 3.051,13.877 2.710 L 13.673 2.480 12.020 2.480 L 10.367 2.480 10.125 2.744 M6.831 3.662 C 6.535 3.767,5.975 4.083,5.731 4.280 C 5.423 4.529,5.124 4.894,4.940 5.245 L 4.800 5.512 4.800 12.614 L 4.800 19.716 4.924 19.927 C 5.329 20.613,5.928 21.199,6.548 21.514 L 6.717 21.600 12.068 21.600 L 17.420 21.600 17.760 21.345 C 18.172 21.035,18.712 20.483,18.993 20.083 L 19.200 19.787 19.200 12.667 L 19.200 5.547 19.056 5.283 C 18.823 4.858,18.572 4.533,18.308 4.313 C 17.999 4.056,17.387 3.755,17.123 3.729 C 16.892 3.707,16.920 3.669,16.636 4.386 C 16.418 4.938,16.210 5.376,16.073 5.573 C 15.593 6.265,14.862 6.807,14.152 6.997 C 13.280 7.231,11.044 7.255,10.011 7.042 C 9.141 6.864,8.359 6.296,7.893 5.506 C 7.779 5.313,7.548 4.827,7.379 4.427 C 7.211 4.027,7.052 3.679,7.026 3.654 C 6.992 3.620,6.943 3.622,6.831 3.662 M16.207 11.102 C 16.301 11.168,16.431 11.299,16.497 11.392 C 16.604 11.545,16.618 11.599,16.633 11.935 C 16.645 12.227,16.634 12.340,16.582 12.450 C 16.465 12.697,15.836 13.363,13.525 15.690 L 11.269 17.960 11.083 17.960 C 10.835 17.960,10.472 17.862,10.225 17.729 C 9.870 17.536,7.821 15.472,7.491 14.974 C 7.350 14.761,7.340 14.728,7.345 14.460 C 7.348 14.241,7.375 14.116,7.458 13.931 C 7.649 13.506,7.897 13.351,8.384 13.351 C 8.876 13.351,9.072 13.478,10.190 14.517 L 10.801 15.085 12.391 13.532 C 14.113 11.852,14.759 11.251,15.040 11.070 C 15.214 10.958,15.234 10.954,15.628 10.968 C 16.005 10.981,16.048 10.991,16.207 11.102 " fill="#373B4D" stroke="none" fill-rule="evenodd"></path></svg>