<svg width="24" height="24" viewBox="0 0 24 24" fill="none" xmlns="http://www.w3.org/2000/svg"><path d="M10.680 2.562 C 9.847 2.629,8.634 3.012,7.629 3.528 C 6.202 4.260,4.700 5.649,3.844 7.030 C 3.150 8.149,2.629 9.657,2.483 10.968 C 2.393 11.782,2.448 13.117,2.601 13.808 C 2.934 15.313,3.521 16.620,4.374 17.760 C 4.745 18.256,5.679 19.189,6.160 19.545 C 7.337 20.416,8.933 21.157,10.160 21.403 C 10.776 21.526,11.996 21.584,12.790 21.528 C 13.767 21.459,14.413 21.305,15.429 20.897 C 17.178 20.195,18.614 19.108,19.703 17.660 C 20.334 16.821,21.026 15.314,21.362 14.047 C 21.467 13.651,21.517 12.929,21.518 11.780 C 21.520 10.756,21.475 10.352,21.285 9.680 C 20.787 7.921,19.954 6.474,18.748 5.274 C 17.986 4.515,17.233 3.978,16.240 3.485 C 15.354 3.044,14.574 2.780,13.756 2.644 C 13.093 2.533,11.552 2.492,10.680 2.562 M12.326 6.363 C 12.407 6.384,12.562 6.481,12.671 6.580 L 12.870 6.758 12.894 7.109 C 12.908 7.302,12.939 8.387,12.963 9.520 L 13.007 11.580 13.815 12.400 C 15.395 14.003,16.064 14.733,16.204 15.008 C 16.289 15.174,16.306 15.526,16.238 15.707 C 16.033 16.253,15.502 16.480,15.017 16.230 C 14.765 16.101,13.021 14.430,11.875 13.221 L 11.080 12.383 11.082 10.601 C 11.083 8.624,11.133 6.913,11.192 6.760 C 11.214 6.705,11.308 6.573,11.403 6.466 L 11.574 6.272 11.877 6.299 C 12.044 6.314,12.246 6.343,12.326 6.363 " fill="#373B4D" stroke="none" fill-rule="evenodd"></path></svg>