<svg width="24" height="24" viewBox="0 0 24 24" fill="none" xmlns="http://www.w3.org/2000/svg"><path d="M10.460 2.556 C 8.397 2.940,6.796 3.749,5.385 5.120 C 4.496 5.984,3.882 6.821,3.377 7.860 C 2.066 10.554,2.096 13.601,3.462 16.323 C 4.177 17.749,5.334 19.053,6.680 19.949 C 7.607 20.566,8.758 21.065,9.980 21.380 C 10.692 21.563,12.698 21.607,13.602 21.459 C 14.327 21.340,15.373 20.991,16.183 20.597 C 17.678 19.870,19.020 18.714,19.908 17.388 C 20.322 16.768,20.870 15.645,21.111 14.919 C 21.413 14.007,21.475 13.692,21.529 12.787 C 21.595 11.660,21.531 10.569,21.360 9.900 C 21.053 8.702,20.624 7.713,19.996 6.757 C 18.554 4.560,16.139 2.990,13.567 2.575 C 13.303 2.532,12.811 2.507,12.020 2.497 C 11.015 2.484,10.807 2.492,10.460 2.556 M12.548 6.425 C 12.632 6.493,12.751 6.620,12.814 6.708 L 12.927 6.869 12.962 8.384 C 12.981 9.218,12.997 10.276,12.998 10.735 L 13.000 11.570 14.265 12.852 C 16.164 14.777,16.401 15.073,16.340 15.448 C 16.247 16.013,15.880 16.360,15.373 16.360 C 15.088 16.360,14.840 16.191,14.090 15.484 C 13.310 14.750,11.345 12.719,11.170 12.466 L 11.060 12.307 11.060 9.683 C 11.060 7.607,11.071 7.022,11.114 6.880 C 11.151 6.754,11.233 6.636,11.387 6.486 L 11.608 6.271 12.002 6.287 C 12.370 6.302,12.406 6.311,12.548 6.425 " fill="#373B4D" stroke="none" fill-rule="evenodd"></path></svg>