<svg width="24" height="24" viewBox="0 0 24 24" fill="none" xmlns="http://www.w3.org/2000/svg"><path d="M11.000 2.463 C 8.701 2.737,6.759 3.671,5.175 5.265 C 2.751 7.704,1.820 11.347,2.781 14.634 C 3.551 17.270,5.288 19.358,7.732 20.586 C 8.548 20.996,9.533 21.315,10.507 21.484 C 10.943 21.559,11.167 21.573,12.000 21.573 C 12.833 21.573,13.057 21.559,13.493 21.484 C 16.681 20.930,19.280 18.988,20.644 16.140 C 20.953 15.495,21.137 14.984,21.320 14.263 C 21.528 13.445,21.573 13.025,21.570 11.920 C 21.567 11.152,21.552 10.892,21.483 10.500 C 21.304 9.479,21.026 8.628,20.573 7.714 C 19.332 5.208,17.068 3.393,14.321 2.701 C 13.686 2.541,13.242 2.480,12.412 2.440 C 11.490 2.395,11.587 2.393,11.000 2.463 M12.433 6.317 C 12.608 6.407,12.802 6.606,12.906 6.800 C 12.975 6.931,12.981 7.088,12.993 9.260 L 13.006 11.580 14.597 13.180 C 15.645 14.234,16.219 14.840,16.278 14.956 C 16.353 15.104,16.366 15.182,16.354 15.439 C 16.342 15.693,16.321 15.775,16.229 15.913 C 15.990 16.274,15.590 16.445,15.180 16.360 C 14.971 16.317,14.920 16.280,14.428 15.823 C 13.542 14.998,11.254 12.659,11.133 12.452 L 11.020 12.260 11.007 9.960 C 10.993 7.467,11.019 6.888,11.157 6.666 C 11.251 6.512,11.485 6.338,11.708 6.255 C 11.898 6.185,12.231 6.213,12.433 6.317 " fill="#373B4D" stroke="none" fill-rule="evenodd"></path></svg>