<svg width="24" height="24" viewBox="0 0 24 24" fill="none" xmlns="http://www.w3.org/2000/svg"><path d="M10.380 2.584 C 9.146 2.805,7.814 3.332,6.818 3.994 C 5.607 4.798,4.441 6.012,3.731 7.210 C 3.095 8.282,2.595 9.799,2.477 11.017 C 2.416 11.644,2.450 13.022,2.538 13.500 C 2.834 15.098,3.464 16.562,4.384 17.783 C 4.692 18.193,5.413 18.941,5.860 19.314 C 6.955 20.230,8.796 21.132,10.113 21.398 C 10.966 21.570,12.647 21.601,13.520 21.460 C 14.869 21.242,16.569 20.504,17.751 19.625 C 18.512 19.058,19.458 18.066,19.930 17.340 C 20.536 16.406,21.175 14.903,21.408 13.860 C 21.477 13.553,21.492 13.309,21.509 12.193 C 21.531 10.702,21.515 10.522,21.278 9.660 C 20.383 6.398,18.040 3.934,14.858 2.907 C 14.259 2.714,13.727 2.612,13.060 2.562 C 12.253 2.502,10.772 2.514,10.380 2.584 M12.365 6.362 C 12.495 6.396,12.801 6.660,12.883 6.808 C 12.899 6.836,12.934 7.922,12.961 9.220 L 13.010 11.580 14.064 12.651 C 15.299 13.906,15.954 14.615,16.155 14.917 C 16.283 15.107,16.300 15.163,16.299 15.377 C 16.297 15.808,16.002 16.213,15.610 16.323 C 15.374 16.389,15.139 16.330,14.840 16.129 C 14.602 15.970,11.836 13.231,11.367 12.690 L 11.080 12.359 11.083 10.310 C 11.086 7.965,11.121 6.866,11.197 6.724 C 11.226 6.672,11.323 6.548,11.414 6.449 L 11.579 6.270 11.900 6.297 C 12.076 6.311,12.285 6.340,12.365 6.362 " fill="#373B4D" stroke="none" fill-rule="evenodd"></path></svg>