<svg width="24" height="24" viewBox="0 0 24 24" fill="none" xmlns="http://www.w3.org/2000/svg"><path d="M10.289 2.625 C 9.884 2.688,9.108 2.900,8.687 3.064 C 7.846 3.390,6.714 4.042,6.040 4.589 C 5.622 4.928,4.580 5.998,4.311 6.365 C 3.488 7.486,2.931 8.746,2.599 10.240 C 2.430 11.002,2.402 12.647,2.544 13.480 C 2.754 14.707,3.342 16.217,3.993 17.200 C 4.677 18.233,5.842 19.378,6.866 20.023 C 7.315 20.306,8.462 20.870,8.970 21.057 C 9.925 21.410,10.747 21.536,12.080 21.534 C 12.901 21.533,13.134 21.519,13.520 21.448 C 15.715 21.046,17.863 19.828,19.258 18.196 C 20.031 17.291,20.567 16.333,21.060 14.972 C 21.389 14.066,21.440 13.808,21.485 12.820 C 21.527 11.881,21.505 10.799,21.433 10.340 C 21.294 9.444,20.679 7.897,20.099 6.980 C 19.148 5.480,17.896 4.341,16.320 3.543 C 15.235 2.994,14.306 2.706,13.286 2.602 C 12.677 2.540,10.743 2.555,10.289 2.625 M12.012 6.325 C 12.331 6.374,12.609 6.498,12.757 6.656 C 12.844 6.750,12.857 6.809,12.885 7.250 C 12.901 7.520,12.936 8.603,12.961 9.657 L 13.006 11.574 14.116 12.717 C 15.482 14.123,15.841 14.511,16.065 14.825 C 16.235 15.063,16.240 15.079,16.240 15.377 C 16.240 15.822,16.068 16.109,15.711 16.258 C 15.391 16.392,15.104 16.310,14.700 15.972 C 14.252 15.597,12.863 14.245,11.965 13.311 L 11.071 12.380 11.095 10.160 C 11.124 7.447,11.158 6.858,11.300 6.617 C 11.407 6.434,11.575 6.280,11.668 6.280 C 11.699 6.280,11.854 6.300,12.012 6.325 " fill="#373B4D" stroke="none" fill-rule="evenodd"></path></svg>