<svg width="24" height="24" viewBox="0 0 24 24" fill="none" xmlns="http://www.w3.org/2000/svg"><path d="M10.780 2.522 C 9.848 2.624,8.586 3.017,7.649 3.498 C 6.239 4.220,4.873 5.459,3.942 6.860 C 3.237 7.919,2.668 9.464,2.501 10.772 C 2.431 11.317,2.420 12.576,2.481 13.081 C 2.696 14.862,3.457 16.662,4.570 18.020 C 4.877 18.396,5.581 19.099,5.937 19.386 C 6.938 20.194,8.256 20.876,9.552 21.258 C 10.154 21.435,10.437 21.479,11.293 21.528 C 12.395 21.591,13.323 21.535,14.020 21.363 C 15.488 21.001,16.913 20.310,18.020 19.422 C 18.626 18.936,19.442 18.067,19.832 17.491 C 20.332 16.753,20.800 15.791,21.123 14.839 C 21.420 13.961,21.478 13.657,21.519 12.742 C 21.551 12.020,21.517 10.595,21.463 10.380 C 21.451 10.336,21.387 10.078,21.320 9.807 C 20.774 7.596,19.537 5.736,17.700 4.361 C 16.366 3.362,14.633 2.668,13.220 2.565 C 12.385 2.504,11.143 2.483,10.780 2.522 M12.467 6.386 C 12.541 6.421,12.670 6.536,12.755 6.643 L 12.908 6.836 12.934 7.748 C 12.948 8.250,12.970 9.317,12.984 10.120 L 13.008 11.580 13.917 12.500 C 15.540 14.144,16.095 14.753,16.255 15.068 C 16.395 15.344,16.307 15.750,16.039 16.055 C 15.714 16.425,15.248 16.450,14.820 16.120 C 14.266 15.693,12.010 13.438,11.242 12.544 L 11.073 12.347 11.087 9.624 C 11.102 6.579,11.077 6.836,11.404 6.465 L 11.576 6.269 11.955 6.296 C 12.163 6.311,12.393 6.351,12.467 6.386 " fill="#373B4D" stroke="none" fill-rule="evenodd"></path></svg>