<svg width="24" height="24" viewBox="0 0 24 24" fill="none" xmlns="http://www.w3.org/2000/svg"><path d="M10.760 2.522 C 10.374 2.561,9.778 2.692,9.213 2.863 C 7.699 3.321,6.431 4.086,5.278 5.239 C 4.146 6.370,3.447 7.473,2.937 8.932 C 2.589 9.928,2.429 10.874,2.427 11.940 C 2.425 12.966,2.541 13.773,2.827 14.720 C 3.603 17.286,5.348 19.360,7.722 20.537 C 8.525 20.935,9.507 21.288,10.181 21.420 C 10.954 21.572,12.804 21.593,13.592 21.458 C 14.060 21.378,14.717 21.191,15.300 20.971 C 17.069 20.304,18.595 19.166,19.682 17.700 C 20.542 16.540,21.320 14.686,21.487 13.400 C 21.553 12.883,21.554 11.041,21.487 10.580 C 21.355 9.662,20.930 8.407,20.452 7.520 C 19.135 5.077,16.774 3.289,14.060 2.676 C 13.604 2.573,13.417 2.554,12.540 2.521 C 11.413 2.478,11.186 2.478,10.760 2.522 M12.470 6.375 C 12.541 6.412,12.669 6.530,12.754 6.637 L 12.908 6.832 12.933 7.506 C 12.948 7.877,12.970 8.945,12.984 9.880 L 13.009 11.580 13.957 12.540 C 15.781 14.386,16.237 14.901,16.322 15.212 C 16.410 15.529,16.157 16.056,15.827 16.243 C 15.698 16.317,15.599 16.339,15.395 16.339 C 15.152 16.340,15.111 16.327,14.904 16.184 C 14.543 15.936,13.464 14.901,12.352 13.736 C 11.787 13.144,11.269 12.590,11.202 12.504 L 11.080 12.349 11.080 9.684 C 11.080 8.063,11.096 6.965,11.120 6.879 C 11.141 6.801,11.253 6.632,11.367 6.504 L 11.575 6.270 11.958 6.289 C 12.206 6.301,12.385 6.331,12.470 6.375 " fill="#373B4D" stroke="none" fill-rule="evenodd"></path></svg>