<svg width="24" height="24" viewBox="0 0 24 24" fill="none" xmlns="http://www.w3.org/2000/svg"><path d="M10.660 2.601 C 9.835 2.654,8.901 2.934,7.932 3.419 C 6.915 3.928,6.190 4.422,5.524 5.059 C 4.210 6.315,3.506 7.395,2.955 8.996 C 2.612 9.992,2.499 10.606,2.456 11.693 C 2.402 13.057,2.604 14.186,3.137 15.514 C 3.660 16.813,4.230 17.672,5.239 18.681 C 6.113 19.556,6.684 19.967,7.781 20.513 C 8.654 20.948,9.091 21.124,9.682 21.279 C 10.454 21.481,11.004 21.530,12.289 21.509 C 13.385 21.492,13.435 21.487,13.920 21.369 C 16.834 20.654,19.188 18.870,20.433 16.434 C 20.676 15.959,21.082 14.964,21.239 14.460 C 21.392 13.967,21.438 13.640,21.487 12.712 C 21.590 10.728,21.434 9.797,20.732 8.201 C 19.765 6.002,18.098 4.338,15.838 3.317 C 14.934 2.909,14.057 2.676,13.140 2.601 C 12.607 2.557,11.338 2.557,10.660 2.601 M12.307 6.405 C 12.666 6.516,12.825 6.678,12.855 6.961 C 12.891 7.307,12.917 8.011,12.963 9.856 L 13.006 11.572 14.210 12.816 C 16.017 14.683,16.202 14.907,16.232 15.259 C 16.281 15.857,15.908 16.331,15.400 16.317 C 15.033 16.306,14.741 16.061,12.810 14.139 L 11.080 12.416 11.081 11.578 C 11.083 10.076,11.157 7.266,11.201 7.000 C 11.248 6.721,11.386 6.443,11.531 6.340 C 11.638 6.262,11.922 6.286,12.307 6.405 " fill="#373B4D" stroke="none" fill-rule="evenodd"></path></svg>