<svg width="24" height="24" viewBox="0 0 24 24" fill="none" xmlns="http://www.w3.org/2000/svg"><path d="M10.800 2.602 C 9.953 2.652,9.188 2.852,8.279 3.261 C 6.771 3.938,5.535 4.887,4.488 6.170 C 3.517 7.359,2.767 9.091,2.533 10.680 C 2.428 11.395,2.439 12.868,2.554 13.500 C 2.856 15.155,3.599 16.799,4.565 17.948 C 4.922 18.373,5.698 19.144,6.080 19.452 C 6.934 20.141,8.561 20.975,9.600 21.255 C 10.436 21.481,10.632 21.500,12.100 21.497 L 13.460 21.494 14.014 21.346 C 15.888 20.845,17.402 20.015,18.653 18.802 C 19.696 17.790,20.318 16.838,20.913 15.340 C 21.339 14.268,21.411 13.950,21.483 12.820 C 21.537 11.953,21.512 10.911,21.423 10.380 C 21.183 8.955,20.388 7.240,19.397 6.013 C 18.128 4.440,15.991 3.130,14.061 2.740 C 13.262 2.578,12.060 2.527,10.800 2.602 M12.186 6.376 C 12.468 6.451,12.693 6.584,12.777 6.725 C 12.863 6.871,12.898 7.472,12.961 9.875 L 13.006 11.571 14.189 12.795 C 15.504 14.155,15.954 14.652,16.113 14.920 C 16.263 15.172,16.263 15.575,16.114 15.862 C 15.985 16.110,15.752 16.282,15.505 16.310 C 15.095 16.356,14.834 16.143,12.626 13.959 L 11.080 12.430 11.080 11.645 C 11.080 10.496,11.157 7.599,11.198 7.174 C 11.233 6.818,11.323 6.558,11.471 6.390 C 11.548 6.303,11.887 6.296,12.186 6.376 " fill="#373B4D" stroke="none" fill-rule="evenodd"></path></svg>