<svg width="24" height="24" viewBox="0 0 24 24" fill="none" xmlns="http://www.w3.org/2000/svg"><path d="M10.800 2.560 C 9.246 2.685,7.471 3.441,6.040 4.585 C 5.599 4.937,4.771 5.770,4.440 6.194 C 3.480 7.422,2.855 8.853,2.533 10.560 C 2.444 11.034,2.431 12.733,2.513 13.300 C 2.652 14.269,3.083 15.571,3.565 16.480 C 3.987 17.275,4.415 17.854,5.100 18.555 C 6.022 19.499,6.625 19.943,7.760 20.518 C 9.182 21.237,10.130 21.486,11.668 21.544 C 12.869 21.589,13.772 21.467,14.800 21.121 C 16.055 20.698,17.043 20.168,18.000 19.405 C 19.520 18.193,20.455 16.796,21.163 14.680 C 21.468 13.769,21.494 13.558,21.497 12.000 C 21.500 10.529,21.486 10.391,21.255 9.591 C 20.689 7.634,19.633 5.982,18.143 4.724 C 16.822 3.609,14.953 2.773,13.400 2.604 C 12.865 2.546,11.301 2.519,10.800 2.560 M12.036 6.321 C 12.353 6.362,12.584 6.472,12.766 6.666 C 12.865 6.773,12.873 6.811,12.896 7.280 C 12.910 7.555,12.940 8.633,12.964 9.677 L 13.007 11.573 14.179 12.777 C 15.500 14.133,15.897 14.565,16.112 14.875 C 16.251 15.077,16.260 15.108,16.260 15.396 C 16.260 15.673,16.248 15.721,16.131 15.901 C 15.972 16.147,15.776 16.284,15.543 16.310 C 15.273 16.340,15.105 16.293,14.879 16.123 C 14.500 15.838,13.037 14.430,12.054 13.403 L 11.080 12.385 11.081 10.883 C 11.082 8.827,11.144 6.914,11.216 6.748 C 11.301 6.549,11.554 6.280,11.653 6.281 C 11.701 6.282,11.873 6.300,12.036 6.321 " fill="#373B4D" stroke="none" fill-rule="evenodd"></path></svg>