<svg width="24" height="24" viewBox="0 0 24 24" fill="none" xmlns="http://www.w3.org/2000/svg"><path d="M10.960 2.483 C 10.529 2.522,9.753 2.687,9.175 2.863 C 7.694 3.311,6.417 4.074,5.312 5.171 C 3.805 6.665,2.893 8.403,2.543 10.445 C 2.150 12.732,2.671 15.225,3.947 17.178 C 5.248 19.167,7.063 20.510,9.409 21.217 C 10.384 21.511,10.564 21.534,11.920 21.537 C 13.206 21.540,13.437 21.520,14.160 21.339 C 16.336 20.794,18.255 19.563,19.560 17.875 C 20.466 16.703,21.204 15.049,21.468 13.600 C 21.571 13.039,21.571 10.898,21.468 10.380 C 20.876 7.391,19.104 4.964,16.480 3.550 C 15.484 3.013,14.237 2.625,13.173 2.522 C 12.619 2.469,11.364 2.446,10.960 2.483 M12.445 6.344 C 12.502 6.373,12.630 6.486,12.729 6.596 C 12.899 6.785,12.909 6.810,12.934 7.099 C 12.948 7.266,12.971 8.343,12.986 9.491 L 13.012 11.580 14.307 12.892 C 16.260 14.873,16.396 15.044,16.342 15.452 C 16.269 16.003,15.905 16.357,15.409 16.359 C 15.124 16.360,14.986 16.295,14.637 15.995 C 13.943 15.398,11.383 12.791,11.145 12.438 C 11.052 12.300,11.052 12.295,11.025 10.520 C 10.998 8.709,11.040 7.115,11.122 6.825 C 11.175 6.640,11.472 6.337,11.653 6.283 C 11.813 6.236,12.307 6.274,12.445 6.344 " fill="#373B4D" stroke="none" fill-rule="evenodd"></path></svg>