<svg width="24" height="24" viewBox="0 0 24 24" fill="none" xmlns="http://www.w3.org/2000/svg"><path d="M9.996 1.299 C 9.183 1.432,8.366 1.837,7.608 2.483 C 6.503 3.425,5.901 4.992,6.036 6.572 C 6.096 7.270,6.101 7.229,5.950 7.261 C 5.661 7.323,5.043 7.538,4.780 7.669 C 3.460 8.329,2.643 9.488,2.439 10.992 C 2.315 11.901,2.655 13.089,3.273 13.905 C 3.825 14.635,4.421 15.050,5.470 15.435 L 5.920 15.600 8.360 15.600 L 10.800 15.600 10.800 17.145 L 10.800 18.690 10.176 18.082 C 9.080 17.016,8.880 16.880,8.405 16.880 C 8.041 16.880,7.750 17.011,7.504 17.284 C 7.310 17.500,7.240 17.694,7.240 18.016 C 7.240 18.295,7.314 18.480,7.531 18.740 C 8.121 19.448,10.826 22.123,11.347 22.514 C 11.828 22.874,12.143 22.881,12.620 22.540 C 13.299 22.056,16.291 19.042,16.645 18.485 C 16.802 18.239,16.822 18.037,16.724 17.720 C 16.613 17.365,16.452 17.159,16.165 17.006 C 15.959 16.896,15.889 16.880,15.623 16.880 C 15.441 16.880,15.259 16.904,15.172 16.941 C 14.958 17.030,14.574 17.355,13.848 18.060 L 13.200 18.689 13.200 17.151 L 13.200 15.613 15.030 15.587 C 16.037 15.573,16.973 15.543,17.111 15.520 C 17.705 15.421,18.717 14.991,19.262 14.606 C 20.285 13.884,21.034 12.807,21.422 11.500 C 21.515 11.187,21.532 11.046,21.550 10.419 C 21.574 9.557,21.531 9.183,21.343 8.620 C 20.819 7.055,19.702 5.866,18.119 5.190 C 17.932 5.110,17.636 5.017,17.460 4.983 C 17.107 4.915,16.224 4.840,15.777 4.840 L 15.489 4.840 15.398 4.610 C 14.764 3.014,13.737 1.980,12.282 1.473 C 11.794 1.302,10.553 1.208,9.996 1.299 M12.480 8.563 C 12.683 8.655,12.937 8.883,13.027 9.055 C 13.109 9.211,13.149 10.279,13.185 13.230 L 13.213 15.600 12.000 15.600 L 10.788 15.600 10.817 13.090 C 10.853 9.993,10.883 9.227,10.974 9.052 C 11.067 8.873,11.310 8.643,11.500 8.555 C 11.729 8.450,12.238 8.454,12.480 8.563 " fill="#373B4D" stroke="none" fill-rule="evenodd"></path></svg>