<svg width="24" height="24" viewBox="0 0 24 24" fill="none" xmlns="http://www.w3.org/2000/svg"><path d="M9.964 1.324 C 9.448 1.403,8.831 1.667,8.220 2.071 C 7.123 2.797,6.504 3.657,6.170 4.920 C 6.081 5.260,6.068 5.401,6.050 6.263 L 6.030 7.227 5.685 7.338 C 3.961 7.897,2.904 8.992,2.517 10.625 C 2.427 11.002,2.410 11.653,2.479 12.037 C 2.677 13.127,3.391 14.243,4.262 14.822 C 4.616 15.058,5.164 15.327,5.632 15.495 L 5.925 15.600 8.362 15.600 L 10.800 15.600 10.800 18.793 L 10.800 21.986 11.096 22.274 C 11.539 22.703,11.913 22.835,12.312 22.703 C 12.551 22.623,13.018 22.216,13.116 22.001 C 13.173 21.876,13.181 21.504,13.192 18.736 L 13.203 15.613 14.952 15.586 C 15.913 15.571,16.824 15.540,16.976 15.518 C 17.514 15.441,18.355 15.127,18.962 14.776 C 19.519 14.455,20.239 13.745,20.661 13.100 C 21.304 12.117,21.588 11.133,21.548 10.020 C 21.511 8.982,21.252 8.183,20.671 7.311 C 19.931 6.202,18.667 5.290,17.520 5.037 C 17.333 4.996,16.811 4.932,16.360 4.896 C 15.905 4.859,15.520 4.809,15.494 4.785 C 15.469 4.760,15.390 4.605,15.319 4.440 C 15.141 4.025,14.813 3.477,14.531 3.120 C 13.911 2.338,12.973 1.683,12.184 1.481 C 11.639 1.342,10.418 1.255,9.964 1.324 M12.545 7.446 C 12.930 7.702,15.191 9.900,16.052 10.856 C 16.565 11.425,16.679 11.623,16.680 11.945 C 16.681 12.696,16.072 13.267,15.417 13.130 C 15.110 13.065,14.845 12.865,13.950 12.023 L 13.200 11.317 13.200 13.458 L 13.200 15.600 12.000 15.600 L 10.800 15.600 10.800 13.457 L 10.800 11.315 10.090 11.988 C 8.864 13.151,8.874 13.144,8.264 13.112 C 7.885 13.092,7.769 13.032,7.539 12.731 C 7.356 12.491,7.306 12.291,7.332 11.905 C 7.351 11.626,7.369 11.567,7.500 11.378 C 7.803 10.938,10.196 8.517,11.164 7.671 C 11.553 7.331,11.599 7.313,12.025 7.329 C 12.337 7.341,12.413 7.358,12.545 7.446 " fill="#373B4D" stroke="none" fill-rule="evenodd"></path></svg>