<svg width="24" height="24" viewBox="0 0 24 24" fill="none" xmlns="http://www.w3.org/2000/svg"><path d="M10.140 4.881 C 9.344 4.967,8.422 5.381,7.702 5.977 C 7.404 6.223,6.920 6.798,6.703 7.163 C 6.342 7.770,6.119 8.432,6.035 9.152 C 5.994 9.497,6.004 9.768,6.093 10.739 C 6.099 10.805,6.038 10.833,5.691 10.927 C 4.027 11.379,2.932 12.471,2.523 14.087 C 2.409 14.540,2.406 15.436,2.518 15.904 C 2.715 16.724,3.069 17.358,3.656 17.940 C 4.135 18.415,4.524 18.659,5.296 18.969 L 5.820 19.180 7.960 19.191 C 9.137 19.197,11.684 19.185,13.620 19.164 L 17.140 19.126 17.519 19.021 C 18.214 18.829,18.905 18.494,19.380 18.117 C 19.686 17.874,20.459 17.083,20.653 16.813 C 21.002 16.328,21.415 15.308,21.517 14.679 C 21.571 14.346,21.572 13.562,21.518 13.038 C 21.446 12.340,21.131 11.503,20.697 10.857 C 20.197 10.114,19.376 9.398,18.543 8.982 C 17.755 8.588,17.367 8.501,16.175 8.455 L 15.486 8.428 15.321 8.024 C 14.903 7.004,14.262 6.180,13.481 5.660 C 13.099 5.406,12.430 5.095,12.071 5.003 C 11.783 4.929,10.867 4.834,10.562 4.845 C 10.484 4.848,10.294 4.864,10.140 4.881 " fill="#373B4D" stroke="none" fill-rule="evenodd"></path></svg>