<svg width="24" height="24" viewBox="0 0 24 24" fill="none" xmlns="http://www.w3.org/2000/svg"><path d="M10.300 1.226 C 9.237 1.396,8.536 1.694,7.777 2.296 C 6.523 3.294,5.824 5.017,6.040 6.580 C 6.067 6.778,6.098 7.005,6.109 7.085 L 6.127 7.230 5.865 7.276 C 5.277 7.379,4.828 7.565,4.255 7.944 C 3.018 8.761,2.316 10.199,2.420 11.698 C 2.510 12.992,3.223 14.201,4.314 14.913 C 4.695 15.161,5.015 15.305,5.540 15.464 L 5.900 15.572 8.350 15.590 L 10.800 15.608 10.800 17.150 L 10.800 18.692 9.984 17.889 C 9.002 16.922,8.880 16.841,8.416 16.840 C 8.134 16.840,8.061 16.856,7.845 16.964 C 7.304 17.234,7.061 17.894,7.296 18.456 C 7.325 18.527,7.557 18.809,7.810 19.083 C 8.492 19.820,11.066 22.360,11.320 22.547 C 11.676 22.809,11.945 22.860,12.349 22.740 C 12.614 22.661,13.114 22.201,14.983 20.315 C 16.414 18.871,16.672 18.579,16.760 18.304 C 16.870 17.962,16.738 17.469,16.463 17.189 C 16.212 16.934,15.976 16.840,15.591 16.840 C 15.119 16.841,15.002 16.919,14.016 17.889 L 13.200 18.692 13.200 17.151 L 13.200 15.611 15.110 15.589 C 17.016 15.568,17.021 15.567,17.420 15.462 C 18.655 15.134,19.584 14.551,20.357 13.616 C 21.049 12.779,21.467 11.793,21.564 10.766 C 21.687 9.460,21.398 8.285,20.691 7.224 C 20.082 6.309,19.098 5.529,18.054 5.136 C 17.463 4.914,17.185 4.867,16.300 4.843 L 15.460 4.820 15.373 4.550 C 15.082 3.642,14.404 2.698,13.644 2.144 C 13.090 1.740,12.376 1.427,11.731 1.304 C 11.402 1.242,10.506 1.193,10.300 1.226 M12.500 8.538 C 12.734 8.644,12.867 8.761,13.025 9.001 L 13.140 9.174 13.166 10.217 C 13.181 10.791,13.194 12.237,13.196 13.430 L 13.200 15.600 12.000 15.600 L 10.800 15.600 10.802 12.790 C 10.804 9.854,10.825 9.262,10.937 9.045 C 11.220 8.498,11.913 8.273,12.500 8.538 " fill="#373B4D" stroke="none" fill-rule="evenodd"></path></svg>