<svg width="24" height="24" viewBox="0 0 24 24" fill="none" xmlns="http://www.w3.org/2000/svg"><path d="M9.964 1.324 C 9.448 1.403,8.831 1.667,8.220 2.071 C 7.123 2.797,6.504 3.657,6.170 4.920 C 6.081 5.260,6.068 5.401,6.050 6.263 L 6.030 7.227 5.685 7.338 C 3.961 7.897,2.904 8.992,2.517 10.625 C 2.427 11.002,2.410 11.653,2.479 12.037 C 2.677 13.127,3.391 14.243,4.262 14.822 C 4.616 15.058,5.164 15.327,5.632 15.495 L 5.925 15.600 8.362 15.600 L 10.800 15.600 10.800 17.149 L 10.800 18.698 10.450 18.357 C 9.511 17.440,9.009 17.027,8.744 16.955 C 8.521 16.895,8.038 16.939,7.844 17.038 C 7.612 17.156,7.369 17.455,7.294 17.715 C 7.214 17.989,7.262 18.319,7.414 18.542 C 7.690 18.949,9.923 21.227,10.907 22.108 C 11.814 22.918,12.068 22.947,12.846 22.328 C 13.513 21.798,15.815 19.492,16.383 18.783 C 16.725 18.358,16.775 18.244,16.749 17.956 C 16.723 17.667,16.563 17.365,16.326 17.156 C 16.111 16.967,15.956 16.921,15.538 16.920 C 15.252 16.920,15.196 16.933,15.038 17.034 C 14.812 17.178,14.305 17.624,13.685 18.222 L 13.200 18.689 13.200 17.151 L 13.200 15.613 14.950 15.586 C 15.912 15.571,16.824 15.540,16.976 15.518 C 17.514 15.441,18.355 15.127,18.962 14.776 C 19.519 14.455,20.239 13.745,20.661 13.100 C 21.304 12.117,21.588 11.133,21.548 10.020 C 21.511 8.982,21.252 8.183,20.671 7.311 C 19.931 6.202,18.667 5.290,17.520 5.037 C 17.333 4.996,16.811 4.932,16.360 4.896 C 15.905 4.859,15.520 4.809,15.494 4.785 C 15.469 4.760,15.390 4.605,15.319 4.440 C 15.141 4.025,14.813 3.477,14.531 3.120 C 13.911 2.338,12.973 1.683,12.184 1.481 C 11.639 1.342,10.418 1.255,9.964 1.324 M12.581 8.661 C 12.903 8.861,12.996 9.012,13.039 9.403 C 13.081 9.780,13.144 11.805,13.185 14.090 L 13.212 15.600 12.006 15.600 L 10.800 15.600 10.800 14.960 C 10.800 13.953,10.877 10.774,10.921 9.979 C 10.942 9.583,10.978 9.197,10.999 9.122 C 11.046 8.958,11.197 8.790,11.440 8.632 C 11.613 8.518,11.635 8.514,12.005 8.528 C 12.349 8.541,12.411 8.555,12.581 8.661 " fill="#373B4D" stroke="none" fill-rule="evenodd"></path></svg>