<svg width="24" height="24" viewBox="0 0 24 24" fill="none" xmlns="http://www.w3.org/2000/svg"><path d="M9.560 5.040 C 8.463 5.335,7.292 6.270,6.629 7.382 C 6.200 8.099,6.002 9.042,6.000 10.365 L 6.000 10.830 5.750 10.921 C 5.334 11.072,4.479 11.498,4.155 11.715 C 3.045 12.458,2.303 14.093,2.480 15.405 C 2.621 16.451,2.980 17.193,3.677 17.880 C 4.106 18.302,4.544 18.598,5.241 18.937 L 5.780 19.200 8.340 19.200 C 11.336 19.200,15.605 19.137,16.588 19.079 C 17.349 19.034,17.703 18.960,18.198 18.745 C 19.079 18.364,20.021 17.606,20.570 16.836 C 20.946 16.310,21.405 15.247,21.479 14.732 C 21.539 14.315,21.529 13.300,21.460 12.905 C 21.266 11.795,20.716 10.770,19.910 10.019 C 19.536 9.671,18.857 9.203,18.373 8.962 C 17.925 8.738,17.576 8.656,16.462 8.517 C 15.935 8.451,15.501 8.393,15.498 8.388 C 15.495 8.384,15.383 8.168,15.247 7.908 C 15.112 7.649,14.923 7.315,14.827 7.166 C 14.307 6.363,13.382 5.580,12.533 5.225 C 12.131 5.057,11.670 4.993,10.720 4.975 C 9.951 4.961,9.828 4.968,9.560 5.040 " fill="#373B4D" stroke="none" fill-rule="evenodd"></path></svg>