<svg width="24" height="24" viewBox="0 0 24 24" fill="none" xmlns="http://www.w3.org/2000/svg"><path d="M9.740 4.976 C 8.969 5.155,8.172 5.599,7.544 6.199 C 7.089 6.635,6.765 7.070,6.519 7.577 C 6.136 8.368,6.045 8.802,6.013 9.965 L 5.989 10.830 5.585 10.979 C 5.054 11.174,4.358 11.521,4.082 11.730 C 2.773 12.718,2.174 14.422,2.576 16.009 C 2.923 17.376,3.854 18.364,5.420 19.027 L 5.860 19.213 9.800 19.184 C 15.067 19.147,17.010 19.105,17.404 19.023 C 17.884 18.922,18.681 18.565,19.177 18.228 C 19.485 18.019,20.312 17.216,20.563 16.881 C 20.812 16.550,21.150 15.864,21.338 15.313 C 21.461 14.949,21.489 14.800,21.523 14.317 C 21.690 11.958,20.624 10.094,18.484 9.004 C 17.804 8.658,17.598 8.609,16.270 8.483 C 15.857 8.444,15.513 8.405,15.505 8.396 C 15.497 8.387,15.353 8.110,15.186 7.780 C 14.831 7.081,14.599 6.756,14.101 6.260 C 13.469 5.631,12.703 5.187,11.988 5.034 C 11.497 4.929,10.100 4.893,9.740 4.976 " fill="#373B4D" stroke="none" fill-rule="evenodd"></path></svg>