<svg width="24" height="24" viewBox="0 0 24 24" fill="none" xmlns="http://www.w3.org/2000/svg"><path d="M10.300 1.226 C 9.237 1.396,8.536 1.694,7.777 2.296 C 6.523 3.294,5.824 5.017,6.040 6.580 C 6.067 6.778,6.098 7.005,6.109 7.085 L 6.127 7.230 5.865 7.276 C 5.277 7.379,4.828 7.565,4.255 7.944 C 3.018 8.761,2.316 10.199,2.420 11.698 C 2.510 12.992,3.223 14.201,4.314 14.913 C 4.695 15.161,5.015 15.305,5.540 15.464 L 5.900 15.572 8.350 15.590 L 10.800 15.608 10.800 18.736 L 10.800 21.864 10.903 22.071 C 11.041 22.347,11.378 22.652,11.626 22.724 C 11.871 22.795,12.259 22.787,12.451 22.706 C 12.658 22.620,12.980 22.307,13.088 22.086 L 13.180 21.900 13.193 18.756 L 13.207 15.611 15.113 15.589 C 17.016 15.568,17.021 15.567,17.420 15.462 C 18.655 15.134,19.584 14.551,20.357 13.616 C 21.049 12.779,21.467 11.793,21.564 10.766 C 21.687 9.460,21.398 8.285,20.691 7.224 C 20.082 6.309,19.098 5.529,18.054 5.136 C 17.463 4.914,17.185 4.867,16.300 4.843 L 15.460 4.820 15.373 4.550 C 15.082 3.642,14.404 2.698,13.644 2.144 C 13.090 1.740,12.376 1.427,11.731 1.304 C 11.402 1.242,10.506 1.193,10.300 1.226 M12.518 7.350 C 12.695 7.434,13.020 7.735,14.234 8.937 C 15.845 10.532,16.564 11.293,16.684 11.528 C 16.740 11.637,16.760 11.762,16.760 11.995 C 16.760 12.276,16.745 12.342,16.630 12.565 C 16.337 13.131,15.664 13.353,15.088 13.074 C 14.961 13.013,14.627 12.714,14.050 12.146 L 13.200 11.308 13.200 13.454 L 13.200 15.600 12.000 15.600 L 10.800 15.600 10.800 13.455 L 10.800 11.309 9.947 12.148 C 8.961 13.117,8.865 13.180,8.400 13.179 C 7.912 13.178,7.563 12.961,7.340 12.520 C 7.258 12.358,7.240 12.265,7.240 12.000 C 7.240 11.574,7.290 11.482,7.854 10.872 C 8.678 9.980,11.290 7.423,11.460 7.341 C 11.799 7.179,12.163 7.182,12.518 7.350 " fill="#373B4D" stroke="none" fill-rule="evenodd"></path></svg>