<svg width="24" height="24" viewBox="0 0 24 24" fill="none" xmlns="http://www.w3.org/2000/svg"><path d="M9.952 1.325 C 9.213 1.420,8.112 2.017,7.418 2.700 C 6.884 3.225,6.563 3.728,6.324 4.412 C 6.096 5.063,6.040 5.456,6.040 6.388 L 6.040 7.223 5.630 7.356 C 3.950 7.903,2.930 8.956,2.529 10.560 C 2.327 11.368,2.413 12.178,2.794 13.041 C 3.102 13.739,3.649 14.415,4.221 14.805 C 4.539 15.022,5.053 15.277,5.528 15.455 L 5.917 15.600 8.358 15.600 L 10.800 15.600 10.800 17.143 L 10.800 18.686 10.170 18.084 C 9.493 17.438,9.066 17.080,8.846 16.976 C 8.667 16.891,8.086 16.913,7.878 17.013 C 7.689 17.104,7.454 17.337,7.349 17.537 C 7.226 17.770,7.227 18.194,7.350 18.444 C 7.474 18.694,8.213 19.488,9.544 20.800 C 11.233 22.466,11.613 22.773,11.985 22.773 C 12.405 22.773,12.930 22.352,14.621 20.661 C 15.646 19.636,16.380 18.838,16.603 18.505 C 16.736 18.307,16.760 18.239,16.760 18.063 C 16.760 17.757,16.659 17.507,16.436 17.263 C 16.163 16.965,16.050 16.920,15.570 16.920 C 15.173 16.920,15.171 16.921,14.976 17.067 C 14.696 17.277,14.258 17.668,13.692 18.215 L 13.200 18.690 13.200 17.151 L 13.200 15.613 14.970 15.586 C 15.944 15.571,16.865 15.541,17.018 15.519 C 17.597 15.434,18.593 15.031,19.200 14.635 C 19.573 14.392,20.302 13.649,20.589 13.218 C 21.419 11.976,21.705 10.767,21.498 9.375 C 21.256 7.745,20.116 6.220,18.527 5.398 C 18.109 5.182,17.750 5.064,17.260 4.982 C 16.936 4.928,15.934 4.841,15.616 4.840 C 15.501 4.840,15.484 4.821,15.379 4.570 C 14.877 3.366,14.108 2.457,13.088 1.861 C 12.484 1.508,12.031 1.385,11.098 1.322 C 10.423 1.276,10.328 1.276,9.952 1.325 M12.404 8.562 C 12.573 8.606,12.896 8.877,12.984 9.047 C 13.026 9.129,13.056 9.378,13.081 9.872 C 13.119 10.598,13.200 14.121,13.200 15.070 L 13.200 15.600 12.000 15.600 L 10.800 15.600 10.800 14.950 C 10.800 13.817,10.879 10.404,10.920 9.766 C 10.947 9.348,10.981 9.108,11.026 9.013 C 11.096 8.865,11.420 8.600,11.620 8.526 C 11.748 8.479,12.163 8.498,12.404 8.562 " fill="#373B4D" stroke="none" fill-rule="evenodd"></path></svg>