<svg width="24" height="24" viewBox="0 0 24 24" fill="none" xmlns="http://www.w3.org/2000/svg"><path d="M9.569 1.422 C 8.877 1.627,8.051 2.122,7.457 2.690 C 7.031 3.096,6.745 3.491,6.500 4.011 C 6.145 4.765,6.043 5.326,6.041 6.540 L 6.040 7.221 5.630 7.359 C 4.042 7.895,3.014 8.914,2.581 10.380 C 2.452 10.815,2.402 11.589,2.475 12.010 C 2.661 13.079,3.409 14.256,4.257 14.817 C 4.594 15.040,5.175 15.329,5.579 15.475 L 5.924 15.600 8.362 15.600 L 10.800 15.600 10.800 18.795 L 10.800 21.990 11.080 22.255 C 11.451 22.604,11.706 22.736,12.020 22.738 C 12.297 22.740,12.493 22.644,12.828 22.343 C 13.205 22.004,13.177 22.285,13.193 18.736 L 13.208 15.613 14.894 15.587 C 15.821 15.573,16.733 15.542,16.920 15.519 C 17.568 15.438,18.747 14.961,19.280 14.563 C 19.819 14.161,20.477 13.422,20.832 12.819 C 21.893 11.022,21.766 8.746,20.513 7.086 C 20.066 6.494,19.375 5.891,18.728 5.527 C 18.100 5.175,17.682 5.043,16.940 4.961 C 16.720 4.937,16.309 4.892,16.026 4.861 C 15.743 4.830,15.506 4.799,15.500 4.792 C 15.494 4.786,15.381 4.563,15.249 4.299 C 14.774 3.348,14.248 2.698,13.527 2.166 C 12.671 1.535,11.881 1.317,10.472 1.322 C 9.986 1.324,9.850 1.339,9.569 1.422 M12.441 7.393 C 12.767 7.517,15.847 10.538,16.401 11.277 C 16.632 11.585,16.700 11.800,16.665 12.104 C 16.619 12.491,16.394 12.845,16.088 13.012 C 15.822 13.156,15.617 13.182,15.355 13.105 C 15.069 13.020,14.766 12.785,13.910 11.983 L 13.200 11.317 13.200 13.459 L 13.200 15.600 12.000 15.600 L 10.800 15.600 10.800 13.458 L 10.800 11.315 10.018 12.054 C 9.588 12.460,9.136 12.862,9.014 12.946 C 8.810 13.086,8.763 13.101,8.484 13.114 C 7.943 13.138,7.688 13.009,7.458 12.593 C 7.352 12.401,7.340 12.345,7.341 12.018 C 7.343 11.564,7.397 11.463,7.982 10.822 C 8.549 10.201,10.260 8.494,10.875 7.935 C 11.515 7.353,11.601 7.308,12.021 7.335 C 12.197 7.346,12.386 7.372,12.441 7.393 " fill="#373B4D" stroke="none" fill-rule="evenodd"></path></svg>