<svg width="24" height="24" viewBox="0 0 24 24" fill="none" xmlns="http://www.w3.org/2000/svg"><path d="M9.910 1.321 C 9.164 1.447,8.107 2.023,7.433 2.671 C 6.738 3.340,6.341 4.092,6.117 5.160 C 6.042 5.519,6.030 5.699,6.034 6.402 L 6.038 7.225 5.609 7.359 C 3.803 7.926,2.693 9.210,2.437 11.028 C 2.290 12.073,2.808 13.479,3.657 14.338 C 4.117 14.803,4.682 15.141,5.528 15.456 L 5.917 15.600 8.358 15.600 L 10.800 15.600 10.800 17.144 L 10.800 18.689 10.250 18.158 C 9.603 17.532,9.213 17.192,8.964 17.034 C 8.800 16.930,8.753 16.920,8.422 16.921 C 7.988 16.922,7.808 16.990,7.544 17.254 C 7.235 17.563,7.155 18.078,7.355 18.470 C 7.480 18.715,8.060 19.333,9.544 20.801 C 11.172 22.411,11.492 22.679,11.894 22.776 C 12.073 22.819,12.395 22.700,12.680 22.485 C 13.079 22.184,14.452 20.866,15.359 19.915 C 16.582 18.632,16.771 18.384,16.773 18.060 C 16.776 17.684,16.555 17.277,16.226 17.053 C 16.035 16.923,16.023 16.920,15.599 16.920 L 15.166 16.920 14.973 17.066 C 14.663 17.300,14.299 17.625,13.731 18.175 L 13.200 18.690 13.200 17.151 L 13.200 15.612 14.950 15.588 C 15.912 15.575,16.849 15.545,17.031 15.521 C 17.620 15.443,18.577 15.049,19.233 14.613 C 20.322 13.888,21.268 12.417,21.501 11.085 C 21.628 10.363,21.557 9.301,21.340 8.651 C 20.893 7.315,19.985 6.216,18.740 5.506 C 18.002 5.085,17.459 4.946,16.273 4.874 L 15.486 4.826 15.343 4.481 C 15.050 3.776,14.648 3.170,14.120 2.641 C 13.548 2.069,12.784 1.614,12.100 1.439 C 11.623 1.316,10.346 1.248,9.910 1.321 M12.522 8.601 C 12.753 8.719,12.989 8.970,13.036 9.148 C 13.088 9.341,13.149 11.230,13.184 13.690 L 13.212 15.600 12.006 15.600 L 10.800 15.600 10.800 14.930 C 10.801 13.641,10.882 9.976,10.919 9.551 C 10.940 9.313,10.984 9.069,11.019 9.001 C 11.096 8.854,11.448 8.568,11.594 8.536 C 11.652 8.523,11.718 8.506,11.740 8.497 C 11.845 8.455,12.374 8.525,12.522 8.601 " fill="#373B4D" stroke="none" fill-rule="evenodd"></path></svg>