<svg width="24" height="24" viewBox="0 0 24 24" fill="none" xmlns="http://www.w3.org/2000/svg"><path d="M9.933 4.961 C 8.877 5.093,7.549 5.986,6.847 7.036 C 6.244 7.938,6.052 8.624,6.012 10.025 L 5.988 10.831 5.644 10.961 C 5.170 11.140,4.389 11.534,4.100 11.740 C 2.993 12.529,2.318 14.066,2.481 15.431 C 2.601 16.434,2.993 17.237,3.689 17.905 C 4.185 18.381,4.725 18.722,5.575 19.097 L 5.810 19.200 8.087 19.200 C 10.960 19.200,15.718 19.133,16.652 19.079 C 17.428 19.034,17.704 18.971,18.297 18.700 C 19.176 18.300,19.985 17.638,20.583 16.830 C 20.816 16.516,21.167 15.793,21.346 15.260 C 21.491 14.828,21.494 14.806,21.512 14.072 C 21.526 13.486,21.515 13.235,21.461 12.914 C 21.194 11.319,20.300 10.074,18.780 9.179 C 18.025 8.735,17.767 8.662,16.382 8.502 C 15.901 8.446,15.504 8.396,15.500 8.390 C 15.496 8.385,15.373 8.148,15.226 7.864 C 14.868 7.173,14.654 6.861,14.247 6.434 C 13.660 5.816,12.915 5.323,12.274 5.126 C 11.810 4.985,10.492 4.892,9.933 4.961 " fill="#373B4D" stroke="none" fill-rule="evenodd"></path></svg>