<svg width="24" height="24" viewBox="0 0 24 24" fill="none" xmlns="http://www.w3.org/2000/svg"><path d="M10.080 1.284 C 8.911 1.417,7.504 2.318,6.820 3.372 C 6.175 4.368,5.916 5.492,6.049 6.724 L 6.103 7.228 5.746 7.315 C 3.905 7.764,2.661 9.152,2.435 11.009 C 2.319 11.956,2.679 13.171,3.310 13.964 C 3.873 14.672,4.480 15.085,5.487 15.444 L 5.924 15.600 8.362 15.600 L 10.800 15.600 10.800 17.145 L 10.800 18.690 10.162 18.068 C 9.056 16.990,8.870 16.862,8.416 16.863 C 8.177 16.863,8.090 16.884,7.867 16.993 C 7.441 17.203,7.227 17.553,7.227 18.040 C 7.227 18.331,7.307 18.489,7.671 18.911 C 8.052 19.353,10.403 21.701,10.960 22.194 C 11.476 22.652,11.651 22.759,11.937 22.788 C 12.240 22.819,12.475 22.698,12.981 22.249 C 13.969 21.372,16.177 19.128,16.545 18.629 C 16.781 18.308,16.827 18.144,16.762 17.850 C 16.663 17.406,16.473 17.141,16.134 16.975 C 15.954 16.887,15.854 16.866,15.606 16.864 C 15.129 16.860,14.959 16.975,13.838 18.068 L 13.200 18.690 13.200 17.150 L 13.200 15.611 15.030 15.589 C 16.112 15.576,16.966 15.548,17.120 15.521 C 17.751 15.411,18.696 15.008,19.261 14.609 C 20.383 13.816,21.224 12.532,21.497 11.192 C 21.581 10.780,21.583 9.573,21.499 9.180 C 21.228 7.901,20.498 6.745,19.467 5.966 C 18.804 5.464,18.075 5.101,17.479 4.977 C 17.174 4.913,16.285 4.840,15.816 4.840 L 15.491 4.840 15.323 4.430 C 14.903 3.403,14.264 2.581,13.481 2.060 C 13.110 1.814,12.446 1.502,12.080 1.403 C 11.828 1.334,10.686 1.225,10.440 1.245 C 10.407 1.248,10.245 1.266,10.080 1.284 M12.510 8.567 C 12.759 8.685,13.026 8.961,13.079 9.155 C 13.129 9.341,13.197 12.276,13.199 14.290 L 13.200 15.600 12.000 15.600 L 10.800 15.600 10.801 14.310 C 10.802 13.601,10.819 12.168,10.839 11.126 C 10.875 9.314,10.880 9.225,10.962 9.056 C 11.044 8.886,11.271 8.668,11.480 8.558 C 11.734 8.424,12.216 8.428,12.510 8.567 " fill="#373B4D" stroke="none" fill-rule="evenodd"></path></svg>