<svg width="24" height="24" viewBox="0 0 24 24" fill="none" xmlns="http://www.w3.org/2000/svg"><path d="M9.996 1.299 C 9.183 1.432,8.366 1.837,7.608 2.483 C 6.503 3.425,5.901 4.992,6.036 6.572 C 6.096 7.270,6.101 7.229,5.950 7.261 C 5.661 7.323,5.043 7.538,4.780 7.669 C 3.460 8.329,2.643 9.488,2.439 10.992 C 2.315 11.901,2.655 13.089,3.273 13.905 C 3.825 14.635,4.421 15.050,5.470 15.435 L 5.920 15.600 8.360 15.600 L 10.800 15.600 10.800 18.776 L 10.800 21.953 10.953 22.146 C 11.137 22.379,11.355 22.574,11.530 22.665 C 11.694 22.750,12.131 22.782,12.341 22.725 C 12.534 22.673,12.901 22.358,13.076 22.094 L 13.200 21.906 13.200 18.760 L 13.200 15.613 15.030 15.587 C 16.037 15.573,16.973 15.543,17.111 15.520 C 17.705 15.421,18.717 14.991,19.262 14.606 C 20.285 13.884,21.034 12.807,21.422 11.500 C 21.515 11.187,21.532 11.046,21.550 10.419 C 21.574 9.557,21.531 9.183,21.343 8.620 C 20.819 7.055,19.702 5.866,18.119 5.190 C 17.932 5.110,17.636 5.017,17.460 4.983 C 17.107 4.915,16.224 4.840,15.777 4.840 L 15.489 4.840 15.398 4.610 C 14.764 3.014,13.737 1.980,12.282 1.473 C 11.794 1.302,10.553 1.208,9.996 1.299 M12.628 7.461 C 12.882 7.633,15.599 10.303,16.159 10.930 C 16.618 11.444,16.739 11.664,16.736 11.981 C 16.733 12.411,16.472 12.843,16.090 13.050 C 15.822 13.196,15.618 13.223,15.355 13.145 C 15.061 13.058,14.782 12.837,13.930 12.017 L 13.200 11.314 13.200 13.457 L 13.200 15.600 12.000 15.600 L 10.800 15.600 10.800 13.455 L 10.800 11.311 10.204 11.890 C 9.543 12.532,9.016 13.006,8.873 13.086 C 8.814 13.120,8.644 13.138,8.400 13.137 C 7.971 13.135,7.852 13.092,7.607 12.847 C 7.422 12.662,7.328 12.469,7.275 12.166 C 7.194 11.709,7.323 11.484,8.220 10.514 C 8.986 9.685,11.106 7.645,11.420 7.433 L 11.660 7.272 12.028 7.288 C 12.378 7.303,12.406 7.311,12.628 7.461 " fill="#373B4D" stroke="none" fill-rule="evenodd"></path></svg>