<svg width="24" height="24" viewBox="0 0 24 24" fill="none" xmlns="http://www.w3.org/2000/svg"><path d="M9.476 1.453 C 9.091 1.592,8.405 1.960,8.031 2.228 C 7.123 2.878,6.455 3.827,6.196 4.836 C 6.106 5.186,6.040 5.974,6.040 6.700 L 6.040 7.220 5.670 7.351 C 5.239 7.503,4.641 7.795,4.300 8.021 C 3.987 8.228,3.519 8.673,3.271 9.000 C 3.000 9.355,2.702 9.981,2.573 10.461 C 2.480 10.809,2.467 10.937,2.466 11.460 C 2.466 11.997,2.477 12.097,2.574 12.412 C 2.797 13.145,3.217 13.847,3.747 14.370 C 4.135 14.754,4.360 14.907,4.976 15.204 C 5.863 15.633,5.584 15.600,8.366 15.600 L 10.800 15.600 10.800 17.144 L 10.800 18.688 10.250 18.170 C 9.148 17.134,8.888 16.960,8.437 16.960 C 8.290 16.960,8.073 16.991,7.955 17.029 C 7.397 17.209,7.115 17.892,7.379 18.424 C 7.517 18.699,8.172 19.405,9.645 20.862 C 11.223 22.424,11.554 22.695,11.958 22.749 C 12.331 22.799,12.874 22.369,14.542 20.702 C 16.360 18.884,16.743 18.417,16.737 18.021 C 16.734 17.766,16.614 17.497,16.400 17.265 C 16.183 17.030,15.963 16.947,15.546 16.943 C 15.266 16.940,15.197 16.954,15.060 17.039 C 14.852 17.168,14.433 17.531,13.750 18.172 L 13.200 18.689 13.200 17.145 L 13.200 15.600 14.190 15.598 C 15.890 15.596,16.878 15.541,17.326 15.423 C 17.953 15.259,18.695 14.937,19.195 14.611 C 19.514 14.403,20.253 13.644,20.560 13.209 C 21.225 12.266,21.528 11.310,21.528 10.160 C 21.528 8.707,21.019 7.534,19.924 6.468 C 19.416 5.973,19.047 5.706,18.465 5.413 C 17.905 5.132,17.629 5.063,16.461 4.916 C 15.933 4.850,15.499 4.792,15.496 4.788 C 15.493 4.783,15.390 4.581,15.266 4.337 C 14.918 3.653,14.589 3.188,14.121 2.716 C 13.469 2.059,12.872 1.698,12.100 1.495 C 11.733 1.399,11.620 1.389,10.720 1.373 C 9.765 1.357,9.733 1.359,9.476 1.453 M12.415 8.605 C 12.613 8.657,12.937 8.974,12.972 9.151 C 13.042 9.500,13.107 11.135,13.184 14.450 L 13.210 15.600 12.005 15.600 L 10.800 15.600 10.800 15.090 C 10.802 13.555,10.936 9.767,11.005 9.320 C 11.054 8.999,11.126 8.882,11.403 8.674 L 11.620 8.511 11.940 8.538 C 12.116 8.553,12.330 8.583,12.415 8.605 " fill="#373B4D" stroke="none" fill-rule="evenodd"></path></svg>