<svg width="24" height="24" viewBox="0 0 24 24" fill="none" xmlns="http://www.w3.org/2000/svg"><path d="M9.820 4.938 C 7.925 5.378,6.517 6.822,6.095 8.760 C 6.036 9.031,6.021 9.274,6.021 9.960 L 6.020 10.820 5.540 10.983 C 4.394 11.373,3.658 11.901,3.129 12.712 C 2.691 13.384,2.489 14.006,2.452 14.802 C 2.395 16.015,2.760 16.987,3.597 17.854 C 4.108 18.383,4.571 18.677,5.488 19.056 L 5.820 19.193 10.780 19.174 C 15.939 19.154,17.135 19.127,17.533 19.019 C 17.857 18.931,18.556 18.627,18.929 18.412 C 19.508 18.079,20.460 17.137,20.803 16.560 C 20.988 16.248,21.305 15.490,21.439 15.040 C 21.561 14.629,21.595 13.565,21.506 12.977 C 21.390 12.221,21.062 11.384,20.653 10.806 C 20.235 10.214,19.523 9.570,18.842 9.169 C 18.005 8.675,17.528 8.545,16.292 8.473 L 15.483 8.426 15.396 8.203 C 15.229 7.777,14.873 7.130,14.622 6.796 C 13.937 5.884,12.932 5.208,11.940 4.993 C 11.461 4.889,10.175 4.856,9.820 4.938 " fill="#373B4D" stroke="none" fill-rule="evenodd"></path></svg>