<svg width="24" height="24" viewBox="0 0 24 24" fill="none" xmlns="http://www.w3.org/2000/svg"><path d="M9.920 4.961 C 9.579 5.000,9.218 5.118,8.800 5.329 C 7.462 6.005,6.513 7.159,6.160 8.540 C 6.067 8.903,6.000 9.659,6.000 10.340 L 6.000 10.829 5.690 10.941 C 5.227 11.108,4.512 11.452,4.208 11.655 C 2.894 12.532,2.207 14.255,2.540 15.838 C 2.838 17.258,3.753 18.284,5.359 19.000 L 5.809 19.200 7.794 19.199 C 10.578 19.199,15.930 19.127,16.723 19.080 C 17.248 19.049,17.452 19.020,17.703 18.939 C 18.129 18.802,18.925 18.410,19.220 18.191 C 19.562 17.937,20.199 17.323,20.473 16.983 C 20.870 16.489,21.324 15.511,21.461 14.852 C 21.550 14.424,21.551 13.389,21.462 12.880 C 21.179 11.266,20.261 10.011,18.727 9.142 C 17.964 8.710,17.705 8.638,16.414 8.501 C 15.918 8.449,15.508 8.400,15.502 8.393 C 15.496 8.386,15.379 8.160,15.243 7.891 C 14.925 7.266,14.665 6.868,14.351 6.530 C 13.633 5.758,12.894 5.275,12.123 5.076 C 11.956 5.033,11.555 4.982,11.203 4.960 C 10.520 4.916,10.310 4.917,9.920 4.961 " fill="#373B4D" stroke="none" fill-rule="evenodd"></path></svg>