<svg width="24" height="24" viewBox="0 0 24 24" fill="none" xmlns="http://www.w3.org/2000/svg"><path d="M9.476 1.453 C 9.091 1.592,8.405 1.960,8.031 2.228 C 7.123 2.878,6.455 3.827,6.196 4.836 C 6.106 5.186,6.040 5.974,6.040 6.700 L 6.040 7.220 5.670 7.351 C 5.239 7.503,4.641 7.795,4.300 8.021 C 3.987 8.228,3.519 8.673,3.271 9.000 C 3.000 9.355,2.702 9.981,2.573 10.461 C 2.480 10.809,2.467 10.937,2.466 11.460 C 2.466 11.997,2.477 12.097,2.574 12.412 C 2.797 13.145,3.217 13.847,3.747 14.370 C 4.135 14.754,4.360 14.907,4.976 15.204 C 5.863 15.633,5.584 15.600,8.366 15.600 L 10.800 15.600 10.800 18.794 L 10.800 21.988 11.010 22.186 C 11.708 22.843,12.193 22.889,12.811 22.357 C 13.128 22.083,13.132 22.070,13.165 20.960 C 13.181 20.421,13.195 18.995,13.197 17.790 L 13.200 15.600 14.190 15.598 C 15.890 15.596,16.878 15.541,17.326 15.423 C 17.953 15.259,18.695 14.937,19.195 14.611 C 19.514 14.403,20.253 13.644,20.560 13.209 C 21.225 12.266,21.528 11.310,21.528 10.160 C 21.528 8.707,21.019 7.534,19.924 6.468 C 19.416 5.973,19.047 5.706,18.465 5.413 C 17.905 5.132,17.629 5.063,16.461 4.916 C 15.933 4.850,15.499 4.792,15.496 4.788 C 15.493 4.783,15.390 4.581,15.266 4.337 C 14.918 3.653,14.589 3.188,14.121 2.716 C 13.469 2.059,12.872 1.698,12.100 1.495 C 11.733 1.399,11.620 1.389,10.720 1.373 C 9.765 1.357,9.733 1.359,9.476 1.453 M12.462 7.423 C 12.670 7.522,13.368 8.172,14.705 9.510 C 16.072 10.878,16.390 11.231,16.547 11.550 C 16.794 12.056,16.581 12.706,16.073 12.997 C 15.499 13.324,15.182 13.169,13.830 11.904 L 13.200 11.315 13.200 13.457 L 13.200 15.600 12.000 15.600 L 10.800 15.600 10.800 13.458 L 10.800 11.316 10.090 11.982 C 9.014 12.993,8.827 13.121,8.431 13.119 C 7.981 13.117,7.809 13.033,7.532 12.676 L 7.363 12.460 7.362 12.078 C 7.359 11.453,7.397 11.403,9.319 9.477 C 10.773 8.021,11.284 7.547,11.531 7.426 C 11.708 7.338,12.280 7.337,12.462 7.423 " fill="#373B4D" stroke="none" fill-rule="evenodd"></path></svg>