<svg width="24" height="24" viewBox="0 0 24 24" fill="none" xmlns="http://www.w3.org/2000/svg"><path d="M9.640 1.379 C 8.907 1.574,7.990 2.107,7.404 2.678 C 6.416 3.643,5.916 5.091,6.039 6.632 C 6.063 6.930,6.068 7.188,6.051 7.205 C 6.033 7.223,5.866 7.281,5.679 7.336 C 4.862 7.573,4.271 7.902,3.716 8.430 C 2.997 9.115,2.585 9.947,2.435 11.025 C 2.325 11.811,2.607 12.893,3.129 13.685 C 3.692 14.538,4.343 15.020,5.528 15.457 L 5.917 15.600 8.358 15.600 L 10.800 15.600 10.800 18.776 L 10.800 21.953 10.978 22.172 C 11.323 22.594,11.629 22.761,12.056 22.759 C 12.168 22.759,12.332 22.725,12.420 22.685 C 12.637 22.585,12.924 22.323,13.075 22.087 L 13.200 21.893 13.200 18.746 L 13.200 15.600 14.290 15.598 C 14.889 15.597,15.785 15.581,16.280 15.562 C 17.136 15.529,17.200 15.521,17.579 15.399 C 18.961 14.954,19.900 14.275,20.621 13.198 C 21.096 12.490,21.451 11.606,21.526 10.947 C 21.590 10.386,21.549 9.369,21.447 8.980 C 21.020 7.364,19.904 6.035,18.358 5.304 C 17.720 5.002,17.233 4.907,16.033 4.853 L 15.484 4.828 15.396 4.604 C 14.853 3.221,13.869 2.150,12.661 1.627 C 12.109 1.388,11.712 1.317,10.800 1.296 C 10.062 1.280,9.999 1.284,9.640 1.379 M12.505 7.392 C 12.816 7.551,15.990 10.674,16.416 11.240 C 16.684 11.597,16.731 11.724,16.713 12.038 C 16.665 12.861,15.840 13.417,15.180 13.071 C 14.913 12.930,14.707 12.755,13.890 11.974 L 13.200 11.314 13.200 13.457 L 13.200 15.600 12.000 15.600 L 10.800 15.600 10.800 13.455 L 10.800 11.311 10.220 11.873 C 9.603 12.471,9.071 12.951,8.904 13.061 C 8.781 13.141,8.131 13.155,7.940 13.082 C 7.781 13.020,7.495 12.740,7.387 12.540 C 7.318 12.410,7.301 12.311,7.301 12.017 C 7.300 11.666,7.305 11.646,7.444 11.437 C 7.671 11.095,8.224 10.490,9.140 9.578 C 10.191 8.533,11.196 7.594,11.460 7.412 C 11.657 7.276,11.665 7.274,12.001 7.291 C 12.240 7.304,12.390 7.334,12.505 7.392 " fill="#373B4D" stroke="none" fill-rule="evenodd"></path></svg>