<svg width="24" height="24" viewBox="0 0 24 24" fill="none" xmlns="http://www.w3.org/2000/svg"><path d="M9.803 1.362 C 9.340 1.445,8.546 1.836,7.977 2.261 C 7.310 2.758,6.850 3.294,6.542 3.934 C 6.161 4.723,6.083 5.101,6.053 6.301 L 6.030 7.222 5.645 7.356 C 5.157 7.527,4.581 7.816,4.216 8.073 C 3.039 8.904,2.374 10.271,2.451 11.700 C 2.512 12.826,3.295 14.167,4.280 14.831 C 4.534 15.002,5.286 15.371,5.632 15.495 L 5.925 15.600 8.362 15.600 L 10.800 15.600 10.800 18.796 L 10.800 21.993 11.084 22.255 C 11.440 22.585,11.717 22.726,12.014 22.728 C 12.292 22.731,12.502 22.631,12.827 22.340 C 13.027 22.161,13.083 22.084,13.122 21.930 C 13.157 21.793,13.175 20.883,13.188 18.676 L 13.207 15.613 14.873 15.587 C 15.790 15.573,16.693 15.542,16.880 15.518 C 17.603 15.428,18.817 14.925,19.365 14.489 C 19.988 13.994,20.639 13.206,20.981 12.536 C 21.611 11.301,21.715 9.754,21.254 8.471 C 20.989 7.733,20.585 7.106,19.998 6.520 C 19.489 6.012,19.054 5.695,18.451 5.393 C 17.890 5.111,17.554 5.031,16.385 4.901 C 15.904 4.848,15.506 4.799,15.500 4.792 C 15.494 4.785,15.395 4.591,15.280 4.360 C 14.857 3.512,14.371 2.866,13.794 2.387 C 13.131 1.837,12.548 1.556,11.780 1.419 C 11.352 1.343,10.112 1.307,9.803 1.362 M12.460 7.411 C 12.676 7.520,13.350 8.148,14.682 9.479 C 15.487 10.283,16.239 11.066,16.353 11.220 C 16.599 11.551,16.700 11.843,16.662 12.114 C 16.597 12.570,16.263 12.985,15.865 13.100 C 15.364 13.246,15.090 13.086,13.847 11.922 L 13.200 11.315 13.200 13.458 L 13.200 15.600 12.000 15.600 L 10.800 15.600 10.800 13.458 L 10.800 11.315 10.170 11.908 C 8.911 13.093,8.830 13.145,8.295 13.111 C 7.904 13.086,7.740 12.994,7.530 12.684 L 7.360 12.433 7.360 12.046 C 7.361 11.692,7.370 11.643,7.479 11.454 C 7.649 11.157,8.249 10.517,9.725 9.060 C 11.048 7.752,11.365 7.473,11.630 7.376 C 11.795 7.316,12.316 7.337,12.460 7.411 " fill="#373B4D" stroke="none" fill-rule="evenodd"></path></svg>