<svg width="24" height="24" viewBox="0 0 24 24" fill="none" xmlns="http://www.w3.org/2000/svg"><path d="M9.660 1.396 C 9.030 1.572,8.051 2.156,7.499 2.686 C 6.808 3.349,6.359 4.113,6.185 4.920 C 6.095 5.336,6.040 5.997,6.040 6.661 L 6.040 7.221 5.711 7.338 C 5.287 7.489,4.669 7.792,4.306 8.026 C 3.693 8.422,3.077 9.168,2.785 9.867 C 2.540 10.453,2.480 10.761,2.480 11.435 C 2.480 12.190,2.537 12.443,2.860 13.105 C 3.206 13.817,3.788 14.509,4.334 14.858 C 4.621 15.041,5.300 15.378,5.605 15.488 C 5.859 15.579,5.869 15.580,8.330 15.592 L 10.800 15.604 10.800 17.145 L 10.800 18.685 10.228 18.150 C 9.559 17.526,9.171 17.207,8.920 17.076 C 8.775 17.000,8.678 16.981,8.420 16.981 C 8.035 16.981,7.841 17.043,7.632 17.232 C 7.392 17.449,7.303 17.649,7.302 17.980 C 7.300 18.325,7.356 18.448,7.710 18.868 C 8.087 19.316,10.800 22.013,11.180 22.317 C 11.520 22.589,11.836 22.759,12.000 22.759 C 12.146 22.759,12.465 22.598,12.740 22.385 C 13.139 22.075,14.394 20.873,15.281 19.949 C 16.463 18.719,16.723 18.378,16.727 18.047 C 16.732 17.663,16.476 17.249,16.123 17.070 C 15.933 16.974,15.860 16.960,15.537 16.960 L 15.169 16.960 14.934 17.133 C 14.674 17.325,14.461 17.514,13.710 18.214 L 13.200 18.689 13.200 17.145 L 13.200 15.600 14.330 15.600 C 15.517 15.599,16.656 15.548,17.060 15.476 C 17.490 15.399,18.049 15.200,18.640 14.912 L 19.220 14.629 19.822 14.025 C 20.465 13.379,20.719 13.038,21.018 12.420 C 21.362 11.709,21.477 11.225,21.508 10.354 C 21.563 8.800,21.107 7.669,19.960 6.519 C 19.268 5.824,18.436 5.308,17.711 5.123 C 17.550 5.082,17.059 5.001,16.619 4.943 C 16.180 4.885,15.748 4.827,15.659 4.815 C 15.500 4.794,15.495 4.788,15.285 4.376 C 14.459 2.750,13.205 1.680,11.847 1.443 C 11.547 1.390,9.814 1.353,9.660 1.396 M12.361 8.602 C 12.540 8.648,12.743 8.797,12.871 8.977 C 12.994 9.150,13.018 9.377,13.078 10.980 C 13.125 12.246,13.200 14.899,13.200 15.330 L 13.200 15.600 12.000 15.600 L 10.800 15.600 10.800 15.010 C 10.801 13.755,10.935 10.059,11.001 9.446 C 11.044 9.048,11.110 8.922,11.398 8.687 L 11.613 8.512 11.917 8.539 C 12.083 8.553,12.283 8.582,12.361 8.602 " fill="#373B4D" stroke="none" fill-rule="evenodd"></path></svg>