<svg width="24" height="24" viewBox="0 0 24 24" fill="none" xmlns="http://www.w3.org/2000/svg"><path d="M10.020 4.921 C 9.653 4.959,9.071 5.157,8.613 5.398 C 7.361 6.056,6.464 7.228,6.117 8.657 C 6.056 8.907,6.033 9.190,6.013 9.907 L 5.987 10.835 5.564 10.981 C 4.657 11.294,4.091 11.632,3.577 12.167 C 2.171 13.632,2.055 15.951,3.311 17.528 C 3.846 18.201,4.455 18.627,5.508 19.065 L 5.860 19.212 11.340 19.165 C 14.354 19.140,16.960 19.102,17.130 19.083 C 17.532 19.036,17.865 18.925,18.478 18.634 C 19.069 18.354,19.440 18.085,19.981 17.542 C 20.652 16.869,20.882 16.516,21.233 15.612 C 21.515 14.890,21.536 14.761,21.536 13.820 C 21.536 13.005,21.532 12.966,21.411 12.520 C 21.068 11.257,20.486 10.384,19.459 9.595 C 18.982 9.228,18.293 8.845,17.860 8.706 C 17.473 8.582,16.303 8.442,15.634 8.440 C 15.492 8.440,15.486 8.434,15.381 8.170 C 15.099 7.458,14.651 6.769,14.140 6.260 C 13.717 5.838,13.312 5.550,12.793 5.300 C 12.286 5.056,11.907 4.967,11.163 4.920 C 10.484 4.877,10.433 4.877,10.020 4.921 " fill="#373B4D" stroke="none" fill-rule="evenodd"></path></svg>