<svg width="24" height="24" viewBox="0 0 24 24" fill="none" xmlns="http://www.w3.org/2000/svg"><path d="M9.660 1.396 C 9.030 1.572,8.051 2.156,7.499 2.686 C 6.808 3.349,6.359 4.113,6.185 4.920 C 6.095 5.336,6.040 5.997,6.040 6.661 L 6.040 7.221 5.711 7.338 C 5.287 7.489,4.669 7.792,4.306 8.026 C 3.693 8.422,3.077 9.168,2.785 9.867 C 2.540 10.453,2.480 10.761,2.480 11.435 C 2.480 12.190,2.537 12.443,2.860 13.105 C 3.206 13.817,3.788 14.509,4.334 14.858 C 4.621 15.041,5.300 15.378,5.605 15.488 C 5.859 15.579,5.869 15.580,8.330 15.592 L 10.800 15.604 10.800 18.799 L 10.800 21.994 11.070 22.238 C 11.699 22.808,12.183 22.857,12.743 22.409 C 13.107 22.117,13.124 22.062,13.163 21.046 C 13.181 20.570,13.197 19.149,13.198 17.890 L 13.200 15.600 14.330 15.600 C 15.517 15.599,16.656 15.548,17.060 15.476 C 17.490 15.399,18.049 15.200,18.640 14.912 L 19.220 14.629 19.822 14.025 C 20.465 13.379,20.719 13.038,21.018 12.420 C 21.362 11.709,21.477 11.225,21.508 10.354 C 21.563 8.800,21.107 7.669,19.960 6.519 C 19.268 5.824,18.436 5.308,17.711 5.123 C 17.550 5.082,17.059 5.001,16.619 4.943 C 16.180 4.885,15.748 4.827,15.659 4.815 C 15.500 4.794,15.495 4.788,15.285 4.376 C 14.459 2.750,13.205 1.680,11.847 1.443 C 11.547 1.390,9.814 1.353,9.660 1.396 M12.355 7.398 C 12.591 7.466,12.911 7.751,14.356 9.180 C 15.960 10.766,16.351 11.194,16.527 11.550 C 16.638 11.774,16.649 11.827,16.631 12.070 C 16.597 12.542,16.320 12.919,15.888 13.081 C 15.414 13.258,15.082 13.067,13.810 11.885 L 13.200 11.317 13.200 13.459 L 13.200 15.600 12.000 15.600 L 10.800 15.600 10.800 13.459 L 10.800 11.317 10.070 11.998 C 8.957 13.037,8.777 13.149,8.291 13.112 C 7.968 13.088,7.785 12.987,7.557 12.705 L 7.360 12.461 7.362 12.121 C 7.364 11.744,7.415 11.558,7.586 11.311 C 7.862 10.911,10.608 8.149,11.250 7.625 C 11.354 7.540,11.507 7.447,11.590 7.417 C 11.767 7.354,12.165 7.344,12.355 7.398 " fill="#373B4D" stroke="none" fill-rule="evenodd"></path></svg>