<svg width="24" height="24" viewBox="0 0 24 24" fill="none" xmlns="http://www.w3.org/2000/svg"><path d="M9.569 1.422 C 8.877 1.627,8.051 2.122,7.457 2.690 C 7.031 3.096,6.745 3.491,6.500 4.011 C 6.145 4.765,6.043 5.326,6.041 6.540 L 6.040 7.221 5.630 7.359 C 4.042 7.895,3.014 8.914,2.581 10.380 C 2.452 10.815,2.402 11.589,2.475 12.010 C 2.661 13.079,3.409 14.256,4.257 14.817 C 4.594 15.040,5.175 15.329,5.579 15.475 L 5.924 15.600 8.362 15.600 L 10.800 15.600 10.800 17.144 L 10.800 18.689 10.350 18.257 C 9.430 17.376,9.000 17.035,8.704 16.956 C 8.493 16.899,8.066 16.944,7.852 17.046 C 7.368 17.275,7.127 17.920,7.345 18.400 C 7.461 18.656,8.032 19.277,9.458 20.701 C 11.444 22.684,11.783 22.920,12.308 22.682 C 12.712 22.499,13.381 21.897,14.941 20.316 C 16.392 18.845,16.757 18.392,16.759 18.057 C 16.762 17.703,16.495 17.242,16.179 17.057 C 15.935 16.915,15.375 16.871,15.151 16.978 C 14.951 17.072,14.482 17.468,13.790 18.126 L 13.200 18.686 13.200 17.150 L 13.200 15.613 14.890 15.587 C 15.820 15.573,16.733 15.542,16.920 15.519 C 17.568 15.438,18.747 14.961,19.280 14.563 C 19.819 14.161,20.477 13.422,20.832 12.819 C 21.893 11.022,21.766 8.746,20.513 7.086 C 20.066 6.494,19.375 5.891,18.728 5.527 C 18.100 5.175,17.682 5.043,16.940 4.961 C 16.720 4.937,16.309 4.892,16.026 4.861 C 15.743 4.830,15.506 4.799,15.500 4.792 C 15.494 4.786,15.381 4.563,15.249 4.299 C 14.774 3.348,14.248 2.698,13.527 2.166 C 12.671 1.535,11.881 1.317,10.472 1.322 C 9.986 1.324,9.850 1.339,9.569 1.422 M12.636 8.709 C 12.924 8.908,12.997 9.061,13.041 9.548 C 13.078 9.966,13.142 12.040,13.185 14.250 L 13.212 15.600 12.006 15.600 L 10.800 15.600 10.800 14.990 C 10.800 13.233,10.928 9.490,10.999 9.183 C 11.046 8.975,11.143 8.851,11.404 8.666 L 11.620 8.512 12.019 8.535 C 12.399 8.557,12.429 8.565,12.636 8.709 " fill="#373B4D" stroke="none" fill-rule="evenodd"></path></svg>