<svg width="24" height="24" viewBox="0 0 24 24" fill="none" xmlns="http://www.w3.org/2000/svg"><path d="M9.803 1.362 C 9.340 1.445,8.546 1.836,7.977 2.261 C 7.310 2.758,6.850 3.294,6.542 3.934 C 6.161 4.723,6.083 5.101,6.053 6.301 L 6.030 7.222 5.645 7.356 C 5.157 7.527,4.581 7.816,4.216 8.073 C 3.039 8.904,2.374 10.271,2.451 11.700 C 2.512 12.826,3.295 14.167,4.280 14.831 C 4.534 15.002,5.286 15.371,5.632 15.495 L 5.925 15.600 8.362 15.600 L 10.800 15.600 10.800 17.143 L 10.800 18.686 10.250 18.167 C 9.029 17.015,8.791 16.872,8.233 16.958 C 7.768 17.031,7.522 17.207,7.352 17.590 C 7.247 17.825,7.249 18.191,7.356 18.411 C 7.478 18.661,8.063 19.300,9.331 20.569 C 11.274 22.513,11.681 22.829,12.140 22.743 C 12.499 22.675,13.279 22.000,14.880 20.373 C 16.498 18.727,16.793 18.345,16.747 17.954 C 16.703 17.588,16.389 17.144,16.082 17.015 C 15.882 16.931,15.404 16.899,15.226 16.958 C 14.996 17.034,14.704 17.274,13.750 18.170 L 13.200 18.687 13.200 17.150 L 13.200 15.613 14.870 15.587 C 15.788 15.573,16.693 15.542,16.880 15.518 C 17.603 15.428,18.817 14.925,19.365 14.489 C 19.988 13.994,20.639 13.206,20.981 12.536 C 21.611 11.301,21.715 9.754,21.254 8.471 C 20.989 7.733,20.585 7.106,19.998 6.520 C 19.489 6.012,19.054 5.695,18.451 5.393 C 17.890 5.111,17.554 5.031,16.385 4.901 C 15.904 4.848,15.506 4.799,15.500 4.792 C 15.494 4.785,15.395 4.591,15.280 4.360 C 14.857 3.512,14.371 2.866,13.794 2.387 C 13.131 1.837,12.548 1.556,11.780 1.419 C 11.352 1.343,10.112 1.307,9.803 1.362 M12.517 8.639 C 12.696 8.732,12.902 8.944,12.959 9.095 C 13.047 9.330,13.107 10.723,13.184 14.350 L 13.211 15.600 11.999 15.600 L 10.787 15.600 10.814 14.070 C 10.845 12.335,10.904 10.571,10.959 9.729 C 11.005 9.036,11.045 8.935,11.377 8.690 L 11.620 8.511 11.997 8.538 C 12.238 8.556,12.426 8.592,12.517 8.639 " fill="#373B4D" stroke="none" fill-rule="evenodd"></path></svg>