<svg width="24" height="24" viewBox="0 0 24 24" fill="none" xmlns="http://www.w3.org/2000/svg"><path d="M10.080 1.284 C 8.911 1.417,7.504 2.318,6.820 3.372 C 6.175 4.368,5.916 5.492,6.049 6.724 L 6.103 7.228 5.746 7.315 C 3.905 7.764,2.661 9.152,2.435 11.009 C 2.319 11.956,2.679 13.171,3.310 13.964 C 3.873 14.672,4.480 15.085,5.487 15.444 L 5.924 15.600 8.362 15.600 L 10.800 15.600 10.800 18.776 L 10.800 21.953 10.954 22.148 C 11.177 22.430,11.452 22.659,11.632 22.713 C 11.848 22.777,12.254 22.772,12.420 22.702 C 12.596 22.629,12.924 22.323,13.080 22.088 L 13.200 21.906 13.200 18.758 L 13.200 15.611 15.030 15.589 C 16.112 15.576,16.966 15.548,17.120 15.521 C 17.751 15.411,18.696 15.008,19.261 14.609 C 20.383 13.816,21.224 12.532,21.497 11.192 C 21.581 10.780,21.583 9.573,21.499 9.180 C 21.228 7.901,20.498 6.745,19.467 5.966 C 18.804 5.464,18.075 5.101,17.479 4.977 C 17.174 4.913,16.285 4.840,15.816 4.840 L 15.491 4.840 15.323 4.430 C 14.903 3.403,14.264 2.581,13.481 2.060 C 13.110 1.814,12.446 1.502,12.080 1.403 C 11.828 1.334,10.686 1.225,10.440 1.245 C 10.407 1.248,10.245 1.266,10.080 1.284 M12.475 7.358 C 12.729 7.487,13.299 8.016,14.725 9.447 C 16.622 11.349,16.793 11.571,16.747 12.065 C 16.685 12.726,16.078 13.262,15.484 13.181 C 15.116 13.130,14.839 12.915,13.710 11.803 L 13.200 11.301 13.200 13.451 L 13.200 15.600 12.000 15.600 L 10.800 15.600 10.800 13.451 L 10.800 11.301 10.290 11.803 C 9.598 12.485,9.133 12.910,8.944 13.035 C 8.801 13.130,8.750 13.140,8.402 13.139 C 8.058 13.138,7.999 13.127,7.833 13.030 C 7.501 12.835,7.310 12.531,7.260 12.118 C 7.204 11.657,7.333 11.449,8.327 10.397 C 9.080 9.601,10.998 7.743,11.333 7.485 C 11.458 7.389,11.619 7.295,11.690 7.277 C 11.881 7.228,12.308 7.272,12.475 7.358 " fill="#373B4D" stroke="none" fill-rule="evenodd"></path></svg>