<svg width="24" height="24" viewBox="0 0 24 24" fill="none" xmlns="http://www.w3.org/2000/svg"><path d="M10.140 4.856 C 9.190 5.014,8.494 5.321,7.766 5.905 C 6.520 6.903,5.825 8.624,6.040 10.180 C 6.067 10.378,6.098 10.605,6.109 10.685 L 6.127 10.830 5.865 10.876 C 4.589 11.098,3.427 11.971,2.844 13.144 C 2.047 14.750,2.367 16.701,3.636 17.963 C 4.162 18.487,4.807 18.851,5.619 19.083 L 6.057 19.208 11.439 19.188 C 15.068 19.175,16.918 19.154,17.120 19.124 C 17.467 19.073,17.910 18.933,18.415 18.715 C 19.523 18.237,20.645 17.112,21.125 15.999 C 21.512 15.100,21.644 14.285,21.563 13.290 C 21.399 11.274,20.012 9.474,18.054 8.736 C 17.463 8.514,17.185 8.467,16.300 8.443 L 15.460 8.420 15.373 8.150 C 15.082 7.242,14.404 6.298,13.644 5.744 C 13.088 5.339,12.376 5.027,11.725 4.903 C 11.256 4.814,10.521 4.792,10.140 4.856 " fill="#373B4D" stroke="none" fill-rule="evenodd"></path></svg>