<svg width="24" height="24" viewBox="0 0 24 24" fill="none" xmlns="http://www.w3.org/2000/svg"><path d="M10.032 4.923 C 9.153 5.043,8.163 5.558,7.460 6.260 C 7.030 6.690,6.743 7.096,6.480 7.650 C 6.110 8.425,6.003 9.017,6.001 10.285 L 6.000 10.830 5.630 10.958 C 5.151 11.124,4.512 11.428,4.215 11.632 C 2.753 12.634,2.096 14.532,2.628 16.219 C 3.038 17.521,3.942 18.416,5.494 19.058 L 5.835 19.200 7.188 19.200 C 9.795 19.200,16.584 19.117,17.009 19.080 C 17.276 19.057,17.556 19.003,17.749 18.938 C 18.218 18.781,18.923 18.422,19.270 18.165 C 19.653 17.881,20.296 17.242,20.582 16.862 C 20.830 16.532,21.131 15.921,21.340 15.320 C 21.468 14.954,21.491 14.827,21.523 14.333 C 21.590 13.292,21.492 12.603,21.157 11.765 C 20.778 10.820,20.107 10.024,19.137 9.370 C 18.791 9.137,18.181 8.820,17.899 8.726 C 17.593 8.624,16.954 8.530,16.141 8.468 C 15.522 8.421,15.501 8.416,15.454 8.320 C 15.427 8.265,15.315 8.031,15.205 7.800 C 14.926 7.214,14.645 6.809,14.180 6.326 C 13.576 5.697,12.846 5.246,12.134 5.060 C 11.663 4.937,10.488 4.860,10.032 4.923 " fill="#373B4D" stroke="none" fill-rule="evenodd"></path></svg>