<svg width="24" height="24" viewBox="0 0 24 24" fill="none" xmlns="http://www.w3.org/2000/svg"><path d="M9.910 1.321 C 9.164 1.447,8.107 2.023,7.433 2.671 C 6.738 3.340,6.341 4.092,6.117 5.160 C 6.042 5.519,6.030 5.699,6.034 6.402 L 6.038 7.225 5.609 7.359 C 3.803 7.926,2.693 9.210,2.437 11.028 C 2.290 12.073,2.808 13.479,3.657 14.338 C 4.117 14.803,4.682 15.141,5.528 15.456 L 5.917 15.600 8.358 15.600 L 10.800 15.600 10.800 18.778 L 10.800 21.956 10.993 22.188 C 11.393 22.668,11.885 22.862,12.324 22.714 C 12.544 22.640,12.839 22.402,13.026 22.148 L 13.200 21.911 13.200 18.762 L 13.200 15.612 14.950 15.588 C 15.912 15.575,16.849 15.545,17.031 15.521 C 17.620 15.443,18.577 15.049,19.233 14.613 C 20.322 13.888,21.268 12.417,21.501 11.085 C 21.628 10.363,21.557 9.301,21.340 8.651 C 20.893 7.315,19.985 6.216,18.740 5.506 C 18.002 5.085,17.459 4.946,16.273 4.874 L 15.486 4.826 15.343 4.481 C 15.050 3.776,14.648 3.170,14.120 2.641 C 13.548 2.069,12.784 1.614,12.100 1.439 C 11.623 1.316,10.346 1.248,9.910 1.321 M12.454 7.376 C 12.644 7.456,13.440 8.197,14.844 9.598 C 16.563 11.316,16.762 11.579,16.705 12.065 C 16.665 12.402,16.538 12.655,16.300 12.873 C 15.965 13.179,15.552 13.248,15.176 13.061 C 14.925 12.935,14.706 12.750,13.870 11.952 L 13.200 11.313 13.200 13.457 L 13.200 15.600 12.000 15.600 L 10.800 15.600 10.800 13.456 L 10.800 11.311 10.250 11.843 C 9.519 12.548,8.964 13.040,8.849 13.084 C 8.725 13.131,8.072 13.130,7.947 13.083 C 7.800 13.027,7.560 12.803,7.433 12.602 C 7.329 12.438,7.320 12.394,7.320 12.031 C 7.320 11.587,7.339 11.541,7.720 11.084 C 8.472 10.181,11.194 7.537,11.573 7.342 C 11.721 7.265,12.242 7.286,12.454 7.376 " fill="#373B4D" stroke="none" fill-rule="evenodd"></path></svg>