<svg width="24" height="24" viewBox="0 0 24 24" fill="none" xmlns="http://www.w3.org/2000/svg"><path d="M10.140 4.882 C 9.099 5.022,7.938 5.643,7.265 6.420 C 6.714 7.056,6.384 7.664,6.182 8.412 C 6.015 9.033,5.984 9.408,6.040 10.131 C 6.067 10.483,6.073 10.781,6.054 10.799 C 6.035 10.816,5.807 10.896,5.547 10.977 C 4.262 11.377,3.381 12.099,2.858 13.179 C 2.572 13.771,2.474 14.168,2.450 14.820 C 2.428 15.449,2.469 15.793,2.622 16.262 C 2.836 16.918,3.159 17.436,3.681 17.954 C 4.107 18.377,4.498 18.629,5.198 18.930 L 5.780 19.180 10.840 19.170 C 13.623 19.164,16.224 19.144,16.620 19.124 C 17.270 19.092,17.377 19.077,17.720 18.962 C 18.218 18.795,18.919 18.454,19.223 18.230 C 19.560 17.981,19.951 17.610,20.370 17.140 C 20.665 16.810,20.769 16.656,20.963 16.260 C 21.226 15.723,21.455 15.072,21.518 14.680 C 21.570 14.356,21.570 13.439,21.519 13.040 C 21.437 12.407,21.197 11.704,20.870 11.141 C 20.372 10.283,19.529 9.503,18.562 9.006 C 17.777 8.602,17.373 8.511,16.112 8.456 L 15.485 8.429 15.396 8.204 C 14.765 6.615,13.731 5.575,12.282 5.073 C 11.827 4.916,10.665 4.812,10.140 4.882 " fill="#373B4D" stroke="none" fill-rule="evenodd"></path></svg>