<svg width="24" height="24" viewBox="0 0 24 24" fill="none" xmlns="http://www.w3.org/2000/svg"><path d="M14.026 3.719 C 13.687 3.827,13.483 4.093,13.226 4.760 C 12.716 6.087,8.759 17.969,8.518 18.900 C 8.379 19.435,8.486 19.772,8.892 20.076 C 9.550 20.571,10.288 20.374,10.625 19.614 C 10.978 18.815,13.367 11.755,14.879 7.041 C 15.398 5.422,15.534 4.934,15.537 4.679 C 15.540 4.483,15.522 4.434,15.383 4.244 C 15.202 3.997,14.969 3.816,14.764 3.762 C 14.535 3.702,14.150 3.680,14.026 3.719 M5.573 7.363 C 5.481 7.408,5.265 7.564,5.093 7.709 C 4.615 8.110,1.763 10.983,1.527 11.300 C 1.150 11.806,1.130 12.086,1.438 12.547 C 1.626 12.829,2.914 14.190,4.065 15.322 C 4.983 16.226,5.337 16.535,5.580 16.645 C 5.801 16.746,6.244 16.744,6.469 16.641 C 6.668 16.551,6.961 16.263,7.054 16.066 C 7.151 15.862,7.143 15.354,7.040 15.141 C 6.939 14.931,6.309 14.239,5.083 12.990 L 4.111 12.000 5.043 11.050 C 6.298 9.770,6.902 9.101,7.022 8.858 C 7.146 8.607,7.186 8.300,7.122 8.105 C 7.053 7.898,6.791 7.582,6.591 7.464 C 6.439 7.376,6.042 7.281,5.820 7.280 C 5.776 7.280,5.665 7.317,5.573 7.363 M17.579 7.355 C 17.513 7.372,17.409 7.418,17.349 7.458 C 17.218 7.544,16.982 7.856,16.900 8.054 C 16.823 8.238,16.823 8.563,16.901 8.748 C 17.022 9.038,17.572 9.649,19.134 11.227 L 19.894 11.995 18.880 13.027 C 16.853 15.093,16.702 15.318,16.909 15.965 C 17.055 16.423,17.523 16.734,18.069 16.735 C 18.291 16.735,18.341 16.719,18.535 16.585 C 19.007 16.260,21.447 13.866,22.279 12.912 C 22.698 12.430,22.774 12.275,22.753 11.940 C 22.739 11.726,22.713 11.650,22.590 11.472 C 22.346 11.119,21.670 10.398,20.496 9.238 C 19.296 8.054,18.710 7.523,18.483 7.414 C 18.325 7.339,17.780 7.303,17.579 7.355 " fill="#373B4D" stroke="none" fill-rule="evenodd"></path></svg>