<svg width="24" height="24" viewBox="0 0 24 24" fill="none" xmlns="http://www.w3.org/2000/svg"><path d="M13.995 3.748 C 13.805 3.777,13.580 4.016,13.408 4.369 C 13.319 4.551,13.103 5.105,12.927 5.600 C 12.273 7.438,8.907 17.578,8.598 18.640 C 8.408 19.294,8.438 19.598,8.724 19.900 C 9.087 20.285,9.640 20.443,10.005 20.266 C 10.207 20.168,10.500 19.864,10.604 19.644 C 10.972 18.865,14.644 7.927,15.346 5.520 C 15.567 4.760,15.572 4.528,15.372 4.238 C 15.090 3.828,14.603 3.655,13.995 3.748 M5.447 7.450 C 5.132 7.652,3.967 8.759,2.816 9.951 C 1.693 11.114,1.423 11.422,1.315 11.660 C 1.171 11.977,1.246 12.291,1.561 12.694 C 1.848 13.060,3.355 14.620,4.323 15.552 C 5.438 16.626,5.547 16.700,6.020 16.700 C 6.297 16.700,6.365 16.685,6.526 16.591 C 6.765 16.450,7.013 16.168,7.073 15.968 C 7.182 15.603,7.098 15.189,6.854 14.888 C 6.599 14.575,5.868 13.794,4.966 12.873 L 4.111 12.000 4.943 11.150 C 5.944 10.127,6.725 9.282,6.888 9.047 C 7.032 8.840,7.160 8.492,7.160 8.310 C 7.160 8.033,6.852 7.632,6.500 7.450 C 6.348 7.371,6.224 7.342,5.980 7.330 C 5.672 7.314,5.652 7.319,5.447 7.450 M17.592 7.367 C 17.394 7.420,17.123 7.665,16.988 7.912 C 16.789 8.278,16.804 8.612,17.037 8.962 C 17.204 9.214,17.916 9.987,18.980 11.073 L 19.894 12.005 19.154 12.753 C 16.952 14.978,16.723 15.298,16.899 15.901 C 16.952 16.085,17.012 16.179,17.193 16.359 C 17.387 16.553,17.459 16.596,17.687 16.658 C 17.858 16.704,18.034 16.724,18.174 16.712 C 18.369 16.696,18.425 16.669,18.667 16.473 C 19.388 15.889,21.870 13.421,22.377 12.782 C 22.681 12.401,22.740 12.268,22.738 11.980 C 22.735 11.663,22.655 11.519,22.194 11.000 C 21.344 10.043,19.268 8.008,18.727 7.601 C 18.610 7.513,18.448 7.425,18.367 7.405 C 18.122 7.343,17.749 7.325,17.592 7.367 " fill="#373B4D" stroke="none" fill-rule="evenodd"></path></svg>