<svg width="24" height="24" viewBox="0 0 24 24" fill="none" xmlns="http://www.w3.org/2000/svg"><path d="M14.040 3.756 C 13.535 3.860,13.443 4.067,12.001 8.320 C 11.109 10.949,8.986 17.385,8.719 18.267 C 8.475 19.070,8.439 19.356,8.550 19.606 C 8.769 20.102,9.464 20.437,9.944 20.279 C 10.146 20.212,10.483 19.866,10.612 19.592 C 10.875 19.034,12.559 14.121,14.121 9.353 C 15.303 5.745,15.549 4.896,15.503 4.584 C 15.456 4.272,15.117 3.918,14.760 3.809 C 14.562 3.749,14.205 3.723,14.040 3.756 M5.659 7.345 C 5.417 7.399,4.362 8.377,2.731 10.060 C 1.354 11.481,1.259 11.605,1.263 11.980 C 1.267 12.243,1.398 12.493,1.745 12.900 C 2.121 13.340,4.229 15.470,4.840 16.028 C 5.447 16.582,5.649 16.692,6.054 16.695 C 6.358 16.696,6.441 16.666,6.691 16.466 C 7.182 16.072,7.250 15.447,6.857 14.925 C 6.620 14.609,5.908 13.839,4.922 12.829 L 4.110 11.999 4.805 11.289 C 5.884 10.187,6.716 9.282,6.878 9.034 C 6.960 8.910,7.059 8.706,7.098 8.580 C 7.160 8.385,7.163 8.327,7.121 8.187 C 7.021 7.854,6.754 7.572,6.400 7.426 C 6.252 7.365,5.796 7.315,5.659 7.345 M17.480 7.423 C 17.020 7.742,16.776 8.214,16.877 8.590 C 16.975 8.952,17.283 9.317,18.851 10.933 L 19.893 12.006 19.212 12.693 C 17.280 14.643,16.868 15.159,16.863 15.640 C 16.857 16.161,17.343 16.630,17.964 16.703 C 18.414 16.756,18.566 16.637,20.534 14.683 C 21.947 13.280,22.493 12.684,22.639 12.382 C 22.747 12.160,22.747 11.810,22.641 11.601 C 22.597 11.516,22.467 11.332,22.352 11.193 C 21.843 10.576,19.302 8.055,18.831 7.699 C 18.491 7.442,18.366 7.396,17.943 7.373 C 17.641 7.356,17.563 7.365,17.480 7.423 " fill="#373B4D" stroke="none" fill-rule="evenodd"></path></svg>