<svg width="24" height="24" viewBox="0 0 24 24" fill="none" xmlns="http://www.w3.org/2000/svg"><path d="M14.055 3.684 C 13.986 3.704,13.842 3.778,13.735 3.850 C 13.577 3.955,13.512 4.037,13.393 4.280 C 13.234 4.604,11.557 9.553,9.787 14.920 C 8.429 19.039,8.478 18.880,8.452 19.223 C 8.424 19.581,8.486 19.723,8.799 20.013 C 9.109 20.300,9.278 20.376,9.600 20.373 C 10.069 20.369,10.406 20.149,10.614 19.711 C 10.957 18.990,15.349 5.803,15.560 4.861 C 15.593 4.711,15.587 4.641,15.523 4.459 C 15.372 4.028,15.059 3.771,14.583 3.683 C 14.309 3.633,14.228 3.633,14.055 3.684 M5.740 7.277 C 5.652 7.292,5.508 7.350,5.420 7.407 C 5.059 7.638,2.331 10.324,1.653 11.116 C 1.029 11.846,1.047 12.190,1.754 12.983 C 2.290 13.585,3.938 15.257,4.672 15.944 C 5.409 16.634,5.608 16.760,5.961 16.760 C 6.332 16.760,6.583 16.663,6.819 16.426 C 7.062 16.183,7.160 15.940,7.159 15.583 C 7.157 15.112,7.051 14.976,5.303 13.208 L 4.104 11.996 4.985 11.108 C 6.286 9.796,6.908 9.134,7.018 8.947 C 7.241 8.566,7.231 8.141,6.991 7.779 C 6.742 7.403,6.224 7.196,5.740 7.277 M17.700 7.277 C 17.426 7.344,17.168 7.538,16.995 7.808 C 16.881 7.985,16.863 8.052,16.848 8.342 C 16.833 8.623,16.844 8.702,16.916 8.851 C 17.014 9.053,17.612 9.698,18.955 11.050 L 19.899 12.000 18.955 12.950 C 17.509 14.405,17.057 14.898,16.931 15.154 C 16.661 15.707,16.903 16.349,17.492 16.639 C 17.700 16.742,17.797 16.765,18.011 16.765 C 18.352 16.765,18.483 16.697,18.983 16.256 C 19.487 15.814,21.841 13.456,22.255 12.981 C 22.701 12.469,22.780 12.320,22.780 11.998 C 22.780 11.770,22.762 11.707,22.641 11.507 C 22.272 10.899,18.897 7.550,18.460 7.359 C 18.274 7.278,17.873 7.234,17.700 7.277 " fill="#373B4D" stroke="none" fill-rule="evenodd"></path></svg>