<svg width="24" height="24" viewBox="0 0 24 24" fill="none" xmlns="http://www.w3.org/2000/svg"><path d="M13.858 3.795 C 13.534 3.992,13.358 4.349,12.820 5.900 C 11.977 8.332,9.306 16.371,8.700 18.300 C 8.386 19.299,8.392 19.589,8.735 19.932 C 8.936 20.133,9.189 20.272,9.448 20.324 C 9.790 20.393,10.071 20.297,10.342 20.019 C 10.515 19.843,10.581 19.731,10.713 19.392 C 11.308 17.864,14.191 9.271,15.179 6.080 C 15.515 4.994,15.578 4.692,15.507 4.487 C 15.396 4.165,15.067 3.856,14.739 3.765 C 14.477 3.692,14.000 3.708,13.858 3.795 M5.580 7.364 C 5.492 7.411,5.339 7.515,5.240 7.594 C 4.878 7.883,3.683 9.048,2.603 10.166 C 1.333 11.480,1.219 11.638,1.248 12.041 C 1.269 12.337,1.398 12.536,1.984 13.183 C 2.604 13.867,4.848 16.104,5.184 16.372 C 5.506 16.630,5.721 16.720,6.010 16.720 C 6.326 16.720,6.512 16.643,6.764 16.410 C 7.062 16.134,7.137 15.947,7.112 15.545 C 7.097 15.322,7.067 15.205,6.990 15.074 C 6.854 14.844,6.186 14.116,5.043 12.950 L 4.111 12.000 5.002 11.090 C 6.005 10.066,6.651 9.368,6.879 9.065 C 7.036 8.855,7.160 8.520,7.160 8.305 C 7.160 7.994,6.795 7.544,6.432 7.408 C 6.082 7.277,5.773 7.261,5.580 7.364 M17.660 7.345 C 17.420 7.402,17.265 7.508,17.099 7.730 C 16.788 8.144,16.758 8.555,17.013 8.935 C 17.205 9.222,17.788 9.857,18.918 11.010 L 19.889 12.001 18.954 12.953 C 17.493 14.442,17.116 14.873,16.934 15.260 C 16.818 15.508,16.816 15.692,16.925 15.985 C 17.098 16.446,17.528 16.720,18.077 16.720 C 18.335 16.720,18.365 16.710,18.561 16.563 C 19.106 16.153,21.485 13.819,22.233 12.960 C 22.670 12.458,22.778 12.238,22.749 11.914 C 22.731 11.722,22.697 11.627,22.585 11.465 C 22.370 11.154,21.439 10.164,20.411 9.155 C 19.303 8.068,18.722 7.547,18.503 7.443 C 18.342 7.367,17.821 7.306,17.660 7.345 " fill="#373B4D" stroke="none" fill-rule="evenodd"></path></svg>