<svg width="24" height="24" viewBox="0 0 24 24" fill="none" xmlns="http://www.w3.org/2000/svg"><path d="M14.068 3.678 C 14.007 3.698,13.869 3.770,13.763 3.838 C 13.436 4.048,13.433 4.055,11.988 8.320 C 11.250 10.497,8.996 17.300,8.641 18.420 C 8.350 19.337,8.377 19.625,8.788 20.000 C 9.100 20.285,9.263 20.360,9.573 20.360 C 10.013 20.360,10.308 20.201,10.538 19.840 C 10.687 19.606,11.225 18.071,12.744 13.541 C 14.432 8.508,15.564 4.983,15.568 4.740 C 15.576 4.345,15.199 3.862,14.786 3.740 C 14.517 3.660,14.208 3.633,14.068 3.678 M5.471 7.390 C 5.078 7.618,2.172 10.472,1.581 11.211 C 1.053 11.870,1.075 12.169,1.704 12.921 C 2.101 13.395,4.762 16.064,5.144 16.371 C 5.544 16.692,5.746 16.775,6.077 16.751 C 6.500 16.720,6.847 16.492,7.049 16.109 C 7.167 15.884,7.177 15.374,7.066 15.152 C 6.946 14.909,6.538 14.460,5.292 13.198 L 4.111 12.001 5.222 10.871 C 6.672 9.394,7.019 9.003,7.102 8.754 C 7.246 8.320,7.162 7.960,6.842 7.637 C 6.575 7.369,6.350 7.280,5.943 7.280 C 5.708 7.281,5.628 7.299,5.471 7.390 M17.500 7.352 C 17.266 7.462,16.941 7.834,16.885 8.055 C 16.815 8.334,16.829 8.661,16.917 8.835 C 17.031 9.057,17.551 9.626,18.789 10.883 L 19.889 11.999 18.659 13.249 C 17.298 14.634,16.956 15.030,16.875 15.313 C 16.672 16.026,17.190 16.708,17.968 16.753 C 18.318 16.774,18.467 16.702,18.957 16.274 C 19.503 15.798,22.000 13.285,22.369 12.841 C 22.724 12.413,22.825 12.172,22.778 11.862 C 22.724 11.500,22.344 11.055,20.643 9.360 C 19.465 8.186,18.722 7.506,18.471 7.374 C 18.270 7.268,17.706 7.256,17.500 7.352 " fill="#373B4D" stroke="none" fill-rule="evenodd"></path></svg>