<svg width="24" height="24" viewBox="0 0 24 24" fill="none" xmlns="http://www.w3.org/2000/svg"><path d="M11.517 2.535 C 11.018 2.669,10.698 2.968,10.232 3.732 C 9.641 4.699,9.477 4.881,9.047 5.041 C 8.602 5.208,8.325 5.191,7.566 4.953 C 7.210 4.842,7.131 4.832,6.540 4.826 C 5.789 4.819,5.788 4.819,5.348 5.238 C 5.007 5.563,4.827 5.845,4.737 6.197 C 4.656 6.518,4.674 6.663,4.884 7.360 C 5.020 7.811,5.050 7.976,5.069 8.364 C 5.094 8.893,5.064 9.026,4.847 9.356 C 4.678 9.612,4.324 9.895,3.594 10.359 C 2.936 10.776,2.685 11.016,2.563 11.341 C 2.404 11.767,2.381 11.963,2.457 12.266 C 2.645 13.013,2.854 13.230,4.186 14.055 C 4.770 14.417,5.080 14.826,5.080 15.234 C 5.080 15.646,4.992 16.264,4.858 16.784 C 4.782 17.081,4.720 17.418,4.720 17.534 C 4.720 17.792,4.813 18.119,4.946 18.330 C 5.110 18.590,5.552 18.991,5.816 19.120 C 6.302 19.358,6.543 19.346,7.499 19.038 C 7.989 18.881,8.036 18.873,8.339 18.897 C 8.802 18.935,9.115 18.996,9.279 19.079 C 9.511 19.198,9.758 19.499,10.179 20.180 C 10.643 20.928,10.862 21.164,11.280 21.370 C 11.688 21.570,11.934 21.619,12.229 21.559 C 12.804 21.442,13.208 21.131,13.621 20.488 C 14.338 19.370,14.396 19.290,14.582 19.167 C 15.055 18.854,15.576 18.842,16.680 19.118 C 17.521 19.328,17.734 19.334,18.100 19.160 C 18.456 18.990,18.941 18.531,19.121 18.192 C 19.246 17.958,19.253 17.923,19.249 17.555 C 19.245 17.238,19.216 17.062,19.093 16.613 C 18.955 16.108,18.942 16.015,18.941 15.540 C 18.940 15.060,18.948 15.003,19.046 14.794 C 19.199 14.467,19.387 14.302,20.117 13.857 C 20.914 13.371,21.224 13.100,21.378 12.758 C 21.606 12.250,21.609 11.749,21.387 11.263 C 21.244 10.951,21.010 10.743,20.273 10.275 C 19.567 9.827,19.170 9.488,19.042 9.225 C 18.971 9.077,18.960 8.979,18.960 8.474 C 18.960 7.928,18.970 7.854,19.120 7.260 C 19.359 6.315,19.335 6.054,18.960 5.556 C 18.739 5.261,18.436 5.008,18.138 4.872 C 17.971 4.795,17.877 4.782,17.540 4.785 C 17.200 4.789,17.031 4.818,16.420 4.979 C 15.804 5.140,15.659 5.165,15.420 5.150 C 14.806 5.113,14.385 4.776,13.877 3.918 C 13.538 3.344,13.289 3.007,13.100 2.863 C 12.690 2.550,11.995 2.406,11.517 2.535 M12.834 8.598 C 13.306 8.667,14.014 9.058,14.456 9.495 C 14.905 9.939,15.250 10.500,15.390 11.011 C 15.475 11.323,15.482 12.614,15.401 12.960 C 15.244 13.624,14.529 14.562,13.821 15.032 C 13.668 15.134,13.380 15.281,13.181 15.359 L 12.820 15.500 11.980 15.500 L 11.140 15.500 10.821 15.367 C 9.790 14.940,8.826 13.897,8.594 12.960 C 8.515 12.640,8.528 11.342,8.614 11.011 C 8.748 10.491,9.082 9.964,9.586 9.475 C 10.037 9.038,10.584 8.700,10.999 8.601 C 11.193 8.556,12.522 8.553,12.834 8.598 " fill="#373B4D" stroke="none" fill-rule="evenodd"></path></svg>