<svg width="24" height="24" viewBox="0 0 24 24" fill="none" xmlns="http://www.w3.org/2000/svg"><path d="M11.640 2.441 C 11.363 2.500,11.162 2.591,10.897 2.781 C 10.583 3.005,10.394 3.284,10.220 3.781 C 10.054 4.253,9.857 4.551,9.544 4.805 C 9.256 5.039,8.943 5.161,8.560 5.188 C 8.195 5.215,7.915 5.150,7.438 4.928 C 6.893 4.675,6.513 4.624,6.061 4.741 C 5.531 4.879,5.107 5.232,4.853 5.745 C 4.703 6.049,4.700 6.065,4.701 6.498 L 4.702 6.940 4.928 7.460 C 5.256 8.218,5.276 8.694,5.001 9.237 C 4.761 9.711,4.428 9.984,3.810 10.214 C 3.330 10.393,3.142 10.506,2.894 10.769 C 2.658 11.018,2.544 11.222,2.460 11.547 C 2.307 12.133,2.492 12.854,2.898 13.260 C 3.143 13.505,3.363 13.634,3.800 13.788 C 4.406 14.001,4.759 14.288,5.001 14.763 C 5.246 15.246,5.251 15.811,5.013 16.346 C 4.715 17.018,4.670 17.186,4.688 17.585 C 4.702 17.911,4.720 17.984,4.855 18.258 C 5.049 18.650,5.349 18.951,5.734 19.140 C 6.238 19.387,6.711 19.391,7.258 19.154 C 7.413 19.086,7.638 18.989,7.759 18.938 C 8.062 18.809,8.467 18.778,8.834 18.856 C 9.493 18.994,9.978 19.471,10.213 20.210 C 10.460 20.983,10.963 21.438,11.714 21.567 C 12.388 21.683,13.116 21.381,13.497 20.827 C 13.576 20.713,13.704 20.439,13.781 20.219 C 14.057 19.434,14.503 18.995,15.166 18.856 C 15.584 18.767,15.942 18.807,16.344 18.987 C 17.109 19.328,17.481 19.397,17.923 19.280 C 18.400 19.153,18.876 18.774,19.106 18.339 C 19.436 17.715,19.411 17.294,18.986 16.343 C 18.672 15.639,18.784 14.891,19.288 14.339 C 19.495 14.112,19.788 13.940,20.241 13.778 C 20.963 13.520,21.354 13.123,21.524 12.474 C 21.696 11.821,21.554 11.242,21.106 10.769 C 20.858 10.506,20.670 10.393,20.190 10.214 C 19.739 10.046,19.490 9.890,19.263 9.631 C 19.027 9.361,18.889 9.063,18.833 8.706 C 18.772 8.311,18.827 7.983,19.033 7.530 C 19.329 6.876,19.386 6.599,19.303 6.203 C 19.153 5.482,18.629 4.921,17.939 4.741 C 17.480 4.622,17.103 4.676,16.541 4.941 C 16.076 5.160,15.827 5.216,15.444 5.189 C 15.051 5.161,14.754 5.047,14.462 4.810 C 14.143 4.551,13.947 4.255,13.780 3.781 C 13.583 3.218,13.371 2.933,12.960 2.675 C 12.632 2.470,12.021 2.362,11.640 2.441 M12.783 8.502 C 14.064 8.767,15.192 9.877,15.502 11.180 C 15.590 11.550,15.579 12.512,15.484 12.884 C 15.315 13.538,14.985 14.092,14.467 14.589 C 14.086 14.954,13.666 15.217,13.163 15.406 C 12.834 15.529,12.791 15.535,12.116 15.551 C 11.561 15.564,11.359 15.554,11.164 15.504 C 9.879 15.175,8.843 14.149,8.516 12.884 C 8.419 12.506,8.410 11.551,8.501 11.168 C 8.743 10.140,9.561 9.159,10.543 8.719 C 11.019 8.505,11.320 8.445,11.932 8.442 C 12.283 8.441,12.592 8.462,12.783 8.502 " fill="#373B4D" stroke="none" fill-rule="evenodd"></path></svg>