<svg width="24" height="24" viewBox="0 0 24 24" fill="none" xmlns="http://www.w3.org/2000/svg"><path d="M11.255 2.619 C 10.733 2.883,10.616 3.021,10.076 4.017 C 9.838 4.456,9.557 4.792,9.305 4.939 C 9.214 4.992,8.998 5.074,8.824 5.122 C 8.445 5.225,8.342 5.211,7.472 4.935 C 6.909 4.757,6.892 4.754,6.440 4.768 C 6.004 4.781,5.967 4.789,5.723 4.920 C 5.250 5.175,4.906 5.591,4.753 6.095 C 4.635 6.482,4.668 6.756,4.922 7.518 C 5.125 8.127,5.128 8.144,5.113 8.541 C 5.100 8.899,5.084 8.975,4.969 9.209 C 4.795 9.562,4.491 9.836,3.918 10.155 C 3.028 10.651,2.811 10.822,2.640 11.160 C 2.508 11.422,2.400 11.807,2.400 12.019 C 2.400 12.219,2.578 12.738,2.727 12.971 C 2.874 13.200,3.140 13.441,3.417 13.595 C 4.684 14.302,4.771 14.369,4.976 14.800 C 5.092 15.044,5.100 15.088,5.100 15.520 C 5.100 15.960,5.091 16.008,4.904 16.600 C 4.740 17.117,4.707 17.273,4.705 17.540 C 4.702 17.822,4.717 17.893,4.832 18.137 C 5.085 18.674,5.546 19.081,6.089 19.245 C 6.458 19.357,6.652 19.332,7.416 19.073 L 8.019 18.869 8.482 18.895 C 9.040 18.927,9.158 18.958,9.425 19.142 C 9.664 19.306,9.849 19.559,10.197 20.200 C 10.620 20.977,10.795 21.170,11.286 21.399 C 11.825 21.652,12.215 21.650,12.753 21.394 C 13.169 21.196,13.445 20.889,13.779 20.251 C 13.931 19.960,14.141 19.607,14.245 19.465 C 14.406 19.246,14.479 19.185,14.737 19.058 C 15.242 18.808,15.718 18.819,16.638 19.101 C 17.296 19.303,17.507 19.337,17.773 19.281 C 18.497 19.131,19.164 18.452,19.279 17.748 C 19.326 17.458,19.285 17.222,19.071 16.560 C 18.934 16.135,18.907 15.994,18.891 15.620 C 18.870 15.126,18.902 14.986,19.126 14.615 C 19.278 14.361,19.536 14.161,20.100 13.858 C 21.072 13.337,21.317 13.093,21.502 12.459 C 21.699 11.785,21.463 11.063,20.912 10.658 C 20.784 10.563,20.424 10.345,20.111 10.173 C 19.474 9.822,19.194 9.580,19.026 9.234 C 18.813 8.797,18.845 8.129,19.120 7.260 C 19.327 6.607,19.352 6.379,19.249 6.056 C 19.092 5.559,18.736 5.157,18.225 4.899 C 17.963 4.767,17.928 4.760,17.537 4.760 C 17.177 4.760,17.067 4.778,16.672 4.901 C 15.793 5.176,15.576 5.220,15.346 5.171 C 14.611 5.015,14.246 4.686,13.780 3.759 C 13.293 2.791,12.835 2.480,11.897 2.480 C 11.558 2.480,11.510 2.491,11.255 2.619 M12.820 8.562 C 13.157 8.610,13.779 8.899,14.140 9.175 C 14.614 9.538,15.180 10.300,15.363 10.819 C 15.529 11.290,15.557 12.430,15.417 12.970 C 15.139 14.043,14.024 15.172,12.977 15.441 C 12.572 15.545,11.765 15.587,11.365 15.524 C 10.294 15.356,9.140 14.399,8.682 13.298 C 8.478 12.809,8.432 11.957,8.563 11.123 C 8.644 10.612,9.200 9.725,9.700 9.310 C 10.049 9.020,10.520 8.747,10.880 8.624 C 11.155 8.530,11.236 8.522,11.860 8.522 C 12.234 8.522,12.666 8.540,12.820 8.562 " fill="#373B4D" stroke="none" fill-rule="evenodd"></path></svg>