<svg width="24" height="24" viewBox="0 0 24 24" fill="none" xmlns="http://www.w3.org/2000/svg"><path d="M11.526 2.561 C 11.120 2.646,10.764 2.979,10.158 3.843 C 9.713 4.477,9.322 4.905,9.096 5.006 C 9.005 5.046,8.780 5.090,8.596 5.104 C 8.307 5.126,8.198 5.114,7.820 5.018 C 7.431 4.920,7.287 4.905,6.574 4.890 L 5.769 4.872 5.458 5.166 C 4.955 5.642,4.700 6.112,4.712 6.540 C 4.716 6.650,4.773 6.963,4.840 7.237 C 4.970 7.766,5.038 8.282,5.039 8.746 C 5.040 9.020,5.033 9.040,4.867 9.266 C 4.657 9.550,4.409 9.766,3.597 10.370 C 2.791 10.969,2.633 11.144,2.494 11.589 L 2.388 11.929 2.457 12.223 C 2.605 12.851,2.837 13.118,3.890 13.873 C 4.878 14.581,5.040 14.787,5.040 15.335 C 5.040 15.498,4.977 16.006,4.900 16.465 C 4.738 17.432,4.726 17.747,4.840 18.050 C 4.997 18.470,5.535 18.990,5.989 19.160 C 6.323 19.285,6.615 19.271,7.309 19.096 C 8.042 18.911,8.598 18.892,9.050 19.037 C 9.398 19.148,9.565 19.315,10.138 20.123 C 10.827 21.096,11.174 21.396,11.754 21.527 C 12.015 21.585,12.364 21.535,12.656 21.398 C 12.906 21.280,13.299 20.882,13.680 20.362 C 14.361 19.431,14.532 19.232,14.760 19.104 C 14.976 18.982,14.990 18.980,15.480 18.986 C 15.849 18.991,16.153 19.025,16.640 19.116 C 17.614 19.299,17.897 19.283,18.280 19.027 C 18.555 18.842,19.013 18.360,19.117 18.146 C 19.241 17.890,19.237 17.386,19.103 16.593 C 19.048 16.270,18.991 15.798,18.976 15.544 L 18.948 15.081 19.076 14.823 C 19.229 14.511,19.374 14.378,20.131 13.854 C 20.444 13.638,20.846 13.317,21.024 13.140 C 21.307 12.860,21.359 12.787,21.432 12.560 C 21.560 12.164,21.574 11.976,21.500 11.653 C 21.385 11.147,21.192 10.936,20.180 10.210 C 19.517 9.734,19.155 9.414,19.065 9.225 C 18.959 9.001,19.003 7.805,19.141 7.160 C 19.176 6.995,19.216 6.694,19.229 6.491 C 19.251 6.136,19.247 6.112,19.127 5.869 C 18.914 5.436,18.313 4.924,17.913 4.834 C 17.701 4.786,17.120 4.849,16.351 5.002 C 15.684 5.136,15.304 5.150,15.017 5.054 C 14.741 4.961,14.310 4.516,13.840 3.840 C 13.633 3.543,13.337 3.171,13.181 3.014 C 12.935 2.766,12.863 2.718,12.632 2.647 C 12.322 2.551,11.775 2.508,11.526 2.561 M12.719 8.639 C 13.049 8.671,13.147 8.699,13.459 8.855 C 14.305 9.274,14.908 9.918,15.275 10.793 C 15.409 11.111,15.450 11.611,15.407 12.389 C 15.382 12.853,15.349 13.109,15.304 13.218 C 15.194 13.480,14.746 14.120,14.443 14.447 C 14.071 14.849,13.775 15.067,13.264 15.316 L 12.846 15.520 11.982 15.520 L 11.118 15.520 10.830 15.375 C 9.896 14.905,9.172 14.186,8.719 13.280 L 8.589 13.021 8.609 11.977 C 8.628 10.961,8.631 10.928,8.731 10.708 C 8.985 10.153,9.411 9.629,9.971 9.181 C 10.429 8.814,10.723 8.680,11.152 8.642 C 11.651 8.598,12.281 8.596,12.719 8.639 " fill="#373B4D" stroke="none" fill-rule="evenodd"></path></svg>