<svg width="24" height="24" viewBox="0 0 24 24" fill="none" xmlns="http://www.w3.org/2000/svg"><path d="M11.380 2.589 C 10.949 2.763,10.700 3.021,10.136 3.876 C 9.442 4.927,9.245 5.082,8.559 5.112 C 8.219 5.127,8.129 5.114,7.719 4.997 C 7.278 4.870,7.232 4.865,6.537 4.862 L 5.814 4.860 5.580 5.040 C 5.280 5.270,4.910 5.735,4.807 6.010 C 4.656 6.413,4.661 6.516,4.858 7.294 C 5.027 7.956,5.040 8.044,5.040 8.517 L 5.040 9.028 4.885 9.267 C 4.707 9.542,4.393 9.812,3.680 10.304 C 2.776 10.928,2.594 11.134,2.458 11.689 C 2.394 11.949,2.394 11.981,2.460 12.252 C 2.625 12.935,2.836 13.161,4.126 14.034 C 4.726 14.440,4.989 14.748,5.060 15.126 C 5.097 15.321,5.020 15.941,4.871 16.660 C 4.704 17.462,4.702 17.813,4.859 18.140 C 5.023 18.480,5.496 18.944,5.860 19.123 C 6.259 19.319,6.570 19.309,7.360 19.078 C 7.991 18.894,8.241 18.873,8.779 18.960 C 9.327 19.048,9.494 19.177,9.968 19.877 C 10.424 20.552,10.789 21.025,10.957 21.157 C 11.162 21.320,11.573 21.510,11.821 21.556 C 12.078 21.605,12.333 21.556,12.674 21.394 C 13.027 21.226,13.285 20.956,13.778 20.239 C 14.438 19.279,14.488 19.221,14.788 19.073 C 15.041 18.948,15.073 18.943,15.477 18.949 C 15.763 18.953,16.056 18.989,16.380 19.060 C 17.628 19.332,17.781 19.334,18.201 19.089 C 18.517 18.904,18.987 18.438,19.120 18.176 C 19.266 17.889,19.259 17.283,19.102 16.640 C 19.015 16.285,18.985 16.050,18.969 15.609 L 18.950 15.038 19.076 14.782 C 19.228 14.473,19.369 14.350,20.171 13.823 C 21.112 13.206,21.355 12.938,21.503 12.359 C 21.611 11.940,21.518 11.444,21.267 11.089 C 21.138 10.908,20.747 10.591,20.220 10.240 C 19.654 9.863,19.256 9.532,19.126 9.329 L 19.000 9.133 19.000 8.462 C 19.000 7.856,19.012 7.737,19.124 7.245 C 19.290 6.509,19.296 6.175,19.146 5.869 C 18.946 5.460,18.354 4.932,17.985 4.833 C 17.724 4.763,16.952 4.842,16.320 5.004 C 15.087 5.319,14.688 5.135,13.851 3.865 C 13.231 2.922,13.019 2.727,12.452 2.580 C 12.148 2.500,11.587 2.505,11.380 2.589 M12.965 8.641 C 13.476 8.738,14.249 9.254,14.719 9.811 C 14.858 9.977,15.047 10.270,15.162 10.500 C 15.419 11.016,15.458 11.281,15.425 12.279 L 15.401 13.018 15.261 13.311 C 15.061 13.733,14.747 14.168,14.378 14.538 C 13.978 14.938,13.730 15.109,13.220 15.339 L 12.820 15.520 11.974 15.520 L 11.127 15.520 10.723 15.318 C 9.804 14.858,9.074 14.116,8.705 13.267 L 8.580 12.980 8.581 12.040 C 8.582 11.163,8.589 11.082,8.674 10.840 C 8.784 10.528,8.912 10.300,9.153 9.984 C 9.606 9.392,10.342 8.817,10.851 8.658 C 11.059 8.593,12.644 8.580,12.965 8.641 " fill="#373B4D" stroke="none" fill-rule="evenodd"></path></svg>