<svg width="24" height="24" viewBox="0 0 24 24" fill="none" xmlns="http://www.w3.org/2000/svg"><path d="M11.520 2.558 C 11.092 2.644,10.755 2.962,10.161 3.841 C 9.689 4.540,9.305 4.956,9.060 5.034 C 8.972 5.062,8.747 5.095,8.560 5.107 C 8.265 5.126,8.156 5.112,7.741 5.004 C 7.288 4.887,7.220 4.880,6.520 4.880 L 5.779 4.880 5.579 5.044 C 5.159 5.390,4.841 5.838,4.740 6.225 C 4.671 6.493,4.689 6.639,4.888 7.420 C 4.985 7.801,5.015 8.013,5.030 8.449 L 5.050 8.997 4.927 9.189 C 4.734 9.488,4.392 9.796,3.721 10.276 C 2.779 10.949,2.597 11.152,2.460 11.680 C 2.389 11.954,2.397 12.053,2.523 12.461 C 2.667 12.926,2.926 13.195,3.860 13.850 C 4.730 14.459,4.907 14.638,5.024 15.026 C 5.095 15.262,5.063 15.610,4.877 16.622 C 4.683 17.680,4.704 17.933,5.024 18.385 C 5.308 18.788,5.749 19.117,6.140 19.219 C 6.430 19.295,6.737 19.259,7.369 19.076 C 8.062 18.875,8.725 18.879,9.210 19.088 C 9.447 19.190,9.646 19.407,10.072 20.027 C 10.768 21.041,11.022 21.287,11.572 21.480 C 11.886 21.591,12.174 21.583,12.528 21.453 C 12.782 21.360,12.862 21.304,13.141 21.023 C 13.328 20.834,13.646 20.433,13.908 20.057 C 14.389 19.364,14.582 19.160,14.873 19.033 C 15.147 18.914,15.855 18.949,16.660 19.120 C 17.463 19.291,17.785 19.297,18.091 19.147 C 18.416 18.987,18.966 18.457,19.108 18.167 C 19.209 17.961,19.219 17.902,19.215 17.540 C 19.211 17.283,19.172 16.957,19.104 16.629 C 19.041 16.321,18.989 15.907,18.974 15.589 C 18.949 15.074,18.951 15.053,19.054 14.836 C 19.201 14.526,19.396 14.348,20.157 13.830 C 21.149 13.155,21.369 12.909,21.504 12.331 C 21.577 12.017,21.554 11.735,21.431 11.404 C 21.299 11.051,21.013 10.786,20.031 10.106 C 19.582 9.796,19.201 9.456,19.077 9.255 C 18.994 9.121,18.991 9.083,19.012 8.368 C 19.030 7.772,19.055 7.527,19.136 7.160 C 19.246 6.666,19.268 6.215,19.194 5.996 C 19.034 5.527,18.314 4.880,17.887 4.821 C 17.622 4.784,16.965 4.862,16.320 5.006 C 15.037 5.291,14.730 5.147,13.840 3.841 C 13.376 3.160,13.104 2.855,12.844 2.722 C 12.514 2.554,11.910 2.479,11.520 2.558 M12.860 8.639 C 13.419 8.711,14.309 9.287,14.758 9.869 C 14.872 10.017,15.055 10.319,15.163 10.539 C 15.418 11.057,15.454 11.301,15.420 12.280 C 15.396 12.940,15.383 13.043,15.298 13.232 C 15.039 13.807,14.376 14.613,13.855 14.985 C 13.720 15.081,13.435 15.241,13.222 15.340 L 12.834 15.520 11.976 15.520 L 11.118 15.520 10.829 15.376 C 9.868 14.896,9.199 14.244,8.757 13.358 L 8.595 13.035 8.608 11.987 L 8.620 10.940 8.784 10.600 C 8.989 10.175,9.227 9.860,9.631 9.474 C 10.189 8.940,10.635 8.680,11.060 8.639 C 11.483 8.598,12.544 8.598,12.860 8.639 " fill="#373B4D" stroke="none" fill-rule="evenodd"></path></svg>