<svg width="24" height="24" viewBox="0 0 24 24" fill="none" xmlns="http://www.w3.org/2000/svg"><path d="M11.521 2.502 C 11.236 2.581,10.990 2.728,10.731 2.972 C 10.563 3.131,10.458 3.295,10.195 3.810 C 9.738 4.704,9.455 4.967,8.765 5.143 C 8.436 5.226,8.296 5.204,7.520 4.949 C 6.938 4.757,6.875 4.744,6.500 4.746 C 6.188 4.747,6.052 4.766,5.880 4.833 C 5.388 5.026,4.908 5.544,4.755 6.048 C 4.627 6.469,4.661 6.812,4.892 7.421 C 5.129 8.045,5.181 8.343,5.122 8.722 C 5.067 9.082,4.920 9.386,4.682 9.634 C 4.500 9.824,4.259 9.979,3.593 10.335 C 3.175 10.559,2.879 10.786,2.719 11.008 C 2.578 11.203,2.400 11.737,2.400 11.966 C 2.400 12.359,2.634 12.933,2.910 13.217 C 3.107 13.419,3.292 13.540,3.858 13.836 C 4.121 13.973,4.423 14.149,4.529 14.226 C 4.913 14.508,5.127 14.963,5.129 15.500 C 5.130 15.841,5.086 16.042,4.860 16.740 C 4.781 16.981,4.706 17.283,4.693 17.410 C 4.613 18.174,5.286 19.037,6.140 19.266 C 6.487 19.358,6.657 19.334,7.360 19.095 L 8.020 18.869 8.525 18.892 C 9.069 18.915,9.165 18.945,9.512 19.198 C 9.713 19.345,9.883 19.597,10.240 20.279 C 10.556 20.882,10.810 21.175,11.171 21.353 C 11.781 21.653,12.206 21.666,12.741 21.403 C 13.190 21.182,13.412 20.954,13.676 20.440 C 14.175 19.471,14.362 19.223,14.732 19.042 C 15.242 18.793,15.723 18.806,16.623 19.094 C 17.307 19.313,17.484 19.341,17.785 19.280 C 18.169 19.201,18.434 19.053,18.743 18.743 C 19.072 18.414,19.228 18.126,19.282 17.747 C 19.328 17.421,19.294 17.230,19.059 16.514 C 18.891 15.997,18.880 15.939,18.880 15.520 C 18.880 15.107,18.888 15.059,19.000 14.835 C 19.239 14.352,19.364 14.244,20.192 13.807 C 20.891 13.438,21.103 13.274,21.291 12.956 C 21.692 12.277,21.673 11.549,21.239 10.974 C 21.032 10.700,20.824 10.549,20.200 10.221 C 19.590 9.900,19.363 9.737,19.181 9.490 C 18.927 9.145,18.871 8.928,18.890 8.380 C 18.906 7.938,18.922 7.856,19.094 7.342 C 19.197 7.036,19.292 6.691,19.306 6.577 C 19.379 5.950,18.915 5.225,18.220 4.883 C 17.961 4.756,17.913 4.746,17.541 4.743 C 17.161 4.740,17.107 4.751,16.507 4.950 C 15.745 5.203,15.550 5.231,15.202 5.141 C 14.547 4.970,14.238 4.680,13.820 3.840 C 13.408 3.012,13.154 2.742,12.620 2.566 C 12.280 2.454,11.795 2.425,11.521 2.502 M12.880 8.563 C 13.200 8.610,13.749 8.873,14.135 9.165 C 14.661 9.564,15.221 10.338,15.401 10.914 C 15.501 11.237,15.548 12.158,15.488 12.641 C 15.353 13.722,14.400 14.883,13.256 15.359 C 12.746 15.571,11.581 15.624,11.040 15.460 C 9.939 15.125,8.908 14.110,8.582 13.040 C 8.430 12.543,8.465 11.245,8.641 10.796 C 8.764 10.485,9.053 10.008,9.299 9.710 C 9.782 9.125,10.634 8.607,11.257 8.520 C 11.534 8.481,12.492 8.506,12.880 8.563 " fill="#373B4D" stroke="none" fill-rule="evenodd"></path></svg>