<svg width="24" height="24" viewBox="0 0 24 24" fill="none" xmlns="http://www.w3.org/2000/svg"><path d="M11.400 2.554 C 11.093 2.674,10.773 2.906,10.608 3.127 C 10.520 3.244,10.330 3.554,10.184 3.815 C 9.714 4.658,9.495 4.889,8.995 5.065 C 8.556 5.219,8.340 5.205,7.620 4.975 C 7.031 4.787,7.011 4.784,6.500 4.784 C 6.001 4.784,5.971 4.789,5.760 4.901 C 5.453 5.065,4.999 5.525,4.867 5.807 C 4.724 6.111,4.665 6.408,4.696 6.667 C 4.709 6.785,4.806 7.137,4.910 7.450 C 5.093 8.000,5.099 8.036,5.097 8.480 C 5.095 8.905,5.086 8.958,4.977 9.179 C 4.814 9.513,4.492 9.814,3.976 10.115 C 2.935 10.722,2.727 10.904,2.558 11.354 C 2.396 11.782,2.375 11.974,2.453 12.272 C 2.660 13.062,2.871 13.288,4.004 13.935 C 4.595 14.272,4.803 14.455,4.962 14.779 L 5.088 15.034 5.070 15.587 C 5.054 16.098,5.040 16.181,4.885 16.679 C 4.682 17.331,4.655 17.741,4.794 18.056 C 5.019 18.564,5.491 19.023,5.980 19.209 C 6.366 19.355,6.622 19.331,7.380 19.080 L 8.020 18.868 8.543 18.908 C 8.999 18.942,9.093 18.962,9.275 19.061 C 9.553 19.213,9.744 19.428,10.020 19.904 C 10.519 20.764,10.586 20.866,10.763 21.045 C 10.979 21.263,11.430 21.492,11.785 21.564 C 11.994 21.607,12.069 21.604,12.294 21.549 C 12.976 21.381,13.299 21.097,13.787 20.236 C 14.318 19.302,14.428 19.178,14.884 18.998 C 15.332 18.822,15.723 18.848,16.700 19.119 C 17.405 19.315,17.537 19.334,17.777 19.281 C 18.125 19.203,18.405 19.037,18.723 18.721 C 19.342 18.107,19.418 17.651,19.081 16.580 C 18.847 15.834,18.827 15.211,19.025 14.806 C 19.220 14.407,19.406 14.251,20.265 13.764 C 21.074 13.306,21.320 13.052,21.486 12.507 C 21.552 12.292,21.566 12.161,21.552 11.887 C 21.521 11.249,21.231 10.836,20.520 10.415 C 20.333 10.304,20.051 10.139,19.894 10.047 C 19.522 9.831,19.179 9.516,19.060 9.279 C 18.849 8.864,18.843 8.281,19.041 7.557 C 19.373 6.348,19.376 6.283,19.133 5.798 C 18.914 5.359,18.438 4.945,17.984 4.800 C 17.696 4.707,17.093 4.770,16.490 4.954 C 15.695 5.197,15.542 5.221,15.247 5.145 C 14.946 5.068,14.649 4.921,14.461 4.755 C 14.294 4.609,13.963 4.116,13.718 3.650 C 13.366 2.981,12.995 2.654,12.457 2.540 C 12.079 2.460,11.625 2.466,11.400 2.554 M13.162 8.667 C 13.350 8.732,13.653 8.874,13.836 8.982 C 14.493 9.373,15.220 10.292,15.399 10.958 C 15.535 11.463,15.517 12.684,15.366 13.122 C 15.050 14.040,14.151 14.992,13.280 15.331 C 12.867 15.492,12.583 15.536,11.940 15.538 C 11.291 15.540,10.994 15.479,10.541 15.251 C 9.728 14.841,8.921 13.967,8.658 13.210 C 8.520 12.812,8.465 12.161,8.520 11.564 C 8.568 11.034,8.648 10.757,8.858 10.381 C 9.278 9.630,9.841 9.100,10.595 8.747 C 11.035 8.541,11.182 8.520,12.041 8.535 C 12.781 8.549,12.839 8.556,13.162 8.667 " fill="#373B4D" stroke="none" fill-rule="evenodd"></path></svg>