<svg width="24" height="24" viewBox="0 0 24 24" fill="none" xmlns="http://www.w3.org/2000/svg"><path d="M11.680 3.684 C 8.883 3.723,8.014 3.767,7.778 3.881 C 7.390 4.069,7.179 4.673,7.328 5.169 C 7.387 5.366,7.679 5.697,7.888 5.804 C 7.974 5.848,8.192 5.901,8.372 5.922 C 8.553 5.942,10.334 5.972,12.332 5.986 L 15.964 6.013 16.254 5.717 C 16.589 5.373,16.688 5.190,16.712 4.870 C 16.735 4.567,16.609 4.306,16.255 3.924 L 15.993 3.640 14.966 3.646 C 14.402 3.650,12.923 3.667,11.680 3.684 M11.740 7.282 C 6.517 7.324,5.683 7.355,5.366 7.517 C 4.943 7.733,4.761 8.352,4.983 8.820 C 5.021 8.901,5.186 9.109,5.350 9.283 L 5.648 9.600 12.020 9.600 L 18.393 9.600 18.582 9.390 C 18.875 9.065,19.036 8.797,19.088 8.550 C 19.160 8.210,19.071 7.972,18.727 7.574 L 18.456 7.260 16.838 7.257 C 15.948 7.255,13.654 7.266,11.740 7.282 M9.920 10.918 L 4.060 10.940 3.860 11.059 C 3.581 11.224,2.898 11.898,2.627 12.274 L 2.400 12.589 2.400 15.536 C 2.400 18.469,2.400 18.484,2.486 18.652 C 2.800 19.270,3.525 20.019,4.084 20.302 L 4.277 20.400 12.009 20.400 L 19.740 20.400 20.115 20.155 C 20.639 19.812,20.999 19.457,21.325 18.965 L 21.600 18.548 21.599 15.704 C 21.599 14.140,21.582 12.792,21.563 12.708 C 21.474 12.324,20.876 11.612,20.243 11.137 L 19.900 10.880 17.840 10.888 C 16.707 10.892,13.143 10.906,9.920 10.918 " fill="#373B4D" stroke="none" fill-rule="evenodd"></path></svg>