<svg width="24" height="24" viewBox="0 0 24 24" fill="none" xmlns="http://www.w3.org/2000/svg"><path d="M12.960 3.668 C 11.181 3.683,8.559 3.757,8.204 3.802 C 8.020 3.825,7.820 3.869,7.760 3.900 C 7.366 4.104,7.159 4.789,7.359 5.230 C 7.479 5.495,7.791 5.782,8.045 5.860 C 8.309 5.942,10.494 5.994,13.826 5.998 L 15.993 6.000 16.260 5.711 C 16.616 5.327,16.696 5.168,16.698 4.840 C 16.700 4.510,16.601 4.305,16.250 3.921 L 15.994 3.640 15.007 3.649 C 14.464 3.654,13.543 3.663,12.960 3.668 M8.360 7.323 C 6.264 7.356,5.629 7.400,5.365 7.527 C 5.064 7.673,4.849 8.110,4.893 8.487 C 4.925 8.752,5.031 8.934,5.360 9.290 L 5.647 9.600 12.020 9.600 L 18.393 9.600 18.573 9.399 C 18.921 9.012,19.121 8.619,19.120 8.323 C 19.119 8.155,18.948 7.838,18.704 7.550 L 18.475 7.280 14.347 7.287 C 12.077 7.290,9.383 7.307,8.360 7.323 M9.997 10.918 L 4.053 10.940 3.817 11.096 C 3.521 11.292,2.839 11.974,2.589 12.325 L 2.400 12.590 2.401 15.465 C 2.401 17.046,2.418 18.408,2.437 18.492 C 2.551 18.982,3.468 19.990,4.083 20.301 L 4.277 20.400 12.009 20.400 L 19.740 20.400 20.140 20.131 C 20.629 19.802,21.019 19.415,21.350 18.932 L 21.600 18.566 21.599 15.813 C 21.599 14.299,21.582 12.946,21.562 12.807 C 21.534 12.614,21.484 12.490,21.353 12.288 C 21.138 11.957,20.597 11.404,20.196 11.106 L 19.893 10.880 17.916 10.888 C 16.829 10.892,13.265 10.906,9.997 10.918 " fill="#373B4D" stroke="none" fill-rule="evenodd"></path></svg>