<svg width="24" height="24" viewBox="0 0 24 24" fill="none" xmlns="http://www.w3.org/2000/svg"><path d="M9.954 3.678 L 7.967 3.700 7.737 3.860 C 7.577 3.972,7.470 4.086,7.384 4.240 C 7.272 4.439,7.260 4.493,7.261 4.800 C 7.262 5.100,7.276 5.165,7.380 5.354 C 7.521 5.611,7.791 5.860,7.970 5.897 C 8.263 5.957,10.229 5.997,12.993 5.999 L 15.926 6.000 16.093 5.885 C 16.383 5.685,16.628 5.391,16.697 5.158 C 16.859 4.612,16.699 4.191,16.186 3.813 L 15.951 3.640 13.946 3.648 C 12.843 3.653,11.046 3.666,9.954 3.678 M9.120 7.281 C 7.305 7.296,5.739 7.322,5.640 7.339 C 5.312 7.397,5.136 7.540,4.950 7.895 C 4.830 8.127,4.828 8.588,4.946 8.845 C 5.061 9.094,5.284 9.334,5.539 9.479 L 5.750 9.600 11.225 9.600 C 14.236 9.600,17.093 9.588,17.574 9.573 L 18.447 9.547 18.718 9.284 C 19.359 8.659,19.312 7.966,18.588 7.394 L 18.393 7.240 15.406 7.248 C 13.764 7.252,10.935 7.267,9.120 7.281 M5.940 10.919 L 4.060 10.940 3.787 11.073 C 3.303 11.310,2.798 11.858,2.518 12.451 L 2.400 12.700 2.400 15.588 L 2.400 18.476 2.600 18.869 C 2.935 19.526,3.280 19.873,3.959 20.234 L 4.269 20.400 11.973 20.400 L 19.677 20.400 20.121 20.174 C 20.733 19.863,21.051 19.547,21.371 18.931 L 21.600 18.490 21.600 15.607 L 21.600 12.724 21.392 12.312 C 21.125 11.784,20.715 11.356,20.200 11.069 L 19.860 10.880 13.840 10.889 C 10.529 10.894,6.974 10.907,5.940 10.919 " fill="#373B4D" stroke="none" fill-rule="evenodd"></path></svg>