<svg width="24" height="24" viewBox="0 0 24 24" fill="none" xmlns="http://www.w3.org/2000/svg"><path d="M10.580 3.680 C 7.695 3.709,7.869 3.689,7.559 4.026 C 7.333 4.271,7.268 4.442,7.266 4.800 C 7.264 5.023,7.285 5.148,7.348 5.286 C 7.449 5.510,7.715 5.785,7.908 5.866 C 8.121 5.955,9.770 5.997,13.080 5.999 L 15.940 6.000 16.167 5.822 C 16.291 5.724,16.451 5.560,16.522 5.457 C 16.928 4.866,16.804 4.313,16.149 3.795 L 15.953 3.640 14.546 3.647 C 13.773 3.651,11.988 3.666,10.580 3.680 M10.100 7.283 C 7.922 7.299,6.012 7.322,5.855 7.333 C 5.308 7.372,4.981 7.657,4.879 8.185 C 4.790 8.643,4.981 9.051,5.450 9.411 L 5.700 9.602 12.054 9.591 L 18.407 9.580 18.698 9.276 C 19.308 8.640,19.312 8.111,18.710 7.519 L 18.427 7.240 16.244 7.247 C 15.043 7.250,12.278 7.267,10.100 7.283 M8.500 10.919 L 4.060 10.941 3.859 11.046 C 3.332 11.324,2.940 11.720,2.590 12.327 L 2.400 12.657 2.400 15.569 L 2.400 18.482 2.525 18.731 C 2.887 19.450,3.363 19.935,4.049 20.284 L 4.278 20.400 11.984 20.400 L 19.690 20.400 20.047 20.212 C 20.702 19.867,21.067 19.502,21.412 18.847 L 21.600 18.490 21.600 15.604 L 21.600 12.717 21.495 12.509 C 21.179 11.883,20.799 11.462,20.224 11.103 L 19.868 10.880 16.404 10.888 C 14.499 10.893,10.942 10.906,8.500 10.919 " fill="#373B4D" stroke="none" fill-rule="evenodd"></path></svg>