<svg width="24" height="24" viewBox="0 0 24 24" fill="none" xmlns="http://www.w3.org/2000/svg"><path d="M10.340 3.678 C 8.453 3.696,7.961 3.711,7.884 3.754 C 7.712 3.853,7.435 4.133,7.348 4.298 C 7.234 4.515,7.228 5.069,7.338 5.280 C 7.460 5.515,7.639 5.716,7.820 5.822 C 7.988 5.921,8.017 5.924,9.146 5.961 C 9.781 5.981,11.566 5.998,13.113 5.999 L 15.926 6.000 16.095 5.883 C 16.464 5.629,16.701 5.275,16.744 4.913 C 16.792 4.502,16.619 4.160,16.199 3.833 L 15.951 3.640 14.325 3.648 C 13.431 3.652,11.638 3.666,10.340 3.678 M9.686 7.283 C 7.610 7.299,5.819 7.323,5.706 7.338 C 5.286 7.390,4.973 7.694,4.880 8.138 C 4.774 8.650,4.997 9.124,5.495 9.446 L 5.732 9.600 11.360 9.600 C 14.455 9.600,17.315 9.588,17.715 9.574 L 18.442 9.547 18.699 9.291 C 19.009 8.981,19.132 8.744,19.152 8.420 C 19.173 8.084,19.000 7.750,18.650 7.453 L 18.399 7.240 15.930 7.247 C 14.571 7.251,11.762 7.267,9.686 7.283 M7.500 10.919 L 4.060 10.940 3.830 11.057 C 3.333 11.308,2.872 11.784,2.563 12.364 L 2.400 12.669 2.400 15.576 L 2.400 18.482 2.525 18.731 C 2.903 19.486,3.335 19.924,4.069 20.295 L 4.277 20.400 11.989 20.399 L 19.700 20.398 20.076 20.199 C 20.732 19.851,21.051 19.532,21.399 18.876 L 21.598 18.500 21.599 15.600 L 21.599 12.700 21.419 12.365 C 21.085 11.743,20.755 11.402,20.141 11.043 L 19.861 10.880 15.401 10.889 C 12.947 10.893,9.392 10.907,7.500 10.919 " fill="#373B4D" stroke="none" fill-rule="evenodd"></path></svg>