<svg width="24" height="24" viewBox="0 0 24 24" fill="none" xmlns="http://www.w3.org/2000/svg"><path d="M11.460 3.685 C 8.856 3.719,8.019 3.757,7.791 3.853 C 7.615 3.926,7.382 4.232,7.322 4.468 C 7.257 4.727,7.272 5.079,7.356 5.260 C 7.448 5.458,7.718 5.731,7.913 5.824 C 7.994 5.863,8.195 5.909,8.360 5.927 C 8.525 5.945,10.300 5.971,12.304 5.985 L 15.948 6.010 16.232 5.742 C 16.585 5.409,16.720 5.157,16.720 4.832 C 16.720 4.510,16.603 4.281,16.260 3.930 L 15.977 3.640 14.919 3.646 C 14.336 3.650,12.780 3.667,11.460 3.685 M11.120 7.285 C 6.571 7.321,5.685 7.352,5.418 7.481 C 4.968 7.699,4.771 8.225,4.946 8.740 C 4.994 8.882,5.100 9.026,5.332 9.268 L 5.651 9.600 12.023 9.600 L 18.395 9.600 18.627 9.338 C 18.954 8.971,19.083 8.731,19.109 8.442 C 19.137 8.136,19.024 7.892,18.678 7.510 L 18.434 7.240 16.747 7.247 C 15.819 7.250,13.287 7.267,11.120 7.285 M9.820 10.918 L 4.060 10.940 3.872 11.051 C 3.473 11.285,2.877 11.885,2.555 12.376 L 2.400 12.612 2.400 15.556 L 2.400 18.500 2.589 18.834 C 2.902 19.389,3.578 20.048,4.108 20.315 L 4.277 20.400 11.999 20.400 L 19.721 20.400 20.082 20.177 C 20.699 19.795,21.051 19.442,21.403 18.849 L 21.600 18.518 21.600 15.617 C 21.600 12.732,21.600 12.716,21.514 12.548 C 21.255 12.039,20.785 11.519,20.213 11.110 L 19.891 10.880 17.736 10.888 C 16.550 10.892,12.988 10.906,9.820 10.918 " fill="#373B4D" stroke="none" fill-rule="evenodd"></path></svg>