<svg width="24" height="24" viewBox="0 0 24 24" fill="none" xmlns="http://www.w3.org/2000/svg"><path d="M4.874 2.558 L 3.968 2.580 3.623 2.814 C 3.107 3.165,2.856 3.436,2.610 3.907 L 2.400 4.309 2.400 11.539 L 2.400 18.769 2.661 19.274 C 2.971 19.876,3.210 20.205,3.621 20.596 C 3.978 20.935,4.352 21.186,4.833 21.409 L 5.180 21.570 5.960 21.550 C 6.621 21.532,6.780 21.516,7.000 21.442 C 8.082 21.078,8.977 20.160,9.496 18.882 L 9.600 18.626 9.600 11.452 L 9.600 4.277 9.515 4.108 C 9.267 3.617,8.664 2.976,8.174 2.685 L 7.895 2.520 6.838 2.528 C 6.256 2.532,5.372 2.545,4.874 2.558 M13.723 5.604 C 13.416 5.727,12.731 6.214,12.270 6.639 L 12.000 6.887 12.000 11.992 L 12.000 17.098 12.284 16.819 C 12.671 16.437,16.955 12.054,17.516 11.464 C 18.367 10.569,18.493 10.311,18.494 9.460 C 18.494 9.060,18.479 8.943,18.406 8.755 C 18.245 8.344,17.936 7.967,16.964 6.998 C 15.967 6.004,15.597 5.709,15.224 5.612 C 14.988 5.551,13.871 5.545,13.723 5.604 M14.500 18.000 L 10.900 21.600 15.301 21.600 L 19.702 21.600 20.016 21.421 C 20.700 21.031,21.158 20.557,21.495 19.891 L 21.600 19.683 21.600 18.000 L 21.600 16.317 21.495 16.109 C 21.170 15.465,20.622 14.889,20.134 14.678 C 19.904 14.579,18.658 14.403,18.160 14.400 C 18.127 14.400,16.480 16.020,14.500 18.000 M6.509 17.003 C 6.665 17.063,6.951 17.381,6.997 17.546 C 7.059 17.770,7.051 18.376,6.984 18.538 C 6.892 18.758,6.631 18.988,6.395 19.058 C 5.799 19.235,5.280 19.032,5.031 18.524 C 4.900 18.258,4.880 17.714,4.993 17.496 C 5.115 17.260,5.408 16.994,5.588 16.957 C 5.762 16.921,6.373 16.952,6.509 17.003 " fill="#373B4D" stroke="none" fill-rule="evenodd"></path></svg>