<svg width="24" height="24" viewBox="0 0 24 24" fill="none" xmlns="http://www.w3.org/2000/svg"><path d="M4.560 2.439 C 4.119 2.477,3.857 2.570,3.476 2.823 C 3.037 3.115,2.717 3.527,2.528 4.045 L 2.420 4.340 2.409 11.465 L 2.398 18.589 2.555 19.036 C 2.968 20.208,3.708 20.978,4.837 21.408 L 5.180 21.539 6.000 21.539 L 6.820 21.539 7.163 21.408 C 8.291 20.978,9.054 20.180,9.453 19.016 L 9.602 18.579 9.591 11.459 L 9.580 4.340 9.469 4.040 C 9.252 3.450,8.844 2.978,8.305 2.695 C 7.831 2.446,7.760 2.436,6.280 2.420 C 5.543 2.413,4.769 2.421,4.560 2.439 M14.014 5.484 C 13.508 5.568,13.135 5.801,12.443 6.464 L 12.000 6.889 12.000 11.994 L 12.000 17.100 13.764 15.340 C 16.239 12.870,18.137 10.913,18.255 10.711 C 18.519 10.255,18.628 9.511,18.505 8.991 C 18.393 8.518,18.245 8.254,17.833 7.800 C 17.341 7.257,16.050 5.999,15.829 5.847 C 15.339 5.509,14.667 5.375,14.014 5.484 M14.500 18.000 L 10.900 21.600 15.249 21.600 L 19.598 21.600 19.928 21.479 C 20.664 21.211,21.184 20.696,21.463 19.960 L 21.577 19.660 21.577 18.000 L 21.578 16.340 21.464 16.040 C 21.219 15.398,20.809 14.944,20.212 14.653 C 19.862 14.483,19.820 14.472,19.352 14.438 C 19.081 14.419,18.689 14.402,18.480 14.401 L 18.100 14.400 14.500 18.000 M6.549 16.963 C 6.978 17.171,7.160 17.490,7.160 18.032 C 7.160 18.289,7.143 18.361,7.032 18.568 C 6.572 19.431,5.349 19.382,4.914 18.483 C 4.785 18.217,4.787 17.772,4.918 17.503 C 5.224 16.874,5.902 16.650,6.549 16.963 " fill="#373B4D" stroke="none" fill-rule="evenodd"></path></svg>