<svg width="24" height="24" viewBox="0 0 24 24" fill="none" xmlns="http://www.w3.org/2000/svg"><path d="M4.437 2.514 C 4.020 2.540,4.011 2.542,3.687 2.738 C 3.108 3.088,2.769 3.476,2.531 4.060 L 2.401 4.380 2.401 11.509 L 2.400 18.638 2.520 18.940 C 3.030 20.223,3.640 20.879,4.804 21.392 L 5.140 21.540 5.839 21.553 C 6.661 21.569,6.891 21.533,7.352 21.318 C 7.850 21.086,8.194 20.839,8.566 20.448 C 8.945 20.048,9.196 19.636,9.441 19.012 L 9.601 18.604 9.590 11.412 L 9.580 4.220 9.381 3.860 C 9.112 3.374,8.624 2.882,8.200 2.670 L 7.900 2.520 6.380 2.504 C 5.544 2.495,4.670 2.499,4.437 2.514 M13.940 5.519 C 13.561 5.575,13.030 5.923,12.350 6.559 L 12.000 6.887 12.000 11.993 L 12.000 17.099 12.784 16.320 C 14.089 15.021,17.261 11.777,17.749 11.242 C 18.385 10.544,18.521 10.246,18.519 9.542 C 18.518 8.628,18.317 8.288,16.998 6.968 C 16.241 6.210,15.764 5.813,15.420 5.656 C 15.075 5.498,14.468 5.442,13.940 5.519 M14.500 17.998 L 10.900 21.600 15.288 21.600 L 19.676 21.600 20.088 21.391 C 20.431 21.218,20.557 21.125,20.841 20.841 C 21.125 20.557,21.218 20.431,21.391 20.088 L 21.600 19.676 21.600 18.000 L 21.600 16.324 21.392 15.912 C 21.222 15.576,21.125 15.441,20.862 15.176 C 20.303 14.614,19.918 14.483,18.660 14.422 L 18.100 14.396 14.500 17.998 M6.541 16.991 C 6.890 17.171,7.070 17.465,7.108 17.917 C 7.165 18.602,6.746 19.104,6.080 19.150 C 5.394 19.197,4.876 18.698,4.876 17.990 C 4.876 17.829,4.896 17.644,4.920 17.578 C 5.030 17.287,5.312 17.007,5.585 16.919 C 5.784 16.855,6.361 16.898,6.541 16.991 " fill="#373B4D" stroke="none" fill-rule="evenodd"></path></svg>