<svg width="24" height="24" viewBox="0 0 24 24" fill="none" xmlns="http://www.w3.org/2000/svg"><path d="M5.275 2.558 L 3.970 2.580 3.736 2.740 C 3.227 3.089,2.752 3.617,2.505 4.109 L 2.400 4.317 2.401 11.549 L 2.402 18.780 2.599 19.152 C 2.913 19.744,3.150 20.073,3.559 20.484 C 3.962 20.890,4.395 21.206,4.834 21.414 L 5.100 21.540 5.840 21.538 C 6.421 21.536,6.640 21.520,6.860 21.463 C 7.865 21.201,8.771 20.359,9.387 19.113 L 9.600 18.682 9.600 11.459 L 9.600 4.236 9.379 3.900 C 9.102 3.480,8.662 3.037,8.232 2.745 L 7.900 2.520 7.240 2.527 C 6.877 2.532,5.993 2.545,5.275 2.558 M13.733 5.636 C 13.488 5.699,12.821 6.160,12.270 6.649 L 12.000 6.888 12.000 11.964 C 12.000 14.781,12.015 17.040,12.034 17.040 C 12.066 17.040,15.520 13.519,17.152 11.825 C 17.883 11.066,18.287 10.556,18.390 10.260 C 18.445 10.103,18.460 9.930,18.459 9.460 C 18.459 8.883,18.454 8.852,18.346 8.637 C 18.184 8.316,17.666 7.716,16.894 6.957 C 16.199 6.273,15.714 5.861,15.426 5.711 C 15.277 5.633,15.189 5.623,14.560 5.614 C 14.175 5.608,13.803 5.618,13.733 5.636 M16.051 16.477 C 14.890 17.619,13.256 19.239,12.420 20.077 L 10.900 21.600 15.323 21.600 L 19.745 21.600 20.094 21.362 C 20.770 20.901,21.224 20.428,21.482 19.916 L 21.600 19.682 21.600 17.997 L 21.600 16.312 21.455 16.037 C 21.301 15.742,20.915 15.265,20.646 15.035 C 20.374 14.802,20.109 14.681,19.691 14.600 C 19.283 14.522,18.410 14.400,18.252 14.400 C 18.186 14.400,17.591 14.961,16.051 16.477 M6.337 16.998 C 6.553 17.049,6.802 17.232,6.909 17.422 C 6.988 17.560,6.999 17.638,6.999 18.044 L 7.000 18.508 6.861 18.691 C 6.702 18.899,6.378 19.079,6.105 19.110 C 5.698 19.155,5.242 18.896,5.048 18.508 C 4.976 18.363,4.960 18.263,4.960 17.952 C 4.960 17.596,4.967 17.563,5.084 17.387 C 5.209 17.198,5.354 17.071,5.526 17.003 C 5.647 16.954,6.135 16.951,6.337 16.998 " fill="#373B4D" stroke="none" fill-rule="evenodd"></path></svg>