<svg width="24" height="24" viewBox="0 0 24 24" fill="none" xmlns="http://www.w3.org/2000/svg"><path d="M4.338 2.557 C 4.017 2.577,3.950 2.596,3.744 2.720 C 3.405 2.925,3.035 3.242,2.866 3.472 C 2.784 3.583,2.646 3.827,2.559 4.014 L 2.399 4.353 2.410 11.567 L 2.420 18.780 2.644 19.244 C 2.934 19.843,3.125 20.120,3.522 20.518 C 3.919 20.914,4.203 21.111,4.755 21.369 L 5.180 21.568 5.960 21.550 C 6.665 21.534,6.771 21.522,7.060 21.427 C 7.589 21.253,7.963 21.007,8.460 20.505 C 8.946 20.014,9.131 19.735,9.420 19.057 L 9.600 18.636 9.600 11.457 L 9.600 4.277 9.495 4.069 C 9.221 3.524,8.691 2.960,8.192 2.683 L 7.900 2.521 6.300 2.528 C 5.420 2.531,4.537 2.544,4.338 2.557 M13.717 5.593 C 13.348 5.742,12.721 6.200,12.210 6.694 L 12.000 6.897 12.000 11.998 L 12.000 17.099 12.723 16.380 C 13.590 15.517,17.244 11.773,17.729 11.250 C 18.338 10.594,18.476 10.308,18.509 9.640 C 18.555 8.709,18.342 8.336,17.002 7.000 C 16.115 6.115,15.805 5.857,15.400 5.666 C 15.150 5.547,15.117 5.542,14.520 5.531 C 13.991 5.521,13.873 5.530,13.717 5.593 M14.500 17.998 L 10.900 21.600 15.291 21.600 L 19.682 21.600 19.931 21.475 C 20.608 21.136,21.132 20.612,21.475 19.931 L 21.600 19.682 21.600 18.000 L 21.600 16.318 21.475 16.069 C 21.113 15.352,20.565 14.807,20.020 14.622 C 19.786 14.542,19.162 14.458,18.540 14.422 L 18.100 14.396 14.500 17.998 M6.603 17.048 C 6.953 17.253,7.099 17.583,7.072 18.115 C 7.058 18.400,7.037 18.488,6.951 18.623 C 6.726 18.978,6.440 19.131,6.000 19.134 C 5.678 19.136,5.497 19.070,5.247 18.860 C 4.977 18.633,4.813 18.035,4.915 17.656 C 4.977 17.428,5.169 17.178,5.392 17.035 C 5.575 16.917,5.590 16.914,6.000 16.927 C 6.370 16.939,6.442 16.953,6.603 17.048 " fill="#373B4D" stroke="none" fill-rule="evenodd"></path></svg>