<svg width="24" height="24" viewBox="0 0 24 24" fill="none" xmlns="http://www.w3.org/2000/svg"><path d="M5.054 2.558 L 3.968 2.580 3.674 2.778 C 3.209 3.092,2.813 3.518,2.590 3.945 L 2.400 4.310 2.400 11.536 L 2.400 18.762 2.585 19.131 C 3.141 20.243,3.854 20.959,4.870 21.429 L 5.180 21.572 5.962 21.550 C 6.662 21.530,6.776 21.517,7.035 21.427 C 8.045 21.076,8.937 20.178,9.444 19.000 L 9.600 18.639 9.600 11.458 L 9.600 4.277 9.501 4.083 C 9.376 3.835,8.979 3.341,8.709 3.096 C 8.594 2.992,8.367 2.820,8.205 2.714 L 7.910 2.520 7.025 2.528 C 6.538 2.532,5.651 2.545,5.054 2.558 M13.798 5.594 C 13.537 5.651,12.859 6.114,12.290 6.625 L 12.000 6.886 12.002 11.993 L 12.004 17.100 13.147 15.940 C 15.038 14.020,17.738 11.236,17.957 10.980 C 18.070 10.848,18.229 10.606,18.311 10.442 C 18.459 10.146,18.460 10.142,18.474 9.562 C 18.486 9.041,18.478 8.956,18.400 8.747 C 18.268 8.396,17.903 7.946,17.082 7.122 C 16.192 6.228,15.789 5.879,15.456 5.715 C 15.216 5.597,15.186 5.592,14.574 5.578 C 14.225 5.570,13.876 5.577,13.798 5.594 M14.509 17.999 L 10.900 21.597 15.308 21.599 L 19.716 21.600 19.923 21.478 C 20.678 21.033,21.164 20.546,21.484 19.911 L 21.600 19.682 21.600 18.000 L 21.600 16.318 21.484 16.089 C 21.218 15.562,20.694 14.984,20.287 14.767 C 20.154 14.696,19.919 14.620,19.720 14.583 C 19.357 14.516,18.413 14.400,18.229 14.400 C 18.136 14.400,17.559 14.958,14.509 17.999 M6.491 17.014 C 6.639 17.076,6.860 17.289,6.944 17.449 C 7.021 17.597,7.056 17.974,7.022 18.293 C 6.998 18.524,6.975 18.578,6.832 18.739 C 6.625 18.975,6.405 19.086,6.097 19.110 C 5.639 19.147,5.278 18.954,5.060 18.554 C 4.954 18.360,4.943 18.303,4.942 17.954 C 4.940 17.587,4.946 17.558,5.061 17.395 C 5.128 17.300,5.259 17.163,5.354 17.091 C 5.523 16.962,5.533 16.960,5.944 16.960 C 6.206 16.960,6.411 16.980,6.491 17.014 " fill="#373B4D" stroke="none" fill-rule="evenodd"></path></svg>