<svg width="24" height="24" viewBox="0 0 24 24" fill="none" xmlns="http://www.w3.org/2000/svg"><path d="M4.131 2.517 C 3.899 2.576,3.388 2.896,3.137 3.140 C 2.838 3.432,2.678 3.677,2.519 4.088 L 2.399 4.399 2.410 11.550 L 2.420 18.700 2.590 19.115 C 3.081 20.310,3.714 20.943,4.916 21.438 C 5.209 21.559,5.216 21.560,5.967 21.560 C 6.807 21.560,6.935 21.534,7.496 21.252 C 8.465 20.764,9.057 20.067,9.483 18.913 L 9.601 18.593 9.590 11.426 L 9.580 4.260 9.410 3.920 C 9.105 3.309,8.697 2.900,8.120 2.624 L 7.860 2.500 6.060 2.492 C 5.070 2.488,4.202 2.499,4.131 2.517 M13.870 5.523 C 13.494 5.612,12.988 5.954,12.370 6.538 L 12.000 6.888 12.001 11.994 L 12.003 17.100 14.131 14.960 C 16.660 12.417,18.025 10.993,18.236 10.677 C 18.606 10.123,18.633 9.135,18.297 8.466 C 18.138 8.151,17.808 7.768,16.980 6.939 C 15.714 5.671,15.365 5.474,14.405 5.484 C 14.193 5.486,13.952 5.504,13.870 5.523 M14.500 17.997 L 10.900 21.601 15.300 21.590 L 19.700 21.580 20.050 21.413 C 20.702 21.101,21.101 20.702,21.413 20.050 L 21.580 19.700 21.580 18.000 L 21.580 16.300 21.373 15.878 C 21.143 15.408,20.868 15.087,20.476 14.830 C 20.029 14.537,19.707 14.464,18.660 14.418 L 18.100 14.393 14.500 17.997 M6.372 16.922 C 6.624 16.986,6.894 17.201,7.002 17.425 C 7.129 17.687,7.159 18.207,7.061 18.462 C 6.883 18.930,6.334 19.244,5.851 19.155 C 5.433 19.078,5.139 18.868,4.972 18.528 C 4.819 18.217,4.815 17.759,4.962 17.465 C 5.064 17.260,5.279 17.050,5.493 16.944 C 5.642 16.871,6.121 16.859,6.372 16.922 " fill="#373B4D" stroke="none" fill-rule="evenodd"></path></svg>