<svg width="24" height="24" viewBox="0 0 24 24" fill="none" xmlns="http://www.w3.org/2000/svg"><path d="M5.337 2.558 L 3.974 2.580 3.814 2.686 C 3.309 3.020,2.834 3.524,2.557 4.020 L 2.401 4.300 2.401 11.531 L 2.400 18.762 2.556 19.073 C 3.064 20.083,3.860 20.910,4.780 21.385 L 5.140 21.570 5.881 21.545 C 6.339 21.530,6.713 21.497,6.861 21.459 C 7.859 21.201,8.760 20.356,9.404 19.072 L 9.600 18.681 9.600 11.459 L 9.600 4.237 9.410 3.949 C 9.151 3.554,8.668 3.059,8.254 2.765 L 7.910 2.520 7.305 2.528 C 6.972 2.532,6.087 2.545,5.337 2.558 M13.860 5.635 C 13.513 5.684,13.021 5.999,12.270 6.653 L 12.000 6.888 12.004 11.854 C 12.006 14.585,12.021 16.865,12.037 16.920 C 12.063 17.013,12.168 16.915,13.484 15.580 C 15.301 13.736,17.318 11.660,17.641 11.300 C 17.993 10.908,18.234 10.577,18.353 10.320 C 18.448 10.115,18.455 10.058,18.457 9.480 C 18.459 8.882,18.456 8.853,18.351 8.654 C 18.172 8.314,17.783 7.860,17.002 7.079 C 16.219 6.297,15.685 5.839,15.420 5.720 C 15.298 5.665,15.117 5.643,14.660 5.628 C 14.330 5.616,13.970 5.620,13.860 5.635 M17.474 15.093 C 17.070 15.475,15.426 17.094,13.820 18.691 L 10.900 21.596 15.320 21.598 L 19.740 21.600 20.060 21.383 C 20.714 20.939,21.203 20.439,21.460 19.954 L 21.600 19.688 21.600 18.003 L 21.600 16.317 21.502 16.123 C 21.361 15.845,20.953 15.317,20.711 15.100 C 20.308 14.737,19.931 14.613,18.782 14.462 C 18.519 14.428,18.282 14.400,18.256 14.400 C 18.229 14.400,17.878 14.712,17.474 15.093 M6.504 17.072 C 6.722 17.183,6.912 17.386,6.960 17.558 C 6.982 17.636,7.000 17.882,7.000 18.104 C 7.000 18.483,6.993 18.516,6.890 18.649 C 6.650 18.960,6.212 19.155,5.870 19.104 C 5.631 19.068,5.300 18.868,5.159 18.673 C 4.999 18.451,4.950 18.246,4.966 17.861 C 4.978 17.574,4.994 17.519,5.104 17.370 C 5.357 17.025,5.520 16.956,6.022 16.977 C 6.246 16.986,6.393 17.015,6.504 17.072 " fill="#373B4D" stroke="none" fill-rule="evenodd"></path></svg>