<svg width="24" height="24" viewBox="0 0 24 24" fill="none" xmlns="http://www.w3.org/2000/svg"><path d="M5.176 2.558 L 3.973 2.580 3.756 2.724 C 3.222 3.080,2.786 3.552,2.538 4.044 L 2.400 4.318 2.400 11.540 L 2.400 18.762 2.576 19.113 C 3.119 20.194,3.860 20.948,4.839 21.417 C 5.136 21.559,5.140 21.560,5.679 21.560 C 6.731 21.559,7.185 21.447,7.801 21.035 C 8.455 20.598,9.054 19.863,9.423 19.048 L 9.599 18.660 9.599 11.458 L 9.600 4.255 9.458 4.020 C 9.141 3.492,8.732 3.072,8.183 2.705 L 7.905 2.520 7.143 2.528 C 6.723 2.532,5.838 2.545,5.176 2.558 M13.960 5.601 C 13.817 5.613,13.637 5.656,13.560 5.696 C 13.282 5.845,12.732 6.243,12.370 6.559 L 12.000 6.882 12.000 11.981 C 12.000 14.786,12.007 17.080,12.017 17.080 C 12.036 17.080,16.224 12.796,17.295 11.680 C 18.046 10.898,18.333 10.510,18.427 10.147 C 18.500 9.866,18.496 9.068,18.421 8.814 C 18.336 8.528,18.034 8.121,17.475 7.537 C 16.371 6.382,15.646 5.759,15.280 5.648 C 15.116 5.599,14.334 5.571,13.960 5.601 M17.916 14.646 C 17.754 14.786,16.109 16.407,14.261 18.248 L 10.900 21.597 15.320 21.598 L 19.740 21.600 20.115 21.355 C 20.745 20.942,21.221 20.438,21.495 19.891 L 21.600 19.683 21.600 18.000 L 21.600 16.317 21.495 16.109 C 21.340 15.802,21.182 15.584,20.886 15.271 C 20.568 14.934,20.353 14.781,20.053 14.678 C 19.841 14.605,19.069 14.478,18.476 14.418 L 18.211 14.392 17.916 14.646 M6.414 17.003 C 6.612 17.058,6.901 17.325,6.967 17.513 C 6.996 17.596,7.019 17.839,7.019 18.067 C 7.019 18.456,7.014 18.482,6.898 18.646 C 6.642 19.011,6.211 19.181,5.773 19.089 C 5.476 19.027,5.271 18.879,5.099 18.605 C 4.963 18.387,4.960 18.374,4.960 17.957 C 4.960 17.534,4.961 17.530,5.097 17.353 C 5.223 17.187,5.373 17.059,5.520 16.993 C 5.616 16.949,6.246 16.957,6.414 17.003 " fill="#373B4D" stroke="none" fill-rule="evenodd"></path></svg>