<svg width="24" height="24" viewBox="0 0 24 24" fill="none" xmlns="http://www.w3.org/2000/svg"><path d="M4.660 2.557 L 3.980 2.580 3.760 2.715 C 3.456 2.901,3.029 3.254,2.894 3.432 C 2.831 3.513,2.695 3.747,2.590 3.951 L 2.400 4.323 2.400 11.535 L 2.400 18.748 2.619 19.195 C 2.931 19.829,3.082 20.050,3.495 20.473 C 3.914 20.902,4.234 21.128,4.788 21.387 L 5.180 21.570 5.960 21.550 C 6.678 21.532,6.767 21.521,7.073 21.419 C 8.090 21.078,8.992 20.135,9.496 18.883 L 9.600 18.626 9.600 11.449 L 9.600 4.271 9.479 4.043 C 9.186 3.494,8.658 2.949,8.136 2.657 L 7.892 2.520 6.616 2.527 C 5.914 2.531,5.034 2.545,4.660 2.557 M13.900 5.544 C 13.514 5.643,12.832 6.105,12.230 6.674 L 12.000 6.892 12.000 11.995 L 12.000 17.099 12.503 16.599 C 13.134 15.974,17.080 11.933,17.639 11.340 C 18.370 10.566,18.496 10.293,18.499 9.480 C 18.500 9.028,18.490 8.956,18.394 8.729 C 18.336 8.591,18.221 8.380,18.138 8.260 C 17.788 7.752,16.245 6.210,15.750 5.873 C 15.344 5.597,15.224 5.564,14.569 5.543 C 14.245 5.532,13.944 5.533,13.900 5.544 M14.500 17.998 L 10.900 21.600 15.300 21.599 L 19.700 21.599 19.994 21.438 C 20.671 21.070,21.147 20.579,21.494 19.891 L 21.600 19.683 21.600 18.000 L 21.600 16.317 21.495 16.109 C 21.121 15.370,20.522 14.779,19.986 14.620 C 19.753 14.550,19.046 14.457,18.480 14.420 L 18.100 14.396 14.500 17.998 M6.554 17.023 C 6.735 17.138,6.884 17.293,6.972 17.460 C 7.084 17.672,7.095 18.348,6.990 18.545 C 6.779 18.940,6.470 19.119,5.998 19.120 C 5.494 19.120,5.203 18.928,4.995 18.458 C 4.876 18.189,4.868 17.726,4.979 17.501 C 5.075 17.307,5.323 17.053,5.493 16.975 C 5.670 16.895,6.403 16.928,6.554 17.023 " fill="#373B4D" stroke="none" fill-rule="evenodd"></path></svg>