<svg width="24" height="24" viewBox="0 0 24 24" fill="none" xmlns="http://www.w3.org/2000/svg"><path d="M4.058 2.557 C 3.852 2.607,3.297 2.991,3.049 3.257 C 2.795 3.529,2.679 3.713,2.508 4.120 L 2.398 4.380 2.409 11.560 L 2.420 18.740 2.585 19.110 C 2.894 19.799,3.074 20.074,3.500 20.503 C 3.930 20.937,4.186 21.111,4.797 21.387 L 5.180 21.560 5.860 21.559 C 6.643 21.559,6.933 21.510,7.371 21.308 C 7.816 21.102,8.141 20.868,8.520 20.480 C 8.915 20.074,9.168 19.675,9.420 19.058 L 9.599 18.620 9.600 11.449 L 9.600 4.277 9.495 4.069 C 9.173 3.431,8.689 2.927,8.131 2.645 L 7.882 2.520 6.031 2.524 C 5.013 2.526,4.125 2.541,4.058 2.557 M13.980 5.517 C 13.582 5.581,12.999 5.956,12.330 6.580 L 12.000 6.887 12.000 11.993 L 12.000 17.099 12.903 16.200 C 14.073 15.034,17.516 11.502,17.837 11.140 C 18.365 10.543,18.480 10.291,18.510 9.674 C 18.557 8.676,18.332 8.289,16.874 6.859 C 15.961 5.964,15.625 5.708,15.200 5.583 C 14.943 5.507,14.267 5.471,13.980 5.517 M14.500 17.998 L 10.900 21.600 15.294 21.600 L 19.687 21.600 20.035 21.421 C 20.646 21.105,21.105 20.646,21.421 20.035 L 21.600 19.687 21.600 18.003 L 21.600 16.318 21.445 16.009 C 21.161 15.446,20.771 15.012,20.304 14.741 C 19.988 14.558,19.526 14.473,18.560 14.421 L 18.100 14.396 14.500 17.998 M6.442 16.961 C 6.654 17.018,6.895 17.245,7.001 17.488 C 7.127 17.776,7.133 18.260,7.015 18.520 C 6.789 19.018,6.218 19.264,5.662 19.102 C 5.351 19.012,5.048 18.716,4.949 18.405 C 4.872 18.166,4.860 17.814,4.920 17.597 C 4.992 17.339,5.355 16.983,5.615 16.916 C 5.759 16.879,6.233 16.904,6.442 16.961 " fill="#373B4D" stroke="none" fill-rule="evenodd"></path></svg>