<svg width="14" height="14" viewBox="0 0 14 14" fill="none" xmlns="http://www.w3.org/2000/svg"><path d="M6.662 0.622 C 6.482 0.651,6.204 0.731,6.037 0.803 C 5.795 0.908,5.652 0.997,5.388 1.206 C 4.981 1.526,4.525 1.709,3.969 1.772 C 3.384 1.839,2.925 2.053,2.510 2.451 C 2.053 2.890,1.836 3.360,1.751 4.095 C 1.697 4.563,1.531 4.951,1.191 5.402 C 0.772 5.957,0.607 6.409,0.607 7.000 C 0.607 7.591,0.772 8.043,1.191 8.598 C 1.531 9.049,1.697 9.437,1.751 9.905 C 1.835 10.637,2.049 11.102,2.503 11.542 C 2.949 11.975,3.381 12.167,4.095 12.249 C 4.563 12.303,4.951 12.469,5.402 12.809 C 5.957 13.228,6.409 13.393,7.000 13.393 C 7.591 13.393,8.043 13.228,8.598 12.809 C 9.049 12.469,9.437 12.303,9.905 12.249 C 10.619 12.167,11.051 11.975,11.497 11.542 C 11.951 11.102,12.165 10.637,12.249 9.905 C 12.303 9.437,12.469 9.049,12.809 8.598 C 13.228 8.043,13.393 7.591,13.393 7.000 C 13.393 6.409,13.228 5.957,12.809 5.402 C 12.469 4.951,12.303 4.563,12.249 4.095 C 12.164 3.360,11.947 2.890,11.490 2.451 C 11.075 2.053,10.616 1.839,10.031 1.772 C 9.475 1.709,9.019 1.526,8.612 1.206 C 8.254 0.922,7.969 0.774,7.594 0.676 C 7.411 0.627,6.835 0.594,6.662 0.622 M9.732 4.681 C 9.893 4.753,10.060 4.920,10.134 5.082 C 10.173 5.167,10.184 5.237,10.185 5.390 C 10.185 5.757,10.308 5.610,8.403 7.521 C 7.471 8.456,6.670 9.246,6.624 9.276 C 6.487 9.364,6.289 9.411,6.129 9.395 C 5.837 9.364,5.809 9.342,4.846 8.381 C 3.821 7.358,3.815 7.350,3.815 7.000 C 3.815 6.835,3.825 6.780,3.876 6.672 C 3.959 6.494,4.056 6.391,4.228 6.298 C 4.366 6.223,4.389 6.218,4.597 6.218 C 4.936 6.218,4.969 6.240,5.637 6.909 L 6.195 7.467 7.548 6.116 C 8.385 5.281,8.943 4.742,9.010 4.704 C 9.223 4.582,9.492 4.574,9.732 4.681 " fill="#C3C3C6" stroke="none" fill-rule="evenodd"></path></svg>