<svg width="24" height="24" viewBox="0 0 24 24" fill="none" xmlns="http://www.w3.org/2000/svg"><path d="M8.920 3.470 C 4.399 6.061,3.607 6.537,3.384 6.803 C 3.324 6.874,3.213 7.055,3.137 7.205 L 3.000 7.478 3.000 12.000 L 3.000 16.522 3.140 16.799 C 3.216 16.951,3.338 17.143,3.410 17.225 C 3.632 17.480,4.349 17.915,8.220 20.148 C 10.525 21.477,11.067 21.770,11.460 21.902 C 12.018 22.089,12.244 22.026,13.459 21.350 C 15.330 20.310,19.178 18.054,19.901 17.575 C 20.287 17.319,20.423 17.181,20.615 16.848 L 20.760 16.596 20.760 12.017 L 20.760 7.438 20.635 7.191 C 20.386 6.698,20.128 6.518,17.360 4.911 C 16.469 4.394,15.002 3.548,14.100 3.031 L 12.460 2.091 11.940 2.064 L 11.420 2.038 8.920 3.470 M12.878 6.204 C 13.852 6.303,15.095 6.927,15.973 7.757 C 16.306 8.071,16.960 8.900,16.960 9.007 C 16.960 9.043,16.496 9.330,15.390 9.978 L 14.520 10.488 14.041 10.029 C 13.268 9.289,12.849 9.113,11.840 9.105 C 11.307 9.101,11.237 9.109,10.970 9.207 C 10.368 9.426,9.735 9.923,9.386 10.452 C 9.302 10.580,9.176 10.832,9.107 11.012 C 8.985 11.331,8.981 11.358,8.982 11.980 C 8.982 12.576,8.990 12.642,9.094 12.940 C 9.229 13.329,9.335 13.515,9.602 13.835 C 9.988 14.297,10.501 14.653,11.031 14.826 C 11.151 14.865,11.440 14.896,11.820 14.909 C 12.395 14.928,12.433 14.925,12.740 14.820 C 13.266 14.642,13.541 14.466,13.985 14.023 C 14.208 13.802,14.399 13.594,14.408 13.563 C 14.430 13.489,14.936 13.755,16.113 14.457 C 16.750 14.837,16.960 14.981,16.943 15.027 C 16.898 15.143,16.516 15.670,16.258 15.971 C 15.149 17.267,13.121 18.060,11.370 17.883 C 9.633 17.708,8.080 16.814,7.086 15.417 C 6.807 15.025,6.438 14.301,6.232 13.740 L 6.100 13.380 6.100 12.020 L 6.100 10.660 6.247 10.234 C 6.576 9.286,7.021 8.578,7.739 7.859 C 8.383 7.215,8.985 6.809,9.740 6.508 C 10.202 6.324,10.664 6.198,11.019 6.160 C 11.344 6.125,12.328 6.148,12.878 6.204 M17.160 11.340 L 17.160 11.680 17.480 11.680 L 17.800 11.680 17.800 12.000 L 17.800 12.320 17.480 12.320 L 17.160 12.320 17.160 12.660 L 17.160 13.000 16.820 13.000 L 16.480 13.000 16.480 12.660 L 16.480 12.320 16.160 12.320 L 15.840 12.320 15.840 12.000 L 15.840 11.680 16.160 11.680 L 16.480 11.680 16.480 11.340 L 16.480 11.000 16.820 11.000 L 17.160 11.000 17.160 11.340 M19.608 11.330 L 19.620 11.660 19.950 11.672 L 20.280 11.683 20.280 12.002 L 20.280 12.320 20.065 12.320 C 19.947 12.320,19.794 12.331,19.725 12.345 L 19.600 12.370 19.600 12.685 L 19.600 13.000 19.280 13.000 L 18.960 13.000 18.960 12.660 L 18.960 12.320 18.640 12.320 L 18.320 12.320 18.320 12.000 L 18.320 11.680 18.640 11.680 L 18.960 11.680 18.960 11.340 L 18.960 11.000 19.278 11.000 L 19.597 11.000 19.608 11.330 " fill="#373B4D" stroke="none" fill-rule="evenodd"></path></svg>