<svg width="24" height="24" viewBox="0 0 24 24" fill="none" xmlns="http://www.w3.org/2000/svg"><path d="M11.060 2.247 C 8.414 3.754,6.760 4.703,5.684 5.331 C 3.393 6.667,3.424 6.645,3.158 7.175 L 3.000 7.489 3.000 11.995 L 3.000 16.500 3.115 16.742 C 3.381 17.304,3.401 17.322,4.602 18.041 C 5.510 18.585,9.361 20.813,10.252 21.309 C 11.830 22.189,11.935 22.196,13.218 21.485 C 15.075 20.455,19.214 18.036,19.883 17.590 C 20.370 17.265,20.380 17.255,20.568 16.922 L 20.760 16.583 20.760 12.011 L 20.760 7.438 20.639 7.198 C 20.388 6.701,20.223 6.579,18.260 5.433 C 16.989 4.690,15.429 3.789,13.568 2.723 L 12.435 2.074 11.928 2.058 L 11.420 2.042 11.060 2.247 M12.341 6.158 C 13.068 6.193,13.253 6.226,13.805 6.421 C 14.928 6.817,15.874 7.507,16.603 8.460 C 16.738 8.636,16.875 8.833,16.909 8.897 C 16.965 9.005,16.964 9.019,16.895 9.070 C 16.729 9.193,14.553 10.480,14.510 10.480 C 14.502 10.480,14.280 10.268,14.018 10.008 C 13.610 9.605,13.490 9.512,13.200 9.370 C 12.774 9.161,12.619 9.125,12.014 9.094 C 11.433 9.063,11.144 9.110,10.726 9.303 C 9.951 9.660,9.328 10.332,9.080 11.077 C 8.832 11.821,8.934 12.807,9.327 13.471 C 9.510 13.780,9.999 14.287,10.295 14.473 C 10.846 14.821,11.218 14.925,11.917 14.927 C 12.357 14.928,12.461 14.915,12.732 14.824 C 13.185 14.672,13.465 14.518,13.768 14.254 C 14.046 14.012,14.400 13.621,14.400 13.557 C 14.400 13.469,14.568 13.551,15.487 14.086 C 16.603 14.735,16.960 14.955,16.960 14.996 C 16.960 15.050,16.574 15.602,16.338 15.886 C 15.529 16.857,14.236 17.581,12.880 17.821 C 10.209 18.293,7.520 16.820,6.454 14.301 C 6.361 14.081,6.235 13.738,6.173 13.540 C 6.063 13.182,6.062 13.174,6.061 12.020 C 6.060 10.870,6.061 10.857,6.171 10.471 C 6.465 9.441,6.991 8.567,7.784 7.790 C 8.527 7.062,9.368 6.568,10.328 6.297 C 10.945 6.123,11.226 6.104,12.341 6.158 M17.160 11.340 L 17.160 11.680 17.480 11.680 L 17.800 11.680 17.800 12.000 L 17.800 12.320 17.480 12.320 L 17.160 12.320 17.160 12.660 L 17.160 13.000 16.820 13.000 L 16.480 13.000 16.480 12.660 L 16.480 12.320 16.160 12.320 L 15.840 12.320 15.840 12.000 L 15.840 11.680 16.160 11.680 L 16.480 11.680 16.480 11.340 L 16.480 11.000 16.820 11.000 L 17.160 11.000 17.160 11.340 M19.608 11.330 L 19.620 11.660 19.950 11.672 L 20.280 11.683 20.280 12.002 L 20.280 12.320 20.065 12.320 C 19.947 12.320,19.794 12.331,19.725 12.345 L 19.600 12.370 19.600 12.685 L 19.600 13.000 19.280 13.000 L 18.960 13.000 18.960 12.660 L 18.960 12.320 18.640 12.320 L 18.320 12.320 18.320 12.000 L 18.320 11.680 18.640 11.680 L 18.960 11.680 18.960 11.340 L 18.960 11.000 19.278 11.000 L 19.597 11.000 19.608 11.330 " fill="#373B4D" stroke="none" fill-rule="evenodd"></path></svg>