<svg width="24" height="24" viewBox="0 0 24 24" fill="none" xmlns="http://www.w3.org/2000/svg"><path d="M9.038 3.404 C 5.080 5.674,4.088 6.260,3.609 6.610 C 3.395 6.766,3.292 6.900,3.105 7.269 L 3.000 7.477 3.000 12.000 L 3.000 16.522 3.116 16.751 C 3.434 17.377,3.466 17.399,7.420 19.687 C 11.280 21.921,11.612 22.082,12.140 21.964 C 12.261 21.936,12.553 21.819,12.790 21.702 C 13.872 21.169,19.452 17.911,20.092 17.438 C 20.295 17.289,20.415 17.158,20.562 16.928 L 20.760 16.620 20.760 12.026 L 20.760 7.431 20.634 7.194 C 20.383 6.724,20.035 6.476,17.799 5.171 C 17.085 4.754,15.591 3.890,14.480 3.252 L 12.460 2.092 11.938 2.066 L 11.417 2.041 9.038 3.404 M13.260 6.273 C 14.074 6.450,15.056 6.962,15.786 7.591 C 16.088 7.850,16.591 8.428,16.831 8.788 C 16.974 9.003,16.975 9.010,16.899 9.068 C 16.828 9.121,15.191 10.101,14.709 10.379 L 14.518 10.489 14.169 10.153 C 13.688 9.690,13.427 9.490,13.100 9.335 C 12.736 9.162,12.368 9.109,11.666 9.127 C 11.110 9.142,11.095 9.145,10.786 9.290 C 10.086 9.621,9.502 10.174,9.215 10.779 C 8.999 11.236,8.940 11.594,8.977 12.233 C 9.027 13.086,9.370 13.728,10.078 14.293 C 10.673 14.767,11.155 14.919,12.063 14.920 C 12.815 14.920,13.549 14.539,14.188 13.816 C 14.312 13.675,14.437 13.560,14.465 13.560 C 14.536 13.560,15.025 13.821,15.760 14.250 C 16.618 14.752,16.920 14.955,16.920 15.034 C 16.920 15.129,16.342 15.893,16.038 16.200 C 14.748 17.504,12.634 18.159,10.851 17.807 C 9.245 17.490,7.864 16.586,7.020 15.300 C 6.767 14.915,6.438 14.267,6.255 13.792 L 6.120 13.443 6.120 12.025 L 6.120 10.606 6.244 10.253 C 6.616 9.191,7.167 8.374,8.054 7.570 C 8.770 6.921,9.697 6.439,10.652 6.220 C 11.035 6.132,12.774 6.167,13.260 6.273 M17.160 11.340 L 17.160 11.680 17.480 11.680 L 17.800 11.680 17.800 12.000 L 17.800 12.320 17.480 12.320 L 17.160 12.320 17.160 12.660 L 17.160 13.000 16.820 13.000 L 16.480 13.000 16.480 12.660 L 16.480 12.320 16.160 12.320 L 15.840 12.320 15.840 12.000 L 15.840 11.680 16.160 11.680 L 16.480 11.680 16.480 11.340 L 16.480 11.000 16.820 11.000 L 17.160 11.000 17.160 11.340 M19.608 11.330 L 19.620 11.660 19.950 11.672 L 20.280 11.683 20.280 12.002 L 20.280 12.320 20.065 12.320 C 19.947 12.320,19.794 12.331,19.725 12.345 L 19.600 12.370 19.600 12.685 L 19.600 13.000 19.280 13.000 L 18.960 13.000 18.960 12.660 L 18.960 12.320 18.640 12.320 L 18.320 12.320 18.320 12.000 L 18.320 11.680 18.640 11.680 L 18.960 11.680 18.960 11.340 L 18.960 11.000 19.278 11.000 L 19.597 11.000 19.608 11.330 " fill="#373B4D" stroke="none" fill-rule="evenodd"></path></svg>