<svg width="24" height="24" viewBox="0 0 24 24" fill="none" xmlns="http://www.w3.org/2000/svg"><path d="M4.013 4.958 C 3.592 5.109,3.016 5.596,2.739 6.035 C 2.488 6.434,2.434 6.690,2.410 7.590 L 2.389 8.400 12.001 8.400 L 21.613 8.400 21.588 7.690 C 21.561 6.921,21.494 6.473,21.363 6.196 C 21.180 5.807,20.612 5.248,20.202 5.053 C 20.082 4.997,19.866 4.935,19.722 4.916 C 19.578 4.898,16.031 4.883,11.840 4.883 C 4.504 4.883,4.212 4.886,4.013 4.958 M2.400 14.052 L 2.400 17.304 2.554 17.622 C 2.878 18.288,3.268 18.678,3.936 19.006 L 4.333 19.200 12.036 19.199 L 19.740 19.199 20.077 19.018 C 20.734 18.665,21.105 18.284,21.416 17.640 L 21.580 17.300 21.591 14.050 L 21.601 10.800 12.001 10.800 L 2.400 10.800 2.400 14.052 M7.845 14.625 C 7.947 14.699,8.100 14.861,8.185 14.985 C 8.336 15.204,8.340 15.218,8.338 15.555 C 8.337 15.745,8.313 15.968,8.284 16.052 C 8.219 16.243,7.874 16.601,7.638 16.721 C 7.464 16.810,7.440 16.811,6.600 16.787 C 6.127 16.774,5.675 16.744,5.595 16.721 C 5.396 16.664,5.120 16.410,4.985 16.162 C 4.824 15.866,4.793 15.410,4.917 15.167 C 5.016 14.971,5.236 14.717,5.416 14.588 C 5.572 14.478,5.969 14.448,6.960 14.473 L 7.660 14.491 7.845 14.625 M12.645 14.625 C 12.747 14.699,12.900 14.861,12.985 14.985 C 13.136 15.204,13.140 15.218,13.138 15.555 C 13.137 15.745,13.113 15.968,13.084 16.052 C 13.019 16.243,12.674 16.601,12.438 16.721 C 12.264 16.810,12.240 16.811,11.400 16.787 C 10.927 16.774,10.475 16.744,10.395 16.721 C 10.196 16.664,9.920 16.410,9.785 16.162 C 9.624 15.866,9.593 15.410,9.717 15.167 C 9.816 14.971,10.036 14.717,10.216 14.588 C 10.372 14.478,10.769 14.448,11.760 14.473 L 12.460 14.491 12.645 14.625 " fill="#373B4D" stroke="none" fill-rule="evenodd"></path></svg>