<svg width="24" height="24" viewBox="0 0 24 24" fill="none" xmlns="http://www.w3.org/2000/svg"><path d="M6.200 4.959 C 5.001 4.975,3.975 5.002,3.920 5.020 C 3.624 5.116,2.805 5.880,2.647 6.206 C 2.512 6.484,2.440 6.948,2.412 7.710 L 2.387 8.400 11.994 8.400 L 21.600 8.400 21.600 8.070 C 21.600 7.583,21.525 6.873,21.439 6.535 C 21.347 6.178,21.173 5.902,20.830 5.572 C 20.507 5.263,20.171 5.048,19.930 4.998 C 19.692 4.949,9.250 4.919,6.200 4.959 M2.400 14.070 L 2.400 17.340 2.586 17.669 C 2.909 18.242,3.484 18.780,4.109 19.095 L 4.317 19.200 12.025 19.200 L 19.733 19.200 19.997 19.056 C 20.566 18.744,21.067 18.237,21.422 17.614 L 21.600 17.302 21.600 14.051 L 21.600 10.800 12.000 10.800 L 2.400 10.800 2.400 14.070 M7.882 14.670 C 8.207 15.037,8.253 15.134,8.272 15.493 C 8.296 15.962,8.241 16.124,7.955 16.422 C 7.638 16.752,7.536 16.780,6.660 16.780 C 6.070 16.780,5.943 16.768,5.700 16.691 C 5.357 16.583,5.160 16.426,5.024 16.152 C 4.934 15.971,4.920 15.894,4.920 15.556 L 4.920 15.167 5.077 14.968 C 5.247 14.754,5.402 14.629,5.560 14.579 C 5.696 14.536,6.415 14.494,7.127 14.486 L 7.713 14.480 7.882 14.670 M12.682 14.670 C 13.007 15.037,13.053 15.134,13.072 15.493 C 13.096 15.962,13.041 16.124,12.755 16.422 C 12.438 16.752,12.336 16.780,11.460 16.780 C 10.870 16.780,10.743 16.768,10.500 16.691 C 10.157 16.583,9.960 16.426,9.824 16.152 C 9.734 15.971,9.720 15.894,9.720 15.556 L 9.720 15.167 9.877 14.968 C 10.047 14.754,10.202 14.629,10.360 14.579 C 10.496 14.536,11.215 14.494,11.927 14.486 L 12.513 14.480 12.682 14.670 " fill="#373B4D" stroke="none" fill-rule="evenodd"></path></svg>