<svg width="24" height="24" viewBox="0 0 24 24" fill="none" xmlns="http://www.w3.org/2000/svg"><path d="M6.940 5.038 C 4.013 5.059,3.853 5.064,3.720 5.136 C 3.531 5.239,2.750 6.036,2.667 6.210 C 2.511 6.540,2.400 7.302,2.400 8.050 L 2.400 8.400 12.000 8.400 L 21.600 8.400 21.600 8.022 C 21.600 7.549,21.505 6.809,21.400 6.471 C 21.357 6.329,21.269 6.141,21.205 6.054 C 21.015 5.791,20.498 5.310,20.233 5.150 L 19.985 5.000 15.003 5.008 C 12.262 5.013,8.634 5.026,6.940 5.038 M2.409 14.092 L 2.420 17.383 2.559 17.613 C 2.845 18.085,3.674 18.874,4.123 19.101 L 4.317 19.200 12.031 19.200 L 19.745 19.200 19.980 19.058 C 20.524 18.731,20.921 18.333,21.396 17.643 L 21.600 17.346 21.600 14.073 L 21.600 10.800 11.999 10.800 L 2.399 10.800 2.409 14.092 M7.904 14.710 C 8.148 15.009,8.194 15.126,8.225 15.531 C 8.258 15.962,8.212 16.099,7.934 16.399 C 7.630 16.728,7.469 16.778,6.740 16.776 C 5.414 16.773,5.008 16.494,4.934 15.539 L 4.909 15.210 5.057 15.015 C 5.261 14.748,5.475 14.611,5.745 14.578 C 6.044 14.540,6.853 14.493,7.328 14.486 L 7.716 14.480 7.904 14.710 M12.704 14.710 C 12.948 15.009,12.994 15.126,13.025 15.531 C 13.058 15.962,13.012 16.099,12.734 16.399 C 12.430 16.728,12.269 16.778,11.540 16.776 C 10.214 16.773,9.808 16.494,9.734 15.539 L 9.709 15.210 9.857 15.015 C 10.061 14.748,10.275 14.611,10.545 14.578 C 10.844 14.540,11.653 14.493,12.128 14.486 L 12.516 14.480 12.704 14.710 " fill="#373B4D" stroke="none" fill-rule="evenodd"></path></svg>