<svg width="24" height="24" viewBox="0 0 24 24" fill="none" xmlns="http://www.w3.org/2000/svg"><path d="M3.910 5.040 C 3.850 5.058,3.715 5.136,3.610 5.213 C 3.360 5.397,2.748 6.027,2.669 6.182 C 2.514 6.484,2.400 7.267,2.400 8.030 L 2.400 8.400 12.006 8.400 L 21.612 8.400 21.587 7.810 C 21.561 7.202,21.486 6.679,21.380 6.361 C 21.245 5.957,20.662 5.351,20.171 5.105 L 19.963 5.000 11.991 5.003 C 7.607 5.005,3.971 5.022,3.910 5.040 M2.401 13.990 C 2.401 15.745,2.418 17.248,2.437 17.332 C 2.501 17.605,2.733 17.933,3.180 18.380 C 3.516 18.716,3.700 18.865,3.960 19.010 L 4.300 19.200 12.011 19.200 L 19.723 19.200 19.912 19.104 C 20.404 18.855,20.952 18.325,21.359 17.706 L 21.599 17.340 21.600 14.070 L 21.600 10.800 12.000 10.800 L 2.400 10.800 2.401 13.990 M7.898 14.690 C 8.190 15.023,8.240 15.160,8.240 15.623 C 8.240 16.011,8.237 16.026,8.101 16.228 C 7.948 16.454,7.771 16.607,7.558 16.694 C 7.203 16.840,5.949 16.804,5.560 16.636 C 5.314 16.530,5.070 16.266,4.983 16.011 C 4.946 15.902,4.920 15.691,4.920 15.498 C 4.920 15.176,4.923 15.167,5.079 14.970 C 5.260 14.744,5.353 14.674,5.574 14.602 C 5.735 14.549,6.502 14.497,7.267 14.486 L 7.714 14.480 7.898 14.690 M12.698 14.690 C 12.990 15.023,13.040 15.160,13.040 15.623 C 13.040 16.011,13.037 16.026,12.901 16.228 C 12.748 16.454,12.571 16.607,12.358 16.694 C 12.003 16.840,10.749 16.804,10.360 16.636 C 10.114 16.530,9.870 16.266,9.783 16.011 C 9.746 15.902,9.720 15.691,9.720 15.498 C 9.720 15.176,9.723 15.167,9.879 14.970 C 10.060 14.744,10.153 14.674,10.374 14.602 C 10.535 14.549,11.302 14.497,12.067 14.486 L 12.514 14.480 12.698 14.690 " fill="#373B4D" stroke="none" fill-rule="evenodd"></path></svg>