<svg width="24" height="24" viewBox="0 0 24 24" fill="none" xmlns="http://www.w3.org/2000/svg"><path d="M4.555 4.997 L 3.889 5.020 3.656 5.180 C 3.325 5.408,2.750 5.994,2.650 6.207 C 2.519 6.487,2.439 6.997,2.412 7.730 L 2.388 8.400 12.000 8.400 L 21.612 8.400 21.588 7.810 C 21.562 7.159,21.482 6.635,21.361 6.312 C 21.205 5.898,20.643 5.325,20.160 5.088 L 19.940 4.980 12.580 4.977 C 8.532 4.975,4.921 4.984,4.555 4.997 M2.400 14.062 C 2.400 17.314,2.400 17.324,2.485 17.492 C 2.800 18.112,3.411 18.727,4.043 19.059 L 4.312 19.200 12.017 19.200 L 19.723 19.200 19.911 19.103 C 20.462 18.821,20.988 18.310,21.381 17.675 L 21.600 17.321 21.600 14.060 L 21.600 10.800 12.000 10.800 L 2.400 10.800 2.400 14.062 M7.900 14.690 C 8.204 15.034,8.254 15.162,8.257 15.600 C 8.260 15.944,8.250 15.997,8.151 16.166 C 8.008 16.409,7.711 16.668,7.504 16.728 C 7.241 16.805,6.030 16.793,5.760 16.710 C 5.387 16.596,5.187 16.442,5.045 16.158 C 4.932 15.931,4.920 15.872,4.920 15.539 L 4.920 15.170 5.084 14.965 C 5.358 14.620,5.502 14.560,6.148 14.523 C 6.451 14.506,6.928 14.489,7.207 14.486 L 7.714 14.480 7.900 14.690 M12.700 14.690 C 13.004 15.034,13.054 15.162,13.057 15.600 C 13.060 15.944,13.050 15.997,12.951 16.166 C 12.808 16.409,12.511 16.668,12.304 16.728 C 12.041 16.805,10.830 16.793,10.560 16.710 C 10.187 16.596,9.987 16.442,9.845 16.158 C 9.732 15.931,9.720 15.872,9.720 15.539 L 9.720 15.170 9.884 14.965 C 10.158 14.620,10.302 14.560,10.948 14.523 C 11.251 14.506,11.728 14.489,12.007 14.486 L 12.514 14.480 12.700 14.690 " fill="#373B4D" stroke="none" fill-rule="evenodd"></path></svg>