<svg width="24" height="24" viewBox="0 0 24 24" fill="none" xmlns="http://www.w3.org/2000/svg"><path d="M4.620 4.961 C 4.268 4.976,3.928 5.010,3.864 5.036 C 3.554 5.161,2.768 5.922,2.633 6.227 C 2.500 6.527,2.441 6.914,2.414 7.670 L 2.387 8.400 12.000 8.400 L 21.613 8.400 21.586 7.766 C 21.555 7.015,21.475 6.508,21.341 6.225 C 21.163 5.850,20.684 5.364,20.242 5.110 C 20.037 4.993,19.992 4.984,19.462 4.955 C 18.764 4.918,5.498 4.923,4.620 4.961 M2.400 14.061 L 2.400 17.322 2.517 17.551 C 2.843 18.192,3.402 18.741,4.069 19.075 L 4.318 19.200 12.020 19.200 L 19.722 19.200 19.951 19.084 C 20.567 18.773,21.151 18.171,21.494 17.491 L 21.600 17.283 21.600 14.041 L 21.600 10.800 12.000 10.800 L 2.400 10.800 2.400 14.061 M7.928 14.720 C 8.250 15.085,8.280 15.160,8.280 15.591 C 8.280 16.040,8.237 16.155,7.967 16.433 C 7.675 16.733,7.561 16.771,6.914 16.792 C 5.973 16.821,5.459 16.704,5.181 16.396 C 4.963 16.154,4.907 15.989,4.903 15.577 C 4.900 15.250,4.910 15.199,5.005 15.057 C 5.140 14.854,5.308 14.689,5.459 14.609 C 5.605 14.533,6.094 14.495,7.028 14.486 L 7.715 14.480 7.928 14.720 M12.728 14.720 C 13.050 15.085,13.080 15.160,13.080 15.591 C 13.080 16.040,13.037 16.155,12.767 16.433 C 12.475 16.733,12.361 16.771,11.714 16.792 C 10.773 16.821,10.259 16.704,9.981 16.396 C 9.763 16.154,9.707 15.989,9.703 15.577 C 9.700 15.250,9.710 15.199,9.805 15.057 C 9.940 14.854,10.108 14.689,10.259 14.609 C 10.405 14.533,10.894 14.495,11.828 14.486 L 12.515 14.480 12.728 14.720 " fill="#373B4D" stroke="none" fill-rule="evenodd"></path></svg>