<svg width="24" height="24" viewBox="0 0 24 24" fill="none" xmlns="http://www.w3.org/2000/svg"><path d="M7.300 4.918 C 3.656 4.946,3.965 4.918,3.509 5.268 C 3.157 5.539,2.794 5.921,2.666 6.156 C 2.504 6.454,2.443 6.814,2.414 7.650 L 2.387 8.400 12.000 8.400 L 21.613 8.400 21.585 7.730 C 21.554 6.956,21.487 6.530,21.350 6.231 C 21.158 5.813,20.640 5.303,20.156 5.058 C 19.992 4.975,19.896 4.961,19.355 4.942 C 18.340 4.907,10.768 4.892,7.300 4.918 M2.400 14.061 L 2.400 17.322 2.516 17.551 C 2.865 18.237,3.350 18.713,4.069 19.075 L 4.318 19.200 12.020 19.200 L 19.723 19.200 19.931 19.095 C 20.583 18.768,21.136 18.200,21.495 17.491 L 21.600 17.283 21.600 14.041 L 21.600 10.800 12.000 10.800 L 2.400 10.800 2.400 14.061 M7.940 14.730 C 8.278 15.102,8.301 15.157,8.296 15.600 C 8.292 16.044,8.248 16.156,7.962 16.442 C 7.652 16.752,7.580 16.776,6.935 16.793 C 5.633 16.826,5.166 16.639,4.938 15.995 C 4.864 15.784,4.863 15.357,4.938 15.180 C 5.018 14.988,5.191 14.778,5.376 14.649 C 5.564 14.518,5.769 14.496,6.927 14.487 L 7.713 14.480 7.940 14.730 M12.740 14.730 C 13.078 15.102,13.101 15.157,13.096 15.600 C 13.092 16.044,13.048 16.156,12.762 16.442 C 12.452 16.752,12.380 16.776,11.735 16.793 C 10.433 16.826,9.966 16.639,9.738 15.995 C 9.664 15.784,9.663 15.357,9.738 15.180 C 9.818 14.988,9.991 14.778,10.176 14.649 C 10.364 14.518,10.569 14.496,11.727 14.487 L 12.513 14.480 12.740 14.730 " fill="#373B4D" stroke="none" fill-rule="evenodd"></path></svg>