<svg width="24" height="24" viewBox="0 0 24 24" fill="none" xmlns="http://www.w3.org/2000/svg"><path d="M5.140 5.039 C 3.983 5.058,3.847 5.067,3.720 5.136 C 3.496 5.257,2.730 6.047,2.641 6.248 C 2.520 6.522,2.436 7.080,2.411 7.770 L 2.389 8.400 11.994 8.400 L 21.600 8.400 21.600 8.084 C 21.600 7.380,21.470 6.532,21.312 6.208 C 21.181 5.939,20.521 5.290,20.214 5.129 L 19.969 5.000 13.194 5.009 C 9.468 5.014,5.844 5.027,5.140 5.039 M2.408 14.070 L 2.420 17.340 2.537 17.580 C 2.709 17.934,3.591 18.810,4.000 19.034 L 4.300 19.199 12.011 19.199 L 19.723 19.200 19.917 19.101 C 20.183 18.967,20.670 18.569,20.915 18.286 C 21.027 18.157,21.226 17.893,21.359 17.698 L 21.600 17.345 21.600 14.073 L 21.600 10.800 11.998 10.800 L 2.397 10.800 2.408 14.070 M7.892 14.690 C 8.170 15.018,8.213 15.130,8.232 15.563 C 8.247 15.896,8.238 15.968,8.163 16.115 C 8.062 16.313,7.816 16.569,7.639 16.660 C 7.420 16.774,6.850 16.820,6.303 16.768 C 5.755 16.716,5.539 16.654,5.324 16.483 C 5.074 16.285,4.957 16.018,4.932 15.589 L 4.911 15.220 5.049 15.020 C 5.206 14.792,5.383 14.658,5.606 14.598 C 5.772 14.554,6.654 14.495,7.307 14.486 L 7.714 14.480 7.892 14.690 M12.692 14.690 C 12.970 15.018,13.013 15.130,13.032 15.563 C 13.047 15.896,13.038 15.968,12.963 16.115 C 12.862 16.313,12.616 16.569,12.439 16.660 C 12.220 16.774,11.650 16.820,11.103 16.768 C 10.555 16.716,10.339 16.654,10.124 16.483 C 9.874 16.285,9.757 16.018,9.732 15.589 L 9.711 15.220 9.849 15.020 C 10.006 14.792,10.183 14.658,10.406 14.598 C 10.572 14.554,11.454 14.495,12.107 14.486 L 12.514 14.480 12.692 14.690 " fill="#373B4D" stroke="none" fill-rule="evenodd"></path></svg>