<svg width="24" height="24" viewBox="0 0 24 24" fill="none" xmlns="http://www.w3.org/2000/svg"><path d="M4.560 4.918 C 4.142 4.935,3.988 4.957,3.880 5.015 C 3.417 5.262,2.877 5.769,2.669 6.150 C 2.485 6.490,2.437 6.757,2.412 7.610 L 2.388 8.400 12.000 8.400 L 21.613 8.400 21.588 7.710 C 21.559 6.931,21.489 6.495,21.341 6.170 C 21.191 5.844,20.590 5.256,20.221 5.076 L 19.942 4.940 18.721 4.914 C 17.236 4.882,5.316 4.885,4.560 4.918 M2.400 14.064 L 2.400 17.328 2.569 17.652 C 2.896 18.281,3.295 18.675,3.950 19.012 L 4.313 19.200 12.018 19.200 L 19.723 19.200 19.931 19.095 C 20.613 18.753,21.075 18.306,21.395 17.679 L 21.600 17.276 21.600 14.038 L 21.600 10.800 12.000 10.800 L 2.400 10.800 2.400 14.064 M7.877 14.665 C 7.991 14.767,8.137 14.928,8.202 15.022 C 8.312 15.183,8.320 15.219,8.319 15.567 C 8.318 15.843,8.299 15.982,8.245 16.100 C 8.157 16.292,7.776 16.661,7.582 16.742 C 7.417 16.810,6.706 16.819,6.002 16.761 C 5.593 16.727,5.527 16.711,5.382 16.607 C 4.869 16.239,4.694 15.517,5.001 15.038 C 5.157 14.795,5.404 14.570,5.549 14.538 C 5.610 14.524,5.678 14.507,5.700 14.500 C 5.722 14.492,6.175 14.485,6.706 14.483 L 7.671 14.480 7.877 14.665 M12.677 14.665 C 12.791 14.767,12.937 14.928,13.002 15.022 C 13.112 15.183,13.120 15.219,13.119 15.567 C 13.118 15.843,13.099 15.982,13.045 16.100 C 12.957 16.292,12.576 16.661,12.382 16.742 C 12.217 16.810,11.506 16.819,10.802 16.761 C 10.393 16.727,10.327 16.711,10.182 16.607 C 9.669 16.239,9.494 15.517,9.801 15.038 C 9.957 14.795,10.204 14.570,10.349 14.538 C 10.410 14.524,10.478 14.507,10.500 14.500 C 10.522 14.492,10.975 14.485,11.506 14.483 L 12.471 14.480 12.677 14.665 " fill="#373B4D" stroke="none" fill-rule="evenodd"></path></svg>