<svg width="24" height="24" viewBox="0 0 24 24" fill="none" xmlns="http://www.w3.org/2000/svg"><path d="M5.120 4.839 C 4.223 4.862,4.169 4.867,3.933 4.967 C 3.283 5.243,2.762 5.791,2.531 6.445 C 2.434 6.718,2.425 6.801,2.409 7.570 L 2.392 8.400 11.996 8.400 L 21.600 8.400 21.599 7.730 C 21.597 6.913,21.534 6.525,21.342 6.135 C 21.102 5.651,20.507 5.121,19.994 4.937 C 19.872 4.893,19.562 4.864,18.960 4.839 C 18.028 4.800,6.657 4.800,5.120 4.839 M2.400 13.999 L 2.400 17.198 2.521 17.528 C 2.793 18.275,3.297 18.778,4.070 19.074 L 4.400 19.201 12.050 19.190 L 19.700 19.180 19.980 19.063 C 20.727 18.751,21.215 18.252,21.479 17.528 L 21.600 17.198 21.600 13.999 L 21.600 10.800 12.000 10.800 L 2.400 10.800 2.400 13.999 M7.800 14.576 C 7.953 14.668,8.072 14.785,8.190 14.958 L 8.360 15.207 8.360 15.597 C 8.360 15.983,8.358 15.991,8.206 16.224 C 8.044 16.472,7.931 16.572,7.641 16.720 C 7.469 16.807,7.437 16.809,6.562 16.792 C 5.733 16.775,5.646 16.767,5.491 16.687 C 4.969 16.417,4.684 15.769,4.858 15.245 C 4.934 15.018,5.248 14.641,5.456 14.529 C 5.636 14.432,6.002 14.405,6.840 14.425 L 7.580 14.443 7.800 14.576 M12.600 14.576 C 12.753 14.668,12.872 14.785,12.990 14.958 L 13.160 15.207 13.160 15.597 C 13.160 15.983,13.158 15.991,13.006 16.224 C 12.844 16.472,12.731 16.572,12.441 16.720 C 12.269 16.807,12.237 16.809,11.362 16.792 C 10.533 16.775,10.446 16.767,10.291 16.687 C 9.769 16.417,9.484 15.769,9.658 15.245 C 9.734 15.018,10.048 14.641,10.256 14.529 C 10.436 14.432,10.802 14.405,11.640 14.425 L 12.380 14.443 12.600 14.576 " fill="#373B4D" stroke="none" fill-rule="evenodd"></path></svg>