<svg width="24" height="24" viewBox="0 0 24 24" fill="none" xmlns="http://www.w3.org/2000/svg"><path d="M4.017 3.094 C 4.005 3.124,4.114 4.641,4.259 6.465 C 4.768 12.859,5.200 18.222,5.224 18.423 L 5.248 18.626 8.374 19.564 L 11.500 20.502 14.620 19.567 C 16.336 19.052,17.742 18.629,17.745 18.626 C 17.774 18.595,18.930 4.121,18.968 3.320 L 18.980 3.060 11.509 3.050 C 5.224 3.041,4.034 3.048,4.017 3.094 M15.830 6.506 L 16.400 6.532 16.401 6.676 C 16.401 6.755,16.353 7.227,16.294 7.724 L 16.185 8.628 14.823 9.152 C 12.904 9.889,12.343 10.125,12.407 10.165 C 12.436 10.184,13.230 10.199,14.171 10.199 L 15.882 10.200 15.861 10.290 C 15.849 10.340,15.705 11.604,15.541 13.100 C 15.377 14.596,15.232 15.880,15.219 15.953 C 15.188 16.129,15.158 16.142,13.144 16.822 L 11.509 17.375 10.684 17.102 C 9.650 16.759,7.841 16.134,7.818 16.111 C 7.754 16.047,7.455 13.129,7.507 13.077 C 7.525 13.060,7.938 13.032,8.423 13.017 L 9.307 12.988 9.398 13.484 C 9.546 14.291,9.590 14.486,9.634 14.530 C 9.658 14.554,10.086 14.711,10.587 14.880 L 11.496 15.188 12.444 14.872 L 13.392 14.556 13.417 14.388 C 13.450 14.165,13.674 12.141,13.666 12.136 C 13.663 12.133,12.301 12.112,10.640 12.089 C 8.979 12.065,7.590 12.034,7.554 12.020 C 7.453 11.981,7.419 11.805,7.179 10.052 L 7.156 9.884 8.088 9.585 C 8.601 9.420,9.605 9.101,10.320 8.877 C 11.035 8.653,11.635 8.456,11.653 8.439 C 11.707 8.391,11.083 8.363,9.440 8.340 C 7.489 8.312,7.211 8.295,7.159 8.199 C 7.123 8.131,6.840 6.662,6.840 6.541 C 6.840 6.509,6.895 6.477,6.970 6.466 C 7.155 6.438,15.144 6.475,15.830 6.506 " fill="#373B4D" stroke="none" fill-rule="evenodd"></path></svg>