<svg width="24" height="24" viewBox="0 0 24 24" fill="none" xmlns="http://www.w3.org/2000/svg"><path d="M4.230 3.026 C 4.073 3.038,4.000 3.061,4.000 3.098 C 4.000 3.215,5.188 18.061,5.225 18.403 L 5.249 18.627 8.374 19.564 L 11.500 20.502 14.620 19.567 C 16.336 19.052,17.743 18.629,17.747 18.625 C 17.753 18.620,18.170 13.505,18.602 8.140 C 18.830 5.302,18.996 3.066,18.980 3.048 C 18.963 3.029,4.477 3.007,4.230 3.026 M14.568 6.475 C 15.573 6.490,16.407 6.514,16.421 6.528 C 16.435 6.541,16.388 7.019,16.317 7.590 L 16.187 8.628 15.164 9.019 C 13.290 9.735,12.321 10.129,12.343 10.164 C 12.355 10.184,13.142 10.200,14.123 10.200 L 15.882 10.200 15.861 10.290 C 15.850 10.340,15.768 11.055,15.679 11.880 C 15.456 13.960,15.240 15.868,15.214 16.002 C 15.187 16.134,15.163 16.144,12.899 16.904 L 11.497 17.375 9.999 16.871 C 9.174 16.594,8.345 16.310,8.155 16.241 L 7.810 16.116 7.765 15.828 C 7.651 15.103,7.451 13.096,7.489 13.057 C 7.501 13.046,7.915 13.025,8.409 13.012 L 9.307 12.988 9.437 13.684 C 9.509 14.067,9.577 14.420,9.588 14.468 C 9.605 14.543,9.742 14.600,10.554 14.871 L 11.500 15.187 12.444 14.872 L 13.388 14.557 13.433 14.229 C 13.458 14.048,13.515 13.558,13.559 13.140 C 13.604 12.722,13.648 12.322,13.658 12.250 L 13.675 12.120 13.407 12.117 C 8.958 12.074,7.552 12.048,7.515 12.011 C 7.441 11.937,7.359 11.460,7.178 10.054 L 7.156 9.888 7.708 9.706 C 8.012 9.606,8.899 9.323,9.680 9.077 C 10.461 8.831,11.244 8.585,11.420 8.529 C 11.722 8.434,11.733 8.426,11.620 8.394 C 11.554 8.376,10.541 8.349,9.369 8.334 C 7.937 8.316,7.219 8.293,7.181 8.263 C 7.145 8.236,7.072 7.919,6.982 7.400 C 6.904 6.949,6.833 6.549,6.824 6.510 C 6.808 6.444,6.968 6.440,9.774 6.443 C 11.405 6.445,13.563 6.459,14.568 6.475 " fill="#373B4D" stroke="none" fill-rule="evenodd"></path></svg>