<svg width="24" height="24" viewBox="0 0 24 24" fill="none" xmlns="http://www.w3.org/2000/svg"><path d="M4.501 3.070 C 4.259 3.077,4.049 3.096,4.034 3.111 C 3.997 3.149,4.108 4.645,4.659 11.520 C 5.109 17.137,5.231 18.606,5.251 18.623 C 5.256 18.627,6.664 19.052,8.380 19.567 L 11.500 20.502 14.620 19.567 C 16.336 19.052,17.743 18.628,17.748 18.625 C 17.775 18.601,18.832 5.372,18.972 3.297 L 18.986 3.093 16.166 3.067 C 13.449 3.041,5.403 3.043,4.501 3.070 M15.595 6.507 L 16.410 6.533 16.387 6.797 C 16.374 6.941,16.323 7.413,16.275 7.844 L 16.186 8.628 14.703 9.199 C 12.832 9.920,12.360 10.124,12.463 10.164 C 12.506 10.181,13.293 10.196,14.214 10.197 C 15.541 10.199,15.885 10.210,15.869 10.250 C 15.859 10.278,15.710 11.560,15.539 13.100 C 15.368 14.640,15.213 15.942,15.194 15.992 C 15.144 16.128,14.861 16.242,13.082 16.843 L 11.505 17.376 10.242 16.952 C 9.548 16.718,8.717 16.434,8.394 16.321 L 7.809 16.114 7.763 15.807 C 7.689 15.311,7.520 13.582,7.520 13.324 C 7.520 13.033,7.455 13.053,8.522 13.017 L 9.304 12.990 9.395 13.485 C 9.567 14.424,9.596 14.520,9.714 14.568 C 9.772 14.592,10.197 14.742,10.658 14.900 L 11.495 15.189 12.433 14.876 C 12.949 14.703,13.379 14.554,13.390 14.544 C 13.418 14.516,13.674 12.185,13.653 12.150 C 13.643 12.133,13.254 12.120,12.788 12.120 C 12.321 12.120,10.959 12.101,9.760 12.078 C 8.061 12.045,7.568 12.024,7.527 11.984 C 7.498 11.955,7.458 11.861,7.439 11.776 C 7.380 11.508,7.158 9.908,7.178 9.889 C 7.188 9.878,7.814 9.674,8.568 9.434 C 11.207 8.594,11.580 8.473,11.614 8.441 C 11.654 8.402,11.018 8.375,8.920 8.324 C 8.051 8.304,7.301 8.274,7.252 8.259 C 7.183 8.238,7.152 8.176,7.105 7.966 C 6.983 7.430,6.836 6.559,6.860 6.520 C 6.888 6.474,14.258 6.463,15.595 6.507 " fill="#373B4D" stroke="none" fill-rule="evenodd"></path></svg>