<svg width="24" height="24" viewBox="0 0 24 24" fill="none" xmlns="http://www.w3.org/2000/svg"><path d="M4.016 3.250 C 4.029 3.388,4.311 6.902,4.643 11.059 C 4.974 15.216,5.248 18.621,5.252 18.625 C 5.257 18.628,6.664 19.052,8.380 19.567 L 11.500 20.502 14.620 19.567 C 16.336 19.052,17.743 18.629,17.747 18.626 C 17.750 18.623,18.025 15.218,18.356 11.060 C 18.688 6.902,18.971 3.388,18.984 3.250 L 19.009 3.000 11.500 3.000 L 3.991 3.000 4.016 3.250 M16.481 6.470 C 16.482 6.486,16.415 6.978,16.333 7.563 L 16.184 8.627 14.163 9.403 L 12.142 10.180 14.007 10.190 L 15.872 10.201 15.854 10.350 C 15.844 10.433,15.704 11.757,15.542 13.293 C 15.381 14.830,15.234 16.101,15.215 16.118 C 15.196 16.136,14.352 16.425,13.340 16.762 L 11.501 17.373 9.660 16.762 C 8.648 16.425,7.804 16.136,7.785 16.118 C 7.759 16.094,7.456 13.365,7.441 13.030 C 7.441 13.013,7.861 13.000,8.375 13.000 L 9.310 13.000 9.463 13.779 L 9.617 14.559 10.559 14.873 L 11.500 15.187 12.441 14.873 L 13.383 14.559 13.517 13.470 C 13.590 12.870,13.660 12.313,13.671 12.230 L 13.691 12.080 10.565 12.080 C 8.846 12.080,7.439 12.067,7.439 12.050 C 7.438 12.034,7.368 11.543,7.283 10.960 C 7.198 10.377,7.140 9.890,7.154 9.877 C 7.168 9.864,8.274 9.513,9.611 9.097 L 12.042 8.340 9.581 8.330 C 8.227 8.324,7.120 8.306,7.119 8.290 C 7.119 8.273,7.050 7.850,6.966 7.350 L 6.813 6.440 11.646 6.440 C 14.305 6.440,16.481 6.454,16.481 6.470 " fill="#373B4D" stroke="none" fill-rule="evenodd"></path></svg>