<svg width="24" height="24" viewBox="0 0 24 24" fill="none" xmlns="http://www.w3.org/2000/svg"><path d="M4.013 3.270 C 4.027 3.419,4.300 6.816,4.620 10.820 C 4.940 14.824,5.213 18.219,5.226 18.364 L 5.250 18.627 8.375 19.565 L 11.500 20.502 14.620 19.567 C 16.336 19.052,17.743 18.628,17.747 18.625 C 17.754 18.620,19.001 3.098,19.000 3.030 C 19.000 3.014,15.622 3.000,11.494 3.000 L 3.989 3.000 4.013 3.270 M16.454 6.481 C 16.466 6.492,16.410 6.980,16.330 7.564 L 16.185 8.626 14.222 9.379 C 13.143 9.792,12.243 10.147,12.222 10.166 C 12.201 10.185,12.996 10.200,14.031 10.200 L 15.878 10.200 15.859 10.310 C 15.848 10.370,15.758 11.194,15.659 12.140 C 15.370 14.901,15.235 16.057,15.195 16.106 C 15.174 16.131,14.335 16.426,13.329 16.763 L 11.500 17.374 9.672 16.764 C 8.667 16.428,7.827 16.132,7.805 16.106 C 7.784 16.081,7.702 15.475,7.624 14.760 C 7.545 14.045,7.471 13.368,7.458 13.255 C 7.437 13.066,7.443 13.049,7.528 13.026 C 7.578 13.012,8.001 13.001,8.466 13.001 L 9.312 13.000 9.461 13.778 L 9.611 14.557 10.555 14.872 L 11.500 15.187 12.444 14.872 L 13.388 14.557 13.534 13.349 C 13.615 12.684,13.681 12.127,13.680 12.110 C 13.680 12.093,12.298 12.080,10.610 12.079 C 8.921 12.079,7.518 12.065,7.491 12.047 C 7.447 12.020,7.255 10.851,7.177 10.131 C 7.151 9.893,7.154 9.879,7.245 9.845 C 7.297 9.825,8.370 9.487,9.628 9.094 L 11.916 8.380 11.308 8.355 C 10.974 8.342,9.905 8.328,8.932 8.325 C 7.803 8.322,7.156 8.306,7.140 8.280 C 7.126 8.258,7.047 7.834,6.964 7.338 L 6.813 6.435 11.623 6.448 C 14.269 6.454,16.443 6.469,16.454 6.481 " fill="#373B4D" stroke="none" fill-rule="evenodd"></path></svg>