<svg width="24" height="24" viewBox="0 0 24 24" fill="none" xmlns="http://www.w3.org/2000/svg"><path d="M4.000 3.068 C 4.000 3.150,5.185 17.957,5.224 18.363 L 5.249 18.627 8.375 19.565 L 11.500 20.502 14.620 19.567 C 16.336 19.052,17.743 18.629,17.747 18.626 C 17.753 18.620,18.256 12.408,18.741 6.345 C 18.885 4.544,18.992 3.059,18.978 3.045 C 18.965 3.031,15.589 3.014,11.477 3.008 C 4.285 2.996,4.000 2.998,4.000 3.068 M14.430 6.467 C 16.432 6.493,16.440 6.493,16.441 6.577 C 16.442 6.622,16.385 7.102,16.314 7.643 L 16.186 8.627 15.603 8.850 C 13.359 9.708,12.280 10.136,12.280 10.165 C 12.280 10.184,13.090 10.200,14.081 10.200 L 15.882 10.200 15.861 10.290 C 15.849 10.340,15.731 11.406,15.598 12.660 C 15.341 15.088,15.224 16.069,15.190 16.104 C 15.156 16.137,13.864 16.588,12.618 17.001 L 11.497 17.373 9.998 16.871 C 9.174 16.595,8.344 16.311,8.153 16.242 L 7.806 16.115 7.763 15.847 C 7.654 15.183,7.445 13.099,7.484 13.060 C 7.507 13.036,7.887 13.015,8.417 13.007 L 9.309 12.995 9.459 13.775 L 9.608 14.556 10.554 14.871 L 11.500 15.187 12.435 14.875 C 12.950 14.703,13.376 14.558,13.382 14.551 C 13.409 14.523,13.680 12.147,13.658 12.125 C 13.645 12.111,12.257 12.091,10.575 12.080 C 8.042 12.063,7.511 12.051,7.483 12.005 C 7.414 11.894,7.132 9.957,7.175 9.888 C 7.186 9.870,8.232 9.532,9.497 9.137 C 10.763 8.743,11.799 8.409,11.799 8.396 C 11.800 8.365,9.800 8.320,8.403 8.319 C 7.797 8.319,7.262 8.309,7.215 8.296 C 7.154 8.280,7.122 8.231,7.105 8.127 C 7.091 8.046,7.020 7.634,6.946 7.210 L 6.811 6.440 9.615 6.440 C 11.158 6.440,13.325 6.452,14.430 6.467 " fill="#373B4D" stroke="none" fill-rule="evenodd"></path></svg>