<svg width="24" height="24" viewBox="0 0 24 24" fill="none" xmlns="http://www.w3.org/2000/svg"><path d="M11.113 1.612 C 10.141 2.108,9.278 2.670,9.013 2.979 C 8.671 3.378,8.708 3.920,9.105 4.361 C 9.322 4.602,9.548 4.694,9.920 4.693 C 10.280 4.693,10.521 4.601,11.400 4.128 L 11.980 3.816 12.665 4.165 C 13.382 4.530,13.895 4.720,14.163 4.720 C 14.484 4.720,14.928 4.387,15.120 4.003 C 15.243 3.757,15.270 3.415,15.180 3.227 C 15.021 2.891,14.265 2.333,13.275 1.822 C 12.518 1.430,12.221 1.320,11.922 1.320 C 11.707 1.320,11.633 1.347,11.113 1.612 M4.940 5.093 C 4.423 5.365,3.541 5.921,3.061 6.277 C 2.635 6.593,2.554 6.713,2.472 7.144 C 2.400 7.527,2.401 9.412,2.474 9.740 C 2.571 10.178,2.772 10.422,3.191 10.610 C 3.430 10.718,3.879 10.728,4.065 10.629 C 4.252 10.530,4.518 10.213,4.720 9.847 L 4.900 9.521 5.320 9.520 C 5.930 9.519,6.257 9.417,6.506 9.153 C 6.720 8.926,6.778 8.772,6.778 8.440 C 6.778 8.080,6.681 7.863,6.338 7.460 L 6.119 7.201 6.351 6.924 C 6.702 6.506,6.818 6.270,6.817 5.980 C 6.816 5.602,6.622 5.295,6.271 5.115 C 6.128 5.042,5.524 4.880,5.400 4.881 C 5.367 4.881,5.160 4.977,4.940 5.093 M17.780 4.994 C 17.580 5.117,17.290 5.459,17.244 5.625 C 17.177 5.864,17.192 6.238,17.275 6.420 C 17.315 6.509,17.445 6.695,17.564 6.835 C 17.923 7.257,17.914 7.197,17.659 7.485 C 17.230 7.972,17.112 8.273,17.202 8.650 C 17.244 8.825,17.298 8.905,17.536 9.146 C 17.878 9.492,17.958 9.519,18.620 9.520 L 19.100 9.521 19.279 9.865 C 19.557 10.399,19.783 10.591,20.251 10.688 C 20.538 10.748,20.826 10.661,21.129 10.421 C 21.418 10.193,21.477 10.077,21.522 9.647 C 21.608 8.830,21.547 7.037,21.422 6.740 C 21.320 6.495,20.622 5.996,19.611 5.444 C 19.028 5.126,18.733 5.007,18.411 4.961 C 18.024 4.905,17.916 4.911,17.780 4.994 M9.428 9.803 C 9.218 9.942,8.889 10.291,8.835 10.432 C 8.781 10.574,8.793 11.066,8.854 11.213 C 8.962 11.471,9.797 12.131,10.530 12.537 L 10.800 12.687 10.800 13.314 C 10.800 14.015,10.850 14.537,10.942 14.785 C 11.010 14.971,11.406 15.374,11.586 15.442 C 11.737 15.500,12.168 15.496,12.352 15.437 C 12.568 15.366,12.809 15.190,12.933 15.010 C 13.091 14.783,13.158 14.375,13.187 13.470 L 13.212 12.680 13.476 12.534 C 13.957 12.268,14.536 11.863,14.784 11.620 C 15.354 11.061,15.379 10.572,14.864 10.056 C 14.474 9.667,14.194 9.636,13.511 9.905 C 13.319 9.981,12.901 10.167,12.582 10.319 L 12.002 10.595 11.246 10.239 C 10.427 9.853,9.963 9.680,9.750 9.680 C 9.665 9.680,9.544 9.726,9.428 9.803 M2.848 13.615 C 2.691 13.777,2.541 13.961,2.516 14.025 C 2.393 14.333,2.441 16.934,2.576 17.256 C 2.730 17.625,4.316 18.665,5.246 19.005 C 5.510 19.102,5.627 19.124,5.804 19.112 C 6.218 19.082,6.643 18.713,6.787 18.256 C 6.850 18.055,6.850 18.028,6.784 17.791 C 6.746 17.653,6.671 17.483,6.617 17.413 C 6.490 17.246,5.900 16.805,5.290 16.421 L 4.800 16.113 4.799 15.546 C 4.797 14.822,4.741 14.209,4.660 14.013 C 4.507 13.648,4.156 13.414,3.674 13.359 C 3.136 13.297,3.164 13.288,2.848 13.615 M19.784 13.476 C 19.580 13.640,19.424 13.856,19.348 14.082 C 19.260 14.342,19.200 14.949,19.200 15.572 L 19.200 16.107 18.570 16.511 C 17.822 16.990,17.438 17.299,17.274 17.553 C 17.166 17.721,17.155 17.764,17.172 17.980 C 17.221 18.597,17.711 19.118,18.243 19.120 C 18.822 19.121,20.436 18.232,21.210 17.486 L 21.560 17.149 21.559 15.924 C 21.558 14.567,21.520 14.007,21.420 13.855 C 21.337 13.728,21.038 13.515,20.850 13.450 C 20.771 13.422,20.534 13.389,20.323 13.375 L 19.940 13.351 19.784 13.476 M11.550 18.198 C 11.297 18.247,11.098 18.489,10.878 19.012 C 10.784 19.237,10.725 19.326,10.664 19.339 C 10.618 19.348,10.337 19.368,10.040 19.382 C 9.743 19.396,9.445 19.431,9.378 19.458 C 9.311 19.486,9.142 19.615,9.003 19.744 L 8.749 19.978 8.772 20.323 C 8.801 20.774,8.857 20.896,9.164 21.176 C 9.733 21.693,11.121 22.494,11.740 22.661 C 12.005 22.733,12.010 22.733,12.311 22.644 C 13.040 22.430,14.380 21.630,14.906 21.094 C 15.245 20.749,15.321 20.355,15.124 19.968 C 15.026 19.776,14.737 19.484,14.580 19.418 C 14.514 19.391,14.190 19.355,13.860 19.339 L 13.260 19.311 13.164 19.085 C 13.028 18.764,12.827 18.464,12.662 18.339 C 12.469 18.192,11.933 18.124,11.550 18.198 " fill="#373B4D" stroke="none" fill-rule="evenodd"></path></svg>