<svg width="24" height="24" viewBox="0 0 24 24" fill="none" xmlns="http://www.w3.org/2000/svg"><path d="M11.440 1.415 C 10.894 1.656,9.878 2.249,9.320 2.652 C 8.965 2.909,8.823 3.107,8.762 3.430 C 8.629 4.130,9.322 4.846,10.031 4.741 C 10.296 4.701,10.683 4.529,11.389 4.137 L 11.997 3.799 12.587 4.125 C 13.461 4.609,13.831 4.758,14.160 4.759 C 14.373 4.760,14.760 4.558,14.942 4.351 C 15.227 4.027,15.352 3.498,15.209 3.217 C 15.013 2.833,14.147 2.214,13.000 1.638 C 12.201 1.237,11.930 1.198,11.440 1.415 M4.655 5.233 C 3.266 6.041,2.675 6.461,2.546 6.733 C 2.402 7.036,2.358 9.439,2.487 9.952 C 2.521 10.084,2.588 10.192,2.722 10.326 C 3.157 10.761,3.627 10.855,4.129 10.608 C 4.445 10.453,4.506 10.376,4.700 9.890 C 4.781 9.689,4.873 9.502,4.905 9.476 C 4.951 9.438,5.020 9.437,5.217 9.473 C 5.822 9.585,6.206 9.505,6.516 9.204 C 6.753 8.973,6.857 8.699,6.833 8.365 C 6.810 8.047,6.669 7.782,6.357 7.474 L 6.088 7.208 6.228 7.074 C 6.431 6.878,6.738 6.479,6.796 6.335 C 6.871 6.147,6.858 5.791,6.769 5.590 C 6.570 5.141,6.229 4.933,5.640 4.901 L 5.260 4.881 4.655 5.233 M17.890 4.912 C 17.762 4.952,17.465 5.197,17.360 5.349 C 17.230 5.538,17.151 5.792,17.150 6.028 C 17.148 6.333,17.301 6.615,17.644 6.939 L 17.927 7.205 17.625 7.507 C 17.257 7.874,17.138 8.095,17.144 8.400 C 17.152 8.844,17.451 9.260,17.913 9.471 C 18.133 9.572,18.140 9.573,18.498 9.519 C 18.697 9.489,18.923 9.463,19.000 9.462 C 19.138 9.460,19.140 9.462,19.242 9.760 C 19.298 9.925,19.374 10.117,19.411 10.186 C 19.554 10.455,19.984 10.698,20.403 10.748 C 20.732 10.787,21.214 10.494,21.432 10.123 L 21.540 9.940 21.540 8.480 C 21.540 7.677,21.525 6.951,21.508 6.868 C 21.468 6.682,21.274 6.459,20.946 6.226 C 20.550 5.944,19.576 5.370,19.100 5.138 C 18.699 4.942,18.630 4.921,18.320 4.903 C 18.133 4.892,17.939 4.896,17.890 4.912 M9.490 9.719 C 9.267 9.820,8.935 10.156,8.835 10.381 C 8.730 10.619,8.728 10.978,8.831 11.207 C 8.977 11.532,9.517 11.966,10.390 12.457 L 10.800 12.688 10.801 13.334 C 10.802 14.126,10.857 14.719,10.943 14.886 C 11.036 15.065,11.352 15.369,11.536 15.456 C 11.661 15.515,11.760 15.526,12.039 15.513 C 12.449 15.493,12.665 15.390,12.903 15.099 C 13.118 14.837,13.160 14.609,13.188 13.571 L 13.212 12.682 13.616 12.454 C 15.070 11.635,15.404 11.206,15.177 10.441 C 15.094 10.162,14.784 9.843,14.503 9.747 C 14.082 9.604,13.879 9.660,12.730 10.235 L 12.000 10.600 11.204 10.202 C 10.054 9.626,9.832 9.564,9.490 9.719 M2.929 13.496 C 2.746 13.631,2.662 13.728,2.575 13.906 L 2.460 14.140 2.447 15.490 C 2.432 17.046,2.450 17.203,2.672 17.448 C 3.204 18.037,5.223 19.160,5.750 19.160 C 6.131 19.160,6.640 18.773,6.773 18.383 C 6.861 18.124,6.858 17.782,6.765 17.580 C 6.633 17.292,6.095 16.875,5.096 16.286 L 4.812 16.118 4.786 15.149 C 4.772 14.616,4.749 14.126,4.734 14.061 C 4.718 13.991,4.599 13.832,4.444 13.675 C 4.136 13.363,4.025 13.321,3.514 13.320 L 3.169 13.320 2.929 13.496 M19.792 13.440 C 19.330 13.746,19.200 14.191,19.200 15.461 L 19.200 16.105 18.590 16.477 C 17.301 17.264,17.049 17.557,17.157 18.143 C 17.213 18.445,17.324 18.641,17.563 18.855 C 17.798 19.066,18.112 19.181,18.376 19.150 C 18.601 19.124,19.050 18.931,19.621 18.614 C 20.599 18.070,21.222 17.616,21.438 17.290 L 21.560 17.106 21.560 15.603 L 21.559 14.100 21.441 13.894 C 21.206 13.484,20.880 13.320,20.300 13.320 C 20.004 13.320,19.957 13.331,19.792 13.440 M11.614 18.124 C 11.265 18.206,10.975 18.580,10.815 19.157 C 10.746 19.403,10.743 19.407,10.622 19.384 C 10.555 19.372,10.301 19.350,10.057 19.335 C 9.473 19.300,9.375 19.334,9.030 19.689 L 8.760 19.966 8.761 20.273 C 8.762 20.740,8.804 20.861,9.047 21.108 C 9.512 21.580,10.908 22.409,11.669 22.664 C 11.948 22.758,11.999 22.764,12.182 22.723 C 12.752 22.595,14.349 21.672,14.916 21.142 C 15.181 20.894,15.240 20.760,15.240 20.411 C 15.239 20.075,15.123 19.803,14.889 19.592 C 14.558 19.294,14.341 19.244,13.763 19.332 C 13.556 19.363,13.354 19.380,13.314 19.370 C 13.268 19.358,13.225 19.289,13.198 19.185 C 13.072 18.692,12.855 18.371,12.548 18.225 C 12.309 18.111,11.872 18.064,11.614 18.124 " fill="#373B4D" stroke="none" fill-rule="evenodd"></path></svg>