<svg width="24" height="24" viewBox="0 0 24 24" fill="none" xmlns="http://www.w3.org/2000/svg"><path d="M11.760 1.308 C 11.396 1.372,9.771 2.303,9.168 2.793 C 8.786 3.104,8.658 3.590,8.849 4.007 C 9.116 4.590,9.639 4.842,10.243 4.679 C 10.431 4.628,11.099 4.303,11.643 3.996 L 11.987 3.802 12.571 4.117 C 13.774 4.763,14.116 4.853,14.544 4.630 C 15.015 4.386,15.354 3.774,15.245 3.366 C 15.219 3.268,15.143 3.119,15.076 3.035 C 14.631 2.473,12.473 1.259,11.966 1.285 C 11.908 1.288,11.815 1.299,11.760 1.308 M4.374 5.405 C 3.053 6.197,2.601 6.546,2.521 6.833 C 2.445 7.111,2.389 8.181,2.412 8.960 C 2.440 9.950,2.473 10.070,2.798 10.371 C 3.162 10.709,3.577 10.805,4.018 10.654 C 4.291 10.561,4.480 10.345,4.719 9.854 C 4.915 9.450,4.930 9.432,5.033 9.453 C 5.377 9.521,5.834 9.527,6.046 9.466 C 6.510 9.331,6.812 8.925,6.812 8.438 C 6.812 8.090,6.696 7.843,6.358 7.470 L 6.113 7.199 6.323 6.970 C 6.795 6.453,6.906 6.163,6.801 5.724 C 6.729 5.422,6.568 5.228,6.272 5.085 C 6.050 4.978,5.596 4.880,5.321 4.880 C 5.281 4.880,4.855 5.116,4.374 5.405 M17.650 5.076 C 17.293 5.358,17.126 5.725,17.172 6.119 C 17.205 6.395,17.322 6.600,17.637 6.932 L 17.911 7.220 17.620 7.528 C 17.237 7.934,17.143 8.127,17.169 8.455 C 17.194 8.766,17.298 8.971,17.549 9.206 C 17.903 9.537,18.037 9.576,18.608 9.514 C 18.944 9.477,19.049 9.478,19.096 9.516 C 19.128 9.543,19.212 9.704,19.282 9.873 C 19.458 10.299,19.554 10.412,19.885 10.577 C 20.384 10.826,20.811 10.759,21.213 10.368 C 21.544 10.046,21.538 10.070,21.552 8.940 C 21.559 8.390,21.548 7.677,21.528 7.354 C 21.486 6.676,21.470 6.640,21.070 6.332 C 20.744 6.082,19.688 5.449,19.140 5.175 C 18.711 4.962,18.689 4.955,18.280 4.933 L 17.860 4.909 17.650 5.076 M9.572 9.684 C 9.425 9.727,8.961 10.167,8.854 10.366 C 8.803 10.461,8.781 10.588,8.781 10.800 C 8.780 11.057,8.796 11.127,8.892 11.290 C 9.067 11.588,9.634 12.027,10.430 12.479 L 10.800 12.689 10.800 13.326 C 10.800 14.064,10.859 14.683,10.948 14.871 C 11.040 15.066,11.464 15.433,11.657 15.485 C 11.749 15.510,11.933 15.519,12.078 15.505 C 12.552 15.462,12.919 15.201,13.057 14.808 C 13.136 14.584,13.200 13.882,13.200 13.239 L 13.200 12.691 13.699 12.404 C 14.879 11.725,15.292 11.268,15.227 10.716 C 15.158 10.137,14.697 9.700,14.160 9.706 C 13.888 9.710,13.532 9.844,12.651 10.277 L 12.002 10.595 11.231 10.222 C 10.431 9.835,9.938 9.637,9.788 9.644 C 9.739 9.646,9.642 9.664,9.572 9.684 M3.060 13.402 C 2.823 13.583,2.632 13.783,2.547 13.940 C 2.462 14.096,2.460 14.138,2.461 15.540 C 2.463 17.238,2.464 17.242,2.791 17.554 C 3.280 18.020,4.770 18.879,5.444 19.084 C 5.700 19.162,5.758 19.167,5.918 19.125 C 6.254 19.036,6.561 18.781,6.742 18.440 C 6.858 18.220,6.848 17.749,6.722 17.530 C 6.579 17.280,6.027 16.855,5.156 16.326 L 4.813 16.117 4.787 15.168 C 4.774 14.647,4.745 14.160,4.723 14.086 C 4.668 13.899,4.440 13.634,4.205 13.483 C 4.024 13.367,3.970 13.354,3.593 13.333 C 3.206 13.312,3.172 13.316,3.060 13.402 M19.898 13.395 C 19.674 13.497,19.412 13.807,19.339 14.057 C 19.244 14.383,19.203 14.816,19.201 15.485 L 19.200 16.109 18.850 16.322 C 17.614 17.074,17.227 17.414,17.142 17.826 C 17.085 18.096,17.310 18.644,17.565 18.858 C 17.924 19.160,18.286 19.210,18.780 19.023 C 19.333 18.814,20.627 18.044,21.075 17.657 C 21.171 17.574,21.319 17.417,21.405 17.309 L 21.560 17.113 21.558 15.646 C 21.557 14.558,21.543 14.143,21.505 14.036 C 21.374 13.669,21.044 13.429,20.576 13.361 C 20.191 13.306,20.083 13.311,19.898 13.395 M11.575 18.156 C 11.264 18.236,11.085 18.452,10.881 18.992 L 10.739 19.368 10.131 19.362 C 9.417 19.355,9.385 19.366,9.010 19.733 L 8.760 19.978 8.760 20.251 C 8.760 20.698,8.822 20.868,9.077 21.121 C 9.702 21.740,11.513 22.732,12.020 22.732 C 12.357 22.732,13.278 22.281,14.240 21.644 C 14.824 21.258,15.127 20.961,15.198 20.706 C 15.342 20.194,15.061 19.609,14.568 19.391 C 14.411 19.321,14.320 19.313,13.827 19.326 L 13.265 19.340 13.132 18.996 C 12.893 18.382,12.630 18.176,12.039 18.142 C 11.853 18.132,11.644 18.138,11.575 18.156 " fill="#373B4D" stroke="none" fill-rule="evenodd"></path></svg>