<svg width="24" height="24" viewBox="0 0 24 24" fill="none" xmlns="http://www.w3.org/2000/svg"><path d="M11.775 1.285 C 11.407 1.350,9.737 2.300,9.124 2.793 C 8.888 2.983,8.743 3.298,8.741 3.620 C 8.739 4.254,9.353 4.813,9.981 4.748 C 10.272 4.718,10.572 4.589,11.340 4.164 L 12.000 3.798 12.660 4.164 C 13.457 4.605,13.742 4.725,14.062 4.750 C 14.268 4.767,14.339 4.753,14.538 4.659 C 14.970 4.455,15.203 4.110,15.265 3.582 C 15.286 3.405,15.274 3.333,15.199 3.179 C 15.051 2.873,14.385 2.383,13.323 1.798 C 12.541 1.368,12.113 1.226,11.775 1.285 M4.860 5.121 C 3.363 5.960,2.697 6.424,2.530 6.740 C 2.407 6.976,2.370 9.515,2.484 9.966 C 2.566 10.289,3.060 10.680,3.464 10.743 C 3.816 10.797,4.329 10.593,4.505 10.329 C 4.544 10.269,4.642 10.049,4.721 9.840 C 4.884 9.408,4.903 9.397,5.277 9.480 C 5.396 9.507,5.610 9.528,5.751 9.527 C 6.362 9.524,6.856 9.030,6.850 8.427 C 6.847 8.090,6.671 7.752,6.341 7.450 L 6.085 7.215 6.376 6.913 C 6.536 6.747,6.710 6.523,6.763 6.416 C 6.960 6.012,6.846 5.515,6.479 5.184 C 6.245 4.972,6.075 4.912,5.660 4.892 L 5.300 4.874 4.860 5.121 M17.880 4.907 C 17.717 4.975,17.470 5.181,17.361 5.339 C 17.187 5.591,17.100 5.958,17.158 6.190 C 17.245 6.535,17.415 6.776,17.776 7.069 L 17.932 7.195 17.610 7.508 C 17.116 7.987,17.023 8.327,17.245 8.842 C 17.362 9.115,17.696 9.416,17.981 9.506 C 18.186 9.570,18.221 9.570,18.589 9.506 C 19.150 9.409,19.149 9.409,19.199 9.610 C 19.324 10.114,19.454 10.332,19.747 10.529 C 19.924 10.648,20.296 10.760,20.516 10.760 C 20.717 10.760,20.991 10.613,21.221 10.382 C 21.569 10.034,21.560 10.083,21.560 8.486 C 21.560 6.863,21.545 6.745,21.312 6.512 C 21.018 6.218,19.787 5.458,18.984 5.074 C 18.662 4.921,18.594 4.903,18.284 4.893 C 18.095 4.887,17.913 4.893,17.880 4.907 M9.460 9.726 C 9.222 9.849,8.936 10.146,8.834 10.376 C 8.712 10.651,8.714 10.996,8.838 11.237 C 9.015 11.582,9.490 11.956,10.390 12.458 L 10.800 12.687 10.801 13.274 C 10.801 13.596,10.818 14.071,10.838 14.329 C 10.871 14.757,10.885 14.813,10.997 14.976 C 11.137 15.178,11.408 15.415,11.574 15.478 C 11.773 15.553,12.314 15.530,12.504 15.438 C 12.704 15.341,12.982 15.052,13.064 14.856 C 13.145 14.664,13.198 14.056,13.199 13.315 L 13.200 12.690 13.710 12.401 C 14.949 11.699,15.271 11.349,15.231 10.743 C 15.210 10.423,15.136 10.248,14.926 10.027 C 14.756 9.848,14.559 9.738,14.308 9.682 C 14.032 9.620,13.758 9.712,12.827 10.182 L 11.994 10.603 11.267 10.227 C 10.090 9.617,9.817 9.542,9.460 9.726 M3.260 13.307 C 3.103 13.332,2.767 13.587,2.632 13.784 C 2.458 14.036,2.435 14.241,2.433 15.580 C 2.432 16.941,2.446 17.113,2.574 17.343 C 2.730 17.620,3.578 18.199,4.640 18.754 C 5.440 19.172,5.768 19.239,6.144 19.064 C 6.569 18.866,6.855 18.430,6.855 17.979 C 6.855 17.471,6.581 17.185,5.428 16.487 L 4.812 16.114 4.790 15.127 C 4.774 14.385,4.754 14.104,4.710 13.999 C 4.638 13.828,4.263 13.447,4.100 13.379 C 3.966 13.322,3.445 13.278,3.260 13.307 M20.030 13.316 C 19.821 13.360,19.522 13.625,19.389 13.884 C 19.256 14.145,19.203 14.601,19.201 15.504 L 19.200 16.108 18.530 16.512 C 17.736 16.991,17.425 17.232,17.261 17.498 C 17.158 17.665,17.140 17.733,17.140 17.961 C 17.140 18.655,17.753 19.224,18.417 19.146 C 18.673 19.116,19.336 18.796,20.140 18.316 C 20.800 17.922,21.242 17.578,21.422 17.317 L 21.540 17.147 21.540 15.603 L 21.540 14.060 21.434 13.880 C 21.294 13.644,21.141 13.502,20.920 13.405 C 20.716 13.316,20.255 13.270,20.030 13.316 M11.545 18.136 C 11.360 18.205,11.102 18.445,11.001 18.640 C 10.961 18.718,10.888 18.916,10.838 19.080 C 10.789 19.245,10.744 19.386,10.739 19.392 C 10.733 19.399,10.538 19.376,10.306 19.342 C 9.571 19.233,9.338 19.307,8.944 19.774 L 8.780 19.968 8.780 20.380 C 8.780 20.777,8.785 20.799,8.904 20.966 C 9.124 21.275,9.919 21.816,10.900 22.325 C 11.531 22.652,11.903 22.779,12.112 22.741 C 12.695 22.632,14.391 21.665,14.966 21.111 C 15.207 20.880,15.239 20.788,15.239 20.340 C 15.238 20.025,15.145 19.830,14.872 19.574 C 14.547 19.268,14.360 19.232,13.685 19.341 C 13.255 19.411,13.223 19.399,13.183 19.151 C 13.121 18.760,12.842 18.346,12.544 18.202 C 12.311 18.089,11.766 18.053,11.545 18.136 " fill="#373B4D" stroke="none" fill-rule="evenodd"></path></svg>