<svg width="24" height="24" viewBox="0 0 24 24" fill="none" xmlns="http://www.w3.org/2000/svg"><path d="M11.680 2.527 C 11.568 2.546,10.636 2.989,9.220 3.697 C 6.177 5.218,5.755 5.445,5.477 5.720 C 5.000 6.190,5.002 6.737,5.482 7.200 C 5.607 7.321,5.851 7.504,6.025 7.606 C 6.813 8.072,10.790 10.057,11.499 10.339 C 11.740 10.435,11.816 10.447,12.046 10.428 C 12.193 10.415,12.436 10.357,12.587 10.297 C 13.319 10.007,17.081 8.130,18.055 7.569 C 18.631 7.237,18.818 6.959,18.818 6.440 C 18.818 5.947,18.649 5.725,17.974 5.335 C 17.480 5.050,12.994 2.819,12.639 2.682 C 12.266 2.538,11.933 2.485,11.680 2.527 M4.333 10.060 C 4.212 10.121,4.016 10.280,3.863 10.443 L 3.600 10.721 3.605 13.371 C 3.607 14.828,3.621 16.564,3.635 17.229 L 3.660 18.437 3.860 18.640 C 4.141 18.925,4.456 19.124,5.440 19.641 C 6.547 20.222,8.661 21.271,9.066 21.441 C 9.624 21.674,9.978 21.583,10.507 21.070 L 10.807 20.780 10.789 17.040 C 10.775 14.177,10.759 13.260,10.720 13.129 C 10.653 12.902,10.363 12.644,9.838 12.345 C 9.296 12.035,7.021 10.880,6.176 10.485 C 5.390 10.117,5.116 10.019,4.780 9.982 C 4.571 9.959,4.514 9.969,4.333 10.060 M17.040 10.842 C 14.487 12.140,13.719 12.570,13.449 12.850 C 13.355 12.948,13.305 13.048,13.275 13.203 C 13.248 13.340,13.225 14.742,13.213 17.024 L 13.192 20.628 13.279 20.799 C 13.397 21.030,13.697 21.313,13.943 21.426 C 14.238 21.562,14.468 21.583,14.725 21.500 C 15.243 21.331,19.133 19.384,19.686 19.016 C 20.085 18.751,20.303 18.525,20.337 18.340 C 20.384 18.090,20.369 11.052,20.321 10.802 C 20.269 10.531,20.207 10.435,19.969 10.260 C 19.737 10.089,19.500 10.013,19.093 9.981 L 18.780 9.957 17.040 10.842 " fill="#373B4D" stroke="none" fill-rule="evenodd"></path></svg>