<svg width="24" height="24" viewBox="0 0 24 24" fill="none" xmlns="http://www.w3.org/2000/svg"><path d="M11.119 2.775 C 9.448 3.564,6.253 5.181,5.827 5.454 C 5.221 5.841,4.997 6.320,5.201 6.794 C 5.326 7.085,5.728 7.446,6.247 7.735 C 6.896 8.096,10.811 10.044,11.305 10.252 C 12.056 10.568,12.081 10.562,14.137 9.571 C 15.423 8.951,17.559 7.860,18.038 7.578 C 18.609 7.243,18.804 6.961,18.809 6.463 C 18.814 5.944,18.651 5.731,17.940 5.323 C 17.544 5.096,13.271 2.964,12.815 2.765 C 12.448 2.606,12.114 2.520,11.861 2.520 C 11.695 2.520,11.560 2.566,11.119 2.775 M4.460 10.009 C 4.297 10.066,4.020 10.273,3.784 10.515 L 3.588 10.715 3.610 14.562 L 3.632 18.408 3.806 18.588 C 4.055 18.845,4.381 19.067,5.020 19.418 C 5.895 19.899,8.901 21.387,9.190 21.483 C 9.682 21.647,10.001 21.544,10.523 21.052 L 10.800 20.790 10.796 18.025 C 10.794 16.504,10.781 14.780,10.766 14.193 L 10.740 13.127 10.618 12.954 C 10.546 12.851,10.358 12.688,10.158 12.553 C 9.495 12.108,5.925 10.319,5.270 10.104 C 4.914 9.987,4.619 9.953,4.460 10.009 M17.340 10.684 C 14.647 12.065,13.829 12.517,13.518 12.794 C 13.231 13.049,13.240 12.920,13.212 17.000 C 13.184 21.148,13.149 20.749,13.574 21.151 C 13.962 21.518,14.336 21.623,14.751 21.483 C 15.312 21.294,18.996 19.450,19.645 19.034 C 20.020 18.794,20.306 18.498,20.340 18.315 C 20.353 18.241,20.359 16.515,20.352 14.480 L 20.340 10.780 20.240 10.582 C 20.061 10.227,19.653 10.025,19.040 9.985 L 18.740 9.966 17.340 10.684 " fill="#373B4D" stroke="none" fill-rule="evenodd"></path></svg>