<svg width="24" height="24" viewBox="0 0 24 24" fill="none" xmlns="http://www.w3.org/2000/svg"><path d="M10.960 2.815 C 10.073 3.236,7.003 4.774,6.246 5.175 C 5.930 5.343,5.602 5.535,5.518 5.602 C 5.298 5.776,5.120 6.150,5.120 6.439 C 5.120 6.923,5.296 7.180,5.860 7.519 C 6.569 7.946,10.534 9.949,11.363 10.300 C 11.885 10.520,12.037 10.528,12.469 10.357 C 13.157 10.085,17.430 7.961,18.180 7.518 C 18.727 7.195,18.839 7.008,18.840 6.423 C 18.840 5.990,18.754 5.817,18.418 5.577 C 17.961 5.251,12.861 2.681,12.398 2.543 C 12.281 2.508,12.067 2.480,11.923 2.481 C 11.677 2.482,11.614 2.504,10.960 2.815 M4.430 9.975 C 4.228 10.050,3.951 10.282,3.758 10.538 L 3.600 10.747 3.600 14.515 C 3.600 18.208,3.602 18.286,3.680 18.441 C 3.803 18.680,4.002 18.856,4.451 19.119 C 4.915 19.391,8.362 21.135,8.999 21.420 C 9.374 21.588,9.438 21.605,9.612 21.582 C 10.060 21.523,10.373 21.318,10.714 20.865 L 10.800 20.749 10.800 16.985 L 10.799 13.220 10.682 13.015 C 10.496 12.692,10.249 12.517,9.220 11.983 C 8.049 11.375,5.726 10.235,5.332 10.076 C 4.984 9.935,4.640 9.896,4.430 9.975 M18.740 10.017 C 18.412 10.143,16.402 11.130,15.400 11.656 C 13.779 12.507,13.419 12.742,13.285 13.038 C 13.227 13.165,13.219 13.567,13.207 16.740 C 13.200 18.698,13.206 20.411,13.220 20.548 C 13.252 20.853,13.401 21.095,13.685 21.304 C 13.892 21.455,14.282 21.600,14.485 21.600 C 14.630 21.600,15.461 21.211,17.360 20.257 C 19.792 19.033,20.076 18.863,20.279 18.510 L 20.399 18.300 20.400 14.548 C 20.400 11.152,20.394 10.784,20.335 10.668 C 20.147 10.300,19.851 10.070,19.446 9.974 C 19.137 9.902,19.019 9.909,18.740 10.017 " fill="#373B4D" stroke="none" fill-rule="evenodd"></path></svg>