<svg width="24" height="24" viewBox="0 0 24 24" fill="none" xmlns="http://www.w3.org/2000/svg"><path d="M11.740 1.277 C 11.321 1.384,9.471 2.465,9.063 2.841 C 8.613 3.256,8.628 4.019,9.094 4.425 C 9.532 4.807,9.969 4.858,10.530 4.591 C 10.700 4.511,11.100 4.298,11.420 4.120 L 12.000 3.796 12.580 4.120 C 13.501 4.634,13.737 4.736,14.052 4.754 C 14.293 4.767,14.352 4.755,14.579 4.643 C 14.720 4.574,14.884 4.459,14.944 4.389 C 15.222 4.060,15.357 3.474,15.220 3.186 C 15.079 2.888,14.359 2.359,13.340 1.803 C 12.480 1.334,12.058 1.195,11.740 1.277 M5.320 4.877 C 5.173 4.925,3.724 5.766,3.260 6.072 C 2.715 6.433,2.545 6.610,2.479 6.883 C 2.405 7.188,2.402 9.703,2.475 9.960 C 2.554 10.234,2.956 10.613,3.263 10.702 C 3.716 10.834,4.218 10.691,4.485 10.353 C 4.551 10.270,4.660 10.035,4.728 9.831 C 4.795 9.627,4.864 9.445,4.881 9.426 C 4.898 9.407,5.081 9.431,5.286 9.480 C 5.833 9.608,6.225 9.523,6.532 9.208 C 7.064 8.662,6.936 7.894,6.221 7.337 L 6.064 7.214 6.344 6.949 C 6.808 6.512,6.951 6.145,6.826 5.714 C 6.698 5.274,6.333 4.953,5.903 4.901 C 5.792 4.888,5.637 4.870,5.560 4.861 C 5.483 4.852,5.375 4.860,5.320 4.877 M17.905 4.897 C 17.556 5.025,17.238 5.403,17.160 5.781 C 17.066 6.232,17.260 6.661,17.718 7.022 L 17.956 7.209 17.728 7.381 C 17.390 7.635,17.181 7.958,17.134 8.296 C 17.082 8.678,17.355 9.184,17.729 9.398 C 18.031 9.570,18.219 9.587,18.692 9.485 C 18.973 9.425,19.106 9.412,19.141 9.441 C 19.169 9.464,19.204 9.567,19.219 9.671 C 19.308 10.280,19.749 10.688,20.379 10.747 C 20.604 10.768,20.663 10.758,20.853 10.665 C 21.133 10.528,21.458 10.186,21.526 9.956 C 21.565 9.825,21.577 9.426,21.574 8.400 C 21.569 6.730,21.563 6.697,21.180 6.388 C 20.708 6.007,19.479 5.280,18.820 4.992 C 18.518 4.859,18.119 4.818,17.905 4.897 M9.680 9.637 C 9.008 9.842,8.602 10.492,8.775 11.087 C 8.890 11.483,9.302 11.841,10.284 12.398 L 10.787 12.683 10.814 13.683 C 10.832 14.387,10.856 14.721,10.895 14.812 C 10.974 14.997,11.260 15.305,11.466 15.425 C 11.620 15.516,11.688 15.530,11.994 15.530 C 12.387 15.530,12.503 15.488,12.765 15.251 C 13.051 14.992,13.127 14.814,13.163 14.307 C 13.181 14.061,13.196 13.596,13.198 13.274 L 13.200 12.688 13.610 12.458 C 14.900 11.733,15.245 11.392,15.251 10.841 C 15.256 10.244,14.847 9.761,14.251 9.662 C 13.992 9.618,13.706 9.721,12.809 10.184 L 11.998 10.601 11.229 10.203 C 10.192 9.666,9.916 9.566,9.680 9.637 M3.164 13.324 C 3.089 13.347,2.925 13.469,2.797 13.597 C 2.439 13.955,2.426 14.023,2.425 15.580 C 2.423 17.039,2.445 17.219,2.661 17.471 C 2.915 17.767,4.030 18.468,4.954 18.913 C 5.523 19.186,5.819 19.227,6.140 19.076 C 6.682 18.821,6.975 18.227,6.820 17.696 C 6.718 17.344,6.421 17.079,5.534 16.548 L 4.812 16.116 4.789 15.101 C 4.770 14.264,4.754 14.064,4.699 13.957 C 4.612 13.789,4.289 13.468,4.116 13.377 C 3.955 13.292,3.374 13.260,3.164 13.324 M19.940 13.337 C 19.847 13.371,19.696 13.486,19.577 13.612 C 19.272 13.937,19.235 14.099,19.211 15.209 L 19.191 16.117 18.665 16.425 C 17.477 17.121,17.200 17.380,17.134 17.856 C 17.095 18.141,17.244 18.564,17.465 18.802 C 17.765 19.122,18.241 19.233,18.686 19.085 C 18.949 18.997,19.755 18.562,20.484 18.114 C 21.009 17.790,21.497 17.326,21.536 17.111 C 21.551 17.030,21.563 16.337,21.564 15.571 C 21.564 14.029,21.561 14.004,21.309 13.703 C 21.065 13.411,20.858 13.313,20.448 13.294 C 20.207 13.283,20.051 13.296,19.940 13.337 M11.492 18.147 C 11.151 18.341,10.953 18.618,10.841 19.058 C 10.796 19.231,10.751 19.382,10.740 19.393 C 10.729 19.404,10.549 19.380,10.339 19.341 C 9.925 19.263,9.561 19.276,9.368 19.376 C 9.221 19.452,8.850 19.848,8.796 19.988 C 8.730 20.157,8.739 20.637,8.810 20.806 C 8.844 20.886,8.940 21.027,9.024 21.119 C 9.349 21.478,11.006 22.461,11.629 22.664 C 11.943 22.766,11.986 22.771,12.194 22.727 C 12.808 22.599,14.717 21.454,15.093 20.989 C 15.205 20.852,15.217 20.807,15.232 20.484 C 15.254 20.040,15.207 19.893,14.963 19.643 C 14.601 19.271,14.370 19.219,13.642 19.344 C 13.220 19.416,13.224 19.418,13.180 19.125 C 13.124 18.752,12.851 18.350,12.546 18.191 C 12.310 18.068,11.677 18.042,11.492 18.147 " fill="#373B4D" stroke="none" fill-rule="evenodd"></path></svg>