<svg width="24" height="24" viewBox="0 0 24 24" fill="none" xmlns="http://www.w3.org/2000/svg"><path d="M11.080 2.734 C 9.750 3.365,5.926 5.309,5.554 5.544 C 5.350 5.673,5.215 5.886,5.137 6.204 C 5.077 6.446,5.077 6.487,5.137 6.723 C 5.226 7.077,5.370 7.268,5.702 7.470 C 6.027 7.668,10.596 9.964,11.300 10.283 C 11.950 10.577,12.052 10.577,12.700 10.281 C 13.342 9.989,16.307 8.516,17.479 7.907 C 18.128 7.570,18.469 7.370,18.584 7.256 C 18.992 6.853,18.992 6.068,18.584 5.664 C 18.395 5.477,17.012 4.751,14.360 3.446 C 12.323 2.444,12.314 2.440,11.971 2.440 C 11.717 2.440,11.660 2.459,11.080 2.734 M4.493 9.935 C 4.148 10.048,3.882 10.278,3.703 10.616 L 3.600 10.812 3.600 14.536 L 3.601 18.260 3.694 18.460 C 3.887 18.874,3.988 18.934,7.079 20.480 L 9.333 21.607 9.617 21.579 C 9.772 21.564,9.983 21.516,10.084 21.473 C 10.306 21.379,10.557 21.130,10.697 20.864 L 10.800 20.668 10.800 16.953 L 10.800 13.238 10.684 13.009 C 10.542 12.728,10.466 12.656,10.050 12.406 C 9.677 12.182,7.109 10.883,5.895 10.305 C 5.018 9.888,4.809 9.832,4.493 9.935 M18.955 9.921 C 18.578 10.013,13.742 12.463,13.538 12.666 C 13.469 12.735,13.364 12.887,13.306 13.003 L 13.200 13.216 13.200 16.940 L 13.200 20.664 13.308 20.881 C 13.532 21.331,13.838 21.528,14.401 21.583 L 14.662 21.609 16.701 20.589 C 20.125 18.877,20.082 18.902,20.301 18.462 L 20.400 18.264 20.400 14.540 L 20.400 10.816 20.294 10.603 C 20.236 10.487,20.125 10.328,20.048 10.250 C 19.785 9.988,19.291 9.839,18.955 9.921 " fill="#373B4D" stroke="none" fill-rule="evenodd"></path></svg>