<svg width="24" height="24" viewBox="0 0 24 24" fill="none" xmlns="http://www.w3.org/2000/svg"><path d="M11.596 2.536 C 10.976 2.775,6.141 5.217,5.700 5.515 C 5.163 5.877,4.988 6.417,5.243 6.925 C 5.341 7.118,5.640 7.379,6.026 7.608 C 6.917 8.135,11.307 10.315,11.652 10.402 C 11.935 10.473,12.291 10.429,12.640 10.279 C 13.939 9.721,18.053 7.634,18.390 7.362 C 18.670 7.136,18.802 6.893,18.829 6.552 C 18.871 6.028,18.684 5.746,18.047 5.372 C 17.493 5.045,13.126 2.866,12.658 2.682 C 12.194 2.500,11.824 2.449,11.596 2.536 M4.407 10.012 C 4.244 10.071,3.949 10.315,3.746 10.559 L 3.596 10.740 3.613 14.500 C 3.622 16.568,3.644 18.314,3.661 18.380 C 3.710 18.562,4.058 18.872,4.523 19.147 C 4.994 19.425,7.380 20.643,8.560 21.207 C 9.231 21.528,9.368 21.579,9.541 21.578 C 9.857 21.575,10.232 21.378,10.547 21.050 L 10.806 20.780 10.792 16.980 C 10.777 12.693,10.808 13.078,10.448 12.755 C 10.160 12.498,9.705 12.241,8.080 11.424 C 5.791 10.272,5.290 10.044,4.949 10.000 C 4.589 9.953,4.570 9.954,4.407 10.012 M17.020 10.855 C 14.415 12.158,13.508 12.677,13.345 12.956 C 13.230 13.154,13.205 13.943,13.203 17.560 L 13.201 20.660 13.319 20.866 C 13.529 21.232,13.973 21.524,14.362 21.552 C 14.562 21.567,14.641 21.547,15.043 21.377 C 15.589 21.147,18.680 19.599,19.364 19.214 C 19.652 19.052,19.945 18.850,20.082 18.720 C 20.298 18.515,20.316 18.484,20.347 18.260 C 20.365 18.128,20.378 16.405,20.375 14.430 C 20.370 10.397,20.387 10.622,20.072 10.338 C 19.823 10.113,19.551 10.006,19.158 9.978 L 18.820 9.954 17.020 10.855 " fill="#373B4D" stroke="none" fill-rule="evenodd"></path></svg>