<svg width="24" height="24" viewBox="0 0 24 24" fill="none" xmlns="http://www.w3.org/2000/svg"><path d="M11.620 2.529 C 11.203 2.675,6.787 4.874,5.947 5.353 C 5.731 5.477,5.484 5.653,5.399 5.746 C 5.108 6.062,5.047 6.560,5.251 6.959 C 5.384 7.219,5.737 7.468,6.688 7.973 C 7.763 8.544,11.107 10.204,11.454 10.339 C 11.830 10.485,12.133 10.485,12.502 10.339 C 13.193 10.064,17.472 7.939,18.141 7.538 C 18.653 7.232,18.840 6.939,18.840 6.447 C 18.840 5.941,18.665 5.714,17.976 5.323 C 17.452 5.026,13.531 3.061,12.878 2.768 C 12.269 2.495,11.910 2.427,11.620 2.529 M4.404 10.001 C 4.218 10.080,3.928 10.322,3.765 10.533 L 3.600 10.747 3.600 13.907 C 3.600 15.645,3.612 17.369,3.626 17.737 C 3.650 18.327,3.663 18.422,3.737 18.533 C 3.882 18.747,4.250 19.009,4.887 19.353 C 5.889 19.893,9.067 21.472,9.300 21.545 C 9.504 21.609,9.530 21.609,9.777 21.542 C 10.112 21.452,10.357 21.288,10.605 20.990 L 10.802 20.753 10.791 16.967 C 10.781 13.473,10.775 13.170,10.711 13.054 C 10.536 12.734,10.223 12.520,8.969 11.864 C 8.043 11.380,5.649 10.210,5.300 10.072 C 5.071 9.981,4.548 9.939,4.404 10.001 M18.280 10.232 C 16.472 11.088,14.258 12.246,13.723 12.615 C 13.254 12.939,13.264 12.913,13.234 13.833 C 13.219 14.266,13.206 15.975,13.204 17.631 L 13.200 20.643 13.298 20.836 C 13.486 21.206,14.031 21.572,14.400 21.575 C 14.667 21.577,15.044 21.410,17.140 20.360 C 19.237 19.309,19.762 19.021,20.048 18.765 C 20.410 18.440,20.380 18.811,20.380 14.700 C 20.380 12.698,20.365 10.954,20.346 10.824 C 20.318 10.624,20.287 10.561,20.138 10.402 C 19.880 10.126,19.576 9.989,19.180 9.972 L 18.860 9.957 18.280 10.232 " fill="#373B4D" stroke="none" fill-rule="evenodd"></path></svg>