<svg width="24" height="24" viewBox="0 0 24 24" fill="none" xmlns="http://www.w3.org/2000/svg"><path d="M11.540 1.407 C 10.591 1.832,9.235 2.685,8.992 3.010 C 8.669 3.443,8.732 3.975,9.159 4.401 C 9.370 4.612,9.558 4.680,9.928 4.680 C 10.272 4.680,10.510 4.593,11.314 4.175 L 11.980 3.828 12.680 4.171 C 13.477 4.562,13.998 4.741,14.242 4.709 C 14.718 4.645,15.243 4.011,15.239 3.503 C 15.236 3.087,14.678 2.593,13.460 1.926 C 12.419 1.356,11.942 1.227,11.540 1.407 M5.140 4.993 C 4.517 5.291,3.164 6.163,2.813 6.492 C 2.675 6.621,2.583 6.749,2.540 6.873 C 2.388 7.307,2.366 9.375,2.508 9.853 C 2.592 10.137,2.764 10.361,3.011 10.511 C 3.353 10.717,3.883 10.752,4.137 10.586 C 4.275 10.495,4.556 10.134,4.745 9.801 L 4.900 9.530 5.400 9.509 C 5.972 9.485,6.192 9.423,6.432 9.218 C 6.658 9.024,6.775 8.764,6.775 8.457 C 6.775 8.120,6.676 7.887,6.375 7.514 L 6.122 7.200 6.387 6.872 C 6.707 6.475,6.806 6.266,6.806 5.986 C 6.806 5.519,6.532 5.190,6.004 5.024 C 5.496 4.865,5.413 4.862,5.140 4.993 M17.820 4.980 C 17.625 5.085,17.403 5.325,17.293 5.551 C 17.202 5.736,17.192 5.799,17.208 6.056 C 17.230 6.386,17.277 6.484,17.625 6.908 C 17.743 7.052,17.840 7.194,17.840 7.223 C 17.840 7.252,17.769 7.358,17.681 7.459 C 17.026 8.215,17.011 8.687,17.623 9.233 C 17.899 9.478,18.048 9.520,18.648 9.520 L 19.100 9.521 19.260 9.827 C 19.568 10.416,19.925 10.688,20.400 10.695 C 20.823 10.702,21.373 10.325,21.476 9.958 C 21.587 9.564,21.572 7.425,21.454 6.841 C 21.406 6.601,20.952 6.229,20.060 5.701 C 19.594 5.425,18.930 5.098,18.691 5.027 C 18.349 4.926,17.961 4.905,17.820 4.980 M9.501 9.767 C 9.306 9.870,8.895 10.275,8.840 10.419 C 8.795 10.539,8.787 10.923,8.826 11.125 C 8.876 11.383,9.682 12.059,10.465 12.499 L 10.789 12.681 10.811 13.531 C 10.840 14.708,10.908 14.915,11.390 15.310 C 11.563 15.452,11.589 15.461,11.904 15.474 C 12.191 15.486,12.264 15.475,12.448 15.388 C 13.024 15.118,13.140 14.810,13.187 13.430 L 13.213 12.680 13.476 12.534 C 13.931 12.282,14.555 11.839,14.798 11.595 C 15.337 11.057,15.363 10.576,14.881 10.081 C 14.620 9.813,14.471 9.742,14.180 9.748 C 13.885 9.753,13.570 9.865,12.671 10.282 L 11.997 10.595 11.489 10.354 C 10.534 9.903,9.948 9.677,9.743 9.682 C 9.697 9.683,9.589 9.721,9.501 9.767 M3.098 13.393 C 2.946 13.488,2.567 13.906,2.511 14.040 C 2.411 14.276,2.438 16.620,2.546 17.160 C 2.599 17.426,3.254 17.952,4.221 18.506 C 5.458 19.214,5.978 19.272,6.478 18.758 C 6.824 18.401,6.903 18.009,6.712 17.595 C 6.625 17.405,6.551 17.325,6.248 17.090 C 6.049 16.937,5.645 16.655,5.349 16.464 L 4.811 16.116 4.789 15.308 C 4.762 14.330,4.716 14.054,4.543 13.827 C 4.313 13.525,4.019 13.390,3.480 13.340 C 3.265 13.320,3.199 13.329,3.098 13.393 M19.742 13.523 C 19.337 13.896,19.246 14.206,19.212 15.327 L 19.189 16.115 18.584 16.507 C 17.830 16.998,17.443 17.307,17.280 17.550 C 17.165 17.722,17.155 17.762,17.172 17.968 C 17.195 18.235,17.337 18.565,17.516 18.769 C 17.681 18.958,18.008 19.120,18.221 19.120 C 18.827 19.120,20.376 18.266,21.235 17.457 L 21.560 17.152 21.559 15.946 C 21.558 14.673,21.521 14.077,21.433 13.894 C 21.368 13.758,20.997 13.493,20.802 13.442 C 20.724 13.422,20.495 13.393,20.294 13.378 L 19.929 13.350 19.742 13.523 M11.600 18.195 C 11.296 18.261,11.191 18.374,10.904 18.949 C 10.768 19.222,10.696 19.323,10.630 19.337 C 10.580 19.348,10.282 19.375,9.967 19.397 C 9.403 19.437,9.390 19.441,9.207 19.576 C 9.104 19.652,8.959 19.777,8.884 19.855 L 8.748 19.996 8.770 20.308 C 8.800 20.734,8.884 20.921,9.155 21.165 C 9.713 21.666,11.157 22.504,11.734 22.660 C 11.984 22.728,12.006 22.727,12.267 22.657 C 12.889 22.491,14.233 21.710,14.773 21.202 C 15.120 20.875,15.216 20.696,15.217 20.380 C 15.217 20.102,15.151 19.955,14.909 19.692 C 14.658 19.421,14.580 19.394,13.881 19.346 L 13.260 19.304 13.087 18.951 C 12.881 18.529,12.682 18.305,12.460 18.245 C 12.238 18.186,11.768 18.158,11.600 18.195 " fill="#373B4D" stroke="none" fill-rule="evenodd"></path></svg>