<svg width="24" height="24" viewBox="0 0 24 24" fill="none" xmlns="http://www.w3.org/2000/svg"><path d="M11.760 1.269 C 11.388 1.337,9.427 2.480,9.025 2.863 C 8.769 3.107,8.667 3.555,8.779 3.943 C 8.834 4.136,8.889 4.222,9.076 4.404 C 9.337 4.660,9.602 4.771,9.946 4.771 C 10.191 4.771,10.491 4.639,11.421 4.119 L 12.000 3.796 12.570 4.113 C 13.716 4.752,13.903 4.821,14.289 4.752 C 14.725 4.674,15.065 4.366,15.201 3.927 C 15.293 3.628,15.302 3.369,15.226 3.189 C 15.080 2.845,14.144 2.193,12.897 1.566 C 12.328 1.280,12.069 1.213,11.760 1.269 M5.060 5.005 C 4.906 5.094,4.516 5.317,4.194 5.500 C 3.430 5.934,2.836 6.330,2.663 6.522 C 2.439 6.770,2.426 6.871,2.423 8.400 C 2.420 10.003,2.428 10.060,2.720 10.359 C 2.971 10.617,3.198 10.728,3.526 10.751 C 3.843 10.774,4.091 10.702,4.320 10.520 C 4.534 10.351,4.640 10.163,4.761 9.741 C 4.818 9.542,4.873 9.380,4.883 9.381 C 4.892 9.381,5.075 9.426,5.289 9.479 C 5.634 9.566,5.703 9.572,5.898 9.531 C 6.192 9.469,6.363 9.384,6.534 9.213 C 7.055 8.692,6.942 7.871,6.283 7.385 L 6.042 7.208 6.261 7.039 C 6.619 6.763,6.880 6.330,6.880 6.011 C 6.880 5.765,6.749 5.436,6.572 5.240 C 6.357 5.000,6.090 4.890,5.651 4.862 C 5.344 4.842,5.336 4.844,5.060 5.005 M17.820 4.933 C 17.305 5.184,17.025 5.772,17.174 6.286 C 17.257 6.570,17.424 6.796,17.719 7.026 L 17.958 7.211 17.739 7.367 C 17.323 7.666,17.082 8.120,17.135 8.507 C 17.216 9.098,17.715 9.560,18.272 9.560 C 18.347 9.560,18.557 9.521,18.739 9.473 C 18.920 9.426,19.095 9.397,19.129 9.410 C 19.166 9.424,19.199 9.514,19.217 9.647 C 19.300 10.275,19.717 10.690,20.322 10.745 C 20.695 10.780,20.875 10.718,21.156 10.457 C 21.587 10.058,21.580 10.090,21.578 8.440 C 21.575 6.890,21.561 6.775,21.355 6.541 C 21.116 6.268,20.009 5.569,19.110 5.122 C 18.679 4.908,18.584 4.877,18.320 4.857 C 18.057 4.838,17.996 4.847,17.820 4.933 M9.616 9.657 C 9.075 9.826,8.678 10.384,8.732 10.900 C 8.785 11.417,9.153 11.763,10.384 12.455 L 10.787 12.681 10.813 13.631 C 10.827 14.153,10.851 14.650,10.865 14.735 C 10.898 14.922,11.278 15.351,11.511 15.463 C 11.717 15.563,12.281 15.564,12.487 15.465 C 12.700 15.362,13.064 14.965,13.117 14.777 C 13.141 14.691,13.173 14.184,13.187 13.652 L 13.213 12.684 13.816 12.338 C 15.020 11.647,15.263 11.387,15.258 10.796 C 15.253 10.203,14.814 9.725,14.210 9.654 C 13.935 9.622,13.626 9.739,12.750 10.206 L 12.000 10.606 11.330 10.251 C 10.551 9.838,10.249 9.701,10.000 9.643 C 9.786 9.594,9.819 9.593,9.616 9.657 M3.076 13.360 C 2.997 13.402,2.840 13.536,2.729 13.658 C 2.440 13.974,2.425 14.070,2.422 15.600 C 2.420 17.088,2.441 17.236,2.692 17.509 C 2.964 17.804,4.006 18.452,4.949 18.912 C 5.346 19.106,5.451 19.140,5.686 19.154 C 5.921 19.167,5.992 19.154,6.177 19.063 C 6.693 18.811,6.981 18.208,6.826 17.707 C 6.699 17.298,6.463 17.089,5.471 16.506 L 4.812 16.118 4.790 15.109 C 4.778 14.554,4.750 14.054,4.728 13.997 C 4.663 13.832,4.292 13.453,4.106 13.363 C 3.871 13.249,3.289 13.247,3.076 13.360 M19.871 13.362 C 19.664 13.472,19.444 13.701,19.356 13.901 C 19.243 14.156,19.202 14.545,19.201 15.366 L 19.200 16.112 18.730 16.384 C 17.566 17.056,17.287 17.287,17.176 17.667 C 17.120 17.859,17.115 17.943,17.149 18.144 C 17.254 18.763,17.628 19.107,18.242 19.151 C 18.574 19.175,18.816 19.078,19.731 18.557 C 20.967 17.854,21.427 17.492,21.528 17.142 C 21.561 17.031,21.576 16.533,21.575 15.560 C 21.575 13.958,21.583 14.006,21.265 13.653 C 20.995 13.354,20.817 13.280,20.377 13.282 C 20.101 13.283,19.986 13.301,19.871 13.362 M11.391 18.201 C 11.080 18.407,10.870 18.758,10.816 19.159 C 10.780 19.433,10.745 19.452,10.444 19.358 C 10.156 19.269,9.712 19.255,9.466 19.329 C 9.257 19.392,8.870 19.772,8.796 19.985 C 8.767 20.070,8.743 20.248,8.742 20.380 C 8.738 21.014,9.051 21.310,10.692 22.224 C 11.464 22.653,11.803 22.779,12.107 22.748 C 12.361 22.722,12.801 22.523,13.505 22.118 C 14.525 21.530,15.074 21.117,15.186 20.851 C 15.250 20.699,15.258 20.133,15.199 19.977 C 15.132 19.801,14.923 19.564,14.705 19.417 C 14.516 19.290,14.479 19.280,14.186 19.280 C 14.013 19.280,13.749 19.310,13.599 19.346 C 13.450 19.382,13.301 19.401,13.270 19.389 C 13.235 19.376,13.202 19.286,13.188 19.164 C 13.155 18.887,13.040 18.641,12.840 18.425 C 12.586 18.149,12.409 18.080,11.954 18.080 C 11.597 18.080,11.562 18.088,11.391 18.201 " fill="#373B4D" stroke="none" fill-rule="evenodd"></path></svg>