<svg width="24" height="24" viewBox="0 0 24 24" fill="none" xmlns="http://www.w3.org/2000/svg"><path d="M11.660 2.509 C 11.410 2.571,6.825 4.847,5.959 5.340 C 5.707 5.483,5.451 5.659,5.391 5.730 C 5.211 5.943,5.109 6.261,5.131 6.541 C 5.165 6.984,5.346 7.211,5.946 7.566 C 6.726 8.027,10.786 10.072,11.460 10.342 C 11.844 10.497,12.128 10.497,12.500 10.344 C 13.242 10.038,17.116 8.117,18.058 7.587 C 18.693 7.230,18.841 7.008,18.839 6.412 C 18.838 5.942,18.675 5.712,18.120 5.400 C 16.774 4.643,12.729 2.643,12.336 2.541 C 12.110 2.482,11.824 2.469,11.660 2.509 M4.525 9.967 C 4.304 10.005,3.976 10.249,3.760 10.536 L 3.598 10.750 3.609 14.545 C 3.619 18.000,3.626 18.351,3.687 18.460 C 3.769 18.608,4.000 18.828,4.244 18.992 C 4.665 19.275,8.888 21.410,9.290 21.543 C 9.464 21.601,9.522 21.603,9.716 21.560 C 10.110 21.473,10.362 21.307,10.646 20.948 L 10.800 20.753 10.800 16.995 C 10.800 13.290,10.799 13.235,10.718 13.077 C 10.528 12.703,10.244 12.513,8.677 11.708 C 7.607 11.158,5.515 10.144,5.260 10.051 C 5.028 9.967,4.726 9.932,4.525 9.967 M18.880 9.966 C 18.660 10.031,16.681 10.992,15.580 11.567 C 13.845 12.474,13.414 12.750,13.287 13.033 C 13.228 13.166,13.221 13.537,13.221 16.940 L 13.220 20.700 13.310 20.868 C 13.492 21.210,13.940 21.517,14.349 21.583 C 14.583 21.620,14.930 21.468,17.160 20.352 C 19.806 19.028,20.116 18.840,20.322 18.437 C 20.401 18.281,20.402 18.224,20.391 14.509 C 20.379 10.310,20.403 10.660,20.097 10.344 C 19.808 10.047,19.220 9.864,18.880 9.966 " fill="#373B4D" stroke="none" fill-rule="evenodd"></path></svg>