<svg width="24" height="24" viewBox="0 0 24 24" fill="none" xmlns="http://www.w3.org/2000/svg"><path d="M10.120 3.275 C 8.590 4.025,6.765 4.959,6.120 5.322 C 5.070 5.913,4.866 6.528,5.507 7.175 C 5.792 7.462,6.073 7.640,7.047 8.146 C 8.407 8.852,11.224 10.219,11.575 10.343 C 11.874 10.448,11.903 10.451,12.135 10.404 C 12.270 10.376,12.605 10.261,12.880 10.149 C 13.466 9.908,17.424 7.939,17.920 7.641 C 18.510 7.286,18.740 7.001,18.785 6.570 C 18.831 6.127,18.652 5.788,18.228 5.517 C 17.947 5.337,13.626 3.165,12.918 2.848 C 12.425 2.627,12.165 2.560,11.805 2.560 C 11.595 2.560,11.484 2.607,10.120 3.275 M4.380 10.067 C 4.218 10.154,3.976 10.339,3.770 10.535 L 3.600 10.697 3.600 14.544 L 3.600 18.392 3.822 18.595 C 4.297 19.029,5.061 19.469,7.060 20.459 C 8.618 21.231,9.247 21.512,9.501 21.546 C 9.634 21.565,9.722 21.547,9.899 21.465 C 10.124 21.363,10.530 21.064,10.714 20.867 L 10.809 20.765 10.794 16.944 L 10.780 13.123 10.620 12.960 C 10.397 12.732,9.995 12.462,9.340 12.102 C 8.581 11.684,5.987 10.404,5.535 10.225 C 4.964 9.998,4.602 9.949,4.380 10.067 M17.812 10.446 C 17.332 10.691,16.463 11.143,15.880 11.450 C 14.026 12.428,13.485 12.757,13.373 12.973 C 13.337 13.042,13.299 13.286,13.278 13.575 C 13.229 14.249,13.230 20.413,13.279 20.685 C 13.314 20.874,13.345 20.925,13.545 21.109 C 13.933 21.468,14.270 21.577,14.687 21.480 C 15.113 21.380,19.231 19.326,19.680 18.989 C 19.801 18.899,20.003 18.726,20.130 18.606 L 20.360 18.388 20.355 15.724 C 20.353 14.259,20.339 12.526,20.325 11.873 L 20.300 10.687 20.180 10.517 C 19.960 10.205,19.447 10.000,18.888 10.000 C 18.706 10.000,18.587 10.049,17.812 10.446 " fill="#373B4D" stroke="none" fill-rule="evenodd"></path></svg>