<svg width="24" height="24" viewBox="0 0 24 24" fill="none" xmlns="http://www.w3.org/2000/svg"><path d="M10.380 2.584 C 9.146 2.805,7.814 3.332,6.818 3.994 C 5.607 4.798,4.441 6.012,3.731 7.210 C 3.095 8.282,2.595 9.799,2.477 11.017 C 2.416 11.644,2.450 13.022,2.538 13.500 C 2.834 15.098,3.464 16.562,4.384 17.783 C 4.692 18.193,5.413 18.941,5.860 19.314 C 6.955 20.230,8.796 21.132,10.113 21.398 C 10.966 21.570,12.647 21.601,13.520 21.460 C 14.869 21.242,16.569 20.504,17.751 19.625 C 18.512 19.058,19.458 18.066,19.930 17.340 C 20.536 16.406,21.175 14.903,21.408 13.860 C 21.477 13.553,21.492 13.309,21.509 12.193 C 21.531 10.702,21.515 10.522,21.278 9.660 C 20.383 6.398,18.040 3.934,14.858 2.907 C 14.259 2.714,13.727 2.612,13.060 2.562 C 12.253 2.502,10.772 2.514,10.380 2.584 M16.196 6.224 C 16.498 6.473,16.594 6.620,16.641 6.902 C 16.721 7.391,16.676 7.654,16.467 7.929 C 16.195 8.285,16.053 8.327,14.780 8.421 C 14.318 8.455,13.924 8.500,13.904 8.520 C 13.882 8.542,13.941 8.758,14.053 9.064 C 14.155 9.343,14.243 9.576,14.249 9.581 C 14.255 9.586,14.557 9.611,14.920 9.637 C 16.039 9.716,16.261 9.782,16.482 10.103 C 16.726 10.458,16.746 11.162,16.520 11.474 C 16.229 11.875,15.981 11.957,14.975 11.989 L 14.250 12.011 14.160 12.236 C 14.001 12.632,13.637 13.291,13.409 13.597 C 12.923 14.248,12.313 14.749,11.428 15.221 L 11.114 15.389 11.624 15.924 C 12.966 17.333,13.165 17.623,13.101 18.077 C 13.034 18.561,12.834 18.857,12.448 19.047 C 12.195 19.172,11.810 19.173,11.575 19.050 C 11.305 18.909,10.634 18.280,8.925 16.567 L 7.310 14.948 7.329 14.464 C 7.351 13.892,7.421 13.712,7.690 13.528 C 7.969 13.337,8.034 13.323,9.240 13.198 C 10.174 13.100,10.494 13.033,10.726 12.883 C 10.991 12.712,11.520 12.245,11.520 12.181 C 11.520 12.104,11.390 12.091,9.880 12.018 C 7.920 11.924,7.836 11.906,7.534 11.532 C 7.398 11.364,7.361 11.282,7.338 11.097 C 7.265 10.512,7.412 10.087,7.762 9.871 C 7.990 9.730,8.289 9.699,10.020 9.641 C 11.359 9.597,11.640 9.576,11.640 9.523 C 11.640 9.454,11.027 8.929,10.754 8.766 C 10.522 8.627,10.071 8.533,9.196 8.441 C 8.049 8.321,7.862 8.274,7.651 8.056 C 7.373 7.768,7.342 7.679,7.341 7.180 C 7.340 6.785,7.350 6.724,7.436 6.586 C 7.566 6.377,7.804 6.213,8.053 6.162 C 8.259 6.119,11.594 6.059,14.516 6.046 L 15.972 6.040 16.196 6.224 " fill="#373B4D" stroke="none" fill-rule="evenodd"></path></svg>