<svg width="24" height="24" viewBox="0 0 24 24" fill="none" xmlns="http://www.w3.org/2000/svg"><path d="M10.920 2.521 C 10.406 2.554,9.805 2.680,9.125 2.900 C 6.103 3.877,3.905 6.060,2.904 9.080 C 2.649 9.851,2.537 10.393,2.481 11.129 C 2.358 12.732,2.535 14.024,3.064 15.392 C 4.135 18.165,6.258 20.164,9.160 21.132 C 10.055 21.431,10.817 21.536,12.080 21.536 C 13.241 21.536,13.977 21.420,15.005 21.076 C 16.319 20.636,17.356 20.026,18.383 19.088 C 19.410 18.150,19.989 17.388,20.562 16.220 C 21.042 15.241,21.301 14.460,21.466 13.500 C 21.566 12.920,21.566 11.066,21.467 10.500 C 21.210 9.026,20.575 7.536,19.687 6.320 C 18.354 4.495,16.304 3.171,14.028 2.662 C 13.352 2.511,12.035 2.451,10.920 2.521 M12.490 4.970 C 12.814 5.106,13.063 5.446,13.161 5.885 L 13.211 6.110 13.529 6.198 C 14.176 6.375,15.122 6.850,15.578 7.226 C 16.056 7.620,16.237 7.944,16.239 8.412 C 16.242 9.030,15.835 9.495,15.244 9.549 C 14.886 9.581,14.636 9.487,14.073 9.105 C 13.634 8.808,13.284 8.600,13.222 8.600 C 13.210 8.600,13.200 9.122,13.200 9.760 C 13.200 10.804,13.207 10.920,13.265 10.920 C 13.398 10.920,14.164 11.201,14.526 11.383 C 15.543 11.893,16.102 12.413,16.477 13.200 C 16.689 13.643,16.732 13.896,16.711 14.580 C 16.696 15.080,16.682 15.169,16.581 15.414 C 16.239 16.246,15.509 16.966,14.546 17.422 C 14.206 17.583,13.371 17.880,13.258 17.880 C 13.232 17.880,13.191 17.981,13.166 18.104 C 13.078 18.542,12.699 19.026,12.374 19.117 C 12.164 19.175,11.772 19.168,11.590 19.103 C 11.242 18.979,10.996 18.670,10.838 18.160 L 10.758 17.899 10.277 17.746 C 9.390 17.463,8.703 17.068,8.169 16.536 C 7.850 16.217,7.755 16.008,7.746 15.606 C 7.739 15.257,7.834 15.008,8.058 14.786 C 8.285 14.560,8.541 14.459,8.867 14.467 C 9.228 14.476,9.368 14.537,9.999 14.959 C 10.423 15.243,10.700 15.400,10.779 15.400 C 10.790 15.400,10.800 14.881,10.800 14.246 L 10.800 13.093 10.470 13.003 C 9.088 12.627,8.047 11.863,7.543 10.854 C 7.338 10.442,7.265 10.104,7.265 9.560 C 7.266 8.666,7.541 8.091,8.329 7.336 C 8.817 6.868,9.412 6.540,10.315 6.241 L 10.771 6.091 10.859 5.812 C 10.907 5.659,10.988 5.461,11.038 5.372 C 11.146 5.181,11.468 4.922,11.651 4.880 C 11.849 4.835,12.278 4.881,12.490 4.970 M10.520 8.707 C 10.227 8.878,9.805 9.234,9.694 9.402 C 9.550 9.620,9.587 9.723,9.935 10.065 C 10.374 10.498,10.701 10.630,10.764 10.400 C 10.799 10.275,10.808 8.813,10.775 8.690 C 10.745 8.577,10.739 8.578,10.520 8.707 M13.200 14.400 L 13.200 15.405 13.290 15.378 C 13.593 15.286,14.114 14.889,14.277 14.625 C 14.386 14.448,14.382 14.336,14.259 14.158 C 14.098 13.927,13.530 13.494,13.290 13.422 L 13.200 13.395 13.200 14.400 " fill="#373B4D" stroke="none" fill-rule="evenodd"></path></svg>