<svg width="24" height="24" viewBox="0 0 24 24" fill="none" xmlns="http://www.w3.org/2000/svg"><path d="M10.700 2.639 C 9.772 2.703,8.818 2.990,7.745 3.528 C 6.195 4.305,4.939 5.415,4.043 6.800 C 3.373 7.835,2.795 9.265,2.578 10.426 C 2.489 10.901,2.454 12.412,2.518 13.013 C 2.669 14.427,3.127 15.747,3.900 16.997 C 4.606 18.138,5.956 19.468,7.121 20.169 C 8.020 20.710,9.290 21.201,10.254 21.379 C 10.665 21.455,11.549 21.519,12.202 21.520 C 13.876 21.521,15.631 20.982,17.120 20.009 C 18.095 19.371,19.416 18.076,19.991 17.191 C 20.538 16.350,21.145 14.904,21.361 13.931 C 21.534 13.149,21.566 11.215,21.420 10.400 C 21.131 8.794,20.296 7.064,19.184 5.773 C 18.390 4.850,17.486 4.164,16.238 3.537 C 15.241 3.037,14.473 2.779,13.680 2.679 C 13.235 2.623,11.312 2.597,10.700 2.639 M12.545 5.070 C 12.724 5.164,12.903 5.404,13.120 5.840 L 13.250 6.100 13.855 6.355 C 14.188 6.495,14.628 6.702,14.834 6.814 C 15.316 7.077,15.824 7.486,15.975 7.731 C 16.079 7.899,16.094 7.967,16.111 8.321 C 16.127 8.636,16.116 8.758,16.062 8.899 C 15.975 9.127,15.702 9.371,15.411 9.480 C 15.200 9.559,15.180 9.560,14.965 9.499 C 14.841 9.464,14.430 9.281,14.052 9.092 C 13.673 8.904,13.337 8.760,13.306 8.772 C 13.166 8.826,13.172 10.658,13.312 10.814 C 13.349 10.855,13.696 11.046,14.083 11.237 C 14.902 11.642,15.271 11.877,15.654 12.238 C 15.986 12.552,16.223 12.853,16.422 13.216 C 16.559 13.465,16.574 13.523,16.603 13.933 C 16.621 14.179,16.636 14.585,16.638 14.837 L 16.640 15.293 16.453 15.597 C 16.197 16.013,15.933 16.340,15.611 16.644 C 15.181 17.049,14.896 17.218,13.864 17.682 C 13.339 17.917,13.200 18.030,12.997 18.386 C 12.683 18.938,12.354 19.155,11.903 19.109 C 11.493 19.066,11.291 18.907,10.979 18.379 C 10.862 18.180,10.731 17.986,10.689 17.948 C 10.647 17.910,10.326 17.755,9.976 17.605 C 8.950 17.163,8.492 16.855,8.069 16.322 L 7.830 16.022 7.850 15.599 C 7.876 15.038,7.983 14.847,8.380 14.649 C 8.787 14.447,9.049 14.500,9.996 14.980 C 10.365 15.167,10.685 15.320,10.709 15.320 C 10.790 15.320,10.800 15.189,10.800 14.147 L 10.800 13.100 10.359 12.946 C 9.455 12.631,8.829 12.264,8.299 11.740 C 7.869 11.315,7.580 10.897,7.471 10.542 C 7.351 10.153,7.341 9.107,7.454 8.740 C 7.662 8.060,8.140 7.472,8.881 6.982 C 9.186 6.781,9.567 6.585,10.176 6.315 C 10.415 6.209,10.646 6.090,10.690 6.051 C 10.733 6.012,10.841 5.854,10.930 5.700 C 11.141 5.337,11.305 5.129,11.457 5.033 C 11.634 4.921,12.304 4.945,12.545 5.070 M10.480 8.767 C 10.146 9.020,9.761 9.361,9.693 9.465 C 9.636 9.552,9.639 9.572,9.732 9.731 C 9.909 10.031,10.490 10.515,10.617 10.467 C 10.716 10.429,10.763 10.166,10.788 9.517 C 10.810 8.922,10.789 8.599,10.728 8.601 C 10.713 8.601,10.601 8.676,10.480 8.767 M13.227 13.467 C 13.190 13.504,13.193 15.400,13.230 15.400 C 13.326 15.398,13.721 15.118,13.980 14.869 C 14.250 14.608,14.280 14.564,14.280 14.427 C 14.280 14.299,14.247 14.241,14.070 14.052 C 13.882 13.853,13.350 13.440,13.280 13.440 C 13.266 13.440,13.241 13.452,13.227 13.467 " fill="#373B4D" stroke="none" fill-rule="evenodd"></path></svg>