<svg width="24" height="24" viewBox="0 0 24 24" fill="none" xmlns="http://www.w3.org/2000/svg"><path d="M10.680 2.562 C 9.847 2.629,8.634 3.012,7.629 3.528 C 6.202 4.260,4.700 5.649,3.844 7.030 C 3.150 8.149,2.629 9.657,2.483 10.968 C 2.393 11.782,2.448 13.117,2.601 13.808 C 2.934 15.313,3.521 16.620,4.374 17.760 C 4.745 18.256,5.679 19.189,6.160 19.545 C 7.337 20.416,8.933 21.157,10.160 21.403 C 10.776 21.526,11.996 21.584,12.790 21.528 C 13.767 21.459,14.413 21.305,15.429 20.897 C 17.178 20.195,18.614 19.108,19.703 17.660 C 20.334 16.821,21.026 15.314,21.362 14.047 C 21.467 13.651,21.517 12.929,21.518 11.780 C 21.520 10.756,21.475 10.352,21.285 9.680 C 20.787 7.921,19.954 6.474,18.748 5.274 C 17.986 4.515,17.233 3.978,16.240 3.485 C 15.354 3.044,14.574 2.780,13.756 2.644 C 13.093 2.533,11.552 2.492,10.680 2.562 M9.180 4.980 C 9.578 5.055,9.881 5.178,10.212 5.400 C 10.625 5.676,11.165 6.197,11.394 6.539 C 11.714 7.018,11.820 7.442,11.940 8.740 C 11.975 9.114,12.011 9.443,12.021 9.471 C 12.055 9.572,12.249 9.594,13.503 9.638 C 14.205 9.663,15.059 9.701,15.400 9.722 C 16.164 9.770,16.310 9.828,16.510 10.160 C 16.636 10.369,16.640 10.391,16.640 10.819 C 16.640 11.259,16.639 11.262,16.499 11.471 C 16.310 11.751,16.124 11.867,15.780 11.922 C 15.626 11.946,14.713 11.976,13.750 11.988 L 12.000 12.011 12.003 13.095 C 12.004 13.692,12.019 14.560,12.036 15.024 C 12.072 16.014,12.099 16.101,12.479 16.452 C 12.732 16.687,12.824 16.720,13.226 16.720 C 13.541 16.720,13.701 16.656,13.941 16.435 C 14.234 16.165,14.272 16.054,14.402 15.095 C 14.465 14.624,14.536 14.171,14.559 14.089 C 14.625 13.849,14.768 13.633,14.953 13.492 C 15.125 13.361,15.129 13.360,15.576 13.360 C 16.015 13.360,16.031 13.363,16.217 13.487 C 16.426 13.625,16.707 13.952,16.744 14.101 C 16.770 14.207,16.698 15.594,16.637 16.136 C 16.564 16.792,16.303 17.380,15.869 17.867 C 15.032 18.805,14.321 19.137,13.160 19.132 C 12.542 19.129,12.176 19.052,11.689 18.821 C 11.035 18.511,10.420 17.875,10.035 17.110 C 9.817 16.677,9.768 16.450,9.721 15.665 C 9.678 14.947,9.601 12.783,9.600 12.296 L 9.600 12.013 8.950 11.988 C 8.557 11.973,8.220 11.939,8.098 11.902 C 7.853 11.829,7.597 11.617,7.450 11.367 C 7.351 11.198,7.340 11.143,7.340 10.800 C 7.341 9.968,7.640 9.746,8.900 9.641 C 9.164 9.619,9.432 9.601,9.496 9.600 L 9.611 9.600 9.588 8.990 C 9.545 7.879,9.415 7.649,8.642 7.318 C 7.840 6.975,7.603 6.843,7.478 6.671 C 7.363 6.512,7.360 6.497,7.360 6.020 C 7.360 5.544,7.363 5.528,7.477 5.370 C 7.812 4.908,8.255 4.806,9.180 4.980 " fill="#373B4D" stroke="none" fill-rule="evenodd"></path></svg>