<svg width="24" height="24" viewBox="0 0 24 24" fill="none" xmlns="http://www.w3.org/2000/svg"><path d="M10.780 2.522 C 9.848 2.624,8.586 3.017,7.649 3.498 C 6.239 4.220,4.873 5.459,3.942 6.860 C 3.237 7.919,2.668 9.464,2.501 10.772 C 2.431 11.317,2.420 12.576,2.481 13.081 C 2.696 14.862,3.457 16.662,4.570 18.020 C 4.877 18.396,5.581 19.099,5.937 19.386 C 6.938 20.194,8.256 20.876,9.552 21.258 C 10.154 21.435,10.437 21.479,11.293 21.528 C 12.395 21.591,13.323 21.535,14.020 21.363 C 15.488 21.001,16.913 20.310,18.020 19.422 C 18.626 18.936,19.442 18.067,19.832 17.491 C 20.332 16.753,20.800 15.791,21.123 14.839 C 21.420 13.961,21.478 13.657,21.519 12.742 C 21.551 12.020,21.517 10.595,21.463 10.380 C 21.451 10.336,21.387 10.078,21.320 9.807 C 20.774 7.596,19.537 5.736,17.700 4.361 C 16.366 3.362,14.633 2.668,13.220 2.565 C 12.385 2.504,11.143 2.483,10.780 2.522 M8.880 4.923 C 9.440 4.976,9.773 5.095,10.253 5.414 C 10.626 5.662,11.093 6.100,11.350 6.442 C 11.716 6.928,11.843 7.408,11.946 8.700 C 11.982 9.162,12.023 9.551,12.036 9.565 C 12.049 9.578,12.798 9.610,13.700 9.636 C 15.456 9.686,16.020 9.726,16.192 9.816 C 16.452 9.952,16.622 10.230,16.675 10.608 C 16.745 11.098,16.623 11.437,16.269 11.740 C 16.026 11.949,15.842 11.967,13.810 11.989 L 12.000 12.009 12.002 13.315 C 12.005 14.957,12.047 15.848,12.132 16.050 C 12.214 16.243,12.558 16.587,12.750 16.667 C 12.979 16.763,13.475 16.749,13.700 16.640 C 13.928 16.530,14.176 16.249,14.258 16.008 C 14.294 15.905,14.367 15.424,14.421 14.940 C 14.507 14.175,14.534 14.031,14.630 13.840 C 14.838 13.425,15.164 13.280,15.783 13.330 C 16.119 13.357,16.340 13.490,16.582 13.809 L 16.771 14.060 16.744 14.780 C 16.730 15.176,16.699 15.716,16.676 15.980 C 16.598 16.864,16.316 17.450,15.643 18.123 C 14.987 18.779,14.450 19.044,13.625 19.121 C 12.387 19.236,11.495 18.925,10.707 18.103 C 10.266 17.643,9.831 16.868,9.761 16.419 C 9.716 16.123,9.651 14.674,9.615 13.150 L 9.589 12.000 9.184 11.999 C 8.613 11.997,8.072 11.938,7.923 11.861 C 7.769 11.782,7.506 11.524,7.399 11.348 C 7.290 11.170,7.287 10.496,7.395 10.260 C 7.476 10.080,7.710 9.857,7.898 9.778 C 8.055 9.713,8.521 9.652,9.135 9.617 L 9.610 9.590 9.590 8.965 C 9.551 7.787,9.398 7.561,8.398 7.208 C 7.869 7.022,7.692 6.925,7.520 6.731 C 7.331 6.516,7.303 6.393,7.329 5.893 C 7.347 5.556,7.362 5.495,7.466 5.348 C 7.669 5.059,7.944 4.917,8.360 4.885 C 8.393 4.882,8.627 4.900,8.880 4.923 " fill="#373B4D" stroke="none" fill-rule="evenodd"></path></svg>