<svg width="24" height="24" viewBox="0 0 24 24" fill="none" xmlns="http://www.w3.org/2000/svg"><path d="M10.760 2.522 C 10.374 2.561,9.778 2.692,9.213 2.863 C 7.699 3.321,6.431 4.086,5.278 5.239 C 4.146 6.370,3.447 7.473,2.937 8.932 C 2.589 9.928,2.429 10.874,2.427 11.940 C 2.425 12.966,2.541 13.773,2.827 14.720 C 3.603 17.286,5.348 19.360,7.722 20.537 C 8.525 20.935,9.507 21.288,10.181 21.420 C 10.954 21.572,12.804 21.593,13.592 21.458 C 14.060 21.378,14.717 21.191,15.300 20.971 C 17.069 20.304,18.595 19.166,19.682 17.700 C 20.542 16.540,21.320 14.686,21.487 13.400 C 21.553 12.883,21.554 11.041,21.487 10.580 C 21.355 9.662,20.930 8.407,20.452 7.520 C 19.135 5.077,16.774 3.289,14.060 2.676 C 13.604 2.573,13.417 2.554,12.540 2.521 C 11.413 2.478,11.186 2.478,10.760 2.522 M16.238 6.251 C 16.554 6.507,16.623 6.621,16.680 6.980 C 16.759 7.472,16.656 7.791,16.320 8.095 C 16.061 8.330,16.020 8.338,14.747 8.416 C 14.269 8.445,13.869 8.478,13.858 8.489 C 13.847 8.500,13.928 8.748,14.039 9.041 C 14.150 9.334,14.240 9.578,14.240 9.582 C 14.240 9.587,14.488 9.602,14.790 9.617 C 15.482 9.651,15.928 9.708,16.127 9.787 C 16.332 9.870,16.576 10.153,16.645 10.390 C 16.675 10.494,16.699 10.715,16.699 10.880 C 16.698 11.232,16.613 11.430,16.354 11.681 C 16.111 11.917,15.914 11.962,15.016 11.989 L 14.251 12.011 14.121 12.336 C 13.611 13.611,12.781 14.515,11.507 15.183 L 11.115 15.389 11.838 16.148 C 12.606 16.954,12.957 17.368,13.064 17.595 C 13.146 17.768,13.123 18.254,13.020 18.510 C 12.932 18.727,12.616 19.013,12.373 19.096 C 12.127 19.180,11.818 19.176,11.620 19.085 C 11.531 19.045,11.342 18.916,11.200 18.798 C 10.857 18.516,8.581 16.262,7.871 15.503 L 7.312 14.905 7.326 14.399 C 7.339 13.915,7.345 13.887,7.454 13.744 C 7.619 13.528,7.854 13.372,8.091 13.321 C 8.205 13.297,8.623 13.250,9.019 13.218 C 10.159 13.125,10.409 13.077,10.728 12.890 C 10.984 12.740,11.614 12.158,11.570 12.114 C 11.550 12.094,10.851 12.052,10.017 12.019 C 7.959 11.939,7.869 11.925,7.589 11.624 C 7.354 11.371,7.300 11.215,7.301 10.800 C 7.303 10.395,7.337 10.289,7.543 10.044 C 7.771 9.773,7.927 9.721,8.626 9.681 C 8.975 9.661,9.805 9.632,10.470 9.616 C 11.136 9.601,11.680 9.574,11.680 9.557 C 11.680 9.497,11.041 8.936,10.819 8.802 C 10.464 8.588,10.234 8.530,9.478 8.462 C 7.920 8.323,7.864 8.309,7.590 8.005 C 7.347 7.737,7.320 7.652,7.320 7.168 C 7.320 6.749,7.325 6.726,7.437 6.570 C 7.570 6.387,7.763 6.229,7.940 6.157 C 8.066 6.106,10.666 6.061,14.220 6.048 L 15.980 6.042 16.238 6.251 " fill="#373B4D" stroke="none" fill-rule="evenodd"></path></svg>