<svg width="24" height="24" viewBox="0 0 24 24" fill="none" xmlns="http://www.w3.org/2000/svg"><path d="M10.800 2.560 C 9.246 2.685,7.471 3.441,6.040 4.585 C 5.599 4.937,4.771 5.770,4.440 6.194 C 3.480 7.422,2.855 8.853,2.533 10.560 C 2.444 11.034,2.431 12.733,2.513 13.300 C 2.652 14.269,3.083 15.571,3.565 16.480 C 3.987 17.275,4.415 17.854,5.100 18.555 C 6.022 19.499,6.625 19.943,7.760 20.518 C 9.182 21.237,10.130 21.486,11.668 21.544 C 12.869 21.589,13.772 21.467,14.800 21.121 C 16.055 20.698,17.043 20.168,18.000 19.405 C 19.520 18.193,20.455 16.796,21.163 14.680 C 21.468 13.769,21.494 13.558,21.497 12.000 C 21.500 10.529,21.486 10.391,21.255 9.591 C 20.689 7.634,19.633 5.982,18.143 4.724 C 16.822 3.609,14.953 2.773,13.400 2.604 C 12.865 2.546,11.301 2.519,10.800 2.560 M16.208 6.240 C 16.542 6.537,16.640 6.762,16.640 7.229 C 16.640 7.652,16.587 7.798,16.346 8.046 C 16.118 8.280,15.953 8.317,14.527 8.457 C 14.211 8.488,13.943 8.523,13.931 8.535 C 13.900 8.567,13.988 8.891,14.124 9.245 C 14.263 9.606,14.184 9.571,15.080 9.660 C 16.089 9.760,16.269 9.819,16.469 10.117 C 16.673 10.419,16.718 10.994,16.565 11.340 C 16.345 11.834,16.055 11.948,14.920 11.989 L 14.260 12.012 13.975 12.596 C 13.400 13.772,12.727 14.480,11.550 15.147 C 11.335 15.269,11.160 15.385,11.160 15.405 C 11.160 15.425,11.419 15.716,11.737 16.051 C 12.463 16.818,12.846 17.279,12.983 17.550 C 13.078 17.737,13.088 17.795,13.072 18.051 C 13.030 18.691,12.604 19.120,12.011 19.120 C 11.537 19.120,11.500 19.090,9.125 16.760 L 7.309 14.980 7.336 14.540 C 7.369 13.994,7.410 13.837,7.568 13.657 C 7.792 13.402,7.900 13.372,9.224 13.200 C 9.733 13.135,10.267 13.044,10.411 13.000 C 10.698 12.911,11.026 12.687,11.333 12.370 C 11.501 12.197,11.517 12.167,11.453 12.143 C 11.413 12.127,10.939 12.089,10.400 12.058 C 8.350 11.939,7.980 11.894,7.737 11.734 C 7.681 11.698,7.578 11.585,7.508 11.484 C 7.381 11.302,7.380 11.296,7.380 10.813 C 7.380 10.336,7.382 10.324,7.502 10.153 C 7.751 9.799,7.983 9.741,9.420 9.679 C 10.930 9.614,11.566 9.570,11.607 9.529 C 11.673 9.463,10.922 8.851,10.609 8.716 C 10.395 8.623,9.988 8.549,9.000 8.422 C 8.060 8.302,7.846 8.243,7.660 8.058 C 7.435 7.832,7.386 7.702,7.368 7.271 C 7.346 6.772,7.372 6.644,7.528 6.484 C 7.744 6.263,7.929 6.195,8.417 6.155 C 8.863 6.118,12.322 6.058,14.702 6.046 L 15.984 6.040 16.208 6.240 " fill="#373B4D" stroke="none" fill-rule="evenodd"></path></svg>