<svg width="24" height="24" viewBox="0 0 24 24" fill="none" xmlns="http://www.w3.org/2000/svg"><path d="M11.000 2.463 C 8.701 2.737,6.759 3.671,5.175 5.265 C 2.751 7.704,1.820 11.347,2.781 14.634 C 3.551 17.270,5.288 19.358,7.732 20.586 C 8.548 20.996,9.533 21.315,10.507 21.484 C 10.943 21.559,11.167 21.573,12.000 21.573 C 12.833 21.573,13.057 21.559,13.493 21.484 C 16.681 20.930,19.280 18.988,20.644 16.140 C 20.953 15.495,21.137 14.984,21.320 14.263 C 21.528 13.445,21.573 13.025,21.570 11.920 C 21.567 11.152,21.552 10.892,21.483 10.500 C 21.304 9.479,21.026 8.628,20.573 7.714 C 19.332 5.208,17.068 3.393,14.321 2.701 C 13.686 2.541,13.242 2.480,12.412 2.440 C 11.490 2.395,11.587 2.393,11.000 2.463 M16.164 6.165 C 16.589 6.392,16.760 6.697,16.760 7.232 C 16.760 7.489,16.743 7.561,16.633 7.766 C 16.500 8.016,16.309 8.195,16.054 8.310 C 15.923 8.369,15.738 8.381,14.834 8.392 L 13.768 8.406 13.921 8.733 C 14.005 8.913,14.113 9.179,14.161 9.324 L 14.247 9.588 15.080 9.610 L 15.912 9.631 16.159 9.763 C 16.589 9.992,16.760 10.295,16.760 10.832 C 16.760 11.089,16.743 11.161,16.632 11.368 C 16.554 11.516,16.436 11.660,16.326 11.744 C 16.040 11.963,15.847 12.000,14.996 12.000 L 14.247 12.000 14.161 12.267 C 13.967 12.866,13.629 13.452,13.165 13.991 C 12.729 14.497,12.054 14.976,11.391 15.248 L 11.083 15.375 11.999 16.304 C 13.087 17.408,13.159 17.513,13.160 17.984 C 13.160 18.265,13.144 18.339,13.038 18.552 C 12.903 18.822,12.748 18.974,12.490 19.088 C 12.086 19.268,11.649 19.216,11.308 18.948 C 11.041 18.739,8.269 15.991,7.773 15.445 C 7.297 14.921,7.240 14.811,7.240 14.427 C 7.240 14.107,7.304 13.872,7.443 13.684 C 7.554 13.535,7.842 13.326,8.011 13.274 C 8.082 13.251,8.572 13.218,9.100 13.200 C 10.110 13.165,10.303 13.133,10.680 12.938 C 10.951 12.798,11.298 12.507,11.500 12.250 L 11.680 12.020 9.890 12.000 C 8.304 11.982,8.083 11.972,7.946 11.911 C 7.690 11.795,7.500 11.616,7.367 11.366 C 7.257 11.161,7.240 11.089,7.240 10.832 C 7.240 10.294,7.410 9.992,7.843 9.761 L 8.093 9.628 9.886 9.609 L 11.679 9.589 11.547 9.404 C 11.372 9.160,10.944 8.804,10.654 8.662 C 10.251 8.465,10.082 8.438,9.060 8.407 C 8.163 8.380,8.087 8.372,7.906 8.283 C 7.475 8.073,7.221 7.660,7.227 7.180 C 7.236 6.525,7.654 6.095,8.340 6.034 C 8.516 6.019,10.294 6.013,12.291 6.021 L 15.922 6.036 16.164 6.165 " fill="#373B4D" stroke="none" fill-rule="evenodd"></path></svg>