<svg width="24" height="24" viewBox="0 0 24 24" fill="none" xmlns="http://www.w3.org/2000/svg"><path d="M10.460 2.556 C 8.397 2.940,6.796 3.749,5.385 5.120 C 4.496 5.984,3.882 6.821,3.377 7.860 C 2.066 10.554,2.096 13.601,3.462 16.323 C 4.177 17.749,5.334 19.053,6.680 19.949 C 7.607 20.566,8.758 21.065,9.980 21.380 C 10.692 21.563,12.698 21.607,13.602 21.459 C 14.327 21.340,15.373 20.991,16.183 20.597 C 17.678 19.870,19.020 18.714,19.908 17.388 C 20.322 16.768,20.870 15.645,21.111 14.919 C 21.413 14.007,21.475 13.692,21.529 12.787 C 21.595 11.660,21.531 10.569,21.360 9.900 C 21.053 8.702,20.624 7.713,19.996 6.757 C 18.554 4.560,16.139 2.990,13.567 2.575 C 13.303 2.532,12.811 2.507,12.020 2.497 C 11.015 2.484,10.807 2.492,10.460 2.556 M8.800 6.128 C 8.877 6.151,8.998 6.213,9.069 6.266 C 9.281 6.424,9.400 6.606,10.998 9.200 C 11.673 10.296,11.934 10.680,12.003 10.680 C 12.057 10.680,12.629 9.801,13.579 8.260 C 14.841 6.212,14.920 6.121,15.474 6.089 C 15.872 6.066,16.124 6.143,16.378 6.367 C 16.655 6.610,16.697 6.716,16.699 7.160 C 16.700 7.526,16.694 7.552,16.537 7.860 C 16.448 8.036,16.103 8.650,15.770 9.225 C 15.115 10.354,14.931 10.704,14.969 10.742 C 14.983 10.756,15.180 10.793,15.407 10.825 C 15.935 10.898,16.065 10.934,16.260 11.062 C 16.605 11.286,16.749 11.638,16.705 12.153 C 16.683 12.419,16.660 12.489,16.532 12.674 C 16.331 12.965,16.176 13.075,15.895 13.121 C 15.766 13.142,15.160 13.186,14.550 13.219 C 13.939 13.251,13.405 13.296,13.364 13.318 C 13.251 13.378,13.231 13.460,13.210 13.942 L 13.191 14.385 14.525 14.430 C 15.259 14.455,15.929 14.496,16.013 14.521 C 16.210 14.578,16.457 14.803,16.603 15.058 C 16.705 15.235,16.719 15.300,16.720 15.582 C 16.720 15.847,16.702 15.940,16.618 16.108 C 16.491 16.365,16.179 16.660,15.975 16.717 C 15.888 16.741,15.246 16.772,14.510 16.787 L 13.200 16.813 13.199 16.996 C 13.198 17.097,13.182 17.444,13.162 17.766 C 13.121 18.432,13.096 18.503,12.791 18.826 C 12.540 19.091,12.307 19.178,11.924 19.151 C 11.605 19.128,11.442 19.052,11.189 18.806 C 10.936 18.561,10.889 18.391,10.832 17.514 L 10.786 16.808 9.443 16.792 C 7.992 16.774,7.959 16.769,7.693 16.545 C 7.623 16.486,7.511 16.355,7.443 16.252 C 7.325 16.073,7.320 16.050,7.320 15.632 C 7.320 15.279,7.335 15.168,7.398 15.043 C 7.492 14.860,7.683 14.661,7.848 14.576 C 7.995 14.500,8.582 14.453,9.855 14.416 L 10.810 14.387 10.792 13.944 C 10.774 13.491,10.735 13.350,10.614 13.303 C 10.576 13.289,10.049 13.251,9.443 13.218 C 8.836 13.186,8.234 13.142,8.105 13.121 C 7.824 13.075,7.668 12.965,7.468 12.674 C 7.302 12.432,7.248 12.140,7.298 11.745 C 7.347 11.350,7.631 11.035,8.040 10.921 C 8.145 10.892,8.986 10.760,9.066 10.760 C 9.106 10.760,8.921 10.418,8.318 9.375 C 7.943 8.728,7.557 8.034,7.458 7.833 C 7.298 7.503,7.280 7.437,7.281 7.183 C 7.282 6.751,7.505 6.360,7.860 6.169 C 8.078 6.051,8.481 6.034,8.800 6.128 " fill="#373B4D" stroke="none" fill-rule="evenodd"></path></svg>