<svg width="24" height="24" viewBox="0 0 24 24" fill="none" xmlns="http://www.w3.org/2000/svg"><path d="M10.460 2.556 C 8.397 2.940,6.796 3.749,5.385 5.120 C 4.496 5.984,3.882 6.821,3.377 7.860 C 2.066 10.554,2.096 13.601,3.462 16.323 C 4.177 17.749,5.334 19.053,6.680 19.949 C 7.607 20.566,8.758 21.065,9.980 21.380 C 10.692 21.563,12.698 21.607,13.602 21.459 C 14.327 21.340,15.373 20.991,16.183 20.597 C 17.678 19.870,19.020 18.714,19.908 17.388 C 20.322 16.768,20.870 15.645,21.111 14.919 C 21.413 14.007,21.475 13.692,21.529 12.787 C 21.595 11.660,21.531 10.569,21.360 9.900 C 21.053 8.702,20.624 7.713,19.996 6.757 C 18.554 4.560,16.139 2.990,13.567 2.575 C 13.303 2.532,12.811 2.507,12.020 2.497 C 11.015 2.484,10.807 2.492,10.460 2.556 M12.900 4.963 C 13.174 5.011,13.766 5.320,14.173 5.625 C 14.737 6.048,15.311 6.716,15.550 7.225 C 15.641 7.420,15.660 7.515,15.660 7.780 C 15.660 8.060,15.645 8.127,15.542 8.313 C 15.336 8.685,14.932 8.920,14.498 8.920 C 14.161 8.920,14.012 8.819,13.347 8.135 C 12.622 7.391,12.484 7.307,11.985 7.303 C 11.578 7.299,11.443 7.361,11.055 7.730 C 10.759 8.011,10.446 8.430,10.268 8.783 L 10.166 8.985 11.236 9.029 C 12.412 9.077,12.479 9.091,12.755 9.340 C 13.014 9.575,13.075 9.704,13.104 10.084 C 13.141 10.575,13.091 10.718,12.766 11.041 C 12.603 11.204,12.453 11.317,12.380 11.333 C 12.314 11.347,11.662 11.371,10.930 11.386 L 9.600 11.413 9.600 12.000 L 9.600 12.587 10.650 12.615 C 11.832 12.645,12.392 12.693,12.554 12.777 C 12.726 12.866,12.980 13.166,13.059 13.372 C 13.240 13.846,13.023 14.527,12.596 14.823 C 12.463 14.915,12.388 14.931,11.933 14.962 C 11.651 14.981,11.136 14.998,10.789 14.999 L 10.159 15.000 10.264 15.210 C 10.572 15.823,11.088 16.412,11.502 16.620 C 11.699 16.719,11.788 16.740,12.020 16.740 C 12.416 16.740,12.577 16.635,13.307 15.897 C 13.641 15.560,13.986 15.248,14.075 15.202 C 14.278 15.099,14.702 15.091,14.981 15.187 C 15.560 15.384,15.827 16.078,15.574 16.727 C 15.363 17.267,14.395 18.311,13.749 18.694 C 13.423 18.888,12.734 19.108,12.303 19.157 C 11.543 19.244,10.769 19.034,10.016 18.537 C 9.669 18.307,8.934 17.555,8.672 17.160 C 8.426 16.790,7.859 15.665,7.712 15.256 L 7.621 15.000 7.440 14.999 C 7.209 14.999,6.801 14.902,6.605 14.803 C 6.291 14.642,6.071 14.222,6.071 13.781 C 6.071 13.252,6.374 12.867,6.960 12.650 L 7.180 12.569 7.180 11.999 L 7.180 11.429 7.020 11.381 C 6.664 11.275,6.334 11.023,6.195 10.751 C 6.093 10.550,6.058 10.158,6.117 9.873 C 6.218 9.387,6.529 9.158,7.243 9.046 L 7.630 8.985 7.697 8.773 C 7.797 8.455,8.442 7.190,8.713 6.780 C 8.991 6.359,9.584 5.766,9.987 5.506 C 10.405 5.236,10.976 4.964,11.210 4.922 C 11.445 4.880,12.591 4.908,12.900 4.963 " fill="#373B4D" stroke="none" fill-rule="evenodd"></path></svg>