<svg width="24" height="24" viewBox="0 0 24 24" fill="none" xmlns="http://www.w3.org/2000/svg"><path d="M10.660 2.601 C 9.835 2.654,8.901 2.934,7.932 3.419 C 6.915 3.928,6.190 4.422,5.524 5.059 C 4.210 6.315,3.506 7.395,2.955 8.996 C 2.612 9.992,2.499 10.606,2.456 11.693 C 2.402 13.057,2.604 14.186,3.137 15.514 C 3.660 16.813,4.230 17.672,5.239 18.681 C 6.113 19.556,6.684 19.967,7.781 20.513 C 8.654 20.948,9.091 21.124,9.682 21.279 C 10.454 21.481,11.004 21.530,12.289 21.509 C 13.385 21.492,13.435 21.487,13.920 21.369 C 16.834 20.654,19.188 18.870,20.433 16.434 C 20.676 15.959,21.082 14.964,21.239 14.460 C 21.392 13.967,21.438 13.640,21.487 12.712 C 21.590 10.728,21.434 9.797,20.732 8.201 C 19.765 6.002,18.098 4.338,15.838 3.317 C 14.934 2.909,14.057 2.676,13.140 2.601 C 12.607 2.557,11.338 2.557,10.660 2.601 M13.490 5.000 C 14.113 5.033,14.233 5.050,14.470 5.144 C 14.856 5.297,15.252 5.564,15.614 5.915 C 16.136 6.421,16.442 6.911,16.540 7.395 C 16.611 7.750,16.655 8.504,16.619 8.764 C 16.594 8.946,16.564 9.000,16.396 9.164 C 16.056 9.495,15.510 9.618,15.165 9.442 C 14.923 9.319,14.777 9.116,14.435 8.426 C 13.979 7.507,13.861 7.400,13.257 7.369 C 12.838 7.347,12.717 7.387,12.419 7.649 C 12.121 7.912,12.077 8.038,12.038 8.756 C 12.019 9.099,12.002 9.700,12.002 10.090 C 12.000 10.761,12.004 10.800,12.076 10.800 C 12.268 10.800,13.011 10.887,13.297 10.943 C 13.994 11.080,14.205 11.328,14.215 12.020 C 14.219 12.323,14.205 12.410,14.126 12.570 C 14.014 12.799,13.778 13.010,13.562 13.075 C 13.400 13.123,12.414 13.239,12.154 13.240 L 12.008 13.240 11.983 13.470 C 11.935 13.915,11.880 14.783,11.880 15.089 C 11.880 15.552,11.804 15.528,13.560 15.619 C 15.190 15.704,15.918 15.757,16.066 15.804 C 16.237 15.858,16.543 16.193,16.596 16.385 C 16.665 16.632,16.651 17.145,16.571 17.314 C 16.466 17.536,16.206 17.774,16.000 17.836 C 15.706 17.925,14.484 17.956,11.177 17.958 L 8.053 17.960 7.873 17.820 C 7.774 17.743,7.632 17.594,7.557 17.490 C 7.430 17.314,7.419 17.274,7.406 16.947 C 7.374 16.153,7.423 16.087,8.382 15.618 C 8.761 15.433,9.128 15.234,9.198 15.176 C 9.461 14.955,9.553 14.622,9.588 13.770 L 9.612 13.200 9.276 13.200 C 8.001 13.198,7.461 12.912,7.376 12.190 C 7.297 11.521,7.560 11.090,8.122 10.964 C 8.220 10.942,8.534 10.895,8.820 10.858 C 9.412 10.782,9.600 10.722,9.600 10.606 C 9.600 10.404,9.724 8.452,9.761 8.064 C 9.838 7.272,9.888 7.120,10.266 6.550 C 10.691 5.908,11.133 5.520,11.835 5.170 C 12.263 4.957,12.407 4.942,13.490 5.000 " fill="#373B4D" stroke="none" fill-rule="evenodd"></path></svg>