<svg width="24" height="24" viewBox="0 0 24 24" fill="none" xmlns="http://www.w3.org/2000/svg"><path d="M10.840 2.560 C 9.939 2.622,8.886 2.934,7.820 3.457 C 5.541 4.576,3.983 6.288,3.068 8.680 C 2.598 9.907,2.459 10.677,2.463 12.020 C 2.466 13.214,2.574 13.889,2.945 15.020 C 3.821 17.694,5.951 19.900,8.660 20.940 C 9.932 21.428,10.740 21.549,12.460 21.508 C 13.202 21.490,13.415 21.470,13.820 21.383 C 15.776 20.962,17.218 20.195,18.632 18.822 C 19.531 17.950,20.066 17.231,20.537 16.264 C 21.024 15.266,21.353 14.262,21.460 13.448 C 21.531 12.915,21.542 11.198,21.479 10.679 C 21.372 9.809,21.014 8.705,20.516 7.708 C 19.770 6.216,18.610 4.926,17.190 4.008 C 16.734 3.713,15.748 3.227,15.187 3.021 C 14.608 2.808,13.919 2.645,13.420 2.603 C 12.803 2.550,11.341 2.526,10.840 2.560 M12.460 4.979 C 12.747 5.096,12.972 5.385,13.142 5.856 L 13.231 6.100 13.725 6.281 C 14.667 6.625,15.331 7.004,15.782 7.455 C 16.144 7.816,16.178 7.898,16.179 8.404 C 16.180 8.824,16.178 8.831,16.040 9.036 C 15.781 9.421,15.327 9.622,14.938 9.524 C 14.700 9.464,14.511 9.367,13.841 8.964 C 13.545 8.785,13.284 8.645,13.261 8.653 C 13.214 8.669,13.181 10.332,13.220 10.667 L 13.245 10.874 13.632 11.023 C 14.623 11.404,15.388 11.866,15.865 12.373 C 16.215 12.745,16.399 13.028,16.554 13.430 C 16.652 13.686,16.657 13.740,16.659 14.460 L 16.660 15.220 16.529 15.496 C 16.186 16.222,15.527 16.887,14.737 17.307 C 14.548 17.408,14.132 17.584,13.811 17.700 L 13.228 17.910 13.138 18.149 C 12.960 18.621,12.753 18.901,12.476 19.042 C 12.118 19.225,11.595 19.166,11.309 18.911 C 11.128 18.751,10.916 18.399,10.826 18.113 L 10.759 17.899 10.300 17.744 C 9.724 17.550,9.054 17.226,8.732 16.987 C 8.346 16.701,7.969 16.310,7.870 16.094 C 7.753 15.840,7.746 15.332,7.857 15.120 C 8.051 14.747,8.336 14.542,8.727 14.496 C 9.058 14.457,9.297 14.548,10.058 14.998 C 10.431 15.219,10.750 15.400,10.768 15.400 C 10.786 15.400,10.800 14.882,10.800 14.250 L 10.800 13.099 10.365 12.965 C 10.126 12.892,9.792 12.771,9.622 12.697 C 8.717 12.304,7.694 11.316,7.440 10.591 C 7.241 10.022,7.252 9.054,7.463 8.552 C 7.749 7.874,8.308 7.259,9.026 6.834 C 9.375 6.627,10.027 6.340,10.469 6.198 C 10.736 6.112,10.763 6.093,10.805 5.962 C 10.968 5.459,11.233 5.095,11.537 4.955 C 11.672 4.893,11.755 4.884,12.020 4.905 C 12.196 4.919,12.394 4.952,12.460 4.979 M10.440 8.775 C 10.297 8.871,10.059 9.062,9.910 9.199 C 9.675 9.415,9.640 9.465,9.640 9.588 C 9.640 9.712,9.680 9.769,9.950 10.037 C 10.255 10.340,10.557 10.534,10.662 10.494 C 10.753 10.459,10.800 10.099,10.799 9.428 C 10.799 8.806,10.780 8.600,10.725 8.600 C 10.711 8.600,10.582 8.679,10.440 8.775 M13.200 14.403 L 13.200 15.405 13.290 15.379 C 13.559 15.298,14.142 14.829,14.262 14.596 C 14.374 14.380,14.339 14.254,14.105 14.020 C 13.907 13.821,13.315 13.400,13.235 13.400 C 13.216 13.400,13.200 13.851,13.200 14.403 " fill="#373B4D" stroke="none" fill-rule="evenodd"></path></svg>