<svg width="24" height="24" viewBox="0 0 24 24" fill="none" xmlns="http://www.w3.org/2000/svg"><path d="M10.760 2.522 C 10.374 2.561,9.778 2.692,9.213 2.863 C 7.699 3.321,6.431 4.086,5.278 5.239 C 4.146 6.370,3.447 7.473,2.937 8.932 C 2.589 9.928,2.429 10.874,2.427 11.940 C 2.425 12.966,2.541 13.773,2.827 14.720 C 3.603 17.286,5.348 19.360,7.722 20.537 C 8.525 20.935,9.507 21.288,10.181 21.420 C 10.954 21.572,12.804 21.593,13.592 21.458 C 14.060 21.378,14.717 21.191,15.300 20.971 C 17.069 20.304,18.595 19.166,19.682 17.700 C 20.542 16.540,21.320 14.686,21.487 13.400 C 21.553 12.883,21.554 11.041,21.487 10.580 C 21.355 9.662,20.930 8.407,20.452 7.520 C 19.135 5.077,16.774 3.289,14.060 2.676 C 13.604 2.573,13.417 2.554,12.540 2.521 C 11.413 2.478,11.186 2.478,10.760 2.522 M12.818 4.959 C 13.533 5.077,14.646 5.887,15.239 6.723 C 15.580 7.204,15.639 7.360,15.640 7.782 C 15.640 8.112,15.630 8.160,15.526 8.324 C 15.221 8.805,14.619 9.046,14.179 8.862 C 14.103 8.830,13.745 8.516,13.383 8.164 C 12.591 7.393,12.470 7.320,11.991 7.321 C 11.591 7.322,11.435 7.385,11.112 7.677 C 10.838 7.924,10.440 8.442,10.280 8.760 L 10.164 8.990 10.912 9.019 C 12.377 9.074,12.560 9.113,12.848 9.432 C 13.035 9.639,13.094 9.828,13.097 10.240 C 13.100 10.637,13.053 10.751,12.762 11.042 C 12.438 11.366,12.494 11.355,10.963 11.386 L 9.600 11.413 9.600 11.998 L 9.600 12.584 10.870 12.632 C 11.568 12.659,12.228 12.699,12.336 12.720 C 12.585 12.770,12.764 12.907,12.952 13.190 C 13.094 13.405,13.100 13.426,13.098 13.757 C 13.097 14.045,13.079 14.136,12.988 14.324 C 12.832 14.647,12.597 14.865,12.344 14.921 C 12.232 14.946,11.696 14.977,11.152 14.989 L 10.165 15.012 10.268 15.216 C 10.446 15.570,10.759 15.989,11.055 16.270 C 11.484 16.678,11.813 16.804,12.223 16.719 C 12.492 16.663,12.648 16.544,13.440 15.780 C 13.772 15.460,14.090 15.188,14.150 15.171 C 14.211 15.154,14.404 15.141,14.580 15.143 C 15.053 15.146,15.357 15.322,15.556 15.709 C 15.701 15.990,15.684 16.519,15.520 16.840 C 15.299 17.272,14.511 18.142,13.980 18.539 C 13.501 18.898,12.632 19.165,11.952 19.163 C 11.416 19.162,11.034 19.063,10.440 18.772 C 9.993 18.553,9.964 18.531,9.397 17.963 C 8.968 17.535,8.758 17.290,8.604 17.040 C 8.366 16.653,7.803 15.522,7.696 15.215 L 7.625 15.010 7.342 14.988 C 6.554 14.924,6.138 14.557,6.089 13.881 C 6.049 13.322,6.313 12.927,6.888 12.688 L 7.180 12.566 7.191 12.002 C 7.201 11.491,7.196 11.436,7.131 11.415 C 6.791 11.305,6.606 11.203,6.421 11.023 C 6.168 10.776,6.104 10.606,6.102 10.177 C 6.100 9.895,6.115 9.825,6.221 9.617 C 6.330 9.405,6.370 9.366,6.604 9.247 C 6.784 9.155,6.986 9.094,7.250 9.050 C 7.608 8.992,7.636 8.981,7.660 8.884 C 7.738 8.563,8.473 7.134,8.793 6.680 C 9.065 6.293,9.621 5.757,10.014 5.501 C 10.336 5.290,10.917 4.996,11.100 4.949 C 11.247 4.912,12.577 4.920,12.818 4.959 " fill="#373B4D" stroke="none" fill-rule="evenodd"></path></svg>