<svg width="24" height="24" viewBox="0 0 24 24" fill="none" xmlns="http://www.w3.org/2000/svg"><path d="M10.960 2.483 C 10.529 2.522,9.753 2.687,9.175 2.863 C 7.694 3.311,6.417 4.074,5.312 5.171 C 3.805 6.665,2.893 8.403,2.543 10.445 C 2.150 12.732,2.671 15.225,3.947 17.178 C 5.248 19.167,7.063 20.510,9.409 21.217 C 10.384 21.511,10.564 21.534,11.920 21.537 C 13.206 21.540,13.437 21.520,14.160 21.339 C 16.336 20.794,18.255 19.563,19.560 17.875 C 20.466 16.703,21.204 15.049,21.468 13.600 C 21.571 13.039,21.571 10.898,21.468 10.380 C 20.876 7.391,19.104 4.964,16.480 3.550 C 15.484 3.013,14.237 2.625,13.173 2.522 C 12.619 2.469,11.364 2.446,10.960 2.483 M8.889 6.151 C 9.205 6.292,9.263 6.372,10.580 8.520 C 11.588 10.164,11.842 10.560,11.938 10.639 C 12.003 10.692,12.019 10.686,12.106 10.579 C 12.225 10.434,13.009 9.194,13.701 8.060 C 14.750 6.341,14.899 6.160,15.328 6.085 C 15.819 6.000,16.296 6.177,16.560 6.543 C 16.692 6.726,16.701 6.758,16.714 7.108 C 16.731 7.572,16.731 7.572,15.831 9.122 C 15.106 10.370,14.960 10.636,14.960 10.707 C 14.960 10.762,15.044 10.780,15.574 10.844 C 15.848 10.877,16.030 10.922,16.174 10.995 C 16.404 11.112,16.614 11.361,16.678 11.591 C 16.740 11.814,16.729 12.300,16.659 12.468 C 16.577 12.665,16.351 12.934,16.178 13.041 C 16.027 13.134,15.847 13.151,14.113 13.233 C 13.639 13.255,13.385 13.283,13.343 13.317 C 13.247 13.397,13.200 13.627,13.200 14.024 L 13.200 14.387 14.350 14.415 C 15.856 14.452,16.024 14.473,16.265 14.645 C 16.393 14.737,16.499 14.864,16.596 15.040 C 16.724 15.274,16.738 15.330,16.737 15.600 C 16.736 15.844,16.716 15.938,16.630 16.105 C 16.491 16.374,16.195 16.666,16.008 16.720 C 15.927 16.743,15.264 16.773,14.535 16.787 L 13.209 16.813 13.183 17.436 C 13.144 18.386,13.139 18.410,12.926 18.692 C 12.675 19.023,12.416 19.160,12.043 19.160 C 11.681 19.160,11.438 19.070,11.217 18.855 C 10.920 18.567,10.877 18.422,10.828 17.556 L 10.786 16.805 9.443 16.792 C 7.965 16.779,7.960 16.778,7.666 16.520 C 7.584 16.448,7.468 16.306,7.408 16.205 C 7.310 16.037,7.300 15.983,7.300 15.620 C 7.300 15.262,7.312 15.198,7.408 15.015 C 7.527 14.789,7.767 14.575,7.966 14.518 C 8.107 14.478,9.687 14.400,10.370 14.400 L 10.800 14.400 10.800 14.030 C 10.800 13.627,10.753 13.397,10.657 13.317 C 10.615 13.283,10.361 13.255,9.887 13.233 C 8.153 13.151,7.973 13.134,7.822 13.041 C 7.649 12.934,7.423 12.665,7.341 12.468 C 7.245 12.239,7.258 11.660,7.364 11.459 C 7.567 11.075,7.839 10.916,8.420 10.844 C 8.618 10.819,8.847 10.789,8.929 10.776 L 9.078 10.753 9.021 10.615 C 8.989 10.540,8.712 10.051,8.406 9.529 C 7.733 8.382,7.480 7.927,7.355 7.638 C 7.095 7.041,7.397 6.323,8.000 6.104 C 8.226 6.022,8.647 6.044,8.889 6.151 " fill="#373B4D" stroke="none" fill-rule="evenodd"></path></svg>