<svg width="24" height="24" viewBox="0 0 24 24" fill="none" xmlns="http://www.w3.org/2000/svg"><path d="M10.357 2.619 C 9.421 2.772,8.459 3.116,7.425 3.669 C 5.234 4.841,3.706 6.704,2.888 9.200 C 2.595 10.093,2.536 10.403,2.480 11.340 C 2.385 12.941,2.612 14.291,3.223 15.749 C 3.911 17.392,5.214 18.934,6.796 19.977 C 7.536 20.465,8.205 20.787,9.133 21.102 C 10.149 21.447,10.920 21.543,12.380 21.507 C 13.133 21.488,13.426 21.465,13.740 21.399 C 15.375 21.055,16.676 20.456,17.880 19.492 C 18.303 19.153,19.186 18.279,19.507 17.880 C 20.313 16.879,20.949 15.579,21.303 14.209 C 21.489 13.488,21.533 12.931,21.509 11.640 C 21.486 10.471,21.454 10.250,21.176 9.360 C 20.668 7.734,19.875 6.401,18.736 5.265 C 17.981 4.512,17.298 4.025,16.300 3.528 C 15.287 3.024,14.692 2.815,13.820 2.657 C 13.312 2.565,10.853 2.538,10.357 2.619 M12.554 5.037 C 12.766 5.145,12.967 5.418,13.116 5.800 L 13.233 6.100 13.684 6.268 C 14.630 6.620,15.313 7.008,15.778 7.456 C 16.118 7.785,16.160 7.892,16.160 8.420 C 16.160 8.797,16.150 8.858,16.063 8.995 C 15.915 9.229,15.650 9.435,15.401 9.507 C 15.015 9.620,14.893 9.575,13.661 8.864 C 13.486 8.763,13.322 8.680,13.297 8.680 C 13.233 8.680,13.201 9.097,13.201 9.900 C 13.201 10.920,13.168 10.840,13.675 11.043 C 15.215 11.658,16.149 12.423,16.526 13.379 C 16.634 13.653,16.637 13.681,16.639 14.467 L 16.640 15.274 16.501 15.540 C 16.292 15.941,16.044 16.267,15.695 16.601 C 15.151 17.119,14.737 17.357,13.742 17.723 C 13.242 17.906,13.222 17.918,13.174 18.057 C 13.074 18.344,12.827 18.762,12.677 18.898 C 12.287 19.250,11.593 19.218,11.238 18.832 C 11.080 18.661,10.907 18.353,10.824 18.098 L 10.759 17.895 10.469 17.802 C 10.042 17.665,9.339 17.359,9.020 17.171 C 8.511 16.872,7.919 16.285,7.840 16.002 C 7.818 15.924,7.800 15.726,7.800 15.563 C 7.800 15.205,7.887 14.995,8.127 14.779 C 8.348 14.579,8.533 14.508,8.840 14.504 C 9.145 14.499,9.368 14.595,10.218 15.092 C 10.503 15.259,10.750 15.386,10.768 15.375 C 10.786 15.364,10.800 14.846,10.800 14.224 L 10.800 13.092 10.490 13.003 C 9.329 12.666,8.493 12.116,7.827 11.249 C 7.439 10.744,7.321 10.360,7.321 9.600 C 7.321 9.041,7.382 8.712,7.545 8.389 C 8.028 7.435,8.850 6.797,10.282 6.266 C 10.529 6.174,10.746 6.073,10.763 6.040 C 10.780 6.007,10.850 5.854,10.919 5.701 C 11.127 5.236,11.386 4.969,11.673 4.922 C 11.908 4.884,12.372 4.944,12.554 5.037 M10.413 8.796 C 9.995 9.090,9.640 9.441,9.640 9.562 C 9.640 9.709,9.810 9.933,10.106 10.178 C 10.451 10.462,10.600 10.536,10.676 10.461 C 10.761 10.376,10.795 10.081,10.797 9.400 C 10.799 8.795,10.781 8.600,10.722 8.600 C 10.706 8.600,10.567 8.688,10.413 8.796 M13.224 13.464 C 13.211 13.498,13.200 13.949,13.200 14.466 L 13.200 15.405 13.290 15.379 C 13.430 15.338,13.794 15.089,14.011 14.886 C 14.469 14.457,14.428 14.249,13.788 13.767 C 13.325 13.418,13.256 13.381,13.224 13.464 " fill="#373B4D" stroke="none" fill-rule="evenodd"></path></svg>