<svg width="24" height="24" viewBox="0 0 24 24" fill="none" xmlns="http://www.w3.org/2000/svg"><path d="M10.960 2.483 C 10.529 2.522,9.753 2.687,9.175 2.863 C 7.694 3.311,6.417 4.074,5.312 5.171 C 3.805 6.665,2.893 8.403,2.543 10.445 C 2.150 12.732,2.671 15.225,3.947 17.178 C 5.248 19.167,7.063 20.510,9.409 21.217 C 10.384 21.511,10.564 21.534,11.920 21.537 C 13.206 21.540,13.437 21.520,14.160 21.339 C 16.336 20.794,18.255 19.563,19.560 17.875 C 20.466 16.703,21.204 15.049,21.468 13.600 C 21.571 13.039,21.571 10.898,21.468 10.380 C 20.876 7.391,19.104 4.964,16.480 3.550 C 15.484 3.013,14.237 2.625,13.173 2.522 C 12.619 2.469,11.364 2.446,10.960 2.483 M12.490 4.916 C 12.993 4.948,13.005 4.951,13.410 5.148 C 13.635 5.258,13.964 5.456,14.140 5.588 C 14.801 6.083,15.483 6.913,15.625 7.395 C 15.722 7.725,15.688 8.101,15.538 8.344 C 15.313 8.708,14.898 8.939,14.481 8.932 C 14.168 8.928,13.954 8.792,13.528 8.325 C 12.952 7.695,12.741 7.497,12.536 7.398 C 12.315 7.291,11.891 7.252,11.654 7.316 C 11.257 7.423,10.679 8.015,10.329 8.672 L 10.161 8.988 11.130 9.017 C 11.664 9.033,12.188 9.063,12.295 9.083 C 12.547 9.131,12.828 9.334,12.978 9.576 C 13.080 9.741,13.098 9.815,13.113 10.125 C 13.126 10.399,13.114 10.525,13.061 10.664 C 12.969 10.904,12.622 11.258,12.417 11.320 C 12.317 11.350,11.782 11.375,10.930 11.389 L 9.600 11.410 9.600 12.005 L 9.600 12.600 10.210 12.600 C 10.546 12.601,11.169 12.619,11.596 12.641 C 12.453 12.686,12.553 12.713,12.800 12.960 C 13.160 13.320,13.240 13.858,13.005 14.336 C 12.862 14.627,12.624 14.858,12.403 14.921 C 12.324 14.944,11.787 14.973,11.210 14.987 L 10.160 15.013 10.323 15.316 C 10.799 16.202,11.447 16.759,12.004 16.760 C 12.432 16.760,12.734 16.546,13.519 15.684 C 13.969 15.190,14.118 15.105,14.540 15.105 C 15.193 15.105,15.679 15.564,15.680 16.184 C 15.681 16.740,15.418 17.189,14.643 17.960 C 14.028 18.571,13.735 18.764,13.086 18.984 C 12.013 19.349,11.020 19.207,10.028 18.546 C 9.619 18.274,8.934 17.576,8.645 17.137 C 8.407 16.775,7.903 15.767,7.735 15.315 L 7.621 15.010 7.320 14.988 C 6.908 14.957,6.554 14.829,6.401 14.655 C 6.090 14.300,5.980 13.868,6.098 13.461 C 6.189 13.148,6.516 12.812,6.852 12.687 C 6.979 12.639,7.110 12.600,7.143 12.600 C 7.193 12.600,7.200 12.511,7.191 12.014 L 7.180 11.428 6.981 11.370 C 6.506 11.232,6.148 10.861,6.097 10.453 C 6.055 10.111,6.108 9.724,6.220 9.553 C 6.422 9.247,6.700 9.111,7.280 9.033 L 7.631 8.987 7.680 8.823 C 7.802 8.415,8.391 7.247,8.745 6.713 C 8.977 6.364,9.419 5.915,9.835 5.606 C 10.216 5.324,10.894 4.974,11.160 4.923 C 11.394 4.878,11.856 4.876,12.490 4.916 " fill="#373B4D" stroke="none" fill-rule="evenodd"></path></svg>