<svg width="24" height="24" viewBox="0 0 24 24" fill="none" xmlns="http://www.w3.org/2000/svg"><path d="M10.680 2.562 C 9.847 2.629,8.634 3.012,7.629 3.528 C 6.202 4.260,4.700 5.649,3.844 7.030 C 3.150 8.149,2.629 9.657,2.483 10.968 C 2.393 11.782,2.448 13.117,2.601 13.808 C 2.934 15.313,3.521 16.620,4.374 17.760 C 4.745 18.256,5.679 19.189,6.160 19.545 C 7.337 20.416,8.933 21.157,10.160 21.403 C 10.776 21.526,11.996 21.584,12.790 21.528 C 13.767 21.459,14.413 21.305,15.429 20.897 C 17.178 20.195,18.614 19.108,19.703 17.660 C 20.334 16.821,21.026 15.314,21.362 14.047 C 21.467 13.651,21.517 12.929,21.518 11.780 C 21.520 10.756,21.475 10.352,21.285 9.680 C 20.787 7.921,19.954 6.474,18.748 5.274 C 17.986 4.515,17.233 3.978,16.240 3.485 C 15.354 3.044,14.574 2.780,13.756 2.644 C 13.093 2.533,11.552 2.492,10.680 2.562 M13.510 4.960 C 14.172 5.005,14.370 5.047,14.700 5.211 C 15.440 5.580,16.065 6.217,16.418 6.964 C 16.585 7.316,16.641 7.654,16.649 8.366 C 16.655 8.856,16.652 8.878,16.546 9.038 C 16.414 9.237,16.140 9.420,15.844 9.506 C 15.357 9.648,14.898 9.425,14.641 8.922 C 14.598 8.837,14.481 8.567,14.381 8.323 C 14.147 7.746,14.044 7.597,13.788 7.457 C 13.616 7.364,13.519 7.341,13.232 7.327 C 12.909 7.312,12.870 7.318,12.697 7.420 C 12.436 7.572,12.198 7.797,12.134 7.948 C 12.052 8.144,12.001 8.887,12.000 9.886 L 12.000 10.792 12.430 10.821 C 13.806 10.911,14.128 11.082,14.240 11.780 C 14.323 12.291,14.205 12.660,13.877 12.919 C 13.631 13.113,13.449 13.155,12.672 13.193 C 12.326 13.210,12.034 13.233,12.023 13.244 C 11.998 13.269,11.881 14.883,11.880 15.205 C 11.880 15.450,11.912 15.497,12.100 15.535 C 12.166 15.548,12.895 15.586,13.720 15.620 C 15.527 15.694,16.007 15.735,16.196 15.833 C 16.275 15.874,16.405 16.005,16.490 16.131 C 16.629 16.334,16.646 16.386,16.667 16.687 C 16.695 17.093,16.647 17.287,16.461 17.525 C 16.223 17.831,16.094 17.878,15.370 17.927 C 14.395 17.992,8.218 17.993,8.034 17.928 C 7.862 17.867,7.501 17.500,7.418 17.302 C 7.381 17.212,7.360 17.023,7.360 16.770 C 7.360 16.102,7.468 15.984,8.432 15.596 C 8.898 15.408,9.269 15.183,9.371 15.028 C 9.499 14.833,9.564 14.474,9.588 13.836 L 9.611 13.213 8.956 13.188 C 8.199 13.159,7.970 13.105,7.728 12.898 C 7.384 12.603,7.273 12.261,7.354 11.744 C 7.401 11.437,7.498 11.268,7.714 11.115 C 7.935 10.959,8.077 10.925,8.776 10.859 C 9.519 10.788,9.600 10.764,9.600 10.617 C 9.600 10.299,9.726 8.047,9.761 7.749 C 9.807 7.354,9.892 7.110,10.121 6.719 C 10.533 6.012,11.077 5.510,11.808 5.159 C 12.311 4.918,12.524 4.893,13.510 4.960 " fill="#373B4D" stroke="none" fill-rule="evenodd"></path></svg>