<svg width="24" height="24" viewBox="0 0 24 24" fill="none" xmlns="http://www.w3.org/2000/svg"><path d="M10.800 2.602 C 9.953 2.652,9.188 2.852,8.279 3.261 C 6.771 3.938,5.535 4.887,4.488 6.170 C 3.517 7.359,2.767 9.091,2.533 10.680 C 2.428 11.395,2.439 12.868,2.554 13.500 C 2.856 15.155,3.599 16.799,4.565 17.948 C 4.922 18.373,5.698 19.144,6.080 19.452 C 6.934 20.141,8.561 20.975,9.600 21.255 C 10.436 21.481,10.632 21.500,12.100 21.497 L 13.460 21.494 14.014 21.346 C 15.888 20.845,17.402 20.015,18.653 18.802 C 19.696 17.790,20.318 16.838,20.913 15.340 C 21.339 14.268,21.411 13.950,21.483 12.820 C 21.537 11.953,21.512 10.911,21.423 10.380 C 21.183 8.955,20.388 7.240,19.397 6.013 C 18.128 4.440,15.991 3.130,14.061 2.740 C 13.262 2.578,12.060 2.527,10.800 2.602 M13.952 5.043 C 14.215 5.070,14.398 5.114,14.577 5.196 C 15.385 5.562,16.261 6.479,16.479 7.187 C 16.573 7.489,16.658 8.443,16.618 8.737 C 16.594 8.912,16.562 8.969,16.385 9.144 C 16.033 9.495,15.538 9.613,15.169 9.435 C 14.944 9.326,14.794 9.120,14.444 8.440 C 13.970 7.520,13.861 7.420,13.270 7.375 C 12.986 7.353,12.909 7.361,12.758 7.429 C 12.508 7.541,12.221 7.809,12.144 8.002 C 12.057 8.220,11.993 9.193,12.008 10.080 L 12.020 10.780 12.280 10.811 C 13.463 10.951,13.732 11.018,13.955 11.232 C 14.148 11.415,14.199 11.590,14.200 12.062 C 14.200 12.399,14.191 12.438,14.070 12.640 C 13.835 13.033,13.492 13.152,12.393 13.226 L 12.007 13.252 11.982 13.476 C 11.889 14.331,11.853 15.297,11.911 15.384 C 12.008 15.529,12.119 15.544,13.860 15.640 C 15.654 15.738,16.008 15.774,16.173 15.870 C 16.343 15.970,16.548 16.246,16.604 16.452 C 16.661 16.664,16.628 17.190,16.548 17.344 C 16.459 17.512,16.204 17.746,16.029 17.819 C 15.787 17.920,14.416 17.959,11.067 17.959 L 8.034 17.960 7.793 17.730 C 7.475 17.427,7.432 17.333,7.409 16.900 C 7.387 16.468,7.439 16.247,7.601 16.085 C 7.667 16.019,8.027 15.808,8.401 15.615 C 9.214 15.196,9.329 15.108,9.435 14.825 C 9.525 14.583,9.600 13.995,9.600 13.522 L 9.600 13.200 9.190 13.199 C 8.198 13.195,7.607 12.945,7.435 12.455 C 7.405 12.369,7.381 12.149,7.382 11.960 C 7.384 11.565,7.465 11.364,7.701 11.170 C 7.885 11.018,8.037 10.974,8.710 10.878 C 9.013 10.835,9.334 10.772,9.425 10.739 L 9.591 10.677 9.618 10.248 C 9.763 7.919,9.806 7.497,9.928 7.170 C 10.040 6.868,10.448 6.265,10.756 5.947 C 11.174 5.513,11.930 5.061,12.340 4.998 C 12.567 4.964,13.399 4.987,13.952 5.043 " fill="#373B4D" stroke="none" fill-rule="evenodd"></path></svg>