<svg width="24" height="24" viewBox="0 0 24 24" fill="none" xmlns="http://www.w3.org/2000/svg"><path d="M10.800 2.602 C 9.953 2.652,9.188 2.852,8.279 3.261 C 6.771 3.938,5.535 4.887,4.488 6.170 C 3.517 7.359,2.767 9.091,2.533 10.680 C 2.428 11.395,2.439 12.868,2.554 13.500 C 2.856 15.155,3.599 16.799,4.565 17.948 C 4.922 18.373,5.698 19.144,6.080 19.452 C 6.934 20.141,8.561 20.975,9.600 21.255 C 10.436 21.481,10.632 21.500,12.100 21.497 L 13.460 21.494 14.014 21.346 C 15.888 20.845,17.402 20.015,18.653 18.802 C 19.696 17.790,20.318 16.838,20.913 15.340 C 21.339 14.268,21.411 13.950,21.483 12.820 C 21.537 11.953,21.512 10.911,21.423 10.380 C 21.183 8.955,20.388 7.240,19.397 6.013 C 18.128 4.440,15.991 3.130,14.061 2.740 C 13.262 2.578,12.060 2.527,10.800 2.602 M8.911 6.255 C 9.112 6.359,9.419 6.778,10.457 8.360 C 11.616 10.127,11.952 10.609,12.013 10.590 C 12.039 10.582,12.677 9.649,13.431 8.518 C 14.185 7.386,14.852 6.409,14.914 6.347 C 15.047 6.215,15.241 6.162,15.600 6.161 C 15.942 6.160,16.130 6.216,16.308 6.372 C 16.506 6.546,16.589 6.757,16.622 7.166 L 16.650 7.513 16.360 8.066 C 16.201 8.371,15.848 9.034,15.576 9.540 C 15.304 10.046,15.070 10.517,15.057 10.586 L 15.031 10.713 15.506 10.861 C 16.063 11.035,16.175 11.086,16.353 11.254 C 16.579 11.467,16.618 11.578,16.616 11.989 C 16.614 12.316,16.600 12.385,16.496 12.588 C 16.268 13.034,16.110 13.086,14.460 13.260 C 13.932 13.315,13.460 13.372,13.410 13.385 C 13.290 13.417,13.200 13.724,13.200 14.102 L 13.200 14.389 13.670 14.416 C 14.576 14.468,15.702 14.562,15.905 14.603 C 16.138 14.649,16.331 14.776,16.490 14.988 C 16.592 15.124,16.600 15.161,16.600 15.517 C 16.599 16.024,16.554 16.170,16.327 16.397 C 16.005 16.718,15.554 16.799,14.095 16.800 L 13.209 16.800 13.182 17.110 C 13.084 18.208,12.974 18.590,12.681 18.854 C 12.525 18.995,12.205 19.120,12.000 19.120 C 11.811 19.120,11.503 19.005,11.349 18.877 C 11.066 18.643,10.951 18.287,10.841 17.300 C 10.819 17.102,10.801 16.911,10.800 16.875 C 10.800 16.818,10.675 16.808,9.690 16.788 C 8.159 16.757,7.915 16.708,7.584 16.366 L 7.428 16.205 7.449 15.609 C 7.462 15.262,7.491 14.975,7.519 14.923 C 7.588 14.793,8.011 14.612,8.360 14.563 C 8.659 14.521,9.373 14.468,10.315 14.416 L 10.810 14.389 10.789 14.045 C 10.765 13.657,10.706 13.457,10.599 13.400 C 10.560 13.378,10.161 13.324,9.714 13.279 C 8.835 13.191,8.222 13.106,8.000 13.042 C 7.629 12.935,7.395 12.569,7.368 12.054 C 7.353 11.770,7.363 11.700,7.450 11.510 C 7.508 11.384,7.610 11.246,7.690 11.185 C 7.829 11.079,8.259 10.918,8.768 10.781 L 9.036 10.709 8.917 10.473 C 8.851 10.343,8.472 9.640,8.073 8.909 L 7.350 7.581 7.376 7.201 C 7.394 6.943,7.429 6.765,7.485 6.650 C 7.574 6.466,7.837 6.216,7.975 6.185 C 8.165 6.142,8.782 6.188,8.911 6.255 " fill="#373B4D" stroke="none" fill-rule="evenodd"></path></svg>