<svg width="24" height="24" viewBox="0 0 24 24" fill="none" xmlns="http://www.w3.org/2000/svg"><path d="M10.380 2.584 C 9.146 2.805,7.814 3.332,6.818 3.994 C 5.607 4.798,4.441 6.012,3.731 7.210 C 3.095 8.282,2.595 9.799,2.477 11.017 C 2.416 11.644,2.450 13.022,2.538 13.500 C 2.834 15.098,3.464 16.562,4.384 17.783 C 4.692 18.193,5.413 18.941,5.860 19.314 C 6.955 20.230,8.796 21.132,10.113 21.398 C 10.966 21.570,12.647 21.601,13.520 21.460 C 14.869 21.242,16.569 20.504,17.751 19.625 C 18.512 19.058,19.458 18.066,19.930 17.340 C 20.536 16.406,21.175 14.903,21.408 13.860 C 21.477 13.553,21.492 13.309,21.509 12.193 C 21.531 10.702,21.515 10.522,21.278 9.660 C 20.383 6.398,18.040 3.934,14.858 2.907 C 14.259 2.714,13.727 2.612,13.060 2.562 C 12.253 2.502,10.772 2.514,10.380 2.584 M13.361 5.164 C 14.204 5.574,15.124 6.425,15.491 7.135 C 15.606 7.359,15.617 7.413,15.618 7.760 C 15.620 8.050,15.603 8.171,15.549 8.269 C 15.372 8.595,14.963 8.860,14.566 8.907 C 14.276 8.941,14.105 8.840,13.518 8.290 C 12.994 7.800,12.695 7.544,12.511 7.428 C 12.348 7.325,11.682 7.334,11.445 7.441 C 11.136 7.581,10.524 8.285,10.258 8.805 L 10.164 8.989 10.752 9.016 C 11.909 9.069,12.323 9.117,12.546 9.223 C 12.784 9.337,12.947 9.530,13.025 9.790 C 13.091 10.009,13.096 10.400,13.036 10.616 C 12.988 10.790,12.654 11.170,12.463 11.269 C 12.313 11.346,11.540 11.395,10.430 11.398 L 9.600 11.400 9.600 11.993 L 9.600 12.586 10.730 12.636 C 12.398 12.709,12.526 12.732,12.793 13.005 C 12.998 13.215,13.080 13.426,13.080 13.743 C 13.080 14.096,13.035 14.248,12.854 14.512 C 12.623 14.847,12.460 14.920,11.850 14.962 C 11.570 14.981,11.073 14.998,10.746 14.999 L 10.153 15.000 10.301 15.270 C 10.652 15.908,11.256 16.533,11.651 16.664 C 11.913 16.751,12.208 16.743,12.413 16.643 C 12.505 16.598,12.930 16.246,13.359 15.861 L 14.138 15.160 14.499 15.160 C 15.031 15.161,15.331 15.316,15.524 15.690 C 15.626 15.887,15.660 16.249,15.603 16.524 C 15.522 16.915,15.314 17.206,14.600 17.925 C 13.997 18.532,13.911 18.604,13.600 18.755 C 12.962 19.067,12.202 19.202,11.546 19.121 C 10.937 19.045,10.262 18.746,9.805 18.350 C 9.395 17.994,8.786 17.317,8.613 17.025 C 8.386 16.642,7.727 15.332,7.676 15.163 L 7.631 15.011 7.365 14.987 C 6.794 14.937,6.426 14.738,6.242 14.381 C 6.108 14.121,6.077 13.605,6.179 13.338 C 6.265 13.112,6.515 12.891,6.900 12.701 L 7.200 12.553 7.200 12.019 L 7.200 11.484 6.910 11.333 C 6.522 11.131,6.229 10.839,6.167 10.592 C 6.059 10.162,6.146 9.665,6.371 9.428 C 6.517 9.274,6.816 9.150,7.287 9.048 L 7.602 8.980 7.794 8.560 C 8.038 8.029,8.560 7.056,8.771 6.741 C 8.859 6.608,9.123 6.310,9.356 6.077 C 9.787 5.647,10.195 5.366,10.811 5.077 L 11.060 4.960 12.021 4.970 L 12.981 4.980 13.361 5.164 " fill="#373B4D" stroke="none" fill-rule="evenodd"></path></svg>