<svg width="24" height="24" viewBox="0 0 24 24" fill="none" xmlns="http://www.w3.org/2000/svg"><path d="M10.900 2.600 C 9.789 2.664,8.728 2.986,7.533 3.624 C 6.625 4.109,5.929 4.624,5.218 5.336 C 4.093 6.464,3.300 7.836,2.786 9.541 C 2.285 11.202,2.359 13.340,2.980 15.120 C 3.298 16.031,3.941 17.180,4.563 17.946 C 5.121 18.635,6.087 19.503,6.857 20.009 C 7.779 20.614,8.898 21.086,10.020 21.340 C 10.865 21.532,12.645 21.572,13.559 21.420 C 15.016 21.177,16.407 20.580,17.634 19.672 C 18.069 19.350,19.258 18.182,19.634 17.706 C 20.342 16.811,21.086 15.199,21.357 13.974 C 21.509 13.289,21.568 11.770,21.479 10.820 C 21.342 9.354,20.514 7.399,19.494 6.132 C 18.564 4.977,17.641 4.229,16.338 3.571 C 15.127 2.960,14.369 2.716,13.464 2.643 C 12.732 2.584,11.528 2.564,10.900 2.600 M12.460 5.017 C 12.740 5.134,12.892 5.321,13.110 5.816 L 13.231 6.091 13.745 6.299 C 14.355 6.544,14.835 6.783,15.219 7.030 C 15.592 7.271,16.024 7.692,16.086 7.875 C 16.113 7.955,16.136 8.201,16.137 8.423 C 16.140 8.803,16.133 8.836,16.020 9.019 C 15.872 9.258,15.587 9.459,15.310 9.521 C 15.032 9.583,14.834 9.513,13.995 9.057 C 13.645 8.867,13.334 8.721,13.303 8.733 C 13.220 8.765,13.190 9.158,13.206 10.009 C 13.223 10.886,13.202 10.843,13.713 11.061 C 15.118 11.660,15.893 12.257,16.377 13.111 L 16.610 13.522 16.631 14.400 L 16.652 15.277 16.429 15.649 C 15.852 16.612,15.186 17.148,13.960 17.635 C 13.282 17.904,13.247 17.931,13.031 18.338 C 12.723 18.918,12.457 19.126,12.022 19.126 C 11.521 19.126,11.212 18.901,10.946 18.340 C 10.863 18.164,10.781 17.994,10.764 17.961 C 10.747 17.929,10.529 17.826,10.281 17.732 C 9.101 17.286,8.463 16.873,8.013 16.266 L 7.840 16.031 7.840 15.603 C 7.840 15.201,7.847 15.165,7.955 14.994 C 8.091 14.779,8.231 14.673,8.491 14.585 C 8.896 14.448,9.198 14.523,9.950 14.946 C 10.242 15.110,10.541 15.270,10.616 15.301 C 10.745 15.355,10.752 15.353,10.775 15.269 C 10.788 15.220,10.799 14.712,10.799 14.140 L 10.800 13.100 10.302 12.932 C 10.029 12.839,9.651 12.687,9.463 12.595 C 8.632 12.184,7.759 11.325,7.474 10.636 C 7.398 10.450,7.383 10.327,7.369 9.760 C 7.349 8.983,7.388 8.728,7.580 8.349 C 8.018 7.488,8.869 6.823,10.200 6.302 C 10.409 6.221,10.620 6.128,10.668 6.097 C 10.716 6.066,10.841 5.875,10.946 5.672 C 11.156 5.265,11.368 5.024,11.568 4.963 C 11.752 4.906,12.270 4.938,12.460 5.017 M10.469 8.764 C 10.209 8.945,9.736 9.376,9.677 9.486 C 9.614 9.603,9.734 9.824,9.997 10.077 C 10.128 10.203,10.316 10.349,10.416 10.402 C 10.582 10.490,10.604 10.493,10.661 10.436 C 10.750 10.348,10.798 9.952,10.799 9.320 C 10.799 8.798,10.778 8.598,10.725 8.602 C 10.711 8.603,10.596 8.676,10.469 8.764 M13.227 13.467 C 13.212 13.481,13.200 13.924,13.200 14.449 L 13.200 15.405 13.290 15.377 C 13.574 15.289,14.245 14.709,14.295 14.508 C 14.352 14.278,14.094 13.963,13.553 13.602 C 13.303 13.434,13.272 13.422,13.227 13.467 " fill="#373B4D" stroke="none" fill-rule="evenodd"></path></svg>