<svg width="24" height="24" viewBox="0 0 24 24" fill="none" xmlns="http://www.w3.org/2000/svg"><path d="M10.289 2.625 C 9.884 2.688,9.108 2.900,8.687 3.064 C 7.846 3.390,6.714 4.042,6.040 4.589 C 5.622 4.928,4.580 5.998,4.311 6.365 C 3.488 7.486,2.931 8.746,2.599 10.240 C 2.430 11.002,2.402 12.647,2.544 13.480 C 2.754 14.707,3.342 16.217,3.993 17.200 C 4.677 18.233,5.842 19.378,6.866 20.023 C 7.315 20.306,8.462 20.870,8.970 21.057 C 9.925 21.410,10.747 21.536,12.080 21.534 C 12.901 21.533,13.134 21.519,13.520 21.448 C 15.715 21.046,17.863 19.828,19.258 18.196 C 20.031 17.291,20.567 16.333,21.060 14.972 C 21.389 14.066,21.440 13.808,21.485 12.820 C 21.527 11.881,21.505 10.799,21.433 10.340 C 21.294 9.444,20.679 7.897,20.099 6.980 C 19.148 5.480,17.896 4.341,16.320 3.543 C 15.235 2.994,14.306 2.706,13.286 2.602 C 12.677 2.540,10.743 2.555,10.289 2.625 M8.877 6.213 C 9.083 6.281,9.417 6.720,10.220 7.979 C 11.196 9.510,11.932 10.614,11.989 10.631 C 12.034 10.645,12.339 10.193,13.916 7.777 C 14.775 6.462,14.929 6.256,15.104 6.199 C 15.183 6.173,15.403 6.149,15.594 6.147 C 15.879 6.144,15.970 6.158,16.109 6.232 C 16.513 6.444,16.640 6.696,16.640 7.285 C 16.640 7.563,16.636 7.573,16.255 8.293 C 16.043 8.693,15.717 9.297,15.531 9.635 C 15.069 10.470,14.975 10.680,15.043 10.722 C 15.072 10.740,15.259 10.793,15.458 10.841 C 15.971 10.963,16.255 11.099,16.441 11.311 C 16.625 11.520,16.656 11.647,16.632 12.100 C 16.617 12.398,16.599 12.462,16.473 12.668 C 16.228 13.069,16.108 13.103,14.429 13.253 C 13.622 13.326,13.383 13.360,13.333 13.410 C 13.255 13.488,13.206 13.762,13.202 14.130 L 13.200 14.400 13.335 14.400 C 13.689 14.400,15.608 14.527,15.820 14.564 C 16.094 14.613,16.263 14.705,16.433 14.898 C 16.607 15.097,16.653 15.279,16.631 15.678 C 16.608 16.070,16.560 16.187,16.317 16.430 C 16.023 16.725,15.585 16.798,14.114 16.799 L 13.208 16.800 13.182 17.130 C 13.096 18.227,13.020 18.527,12.760 18.795 C 12.517 19.046,12.388 19.099,12.020 19.099 C 11.740 19.100,11.674 19.085,11.486 18.982 C 11.049 18.739,10.929 18.405,10.817 17.110 L 10.791 16.800 10.045 16.799 C 9.635 16.798,9.032 16.781,8.706 16.761 C 8.011 16.719,7.778 16.636,7.552 16.349 L 7.420 16.183 7.420 15.614 C 7.420 14.966,7.441 14.910,7.764 14.712 C 8.016 14.556,8.483 14.501,10.250 14.417 L 10.800 14.390 10.799 14.125 C 10.798 13.811,10.739 13.527,10.655 13.435 C 10.583 13.355,10.511 13.344,9.380 13.240 C 8.048 13.117,7.764 13.039,7.565 12.745 C 7.386 12.479,7.340 12.323,7.343 12.000 C 7.350 11.474,7.508 11.198,7.890 11.046 C 8.064 10.976,8.955 10.720,9.021 10.720 C 9.054 10.720,8.827 10.288,8.071 8.909 L 7.351 7.597 7.366 7.186 C 7.380 6.806,7.391 6.762,7.509 6.576 C 7.645 6.365,7.821 6.213,7.995 6.156 C 8.125 6.114,8.685 6.150,8.877 6.213 " fill="#373B4D" stroke="none" fill-rule="evenodd"></path></svg>