<svg width="24" height="24" viewBox="0 0 24 24" fill="none" xmlns="http://www.w3.org/2000/svg"><path d="M10.760 2.522 C 10.374 2.561,9.778 2.692,9.213 2.863 C 7.699 3.321,6.431 4.086,5.278 5.239 C 4.146 6.370,3.447 7.473,2.937 8.932 C 2.589 9.928,2.429 10.874,2.427 11.940 C 2.425 12.966,2.541 13.773,2.827 14.720 C 3.603 17.286,5.348 19.360,7.722 20.537 C 8.525 20.935,9.507 21.288,10.181 21.420 C 10.954 21.572,12.804 21.593,13.592 21.458 C 14.060 21.378,14.717 21.191,15.300 20.971 C 17.069 20.304,18.595 19.166,19.682 17.700 C 20.542 16.540,21.320 14.686,21.487 13.400 C 21.553 12.883,21.554 11.041,21.487 10.580 C 21.355 9.662,20.930 8.407,20.452 7.520 C 19.135 5.077,16.774 3.289,14.060 2.676 C 13.604 2.573,13.417 2.554,12.540 2.521 C 11.413 2.478,11.186 2.478,10.760 2.522 M8.987 6.223 C 9.229 6.373,9.361 6.563,10.602 8.564 C 11.584 10.146,11.936 10.680,11.997 10.680 C 12.051 10.680,12.441 10.088,13.381 8.580 C 14.630 6.574,14.807 6.325,15.098 6.168 C 15.293 6.063,15.891 6.077,16.109 6.192 C 16.561 6.430,16.680 6.635,16.680 7.177 C 16.680 7.640,16.703 7.588,15.755 9.244 C 15.145 10.311,14.935 10.709,14.967 10.741 C 14.975 10.748,15.202 10.792,15.471 10.837 C 16.034 10.931,16.168 10.980,16.375 11.161 C 16.557 11.321,16.630 11.455,16.683 11.730 C 16.751 12.088,16.694 12.410,16.513 12.681 C 16.427 12.810,16.296 12.953,16.222 12.998 C 16.034 13.115,15.800 13.147,14.620 13.220 C 13.393 13.295,13.332 13.303,13.273 13.413 C 13.249 13.458,13.220 13.697,13.209 13.943 L 13.189 14.389 14.045 14.417 C 14.515 14.432,15.158 14.461,15.474 14.482 C 16.003 14.517,16.062 14.529,16.214 14.632 C 16.305 14.693,16.450 14.845,16.537 14.970 C 16.679 15.177,16.695 15.226,16.711 15.514 C 16.728 15.796,16.718 15.858,16.623 16.066 C 16.472 16.394,16.182 16.660,15.909 16.719 C 15.795 16.743,15.140 16.774,14.455 16.788 L 13.208 16.813 13.181 17.376 C 13.134 18.354,13.095 18.497,12.784 18.834 C 12.404 19.244,11.707 19.265,11.270 18.880 C 10.952 18.600,10.884 18.356,10.817 17.250 L 10.790 16.800 9.745 16.799 C 8.375 16.797,7.998 16.762,7.785 16.612 C 7.697 16.551,7.561 16.411,7.483 16.301 C 7.346 16.112,7.339 16.086,7.326 15.719 C 7.319 15.508,7.333 15.261,7.357 15.171 C 7.412 14.967,7.717 14.620,7.891 14.564 C 8.063 14.508,8.867 14.450,9.930 14.417 L 10.800 14.389 10.800 14.077 C 10.800 13.643,10.736 13.364,10.626 13.322 C 10.579 13.304,10.045 13.260,9.440 13.223 C 8.174 13.147,7.958 13.116,7.758 12.984 C 7.578 12.864,7.381 12.562,7.317 12.307 C 7.255 12.060,7.293 11.650,7.395 11.452 C 7.496 11.256,7.701 11.060,7.888 10.982 C 8.005 10.934,8.913 10.760,9.051 10.760 C 9.098 10.760,8.859 10.311,8.221 9.200 C 7.899 8.639,7.560 8.028,7.468 7.842 C 7.311 7.528,7.300 7.483,7.303 7.182 C 7.306 6.793,7.420 6.532,7.687 6.303 C 7.909 6.114,8.029 6.080,8.447 6.093 C 8.751 6.103,8.817 6.119,8.987 6.223 " fill="#373B4D" stroke="none" fill-rule="evenodd"></path></svg>