<svg width="24" height="24" viewBox="0 0 24 24" fill="none" xmlns="http://www.w3.org/2000/svg"><path d="M10.760 2.522 C 10.374 2.561,9.778 2.692,9.213 2.863 C 7.699 3.321,6.431 4.086,5.278 5.239 C 4.146 6.370,3.447 7.473,2.937 8.932 C 2.589 9.928,2.429 10.874,2.427 11.940 C 2.425 12.966,2.541 13.773,2.827 14.720 C 3.603 17.286,5.348 19.360,7.722 20.537 C 8.525 20.935,9.507 21.288,10.181 21.420 C 10.954 21.572,12.804 21.593,13.592 21.458 C 14.060 21.378,14.717 21.191,15.300 20.971 C 17.069 20.304,18.595 19.166,19.682 17.700 C 20.542 16.540,21.320 14.686,21.487 13.400 C 21.553 12.883,21.554 11.041,21.487 10.580 C 21.355 9.662,20.930 8.407,20.452 7.520 C 19.135 5.077,16.774 3.289,14.060 2.676 C 13.604 2.573,13.417 2.554,12.540 2.521 C 11.413 2.478,11.186 2.478,10.760 2.522 M14.081 4.978 C 14.913 5.149,15.732 5.763,16.251 6.603 C 16.578 7.133,16.636 7.352,16.667 8.162 C 16.691 8.805,16.689 8.836,16.604 8.974 C 16.218 9.598,15.314 9.754,14.839 9.279 C 14.692 9.132,14.665 9.072,14.252 7.982 C 14.080 7.528,13.808 7.336,13.277 7.296 C 12.961 7.271,12.924 7.277,12.724 7.378 C 12.606 7.438,12.423 7.568,12.317 7.666 C 12.163 7.811,12.116 7.886,12.079 8.053 C 12.054 8.170,12.024 8.812,12.011 9.525 L 11.988 10.790 12.524 10.819 C 13.524 10.871,13.701 10.915,14.000 11.185 C 14.201 11.366,14.293 11.637,14.297 12.060 C 14.299 12.316,14.282 12.413,14.212 12.545 C 14.097 12.760,13.752 13.067,13.567 13.120 C 13.486 13.143,13.103 13.173,12.715 13.187 L 12.009 13.212 11.983 13.656 C 11.935 14.474,11.878 15.259,11.860 15.340 C 11.838 15.447,11.878 15.502,12.003 15.533 C 12.060 15.547,12.915 15.585,13.903 15.619 C 15.805 15.683,16.000 15.697,16.159 15.780 C 16.305 15.857,16.497 16.073,16.604 16.280 C 16.681 16.428,16.698 16.523,16.699 16.820 C 16.700 17.144,16.689 17.199,16.588 17.371 C 16.424 17.650,16.235 17.821,16.035 17.874 C 15.706 17.960,13.703 18.007,10.891 17.993 L 8.100 17.980 7.912 17.870 C 7.716 17.754,7.501 17.517,7.377 17.280 C 7.287 17.108,7.274 16.575,7.355 16.347 C 7.423 16.151,7.612 15.936,7.796 15.843 C 7.875 15.803,8.174 15.684,8.460 15.580 C 9.201 15.308,9.429 15.120,9.521 14.705 C 9.546 14.592,9.576 14.210,9.589 13.856 L 9.611 13.213 8.896 13.187 C 8.502 13.173,8.110 13.141,8.024 13.117 C 7.850 13.068,7.497 12.742,7.375 12.518 C 7.272 12.328,7.274 11.689,7.378 11.469 C 7.479 11.258,7.801 10.980,8.008 10.926 C 8.103 10.901,8.495 10.860,8.880 10.835 C 9.265 10.810,9.582 10.787,9.584 10.785 C 9.587 10.782,9.610 10.206,9.636 9.505 C 9.704 7.669,9.728 7.460,9.920 7.050 C 10.315 6.206,10.890 5.598,11.658 5.211 C 12.026 5.026,12.214 4.959,12.480 4.919 C 12.772 4.875,13.753 4.911,14.081 4.978 " fill="#373B4D" stroke="none" fill-rule="evenodd"></path></svg>