<svg width="24" height="24" viewBox="0 0 24 24" fill="none" xmlns="http://www.w3.org/2000/svg"><path d="M10.800 2.602 C 9.953 2.652,9.188 2.852,8.279 3.261 C 6.771 3.938,5.535 4.887,4.488 6.170 C 3.517 7.359,2.767 9.091,2.533 10.680 C 2.428 11.395,2.439 12.868,2.554 13.500 C 2.856 15.155,3.599 16.799,4.565 17.948 C 4.922 18.373,5.698 19.144,6.080 19.452 C 6.934 20.141,8.561 20.975,9.600 21.255 C 10.436 21.481,10.632 21.500,12.100 21.497 L 13.460 21.494 14.014 21.346 C 15.888 20.845,17.402 20.015,18.653 18.802 C 19.696 17.790,20.318 16.838,20.913 15.340 C 21.339 14.268,21.411 13.950,21.483 12.820 C 21.537 11.953,21.512 10.911,21.423 10.380 C 21.183 8.955,20.388 7.240,19.397 6.013 C 18.128 4.440,15.991 3.130,14.061 2.740 C 13.262 2.578,12.060 2.527,10.800 2.602 M16.249 6.314 C 16.541 6.624,16.600 6.778,16.600 7.228 C 16.599 7.685,16.568 7.787,16.364 7.995 C 16.127 8.238,15.944 8.291,14.900 8.422 C 14.460 8.478,14.069 8.533,14.030 8.544 C 13.939 8.572,13.941 8.691,14.039 9.006 C 14.148 9.354,14.248 9.503,14.407 9.555 C 14.480 9.579,14.870 9.643,15.274 9.698 C 16.185 9.820,16.300 9.868,16.475 10.197 C 16.592 10.416,16.600 10.458,16.600 10.846 C 16.600 11.195,16.587 11.282,16.516 11.400 C 16.376 11.633,16.236 11.756,16.014 11.839 C 15.782 11.926,15.135 12.000,14.600 12.001 L 14.260 12.001 14.000 12.508 C 13.398 13.680,12.857 14.295,11.833 14.971 C 11.510 15.184,11.235 15.376,11.222 15.397 C 11.208 15.419,11.391 15.655,11.629 15.922 C 12.899 17.352,13.010 17.510,13.033 17.924 C 13.054 18.295,12.962 18.557,12.725 18.801 C 12.588 18.943,12.484 19.009,12.323 19.056 C 11.844 19.197,11.629 19.111,10.960 18.508 C 10.081 17.717,7.320 14.996,7.320 14.922 C 7.320 14.677,7.413 14.008,7.466 13.877 C 7.533 13.709,7.746 13.499,7.911 13.436 C 7.968 13.414,8.510 13.317,9.117 13.220 C 9.724 13.124,10.327 13.007,10.458 12.961 C 10.796 12.844,11.486 12.306,11.425 12.208 C 11.391 12.153,11.197 12.131,9.940 12.039 C 8.114 11.907,7.874 11.864,7.652 11.629 C 7.466 11.433,7.431 11.335,7.409 10.957 C 7.380 10.451,7.418 10.264,7.587 10.077 C 7.826 9.813,8.099 9.766,10.040 9.660 C 11.276 9.592,11.600 9.563,11.600 9.521 C 11.600 9.464,11.165 9.082,10.922 8.925 C 10.577 8.701,10.439 8.663,9.240 8.464 C 8.053 8.266,7.778 8.183,7.606 7.975 C 7.445 7.779,7.400 7.593,7.400 7.120 C 7.400 6.638,7.459 6.503,7.739 6.338 C 7.964 6.207,8.303 6.177,10.261 6.121 C 11.751 6.077,12.360 6.068,14.785 6.049 L 15.990 6.040 16.249 6.314 " fill="#373B4D" stroke="none" fill-rule="evenodd"></path></svg>