<svg width="24" height="24" viewBox="0 0 24 24" fill="none" xmlns="http://www.w3.org/2000/svg"><path d="M10.567 2.540 C 10.362 2.572,9.954 2.660,9.661 2.738 C 6.393 3.597,3.957 5.878,2.901 9.066 C 2.589 10.005,2.494 10.561,2.455 11.660 C 2.414 12.827,2.548 13.868,2.865 14.849 C 3.780 17.681,5.809 19.845,8.553 20.914 C 9.615 21.328,10.223 21.460,11.368 21.527 C 12.721 21.606,13.795 21.479,14.932 21.105 C 15.952 20.769,16.865 20.302,17.657 19.712 C 18.162 19.335,19.094 18.444,19.468 17.980 C 20.586 16.596,21.404 14.609,21.520 13.000 C 21.604 11.843,21.559 10.880,21.384 10.060 C 20.977 8.155,19.859 6.196,18.473 4.961 C 17.028 3.673,15.498 2.921,13.620 2.577 C 13.114 2.484,11.095 2.460,10.567 2.540 M12.448 4.934 C 12.827 5.096,13.070 5.421,13.170 5.900 L 13.215 6.114 13.478 6.180 C 14.019 6.314,14.819 6.686,15.360 7.053 C 15.673 7.265,16.046 7.649,16.145 7.860 C 16.268 8.120,16.278 8.653,16.165 8.900 C 15.930 9.416,15.434 9.647,14.831 9.522 C 14.653 9.485,14.511 9.410,14.189 9.182 C 13.710 8.842,13.418 8.660,13.290 8.622 L 13.200 8.595 13.200 9.748 L 13.200 10.902 13.490 10.975 C 14.148 11.141,15.019 11.580,15.566 12.022 C 16.098 12.452,16.508 13.069,16.667 13.680 C 16.764 14.051,16.763 14.858,16.665 15.180 C 16.303 16.377,15.179 17.331,13.595 17.787 L 13.206 17.899 13.182 18.060 C 13.129 18.414,12.865 18.838,12.580 19.028 C 12.449 19.116,12.363 19.138,12.100 19.152 C 11.685 19.174,11.505 19.121,11.259 18.906 C 11.049 18.722,10.931 18.509,10.823 18.120 L 10.762 17.900 10.342 17.769 C 9.405 17.476,8.790 17.136,8.225 16.600 C 7.866 16.259,7.773 16.082,7.737 15.675 C 7.713 15.402,7.720 15.347,7.809 15.155 C 7.951 14.846,8.090 14.700,8.382 14.556 C 8.624 14.437,8.656 14.431,8.929 14.458 C 9.301 14.495,9.410 14.543,9.876 14.874 C 10.290 15.168,10.567 15.336,10.710 15.379 L 10.800 15.405 10.799 14.253 L 10.799 13.100 10.353 12.968 C 9.743 12.789,9.385 12.633,8.962 12.366 C 8.288 11.941,7.828 11.451,7.520 10.829 C 7.202 10.188,7.154 9.310,7.399 8.612 C 7.585 8.085,8.239 7.297,8.780 6.950 C 9.281 6.628,9.915 6.342,10.474 6.183 L 10.769 6.100 10.858 5.792 C 10.907 5.623,10.994 5.413,11.052 5.325 C 11.153 5.172,11.414 4.963,11.608 4.879 C 11.730 4.827,12.281 4.862,12.448 4.934 M10.442 8.750 C 10.129 8.932,9.708 9.317,9.640 9.480 C 9.600 9.576,9.601 9.625,9.642 9.725 C 9.750 9.985,10.392 10.514,10.620 10.531 C 10.780 10.543,10.791 10.479,10.795 9.560 C 10.799 8.816,10.783 8.600,10.724 8.600 C 10.710 8.600,10.583 8.668,10.442 8.750 M13.200 14.400 L 13.200 15.405 13.290 15.378 C 13.593 15.286,14.071 14.934,14.250 14.670 C 14.435 14.398,14.407 14.278,14.090 13.966 C 13.835 13.715,13.490 13.480,13.290 13.421 L 13.200 13.395 13.200 14.400 " fill="#373B4D" stroke="none" fill-rule="evenodd"></path></svg>