<svg width="24" height="24" viewBox="0 0 24 24" fill="none" xmlns="http://www.w3.org/2000/svg"><path d="M10.344 2.662 C 9.290 2.806,8.045 3.285,6.928 3.977 C 4.989 5.180,3.633 6.950,2.881 9.261 C 2.567 10.226,2.466 10.894,2.468 11.980 C 2.472 13.841,2.923 15.420,3.901 16.998 C 4.585 18.103,5.651 19.192,6.813 19.974 C 7.839 20.665,9.382 21.270,10.508 21.422 C 11.133 21.506,12.407 21.539,12.985 21.485 C 14.457 21.349,15.933 20.812,17.240 19.939 C 18.083 19.375,19.411 18.069,19.923 17.300 C 20.627 16.243,21.301 14.551,21.439 13.498 C 21.513 12.928,21.538 11.407,21.482 10.865 C 21.309 9.181,20.430 7.214,19.226 5.814 C 18.321 4.762,17.300 4.012,15.879 3.353 C 14.878 2.889,14.262 2.716,13.344 2.642 C 12.626 2.584,10.832 2.596,10.344 2.662 M12.400 5.003 C 12.647 5.065,12.822 5.252,13.040 5.688 L 13.243 6.093 13.844 6.344 C 14.778 6.735,15.259 7.012,15.707 7.418 C 16.060 7.737,16.120 7.883,16.120 8.424 C 16.120 8.896,16.109 8.930,15.864 9.194 C 15.726 9.343,15.449 9.495,15.247 9.534 C 15.056 9.570,14.748 9.455,13.975 9.056 C 13.355 8.736,13.305 8.717,13.264 8.786 C 13.235 8.834,13.220 9.183,13.220 9.782 C 13.220 10.563,13.230 10.719,13.285 10.802 C 13.328 10.868,13.535 10.984,13.905 11.150 C 15.201 11.732,15.862 12.260,16.380 13.126 C 16.572 13.447,16.581 13.475,16.606 13.840 C 16.620 14.049,16.634 14.461,16.636 14.755 L 16.640 15.289 16.450 15.609 C 16.024 16.324,15.488 16.860,14.833 17.224 C 14.672 17.313,14.274 17.500,13.950 17.638 C 13.296 17.917,13.236 17.966,12.982 18.420 C 12.789 18.764,12.536 19.021,12.334 19.077 C 11.953 19.183,11.536 19.088,11.291 18.841 C 11.208 18.757,11.050 18.521,10.940 18.316 C 10.817 18.086,10.702 17.923,10.640 17.891 C 10.585 17.862,10.285 17.734,9.974 17.606 C 8.998 17.205,8.470 16.847,8.047 16.300 L 7.834 16.023 7.847 15.582 C 7.859 15.158,7.865 15.132,7.990 14.953 C 8.142 14.734,8.438 14.570,8.742 14.536 C 9.026 14.504,9.335 14.614,10.035 14.996 C 10.362 15.174,10.656 15.320,10.690 15.320 C 10.724 15.320,10.762 15.292,10.776 15.257 C 10.789 15.222,10.800 14.722,10.800 14.147 L 10.800 13.100 10.350 12.946 C 9.256 12.572,8.505 12.073,7.913 11.328 C 7.565 10.890,7.441 10.621,7.398 10.205 C 7.308 9.353,7.367 8.811,7.600 8.340 C 8.002 7.526,8.790 6.896,10.085 6.353 C 10.747 6.075,10.671 6.142,11.042 5.510 C 11.239 5.175,11.441 4.991,11.649 4.960 C 11.842 4.931,12.191 4.951,12.400 5.003 M10.440 8.794 C 10.128 9.025,9.732 9.383,9.679 9.483 C 9.619 9.593,9.694 9.739,9.947 10.004 C 10.181 10.249,10.492 10.480,10.589 10.480 C 10.712 10.480,10.772 10.198,10.791 9.533 C 10.809 8.913,10.788 8.599,10.728 8.601 C 10.713 8.601,10.583 8.688,10.440 8.794 M13.227 13.467 C 13.212 13.481,13.200 13.924,13.200 14.449 L 13.200 15.405 13.290 15.377 C 13.530 15.302,14.207 14.722,14.284 14.525 C 14.369 14.311,14.082 13.959,13.521 13.586 C 13.289 13.432,13.269 13.424,13.227 13.467 " fill="#373B4D" stroke="none" fill-rule="evenodd"></path></svg>