<svg width="24" height="24" viewBox="0 0 24 24" fill="none" xmlns="http://www.w3.org/2000/svg"><path d="M10.289 2.625 C 9.884 2.688,9.108 2.900,8.687 3.064 C 7.846 3.390,6.714 4.042,6.040 4.589 C 5.622 4.928,4.580 5.998,4.311 6.365 C 3.488 7.486,2.931 8.746,2.599 10.240 C 2.430 11.002,2.402 12.647,2.544 13.480 C 2.754 14.707,3.342 16.217,3.993 17.200 C 4.677 18.233,5.842 19.378,6.866 20.023 C 7.315 20.306,8.462 20.870,8.970 21.057 C 9.925 21.410,10.747 21.536,12.080 21.534 C 12.901 21.533,13.134 21.519,13.520 21.448 C 15.715 21.046,17.863 19.828,19.258 18.196 C 20.031 17.291,20.567 16.333,21.060 14.972 C 21.389 14.066,21.440 13.808,21.485 12.820 C 21.527 11.881,21.505 10.799,21.433 10.340 C 21.294 9.444,20.679 7.897,20.099 6.980 C 19.148 5.480,17.896 4.341,16.320 3.543 C 15.235 2.994,14.306 2.706,13.286 2.602 C 12.677 2.540,10.743 2.555,10.289 2.625 M16.231 6.270 C 16.568 6.603,16.619 6.730,16.619 7.240 C 16.619 7.705,16.603 7.751,16.350 8.026 C 16.136 8.258,15.984 8.299,14.861 8.424 C 14.354 8.480,13.932 8.534,13.922 8.544 C 13.898 8.568,14.055 9.096,14.156 9.332 C 14.209 9.454,14.273 9.535,14.337 9.559 C 14.392 9.580,14.710 9.625,15.043 9.660 C 15.770 9.736,16.001 9.778,16.185 9.865 C 16.471 10.001,16.640 10.363,16.640 10.839 C 16.640 11.348,16.439 11.695,16.063 11.836 C 15.813 11.929,15.201 12.000,14.646 12.000 L 14.260 12.000 13.992 12.539 C 13.384 13.759,12.819 14.381,11.710 15.050 C 11.464 15.198,11.240 15.343,11.211 15.372 C 11.169 15.414,11.274 15.547,11.786 16.102 C 12.557 16.937,12.863 17.316,12.991 17.595 C 13.077 17.781,13.087 17.844,13.064 18.075 C 13.000 18.718,12.585 19.120,11.986 19.120 C 11.560 19.120,11.426 19.009,9.032 16.668 L 7.311 14.984 7.339 14.582 C 7.382 13.958,7.423 13.815,7.615 13.624 C 7.710 13.528,7.850 13.437,7.947 13.409 C 8.038 13.381,8.559 13.296,9.103 13.218 C 10.275 13.052,10.388 13.027,10.695 12.866 C 10.981 12.717,11.519 12.225,11.460 12.167 C 11.438 12.145,10.952 12.098,10.380 12.062 C 8.440 11.942,7.964 11.883,7.740 11.737 C 7.687 11.701,7.588 11.590,7.521 11.489 C 7.402 11.310,7.400 11.297,7.400 10.801 C 7.400 10.301,7.401 10.294,7.521 10.131 C 7.758 9.809,8.025 9.749,9.540 9.680 C 10.046 9.657,10.703 9.620,11.000 9.599 C 11.297 9.578,11.553 9.560,11.570 9.560 C 11.729 9.559,11.343 9.183,10.863 8.872 C 10.538 8.662,10.367 8.618,9.240 8.458 C 8.056 8.290,7.871 8.242,7.665 8.047 C 7.454 7.846,7.400 7.699,7.373 7.244 C 7.344 6.776,7.388 6.614,7.590 6.437 C 7.816 6.238,7.961 6.198,8.615 6.156 C 9.228 6.116,12.461 6.058,14.749 6.046 L 15.998 6.040 16.231 6.270 " fill="#373B4D" stroke="none" fill-rule="evenodd"></path></svg>