<svg width="24" height="24" viewBox="0 0 24 24" fill="none" xmlns="http://www.w3.org/2000/svg"><path d="M10.760 2.522 C 10.374 2.561,9.778 2.692,9.213 2.863 C 7.699 3.321,6.431 4.086,5.278 5.239 C 4.146 6.370,3.447 7.473,2.937 8.932 C 2.589 9.928,2.429 10.874,2.427 11.940 C 2.425 12.966,2.541 13.773,2.827 14.720 C 3.603 17.286,5.348 19.360,7.722 20.537 C 8.525 20.935,9.507 21.288,10.181 21.420 C 10.954 21.572,12.804 21.593,13.592 21.458 C 14.060 21.378,14.717 21.191,15.300 20.971 C 17.069 20.304,18.595 19.166,19.682 17.700 C 20.542 16.540,21.320 14.686,21.487 13.400 C 21.553 12.883,21.554 11.041,21.487 10.580 C 21.355 9.662,20.930 8.407,20.452 7.520 C 19.135 5.077,16.774 3.289,14.060 2.676 C 13.604 2.573,13.417 2.554,12.540 2.521 C 11.413 2.478,11.186 2.478,10.760 2.522 M8.886 4.918 C 9.266 4.947,9.407 4.977,9.657 5.081 C 10.120 5.274,10.539 5.568,10.960 5.995 C 11.703 6.748,11.846 7.161,11.973 8.920 L 12.020 9.580 13.740 9.628 C 15.618 9.681,16.001 9.712,16.229 9.828 C 16.312 9.871,16.437 9.989,16.506 10.092 C 16.723 10.411,16.775 11.020,16.613 11.334 C 16.519 11.515,16.233 11.806,16.090 11.866 C 15.871 11.958,15.088 11.999,13.510 11.999 L 12.000 12.000 12.003 13.210 C 12.005 13.876,12.019 14.764,12.035 15.183 C 12.063 15.910,12.070 15.956,12.170 16.127 C 12.297 16.344,12.556 16.585,12.754 16.671 C 12.975 16.767,13.456 16.759,13.680 16.656 C 14.012 16.504,14.245 16.193,14.318 15.809 C 14.338 15.705,14.383 15.305,14.419 14.920 C 14.497 14.076,14.555 13.851,14.749 13.635 C 14.983 13.377,15.134 13.320,15.590 13.320 C 16.093 13.320,16.254 13.394,16.549 13.760 C 16.757 14.018,16.758 14.022,16.759 14.300 C 16.761 15.050,16.675 16.286,16.602 16.572 C 16.322 17.665,15.255 18.754,14.177 19.045 C 13.720 19.169,12.679 19.171,12.234 19.049 C 11.561 18.865,10.958 18.449,10.454 17.822 C 10.162 17.458,9.817 16.800,9.762 16.500 C 9.712 16.222,9.648 14.827,9.616 13.296 L 9.589 12.012 8.884 11.987 C 8.497 11.973,8.110 11.941,8.024 11.917 C 7.850 11.868,7.497 11.542,7.375 11.318 C 7.316 11.209,7.301 11.099,7.303 10.800 C 7.306 10.372,7.370 10.197,7.606 9.974 C 7.875 9.722,8.088 9.670,9.070 9.619 L 9.600 9.591 9.599 9.066 C 9.598 8.263,9.476 7.819,9.192 7.579 C 9.039 7.450,8.850 7.365,8.300 7.173 C 7.774 6.990,7.595 6.881,7.444 6.654 C 7.325 6.473,7.320 6.450,7.321 6.043 C 7.322 5.720,7.339 5.582,7.395 5.460 C 7.493 5.246,7.797 4.971,7.966 4.943 C 8.389 4.875,8.343 4.876,8.886 4.918 " fill="#373B4D" stroke="none" fill-rule="evenodd"></path></svg>