<svg width="24" height="24" viewBox="0 0 24 24" fill="none" xmlns="http://www.w3.org/2000/svg"><path d="M11.100 2.520 C 10.237 2.569,9.409 2.765,8.480 3.139 C 5.772 4.230,3.838 6.293,2.907 9.082 C 2.601 9.997,2.491 10.628,2.454 11.680 C 2.396 13.332,2.719 14.803,3.470 16.300 C 4.475 18.303,6.178 19.893,8.284 20.794 C 9.177 21.175,9.957 21.392,10.760 21.481 C 11.170 21.527,12.803 21.540,13.112 21.500 C 14.650 21.302,16.037 20.793,17.240 19.987 C 18.160 19.370,19.171 18.399,19.789 17.540 C 20.493 16.560,21.115 15.138,21.400 13.860 C 21.599 12.965,21.590 10.980,21.383 10.080 C 20.802 7.548,19.383 5.458,17.300 4.062 C 16.448 3.491,15.172 2.939,14.160 2.703 C 13.440 2.535,12.176 2.460,11.100 2.520 M12.383 4.939 C 12.491 4.971,12.646 5.053,12.728 5.120 C 12.891 5.255,13.137 5.707,13.178 5.948 L 13.204 6.100 13.672 6.251 C 14.808 6.617,15.808 7.272,16.104 7.843 C 16.201 8.030,16.217 8.107,16.218 8.400 C 16.219 8.675,16.202 8.776,16.128 8.927 C 15.943 9.304,15.532 9.560,15.114 9.560 C 14.897 9.560,14.571 9.426,14.212 9.191 C 13.761 8.896,13.272 8.600,13.233 8.600 C 13.192 8.600,13.190 10.802,13.231 10.866 C 13.247 10.891,13.341 10.933,13.439 10.960 C 13.538 10.986,13.799 11.080,14.019 11.167 C 15.367 11.701,16.240 12.488,16.585 13.479 C 16.772 14.017,16.752 15.024,16.545 15.492 C 16.226 16.214,15.476 16.960,14.666 17.362 C 14.485 17.451,14.086 17.611,13.779 17.717 L 13.222 17.910 13.157 18.125 C 13.012 18.610,12.689 19.018,12.375 19.111 C 11.971 19.231,11.503 19.133,11.244 18.875 C 11.075 18.705,10.880 18.344,10.805 18.060 L 10.762 17.899 10.291 17.746 C 9.407 17.458,8.754 17.091,8.231 16.589 C 7.883 16.256,7.761 16.006,7.760 15.625 C 7.760 15.259,7.821 15.072,8.016 14.852 C 8.240 14.597,8.505 14.481,8.860 14.481 C 9.204 14.481,9.367 14.551,10.057 14.998 C 10.482 15.274,10.711 15.400,10.783 15.400 C 10.792 15.400,10.800 14.881,10.800 14.247 L 10.800 13.095 10.421 12.988 C 9.498 12.727,8.832 12.352,8.240 11.760 C 7.513 11.033,7.280 10.499,7.280 9.561 C 7.280 8.841,7.442 8.374,7.885 7.814 C 8.456 7.094,9.177 6.631,10.332 6.242 L 10.764 6.096 10.879 5.763 C 11.011 5.382,11.145 5.195,11.417 5.010 C 11.590 4.893,11.638 4.880,11.897 4.880 C 12.056 4.880,12.274 4.906,12.383 4.939 M10.393 8.796 C 10.045 9.030,9.695 9.356,9.641 9.498 C 9.581 9.654,9.653 9.785,9.961 10.083 C 10.271 10.384,10.573 10.557,10.675 10.492 C 10.776 10.428,10.792 10.303,10.795 9.520 C 10.799 8.794,10.783 8.600,10.719 8.600 C 10.701 8.600,10.555 8.688,10.393 8.796 M13.200 14.403 L 13.200 15.405 13.290 15.379 C 13.589 15.291,14.184 14.819,14.297 14.580 C 14.403 14.357,14.353 14.239,14.022 13.929 C 13.780 13.704,13.323 13.400,13.224 13.400 C 13.211 13.400,13.200 13.851,13.200 14.403 " fill="#373B4D" stroke="none" fill-rule="evenodd"></path></svg>