<svg width="24" height="24" viewBox="0 0 24 24" fill="none" xmlns="http://www.w3.org/2000/svg"><path d="M10.780 2.522 C 9.848 2.624,8.586 3.017,7.649 3.498 C 6.239 4.220,4.873 5.459,3.942 6.860 C 3.237 7.919,2.668 9.464,2.501 10.772 C 2.431 11.317,2.420 12.576,2.481 13.081 C 2.696 14.862,3.457 16.662,4.570 18.020 C 4.877 18.396,5.581 19.099,5.937 19.386 C 6.938 20.194,8.256 20.876,9.552 21.258 C 10.154 21.435,10.437 21.479,11.293 21.528 C 12.395 21.591,13.323 21.535,14.020 21.363 C 15.488 21.001,16.913 20.310,18.020 19.422 C 18.626 18.936,19.442 18.067,19.832 17.491 C 20.332 16.753,20.800 15.791,21.123 14.839 C 21.420 13.961,21.478 13.657,21.519 12.742 C 21.551 12.020,21.517 10.595,21.463 10.380 C 21.451 10.336,21.387 10.078,21.320 9.807 C 20.774 7.596,19.537 5.736,17.700 4.361 C 16.366 3.362,14.633 2.668,13.220 2.565 C 12.385 2.504,11.143 2.483,10.780 2.522 M16.226 6.245 C 16.575 6.523,16.651 6.678,16.672 7.163 C 16.691 7.589,16.642 7.738,16.394 8.021 C 16.160 8.287,15.989 8.335,15.060 8.397 C 13.982 8.470,13.880 8.482,13.880 8.544 C 13.880 8.575,13.962 8.823,14.062 9.094 L 14.243 9.587 14.932 9.633 C 15.738 9.687,16.053 9.738,16.226 9.844 C 16.381 9.939,16.557 10.165,16.625 10.356 C 16.698 10.561,16.694 11.128,16.618 11.311 C 16.541 11.497,16.307 11.743,16.111 11.844 C 15.929 11.938,15.393 11.998,14.735 11.999 L 14.251 12.000 14.179 12.190 C 14.068 12.487,13.725 13.158,13.559 13.401 C 13.054 14.145,12.399 14.709,11.467 15.202 L 11.115 15.389 11.644 15.944 C 12.788 17.146,13.058 17.487,13.103 17.783 C 13.141 18.036,13.055 18.472,12.931 18.651 C 12.790 18.857,12.497 19.065,12.266 19.123 C 11.953 19.202,11.702 19.149,11.396 18.940 C 11.103 18.740,9.001 16.694,7.974 15.610 L 7.320 14.920 7.322 14.550 C 7.325 13.893,7.390 13.726,7.733 13.493 C 7.967 13.334,8.126 13.303,9.200 13.202 C 10.122 13.116,10.447 13.051,10.700 12.902 C 10.905 12.781,11.465 12.304,11.518 12.203 C 11.554 12.137,11.544 12.123,11.450 12.104 C 11.389 12.092,10.710 12.054,9.940 12.021 C 8.505 11.958,8.015 11.911,7.840 11.819 C 7.687 11.739,7.451 11.477,7.382 11.311 C 7.286 11.080,7.297 10.472,7.402 10.255 C 7.509 10.035,7.754 9.816,7.953 9.762 C 8.141 9.711,9.130 9.655,10.496 9.617 C 11.044 9.602,11.537 9.578,11.592 9.563 C 11.687 9.538,11.678 9.524,11.396 9.266 C 10.687 8.618,10.539 8.565,9.000 8.418 C 8.267 8.348,7.934 8.284,7.782 8.185 C 7.726 8.149,7.610 8.029,7.523 7.919 C 7.344 7.693,7.301 7.488,7.326 6.991 C 7.338 6.744,7.358 6.677,7.457 6.547 C 7.642 6.305,7.870 6.170,8.148 6.138 C 8.412 6.108,11.886 6.057,14.394 6.047 L 15.969 6.040 16.226 6.245 " fill="#373B4D" stroke="none" fill-rule="evenodd"></path></svg>