<svg width="24" height="24" viewBox="0 0 24 24" fill="none" xmlns="http://www.w3.org/2000/svg"><path d="M10.460 2.556 C 8.397 2.940,6.796 3.749,5.385 5.120 C 4.496 5.984,3.882 6.821,3.377 7.860 C 2.066 10.554,2.096 13.601,3.462 16.323 C 4.177 17.749,5.334 19.053,6.680 19.949 C 7.607 20.566,8.758 21.065,9.980 21.380 C 10.692 21.563,12.698 21.607,13.602 21.459 C 14.327 21.340,15.373 20.991,16.183 20.597 C 17.678 19.870,19.020 18.714,19.908 17.388 C 20.322 16.768,20.870 15.645,21.111 14.919 C 21.413 14.007,21.475 13.692,21.529 12.787 C 21.595 11.660,21.531 10.569,21.360 9.900 C 21.053 8.702,20.624 7.713,19.996 6.757 C 18.554 4.560,16.139 2.990,13.567 2.575 C 13.303 2.532,12.811 2.507,12.020 2.497 C 11.015 2.484,10.807 2.492,10.460 2.556 M14.214 4.995 C 15.036 5.214,15.839 5.864,16.312 6.690 C 16.617 7.223,16.653 7.371,16.672 8.150 L 16.688 8.841 16.563 9.036 C 16.137 9.698,15.093 9.743,14.697 9.116 C 14.643 9.030,14.511 8.700,14.402 8.383 C 14.294 8.065,14.176 7.760,14.139 7.704 C 14.103 7.649,13.977 7.539,13.859 7.461 C 13.679 7.342,13.599 7.315,13.348 7.294 C 13.184 7.280,12.986 7.281,12.908 7.296 C 12.709 7.333,12.314 7.607,12.181 7.799 C 12.076 7.950,12.067 7.996,12.037 8.550 C 12.019 8.874,12.004 9.511,12.002 9.966 L 12.000 10.791 12.570 10.819 C 13.426 10.861,13.622 10.895,13.836 11.041 C 14.117 11.233,14.240 11.431,14.287 11.771 C 14.348 12.209,14.316 12.407,14.144 12.657 C 13.983 12.890,13.772 13.058,13.557 13.123 C 13.481 13.146,13.103 13.175,12.715 13.188 L 12.010 13.212 11.983 13.716 C 11.950 14.352,11.885 15.226,11.861 15.369 C 11.847 15.450,11.863 15.490,11.923 15.521 C 11.972 15.548,12.751 15.585,13.971 15.619 C 15.146 15.652,15.985 15.691,16.053 15.717 C 16.376 15.841,16.659 16.228,16.704 16.606 C 16.751 17.011,16.697 17.250,16.496 17.517 C 16.202 17.908,16.173 17.915,14.815 17.963 C 14.180 17.986,12.409 17.999,10.880 17.992 C 8.103 17.980,8.100 17.980,7.935 17.892 C 7.701 17.767,7.418 17.436,7.338 17.194 C 7.243 16.909,7.274 16.469,7.406 16.212 C 7.529 15.973,7.708 15.849,8.176 15.681 C 8.376 15.609,8.665 15.504,8.817 15.449 C 9.010 15.378,9.147 15.295,9.265 15.177 C 9.513 14.930,9.565 14.723,9.589 13.896 L 9.610 13.213 8.915 13.187 C 7.932 13.151,7.949 13.156,7.634 12.841 C 7.315 12.523,7.261 12.376,7.290 11.897 C 7.313 11.535,7.373 11.389,7.585 11.183 C 7.858 10.918,7.993 10.880,8.833 10.830 L 9.589 10.786 9.616 9.863 C 9.652 8.624,9.714 7.615,9.766 7.420 C 9.843 7.127,10.167 6.529,10.421 6.207 C 10.899 5.604,11.616 5.128,12.340 4.935 C 12.657 4.851,13.813 4.888,14.214 4.995 " fill="#373B4D" stroke="none" fill-rule="evenodd"></path></svg>