<svg width="24" height="24" viewBox="0 0 24 24" fill="none" xmlns="http://www.w3.org/2000/svg"><path d="M10.380 2.584 C 9.146 2.805,7.814 3.332,6.818 3.994 C 5.607 4.798,4.441 6.012,3.731 7.210 C 3.095 8.282,2.595 9.799,2.477 11.017 C 2.416 11.644,2.450 13.022,2.538 13.500 C 2.834 15.098,3.464 16.562,4.384 17.783 C 4.692 18.193,5.413 18.941,5.860 19.314 C 6.955 20.230,8.796 21.132,10.113 21.398 C 10.966 21.570,12.647 21.601,13.520 21.460 C 14.869 21.242,16.569 20.504,17.751 19.625 C 18.512 19.058,19.458 18.066,19.930 17.340 C 20.536 16.406,21.175 14.903,21.408 13.860 C 21.477 13.553,21.492 13.309,21.509 12.193 C 21.531 10.702,21.515 10.522,21.278 9.660 C 20.383 6.398,18.040 3.934,14.858 2.907 C 14.259 2.714,13.727 2.612,13.060 2.562 C 12.253 2.502,10.772 2.514,10.380 2.584 M8.820 6.164 C 9.126 6.248,9.300 6.485,10.660 8.660 C 11.073 9.320,11.536 10.045,11.690 10.271 C 11.932 10.627,11.978 10.675,12.032 10.631 C 12.111 10.567,12.808 9.501,13.700 8.081 C 14.418 6.939,14.828 6.358,15.010 6.224 C 15.098 6.161,15.201 6.140,15.502 6.127 C 15.866 6.111,15.894 6.116,16.143 6.238 C 16.511 6.419,16.676 6.706,16.679 7.168 C 16.682 7.560,16.619 7.693,15.433 9.820 C 15.200 10.238,14.998 10.617,14.984 10.662 C 14.961 10.738,14.993 10.751,15.448 10.838 C 16.406 11.023,16.680 11.285,16.679 12.020 C 16.679 12.329,16.582 12.594,16.381 12.831 C 16.164 13.089,15.988 13.130,14.720 13.218 C 13.377 13.312,13.366 13.314,13.291 13.429 C 13.244 13.499,13.221 13.653,13.208 13.959 L 13.190 14.389 13.885 14.416 C 14.945 14.457,15.843 14.520,16.014 14.565 C 16.206 14.615,16.490 14.874,16.598 15.096 C 16.718 15.344,16.712 15.829,16.586 16.101 C 16.466 16.357,16.135 16.661,15.933 16.699 C 15.627 16.756,14.833 16.798,14.038 16.799 L 13.216 16.800 13.167 17.442 C 13.140 17.794,13.099 18.173,13.076 18.282 C 12.943 18.903,12.295 19.284,11.692 19.096 C 11.399 19.005,11.029 18.659,10.965 18.416 C 10.915 18.229,10.855 17.725,10.818 17.194 L 10.791 16.809 9.526 16.789 C 8.068 16.767,7.910 16.741,7.643 16.474 C 7.399 16.229,7.360 16.111,7.360 15.602 C 7.360 15.102,7.386 15.023,7.627 14.795 C 7.842 14.591,7.904 14.566,8.326 14.521 C 8.704 14.480,10.204 14.400,10.590 14.400 L 10.800 14.400 10.800 14.102 C 10.800 13.722,10.734 13.410,10.643 13.362 C 10.605 13.341,10.215 13.296,9.777 13.262 C 7.923 13.117,7.854 13.103,7.604 12.819 C 7.384 12.568,7.303 12.345,7.307 11.999 C 7.312 11.509,7.502 11.167,7.851 11.021 C 7.934 10.987,8.205 10.914,8.454 10.860 C 8.914 10.761,9.040 10.725,9.040 10.694 C 9.040 10.657,8.847 10.301,8.349 9.420 C 8.063 8.914,7.714 8.283,7.574 8.017 C 7.337 7.566,7.320 7.516,7.322 7.277 C 7.325 6.751,7.425 6.535,7.797 6.250 C 7.958 6.126,7.983 6.120,8.313 6.120 C 8.504 6.120,8.732 6.140,8.820 6.164 " fill="#373B4D" stroke="none" fill-rule="evenodd"></path></svg>