<svg width="24" height="24" viewBox="0 0 24 24" fill="none" xmlns="http://www.w3.org/2000/svg"><path d="M10.680 2.562 C 9.847 2.629,8.634 3.012,7.629 3.528 C 6.202 4.260,4.700 5.649,3.844 7.030 C 3.150 8.149,2.629 9.657,2.483 10.968 C 2.393 11.782,2.448 13.117,2.601 13.808 C 2.934 15.313,3.521 16.620,4.374 17.760 C 4.745 18.256,5.679 19.189,6.160 19.545 C 7.337 20.416,8.933 21.157,10.160 21.403 C 10.776 21.526,11.996 21.584,12.790 21.528 C 13.767 21.459,14.413 21.305,15.429 20.897 C 17.178 20.195,18.614 19.108,19.703 17.660 C 20.334 16.821,21.026 15.314,21.362 14.047 C 21.467 13.651,21.517 12.929,21.518 11.780 C 21.520 10.756,21.475 10.352,21.285 9.680 C 20.787 7.921,19.954 6.474,18.748 5.274 C 17.986 4.515,17.233 3.978,16.240 3.485 C 15.354 3.044,14.574 2.780,13.756 2.644 C 13.093 2.533,11.552 2.492,10.680 2.562 M16.251 6.281 C 16.580 6.582,16.654 6.757,16.658 7.236 C 16.660 7.639,16.596 7.806,16.336 8.066 C 16.124 8.278,15.898 8.331,14.820 8.422 C 14.380 8.459,13.990 8.501,13.952 8.515 C 13.889 8.538,13.898 8.586,14.043 9.020 C 14.131 9.284,14.225 9.521,14.252 9.546 C 14.279 9.572,14.632 9.620,15.062 9.656 C 15.918 9.727,16.183 9.790,16.352 9.958 C 16.702 10.308,16.777 11.068,16.503 11.483 C 16.255 11.857,15.963 11.953,14.956 11.988 L 14.253 12.012 14.140 12.276 C 13.832 12.994,13.453 13.584,12.990 14.065 C 12.573 14.497,12.158 14.810,11.557 15.146 L 11.116 15.392 11.735 16.046 C 12.867 17.241,13.097 17.565,13.094 17.960 C 13.090 18.615,12.621 19.129,12.020 19.136 C 11.847 19.138,11.728 19.113,11.595 19.048 C 11.319 18.913,10.681 18.319,8.906 16.546 L 7.308 14.950 7.333 14.505 C 7.364 13.960,7.407 13.799,7.566 13.640 C 7.831 13.376,7.916 13.355,9.521 13.163 C 10.334 13.065,10.601 12.986,10.906 12.750 C 11.256 12.480,11.532 12.211,11.504 12.167 C 11.471 12.112,11.193 12.088,9.840 12.019 C 8.050 11.927,7.813 11.881,7.574 11.576 C 7.364 11.308,7.343 11.242,7.341 10.860 C 7.340 10.446,7.395 10.254,7.574 10.050 C 7.835 9.753,8.085 9.713,10.120 9.640 C 11.418 9.594,11.651 9.573,11.629 9.505 C 11.601 9.418,10.946 8.884,10.724 8.766 C 10.454 8.623,10.091 8.548,9.140 8.438 C 7.976 8.303,7.796 8.248,7.566 7.962 C 7.382 7.733,7.360 7.644,7.360 7.143 C 7.360 6.708,7.364 6.686,7.477 6.530 C 7.550 6.430,7.674 6.330,7.807 6.266 C 7.993 6.176,8.091 6.159,8.580 6.137 C 9.246 6.106,12.562 6.056,14.564 6.047 L 15.988 6.040 16.251 6.281 " fill="#373B4D" stroke="none" fill-rule="evenodd"></path></svg>