<svg width="24" height="24" viewBox="0 0 24 24" fill="none" xmlns="http://www.w3.org/2000/svg"><path d="M10.624 2.563 C 9.272 2.748,7.860 3.300,6.624 4.126 C 5.441 4.918,4.410 6.032,3.702 7.287 C 3.238 8.108,2.760 9.385,2.604 10.220 C 2.040 13.237,2.956 16.339,5.066 18.558 C 6.403 19.964,8.213 20.975,10.123 21.383 C 10.578 21.480,10.720 21.490,11.800 21.508 C 12.883 21.527,13.022 21.521,13.493 21.441 C 15.546 21.093,17.224 20.232,18.724 18.754 C 19.742 17.751,20.370 16.793,20.912 15.417 C 21.410 14.151,21.532 13.490,21.531 12.040 C 21.530 10.868,21.480 10.413,21.264 9.634 C 20.633 7.352,19.328 5.482,17.460 4.181 C 16.351 3.410,14.886 2.806,13.660 2.615 C 13.185 2.540,11.054 2.504,10.624 2.563 M12.555 5.021 C 12.663 5.080,12.788 5.179,12.835 5.241 C 12.965 5.418,13.151 5.805,13.180 5.961 C 13.205 6.101,13.208 6.102,13.704 6.270 C 14.599 6.574,15.375 7.017,15.811 7.474 C 16.140 7.819,16.200 7.963,16.200 8.408 C 16.199 8.747,16.189 8.798,16.080 8.987 C 15.901 9.299,15.592 9.506,15.242 9.547 C 14.941 9.583,14.663 9.470,13.932 9.014 C 13.568 8.787,13.254 8.611,13.235 8.623 C 13.176 8.659,13.191 10.823,13.250 10.871 C 13.277 10.893,13.444 10.960,13.620 11.019 C 14.154 11.197,15.025 11.647,15.420 11.949 C 16.023 12.410,16.463 13.029,16.627 13.645 C 16.708 13.951,16.718 14.872,16.644 15.180 C 16.487 15.824,15.875 16.583,15.089 17.108 C 14.729 17.348,14.435 17.482,13.702 17.741 L 13.224 17.910 13.152 18.124 C 12.921 18.803,12.597 19.114,12.084 19.150 C 11.737 19.174,11.425 19.061,11.224 18.839 C 11.065 18.664,10.870 18.300,10.805 18.059 L 10.762 17.900 10.247 17.727 C 9.329 17.418,8.775 17.097,8.234 16.561 C 7.929 16.260,7.879 16.190,7.819 15.981 C 7.586 15.180,8.083 14.476,8.877 14.481 C 9.159 14.483,9.410 14.592,10.040 14.986 C 10.359 15.185,10.660 15.361,10.710 15.377 L 10.800 15.405 10.800 14.250 L 10.800 13.095 10.410 12.983 C 9.526 12.728,8.916 12.386,8.313 11.808 C 7.889 11.400,7.576 10.975,7.447 10.629 C 7.264 10.141,7.234 9.256,7.383 8.760 C 7.582 8.098,8.134 7.409,8.847 6.935 C 9.194 6.704,9.769 6.437,10.320 6.249 L 10.756 6.101 10.861 5.814 C 11.002 5.428,11.157 5.193,11.366 5.050 C 11.614 4.881,11.624 4.879,12.010 4.898 C 12.292 4.912,12.397 4.935,12.555 5.021 M10.441 8.769 C 10.139 8.966,9.657 9.409,9.630 9.515 C 9.597 9.641,9.704 9.824,9.956 10.070 C 10.223 10.331,10.557 10.534,10.655 10.496 C 10.764 10.455,10.800 10.204,10.799 9.480 C 10.799 8.810,10.781 8.600,10.725 8.600 C 10.711 8.600,10.583 8.676,10.441 8.769 M13.200 14.403 L 13.200 15.405 13.290 15.379 C 13.593 15.288,14.156 14.835,14.278 14.584 C 14.376 14.381,14.355 14.288,14.160 14.066 C 13.973 13.853,13.335 13.400,13.222 13.400 C 13.210 13.400,13.200 13.851,13.200 14.403 " fill="#373B4D" stroke="none" fill-rule="evenodd"></path></svg>