<svg width="24" height="24" viewBox="0 0 24 24" fill="none" xmlns="http://www.w3.org/2000/svg"><path d="M10.720 2.601 C 9.782 2.658,8.744 2.988,7.570 3.601 C 5.185 4.848,3.611 6.801,2.778 9.550 C 2.595 10.152,2.533 10.527,2.480 11.344 C 2.329 13.669,2.961 15.809,4.354 17.680 C 5.029 18.587,6.115 19.566,7.142 20.193 C 8.089 20.770,9.353 21.247,10.400 21.421 C 10.918 21.507,12.245 21.540,12.980 21.486 C 14.643 21.362,16.430 20.639,17.840 19.517 C 18.298 19.152,19.412 18.018,19.712 17.611 C 20.506 16.531,21.192 14.952,21.419 13.680 C 21.509 13.181,21.545 11.651,21.484 10.900 C 21.433 10.257,21.355 9.903,21.098 9.130 C 20.616 7.689,19.883 6.463,18.880 5.425 C 18.035 4.550,17.351 4.057,16.180 3.480 C 15.399 3.095,14.754 2.855,14.137 2.721 C 13.538 2.592,11.852 2.532,10.720 2.601 M12.320 4.963 C 12.679 5.045,12.864 5.240,13.101 5.786 L 13.237 6.100 13.689 6.271 C 14.598 6.615,15.326 7.029,15.765 7.450 C 16.088 7.759,16.133 7.864,16.152 8.348 C 16.167 8.706,16.158 8.778,16.082 8.936 C 15.935 9.240,15.573 9.498,15.230 9.544 C 14.998 9.576,14.761 9.481,13.963 9.037 C 13.470 8.763,13.301 8.686,13.277 8.725 C 13.217 8.821,13.194 9.254,13.207 10.009 C 13.220 10.749,13.221 10.760,13.320 10.853 C 13.375 10.906,13.528 10.990,13.660 11.040 C 14.040 11.186,14.794 11.567,15.102 11.770 C 15.727 12.183,16.152 12.638,16.431 13.196 L 16.620 13.572 16.632 14.436 L 16.644 15.300 16.433 15.653 C 16.158 16.114,15.873 16.456,15.490 16.782 C 15.099 17.117,14.771 17.309,14.196 17.540 C 13.141 17.964,13.264 17.886,13.085 18.254 C 12.769 18.906,12.500 19.129,12.020 19.136 C 11.698 19.141,11.445 19.038,11.245 18.821 C 11.084 18.646,10.891 18.302,10.806 18.040 C 10.764 17.910,10.736 17.892,10.430 17.787 C 9.900 17.605,9.217 17.295,8.907 17.094 C 8.557 16.868,8.070 16.404,7.926 16.160 C 7.831 15.999,7.820 15.939,7.820 15.600 C 7.820 15.285,7.835 15.192,7.908 15.055 C 8.088 14.719,8.432 14.522,8.840 14.522 C 9.152 14.522,9.364 14.602,9.960 14.946 C 10.538 15.280,10.716 15.367,10.761 15.339 C 10.785 15.325,10.800 14.877,10.800 14.207 L 10.800 13.100 10.325 12.948 C 9.473 12.676,8.831 12.298,8.286 11.749 C 7.758 11.215,7.552 10.911,7.414 10.459 C 7.305 10.100,7.314 9.040,7.430 8.689 C 7.752 7.710,8.699 6.884,10.141 6.322 C 10.772 6.077,10.730 6.109,10.917 5.722 C 11.219 5.097,11.427 4.924,11.880 4.923 C 12.023 4.922,12.221 4.940,12.320 4.963 M10.355 8.846 C 10.172 8.982,9.935 9.183,9.828 9.293 C 9.661 9.464,9.636 9.510,9.656 9.608 C 9.697 9.814,10.037 10.173,10.402 10.396 C 10.719 10.589,10.765 10.491,10.791 9.573 C 10.810 8.893,10.789 8.600,10.722 8.600 C 10.703 8.600,10.537 8.711,10.355 8.846 M13.227 13.467 C 13.212 13.481,13.200 13.924,13.200 14.449 L 13.200 15.405 13.290 15.377 C 13.531 15.302,14.098 14.850,14.242 14.617 C 14.412 14.342,14.250 14.093,13.595 13.628 C 13.330 13.440,13.277 13.417,13.227 13.467 " fill="#373B4D" stroke="none" fill-rule="evenodd"></path></svg>