<svg width="24" height="24" viewBox="0 0 24 24" fill="none" xmlns="http://www.w3.org/2000/svg"><path d="M10.960 2.483 C 10.529 2.522,9.753 2.687,9.175 2.863 C 7.694 3.311,6.417 4.074,5.312 5.171 C 3.805 6.665,2.893 8.403,2.543 10.445 C 2.150 12.732,2.671 15.225,3.947 17.178 C 5.248 19.167,7.063 20.510,9.409 21.217 C 10.384 21.511,10.564 21.534,11.920 21.537 C 13.206 21.540,13.437 21.520,14.160 21.339 C 16.336 20.794,18.255 19.563,19.560 17.875 C 20.466 16.703,21.204 15.049,21.468 13.600 C 21.571 13.039,21.571 10.898,21.468 10.380 C 20.876 7.391,19.104 4.964,16.480 3.550 C 15.484 3.013,14.237 2.625,13.173 2.522 C 12.619 2.469,11.364 2.446,10.960 2.483 M9.146 4.921 C 9.908 5.049,10.852 5.689,11.357 6.420 C 11.784 7.037,11.898 7.472,11.969 8.744 L 12.016 9.588 13.658 9.617 C 15.426 9.647,16.015 9.685,16.194 9.777 C 16.328 9.846,16.531 10.068,16.627 10.251 C 16.714 10.417,16.748 11.014,16.681 11.216 C 16.618 11.407,16.362 11.727,16.184 11.837 C 15.981 11.963,15.413 11.998,13.544 11.999 L 11.988 12.000 12.012 13.930 C 12.027 15.145,12.052 15.916,12.080 16.010 C 12.134 16.194,12.478 16.554,12.700 16.659 C 12.924 16.766,13.297 16.784,13.580 16.702 C 13.758 16.650,13.857 16.588,14.017 16.427 C 14.282 16.162,14.343 15.953,14.399 15.120 C 14.421 14.779,14.451 14.389,14.464 14.254 C 14.508 13.808,14.816 13.424,15.216 13.316 C 15.306 13.291,15.527 13.279,15.708 13.288 C 16.132 13.310,16.339 13.430,16.593 13.800 L 16.771 14.060 16.743 15.080 C 16.728 15.641,16.698 16.226,16.677 16.380 C 16.633 16.705,16.376 17.275,16.102 17.658 C 15.657 18.279,14.859 18.862,14.178 19.063 C 13.830 19.166,12.562 19.167,12.222 19.065 C 11.913 18.972,11.481 18.754,11.175 18.537 C 10.624 18.146,10.026 17.369,9.820 16.776 C 9.699 16.425,9.652 15.690,9.614 13.553 L 9.587 12.012 8.864 11.987 C 8.466 11.973,8.069 11.942,7.983 11.917 C 7.780 11.859,7.432 11.507,7.340 11.266 C 7.289 11.131,7.275 10.996,7.286 10.714 C 7.299 10.368,7.310 10.326,7.431 10.151 C 7.604 9.902,7.865 9.727,8.129 9.681 C 8.245 9.662,8.623 9.633,8.970 9.618 L 9.600 9.592 9.599 9.166 C 9.595 7.748,9.449 7.511,8.381 7.200 C 7.712 7.005,7.554 6.899,7.358 6.516 C 7.239 6.283,7.248 5.729,7.375 5.460 C 7.514 5.165,7.797 4.948,8.127 4.883 C 8.313 4.846,8.812 4.865,9.146 4.921 " fill="#373B4D" stroke="none" fill-rule="evenodd"></path></svg>