<svg width="24" height="24" viewBox="0 0 24 24" fill="none" xmlns="http://www.w3.org/2000/svg"><path d="M11.020 2.464 C 8.931 2.701,6.983 3.581,5.500 4.958 C 4.201 6.164,3.269 7.691,2.762 9.447 C 2.343 10.896,2.319 12.834,2.700 14.323 C 3.055 15.710,3.738 17.061,4.622 18.120 C 4.935 18.494,5.689 19.234,6.060 19.529 C 6.975 20.257,8.214 20.882,9.447 21.238 C 10.971 21.679,13.029 21.679,14.553 21.238 C 15.786 20.882,17.025 20.256,17.940 19.528 C 18.332 19.217,19.035 18.526,19.385 18.109 C 20.525 16.750,21.308 14.928,21.522 13.140 C 21.583 12.625,21.583 11.375,21.522 10.860 C 21.308 9.073,20.527 7.255,19.386 5.891 C 17.982 4.214,16.084 3.070,13.963 2.622 C 13.116 2.443,11.815 2.373,11.020 2.464 M12.295 4.860 C 12.779 4.986,13.094 5.337,13.173 5.837 L 13.216 6.111 13.438 6.160 C 14.330 6.359,15.425 6.956,15.936 7.523 C 16.212 7.829,16.286 8.016,16.286 8.404 C 16.286 8.776,16.197 9.003,15.955 9.245 C 15.701 9.499,15.509 9.577,15.140 9.575 C 14.756 9.574,14.561 9.497,14.245 9.223 C 13.902 8.926,13.544 8.701,13.290 8.622 L 13.200 8.595 13.200 9.753 L 13.200 10.911 13.350 10.939 C 13.918 11.044,14.812 11.431,15.314 11.788 C 16.576 12.686,17.079 14.056,16.625 15.360 C 16.351 16.149,15.607 16.932,14.695 17.393 C 14.407 17.538,13.613 17.818,13.375 17.858 L 13.210 17.885 13.184 18.113 C 13.135 18.528,12.885 18.891,12.512 19.087 C 12.265 19.216,11.735 19.216,11.488 19.087 C 11.115 18.891,10.865 18.528,10.816 18.113 C 10.790 17.891,10.787 17.886,10.645 17.860 C 10.401 17.814,9.763 17.599,9.452 17.458 C 8.771 17.147,7.976 16.501,7.801 16.115 C 7.741 15.982,7.722 15.852,7.721 15.576 C 7.720 15.221,7.724 15.207,7.875 14.972 C 7.986 14.801,8.097 14.691,8.264 14.586 C 8.488 14.446,8.512 14.440,8.859 14.441 C 9.284 14.442,9.432 14.498,9.755 14.777 C 10.099 15.074,10.456 15.299,10.710 15.378 L 10.800 15.405 10.800 14.247 L 10.800 13.089 10.650 13.063 C 10.407 13.020,9.765 12.800,9.416 12.640 C 8.327 12.139,7.524 11.240,7.275 10.240 C 7.198 9.930,7.209 9.203,7.295 8.880 C 7.463 8.250,7.908 7.602,8.493 7.131 C 8.989 6.732,10.055 6.237,10.621 6.143 L 10.783 6.116 10.826 5.840 C 10.852 5.679,10.915 5.488,10.977 5.381 C 11.158 5.072,11.594 4.811,11.942 4.803 C 12.008 4.801,12.167 4.827,12.295 4.860 M10.464 8.723 C 9.964 8.976,9.600 9.346,9.600 9.600 C 9.600 9.853,10.038 10.289,10.515 10.510 C 10.690 10.592,10.735 10.600,10.764 10.555 C 10.803 10.493,10.814 8.762,10.776 8.663 C 10.744 8.582,10.742 8.582,10.464 8.723 M13.200 14.400 L 13.200 15.405 13.290 15.378 C 13.513 15.311,13.936 15.054,14.116 14.877 C 14.474 14.524,14.472 14.276,14.111 13.923 C 13.925 13.741,13.513 13.490,13.290 13.422 L 13.200 13.395 13.200 14.400 " fill="#373B4D" stroke="none" fill-rule="evenodd"></path></svg>