<svg width="24" height="24" viewBox="0 0 24 24" fill="none" xmlns="http://www.w3.org/2000/svg"><path d="M10.660 2.601 C 9.835 2.654,8.901 2.934,7.932 3.419 C 6.915 3.928,6.190 4.422,5.524 5.059 C 4.210 6.315,3.506 7.395,2.955 8.996 C 2.612 9.992,2.499 10.606,2.456 11.693 C 2.402 13.057,2.604 14.186,3.137 15.514 C 3.660 16.813,4.230 17.672,5.239 18.681 C 6.113 19.556,6.684 19.967,7.781 20.513 C 8.654 20.948,9.091 21.124,9.682 21.279 C 10.454 21.481,11.004 21.530,12.289 21.509 C 13.385 21.492,13.435 21.487,13.920 21.369 C 16.834 20.654,19.188 18.870,20.433 16.434 C 20.676 15.959,21.082 14.964,21.239 14.460 C 21.392 13.967,21.438 13.640,21.487 12.712 C 21.590 10.728,21.434 9.797,20.732 8.201 C 19.765 6.002,18.098 4.338,15.838 3.317 C 14.934 2.909,14.057 2.676,13.140 2.601 C 12.607 2.557,11.338 2.557,10.660 2.601 M16.235 6.284 C 16.562 6.614,16.611 6.755,16.594 7.309 L 16.580 7.748 16.427 7.934 C 16.170 8.248,16.006 8.297,14.740 8.441 C 14.322 8.489,13.965 8.542,13.947 8.559 C 13.909 8.595,14.050 9.096,14.168 9.348 C 14.268 9.560,14.315 9.576,15.180 9.680 C 16.209 9.805,16.321 9.851,16.505 10.227 C 16.607 10.434,16.620 10.503,16.620 10.840 C 16.620 11.187,16.609 11.239,16.500 11.436 C 16.278 11.837,15.958 11.947,14.898 11.987 L 14.257 12.011 13.985 12.544 C 13.351 13.784,12.861 14.324,11.721 15.043 C 11.434 15.223,11.200 15.385,11.200 15.402 C 11.200 15.444,11.375 15.649,11.948 16.282 C 12.551 16.946,12.837 17.303,12.963 17.550 C 13.153 17.921,13.045 18.509,12.729 18.824 C 12.551 19.002,12.340 19.090,12.041 19.108 C 11.808 19.123,11.758 19.112,11.578 19.006 C 11.278 18.830,10.781 18.373,8.961 16.596 L 7.313 14.988 7.341 14.604 C 7.388 13.929,7.469 13.711,7.742 13.524 C 7.919 13.403,8.007 13.383,9.102 13.222 C 10.234 13.055,10.470 12.999,10.747 12.832 C 11.004 12.677,11.440 12.292,11.440 12.220 C 11.440 12.147,11.316 12.132,9.980 12.039 C 8.121 11.910,7.870 11.868,7.660 11.652 C 7.437 11.422,7.400 11.300,7.400 10.797 C 7.400 10.389,7.409 10.331,7.500 10.176 C 7.703 9.831,8.013 9.758,9.640 9.679 C 10.113 9.655,10.734 9.619,11.020 9.598 C 11.306 9.577,11.553 9.560,11.570 9.560 C 11.706 9.560,11.350 9.200,10.947 8.932 C 10.580 8.687,10.378 8.631,9.246 8.462 C 8.063 8.285,7.820 8.216,7.629 8.005 C 7.440 7.796,7.390 7.620,7.385 7.144 C 7.381 6.803,7.393 6.718,7.462 6.600 C 7.557 6.438,7.749 6.298,7.955 6.240 C 8.291 6.145,11.092 6.066,14.786 6.046 L 15.993 6.040 16.235 6.284 " fill="#373B4D" stroke="none" fill-rule="evenodd"></path></svg>