<svg width="24" height="24" viewBox="0 0 24 24" fill="none" xmlns="http://www.w3.org/2000/svg"><path d="M10.289 2.625 C 9.884 2.688,9.108 2.900,8.687 3.064 C 7.846 3.390,6.714 4.042,6.040 4.589 C 5.622 4.928,4.580 5.998,4.311 6.365 C 3.488 7.486,2.931 8.746,2.599 10.240 C 2.430 11.002,2.402 12.647,2.544 13.480 C 2.754 14.707,3.342 16.217,3.993 17.200 C 4.677 18.233,5.842 19.378,6.866 20.023 C 7.315 20.306,8.462 20.870,8.970 21.057 C 9.925 21.410,10.747 21.536,12.080 21.534 C 12.901 21.533,13.134 21.519,13.520 21.448 C 15.715 21.046,17.863 19.828,19.258 18.196 C 20.031 17.291,20.567 16.333,21.060 14.972 C 21.389 14.066,21.440 13.808,21.485 12.820 C 21.527 11.881,21.505 10.799,21.433 10.340 C 21.294 9.444,20.679 7.897,20.099 6.980 C 19.148 5.480,17.896 4.341,16.320 3.543 C 15.235 2.994,14.306 2.706,13.286 2.602 C 12.677 2.540,10.743 2.555,10.289 2.625 M14.205 5.055 C 15.187 5.273,16.378 6.471,16.558 7.422 C 16.631 7.806,16.659 8.721,16.604 8.889 C 16.500 9.204,15.961 9.538,15.560 9.536 C 15.114 9.535,14.843 9.299,14.531 8.640 C 14.412 8.387,14.267 8.083,14.211 7.964 C 14.081 7.691,13.849 7.457,13.653 7.403 C 13.569 7.380,13.345 7.360,13.155 7.360 C 12.816 7.360,12.804 7.363,12.562 7.525 C 12.283 7.712,12.143 7.896,12.083 8.160 C 12.060 8.259,12.029 8.891,12.014 9.565 L 11.987 10.791 12.324 10.818 C 13.854 10.940,14.154 11.109,14.223 11.885 C 14.260 12.303,14.197 12.547,13.992 12.780 C 13.728 13.079,13.594 13.120,12.590 13.203 L 12.007 13.252 11.982 13.516 C 11.892 14.471,11.861 15.348,11.915 15.433 C 11.974 15.527,12.237 15.556,13.580 15.619 C 14.925 15.681,15.826 15.743,16.050 15.788 C 16.199 15.818,16.474 16.081,16.571 16.286 C 16.622 16.394,16.640 16.536,16.640 16.830 C 16.640 17.224,16.638 17.232,16.490 17.456 C 16.376 17.630,16.291 17.708,16.131 17.786 C 15.936 17.882,15.863 17.891,15.111 17.922 C 14.665 17.941,12.893 17.957,11.174 17.958 L 8.047 17.960 7.850 17.804 C 7.742 17.719,7.596 17.563,7.527 17.457 C 7.403 17.271,7.400 17.255,7.400 16.812 C 7.400 16.086,7.417 16.066,8.454 15.582 C 8.759 15.440,9.068 15.278,9.141 15.222 C 9.458 14.980,9.550 14.688,9.587 13.816 L 9.612 13.213 9.016 13.188 C 8.082 13.148,7.752 13.024,7.503 12.620 C 7.397 12.447,7.378 12.375,7.366 12.087 C 7.347 11.642,7.410 11.428,7.625 11.213 C 7.832 11.006,8.017 10.949,8.760 10.861 C 9.513 10.772,9.600 10.746,9.600 10.603 C 9.600 10.541,9.627 10.024,9.660 9.455 C 9.781 7.392,9.806 7.257,10.185 6.653 C 10.601 5.991,11.044 5.576,11.700 5.233 C 12.218 4.962,12.245 4.957,13.140 4.978 C 13.632 4.989,14.042 5.018,14.205 5.055 " fill="#373B4D" stroke="none" fill-rule="evenodd"></path></svg>