<svg width="24" height="24" viewBox="0 0 24 24" fill="none" xmlns="http://www.w3.org/2000/svg"><path d="M10.680 2.562 C 9.847 2.629,8.634 3.012,7.629 3.528 C 6.202 4.260,4.700 5.649,3.844 7.030 C 3.150 8.149,2.629 9.657,2.483 10.968 C 2.393 11.782,2.448 13.117,2.601 13.808 C 2.934 15.313,3.521 16.620,4.374 17.760 C 4.745 18.256,5.679 19.189,6.160 19.545 C 7.337 20.416,8.933 21.157,10.160 21.403 C 10.776 21.526,11.996 21.584,12.790 21.528 C 13.767 21.459,14.413 21.305,15.429 20.897 C 17.178 20.195,18.614 19.108,19.703 17.660 C 20.334 16.821,21.026 15.314,21.362 14.047 C 21.467 13.651,21.517 12.929,21.518 11.780 C 21.520 10.756,21.475 10.352,21.285 9.680 C 20.787 7.921,19.954 6.474,18.748 5.274 C 17.986 4.515,17.233 3.978,16.240 3.485 C 15.354 3.044,14.574 2.780,13.756 2.644 C 13.093 2.533,11.552 2.492,10.680 2.562 M13.339 5.155 C 13.997 5.481,14.740 6.090,15.158 6.644 C 15.553 7.168,15.600 7.286,15.600 7.761 C 15.600 8.235,15.569 8.312,15.278 8.574 C 15.076 8.756,14.686 8.921,14.466 8.919 C 14.301 8.917,14.057 8.769,13.707 8.456 C 13.513 8.282,13.198 8.001,13.007 7.830 C 12.566 7.436,12.414 7.360,12.069 7.360 C 11.571 7.360,11.427 7.415,11.093 7.731 C 10.758 8.050,10.460 8.429,10.278 8.770 L 10.155 9.000 10.328 9.000 C 10.660 9.001,11.823 9.081,12.120 9.125 C 12.569 9.190,12.802 9.336,12.971 9.660 C 13.087 9.881,13.096 10.514,12.987 10.715 C 12.876 10.918,12.596 11.205,12.449 11.267 C 12.261 11.346,11.478 11.398,10.470 11.399 L 9.600 11.400 9.600 11.995 L 9.600 12.590 10.250 12.617 C 11.312 12.662,12.127 12.718,12.345 12.762 C 12.589 12.811,12.840 13.009,12.971 13.254 C 13.043 13.390,13.059 13.486,13.060 13.780 C 13.060 14.103,13.048 14.161,12.943 14.351 C 12.779 14.647,12.590 14.829,12.389 14.883 C 12.130 14.953,11.529 14.997,10.809 14.999 L 10.158 15.000 10.244 15.170 C 10.506 15.686,11.155 16.414,11.517 16.599 C 11.734 16.709,12.096 16.747,12.297 16.681 C 12.474 16.623,12.825 16.343,13.580 15.660 L 14.140 15.154 14.520 15.172 C 14.969 15.193,15.188 15.270,15.364 15.471 C 15.558 15.691,15.613 15.860,15.612 16.220 C 15.609 16.744,15.487 16.973,14.824 17.696 C 14.240 18.332,13.853 18.650,13.465 18.812 C 12.258 19.318,11.108 19.234,10.100 18.566 C 9.766 18.345,9.132 17.714,8.798 17.271 C 8.573 16.973,7.640 15.195,7.640 15.064 C 7.640 15.028,7.552 15.003,7.360 14.985 C 6.873 14.940,6.490 14.752,6.305 14.466 C 6.099 14.148,6.066 13.502,6.241 13.219 C 6.340 13.057,6.608 12.856,6.950 12.684 L 7.200 12.559 7.200 12.022 L 7.200 11.484 6.928 11.341 C 6.640 11.190,6.315 10.900,6.208 10.700 C 6.115 10.526,6.118 9.958,6.213 9.712 C 6.343 9.373,6.588 9.218,7.230 9.067 L 7.600 8.980 7.791 8.580 C 8.105 7.922,8.556 7.078,8.749 6.787 C 8.999 6.410,9.637 5.780,10.042 5.511 C 10.228 5.388,10.533 5.211,10.720 5.120 L 11.060 4.953 12.035 4.972 L 13.011 4.992 13.339 5.155 " fill="#373B4D" stroke="none" fill-rule="evenodd"></path></svg>