<svg width="24" height="24" viewBox="0 0 24 24" fill="none" xmlns="http://www.w3.org/2000/svg"><path d="M10.800 2.560 C 9.246 2.685,7.471 3.441,6.040 4.585 C 5.599 4.937,4.771 5.770,4.440 6.194 C 3.480 7.422,2.855 8.853,2.533 10.560 C 2.444 11.034,2.431 12.733,2.513 13.300 C 2.652 14.269,3.083 15.571,3.565 16.480 C 3.987 17.275,4.415 17.854,5.100 18.555 C 6.022 19.499,6.625 19.943,7.760 20.518 C 9.182 21.237,10.130 21.486,11.668 21.544 C 12.869 21.589,13.772 21.467,14.800 21.121 C 16.055 20.698,17.043 20.168,18.000 19.405 C 19.520 18.193,20.455 16.796,21.163 14.680 C 21.468 13.769,21.494 13.558,21.497 12.000 C 21.500 10.529,21.486 10.391,21.255 9.591 C 20.689 7.634,19.633 5.982,18.143 4.724 C 16.822 3.609,14.953 2.773,13.400 2.604 C 12.865 2.546,11.301 2.519,10.800 2.560 M13.381 5.180 C 14.102 5.572,14.774 6.139,15.207 6.720 C 15.534 7.158,15.569 7.246,15.592 7.670 C 15.615 8.123,15.550 8.328,15.312 8.542 C 15.124 8.712,14.782 8.879,14.561 8.909 C 14.322 8.941,14.107 8.806,13.389 8.170 C 12.525 7.404,12.483 7.380,12.000 7.380 C 11.546 7.380,11.422 7.430,11.074 7.752 C 10.803 8.003,10.402 8.520,10.258 8.805 L 10.159 9.000 10.349 9.000 C 10.786 9.000,12.154 9.125,12.364 9.184 C 12.642 9.262,12.845 9.423,12.956 9.653 C 13.024 9.792,13.040 9.901,13.040 10.226 C 13.040 10.607,13.034 10.635,12.916 10.813 C 12.716 11.115,12.512 11.265,12.227 11.319 C 12.091 11.345,11.445 11.376,10.790 11.389 L 9.600 11.411 9.600 12.000 L 9.600 12.590 10.170 12.616 C 11.262 12.668,12.061 12.723,12.278 12.761 C 12.557 12.811,12.773 12.955,12.922 13.190 C 13.032 13.363,13.040 13.402,13.040 13.773 C 13.040 14.139,13.031 14.186,12.923 14.375 C 12.779 14.626,12.626 14.776,12.434 14.857 C 12.235 14.940,11.547 15.000,10.788 15.000 L 10.155 15.000 10.281 15.235 C 10.553 15.746,11.214 16.459,11.555 16.611 C 11.796 16.717,12.143 16.745,12.320 16.671 C 12.495 16.598,12.906 16.267,13.600 15.640 L 14.140 15.152 14.505 15.177 C 15.103 15.216,15.321 15.331,15.502 15.700 C 15.601 15.902,15.608 15.951,15.592 16.290 C 15.572 16.723,15.510 16.871,15.166 17.300 C 14.836 17.712,14.135 18.403,13.860 18.587 C 13.147 19.065,12.012 19.257,11.180 19.042 C 10.824 18.949,10.379 18.751,10.090 18.555 C 9.849 18.392,9.172 17.735,8.921 17.420 C 8.706 17.151,8.279 16.406,7.902 15.641 C 7.763 15.360,7.643 15.109,7.634 15.082 C 7.625 15.056,7.467 15.008,7.282 14.976 C 6.471 14.835,6.151 14.492,6.146 13.760 C 6.143 13.473,6.158 13.394,6.238 13.251 C 6.339 13.073,6.629 12.847,6.990 12.664 L 7.200 12.559 7.200 12.022 L 7.200 11.485 6.964 11.359 C 6.668 11.201,6.311 10.885,6.225 10.705 C 6.181 10.612,6.160 10.460,6.160 10.230 C 6.160 9.522,6.353 9.303,7.167 9.090 L 7.587 8.980 8.051 8.069 C 8.637 6.917,8.847 6.602,9.366 6.098 C 9.819 5.658,10.068 5.475,10.642 5.162 L 11.020 4.955 12.040 4.980 L 13.060 5.005 13.381 5.180 " fill="#373B4D" stroke="none" fill-rule="evenodd"></path></svg>