<svg width="24" height="24" viewBox="0 0 24 24" fill="none" xmlns="http://www.w3.org/2000/svg"><path d="M10.660 2.601 C 9.835 2.654,8.901 2.934,7.932 3.419 C 6.915 3.928,6.190 4.422,5.524 5.059 C 4.210 6.315,3.506 7.395,2.955 8.996 C 2.612 9.992,2.499 10.606,2.456 11.693 C 2.402 13.057,2.604 14.186,3.137 15.514 C 3.660 16.813,4.230 17.672,5.239 18.681 C 6.113 19.556,6.684 19.967,7.781 20.513 C 8.654 20.948,9.091 21.124,9.682 21.279 C 10.454 21.481,11.004 21.530,12.289 21.509 C 13.385 21.492,13.435 21.487,13.920 21.369 C 16.834 20.654,19.188 18.870,20.433 16.434 C 20.676 15.959,21.082 14.964,21.239 14.460 C 21.392 13.967,21.438 13.640,21.487 12.712 C 21.590 10.728,21.434 9.797,20.732 8.201 C 19.765 6.002,18.098 4.338,15.838 3.317 C 14.934 2.909,14.057 2.676,13.140 2.601 C 12.607 2.557,11.338 2.557,10.660 2.601 M8.807 6.201 C 9.033 6.264,9.315 6.605,9.960 7.594 C 11.793 10.404,11.962 10.648,12.030 10.593 C 12.066 10.564,12.499 9.928,12.993 9.180 C 14.629 6.700,14.792 6.461,14.938 6.321 C 15.083 6.182,15.084 6.181,15.515 6.166 C 16.002 6.150,16.149 6.197,16.388 6.446 C 16.558 6.625,16.602 6.756,16.628 7.162 L 16.651 7.504 16.270 8.242 C 16.060 8.648,15.706 9.313,15.483 9.720 C 15.072 10.472,15.016 10.599,15.052 10.693 C 15.063 10.722,15.251 10.792,15.470 10.850 C 15.968 10.980,16.215 11.095,16.406 11.286 C 16.597 11.477,16.655 11.689,16.629 12.088 C 16.594 12.608,16.367 12.938,15.965 13.056 C 15.759 13.116,15.329 13.170,14.030 13.299 C 13.705 13.331,13.405 13.376,13.363 13.398 C 13.268 13.449,13.200 13.747,13.200 14.117 L 13.200 14.389 13.710 14.416 C 14.692 14.469,15.813 14.561,15.960 14.600 C 16.170 14.657,16.358 14.794,16.499 14.994 C 16.615 15.160,16.620 15.183,16.617 15.574 C 16.613 16.043,16.550 16.211,16.288 16.448 C 15.983 16.723,15.513 16.799,14.110 16.800 L 13.200 16.800 13.200 16.890 C 13.199 17.093,13.079 18.096,13.037 18.252 C 12.918 18.694,12.627 19.004,12.260 19.080 C 11.717 19.193,11.223 18.940,11.042 18.456 C 10.963 18.246,10.867 17.667,10.818 17.110 L 10.791 16.800 9.985 16.799 C 9.026 16.798,8.300 16.746,8.006 16.658 C 7.851 16.612,7.742 16.543,7.613 16.411 L 7.435 16.227 7.447 15.598 C 7.462 14.879,7.465 14.871,7.816 14.701 C 8.117 14.556,8.554 14.506,10.295 14.416 L 10.810 14.390 10.791 14.025 C 10.771 13.639,10.696 13.421,10.570 13.386 C 10.418 13.343,10.234 13.320,9.560 13.259 C 8.716 13.183,8.109 13.092,7.920 13.014 C 7.722 12.932,7.565 12.772,7.455 12.540 C 7.379 12.379,7.361 12.274,7.360 11.997 C 7.360 11.702,7.375 11.624,7.470 11.437 C 7.611 11.160,7.793 11.057,8.507 10.856 L 9.035 10.707 8.933 10.503 C 8.876 10.392,8.497 9.689,8.090 8.943 L 7.349 7.586 7.370 7.200 C 7.386 6.923,7.415 6.768,7.472 6.657 C 7.554 6.497,7.755 6.286,7.900 6.206 C 8.001 6.151,8.612 6.147,8.807 6.201 " fill="#373B4D" stroke="none" fill-rule="evenodd"></path></svg>