<svg width="24" height="24" viewBox="0 0 24 24" fill="none" xmlns="http://www.w3.org/2000/svg"><path d="M10.380 2.584 C 9.146 2.805,7.814 3.332,6.818 3.994 C 5.607 4.798,4.441 6.012,3.731 7.210 C 3.095 8.282,2.595 9.799,2.477 11.017 C 2.416 11.644,2.450 13.022,2.538 13.500 C 2.834 15.098,3.464 16.562,4.384 17.783 C 4.692 18.193,5.413 18.941,5.860 19.314 C 6.955 20.230,8.796 21.132,10.113 21.398 C 10.966 21.570,12.647 21.601,13.520 21.460 C 14.869 21.242,16.569 20.504,17.751 19.625 C 18.512 19.058,19.458 18.066,19.930 17.340 C 20.536 16.406,21.175 14.903,21.408 13.860 C 21.477 13.553,21.492 13.309,21.509 12.193 C 21.531 10.702,21.515 10.522,21.278 9.660 C 20.383 6.398,18.040 3.934,14.858 2.907 C 14.259 2.714,13.727 2.612,13.060 2.562 C 12.253 2.502,10.772 2.514,10.380 2.584 M13.600 4.958 C 14.263 4.995,14.534 5.076,15.020 5.379 C 15.797 5.864,16.497 6.798,16.596 7.480 C 16.668 7.976,16.690 8.656,16.640 8.843 C 16.511 9.323,15.768 9.679,15.259 9.506 C 14.867 9.372,14.697 9.139,14.366 8.286 C 14.167 7.773,14.050 7.592,13.831 7.464 C 13.600 7.329,13.130 7.256,12.903 7.319 C 12.668 7.385,12.229 7.717,12.146 7.892 C 12.054 8.086,12.002 8.810,12.001 9.906 L 12.000 10.792 12.470 10.821 C 13.824 10.903,14.150 11.076,14.247 11.766 C 14.328 12.348,14.224 12.659,13.857 12.940 C 13.615 13.124,13.445 13.160,12.696 13.187 C 12.058 13.211,12.000 13.219,12.000 13.286 C 12.000 13.326,11.972 13.745,11.938 14.218 C 11.904 14.691,11.881 15.171,11.888 15.286 C 11.899 15.478,11.909 15.497,12.016 15.526 C 12.080 15.543,12.836 15.584,13.696 15.617 C 16.273 15.718,16.198 15.704,16.495 16.129 C 16.647 16.347,16.656 16.377,16.672 16.709 C 16.695 17.189,16.644 17.352,16.387 17.615 C 16.212 17.794,16.141 17.838,15.958 17.878 C 15.660 17.943,13.248 17.996,10.448 17.998 C 7.871 18.000,8.056 18.021,7.707 17.686 C 7.396 17.387,7.340 17.249,7.340 16.780 C 7.340 16.130,7.457 15.985,8.230 15.678 C 9.069 15.344,9.319 15.184,9.446 14.896 C 9.532 14.701,9.598 14.140,9.599 13.596 L 9.600 13.212 8.950 13.188 C 8.079 13.157,7.927 13.113,7.635 12.811 C 7.359 12.525,7.302 12.357,7.330 11.898 C 7.355 11.497,7.450 11.298,7.709 11.108 C 7.935 10.943,8.109 10.905,8.974 10.835 C 9.327 10.807,9.573 10.770,9.581 10.744 C 9.588 10.720,9.623 10.070,9.659 9.299 C 9.738 7.574,9.757 7.433,9.959 7.010 C 10.355 6.180,10.977 5.546,11.773 5.161 C 12.292 4.910,12.450 4.892,13.600 4.958 " fill="#373B4D" stroke="none" fill-rule="evenodd"></path></svg>