<svg width="24" height="24" viewBox="0 0 24 24" fill="none" xmlns="http://www.w3.org/2000/svg"><path d="M11.000 2.463 C 8.701 2.737,6.759 3.671,5.175 5.265 C 2.751 7.704,1.820 11.347,2.781 14.634 C 3.551 17.270,5.288 19.358,7.732 20.586 C 8.548 20.996,9.533 21.315,10.507 21.484 C 10.943 21.559,11.167 21.573,12.000 21.573 C 12.833 21.573,13.057 21.559,13.493 21.484 C 16.681 20.930,19.280 18.988,20.644 16.140 C 20.953 15.495,21.137 14.984,21.320 14.263 C 21.528 13.445,21.573 13.025,21.570 11.920 C 21.567 11.152,21.552 10.892,21.483 10.500 C 21.304 9.479,21.026 8.628,20.573 7.714 C 19.332 5.208,17.068 3.393,14.321 2.701 C 13.686 2.541,13.242 2.480,12.412 2.440 C 11.490 2.395,11.587 2.393,11.000 2.463 M9.197 4.907 C 10.065 5.088,10.904 5.678,11.415 6.468 C 11.872 7.175,11.996 7.748,11.999 9.164 L 12.000 9.588 13.955 9.609 L 15.910 9.630 16.158 9.762 C 16.590 9.992,16.760 10.295,16.760 10.832 C 16.760 11.089,16.743 11.161,16.633 11.366 C 16.500 11.616,16.310 11.795,16.054 11.911 C 15.916 11.973,15.699 11.981,13.948 11.992 L 11.996 12.004 12.008 13.952 C 12.020 15.896,12.020 15.900,12.113 16.088 C 12.231 16.327,12.473 16.569,12.712 16.687 C 12.968 16.813,13.418 16.816,13.686 16.693 C 13.922 16.585,14.160 16.348,14.279 16.101 C 14.365 15.924,14.375 15.835,14.404 14.995 L 14.434 14.082 14.564 13.838 C 14.788 13.419,15.098 13.240,15.600 13.240 C 16.100 13.240,16.413 13.419,16.633 13.833 L 16.760 14.071 16.760 15.129 C 16.760 16.041,16.749 16.228,16.684 16.484 C 16.515 17.138,16.185 17.692,15.667 18.189 C 15.286 18.554,14.866 18.817,14.363 19.006 C 14.034 19.129,13.991 19.135,13.316 19.151 C 12.761 19.164,12.559 19.154,12.364 19.104 C 11.075 18.774,10.044 17.752,9.716 16.480 C 9.646 16.209,9.636 15.975,9.613 14.090 L 9.587 12.000 8.921 12.000 C 8.160 12.000,7.953 11.958,7.674 11.744 C 7.564 11.660,7.446 11.516,7.368 11.368 C 7.257 11.161,7.240 11.089,7.240 10.832 C 7.240 10.295,7.411 9.992,7.841 9.763 L 8.088 9.631 8.844 9.610 L 9.600 9.588 9.600 8.921 C 9.600 8.166,9.560 7.968,9.347 7.680 C 9.170 7.441,8.879 7.287,8.468 7.216 C 8.042 7.142,7.896 7.093,7.697 6.957 C 7.393 6.749,7.219 6.393,7.222 5.980 C 7.223 5.655,7.329 5.394,7.547 5.176 C 7.906 4.816,8.386 4.738,9.197 4.907 " fill="#373B4D" stroke="none" fill-rule="evenodd"></path></svg>