<svg width="24" height="24" viewBox="0 0 24 24" fill="none" xmlns="http://www.w3.org/2000/svg"><path d="M10.960 2.483 C 10.529 2.522,9.753 2.687,9.175 2.863 C 7.694 3.311,6.417 4.074,5.312 5.171 C 3.805 6.665,2.893 8.403,2.543 10.445 C 2.150 12.732,2.671 15.225,3.947 17.178 C 5.248 19.167,7.063 20.510,9.409 21.217 C 10.384 21.511,10.564 21.534,11.920 21.537 C 13.206 21.540,13.437 21.520,14.160 21.339 C 16.336 20.794,18.255 19.563,19.560 17.875 C 20.466 16.703,21.204 15.049,21.468 13.600 C 21.571 13.039,21.571 10.898,21.468 10.380 C 20.876 7.391,19.104 4.964,16.480 3.550 C 15.484 3.013,14.237 2.625,13.173 2.522 C 12.619 2.469,11.364 2.446,10.960 2.483 M16.206 6.210 C 16.571 6.456,16.678 6.648,16.708 7.113 C 16.727 7.407,16.718 7.514,16.661 7.663 C 16.567 7.908,16.213 8.263,16.006 8.318 C 15.888 8.350,14.455 8.433,13.910 8.439 C 13.872 8.440,13.840 8.461,13.840 8.487 C 13.840 8.513,13.933 8.772,14.047 9.063 L 14.254 9.591 14.937 9.619 C 15.313 9.634,15.725 9.662,15.853 9.681 C 16.141 9.725,16.413 9.909,16.574 10.169 C 16.672 10.329,16.690 10.405,16.709 10.748 C 16.727 11.078,16.719 11.166,16.659 11.282 C 16.543 11.508,16.397 11.678,16.210 11.807 C 16.058 11.911,15.981 11.933,15.647 11.963 C 15.434 11.982,15.033 11.998,14.756 11.999 L 14.253 12.000 14.140 12.290 C 13.880 12.962,13.495 13.607,13.099 14.034 C 12.665 14.502,11.959 14.998,11.353 15.260 L 11.086 15.375 11.826 16.134 C 12.583 16.909,12.932 17.311,13.064 17.560 C 13.183 17.782,13.164 18.250,13.024 18.535 C 12.827 18.938,12.427 19.178,11.960 19.174 C 11.599 19.171,11.437 19.058,10.453 18.116 C 9.542 17.246,7.751 15.418,7.460 15.063 L 7.300 14.867 7.300 14.404 C 7.300 13.947,7.302 13.937,7.428 13.755 C 7.600 13.508,7.890 13.326,8.186 13.281 C 8.315 13.261,8.736 13.225,9.123 13.202 C 10.179 13.136,10.466 13.079,10.782 12.871 C 11.077 12.677,11.629 12.134,11.580 12.086 C 11.556 12.062,10.877 12.029,9.900 12.003 C 8.998 11.980,8.170 11.942,8.060 11.920 C 7.812 11.870,7.709 11.795,7.480 11.502 C 7.301 11.273,7.300 11.268,7.286 10.913 C 7.266 10.408,7.292 10.318,7.524 10.063 C 7.895 9.658,7.819 9.676,9.312 9.635 C 10.032 9.616,10.862 9.595,11.158 9.590 L 11.696 9.580 11.439 9.306 C 11.052 8.891,10.617 8.618,10.196 8.524 C 10.096 8.501,9.611 8.454,9.120 8.420 C 8.628 8.385,8.156 8.342,8.071 8.322 C 7.755 8.251,7.445 7.952,7.326 7.604 C 7.269 7.436,7.266 6.990,7.322 6.791 C 7.385 6.562,7.596 6.312,7.820 6.200 C 8.017 6.101,8.037 6.100,9.280 6.078 C 9.973 6.066,11.758 6.052,13.246 6.048 L 15.953 6.040 16.206 6.210 " fill="#373B4D" stroke="none" fill-rule="evenodd"></path></svg>