<svg width="24" height="24" viewBox="0 0 24 24" fill="none" xmlns="http://www.w3.org/2000/svg"><path d="M11.000 2.463 C 8.701 2.737,6.759 3.671,5.175 5.265 C 2.751 7.704,1.820 11.347,2.781 14.634 C 3.551 17.270,5.288 19.358,7.732 20.586 C 8.548 20.996,9.533 21.315,10.507 21.484 C 10.943 21.559,11.167 21.573,12.000 21.573 C 12.833 21.573,13.057 21.559,13.493 21.484 C 16.681 20.930,19.280 18.988,20.644 16.140 C 20.953 15.495,21.137 14.984,21.320 14.263 C 21.528 13.445,21.573 13.025,21.570 11.920 C 21.567 11.152,21.552 10.892,21.483 10.500 C 21.304 9.479,21.026 8.628,20.573 7.714 C 19.332 5.208,17.068 3.393,14.321 2.701 C 13.686 2.541,13.242 2.480,12.412 2.440 C 11.490 2.395,11.587 2.393,11.000 2.463 M12.980 4.958 C 13.335 5.071,13.831 5.320,14.140 5.540 C 14.663 5.913,15.332 6.690,15.586 7.219 C 15.741 7.541,15.761 7.808,15.657 8.159 C 15.520 8.618,14.957 8.994,14.478 8.945 C 14.030 8.900,13.786 8.742,13.470 8.291 C 13.216 7.929,12.728 7.452,12.499 7.341 C 12.403 7.294,12.225 7.257,12.051 7.247 C 11.796 7.233,11.733 7.245,11.511 7.350 C 11.373 7.415,11.166 7.553,11.050 7.657 C 10.827 7.859,10.488 8.342,10.287 8.744 L 10.164 8.989 11.235 9.008 L 12.306 9.028 12.556 9.161 C 12.990 9.392,13.160 9.694,13.160 10.232 C 13.160 10.489,13.143 10.561,13.033 10.766 C 12.900 11.016,12.710 11.195,12.454 11.311 C 12.320 11.371,12.128 11.382,10.950 11.392 L 9.600 11.405 9.600 12.002 L 9.600 12.600 10.550 12.603 C 11.072 12.605,11.711 12.619,11.969 12.635 C 12.430 12.663,12.441 12.666,12.669 12.822 C 12.853 12.948,12.926 13.032,13.030 13.236 C 13.143 13.459,13.160 13.532,13.160 13.800 C 13.160 14.063,13.142 14.143,13.038 14.352 C 12.909 14.609,12.719 14.791,12.454 14.910 C 12.323 14.969,12.138 14.981,11.229 14.993 L 10.158 15.006 10.346 15.363 C 10.842 16.303,11.539 16.866,12.102 16.782 C 12.544 16.716,12.998 16.362,13.475 15.712 C 13.839 15.214,14.103 15.063,14.594 15.070 C 15.239 15.080,15.720 15.596,15.720 16.278 C 15.720 16.676,15.316 17.363,14.747 17.931 C 13.321 19.357,11.572 19.590,10.011 18.561 C 9.581 18.278,9.058 17.762,8.720 17.289 C 8.430 16.881,7.909 15.851,7.739 15.350 L 7.621 15.000 7.355 15.000 C 7.019 15.000,6.626 14.881,6.432 14.720 C 6.348 14.650,6.228 14.484,6.155 14.336 C 5.787 13.588,6.212 12.770,7.050 12.618 L 7.200 12.591 7.200 11.996 L 7.200 11.400 7.090 11.398 C 6.940 11.395,6.683 11.286,6.469 11.135 C 6.343 11.046,6.254 10.936,6.165 10.758 C 6.057 10.542,6.040 10.465,6.041 10.204 C 6.043 9.480,6.463 9.072,7.264 9.015 L 7.625 8.989 7.741 8.645 C 7.910 8.145,8.431 7.117,8.726 6.703 C 9.351 5.824,10.157 5.221,11.080 4.942 C 11.396 4.847,11.464 4.841,12.060 4.854 C 12.583 4.866,12.751 4.885,12.980 4.958 " fill="#373B4D" stroke="none" fill-rule="evenodd"></path></svg>