<svg width="24" height="24" viewBox="0 0 24 24" fill="none" xmlns="http://www.w3.org/2000/svg"><path d="M10.460 2.556 C 8.397 2.940,6.796 3.749,5.385 5.120 C 4.496 5.984,3.882 6.821,3.377 7.860 C 2.066 10.554,2.096 13.601,3.462 16.323 C 4.177 17.749,5.334 19.053,6.680 19.949 C 7.607 20.566,8.758 21.065,9.980 21.380 C 10.692 21.563,12.698 21.607,13.602 21.459 C 14.327 21.340,15.373 20.991,16.183 20.597 C 17.678 19.870,19.020 18.714,19.908 17.388 C 20.322 16.768,20.870 15.645,21.111 14.919 C 21.413 14.007,21.475 13.692,21.529 12.787 C 21.595 11.660,21.531 10.569,21.360 9.900 C 21.053 8.702,20.624 7.713,19.996 6.757 C 18.554 4.560,16.139 2.990,13.567 2.575 C 13.303 2.532,12.811 2.507,12.020 2.497 C 11.015 2.484,10.807 2.492,10.460 2.556 M9.400 4.981 C 10.260 5.244,11.187 6.020,11.585 6.810 C 11.830 7.296,11.900 7.697,11.992 9.140 L 12.020 9.580 13.840 9.627 C 14.841 9.653,15.774 9.693,15.914 9.715 C 16.354 9.787,16.616 10.072,16.687 10.555 C 16.755 11.009,16.707 11.240,16.487 11.529 C 16.384 11.664,16.237 11.807,16.160 11.846 C 15.939 11.959,15.252 11.999,13.544 12.000 L 11.987 12.000 12.013 13.910 C 12.029 15.118,12.054 15.877,12.083 15.976 C 12.135 16.161,12.473 16.535,12.687 16.643 C 12.887 16.746,13.218 16.779,13.486 16.723 C 13.881 16.641,14.193 16.331,14.301 15.914 C 14.331 15.796,14.384 15.342,14.418 14.905 C 14.485 14.030,14.543 13.823,14.791 13.576 C 15.006 13.360,15.178 13.300,15.580 13.300 C 16.109 13.301,16.276 13.387,16.610 13.835 L 16.771 14.051 16.743 14.975 C 16.728 15.484,16.699 16.046,16.680 16.225 C 16.562 17.314,15.614 18.477,14.450 18.962 C 13.846 19.213,12.552 19.214,11.956 18.964 C 11.299 18.688,10.798 18.295,10.355 17.707 C 10.067 17.326,9.818 16.831,9.761 16.526 C 9.700 16.204,9.646 15.064,9.616 13.456 L 9.588 12.012 8.904 11.987 C 7.933 11.951,7.948 11.955,7.634 11.642 C 7.338 11.346,7.280 11.211,7.281 10.820 C 7.283 10.339,7.420 10.058,7.762 9.839 C 7.986 9.695,8.187 9.660,9.030 9.619 L 9.600 9.591 9.600 9.086 C 9.599 8.456,9.548 8.122,9.409 7.840 C 9.268 7.555,9.052 7.424,8.324 7.181 C 7.725 6.981,7.574 6.886,7.410 6.607 C 7.310 6.436,7.300 6.385,7.301 6.020 C 7.302 5.559,7.360 5.398,7.611 5.154 C 7.854 4.918,8.013 4.878,8.640 4.897 C 8.990 4.907,9.257 4.937,9.400 4.981 " fill="#373B4D" stroke="none" fill-rule="evenodd"></path></svg>