<svg width="24" height="24" viewBox="0 0 24 24" fill="none" xmlns="http://www.w3.org/2000/svg"><path d="M10.780 2.522 C 9.848 2.624,8.586 3.017,7.649 3.498 C 6.239 4.220,4.873 5.459,3.942 6.860 C 3.237 7.919,2.668 9.464,2.501 10.772 C 2.431 11.317,2.420 12.576,2.481 13.081 C 2.696 14.862,3.457 16.662,4.570 18.020 C 4.877 18.396,5.581 19.099,5.937 19.386 C 6.938 20.194,8.256 20.876,9.552 21.258 C 10.154 21.435,10.437 21.479,11.293 21.528 C 12.395 21.591,13.323 21.535,14.020 21.363 C 15.488 21.001,16.913 20.310,18.020 19.422 C 18.626 18.936,19.442 18.067,19.832 17.491 C 20.332 16.753,20.800 15.791,21.123 14.839 C 21.420 13.961,21.478 13.657,21.519 12.742 C 21.551 12.020,21.517 10.595,21.463 10.380 C 21.451 10.336,21.387 10.078,21.320 9.807 C 20.774 7.596,19.537 5.736,17.700 4.361 C 16.366 3.362,14.633 2.668,13.220 2.565 C 12.385 2.504,11.143 2.483,10.780 2.522 M14.231 5.013 C 15.124 5.269,15.958 5.999,16.431 6.942 C 16.585 7.247,16.627 7.480,16.663 8.205 C 16.695 8.873,16.669 8.973,16.391 9.224 C 15.953 9.619,15.310 9.665,14.917 9.328 C 14.731 9.169,14.600 8.914,14.335 8.200 C 14.092 7.542,13.872 7.361,13.237 7.297 C 13.021 7.275,12.941 7.285,12.797 7.349 C 12.554 7.457,12.216 7.734,12.136 7.889 C 12.054 8.047,12.005 8.799,12.002 9.965 L 12.000 10.790 12.470 10.817 C 13.119 10.854,13.553 10.915,13.698 10.988 C 14.127 11.204,14.249 11.417,14.272 11.989 C 14.288 12.371,14.282 12.409,14.186 12.573 C 14.060 12.789,13.839 12.987,13.616 13.086 C 13.482 13.145,13.302 13.165,12.728 13.186 L 12.007 13.212 11.979 13.676 C 11.964 13.931,11.929 14.428,11.901 14.780 C 11.868 15.195,11.864 15.437,11.889 15.469 C 11.951 15.547,12.085 15.557,13.820 15.620 C 15.663 15.686,15.967 15.707,16.143 15.780 C 16.274 15.833,16.506 16.094,16.615 16.308 C 16.704 16.483,16.706 17.154,16.618 17.324 C 16.530 17.493,16.287 17.754,16.152 17.824 C 15.929 17.940,15.256 17.964,11.738 17.987 L 8.176 18.010 8.003 17.922 C 7.785 17.810,7.512 17.530,7.404 17.307 C 7.338 17.172,7.320 17.058,7.320 16.780 C 7.320 16.158,7.483 15.957,8.214 15.678 C 8.880 15.424,9.146 15.284,9.317 15.099 C 9.515 14.884,9.556 14.692,9.588 13.850 L 9.613 13.200 9.196 13.199 C 8.610 13.197,8.072 13.139,7.920 13.060 C 7.747 12.971,7.441 12.652,7.374 12.491 C 7.342 12.415,7.320 12.212,7.320 11.994 C 7.320 11.552,7.399 11.351,7.654 11.145 C 7.940 10.914,7.886 10.925,9.240 10.809 L 9.580 10.780 9.607 10.220 C 9.622 9.912,9.654 9.235,9.678 8.714 C 9.729 7.603,9.761 7.394,9.940 7.020 C 10.398 6.065,11.162 5.358,12.110 5.014 C 12.371 4.920,12.408 4.917,13.200 4.935 C 13.763 4.947,14.086 4.971,14.231 5.013 " fill="#373B4D" stroke="none" fill-rule="evenodd"></path></svg>