<svg width="24" height="24" viewBox="0 0 24 24" fill="none" xmlns="http://www.w3.org/2000/svg"><path d="M4.018 3.077 C 3.669 3.134,3.279 3.463,3.097 3.854 L 3.001 4.060 3.000 12.011 L 3.000 19.963 3.103 20.167 C 3.247 20.449,3.518 20.726,3.796 20.875 L 4.031 21.000 12.000 21.000 L 19.969 21.000 20.204 20.875 C 20.482 20.726,20.753 20.449,20.897 20.167 L 21.000 19.963 21.000 12.000 L 21.000 4.037 20.897 3.835 C 20.762 3.568,20.509 3.298,20.261 3.156 L 20.060 3.041 12.120 3.045 C 7.753 3.048,4.107 3.062,4.018 3.077 M17.542 4.890 C 17.559 4.939,17.580 8.161,17.589 12.050 L 17.606 19.120 16.083 19.120 L 14.560 19.120 14.560 18.582 L 14.560 18.043 14.250 18.266 C 13.334 18.924,12.507 19.197,11.420 19.199 C 10.242 19.201,9.044 18.737,8.215 17.957 C 7.336 17.130,6.788 16.192,6.533 15.074 C 6.452 14.715,6.439 13.417,6.513 12.969 C 6.669 12.021,7.201 10.983,7.917 10.230 C 8.742 9.362,9.828 8.786,10.861 8.671 C 11.479 8.602,12.351 8.674,12.828 8.834 C 13.433 9.037,13.907 9.297,14.350 9.670 L 14.560 9.846 14.560 7.626 L 14.560 5.406 14.790 5.358 C 15.234 5.265,17.460 4.807,17.485 4.803 C 17.499 4.802,17.525 4.841,17.542 4.890 M11.359 11.454 C 10.435 11.780,9.809 12.472,9.623 13.370 C 9.544 13.755,9.544 13.963,9.623 14.352 C 9.779 15.124,10.310 15.817,11.000 16.153 C 11.376 16.336,11.678 16.399,12.182 16.400 C 13.351 16.401,14.384 15.500,14.624 14.270 C 14.702 13.871,14.669 13.473,14.522 13.056 C 14.251 12.284,13.502 11.607,12.715 11.421 C 12.313 11.327,11.677 11.342,11.359 11.454 " fill="#373B4D" stroke="none" fill-rule="evenodd"></path></svg>