<svg width="24" height="24" viewBox="0 0 24 24" fill="none" xmlns="http://www.w3.org/2000/svg"><path d="M4.520 3.034 C 4.011 3.057,3.916 3.072,3.745 3.160 C 3.475 3.298,3.251 3.526,3.126 3.794 L 3.020 4.020 3.009 11.976 L 2.998 19.932 3.115 20.182 C 3.262 20.496,3.476 20.712,3.800 20.874 L 4.053 21.000 12.000 21.000 L 19.947 21.000 20.200 20.874 C 20.522 20.713,20.736 20.498,20.883 20.187 L 21.000 19.940 21.000 11.996 L 21.000 4.053 20.874 3.800 C 20.724 3.500,20.533 3.300,20.250 3.148 L 20.043 3.037 12.572 3.023 C 8.462 3.015,4.839 3.020,4.520 3.034 M17.574 5.310 C 17.588 5.590,17.600 8.813,17.600 12.470 L 17.600 19.120 16.080 19.120 L 14.560 19.120 14.560 18.580 L 14.560 18.041 14.217 18.294 C 13.415 18.887,12.705 19.139,11.697 19.188 C 10.405 19.251,9.219 18.851,8.300 18.043 C 7.475 17.317,6.917 16.448,6.624 15.431 C 6.470 14.897,6.427 14.466,6.452 13.700 C 6.475 12.980,6.536 12.663,6.778 12.020 C 7.344 10.517,8.621 9.291,10.106 8.826 C 10.639 8.659,10.909 8.628,11.635 8.651 C 12.179 8.668,12.362 8.690,12.640 8.770 C 13.314 8.965,13.852 9.242,14.310 9.630 L 14.560 9.842 14.560 7.621 C 14.560 6.399,14.565 5.400,14.570 5.399 C 14.575 5.399,15.228 5.265,16.020 5.103 C 16.812 4.940,17.480 4.805,17.504 4.804 C 17.532 4.801,17.557 4.979,17.574 5.310 M11.684 11.363 C 11.385 11.402,10.938 11.603,10.577 11.861 C 9.906 12.340,9.522 13.160,9.573 14.004 C 9.635 15.021,10.277 15.899,11.229 16.268 C 11.591 16.408,12.360 16.445,12.757 16.341 C 13.955 16.029,14.824 14.741,14.645 13.542 C 14.559 12.959,14.298 12.463,13.860 12.046 C 13.280 11.495,12.515 11.254,11.684 11.363 " fill="#373B4D" stroke="none" fill-rule="evenodd"></path></svg>