<svg width="24" height="24" viewBox="0 0 24 24" fill="none" xmlns="http://www.w3.org/2000/svg"><path d="M5.339 3.079 L 3.858 3.100 3.657 3.229 C 3.405 3.391,3.322 3.479,3.143 3.778 L 3.000 4.015 3.000 11.989 L 3.000 19.963 3.097 20.154 C 3.231 20.419,3.495 20.693,3.778 20.860 L 4.015 21.000 11.998 21.000 L 19.980 20.999 20.180 20.884 C 20.469 20.718,20.699 20.494,20.860 20.222 L 21.000 19.985 21.000 12.000 L 21.000 4.015 20.857 3.778 C 20.671 3.467,20.588 3.380,20.304 3.194 L 20.068 3.040 13.444 3.049 C 9.801 3.054,6.154 3.067,5.339 3.079 M17.534 4.890 C 17.546 4.939,17.569 8.161,17.584 12.050 L 17.613 19.120 16.086 19.120 L 14.560 19.120 14.560 18.582 L 14.560 18.044 14.230 18.282 C 12.809 19.307,11.032 19.483,9.415 18.758 C 8.486 18.341,7.499 17.354,6.983 16.326 C 6.799 15.960,6.578 15.303,6.522 14.960 C 6.457 14.551,6.469 13.227,6.542 12.840 C 6.747 11.759,7.492 10.526,8.375 9.804 C 9.464 8.914,10.560 8.559,11.865 8.673 C 12.443 8.724,12.719 8.786,13.170 8.965 C 13.554 9.118,13.937 9.345,14.290 9.627 L 14.560 9.843 14.560 7.624 L 14.560 5.404 14.690 5.379 C 14.762 5.365,15.405 5.231,16.120 5.081 C 16.835 4.931,17.441 4.806,17.466 4.804 C 17.491 4.802,17.521 4.841,17.534 4.890 M11.600 11.401 C 10.905 11.521,10.157 12.104,9.835 12.777 C 9.534 13.404,9.491 14.001,9.702 14.629 C 10.049 15.663,10.907 16.332,11.962 16.390 C 12.874 16.440,13.689 16.033,14.209 15.266 C 14.523 14.805,14.708 14.151,14.659 13.680 C 14.592 13.040,14.325 12.520,13.823 12.050 C 13.219 11.487,12.432 11.256,11.600 11.401 " fill="#373B4D" stroke="none" fill-rule="evenodd"></path></svg>