<svg width="24" height="24" viewBox="0 0 24 24" fill="none" xmlns="http://www.w3.org/2000/svg"><path d="M3.933 3.074 C 3.490 3.227,3.187 3.535,3.062 3.958 C 3.002 4.161,2.998 4.853,3.008 12.080 L 3.020 19.980 3.124 20.202 C 3.273 20.518,3.448 20.699,3.753 20.849 L 4.018 20.980 12.000 20.980 L 19.982 20.980 20.247 20.849 C 20.552 20.699,20.727 20.518,20.876 20.202 L 20.980 19.980 20.980 11.999 L 20.980 4.018 20.849 3.753 C 20.699 3.448,20.518 3.273,20.202 3.124 L 19.980 3.020 12.060 3.011 C 4.529 3.003,4.130 3.006,3.933 3.074 M17.600 11.960 L 17.600 19.120 16.080 19.120 L 14.560 19.120 14.560 18.580 L 14.560 18.040 14.203 18.311 C 13.396 18.924,12.538 19.200,11.440 19.200 C 10.424 19.200,9.567 18.940,8.700 18.368 C 8.327 18.122,7.622 17.415,7.364 17.028 C 6.932 16.382,6.641 15.673,6.499 14.920 C 6.402 14.410,6.400 13.473,6.495 12.985 C 6.916 10.826,8.520 9.133,10.560 8.696 C 11.012 8.599,11.888 8.599,12.352 8.697 C 13.146 8.863,13.876 9.220,14.390 9.693 L 14.560 9.850 14.560 7.625 C 14.560 6.401,14.565 5.399,14.570 5.398 C 14.575 5.397,15.228 5.264,16.020 5.102 C 16.812 4.940,17.492 4.806,17.530 4.804 C 17.596 4.800,17.600 5.166,17.600 11.960 M11.560 11.379 C 10.967 11.513,10.313 11.962,9.980 12.462 C 9.207 13.627,9.542 15.241,10.714 16.007 C 11.157 16.296,11.556 16.413,12.100 16.415 C 12.845 16.418,13.370 16.199,13.904 15.665 C 14.300 15.269,14.517 14.859,14.625 14.304 C 14.860 13.101,14.116 11.863,12.913 11.455 C 12.538 11.327,11.939 11.294,11.560 11.379 " fill="#373B4D" stroke="none" fill-rule="evenodd"></path></svg>