<svg width="24" height="24" viewBox="0 0 24 24" fill="none" xmlns="http://www.w3.org/2000/svg"><path d="M7.094 3.079 L 3.847 3.100 3.614 3.260 C 3.455 3.369,3.320 3.510,3.191 3.700 L 3.002 3.980 3.001 11.980 L 3.001 19.980 3.116 20.180 C 3.263 20.438,3.505 20.686,3.779 20.861 L 3.996 21.000 11.983 21.000 L 19.970 21.000 20.175 20.882 C 20.409 20.748,20.742 20.419,20.895 20.171 L 21.000 20.002 21.000 12.001 L 21.000 4.001 20.825 3.728 C 20.654 3.461,20.490 3.305,20.195 3.127 L 20.051 3.040 15.195 3.049 C 12.525 3.053,8.879 3.067,7.094 3.079 M17.525 5.263 C 17.539 5.503,17.564 8.720,17.580 12.410 L 17.610 19.120 16.085 19.120 L 14.560 19.120 14.560 18.581 L 14.560 18.041 14.290 18.238 C 13.746 18.634,13.125 18.921,12.458 19.086 C 12.022 19.194,11.036 19.215,10.580 19.125 C 10.180 19.047,9.622 18.863,9.320 18.709 C 8.256 18.170,7.248 17.056,6.823 15.948 C 6.515 15.144,6.500 15.048,6.502 13.960 C 6.504 13.099,6.514 12.939,6.589 12.640 C 6.871 11.511,7.670 10.315,8.600 9.633 C 9.524 8.954,10.360 8.668,11.420 8.670 C 12.557 8.671,13.364 8.932,14.204 9.570 L 14.560 9.840 14.560 7.623 L 14.560 5.406 14.790 5.359 C 14.917 5.333,15.560 5.198,16.220 5.059 C 16.880 4.920,17.438 4.811,17.460 4.816 C 17.482 4.822,17.511 5.023,17.525 5.263 M11.600 11.402 C 11.321 11.450,10.808 11.703,10.509 11.940 C 10.037 12.314,9.685 12.949,9.591 13.599 C 9.528 14.026,9.618 14.484,9.862 14.989 C 10.411 16.122,11.702 16.662,12.904 16.260 C 13.846 15.946,14.550 15.046,14.660 14.013 C 14.693 13.711,14.598 13.226,14.442 12.893 C 14.139 12.244,13.503 11.682,12.840 11.477 C 12.537 11.383,11.925 11.346,11.600 11.402 " fill="#373B4D" stroke="none" fill-rule="evenodd"></path></svg>