<svg width="24" height="24" viewBox="0 0 24 24" fill="none" xmlns="http://www.w3.org/2000/svg"><path d="M11.920 3.023 C 11.512 3.092,11.272 3.180,10.460 3.561 C 9.709 3.914,7.511 4.965,6.968 5.232 C 6.855 5.288,6.846 5.301,6.908 5.326 C 6.998 5.361,14.863 5.362,15.148 5.326 L 15.356 5.300 14.428 4.355 C 13.479 3.388,13.332 3.270,12.900 3.126 C 12.664 3.048,12.117 2.990,11.920 3.023 M6.221 6.408 C 6.671 6.879,11.025 11.381,14.677 15.150 L 18.059 18.640 19.530 18.640 L 21.000 18.640 21.000 14.783 L 21.000 10.925 18.710 8.677 C 17.451 7.441,16.341 6.364,16.244 6.285 L 16.067 6.140 11.005 6.128 L 5.943 6.116 6.221 6.408 M5.386 6.878 C 5.372 6.950,5.360 9.318,5.360 12.139 L 5.360 17.268 7.526 19.634 L 9.692 22.000 13.586 22.000 L 17.480 22.000 17.480 20.575 L 17.480 19.150 16.189 17.825 C 15.479 17.096,13.108 14.655,10.919 12.400 C 8.731 10.145,6.596 7.951,6.176 7.523 L 5.413 6.745 5.386 6.878 M4.223 8.210 C 4.040 8.590,3.616 9.467,3.281 10.160 C 1.933 12.948,1.860 13.179,2.135 13.781 C 2.299 14.138,2.560 14.444,3.607 15.500 L 4.598 16.500 4.599 12.010 C 4.600 9.540,4.590 7.520,4.578 7.520 C 4.566 7.520,4.407 7.830,4.223 8.210 " fill="#373B4D" stroke="none" fill-rule="evenodd"></path></svg>