<svg width="24" height="24" viewBox="0 0 24 24" fill="none" xmlns="http://www.w3.org/2000/svg"><path d="M11.617 3.100 C 11.386 3.162,10.682 3.470,9.580 3.989 C 8.419 4.536,6.944 5.250,6.906 5.282 C 6.830 5.348,8.128 5.367,11.500 5.350 C 13.666 5.339,15.107 5.316,15.180 5.292 L 15.300 5.253 14.369 4.328 C 13.546 3.510,13.405 3.387,13.149 3.262 C 12.731 3.057,12.044 2.985,11.617 3.100 M6.402 6.586 C 6.656 6.847,8.150 8.392,9.721 10.020 C 11.292 11.648,13.810 14.253,15.316 15.810 L 18.054 18.640 19.527 18.640 L 21.000 18.640 21.000 14.783 L 21.000 10.926 18.750 8.731 C 17.512 7.524,16.410 6.453,16.300 6.353 L 16.100 6.170 11.020 6.141 L 5.940 6.112 6.402 6.586 M5.383 6.866 C 5.370 6.899,5.360 9.253,5.360 12.097 L 5.360 17.268 7.526 19.634 L 9.692 22.000 13.586 22.000 L 17.480 22.000 17.479 20.570 L 17.478 19.140 15.469 17.076 C 14.364 15.942,11.673 13.176,9.489 10.930 C 7.304 8.685,5.492 6.838,5.462 6.826 C 5.431 6.815,5.396 6.832,5.383 6.866 M4.388 7.925 C 3.995 8.621,2.549 11.659,2.249 12.420 C 1.825 13.493,1.890 13.670,3.230 15.100 C 3.539 15.430,3.974 15.880,4.196 16.099 L 4.600 16.498 4.597 12.259 C 4.595 9.928,4.581 7.939,4.566 7.840 L 4.538 7.660 4.388 7.925 " fill="#373B4D" stroke="none" fill-rule="evenodd"></path></svg>