<svg width="24" height="24" viewBox="0 0 24 24" fill="none" xmlns="http://www.w3.org/2000/svg"><path d="M11.440 3.155 C 11.253 3.220,10.659 3.480,10.120 3.732 C 9.235 4.146,8.865 4.323,7.320 5.072 L 6.860 5.295 7.080 5.324 C 7.363 5.360,13.185 5.368,14.374 5.334 C 14.892 5.319,15.280 5.291,15.280 5.270 C 15.280 5.220,13.675 3.617,13.430 3.422 C 13.127 3.180,12.783 3.074,12.240 3.054 C 11.810 3.037,11.758 3.044,11.440 3.155 M6.265 6.445 C 6.443 6.629,7.945 8.184,9.602 9.900 C 11.259 11.616,13.839 14.285,15.335 15.830 L 18.055 18.640 19.528 18.640 L 21.000 18.640 21.000 14.782 L 21.000 10.925 18.690 8.668 C 17.419 7.427,16.315 6.355,16.236 6.286 L 16.092 6.162 11.016 6.136 L 5.940 6.111 6.265 6.445 M5.387 6.842 C 5.373 6.896,5.361 9.264,5.361 12.104 L 5.360 17.268 7.526 19.634 L 9.692 22.000 13.586 22.000 L 17.480 22.000 17.478 20.570 L 17.476 19.140 14.712 16.300 C 13.192 14.738,10.776 12.255,9.344 10.782 C 4.992 6.307,5.417 6.730,5.387 6.842 M3.851 8.987 C 2.617 11.493,2.145 12.550,2.037 13.050 C 1.966 13.378,2.033 13.644,2.282 14.015 C 2.482 14.314,3.362 15.274,4.156 16.059 L 4.600 16.499 4.597 12.119 C 4.596 9.711,4.581 7.707,4.566 7.667 C 4.544 7.613,4.353 7.967,3.851 8.987 " fill="#373B4D" stroke="none" fill-rule="evenodd"></path></svg>