<svg width="24" height="24" viewBox="0 0 24 24" fill="none" xmlns="http://www.w3.org/2000/svg"><path d="M11.803 3.046 C 11.684 3.065,11.425 3.146,11.227 3.225 C 10.880 3.364,9.076 4.213,7.580 4.942 L 6.860 5.292 7.080 5.328 C 7.353 5.372,15.261 5.352,15.306 5.308 C 15.324 5.290,14.907 4.846,14.379 4.322 C 13.612 3.560,13.372 3.345,13.180 3.249 C 12.811 3.065,12.223 2.978,11.803 3.046 M6.204 6.386 C 8.298 8.556,12.050 12.438,14.716 15.190 L 18.057 18.640 19.529 18.640 L 21.000 18.640 21.000 14.782 L 21.000 10.924 18.650 8.624 C 17.358 7.359,16.249 6.285,16.186 6.236 L 16.072 6.148 11.006 6.130 L 5.940 6.112 6.204 6.386 M5.385 6.885 C 5.371 6.954,5.360 9.318,5.360 12.139 L 5.360 17.268 7.526 19.634 L 9.692 22.000 13.586 22.000 L 17.480 22.000 17.480 20.573 L 17.480 19.145 16.889 18.543 C 16.563 18.211,15.065 16.671,13.560 15.120 C 8.952 10.374,5.434 6.760,5.422 6.760 C 5.415 6.760,5.399 6.816,5.385 6.885 M3.660 9.370 C 2.536 11.697,2.302 12.208,2.131 12.719 C 1.837 13.597,1.973 13.846,3.708 15.600 L 4.598 16.500 4.599 12.030 C 4.599 9.572,4.585 7.560,4.567 7.560 C 4.549 7.560,4.141 8.375,3.660 9.370 " fill="#373B4D" stroke="none" fill-rule="evenodd"></path></svg>