<svg width="24" height="24" viewBox="0 0 24 24" fill="none" xmlns="http://www.w3.org/2000/svg"><path d="M11.720 3.081 C 11.621 3.102,11.486 3.140,11.420 3.166 C 10.831 3.400,8.418 4.526,7.425 5.032 L 6.900 5.299 7.180 5.324 C 7.543 5.358,12.827 5.358,14.187 5.325 C 14.762 5.311,15.247 5.286,15.264 5.269 C 15.303 5.230,15.194 5.117,14.198 4.165 C 13.357 3.362,13.198 3.245,12.787 3.136 C 12.512 3.064,11.944 3.034,11.720 3.081 M6.442 6.628 C 6.717 6.909,8.228 8.472,9.800 10.100 C 11.371 11.728,13.871 14.316,15.355 15.850 L 18.053 18.640 19.527 18.640 L 21.000 18.640 21.000 14.784 L 21.000 10.928 18.830 8.813 C 17.637 7.650,16.534 6.580,16.380 6.435 L 16.100 6.171 11.021 6.143 L 5.942 6.115 6.442 6.628 M5.387 6.867 C 5.372 6.881,5.360 9.228,5.360 12.081 L 5.360 17.268 7.526 19.634 L 9.692 22.000 13.586 22.000 L 17.480 22.000 17.480 20.573 L 17.480 19.147 17.049 18.703 C 13.835 15.393,9.256 10.686,8.643 10.060 C 6.764 8.142,5.470 6.840,5.443 6.840 C 5.427 6.840,5.401 6.852,5.387 6.867 M4.435 7.840 C 4.146 8.334,2.866 10.990,2.411 12.040 C 1.889 13.244,1.896 13.525,2.466 14.240 C 2.716 14.553,3.771 15.683,4.296 16.199 L 4.600 16.498 4.595 12.359 C 4.592 10.083,4.579 8.094,4.565 7.940 L 4.540 7.660 4.435 7.840 " fill="#373B4D" stroke="none" fill-rule="evenodd"></path></svg>