<svg width="24" height="24" viewBox="0 0 24 24" fill="none" xmlns="http://www.w3.org/2000/svg"><path d="M10.300 2.562 C 9.167 2.620,7.518 2.969,6.449 3.377 C 5.127 3.881,4.035 4.761,3.752 5.549 C 3.531 6.163,3.726 6.728,4.382 7.378 C 5.236 8.224,6.789 8.908,8.695 9.279 C 10.791 9.687,13.618 9.654,15.622 9.197 C 18.056 8.644,19.525 7.823,20.218 6.628 C 20.326 6.443,20.329 6.421,20.313 5.987 C 20.290 5.400,20.227 5.268,19.723 4.759 C 18.457 3.482,16.236 2.712,13.377 2.560 C 12.574 2.517,11.147 2.518,10.300 2.562 M3.601 9.703 C 3.602 11.003,3.663 12.171,3.743 12.439 C 3.835 12.747,3.988 12.953,4.517 13.483 C 5.142 14.109,5.528 14.324,6.774 14.740 C 8.268 15.238,9.472 15.464,10.960 15.524 C 13.293 15.619,14.878 15.451,16.697 14.919 C 18.157 14.493,18.876 14.113,19.629 13.372 C 20.217 12.793,20.299 12.582,20.360 11.480 C 20.410 10.576,20.411 9.132,20.362 9.101 C 20.342 9.089,20.067 9.326,19.752 9.630 C 18.933 10.420,18.772 10.534,18.030 10.856 C 16.811 11.385,15.385 11.731,13.700 11.905 C 12.780 12.000,11.095 12.001,10.246 11.906 C 8.212 11.679,6.368 11.160,5.233 10.494 C 4.816 10.249,4.184 9.634,3.846 9.143 L 3.600 8.786 3.601 9.703 M3.617 15.103 C 3.577 15.315,3.630 17.875,3.681 18.200 C 3.749 18.628,3.923 18.928,4.357 19.364 C 5.157 20.166,6.025 20.586,7.980 21.115 C 9.318 21.476,9.849 21.532,12.040 21.536 C 14.018 21.541,14.585 21.479,16.100 21.093 C 17.834 20.651,18.949 20.098,19.713 19.302 C 20.107 18.892,20.262 18.593,20.327 18.120 C 20.388 17.670,20.396 15.101,20.337 15.041 C 20.306 15.010,20.217 15.090,20.024 15.318 C 19.626 15.790,19.092 16.274,18.730 16.492 C 18.106 16.868,17.143 17.221,15.880 17.537 C 14.880 17.788,14.298 17.876,13.342 17.924 C 12.199 17.980,10.062 17.913,9.360 17.798 C 7.859 17.554,6.113 17.013,5.412 16.577 C 4.880 16.245,4.312 15.736,3.812 15.143 L 3.646 14.946 3.617 15.103 " fill="#373B4D" stroke="none" fill-rule="evenodd"></path></svg>