<svg width="24" height="24" viewBox="0 0 24 24" fill="none" xmlns="http://www.w3.org/2000/svg"><path d="M10.240 2.598 C 9.514 2.635,8.596 2.783,7.700 3.007 C 6.258 3.368,5.127 3.942,4.376 4.695 C 4.089 4.982,3.979 5.128,3.856 5.378 C 3.714 5.668,3.700 5.725,3.700 6.018 C 3.700 6.515,3.839 6.773,4.412 7.341 C 4.914 7.839,5.181 8.028,5.820 8.339 C 6.963 8.895,8.629 9.337,10.100 9.475 C 11.316 9.589,13.327 9.562,14.371 9.417 C 16.106 9.176,17.906 8.590,18.909 7.939 C 19.300 7.685,19.890 7.113,20.140 6.745 L 20.300 6.509 20.296 6.085 C 20.290 5.455,20.215 5.285,19.725 4.798 C 18.582 3.664,16.753 2.934,14.360 2.659 C 13.729 2.586,11.211 2.549,10.240 2.598 M3.602 9.760 C 3.601 10.795,3.656 11.938,3.725 12.280 C 3.805 12.675,3.934 12.866,4.514 13.441 C 5.079 14.001,5.214 14.095,5.880 14.393 C 6.623 14.726,8.036 15.137,9.120 15.336 C 9.871 15.474,10.585 15.520,11.980 15.519 C 13.876 15.519,14.572 15.446,15.980 15.100 C 17.772 14.660,18.768 14.185,19.582 13.383 C 20.120 12.852,20.238 12.626,20.319 11.961 C 20.367 11.565,20.375 9.160,20.328 9.160 C 20.293 9.160,20.003 9.406,19.416 9.935 C 19.199 10.130,18.915 10.362,18.785 10.450 C 17.943 11.022,16.029 11.602,14.116 11.866 C 13.717 11.921,13.295 11.935,11.960 11.937 C 10.421 11.939,10.258 11.932,9.720 11.847 C 7.769 11.540,5.831 10.934,5.120 10.409 C 4.686 10.089,4.215 9.604,3.712 8.959 L 3.604 8.820 3.602 9.760 M3.612 15.105 C 3.599 15.141,3.600 15.776,3.615 16.515 C 3.655 18.465,3.702 18.655,4.298 19.274 C 5.091 20.096,6.064 20.587,7.878 21.080 C 9.073 21.405,9.480 21.460,11.139 21.521 C 13.423 21.605,14.934 21.448,16.558 20.958 C 18.061 20.504,18.944 20.045,19.615 19.369 C 19.990 18.991,20.135 18.778,20.248 18.440 C 20.329 18.196,20.335 18.086,20.351 16.666 C 20.362 15.680,20.353 15.137,20.327 15.111 C 20.300 15.084,20.092 15.260,19.693 15.646 C 19.050 16.269,18.717 16.514,18.174 16.765 C 17.444 17.102,15.937 17.555,14.880 17.755 C 14.133 17.896,13.550 17.934,12.120 17.935 C 10.738 17.937,9.912 17.891,9.220 17.776 C 8.201 17.607,6.501 17.102,5.819 16.766 C 5.254 16.487,4.908 16.228,4.257 15.594 C 3.944 15.289,3.676 15.040,3.662 15.040 C 3.649 15.040,3.626 15.069,3.612 15.105 " fill="#373B4D" stroke="none" fill-rule="evenodd"></path></svg>