<svg width="24" height="24" viewBox="0 0 24 24" fill="none" xmlns="http://www.w3.org/2000/svg"><path d="M10.360 2.522 C 9.486 2.573,7.877 2.884,6.940 3.184 C 5.174 3.748,3.883 4.763,3.679 5.747 C 3.424 6.973,4.962 8.288,7.480 8.996 C 9.071 9.444,10.352 9.586,12.440 9.547 C 13.790 9.522,14.298 9.472,15.340 9.261 C 17.836 8.756,19.457 7.920,20.127 6.794 L 20.300 6.502 20.314 6.047 C 20.327 5.602,20.324 5.586,20.197 5.329 C 20.113 5.157,19.957 4.950,19.752 4.736 C 18.736 3.678,16.815 2.910,14.460 2.619 C 13.502 2.501,11.516 2.454,10.360 2.522 M3.612 10.430 C 3.637 12.146,3.656 12.343,3.832 12.720 C 3.954 12.982,4.722 13.769,5.100 14.019 C 5.847 14.513,7.672 15.112,9.240 15.378 C 10.458 15.585,12.952 15.617,14.260 15.442 C 16.124 15.195,18.030 14.606,18.905 14.009 C 19.414 13.662,20.005 13.062,20.183 12.713 C 20.243 12.596,20.295 12.394,20.321 12.173 C 20.383 11.666,20.423 9.059,20.370 9.026 C 20.347 9.012,20.174 9.184,19.986 9.410 C 19.358 10.163,18.731 10.599,17.680 11.014 C 15.617 11.827,12.748 12.165,10.167 11.899 C 8.029 11.679,6.035 11.075,4.934 10.313 C 4.543 10.043,4.096 9.567,3.839 9.146 C 3.723 8.956,3.619 8.800,3.607 8.800 C 3.596 8.800,3.598 9.534,3.612 10.430 M20.215 15.069 C 19.880 15.528,19.766 15.662,19.500 15.914 C 18.910 16.475,18.280 16.820,17.190 17.179 C 16.082 17.544,14.858 17.811,13.780 17.922 C 13.238 17.978,10.671 17.950,9.980 17.881 C 8.697 17.752,6.941 17.306,5.879 16.840 C 5.160 16.524,4.496 15.989,3.899 15.245 L 3.663 14.950 3.629 15.065 C 3.582 15.222,3.628 18.002,3.683 18.300 C 3.752 18.676,3.934 18.976,4.338 19.385 C 4.944 19.995,5.647 20.393,6.808 20.780 C 7.487 21.006,8.497 21.272,9.080 21.377 C 9.658 21.482,10.212 21.520,11.520 21.546 C 13.566 21.586,14.544 21.494,16.034 21.119 C 17.965 20.634,19.173 20.013,19.900 19.131 C 20.181 18.791,20.279 18.586,20.324 18.249 C 20.382 17.813,20.421 14.977,20.369 14.946 C 20.344 14.930,20.277 14.985,20.215 15.069 " fill="#373B4D" stroke="none" fill-rule="evenodd"></path></svg>