<svg width="24" height="24" viewBox="0 0 24 24" fill="none" xmlns="http://www.w3.org/2000/svg"><path d="M10.500 2.482 C 7.679 2.745,5.526 3.477,4.385 4.561 C 3.717 5.195,3.507 5.802,3.719 6.487 C 3.819 6.811,3.971 7.041,4.311 7.381 C 5.327 8.398,7.223 9.119,9.780 9.463 C 10.973 9.623,13.214 9.604,14.460 9.422 C 17.524 8.976,19.579 7.986,20.210 6.654 C 20.328 6.405,20.340 6.346,20.340 6.000 C 20.340 5.655,20.328 5.595,20.211 5.347 C 20.140 5.198,20.045 5.027,19.999 4.967 C 19.055 3.739,16.861 2.854,13.974 2.538 C 13.308 2.465,11.072 2.429,10.500 2.482 M3.601 10.010 C 3.602 10.675,3.619 11.497,3.638 11.835 C 3.672 12.412,3.682 12.467,3.804 12.715 C 3.958 13.027,4.587 13.685,4.990 13.956 C 5.960 14.605,7.788 15.188,9.720 15.463 C 10.329 15.549,12.759 15.588,13.544 15.523 C 15.326 15.377,17.129 14.926,18.389 14.314 C 18.914 14.059,19.204 13.844,19.702 13.344 C 20.129 12.914,20.259 12.706,20.321 12.354 C 20.378 12.033,20.422 8.920,20.370 8.920 C 20.347 8.920,20.242 9.059,20.135 9.230 C 19.428 10.367,17.825 11.195,15.400 11.677 C 13.403 12.074,10.894 12.089,8.800 11.718 C 7.126 11.422,5.580 10.838,4.715 10.176 C 4.363 9.906,3.996 9.482,3.807 9.125 C 3.712 8.946,3.627 8.800,3.617 8.800 C 3.608 8.800,3.601 9.345,3.601 10.010 M20.180 15.128 C 19.839 15.739,19.091 16.383,18.266 16.776 C 17.185 17.292,15.367 17.760,13.820 17.921 C 13.163 17.990,10.320 17.951,9.720 17.865 C 7.753 17.584,6.028 17.044,5.060 16.406 C 4.708 16.174,4.070 15.539,3.860 15.210 C 3.772 15.073,3.688 14.961,3.673 14.960 C 3.610 14.960,3.592 15.482,3.611 16.789 C 3.633 18.262,3.652 18.431,3.840 18.821 C 4.032 19.217,4.662 19.785,5.340 20.173 C 6.319 20.733,8.331 21.324,9.780 21.478 C 10.438 21.548,13.139 21.579,13.760 21.524 C 15.165 21.398,16.764 21.010,17.988 20.497 C 18.763 20.173,19.491 19.667,19.905 19.165 C 20.152 18.866,20.261 18.660,20.323 18.378 C 20.376 18.135,20.424 14.840,20.375 14.841 C 20.356 14.841,20.268 14.971,20.180 15.128 " fill="#373B4D" stroke="none" fill-rule="evenodd"></path></svg>