<svg width="24" height="24" viewBox="0 0 24 24" fill="none" xmlns="http://www.w3.org/2000/svg"><path d="M10.240 2.508 C 8.944 2.645,7.504 2.957,6.574 3.302 C 4.864 3.937,3.725 4.929,3.651 5.849 C 3.605 6.414,3.786 6.830,4.298 7.344 C 5.143 8.193,6.378 8.773,8.212 9.183 C 9.478 9.465,10.024 9.526,11.523 9.549 C 12.955 9.571,13.732 9.533,14.600 9.399 C 17.640 8.931,19.636 7.930,20.252 6.567 C 20.318 6.420,20.336 6.299,20.337 6.000 C 20.339 5.642,20.330 5.602,20.189 5.304 C 19.837 4.565,18.796 3.810,17.426 3.302 C 16.397 2.920,14.906 2.612,13.641 2.519 C 13.169 2.484,10.542 2.476,10.240 2.508 M3.601 10.070 C 3.603 11.497,3.647 12.298,3.736 12.550 C 3.769 12.644,3.855 12.806,3.927 12.910 C 4.114 13.182,4.702 13.757,4.998 13.959 C 5.595 14.364,6.760 14.818,7.975 15.120 C 8.980 15.369,9.678 15.476,10.620 15.525 C 11.686 15.581,13.583 15.547,14.200 15.462 C 16.076 15.202,17.819 14.684,18.768 14.105 C 19.301 13.780,20.006 13.099,20.196 12.729 C 20.332 12.461,20.361 12.130,20.387 10.524 C 20.409 9.176,20.405 8.952,20.357 8.967 C 20.325 8.977,20.214 9.110,20.109 9.263 C 19.461 10.201,18.370 10.870,16.689 11.362 C 13.635 12.255,9.654 12.188,6.769 11.194 C 5.192 10.651,4.299 10.017,3.781 9.070 C 3.699 8.921,3.625 8.800,3.616 8.800 C 3.607 8.800,3.601 9.371,3.601 10.070 M20.147 15.170 C 19.670 15.935,18.892 16.536,17.828 16.960 C 16.719 17.403,15.129 17.786,13.840 17.919 C 13.354 17.970,11.525 17.970,10.538 17.920 C 8.684 17.827,6.343 17.199,5.200 16.489 C 4.836 16.263,4.189 15.649,3.886 15.241 L 3.663 14.942 3.628 15.101 C 3.578 15.326,3.622 18.044,3.680 18.340 C 3.758 18.736,3.906 18.987,4.281 19.362 C 4.664 19.745,5.194 20.117,5.694 20.355 C 6.704 20.835,8.541 21.342,9.760 21.478 C 10.377 21.547,13.179 21.579,13.760 21.524 C 15.721 21.337,17.883 20.696,18.940 19.988 C 19.578 19.561,20.023 19.101,20.226 18.659 C 20.323 18.447,20.334 18.368,20.364 17.664 C 20.408 16.618,20.408 14.880,20.364 14.880 C 20.344 14.880,20.247 15.011,20.147 15.170 " fill="#373B4D" stroke="none" fill-rule="evenodd"></path></svg>