<svg width="24" height="24" viewBox="0 0 24 24" fill="none" xmlns="http://www.w3.org/2000/svg"><path d="M9.840 2.584 C 8.244 2.775,6.552 3.237,5.640 3.731 C 4.869 4.148,4.171 4.752,3.888 5.246 C 3.696 5.581,3.617 5.942,3.674 6.223 C 3.754 6.625,3.945 6.946,4.339 7.345 C 5.039 8.054,6.070 8.585,7.580 9.015 C 8.895 9.390,10.259 9.560,11.940 9.559 C 13.801 9.558,15.021 9.398,16.580 8.951 C 18.399 8.430,19.585 7.693,20.159 6.727 L 20.328 6.441 20.314 5.971 C 20.298 5.437,20.265 5.352,19.901 4.929 C 18.777 3.621,16.427 2.738,13.600 2.561 C 12.655 2.503,10.405 2.516,9.840 2.584 M3.614 10.320 C 3.639 12.020,3.669 12.355,3.828 12.680 C 3.954 12.940,4.691 13.716,5.065 13.985 C 5.866 14.558,8.206 15.270,9.940 15.468 C 10.700 15.555,13.219 15.567,13.900 15.488 C 14.983 15.361,16.158 15.106,17.167 14.777 C 18.357 14.389,18.945 14.055,19.630 13.377 C 20.318 12.695,20.350 12.570,20.388 10.430 C 20.408 9.312,20.403 9.080,20.358 9.080 C 20.329 9.080,20.096 9.290,19.842 9.547 C 19.064 10.334,18.762 10.549,17.952 10.894 C 16.449 11.536,14.565 11.908,12.440 11.983 C 9.889 12.072,6.891 11.461,5.285 10.523 C 4.686 10.173,4.299 9.797,3.800 9.080 L 3.592 8.780 3.614 10.320 M3.617 15.100 C 3.577 15.316,3.630 17.916,3.682 18.234 C 3.705 18.374,3.770 18.581,3.827 18.694 C 4.148 19.333,4.990 20.031,5.948 20.452 C 6.597 20.738,8.252 21.226,9.080 21.376 C 9.656 21.480,10.287 21.522,11.640 21.547 C 13.425 21.580,14.250 21.513,15.520 21.235 C 16.606 20.997,17.666 20.647,18.362 20.298 C 19.320 19.818,20.154 19.004,20.279 18.428 C 20.412 17.818,20.444 15.000,20.318 15.000 C 20.301 15.000,20.134 15.184,19.947 15.410 C 19.217 16.289,18.541 16.720,17.200 17.163 C 16.423 17.419,15.625 17.624,14.780 17.783 C 14.002 17.929,12.947 17.970,11.200 17.922 C 10.012 17.889,9.739 17.869,9.240 17.781 C 7.999 17.563,6.484 17.126,5.780 16.783 C 5.118 16.460,4.424 15.881,3.812 15.140 L 3.647 14.940 3.617 15.100 " fill="#373B4D" stroke="none" fill-rule="evenodd"></path></svg>