<svg width="24" height="24" viewBox="0 0 24 24" fill="none" xmlns="http://www.w3.org/2000/svg"><path d="M9.761 2.623 C 8.778 2.730,7.563 2.994,6.740 3.280 C 6.273 3.442,5.500 3.821,5.120 4.074 C 3.789 4.961,3.364 5.935,3.927 6.806 C 4.139 7.134,4.683 7.665,5.072 7.922 C 6.151 8.637,7.909 9.208,9.737 9.438 C 10.915 9.586,13.266 9.577,14.360 9.420 C 16.361 9.134,18.240 8.482,19.200 7.739 C 19.518 7.493,19.963 7.020,20.154 6.724 C 20.303 6.494,20.320 6.442,20.319 6.224 C 20.318 5.856,20.256 5.498,20.158 5.296 C 20.110 5.197,19.924 4.972,19.745 4.797 C 18.481 3.556,16.417 2.797,13.780 2.602 C 12.978 2.542,10.375 2.556,9.761 2.623 M3.601 9.690 C 3.602 10.857,3.666 12.088,3.741 12.380 C 3.775 12.512,3.870 12.718,3.951 12.838 C 4.135 13.108,4.695 13.676,5.031 13.933 C 5.749 14.485,7.851 15.163,9.640 15.421 C 10.589 15.559,13.331 15.559,14.360 15.422 C 15.008 15.336,15.833 15.161,16.560 14.955 C 18.085 14.525,18.944 14.064,19.714 13.262 C 20.300 12.651,20.357 12.406,20.367 10.470 C 20.370 9.771,20.362 9.189,20.348 9.175 C 20.308 9.135,20.175 9.240,19.660 9.718 C 19.048 10.287,18.782 10.488,18.360 10.700 C 17.343 11.209,15.836 11.623,14.120 11.863 C 13.395 11.965,10.955 11.989,10.200 11.902 C 8.277 11.680,6.207 11.091,5.248 10.494 C 4.865 10.255,4.277 9.691,3.914 9.215 C 3.757 9.009,3.622 8.840,3.614 8.840 C 3.606 8.840,3.600 9.223,3.601 9.690 M3.616 15.101 C 3.578 15.253,3.629 17.710,3.677 18.063 C 3.755 18.627,3.891 18.887,4.351 19.345 C 5.174 20.165,6.217 20.660,8.178 21.161 C 9.179 21.416,9.648 21.474,11.094 21.520 C 13.528 21.598,14.915 21.456,16.560 20.961 C 18.056 20.510,18.970 20.035,19.645 19.357 C 20.087 18.913,20.257 18.588,20.323 18.060 C 20.374 17.652,20.391 15.269,20.344 15.127 C 20.315 15.041,20.272 15.075,19.766 15.587 C 19.157 16.205,18.795 16.474,18.186 16.761 C 17.323 17.168,15.663 17.643,14.480 17.821 C 13.248 18.006,10.433 17.982,9.220 17.777 C 8.336 17.627,6.997 17.256,6.194 16.939 C 5.432 16.639,4.881 16.251,4.132 15.487 C 3.653 14.999,3.644 14.992,3.616 15.101 " fill="#373B4D" stroke="none" fill-rule="evenodd"></path></svg>