<svg width="24" height="24" viewBox="0 0 24 24" fill="none" xmlns="http://www.w3.org/2000/svg"><path d="M11.120 2.428 C 10.139 2.467,8.772 2.662,7.810 2.900 C 4.153 3.802,2.633 5.740,4.285 7.396 C 5.736 8.852,9.312 9.756,12.870 9.568 C 14.364 9.489,15.599 9.294,16.733 8.959 C 18.868 8.329,20.157 7.361,20.364 6.231 C 20.541 5.269,19.648 4.230,18.028 3.513 C 16.238 2.721,13.709 2.324,11.120 2.428 M3.612 10.500 C 3.622 12.234,3.626 12.308,3.709 12.530 C 3.832 12.856,4.032 13.139,4.368 13.466 C 5.453 14.518,7.574 15.250,10.340 15.526 C 11.106 15.603,13.061 15.591,13.860 15.504 C 16.011 15.270,17.887 14.710,19.040 13.955 C 19.445 13.690,20.043 13.071,20.194 12.760 C 20.380 12.376,20.405 12.072,20.392 10.323 L 20.380 8.786 20.207 9.135 C 19.421 10.721,16.363 11.871,12.640 11.980 C 9.083 12.085,5.904 11.291,4.389 9.921 C 4.094 9.654,3.827 9.279,3.701 8.955 L 3.601 8.700 3.612 10.500 M20.290 14.933 C 19.776 16.266,17.816 17.296,14.880 17.776 C 14.055 17.911,13.618 17.951,12.640 17.980 C 9.507 18.074,6.620 17.459,4.938 16.340 C 4.504 16.051,3.984 15.501,3.794 15.131 C 3.713 14.974,3.637 14.857,3.624 14.870 C 3.588 14.905,3.600 17.854,3.637 18.209 C 3.676 18.584,3.806 18.860,4.119 19.232 C 5.046 20.336,7.182 21.163,9.989 21.503 C 10.765 21.598,13.228 21.598,14.000 21.505 C 16.603 21.189,18.696 20.430,19.682 19.442 C 19.957 19.167,20.232 18.767,20.312 18.524 C 20.362 18.375,20.376 18.027,20.390 16.700 C 20.399 15.798,20.400 14.979,20.393 14.880 L 20.380 14.700 20.290 14.933 " fill="#373B4D" stroke="none" fill-rule="evenodd"></path></svg>