<svg width="24" height="24" viewBox="0 0 24 24" fill="none" xmlns="http://www.w3.org/2000/svg"><path d="M10.500 2.558 C 9.316 2.617,7.934 2.876,6.838 3.243 C 5.387 3.729,4.206 4.580,3.811 5.423 C 3.715 5.627,3.700 5.710,3.700 6.021 C 3.700 6.350,3.712 6.406,3.836 6.661 C 4.013 7.023,4.596 7.616,5.091 7.938 C 6.286 8.715,8.102 9.274,10.120 9.487 C 10.889 9.568,13.220 9.555,13.980 9.466 C 16.008 9.227,17.861 8.646,18.987 7.896 C 19.401 7.621,19.884 7.146,20.120 6.781 L 20.300 6.503 20.300 6.062 C 20.300 5.391,20.177 5.159,19.508 4.565 C 18.294 3.487,16.338 2.802,13.905 2.602 C 13.202 2.544,11.281 2.520,10.500 2.558 M3.613 10.220 C 3.638 11.830,3.680 12.323,3.817 12.620 C 3.999 13.015,4.820 13.842,5.320 14.136 C 6.033 14.554,7.819 15.118,9.121 15.336 C 10.078 15.496,10.655 15.536,12.040 15.535 C 13.799 15.535,14.775 15.423,16.185 15.058 C 17.902 14.614,18.829 14.158,19.628 13.366 C 20.129 12.869,20.243 12.644,20.324 11.992 C 20.384 11.517,20.396 9.153,20.339 9.133 C 20.317 9.126,20.040 9.362,19.724 9.659 C 19.012 10.327,18.829 10.469,18.400 10.683 C 17.216 11.272,15.558 11.705,13.720 11.903 C 13.025 11.978,11.041 11.990,10.380 11.923 C 8.455 11.729,6.358 11.153,5.292 10.526 C 4.833 10.256,4.230 9.672,3.819 9.100 L 3.589 8.780 3.613 10.220 M3.626 15.047 C 3.590 15.183,3.597 16.622,3.639 17.500 C 3.690 18.553,3.778 18.782,4.359 19.361 C 5.198 20.198,6.227 20.675,8.320 21.200 C 9.250 21.433,9.636 21.479,11.020 21.519 C 13.020 21.577,14.298 21.506,15.320 21.281 C 17.727 20.750,19.257 19.995,19.978 18.985 C 20.279 18.563,20.326 18.358,20.364 17.300 C 20.398 16.361,20.371 15.040,20.318 15.040 C 20.302 15.040,20.104 15.239,19.878 15.482 C 19.069 16.353,18.489 16.716,17.240 17.136 C 16.094 17.520,14.934 17.787,14.020 17.877 C 12.967 17.980,10.740 17.960,9.660 17.838 C 8.547 17.712,6.678 17.195,5.781 16.765 C 5.165 16.470,4.414 15.854,3.831 15.167 C 3.662 14.966,3.649 14.959,3.626 15.047 " fill="#373B4D" stroke="none" fill-rule="evenodd"></path></svg>