<svg width="24" height="24" viewBox="0 0 24 24" fill="none" xmlns="http://www.w3.org/2000/svg"><path d="M10.185 3.182 C 8.824 3.470,7.355 4.171,6.340 5.018 C 4.915 6.206,4.007 7.515,3.461 9.167 C 3.090 10.292,2.970 11.147,3.012 12.380 C 3.046 13.370,3.199 14.133,3.567 15.136 C 4.019 16.369,4.665 17.382,5.600 18.324 C 7.432 20.169,9.754 21.079,12.400 20.987 C 14.592 20.912,16.721 19.986,18.296 18.425 C 19.066 17.662,19.620 16.891,20.081 15.940 C 20.505 15.064,20.797 14.131,20.920 13.260 C 20.993 12.739,21.017 11.511,20.963 11.040 C 20.786 9.482,20.121 7.808,19.201 6.601 C 18.314 5.439,17.256 4.579,15.902 3.919 C 15.207 3.580,14.647 3.375,13.971 3.213 C 13.557 3.114,13.485 3.109,12.100 3.095 C 10.687 3.081,10.651 3.083,10.185 3.182 M11.413 4.770 C 11.428 5.304,11.469 6.437,11.504 7.289 C 11.540 8.141,11.558 8.868,11.544 8.904 C 11.489 9.047,11.408 8.878,11.383 8.568 C 11.341 8.048,11.242 5.835,11.214 4.790 L 11.187 3.800 11.287 3.800 L 11.387 3.800 11.413 4.770 M13.445 3.946 C 13.490 4.000,13.500 4.310,13.500 5.583 C 13.500 6.447,13.487 7.167,13.470 7.183 C 13.454 7.200,13.429 7.202,13.415 7.189 C 13.375 7.149,13.329 6.305,13.298 5.050 C 13.273 4.022,13.277 3.880,13.330 3.880 C 13.363 3.880,13.415 3.910,13.445 3.946 M8.375 4.750 C 8.407 4.857,8.472 5.517,8.558 6.620 C 8.674 8.111,8.699 8.703,8.647 8.736 C 8.621 8.752,8.594 8.726,8.581 8.672 C 8.542 8.501,8.280 5.179,8.280 4.850 C 8.280 4.679,8.337 4.620,8.375 4.750 M14.521 5.183 C 14.542 5.239,14.560 5.541,14.559 5.853 C 14.559 6.378,14.527 6.580,14.455 6.509 C 14.416 6.470,14.341 5.228,14.372 5.145 C 14.409 5.049,14.477 5.066,14.521 5.183 M10.359 5.210 C 10.418 5.351,10.489 7.207,10.437 7.258 C 10.357 7.337,10.292 7.168,10.266 6.810 C 10.217 6.140,10.188 5.248,10.213 5.184 C 10.248 5.093,10.315 5.105,10.359 5.210 M16.606 5.803 C 16.683 6.441,16.605 7.321,16.505 6.950 C 16.463 6.796,16.427 5.862,16.456 5.705 C 16.496 5.492,16.575 5.544,16.606 5.803 M12.446 5.923 C 12.489 6.126,12.574 7.625,12.548 7.694 C 12.526 7.751,12.361 7.744,12.359 7.685 C 12.359 7.671,12.341 7.249,12.319 6.746 C 12.298 6.244,12.290 5.815,12.304 5.794 C 12.348 5.722,12.418 5.785,12.446 5.923 M17.620 8.649 C 17.650 10.768,17.616 12.474,17.557 11.860 C 17.513 11.405,17.465 6.056,17.504 5.995 C 17.566 5.899,17.590 6.428,17.620 8.649 M9.509 7.029 C 9.532 7.525,9.502 7.838,9.438 7.774 C 9.392 7.728,9.300 6.589,9.336 6.496 C 9.360 6.433,9.369 6.432,9.425 6.488 C 9.471 6.534,9.493 6.672,9.509 7.029 M15.574 6.570 C 15.587 6.641,15.609 7.051,15.624 7.480 C 15.654 8.347,15.604 10.123,15.558 9.860 C 15.508 9.583,15.465 6.440,15.510 6.440 C 15.533 6.440,15.561 6.498,15.574 6.570 M5.859 7.413 C 5.925 8.048,5.941 8.980,5.883 8.880 C 5.836 8.800,5.735 8.101,5.677 7.460 C 5.641 7.060,5.641 6.912,5.678 6.820 C 5.752 6.632,5.789 6.753,5.859 7.413 M14.583 7.671 C 14.598 7.815,14.592 8.084,14.570 8.269 C 14.531 8.594,14.505 8.678,14.457 8.630 C 14.421 8.595,14.385 7.417,14.417 7.334 C 14.445 7.262,14.447 7.262,14.500 7.334 C 14.530 7.374,14.567 7.526,14.583 7.671 M6.755 7.760 C 6.806 8.121,6.911 9.303,6.956 10.020 C 7.000 10.729,6.929 10.926,6.842 10.336 C 6.743 9.664,6.579 7.466,6.623 7.395 C 6.668 7.322,6.708 7.432,6.755 7.760 M5.080 7.765 C 5.080 7.789,5.197 8.883,5.340 10.195 C 5.675 13.282,5.751 14.074,5.698 13.940 C 5.675 13.884,5.352 11.462,5.164 9.937 C 4.989 8.519,4.938 7.933,4.978 7.805 C 5.007 7.716,5.080 7.687,5.080 7.765 M4.436 9.290 C 4.507 9.647,4.720 11.413,4.720 11.646 C 4.720 12.004,4.442 10.300,4.342 9.330 C 4.310 9.021,4.377 8.993,4.436 9.290 M16.642 9.705 C 16.661 9.988,16.678 10.400,16.678 10.620 C 16.680 11.268,16.611 11.643,16.547 11.327 C 16.509 11.133,16.467 9.423,16.497 9.262 C 16.548 8.991,16.605 9.166,16.642 9.705 M12.280 9.638 C 13.042 9.828,13.695 10.273,14.320 11.028 C 15.057 11.918,15.348 12.860,15.577 15.100 C 15.738 16.675,15.861 18.680,15.820 19.068 L 15.794 19.316 15.287 19.515 C 14.228 19.931,13.283 20.133,12.151 20.187 L 11.602 20.212 11.626 18.516 C 11.652 16.697,11.618 15.853,11.479 14.866 C 11.436 14.556,11.400 14.300,11.400 14.297 C 11.400 14.294,11.561 14.225,11.757 14.143 C 12.150 13.981,12.440 13.792,12.440 13.700 C 12.440 13.668,12.388 13.583,12.325 13.512 L 12.209 13.383 11.495 13.610 C 10.240 14.009,10.212 14.014,9.280 14.014 C 8.490 14.015,8.448 14.011,8.144 13.906 C 7.611 13.722,7.238 13.519,6.993 13.281 C 6.711 13.006,6.660 12.846,6.695 12.346 C 6.723 11.941,6.796 11.748,7.059 11.379 C 7.613 10.603,9.001 9.800,10.173 9.577 C 10.616 9.492,11.839 9.528,12.280 9.638 M18.706 9.791 C 18.734 9.899,18.651 11.604,18.614 11.700 C 18.594 11.753,18.582 11.756,18.555 11.713 C 18.514 11.649,18.508 9.625,18.549 9.584 C 18.585 9.549,18.675 9.668,18.706 9.791 M7.843 10.664 C 7.690 10.792,7.689 10.855,7.837 11.003 C 7.981 11.148,8.056 11.150,8.182 11.014 C 8.306 10.880,8.306 10.782,8.182 10.658 C 8.057 10.534,7.996 10.535,7.843 10.664 M9.371 10.839 C 9.248 10.953,9.227 11.059,9.300 11.200 C 9.386 11.366,9.529 11.430,9.658 11.361 C 9.775 11.298,9.857 11.117,9.821 11.002 C 9.783 10.883,9.640 10.760,9.540 10.760 C 9.493 10.760,9.417 10.795,9.371 10.839 M19.635 11.680 C 19.641 12.762,19.563 15.253,19.523 15.293 C 19.502 15.314,19.475 15.218,19.458 15.058 C 19.420 14.702,19.494 10.914,19.541 10.839 C 19.607 10.732,19.632 10.955,19.635 11.680 M6.262 11.454 C 6.229 11.660,6.194 11.714,6.156 11.617 C 6.118 11.520,6.111 11.262,6.146 11.227 C 6.161 11.213,6.199 11.222,6.230 11.248 C 6.271 11.283,6.280 11.341,6.262 11.454 M5.039 13.883 C 5.106 14.367,5.158 14.813,5.156 14.872 C 5.150 15.021,4.845 13.014,4.847 12.840 L 4.848 12.700 4.883 12.850 C 4.903 12.933,4.973 13.398,5.039 13.883 M6.505 14.071 C 6.518 14.296,6.512 14.399,6.488 14.360 C 6.449 14.298,6.359 13.745,6.362 13.588 C 6.363 13.507,6.368 13.509,6.424 13.611 C 6.458 13.675,6.493 13.874,6.505 14.071 M8.296 14.650 C 8.340 14.937,8.348 15.104,8.321 15.179 C 8.293 15.258,8.292 15.258,8.251 15.179 C 8.198 15.079,8.144 14.618,8.179 14.562 C 8.227 14.483,8.276 14.520,8.296 14.650 M10.094 15.820 C 10.110 16.177,10.107 16.238,10.081 16.060 C 10.062 15.928,10.037 15.595,10.026 15.320 C 10.010 14.945,10.013 14.885,10.039 15.080 C 10.058 15.223,10.083 15.556,10.094 15.820 M5.188 15.149 C 5.178 15.188,5.169 15.166,5.168 15.100 C 5.167 15.034,5.175 15.002,5.186 15.029 C 5.197 15.056,5.198 15.110,5.188 15.149 M18.600 16.000 C 18.600 16.462,18.584 16.840,18.565 16.840 C 18.545 16.840,18.517 16.651,18.501 16.420 C 18.469 15.956,18.510 15.160,18.565 15.160 C 18.584 15.160,18.600 15.538,18.600 16.000 M5.998 16.125 C 6.043 16.512,6.078 16.890,6.075 16.965 C 6.069 17.127,5.936 16.118,5.904 15.661 C 5.868 15.152,5.910 15.359,5.998 16.125 M9.398 16.957 C 9.451 17.471,9.451 17.815,9.398 17.700 C 9.353 17.602,9.240 16.514,9.270 16.465 C 9.314 16.393,9.357 16.557,9.398 16.957 M16.597 17.520 C 16.598 17.839,16.581 18.127,16.560 18.160 C 16.534 18.200,16.522 17.979,16.523 17.500 C 16.525 17.061,16.539 16.811,16.560 16.860 C 16.579 16.904,16.595 17.201,16.597 17.520 M7.680 17.924 C 7.705 18.175,7.720 18.470,7.713 18.580 C 7.702 18.748,7.692 18.713,7.651 18.360 C 7.624 18.129,7.592 17.796,7.580 17.620 C 7.548 17.142,7.623 17.375,7.680 17.924 M8.654 18.870 C 8.693 19.103,8.685 19.462,8.643 19.418 C 8.589 19.363,8.540 18.720,8.590 18.720 C 8.612 18.720,8.641 18.788,8.654 18.870 " fill="#373B4D" stroke="none" fill-rule="evenodd"></path></svg>