<svg width="24" height="24" viewBox="0 0 24 24" fill="none" xmlns="http://www.w3.org/2000/svg"><path d="M10.103 3.200 C 9.292 3.381,8.019 3.909,7.240 4.389 C 6.397 4.909,5.372 5.849,4.773 6.652 C 3.764 8.005,3.094 9.835,3.021 11.440 C 2.985 12.229,3.054 13.265,3.180 13.820 C 3.493 15.198,4.114 16.532,4.908 17.530 C 5.268 17.983,6.021 18.738,6.463 19.088 C 8.475 20.683,11.213 21.332,13.758 20.817 C 14.742 20.618,15.845 20.191,16.640 19.701 C 18.079 18.814,19.266 17.539,19.984 16.110 C 21.560 12.976,21.288 9.512,19.246 6.680 C 18.878 6.170,18.006 5.288,17.480 4.896 C 16.510 4.171,15.249 3.553,14.168 3.272 L 13.700 3.150 12.080 3.136 C 10.579 3.122,10.434 3.127,10.103 3.200 M11.400 4.312 C 11.400 4.863,11.456 6.564,11.521 7.973 C 11.561 8.846,11.537 9.123,11.448 8.836 C 11.425 8.761,11.395 8.574,11.382 8.420 C 11.355 8.096,11.256 5.846,11.216 4.630 L 11.189 3.800 11.294 3.800 L 11.400 3.800 11.400 4.312 M13.445 4.163 C 13.481 4.520,13.479 6.958,13.443 7.080 C 13.421 7.157,13.408 7.121,13.387 6.920 C 13.345 6.513,13.272 3.965,13.301 3.918 C 13.361 3.821,13.422 3.923,13.445 4.163 M8.376 4.830 C 8.412 5.013,8.475 5.683,8.557 6.780 C 8.684 8.465,8.692 8.628,8.647 8.656 C 8.625 8.669,8.596 8.631,8.584 8.570 C 8.548 8.393,8.411 6.718,8.299 5.090 C 8.283 4.854,8.288 4.720,8.314 4.720 C 8.336 4.720,8.364 4.769,8.376 4.830 M14.496 5.143 C 14.538 5.253,14.524 6.520,14.480 6.520 C 14.458 6.520,14.440 6.494,14.440 6.463 C 14.440 6.432,14.421 6.133,14.397 5.799 C 14.374 5.465,14.364 5.166,14.376 5.136 C 14.405 5.061,14.466 5.065,14.496 5.143 M10.407 5.964 C 10.448 6.784,10.439 7.196,10.381 7.210 C 10.359 7.216,10.329 7.148,10.314 7.060 C 10.268 6.789,10.189 5.248,10.217 5.175 C 10.241 5.112,10.248 5.111,10.307 5.169 C 10.357 5.220,10.378 5.384,10.407 5.964 M16.576 5.663 C 16.615 5.766,16.604 7.000,16.564 7.000 C 16.516 7.000,16.489 6.804,16.457 6.236 C 16.432 5.786,16.450 5.600,16.518 5.600 C 16.537 5.600,16.562 5.628,16.576 5.663 M12.416 5.870 C 12.441 5.950,12.504 6.658,12.542 7.290 C 12.567 7.701,12.564 7.720,12.488 7.720 C 12.444 7.720,12.397 7.690,12.383 7.653 C 12.334 7.526,12.304 5.800,12.351 5.800 C 12.375 5.800,12.404 5.832,12.416 5.870 M17.595 9.537 C 17.598 10.745,17.590 11.723,17.577 11.710 C 17.540 11.673,17.473 6.436,17.507 6.240 C 17.558 5.947,17.589 7.090,17.595 9.537 M9.490 6.874 C 9.533 7.259,9.498 7.822,9.438 7.714 C 9.398 7.643,9.322 6.567,9.351 6.487 C 9.394 6.370,9.451 6.529,9.490 6.874 M15.601 7.246 C 15.637 7.910,15.611 9.624,15.566 9.579 C 15.533 9.546,15.482 7.054,15.508 6.769 C 15.521 6.631,15.539 6.525,15.548 6.535 C 15.557 6.544,15.581 6.864,15.601 7.246 M5.836 7.365 C 5.909 8.156,5.933 8.824,5.888 8.780 C 5.789 8.684,5.626 6.994,5.698 6.814 C 5.726 6.745,5.730 6.745,5.761 6.825 C 5.779 6.872,5.813 7.115,5.836 7.365 M14.501 7.362 C 14.562 7.460,14.589 7.885,14.555 8.219 C 14.515 8.611,14.440 8.779,14.440 8.474 C 14.440 8.374,14.428 8.074,14.414 7.806 C 14.395 7.465,14.401 7.320,14.431 7.320 C 14.456 7.320,14.487 7.339,14.501 7.362 M6.818 8.456 C 6.955 9.933,6.992 10.688,6.922 10.618 C 6.820 10.515,6.582 7.646,6.665 7.513 C 6.709 7.442,6.743 7.657,6.818 8.456 M5.080 7.779 C 5.080 7.812,5.161 8.590,5.259 9.509 C 5.621 12.892,5.678 13.498,5.619 13.340 C 5.600 13.292,5.233 10.453,5.121 9.500 C 5.007 8.526,4.958 7.920,4.985 7.813 C 5.011 7.710,5.080 7.686,5.080 7.779 M4.562 10.270 C 4.627 10.783,4.678 11.260,4.676 11.331 L 4.672 11.460 4.639 11.320 C 4.574 11.049,4.360 9.496,4.363 9.319 C 4.368 8.964,4.441 9.317,4.562 10.270 M16.641 9.944 C 16.683 10.565,16.660 11.343,16.599 11.381 C 16.536 11.420,16.450 9.657,16.500 9.360 C 16.549 9.069,16.594 9.257,16.641 9.944 M11.646 9.579 C 12.560 9.631,13.270 9.960,13.980 10.664 C 14.601 11.279,14.993 11.993,15.240 12.961 C 15.477 13.886,15.800 17.159,15.800 18.627 L 15.800 19.314 15.386 19.474 C 14.238 19.918,13.276 20.127,12.126 20.186 L 11.610 20.212 11.630 18.516 C 11.654 16.523,11.621 15.873,11.424 14.417 C 11.408 14.297,11.416 14.289,11.745 14.141 C 12.149 13.959,12.440 13.773,12.440 13.697 C 12.440 13.666,12.388 13.584,12.325 13.513 L 12.211 13.385 11.475 13.610 C 11.071 13.735,10.632 13.869,10.500 13.908 C 10.299 13.968,10.109 13.980,9.320 13.980 C 8.437 13.980,8.363 13.974,8.100 13.885 C 7.511 13.687,7.002 13.347,6.797 13.016 C 6.718 12.887,6.712 12.834,6.727 12.407 C 6.743 11.967,6.752 11.925,6.882 11.682 C 7.032 11.401,7.329 11.059,7.654 10.792 C 7.767 10.699,7.825 10.663,7.782 10.713 C 7.710 10.797,7.708 10.812,7.767 10.907 C 7.801 10.964,7.878 11.040,7.937 11.075 C 8.043 11.138,8.048 11.137,8.163 11.009 C 8.227 10.938,8.280 10.854,8.280 10.824 C 8.280 10.793,8.218 10.714,8.142 10.647 L 8.004 10.526 8.192 10.408 C 8.711 10.082,9.318 9.804,9.795 9.673 C 10.116 9.585,10.722 9.524,11.060 9.545 C 11.170 9.552,11.433 9.567,11.646 9.579 M18.665 9.707 C 18.702 9.852,18.652 11.479,18.608 11.599 C 18.581 11.674,18.567 11.626,18.546 11.381 C 18.514 10.991,18.513 9.812,18.545 9.690 C 18.578 9.569,18.633 9.576,18.665 9.707 M9.385 10.843 C 9.309 10.903,9.280 10.963,9.280 11.058 C 9.280 11.369,9.605 11.485,9.760 11.230 C 9.866 11.057,9.861 11.015,9.723 10.877 C 9.584 10.738,9.526 10.732,9.385 10.843 M19.598 13.064 C 19.574 14.057,19.541 14.957,19.524 15.064 C 19.494 15.259,19.494 15.259,19.463 14.915 C 19.430 14.554,19.506 11.133,19.551 10.960 C 19.621 10.686,19.638 11.406,19.598 13.064 M6.240 11.462 C 6.240 11.560,6.223 11.640,6.202 11.640 C 6.153 11.640,6.103 11.381,6.135 11.298 C 6.179 11.185,6.240 11.281,6.240 11.462 M4.866 12.930 C 4.855 12.957,4.846 12.935,4.846 12.880 C 4.846 12.825,4.855 12.803,4.866 12.830 C 4.878 12.857,4.878 12.902,4.866 12.930 M4.998 13.633 C 5.043 13.948,5.078 14.245,5.075 14.293 C 5.070 14.399,4.886 13.220,4.886 13.080 C 4.886 12.908,4.913 13.041,4.998 13.633 M5.666 13.570 C 5.655 13.598,5.646 13.575,5.646 13.520 C 5.646 13.465,5.655 13.443,5.666 13.470 C 5.678 13.498,5.678 13.543,5.666 13.570 M6.481 13.924 C 6.526 14.230,6.529 14.343,6.494 14.307 C 6.465 14.278,6.364 13.785,6.361 13.662 C 6.358 13.487,6.446 13.680,6.481 13.924 M5.107 14.488 C 5.095 14.519,5.085 14.510,5.083 14.463 C 5.081 14.421,5.091 14.398,5.104 14.411 C 5.117 14.424,5.119 14.459,5.107 14.488 M8.307 14.931 C 8.325 15.148,8.319 15.209,8.284 15.177 C 8.227 15.124,8.147 14.651,8.181 14.564 C 8.225 14.449,8.283 14.617,8.307 14.931 M18.594 16.000 C 18.594 16.630,18.545 16.857,18.510 16.390 C 18.481 16.007,18.520 15.270,18.564 15.381 C 18.581 15.425,18.594 15.703,18.594 16.000 M5.988 16.250 C 5.979 16.299,5.971 16.268,5.970 16.180 C 5.970 16.092,5.977 16.051,5.987 16.090 C 5.997 16.128,5.998 16.200,5.988 16.250 M9.396 17.032 C 9.445 17.494,9.452 17.705,9.415 17.669 C 9.383 17.637,9.282 16.867,9.282 16.660 C 9.283 16.378,9.349 16.593,9.396 17.032 M16.597 17.560 C 16.598 17.747,16.581 17.927,16.560 17.960 C 16.534 18.000,16.522 17.864,16.523 17.540 C 16.525 17.235,16.538 17.089,16.560 17.140 C 16.579 17.184,16.595 17.373,16.597 17.560 M7.692 18.260 C 7.707 18.508,7.704 18.564,7.681 18.440 C 7.663 18.341,7.638 18.098,7.626 17.900 C 7.610 17.652,7.614 17.596,7.637 17.720 C 7.655 17.819,7.680 18.062,7.692 18.260 M8.663 19.100 C 8.681 19.289,8.677 19.367,8.649 19.340 C 8.627 19.318,8.596 19.174,8.581 19.020 C 8.562 18.827,8.566 18.752,8.594 18.780 C 8.617 18.802,8.648 18.946,8.663 19.100 " fill="#373B4D" stroke="none" fill-rule="evenodd"></path></svg>