<svg width="24" height="24" viewBox="0 0 24 24" fill="none" xmlns="http://www.w3.org/2000/svg"><path d="M10.560 3.119 C 9.367 3.270,7.688 3.995,6.555 4.849 C 6.137 5.163,5.431 5.844,5.050 6.297 C 4.047 7.492,3.350 9.061,3.074 10.740 C 2.992 11.239,3.004 12.832,3.094 13.375 C 3.339 14.852,4.014 16.417,4.866 17.486 C 6.626 19.694,8.939 20.875,11.718 20.987 C 13.148 21.045,14.634 20.727,15.950 20.081 C 17.876 19.135,19.423 17.509,20.251 15.560 C 20.820 14.221,21.037 13.047,20.988 11.580 C 20.927 9.768,20.222 7.895,19.038 6.399 C 18.702 5.976,17.927 5.220,17.494 4.895 C 16.413 4.083,14.892 3.380,13.783 3.182 C 13.404 3.115,10.972 3.067,10.560 3.119 M11.400 4.259 C 11.400 4.692,11.489 7.297,11.541 8.406 C 11.557 8.745,11.551 8.921,11.522 8.939 C 11.462 8.976,11.414 8.824,11.384 8.500 C 11.351 8.136,11.250 5.872,11.215 4.710 L 11.188 3.800 11.294 3.800 L 11.400 3.800 11.400 4.259 M13.439 3.957 C 13.490 4.053,13.496 7.200,13.446 7.200 C 13.427 7.200,13.400 7.105,13.386 6.990 C 13.347 6.656,13.266 4.015,13.293 3.944 C 13.326 3.858,13.388 3.863,13.439 3.957 M8.457 5.489 C 8.524 6.210,8.621 7.488,8.662 8.205 C 8.680 8.523,8.675 8.678,8.646 8.697 C 8.581 8.736,8.569 8.650,8.461 7.320 C 8.312 5.477,8.270 4.804,8.300 4.729 C 8.351 4.602,8.394 4.807,8.457 5.489 M14.509 5.190 C 14.526 5.250,14.540 5.564,14.540 5.887 C 14.540 6.416,14.520 6.573,14.460 6.513 C 14.427 6.480,14.347 5.211,14.373 5.143 C 14.411 5.046,14.475 5.068,14.509 5.190 M10.369 5.283 C 10.422 5.517,10.458 7.280,10.410 7.280 C 10.387 7.280,10.348 7.223,10.324 7.153 C 10.272 7.004,10.176 5.280,10.214 5.181 C 10.254 5.077,10.334 5.130,10.369 5.283 M16.589 5.710 C 16.630 5.860,16.628 6.881,16.586 6.980 C 16.552 7.059,16.552 7.059,16.520 6.978 C 16.476 6.863,16.424 5.793,16.458 5.687 C 16.496 5.568,16.552 5.578,16.589 5.710 M12.478 6.302 C 12.497 6.543,12.526 6.960,12.540 7.230 L 12.567 7.720 12.470 7.720 C 12.374 7.720,12.372 7.713,12.346 7.270 C 12.332 7.022,12.320 6.578,12.320 6.281 C 12.320 5.799,12.326 5.749,12.381 5.804 C 12.423 5.845,12.453 6.003,12.478 6.302 M17.605 8.125 C 17.647 10.206,17.615 12.501,17.557 11.540 C 17.517 10.882,17.470 6.191,17.502 6.108 C 17.517 6.069,17.538 6.044,17.547 6.053 C 17.556 6.063,17.582 6.995,17.605 8.125 M9.485 6.750 C 9.543 7.217,9.508 7.863,9.431 7.737 C 9.393 7.675,9.311 6.527,9.341 6.478 C 9.393 6.394,9.455 6.512,9.485 6.750 M15.618 7.436 C 15.649 8.226,15.603 9.927,15.558 9.660 C 15.517 9.423,15.472 6.763,15.506 6.600 L 15.535 6.460 15.562 6.587 C 15.577 6.657,15.602 7.039,15.618 7.436 M5.779 6.850 C 5.867 7.242,5.960 8.954,5.886 8.840 C 5.802 8.709,5.621 7.122,5.665 6.890 C 5.693 6.740,5.749 6.720,5.779 6.850 M14.565 7.591 C 14.595 7.764,14.596 7.949,14.566 8.223 C 14.526 8.587,14.504 8.677,14.462 8.636 C 14.431 8.604,14.388 7.410,14.416 7.337 C 14.459 7.223,14.517 7.322,14.565 7.591 M6.757 7.821 C 6.827 8.346,6.959 9.996,6.960 10.352 C 6.960 10.538,6.944 10.675,6.924 10.663 C 6.848 10.616,6.690 9.064,6.656 8.040 C 6.633 7.335,6.678 7.237,6.757 7.821 M5.080 7.774 C 5.080 7.803,5.170 8.654,5.279 9.664 C 5.816 14.616,5.810 15.000,5.264 10.680 C 4.951 8.206,4.914 7.720,5.041 7.720 C 5.062 7.720,5.080 7.744,5.080 7.774 M4.437 9.330 C 4.486 9.571,4.663 11.002,4.696 11.420 L 4.718 11.700 4.658 11.440 C 4.601 11.194,4.392 9.783,4.345 9.330 C 4.334 9.215,4.340 9.120,4.359 9.120 C 4.378 9.120,4.413 9.215,4.437 9.330 M16.645 9.862 C 16.691 10.516,16.669 11.347,16.605 11.411 C 16.552 11.464,16.526 11.179,16.497 10.237 C 16.471 9.430,16.491 9.115,16.564 9.188 C 16.584 9.208,16.620 9.511,16.645 9.862 M11.590 9.562 C 12.460 9.624,12.982 9.823,13.622 10.335 C 14.501 11.040,15.041 11.961,15.301 13.200 C 15.550 14.392,15.892 18.323,15.813 19.089 L 15.789 19.318 15.384 19.475 C 14.218 19.928,13.291 20.131,12.147 20.186 L 11.605 20.212 11.628 18.516 C 11.652 16.705,11.618 15.860,11.478 14.863 C 11.436 14.557,11.405 14.301,11.411 14.295 C 11.417 14.289,11.571 14.221,11.753 14.143 C 12.133 13.980,12.440 13.782,12.440 13.699 C 12.440 13.667,12.388 13.583,12.325 13.513 L 12.210 13.384 11.355 13.650 C 10.885 13.796,10.405 13.934,10.288 13.958 C 10.171 13.981,9.707 14.000,9.255 14.000 C 8.485 14.000,8.416 13.994,8.135 13.900 C 7.495 13.685,6.997 13.365,6.812 13.050 C 6.711 12.878,6.700 12.826,6.704 12.500 C 6.706 12.302,6.730 12.059,6.758 11.960 C 6.939 11.309,7.739 10.575,8.850 10.039 C 9.812 9.576,10.390 9.476,11.590 9.562 M18.677 9.713 C 18.712 9.798,18.713 10.040,18.680 10.703 C 18.633 11.650,18.605 11.847,18.555 11.580 C 18.519 11.388,18.510 9.753,18.544 9.663 C 18.580 9.570,18.625 9.586,18.677 9.713 M7.838 10.677 C 7.704 10.791,7.702 10.797,7.761 10.906 C 7.795 10.968,7.870 11.045,7.929 11.078 C 8.031 11.135,8.043 11.133,8.158 11.022 C 8.308 10.878,8.312 10.786,8.174 10.658 C 8.039 10.533,8.007 10.535,7.838 10.677 M9.409 10.822 C 9.261 10.926,9.231 11.021,9.297 11.179 C 9.376 11.369,9.521 11.435,9.660 11.344 C 9.779 11.266,9.853 11.103,9.819 10.996 C 9.792 10.913,9.614 10.760,9.544 10.760 C 9.518 10.760,9.458 10.788,9.409 10.822 M19.623 11.150 C 19.657 11.515,19.572 15.013,19.524 15.183 C 19.458 15.420,19.430 14.769,19.455 13.587 C 19.498 11.632,19.529 10.840,19.562 10.840 C 19.579 10.840,19.606 10.979,19.623 11.150 M6.248 11.440 C 6.242 11.537,6.227 11.626,6.216 11.637 C 6.175 11.678,6.121 11.537,6.121 11.387 C 6.120 11.262,6.133 11.237,6.190 11.249 C 6.246 11.260,6.258 11.298,6.248 11.440 M5.002 13.646 C 5.109 14.394,5.139 14.683,5.098 14.580 C 5.082 14.540,4.840 12.894,4.840 12.823 C 4.840 12.803,4.850 12.797,4.862 12.809 C 4.875 12.821,4.937 13.198,5.002 13.646 M6.481 13.884 C 6.558 14.416,6.506 14.533,6.416 14.031 C 6.350 13.660,6.346 13.530,6.402 13.586 C 6.425 13.609,6.461 13.744,6.481 13.884 M5.706 13.850 C 5.695 13.877,5.686 13.855,5.686 13.800 C 5.686 13.745,5.695 13.723,5.706 13.750 C 5.718 13.777,5.718 13.822,5.706 13.850 M8.314 14.932 C 8.324 15.176,8.316 15.249,8.282 15.216 C 8.226 15.162,8.144 14.659,8.178 14.571 C 8.232 14.430,8.300 14.609,8.314 14.932 M18.599 16.000 C 18.599 16.745,18.547 16.965,18.504 16.400 C 18.472 15.978,18.515 15.207,18.565 15.287 C 18.584 15.316,18.599 15.637,18.599 16.000 M10.069 15.690 C 10.060 15.762,10.053 15.703,10.053 15.560 C 10.053 15.417,10.060 15.358,10.069 15.430 C 10.078 15.502,10.078 15.618,10.069 15.690 M6.031 16.560 C 6.030 16.637,6.006 16.529,5.978 16.320 C 5.950 16.111,5.928 15.877,5.929 15.800 C 5.930 15.723,5.954 15.831,5.982 16.040 C 6.010 16.249,6.032 16.483,6.031 16.560 M9.396 16.992 C 9.445 17.448,9.453 17.746,9.415 17.709 C 9.380 17.674,9.282 16.898,9.282 16.660 C 9.283 16.343,9.346 16.527,9.396 16.992 M6.067 16.848 C 6.055 16.879,6.045 16.870,6.043 16.823 C 6.041 16.781,6.051 16.758,6.064 16.771 C 6.077 16.784,6.079 16.819,6.067 16.848 M16.597 17.540 C 16.598 17.782,16.581 18.007,16.560 18.040 C 16.534 18.080,16.522 17.908,16.523 17.520 C 16.525 17.159,16.539 16.970,16.560 17.020 C 16.579 17.064,16.595 17.298,16.597 17.540 M7.677 17.961 C 7.700 18.213,7.720 18.472,7.720 18.537 C 7.720 18.763,7.686 18.615,7.643 18.200 C 7.560 17.414,7.558 17.377,7.597 17.441 C 7.617 17.474,7.653 17.708,7.677 17.961 M8.670 19.108 C 8.696 19.527,8.617 19.452,8.579 19.020 C 8.557 18.764,8.561 18.710,8.601 18.748 C 8.630 18.775,8.660 18.933,8.670 19.108 " fill="#373B4D" stroke="none" fill-rule="evenodd"></path></svg>