<svg width="24" height="24" viewBox="0 0 24 24" fill="none" xmlns="http://www.w3.org/2000/svg"><path d="M4.898 3.953 C 4.430 4.282,3.946 4.833,3.705 5.309 L 3.600 5.517 3.600 10.810 L 3.600 16.102 3.779 16.416 C 4.271 17.279,4.854 17.755,5.600 17.899 C 5.765 17.931,6.296 17.977,6.780 18.001 C 7.264 18.024,7.862 18.054,8.110 18.066 C 8.714 18.095,8.715 18.079,8.025 19.012 C 7.843 19.259,7.605 19.593,7.497 19.756 L 7.300 20.052 7.300 20.396 C 7.300 20.654,7.320 20.779,7.377 20.895 C 7.494 21.130,7.813 21.430,8.003 21.481 C 8.293 21.559,9.615 21.597,12.000 21.597 C 14.385 21.597,15.707 21.559,15.997 21.481 C 16.186 21.430,16.509 21.128,16.616 20.902 C 16.655 20.821,16.696 20.659,16.708 20.542 C 16.746 20.181,16.651 19.976,16.067 19.157 C 15.483 18.336,15.419 18.232,15.452 18.147 C 15.476 18.084,15.492 18.083,17.120 17.999 C 18.673 17.918,19.045 17.803,19.618 17.224 C 19.960 16.879,20.164 16.572,20.298 16.205 C 20.378 15.983,20.380 15.905,20.392 10.771 L 20.405 5.562 20.223 5.211 C 19.958 4.697,19.499 4.189,19.044 3.903 L 18.900 3.813 12.038 3.785 L 5.175 3.758 4.898 3.953 M18.000 10.200 L 18.000 14.400 12.000 14.400 L 6.000 14.400 6.000 10.200 L 6.000 6.000 12.000 6.000 L 18.000 6.000 18.000 10.200 " fill="#373B4D" stroke="none" fill-rule="evenodd"></path></svg>