<svg width="24" height="24" viewBox="0 0 24 24" fill="none" xmlns="http://www.w3.org/2000/svg"><path d="M5.003 3.871 C 4.567 4.090,4.003 4.714,3.705 5.309 L 3.600 5.517 3.600 10.800 L 3.600 16.083 3.705 16.291 C 3.995 16.864,4.332 17.282,4.729 17.561 C 5.244 17.922,5.616 17.984,7.531 18.027 C 8.634 18.052,8.641 18.053,8.617 18.136 C 8.568 18.303,8.345 18.631,7.894 19.200 C 7.297 19.953,7.262 20.021,7.262 20.400 C 7.262 20.732,7.335 20.917,7.588 21.226 C 7.780 21.462,7.950 21.516,8.634 21.560 C 9.398 21.610,14.606 21.610,15.372 21.560 C 16.119 21.512,16.245 21.463,16.496 21.121 C 16.689 20.859,16.739 20.704,16.737 20.377 C 16.736 20.091,16.600 19.844,16.087 19.188 C 15.661 18.645,15.431 18.301,15.383 18.136 C 15.359 18.053,15.367 18.053,16.449 18.027 C 18.248 17.985,18.660 17.923,19.162 17.618 C 19.668 17.312,20.063 16.837,20.279 16.277 L 20.400 15.963 20.399 10.791 L 20.399 5.620 20.269 5.300 C 20.197 5.124,20.082 4.899,20.014 4.800 C 19.842 4.550,19.244 3.985,19.034 3.873 L 18.860 3.780 12.040 3.771 L 5.220 3.762 5.003 3.871 M18.000 10.200 L 18.000 14.400 12.000 14.400 L 6.000 14.400 6.000 10.200 L 6.000 6.000 12.000 6.000 L 18.000 6.000 18.000 10.200 " fill="#373B4D" stroke="none" fill-rule="evenodd"></path></svg>