<svg width="24" height="24" viewBox="0 0 24 24" fill="none" xmlns="http://www.w3.org/2000/svg"><path d="M4.761 4.076 C 4.348 4.413,3.923 4.906,3.725 5.276 L 3.600 5.511 3.600 10.821 L 3.600 16.131 3.829 16.495 C 4.239 17.144,4.747 17.604,5.268 17.800 C 5.544 17.903,6.246 17.983,7.390 18.041 C 8.390 18.093,8.495 18.110,8.512 18.226 C 8.519 18.277,8.355 18.544,8.062 18.956 C 7.807 19.313,7.525 19.715,7.434 19.848 L 7.269 20.091 7.291 20.405 C 7.305 20.609,7.343 20.782,7.399 20.899 C 7.520 21.149,7.831 21.418,8.066 21.477 C 8.389 21.559,9.654 21.597,12.000 21.597 C 14.342 21.597,15.611 21.559,15.932 21.478 C 16.303 21.384,16.664 20.933,16.708 20.506 C 16.738 20.212,16.667 20.066,15.995 19.052 C 15.686 18.585,15.444 18.185,15.458 18.164 C 15.492 18.108,15.690 18.087,16.820 18.018 C 18.733 17.902,19.031 17.813,19.642 17.174 C 19.947 16.856,20.123 16.609,20.273 16.289 L 20.380 16.060 20.394 10.813 L 20.407 5.566 20.240 5.245 C 19.991 4.767,19.490 4.211,19.020 3.893 C 18.901 3.812,18.853 3.811,12.020 3.789 L 5.140 3.767 4.761 4.076 M18.000 10.200 L 18.000 14.400 12.000 14.400 L 6.000 14.400 6.000 10.200 L 6.000 6.000 12.000 6.000 L 18.000 6.000 18.000 10.200 " fill="#373B4D" stroke="none" fill-rule="evenodd"></path></svg>