<svg width="24" height="24" viewBox="0 0 24 24" fill="none" xmlns="http://www.w3.org/2000/svg"><path d="M5.920 3.716 C 5.340 3.736,5.196 3.753,5.080 3.816 C 4.504 4.128,4.093 4.548,3.812 5.114 L 3.620 5.500 3.610 10.778 L 3.599 16.057 3.736 16.346 C 4.143 17.201,4.813 17.792,5.520 17.919 C 5.772 17.964,7.421 18.040,8.151 18.040 L 8.642 18.040 8.616 18.150 C 8.572 18.345,8.359 18.658,7.913 19.185 C 7.365 19.832,7.278 19.974,7.251 20.275 C 7.219 20.624,7.294 20.872,7.513 21.143 C 7.802 21.502,7.862 21.526,8.593 21.564 C 9.404 21.606,14.592 21.606,15.401 21.564 C 16.102 21.528,16.188 21.499,16.419 21.231 C 16.642 20.973,16.730 20.773,16.751 20.475 C 16.778 20.101,16.676 19.903,16.097 19.208 C 15.624 18.641,15.431 18.356,15.385 18.156 L 15.362 18.053 16.451 18.026 C 17.926 17.989,18.447 17.945,18.765 17.830 C 19.444 17.583,20.023 16.992,20.284 16.277 L 20.400 15.958 20.400 10.798 L 20.400 5.637 20.280 5.327 C 20.214 5.156,20.104 4.928,20.036 4.819 C 19.885 4.582,19.451 4.144,19.193 3.968 C 18.794 3.696,19.177 3.711,12.580 3.701 C 9.302 3.696,6.305 3.703,5.920 3.716 M18.000 10.200 L 18.000 14.400 12.000 14.400 L 6.000 14.400 6.000 10.200 L 6.000 6.000 12.000 6.000 L 18.000 6.000 18.000 10.200 " fill="#373B4D" stroke="none" fill-rule="evenodd"></path></svg>