<svg width="24" height="24" viewBox="0 0 24 24" fill="none" xmlns="http://www.w3.org/2000/svg"><path d="M5.317 3.756 C 4.863 3.821,4.201 4.406,3.840 5.061 L 3.620 5.460 3.610 10.775 L 3.599 16.091 3.777 16.425 C 4.233 17.283,4.852 17.804,5.547 17.916 C 5.894 17.972,7.271 18.040,8.049 18.040 L 8.645 18.040 8.618 18.130 C 8.555 18.340,8.361 18.633,7.969 19.111 C 7.444 19.752,7.340 19.903,7.285 20.101 C 7.181 20.476,7.260 20.813,7.536 21.164 C 7.782 21.477,7.892 21.519,8.592 21.562 C 9.353 21.608,14.644 21.609,15.404 21.562 C 16.076 21.521,16.206 21.479,16.412 21.238 C 16.652 20.958,16.739 20.741,16.740 20.420 C 16.740 20.049,16.676 19.931,16.060 19.160 C 15.599 18.583,15.448 18.355,15.381 18.130 L 15.355 18.040 15.947 18.039 C 16.687 18.039,18.054 17.971,18.400 17.919 C 18.772 17.862,19.264 17.610,19.581 17.313 C 19.902 17.012,20.119 16.692,20.277 16.281 L 20.400 15.963 20.400 10.800 L 20.400 5.637 20.280 5.327 C 20.121 4.913,19.985 4.707,19.647 4.369 C 19.319 4.042,19.084 3.871,18.859 3.796 C 18.730 3.753,17.452 3.742,12.100 3.736 C 8.470 3.732,5.417 3.741,5.317 3.756 M18.000 10.200 L 18.000 14.400 12.000 14.400 L 6.000 14.400 6.000 10.200 L 6.000 6.000 12.000 6.000 L 18.000 6.000 18.000 10.200 " fill="#373B4D" stroke="none" fill-rule="evenodd"></path></svg>