<svg width="24" height="24" viewBox="0 0 24 24" fill="none" xmlns="http://www.w3.org/2000/svg"><path d="M4.847 4.000 C 4.359 4.367,3.933 4.863,3.686 5.348 L 3.600 5.517 3.600 10.817 L 3.600 16.116 3.722 16.323 C 4.229 17.184,4.722 17.636,5.366 17.834 C 5.676 17.928,6.210 17.980,7.520 18.042 C 8.572 18.092,8.612 18.103,8.500 18.319 C 8.464 18.390,8.249 18.703,8.024 19.014 C 7.799 19.325,7.537 19.695,7.442 19.836 L 7.269 20.092 7.292 20.416 C 7.321 20.828,7.356 20.916,7.589 21.167 C 7.890 21.491,7.976 21.515,8.987 21.560 C 10.114 21.610,13.886 21.610,15.013 21.560 C 16.022 21.515,16.110 21.490,16.407 21.171 C 16.600 20.963,16.720 20.675,16.720 20.418 C 16.720 20.133,16.651 20.010,15.748 18.689 C 15.579 18.441,15.440 18.213,15.440 18.183 C 15.440 18.101,15.548 18.087,16.749 18.021 C 18.568 17.919,18.889 17.847,19.404 17.417 C 19.700 17.171,20.035 16.756,20.190 16.445 L 20.337 16.150 20.366 15.445 C 20.381 15.057,20.395 12.674,20.397 10.149 L 20.400 5.558 20.275 5.309 C 20.206 5.172,20.094 4.979,20.027 4.880 C 19.846 4.613,19.371 4.132,19.120 3.962 L 18.900 3.812 12.032 3.787 L 5.163 3.761 4.847 4.000 M18.000 10.200 L 18.000 14.400 12.000 14.400 L 6.000 14.400 6.000 10.200 L 6.000 6.000 12.000 6.000 L 18.000 6.000 18.000 10.200 " fill="#373B4D" stroke="none" fill-rule="evenodd"></path></svg>