<svg width="24" height="24" viewBox="0 0 24 24" fill="none" xmlns="http://www.w3.org/2000/svg"><path d="M4.994 3.881 C 4.543 4.133,3.994 4.737,3.718 5.284 L 3.600 5.518 3.601 10.809 L 3.601 16.100 3.764 16.400 C 4.234 17.266,4.803 17.745,5.545 17.900 C 5.851 17.963,7.105 18.039,7.865 18.040 C 8.441 18.040,8.600 18.065,8.600 18.155 C 8.600 18.243,8.335 18.631,7.845 19.260 C 7.334 19.915,7.263 20.056,7.266 20.407 C 7.270 20.873,7.588 21.364,7.956 21.474 C 8.268 21.568,9.257 21.598,12.000 21.598 C 14.743 21.598,15.732 21.568,16.044 21.474 C 16.399 21.368,16.724 20.884,16.732 20.448 C 16.738 20.140,16.617 19.888,16.198 19.339 C 15.725 18.719,15.400 18.237,15.400 18.155 C 15.400 18.062,15.523 18.049,16.660 18.021 C 18.445 17.978,18.901 17.873,19.512 17.363 C 19.739 17.174,20.005 16.832,20.157 16.532 C 20.418 16.018,20.400 16.453,20.400 10.779 L 20.400 5.608 20.275 5.314 C 20.206 5.152,20.088 4.925,20.011 4.810 C 19.850 4.566,19.297 4.038,19.052 3.894 L 18.884 3.795 12.052 3.775 L 5.220 3.755 4.994 3.881 M18.000 10.200 L 18.000 14.400 12.000 14.400 L 6.000 14.400 6.000 10.200 L 6.000 6.000 12.000 6.000 L 18.000 6.000 18.000 10.200 " fill="#373B4D" stroke="none" fill-rule="evenodd"></path></svg>