<svg width="24" height="24" viewBox="0 0 24 24" fill="none" xmlns="http://www.w3.org/2000/svg"><path d="M4.914 3.935 C 4.448 4.247,3.968 4.789,3.716 5.289 L 3.600 5.518 3.600 10.805 L 3.600 16.093 3.766 16.397 C 4.105 17.015,4.551 17.486,5.010 17.709 C 5.464 17.931,5.924 17.989,7.569 18.035 C 8.181 18.052,8.533 18.077,8.562 18.106 C 8.630 18.174,8.532 18.337,7.952 19.113 C 7.667 19.494,7.400 19.881,7.358 19.973 C 7.262 20.183,7.257 20.558,7.346 20.820 C 7.433 21.076,7.761 21.416,7.980 21.477 C 8.278 21.562,9.491 21.598,12.000 21.598 C 14.509 21.598,15.722 21.562,16.020 21.477 C 16.239 21.416,16.567 21.076,16.654 20.820 C 16.779 20.454,16.722 20.091,16.488 19.747 C 16.425 19.655,16.203 19.346,15.994 19.060 C 15.518 18.410,15.375 18.169,15.431 18.113 C 15.454 18.090,15.658 18.064,15.886 18.055 C 18.149 17.966,18.569 17.918,19.002 17.699 C 19.491 17.452,19.921 17.001,20.199 16.444 C 20.299 16.245,20.335 16.106,20.363 15.824 C 20.382 15.624,20.398 13.237,20.399 10.520 L 20.400 5.579 20.198 5.168 C 20.030 4.825,19.942 4.702,19.668 4.425 C 19.488 4.243,19.241 4.029,19.120 3.950 L 18.900 3.807 12.040 3.782 L 5.180 3.758 4.914 3.935 M18.000 10.200 L 18.000 14.400 12.000 14.400 L 6.000 14.400 6.000 10.200 L 6.000 6.000 12.000 6.000 L 18.000 6.000 18.000 10.200 " fill="#373B4D" stroke="none" fill-rule="evenodd"></path></svg>