<svg width="24" height="24" viewBox="0 0 24 24" fill="none" xmlns="http://www.w3.org/2000/svg"><path d="M6.580 2.596 C 6.280 2.626,6.050 2.757,5.676 3.109 C 5.351 3.416,5.078 3.768,4.916 4.089 L 4.800 4.318 4.800 12.017 L 4.800 19.716 4.922 19.923 C 5.375 20.691,5.849 21.161,6.509 21.494 L 6.717 21.600 12.011 21.600 L 17.305 21.600 17.660 21.390 C 18.248 21.041,18.749 20.497,19.075 19.851 L 19.200 19.602 19.200 11.928 L 19.200 4.254 18.953 3.877 C 18.660 3.428,18.098 2.851,17.832 2.724 C 17.659 2.642,17.556 2.632,16.592 2.599 C 15.447 2.559,6.970 2.557,6.580 2.596 M12.414 17.003 C 12.612 17.058,12.901 17.325,12.967 17.513 C 12.996 17.596,13.019 17.839,13.019 18.067 C 13.019 18.456,13.014 18.482,12.898 18.646 C 12.642 19.011,12.211 19.181,11.773 19.089 C 11.476 19.027,11.271 18.879,11.099 18.605 C 10.963 18.387,10.960 18.374,10.960 17.957 C 10.960 17.534,10.961 17.530,11.097 17.353 C 11.223 17.187,11.373 17.059,11.520 16.993 C 11.616 16.949,12.246 16.957,12.414 17.003 " fill="#373B4D" stroke="none" fill-rule="evenodd"></path></svg>