<svg width="24" height="24" viewBox="0 0 24 24" fill="none" xmlns="http://www.w3.org/2000/svg"><path d="M7.339 2.730 C 6.879 3.057,6.427 3.542,6.190 3.963 L 6.000 4.300 6.001 12.000 L 6.001 19.700 6.162 19.994 C 6.530 20.671,7.021 21.147,7.709 21.494 L 7.917 21.600 12.010 21.600 L 16.103 21.600 16.432 21.410 C 17.083 21.034,17.458 20.660,17.814 20.030 L 18.000 19.700 18.000 11.999 L 18.000 4.298 17.821 3.984 C 17.478 3.382,17.186 3.072,16.620 2.710 L 16.340 2.531 12.012 2.508 L 7.683 2.485 7.339 2.730 M12.509 17.003 C 12.665 17.063,12.951 17.381,12.997 17.546 C 13.059 17.770,13.051 18.376,12.984 18.538 C 12.892 18.758,12.631 18.988,12.395 19.058 C 11.799 19.235,11.280 19.032,11.031 18.524 C 10.900 18.258,10.880 17.714,10.993 17.496 C 11.115 17.260,11.408 16.994,11.588 16.957 C 11.762 16.921,12.373 16.952,12.509 17.003 " fill="#373B4D" stroke="none" fill-rule="evenodd"></path></svg>