<svg width="24" height="24" viewBox="0 0 24 24" fill="none" xmlns="http://www.w3.org/2000/svg"><path d="M7.200 2.595 C 6.390 2.620,6.377 2.621,6.169 2.737 C 5.748 2.970,5.231 3.521,4.945 4.043 L 4.800 4.307 4.800 12.023 L 4.800 19.740 5.045 20.115 C 5.458 20.745,5.962 21.221,6.509 21.495 L 6.717 21.600 12.018 21.600 L 17.318 21.600 17.629 21.410 C 18.205 21.058,18.789 20.421,19.095 19.811 L 19.200 19.603 19.200 11.925 L 19.200 4.247 19.003 3.953 C 18.646 3.420,18.144 2.896,17.843 2.741 C 17.759 2.698,17.547 2.657,17.303 2.636 C 16.814 2.594,8.351 2.560,7.200 2.595 M12.337 16.998 C 12.553 17.049,12.802 17.232,12.909 17.422 C 12.988 17.560,12.999 17.638,12.999 18.044 L 13.000 18.508 12.861 18.691 C 12.702 18.899,12.378 19.079,12.105 19.110 C 11.698 19.155,11.242 18.896,11.048 18.508 C 10.976 18.363,10.960 18.263,10.960 17.952 C 10.960 17.596,10.967 17.563,11.084 17.387 C 11.209 17.198,11.354 17.071,11.526 17.003 C 11.647 16.954,12.135 16.951,12.337 16.998 " fill="#373B4D" stroke="none" fill-rule="evenodd"></path></svg>