<svg width="24" height="24" viewBox="0 0 24 24" fill="none" xmlns="http://www.w3.org/2000/svg"><path d="M7.000 2.558 C 6.293 2.583,6.246 2.599,5.784 2.970 C 5.482 3.212,5.169 3.608,4.950 4.026 L 4.800 4.312 4.800 11.997 L 4.800 19.682 4.925 19.931 C 5.264 20.608,5.788 21.132,6.469 21.475 L 6.718 21.600 12.000 21.600 L 17.283 21.600 17.491 21.495 C 18.222 21.127,18.761 20.572,19.081 19.858 L 19.200 19.593 19.200 11.955 L 19.200 4.317 19.115 4.148 C 18.806 3.532,18.225 2.880,17.819 2.695 C 17.600 2.594,17.557 2.590,16.486 2.557 C 15.297 2.521,8.024 2.522,7.000 2.558 M12.554 17.023 C 12.735 17.138,12.884 17.293,12.972 17.460 C 13.084 17.672,13.095 18.348,12.990 18.545 C 12.779 18.940,12.470 19.119,11.998 19.120 C 11.494 19.120,11.203 18.928,10.995 18.458 C 10.876 18.189,10.868 17.726,10.979 17.501 C 11.075 17.307,11.323 17.053,11.493 16.975 C 11.670 16.895,12.403 16.928,12.554 17.023 " fill="#373B4D" stroke="none" fill-rule="evenodd"></path></svg>