<svg width="24" height="24" viewBox="0 0 24 24" fill="none" xmlns="http://www.w3.org/2000/svg"><path d="M7.364 2.705 C 6.813 3.073,6.384 3.558,6.085 4.148 L 6.000 4.317 6.000 12.000 L 6.000 19.682 6.125 19.931 C 6.464 20.608,6.988 21.132,7.669 21.475 L 7.918 21.600 12.004 21.600 L 16.091 21.600 16.410 21.430 C 17.017 21.106,17.506 20.617,17.830 20.010 L 18.000 19.691 17.999 11.995 L 17.999 4.300 17.838 4.006 C 17.522 3.426,17.151 3.028,16.626 2.705 L 16.340 2.529 12.018 2.506 L 7.696 2.482 7.364 2.705 M12.554 17.023 C 12.735 17.138,12.884 17.293,12.972 17.460 C 13.084 17.672,13.095 18.348,12.990 18.545 C 12.779 18.940,12.470 19.119,11.998 19.120 C 11.494 19.120,11.203 18.928,10.995 18.458 C 10.876 18.189,10.868 17.726,10.979 17.501 C 11.075 17.307,11.323 17.053,11.493 16.975 C 11.670 16.895,12.403 16.928,12.554 17.023 " fill="#373B4D" stroke="none" fill-rule="evenodd"></path></svg>