<svg width="24" height="24" viewBox="0 0 24 24" fill="none" xmlns="http://www.w3.org/2000/svg"><path d="M8.160 2.478 C 6.506 2.500,6.499 2.500,6.320 2.596 C 5.712 2.919,5.309 3.325,5.004 3.923 L 4.800 4.324 4.800 12.000 L 4.800 19.676 5.009 20.088 C 5.182 20.431,5.275 20.557,5.559 20.841 C 5.843 21.125,5.969 21.218,6.313 21.392 L 6.726 21.601 12.017 21.590 L 17.308 21.580 17.696 21.387 C 18.345 21.065,18.801 20.563,19.082 19.861 L 19.200 19.567 19.200 11.945 L 19.200 4.323 19.008 3.949 C 18.612 3.175,18.062 2.669,17.500 2.561 C 17.028 2.470,12.141 2.427,8.160 2.478 M12.541 16.991 C 12.890 17.171,13.070 17.465,13.108 17.917 C 13.165 18.602,12.746 19.104,12.080 19.150 C 11.394 19.197,10.876 18.698,10.876 17.990 C 10.876 17.829,10.896 17.644,10.920 17.578 C 11.030 17.287,11.312 17.007,11.585 16.919 C 11.784 16.855,12.361 16.898,12.541 16.991 " fill="#373B4D" stroke="none" fill-rule="evenodd"></path></svg>