<svg width="24" height="24" viewBox="0 0 24 24" fill="none" xmlns="http://www.w3.org/2000/svg"><path d="M7.278 2.786 C 6.743 3.189,6.339 3.650,6.086 4.148 L 6.000 4.317 6.000 12.009 L 6.000 19.702 6.179 20.016 C 6.569 20.700,7.043 21.158,7.709 21.495 L 7.917 21.600 12.021 21.600 L 16.125 21.600 16.501 21.363 C 17.161 20.949,17.470 20.632,17.827 20.005 L 18.000 19.702 18.000 11.992 L 18.000 4.282 17.820 3.978 C 17.464 3.375,17.140 3.041,16.559 2.672 L 16.337 2.532 12.003 2.511 L 7.670 2.490 7.278 2.786 M12.491 17.014 C 12.639 17.076,12.860 17.289,12.944 17.449 C 13.021 17.597,13.056 17.974,13.022 18.293 C 12.998 18.524,12.975 18.578,12.832 18.739 C 12.625 18.975,12.405 19.086,12.097 19.110 C 11.639 19.147,11.278 18.954,11.060 18.554 C 10.954 18.360,10.943 18.303,10.942 17.954 C 10.940 17.587,10.946 17.558,11.061 17.395 C 11.128 17.300,11.259 17.163,11.354 17.091 C 11.523 16.962,11.533 16.960,11.944 16.960 C 12.206 16.960,12.411 16.980,12.491 17.014 " fill="#373B4D" stroke="none" fill-rule="evenodd"></path></svg>