<svg width="24" height="24" viewBox="0 0 24 24" fill="none" xmlns="http://www.w3.org/2000/svg"><path d="M8.320 2.555 L 6.420 2.580 6.172 2.715 C 5.735 2.951,5.188 3.550,4.916 4.089 L 4.800 4.318 4.800 12.010 L 4.800 19.702 4.979 20.016 C 5.369 20.700,5.843 21.158,6.509 21.495 L 6.717 21.600 12.005 21.600 L 17.293 21.600 17.554 21.457 C 18.208 21.097,18.709 20.578,19.043 19.914 L 19.200 19.602 19.200 11.943 L 19.200 4.284 19.076 4.072 C 18.727 3.477,18.245 2.943,17.878 2.743 C 17.679 2.634,17.640 2.629,16.905 2.598 C 15.806 2.553,10.550 2.527,8.320 2.555 M12.491 17.014 C 12.639 17.076,12.860 17.289,12.944 17.449 C 13.021 17.597,13.056 17.974,13.022 18.293 C 12.998 18.524,12.975 18.578,12.832 18.739 C 12.625 18.975,12.405 19.086,12.097 19.110 C 11.639 19.147,11.278 18.954,11.060 18.554 C 10.954 18.360,10.943 18.303,10.942 17.954 C 10.940 17.587,10.946 17.558,11.061 17.395 C 11.128 17.300,11.259 17.163,11.354 17.091 C 11.523 16.962,11.533 16.960,11.944 16.960 C 12.206 16.960,12.411 16.980,12.491 17.014 " fill="#373B4D" stroke="none" fill-rule="evenodd"></path></svg>