<svg width="24" height="24" viewBox="0 0 24 24" fill="none" xmlns="http://www.w3.org/2000/svg"><path d="M6.740 2.515 C 6.476 2.536,6.379 2.564,6.185 2.676 C 5.658 2.980,5.309 3.353,4.984 3.960 L 4.801 4.300 4.801 11.994 L 4.800 19.687 4.979 20.034 C 5.303 20.661,5.739 21.097,6.366 21.421 L 6.713 21.600 12.002 21.600 L 17.290 21.600 17.651 21.410 C 18.333 21.051,18.786 20.561,19.072 19.873 L 19.200 19.566 19.200 11.941 L 19.200 4.317 19.095 4.109 C 18.769 3.464,18.319 2.940,17.893 2.710 C 17.781 2.650,17.575 2.581,17.435 2.557 C 17.155 2.509,7.310 2.470,6.740 2.515 M12.442 16.961 C 12.654 17.018,12.895 17.245,13.001 17.488 C 13.127 17.776,13.133 18.260,13.015 18.520 C 12.789 19.018,12.218 19.264,11.662 19.102 C 11.351 19.012,11.048 18.716,10.949 18.405 C 10.872 18.166,10.860 17.814,10.920 17.597 C 10.992 17.339,11.355 16.983,11.615 16.916 C 11.759 16.879,12.233 16.904,12.442 16.961 " fill="#373B4D" stroke="none" fill-rule="evenodd"></path></svg>