<svg width="24" height="24" viewBox="0 0 24 24" fill="none" xmlns="http://www.w3.org/2000/svg"><path d="M7.340 2.743 C 6.762 3.201,6.303 3.716,6.085 4.148 L 6.000 4.317 6.000 12.029 L 6.000 19.740 6.245 20.115 C 6.658 20.745,7.162 21.221,7.709 21.495 L 7.917 21.600 12.029 21.600 L 16.140 21.600 16.540 21.331 C 17.050 20.987,17.438 20.600,17.752 20.120 L 18.000 19.740 18.000 11.986 L 18.000 4.231 17.731 3.846 C 17.407 3.380,17.044 3.012,16.633 2.730 L 16.327 2.520 11.973 2.520 L 7.620 2.520 7.340 2.743 M12.337 16.998 C 12.553 17.049,12.802 17.232,12.909 17.422 C 12.988 17.560,12.999 17.638,12.999 18.044 L 13.000 18.508 12.861 18.691 C 12.702 18.899,12.378 19.079,12.105 19.110 C 11.698 19.155,11.242 18.896,11.048 18.508 C 10.976 18.363,10.960 18.263,10.960 17.952 C 10.960 17.596,10.967 17.563,11.084 17.387 C 11.209 17.198,11.354 17.071,11.526 17.003 C 11.647 16.954,12.135 16.951,12.337 16.998 " fill="#373B4D" stroke="none" fill-rule="evenodd"></path></svg>