<svg width="24" height="24" viewBox="0 0 24 24" fill="none" xmlns="http://www.w3.org/2000/svg"><path d="M6.417 2.576 C 6.207 2.642,5.792 2.924,5.551 3.165 C 5.352 3.364,5.081 3.760,4.905 4.109 L 4.800 4.317 4.800 12.000 L 4.800 19.682 4.925 19.931 C 5.283 20.640,5.760 21.117,6.469 21.475 L 6.718 21.600 12.000 21.600 L 17.283 21.600 17.491 21.495 C 18.253 21.110,18.755 20.595,19.068 19.880 L 19.199 19.580 19.199 11.940 L 19.199 4.300 19.036 4.000 C 18.699 3.378,18.244 2.885,17.814 2.677 C 17.524 2.537,17.038 2.525,11.540 2.525 C 7.632 2.525,6.545 2.536,6.417 2.576 M12.603 17.048 C 12.953 17.253,13.099 17.583,13.072 18.115 C 13.058 18.400,13.037 18.488,12.951 18.623 C 12.726 18.978,12.440 19.131,12.000 19.134 C 11.678 19.136,11.497 19.070,11.247 18.860 C 10.977 18.633,10.813 18.035,10.915 17.656 C 10.977 17.428,11.169 17.178,11.392 17.035 C 11.575 16.917,11.590 16.914,12.000 16.927 C 12.370 16.939,12.442 16.953,12.603 17.048 " fill="#373B4D" stroke="none" fill-rule="evenodd"></path></svg>