<svg width="24" height="24" viewBox="0 0 24 24" fill="none" xmlns="http://www.w3.org/2000/svg"><path d="M7.460 2.439 C 6.629 2.462,6.566 2.469,6.333 2.567 C 5.671 2.847,5.136 3.422,4.917 4.085 L 4.820 4.380 4.820 12.000 L 4.820 19.620 4.917 19.915 C 5.151 20.625,5.775 21.249,6.485 21.483 L 6.780 21.580 12.000 21.580 L 17.220 21.580 17.515 21.483 C 18.222 21.250,18.826 20.652,19.070 19.941 L 19.180 19.620 19.180 12.000 L 19.180 4.380 19.083 4.085 C 18.857 3.400,18.251 2.776,17.580 2.537 C 17.422 2.481,17.183 2.460,16.440 2.437 C 15.340 2.403,8.742 2.404,7.460 2.439 M12.549 16.963 C 12.978 17.171,13.160 17.490,13.160 18.032 C 13.160 18.289,13.143 18.361,13.032 18.568 C 12.572 19.431,11.349 19.382,10.914 18.483 C 10.785 18.217,10.787 17.772,10.918 17.503 C 11.224 16.874,11.902 16.650,12.549 16.963 " fill="#373B4D" stroke="none" fill-rule="evenodd"></path></svg>