<svg width="24" height="24" viewBox="0 0 24 24" fill="none" xmlns="http://www.w3.org/2000/svg"><path d="M7.333 2.718 C 6.862 3.028,6.479 3.440,6.210 3.926 L 6.000 4.305 6.000 11.994 L 6.000 19.682 6.125 19.931 C 6.483 20.640,6.960 21.117,7.669 21.475 L 7.918 21.600 12.000 21.600 L 16.083 21.600 16.291 21.495 C 17.051 21.112,17.512 20.651,17.895 19.891 L 18.000 19.683 18.000 12.000 L 18.000 4.317 17.895 4.109 C 17.573 3.470,17.175 3.023,16.654 2.714 L 16.340 2.528 12.017 2.504 L 7.693 2.481 7.333 2.718 M12.603 17.048 C 12.953 17.253,13.099 17.583,13.072 18.115 C 13.058 18.400,13.037 18.488,12.951 18.623 C 12.726 18.978,12.440 19.131,12.000 19.134 C 11.678 19.136,11.497 19.070,11.247 18.860 C 10.977 18.633,10.813 18.035,10.915 17.656 C 10.977 17.428,11.169 17.178,11.392 17.035 C 11.575 16.917,11.590 16.914,12.000 16.927 C 12.370 16.939,12.442 16.953,12.603 17.048 " fill="#373B4D" stroke="none" fill-rule="evenodd"></path></svg>