<svg width="24" height="24" viewBox="0 0 24 24" fill="none" xmlns="http://www.w3.org/2000/svg"><path d="M7.457 2.637 C 6.830 2.951,6.410 3.410,6.128 4.088 L 5.999 4.396 6.010 12.048 L 6.020 19.700 6.187 20.050 C 6.499 20.702,6.898 21.101,7.550 21.413 L 7.900 21.580 11.951 21.591 L 16.003 21.601 16.300 21.477 C 17.073 21.156,17.563 20.668,17.874 19.913 L 18.000 19.606 17.999 11.993 L 17.997 4.380 17.886 4.098 C 17.638 3.471,17.172 2.949,16.612 2.671 L 16.266 2.500 12.020 2.489 L 7.774 2.478 7.457 2.637 M12.372 16.922 C 12.624 16.986,12.894 17.201,13.002 17.425 C 13.129 17.687,13.159 18.207,13.061 18.462 C 12.883 18.930,12.334 19.244,11.851 19.155 C 11.433 19.078,11.139 18.868,10.972 18.528 C 10.819 18.217,10.815 17.759,10.962 17.465 C 11.064 17.260,11.279 17.050,11.493 16.944 C 11.642 16.871,12.121 16.859,12.372 16.922 " fill="#373B4D" stroke="none" fill-rule="evenodd"></path></svg>