<svg width="24" height="24" viewBox="0 0 24 24" fill="none" xmlns="http://www.w3.org/2000/svg"><path d="M7.293 2.778 C 6.727 3.225,6.324 3.680,6.096 4.129 L 6.000 4.317 6.000 12.017 L 6.000 19.716 6.122 19.923 C 6.575 20.691,7.049 21.161,7.709 21.494 L 7.917 21.600 12.029 21.600 L 16.140 21.600 16.556 21.325 C 17.096 20.967,17.440 20.620,17.750 20.124 L 18.000 19.723 18.000 11.988 L 18.000 4.252 17.725 3.836 C 17.415 3.368,17.083 3.031,16.638 2.731 L 16.336 2.528 11.991 2.514 L 7.646 2.500 7.293 2.778 M12.414 17.003 C 12.612 17.058,12.901 17.325,12.967 17.513 C 12.996 17.596,13.019 17.839,13.019 18.067 C 13.019 18.456,13.014 18.482,12.898 18.646 C 12.642 19.011,12.211 19.181,11.773 19.089 C 11.476 19.027,11.271 18.879,11.099 18.605 C 10.963 18.387,10.960 18.374,10.960 17.957 C 10.960 17.534,10.961 17.530,11.097 17.353 C 11.223 17.187,11.373 17.059,11.520 16.993 C 11.616 16.949,12.246 16.957,12.414 17.003 " fill="#373B4D" stroke="none" fill-rule="evenodd"></path></svg>