<svg width="24" height="24" viewBox="0 0 24 24" fill="none" xmlns="http://www.w3.org/2000/svg"><path d="M7.456 2.630 C 6.836 3.011,6.501 3.364,6.182 3.974 L 6.000 4.322 6.000 12.005 L 6.000 19.687 6.179 20.034 C 6.503 20.661,6.939 21.097,7.566 21.421 L 7.913 21.600 11.992 21.600 L 16.072 21.600 16.426 21.422 C 17.062 21.102,17.485 20.683,17.809 20.050 L 18.000 19.677 18.000 12.011 L 18.000 4.344 17.823 3.982 C 17.535 3.392,17.147 2.983,16.560 2.650 L 16.340 2.526 12.020 2.503 L 7.700 2.480 7.456 2.630 M12.442 16.961 C 12.654 17.018,12.895 17.245,13.001 17.488 C 13.127 17.776,13.133 18.260,13.015 18.520 C 12.789 19.018,12.218 19.264,11.662 19.102 C 11.351 19.012,11.048 18.716,10.949 18.405 C 10.872 18.166,10.860 17.814,10.920 17.597 C 10.992 17.339,11.355 16.983,11.615 16.916 C 11.759 16.879,12.233 16.904,12.442 16.961 " fill="#373B4D" stroke="none" fill-rule="evenodd"></path></svg>