<svg width="24" height="24" viewBox="0 0 24 24" fill="none" xmlns="http://www.w3.org/2000/svg"><path d="M9.020 5.121 C 7.973 5.351,7.127 5.619,6.173 6.023 L 5.805 6.178 5.468 6.719 C 3.799 9.400,2.998 12.111,3.001 15.076 C 3.002 16.024,3.057 16.633,3.148 16.704 C 3.615 17.067,4.596 17.661,5.347 18.035 C 6.176 18.450,7.671 19.035,7.759 18.981 C 7.861 18.918,8.720 17.520,8.720 17.417 C 8.720 17.392,8.635 17.339,8.530 17.301 C 8.253 17.199,7.293 16.724,7.243 16.664 C 7.211 16.625,7.245 16.581,7.381 16.484 L 7.560 16.355 8.110 16.574 C 9.510 17.133,10.742 17.371,12.240 17.372 C 13.840 17.373,15.104 17.106,16.746 16.420 L 16.913 16.351 17.096 16.491 L 17.280 16.631 17.188 16.691 C 17.037 16.790,16.238 17.179,15.980 17.280 C 15.848 17.331,15.733 17.379,15.725 17.385 C 15.683 17.418,16.566 18.849,16.694 18.955 C 16.786 19.032,17.932 18.609,18.920 18.134 C 19.707 17.755,20.034 17.568,20.787 17.069 L 21.394 16.666 21.427 16.323 C 21.477 15.800,21.463 14.036,21.405 13.540 C 21.100 10.932,20.301 8.705,18.900 6.556 L 18.649 6.172 18.175 5.971 C 17.310 5.606,16.175 5.260,15.249 5.079 L 14.860 5.003 14.791 5.092 C 14.754 5.140,14.637 5.365,14.533 5.591 C 14.355 5.975,14.336 6.001,14.241 5.982 C 13.434 5.820,10.884 5.822,10.218 5.985 C 10.146 6.002,10.102 5.938,9.889 5.502 C 9.754 5.226,9.620 5.002,9.591 5.003 C 9.563 5.005,9.306 5.058,9.020 5.121 M9.685 10.942 C 10.437 11.207,10.924 12.087,10.800 12.958 C 10.607 14.319,9.275 14.979,8.247 14.222 C 7.528 13.693,7.305 12.616,7.737 11.765 C 8.105 11.040,8.951 10.683,9.685 10.942 M15.583 10.883 C 16.545 11.060,17.147 12.100,16.898 13.156 C 16.683 14.071,15.866 14.677,15.062 14.520 C 14.142 14.341,13.523 13.397,13.674 12.406 C 13.792 11.627,14.353 10.995,15.026 10.882 C 15.304 10.835,15.320 10.835,15.583 10.883 " fill="#373B4D" stroke="none" fill-rule="evenodd"></path></svg>