<svg width="24" height="24" viewBox="0 0 24 24" fill="none" xmlns="http://www.w3.org/2000/svg"><path d="M8.940 5.142 C 7.922 5.373,7.313 5.570,6.010 6.088 C 5.800 6.171,5.799 6.172,5.365 6.896 C 4.083 9.032,3.368 11.046,3.100 13.280 C 2.959 14.455,2.982 16.425,3.141 16.667 C 3.254 16.840,4.483 17.601,5.353 18.037 C 6.142 18.432,7.677 19.031,7.763 18.978 C 7.850 18.924,8.720 17.517,8.720 17.431 C 8.720 17.417,8.385 17.242,7.976 17.044 C 7.522 16.823,7.239 16.663,7.249 16.633 C 7.258 16.607,7.330 16.532,7.409 16.468 L 7.554 16.351 8.067 16.551 C 9.051 16.934,9.754 17.130,10.640 17.268 C 11.300 17.371,13.225 17.371,13.868 17.268 C 14.711 17.133,15.484 16.915,16.409 16.554 L 16.918 16.355 17.099 16.493 L 17.280 16.631 17.189 16.691 C 17.045 16.785,16.451 17.078,16.100 17.228 C 15.924 17.303,15.766 17.378,15.750 17.395 C 15.717 17.427,16.127 18.138,16.473 18.650 C 16.622 18.871,16.706 18.960,16.766 18.960 C 17.022 18.960,18.457 18.381,19.383 17.904 C 19.853 17.662,21.008 16.956,21.322 16.718 C 21.400 16.660,21.410 16.599,21.442 15.997 C 21.593 13.146,21.027 10.500,19.726 7.982 C 19.399 7.348,18.801 6.358,18.660 6.217 C 18.569 6.125,17.564 5.718,16.960 5.527 C 16.047 5.239,14.889 4.975,14.823 5.041 C 14.803 5.061,14.684 5.281,14.560 5.529 C 14.361 5.926,14.322 5.979,14.237 5.974 C 14.184 5.970,13.942 5.948,13.700 5.924 C 13.136 5.868,11.260 5.867,10.717 5.922 C 10.488 5.946,10.264 5.968,10.220 5.972 C 10.157 5.978,10.098 5.900,9.940 5.596 C 9.715 5.164,9.612 4.999,9.569 5.003 C 9.553 5.004,9.270 5.067,8.940 5.142 M15.642 10.903 C 16.635 11.129,17.192 12.265,16.834 13.335 C 16.566 14.139,15.808 14.654,15.090 14.522 C 14.174 14.353,13.531 13.396,13.679 12.423 C 13.796 11.660,14.331 11.041,15.000 10.895 C 15.296 10.830,15.322 10.830,15.642 10.903 M9.869 11.037 C 10.195 11.211,10.451 11.490,10.628 11.863 C 10.751 12.123,10.774 12.217,10.791 12.533 C 10.814 12.971,10.759 13.270,10.595 13.597 C 10.264 14.259,9.591 14.634,8.942 14.517 C 7.960 14.340,7.330 13.272,7.581 12.208 C 7.720 11.616,8.062 11.213,8.627 10.976 C 8.830 10.890,8.909 10.879,9.240 10.890 C 9.581 10.902,9.645 10.917,9.869 11.037 " fill="#373B4D" stroke="none" fill-rule="evenodd"></path></svg>