<svg width="24" height="24" viewBox="0 0 24 24" fill="none" xmlns="http://www.w3.org/2000/svg"><path d="M9.440 5.031 C 9.242 5.061,8.210 5.327,7.740 5.468 C 7.137 5.650,6.511 5.880,6.110 6.068 C 5.807 6.209,5.795 6.220,5.568 6.576 C 5.208 7.138,5.035 7.447,4.688 8.142 C 3.808 9.904,3.312 11.513,3.099 13.300 C 2.971 14.373,2.984 16.306,3.121 16.607 C 3.304 17.009,5.812 18.344,7.398 18.885 C 7.583 18.948,7.741 19.000,7.748 19.000 C 7.772 19.000,8.343 18.113,8.545 17.763 C 8.651 17.578,8.721 17.420,8.699 17.412 C 8.678 17.404,8.354 17.241,7.980 17.049 C 7.572 16.838,7.296 16.673,7.288 16.633 C 7.281 16.596,7.334 16.523,7.412 16.463 L 7.548 16.359 8.245 16.614 C 9.733 17.158,10.428 17.297,11.900 17.344 C 13.546 17.398,14.675 17.201,16.371 16.564 L 16.921 16.357 17.103 16.496 L 17.284 16.634 17.110 16.736 C 16.908 16.855,15.982 17.297,15.850 17.337 C 15.800 17.353,15.760 17.387,15.761 17.413 C 15.762 17.541,16.500 18.738,16.676 18.896 C 16.758 18.970,16.769 18.971,17.006 18.905 C 17.611 18.737,19.052 18.101,19.782 17.681 C 20.487 17.275,21.125 16.869,21.263 16.739 C 21.368 16.641,21.398 16.573,21.425 16.379 C 21.487 15.931,21.462 14.109,21.386 13.480 C 21.149 11.532,20.659 9.875,19.824 8.201 C 19.275 7.100,18.796 6.331,18.561 6.176 C 18.102 5.872,15.818 5.144,15.055 5.058 L 14.810 5.031 14.575 5.477 L 14.340 5.922 12.240 5.928 L 10.140 5.933 9.917 5.544 C 9.658 5.095,9.579 5.009,9.440 5.031 M15.787 10.959 C 16.769 11.303,17.204 12.532,16.710 13.571 C 16.400 14.224,15.693 14.647,15.117 14.523 C 14.220 14.331,13.616 13.487,13.695 12.534 C 13.761 11.726,14.258 11.108,15.004 10.902 C 15.249 10.834,15.477 10.851,15.787 10.959 M9.434 10.922 C 9.779 10.978,10.019 11.108,10.272 11.375 C 11.303 12.465,10.670 14.421,9.257 14.511 C 8.391 14.567,7.663 13.857,7.542 12.837 C 7.511 12.570,7.594 12.127,7.732 11.827 C 7.965 11.322,8.564 10.904,9.080 10.884 C 9.135 10.882,9.295 10.899,9.434 10.922 " fill="#373B4D" stroke="none" fill-rule="evenodd"></path></svg>