<svg width="24" height="24" viewBox="0 0 24 24" fill="none" xmlns="http://www.w3.org/2000/svg"><path d="M8.800 5.183 C 7.152 5.605,5.935 6.075,5.703 6.380 C 5.528 6.609,5.061 7.412,4.783 7.960 C 3.907 9.688,3.400 11.250,3.135 13.040 C 3.049 13.625,3.037 13.846,3.032 14.980 C 3.027 16.355,3.043 16.503,3.225 16.719 C 3.458 16.996,4.636 17.684,5.787 18.217 C 6.327 18.467,7.372 18.889,7.670 18.978 C 7.749 19.002,7.792 18.954,8.054 18.553 C 8.216 18.304,8.426 17.958,8.521 17.784 L 8.694 17.468 8.597 17.389 C 8.544 17.346,8.356 17.239,8.180 17.151 C 7.540 16.830,7.314 16.681,7.328 16.588 C 7.334 16.541,7.389 16.475,7.449 16.442 C 7.553 16.383,7.600 16.394,8.469 16.688 C 9.917 17.176,10.336 17.263,11.526 17.320 C 12.423 17.363,13.504 17.321,14.105 17.218 C 14.660 17.124,15.343 16.930,16.196 16.625 L 16.928 16.363 17.106 16.499 L 17.284 16.634 17.110 16.736 C 16.908 16.855,15.982 17.297,15.850 17.337 C 15.800 17.353,15.760 17.387,15.760 17.414 C 15.760 17.547,16.590 18.851,16.728 18.935 C 16.779 18.967,16.906 18.939,17.248 18.823 C 18.664 18.341,20.995 17.089,21.336 16.627 C 21.417 16.517,21.420 16.471,21.420 15.107 C 21.420 13.626,21.399 13.346,21.215 12.380 C 20.853 10.486,20.158 8.663,19.149 6.967 C 18.811 6.398,18.616 6.199,18.220 6.016 C 17.559 5.710,15.628 5.132,15.034 5.062 L 14.807 5.035 14.574 5.477 L 14.340 5.919 12.240 5.919 L 10.140 5.920 9.920 5.555 C 9.686 5.168,9.561 5.038,9.425 5.042 C 9.378 5.044,9.097 5.107,8.800 5.183 M15.854 11.001 C 16.187 11.126,16.521 11.449,16.710 11.831 C 16.849 12.114,16.860 12.162,16.874 12.566 C 16.892 13.083,16.810 13.409,16.568 13.782 C 16.315 14.173,16.053 14.364,15.582 14.501 C 15.385 14.558,15.313 14.562,15.143 14.524 C 14.666 14.417,14.278 14.141,13.998 13.711 C 13.784 13.382,13.707 13.058,13.726 12.574 C 13.740 12.219,13.757 12.147,13.889 11.870 C 14.118 11.387,14.522 11.039,14.990 10.921 C 15.206 10.867,15.589 10.902,15.854 11.001 M9.836 11.056 C 10.133 11.209,10.398 11.494,10.573 11.848 C 10.920 12.550,10.771 13.493,10.226 14.046 C 10.105 14.170,9.919 14.301,9.762 14.375 C 9.538 14.481,9.454 14.499,9.178 14.499 C 8.885 14.500,8.828 14.486,8.550 14.349 C 8.021 14.088,7.683 13.601,7.592 12.970 C 7.464 12.092,7.913 11.256,8.653 10.992 C 8.976 10.877,9.549 10.908,9.836 11.056 " fill="#373B4D" stroke="none" fill-rule="evenodd"></path></svg>