<svg width="24" height="24" viewBox="0 0 24 24" fill="none" xmlns="http://www.w3.org/2000/svg"><path d="M9.340 5.048 C 9.252 5.070,8.919 5.151,8.600 5.228 C 7.518 5.488,5.980 6.043,5.793 6.241 C 5.735 6.303,5.543 6.594,5.369 6.888 C 3.670 9.740,2.925 12.457,3.012 15.480 C 3.024 15.909,3.055 16.355,3.081 16.471 C 3.123 16.662,3.150 16.700,3.354 16.850 C 4.288 17.542,6.115 18.460,7.400 18.885 L 7.740 18.997 7.831 18.888 C 8.011 18.673,8.747 17.453,8.715 17.423 C 8.707 17.415,8.421 17.270,8.080 17.100 C 7.739 16.929,7.410 16.755,7.348 16.711 C 7.224 16.623,7.238 16.584,7.445 16.436 L 7.558 16.356 8.189 16.594 C 9.506 17.091,10.254 17.259,11.446 17.327 C 13.339 17.435,14.627 17.237,16.350 16.575 L 16.920 16.356 17.102 16.495 L 17.284 16.634 17.110 16.736 C 16.908 16.855,15.982 17.297,15.850 17.337 C 15.800 17.353,15.760 17.387,15.761 17.413 C 15.762 17.542,16.475 18.706,16.659 18.879 L 16.759 18.973 17.008 18.904 C 17.610 18.737,19.010 18.124,19.725 17.714 C 20.349 17.357,21.198 16.826,21.305 16.725 C 21.406 16.631,21.428 16.474,21.463 15.580 C 21.537 13.687,21.177 11.518,20.485 9.692 C 20.082 8.629,19.469 7.420,18.880 6.527 C 18.642 6.167,18.601 6.141,17.680 5.787 C 16.880 5.479,15.545 5.108,15.037 5.054 L 14.814 5.030 14.577 5.485 L 14.340 5.940 13.760 5.920 C 12.881 5.890,11.243 5.896,10.670 5.932 L 10.159 5.964 10.056 5.792 C 9.999 5.697,9.878 5.485,9.787 5.320 C 9.695 5.156,9.593 5.018,9.560 5.014 C 9.527 5.010,9.428 5.026,9.340 5.048 M15.522 10.880 C 16.370 11.041,16.920 11.749,16.920 12.679 C 16.920 13.642,16.328 14.393,15.453 14.538 C 15.116 14.594,14.606 14.401,14.276 14.092 C 13.872 13.715,13.680 13.266,13.680 12.701 C 13.680 11.811,14.213 11.091,15.016 10.896 C 15.278 10.833,15.272 10.833,15.522 10.880 M9.834 11.025 C 10.312 11.259,10.690 11.805,10.770 12.382 C 10.982 13.891,9.595 15.024,8.408 14.311 C 7.961 14.042,7.638 13.524,7.554 12.939 C 7.515 12.671,7.518 12.569,7.573 12.303 C 7.711 11.630,8.084 11.183,8.699 10.953 C 8.989 10.844,9.535 10.879,9.834 11.025 " fill="#373B4D" stroke="none" fill-rule="evenodd"></path></svg>