<svg width="24" height="24" viewBox="0 0 24 24" fill="none" xmlns="http://www.w3.org/2000/svg">
<path d="M18.6476 6.17248C17.4339 5.61685 16.1527 5.22267 14.8366 5C14.6565 5.32194 14.4936 5.65318 14.3485 5.99232C12.9466 5.78107 11.521 5.78107 10.1191 5.99232C9.97392 5.65321 9.81097 5.32198 9.63095 5C8.31404 5.22455 7.03198 5.61966 5.81713 6.17538C3.40534 9.74367 2.75154 13.2233 3.07844 16.6536C4.49085 17.6971 6.07173 18.4908 7.75237 19C8.1308 18.491 8.46567 17.9511 8.75341 17.3858C8.20688 17.1817 7.67939 16.9299 7.17703 16.6333C7.30924 16.5374 7.43855 16.4386 7.5635 16.3427C9.02524 17.0301 10.6207 17.3865 12.236 17.3865C13.8513 17.3865 15.4467 17.0301 16.9085 16.3427C17.0349 16.4458 17.1642 16.5446 17.2949 16.6333C16.7916 16.9304 16.2631 17.1827 15.7156 17.3873C16.003 17.9523 16.3379 18.4918 16.7167 19C18.3988 18.4928 19.9808 17.6996 21.3935 16.655C21.7771 12.677 20.7383 9.22935 18.6476 6.17248ZM9.16748 14.544C8.25652 14.544 7.50393 13.7173 7.50393 12.7003C7.50393 11.6833 8.23037 10.8493 9.16458 10.8493C10.0988 10.8493 10.8456 11.6833 10.8296 12.7003C10.8136 13.7173 10.0959 14.544 9.16748 14.544ZM15.3045 14.544C14.3921 14.544 13.6424 13.7173 13.6424 12.7003C13.6424 11.6833 14.3688 10.8493 15.3045 10.8493C16.2401 10.8493 16.9811 11.6833 16.9651 12.7003C16.9491 13.7173 16.2329 14.544 15.3045 14.544Z" fill="#373B4D"/>
</svg>
