<svg width="24" height="24" viewBox="0 0 24 24" fill="none" xmlns="http://www.w3.org/2000/svg"><path d="M9.961 3.221 C 8.028 3.675,6.483 4.524,5.260 5.805 C 3.639 7.502,2.804 9.448,2.732 11.700 C 2.689 13.038,2.899 14.215,3.399 15.445 L 3.512 15.722 3.012 16.931 C 2.434 18.327,2.080 19.233,2.080 19.313 C 2.080 19.379,1.930 19.395,4.213 19.098 L 5.885 18.881 6.233 19.114 C 7.812 20.173,9.111 20.706,10.600 20.903 C 11.196 20.982,12.535 20.993,13.040 20.923 C 14.634 20.702,16.347 19.961,17.620 18.942 C 18.003 18.636,18.676 17.966,18.988 17.582 C 19.788 16.597,20.388 15.406,20.697 14.190 C 21.239 12.056,21.025 10.074,20.034 8.055 C 18.890 5.723,16.718 3.996,14.040 3.287 L 13.500 3.144 11.940 3.133 C 10.404 3.123,10.373 3.124,9.961 3.221 M10.980 7.561 C 13.139 7.616,13.462 7.657,14.168 7.960 C 15.348 8.466,16.157 9.321,16.629 10.557 C 16.727 10.813,16.730 10.849,16.735 11.920 C 16.741 13.140,16.736 13.171,16.458 13.783 C 16.158 14.442,15.596 15.129,15.020 15.541 C 14.385 15.995,13.417 16.345,12.540 16.438 C 12.320 16.462,11.263 16.492,10.190 16.507 L 8.240 16.533 8.240 12.026 L 8.240 7.520 8.810 7.520 C 9.123 7.520,10.100 7.539,10.980 7.561 M10.760 12.006 L 10.760 14.293 11.510 14.267 C 12.680 14.227,13.094 14.097,13.576 13.622 C 14.044 13.161,14.195 12.822,14.227 12.160 C 14.264 11.405,14.094 10.905,13.651 10.461 C 13.360 10.171,12.903 9.912,12.560 9.845 C 12.317 9.797,11.350 9.720,10.990 9.720 L 10.760 9.720 10.760 12.006 " fill="#373B4D" stroke="none" fill-rule="evenodd"></path></svg>