<svg width="24" height="24" viewBox="0 0 24 24" fill="none" xmlns="http://www.w3.org/2000/svg"><path d="M10.420 3.123 C 9.112 3.375,7.942 3.809,6.980 4.399 C 5.615 5.237,4.334 6.647,3.621 8.095 C 3.024 9.307,2.719 10.611,2.716 11.960 C 2.714 13.170,2.920 14.252,3.362 15.353 L 3.512 15.727 2.972 17.033 C 2.322 18.604,2.080 19.222,2.080 19.306 C 2.080 19.381,1.917 19.397,4.209 19.098 L 5.877 18.881 6.449 19.254 C 7.791 20.131,8.784 20.562,10.054 20.819 C 11.015 21.014,12.524 21.033,13.414 20.863 C 15.334 20.494,17.025 19.611,18.359 18.282 C 19.081 17.562,19.645 16.768,20.107 15.821 C 20.842 14.315,21.137 12.494,20.914 10.840 C 20.707 9.295,19.979 7.620,18.984 6.401 C 17.698 4.824,15.764 3.647,13.747 3.215 C 13.288 3.116,13.185 3.110,11.940 3.098 C 11.199 3.090,10.532 3.102,10.420 3.123 M12.500 7.601 C 13.340 7.647,13.816 7.765,14.449 8.085 C 15.489 8.610,16.230 9.440,16.611 10.508 L 16.736 10.860 16.751 11.867 C 16.768 12.990,16.750 13.117,16.500 13.696 C 16.269 14.231,16.004 14.630,15.620 15.023 C 15.071 15.584,14.494 15.931,13.670 16.195 C 12.863 16.454,12.596 16.478,10.210 16.507 L 8.240 16.531 8.240 12.019 L 8.240 7.508 10.030 7.536 C 11.014 7.552,12.126 7.581,12.500 7.601 M10.760 12.006 L 10.760 14.291 11.530 14.269 C 12.696 14.236,13.107 14.101,13.624 13.584 C 14.077 13.131,14.240 12.716,14.240 12.013 C 14.240 11.314,14.069 10.860,13.651 10.445 C 13.360 10.157,12.943 9.920,12.588 9.841 C 12.381 9.795,11.416 9.722,11.010 9.721 L 10.760 9.720 10.760 12.006 " fill="#373B4D" stroke="none" fill-rule="evenodd"></path></svg>