<svg width="24" height="24" viewBox="0 0 24 24" fill="none" xmlns="http://www.w3.org/2000/svg"><path d="M11.053 3.044 C 9.074 3.219,7.123 4.055,5.735 5.323 C 4.423 6.521,3.607 7.773,3.102 9.364 C 2.780 10.379,2.648 11.508,2.720 12.639 C 2.774 13.478,3.056 14.661,3.382 15.414 L 3.517 15.728 2.777 17.512 C 2.370 18.493,2.042 19.316,2.049 19.340 C 2.056 19.370,2.669 19.303,3.976 19.129 L 5.893 18.874 6.225 19.107 C 7.706 20.145,8.936 20.660,10.521 20.906 C 11.157 21.005,12.520 21.005,13.160 20.906 C 14.682 20.672,16.175 20.053,17.360 19.165 C 20.490 16.820,21.749 12.868,20.535 9.200 C 19.784 6.935,18.142 5.065,15.940 3.970 C 14.835 3.420,13.669 3.106,12.565 3.060 C 12.287 3.048,11.916 3.032,11.740 3.025 C 11.564 3.018,11.255 3.026,11.053 3.044 M13.086 7.623 C 14.785 7.946,16.102 8.994,16.583 10.408 C 16.767 10.949,16.818 11.298,16.815 12.000 C 16.813 12.459,16.793 12.748,16.747 12.948 C 16.314 14.855,14.893 16.089,12.740 16.426 C 12.432 16.474,11.869 16.493,10.290 16.509 L 8.240 16.529 8.240 12.018 L 8.240 7.507 10.503 7.535 C 12.264 7.557,12.837 7.576,13.086 7.623 M10.760 11.999 L 10.760 14.291 11.570 14.269 C 12.457 14.245,12.681 14.205,13.118 13.993 C 13.466 13.824,13.870 13.417,14.030 13.077 C 14.201 12.713,14.258 12.438,14.259 11.980 C 14.259 11.071,13.847 10.383,13.072 10.003 C 12.650 9.796,12.489 9.767,11.538 9.734 L 10.760 9.707 10.760 11.999 " fill="#373B4D" stroke="none" fill-rule="evenodd"></path></svg>