<svg width="24" height="24" viewBox="0 0 24 24" fill="none" xmlns="http://www.w3.org/2000/svg"><path d="M11.160 3.025 C 9.251 3.205,7.672 3.808,6.193 4.922 C 5.743 5.262,4.841 6.174,4.495 6.640 C 3.569 7.888,3.017 9.210,2.776 10.760 C 2.689 11.321,2.678 12.567,2.755 13.100 C 2.874 13.920,3.133 14.865,3.403 15.467 L 3.520 15.726 2.761 17.551 C 2.344 18.555,2.007 19.379,2.012 19.383 C 2.016 19.386,2.866 19.275,3.900 19.136 C 4.934 18.996,5.816 18.882,5.860 18.882 C 5.904 18.881,6.116 19.013,6.331 19.174 C 8.406 20.731,11.084 21.330,13.672 20.816 C 14.756 20.602,16.026 20.081,16.920 19.486 C 18.552 18.399,19.775 16.873,20.434 15.100 C 22.036 10.791,20.106 6.007,15.940 3.961 C 15.066 3.531,14.149 3.244,13.200 3.102 C 12.787 3.040,11.512 2.992,11.160 3.025 M13.165 7.633 C 15.225 8.096,16.504 9.354,16.781 11.190 C 17.130 13.508,15.965 15.448,13.785 16.180 C 12.946 16.461,12.288 16.520,9.974 16.520 L 8.240 16.520 8.240 12.017 L 8.240 7.515 10.510 7.531 C 12.659 7.546,12.800 7.551,13.165 7.633 M10.760 11.995 L 10.760 14.280 11.462 14.280 C 12.578 14.280,13.117 14.120,13.617 13.640 C 14.024 13.249,14.223 12.795,14.264 12.160 C 14.340 11.011,13.711 10.115,12.620 9.816 C 12.449 9.769,12.146 9.744,11.570 9.730 L 10.760 9.711 10.760 11.995 " fill="#373B4D" stroke="none" fill-rule="evenodd"></path></svg>