<svg width="24" height="24" viewBox="0 0 24 24" fill="none" xmlns="http://www.w3.org/2000/svg"><path d="M10.960 3.082 C 9.791 3.256,8.944 3.507,8.060 3.941 C 7.151 4.387,6.370 4.947,5.639 5.679 C 4.904 6.414,4.406 7.106,3.957 8.020 C 3.517 8.914,3.260 9.723,3.093 10.740 C 2.982 11.412,2.994 12.725,3.116 13.420 C 3.458 15.359,4.336 17.027,5.743 18.409 C 6.494 19.147,7.069 19.561,7.986 20.023 C 9.734 20.904,11.751 21.196,13.624 20.838 C 17.261 20.145,20.048 17.390,20.818 13.727 C 21.022 12.752,21.040 11.341,20.858 10.460 C 20.458 8.518,19.666 6.995,18.393 5.723 C 17.579 4.909,17.017 4.498,16.040 4.003 C 14.758 3.354,13.952 3.149,12.261 3.041 C 11.496 2.992,11.579 2.989,10.960 3.082 M13.640 6.640 L 13.640 7.280 13.000 7.280 L 12.360 7.280 12.360 6.640 L 12.360 6.000 13.000 6.000 L 13.640 6.000 13.640 6.640 M9.800 8.600 L 9.800 9.240 9.180 9.240 L 8.560 9.240 8.560 8.600 L 8.560 7.960 9.180 7.960 L 9.800 7.960 9.800 8.600 M11.720 8.600 L 11.720 9.240 11.080 9.240 L 10.440 9.240 10.440 8.600 L 10.440 7.960 11.080 7.960 L 11.720 7.960 11.720 8.600 M13.640 8.600 L 13.640 9.240 13.000 9.240 L 12.360 9.240 12.360 8.600 L 12.360 7.960 13.000 7.960 L 13.640 7.960 13.640 8.600 M17.026 8.770 C 17.393 9.169,17.758 9.975,17.760 10.390 C 17.760 10.541,17.750 10.537,17.932 10.461 C 18.031 10.420,18.306 10.394,18.847 10.375 C 19.505 10.353,19.642 10.359,19.771 10.413 C 19.853 10.448,19.932 10.504,19.945 10.539 C 19.986 10.645,19.717 11.036,19.340 11.419 C 19.026 11.737,18.939 11.801,18.667 11.915 C 18.495 11.986,18.222 12.075,18.060 12.112 L 17.767 12.178 17.639 12.519 C 17.274 13.494,16.673 14.376,15.812 15.201 C 15.305 15.688,14.861 15.998,14.276 16.278 C 12.175 17.282,9.589 17.223,7.951 16.134 C 7.114 15.578,6.430 14.521,6.169 13.380 C 6.013 12.698,6.009 12.217,6.157 12.033 C 6.218 11.958,6.287 11.943,6.703 11.914 C 6.966 11.895,9.079 11.865,11.400 11.847 C 15.611 11.814,15.620 11.813,15.814 11.727 C 16.067 11.613,16.337 11.417,16.399 11.303 C 16.440 11.226,16.428 11.151,16.324 10.825 C 16.115 10.174,16.164 9.662,16.489 9.080 C 16.630 8.826,16.796 8.600,16.840 8.600 C 16.856 8.600,16.940 8.677,17.026 8.770 M7.920 10.174 C 7.920 10.335,7.908 10.632,7.894 10.834 L 7.868 11.200 7.254 11.200 L 6.640 11.200 6.640 10.540 L 6.640 9.880 7.280 9.880 L 7.920 9.880 7.920 10.174 M9.800 10.540 L 9.800 11.200 9.180 11.200 L 8.560 11.200 8.560 10.540 L 8.560 9.880 9.180 9.880 L 9.800 9.880 9.800 10.540 M11.720 10.540 L 11.720 11.200 11.106 11.200 L 10.492 11.200 10.466 10.930 C 10.452 10.782,10.440 10.485,10.440 10.270 L 10.440 9.880 11.080 9.880 L 11.720 9.880 11.720 10.540 M13.640 10.540 L 13.640 11.200 13.000 11.200 L 12.360 11.200 12.360 10.540 L 12.360 9.880 13.000 9.880 L 13.640 9.880 13.640 10.540 M15.560 10.174 C 15.560 10.335,15.548 10.632,15.534 10.834 L 15.508 11.200 14.894 11.200 L 14.280 11.200 14.280 10.540 L 14.280 9.880 14.920 9.880 L 15.560 9.880 15.560 10.174 " fill="#373B4D" stroke="none" fill-rule="evenodd"></path></svg>