<svg width="24" height="24" viewBox="0 0 24 24" fill="none" xmlns="http://www.w3.org/2000/svg"><path d="M11.078 3.060 C 9.848 3.209,8.988 3.464,7.940 3.990 C 7.026 4.450,6.304 4.981,5.557 5.746 C 3.305 8.050,2.464 11.369,3.348 14.460 C 4.062 16.957,5.924 19.127,8.246 20.166 C 9.610 20.777,10.903 21.039,12.300 20.988 C 16.060 20.851,19.315 18.422,20.516 14.858 C 21.158 12.953,21.159 11.050,20.521 9.160 C 20.065 7.807,19.417 6.743,18.443 5.746 C 17.703 4.988,17.012 4.478,16.080 4.002 C 14.842 3.370,13.865 3.114,12.395 3.040 C 11.507 2.995,11.624 2.994,11.078 3.060 M13.640 6.640 L 13.640 7.280 13.000 7.280 L 12.360 7.280 12.360 6.640 L 12.360 6.000 13.000 6.000 L 13.640 6.000 13.640 6.640 M9.800 8.600 L 9.800 9.240 9.180 9.240 L 8.560 9.240 8.560 8.600 L 8.560 7.960 9.180 7.960 L 9.800 7.960 9.800 8.600 M11.720 8.600 L 11.720 9.240 11.080 9.240 L 10.440 9.240 10.440 8.600 L 10.440 7.960 11.080 7.960 L 11.720 7.960 11.720 8.600 M13.640 8.600 L 13.640 9.240 13.000 9.240 L 12.360 9.240 12.360 8.600 L 12.360 7.960 13.000 7.960 L 13.640 7.960 13.640 8.600 M17.078 8.802 C 17.409 9.132,17.757 9.948,17.759 10.394 C 17.760 10.507,17.771 10.524,17.830 10.499 C 18.120 10.375,18.333 10.346,18.980 10.343 C 19.567 10.340,19.680 10.350,19.810 10.415 C 19.893 10.456,19.960 10.516,19.960 10.549 C 19.960 10.829,19.254 11.646,18.840 11.846 C 18.565 11.979,18.178 12.106,17.945 12.141 L 17.767 12.168 17.641 12.534 C 17.319 13.463,16.548 14.584,15.733 15.306 C 14.897 16.048,14.059 16.484,12.900 16.781 C 11.928 17.030,10.409 17.058,9.590 16.841 C 9.087 16.708,8.532 16.496,8.222 16.318 C 7.148 15.704,6.358 14.523,6.100 13.147 C 6.006 12.644,6.007 12.283,6.105 12.116 C 6.260 11.850,5.965 11.866,10.940 11.850 C 15.302 11.835,15.469 11.832,15.704 11.756 C 15.990 11.664,16.271 11.495,16.390 11.343 C 16.483 11.225,16.475 11.179,16.287 10.760 C 16.178 10.518,16.139 10.077,16.199 9.778 C 16.226 9.647,16.307 9.414,16.380 9.260 C 16.518 8.971,16.776 8.600,16.840 8.600 C 16.860 8.600,16.967 8.691,17.078 8.802 M7.920 10.294 C 7.920 10.522,7.908 10.819,7.894 10.954 L 7.869 11.200 7.254 11.200 L 6.640 11.200 6.640 10.540 L 6.640 9.880 7.280 9.880 L 7.920 9.880 7.920 10.294 M9.800 10.540 L 9.800 11.200 9.180 11.200 L 8.560 11.200 8.560 10.540 L 8.560 9.880 9.180 9.880 L 9.800 9.880 9.800 10.540 M11.720 10.540 L 11.720 11.200 11.106 11.200 L 10.491 11.200 10.466 10.990 C 10.452 10.875,10.441 10.578,10.440 10.330 L 10.440 9.880 11.080 9.880 L 11.720 9.880 11.720 10.540 M13.640 10.540 L 13.640 11.200 13.000 11.200 L 12.360 11.200 12.360 10.540 L 12.360 9.880 13.000 9.880 L 13.640 9.880 13.640 10.540 M15.560 10.294 C 15.560 10.522,15.548 10.819,15.534 10.954 L 15.509 11.200 14.894 11.200 L 14.280 11.200 14.280 10.540 L 14.280 9.880 14.920 9.880 L 15.560 9.880 15.560 10.294 " fill="#373B4D" stroke="none" fill-rule="evenodd"></path></svg>