<svg width="24" height="24" viewBox="0 0 24 24" fill="none" xmlns="http://www.w3.org/2000/svg"><path d="M11.100 3.063 C 9.829 3.256,9.005 3.504,8.044 3.983 C 6.965 4.520,6.287 5.020,5.461 5.888 C 4.742 6.644,4.278 7.320,3.876 8.200 C 3.275 9.514,3.023 10.635,3.023 12.000 C 3.023 13.269,3.243 14.333,3.748 15.517 C 4.477 17.223,5.956 18.884,7.548 19.784 C 10.693 21.563,14.485 21.336,17.345 19.198 C 17.797 18.860,18.528 18.164,18.906 17.713 C 19.686 16.779,20.331 15.537,20.661 14.333 C 20.920 13.388,20.940 13.217,20.939 11.940 C 20.939 10.871,20.932 10.750,20.848 10.400 C 20.335 8.265,19.674 7.030,18.320 5.680 C 17.541 4.903,16.965 4.482,16.040 4.012 C 14.821 3.393,13.966 3.177,12.202 3.041 C 11.564 2.992,11.561 2.992,11.100 3.063 M13.640 6.640 L 13.640 7.280 13.000 7.280 L 12.360 7.280 12.360 6.640 L 12.360 6.000 13.000 6.000 L 13.640 6.000 13.640 6.640 M9.800 8.600 L 9.800 9.240 9.180 9.240 L 8.560 9.240 8.560 8.600 L 8.560 7.960 9.180 7.960 L 9.800 7.960 9.800 8.600 M11.720 8.600 L 11.720 9.240 11.080 9.240 L 10.440 9.240 10.440 8.600 L 10.440 7.960 11.080 7.960 L 11.720 7.960 11.720 8.600 M13.640 8.600 L 13.640 9.240 13.000 9.240 L 12.360 9.240 12.360 8.600 L 12.360 7.960 13.000 7.960 L 13.640 7.960 13.640 8.600 M17.020 8.770 C 17.349 9.151,17.696 9.883,17.745 10.296 C 17.767 10.484,17.783 10.520,17.836 10.499 C 17.993 10.436,18.432 10.402,19.080 10.402 C 19.819 10.403,19.920 10.425,19.920 10.588 C 19.920 10.723,19.679 11.045,19.278 11.445 C 18.862 11.860,18.777 11.907,18.107 12.092 L 17.787 12.180 17.690 12.400 C 17.165 13.587,16.699 14.298,15.960 15.044 C 15.125 15.886,14.225 16.401,13.040 16.716 C 12.281 16.917,11.854 16.973,11.080 16.974 C 9.857 16.975,8.855 16.711,8.010 16.164 C 7.308 15.709,6.620 14.766,6.307 13.830 C 6.037 13.023,5.999 12.071,6.233 11.981 C 6.354 11.934,8.408 11.886,11.380 11.860 C 12.986 11.846,14.619 11.819,15.009 11.800 C 15.798 11.761,15.928 11.725,16.230 11.462 C 16.427 11.290,16.433 11.247,16.324 10.807 C 16.166 10.166,16.185 9.768,16.396 9.303 C 16.532 9.003,16.784 8.600,16.836 8.600 C 16.857 8.600,16.940 8.677,17.020 8.770 M7.920 10.114 C 7.920 10.242,7.908 10.539,7.894 10.774 L 7.868 11.200 7.254 11.200 L 6.640 11.200 6.640 10.540 L 6.640 9.880 7.280 9.880 L 7.920 9.880 7.920 10.114 M9.800 10.540 L 9.800 11.200 9.180 11.200 L 8.560 11.200 8.560 10.540 L 8.560 9.880 9.180 9.880 L 9.800 9.880 9.800 10.540 M11.720 10.540 L 11.720 11.200 11.106 11.200 L 10.492 11.200 10.466 10.870 C 10.452 10.688,10.440 10.392,10.440 10.210 L 10.440 9.880 11.080 9.880 L 11.720 9.880 11.720 10.540 M13.640 10.540 L 13.640 11.200 13.000 11.200 L 12.360 11.200 12.360 10.540 L 12.360 9.880 13.000 9.880 L 13.640 9.880 13.640 10.540 M15.560 10.114 C 15.560 10.242,15.548 10.539,15.534 10.774 L 15.508 11.200 14.894 11.200 L 14.280 11.200 14.280 10.540 L 14.280 9.880 14.920 9.880 L 15.560 9.880 15.560 10.114 " fill="#373B4D" stroke="none" fill-rule="evenodd"></path></svg>