<svg width="24" height="24" viewBox="0 0 24 24" fill="none" xmlns="http://www.w3.org/2000/svg"><path d="M11.340 3.024 C 10.026 3.160,9.091 3.415,8.060 3.918 C 5.287 5.272,3.420 7.913,3.059 10.992 C 2.666 14.352,4.239 17.669,7.120 19.560 C 7.929 20.090,9.126 20.589,10.092 20.797 C 14.142 21.669,18.255 19.669,20.083 15.940 C 21.302 13.453,21.302 10.547,20.083 8.060 C 19.190 6.237,17.762 4.810,15.944 3.923 C 15.066 3.494,14.269 3.244,13.320 3.101 C 12.911 3.039,11.662 2.991,11.340 3.024 M13.640 6.640 L 13.640 7.280 13.000 7.280 L 12.360 7.280 12.360 6.640 L 12.360 6.000 13.000 6.000 L 13.640 6.000 13.640 6.640 M9.800 8.600 L 9.800 9.240 9.180 9.240 L 8.560 9.240 8.560 8.600 L 8.560 7.960 9.180 7.960 L 9.800 7.960 9.800 8.600 M11.720 8.600 L 11.720 9.240 11.080 9.240 L 10.440 9.240 10.440 8.600 L 10.440 7.960 11.080 7.960 L 11.720 7.960 11.720 8.600 M13.640 8.600 L 13.640 9.240 13.000 9.240 L 12.360 9.240 12.360 8.600 L 12.360 7.960 13.000 7.960 L 13.640 7.960 13.640 8.600 M17.097 8.812 C 17.425 9.140,17.760 9.938,17.760 10.391 C 17.760 10.507,17.771 10.524,17.830 10.498 C 18.388 10.255,19.553 10.235,19.908 10.463 C 19.993 10.517,19.994 10.525,19.934 10.668 C 19.764 11.074,19.396 11.501,18.983 11.768 C 18.739 11.925,18.282 12.091,17.954 12.140 L 17.769 12.168 17.682 12.434 C 17.233 13.812,16.049 15.265,14.732 16.055 C 14.116 16.424,13.243 16.742,12.447 16.888 C 11.811 17.004,10.451 17.014,9.880 16.907 C 9.425 16.821,8.781 16.612,8.433 16.437 C 7.056 15.743,6.164 14.323,6.020 12.598 C 5.992 12.260,6.052 12.090,6.253 11.943 C 6.365 11.860,6.392 11.860,10.953 11.840 L 15.540 11.819 15.802 11.731 C 16.060 11.643,16.360 11.429,16.444 11.273 C 16.478 11.209,16.458 11.136,16.338 10.893 C 16.211 10.636,16.187 10.543,16.170 10.244 C 16.146 9.838,16.210 9.568,16.424 9.159 C 16.571 8.878,16.781 8.600,16.846 8.600 C 16.867 8.600,16.981 8.695,17.097 8.812 M7.911 10.530 L 7.900 11.180 7.270 11.191 L 6.640 11.202 6.640 10.541 L 6.640 9.880 7.281 9.880 L 7.922 9.880 7.911 10.530 M9.800 10.540 L 9.800 11.200 9.180 11.200 L 8.560 11.200 8.560 10.540 L 8.560 9.880 9.180 9.880 L 9.800 9.880 9.800 10.540 M11.720 10.541 L 11.720 11.202 11.090 11.191 L 10.460 11.180 10.449 10.530 L 10.438 9.880 11.079 9.880 L 11.720 9.880 11.720 10.541 M13.640 10.540 L 13.640 11.200 13.000 11.200 L 12.360 11.200 12.360 10.540 L 12.360 9.880 13.000 9.880 L 13.640 9.880 13.640 10.540 M15.551 10.530 L 15.540 11.180 14.910 11.191 L 14.280 11.202 14.280 10.541 L 14.280 9.880 14.921 9.880 L 15.562 9.880 15.551 10.530 " fill="#373B4D" stroke="none" fill-rule="evenodd"></path></svg>