<svg width="24" height="24" viewBox="0 0 24 24" fill="none" xmlns="http://www.w3.org/2000/svg">
<path fill-rule="evenodd" clip-rule="evenodd" d="M12 21C16.9706 21 21 16.9706 21 12C21 7.02944 16.9706 3 12 3C7.02944 3 3 7.02944 3 12C3 16.9706 7.02944 21 12 21ZM12.3636 6H13.6364V7.29412H12.3636V6ZM9.81818 7.94117H8.54545V9.23529H9.81818V7.94117ZM6.00098 12.4327C6.10973 14.31 7.20926 17 11.0909 17C15.4182 17 17.3485 13.7647 17.7727 12.1471C18.303 12.1471 19.4909 11.8235 20 10.5294C19.6818 10.2059 18.4091 10.2059 17.7727 10.5294C17.7727 10.0118 17.4545 8.91176 16.8182 8.58823C16.3939 9.0196 15.7364 10.1412 16.5 11.1765C16.1818 11.8235 15.3334 11.8235 14.9091 11.8235H14.9091H6.60003C6.26309 11.8235 5.98117 12.0907 6.00098 12.4327ZM6.63636 9.88235H7.90909V11.1765H6.63636V9.88235ZM8.54545 9.88235H9.81818V11.1765H8.54545V9.88235ZM10.4545 9.88235H11.7273V11.1765H10.4545V9.88235ZM12.3636 9.88235H13.6364V11.1765H12.3636V9.88235ZM14.2727 9.88235H15.5455V11.1765H14.2727V9.88235ZM11.7273 7.94117H10.4545V9.23529H11.7273V7.94117ZM13.6364 7.94117H12.3636V9.23529H13.6364V7.94117Z" fill="#373B4D"/>
</svg>
