<svg width="24" height="24" viewBox="0 0 24 24" fill="none" xmlns="http://www.w3.org/2000/svg"><path d="M10.968 3.083 C 9.781 3.265,9.002 3.497,8.100 3.938 C 7.097 4.427,6.399 4.929,5.611 5.726 C 4.765 6.580,4.258 7.321,3.785 8.391 C 2.745 10.745,2.751 13.289,3.802 15.650 C 4.455 17.116,5.737 18.624,7.082 19.505 C 9.031 20.782,11.477 21.266,13.720 20.817 C 17.475 20.065,20.340 17.034,20.905 13.216 C 20.984 12.679,20.995 11.326,20.924 10.840 C 20.852 10.352,20.594 9.369,20.409 8.880 C 19.913 7.571,19.341 6.692,18.324 5.676 C 17.475 4.828,16.789 4.349,15.690 3.835 C 14.630 3.340,13.817 3.153,12.233 3.041 C 11.523 2.991,11.575 2.990,10.968 3.083 M13.640 6.640 L 13.640 7.280 13.000 7.280 L 12.360 7.280 12.360 6.640 L 12.360 6.000 13.000 6.000 L 13.640 6.000 13.640 6.640 M9.800 8.600 L 9.800 9.240 9.180 9.240 L 8.560 9.240 8.560 8.600 L 8.560 7.960 9.180 7.960 L 9.800 7.960 9.800 8.600 M11.720 8.600 L 11.720 9.240 11.080 9.240 L 10.440 9.240 10.440 8.600 L 10.440 7.960 11.080 7.960 L 11.720 7.960 11.720 8.600 M13.640 8.600 L 13.640 9.240 13.000 9.240 L 12.360 9.240 12.360 8.600 L 12.360 7.960 13.000 7.960 L 13.640 7.960 13.640 8.600 M16.986 8.730 C 17.359 9.126,17.760 9.987,17.760 10.388 C 17.760 10.506,17.771 10.524,17.830 10.499 C 18.005 10.426,18.314 10.397,19.000 10.389 C 19.667 10.381,19.751 10.387,19.851 10.455 C 19.988 10.548,19.974 10.610,19.739 10.940 C 19.540 11.220,18.993 11.761,18.820 11.850 C 18.664 11.929,17.940 12.160,17.847 12.160 C 17.794 12.160,17.745 12.239,17.663 12.450 C 17.036 14.080,15.726 15.574,14.340 16.241 C 12.280 17.232,9.802 17.238,8.152 16.256 C 7.299 15.748,6.568 14.756,6.256 13.683 C 6.006 12.825,5.997 12.076,6.235 11.978 C 6.378 11.919,7.779 11.884,11.019 11.859 C 15.142 11.826,15.674 11.808,15.909 11.686 C 16.098 11.589,16.344 11.386,16.401 11.279 C 16.427 11.230,16.408 11.107,16.339 10.875 C 16.141 10.205,16.167 9.740,16.429 9.220 C 16.586 8.909,16.788 8.600,16.834 8.600 C 16.851 8.600,16.919 8.659,16.986 8.730 M7.920 10.150 C 7.920 10.298,7.908 10.595,7.894 10.810 L 7.868 11.200 7.254 11.200 L 6.640 11.200 6.640 10.540 L 6.640 9.880 7.280 9.880 L 7.920 9.880 7.920 10.150 M9.800 10.540 L 9.800 11.200 9.180 11.200 L 8.560 11.200 8.560 10.540 L 8.560 9.880 9.180 9.880 L 9.800 9.880 9.800 10.540 M11.720 10.540 L 11.720 11.200 11.106 11.200 L 10.492 11.200 10.466 10.894 C 10.452 10.726,10.440 10.429,10.440 10.234 L 10.440 9.880 11.080 9.880 L 11.720 9.880 11.720 10.540 M13.640 10.540 L 13.640 11.200 13.000 11.200 L 12.360 11.200 12.360 10.540 L 12.360 9.880 13.000 9.880 L 13.640 9.880 13.640 10.540 M15.560 10.150 C 15.560 10.298,15.548 10.595,15.534 10.810 L 15.508 11.200 14.894 11.200 L 14.280 11.200 14.280 10.540 L 14.280 9.880 14.920 9.880 L 15.560 9.880 15.560 10.150 " fill="#373B4D" stroke="none" fill-rule="evenodd"></path></svg>