<svg width="24" height="24" viewBox="0 0 24 24" fill="none" xmlns="http://www.w3.org/2000/svg"><path d="M7.695 2.558 L 6.330 2.580 6.095 2.740 C 5.626 3.060,5.170 3.586,4.900 4.120 L 4.788 4.340 4.811 7.720 C 4.823 9.579,4.846 11.132,4.861 11.170 C 4.876 11.208,4.903 11.240,4.921 11.240 C 4.939 11.240,5.212 11.093,5.527 10.913 C 6.243 10.504,7.121 10.081,7.540 9.942 C 8.033 9.779,8.346 9.755,9.840 9.768 L 11.220 9.780 11.620 9.933 C 12.210 10.160,13.287 10.690,13.657 10.937 C 14.877 11.750,15.872 13.116,16.429 14.743 L 16.620 15.300 16.619 16.760 C 16.618 18.216,16.618 18.221,16.512 18.610 C 16.362 19.155,16.117 19.712,15.670 20.523 C 15.148 21.469,15.128 21.515,15.201 21.565 C 15.294 21.628,16.879 21.580,17.240 21.502 C 17.956 21.349,18.405 21.006,18.917 20.219 L 19.200 19.784 19.199 15.822 C 19.197 11.592,19.151 8.690,19.078 8.301 C 18.989 7.832,18.892 7.711,17.192 5.964 C 15.487 4.211,14.344 3.128,13.851 2.798 L 13.436 2.520 11.248 2.528 C 10.045 2.533,8.446 2.546,7.695 2.558 M8.635 12.163 C 7.634 12.310,6.347 13.169,5.687 14.131 C 5.419 14.521,5.109 15.169,5.002 15.562 C 4.900 15.935,4.842 16.505,4.841 17.149 C 4.840 17.638,4.840 17.640,5.044 18.207 C 5.156 18.520,5.291 18.874,5.344 18.993 L 5.440 19.210 4.950 19.735 C 4.253 20.480,4.010 20.750,3.834 20.972 C 3.683 21.164,3.680 21.173,3.680 21.509 C 3.680 21.928,3.732 22.113,3.910 22.321 C 4.185 22.643,4.627 22.802,5.020 22.720 C 5.255 22.671,5.450 22.532,6.198 21.882 C 6.488 21.630,6.840 21.335,6.982 21.227 L 7.239 21.029 8.010 21.295 L 8.780 21.561 9.300 21.560 C 10.508 21.559,11.289 21.355,12.080 20.833 C 12.504 20.554,13.190 19.911,13.476 19.525 C 13.713 19.205,13.992 18.655,14.138 18.220 C 14.371 17.528,14.362 16.074,14.120 15.353 C 13.883 14.645,13.524 14.081,12.947 13.507 C 12.159 12.723,11.301 12.269,10.401 12.161 C 10.008 12.113,8.963 12.115,8.635 12.163 M9.920 14.521 C 10.463 14.577,10.792 14.743,11.225 15.180 C 11.473 15.429,11.588 15.583,11.705 15.824 L 11.860 16.140 11.860 16.820 L 11.860 17.500 11.729 17.777 C 11.539 18.177,10.968 18.743,10.556 18.939 C 9.620 19.383,8.524 19.126,7.829 18.300 C 7.469 17.872,7.367 17.629,7.315 17.074 C 7.260 16.500,7.302 16.215,7.498 15.820 C 7.741 15.329,8.162 14.900,8.637 14.661 C 8.982 14.487,9.279 14.454,9.920 14.521 " fill="#373B4D" stroke="none" fill-rule="evenodd"></path></svg>