<svg width="24" height="24" viewBox="0 0 24 24" fill="none" xmlns="http://www.w3.org/2000/svg"><path d="M8.800 2.558 L 6.340 2.580 6.140 2.719 C 5.868 2.908,5.462 3.319,5.193 3.681 C 4.779 4.235,4.820 3.825,4.823 7.440 C 4.825 10.715,4.840 11.160,4.946 11.160 C 4.979 11.160,5.540 10.901,6.193 10.585 C 6.846 10.269,7.482 9.973,7.606 9.927 C 7.817 9.850,7.950 9.842,9.566 9.816 L 11.300 9.788 11.940 10.077 C 12.688 10.415,13.129 10.648,13.600 10.951 C 14.812 11.732,15.682 12.895,16.397 14.691 L 16.600 15.201 16.598 15.831 C 16.593 17.177,16.530 18.531,16.460 18.760 C 16.423 18.881,16.141 19.509,15.833 20.155 C 15.525 20.802,15.263 21.392,15.251 21.466 L 15.229 21.601 15.945 21.579 C 17.466 21.531,17.845 21.405,18.480 20.736 C 18.645 20.561,18.875 20.281,18.990 20.113 L 19.200 19.807 19.199 17.033 C 19.197 13.497,19.134 8.964,19.080 8.507 C 19.034 8.119,18.956 7.929,18.712 7.620 C 18.246 7.030,15.509 4.250,14.580 3.423 C 14.360 3.228,14.016 2.944,13.816 2.794 L 13.453 2.520 12.356 2.528 C 11.753 2.532,10.153 2.546,8.800 2.558 M8.600 12.198 C 8.093 12.291,7.433 12.588,6.920 12.952 C 6.569 13.202,5.951 13.804,5.735 14.106 C 5.128 14.954,4.814 16.032,4.849 17.140 C 4.866 17.652,4.870 17.671,5.097 18.320 C 5.224 18.683,5.346 19.037,5.369 19.106 C 5.411 19.231,5.404 19.240,4.701 20.006 C 3.827 20.959,3.711 21.123,3.688 21.441 C 3.663 21.783,3.791 22.176,3.988 22.366 C 4.164 22.534,4.392 22.657,4.652 22.722 C 4.885 22.781,5.021 22.738,5.409 22.484 C 5.636 22.336,6.729 21.470,7.169 21.089 C 7.232 21.035,7.316 21.056,8.023 21.301 L 8.808 21.572 9.454 21.548 C 10.920 21.494,11.695 21.199,12.673 20.322 C 13.929 19.196,14.416 18.010,14.279 16.409 C 14.172 15.157,13.791 14.381,12.832 13.457 C 12.187 12.836,11.567 12.470,10.840 12.279 C 10.550 12.204,10.372 12.189,9.640 12.178 C 9.167 12.171,8.699 12.180,8.600 12.198 M10.563 14.729 C 10.925 14.909,11.207 15.151,11.471 15.509 C 11.820 15.984,11.815 15.965,11.833 16.829 L 11.848 17.598 11.658 17.869 C 11.384 18.257,10.850 18.771,10.592 18.892 C 10.331 19.016,9.782 19.160,9.573 19.160 C 9.342 19.160,8.857 19.013,8.545 18.849 C 8.065 18.597,7.608 18.058,7.432 17.535 C 7.332 17.240,7.296 16.669,7.358 16.353 C 7.385 16.214,7.458 15.992,7.522 15.860 C 7.735 15.414,8.262 14.876,8.700 14.658 C 8.893 14.562,8.924 14.559,9.583 14.570 L 10.267 14.581 10.563 14.729 " fill="#373B4D" stroke="none" fill-rule="evenodd"></path></svg>