<svg width="24" height="24" viewBox="0 0 24 24" fill="none" xmlns="http://www.w3.org/2000/svg"><path d="M8.578 2.520 L 6.457 2.546 6.206 2.680 C 5.733 2.932,5.195 3.530,4.885 4.148 L 4.800 4.317 4.801 12.008 L 4.801 19.700 4.962 19.994 C 5.330 20.671,5.821 21.147,6.509 21.494 L 6.717 21.600 12.000 21.600 L 17.283 21.600 17.491 21.495 C 18.108 21.184,18.757 20.587,18.968 20.135 C 19.083 19.891,19.089 19.846,19.122 19.110 C 19.140 18.686,19.168 16.099,19.182 13.360 L 19.208 8.380 19.031 8.075 C 18.933 7.907,18.751 7.637,18.625 7.475 C 18.288 7.040,16.395 5.082,15.446 4.187 C 14.372 3.174,14.172 3.002,13.740 2.717 L 13.380 2.480 12.040 2.487 C 11.303 2.491,9.745 2.506,8.578 2.520 M12.319 8.560 C 12.512 8.560,12.796 8.748,12.911 8.952 C 12.959 9.038,13.016 9.233,13.037 9.384 C 13.073 9.642,13.126 10.858,13.180 12.680 C 13.204 13.500,13.228 13.760,13.277 13.760 C 13.293 13.760,13.548 13.534,13.843 13.258 C 14.878 12.291,15.132 12.120,15.539 12.120 C 15.887 12.120,16.156 12.211,16.373 12.403 C 16.591 12.594,16.667 12.801,16.706 13.299 L 16.730 13.620 16.119 14.260 C 14.345 16.118,12.737 17.673,12.402 17.855 C 11.941 18.106,11.661 17.995,10.843 17.236 C 10.025 16.476,7.637 14.047,7.492 13.827 C 7.351 13.612,7.295 13.320,7.333 12.998 C 7.374 12.649,7.581 12.362,7.898 12.215 C 8.167 12.090,8.618 12.083,8.860 12.200 C 9.058 12.296,9.482 12.647,10.199 13.310 C 10.490 13.579,10.742 13.791,10.758 13.781 C 10.774 13.771,10.800 13.191,10.815 12.492 C 10.852 10.754,10.913 9.590,10.983 9.283 C 11.112 8.722,11.397 8.500,11.936 8.542 C 12.066 8.552,12.238 8.560,12.319 8.560 " fill="#373B4D" stroke="none" fill-rule="evenodd"></path></svg>