<svg width="24" height="24" viewBox="0 0 24 24" fill="none" xmlns="http://www.w3.org/2000/svg"><path d="M10.920 2.027 C 9.840 2.045,7.743 2.123,7.260 2.163 C 6.635 2.215,6.422 2.279,6.118 2.508 C 5.824 2.729,5.304 3.341,5.125 3.676 L 5.000 3.911 5.000 11.622 L 5.000 19.332 5.256 19.716 C 5.559 20.172,6.083 20.693,6.538 20.991 L 6.856 21.200 12.198 21.200 L 17.540 21.200 17.880 20.972 C 18.318 20.677,19.052 19.943,19.250 19.601 L 19.400 19.342 19.400 14.611 L 19.400 9.880 16.879 9.880 L 14.358 9.880 14.124 9.762 C 13.757 9.577,13.268 9.187,13.107 8.951 C 13.028 8.835,12.936 8.635,12.903 8.507 C 12.805 8.127,12.730 6.515,12.655 3.190 L 12.628 2.000 12.064 2.009 C 11.754 2.014,11.239 2.022,10.920 2.027 M14.667 2.856 C 14.652 2.895,14.640 4.044,14.640 5.410 L 14.640 7.893 16.570 7.864 C 18.433 7.836,19.211 7.803,19.265 7.748 C 19.305 7.709,19.193 7.559,18.682 6.966 C 18.220 6.430,16.848 4.983,15.417 3.524 C 14.840 2.935,14.688 2.800,14.667 2.856 " fill="#373B4D" stroke="none" fill-rule="evenodd"></path></svg>