<svg width="24" height="24" viewBox="0 0 24 24" fill="none" xmlns="http://www.w3.org/2000/svg"><path d="M7.080 2.438 C 6.681 2.462,6.530 2.488,6.333 2.570 C 5.677 2.841,5.136 3.420,4.917 4.085 L 4.820 4.380 4.820 12.000 L 4.820 19.620 4.917 19.915 C 5.151 20.625,5.775 21.249,6.485 21.483 L 6.780 21.580 12.000 21.580 L 17.220 21.580 17.515 21.483 C 17.878 21.363,18.202 21.158,18.493 20.862 C 18.949 20.398,19.107 20.049,19.162 19.381 C 19.182 19.138,19.199 16.589,19.199 13.716 C 19.200 8.725,19.197 8.483,19.126 8.276 C 18.970 7.825,18.805 7.566,18.392 7.130 C 17.673 6.371,15.846 4.538,14.950 3.677 C 14.052 2.815,13.847 2.661,13.400 2.514 C 13.146 2.430,13.078 2.428,10.360 2.418 C 8.831 2.413,7.355 2.422,7.080 2.438 M12.503 8.538 C 12.742 8.645,12.965 8.863,13.082 9.103 C 13.163 9.272,13.166 9.347,13.189 11.578 L 13.213 13.880 13.996 13.108 C 14.427 12.684,14.870 12.274,14.980 12.198 C 15.161 12.073,15.211 12.059,15.509 12.046 C 16.066 12.022,16.401 12.197,16.633 12.634 C 16.746 12.844,16.760 12.908,16.760 13.197 C 16.760 13.615,16.711 13.712,16.227 14.245 C 15.703 14.824,12.814 17.676,12.616 17.811 C 12.266 18.049,11.734 18.049,11.384 17.811 C 11.186 17.676,8.297 14.824,7.773 14.245 C 7.273 13.694,7.229 13.603,7.246 13.164 C 7.266 12.670,7.421 12.389,7.798 12.168 C 7.947 12.080,8.037 12.060,8.344 12.047 C 8.689 12.032,8.726 12.038,8.925 12.145 C 9.065 12.221,9.420 12.537,9.969 13.075 L 10.800 13.891 10.801 11.895 C 10.803 9.233,10.817 9.103,11.153 8.767 C 11.510 8.410,12.021 8.324,12.503 8.538 " fill="#373B4D" stroke="none" fill-rule="evenodd"></path></svg>