<svg width="24" height="24" viewBox="0 0 24 24" fill="none" xmlns="http://www.w3.org/2000/svg"><path d="M7.120 2.519 C 6.323 2.547,6.290 2.557,5.773 2.943 C 5.439 3.193,5.190 3.519,4.959 4.012 L 4.800 4.352 4.800 12.014 L 4.800 19.676 5.009 20.088 C 5.182 20.431,5.275 20.557,5.559 20.841 C 5.843 21.125,5.969 21.218,6.313 21.392 L 6.726 21.601 12.013 21.590 L 17.300 21.580 17.570 21.452 C 18.326 21.094,18.906 20.507,19.064 19.940 C 19.122 19.731,19.135 19.323,19.162 16.780 C 19.179 15.174,19.194 12.630,19.196 11.126 L 19.200 8.393 19.020 8.044 C 18.921 7.852,18.739 7.574,18.617 7.425 C 18.092 6.788,15.809 4.478,14.738 3.500 C 14.156 2.967,13.991 2.836,13.660 2.643 L 13.381 2.480 10.601 2.487 C 9.071 2.491,7.505 2.505,7.120 2.519 M16.200 11.014 C 16.580 11.291,16.654 11.423,16.703 11.919 C 16.745 12.349,16.681 12.525,16.363 12.844 C 16.139 13.068,16.073 13.111,15.920 13.134 C 15.821 13.148,14.018 13.172,11.914 13.186 L 8.088 13.213 7.887 13.065 C 7.455 12.748,7.282 12.454,7.281 12.032 C 7.280 11.695,7.391 11.382,7.583 11.185 C 7.864 10.896,7.800 10.905,9.620 10.879 C 10.522 10.866,12.318 10.852,13.611 10.848 L 15.961 10.840 16.200 11.014 M16.200 15.814 C 16.580 16.091,16.654 16.223,16.703 16.719 C 16.745 17.149,16.681 17.325,16.363 17.644 C 16.139 17.868,16.073 17.911,15.920 17.934 C 15.821 17.948,14.018 17.972,11.914 17.986 L 8.088 18.013 7.887 17.865 C 7.455 17.548,7.282 17.254,7.281 16.832 C 7.280 16.495,7.391 16.182,7.583 15.985 C 7.864 15.696,7.800 15.705,9.620 15.679 C 10.522 15.666,12.318 15.652,13.611 15.648 L 15.961 15.640 16.200 15.814 " fill="#373B4D" stroke="none" fill-rule="evenodd"></path></svg>