<svg width="24" height="24" viewBox="0 0 24 24" fill="none" xmlns="http://www.w3.org/2000/svg"><path d="M8.578 2.520 L 6.457 2.546 6.206 2.680 C 5.733 2.932,5.195 3.530,4.885 4.148 L 4.800 4.317 4.801 12.008 L 4.801 19.700 4.962 19.994 C 5.330 20.671,5.821 21.147,6.509 21.494 L 6.717 21.600 12.000 21.600 L 17.283 21.600 17.491 21.495 C 18.108 21.184,18.757 20.587,18.968 20.135 C 19.083 19.891,19.089 19.846,19.122 19.110 C 19.140 18.686,19.168 16.099,19.182 13.360 L 19.208 8.380 19.031 8.075 C 18.933 7.907,18.751 7.637,18.625 7.475 C 18.288 7.040,16.395 5.082,15.446 4.187 C 14.372 3.174,14.172 3.002,13.740 2.717 L 13.380 2.480 12.040 2.487 C 11.303 2.491,9.745 2.506,8.578 2.520 M16.295 11.130 C 16.629 11.460,16.640 11.492,16.640 12.081 L 16.640 12.473 16.483 12.671 C 16.397 12.780,16.243 12.938,16.141 13.021 L 15.955 13.174 11.998 13.192 L 8.042 13.211 7.744 12.913 C 7.491 12.660,7.437 12.581,7.378 12.380 C 7.260 11.973,7.357 11.489,7.615 11.206 C 7.766 11.040,7.984 10.957,8.333 10.934 C 8.701 10.909,12.496 10.857,14.611 10.847 L 16.002 10.840 16.295 11.130 M16.295 15.930 C 16.629 16.260,16.640 16.292,16.640 16.881 L 16.640 17.273 16.483 17.471 C 16.397 17.580,16.243 17.738,16.141 17.821 L 15.955 17.974 11.998 17.992 L 8.042 18.011 7.744 17.713 C 7.491 17.460,7.437 17.381,7.378 17.180 C 7.260 16.773,7.357 16.289,7.615 16.006 C 7.766 15.840,7.984 15.757,8.333 15.734 C 8.701 15.709,12.496 15.657,14.611 15.647 L 16.002 15.640 16.295 15.930 " fill="#373B4D" stroke="none" fill-rule="evenodd"></path></svg>