<svg width="24" height="24" viewBox="0 0 24 24" fill="none" xmlns="http://www.w3.org/2000/svg"><path d="M8.400 2.520 L 6.460 2.545 6.212 2.672 C 5.747 2.910,5.282 3.404,4.969 3.993 L 4.800 4.309 4.800 11.996 L 4.800 19.682 4.925 19.931 C 5.264 20.608,5.788 21.132,6.469 21.475 L 6.718 21.600 12.000 21.600 L 17.283 21.600 17.491 21.495 C 18.168 21.152,18.749 20.619,18.985 20.124 C 19.078 19.928,19.091 19.841,19.122 19.164 C 19.141 18.755,19.169 16.170,19.184 13.420 L 19.213 8.420 19.121 8.240 C 18.953 7.909,18.672 7.503,18.405 7.202 C 17.811 6.535,16.161 4.851,15.376 4.113 C 14.385 3.180,14.075 2.917,13.673 2.667 L 13.373 2.480 11.857 2.487 C 11.022 2.491,9.467 2.506,8.400 2.520 M16.243 12.263 C 16.594 12.549,16.660 12.706,16.660 13.247 L 16.660 13.634 16.496 13.866 C 16.406 13.993,16.251 14.153,16.152 14.222 L 15.970 14.347 14.579 14.373 C 13.813 14.388,12.033 14.400,10.623 14.400 L 8.059 14.400 7.871 14.245 C 7.469 13.913,7.322 13.643,7.321 13.235 C 7.320 12.940,7.382 12.725,7.538 12.491 C 7.677 12.280,7.898 12.163,8.208 12.135 C 8.494 12.109,12.233 12.056,14.476 12.047 L 15.971 12.040 16.243 12.263 " fill="#373B4D" stroke="none" fill-rule="evenodd"></path></svg>