<svg width="24" height="24" viewBox="0 0 24 24" fill="none" xmlns="http://www.w3.org/2000/svg"><path d="M6.800 2.507 C 6.390 2.547,6.311 2.572,6.025 2.759 C 5.861 2.866,5.654 3.020,5.564 3.102 C 5.351 3.294,5.081 3.705,4.924 4.075 L 4.799 4.370 4.810 12.035 L 4.820 19.700 4.987 20.050 C 5.299 20.702,5.698 21.101,6.350 21.413 L 6.700 21.580 11.951 21.590 L 17.202 21.601 17.491 21.488 C 18.078 21.260,18.732 20.698,18.956 20.228 C 19.169 19.781,19.172 19.714,19.176 13.796 L 19.180 8.373 18.992 7.994 C 18.839 7.686,18.720 7.522,18.352 7.118 C 17.699 6.399,15.923 4.607,15.051 3.787 C 14.250 3.034,13.954 2.793,13.594 2.601 L 13.369 2.480 10.154 2.486 C 8.386 2.490,6.877 2.499,6.800 2.507 M12.505 8.565 C 12.702 8.657,12.934 8.874,13.026 9.051 C 13.118 9.230,13.149 9.807,13.183 12.010 L 13.212 13.879 13.796 13.310 C 14.913 12.221,15.132 12.066,15.560 12.065 C 16.059 12.065,16.427 12.268,16.616 12.648 C 16.705 12.826,16.720 12.908,16.720 13.224 L 16.720 13.592 16.532 13.846 C 16.428 13.986,15.524 14.920,14.522 15.922 C 12.492 17.952,12.458 17.979,12.000 17.979 C 11.544 17.979,11.510 17.951,9.456 15.901 C 8.442 14.888,7.542 13.972,7.456 13.864 C 7.306 13.675,7.300 13.655,7.286 13.322 C 7.279 13.132,7.293 12.901,7.317 12.810 C 7.381 12.574,7.585 12.328,7.832 12.189 C 8.016 12.086,8.087 12.069,8.372 12.065 C 8.870 12.058,9.019 12.159,10.200 13.307 L 10.800 13.889 10.801 12.415 C 10.803 10.816,10.849 9.577,10.919 9.260 C 11.004 8.878,11.274 8.604,11.672 8.496 C 11.909 8.431,12.286 8.463,12.505 8.565 " fill="#373B4D" stroke="none" fill-rule="evenodd"></path></svg>