<svg width="24" height="24" viewBox="0 0 24 24" fill="none" xmlns="http://www.w3.org/2000/svg"><path d="M8.847 2.524 L 6.434 2.554 6.207 2.687 C 5.886 2.875,5.335 3.442,5.046 3.881 L 4.800 4.254 4.800 11.997 L 4.800 19.740 5.045 20.115 C 5.458 20.745,5.962 21.221,6.509 21.495 L 6.717 21.600 12.003 21.600 L 17.289 21.600 17.514 21.479 C 18.062 21.187,18.769 20.525,18.945 20.141 C 18.998 20.025,19.058 19.789,19.079 19.615 C 19.133 19.178,19.200 14.463,19.200 11.108 L 19.200 8.316 18.999 8.018 C 18.689 7.559,18.288 7.096,17.377 6.146 C 16.449 5.178,14.800 3.577,14.302 3.161 C 14.125 3.013,13.847 2.800,13.684 2.686 L 13.387 2.480 12.324 2.487 C 11.739 2.490,10.174 2.507,8.847 2.524 M12.648 8.707 C 13.010 8.955,13.020 9.020,13.142 11.880 C 13.177 12.705,13.218 13.467,13.233 13.573 L 13.260 13.766 14.000 13.120 C 14.407 12.765,14.848 12.404,14.980 12.317 C 15.210 12.166,15.232 12.160,15.551 12.160 C 15.837 12.160,15.914 12.176,16.111 12.276 C 16.237 12.339,16.371 12.425,16.408 12.467 C 16.533 12.605,16.634 12.895,16.681 13.250 L 16.727 13.599 16.607 13.750 C 16.353 14.068,12.847 17.515,12.600 17.688 C 12.127 18.022,11.922 18.029,11.457 17.727 C 11.020 17.444,9.141 15.610,7.933 14.287 C 7.466 13.777,7.410 13.687,7.357 13.367 C 7.282 12.914,7.455 12.516,7.829 12.278 C 7.999 12.171,8.047 12.160,8.362 12.160 C 8.874 12.160,8.919 12.188,10.095 13.218 C 10.422 13.505,10.701 13.736,10.715 13.732 C 10.772 13.714,10.797 13.390,10.839 12.080 C 10.909 9.890,10.965 9.279,11.126 8.936 C 11.270 8.629,11.488 8.552,12.120 8.585 C 12.442 8.602,12.523 8.620,12.648 8.707 " fill="#373B4D" stroke="none" fill-rule="evenodd"></path></svg>