<svg width="24" height="24" viewBox="0 0 24 24" fill="none" xmlns="http://www.w3.org/2000/svg"><path d="M6.551 2.521 C 5.984 2.618,5.209 3.367,4.917 4.100 L 4.821 4.340 4.807 7.040 C 4.792 10.001,4.819 11.280,4.896 11.280 C 4.923 11.280,5.132 11.158,5.362 11.008 C 6.418 10.321,7.178 9.981,8.120 9.775 C 8.410 9.711,8.631 9.700,9.620 9.702 C 10.680 9.704,10.811 9.712,11.140 9.793 C 11.733 9.940,12.111 10.076,12.678 10.346 C 13.898 10.928,14.775 11.682,15.527 12.799 C 15.867 13.304,16.270 14.122,16.434 14.642 C 16.845 15.944,16.838 17.663,16.415 19.011 C 16.264 19.493,15.941 20.147,15.532 20.803 C 15.057 21.564,15.061 21.555,15.142 21.586 C 15.240 21.624,16.982 21.571,17.280 21.522 C 17.619 21.465,18.044 21.255,18.323 21.006 C 18.568 20.786,18.882 20.355,19.075 19.971 L 19.200 19.722 19.196 15.111 C 19.194 12.575,19.179 10.005,19.163 9.400 C 19.131 8.176,19.119 8.118,18.811 7.644 C 18.631 7.368,14.862 3.568,14.301 3.097 C 14.081 2.913,13.785 2.704,13.643 2.631 L 13.384 2.500 10.062 2.494 C 8.235 2.491,6.655 2.503,6.551 2.521 M8.760 12.122 C 7.935 12.223,6.919 12.757,6.218 13.458 C 5.677 14.000,5.298 14.622,5.045 15.380 C 4.872 15.902,4.825 16.306,4.850 17.062 C 4.871 17.687,4.877 17.726,5.034 18.187 C 5.123 18.450,5.252 18.788,5.319 18.937 L 5.441 19.210 4.970 19.706 C 4.283 20.431,3.847 20.921,3.748 21.080 C 3.675 21.196,3.660 21.278,3.661 21.560 C 3.662 21.747,3.676 21.952,3.693 22.016 C 3.711 22.079,3.834 22.246,3.969 22.386 C 4.242 22.671,4.447 22.760,4.829 22.760 C 5.205 22.760,5.348 22.670,6.134 21.940 C 7.214 20.939,7.164 20.966,7.585 21.137 C 7.717 21.191,8.037 21.308,8.297 21.397 C 8.766 21.559,8.772 21.560,9.354 21.559 C 10.415 21.557,10.833 21.480,11.558 21.154 C 12.422 20.765,13.401 19.834,13.848 18.976 C 14.206 18.287,14.337 17.707,14.338 16.800 C 14.338 16.012,14.275 15.658,14.025 15.037 C 13.779 14.428,13.474 13.982,12.946 13.459 C 12.134 12.654,11.309 12.230,10.349 12.123 C 9.916 12.075,9.153 12.074,8.760 12.122 M10.032 14.478 C 10.528 14.550,11.080 14.887,11.436 15.336 C 11.850 15.858,11.934 16.143,11.913 16.952 L 11.899 17.500 11.722 17.836 C 11.153 18.915,9.969 19.430,8.900 19.065 C 8.186 18.821,7.598 18.247,7.354 17.555 C 7.233 17.211,7.223 16.453,7.336 16.120 C 7.503 15.629,7.737 15.292,8.150 14.948 C 8.680 14.507,9.249 14.365,10.032 14.478 " fill="#373B4D" stroke="none" fill-rule="evenodd"></path></svg>