<svg width="24" height="24" viewBox="0 0 24 24" fill="none" xmlns="http://www.w3.org/2000/svg"><path d="M11.040 2.476 L 10.100 2.504 9.809 2.657 C 9.287 2.933,8.779 3.487,8.501 4.084 L 8.401 4.300 8.400 9.589 L 8.400 14.877 8.595 15.258 C 8.935 15.921,9.279 16.265,9.943 16.606 L 10.325 16.801 14.412 16.791 L 18.500 16.780 18.897 16.586 C 19.234 16.421,19.348 16.337,19.665 16.025 C 20.138 15.557,20.280 15.281,20.326 14.742 C 20.343 14.543,20.370 12.764,20.385 10.788 L 20.413 7.196 20.243 6.862 C 20.023 6.428,19.660 6.019,18.161 4.516 C 16.455 2.806,16.184 2.597,15.579 2.520 C 15.175 2.469,12.236 2.440,11.040 2.476 M5.564 7.263 C 4.796 7.470,4.136 8.025,3.783 8.760 L 3.620 9.100 3.620 14.400 L 3.620 19.700 3.812 20.092 C 3.957 20.389,4.073 20.557,4.292 20.788 C 4.618 21.132,4.849 21.294,5.274 21.475 L 5.568 21.600 9.646 21.600 L 13.723 21.600 13.931 21.495 C 14.472 21.221,14.941 20.831,15.187 20.450 C 15.330 20.228,15.600 19.481,15.600 19.305 L 15.600 19.200 10.800 19.200 L 6.000 19.200 6.000 13.200 L 6.000 7.200 5.890 7.203 C 5.830 7.204,5.683 7.231,5.564 7.263 " fill="#373B4D" stroke="none" fill-rule="evenodd"></path></svg>