<svg width="24" height="24" viewBox="0 0 24 24" fill="none" xmlns="http://www.w3.org/2000/svg"><path d="M10.078 2.614 C 9.978 2.641,9.827 2.706,9.743 2.758 C 9.345 3.004,8.731 3.651,8.520 4.046 L 8.400 4.271 8.400 9.607 L 8.400 14.944 8.606 15.262 C 8.896 15.708,9.575 16.377,9.979 16.613 L 10.298 16.800 14.433 16.800 L 18.569 16.800 18.934 16.544 C 19.666 16.031,20.057 15.594,20.202 15.127 C 20.323 14.735,20.365 13.485,20.373 10.040 L 20.380 7.140 20.291 6.960 C 20.127 6.627,19.669 6.107,18.501 4.927 C 17.251 3.664,16.699 3.152,16.192 2.790 L 15.871 2.560 13.065 2.563 C 10.982 2.565,10.213 2.578,10.078 2.614 M5.608 7.281 C 4.816 7.563,4.050 8.236,3.665 8.988 C 3.606 9.105,3.600 9.587,3.600 14.400 L 3.600 19.683 3.686 19.852 C 4.010 20.490,4.710 21.190,5.348 21.514 L 5.517 21.600 9.628 21.600 L 13.740 21.599 13.970 21.470 C 14.418 21.216,15.085 20.578,15.266 20.229 C 15.350 20.066,15.560 19.445,15.560 19.359 C 15.560 19.300,15.472 19.289,14.810 19.266 C 14.398 19.252,12.247 19.229,10.030 19.214 L 6.000 19.187 6.000 13.194 L 6.000 7.200 5.910 7.203 C 5.861 7.205,5.725 7.240,5.608 7.281 " fill="#373B4D" stroke="none" fill-rule="evenodd"></path></svg>