<svg width="24" height="24" viewBox="0 0 24 24" fill="none" xmlns="http://www.w3.org/2000/svg"><path d="M8.400 2.520 L 6.460 2.545 6.212 2.672 C 5.747 2.910,5.282 3.404,4.969 3.993 L 4.800 4.309 4.800 11.996 L 4.800 19.682 4.925 19.931 C 5.264 20.608,5.788 21.132,6.469 21.475 L 6.718 21.600 12.000 21.600 L 17.283 21.600 17.491 21.495 C 18.168 21.152,18.749 20.619,18.985 20.124 C 19.078 19.928,19.091 19.841,19.122 19.164 C 19.141 18.755,19.169 16.170,19.184 13.420 L 19.213 8.420 19.121 8.240 C 18.953 7.909,18.672 7.503,18.405 7.202 C 17.811 6.535,16.161 4.851,15.376 4.113 C 14.385 3.180,14.075 2.917,13.673 2.667 L 13.373 2.480 11.857 2.487 C 11.022 2.491,9.467 2.506,8.400 2.520 M16.243 11.063 C 16.594 11.349,16.660 11.506,16.660 12.047 L 16.660 12.434 16.496 12.666 C 16.406 12.793,16.251 12.953,16.152 13.022 L 15.970 13.147 14.579 13.173 C 13.813 13.188,12.033 13.200,10.623 13.200 L 8.059 13.200 7.871 13.045 C 7.469 12.713,7.322 12.443,7.321 12.035 C 7.320 11.740,7.382 11.525,7.538 11.291 C 7.677 11.080,7.898 10.963,8.208 10.935 C 8.494 10.909,12.233 10.856,14.476 10.847 L 15.971 10.840 16.243 11.063 M16.243 15.863 C 16.594 16.149,16.660 16.306,16.660 16.847 L 16.660 17.234 16.496 17.466 C 16.406 17.593,16.251 17.753,16.152 17.822 L 15.970 17.947 14.579 17.973 C 13.813 17.988,12.033 18.000,10.623 18.000 L 8.059 18.000 7.871 17.845 C 7.469 17.513,7.322 17.243,7.321 16.835 C 7.320 16.540,7.382 16.325,7.538 16.091 C 7.677 15.880,7.898 15.763,8.208 15.735 C 8.494 15.709,12.233 15.656,14.476 15.647 L 15.971 15.640 16.243 15.863 " fill="#373B4D" stroke="none" fill-rule="evenodd"></path></svg>