<svg width="24" height="24" viewBox="0 0 24 24" fill="none" xmlns="http://www.w3.org/2000/svg"><path d="M6.495 2.557 C 6.238 2.599,5.905 2.827,5.520 3.225 C 5.229 3.525,5.134 3.656,4.980 3.974 L 4.793 4.359 4.809 7.729 C 4.818 9.583,4.839 11.132,4.857 11.170 C 4.874 11.208,4.909 11.240,4.934 11.240 C 4.959 11.240,5.205 11.103,5.480 10.937 C 6.391 10.384,7.160 10.031,7.880 9.833 C 8.209 9.743,8.268 9.740,9.641 9.745 L 11.061 9.750 11.635 9.941 C 12.326 10.171,13.077 10.535,13.666 10.925 C 14.273 11.327,15.035 12.094,15.450 12.720 C 16.052 13.628,16.475 14.616,16.624 15.460 C 16.721 16.006,16.720 17.434,16.624 18.052 C 16.495 18.876,16.242 19.554,15.737 20.429 C 15.587 20.688,15.387 21.035,15.293 21.199 C 15.198 21.363,15.120 21.524,15.120 21.555 C 15.120 21.637,16.986 21.590,17.340 21.500 C 18.046 21.321,18.545 20.892,19.021 20.056 L 19.200 19.742 19.196 15.981 C 19.195 13.912,19.179 11.347,19.163 10.280 C 19.129 8.099,19.135 8.142,18.820 7.699 C 18.484 7.226,15.177 3.869,14.320 3.130 C 14.155 2.988,13.885 2.792,13.721 2.696 L 13.422 2.520 10.041 2.525 C 8.181 2.528,6.586 2.542,6.495 2.557 M8.880 12.121 C 8.444 12.164,8.112 12.261,7.656 12.477 C 6.373 13.087,5.497 14.066,5.057 15.381 C 4.892 15.873,4.843 16.264,4.841 17.087 C 4.840 17.628,4.842 17.641,5.006 18.107 C 5.097 18.367,5.231 18.722,5.305 18.896 L 5.438 19.212 4.906 19.776 C 4.265 20.457,3.783 21.001,3.730 21.104 C 3.659 21.240,3.637 21.536,3.677 21.816 C 3.709 22.047,3.740 22.119,3.870 22.273 C 4.200 22.661,4.543 22.803,5.001 22.740 C 5.247 22.706,5.371 22.616,6.220 21.860 C 6.566 21.552,6.935 21.239,7.041 21.165 L 7.233 21.030 8.025 21.300 L 8.817 21.570 9.598 21.549 C 10.222 21.533,10.445 21.512,10.700 21.444 C 11.628 21.196,12.268 20.820,12.981 20.103 C 13.829 19.251,14.230 18.389,14.315 17.238 C 14.421 15.805,14.027 14.614,13.136 13.674 C 12.423 12.921,11.581 12.386,10.855 12.225 C 10.296 12.100,9.506 12.059,8.880 12.121 M10.151 14.526 C 10.520 14.596,10.908 14.822,11.246 15.164 C 11.782 15.705,11.957 16.216,11.904 17.080 C 11.868 17.656,11.721 17.958,11.241 18.444 C 10.733 18.957,10.268 19.159,9.592 19.160 C 9.165 19.160,8.725 19.033,8.377 18.808 C 8.041 18.590,7.639 18.141,7.463 17.784 C 7.323 17.500,7.316 17.466,7.293 16.950 C 7.271 16.475,7.278 16.381,7.352 16.137 C 7.557 15.465,8.132 14.839,8.776 14.588 C 9.112 14.457,9.662 14.432,10.151 14.526 " fill="#373B4D" stroke="none" fill-rule="evenodd"></path></svg>