<svg width="24" height="24" viewBox="0 0 24 24" fill="none" xmlns="http://www.w3.org/2000/svg"><path d="M8.158 2.519 L 6.456 2.543 6.238 2.649 C 5.745 2.891,5.288 3.376,4.960 4.006 L 4.800 4.312 4.800 11.997 L 4.800 19.682 4.925 19.931 C 5.283 20.640,5.760 21.117,6.469 21.475 L 6.718 21.600 12.000 21.600 L 17.282 21.600 17.531 21.475 C 18.161 21.157,18.739 20.635,18.961 20.183 C 19.083 19.937,19.089 19.897,19.122 19.233 C 19.141 18.852,19.169 16.261,19.185 13.476 L 19.213 8.411 19.044 8.096 C 18.950 7.922,18.774 7.649,18.651 7.488 C 18.352 7.095,16.520 5.197,15.556 4.280 C 14.399 3.180,14.081 2.908,13.619 2.627 L 13.378 2.480 11.619 2.487 C 10.652 2.491,9.094 2.505,8.158 2.519 M12.638 8.659 C 12.875 8.823,12.993 8.992,13.039 9.233 C 13.090 9.503,13.150 10.861,13.183 12.490 C 13.200 13.320,13.225 13.800,13.250 13.800 C 13.272 13.800,13.511 13.586,13.781 13.325 C 14.969 12.177,15.218 12.025,15.762 12.115 C 16.224 12.191,16.425 12.331,16.616 12.710 C 16.655 12.787,16.692 12.992,16.707 13.213 L 16.731 13.585 16.478 13.883 C 16.157 14.261,13.697 16.743,13.048 17.345 C 12.778 17.595,12.490 17.834,12.408 17.875 C 12.080 18.040,11.802 18.018,11.477 17.803 C 10.998 17.486,7.530 14.010,7.383 13.700 C 7.340 13.609,7.320 13.450,7.320 13.192 C 7.320 12.839,7.328 12.803,7.450 12.600 C 7.615 12.325,7.832 12.173,8.140 12.116 C 8.748 12.005,8.928 12.108,10.146 13.264 C 10.480 13.581,10.761 13.840,10.771 13.840 C 10.780 13.840,10.801 13.088,10.816 12.170 C 10.867 9.181,10.905 8.948,11.396 8.632 C 11.576 8.517,11.590 8.514,12.024 8.527 C 12.440 8.539,12.478 8.547,12.638 8.659 " fill="#373B4D" stroke="none" fill-rule="evenodd"></path></svg>