<svg width="24" height="24" viewBox="0 0 24 24" fill="none" xmlns="http://www.w3.org/2000/svg"><path d="M7.700 2.519 C 6.549 2.541,6.447 2.548,6.273 2.627 C 5.774 2.855,5.304 3.336,5.003 3.925 L 4.800 4.324 4.800 12.006 L 4.800 19.687 4.979 20.034 C 5.303 20.661,5.739 21.097,6.366 21.421 L 6.713 21.600 11.986 21.600 L 17.260 21.600 17.517 21.478 C 18.162 21.173,18.748 20.646,18.971 20.169 C 19.085 19.926,19.095 19.867,19.124 19.245 C 19.142 18.879,19.169 16.294,19.184 13.500 L 19.212 8.420 19.081 8.160 C 18.907 7.817,18.701 7.518,18.420 7.200 C 17.953 6.672,16.275 4.963,15.472 4.196 C 14.447 3.218,14.108 2.927,13.702 2.676 L 13.383 2.480 11.162 2.488 C 9.940 2.492,8.382 2.506,7.700 2.519 M16.238 12.251 C 16.380 12.366,16.529 12.517,16.569 12.586 C 16.675 12.767,16.743 13.334,16.684 13.548 C 16.627 13.757,16.371 14.085,16.152 14.230 L 15.986 14.340 14.443 14.365 C 13.594 14.379,11.811 14.393,10.480 14.395 L 8.060 14.400 7.828 14.217 C 7.433 13.907,7.253 13.539,7.291 13.115 C 7.331 12.670,7.617 12.244,7.939 12.152 C 8.111 12.103,10.615 12.060,14.080 12.048 L 15.980 12.042 16.238 12.251 " fill="#373B4D" stroke="none" fill-rule="evenodd"></path></svg>