<svg width="24" height="24" viewBox="0 0 24 24" fill="none" xmlns="http://www.w3.org/2000/svg"><path d="M10.775 2.478 C 10.102 2.503,10.085 2.505,9.832 2.634 C 9.325 2.891,8.842 3.397,8.568 3.958 L 8.420 4.260 8.420 9.580 L 8.420 14.900 8.587 15.249 C 8.905 15.914,9.286 16.295,9.951 16.613 L 10.300 16.780 14.352 16.791 L 18.404 16.801 18.702 16.682 C 19.098 16.523,19.367 16.345,19.674 16.036 C 19.994 15.715,20.146 15.496,20.250 15.207 C 20.326 14.996,20.335 14.843,20.367 13.080 C 20.386 12.035,20.397 10.271,20.391 9.160 L 20.380 7.140 20.208 6.794 C 20.053 6.483,19.953 6.361,19.224 5.594 C 17.999 4.305,16.701 3.046,16.380 2.836 C 15.935 2.544,15.824 2.514,15.080 2.477 C 14.334 2.440,11.809 2.441,10.775 2.478 M5.546 7.263 C 5.196 7.348,4.700 7.624,4.408 7.897 C 4.091 8.194,3.875 8.507,3.719 8.897 L 3.599 9.196 3.610 14.428 L 3.620 19.660 3.736 19.940 C 3.892 20.317,4.070 20.588,4.334 20.852 C 4.630 21.148,4.878 21.313,5.260 21.469 L 5.580 21.599 9.651 21.599 L 13.723 21.600 13.931 21.495 C 14.599 21.158,15.074 20.732,15.295 20.273 C 15.438 19.973,15.600 19.453,15.600 19.291 L 15.600 19.200 10.800 19.200 L 6.000 19.200 6.000 13.200 L 6.000 7.200 5.890 7.203 C 5.830 7.205,5.675 7.232,5.546 7.263 " fill="#373B4D" stroke="none" fill-rule="evenodd"></path></svg>