<svg width="24" height="24" viewBox="0 0 24 24" fill="none" xmlns="http://www.w3.org/2000/svg"><path d="M10.500 2.517 C 10.132 2.536,10.024 2.558,9.840 2.648 C 9.400 2.864,8.899 3.378,8.581 3.940 L 8.400 4.260 8.400 9.575 L 8.400 14.891 8.569 15.207 C 8.926 15.877,9.323 16.274,9.993 16.631 L 10.309 16.800 14.400 16.800 L 18.490 16.800 18.850 16.610 C 19.240 16.405,19.513 16.185,19.855 15.802 C 20.109 15.518,20.222 15.304,20.279 15.006 C 20.340 14.684,20.399 11.961,20.399 9.426 L 20.400 7.151 20.279 6.926 C 20.080 6.553,19.840 6.263,18.970 5.344 C 17.618 3.918,16.497 2.893,16.025 2.652 L 15.820 2.547 14.020 2.516 C 12.023 2.482,11.157 2.482,10.500 2.517 M5.600 7.263 C 4.854 7.459,4.177 8.027,3.763 8.804 L 3.600 9.109 3.600 14.398 L 3.600 19.687 3.779 20.034 C 3.975 20.414,4.290 20.815,4.579 21.054 C 4.681 21.139,4.931 21.296,5.133 21.403 L 5.500 21.598 9.611 21.599 L 13.722 21.600 13.956 21.482 C 14.454 21.231,14.932 20.811,15.211 20.380 C 15.328 20.198,15.600 19.442,15.600 19.296 L 15.600 19.200 10.800 19.200 L 6.000 19.200 6.000 13.200 L 6.000 7.200 5.910 7.203 C 5.861 7.204,5.721 7.231,5.600 7.263 " fill="#373B4D" stroke="none" fill-rule="evenodd"></path></svg>