<svg width="24" height="24" viewBox="0 0 24 24" fill="none" xmlns="http://www.w3.org/2000/svg"><path d="M7.120 2.519 C 6.323 2.547,6.290 2.557,5.773 2.943 C 5.439 3.193,5.190 3.519,4.959 4.012 L 4.800 4.352 4.800 12.014 L 4.800 19.676 5.009 20.088 C 5.182 20.431,5.275 20.557,5.559 20.841 C 5.843 21.125,5.969 21.218,6.313 21.392 L 6.726 21.601 12.013 21.590 L 17.300 21.580 17.570 21.452 C 18.326 21.094,18.906 20.507,19.064 19.940 C 19.122 19.731,19.135 19.323,19.162 16.780 C 19.179 15.174,19.194 12.630,19.196 11.126 L 19.200 8.393 19.020 8.044 C 18.921 7.852,18.739 7.574,18.617 7.425 C 18.092 6.788,15.809 4.478,14.738 3.500 C 14.156 2.967,13.991 2.836,13.660 2.643 L 13.381 2.480 10.601 2.487 C 9.071 2.491,7.505 2.505,7.120 2.519 M16.200 12.214 C 16.580 12.491,16.654 12.623,16.703 13.119 C 16.745 13.549,16.681 13.725,16.363 14.044 C 16.139 14.268,16.073 14.311,15.920 14.334 C 15.821 14.348,14.018 14.372,11.914 14.386 L 8.088 14.413 7.887 14.265 C 7.455 13.948,7.282 13.654,7.281 13.232 C 7.280 12.895,7.391 12.582,7.583 12.385 C 7.864 12.096,7.800 12.105,9.620 12.079 C 10.522 12.066,12.318 12.052,13.611 12.048 L 15.961 12.040 16.200 12.214 " fill="#373B4D" stroke="none" fill-rule="evenodd"></path></svg>