<svg width="24" height="24" viewBox="0 0 24 24" fill="none" xmlns="http://www.w3.org/2000/svg"><path d="M8.905 2.525 L 6.431 2.558 6.245 2.665 C 5.980 2.819,5.250 3.566,5.007 3.933 L 4.800 4.247 4.800 11.996 L 4.800 19.745 5.038 20.094 C 5.499 20.770,5.972 21.224,6.484 21.482 L 6.718 21.600 12.000 21.600 L 17.283 21.600 17.452 21.515 C 18.114 21.182,18.854 20.441,19.004 19.961 C 19.124 19.578,19.154 18.420,19.186 12.978 L 19.213 8.335 19.010 8.038 C 18.709 7.594,18.363 7.193,17.453 6.232 C 16.642 5.375,14.727 3.515,14.260 3.129 C 14.128 3.020,13.879 2.829,13.706 2.705 L 13.392 2.480 12.386 2.486 C 11.833 2.490,10.266 2.508,8.905 2.525 M12.353 8.622 C 12.593 8.693,12.813 8.870,12.918 9.076 C 13.025 9.286,13.080 9.800,13.182 11.545 L 13.208 11.991 13.674 12.017 C 16.073 12.151,16.265 12.196,16.514 12.680 C 16.640 12.926,16.646 12.956,16.625 13.248 C 16.613 13.417,16.578 13.615,16.547 13.688 C 16.466 13.879,16.082 14.226,15.895 14.276 C 15.626 14.348,14.852 14.399,14.015 14.400 L 13.210 14.400 13.183 14.890 C 13.061 17.124,13.017 17.355,12.647 17.689 C 12.198 18.095,11.353 17.904,11.064 17.332 C 10.964 17.132,10.901 16.521,10.816 14.910 L 10.789 14.400 10.003 14.400 C 9.570 14.400,8.974 14.381,8.678 14.358 C 7.998 14.305,7.815 14.228,7.569 13.893 L 7.400 13.663 7.400 13.178 C 7.400 12.704,7.403 12.688,7.517 12.530 C 7.748 12.212,8.087 12.150,10.344 12.018 L 10.789 11.992 10.816 11.446 C 10.850 10.760,10.952 9.613,11.002 9.347 C 11.043 9.132,11.181 8.866,11.313 8.746 C 11.514 8.564,11.974 8.509,12.353 8.622 " fill="#373B4D" stroke="none" fill-rule="evenodd"></path></svg>