<svg width="24" height="24" viewBox="0 0 24 24" fill="none" xmlns="http://www.w3.org/2000/svg"><path d="M8.175 2.558 L 6.330 2.580 6.115 2.728 C 5.669 3.035,5.216 3.546,4.938 4.055 L 4.788 4.329 4.811 7.715 C 4.824 9.577,4.846 11.132,4.861 11.170 C 4.876 11.208,4.900 11.240,4.914 11.240 C 4.928 11.240,5.201 11.095,5.520 10.919 C 6.594 10.326,7.348 9.983,7.865 9.851 C 8.104 9.791,8.346 9.782,9.700 9.782 L 11.260 9.783 11.720 9.974 C 12.393 10.255,13.394 10.764,13.750 11.007 C 13.920 11.124,14.255 11.409,14.494 11.640 C 15.361 12.478,16.002 13.514,16.439 14.780 L 16.604 15.260 16.591 16.860 L 16.578 18.460 16.442 18.860 C 16.325 19.207,16.122 19.627,15.305 21.213 C 15.170 21.475,15.153 21.532,15.202 21.566 C 15.291 21.627,16.846 21.576,17.216 21.499 C 17.938 21.350,18.384 21.012,18.929 20.200 L 19.211 19.780 19.186 14.600 C 19.161 9.343,19.138 8.436,19.023 8.090 C 18.928 7.803,18.641 7.467,17.329 6.110 C 15.552 4.270,14.385 3.168,13.748 2.728 L 13.447 2.520 11.733 2.528 C 10.791 2.532,9.190 2.546,8.175 2.558 M8.716 12.163 C 7.954 12.244,7.028 12.741,6.266 13.479 C 5.803 13.927,5.504 14.356,5.239 14.954 C 4.940 15.628,4.841 16.164,4.840 17.116 C 4.840 17.580,4.849 17.641,4.980 18.022 C 5.057 18.248,5.191 18.608,5.277 18.823 L 5.434 19.213 4.782 19.917 C 3.982 20.780,3.763 21.033,3.716 21.153 C 3.662 21.290,3.676 21.838,3.737 22.010 C 3.860 22.354,4.149 22.598,4.555 22.702 C 5.022 22.822,5.198 22.734,6.200 21.882 C 6.541 21.592,6.915 21.281,7.030 21.192 L 7.241 21.030 8.010 21.295 L 8.780 21.561 9.301 21.561 C 10.724 21.559,11.582 21.272,12.531 20.479 C 13.854 19.375,14.397 18.160,14.303 16.515 C 14.233 15.305,13.878 14.491,13.041 13.625 C 12.163 12.716,11.322 12.270,10.280 12.161 C 9.843 12.115,9.157 12.116,8.716 12.163 M10.248 14.586 C 10.798 14.709,11.405 15.238,11.717 15.868 L 11.840 16.116 11.840 16.832 L 11.840 17.549 11.710 17.804 C 11.525 18.168,10.942 18.747,10.593 18.914 C 9.683 19.348,8.700 19.174,7.984 18.451 C 7.704 18.170,7.511 17.884,7.422 17.621 C 7.335 17.363,7.282 16.728,7.322 16.404 C 7.419 15.602,8.291 14.658,9.064 14.520 C 9.313 14.475,9.901 14.508,10.248 14.586 " fill="#373B4D" stroke="none" fill-rule="evenodd"></path></svg>