<svg width="24" height="24" viewBox="0 0 24 24" fill="none" xmlns="http://www.w3.org/2000/svg"><path d="M8.847 2.524 L 6.434 2.554 6.207 2.687 C 5.886 2.875,5.335 3.442,5.046 3.881 L 4.800 4.254 4.800 11.997 L 4.800 19.740 5.045 20.115 C 5.458 20.745,5.962 21.221,6.509 21.495 L 6.717 21.600 12.003 21.600 L 17.289 21.600 17.514 21.479 C 18.062 21.187,18.769 20.525,18.945 20.141 C 18.998 20.025,19.058 19.789,19.079 19.615 C 19.133 19.178,19.200 14.463,19.200 11.108 L 19.200 8.316 18.999 8.018 C 18.689 7.559,18.288 7.096,17.377 6.146 C 16.449 5.178,14.800 3.577,14.302 3.161 C 14.125 3.013,13.847 2.800,13.684 2.686 L 13.387 2.480 12.324 2.487 C 11.739 2.490,10.174 2.507,8.847 2.524 M12.541 8.681 C 12.764 8.789,12.936 9.012,12.996 9.271 C 13.051 9.509,13.104 10.112,13.162 11.160 C 13.187 11.611,13.210 11.983,13.214 11.986 C 13.217 11.989,13.616 12.013,14.100 12.038 C 16.055 12.141,16.301 12.208,16.541 12.698 C 16.639 12.900,16.648 12.953,16.632 13.251 C 16.621 13.459,16.588 13.630,16.542 13.717 C 16.434 13.925,16.112 14.218,15.934 14.271 C 15.678 14.348,14.917 14.399,14.035 14.400 L 13.210 14.400 13.183 14.930 C 13.135 15.876,13.079 16.654,13.037 16.940 C 12.932 17.661,12.419 18.037,11.771 17.868 C 11.280 17.739,11.039 17.480,10.964 17.000 C 10.923 16.733,10.864 15.919,10.816 14.950 L 10.789 14.400 10.005 14.399 C 9.108 14.398,8.255 14.344,8.044 14.276 C 7.828 14.206,7.708 14.107,7.536 13.856 L 7.380 13.630 7.380 13.182 C 7.381 12.757,7.387 12.724,7.493 12.563 C 7.734 12.200,8.017 12.145,10.330 12.017 L 10.800 11.990 10.800 11.882 C 10.800 11.220,10.943 9.487,11.020 9.220 C 11.086 8.990,11.270 8.748,11.454 8.652 C 11.723 8.509,12.214 8.522,12.541 8.681 " fill="#373B4D" stroke="none" fill-rule="evenodd"></path></svg>