<svg width="24" height="24" viewBox="0 0 24 24" fill="none" xmlns="http://www.w3.org/2000/svg"><path d="M7.280 2.040 C 6.877 2.062,6.732 2.088,6.533 2.170 C 5.877 2.441,5.336 3.020,5.117 3.685 L 5.020 3.980 5.020 11.600 L 5.020 19.220 5.117 19.515 C 5.351 20.225,5.975 20.849,6.685 21.083 L 6.980 21.180 12.200 21.180 L 17.420 21.180 17.715 21.083 C 18.410 20.854,19.014 20.261,19.272 19.555 L 19.380 19.260 19.391 14.570 L 19.403 9.880 16.883 9.880 L 14.362 9.880 14.044 9.764 C 13.869 9.700,13.646 9.593,13.549 9.526 C 13.286 9.346,12.980 8.991,12.839 8.704 C 12.730 8.483,12.710 8.388,12.678 7.956 C 12.659 7.683,12.642 6.232,12.641 4.730 L 12.640 2.000 10.210 2.006 C 8.873 2.010,7.555 2.025,7.280 2.040 M14.640 5.310 L 14.640 7.880 16.960 7.880 C 19.634 7.880,19.387 7.929,19.142 7.443 C 18.970 7.103,18.370 6.461,16.184 4.280 L 14.640 2.740 14.640 5.310 " fill="#373B4D" stroke="none" fill-rule="evenodd"></path></svg>