<svg width="24" height="24" viewBox="0 0 24 24" fill="none" xmlns="http://www.w3.org/2000/svg"><path d="M6.800 2.507 C 6.390 2.547,6.311 2.572,6.025 2.759 C 5.861 2.866,5.654 3.020,5.564 3.102 C 5.351 3.294,5.081 3.705,4.924 4.075 L 4.799 4.370 4.810 12.035 L 4.820 19.700 4.987 20.050 C 5.299 20.702,5.698 21.101,6.350 21.413 L 6.700 21.580 11.951 21.590 L 17.202 21.601 17.491 21.488 C 18.078 21.260,18.732 20.698,18.956 20.228 C 19.169 19.781,19.172 19.714,19.176 13.796 L 19.180 8.373 18.992 7.994 C 18.839 7.686,18.720 7.522,18.352 7.118 C 17.699 6.399,15.923 4.607,15.051 3.787 C 14.250 3.034,13.954 2.793,13.594 2.601 L 13.369 2.480 10.154 2.486 C 8.386 2.490,6.877 2.499,6.800 2.507 M16.267 8.664 C 16.615 8.909,16.665 9.003,16.694 9.468 C 16.707 9.684,16.730 11.771,16.745 14.107 L 16.771 18.354 16.629 18.547 C 16.302 18.990,15.992 19.175,15.580 19.172 C 15.271 19.170,15.016 19.058,14.778 18.820 C 14.451 18.493,14.477 18.889,14.452 13.804 L 14.429 9.260 14.605 9.000 C 14.730 8.814,14.843 8.702,15.000 8.608 C 15.216 8.478,15.228 8.475,15.627 8.488 C 16.032 8.500,16.036 8.501,16.267 8.664 M12.667 11.064 C 12.990 11.291,13.065 11.415,13.094 11.769 C 13.107 11.929,13.130 13.477,13.144 15.209 L 13.171 18.359 13.059 18.509 C 12.860 18.779,12.664 18.965,12.479 19.060 C 11.943 19.334,11.434 19.168,10.997 18.576 L 10.840 18.363 10.840 15.005 L 10.840 11.647 11.010 11.394 C 11.131 11.213,11.243 11.102,11.400 11.008 C 11.616 10.878,11.628 10.875,12.027 10.888 C 12.432 10.900,12.436 10.901,12.667 11.064 M8.902 13.361 C 9.124 13.468,9.352 13.694,9.444 13.897 C 9.513 14.049,9.518 14.204,9.519 16.241 C 9.520 18.675,9.546 18.454,9.224 18.793 C 9.035 18.993,8.846 19.100,8.579 19.160 C 8.194 19.246,7.690 19.022,7.431 18.649 L 7.300 18.460 7.274 17.720 C 7.259 17.313,7.246 16.320,7.244 15.514 L 7.240 14.047 7.410 13.794 C 7.531 13.612,7.642 13.503,7.798 13.410 C 8.001 13.289,8.042 13.280,8.376 13.280 C 8.655 13.280,8.772 13.298,8.902 13.361 " fill="#373B4D" stroke="none" fill-rule="evenodd"></path></svg>