<svg width="24" height="24" viewBox="0 0 24 24" fill="none" xmlns="http://www.w3.org/2000/svg"><path d="M8.578 2.520 L 6.457 2.546 6.206 2.680 C 5.733 2.932,5.195 3.530,4.885 4.148 L 4.800 4.317 4.801 12.008 L 4.801 19.700 4.962 19.994 C 5.330 20.671,5.821 21.147,6.509 21.494 L 6.717 21.600 12.000 21.600 L 17.283 21.600 17.491 21.495 C 18.108 21.184,18.757 20.587,18.968 20.135 C 19.083 19.891,19.089 19.846,19.122 19.110 C 19.140 18.686,19.168 16.099,19.182 13.360 L 19.208 8.380 19.031 8.075 C 18.933 7.907,18.751 7.637,18.625 7.475 C 18.288 7.040,16.395 5.082,15.446 4.187 C 14.372 3.174,14.172 3.002,13.740 2.717 L 13.380 2.480 12.040 2.487 C 11.303 2.491,9.745 2.506,8.578 2.520 M16.295 12.330 C 16.629 12.660,16.640 12.692,16.640 13.281 L 16.640 13.673 16.483 13.871 C 16.397 13.980,16.243 14.138,16.141 14.221 L 15.955 14.374 11.998 14.392 L 8.042 14.411 7.744 14.113 C 7.491 13.860,7.437 13.781,7.378 13.580 C 7.260 13.173,7.357 12.689,7.615 12.406 C 7.766 12.240,7.984 12.157,8.333 12.134 C 8.701 12.109,12.496 12.057,14.611 12.047 L 16.002 12.040 16.295 12.330 " fill="#373B4D" stroke="none" fill-rule="evenodd"></path></svg>