<svg width="24" height="24" viewBox="0 0 24 24" fill="none" xmlns="http://www.w3.org/2000/svg"><path d="M7.700 2.519 C 6.549 2.541,6.447 2.548,6.273 2.627 C 5.774 2.855,5.304 3.336,5.003 3.925 L 4.800 4.324 4.800 12.006 L 4.800 19.687 4.979 20.034 C 5.303 20.661,5.739 21.097,6.366 21.421 L 6.713 21.600 11.986 21.600 L 17.260 21.600 17.517 21.478 C 18.162 21.173,18.748 20.646,18.971 20.169 C 19.085 19.926,19.095 19.867,19.124 19.245 C 19.142 18.879,19.169 16.294,19.184 13.500 L 19.212 8.420 19.081 8.160 C 18.907 7.817,18.701 7.518,18.420 7.200 C 17.953 6.672,16.275 4.963,15.472 4.196 C 14.447 3.218,14.108 2.927,13.702 2.676 L 13.383 2.480 11.162 2.488 C 9.940 2.492,8.382 2.506,7.700 2.519 M15.915 8.522 C 16.172 8.582,16.518 8.825,16.590 8.997 C 16.679 9.209,16.710 10.390,16.741 14.660 L 16.768 18.380 16.565 18.617 C 16.453 18.748,16.269 18.919,16.157 18.997 C 15.959 19.135,15.939 19.140,15.606 19.138 C 15.191 19.135,15.030 19.065,14.754 18.770 C 14.623 18.631,14.562 18.527,14.544 18.417 C 14.511 18.206,14.441 13.220,14.440 11.005 L 14.440 9.231 14.584 9.035 C 14.766 8.787,15.043 8.559,15.210 8.519 C 15.398 8.474,15.714 8.476,15.915 8.522 M12.578 11.017 C 12.800 11.147,12.985 11.360,13.039 11.549 C 13.068 11.647,13.099 12.874,13.127 15.029 L 13.172 18.357 13.058 18.506 C 12.770 18.883,12.415 19.131,12.087 19.183 C 11.762 19.235,11.360 19.013,11.010 18.587 L 10.840 18.381 10.840 15.007 L 10.840 11.634 11.022 11.398 C 11.212 11.150,11.474 10.942,11.642 10.907 C 11.696 10.895,11.890 10.893,12.074 10.901 C 12.339 10.913,12.442 10.937,12.578 11.017 M8.898 13.377 C 8.971 13.407,9.103 13.497,9.191 13.577 C 9.493 13.849,9.480 13.737,9.479 16.146 C 9.479 17.331,9.462 18.370,9.442 18.455 C 9.395 18.658,9.165 18.891,8.864 19.042 C 8.393 19.277,7.921 19.171,7.527 18.740 C 7.360 18.557,7.328 18.496,7.307 18.313 C 7.293 18.196,7.269 17.189,7.254 16.075 L 7.227 14.051 7.415 13.806 C 7.599 13.568,7.859 13.353,8.020 13.307 C 8.153 13.269,8.755 13.317,8.898 13.377 " fill="#373B4D" stroke="none" fill-rule="evenodd"></path></svg>