<svg width="24" height="24" viewBox="0 0 24 24" fill="none" xmlns="http://www.w3.org/2000/svg"><path d="M8.400 2.520 L 6.460 2.545 6.212 2.672 C 5.747 2.910,5.282 3.404,4.969 3.993 L 4.800 4.309 4.800 11.996 L 4.800 19.682 4.925 19.931 C 5.264 20.608,5.788 21.132,6.469 21.475 L 6.718 21.600 12.000 21.600 L 17.283 21.600 17.491 21.495 C 18.168 21.152,18.749 20.619,18.985 20.124 C 19.078 19.928,19.091 19.841,19.122 19.164 C 19.141 18.755,19.169 16.170,19.184 13.420 L 19.213 8.420 19.121 8.240 C 18.953 7.909,18.672 7.503,18.405 7.202 C 17.811 6.535,16.161 4.851,15.376 4.113 C 14.385 3.180,14.075 2.917,13.673 2.667 L 13.373 2.480 11.857 2.487 C 11.022 2.491,9.467 2.506,8.400 2.520 M12.368 8.565 C 12.659 8.627,12.925 8.888,13.016 9.200 C 13.085 9.439,13.141 10.127,13.184 11.265 L 13.211 11.990 13.916 12.017 C 14.957 12.057,15.839 12.119,16.014 12.165 C 16.206 12.215,16.490 12.474,16.598 12.696 C 16.718 12.944,16.712 13.429,16.586 13.701 C 16.466 13.957,16.135 14.261,15.933 14.299 C 15.627 14.356,14.833 14.398,14.035 14.399 L 13.210 14.400 13.183 15.170 C 13.153 16.015,13.098 16.854,13.056 17.118 C 13.021 17.336,12.828 17.618,12.606 17.776 C 12.439 17.895,12.416 17.900,12.026 17.900 C 11.656 17.900,11.604 17.890,11.434 17.791 C 11.221 17.666,11.012 17.421,10.959 17.236 C 10.912 17.072,10.850 16.189,10.816 15.190 L 10.789 14.400 9.965 14.398 C 8.859 14.395,8.087 14.346,7.937 14.269 C 7.872 14.235,7.726 14.110,7.613 13.989 C 7.354 13.716,7.302 13.546,7.333 13.063 C 7.353 12.752,7.371 12.685,7.473 12.543 C 7.624 12.332,7.796 12.216,8.036 12.165 C 8.258 12.117,9.111 12.057,10.105 12.018 L 10.790 11.991 10.817 11.306 C 10.876 9.779,10.918 9.314,11.015 9.100 C 11.114 8.883,11.283 8.701,11.489 8.590 C 11.641 8.508,12.045 8.496,12.368 8.565 " fill="#373B4D" stroke="none" fill-rule="evenodd"></path></svg>