<svg width="24" height="24" viewBox="0 0 24 24" fill="none" xmlns="http://www.w3.org/2000/svg"><path d="M8.814 2.522 L 6.447 2.550 6.216 2.682 C 5.782 2.931,5.272 3.479,4.924 4.072 L 4.800 4.284 4.800 12.000 L 4.800 19.716 4.922 19.923 C 5.375 20.691,5.849 21.161,6.509 21.494 L 6.717 21.600 12.009 21.600 L 17.300 21.600 17.621 21.419 C 18.158 21.115,18.772 20.528,18.962 20.135 C 19.006 20.044,19.060 19.819,19.083 19.635 C 19.133 19.217,19.196 14.442,19.198 10.947 L 19.200 8.314 18.956 7.957 C 18.535 7.342,17.992 6.746,16.443 5.199 C 14.898 3.656,14.274 3.086,13.706 2.701 L 13.380 2.480 12.280 2.487 C 11.675 2.490,10.115 2.506,8.814 2.522 M16.256 11.083 C 16.582 11.435,16.611 11.508,16.632 12.022 L 16.649 12.464 16.430 12.723 C 16.309 12.866,16.139 13.031,16.053 13.091 L 15.896 13.200 11.951 13.200 L 8.007 13.200 7.758 12.930 C 7.425 12.569,7.362 12.423,7.361 12.009 C 7.360 11.720,7.375 11.648,7.479 11.442 C 7.677 11.050,7.851 10.974,8.640 10.936 C 9.173 10.910,12.773 10.858,14.806 10.847 L 16.031 10.840 16.256 11.083 M16.256 15.883 C 16.582 16.235,16.611 16.308,16.632 16.822 L 16.649 17.264 16.430 17.523 C 16.309 17.666,16.139 17.831,16.053 17.891 L 15.896 18.000 11.951 18.000 L 8.007 18.000 7.758 17.730 C 7.425 17.369,7.362 17.223,7.361 16.809 C 7.360 16.520,7.375 16.448,7.479 16.242 C 7.677 15.850,7.851 15.774,8.640 15.736 C 9.173 15.710,12.773 15.658,14.806 15.647 L 16.031 15.640 16.256 15.883 " fill="#373B4D" stroke="none" fill-rule="evenodd"></path></svg>