<svg width="24" height="24" viewBox="0 0 24 24" fill="none" xmlns="http://www.w3.org/2000/svg"><path d="M8.900 2.558 L 6.340 2.580 6.159 2.706 C 5.925 2.868,5.264 3.559,5.067 3.846 C 4.983 3.969,4.896 4.139,4.875 4.225 C 4.774 4.621,4.802 11.018,4.904 11.120 C 4.957 11.173,4.979 11.164,6.435 10.472 C 7.354 10.036,7.668 9.905,7.857 9.879 C 7.991 9.861,8.820 9.833,9.700 9.818 L 11.300 9.790 11.720 9.979 C 11.951 10.083,12.374 10.285,12.660 10.428 C 14.516 11.355,15.532 12.530,16.442 14.800 L 16.610 15.220 16.584 16.445 C 16.570 17.118,16.541 17.908,16.519 18.200 C 16.473 18.802,16.507 18.705,15.814 20.192 C 15.369 21.144,15.240 21.448,15.240 21.541 C 15.240 21.614,15.512 21.618,16.412 21.558 C 17.106 21.512,17.536 21.420,17.853 21.251 C 18.119 21.110,18.719 20.508,18.996 20.104 L 19.213 19.789 19.186 15.164 C 19.171 12.621,19.143 10.063,19.123 9.480 C 19.082 8.310,19.042 8.092,18.809 7.753 C 18.602 7.452,17.689 6.486,16.261 5.058 C 14.942 3.738,14.367 3.208,13.749 2.743 L 13.453 2.520 12.456 2.528 C 11.908 2.532,10.308 2.546,8.900 2.558 M8.320 12.266 C 8.020 12.347,7.341 12.674,6.991 12.908 C 6.833 13.013,6.495 13.307,6.239 13.560 C 5.712 14.083,5.460 14.458,5.202 15.110 C 4.951 15.744,4.866 16.219,4.865 17.000 L 4.865 17.660 5.112 18.378 C 5.249 18.772,5.360 19.135,5.360 19.183 C 5.360 19.274,5.286 19.365,4.544 20.178 C 3.769 21.028,3.651 21.233,3.695 21.653 C 3.752 22.201,4.043 22.538,4.603 22.705 C 4.969 22.813,5.170 22.703,6.413 21.707 C 6.916 21.304,7.229 21.080,7.288 21.080 C 7.339 21.081,7.693 21.189,8.076 21.320 C 8.739 21.549,8.789 21.560,9.159 21.560 C 10.814 21.560,11.824 21.163,12.914 20.085 C 13.513 19.492,13.881 18.924,14.094 18.260 C 14.249 17.780,14.292 17.476,14.292 16.880 C 14.290 15.538,13.945 14.634,13.078 13.707 C 12.377 12.955,11.516 12.425,10.726 12.258 C 10.349 12.178,8.628 12.184,8.320 12.266 M10.583 14.743 C 10.974 14.962,11.201 15.157,11.455 15.495 C 11.793 15.944,11.803 15.981,11.829 16.843 L 11.852 17.593 11.670 17.846 C 11.394 18.232,10.810 18.782,10.552 18.900 C 10.281 19.024,9.759 19.160,9.554 19.160 C 9.320 19.160,8.682 18.939,8.417 18.766 C 8.126 18.577,7.824 18.259,7.632 17.940 C 7.257 17.317,7.230 16.433,7.566 15.789 C 7.724 15.487,8.337 14.853,8.600 14.719 C 8.899 14.568,8.955 14.560,9.650 14.579 L 10.321 14.596 10.583 14.743 " fill="#373B4D" stroke="none" fill-rule="evenodd"></path></svg>