<svg width="24" height="24" viewBox="0 0 24 24" fill="none" xmlns="http://www.w3.org/2000/svg"><path d="M10.420 2.028 C 9.000 2.045,7.141 2.123,6.832 2.178 C 6.661 2.208,6.432 2.283,6.315 2.346 C 5.932 2.554,5.373 3.180,5.116 3.689 L 5.000 3.918 5.000 11.609 L 5.000 19.300 5.190 19.630 C 5.527 20.217,5.981 20.672,6.567 21.010 L 6.897 21.200 12.207 21.200 L 17.516 21.200 17.728 21.076 C 18.094 20.861,18.411 20.618,18.668 20.354 C 18.976 20.038,19.044 19.951,19.242 19.612 L 19.400 19.341 19.400 14.611 L 19.400 9.880 16.885 9.880 L 14.369 9.880 14.048 9.719 C 13.871 9.631,13.620 9.480,13.490 9.384 C 13.235 9.197,12.951 8.815,12.881 8.567 C 12.778 8.206,12.717 6.806,12.656 3.470 L 12.629 2.000 11.904 2.009 C 11.506 2.014,10.838 2.022,10.420 2.028 M14.642 5.317 L 14.640 7.893 16.650 7.864 C 18.586 7.836,19.205 7.809,19.264 7.749 C 19.368 7.645,18.173 6.323,15.747 3.860 L 14.644 2.740 14.642 5.317 " fill="#373B4D" stroke="none" fill-rule="evenodd"></path></svg>