<svg width="24" height="24" viewBox="0 0 24 24" fill="none" xmlns="http://www.w3.org/2000/svg"><path d="M8.717 2.521 L 6.455 2.547 6.253 2.657 C 5.778 2.915,5.309 3.404,4.976 3.989 L 4.800 4.298 4.800 12.000 L 4.800 19.702 4.979 20.016 C 5.369 20.700,5.843 21.158,6.509 21.495 L 6.717 21.600 12.003 21.600 L 17.288 21.600 17.556 21.459 C 18.170 21.137,18.837 20.483,19.004 20.042 C 19.130 19.707,19.152 18.877,19.183 13.280 L 19.210 8.340 18.889 7.860 C 18.511 7.296,17.748 6.470,16.075 4.818 C 14.785 3.543,14.276 3.086,13.760 2.737 L 13.380 2.480 12.180 2.487 C 11.520 2.491,9.962 2.506,8.717 2.521 M12.539 8.658 C 12.762 8.767,12.918 8.952,12.995 9.200 C 13.061 9.412,13.111 9.960,13.162 11.020 C 13.188 11.548,13.211 11.982,13.214 11.986 C 13.218 11.989,13.652 12.012,14.180 12.037 C 15.573 12.104,15.900 12.141,16.150 12.263 C 16.628 12.497,16.811 13.140,16.560 13.709 C 16.450 13.958,16.163 14.220,15.935 14.277 C 15.622 14.356,14.987 14.397,14.070 14.399 L 13.200 14.400 13.200 14.583 C 13.200 14.911,13.120 16.329,13.077 16.755 C 13.051 17.012,13.005 17.236,12.954 17.343 C 12.850 17.566,12.571 17.822,12.374 17.877 C 11.999 17.981,11.535 17.886,11.275 17.650 C 11.040 17.439,10.965 17.260,10.921 16.811 C 10.883 16.422,10.800 14.894,10.800 14.578 L 10.800 14.411 9.590 14.386 C 8.925 14.373,8.285 14.344,8.169 14.323 C 7.912 14.276,7.690 14.112,7.497 13.825 C 7.361 13.623,7.360 13.617,7.360 13.177 C 7.360 12.745,7.364 12.727,7.481 12.565 C 7.760 12.180,8.003 12.126,9.840 12.037 C 10.357 12.012,10.783 11.989,10.786 11.986 C 10.789 11.983,10.812 11.539,10.838 11.000 C 10.901 9.655,10.942 9.306,11.064 9.052 C 11.174 8.823,11.412 8.608,11.613 8.556 C 11.849 8.495,12.310 8.546,12.539 8.658 " fill="#373B4D" stroke="none" fill-rule="evenodd"></path></svg>