<svg width="24" height="24" viewBox="0 0 24 24" fill="none" xmlns="http://www.w3.org/2000/svg"><path d="M8.814 2.522 L 6.447 2.550 6.216 2.682 C 5.782 2.931,5.272 3.479,4.924 4.072 L 4.800 4.284 4.800 12.000 L 4.800 19.716 4.922 19.923 C 5.375 20.691,5.849 21.161,6.509 21.494 L 6.717 21.600 12.009 21.600 L 17.300 21.600 17.621 21.419 C 18.158 21.115,18.772 20.528,18.962 20.135 C 19.006 20.044,19.060 19.819,19.083 19.635 C 19.133 19.217,19.196 14.442,19.198 10.947 L 19.200 8.314 18.956 7.957 C 18.535 7.342,17.992 6.746,16.443 5.199 C 14.898 3.656,14.274 3.086,13.706 2.701 L 13.380 2.480 12.280 2.487 C 11.675 2.490,10.115 2.506,8.814 2.522 M12.647 8.702 C 12.852 8.846,12.947 9.000,12.998 9.269 C 13.037 9.477,13.084 10.334,13.163 12.294 C 13.187 12.906,13.219 13.488,13.234 13.587 L 13.260 13.767 13.560 13.506 C 13.725 13.362,14.070 13.059,14.327 12.832 C 14.584 12.606,14.898 12.357,15.025 12.281 C 15.235 12.153,15.282 12.141,15.563 12.141 C 15.835 12.141,15.902 12.157,16.144 12.281 C 16.387 12.404,16.430 12.445,16.530 12.640 C 16.609 12.796,16.654 12.967,16.685 13.230 L 16.729 13.601 16.590 13.770 C 16.317 14.102,13.214 17.190,12.849 17.492 C 11.933 18.251,11.820 18.206,9.928 16.343 C 8.920 15.349,7.675 14.044,7.499 13.796 C 7.379 13.628,7.305 13.255,7.340 12.997 C 7.381 12.700,7.578 12.411,7.840 12.264 C 8.036 12.154,8.095 12.141,8.380 12.142 C 8.851 12.144,8.987 12.230,10.087 13.208 C 10.416 13.501,10.700 13.745,10.718 13.752 C 10.775 13.772,10.797 13.453,10.840 12.000 C 10.939 8.648,10.976 8.548,12.088 8.574 C 12.448 8.582,12.490 8.592,12.647 8.702 " fill="#373B4D" stroke="none" fill-rule="evenodd"></path></svg>