<svg width="24" height="24" viewBox="0 0 24 24" fill="none" xmlns="http://www.w3.org/2000/svg"><path d="M8.917 2.043 C 7.105 2.076,6.698 2.109,6.429 2.245 C 5.957 2.485,5.473 2.997,5.179 3.566 L 5.000 3.913 5.000 11.580 L 5.000 19.248 5.154 19.574 C 5.457 20.216,5.914 20.684,6.566 21.021 L 6.913 21.200 12.206 21.199 L 17.500 21.199 17.831 21.021 C 18.490 20.667,18.904 20.261,19.230 19.650 L 19.400 19.331 19.400 14.608 L 19.400 9.886 16.910 9.870 C 14.656 9.857,14.399 9.848,14.200 9.784 C 13.830 9.664,13.512 9.472,13.260 9.217 C 12.958 8.912,12.804 8.613,12.758 8.242 C 12.723 7.965,12.641 4.120,12.640 2.710 L 12.640 2.000 11.630 2.007 C 11.075 2.010,9.854 2.027,8.917 2.043 M14.640 5.317 L 14.640 7.893 16.853 7.869 C 18.990 7.846,19.280 7.828,19.280 7.721 C 19.280 7.662,19.033 7.315,18.742 6.965 C 18.475 6.644,15.861 3.944,14.944 3.041 L 14.640 2.742 14.640 5.317 " fill="#373B4D" stroke="none" fill-rule="evenodd"></path></svg>