<svg width="24" height="24" viewBox="0 0 24 24" fill="none" xmlns="http://www.w3.org/2000/svg"><path d="M7.700 2.519 C 6.549 2.541,6.447 2.548,6.273 2.627 C 5.774 2.855,5.304 3.336,5.003 3.925 L 4.800 4.324 4.800 12.006 L 4.800 19.687 4.979 20.034 C 5.303 20.661,5.739 21.097,6.366 21.421 L 6.713 21.600 11.986 21.600 L 17.260 21.600 17.517 21.478 C 18.162 21.173,18.748 20.646,18.971 20.169 C 19.085 19.926,19.095 19.867,19.124 19.245 C 19.142 18.879,19.169 16.294,19.184 13.500 L 19.212 8.420 19.081 8.160 C 18.907 7.817,18.701 7.518,18.420 7.200 C 17.953 6.672,16.275 4.963,15.472 4.196 C 14.447 3.218,14.108 2.927,13.702 2.676 L 13.383 2.480 11.162 2.488 C 9.940 2.492,8.382 2.506,7.700 2.519 M16.238 11.051 C 16.380 11.166,16.529 11.317,16.569 11.386 C 16.675 11.567,16.743 12.134,16.684 12.348 C 16.627 12.557,16.371 12.885,16.152 13.030 L 15.986 13.140 14.443 13.165 C 13.594 13.179,11.811 13.193,10.480 13.195 L 8.060 13.200 7.828 13.017 C 7.433 12.707,7.253 12.339,7.291 11.915 C 7.331 11.470,7.617 11.044,7.939 10.952 C 8.111 10.903,10.615 10.860,14.080 10.848 L 15.980 10.842 16.238 11.051 M16.238 15.851 C 16.380 15.966,16.529 16.117,16.569 16.186 C 16.675 16.367,16.743 16.934,16.684 17.148 C 16.627 17.357,16.371 17.685,16.152 17.830 L 15.986 17.940 14.443 17.965 C 13.594 17.979,11.811 17.993,10.480 17.995 L 8.060 18.000 7.828 17.817 C 7.433 17.507,7.253 17.139,7.291 16.715 C 7.331 16.270,7.617 15.844,7.939 15.752 C 8.111 15.703,10.615 15.660,14.080 15.648 L 15.980 15.642 16.238 15.851 " fill="#373B4D" stroke="none" fill-rule="evenodd"></path></svg>