<svg width="24" height="24" viewBox="0 0 24 24" fill="none" xmlns="http://www.w3.org/2000/svg"><path d="M6.800 2.507 C 6.390 2.547,6.311 2.572,6.025 2.759 C 5.861 2.866,5.654 3.020,5.564 3.102 C 5.351 3.294,5.081 3.705,4.924 4.075 L 4.799 4.370 4.810 12.035 L 4.820 19.700 4.987 20.050 C 5.299 20.702,5.698 21.101,6.350 21.413 L 6.700 21.580 11.951 21.590 L 17.202 21.601 17.491 21.488 C 18.078 21.260,18.732 20.698,18.956 20.228 C 19.169 19.781,19.172 19.714,19.176 13.796 L 19.180 8.373 18.992 7.994 C 18.839 7.686,18.720 7.522,18.352 7.118 C 17.699 6.399,15.923 4.607,15.051 3.787 C 14.250 3.034,13.954 2.793,13.594 2.601 L 13.369 2.480 10.154 2.486 C 8.386 2.490,6.877 2.499,6.800 2.507 M12.505 8.565 C 12.596 8.608,12.738 8.708,12.821 8.788 C 13.084 9.044,13.112 9.157,13.158 10.162 C 13.181 10.656,13.199 11.269,13.200 11.524 L 13.200 11.987 14.350 12.015 C 15.856 12.052,16.024 12.073,16.265 12.245 C 16.393 12.337,16.499 12.464,16.596 12.640 C 16.724 12.874,16.738 12.930,16.737 13.200 C 16.736 13.444,16.716 13.538,16.630 13.705 C 16.491 13.974,16.195 14.266,16.008 14.320 C 15.927 14.343,15.262 14.373,14.530 14.387 L 13.200 14.413 13.197 14.896 C 13.195 15.162,13.181 15.776,13.164 16.260 C 13.140 16.992,13.123 17.163,13.063 17.280 C 12.836 17.718,12.466 17.968,12.044 17.968 C 11.606 17.968,11.272 17.789,11.016 17.416 L 10.870 17.206 10.837 16.333 C 10.819 15.853,10.803 15.224,10.802 14.935 L 10.800 14.410 9.470 14.389 C 8.618 14.375,8.083 14.350,7.983 14.320 C 7.779 14.258,7.431 13.904,7.340 13.666 C 7.289 13.531,7.275 13.396,7.286 13.114 C 7.299 12.768,7.310 12.726,7.431 12.551 C 7.503 12.447,7.643 12.307,7.741 12.239 C 7.973 12.080,8.241 12.049,9.684 12.014 L 10.789 11.987 10.812 10.844 C 10.826 10.215,10.856 9.575,10.879 9.422 C 10.943 9.006,11.118 8.755,11.480 8.558 C 11.707 8.435,12.234 8.438,12.505 8.565 " fill="#373B4D" stroke="none" fill-rule="evenodd"></path></svg>