<svg width="24" height="24" viewBox="0 0 24 24" fill="none" xmlns="http://www.w3.org/2000/svg"><path d="M8.158 2.519 L 6.456 2.543 6.238 2.649 C 5.745 2.891,5.288 3.376,4.960 4.006 L 4.800 4.312 4.800 11.997 L 4.800 19.682 4.925 19.931 C 5.283 20.640,5.760 21.117,6.469 21.475 L 6.718 21.600 12.000 21.600 L 17.282 21.600 17.531 21.475 C 18.161 21.157,18.739 20.635,18.961 20.183 C 19.083 19.937,19.089 19.897,19.122 19.233 C 19.141 18.852,19.169 16.261,19.185 13.476 L 19.213 8.411 19.044 8.096 C 18.950 7.922,18.774 7.649,18.651 7.488 C 18.352 7.095,16.520 5.197,15.556 4.280 C 14.399 3.180,14.081 2.908,13.619 2.627 L 13.378 2.480 11.619 2.487 C 10.652 2.491,9.094 2.505,8.158 2.519 M16.219 12.240 C 16.357 12.349,16.498 12.481,16.532 12.533 C 16.692 12.777,16.742 13.443,16.619 13.685 C 16.505 13.909,16.285 14.154,16.101 14.262 L 15.927 14.364 12.005 14.388 L 8.084 14.413 7.856 14.237 C 7.272 13.787,7.135 13.152,7.492 12.557 C 7.652 12.289,7.822 12.173,8.104 12.138 C 8.350 12.107,11.748 12.057,14.294 12.047 L 15.969 12.040 16.219 12.240 " fill="#373B4D" stroke="none" fill-rule="evenodd"></path></svg>