<svg width="24" height="24" viewBox="0 0 24 24" fill="none" xmlns="http://www.w3.org/2000/svg"><path d="M8.814 2.522 L 6.447 2.550 6.216 2.682 C 5.782 2.931,5.272 3.479,4.924 4.072 L 4.800 4.284 4.800 12.000 L 4.800 19.716 4.922 19.923 C 5.375 20.691,5.849 21.161,6.509 21.494 L 6.717 21.600 12.009 21.600 L 17.300 21.600 17.621 21.419 C 18.158 21.115,18.772 20.528,18.962 20.135 C 19.006 20.044,19.060 19.819,19.083 19.635 C 19.133 19.217,19.196 14.442,19.198 10.947 L 19.200 8.314 18.956 7.957 C 18.535 7.342,17.992 6.746,16.443 5.199 C 14.898 3.656,14.274 3.086,13.706 2.701 L 13.380 2.480 12.280 2.487 C 11.675 2.490,10.115 2.506,8.814 2.522 M16.159 8.674 C 16.418 8.801,16.540 8.964,16.574 9.228 C 16.620 9.580,16.676 11.784,16.724 15.120 L 16.770 18.420 16.462 18.707 C 16.054 19.087,15.949 19.134,15.564 19.112 C 15.088 19.084,14.735 18.864,14.645 18.540 C 14.579 18.303,14.525 16.480,14.481 12.980 C 14.457 11.087,14.456 9.712,14.478 9.484 C 14.513 9.124,14.521 9.102,14.666 8.954 C 14.892 8.723,15.107 8.587,15.293 8.560 C 15.592 8.515,15.926 8.559,16.159 8.674 M12.609 11.092 C 12.713 11.152,12.844 11.263,12.901 11.338 C 13.005 11.474,13.005 11.475,13.040 12.587 C 13.060 13.199,13.097 14.759,13.123 16.053 L 13.169 18.405 13.075 18.506 C 12.907 18.687,12.493 18.998,12.314 19.079 C 11.932 19.252,11.615 19.140,11.065 18.637 L 10.840 18.432 10.840 15.023 L 10.840 11.614 11.059 11.371 C 11.384 11.013,11.528 10.952,12.021 10.968 C 12.372 10.980,12.444 10.995,12.609 11.092 M8.998 13.501 C 9.341 13.687,9.365 13.754,9.403 14.633 C 9.422 15.044,9.437 16.094,9.438 16.966 L 9.440 18.553 9.238 18.734 C 8.955 18.989,8.631 19.141,8.380 19.137 C 8.096 19.133,7.771 18.967,7.529 18.702 L 7.333 18.488 7.307 17.434 C 7.292 16.854,7.269 15.849,7.255 15.200 L 7.230 14.020 7.454 13.775 C 7.782 13.415,7.930 13.352,8.400 13.369 C 8.730 13.381,8.808 13.398,8.998 13.501 " fill="#373B4D" stroke="none" fill-rule="evenodd"></path></svg>