<svg width="24" height="24" viewBox="0 0 24 24" fill="none" xmlns="http://www.w3.org/2000/svg"><path d="M10.260 2.561 C 10.002 2.600,9.877 2.651,9.647 2.808 C 9.237 3.090,8.700 3.686,8.498 4.084 L 8.400 4.277 8.400 9.589 L 8.400 14.900 8.590 15.240 C 8.855 15.715,9.485 16.345,9.960 16.610 L 10.300 16.800 14.408 16.800 L 18.516 16.800 18.723 16.678 C 19.149 16.427,19.428 16.216,19.706 15.934 C 20.052 15.585,20.218 15.268,20.280 14.840 C 20.327 14.517,20.394 10.978,20.398 8.608 C 20.400 7.201,20.397 7.152,20.314 6.988 C 20.101 6.571,19.528 5.920,18.244 4.639 C 17.154 3.551,16.559 3.017,16.110 2.723 L 15.881 2.573 14.470 2.547 C 12.691 2.513,10.522 2.521,10.260 2.561 M5.600 7.275 C 4.848 7.515,4.150 8.106,3.744 8.845 L 3.600 9.107 3.600 14.397 L 3.600 19.688 3.743 19.961 C 4.063 20.570,4.633 21.138,5.246 21.460 L 5.512 21.600 9.617 21.600 L 13.723 21.600 13.912 21.504 C 14.378 21.268,15.104 20.584,15.275 20.222 C 15.395 19.966,15.620 19.286,15.593 19.260 C 15.581 19.248,13.418 19.227,10.786 19.213 L 6.000 19.187 6.000 13.193 L 6.000 7.200 5.910 7.202 C 5.861 7.203,5.721 7.236,5.600 7.275 " fill="#373B4D" stroke="none" fill-rule="evenodd"></path></svg>