<svg width="24" height="24" viewBox="0 0 24 24" fill="none" xmlns="http://www.w3.org/2000/svg"><path d="M8.457 2.558 L 6.335 2.580 6.104 2.739 C 5.683 3.029,5.129 3.670,4.886 4.148 C 4.801 4.314,4.800 4.351,4.800 6.352 C 4.800 8.736,4.841 11.136,4.882 11.203 C 4.902 11.236,5.107 11.144,5.546 10.907 C 6.343 10.475,7.165 10.082,7.580 9.934 L 7.900 9.820 9.598 9.808 L 11.296 9.796 11.738 9.984 C 12.827 10.448,13.661 10.913,14.151 11.329 C 15.161 12.187,15.888 13.279,16.421 14.740 L 16.610 15.260 16.587 16.880 L 16.563 18.500 16.455 18.820 C 16.396 18.996,16.081 19.671,15.756 20.320 C 15.285 21.261,15.176 21.510,15.213 21.556 C 15.252 21.602,15.395 21.607,16.060 21.585 C 17.023 21.552,17.389 21.492,17.789 21.302 C 18.161 21.125,18.585 20.714,18.951 20.173 L 19.200 19.806 19.198 16.613 C 19.196 12.787,19.138 8.766,19.081 8.384 C 19.058 8.233,18.993 8.024,18.937 7.922 C 18.800 7.670,18.291 7.104,17.076 5.854 C 15.514 4.247,14.540 3.329,13.841 2.804 L 13.461 2.520 12.021 2.528 C 11.228 2.532,9.625 2.546,8.457 2.558 M8.809 12.163 C 8.048 12.236,7.323 12.581,6.531 13.247 C 5.925 13.755,5.490 14.345,5.204 15.047 C 4.935 15.705,4.843 16.208,4.841 17.034 C 4.840 17.614,4.869 17.745,5.192 18.599 L 5.425 19.219 4.668 20.039 C 3.719 21.067,3.680 21.125,3.680 21.501 C 3.680 22.180,3.982 22.568,4.625 22.718 C 5.027 22.811,5.228 22.698,6.416 21.705 C 6.853 21.339,7.225 21.040,7.242 21.040 C 7.259 21.040,7.610 21.157,8.022 21.300 L 8.770 21.560 9.295 21.560 C 10.880 21.560,11.885 21.153,12.964 20.077 C 13.655 19.388,14.044 18.680,14.247 17.740 C 14.330 17.351,14.310 16.221,14.211 15.760 C 14.027 14.902,13.664 14.261,12.962 13.557 C 12.079 12.670,11.272 12.264,10.195 12.163 C 9.687 12.115,9.301 12.115,8.809 12.163 M10.166 14.578 C 10.312 14.609,10.510 14.674,10.606 14.722 C 11.027 14.936,11.450 15.370,11.700 15.845 L 11.840 16.112 11.840 16.844 L 11.840 17.575 11.683 17.840 C 11.507 18.136,11.076 18.597,10.795 18.790 C 10.562 18.950,10.097 19.108,9.759 19.142 C 9.400 19.178,9.042 19.105,8.640 18.912 C 8.365 18.781,8.239 18.688,7.980 18.425 C 7.472 17.910,7.321 17.518,7.320 16.717 C 7.320 16.298,7.394 16.029,7.610 15.661 C 7.893 15.180,8.469 14.694,8.914 14.559 C 9.090 14.506,9.882 14.518,10.166 14.578 " fill="#373B4D" stroke="none" fill-rule="evenodd"></path></svg>