<svg width="24" height="24" viewBox="0 0 24 24" fill="none" xmlns="http://www.w3.org/2000/svg"><path d="M8.158 2.519 L 6.456 2.543 6.238 2.649 C 5.745 2.891,5.288 3.376,4.960 4.006 L 4.800 4.312 4.800 11.997 L 4.800 19.682 4.925 19.931 C 5.283 20.640,5.760 21.117,6.469 21.475 L 6.718 21.600 12.000 21.600 L 17.282 21.600 17.531 21.475 C 18.161 21.157,18.739 20.635,18.961 20.183 C 19.083 19.937,19.089 19.897,19.122 19.233 C 19.141 18.852,19.169 16.261,19.185 13.476 L 19.213 8.411 19.044 8.096 C 18.950 7.922,18.774 7.649,18.651 7.488 C 18.352 7.095,16.520 5.197,15.556 4.280 C 14.399 3.180,14.081 2.908,13.619 2.627 L 13.378 2.480 11.619 2.487 C 10.652 2.491,9.094 2.505,8.158 2.519 M16.219 11.040 C 16.357 11.149,16.498 11.281,16.532 11.333 C 16.692 11.577,16.742 12.243,16.619 12.485 C 16.505 12.709,16.285 12.954,16.101 13.062 L 15.927 13.164 12.005 13.188 L 8.084 13.213 7.856 13.037 C 7.272 12.587,7.135 11.952,7.492 11.357 C 7.652 11.089,7.822 10.973,8.104 10.938 C 8.350 10.907,11.748 10.857,14.294 10.847 L 15.969 10.840 16.219 11.040 M16.219 15.840 C 16.357 15.949,16.498 16.081,16.532 16.133 C 16.692 16.377,16.742 17.043,16.619 17.285 C 16.505 17.509,16.285 17.754,16.101 17.862 L 15.927 17.964 12.005 17.988 L 8.084 18.013 7.856 17.837 C 7.272 17.387,7.135 16.752,7.492 16.157 C 7.652 15.889,7.822 15.773,8.104 15.738 C 8.350 15.707,11.748 15.657,14.294 15.647 L 15.969 15.640 16.219 15.840 " fill="#373B4D" stroke="none" fill-rule="evenodd"></path></svg>