<svg width="24" height="24" viewBox="0 0 24 24" fill="none" xmlns="http://www.w3.org/2000/svg"><path d="M8.796 2.041 C 6.950 2.074,6.735 2.091,6.450 2.231 C 5.963 2.468,5.436 3.020,5.163 3.579 L 5.000 3.912 5.000 11.582 L 5.000 19.253 5.208 19.676 C 5.386 20.041,5.462 20.147,5.758 20.441 C 6.042 20.724,6.170 20.818,6.512 20.991 L 6.924 21.200 12.193 21.200 L 17.462 21.200 17.751 21.062 C 18.482 20.711,18.969 20.223,19.303 19.507 L 19.399 19.300 19.400 14.590 L 19.400 9.880 17.110 9.880 C 15.851 9.880,14.670 9.862,14.487 9.841 C 13.822 9.765,13.178 9.311,12.882 8.711 C 12.756 8.454,12.751 8.426,12.719 7.733 C 12.701 7.341,12.673 5.890,12.658 4.510 L 12.630 2.000 11.505 2.007 C 10.886 2.010,9.667 2.026,8.796 2.041 M14.642 5.315 L 14.640 7.890 16.830 7.869 C 18.035 7.857,19.073 7.832,19.137 7.812 C 19.202 7.792,19.261 7.757,19.269 7.733 C 19.297 7.650,18.872 7.081,18.405 6.575 C 18.143 6.292,17.190 5.313,16.287 4.400 L 14.644 2.740 14.642 5.315 " fill="#373B4D" stroke="none" fill-rule="evenodd"></path></svg>