<svg width="24" height="24" viewBox="0 0 24 24" fill="none" xmlns="http://www.w3.org/2000/svg"><path d="M8.847 2.524 L 6.434 2.554 6.207 2.687 C 5.886 2.875,5.335 3.442,5.046 3.881 L 4.800 4.254 4.800 11.997 L 4.800 19.740 5.045 20.115 C 5.458 20.745,5.962 21.221,6.509 21.495 L 6.717 21.600 12.003 21.600 L 17.289 21.600 17.514 21.479 C 18.062 21.187,18.769 20.525,18.945 20.141 C 18.998 20.025,19.058 19.789,19.079 19.615 C 19.133 19.178,19.200 14.463,19.200 11.108 L 19.200 8.316 18.999 8.018 C 18.689 7.559,18.288 7.096,17.377 6.146 C 16.449 5.178,14.800 3.577,14.302 3.161 C 14.125 3.013,13.847 2.800,13.684 2.686 L 13.387 2.480 12.324 2.487 C 11.739 2.490,10.174 2.507,8.847 2.524 M16.254 11.084 C 16.557 11.419,16.597 11.521,16.626 12.028 L 16.651 12.461 16.425 12.725 C 16.301 12.870,16.131 13.037,16.048 13.095 L 15.896 13.200 11.951 13.200 L 8.007 13.200 7.780 12.950 C 7.428 12.563,7.380 12.449,7.380 12.000 C 7.380 11.648,7.389 11.604,7.505 11.400 C 7.683 11.086,7.849 11.009,8.462 10.957 C 8.908 10.919,12.270 10.861,14.887 10.846 L 16.033 10.840 16.254 11.084 M16.254 15.884 C 16.557 16.219,16.597 16.321,16.626 16.828 L 16.651 17.261 16.425 17.525 C 16.301 17.670,16.131 17.837,16.048 17.895 L 15.896 18.000 11.951 18.000 L 8.007 18.000 7.780 17.750 C 7.428 17.363,7.380 17.249,7.380 16.800 C 7.380 16.448,7.389 16.404,7.505 16.200 C 7.683 15.886,7.849 15.809,8.462 15.757 C 8.908 15.719,12.270 15.661,14.887 15.646 L 16.033 15.640 16.254 15.884 " fill="#373B4D" stroke="none" fill-rule="evenodd"></path></svg>