<svg width="24" height="24" viewBox="0 0 24 24" fill="none" xmlns="http://www.w3.org/2000/svg"><path d="M8.578 2.520 L 6.457 2.546 6.206 2.680 C 5.733 2.932,5.195 3.530,4.885 4.148 L 4.800 4.317 4.801 12.008 L 4.801 19.700 4.962 19.994 C 5.330 20.671,5.821 21.147,6.509 21.494 L 6.717 21.600 12.000 21.600 L 17.283 21.600 17.491 21.495 C 18.108 21.184,18.757 20.587,18.968 20.135 C 19.083 19.891,19.089 19.846,19.122 19.110 C 19.140 18.686,19.168 16.099,19.182 13.360 L 19.208 8.380 19.031 8.075 C 18.933 7.907,18.751 7.637,18.625 7.475 C 18.288 7.040,16.395 5.082,15.446 4.187 C 14.372 3.174,14.172 3.002,13.740 2.717 L 13.380 2.480 12.040 2.487 C 11.303 2.491,9.745 2.506,8.578 2.520 M12.316 8.563 C 12.600 8.624,12.827 8.802,12.942 9.053 C 13.061 9.314,13.106 9.697,13.165 10.980 C 13.190 11.530,13.213 11.982,13.215 11.985 C 13.218 11.988,13.679 12.011,14.240 12.037 C 15.674 12.103,15.975 12.138,16.189 12.263 C 16.395 12.384,16.583 12.628,16.645 12.856 C 16.702 13.069,16.670 13.504,16.583 13.687 C 16.478 13.909,16.258 14.144,16.070 14.235 C 15.851 14.341,15.117 14.400,14.010 14.400 L 13.200 14.400 13.200 14.590 C 13.200 14.927,13.120 16.449,13.082 16.826 C 13.036 17.296,12.934 17.500,12.612 17.766 C 12.361 17.973,11.707 17.968,11.388 17.757 C 11.188 17.624,11.014 17.396,10.960 17.195 C 10.918 17.039,10.856 16.129,10.817 15.110 L 10.789 14.400 9.925 14.399 C 8.999 14.398,8.158 14.348,7.989 14.283 C 7.833 14.224,7.570 13.971,7.448 13.763 C 7.349 13.595,7.340 13.546,7.343 13.172 C 7.346 12.792,7.354 12.750,7.464 12.572 C 7.552 12.430,7.639 12.353,7.801 12.271 C 8.062 12.140,8.363 12.105,9.800 12.037 C 10.339 12.012,10.782 11.988,10.785 11.985 C 10.788 11.982,10.811 11.512,10.836 10.940 C 10.893 9.669,10.938 9.274,11.052 9.045 C 11.153 8.842,11.403 8.614,11.578 8.563 C 11.751 8.513,12.082 8.513,12.316 8.563 " fill="#373B4D" stroke="none" fill-rule="evenodd"></path></svg>