<svg width="24" height="24" viewBox="0 0 24 24" fill="none" xmlns="http://www.w3.org/2000/svg"><path d="M9.327 2.043 C 7.260 2.081,6.749 2.122,6.416 2.277 C 5.981 2.479,5.412 3.101,5.105 3.709 L 5.000 3.917 5.000 11.578 L 5.000 19.238 5.100 19.463 C 5.401 20.144,5.970 20.721,6.709 21.095 L 6.917 21.200 12.200 21.200 L 17.483 21.200 17.652 21.115 C 18.381 20.745,18.971 20.177,19.295 19.531 L 19.400 19.323 19.400 14.603 L 19.400 9.884 16.890 9.872 L 14.380 9.860 14.100 9.744 C 13.397 9.454,12.937 8.976,12.821 8.416 C 12.754 8.098,12.697 6.493,12.655 3.770 L 12.627 2.000 11.804 2.007 C 11.351 2.010,10.236 2.027,9.327 2.043 M14.642 5.316 L 14.640 7.893 16.730 7.865 C 18.652 7.839,19.199 7.814,19.262 7.751 C 19.376 7.637,18.332 6.478,15.868 3.980 L 14.644 2.740 14.642 5.316 " fill="#373B4D" stroke="none" fill-rule="evenodd"></path></svg>