<svg width="24" height="24" viewBox="0 0 24 24" fill="none" xmlns="http://www.w3.org/2000/svg"><path d="M8.717 2.521 L 6.455 2.547 6.253 2.657 C 5.778 2.915,5.309 3.404,4.976 3.989 L 4.800 4.298 4.800 12.000 L 4.800 19.702 4.979 20.016 C 5.369 20.700,5.843 21.158,6.509 21.495 L 6.717 21.600 12.003 21.600 L 17.288 21.600 17.556 21.459 C 18.170 21.137,18.837 20.483,19.004 20.042 C 19.130 19.707,19.152 18.877,19.183 13.280 L 19.210 8.340 18.889 7.860 C 18.511 7.296,17.748 6.470,16.075 4.818 C 14.785 3.543,14.276 3.086,13.760 2.737 L 13.380 2.480 12.180 2.487 C 11.520 2.491,9.962 2.506,8.717 2.521 M16.088 8.613 C 16.279 8.692,16.483 8.876,16.544 9.024 C 16.621 9.208,16.669 10.765,16.725 14.898 L 16.772 18.415 16.485 18.689 C 16.077 19.077,15.996 19.120,15.657 19.120 C 15.502 19.120,15.294 19.092,15.195 19.059 C 14.963 18.980,14.725 18.782,14.653 18.608 C 14.565 18.398,14.529 17.248,14.479 13.054 C 14.428 8.818,14.404 9.197,14.749 8.874 C 15.076 8.568,15.220 8.515,15.648 8.539 C 15.817 8.549,16.015 8.582,16.088 8.613 M12.444 11.004 C 12.618 11.048,12.933 11.314,12.992 11.469 C 13.032 11.572,13.057 12.499,13.145 17.061 L 13.171 18.421 12.941 18.632 C 12.194 19.314,11.820 19.328,11.130 18.698 L 10.840 18.434 10.840 15.024 L 10.840 11.614 11.065 11.365 C 11.397 10.998,11.598 10.912,12.040 10.947 C 12.183 10.958,12.365 10.983,12.444 11.004 M8.980 13.481 C 9.324 13.645,9.366 13.734,9.405 14.377 C 9.422 14.665,9.437 15.721,9.438 16.725 L 9.440 18.549 9.245 18.731 C 9.029 18.933,8.732 19.099,8.511 19.141 C 8.198 19.199,7.660 18.940,7.444 18.625 L 7.330 18.460 7.284 16.700 C 7.260 15.732,7.239 14.732,7.240 14.477 L 7.240 14.014 7.465 13.765 C 7.588 13.629,7.746 13.488,7.815 13.451 C 8.113 13.294,8.613 13.307,8.980 13.481 " fill="#373B4D" stroke="none" fill-rule="evenodd"></path></svg>