<svg width="24" height="24" viewBox="0 0 24 24" fill="none" xmlns="http://www.w3.org/2000/svg"><path d="M8.847 2.524 L 6.434 2.554 6.207 2.687 C 5.886 2.875,5.335 3.442,5.046 3.881 L 4.800 4.254 4.800 11.997 L 4.800 19.740 5.045 20.115 C 5.458 20.745,5.962 21.221,6.509 21.495 L 6.717 21.600 12.003 21.600 L 17.289 21.600 17.514 21.479 C 18.062 21.187,18.769 20.525,18.945 20.141 C 18.998 20.025,19.058 19.789,19.079 19.615 C 19.133 19.178,19.200 14.463,19.200 11.108 L 19.200 8.316 18.999 8.018 C 18.689 7.559,18.288 7.096,17.377 6.146 C 16.449 5.178,14.800 3.577,14.302 3.161 C 14.125 3.013,13.847 2.800,13.684 2.686 L 13.387 2.480 12.324 2.487 C 11.739 2.490,10.174 2.507,8.847 2.524 M15.965 8.601 C 16.320 8.699,16.539 8.953,16.577 9.310 C 16.615 9.672,16.674 12.115,16.724 15.400 L 16.770 18.420 16.455 18.710 C 16.278 18.874,16.066 19.029,15.970 19.066 C 15.617 19.201,14.955 19.033,14.760 18.760 C 14.635 18.584,14.605 18.322,14.560 17.000 C 14.506 15.422,14.459 9.650,14.497 9.346 C 14.532 9.070,14.692 8.863,15.018 8.677 C 15.191 8.577,15.262 8.561,15.520 8.561 C 15.685 8.561,15.885 8.579,15.965 8.601 M12.316 10.999 C 12.575 11.048,12.870 11.247,12.943 11.421 C 13.006 11.572,13.051 12.764,13.123 16.233 L 13.169 18.406 13.074 18.509 C 13.022 18.565,12.840 18.716,12.669 18.844 C 12.365 19.071,12.166 19.159,11.956 19.160 C 11.788 19.160,11.400 18.938,11.110 18.677 L 10.840 18.433 10.840 15.016 L 10.840 11.599 11.110 11.326 C 11.305 11.128,11.424 11.040,11.540 11.010 C 11.751 10.955,12.060 10.951,12.316 10.999 M8.983 13.500 C 9.098 13.556,9.221 13.647,9.257 13.701 C 9.372 13.876,9.400 14.335,9.427 16.451 L 9.453 18.521 9.356 18.624 C 9.077 18.923,8.679 19.125,8.366 19.126 C 8.117 19.127,7.728 18.926,7.509 18.681 L 7.333 18.485 7.306 17.213 C 7.291 16.513,7.268 15.506,7.254 14.976 L 7.228 14.012 7.504 13.732 C 7.830 13.401,7.950 13.355,8.437 13.380 C 8.692 13.393,8.824 13.422,8.983 13.500 " fill="#373B4D" stroke="none" fill-rule="evenodd"></path></svg>