<svg width="24" height="24" viewBox="0 0 24 24" fill="none" xmlns="http://www.w3.org/2000/svg"><path d="M10.800 2.440 C 10.260 2.462,10.148 2.479,9.933 2.569 C 9.275 2.844,8.736 3.421,8.517 4.085 L 8.420 4.380 8.420 9.600 L 8.420 14.820 8.517 15.115 C 8.751 15.825,9.375 16.449,10.085 16.683 L 10.380 16.780 14.400 16.780 L 18.420 16.780 18.715 16.683 C 19.378 16.464,20.007 15.874,20.240 15.250 C 20.387 14.859,20.403 14.364,20.391 10.700 L 20.380 7.180 20.247 6.860 C 20.174 6.684,20.039 6.441,19.947 6.320 C 19.666 5.950,16.686 2.995,16.409 2.811 C 16.042 2.568,15.765 2.476,15.280 2.438 C 14.800 2.399,11.730 2.401,10.800 2.440 M5.520 7.262 C 5.133 7.345,4.661 7.595,4.375 7.868 C 4.079 8.151,3.889 8.440,3.735 8.840 L 3.620 9.140 3.620 14.360 C 3.620 19.315,3.624 19.592,3.694 19.820 C 3.809 20.198,4.027 20.574,4.279 20.832 C 4.591 21.152,4.811 21.296,5.239 21.462 L 5.601 21.601 9.650 21.591 L 13.700 21.580 13.980 21.463 C 14.518 21.238,14.939 20.897,15.225 20.453 C 15.383 20.208,15.542 19.751,15.581 19.430 L 15.609 19.200 10.805 19.200 L 6.000 19.200 6.000 13.200 L 6.000 7.200 5.890 7.203 C 5.830 7.205,5.663 7.231,5.520 7.262 " fill="#373B4D" stroke="none" fill-rule="evenodd"></path></svg>