<svg width="24" height="24" viewBox="0 0 24 24" fill="none" xmlns="http://www.w3.org/2000/svg"><path d="M8.659 2.558 L 6.338 2.580 6.073 2.769 C 5.605 3.104,4.941 3.912,4.842 4.271 C 4.761 4.562,4.808 11.102,4.892 11.185 C 4.909 11.202,5.413 10.970,6.012 10.669 C 6.610 10.368,7.271 10.056,7.480 9.976 L 7.860 9.830 9.580 9.811 L 11.300 9.792 11.897 10.056 C 13.442 10.740,14.244 11.286,14.951 12.135 C 15.552 12.857,16.022 13.691,16.419 14.738 L 16.600 15.217 16.596 15.978 C 16.594 16.397,16.580 17.163,16.565 17.680 C 16.533 18.791,16.589 18.607,15.764 20.303 C 15.477 20.896,15.236 21.425,15.231 21.480 L 15.220 21.580 15.969 21.573 C 17.085 21.562,17.548 21.471,18.000 21.173 C 18.296 20.977,18.669 20.581,18.967 20.147 L 19.212 19.788 19.185 14.904 C 19.156 9.660,19.127 8.470,19.022 8.131 C 18.982 8.002,18.869 7.810,18.726 7.631 C 18.408 7.233,17.213 5.984,15.994 4.776 C 14.884 3.676,14.346 3.185,13.811 2.783 L 13.460 2.520 12.220 2.528 C 11.538 2.532,9.936 2.546,8.659 2.558 M8.820 12.165 C 7.954 12.260,7.036 12.741,6.245 13.515 C 5.858 13.894,5.584 14.275,5.338 14.780 C 4.957 15.561,4.813 16.271,4.850 17.192 C 4.869 17.680,4.878 17.723,5.079 18.280 C 5.193 18.599,5.315 18.944,5.350 19.046 L 5.413 19.233 4.756 19.946 C 3.681 21.115,3.662 21.144,3.688 21.603 C 3.723 22.194,3.974 22.517,4.532 22.686 C 4.771 22.759,4.830 22.764,4.974 22.722 C 5.200 22.657,5.561 22.410,6.180 21.900 C 6.466 21.664,6.822 21.372,6.971 21.250 L 7.241 21.030 8.023 21.300 L 8.804 21.571 9.492 21.548 C 10.608 21.511,11.321 21.310,12.066 20.820 C 12.490 20.541,13.343 19.704,13.594 19.320 C 14.161 18.451,14.365 17.593,14.282 16.423 C 14.198 15.243,13.826 14.440,12.955 13.557 C 12.211 12.802,11.446 12.372,10.580 12.221 C 10.133 12.143,9.269 12.115,8.820 12.165 M10.322 14.623 C 10.753 14.749,11.168 15.072,11.500 15.540 C 11.837 16.015,11.840 16.026,11.840 16.855 L 11.840 17.593 11.644 17.887 C 11.380 18.281,10.868 18.773,10.591 18.900 C 10.317 19.026,9.797 19.160,9.586 19.160 C 9.347 19.160,8.938 19.048,8.606 18.891 C 8.004 18.607,7.458 17.901,7.361 17.280 C 7.222 16.387,7.409 15.789,8.018 15.176 C 8.361 14.831,8.622 14.656,8.917 14.572 C 9.155 14.504,10.022 14.535,10.322 14.623 " fill="#373B4D" stroke="none" fill-rule="evenodd"></path></svg>