<svg width="24" height="24" viewBox="0 0 24 24" fill="none" xmlns="http://www.w3.org/2000/svg"><path d="M8.905 2.525 L 6.431 2.558 6.245 2.665 C 5.980 2.819,5.250 3.566,5.007 3.933 L 4.800 4.247 4.800 11.996 L 4.800 19.745 5.038 20.094 C 5.499 20.770,5.972 21.224,6.484 21.482 L 6.718 21.600 12.000 21.600 L 17.283 21.600 17.452 21.515 C 18.114 21.182,18.854 20.441,19.004 19.961 C 19.124 19.578,19.154 18.420,19.186 12.978 L 19.213 8.335 19.010 8.038 C 18.709 7.594,18.363 7.193,17.453 6.232 C 16.642 5.375,14.727 3.515,14.260 3.129 C 14.128 3.020,13.879 2.829,13.706 2.705 L 13.392 2.480 12.386 2.486 C 11.833 2.490,10.266 2.508,8.905 2.525 M12.604 8.692 C 12.829 8.809,12.946 9.033,12.999 9.452 C 13.021 9.623,13.075 10.567,13.121 11.551 C 13.166 12.535,13.216 13.436,13.232 13.553 L 13.260 13.767 13.680 13.398 C 14.349 12.811,14.956 12.324,15.123 12.239 C 15.294 12.151,15.680 12.133,15.921 12.200 C 16.188 12.274,16.439 12.467,16.527 12.666 C 16.605 12.843,16.716 13.355,16.719 13.554 C 16.720 13.666,15.699 14.714,13.812 16.538 C 12.547 17.761,12.331 17.929,12.023 17.936 C 11.630 17.945,11.148 17.555,9.458 15.863 C 8.153 14.555,7.581 13.927,7.455 13.660 C 7.384 13.509,7.361 13.391,7.360 13.175 C 7.360 12.800,7.494 12.527,7.780 12.322 C 7.962 12.191,8.003 12.179,8.311 12.166 C 8.618 12.153,8.665 12.161,8.893 12.274 C 9.051 12.352,9.418 12.635,9.915 13.061 C 10.419 13.494,10.704 13.712,10.729 13.687 C 10.772 13.644,10.814 12.955,10.879 11.240 C 10.954 9.263,11.026 8.889,11.375 8.677 C 11.479 8.613,11.578 8.600,11.964 8.600 C 12.369 8.600,12.450 8.612,12.604 8.692 " fill="#373B4D" stroke="none" fill-rule="evenodd"></path></svg>