<svg width="24" height="24" viewBox="0 0 24 24" fill="none" xmlns="http://www.w3.org/2000/svg"><path d="M10.671 2.521 C 10.151 2.546,10.057 2.562,9.871 2.654 C 9.414 2.878,8.812 3.497,8.523 4.040 L 8.400 4.271 8.400 9.577 L 8.400 14.883 8.505 15.091 C 8.856 15.788,9.409 16.341,10.109 16.694 L 10.317 16.800 14.409 16.799 L 18.500 16.799 18.798 16.636 C 19.322 16.351,19.864 15.861,20.104 15.454 C 20.158 15.363,20.228 15.165,20.260 15.014 C 20.340 14.627,20.400 12.279,20.400 9.468 C 20.400 7.191,20.399 7.154,20.315 6.988 C 20.135 6.631,19.911 6.360,18.925 5.305 C 17.839 4.142,16.546 2.958,16.058 2.679 L 15.856 2.563 13.738 2.522 C 12.573 2.499,11.539 2.483,11.440 2.487 C 11.341 2.490,10.995 2.505,10.671 2.521 M5.580 7.275 C 4.843 7.487,4.088 8.145,3.705 8.909 L 3.600 9.117 3.600 14.400 L 3.600 19.683 3.706 19.891 C 3.940 20.354,4.351 20.877,4.672 21.117 C 4.779 21.198,5.013 21.340,5.190 21.432 L 5.512 21.600 9.618 21.600 L 13.723 21.600 13.892 21.514 C 14.381 21.265,15.002 20.720,15.218 20.349 C 15.338 20.143,15.600 19.409,15.600 19.279 C 15.600 19.201,15.562 19.200,10.800 19.200 L 6.000 19.200 6.000 13.200 L 6.000 7.200 5.910 7.203 C 5.861 7.204,5.712 7.237,5.580 7.275 " fill="#373B4D" stroke="none" fill-rule="evenodd"></path></svg>