<svg width="24" height="24" viewBox="0 0 24 24" fill="none" xmlns="http://www.w3.org/2000/svg"><path d="M7.060 2.558 L 6.340 2.580 6.100 2.735 C 5.694 2.996,5.210 3.527,4.984 3.957 L 4.789 4.331 4.810 7.715 C 4.821 9.577,4.844 11.132,4.860 11.170 C 4.876 11.208,4.907 11.240,4.929 11.240 C 4.951 11.240,5.179 11.116,5.435 10.965 C 6.439 10.371,7.215 10.011,7.858 9.843 C 8.151 9.766,8.285 9.760,9.645 9.760 L 11.115 9.760 11.587 9.923 C 12.149 10.118,13.224 10.635,13.628 10.907 C 15.002 11.828,16.089 13.399,16.550 15.129 C 16.658 15.534,16.659 15.558,16.659 16.740 C 16.658 17.832,16.650 17.977,16.569 18.348 C 16.396 19.138,16.184 19.630,15.489 20.853 C 15.182 21.394,15.118 21.534,15.163 21.563 C 15.241 21.612,16.194 21.609,16.819 21.559 C 17.847 21.475,18.389 21.110,19.002 20.089 L 19.200 19.759 19.198 15.869 C 19.197 13.730,19.180 11.179,19.161 10.200 C 19.122 8.256,19.105 8.107,18.883 7.784 C 18.673 7.478,17.730 6.487,16.142 4.900 C 14.529 3.288,14.229 3.016,13.722 2.704 L 13.424 2.520 10.602 2.528 C 9.050 2.532,7.456 2.546,7.060 2.558 M9.000 12.121 C 8.531 12.160,8.308 12.210,7.921 12.365 C 6.665 12.867,5.692 13.821,5.183 15.049 C 4.938 15.643,4.877 15.967,4.852 16.822 L 4.829 17.583 4.994 18.066 C 5.084 18.331,5.221 18.697,5.297 18.879 L 5.437 19.210 4.888 19.796 C 4.200 20.531,3.781 21.006,3.715 21.127 C 3.685 21.183,3.665 21.358,3.666 21.564 C 3.667 21.971,3.755 22.194,4.001 22.416 C 4.272 22.661,4.462 22.738,4.800 22.739 C 5.186 22.740,5.278 22.687,6.040 22.017 C 6.695 21.442,7.188 21.040,7.240 21.040 C 7.259 21.040,7.612 21.157,8.025 21.300 L 8.774 21.560 9.317 21.559 C 10.365 21.558,11.036 21.417,11.735 21.049 C 12.313 20.746,13.030 20.121,13.476 19.532 C 13.762 19.156,14.062 18.536,14.188 18.060 C 14.287 17.690,14.295 17.598,14.297 16.840 C 14.300 15.924,14.250 15.628,13.984 14.976 C 13.515 13.825,12.159 12.594,11.000 12.268 C 10.518 12.132,9.639 12.068,9.000 12.121 M10.378 14.595 C 10.996 14.815,11.586 15.415,11.804 16.045 C 11.877 16.254,11.893 16.391,11.895 16.800 C 11.898 17.580,11.766 17.908,11.237 18.437 C 10.749 18.924,10.352 19.113,9.740 19.148 C 8.943 19.193,8.253 18.867,7.743 18.204 C 7.415 17.778,7.332 17.549,7.299 16.984 C 7.267 16.415,7.301 16.200,7.483 15.825 C 7.794 15.188,8.433 14.643,9.013 14.519 C 9.314 14.455,10.111 14.499,10.378 14.595 " fill="#373B4D" stroke="none" fill-rule="evenodd"></path></svg>