<svg width="24" height="24" viewBox="0 0 24 24" fill="none" xmlns="http://www.w3.org/2000/svg"><path d="M8.847 2.524 L 6.434 2.554 6.207 2.687 C 5.886 2.875,5.335 3.442,5.046 3.881 L 4.800 4.254 4.800 11.997 L 4.800 19.740 5.045 20.115 C 5.458 20.745,5.962 21.221,6.509 21.495 L 6.717 21.600 12.003 21.600 L 17.289 21.600 17.514 21.479 C 18.062 21.187,18.769 20.525,18.945 20.141 C 18.998 20.025,19.058 19.789,19.079 19.615 C 19.133 19.178,19.200 14.463,19.200 11.108 L 19.200 8.316 18.999 8.018 C 18.689 7.559,18.288 7.096,17.377 6.146 C 16.449 5.178,14.800 3.577,14.302 3.161 C 14.125 3.013,13.847 2.800,13.684 2.686 L 13.387 2.480 12.324 2.487 C 11.739 2.490,10.174 2.507,8.847 2.524 M16.254 12.284 C 16.557 12.619,16.597 12.721,16.626 13.228 L 16.651 13.661 16.425 13.925 C 16.301 14.070,16.131 14.237,16.048 14.295 L 15.896 14.400 11.951 14.400 L 8.007 14.400 7.780 14.150 C 7.428 13.763,7.380 13.649,7.380 13.200 C 7.380 12.848,7.389 12.804,7.505 12.600 C 7.683 12.286,7.849 12.209,8.462 12.157 C 8.908 12.119,12.270 12.061,14.887 12.046 L 16.033 12.040 16.254 12.284 " fill="#373B4D" stroke="none" fill-rule="evenodd"></path></svg>