<svg width="24" height="24" viewBox="0 0 24 24" fill="none" xmlns="http://www.w3.org/2000/svg"><path d="M7.120 2.519 C 6.323 2.547,6.290 2.557,5.773 2.943 C 5.439 3.193,5.190 3.519,4.959 4.012 L 4.800 4.352 4.800 12.014 L 4.800 19.676 5.009 20.088 C 5.182 20.431,5.275 20.557,5.559 20.841 C 5.843 21.125,5.969 21.218,6.313 21.392 L 6.726 21.601 12.013 21.590 L 17.300 21.580 17.570 21.452 C 18.326 21.094,18.906 20.507,19.064 19.940 C 19.122 19.731,19.135 19.323,19.162 16.780 C 19.179 15.174,19.194 12.630,19.196 11.126 L 19.200 8.393 19.020 8.044 C 18.921 7.852,18.739 7.574,18.617 7.425 C 18.092 6.788,15.809 4.478,14.738 3.500 C 14.156 2.967,13.991 2.836,13.660 2.643 L 13.381 2.480 10.601 2.487 C 9.071 2.491,7.505 2.505,7.120 2.519 M12.565 8.609 C 12.848 8.775,13.025 8.997,13.076 9.246 C 13.123 9.477,13.199 10.926,13.200 11.582 L 13.200 11.985 14.530 12.030 C 15.262 12.055,15.929 12.096,16.013 12.121 C 16.210 12.178,16.457 12.403,16.603 12.658 C 16.705 12.835,16.719 12.900,16.720 13.182 C 16.720 13.447,16.702 13.540,16.618 13.708 C 16.491 13.965,16.179 14.260,15.975 14.317 C 15.888 14.341,15.248 14.372,14.517 14.387 L 13.214 14.413 13.171 15.765 C 13.124 17.278,13.118 17.308,12.806 17.629 C 12.569 17.873,12.395 17.940,12.000 17.939 C 11.598 17.938,11.428 17.866,11.173 17.590 C 10.855 17.244,10.875 17.350,10.828 15.806 L 10.785 14.412 9.463 14.386 C 8.735 14.371,8.086 14.347,8.020 14.333 C 7.947 14.317,7.797 14.204,7.634 14.041 C 7.315 13.723,7.261 13.576,7.290 13.097 C 7.313 12.726,7.365 12.606,7.605 12.369 C 7.876 12.101,7.988 12.081,9.484 12.030 L 10.788 11.985 10.816 10.882 C 10.851 9.546,10.883 9.259,11.028 8.992 C 11.131 8.803,11.348 8.614,11.568 8.520 C 11.619 8.498,11.823 8.486,12.022 8.492 C 12.330 8.501,12.411 8.519,12.565 8.609 " fill="#373B4D" stroke="none" fill-rule="evenodd"></path></svg>