<svg width="24" height="24" viewBox="0 0 24 24" fill="none" xmlns="http://www.w3.org/2000/svg"><path d="M7.080 2.438 C 6.681 2.462,6.530 2.488,6.333 2.570 C 5.691 2.835,5.169 3.384,4.928 4.045 L 4.821 4.340 4.809 7.850 C 4.800 10.250,4.810 11.360,4.838 11.360 C 4.861 11.360,5.055 11.228,5.270 11.067 C 5.942 10.561,6.568 10.232,7.333 9.981 C 9.749 9.190,12.310 9.691,14.276 11.341 C 15.445 12.322,16.329 13.823,16.639 15.353 C 16.854 16.412,16.798 17.786,16.499 18.820 C 16.278 19.585,15.814 20.501,15.313 21.161 C 15.163 21.359,15.040 21.540,15.040 21.564 C 15.040 21.596,15.359 21.603,16.150 21.590 C 17.335 21.571,17.469 21.551,17.880 21.338 C 18.431 21.051,18.934 20.445,19.107 19.857 C 19.172 19.637,19.178 19.212,19.190 14.066 C 19.205 7.888,19.227 8.416,18.934 7.830 C 18.780 7.523,18.557 7.278,16.902 5.606 C 15.345 4.033,14.114 2.861,13.870 2.721 C 13.755 2.654,13.543 2.561,13.400 2.514 C 13.146 2.430,13.078 2.428,10.360 2.418 C 8.831 2.413,7.355 2.422,7.080 2.438 M8.680 12.100 C 7.526 12.360,6.573 12.932,5.900 13.770 C 5.415 14.376,5.052 15.133,4.900 15.860 C 4.821 16.238,4.807 17.347,4.877 17.660 C 4.954 18.002,5.161 18.607,5.304 18.907 C 5.379 19.065,5.440 19.207,5.440 19.222 C 5.440 19.238,5.074 19.623,4.627 20.079 C 3.696 21.026,3.627 21.131,3.627 21.576 C 3.627 21.959,3.694 22.137,3.936 22.395 C 4.204 22.680,4.402 22.766,4.796 22.770 C 5.256 22.775,5.382 22.692,6.343 21.750 C 6.787 21.316,7.162 20.960,7.178 20.960 C 7.193 20.960,7.335 21.021,7.493 21.096 C 7.795 21.240,8.402 21.447,8.740 21.522 C 9.053 21.592,10.163 21.578,10.540 21.500 C 12.592 21.075,14.180 19.310,14.360 17.254 C 14.487 15.814,13.992 14.440,12.979 13.422 C 12.416 12.856,11.629 12.398,10.840 12.177 C 10.503 12.083,10.374 12.069,9.700 12.056 C 9.134 12.045,8.874 12.057,8.680 12.100 M10.323 14.519 C 11.036 14.742,11.620 15.328,11.887 16.090 C 12.017 16.462,12.016 17.111,11.883 17.515 C 11.324 19.221,9.201 19.753,7.939 18.504 C 7.445 18.014,7.226 17.506,7.223 16.840 C 7.221 16.384,7.281 16.118,7.472 15.724 C 7.783 15.082,8.464 14.568,9.170 14.442 C 9.470 14.388,10.023 14.425,10.323 14.519 " fill="#373B4D" stroke="none" fill-rule="evenodd"></path></svg>