<svg width="24" height="24" viewBox="0 0 24 24" fill="none" xmlns="http://www.w3.org/2000/svg"><path d="M7.080 2.438 C 6.681 2.462,6.530 2.488,6.333 2.570 C 5.677 2.841,5.136 3.420,4.917 4.085 L 4.820 4.380 4.820 12.000 L 4.820 19.620 4.917 19.915 C 5.151 20.625,5.775 21.249,6.485 21.483 L 6.780 21.580 12.000 21.580 L 17.220 21.580 17.515 21.483 C 17.878 21.363,18.202 21.158,18.493 20.862 C 18.949 20.398,19.107 20.049,19.162 19.381 C 19.182 19.138,19.199 16.589,19.199 13.716 C 19.200 8.725,19.197 8.483,19.126 8.276 C 18.970 7.825,18.805 7.566,18.392 7.130 C 17.673 6.371,15.846 4.538,14.950 3.677 C 14.052 2.815,13.847 2.661,13.400 2.514 C 13.146 2.430,13.078 2.428,10.360 2.418 C 8.831 2.413,7.355 2.422,7.080 2.438 M16.164 12.165 C 16.589 12.392,16.760 12.697,16.760 13.232 C 16.760 13.489,16.743 13.561,16.633 13.766 C 16.500 14.016,16.310 14.195,16.054 14.311 C 15.911 14.375,15.617 14.380,12.000 14.380 L 8.100 14.380 7.906 14.284 C 7.474 14.072,7.221 13.660,7.227 13.180 C 7.236 12.525,7.654 12.095,8.340 12.034 C 8.516 12.019,10.294 12.013,12.291 12.021 L 15.922 12.036 16.164 12.165 " fill="#373B4D" stroke="none" fill-rule="evenodd"></path></svg>