<svg width="24" height="24" viewBox="0 0 24 24" fill="none" xmlns="http://www.w3.org/2000/svg"><path d="M6.800 2.507 C 6.390 2.547,6.311 2.572,6.025 2.759 C 5.861 2.866,5.654 3.020,5.564 3.102 C 5.351 3.294,5.081 3.705,4.924 4.075 L 4.799 4.370 4.810 12.035 L 4.820 19.700 4.987 20.050 C 5.299 20.702,5.698 21.101,6.350 21.413 L 6.700 21.580 11.951 21.590 L 17.202 21.601 17.491 21.488 C 18.078 21.260,18.732 20.698,18.956 20.228 C 19.169 19.781,19.172 19.714,19.176 13.796 L 19.180 8.373 18.992 7.994 C 18.839 7.686,18.720 7.522,18.352 7.118 C 17.699 6.399,15.923 4.607,15.051 3.787 C 14.250 3.034,13.954 2.793,13.594 2.601 L 13.369 2.480 10.154 2.486 C 8.386 2.490,6.877 2.499,6.800 2.507 M16.206 12.210 C 16.571 12.456,16.678 12.648,16.708 13.113 C 16.727 13.407,16.718 13.514,16.661 13.663 C 16.570 13.901,16.215 14.260,16.011 14.320 C 15.908 14.350,14.619 14.371,11.974 14.388 L 8.087 14.412 7.888 14.266 C 7.636 14.081,7.418 13.840,7.346 13.667 C 7.129 13.149,7.345 12.457,7.802 12.201 C 7.976 12.103,8.004 12.101,9.080 12.078 C 9.685 12.065,11.479 12.051,13.066 12.047 L 15.953 12.040 16.206 12.210 " fill="#373B4D" stroke="none" fill-rule="evenodd"></path></svg>