<svg width="24" height="24" viewBox="0 0 24 24" fill="none" xmlns="http://www.w3.org/2000/svg"><path d="M8.158 2.519 L 6.456 2.543 6.238 2.649 C 5.745 2.891,5.288 3.376,4.960 4.006 L 4.800 4.312 4.800 11.997 L 4.800 19.682 4.925 19.931 C 5.283 20.640,5.760 21.117,6.469 21.475 L 6.718 21.600 12.000 21.600 L 17.282 21.600 17.531 21.475 C 18.161 21.157,18.739 20.635,18.961 20.183 C 19.083 19.937,19.089 19.897,19.122 19.233 C 19.141 18.852,19.169 16.261,19.185 13.476 L 19.213 8.411 19.044 8.096 C 18.950 7.922,18.774 7.649,18.651 7.488 C 18.352 7.095,16.520 5.197,15.556 4.280 C 14.399 3.180,14.081 2.908,13.619 2.627 L 13.378 2.480 11.619 2.487 C 10.652 2.491,9.094 2.505,8.158 2.519 M12.397 8.559 C 12.774 8.667,13.014 8.972,13.078 9.427 C 13.119 9.712,13.199 11.231,13.200 11.724 L 13.200 11.989 13.970 12.016 C 15.096 12.056,15.943 12.116,16.069 12.163 C 16.220 12.220,16.508 12.505,16.611 12.700 C 16.735 12.937,16.734 13.431,16.608 13.688 C 16.490 13.926,16.236 14.189,16.047 14.269 C 15.869 14.344,15.055 14.394,13.976 14.398 L 13.212 14.400 13.184 15.210 C 13.136 16.599,13.087 17.159,12.996 17.347 C 12.903 17.541,12.650 17.783,12.457 17.864 C 12.243 17.953,11.702 17.938,11.493 17.836 C 11.317 17.752,11.080 17.510,10.975 17.309 C 10.907 17.179,10.857 16.548,10.817 15.296 L 10.789 14.412 9.524 14.389 C 8.724 14.375,8.187 14.348,8.060 14.316 C 7.900 14.276,7.815 14.220,7.630 14.029 C 7.350 13.739,7.308 13.611,7.326 13.111 C 7.339 12.759,7.350 12.712,7.461 12.554 C 7.751 12.142,7.910 12.104,9.655 12.035 C 10.274 12.010,10.782 11.988,10.785 11.985 C 10.787 11.982,10.810 11.448,10.836 10.797 C 10.861 10.147,10.899 9.509,10.920 9.379 C 10.970 9.075,11.133 8.813,11.376 8.650 C 11.557 8.528,11.591 8.520,11.915 8.520 C 12.105 8.520,12.322 8.538,12.397 8.559 " fill="#373B4D" stroke="none" fill-rule="evenodd"></path></svg>