<svg width="24" height="24" viewBox="0 0 24 24" fill="none" xmlns="http://www.w3.org/2000/svg"><path d="M10.480 2.556 C 10.140 2.580,10.020 2.606,9.851 2.693 C 9.415 2.917,8.735 3.616,8.499 4.083 L 8.400 4.277 8.400 9.598 L 8.400 14.919 8.570 15.203 C 8.918 15.784,9.534 16.386,10.080 16.677 L 10.311 16.800 14.429 16.800 L 18.548 16.800 18.964 16.524 C 19.492 16.174,19.954 15.706,20.119 15.355 C 20.189 15.205,20.254 14.977,20.278 14.800 C 20.330 14.413,20.401 10.883,20.398 8.822 C 20.397 7.606,20.384 7.185,20.344 7.073 C 20.211 6.700,19.624 6.023,18.239 4.640 C 17.184 3.588,16.558 3.025,16.129 2.742 L 15.860 2.565 13.380 2.546 C 12.016 2.535,10.711 2.540,10.480 2.556 M5.560 7.294 C 4.811 7.561,4.191 8.087,3.763 8.820 L 3.600 9.099 3.600 14.399 L 3.600 19.700 3.790 20.040 C 4.055 20.515,4.685 21.145,5.160 21.410 L 5.500 21.600 9.611 21.600 L 13.723 21.600 13.917 21.501 C 14.355 21.280,15.074 20.604,15.259 20.240 C 15.411 19.942,15.609 19.310,15.560 19.280 C 15.515 19.252,10.227 19.200,7.513 19.200 L 6.000 19.200 6.000 13.200 L 6.000 7.200 5.910 7.201 C 5.861 7.201,5.703 7.243,5.560 7.294 " fill="#373B4D" stroke="none" fill-rule="evenodd"></path></svg>