<svg width="24" height="24" viewBox="0 0 24 24" fill="none" xmlns="http://www.w3.org/2000/svg"><path d="M8.814 2.522 L 6.447 2.550 6.216 2.682 C 5.782 2.931,5.272 3.479,4.924 4.072 L 4.800 4.284 4.800 12.000 L 4.800 19.716 4.922 19.923 C 5.375 20.691,5.849 21.161,6.509 21.494 L 6.717 21.600 12.009 21.600 L 17.300 21.600 17.621 21.419 C 18.158 21.115,18.772 20.528,18.962 20.135 C 19.006 20.044,19.060 19.819,19.083 19.635 C 19.133 19.217,19.196 14.442,19.198 10.947 L 19.200 8.314 18.956 7.957 C 18.535 7.342,17.992 6.746,16.443 5.199 C 14.898 3.656,14.274 3.086,13.706 2.701 L 13.380 2.480 12.280 2.487 C 11.675 2.490,10.115 2.506,8.814 2.522 M16.256 12.283 C 16.582 12.635,16.611 12.708,16.632 13.222 L 16.649 13.664 16.430 13.923 C 16.309 14.066,16.139 14.231,16.053 14.291 L 15.896 14.400 11.951 14.400 L 8.007 14.400 7.758 14.130 C 7.425 13.769,7.362 13.623,7.361 13.209 C 7.360 12.920,7.375 12.848,7.479 12.642 C 7.677 12.250,7.851 12.174,8.640 12.136 C 9.173 12.110,12.773 12.058,14.806 12.047 L 16.031 12.040 16.256 12.283 " fill="#373B4D" stroke="none" fill-rule="evenodd"></path></svg>