<svg width="24" height="24" viewBox="0 0 24 24" fill="none" xmlns="http://www.w3.org/2000/svg"><path d="M8.717 2.521 L 6.455 2.547 6.253 2.657 C 5.778 2.915,5.309 3.404,4.976 3.989 L 4.800 4.298 4.800 12.000 L 4.800 19.702 4.979 20.016 C 5.369 20.700,5.843 21.158,6.509 21.495 L 6.717 21.600 12.003 21.600 L 17.288 21.600 17.556 21.459 C 18.170 21.137,18.837 20.483,19.004 20.042 C 19.130 19.707,19.152 18.877,19.183 13.280 L 19.210 8.340 18.889 7.860 C 18.511 7.296,17.748 6.470,16.075 4.818 C 14.785 3.543,14.276 3.086,13.760 2.737 L 13.380 2.480 12.180 2.487 C 11.520 2.491,9.962 2.506,8.717 2.521 M16.295 12.324 C 16.604 12.657,16.639 12.757,16.640 13.286 L 16.640 13.673 16.462 13.892 C 16.363 14.012,16.207 14.171,16.113 14.245 L 15.943 14.380 11.979 14.391 L 8.015 14.403 7.773 14.151 C 7.425 13.788,7.346 13.615,7.345 13.217 C 7.344 12.944,7.361 12.858,7.454 12.669 C 7.649 12.269,7.832 12.174,8.480 12.135 C 8.887 12.110,12.627 12.057,14.746 12.047 L 16.033 12.040 16.295 12.324 " fill="#373B4D" stroke="none" fill-rule="evenodd"></path></svg>