<svg width="24" height="24" viewBox="0 0 24 24" fill="none" xmlns="http://www.w3.org/2000/svg"><path d="M8.158 2.519 L 6.456 2.543 6.238 2.649 C 5.745 2.891,5.288 3.376,4.960 4.006 L 4.800 4.312 4.800 11.997 L 4.800 19.682 4.925 19.931 C 5.283 20.640,5.760 21.117,6.469 21.475 L 6.718 21.600 12.000 21.600 L 17.282 21.600 17.531 21.475 C 18.161 21.157,18.739 20.635,18.961 20.183 C 19.083 19.937,19.089 19.897,19.122 19.233 C 19.141 18.852,19.169 16.261,19.185 13.476 L 19.213 8.411 19.044 8.096 C 18.950 7.922,18.774 7.649,18.651 7.488 C 18.352 7.095,16.520 5.197,15.556 4.280 C 14.399 3.180,14.081 2.908,13.619 2.627 L 13.378 2.480 11.619 2.487 C 10.652 2.491,9.094 2.505,8.158 2.519 M16.091 8.592 C 16.340 8.702,16.551 8.902,16.600 9.073 C 16.663 9.296,16.712 11.384,16.742 15.064 L 16.769 18.388 16.526 18.647 C 16.392 18.790,16.207 18.960,16.115 19.024 C 15.961 19.130,15.919 19.140,15.623 19.135 C 15.436 19.132,15.240 19.105,15.157 19.070 C 14.973 18.993,14.747 18.794,14.633 18.609 C 14.547 18.469,14.542 18.413,14.515 17.261 C 14.499 16.601,14.475 14.521,14.460 12.640 L 14.432 9.220 14.609 9.000 C 14.808 8.753,15.054 8.567,15.249 8.517 C 15.448 8.466,15.896 8.506,16.091 8.592 M12.651 11.073 C 12.757 11.146,12.888 11.275,12.944 11.360 L 13.046 11.513 13.080 12.827 C 13.099 13.549,13.126 15.099,13.142 16.270 L 13.169 18.401 12.854 18.714 C 12.212 19.355,11.731 19.343,11.098 18.672 L 10.840 18.399 10.840 15.013 L 10.840 11.628 10.986 11.444 C 11.150 11.237,11.284 11.110,11.460 10.995 C 11.564 10.927,11.638 10.918,12.020 10.928 C 12.445 10.940,12.467 10.945,12.651 11.073 M8.808 13.365 C 8.999 13.413,9.273 13.622,9.378 13.801 C 9.458 13.937,9.460 13.995,9.460 16.203 L 9.460 18.466 9.351 18.630 C 9.159 18.921,8.725 19.160,8.390 19.160 C 8.040 19.160,7.659 18.943,7.426 18.613 L 7.309 18.447 7.277 17.113 C 7.259 16.380,7.243 15.386,7.242 14.904 L 7.240 14.028 7.415 13.816 C 7.774 13.380,7.980 13.273,8.400 13.307 C 8.543 13.319,8.727 13.345,8.808 13.365 " fill="#373B4D" stroke="none" fill-rule="evenodd"></path></svg>