<svg width="24" height="24" viewBox="0 0 24 24" fill="none" xmlns="http://www.w3.org/2000/svg"><path d="M10.667 2.521 C 10.178 2.551,10.085 2.569,9.860 2.674 C 9.430 2.875,8.747 3.588,8.485 4.108 L 8.400 4.277 8.400 9.580 L 8.400 14.882 8.516 15.111 C 8.834 15.741,9.459 16.366,10.089 16.684 L 10.318 16.800 14.410 16.800 L 18.502 16.800 18.814 16.622 C 19.506 16.228,20.061 15.661,20.202 15.204 C 20.337 14.769,20.373 13.754,20.376 10.300 L 20.380 7.100 20.269 6.900 C 19.840 6.126,17.073 3.343,16.112 2.719 L 15.884 2.571 14.512 2.545 C 11.591 2.490,11.203 2.488,10.667 2.521 M5.535 7.296 C 4.817 7.529,4.123 8.128,3.741 8.846 L 3.600 9.112 3.600 14.397 L 3.600 19.683 3.685 19.852 C 4.063 20.597,4.580 21.127,5.269 21.475 L 5.518 21.600 9.620 21.600 L 13.723 21.600 13.911 21.504 C 14.431 21.240,15.086 20.628,15.274 20.230 C 15.431 19.896,15.623 19.290,15.585 19.251 C 15.567 19.234,13.404 19.215,10.777 19.209 L 6.000 19.197 6.000 13.199 L 6.000 7.200 5.910 7.202 C 5.861 7.203,5.692 7.245,5.535 7.296 " fill="#373B4D" stroke="none" fill-rule="evenodd"></path></svg>