<svg width="24" height="24" viewBox="0 0 24 24" fill="none" xmlns="http://www.w3.org/2000/svg"><path d="M10.618 2.520 C 10.080 2.545,10.046 2.552,9.799 2.683 C 9.345 2.924,8.768 3.549,8.485 4.108 L 8.400 4.277 8.400 9.580 L 8.400 14.883 8.505 15.091 C 8.868 15.815,9.379 16.326,10.109 16.695 L 10.317 16.800 14.400 16.800 L 18.482 16.800 18.731 16.675 C 19.105 16.488,19.428 16.244,19.749 15.906 C 20.078 15.560,20.215 15.318,20.276 14.977 C 20.341 14.617,20.399 12.012,20.400 9.446 L 20.400 7.151 20.278 6.921 C 20.100 6.589,19.813 6.243,18.948 5.324 C 17.748 4.048,16.520 2.925,16.037 2.662 L 15.838 2.554 13.869 2.519 C 11.714 2.480,11.449 2.480,10.618 2.520 M5.620 7.259 C 4.829 7.474,4.124 8.081,3.706 8.909 L 3.600 9.117 3.600 14.403 L 3.600 19.688 3.759 19.994 C 3.964 20.388,4.372 20.903,4.628 21.091 C 4.737 21.172,4.979 21.319,5.164 21.418 L 5.500 21.599 9.611 21.599 L 13.723 21.600 13.931 21.495 C 14.444 21.238,15.061 20.674,15.260 20.279 C 15.383 20.038,15.600 19.401,15.600 19.284 L 15.600 19.200 10.800 19.200 L 6.000 19.200 6.000 13.200 L 6.000 7.200 5.910 7.203 C 5.861 7.204,5.730 7.230,5.620 7.259 " fill="#373B4D" stroke="none" fill-rule="evenodd"></path></svg>