<svg width="24" height="24" viewBox="0 0 24 24" fill="none" xmlns="http://www.w3.org/2000/svg"><path d="M9.154 2.043 C 7.200 2.078,6.708 2.117,6.416 2.260 C 5.987 2.470,5.453 3.042,5.159 3.606 L 5.000 3.912 5.000 11.577 L 5.000 19.242 5.115 19.496 C 5.428 20.186,5.942 20.708,6.669 21.075 L 6.918 21.200 12.209 21.199 L 17.500 21.199 17.800 21.036 C 18.499 20.657,18.961 20.193,19.295 19.531 L 19.400 19.323 19.400 14.606 L 19.400 9.890 16.910 9.872 L 14.420 9.854 14.129 9.751 C 13.754 9.617,13.505 9.455,13.224 9.161 C 12.895 8.815,12.799 8.578,12.757 8.006 C 12.720 7.503,12.640 3.872,12.640 2.710 L 12.640 2.000 11.730 2.007 C 11.229 2.010,10.070 2.027,9.154 2.043 M14.642 5.316 L 14.640 7.892 16.790 7.867 C 18.692 7.845,19.193 7.821,19.266 7.747 C 19.381 7.632,18.316 6.454,15.792 3.901 L 14.643 2.740 14.642 5.316 " fill="#373B4D" stroke="none" fill-rule="evenodd"></path></svg>