<svg width="24" height="24" viewBox="0 0 24 24" fill="none" xmlns="http://www.w3.org/2000/svg"><path d="M8.905 2.525 L 6.431 2.558 6.245 2.665 C 5.980 2.819,5.250 3.566,5.007 3.933 L 4.800 4.247 4.800 11.996 L 4.800 19.745 5.038 20.094 C 5.499 20.770,5.972 21.224,6.484 21.482 L 6.718 21.600 12.000 21.600 L 17.283 21.600 17.452 21.515 C 18.114 21.182,18.854 20.441,19.004 19.961 C 19.124 19.578,19.154 18.420,19.186 12.978 L 19.213 8.335 19.010 8.038 C 18.709 7.594,18.363 7.193,17.453 6.232 C 16.642 5.375,14.727 3.515,14.260 3.129 C 14.128 3.020,13.879 2.829,13.706 2.705 L 13.392 2.480 12.386 2.486 C 11.833 2.490,10.266 2.508,8.905 2.525 M16.191 12.215 C 16.477 12.525,16.557 12.680,16.599 13.002 C 16.675 13.589,16.665 13.647,16.437 13.908 C 16.326 14.035,16.162 14.198,16.072 14.270 L 15.909 14.400 11.958 14.400 L 8.006 14.400 7.783 14.150 C 7.449 13.777,7.400 13.653,7.400 13.172 C 7.400 12.784,7.405 12.762,7.530 12.575 C 7.737 12.264,7.895 12.207,8.682 12.158 C 9.326 12.117,12.554 12.059,14.865 12.046 L 16.030 12.040 16.191 12.215 " fill="#373B4D" stroke="none" fill-rule="evenodd"></path></svg>