<svg width="24" height="24" viewBox="0 0 24 24" fill="none" xmlns="http://www.w3.org/2000/svg"><path d="M8.717 2.521 L 6.455 2.547 6.253 2.657 C 5.778 2.915,5.309 3.404,4.976 3.989 L 4.800 4.298 4.800 12.000 L 4.800 19.702 4.979 20.016 C 5.369 20.700,5.843 21.158,6.509 21.495 L 6.717 21.600 12.003 21.600 L 17.288 21.600 17.556 21.459 C 18.170 21.137,18.837 20.483,19.004 20.042 C 19.130 19.707,19.152 18.877,19.183 13.280 L 19.210 8.340 18.889 7.860 C 18.511 7.296,17.748 6.470,16.075 4.818 C 14.785 3.543,14.276 3.086,13.760 2.737 L 13.380 2.480 12.180 2.487 C 11.520 2.491,9.962 2.506,8.717 2.521 M16.295 11.124 C 16.604 11.457,16.639 11.557,16.640 12.086 L 16.640 12.473 16.462 12.692 C 16.363 12.812,16.207 12.971,16.113 13.045 L 15.943 13.180 11.979 13.191 L 8.015 13.203 7.773 12.951 C 7.425 12.588,7.346 12.415,7.345 12.017 C 7.344 11.744,7.361 11.658,7.454 11.469 C 7.649 11.069,7.832 10.974,8.480 10.935 C 8.887 10.910,12.627 10.857,14.746 10.847 L 16.033 10.840 16.295 11.124 M16.295 15.924 C 16.604 16.257,16.639 16.357,16.640 16.886 L 16.640 17.273 16.462 17.492 C 16.363 17.612,16.207 17.771,16.113 17.845 L 15.943 17.980 11.979 17.991 L 8.015 18.003 7.773 17.751 C 7.425 17.388,7.346 17.215,7.345 16.817 C 7.344 16.544,7.361 16.458,7.454 16.269 C 7.649 15.869,7.832 15.774,8.480 15.735 C 8.887 15.710,12.627 15.657,14.746 15.647 L 16.033 15.640 16.295 15.924 " fill="#373B4D" stroke="none" fill-rule="evenodd"></path></svg>