<svg width="24" height="24" viewBox="0 0 24 24" fill="none" xmlns="http://www.w3.org/2000/svg"><path d="M8.814 2.522 L 6.447 2.550 6.216 2.682 C 5.782 2.931,5.272 3.479,4.924 4.072 L 4.800 4.284 4.800 12.000 L 4.800 19.716 4.922 19.923 C 5.375 20.691,5.849 21.161,6.509 21.494 L 6.717 21.600 12.009 21.600 L 17.300 21.600 17.621 21.419 C 18.158 21.115,18.772 20.528,18.962 20.135 C 19.006 20.044,19.060 19.819,19.083 19.635 C 19.133 19.217,19.196 14.442,19.198 10.947 L 19.200 8.314 18.956 7.957 C 18.535 7.342,17.992 6.746,16.443 5.199 C 14.898 3.656,14.274 3.086,13.706 2.701 L 13.380 2.480 12.280 2.487 C 11.675 2.490,10.115 2.506,8.814 2.522 M12.364 8.602 C 12.666 8.681,12.918 8.933,12.998 9.236 C 13.053 9.444,13.110 10.093,13.162 11.100 C 13.187 11.584,13.211 11.983,13.214 11.986 C 13.217 11.989,13.634 12.012,14.140 12.037 C 15.856 12.123,16.143 12.179,16.415 12.480 C 16.652 12.742,16.723 13.161,16.602 13.580 C 16.526 13.843,16.172 14.214,15.940 14.275 C 15.650 14.351,14.914 14.400,14.056 14.400 L 13.211 14.400 13.184 14.970 C 13.137 15.959,13.081 16.731,13.037 17.007 C 12.911 17.788,12.209 18.135,11.487 17.774 C 11.185 17.623,11.025 17.407,10.965 17.074 C 10.920 16.816,10.865 16.057,10.816 14.990 L 10.789 14.400 10.085 14.398 C 9.697 14.397,9.098 14.382,8.754 14.364 C 8.031 14.326,7.851 14.266,7.625 13.986 C 7.377 13.680,7.352 13.596,7.367 13.124 C 7.380 12.710,7.384 12.691,7.511 12.531 C 7.791 12.177,8.028 12.134,10.285 12.017 L 10.791 11.991 10.818 11.445 C 10.923 9.299,10.961 9.084,11.291 8.767 C 11.541 8.527,11.880 8.475,12.364 8.602 " fill="#373B4D" stroke="none" fill-rule="evenodd"></path></svg>