<svg width="24" height="24" viewBox="0 0 24 24" fill="none" xmlns="http://www.w3.org/2000/svg"><path d="M7.120 2.519 C 6.323 2.547,6.290 2.557,5.773 2.943 C 5.439 3.193,5.190 3.519,4.959 4.012 L 4.800 4.352 4.800 12.014 L 4.800 19.676 5.009 20.088 C 5.182 20.431,5.275 20.557,5.559 20.841 C 5.843 21.125,5.969 21.218,6.313 21.392 L 6.726 21.601 12.013 21.590 L 17.300 21.580 17.570 21.452 C 18.326 21.094,18.906 20.507,19.064 19.940 C 19.122 19.731,19.135 19.323,19.162 16.780 C 19.179 15.174,19.194 12.630,19.196 11.126 L 19.200 8.393 19.020 8.044 C 18.921 7.852,18.739 7.574,18.617 7.425 C 18.092 6.788,15.809 4.478,14.738 3.500 C 14.156 2.967,13.991 2.836,13.660 2.643 L 13.381 2.480 10.601 2.487 C 9.071 2.491,7.505 2.505,7.120 2.519 M15.943 8.515 C 16.035 8.533,16.202 8.620,16.329 8.716 C 16.709 9.002,16.685 8.795,16.723 12.100 C 16.740 13.684,16.756 15.747,16.758 16.684 L 16.760 18.388 16.530 18.662 C 16.376 18.845,16.227 18.974,16.080 19.051 C 15.883 19.155,15.829 19.165,15.560 19.152 C 15.381 19.143,15.201 19.108,15.113 19.065 C 14.905 18.964,14.578 18.638,14.544 18.498 C 14.505 18.339,14.447 14.361,14.443 11.525 L 14.440 9.231 14.581 9.039 C 14.751 8.807,14.970 8.609,15.137 8.537 C 15.273 8.477,15.691 8.466,15.943 8.515 M12.342 10.915 C 12.572 10.960,12.903 11.219,13.009 11.439 C 13.096 11.619,13.097 11.644,13.135 14.988 L 13.173 18.356 12.998 18.582 C 12.666 19.012,12.238 19.239,11.862 19.182 C 11.604 19.144,11.290 18.933,11.052 18.640 L 10.842 18.380 10.841 15.008 L 10.840 11.637 10.996 11.425 C 11.175 11.184,11.366 11.012,11.540 10.936 C 11.673 10.877,12.092 10.867,12.342 10.915 M8.943 13.390 C 9.106 13.475,9.348 13.712,9.447 13.886 C 9.489 13.961,9.500 14.424,9.500 16.200 C 9.500 18.701,9.522 18.521,9.180 18.836 C 8.622 19.351,7.890 19.264,7.421 18.627 L 7.302 18.465 7.274 17.543 C 7.259 17.035,7.245 16.039,7.243 15.328 L 7.240 14.037 7.396 13.825 C 7.573 13.586,7.763 13.414,7.940 13.333 C 8.126 13.248,8.736 13.283,8.943 13.390 " fill="#373B4D" stroke="none" fill-rule="evenodd"></path></svg>