<svg width="24" height="24" viewBox="0 0 24 24" fill="none" xmlns="http://www.w3.org/2000/svg"><path d="M9.960 2.042 C 8.179 2.078,6.953 2.145,6.651 2.224 C 6.356 2.301,6.199 2.400,5.866 2.718 C 5.556 3.015,5.259 3.402,5.105 3.709 L 5.000 3.917 5.000 11.611 L 5.000 19.305 5.210 19.661 C 5.496 20.145,6.020 20.674,6.510 20.974 L 6.879 21.200 12.210 21.200 L 17.540 21.200 17.920 20.952 C 18.427 20.621,18.974 20.075,19.215 19.661 L 19.400 19.342 19.400 14.611 L 19.400 9.880 16.878 9.880 C 14.386 9.880,14.355 9.879,14.188 9.795 C 13.559 9.477,13.145 9.123,12.962 8.745 C 12.846 8.505,12.813 8.238,12.762 7.160 C 12.721 6.287,12.640 3.120,12.640 2.370 L 12.640 2.000 12.030 2.007 C 11.695 2.010,10.763 2.026,9.960 2.042 M14.642 5.316 L 14.640 7.893 16.630 7.864 C 18.489 7.837,19.209 7.805,19.267 7.746 C 19.363 7.650,18.079 6.233,15.746 3.860 L 14.644 2.740 14.642 5.316 " fill="#373B4D" stroke="none" fill-rule="evenodd"></path></svg>