<svg width="24" height="24" viewBox="0 0 24 24" fill="none" xmlns="http://www.w3.org/2000/svg"><path d="M8.905 2.525 L 6.431 2.558 6.245 2.665 C 5.980 2.819,5.250 3.566,5.007 3.933 L 4.800 4.247 4.800 11.996 L 4.800 19.745 5.038 20.094 C 5.499 20.770,5.972 21.224,6.484 21.482 L 6.718 21.600 12.000 21.600 L 17.283 21.600 17.452 21.515 C 18.114 21.182,18.854 20.441,19.004 19.961 C 19.124 19.578,19.154 18.420,19.186 12.978 L 19.213 8.335 19.010 8.038 C 18.709 7.594,18.363 7.193,17.453 6.232 C 16.642 5.375,14.727 3.515,14.260 3.129 C 14.128 3.020,13.879 2.829,13.706 2.705 L 13.392 2.480 12.386 2.486 C 11.833 2.490,10.266 2.508,8.905 2.525 M16.191 11.015 C 16.477 11.325,16.557 11.480,16.599 11.802 C 16.675 12.389,16.665 12.447,16.437 12.708 C 16.326 12.835,16.162 12.998,16.072 13.070 L 15.909 13.200 11.958 13.200 L 8.006 13.200 7.783 12.950 C 7.449 12.577,7.400 12.453,7.400 11.972 C 7.400 11.584,7.405 11.562,7.530 11.375 C 7.737 11.064,7.895 11.007,8.682 10.958 C 9.326 10.917,12.554 10.859,14.865 10.846 L 16.030 10.840 16.191 11.015 M16.191 15.815 C 16.477 16.125,16.557 16.280,16.599 16.602 C 16.675 17.189,16.665 17.247,16.437 17.508 C 16.326 17.635,16.162 17.799,16.072 17.870 L 15.909 18.000 11.958 18.000 L 8.006 18.000 7.783 17.750 C 7.449 17.377,7.400 17.253,7.400 16.772 C 7.400 16.384,7.405 16.362,7.530 16.175 C 7.737 15.864,7.895 15.807,8.682 15.758 C 9.326 15.717,12.554 15.659,14.865 15.646 L 16.030 15.640 16.191 15.815 " fill="#373B4D" stroke="none" fill-rule="evenodd"></path></svg>