<svg width="24" height="24" viewBox="0 0 24 24" fill="none" xmlns="http://www.w3.org/2000/svg"><path d="M8.400 2.520 L 6.460 2.545 6.212 2.672 C 5.747 2.910,5.282 3.404,4.969 3.993 L 4.800 4.309 4.800 11.996 L 4.800 19.682 4.925 19.931 C 5.264 20.608,5.788 21.132,6.469 21.475 L 6.718 21.600 12.000 21.600 L 17.283 21.600 17.491 21.495 C 18.168 21.152,18.749 20.619,18.985 20.124 C 19.078 19.928,19.091 19.841,19.122 19.164 C 19.141 18.755,19.169 16.170,19.184 13.420 L 19.213 8.420 19.121 8.240 C 18.953 7.909,18.672 7.503,18.405 7.202 C 17.811 6.535,16.161 4.851,15.376 4.113 C 14.385 3.180,14.075 2.917,13.673 2.667 L 13.373 2.480 11.857 2.487 C 11.022 2.491,9.467 2.506,8.400 2.520 M16.000 8.569 C 16.207 8.632,16.471 8.826,16.546 8.971 C 16.593 9.063,16.620 9.277,16.645 9.759 C 16.678 10.425,16.759 15.855,16.760 17.513 L 16.760 18.407 16.517 18.660 C 16.383 18.800,16.202 18.963,16.115 19.023 C 15.972 19.123,15.927 19.132,15.621 19.128 C 15.239 19.122,15.092 19.072,14.855 18.866 C 14.553 18.603,14.555 18.615,14.519 16.904 C 14.501 16.066,14.474 13.994,14.459 12.300 L 14.432 9.220 14.600 9.014 C 14.818 8.746,15.076 8.564,15.289 8.526 C 15.490 8.490,15.803 8.509,16.000 8.569 M12.350 10.956 C 12.562 10.997,12.802 11.160,12.936 11.354 L 13.038 11.501 13.077 13.121 C 13.099 14.011,13.129 15.569,13.143 16.582 L 13.170 18.424 12.857 18.712 C 12.482 19.058,12.256 19.177,11.980 19.176 C 11.707 19.174,11.487 19.052,11.132 18.704 L 10.840 18.417 10.840 15.014 L 10.840 11.610 11.098 11.331 C 11.241 11.177,11.416 11.022,11.488 10.987 C 11.633 10.916,12.062 10.901,12.350 10.956 M8.748 13.362 C 8.854 13.385,9.022 13.464,9.123 13.537 C 9.455 13.779,9.440 13.655,9.440 16.228 L 9.440 18.504 9.339 18.642 C 9.149 18.901,8.794 19.110,8.482 19.147 C 8.122 19.190,7.669 18.960,7.427 18.611 L 7.317 18.451 7.279 16.976 C 7.259 16.164,7.241 15.165,7.241 14.756 L 7.240 14.012 7.485 13.744 C 7.620 13.597,7.795 13.442,7.875 13.400 C 8.041 13.312,8.440 13.295,8.748 13.362 " fill="#373B4D" stroke="none" fill-rule="evenodd"></path></svg>