<svg width="24" height="24" viewBox="0 0 24 24" fill="none" xmlns="http://www.w3.org/2000/svg"><path d="M6.800 2.507 C 6.390 2.547,6.311 2.572,6.025 2.759 C 5.861 2.866,5.654 3.020,5.564 3.102 C 5.351 3.294,5.081 3.705,4.924 4.075 L 4.799 4.370 4.810 12.035 L 4.820 19.700 4.987 20.050 C 5.299 20.702,5.698 21.101,6.350 21.413 L 6.700 21.580 11.951 21.590 L 17.202 21.601 17.491 21.488 C 18.078 21.260,18.732 20.698,18.956 20.228 C 19.169 19.781,19.172 19.714,19.176 13.796 L 19.180 8.373 18.992 7.994 C 18.839 7.686,18.720 7.522,18.352 7.118 C 17.699 6.399,15.923 4.607,15.051 3.787 C 14.250 3.034,13.954 2.793,13.594 2.601 L 13.369 2.480 10.154 2.486 C 8.386 2.490,6.877 2.499,6.800 2.507 M16.206 11.010 C 16.571 11.256,16.678 11.448,16.708 11.913 C 16.727 12.207,16.718 12.314,16.661 12.463 C 16.570 12.701,16.215 13.060,16.011 13.120 C 15.908 13.150,14.619 13.171,11.974 13.188 L 8.087 13.212 7.888 13.066 C 7.636 12.881,7.418 12.640,7.346 12.467 C 7.129 11.949,7.345 11.257,7.802 11.001 C 7.976 10.903,8.004 10.901,9.080 10.878 C 9.685 10.865,11.479 10.851,13.066 10.847 L 15.953 10.840 16.206 11.010 M16.206 15.810 C 16.571 16.056,16.678 16.248,16.708 16.713 C 16.727 17.007,16.718 17.114,16.661 17.263 C 16.570 17.501,16.215 17.860,16.011 17.920 C 15.908 17.950,14.619 17.971,11.974 17.988 L 8.087 18.012 7.888 17.866 C 7.636 17.681,7.418 17.440,7.346 17.267 C 7.129 16.749,7.345 16.057,7.802 15.801 C 7.976 15.703,8.004 15.701,9.080 15.678 C 9.685 15.665,11.479 15.651,13.066 15.647 L 15.953 15.640 16.206 15.810 " fill="#373B4D" stroke="none" fill-rule="evenodd"></path></svg>