<svg width="24" height="24" viewBox="0 0 24 24" fill="none" xmlns="http://www.w3.org/2000/svg"><path d="M7.080 2.438 C 6.681 2.462,6.530 2.488,6.333 2.570 C 5.677 2.841,5.136 3.420,4.917 4.085 L 4.820 4.380 4.820 12.000 L 4.820 19.620 4.917 19.915 C 5.151 20.625,5.775 21.249,6.485 21.483 L 6.780 21.580 12.000 21.580 L 17.220 21.580 17.515 21.483 C 17.878 21.363,18.202 21.158,18.493 20.862 C 18.949 20.398,19.107 20.049,19.162 19.381 C 19.182 19.138,19.199 16.589,19.199 13.716 C 19.200 8.725,19.197 8.483,19.126 8.276 C 18.970 7.825,18.805 7.566,18.392 7.130 C 17.673 6.371,15.846 4.538,14.950 3.677 C 14.052 2.815,13.847 2.661,13.400 2.514 C 13.146 2.430,13.078 2.428,10.360 2.418 C 8.831 2.413,7.355 2.422,7.080 2.438 M16.164 10.965 C 16.589 11.192,16.760 11.497,16.760 12.032 C 16.760 12.289,16.743 12.361,16.633 12.566 C 16.500 12.816,16.310 12.995,16.054 13.111 C 15.911 13.175,15.617 13.180,12.000 13.180 L 8.100 13.180 7.906 13.084 C 7.474 12.872,7.221 12.460,7.227 11.980 C 7.236 11.325,7.654 10.895,8.340 10.834 C 8.516 10.819,10.294 10.813,12.291 10.821 L 15.922 10.836 16.164 10.965 M16.164 15.765 C 16.589 15.992,16.760 16.297,16.760 16.832 C 16.760 17.089,16.743 17.161,16.633 17.366 C 16.500 17.616,16.310 17.795,16.054 17.911 C 15.911 17.975,15.617 17.980,12.000 17.980 L 8.100 17.980 7.906 17.884 C 7.474 17.672,7.221 17.260,7.227 16.780 C 7.236 16.125,7.654 15.695,8.340 15.634 C 8.516 15.619,10.294 15.613,12.291 15.621 L 15.922 15.636 16.164 15.765 " fill="#373B4D" stroke="none" fill-rule="evenodd"></path></svg>