<svg width="24" height="24" viewBox="0 0 24 24" fill="none" xmlns="http://www.w3.org/2000/svg"><path d="M8.451 2.043 C 7.228 2.067,6.836 2.087,6.671 2.135 C 6.096 2.303,5.411 2.981,5.114 3.679 L 5.002 3.940 5.001 11.591 L 5.000 19.241 5.178 19.623 C 5.496 20.304,5.881 20.692,6.555 21.015 L 6.900 21.180 12.200 21.180 L 17.500 21.180 17.840 21.016 C 18.488 20.703,18.901 20.301,19.210 19.682 L 19.380 19.340 19.390 14.610 L 19.401 9.880 17.030 9.879 C 15.727 9.879,14.543 9.861,14.400 9.841 C 13.805 9.755,13.191 9.308,12.896 8.747 C 12.766 8.499,12.747 8.424,12.719 8.045 C 12.701 7.811,12.674 6.355,12.658 4.810 L 12.628 2.000 11.324 2.007 C 10.607 2.010,9.314 2.027,8.451 2.043 M14.642 5.313 L 14.640 7.886 16.850 7.871 C 19.011 7.857,19.280 7.841,19.280 7.728 C 19.280 7.633,18.936 7.153,18.593 6.769 C 18.379 6.530,17.404 5.526,16.424 4.537 L 14.644 2.740 14.642 5.313 " fill="#373B4D" stroke="none" fill-rule="evenodd"></path></svg>