<svg width="24" height="24" viewBox="0 0 24 24" fill="none" xmlns="http://www.w3.org/2000/svg"><path d="M7.700 2.519 C 6.549 2.541,6.447 2.548,6.273 2.627 C 5.774 2.855,5.304 3.336,5.003 3.925 L 4.800 4.324 4.800 12.006 L 4.800 19.687 4.979 20.034 C 5.303 20.661,5.739 21.097,6.366 21.421 L 6.713 21.600 11.986 21.600 L 17.260 21.600 17.517 21.478 C 18.162 21.173,18.748 20.646,18.971 20.169 C 19.085 19.926,19.095 19.867,19.124 19.245 C 19.142 18.879,19.169 16.294,19.184 13.500 L 19.212 8.420 19.081 8.160 C 18.907 7.817,18.701 7.518,18.420 7.200 C 17.953 6.672,16.275 4.963,15.472 4.196 C 14.447 3.218,14.108 2.927,13.702 2.676 L 13.383 2.480 11.162 2.488 C 9.940 2.492,8.382 2.506,7.700 2.519 M12.501 8.583 C 12.707 8.681,12.909 8.872,12.995 9.050 C 13.093 9.254,13.144 9.803,13.184 11.105 L 13.212 11.990 14.076 12.017 C 14.551 12.033,15.189 12.062,15.494 12.083 C 16.001 12.117,16.063 12.130,16.214 12.232 C 16.305 12.293,16.450 12.445,16.537 12.570 C 16.679 12.777,16.695 12.826,16.711 13.114 C 16.728 13.396,16.718 13.458,16.623 13.666 C 16.472 13.994,16.182 14.260,15.909 14.319 C 15.795 14.343,15.138 14.374,14.451 14.388 L 13.200 14.413 13.199 14.676 C 13.198 15.332,13.117 16.961,13.076 17.157 C 13.040 17.331,12.992 17.415,12.833 17.584 C 12.724 17.699,12.569 17.825,12.489 17.863 C 12.288 17.958,11.761 17.957,11.530 17.862 C 11.312 17.771,10.976 17.406,10.920 17.199 C 10.881 17.055,10.803 15.420,10.801 14.716 L 10.800 14.413 9.437 14.386 C 7.906 14.355,7.962 14.366,7.638 14.042 C 7.340 13.744,7.300 13.642,7.303 13.200 C 7.305 12.895,7.322 12.788,7.389 12.660 C 7.497 12.455,7.700 12.261,7.890 12.182 C 8.070 12.106,8.714 12.054,9.902 12.018 L 10.785 11.991 10.831 10.726 C 10.860 9.915,10.896 9.385,10.932 9.252 C 11.025 8.904,11.335 8.578,11.633 8.516 C 11.836 8.473,12.353 8.513,12.501 8.583 " fill="#373B4D" stroke="none" fill-rule="evenodd"></path></svg>