<svg width="24" height="24" viewBox="0 0 24 24" fill="none" xmlns="http://www.w3.org/2000/svg"><path d="M10.220 2.515 C 9.685 2.587,8.975 3.208,8.564 3.962 L 8.401 4.260 8.401 9.575 L 8.400 14.890 8.588 15.247 C 8.933 15.902,9.298 16.267,9.953 16.612 L 10.310 16.800 14.393 16.800 L 18.476 16.800 18.883 16.592 C 19.216 16.423,19.355 16.322,19.639 16.042 C 20.017 15.670,20.174 15.437,20.267 15.111 C 20.339 14.854,20.393 12.444,20.397 9.243 L 20.400 7.147 20.257 6.886 C 20.178 6.743,20.034 6.522,19.937 6.396 C 19.661 6.038,18.105 4.427,17.308 3.677 C 16.536 2.949,16.118 2.636,15.812 2.558 C 15.600 2.504,10.588 2.465,10.220 2.515 M5.540 7.275 C 4.789 7.492,4.141 8.049,3.763 8.803 L 3.600 9.129 3.600 14.403 L 3.600 19.676 3.810 20.088 C 3.982 20.426,4.081 20.562,4.360 20.844 C 4.654 21.141,4.758 21.217,5.120 21.394 L 5.539 21.600 9.631 21.600 L 13.723 21.600 13.931 21.495 C 14.541 21.188,15.091 20.683,15.287 20.251 C 15.440 19.914,15.600 19.429,15.600 19.303 L 15.600 19.200 10.800 19.200 L 6.000 19.200 6.000 13.200 L 6.000 7.200 5.890 7.203 C 5.830 7.204,5.672 7.237,5.540 7.275 " fill="#373B4D" stroke="none" fill-rule="evenodd"></path></svg>