<svg width="24" height="24" viewBox="0 0 24 24" fill="none" xmlns="http://www.w3.org/2000/svg"><path d="M4.200 11.460 L 4.200 15.200 4.900 15.200 L 5.600 15.200 5.600 13.590 C 5.600 11.874,5.637 10.240,5.676 10.240 C 5.702 10.240,6.328 11.193,7.914 13.640 L 8.912 15.180 9.636 15.191 L 10.360 15.202 10.360 11.461 L 10.360 7.720 9.680 7.720 L 9.000 7.720 9.000 9.274 C 9.000 10.951,8.962 12.640,8.924 12.640 C 8.895 12.639,9.014 12.822,7.212 10.010 L 5.744 7.720 4.972 7.720 L 4.200 7.720 4.200 11.460 M11.600 11.460 L 11.600 15.200 13.714 15.200 L 15.828 15.200 15.854 14.894 C 15.868 14.726,15.880 14.431,15.880 14.240 L 15.880 13.892 15.514 13.866 C 15.312 13.852,14.664 13.840,14.074 13.840 L 13.000 13.840 13.000 12.940 L 13.000 12.040 14.260 12.040 L 15.520 12.040 15.520 11.406 L 15.520 10.772 14.914 10.746 C 14.580 10.732,14.013 10.720,13.654 10.720 L 13.000 10.720 13.000 9.880 L 13.000 9.040 14.340 9.040 L 15.680 9.040 15.680 8.380 L 15.680 7.720 13.640 7.720 L 11.600 7.720 11.600 11.460 M15.889 8.370 L 15.900 9.020 16.890 9.031 L 17.880 9.041 17.880 12.121 L 17.880 15.200 18.580 15.200 L 19.280 15.200 19.280 12.120 L 19.280 9.040 20.280 9.040 L 21.280 9.040 21.280 8.380 L 21.280 7.720 18.579 7.720 L 15.878 7.720 15.889 8.370 M2.310 13.695 C 1.680 13.927,1.526 14.641,2.013 15.069 C 2.421 15.426,2.987 15.303,3.252 14.799 C 3.345 14.622,3.364 14.544,3.350 14.391 C 3.304 13.907,2.747 13.534,2.310 13.695 M2.496 13.983 C 2.559 14.149,2.496 14.960,2.420 14.960 C 2.254 14.960,1.979 14.559,2.023 14.381 C 2.051 14.272,2.360 13.920,2.429 13.920 C 2.452 13.920,2.482 13.948,2.496 13.983 " fill="#373B4D" stroke="none" fill-rule="evenodd"></path></svg>