<svg width="24" height="24" viewBox="0 0 24 24" fill="none" xmlns="http://www.w3.org/2000/svg"><path d="M4.200 11.460 L 4.200 15.200 4.900 15.200 L 5.600 15.200 5.600 12.950 C 5.600 11.713,5.612 10.577,5.626 10.426 L 5.652 10.152 5.988 10.666 C 6.173 10.949,6.910 12.085,7.625 13.190 L 8.927 15.200 9.643 15.200 L 10.360 15.200 10.360 11.460 L 10.360 7.720 9.680 7.720 L 9.000 7.720 9.000 9.974 C 9.000 11.214,8.988 12.340,8.974 12.477 L 8.948 12.725 8.695 12.333 C 8.556 12.117,7.834 10.991,7.091 9.830 L 5.740 7.720 4.970 7.720 L 4.200 7.720 4.200 11.460 M11.600 11.460 L 11.600 15.200 13.714 15.200 L 15.828 15.200 15.854 14.774 C 15.868 14.539,15.880 14.245,15.880 14.119 L 15.880 13.891 15.694 13.865 C 15.592 13.851,14.944 13.840,14.254 13.840 L 13.000 13.840 13.000 12.940 L 13.000 12.040 14.260 12.040 L 15.520 12.040 15.520 11.406 L 15.520 10.772 15.094 10.746 C 14.859 10.732,14.292 10.720,13.834 10.720 L 13.000 10.720 13.000 9.880 L 13.000 9.040 14.340 9.040 L 15.680 9.040 15.680 8.380 L 15.680 7.720 13.640 7.720 L 11.600 7.720 11.600 11.460 M15.889 8.370 L 15.900 9.020 16.890 9.031 L 17.880 9.041 17.880 12.121 L 17.880 15.200 18.580 15.200 L 19.280 15.200 19.280 12.120 L 19.280 9.040 20.280 9.040 L 21.280 9.040 21.280 8.380 L 21.280 7.720 18.579 7.720 L 15.878 7.720 15.889 8.370 M2.320 13.677 C 1.856 13.818,1.630 14.239,1.760 14.720 C 1.890 15.205,2.559 15.436,2.996 15.148 C 3.275 14.963,3.437 14.487,3.323 14.187 C 3.262 14.027,3.032 13.793,2.860 13.715 C 2.694 13.639,2.492 13.625,2.320 13.677 M2.496 13.983 C 2.533 14.080,2.523 14.893,2.484 14.954 C 2.436 15.030,2.323 14.963,2.144 14.753 C 1.935 14.510,1.946 14.376,2.193 14.120 C 2.397 13.908,2.457 13.881,2.496 13.983 " fill="#373B4D" stroke="none" fill-rule="evenodd"></path></svg>