<svg width="24" height="24" viewBox="0 0 24 24" fill="none" xmlns="http://www.w3.org/2000/svg"><path d="M4.200 11.460 L 4.200 15.200 4.900 15.200 L 5.600 15.200 5.600 12.658 C 5.600 11.249,5.615 10.125,5.634 10.137 C 5.653 10.148,6.402 11.292,7.298 12.679 L 8.927 15.200 9.644 15.200 L 10.360 15.200 10.360 11.460 L 10.360 7.720 9.680 7.720 L 9.000 7.720 9.000 10.242 C 9.000 11.630,8.986 12.756,8.969 12.745 C 8.952 12.735,8.218 11.600,7.339 10.224 L 5.740 7.723 4.970 7.721 L 4.200 7.720 4.200 11.460 M11.600 11.460 L 11.600 15.200 13.715 15.200 L 15.831 15.200 15.860 14.563 C 15.876 14.213,15.877 13.907,15.862 13.883 C 15.844 13.854,15.392 13.840,14.418 13.840 L 13.000 13.840 13.000 12.940 L 13.000 12.040 14.261 12.040 L 15.522 12.040 15.511 11.390 L 15.500 10.740 14.250 10.729 L 13.000 10.719 13.000 9.879 L 13.000 9.040 14.340 9.040 L 15.680 9.040 15.680 8.380 L 15.680 7.720 13.640 7.720 L 11.600 7.720 11.600 11.460 M15.889 8.370 L 15.900 9.020 16.890 9.031 L 17.880 9.041 17.880 12.121 L 17.880 15.200 18.580 15.200 L 19.280 15.200 19.280 12.120 L 19.280 9.040 20.280 9.040 L 21.280 9.040 21.280 8.380 L 21.280 7.720 18.579 7.720 L 15.878 7.720 15.889 8.370 M2.180 13.716 C 1.885 13.852,1.719 14.124,1.721 14.469 C 1.723 14.950,2.069 15.280,2.571 15.280 C 2.973 15.280,3.298 14.976,3.356 14.546 C 3.378 14.385,3.368 14.295,3.318 14.175 C 3.236 13.982,3.028 13.768,2.852 13.694 C 2.671 13.619,2.370 13.628,2.180 13.716 M2.520 14.460 C 2.520 15.096,2.503 15.114,2.194 14.806 C 2.030 14.642,2.000 14.588,2.000 14.460 C 2.000 14.332,2.030 14.278,2.194 14.114 C 2.503 13.806,2.520 13.824,2.520 14.460 " fill="#373B4D" stroke="none" fill-rule="evenodd"></path></svg>