<svg width="24" height="24" viewBox="0 0 24 24" fill="none" xmlns="http://www.w3.org/2000/svg"><path d="M4.200 11.460 L 4.200 15.200 4.894 15.200 L 5.587 15.200 5.611 12.802 C 5.624 11.402,5.650 10.375,5.672 10.335 C 5.714 10.260,5.885 10.512,7.873 13.580 L 8.910 15.180 9.635 15.191 L 10.360 15.202 10.360 11.461 L 10.360 7.720 9.686 7.720 L 9.013 7.720 8.987 10.070 C 8.973 11.363,8.948 12.470,8.931 12.530 C 8.902 12.631,8.761 12.424,7.323 10.180 L 5.746 7.720 4.973 7.720 L 4.200 7.720 4.200 11.460 M11.600 11.460 L 11.600 15.200 13.714 15.200 L 15.829 15.200 15.854 14.954 C 15.868 14.819,15.880 14.525,15.880 14.300 L 15.880 13.892 15.430 13.866 C 15.183 13.852,14.535 13.840,13.990 13.840 L 13.000 13.840 13.000 12.940 L 13.000 12.040 14.260 12.040 L 15.520 12.040 15.520 11.406 L 15.520 10.773 14.830 10.746 C 14.450 10.732,13.883 10.720,13.570 10.720 L 13.000 10.720 13.000 9.880 L 13.000 9.040 14.340 9.040 L 15.680 9.040 15.680 8.380 L 15.680 7.720 13.640 7.720 L 11.600 7.720 11.600 11.460 M15.889 8.370 L 15.900 9.020 16.890 9.031 L 17.880 9.041 17.880 12.121 L 17.880 15.200 18.580 15.200 L 19.280 15.200 19.280 12.120 L 19.280 9.040 20.280 9.040 L 21.280 9.040 21.280 8.380 L 21.280 7.720 18.579 7.720 L 15.878 7.720 15.889 8.370 M2.216 13.737 C 2.027 13.820,1.816 14.061,1.760 14.260 C 1.593 14.857,2.209 15.440,2.779 15.222 C 3.067 15.112,3.360 14.728,3.360 14.460 C 3.360 14.207,3.145 13.897,2.872 13.756 C 2.698 13.667,2.397 13.658,2.216 13.737 M2.496 13.983 C 2.548 14.120,2.496 14.877,2.430 14.944 C 2.387 14.986,2.242 14.879,2.141 14.730 C 2.001 14.523,2.011 14.370,2.179 14.149 C 2.354 13.920,2.452 13.869,2.496 13.983 " fill="#373B4D" stroke="none" fill-rule="evenodd"></path></svg>