<svg width="24" height="24" viewBox="0 0 24 24" fill="none" xmlns="http://www.w3.org/2000/svg"><path d="M4.200 11.460 L 4.200 15.200 4.900 15.200 L 5.600 15.200 5.605 12.990 C 5.608 11.775,5.622 10.645,5.635 10.480 L 5.660 10.180 6.108 10.860 C 6.354 11.234,7.086 12.359,7.734 13.360 L 8.912 15.180 9.636 15.191 L 10.360 15.202 10.360 11.461 L 10.360 7.720 9.680 7.720 L 9.000 7.720 8.995 9.910 C 8.992 11.115,8.978 12.235,8.965 12.400 L 8.940 12.700 8.678 12.300 C 8.534 12.080,7.815 10.960,7.080 9.810 L 5.743 7.720 4.971 7.720 L 4.200 7.720 4.200 11.460 M11.600 11.460 L 11.600 15.200 13.714 15.200 L 15.828 15.200 15.854 14.834 C 15.868 14.632,15.880 14.338,15.880 14.180 L 15.880 13.892 15.610 13.866 C 15.462 13.852,14.813 13.840,14.170 13.840 L 13.000 13.840 13.000 12.940 L 13.000 12.040 14.260 12.040 L 15.520 12.040 15.520 11.406 L 15.520 10.772 15.010 10.746 C 14.730 10.732,14.162 10.720,13.750 10.720 L 13.000 10.720 13.000 9.880 L 13.000 9.040 14.340 9.040 L 15.680 9.040 15.680 8.380 L 15.680 7.720 13.640 7.720 L 11.600 7.720 11.600 11.460 M15.889 8.370 L 15.900 9.020 16.890 9.031 L 17.880 9.041 17.880 12.121 L 17.880 15.200 18.580 15.200 L 19.280 15.200 19.280 12.120 L 19.280 9.040 20.280 9.040 L 21.280 9.040 21.280 8.380 L 21.280 7.720 18.579 7.720 L 15.878 7.720 15.889 8.370 M2.290 13.693 C 1.970 13.809,1.723 14.135,1.721 14.444 C 1.716 15.184,2.635 15.561,3.115 15.017 C 3.454 14.631,3.438 14.176,3.075 13.865 C 2.832 13.657,2.556 13.597,2.290 13.693 M2.503 14.018 C 2.542 14.174,2.505 14.911,2.455 14.961 C 2.397 15.019,2.167 14.824,2.062 14.629 C 1.964 14.447,2.000 14.324,2.214 14.100 C 2.410 13.895,2.468 13.879,2.503 14.018 " fill="#373B4D" stroke="none" fill-rule="evenodd"></path></svg>