<svg width="24" height="24" viewBox="0 0 24 24" fill="none" xmlns="http://www.w3.org/2000/svg"><path d="M10.800 2.560 C 9.246 2.685,7.471 3.441,6.040 4.585 C 5.599 4.937,4.771 5.770,4.440 6.194 C 3.480 7.422,2.855 8.853,2.533 10.560 C 2.444 11.034,2.431 12.733,2.513 13.300 C 2.652 14.269,3.083 15.571,3.565 16.480 C 3.987 17.275,4.415 17.854,5.100 18.555 C 6.022 19.499,6.625 19.943,7.760 20.518 C 9.182 21.237,10.130 21.486,11.668 21.544 C 12.869 21.589,13.772 21.467,14.800 21.121 C 16.055 20.698,17.043 20.168,18.000 19.405 C 19.520 18.193,20.455 16.796,21.163 14.680 C 21.468 13.769,21.494 13.558,21.497 12.000 C 21.500 10.529,21.486 10.391,21.255 9.591 C 20.689 7.634,19.633 5.982,18.143 4.724 C 16.822 3.609,14.953 2.773,13.400 2.604 C 12.865 2.546,11.301 2.519,10.800 2.560 M8.400 12.000 L 8.400 13.200 7.200 13.200 L 6.000 13.200 6.000 12.000 L 6.000 10.800 7.200 10.800 L 8.400 10.800 8.400 12.000 M13.200 12.000 L 13.200 13.200 12.000 13.200 L 10.800 13.200 10.800 12.000 L 10.800 10.800 12.000 10.800 L 13.200 10.800 13.200 12.000 M18.000 12.000 L 18.000 13.200 16.800 13.200 L 15.600 13.200 15.600 12.000 L 15.600 10.800 16.800 10.800 L 18.000 10.800 18.000 12.000 " fill="#373B4D" stroke="none" fill-rule="evenodd"></path></svg>