<svg width="24" height="24" viewBox="0 0 24 24" fill="none" xmlns="http://www.w3.org/2000/svg"><path d="M4.330 9.679 C 3.859 9.752,3.226 10.163,2.893 10.612 C 2.565 11.055,2.440 11.436,2.440 12.000 C 2.440 12.586,2.594 13.025,2.948 13.450 C 3.749 14.412,4.944 14.651,5.954 14.052 C 6.301 13.845,6.797 13.321,6.952 12.996 C 7.265 12.340,7.216 11.385,6.838 10.796 C 6.686 10.560,6.201 10.095,5.958 9.953 C 5.551 9.714,4.855 9.597,4.330 9.679 M11.567 9.681 C 11.071 9.749,10.349 10.220,10.028 10.685 C 9.945 10.806,9.830 11.039,9.772 11.202 C 9.680 11.460,9.666 11.565,9.665 11.980 C 9.664 12.401,9.677 12.499,9.773 12.775 C 9.899 13.138,10.042 13.361,10.341 13.659 C 10.641 13.959,10.864 14.102,11.221 14.222 C 11.805 14.418,12.489 14.388,13.021 14.145 C 13.270 14.031,13.855 13.489,14.035 13.206 C 14.347 12.715,14.439 11.850,14.243 11.247 C 14.068 10.709,13.741 10.319,13.178 9.980 C 12.739 9.716,12.135 9.604,11.567 9.681 M18.767 9.681 C 18.271 9.749,17.549 10.220,17.228 10.685 C 17.145 10.806,17.030 11.039,16.972 11.202 C 16.880 11.460,16.866 11.565,16.865 11.980 C 16.864 12.401,16.877 12.499,16.973 12.775 C 17.104 13.151,17.227 13.337,17.566 13.670 C 17.903 14.001,18.054 14.098,18.423 14.222 C 19.005 14.418,19.689 14.388,20.221 14.145 C 20.470 14.031,21.055 13.489,21.235 13.206 C 21.547 12.715,21.639 11.850,21.443 11.247 C 21.268 10.709,20.941 10.319,20.378 9.980 C 19.939 9.716,19.335 9.604,18.767 9.681 " fill="#373B4D" stroke="none" fill-rule="evenodd"></path></svg>