<svg width="24" height="24" viewBox="0 0 24 24" fill="none" xmlns="http://www.w3.org/2000/svg"><path d="M3.912 9.895 C 3.332 10.187,2.950 10.538,2.729 10.980 C 2.465 11.509,2.399 12.119,2.554 12.603 C 2.772 13.280,3.458 13.969,4.152 14.207 C 4.529 14.336,5.111 14.336,5.487 14.207 C 6.384 13.899,7.120 12.908,7.120 12.006 C 7.120 11.394,6.928 10.960,6.443 10.479 C 5.880 9.920,5.483 9.760,4.662 9.760 C 4.194 9.760,4.172 9.764,3.912 9.895 M11.328 9.803 C 11.059 9.856,10.692 10.102,10.296 10.497 C 9.997 10.795,9.916 10.903,9.843 11.099 C 9.669 11.569,9.638 11.975,9.740 12.456 C 9.841 12.934,10.002 13.215,10.392 13.598 C 10.933 14.130,11.292 14.280,12.020 14.280 C 12.690 14.280,13.004 14.164,13.467 13.743 C 14.053 13.211,14.290 12.704,14.292 11.980 C 14.293 11.650,14.275 11.529,14.191 11.289 C 13.984 10.707,13.600 10.281,13.030 10.002 C 12.746 9.864,12.642 9.836,12.286 9.801 C 11.811 9.754,11.572 9.755,11.328 9.803 M18.494 9.798 C 18.071 9.899,17.242 10.652,16.971 11.180 C 16.872 11.374,16.869 11.396,16.894 11.900 C 16.937 12.788,17.048 13.059,17.583 13.580 C 18.163 14.144,18.485 14.283,19.220 14.284 C 19.959 14.286,20.255 14.148,20.848 13.527 C 21.255 13.102,21.427 12.754,21.476 12.262 C 21.497 12.049,21.497 11.799,21.475 11.645 C 21.352 10.779,20.510 9.925,19.657 9.802 C 19.340 9.756,18.680 9.754,18.494 9.798 " fill="#373B4D" stroke="none" fill-rule="evenodd"></path></svg>