<svg width="24" height="24" viewBox="0 0 24 24" fill="none" xmlns="http://www.w3.org/2000/svg"><path d="M11.099 2.654 C 10.768 2.814,10.378 3.101,10.176 3.333 C 9.833 3.726,9.613 4.418,9.657 4.965 C 9.701 5.524,9.879 5.912,10.285 6.340 C 10.827 6.911,11.296 7.128,12.000 7.135 C 12.343 7.138,12.467 7.122,12.680 7.047 C 13.361 6.806,14.073 6.080,14.262 5.433 C 14.370 5.063,14.362 4.421,14.245 4.100 C 14.127 3.775,13.923 3.478,13.601 3.163 C 13.085 2.658,12.717 2.522,11.859 2.521 C 11.394 2.520,11.368 2.525,11.099 2.654 M11.538 9.720 C 11.136 9.778,10.649 10.072,10.235 10.507 C 9.838 10.925,9.665 11.383,9.666 12.020 C 9.667 12.359,9.684 12.466,9.779 12.720 C 9.922 13.105,10.112 13.401,10.391 13.673 C 10.930 14.198,11.482 14.392,12.219 14.313 C 13.122 14.216,13.829 13.676,14.198 12.800 C 14.310 12.532,14.357 11.820,14.284 11.479 C 14.119 10.711,13.313 9.910,12.560 9.768 C 12.247 9.708,11.774 9.686,11.538 9.720 M11.499 16.919 C 11.128 16.974,10.621 17.296,10.202 17.744 C 9.800 18.174,9.680 18.517,9.680 19.237 C 9.680 19.675,9.754 20.014,9.908 20.280 C 10.043 20.512,10.653 21.140,10.860 21.260 C 11.380 21.561,12.115 21.615,12.763 21.400 C 13.376 21.197,13.915 20.670,14.198 20.000 C 14.310 19.732,14.357 19.020,14.284 18.679 C 14.119 17.911,13.313 17.111,12.560 16.968 C 12.247 16.908,11.734 16.885,11.499 16.919 " fill="#373B4D" stroke="none" fill-rule="evenodd"></path></svg>