<svg width="24" height="24" viewBox="0 0 24 24" fill="none" xmlns="http://www.w3.org/2000/svg"><path d="M4.257 9.715 C 3.901 9.777,3.291 10.169,2.964 10.547 C 2.361 11.244,2.277 12.420,2.777 13.180 C 2.944 13.435,3.323 13.814,3.580 13.984 C 4.068 14.308,4.755 14.437,5.280 14.304 C 5.743 14.187,6.026 14.019,6.425 13.623 C 6.916 13.135,7.098 12.761,7.145 12.143 C 7.197 11.469,6.982 10.934,6.444 10.395 C 6.067 10.017,5.769 9.838,5.400 9.767 C 5.102 9.710,4.457 9.681,4.257 9.715 M11.444 9.723 C 11.105 9.790,10.527 10.153,10.196 10.506 C 10.095 10.614,9.944 10.843,9.859 11.014 C 9.713 11.309,9.704 11.351,9.688 11.779 C 9.654 12.661,9.804 13.085,10.336 13.616 C 10.866 14.146,11.290 14.320,12.044 14.320 C 12.816 14.320,13.196 14.131,13.813 13.440 C 14.163 13.049,14.319 12.611,14.319 12.020 C 14.318 11.356,14.138 10.870,13.741 10.460 C 13.288 9.994,12.884 9.793,12.253 9.721 C 11.847 9.675,11.690 9.675,11.444 9.723 M18.644 9.723 C 18.305 9.790,17.727 10.153,17.396 10.506 C 17.295 10.614,17.142 10.845,17.056 11.019 L 16.900 11.336 16.901 11.958 C 16.903 12.646,16.952 12.860,17.191 13.207 C 17.417 13.534,17.883 13.956,18.182 14.104 C 18.808 14.415,19.524 14.428,20.145 14.142 C 20.395 14.026,20.520 13.931,20.825 13.627 C 21.359 13.092,21.521 12.714,21.519 12.005 C 21.518 11.355,21.335 10.866,20.941 10.460 C 20.488 9.994,20.084 9.793,19.453 9.721 C 19.047 9.675,18.890 9.675,18.644 9.723 " fill="#373B4D" stroke="none" fill-rule="evenodd"></path></svg>