<svg width="24" height="24" viewBox="0 0 24 24" fill="none" xmlns="http://www.w3.org/2000/svg"><path d="M11.530 2.479 C 11.059 2.552,10.426 2.963,10.093 3.412 C 9.765 3.855,9.640 4.236,9.640 4.800 C 9.640 5.386,9.794 5.825,10.148 6.250 C 10.949 7.212,12.144 7.451,13.154 6.852 C 13.501 6.645,13.997 6.121,14.152 5.796 C 14.465 5.140,14.416 4.185,14.038 3.596 C 13.886 3.360,13.401 2.895,13.158 2.753 C 12.751 2.514,12.055 2.397,11.530 2.479 M11.548 9.684 C 10.935 9.773,10.148 10.381,9.859 10.987 C 9.657 11.411,9.586 12.021,9.680 12.525 C 9.767 12.988,10.132 13.523,10.634 13.921 C 10.941 14.164,11.083 14.228,11.500 14.308 C 12.085 14.421,12.834 14.293,13.246 14.010 C 13.475 13.852,13.852 13.475,14.010 13.246 C 14.297 12.828,14.420 12.102,14.302 11.518 C 14.173 10.878,13.871 10.438,13.293 10.048 C 12.959 9.822,12.724 9.736,12.299 9.684 C 11.901 9.635,11.878 9.635,11.548 9.684 M11.548 16.884 C 10.935 16.973,10.148 17.581,9.859 18.187 C 9.657 18.611,9.586 19.221,9.680 19.725 C 9.767 20.188,10.132 20.723,10.634 21.121 C 10.941 21.364,11.083 21.428,11.500 21.508 C 12.085 21.621,12.834 21.493,13.246 21.210 C 13.475 21.052,13.852 20.675,14.010 20.446 C 14.297 20.028,14.420 19.302,14.302 18.718 C 14.173 18.078,13.871 17.638,13.293 17.248 C 12.959 17.022,12.724 16.936,12.299 16.884 C 11.901 16.835,11.878 16.835,11.548 16.884 " fill="#373B4D" stroke="none" fill-rule="evenodd"></path></svg>