<svg width="24" height="24" viewBox="0 0 24 24" fill="none" xmlns="http://www.w3.org/2000/svg"><path d="M11.338 2.534 C 10.861 2.690,10.263 3.150,9.998 3.563 C 9.573 4.226,9.530 5.127,9.889 5.846 C 10.061 6.189,10.569 6.693,10.940 6.887 C 11.786 7.329,12.713 7.234,13.424 6.633 C 13.942 6.194,14.190 5.815,14.301 5.293 C 14.466 4.513,14.261 3.792,13.718 3.244 C 13.153 2.672,12.804 2.520,12.000 2.496 C 11.653 2.485,11.450 2.497,11.338 2.534 M11.289 9.759 C 10.723 9.963,10.077 10.532,9.859 11.020 C 9.536 11.743,9.586 12.592,9.987 13.200 C 10.217 13.548,10.704 14.010,10.978 14.138 C 11.338 14.307,11.820 14.378,12.244 14.324 C 12.896 14.240,13.276 14.048,13.712 13.582 C 14.147 13.118,14.337 12.642,14.338 12.020 C 14.339 11.328,14.144 10.855,13.663 10.380 C 13.148 9.871,12.661 9.681,11.880 9.682 C 11.609 9.683,11.439 9.705,11.289 9.759 M11.289 16.959 C 10.783 17.141,10.188 17.632,9.924 18.086 C 9.741 18.401,9.660 18.756,9.663 19.240 C 9.666 19.765,9.737 20.021,9.987 20.400 C 10.217 20.748,10.704 21.210,10.978 21.338 C 11.338 21.507,11.820 21.578,12.244 21.524 C 12.896 21.440,13.276 21.248,13.712 20.782 C 14.147 20.318,14.337 19.842,14.338 19.220 C 14.339 18.528,14.144 18.055,13.663 17.580 C 13.148 17.071,12.661 16.881,11.880 16.882 C 11.609 16.883,11.439 16.905,11.289 16.959 " fill="#373B4D" stroke="none" fill-rule="evenodd"></path></svg>