<svg width="24" height="24" viewBox="0 0 24 24" fill="none" xmlns="http://www.w3.org/2000/svg"><path d="M10.760 2.522 C 10.374 2.561,9.778 2.692,9.213 2.863 C 7.699 3.321,6.431 4.086,5.278 5.239 C 4.146 6.370,3.447 7.473,2.937 8.932 C 2.589 9.928,2.429 10.874,2.427 11.940 C 2.425 12.966,2.541 13.773,2.827 14.720 C 3.603 17.286,5.348 19.360,7.722 20.537 C 8.525 20.935,9.507 21.288,10.181 21.420 C 10.954 21.572,12.804 21.593,13.592 21.458 C 14.060 21.378,14.717 21.191,15.300 20.971 C 17.069 20.304,18.595 19.166,19.682 17.700 C 20.542 16.540,21.320 14.686,21.487 13.400 C 21.553 12.883,21.554 11.041,21.487 10.580 C 21.355 9.662,20.930 8.407,20.452 7.520 C 19.135 5.077,16.774 3.289,14.060 2.676 C 13.604 2.573,13.417 2.554,12.540 2.521 C 11.413 2.478,11.186 2.478,10.760 2.522 M8.400 12.000 L 8.400 13.200 7.200 13.200 L 6.000 13.200 6.000 12.000 L 6.000 10.800 7.200 10.800 L 8.400 10.800 8.400 12.000 M13.200 12.000 L 13.200 13.200 12.000 13.200 L 10.800 13.200 10.800 12.000 L 10.800 10.800 12.000 10.800 L 13.200 10.800 13.200 12.000 M18.000 12.000 L 18.000 13.200 16.800 13.200 L 15.600 13.200 15.600 12.000 L 15.600 10.800 16.800 10.800 L 18.000 10.800 18.000 12.000 " fill="#373B4D" stroke="none" fill-rule="evenodd"></path></svg>