<svg width="24" height="24" viewBox="0 0 24 24" fill="none" xmlns="http://www.w3.org/2000/svg"><path d="M4.372 9.684 C 3.740 9.763,2.992 10.334,2.664 10.989 C 2.356 11.605,2.364 12.412,2.684 13.050 C 2.870 13.421,3.415 13.947,3.803 14.131 C 4.730 14.569,5.658 14.411,6.393 13.689 C 6.565 13.519,6.763 13.298,6.831 13.197 C 7.215 12.628,7.261 11.664,6.936 10.974 C 6.793 10.669,6.236 10.111,5.896 9.931 C 5.497 9.719,4.883 9.620,4.372 9.684 M11.331 9.736 C 10.954 9.859,10.364 10.262,10.123 10.562 C 10.053 10.649,9.929 10.860,9.848 11.030 C 9.703 11.333,9.700 11.352,9.686 11.887 C 9.671 12.498,9.715 12.727,9.927 13.127 C 10.102 13.455,10.642 13.970,10.969 14.118 C 11.550 14.381,12.218 14.420,12.800 14.223 C 13.132 14.110,13.272 14.012,13.684 13.602 C 14.158 13.132,14.330 12.703,14.334 11.980 C 14.338 11.158,14.017 10.552,13.329 10.086 C 12.894 9.791,12.621 9.709,12.020 9.694 C 11.656 9.685,11.450 9.697,11.331 9.736 M18.531 9.736 C 18.154 9.859,17.564 10.262,17.323 10.562 C 17.253 10.649,17.129 10.860,17.048 11.030 C 16.903 11.333,16.900 11.352,16.886 11.887 C 16.865 12.741,16.996 13.085,17.560 13.650 C 17.961 14.052,18.220 14.193,18.761 14.303 C 19.174 14.386,19.597 14.359,20.000 14.223 C 20.332 14.110,20.472 14.012,20.884 13.602 C 21.358 13.132,21.530 12.703,21.534 11.980 C 21.538 11.158,21.217 10.552,20.529 10.086 C 20.094 9.791,19.821 9.709,19.220 9.694 C 18.856 9.685,18.650 9.697,18.531 9.736 " fill="#373B4D" stroke="none" fill-rule="evenodd"></path></svg>