<svg width="24" height="24" viewBox="0 0 24 24" fill="none" xmlns="http://www.w3.org/2000/svg"><path d="M4.280 9.747 C 3.986 9.796,3.386 10.147,3.087 10.447 C 2.797 10.737,2.584 11.182,2.496 11.681 C 2.434 12.034,2.433 12.085,2.494 12.381 C 2.595 12.878,2.757 13.163,3.177 13.583 C 3.756 14.162,4.230 14.351,5.000 14.308 C 5.582 14.276,6.006 14.048,6.525 13.487 C 6.977 12.999,7.143 12.537,7.110 11.860 C 7.086 11.379,6.999 11.132,6.721 10.754 C 6.311 10.195,5.720 9.829,5.117 9.759 C 4.781 9.721,4.469 9.716,4.280 9.747 M11.409 9.760 C 11.017 9.843,10.388 10.289,10.052 10.722 C 9.820 11.020,9.717 11.330,9.690 11.804 C 9.650 12.522,9.847 13.075,10.313 13.555 C 10.850 14.108,11.279 14.294,12.020 14.297 C 12.732 14.300,13.081 14.153,13.595 13.636 C 14.047 13.181,14.197 12.889,14.285 12.301 C 14.337 11.952,14.283 11.472,14.156 11.149 C 13.914 10.536,13.307 10.005,12.656 9.839 C 12.298 9.747,11.658 9.707,11.409 9.760 M18.614 9.759 C 18.076 9.874,17.329 10.508,16.997 11.131 L 16.868 11.373 16.893 11.917 C 16.920 12.539,16.992 12.859,17.165 13.128 C 17.347 13.411,17.946 13.961,18.215 14.093 C 18.840 14.398,19.677 14.389,20.237 14.071 C 20.360 14.002,20.615 13.788,20.805 13.597 C 21.220 13.180,21.414 12.827,21.484 12.360 C 21.601 11.587,21.371 10.924,20.800 10.388 C 20.476 10.083,20.186 9.912,19.835 9.818 C 19.567 9.747,18.836 9.711,18.614 9.759 " fill="#373B4D" stroke="none" fill-rule="evenodd"></path></svg>