<svg width="24" height="24" viewBox="0 0 24 24" fill="none" xmlns="http://www.w3.org/2000/svg"><path d="M11.112 2.695 C 10.532 2.987,10.150 3.338,9.929 3.780 C 9.665 4.309,9.599 4.919,9.754 5.403 C 9.973 6.083,10.655 6.768,11.352 7.007 C 11.729 7.136,12.311 7.136,12.687 7.007 C 13.584 6.699,14.320 5.708,14.320 4.806 C 14.320 4.194,14.128 3.760,13.643 3.279 C 13.080 2.720,12.683 2.560,11.862 2.560 C 11.394 2.560,11.372 2.564,11.112 2.695 M11.236 9.836 C 10.957 9.945,10.611 10.189,10.295 10.500 C 9.831 10.956,9.720 11.266,9.720 12.092 C 9.721 12.524,9.732 12.604,9.818 12.788 C 10.052 13.291,10.555 13.855,10.948 14.054 C 11.233 14.198,11.697 14.320,11.959 14.319 C 12.906 14.317,13.872 13.620,14.188 12.712 C 14.267 12.485,14.284 12.357,14.285 11.984 C 14.285 11.291,14.120 10.923,13.571 10.395 C 13.230 10.066,13.015 9.941,12.620 9.840 C 12.203 9.733,11.503 9.731,11.236 9.836 M11.328 17.000 C 11.002 17.069,10.244 17.674,9.977 18.078 C 9.627 18.606,9.594 19.558,9.903 20.190 C 10.038 20.465,10.749 21.190,11.005 21.313 C 11.444 21.524,12.038 21.565,12.580 21.420 C 12.913 21.332,13.101 21.234,13.376 21.007 C 13.844 20.620,14.159 20.153,14.239 19.725 C 14.297 19.421,14.290 18.815,14.227 18.572 C 14.071 17.973,13.414 17.299,12.767 17.075 C 12.506 16.985,11.616 16.938,11.328 17.000 " fill="#373B4D" stroke="none" fill-rule="evenodd"></path></svg>