<svg width="24" height="24" viewBox="0 0 24 24" fill="none" xmlns="http://www.w3.org/2000/svg"><path d="M4.336 9.656 C 3.791 9.760,3.233 10.120,2.873 10.600 C 2.425 11.198,2.291 12.013,2.523 12.720 C 2.662 13.143,2.752 13.281,3.139 13.669 C 3.544 14.076,3.733 14.185,4.260 14.320 C 4.656 14.421,4.944 14.421,5.340 14.320 C 5.867 14.185,6.056 14.076,6.461 13.669 C 6.848 13.281,6.938 13.143,7.077 12.720 C 7.318 11.986,7.157 11.117,6.672 10.534 C 6.071 9.812,5.212 9.489,4.336 9.656 M11.319 9.715 C 10.793 9.884,10.298 10.260,9.975 10.738 C 9.631 11.246,9.531 12.091,9.737 12.740 C 9.853 13.106,10.017 13.367,10.325 13.675 C 10.633 13.983,10.894 14.147,11.260 14.263 C 11.908 14.469,12.756 14.368,13.260 14.026 C 13.516 13.852,13.852 13.516,14.026 13.260 C 14.481 12.590,14.481 11.411,14.025 10.738 C 13.688 10.239,13.144 9.838,12.618 9.701 C 12.291 9.616,11.606 9.623,11.319 9.715 M18.519 9.715 C 17.993 9.884,17.498 10.260,17.175 10.738 C 16.719 11.411,16.719 12.590,17.174 13.260 C 17.348 13.516,17.684 13.852,17.940 14.026 C 18.050 14.101,18.284 14.208,18.460 14.263 C 19.108 14.469,19.956 14.368,20.460 14.026 C 20.716 13.852,21.052 13.516,21.226 13.260 C 21.681 12.590,21.681 11.411,21.225 10.738 C 20.888 10.239,20.344 9.838,19.818 9.701 C 19.491 9.616,18.806 9.623,18.519 9.715 " fill="#373B4D" stroke="none" fill-rule="evenodd"></path></svg>