<svg width="24" height="24" viewBox="0 0 24 24" fill="none" xmlns="http://www.w3.org/2000/svg"><path d="M11.000 2.463 C 8.701 2.737,6.759 3.671,5.175 5.265 C 2.751 7.704,1.820 11.347,2.781 14.634 C 3.551 17.270,5.288 19.358,7.732 20.586 C 8.548 20.996,9.533 21.315,10.507 21.484 C 10.943 21.559,11.167 21.573,12.000 21.573 C 12.833 21.573,13.057 21.559,13.493 21.484 C 16.681 20.930,19.280 18.988,20.644 16.140 C 20.953 15.495,21.137 14.984,21.320 14.263 C 21.528 13.445,21.573 13.025,21.570 11.920 C 21.567 11.152,21.552 10.892,21.483 10.500 C 21.304 9.479,21.026 8.628,20.573 7.714 C 19.332 5.208,17.068 3.393,14.321 2.701 C 13.686 2.541,13.242 2.480,12.412 2.440 C 11.490 2.395,11.587 2.393,11.000 2.463 M8.400 12.000 L 8.400 13.200 7.200 13.200 L 6.000 13.200 6.000 12.000 L 6.000 10.800 7.200 10.800 L 8.400 10.800 8.400 12.000 M13.200 12.000 L 13.200 13.200 12.000 13.200 L 10.800 13.200 10.800 12.000 L 10.800 10.800 12.000 10.800 L 13.200 10.800 13.200 12.000 M18.000 12.000 L 18.000 13.200 16.800 13.200 L 15.600 13.200 15.600 12.000 L 15.600 10.800 16.800 10.800 L 18.000 10.800 18.000 12.000 " fill="#373B4D" stroke="none" fill-rule="evenodd"></path></svg>