<svg width="24" height="24" viewBox="0 0 24 24" fill="none" xmlns="http://www.w3.org/2000/svg"><path d="M4.138 9.734 C 3.661 9.890,3.063 10.350,2.798 10.763 C 2.373 11.426,2.330 12.327,2.689 13.046 C 2.861 13.389,3.369 13.893,3.740 14.087 C 4.586 14.529,5.513 14.434,6.224 13.833 C 6.742 13.394,6.990 13.015,7.101 12.493 C 7.266 11.713,7.061 10.992,6.518 10.444 C 5.953 9.872,5.604 9.720,4.800 9.696 C 4.453 9.685,4.250 9.697,4.138 9.734 M11.429 9.722 C 11.200 9.760,10.882 9.931,10.498 10.222 C 10.181 10.462,10.016 10.672,9.830 11.068 C 9.712 11.319,9.701 11.379,9.687 11.842 C 9.662 12.637,9.788 13.032,10.220 13.510 C 10.747 14.092,11.262 14.331,12.000 14.335 C 12.700 14.340,13.114 14.168,13.617 13.665 C 14.148 13.134,14.320 12.730,14.319 12.021 C 14.318 11.264,14.130 10.802,13.634 10.343 C 13.224 9.963,12.820 9.772,12.320 9.720 C 11.886 9.676,11.699 9.676,11.429 9.722 M18.629 9.722 C 18.400 9.760,18.082 9.931,17.698 10.222 C 17.381 10.463,17.215 10.673,17.030 11.068 C 16.914 11.316,16.902 11.382,16.887 11.820 C 16.858 12.701,16.998 13.081,17.556 13.637 C 17.924 14.004,18.171 14.154,18.580 14.260 C 19.434 14.481,20.169 14.296,20.771 13.708 C 21.342 13.149,21.520 12.748,21.519 12.021 C 21.518 11.264,21.330 10.802,20.834 10.343 C 20.424 9.963,20.020 9.772,19.520 9.720 C 19.086 9.676,18.899 9.676,18.629 9.722 " fill="#373B4D" stroke="none" fill-rule="evenodd"></path></svg>