<svg width="24" height="24" viewBox="0 0 24 24" fill="none" xmlns="http://www.w3.org/2000/svg"><path d="M4.040 9.794 C 3.818 9.881,3.445 10.117,3.183 10.335 C 2.645 10.784,2.343 11.709,2.496 12.440 C 2.593 12.903,2.768 13.208,3.160 13.600 C 3.701 14.141,4.133 14.326,4.853 14.325 C 5.311 14.324,5.549 14.259,5.899 14.036 C 6.799 13.466,7.238 12.628,7.121 11.705 C 7.052 11.163,6.862 10.824,6.356 10.341 C 5.847 9.854,5.466 9.720,4.600 9.723 C 4.334 9.723,4.166 9.745,4.040 9.794 M11.233 9.797 C 10.762 9.981,10.174 10.475,9.923 10.896 C 9.741 11.202,9.680 11.461,9.681 11.919 C 9.682 12.810,9.926 13.294,10.671 13.886 C 11.082 14.213,11.371 14.300,12.040 14.300 C 12.704 14.300,12.952 14.219,13.367 13.865 C 13.860 13.444,14.118 13.085,14.244 12.640 C 14.272 12.541,14.296 12.253,14.298 12.000 C 14.300 11.620,14.284 11.491,14.207 11.262 C 14.086 10.900,13.894 10.616,13.569 10.319 C 13.101 9.890,12.610 9.720,11.840 9.723 C 11.530 9.723,11.371 9.743,11.233 9.797 M18.431 9.801 C 17.801 10.057,17.250 10.578,16.975 11.180 C 16.873 11.403,16.870 11.428,16.891 11.955 C 16.927 12.838,17.027 13.076,17.597 13.640 C 18.085 14.123,18.551 14.321,19.204 14.323 C 19.957 14.326,20.396 14.105,20.994 13.424 C 21.111 13.290,21.251 13.095,21.304 12.991 C 21.516 12.575,21.574 11.996,21.455 11.468 C 21.351 11.001,21.224 10.776,20.862 10.417 C 20.341 9.899,19.872 9.720,19.040 9.723 C 18.721 9.724,18.575 9.743,18.431 9.801 " fill="#373B4D" stroke="none" fill-rule="evenodd"></path></svg>