<svg width="24" height="24" viewBox="0 0 24 24" fill="none" xmlns="http://www.w3.org/2000/svg"><path d="M11.457 2.515 C 11.101 2.577,10.491 2.969,10.164 3.347 C 9.561 4.044,9.477 5.220,9.977 5.980 C 10.144 6.235,10.523 6.614,10.780 6.784 C 11.268 7.108,11.955 7.237,12.480 7.104 C 12.943 6.987,13.226 6.819,13.625 6.423 C 14.116 5.935,14.298 5.561,14.345 4.943 C 14.397 4.269,14.182 3.734,13.644 3.195 C 13.267 2.817,12.969 2.638,12.600 2.567 C 12.302 2.510,11.657 2.481,11.457 2.515 M11.450 9.720 C 11.068 9.801,10.473 10.199,10.148 10.590 C 9.938 10.842,9.857 10.991,9.765 11.291 C 9.580 11.895,9.617 12.430,9.883 12.987 C 10.134 13.512,10.702 14.044,11.201 14.221 C 11.748 14.415,12.486 14.363,13.040 14.093 C 13.588 13.825,14.088 13.224,14.260 12.626 C 14.350 12.317,14.349 11.681,14.259 11.371 C 14.058 10.672,13.412 10.010,12.724 9.798 C 12.426 9.706,11.718 9.662,11.450 9.720 M11.455 16.919 C 10.930 17.031,10.135 17.660,9.877 18.167 C 9.733 18.447,9.675 18.760,9.675 19.240 C 9.675 19.769,9.746 20.035,9.986 20.397 C 10.166 20.667,10.626 21.125,10.852 21.257 C 11.469 21.619,12.343 21.633,13.040 21.293 C 13.588 21.025,14.088 20.424,14.260 19.826 C 14.350 19.517,14.349 18.881,14.259 18.571 C 14.058 17.872,13.412 17.210,12.724 16.998 C 12.427 16.906,11.718 16.862,11.455 16.919 " fill="#373B4D" stroke="none" fill-rule="evenodd"></path></svg>