<svg width="24" height="24" viewBox="0 0 24 24" fill="none" xmlns="http://www.w3.org/2000/svg"><path d="M11.395 2.573 C 11.138 2.645,10.642 2.937,10.385 3.166 C 10.009 3.501,9.780 3.960,9.677 4.586 C 9.594 5.089,9.774 5.678,10.150 6.132 C 10.745 6.851,11.411 7.168,12.201 7.107 C 12.774 7.063,13.250 6.807,13.718 6.291 C 14.229 5.728,14.413 5.083,14.276 4.337 C 14.142 3.603,13.340 2.795,12.560 2.608 C 12.253 2.534,11.601 2.514,11.395 2.573 M11.360 9.791 C 11.057 9.873,10.691 10.109,10.330 10.454 C 9.844 10.918,9.715 11.249,9.707 12.057 C 9.702 12.521,9.706 12.550,9.828 12.809 C 10.072 13.326,10.461 13.775,10.886 14.029 C 11.138 14.180,11.645 14.320,11.936 14.319 C 12.970 14.316,13.932 13.601,14.224 12.620 C 14.319 12.303,14.321 11.664,14.229 11.358 C 14.081 10.866,13.554 10.252,13.053 9.990 C 12.612 9.759,11.821 9.666,11.360 9.791 M11.238 17.014 C 10.843 17.156,10.121 17.792,9.911 18.184 C 9.612 18.742,9.608 19.624,9.902 20.204 C 9.970 20.338,10.167 20.574,10.435 20.843 C 10.912 21.322,11.071 21.407,11.652 21.491 C 11.911 21.529,12.030 21.526,12.341 21.473 C 12.901 21.378,13.173 21.234,13.593 20.811 C 14.164 20.236,14.305 19.866,14.273 19.024 C 14.256 18.590,14.247 18.550,14.101 18.254 C 13.792 17.629,13.100 17.089,12.495 17.001 C 12.112 16.946,11.409 16.953,11.238 17.014 " fill="#373B4D" stroke="none" fill-rule="evenodd"></path></svg>