<svg width="24" height="24" viewBox="0 0 24 24" fill="none" xmlns="http://www.w3.org/2000/svg"><path d="M4.195 9.773 C 3.938 9.845,3.442 10.137,3.185 10.366 C 2.809 10.701,2.580 11.160,2.477 11.786 C 2.394 12.289,2.574 12.878,2.950 13.332 C 3.545 14.051,4.211 14.368,5.001 14.307 C 5.574 14.263,6.050 14.007,6.518 13.491 C 7.029 12.928,7.213 12.283,7.076 11.537 C 6.942 10.803,6.140 9.995,5.360 9.808 C 5.053 9.734,4.401 9.714,4.195 9.773 M11.231 9.818 C 10.751 10.002,10.073 10.599,9.880 11.006 C 9.574 11.653,9.634 12.579,10.019 13.182 C 10.292 13.609,10.811 14.039,11.221 14.178 C 11.736 14.354,12.508 14.328,12.952 14.120 C 13.319 13.949,13.909 13.359,14.080 12.992 C 14.491 12.114,14.330 11.103,13.675 10.444 C 13.429 10.197,13.071 9.973,12.763 9.874 C 12.419 9.764,11.463 9.729,11.231 9.818 M18.364 9.842 C 17.896 10.054,17.246 10.665,17.002 11.122 L 16.868 11.373 16.892 11.876 C 16.934 12.785,17.036 13.047,17.543 13.549 C 18.143 14.144,18.503 14.302,19.240 14.296 C 19.937 14.290,20.226 14.163,20.776 13.615 C 21.319 13.075,21.497 12.672,21.497 11.980 C 21.497 11.650,21.479 11.530,21.393 11.291 C 21.132 10.567,20.423 9.933,19.724 9.801 C 19.606 9.778,19.291 9.760,19.025 9.761 C 18.627 9.762,18.508 9.776,18.364 9.842 " fill="#373B4D" stroke="none" fill-rule="evenodd"></path></svg>