<svg width="24" height="24" viewBox="0 0 24 24" fill="none" xmlns="http://www.w3.org/2000/svg"><path d="M11.240 2.594 C 11.018 2.681,10.645 2.917,10.383 3.135 C 9.845 3.584,9.543 4.509,9.696 5.240 C 9.793 5.703,9.968 6.008,10.360 6.400 C 10.901 6.941,11.333 7.126,12.053 7.125 C 12.511 7.124,12.749 7.059,13.099 6.836 C 13.999 6.266,14.438 5.428,14.321 4.505 C 14.252 3.963,14.062 3.624,13.556 3.141 C 13.047 2.654,12.666 2.520,11.800 2.523 C 11.534 2.523,11.366 2.545,11.240 2.594 M11.318 9.775 C 10.733 10.001,10.168 10.474,9.905 10.958 C 9.658 11.411,9.599 12.212,9.775 12.698 C 10.040 13.429,10.655 14.041,11.332 14.246 C 11.684 14.353,12.319 14.335,12.723 14.205 C 13.224 14.045,13.713 13.651,13.998 13.179 C 14.209 12.829,14.287 12.554,14.310 12.075 C 14.333 11.598,14.260 11.268,14.051 10.911 C 13.776 10.443,13.199 9.958,12.748 9.817 C 12.462 9.727,11.514 9.700,11.318 9.775 M11.236 16.993 C 10.937 17.114,10.600 17.356,10.280 17.678 C 9.824 18.137,9.680 18.502,9.680 19.200 C 9.680 19.944,9.810 20.245,10.379 20.823 C 10.806 21.258,10.943 21.345,11.381 21.459 C 11.683 21.537,12.236 21.537,12.542 21.458 C 12.998 21.341,13.268 21.183,13.617 20.829 C 14.130 20.311,14.318 19.857,14.319 19.134 C 14.321 18.404,13.941 17.740,13.259 17.284 C 12.843 17.006,12.652 16.954,11.980 16.935 C 11.501 16.921,11.393 16.930,11.236 16.993 " fill="#373B4D" stroke="none" fill-rule="evenodd"></path></svg>