<svg width="24" height="24" viewBox="0 0 24 24" fill="none" xmlns="http://www.w3.org/2000/svg"><path d="M11.740 2.559 C 11.395 2.601,11.146 2.788,10.946 3.157 L 10.841 3.349 10.797 7.684 C 10.773 10.069,10.741 12.142,10.727 12.292 L 10.700 12.563 10.080 11.998 C 9.372 11.351,9.061 11.102,8.862 11.018 C 8.642 10.926,8.115 10.941,7.908 11.045 C 7.487 11.256,7.268 11.567,7.266 11.957 C 7.262 12.435,7.493 12.730,9.220 14.464 C 10.535 15.784,11.139 16.344,11.515 16.595 C 11.704 16.720,11.759 16.738,11.955 16.732 C 12.229 16.725,12.390 16.660,12.702 16.430 C 13.058 16.168,14.417 14.860,15.392 13.841 C 16.310 12.882,16.704 12.420,16.746 12.251 C 16.778 12.124,16.708 11.732,16.622 11.550 C 16.438 11.162,16.150 10.975,15.674 10.935 C 15.141 10.890,15.051 10.948,13.750 12.170 L 13.200 12.687 13.200 7.947 L 13.200 3.206 12.913 2.944 C 12.755 2.800,12.570 2.657,12.503 2.626 C 12.352 2.557,12.008 2.527,11.740 2.559 M10.320 19.283 C 7.207 19.300,4.585 19.322,4.494 19.331 C 4.285 19.354,4.077 19.510,3.855 19.811 C 3.630 20.116,3.602 20.300,3.719 20.685 C 3.793 20.929,3.841 21.007,4.033 21.200 C 4.164 21.330,4.312 21.438,4.380 21.454 C 4.705 21.527,6.828 21.559,12.907 21.585 L 19.554 21.613 19.838 21.340 C 20.497 20.703,20.499 20.139,19.844 19.507 L 19.568 19.240 17.774 19.247 C 16.787 19.250,13.433 19.267,10.320 19.283 " fill="#373B4D" stroke="none" fill-rule="evenodd"></path></svg>