<svg width="24" height="24" viewBox="0 0 24 24" fill="none" xmlns="http://www.w3.org/2000/svg"><path d="M11.520 2.543 C 11.443 2.577,11.284 2.697,11.167 2.812 C 10.784 3.186,10.821 2.645,10.809 7.974 L 10.798 12.689 10.229 12.134 C 9.127 11.061,8.846 10.859,8.460 10.862 C 7.777 10.866,7.232 11.369,7.226 12.000 C 7.222 12.436,7.381 12.641,8.988 14.280 C 9.974 15.286,10.999 16.253,11.384 16.541 C 11.825 16.872,12.155 16.872,12.620 16.540 C 13.299 16.056,16.291 13.042,16.645 12.485 C 16.802 12.239,16.822 12.037,16.724 11.720 C 16.613 11.365,16.452 11.159,16.165 11.006 C 15.959 10.896,15.889 10.880,15.623 10.880 C 15.441 10.880,15.259 10.904,15.172 10.941 C 14.958 11.030,14.574 11.355,13.848 12.060 L 13.200 12.689 13.200 7.965 L 13.200 3.241 12.987 2.990 C 12.748 2.709,12.577 2.580,12.365 2.521 C 12.151 2.461,11.681 2.474,11.520 2.543 M8.420 19.278 L 4.380 19.300 4.235 19.390 C 4.038 19.513,3.778 19.801,3.697 19.987 C 3.588 20.237,3.605 20.587,3.739 20.862 C 3.881 21.151,4.142 21.418,4.346 21.483 C 4.563 21.551,8.084 21.591,14.373 21.596 L 19.526 21.600 19.693 21.485 C 19.983 21.285,20.228 20.991,20.297 20.758 C 20.459 20.212,20.299 19.791,19.786 19.413 L 19.551 19.240 16.006 19.248 C 14.056 19.253,10.642 19.266,8.420 19.278 " fill="#373B4D" stroke="none" fill-rule="evenodd"></path></svg>