<svg width="24" height="24" viewBox="0 0 24 24" fill="none" xmlns="http://www.w3.org/2000/svg"><path d="M11.740 2.477 C 11.652 2.492,11.520 2.537,11.446 2.576 C 11.261 2.673,10.982 2.960,10.883 3.155 C 10.800 3.316,10.800 3.344,10.800 8.003 L 10.800 12.690 10.162 12.068 C 8.939 10.876,8.712 10.745,8.125 10.895 C 7.667 11.013,7.392 11.281,7.258 11.741 C 7.177 12.019,7.221 12.317,7.375 12.544 C 7.661 12.965,9.956 15.300,10.972 16.204 C 11.475 16.652,11.652 16.759,11.937 16.788 C 12.240 16.819,12.475 16.698,12.981 16.249 C 13.969 15.372,16.177 13.128,16.545 12.629 C 16.781 12.308,16.827 12.144,16.762 11.850 C 16.663 11.406,16.473 11.141,16.134 10.975 C 15.954 10.887,15.854 10.866,15.606 10.864 C 15.129 10.860,14.959 10.975,13.838 12.068 L 13.200 12.690 13.200 7.975 L 13.199 3.260 13.029 3.033 C 12.819 2.754,12.596 2.572,12.405 2.524 C 12.173 2.465,11.912 2.447,11.740 2.477 M7.356 19.279 L 4.373 19.300 4.153 19.446 C 3.591 19.820,3.455 20.499,3.834 21.038 C 4.078 21.387,4.214 21.475,4.583 21.526 C 4.798 21.555,7.257 21.575,12.210 21.588 L 19.520 21.607 19.779 21.422 C 20.193 21.127,20.360 20.821,20.359 20.360 C 20.359 19.974,20.139 19.636,19.701 19.345 L 19.541 19.240 14.941 19.249 C 12.410 19.253,8.997 19.267,7.356 19.279 " fill="#373B4D" stroke="none" fill-rule="evenodd"></path></svg>