<svg width="24" height="24" viewBox="0 0 24 24" fill="none" xmlns="http://www.w3.org/2000/svg"><path d="M11.589 2.574 C 11.336 2.646,11.136 2.813,10.985 3.080 L 10.862 3.298 10.834 4.699 C 10.819 5.469,10.805 6.795,10.803 7.643 C 10.799 9.860,10.752 12.560,10.718 12.560 C 10.702 12.560,10.450 12.340,10.158 12.070 C 9.015 11.015,8.900 10.940,8.420 10.940 C 8.150 10.940,8.064 10.958,7.871 11.052 C 7.324 11.321,7.108 11.902,7.366 12.414 C 7.513 12.706,7.869 13.108,8.977 14.233 C 10.220 15.495,11.060 16.282,11.454 16.552 C 11.704 16.723,11.749 16.740,11.954 16.738 C 12.444 16.733,12.745 16.497,14.484 14.762 C 15.772 13.477,16.410 12.792,16.646 12.440 C 16.758 12.274,16.766 12.241,16.745 12.009 C 16.706 11.574,16.478 11.202,16.144 11.032 C 15.914 10.914,15.349 10.883,15.151 10.978 C 14.951 11.072,14.482 11.468,13.790 12.126 L 13.200 12.686 13.200 7.947 L 13.200 3.207 12.911 2.940 C 12.753 2.793,12.570 2.646,12.505 2.612 C 12.343 2.529,11.826 2.507,11.589 2.574 M10.220 19.281 C 7.096 19.296,4.473 19.321,4.390 19.338 C 4.208 19.375,3.830 19.763,3.709 20.036 C 3.514 20.475,3.844 21.227,4.320 21.430 C 4.567 21.535,5.664 21.555,12.700 21.585 L 19.540 21.613 19.739 21.441 C 20.534 20.753,20.536 20.089,19.746 19.405 L 19.555 19.240 17.728 19.247 C 16.722 19.252,13.344 19.267,10.220 19.281 " fill="#373B4D" stroke="none" fill-rule="evenodd"></path></svg>