<svg width="24" height="24" viewBox="0 0 24 24" fill="none" xmlns="http://www.w3.org/2000/svg"><path d="M11.606 2.560 C 11.268 2.640,10.938 2.994,10.877 3.342 C 10.851 3.489,10.823 5.292,10.804 8.070 C 10.787 10.540,10.761 12.572,10.748 12.585 C 10.735 12.599,10.466 12.366,10.152 12.069 C 9.074 11.049,8.881 10.920,8.431 10.920 C 7.892 10.920,7.455 11.212,7.301 11.676 C 7.159 12.106,7.292 12.453,7.824 13.040 C 8.343 13.613,10.076 15.355,10.620 15.852 C 11.489 16.645,11.702 16.781,12.022 16.748 C 12.434 16.706,12.734 16.484,13.917 15.350 C 15.043 14.271,16.358 12.869,16.641 12.448 C 16.760 12.272,16.766 12.243,16.746 11.994 C 16.720 11.663,16.590 11.395,16.348 11.171 C 16.132 10.973,15.964 10.921,15.538 10.920 C 15.252 10.920,15.196 10.933,15.038 11.034 C 14.812 11.178,14.305 11.624,13.685 12.222 L 13.200 12.689 13.200 7.949 L 13.200 3.208 12.890 2.918 C 12.720 2.759,12.522 2.604,12.451 2.574 C 12.313 2.516,11.827 2.508,11.606 2.560 M9.998 19.278 C 4.737 19.299,4.370 19.304,4.270 19.370 C 4.095 19.485,3.856 19.754,3.739 19.968 C 3.644 20.144,3.632 20.201,3.650 20.416 C 3.681 20.808,3.932 21.222,4.246 21.399 C 4.392 21.481,4.488 21.494,5.175 21.525 C 5.596 21.545,9.000 21.571,12.740 21.583 L 19.540 21.606 19.767 21.423 C 20.193 21.077,20.412 20.606,20.324 20.222 C 20.265 19.961,20.051 19.652,19.772 19.422 L 19.551 19.240 17.585 19.248 C 16.504 19.253,13.090 19.266,9.998 19.278 " fill="#373B4D" stroke="none" fill-rule="evenodd"></path></svg>