<svg width="24" height="24" viewBox="0 0 24 24" fill="none" xmlns="http://www.w3.org/2000/svg"><path d="M10.745 3.099 C 9.588 3.265,8.349 3.723,7.216 4.403 C 5.807 5.250,4.461 6.803,3.769 8.380 C 2.250 11.841,3.053 15.869,5.780 18.472 C 6.508 19.168,7.237 19.671,8.140 20.102 C 10.685 21.318,13.520 21.287,16.054 20.016 C 17.732 19.174,19.211 17.684,20.018 16.021 C 20.722 14.571,20.980 13.495,20.978 12.020 C 20.976 10.538,20.674 9.262,20.016 7.952 C 18.745 5.422,16.231 3.578,13.449 3.136 C 12.893 3.048,11.261 3.026,10.745 3.099 M12.965 4.418 C 14.455 4.616,15.763 5.185,16.943 6.146 L 17.098 6.271 16.859 6.543 C 16.252 7.234,15.238 7.991,14.237 8.500 C 13.595 8.827,13.065 9.055,13.051 9.012 C 13.045 8.995,12.915 8.761,12.763 8.493 C 12.222 7.544,11.366 6.195,10.584 5.060 C 10.417 4.818,10.281 4.599,10.280 4.574 C 10.280 4.534,10.571 4.469,11.120 4.386 C 11.381 4.346,12.584 4.367,12.965 4.418 M8.881 5.290 C 9.406 5.949,11.592 9.395,11.539 9.481 C 11.515 9.520,10.727 9.709,9.900 9.875 C 8.387 10.177,6.831 10.358,5.165 10.425 C 4.494 10.452,4.471 10.450,4.493 10.376 C 4.505 10.334,4.555 10.147,4.603 9.960 C 4.818 9.138,5.307 8.154,5.882 7.391 C 6.239 6.916,6.958 6.199,7.416 5.861 C 7.722 5.635,8.623 5.080,8.684 5.080 C 8.700 5.080,8.789 5.175,8.881 5.290 M18.302 7.648 C 18.894 8.532,19.299 9.492,19.495 10.480 C 19.612 11.068,19.698 11.839,19.652 11.881 C 19.635 11.897,19.278 11.859,18.860 11.797 C 18.110 11.685,18.075 11.683,16.216 11.682 L 14.333 11.680 14.022 10.957 C 13.848 10.553,13.726 10.218,13.745 10.199 C 13.764 10.181,14.059 10.018,14.400 9.838 C 15.878 9.057,16.272 8.780,17.351 7.769 C 17.687 7.454,17.977 7.206,17.994 7.216 C 18.012 7.227,18.151 7.422,18.302 7.648 M12.461 11.226 C 12.607 11.527,12.730 11.818,12.733 11.874 C 12.740 11.969,12.701 11.992,12.200 12.201 C 10.980 12.709,9.953 13.299,9.080 13.995 C 8.342 14.582,7.225 15.777,6.676 16.564 C 6.535 16.766,6.384 16.974,6.340 17.027 L 6.260 17.122 6.075 16.891 C 5.799 16.548,5.435 15.990,5.207 15.560 C 4.677 14.563,4.402 13.545,4.338 12.339 L 4.310 11.817 5.365 11.767 C 6.991 11.689,8.064 11.572,9.500 11.316 C 10.282 11.176,11.355 10.931,11.820 10.785 C 11.996 10.730,12.152 10.684,12.168 10.683 C 12.183 10.681,12.315 10.926,12.461 11.226 M17.740 12.881 C 18.513 12.954,19.560 13.191,19.560 13.293 C 19.560 13.319,19.523 13.493,19.479 13.680 C 19.170 14.980,18.543 16.170,17.613 17.223 C 17.376 17.491,16.589 18.181,16.417 18.272 C 16.295 18.336,16.323 18.410,16.099 17.420 C 15.861 16.363,15.555 15.248,15.161 14.002 C 14.985 13.441,14.840 12.961,14.840 12.934 C 14.840 12.907,14.898 12.878,14.970 12.869 C 15.257 12.833,17.328 12.843,17.740 12.881 M13.437 13.453 C 13.572 13.767,14.231 15.810,14.401 16.440 C 14.623 17.262,14.913 18.559,14.945 18.866 L 14.970 19.113 14.535 19.253 C 13.506 19.585,13.066 19.655,12.000 19.655 C 10.667 19.655,9.722 19.440,8.600 18.881 C 8.029 18.597,7.323 18.143,7.321 18.059 C 7.319 17.984,7.615 17.518,7.939 17.087 C 8.586 16.225,9.576 15.299,10.518 14.673 C 11.220 14.207,13.064 13.288,13.311 13.281 C 13.340 13.281,13.396 13.358,13.437 13.453 " fill="#373B4D" stroke="none" fill-rule="evenodd"></path></svg>