<svg width="24" height="24" viewBox="0 0 24 24" fill="none" xmlns="http://www.w3.org/2000/svg"><path d="M11.213 3.046 C 10.111 3.137,9.135 3.413,8.060 3.938 C 7.104 4.405,6.490 4.835,5.746 5.558 C 4.052 7.205,3.105 9.326,3.013 11.680 C 2.892 14.789,4.418 17.749,7.036 19.486 C 9.895 21.382,13.546 21.495,16.506 19.777 C 17.684 19.094,18.762 18.068,19.531 16.900 C 20.005 16.180,20.501 15.052,20.725 14.185 C 21.432 11.440,20.729 8.411,18.874 6.215 C 18.515 5.789,17.858 5.159,17.466 4.865 C 16.147 3.875,14.508 3.215,13.031 3.081 C 12.432 3.027,11.633 3.012,11.213 3.046 M13.080 4.425 C 14.441 4.620,15.663 5.140,16.750 5.987 C 16.931 6.129,17.080 6.258,17.080 6.274 C 17.080 6.336,16.384 7.047,16.046 7.330 C 15.409 7.865,14.494 8.420,13.607 8.809 C 13.312 8.938,13.067 9.038,13.062 9.032 C 13.057 9.025,12.975 8.876,12.879 8.700 C 12.407 7.829,11.298 6.073,10.608 5.102 C 10.405 4.818,10.254 4.570,10.273 4.551 C 10.291 4.533,10.448 4.492,10.623 4.459 C 11.393 4.316,12.238 4.304,13.080 4.425 M8.901 5.310 C 9.434 5.984,11.622 9.435,11.555 9.497 C 11.547 9.505,11.261 9.576,10.920 9.655 C 8.931 10.115,7.272 10.335,5.128 10.425 L 4.475 10.452 4.501 10.336 C 4.929 8.433,6.080 6.753,7.715 5.643 C 7.978 5.465,8.643 5.080,8.688 5.080 C 8.705 5.080,8.801 5.184,8.901 5.310 M18.360 7.727 C 19.079 8.814,19.483 9.942,19.628 11.265 C 19.664 11.603,19.685 11.888,19.674 11.899 C 19.663 11.910,19.278 11.861,18.817 11.790 L 17.980 11.661 16.154 11.660 L 14.327 11.660 14.024 10.967 C 13.857 10.585,13.720 10.252,13.721 10.227 C 13.721 10.201,14.021 10.027,14.387 9.840 C 15.787 9.125,16.493 8.630,17.380 7.741 C 17.803 7.317,17.953 7.189,17.994 7.218 C 18.024 7.240,18.189 7.468,18.360 7.727 M12.480 11.254 C 12.630 11.569,12.760 11.861,12.767 11.902 C 12.778 11.964,12.695 12.009,12.280 12.166 C 11.201 12.577,9.947 13.289,9.080 13.986 C 8.238 14.663,7.036 15.978,6.490 16.821 C 6.385 16.983,6.289 17.116,6.275 17.117 C 6.261 17.119,6.142 16.980,6.010 16.810 C 4.954 15.443,4.407 13.992,4.333 12.358 L 4.308 11.816 5.364 11.766 C 5.945 11.739,6.699 11.690,7.040 11.658 C 8.594 11.513,10.561 11.159,11.700 10.821 C 11.942 10.749,12.155 10.688,12.173 10.685 C 12.191 10.682,12.329 10.938,12.480 11.254 M18.000 12.900 C 18.231 12.932,18.677 13.015,18.990 13.085 C 19.434 13.184,19.560 13.226,19.560 13.276 C 19.559 13.436,19.354 14.218,19.219 14.580 C 18.749 15.839,17.963 16.992,17.037 17.783 C 16.481 18.258,16.364 18.340,16.313 18.289 C 16.290 18.266,16.228 18.037,16.176 17.782 C 15.936 16.601,15.568 15.243,15.086 13.760 C 14.932 13.287,14.811 12.895,14.817 12.889 C 14.823 12.883,15.025 12.862,15.264 12.842 C 15.850 12.793,17.480 12.827,18.000 12.900 M13.416 13.392 C 13.499 13.552,14.084 15.315,14.275 15.981 C 14.593 17.087,14.960 18.687,14.960 18.968 L 14.960 19.107 14.590 19.233 C 13.813 19.499,13.336 19.601,12.650 19.647 C 11.118 19.751,9.874 19.516,8.580 18.879 C 8.124 18.655,7.320 18.140,7.320 18.072 C 7.320 17.897,7.994 16.943,8.499 16.403 C 9.547 15.283,10.489 14.581,11.860 13.901 C 12.449 13.609,13.213 13.282,13.309 13.281 C 13.336 13.280,13.384 13.331,13.416 13.392 " fill="#373B4D" stroke="none" fill-rule="evenodd"></path></svg>