<svg width="24" height="24" viewBox="0 0 24 24" fill="none" xmlns="http://www.w3.org/2000/svg"><path d="M11.320 3.025 C 10.097 3.137,9.094 3.416,8.015 3.943 C 6.240 4.810,4.801 6.256,3.917 8.060 C 2.386 11.183,2.802 14.904,4.987 17.631 C 6.754 19.836,9.494 21.094,12.300 20.987 C 13.659 20.935,14.750 20.661,15.980 20.062 C 18.737 18.719,20.658 15.939,20.958 12.863 C 21.317 9.165,19.316 5.578,15.980 3.941 C 15.090 3.505,14.266 3.244,13.320 3.101 C 12.909 3.039,11.677 2.992,11.320 3.025 M12.600 4.360 C 14.180 4.497,15.613 5.063,16.810 6.026 C 16.959 6.146,17.080 6.259,17.080 6.278 C 17.080 6.342,16.275 7.157,15.965 7.408 C 15.283 7.959,14.206 8.583,13.362 8.916 L 13.064 9.034 12.860 8.667 C 12.233 7.533,11.206 5.921,10.460 4.900 C 10.348 4.746,10.243 4.599,10.228 4.574 C 10.178 4.492,11.181 4.346,11.940 4.326 C 12.050 4.323,12.347 4.339,12.600 4.360 M9.113 5.590 C 9.996 6.849,11.617 9.441,11.555 9.496 C 11.522 9.526,10.305 9.802,9.700 9.917 C 8.912 10.067,7.859 10.218,7.047 10.299 C 6.326 10.370,4.531 10.464,4.498 10.432 C 4.464 10.397,4.630 9.785,4.788 9.360 C 5.321 7.932,6.208 6.753,7.440 5.834 C 7.839 5.537,8.605 5.081,8.707 5.080 C 8.734 5.080,8.916 5.310,9.113 5.590 M18.382 7.745 C 18.984 8.640,19.407 9.721,19.577 10.800 C 19.642 11.209,19.703 11.920,19.674 11.920 C 19.664 11.920,19.369 11.876,19.018 11.822 C 18.667 11.768,18.164 11.701,17.900 11.673 C 17.367 11.616,15.273 11.602,14.696 11.651 L 14.333 11.682 14.219 11.411 C 14.157 11.262,14.008 10.925,13.888 10.662 C 13.769 10.398,13.688 10.177,13.709 10.170 C 13.947 10.091,15.371 9.334,15.740 9.091 C 16.543 8.562,17.471 7.761,17.834 7.285 L 17.937 7.150 18.050 7.285 C 18.112 7.359,18.262 7.566,18.382 7.745 M12.503 11.297 C 12.666 11.636,12.800 11.931,12.800 11.952 C 12.800 11.973,12.580 12.065,12.310 12.157 C 11.309 12.497,10.092 13.178,9.160 13.920 C 8.664 14.315,7.837 15.114,7.401 15.620 C 7.074 16.000,6.418 16.878,6.348 17.030 C 6.326 17.079,6.293 17.120,6.276 17.120 C 6.258 17.120,6.129 16.972,5.987 16.790 C 4.912 15.410,4.322 13.766,4.320 12.150 L 4.320 11.800 4.450 11.799 C 4.875 11.798,6.479 11.710,7.040 11.658 C 8.660 11.508,10.691 11.136,11.920 10.765 C 12.063 10.721,12.186 10.685,12.193 10.683 C 12.200 10.681,12.339 10.958,12.503 11.297 M17.700 12.860 C 18.296 12.929,18.484 12.962,19.114 13.108 L 19.567 13.213 19.541 13.396 C 19.462 13.942,19.235 14.641,18.917 15.311 C 18.412 16.377,17.682 17.293,16.747 18.033 C 16.256 18.422,16.308 18.442,16.181 17.809 C 15.936 16.581,15.523 15.056,15.062 13.683 C 14.918 13.255,14.805 12.901,14.811 12.896 C 14.816 12.890,14.973 12.869,15.160 12.848 C 15.716 12.787,17.122 12.793,17.700 12.860 M13.475 13.530 C 13.730 14.228,14.106 15.383,14.301 16.061 C 14.651 17.283,15.036 19.021,14.971 19.084 C 14.900 19.152,13.946 19.451,13.481 19.550 C 13.015 19.650,12.911 19.657,12.000 19.657 C 11.089 19.657,10.985 19.650,10.520 19.550 C 9.492 19.330,8.558 18.944,7.750 18.403 C 7.515 18.246,7.314 18.102,7.302 18.084 C 7.274 18.038,7.659 17.428,8.012 16.960 C 8.371 16.482,9.261 15.587,9.760 15.201 C 10.345 14.749,11.019 14.320,11.677 13.984 C 12.272 13.680,13.203 13.281,13.322 13.280 C 13.362 13.280,13.417 13.369,13.475 13.530 " fill="#373B4D" stroke="none" fill-rule="evenodd"></path></svg>