<svg width="24" height="24" viewBox="0 0 24 24" fill="none" xmlns="http://www.w3.org/2000/svg"><path d="M10.820 3.121 C 9.805 3.192,8.357 3.722,7.167 4.458 C 5.635 5.406,4.303 7.010,3.639 8.707 C 3.211 9.802,3.036 10.755,3.037 11.996 C 3.037 13.406,3.245 14.410,3.789 15.620 C 4.931 18.164,7.125 20.012,9.820 20.700 C 10.682 20.920,11.128 20.977,11.980 20.977 C 13.405 20.977,14.688 20.675,15.961 20.041 C 16.886 19.581,17.464 19.172,18.194 18.461 C 18.990 17.687,19.504 17.010,19.933 16.171 C 20.672 14.723,20.964 13.563,20.965 12.060 C 20.967 10.946,20.850 10.199,20.515 9.180 C 19.765 6.893,18.039 4.951,15.820 3.897 C 14.955 3.486,13.916 3.187,13.120 3.120 C 12.609 3.077,11.436 3.077,10.820 3.121 M12.500 4.402 C 14.089 4.509,15.439 5.016,16.730 5.991 C 16.922 6.136,17.080 6.268,17.080 6.285 C 17.080 6.348,16.246 7.153,15.920 7.406 C 15.230 7.941,14.216 8.544,13.471 8.863 C 13.185 8.986,13.112 9.003,13.062 8.962 C 13.029 8.934,12.882 8.702,12.735 8.446 C 12.375 7.819,11.873 7.014,11.120 5.860 C 10.349 4.678,10.309 4.610,10.337 4.564 C 10.356 4.534,10.713 4.460,11.200 4.386 C 11.399 4.356,11.912 4.362,12.500 4.402 M8.930 5.370 C 9.647 6.327,11.562 9.380,11.504 9.474 C 11.432 9.590,9.461 9.986,7.900 10.198 C 7.147 10.300,6.021 10.394,5.148 10.427 L 4.475 10.453 4.503 10.336 C 4.518 10.272,4.608 9.980,4.704 9.687 C 5.196 8.175,6.179 6.801,7.455 5.841 C 7.665 5.683,8.639 5.081,8.686 5.080 C 8.701 5.080,8.811 5.210,8.930 5.370 M18.256 7.595 C 19.051 8.800,19.534 10.164,19.625 11.459 C 19.648 11.791,19.643 11.841,19.585 11.864 C 19.548 11.878,19.316 11.858,19.069 11.821 C 18.578 11.746,16.950 11.686,15.315 11.682 L 14.331 11.680 14.100 11.132 C 13.750 10.300,13.735 10.247,13.825 10.180 C 13.866 10.149,14.250 9.930,14.678 9.692 C 15.870 9.030,16.232 8.774,17.167 7.937 C 17.916 7.266,17.962 7.232,18.025 7.284 C 18.056 7.310,18.159 7.450,18.256 7.595 M12.355 11.033 C 12.440 11.202,12.558 11.464,12.618 11.615 C 12.708 11.844,12.718 11.899,12.673 11.943 C 12.644 11.972,12.287 12.155,11.880 12.350 C 10.512 13.004,9.866 13.383,9.140 13.960 C 8.399 14.549,7.355 15.656,6.671 16.576 C 6.473 16.842,6.298 17.075,6.282 17.092 C 6.265 17.110,6.161 17.002,6.050 16.852 C 4.917 15.317,4.458 14.076,4.338 12.230 L 4.310 11.800 4.645 11.800 C 5.712 11.799,7.772 11.605,9.140 11.376 C 9.856 11.257,11.183 10.965,11.740 10.805 C 11.960 10.742,12.154 10.698,12.171 10.708 C 12.188 10.718,12.271 10.864,12.355 11.033 M17.928 12.920 C 18.383 12.964,19.045 13.094,19.335 13.195 C 19.532 13.264,19.540 13.273,19.529 13.404 C 19.510 13.639,19.206 14.590,19.007 15.036 C 18.589 15.972,17.949 16.894,17.251 17.562 C 16.717 18.074,16.372 18.324,16.319 18.238 C 16.299 18.206,16.208 17.865,16.116 17.480 C 15.873 16.457,15.607 15.480,15.242 14.267 C 15.065 13.677,14.909 13.124,14.895 13.037 L 14.870 12.880 16.205 12.881 C 16.939 12.882,17.714 12.899,17.928 12.920 M13.427 13.483 C 13.634 13.889,14.344 16.183,14.619 17.335 C 14.758 17.917,14.960 18.915,14.960 19.019 C 14.960 19.052,14.908 19.105,14.845 19.137 C 14.622 19.253,13.496 19.553,13.102 19.602 C 12.586 19.667,11.044 19.630,10.540 19.541 C 9.811 19.412,8.948 19.084,8.163 18.638 C 7.569 18.299,7.360 18.140,7.360 18.026 C 7.360 17.801,8.189 16.740,8.981 15.950 C 9.859 15.076,10.559 14.591,11.960 13.886 C 12.812 13.457,13.225 13.275,13.298 13.295 C 13.319 13.301,13.377 13.385,13.427 13.483 " fill="#373B4D" stroke="none" fill-rule="evenodd"></path></svg>