<svg width="24" height="24" viewBox="0 0 24 24" fill="none" xmlns="http://www.w3.org/2000/svg"><path d="M10.499 3.140 C 8.956 3.423,7.306 4.200,6.160 5.185 C 5.172 6.034,4.271 7.237,3.776 8.370 C 3.253 9.565,3.024 10.664,3.024 11.980 C 3.023 13.463,3.287 14.606,3.939 15.940 C 5.242 18.610,7.774 20.451,10.760 20.901 C 13.106 21.254,15.618 20.567,17.565 19.040 C 18.258 18.497,19.068 17.605,19.547 16.857 C 19.985 16.174,20.493 15.033,20.694 14.280 C 21.078 12.851,21.071 11.169,20.676 9.682 C 19.851 6.574,17.325 4.092,14.180 3.299 C 13.894 3.227,13.498 3.148,13.300 3.124 C 12.802 3.063,10.856 3.075,10.499 3.140 M12.620 4.399 C 14.073 4.500,15.468 5.035,16.710 5.968 C 16.913 6.121,17.080 6.258,17.080 6.273 C 17.080 6.288,16.952 6.440,16.796 6.610 C 16.151 7.316,15.094 8.072,13.980 8.623 C 13.606 8.808,13.245 8.970,13.177 8.983 C 13.055 9.007,13.051 9.002,12.761 8.494 C 12.342 7.757,11.671 6.688,10.926 5.567 C 10.570 5.032,10.288 4.579,10.299 4.561 C 10.317 4.533,10.688 4.458,11.160 4.386 C 11.354 4.357,12.106 4.363,12.620 4.399 M8.966 5.410 C 9.638 6.314,11.520 9.304,11.520 9.467 C 11.520 9.590,8.902 10.095,7.420 10.258 C 6.383 10.372,4.480 10.485,4.480 10.433 C 4.480 10.423,4.533 10.224,4.599 9.992 C 5.003 8.551,5.824 7.251,6.969 6.239 C 7.173 6.058,7.448 5.836,7.580 5.747 C 7.889 5.536,8.648 5.080,8.689 5.080 C 8.706 5.080,8.831 5.229,8.966 5.410 M18.285 7.632 C 18.605 8.113,18.982 8.850,19.176 9.371 C 19.425 10.038,19.640 11.091,19.640 11.640 C 19.640 11.875,19.638 11.880,19.530 11.879 C 19.470 11.879,19.177 11.841,18.880 11.795 C 18.403 11.721,18.106 11.709,16.334 11.692 L 14.328 11.672 14.198 11.366 C 13.887 10.634,13.760 10.309,13.761 10.247 C 13.761 10.201,14.011 10.046,14.547 9.760 C 15.829 9.074,16.246 8.780,17.338 7.785 C 17.668 7.485,17.957 7.240,17.981 7.240 C 18.005 7.240,18.142 7.416,18.285 7.632 M12.456 11.238 C 12.611 11.558,12.721 11.835,12.713 11.887 C 12.702 11.963,12.579 12.032,11.968 12.305 C 10.304 13.050,9.270 13.735,8.209 14.797 C 7.588 15.419,7.046 16.049,6.613 16.650 C 6.427 16.909,6.269 17.120,6.262 17.120 C 6.254 17.120,6.131 16.962,5.988 16.770 C 4.919 15.334,4.442 14.036,4.337 12.276 L 4.310 11.812 5.025 11.785 C 6.649 11.723,8.202 11.557,9.600 11.295 C 10.318 11.161,11.594 10.863,11.960 10.744 C 12.059 10.712,12.150 10.684,12.163 10.683 C 12.176 10.681,12.308 10.931,12.456 11.238 M18.200 12.942 C 18.950 13.056,19.560 13.222,19.560 13.314 C 19.560 13.419,19.305 14.313,19.185 14.626 C 18.873 15.444,18.347 16.341,17.780 17.020 C 17.344 17.542,16.459 18.311,16.344 18.267 C 16.310 18.254,16.253 18.088,16.200 17.853 C 15.921 16.605,15.623 15.498,15.156 13.984 C 14.980 13.414,14.851 12.933,14.868 12.916 C 14.929 12.857,15.227 12.847,16.500 12.863 C 17.396 12.874,17.906 12.898,18.200 12.942 M13.472 13.570 C 13.717 14.166,14.290 16.003,14.538 16.991 C 14.740 17.796,14.959 18.845,14.960 19.009 C 14.960 19.113,14.940 19.124,14.450 19.277 C 13.346 19.621,13.086 19.656,11.808 19.629 C 10.713 19.605,10.386 19.556,9.600 19.297 C 9.078 19.124,8.255 18.724,7.780 18.411 C 7.279 18.081,7.285 18.091,7.445 17.811 C 7.857 17.091,8.938 15.888,9.760 15.235 C 10.457 14.682,10.913 14.403,12.032 13.842 C 12.718 13.498,13.199 13.286,13.306 13.282 C 13.332 13.281,13.406 13.410,13.472 13.570 " fill="#373B4D" stroke="none" fill-rule="evenodd"></path></svg>