<svg width="24" height="24" viewBox="0 0 24 24" fill="none" xmlns="http://www.w3.org/2000/svg"><path d="M10.960 3.120 C 10.024 3.177,9.027 3.480,7.906 4.050 C 6.993 4.514,6.299 5.025,5.578 5.766 C 4.265 7.116,3.478 8.632,3.151 10.444 C 3.029 11.119,3.019 12.815,3.133 13.494 C 3.374 14.930,4.064 16.438,5.022 17.622 C 5.383 18.068,6.155 18.821,6.573 19.135 C 7.966 20.178,9.780 20.865,11.388 20.957 C 13.289 21.067,14.997 20.644,16.688 19.645 C 17.195 19.346,17.725 18.919,18.282 18.362 C 19.125 17.520,19.573 16.903,20.041 15.940 C 20.707 14.571,20.960 13.494,20.960 12.035 C 20.960 11.235,20.913 10.747,20.774 10.124 C 20.004 6.651,17.247 3.930,13.780 3.220 C 13.171 3.096,12.034 3.055,10.960 3.120 M13.040 4.464 C 13.975 4.583,14.928 4.893,15.700 5.328 C 16.131 5.571,16.696 5.952,16.923 6.154 L 17.088 6.300 16.554 6.821 C 16.260 7.107,15.863 7.455,15.670 7.593 C 14.782 8.233,13.219 9.066,13.075 8.977 C 13.056 8.965,12.910 8.736,12.752 8.467 C 12.356 7.794,11.785 6.881,11.116 5.853 C 10.805 5.374,10.498 4.889,10.433 4.774 L 10.316 4.567 10.408 4.537 C 10.459 4.521,10.680 4.475,10.900 4.435 C 11.362 4.350,12.242 4.362,13.040 4.464 M9.013 5.490 C 9.795 6.566,11.480 9.266,11.480 9.444 C 11.480 9.521,11.169 9.615,10.360 9.781 C 8.575 10.146,6.826 10.364,5.185 10.426 L 4.471 10.453 4.498 10.356 C 4.513 10.303,4.598 10.035,4.687 9.760 C 5.192 8.193,6.249 6.712,7.494 5.823 C 7.775 5.623,8.644 5.082,8.687 5.081 C 8.703 5.080,8.849 5.265,9.013 5.490 M18.297 7.673 C 18.787 8.428,19.173 9.301,19.402 10.173 C 19.521 10.629,19.656 11.544,19.633 11.745 C 19.618 11.881,19.602 11.883,18.860 11.807 C 18.251 11.746,16.412 11.681,15.235 11.681 L 14.330 11.680 14.065 11.043 C 13.798 10.401,13.759 10.243,13.850 10.170 C 13.877 10.148,14.259 9.928,14.697 9.681 C 15.885 9.013,16.204 8.788,17.140 7.960 C 17.829 7.350,17.916 7.280,17.984 7.280 C 18.016 7.280,18.157 7.457,18.297 7.673 M12.292 10.912 C 12.459 11.220,12.680 11.759,12.680 11.861 C 12.680 11.945,12.555 12.018,11.590 12.497 C 9.871 13.350,9.290 13.750,8.237 14.799 C 7.584 15.450,7.058 16.053,6.560 16.720 C 6.421 16.907,6.300 17.068,6.293 17.077 C 6.224 17.163,5.460 16.034,5.123 15.348 C 4.651 14.387,4.435 13.518,4.337 12.176 L 4.311 11.813 5.085 11.787 C 7.161 11.718,9.491 11.386,11.420 10.885 C 11.750 10.799,12.058 10.727,12.104 10.724 C 12.164 10.721,12.216 10.772,12.292 10.912 M18.480 13.000 C 18.755 13.048,19.097 13.126,19.240 13.174 L 19.500 13.260 19.495 13.460 C 19.487 13.750,19.160 14.709,18.864 15.308 C 18.376 16.296,17.640 17.258,16.889 17.888 C 16.525 18.193,16.379 18.278,16.321 18.214 C 16.305 18.195,16.196 17.793,16.080 17.320 C 15.964 16.847,15.698 15.866,15.490 15.140 C 15.021 13.509,14.880 12.996,14.880 12.924 C 14.880 12.877,15.123 12.872,16.430 12.891 C 17.777 12.910,18.046 12.924,18.480 13.000 M13.395 13.439 C 13.587 13.781,14.152 15.547,14.503 16.904 C 14.728 17.772,14.968 18.950,14.939 19.042 C 14.911 19.131,14.747 19.196,14.100 19.375 C 13.341 19.584,12.954 19.640,12.265 19.640 C 11.097 19.640,10.432 19.559,9.740 19.334 C 8.815 19.033,7.452 18.307,7.379 18.077 C 7.316 17.879,7.971 16.997,8.858 16.086 C 9.676 15.245,10.347 14.746,11.480 14.138 C 12.160 13.772,13.177 13.290,13.283 13.282 C 13.295 13.281,13.346 13.352,13.395 13.439 " fill="#373B4D" stroke="none" fill-rule="evenodd"></path></svg>