<svg width="24" height="24" viewBox="0 0 24 24" fill="none" xmlns="http://www.w3.org/2000/svg"><path d="M7.160 4.249 C 5.858 5.028,3.140 6.736,3.100 6.800 C 3.073 6.843,3.565 7.169,5.240 8.221 C 6.748 9.167,7.400 9.593,7.400 9.632 C 7.399 9.677,7.082 9.886,5.320 11.001 C 4.407 11.579,3.528 12.141,3.367 12.249 L 3.074 12.447 3.227 12.559 C 3.422 12.702,5.926 14.294,6.809 14.836 L 7.478 15.247 7.709 15.116 C 8.039 14.929,10.632 13.336,11.319 12.898 C 11.637 12.695,11.903 12.511,11.910 12.489 C 11.925 12.445,11.568 12.205,10.140 11.301 C 8.269 10.116,7.599 9.673,7.623 9.635 C 7.659 9.577,8.351 9.121,9.620 8.320 C 10.931 7.492,11.920 6.847,11.920 6.820 C 11.920 6.766,7.596 4.034,7.524 4.043 C 7.511 4.044,7.347 4.137,7.160 4.249 M15.799 4.472 C 14.882 5.017,12.421 6.566,12.145 6.770 C 12.077 6.821,12.116 6.855,12.625 7.186 C 13.483 7.743,15.908 9.253,16.214 9.421 L 16.487 9.571 16.634 9.502 C 17.057 9.301,20.833 6.948,20.896 6.846 C 20.928 6.795,20.572 6.560,18.540 5.292 C 16.700 4.144,16.593 4.080,16.515 4.080 C 16.484 4.080,16.161 4.256,15.799 4.472 M16.000 9.936 C 15.747 10.096,14.946 10.602,14.220 11.059 C 12.625 12.065,12.120 12.398,12.120 12.444 C 12.120 12.500,14.872 14.278,16.129 15.034 L 16.477 15.244 16.609 15.176 C 16.995 14.977,20.736 12.638,20.854 12.522 C 20.926 12.451,20.917 12.442,20.534 12.190 C 20.116 11.914,16.944 9.926,16.640 9.749 L 16.460 9.644 16.000 9.936 M11.455 13.726 C 10.876 14.075,9.089 15.185,8.229 15.731 C 7.881 15.952,7.603 16.152,7.610 16.176 C 7.631 16.249,9.840 17.681,11.686 18.818 L 11.993 19.007 13.506 18.056 C 15.478 16.818,16.408 16.205,16.381 16.162 C 16.316 16.056,12.111 13.440,12.007 13.440 C 11.965 13.440,11.717 13.569,11.455 13.726 " fill="#373B4D" stroke="none" fill-rule="evenodd"></path></svg>