<svg width="24" height="24" viewBox="0 0 24 24" fill="none" xmlns="http://www.w3.org/2000/svg"><path d="M5.299 5.386 C 4.090 6.144,3.078 6.777,3.051 6.793 C 3.020 6.811,3.544 7.160,4.411 7.699 C 6.329 8.892,7.112 9.389,7.292 9.531 L 7.444 9.650 7.312 9.740 C 7.239 9.789,6.476 10.271,5.615 10.810 C 3.512 12.130,3.078 12.413,3.093 12.459 C 3.115 12.524,7.340 15.193,7.474 15.226 C 7.511 15.235,8.040 14.933,8.671 14.544 C 10.692 13.296,11.959 12.500,11.959 12.480 C 11.958 12.448,11.237 11.983,9.352 10.800 C 8.379 10.190,7.577 9.672,7.570 9.651 C 7.563 9.629,7.967 9.354,8.469 9.039 C 11.945 6.856,11.974 6.837,11.910 6.774 C 11.866 6.731,7.725 4.128,7.561 4.041 C 7.515 4.016,6.916 4.372,5.299 5.386 M15.776 4.472 C 14.565 5.202,12.080 6.781,12.080 6.820 C 12.080 6.861,16.047 9.355,16.429 9.555 C 16.509 9.597,16.611 9.545,17.409 9.055 C 19.017 8.069,20.916 6.879,20.938 6.843 C 20.950 6.824,20.748 6.674,20.490 6.510 C 19.097 5.625,16.551 4.040,16.524 4.040 C 16.507 4.040,16.170 4.234,15.776 4.472 M15.060 10.525 C 12.516 12.125,12.077 12.410,12.090 12.450 C 12.110 12.511,16.263 15.150,16.455 15.224 C 16.524 15.250,16.642 15.179,19.288 13.532 C 20.184 12.975,20.926 12.502,20.939 12.482 C 20.951 12.462,20.650 12.249,20.270 12.008 C 19.284 11.383,16.485 9.640,16.471 9.642 C 16.465 9.643,15.830 10.041,15.060 10.525 M11.117 13.923 C 9.653 14.817,7.560 16.139,7.560 16.168 C 7.560 16.184,7.799 16.354,8.090 16.545 C 8.548 16.846,11.508 18.714,11.866 18.928 L 11.992 19.003 13.706 17.928 C 15.848 16.584,16.442 16.196,16.417 16.155 C 16.391 16.112,12.048 13.400,12.006 13.400 C 11.988 13.400,11.588 13.636,11.117 13.923 " fill="#373B4D" stroke="none" fill-rule="evenodd"></path></svg>