<svg width="24" height="24" viewBox="0 0 24 24" fill="none" xmlns="http://www.w3.org/2000/svg"><path d="M6.780 4.475 C 5.607 5.183,3.101 6.759,3.088 6.798 C 3.071 6.848,3.428 7.084,5.183 8.183 C 6.725 9.147,7.377 9.571,7.415 9.632 C 7.426 9.650,7.022 9.925,6.517 10.243 C 4.785 11.332,3.420 12.201,3.249 12.324 L 3.078 12.447 3.169 12.518 C 3.376 12.680,6.594 14.719,7.228 15.090 L 7.477 15.236 7.703 15.115 C 8.131 14.886,11.620 12.730,11.840 12.557 L 11.940 12.479 11.843 12.397 C 11.789 12.352,11.313 12.042,10.785 11.708 C 8.363 10.175,7.624 9.697,7.611 9.656 C 7.595 9.605,8.036 9.313,9.900 8.139 C 11.379 7.208,11.920 6.852,11.920 6.809 C 11.920 6.775,11.360 6.416,9.154 5.034 C 8.282 4.487,7.553 4.040,7.534 4.040 C 7.515 4.041,7.176 4.236,6.780 4.475 M15.720 4.512 C 14.479 5.262,12.080 6.783,12.080 6.820 C 12.080 6.841,13.023 7.445,14.400 8.307 C 16.057 9.344,16.416 9.560,16.486 9.560 C 16.573 9.560,16.850 9.401,18.030 8.674 C 19.783 7.593,20.920 6.870,20.920 6.835 C 20.920 6.817,20.790 6.715,20.630 6.607 C 20.268 6.364,16.621 4.085,16.551 4.059 C 16.523 4.049,16.149 4.252,15.720 4.512 M14.680 10.766 C 12.489 12.146,12.120 12.387,12.120 12.438 C 12.120 12.460,12.278 12.584,12.470 12.713 C 12.941 13.029,15.334 14.550,15.971 14.938 L 16.483 15.249 16.811 15.058 C 17.193 14.837,19.859 13.184,20.490 12.777 C 20.726 12.625,20.920 12.487,20.920 12.471 C 20.920 12.455,20.762 12.337,20.570 12.208 C 20.223 11.975,16.985 9.949,16.640 9.749 L 16.460 9.645 14.680 10.766 M11.740 13.548 C 9.900 14.670,7.699 16.049,7.608 16.137 C 7.566 16.177,7.642 16.244,8.008 16.487 C 8.407 16.753,11.094 18.455,11.746 18.855 L 11.992 19.006 13.566 18.018 C 15.419 16.855,16.400 16.215,16.400 16.170 C 16.400 16.127,12.188 13.476,12.029 13.419 C 12.002 13.410,11.872 13.468,11.740 13.548 " fill="#373B4D" stroke="none" fill-rule="evenodd"></path></svg>