<svg width="24" height="24" viewBox="0 0 24 24" fill="none" xmlns="http://www.w3.org/2000/svg"><path d="M7.100 4.285 C 4.909 5.617,3.102 6.779,3.137 6.835 C 3.174 6.894,3.807 7.315,4.920 8.019 C 6.855 9.244,7.401 9.606,7.375 9.649 C 7.342 9.701,6.374 10.335,4.640 11.439 C 3.903 11.908,3.250 12.327,3.189 12.369 L 3.078 12.447 3.169 12.518 C 3.365 12.670,7.110 15.045,7.392 15.196 C 7.500 15.254,7.427 15.292,8.780 14.468 C 10.185 13.611,11.647 12.695,11.775 12.590 C 11.885 12.500,11.887 12.492,11.819 12.425 C 11.723 12.328,11.233 12.002,10.100 11.280 C 8.784 10.441,7.640 9.680,7.640 9.643 C 7.640 9.608,8.679 8.920,10.140 7.988 C 11.334 7.226,11.850 6.877,11.867 6.820 C 11.874 6.798,11.668 6.642,11.410 6.474 C 10.325 5.768,7.651 4.095,7.548 4.059 C 7.522 4.050,7.320 4.152,7.100 4.285 M16.378 4.157 C 15.983 4.335,12.123 6.736,12.121 6.805 C 12.119 6.852,12.372 7.023,13.480 7.727 C 15.018 8.705,16.150 9.399,16.352 9.489 L 16.523 9.565 16.792 9.416 C 17.493 9.026,20.303 7.273,20.671 6.995 C 20.787 6.907,20.873 6.820,20.861 6.802 C 20.803 6.707,17.155 4.406,16.647 4.144 C 16.548 4.092,16.518 4.094,16.378 4.157 M14.739 10.735 C 12.966 11.859,12.182 12.371,12.144 12.433 C 12.112 12.485,14.694 14.174,16.029 14.974 L 16.477 15.243 16.607 15.176 C 17.019 14.963,19.705 13.285,20.490 12.750 C 20.683 12.619,20.839 12.491,20.838 12.466 C 20.837 12.441,20.787 12.382,20.728 12.336 C 20.562 12.207,17.369 10.190,16.599 9.729 L 16.459 9.645 14.739 10.735 M11.638 13.634 C 10.585 14.238,7.600 16.119,7.600 16.179 C 7.600 16.207,9.104 17.195,10.320 17.966 C 11.691 18.836,11.896 18.960,11.967 18.960 C 12.058 18.960,12.613 18.627,14.120 17.668 C 15.714 16.655,16.332 16.239,16.334 16.180 C 16.336 16.127,15.953 15.864,14.980 15.249 C 14.083 14.683,12.037 13.440,12.000 13.440 C 11.987 13.440,11.824 13.527,11.638 13.634 " fill="#373B4D" stroke="none" fill-rule="evenodd"></path></svg>