<svg width="24" height="24" viewBox="0 0 24 24" fill="none" xmlns="http://www.w3.org/2000/svg"><path d="M6.660 4.553 C 4.592 5.813,3.117 6.761,3.133 6.820 C 3.151 6.882,3.709 7.255,5.000 8.069 C 5.649 8.478,6.456 8.992,6.793 9.212 L 7.406 9.612 7.313 9.704 C 7.262 9.754,6.338 10.356,5.260 11.042 C 4.182 11.728,3.250 12.325,3.189 12.368 L 3.078 12.447 3.169 12.518 C 3.344 12.656,6.456 14.631,7.230 15.096 L 7.480 15.246 7.710 15.115 C 8.032 14.933,10.978 13.121,11.445 12.818 C 11.656 12.681,11.844 12.546,11.862 12.517 C 11.909 12.441,11.768 12.339,10.512 11.542 C 8.848 10.485,7.640 9.688,7.640 9.647 C 7.640 9.594,8.044 9.323,9.560 8.359 C 11.466 7.147,11.932 6.836,11.894 6.801 C 11.705 6.631,7.586 4.036,7.513 4.041 C 7.506 4.041,7.122 4.272,6.660 4.553 M16.220 4.233 C 15.682 4.528,12.491 6.513,12.180 6.745 C 12.101 6.804,12.101 6.806,12.207 6.898 C 12.396 7.062,15.930 9.281,16.319 9.479 C 16.414 9.528,16.518 9.553,16.563 9.539 C 16.721 9.489,19.125 8.015,20.332 7.229 C 20.635 7.031,20.877 6.849,20.869 6.825 C 20.846 6.757,20.525 6.540,19.320 5.783 C 17.721 4.777,16.631 4.110,16.561 4.093 C 16.528 4.085,16.374 4.148,16.220 4.233 M14.720 10.744 C 12.858 11.920,12.120 12.402,12.120 12.443 C 12.120 12.495,14.891 14.290,16.032 14.976 L 16.485 15.248 16.812 15.058 C 18.022 14.357,20.860 12.546,20.860 12.475 C 20.860 12.446,20.749 12.345,20.613 12.251 C 20.376 12.085,17.000 9.960,16.637 9.748 L 16.460 9.645 14.720 10.744 M11.696 13.596 C 11.150 13.894,7.934 15.903,7.706 16.090 L 7.592 16.183 8.066 16.506 C 8.788 16.998,11.601 18.790,11.911 18.955 C 11.995 19.000,12.102 18.941,13.182 18.262 C 15.441 16.840,16.323 16.259,16.349 16.175 C 16.364 16.129,15.824 15.772,14.360 14.859 C 13.356 14.233,12.040 13.440,12.006 13.441 C 11.992 13.441,11.852 13.511,11.696 13.596 " fill="#373B4D" stroke="none" fill-rule="evenodd"></path></svg>