<svg width="24" height="24" viewBox="0 0 24 24" fill="none" xmlns="http://www.w3.org/2000/svg"><path d="M5.379 5.333 C 4.212 6.063,3.200 6.697,3.130 6.741 L 3.003 6.822 5.244 8.217 C 7.039 9.333,7.475 9.621,7.433 9.660 C 7.404 9.686,6.403 10.318,5.210 11.063 C 4.016 11.808,3.044 12.432,3.050 12.449 C 3.064 12.491,7.448 15.251,7.502 15.252 C 7.537 15.253,11.878 12.560,11.972 12.480 C 11.990 12.464,10.996 11.824,9.764 11.056 C 8.531 10.288,7.523 9.651,7.523 9.640 C 7.523 9.629,8.531 8.992,9.764 8.224 C 10.996 7.456,11.990 6.816,11.972 6.800 C 11.937 6.770,7.818 4.191,7.620 4.076 L 7.500 4.006 5.379 5.333 M14.284 5.391 C 13.069 6.155,12.074 6.797,12.073 6.818 C 12.069 6.861,16.431 9.594,16.508 9.598 C 16.543 9.599,20.909 6.896,20.988 6.825 C 20.994 6.819,16.812 4.193,16.540 4.031 C 16.512 4.015,15.589 4.571,14.284 5.391 M14.251 11.034 C 13.036 11.796,12.042 12.429,12.041 12.440 C 12.040 12.471,16.450 15.254,16.498 15.252 C 16.529 15.251,20.934 12.516,20.989 12.464 C 21.001 12.453,16.501 9.639,16.479 9.644 C 16.468 9.647,15.466 10.272,14.251 11.034 M9.780 14.747 C 8.570 15.505,7.558 16.138,7.531 16.154 C 7.502 16.170,8.386 16.748,9.735 17.593 L 11.988 19.004 14.236 17.596 C 15.473 16.822,16.470 16.176,16.452 16.161 C 16.423 16.136,12.113 13.442,12.020 13.391 C 11.998 13.379,10.990 13.989,9.780 14.747 " fill="#373B4D" stroke="none" fill-rule="evenodd"></path></svg>