<svg width="24" height="24" viewBox="0 0 24 24" fill="none" xmlns="http://www.w3.org/2000/svg"><path d="M7.960 3.723 C 6.534 3.740,5.404 3.770,5.272 3.794 C 5.012 3.842,4.794 3.968,4.507 4.235 C 4.259 4.465,3.871 4.982,3.716 5.287 L 3.600 5.518 3.600 9.582 L 3.600 13.646 3.744 13.933 C 4.034 14.512,4.514 15.075,4.870 15.255 C 5.065 15.353,5.798 15.600,5.895 15.600 C 5.927 15.600,5.960 15.537,5.974 15.450 C 5.988 15.367,5.999 13.207,6.000 10.650 L 6.000 6.000 10.800 6.000 L 15.600 6.000 15.600 5.890 C 15.599 5.700,15.334 5.001,15.176 4.771 C 14.998 4.514,14.638 4.185,14.210 3.890 L 13.905 3.680 12.163 3.687 C 11.204 3.690,9.313 3.707,7.960 3.723 M9.960 8.562 C 9.343 8.954,8.909 9.398,8.587 9.970 L 8.400 10.300 8.400 14.391 L 8.400 18.483 8.505 18.691 C 8.889 19.454,9.348 19.912,10.116 20.299 L 10.333 20.408 14.356 20.392 L 18.380 20.375 18.635 20.285 C 19.323 20.043,20.007 19.362,20.295 18.633 L 20.400 18.366 20.400 14.390 L 20.400 10.414 20.297 10.160 C 20.073 9.610,19.636 9.106,19.042 8.716 L 18.744 8.520 17.118 8.520 C 16.225 8.520,14.280 8.509,12.797 8.496 L 10.100 8.473 9.960 8.562 " fill="#373B4D" stroke="none" fill-rule="evenodd"></path></svg>