<svg width="24" height="24" viewBox="0 0 24 24" fill="none" xmlns="http://www.w3.org/2000/svg"><path d="M8.800 3.724 C 5.902 3.760,5.238 3.795,4.970 3.925 C 4.624 4.092,4.145 4.605,3.768 5.209 L 3.600 5.478 3.600 9.560 L 3.600 13.643 3.706 13.851 C 4.010 14.452,4.571 15.102,4.932 15.272 C 5.201 15.398,5.710 15.560,5.839 15.560 L 5.947 15.560 5.974 14.774 C 5.988 14.341,6.000 12.190,6.000 9.994 L 6.000 6.000 10.805 6.000 L 15.610 6.000 15.583 5.833 C 15.569 5.741,15.483 5.476,15.392 5.245 C 15.239 4.852,15.206 4.803,14.904 4.498 C 14.726 4.318,14.430 4.061,14.247 3.926 L 13.913 3.680 12.627 3.687 C 11.919 3.690,10.197 3.707,8.800 3.724 M9.790 8.691 C 9.287 9.042,8.735 9.666,8.466 10.188 C 8.406 10.304,8.400 10.686,8.400 14.399 L 8.400 18.482 8.516 18.711 C 8.834 19.341,9.459 19.966,10.089 20.284 L 10.318 20.400 14.332 20.400 L 18.346 20.400 18.600 20.297 C 19.271 20.024,19.910 19.416,20.265 18.711 L 20.400 18.442 20.400 14.400 L 20.400 10.358 20.265 10.089 C 20.000 9.564,19.597 9.125,18.997 8.709 L 18.740 8.530 14.410 8.510 L 10.080 8.489 9.790 8.691 " fill="#373B4D" stroke="none" fill-rule="evenodd"></path></svg>