<svg width="24" height="24" viewBox="0 0 24 24" fill="none" xmlns="http://www.w3.org/2000/svg"><path d="M6.640 3.638 C 5.626 3.658,5.391 3.674,5.247 3.731 C 4.507 4.021,4.014 4.514,3.735 5.240 L 3.620 5.540 3.620 9.560 C 3.620 13.350,3.624 13.594,3.694 13.820 C 3.868 14.387,4.264 14.917,4.747 15.226 C 4.993 15.384,5.451 15.543,5.770 15.581 L 6.000 15.609 6.000 10.805 L 6.000 6.000 10.805 6.000 L 15.609 6.000 15.581 5.770 C 15.543 5.451,15.384 4.993,15.226 4.747 C 14.932 4.288,14.342 3.837,13.840 3.688 C 13.671 3.638,8.450 3.602,6.640 3.638 M10.880 8.440 C 10.250 8.462,10.155 8.475,9.933 8.568 C 9.274 8.845,8.736 9.421,8.517 10.085 L 8.420 10.380 8.420 14.400 L 8.420 18.420 8.517 18.715 C 8.751 19.425,9.375 20.049,10.085 20.283 L 10.380 20.380 14.400 20.380 L 18.420 20.380 18.715 20.283 C 19.425 20.049,20.049 19.425,20.283 18.715 L 20.380 18.420 20.380 14.400 L 20.380 10.380 20.283 10.085 C 20.057 9.400,19.449 8.774,18.780 8.538 C 18.632 8.486,18.381 8.459,17.820 8.437 C 16.924 8.401,11.890 8.403,10.880 8.440 " fill="#373B4D" stroke="none" fill-rule="evenodd"></path></svg>