<svg width="24" height="24" viewBox="0 0 24 24" fill="none" xmlns="http://www.w3.org/2000/svg"><path d="M7.020 3.720 C 5.813 3.737,5.225 3.760,5.149 3.792 C 4.619 4.016,4.070 4.586,3.725 5.269 L 3.600 5.518 3.600 9.574 L 3.600 13.630 3.703 13.862 C 3.930 14.377,4.445 15.027,4.776 15.218 C 4.987 15.340,5.573 15.545,5.813 15.581 L 6.000 15.609 6.000 10.805 L 6.000 6.000 10.800 6.000 L 15.600 6.000 15.600 5.909 C 15.600 5.756,15.446 5.253,15.313 4.971 C 15.153 4.633,14.778 4.255,14.273 3.922 L 13.906 3.680 11.343 3.688 C 9.933 3.692,7.988 3.707,7.020 3.720 M9.856 8.633 C 9.247 8.998,8.902 9.362,8.582 9.974 L 8.400 10.322 8.400 14.402 L 8.400 18.482 8.525 18.731 C 8.921 19.515,9.334 19.924,10.097 20.285 L 10.340 20.400 14.140 20.400 C 16.321 20.400,18.083 20.383,18.276 20.361 C 18.682 20.314,18.994 20.177,19.360 19.886 C 19.843 19.500,20.101 19.153,20.305 18.612 L 20.400 18.358 20.399 14.389 L 20.397 10.420 20.283 10.130 C 20.220 9.971,20.111 9.751,20.041 9.641 C 19.871 9.376,19.313 8.855,19.009 8.677 L 18.764 8.533 16.092 8.507 C 14.622 8.492,12.673 8.482,11.760 8.483 L 10.100 8.487 9.856 8.633 " fill="#373B4D" stroke="none" fill-rule="evenodd"></path></svg>