<svg width="24" height="24" viewBox="0 0 24 24" fill="none" xmlns="http://www.w3.org/2000/svg"><path d="M9.220 3.722 C 5.832 3.763,5.242 3.797,4.908 3.965 C 4.664 4.089,4.180 4.599,3.869 5.060 L 3.600 5.460 3.600 9.551 L 3.600 13.642 3.716 13.871 C 3.993 14.415,4.572 15.083,4.920 15.259 C 5.139 15.370,5.729 15.560,5.856 15.560 C 5.946 15.560,5.948 15.552,5.974 14.930 C 5.988 14.583,6.000 12.433,6.000 10.150 L 6.000 6.000 10.800 6.000 C 15.492 6.000,15.600 5.998,15.600 5.924 C 15.600 5.769,15.310 5.013,15.174 4.811 C 15.022 4.588,14.630 4.220,14.188 3.886 L 13.916 3.680 12.728 3.687 C 12.075 3.690,10.496 3.706,9.220 3.722 M9.866 8.635 C 9.570 8.831,8.849 9.573,8.642 9.893 C 8.536 10.059,8.454 10.240,8.436 10.353 C 8.419 10.456,8.404 12.331,8.402 14.520 L 8.400 18.500 8.590 18.840 C 8.855 19.315,9.485 19.945,9.960 20.210 L 10.300 20.400 14.334 20.400 L 18.368 20.400 18.694 20.246 C 19.377 19.924,19.930 19.373,20.294 18.651 L 20.400 18.443 20.400 14.396 L 20.400 10.349 20.234 10.039 C 19.975 9.553,19.570 9.119,18.989 8.706 L 18.740 8.528 14.406 8.514 L 10.071 8.499 9.866 8.635 " fill="#373B4D" stroke="none" fill-rule="evenodd"></path></svg>