<svg width="24" height="24" viewBox="0 0 24 24" fill="none" xmlns="http://www.w3.org/2000/svg"><path d="M5.434 3.720 C 4.806 3.800,4.022 4.529,3.706 5.327 L 3.600 5.594 3.600 9.607 L 3.601 13.620 3.732 13.920 C 3.963 14.449,4.330 14.918,4.727 15.191 C 4.929 15.330,5.524 15.546,5.817 15.586 L 6.000 15.611 6.000 10.805 L 6.000 6.000 10.800 6.000 L 15.600 6.000 15.600 5.904 C 15.600 5.761,15.411 5.128,15.298 4.895 C 15.165 4.619,14.620 4.101,14.216 3.866 L 13.900 3.681 9.780 3.686 C 7.514 3.688,5.558 3.704,5.434 3.720 M9.857 8.637 C 9.230 8.952,8.810 9.410,8.527 10.089 L 8.399 10.397 8.409 14.449 L 8.420 18.500 8.589 18.853 C 8.926 19.558,9.366 19.975,10.087 20.273 L 10.394 20.400 14.370 20.400 L 18.346 20.400 18.639 20.300 C 19.004 20.176,19.268 20.011,19.595 19.701 C 19.926 19.387,20.141 19.067,20.284 18.675 L 20.400 18.358 20.400 14.406 L 20.400 10.454 20.300 10.160 C 20.093 9.551,19.556 8.941,18.977 8.654 L 18.664 8.500 14.419 8.489 L 10.174 8.478 9.857 8.637 " fill="#373B4D" stroke="none" fill-rule="evenodd"></path></svg>