<svg width="24" height="24" viewBox="0 0 24 24" fill="none" xmlns="http://www.w3.org/2000/svg"><path d="M6.220 3.718 C 5.353 3.738,5.242 3.748,5.080 3.824 C 4.577 4.060,4.075 4.578,3.787 5.157 L 3.620 5.494 3.609 9.562 L 3.599 13.630 3.717 13.893 C 3.960 14.436,4.424 15.013,4.788 15.227 C 4.992 15.347,5.595 15.555,5.829 15.587 L 6.000 15.611 6.000 10.805 L 6.000 6.000 10.805 6.000 L 15.611 6.000 15.587 5.830 C 15.536 5.458,15.320 4.901,15.138 4.668 C 14.926 4.398,14.519 4.053,14.158 3.837 L 13.895 3.680 10.538 3.688 C 8.691 3.693,6.748 3.706,6.220 3.718 M9.800 8.665 C 9.286 8.956,8.873 9.388,8.619 9.900 L 8.420 10.300 8.409 14.387 L 8.399 18.474 8.600 18.867 C 8.937 19.527,9.291 19.882,9.920 20.192 L 10.300 20.380 14.318 20.391 C 18.787 20.402,18.449 20.421,19.017 20.126 C 19.333 19.963,19.840 19.492,20.036 19.182 C 20.104 19.073,20.214 18.844,20.280 18.673 L 20.400 18.363 20.400 14.403 L 20.400 10.444 20.305 10.182 C 20.253 10.038,20.149 9.817,20.075 9.691 C 19.876 9.353,19.396 8.892,19.029 8.685 L 18.719 8.510 14.429 8.492 L 10.140 8.473 9.800 8.665 " fill="#373B4D" stroke="none" fill-rule="evenodd"></path></svg>