<svg width="24" height="24" viewBox="0 0 24 24" fill="none" xmlns="http://www.w3.org/2000/svg"><path d="M9.380 3.722 C 6.162 3.763,5.295 3.805,4.984 3.936 C 4.696 4.058,4.215 4.555,3.817 5.140 L 3.600 5.460 3.600 9.551 L 3.600 13.642 3.718 13.876 C 3.882 14.201,4.268 14.702,4.576 14.990 C 4.777 15.179,4.903 15.258,5.147 15.351 C 5.540 15.501,5.869 15.584,5.909 15.544 C 5.978 15.476,5.993 14.588,5.996 10.391 L 6.000 6.002 10.777 5.991 C 13.404 5.985,15.567 5.966,15.584 5.949 C 15.623 5.910,15.470 5.431,15.301 5.060 C 15.152 4.734,14.884 4.444,14.307 3.984 L 13.924 3.680 12.792 3.687 C 12.170 3.690,10.634 3.706,9.380 3.722 M9.900 8.610 C 9.425 8.954,8.731 9.709,8.548 10.079 L 8.420 10.338 8.408 14.426 L 8.396 18.513 8.568 18.800 C 8.918 19.384,9.533 19.985,10.080 20.277 L 10.311 20.400 14.334 20.400 L 18.358 20.400 18.574 20.304 C 18.855 20.180,19.206 19.954,19.472 19.728 C 19.724 19.513,20.118 19.002,20.282 18.676 L 20.400 18.442 20.400 14.391 L 20.400 10.340 20.210 10.003 C 19.979 9.593,19.553 9.130,19.085 8.780 L 18.740 8.522 14.380 8.522 L 10.020 8.523 9.900 8.610 " fill="#373B4D" stroke="none" fill-rule="evenodd"></path></svg>