<svg width="24" height="24" viewBox="0 0 24 24" fill="none" xmlns="http://www.w3.org/2000/svg"><path d="M7.580 3.721 C 6.092 3.740,5.284 3.764,5.174 3.795 C 4.729 3.918,4.059 4.609,3.705 5.309 L 3.600 5.517 3.600 9.574 L 3.600 13.630 3.696 13.845 C 3.852 14.195,4.192 14.682,4.475 14.960 C 4.698 15.179,4.794 15.242,5.080 15.352 C 5.438 15.490,5.812 15.599,5.930 15.600 C 5.996 15.600,6.000 15.345,6.000 10.800 L 6.000 6.000 10.800 6.000 L 15.600 6.000 15.600 5.902 C 15.600 5.753,15.406 5.167,15.274 4.917 C 15.123 4.631,14.715 4.230,14.263 3.923 L 13.905 3.680 11.863 3.687 C 10.739 3.691,8.812 3.706,7.580 3.721 M9.736 8.714 C 9.261 9.029,8.878 9.442,8.610 9.926 L 8.400 10.305 8.401 14.402 L 8.401 18.500 8.576 18.826 C 8.938 19.500,9.308 19.872,9.957 20.214 L 10.319 20.405 14.349 20.391 C 18.378 20.377,18.380 20.377,18.640 20.289 C 18.971 20.178,19.307 19.953,19.651 19.615 C 19.956 19.314,20.154 19.013,20.300 18.624 L 20.400 18.358 20.400 14.383 L 20.400 10.408 20.260 10.073 C 20.180 9.881,20.034 9.633,19.919 9.491 C 19.686 9.203,19.228 8.805,18.940 8.641 L 18.740 8.527 14.420 8.500 L 10.100 8.472 9.736 8.714 " fill="#373B4D" stroke="none" fill-rule="evenodd"></path></svg>