<svg width="24" height="24" viewBox="0 0 24 24" fill="none" xmlns="http://www.w3.org/2000/svg"><path d="M10.380 2.584 C 9.146 2.805,7.814 3.332,6.818 3.994 C 5.607 4.798,4.441 6.012,3.731 7.210 C 3.095 8.282,2.595 9.799,2.477 11.017 C 2.416 11.644,2.450 13.022,2.538 13.500 C 2.834 15.098,3.464 16.562,4.384 17.783 C 4.692 18.193,5.413 18.941,5.860 19.314 C 6.955 20.230,8.796 21.132,10.113 21.398 C 10.966 21.570,12.647 21.601,13.520 21.460 C 14.869 21.242,16.569 20.504,17.751 19.625 C 18.512 19.058,19.458 18.066,19.930 17.340 C 20.536 16.406,21.175 14.903,21.408 13.860 C 21.477 13.553,21.492 13.309,21.509 12.193 C 21.531 10.702,21.515 10.522,21.278 9.660 C 20.383 6.398,18.040 3.934,14.858 2.907 C 14.259 2.714,13.727 2.612,13.060 2.562 C 12.253 2.502,10.772 2.514,10.380 2.584 M8.954 8.623 C 9.135 8.738,9.284 8.893,9.372 9.060 C 9.484 9.272,9.495 9.948,9.390 10.145 C 9.179 10.540,8.870 10.719,8.398 10.720 C 7.894 10.720,7.603 10.528,7.395 10.058 C 7.276 9.789,7.268 9.326,7.379 9.101 C 7.475 8.907,7.723 8.653,7.893 8.575 C 8.070 8.495,8.803 8.528,8.954 8.623 M16.154 8.623 C 16.335 8.738,16.484 8.893,16.572 9.060 C 16.684 9.272,16.695 9.948,16.590 10.145 C 16.379 10.540,16.070 10.719,15.598 10.720 C 15.094 10.720,14.803 10.528,14.595 10.058 C 14.476 9.789,14.468 9.326,14.579 9.101 C 14.675 8.907,14.923 8.653,15.093 8.575 C 15.270 8.495,16.003 8.528,16.154 8.623 M8.752 14.320 C 9.025 14.356,9.091 14.386,9.732 14.774 C 10.966 15.520,11.012 15.535,11.980 15.536 C 12.996 15.536,13.159 15.479,14.345 14.700 L 14.924 14.320 15.339 14.320 C 15.829 14.320,15.923 14.349,16.153 14.572 C 16.422 14.833,16.458 14.925,16.459 15.360 C 16.460 15.844,16.379 16.014,15.962 16.414 C 15.205 17.136,13.997 17.723,12.901 17.901 C 12.479 17.970,11.721 17.978,11.239 17.918 C 10.239 17.796,8.990 17.253,8.312 16.646 C 7.704 16.102,7.522 15.821,7.521 15.417 C 7.520 15.071,7.615 14.831,7.855 14.573 C 8.121 14.288,8.241 14.254,8.752 14.320 " fill="#373B4D" stroke="none" fill-rule="evenodd"></path></svg>