<svg width="24" height="24" viewBox="0 0 24 24" fill="none" xmlns="http://www.w3.org/2000/svg"><path d="M10.760 2.522 C 10.374 2.561,9.778 2.692,9.213 2.863 C 7.699 3.321,6.431 4.086,5.278 5.239 C 4.146 6.370,3.447 7.473,2.937 8.932 C 2.589 9.928,2.429 10.874,2.427 11.940 C 2.425 12.966,2.541 13.773,2.827 14.720 C 3.603 17.286,5.348 19.360,7.722 20.537 C 8.525 20.935,9.507 21.288,10.181 21.420 C 10.954 21.572,12.804 21.593,13.592 21.458 C 14.060 21.378,14.717 21.191,15.300 20.971 C 17.069 20.304,18.595 19.166,19.682 17.700 C 20.542 16.540,21.320 14.686,21.487 13.400 C 21.553 12.883,21.554 11.041,21.487 10.580 C 21.355 9.662,20.930 8.407,20.452 7.520 C 19.135 5.077,16.774 3.289,14.060 2.676 C 13.604 2.573,13.417 2.554,12.540 2.521 C 11.413 2.478,11.186 2.478,10.760 2.522 M8.842 8.561 C 9.054 8.618,9.295 8.845,9.401 9.088 C 9.527 9.376,9.533 9.860,9.415 10.120 C 9.189 10.618,8.618 10.864,8.062 10.702 C 7.751 10.612,7.448 10.316,7.349 10.005 C 7.272 9.766,7.260 9.414,7.320 9.197 C 7.392 8.939,7.755 8.583,8.015 8.516 C 8.159 8.479,8.633 8.504,8.842 8.561 M16.042 8.561 C 16.254 8.618,16.495 8.845,16.601 9.088 C 16.727 9.376,16.733 9.860,16.615 10.120 C 16.389 10.618,15.818 10.864,15.262 10.702 C 14.951 10.612,14.648 10.316,14.549 10.005 C 14.472 9.766,14.460 9.414,14.520 9.197 C 14.592 8.939,14.955 8.583,15.215 8.516 C 15.359 8.479,15.833 8.504,16.042 8.561 M9.180 14.426 C 9.290 14.492,9.631 14.705,9.937 14.899 C 10.856 15.480,11.103 15.559,12.000 15.559 C 12.940 15.559,13.186 15.471,14.264 14.756 L 14.919 14.322 15.290 14.296 C 15.620 14.272,15.684 14.279,15.870 14.359 C 16.115 14.465,16.367 14.722,16.443 14.943 C 16.472 15.030,16.496 15.235,16.495 15.400 C 16.492 15.876,16.287 16.203,15.708 16.655 C 14.886 17.295,13.907 17.744,12.982 17.906 C 12.520 17.987,11.261 17.961,10.786 17.861 C 10.115 17.720,9.062 17.246,8.537 16.849 C 8.152 16.557,7.714 16.104,7.598 15.875 C 7.345 15.380,7.559 14.682,8.057 14.376 C 8.207 14.284,8.250 14.277,8.600 14.291 C 8.937 14.304,9.002 14.319,9.180 14.426 " fill="#373B4D" stroke="none" fill-rule="evenodd"></path></svg>