<svg width="24" height="24" viewBox="0 0 24 24" fill="none" xmlns="http://www.w3.org/2000/svg"><path d="M10.660 2.601 C 9.835 2.654,8.901 2.934,7.932 3.419 C 6.915 3.928,6.190 4.422,5.524 5.059 C 4.210 6.315,3.506 7.395,2.955 8.996 C 2.612 9.992,2.499 10.606,2.456 11.693 C 2.402 13.057,2.604 14.186,3.137 15.514 C 3.660 16.813,4.230 17.672,5.239 18.681 C 6.113 19.556,6.684 19.967,7.781 20.513 C 8.654 20.948,9.091 21.124,9.682 21.279 C 10.454 21.481,11.004 21.530,12.289 21.509 C 13.385 21.492,13.435 21.487,13.920 21.369 C 16.834 20.654,19.188 18.870,20.433 16.434 C 20.676 15.959,21.082 14.964,21.239 14.460 C 21.392 13.967,21.438 13.640,21.487 12.712 C 21.590 10.728,21.434 9.797,20.732 8.201 C 19.765 6.002,18.098 4.338,15.838 3.317 C 14.934 2.909,14.057 2.676,13.140 2.601 C 12.607 2.557,11.338 2.557,10.660 2.601 M8.737 8.598 C 8.953 8.649,9.202 8.832,9.309 9.022 C 9.388 9.160,9.399 9.238,9.399 9.644 L 9.400 10.108 9.261 10.291 C 9.102 10.499,8.778 10.679,8.505 10.710 C 8.098 10.755,7.642 10.496,7.448 10.108 C 7.376 9.963,7.360 9.863,7.360 9.552 C 7.360 9.196,7.367 9.163,7.484 8.987 C 7.609 8.798,7.754 8.671,7.926 8.603 C 8.047 8.554,8.535 8.551,8.737 8.598 M16.179 8.697 C 16.291 8.763,16.413 8.881,16.483 8.991 C 16.595 9.168,16.600 9.195,16.600 9.642 L 16.600 10.108 16.465 10.285 C 16.090 10.777,15.350 10.850,14.905 10.441 C 14.635 10.191,14.560 9.999,14.560 9.552 C 14.560 9.196,14.567 9.163,14.684 8.987 C 14.916 8.636,15.096 8.555,15.606 8.574 C 15.940 8.586,16.017 8.602,16.179 8.697 M13.020 13.438 C 13.623 13.478,13.861 13.551,14.620 13.930 C 15.291 14.264,15.597 14.477,16.070 14.935 L 16.480 15.332 16.480 15.823 L 16.480 16.313 16.234 16.536 C 15.796 16.932,15.485 17.011,15.032 16.841 C 14.907 16.794,14.414 16.532,13.937 16.258 L 13.070 15.760 12.000 15.760 L 10.930 15.760 10.063 16.258 C 9.586 16.532,9.093 16.794,8.968 16.841 C 8.515 17.011,8.204 16.932,7.766 16.536 C 7.486 16.283,7.483 16.270,7.562 15.646 C 7.614 15.227,7.706 15.081,8.137 14.734 C 8.902 14.119,10.051 13.529,10.655 13.440 C 10.942 13.398,12.398 13.397,13.020 13.438 " fill="#373B4D" stroke="none" fill-rule="evenodd"></path></svg>