<svg width="24" height="24" viewBox="0 0 24 24" fill="none" xmlns="http://www.w3.org/2000/svg"><path d="M10.660 2.601 C 9.835 2.654,8.901 2.934,7.932 3.419 C 6.915 3.928,6.190 4.422,5.524 5.059 C 4.210 6.315,3.506 7.395,2.955 8.996 C 2.612 9.992,2.499 10.606,2.456 11.693 C 2.402 13.057,2.604 14.186,3.137 15.514 C 3.660 16.813,4.230 17.672,5.239 18.681 C 6.113 19.556,6.684 19.967,7.781 20.513 C 8.654 20.948,9.091 21.124,9.682 21.279 C 10.454 21.481,11.004 21.530,12.289 21.509 C 13.385 21.492,13.435 21.487,13.920 21.369 C 16.834 20.654,19.188 18.870,20.433 16.434 C 20.676 15.959,21.082 14.964,21.239 14.460 C 21.392 13.967,21.438 13.640,21.487 12.712 C 21.590 10.728,21.434 9.797,20.732 8.201 C 19.765 6.002,18.098 4.338,15.838 3.317 C 14.934 2.909,14.057 2.676,13.140 2.601 C 12.607 2.557,11.338 2.557,10.660 2.601 M8.737 8.598 C 8.953 8.649,9.202 8.832,9.309 9.022 C 9.388 9.160,9.399 9.238,9.399 9.644 L 9.400 10.108 9.261 10.291 C 9.102 10.499,8.778 10.679,8.505 10.710 C 8.098 10.755,7.642 10.496,7.448 10.108 C 7.376 9.963,7.360 9.863,7.360 9.552 C 7.360 9.196,7.367 9.163,7.484 8.987 C 7.609 8.798,7.754 8.671,7.926 8.603 C 8.047 8.554,8.535 8.551,8.737 8.598 M16.179 8.697 C 16.291 8.763,16.413 8.881,16.483 8.991 C 16.595 9.168,16.600 9.195,16.600 9.642 L 16.600 10.108 16.465 10.285 C 16.090 10.777,15.350 10.850,14.905 10.441 C 14.635 10.191,14.560 9.999,14.560 9.552 C 14.560 9.196,14.567 9.163,14.684 8.987 C 14.916 8.636,15.096 8.555,15.606 8.574 C 15.940 8.586,16.017 8.602,16.179 8.697 M8.960 14.399 C 9.037 14.421,9.325 14.566,9.600 14.722 C 10.419 15.185,10.948 15.431,11.238 15.482 C 11.404 15.512,11.755 15.523,12.181 15.512 C 12.806 15.495,12.881 15.485,13.119 15.386 C 13.424 15.259,14.076 14.884,14.576 14.549 L 14.931 14.310 15.336 14.339 C 16.164 14.396,16.397 14.623,16.399 15.371 C 16.400 15.861,16.325 16.028,15.934 16.403 C 15.196 17.111,13.856 17.756,12.827 17.899 C 12.515 17.942,11.269 17.929,10.994 17.879 C 10.279 17.749,9.069 17.218,8.556 16.809 C 8.210 16.533,7.751 16.056,7.657 15.875 C 7.621 15.805,7.582 15.610,7.571 15.441 C 7.546 15.087,7.615 14.883,7.844 14.622 C 8.047 14.390,8.244 14.312,8.560 14.338 C 8.703 14.350,8.883 14.378,8.960 14.399 " fill="#373B4D" stroke="none" fill-rule="evenodd"></path></svg>