<svg width="24" height="24" viewBox="0 0 24 24" fill="none" xmlns="http://www.w3.org/2000/svg"><path d="M10.680 2.562 C 9.847 2.629,8.634 3.012,7.629 3.528 C 6.202 4.260,4.700 5.649,3.844 7.030 C 3.150 8.149,2.629 9.657,2.483 10.968 C 2.393 11.782,2.448 13.117,2.601 13.808 C 2.934 15.313,3.521 16.620,4.374 17.760 C 4.745 18.256,5.679 19.189,6.160 19.545 C 7.337 20.416,8.933 21.157,10.160 21.403 C 10.776 21.526,11.996 21.584,12.790 21.528 C 13.767 21.459,14.413 21.305,15.429 20.897 C 17.178 20.195,18.614 19.108,19.703 17.660 C 20.334 16.821,21.026 15.314,21.362 14.047 C 21.467 13.651,21.517 12.929,21.518 11.780 C 21.520 10.756,21.475 10.352,21.285 9.680 C 20.787 7.921,19.954 6.474,18.748 5.274 C 17.986 4.515,17.233 3.978,16.240 3.485 C 15.354 3.044,14.574 2.780,13.756 2.644 C 13.093 2.533,11.552 2.492,10.680 2.562 M8.909 8.603 C 9.065 8.663,9.351 8.981,9.397 9.146 C 9.459 9.370,9.451 9.976,9.384 10.138 C 9.292 10.358,9.031 10.588,8.795 10.658 C 8.199 10.835,7.680 10.632,7.431 10.124 C 7.300 9.858,7.280 9.314,7.393 9.096 C 7.515 8.860,7.808 8.594,7.988 8.557 C 8.162 8.521,8.773 8.552,8.909 8.603 M16.109 8.603 C 16.265 8.663,16.551 8.981,16.597 9.146 C 16.659 9.370,16.651 9.976,16.584 10.138 C 16.492 10.358,16.231 10.588,15.995 10.658 C 15.399 10.835,14.880 10.632,14.631 10.124 C 14.500 9.858,14.480 9.314,14.593 9.096 C 14.715 8.860,15.008 8.594,15.188 8.557 C 15.362 8.521,15.973 8.552,16.109 8.603 M13.080 13.402 C 13.604 13.456,13.995 13.581,14.608 13.892 C 15.422 14.304,15.878 14.640,16.286 15.132 L 16.480 15.364 16.480 15.831 L 16.480 16.297 16.206 16.565 C 15.991 16.776,15.886 16.847,15.719 16.897 C 15.287 17.025,15.168 16.982,13.954 16.268 L 13.091 15.760 12.000 15.760 L 10.909 15.760 10.046 16.268 C 8.832 16.982,8.713 17.025,8.281 16.897 C 8.114 16.847,8.009 16.776,7.794 16.565 L 7.520 16.297 7.520 15.970 C 7.520 15.791,7.540 15.549,7.565 15.432 C 7.605 15.244,7.647 15.184,7.935 14.897 C 8.318 14.518,8.758 14.217,9.420 13.886 C 10.368 13.411,10.563 13.367,11.766 13.363 C 12.264 13.361,12.855 13.379,13.080 13.402 " fill="#373B4D" stroke="none" fill-rule="evenodd"></path></svg>