<svg width="24" height="24" viewBox="0 0 24 24" fill="none" xmlns="http://www.w3.org/2000/svg"><path d="M10.800 2.560 C 9.246 2.685,7.471 3.441,6.040 4.585 C 5.599 4.937,4.771 5.770,4.440 6.194 C 3.480 7.422,2.855 8.853,2.533 10.560 C 2.444 11.034,2.431 12.733,2.513 13.300 C 2.652 14.269,3.083 15.571,3.565 16.480 C 3.987 17.275,4.415 17.854,5.100 18.555 C 6.022 19.499,6.625 19.943,7.760 20.518 C 9.182 21.237,10.130 21.486,11.668 21.544 C 12.869 21.589,13.772 21.467,14.800 21.121 C 16.055 20.698,17.043 20.168,18.000 19.405 C 19.520 18.193,20.455 16.796,21.163 14.680 C 21.468 13.769,21.494 13.558,21.497 12.000 C 21.500 10.529,21.486 10.391,21.255 9.591 C 20.689 7.634,19.633 5.982,18.143 4.724 C 16.822 3.609,14.953 2.773,13.400 2.604 C 12.865 2.546,11.301 2.519,10.800 2.560 M8.891 8.614 C 9.039 8.676,9.260 8.889,9.344 9.049 C 9.421 9.197,9.456 9.574,9.422 9.893 C 9.398 10.124,9.375 10.178,9.232 10.339 C 9.025 10.575,8.805 10.686,8.497 10.710 C 8.039 10.747,7.678 10.554,7.460 10.154 C 7.354 9.960,7.343 9.903,7.342 9.554 C 7.340 9.187,7.346 9.158,7.461 8.995 C 7.528 8.900,7.659 8.763,7.754 8.691 C 7.923 8.562,7.933 8.560,8.344 8.560 C 8.606 8.560,8.811 8.580,8.891 8.614 M16.091 8.614 C 16.239 8.676,16.460 8.889,16.544 9.049 C 16.621 9.197,16.656 9.574,16.622 9.893 C 16.598 10.124,16.575 10.178,16.432 10.339 C 16.225 10.575,16.005 10.686,15.697 10.710 C 15.239 10.747,14.878 10.554,14.660 10.154 C 14.554 9.960,14.543 9.903,14.542 9.554 C 14.540 9.187,14.546 9.158,14.661 8.995 C 14.728 8.900,14.859 8.763,14.954 8.691 C 15.123 8.562,15.133 8.560,15.544 8.560 C 15.806 8.560,16.011 8.580,16.091 8.614 M9.120 14.437 C 9.219 14.488,9.579 14.693,9.920 14.893 C 10.261 15.093,10.666 15.311,10.820 15.377 C 11.095 15.496,11.114 15.498,11.887 15.513 C 12.537 15.525,12.715 15.515,12.907 15.460 C 13.235 15.365,13.746 15.093,14.388 14.672 L 14.939 14.310 15.359 14.328 C 15.837 14.349,16.023 14.419,16.232 14.657 C 16.528 14.994,16.516 15.732,16.209 16.139 C 15.746 16.750,14.554 17.451,13.420 17.781 C 12.815 17.956,11.638 18.000,10.960 17.873 C 10.324 17.754,9.294 17.335,8.753 16.975 C 8.406 16.744,7.853 16.210,7.685 15.942 C 7.569 15.758,7.560 15.719,7.560 15.378 C 7.560 15.021,7.564 15.007,7.715 14.772 C 7.857 14.552,8.006 14.410,8.160 14.347 C 8.193 14.333,8.382 14.327,8.580 14.333 C 8.861 14.343,8.979 14.365,9.120 14.437 " fill="#373B4D" stroke="none" fill-rule="evenodd"></path></svg>