<svg width="24" height="24" viewBox="0 0 24 24" fill="none" xmlns="http://www.w3.org/2000/svg"><path d="M10.800 2.602 C 9.953 2.652,9.188 2.852,8.279 3.261 C 6.771 3.938,5.535 4.887,4.488 6.170 C 3.517 7.359,2.767 9.091,2.533 10.680 C 2.428 11.395,2.439 12.868,2.554 13.500 C 2.856 15.155,3.599 16.799,4.565 17.948 C 4.922 18.373,5.698 19.144,6.080 19.452 C 6.934 20.141,8.561 20.975,9.600 21.255 C 10.436 21.481,10.632 21.500,12.100 21.497 L 13.460 21.494 14.014 21.346 C 15.888 20.845,17.402 20.015,18.653 18.802 C 19.696 17.790,20.318 16.838,20.913 15.340 C 21.339 14.268,21.411 13.950,21.483 12.820 C 21.537 11.953,21.512 10.911,21.423 10.380 C 21.183 8.955,20.388 7.240,19.397 6.013 C 18.128 4.440,15.991 3.130,14.061 2.740 C 13.262 2.578,12.060 2.527,10.800 2.602 M8.904 8.672 C 9.122 8.783,9.312 8.986,9.360 9.158 C 9.382 9.236,9.400 9.482,9.400 9.704 C 9.400 10.083,9.393 10.116,9.290 10.249 C 9.050 10.560,8.612 10.755,8.270 10.704 C 8.031 10.668,7.700 10.468,7.559 10.273 C 7.399 10.051,7.350 9.846,7.366 9.461 C 7.378 9.174,7.394 9.119,7.504 8.970 C 7.757 8.625,7.920 8.556,8.422 8.577 C 8.646 8.586,8.793 8.615,8.904 8.672 M16.067 8.645 C 16.207 8.688,16.501 8.984,16.561 9.143 C 16.582 9.199,16.600 9.441,16.600 9.680 C 16.600 10.094,16.595 10.120,16.490 10.247 C 16.221 10.572,15.975 10.696,15.600 10.693 C 15.304 10.691,15.110 10.619,14.899 10.434 C 14.646 10.211,14.583 10.039,14.581 9.560 C 14.580 9.152,14.584 9.135,14.708 8.956 C 14.860 8.736,14.987 8.647,15.212 8.600 C 15.402 8.561,15.876 8.586,16.067 8.645 M8.962 14.421 C 9.063 14.452,9.430 14.633,9.778 14.823 C 10.126 15.014,10.584 15.244,10.796 15.335 L 11.180 15.500 12.020 15.498 C 12.801 15.496,12.875 15.490,13.080 15.405 C 13.379 15.281,13.926 14.970,14.478 14.610 L 14.936 14.312 15.278 14.338 C 15.987 14.393,16.270 14.556,16.357 14.961 C 16.418 15.248,16.410 15.590,16.337 15.838 C 16.174 16.388,14.975 17.235,13.765 17.656 C 13.066 17.900,12.830 17.931,11.827 17.912 L 10.940 17.896 10.391 17.710 C 9.800 17.509,9.158 17.213,8.791 16.971 C 8.481 16.767,7.991 16.318,7.798 16.062 C 7.518 15.692,7.488 15.142,7.727 14.781 C 8.011 14.353,8.381 14.245,8.962 14.421 " fill="#373B4D" stroke="none" fill-rule="evenodd"></path></svg>