<svg width="24" height="24" viewBox="0 0 24 24" fill="none" xmlns="http://www.w3.org/2000/svg"><path d="M11.000 2.463 C 8.701 2.737,6.759 3.671,5.175 5.265 C 2.751 7.704,1.820 11.347,2.781 14.634 C 3.551 17.270,5.288 19.358,7.732 20.586 C 8.548 20.996,9.533 21.315,10.507 21.484 C 10.943 21.559,11.167 21.573,12.000 21.573 C 12.833 21.573,13.057 21.559,13.493 21.484 C 16.681 20.930,19.280 18.988,20.644 16.140 C 20.953 15.495,21.137 14.984,21.320 14.263 C 21.528 13.445,21.573 13.025,21.570 11.920 C 21.567 11.152,21.552 10.892,21.483 10.500 C 21.304 9.479,21.026 8.628,20.573 7.714 C 19.332 5.208,17.068 3.393,14.321 2.701 C 13.686 2.541,13.242 2.480,12.412 2.440 C 11.490 2.395,11.587 2.393,11.000 2.463 M8.949 8.563 C 9.378 8.771,9.560 9.090,9.560 9.632 C 9.560 9.889,9.543 9.961,9.432 10.168 C 8.972 11.031,7.749 10.982,7.314 10.083 C 7.185 9.817,7.187 9.372,7.318 9.103 C 7.624 8.474,8.302 8.250,8.949 8.563 M16.149 8.563 C 16.578 8.771,16.760 9.090,16.760 9.632 C 16.760 9.889,16.743 9.961,16.632 10.168 C 16.172 11.031,14.949 10.982,14.514 10.083 C 14.385 9.817,14.387 9.372,14.518 9.103 C 14.824 8.474,15.502 8.250,16.149 8.563 M12.680 13.263 C 13.859 13.348,15.352 14.054,16.171 14.914 C 16.481 15.239,16.558 15.418,16.559 15.814 C 16.560 16.092,16.545 16.157,16.432 16.368 C 16.155 16.888,15.540 17.129,15.006 16.926 C 14.899 16.885,14.601 16.687,14.343 16.486 C 13.867 16.114,13.429 15.872,12.980 15.734 C 12.783 15.673,12.606 15.660,12.000 15.660 C 11.394 15.660,11.217 15.673,11.020 15.734 C 10.571 15.872,10.133 16.114,9.657 16.486 C 9.399 16.687,9.101 16.885,8.994 16.926 C 8.460 17.129,7.845 16.888,7.568 16.368 C 7.455 16.157,7.440 16.092,7.440 15.812 C 7.440 15.404,7.540 15.196,7.909 14.834 C 8.946 13.814,10.635 13.156,12.040 13.224 C 12.205 13.232,12.493 13.249,12.680 13.263 " fill="#373B4D" stroke="none" fill-rule="evenodd"></path></svg>