<svg width="24" height="24" viewBox="0 0 24 24" fill="none" xmlns="http://www.w3.org/2000/svg"><path d="M10.460 2.556 C 8.397 2.940,6.796 3.749,5.385 5.120 C 4.496 5.984,3.882 6.821,3.377 7.860 C 2.066 10.554,2.096 13.601,3.462 16.323 C 4.177 17.749,5.334 19.053,6.680 19.949 C 7.607 20.566,8.758 21.065,9.980 21.380 C 10.692 21.563,12.698 21.607,13.602 21.459 C 14.327 21.340,15.373 20.991,16.183 20.597 C 17.678 19.870,19.020 18.714,19.908 17.388 C 20.322 16.768,20.870 15.645,21.111 14.919 C 21.413 14.007,21.475 13.692,21.529 12.787 C 21.595 11.660,21.531 10.569,21.360 9.900 C 21.053 8.702,20.624 7.713,19.996 6.757 C 18.554 4.560,16.139 2.990,13.567 2.575 C 13.303 2.532,12.811 2.507,12.020 2.497 C 11.015 2.484,10.807 2.492,10.460 2.556 M8.941 8.591 C 9.290 8.771,9.470 9.065,9.508 9.517 C 9.565 10.202,9.146 10.704,8.480 10.750 C 7.794 10.797,7.276 10.298,7.276 9.590 C 7.276 9.429,7.296 9.244,7.320 9.178 C 7.430 8.887,7.712 8.607,7.985 8.519 C 8.184 8.455,8.761 8.498,8.941 8.591 M16.141 8.591 C 16.490 8.771,16.670 9.065,16.708 9.517 C 16.765 10.202,16.346 10.704,15.680 10.750 C 14.994 10.797,14.476 10.298,14.476 9.590 C 14.476 9.429,14.496 9.244,14.520 9.178 C 14.630 8.887,14.912 8.607,15.185 8.519 C 15.384 8.455,15.961 8.498,16.141 8.591 M9.030 14.342 C 9.103 14.372,9.409 14.558,9.711 14.754 C 10.850 15.495,11.034 15.560,12.000 15.560 C 12.981 15.560,13.180 15.488,14.335 14.712 L 14.930 14.312 15.323 14.290 C 15.693 14.270,15.729 14.275,15.941 14.379 C 16.349 14.578,16.555 14.989,16.507 15.508 C 16.474 15.854,16.329 16.108,15.981 16.429 C 15.169 17.176,13.898 17.787,12.862 17.927 C 12.358 17.995,11.050 17.946,10.677 17.844 C 10.078 17.681,9.385 17.388,8.840 17.066 C 8.413 16.814,7.728 16.161,7.581 15.867 C 7.459 15.622,7.447 15.312,7.548 14.995 C 7.630 14.740,7.978 14.363,8.200 14.290 C 8.369 14.234,8.844 14.264,9.030 14.342 " fill="#373B4D" stroke="none" fill-rule="evenodd"></path></svg>