<svg width="24" height="24" viewBox="0 0 24 24" fill="none" xmlns="http://www.w3.org/2000/svg"><path d="M10.960 2.483 C 10.529 2.522,9.753 2.687,9.175 2.863 C 7.694 3.311,6.417 4.074,5.312 5.171 C 3.805 6.665,2.893 8.403,2.543 10.445 C 2.150 12.732,2.671 15.225,3.947 17.178 C 5.248 19.167,7.063 20.510,9.409 21.217 C 10.384 21.511,10.564 21.534,11.920 21.537 C 13.206 21.540,13.437 21.520,14.160 21.339 C 16.336 20.794,18.255 19.563,19.560 17.875 C 20.466 16.703,21.204 15.049,21.468 13.600 C 21.571 13.039,21.571 10.898,21.468 10.380 C 20.876 7.391,19.104 4.964,16.480 3.550 C 15.484 3.013,14.237 2.625,13.173 2.522 C 12.619 2.469,11.364 2.446,10.960 2.483 M8.772 8.522 C 9.024 8.586,9.294 8.801,9.402 9.025 C 9.529 9.287,9.559 9.807,9.461 10.062 C 9.283 10.530,8.734 10.844,8.251 10.755 C 7.833 10.678,7.539 10.468,7.372 10.128 C 7.219 9.817,7.215 9.359,7.362 9.065 C 7.464 8.860,7.679 8.650,7.893 8.544 C 8.042 8.471,8.521 8.459,8.772 8.522 M15.972 8.522 C 16.224 8.586,16.494 8.801,16.602 9.025 C 16.729 9.287,16.759 9.807,16.661 10.062 C 16.483 10.530,15.934 10.844,15.451 10.755 C 15.033 10.678,14.739 10.468,14.572 10.128 C 14.419 9.817,14.415 9.359,14.562 9.065 C 14.664 8.860,14.879 8.650,15.093 8.544 C 15.242 8.471,15.721 8.459,15.972 8.522 M12.540 13.318 C 13.431 13.356,13.566 13.387,14.353 13.733 C 15.351 14.172,16.157 14.779,16.435 15.299 C 16.555 15.524,16.557 16.091,16.438 16.323 C 16.237 16.718,15.827 16.976,15.400 16.977 C 15.088 16.977,15.001 16.936,14.260 16.437 C 13.971 16.243,13.574 16.006,13.377 15.912 L 13.020 15.740 12.000 15.740 L 10.980 15.740 10.623 15.912 C 10.426 16.006,10.029 16.243,9.740 16.437 C 8.999 16.936,8.912 16.977,8.600 16.977 C 8.173 16.976,7.763 16.718,7.562 16.323 C 7.469 16.141,7.450 15.692,7.524 15.420 C 7.684 14.830,8.995 13.906,10.275 13.479 C 10.840 13.291,11.228 13.263,12.540 13.318 " fill="#373B4D" stroke="none" fill-rule="evenodd"></path></svg>