<svg width="24" height="24" viewBox="0 0 24 24" fill="none" xmlns="http://www.w3.org/2000/svg"><path d="M10.460 2.556 C 8.397 2.940,6.796 3.749,5.385 5.120 C 4.496 5.984,3.882 6.821,3.377 7.860 C 2.066 10.554,2.096 13.601,3.462 16.323 C 4.177 17.749,5.334 19.053,6.680 19.949 C 7.607 20.566,8.758 21.065,9.980 21.380 C 10.692 21.563,12.698 21.607,13.602 21.459 C 14.327 21.340,15.373 20.991,16.183 20.597 C 17.678 19.870,19.020 18.714,19.908 17.388 C 20.322 16.768,20.870 15.645,21.111 14.919 C 21.413 14.007,21.475 13.692,21.529 12.787 C 21.595 11.660,21.531 10.569,21.360 9.900 C 21.053 8.702,20.624 7.713,19.996 6.757 C 18.554 4.560,16.139 2.990,13.567 2.575 C 13.303 2.532,12.811 2.507,12.020 2.497 C 11.015 2.484,10.807 2.492,10.460 2.556 M8.941 8.591 C 9.290 8.771,9.470 9.065,9.508 9.517 C 9.565 10.202,9.146 10.704,8.480 10.750 C 7.794 10.797,7.276 10.298,7.276 9.590 C 7.276 9.429,7.296 9.244,7.320 9.178 C 7.430 8.887,7.712 8.607,7.985 8.519 C 8.184 8.455,8.761 8.498,8.941 8.591 M16.141 8.591 C 16.490 8.771,16.670 9.065,16.708 9.517 C 16.765 10.202,16.346 10.704,15.680 10.750 C 14.994 10.797,14.476 10.298,14.476 9.590 C 14.476 9.429,14.496 9.244,14.520 9.178 C 14.630 8.887,14.912 8.607,15.185 8.519 C 15.384 8.455,15.961 8.498,16.141 8.591 M12.364 13.320 C 12.839 13.341,13.325 13.379,13.444 13.404 C 13.905 13.502,14.867 13.948,15.422 14.320 C 15.812 14.582,16.252 14.999,16.394 15.240 C 16.490 15.403,16.500 15.459,16.500 15.823 C 16.500 16.194,16.492 16.239,16.391 16.390 C 16.147 16.760,15.802 16.962,15.412 16.967 C 15.112 16.971,14.992 16.917,14.324 16.483 C 14.020 16.284,13.615 16.041,13.424 15.941 L 13.078 15.760 12.000 15.760 L 10.922 15.760 10.576 15.941 C 10.385 16.041,9.980 16.284,9.676 16.483 C 9.008 16.917,8.888 16.971,8.588 16.967 C 8.198 16.962,7.853 16.760,7.609 16.390 C 7.508 16.239,7.500 16.194,7.500 15.823 C 7.500 15.458,7.510 15.403,7.607 15.237 C 7.917 14.711,9.018 13.953,10.028 13.570 C 10.455 13.409,10.682 13.355,11.080 13.321 C 11.267 13.305,11.438 13.289,11.460 13.286 C 11.482 13.283,11.889 13.298,12.364 13.320 " fill="#373B4D" stroke="none" fill-rule="evenodd"></path></svg>