<svg width="24" height="24" viewBox="0 0 24 24" fill="none" xmlns="http://www.w3.org/2000/svg"><path d="M10.289 2.625 C 9.884 2.688,9.108 2.900,8.687 3.064 C 7.846 3.390,6.714 4.042,6.040 4.589 C 5.622 4.928,4.580 5.998,4.311 6.365 C 3.488 7.486,2.931 8.746,2.599 10.240 C 2.430 11.002,2.402 12.647,2.544 13.480 C 2.754 14.707,3.342 16.217,3.993 17.200 C 4.677 18.233,5.842 19.378,6.866 20.023 C 7.315 20.306,8.462 20.870,8.970 21.057 C 9.925 21.410,10.747 21.536,12.080 21.534 C 12.901 21.533,13.134 21.519,13.520 21.448 C 15.715 21.046,17.863 19.828,19.258 18.196 C 20.031 17.291,20.567 16.333,21.060 14.972 C 21.389 14.066,21.440 13.808,21.485 12.820 C 21.527 11.881,21.505 10.799,21.433 10.340 C 21.294 9.444,20.679 7.897,20.099 6.980 C 19.148 5.480,17.896 4.341,16.320 3.543 C 15.235 2.994,14.306 2.706,13.286 2.602 C 12.677 2.540,10.743 2.555,10.289 2.625 M8.814 8.603 C 9.012 8.658,9.301 8.925,9.367 9.113 C 9.396 9.196,9.419 9.439,9.419 9.667 C 9.419 10.056,9.414 10.082,9.298 10.246 C 9.042 10.611,8.611 10.781,8.173 10.689 C 7.876 10.627,7.671 10.479,7.499 10.205 C 7.363 9.987,7.360 9.974,7.360 9.557 C 7.360 9.134,7.361 9.130,7.497 8.953 C 7.623 8.787,7.773 8.659,7.920 8.593 C 8.016 8.549,8.646 8.557,8.814 8.603 M16.013 8.603 C 16.201 8.655,16.447 8.872,16.545 9.071 C 16.601 9.186,16.618 9.317,16.619 9.647 C 16.620 10.058,16.616 10.079,16.499 10.245 C 16.242 10.612,15.812 10.781,15.373 10.689 C 15.076 10.627,14.871 10.479,14.699 10.205 C 14.563 9.987,14.560 9.974,14.560 9.557 C 14.560 9.134,14.561 9.130,14.697 8.953 C 14.823 8.787,14.973 8.659,15.120 8.593 C 15.216 8.549,15.846 8.556,16.013 8.603 M13.291 13.441 C 13.673 13.496,13.981 13.606,14.580 13.900 C 15.302 14.255,15.679 14.516,16.110 14.955 L 16.480 15.332 16.480 15.822 L 16.480 16.311 16.237 16.536 C 15.913 16.836,15.716 16.935,15.440 16.937 C 15.164 16.939,14.887 16.812,13.838 16.201 L 13.080 15.760 12.000 15.760 L 10.920 15.760 10.162 16.201 C 9.113 16.812,8.836 16.939,8.560 16.937 C 8.283 16.935,8.087 16.836,7.758 16.531 L 7.509 16.301 7.535 15.867 C 7.550 15.628,7.588 15.370,7.621 15.292 C 7.851 14.740,9.731 13.579,10.640 13.428 C 10.850 13.393,13.033 13.403,13.291 13.441 " fill="#373B4D" stroke="none" fill-rule="evenodd"></path></svg>