<svg width="24" height="24" viewBox="0 0 24 24" fill="none" xmlns="http://www.w3.org/2000/svg"><path d="M10.800 2.602 C 9.953 2.652,9.188 2.852,8.279 3.261 C 6.771 3.938,5.535 4.887,4.488 6.170 C 3.517 7.359,2.767 9.091,2.533 10.680 C 2.428 11.395,2.439 12.868,2.554 13.500 C 2.856 15.155,3.599 16.799,4.565 17.948 C 4.922 18.373,5.698 19.144,6.080 19.452 C 6.934 20.141,8.561 20.975,9.600 21.255 C 10.436 21.481,10.632 21.500,12.100 21.497 L 13.460 21.494 14.014 21.346 C 15.888 20.845,17.402 20.015,18.653 18.802 C 19.696 17.790,20.318 16.838,20.913 15.340 C 21.339 14.268,21.411 13.950,21.483 12.820 C 21.537 11.953,21.512 10.911,21.423 10.380 C 21.183 8.955,20.388 7.240,19.397 6.013 C 18.128 4.440,15.991 3.130,14.061 2.740 C 13.262 2.578,12.060 2.527,10.800 2.602 M8.904 8.672 C 9.122 8.783,9.312 8.986,9.360 9.158 C 9.382 9.236,9.400 9.482,9.400 9.704 C 9.400 10.083,9.393 10.116,9.290 10.249 C 9.050 10.560,8.612 10.755,8.270 10.704 C 8.031 10.668,7.700 10.468,7.559 10.273 C 7.399 10.051,7.350 9.846,7.366 9.461 C 7.378 9.174,7.394 9.119,7.504 8.970 C 7.757 8.625,7.920 8.556,8.422 8.577 C 8.646 8.586,8.793 8.615,8.904 8.672 M16.067 8.645 C 16.207 8.688,16.501 8.984,16.561 9.143 C 16.582 9.199,16.600 9.441,16.600 9.680 C 16.600 10.094,16.595 10.120,16.490 10.247 C 16.221 10.572,15.975 10.696,15.600 10.693 C 15.304 10.691,15.110 10.619,14.899 10.434 C 14.646 10.211,14.583 10.039,14.581 9.560 C 14.580 9.152,14.584 9.135,14.708 8.956 C 14.860 8.736,14.987 8.647,15.212 8.600 C 15.402 8.561,15.876 8.586,16.067 8.645 M12.840 13.440 C 13.614 13.486,13.803 13.536,14.500 13.877 C 15.221 14.229,15.579 14.472,16.077 14.945 L 16.480 15.328 16.480 15.821 L 16.480 16.314 16.250 16.519 C 15.706 17.003,15.384 17.034,14.680 16.667 C 14.449 16.547,13.992 16.293,13.664 16.104 L 13.068 15.760 12.000 15.760 L 10.932 15.760 10.336 16.105 C 8.888 16.942,8.613 17.033,8.183 16.823 C 8.061 16.764,7.863 16.621,7.741 16.506 C 7.530 16.306,7.520 16.288,7.521 16.099 C 7.524 15.727,7.625 15.291,7.747 15.125 C 8.075 14.679,9.308 13.890,10.160 13.580 C 10.628 13.410,11.546 13.362,12.840 13.440 " fill="#373B4D" stroke="none" fill-rule="evenodd"></path></svg>