<svg width="24" height="24" viewBox="0 0 24 24" fill="none" xmlns="http://www.w3.org/2000/svg"><path d="M17.560 3.103 C 16.367 3.212,15.251 3.245,11.980 3.267 C 8.884 3.288,5.224 3.243,4.330 3.174 L 4.000 3.148 4.000 3.669 L 4.000 4.190 4.370 4.257 C 5.456 4.452,6.007 4.640,6.225 4.889 L 6.351 5.033 6.379 5.806 C 6.394 6.232,6.401 9.380,6.393 12.802 C 6.381 18.638,6.376 19.030,6.310 19.130 C 6.078 19.484,5.541 19.702,4.410 19.900 L 4.000 19.972 4.000 20.491 L 4.000 21.010 5.210 20.985 C 7.947 20.929,13.293 20.915,15.956 20.958 C 17.504 20.982,18.778 20.996,18.785 20.988 C 18.798 20.975,18.918 20.017,19.258 17.200 C 19.337 16.551,19.401 15.953,19.400 15.870 L 19.400 15.720 19.186 15.720 C 19.068 15.720,18.864 15.731,18.733 15.745 L 18.493 15.770 18.282 16.275 C 17.882 17.228,17.264 18.443,17.026 18.746 C 16.684 19.181,16.252 19.463,15.742 19.581 C 15.358 19.670,14.308 19.719,12.760 19.719 C 11.146 19.720,10.417 19.675,10.100 19.557 C 9.846 19.461,9.482 19.149,9.383 18.940 C 9.295 18.756,9.253 17.713,9.217 14.810 L 9.189 12.600 9.564 12.601 C 10.280 12.601,12.382 12.681,12.799 12.723 C 13.616 12.804,13.772 12.988,14.120 14.279 C 14.290 14.907,14.337 15.036,14.416 15.089 C 14.440 15.106,14.660 15.119,14.904 15.119 L 15.349 15.120 15.375 12.430 C 15.389 10.950,15.412 9.511,15.426 9.230 L 15.450 8.720 15.175 8.720 C 15.024 8.720,14.782 8.732,14.639 8.745 L 14.378 8.770 14.173 9.575 C 13.928 10.541,13.843 10.775,13.659 10.990 C 13.491 11.187,13.290 11.262,12.780 11.318 C 12.298 11.372,10.658 11.439,9.844 11.440 L 9.188 11.440 9.215 8.710 C 9.229 7.208,9.252 5.654,9.266 5.256 L 9.291 4.533 10.432 4.506 C 11.060 4.492,12.457 4.480,13.537 4.480 L 15.500 4.481 15.703 4.597 C 16.306 4.943,16.739 5.788,17.185 7.490 L 17.340 8.080 17.791 8.080 C 18.117 8.080,18.247 8.066,18.259 8.030 C 18.289 7.939,18.498 4.757,18.545 3.670 L 18.572 3.040 18.356 3.045 C 18.237 3.047,17.879 3.073,17.560 3.103 " fill="#373B4D" stroke="none" fill-rule="evenodd"></path></svg>