<svg width="24" height="24" viewBox="0 0 24 24" fill="none" xmlns="http://www.w3.org/2000/svg"><path d="M17.960 3.061 C 16.481 3.224,14.780 3.278,11.140 3.279 C 8.394 3.279,6.347 3.247,4.650 3.176 L 4.000 3.149 4.000 3.667 L 4.000 4.185 4.630 4.297 C 5.728 4.493,6.165 4.661,6.296 4.937 C 6.460 5.283,6.460 5.285,6.460 11.960 C 6.460 18.843,6.457 18.949,6.266 19.238 C 6.085 19.511,5.626 19.679,4.506 19.882 L 4.000 19.974 4.000 20.492 L 4.000 21.011 4.590 20.988 C 4.914 20.975,6.714 20.943,8.589 20.917 C 11.264 20.879,12.630 20.879,14.929 20.918 C 16.541 20.945,18.070 20.976,18.327 20.988 L 18.794 21.010 18.817 20.835 C 18.830 20.739,18.905 20.102,18.982 19.420 C 19.159 17.864,19.394 15.929,19.421 15.810 C 19.441 15.723,19.432 15.720,19.146 15.720 C 18.984 15.720,18.772 15.731,18.675 15.744 L 18.499 15.768 18.203 16.474 C 17.288 18.657,16.894 19.209,16.046 19.498 C 15.479 19.691,15.334 19.700,12.840 19.700 C 10.537 19.700,10.496 19.699,10.220 19.612 C 9.871 19.502,9.659 19.364,9.487 19.138 C 9.233 18.806,9.239 18.876,9.212 15.584 L 9.187 12.588 10.764 12.617 C 11.631 12.633,12.528 12.662,12.758 12.682 C 13.650 12.759,13.853 13.011,14.162 14.420 C 14.234 14.750,14.311 15.043,14.332 15.070 C 14.359 15.105,14.517 15.120,14.869 15.120 L 15.368 15.120 15.340 13.450 C 15.315 11.918,15.353 9.980,15.426 9.050 L 15.452 8.720 15.092 8.720 C 14.893 8.720,14.652 8.731,14.554 8.744 L 14.377 8.768 14.184 9.594 C 13.833 11.100,13.723 11.236,12.797 11.318 C 12.228 11.369,10.439 11.440,9.728 11.440 L 9.197 11.440 9.208 8.050 C 9.218 5.379,9.231 4.641,9.271 4.570 L 9.323 4.480 12.404 4.480 L 15.485 4.480 15.711 4.590 C 16.345 4.899,16.719 5.630,17.185 7.470 L 17.340 8.080 17.810 8.080 C 18.189 8.080,18.280 8.069,18.280 8.023 C 18.280 7.920,18.479 4.511,18.521 3.900 C 18.543 3.570,18.566 3.237,18.571 3.160 C 18.582 2.990,18.589 2.991,17.960 3.061 " fill="#373B4D" stroke="none" fill-rule="evenodd"></path></svg>