<svg width="24" height="24" viewBox="0 0 24 24" fill="none" xmlns="http://www.w3.org/2000/svg"><path d="M17.760 3.083 C 16.686 3.182,16.224 3.206,14.720 3.240 C 11.688 3.309,5.995 3.273,4.430 3.175 L 4.000 3.149 4.000 3.666 L 4.000 4.184 4.590 4.297 C 5.709 4.513,6.111 4.668,6.287 4.950 L 6.380 5.100 6.404 8.540 C 6.418 10.432,6.418 13.565,6.404 15.503 L 6.380 19.026 6.271 19.191 C 6.073 19.490,5.639 19.664,4.590 19.865 L 4.000 19.977 4.000 20.494 L 4.000 21.010 4.830 20.985 C 6.746 20.928,14.650 20.910,16.695 20.958 C 17.835 20.984,18.776 20.997,18.787 20.986 C 18.798 20.975,18.922 19.988,19.063 18.793 C 19.204 17.598,19.337 16.488,19.360 16.327 C 19.382 16.166,19.400 15.964,19.400 15.877 L 19.400 15.720 19.150 15.720 C 19.012 15.721,18.809 15.732,18.697 15.745 L 18.495 15.769 18.222 16.415 C 17.853 17.288,17.408 18.197,17.171 18.560 C 16.803 19.123,16.280 19.486,15.672 19.602 C 15.281 19.676,14.185 19.719,12.720 19.719 C 11.152 19.719,10.441 19.680,10.133 19.577 C 9.875 19.490,9.539 19.227,9.413 19.012 C 9.319 18.851,9.308 18.785,9.277 18.129 C 9.259 17.739,9.231 16.333,9.215 15.004 L 9.187 12.589 10.443 12.616 C 12.065 12.652,12.975 12.704,13.213 12.776 C 13.664 12.912,13.826 13.171,14.098 14.192 C 14.315 15.006,14.335 15.062,14.420 15.095 C 14.457 15.109,14.681 15.120,14.918 15.120 L 15.350 15.120 15.375 12.230 C 15.389 10.640,15.411 9.200,15.425 9.030 L 15.449 8.720 15.150 8.720 C 14.986 8.720,14.744 8.731,14.613 8.745 L 14.374 8.770 14.204 9.475 C 13.847 10.953,13.716 11.167,13.100 11.276 C 12.713 11.345,11.749 11.399,10.424 11.427 L 9.187 11.453 9.217 8.237 C 9.234 6.467,9.259 4.903,9.274 4.760 L 9.300 4.500 12.394 4.490 L 15.488 4.480 15.694 4.590 C 16.325 4.927,16.739 5.740,17.204 7.550 L 17.340 8.080 17.787 8.080 C 18.034 8.080,18.244 8.066,18.254 8.049 C 18.288 7.995,18.560 3.700,18.560 3.230 L 18.560 3.040 18.330 3.046 C 18.203 3.049,17.947 3.065,17.760 3.083 " fill="#373B4D" stroke="none" fill-rule="evenodd"></path></svg>