<svg width="24" height="24" viewBox="0 0 24 24" fill="none" xmlns="http://www.w3.org/2000/svg"><path d="M17.520 3.102 C 16.427 3.215,15.361 3.247,12.120 3.268 C 9.044 3.288,5.873 3.248,4.470 3.173 L 4.000 3.148 4.000 3.665 L 4.000 4.183 4.677 4.311 C 5.904 4.544,6.241 4.705,6.366 5.120 C 6.446 5.387,6.446 18.732,6.366 19.000 C 6.238 19.428,5.853 19.620,4.653 19.852 L 4.000 19.979 4.000 20.495 L 4.000 21.011 4.970 20.985 C 8.967 20.876,14.601 20.875,17.986 20.984 L 18.791 21.010 18.816 20.855 C 18.829 20.770,18.939 19.842,19.060 18.794 C 19.182 17.746,19.314 16.639,19.355 16.334 C 19.396 16.029,19.421 15.766,19.412 15.750 C 19.392 15.714,18.979 15.711,18.697 15.745 L 18.494 15.770 18.217 16.435 C 17.872 17.265,17.420 18.193,17.179 18.566 C 16.835 19.098,16.482 19.364,15.860 19.558 C 15.498 19.672,14.578 19.717,12.640 19.716 C 10.903 19.715,10.387 19.683,10.060 19.556 C 9.761 19.440,9.391 19.090,9.320 18.857 C 9.266 18.675,9.207 16.267,9.203 14.045 L 9.200 12.589 10.610 12.617 C 11.386 12.633,12.270 12.662,12.575 12.683 C 13.635 12.755,13.792 12.919,14.135 14.320 C 14.233 14.722,14.338 15.067,14.367 15.085 C 14.396 15.104,14.634 15.119,14.896 15.119 L 15.373 15.120 15.349 13.690 C 15.326 12.320,15.365 9.932,15.424 9.110 L 15.452 8.720 15.116 8.720 C 14.931 8.721,14.690 8.732,14.579 8.745 L 14.378 8.769 14.168 9.634 C 13.810 11.112,13.713 11.229,12.765 11.319 C 12.177 11.375,10.590 11.440,9.824 11.440 L 9.187 11.440 9.211 8.069 C 9.227 5.897,9.250 4.659,9.277 4.589 L 9.318 4.480 12.403 4.480 L 15.489 4.480 15.727 4.607 C 16.347 4.937,16.726 5.683,17.184 7.471 L 17.340 8.082 17.800 8.071 L 18.260 8.060 18.290 7.740 C 18.316 7.471,18.464 5.022,18.549 3.470 L 18.572 3.040 18.296 3.045 C 18.144 3.048,17.795 3.074,17.520 3.102 " fill="#373B4D" stroke="none" fill-rule="evenodd"></path></svg>