<svg width="24" height="24" viewBox="0 0 24 24" fill="none" xmlns="http://www.w3.org/2000/svg"><path d="M17.979 3.061 C 16.416 3.223,14.491 3.288,11.280 3.287 C 8.783 3.287,6.785 3.253,4.710 3.175 L 4.000 3.149 4.000 3.665 L 4.000 4.182 4.650 4.296 C 5.825 4.502,6.177 4.647,6.327 4.986 C 6.485 5.344,6.500 5.938,6.495 11.900 C 6.490 17.976,6.469 18.872,6.327 19.148 C 6.149 19.493,5.826 19.631,4.682 19.847 L 4.000 19.975 4.000 20.494 L 4.000 21.012 4.650 20.986 C 7.653 20.868,14.764 20.853,17.574 20.960 C 18.231 20.984,18.778 20.996,18.789 20.985 C 18.800 20.973,18.842 20.653,18.882 20.272 C 18.968 19.462,19.205 17.446,19.335 16.429 L 19.426 15.718 18.970 15.729 L 18.514 15.740 18.124 16.660 C 17.631 17.826,17.453 18.194,17.201 18.571 C 16.716 19.296,16.172 19.587,15.120 19.683 C 14.841 19.709,13.836 19.720,12.560 19.711 C 10.488 19.697,10.456 19.696,10.181 19.604 C 9.706 19.446,9.459 19.223,9.292 18.800 C 9.226 18.634,9.220 18.385,9.209 15.604 L 9.197 12.588 10.868 12.614 C 12.750 12.643,13.128 12.672,13.396 12.810 C 13.763 12.999,13.924 13.324,14.144 14.320 C 14.219 14.661,14.290 14.980,14.301 15.030 C 14.321 15.118,14.335 15.120,14.839 15.120 L 15.356 15.120 15.332 13.290 C 15.310 11.632,15.344 10.075,15.425 9.029 L 15.449 8.718 14.917 8.729 L 14.385 8.740 14.200 9.540 C 13.996 10.426,13.953 10.573,13.814 10.850 C 13.698 11.081,13.499 11.218,13.200 11.275 C 12.905 11.330,11.709 11.392,10.330 11.425 L 9.200 11.451 9.200 8.050 C 9.200 4.761,9.203 4.646,9.276 4.554 L 9.353 4.460 12.407 4.460 L 15.462 4.460 15.728 4.591 C 16.353 4.899,16.704 5.572,17.145 7.310 L 17.340 8.080 17.806 8.080 L 18.271 8.080 18.296 7.650 C 18.310 7.413,18.348 6.734,18.381 6.140 C 18.458 4.750,18.556 3.251,18.580 3.110 C 18.594 3.024,18.583 3.001,18.529 3.005 C 18.491 3.008,18.243 3.033,17.979 3.061 " fill="#373B4D" stroke="none" fill-rule="evenodd"></path></svg>