<svg width="24" height="24" viewBox="0 0 24 24" fill="none" xmlns="http://www.w3.org/2000/svg"><path d="M11.483 2.565 C 11.363 2.585,11.129 2.667,10.963 2.747 C 10.496 2.970,10.150 3.345,9.694 4.120 C 8.831 5.586,3.692 14.754,3.192 15.720 C 2.814 16.449,2.804 17.112,3.161 17.832 C 3.458 18.431,4.035 18.933,4.626 19.108 C 4.843 19.172,5.371 19.178,11.974 19.190 C 19.902 19.205,19.178 19.229,19.780 18.929 C 19.980 18.829,20.152 18.697,20.382 18.465 C 20.871 17.971,21.080 17.473,21.080 16.800 C 21.080 16.158,21.147 16.303,19.388 13.140 C 17.890 10.448,14.724 4.827,14.307 4.120 C 13.850 3.346,13.503 2.970,13.040 2.748 C 12.596 2.535,12.050 2.471,11.483 2.565 M12.503 6.138 C 12.741 6.245,12.965 6.463,13.079 6.698 C 13.157 6.860,13.160 6.937,13.160 8.994 L 13.160 11.123 13.060 11.320 C 12.790 11.852,12.227 12.107,11.674 11.946 C 11.361 11.855,11.122 11.657,10.958 11.354 L 10.821 11.100 10.821 9.000 L 10.820 6.900 10.918 6.702 C 11.220 6.094,11.880 5.859,12.503 6.138 M12.549 14.563 C 12.978 14.771,13.160 15.090,13.160 15.632 C 13.160 15.889,13.143 15.961,13.032 16.168 C 12.572 17.031,11.349 16.982,10.914 16.083 C 10.785 15.817,10.787 15.372,10.918 15.103 C 11.224 14.474,11.902 14.250,12.549 14.563 " fill="#373B4D" stroke="none" fill-rule="evenodd"></path></svg>