<svg width="24" height="24" viewBox="0 0 24 24" fill="none" xmlns="http://www.w3.org/2000/svg"><path d="M11.320 2.664 C 11.014 2.746,10.722 2.933,10.422 3.239 C 10.108 3.558,10.030 3.655,9.764 4.052 C 9.304 4.739,5.051 12.278,3.690 14.820 C 2.922 16.255,2.794 16.796,3.059 17.503 C 3.263 18.047,3.659 18.505,4.311 18.952 L 4.674 19.200 11.908 19.200 L 19.142 19.200 19.439 19.058 C 20.295 18.647,20.852 17.981,21.024 17.160 C 21.132 16.645,21.041 16.241,20.631 15.423 C 19.929 14.022,14.790 4.897,14.214 4.029 C 13.887 3.537,13.281 2.911,13.019 2.796 C 12.606 2.613,11.758 2.547,11.320 2.664 M12.670 6.303 C 13.063 6.572,13.040 6.403,13.040 9.027 L 13.040 11.314 12.910 11.482 C 12.838 11.575,12.702 11.707,12.606 11.775 C 12.453 11.885,12.394 11.901,12.115 11.914 C 11.941 11.922,11.736 11.917,11.661 11.903 C 11.462 11.865,11.127 11.585,11.036 11.380 C 10.938 11.158,10.893 10.404,10.858 8.360 L 10.832 6.820 11.006 6.617 C 11.102 6.506,11.261 6.347,11.360 6.265 L 11.540 6.114 11.990 6.130 C 12.438 6.145,12.441 6.146,12.670 6.303 M12.597 14.643 C 12.989 14.863,13.190 15.543,13.015 16.056 C 12.933 16.296,12.618 16.620,12.410 16.678 C 12.168 16.745,11.722 16.728,11.539 16.645 C 10.981 16.392,10.721 15.590,11.020 15.045 C 11.136 14.833,11.266 14.708,11.500 14.580 C 11.686 14.479,12.375 14.518,12.597 14.643 " fill="#373B4D" stroke="none" fill-rule="evenodd"></path></svg>