<svg width="24" height="24" viewBox="0 0 24 24" fill="none" xmlns="http://www.w3.org/2000/svg"><path d="M10.800 2.560 C 9.246 2.685,7.471 3.441,6.040 4.585 C 5.599 4.937,4.771 5.770,4.440 6.194 C 3.480 7.422,2.855 8.853,2.533 10.560 C 2.444 11.034,2.431 12.733,2.513 13.300 C 2.652 14.269,3.083 15.571,3.565 16.480 C 3.987 17.275,4.415 17.854,5.100 18.555 C 6.022 19.499,6.625 19.943,7.760 20.518 C 9.182 21.237,10.130 21.486,11.668 21.544 C 12.869 21.589,13.772 21.467,14.800 21.121 C 16.055 20.698,17.043 20.168,18.000 19.405 C 19.520 18.193,20.455 16.796,21.163 14.680 C 21.468 13.769,21.494 13.558,21.497 12.000 C 21.500 10.529,21.486 10.391,21.255 9.591 C 20.689 7.634,19.633 5.982,18.143 4.724 C 16.822 3.609,14.953 2.773,13.400 2.604 C 12.865 2.546,11.301 2.519,10.800 2.560 M12.180 6.141 C 12.376 6.173,12.729 6.357,12.927 6.531 L 13.073 6.660 13.120 9.540 L 13.167 12.420 12.893 12.672 C 12.567 12.972,12.216 13.160,11.981 13.160 C 11.749 13.160,11.471 13.009,11.130 12.698 L 10.840 12.434 10.840 9.625 L 10.840 6.816 11.036 6.596 C 11.359 6.234,11.672 6.063,11.940 6.103 C 11.984 6.110,12.092 6.127,12.180 6.141 M12.491 15.814 C 12.639 15.876,12.860 16.089,12.944 16.249 C 13.021 16.397,13.056 16.774,13.022 17.093 C 12.998 17.324,12.975 17.378,12.832 17.539 C 12.625 17.775,12.405 17.886,12.097 17.910 C 11.639 17.947,11.278 17.754,11.060 17.354 C 10.954 17.160,10.943 17.103,10.942 16.754 C 10.940 16.387,10.946 16.358,11.061 16.195 C 11.128 16.100,11.259 15.963,11.354 15.891 C 11.523 15.762,11.533 15.760,11.944 15.760 C 12.206 15.760,12.411 15.780,12.491 15.814 " fill="#373B4D" stroke="none" fill-rule="evenodd"></path></svg>