<svg width="24" height="24" viewBox="0 0 24 24" fill="none" xmlns="http://www.w3.org/2000/svg"><path d="M10.660 2.601 C 9.835 2.654,8.901 2.934,7.932 3.419 C 6.915 3.928,6.190 4.422,5.524 5.059 C 4.210 6.315,3.506 7.395,2.955 8.996 C 2.612 9.992,2.499 10.606,2.456 11.693 C 2.402 13.057,2.604 14.186,3.137 15.514 C 3.660 16.813,4.230 17.672,5.239 18.681 C 6.113 19.556,6.684 19.967,7.781 20.513 C 8.654 20.948,9.091 21.124,9.682 21.279 C 10.454 21.481,11.004 21.530,12.289 21.509 C 13.385 21.492,13.435 21.487,13.920 21.369 C 16.834 20.654,19.188 18.870,20.433 16.434 C 20.676 15.959,21.082 14.964,21.239 14.460 C 21.392 13.967,21.438 13.640,21.487 12.712 C 21.590 10.728,21.434 9.797,20.732 8.201 C 19.765 6.002,18.098 4.338,15.838 3.317 C 14.934 2.909,14.057 2.676,13.140 2.601 C 12.607 2.557,11.338 2.557,10.660 2.601 M12.426 6.238 C 12.518 6.279,12.699 6.384,12.829 6.472 L 13.064 6.632 13.114 9.526 L 13.163 12.420 12.912 12.651 C 12.637 12.902,12.174 13.160,11.998 13.160 C 11.768 13.160,11.358 12.919,10.990 12.567 L 10.840 12.424 10.840 9.615 L 10.840 6.806 10.941 6.686 C 11.105 6.491,11.433 6.233,11.592 6.174 C 11.780 6.104,12.194 6.136,12.426 6.238 M12.337 15.798 C 12.553 15.849,12.802 16.032,12.909 16.222 C 12.988 16.360,12.999 16.438,12.999 16.844 L 13.000 17.308 12.861 17.491 C 12.702 17.699,12.378 17.879,12.105 17.910 C 11.698 17.955,11.242 17.696,11.048 17.308 C 10.976 17.163,10.960 17.063,10.960 16.752 C 10.960 16.396,10.967 16.363,11.084 16.187 C 11.209 15.998,11.354 15.871,11.526 15.803 C 11.647 15.754,12.135 15.751,12.337 15.798 " fill="#373B4D" stroke="none" fill-rule="evenodd"></path></svg>