<svg width="24" height="24" viewBox="0 0 24 24" fill="none" xmlns="http://www.w3.org/2000/svg"><path d="M10.680 2.562 C 9.847 2.629,8.634 3.012,7.629 3.528 C 6.202 4.260,4.700 5.649,3.844 7.030 C 3.150 8.149,2.629 9.657,2.483 10.968 C 2.393 11.782,2.448 13.117,2.601 13.808 C 2.934 15.313,3.521 16.620,4.374 17.760 C 4.745 18.256,5.679 19.189,6.160 19.545 C 7.337 20.416,8.933 21.157,10.160 21.403 C 10.776 21.526,11.996 21.584,12.790 21.528 C 13.767 21.459,14.413 21.305,15.429 20.897 C 17.178 20.195,18.614 19.108,19.703 17.660 C 20.334 16.821,21.026 15.314,21.362 14.047 C 21.467 13.651,21.517 12.929,21.518 11.780 C 21.520 10.756,21.475 10.352,21.285 9.680 C 20.787 7.921,19.954 6.474,18.748 5.274 C 17.986 4.515,17.233 3.978,16.240 3.485 C 15.354 3.044,14.574 2.780,13.756 2.644 C 13.093 2.533,11.552 2.492,10.680 2.562 M12.505 6.241 C 12.639 6.307,12.823 6.427,12.912 6.510 L 13.074 6.660 13.121 9.540 L 13.168 12.420 12.877 12.690 C 12.518 13.022,12.257 13.160,11.985 13.160 C 11.713 13.160,11.515 13.055,11.148 12.717 L 10.840 12.433 10.840 9.623 L 10.840 6.814 11.061 6.570 C 11.286 6.320,11.476 6.180,11.671 6.118 C 11.860 6.057,12.241 6.114,12.505 6.241 M12.509 15.803 C 12.665 15.863,12.951 16.181,12.997 16.346 C 13.059 16.570,13.051 17.176,12.984 17.338 C 12.892 17.558,12.631 17.788,12.395 17.858 C 11.799 18.035,11.280 17.832,11.031 17.324 C 10.900 17.058,10.880 16.514,10.993 16.296 C 11.115 16.060,11.408 15.794,11.588 15.757 C 11.762 15.721,12.373 15.752,12.509 15.803 " fill="#373B4D" stroke="none" fill-rule="evenodd"></path></svg>