<svg width="24" height="24" viewBox="0 0 24 24" fill="none" xmlns="http://www.w3.org/2000/svg"><path d="M10.960 2.483 C 10.529 2.522,9.753 2.687,9.175 2.863 C 7.694 3.311,6.417 4.074,5.312 5.171 C 3.805 6.665,2.893 8.403,2.543 10.445 C 2.150 12.732,2.671 15.225,3.947 17.178 C 5.248 19.167,7.063 20.510,9.409 21.217 C 10.384 21.511,10.564 21.534,11.920 21.537 C 13.206 21.540,13.437 21.520,14.160 21.339 C 16.336 20.794,18.255 19.563,19.560 17.875 C 20.466 16.703,21.204 15.049,21.468 13.600 C 21.571 13.039,21.571 10.898,21.468 10.380 C 20.876 7.391,19.104 4.964,16.480 3.550 C 15.484 3.013,14.237 2.625,13.173 2.522 C 12.619 2.469,11.364 2.446,10.960 2.483 M12.197 6.079 C 12.501 6.123,12.809 6.313,12.984 6.566 L 13.097 6.728 13.125 8.434 C 13.141 9.372,13.155 10.642,13.157 11.256 L 13.160 12.372 13.054 12.516 C 12.860 12.778,12.662 12.966,12.479 13.060 C 11.943 13.334,11.434 13.168,10.997 12.576 L 10.840 12.363 10.840 9.605 L 10.840 6.847 11.010 6.594 C 11.234 6.261,11.527 6.081,11.900 6.045 C 11.922 6.043,12.055 6.058,12.197 6.079 M12.372 15.722 C 12.624 15.786,12.894 16.001,13.002 16.225 C 13.129 16.487,13.159 17.007,13.061 17.262 C 12.883 17.730,12.334 18.044,11.851 17.955 C 11.433 17.878,11.139 17.668,10.972 17.328 C 10.819 17.017,10.815 16.559,10.962 16.265 C 11.064 16.060,11.279 15.850,11.493 15.744 C 11.642 15.671,12.121 15.659,12.372 15.722 " fill="#373B4D" stroke="none" fill-rule="evenodd"></path></svg>