<svg width="24" height="24" viewBox="0 0 24 24" fill="none" xmlns="http://www.w3.org/2000/svg"><path d="M10.289 2.625 C 9.884 2.688,9.108 2.900,8.687 3.064 C 7.846 3.390,6.714 4.042,6.040 4.589 C 5.622 4.928,4.580 5.998,4.311 6.365 C 3.488 7.486,2.931 8.746,2.599 10.240 C 2.430 11.002,2.402 12.647,2.544 13.480 C 2.754 14.707,3.342 16.217,3.993 17.200 C 4.677 18.233,5.842 19.378,6.866 20.023 C 7.315 20.306,8.462 20.870,8.970 21.057 C 9.925 21.410,10.747 21.536,12.080 21.534 C 12.901 21.533,13.134 21.519,13.520 21.448 C 15.715 21.046,17.863 19.828,19.258 18.196 C 20.031 17.291,20.567 16.333,21.060 14.972 C 21.389 14.066,21.440 13.808,21.485 12.820 C 21.527 11.881,21.505 10.799,21.433 10.340 C 21.294 9.444,20.679 7.897,20.099 6.980 C 19.148 5.480,17.896 4.341,16.320 3.543 C 15.235 2.994,14.306 2.706,13.286 2.602 C 12.677 2.540,10.743 2.555,10.289 2.625 M12.478 6.255 C 12.597 6.315,12.782 6.428,12.888 6.506 L 13.080 6.647 13.080 7.149 C 13.080 7.426,13.100 8.725,13.123 10.036 L 13.167 12.420 12.961 12.610 C 12.574 12.966,12.222 13.160,11.961 13.160 C 11.787 13.160,11.401 12.942,11.110 12.678 L 10.840 12.434 10.840 9.617 L 10.840 6.801 11.090 6.546 C 11.448 6.182,11.588 6.115,11.960 6.132 C 12.188 6.142,12.312 6.172,12.478 6.255 M12.414 15.803 C 12.612 15.858,12.901 16.125,12.967 16.313 C 12.996 16.396,13.019 16.639,13.019 16.867 C 13.019 17.256,13.014 17.282,12.898 17.446 C 12.642 17.811,12.211 17.981,11.773 17.889 C 11.476 17.827,11.271 17.679,11.099 17.405 C 10.963 17.187,10.960 17.174,10.960 16.757 C 10.960 16.334,10.961 16.330,11.097 16.153 C 11.223 15.987,11.373 15.859,11.520 15.793 C 11.616 15.749,12.246 15.757,12.414 15.803 " fill="#373B4D" stroke="none" fill-rule="evenodd"></path></svg>