<svg width="24" height="24" viewBox="0 0 24 24" fill="none" xmlns="http://www.w3.org/2000/svg"><path d="M10.760 2.522 C 10.374 2.561,9.778 2.692,9.213 2.863 C 7.699 3.321,6.431 4.086,5.278 5.239 C 4.146 6.370,3.447 7.473,2.937 8.932 C 2.589 9.928,2.429 10.874,2.427 11.940 C 2.425 12.966,2.541 13.773,2.827 14.720 C 3.603 17.286,5.348 19.360,7.722 20.537 C 8.525 20.935,9.507 21.288,10.181 21.420 C 10.954 21.572,12.804 21.593,13.592 21.458 C 14.060 21.378,14.717 21.191,15.300 20.971 C 17.069 20.304,18.595 19.166,19.682 17.700 C 20.542 16.540,21.320 14.686,21.487 13.400 C 21.553 12.883,21.554 11.041,21.487 10.580 C 21.355 9.662,20.930 8.407,20.452 7.520 C 19.135 5.077,16.774 3.289,14.060 2.676 C 13.604 2.573,13.417 2.554,12.540 2.521 C 11.413 2.478,11.186 2.478,10.760 2.522 M12.206 6.094 C 12.482 6.159,12.730 6.302,12.934 6.512 L 13.087 6.671 13.131 9.512 L 13.175 12.353 13.059 12.504 C 12.770 12.884,12.416 13.131,12.087 13.183 C 11.762 13.235,11.360 13.013,11.010 12.587 L 10.840 12.381 10.840 9.607 L 10.840 6.834 11.024 6.595 C 11.219 6.341,11.420 6.186,11.668 6.098 C 11.860 6.029,11.927 6.029,12.206 6.094 M12.442 15.761 C 12.654 15.818,12.895 16.045,13.001 16.288 C 13.127 16.576,13.133 17.060,13.015 17.320 C 12.789 17.818,12.218 18.064,11.662 17.902 C 11.351 17.812,11.048 17.516,10.949 17.205 C 10.872 16.966,10.860 16.614,10.920 16.397 C 10.992 16.139,11.355 15.783,11.615 15.716 C 11.759 15.679,12.233 15.704,12.442 15.761 " fill="#373B4D" stroke="none" fill-rule="evenodd"></path></svg>