<svg width="24" height="24" viewBox="0 0 24 24" fill="none" xmlns="http://www.w3.org/2000/svg"><path d="M11.311 2.693 C 11.207 2.723,11.018 2.816,10.891 2.900 C 10.594 3.096,10.059 3.632,9.853 3.940 C 9.109 5.052,4.593 13.058,3.581 15.060 C 3.106 15.997,2.996 16.302,2.970 16.744 C 2.948 17.118,3.015 17.403,3.213 17.777 C 3.373 18.079,3.883 18.619,4.316 18.946 L 4.652 19.200 11.916 19.200 L 19.180 19.200 19.503 19.017 C 19.856 18.818,20.245 18.498,20.489 18.207 C 20.694 17.961,20.941 17.449,21.022 17.100 C 21.180 16.414,20.930 15.867,18.328 11.220 C 15.991 7.044,14.573 4.582,14.148 3.962 C 13.967 3.698,13.247 2.967,13.060 2.859 C 12.857 2.741,12.541 2.684,11.960 2.659 C 11.642 2.646,11.442 2.656,11.311 2.693 M12.120 6.161 C 12.452 6.204,12.791 6.350,12.874 6.485 C 12.965 6.632,12.998 7.254,13.026 9.332 L 13.053 11.324 12.856 11.525 C 12.748 11.636,12.592 11.762,12.508 11.805 C 12.312 11.907,11.912 11.943,11.680 11.880 C 11.443 11.816,11.106 11.486,11.046 11.260 C 10.980 11.009,10.927 10.116,10.876 8.387 L 10.829 6.793 11.085 6.532 C 11.507 6.100,11.545 6.087,12.120 6.161 M12.551 14.656 C 12.696 14.731,12.813 14.863,12.915 15.068 C 12.985 15.207,13.000 15.309,13.000 15.651 C 13.000 16.038,12.993 16.076,12.885 16.246 C 12.747 16.463,12.579 16.590,12.331 16.665 C 12.096 16.736,11.943 16.734,11.693 16.660 C 11.424 16.580,11.156 16.339,11.038 16.072 C 10.911 15.783,10.907 15.332,11.029 15.098 C 11.131 14.902,11.337 14.691,11.500 14.614 C 11.652 14.542,12.389 14.572,12.551 14.656 " fill="#373B4D" stroke="none" fill-rule="evenodd"></path></svg>