<svg width="24" height="24" viewBox="0 0 24 24" fill="none" xmlns="http://www.w3.org/2000/svg"><path d="M11.251 2.675 C 10.651 2.882,10.138 3.406,9.520 4.440 C 8.591 5.996,4.745 12.845,3.669 14.860 C 2.829 16.433,2.751 16.906,3.186 17.797 C 3.372 18.178,3.803 18.620,4.315 18.955 L 4.690 19.201 11.935 19.190 L 19.180 19.180 19.572 18.988 C 20.435 18.566,20.980 17.798,21.065 16.885 C 21.110 16.399,20.950 15.984,20.154 14.525 C 18.282 11.094,14.659 4.686,14.210 4.010 C 13.937 3.599,13.395 3.016,13.123 2.842 C 12.758 2.608,11.715 2.514,11.251 2.675 M12.500 6.195 C 12.709 6.290,12.906 6.458,12.991 6.615 C 13.054 6.729,13.060 6.941,13.060 9.000 L 13.060 11.260 12.968 11.407 C 12.853 11.593,12.628 11.792,12.443 11.871 C 12.254 11.952,11.746 11.952,11.557 11.871 C 11.376 11.794,11.148 11.594,11.038 11.417 C 10.930 11.242,10.894 10.669,10.855 8.453 L 10.827 6.845 10.984 6.638 C 11.070 6.524,11.230 6.361,11.340 6.276 L 11.540 6.121 11.940 6.122 C 12.242 6.122,12.379 6.140,12.500 6.195 M12.420 14.564 C 12.649 14.627,12.805 14.759,12.939 15.005 C 13.036 15.183,13.059 15.279,13.073 15.562 C 13.086 15.851,13.075 15.936,13.000 16.112 C 12.902 16.340,12.669 16.575,12.452 16.666 C 12.274 16.740,11.833 16.745,11.600 16.675 C 11.238 16.567,10.927 16.125,10.891 15.667 C 10.855 15.222,11.027 14.868,11.389 14.638 C 11.558 14.531,11.607 14.520,11.918 14.520 C 12.106 14.520,12.332 14.540,12.420 14.564 " fill="#373B4D" stroke="none" fill-rule="evenodd"></path></svg>