<svg width="24" height="24" viewBox="0 0 24 24" fill="none" xmlns="http://www.w3.org/2000/svg"><path d="M11.000 2.463 C 8.701 2.737,6.759 3.671,5.175 5.265 C 2.751 7.704,1.820 11.347,2.781 14.634 C 3.551 17.270,5.288 19.358,7.732 20.586 C 8.548 20.996,9.533 21.315,10.507 21.484 C 10.943 21.559,11.167 21.573,12.000 21.573 C 12.833 21.573,13.057 21.559,13.493 21.484 C 16.681 20.930,19.280 18.988,20.644 16.140 C 20.953 15.495,21.137 14.984,21.320 14.263 C 21.528 13.445,21.573 13.025,21.570 11.920 C 21.567 11.152,21.552 10.892,21.483 10.500 C 21.304 9.479,21.026 8.628,20.573 7.714 C 19.332 5.208,17.068 3.393,14.321 2.701 C 13.686 2.541,13.242 2.480,12.412 2.440 C 11.490 2.395,11.587 2.393,11.000 2.463 M12.500 6.138 C 12.734 6.244,12.867 6.361,13.025 6.601 L 13.140 6.774 13.151 9.549 L 13.162 12.325 13.033 12.567 C 12.573 13.430,11.393 13.397,10.932 12.509 L 10.824 12.300 10.822 9.600 L 10.820 6.900 10.918 6.702 C 11.219 6.095,11.883 5.858,12.500 6.138 M12.549 15.763 C 12.978 15.971,13.160 16.290,13.160 16.832 C 13.160 17.089,13.143 17.161,13.032 17.368 C 12.572 18.231,11.349 18.182,10.914 17.283 C 10.785 17.017,10.787 16.572,10.918 16.303 C 11.224 15.674,11.902 15.450,12.549 15.763 " fill="#373B4D" stroke="none" fill-rule="evenodd"></path></svg>