<svg width="24" height="24" viewBox="0 0 24 24" fill="none" xmlns="http://www.w3.org/2000/svg"><path d="M11.360 2.612 C 10.633 2.825,10.203 3.258,9.450 4.540 C 8.356 6.402,3.437 15.216,3.173 15.787 C 2.926 16.321,2.861 16.831,2.981 17.302 C 3.170 18.047,3.683 18.645,4.500 19.074 L 4.740 19.200 11.909 19.200 L 19.078 19.200 19.401 19.082 C 19.962 18.877,20.524 18.392,20.801 17.873 C 20.961 17.572,21.080 17.094,21.080 16.751 C 21.080 16.213,20.997 16.035,19.468 13.280 C 16.911 8.670,14.405 4.257,14.042 3.722 C 13.718 3.246,13.158 2.774,12.775 2.654 C 12.506 2.570,11.597 2.543,11.360 2.612 M12.502 6.161 C 12.724 6.268,12.952 6.494,13.044 6.697 C 13.113 6.849,13.118 7.002,13.119 8.980 C 13.119 10.331,13.104 11.155,13.078 11.250 C 13.017 11.468,12.670 11.809,12.423 11.893 C 12.171 11.979,11.829 11.979,11.577 11.893 C 11.333 11.810,10.984 11.469,10.919 11.250 C 10.890 11.152,10.866 10.368,10.852 8.980 L 10.830 6.860 11.005 6.600 C 11.131 6.413,11.241 6.303,11.398 6.210 C 11.601 6.089,11.642 6.080,11.976 6.080 C 12.255 6.080,12.372 6.098,12.502 6.161 M12.372 14.522 C 12.624 14.586,12.894 14.801,13.002 15.025 C 13.129 15.287,13.159 15.807,13.061 16.062 C 12.883 16.530,12.334 16.844,11.851 16.755 C 11.433 16.678,11.139 16.468,10.972 16.128 C 10.819 15.817,10.815 15.359,10.962 15.065 C 11.064 14.860,11.279 14.650,11.493 14.544 C 11.642 14.471,12.121 14.459,12.372 14.522 " fill="#373B4D" stroke="none" fill-rule="evenodd"></path></svg>