<svg width="24" height="24" viewBox="0 0 24 24" fill="none" xmlns="http://www.w3.org/2000/svg"><path d="M10.460 2.556 C 8.397 2.940,6.796 3.749,5.385 5.120 C 4.496 5.984,3.882 6.821,3.377 7.860 C 2.066 10.554,2.096 13.601,3.462 16.323 C 4.177 17.749,5.334 19.053,6.680 19.949 C 7.607 20.566,8.758 21.065,9.980 21.380 C 10.692 21.563,12.698 21.607,13.602 21.459 C 14.327 21.340,15.373 20.991,16.183 20.597 C 17.678 19.870,19.020 18.714,19.908 17.388 C 20.322 16.768,20.870 15.645,21.111 14.919 C 21.413 14.007,21.475 13.692,21.529 12.787 C 21.595 11.660,21.531 10.569,21.360 9.900 C 21.053 8.702,20.624 7.713,19.996 6.757 C 18.554 4.560,16.139 2.990,13.567 2.575 C 13.303 2.532,12.811 2.507,12.020 2.497 C 11.015 2.484,10.807 2.492,10.460 2.556 M12.183 6.083 C 12.474 6.136,12.694 6.260,12.907 6.490 L 13.069 6.666 13.094 7.143 C 13.107 7.405,13.130 8.686,13.145 9.989 L 13.171 12.358 12.997 12.584 C 12.667 13.012,12.237 13.239,11.862 13.182 C 11.604 13.144,11.290 12.933,11.052 12.640 L 10.842 12.380 10.841 9.608 L 10.840 6.837 10.998 6.623 C 11.204 6.344,11.417 6.171,11.640 6.101 C 11.866 6.031,11.893 6.030,12.183 6.083 M12.541 15.791 C 12.890 15.971,13.070 16.265,13.108 16.717 C 13.165 17.402,12.746 17.904,12.080 17.950 C 11.394 17.997,10.876 17.498,10.876 16.790 C 10.876 16.629,10.896 16.444,10.920 16.378 C 11.030 16.087,11.312 15.807,11.585 15.719 C 11.784 15.655,12.361 15.698,12.541 15.791 " fill="#373B4D" stroke="none" fill-rule="evenodd"></path></svg>