<svg width="24" height="24" viewBox="0 0 24 24" fill="none" xmlns="http://www.w3.org/2000/svg"><path d="M11.338 2.678 C 10.965 2.767,10.344 3.274,9.941 3.820 C 9.577 4.312,8.407 6.334,6.051 10.540 C 3.846 14.479,3.251 15.606,3.059 16.212 C 2.737 17.228,3.159 18.112,4.396 19.010 L 4.658 19.200 11.910 19.200 L 19.163 19.200 19.371 19.094 C 20.134 18.709,20.666 18.141,20.921 17.444 C 21.258 16.519,21.184 16.336,18.528 11.580 C 16.220 7.446,14.629 4.676,14.186 4.020 C 13.886 3.577,13.250 2.930,12.987 2.804 C 12.717 2.673,11.687 2.594,11.338 2.678 M12.128 6.158 C 12.530 6.200,12.802 6.331,12.906 6.531 C 12.987 6.688,13.035 7.929,13.038 9.913 L 13.040 11.326 12.814 11.563 C 12.640 11.746,12.541 11.815,12.386 11.860 C 12.143 11.933,11.846 11.937,11.625 11.871 C 11.410 11.807,11.113 11.512,11.050 11.298 C 10.971 11.033,10.926 10.317,10.875 8.507 L 10.827 6.795 11.163 6.457 C 11.540 6.078,11.496 6.092,12.128 6.158 M12.599 14.681 C 12.737 14.758,12.805 14.834,12.899 15.017 C 13.009 15.232,13.020 15.290,13.020 15.637 C 13.020 15.971,13.007 16.043,12.920 16.198 C 12.721 16.552,12.339 16.747,11.917 16.709 C 11.270 16.651,10.851 16.082,10.938 15.379 C 10.972 15.108,11.154 14.828,11.398 14.671 C 11.574 14.558,11.593 14.555,12.000 14.568 C 12.357 14.580,12.447 14.597,12.599 14.681 " fill="#373B4D" stroke="none" fill-rule="evenodd"></path></svg>