<svg width="24" height="24" viewBox="0 0 24 24" fill="none" xmlns="http://www.w3.org/2000/svg"><path d="M10.780 2.522 C 9.848 2.624,8.586 3.017,7.649 3.498 C 6.239 4.220,4.873 5.459,3.942 6.860 C 3.237 7.919,2.668 9.464,2.501 10.772 C 2.431 11.317,2.420 12.576,2.481 13.081 C 2.696 14.862,3.457 16.662,4.570 18.020 C 4.877 18.396,5.581 19.099,5.937 19.386 C 6.938 20.194,8.256 20.876,9.552 21.258 C 10.154 21.435,10.437 21.479,11.293 21.528 C 12.395 21.591,13.323 21.535,14.020 21.363 C 15.488 21.001,16.913 20.310,18.020 19.422 C 18.626 18.936,19.442 18.067,19.832 17.491 C 20.332 16.753,20.800 15.791,21.123 14.839 C 21.420 13.961,21.478 13.657,21.519 12.742 C 21.551 12.020,21.517 10.595,21.463 10.380 C 21.451 10.336,21.387 10.078,21.320 9.807 C 20.774 7.596,19.537 5.736,17.700 4.361 C 16.366 3.362,14.633 2.668,13.220 2.565 C 12.385 2.504,11.143 2.483,10.780 2.522 M12.500 6.219 C 12.654 6.294,12.847 6.424,12.928 6.508 L 13.076 6.660 13.118 8.980 C 13.141 10.256,13.160 11.550,13.160 11.855 L 13.160 12.410 12.850 12.719 C 12.212 13.355,11.730 13.342,11.098 12.672 L 10.840 12.399 10.840 9.616 L 10.840 6.833 11.024 6.600 C 11.460 6.044,11.906 5.929,12.500 6.219 M12.603 15.848 C 12.953 16.053,13.099 16.383,13.072 16.915 C 13.058 17.200,13.037 17.288,12.951 17.423 C 12.726 17.778,12.440 17.931,12.000 17.934 C 11.678 17.936,11.497 17.870,11.247 17.660 C 10.977 17.433,10.813 16.835,10.915 16.456 C 10.977 16.228,11.169 15.978,11.392 15.835 C 11.575 15.717,11.590 15.714,12.000 15.727 C 12.370 15.739,12.442 15.753,12.603 15.848 " fill="#373B4D" stroke="none" fill-rule="evenodd"></path></svg>