<svg width="24" height="24" viewBox="0 0 24 24" fill="none" xmlns="http://www.w3.org/2000/svg"><path d="M11.480 2.599 C 10.871 2.679,10.291 3.179,9.690 4.143 C 9.130 5.041,5.096 12.224,3.469 15.220 C 2.848 16.364,2.775 16.986,3.167 17.787 C 3.409 18.281,3.849 18.710,4.465 19.052 L 4.731 19.200 11.904 19.200 L 19.078 19.200 19.349 19.098 C 20.355 18.719,21.001 17.878,21.069 16.858 C 21.097 16.440,21.035 16.228,20.672 15.503 C 20.103 14.367,15.735 6.568,14.386 4.280 C 14.075 3.753,13.964 3.603,13.640 3.279 C 13.117 2.755,12.908 2.648,12.311 2.599 C 11.816 2.558,11.798 2.558,11.480 2.599 M12.543 6.190 C 12.706 6.275,12.948 6.512,13.047 6.686 C 13.089 6.761,13.100 7.224,13.100 9.000 C 13.100 11.487,13.120 11.309,12.798 11.628 C 12.539 11.884,12.397 11.940,12.000 11.940 C 11.603 11.940,11.461 11.884,11.202 11.628 C 10.906 11.336,10.909 11.350,10.876 10.080 C 10.859 9.453,10.845 8.465,10.843 7.885 L 10.840 6.831 10.981 6.639 C 11.149 6.409,11.368 6.211,11.537 6.134 C 11.727 6.048,12.335 6.082,12.543 6.190 M12.541 14.591 C 12.890 14.771,13.070 15.065,13.108 15.517 C 13.151 16.029,12.946 16.418,12.512 16.648 C 12.276 16.773,11.782 16.777,11.520 16.656 C 11.112 16.469,10.876 16.077,10.876 15.590 C 10.876 15.429,10.896 15.244,10.920 15.178 C 11.030 14.887,11.312 14.607,11.585 14.519 C 11.784 14.455,12.361 14.498,12.541 14.591 " fill="#373B4D" stroke="none" fill-rule="evenodd"></path></svg>