<svg width="24" height="24" viewBox="0 0 24 24" fill="none" xmlns="http://www.w3.org/2000/svg"><path d="M10.380 2.584 C 9.146 2.805,7.814 3.332,6.818 3.994 C 5.607 4.798,4.441 6.012,3.731 7.210 C 3.095 8.282,2.595 9.799,2.477 11.017 C 2.416 11.644,2.450 13.022,2.538 13.500 C 2.834 15.098,3.464 16.562,4.384 17.783 C 4.692 18.193,5.413 18.941,5.860 19.314 C 6.955 20.230,8.796 21.132,10.113 21.398 C 10.966 21.570,12.647 21.601,13.520 21.460 C 14.869 21.242,16.569 20.504,17.751 19.625 C 18.512 19.058,19.458 18.066,19.930 17.340 C 20.536 16.406,21.175 14.903,21.408 13.860 C 21.477 13.553,21.492 13.309,21.509 12.193 C 21.531 10.702,21.515 10.522,21.278 9.660 C 20.383 6.398,18.040 3.934,14.858 2.907 C 14.259 2.714,13.727 2.612,13.060 2.562 C 12.253 2.502,10.772 2.514,10.380 2.584 M12.546 6.255 C 12.701 6.337,12.883 6.461,12.950 6.532 L 13.073 6.660 13.122 9.539 L 13.171 12.419 12.860 12.708 C 12.488 13.055,12.257 13.177,11.980 13.176 C 11.707 13.174,11.487 13.052,11.132 12.704 L 10.840 12.417 10.840 9.614 L 10.840 6.810 11.100 6.529 C 11.448 6.154,11.615 6.070,11.982 6.091 C 12.210 6.104,12.316 6.135,12.546 6.255 M12.554 15.823 C 12.735 15.938,12.884 16.093,12.972 16.260 C 13.084 16.472,13.095 17.148,12.990 17.345 C 12.779 17.740,12.470 17.919,11.998 17.920 C 11.494 17.920,11.203 17.728,10.995 17.258 C 10.876 16.989,10.868 16.526,10.979 16.301 C 11.075 16.107,11.323 15.853,11.493 15.775 C 11.670 15.695,12.403 15.728,12.554 15.823 " fill="#373B4D" stroke="none" fill-rule="evenodd"></path></svg>