<svg width="24" height="24" viewBox="0 0 24 24" fill="none" xmlns="http://www.w3.org/2000/svg"><path d="M13.440 3.758 C 12.591 3.783,12.526 3.804,12.301 4.111 C 12.036 4.476,11.978 4.962,12.157 5.313 C 12.257 5.510,12.679 5.902,12.827 5.935 C 12.889 5.949,13.683 5.972,14.590 5.986 C 15.498 6.001,16.240 6.023,16.240 6.036 C 16.240 6.049,15.235 7.068,14.007 8.300 C 11.183 11.133,9.482 12.868,8.964 13.443 C 8.540 13.915,8.440 14.105,8.440 14.440 C 8.440 14.807,8.706 15.219,9.056 15.393 C 9.282 15.507,9.686 15.569,9.891 15.522 C 9.979 15.502,10.137 15.407,10.269 15.294 C 10.679 14.945,12.452 13.219,15.213 10.482 C 16.705 9.003,17.937 7.804,17.951 7.818 C 17.965 7.832,17.989 8.536,18.005 9.383 C 18.022 10.326,18.051 10.998,18.080 11.118 C 18.116 11.269,18.174 11.361,18.330 11.514 C 18.967 12.142,19.574 12.098,20.198 11.380 L 20.407 11.140 20.387 7.789 L 20.367 4.439 20.216 4.240 C 20.133 4.131,19.976 3.970,19.867 3.881 L 19.669 3.720 16.925 3.728 C 15.415 3.732,13.847 3.746,13.440 3.758 M5.740 6.158 C 5.149 6.183,5.053 6.217,4.581 6.571 C 4.253 6.816,4.031 7.092,3.785 7.558 L 3.600 7.910 3.600 13.159 L 3.600 18.408 3.756 18.741 C 3.842 18.924,3.970 19.158,4.040 19.260 C 4.310 19.652,4.779 20.047,5.270 20.295 L 5.479 20.401 10.770 20.390 L 16.060 20.380 16.440 20.195 C 17.018 19.913,17.533 19.425,17.764 18.940 C 17.934 18.582,17.960 18.239,17.987 16.027 L 18.011 14.034 17.696 13.724 C 17.342 13.376,17.208 13.320,16.741 13.320 C 16.338 13.320,16.022 13.491,15.779 13.841 C 15.666 14.005,15.665 14.012,15.635 14.813 C 15.619 15.257,15.604 16.155,15.603 16.810 L 15.600 18.000 10.800 18.000 L 6.000 18.000 6.000 13.200 L 6.000 8.400 7.270 8.398 C 8.729 8.395,9.890 8.348,10.051 8.285 C 10.112 8.261,10.250 8.159,10.357 8.059 C 10.880 7.570,10.863 6.753,10.321 6.324 L 10.129 6.173 8.858 6.147 C 7.505 6.118,6.583 6.122,5.740 6.158 " fill="#373B4D" stroke="none" fill-rule="evenodd"></path></svg>