<svg width="24" height="24" viewBox="0 0 24 24" fill="none" xmlns="http://www.w3.org/2000/svg"><path d="M15.440 3.762 C 13.333 3.794,12.765 3.821,12.579 3.898 C 12.422 3.963,12.222 4.193,12.155 4.387 C 12.077 4.608,12.090 5.107,12.178 5.280 C 12.273 5.468,12.508 5.710,12.681 5.800 C 12.916 5.921,13.248 5.959,14.440 6.002 C 15.728 6.049,16.080 6.073,16.080 6.116 C 16.080 6.155,14.947 7.327,12.540 9.780 C 8.848 13.542,8.608 13.804,8.495 14.194 C 8.429 14.419,8.456 14.641,8.578 14.876 C 8.727 15.162,9.173 15.463,9.518 15.509 C 9.764 15.542,10.035 15.425,10.385 15.136 C 10.785 14.805,11.762 13.867,14.860 10.839 C 17.395 8.361,17.875 7.902,17.900 7.927 C 17.909 7.935,17.944 8.553,17.978 9.301 C 18.050 10.824,18.083 11.110,18.219 11.340 C 18.322 11.516,18.626 11.765,18.852 11.859 C 19.231 12.018,19.648 11.869,20.191 11.381 L 20.400 11.193 20.400 7.805 L 20.400 4.418 20.049 4.069 L 19.698 3.720 18.539 3.727 C 17.902 3.730,16.507 3.746,15.440 3.762 M6.400 6.198 L 5.180 6.222 4.944 6.358 C 4.492 6.616,3.964 7.192,3.705 7.709 L 3.600 7.917 3.600 13.180 L 3.600 18.443 3.705 18.651 C 4.029 19.298,4.625 19.926,5.243 20.274 L 5.466 20.400 10.754 20.400 L 16.042 20.400 16.276 20.282 C 16.605 20.116,17.116 19.721,17.380 19.430 C 17.636 19.146,17.822 18.796,17.880 18.485 C 17.947 18.124,17.999 16.769,17.999 15.353 L 18.000 14.006 17.750 13.783 C 17.383 13.455,17.228 13.391,16.787 13.385 C 16.507 13.381,16.386 13.397,16.275 13.452 C 16.064 13.557,15.765 13.873,15.721 14.038 C 15.655 14.280,15.601 15.523,15.601 16.790 L 15.600 18.000 10.800 18.000 L 6.000 18.000 6.000 13.200 L 6.000 8.400 7.134 8.400 C 8.536 8.400,9.842 8.337,10.025 8.260 C 10.194 8.190,10.499 7.878,10.609 7.664 C 10.670 7.544,10.693 7.426,10.693 7.220 C 10.693 6.874,10.605 6.661,10.342 6.370 L 10.153 6.160 8.886 6.167 C 8.190 6.171,7.071 6.185,6.400 6.198 " fill="#373B4D" stroke="none" fill-rule="evenodd"></path></svg>