<svg width="24" height="24" viewBox="0 0 24 24" fill="none" xmlns="http://www.w3.org/2000/svg"><path d="M15.100 3.763 C 13.978 3.780,12.947 3.812,12.809 3.835 C 12.488 3.887,12.352 3.987,12.212 4.271 C 12.118 4.464,12.100 4.550,12.100 4.820 C 12.100 5.195,12.164 5.354,12.414 5.606 C 12.743 5.936,12.931 5.966,15.071 6.025 C 15.628 6.040,16.091 6.066,16.101 6.082 C 16.123 6.118,15.367 6.903,12.540 9.780 C 8.824 13.563,8.628 13.775,8.500 14.160 C 8.332 14.665,8.671 15.230,9.272 15.448 C 9.538 15.545,9.750 15.537,9.982 15.421 C 10.354 15.236,10.772 14.843,14.903 10.796 C 17.698 8.058,17.869 7.896,17.906 7.933 C 17.919 7.946,17.955 8.583,17.985 9.348 C 18.042 10.788,18.071 11.064,18.186 11.306 C 18.261 11.466,18.577 11.734,18.820 11.845 C 19.204 12.021,19.635 11.887,20.130 11.438 L 20.400 11.194 20.400 7.806 L 20.400 4.418 20.049 4.069 L 19.698 3.720 18.419 3.727 C 17.716 3.730,16.222 3.747,15.100 3.763 M6.140 6.198 C 5.186 6.222,5.179 6.222,4.979 6.333 C 4.498 6.597,3.994 7.137,3.718 7.684 L 3.600 7.918 3.600 13.180 L 3.600 18.443 3.705 18.651 C 4.059 19.352,4.679 19.994,5.308 20.314 L 5.477 20.400 10.760 20.400 L 16.043 20.400 16.251 20.295 C 16.842 19.997,17.493 19.410,17.710 18.980 C 17.776 18.848,17.851 18.641,17.875 18.520 C 17.946 18.172,17.999 16.818,17.999 15.353 L 18.000 14.006 17.731 13.763 C 17.385 13.452,17.273 13.401,16.861 13.372 C 16.594 13.353,16.484 13.363,16.343 13.417 C 16.095 13.511,15.779 13.818,15.722 14.020 C 15.655 14.256,15.603 15.459,15.601 16.810 L 15.600 18.000 10.800 18.000 L 6.000 18.000 6.000 13.200 L 6.000 8.400 7.150 8.400 C 8.268 8.399,9.678 8.346,9.959 8.294 C 10.127 8.262,10.467 7.937,10.605 7.677 C 10.679 7.537,10.698 7.437,10.698 7.200 C 10.698 6.849,10.630 6.691,10.340 6.368 L 10.153 6.160 8.626 6.167 C 7.787 6.171,6.668 6.185,6.140 6.198 " fill="#373B4D" stroke="none" fill-rule="evenodd"></path></svg>