<svg width="24" height="24" viewBox="0 0 24 24" fill="none" xmlns="http://www.w3.org/2000/svg"><path d="M15.660 3.762 C 13.613 3.793,12.910 3.821,12.672 3.883 C 12.312 3.977,12.109 4.309,12.112 4.803 C 12.113 5.183,12.202 5.400,12.447 5.621 C 12.764 5.908,12.941 5.939,14.711 6.018 C 15.421 6.050,16.021 6.088,16.044 6.102 C 16.096 6.134,16.165 6.062,12.578 9.740 C 8.853 13.559,8.747 13.673,8.551 14.057 C 8.374 14.404,8.477 14.842,8.805 15.137 C 9.230 15.519,9.634 15.599,10.032 15.381 C 10.389 15.186,10.744 14.852,14.860 10.840 C 17.543 8.225,17.820 7.960,17.877 7.960 C 17.901 7.960,17.920 8.036,17.920 8.130 C 17.921 8.407,18.038 10.565,18.063 10.760 C 18.117 11.177,18.189 11.338,18.419 11.556 C 18.956 12.063,19.408 12.035,20.100 11.452 L 20.380 11.216 20.390 7.819 L 20.400 4.422 20.051 4.071 L 19.702 3.720 18.641 3.727 C 18.057 3.730,16.716 3.746,15.660 3.762 M6.578 6.197 L 5.177 6.220 4.942 6.360 C 4.499 6.624,3.947 7.235,3.686 7.748 L 3.600 7.917 3.600 13.183 L 3.600 18.448 3.741 18.717 C 4.043 19.291,4.616 19.890,5.208 20.250 L 5.455 20.400 10.757 20.399 L 16.060 20.399 16.340 20.242 C 16.706 20.037,17.246 19.601,17.447 19.346 C 17.658 19.079,17.820 18.751,17.875 18.480 C 17.946 18.126,17.999 16.803,18.000 15.353 L 18.000 14.007 17.770 13.803 C 17.397 13.473,17.214 13.400,16.760 13.400 C 16.405 13.400,16.362 13.409,16.198 13.515 C 15.969 13.662,15.820 13.823,15.744 14.004 C 15.659 14.207,15.600 15.364,15.600 16.810 L 15.600 18.000 10.800 18.000 L 6.000 18.000 6.000 13.200 L 6.000 8.400 7.210 8.399 C 8.366 8.398,9.484 8.354,9.876 8.296 C 10.024 8.273,10.101 8.227,10.288 8.049 C 10.613 7.739,10.692 7.557,10.673 7.169 C 10.655 6.809,10.592 6.661,10.337 6.369 L 10.154 6.160 9.067 6.167 C 8.469 6.172,7.349 6.185,6.578 6.197 " fill="#373B4D" stroke="none" fill-rule="evenodd"></path></svg>