<svg width="24" height="24" viewBox="0 0 24 24" fill="none" xmlns="http://www.w3.org/2000/svg"><path d="M14.900 3.761 C 12.890 3.791,12.679 3.805,12.489 3.920 C 12.216 4.087,12.005 4.673,12.085 5.045 C 12.171 5.445,12.556 5.841,12.934 5.917 C 13.114 5.954,15.177 6.040,15.870 6.040 C 16.052 6.040,16.120 6.055,16.120 6.093 C 16.120 6.123,14.774 7.513,13.129 9.183 C 8.801 13.578,8.699 13.686,8.513 14.106 C 8.254 14.692,8.812 15.452,9.543 15.510 C 10.052 15.551,10.093 15.516,13.860 11.815 C 17.318 8.417,17.879 7.875,17.915 7.897 C 17.933 7.908,17.960 8.372,17.975 8.928 C 17.991 9.485,18.020 10.208,18.041 10.536 C 18.084 11.218,18.133 11.344,18.457 11.613 C 19.017 12.076,19.494 12.031,20.116 11.455 L 20.400 11.193 20.400 7.805 L 20.400 4.418 20.049 4.069 L 19.698 3.720 18.239 3.727 C 17.437 3.731,15.934 3.746,14.900 3.761 M5.780 6.198 C 5.195 6.220,5.174 6.224,4.932 6.355 C 4.466 6.607,4.003 7.118,3.705 7.709 L 3.600 7.917 3.600 13.180 L 3.600 18.442 3.738 18.716 C 4.057 19.349,4.638 19.962,5.200 20.257 L 5.472 20.400 10.757 20.400 L 16.042 20.400 16.311 20.264 C 16.671 20.083,17.025 19.817,17.343 19.490 C 17.635 19.189,17.819 18.856,17.880 18.520 C 17.947 18.148,17.999 16.767,17.999 15.354 L 18.000 14.007 17.730 13.760 C 17.358 13.418,17.288 13.387,16.835 13.368 C 16.401 13.349,16.285 13.385,16.003 13.627 C 15.699 13.887,15.673 13.981,15.637 14.979 C 15.619 15.464,15.603 16.341,15.602 16.930 L 15.600 18.000 10.800 18.000 L 6.000 18.000 6.000 13.200 L 6.000 8.400 7.010 8.398 C 8.579 8.395,9.875 8.340,10.040 8.271 C 10.255 8.181,10.587 7.795,10.659 7.550 C 10.792 7.104,10.705 6.758,10.371 6.397 L 10.151 6.160 8.266 6.167 C 7.229 6.171,6.110 6.185,5.780 6.198 " fill="#373B4D" stroke="none" fill-rule="evenodd"></path></svg>