<svg width="24" height="24" viewBox="0 0 24 24" fill="none" xmlns="http://www.w3.org/2000/svg"><path d="M14.080 3.759 C 12.595 3.786,12.539 3.795,12.346 4.048 C 12.086 4.390,11.996 4.788,12.100 5.144 C 12.155 5.335,12.211 5.420,12.416 5.620 C 12.552 5.754,12.717 5.885,12.782 5.910 C 12.860 5.941,13.459 5.969,14.530 5.992 C 15.426 6.011,16.173 6.039,16.188 6.055 C 16.204 6.070,15.262 7.041,14.095 8.212 C 12.928 9.382,11.382 10.943,10.659 11.680 C 8.568 13.812,8.408 14.014,8.451 14.479 C 8.506 15.087,9.007 15.520,9.668 15.530 C 10.093 15.536,9.994 15.624,14.300 11.383 C 17.690 8.044,17.917 7.823,17.939 7.846 C 17.950 7.857,17.978 8.549,18.000 9.383 C 18.023 10.217,18.052 10.963,18.066 11.040 C 18.105 11.260,18.180 11.376,18.427 11.596 C 19.008 12.114,19.548 12.062,20.142 11.432 L 20.400 11.159 20.400 8.866 C 20.400 7.605,20.388 6.080,20.373 5.476 L 20.347 4.380 20.022 4.050 L 19.698 3.720 17.559 3.728 C 16.383 3.732,14.817 3.746,14.080 3.759 M5.880 6.156 C 5.164 6.190,5.036 6.232,4.591 6.570 C 4.266 6.817,4.021 7.118,3.780 7.568 L 3.601 7.900 3.601 13.168 L 3.600 18.436 3.810 18.848 C 4.122 19.460,4.650 19.985,5.269 20.295 L 5.477 20.400 10.750 20.400 L 16.022 20.400 16.319 20.258 C 16.710 20.071,17.044 19.828,17.343 19.515 C 17.637 19.206,17.775 18.978,17.859 18.660 C 17.940 18.357,17.997 16.955,17.999 15.255 L 18.000 14.010 17.721 13.746 C 17.326 13.374,17.255 13.343,16.800 13.341 C 16.452 13.340,16.402 13.350,16.205 13.459 C 15.941 13.606,15.738 13.846,15.681 14.082 C 15.655 14.188,15.628 15.018,15.613 16.130 L 15.588 18.000 10.794 18.000 L 6.000 18.000 6.000 13.200 L 6.000 8.400 7.270 8.399 C 8.631 8.398,9.890 8.345,10.059 8.280 C 10.202 8.226,10.527 7.892,10.612 7.712 C 10.854 7.200,10.718 6.631,10.274 6.289 L 10.105 6.160 9.583 6.160 C 9.295 6.160,8.484 6.152,7.780 6.143 C 7.076 6.134,6.221 6.140,5.880 6.156 " fill="#373B4D" stroke="none" fill-rule="evenodd"></path></svg>