<svg width="24" height="24" viewBox="0 0 24 24" fill="none" xmlns="http://www.w3.org/2000/svg"><path d="M13.380 3.717 C 12.651 3.743,12.589 3.764,12.324 4.065 C 12.134 4.281,12.040 4.552,12.041 4.877 C 12.042 5.166,12.137 5.370,12.393 5.633 C 12.742 5.991,12.663 5.978,14.592 5.992 L 16.284 6.005 13.096 9.212 C 9.500 12.831,8.652 13.710,8.541 13.940 C 8.498 14.030,8.457 14.216,8.448 14.367 C 8.434 14.589,8.448 14.670,8.530 14.847 C 8.728 15.273,9.095 15.518,9.582 15.551 C 9.812 15.566,9.894 15.554,10.023 15.489 C 10.260 15.368,11.451 14.221,14.884 10.809 L 17.987 7.724 18.013 9.430 L 18.039 11.137 18.151 11.318 C 18.295 11.552,18.676 11.857,18.902 11.920 C 19.122 11.982,19.453 11.957,19.649 11.863 C 19.863 11.761,20.130 11.513,20.282 11.277 L 20.413 11.073 20.387 7.776 C 20.366 5.044,20.352 4.460,20.305 4.370 C 20.217 4.200,19.934 3.895,19.769 3.793 L 19.620 3.700 16.820 3.697 C 15.280 3.695,13.732 3.704,13.380 3.717 M5.780 6.115 C 5.273 6.139,5.252 6.144,4.960 6.298 C 4.755 6.406,4.557 6.559,4.335 6.778 C 4.058 7.053,3.981 7.162,3.804 7.525 L 3.596 7.949 3.608 13.185 L 3.620 18.420 3.728 18.689 C 3.883 19.076,4.023 19.299,4.292 19.587 C 4.534 19.846,4.897 20.109,5.269 20.295 L 5.477 20.400 10.589 20.399 C 13.466 20.399,15.811 20.382,15.953 20.362 C 16.113 20.339,16.335 20.262,16.553 20.154 C 16.833 20.016,16.970 19.913,17.264 19.621 C 17.684 19.205,17.853 18.906,17.923 18.460 C 17.948 18.300,17.975 17.299,17.987 16.120 L 18.007 14.060 17.807 13.816 C 17.697 13.682,17.511 13.511,17.394 13.436 C 17.191 13.306,17.166 13.300,16.801 13.300 C 16.459 13.300,16.401 13.311,16.237 13.408 C 16.035 13.527,15.799 13.768,15.701 13.957 C 15.648 14.061,15.635 14.368,15.613 16.039 L 15.587 18.000 10.793 18.000 L 6.000 18.000 6.000 13.206 L 6.000 8.413 7.890 8.387 C 8.930 8.373,9.850 8.349,9.935 8.335 C 10.150 8.298,10.568 7.906,10.668 7.648 C 10.773 7.376,10.765 6.910,10.652 6.700 C 10.524 6.460,10.237 6.200,10.055 6.159 C 9.863 6.115,6.489 6.080,5.780 6.115 " fill="#373B4D" stroke="none" fill-rule="evenodd"></path></svg>