<svg width="24" height="24" viewBox="0 0 24 24" fill="none" xmlns="http://www.w3.org/2000/svg"><path d="M12.835 3.718 C 12.612 3.761,12.326 3.990,12.188 4.235 C 12.089 4.409,12.063 4.510,12.048 4.760 C 12.025 5.168,12.079 5.316,12.354 5.596 C 12.766 6.014,12.686 6.000,14.623 6.000 L 16.300 6.000 13.656 8.650 C 10.410 11.905,8.776 13.575,8.623 13.795 C 8.312 14.244,8.376 14.818,8.783 15.225 C 9.109 15.551,9.763 15.675,10.073 15.469 C 10.361 15.279,11.485 14.192,14.717 10.976 L 17.988 7.722 18.013 9.391 C 18.028 10.309,18.051 11.111,18.065 11.173 C 18.104 11.347,18.493 11.741,18.747 11.865 C 19.283 12.128,19.884 11.897,20.284 11.274 L 20.412 11.074 20.387 7.807 C 20.373 6.010,20.349 4.489,20.335 4.426 C 20.302 4.279,19.860 3.805,19.691 3.734 C 19.587 3.690,18.950 3.681,16.271 3.685 C 14.461 3.687,12.915 3.702,12.835 3.718 M5.359 6.115 C 5.136 6.162,4.611 6.479,4.361 6.720 C 4.090 6.980,3.897 7.270,3.725 7.674 L 3.600 7.968 3.601 13.034 C 3.601 15.820,3.618 18.210,3.637 18.344 C 3.656 18.479,3.734 18.722,3.810 18.884 C 4.088 19.481,4.497 19.890,5.166 20.240 L 5.472 20.400 10.710 20.400 C 15.796 20.400,15.954 20.398,16.174 20.322 C 16.959 20.052,17.618 19.440,17.863 18.754 C 17.953 18.501,17.998 17.476,17.999 15.645 L 18.000 14.071 17.859 13.879 C 17.686 13.644,17.489 13.467,17.280 13.360 C 17.068 13.252,16.532 13.249,16.300 13.355 C 16.105 13.443,15.700 13.871,15.664 14.027 C 15.650 14.089,15.627 15.008,15.613 16.070 L 15.588 18.000 10.794 18.000 L 6.000 18.000 6.000 13.206 L 6.000 8.412 7.930 8.388 C 9.146 8.373,9.915 8.348,10.009 8.321 C 10.191 8.267,10.520 7.954,10.638 7.723 C 10.689 7.623,10.735 7.441,10.748 7.283 C 10.779 6.913,10.696 6.674,10.450 6.424 C 10.108 6.077,10.304 6.101,7.760 6.093 C 6.517 6.089,5.436 6.099,5.359 6.115 " fill="#373B4D" stroke="none" fill-rule="evenodd"></path></svg>