<svg width="24" height="24" viewBox="0 0 24 24" fill="none" xmlns="http://www.w3.org/2000/svg"><path d="M12.823 3.762 C 12.593 3.801,12.470 3.883,12.290 4.116 C 12.042 4.440,11.974 4.949,12.135 5.285 C 12.239 5.502,12.614 5.868,12.790 5.924 C 12.891 5.956,13.482 5.977,14.610 5.990 L 16.280 6.008 13.214 9.094 C 9.818 12.511,8.671 13.702,8.553 13.933 C 8.431 14.173,8.411 14.583,8.511 14.810 C 8.715 15.270,9.122 15.532,9.643 15.537 C 9.912 15.540,9.964 15.528,10.108 15.428 C 10.385 15.236,11.989 13.684,15.026 10.667 C 16.635 9.068,17.960 7.760,17.969 7.760 C 17.979 7.760,17.998 8.515,18.011 9.437 C 18.038 11.319,18.023 11.230,18.348 11.546 C 18.971 12.151,19.663 12.084,20.210 11.365 L 20.400 11.115 20.396 8.948 C 20.394 7.755,20.381 6.246,20.366 5.594 L 20.340 4.408 20.215 4.234 C 20.146 4.138,19.997 3.984,19.884 3.890 L 19.677 3.720 16.349 3.725 C 14.518 3.727,12.931 3.744,12.823 3.762 M5.320 6.155 C 5.009 6.220,4.411 6.642,4.125 6.999 C 4.051 7.091,3.903 7.332,3.796 7.533 L 3.602 7.900 3.601 13.140 L 3.601 18.380 3.738 18.711 C 4.020 19.396,4.526 19.919,5.272 20.296 L 5.485 20.404 10.752 20.392 L 16.020 20.380 16.332 20.250 C 16.718 20.090,16.946 19.936,17.261 19.621 C 17.570 19.312,17.743 19.060,17.846 18.769 C 17.945 18.490,17.994 17.392,17.998 15.352 L 18.000 14.045 17.844 13.865 C 17.443 13.402,17.283 13.320,16.775 13.320 C 16.409 13.320,16.376 13.327,16.192 13.445 C 15.949 13.601,15.732 13.851,15.679 14.037 C 15.655 14.119,15.627 14.993,15.613 16.090 L 15.587 18.000 10.794 18.000 L 6.000 18.000 6.000 13.207 L 6.000 8.413 7.941 8.387 C 10.097 8.358,10.024 8.367,10.337 8.078 C 10.582 7.853,10.675 7.692,10.725 7.407 C 10.807 6.939,10.639 6.538,10.245 6.261 L 10.073 6.140 7.767 6.133 C 6.498 6.129,5.397 6.139,5.320 6.155 " fill="#373B4D" stroke="none" fill-rule="evenodd"></path></svg>