<svg width="24" height="24" viewBox="0 0 24 24" fill="none" xmlns="http://www.w3.org/2000/svg"><path d="M3.040 2.630 C 2.611 2.908,2.457 3.178,2.488 3.600 C 2.510 3.906,2.626 4.121,2.993 4.540 C 3.963 5.646,19.188 20.841,19.852 21.366 C 20.038 21.513,20.061 21.520,20.339 21.520 C 20.499 21.520,20.706 21.493,20.799 21.460 C 21.167 21.331,21.435 20.995,21.512 20.567 C 21.604 20.055,21.445 19.822,19.831 18.100 L 19.531 17.780 20.151 17.140 C 21.460 15.788,22.124 14.905,22.716 13.728 C 23.051 13.062,23.360 12.207,23.360 11.948 C 23.360 11.671,22.819 10.406,22.379 9.655 C 21.704 8.500,20.279 6.886,19.300 6.166 C 18.424 5.521,17.155 4.820,16.143 4.421 C 15.443 4.145,14.520 3.891,14.040 3.842 C 13.526 3.789,10.728 3.788,10.140 3.840 C 9.429 3.903,8.047 4.290,6.939 4.737 L 6.591 4.878 5.805 4.122 C 4.866 3.218,4.340 2.764,4.087 2.638 C 3.947 2.568,3.814 2.540,3.560 2.529 C 3.240 2.515,3.210 2.520,3.040 2.630 M13.036 7.421 C 14.125 7.630,15.051 8.260,15.851 9.338 C 16.173 9.773,16.503 10.457,16.585 10.860 C 16.676 11.313,16.677 12.577,16.587 13.042 C 16.481 13.589,16.214 14.320,16.121 14.320 C 16.085 14.320,14.822 13.138,14.502 12.805 L 14.344 12.641 14.355 12.270 C 14.381 11.345,14.031 10.625,13.308 10.117 C 13.155 10.010,12.932 9.885,12.812 9.840 C 12.585 9.756,12.036 9.682,11.620 9.681 L 11.379 9.680 10.466 8.766 L 9.553 7.852 10.077 7.647 C 10.548 7.463,10.798 7.398,11.240 7.344 C 11.533 7.308,12.711 7.359,13.036 7.421 M2.599 8.190 C 2.223 8.615,1.619 9.613,1.178 10.540 C 0.885 11.157,0.600 11.878,0.600 12.004 C 0.600 12.053,0.701 12.347,0.824 12.657 C 1.441 14.212,2.385 15.629,3.638 16.882 C 4.282 17.526,4.674 17.851,5.360 18.316 C 6.579 19.141,7.673 19.612,9.560 20.124 L 10.180 20.292 11.845 20.310 L 13.510 20.329 14.123 20.202 C 14.460 20.132,14.762 20.061,14.793 20.043 C 14.836 20.019,14.453 19.606,13.305 18.436 L 11.759 16.860 11.429 16.770 C 10.362 16.476,9.924 16.300,9.417 15.958 C 9.023 15.693,8.320 14.992,8.075 14.620 C 7.761 14.143,7.431 13.322,7.257 12.583 L 7.182 12.267 5.004 10.133 C 3.806 8.960,2.812 8.000,2.796 8.000 C 2.780 8.000,2.691 8.085,2.599 8.190 " fill="#373B4D" stroke="none" fill-rule="evenodd"></path></svg>