<svg width="24" height="24" viewBox="0 0 24 24" fill="none" xmlns="http://www.w3.org/2000/svg"><path d="M3.059 2.626 C 2.585 2.940,2.411 3.304,2.519 3.756 C 2.607 4.123,2.908 4.470,4.864 6.459 C 8.496 10.152,19.319 20.915,19.818 21.332 L 20.057 21.531 20.388 21.507 C 20.577 21.494,20.793 21.452,20.890 21.409 C 21.200 21.271,21.470 20.876,21.508 20.500 C 21.554 20.056,21.395 19.810,20.226 18.525 C 19.650 17.892,19.565 17.782,19.609 17.727 C 19.637 17.692,19.955 17.348,20.315 16.962 C 21.226 15.987,21.584 15.552,22.038 14.873 C 22.620 14.002,23.217 12.730,23.329 12.121 C 23.365 11.924,23.358 11.866,23.264 11.586 C 23.103 11.110,22.675 10.172,22.418 9.732 C 21.688 8.488,20.375 6.992,19.300 6.182 C 18.845 5.839,18.024 5.340,17.355 5.000 C 16.402 4.516,15.680 4.235,14.700 3.969 L 14.300 3.860 12.060 3.860 L 9.820 3.860 9.360 3.975 C 8.652 4.151,7.674 4.455,7.104 4.675 L 6.588 4.875 5.809 4.134 C 4.380 2.776,4.180 2.626,3.709 2.558 C 3.324 2.502,3.231 2.512,3.059 2.626 M12.180 7.361 C 13.190 7.428,13.674 7.549,14.233 7.876 C 15.138 8.405,15.841 9.180,16.320 10.177 C 16.426 10.399,16.532 10.652,16.556 10.740 C 16.582 10.836,16.600 11.323,16.600 11.962 C 16.600 12.900,16.591 13.061,16.519 13.333 C 16.438 13.643,16.219 14.234,16.165 14.290 C 16.126 14.331,15.830 14.076,15.036 13.319 L 14.372 12.685 14.348 12.193 C 14.321 11.633,14.261 11.379,14.064 10.980 C 13.823 10.493,13.242 9.999,12.720 9.837 C 12.572 9.791,12.227 9.737,11.920 9.712 L 11.380 9.669 10.471 8.765 C 9.737 8.036,9.574 7.855,9.626 7.826 C 9.816 7.720,10.747 7.427,11.040 7.381 C 11.471 7.313,11.465 7.314,12.180 7.361 M2.579 8.210 C 2.030 8.846,1.057 10.640,0.717 11.642 L 0.589 12.020 0.739 12.420 C 1.344 14.030,2.258 15.448,3.517 16.735 C 4.167 17.399,4.700 17.854,5.320 18.276 C 6.541 19.107,7.414 19.496,9.320 20.058 L 10.220 20.324 12.000 20.310 L 13.780 20.296 14.240 20.184 C 14.493 20.123,14.716 20.057,14.736 20.038 C 14.792 19.985,14.607 19.781,13.129 18.259 C 11.798 16.888,11.763 16.856,11.554 16.804 C 11.091 16.689,10.163 16.363,9.852 16.206 C 9.258 15.907,8.378 15.082,8.002 14.472 C 7.760 14.078,7.495 13.421,7.315 12.767 L 7.180 12.274 5.540 10.668 C 2.971 8.151,2.855 8.040,2.788 8.040 C 2.754 8.040,2.660 8.117,2.579 8.210 " fill="#373B4D" stroke="none" fill-rule="evenodd"></path></svg>