<svg width="24" height="24" viewBox="0 0 24 24" fill="none" xmlns="http://www.w3.org/2000/svg"><path d="M3.033 2.638 C 2.616 2.918,2.451 3.221,2.493 3.629 C 2.522 3.918,2.671 4.170,3.095 4.650 C 3.888 5.547,19.056 20.683,19.795 21.314 L 20.012 21.500 20.376 21.499 C 20.809 21.498,20.979 21.427,21.232 21.139 C 21.531 20.800,21.604 20.344,21.420 19.975 C 21.295 19.725,20.967 19.329,20.177 18.473 C 19.837 18.106,19.560 17.794,19.560 17.780 C 19.560 17.765,19.847 17.454,20.197 17.087 C 21.245 15.990,21.775 15.336,22.273 14.523 C 22.724 13.789,23.219 12.671,23.332 12.132 C 23.371 11.947,23.365 11.887,23.283 11.631 C 23.150 11.213,22.734 10.287,22.467 9.812 C 21.720 8.483,20.213 6.797,19.067 6.007 C 17.594 4.991,15.948 4.243,14.460 3.913 C 14.077 3.828,13.976 3.824,12.100 3.823 C 10.369 3.822,10.093 3.831,9.740 3.896 C 8.991 4.033,7.786 4.396,6.929 4.741 L 6.590 4.878 5.865 4.186 C 4.650 3.027,4.336 2.758,4.050 2.632 C 3.951 2.588,3.741 2.547,3.550 2.534 C 3.230 2.513,3.214 2.516,3.033 2.638 M12.233 7.360 C 13.044 7.405,13.465 7.493,13.944 7.717 C 14.610 8.029,15.298 8.604,15.791 9.260 C 16.027 9.575,16.386 10.248,16.525 10.640 C 16.613 10.886,16.618 10.954,16.619 11.940 C 16.619 12.905,16.612 13.005,16.526 13.320 C 16.415 13.725,16.210 14.269,16.156 14.303 C 16.112 14.329,15.699 13.963,14.893 13.186 L 14.360 12.671 14.360 12.294 C 14.360 11.380,14.050 10.685,13.436 10.224 C 12.926 9.840,12.631 9.743,11.834 9.696 L 11.368 9.668 10.460 8.760 L 9.552 7.851 9.978 7.686 C 10.461 7.499,10.789 7.407,11.139 7.362 C 11.478 7.317,11.465 7.317,12.233 7.360 M2.633 8.151 C 2.048 8.799,1.053 10.621,0.681 11.727 L 0.591 11.994 0.681 12.267 C 0.814 12.672,1.215 13.564,1.470 14.020 C 2.479 15.829,4.007 17.466,5.664 18.512 C 6.764 19.207,7.656 19.582,9.406 20.085 L 10.140 20.296 11.830 20.312 L 13.520 20.327 14.130 20.200 C 14.466 20.130,14.754 20.059,14.772 20.042 C 14.814 20.002,14.457 19.616,12.980 18.105 L 11.764 16.860 11.205 16.705 C 10.479 16.503,9.956 16.296,9.571 16.056 C 9.210 15.831,8.393 15.057,8.140 14.700 C 7.815 14.242,7.527 13.569,7.303 12.744 L 7.172 12.260 5.036 10.168 C 3.861 9.017,2.870 8.059,2.834 8.038 C 2.783 8.010,2.737 8.036,2.633 8.151 " fill="#373B4D" stroke="none" fill-rule="evenodd"></path></svg>