<svg width="24" height="24" viewBox="0 0 24 24" fill="none" xmlns="http://www.w3.org/2000/svg"><path d="M3.208 2.520 C 3.033 2.561,2.729 2.822,2.584 3.055 C 2.484 3.215,2.467 3.284,2.465 3.531 C 2.462 3.945,2.545 4.086,3.230 4.826 C 4.651 6.360,19.483 21.145,19.871 21.414 C 20.088 21.564,20.413 21.597,20.743 21.501 C 21.224 21.361,21.592 20.817,21.548 20.310 C 21.515 19.931,21.344 19.704,20.128 18.421 L 19.523 17.783 20.294 17.001 C 21.578 15.701,22.207 14.816,22.906 13.329 C 23.260 12.575,23.370 12.225,23.349 11.920 C 23.327 11.605,23.101 11.005,22.738 10.297 C 22.104 9.063,21.443 8.165,20.398 7.120 C 19.444 6.165,18.577 5.552,17.260 4.901 C 16.162 4.358,15.345 4.077,14.203 3.850 C 13.671 3.744,13.628 3.742,12.140 3.741 C 10.531 3.740,10.285 3.758,9.382 3.947 C 8.725 4.084,8.106 4.277,7.283 4.601 L 6.586 4.876 5.907 4.214 C 5.092 3.421,4.456 2.842,4.218 2.679 C 3.965 2.505,3.548 2.439,3.208 2.520 M12.320 7.320 C 13.065 7.361,13.301 7.409,13.841 7.635 C 14.515 7.915,15.304 8.548,15.797 9.202 C 16.066 9.560,16.391 10.177,16.545 10.622 C 16.648 10.922,16.656 10.989,16.672 11.806 C 16.685 12.508,16.676 12.737,16.622 13.006 C 16.511 13.559,16.213 14.360,16.117 14.360 C 16.102 14.360,15.691 13.968,15.203 13.490 L 14.317 12.620 14.362 12.360 C 14.438 11.918,14.270 11.181,13.997 10.755 C 13.824 10.486,13.473 10.175,13.077 9.941 C 12.704 9.720,12.543 9.689,11.760 9.683 L 11.379 9.680 10.465 8.765 L 9.551 7.850 10.065 7.648 C 10.687 7.405,10.851 7.359,11.240 7.321 C 11.405 7.304,11.558 7.289,11.580 7.287 C 11.602 7.284,11.935 7.299,12.320 7.320 M2.553 8.228 C 1.882 9.083,1.032 10.649,0.713 11.616 L 0.583 12.012 0.716 12.396 C 1.464 14.546,3.163 16.785,5.080 18.147 C 6.277 18.997,7.692 19.644,9.180 20.020 C 10.341 20.314,10.479 20.329,12.080 20.331 C 13.448 20.332,13.518 20.329,14.000 20.230 C 14.627 20.103,14.840 20.046,14.840 20.006 C 14.840 19.941,11.710 16.800,11.645 16.800 C 11.496 16.800,10.577 16.552,10.231 16.419 C 10.020 16.337,9.690 16.162,9.461 16.009 C 8.992 15.698,8.336 15.063,8.086 14.680 C 7.733 14.140,7.408 13.328,7.255 12.606 L 7.185 12.271 5.031 10.146 C 3.847 8.977,2.846 8.015,2.806 8.008 C 2.759 8.000,2.673 8.075,2.553 8.228 " fill="#373B4D" stroke="none" fill-rule="evenodd"></path></svg>