<svg width="24" height="24" viewBox="0 0 24 24" fill="none" xmlns="http://www.w3.org/2000/svg"><path d="M3.333 2.437 C 3.111 2.492,2.784 2.703,2.651 2.876 C 2.496 3.077,2.400 3.379,2.400 3.663 C 2.400 3.977,2.564 4.187,3.853 5.522 C 5.341 7.065,19.025 20.721,19.529 21.167 C 19.849 21.450,19.955 21.520,20.123 21.561 C 20.523 21.657,20.934 21.536,21.235 21.235 C 21.486 20.985,21.580 20.755,21.579 20.400 C 21.577 19.921,21.522 19.842,20.434 18.739 L 19.484 17.776 19.699 17.604 C 20.065 17.313,21.168 16.161,21.488 15.737 C 22.306 14.654,22.896 13.577,23.298 12.433 L 23.449 12.006 23.338 11.673 C 22.946 10.493,22.256 9.240,21.402 8.160 C 21.010 7.665,19.963 6.610,19.480 6.224 C 18.606 5.526,17.215 4.738,16.200 4.367 C 14.794 3.853,13.529 3.628,12.040 3.629 C 10.192 3.629,8.699 3.947,6.984 4.705 L 6.589 4.880 5.464 3.770 C 4.707 3.023,4.274 2.625,4.140 2.554 C 3.922 2.439,3.546 2.384,3.333 2.437 M12.328 7.241 C 13.237 7.303,13.880 7.517,14.609 7.998 C 15.694 8.716,16.440 9.808,16.698 11.055 C 16.770 11.403,16.781 12.383,16.718 12.818 C 16.669 13.157,16.451 13.821,16.272 14.177 L 16.139 14.440 15.228 13.528 L 14.317 12.617 14.364 12.399 C 14.459 11.954,14.307 11.168,14.045 10.755 C 13.889 10.508,13.523 10.146,13.259 9.978 C 12.811 9.691,12.135 9.549,11.643 9.639 L 11.387 9.686 10.473 8.773 L 9.560 7.861 9.810 7.735 C 10.329 7.474,11.085 7.260,11.680 7.207 C 11.713 7.204,12.004 7.219,12.328 7.241 M2.510 8.273 C 1.778 9.253,1.117 10.446,0.744 11.459 C 0.523 12.060,0.516 11.973,0.850 12.800 C 1.554 14.545,2.483 15.889,3.900 17.214 C 4.487 17.762,4.727 17.953,5.320 18.343 C 5.983 18.780,6.587 19.109,7.253 19.398 C 8.555 19.964,9.830 20.268,11.310 20.369 C 12.325 20.437,13.613 20.336,14.575 20.113 L 14.931 20.031 13.321 18.421 L 11.711 16.811 11.374 16.764 C 10.131 16.590,8.940 15.896,8.201 14.914 C 7.655 14.191,7.366 13.492,7.240 12.596 L 7.198 12.300 5.049 10.148 C 3.867 8.964,2.871 7.979,2.835 7.959 C 2.784 7.930,2.719 7.993,2.510 8.273 " fill="#373B4D" stroke="none" fill-rule="evenodd"></path></svg>