<svg width="24" height="24" viewBox="0 0 24 24" fill="none" xmlns="http://www.w3.org/2000/svg"><path d="M3.108 2.601 C 2.920 2.703,2.668 2.952,2.573 3.128 C 2.526 3.216,2.503 3.346,2.503 3.520 C 2.505 4.020,2.632 4.175,5.099 6.694 C 7.106 8.745,16.321 17.932,18.517 20.072 L 20.015 21.531 20.337 21.507 C 20.798 21.472,20.942 21.420,21.147 21.215 C 21.359 21.003,21.478 20.755,21.508 20.462 C 21.548 20.081,21.343 19.761,20.382 18.700 C 19.880 18.145,19.600 17.811,19.600 17.764 C 19.600 17.748,19.899 17.413,20.264 17.018 C 21.675 15.493,22.181 14.794,22.800 13.510 C 23.152 12.781,23.335 12.251,23.334 11.960 C 23.333 11.693,23.140 11.182,22.707 10.300 C 22.383 9.640,21.954 8.975,21.417 8.300 C 20.929 7.687,19.671 6.443,19.211 6.120 C 17.978 5.253,16.531 4.536,15.080 4.074 L 14.540 3.902 12.147 3.890 L 9.754 3.878 9.147 4.036 C 8.457 4.216,7.470 4.530,6.943 4.737 L 6.587 4.877 5.903 4.228 C 4.928 3.301,4.652 3.053,4.375 2.855 C 4.077 2.642,3.889 2.573,3.533 2.542 C 3.304 2.523,3.235 2.532,3.108 2.601 M12.620 7.404 C 13.187 7.462,13.532 7.546,13.901 7.717 C 14.356 7.929,14.755 8.203,15.146 8.572 C 15.620 9.021,15.955 9.485,16.291 10.157 L 16.580 10.734 16.580 11.937 C 16.580 13.248,16.588 13.186,16.314 13.945 C 16.247 14.129,16.171 14.280,16.144 14.280 C 16.075 14.280,15.756 14.002,15.016 13.298 L 14.372 12.685 14.348 12.212 C 14.304 11.375,14.123 10.922,13.641 10.440 C 13.147 9.946,12.786 9.798,11.877 9.715 L 11.363 9.668 10.501 8.799 C 10.028 8.320,9.640 7.902,9.640 7.869 C 9.640 7.774,10.451 7.500,11.100 7.376 C 11.394 7.321,11.884 7.330,12.620 7.404 M2.596 8.199 C 2.424 8.380,2.020 8.984,1.746 9.468 C 1.279 10.294,0.686 11.596,0.616 11.949 C 0.574 12.162,1.197 13.571,1.703 14.405 C 2.658 15.981,4.035 17.421,5.545 18.423 C 6.612 19.131,7.502 19.511,9.469 20.101 L 10.198 20.320 11.943 20.320 L 13.687 20.320 14.168 20.200 C 14.804 20.040,14.791 20.050,14.639 19.858 C 14.421 19.579,11.971 17.059,11.813 16.949 C 11.729 16.891,11.462 16.781,11.220 16.706 C 9.921 16.302,9.558 16.110,8.830 15.441 C 8.093 14.763,7.629 13.932,7.297 12.690 L 7.187 12.281 5.684 10.808 C 3.541 8.709,2.842 8.040,2.792 8.040 C 2.767 8.040,2.680 8.112,2.596 8.199 " fill="#373B4D" stroke="none" fill-rule="evenodd"></path></svg>