<svg width="24" height="24" viewBox="0 0 24 24" fill="none" xmlns="http://www.w3.org/2000/svg"><path d="M3.316 2.478 C 2.958 2.547,2.580 2.904,2.478 3.269 C 2.395 3.564,2.444 3.883,2.610 4.133 C 2.859 4.509,4.538 6.221,10.559 12.241 C 15.939 17.622,19.405 21.041,19.836 21.395 C 20.010 21.538,20.018 21.540,20.376 21.540 C 20.705 21.540,20.761 21.528,20.954 21.421 C 21.346 21.205,21.560 20.843,21.560 20.403 C 21.559 19.960,21.408 19.747,20.263 18.570 C 19.850 18.147,19.519 17.786,19.527 17.769 C 19.534 17.751,19.726 17.569,19.953 17.363 C 20.662 16.721,21.474 15.778,22.021 14.958 C 22.542 14.178,23.338 12.501,23.386 12.080 C 23.434 11.664,22.735 10.123,21.988 9.000 C 21.218 7.842,19.874 6.476,18.820 5.780 C 16.835 4.469,14.901 3.790,12.900 3.700 C 11.942 3.657,10.297 3.738,9.706 3.858 C 8.845 4.032,7.916 4.324,7.009 4.704 L 6.590 4.879 5.805 4.112 C 4.814 3.144,4.271 2.661,4.063 2.564 C 3.877 2.478,3.527 2.437,3.316 2.478 M12.720 7.322 C 13.687 7.427,14.512 7.841,15.301 8.620 C 15.789 9.102,16.029 9.439,16.325 10.059 C 16.628 10.695,16.723 11.150,16.723 11.968 C 16.722 12.608,16.640 13.120,16.441 13.710 C 16.284 14.176,16.191 14.360,16.113 14.360 C 16.088 14.360,15.674 13.968,15.194 13.490 L 14.320 12.620 14.363 12.350 C 14.415 12.025,14.367 11.649,14.215 11.189 C 14.031 10.631,13.620 10.198,12.963 9.869 L 12.626 9.700 11.999 9.687 L 11.373 9.673 10.463 8.763 L 9.553 7.852 9.887 7.711 C 10.954 7.258,11.473 7.187,12.720 7.322 M2.644 8.102 C 2.476 8.293,1.829 9.280,1.527 9.804 C 1.259 10.270,0.871 11.122,0.701 11.618 C 0.622 11.849,0.599 11.978,0.617 12.089 C 0.684 12.507,1.459 14.158,1.910 14.842 C 2.333 15.483,2.957 16.237,3.620 16.904 C 4.284 17.573,4.631 17.862,5.327 18.323 C 6.854 19.333,8.270 19.893,10.200 20.247 C 10.657 20.331,10.815 20.339,12.040 20.339 C 13.336 20.340,13.400 20.336,13.984 20.228 C 14.720 20.092,14.810 20.069,14.830 20.009 C 14.839 19.983,14.144 19.255,13.287 18.391 L 11.727 16.820 11.273 16.728 C 10.127 16.495,9.382 16.103,8.630 15.336 C 8.201 14.899,7.995 14.612,7.741 14.100 C 7.514 13.643,7.377 13.224,7.258 12.626 L 7.188 12.276 5.008 10.118 C 3.809 8.931,2.814 7.960,2.798 7.960 C 2.782 7.960,2.712 8.024,2.644 8.102 " fill="#373B4D" stroke="none" fill-rule="evenodd"></path></svg>