<svg width="24" height="24" viewBox="0 0 24 24" fill="none" xmlns="http://www.w3.org/2000/svg"><path d="M3.132 2.536 C 2.949 2.619,2.648 2.909,2.548 3.098 C 2.425 3.329,2.427 3.794,2.550 4.027 C 2.698 4.307,3.356 4.992,7.189 8.859 C 10.692 12.393,18.736 20.380,19.570 21.153 C 19.939 21.495,19.973 21.516,20.180 21.542 C 20.453 21.576,20.732 21.536,20.931 21.435 C 21.297 21.247,21.560 20.810,21.560 20.388 C 21.559 19.978,21.390 19.744,20.185 18.482 L 19.518 17.784 20.113 17.202 C 21.329 16.014,22.014 15.102,22.682 13.781 C 23.159 12.838,23.375 12.281,23.373 12.000 C 23.369 11.500,22.652 9.972,21.929 8.920 C 21.165 7.808,19.882 6.502,18.905 5.843 C 17.168 4.671,15.430 3.990,13.580 3.754 C 13.079 3.690,11.343 3.692,10.580 3.758 C 9.453 3.854,8.332 4.153,6.985 4.715 L 6.591 4.880 5.845 4.153 C 4.934 3.264,4.357 2.747,4.123 2.609 C 3.976 2.522,3.886 2.502,3.603 2.491 C 3.365 2.482,3.221 2.496,3.132 2.536 M13.080 7.381 C 14.490 7.690,15.771 8.783,16.385 10.202 C 16.643 10.796,16.691 11.054,16.696 11.880 C 16.698 12.349,16.680 12.730,16.646 12.920 C 16.543 13.489,16.224 14.360,16.119 14.360 C 16.097 14.360,15.683 13.968,15.199 13.490 L 14.318 12.620 14.361 12.360 C 14.410 12.067,14.389 11.832,14.277 11.408 C 14.095 10.724,13.753 10.315,13.019 9.903 L 12.673 9.709 12.021 9.689 L 11.368 9.669 10.461 8.761 L 9.553 7.853 9.947 7.691 C 10.853 7.319,11.076 7.277,12.020 7.298 C 12.516 7.309,12.884 7.338,13.080 7.381 M2.631 8.128 C 1.867 9.087,0.963 10.750,0.676 11.727 L 0.587 12.031 0.713 12.393 C 1.181 13.733,1.992 15.101,2.983 16.220 C 3.814 17.159,4.511 17.781,5.360 18.340 C 6.850 19.322,8.302 19.896,10.180 20.245 C 10.616 20.326,10.787 20.335,12.040 20.336 C 13.392 20.338,13.432 20.336,14.020 20.224 C 14.350 20.162,14.673 20.089,14.738 20.063 L 14.856 20.016 14.151 19.278 C 13.764 18.872,13.054 18.151,12.573 17.675 L 11.700 16.810 11.340 16.741 C 10.932 16.664,10.357 16.488,10.013 16.335 C 9.436 16.080,8.633 15.420,8.199 14.845 C 7.782 14.292,7.429 13.459,7.258 12.626 L 7.186 12.273 5.014 10.127 C 3.819 8.946,2.825 7.975,2.805 7.968 C 2.785 7.962,2.707 8.034,2.631 8.128 " fill="#373B4D" stroke="none" fill-rule="evenodd"></path></svg>