<svg width="24" height="24" viewBox="0 0 24 24" fill="none" xmlns="http://www.w3.org/2000/svg"><path d="M3.196 2.535 C 2.923 2.633,2.616 2.927,2.518 3.186 C 2.494 3.248,2.475 3.413,2.475 3.554 C 2.475 3.928,2.590 4.124,3.205 4.800 C 3.808 5.462,16.297 17.956,18.425 20.026 C 19.198 20.778,19.891 21.426,19.965 21.466 C 20.179 21.582,20.643 21.564,20.904 21.430 C 21.299 21.226,21.537 20.841,21.538 20.400 C 21.539 19.971,21.381 19.749,20.110 18.401 L 19.526 17.782 20.174 17.121 C 21.565 15.701,22.182 14.853,22.862 13.421 C 23.393 12.303,23.442 12.004,23.203 11.340 C 23.036 10.877,22.566 9.935,22.237 9.406 C 21.620 8.415,20.539 7.179,19.600 6.390 C 19.016 5.900,18.223 5.395,17.362 4.966 C 16.201 4.387,15.580 4.161,14.420 3.891 L 13.940 3.780 12.080 3.780 C 10.296 3.780,10.201 3.784,9.760 3.872 C 8.804 4.065,8.022 4.302,7.034 4.699 L 6.588 4.878 5.983 4.289 C 5.137 3.466,4.462 2.856,4.223 2.697 C 3.923 2.497,3.491 2.429,3.196 2.535 M12.752 7.364 C 13.683 7.454,14.508 7.877,15.321 8.680 C 15.856 9.208,16.317 9.949,16.556 10.667 C 16.666 10.994,16.718 12.321,16.642 12.840 C 16.569 13.344,16.224 14.360,16.127 14.360 C 16.112 14.360,15.698 13.968,15.206 13.490 L 14.313 12.620 14.355 12.363 C 14.433 11.896,14.261 11.166,13.971 10.729 C 13.797 10.468,13.372 10.107,13.002 9.906 C 12.691 9.739,12.384 9.682,11.780 9.681 L 11.379 9.680 10.465 8.765 L 9.550 7.849 10.072 7.646 C 10.359 7.534,10.672 7.423,10.768 7.399 C 11.225 7.284,11.821 7.273,12.752 7.364 M2.604 8.180 C 2.067 8.763,1.089 10.540,0.716 11.611 L 0.580 12.000 0.715 12.388 C 1.215 13.822,2.196 15.397,3.330 16.589 C 4.107 17.404,4.640 17.857,5.440 18.382 C 6.722 19.223,8.028 19.760,9.780 20.170 L 10.300 20.291 11.905 20.309 C 13.508 20.327,13.510 20.327,14.025 20.223 C 14.667 20.094,14.840 20.046,14.840 20.000 C 14.840 19.980,14.133 19.256,13.270 18.391 L 11.700 16.819 11.363 16.746 C 10.429 16.543,9.714 16.231,9.167 15.788 C 8.802 15.492,8.271 14.946,8.094 14.683 C 7.770 14.201,7.405 13.299,7.258 12.614 L 7.188 12.288 5.984 11.090 C 4.516 9.630,2.836 8.000,2.798 8.000 C 2.783 8.000,2.695 8.081,2.604 8.180 " fill="#373B4D" stroke="none" fill-rule="evenodd"></path></svg>