<svg width="24" height="24" viewBox="0 0 24 24" fill="none" xmlns="http://www.w3.org/2000/svg"><path d="M10.200 3.764 C 9.151 3.899,7.860 4.315,6.720 4.885 C 4.315 6.087,2.419 7.977,1.247 10.340 C 0.981 10.877,0.661 11.665,0.620 11.885 C 0.564 12.186,1.102 13.478,1.712 14.510 C 2.987 16.661,5.085 18.475,7.421 19.447 C 8.949 20.082,10.344 20.366,11.940 20.366 C 13.869 20.367,15.643 19.951,17.360 19.095 C 18.512 18.521,19.245 17.991,20.255 17.002 C 21.501 15.783,22.166 14.878,22.820 13.507 C 23.228 12.652,23.374 12.253,23.372 12.000 C 23.368 11.343,22.233 9.196,21.305 8.091 C 20.810 7.502,19.582 6.329,19.078 5.963 C 17.397 4.746,15.283 3.905,13.535 3.761 C 12.969 3.714,10.570 3.716,10.200 3.764 M13.213 7.382 C 13.540 7.448,14.193 7.752,14.604 8.030 C 15.511 8.643,16.201 9.524,16.518 10.473 C 16.714 11.058,16.777 12.122,16.661 12.890 C 16.550 13.626,16.307 14.186,15.813 14.843 C 15.181 15.684,14.450 16.201,13.328 16.599 L 12.876 16.760 12.002 16.760 L 11.128 16.760 10.714 16.618 C 10.159 16.427,9.558 16.128,9.234 15.881 C 8.884 15.615,8.267 14.964,8.027 14.607 C 7.762 14.211,7.545 13.763,7.414 13.340 C 7.304 12.987,7.302 12.961,7.301 11.980 L 7.300 10.980 7.429 10.611 C 7.702 9.829,8.081 9.225,8.655 8.659 C 9.460 7.864,10.385 7.384,11.240 7.319 C 11.756 7.279,12.878 7.315,13.213 7.382 M11.572 9.684 C 10.940 9.763,10.192 10.334,9.864 10.989 C 9.556 11.605,9.564 12.412,9.884 13.050 C 10.070 13.421,10.615 13.947,11.003 14.131 C 11.930 14.569,12.858 14.411,13.593 13.689 C 13.765 13.519,13.963 13.298,14.031 13.197 C 14.415 12.628,14.461 11.664,14.136 10.974 C 13.993 10.669,13.436 10.111,13.096 9.931 C 12.697 9.719,12.083 9.620,11.572 9.684 " fill="#373B4D" stroke="none" fill-rule="evenodd"></path></svg>