<svg width="24" height="24" viewBox="0 0 24 24" fill="none" xmlns="http://www.w3.org/2000/svg"><path d="M9.901 3.824 C 8.287 4.074,6.289 4.960,4.800 6.084 C 3.643 6.958,2.582 8.113,1.817 9.329 C 1.273 10.194,0.640 11.615,0.640 11.971 C 0.640 12.451,1.361 14.017,2.044 15.020 C 2.533 15.739,3.285 16.615,3.873 17.151 C 5.730 18.844,7.945 19.903,10.380 20.264 C 11.272 20.396,12.965 20.374,13.873 20.217 C 15.571 19.925,17.458 19.183,18.680 18.328 C 20.036 17.378,21.523 15.790,22.325 14.435 C 22.836 13.571,23.360 12.349,23.360 12.021 C 23.360 11.399,22.234 9.209,21.426 8.260 C 20.701 7.408,19.735 6.472,19.073 5.977 C 17.547 4.839,15.309 3.934,13.688 3.800 C 12.963 3.740,10.334 3.756,9.901 3.824 M13.266 7.405 C 13.557 7.460,14.365 7.870,14.763 8.164 C 15.420 8.650,15.952 9.276,16.293 9.965 C 16.527 10.437,16.619 10.799,16.680 11.478 C 16.785 12.658,16.580 13.632,16.048 14.476 C 15.398 15.508,14.468 16.217,13.214 16.637 C 12.851 16.759,12.842 16.760,11.987 16.760 C 11.130 16.760,11.125 16.759,10.773 16.637 C 10.338 16.486,9.705 16.182,9.363 15.960 C 9.041 15.750,8.488 15.200,8.173 14.775 C 7.905 14.413,7.574 13.796,7.437 13.400 C 7.353 13.161,7.345 13.053,7.329 12.040 L 7.311 10.940 7.451 10.578 C 8.027 9.086,9.049 8.043,10.480 7.488 C 10.679 7.411,10.848 7.381,11.200 7.361 C 11.787 7.329,12.998 7.354,13.266 7.405 M11.457 9.715 C 11.101 9.777,10.491 10.169,10.164 10.547 C 9.561 11.244,9.477 12.420,9.977 13.180 C 10.144 13.435,10.523 13.814,10.780 13.984 C 11.268 14.308,11.955 14.437,12.480 14.304 C 12.943 14.187,13.226 14.019,13.625 13.623 C 14.116 13.135,14.298 12.761,14.345 12.143 C 14.397 11.469,14.182 10.934,13.644 10.395 C 13.267 10.017,12.969 9.838,12.600 9.767 C 12.302 9.710,11.657 9.681,11.457 9.715 " fill="#373B4D" stroke="none" fill-rule="evenodd"></path></svg>