<svg width="24" height="24" viewBox="0 0 24 24" fill="none" xmlns="http://www.w3.org/2000/svg"><path d="M9.844 3.885 C 9.090 3.972,7.916 4.364,6.860 4.880 C 5.121 5.731,3.764 6.835,2.480 8.444 C 1.804 9.291,1.113 10.523,0.797 11.445 C 0.619 11.963,0.711 12.480,1.139 13.386 C 1.681 14.531,2.349 15.495,3.296 16.501 C 4.201 17.463,5.143 18.215,6.189 18.813 C 7.363 19.484,9.376 20.158,10.576 20.281 C 11.250 20.351,13.295 20.312,13.800 20.221 C 15.146 19.977,17.036 19.305,18.042 18.712 C 19.299 17.971,21.033 16.311,21.953 14.967 C 22.616 13.999,23.241 12.666,23.306 12.083 C 23.365 11.545,22.562 9.858,21.647 8.600 C 21.301 8.125,19.892 6.665,19.380 6.252 C 18.412 5.471,17.069 4.758,15.702 4.299 C 14.794 3.994,14.379 3.917,13.420 3.878 C 12.402 3.836,10.231 3.840,9.844 3.885 M13.808 7.677 C 14.484 8.002,14.755 8.187,15.214 8.635 C 15.882 9.289,16.272 9.879,16.486 10.562 C 16.576 10.846,16.580 10.913,16.578 12.020 C 16.577 13.126,16.573 13.192,16.485 13.440 C 16.352 13.816,15.980 14.525,15.769 14.806 C 15.533 15.120,15.005 15.647,14.705 15.868 C 14.405 16.089,13.412 16.579,13.105 16.658 C 12.957 16.696,12.568 16.728,12.065 16.745 C 11.384 16.767,11.220 16.761,11.002 16.704 C 10.600 16.600,9.584 16.086,9.239 15.812 C 8.524 15.244,7.773 14.234,7.518 13.497 C 7.453 13.308,7.429 13.092,7.399 12.440 C 7.379 11.989,7.362 11.426,7.361 11.189 C 7.360 10.776,7.366 10.747,7.498 10.483 C 7.729 10.026,8.081 9.433,8.266 9.192 C 8.535 8.843,9.107 8.296,9.433 8.077 C 9.839 7.805,10.421 7.523,10.660 7.483 C 10.770 7.464,11.413 7.447,12.088 7.445 L 13.316 7.440 13.808 7.677 M11.112 9.895 C 10.532 10.187,10.150 10.538,9.929 10.980 C 9.665 11.509,9.599 12.119,9.754 12.603 C 9.973 13.283,10.655 13.968,11.352 14.207 C 11.729 14.336,12.311 14.336,12.687 14.207 C 13.584 13.899,14.320 12.908,14.320 12.006 C 14.320 11.394,14.128 10.960,13.643 10.479 C 13.080 9.920,12.683 9.760,11.862 9.760 C 11.394 9.760,11.372 9.764,11.112 9.895 " fill="#373B4D" stroke="none" fill-rule="evenodd"></path></svg>