<svg width="24" height="24" viewBox="0 0 24 24" fill="none" xmlns="http://www.w3.org/2000/svg"><path d="M10.180 3.827 C 8.776 3.945,6.919 4.675,5.320 5.739 C 4.656 6.181,4.184 6.584,3.460 7.325 C 2.509 8.299,1.996 8.982,1.452 10.001 C 0.916 11.004,0.680 11.619,0.680 12.014 C 0.680 12.703,1.612 14.505,2.627 15.781 C 3.064 16.330,4.010 17.280,4.550 17.711 C 6.030 18.892,7.756 19.707,9.680 20.133 C 10.505 20.315,10.701 20.329,12.166 20.310 C 13.522 20.291,13.548 20.289,14.120 20.166 C 15.781 19.807,17.433 19.155,18.531 18.423 C 19.566 17.733,21.044 16.260,21.905 15.060 C 22.354 14.434,22.942 13.308,23.196 12.587 C 23.412 11.972,23.373 11.735,22.883 10.675 C 22.415 9.661,21.817 8.728,21.151 7.970 C 20.707 7.465,19.737 6.518,19.332 6.195 C 18.344 5.408,16.913 4.658,15.569 4.226 C 14.799 3.978,14.359 3.891,13.621 3.842 C 13.046 3.804,10.580 3.793,10.180 3.827 M13.336 7.461 C 13.645 7.541,14.446 7.953,14.765 8.195 C 15.101 8.451,15.798 9.172,15.971 9.444 C 16.208 9.815,16.443 10.318,16.521 10.622 C 16.673 11.218,16.707 12.326,16.595 13.020 C 16.470 13.794,15.989 14.686,15.350 15.330 C 14.938 15.744,14.576 16.000,13.980 16.298 C 13.138 16.720,13.122 16.724,12.071 16.749 L 11.163 16.771 10.851 16.662 C 10.259 16.453,9.441 16.026,9.140 15.767 C 8.406 15.135,7.743 14.207,7.475 13.440 C 7.390 13.197,7.384 13.102,7.369 11.980 L 7.354 10.780 7.554 10.360 C 8.178 9.045,8.911 8.268,10.079 7.681 C 10.577 7.430,10.739 7.407,12.002 7.403 C 12.864 7.401,13.154 7.413,13.336 7.461 M11.419 9.748 C 11.259 9.769,10.746 10.053,10.451 10.284 C 10.045 10.601,9.776 11.108,9.682 11.729 C 9.629 12.075,9.649 12.301,9.765 12.676 C 9.870 13.014,10.048 13.279,10.406 13.628 C 10.965 14.175,11.409 14.346,12.178 14.312 C 12.527 14.296,12.624 14.276,12.843 14.173 C 13.377 13.921,13.927 13.382,14.140 12.900 C 14.352 12.421,14.391 11.828,14.243 11.354 C 14.005 10.595,13.171 9.867,12.420 9.761 C 12.149 9.723,11.666 9.717,11.419 9.748 " fill="#373B4D" stroke="none" fill-rule="evenodd"></path></svg>