<svg width="24" height="24" viewBox="0 0 24 24" fill="none" xmlns="http://www.w3.org/2000/svg"><path d="M10.400 3.760 C 8.917 3.869,6.909 4.640,5.301 5.719 C 4.665 6.146,4.116 6.601,3.517 7.199 C 2.614 8.099,1.893 9.086,1.333 10.185 C 0.960 10.915,0.629 11.737,0.625 11.940 C 0.616 12.390,1.341 13.982,2.010 14.980 C 2.604 15.867,3.517 16.882,4.320 17.549 C 6.232 19.137,8.556 20.114,10.920 20.323 C 11.648 20.388,13.019 20.349,13.700 20.245 C 15.605 19.955,17.581 19.161,18.940 18.140 C 20.079 17.285,21.327 15.978,22.046 14.887 C 22.704 13.889,23.360 12.447,23.360 11.998 C 23.360 11.432,22.458 9.627,21.591 8.460 C 21.249 7.999,20.183 6.899,19.540 6.342 C 18.146 5.136,15.845 4.088,14.000 3.820 C 13.501 3.747,11.112 3.707,10.400 3.760 M13.400 7.437 C 14.629 7.856,15.720 8.801,16.289 9.940 C 16.564 10.491,16.661 10.909,16.705 11.740 C 16.783 13.212,16.356 14.349,15.340 15.381 C 14.822 15.906,14.114 16.327,13.227 16.637 C 12.874 16.760,12.873 16.760,12.001 16.760 L 11.128 16.760 10.714 16.616 C 10.095 16.401,9.423 16.044,9.068 15.740 C 8.438 15.203,7.899 14.497,7.602 13.820 C 7.336 13.213,7.320 13.109,7.320 11.950 L 7.320 10.917 7.464 10.528 C 7.885 9.391,8.641 8.488,9.714 7.843 C 10.064 7.633,10.601 7.421,10.935 7.361 C 11.048 7.341,11.590 7.330,12.140 7.336 C 13.049 7.347,13.164 7.356,13.400 7.437 M11.338 9.734 C 10.861 9.890,10.263 10.350,9.998 10.763 C 9.573 11.426,9.530 12.327,9.889 13.046 C 10.061 13.389,10.569 13.893,10.940 14.087 C 11.786 14.529,12.713 14.434,13.424 13.833 C 13.942 13.394,14.190 13.015,14.301 12.493 C 14.466 11.713,14.261 10.992,13.718 10.444 C 13.153 9.872,12.804 9.720,12.000 9.696 C 11.653 9.685,11.450 9.697,11.338 9.734 " fill="#373B4D" stroke="none" fill-rule="evenodd"></path></svg>