<svg width="24" height="24" viewBox="0 0 24 24" fill="none" xmlns="http://www.w3.org/2000/svg"><path d="M10.340 3.798 C 8.956 3.879,7.038 4.599,5.460 5.630 C 4.743 6.098,4.272 6.487,3.558 7.199 C 2.513 8.243,1.852 9.148,1.264 10.340 C 0.610 11.668,0.552 11.965,0.817 12.660 C 1.928 15.580,4.327 18.079,7.245 19.356 C 8.178 19.764,9.123 20.047,10.160 20.228 C 10.735 20.328,10.862 20.336,11.900 20.336 C 12.549 20.336,13.180 20.316,13.400 20.287 C 15.194 20.056,17.364 19.251,18.680 18.328 C 19.883 17.484,21.294 16.016,22.129 14.741 C 22.655 13.937,23.292 12.548,23.347 12.085 C 23.378 11.817,23.180 11.250,22.755 10.400 C 22.163 9.215,21.709 8.549,20.893 7.669 C 20.383 7.119,19.760 6.531,19.280 6.147 C 17.922 5.061,15.814 4.124,14.127 3.856 C 13.680 3.785,11.209 3.747,10.340 3.798 M13.136 7.398 C 13.443 7.438,14.100 7.734,14.604 8.060 C 14.960 8.290,15.548 8.853,15.837 9.241 C 16.089 9.579,16.365 10.085,16.484 10.431 C 16.676 10.983,16.746 12.321,16.620 12.990 C 16.354 14.390,15.381 15.627,14.020 16.297 C 13.778 16.416,13.436 16.564,13.260 16.626 C 12.952 16.735,12.908 16.740,12.054 16.752 L 11.168 16.765 10.797 16.641 C 10.340 16.488,9.535 16.091,9.263 15.885 C 8.560 15.352,7.897 14.487,7.529 13.622 C 7.406 13.333,7.388 13.244,7.358 12.760 C 7.339 12.463,7.323 11.926,7.322 11.567 C 7.320 10.952,7.326 10.898,7.426 10.647 C 7.843 9.594,8.446 8.766,9.209 8.197 C 9.739 7.802,10.406 7.472,10.809 7.404 C 11.090 7.358,12.787 7.353,13.136 7.398 M11.099 9.854 C 10.768 10.014,10.378 10.301,10.176 10.533 C 9.833 10.926,9.613 11.618,9.657 12.165 C 9.701 12.724,9.879 13.112,10.285 13.540 C 10.827 14.111,11.296 14.328,12.000 14.335 C 12.343 14.338,12.467 14.322,12.680 14.247 C 13.361 14.006,14.073 13.280,14.262 12.633 C 14.370 12.263,14.362 11.621,14.245 11.300 C 14.127 10.975,13.923 10.678,13.601 10.363 C 13.085 9.858,12.717 9.722,11.859 9.721 C 11.394 9.720,11.368 9.725,11.099 9.854 " fill="#373B4D" stroke="none" fill-rule="evenodd"></path></svg>