<svg width="24" height="24" viewBox="0 0 24 24" fill="none" xmlns="http://www.w3.org/2000/svg"><path d="M9.880 3.867 C 7.957 4.171,5.709 5.273,4.113 6.694 C 3.453 7.281,2.603 8.229,2.111 8.927 C 1.627 9.612,1.057 10.702,0.795 11.440 C 0.600 11.993,0.700 12.502,1.205 13.520 C 1.869 14.859,2.596 15.841,3.766 16.980 C 4.581 17.774,5.303 18.316,6.260 18.852 C 7.406 19.493,9.357 20.150,10.489 20.277 C 10.956 20.329,12.742 20.332,13.302 20.281 C 14.687 20.156,16.932 19.396,18.196 18.625 C 19.318 17.940,20.829 16.499,21.793 15.194 C 22.374 14.407,22.908 13.401,23.187 12.568 C 23.304 12.217,23.326 12.103,23.309 11.921 C 23.241 11.190,22.291 9.380,21.387 8.258 C 21.051 7.842,19.782 6.569,19.375 6.240 C 17.895 5.046,15.499 4.014,13.898 3.881 C 13.451 3.844,10.099 3.832,9.880 3.867 M13.866 7.700 C 14.547 8.026,14.788 8.193,15.264 8.669 C 15.951 9.356,16.340 9.973,16.518 10.658 C 16.590 10.938,16.600 11.094,16.599 11.978 C 16.599 12.704,16.582 13.057,16.540 13.260 C 16.467 13.607,16.080 14.395,15.793 14.780 C 15.488 15.189,14.943 15.722,14.609 15.938 C 14.206 16.198,13.302 16.630,13.060 16.679 C 12.950 16.701,12.491 16.731,12.040 16.745 C 11.062 16.777,11.018 16.768,10.173 16.361 C 9.476 16.026,9.314 15.917,8.865 15.483 C 8.153 14.793,7.538 13.817,7.440 13.219 C 7.418 13.088,7.388 12.483,7.374 11.876 L 7.347 10.772 7.617 10.256 C 7.765 9.972,7.987 9.587,8.110 9.400 C 8.388 8.978,8.999 8.360,9.411 8.085 C 9.748 7.859,10.348 7.548,10.540 7.499 C 10.779 7.438,11.479 7.412,12.400 7.430 L 13.340 7.448 13.866 7.700 M11.395 9.773 C 11.138 9.845,10.642 10.137,10.385 10.366 C 10.009 10.701,9.780 11.160,9.677 11.786 C 9.594 12.289,9.774 12.878,10.150 13.332 C 10.745 14.051,11.411 14.368,12.201 14.307 C 12.774 14.263,13.250 14.007,13.718 13.491 C 14.229 12.928,14.413 12.283,14.276 11.537 C 14.142 10.803,13.340 9.995,12.560 9.808 C 12.253 9.734,11.601 9.714,11.395 9.773 " fill="#373B4D" stroke="none" fill-rule="evenodd"></path></svg>