<svg width="24" height="24" viewBox="0 0 24 24" fill="none" xmlns="http://www.w3.org/2000/svg"><path d="M10.115 3.839 C 8.344 4.013,5.933 5.121,4.333 6.496 C 3.509 7.204,2.540 8.276,2.005 9.073 C 1.491 9.837,0.884 11.067,0.736 11.642 C 0.615 12.115,0.745 12.620,1.242 13.600 C 1.946 14.989,2.685 15.963,3.961 17.182 C 4.877 18.057,6.057 18.828,7.300 19.363 C 8.268 19.780,9.638 20.174,10.479 20.278 C 10.896 20.330,12.641 20.331,13.320 20.280 C 14.414 20.199,16.359 19.593,17.654 18.931 C 18.549 18.473,19.281 17.916,20.244 16.960 C 21.686 15.528,22.484 14.372,23.101 12.823 C 23.416 12.031,23.396 11.798,22.921 10.763 C 22.501 9.846,22.019 9.051,21.431 8.308 C 21.051 7.828,19.846 6.615,19.361 6.225 C 17.928 5.071,15.617 4.053,14.040 3.881 C 13.545 3.827,10.561 3.795,10.115 3.839 M13.574 7.550 C 13.747 7.619,14.089 7.788,14.334 7.927 C 14.715 8.144,14.852 8.252,15.284 8.680 C 15.971 9.361,16.322 9.922,16.529 10.672 C 16.605 10.947,16.615 11.088,16.617 11.980 C 16.620 13.099,16.599 13.239,16.323 13.881 C 16.012 14.606,15.334 15.439,14.698 15.879 C 14.322 16.139,13.447 16.578,13.138 16.661 C 12.971 16.706,12.642 16.732,12.037 16.748 C 11.277 16.769,11.149 16.763,10.957 16.700 C 10.589 16.579,9.978 16.295,9.574 16.057 C 8.809 15.607,7.967 14.597,7.552 13.630 C 7.441 13.371,7.424 13.280,7.396 12.780 C 7.379 12.472,7.364 11.890,7.363 11.487 L 7.360 10.755 7.641 10.202 C 8.249 9.003,8.903 8.312,9.960 7.749 C 10.563 7.429,10.742 7.402,12.220 7.416 L 13.260 7.426 13.574 7.550 M11.480 9.747 C 11.186 9.796,10.586 10.147,10.287 10.447 C 9.997 10.737,9.784 11.182,9.696 11.681 C 9.634 12.034,9.633 12.085,9.694 12.381 C 9.795 12.878,9.957 13.163,10.377 13.583 C 10.956 14.162,11.430 14.351,12.200 14.308 C 12.782 14.276,13.206 14.048,13.725 13.487 C 14.177 12.999,14.343 12.537,14.310 11.860 C 14.286 11.379,14.199 11.132,13.921 10.754 C 13.511 10.195,12.920 9.829,12.317 9.759 C 11.981 9.721,11.669 9.716,11.480 9.747 " fill="#373B4D" stroke="none" fill-rule="evenodd"></path></svg>