<svg width="24" height="24" viewBox="0 0 24 24" fill="none" xmlns="http://www.w3.org/2000/svg"><path d="M11.173 3.641 C 8.364 3.831,5.725 5.010,3.674 6.991 C 2.428 8.195,1.511 9.561,0.850 11.200 C 0.516 12.026,0.523 11.944,0.738 12.521 C 1.069 13.414,1.595 14.428,2.114 15.180 C 2.724 16.062,3.700 17.109,4.520 17.760 C 8.161 20.653,13.045 21.200,17.220 19.184 C 18.285 18.669,19.191 18.059,19.963 17.338 C 21.264 16.121,22.048 15.102,22.730 13.740 C 23.040 13.121,23.416 12.167,23.416 12.000 C 23.416 11.830,23.037 10.872,22.719 10.240 C 22.037 8.884,21.279 7.896,20.000 6.697 C 18.851 5.620,17.273 4.708,15.652 4.187 C 14.301 3.752,12.600 3.544,11.173 3.641 M12.873 7.283 C 13.740 7.422,14.693 7.929,15.382 8.618 C 16.031 9.266,16.418 9.948,16.661 10.874 C 16.749 11.209,16.760 11.329,16.760 12.000 C 16.760 12.669,16.749 12.792,16.662 13.126 C 16.411 14.085,16.031 14.741,15.322 15.440 C 14.700 16.053,14.034 16.421,13.081 16.679 C 12.828 16.747,12.659 16.760,12.001 16.760 C 11.284 16.760,11.189 16.751,10.842 16.656 C 9.904 16.399,9.313 16.061,8.644 15.398 C 8.045 14.806,7.546 13.972,7.363 13.260 C 7.225 12.725,7.176 12.075,7.232 11.530 C 7.297 10.896,7.405 10.504,7.656 9.980 C 8.140 8.973,8.985 8.126,9.973 7.658 C 10.398 7.457,11.011 7.282,11.420 7.245 C 11.788 7.212,12.555 7.232,12.873 7.283 M11.536 9.656 C 10.991 9.760,10.433 10.120,10.073 10.600 C 9.625 11.198,9.491 12.013,9.723 12.720 C 9.862 13.143,9.952 13.281,10.339 13.669 C 10.744 14.076,10.933 14.185,11.460 14.320 C 11.856 14.421,12.144 14.421,12.540 14.320 C 13.067 14.185,13.256 14.076,13.661 13.669 C 14.048 13.281,14.138 13.143,14.277 12.720 C 14.518 11.986,14.357 11.117,13.872 10.534 C 13.271 9.812,12.412 9.489,11.536 9.656 " fill="#373B4D" stroke="none" fill-rule="evenodd"></path></svg>