<svg width="24" height="24" viewBox="0 0 24 24" fill="none" xmlns="http://www.w3.org/2000/svg"><path d="M10.620 3.802 C 9.843 3.834,9.488 3.890,8.757 4.101 C 7.479 4.469,5.913 5.256,4.827 6.076 C 3.813 6.842,2.607 8.131,1.918 9.188 C 1.566 9.727,0.916 11.016,0.781 11.444 C 0.599 12.022,0.648 12.318,1.089 13.301 C 1.937 15.185,3.459 16.996,5.219 18.212 C 6.723 19.251,8.332 19.904,10.220 20.241 C 10.643 20.317,10.847 20.327,11.940 20.327 C 13.311 20.326,13.582 20.298,14.584 20.060 C 15.909 19.744,17.344 19.168,18.329 18.557 C 19.551 17.799,21.152 16.198,22.084 14.803 C 22.418 14.302,22.894 13.374,23.148 12.730 C 23.431 12.009,23.412 11.835,22.938 10.786 C 22.475 9.762,21.891 8.821,21.269 8.100 C 20.814 7.572,19.909 6.672,19.440 6.281 C 18.154 5.209,16.166 4.269,14.453 3.922 C 13.902 3.810,11.946 3.749,10.620 3.802 M13.380 7.461 C 13.723 7.576,14.225 7.825,14.580 8.057 C 14.973 8.313,15.617 8.936,15.895 9.329 C 16.167 9.714,16.464 10.316,16.535 10.631 C 16.704 11.372,16.717 12.601,16.564 13.220 C 16.302 14.281,15.632 15.231,14.667 15.915 C 14.398 16.105,13.602 16.507,13.220 16.644 C 13.008 16.721,12.873 16.733,12.060 16.750 L 11.140 16.769 10.740 16.620 C 10.520 16.538,10.106 16.352,9.820 16.207 C 9.321 15.952,9.280 15.921,8.798 15.441 C 8.245 14.888,7.959 14.491,7.636 13.827 C 7.381 13.302,7.355 13.127,7.347 11.840 L 7.340 10.820 7.523 10.418 C 8.082 9.187,8.778 8.396,9.820 7.810 C 10.537 7.406,10.808 7.358,12.260 7.380 C 12.989 7.390,13.222 7.407,13.380 7.461 M11.240 9.794 C 11.018 9.881,10.645 10.117,10.383 10.335 C 9.845 10.784,9.543 11.709,9.696 12.440 C 9.793 12.903,9.968 13.208,10.360 13.600 C 10.901 14.141,11.333 14.326,12.053 14.325 C 12.511 14.324,12.749 14.259,13.099 14.036 C 13.999 13.466,14.438 12.628,14.321 11.705 C 14.252 11.163,14.062 10.824,13.556 10.341 C 13.047 9.854,12.666 9.720,11.800 9.723 C 11.534 9.723,11.366 9.745,11.240 9.794 " fill="#373B4D" stroke="none" fill-rule="evenodd"></path></svg>