<svg width="24" height="24" viewBox="0 0 24 24" fill="none" xmlns="http://www.w3.org/2000/svg"><path d="M11.140 3.042 C 7.852 3.380,5.031 5.454,3.729 8.490 C 2.958 10.286,2.796 12.371,3.279 14.280 C 3.451 14.960,3.611 15.391,3.940 16.060 C 4.877 17.964,6.379 19.428,8.300 20.308 C 8.916 20.590,9.807 20.868,10.450 20.978 L 10.600 21.004 10.600 17.842 L 10.600 14.680 9.460 14.680 L 8.320 14.680 8.320 13.381 L 8.320 12.081 9.450 12.071 L 10.580 12.060 10.604 10.680 C 10.627 9.363,10.632 9.282,10.731 8.913 C 11.010 7.864,11.610 7.169,12.562 6.789 C 12.971 6.626,13.416 6.560,14.106 6.560 C 14.650 6.560,15.736 6.646,15.930 6.704 C 15.994 6.724,16.000 6.813,16.000 7.839 L 16.000 8.953 15.170 8.969 C 14.428 8.982,14.320 8.993,14.153 9.069 C 13.877 9.195,13.666 9.407,13.536 9.690 L 13.420 9.940 13.420 11.000 L 13.420 12.060 14.650 12.071 C 15.327 12.076,15.881 12.094,15.881 12.111 C 15.882 12.127,15.797 12.712,15.692 13.410 L 15.501 14.680 14.451 14.680 L 13.400 14.680 13.400 17.842 L 13.400 21.004 13.550 20.978 C 15.383 20.664,17.211 19.679,18.501 18.310 C 20.818 15.851,21.585 12.404,20.531 9.187 C 19.906 7.276,18.606 5.588,16.900 4.470 C 15.819 3.762,14.600 3.297,13.300 3.099 C 12.806 3.023,11.624 2.992,11.140 3.042 " fill="#373B4D" stroke="none" fill-rule="evenodd"></path></svg>