<svg width="24" height="24" viewBox="0 0 24 24" fill="none" xmlns="http://www.w3.org/2000/svg"><path d="M10.820 3.107 C 9.726 3.247,8.403 3.714,7.395 4.315 C 6.046 5.121,4.847 6.370,4.127 7.720 C 3.007 9.819,2.730 12.083,3.318 14.342 C 3.893 16.553,5.359 18.548,7.286 19.742 C 7.752 20.031,8.417 20.352,8.940 20.542 C 9.427 20.718,10.294 20.960,10.441 20.960 L 10.547 20.960 10.574 20.234 C 10.588 19.834,10.600 18.421,10.600 17.094 L 10.600 14.680 9.460 14.680 L 8.320 14.680 8.320 13.381 L 8.320 12.081 9.450 12.071 L 10.580 12.060 10.608 11.020 C 10.650 9.482,10.692 9.082,10.856 8.623 C 11.146 7.812,11.527 7.375,12.320 6.947 C 12.855 6.658,12.973 6.640,14.218 6.642 C 15.338 6.645,15.853 6.675,15.915 6.742 C 15.935 6.763,15.964 7.268,15.979 7.864 L 16.007 8.947 15.374 8.974 C 14.627 9.006,14.242 9.056,14.073 9.144 C 13.897 9.234,13.638 9.513,13.509 9.750 L 13.399 9.953 13.409 11.007 L 13.420 12.060 14.440 12.089 C 15.001 12.105,15.539 12.129,15.636 12.142 L 15.811 12.167 15.789 12.453 C 15.777 12.611,15.708 13.177,15.636 13.710 L 15.505 14.680 14.448 14.680 L 13.391 14.680 13.406 17.817 C 13.414 19.543,13.433 20.966,13.448 20.981 C 13.484 21.017,14.237 20.826,14.820 20.633 C 15.971 20.251,16.998 19.651,17.945 18.807 C 19.603 17.330,20.624 15.381,20.923 13.120 C 20.997 12.562,20.987 11.398,20.902 10.820 C 20.398 7.373,18.062 4.582,14.754 3.475 C 13.843 3.170,13.129 3.077,11.780 3.086 C 11.318 3.089,10.886 3.099,10.820 3.107 " fill="#373B4D" stroke="none" fill-rule="evenodd"></path></svg>