<svg width="24" height="24" viewBox="0 0 24 24" fill="none" xmlns="http://www.w3.org/2000/svg"><path d="M10.600 3.116 C 7.636 3.634,5.230 5.419,3.938 8.060 C 3.502 8.950,3.216 9.889,3.073 10.900 C 2.996 11.440,3.008 12.799,3.094 13.359 C 3.247 14.346,3.524 15.221,3.955 16.080 C 5.207 18.572,7.281 20.214,10.019 20.883 C 10.282 20.947,10.521 21.000,10.549 21.000 C 10.590 21.000,10.600 20.374,10.600 17.840 L 10.600 14.680 9.460 14.680 L 8.320 14.680 8.320 13.381 L 8.320 12.081 9.450 12.071 L 10.580 12.060 10.606 10.761 C 10.635 9.296,10.644 9.199,10.786 8.746 C 11.064 7.860,11.547 7.286,12.340 6.901 C 12.896 6.631,13.190 6.580,14.160 6.583 C 14.992 6.585,15.867 6.655,15.940 6.725 C 15.964 6.749,15.985 7.196,15.992 7.856 L 16.004 8.947 15.156 8.973 C 14.396 8.995,14.291 9.007,14.128 9.086 C 13.874 9.209,13.652 9.445,13.515 9.737 L 13.399 9.987 13.409 11.023 L 13.420 12.060 14.627 12.080 C 15.290 12.091,15.843 12.110,15.855 12.121 C 15.867 12.133,15.792 12.714,15.688 13.411 L 15.501 14.680 14.450 14.680 L 13.400 14.680 13.400 17.844 L 13.400 21.007 13.570 20.979 C 13.893 20.926,14.641 20.721,15.030 20.578 C 18.035 19.473,20.234 16.888,20.835 13.752 C 21.280 11.436,20.786 8.998,19.475 7.040 C 18.136 5.039,16.156 3.699,13.786 3.193 C 13.249 3.078,13.164 3.071,12.120 3.057 C 11.187 3.045,10.956 3.054,10.600 3.116 " fill="#373B4D" stroke="none" fill-rule="evenodd"></path></svg>