<svg width="24" height="24" viewBox="0 0 24 24" fill="none" xmlns="http://www.w3.org/2000/svg"><path d="M10.940 3.083 C 9.786 3.183,8.232 3.746,7.125 4.466 C 6.353 4.968,5.533 5.706,5.005 6.375 C 3.855 7.832,3.160 9.601,3.038 11.383 C 2.925 13.037,3.228 14.597,3.941 16.033 C 5.188 18.545,7.236 20.180,10.012 20.879 C 10.294 20.950,10.537 20.996,10.552 20.981 C 10.568 20.966,10.585 19.542,10.591 17.817 L 10.602 14.680 9.461 14.680 L 8.320 14.680 8.320 13.381 L 8.320 12.081 9.450 12.071 L 10.580 12.060 10.606 10.900 C 10.620 10.262,10.643 9.604,10.656 9.438 C 10.723 8.612,11.125 7.799,11.711 7.308 C 12.016 7.051,12.662 6.734,13.040 6.655 C 13.513 6.556,15.828 6.615,15.943 6.729 C 15.953 6.740,15.973 7.246,15.987 7.854 L 16.013 8.960 15.636 8.962 C 14.857 8.966,14.270 9.022,14.098 9.110 C 13.892 9.216,13.634 9.495,13.502 9.756 L 13.399 9.960 13.409 11.010 L 13.420 12.060 14.500 12.085 C 15.094 12.098,15.638 12.112,15.710 12.115 C 15.816 12.119,15.840 12.136,15.841 12.210 C 15.842 12.260,15.766 12.835,15.672 13.490 L 15.502 14.680 14.451 14.680 L 13.400 14.680 13.400 17.840 C 13.400 19.811,13.414 21.000,13.438 21.000 C 13.658 21.000,14.818 20.667,15.338 20.455 C 18.269 19.260,20.349 16.643,20.883 13.480 C 21.004 12.763,21.015 11.451,20.906 10.780 C 20.649 9.196,20.097 7.862,19.206 6.667 C 17.888 4.901,16.088 3.732,13.896 3.218 C 13.295 3.077,11.795 3.009,10.940 3.083 " fill="#373B4D" stroke="none" fill-rule="evenodd"></path></svg>