<svg width="24" height="24" viewBox="0 0 24 24" fill="none" xmlns="http://www.w3.org/2000/svg"><path d="M10.840 3.117 C 9.692 3.241,8.115 3.834,7.060 4.538 C 4.695 6.118,3.269 8.574,3.038 11.465 C 2.945 12.628,3.152 14.023,3.589 15.180 C 4.367 17.237,5.805 18.927,7.655 19.954 C 7.894 20.087,8.313 20.287,8.586 20.399 C 9.111 20.615,10.249 20.960,10.436 20.960 L 10.548 20.960 10.574 20.354 C 10.588 20.020,10.600 18.607,10.600 17.214 L 10.600 14.680 9.460 14.680 L 8.320 14.680 8.320 13.381 L 8.320 12.081 9.450 12.071 L 10.580 12.060 10.608 11.080 C 10.660 9.308,10.718 8.894,11.004 8.283 C 11.213 7.835,11.428 7.565,11.797 7.287 C 12.273 6.928,12.714 6.728,13.143 6.674 C 13.500 6.630,15.582 6.653,15.806 6.704 C 15.903 6.726,15.913 6.748,15.934 6.974 C 15.947 7.109,15.969 7.608,15.983 8.081 L 16.009 8.943 15.215 8.990 C 14.211 9.051,14.082 9.087,13.791 9.391 C 13.394 9.808,13.397 9.796,13.409 11.010 L 13.420 12.060 14.360 12.089 C 14.877 12.105,15.415 12.129,15.555 12.143 L 15.811 12.168 15.787 12.434 C 15.774 12.580,15.705 13.146,15.635 13.690 L 15.506 14.680 14.449 14.680 L 13.391 14.680 13.406 17.798 C 13.415 19.860,13.434 20.930,13.461 20.957 C 13.512 21.008,14.222 20.832,14.900 20.600 C 17.742 19.625,19.943 17.221,20.699 14.266 C 20.925 13.383,20.971 12.941,20.951 11.852 C 20.935 11.018,20.919 10.833,20.823 10.360 C 20.395 8.244,19.245 6.337,17.612 5.036 C 16.405 4.074,14.887 3.385,13.520 3.181 C 13.037 3.109,11.304 3.067,10.840 3.117 " fill="#373B4D" stroke="none" fill-rule="evenodd"></path></svg>