<svg width="24" height="24" viewBox="0 0 24 24" fill="none" xmlns="http://www.w3.org/2000/svg"><path d="M11.080 3.081 C 10.084 3.149,8.958 3.490,7.844 4.060 C 6.471 4.762,5.233 5.905,4.399 7.240 C 4.141 7.653,3.729 8.497,3.558 8.960 C 2.688 11.330,2.876 14.054,4.063 16.267 C 5.191 18.370,6.914 19.853,9.100 20.600 C 9.565 20.759,10.236 20.943,10.440 20.968 L 10.540 20.980 10.565 20.440 C 10.579 20.143,10.593 18.726,10.595 17.290 L 10.600 14.680 9.460 14.680 L 8.320 14.680 8.320 13.381 L 8.320 12.081 9.450 12.071 L 10.580 12.060 10.590 11.560 C 10.595 11.285,10.616 10.637,10.637 10.120 C 10.670 9.297,10.688 9.136,10.778 8.828 C 11.038 7.940,11.501 7.362,12.268 6.968 C 12.936 6.626,12.975 6.619,14.260 6.626 C 15.198 6.631,15.887 6.672,15.940 6.728 C 15.947 6.734,15.966 7.240,15.982 7.850 L 16.011 8.960 15.636 8.961 C 15.148 8.961,14.412 9.023,14.197 9.081 C 13.986 9.138,13.651 9.463,13.503 9.753 L 13.399 9.960 13.409 11.010 L 13.420 12.060 14.599 12.091 C 15.247 12.108,15.793 12.137,15.812 12.156 C 15.843 12.187,15.792 12.617,15.572 14.190 L 15.504 14.680 14.451 14.680 L 13.398 14.680 13.409 17.817 C 13.415 19.542,13.433 20.966,13.449 20.982 C 13.484 21.017,14.186 20.844,14.777 20.653 C 16.046 20.244,17.206 19.541,18.195 18.581 C 18.969 17.829,19.524 17.087,19.978 16.200 C 20.562 15.058,20.882 13.904,20.963 12.642 C 21.106 10.433,20.470 8.341,19.108 6.542 C 18.786 6.118,18.026 5.340,17.600 5.001 C 16.322 3.983,14.605 3.251,13.200 3.126 C 12.518 3.065,11.601 3.045,11.080 3.081 " fill="#373B4D" stroke="none" fill-rule="evenodd"></path></svg>