<svg width="24" height="24" viewBox="0 0 24 24" fill="none" xmlns="http://www.w3.org/2000/svg"><path d="M4.443 6.124 C 4.143 6.216,3.847 6.499,3.715 6.820 C 3.656 6.965,3.610 10.114,3.604 14.366 L 3.600 17.192 3.850 17.451 C 4.353 17.971,4.769 18.064,5.320 17.783 C 5.810 17.532,6.819 16.886,9.481 15.117 L 12.000 13.443 12.000 15.316 L 12.000 17.189 12.334 17.509 C 12.708 17.869,13.023 18.027,13.271 17.981 C 13.576 17.923,14.234 17.522,16.680 15.902 C 19.878 13.785,20.826 13.122,21.230 12.723 C 21.572 12.385,21.649 12.148,21.539 11.770 C 21.406 11.312,21.001 10.998,17.800 8.861 C 16.755 8.164,15.370 7.251,14.723 6.833 L 13.546 6.072 13.203 6.099 C 12.830 6.130,12.613 6.206,12.408 6.379 C 12.102 6.638,12.068 6.829,11.978 8.840 C 11.943 9.643,11.897 10.317,11.878 10.337 C 11.856 10.359,11.803 10.356,11.743 10.329 C 11.619 10.272,10.456 9.525,8.360 8.154 C 6.481 6.925,5.680 6.421,5.328 6.243 C 5.047 6.102,4.678 6.052,4.443 6.124 " fill="#373B4D" stroke="none" fill-rule="evenodd"></path></svg>