<svg width="24" height="24" viewBox="0 0 24 24" fill="none" xmlns="http://www.w3.org/2000/svg"><path d="M4.396 6.135 C 4.036 6.264,3.720 6.640,3.674 6.994 C 3.658 7.118,3.633 9.452,3.617 12.180 L 3.590 17.140 3.738 17.331 C 4.059 17.747,4.506 17.990,4.872 17.949 C 5.242 17.907,5.856 17.530,9.550 15.072 L 12.000 13.442 12.000 15.313 L 12.000 17.184 12.274 17.471 C 12.546 17.756,12.828 17.930,13.101 17.982 C 13.417 18.043,13.895 17.759,17.320 15.475 C 20.419 13.409,20.844 13.111,21.224 12.737 C 21.482 12.483,21.516 12.430,21.558 12.229 C 21.593 12.061,21.593 11.963,21.559 11.833 C 21.448 11.410,21.254 11.220,20.140 10.439 C 19.273 9.830,15.817 7.529,14.561 6.724 L 13.541 6.070 13.185 6.097 C 12.759 6.129,12.623 6.181,12.385 6.399 C 12.075 6.685,12.064 6.760,11.961 9.333 C 11.939 9.879,11.911 10.342,11.898 10.363 C 11.885 10.384,11.822 10.372,11.750 10.335 C 11.577 10.245,10.357 9.461,8.740 8.400 C 6.150 6.700,5.471 6.275,5.150 6.153 C 4.929 6.069,4.603 6.061,4.396 6.135 " fill="#373B4D" stroke="none" fill-rule="evenodd"></path></svg>