<svg width="24" height="24" viewBox="0 0 24 24" fill="none" xmlns="http://www.w3.org/2000/svg"><path d="M4.303 6.166 C 4.063 6.293,3.734 6.642,3.684 6.824 C 3.654 6.930,3.632 8.601,3.614 12.048 L 3.587 17.117 3.701 17.281 C 3.983 17.688,4.411 17.960,4.771 17.960 C 5.176 17.960,5.552 17.733,9.490 15.112 L 12.000 13.441 12.000 15.299 L 12.000 17.156 12.200 17.396 C 12.438 17.682,12.669 17.848,12.959 17.943 C 13.402 18.088,13.499 18.032,17.860 15.118 C 20.469 13.375,20.871 13.091,21.226 12.742 C 21.485 12.487,21.517 12.438,21.559 12.232 C 21.598 12.038,21.594 11.965,21.535 11.752 C 21.414 11.319,21.208 11.150,18.800 9.520 C 17.405 8.575,15.470 7.300,14.324 6.571 L 13.540 6.072 13.175 6.092 C 12.767 6.115,12.622 6.171,12.387 6.394 C 12.073 6.693,12.056 6.785,12.002 8.500 C 11.956 9.959,11.928 10.400,11.883 10.400 C 11.817 10.400,11.021 9.895,9.120 8.647 C 6.438 6.887,5.758 6.452,5.368 6.251 C 5.066 6.095,5.011 6.080,4.748 6.082 C 4.536 6.083,4.418 6.106,4.303 6.166 " fill="#373B4D" stroke="none" fill-rule="evenodd"></path></svg>