<svg width="24" height="24" viewBox="0 0 24 24" fill="none" xmlns="http://www.w3.org/2000/svg"><path d="M4.500 6.117 C 4.210 6.188,3.856 6.497,3.736 6.783 C 3.658 6.970,3.602 9.988,3.601 14.105 L 3.600 17.190 3.864 17.454 C 4.199 17.788,4.478 17.931,4.791 17.929 C 5.207 17.925,5.622 17.676,9.570 15.056 L 12.000 13.443 12.000 15.313 L 12.000 17.183 12.230 17.407 C 12.760 17.923,13.049 18.057,13.390 17.943 C 13.754 17.823,15.184 16.914,18.300 14.823 C 20.270 13.502,20.824 13.100,21.202 12.722 C 21.564 12.361,21.630 12.200,21.560 11.860 C 21.483 11.487,21.219 11.219,20.240 10.520 C 19.680 10.120,15.733 7.486,14.460 6.663 L 13.540 6.069 13.176 6.111 C 12.788 6.156,12.494 6.273,12.332 6.447 C 12.113 6.682,12.067 6.975,11.981 8.700 C 11.910 10.139,11.889 10.360,11.823 10.360 C 11.760 10.360,11.105 9.945,8.920 8.521 C 6.114 6.692,5.465 6.287,5.180 6.188 C 4.969 6.114,4.649 6.081,4.500 6.117 " fill="#373B4D" stroke="none" fill-rule="evenodd"></path></svg>