<svg width="24" height="24" viewBox="0 0 24 24" fill="none" xmlns="http://www.w3.org/2000/svg"><path d="M4.325 6.145 C 4.052 6.281,3.737 6.596,3.680 6.790 C 3.649 6.894,3.629 8.490,3.614 12.040 L 3.593 17.140 3.787 17.391 C 4.028 17.703,4.304 17.902,4.586 17.965 C 5.046 18.068,5.140 18.013,9.670 14.993 L 12.000 13.440 12.000 15.281 L 12.000 17.122 12.101 17.282 C 12.343 17.666,12.761 17.949,13.141 17.989 C 13.487 18.024,13.636 17.934,17.480 15.377 C 21.191 12.908,21.416 12.738,21.539 12.311 C 21.614 12.052,21.595 11.801,21.480 11.536 C 21.364 11.265,20.758 10.820,17.980 8.963 C 15.980 7.626,15.065 7.027,14.144 6.452 L 13.548 6.080 13.212 6.080 C 12.840 6.080,12.679 6.130,12.436 6.323 C 12.231 6.486,12.091 6.731,12.061 6.980 C 12.048 7.090,12.021 7.907,12.001 8.796 C 11.981 9.684,11.949 10.427,11.931 10.445 C 11.912 10.464,10.952 9.856,9.798 9.094 C 7.254 7.415,5.985 6.587,5.642 6.380 C 5.045 6.020,4.699 5.959,4.325 6.145 " fill="#373B4D" stroke="none" fill-rule="evenodd"></path></svg>