<svg width="24" height="24" viewBox="0 0 24 24" fill="none" xmlns="http://www.w3.org/2000/svg"><path d="M13.059 6.137 C 12.756 6.205,12.541 6.295,12.373 6.422 C 12.135 6.605,12.085 6.901,11.960 8.880 C 11.915 9.595,11.868 10.211,11.856 10.250 C 11.844 10.288,11.812 10.320,11.784 10.320 C 11.715 10.320,10.961 9.848,8.880 8.500 C 6.449 6.926,5.768 6.500,5.389 6.317 C 5.090 6.173,5.037 6.160,4.729 6.160 C 4.410 6.160,4.383 6.167,4.173 6.306 C 3.891 6.493,3.774 6.674,3.723 7.000 C 3.662 7.388,3.601 10.997,3.600 14.287 L 3.600 17.194 3.890 17.458 C 4.260 17.795,4.451 17.889,4.777 17.892 C 4.984 17.894,5.079 17.870,5.325 17.753 C 5.844 17.507,7.212 16.632,10.330 14.553 L 12.000 13.440 12.000 15.315 L 12.000 17.191 12.247 17.420 C 12.382 17.545,12.592 17.714,12.713 17.794 C 12.901 17.919,12.966 17.940,13.159 17.940 C 13.557 17.940,14.031 17.659,17.280 15.500 C 20.633 13.272,21.302 12.761,21.526 12.254 C 21.700 11.863,21.398 11.388,20.600 10.795 C 19.909 10.281,14.944 6.967,13.874 6.306 C 13.522 6.088,13.394 6.062,13.059 6.137 " fill="#373B4D" stroke="none" fill-rule="evenodd"></path></svg>