<svg width="24" height="24" viewBox="0 0 24 24" fill="none" xmlns="http://www.w3.org/2000/svg"><path d="M13.120 6.120 C 12.652 6.200,12.342 6.363,12.226 6.589 C 12.099 6.838,12.044 7.338,11.959 9.040 C 11.903 10.147,11.878 10.342,11.795 10.336 C 11.714 10.330,11.197 10.003,8.720 8.394 C 6.294 6.818,5.892 6.564,5.443 6.325 C 5.148 6.168,5.068 6.144,4.801 6.128 C 4.545 6.114,4.468 6.125,4.329 6.196 C 4.115 6.304,3.906 6.489,3.799 6.662 C 3.665 6.879,3.641 7.649,3.614 12.640 L 3.589 17.180 3.885 17.461 C 4.224 17.783,4.414 17.887,4.707 17.912 C 5.173 17.951,5.437 17.796,9.630 15.016 L 12.000 13.444 12.000 15.317 L 12.000 17.191 12.258 17.432 C 12.783 17.924,13.058 18.047,13.380 17.938 C 13.752 17.812,14.665 17.243,17.142 15.597 C 19.971 13.717,20.759 13.156,21.213 12.703 C 21.544 12.371,21.630 12.170,21.561 11.884 C 21.465 11.484,21.194 11.203,20.273 10.548 C 19.763 10.185,15.474 7.323,14.348 6.593 C 13.507 6.048,13.517 6.052,13.120 6.120 " fill="#373B4D" stroke="none" fill-rule="evenodd"></path></svg>