<svg width="24" height="24" viewBox="0 0 24 24" fill="none" xmlns="http://www.w3.org/2000/svg"><path d="M13.035 6.140 C 12.752 6.197,12.475 6.319,12.331 6.450 C 12.135 6.630,12.069 7.038,11.982 8.601 C 11.918 9.764,11.885 10.180,11.852 10.267 C 11.803 10.393,11.872 10.434,8.800 8.446 C 5.216 6.127,5.246 6.145,4.737 6.142 C 4.430 6.140,4.403 6.147,4.190 6.288 C 3.883 6.492,3.774 6.648,3.721 6.961 C 3.662 7.309,3.604 10.938,3.602 14.386 L 3.600 17.193 3.889 17.460 C 4.283 17.825,4.431 17.898,4.780 17.897 C 5.031 17.897,5.095 17.879,5.395 17.726 C 5.950 17.441,7.379 16.521,10.570 14.393 L 12.000 13.439 12.000 15.316 L 12.000 17.194 12.290 17.460 C 12.675 17.814,12.928 17.959,13.161 17.960 C 13.514 17.960,14.015 17.665,16.880 15.769 C 19.917 13.758,20.769 13.151,21.234 12.661 C 21.580 12.296,21.636 12.144,21.541 11.818 C 21.459 11.534,21.138 11.188,20.563 10.764 C 19.664 10.100,13.942 6.301,13.624 6.156 C 13.435 6.070,13.393 6.069,13.035 6.140 " fill="#373B4D" stroke="none" fill-rule="evenodd"></path></svg>