<svg width="24" height="24" viewBox="0 0 24 24" fill="none" xmlns="http://www.w3.org/2000/svg"><path d="M8.520 1.559 C 7.720 1.593,7.452 1.655,6.861 1.939 C 5.519 2.584,4.609 3.907,4.532 5.324 C 4.465 6.547,4.841 7.544,5.706 8.442 L 6.051 8.800 5.706 9.158 C 5.169 9.716,4.803 10.342,4.638 10.988 C 4.526 11.426,4.526 12.574,4.638 13.012 C 4.803 13.658,5.169 14.284,5.706 14.842 L 6.051 15.200 5.706 15.558 C 4.841 16.456,4.465 17.453,4.532 18.676 C 4.625 20.383,5.890 21.881,7.635 22.351 C 7.978 22.443,8.094 22.454,8.700 22.454 C 9.311 22.454,9.420 22.443,9.779 22.347 C 11.238 21.956,12.373 20.846,12.758 19.435 C 12.881 18.987,12.919 18.357,12.920 16.810 L 12.920 15.399 13.290 15.585 C 13.780 15.832,14.139 15.951,14.600 16.022 C 15.747 16.197,16.898 15.933,17.756 15.299 C 18.757 14.560,19.357 13.546,19.440 12.450 C 19.480 11.926,19.433 11.195,19.340 10.887 C 19.153 10.271,18.793 9.676,18.295 9.159 L 17.951 8.802 18.289 8.443 C 19.229 7.444,19.591 6.401,19.442 5.119 C 19.275 3.684,18.349 2.457,16.989 1.871 C 16.222 1.540,16.406 1.554,12.600 1.541 C 10.741 1.534,8.905 1.543,8.520 1.559 M11.080 5.606 L 11.080 7.931 9.690 7.909 C 8.162 7.885,8.035 7.868,7.583 7.629 C 7.212 7.432,6.748 6.968,6.579 6.624 C 6.336 6.131,6.272 5.653,6.380 5.144 C 6.538 4.395,7.090 3.762,7.851 3.452 C 8.163 3.326,8.581 3.294,10.010 3.286 L 11.080 3.280 11.080 5.606 M15.200 3.316 C 15.983 3.351,16.109 3.386,16.600 3.701 C 17.143 4.050,17.493 4.545,17.620 5.144 C 17.728 5.653,17.664 6.131,17.421 6.624 C 17.252 6.968,16.788 7.432,16.417 7.629 C 15.965 7.868,15.838 7.885,14.310 7.909 L 12.920 7.931 12.920 5.606 L 12.920 3.280 13.710 3.283 C 14.145 3.284,14.815 3.299,15.200 3.316 M11.080 12.006 L 11.080 14.331 9.690 14.309 C 8.162 14.285,8.035 14.268,7.583 14.029 C 7.212 13.832,6.748 13.368,6.579 13.024 C 6.336 12.531,6.272 12.053,6.380 11.544 C 6.538 10.795,7.090 10.162,7.851 9.852 C 8.163 9.726,8.581 9.694,10.010 9.686 L 11.080 9.680 11.080 12.006 M16.100 9.840 C 16.660 10.054,17.224 10.547,17.442 11.012 C 17.576 11.297,17.679 11.728,17.679 12.000 C 17.679 12.292,17.571 12.720,17.421 13.024 C 17.178 13.518,16.598 14.000,16.011 14.197 C 15.707 14.298,15.071 14.310,14.690 14.220 C 13.967 14.049,13.292 13.447,13.032 12.740 C 12.959 12.540,12.944 12.416,12.944 12.000 C 12.944 11.584,12.959 11.460,13.032 11.260 C 13.288 10.564,13.957 9.960,14.671 9.780 C 15.026 9.690,15.793 9.722,16.100 9.840 M11.072 17.490 C 11.057 18.822,11.051 18.913,10.968 19.140 C 10.708 19.847,10.033 20.449,9.310 20.620 C 8.929 20.710,8.293 20.698,7.989 20.597 C 7.402 20.400,6.822 19.918,6.579 19.424 C 6.429 19.120,6.321 18.692,6.321 18.400 C 6.321 17.489,6.938 16.618,7.840 16.256 C 8.167 16.125,8.570 16.094,10.014 16.086 L 11.088 16.080 11.072 17.490 " fill="#373B4D" stroke="none" fill-rule="evenodd"></path></svg>