<svg width="24" height="24" viewBox="0 0 24 24" fill="none" xmlns="http://www.w3.org/2000/svg"><path d="M7.933 1.579 C 6.474 1.844,5.219 2.900,4.743 4.265 C 4.562 4.782,4.508 5.161,4.531 5.756 C 4.556 6.419,4.644 6.782,4.917 7.341 C 5.151 7.820,5.335 8.075,5.749 8.490 L 6.057 8.800 5.749 9.110 C 5.335 9.525,5.151 9.780,4.917 10.259 C 4.602 10.904,4.545 11.173,4.545 12.000 C 4.545 12.827,4.602 13.096,4.917 13.741 C 5.151 14.220,5.335 14.475,5.749 14.890 L 6.057 15.200 5.749 15.510 C 5.335 15.925,5.151 16.180,4.917 16.659 C 4.644 17.218,4.556 17.581,4.531 18.244 C 4.508 18.839,4.562 19.218,4.743 19.735 C 5.083 20.709,5.840 21.558,6.800 22.041 C 8.112 22.700,9.774 22.614,11.000 21.822 C 11.701 21.369,12.295 20.671,12.584 19.960 C 12.874 19.248,12.920 18.822,12.920 16.876 C 12.920 16.064,12.927 15.400,12.936 15.400 C 12.945 15.400,13.058 15.459,13.186 15.532 C 13.802 15.878,14.370 16.039,15.086 16.069 C 16.313 16.120,17.346 15.746,18.195 14.940 C 18.807 14.360,19.153 13.774,19.387 12.920 C 19.442 12.717,19.457 12.511,19.456 11.980 C 19.455 11.175,19.395 10.898,19.083 10.259 C 18.850 9.781,18.665 9.525,18.253 9.112 L 17.947 8.804 18.332 8.402 C 18.908 7.802,19.251 7.165,19.409 6.400 C 19.474 6.086,19.484 5.922,19.467 5.460 C 19.439 4.732,19.320 4.284,18.999 3.688 C 18.407 2.592,17.295 1.798,16.045 1.579 C 15.581 1.497,8.381 1.498,7.933 1.579 M11.080 5.604 L 11.080 7.928 9.670 7.910 C 8.108 7.890,8.074 7.885,7.543 7.608 C 7.219 7.438,6.799 7.038,6.611 6.718 C 6.448 6.443,6.320 5.949,6.320 5.600 C 6.320 5.251,6.448 4.757,6.611 4.482 C 6.800 4.161,7.219 3.762,7.543 3.593 C 8.093 3.308,8.207 3.293,9.850 3.285 L 11.080 3.280 11.080 5.604 M15.960 3.378 C 16.540 3.562,17.103 3.997,17.389 4.482 C 17.552 4.757,17.680 5.251,17.680 5.600 C 17.680 5.949,17.552 6.443,17.389 6.718 C 17.201 7.038,16.781 7.438,16.457 7.608 C 15.926 7.885,15.892 7.890,14.330 7.910 L 12.920 7.928 12.920 5.600 L 12.920 3.272 14.330 3.290 C 15.525 3.305,15.774 3.319,15.960 3.378 M11.080 12.004 L 11.080 14.328 9.670 14.310 C 8.108 14.290,8.074 14.285,7.543 14.008 C 7.219 13.838,6.799 13.438,6.611 13.118 C 6.448 12.843,6.320 12.349,6.320 12.000 C 6.320 11.651,6.448 11.157,6.611 10.882 C 6.800 10.561,7.219 10.162,7.543 9.993 C 8.093 9.708,8.207 9.693,9.850 9.685 L 11.080 9.680 11.080 12.004 M15.960 9.787 C 16.508 9.937,17.100 10.391,17.389 10.882 C 17.552 11.157,17.680 11.651,17.680 12.000 C 17.680 12.349,17.552 12.843,17.389 13.118 C 17.097 13.614,16.518 14.055,15.941 14.222 C 15.567 14.330,14.942 14.315,14.549 14.188 C 13.795 13.945,13.170 13.304,12.981 12.578 C 12.903 12.277,12.903 11.723,12.981 11.422 C 13.161 10.733,13.747 10.101,14.439 9.848 C 14.909 9.677,15.478 9.654,15.960 9.787 M11.080 17.412 C 11.080 18.478,11.068 18.790,11.019 18.978 C 10.830 19.704,10.205 20.345,9.451 20.588 C 9.058 20.715,8.433 20.730,8.059 20.622 C 7.482 20.455,6.903 20.014,6.611 19.518 C 6.448 19.243,6.320 18.749,6.320 18.400 C 6.320 18.051,6.449 17.557,6.611 17.284 C 6.879 16.833,7.365 16.427,7.860 16.242 C 8.207 16.112,8.477 16.091,9.850 16.085 L 11.080 16.080 11.080 17.412 " fill="#373B4D" stroke="none" fill-rule="evenodd"></path></svg>