<svg width="24" height="24" viewBox="0 0 24 24" fill="none" xmlns="http://www.w3.org/2000/svg"><path d="M9.020 1.600 C 7.793 1.624,7.682 1.633,7.443 1.716 C 6.068 2.196,5.041 3.240,4.685 4.520 C 4.550 5.005,4.501 5.574,4.554 6.038 C 4.658 6.957,5.027 7.698,5.790 8.522 L 6.047 8.800 5.778 9.090 C 5.214 9.697,4.915 10.174,4.695 10.820 C 4.591 11.126,4.586 11.177,4.583 11.960 C 4.580 12.845,4.595 12.942,4.813 13.480 C 5.016 13.981,5.280 14.372,5.778 14.910 L 6.047 15.200 5.759 15.510 C 4.893 16.444,4.542 17.282,4.543 18.420 C 4.544 18.821,4.564 19.021,4.632 19.292 C 4.992 20.738,5.987 21.774,7.540 22.321 L 7.900 22.448 8.760 22.428 C 9.602 22.408,9.627 22.405,9.980 22.279 C 10.694 22.025,11.121 21.760,11.654 21.243 C 12.325 20.592,12.701 19.867,12.841 18.960 C 12.867 18.793,12.896 17.942,12.908 17.035 L 12.930 15.410 13.308 15.587 C 13.517 15.684,13.852 15.821,14.053 15.890 C 14.419 16.016,14.423 16.017,15.260 16.018 C 16.027 16.020,16.128 16.012,16.420 15.926 C 17.158 15.709,17.683 15.391,18.275 14.799 C 18.867 14.207,19.240 13.563,19.364 12.920 C 19.444 12.505,19.434 11.277,19.348 10.960 C 19.194 10.392,18.773 9.689,18.239 9.110 L 17.953 8.800 18.194 8.537 C 19.437 7.180,19.760 5.841,19.224 4.270 C 19.030 3.702,18.772 3.297,18.300 2.819 C 17.733 2.244,17.046 1.827,16.446 1.696 C 15.935 1.584,12.282 1.537,9.020 1.600 M11.080 5.606 L 11.080 7.933 9.770 7.907 C 9.050 7.892,8.352 7.863,8.220 7.841 C 7.806 7.773,7.426 7.555,7.040 7.164 C 6.480 6.598,6.313 6.098,6.406 5.268 C 6.504 4.397,7.331 3.526,8.200 3.379 C 8.451 3.337,9.441 3.294,10.330 3.286 L 11.080 3.280 11.080 5.606 M15.447 3.361 C 15.975 3.404,16.203 3.469,16.519 3.669 C 17.003 3.974,17.376 4.442,17.530 4.938 C 17.600 5.160,17.618 5.313,17.615 5.660 C 17.612 6.150,17.546 6.385,17.310 6.744 C 17.136 7.010,16.658 7.471,16.392 7.631 C 16.039 7.842,15.777 7.876,14.270 7.906 L 12.920 7.933 12.920 5.600 L 12.920 3.268 13.950 3.296 C 14.517 3.311,15.190 3.341,15.447 3.361 M11.080 12.006 L 11.080 14.333 9.770 14.307 C 9.050 14.292,8.352 14.263,8.220 14.241 C 7.806 14.173,7.426 13.955,7.040 13.564 C 6.480 12.998,6.313 12.498,6.406 11.668 C 6.504 10.797,7.331 9.926,8.200 9.779 C 8.451 9.737,9.441 9.694,10.330 9.686 L 11.080 9.680 11.080 12.006 M15.547 9.762 C 16.143 9.842,16.515 10.012,16.929 10.394 C 17.493 10.915,17.734 11.626,17.603 12.384 C 17.471 13.144,16.851 13.865,16.081 14.154 C 15.863 14.236,15.744 14.253,15.360 14.256 C 14.666 14.262,14.270 14.137,13.829 13.771 C 13.553 13.543,13.328 13.270,13.135 12.930 L 12.994 12.681 13.007 11.970 C 13.020 11.280,13.023 11.254,13.131 11.059 C 13.491 10.411,14.118 9.923,14.775 9.780 C 15.085 9.712,15.163 9.710,15.547 9.762 M11.079 16.730 C 11.079 17.088,11.061 17.749,11.040 18.200 L 11.000 19.020 10.862 19.300 C 10.621 19.787,10.169 20.253,9.739 20.458 C 9.225 20.703,8.410 20.744,7.929 20.550 C 6.922 20.143,6.360 19.351,6.362 18.340 C 6.363 17.382,7.178 16.399,8.136 16.201 C 8.423 16.141,9.322 16.094,10.330 16.086 L 11.080 16.080 11.079 16.730 " fill="#373B4D" stroke="none" fill-rule="evenodd"></path></svg>