<svg width="24" height="24" viewBox="0 0 24 24" fill="none" xmlns="http://www.w3.org/2000/svg"><path d="M7.933 1.604 C 7.576 1.645,7.252 1.753,6.801 1.980 C 5.709 2.528,4.953 3.461,4.631 4.659 C 4.518 5.079,4.507 6.070,4.612 6.489 C 4.794 7.224,5.148 7.848,5.727 8.461 L 6.050 8.801 5.750 9.115 C 5.124 9.770,4.771 10.392,4.620 11.105 C 4.542 11.473,4.542 12.527,4.620 12.895 C 4.771 13.608,5.124 14.230,5.750 14.885 L 6.050 15.199 5.727 15.539 C 4.959 16.352,4.595 17.150,4.534 18.163 C 4.464 19.321,4.881 20.407,5.712 21.236 C 6.238 21.760,6.854 22.117,7.616 22.338 C 7.937 22.431,8.035 22.440,8.692 22.440 C 9.304 22.440,9.464 22.427,9.737 22.354 C 10.507 22.149,11.124 21.797,11.684 21.241 C 12.075 20.853,12.303 20.533,12.522 20.065 C 12.854 19.357,12.918 18.821,12.919 16.772 L 12.920 15.405 13.374 15.623 C 13.624 15.743,14.007 15.889,14.224 15.946 C 14.568 16.037,14.704 16.051,15.260 16.054 C 15.969 16.057,16.293 15.999,16.922 15.757 C 17.802 15.417,18.724 14.539,19.122 13.662 C 19.379 13.095,19.420 12.861,19.420 11.960 C 19.420 11.276,19.408 11.100,19.346 10.901 C 19.158 10.292,18.788 9.684,18.273 9.140 L 17.951 8.799 18.213 8.521 C 19.134 7.546,19.536 6.557,19.468 5.443 C 19.401 4.363,19.016 3.490,18.283 2.757 C 17.642 2.116,16.785 1.682,16.000 1.602 C 15.511 1.552,8.366 1.553,7.933 1.604 M11.080 5.606 L 11.080 7.932 9.710 7.907 C 8.957 7.892,8.250 7.862,8.141 7.840 C 7.654 7.740,7.110 7.365,6.759 6.887 C 6.103 5.993,6.238 4.724,7.071 3.959 C 7.321 3.730,7.717 3.495,8.019 3.399 C 8.222 3.334,8.972 3.294,10.150 3.286 L 11.080 3.280 11.080 5.606 M15.748 3.364 C 16.094 3.412,16.372 3.537,16.748 3.814 C 17.327 4.241,17.651 4.880,17.653 5.600 C 17.655 6.227,17.440 6.722,16.954 7.206 C 16.619 7.539,16.227 7.767,15.860 7.841 C 15.750 7.863,15.043 7.892,14.290 7.907 L 12.920 7.932 12.920 5.600 L 12.920 3.267 14.181 3.294 C 14.874 3.309,15.579 3.340,15.748 3.364 M11.080 12.006 L 11.080 14.332 9.710 14.307 C 8.957 14.292,8.250 14.262,8.141 14.240 C 7.654 14.140,7.110 13.765,6.759 13.287 C 6.103 12.393,6.238 11.124,7.071 10.359 C 7.321 10.130,7.717 9.895,8.019 9.799 C 8.222 9.734,8.972 9.694,10.150 9.686 L 11.080 9.680 11.080 12.006 M15.681 9.761 C 16.266 9.831,16.926 10.242,17.286 10.760 C 17.595 11.203,17.734 11.879,17.624 12.399 C 17.471 13.119,17.022 13.704,16.369 14.031 C 15.943 14.244,15.682 14.295,15.160 14.269 C 14.690 14.246,14.349 14.144,14.005 13.923 C 13.708 13.733,13.302 13.281,13.130 12.950 L 12.980 12.660 12.980 12.000 L 12.980 11.340 13.135 11.040 C 13.353 10.620,13.830 10.149,14.245 9.947 C 14.675 9.737,15.065 9.687,15.681 9.761 M11.077 16.970 C 11.075 17.460,11.061 18.130,11.044 18.460 C 11.015 19.046,11.010 19.067,10.867 19.350 C 10.698 19.681,10.296 20.130,9.995 20.323 C 9.651 20.544,9.310 20.646,8.840 20.669 C 8.583 20.682,8.330 20.671,8.188 20.642 C 7.659 20.532,7.013 20.089,6.706 19.626 C 6.536 19.370,6.376 18.913,6.338 18.576 C 6.231 17.619,6.942 16.573,7.926 16.237 C 8.229 16.133,8.788 16.095,10.150 16.086 L 11.080 16.080 11.077 16.970 " fill="#373B4D" stroke="none" fill-rule="evenodd"></path></svg>