<svg width="24" height="24" viewBox="0 0 24 24" fill="none" xmlns="http://www.w3.org/2000/svg"><path d="M8.500 1.599 C 7.769 1.622,7.673 1.633,7.388 1.732 C 5.794 2.286,4.700 3.627,4.556 5.204 C 4.439 6.491,4.809 7.485,5.794 8.529 L 6.049 8.799 5.758 9.110 C 5.206 9.698,4.925 10.144,4.715 10.760 C 4.586 11.138,4.585 11.144,4.583 11.960 C 4.580 12.694,4.589 12.812,4.669 13.086 C 4.857 13.736,5.168 14.258,5.721 14.851 L 6.048 15.202 5.774 15.491 C 5.175 16.124,4.829 16.711,4.656 17.390 C 4.469 18.131,4.486 18.875,4.708 19.579 C 5.110 20.852,6.073 21.807,7.440 22.286 L 7.820 22.420 8.700 22.419 C 9.556 22.418,9.589 22.415,9.920 22.305 C 10.643 22.066,11.181 21.734,11.717 21.199 C 12.240 20.675,12.581 20.082,12.760 19.381 C 12.873 18.937,12.920 18.160,12.920 16.715 L 12.920 15.406 13.330 15.598 C 13.556 15.704,13.893 15.841,14.080 15.903 C 14.391 16.005,14.482 16.016,15.161 16.031 C 15.813 16.045,15.945 16.037,16.259 15.962 C 17.087 15.766,17.635 15.452,18.282 14.803 C 18.766 14.319,19.049 13.895,19.242 13.365 C 19.345 13.081,19.375 12.920,19.411 12.452 C 19.473 11.626,19.416 11.048,19.228 10.585 C 19.048 10.143,18.657 9.556,18.260 9.129 L 17.952 8.799 18.202 8.531 C 19.360 7.294,19.719 5.996,19.314 4.520 C 19.007 3.402,18.172 2.435,17.069 1.920 C 16.531 1.669,16.360 1.637,15.340 1.599 C 14.317 1.561,9.746 1.561,8.500 1.599 M11.080 5.606 L 11.080 7.933 9.750 7.907 C 9.019 7.893,8.312 7.862,8.180 7.837 C 7.459 7.705,6.695 7.023,6.458 6.299 C 6.339 5.935,6.347 5.230,6.475 4.880 C 6.718 4.213,7.269 3.673,7.947 3.434 C 8.210 3.342,8.923 3.296,10.270 3.286 L 11.080 3.280 11.080 5.606 M14.840 3.321 C 15.840 3.363,16.075 3.403,16.400 3.590 C 17.157 4.024,17.583 4.668,17.630 5.449 C 17.674 6.177,17.495 6.629,16.944 7.183 C 16.546 7.583,16.238 7.766,15.841 7.840 C 15.720 7.863,15.014 7.893,14.271 7.907 L 12.920 7.933 12.920 5.606 L 12.920 3.280 13.410 3.281 C 13.680 3.281,14.323 3.299,14.840 3.321 M11.080 12.006 L 11.080 14.333 9.750 14.307 C 9.019 14.293,8.312 14.262,8.180 14.237 C 7.459 14.105,6.695 13.423,6.458 12.699 C 6.339 12.335,6.347 11.630,6.475 11.280 C 6.718 10.613,7.269 10.073,7.947 9.834 C 8.210 9.742,8.923 9.696,10.270 9.686 L 11.080 9.680 11.080 12.006 M15.594 9.762 C 15.998 9.812,16.272 9.911,16.603 10.125 C 17.104 10.449,17.441 10.899,17.577 11.426 C 17.658 11.743,17.658 12.284,17.576 12.563 C 17.359 13.302,16.785 13.907,16.057 14.165 C 15.605 14.325,14.882 14.305,14.382 14.117 C 13.931 13.948,13.405 13.449,13.124 12.922 L 13.000 12.689 13.000 12.003 C 13.000 11.341,13.004 11.310,13.106 11.109 C 13.511 10.307,14.321 9.756,15.141 9.725 C 15.208 9.722,15.411 9.739,15.594 9.762 M11.079 16.830 C 11.078 17.242,11.061 17.911,11.042 18.315 C 11.008 19.017,11.000 19.061,10.885 19.295 C 10.629 19.815,10.081 20.344,9.620 20.516 C 9.179 20.682,8.522 20.727,8.120 20.621 C 7.598 20.482,7.014 20.071,6.727 19.640 C 6.361 19.093,6.242 18.322,6.437 17.760 C 6.687 17.039,7.285 16.442,7.967 16.235 C 8.279 16.140,8.968 16.095,10.250 16.086 L 11.080 16.080 11.079 16.830 " fill="#373B4D" stroke="none" fill-rule="evenodd"></path></svg>