<svg width="24" height="24" viewBox="0 0 24 24" fill="none" xmlns="http://www.w3.org/2000/svg"><path d="M9.420 1.599 C 7.734 1.630,7.693 1.633,7.320 1.767 C 6.163 2.184,5.190 3.125,4.794 4.210 C 4.602 4.737,4.549 5.046,4.549 5.640 C 4.549 6.093,4.565 6.243,4.652 6.571 C 4.828 7.235,5.137 7.774,5.717 8.432 L 6.044 8.802 5.758 9.116 C 5.368 9.547,5.149 9.846,4.963 10.201 C 4.694 10.714,4.611 11.030,4.581 11.640 C 4.510 13.066,4.779 13.804,5.760 14.886 L 6.047 15.202 5.798 15.469 C 5.016 16.305,4.646 17.074,4.562 18.039 C 4.511 18.621,4.567 19.109,4.745 19.643 C 5.159 20.890,6.108 21.800,7.538 22.321 L 7.897 22.451 8.738 22.430 C 9.511 22.411,9.606 22.400,9.900 22.303 C 11.221 21.864,12.251 20.881,12.667 19.660 C 12.851 19.121,12.881 18.802,12.908 17.070 C 12.922 16.174,12.946 15.440,12.961 15.440 C 12.976 15.440,13.140 15.510,13.324 15.595 C 13.509 15.680,13.831 15.810,14.040 15.883 L 14.420 16.017 15.260 16.017 C 16.170 16.016,16.310 15.995,16.875 15.765 C 17.312 15.587,17.732 15.304,18.145 14.909 C 18.736 14.344,19.056 13.875,19.265 13.270 C 19.475 12.659,19.475 11.266,19.265 10.709 C 19.068 10.185,18.669 9.574,18.181 9.048 L 17.947 8.796 18.107 8.628 C 18.746 7.955,19.171 7.243,19.366 6.520 C 19.503 6.012,19.496 5.294,19.347 4.714 C 19.121 3.831,18.871 3.394,18.234 2.772 C 17.728 2.276,17.235 1.956,16.710 1.781 C 16.452 1.695,16.283 1.672,15.690 1.642 C 14.641 1.588,11.296 1.565,9.420 1.599 M11.080 5.600 L 11.080 7.920 10.330 7.919 C 9.091 7.917,8.214 7.860,7.940 7.763 C 7.317 7.545,6.665 6.885,6.479 6.286 C 6.380 5.969,6.372 5.363,6.462 5.019 C 6.652 4.291,7.383 3.570,8.100 3.403 C 8.323 3.352,9.439 3.295,10.430 3.286 L 11.080 3.280 11.080 5.600 M14.500 3.320 C 15.983 3.382,16.220 3.435,16.723 3.822 C 17.030 4.059,17.254 4.340,17.436 4.720 L 17.580 5.020 17.580 5.621 L 17.580 6.222 17.444 6.497 C 17.356 6.677,17.204 6.882,17.008 7.088 C 16.393 7.732,16.177 7.823,15.142 7.881 C 14.767 7.901,14.114 7.919,13.690 7.919 L 12.920 7.920 12.920 5.600 L 12.920 3.280 13.230 3.280 C 13.400 3.280,13.972 3.298,14.500 3.320 M11.080 12.000 L 11.080 14.320 10.330 14.319 C 9.091 14.317,8.214 14.260,7.940 14.163 C 7.317 13.945,6.665 13.285,6.479 12.686 C 6.380 12.369,6.372 11.763,6.462 11.419 C 6.652 10.691,7.383 9.970,8.100 9.803 C 8.323 9.752,9.439 9.695,10.430 9.686 L 11.080 9.680 11.080 12.000 M15.856 9.825 C 16.272 9.918,16.648 10.130,16.979 10.459 C 17.311 10.790,17.494 11.128,17.589 11.590 C 17.809 12.661,17.119 13.782,15.993 14.183 C 15.873 14.226,15.672 14.244,15.340 14.244 C 14.537 14.243,14.169 14.099,13.657 13.585 C 13.474 13.402,13.258 13.132,13.161 12.968 L 12.988 12.675 13.010 11.959 L 13.032 11.243 13.163 11.012 C 13.343 10.694,13.879 10.169,14.188 10.007 C 14.730 9.723,15.181 9.674,15.856 9.825 M11.080 16.611 C 11.080 16.902,11.061 17.563,11.037 18.079 L 10.995 19.018 10.831 19.332 C 10.622 19.734,10.172 20.220,9.852 20.389 C 9.166 20.753,8.373 20.770,7.695 20.436 C 6.235 19.718,5.925 17.953,7.059 16.820 C 7.380 16.499,7.708 16.309,8.096 16.220 C 8.388 16.152,9.364 16.095,10.410 16.086 L 11.080 16.080 11.080 16.611 " fill="#373B4D" stroke="none" fill-rule="evenodd"></path></svg>