<svg width="24" height="24" viewBox="0 0 24 24" fill="none" xmlns="http://www.w3.org/2000/svg"><path d="M4.700 3.758 C 3.839 3.783,3.873 3.772,3.352 4.187 C 3.062 4.417,2.822 4.726,2.564 5.200 L 2.401 5.500 2.401 12.000 L 2.401 18.500 2.576 18.826 C 2.938 19.500,3.308 19.872,3.957 20.214 L 4.319 20.405 11.929 20.390 C 18.999 20.377,19.557 20.371,19.777 20.307 C 20.424 20.118,21.128 19.458,21.482 18.709 L 21.600 18.460 21.600 11.989 L 21.600 5.517 21.495 5.309 C 21.197 4.714,20.752 4.215,20.242 3.903 L 19.944 3.720 12.702 3.728 C 8.719 3.732,5.118 3.746,4.700 3.758 M6.000 7.200 L 6.000 8.400 5.400 8.400 L 4.800 8.400 4.800 7.200 L 4.800 6.000 5.400 6.000 L 6.000 6.000 6.000 7.200 M15.600 8.400 L 15.600 10.800 12.000 10.800 L 8.400 10.800 8.400 8.400 L 8.400 6.000 12.000 6.000 L 15.600 6.000 15.600 8.400 M19.200 7.200 L 19.200 8.400 18.600 8.400 L 18.000 8.400 18.000 7.200 L 18.000 6.000 18.600 6.000 L 19.200 6.000 19.200 7.200 M6.000 12.000 L 6.000 13.200 5.400 13.200 L 4.800 13.200 4.800 12.000 L 4.800 10.800 5.400 10.800 L 6.000 10.800 6.000 12.000 M19.200 12.000 L 19.200 13.200 18.600 13.200 L 18.000 13.200 18.000 12.000 L 18.000 10.800 18.600 10.800 L 19.200 10.800 19.200 12.000 M15.600 15.600 L 15.600 18.000 12.000 18.000 L 8.400 18.000 8.400 15.600 L 8.400 13.200 12.000 13.200 L 15.600 13.200 15.600 15.600 M6.000 16.800 L 6.000 18.000 5.400 18.000 L 4.800 18.000 4.800 16.800 L 4.800 15.600 5.400 15.600 L 6.000 15.600 6.000 16.800 M19.200 16.800 L 19.200 18.000 18.600 18.000 L 18.000 18.000 18.000 16.800 L 18.000 15.600 18.600 15.600 L 19.200 15.600 19.200 16.800 " fill="#373B4D" stroke="none" fill-rule="evenodd"></path></svg>