<svg width="24" height="24" viewBox="0 0 24 24" fill="none" xmlns="http://www.w3.org/2000/svg"><path d="M8.800 3.763 C 5.774 3.782,4.181 3.807,4.022 3.836 C 3.767 3.883,3.611 3.971,3.311 4.237 C 3.074 4.447,2.673 4.977,2.518 5.284 L 2.400 5.518 2.400 12.000 L 2.400 18.483 2.505 18.691 C 2.859 19.393,3.404 19.938,4.109 20.294 L 4.317 20.400 11.983 20.400 L 19.648 20.400 19.954 20.240 C 20.595 19.905,20.936 19.581,21.363 18.901 L 21.600 18.525 21.600 12.021 L 21.600 5.517 21.495 5.309 C 21.247 4.815,20.776 4.291,20.235 3.908 L 19.970 3.720 16.655 3.727 C 14.832 3.731,11.297 3.747,8.800 3.763 M6.000 7.200 L 6.000 8.400 5.400 8.400 L 4.800 8.400 4.800 7.200 L 4.800 6.000 5.400 6.000 L 6.000 6.000 6.000 7.200 M15.600 8.400 L 15.600 10.800 12.000 10.800 L 8.400 10.800 8.400 8.400 L 8.400 6.000 12.000 6.000 L 15.600 6.000 15.600 8.400 M19.200 7.200 L 19.200 8.400 18.600 8.400 L 18.000 8.400 18.000 7.200 L 18.000 6.000 18.600 6.000 L 19.200 6.000 19.200 7.200 M6.000 12.000 L 6.000 13.200 5.400 13.200 L 4.800 13.200 4.800 12.000 L 4.800 10.800 5.400 10.800 L 6.000 10.800 6.000 12.000 M19.200 12.000 L 19.200 13.200 18.600 13.200 L 18.000 13.200 18.000 12.000 L 18.000 10.800 18.600 10.800 L 19.200 10.800 19.200 12.000 M15.600 15.600 L 15.600 18.000 12.000 18.000 L 8.400 18.000 8.400 15.600 L 8.400 13.200 12.000 13.200 L 15.600 13.200 15.600 15.600 M6.000 16.800 L 6.000 18.000 5.400 18.000 L 4.800 18.000 4.800 16.800 L 4.800 15.600 5.400 15.600 L 6.000 15.600 6.000 16.800 M19.200 16.800 L 19.200 18.000 18.600 18.000 L 18.000 18.000 18.000 16.800 L 18.000 15.600 18.600 15.600 L 19.200 15.600 19.200 16.800 " fill="#373B4D" stroke="none" fill-rule="evenodd"></path></svg>