<svg width="24" height="24" viewBox="0 0 24 24" fill="none" xmlns="http://www.w3.org/2000/svg"><path d="M5.400 3.679 C 4.495 3.694,4.066 3.716,3.986 3.751 C 3.776 3.843,3.341 4.145,3.150 4.331 C 2.910 4.566,2.681 4.919,2.523 5.299 L 2.399 5.596 2.410 12.048 L 2.420 18.500 2.589 18.853 C 2.926 19.558,3.366 19.975,4.087 20.273 L 4.394 20.400 11.970 20.400 L 19.546 20.400 19.840 20.300 C 20.230 20.167,20.577 19.936,20.909 19.586 C 21.215 19.264,21.359 19.039,21.502 18.659 L 21.600 18.398 21.600 11.996 L 21.600 5.594 21.472 5.287 C 21.200 4.634,20.787 4.171,20.200 3.863 L 19.931 3.722 18.636 3.701 C 16.664 3.670,6.874 3.653,5.400 3.679 M6.000 7.200 L 6.000 8.400 5.400 8.400 L 4.800 8.400 4.800 7.200 L 4.800 6.000 5.400 6.000 L 6.000 6.000 6.000 7.200 M15.600 8.400 L 15.600 10.800 12.000 10.800 L 8.400 10.800 8.400 8.400 L 8.400 6.000 12.000 6.000 L 15.600 6.000 15.600 8.400 M19.200 7.200 L 19.200 8.400 18.600 8.400 L 18.000 8.400 18.000 7.200 L 18.000 6.000 18.600 6.000 L 19.200 6.000 19.200 7.200 M6.000 12.000 L 6.000 13.200 5.400 13.200 L 4.800 13.200 4.800 12.000 L 4.800 10.800 5.400 10.800 L 6.000 10.800 6.000 12.000 M19.200 12.000 L 19.200 13.200 18.600 13.200 L 18.000 13.200 18.000 12.000 L 18.000 10.800 18.600 10.800 L 19.200 10.800 19.200 12.000 M15.600 15.600 L 15.600 18.000 12.000 18.000 L 8.400 18.000 8.400 15.600 L 8.400 13.200 12.000 13.200 L 15.600 13.200 15.600 15.600 M6.000 16.800 L 6.000 18.000 5.400 18.000 L 4.800 18.000 4.800 16.800 L 4.800 15.600 5.400 15.600 L 6.000 15.600 6.000 16.800 M19.200 16.800 L 19.200 18.000 18.600 18.000 L 18.000 18.000 18.000 16.800 L 18.000 15.600 18.600 15.600 L 19.200 15.600 19.200 16.800 " fill="#373B4D" stroke="none" fill-rule="evenodd"></path></svg>