<svg width="24" height="24" viewBox="0 0 24 24" fill="none" xmlns="http://www.w3.org/2000/svg"><path d="M5.860 4.035 C 4.898 4.059,4.853 4.064,4.665 4.160 C 4.258 4.367,4.034 4.766,4.035 5.277 C 4.036 5.621,4.123 5.838,4.364 6.100 C 4.610 6.366,4.703 6.402,5.255 6.442 C 5.888 6.488,18.112 6.488,18.745 6.442 C 19.034 6.421,19.278 6.383,19.347 6.347 C 19.516 6.259,19.794 5.943,19.887 5.733 C 20.006 5.464,20.003 4.995,19.881 4.743 C 19.767 4.507,19.558 4.286,19.318 4.147 L 19.136 4.042 12.998 4.026 C 9.622 4.017,6.410 4.021,5.860 4.035 M7.360 10.557 C 6.787 10.580,6.778 10.582,6.594 10.709 C 6.204 10.980,6.028 11.306,6.027 11.760 C 6.026 12.264,6.276 12.651,6.759 12.892 L 6.976 13.000 12.000 13.000 L 17.024 13.000 17.242 12.892 C 17.732 12.648,17.966 12.268,17.965 11.721 C 17.964 11.379,17.876 11.161,17.636 10.900 C 17.388 10.631,17.305 10.600,16.708 10.559 C 16.149 10.521,8.345 10.519,7.360 10.557 M9.340 17.037 C 8.783 17.064,8.571 17.145,8.325 17.424 C 8.020 17.770,7.938 18.372,8.140 18.784 C 8.267 19.043,8.588 19.341,8.814 19.409 C 9.053 19.482,14.945 19.483,15.184 19.410 C 15.388 19.348,15.688 19.089,15.823 18.858 C 15.951 18.640,16.009 18.259,15.957 17.984 C 15.903 17.700,15.687 17.392,15.413 17.210 L 15.187 17.060 14.024 17.034 C 12.633 17.003,10.011 17.005,9.340 17.037 " stroke="none" fill-rule="evenodd"></path></svg>