<svg width="24" height="24" viewBox="0 0 24 24" fill="none" xmlns="http://www.w3.org/2000/svg"><path d="M9.800 2.485 C 7.041 2.503,4.798 2.534,4.612 2.557 C 4.223 2.604,4.015 2.700,3.859 2.905 C 3.649 3.180,3.638 3.292,3.612 5.482 L 3.588 7.504 3.844 7.801 C 4.265 8.291,5.550 9.621,7.634 11.726 L 9.600 13.712 9.601 16.526 C 9.603 19.354,9.634 20.462,9.722 20.812 C 9.779 21.037,9.977 21.251,10.282 21.417 C 10.451 21.509,10.544 21.532,10.759 21.534 C 11.132 21.538,11.357 21.416,11.920 20.908 C 12.334 20.535,13.651 19.187,14.191 18.587 L 14.400 18.354 14.400 16.030 L 14.400 13.707 16.010 12.083 C 18.812 9.258,20.182 7.824,20.305 7.589 C 20.354 7.495,20.362 7.156,20.352 5.389 C 20.341 3.429,20.335 3.291,20.264 3.160 C 20.148 2.944,20.061 2.846,19.798 2.635 L 19.555 2.440 17.107 2.447 C 15.761 2.450,12.473 2.468,9.800 2.485 " fill="#373B4D" stroke="none" fill-rule="evenodd"></path></svg>