<svg width="24" height="24" viewBox="0 0 24 24" fill="none" xmlns="http://www.w3.org/2000/svg"><path d="M9.260 2.481 C 6.862 2.496,4.751 2.522,4.570 2.539 C 4.334 2.560,4.203 2.593,4.111 2.655 C 3.953 2.761,3.696 3.095,3.663 3.236 C 3.649 3.293,3.628 4.267,3.615 5.400 L 3.592 7.460 3.716 7.644 C 3.908 7.929,5.065 9.138,7.433 11.526 L 9.600 13.711 9.601 16.606 C 9.603 19.846,9.633 20.725,9.752 20.954 C 9.861 21.166,10.199 21.426,10.466 21.503 C 10.925 21.637,11.225 21.533,11.780 21.049 C 12.161 20.716,13.962 18.878,14.237 18.541 L 14.400 18.341 14.400 16.020 L 14.400 13.699 15.324 12.780 C 16.765 11.344,19.647 8.394,19.985 8.008 C 20.152 7.817,20.306 7.616,20.326 7.563 C 20.373 7.441,20.370 3.474,20.324 3.272 C 20.278 3.074,20.076 2.826,19.787 2.614 L 19.551 2.440 16.586 2.447 C 14.955 2.451,11.658 2.466,9.260 2.481 " fill="#373B4D" stroke="none" fill-rule="evenodd"></path></svg>