<svg width="24" height="24" viewBox="0 0 24 24" fill="none" xmlns="http://www.w3.org/2000/svg"><path d="M13.880 2.468 C 10.915 2.480,5.541 2.559,4.868 2.599 C 4.339 2.631,4.257 2.646,4.099 2.738 C 3.851 2.884,3.735 3.101,3.681 3.520 C 3.657 3.707,3.626 4.688,3.613 5.700 L 3.588 7.540 4.264 8.260 C 5.036 9.083,6.257 10.335,8.224 12.320 L 9.591 13.700 9.615 16.880 C 9.638 20.020,9.665 20.700,9.777 20.912 C 9.851 21.053,10.147 21.335,10.304 21.413 C 10.510 21.517,10.802 21.537,11.053 21.464 C 11.383 21.368,11.725 21.074,13.146 19.669 L 14.400 18.429 14.402 16.064 L 14.405 13.700 16.608 11.460 C 18.932 9.098,20.001 7.978,20.186 7.711 C 20.338 7.492,20.355 7.280,20.356 5.520 C 20.358 3.990,20.323 3.381,20.221 3.136 C 20.187 3.055,20.030 2.866,19.872 2.715 L 19.584 2.440 17.722 2.450 C 16.698 2.455,14.969 2.463,13.880 2.468 " fill="#373B4D" stroke="none" fill-rule="evenodd"></path></svg>