<svg width="24" height="24" viewBox="0 0 24 24" fill="none" xmlns="http://www.w3.org/2000/svg"><path d="M14.720 2.467 C 11.849 2.479,6.059 2.559,5.135 2.600 C 4.593 2.623,4.285 2.654,4.195 2.693 C 3.992 2.780,3.815 2.993,3.741 3.240 C 3.661 3.509,3.603 4.834,3.601 6.448 L 3.600 7.556 4.290 8.287 C 4.993 9.033,8.240 12.351,9.116 13.219 L 9.600 13.699 9.602 15.619 C 9.604 18.068,9.660 20.433,9.722 20.718 C 9.762 20.901,9.807 20.974,9.999 21.165 C 10.369 21.536,10.789 21.608,11.239 21.380 C 11.506 21.245,12.005 20.794,13.270 19.545 L 14.400 18.428 14.400 16.069 L 14.400 13.710 15.910 12.173 C 19.373 8.647,20.193 7.777,20.279 7.532 C 20.318 7.419,20.337 6.982,20.350 5.846 C 20.367 4.339,20.329 3.414,20.240 3.179 C 20.216 3.118,20.060 2.927,19.892 2.754 L 19.586 2.440 18.123 2.450 C 17.318 2.455,15.787 2.463,14.720 2.467 " fill="#373B4D" stroke="none" fill-rule="evenodd"></path></svg>