<svg width="24" height="24" viewBox="0 0 24 24" fill="none" xmlns="http://www.w3.org/2000/svg"><path d="M10.360 2.485 C 5.138 2.520,4.424 2.543,4.146 2.677 C 3.950 2.772,3.801 2.943,3.724 3.160 C 3.653 3.362,3.603 4.573,3.602 6.160 L 3.601 7.540 4.133 8.120 C 4.785 8.830,6.263 10.348,8.167 12.260 L 9.600 13.700 9.601 16.440 C 9.602 19.187,9.638 20.496,9.721 20.803 C 9.745 20.895,9.836 21.044,9.926 21.142 C 10.287 21.534,10.800 21.634,11.264 21.402 C 11.649 21.209,12.587 20.309,14.131 18.652 L 14.400 18.363 14.400 16.038 L 14.400 13.713 16.593 11.487 C 20.006 8.022,20.300 7.704,20.342 7.419 C 20.356 7.324,20.361 6.359,20.353 5.273 C 20.338 3.350,20.335 3.296,20.252 3.140 C 20.170 2.986,19.965 2.771,19.687 2.547 L 19.554 2.440 17.307 2.447 C 16.071 2.450,12.945 2.468,10.360 2.485 " fill="#373B4D" stroke="none" fill-rule="evenodd"></path></svg>