<svg width="24" height="24" viewBox="0 0 24 24" fill="none" xmlns="http://www.w3.org/2000/svg"><path d="M10.840 2.484 C 6.324 2.515,4.565 2.557,4.269 2.641 C 4.070 2.698,3.844 2.900,3.755 3.102 C 3.655 3.327,3.600 4.415,3.600 6.160 L 3.600 7.540 4.175 8.163 C 4.876 8.923,6.306 10.390,8.187 12.280 L 9.600 13.700 9.601 16.360 C 9.602 19.117,9.642 20.521,9.727 20.811 C 9.797 21.045,10.121 21.366,10.377 21.453 C 10.803 21.598,11.137 21.520,11.594 21.171 C 11.917 20.923,12.984 19.876,13.850 18.955 L 14.400 18.370 14.400 16.043 L 14.400 13.715 16.827 11.248 C 19.463 8.566,20.159 7.827,20.281 7.577 C 20.356 7.422,20.360 7.330,20.357 5.637 C 20.356 4.660,20.341 3.710,20.323 3.527 C 20.285 3.132,20.198 2.982,19.810 2.653 L 19.559 2.440 17.490 2.447 C 16.351 2.450,13.359 2.467,10.840 2.484 " fill="#373B4D" stroke="none" fill-rule="evenodd"></path></svg>