<svg width="24" height="24" viewBox="0 0 24 24" fill="none" xmlns="http://www.w3.org/2000/svg"><path d="M4.980 2.434 C 4.513 2.456,4.393 2.475,4.255 2.548 C 3.990 2.690,3.852 2.828,3.732 3.072 L 3.620 3.300 3.608 5.274 C 3.600 6.624,3.610 7.316,3.641 7.464 C 3.672 7.612,3.737 7.746,3.850 7.890 C 3.941 8.005,5.272 9.361,6.808 10.903 L 9.600 13.706 9.600 17.185 L 9.600 20.664 9.707 20.879 C 9.841 21.149,10.073 21.383,10.314 21.493 C 10.562 21.607,11.032 21.612,11.253 21.503 C 11.485 21.389,12.035 20.879,13.164 19.731 C 13.885 18.999,14.216 18.632,14.284 18.495 L 14.380 18.300 14.392 16.001 L 14.403 13.702 17.194 10.901 C 18.729 9.361,20.059 8.005,20.150 7.890 C 20.262 7.746,20.328 7.612,20.359 7.465 C 20.389 7.319,20.400 6.617,20.392 5.275 C 20.381 3.502,20.373 3.284,20.311 3.146 C 20.194 2.889,20.016 2.699,19.763 2.565 L 19.523 2.437 12.531 2.422 C 8.686 2.415,5.288 2.420,4.980 2.434 " fill="#373B4D" stroke="none" fill-rule="evenodd"></path></svg>