<svg width="24" height="24" viewBox="0 0 24 24" fill="none" xmlns="http://www.w3.org/2000/svg"><path d="M4.918 4.054 C 4.370 4.203,4.026 4.660,4.023 5.240 C 4.022 5.635,4.133 5.891,4.424 6.157 C 4.810 6.509,4.122 6.480,12.000 6.480 C 19.878 6.480,19.190 6.509,19.576 6.157 C 19.866 5.892,19.978 5.636,19.978 5.239 C 19.978 4.991,19.958 4.897,19.868 4.712 C 19.741 4.453,19.510 4.228,19.245 4.105 L 19.060 4.020 12.080 4.012 C 6.649 4.007,5.060 4.016,4.918 4.054 M6.809 10.587 C 6.567 10.673,6.230 10.994,6.116 11.249 C 5.990 11.531,5.987 11.976,6.108 12.245 C 6.226 12.508,6.451 12.740,6.714 12.869 L 6.940 12.980 12.000 12.980 L 17.060 12.980 17.286 12.869 C 17.732 12.650,17.975 12.261,17.977 11.760 C 17.978 11.365,17.867 11.109,17.576 10.843 C 17.194 10.494,17.634 10.520,11.983 10.523 C 7.629 10.526,6.958 10.534,6.809 10.587 M8.918 17.054 C 8.370 17.204,8.026 17.660,8.023 18.240 C 8.022 18.635,8.133 18.891,8.424 19.157 C 8.796 19.496,8.615 19.480,12.000 19.480 C 15.385 19.480,15.204 19.496,15.576 19.157 C 15.866 18.892,15.978 18.636,15.978 18.239 C 15.978 17.991,15.958 17.897,15.868 17.712 C 15.741 17.453,15.510 17.228,15.245 17.105 C 15.062 17.021,15.031 17.020,12.080 17.012 C 9.809 17.006,9.057 17.016,8.918 17.054 " stroke="none" fill="black" fill-rule="evenodd"></path></svg>