<svg width="24" height="24" viewBox="0 0 24 24" fill="none" xmlns="http://www.w3.org/2000/svg"><path d="M8.440 2.481 C 5.537 2.500,4.487 2.519,4.331 2.556 C 4.159 2.597,4.088 2.644,3.923 2.825 C 3.813 2.945,3.702 3.110,3.676 3.192 C 3.643 3.294,3.623 3.977,3.610 5.390 L 3.592 7.440 3.692 7.610 C 3.848 7.875,4.754 8.826,7.273 11.366 L 9.600 13.711 9.601 16.686 C 9.602 19.582,9.631 20.667,9.715 20.888 C 9.781 21.061,10.039 21.318,10.257 21.429 C 10.391 21.497,10.550 21.538,10.723 21.551 C 11.054 21.575,11.260 21.491,11.646 21.175 C 11.965 20.914,13.874 18.982,14.187 18.602 L 14.400 18.344 14.400 16.028 L 14.400 13.712 16.746 11.346 C 19.334 8.736,20.195 7.833,20.306 7.609 C 20.375 7.469,20.380 7.332,20.373 5.396 C 20.367 3.665,20.356 3.308,20.306 3.188 C 20.228 3.001,19.962 2.715,19.723 2.562 L 19.533 2.440 15.936 2.448 C 13.958 2.452,10.585 2.467,8.440 2.481 " fill="#373B4D" stroke="none" fill-rule="evenodd"></path></svg>