<svg width="24" height="24" viewBox="0 0 24 24" fill="none" xmlns="http://www.w3.org/2000/svg"><path d="M9.700 2.482 C 7.170 2.498,4.930 2.523,4.723 2.537 C 4.271 2.568,4.062 2.650,3.893 2.864 C 3.628 3.202,3.642 3.073,3.615 5.388 L 3.591 7.500 3.812 7.765 C 4.191 8.219,5.390 9.462,7.533 11.626 L 9.600 13.711 9.601 16.546 C 9.602 19.788,9.634 20.681,9.763 20.945 C 9.853 21.132,10.034 21.294,10.320 21.443 C 10.458 21.516,10.565 21.538,10.780 21.539 C 11.139 21.540,11.335 21.436,11.870 20.961 C 12.264 20.610,13.874 18.964,14.215 18.562 L 14.400 18.345 14.400 16.028 L 14.400 13.710 16.296 11.797 C 18.557 9.515,20.055 7.958,20.220 7.720 L 20.340 7.547 20.352 5.623 C 20.359 4.566,20.353 3.589,20.339 3.452 C 20.307 3.132,20.155 2.900,19.808 2.637 L 19.548 2.440 16.924 2.447 C 15.481 2.450,12.230 2.466,9.700 2.482 " fill="#373B4D" stroke="none" fill-rule="evenodd"></path></svg>