<svg width="24" height="24" viewBox="0 0 24 24" fill="none" xmlns="http://www.w3.org/2000/svg"><path d="M10.778 2.522 C 10.290 2.586,9.103 2.847,8.694 2.981 C 8.148 3.160,7.827 3.332,7.579 3.580 C 7.282 3.875,7.199 4.269,7.344 4.694 C 7.419 4.914,7.742 5.286,7.921 5.361 C 8.120 5.443,8.736 5.385,9.564 5.206 C 10.805 4.937,11.089 4.907,12.140 4.932 C 13.721 4.971,14.474 5.139,15.617 5.710 C 17.327 6.563,18.499 7.702,19.374 9.360 C 19.874 10.309,19.986 10.669,20.280 12.291 C 20.391 12.902,20.519 13.502,20.565 13.625 C 20.658 13.872,20.871 14.107,21.110 14.226 C 21.337 14.338,21.876 14.326,22.131 14.203 C 22.489 14.029,22.720 13.649,22.776 13.139 C 22.827 12.671,22.701 11.677,22.476 10.760 C 21.982 8.754,21.121 7.189,19.734 5.779 C 18.734 4.762,17.902 4.164,16.620 3.540 C 15.591 3.039,14.804 2.788,13.800 2.641 C 12.838 2.500,11.385 2.442,10.778 2.522 M4.380 5.786 C 4.222 5.829,3.889 6.125,3.597 6.481 C 2.251 8.121,1.346 10.516,1.253 12.682 C 1.220 13.466,1.255 13.607,1.565 13.939 C 1.984 14.387,2.354 14.461,2.900 14.206 C 3.359 13.991,3.437 13.805,3.721 12.240 C 4.057 10.388,4.196 10.028,5.245 8.296 C 5.784 7.406,5.957 7.062,5.959 6.877 C 5.960 6.821,5.931 6.677,5.896 6.557 C 5.815 6.278,5.471 5.925,5.203 5.845 C 5.009 5.788,4.506 5.751,4.380 5.786 M11.120 7.363 C 10.254 7.411,9.106 7.924,8.255 8.645 C 7.552 9.240,6.979 9.942,6.643 10.620 C 6.277 11.358,6.163 11.838,5.981 13.420 C 5.737 15.539,5.718 15.645,5.339 17.060 C 4.974 18.419,4.953 18.644,5.157 18.976 C 5.412 19.388,5.993 19.612,6.472 19.482 C 6.932 19.358,7.303 18.754,7.717 17.459 C 8.012 16.536,8.155 15.767,8.401 13.780 C 8.491 13.054,8.592 12.334,8.626 12.180 C 8.832 11.254,9.816 10.221,10.848 9.848 C 11.130 9.746,11.170 9.742,12.000 9.743 C 12.838 9.744,12.867 9.746,13.133 9.851 C 13.474 9.985,14.075 10.340,14.346 10.567 C 14.880 11.014,15.154 11.531,15.539 12.820 C 15.871 13.927,15.918 14.024,16.202 14.179 C 16.397 14.285,16.458 14.298,16.780 14.299 C 17.209 14.300,17.367 14.237,17.644 13.955 C 17.899 13.694,17.939 13.530,17.907 12.865 C 17.834 11.340,17.324 10.201,16.221 9.100 C 15.660 8.540,15.155 8.169,14.540 7.864 C 13.748 7.472,13.281 7.373,12.100 7.351 C 11.792 7.345,11.351 7.350,11.120 7.363 M11.310 12.299 C 10.912 12.602,10.884 12.712,10.639 14.933 C 10.483 16.346,10.330 17.059,9.820 18.754 C 9.370 20.250,9.342 20.404,9.468 20.674 C 9.506 20.754,9.647 20.931,9.781 21.067 C 9.982 21.269,10.069 21.326,10.260 21.382 C 10.699 21.509,11.101 21.378,11.377 21.016 C 11.675 20.625,12.102 19.597,12.414 18.517 C 12.889 16.872,13.122 15.319,13.134 13.700 C 13.140 12.981,13.135 12.930,13.048 12.753 C 12.931 12.516,12.653 12.259,12.454 12.203 C 12.369 12.180,12.118 12.160,11.896 12.160 C 11.496 12.160,11.490 12.162,11.310 12.299 M16.060 15.763 C 15.602 16.027,15.482 16.249,15.201 17.360 C 14.903 18.537,14.793 19.125,14.789 19.560 C 14.785 20.002,14.819 20.088,15.107 20.368 C 15.352 20.607,15.529 20.680,15.864 20.680 C 16.407 20.680,16.667 20.509,16.918 19.986 C 17.241 19.312,17.640 17.602,17.640 16.888 C 17.640 16.170,17.230 15.760,16.483 15.731 C 16.273 15.723,16.109 15.735,16.060 15.763 " fill="#373B4D" stroke="none" fill-rule="evenodd"></path></svg>