<svg width="24" height="24" viewBox="0 0 24 24" fill="none" xmlns="http://www.w3.org/2000/svg"><path d="M10.260 2.617 C 8.426 2.981,7.738 3.275,7.410 3.833 C 7.318 3.989,7.300 4.067,7.300 4.300 C 7.300 4.634,7.404 4.880,7.657 5.142 C 7.965 5.463,8.186 5.467,9.714 5.177 C 10.961 4.940,11.427 4.903,12.449 4.958 C 13.981 5.039,14.527 5.176,15.694 5.770 C 16.733 6.298,17.678 7.027,18.330 7.802 C 18.892 8.471,19.735 9.970,19.914 10.620 C 19.962 10.796,20.119 11.515,20.262 12.218 C 20.406 12.921,20.559 13.578,20.604 13.678 C 20.789 14.098,21.085 14.278,21.591 14.279 C 21.982 14.280,22.127 14.229,22.373 14.002 C 22.736 13.667,22.854 13.114,22.744 12.260 C 22.457 10.022,21.655 8.056,20.421 6.560 C 20.024 6.079,19.123 5.182,18.680 4.827 C 17.453 3.844,15.647 2.992,14.215 2.722 C 13.478 2.583,13.142 2.557,11.920 2.539 C 10.799 2.522,10.716 2.526,10.260 2.617 M4.390 5.819 C 4.171 5.894,3.911 6.123,3.551 6.557 C 2.601 7.703,1.804 9.435,1.462 11.100 C 1.323 11.776,1.277 12.206,1.269 12.898 C 1.260 13.590,1.276 13.640,1.604 13.968 C 1.807 14.171,2.149 14.359,2.316 14.360 C 2.511 14.360,2.963 14.195,3.103 14.072 C 3.375 13.834,3.446 13.612,3.779 11.973 C 3.901 11.376,4.064 10.701,4.142 10.473 C 4.318 9.962,4.630 9.339,5.139 8.480 C 5.645 7.628,5.908 7.125,5.942 6.946 C 5.995 6.661,5.764 6.209,5.458 5.999 C 5.194 5.817,4.657 5.726,4.390 5.819 M10.912 7.402 C 10.252 7.479,9.458 7.810,8.680 8.333 C 8.322 8.573,7.479 9.387,7.181 9.780 C 6.725 10.379,6.381 11.102,6.239 11.758 C 6.138 12.222,6.105 12.441,5.941 13.740 C 5.754 15.223,5.670 15.706,5.434 16.660 C 5.153 17.792,5.040 18.331,5.040 18.541 C 5.040 19.171,5.946 19.717,6.540 19.445 C 6.857 19.300,7.193 18.846,7.432 18.240 C 7.899 17.059,8.085 16.212,8.399 13.840 C 8.591 12.396,8.654 12.052,8.783 11.766 C 8.944 11.409,9.221 11.029,9.550 10.714 C 9.929 10.353,10.118 10.220,10.591 9.982 L 10.955 9.800 11.997 9.800 L 13.039 9.800 13.415 9.995 C 14.624 10.624,14.930 11.028,15.516 12.770 C 15.842 13.739,15.940 13.973,16.067 14.088 C 16.222 14.228,16.450 14.292,16.805 14.292 C 17.106 14.293,17.173 14.280,17.330 14.188 C 17.545 14.062,17.744 13.844,17.844 13.623 C 17.981 13.323,17.927 12.476,17.721 11.660 C 17.476 10.692,17.048 9.968,16.242 9.157 C 15.966 8.880,15.605 8.553,15.440 8.431 C 14.856 7.999,14.107 7.630,13.552 7.501 C 13.005 7.375,11.600 7.322,10.912 7.402 M11.340 12.287 C 10.963 12.544,10.876 12.850,10.661 14.680 C 10.463 16.362,10.337 16.954,9.750 18.980 C 9.352 20.352,9.341 20.475,9.578 20.819 C 10.062 21.523,10.814 21.626,11.314 21.057 C 11.740 20.573,12.342 18.967,12.696 17.374 C 13.009 15.961,13.094 15.224,13.097 13.880 L 13.100 12.860 12.988 12.669 C 12.918 12.550,12.796 12.425,12.665 12.338 C 12.463 12.204,12.434 12.197,11.997 12.174 L 11.540 12.150 11.340 12.287 M15.853 15.914 C 15.603 16.111,15.493 16.328,15.299 17.008 C 15.135 17.584,14.899 18.620,14.842 19.020 C 14.778 19.464,14.791 19.876,14.875 20.060 C 14.954 20.235,15.200 20.476,15.406 20.583 C 15.597 20.682,15.983 20.702,16.243 20.627 C 16.677 20.500,16.946 20.075,17.240 19.051 C 17.447 18.330,17.552 17.808,17.599 17.270 C 17.659 16.591,17.595 16.319,17.314 16.054 C 17.078 15.833,16.939 15.785,16.479 15.768 L 16.058 15.752 15.853 15.914 " fill="#373B4D" stroke="none" fill-rule="evenodd"></path></svg>