<svg width="24" height="24" viewBox="0 0 24 24" fill="none" xmlns="http://www.w3.org/2000/svg"><path d="M11.040 2.485 C 10.185 2.573,9.062 2.812,8.431 3.041 C 7.651 3.323,7.240 3.757,7.240 4.300 C 7.240 4.652,7.511 5.129,7.818 5.319 C 8.118 5.504,8.423 5.474,9.973 5.105 C 10.817 4.904,11.235 4.864,12.180 4.894 C 13.689 4.941,14.603 5.159,15.759 5.749 C 17.494 6.634,18.699 7.891,19.579 9.730 C 19.991 10.592,20.096 10.984,20.322 12.500 C 20.479 13.547,20.528 13.715,20.747 13.959 C 20.989 14.228,21.219 14.332,21.577 14.336 C 21.970 14.339,22.187 14.249,22.434 13.979 C 22.760 13.622,22.844 13.218,22.763 12.400 C 22.588 10.647,22.096 9.106,21.268 7.720 C 19.584 4.903,16.503 2.883,13.400 2.563 C 12.909 2.512,11.723 2.438,11.520 2.446 C 11.443 2.448,11.227 2.466,11.040 2.485 M4.414 5.764 C 3.850 5.896,2.694 7.522,2.067 9.062 C 1.545 10.343,1.302 11.443,1.253 12.747 L 1.228 13.434 1.336 13.656 C 1.444 13.877,1.715 14.154,1.935 14.267 C 2.354 14.485,3.104 14.269,3.339 13.863 C 3.481 13.618,3.549 13.336,3.680 12.449 C 3.963 10.520,4.153 10.016,5.258 8.262 C 5.562 7.779,5.844 7.311,5.885 7.222 C 6.115 6.714,5.771 5.975,5.233 5.824 C 4.940 5.742,4.612 5.718,4.414 5.764 M11.100 7.320 C 10.647 7.368,10.072 7.549,9.454 7.838 C 8.853 8.120,8.350 8.485,7.798 9.037 C 7.063 9.774,6.636 10.446,6.339 11.334 C 6.162 11.863,6.105 12.214,5.960 13.660 C 5.776 15.497,5.729 15.752,5.324 17.130 C 5.060 18.028,5.000 18.288,5.000 18.523 C 5.000 18.861,5.267 19.249,5.617 19.420 C 5.901 19.559,6.383 19.571,6.628 19.446 C 7.057 19.227,7.418 18.528,7.819 17.140 C 8.105 16.149,8.200 15.588,8.400 13.700 C 8.468 13.062,8.552 12.405,8.586 12.240 C 8.781 11.291,9.756 10.220,10.763 9.849 C 11.247 9.670,12.421 9.633,12.970 9.778 C 13.491 9.916,14.172 10.335,14.589 10.774 C 15.085 11.296,15.268 11.691,15.544 12.830 C 15.804 13.903,15.890 14.066,16.295 14.245 C 16.573 14.367,17.022 14.371,17.284 14.253 C 17.506 14.153,17.730 13.936,17.845 13.710 C 17.920 13.563,17.930 13.479,17.927 13.049 C 17.922 12.428,17.836 11.907,17.640 11.315 C 17.338 10.404,16.944 9.779,16.203 9.037 C 15.272 8.106,14.144 7.506,13.054 7.364 C 12.608 7.305,11.478 7.280,11.100 7.320 M11.592 12.117 C 11.406 12.177,11.116 12.412,11.015 12.586 C 10.884 12.809,10.817 13.199,10.719 14.320 C 10.550 16.255,10.405 16.938,9.663 19.291 C 9.328 20.351,9.325 20.375,9.452 20.653 C 9.671 21.133,10.096 21.440,10.538 21.440 C 10.902 21.439,11.065 21.378,11.282 21.161 C 11.881 20.563,12.728 17.916,12.997 15.800 C 13.148 14.621,13.205 13.138,13.111 12.827 C 13.044 12.602,12.667 12.221,12.458 12.165 C 12.229 12.105,11.718 12.076,11.592 12.117 M16.000 15.783 C 15.547 16.040,15.477 16.176,15.204 17.320 C 14.732 19.298,14.673 19.728,14.832 20.029 C 14.958 20.268,15.142 20.466,15.355 20.591 C 15.517 20.686,15.583 20.700,15.880 20.700 C 16.181 20.700,16.244 20.687,16.430 20.584 C 16.778 20.391,16.977 20.047,17.201 19.252 C 17.482 18.255,17.643 17.399,17.648 16.876 C 17.650 16.569,17.637 16.494,17.542 16.301 C 17.350 15.907,16.939 15.679,16.423 15.680 C 16.237 15.681,16.138 15.705,16.000 15.783 " fill="#373B4D" stroke="none" fill-rule="evenodd"></path></svg>