<svg width="24" height="24" viewBox="0 0 24 24" fill="none" xmlns="http://www.w3.org/2000/svg"><path d="M11.000 2.481 C 10.299 2.536,9.320 2.739,8.519 2.996 C 7.615 3.285,7.206 3.729,7.247 4.375 C 7.265 4.662,7.377 4.907,7.593 5.133 C 7.974 5.531,8.220 5.544,9.440 5.227 C 10.743 4.888,10.923 4.861,11.900 4.865 C 13.486 4.871,14.458 5.090,15.740 5.730 C 16.633 6.176,17.293 6.656,17.961 7.345 C 18.637 8.043,19.071 8.662,19.525 9.579 C 19.984 10.506,20.153 11.129,20.341 12.580 C 20.464 13.531,20.491 13.647,20.648 13.865 C 21.140 14.551,22.113 14.532,22.580 13.827 C 22.777 13.531,22.824 13.175,22.764 12.442 C 22.686 11.476,22.488 10.530,22.179 9.643 C 21.102 6.550,18.527 4.025,15.387 2.982 C 14.408 2.657,13.822 2.556,12.480 2.481 C 11.678 2.437,11.571 2.437,11.000 2.481 M4.300 5.793 C 3.770 6.048,2.771 7.439,2.202 8.715 C 1.560 10.156,1.242 11.592,1.240 13.055 C 1.240 13.571,1.287 13.715,1.544 13.982 C 1.808 14.257,2.022 14.358,2.344 14.359 C 2.787 14.361,3.101 14.216,3.324 13.908 C 3.486 13.685,3.549 13.442,3.640 12.700 C 3.894 10.628,4.131 9.981,5.288 8.207 C 5.923 7.235,5.981 7.119,5.975 6.841 C 5.964 6.428,5.722 6.025,5.386 5.862 C 5.091 5.720,4.528 5.684,4.300 5.793 M11.240 7.280 C 10.594 7.356,9.794 7.623,9.142 7.978 C 8.075 8.559,7.086 9.607,6.586 10.683 C 6.201 11.512,6.113 11.941,5.960 13.720 C 5.821 15.343,5.713 15.919,5.322 17.127 C 4.904 18.419,4.896 18.747,5.273 19.166 C 5.538 19.461,5.709 19.536,6.120 19.538 C 6.381 19.540,6.497 19.522,6.620 19.461 C 7.085 19.231,7.382 18.655,7.842 17.087 C 8.117 16.148,8.247 15.346,8.401 13.620 C 8.446 13.114,8.511 12.543,8.545 12.350 C 8.711 11.425,9.419 10.535,10.416 9.997 C 10.872 9.751,11.218 9.680,11.959 9.680 C 12.734 9.680,12.962 9.720,13.425 9.938 C 13.899 10.162,14.236 10.393,14.560 10.718 C 15.097 11.256,15.332 11.754,15.545 12.803 C 15.755 13.842,15.849 14.040,16.218 14.221 C 16.935 14.571,17.810 14.186,17.926 13.469 C 17.981 13.128,17.897 12.197,17.765 11.676 C 17.219 9.524,15.293 7.728,13.135 7.359 C 12.612 7.270,11.665 7.230,11.240 7.280 M11.379 12.215 C 10.894 12.545,10.851 12.676,10.740 14.200 C 10.600 16.113,10.428 16.936,9.717 19.110 C 9.520 19.709,9.360 20.253,9.360 20.318 C 9.360 20.678,9.689 21.160,10.058 21.341 C 10.315 21.466,10.737 21.484,10.987 21.380 C 11.425 21.197,11.765 20.606,12.193 19.280 C 12.835 17.291,13.092 15.832,13.147 13.855 C 13.172 12.959,13.170 12.925,13.085 12.750 C 12.969 12.510,12.615 12.179,12.416 12.124 C 12.330 12.100,12.107 12.080,11.919 12.080 C 11.598 12.080,11.568 12.088,11.379 12.215 M16.148 15.695 C 15.929 15.777,15.683 15.958,15.560 16.127 C 15.491 16.222,15.415 16.431,15.343 16.727 C 15.114 17.666,14.798 19.112,14.755 19.420 C 14.714 19.715,14.717 19.758,14.798 19.970 C 14.914 20.273,15.194 20.563,15.458 20.653 C 15.760 20.756,16.141 20.742,16.390 20.617 C 16.870 20.378,17.067 19.953,17.421 18.390 C 17.768 16.861,17.747 16.369,17.321 15.985 C 17.227 15.901,17.072 15.796,16.976 15.754 C 16.742 15.651,16.343 15.622,16.148 15.695 " fill="#373B4D" stroke="none" fill-rule="evenodd"></path></svg>