<svg width="24" height="24" viewBox="0 0 24 24" fill="none" xmlns="http://www.w3.org/2000/svg"><path d="M10.000 2.674 C 8.482 2.994,7.698 3.342,7.419 3.818 C 7.333 3.965,7.315 4.046,7.315 4.278 C 7.316 4.633,7.416 4.871,7.671 5.131 C 7.997 5.463,8.037 5.464,9.720 5.173 L 10.780 4.990 11.880 4.987 C 13.641 4.981,14.294 5.102,15.396 5.641 C 17.279 6.560,18.308 7.528,19.313 9.325 C 19.800 10.196,19.877 10.438,20.337 12.552 C 20.439 13.021,20.560 13.505,20.606 13.627 C 20.716 13.922,20.935 14.138,21.205 14.218 C 21.826 14.402,22.370 14.170,22.634 13.606 C 22.736 13.388,22.740 13.355,22.737 12.700 C 22.735 12.092,22.721 11.955,22.605 11.405 C 22.183 9.406,21.368 7.642,20.310 6.440 C 19.823 5.886,18.846 4.954,18.439 4.655 C 17.274 3.798,15.954 3.168,14.629 2.836 C 13.798 2.627,13.459 2.595,11.940 2.577 L 10.540 2.560 10.000 2.674 M4.344 5.856 C 4.060 5.963,3.464 6.615,2.989 7.340 C 2.155 8.613,1.458 10.570,1.321 12.020 C 1.269 12.575,1.268 13.443,1.319 13.577 C 1.414 13.826,1.886 14.231,2.187 14.321 C 2.331 14.364,2.387 14.360,2.628 14.286 C 3.283 14.087,3.347 13.966,3.744 12.165 C 4.174 10.212,4.251 10.016,5.258 8.280 C 5.430 7.983,5.659 7.560,5.767 7.340 C 5.938 6.992,5.960 6.919,5.937 6.780 C 5.880 6.439,5.648 6.122,5.325 5.947 C 5.073 5.810,4.588 5.765,4.344 5.856 M11.220 7.384 C 10.346 7.469,9.626 7.732,8.820 8.259 C 7.978 8.810,7.015 9.876,6.622 10.694 C 6.295 11.373,6.176 11.896,5.940 13.700 C 5.766 15.023,5.643 15.734,5.435 16.620 C 5.149 17.837,5.031 18.452,5.051 18.628 C 5.102 19.083,5.782 19.572,6.271 19.505 C 6.874 19.422,7.312 18.760,7.776 17.231 C 7.976 16.572,8.126 15.768,8.382 14.000 C 8.504 13.153,8.633 12.334,8.667 12.180 C 8.858 11.330,9.635 10.462,10.669 9.945 L 10.958 9.800 12.006 9.800 L 13.053 9.800 13.357 9.966 C 14.612 10.651,14.925 11.062,15.540 12.840 C 15.947 14.015,16.009 14.124,16.328 14.219 C 16.542 14.282,16.935 14.299,17.160 14.254 C 17.336 14.219,17.780 13.801,17.846 13.608 C 17.920 13.393,17.906 12.536,17.821 12.120 C 17.661 11.333,17.405 10.695,17.020 10.120 C 16.367 9.146,15.444 8.336,14.420 7.839 C 13.951 7.612,13.558 7.497,13.060 7.442 C 12.653 7.398,11.463 7.360,11.220 7.384 M11.265 12.370 C 10.935 12.700,10.893 12.860,10.641 14.782 C 10.417 16.480,10.324 16.933,9.860 18.580 C 9.421 20.140,9.383 20.336,9.469 20.589 C 9.584 20.926,10.066 21.342,10.432 21.419 C 10.850 21.508,11.291 21.181,11.628 20.533 C 12.248 19.340,12.899 16.925,13.039 15.300 C 13.062 15.036,13.092 14.424,13.105 13.940 C 13.136 12.864,13.120 12.785,12.820 12.492 C 12.573 12.252,12.472 12.218,11.892 12.179 L 11.483 12.152 11.265 12.370 M15.861 15.923 C 15.550 16.210,15.372 16.647,15.095 17.800 C 14.811 18.983,14.736 19.688,14.862 19.991 C 14.940 20.179,15.212 20.462,15.415 20.567 C 15.781 20.756,16.306 20.684,16.599 20.406 C 16.895 20.124,17.234 19.236,17.468 18.125 C 17.556 17.711,17.575 17.511,17.578 17.014 L 17.580 16.407 17.459 16.234 C 17.233 15.913,17.016 15.817,16.415 15.775 L 16.050 15.749 15.861 15.923 " fill="#373B4D" stroke="none" fill-rule="evenodd"></path></svg>