<svg width="24" height="24" viewBox="0 0 24 24" fill="none" xmlns="http://www.w3.org/2000/svg"><path d="M10.820 2.520 C 10.482 2.564,9.455 2.773,9.040 2.883 C 7.935 3.176,7.343 3.617,7.292 4.186 C 7.266 4.479,7.324 4.699,7.493 4.944 C 7.870 5.491,8.053 5.508,9.804 5.157 C 10.865 4.945,11.271 4.907,12.160 4.938 C 13.783 4.995,14.426 5.136,15.541 5.680 C 16.580 6.188,17.570 6.922,18.219 7.668 C 18.862 8.406,19.603 9.668,19.870 10.480 C 19.990 10.845,20.062 11.171,20.379 12.795 C 20.546 13.646,20.577 13.733,20.799 13.974 C 21.033 14.229,21.194 14.295,21.583 14.295 C 21.857 14.296,21.942 14.279,22.136 14.184 C 22.648 13.933,22.859 13.339,22.763 12.417 C 22.618 11.029,22.231 9.660,21.643 8.460 C 21.099 7.351,20.480 6.517,19.475 5.540 C 18.589 4.679,17.948 4.222,16.827 3.655 C 15.171 2.816,14.046 2.555,11.860 2.503 C 11.442 2.493,10.974 2.501,10.820 2.520 M4.291 5.843 C 4.075 5.951,3.577 6.477,3.232 6.963 C 2.041 8.637,1.276 10.929,1.264 12.860 C 1.260 13.489,1.262 13.503,1.370 13.687 C 1.525 13.951,1.856 14.228,2.113 14.309 C 2.314 14.373,2.342 14.373,2.592 14.307 C 3.305 14.120,3.402 13.943,3.722 12.240 C 4.067 10.400,4.212 10.025,5.220 8.340 C 5.713 7.517,5.960 7.030,5.960 6.882 C 5.959 6.461,5.562 5.944,5.164 5.844 C 5.085 5.824,4.894 5.796,4.740 5.783 C 4.503 5.762,4.434 5.772,4.291 5.843 M10.637 7.438 C 9.978 7.577,9.173 7.959,8.510 8.448 C 8.075 8.770,7.402 9.455,7.086 9.902 C 6.799 10.307,6.513 10.850,6.376 11.252 C 6.225 11.695,6.132 12.201,6.001 13.280 C 5.754 15.317,5.696 15.656,5.360 16.981 C 5.000 18.402,4.974 18.622,5.133 18.924 C 5.246 19.138,5.539 19.368,5.809 19.455 C 6.623 19.718,7.135 19.215,7.654 17.640 C 7.990 16.624,8.130 15.912,8.380 13.960 C 8.597 12.268,8.642 12.033,8.823 11.668 C 9.164 10.978,9.802 10.361,10.560 9.987 L 10.980 9.780 11.980 9.780 L 12.980 9.780 13.340 9.953 C 13.849 10.198,14.309 10.515,14.591 10.817 C 14.920 11.168,15.182 11.703,15.462 12.593 C 15.891 13.955,15.933 14.042,16.255 14.210 C 16.473 14.323,17.061 14.331,17.287 14.224 C 17.497 14.124,17.824 13.764,17.876 13.576 C 17.969 13.244,17.903 12.370,17.735 11.685 C 17.490 10.688,17.037 9.926,16.193 9.091 C 15.555 8.460,15.095 8.132,14.354 7.782 C 13.654 7.450,13.092 7.358,11.792 7.363 C 11.170 7.365,10.900 7.383,10.637 7.438 M11.352 12.275 C 10.955 12.530,10.882 12.779,10.681 14.540 C 10.473 16.358,10.363 16.894,9.799 18.820 C 9.626 19.414,9.465 19.981,9.443 20.080 C 9.356 20.462,9.400 20.622,9.684 20.963 C 10.015 21.362,10.422 21.509,10.848 21.385 C 11.198 21.284,11.385 21.073,11.697 20.433 C 12.277 19.238,12.813 17.264,13.019 15.560 C 13.099 14.901,13.158 13.438,13.119 13.072 C 13.085 12.746,12.915 12.482,12.624 12.303 C 12.450 12.194,12.398 12.184,11.987 12.169 C 11.546 12.154,11.538 12.155,11.352 12.275 M16.107 15.758 C 15.946 15.810,15.732 15.983,15.619 16.154 C 15.484 16.358,15.347 16.775,15.137 17.620 C 14.896 18.590,14.800 19.144,14.800 19.571 C 14.800 20.006,14.851 20.129,15.141 20.394 C 15.399 20.630,15.611 20.699,15.998 20.671 C 16.629 20.626,16.901 20.263,17.259 18.993 C 17.503 18.126,17.612 17.513,17.616 16.980 C 17.620 16.530,17.613 16.487,17.510 16.292 C 17.397 16.077,17.175 15.892,16.928 15.808 C 16.744 15.745,16.243 15.715,16.107 15.758 " fill="#373B4D" stroke="none" fill-rule="evenodd"></path></svg>