<svg width="24" height="24" viewBox="0 0 24 24" fill="none" xmlns="http://www.w3.org/2000/svg"><path d="M11.220 2.466 C 10.444 2.529,9.622 2.680,8.840 2.904 C 7.766 3.211,7.299 3.598,7.251 4.219 C 7.226 4.535,7.342 4.847,7.583 5.115 C 7.947 5.520,8.240 5.530,9.620 5.187 C 10.763 4.902,10.925 4.880,11.868 4.880 C 13.460 4.880,14.497 5.108,15.738 5.730 C 17.553 6.639,18.906 8.103,19.739 10.060 C 20.035 10.753,20.152 11.248,20.340 12.600 C 20.477 13.577,20.520 13.720,20.751 13.968 C 21.033 14.270,21.192 14.339,21.600 14.339 C 21.990 14.339,22.173 14.266,22.422 14.010 C 22.820 13.601,22.876 13.099,22.676 11.704 C 22.233 8.607,20.525 5.942,17.860 4.191 C 16.799 3.495,15.494 2.939,14.365 2.704 C 13.819 2.591,13.315 2.533,12.380 2.480 C 11.717 2.442,11.549 2.440,11.220 2.466 M4.500 5.746 C 4.456 5.756,4.379 5.772,4.330 5.782 C 4.125 5.826,3.513 6.496,3.053 7.180 C 2.213 8.427,1.568 10.108,1.340 11.640 C 1.252 12.230,1.217 13.331,1.278 13.560 C 1.347 13.816,1.783 14.243,2.052 14.318 C 2.484 14.438,3.029 14.276,3.288 13.950 C 3.461 13.731,3.545 13.420,3.659 12.568 C 3.926 10.581,4.146 9.987,5.262 8.254 C 5.882 7.290,5.964 7.129,5.966 6.879 C 5.969 6.473,5.728 6.047,5.401 5.880 C 5.179 5.767,4.722 5.699,4.500 5.746 M10.860 7.343 C 10.406 7.444,9.783 7.665,9.347 7.882 C 7.701 8.700,6.432 10.361,6.145 12.070 C 6.086 12.418,6.055 12.700,5.900 14.300 C 5.790 15.429,5.679 15.972,5.319 17.140 C 4.978 18.248,4.935 18.553,5.077 18.865 C 5.182 19.098,5.413 19.340,5.627 19.444 C 5.867 19.560,6.386 19.570,6.608 19.464 C 6.997 19.277,7.295 18.774,7.645 17.712 C 8.058 16.460,8.195 15.728,8.398 13.688 C 8.527 12.393,8.578 12.102,8.738 11.741 C 9.081 10.964,9.989 10.114,10.769 9.840 C 11.084 9.730,11.457 9.682,12.000 9.682 C 12.819 9.682,13.160 9.769,13.804 10.144 C 14.394 10.487,14.870 10.983,15.143 11.540 C 15.317 11.894,15.403 12.184,15.620 13.140 C 15.806 13.960,15.948 14.156,16.457 14.302 C 17.006 14.459,17.579 14.227,17.831 13.745 C 17.930 13.556,17.938 13.505,17.935 13.080 C 17.923 11.530,17.335 10.139,16.219 9.022 C 15.386 8.188,14.386 7.630,13.300 7.393 C 12.797 7.283,11.272 7.252,10.860 7.343 M11.500 12.144 C 11.279 12.266,11.051 12.475,10.983 12.619 C 10.874 12.848,10.811 13.244,10.742 14.120 C 10.583 16.130,10.443 16.827,9.760 18.980 C 9.329 20.339,9.335 20.309,9.400 20.539 C 9.497 20.887,9.866 21.283,10.196 21.394 C 10.367 21.452,10.732 21.453,10.936 21.396 C 11.360 21.279,11.737 20.646,12.175 19.320 C 12.811 17.394,13.091 15.811,13.147 13.819 C 13.175 12.834,13.170 12.806,12.894 12.484 C 12.648 12.197,12.451 12.110,12.006 12.093 C 11.701 12.081,11.595 12.092,11.500 12.144 M16.251 15.680 C 16.027 15.713,15.662 15.968,15.540 16.176 C 15.427 16.369,15.326 16.748,15.025 18.100 C 14.716 19.491,14.693 19.659,14.782 19.927 C 14.881 20.225,15.263 20.607,15.528 20.673 C 15.925 20.772,16.301 20.710,16.578 20.498 C 16.872 20.275,17.084 19.785,17.336 18.752 C 17.642 17.494,17.724 16.779,17.604 16.420 C 17.432 15.907,16.854 15.591,16.251 15.680 " fill="#373B4D" stroke="none" fill-rule="evenodd"></path></svg>