<svg width="24" height="24" viewBox="0 0 24 24" fill="none" xmlns="http://www.w3.org/2000/svg"><path d="M11.066 2.482 C 9.975 2.604,8.686 2.912,8.134 3.180 C 7.522 3.477,7.260 3.807,7.260 4.280 C 7.260 4.763,7.611 5.285,8.010 5.397 C 8.278 5.472,8.639 5.417,10.173 5.064 C 10.802 4.920,11.434 4.867,12.160 4.898 C 13.739 4.965,14.509 5.143,15.640 5.704 C 17.535 6.644,18.791 7.971,19.697 9.992 C 19.967 10.594,20.063 10.969,20.281 12.260 C 20.494 13.521,20.516 13.620,20.635 13.811 C 20.848 14.156,21.175 14.327,21.614 14.324 C 22.064 14.322,22.365 14.151,22.588 13.770 C 22.803 13.403,22.840 13.024,22.740 12.199 C 22.511 10.315,21.942 8.722,20.981 7.280 C 20.547 6.629,20.131 6.137,19.491 5.516 C 18.618 4.671,17.800 4.100,16.660 3.539 C 15.387 2.912,14.350 2.634,12.880 2.524 C 11.990 2.458,11.398 2.444,11.066 2.482 M4.216 5.864 C 3.871 6.094,3.493 6.533,3.030 7.240 C 1.885 8.988,1.240 11.114,1.240 13.138 C 1.240 13.507,1.242 13.513,1.402 13.754 C 1.748 14.272,2.141 14.444,2.660 14.306 C 3.080 14.194,3.313 13.990,3.443 13.621 C 3.488 13.493,3.603 12.918,3.699 12.344 C 3.883 11.240,3.977 10.822,4.145 10.350 C 4.302 9.913,4.670 9.214,5.152 8.437 C 5.867 7.286,5.920 7.188,5.946 6.972 C 5.984 6.650,5.877 6.356,5.628 6.101 C 5.379 5.845,5.142 5.760,4.678 5.760 C 4.414 5.760,4.349 5.775,4.216 5.864 M10.612 7.419 C 9.512 7.703,8.623 8.219,7.793 9.053 C 7.272 9.576,6.926 10.042,6.660 10.580 C 6.242 11.423,6.149 11.828,5.958 13.659 C 5.762 15.530,5.723 15.735,5.278 17.280 C 4.924 18.505,4.931 18.811,5.320 19.200 C 5.538 19.418,5.732 19.495,6.109 19.513 C 6.387 19.526,6.466 19.514,6.622 19.439 C 6.998 19.257,7.305 18.722,7.657 17.640 C 8.049 16.434,8.154 15.892,8.382 13.900 C 8.590 12.071,8.604 12.002,8.866 11.530 C 9.332 10.687,10.279 9.933,11.070 9.774 C 11.462 9.695,12.526 9.684,12.860 9.754 C 13.207 9.828,13.849 10.157,14.225 10.455 C 14.851 10.950,15.175 11.473,15.420 12.380 C 15.744 13.579,15.809 13.787,15.904 13.932 C 16.082 14.202,16.392 14.334,16.842 14.330 C 17.170 14.327,17.344 14.255,17.597 14.019 C 17.900 13.735,17.935 13.605,17.908 12.870 C 17.876 12.012,17.716 11.366,17.340 10.580 C 16.787 9.425,15.544 8.264,14.270 7.712 C 13.562 7.406,13.014 7.319,11.801 7.322 C 11.070 7.324,10.940 7.334,10.612 7.419 M11.440 12.187 C 11.385 12.224,11.264 12.327,11.171 12.415 C 10.907 12.665,10.850 12.900,10.720 14.280 C 10.529 16.302,10.402 16.915,9.712 19.120 C 9.362 20.243,9.332 20.438,9.469 20.700 C 9.855 21.437,10.741 21.676,11.251 21.181 C 11.638 20.805,12.103 19.699,12.519 18.166 C 12.931 16.647,13.132 15.191,13.137 13.680 C 13.140 12.762,13.138 12.752,12.845 12.450 C 12.587 12.184,12.480 12.145,11.980 12.131 C 11.619 12.122,11.522 12.132,11.440 12.187 M16.151 15.717 C 15.980 15.772,15.777 15.910,15.647 16.058 C 15.495 16.231,15.368 16.618,15.123 17.660 C 14.652 19.661,14.649 19.931,15.093 20.375 C 15.367 20.649,15.485 20.697,15.880 20.697 C 16.278 20.697,16.457 20.623,16.691 20.365 C 16.941 20.088,17.091 19.706,17.343 18.708 C 17.627 17.583,17.715 16.709,17.578 16.382 C 17.486 16.161,17.224 15.900,16.996 15.802 C 16.773 15.706,16.324 15.661,16.151 15.717 " fill="#373B4D" stroke="none" fill-rule="evenodd"></path></svg>