<svg width="24" height="24" viewBox="0 0 24 24" fill="none" xmlns="http://www.w3.org/2000/svg"><path d="M10.618 2.562 C 10.234 2.609,9.307 2.816,8.820 2.964 C 8.057 3.197,7.628 3.462,7.411 3.832 C 7.319 3.989,7.302 4.062,7.305 4.299 C 7.309 4.640,7.412 4.883,7.661 5.139 C 7.976 5.463,8.120 5.465,9.736 5.172 C 10.667 5.003,10.801 4.988,11.585 4.970 C 12.881 4.941,13.858 5.043,14.580 5.284 C 15.066 5.446,15.963 5.894,16.500 6.243 C 17.755 7.059,18.498 7.862,19.260 9.221 C 19.826 10.231,19.868 10.354,20.238 12.108 C 20.517 13.432,20.583 13.675,20.712 13.859 C 20.920 14.158,21.188 14.279,21.642 14.280 C 22.136 14.280,22.515 13.992,22.687 13.484 C 22.857 12.980,22.782 12.075,22.460 10.766 C 22.080 9.221,21.363 7.729,20.468 6.620 C 20.135 6.206,19.110 5.180,18.701 4.850 C 17.207 3.642,15.103 2.761,13.340 2.604 C 12.722 2.549,10.956 2.522,10.618 2.562 M4.280 5.870 C 3.983 6.016,3.337 6.766,2.894 7.480 C 2.192 8.614,1.696 9.920,1.398 11.420 C 1.290 11.966,1.240 13.336,1.319 13.578 C 1.384 13.774,1.749 14.129,2.024 14.264 C 2.273 14.385,2.400 14.382,2.771 14.241 C 3.316 14.034,3.380 13.893,3.782 11.980 C 4.131 10.320,4.284 9.933,5.200 8.380 C 5.570 7.754,5.901 7.115,5.941 6.953 C 5.956 6.892,5.939 6.748,5.901 6.619 C 5.809 6.300,5.470 5.954,5.163 5.864 C 4.875 5.779,4.460 5.782,4.280 5.870 M10.980 7.401 C 10.416 7.462,9.812 7.675,9.161 8.042 C 8.646 8.332,8.366 8.554,7.774 9.141 C 7.001 9.908,6.572 10.603,6.307 11.522 C 6.182 11.951,6.115 12.353,5.940 13.720 C 5.753 15.179,5.645 15.778,5.356 16.977 C 5.055 18.229,5.007 18.532,5.076 18.761 C 5.140 18.977,5.453 19.294,5.709 19.404 C 6.570 19.773,7.133 19.233,7.694 17.500 C 7.961 16.676,8.106 15.959,8.319 14.420 C 8.535 12.861,8.642 12.200,8.718 11.958 C 8.826 11.609,9.134 11.144,9.499 10.776 C 9.858 10.414,10.144 10.209,10.629 9.965 L 10.958 9.800 12.005 9.800 L 13.052 9.800 13.396 9.986 C 14.634 10.656,14.924 11.042,15.537 12.829 C 15.944 14.018,15.995 14.111,16.307 14.222 C 16.513 14.295,17.085 14.296,17.260 14.223 C 17.422 14.155,17.724 13.863,17.827 13.674 C 17.926 13.492,17.926 12.654,17.826 12.140 C 17.563 10.776,17.003 9.828,15.840 8.775 C 15.215 8.210,14.268 7.680,13.600 7.523 C 13.020 7.386,11.689 7.325,10.980 7.401 M11.309 12.321 C 10.952 12.633,10.882 12.886,10.660 14.655 C 10.436 16.449,10.353 16.845,9.796 18.815 C 9.452 20.029,9.387 20.336,9.438 20.513 C 9.550 20.903,9.970 21.306,10.362 21.401 C 10.780 21.501,11.161 21.306,11.464 20.837 C 12.027 19.968,12.726 17.673,12.981 15.857 C 13.047 15.392,13.118 14.115,13.119 13.368 C 13.120 12.854,13.076 12.723,12.813 12.474 C 12.573 12.246,12.459 12.207,11.956 12.179 L 11.500 12.154 11.309 12.321 M15.868 15.902 C 15.553 16.151,15.355 16.658,15.043 18.020 C 14.799 19.081,14.745 19.624,14.848 19.975 C 14.880 20.083,14.971 20.213,15.109 20.349 C 15.371 20.606,15.646 20.703,16.008 20.666 C 16.545 20.609,16.807 20.325,17.098 19.482 C 17.409 18.585,17.606 17.606,17.611 16.940 C 17.614 16.493,17.569 16.345,17.363 16.110 C 17.161 15.879,16.949 15.799,16.473 15.774 L 16.060 15.751 15.868 15.902 " fill="#373B4D" stroke="none" fill-rule="evenodd"></path></svg>