<svg width="24" height="24" viewBox="0 0 24 24" fill="none" xmlns="http://www.w3.org/2000/svg"><path d="M14.610 3.138 C 14.182 3.383,13.322 4.181,12.944 4.683 C 12.515 5.254,12.068 6.202,11.858 6.985 L 11.750 7.390 11.385 7.440 C 10.728 7.529,9.969 7.794,9.877 7.966 C 9.820 8.072,9.927 8.240,10.051 8.240 C 10.100 8.240,10.296 8.187,10.486 8.122 C 11.077 7.922,11.406 7.867,12.020 7.868 C 12.829 7.870,13.814 8.064,14.085 8.275 C 14.137 8.315,14.370 8.476,14.602 8.632 C 14.876 8.816,15.148 9.045,15.382 9.288 C 15.744 9.666,16.036 10.040,15.968 10.040 C 15.948 10.040,15.798 9.979,15.636 9.904 C 15.473 9.829,15.227 9.738,15.088 9.702 C 14.842 9.638,13.920 9.566,13.920 9.610 C 13.920 9.622,14.005 9.682,14.110 9.742 C 14.683 10.073,15.151 10.594,15.454 11.240 C 15.720 11.809,15.778 12.077,15.776 12.740 C 15.774 13.379,15.724 13.693,15.555 14.120 C 15.118 15.220,14.275 15.954,13.085 16.269 C 12.751 16.358,12.613 16.372,12.040 16.375 C 11.441 16.378,11.344 16.368,10.994 16.271 C 10.450 16.120,10.007 15.943,9.734 15.766 C 9.090 15.348,8.622 14.824,8.318 14.180 C 7.997 13.499,7.956 13.140,8.164 12.827 C 8.457 12.384,9.045 11.998,9.673 11.836 C 9.842 11.792,10.230 11.730,10.536 11.698 C 10.846 11.665,11.152 11.610,11.229 11.573 C 11.381 11.501,11.866 11.045,11.981 10.866 C 12.054 10.752,12.054 10.751,11.957 10.677 C 11.904 10.637,11.573 10.454,11.223 10.272 C 10.358 9.821,10.032 9.589,9.130 8.780 C 8.979 8.645,8.944 8.531,8.880 7.957 C 8.840 7.594,8.857 7.258,8.943 6.725 C 8.971 6.555,8.969 6.552,8.876 6.580 C 8.694 6.635,7.955 7.061,7.661 7.280 C 7.499 7.401,7.226 7.624,7.055 7.775 L 6.744 8.050 6.674 7.887 C 6.562 7.624,6.517 7.303,6.492 6.609 C 6.479 6.250,6.455 5.950,6.440 5.940 C 6.425 5.931,6.279 6.010,6.116 6.118 C 4.846 6.953,3.778 8.476,3.321 10.103 C 3.259 10.325,3.159 10.802,3.099 11.163 C 3.002 11.754,2.993 11.887,3.013 12.480 C 3.148 16.482,5.912 19.812,9.882 20.754 C 10.694 20.946,10.941 20.972,11.960 20.971 C 13.043 20.969,13.454 20.924,14.240 20.720 C 15.245 20.459,16.305 19.990,17.107 19.453 C 18.919 18.239,20.215 16.413,20.738 14.336 C 21.273 12.209,20.951 9.859,19.901 8.240 C 19.572 7.732,18.918 7.030,18.629 6.874 C 18.562 6.838,18.561 6.844,18.615 6.968 C 18.915 7.648,19.089 8.079,19.190 8.400 C 19.314 8.789,19.444 9.320,19.416 9.320 C 19.408 9.320,19.329 9.177,19.241 9.003 C 18.754 8.033,18.390 7.542,17.007 5.985 C 16.618 5.547,16.169 5.025,16.008 4.825 C 15.660 4.390,15.005 3.449,14.884 3.210 C 14.837 3.116,14.794 3.040,14.789 3.040 C 14.784 3.041,14.703 3.085,14.610 3.138 " fill="#373B4D" stroke="none" fill-rule="evenodd"></path></svg>