<svg width="24" height="24" viewBox="0 0 24 24" fill="none" xmlns="http://www.w3.org/2000/svg"><path d="M13.156 2.646 C 12.615 2.995,12.186 3.544,11.740 4.460 C 10.987 6.005,10.431 8.052,9.879 11.314 C 9.714 12.295,9.671 12.480,9.608 12.480 C 9.544 12.480,8.931 11.819,8.789 11.598 C 8.476 11.107,8.335 10.589,8.220 9.500 C 8.020 7.617,8.011 7.571,7.790 7.350 C 7.546 7.106,7.281 7.001,6.909 7.000 C 6.735 7.000,6.541 7.024,6.469 7.054 C 6.190 7.172,5.642 7.719,5.181 8.340 C 4.689 9.003,4.251 9.894,3.982 10.783 C 3.716 11.660,3.680 11.912,3.654 13.080 C 3.633 14.063,3.637 14.170,3.718 14.560 C 3.970 15.782,4.493 17.068,5.087 17.927 C 5.504 18.529,6.242 19.297,6.960 19.876 C 7.906 20.639,9.367 21.249,10.862 21.506 C 11.355 21.590,12.469 21.601,12.980 21.526 C 14.023 21.372,14.926 21.093,15.788 20.659 C 16.646 20.227,17.015 19.947,17.902 19.061 C 18.511 18.452,18.721 18.213,18.953 17.862 C 19.565 16.937,20.079 15.672,20.268 14.620 C 20.354 14.144,20.366 12.401,20.286 11.960 C 20.130 11.101,19.819 10.084,19.520 9.460 C 19.218 8.829,18.798 8.276,17.577 6.900 C 16.276 5.433,16.191 5.320,15.337 3.901 C 15.028 3.389,14.703 2.899,14.602 2.795 C 14.383 2.570,14.125 2.480,13.699 2.480 C 13.431 2.480,13.396 2.491,13.156 2.646 M13.157 11.282 C 13.464 11.790,13.585 11.953,14.258 12.760 C 14.923 13.559,15.215 13.988,15.353 14.371 C 15.450 14.642,15.457 14.715,15.472 15.533 C 15.487 16.351,15.482 16.424,15.399 16.684 C 15.050 17.769,13.951 18.807,12.864 19.081 C 12.345 19.211,11.335 19.170,10.850 19.000 C 10.312 18.811,9.693 18.364,9.267 17.859 C 8.868 17.385,8.531 16.579,8.419 15.830 C 8.386 15.609,8.393 15.607,8.688 15.723 C 9.442 16.020,11.400 16.327,11.400 16.148 C 11.400 16.002,11.574 14.708,11.662 14.200 C 11.848 13.122,12.144 12.069,12.410 11.540 C 12.557 11.248,12.840 10.836,12.878 10.859 C 12.899 10.872,13.024 11.062,13.157 11.282 " fill="#373B4D" stroke="none" fill-rule="evenodd"></path></svg>