<svg width="24" height="24" viewBox="0 0 24 24" fill="none" xmlns="http://www.w3.org/2000/svg"><path d="M13.300 2.562 C 12.433 3.040,11.715 4.198,11.059 6.180 C 10.635 7.458,10.291 8.946,9.900 11.180 C 9.716 12.228,9.659 12.480,9.603 12.480 C 9.565 12.480,9.105 12.000,8.913 11.760 C 8.702 11.496,8.524 11.115,8.419 10.701 C 8.330 10.350,8.301 10.146,8.119 8.590 C 8.012 7.676,7.970 7.536,7.738 7.322 C 7.474 7.079,7.323 7.025,6.900 7.022 C 6.458 7.019,6.378 7.057,5.945 7.476 C 4.937 8.452,4.203 9.797,3.818 11.380 C 3.693 11.890,3.624 12.869,3.651 13.755 C 3.672 14.479,3.730 14.777,4.023 15.685 C 4.525 17.237,5.209 18.295,6.449 19.431 C 7.159 20.082,7.758 20.472,8.606 20.835 C 9.953 21.414,11.200 21.641,12.555 21.556 C 14.098 21.460,15.888 20.793,16.986 19.906 C 17.401 19.572,18.413 18.563,18.712 18.186 C 19.290 17.460,19.875 16.208,20.165 15.080 C 20.261 14.705,20.291 14.478,20.325 13.857 C 20.400 12.477,20.294 11.651,19.879 10.398 C 19.465 9.144,19.226 8.784,17.540 6.860 C 17.078 6.332,16.598 5.774,16.474 5.620 C 16.230 5.316,15.743 4.579,15.285 3.820 C 14.590 2.668,14.437 2.531,13.810 2.494 C 13.501 2.476,13.441 2.484,13.300 2.562 M13.158 11.290 C 13.467 11.781,13.637 12.009,14.224 12.720 C 14.817 13.438,15.102 13.840,15.270 14.190 C 15.395 14.451,15.413 14.534,15.448 14.990 C 15.469 15.271,15.479 15.734,15.470 16.020 C 15.455 16.465,15.437 16.580,15.345 16.820 C 15.189 17.222,14.906 17.653,14.564 18.012 C 14.172 18.422,13.860 18.654,13.420 18.863 C 12.910 19.106,12.518 19.177,11.860 19.148 C 10.987 19.109,10.538 18.946,9.866 18.426 C 9.301 17.990,8.897 17.412,8.627 16.654 C 8.506 16.315,8.386 15.718,8.430 15.674 C 8.447 15.657,8.614 15.695,8.801 15.759 C 9.605 16.032,11.292 16.302,11.374 16.170 C 11.384 16.153,11.441 15.779,11.500 15.340 C 11.794 13.133,12.171 11.795,12.702 11.070 C 12.778 10.966,12.854 10.880,12.870 10.880 C 12.887 10.880,13.016 11.065,13.158 11.290 " fill="#373B4D" stroke="none" fill-rule="evenodd"></path></svg>