<svg width="24" height="24" viewBox="0 0 24 24" fill="none" xmlns="http://www.w3.org/2000/svg"><path d="M13.420 2.529 C 13.108 2.640,12.529 3.194,12.190 3.705 C 11.304 5.039,10.706 6.937,9.979 10.726 C 9.631 12.538,9.644 12.485,9.554 12.437 C 9.513 12.415,9.335 12.231,9.158 12.029 C 8.583 11.371,8.425 10.918,8.222 9.340 C 7.987 7.510,7.952 7.409,7.440 7.136 C 7.225 7.021,6.602 7.032,6.366 7.155 C 6.128 7.279,5.887 7.508,5.501 7.980 C 4.793 8.844,4.374 9.623,4.003 10.766 C 3.803 11.380,3.722 11.822,3.677 12.540 C 3.615 13.530,3.659 14.347,3.804 14.909 C 4.047 15.848,4.497 16.961,4.875 17.561 C 5.630 18.757,6.922 19.978,8.054 20.564 C 8.724 20.910,9.722 21.259,10.588 21.447 C 10.930 21.522,11.108 21.533,11.980 21.533 C 13.169 21.533,13.520 21.479,14.542 21.142 C 15.772 20.736,16.533 20.302,17.400 19.510 C 18.831 18.205,19.440 17.288,19.997 15.604 C 20.201 14.989,20.266 14.639,20.324 13.853 C 20.416 12.601,20.293 11.685,19.855 10.367 C 19.471 9.211,19.199 8.797,17.542 6.860 C 16.394 5.517,16.313 5.408,15.182 3.660 C 14.574 2.721,14.435 2.594,13.938 2.522 C 13.605 2.474,13.574 2.474,13.420 2.529 M13.201 11.360 C 13.362 11.591,13.758 12.122,14.082 12.540 C 15.175 13.953,15.288 14.139,15.384 14.685 C 15.454 15.086,15.463 16.106,15.400 16.500 C 15.326 16.964,15.007 17.504,14.484 18.052 C 13.982 18.578,13.489 18.882,12.873 19.047 C 12.390 19.176,11.553 19.177,11.102 19.047 C 10.235 18.798,9.399 18.125,8.943 17.307 C 8.706 16.884,8.442 16.097,8.441 15.810 C 8.440 15.685,8.532 15.692,9.170 15.859 C 9.844 16.036,10.516 16.149,10.998 16.166 L 11.377 16.180 11.488 15.460 C 11.803 13.416,12.072 12.295,12.410 11.610 C 12.600 11.227,12.840 10.863,12.877 10.905 C 12.894 10.924,13.040 11.129,13.201 11.360 " fill="#373B4D" stroke="none" fill-rule="evenodd"></path></svg>