<svg width="24" height="24" viewBox="0 0 24 24" fill="none" xmlns="http://www.w3.org/2000/svg"><path d="M13.474 2.519 C 13.164 2.613,12.522 3.226,12.152 3.779 C 11.672 4.496,11.257 5.492,10.860 6.880 C 10.580 7.857,10.420 8.554,9.998 10.635 C 9.805 11.589,9.625 12.390,9.600 12.415 C 9.508 12.503,8.821 11.641,8.624 11.191 C 8.474 10.847,8.383 10.409,8.201 9.140 C 8.002 7.753,7.932 7.515,7.659 7.290 C 7.474 7.137,7.277 7.080,6.935 7.080 C 6.400 7.081,6.168 7.208,5.691 7.763 C 5.210 8.323,4.902 8.775,4.605 9.360 C 4.131 10.290,3.828 11.192,3.716 12.000 C 3.637 12.567,3.648 14.082,3.733 14.553 C 3.864 15.274,4.403 16.745,4.761 17.360 C 5.128 17.991,5.806 18.819,6.378 19.336 C 7.555 20.398,8.386 20.838,10.180 21.348 L 10.820 21.530 12.080 21.507 C 13.256 21.486,13.365 21.478,13.720 21.385 C 14.569 21.161,15.649 20.745,16.129 20.456 C 17.080 19.885,18.198 18.836,18.908 17.850 C 19.337 17.254,19.759 16.358,20.034 15.460 C 20.528 13.846,20.454 12.111,19.814 10.268 C 19.443 9.198,19.155 8.768,17.508 6.820 C 16.661 5.819,16.331 5.380,15.539 4.200 C 14.799 3.097,14.605 2.841,14.406 2.706 C 14.183 2.554,13.686 2.454,13.474 2.519 M13.031 11.130 C 13.116 11.245,13.582 11.871,14.066 12.520 C 15.440 14.361,15.380 14.217,15.380 15.644 L 15.380 16.667 15.192 17.044 C 14.807 17.817,14.066 18.558,13.373 18.865 C 12.741 19.144,11.792 19.221,11.140 19.046 C 10.323 18.826,9.537 18.226,9.055 17.453 C 8.759 16.979,8.393 15.980,8.456 15.816 C 8.489 15.731,8.664 15.747,9.331 15.897 C 10.061 16.061,10.628 16.150,11.057 16.167 L 11.374 16.180 11.564 15.034 C 11.875 13.162,12.149 12.106,12.485 11.480 C 12.637 11.198,12.823 10.920,12.861 10.920 C 12.870 10.920,12.947 11.014,13.031 11.130 " fill="#373B4D" stroke="none" fill-rule="evenodd"></path></svg>