<svg width="24" height="24" viewBox="0 0 24 24" fill="none" xmlns="http://www.w3.org/2000/svg"><path d="M13.480 2.468 C 13.324 2.499,12.876 2.814,12.656 3.048 C 11.943 3.806,11.339 5.110,10.762 7.140 C 10.436 8.286,10.184 9.488,9.861 11.440 C 9.708 12.362,9.681 12.480,9.620 12.480 C 9.535 12.480,9.030 11.965,8.843 11.687 C 8.431 11.075,8.306 10.576,8.160 8.973 C 8.116 8.493,8.051 7.965,8.016 7.800 C 7.960 7.539,7.929 7.479,7.782 7.337 C 7.515 7.079,7.284 6.986,6.903 6.983 C 6.474 6.980,6.326 7.060,5.840 7.558 C 4.984 8.435,4.366 9.503,3.984 10.769 C 3.706 11.688,3.674 11.913,3.652 13.080 C 3.633 14.108,3.636 14.156,3.738 14.660 C 3.958 15.744,4.479 17.032,5.028 17.851 C 5.543 18.617,6.567 19.636,7.360 20.170 C 8.747 21.103,10.752 21.676,12.306 21.584 C 14.050 21.480,15.641 20.925,16.926 19.971 C 17.430 19.597,18.357 18.675,18.747 18.159 C 19.439 17.243,20.037 15.859,20.262 14.654 C 20.350 14.181,20.385 12.824,20.323 12.276 C 20.258 11.707,20.106 11.040,19.900 10.420 C 19.457 9.087,19.198 8.710,17.193 6.467 C 16.238 5.399,16.120 5.231,15.095 3.500 C 14.690 2.815,14.532 2.636,14.255 2.548 C 14.039 2.479,13.635 2.437,13.480 2.468 M13.119 11.210 C 13.402 11.710,13.606 11.990,14.154 12.634 C 15.384 14.079,15.498 14.334,15.498 15.640 C 15.497 16.408,15.495 16.425,15.374 16.768 C 14.973 17.902,13.806 18.930,12.700 19.123 C 12.347 19.184,11.356 19.146,11.020 19.058 C 10.727 18.982,10.201 18.707,9.890 18.468 C 9.140 17.891,8.680 17.139,8.482 16.172 C 8.359 15.565,8.351 15.586,8.643 15.704 C 9.187 15.925,10.242 16.145,10.964 16.187 L 11.388 16.212 11.436 15.776 C 11.643 13.886,11.997 12.363,12.429 11.500 C 12.577 11.206,12.825 10.840,12.878 10.840 C 12.895 10.840,13.003 11.007,13.119 11.210 " fill="#373B4D" stroke="none" fill-rule="evenodd"></path></svg>