<svg width="24" height="24" viewBox="0 0 24 24" fill="none" xmlns="http://www.w3.org/2000/svg"><path d="M13.282 2.585 C 12.789 2.834,12.220 3.520,11.785 4.390 C 11.029 5.899,10.515 7.746,9.900 11.160 C 9.698 12.285,9.654 12.480,9.602 12.480 C 9.537 12.480,8.917 11.783,8.775 11.550 C 8.465 11.044,8.362 10.614,8.180 9.080 C 8.015 7.694,7.974 7.531,7.728 7.315 C 7.488 7.104,7.302 7.042,6.909 7.041 C 6.695 7.040,6.505 7.062,6.423 7.096 C 6.123 7.221,5.419 7.988,4.949 8.700 C 4.458 9.444,3.939 10.716,3.783 11.560 C 3.646 12.303,3.598 13.593,3.681 14.281 C 3.799 15.247,4.379 16.816,4.942 17.689 C 5.590 18.692,6.828 19.879,7.830 20.455 C 8.455 20.815,9.595 21.240,10.347 21.395 C 11.064 21.542,11.419 21.571,12.258 21.549 C 12.914 21.531,13.151 21.508,13.560 21.422 C 14.648 21.192,15.765 20.740,16.583 20.196 C 17.198 19.787,18.583 18.409,18.973 17.818 C 19.493 17.029,20.017 15.779,20.221 14.840 C 20.252 14.697,20.299 14.236,20.326 13.816 C 20.406 12.537,20.301 11.723,19.894 10.470 C 19.506 9.274,19.209 8.794,17.975 7.364 C 17.626 6.959,17.136 6.392,16.888 6.104 C 16.427 5.571,15.887 4.805,15.361 3.940 C 14.788 2.997,14.546 2.697,14.263 2.579 C 14.195 2.550,13.996 2.515,13.820 2.501 C 13.523 2.476,13.485 2.482,13.282 2.585 M13.205 11.370 C 13.385 11.639,13.819 12.218,14.171 12.656 C 14.870 13.527,15.209 14.019,15.329 14.335 C 15.441 14.629,15.507 15.687,15.449 16.258 C 15.414 16.609,15.381 16.739,15.266 16.981 C 14.860 17.835,14.057 18.616,13.254 18.938 C 12.562 19.215,11.641 19.231,10.845 18.979 C 10.219 18.781,9.382 18.088,9.008 17.457 C 8.624 16.810,8.298 15.680,8.495 15.680 C 8.525 15.680,8.722 15.733,8.932 15.798 C 9.633 16.013,10.793 16.217,11.181 16.193 L 11.380 16.180 11.526 15.180 C 11.785 13.412,12.034 12.382,12.382 11.647 C 12.533 11.326,12.813 10.880,12.863 10.880 C 12.871 10.880,13.025 11.101,13.205 11.370 " fill="#373B4D" stroke="none" fill-rule="evenodd"></path></svg>