<svg width="24" height="24" viewBox="0 0 24 24" fill="none" xmlns="http://www.w3.org/2000/svg"><path d="M14.465 3.242 C 14.069 3.506,13.219 4.323,12.918 4.727 C 12.515 5.268,12.045 6.287,11.833 7.078 L 11.749 7.392 11.425 7.439 C 10.750 7.536,9.929 7.815,9.870 7.969 C 9.836 8.057,9.930 8.218,10.022 8.232 C 10.067 8.238,10.300 8.182,10.541 8.106 C 11.189 7.903,11.501 7.864,12.232 7.893 C 12.883 7.919,13.466 8.013,13.820 8.149 C 14.036 8.232,14.573 8.594,15.016 8.955 C 15.378 9.249,16.012 9.966,15.955 10.016 C 15.947 10.024,15.760 9.958,15.540 9.869 C 15.118 9.699,14.496 9.586,14.108 9.609 L 13.915 9.620 14.222 9.820 C 14.932 10.284,15.571 11.214,15.721 12.004 C 15.783 12.331,15.769 13.280,15.697 13.632 C 15.630 13.959,15.370 14.554,15.163 14.856 C 14.684 15.552,13.944 16.042,13.008 16.284 C 12.550 16.402,11.470 16.399,11.020 16.280 C 9.673 15.920,8.843 15.258,8.297 14.105 C 7.924 13.316,7.953 12.992,8.438 12.520 C 8.915 12.057,9.420 11.853,10.427 11.718 C 10.800 11.668,11.126 11.602,11.220 11.558 C 11.385 11.480,11.867 11.038,11.988 10.854 C 12.073 10.723,12.098 10.742,11.260 10.293 C 10.908 10.105,10.473 9.849,10.292 9.725 C 9.848 9.419,9.086 8.768,9.017 8.634 C 8.888 8.385,8.838 7.429,8.924 6.875 C 8.948 6.720,8.958 6.584,8.946 6.573 C 8.915 6.542,8.307 6.859,7.940 7.097 C 7.764 7.212,7.451 7.448,7.245 7.623 C 6.674 8.106,6.738 8.089,6.644 7.782 C 6.565 7.529,6.481 6.756,6.479 6.284 C 6.478 5.941,6.448 5.921,6.179 6.083 C 5.231 6.653,4.188 7.924,3.668 9.142 C 3.287 10.032,3.000 11.323,3.000 12.140 C 3.001 14.767,4.205 17.327,6.200 18.943 C 7.357 19.881,8.523 20.433,10.180 20.826 C 10.658 20.939,10.666 20.940,11.980 20.939 C 13.198 20.938,13.332 20.931,13.711 20.848 C 15.311 20.498,16.721 19.832,17.829 18.906 C 19.379 17.608,20.424 15.877,20.820 13.949 C 21.277 11.725,20.795 9.326,19.587 7.820 C 19.308 7.473,18.709 6.880,18.636 6.880 C 18.577 6.880,18.588 6.911,18.881 7.600 C 19.120 8.164,19.401 9.038,19.399 9.213 C 19.399 9.262,19.296 9.106,19.164 8.851 C 18.719 8.000,18.412 7.592,17.026 6.005 C 16.539 5.447,16.008 4.817,15.846 4.605 C 15.596 4.279,14.953 3.337,14.819 3.103 C 14.783 3.039,14.750 3.051,14.465 3.242 " fill="#373B4D" stroke="none" fill-rule="evenodd"></path></svg>