<svg width="24" height="24" viewBox="0 0 24 24" fill="none" xmlns="http://www.w3.org/2000/svg"><path d="M13.320 2.585 C 13.038 2.727,12.444 3.319,12.181 3.720 C 11.296 5.073,10.712 6.941,9.956 10.840 C 9.673 12.303,9.640 12.440,9.577 12.440 C 9.482 12.440,8.887 11.716,8.723 11.401 C 8.466 10.908,8.407 10.631,8.119 8.585 C 7.981 7.612,7.874 7.364,7.512 7.183 C 7.332 7.094,7.254 7.080,6.922 7.081 C 6.487 7.082,6.329 7.136,6.049 7.379 C 5.826 7.573,5.271 8.249,4.982 8.680 C 4.498 9.401,3.942 10.750,3.784 11.587 C 3.617 12.477,3.606 13.926,3.762 14.690 C 3.927 15.499,4.434 16.831,4.819 17.465 C 5.491 18.571,6.640 19.717,7.757 20.396 C 8.312 20.733,9.273 21.108,10.260 21.372 L 10.740 21.500 11.980 21.500 C 12.862 21.500,13.289 21.485,13.460 21.447 C 14.253 21.272,15.388 20.864,15.979 20.542 C 17.133 19.913,18.540 18.537,19.233 17.361 C 19.631 16.683,20.084 15.485,20.216 14.760 C 20.483 13.284,20.382 12.006,19.876 10.455 C 19.477 9.230,19.221 8.837,17.542 6.860 C 16.549 5.691,16.346 5.421,15.496 4.137 C 14.509 2.644,14.440 2.579,13.760 2.501 C 13.570 2.479,13.510 2.490,13.320 2.585 M13.184 11.331 C 13.341 11.556,13.738 12.092,14.067 12.521 C 15.419 14.285,15.419 14.286,15.417 15.680 C 15.415 16.467,15.408 16.560,15.326 16.780 C 15.062 17.494,14.317 18.349,13.615 18.744 C 12.761 19.224,11.541 19.282,10.665 18.885 C 10.083 18.621,9.467 18.092,9.098 17.538 C 8.738 16.998,8.346 15.878,8.473 15.751 C 8.509 15.715,8.662 15.739,9.130 15.851 C 9.915 16.041,10.568 16.150,11.019 16.167 L 11.377 16.180 11.468 15.600 C 11.797 13.482,12.080 12.286,12.409 11.620 C 12.571 11.292,12.811 10.920,12.860 10.922 C 12.882 10.922,13.028 11.107,13.184 11.331 " fill="#373B4D" stroke="none" fill-rule="evenodd"></path></svg>