<svg width="24" height="24" viewBox="0 0 24 24" fill="none" xmlns="http://www.w3.org/2000/svg"><path d="M14.465 3.259 C 13.968 3.603,13.342 4.212,12.891 4.789 C 12.570 5.200,11.979 6.487,11.819 7.125 L 11.753 7.390 11.296 7.476 C 10.545 7.617,9.917 7.857,9.887 8.014 C 9.867 8.117,9.954 8.200,10.081 8.200 C 10.142 8.200,10.405 8.144,10.666 8.076 C 11.074 7.970,11.232 7.949,11.800 7.932 C 13.163 7.890,13.799 8.060,14.640 8.690 C 15.213 9.120,15.997 9.914,15.885 9.952 C 15.861 9.960,15.682 9.920,15.488 9.862 C 14.821 9.666,13.969 9.536,14.007 9.636 C 14.014 9.655,14.163 9.786,14.338 9.926 C 14.855 10.339,15.292 10.913,15.573 11.548 C 15.675 11.778,15.684 11.846,15.706 12.508 C 15.739 13.495,15.700 13.733,15.406 14.340 C 14.948 15.286,14.347 15.806,13.230 16.222 C 12.873 16.355,12.841 16.360,12.300 16.359 C 11.217 16.357,10.785 16.273,10.100 15.930 C 9.312 15.534,8.744 14.960,8.330 14.139 C 7.987 13.460,7.996 13.025,8.363 12.625 C 8.757 12.193,9.221 11.968,10.060 11.802 C 11.076 11.600,11.208 11.560,11.432 11.389 C 11.653 11.220,12.000 10.858,12.000 10.795 C 12.000 10.745,11.800 10.613,11.068 10.179 C 9.992 9.542,9.207 8.930,9.043 8.603 C 9.003 8.524,8.959 8.382,8.945 8.286 C 8.910 8.059,8.909 7.100,8.944 6.793 L 8.971 6.553 8.676 6.701 C 8.191 6.943,7.930 7.112,7.332 7.567 C 7.019 7.805,6.755 8.000,6.745 8.000 C 6.681 8.000,6.578 7.449,6.521 6.800 C 6.465 6.172,6.443 6.050,6.380 6.025 C 6.286 5.989,5.836 6.314,5.425 6.715 C 4.240 7.869,3.647 8.885,3.259 10.428 C 2.981 11.531,2.935 12.553,3.117 13.546 C 3.629 16.324,5.257 18.609,7.640 19.892 C 8.619 20.419,9.924 20.831,10.910 20.924 C 11.554 20.985,13.091 20.949,13.560 20.863 C 14.623 20.668,15.953 20.151,16.860 19.581 C 18.324 18.660,19.521 17.298,20.217 15.760 C 20.433 15.282,20.695 14.466,20.816 13.892 C 21.252 11.826,20.816 9.530,19.698 8.000 C 19.328 7.493,18.719 6.868,18.656 6.930 C 18.645 6.941,18.761 7.290,18.914 7.705 C 19.222 8.540,19.374 9.017,19.354 9.079 C 19.346 9.101,19.218 8.917,19.068 8.670 C 18.919 8.422,18.685 8.064,18.548 7.873 C 18.313 7.544,18.122 7.310,16.556 5.436 C 16.195 5.004,15.739 4.428,15.543 4.156 C 15.346 3.883,15.097 3.539,14.989 3.390 C 14.879 3.239,14.763 3.121,14.726 3.122 C 14.690 3.123,14.572 3.185,14.465 3.259 " fill="#373B4D" stroke="none" fill-rule="evenodd"></path></svg>