<svg width="24" height="24" viewBox="0 0 24 24" fill="none" xmlns="http://www.w3.org/2000/svg"><path d="M13.438 2.518 C 13.104 2.619,12.591 3.102,12.205 3.679 C 11.314 5.012,10.654 7.087,10.001 10.620 C 9.783 11.797,9.649 12.444,9.618 12.475 C 9.603 12.489,9.474 12.374,9.330 12.220 C 8.524 11.357,8.422 11.067,8.159 8.880 C 8.068 8.126,7.983 7.684,7.895 7.512 C 7.812 7.349,7.504 7.134,7.275 7.079 C 6.962 7.004,6.526 7.046,6.310 7.172 C 5.947 7.385,5.120 8.371,4.752 9.029 C 4.211 9.998,3.829 11.092,3.713 12.002 C 3.643 12.558,3.642 14.218,3.712 14.540 C 3.897 15.390,4.282 16.465,4.666 17.204 C 5.254 18.336,6.594 19.720,7.783 20.423 C 8.427 20.804,9.588 21.233,10.500 21.427 C 10.988 21.531,11.080 21.538,12.000 21.537 C 12.851 21.537,13.039 21.525,13.427 21.448 C 14.541 21.226,15.753 20.747,16.548 20.213 C 17.113 19.834,18.223 18.772,18.759 18.098 C 19.205 17.537,19.661 16.629,19.981 15.664 C 20.215 14.959,20.269 14.664,20.327 13.790 C 20.404 12.609,20.304 11.782,19.940 10.619 C 19.522 9.279,19.262 8.864,17.689 7.031 C 16.339 5.459,16.233 5.318,15.434 4.049 C 14.590 2.709,14.473 2.588,13.958 2.521 C 13.613 2.476,13.575 2.476,13.438 2.518 M13.123 11.250 C 13.419 11.685,13.693 12.050,14.311 12.834 C 14.814 13.473,15.098 13.880,15.250 14.180 C 15.502 14.677,15.543 16.255,15.320 16.850 C 15.197 17.181,14.785 17.775,14.444 18.116 C 13.782 18.778,13.110 19.092,12.237 19.147 C 11.314 19.205,10.584 18.977,9.875 18.407 C 9.267 17.918,8.871 17.336,8.603 16.534 C 8.466 16.126,8.407 15.745,8.474 15.704 C 8.498 15.689,8.702 15.731,8.929 15.797 C 9.622 15.998,10.536 16.166,10.980 16.174 L 11.379 16.180 11.432 15.820 C 11.788 13.376,12.092 12.131,12.511 11.401 C 12.633 11.188,12.838 10.880,12.858 10.880 C 12.865 10.880,12.985 11.047,13.123 11.250 " fill="#373B4D" stroke="none" fill-rule="evenodd"></path></svg>