<svg width="24" height="24" viewBox="0 0 24 24" fill="none" xmlns="http://www.w3.org/2000/svg"><path d="M9.200 3.682 C 7.397 3.699,6.347 3.723,6.211 3.753 C 5.777 3.846,5.078 4.270,4.659 4.695 C 4.310 5.049,4.046 5.467,3.806 6.050 L 3.620 6.500 3.610 13.616 L 3.599 20.732 3.706 20.876 C 3.891 21.127,4.135 21.364,4.291 21.445 C 4.602 21.605,4.979 21.610,5.301 21.457 C 5.489 21.368,5.789 21.097,5.867 20.947 C 5.949 20.788,5.989 20.104,6.035 18.038 C 6.068 16.569,6.076 16.445,6.151 16.298 C 6.246 16.112,6.469 15.875,6.674 15.740 L 6.820 15.645 13.140 15.617 C 19.308 15.590,19.464 15.587,19.616 15.511 C 20.053 15.291,20.368 14.822,20.372 14.385 C 20.376 14.020,20.392 14.045,18.460 11.400 C 17.842 10.553,17.295 9.801,17.245 9.729 L 17.154 9.599 17.345 9.329 C 17.449 9.181,17.880 8.592,18.300 8.020 C 19.499 6.390,20.177 5.432,20.283 5.217 C 20.533 4.709,20.311 4.150,19.701 3.745 L 19.541 3.640 15.761 3.648 C 13.681 3.652,10.729 3.667,9.200 3.682 " fill="#373B4D" stroke="none" fill-rule="evenodd"></path></svg>