<svg width="24" height="24" viewBox="0 0 24 24" fill="none" xmlns="http://www.w3.org/2000/svg"><path d="M7.580 3.639 C 6.353 3.670,6.230 3.690,5.701 3.941 C 4.721 4.406,4.079 5.165,3.705 6.301 L 3.599 6.622 3.610 13.661 L 3.620 20.700 3.713 20.888 C 4.153 21.783,5.327 21.832,5.840 20.977 L 5.980 20.743 6.002 18.622 L 6.024 16.500 6.130 16.295 C 6.258 16.048,6.422 15.877,6.673 15.730 L 6.860 15.620 13.160 15.608 L 19.460 15.595 19.668 15.496 C 20.085 15.296,20.400 14.823,20.400 14.398 C 20.400 14.038,20.309 13.894,18.720 11.760 C 18.089 10.913,17.477 10.081,17.359 9.910 L 17.144 9.600 17.359 9.290 C 17.477 9.120,18.089 8.287,18.720 7.440 C 20.309 5.306,20.400 5.162,20.400 4.802 C 20.400 4.392,20.109 3.937,19.721 3.741 L 19.534 3.646 14.117 3.628 C 11.138 3.618,8.196 3.623,7.580 3.639 " fill="#373B4D" stroke="none" fill-rule="evenodd"></path></svg>