<svg width="24" height="24" viewBox="0 0 24 24" fill="none" xmlns="http://www.w3.org/2000/svg"><path d="M14.680 3.668 C 11.962 3.681,7.490 3.757,6.840 3.801 C 6.183 3.846,5.931 3.906,5.560 4.107 C 4.872 4.481,4.365 5.029,3.864 5.940 L 3.600 6.420 3.600 13.607 L 3.600 20.793 3.890 21.057 C 4.290 21.421,4.533 21.537,4.836 21.510 C 5.249 21.472,5.640 21.233,5.799 20.921 C 5.919 20.686,5.972 20.145,6.081 18.040 C 6.163 16.455,6.208 16.245,6.548 15.878 L 6.769 15.640 11.574 15.638 C 16.589 15.637,19.105 15.599,19.480 15.518 C 19.655 15.480,19.734 15.435,19.867 15.298 C 20.089 15.068,20.241 14.801,20.306 14.526 C 20.411 14.076,20.500 14.233,18.854 11.950 C 18.026 10.800,17.307 9.805,17.255 9.738 L 17.162 9.615 17.854 8.658 C 19.577 6.273,20.244 5.281,20.323 4.988 C 20.410 4.664,20.257 4.333,19.807 3.870 L 19.583 3.640 18.021 3.650 C 17.163 3.655,15.659 3.663,14.680 3.668 " fill="#373B4D" stroke="none" fill-rule="evenodd"></path></svg>