<svg width="24" height="24" viewBox="0 0 24 24" fill="none" xmlns="http://www.w3.org/2000/svg"><path d="M11.780 3.682 C 7.934 3.712,6.547 3.742,6.220 3.804 C 6.110 3.824,5.894 3.902,5.740 3.976 C 4.888 4.384,4.275 5.042,3.800 6.056 L 3.600 6.483 3.600 13.627 L 3.600 20.770 3.930 21.099 C 4.310 21.478,4.542 21.587,4.883 21.547 C 5.323 21.495,5.792 21.154,5.875 20.824 C 5.934 20.590,5.987 19.799,6.059 18.073 C 6.092 17.289,6.140 16.551,6.165 16.434 C 6.204 16.250,6.250 16.179,6.492 15.930 L 6.774 15.640 10.937 15.636 C 13.227 15.634,16.092 15.621,17.304 15.606 L 19.507 15.580 19.678 15.461 C 19.917 15.296,20.218 14.947,20.275 14.769 C 20.302 14.687,20.333 14.494,20.344 14.340 L 20.364 14.060 19.995 13.540 C 19.567 12.937,17.466 10.019,17.283 9.775 L 17.160 9.610 18.368 7.935 C 20.318 5.229,20.312 5.239,20.351 4.896 C 20.393 4.522,20.221 4.194,19.800 3.843 L 19.556 3.640 17.488 3.647 C 16.351 3.651,13.782 3.666,11.780 3.682 " fill="#373B4D" stroke="none" fill-rule="evenodd"></path></svg>