<svg width="24" height="24" viewBox="0 0 24 24" fill="none" xmlns="http://www.w3.org/2000/svg"><path d="M12.560 3.682 C 6.796 3.729,6.265 3.752,5.778 3.977 C 4.931 4.368,4.286 5.048,3.796 6.065 L 3.600 6.471 3.600 13.632 L 3.600 20.793 3.888 21.059 C 4.380 21.515,4.612 21.605,5.021 21.498 C 5.461 21.383,5.789 21.107,5.874 20.780 C 5.929 20.566,5.986 19.804,6.061 18.260 C 6.157 16.288,6.160 16.272,6.553 15.870 L 6.777 15.640 11.739 15.638 C 16.846 15.635,19.310 15.599,19.567 15.522 C 19.752 15.467,20.098 15.097,20.225 14.819 C 20.277 14.707,20.329 14.494,20.344 14.338 L 20.370 14.058 18.903 12.019 C 18.097 10.898,17.375 9.898,17.300 9.797 L 17.163 9.615 18.315 8.012 C 19.610 6.211,20.169 5.397,20.282 5.149 C 20.471 4.731,20.289 4.268,19.757 3.814 L 19.553 3.640 17.787 3.647 C 16.815 3.651,14.463 3.666,12.560 3.682 " fill="#373B4D" stroke="none" fill-rule="evenodd"></path></svg>