<svg width="24" height="24" viewBox="0 0 24 24" fill="none" xmlns="http://www.w3.org/2000/svg"><path d="M10.980 3.685 C 8.758 3.702,6.758 3.735,6.535 3.757 C 6.031 3.807,5.782 3.899,5.310 4.208 C 4.628 4.654,4.187 5.199,3.781 6.100 L 3.600 6.500 3.600 13.620 L 3.600 20.740 3.800 20.985 C 4.101 21.352,4.454 21.560,4.778 21.560 C 5.116 21.560,5.608 21.307,5.782 21.044 C 5.938 20.809,5.946 20.702,6.079 17.429 C 6.124 16.311,6.143 16.243,6.520 15.884 L 6.761 15.653 13.081 15.627 C 18.520 15.605,19.420 15.593,19.542 15.542 C 19.741 15.459,20.157 15.052,20.246 14.854 C 20.287 14.762,20.332 14.553,20.346 14.387 L 20.371 14.087 20.058 13.634 C 19.775 13.223,17.481 10.035,17.254 9.736 L 17.159 9.611 17.831 8.676 C 18.201 8.161,18.765 7.380,19.083 6.940 C 20.286 5.279,20.360 5.155,20.359 4.806 C 20.358 4.435,20.174 4.131,19.746 3.793 L 19.553 3.640 17.286 3.647 C 16.040 3.650,13.202 3.667,10.980 3.685 " fill="#373B4D" stroke="none" fill-rule="evenodd"></path></svg>