<svg width="24" height="24" viewBox="0 0 24 24" fill="none" xmlns="http://www.w3.org/2000/svg"><path d="M10.760 3.682 C 8.747 3.698,6.894 3.723,6.642 3.739 C 6.072 3.774,5.808 3.867,5.278 4.220 C 4.599 4.672,4.192 5.182,3.785 6.090 L 3.620 6.460 3.610 13.600 L 3.599 20.740 3.800 20.989 C 4.145 21.415,4.507 21.596,4.917 21.548 C 5.302 21.502,5.738 21.212,5.853 20.927 C 5.935 20.720,5.990 19.951,6.039 18.300 C 6.094 16.464,6.101 16.398,6.255 16.169 C 6.324 16.067,6.472 15.909,6.583 15.818 L 6.787 15.653 13.103 15.625 L 19.420 15.597 19.600 15.510 C 19.822 15.403,20.124 15.107,20.238 14.885 C 20.292 14.778,20.331 14.605,20.347 14.404 L 20.371 14.089 20.046 13.615 C 19.867 13.354,19.147 12.348,18.446 11.380 L 17.171 9.620 17.233 9.512 C 17.267 9.453,17.839 8.656,18.503 7.742 C 19.843 5.899,20.146 5.465,20.280 5.200 C 20.509 4.750,20.319 4.216,19.787 3.816 L 19.552 3.640 16.986 3.647 C 15.575 3.651,12.773 3.666,10.760 3.682 " fill="#373B4D" stroke="none" fill-rule="evenodd"></path></svg>