<svg width="24" height="24" viewBox="0 0 24 24" fill="none" xmlns="http://www.w3.org/2000/svg"><path d="M11.880 3.685 C 7.290 3.722,6.327 3.754,5.986 3.881 C 5.046 4.233,4.299 4.984,3.777 6.100 L 3.600 6.479 3.600 13.636 L 3.600 20.793 3.924 21.094 C 4.325 21.467,4.466 21.540,4.782 21.539 C 5.235 21.538,5.780 21.176,5.876 20.812 C 5.927 20.619,5.986 19.807,6.040 18.580 C 6.063 18.052,6.101 17.341,6.124 17.000 C 6.172 16.288,6.204 16.205,6.567 15.855 L 6.780 15.649 13.104 15.628 C 20.288 15.605,19.517 15.649,19.930 15.236 C 20.213 14.954,20.306 14.754,20.342 14.360 L 20.369 14.060 19.292 12.560 C 18.162 10.984,17.411 9.944,17.254 9.737 L 17.160 9.613 18.384 7.917 C 19.725 6.056,20.246 5.292,20.315 5.084 C 20.452 4.670,20.270 4.239,19.789 3.837 L 19.553 3.640 17.667 3.647 C 16.629 3.650,14.025 3.667,11.880 3.685 " fill="#373B4D" stroke="none" fill-rule="evenodd"></path></svg>