<svg width="24" height="24" viewBox="0 0 24 24" fill="none" xmlns="http://www.w3.org/2000/svg"><path d="M13.680 3.683 C 9.813 3.716,6.943 3.779,6.440 3.842 C 6.015 3.896,5.745 3.991,5.386 4.215 C 4.788 4.588,4.345 5.091,3.864 5.941 L 3.600 6.407 3.600 13.599 L 3.600 20.792 3.825 20.997 C 4.348 21.475,4.609 21.578,5.024 21.469 C 5.486 21.348,5.792 21.064,5.875 20.680 C 5.935 20.404,5.991 19.730,6.060 18.480 C 6.173 16.410,6.207 16.243,6.590 15.834 L 6.771 15.640 11.475 15.639 C 16.377 15.638,19.109 15.596,19.474 15.518 C 19.811 15.445,20.118 15.091,20.285 14.583 C 20.399 14.235,20.372 14.126,20.045 13.631 C 19.821 13.292,17.574 10.157,17.255 9.738 L 17.162 9.615 17.861 8.648 C 19.447 6.455,20.189 5.355,20.306 5.024 C 20.415 4.713,20.270 4.366,19.835 3.902 L 19.591 3.640 18.365 3.647 C 17.691 3.651,15.583 3.667,13.680 3.683 " fill="#373B4D" stroke="none" fill-rule="evenodd"></path></svg>