<svg width="24" height="24" viewBox="0 0 24 24" fill="none" xmlns="http://www.w3.org/2000/svg"><path d="M10.020 3.683 C 7.920 3.701,6.440 3.729,6.288 3.754 C 5.973 3.807,5.680 3.939,5.256 4.222 C 4.541 4.697,4.118 5.259,3.720 6.260 L 3.600 6.562 3.600 13.653 L 3.600 20.744 3.790 20.980 C 4.140 21.414,4.404 21.560,4.840 21.559 C 5.210 21.559,5.705 21.260,5.854 20.948 C 5.942 20.761,5.992 20.013,6.040 18.120 C 6.063 17.251,6.099 16.475,6.121 16.395 C 6.167 16.230,6.423 15.922,6.655 15.754 L 6.812 15.640 9.716 15.636 C 11.313 15.634,14.159 15.620,16.040 15.606 L 19.460 15.578 19.647 15.487 C 19.862 15.382,20.114 15.124,20.246 14.874 C 20.319 14.735,20.338 14.635,20.339 14.376 L 20.340 14.052 20.105 13.696 C 19.975 13.500,19.264 12.507,18.525 11.489 C 17.785 10.471,17.176 9.625,17.170 9.609 C 17.165 9.593,17.398 9.256,17.687 8.860 C 20.090 5.575,20.298 5.273,20.363 4.983 C 20.454 4.578,20.229 4.129,19.773 3.802 L 19.547 3.640 16.523 3.647 C 14.861 3.651,11.934 3.667,10.020 3.683 " fill="#373B4D" stroke="none" fill-rule="evenodd"></path></svg>