<svg width="24" height="24" viewBox="0 0 24 24" fill="none" xmlns="http://www.w3.org/2000/svg"><path d="M12.520 3.684 C 8.412 3.717,6.622 3.767,6.181 3.861 C 5.702 3.962,5.199 4.264,4.716 4.741 C 4.378 5.074,4.106 5.463,3.820 6.022 L 3.600 6.451 3.600 13.621 L 3.600 20.791 3.841 21.014 C 4.330 21.467,4.569 21.575,4.938 21.509 C 5.384 21.429,5.760 21.133,5.860 20.783 C 5.931 20.532,5.980 19.936,6.060 18.340 C 6.158 16.377,6.185 16.241,6.570 15.850 L 6.777 15.640 11.559 15.639 C 14.188 15.638,17.041 15.621,17.898 15.600 C 19.704 15.557,19.667 15.565,20.008 15.142 C 20.221 14.877,20.313 14.649,20.347 14.297 L 20.370 14.055 18.861 11.959 C 18.031 10.807,17.309 9.808,17.256 9.739 L 17.161 9.613 17.392 9.297 C 18.078 8.358,19.509 6.342,19.861 5.819 C 20.095 5.470,20.287 5.139,20.317 5.030 C 20.418 4.669,20.269 4.317,19.838 3.901 L 19.568 3.640 17.934 3.647 C 17.035 3.650,14.599 3.667,12.520 3.684 " fill="#373B4D" stroke="none" fill-rule="evenodd"></path></svg>