<svg width="24" height="24" viewBox="0 0 24 24" fill="none" xmlns="http://www.w3.org/2000/svg"><path d="M9.160 6.943 C 6.949 9.110,4.888 11.135,4.580 11.444 L 4.020 12.007 5.460 13.423 L 6.899 14.839 7.240 14.506 C 7.427 14.322,10.140 11.667,13.270 8.604 C 16.399 5.542,18.960 3.028,18.960 3.018 C 18.960 3.008,17.660 3.001,16.070 3.002 L 13.180 3.004 9.160 6.943 M10.785 13.877 C 9.467 15.171,8.390 16.245,8.391 16.265 C 8.391 16.284,9.469 17.357,10.786 18.648 L 13.180 20.996 16.080 20.998 L 18.980 21.000 18.040 20.067 C 17.523 19.555,16.439 18.488,15.630 17.697 L 14.160 16.260 16.550 13.923 C 17.865 12.638,18.946 11.572,18.953 11.553 C 18.961 11.535,17.665 11.521,16.073 11.523 L 13.180 11.525 10.785 13.877 " fill="#373B4D" stroke="none" fill-rule="evenodd"></path></svg>