<svg width="24" height="24" viewBox="0 0 24 24" fill="none" xmlns="http://www.w3.org/2000/svg"><path d="M9.580 6.530 C 7.600 8.471,5.539 10.496,5.000 11.031 L 4.020 12.003 5.460 13.419 L 6.900 14.836 7.400 14.345 C 7.675 14.074,9.601 12.190,11.680 10.156 C 17.601 4.365,18.920 3.068,18.920 3.033 C 18.920 3.015,17.628 3.000,16.050 3.001 L 13.180 3.001 9.580 6.530 M10.778 13.899 L 8.380 16.278 9.540 17.420 C 10.178 18.048,11.260 19.111,11.945 19.782 L 13.190 21.001 16.083 20.990 L 18.975 20.980 16.567 18.620 L 14.160 16.260 14.630 15.799 C 14.888 15.546,15.962 14.493,17.016 13.459 L 18.932 11.580 18.676 11.555 C 18.535 11.541,17.240 11.527,15.798 11.525 L 13.176 11.520 10.778 13.899 " fill="#373B4D" stroke="none" fill-rule="evenodd"></path></svg>