<svg width="24" height="24" viewBox="0 0 24 24" fill="none" xmlns="http://www.w3.org/2000/svg"><path d="M9.519 6.585 C 7.506 8.562,5.446 10.589,4.940 11.089 L 4.020 11.999 5.460 13.415 L 6.900 14.831 7.800 13.944 C 8.295 13.457,10.329 11.465,12.320 9.519 C 16.568 5.367,18.797 3.173,18.810 3.130 C 18.827 3.079,18.001 3.051,15.539 3.021 L 13.178 2.991 9.519 6.585 M10.780 13.900 L 8.380 16.280 8.966 16.850 C 9.288 17.164,10.370 18.226,11.371 19.210 L 13.190 21.000 16.085 21.000 L 18.980 20.999 18.120 20.147 C 17.647 19.679,16.562 18.612,15.709 17.777 L 14.157 16.260 16.162 14.300 C 17.264 13.222,18.312 12.178,18.491 11.980 L 18.816 11.620 18.358 11.595 C 18.106 11.581,16.838 11.558,15.540 11.544 L 13.180 11.520 10.780 13.900 " fill="#373B4D" stroke="none" fill-rule="evenodd"></path></svg>