<svg width="24" height="24" viewBox="0 0 24 24" fill="none" xmlns="http://www.w3.org/2000/svg"><path d="M9.538 6.569 C 7.537 8.533,5.477 10.558,4.960 11.070 L 4.020 12.001 5.460 13.417 L 6.900 14.833 7.680 14.064 C 8.109 13.642,10.539 11.265,13.080 8.782 C 18.131 3.847,18.840 3.146,18.840 3.090 C 18.840 3.045,16.770 3.000,14.682 3.000 L 13.177 3.000 9.538 6.569 M10.780 13.897 L 8.380 16.280 9.166 17.050 C 9.599 17.474,10.681 18.535,11.571 19.410 L 13.190 21.000 16.085 21.000 L 18.980 20.999 18.140 20.167 C 17.678 19.710,16.593 18.643,15.729 17.797 L 14.158 16.260 16.364 14.100 C 18.433 12.075,18.876 11.623,18.834 11.581 C 18.825 11.571,17.549 11.552,15.999 11.539 L 13.180 11.513 10.780 13.897 " fill="#373B4D" stroke="none" fill-rule="evenodd"></path></svg>