<svg width="24" height="24" viewBox="0 0 24 24" fill="none" xmlns="http://www.w3.org/2000/svg"><path d="M8.180 4.843 C 6.346 4.880,4.641 4.949,4.260 5.002 C 4.106 5.024,3.881 5.090,3.760 5.148 C 3.484 5.282,3.035 5.733,2.671 6.243 L 2.402 6.620 2.401 11.951 L 2.400 17.283 2.496 17.471 C 2.789 18.049,3.551 18.811,4.129 19.104 L 4.317 19.200 11.999 19.200 L 19.681 19.200 20.050 18.973 C 20.543 18.670,21.157 18.061,21.414 17.621 L 21.600 17.302 21.600 13.200 L 21.600 9.098 21.424 8.799 C 21.074 8.205,20.530 7.679,20.087 7.506 C 19.769 7.382,18.839 7.334,14.920 7.239 L 13.220 7.198 12.020 5.999 L 10.820 4.800 10.260 4.807 C 9.952 4.810,9.016 4.827,8.180 4.843 M12.373 9.803 C 12.462 9.828,12.607 9.924,12.719 10.033 C 12.958 10.264,13.012 10.435,13.100 11.240 C 13.192 12.092,13.245 12.438,13.285 12.463 C 13.305 12.476,13.472 12.403,13.657 12.303 C 14.038 12.095,14.235 12.071,14.662 12.182 C 15.006 12.271,15.189 12.406,15.300 12.653 C 15.414 12.905,15.463 13.325,15.405 13.542 C 15.345 13.762,14.970 14.219,14.176 15.037 C 12.940 16.311,12.403 16.727,11.994 16.726 C 11.754 16.726,11.628 16.670,11.280 16.411 C 10.931 16.151,9.052 14.286,8.806 13.956 C 8.613 13.696,8.538 13.395,8.575 13.030 C 8.633 12.471,8.986 12.160,9.563 12.160 C 9.947 12.160,10.164 12.225,10.471 12.434 C 10.606 12.525,10.724 12.600,10.734 12.600 C 10.765 12.600,10.796 12.348,10.879 11.433 C 10.923 10.956,10.984 10.492,11.015 10.402 C 11.126 10.080,11.315 9.883,11.594 9.799 C 11.750 9.752,12.197 9.754,12.373 9.803 " fill="#373B4D" stroke="none" fill-rule="evenodd"></path></svg>