<svg width="24" height="24" viewBox="0 0 24 24" fill="none" xmlns="http://www.w3.org/2000/svg"><path d="M7.040 4.844 C 5.082 4.876,4.258 4.923,3.935 5.020 C 3.520 5.144,2.937 5.738,2.540 6.440 L 2.400 6.688 2.400 11.985 L 2.400 17.283 2.505 17.491 C 2.868 18.215,3.379 18.726,4.109 19.095 L 4.317 19.200 11.980 19.200 L 19.643 19.200 19.812 19.115 C 20.674 18.682,21.110 18.261,21.496 17.491 L 21.600 17.283 21.600 13.200 L 21.600 9.117 21.495 8.909 C 21.115 8.158,20.530 7.581,19.983 7.419 C 19.700 7.334,18.623 7.289,15.700 7.239 L 13.220 7.197 12.020 5.999 L 10.820 4.800 9.860 4.806 C 9.332 4.810,8.063 4.827,7.040 4.844 M12.229 9.734 C 12.552 9.802,12.854 10.004,12.962 10.225 C 13.044 10.393,13.130 10.944,13.181 11.625 L 13.208 11.990 13.673 12.018 C 14.343 12.059,14.809 12.137,14.986 12.237 C 15.071 12.285,15.207 12.415,15.290 12.527 L 15.440 12.730 15.440 13.198 L 15.440 13.666 15.290 13.879 C 15.009 14.278,14.620 14.399,13.615 14.400 L 13.210 14.400 13.182 14.830 C 13.116 15.880,13.049 16.149,12.784 16.413 C 12.380 16.817,11.797 16.861,11.328 16.521 C 11.014 16.294,10.889 15.875,10.819 14.810 L 10.791 14.400 10.406 14.399 C 9.904 14.398,9.262 14.334,9.149 14.275 C 8.957 14.174,8.754 13.984,8.650 13.806 C 8.549 13.635,8.540 13.586,8.540 13.200 C 8.541 12.879,8.557 12.750,8.609 12.654 C 8.697 12.493,8.895 12.295,9.047 12.217 C 9.173 12.151,9.776 12.063,10.403 12.019 L 10.787 11.991 10.853 11.226 C 10.912 10.539,10.930 10.437,11.030 10.240 C 11.110 10.084,11.198 9.982,11.335 9.890 C 11.651 9.678,11.821 9.648,12.229 9.734 " fill="#373B4D" stroke="none" fill-rule="evenodd"></path></svg>