<svg width="24" height="24" viewBox="0 0 24 24" fill="none" xmlns="http://www.w3.org/2000/svg"><path d="M4.700 4.840 C 4.274 4.862,4.135 4.886,3.933 4.970 C 3.277 5.242,2.736 5.820,2.517 6.485 L 2.420 6.780 2.420 12.000 L 2.420 17.220 2.517 17.515 C 2.751 18.225,3.375 18.849,4.085 19.083 L 4.380 19.180 12.000 19.180 L 19.620 19.180 19.941 19.070 C 20.652 18.826,21.250 18.222,21.483 17.515 L 21.580 17.220 21.580 13.200 L 21.580 9.180 21.483 8.885 C 21.264 8.222,20.718 7.636,20.073 7.374 C 19.709 7.226,19.157 7.202,16.020 7.201 L 13.219 7.200 12.020 6.000 L 10.821 4.800 8.020 4.807 C 6.480 4.810,4.986 4.825,4.700 4.840 M13.866 12.034 L 14.833 12.060 15.066 12.220 C 15.254 12.348,15.326 12.431,15.430 12.636 C 15.543 12.859,15.560 12.932,15.560 13.200 C 15.560 13.463,15.542 13.543,15.438 13.752 C 15.309 14.009,15.120 14.190,14.854 14.311 C 14.713 14.374,14.477 14.380,12.000 14.380 L 9.300 14.380 9.106 14.284 C 8.674 14.072,8.421 13.660,8.427 13.180 C 8.436 12.552,8.858 12.094,9.480 12.037 C 9.837 12.004,12.685 12.002,13.866 12.034 " fill="#373B4D" stroke="none" fill-rule="evenodd"></path></svg>