<svg width="24" height="24" viewBox="0 0 24 24" fill="none" xmlns="http://www.w3.org/2000/svg"><path d="M6.071 4.843 C 4.114 4.877,4.038 4.886,3.660 5.122 C 3.195 5.413,2.671 6.048,2.486 6.545 L 2.398 6.780 2.409 12.040 L 2.420 17.300 2.587 17.649 C 2.905 18.314,3.286 18.695,3.951 19.013 L 4.300 19.180 11.930 19.190 L 19.561 19.201 19.876 19.079 C 20.654 18.779,21.215 18.221,21.500 17.464 L 21.600 17.198 21.600 13.196 L 21.600 9.194 21.494 8.929 C 21.193 8.177,20.697 7.663,20.000 7.383 C 19.742 7.279,19.062 7.252,15.914 7.218 L 13.208 7.189 12.014 5.994 L 10.821 4.800 9.340 4.807 C 8.526 4.810,7.055 4.827,6.071 4.843 M12.506 9.766 C 12.727 9.869,13.024 10.191,13.076 10.385 C 13.127 10.576,13.199 11.597,13.199 12.148 C 13.200 12.396,13.217 12.566,13.243 12.582 C 13.267 12.597,13.335 12.565,13.393 12.511 C 13.452 12.457,13.606 12.338,13.737 12.246 L 13.973 12.080 14.370 12.080 C 14.823 12.080,14.969 12.129,15.202 12.362 C 15.435 12.595,15.537 12.849,15.539 13.200 C 15.540 13.457,15.523 13.530,15.425 13.707 C 15.137 14.227,12.861 16.482,12.420 16.685 C 12.218 16.778,11.765 16.785,11.583 16.699 C 11.203 16.519,8.971 14.337,8.613 13.797 C 8.485 13.603,8.445 13.183,8.520 12.822 C 8.561 12.622,8.599 12.555,8.774 12.380 C 9.018 12.136,9.191 12.080,9.693 12.080 L 10.031 12.080 10.286 12.265 C 10.426 12.367,10.596 12.502,10.664 12.567 L 10.788 12.684 10.812 11.752 C 10.841 10.658,10.881 10.387,11.055 10.129 C 11.201 9.911,11.497 9.715,11.733 9.679 C 11.984 9.641,12.320 9.679,12.506 9.766 " fill="#373B4D" stroke="none" fill-rule="evenodd"></path></svg>