<svg width="24" height="24" viewBox="0 0 24 24" fill="none" xmlns="http://www.w3.org/2000/svg"><path d="M8.780 4.827 C 7.501 4.844,5.073 4.922,4.580 4.962 C 4.025 5.007,3.821 5.070,3.530 5.286 C 3.288 5.467,2.877 5.933,2.595 6.348 L 2.400 6.636 2.400 11.960 L 2.400 17.283 2.486 17.452 C 2.810 18.090,3.510 18.790,4.148 19.114 L 4.317 19.200 11.989 19.200 L 19.662 19.200 19.965 19.027 C 20.580 18.677,21.178 18.080,21.477 17.520 L 21.600 17.289 21.600 13.203 L 21.600 9.117 21.514 8.948 C 21.354 8.634,21.105 8.301,20.802 7.997 C 20.412 7.607,20.112 7.453,19.640 7.401 C 19.222 7.356,17.450 7.293,15.040 7.239 L 13.220 7.198 12.020 5.999 L 10.820 4.800 10.160 4.809 C 9.797 4.814,9.176 4.822,8.780 4.827 M12.517 9.872 C 12.913 10.069,13.008 10.296,13.141 11.360 C 13.178 11.657,13.225 11.921,13.246 11.946 C 13.266 11.971,13.413 12.004,13.572 12.019 C 14.529 12.108,14.947 12.216,15.173 12.432 C 15.418 12.667,15.454 12.772,15.426 13.174 C 15.392 13.669,15.344 13.817,15.154 14.001 C 14.879 14.268,14.351 14.400,13.557 14.400 L 13.211 14.400 13.163 14.890 C 13.092 15.596,13.009 16.037,12.916 16.187 C 12.774 16.416,12.494 16.630,12.276 16.677 C 11.531 16.837,11.115 16.519,10.945 15.660 C 10.891 15.386,10.800 14.631,10.800 14.456 C 10.800 14.412,10.716 14.400,10.403 14.400 C 9.987 14.400,9.468 14.344,9.253 14.276 C 8.863 14.153,8.606 13.804,8.572 13.351 C 8.524 12.721,8.706 12.374,9.161 12.227 C 9.281 12.188,9.677 12.119,10.040 12.074 C 10.403 12.029,10.721 11.971,10.747 11.946 C 10.773 11.921,10.824 11.639,10.859 11.320 C 10.963 10.386,11.079 10.066,11.383 9.878 C 11.679 9.695,12.155 9.693,12.517 9.872 " fill="#373B4D" stroke="none" fill-rule="evenodd"></path></svg>