<svg width="24" height="24" viewBox="0 0 24 24" fill="none" xmlns="http://www.w3.org/2000/svg"><path d="M4.640 4.840 C 4.284 4.862,4.124 4.891,3.933 4.970 C 3.292 5.234,2.769 5.783,2.528 6.445 L 2.420 6.740 2.408 11.300 C 2.400 14.155,2.411 16.028,2.436 16.309 C 2.486 16.863,2.589 17.102,2.916 17.429 C 3.425 17.938,4.066 18.113,4.704 17.916 C 5.210 17.760,5.568 17.460,5.801 16.998 C 5.958 16.687,5.987 16.416,6.018 14.960 C 6.044 13.737,6.077 13.503,6.295 13.000 C 6.479 12.576,6.704 12.246,7.055 11.888 C 7.491 11.442,7.986 11.143,8.640 10.933 L 8.940 10.836 14.070 10.812 L 19.200 10.788 19.199 10.124 C 19.197 9.316,19.134 8.924,18.943 8.538 C 18.705 8.057,18.161 7.565,17.638 7.359 C 17.315 7.232,16.673 7.202,14.240 7.201 L 12.019 7.200 10.820 6.000 L 9.621 4.800 7.360 4.806 C 6.117 4.810,4.893 4.825,4.640 4.840 M10.560 12.038 C 8.881 12.064,8.942 12.055,8.445 12.321 C 8.164 12.470,7.782 12.828,7.584 13.126 C 7.502 13.249,7.390 13.482,7.333 13.644 C 7.233 13.932,7.230 13.968,7.195 15.579 C 7.171 16.681,7.142 17.294,7.106 17.444 C 6.947 18.118,6.278 18.824,5.557 19.078 L 5.358 19.147 5.989 19.174 C 6.336 19.188,9.540 19.200,13.109 19.200 L 19.598 19.200 19.928 19.079 C 20.664 18.811,21.184 18.296,21.463 17.560 L 21.577 17.260 21.577 15.600 L 21.578 13.940 21.464 13.640 C 21.313 13.245,21.137 12.976,20.838 12.684 C 20.598 12.451,20.142 12.178,19.840 12.088 C 19.673 12.038,12.894 12.002,10.560 12.038 " fill="#373B4D" stroke="none" fill-rule="evenodd"></path></svg>