<svg width="24" height="24" viewBox="0 0 24 24" fill="none" xmlns="http://www.w3.org/2000/svg"><path d="M7.280 4.828 C 5.943 4.845,4.351 4.918,4.114 4.974 C 3.809 5.046,3.553 5.203,3.226 5.517 C 2.947 5.786,2.691 6.137,2.505 6.509 L 2.400 6.717 2.402 10.349 C 2.405 14.629,2.443 16.484,2.536 16.780 C 2.648 17.135,3.130 17.622,3.583 17.839 C 3.846 17.964,4.298 17.993,4.600 17.904 C 5.031 17.777,5.511 17.427,5.704 17.097 C 5.859 16.832,5.913 16.571,5.981 15.760 C 6.161 13.600,6.196 13.342,6.358 12.975 C 6.576 12.482,7.125 11.817,7.560 11.521 C 7.681 11.438,8.002 11.259,8.273 11.124 L 8.766 10.877 13.673 10.839 C 16.372 10.819,18.722 10.802,18.896 10.801 L 19.213 10.800 19.186 10.110 C 19.140 8.924,19.019 8.584,18.436 7.995 C 18.023 7.580,17.746 7.425,17.300 7.363 C 16.936 7.312,15.317 7.250,13.474 7.216 L 12.009 7.189 10.815 5.995 L 9.621 4.800 8.840 4.809 C 8.411 4.814,7.709 4.823,7.280 4.828 M11.700 12.158 L 8.780 12.180 8.561 12.300 C 8.280 12.454,7.603 13.124,7.490 13.360 C 7.301 13.751,7.235 14.236,7.160 15.780 C 7.109 16.817,7.055 17.376,6.979 17.629 C 6.863 18.021,6.472 18.478,5.927 18.860 C 5.770 18.970,5.641 19.071,5.641 19.085 C 5.640 19.098,5.707 19.121,5.790 19.135 C 5.873 19.149,9.027 19.172,12.800 19.186 L 19.660 19.212 19.880 19.101 C 20.596 18.739,21.136 18.200,21.494 17.491 L 21.600 17.283 21.600 15.600 L 21.600 13.917 21.494 13.709 C 21.219 13.164,20.806 12.693,20.284 12.327 L 19.987 12.120 17.304 12.128 C 15.828 12.132,13.306 12.146,11.700 12.158 " fill="#373B4D" stroke="none" fill-rule="evenodd"></path></svg>