<svg width="24" height="24" viewBox="0 0 24 24" fill="none" xmlns="http://www.w3.org/2000/svg"><path d="M8.780 4.827 C 7.501 4.844,5.073 4.922,4.580 4.962 C 4.025 5.007,3.821 5.070,3.530 5.286 C 3.288 5.467,2.877 5.933,2.595 6.348 L 2.400 6.636 2.400 11.960 L 2.400 17.283 2.486 17.452 C 2.810 18.090,3.510 18.790,4.148 19.114 L 4.317 19.200 11.989 19.200 L 19.662 19.200 19.965 19.027 C 20.580 18.677,21.178 18.080,21.477 17.520 L 21.600 17.289 21.600 13.203 L 21.600 9.117 21.514 8.948 C 21.354 8.634,21.105 8.301,20.802 7.997 C 20.412 7.607,20.112 7.453,19.640 7.401 C 19.222 7.356,17.450 7.293,15.040 7.239 L 13.220 7.198 12.020 5.999 L 10.820 4.800 10.160 4.809 C 9.797 4.814,9.176 4.822,8.780 4.827 " fill="#373B4D" stroke="none" fill-rule="evenodd"></path></svg>