<svg width="24" height="24" viewBox="0 0 24 24" fill="none" xmlns="http://www.w3.org/2000/svg"><path d="M8.300 4.828 C 6.896 4.843,4.722 4.917,4.340 4.962 C 4.098 4.991,3.908 5.040,3.761 5.112 C 3.458 5.262,3.021 5.711,2.683 6.224 L 2.400 6.652 2.400 11.967 L 2.400 17.282 2.516 17.511 C 2.834 18.141,3.459 18.766,4.089 19.084 L 4.318 19.200 11.984 19.200 L 19.651 19.200 19.969 19.030 C 20.624 18.681,21.129 18.181,21.460 17.554 L 21.600 17.288 21.600 13.203 L 21.600 9.117 21.495 8.909 C 21.204 8.333,20.672 7.758,20.215 7.527 C 20.124 7.481,19.935 7.425,19.795 7.402 C 19.429 7.343,17.906 7.287,15.400 7.239 L 13.220 7.198 12.020 5.999 L 10.820 4.800 9.980 4.809 C 9.518 4.814,8.762 4.823,8.300 4.828 M15.020 12.280 C 15.116 12.346,15.249 12.467,15.317 12.549 L 15.440 12.698 15.440 13.223 L 15.440 13.747 15.187 13.990 C 15.019 14.151,14.881 14.248,14.775 14.276 C 14.536 14.340,12.661 14.399,10.834 14.400 L 9.207 14.400 8.965 14.136 C 8.614 13.753,8.540 13.580,8.544 13.157 C 8.547 12.862,8.563 12.785,8.658 12.612 C 8.784 12.379,8.956 12.237,9.159 12.197 C 9.236 12.182,10.548 12.167,12.073 12.165 L 14.846 12.160 15.020 12.280 " fill="#373B4D" stroke="none" fill-rule="evenodd"></path></svg>