<svg width="24" height="24" viewBox="0 0 24 24" fill="none" xmlns="http://www.w3.org/2000/svg"><path d="M6.397 4.842 C 5.361 4.859,4.404 4.892,4.240 4.917 C 4.071 4.944,3.860 5.009,3.745 5.072 C 3.308 5.308,2.685 6.040,2.482 6.556 C 2.401 6.761,2.400 6.824,2.400 12.020 L 2.400 17.277 2.595 17.658 C 2.934 18.321,3.279 18.666,3.942 19.005 L 4.323 19.200 11.945 19.200 L 19.567 19.200 19.866 19.080 C 20.637 18.771,21.198 18.217,21.495 17.472 L 21.601 17.204 21.591 13.152 L 21.580 9.100 21.385 8.700 C 21.023 7.960,20.328 7.400,19.669 7.319 C 19.510 7.300,17.994 7.263,16.300 7.237 L 13.220 7.191 12.020 5.995 L 10.820 4.800 9.540 4.807 C 8.836 4.810,7.422 4.826,6.397 4.842 M14.866 12.125 C 15.006 12.168,15.310 12.472,15.426 12.684 C 15.484 12.791,15.500 12.906,15.500 13.223 C 15.500 13.597,15.492 13.638,15.388 13.795 C 15.222 14.046,14.977 14.266,14.830 14.297 C 14.535 14.359,13.183 14.398,11.284 14.399 L 9.268 14.400 9.124 14.294 C 8.692 13.975,8.519 13.697,8.489 13.271 C 8.454 12.788,8.625 12.426,8.988 12.213 C 9.178 12.101,9.189 12.100,10.040 12.076 C 11.237 12.042,14.712 12.078,14.866 12.125 " fill="#373B4D" stroke="none" fill-rule="evenodd"></path></svg>