<svg width="24" height="24" viewBox="0 0 24 24" fill="none" xmlns="http://www.w3.org/2000/svg"><path d="M8.180 4.843 C 6.346 4.880,4.641 4.949,4.260 5.002 C 4.106 5.024,3.881 5.090,3.760 5.148 C 3.484 5.282,3.035 5.733,2.671 6.243 L 2.402 6.620 2.401 11.951 L 2.400 17.283 2.496 17.471 C 2.789 18.049,3.551 18.811,4.129 19.104 L 4.317 19.200 11.999 19.200 L 19.681 19.200 20.050 18.973 C 20.543 18.670,21.157 18.061,21.414 17.621 L 21.600 17.302 21.600 13.200 L 21.600 9.098 21.424 8.799 C 21.074 8.205,20.530 7.679,20.087 7.506 C 19.769 7.382,18.839 7.334,14.920 7.239 L 13.220 7.198 12.020 5.999 L 10.820 4.800 10.260 4.807 C 9.952 4.810,9.016 4.827,8.180 4.843 " fill="#373B4D" stroke="none" fill-rule="evenodd"></path></svg>