<svg width="24" height="24" viewBox="0 0 24 24" fill="none" xmlns="http://www.w3.org/2000/svg"><path d="M7.780 4.843 C 5.766 4.878,4.382 4.943,4.074 5.015 C 3.950 5.044,3.769 5.114,3.673 5.171 C 3.430 5.313,2.949 5.828,2.650 6.267 L 2.400 6.634 2.400 11.967 L 2.400 17.300 2.590 17.640 C 2.855 18.115,3.485 18.745,3.960 19.010 L 4.300 19.200 11.972 19.200 L 19.643 19.200 19.812 19.115 C 20.463 18.788,21.085 18.212,21.413 17.631 L 21.600 17.300 21.600 13.209 L 21.600 9.118 21.484 8.889 C 21.227 8.379,20.627 7.737,20.226 7.542 C 20.113 7.487,19.894 7.424,19.740 7.403 C 19.368 7.352,17.669 7.290,15.220 7.239 L 13.220 7.198 12.020 5.999 L 10.820 4.800 10.140 4.807 C 9.766 4.810,8.704 4.827,7.780 4.843 " fill="#373B4D" stroke="none" fill-rule="evenodd"></path></svg>