<svg width="24" height="24" viewBox="0 0 24 24" fill="none" xmlns="http://www.w3.org/2000/svg"><path d="M6.397 4.842 C 5.361 4.859,4.404 4.892,4.240 4.917 C 4.071 4.944,3.860 5.009,3.745 5.072 C 3.308 5.308,2.685 6.040,2.482 6.556 C 2.401 6.761,2.400 6.824,2.400 12.020 L 2.400 17.277 2.595 17.658 C 2.934 18.321,3.279 18.666,3.942 19.005 L 4.323 19.200 11.945 19.200 L 19.567 19.200 19.866 19.080 C 20.637 18.771,21.198 18.217,21.495 17.472 L 21.601 17.204 21.591 13.152 L 21.580 9.100 21.385 8.700 C 21.023 7.960,20.328 7.400,19.669 7.319 C 19.510 7.300,17.994 7.263,16.300 7.237 L 13.220 7.191 12.020 5.995 L 10.820 4.800 9.540 4.807 C 8.836 4.810,7.422 4.826,6.397 4.842 M12.368 9.722 C 12.556 9.774,12.883 10.031,12.998 10.216 C 13.090 10.365,13.122 10.600,13.181 11.550 L 13.209 12.000 13.454 12.000 C 13.796 12.000,14.584 12.073,14.800 12.124 C 15.052 12.183,15.203 12.312,15.362 12.606 C 15.488 12.839,15.500 12.888,15.500 13.200 C 15.500 13.592,15.417 13.810,15.175 14.051 C 14.898 14.328,14.611 14.396,13.710 14.399 L 13.200 14.400 13.199 14.590 C 13.197 15.142,13.118 15.968,13.056 16.088 C 12.930 16.332,12.606 16.632,12.391 16.703 C 12.145 16.785,11.725 16.765,11.520 16.662 C 11.270 16.536,11.003 16.241,10.939 16.020 C 10.887 15.842,10.801 14.934,10.800 14.556 L 10.800 14.413 10.070 14.387 C 9.668 14.373,9.273 14.343,9.191 14.319 C 9.011 14.268,8.687 13.962,8.579 13.740 C 8.519 13.616,8.502 13.495,8.502 13.200 C 8.502 12.771,8.567 12.595,8.820 12.343 C 9.016 12.147,9.265 12.086,10.085 12.032 L 10.791 11.986 10.818 11.503 C 10.858 10.782,10.909 10.377,10.975 10.249 C 11.059 10.088,11.309 9.854,11.499 9.760 C 11.680 9.670,12.114 9.651,12.368 9.722 " fill="#373B4D" stroke="none" fill-rule="evenodd"></path></svg>