<svg width="24" height="24" viewBox="0 0 24 24" fill="none" xmlns="http://www.w3.org/2000/svg"><path d="M7.780 4.843 C 5.766 4.878,4.382 4.943,4.074 5.015 C 3.950 5.044,3.769 5.114,3.673 5.171 C 3.430 5.313,2.949 5.828,2.650 6.267 L 2.400 6.634 2.400 11.967 L 2.400 17.300 2.590 17.640 C 2.855 18.115,3.485 18.745,3.960 19.010 L 4.300 19.200 11.972 19.200 L 19.643 19.200 19.812 19.115 C 20.463 18.788,21.085 18.212,21.413 17.631 L 21.600 17.300 21.600 13.209 L 21.600 9.118 21.484 8.889 C 21.227 8.379,20.627 7.737,20.226 7.542 C 20.113 7.487,19.894 7.424,19.740 7.403 C 19.368 7.352,17.669 7.290,15.220 7.239 L 13.220 7.198 12.020 5.999 L 10.820 4.800 10.140 4.807 C 9.766 4.810,8.704 4.827,7.780 4.843 M12.476 9.818 C 12.630 9.898,12.860 10.126,12.938 10.276 C 13.010 10.415,13.058 10.712,13.138 11.500 C 13.235 12.458,13.239 12.480,13.315 12.480 C 13.353 12.480,13.527 12.389,13.702 12.278 C 14.016 12.078,14.023 12.076,14.260 12.102 C 15.079 12.189,15.332 12.398,15.436 13.073 C 15.494 13.443,15.457 13.585,15.220 13.900 C 14.733 14.549,13.092 16.185,12.599 16.515 C 12.296 16.717,12.019 16.787,11.783 16.721 C 11.503 16.642,10.962 16.200,10.100 15.343 C 9.225 14.473,8.727 13.920,8.625 13.705 C 8.548 13.542,8.536 12.964,8.606 12.756 C 8.678 12.541,8.814 12.387,9.045 12.260 C 9.238 12.154,9.297 12.141,9.620 12.141 C 10.013 12.140,10.143 12.186,10.525 12.465 C 10.627 12.539,10.720 12.600,10.731 12.600 C 10.767 12.600,10.798 12.352,10.860 11.540 C 10.935 10.569,10.970 10.383,11.119 10.148 C 11.254 9.935,11.377 9.846,11.634 9.773 C 11.864 9.708,12.310 9.732,12.476 9.818 " fill="#373B4D" stroke="none" fill-rule="evenodd"></path></svg>