<svg width="24" height="24" viewBox="0 0 24 24" fill="none" xmlns="http://www.w3.org/2000/svg"><path d="M7.780 4.843 C 5.766 4.878,4.382 4.943,4.074 5.015 C 3.950 5.044,3.769 5.114,3.673 5.171 C 3.430 5.313,2.949 5.828,2.650 6.267 L 2.400 6.634 2.400 11.967 L 2.400 17.300 2.590 17.640 C 2.855 18.115,3.485 18.745,3.960 19.010 L 4.300 19.200 11.972 19.200 L 19.643 19.200 19.812 19.115 C 20.463 18.788,21.085 18.212,21.413 17.631 L 21.600 17.300 21.600 13.209 L 21.600 9.118 21.484 8.889 C 21.227 8.379,20.627 7.737,20.226 7.542 C 20.113 7.487,19.894 7.424,19.740 7.403 C 19.368 7.352,17.669 7.290,15.220 7.239 L 13.220 7.198 12.020 5.999 L 10.820 4.800 10.140 4.807 C 9.766 4.810,8.704 4.827,7.780 4.843 M12.515 9.861 C 12.940 10.093,13.017 10.273,13.138 11.329 C 13.173 11.631,13.211 11.903,13.224 11.935 C 13.239 11.975,13.345 12.000,13.573 12.019 C 14.723 12.115,15.066 12.226,15.311 12.580 L 15.449 12.780 15.431 13.200 C 15.410 13.697,15.330 13.894,15.072 14.081 C 14.791 14.285,14.455 14.366,13.795 14.390 L 13.209 14.411 13.182 14.735 C 13.124 15.425,13.036 15.971,12.959 16.123 C 12.856 16.324,12.653 16.525,12.456 16.621 C 12.244 16.724,11.788 16.746,11.591 16.663 C 11.103 16.456,10.924 16.006,10.819 14.730 L 10.792 14.400 10.406 14.400 C 9.872 14.400,9.332 14.329,9.130 14.234 C 8.912 14.130,8.652 13.834,8.596 13.624 C 8.571 13.534,8.559 13.296,8.567 13.095 C 8.581 12.780,8.598 12.706,8.691 12.567 C 8.896 12.257,9.141 12.170,10.120 12.059 C 10.417 12.025,10.689 11.988,10.725 11.977 C 10.774 11.963,10.798 11.887,10.817 11.689 C 10.908 10.770,10.969 10.416,11.072 10.225 C 11.266 9.867,11.570 9.710,12.023 9.733 C 12.240 9.744,12.354 9.774,12.515 9.861 " fill="#373B4D" stroke="none" fill-rule="evenodd"></path></svg>