<svg width="24" height="24" viewBox="0 0 24 24" fill="none" xmlns="http://www.w3.org/2000/svg"><path d="M6.397 4.842 C 5.361 4.859,4.404 4.892,4.240 4.917 C 4.071 4.944,3.860 5.009,3.745 5.072 C 3.308 5.308,2.685 6.040,2.482 6.556 C 2.401 6.761,2.400 6.824,2.400 12.020 L 2.400 17.277 2.595 17.658 C 2.934 18.321,3.279 18.666,3.942 19.005 L 4.323 19.200 11.945 19.200 L 19.567 19.200 19.866 19.080 C 20.637 18.771,21.198 18.217,21.495 17.472 L 21.601 17.204 21.591 13.152 L 21.580 9.100 21.385 8.700 C 21.023 7.960,20.328 7.400,19.669 7.319 C 19.510 7.300,17.994 7.263,16.300 7.237 L 13.220 7.191 12.020 5.995 L 10.820 4.800 9.540 4.807 C 8.836 4.810,7.422 4.826,6.397 4.842 M12.369 9.722 C 12.576 9.779,12.837 9.989,12.968 10.201 C 13.100 10.416,13.146 10.755,13.185 11.799 C 13.199 12.185,13.222 12.522,13.237 12.550 C 13.255 12.584,13.374 12.518,13.622 12.335 L 13.980 12.071 14.400 12.089 C 14.870 12.108,14.978 12.148,15.208 12.387 C 15.436 12.624,15.518 12.844,15.519 13.225 C 15.520 13.538,15.514 13.560,15.363 13.786 C 14.942 14.416,12.871 16.458,12.440 16.667 C 12.260 16.755,11.850 16.783,11.661 16.720 C 11.470 16.657,11.101 16.347,10.263 15.547 C 9.479 14.798,8.711 13.971,8.587 13.740 C 8.516 13.607,8.501 13.513,8.501 13.176 C 8.501 12.797,8.508 12.761,8.620 12.581 C 8.761 12.356,9.006 12.169,9.224 12.118 C 9.310 12.098,9.526 12.081,9.704 12.081 C 10.061 12.080,10.110 12.104,10.584 12.504 L 10.788 12.676 10.816 11.788 C 10.847 10.801,10.887 10.462,10.999 10.243 C 11.088 10.068,11.356 9.815,11.534 9.738 C 11.684 9.673,12.159 9.664,12.369 9.722 " fill="#373B4D" stroke="none" fill-rule="evenodd"></path></svg>