<svg width="24" height="24" viewBox="0 0 24 24" fill="none" xmlns="http://www.w3.org/2000/svg"><path d="M8.780 4.827 C 7.501 4.844,5.073 4.922,4.580 4.962 C 4.025 5.007,3.821 5.070,3.530 5.286 C 3.288 5.467,2.877 5.933,2.595 6.348 L 2.400 6.636 2.400 11.960 L 2.400 17.283 2.486 17.452 C 2.810 18.090,3.510 18.790,4.148 19.114 L 4.317 19.200 11.989 19.200 L 19.662 19.200 19.965 19.027 C 20.580 18.677,21.178 18.080,21.477 17.520 L 21.600 17.289 21.600 13.203 L 21.600 9.117 21.514 8.948 C 21.354 8.634,21.105 8.301,20.802 7.997 C 20.412 7.607,20.112 7.453,19.640 7.401 C 19.222 7.356,17.450 7.293,15.040 7.239 L 13.220 7.198 12.020 5.999 L 10.820 4.800 10.160 4.809 C 9.797 4.814,9.176 4.822,8.780 4.827 M12.427 9.802 C 12.489 9.826,12.626 9.929,12.732 10.032 C 12.968 10.264,13.015 10.413,13.099 11.200 C 13.191 12.060,13.236 12.402,13.263 12.445 C 13.296 12.499,13.416 12.454,13.698 12.282 C 14.032 12.079,14.044 12.076,14.392 12.124 C 15.124 12.225,15.387 12.493,15.430 13.182 C 15.454 13.561,15.425 13.636,15.087 14.060 C 14.801 14.419,13.358 15.884,12.938 16.241 C 12.323 16.764,11.967 16.855,11.543 16.599 C 11.229 16.408,10.697 15.938,9.952 15.190 C 9.266 14.503,8.745 13.925,8.656 13.752 C 8.581 13.606,8.543 13.223,8.577 12.949 C 8.613 12.661,8.758 12.442,9.018 12.285 C 9.211 12.168,9.248 12.160,9.602 12.161 C 10.023 12.162,10.163 12.207,10.507 12.455 C 10.619 12.535,10.719 12.600,10.730 12.600 C 10.766 12.600,10.796 12.364,10.860 11.580 C 10.949 10.494,10.973 10.375,11.164 10.095 C 11.333 9.848,11.543 9.760,11.967 9.760 C 12.158 9.760,12.365 9.779,12.427 9.802 " fill="#373B4D" stroke="none" fill-rule="evenodd"></path></svg>