<svg width="24" height="24" viewBox="0 0 24 24" fill="none" xmlns="http://www.w3.org/2000/svg"><path d="M6.615 4.844 C 4.460 4.879,4.104 4.907,3.780 5.065 C 3.391 5.256,2.837 5.865,2.546 6.420 L 2.420 6.660 2.409 11.973 L 2.398 17.286 2.587 17.645 C 2.933 18.302,3.298 18.666,3.953 19.012 L 4.311 19.201 11.985 19.190 L 19.660 19.180 20.040 18.992 C 20.710 18.661,21.089 18.288,21.412 17.643 L 21.580 17.306 21.591 13.218 L 21.601 9.130 21.422 8.775 C 21.106 8.148,20.706 7.735,20.162 7.473 C 19.820 7.308,19.626 7.297,16.060 7.240 L 13.220 7.194 12.020 5.997 L 10.820 4.800 9.660 4.807 C 9.022 4.810,7.652 4.827,6.615 4.844 " fill="#373B4D" stroke="none" fill-rule="evenodd"></path></svg>