<svg width="24" height="24" viewBox="0 0 24 24" fill="none" xmlns="http://www.w3.org/2000/svg"><path d="M8.300 4.828 C 6.896 4.843,4.722 4.917,4.340 4.962 C 4.098 4.991,3.908 5.040,3.761 5.112 C 3.458 5.262,3.021 5.711,2.683 6.224 L 2.400 6.652 2.400 11.967 L 2.400 17.282 2.516 17.511 C 2.834 18.141,3.459 18.766,4.089 19.084 L 4.318 19.200 11.984 19.200 L 19.651 19.200 19.969 19.030 C 20.624 18.681,21.129 18.181,21.460 17.554 L 21.600 17.288 21.600 13.203 L 21.600 9.117 21.495 8.909 C 21.204 8.333,20.672 7.758,20.215 7.527 C 20.124 7.481,19.935 7.425,19.795 7.402 C 19.429 7.343,17.906 7.287,15.400 7.239 L 13.220 7.198 12.020 5.999 L 10.820 4.800 9.980 4.809 C 9.518 4.814,8.762 4.823,8.300 4.828 M12.352 9.767 C 12.588 9.827,12.918 10.143,12.992 10.380 C 13.039 10.531,13.108 11.095,13.196 12.029 C 13.217 12.254,13.245 12.457,13.259 12.479 C 13.290 12.528,13.444 12.453,13.772 12.231 C 14.000 12.077,14.009 12.075,14.272 12.100 C 15.091 12.178,15.357 12.403,15.446 13.095 C 15.485 13.395,15.481 13.445,15.411 13.605 C 15.293 13.872,14.791 14.451,13.921 15.323 C 12.816 16.430,12.479 16.683,12.030 16.745 C 11.796 16.777,11.589 16.684,11.200 16.372 C 10.526 15.832,8.869 14.139,8.650 13.766 C 8.563 13.618,8.547 13.541,8.544 13.246 C 8.539 12.811,8.622 12.576,8.848 12.383 C 9.057 12.203,9.310 12.120,9.637 12.122 C 9.968 12.124,10.127 12.181,10.454 12.414 C 10.597 12.516,10.724 12.600,10.735 12.600 C 10.771 12.600,10.798 12.368,10.859 11.512 C 10.892 11.056,10.938 10.597,10.961 10.492 C 11.011 10.271,11.162 10.033,11.341 9.896 C 11.557 9.732,11.992 9.676,12.352 9.767 " fill="#373B4D" stroke="none" fill-rule="evenodd"></path></svg>