<svg width="24" height="24" viewBox="0 0 24 24" fill="none" xmlns="http://www.w3.org/2000/svg"><path d="M7.360 4.842 C 4.835 4.885,4.084 4.935,3.802 5.079 C 3.405 5.282,2.957 5.753,2.597 6.346 L 2.400 6.671 2.400 11.977 L 2.400 17.283 2.505 17.491 C 2.856 18.188,3.409 18.741,4.109 19.094 L 4.317 19.200 11.980 19.200 L 19.643 19.200 19.851 19.095 C 20.628 18.703,21.130 18.220,21.475 17.531 L 21.600 17.282 21.600 13.200 L 21.600 9.117 21.494 8.909 C 21.195 8.317,20.673 7.746,20.233 7.529 C 19.842 7.337,19.411 7.310,15.440 7.238 L 13.220 7.197 12.020 5.998 L 10.820 4.800 9.920 4.807 C 9.425 4.810,8.273 4.826,7.360 4.842 M12.404 9.775 C 12.624 9.853,12.816 10.020,12.930 10.230 C 13.043 10.437,13.089 10.712,13.159 11.600 C 13.219 12.356,13.242 12.520,13.288 12.520 C 13.310 12.520,13.482 12.419,13.671 12.296 L 14.015 12.072 14.403 12.113 C 15.141 12.190,15.400 12.443,15.461 13.147 C 15.486 13.434,15.479 13.496,15.406 13.647 C 15.188 14.099,13.197 16.139,12.580 16.543 C 12.463 16.620,12.278 16.696,12.134 16.725 C 11.918 16.768,11.867 16.766,11.701 16.703 C 11.598 16.663,11.381 16.524,11.219 16.394 C 10.527 15.837,8.723 13.992,8.612 13.727 C 8.530 13.531,8.503 13.127,8.557 12.878 C 8.625 12.556,8.753 12.389,9.044 12.244 C 9.264 12.134,9.332 12.120,9.637 12.120 C 10.019 12.120,10.124 12.159,10.500 12.443 C 10.614 12.530,10.725 12.600,10.747 12.600 C 10.770 12.600,10.806 12.260,10.835 11.770 C 10.891 10.808,10.936 10.442,11.021 10.278 C 11.123 10.082,11.331 9.871,11.500 9.795 C 11.691 9.708,12.185 9.697,12.404 9.775 " fill="#373B4D" stroke="none" fill-rule="evenodd"></path></svg>