<svg width="24" height="24" viewBox="0 0 24 24" fill="none" xmlns="http://www.w3.org/2000/svg"><path d="M8.180 4.843 C 6.346 4.880,4.641 4.949,4.260 5.002 C 4.106 5.024,3.881 5.090,3.760 5.148 C 3.484 5.282,3.035 5.733,2.671 6.243 L 2.402 6.620 2.401 11.951 L 2.400 17.283 2.496 17.471 C 2.789 18.049,3.551 18.811,4.129 19.104 L 4.317 19.200 11.999 19.200 L 19.681 19.200 20.050 18.973 C 20.543 18.670,21.157 18.061,21.414 17.621 L 21.600 17.302 21.600 13.200 L 21.600 9.098 21.424 8.799 C 21.074 8.205,20.530 7.679,20.087 7.506 C 19.769 7.382,18.839 7.334,14.920 7.239 L 13.220 7.198 12.020 5.999 L 10.820 4.800 10.260 4.807 C 9.952 4.810,9.016 4.827,8.180 4.843 M15.045 12.310 C 15.382 12.583,15.414 12.660,15.433 13.228 L 15.450 13.727 15.295 13.887 C 15.083 14.105,14.865 14.225,14.580 14.279 C 14.261 14.340,12.397 14.396,10.633 14.398 L 9.206 14.400 9.032 14.201 C 8.937 14.092,8.796 13.899,8.719 13.772 C 8.585 13.550,8.580 13.530,8.584 13.152 C 8.587 12.794,8.597 12.746,8.704 12.571 C 8.914 12.229,8.927 12.226,10.540 12.199 C 11.310 12.185,12.597 12.171,13.400 12.167 L 14.860 12.160 15.045 12.310 " fill="#373B4D" stroke="none" fill-rule="evenodd"></path></svg>