<svg width="24" height="24" viewBox="0 0 24 24" fill="none" xmlns="http://www.w3.org/2000/svg"><path d="M6.840 4.844 C 4.661 4.879,4.120 4.917,3.807 5.061 C 3.424 5.236,2.819 5.896,2.525 6.460 L 2.400 6.700 2.400 11.995 L 2.400 17.291 2.569 17.607 C 2.926 18.277,3.323 18.674,3.993 19.031 L 4.309 19.200 11.972 19.200 L 19.635 19.200 19.988 19.019 C 20.420 18.798,20.818 18.504,21.023 18.254 C 21.107 18.151,21.272 17.894,21.388 17.683 L 21.600 17.300 21.600 13.209 L 21.600 9.117 21.495 8.909 C 21.048 8.022,20.422 7.465,19.758 7.365 C 19.390 7.310,18.598 7.284,15.740 7.237 L 13.220 7.196 12.020 5.998 L 10.820 4.800 9.780 4.807 C 9.208 4.810,7.885 4.827,6.840 4.844 M12.511 9.796 C 12.713 9.900,12.899 10.102,12.997 10.324 C 13.080 10.512,13.127 10.906,13.193 11.989 C 13.211 12.280,13.238 12.531,13.253 12.546 C 13.268 12.561,13.357 12.519,13.450 12.452 C 13.544 12.386,13.706 12.271,13.810 12.198 L 14.000 12.064 14.445 12.108 C 14.832 12.146,14.912 12.167,15.054 12.267 C 15.144 12.331,15.273 12.470,15.339 12.578 C 15.449 12.756,15.461 12.810,15.473 13.177 C 15.486 13.560,15.481 13.588,15.378 13.740 C 15.059 14.212,13.632 15.701,12.949 16.274 C 12.537 16.619,12.330 16.725,12.018 16.750 C 11.693 16.776,11.586 16.722,11.030 16.246 C 10.495 15.788,9.050 14.350,8.813 14.039 C 8.542 13.684,8.520 13.622,8.521 13.200 C 8.522 12.752,8.587 12.570,8.821 12.365 C 9.051 12.162,9.213 12.110,9.620 12.105 C 10.030 12.099,10.105 12.128,10.506 12.445 C 10.641 12.552,10.760 12.640,10.770 12.640 C 10.780 12.640,10.801 12.330,10.816 11.950 C 10.847 11.160,10.907 10.521,10.965 10.366 C 11.074 10.074,11.377 9.786,11.649 9.717 C 11.854 9.664,12.342 9.709,12.511 9.796 " fill="#373B4D" stroke="none" fill-rule="evenodd"></path></svg>