<svg width="24" height="24" viewBox="0 0 24 24" fill="none" xmlns="http://www.w3.org/2000/svg"><path d="M7.680 4.828 C 6.547 4.843,4.728 4.918,4.341 4.965 C 3.922 5.015,3.720 5.105,3.368 5.400 C 3.088 5.633,2.692 6.138,2.518 6.484 L 2.400 6.718 2.403 9.589 C 2.404 11.168,2.420 13.369,2.438 14.480 C 2.469 16.401,2.475 16.513,2.559 16.775 C 2.635 17.014,2.684 17.088,2.933 17.336 C 3.406 17.808,3.823 17.991,4.318 17.946 C 4.688 17.912,5.172 17.668,5.482 17.358 C 5.845 16.995,5.881 16.834,6.100 14.575 C 6.156 14.000,6.228 13.429,6.260 13.305 C 6.336 13.016,6.504 12.684,6.729 12.380 C 7.172 11.783,7.437 11.569,8.280 11.129 L 8.740 10.889 12.000 10.864 C 13.793 10.851,16.149 10.828,17.236 10.814 L 19.212 10.788 19.186 10.144 C 19.137 8.961,19.010 8.606,18.423 8.015 C 18.024 7.613,17.788 7.470,17.417 7.404 C 17.056 7.339,15.931 7.287,13.880 7.238 L 12.020 7.194 10.820 5.997 L 9.620 4.800 9.000 4.809 C 8.659 4.814,8.065 4.822,7.680 4.828 M12.440 12.158 L 8.780 12.180 8.580 12.297 C 8.282 12.472,7.572 13.204,7.457 13.454 C 7.300 13.798,7.248 14.230,7.118 16.280 C 7.066 17.093,6.989 17.594,6.879 17.822 C 6.763 18.062,6.393 18.492,6.116 18.709 C 5.698 19.036,5.659 19.072,5.693 19.107 C 5.738 19.151,9.730 19.188,15.217 19.195 L 19.693 19.200 19.954 19.057 C 20.574 18.716,21.116 18.174,21.455 17.557 L 21.600 17.293 21.600 15.605 C 21.600 13.959,21.598 13.913,21.514 13.748 C 21.266 13.259,20.813 12.736,20.311 12.358 L 19.995 12.120 18.048 12.128 C 16.976 12.132,14.453 12.146,12.440 12.158 " fill="#373B4D" stroke="none" fill-rule="evenodd"></path></svg>