<svg width="24" height="24" viewBox="0 0 24 24" fill="none" xmlns="http://www.w3.org/2000/svg"><path d="M6.196 4.845 C 4.469 4.880,4.140 4.908,3.833 5.049 C 3.373 5.260,2.866 5.785,2.607 6.320 L 2.462 6.619 2.434 7.340 C 2.391 8.446,2.396 14.960,2.440 15.839 C 2.493 16.885,2.521 16.975,2.914 17.360 C 3.423 17.859,3.889 18.046,4.406 17.959 C 4.782 17.896,5.181 17.689,5.461 17.413 C 5.845 17.035,5.919 16.781,6.000 15.560 C 6.150 13.288,6.172 13.180,6.635 12.472 C 7.050 11.838,7.549 11.433,8.380 11.059 L 8.820 10.860 13.220 10.836 C 15.640 10.822,17.978 10.809,18.416 10.806 L 19.213 10.800 19.188 10.110 C 19.160 9.356,19.092 8.910,18.962 8.633 C 18.817 8.325,18.270 7.748,17.920 7.533 C 17.558 7.311,16.981 7.267,13.733 7.215 L 12.007 7.187 10.814 5.994 L 9.621 4.800 8.680 4.806 C 8.163 4.810,7.045 4.827,6.196 4.845 M9.940 12.159 C 9.143 12.174,8.745 12.196,8.667 12.230 C 8.340 12.375,7.831 12.835,7.581 13.210 C 7.285 13.657,7.257 13.837,7.160 15.960 C 7.102 17.213,7.063 17.524,6.923 17.824 C 6.771 18.151,6.351 18.590,5.911 18.879 L 5.559 19.111 5.710 19.136 C 5.792 19.150,8.967 19.172,12.764 19.186 L 19.667 19.210 20.025 19.026 C 20.654 18.701,21.097 18.258,21.422 17.631 L 21.602 17.283 21.591 15.571 L 21.580 13.860 21.360 13.464 C 21.096 12.988,20.792 12.661,20.320 12.346 L 19.981 12.120 15.540 12.129 C 13.098 12.133,10.578 12.147,9.940 12.159 " fill="#373B4D" stroke="none" fill-rule="evenodd"></path></svg>