<svg width="24" height="24" viewBox="0 0 24 24" fill="none" xmlns="http://www.w3.org/2000/svg"><path d="M6.840 4.844 C 4.661 4.879,4.120 4.917,3.807 5.061 C 3.424 5.236,2.819 5.896,2.525 6.460 L 2.400 6.700 2.400 11.995 L 2.400 17.291 2.569 17.607 C 2.926 18.277,3.323 18.674,3.993 19.031 L 4.309 19.200 11.972 19.200 L 19.635 19.200 19.988 19.019 C 20.420 18.798,20.818 18.504,21.023 18.254 C 21.107 18.151,21.272 17.894,21.388 17.683 L 21.600 17.300 21.600 13.209 L 21.600 9.117 21.495 8.909 C 21.048 8.022,20.422 7.465,19.758 7.365 C 19.390 7.310,18.598 7.284,15.740 7.237 L 13.220 7.196 12.020 5.998 L 10.820 4.800 9.780 4.807 C 9.208 4.810,7.885 4.827,6.840 4.844 " fill="#373B4D" stroke="none" fill-rule="evenodd"></path></svg>