<svg width="24" height="24" viewBox="0 0 24 24" fill="none" xmlns="http://www.w3.org/2000/svg"><path d="M6.840 4.844 C 4.661 4.879,4.120 4.917,3.807 5.061 C 3.424 5.236,2.819 5.896,2.525 6.460 L 2.400 6.700 2.400 11.995 L 2.400 17.291 2.569 17.607 C 2.926 18.277,3.323 18.674,3.993 19.031 L 4.309 19.200 11.972 19.200 L 19.635 19.200 19.988 19.019 C 20.420 18.798,20.818 18.504,21.023 18.254 C 21.107 18.151,21.272 17.894,21.388 17.683 L 21.600 17.300 21.600 13.209 L 21.600 9.117 21.495 8.909 C 21.048 8.022,20.422 7.465,19.758 7.365 C 19.390 7.310,18.598 7.284,15.740 7.237 L 13.220 7.196 12.020 5.998 L 10.820 4.800 9.780 4.807 C 9.208 4.810,7.885 4.827,6.840 4.844 M12.219 9.720 C 12.497 9.765,12.833 9.974,12.961 10.182 C 13.048 10.323,13.131 10.861,13.181 11.610 L 13.207 12.000 13.434 12.000 C 13.558 12.001,13.912 12.028,14.220 12.060 C 14.914 12.134,15.070 12.202,15.300 12.536 L 15.460 12.768 15.460 13.194 C 15.460 13.587,15.451 13.635,15.350 13.807 C 15.207 14.050,14.990 14.227,14.740 14.304 C 14.612 14.343,14.300 14.374,13.876 14.389 L 13.213 14.411 13.167 15.096 C 13.109 15.971,13.057 16.148,12.782 16.423 C 12.441 16.764,11.995 16.845,11.548 16.648 C 11.025 16.416,10.897 16.099,10.818 14.836 L 10.791 14.412 10.106 14.387 C 9.729 14.372,9.353 14.342,9.271 14.319 C 9.077 14.264,8.812 14.060,8.667 13.854 C 8.569 13.714,8.549 13.640,8.531 13.350 C 8.500 12.858,8.564 12.632,8.801 12.395 C 8.919 12.277,9.049 12.190,9.145 12.165 C 9.337 12.114,9.851 12.053,10.384 12.017 L 10.788 11.991 10.837 11.345 C 10.864 10.990,10.903 10.610,10.923 10.500 C 11.006 10.058,11.423 9.702,11.880 9.684 C 11.935 9.682,12.087 9.698,12.219 9.720 " fill="#373B4D" stroke="none" fill-rule="evenodd"></path></svg>