<svg width="24" height="24" viewBox="0 0 24 24" fill="none" xmlns="http://www.w3.org/2000/svg"><path d="M6.900 4.842 C 5.169 4.877,4.174 4.940,3.945 5.029 C 3.436 5.226,2.847 5.833,2.501 6.518 L 2.390 6.736 2.414 11.338 C 2.426 13.869,2.454 16.124,2.476 16.350 C 2.524 16.858,2.624 17.059,3.004 17.418 C 3.519 17.904,4.057 18.060,4.626 17.887 C 5.041 17.761,5.517 17.412,5.702 17.099 C 5.859 16.833,5.912 16.523,6.042 15.100 C 6.110 14.352,6.190 13.614,6.219 13.460 C 6.311 12.974,6.544 12.553,7.018 12.018 C 7.328 11.666,7.561 11.499,8.200 11.167 L 8.740 10.887 11.640 10.863 C 13.235 10.850,15.591 10.828,16.876 10.815 L 19.212 10.790 19.188 10.142 C 19.161 9.426,19.083 8.966,18.936 8.656 C 18.785 8.336,18.270 7.788,17.918 7.572 C 17.554 7.348,17.079 7.308,14.009 7.237 L 12.020 7.191 10.820 5.995 L 9.620 4.800 8.980 4.807 C 8.628 4.810,7.692 4.826,6.900 4.842 M12.140 12.159 L 8.780 12.181 8.600 12.276 C 8.354 12.405,7.547 13.216,7.462 13.420 C 7.300 13.807,7.232 14.328,7.159 15.740 C 7.092 17.026,7.028 17.517,6.887 17.817 C 6.749 18.112,6.339 18.565,5.976 18.824 C 5.632 19.070,5.609 19.104,5.766 19.135 C 5.837 19.149,8.992 19.173,12.779 19.187 L 19.663 19.213 19.944 19.066 C 20.549 18.748,21.145 18.154,21.458 17.558 L 21.600 17.288 21.600 15.603 L 21.600 13.917 21.495 13.709 C 21.249 13.218,20.750 12.657,20.242 12.301 L 19.984 12.120 17.742 12.128 C 16.509 12.132,13.988 12.146,12.140 12.159 " fill="#373B4D" stroke="none" fill-rule="evenodd"></path></svg>