<svg width="24" height="24" viewBox="0 0 24 24" fill="none" xmlns="http://www.w3.org/2000/svg"><path d="M8.180 4.843 C 6.346 4.880,4.641 4.949,4.260 5.002 C 4.106 5.024,3.881 5.090,3.760 5.148 C 3.484 5.282,3.035 5.733,2.671 6.243 L 2.402 6.620 2.401 11.951 L 2.400 17.283 2.496 17.471 C 2.789 18.049,3.551 18.811,4.129 19.104 L 4.317 19.200 11.999 19.200 L 19.681 19.200 20.050 18.973 C 20.543 18.670,21.157 18.061,21.414 17.621 L 21.600 17.302 21.600 13.200 L 21.600 9.098 21.424 8.799 C 21.074 8.205,20.530 7.679,20.087 7.506 C 19.769 7.382,18.839 7.334,14.920 7.239 L 13.220 7.198 12.020 5.999 L 10.820 4.800 10.260 4.807 C 9.952 4.810,9.016 4.827,8.180 4.843 M12.553 9.900 C 12.901 10.090,12.983 10.280,13.119 11.220 C 13.221 11.931,13.226 11.950,13.310 11.976 C 13.349 11.987,13.614 12.025,13.900 12.060 C 14.750 12.163,15.057 12.276,15.296 12.574 C 15.416 12.722,15.420 12.741,15.414 13.094 C 15.411 13.295,15.388 13.538,15.362 13.632 C 15.228 14.129,14.621 14.395,13.610 14.399 C 13.246 14.400,13.200 14.408,13.200 14.470 C 13.200 14.509,13.173 14.774,13.140 15.060 C 13.031 16.008,12.964 16.208,12.673 16.457 C 12.283 16.791,11.664 16.807,11.339 16.491 C 11.068 16.228,10.964 15.910,10.858 15.020 C 10.822 14.712,10.785 14.449,10.777 14.436 C 10.769 14.423,10.506 14.401,10.191 14.388 C 9.247 14.348,8.923 14.219,8.710 13.798 C 8.497 13.378,8.526 12.773,8.773 12.491 C 8.959 12.279,9.162 12.209,9.909 12.097 C 10.278 12.042,10.620 11.987,10.668 11.974 C 10.766 11.950,10.801 11.818,10.880 11.180 C 10.982 10.349,11.117 10.027,11.432 9.859 C 11.600 9.770,11.659 9.760,11.980 9.771 C 12.288 9.782,12.371 9.800,12.553 9.900 " fill="#373B4D" stroke="none" fill-rule="evenodd"></path></svg>