<svg width="24" height="24" viewBox="0 0 24 24" fill="none" xmlns="http://www.w3.org/2000/svg"><path d="M7.300 4.844 C 5.839 4.879,4.579 4.944,4.202 5.004 C 4.059 5.026,3.853 5.093,3.742 5.152 C 3.340 5.368,2.752 6.021,2.485 6.548 C 2.401 6.715,2.400 6.738,2.402 9.408 C 2.406 13.083,2.459 16.321,2.521 16.600 C 2.593 16.925,2.682 17.071,2.986 17.363 C 3.318 17.682,3.540 17.816,3.881 17.903 C 4.101 17.960,4.179 17.963,4.400 17.922 C 4.786 17.852,5.132 17.664,5.445 17.355 C 5.683 17.120,5.725 17.056,5.796 16.814 C 5.891 16.492,5.966 15.970,6.080 14.840 C 6.233 13.323,6.299 13.062,6.677 12.490 C 7.074 11.888,7.396 11.616,8.267 11.146 L 8.740 10.890 12.520 10.865 C 14.599 10.851,16.953 10.828,17.750 10.813 L 19.200 10.787 19.199 10.384 C 19.198 9.927,19.114 9.240,19.023 8.937 C 18.932 8.638,18.694 8.299,18.334 7.956 C 17.961 7.602,17.689 7.457,17.300 7.403 C 16.936 7.353,15.529 7.291,13.580 7.238 L 12.020 7.197 10.820 5.998 L 9.620 4.800 9.100 4.806 C 8.814 4.810,8.004 4.827,7.300 4.844 M12.920 12.162 C 10.241 12.180,8.952 12.203,8.804 12.235 C 8.553 12.288,8.445 12.363,8.023 12.781 C 7.670 13.130,7.430 13.477,7.367 13.730 C 7.299 13.997,7.210 14.807,7.141 15.780 C 7.030 17.330,6.969 17.673,6.742 18.014 C 6.608 18.217,6.136 18.698,5.826 18.947 C 5.713 19.038,5.687 19.079,5.726 19.103 C 5.795 19.146,10.827 19.193,15.769 19.197 L 19.717 19.200 20.013 19.020 C 20.544 18.698,21.099 18.143,21.423 17.610 L 21.605 17.310 21.592 15.585 C 21.578 13.640,21.606 13.818,21.237 13.320 C 21.020 13.027,20.479 12.485,20.184 12.266 L 19.988 12.120 18.404 12.128 C 17.533 12.132,15.065 12.147,12.920 12.162 " fill="#373B4D" stroke="none" fill-rule="evenodd"></path></svg>