<svg width="24" height="24" viewBox="0 0 24 24" fill="none" xmlns="http://www.w3.org/2000/svg"><path d="M7.420 4.844 C 6.022 4.880,4.652 4.948,4.275 5.001 C 3.923 5.050,3.705 5.149,3.413 5.393 C 3.138 5.621,2.708 6.140,2.535 6.452 L 2.420 6.660 2.426 10.860 C 2.433 15.284,2.464 16.478,2.584 16.820 C 2.637 16.972,2.732 17.097,2.978 17.340 C 3.325 17.683,3.587 17.837,3.962 17.920 C 4.412 18.020,4.954 17.809,5.426 17.352 C 5.834 16.956,5.864 16.843,6.082 14.860 C 6.225 13.561,6.278 13.274,6.442 12.923 C 6.810 12.136,7.261 11.701,8.300 11.132 L 8.740 10.891 12.740 10.865 C 14.940 10.851,17.294 10.828,17.970 10.813 L 19.200 10.787 19.199 10.404 C 19.198 9.967,19.111 9.249,19.022 8.943 C 18.893 8.496,18.265 7.795,17.783 7.559 C 17.620 7.479,17.435 7.427,17.220 7.402 C 16.831 7.356,15.393 7.294,13.460 7.238 L 12.020 7.197 10.820 5.999 L 9.620 4.800 9.120 4.806 C 8.845 4.810,8.080 4.827,7.420 4.844 M13.260 12.162 C 11.148 12.178,9.267 12.203,9.080 12.218 C 8.873 12.234,8.675 12.275,8.575 12.323 C 8.374 12.419,7.660 13.146,7.506 13.411 C 7.354 13.674,7.296 13.987,7.201 15.079 C 6.993 17.459,6.970 17.617,6.772 17.960 C 6.715 18.059,6.452 18.352,6.188 18.611 C 5.924 18.869,5.718 19.091,5.731 19.104 C 5.772 19.145,11.030 19.197,15.414 19.198 L 19.728 19.200 20.074 18.975 C 20.506 18.695,21.108 18.092,21.394 17.652 L 21.607 17.324 21.593 15.612 C 21.579 13.981,21.575 13.891,21.496 13.719 C 21.340 13.380,20.802 12.773,20.288 12.357 L 19.995 12.120 18.548 12.127 C 17.751 12.131,15.372 12.147,13.260 12.162 " fill="#373B4D" stroke="none" fill-rule="evenodd"></path></svg>