<svg width="24" height="24" viewBox="0 0 24 24" fill="none" xmlns="http://www.w3.org/2000/svg"><path d="M8.780 4.827 C 7.501 4.844,5.073 4.922,4.580 4.962 C 4.025 5.007,3.821 5.070,3.530 5.286 C 3.288 5.467,2.877 5.933,2.595 6.348 L 2.400 6.636 2.400 11.960 L 2.400 17.283 2.486 17.452 C 2.810 18.090,3.510 18.790,4.148 19.114 L 4.317 19.200 11.989 19.200 L 19.662 19.200 19.965 19.027 C 20.580 18.677,21.178 18.080,21.477 17.520 L 21.600 17.289 21.600 13.203 L 21.600 9.117 21.514 8.948 C 21.354 8.634,21.105 8.301,20.802 7.997 C 20.412 7.607,20.112 7.453,19.640 7.401 C 19.222 7.356,17.450 7.293,15.040 7.239 L 13.220 7.198 12.020 5.999 L 10.820 4.800 10.160 4.809 C 9.797 4.814,9.176 4.822,8.780 4.827 M15.106 12.358 C 15.254 12.478,15.369 12.607,15.395 12.684 C 15.420 12.754,15.440 13.023,15.440 13.282 L 15.440 13.751 15.207 13.967 C 14.806 14.339,14.703 14.350,11.589 14.386 L 9.238 14.413 9.115 14.297 C 8.932 14.123,8.657 13.722,8.600 13.543 C 8.566 13.438,8.557 13.273,8.573 13.045 C 8.594 12.753,8.614 12.681,8.714 12.542 C 8.940 12.228,8.963 12.223,10.180 12.198 C 10.774 12.185,12.070 12.172,13.061 12.168 L 14.861 12.160 15.106 12.358 " fill="#373B4D" stroke="none" fill-rule="evenodd"></path></svg>