<svg width="24" height="24" viewBox="0 0 24 24" fill="none" xmlns="http://www.w3.org/2000/svg"><path d="M7.360 4.842 C 4.835 4.885,4.084 4.935,3.802 5.079 C 3.405 5.282,2.957 5.753,2.597 6.346 L 2.400 6.671 2.400 11.977 L 2.400 17.283 2.505 17.491 C 2.856 18.188,3.409 18.741,4.109 19.094 L 4.317 19.200 11.980 19.200 L 19.643 19.200 19.851 19.095 C 20.628 18.703,21.130 18.220,21.475 17.531 L 21.600 17.282 21.600 13.200 L 21.600 9.117 21.494 8.909 C 21.195 8.317,20.673 7.746,20.233 7.529 C 19.842 7.337,19.411 7.310,15.440 7.238 L 13.220 7.197 12.020 5.998 L 10.820 4.800 9.920 4.807 C 9.425 4.810,8.273 4.826,7.360 4.842 M14.997 12.258 C 15.091 12.323,15.229 12.448,15.304 12.535 L 15.440 12.694 15.440 13.227 L 15.440 13.760 15.194 14.000 C 15.038 14.151,14.893 14.255,14.801 14.280 C 14.576 14.340,12.640 14.399,10.842 14.399 L 9.223 14.400 8.958 14.129 C 8.605 13.769,8.503 13.514,8.532 13.070 C 8.557 12.696,8.679 12.455,8.929 12.289 C 9.084 12.186,9.128 12.179,9.677 12.157 C 9.998 12.144,11.288 12.135,12.543 12.137 L 14.827 12.140 14.997 12.258 " fill="#373B4D" stroke="none" fill-rule="evenodd"></path></svg>