<svg width="24" height="24" viewBox="0 0 24 24" fill="none" xmlns="http://www.w3.org/2000/svg"><path d="M6.615 4.844 C 4.460 4.879,4.104 4.907,3.780 5.065 C 3.391 5.256,2.837 5.865,2.546 6.420 L 2.420 6.660 2.409 11.973 L 2.398 17.286 2.587 17.645 C 2.933 18.302,3.298 18.666,3.953 19.012 L 4.311 19.201 11.985 19.190 L 19.660 19.180 20.040 18.992 C 20.710 18.661,21.089 18.288,21.412 17.643 L 21.580 17.306 21.591 13.218 L 21.601 9.130 21.422 8.775 C 21.106 8.148,20.706 7.735,20.162 7.473 C 19.820 7.308,19.626 7.297,16.060 7.240 L 13.220 7.194 12.020 5.997 L 10.820 4.800 9.660 4.807 C 9.022 4.810,7.652 4.827,6.615 4.844 M12.340 9.725 C 12.596 9.795,12.862 10.016,12.977 10.252 C 13.095 10.496,13.144 10.862,13.180 11.780 C 13.206 12.433,13.222 12.560,13.277 12.560 C 13.294 12.560,13.459 12.450,13.644 12.316 L 13.980 12.071 14.394 12.095 C 14.869 12.123,15.015 12.178,15.223 12.409 C 15.441 12.650,15.494 12.808,15.497 13.220 C 15.500 13.580,15.500 13.580,15.334 13.815 C 14.914 14.408,13.160 16.170,12.619 16.542 C 12.309 16.756,11.906 16.822,11.628 16.706 C 11.236 16.542,8.995 14.369,8.633 13.802 C 8.526 13.634,8.520 13.599,8.520 13.181 C 8.520 12.703,8.531 12.671,8.776 12.406 C 8.971 12.197,9.173 12.113,9.542 12.090 C 9.965 12.063,10.096 12.110,10.479 12.421 L 10.789 12.674 10.816 11.887 C 10.852 10.869,10.900 10.465,11.011 10.244 C 11.118 10.033,11.425 9.763,11.608 9.720 C 11.807 9.672,12.160 9.675,12.340 9.725 " fill="#373B4D" stroke="none" fill-rule="evenodd"></path></svg>