<svg width="24" height="24" viewBox="0 0 24 24" fill="none" xmlns="http://www.w3.org/2000/svg"><path d="M7.260 4.842 C 5.554 4.880,4.340 4.949,4.050 5.024 C 3.540 5.156,2.940 5.724,2.537 6.457 L 2.388 6.729 2.414 11.235 C 2.429 13.713,2.457 15.947,2.478 16.200 C 2.530 16.847,2.588 16.987,2.951 17.345 C 3.596 17.979,4.213 18.107,4.923 17.752 C 5.250 17.589,5.647 17.213,5.751 16.970 C 5.856 16.724,5.939 16.216,6.039 15.200 C 6.231 13.258,6.272 13.081,6.666 12.489 C 7.078 11.869,7.418 11.586,8.320 11.111 L 8.740 10.889 12.300 10.864 C 14.258 10.851,16.611 10.828,17.530 10.813 L 19.200 10.787 19.200 10.438 C 19.200 9.925,19.130 9.299,19.036 8.980 C 18.931 8.619,18.741 8.333,18.360 7.960 C 18.007 7.614,17.729 7.460,17.360 7.403 C 16.986 7.346,15.716 7.288,13.740 7.239 L 12.020 7.196 10.820 5.998 L 9.620 4.800 9.100 4.807 C 8.814 4.810,7.986 4.826,7.260 4.842 M12.660 12.159 C 8.277 12.184,8.739 12.145,8.280 12.535 C 7.852 12.900,7.492 13.344,7.400 13.620 C 7.303 13.913,7.224 14.593,7.140 15.860 C 7.066 16.990,6.992 17.537,6.880 17.789 C 6.758 18.065,6.388 18.492,6.014 18.788 C 5.830 18.934,5.680 19.066,5.680 19.081 C 5.680 19.145,6.770 19.160,13.080 19.184 L 19.700 19.208 20.060 18.994 C 20.550 18.702,21.105 18.146,21.390 17.662 L 21.600 17.305 21.600 15.663 C 21.600 14.654,21.584 13.962,21.558 13.871 C 21.455 13.499,20.823 12.746,20.264 12.327 L 19.988 12.120 18.264 12.128 C 17.316 12.132,14.794 12.146,12.660 12.159 " fill="#373B4D" stroke="none" fill-rule="evenodd"></path></svg>