<svg width="24" height="24" viewBox="0 0 24 24" fill="none" xmlns="http://www.w3.org/2000/svg"><path d="M6.071 4.843 C 4.114 4.877,4.038 4.886,3.660 5.122 C 3.195 5.413,2.671 6.048,2.486 6.545 L 2.398 6.780 2.409 12.040 L 2.420 17.300 2.587 17.649 C 2.905 18.314,3.286 18.695,3.951 19.013 L 4.300 19.180 11.930 19.190 L 19.561 19.201 19.876 19.079 C 20.654 18.779,21.215 18.221,21.500 17.464 L 21.600 17.198 21.600 13.196 L 21.600 9.194 21.494 8.929 C 21.193 8.177,20.697 7.663,20.000 7.383 C 19.742 7.279,19.062 7.252,15.914 7.218 L 13.208 7.189 12.014 5.994 L 10.821 4.800 9.340 4.807 C 8.526 4.810,7.055 4.827,6.071 4.843 " fill="#373B4D" stroke="none" fill-rule="evenodd"></path></svg>