<svg width="24" height="24" viewBox="0 0 24 24" fill="none" xmlns="http://www.w3.org/2000/svg"><path d="M5.730 4.844 C 4.109 4.878,4.021 4.891,3.613 5.155 C 3.113 5.478,2.679 6.014,2.511 6.517 C 2.423 6.780,2.423 6.785,2.409 10.640 C 2.394 15.071,2.427 16.662,2.538 16.880 C 2.832 17.457,3.459 17.915,4.052 17.984 C 4.299 18.013,4.672 17.930,4.992 17.775 C 5.283 17.634,5.655 17.280,5.777 17.027 C 5.915 16.742,5.950 16.475,6.020 15.160 C 6.113 13.432,6.146 13.265,6.518 12.638 C 6.995 11.836,7.558 11.377,8.545 10.985 L 8.910 10.840 11.108 10.840 C 12.317 10.840,14.635 10.828,16.259 10.813 L 19.211 10.787 19.188 10.063 C 19.148 8.826,19.040 8.522,18.436 7.942 C 18.000 7.524,17.742 7.375,17.355 7.318 C 17.048 7.273,14.412 7.202,13.020 7.201 L 12.019 7.200 10.820 6.000 L 9.621 4.800 8.400 4.806 C 7.729 4.810,6.527 4.827,5.730 4.844 M10.340 12.117 L 8.820 12.140 8.600 12.255 C 7.924 12.607,7.378 13.297,7.282 13.920 C 7.260 14.063,7.224 14.675,7.202 15.280 C 7.132 17.196,7.098 17.530,6.941 17.834 C 6.709 18.282,6.265 18.713,5.772 18.970 C 5.604 19.057,5.536 19.112,5.564 19.140 C 5.590 19.166,7.961 19.180,12.652 19.180 L 19.700 19.180 20.050 19.013 C 20.702 18.701,21.101 18.302,21.413 17.650 L 21.580 17.300 21.591 15.650 L 21.603 14.001 21.478 13.701 C 21.216 13.073,20.851 12.645,20.291 12.312 L 19.980 12.127 15.920 12.111 C 13.687 12.101,11.176 12.104,10.340 12.117 " fill="#373B4D" stroke="none" fill-rule="evenodd"></path></svg>