<svg width="24" height="24" viewBox="0 0 24 24" fill="none" xmlns="http://www.w3.org/2000/svg"><path d="M6.480 4.842 C 4.842 4.876,4.357 4.904,4.046 4.985 C 3.538 5.118,2.926 5.694,2.590 6.355 L 2.420 6.690 2.420 11.355 C 2.420 16.253,2.430 16.565,2.597 16.942 C 2.738 17.262,3.284 17.733,3.696 17.890 C 4.275 18.111,5.030 17.873,5.547 17.307 C 5.866 16.957,5.918 16.736,6.019 15.300 C 6.140 13.588,6.194 13.267,6.439 12.813 C 6.743 12.249,7.152 11.784,7.614 11.478 C 7.749 11.389,8.067 11.214,8.320 11.091 L 8.780 10.867 13.500 10.837 C 16.096 10.820,18.443 10.805,18.716 10.803 L 19.212 10.800 19.188 10.130 C 19.143 8.899,19.036 8.594,18.441 7.992 C 18.013 7.559,17.794 7.431,17.360 7.363 C 16.982 7.304,15.577 7.248,13.674 7.217 L 12.009 7.189 10.815 5.995 L 9.621 4.800 8.760 4.807 C 8.287 4.810,7.261 4.826,6.480 4.842 M11.060 12.158 L 8.780 12.181 8.586 12.276 C 8.335 12.399,7.697 13.010,7.531 13.286 C 7.301 13.670,7.244 14.064,7.159 15.860 C 7.083 17.473,7.038 17.705,6.722 18.124 C 6.505 18.412,6.241 18.652,5.845 18.921 C 5.609 19.081,5.596 19.097,5.679 19.128 C 5.729 19.146,8.895 19.172,12.715 19.187 L 19.660 19.212 19.920 19.081 C 20.610 18.734,21.130 18.216,21.475 17.531 L 21.600 17.282 21.600 15.600 L 21.600 13.917 21.495 13.709 C 21.207 13.134,20.817 12.688,20.283 12.323 L 19.986 12.120 16.663 12.128 C 14.835 12.132,12.314 12.146,11.060 12.158 " fill="#373B4D" stroke="none" fill-rule="evenodd"></path></svg>