<svg width="24" height="24" viewBox="0 0 24 24" fill="none" xmlns="http://www.w3.org/2000/svg"><path d="M7.360 4.842 C 4.835 4.885,4.084 4.935,3.802 5.079 C 3.405 5.282,2.957 5.753,2.597 6.346 L 2.400 6.671 2.400 11.977 L 2.400 17.283 2.505 17.491 C 2.856 18.188,3.409 18.741,4.109 19.094 L 4.317 19.200 11.980 19.200 L 19.643 19.200 19.851 19.095 C 20.628 18.703,21.130 18.220,21.475 17.531 L 21.600 17.282 21.600 13.200 L 21.600 9.117 21.494 8.909 C 21.195 8.317,20.673 7.746,20.233 7.529 C 19.842 7.337,19.411 7.310,15.440 7.238 L 13.220 7.197 12.020 5.998 L 10.820 4.800 9.920 4.807 C 9.425 4.810,8.273 4.826,7.360 4.842 M12.326 9.763 C 12.572 9.827,12.850 10.040,12.948 10.240 C 13.036 10.419,13.126 10.972,13.182 11.664 L 13.207 11.988 13.814 12.035 C 14.804 12.111,15.025 12.188,15.301 12.549 L 15.440 12.732 15.440 13.191 C 15.440 13.716,15.407 13.802,15.098 14.073 C 14.842 14.299,14.585 14.363,13.830 14.389 L 13.200 14.411 13.200 14.515 C 13.199 14.741,13.116 15.592,13.074 15.800 C 13.014 16.106,12.914 16.283,12.695 16.476 C 12.262 16.858,11.634 16.832,11.217 16.415 C 11.001 16.198,10.887 15.728,10.818 14.776 L 10.792 14.412 10.166 14.389 C 9.822 14.376,9.446 14.345,9.332 14.320 C 9.089 14.267,8.876 14.110,8.691 13.850 C 8.561 13.668,8.560 13.661,8.560 13.211 C 8.560 12.896,8.577 12.723,8.617 12.648 C 8.694 12.501,8.956 12.254,9.088 12.204 C 9.216 12.156,9.953 12.055,10.450 12.017 C 10.765 11.993,10.800 11.983,10.800 11.910 C 10.800 11.866,10.828 11.531,10.863 11.165 C 10.930 10.453,10.993 10.235,11.192 10.027 C 11.498 9.707,11.821 9.632,12.326 9.763 " fill="#373B4D" stroke="none" fill-rule="evenodd"></path></svg>