<svg width="24" height="24" viewBox="0 0 24 24" fill="none" xmlns="http://www.w3.org/2000/svg"><path d="M8.086 2.838 C 7.262 3.333,6.916 3.638,6.608 4.140 C 6.427 4.436,6.210 4.966,6.162 5.229 C 6.129 5.411,6.000 6.905,6.000 7.105 C 6.000 7.132,5.794 7.176,5.470 7.219 C 4.548 7.338,4.031 7.438,3.811 7.539 C 3.328 7.760,2.883 8.221,2.614 8.779 C 2.487 9.044,2.480 9.080,2.480 9.503 C 2.480 9.749,2.498 10.044,2.520 10.159 C 2.609 10.630,3.156 11.270,3.865 11.735 L 4.271 12.000 7.535 12.000 C 10.618 12.000,10.800 11.996,10.800 11.930 C 10.800 11.892,10.820 11.653,10.843 11.400 C 10.930 10.466,11.072 10.078,11.396 9.888 C 11.556 9.795,11.619 9.783,11.958 9.781 C 12.168 9.781,12.390 9.794,12.451 9.811 C 12.636 9.863,12.869 10.106,12.956 10.340 C 13.032 10.543,13.127 11.111,13.181 11.686 C 13.205 11.942,13.209 11.952,13.328 11.976 C 13.395 11.989,14.866 12.000,16.596 12.000 L 19.742 12.000 20.121 11.755 C 20.582 11.458,21.091 10.954,21.267 10.620 C 21.587 10.013,21.605 9.256,21.317 8.603 C 21.219 8.383,20.667 7.839,20.346 7.646 C 20.028 7.455,19.884 7.414,19.214 7.320 C 18.016 7.153,18.049 7.161,18.022 7.053 C 18.008 6.999,17.981 6.637,17.960 6.248 C 17.933 5.724,17.897 5.439,17.825 5.153 C 17.562 4.121,16.978 3.437,15.766 2.740 L 15.432 2.548 14.406 2.576 L 13.380 2.605 12.980 2.795 C 12.760 2.900,12.448 3.061,12.287 3.153 L 11.993 3.320 11.579 3.078 C 10.898 2.679,10.686 2.628,9.460 2.561 C 9.042 2.539,8.681 2.520,8.658 2.520 C 8.634 2.520,8.377 2.663,8.086 2.838 M10.171 5.093 C 10.400 5.227,10.576 5.492,10.634 5.789 C 10.680 6.025,10.800 6.998,10.800 7.136 C 10.800 7.209,10.773 7.211,10.170 7.186 C 9.824 7.172,9.469 7.143,9.383 7.122 C 9.180 7.074,8.950 6.910,8.744 6.666 L 8.580 6.472 8.580 6.000 C 8.580 5.533,8.581 5.526,8.703 5.374 C 8.770 5.289,8.914 5.160,9.023 5.086 C 9.219 4.952,9.221 4.951,9.606 4.969 C 9.931 4.985,10.020 5.004,10.171 5.093 M14.910 5.062 C 15.101 5.141,15.274 5.304,15.345 5.469 C 15.381 5.553,15.400 5.755,15.400 6.051 C 15.400 6.495,15.397 6.508,15.276 6.673 C 15.023 7.017,14.635 7.149,13.766 7.187 L 13.192 7.213 13.220 6.856 C 13.263 6.310,13.390 5.616,13.477 5.450 C 13.690 5.043,13.880 4.947,14.410 4.979 C 14.603 4.990,14.828 5.027,14.910 5.062 M3.600 16.458 L 3.600 19.716 3.722 19.923 C 4.175 20.691,4.649 21.161,5.309 21.494 L 5.517 21.600 8.159 21.600 L 10.800 21.600 10.800 17.400 L 10.800 13.200 7.200 13.200 L 3.600 13.200 3.600 16.458 M13.200 17.400 L 13.200 21.600 15.841 21.600 L 18.482 21.600 18.716 21.482 C 19.228 21.224,19.701 20.770,20.162 20.094 L 20.400 19.745 20.400 16.473 L 20.400 13.200 16.800 13.200 L 13.200 13.200 13.200 17.400 " fill="#373B4D" stroke="none" fill-rule="evenodd"></path></svg>