<svg width="24" height="24" viewBox="0 0 24 24" fill="none" xmlns="http://www.w3.org/2000/svg"><path d="M8.316 2.695 C 7.576 3.031,7.048 3.445,6.682 3.977 C 6.487 4.261,6.249 4.788,6.158 5.140 C 6.056 5.534,6.018 6.245,6.072 6.760 C 6.094 6.969,6.109 7.143,6.106 7.147 C 6.102 7.151,5.785 7.183,5.400 7.218 C 4.120 7.335,3.916 7.384,3.487 7.676 C 3.029 7.987,2.726 8.398,2.538 8.960 C 2.483 9.124,2.465 9.293,2.467 9.620 C 2.472 10.308,2.616 10.653,3.116 11.175 C 3.418 11.489,3.737 11.718,4.104 11.885 L 4.358 12.000 7.574 12.000 L 10.790 12.000 10.817 11.530 C 10.877 10.477,10.955 10.194,11.251 9.940 C 11.450 9.769,11.614 9.720,11.980 9.721 C 12.354 9.722,12.540 9.770,12.715 9.911 C 13.021 10.157,13.099 10.409,13.168 11.368 L 13.213 12.000 16.448 12.000 L 19.682 12.000 19.931 11.875 C 20.334 11.672,20.607 11.467,20.914 11.138 C 21.347 10.674,21.560 10.169,21.560 9.608 C 21.559 9.352,21.434 8.784,21.336 8.588 C 21.130 8.182,20.606 7.691,20.157 7.484 C 19.866 7.350,19.576 7.302,18.680 7.239 C 18.339 7.216,18.038 7.189,18.010 7.179 C 17.972 7.167,17.960 6.968,17.959 6.371 C 17.959 5.510,17.934 5.344,17.718 4.748 C 17.561 4.312,17.271 3.862,16.924 3.516 C 16.621 3.212,16.299 2.993,15.773 2.732 L 15.405 2.549 14.653 2.529 C 14.222 2.518,13.787 2.528,13.635 2.552 C 13.303 2.604,12.773 2.829,12.334 3.105 L 11.997 3.316 11.729 3.143 C 11.382 2.920,11.037 2.747,10.716 2.637 C 10.489 2.558,10.362 2.547,9.580 2.535 L 8.700 2.521 8.316 2.695 M10.110 4.995 C 10.352 5.118,10.578 5.399,10.653 5.669 C 10.711 5.879,10.800 6.725,10.800 7.071 L 10.800 7.211 10.090 7.189 C 9.684 7.176,9.314 7.145,9.226 7.115 C 9.043 7.054,8.655 6.685,8.576 6.496 C 8.541 6.412,8.520 6.216,8.520 5.968 C 8.520 5.584,8.524 5.569,8.656 5.383 C 8.808 5.170,8.996 5.022,9.225 4.936 C 9.438 4.857,9.899 4.887,10.110 4.995 M14.780 4.964 C 15.015 5.027,15.231 5.190,15.353 5.397 C 15.452 5.566,15.460 5.614,15.460 6.026 C 15.460 6.462,15.457 6.476,15.335 6.646 C 15.158 6.893,14.918 7.065,14.672 7.121 C 14.555 7.147,14.174 7.178,13.825 7.190 L 13.189 7.211 13.216 6.755 C 13.287 5.569,13.417 5.212,13.860 4.983 C 14.002 4.909,14.536 4.898,14.780 4.964 M3.600 16.444 L 3.600 19.687 3.779 20.034 C 4.103 20.661,4.539 21.097,5.166 21.421 L 5.513 21.600 8.156 21.600 L 10.800 21.600 10.800 17.400 L 10.800 13.200 7.200 13.200 L 3.600 13.200 3.600 16.444 M13.200 17.400 L 13.200 21.600 15.841 21.600 L 18.482 21.600 18.731 21.475 C 19.412 21.132,19.936 20.608,20.275 19.931 L 20.400 19.682 20.400 16.441 L 20.400 13.200 16.800 13.200 L 13.200 13.200 13.200 17.400 " fill="#373B4D" stroke="none" fill-rule="evenodd"></path></svg>