<svg width="24" height="24" viewBox="0 0 24 24" fill="none" xmlns="http://www.w3.org/2000/svg"><path d="M8.403 2.660 C 7.526 3.021,7.020 3.430,6.590 4.124 C 6.117 4.885,5.956 5.727,6.079 6.798 C 6.101 6.983,6.114 7.140,6.108 7.145 C 6.102 7.151,5.765 7.184,5.359 7.219 C 4.212 7.318,3.992 7.364,3.620 7.582 C 3.059 7.911,2.697 8.383,2.517 9.020 C 2.426 9.340,2.446 10.045,2.554 10.340 C 2.787 10.974,3.434 11.609,4.148 11.903 L 4.380 11.998 7.586 11.999 L 10.791 12.000 10.819 11.470 C 10.873 10.443,10.934 10.221,11.239 9.945 C 11.463 9.743,11.542 9.720,12.004 9.720 C 12.453 9.720,12.604 9.773,12.828 10.006 C 13.058 10.247,13.132 10.558,13.184 11.511 L 13.210 12.001 16.458 11.991 L 19.706 11.980 20.043 11.812 C 20.766 11.453,21.324 10.809,21.500 10.132 C 21.623 9.661,21.539 8.994,21.298 8.514 C 21.136 8.192,20.611 7.695,20.240 7.512 C 19.889 7.339,19.672 7.300,18.740 7.240 C 18.366 7.215,18.031 7.187,17.995 7.177 C 17.936 7.160,17.932 7.076,17.949 6.389 C 17.967 5.701,17.961 5.583,17.885 5.268 C 17.716 4.562,17.432 4.031,16.965 3.547 C 16.650 3.221,16.318 2.993,15.778 2.732 L 15.382 2.540 14.551 2.527 C 14.034 2.519,13.638 2.531,13.501 2.560 C 13.246 2.613,12.561 2.938,12.231 3.163 L 12.003 3.319 11.631 3.079 C 11.241 2.826,10.773 2.623,10.432 2.558 C 10.320 2.537,9.894 2.520,9.485 2.521 L 8.740 2.521 8.403 2.660 M9.939 4.925 C 10.186 4.993,10.429 5.183,10.557 5.407 C 10.688 5.638,10.743 5.950,10.785 6.715 L 10.812 7.210 10.076 7.193 C 9.233 7.173,9.146 7.148,8.834 6.837 C 8.542 6.546,8.500 6.441,8.500 5.997 C 8.500 5.641,8.508 5.600,8.620 5.421 C 8.903 4.966,9.406 4.777,9.939 4.925 M14.932 5.010 C 15.168 5.110,15.377 5.347,15.436 5.580 C 15.502 5.844,15.492 6.381,15.418 6.524 C 15.320 6.713,15.081 6.958,14.909 7.046 C 14.723 7.140,14.239 7.198,13.625 7.199 L 13.189 7.200 13.217 6.690 C 13.259 5.936,13.306 5.647,13.430 5.405 C 13.555 5.161,13.796 4.964,14.028 4.917 C 14.256 4.871,14.715 4.918,14.932 5.010 M3.600 16.438 L 3.600 19.676 3.809 20.088 C 3.982 20.431,4.075 20.557,4.359 20.841 C 4.643 21.125,4.769 21.218,5.112 21.391 L 5.524 21.600 8.162 21.600 L 10.800 21.600 10.800 17.400 L 10.800 13.200 7.200 13.200 L 3.600 13.200 3.600 16.438 M13.200 17.400 L 13.200 21.600 15.844 21.600 L 18.487 21.600 18.835 21.421 C 19.446 21.105,19.905 20.646,20.221 20.035 L 20.400 19.687 20.400 16.444 L 20.400 13.200 16.800 13.200 L 13.200 13.200 13.200 17.400 " fill="#373B4D" stroke="none" fill-rule="evenodd"></path></svg>