<svg width="24" height="24" viewBox="0 0 24 24" fill="none" xmlns="http://www.w3.org/2000/svg"><path d="M8.173 2.778 C 7.566 3.084,7.186 3.364,6.866 3.743 C 6.621 4.034,6.344 4.557,6.202 5.000 C 6.077 5.386,6.019 6.084,6.063 6.670 C 6.092 7.059,6.090 7.160,6.049 7.160 C 5.916 7.160,4.434 7.323,4.240 7.359 C 3.507 7.495,2.795 8.163,2.540 8.954 C 2.485 9.125,2.474 9.274,2.486 9.698 C 2.502 10.214,2.506 10.236,2.650 10.527 C 2.904 11.042,3.428 11.543,4.028 11.844 L 4.338 12.000 7.569 12.000 L 10.800 12.000 10.801 11.870 C 10.802 11.614,10.881 10.776,10.925 10.549 C 10.986 10.239,11.149 9.993,11.387 9.854 C 11.566 9.748,11.611 9.740,12.000 9.740 C 12.386 9.740,12.435 9.749,12.607 9.850 C 13.004 10.083,13.095 10.362,13.182 11.610 L 13.210 12.000 16.449 12.000 L 19.688 12.000 19.997 11.839 C 20.988 11.324,21.613 10.388,21.547 9.520 C 21.521 9.173,21.423 8.766,21.313 8.548 C 21.201 8.325,20.708 7.825,20.423 7.645 C 19.999 7.377,19.758 7.322,18.640 7.239 C 18.185 7.205,18.049 7.182,18.010 7.130 C 17.974 7.084,17.960 6.865,17.960 6.376 C 17.960 5.412,17.854 4.938,17.493 4.280 C 17.133 3.623,16.694 3.223,15.826 2.759 L 15.434 2.549 14.527 2.545 C 13.873 2.541,13.570 2.555,13.440 2.594 C 13.141 2.683,12.720 2.879,12.349 3.103 L 11.997 3.314 11.669 3.109 C 11.488 2.997,11.178 2.834,10.980 2.747 C 10.631 2.595,10.601 2.589,10.000 2.557 C 9.659 2.539,9.224 2.523,9.033 2.522 L 8.685 2.520 8.173 2.778 M10.110 5.008 C 10.272 5.083,10.494 5.313,10.596 5.509 C 10.656 5.626,10.746 6.236,10.783 6.778 L 10.812 7.213 10.116 7.187 C 9.733 7.174,9.348 7.142,9.260 7.117 C 9.040 7.055,8.624 6.638,8.564 6.420 C 8.491 6.154,8.508 5.660,8.596 5.488 C 8.666 5.353,8.824 5.184,9.012 5.041 C 9.233 4.874,9.789 4.857,10.110 5.008 M14.920 5.018 C 15.094 5.106,15.309 5.305,15.383 5.448 C 15.423 5.523,15.440 5.698,15.440 6.028 L 15.440 6.500 15.290 6.696 C 15.068 6.986,14.818 7.110,14.358 7.159 C 14.150 7.181,13.802 7.199,13.585 7.199 L 13.190 7.200 13.218 6.770 C 13.254 6.218,13.306 5.832,13.380 5.576 C 13.453 5.322,13.684 5.056,13.900 4.977 C 14.119 4.897,14.728 4.922,14.920 5.018 M3.600 16.441 L 3.600 19.682 3.725 19.931 C 4.083 20.640,4.560 21.117,5.269 21.475 L 5.518 21.600 8.159 21.600 L 10.800 21.600 10.800 17.400 L 10.800 13.200 7.200 13.200 L 3.600 13.200 3.600 16.441 M13.200 17.400 L 13.200 21.600 15.841 21.600 L 18.483 21.600 18.691 21.494 C 19.379 21.147,19.870 20.671,20.238 19.994 L 20.399 19.700 20.399 16.450 L 20.400 13.200 16.800 13.200 L 13.200 13.200 13.200 17.400 " fill="#373B4D" stroke="none" fill-rule="evenodd"></path></svg>