<svg width="24" height="24" viewBox="0 0 24 24" fill="none" xmlns="http://www.w3.org/2000/svg"><path d="M8.200 2.764 C 7.199 3.343,6.797 3.724,6.461 4.412 C 6.340 4.658,6.215 4.968,6.181 5.100 C 6.148 5.232,6.096 5.742,6.065 6.233 C 6.034 6.723,6.002 7.132,5.994 7.140 C 5.985 7.148,5.619 7.201,5.179 7.257 C 3.990 7.410,3.839 7.454,3.409 7.779 C 3.084 8.024,2.824 8.344,2.644 8.720 L 2.500 9.020 2.500 9.622 C 2.500 10.223,2.500 10.224,2.631 10.482 C 2.873 10.959,3.308 11.394,3.932 11.783 L 4.280 12.000 7.536 12.000 L 10.792 12.000 10.819 11.630 C 10.897 10.562,11.029 10.130,11.346 9.907 C 11.487 9.808,11.559 9.789,11.852 9.770 C 12.777 9.713,13.029 10.028,13.157 11.400 C 13.180 11.653,13.200 11.892,13.200 11.930 C 13.200 11.996,13.382 12.000,16.459 12.000 L 19.719 12.000 20.003 11.830 C 21.030 11.215,21.535 10.470,21.528 9.578 C 21.525 9.226,21.441 8.838,21.313 8.587 C 21.154 8.275,20.574 7.744,20.172 7.542 C 19.921 7.416,19.761 7.383,18.825 7.261 C 18.410 7.208,18.060 7.154,18.048 7.141 C 18.008 7.101,17.966 6.708,17.963 6.340 C 17.949 4.652,17.357 3.647,15.878 2.801 L 15.436 2.548 14.424 2.571 L 13.413 2.594 13.117 2.726 C 12.953 2.798,12.633 2.961,12.404 3.088 L 11.989 3.319 11.664 3.124 C 10.904 2.668,10.692 2.612,9.520 2.560 C 9.047 2.538,8.651 2.521,8.640 2.521 C 8.629 2.522,8.431 2.631,8.200 2.764 M10.020 5.004 C 10.226 5.061,10.540 5.378,10.596 5.588 C 10.651 5.790,10.747 6.458,10.781 6.876 L 10.809 7.213 10.167 7.188 C 9.814 7.174,9.443 7.142,9.343 7.116 C 9.142 7.066,8.859 6.841,8.674 6.585 C 8.566 6.436,8.560 6.407,8.560 6.002 C 8.560 5.613,8.569 5.562,8.663 5.418 C 8.719 5.331,8.856 5.192,8.968 5.110 C 9.165 4.964,9.179 4.960,9.515 4.960 C 9.705 4.960,9.932 4.980,10.020 5.004 M14.940 5.070 C 15.330 5.272,15.415 5.442,15.418 6.026 C 15.420 6.460,15.417 6.477,15.299 6.645 C 15.029 7.030,14.690 7.151,13.785 7.188 L 13.189 7.213 13.217 6.856 C 13.258 6.338,13.346 5.766,13.417 5.566 C 13.497 5.343,13.683 5.109,13.849 5.024 C 14.041 4.925,14.717 4.954,14.940 5.070 M3.600 16.451 L 3.600 19.702 3.779 20.016 C 4.169 20.700,4.643 21.158,5.309 21.495 L 5.517 21.600 8.159 21.600 L 10.800 21.600 10.800 17.400 L 10.800 13.200 7.200 13.200 L 3.600 13.200 3.600 16.451 M13.200 17.400 L 13.200 21.600 15.841 21.600 L 18.483 21.600 18.691 21.495 C 19.238 21.221,19.742 20.745,20.155 20.115 L 20.400 19.740 20.400 16.470 L 20.400 13.200 16.800 13.200 L 13.200 13.200 13.200 17.400 " fill="#373B4D" stroke="none" fill-rule="evenodd"></path></svg>