<svg width="24" height="24" viewBox="0 0 24 24" fill="none" xmlns="http://www.w3.org/2000/svg"><path d="M8.200 2.763 C 7.324 3.235,6.926 3.577,6.595 4.144 C 6.164 4.882,6.063 5.305,6.065 6.370 C 6.066 6.911,6.053 7.160,6.023 7.160 C 5.798 7.160,4.155 7.376,4.009 7.425 C 3.578 7.569,3.042 8.011,2.781 8.440 C 2.530 8.852,2.470 9.110,2.487 9.703 C 2.501 10.195,2.509 10.240,2.630 10.483 C 2.894 11.014,3.342 11.458,3.971 11.811 L 4.307 12.000 7.548 12.000 L 10.789 12.000 10.816 11.610 C 10.900 10.405,10.978 10.165,11.376 9.874 C 11.526 9.764,11.549 9.760,11.992 9.760 C 12.439 9.760,12.459 9.764,12.645 9.883 C 12.978 10.097,13.105 10.504,13.181 11.610 L 13.207 12.000 16.454 11.999 L 19.700 11.999 19.994 11.838 C 20.542 11.540,20.902 11.216,21.200 10.755 C 21.509 10.277,21.612 9.764,21.508 9.220 C 21.398 8.643,21.312 8.475,20.925 8.088 C 20.521 7.683,20.178 7.469,19.792 7.381 C 19.641 7.346,19.210 7.291,18.834 7.258 C 18.459 7.225,18.119 7.181,18.078 7.159 C 17.986 7.110,17.968 6.969,17.945 6.120 C 17.925 5.377,17.858 5.047,17.627 4.547 C 17.259 3.750,16.776 3.275,15.797 2.746 L 15.453 2.560 14.505 2.560 C 13.654 2.560,13.532 2.568,13.313 2.642 C 13.028 2.738,12.626 2.936,12.258 3.161 L 11.998 3.320 11.749 3.163 C 11.303 2.882,10.753 2.639,10.477 2.601 C 10.336 2.581,9.869 2.554,9.440 2.540 L 8.660 2.515 8.200 2.763 M10.108 5.013 C 10.281 5.104,10.518 5.351,10.586 5.512 C 10.650 5.660,10.741 6.275,10.783 6.837 L 10.811 7.213 10.136 7.186 C 9.764 7.171,9.391 7.143,9.306 7.123 C 9.111 7.077,8.815 6.828,8.660 6.579 C 8.547 6.398,8.540 6.361,8.540 5.983 C 8.540 5.630,8.552 5.561,8.633 5.430 C 8.744 5.252,9.030 5.009,9.188 4.958 C 9.368 4.901,9.961 4.936,10.108 5.013 M14.950 5.045 C 15.155 5.144,15.382 5.398,15.415 5.567 C 15.429 5.635,15.440 5.871,15.440 6.091 C 15.440 6.459,15.432 6.503,15.338 6.626 C 15.009 7.057,14.746 7.156,13.830 7.189 L 13.200 7.212 13.200 7.096 C 13.200 6.892,13.278 6.109,13.324 5.840 C 13.407 5.367,13.667 5.025,13.997 4.955 C 14.235 4.904,14.761 4.954,14.950 5.045 M3.600 16.441 L 3.600 19.682 3.725 19.931 C 4.064 20.608,4.588 21.132,5.269 21.475 L 5.518 21.600 8.159 21.600 L 10.800 21.600 10.800 17.400 L 10.800 13.200 7.200 13.200 L 3.600 13.200 3.600 16.441 M13.200 17.400 L 13.200 21.600 15.841 21.600 L 18.483 21.600 18.691 21.495 C 19.357 21.158,19.831 20.700,20.221 20.016 L 20.400 19.702 20.400 16.451 L 20.400 13.200 16.800 13.200 L 13.200 13.200 13.200 17.400 " fill="#373B4D" stroke="none" fill-rule="evenodd"></path></svg>