<svg width="24" height="24" viewBox="0 0 24 24" fill="none" xmlns="http://www.w3.org/2000/svg"><path d="M8.807 2.519 C 8.588 2.553,7.997 2.819,7.590 3.066 C 6.978 3.438,6.447 4.167,6.181 5.000 C 6.048 5.416,6.004 6.134,6.076 6.737 C 6.101 6.954,6.116 7.137,6.109 7.144 C 6.102 7.151,5.755 7.185,5.338 7.219 C 4.220 7.310,4.075 7.338,3.706 7.530 C 3.071 7.860,2.640 8.418,2.503 9.088 C 2.329 9.940,2.515 10.585,3.113 11.196 C 3.460 11.551,3.765 11.760,4.143 11.903 L 4.402 12.000 7.594 12.000 L 10.786 12.000 10.828 11.248 C 10.877 10.385,10.926 10.232,11.254 9.930 C 11.475 9.726,11.561 9.700,12.020 9.700 C 12.422 9.700,12.594 9.760,12.809 9.976 C 13.041 10.207,13.116 10.445,13.159 11.084 C 13.181 11.401,13.199 11.737,13.199 11.830 L 13.200 12.000 16.399 12.000 L 19.598 12.000 19.857 11.903 C 20.235 11.760,20.540 11.551,20.887 11.196 C 21.464 10.606,21.666 9.947,21.517 9.140 C 21.387 8.441,20.943 7.872,20.241 7.504 C 19.915 7.333,19.701 7.294,18.810 7.240 C 18.420 7.217,18.057 7.188,18.004 7.176 L 17.909 7.156 17.944 6.688 C 18.014 5.770,17.968 5.377,17.709 4.687 C 17.487 4.097,17.061 3.545,16.513 3.139 C 16.286 2.971,15.682 2.659,15.380 2.555 C 15.176 2.485,13.805 2.486,13.470 2.557 C 13.209 2.612,12.502 2.959,12.204 3.177 L 12.005 3.323 11.736 3.139 C 11.397 2.906,11.101 2.758,10.720 2.628 C 10.458 2.539,10.332 2.524,9.720 2.506 C 9.335 2.494,8.924 2.500,8.807 2.519 M10.060 4.955 C 10.281 5.055,10.463 5.218,10.580 5.416 C 10.695 5.612,10.749 5.943,10.786 6.685 L 10.813 7.210 10.076 7.193 C 9.410 7.178,9.322 7.168,9.151 7.085 C 8.944 6.985,8.648 6.682,8.545 6.466 C 8.445 6.254,8.456 5.705,8.564 5.499 C 8.678 5.284,8.901 5.058,9.098 4.960 C 9.316 4.853,9.829 4.849,10.060 4.955 M14.930 4.992 C 15.322 5.167,15.493 5.478,15.497 6.020 C 15.500 6.344,15.489 6.399,15.389 6.569 C 15.226 6.847,15.017 7.032,14.783 7.104 C 14.647 7.147,14.351 7.175,13.884 7.189 L 13.188 7.211 13.216 6.656 C 13.251 5.944,13.301 5.624,13.412 5.402 C 13.512 5.201,13.717 5.021,13.945 4.936 C 14.154 4.858,14.699 4.889,14.930 4.992 M3.600 16.425 L 3.600 19.651 3.778 20.026 C 4.102 20.710,4.490 21.098,5.174 21.422 L 5.549 21.600 8.175 21.600 L 10.800 21.600 10.800 17.400 L 10.800 13.200 7.200 13.200 L 3.600 13.200 3.600 16.425 M13.200 17.400 L 13.200 21.600 15.838 21.600 L 18.476 21.600 18.888 21.391 C 19.231 21.218,19.357 21.125,19.641 20.841 C 19.925 20.557,20.018 20.431,20.191 20.088 L 20.400 19.676 20.400 16.438 L 20.400 13.200 16.800 13.200 L 13.200 13.200 13.200 17.400 " fill="#373B4D" stroke="none" fill-rule="evenodd"></path></svg>