<svg width="24" height="24" viewBox="0 0 24 24" fill="none" xmlns="http://www.w3.org/2000/svg"><path d="M8.680 2.541 C 8.320 2.640,7.601 3.016,7.315 3.254 C 6.702 3.762,6.246 4.533,6.096 5.314 C 6.029 5.665,6.023 6.343,6.084 6.796 C 6.109 6.977,6.120 7.133,6.109 7.144 C 6.099 7.154,5.732 7.189,5.295 7.221 C 4.858 7.253,4.385 7.298,4.245 7.322 C 3.638 7.423,2.930 7.985,2.653 8.587 C 2.459 9.006,2.392 9.604,2.483 10.103 C 2.552 10.479,2.729 10.800,3.062 11.155 C 3.405 11.519,3.705 11.733,4.079 11.878 L 4.340 11.979 7.564 11.992 L 10.788 12.004 10.816 11.373 C 10.831 11.026,10.855 10.664,10.868 10.570 C 10.901 10.328,11.106 10.009,11.332 9.847 C 11.507 9.722,11.555 9.708,11.872 9.690 C 12.069 9.679,12.291 9.690,12.384 9.715 C 12.785 9.824,13.093 10.209,13.135 10.654 C 13.148 10.789,13.170 11.148,13.185 11.452 L 13.211 12.004 16.436 11.992 L 19.660 11.979 19.921 11.878 C 20.295 11.733,20.595 11.519,20.938 11.155 C 21.271 10.800,21.448 10.479,21.517 10.103 C 21.609 9.599,21.541 8.957,21.358 8.594 C 21.123 8.130,20.680 7.703,20.180 7.459 C 19.869 7.308,19.590 7.266,18.534 7.217 C 18.223 7.202,17.948 7.177,17.922 7.161 C 17.887 7.140,17.892 6.993,17.941 6.563 C 17.994 6.104,17.998 5.929,17.963 5.664 C 17.811 4.521,17.294 3.662,16.387 3.044 C 16.137 2.873,15.512 2.582,15.272 2.525 C 15.054 2.473,14.355 2.469,13.773 2.517 C 13.400 2.548,13.330 2.568,12.940 2.754 C 12.706 2.866,12.398 3.039,12.256 3.138 L 11.998 3.319 11.829 3.196 C 11.500 2.957,11.124 2.760,10.754 2.634 C 10.395 2.512,10.350 2.506,9.640 2.493 C 9.070 2.483,8.850 2.494,8.680 2.541 M10.069 4.943 C 10.267 5.023,10.588 5.346,10.658 5.534 C 10.722 5.708,10.799 6.468,10.800 6.935 L 10.800 7.210 10.050 7.192 C 9.220 7.173,9.176 7.162,8.871 6.888 C 8.781 6.806,8.656 6.660,8.593 6.562 C 8.489 6.398,8.480 6.354,8.480 5.998 C 8.480 5.617,8.482 5.609,8.637 5.370 C 8.805 5.109,9.054 4.929,9.316 4.877 C 9.501 4.840,9.903 4.875,10.069 4.943 M14.939 4.981 C 15.354 5.181,15.540 5.550,15.514 6.119 C 15.501 6.405,15.487 6.449,15.343 6.658 C 15.105 7.004,14.912 7.117,14.489 7.162 C 14.297 7.182,13.926 7.199,13.664 7.199 L 13.188 7.200 13.214 6.610 C 13.264 5.471,13.363 5.231,13.900 4.941 C 14.070 4.849,14.717 4.874,14.939 4.981 M3.601 16.410 L 3.601 19.620 3.731 19.940 C 4.024 20.660,4.540 21.176,5.260 21.469 L 5.580 21.599 8.190 21.599 L 10.800 21.600 10.800 17.400 L 10.800 13.200 7.200 13.200 L 3.600 13.200 3.601 16.410 M13.200 17.401 L 13.200 21.602 15.850 21.591 L 18.500 21.580 18.850 21.413 C 19.502 21.101,19.901 20.702,20.213 20.050 L 20.380 19.700 20.391 16.450 L 20.401 13.200 16.801 13.200 L 13.200 13.200 13.200 17.401 " fill="#373B4D" stroke="none" fill-rule="evenodd"></path></svg>