<svg width="24" height="24" viewBox="0 0 24 24" fill="none" xmlns="http://www.w3.org/2000/svg"><path d="M8.260 2.726 C 7.477 3.164,6.973 3.565,6.702 3.965 C 6.539 4.205,6.293 4.723,6.200 5.020 C 6.129 5.248,6.105 5.471,6.069 6.230 C 6.039 6.869,6.012 7.160,5.981 7.160 C 5.878 7.160,4.596 7.326,4.289 7.379 C 4.082 7.415,3.869 7.484,3.721 7.563 C 3.255 7.811,2.800 8.313,2.592 8.807 C 2.512 8.995,2.502 9.089,2.501 9.620 C 2.500 10.198,2.504 10.228,2.613 10.450 C 2.873 10.980,3.294 11.403,3.948 11.793 L 4.295 12.000 7.541 12.000 L 10.788 12.000 10.836 11.410 C 10.915 10.441,11.005 10.170,11.331 9.912 C 11.489 9.786,11.514 9.779,11.896 9.766 C 12.356 9.750,12.545 9.794,12.736 9.962 C 12.985 10.180,13.109 10.647,13.181 11.630 L 13.208 12.000 16.455 12.000 L 19.702 12.000 20.016 11.821 C 20.857 11.342,21.349 10.739,21.504 10.000 C 21.600 9.540,21.489 8.842,21.265 8.488 C 21.086 8.206,20.514 7.701,20.197 7.545 C 19.888 7.393,19.767 7.369,18.548 7.226 C 18.289 7.195,18.066 7.160,18.053 7.147 C 18.005 7.098,17.963 6.768,17.962 6.414 C 17.959 5.810,17.886 5.248,17.763 4.891 C 17.451 3.982,16.888 3.360,15.853 2.781 L 15.445 2.553 14.453 2.568 L 13.460 2.583 13.140 2.711 C 12.964 2.781,12.634 2.946,12.406 3.078 L 11.993 3.317 11.637 3.103 C 10.881 2.646,10.613 2.582,9.340 2.545 L 8.620 2.524 8.260 2.726 M10.100 5.019 C 10.258 5.087,10.501 5.344,10.575 5.522 C 10.642 5.681,10.741 6.318,10.783 6.856 L 10.811 7.213 10.135 7.186 C 9.763 7.172,9.398 7.142,9.323 7.121 C 9.112 7.060,8.888 6.885,8.717 6.646 L 8.560 6.427 8.560 5.986 C 8.560 5.573,8.567 5.534,8.666 5.391 C 8.789 5.214,9.095 4.977,9.240 4.947 C 9.398 4.915,9.968 4.962,10.100 5.019 M14.657 4.979 C 14.912 5.007,15.174 5.163,15.309 5.367 C 15.402 5.507,15.419 5.580,15.433 5.903 C 15.442 6.109,15.437 6.343,15.422 6.423 C 15.385 6.618,15.093 6.927,14.843 7.035 C 14.617 7.132,14.096 7.199,13.565 7.200 L 13.190 7.200 13.220 6.810 C 13.268 6.171,13.344 5.713,13.439 5.490 C 13.535 5.267,13.778 5.015,13.929 4.982 C 14.167 4.930,14.220 4.930,14.657 4.979 M3.601 16.450 L 3.601 19.700 3.762 19.994 C 4.130 20.671,4.621 21.147,5.309 21.494 L 5.517 21.600 8.159 21.600 L 10.800 21.600 10.800 17.400 L 10.800 13.200 7.200 13.200 L 3.600 13.200 3.601 16.450 M13.200 17.400 L 13.200 21.600 15.841 21.600 L 18.483 21.600 18.691 21.494 C 19.351 21.161,19.825 20.691,20.278 19.923 L 20.400 19.716 20.400 16.458 L 20.400 13.200 16.800 13.200 L 13.200 13.200 13.200 17.400 " fill="#373B4D" stroke="none" fill-rule="evenodd"></path></svg>