<svg width="24" height="24" viewBox="0 0 24 24" fill="none" xmlns="http://www.w3.org/2000/svg"><path d="M9.120 2.439 C 8.507 2.516,7.843 2.808,7.320 3.231 C 6.751 3.691,6.363 4.290,6.135 5.060 C 6.044 5.367,6.027 5.499,6.024 5.960 C 6.021 6.350,6.040 6.580,6.090 6.788 C 6.129 6.946,6.160 7.101,6.160 7.132 C 6.160 7.179,6.000 7.193,5.270 7.212 C 4.688 7.226,4.311 7.254,4.180 7.291 C 3.713 7.423,3.249 7.735,2.916 8.139 C 2.239 8.962,2.246 10.265,2.934 11.069 C 3.294 11.490,3.621 11.723,4.080 11.886 L 4.340 11.978 7.564 11.991 L 10.788 12.004 10.810 11.246 L 10.831 10.488 10.963 10.241 C 11.188 9.819,11.497 9.640,12.000 9.640 C 12.502 9.640,12.812 9.819,13.036 10.239 L 13.166 10.483 13.189 11.243 L 13.212 12.004 16.436 11.991 L 19.660 11.978 19.920 11.886 C 20.379 11.723,20.706 11.490,21.066 11.069 C 21.754 10.265,21.761 8.962,21.084 8.139 C 20.751 7.735,20.287 7.423,19.820 7.291 C 19.689 7.254,19.312 7.226,18.730 7.212 C 18.076 7.195,17.840 7.176,17.840 7.141 C 17.840 7.114,17.878 6.914,17.924 6.696 C 18.113 5.807,17.887 4.719,17.357 3.964 C 16.839 3.226,16.017 2.669,15.185 2.493 C 14.973 2.448,14.737 2.438,14.260 2.451 C 13.706 2.467,13.582 2.483,13.335 2.571 C 12.846 2.744,12.355 3.009,12.115 3.229 L 12.011 3.325 11.742 3.122 C 11.439 2.892,11.259 2.794,10.887 2.654 C 10.381 2.463,9.646 2.374,9.120 2.439 M10.103 4.938 C 10.343 5.046,10.565 5.263,10.682 5.504 C 10.755 5.656,10.769 5.776,10.789 6.442 L 10.812 7.206 10.056 7.193 C 9.354 7.181,9.286 7.173,9.106 7.084 C 8.365 6.720,8.187 5.733,8.760 5.160 C 9.108 4.812,9.627 4.726,10.103 4.938 M14.949 4.965 C 15.377 5.170,15.560 5.489,15.560 6.032 C 15.560 6.289,15.543 6.361,15.432 6.568 C 15.354 6.716,15.236 6.860,15.126 6.944 C 14.846 7.158,14.641 7.200,13.873 7.200 L 13.200 7.200 13.200 6.630 C 13.201 6.014,13.248 5.617,13.344 5.433 C 13.431 5.264,13.678 5.029,13.861 4.941 C 14.209 4.774,14.565 4.781,14.949 4.965 M3.600 16.399 L 3.600 19.598 3.721 19.928 C 3.863 20.318,4.037 20.593,4.322 20.878 C 4.607 21.163,4.882 21.337,5.272 21.479 L 5.602 21.600 8.201 21.600 L 10.800 21.600 10.800 17.400 L 10.800 13.200 7.200 13.200 L 3.600 13.200 3.600 16.399 M13.200 17.400 L 13.200 21.600 15.799 21.600 L 18.398 21.600 18.728 21.479 C 19.474 21.207,20.007 20.674,20.279 19.928 L 20.400 19.598 20.400 16.399 L 20.400 13.200 16.800 13.200 L 13.200 13.200 13.200 17.400 " fill="#373B4D" stroke="none" fill-rule="evenodd"></path></svg>