<svg width="24" height="24" viewBox="0 0 24 24" fill="none" xmlns="http://www.w3.org/2000/svg"><path d="M16.936 4.044 C 16.581 4.085,16.085 4.263,15.776 4.461 C 15.476 4.652,15.056 5.091,14.865 5.411 C 14.646 5.781,14.556 6.109,14.532 6.620 C 14.507 7.161,14.572 7.477,14.810 7.960 C 14.947 8.238,15.046 8.369,15.358 8.682 C 15.617 8.941,15.822 9.107,15.996 9.198 L 16.252 9.331 16.223 11.605 C 16.207 12.855,16.179 13.989,16.160 14.123 C 16.137 14.284,16.054 14.514,15.918 14.794 C 15.734 15.172,15.670 15.260,15.344 15.580 C 14.834 16.082,14.366 16.342,13.800 16.440 C 13.645 16.467,12.706 16.494,11.479 16.508 L 9.417 16.532 9.307 16.256 C 9.167 15.902,8.813 15.404,8.562 15.205 C 8.454 15.120,8.241 14.971,8.088 14.875 L 7.811 14.700 7.785 14.464 C 7.771 14.334,7.760 13.125,7.760 11.776 L 7.760 9.325 8.007 9.193 C 8.311 9.031,8.862 8.516,9.078 8.193 C 9.167 8.061,9.287 7.806,9.346 7.626 C 9.439 7.339,9.452 7.235,9.453 6.760 C 9.454 6.281,9.442 6.184,9.348 5.897 C 9.088 5.111,8.377 4.403,7.600 4.155 C 7.270 4.050,6.545 4.010,6.192 4.077 C 6.053 4.103,5.769 4.208,5.560 4.310 C 5.241 4.467,5.121 4.555,4.816 4.858 C 4.242 5.428,4.040 5.921,4.040 6.753 C 4.040 7.299,4.104 7.577,4.331 8.020 C 4.550 8.447,5.017 8.921,5.450 9.158 L 5.760 9.327 5.760 11.998 L 5.760 14.669 5.430 14.860 C 4.779 15.238,4.275 15.881,4.100 16.560 C 4.003 16.935,4.001 17.673,4.097 17.960 C 4.362 18.757,4.881 19.368,5.584 19.714 C 6.000 19.919,6.256 19.975,6.760 19.975 C 7.149 19.974,7.269 19.958,7.540 19.868 C 7.716 19.810,7.977 19.694,8.119 19.611 C 8.410 19.441,9.041 18.830,9.119 18.642 L 9.170 18.520 10.635 18.517 C 12.860 18.513,14.033 18.466,14.400 18.365 C 16.166 17.882,17.433 16.702,18.013 15.000 C 18.199 14.455,18.208 14.310,18.229 11.750 L 18.249 9.320 18.477 9.198 C 18.981 8.930,19.493 8.411,19.719 7.940 C 19.904 7.554,19.960 7.265,19.960 6.703 C 19.960 6.267,19.946 6.160,19.859 5.910 C 19.726 5.528,19.552 5.243,19.260 4.926 C 18.843 4.475,18.188 4.117,17.672 4.060 C 17.556 4.047,17.406 4.030,17.340 4.023 C 17.274 4.016,17.092 4.026,16.936 4.044 " fill="#373B4D" stroke="none" fill-rule="evenodd"></path></svg>