<svg width="24" height="24" viewBox="0 0 24 24" fill="none" xmlns="http://www.w3.org/2000/svg"><path d="M11.689 4.099 C 11.454 4.172,11.263 4.327,11.131 4.551 L 11.020 4.740 11.007 6.969 L 10.993 9.199 10.759 9.324 C 10.456 9.485,10.045 9.826,9.835 10.090 C 9.636 10.340,9.426 10.768,9.340 11.100 C 9.257 11.420,9.257 12.143,9.340 12.460 C 9.535 13.199,10.064 13.851,10.768 14.219 L 10.993 14.337 11.007 16.799 C 11.021 19.249,11.021 19.261,11.109 19.426 C 11.272 19.732,11.653 19.960,12.000 19.960 C 12.347 19.960,12.728 19.732,12.891 19.426 C 12.979 19.261,12.979 19.249,12.993 16.799 L 13.007 14.337 13.232 14.219 C 13.933 13.852,14.466 13.195,14.659 12.460 C 14.742 12.143,14.743 11.419,14.660 11.100 C 14.574 10.769,14.364 10.340,14.165 10.090 C 13.955 9.826,13.544 9.485,13.241 9.324 L 13.007 9.199 12.993 6.969 L 12.980 4.740 12.869 4.551 C 12.734 4.321,12.545 4.172,12.295 4.097 C 12.067 4.028,11.914 4.028,11.689 4.099 " fill="#373B4D" stroke="none" fill-rule="evenodd"></path></svg>