<svg width="24" height="24" viewBox="0 0 24 24" fill="none" xmlns="http://www.w3.org/2000/svg"><path d="M6.379 4.044 C 5.641 4.112,4.788 4.677,4.389 5.361 C 4.130 5.806,4.028 6.186,4.026 6.720 C 4.024 7.248,4.090 7.545,4.303 7.980 C 4.551 8.488,4.964 8.906,5.490 9.182 L 5.760 9.324 5.760 11.999 L 5.760 14.673 5.470 14.833 C 4.943 15.125,4.542 15.531,4.305 16.016 C 4.093 16.447,4.026 16.751,4.023 17.280 C 4.021 17.697,4.033 17.773,4.146 18.090 C 4.315 18.564,4.487 18.841,4.822 19.177 C 5.497 19.853,6.446 20.137,7.329 19.926 C 7.898 19.789,8.278 19.573,8.702 19.145 C 8.900 18.944,9.086 18.724,9.114 18.656 L 9.165 18.532 11.472 18.508 C 12.786 18.494,13.900 18.466,14.058 18.441 C 14.210 18.417,14.519 18.337,14.743 18.262 C 16.356 17.722,17.483 16.593,18.024 14.975 C 18.147 14.607,18.168 14.485,18.201 13.929 C 18.221 13.583,18.238 12.405,18.239 11.312 L 18.240 9.324 18.530 9.173 C 18.949 8.955,19.496 8.404,19.693 8.000 C 19.911 7.553,19.974 7.260,19.972 6.700 C 19.970 6.315,19.952 6.168,19.882 5.960 C 19.632 5.220,19.143 4.653,18.457 4.308 C 17.675 3.915,16.849 3.915,16.042 4.306 C 15.726 4.460,15.607 4.546,15.319 4.835 C 14.764 5.390,14.520 5.971,14.520 6.740 C 14.520 7.208,14.585 7.497,14.783 7.918 C 15.040 8.462,15.518 8.955,16.054 9.227 L 16.247 9.325 16.228 11.652 C 16.216 13.136,16.193 14.050,16.165 14.174 C 16.112 14.406,15.954 14.772,15.766 15.097 C 15.510 15.538,14.864 16.081,14.359 16.280 C 13.852 16.480,13.750 16.488,11.517 16.508 L 9.413 16.527 9.325 16.284 C 9.210 15.969,8.888 15.490,8.648 15.276 C 8.421 15.073,7.891 14.720,7.815 14.720 C 7.769 14.720,7.760 14.281,7.760 12.022 L 7.760 9.325 7.996 9.199 C 8.280 9.047,8.660 8.732,8.883 8.462 C 9.276 7.986,9.441 7.539,9.469 6.880 C 9.502 6.077,9.275 5.447,8.754 4.899 C 8.111 4.222,7.364 3.954,6.379 4.044 " fill="#373B4D" stroke="none" fill-rule="evenodd"></path></svg>