<svg width="24" height="24" viewBox="0 0 24 24" fill="none" xmlns="http://www.w3.org/2000/svg"><path d="M11.600 4.123 C 11.378 4.224,11.219 4.371,11.106 4.580 C 11.021 4.738,11.020 4.772,11.009 6.968 L 10.997 9.197 10.709 9.348 C 10.399 9.511,9.946 9.910,9.754 10.189 C 9.414 10.683,9.267 11.154,9.264 11.760 C 9.262 12.248,9.333 12.562,9.539 12.980 C 9.802 13.514,10.213 13.931,10.749 14.210 L 10.998 14.340 11.009 16.800 C 11.020 19.253,11.020 19.260,11.109 19.426 C 11.489 20.137,12.511 20.137,12.891 19.426 C 12.980 19.260,12.980 19.253,12.991 16.800 L 13.002 14.340 13.251 14.210 C 13.787 13.931,14.198 13.514,14.461 12.980 C 14.667 12.562,14.738 12.248,14.736 11.760 C 14.733 11.154,14.586 10.683,14.246 10.189 C 14.054 9.910,13.601 9.511,13.291 9.348 L 13.003 9.197 12.991 6.968 C 12.980 4.772,12.979 4.738,12.894 4.580 C 12.712 4.244,12.377 4.042,12.000 4.042 C 11.864 4.042,11.711 4.073,11.600 4.123 " fill="#373B4D" stroke="none" fill-rule="evenodd"></path></svg>