<svg width="24" height="24" viewBox="0 0 24 24" fill="none" xmlns="http://www.w3.org/2000/svg"><path d="M6.180 4.061 C 6.026 4.095,5.729 4.205,5.521 4.307 C 4.553 4.780,3.954 5.803,4.013 6.880 C 4.068 7.890,4.622 8.747,5.510 9.198 L 5.760 9.325 5.760 12.002 L 5.760 14.679 5.530 14.795 C 4.621 15.254,4.067 16.102,4.013 17.120 C 3.985 17.623,4.065 17.992,4.305 18.479 C 4.761 19.401,5.724 19.997,6.764 19.999 C 7.326 20.001,7.952 19.784,8.428 19.424 C 8.675 19.237,9.032 18.829,9.122 18.631 L 9.170 18.526 11.495 18.508 C 14.009 18.489,14.104 18.482,14.781 18.257 C 16.227 17.776,17.370 16.703,17.899 15.330 C 18.225 14.483,18.214 14.598,18.230 11.812 L 18.244 9.323 18.492 9.197 C 18.992 8.943,19.454 8.485,19.700 8.000 C 19.904 7.598,19.980 7.252,19.979 6.740 C 19.978 6.392,19.957 6.194,19.904 6.020 C 19.673 5.264,19.151 4.636,18.479 4.307 C 17.994 4.070,17.561 3.979,17.075 4.014 C 15.844 4.101,14.839 4.967,14.558 6.182 C 14.478 6.529,14.501 7.138,14.608 7.501 C 14.812 8.192,15.313 8.820,15.930 9.158 L 16.240 9.327 16.240 11.565 C 16.240 14.158,16.238 14.174,15.913 14.840 C 15.735 15.202,15.660 15.306,15.364 15.600 C 14.822 16.136,14.288 16.392,13.529 16.479 C 13.337 16.501,12.331 16.519,11.293 16.520 L 9.406 16.520 9.358 16.370 C 9.263 16.072,9.026 15.676,8.786 15.414 C 8.544 15.150,8.037 14.781,7.854 14.735 L 7.760 14.711 7.760 12.019 L 7.760 9.327 8.070 9.158 C 8.462 8.943,8.929 8.484,9.139 8.107 C 9.998 6.560,9.227 4.638,7.540 4.121 C 7.168 4.007,6.556 3.980,6.180 4.061 " fill="#373B4D" stroke="none" fill-rule="evenodd"></path></svg>