<svg width="24" height="24" viewBox="0 0 24 24" fill="none" xmlns="http://www.w3.org/2000/svg"><path d="M11.456 3.145 C 11.135 3.361,10.715 3.763,8.205 6.259 C 4.995 9.452,3.171 11.326,3.088 11.516 C 2.999 11.723,3.003 12.295,3.095 12.487 C 3.280 12.871,11.130 20.721,11.512 20.904 C 11.730 21.008,12.243 21.003,12.480 20.894 C 12.686 20.800,14.766 18.788,17.444 16.094 C 20.004 13.518,20.800 12.684,20.894 12.480 C 21.008 12.229,21.008 11.770,20.892 11.514 C 20.787 11.281,19.194 9.640,15.715 6.179 C 12.430 2.911,12.582 3.040,11.996 3.040 C 11.647 3.040,11.597 3.050,11.456 3.145 M11.400 6.546 L 12.020 7.152 12.462 7.169 C 12.993 7.189,13.182 7.264,13.499 7.581 C 13.828 7.909,13.900 8.094,13.901 8.611 L 13.902 9.042 14.977 10.117 L 16.052 11.192 16.559 11.206 L 17.067 11.220 17.288 11.367 C 17.518 11.519,17.736 11.758,17.865 12.000 C 17.926 12.114,17.940 12.227,17.940 12.600 C 17.940 13.143,17.887 13.278,17.536 13.629 C 17.225 13.940,17.033 14.015,16.540 14.015 C 16.048 14.015,15.855 13.940,15.547 13.632 C 15.126 13.209,15.013 12.733,15.179 12.077 C 15.203 11.984,15.112 11.885,14.207 11.007 C 13.659 10.475,13.198 10.040,13.184 10.040 C 13.170 10.040,13.163 11.207,13.169 12.634 L 13.180 15.227 13.428 15.472 C 13.565 15.606,13.723 15.807,13.778 15.917 C 13.869 16.097,13.880 16.164,13.880 16.569 C 13.879 16.996,13.873 17.031,13.760 17.227 C 13.541 17.610,13.281 17.808,12.822 17.941 C 12.196 18.123,11.494 17.791,11.173 17.160 C 11.074 16.965,11.061 16.898,11.062 16.560 C 11.062 16.252,11.079 16.143,11.152 15.983 C 11.280 15.701,11.490 15.462,11.742 15.312 L 11.960 15.181 11.960 12.557 L 11.960 9.932 11.800 9.860 C 11.586 9.764,11.298 9.449,11.173 9.177 C 11.045 8.896,11.007 8.425,11.092 8.154 L 11.149 7.969 10.075 6.895 L 9.000 5.821 9.410 5.410 L 9.819 5.000 10.299 5.470 C 10.564 5.728,11.059 6.213,11.400 6.546 " fill="#373B4D" stroke="none" fill-rule="evenodd"></path></svg>