<svg width="24" height="24" viewBox="0 0 24 24" fill="none" xmlns="http://www.w3.org/2000/svg"><path d="M11.698 3.035 C 11.339 3.128,11.197 3.262,7.192 7.273 C 3.996 10.474,3.192 11.299,3.116 11.460 C 2.979 11.746,2.979 12.254,3.115 12.540 C 3.256 12.835,11.165 20.744,11.460 20.885 C 11.744 21.020,12.253 21.019,12.540 20.883 C 12.835 20.743,20.743 12.835,20.883 12.540 C 21.019 12.254,21.019 11.746,20.883 11.460 C 20.807 11.299,20.013 10.484,16.806 7.271 C 12.424 2.882,12.610 3.050,12.090 3.019 C 11.942 3.010,11.765 3.017,11.698 3.035 M11.368 6.518 L 12.037 7.176 12.409 7.165 C 12.922 7.150,13.171 7.244,13.504 7.576 C 13.840 7.913,13.933 8.163,13.912 8.668 L 13.896 9.037 14.968 10.108 L 16.039 11.178 16.489 11.180 C 17.028 11.182,17.205 11.247,17.537 11.560 C 17.849 11.856,17.978 12.159,17.978 12.600 C 17.978 13.042,17.849 13.344,17.535 13.641 C 17.210 13.949,17.023 14.020,16.540 14.020 C 16.057 14.020,15.870 13.949,15.545 13.641 C 15.156 13.274,15.005 12.751,15.138 12.239 L 15.206 11.980 14.193 10.993 L 13.180 10.005 13.169 12.633 C 13.159 15.081,13.163 15.263,13.227 15.300 C 13.408 15.405,13.677 15.700,13.783 15.909 C 13.890 16.121,13.900 16.175,13.900 16.560 C 13.900 16.926,13.888 17.003,13.804 17.160 C 13.655 17.440,13.533 17.582,13.308 17.734 C 12.514 18.271,11.454 17.939,11.118 17.046 C 11.000 16.735,11.020 16.229,11.160 15.939 C 11.286 15.680,11.523 15.425,11.766 15.289 L 11.960 15.180 11.959 12.560 L 11.958 9.940 11.799 9.867 C 11.576 9.764,11.306 9.480,11.173 9.210 C 11.033 8.926,10.995 8.429,11.092 8.146 L 11.151 7.971 10.076 6.896 L 9.000 5.821 9.410 5.410 L 9.819 5.000 10.259 5.430 C 10.502 5.666,11.001 6.156,11.368 6.518 " fill="#373B4D" stroke="none" fill-rule="evenodd"></path></svg>