<svg width="24" height="24" viewBox="0 0 24 24" fill="none" xmlns="http://www.w3.org/2000/svg"><path d="M11.536 3.101 C 11.265 3.239,10.529 3.946,7.417 7.058 C 4.184 10.291,3.146 11.366,3.073 11.558 C 3.011 11.721,3.025 12.335,3.094 12.468 C 3.207 12.687,4.428 13.952,7.238 16.762 C 10.069 19.593,11.313 20.793,11.538 20.909 C 11.704 20.995,12.262 20.991,12.449 20.903 C 12.685 20.790,13.984 19.541,16.941 16.583 C 19.913 13.609,20.782 12.704,20.900 12.455 C 20.990 12.265,20.996 11.760,20.910 11.560 C 20.813 11.335,19.988 10.469,17.220 7.684 C 14.348 4.795,12.975 3.462,12.623 3.220 C 12.398 3.065,12.378 3.060,12.025 3.049 C 11.754 3.041,11.628 3.054,11.536 3.101 M11.420 6.565 L 12.020 7.151 12.452 7.175 C 13.018 7.207,13.199 7.284,13.531 7.636 C 13.833 7.957,13.880 8.089,13.880 8.624 L 13.880 9.019 14.970 10.110 L 16.059 11.200 16.460 11.201 C 16.680 11.201,16.928 11.218,17.011 11.237 C 17.233 11.288,17.567 11.560,17.755 11.842 L 17.920 12.089 17.920 12.566 C 17.920 12.894,17.902 13.086,17.861 13.183 C 17.773 13.394,17.543 13.654,17.293 13.826 L 17.070 13.980 16.545 13.980 C 15.939 13.980,15.883 13.960,15.563 13.635 C 15.275 13.343,15.143 13.054,15.127 12.680 C 15.120 12.515,15.131 12.305,15.152 12.212 C 15.186 12.066,15.179 12.027,15.099 11.910 C 14.989 11.749,13.258 10.080,13.201 10.080 C 13.174 10.080,13.160 10.938,13.160 12.642 L 13.160 15.204 13.435 15.495 C 13.844 15.927,13.860 15.967,13.860 16.560 C 13.860 17.038,13.855 17.068,13.747 17.249 C 13.413 17.806,12.713 18.107,12.137 17.941 C 11.703 17.817,11.370 17.539,11.165 17.132 C 11.095 16.993,11.080 16.891,11.080 16.560 C 11.080 16.293,11.100 16.109,11.140 16.014 C 11.244 15.766,11.466 15.505,11.716 15.340 L 11.958 15.180 11.958 12.560 L 11.959 9.940 11.760 9.831 C 11.525 9.701,11.225 9.338,11.141 9.080 C 11.049 8.797,11.027 8.409,11.091 8.173 L 11.147 7.966 10.074 6.894 L 9.000 5.821 9.410 5.410 L 9.819 5.000 10.319 5.490 C 10.595 5.759,11.090 6.243,11.420 6.565 " fill="#373B4D" stroke="none" fill-rule="evenodd"></path></svg>