<svg width="24" height="24" viewBox="0 0 24 24" fill="none" xmlns="http://www.w3.org/2000/svg"><path d="M11.355 3.249 C 11.187 3.360,10.072 4.441,8.105 6.399 C 4.627 9.860,3.219 11.311,3.114 11.540 C 3.016 11.758,3.016 12.205,3.116 12.420 C 3.156 12.508,3.313 12.724,3.464 12.900 C 3.845 13.344,10.395 19.896,10.960 20.399 C 11.501 20.880,11.639 20.960,11.928 20.960 C 12.236 20.959,12.431 20.894,12.680 20.707 C 13.274 20.262,20.486 13.031,20.784 12.582 C 20.922 12.375,20.941 12.316,20.954 12.059 C 20.973 11.671,20.901 11.519,20.457 11.020 C 19.779 10.257,13.504 3.980,12.923 3.484 C 12.520 3.140,12.382 3.082,11.955 3.081 C 11.615 3.080,11.605 3.083,11.355 3.249 M11.400 6.545 L 12.020 7.151 12.459 7.198 C 13.021 7.259,13.211 7.341,13.514 7.657 C 13.790 7.944,13.824 8.038,13.862 8.620 L 13.888 9.020 14.969 10.105 L 16.049 11.190 16.514 11.218 C 16.770 11.234,17.039 11.272,17.113 11.303 C 17.320 11.389,17.537 11.579,17.743 11.852 L 17.930 12.100 17.903 12.560 C 17.889 12.813,17.860 13.083,17.839 13.160 C 17.794 13.331,17.510 13.662,17.236 13.863 L 17.034 14.011 16.567 13.990 C 15.979 13.962,15.822 13.903,15.558 13.607 C 15.253 13.264,15.205 13.134,15.159 12.523 C 15.135 12.212,15.094 11.946,15.060 11.880 C 15.005 11.774,13.530 10.358,13.330 10.218 C 13.244 10.159,13.238 10.161,13.200 10.260 C 13.175 10.326,13.160 11.273,13.160 12.786 L 13.160 15.207 13.419 15.491 C 13.776 15.882,13.802 15.949,13.829 16.562 C 13.852 17.078,13.852 17.078,13.741 17.239 C 13.573 17.481,13.300 17.715,13.047 17.834 C 12.854 17.924,12.766 17.940,12.460 17.940 C 12.016 17.940,11.806 17.851,11.478 17.522 C 11.144 17.187,11.109 17.087,11.126 16.500 L 11.140 16.010 11.300 15.777 C 11.393 15.642,11.565 15.468,11.710 15.363 L 11.960 15.181 11.960 12.560 L 11.959 9.940 11.804 9.851 C 11.622 9.747,11.326 9.412,11.205 9.172 C 11.131 9.025,11.120 8.934,11.120 8.473 L 11.120 7.943 10.060 6.881 L 9.001 5.819 9.410 5.410 L 9.819 5.000 10.300 5.470 C 10.564 5.728,11.059 6.212,11.400 6.545 " fill="#373B4D" stroke="none" fill-rule="evenodd"></path></svg>