<svg width="24" height="24" viewBox="0 0 24 24" fill="none" xmlns="http://www.w3.org/2000/svg"><path d="M11.628 3.095 C 11.544 3.126,11.403 3.203,11.314 3.264 C 10.879 3.566,3.546 10.908,3.190 11.399 C 3.074 11.558,3.058 11.612,3.045 11.895 C 3.025 12.347,3.070 12.456,3.468 12.907 C 3.925 13.425,9.465 18.987,10.539 20.006 C 11.033 20.474,11.449 20.836,11.552 20.886 C 11.696 20.956,11.778 20.967,12.033 20.952 C 12.205 20.942,12.395 20.905,12.466 20.868 C 12.535 20.832,12.787 20.628,13.026 20.414 C 13.624 19.880,20.153 13.348,20.548 12.888 C 20.737 12.669,20.887 12.453,20.914 12.364 C 20.988 12.119,20.972 11.729,20.880 11.541 C 20.757 11.287,19.626 10.108,16.580 7.060 C 13.659 4.137,12.778 3.294,12.503 3.162 C 12.284 3.055,11.827 3.021,11.628 3.095 M11.420 6.565 L 12.020 7.150 12.464 7.190 C 12.742 7.216,12.976 7.261,13.088 7.311 C 13.304 7.406,13.705 7.795,13.785 7.986 C 13.816 8.061,13.853 8.324,13.866 8.571 L 13.889 9.020 14.968 10.104 L 16.048 11.188 16.520 11.214 C 16.779 11.227,17.043 11.258,17.105 11.282 C 17.282 11.349,17.554 11.592,17.750 11.857 L 17.930 12.100 17.906 12.609 C 17.890 12.961,17.863 13.158,17.818 13.244 C 17.729 13.416,17.468 13.693,17.231 13.867 L 17.033 14.012 16.538 13.988 C 15.954 13.961,15.836 13.917,15.577 13.628 C 15.226 13.238,15.187 13.134,15.154 12.515 C 15.132 12.092,15.109 11.941,15.055 11.858 C 14.960 11.712,13.316 10.160,13.257 10.160 C 13.231 10.160,13.199 10.228,13.186 10.310 C 13.172 10.393,13.161 11.528,13.160 12.834 L 13.160 15.208 13.423 15.493 C 13.801 15.901,13.813 15.931,13.833 16.553 L 13.849 17.086 13.698 17.305 C 13.304 17.878,12.515 18.129,11.940 17.865 C 11.686 17.749,11.391 17.489,11.234 17.242 C 11.125 17.071,11.120 17.044,11.120 16.571 C 11.120 16.163,11.133 16.051,11.197 15.928 C 11.311 15.707,11.538 15.460,11.762 15.315 L 11.960 15.187 11.960 12.562 L 11.960 9.938 11.817 9.861 C 11.626 9.759,11.312 9.410,11.194 9.171 C 11.110 8.999,11.100 8.927,11.102 8.460 L 11.103 7.940 10.053 6.879 L 9.002 5.818 9.411 5.409 L 9.819 5.000 10.320 5.490 C 10.595 5.759,11.090 6.243,11.420 6.565 " fill="#373B4D" stroke="none" fill-rule="evenodd"></path></svg>