<svg width="24" height="24" viewBox="0 0 24 24" fill="none" xmlns="http://www.w3.org/2000/svg"><path d="M11.020 3.082 C 10.135 3.145,9.109 3.446,8.100 3.937 C 4.146 5.864,2.134 10.511,3.380 14.838 C 3.983 16.936,5.317 18.757,7.149 19.986 C 7.637 20.313,8.638 20.808,9.053 20.928 L 9.366 21.018 9.512 20.939 C 9.746 20.813,9.759 20.755,9.759 19.829 L 9.760 18.997 9.550 19.029 C 9.434 19.046,9.124 19.058,8.860 19.057 C 8.449 19.054,8.335 19.038,8.067 18.946 C 7.441 18.731,7.076 18.397,6.724 17.717 C 6.389 17.069,6.193 16.800,5.779 16.420 C 5.549 16.209,5.401 16.043,5.408 16.005 C 5.430 15.893,5.602 15.835,5.840 15.862 C 6.323 15.916,6.672 16.161,7.181 16.801 C 7.726 17.487,8.000 17.683,8.516 17.753 C 8.935 17.811,9.636 17.666,9.742 17.501 C 9.771 17.457,9.833 17.303,9.880 17.160 C 9.927 17.017,10.037 16.770,10.123 16.611 C 10.280 16.324,10.280 16.322,10.191 16.301 C 10.141 16.290,9.920 16.243,9.701 16.196 C 9.197 16.089,8.662 15.915,8.292 15.737 C 7.470 15.342,6.786 14.497,6.498 13.520 C 6.273 12.756,6.236 11.415,6.421 10.700 C 6.504 10.378,6.720 9.929,6.964 9.570 L 7.165 9.276 7.113 9.048 C 7.047 8.752,7.047 7.742,7.113 7.376 C 7.142 7.220,7.201 7.033,7.245 6.961 L 7.326 6.829 7.613 6.851 C 8.086 6.888,8.739 7.148,9.417 7.568 L 9.736 7.766 10.298 7.653 C 10.836 7.545,10.908 7.540,12.000 7.540 C 13.090 7.540,13.164 7.545,13.700 7.653 L 14.260 7.765 14.640 7.535 C 15.067 7.277,15.768 6.954,16.040 6.889 C 16.139 6.865,16.323 6.834,16.449 6.819 L 16.679 6.791 16.760 6.980 C 16.952 7.427,17.016 8.359,16.897 8.952 L 16.834 9.266 17.077 9.641 C 17.561 10.390,17.686 10.841,17.685 11.840 C 17.683 13.043,17.491 13.848,17.044 14.528 C 16.650 15.126,16.276 15.451,15.620 15.762 C 15.114 16.003,14.129 16.280,13.782 16.280 C 13.726 16.280,13.680 16.288,13.680 16.299 C 13.680 16.309,13.751 16.428,13.839 16.563 C 14.135 17.021,14.167 17.156,14.202 18.120 C 14.220 18.593,14.236 19.379,14.237 19.866 L 14.240 20.753 14.361 20.855 C 14.554 21.017,14.693 21.022,15.100 20.878 C 15.586 20.706,16.377 20.304,16.844 19.990 C 19.123 18.462,20.543 16.155,20.925 13.360 C 21.000 12.810,20.990 11.525,20.905 10.960 C 20.748 9.907,20.483 9.049,20.019 8.094 C 19.134 6.271,17.666 4.797,15.860 3.919 C 15.064 3.531,14.109 3.225,13.380 3.124 C 13.010 3.073,11.525 3.047,11.020 3.082 " fill="#373B4D" stroke="none" fill-rule="evenodd"></path></svg>