<svg width="24" height="24" viewBox="0 0 24 24" fill="none" xmlns="http://www.w3.org/2000/svg"><path d="M10.780 3.105 C 9.296 3.327,7.924 3.897,6.700 4.802 C 3.745 6.986,2.375 10.904,3.301 14.526 C 3.840 16.636,5.033 18.418,6.780 19.720 C 7.439 20.212,8.568 20.800,9.138 20.950 C 9.377 21.013,9.392 21.012,9.523 20.936 C 9.729 20.816,9.755 20.688,9.758 19.787 L 9.760 18.994 9.634 19.021 C 9.417 19.069,8.432 19.056,8.240 19.003 C 7.624 18.834,7.160 18.465,6.824 17.879 C 6.302 16.968,6.258 16.905,5.830 16.475 C 5.594 16.237,5.400 16.024,5.400 16.003 C 5.400 15.848,5.978 15.843,6.289 15.994 C 6.535 16.114,6.820 16.373,7.174 16.798 C 7.784 17.531,8.054 17.712,8.596 17.749 C 8.944 17.773,9.320 17.717,9.583 17.602 C 9.727 17.539,9.755 17.503,9.837 17.276 C 9.888 17.135,10.004 16.871,10.094 16.688 C 10.219 16.436,10.246 16.348,10.207 16.324 C 10.179 16.307,10.008 16.262,9.828 16.224 C 9.424 16.140,8.780 15.946,8.462 15.812 C 8.117 15.667,7.818 15.465,7.506 15.164 C 6.846 14.529,6.473 13.748,6.358 12.760 C 6.296 12.230,6.330 11.073,6.416 10.730 C 6.497 10.411,6.700 9.983,6.960 9.584 C 7.164 9.271,7.165 9.270,7.122 9.073 C 7.099 8.965,7.080 8.575,7.081 8.208 C 7.081 7.517,7.139 7.120,7.266 6.925 C 7.325 6.836,7.343 6.832,7.605 6.858 C 8.111 6.908,8.629 7.108,9.339 7.530 L 9.738 7.766 10.271 7.663 C 10.770 7.567,10.879 7.560,12.000 7.560 C 13.122 7.560,13.230 7.566,13.731 7.663 L 14.266 7.767 14.568 7.583 C 15.005 7.318,15.742 6.973,16.020 6.903 C 16.152 6.870,16.359 6.837,16.480 6.831 L 16.700 6.820 16.789 7.085 C 16.963 7.607,17.001 8.435,16.878 9.040 L 16.833 9.260 17.080 9.654 C 17.596 10.475,17.659 10.719,17.657 11.900 C 17.655 12.883,17.586 13.340,17.356 13.915 C 17.225 14.244,16.899 14.761,16.643 15.049 C 16.426 15.293,15.888 15.650,15.479 15.823 C 14.977 16.034,14.074 16.280,13.798 16.280 C 13.733 16.280,13.680 16.286,13.680 16.294 C 13.680 16.301,13.769 16.455,13.877 16.635 C 13.985 16.815,14.094 17.057,14.119 17.171 C 14.171 17.413,14.237 18.974,14.239 20.023 C 14.240 20.720,14.243 20.749,14.330 20.830 C 14.550 21.037,14.746 21.026,15.356 20.776 C 16.440 20.330,17.447 19.646,18.320 18.760 C 19.683 17.379,20.548 15.644,20.882 13.622 C 20.975 13.062,20.996 11.636,20.919 11.072 C 20.545 8.307,19.066 5.939,16.779 4.441 C 16.013 3.940,14.838 3.446,13.860 3.215 C 13.443 3.117,13.353 3.111,12.160 3.099 C 11.467 3.093,10.846 3.095,10.780 3.105 " fill="#373B4D" stroke="none" fill-rule="evenodd"></path></svg>