<svg width="24" height="24" viewBox="0 0 24 24" fill="none" xmlns="http://www.w3.org/2000/svg"><path d="M10.275 3.198 C 7.646 3.753,5.379 5.451,4.125 7.803 C 3.196 9.547,2.831 11.588,3.104 13.520 C 3.449 15.956,4.739 18.161,6.691 19.648 C 7.320 20.128,8.343 20.687,8.975 20.896 C 9.345 21.019,9.373 21.020,9.520 20.933 C 9.716 20.818,9.736 20.726,9.752 19.840 L 9.767 19.020 9.079 19.033 C 8.454 19.046,8.365 19.039,8.112 18.957 C 7.504 18.762,7.154 18.430,6.640 17.560 C 6.363 17.091,6.217 16.896,5.850 16.503 C 5.603 16.238,5.400 16.007,5.400 15.990 C 5.400 15.921,5.630 15.873,5.857 15.896 C 6.331 15.944,6.562 16.114,7.373 17.010 C 7.567 17.224,7.804 17.454,7.900 17.520 C 8.153 17.694,8.509 17.775,8.901 17.748 C 9.431 17.711,9.761 17.562,9.818 17.336 C 9.831 17.282,9.931 17.046,10.039 16.810 C 10.149 16.572,10.221 16.365,10.202 16.346 C 10.184 16.328,9.898 16.243,9.569 16.158 C 8.448 15.871,8.014 15.653,7.461 15.099 C 7.030 14.668,6.766 14.247,6.577 13.690 C 6.351 13.028,6.281 12.290,6.354 11.340 C 6.410 10.609,6.503 10.339,6.963 9.580 L 7.156 9.260 7.114 8.940 C 7.065 8.568,7.092 7.511,7.158 7.220 C 7.183 7.110,7.236 6.976,7.277 6.923 C 7.350 6.827,7.355 6.827,7.670 6.871 C 8.194 6.946,8.678 7.141,9.416 7.579 L 9.733 7.766 10.196 7.673 C 10.627 7.587,10.756 7.580,12.000 7.580 C 13.240 7.580,13.374 7.587,13.800 7.672 L 14.260 7.765 14.668 7.529 C 15.438 7.084,16.089 6.840,16.507 6.840 L 16.717 6.840 16.777 7.043 C 16.937 7.583,16.983 8.417,16.884 8.985 L 16.834 9.270 17.009 9.545 C 17.293 9.990,17.427 10.244,17.527 10.520 C 17.616 10.769,17.620 10.828,17.620 11.900 C 17.620 12.925,17.612 13.050,17.531 13.368 C 17.387 13.932,17.081 14.519,16.676 15.004 C 16.497 15.219,16.052 15.537,15.657 15.733 C 15.192 15.963,14.126 16.279,13.811 16.280 L 13.683 16.280 13.904 16.710 L 14.124 17.140 14.162 17.680 C 14.182 17.977,14.211 18.787,14.226 19.480 L 14.253 20.739 14.369 20.855 C 14.478 20.964,14.499 20.969,14.738 20.950 C 15.232 20.911,16.399 20.327,17.229 19.704 C 17.734 19.326,18.541 18.555,18.908 18.100 C 19.584 17.264,20.134 16.252,20.476 15.220 C 20.880 14.000,20.979 13.303,20.948 11.900 C 20.927 10.920,20.869 10.521,20.620 9.664 C 19.845 6.992,17.987 4.851,15.513 3.782 C 14.928 3.529,14.125 3.267,13.675 3.181 C 13.171 3.086,10.751 3.098,10.275 3.198 " fill="#373B4D" stroke="none" fill-rule="evenodd"></path></svg>