<svg width="24" height="24" viewBox="0 0 24 24" fill="none" xmlns="http://www.w3.org/2000/svg"><path d="M11.179 3.039 C 10.629 3.098,10.079 3.203,9.587 3.344 C 6.161 4.327,3.658 7.233,3.093 10.880 C 2.994 11.521,2.994 12.960,3.093 13.588 C 3.428 15.705,4.327 17.460,5.826 18.923 C 6.595 19.674,7.418 20.240,8.357 20.663 C 9.209 21.046,9.453 21.079,9.658 20.836 L 9.760 20.714 9.760 19.844 L 9.760 18.975 9.470 19.026 C 8.547 19.188,7.728 18.978,7.199 18.444 C 6.937 18.179,6.895 18.111,6.607 17.480 C 6.406 17.039,6.142 16.689,5.852 16.475 C 5.501 16.217,5.400 16.114,5.400 16.014 C 5.400 15.878,5.534 15.827,5.837 15.849 C 6.358 15.886,6.759 16.173,7.195 16.820 C 7.610 17.436,7.992 17.696,8.600 17.778 C 8.821 17.807,9.367 17.716,9.607 17.610 C 9.776 17.535,9.787 17.519,9.836 17.296 C 9.903 16.991,10.006 16.757,10.181 16.514 C 10.274 16.384,10.304 16.313,10.271 16.304 C 10.243 16.296,10.049 16.261,9.840 16.226 C 9.077 16.100,8.363 15.835,7.855 15.490 C 7.553 15.285,7.097 14.805,6.907 14.491 C 6.485 13.797,6.281 12.936,6.280 11.854 C 6.280 10.853,6.492 10.165,7.007 9.492 L 7.166 9.284 7.093 8.972 C 6.950 8.362,7.044 7.224,7.266 6.886 C 7.325 6.795,7.344 6.791,7.594 6.817 C 8.110 6.870,8.872 7.188,9.495 7.611 L 9.731 7.770 10.115 7.684 C 11.322 7.412,12.677 7.412,13.882 7.683 L 14.264 7.769 14.582 7.561 C 14.932 7.332,15.508 7.043,15.820 6.940 C 15.930 6.904,16.160 6.854,16.330 6.829 C 16.592 6.791,16.650 6.793,16.697 6.842 C 16.787 6.935,16.919 7.426,16.969 7.848 C 17.017 8.261,16.975 8.791,16.868 9.108 C 16.818 9.257,16.820 9.264,16.999 9.500 C 17.253 9.836,17.457 10.242,17.583 10.661 C 17.675 10.967,17.694 11.115,17.710 11.664 C 17.778 13.957,16.917 15.383,15.095 15.993 C 14.720 16.119,13.968 16.280,13.758 16.280 L 13.641 16.280 13.782 16.465 C 13.962 16.701,14.010 16.796,14.123 17.140 C 14.212 17.409,14.217 17.485,14.238 19.087 L 14.260 20.754 14.356 20.856 C 14.562 21.074,14.812 21.037,15.643 20.663 C 16.572 20.244,17.404 19.675,18.154 18.943 C 18.992 18.126,19.524 17.396,20.023 16.380 C 20.471 15.467,20.731 14.641,20.906 13.580 C 21.007 12.967,21.007 11.529,20.907 10.880 C 20.277 6.811,17.246 3.711,13.300 3.101 C 12.820 3.026,11.626 2.992,11.179 3.039 " fill="#373B4D" stroke="none" fill-rule="evenodd"></path></svg>