<svg width="24" height="24" viewBox="0 0 24 24" fill="none" xmlns="http://www.w3.org/2000/svg"><path d="M10.680 3.160 C 9.841 3.222,8.618 3.647,7.600 4.232 C 5.957 5.176,4.619 6.650,3.858 8.358 C 2.529 11.339,2.783 14.637,4.549 17.339 C 5.265 18.433,6.276 19.427,7.351 20.092 C 8.030 20.512,9.111 21.000,9.363 21.000 C 9.404 21.000,9.494 20.951,9.561 20.890 C 9.717 20.750,9.758 20.495,9.759 19.650 L 9.760 19.040 9.082 19.040 C 8.469 19.040,8.374 19.030,8.086 18.939 C 7.514 18.759,7.207 18.470,6.675 17.611 C 6.343 17.076,6.174 16.853,5.726 16.360 C 5.482 16.091,5.404 15.980,5.436 15.948 C 5.461 15.923,5.606 15.904,5.760 15.906 C 6.234 15.910,6.427 16.034,7.204 16.835 C 7.581 17.222,7.928 17.544,8.020 17.590 C 8.269 17.716,8.620 17.773,8.953 17.743 C 9.270 17.714,9.641 17.595,9.724 17.495 C 9.788 17.418,10.200 16.448,10.200 16.375 C 10.200 16.345,10.190 16.320,10.178 16.320 C 10.167 16.320,9.865 16.240,9.508 16.141 C 8.404 15.837,8.084 15.679,7.565 15.181 C 7.206 14.836,6.956 14.512,6.779 14.160 C 6.417 13.439,6.269 12.473,6.357 11.400 C 6.422 10.604,6.494 10.382,6.920 9.660 L 7.156 9.260 7.112 8.833 C 7.082 8.532,7.081 8.232,7.110 7.813 C 7.154 7.188,7.229 6.902,7.360 6.860 C 7.448 6.832,7.864 6.896,8.153 6.982 C 8.457 7.072,8.900 7.280,9.344 7.542 L 9.728 7.767 10.174 7.683 C 10.573 7.608,10.767 7.599,12.000 7.599 C 13.229 7.599,13.428 7.608,13.822 7.682 L 14.264 7.766 14.655 7.540 C 15.382 7.120,15.970 6.892,16.426 6.853 L 16.711 6.829 16.772 7.045 C 16.919 7.561,16.966 8.431,16.877 8.999 L 16.835 9.273 17.044 9.606 C 17.159 9.790,17.327 10.093,17.417 10.280 L 17.580 10.620 17.592 11.833 C 17.606 13.235,17.580 13.408,17.257 14.080 C 16.708 15.220,15.970 15.759,14.407 16.163 C 14.158 16.227,13.892 16.280,13.816 16.280 L 13.677 16.280 13.897 16.711 L 14.117 17.141 14.157 17.761 C 14.179 18.101,14.209 18.916,14.224 19.571 L 14.252 20.763 14.369 20.861 C 14.521 20.990,14.704 20.989,15.114 20.860 C 15.709 20.671,16.794 20.060,17.398 19.572 C 17.823 19.229,18.537 18.538,18.827 18.189 C 19.565 17.303,20.125 16.275,20.514 15.095 C 20.873 14.005,20.985 13.174,20.947 11.880 C 20.919 10.946,20.858 10.510,20.656 9.800 C 19.924 7.227,18.292 5.192,16.034 4.039 C 15.138 3.581,14.069 3.224,13.400 3.159 C 12.970 3.117,11.255 3.118,10.680 3.160 " fill="#373B4D" stroke="none" fill-rule="evenodd"></path></svg>