<svg width="24" height="24" viewBox="0 0 24 24" fill="none" xmlns="http://www.w3.org/2000/svg"><path d="M10.706 3.100 C 7.942 3.549,5.633 5.146,4.242 7.572 C 3.508 8.851,3.085 10.315,3.020 11.800 C 2.922 14.016,3.587 16.161,4.903 17.880 C 5.874 19.148,7.139 20.144,8.537 20.739 C 9.266 21.049,9.483 21.062,9.681 20.809 C 9.754 20.717,9.760 20.644,9.760 19.849 L 9.760 18.989 9.590 19.016 C 8.550 19.178,7.771 18.991,7.212 18.445 C 7.010 18.248,6.919 18.111,6.694 17.662 C 6.361 16.997,6.152 16.717,5.752 16.400 C 5.583 16.266,5.434 16.124,5.421 16.084 C 5.361 15.894,5.532 15.813,5.892 15.860 C 6.359 15.921,6.773 16.223,7.180 16.800 C 7.429 17.154,7.759 17.477,7.992 17.596 C 8.293 17.749,8.654 17.810,8.976 17.761 C 9.372 17.701,9.655 17.614,9.728 17.531 C 9.763 17.492,9.821 17.353,9.859 17.222 C 9.931 16.970,10.077 16.655,10.210 16.467 C 10.254 16.405,10.274 16.340,10.255 16.323 C 10.236 16.306,10.010 16.253,9.754 16.206 C 9.225 16.108,8.586 15.899,8.195 15.694 C 7.374 15.265,6.709 14.383,6.462 13.397 C 6.260 12.589,6.233 11.469,6.400 10.771 C 6.502 10.344,6.665 9.989,6.940 9.596 L 7.163 9.278 7.101 8.981 C 6.980 8.392,7.050 7.315,7.232 6.968 C 7.310 6.820,7.310 6.820,7.550 6.829 C 8.003 6.846,8.796 7.162,9.457 7.589 L 9.734 7.767 10.137 7.685 C 10.890 7.532,11.177 7.504,12.000 7.504 C 12.823 7.504,13.110 7.532,13.863 7.685 L 14.266 7.767 14.550 7.584 C 14.933 7.336,15.687 6.975,15.971 6.902 C 16.099 6.870,16.310 6.832,16.441 6.817 L 16.680 6.790 16.757 6.965 C 16.968 7.445,17.036 8.396,16.901 8.970 L 16.830 9.272 17.011 9.526 C 17.228 9.830,17.441 10.247,17.559 10.595 C 17.729 11.104,17.755 12.116,17.619 12.982 C 17.399 14.384,16.626 15.385,15.380 15.883 C 14.994 16.037,14.255 16.228,13.904 16.264 L 13.648 16.290 13.823 16.529 C 13.936 16.681,14.036 16.885,14.103 17.094 C 14.206 17.418,14.207 17.431,14.230 19.092 L 14.252 20.763 14.369 20.862 C 14.600 21.056,14.759 21.038,15.469 20.736 C 17.227 19.988,18.759 18.617,19.735 16.920 C 20.673 15.288,21.090 13.477,20.965 11.574 C 20.821 9.367,19.862 7.230,18.322 5.680 C 17.029 4.379,15.528 3.565,13.700 3.175 C 13.267 3.082,13.114 3.071,12.140 3.058 C 11.333 3.047,10.971 3.057,10.706 3.100 " fill="#373B4D" stroke="none" fill-rule="evenodd"></path></svg>