<svg width="24" height="24" viewBox="0 0 24 24" fill="none" xmlns="http://www.w3.org/2000/svg"><path d="M6.284 3.095 C 6.235 3.148,6.152 3.296,6.098 3.425 C 5.820 4.102,3.301 11.874,3.083 12.726 C 2.959 13.212,2.967 13.223,4.100 14.075 C 5.375 15.035,11.059 19.152,11.828 19.673 C 12.247 19.956,12.225 19.956,12.670 19.652 C 13.528 19.066,18.896 15.162,20.360 14.058 C 20.745 13.768,21.139 13.456,21.235 13.366 L 21.411 13.202 21.390 12.931 C 21.367 12.630,21.186 12.030,20.214 9.020 C 18.669 4.236,18.332 3.265,18.156 3.096 C 18.042 2.987,18.031 2.985,17.928 3.042 C 17.869 3.076,17.779 3.177,17.730 3.267 C 17.648 3.415,16.145 7.884,15.777 9.075 L 15.624 9.569 12.250 9.554 C 9.323 9.541,8.871 9.531,8.838 9.479 C 8.817 9.447,8.377 8.145,7.859 6.586 C 6.842 3.519,6.725 3.201,6.571 3.080 C 6.440 2.977,6.393 2.979,6.284 3.095 " fill="#373B4D" stroke="none" fill-rule="evenodd"></path></svg>