<svg width="24" height="24" viewBox="0 0 24 24" fill="none" xmlns="http://www.w3.org/2000/svg"><path d="M6.245 3.160 C 6.109 3.347,5.867 4.030,5.024 6.613 C 3.610 10.939,3.040 12.776,3.040 13.005 C 3.040 13.134,3.070 13.195,3.210 13.347 C 3.404 13.559,4.637 14.488,7.060 16.246 C 10.817 18.973,12.023 19.830,12.154 19.866 C 12.210 19.880,12.307 19.863,12.392 19.822 C 12.732 19.660,20.060 14.327,21.009 13.551 C 21.389 13.240,21.400 13.226,21.400 13.065 C 21.399 12.724,21.264 12.272,19.959 8.240 C 18.620 4.102,18.319 3.248,18.140 3.080 C 18.050 2.996,18.030 2.992,17.940 3.040 C 17.885 3.069,17.811 3.139,17.774 3.195 C 17.697 3.313,16.600 6.521,16.017 8.333 L 15.620 9.567 12.271 9.553 C 9.360 9.542,8.915 9.532,8.864 9.480 C 8.832 9.447,8.365 8.104,7.826 6.497 C 7.286 4.889,6.797 3.470,6.737 3.345 C 6.632 3.124,6.516 3.000,6.411 3.000 C 6.383 3.000,6.308 3.072,6.245 3.160 " fill="#373B4D" stroke="none" fill-rule="evenodd"></path></svg>