<svg width="24" height="24" viewBox="0 0 24 24" fill="none" xmlns="http://www.w3.org/2000/svg"><path d="M6.291 3.049 C 6.182 3.101,6.173 3.125,5.587 4.900 C 4.366 8.596,3.049 12.707,3.017 12.920 C 3.002 13.019,3.022 13.112,3.088 13.240 C 3.171 13.402,3.449 13.615,5.915 15.409 C 7.418 16.503,9.451 17.978,10.431 18.686 C 12.192 19.959,12.215 19.973,12.318 19.914 C 12.430 19.849,15.994 17.267,19.220 14.912 C 20.386 14.061,21.257 13.397,21.309 13.321 C 21.470 13.085,21.465 12.974,21.263 12.298 C 21.025 11.506,18.697 4.324,18.487 3.734 C 18.258 3.093,18.197 3.000,18.003 3.000 C 17.866 3.000,17.791 3.081,17.665 3.364 C 17.565 3.590,16.842 5.771,16.058 8.210 L 15.624 9.560 12.362 9.560 C 10.568 9.559,9.033 9.548,8.952 9.535 L 8.803 9.510 8.559 8.745 C 7.213 4.539,6.767 3.225,6.636 3.085 C 6.550 2.993,6.432 2.980,6.291 3.049 " fill="#373B4D" stroke="none" fill-rule="evenodd"></path></svg>