<svg width="24" height="24" viewBox="0 0 24 24" fill="none" xmlns="http://www.w3.org/2000/svg"><path d="M6.272 3.062 C 6.151 3.128,6.314 2.647,4.102 9.452 C 3.496 11.318,3.000 12.893,3.001 12.952 C 3.002 13.088,3.125 13.359,3.224 13.445 C 3.356 13.559,12.136 19.929,12.189 19.949 C 12.218 19.960,12.290 19.936,12.350 19.897 C 12.623 19.719,21.113 13.540,21.215 13.446 C 21.356 13.316,21.440 13.128,21.440 12.941 C 21.440 12.863,21.153 11.913,20.802 10.830 C 20.450 9.746,19.749 7.582,19.243 6.020 C 18.255 2.971,18.267 3.000,18.000 3.000 C 17.741 3.000,17.757 2.962,16.654 6.370 L 15.621 9.560 12.211 9.560 C 9.719 9.560,8.800 9.548,8.800 9.515 C 8.800 9.491,8.341 8.055,7.779 6.325 C 6.703 3.009,6.698 2.997,6.468 3.002 C 6.419 3.002,6.331 3.030,6.272 3.062 " fill="#373B4D" stroke="none" fill-rule="evenodd"></path></svg>