<svg width="24" height="24" viewBox="0 0 24 24" fill="none" xmlns="http://www.w3.org/2000/svg"><path d="M6.293 3.071 C 6.175 3.164,6.054 3.484,5.488 5.200 C 4.268 8.900,3.255 12.069,3.099 12.667 C 3.006 13.025,3.004 13.056,3.063 13.181 C 3.170 13.407,3.386 13.572,7.000 16.201 C 9.846 18.272,11.733 19.624,12.018 19.796 C 12.219 19.917,12.253 19.926,12.339 19.880 C 12.644 19.717,20.069 14.313,20.948 13.614 C 21.151 13.453,21.338 13.281,21.365 13.231 C 21.479 13.017,21.427 12.799,20.774 10.760 C 19.423 6.547,18.475 3.680,18.318 3.330 C 18.128 2.910,17.891 2.897,17.704 3.297 C 17.614 3.489,16.296 7.438,15.838 8.891 L 15.626 9.561 12.255 9.551 C 9.847 9.543,8.871 9.527,8.839 9.496 C 8.815 9.471,8.383 8.193,7.879 6.656 C 6.830 3.456,6.763 3.269,6.614 3.114 C 6.489 2.983,6.416 2.973,6.293 3.071 " fill="#373B4D" stroke="none" fill-rule="evenodd"></path></svg>