<svg width="24" height="24" viewBox="0 0 24 24" fill="none" xmlns="http://www.w3.org/2000/svg"><path d="M6.263 3.090 C 6.147 3.192,6.016 3.569,4.801 7.300 C 3.239 12.098,2.985 12.921,3.020 13.081 C 3.076 13.336,3.228 13.457,6.100 15.546 C 11.393 19.395,12.131 19.920,12.248 19.920 C 12.324 19.920,13.114 19.357,16.980 16.545 C 19.486 14.723,20.975 13.619,21.200 13.415 C 21.418 13.218,21.458 13.072,21.384 12.751 C 21.294 12.364,20.859 10.999,19.252 6.060 C 18.452 3.601,18.319 3.228,18.190 3.090 C 18.037 2.926,17.848 2.990,17.714 3.251 C 17.626 3.423,16.730 6.108,16.019 8.330 L 15.625 9.560 12.338 9.560 C 10.529 9.560,8.995 9.549,8.927 9.535 C 8.805 9.511,8.800 9.499,8.560 8.745 C 8.107 7.322,6.960 3.846,6.833 3.513 C 6.644 3.019,6.480 2.897,6.263 3.090 " fill="#373B4D" stroke="none" fill-rule="evenodd"></path></svg>