<svg width="24" height="24" viewBox="0 0 24 24" fill="none" xmlns="http://www.w3.org/2000/svg"><path d="M10.960 2.483 C 10.529 2.522,9.753 2.687,9.175 2.863 C 7.694 3.311,6.417 4.074,5.312 5.171 C 3.805 6.665,2.893 8.403,2.543 10.445 C 2.150 12.732,2.671 15.225,3.947 17.178 C 5.248 19.167,7.063 20.510,9.409 21.217 C 10.384 21.511,10.564 21.534,11.920 21.537 C 13.206 21.540,13.437 21.520,14.160 21.339 C 16.336 20.794,18.255 19.563,19.560 17.875 C 20.466 16.703,21.204 15.049,21.468 13.600 C 21.571 13.039,21.571 10.898,21.468 10.380 C 20.876 7.391,19.104 4.964,16.480 3.550 C 15.484 3.013,14.237 2.625,13.173 2.522 C 12.619 2.469,11.364 2.446,10.960 2.483 M7.765 6.682 C 8.175 6.999,8.394 7.093,9.020 7.220 C 9.340 7.285,9.635 7.372,9.787 7.447 C 10.113 7.607,10.411 7.912,10.582 8.260 C 10.709 8.520,10.724 8.590,10.781 9.220 C 10.887 10.386,11.011 10.715,11.538 11.236 C 12.056 11.748,12.546 11.966,13.180 11.964 C 13.793 11.962,14.248 11.800,14.689 11.425 C 15.243 10.955,15.432 10.565,15.619 9.512 C 15.705 9.029,15.750 8.881,15.905 8.564 C 16.146 8.072,16.477 7.733,16.953 7.490 C 17.136 7.396,17.309 7.320,17.337 7.320 C 17.421 7.320,17.709 7.639,17.945 7.992 C 18.400 8.676,18.721 9.403,18.964 10.295 C 19.079 10.718,19.083 10.763,19.107 11.939 L 19.133 13.149 18.816 13.176 C 17.488 13.290,17.311 13.319,17.002 13.468 C 16.778 13.576,16.610 13.703,16.332 13.972 C 15.901 14.389,15.782 14.597,15.698 15.078 C 15.648 15.367,15.562 17.148,15.561 17.949 C 15.560 18.288,15.569 18.279,14.999 18.525 C 14.248 18.848,13.093 19.141,12.390 19.187 L 12.000 19.212 11.999 18.156 C 11.999 17.575,11.982 16.888,11.962 16.630 C 11.930 16.215,11.909 16.125,11.785 15.870 C 11.425 15.125,10.736 14.610,9.899 14.461 C 8.767 14.258,8.534 14.180,8.179 13.879 C 7.643 13.426,7.413 13.030,7.279 12.333 C 7.058 11.178,6.943 10.859,6.620 10.492 C 6.400 10.242,5.972 9.949,5.550 9.759 C 5.331 9.661,5.240 9.599,5.240 9.549 C 5.240 9.466,5.707 8.551,5.958 8.140 C 6.053 7.986,6.256 7.709,6.411 7.525 C 6.712 7.167,7.395 6.440,7.431 6.440 C 7.443 6.440,7.594 6.549,7.765 6.682 " fill="#373B4D" stroke="none" fill-rule="evenodd"></path></svg>