<svg width="24" height="24" viewBox="0 0 24 24" fill="none" xmlns="http://www.w3.org/2000/svg"><path d="M10.780 2.522 C 9.848 2.624,8.586 3.017,7.649 3.498 C 6.239 4.220,4.873 5.459,3.942 6.860 C 3.237 7.919,2.668 9.464,2.501 10.772 C 2.431 11.317,2.420 12.576,2.481 13.081 C 2.696 14.862,3.457 16.662,4.570 18.020 C 4.877 18.396,5.581 19.099,5.937 19.386 C 6.938 20.194,8.256 20.876,9.552 21.258 C 10.154 21.435,10.437 21.479,11.293 21.528 C 12.395 21.591,13.323 21.535,14.020 21.363 C 15.488 21.001,16.913 20.310,18.020 19.422 C 18.626 18.936,19.442 18.067,19.832 17.491 C 20.332 16.753,20.800 15.791,21.123 14.839 C 21.420 13.961,21.478 13.657,21.519 12.742 C 21.551 12.020,21.517 10.595,21.463 10.380 C 21.451 10.336,21.387 10.078,21.320 9.807 C 20.774 7.596,19.537 5.736,17.700 4.361 C 16.366 3.362,14.633 2.668,13.220 2.565 C 12.385 2.504,11.143 2.483,10.780 2.522 M7.766 6.686 C 8.015 6.881,8.369 7.032,9.026 7.223 C 9.779 7.442,9.980 7.543,10.250 7.838 C 10.576 8.194,10.661 8.425,10.783 9.280 C 10.906 10.148,11.020 10.540,11.247 10.880 C 11.442 11.174,11.881 11.549,12.229 11.721 C 12.906 12.055,13.744 12.016,14.401 11.619 C 14.690 11.444,15.121 10.995,15.257 10.727 C 15.316 10.609,15.463 10.145,15.584 9.694 C 15.905 8.495,16.016 8.256,16.417 7.890 C 16.619 7.707,17.152 7.376,17.314 7.333 C 17.374 7.318,17.446 7.377,17.619 7.586 C 18.201 8.290,18.868 9.710,18.998 10.527 C 19.033 10.746,19.119 12.422,19.120 12.909 C 19.120 13.031,19.100 13.088,19.048 13.116 C 19.008 13.137,18.653 13.193,18.258 13.239 C 17.400 13.340,17.251 13.374,16.946 13.533 C 16.682 13.671,16.194 14.109,15.986 14.392 C 15.712 14.767,15.668 15.040,15.580 16.874 C 15.546 17.586,15.500 18.203,15.478 18.244 C 15.328 18.524,13.025 19.200,12.220 19.200 L 12.011 19.200 11.989 17.890 C 11.976 17.169,11.946 16.464,11.921 16.321 C 11.852 15.931,11.673 15.631,11.261 15.219 C 10.793 14.751,10.597 14.657,9.565 14.404 C 8.498 14.142,8.248 14.008,7.800 13.457 C 7.525 13.117,7.433 12.895,7.223 12.054 C 7.123 11.654,6.993 11.199,6.935 11.042 C 6.766 10.586,6.420 10.258,5.631 9.804 C 5.395 9.669,5.296 9.589,5.287 9.526 C 5.272 9.422,5.753 8.484,6.048 8.042 C 6.282 7.692,6.469 7.465,7.014 6.868 L 7.409 6.437 7.514 6.504 C 7.572 6.542,7.685 6.623,7.766 6.686 " fill="#373B4D" stroke="none" fill-rule="evenodd"></path></svg>