<svg width="24" height="24" viewBox="0 0 24 24" fill="none" xmlns="http://www.w3.org/2000/svg"><path d="M10.960 2.483 C 10.529 2.522,9.753 2.687,9.175 2.863 C 7.694 3.311,6.417 4.074,5.312 5.171 C 3.805 6.665,2.893 8.403,2.543 10.445 C 2.150 12.732,2.671 15.225,3.947 17.178 C 5.248 19.167,7.063 20.510,9.409 21.217 C 10.384 21.511,10.564 21.534,11.920 21.537 C 13.206 21.540,13.437 21.520,14.160 21.339 C 16.336 20.794,18.255 19.563,19.560 17.875 C 20.466 16.703,21.204 15.049,21.468 13.600 C 21.571 13.039,21.571 10.898,21.468 10.380 C 20.876 7.391,19.104 4.964,16.480 3.550 C 15.484 3.013,14.237 2.625,13.173 2.522 C 12.619 2.469,11.364 2.446,10.960 2.483 M12.140 4.858 C 12.819 5.141,13.671 6.782,13.998 8.431 C 14.106 8.977,14.281 10.067,14.337 10.544 L 14.361 10.747 13.731 10.774 C 12.918 10.807,10.984 10.807,10.245 10.773 L 9.669 10.747 9.696 10.398 C 9.762 9.519,10.023 8.182,10.288 7.360 C 10.688 6.121,11.181 5.299,11.747 4.924 C 11.963 4.781,11.959 4.782,12.140 4.858 M16.300 6.255 C 16.904 6.711,17.596 7.459,18.012 8.104 C 18.470 8.814,18.947 9.966,19.022 10.546 L 19.049 10.752 18.675 10.778 C 18.469 10.793,17.958 10.799,17.540 10.792 L 16.780 10.780 16.769 10.620 C 16.743 10.252,16.587 9.102,16.495 8.600 C 16.353 7.827,15.996 6.449,15.817 5.985 C 15.791 5.918,15.797 5.915,15.884 5.962 C 15.937 5.990,16.124 6.122,16.300 6.255 M8.121 6.090 C 8.104 6.162,7.989 6.598,7.865 7.060 C 7.561 8.193,7.461 8.702,7.337 9.740 C 7.279 10.224,7.225 10.660,7.215 10.710 C 7.199 10.800,7.197 10.800,6.385 10.800 C 5.938 10.800,5.432 10.788,5.262 10.774 L 4.951 10.748 4.978 10.545 C 5.046 10.031,5.508 8.889,5.918 8.220 C 6.266 7.653,6.771 7.063,7.312 6.589 C 7.723 6.230,8.070 5.960,8.120 5.960 C 8.137 5.960,8.138 6.019,8.121 6.090 M13.330 13.240 L 14.320 13.240 14.320 13.430 C 14.320 13.535,14.274 13.935,14.218 14.319 C 13.944 16.205,13.473 17.625,12.839 18.480 C 12.393 19.081,12.078 19.264,11.768 19.104 C 11.611 19.023,11.233 18.613,11.040 18.316 C 10.652 17.718,10.241 16.650,10.022 15.669 C 9.910 15.164,9.692 13.789,9.672 13.460 L 9.660 13.260 10.200 13.235 C 10.497 13.222,11.100 13.217,11.540 13.225 C 11.980 13.233,12.785 13.240,13.330 13.240 M18.475 13.227 L 19.050 13.253 19.027 13.445 C 18.990 13.760,18.684 14.616,18.417 15.156 C 18.000 15.998,17.554 16.608,16.905 17.230 C 16.479 17.636,15.870 18.109,15.849 18.048 C 15.842 18.025,15.925 17.694,16.034 17.313 C 16.378 16.112,16.581 15.086,16.709 13.906 C 16.770 13.340,16.786 13.268,16.859 13.238 C 16.960 13.197,17.714 13.192,18.475 13.227 M7.288 13.920 C 7.423 15.147,7.556 15.798,8.055 17.660 C 8.108 17.858,8.144 18.027,8.136 18.037 C 8.109 18.065,7.699 17.767,7.337 17.456 C 6.608 16.831,6.004 16.036,5.565 15.120 C 5.285 14.538,5.010 13.762,4.974 13.454 L 4.949 13.239 6.082 13.249 L 7.216 13.260 7.288 13.920 " fill="#373B4D" stroke="none" fill-rule="evenodd"></path></svg>