<svg width="24" height="24" viewBox="0 0 24 24" fill="none" xmlns="http://www.w3.org/2000/svg"><path d="M10.800 2.560 C 9.246 2.685,7.471 3.441,6.040 4.585 C 5.599 4.937,4.771 5.770,4.440 6.194 C 3.480 7.422,2.855 8.853,2.533 10.560 C 2.444 11.034,2.431 12.733,2.513 13.300 C 2.652 14.269,3.083 15.571,3.565 16.480 C 3.987 17.275,4.415 17.854,5.100 18.555 C 6.022 19.499,6.625 19.943,7.760 20.518 C 9.182 21.237,10.130 21.486,11.668 21.544 C 12.869 21.589,13.772 21.467,14.800 21.121 C 16.055 20.698,17.043 20.168,18.000 19.405 C 19.520 18.193,20.455 16.796,21.163 14.680 C 21.468 13.769,21.494 13.558,21.497 12.000 C 21.500 10.529,21.486 10.391,21.255 9.591 C 20.689 7.634,19.633 5.982,18.143 4.724 C 16.822 3.609,14.953 2.773,13.400 2.604 C 12.865 2.546,11.301 2.519,10.800 2.560 M12.166 4.915 C 12.854 5.352,13.521 6.616,13.898 8.200 C 14.002 8.635,14.253 10.076,14.300 10.506 L 14.327 10.752 13.908 10.780 C 13.452 10.811,9.739 10.793,9.706 10.759 C 9.694 10.748,9.711 10.514,9.743 10.239 C 9.899 8.895,10.234 7.438,10.551 6.727 C 10.906 5.933,11.104 5.620,11.523 5.192 C 11.734 4.976,11.924 4.800,11.945 4.800 C 11.967 4.800,12.066 4.852,12.166 4.915 M16.496 6.464 C 16.851 6.775,17.266 7.202,17.590 7.592 C 18.133 8.244,18.900 9.863,18.981 10.524 L 19.008 10.748 18.758 10.774 C 18.621 10.788,18.127 10.800,17.661 10.800 L 16.814 10.800 16.764 10.410 C 16.627 9.332,16.401 8.118,16.179 7.260 C 16.038 6.717,15.867 6.115,15.816 5.982 C 15.776 5.880,16.051 6.075,16.496 6.464 M7.825 7.183 C 7.569 8.305,7.496 8.676,7.300 9.859 C 7.220 10.343,7.146 10.748,7.134 10.759 C 7.101 10.792,5.337 10.812,5.135 10.781 L 4.952 10.754 4.980 10.607 C 5.027 10.351,5.242 9.720,5.444 9.242 C 5.902 8.159,6.652 7.171,7.640 6.350 C 7.992 6.057,8.021 6.041,8.032 6.130 C 8.039 6.182,7.945 6.656,7.825 7.183 M18.574 13.266 C 18.999 13.292,19.000 13.292,19.000 13.396 C 19.000 13.453,18.966 13.617,18.925 13.760 C 18.657 14.690,18.030 15.871,17.395 16.646 C 17.017 17.106,16.086 17.960,15.962 17.960 C 15.905 17.960,15.897 18.008,16.161 16.840 C 16.384 15.852,16.550 15.013,16.703 14.100 C 16.829 13.347,16.847 13.292,16.968 13.269 C 17.119 13.240,18.116 13.238,18.574 13.266 M7.134 13.361 C 7.164 13.394,7.261 13.860,7.354 14.420 C 7.446 14.970,7.629 15.906,7.760 16.500 C 7.892 17.094,8.011 17.678,8.026 17.797 L 8.053 18.015 7.936 17.931 C 7.702 17.762,7.012 17.111,6.728 16.790 C 6.185 16.175,5.763 15.484,5.365 14.557 C 5.123 13.992,4.942 13.424,4.976 13.336 C 4.999 13.277,5.106 13.272,6.040 13.286 C 6.889 13.299,7.089 13.313,7.134 13.361 M14.266 13.658 C 14.215 14.325,13.934 15.749,13.680 16.627 C 13.396 17.610,12.657 18.836,12.222 19.047 C 11.967 19.171,11.801 19.127,11.537 18.862 C 11.134 18.460,10.616 17.544,10.381 16.820 C 10.021 15.715,9.613 13.480,9.747 13.347 C 9.761 13.332,10.790 13.320,12.033 13.320 L 14.292 13.320 14.266 13.658 " fill="#373B4D" stroke="none" fill-rule="evenodd"></path></svg>