<svg width="24" height="24" viewBox="0 0 24 24" fill="none" xmlns="http://www.w3.org/2000/svg"><path d="M10.780 2.522 C 9.848 2.624,8.586 3.017,7.649 3.498 C 6.239 4.220,4.873 5.459,3.942 6.860 C 3.237 7.919,2.668 9.464,2.501 10.772 C 2.431 11.317,2.420 12.576,2.481 13.081 C 2.696 14.862,3.457 16.662,4.570 18.020 C 4.877 18.396,5.581 19.099,5.937 19.386 C 6.938 20.194,8.256 20.876,9.552 21.258 C 10.154 21.435,10.437 21.479,11.293 21.528 C 12.395 21.591,13.323 21.535,14.020 21.363 C 15.488 21.001,16.913 20.310,18.020 19.422 C 18.626 18.936,19.442 18.067,19.832 17.491 C 20.332 16.753,20.800 15.791,21.123 14.839 C 21.420 13.961,21.478 13.657,21.519 12.742 C 21.551 12.020,21.517 10.595,21.463 10.380 C 21.451 10.336,21.387 10.078,21.320 9.807 C 20.774 7.596,19.537 5.736,17.700 4.361 C 16.366 3.362,14.633 2.668,13.220 2.565 C 12.385 2.504,11.143 2.483,10.780 2.522 M12.202 4.914 C 12.403 5.042,12.683 5.331,12.866 5.600 C 13.243 6.151,13.644 7.094,13.859 7.934 C 14.001 8.487,14.254 9.928,14.301 10.444 L 14.328 10.747 13.814 10.773 C 13.151 10.807,11.471 10.807,10.462 10.774 L 9.672 10.747 9.698 10.484 C 9.821 9.266,10.161 7.642,10.444 6.930 C 10.708 6.264,11.077 5.612,11.370 5.293 C 11.572 5.073,11.907 4.800,11.976 4.800 C 12.002 4.800,12.104 4.851,12.202 4.914 M16.189 6.190 C 16.768 6.622,17.530 7.418,17.918 7.995 C 18.314 8.583,18.793 9.656,18.963 10.332 C 19.031 10.604,19.040 10.696,19.004 10.732 C 18.948 10.788,16.800 10.828,16.800 10.773 C 16.800 10.654,16.544 8.883,16.476 8.530 C 16.334 7.793,15.959 6.344,15.817 5.983 C 15.779 5.888,15.803 5.901,16.189 6.190 M8.100 6.091 C 8.091 6.118,7.966 6.626,7.823 7.220 C 7.532 8.429,7.453 8.843,7.301 9.940 C 7.243 10.358,7.177 10.718,7.156 10.740 C 7.109 10.788,5.576 10.819,5.208 10.780 L 4.956 10.753 4.983 10.567 C 5.019 10.318,5.239 9.659,5.459 9.144 C 5.673 8.644,5.953 8.162,6.290 7.712 C 6.842 6.975,8.218 5.743,8.100 6.091 M18.750 13.240 C 19.089 13.240,19.082 13.226,18.961 13.682 C 18.708 14.643,18.088 15.847,17.459 16.600 C 16.946 17.213,15.978 18.072,15.894 17.987 C 15.884 17.977,15.983 17.539,16.115 17.014 C 16.407 15.850,16.531 15.244,16.640 14.460 C 16.810 13.228,16.798 13.269,17.000 13.226 C 17.055 13.215,17.406 13.213,17.780 13.222 C 18.154 13.232,18.590 13.240,18.750 13.240 M7.107 13.306 C 7.203 13.329,7.220 13.402,7.343 14.360 C 7.427 15.011,7.548 15.621,7.817 16.745 C 8.058 17.753,8.106 18.000,8.059 18.000 C 7.976 18.000,7.527 17.613,7.016 17.103 C 6.571 16.658,6.384 16.436,6.125 16.042 C 5.617 15.272,5.234 14.436,5.020 13.631 C 4.908 13.208,4.866 13.223,6.040 13.256 C 6.579 13.272,7.059 13.294,7.107 13.306 M14.320 13.302 C 14.320 13.335,14.301 13.538,14.277 13.752 C 14.164 14.780,13.838 16.285,13.577 16.987 C 13.249 17.870,12.708 18.747,12.332 19.006 C 11.976 19.250,11.715 19.155,11.299 18.630 C 10.869 18.086,10.477 17.256,10.221 16.346 C 9.936 15.335,9.623 13.457,9.719 13.341 C 9.777 13.271,10.074 13.262,12.610 13.249 C 14.127 13.241,14.320 13.247,14.320 13.302 " fill="#373B4D" stroke="none" fill-rule="evenodd"></path></svg>