<svg width="24" height="24" viewBox="0 0 24 24" fill="none" xmlns="http://www.w3.org/2000/svg"><path d="M10.760 2.522 C 10.374 2.561,9.778 2.692,9.213 2.863 C 7.699 3.321,6.431 4.086,5.278 5.239 C 4.146 6.370,3.447 7.473,2.937 8.932 C 2.589 9.928,2.429 10.874,2.427 11.940 C 2.425 12.966,2.541 13.773,2.827 14.720 C 3.603 17.286,5.348 19.360,7.722 20.537 C 8.525 20.935,9.507 21.288,10.181 21.420 C 10.954 21.572,12.804 21.593,13.592 21.458 C 14.060 21.378,14.717 21.191,15.300 20.971 C 17.069 20.304,18.595 19.166,19.682 17.700 C 20.542 16.540,21.320 14.686,21.487 13.400 C 21.553 12.883,21.554 11.041,21.487 10.580 C 21.355 9.662,20.930 8.407,20.452 7.520 C 19.135 5.077,16.774 3.289,14.060 2.676 C 13.604 2.573,13.417 2.554,12.540 2.521 C 11.413 2.478,11.186 2.478,10.760 2.522 M12.167 4.884 C 12.776 5.194,13.495 6.496,13.880 7.982 C 14.010 8.484,14.264 9.949,14.304 10.428 L 14.330 10.747 13.695 10.773 C 12.885 10.807,11.870 10.807,10.643 10.774 L 9.673 10.747 9.699 10.464 C 9.800 9.377,10.124 7.788,10.396 7.051 C 10.659 6.338,11.081 5.575,11.387 5.256 C 11.587 5.048,11.903 4.800,11.968 4.800 C 11.987 4.800,12.077 4.838,12.167 4.884 M16.340 6.300 C 16.764 6.630,17.518 7.418,17.834 7.862 C 18.263 8.465,18.777 9.573,18.955 10.279 C 19.002 10.464,19.040 10.645,19.040 10.682 C 19.040 10.777,18.792 10.799,17.714 10.800 L 16.807 10.800 16.784 10.650 C 16.771 10.568,16.723 10.203,16.678 9.841 C 16.575 9.018,16.439 8.268,16.256 7.522 C 16.128 7.004,15.896 6.191,15.815 5.980 C 15.784 5.901,15.785 5.901,15.902 5.976 C 15.967 6.018,16.164 6.164,16.340 6.300 M8.101 6.090 C 8.090 6.140,7.963 6.656,7.820 7.237 C 7.538 8.379,7.456 8.811,7.299 9.978 C 7.243 10.395,7.187 10.746,7.175 10.758 C 7.141 10.792,5.575 10.809,5.246 10.779 L 4.952 10.752 4.980 10.566 C 5.041 10.152,5.450 9.061,5.731 8.560 C 6.084 7.930,6.528 7.357,7.066 6.837 C 7.435 6.479,8.018 6.000,8.083 6.000 C 8.104 6.000,8.112 6.040,8.101 6.090 M18.317 13.226 L 19.047 13.253 19.021 13.436 C 18.972 13.773,18.669 14.608,18.396 15.157 C 17.942 16.071,17.466 16.693,16.656 17.433 C 16.173 17.874,15.904 18.066,15.887 17.983 C 15.880 17.948,15.955 17.619,16.053 17.250 C 16.384 16.010,16.578 15.060,16.679 14.180 C 16.702 13.982,16.740 13.699,16.764 13.550 C 16.805 13.296,16.814 13.278,16.934 13.244 C 17.094 13.197,17.405 13.193,18.317 13.226 M7.182 13.328 C 7.209 13.357,7.261 13.659,7.298 14.000 C 7.384 14.796,7.514 15.496,7.764 16.520 C 8.069 17.765,8.118 18.000,8.070 18.000 C 7.953 18.000,7.127 17.279,6.707 16.810 C 5.971 15.988,5.305 14.747,5.040 13.704 C 4.905 13.172,4.790 13.223,6.047 13.252 C 6.856 13.271,7.146 13.290,7.182 13.328 M14.302 13.550 C 14.223 14.462,13.928 15.950,13.676 16.718 C 13.332 17.763,12.779 18.702,12.319 19.020 C 11.974 19.260,11.720 19.167,11.307 18.648 C 10.554 17.704,10.071 16.280,9.760 14.092 C 9.648 13.303,9.648 13.306,9.900 13.276 C 10.010 13.263,11.052 13.250,12.215 13.246 L 14.329 13.240 14.302 13.550 " fill="#373B4D" stroke="none" fill-rule="evenodd"></path></svg>