<svg width="24" height="24" viewBox="0 0 24 24" fill="none" xmlns="http://www.w3.org/2000/svg"><path d="M10.800 2.560 C 9.246 2.685,7.471 3.441,6.040 4.585 C 5.599 4.937,4.771 5.770,4.440 6.194 C 3.480 7.422,2.855 8.853,2.533 10.560 C 2.444 11.034,2.431 12.733,2.513 13.300 C 2.652 14.269,3.083 15.571,3.565 16.480 C 3.987 17.275,4.415 17.854,5.100 18.555 C 6.022 19.499,6.625 19.943,7.760 20.518 C 9.182 21.237,10.130 21.486,11.668 21.544 C 12.869 21.589,13.772 21.467,14.800 21.121 C 16.055 20.698,17.043 20.168,18.000 19.405 C 19.520 18.193,20.455 16.796,21.163 14.680 C 21.468 13.769,21.494 13.558,21.497 12.000 C 21.500 10.529,21.486 10.391,21.255 9.591 C 20.689 7.634,19.633 5.982,18.143 4.724 C 16.822 3.609,14.953 2.773,13.400 2.604 C 12.865 2.546,11.301 2.519,10.800 2.560 M7.745 6.665 C 8.075 6.887,8.152 6.921,9.000 7.218 C 9.802 7.499,9.974 7.583,10.195 7.805 C 10.508 8.117,10.602 8.376,10.819 9.520 C 11.013 10.538,11.204 10.927,11.721 11.357 C 12.465 11.977,13.372 12.100,14.224 11.696 C 14.480 11.575,15.090 11.015,15.200 10.801 C 15.240 10.721,15.393 10.279,15.540 9.818 C 15.943 8.550,16.075 8.251,16.361 7.965 C 16.590 7.736,17.195 7.360,17.335 7.360 C 17.424 7.360,17.737 7.731,17.959 8.099 C 18.221 8.532,18.693 9.511,18.799 9.840 C 18.845 9.983,18.908 10.262,18.940 10.460 C 19.032 11.042,19.148 12.850,19.102 12.993 C 19.067 13.104,18.933 13.142,18.160 13.260 C 17.131 13.417,16.956 13.484,16.461 13.904 C 15.795 14.469,15.701 14.767,15.581 16.706 C 15.500 18.028,15.470 18.237,15.351 18.328 C 14.985 18.610,12.882 19.199,12.235 19.200 L 12.011 19.200 11.988 17.970 C 11.975 17.294,11.945 16.605,11.920 16.440 C 11.850 15.970,11.699 15.692,11.291 15.285 C 10.843 14.836,10.529 14.677,9.540 14.396 C 8.579 14.123,8.324 13.999,7.987 13.641 C 7.600 13.231,7.475 12.950,7.120 11.680 C 6.858 10.748,6.695 10.526,5.853 9.957 C 5.410 9.657,5.320 9.580,5.320 9.498 C 5.320 9.371,5.756 8.521,6.052 8.073 C 6.178 7.882,6.391 7.594,6.524 7.433 C 6.823 7.072,7.390 6.480,7.436 6.480 C 7.454 6.480,7.593 6.563,7.745 6.665 " fill="#373B4D" stroke="none" fill-rule="evenodd"></path></svg>