<svg width="24" height="24" viewBox="0 0 24 24" fill="none" xmlns="http://www.w3.org/2000/svg"><path d="M11.000 2.463 C 8.701 2.737,6.759 3.671,5.175 5.265 C 2.751 7.704,1.820 11.347,2.781 14.634 C 3.551 17.270,5.288 19.358,7.732 20.586 C 8.548 20.996,9.533 21.315,10.507 21.484 C 10.943 21.559,11.167 21.573,12.000 21.573 C 12.833 21.573,13.057 21.559,13.493 21.484 C 16.681 20.930,19.280 18.988,20.644 16.140 C 20.953 15.495,21.137 14.984,21.320 14.263 C 21.528 13.445,21.573 13.025,21.570 11.920 C 21.567 11.152,21.552 10.892,21.483 10.500 C 21.304 9.479,21.026 8.628,20.573 7.714 C 19.332 5.208,17.068 3.393,14.321 2.701 C 13.686 2.541,13.242 2.480,12.412 2.440 C 11.490 2.395,11.587 2.393,11.000 2.463 M8.198 6.995 C 8.422 7.114,8.638 7.165,9.212 7.234 C 10.003 7.328,10.629 7.931,10.757 8.721 C 10.780 8.863,10.800 9.154,10.800 9.366 C 10.800 10.306,11.058 10.894,11.714 11.452 C 12.103 11.783,12.696 12.000,13.211 12.000 C 13.468 12.000,13.971 11.878,14.263 11.744 C 14.503 11.634,15.054 11.128,15.240 10.847 C 15.418 10.579,15.559 10.089,15.603 9.586 C 15.691 8.583,16.121 7.898,16.926 7.479 C 17.389 7.238,17.424 7.247,17.755 7.690 C 18.786 9.071,19.287 10.798,19.161 12.543 C 19.139 12.850,19.121 13.120,19.120 13.144 C 19.120 13.175,18.874 13.196,18.350 13.212 C 17.532 13.236,17.338 13.270,16.953 13.459 C 16.534 13.664,16.061 14.123,15.860 14.519 C 15.636 14.962,15.629 15.026,15.603 16.696 L 15.580 18.251 15.200 18.444 C 14.455 18.823,13.311 19.128,12.433 19.184 L 12.006 19.211 11.991 17.776 C 11.976 16.408,11.971 16.328,11.884 16.080 C 11.720 15.609,11.471 15.263,11.059 14.932 C 10.657 14.610,10.079 14.402,9.576 14.401 C 9.306 14.400,8.798 14.268,8.496 14.120 C 8.211 13.981,7.784 13.582,7.581 13.264 C 7.370 12.934,7.245 12.515,7.202 11.989 C 7.161 11.486,7.061 11.132,6.872 10.820 C 6.552 10.294,6.111 9.936,5.540 9.738 C 5.364 9.676,5.215 9.623,5.209 9.619 C 5.193 9.608,5.447 9.023,5.599 8.720 C 5.932 8.057,6.553 7.237,7.112 6.722 L 7.455 6.407 7.715 6.642 C 7.859 6.772,8.076 6.930,8.198 6.995 " fill="#373B4D" stroke="none" fill-rule="evenodd"></path></svg>