<svg width="24" height="24" viewBox="0 0 24 24" fill="none" xmlns="http://www.w3.org/2000/svg"><path d="M10.660 2.601 C 9.835 2.654,8.901 2.934,7.932 3.419 C 6.915 3.928,6.190 4.422,5.524 5.059 C 4.210 6.315,3.506 7.395,2.955 8.996 C 2.612 9.992,2.499 10.606,2.456 11.693 C 2.402 13.057,2.604 14.186,3.137 15.514 C 3.660 16.813,4.230 17.672,5.239 18.681 C 6.113 19.556,6.684 19.967,7.781 20.513 C 8.654 20.948,9.091 21.124,9.682 21.279 C 10.454 21.481,11.004 21.530,12.289 21.509 C 13.385 21.492,13.435 21.487,13.920 21.369 C 16.834 20.654,19.188 18.870,20.433 16.434 C 20.676 15.959,21.082 14.964,21.239 14.460 C 21.392 13.967,21.438 13.640,21.487 12.712 C 21.590 10.728,21.434 9.797,20.732 8.201 C 19.765 6.002,18.098 4.338,15.838 3.317 C 14.934 2.909,14.057 2.676,13.140 2.601 C 12.607 2.557,11.338 2.557,10.660 2.601 M7.735 6.660 C 7.886 6.757,8.228 6.921,8.495 7.024 C 9.593 7.446,9.789 7.530,9.987 7.660 C 10.360 7.907,10.531 8.222,10.700 8.980 C 11.039 10.502,11.149 10.790,11.537 11.178 C 11.822 11.464,12.155 11.676,12.520 11.805 C 12.895 11.937,13.548 11.938,13.930 11.806 C 14.340 11.665,15.006 11.142,15.160 10.840 C 15.200 10.761,15.371 10.293,15.540 9.799 C 15.709 9.304,15.935 8.717,16.042 8.494 C 16.264 8.032,16.424 7.866,16.962 7.541 C 17.261 7.361,17.289 7.351,17.385 7.402 C 17.578 7.506,17.949 8.067,18.336 8.841 C 18.742 9.653,18.809 9.831,18.899 10.344 C 19.008 10.965,19.149 12.807,19.099 12.964 C 19.061 13.082,18.893 13.140,18.300 13.239 C 17.186 13.425,16.940 13.516,16.454 13.921 C 15.827 14.444,15.713 14.804,15.580 16.660 C 15.503 17.739,15.451 18.154,15.380 18.264 C 15.350 18.311,15.239 18.390,15.133 18.440 C 14.474 18.751,12.743 19.199,12.196 19.200 L 12.012 19.200 11.987 18.010 C 11.961 16.725,11.923 16.337,11.793 16.008 C 11.618 15.565,11.096 15.038,10.577 14.781 C 10.422 14.703,10.008 14.549,9.657 14.437 C 8.465 14.056,8.410 14.029,8.007 13.631 C 7.678 13.305,7.524 12.984,7.178 11.900 C 7.031 11.438,6.875 10.989,6.831 10.903 C 6.710 10.664,6.383 10.341,5.951 10.032 C 5.408 9.644,5.307 9.544,5.342 9.431 C 5.442 9.110,5.986 8.158,6.338 7.688 C 6.614 7.320,7.377 6.479,7.434 6.481 C 7.448 6.481,7.584 6.562,7.735 6.660 " fill="#373B4D" stroke="none" fill-rule="evenodd"></path></svg>