<svg width="24" height="24" viewBox="0 0 24 24" fill="none" xmlns="http://www.w3.org/2000/svg"><path d="M10.660 2.601 C 9.835 2.654,8.901 2.934,7.932 3.419 C 6.915 3.928,6.190 4.422,5.524 5.059 C 4.210 6.315,3.506 7.395,2.955 8.996 C 2.612 9.992,2.499 10.606,2.456 11.693 C 2.402 13.057,2.604 14.186,3.137 15.514 C 3.660 16.813,4.230 17.672,5.239 18.681 C 6.113 19.556,6.684 19.967,7.781 20.513 C 8.654 20.948,9.091 21.124,9.682 21.279 C 10.454 21.481,11.004 21.530,12.289 21.509 C 13.385 21.492,13.435 21.487,13.920 21.369 C 16.834 20.654,19.188 18.870,20.433 16.434 C 20.676 15.959,21.082 14.964,21.239 14.460 C 21.392 13.967,21.438 13.640,21.487 12.712 C 21.590 10.728,21.434 9.797,20.732 8.201 C 19.765 6.002,18.098 4.338,15.838 3.317 C 14.934 2.909,14.057 2.676,13.140 2.601 C 12.607 2.557,11.338 2.557,10.660 2.601 M12.187 4.947 C 12.905 5.423,13.609 6.851,13.957 8.536 C 14.065 9.059,14.243 10.131,14.295 10.566 L 14.317 10.752 13.709 10.779 C 12.941 10.814,9.777 10.790,9.736 10.749 C 9.697 10.711,9.775 9.956,9.882 9.335 C 10.001 8.639,10.227 7.678,10.380 7.216 C 10.551 6.700,10.919 5.957,11.164 5.632 C 11.383 5.343,11.885 4.800,11.934 4.800 C 11.952 4.800,12.066 4.866,12.187 4.947 M16.592 6.562 C 17.200 7.102,17.705 7.701,18.041 8.280 C 18.292 8.711,18.693 9.569,18.813 9.929 C 18.929 10.276,19.018 10.715,18.980 10.753 C 18.966 10.767,18.472 10.785,17.883 10.794 L 16.810 10.809 16.782 10.535 C 16.690 9.647,16.322 7.780,16.021 6.680 C 15.922 6.317,15.840 6.005,15.840 5.988 C 15.840 5.935,16.176 6.192,16.592 6.562 M7.979 6.390 C 7.950 6.538,7.845 7.048,7.745 7.522 C 7.645 7.996,7.481 8.833,7.381 9.382 C 7.281 9.931,7.180 10.464,7.157 10.566 L 7.114 10.752 6.458 10.781 C 6.097 10.797,5.611 10.797,5.378 10.781 L 4.955 10.752 4.980 10.626 C 5.064 10.206,5.487 9.112,5.747 8.643 C 5.987 8.209,6.415 7.603,6.760 7.209 C 7.093 6.828,7.945 6.066,8.000 6.100 C 8.017 6.111,8.007 6.241,7.979 6.390 M7.111 13.376 C 7.139 13.403,7.234 13.811,7.321 14.282 C 7.409 14.754,7.607 15.767,7.763 16.534 C 7.919 17.300,8.036 17.937,8.024 17.949 C 7.965 18.008,7.085 17.189,6.657 16.676 C 6.100 16.009,5.595 15.133,5.222 14.185 C 5.119 13.924,5.025 13.624,5.012 13.518 C 4.990 13.331,4.993 13.326,5.105 13.307 C 5.344 13.268,7.059 13.327,7.111 13.376 M18.982 13.328 C 19.031 13.378,18.888 13.905,18.699 14.369 C 18.328 15.283,17.710 16.298,17.174 16.876 C 16.848 17.228,16.167 17.852,16.029 17.926 C 15.952 17.967,15.950 17.960,15.975 17.768 C 15.990 17.658,16.101 17.113,16.223 16.558 C 16.344 16.003,16.526 15.097,16.626 14.544 C 16.726 13.992,16.832 13.481,16.863 13.408 L 16.918 13.276 17.936 13.288 C 18.495 13.295,18.966 13.313,18.982 13.328 M14.280 13.418 C 14.280 13.957,13.879 15.990,13.613 16.794 C 13.475 17.213,13.092 17.996,12.844 18.366 C 12.607 18.720,12.253 19.062,12.084 19.099 C 11.730 19.177,11.227 18.617,10.718 17.580 C 10.589 17.316,10.435 16.956,10.377 16.780 C 10.137 16.055,9.763 14.203,9.748 13.669 L 9.740 13.380 10.180 13.358 C 10.422 13.346,11.443 13.332,12.450 13.328 L 14.280 13.320 14.280 13.418 " fill="#373B4D" stroke="none" fill-rule="evenodd"></path></svg>