<svg width="24" height="24" viewBox="0 0 24 24" fill="none" xmlns="http://www.w3.org/2000/svg"><path d="M10.800 2.602 C 9.953 2.652,9.188 2.852,8.279 3.261 C 6.771 3.938,5.535 4.887,4.488 6.170 C 3.517 7.359,2.767 9.091,2.533 10.680 C 2.428 11.395,2.439 12.868,2.554 13.500 C 2.856 15.155,3.599 16.799,4.565 17.948 C 4.922 18.373,5.698 19.144,6.080 19.452 C 6.934 20.141,8.561 20.975,9.600 21.255 C 10.436 21.481,10.632 21.500,12.100 21.497 L 13.460 21.494 14.014 21.346 C 15.888 20.845,17.402 20.015,18.653 18.802 C 19.696 17.790,20.318 16.838,20.913 15.340 C 21.339 14.268,21.411 13.950,21.483 12.820 C 21.537 11.953,21.512 10.911,21.423 10.380 C 21.183 8.955,20.388 7.240,19.397 6.013 C 18.128 4.440,15.991 3.130,14.061 2.740 C 13.262 2.578,12.060 2.527,10.800 2.602 M7.580 6.562 C 7.812 6.721,8.263 6.932,8.906 7.183 C 9.264 7.323,9.665 7.492,9.799 7.560 C 10.277 7.801,10.483 8.113,10.665 8.869 C 11.029 10.380,11.154 10.746,11.405 11.032 C 11.800 11.482,12.373 11.810,12.895 11.886 C 13.510 11.975,14.058 11.825,14.589 11.423 C 15.106 11.032,15.098 11.047,15.662 9.460 C 15.931 8.702,16.199 8.159,16.406 7.952 C 16.608 7.750,17.165 7.400,17.284 7.400 C 17.329 7.400,17.399 7.418,17.441 7.440 C 17.564 7.506,18.026 8.236,18.343 8.864 C 18.681 9.534,18.781 9.787,18.860 10.158 C 18.972 10.692,19.146 12.742,19.096 12.941 C 19.064 13.070,18.871 13.139,18.192 13.261 C 17.160 13.447,16.981 13.514,16.496 13.893 C 15.859 14.391,15.724 14.794,15.581 16.620 C 15.504 17.617,15.450 18.068,15.394 18.211 C 15.361 18.293,15.274 18.358,15.065 18.457 C 14.425 18.761,12.731 19.200,12.196 19.200 L 12.000 19.200 11.999 18.510 C 11.998 17.553,11.934 16.506,11.859 16.220 C 11.768 15.875,11.631 15.663,11.264 15.299 C 10.846 14.886,10.606 14.762,9.478 14.380 C 8.984 14.212,8.495 14.020,8.391 13.954 C 8.118 13.779,7.778 13.394,7.619 13.079 C 7.544 12.928,7.339 12.380,7.164 11.859 C 6.981 11.313,6.799 10.846,6.735 10.753 C 6.613 10.577,6.271 10.268,5.900 9.999 C 5.522 9.725,5.360 9.557,5.361 9.442 C 5.363 9.239,6.043 8.061,6.459 7.540 C 6.723 7.209,7.394 6.480,7.433 6.480 C 7.448 6.480,7.514 6.517,7.580 6.562 " fill="#373B4D" stroke="none" fill-rule="evenodd"></path></svg>