<svg width="24" height="24" viewBox="0 0 24 24" fill="none" xmlns="http://www.w3.org/2000/svg"><path d="M10.680 2.562 C 9.847 2.629,8.634 3.012,7.629 3.528 C 6.202 4.260,4.700 5.649,3.844 7.030 C 3.150 8.149,2.629 9.657,2.483 10.968 C 2.393 11.782,2.448 13.117,2.601 13.808 C 2.934 15.313,3.521 16.620,4.374 17.760 C 4.745 18.256,5.679 19.189,6.160 19.545 C 7.337 20.416,8.933 21.157,10.160 21.403 C 10.776 21.526,11.996 21.584,12.790 21.528 C 13.767 21.459,14.413 21.305,15.429 20.897 C 17.178 20.195,18.614 19.108,19.703 17.660 C 20.334 16.821,21.026 15.314,21.362 14.047 C 21.467 13.651,21.517 12.929,21.518 11.780 C 21.520 10.756,21.475 10.352,21.285 9.680 C 20.787 7.921,19.954 6.474,18.748 5.274 C 17.986 4.515,17.233 3.978,16.240 3.485 C 15.354 3.044,14.574 2.780,13.756 2.644 C 13.093 2.533,11.552 2.492,10.680 2.562 M7.743 6.665 C 8.042 6.877,8.221 6.955,8.976 7.206 C 9.745 7.461,9.977 7.573,10.202 7.799 C 10.502 8.098,10.620 8.395,10.760 9.200 C 10.971 10.408,11.078 10.701,11.463 11.117 C 12.122 11.829,13.007 12.099,13.840 11.844 C 14.004 11.793,14.202 11.719,14.280 11.679 C 14.478 11.576,14.864 11.239,15.066 10.992 C 15.246 10.774,15.237 10.797,15.721 9.241 C 15.928 8.574,16.110 8.206,16.353 7.964 C 16.575 7.742,17.191 7.360,17.327 7.360 C 17.511 7.360,17.974 8.023,18.401 8.900 C 18.923 9.970,18.993 10.297,19.087 12.091 C 19.136 13.008,19.136 13.011,19.051 13.079 C 18.992 13.127,18.766 13.175,18.313 13.236 C 17.164 13.392,16.965 13.463,16.465 13.899 C 15.765 14.510,15.700 14.716,15.581 16.720 C 15.490 18.248,15.493 18.226,15.345 18.335 C 14.934 18.637,12.898 19.200,12.218 19.200 L 12.000 19.200 11.999 18.330 C 11.999 17.269,11.944 16.414,11.857 16.120 C 11.765 15.804,11.603 15.573,11.215 15.200 C 10.789 14.791,10.543 14.672,9.573 14.403 C 8.476 14.099,8.374 14.050,7.981 13.645 C 7.588 13.240,7.482 12.996,7.102 11.620 C 6.851 10.712,6.700 10.504,5.926 10.001 C 5.315 9.603,5.320 9.607,5.320 9.497 C 5.320 9.277,5.972 8.111,6.371 7.618 C 6.834 7.045,7.405 6.438,7.453 6.467 C 7.479 6.482,7.609 6.571,7.743 6.665 " fill="#373B4D" stroke="none" fill-rule="evenodd"></path></svg>