<svg width="24" height="24" viewBox="0 0 24 24" fill="none" xmlns="http://www.w3.org/2000/svg"><path d="M10.289 2.625 C 9.884 2.688,9.108 2.900,8.687 3.064 C 7.846 3.390,6.714 4.042,6.040 4.589 C 5.622 4.928,4.580 5.998,4.311 6.365 C 3.488 7.486,2.931 8.746,2.599 10.240 C 2.430 11.002,2.402 12.647,2.544 13.480 C 2.754 14.707,3.342 16.217,3.993 17.200 C 4.677 18.233,5.842 19.378,6.866 20.023 C 7.315 20.306,8.462 20.870,8.970 21.057 C 9.925 21.410,10.747 21.536,12.080 21.534 C 12.901 21.533,13.134 21.519,13.520 21.448 C 15.715 21.046,17.863 19.828,19.258 18.196 C 20.031 17.291,20.567 16.333,21.060 14.972 C 21.389 14.066,21.440 13.808,21.485 12.820 C 21.527 11.881,21.505 10.799,21.433 10.340 C 21.294 9.444,20.679 7.897,20.099 6.980 C 19.148 5.480,17.896 4.341,16.320 3.543 C 15.235 2.994,14.306 2.706,13.286 2.602 C 12.677 2.540,10.743 2.555,10.289 2.625 M12.163 4.922 C 12.916 5.405,13.631 6.860,13.980 8.616 C 14.160 9.526,14.340 10.713,14.303 10.750 C 14.264 10.789,10.479 10.815,10.044 10.779 L 9.709 10.752 9.733 10.406 C 9.789 9.618,10.125 7.947,10.382 7.180 C 10.530 6.740,10.839 6.093,11.061 5.758 C 11.236 5.496,11.876 4.800,11.943 4.800 C 11.959 4.800,12.058 4.855,12.163 4.922 M16.167 6.193 C 16.831 6.720,17.502 7.429,17.869 7.989 C 18.138 8.401,18.586 9.299,18.773 9.801 C 18.919 10.193,19.030 10.703,18.981 10.752 C 18.966 10.767,18.473 10.786,17.886 10.794 L 16.819 10.807 16.727 10.134 C 16.552 8.858,16.253 7.442,15.927 6.350 C 15.863 6.135,15.825 5.960,15.843 5.960 C 15.860 5.960,16.006 6.065,16.167 6.193 M8.018 6.230 C 8.004 6.313,7.887 6.866,7.758 7.460 C 7.629 8.054,7.440 9.026,7.338 9.620 C 7.236 10.214,7.135 10.718,7.114 10.740 C 7.070 10.787,5.023 10.797,4.977 10.750 C 4.900 10.674,5.315 9.487,5.651 8.818 C 5.998 8.129,6.582 7.339,7.147 6.795 C 7.441 6.512,7.961 6.080,8.008 6.080 C 8.028 6.080,8.032 6.147,8.018 6.230 M18.938 13.305 C 18.996 13.327,19.004 13.361,18.982 13.494 C 18.871 14.193,18.166 15.631,17.519 16.480 C 17.129 16.992,16.015 18.029,15.938 17.951 C 15.927 17.940,16.025 17.447,16.156 16.856 C 16.430 15.618,16.512 15.210,16.680 14.240 C 16.839 13.326,16.852 13.290,17.012 13.266 C 17.193 13.239,18.854 13.273,18.938 13.305 M7.086 13.339 C 7.160 13.369,7.148 13.321,7.364 14.500 C 7.452 14.984,7.641 15.937,7.784 16.618 C 7.927 17.299,8.038 17.890,8.032 17.932 C 8.022 17.994,7.966 17.961,7.720 17.750 C 6.570 16.762,5.822 15.706,5.246 14.256 C 5.023 13.695,4.938 13.359,5.007 13.311 C 5.065 13.271,6.977 13.297,7.086 13.339 M14.262 13.650 C 14.194 14.447,13.868 16.034,13.615 16.800 C 13.450 17.296,13.133 17.946,12.849 18.366 C 12.448 18.961,12.117 19.195,11.839 19.080 C 11.403 18.899,10.676 17.736,10.346 16.689 C 10.090 15.878,9.721 14.005,9.720 13.513 C 9.720 13.376,9.730 13.364,9.850 13.349 C 9.921 13.340,10.950 13.330,12.135 13.326 L 14.290 13.320 14.262 13.650 " fill="#373B4D" stroke="none" fill-rule="evenodd"></path></svg>