<svg width="24" height="24" viewBox="0 0 24 24" fill="none" xmlns="http://www.w3.org/2000/svg"><path d="M10.760 2.522 C 10.374 2.561,9.778 2.692,9.213 2.863 C 7.699 3.321,6.431 4.086,5.278 5.239 C 4.146 6.370,3.447 7.473,2.937 8.932 C 2.589 9.928,2.429 10.874,2.427 11.940 C 2.425 12.966,2.541 13.773,2.827 14.720 C 3.603 17.286,5.348 19.360,7.722 20.537 C 8.525 20.935,9.507 21.288,10.181 21.420 C 10.954 21.572,12.804 21.593,13.592 21.458 C 14.060 21.378,14.717 21.191,15.300 20.971 C 17.069 20.304,18.595 19.166,19.682 17.700 C 20.542 16.540,21.320 14.686,21.487 13.400 C 21.553 12.883,21.554 11.041,21.487 10.580 C 21.355 9.662,20.930 8.407,20.452 7.520 C 19.135 5.077,16.774 3.289,14.060 2.676 C 13.604 2.573,13.417 2.554,12.540 2.521 C 11.413 2.478,11.186 2.478,10.760 2.522 M7.760 6.681 C 8.047 6.904,8.356 7.041,8.920 7.196 C 9.239 7.284,9.577 7.383,9.672 7.417 C 9.924 7.506,10.170 7.698,10.361 7.954 C 10.655 8.348,10.679 8.432,10.821 9.552 C 10.938 10.481,11.152 10.920,11.717 11.387 C 12.237 11.817,12.749 11.989,13.380 11.946 C 13.954 11.906,14.478 11.657,14.897 11.223 C 15.257 10.851,15.343 10.659,15.581 9.698 C 15.812 8.766,15.962 8.387,16.219 8.080 C 16.419 7.842,16.714 7.623,17.074 7.445 L 17.369 7.300 17.564 7.517 C 18.101 8.115,18.666 9.235,18.941 10.247 C 19.032 10.583,19.047 10.744,19.089 11.851 C 19.117 12.610,19.120 13.095,19.097 13.117 C 19.077 13.137,18.694 13.191,18.246 13.237 C 17.410 13.324,17.145 13.387,16.859 13.568 C 16.407 13.854,15.928 14.369,15.801 14.706 C 15.684 15.018,15.641 15.455,15.586 16.887 C 15.547 17.876,15.522 18.210,15.480 18.260 C 15.229 18.563,13.015 19.199,12.210 19.200 L 12.000 19.200 11.998 18.290 C 11.994 17.024,11.947 16.264,11.858 16.040 C 11.741 15.746,11.550 15.478,11.236 15.167 C 10.812 14.748,10.505 14.608,9.560 14.400 C 8.608 14.191,8.416 14.102,7.988 13.671 C 7.587 13.268,7.442 12.993,7.296 12.355 C 7.001 11.072,6.887 10.774,6.568 10.454 C 6.369 10.254,5.904 9.938,5.489 9.720 C 5.200 9.568,5.202 9.597,5.449 9.102 C 5.942 8.119,6.184 7.768,6.924 6.962 L 7.408 6.436 7.514 6.504 C 7.572 6.542,7.683 6.621,7.760 6.681 " fill="#373B4D" stroke="none" fill-rule="evenodd"></path></svg>