<svg width="24" height="24" viewBox="0 0 24 24" fill="none" xmlns="http://www.w3.org/2000/svg"><path d="M10.460 2.556 C 8.397 2.940,6.796 3.749,5.385 5.120 C 4.496 5.984,3.882 6.821,3.377 7.860 C 2.066 10.554,2.096 13.601,3.462 16.323 C 4.177 17.749,5.334 19.053,6.680 19.949 C 7.607 20.566,8.758 21.065,9.980 21.380 C 10.692 21.563,12.698 21.607,13.602 21.459 C 14.327 21.340,15.373 20.991,16.183 20.597 C 17.678 19.870,19.020 18.714,19.908 17.388 C 20.322 16.768,20.870 15.645,21.111 14.919 C 21.413 14.007,21.475 13.692,21.529 12.787 C 21.595 11.660,21.531 10.569,21.360 9.900 C 21.053 8.702,20.624 7.713,19.996 6.757 C 18.554 4.560,16.139 2.990,13.567 2.575 C 13.303 2.532,12.811 2.507,12.020 2.497 C 11.015 2.484,10.807 2.492,10.460 2.556 M7.731 6.657 C 8.146 6.969,8.350 7.058,9.022 7.222 C 9.351 7.303,9.708 7.414,9.817 7.468 C 10.113 7.619,10.420 7.949,10.579 8.289 C 10.701 8.550,10.722 8.647,10.781 9.238 C 10.856 9.984,10.949 10.395,11.107 10.686 C 11.356 11.144,11.972 11.671,12.460 11.845 C 12.789 11.962,13.370 11.989,13.733 11.904 C 14.485 11.727,15.166 11.124,15.397 10.430 C 15.444 10.288,15.544 9.882,15.618 9.529 C 15.858 8.393,16.216 7.866,17.028 7.457 C 17.178 7.382,17.321 7.320,17.346 7.320 C 17.419 7.320,17.752 7.708,17.988 8.069 C 18.420 8.729,18.867 9.799,19.016 10.532 C 19.054 10.720,19.085 11.227,19.103 11.990 C 19.131 13.122,19.129 13.160,19.056 13.160 C 18.890 13.160,17.685 13.284,17.460 13.324 C 17.085 13.391,16.711 13.611,16.316 14.000 C 15.953 14.356,15.805 14.591,15.725 14.940 C 15.663 15.211,15.609 16.029,15.580 17.160 C 15.566 17.677,15.546 18.142,15.536 18.193 C 15.475 18.491,13.127 19.199,12.195 19.200 L 12.010 19.200 11.988 17.810 C 11.975 16.979,11.948 16.348,11.921 16.240 C 11.825 15.863,11.634 15.552,11.281 15.200 C 10.811 14.732,10.523 14.593,9.650 14.417 C 8.598 14.205,8.473 14.151,8.008 13.703 C 7.561 13.274,7.402 12.948,7.240 12.133 C 7.049 11.168,6.887 10.763,6.560 10.436 C 6.340 10.216,5.956 9.958,5.530 9.745 C 5.370 9.665,5.240 9.580,5.240 9.557 C 5.240 9.489,5.821 8.362,5.991 8.100 C 6.077 7.968,6.241 7.743,6.356 7.600 C 6.574 7.329,7.393 6.440,7.424 6.440 C 7.434 6.440,7.572 6.538,7.731 6.657 " fill="#373B4D" stroke="none" fill-rule="evenodd"></path></svg>