<svg width="24" height="24" viewBox="0 0 24 24" fill="none" xmlns="http://www.w3.org/2000/svg"><path d="M11.000 2.463 C 8.701 2.737,6.759 3.671,5.175 5.265 C 2.751 7.704,1.820 11.347,2.781 14.634 C 3.551 17.270,5.288 19.358,7.732 20.586 C 8.548 20.996,9.533 21.315,10.507 21.484 C 10.943 21.559,11.167 21.573,12.000 21.573 C 12.833 21.573,13.057 21.559,13.493 21.484 C 16.681 20.930,19.280 18.988,20.644 16.140 C 20.953 15.495,21.137 14.984,21.320 14.263 C 21.528 13.445,21.573 13.025,21.570 11.920 C 21.567 11.152,21.552 10.892,21.483 10.500 C 21.304 9.479,21.026 8.628,20.573 7.714 C 19.332 5.208,17.068 3.393,14.321 2.701 C 13.686 2.541,13.242 2.480,12.412 2.440 C 11.490 2.395,11.587 2.393,11.000 2.463 M12.180 4.858 C 12.792 5.113,13.525 6.436,13.921 8.000 C 14.093 8.677,14.360 10.350,14.360 10.750 C 14.360 10.789,13.861 10.800,12.000 10.800 C 10.139 10.800,9.640 10.789,9.640 10.750 C 9.640 10.590,9.777 9.536,9.862 9.046 C 10.211 7.018,10.931 5.416,11.718 4.914 C 11.920 4.785,11.986 4.777,12.180 4.858 M8.047 6.407 C 7.640 7.663,7.388 8.910,7.273 10.250 L 7.225 10.800 6.123 10.799 C 5.516 10.799,4.995 10.783,4.964 10.763 C 4.916 10.733,4.918 10.684,4.978 10.434 C 5.395 8.699,6.347 7.241,7.741 6.206 C 7.981 6.029,8.183 5.890,8.192 5.898 C 8.200 5.906,8.135 6.135,8.047 6.407 M16.667 6.534 C 17.807 7.486,18.648 8.879,19.020 10.434 C 19.080 10.683,19.082 10.734,19.035 10.764 C 19.005 10.783,18.484 10.799,17.877 10.799 L 16.775 10.800 16.727 10.250 C 16.611 8.900,16.322 7.486,15.921 6.302 C 15.854 6.106,15.800 5.929,15.800 5.910 C 15.800 5.859,16.225 6.165,16.667 6.534 M7.273 13.750 C 7.388 15.090,7.640 16.337,8.047 17.593 C 8.135 17.865,8.200 18.094,8.191 18.102 C 8.167 18.126,7.460 17.585,7.130 17.290 C 6.110 16.377,5.329 15.024,4.980 13.566 C 4.920 13.317,4.918 13.266,4.965 13.236 C 4.995 13.217,5.516 13.201,6.123 13.201 L 7.225 13.200 7.273 13.750 M14.340 13.470 C 14.089 15.998,13.459 17.915,12.572 18.845 C 12.436 18.988,12.283 19.103,12.175 19.144 C 12.011 19.207,11.989 19.207,11.825 19.144 C 11.717 19.103,11.564 18.988,11.428 18.845 C 10.541 17.915,9.911 15.998,9.660 13.470 L 9.634 13.200 12.000 13.200 L 14.366 13.200 14.340 13.470 M19.035 13.236 C 19.082 13.266,19.080 13.317,19.020 13.566 C 18.644 15.135,17.808 16.516,16.637 17.499 C 16.244 17.828,15.800 18.141,15.800 18.089 C 15.800 18.070,15.854 17.894,15.921 17.698 C 16.322 16.514,16.611 15.100,16.727 13.750 L 16.775 13.200 17.877 13.201 C 18.484 13.201,19.005 13.217,19.035 13.236 " fill="#373B4D" stroke="none" fill-rule="evenodd"></path></svg>