<svg width="24" height="24" viewBox="0 0 24 24" fill="none" xmlns="http://www.w3.org/2000/svg"><path d="M10.460 2.556 C 8.397 2.940,6.796 3.749,5.385 5.120 C 4.496 5.984,3.882 6.821,3.377 7.860 C 2.066 10.554,2.096 13.601,3.462 16.323 C 4.177 17.749,5.334 19.053,6.680 19.949 C 7.607 20.566,8.758 21.065,9.980 21.380 C 10.692 21.563,12.698 21.607,13.602 21.459 C 14.327 21.340,15.373 20.991,16.183 20.597 C 17.678 19.870,19.020 18.714,19.908 17.388 C 20.322 16.768,20.870 15.645,21.111 14.919 C 21.413 14.007,21.475 13.692,21.529 12.787 C 21.595 11.660,21.531 10.569,21.360 9.900 C 21.053 8.702,20.624 7.713,19.996 6.757 C 18.554 4.560,16.139 2.990,13.567 2.575 C 13.303 2.532,12.811 2.507,12.020 2.497 C 11.015 2.484,10.807 2.492,10.460 2.556 M12.163 4.882 C 12.413 5.009,12.622 5.221,12.882 5.609 C 13.429 6.428,13.823 7.485,14.056 8.760 C 14.202 9.562,14.367 10.726,14.338 10.755 C 14.302 10.791,9.733 10.786,9.696 10.749 C 9.653 10.706,9.779 9.603,9.901 8.960 C 10.036 8.250,10.248 7.442,10.426 6.965 C 10.637 6.394,11.023 5.673,11.278 5.369 C 11.480 5.128,11.878 4.800,11.968 4.800 C 11.988 4.800,12.075 4.837,12.163 4.882 M16.319 6.275 C 16.865 6.687,17.550 7.423,17.979 8.060 C 18.393 8.675,18.950 10.005,19.020 10.544 L 19.046 10.748 18.797 10.774 C 18.660 10.788,18.155 10.800,17.675 10.800 L 16.802 10.800 16.785 10.710 C 16.776 10.660,16.737 10.350,16.700 10.020 C 16.602 9.160,16.469 8.397,16.286 7.640 C 16.146 7.062,15.906 6.216,15.815 5.980 C 15.784 5.901,15.785 5.901,15.902 5.975 C 15.967 6.016,16.154 6.151,16.319 6.275 M7.884 6.988 C 7.573 8.164,7.466 8.706,7.326 9.810 C 7.263 10.305,7.199 10.730,7.183 10.755 C 7.152 10.805,5.641 10.820,5.202 10.774 L 4.953 10.748 4.979 10.564 C 5.042 10.118,5.392 9.183,5.729 8.560 C 6.194 7.701,6.865 6.929,7.780 6.202 C 8.018 6.014,8.103 5.965,8.113 6.012 C 8.119 6.047,8.017 6.486,7.884 6.988 M18.414 13.227 L 19.049 13.253 19.022 13.452 C 18.989 13.704,18.766 14.372,18.564 14.829 C 18.168 15.722,17.690 16.429,17.040 17.081 C 16.627 17.495,15.969 18.040,15.881 18.040 C 15.840 18.040,15.844 18.022,16.063 17.220 C 16.385 16.045,16.581 15.047,16.702 13.976 C 16.739 13.648,16.785 13.350,16.805 13.313 C 16.824 13.276,16.880 13.238,16.930 13.228 C 17.079 13.199,17.742 13.199,18.414 13.227 M6.940 13.275 L 7.219 13.300 7.288 13.918 C 7.396 14.907,7.509 15.501,7.827 16.771 C 7.991 17.427,8.119 17.982,8.111 18.006 C 8.088 18.077,7.448 17.570,6.995 17.121 C 6.157 16.289,5.569 15.322,5.146 14.079 C 5.068 13.849,4.992 13.566,4.977 13.450 L 4.950 13.240 5.805 13.245 C 6.275 13.248,6.786 13.261,6.940 13.275 M14.304 13.570 C 14.229 14.485,13.944 15.920,13.675 16.740 C 13.323 17.812,12.761 18.744,12.284 19.046 C 11.990 19.233,11.796 19.190,11.496 18.873 C 11.070 18.425,10.779 17.928,10.464 17.113 C 10.151 16.300,9.998 15.665,9.780 14.260 C 9.668 13.543,9.656 13.296,9.730 13.266 C 9.758 13.255,10.804 13.245,12.056 13.243 L 14.332 13.240 14.304 13.570 " fill="#373B4D" stroke="none" fill-rule="evenodd"></path></svg>