<svg width="24" height="24" viewBox="0 0 24 24" fill="none" xmlns="http://www.w3.org/2000/svg"><path d="M10.289 2.625 C 9.884 2.688,9.108 2.900,8.687 3.064 C 7.846 3.390,6.714 4.042,6.040 4.589 C 5.622 4.928,4.580 5.998,4.311 6.365 C 3.488 7.486,2.931 8.746,2.599 10.240 C 2.430 11.002,2.402 12.647,2.544 13.480 C 2.754 14.707,3.342 16.217,3.993 17.200 C 4.677 18.233,5.842 19.378,6.866 20.023 C 7.315 20.306,8.462 20.870,8.970 21.057 C 9.925 21.410,10.747 21.536,12.080 21.534 C 12.901 21.533,13.134 21.519,13.520 21.448 C 15.715 21.046,17.863 19.828,19.258 18.196 C 20.031 17.291,20.567 16.333,21.060 14.972 C 21.389 14.066,21.440 13.808,21.485 12.820 C 21.527 11.881,21.505 10.799,21.433 10.340 C 21.294 9.444,20.679 7.897,20.099 6.980 C 19.148 5.480,17.896 4.341,16.320 3.543 C 15.235 2.994,14.306 2.706,13.286 2.602 C 12.677 2.540,10.743 2.555,10.289 2.625 M7.640 6.602 C 7.950 6.813,8.274 6.961,8.917 7.189 C 10.365 7.701,10.482 7.839,10.800 9.418 C 11.056 10.694,11.279 11.087,12.017 11.567 C 12.665 11.989,13.570 12.034,14.236 11.679 C 14.490 11.543,15.034 11.063,15.154 10.869 C 15.198 10.798,15.388 10.274,15.578 9.705 C 15.976 8.504,16.121 8.200,16.431 7.916 C 16.657 7.710,17.213 7.360,17.315 7.360 C 17.399 7.360,17.665 7.654,17.882 7.987 C 18.095 8.314,18.591 9.300,18.737 9.689 C 18.921 10.176,19.025 10.969,19.101 12.460 C 19.126 12.936,19.121 12.986,19.054 13.045 C 18.969 13.119,18.748 13.173,18.180 13.259 C 17.193 13.409,16.928 13.511,16.440 13.929 C 15.804 14.474,15.707 14.785,15.580 16.680 C 15.497 17.931,15.460 18.193,15.353 18.308 C 15.121 18.555,13.120 19.139,12.330 19.190 L 12.000 19.211 11.999 18.476 C 11.997 17.312,11.939 16.423,11.843 16.120 C 11.689 15.633,11.158 15.060,10.603 14.782 C 10.346 14.654,10.005 14.535,9.161 14.279 C 8.564 14.098,8.304 13.955,8.000 13.641 C 7.627 13.256,7.486 12.946,7.121 11.705 C 7.031 11.399,6.908 11.049,6.849 10.926 C 6.714 10.649,6.434 10.365,5.996 10.060 C 5.508 9.720,5.320 9.563,5.320 9.492 C 5.320 9.389,5.791 8.486,6.058 8.077 C 6.196 7.866,6.413 7.569,6.540 7.417 C 6.781 7.128,7.403 6.480,7.439 6.480 C 7.451 6.480,7.541 6.535,7.640 6.602 " fill="#373B4D" stroke="none" fill-rule="evenodd"></path></svg>