<svg width="24" height="24" viewBox="0 0 24 24" fill="none" xmlns="http://www.w3.org/2000/svg"><path d="M10.380 2.584 C 9.146 2.805,7.814 3.332,6.818 3.994 C 5.607 4.798,4.441 6.012,3.731 7.210 C 3.095 8.282,2.595 9.799,2.477 11.017 C 2.416 11.644,2.450 13.022,2.538 13.500 C 2.834 15.098,3.464 16.562,4.384 17.783 C 4.692 18.193,5.413 18.941,5.860 19.314 C 6.955 20.230,8.796 21.132,10.113 21.398 C 10.966 21.570,12.647 21.601,13.520 21.460 C 14.869 21.242,16.569 20.504,17.751 19.625 C 18.512 19.058,19.458 18.066,19.930 17.340 C 20.536 16.406,21.175 14.903,21.408 13.860 C 21.477 13.553,21.492 13.309,21.509 12.193 C 21.531 10.702,21.515 10.522,21.278 9.660 C 20.383 6.398,18.040 3.934,14.858 2.907 C 14.259 2.714,13.727 2.612,13.060 2.562 C 12.253 2.502,10.772 2.514,10.380 2.584 M7.767 6.687 C 7.979 6.853,8.335 7.005,9.020 7.220 C 9.893 7.496,10.095 7.612,10.381 8.001 C 10.565 8.253,10.656 8.515,10.739 9.040 C 10.969 10.492,11.072 10.754,11.618 11.273 C 12.380 11.997,13.361 12.144,14.293 11.673 C 14.563 11.537,15.057 11.067,15.213 10.798 C 15.271 10.698,15.436 10.203,15.579 9.698 C 15.986 8.270,16.148 8.007,16.907 7.551 C 17.356 7.282,17.338 7.283,17.525 7.485 C 18.021 8.020,18.697 9.338,18.920 10.202 C 19.020 10.591,19.166 12.833,19.103 13.029 C 19.071 13.133,19.064 13.134,18.129 13.259 C 17.070 13.400,16.876 13.486,16.271 14.082 C 15.736 14.608,15.686 14.806,15.579 16.800 C 15.543 17.471,15.500 18.083,15.485 18.160 C 15.460 18.282,15.425 18.316,15.212 18.423 C 14.565 18.746,12.816 19.200,12.215 19.200 L 12.000 19.200 11.999 18.410 C 11.998 17.976,11.982 17.313,11.962 16.938 C 11.912 15.990,11.828 15.793,11.214 15.183 C 10.814 14.785,10.558 14.664,9.576 14.404 C 9.156 14.293,8.726 14.165,8.620 14.120 C 8.334 13.998,8.068 13.787,7.847 13.508 C 7.512 13.085,7.485 13.016,7.099 11.600 C 6.942 11.026,6.859 10.828,6.675 10.594 C 6.536 10.417,6.082 10.070,5.694 9.843 C 5.258 9.588,5.254 9.580,5.382 9.274 C 5.514 8.960,5.877 8.299,6.091 7.984 C 6.284 7.700,6.572 7.354,7.053 6.829 L 7.411 6.438 7.515 6.505 C 7.573 6.542,7.686 6.624,7.767 6.687 " fill="#373B4D" stroke="none" fill-rule="evenodd"></path></svg>