<svg width="24" height="24" viewBox="0 0 24 24" fill="none" xmlns="http://www.w3.org/2000/svg"><path d="M10.800 2.602 C 9.953 2.652,9.188 2.852,8.279 3.261 C 6.771 3.938,5.535 4.887,4.488 6.170 C 3.517 7.359,2.767 9.091,2.533 10.680 C 2.428 11.395,2.439 12.868,2.554 13.500 C 2.856 15.155,3.599 16.799,4.565 17.948 C 4.922 18.373,5.698 19.144,6.080 19.452 C 6.934 20.141,8.561 20.975,9.600 21.255 C 10.436 21.481,10.632 21.500,12.100 21.497 L 13.460 21.494 14.014 21.346 C 15.888 20.845,17.402 20.015,18.653 18.802 C 19.696 17.790,20.318 16.838,20.913 15.340 C 21.339 14.268,21.411 13.950,21.483 12.820 C 21.537 11.953,21.512 10.911,21.423 10.380 C 21.183 8.955,20.388 7.240,19.397 6.013 C 18.128 4.440,15.991 3.130,14.061 2.740 C 13.262 2.578,12.060 2.527,10.800 2.602 M12.465 5.194 C 13.042 5.770,13.609 6.997,13.900 8.300 C 13.998 8.742,14.240 10.130,14.294 10.564 L 14.317 10.748 13.928 10.774 C 13.422 10.807,10.614 10.807,10.106 10.773 L 9.712 10.747 9.739 10.444 C 9.803 9.723,9.957 8.860,10.182 7.953 C 10.368 7.204,10.447 6.982,10.743 6.380 C 11.013 5.829,11.232 5.513,11.652 5.065 L 11.911 4.790 12.081 4.885 C 12.174 4.937,12.347 5.076,12.465 5.194 M16.246 6.269 C 16.690 6.625,17.325 7.268,17.612 7.650 C 18.225 8.467,18.910 9.948,18.966 10.580 L 18.980 10.740 18.780 10.766 C 18.670 10.781,18.180 10.795,17.690 10.796 L 16.800 10.800 16.800 10.690 C 16.799 10.139,16.199 7.204,15.856 6.070 C 15.819 5.950,15.901 5.991,16.246 6.269 M8.000 6.199 C 8.000 6.242,7.918 6.670,7.819 7.149 C 7.719 7.628,7.522 8.629,7.382 9.374 C 7.241 10.119,7.114 10.739,7.101 10.752 C 7.067 10.786,5.014 10.787,4.980 10.753 C 4.908 10.681,5.361 9.409,5.682 8.780 C 6.143 7.879,6.902 6.961,7.755 6.270 C 7.967 6.099,8.000 6.089,8.000 6.199 M6.749 13.345 L 7.119 13.367 7.157 13.514 C 7.179 13.594,7.261 13.993,7.340 14.400 C 7.419 14.807,7.600 15.727,7.742 16.445 C 7.884 17.162,8.000 17.798,8.000 17.858 L 8.000 17.967 7.830 17.833 C 7.258 17.384,6.559 16.607,6.112 15.922 C 5.643 15.203,5.076 13.952,5.014 13.502 L 4.990 13.325 5.165 13.311 C 5.371 13.295,6.224 13.313,6.749 13.345 M18.514 13.306 L 19.001 13.332 18.976 13.476 C 18.828 14.306,17.989 15.922,17.269 16.763 C 17.006 17.071,16.181 17.845,16.031 17.925 C 15.953 17.967,15.951 17.961,15.978 17.774 C 15.994 17.667,16.085 17.211,16.181 16.760 C 16.276 16.309,16.465 15.373,16.601 14.681 C 16.736 13.989,16.864 13.390,16.885 13.351 C 16.918 13.288,16.987 13.280,17.475 13.280 C 17.779 13.280,18.247 13.292,18.514 13.306 M14.264 13.621 C 14.198 14.351,13.842 16.077,13.620 16.745 C 13.295 17.725,12.651 18.770,12.215 19.025 C 12.039 19.128,12.034 19.129,11.862 19.063 C 11.474 18.915,10.898 18.065,10.461 16.997 C 10.208 16.377,9.760 14.245,9.760 13.658 C 9.760 13.516,9.764 13.396,9.770 13.392 C 9.794 13.373,11.582 13.336,12.876 13.328 L 14.291 13.320 14.264 13.621 " fill="#373B4D" stroke="none" fill-rule="evenodd"></path></svg>