<svg width="24" height="24" viewBox="0 0 24 24" fill="none" xmlns="http://www.w3.org/2000/svg"><path d="M11.347 3.042 C 8.914 3.258,6.617 4.457,5.054 6.327 C 3.765 7.870,3.000 9.983,3.000 12.000 C 3.000 14.024,3.763 16.131,5.048 17.660 C 5.663 18.391,6.325 18.981,7.100 19.490 C 8.193 20.207,9.468 20.690,10.841 20.907 C 11.464 21.006,12.975 21.006,13.642 20.908 C 17.636 20.318,20.293 17.660,20.907 13.640 C 21.026 12.857,20.995 10.961,20.855 10.470 C 20.836 10.404,20.594 10.400,16.497 10.400 L 12.160 10.400 12.160 12.120 L 12.160 13.840 14.640 13.840 L 17.120 13.840 17.120 13.924 C 17.120 14.042,16.903 14.677,16.776 14.929 C 16.358 15.762,15.552 16.537,14.702 16.922 C 13.747 17.355,12.475 17.535,11.440 17.383 C 9.237 17.060,7.463 15.452,6.895 13.260 C 6.788 12.848,6.781 12.769,6.781 12.020 C 6.780 11.389,6.795 11.157,6.851 10.920 C 7.113 9.821,7.607 8.913,8.342 8.181 C 9.137 7.389,10.083 6.881,11.180 6.658 C 11.627 6.567,12.675 6.554,13.120 6.635 C 13.905 6.776,14.789 7.170,15.374 7.639 L 15.705 7.906 17.017 6.623 L 18.329 5.340 18.009 5.070 C 16.219 3.560,13.802 2.825,11.347 3.042 " fill="#373B4D" stroke="none" fill-rule="evenodd"></path></svg>