<svg width="24" height="24" viewBox="0 0 24 24" fill="none" xmlns="http://www.w3.org/2000/svg"><path d="M10.768 3.140 C 9.225 3.375,7.673 4.067,6.340 5.113 C 5.895 5.462,5.081 6.302,4.736 6.768 C 3.806 8.025,3.140 9.862,3.040 11.446 C 2.898 13.690,3.637 15.922,5.102 17.680 C 6.081 18.854,7.358 19.759,8.880 20.359 C 9.932 20.773,10.973 20.963,12.188 20.963 C 13.808 20.963,15.086 20.684,16.420 20.040 C 17.221 19.653,17.771 19.264,18.454 18.601 C 19.788 17.308,20.642 15.483,20.927 13.320 C 20.989 12.847,20.988 11.409,20.925 10.982 C 20.849 10.461,20.917 10.494,19.852 10.465 C 19.351 10.452,17.415 10.429,15.550 10.415 L 12.160 10.389 12.160 12.109 L 12.160 13.828 14.597 13.864 C 15.937 13.884,17.047 13.914,17.065 13.931 C 17.154 14.021,16.748 14.953,16.402 15.453 C 16.163 15.799,15.638 16.320,15.300 16.548 C 14.760 16.911,14.086 17.180,13.398 17.307 C 13.118 17.359,12.807 17.377,12.200 17.378 C 11.468 17.378,11.341 17.368,11.020 17.285 C 9.973 17.013,9.139 16.544,8.421 15.823 C 7.853 15.253,7.478 14.707,7.176 14.007 C 6.913 13.399,6.869 13.155,6.850 12.181 C 6.825 10.944,6.900 10.561,7.341 9.671 C 7.630 9.088,7.912 8.690,8.340 8.259 C 8.766 7.830,9.071 7.591,9.570 7.296 C 10.306 6.861,10.914 6.694,11.900 6.654 C 13.284 6.599,14.083 6.819,15.238 7.574 L 15.697 7.873 15.838 7.759 C 15.916 7.696,16.510 7.125,17.158 6.490 L 18.337 5.336 17.938 5.034 C 16.744 4.131,15.406 3.509,14.032 3.217 C 13.577 3.120,13.451 3.111,12.340 3.098 C 11.445 3.087,11.045 3.098,10.768 3.140 " fill="#373B4D" stroke="none" fill-rule="evenodd"></path></svg>