<svg width="24" height="24" viewBox="0 0 24 24" fill="none" xmlns="http://www.w3.org/2000/svg"><path d="M11.373 3.041 C 8.904 3.281,6.657 4.445,5.081 6.300 C 3.852 7.748,3.084 9.759,3.012 11.720 C 2.941 13.664,3.600 15.748,4.780 17.314 C 5.900 18.801,7.479 19.931,9.247 20.512 C 10.096 20.790,10.718 20.913,11.550 20.965 C 15.195 21.194,18.282 19.645,19.859 16.798 C 20.482 15.673,20.879 14.291,20.964 12.950 C 21.006 12.291,20.962 10.946,20.887 10.600 C 20.858 10.463,20.852 10.459,20.619 10.434 C 20.487 10.420,18.531 10.407,16.270 10.404 L 12.160 10.400 12.160 12.120 L 12.160 13.840 14.640 13.840 C 17.043 13.840,17.120 13.842,17.120 13.915 C 17.120 14.044,16.921 14.604,16.757 14.940 C 16.355 15.760,15.455 16.610,14.621 16.957 C 13.837 17.283,13.129 17.418,12.200 17.416 C 11.587 17.415,11.444 17.402,11.051 17.310 C 9.004 16.831,7.428 15.294,6.902 13.266 C 6.808 12.901,6.800 12.805,6.800 12.004 C 6.800 11.208,6.808 11.105,6.900 10.752 C 7.317 9.147,8.358 7.859,9.832 7.123 C 10.660 6.709,11.285 6.585,12.400 6.610 C 13.104 6.626,13.215 6.638,13.540 6.736 C 14.271 6.957,14.977 7.315,15.460 7.712 L 15.700 7.909 17.014 6.625 L 18.328 5.342 18.174 5.209 C 16.826 4.046,15.155 3.307,13.360 3.081 C 12.879 3.020,11.807 2.999,11.373 3.041 " fill="#373B4D" stroke="none" fill-rule="evenodd"></path></svg>