<svg width="24" height="24" viewBox="0 0 24 24" fill="none" xmlns="http://www.w3.org/2000/svg"><path d="M11.300 3.080 C 8.517 3.296,5.670 5.074,4.263 7.475 C 3.735 8.376,3.277 9.687,3.095 10.820 C 2.999 11.418,2.999 12.571,3.095 13.199 C 3.553 16.194,5.363 18.675,8.060 20.003 C 9.597 20.760,11.047 21.053,12.791 20.959 C 15.052 20.837,17.036 20.017,18.460 18.614 C 19.122 17.962,19.579 17.320,20.022 16.420 C 20.602 15.242,20.908 14.020,20.980 12.600 C 21.011 12.004,20.947 10.889,20.869 10.650 C 20.821 10.504,20.814 10.499,20.580 10.474 C 20.448 10.460,18.500 10.435,16.250 10.419 L 12.160 10.389 12.160 12.114 L 12.160 13.840 13.350 13.845 C 14.005 13.848,15.116 13.862,15.820 13.875 L 17.100 13.900 17.090 13.992 C 17.072 14.160,16.817 14.786,16.640 15.095 C 16.018 16.182,15.035 16.908,13.740 17.236 C 12.951 17.435,11.602 17.450,10.940 17.267 C 9.839 16.961,9.044 16.493,8.293 15.707 C 7.552 14.932,7.046 13.979,6.876 13.040 C 6.806 12.656,6.808 11.367,6.878 10.960 C 6.991 10.308,7.399 9.408,7.860 8.794 C 8.362 8.124,9.109 7.504,9.869 7.124 C 10.587 6.766,11.219 6.635,12.240 6.635 C 13.445 6.635,14.209 6.877,15.289 7.602 L 15.695 7.875 15.838 7.759 C 15.916 7.696,16.510 7.125,17.158 6.490 L 18.336 5.337 17.998 5.073 C 16.707 4.068,15.269 3.420,13.760 3.163 C 13.184 3.065,12.008 3.025,11.300 3.080 " fill="#373B4D" stroke="none" fill-rule="evenodd"></path></svg>