<svg width="24" height="24" viewBox="0 0 24 24" fill="none" xmlns="http://www.w3.org/2000/svg"><path d="M11.200 3.082 C 10.732 3.116,10.016 3.265,9.440 3.449 C 7.358 4.111,5.615 5.406,4.469 7.140 C 3.919 7.972,3.404 9.250,3.182 10.332 C 2.559 13.366,3.699 16.643,6.093 18.705 C 7.511 19.926,9.150 20.656,11.080 20.925 C 11.686 21.010,12.982 20.990,13.672 20.885 C 15.494 20.607,17.019 19.925,18.220 18.850 C 20.136 17.135,21.158 14.389,20.966 11.476 C 20.910 10.631,20.879 10.498,20.729 10.465 C 20.669 10.452,18.716 10.429,16.390 10.414 L 12.160 10.387 12.160 12.107 L 12.160 13.827 14.626 13.853 C 15.982 13.867,17.101 13.888,17.112 13.899 C 17.148 13.935,16.924 14.559,16.756 14.893 C 16.120 16.155,15.047 16.954,13.548 17.284 C 13.013 17.402,11.753 17.435,11.269 17.343 C 9.490 17.008,7.983 15.817,7.221 14.146 C 6.883 13.403,6.775 12.765,6.812 11.721 C 6.839 10.980,6.905 10.643,7.140 10.060 C 7.698 8.677,8.764 7.590,10.157 6.982 C 10.612 6.784,11.035 6.689,11.680 6.638 C 13.126 6.525,14.126 6.794,15.323 7.620 L 15.694 7.876 15.797 7.799 C 15.854 7.757,16.447 7.186,17.116 6.531 L 18.333 5.339 18.037 5.100 C 16.652 3.982,14.877 3.239,13.209 3.081 C 12.730 3.035,11.836 3.036,11.200 3.082 " fill="#373B4D" stroke="none" fill-rule="evenodd"></path></svg>