<svg width="24" height="24" viewBox="0 0 24 24" fill="none" xmlns="http://www.w3.org/2000/svg"><path d="M10.900 3.102 C 8.154 3.517,5.669 5.126,4.330 7.356 C 3.707 8.391,3.301 9.519,3.095 10.780 C 2.997 11.382,2.996 12.610,3.093 13.220 C 3.449 15.464,4.471 17.320,6.140 18.751 C 8.004 20.350,10.423 21.143,12.901 20.966 C 16.179 20.732,18.707 19.133,20.023 16.460 C 20.728 15.026,21.046 13.475,20.980 11.780 C 20.949 10.987,20.896 10.559,20.820 10.483 C 20.769 10.432,20.164 10.422,16.461 10.407 L 12.160 10.390 12.160 12.113 L 12.160 13.837 14.617 13.849 C 15.968 13.855,17.087 13.874,17.104 13.891 C 17.148 13.935,16.981 14.438,16.783 14.860 C 16.484 15.495,15.958 16.104,15.309 16.565 C 14.430 17.190,13.107 17.493,11.678 17.396 C 11.150 17.360,10.510 17.186,9.934 16.919 C 8.575 16.291,7.466 15.033,7.006 13.595 C 6.833 13.054,6.801 12.799,6.801 12.000 C 6.801 11.182,6.835 10.927,7.022 10.366 C 7.508 8.911,8.579 7.709,9.963 7.066 C 10.630 6.757,11.033 6.661,11.841 6.620 C 12.601 6.581,13.261 6.643,13.720 6.797 C 14.254 6.975,14.919 7.315,15.330 7.620 C 15.523 7.763,15.694 7.879,15.710 7.878 C 15.727 7.878,16.323 7.305,17.037 6.606 L 18.333 5.336 17.997 5.065 C 16.661 3.988,15.004 3.285,13.321 3.081 C 12.843 3.023,11.336 3.036,10.900 3.102 " fill="#373B4D" stroke="none" fill-rule="evenodd"></path></svg>