<svg width="24" height="24" viewBox="0 0 24 24" fill="none" xmlns="http://www.w3.org/2000/svg"><path d="M11.560 1.955 C 11.334 2.005,11.027 2.181,10.796 2.394 C 10.371 2.783,10.181 3.260,10.206 3.869 L 10.220 4.207 9.360 4.718 C 8.887 5.000,7.966 5.539,7.313 5.917 L 6.127 6.605 5.879 6.423 C 5.548 6.178,5.331 6.120,4.763 6.121 C 4.320 6.122,4.289 6.127,4.051 6.251 C 3.213 6.686,2.826 7.513,3.079 8.326 C 3.123 8.466,3.201 8.649,3.253 8.734 C 3.401 8.977,3.745 9.301,3.998 9.436 C 4.125 9.504,4.254 9.589,4.285 9.626 C 4.330 9.680,4.342 10.113,4.352 12.036 L 4.364 14.380 4.096 14.520 C 3.190 14.994,2.806 15.883,3.130 16.759 C 3.226 17.020,3.315 17.159,3.536 17.394 C 3.883 17.763,4.289 17.933,4.820 17.932 C 5.264 17.931,5.563 17.833,5.884 17.583 L 6.109 17.408 8.185 18.606 C 9.396 19.305,10.254 19.824,10.245 19.852 C 10.202 19.994,10.196 20.450,10.236 20.641 C 10.385 21.358,10.997 21.955,11.723 22.090 C 12.411 22.218,13.276 21.763,13.602 21.103 C 13.725 20.851,13.799 20.424,13.800 19.952 L 13.800 19.725 14.330 19.407 C 14.622 19.232,15.532 18.699,16.354 18.224 L 17.848 17.359 17.987 17.481 C 18.348 17.798,18.711 17.937,19.180 17.937 C 19.713 17.937,20.113 17.763,20.487 17.369 C 20.746 17.096,20.861 16.873,20.945 16.475 C 21.109 15.697,20.698 14.923,19.906 14.523 L 19.635 14.385 19.647 12.039 C 19.658 10.114,19.670 9.680,19.715 9.626 C 19.746 9.589,19.876 9.503,20.004 9.435 C 20.283 9.286,20.685 8.905,20.799 8.682 C 21.059 8.172,21.058 7.597,20.796 7.050 C 20.665 6.777,20.273 6.403,19.955 6.249 C 19.704 6.127,19.667 6.120,19.232 6.120 C 18.670 6.120,18.451 6.180,18.120 6.423 L 17.873 6.605 16.747 5.955 C 16.127 5.598,15.202 5.056,14.691 4.751 L 13.761 4.196 13.786 3.908 C 13.851 3.138,13.448 2.426,12.756 2.089 C 12.528 1.979,12.439 1.959,12.096 1.943 C 11.878 1.932,11.637 1.938,11.560 1.955 M10.680 5.021 C 10.680 5.100,10.256 5.848,8.119 9.540 C 6.410 12.493,5.361 14.290,5.322 14.332 C 5.306 14.349,5.281 14.117,5.266 13.815 C 5.233 13.119,5.238 10.085,5.274 9.820 C 5.299 9.629,5.309 9.615,5.514 9.500 C 6.015 9.219,6.306 8.905,6.485 8.450 C 6.559 8.262,6.576 8.139,6.578 7.774 L 6.580 7.329 8.226 6.380 C 10.664 4.975,10.680 4.966,10.680 5.021 M14.872 5.867 C 15.702 6.344,16.615 6.869,16.902 7.034 L 17.425 7.334 17.408 7.661 C 17.367 8.443,17.693 9.021,18.420 9.454 L 18.700 9.621 18.726 9.841 C 18.759 10.116,18.758 13.255,18.725 13.900 L 18.700 14.380 18.055 13.280 C 16.712 10.991,15.687 9.216,13.374 5.170 C 13.320 5.077,13.296 5.000,13.321 5.000 C 13.345 5.000,14.043 5.390,14.872 5.867 M15.100 9.927 C 16.508 12.373,17.717 14.474,17.787 14.597 L 17.914 14.821 17.737 15.101 C 17.640 15.254,17.531 15.457,17.495 15.550 L 17.429 15.720 11.995 15.720 L 6.562 15.720 6.536 15.619 C 6.522 15.563,6.414 15.363,6.296 15.175 L 6.081 14.833 7.153 12.967 C 7.742 11.940,8.952 9.836,9.842 8.291 L 11.460 5.481 12.000 5.481 L 12.540 5.481 15.100 9.927 M15.293 16.627 C 16.452 16.641,17.400 16.667,17.400 16.684 C 17.400 16.738,15.405 17.926,13.940 18.745 L 13.324 19.089 13.149 18.945 C 12.758 18.625,12.240 18.483,11.743 18.560 C 11.455 18.604,11.219 18.699,10.857 18.917 L 10.655 19.038 9.697 18.488 C 7.848 17.425,6.643 16.701,6.673 16.671 C 6.690 16.654,7.521 16.636,8.522 16.630 C 9.522 16.624,10.981 16.615,11.763 16.610 C 12.546 16.604,14.135 16.612,15.293 16.627 " fill="#373B4D" stroke="none" fill-rule="evenodd"></path></svg>