<svg width="24" height="24" viewBox="0 0 24 24" fill="none" xmlns="http://www.w3.org/2000/svg"><path d="M11.246 2.082 C 10.574 2.421,10.200 3.064,10.200 3.880 L 10.200 4.223 9.670 4.537 C 9.022 4.923,6.334 6.490,6.211 6.555 C 6.134 6.595,6.096 6.583,5.927 6.461 C 5.537 6.181,5.401 6.142,4.800 6.141 C 4.308 6.140,4.244 6.148,4.080 6.235 C 3.262 6.665,2.852 7.460,3.054 8.220 C 3.191 8.735,3.450 9.073,3.963 9.407 C 4.135 9.519,4.287 9.640,4.300 9.675 C 4.314 9.711,4.335 10.784,4.347 12.060 L 4.368 14.380 4.076 14.540 C 3.319 14.955,2.918 15.676,3.040 16.401 C 3.157 17.094,3.659 17.678,4.295 17.861 C 4.468 17.911,4.634 17.925,4.915 17.913 C 5.346 17.895,5.591 17.807,5.925 17.550 L 6.110 17.409 7.805 18.390 C 8.737 18.930,9.662 19.474,9.860 19.598 L 10.220 19.825 10.207 20.142 C 10.183 20.715,10.345 21.140,10.740 21.543 C 11.070 21.881,11.576 22.120,11.959 22.120 C 12.164 22.120,12.543 22.016,12.799 21.889 C 13.073 21.753,13.477 21.359,13.594 21.116 C 13.708 20.875,13.800 20.388,13.800 20.018 L 13.800 19.723 14.470 19.326 C 14.838 19.108,15.748 18.577,16.492 18.146 L 17.843 17.362 18.052 17.532 C 18.439 17.847,18.898 17.973,19.434 17.913 C 20.370 17.807,21.112 16.831,20.961 15.905 C 20.868 15.339,20.485 14.836,19.924 14.543 L 19.628 14.389 19.651 12.065 C 19.663 10.786,19.686 9.709,19.700 9.672 C 19.715 9.635,19.858 9.522,20.019 9.422 C 20.411 9.178,20.767 8.793,20.879 8.493 C 21.050 8.037,21.023 7.542,20.801 7.070 C 20.688 6.831,20.283 6.435,19.986 6.273 C 19.741 6.141,19.737 6.140,19.200 6.141 C 18.599 6.142,18.463 6.181,18.073 6.461 C 17.904 6.583,17.866 6.595,17.789 6.555 C 17.595 6.453,15.380 5.163,14.594 4.694 L 13.760 4.197 13.785 3.924 C 13.854 3.185,13.468 2.479,12.800 2.120 C 12.547 1.984,12.526 1.980,12.020 1.968 C 11.503 1.954,11.499 1.955,11.246 2.082 M10.601 5.197 C 10.466 5.462,9.197 7.676,7.733 10.200 C 5.304 14.389,5.344 14.322,5.300 14.247 C 5.254 14.170,5.243 9.880,5.288 9.720 C 5.307 9.656,5.399 9.571,5.548 9.482 C 5.835 9.312,6.216 8.954,6.345 8.736 C 6.502 8.467,6.558 8.246,6.590 7.764 L 6.620 7.309 8.280 6.350 C 10.031 5.339,10.648 4.995,10.671 5.018 C 10.679 5.026,10.648 5.107,10.601 5.197 M15.660 6.323 L 17.380 7.309 17.405 7.765 C 17.442 8.448,17.592 8.778,18.046 9.175 C 18.164 9.278,18.359 9.422,18.480 9.494 L 18.700 9.625 18.732 10.262 C 18.767 10.972,18.732 14.245,18.688 14.287 C 18.673 14.302,18.400 13.870,18.083 13.327 C 16.202 10.113,13.320 5.094,13.320 5.034 C 13.320 4.985,13.522 5.096,15.660 6.323 M15.100 9.928 C 16.508 12.374,17.717 14.475,17.787 14.598 L 17.914 14.821 17.737 15.101 C 17.640 15.254,17.531 15.457,17.495 15.550 L 17.429 15.720 11.995 15.720 L 6.562 15.720 6.536 15.619 C 6.522 15.563,6.414 15.363,6.296 15.175 L 6.081 14.833 8.236 11.087 C 9.421 9.026,10.632 6.922,10.926 6.410 L 11.460 5.481 12.000 5.481 L 12.540 5.481 15.100 9.928 M16.931 16.666 L 17.402 16.691 17.205 16.824 C 16.762 17.122,14.015 18.727,13.479 19.000 L 13.322 19.080 13.111 18.920 C 12.755 18.649,12.534 18.582,11.992 18.581 L 11.523 18.580 11.082 18.807 L 10.640 19.033 9.390 18.312 C 7.576 17.265,6.631 16.693,6.681 16.672 C 6.815 16.615,15.884 16.611,16.931 16.666 " fill="#373B4D" stroke="none" fill-rule="evenodd"></path></svg>