<svg width="24" height="24" viewBox="0 0 24 24" fill="none" xmlns="http://www.w3.org/2000/svg"><path d="M11.680 1.923 C 10.993 2.040,10.406 2.607,10.240 3.314 C 10.196 3.502,10.199 3.988,10.245 4.155 C 10.255 4.191,9.561 4.614,8.188 5.407 L 6.117 6.605 5.970 6.477 C 5.615 6.165,5.039 6.001,4.552 6.073 C 3.669 6.204,3.002 6.964,3.000 7.842 C 2.999 8.625,3.508 9.309,4.290 9.574 C 4.356 9.596,4.360 9.748,4.360 12.000 L 4.360 14.402 4.250 14.443 C 3.400 14.760,2.886 15.592,3.028 16.421 C 3.154 17.151,3.633 17.683,4.357 17.896 C 4.888 18.052,5.552 17.904,5.956 17.539 L 6.108 17.401 8.190 18.604 L 10.273 19.806 10.236 19.933 C 10.189 20.099,10.192 20.495,10.242 20.716 C 10.449 21.610,11.377 22.243,12.261 22.092 C 13.207 21.930,13.860 21.115,13.788 20.186 C 13.776 20.029,13.755 19.864,13.742 19.820 C 13.720 19.750,13.969 19.595,15.783 18.549 L 17.849 17.358 18.020 17.516 C 18.840 18.271,20.249 18.013,20.770 17.011 C 21.301 15.991,20.851 14.859,19.750 14.444 L 19.640 14.402 19.640 12.000 C 19.640 9.748,19.644 9.596,19.710 9.574 C 20.150 9.425,20.578 9.083,20.772 8.727 C 21.376 7.617,20.698 6.259,19.448 6.073 C 18.960 6.001,18.385 6.165,18.028 6.478 L 17.880 6.608 15.810 5.410 C 14.408 4.599,13.745 4.194,13.755 4.156 C 13.763 4.125,13.779 3.971,13.790 3.814 C 13.871 2.654,12.837 1.727,11.680 1.923 M10.720 5.006 C 10.720 5.085,5.305 14.436,5.272 14.415 C 5.254 14.404,5.240 13.316,5.240 11.996 C 5.240 9.747,5.244 9.596,5.310 9.576 C 5.709 9.455,6.182 9.077,6.370 8.730 C 6.552 8.394,6.613 8.105,6.589 7.699 L 6.567 7.335 8.614 6.150 C 9.739 5.499,10.673 4.964,10.690 4.963 C 10.707 4.961,10.720 4.981,10.720 5.006 M15.391 6.159 L 17.432 7.339 17.411 7.701 C 17.387 8.105,17.448 8.395,17.630 8.730 C 17.818 9.077,18.291 9.455,18.690 9.576 C 18.756 9.596,18.760 9.747,18.760 11.996 C 18.760 13.316,18.746 14.404,18.729 14.415 C 18.695 14.436,13.280 5.082,13.280 5.002 C 13.280 4.975,13.296 4.959,13.315 4.967 C 13.335 4.974,14.269 5.511,15.391 6.159 M15.223 10.138 C 16.707 12.707,17.920 14.815,17.920 14.824 C 17.920 14.832,17.841 14.954,17.745 15.094 C 17.649 15.235,17.539 15.433,17.500 15.535 L 17.429 15.720 12.003 15.720 L 6.578 15.720 6.466 15.464 C 6.405 15.324,6.292 15.135,6.215 15.044 C 6.137 14.954,6.080 14.856,6.087 14.827 C 6.094 14.797,7.310 12.678,8.790 10.117 L 11.479 5.460 12.003 5.464 L 12.527 5.468 15.223 10.138 M17.453 16.655 C 17.467 16.694,16.860 17.064,15.421 17.895 C 14.292 18.547,13.351 19.080,13.331 19.080 C 13.311 19.080,13.250 19.033,13.197 18.976 C 13.060 18.830,12.798 18.683,12.515 18.595 C 11.961 18.423,11.277 18.559,10.861 18.924 C 10.769 19.005,10.696 19.039,10.653 19.023 C 10.490 18.960,6.560 16.669,6.560 16.636 C 6.560 16.615,8.786 16.600,11.996 16.600 C 16.573 16.600,17.435 16.609,17.453 16.655 " fill="#373B4D" stroke="none" fill-rule="evenodd"></path></svg>