<svg width="24" height="24" viewBox="0 0 24 24" fill="none" xmlns="http://www.w3.org/2000/svg"><path d="M11.720 2.477 C 11.400 2.543,11.045 2.837,10.895 3.160 C 10.813 3.337,10.811 3.405,10.784 6.880 L 10.756 10.420 10.611 10.569 C 10.449 10.736,10.248 10.820,10.111 10.779 C 9.940 10.728,9.725 10.553,9.679 10.426 C 9.645 10.337,9.626 9.468,9.611 7.420 C 9.591 4.670,9.586 4.533,9.512 4.386 C 9.391 4.145,9.133 3.892,8.886 3.771 C 8.451 3.557,7.953 3.643,7.546 4.000 C 7.258 4.253,7.268 4.167,7.232 6.680 C 7.214 7.923,7.188 10.089,7.175 11.494 L 7.150 14.047 7.016 14.182 C 6.941 14.256,6.811 14.337,6.726 14.363 C 6.594 14.403,6.546 14.398,6.389 14.328 C 6.116 14.207,6.082 14.111,6.039 13.347 C 6.019 12.991,6.002 12.394,6.001 12.020 C 5.999 11.646,5.982 11.126,5.961 10.864 C 5.929 10.448,5.910 10.366,5.811 10.206 C 5.677 9.989,5.417 9.779,5.209 9.722 C 4.942 9.648,4.457 9.670,4.272 9.764 C 4.051 9.877,3.739 10.202,3.673 10.389 C 3.632 10.507,3.621 10.929,3.624 12.320 C 3.629 14.089,3.630 14.103,3.738 14.640 C 3.939 15.641,4.393 16.828,4.878 17.620 C 5.364 18.416,6.601 19.684,7.420 20.226 C 8.183 20.732,9.343 21.200,10.448 21.448 C 10.828 21.533,10.950 21.540,12.020 21.538 C 13.139 21.536,13.196 21.532,13.637 21.428 C 15.541 20.976,17.016 20.119,18.232 18.759 C 19.288 17.578,19.863 16.451,20.220 14.860 C 20.324 14.400,20.330 14.311,20.362 12.740 C 20.381 11.838,20.397 10.164,20.398 9.020 L 20.399 6.940 20.284 6.738 C 19.866 6.011,19.075 5.843,18.419 6.343 C 18.216 6.498,18.125 6.643,18.078 6.887 C 18.056 7.004,18.020 7.766,17.999 8.580 C 17.952 10.400,17.945 10.464,17.791 10.609 C 17.726 10.669,17.605 10.739,17.522 10.764 C 17.394 10.802,17.345 10.797,17.189 10.728 C 16.894 10.598,16.872 10.534,16.836 9.747 C 16.819 9.369,16.804 8.043,16.802 6.800 L 16.799 4.540 16.683 4.338 C 16.542 4.091,16.291 3.859,16.045 3.747 C 15.768 3.620,15.363 3.629,15.100 3.768 C 14.785 3.933,14.582 4.130,14.522 4.327 C 14.454 4.553,14.405 5.606,14.402 6.883 C 14.401 7.446,14.388 8.479,14.373 9.179 L 14.347 10.450 14.214 10.584 C 14.141 10.657,14.011 10.737,13.926 10.763 C 13.793 10.803,13.746 10.798,13.585 10.726 C 13.273 10.588,13.275 10.596,13.237 8.680 C 13.219 7.767,13.203 6.192,13.202 5.180 L 13.199 3.340 13.084 3.139 C 12.951 2.906,12.652 2.617,12.468 2.542 C 12.303 2.475,11.900 2.440,11.720 2.477 " fill="#373B4D" stroke="none" fill-rule="evenodd"></path></svg>