<svg width="24" height="24" viewBox="0 0 24 24" fill="none" xmlns="http://www.w3.org/2000/svg"><path d="M11.540 2.577 C 11.448 2.612,11.284 2.736,11.155 2.869 C 10.970 3.061,10.922 3.139,10.882 3.320 C 10.820 3.601,10.765 6.022,10.762 8.526 L 10.760 10.432 10.613 10.561 C 10.532 10.632,10.404 10.716,10.330 10.747 C 10.205 10.799,10.178 10.797,10.020 10.720 C 9.925 10.674,9.826 10.612,9.802 10.582 C 9.717 10.480,9.681 9.845,9.621 7.439 C 9.559 4.961,9.541 4.593,9.474 4.373 C 9.430 4.225,9.215 4.019,8.935 3.855 C 8.759 3.751,8.705 3.740,8.380 3.741 C 8.060 3.741,7.997 3.754,7.813 3.855 C 7.562 3.994,7.426 4.134,7.365 4.318 C 7.339 4.394,7.301 4.718,7.280 5.038 C 7.222 5.895,7.160 9.472,7.160 11.907 L 7.160 14.034 6.991 14.178 C 6.781 14.358,6.669 14.388,6.466 14.316 C 6.138 14.200,6.120 14.114,6.020 12.200 C 5.924 10.385,5.891 10.226,5.556 9.961 C 5.318 9.773,5.045 9.701,4.680 9.732 C 4.349 9.760,4.177 9.829,3.967 10.019 C 3.657 10.298,3.660 10.277,3.663 12.540 L 3.666 14.540 3.854 15.132 C 4.219 16.283,4.618 17.197,5.013 17.789 C 5.390 18.353,6.855 19.818,7.413 20.189 C 8.275 20.762,9.795 21.349,10.760 21.483 C 11.239 21.550,12.877 21.553,13.263 21.489 C 13.868 21.388,14.920 21.036,15.631 20.698 C 16.438 20.314,17.184 19.778,17.881 19.081 C 18.927 18.035,19.637 16.841,20.076 15.389 C 20.314 14.600,20.355 13.865,20.369 10.080 C 20.378 7.687,20.369 7.059,20.326 6.890 C 20.282 6.718,20.232 6.644,20.046 6.474 C 19.754 6.207,19.564 6.122,19.257 6.121 C 18.946 6.120,18.664 6.204,18.448 6.363 C 18.108 6.613,18.068 6.806,17.979 8.640 C 17.889 10.492,17.868 10.593,17.544 10.716 C 17.359 10.787,17.110 10.723,17.017 10.581 C 16.917 10.429,16.888 9.900,16.840 7.400 C 16.788 4.669,16.774 4.458,16.621 4.258 C 16.469 4.058,16.143 3.810,15.968 3.762 C 15.773 3.707,15.439 3.709,15.215 3.765 C 14.950 3.832,14.619 4.147,14.542 4.405 C 14.470 4.648,14.413 5.928,14.362 8.440 C 14.335 9.744,14.310 10.305,14.272 10.418 C 14.233 10.539,14.174 10.605,14.027 10.696 C 13.839 10.812,13.829 10.814,13.667 10.758 C 13.394 10.663,13.365 10.561,13.320 9.535 C 13.298 9.054,13.253 7.490,13.219 6.060 C 13.185 4.630,13.142 3.394,13.124 3.313 C 13.105 3.232,13.051 3.111,13.003 3.044 C 12.910 2.913,12.639 2.681,12.487 2.603 C 12.337 2.524,11.726 2.508,11.540 2.577 " fill="#373B4D" stroke="none" fill-rule="evenodd"></path></svg>