<svg width="24" height="24" viewBox="0 0 24 24" fill="none" xmlns="http://www.w3.org/2000/svg"><path d="M11.593 2.534 C 11.390 2.610,11.142 2.814,10.995 3.027 C 10.893 3.175,10.867 3.263,10.837 3.553 C 10.818 3.744,10.790 5.372,10.775 7.172 L 10.747 10.443 10.606 10.567 C 10.529 10.634,10.404 10.716,10.330 10.747 C 10.205 10.799,10.178 10.796,10.022 10.721 C 9.721 10.575,9.712 10.553,9.675 9.870 C 9.657 9.535,9.624 8.225,9.602 6.960 C 9.578 5.600,9.543 4.583,9.517 4.471 C 9.463 4.236,9.206 3.968,8.884 3.810 C 8.704 3.722,8.610 3.703,8.381 3.705 C 8.073 3.709,7.901 3.767,7.616 3.962 C 7.360 4.139,7.321 4.260,7.278 4.996 C 7.230 5.826,7.160 10.153,7.160 12.308 L 7.160 14.032 7.019 14.155 C 6.796 14.351,6.663 14.407,6.532 14.359 C 6.320 14.282,6.233 14.223,6.179 14.118 C 6.109 13.982,6.051 13.281,5.999 11.940 C 5.941 10.426,5.908 10.258,5.621 10.006 C 5.350 9.768,5.176 9.705,4.796 9.706 C 4.376 9.707,4.160 9.797,3.916 10.073 C 3.617 10.413,3.634 10.262,3.651 12.473 C 3.665 14.384,3.669 14.472,3.756 14.780 C 4.216 16.423,4.684 17.442,5.343 18.240 C 5.660 18.622,6.826 19.767,7.140 20.003 C 7.880 20.560,9.104 21.108,10.220 21.384 C 10.796 21.526,11.825 21.585,12.750 21.528 C 13.507 21.482,13.778 21.420,14.820 21.055 C 17.279 20.194,19.330 18.007,20.056 15.474 C 20.335 14.501,20.354 14.188,20.386 10.220 C 20.416 6.511,20.448 6.855,20.033 6.454 C 19.746 6.177,19.612 6.116,19.285 6.113 C 18.822 6.109,18.631 6.176,18.336 6.448 C 18.075 6.689,18.074 6.691,17.979 8.820 C 17.917 10.211,17.903 10.354,17.814 10.529 C 17.663 10.828,17.099 10.829,16.963 10.531 C 16.881 10.350,16.842 9.420,16.815 6.940 C 16.791 4.762,16.782 4.527,16.718 4.400 C 16.627 4.219,16.393 3.979,16.165 3.835 C 15.999 3.729,15.953 3.720,15.608 3.720 C 15.336 3.720,15.192 3.739,15.086 3.789 C 14.863 3.894,14.573 4.204,14.522 4.392 C 14.460 4.623,14.408 6.063,14.377 8.400 C 14.351 10.386,14.349 10.422,14.265 10.514 C 14.218 10.565,14.102 10.653,14.007 10.709 C 13.853 10.800,13.818 10.806,13.685 10.766 C 13.408 10.683,13.360 10.590,13.319 10.055 C 13.299 9.794,13.265 8.599,13.242 7.400 C 13.172 3.649,13.165 3.384,13.121 3.234 C 13.064 3.039,12.744 2.704,12.520 2.605 C 12.280 2.499,11.788 2.461,11.593 2.534 " fill="#373B4D" stroke="none" fill-rule="evenodd"></path></svg>