<svg width="24" height="24" viewBox="0 0 24 24" fill="none" xmlns="http://www.w3.org/2000/svg"><path d="M11.480 2.646 C 11.241 2.768,10.973 3.049,10.920 3.232 C 10.842 3.508,10.799 4.693,10.764 7.580 L 10.728 10.459 10.578 10.589 C 10.326 10.807,10.033 10.797,9.824 10.564 C 9.757 10.489,9.713 9.706,9.619 6.920 C 9.585 5.919,9.540 4.959,9.519 4.786 C 9.471 4.386,9.365 4.194,9.065 3.962 L 8.830 3.780 8.419 3.784 C 8.077 3.787,7.979 3.803,7.834 3.877 C 7.573 4.012,7.444 4.155,7.380 4.379 C 7.247 4.844,7.165 7.249,7.156 10.920 C 7.152 12.185,7.139 13.417,7.125 13.659 L 7.100 14.097 6.966 14.188 C 6.682 14.378,6.357 14.339,6.259 14.103 C 6.177 13.905,6.128 13.494,6.039 12.260 C 5.900 10.327,5.867 10.198,5.444 9.918 C 5.273 9.804,5.249 9.800,4.800 9.800 C 4.346 9.800,4.329 9.803,4.147 9.924 C 4.044 9.992,3.899 10.118,3.826 10.204 L 3.693 10.360 3.666 11.026 C 3.652 11.393,3.640 12.327,3.640 13.101 L 3.640 14.510 3.823 15.043 C 4.354 16.594,4.688 17.321,5.156 17.940 C 5.376 18.232,6.578 19.464,7.024 19.855 C 7.203 20.012,7.499 20.229,7.683 20.338 C 8.339 20.726,9.412 21.157,10.396 21.426 L 10.780 21.531 12.040 21.507 C 13.452 21.481,13.513 21.472,14.464 21.144 C 15.782 20.691,16.737 20.131,17.671 19.260 C 18.849 18.161,19.880 16.389,20.177 14.948 C 20.213 14.777,20.260 14.435,20.282 14.188 C 20.330 13.648,20.384 7.260,20.343 6.984 C 20.307 6.747,20.074 6.476,19.751 6.297 C 19.563 6.193,19.503 6.180,19.200 6.182 C 18.906 6.183,18.828 6.199,18.625 6.301 C 18.148 6.539,18.098 6.705,17.981 8.440 C 17.903 9.604,17.848 10.176,17.797 10.367 C 17.747 10.558,17.556 10.720,17.380 10.720 C 16.976 10.720,16.963 10.647,16.881 8.020 C 16.820 6.068,16.766 4.939,16.722 4.671 C 16.668 4.341,16.577 4.180,16.354 4.016 C 15.876 3.664,15.239 3.669,14.842 4.026 C 14.494 4.339,14.469 4.507,14.381 7.200 C 14.275 10.403,14.260 10.540,14.003 10.692 C 13.756 10.838,13.481 10.715,13.425 10.433 C 13.378 10.199,13.322 8.989,13.260 6.880 C 13.187 4.400,13.139 3.517,13.060 3.253 C 12.943 2.858,12.539 2.603,11.983 2.572 C 11.704 2.557,11.636 2.567,11.480 2.646 " fill="#373B4D" stroke="none" fill-rule="evenodd"></path></svg>