<svg width="24" height="24" viewBox="0 0 24 24" fill="none" xmlns="http://www.w3.org/2000/svg"><path d="M11.693 2.556 C 11.406 2.605,11.055 2.900,10.931 3.196 C 10.833 3.431,10.799 4.333,10.773 7.431 L 10.748 10.442 10.607 10.566 C 10.385 10.761,10.228 10.813,10.070 10.745 C 9.938 10.688,9.760 10.541,9.760 10.488 C 9.760 10.472,9.742 10.180,9.721 9.839 C 9.699 9.499,9.653 8.284,9.619 7.140 C 9.584 5.996,9.541 4.921,9.523 4.751 C 9.477 4.328,9.391 4.179,9.060 3.950 L 8.785 3.760 8.443 3.760 C 8.254 3.760,8.034 3.779,7.953 3.801 C 7.744 3.859,7.411 4.171,7.363 4.353 C 7.247 4.794,7.161 7.792,7.161 11.467 L 7.160 14.034 7.010 14.158 C 6.822 14.314,6.664 14.357,6.465 14.307 C 6.180 14.235,6.132 14.002,6.020 12.120 C 5.921 10.465,5.884 10.283,5.590 10.018 C 5.354 9.806,5.206 9.760,4.760 9.761 C 4.450 9.761,4.399 9.773,4.180 9.894 C 4.032 9.976,3.894 10.092,3.821 10.196 L 3.701 10.365 3.674 11.153 C 3.659 11.586,3.645 12.518,3.644 13.224 L 3.640 14.509 3.858 15.151 C 4.272 16.371,4.619 17.164,4.978 17.720 C 5.287 18.196,6.820 19.760,7.340 20.128 C 7.994 20.592,9.117 21.079,10.200 21.370 C 10.650 21.490,10.684 21.493,11.767 21.511 C 13.038 21.531,13.347 21.502,14.023 21.296 C 15.736 20.777,16.902 20.086,17.990 18.946 C 19.030 17.854,19.775 16.549,20.117 15.218 C 20.324 14.412,20.369 13.370,20.353 9.737 L 20.340 6.853 20.222 6.683 C 20.057 6.445,19.720 6.214,19.458 6.160 C 18.941 6.052,18.294 6.353,18.166 6.760 C 18.090 7.002,18.046 7.425,17.981 8.540 C 17.909 9.794,17.859 10.277,17.782 10.461 C 17.666 10.739,17.295 10.833,17.097 10.635 C 16.953 10.491,16.931 10.270,16.881 8.420 C 16.804 5.586,16.765 4.711,16.704 4.480 C 16.658 4.302,16.611 4.228,16.454 4.089 C 16.144 3.815,15.954 3.740,15.580 3.742 C 15.124 3.745,14.822 3.915,14.622 4.283 C 14.483 4.538,14.462 4.776,14.402 6.761 C 14.297 10.188,14.291 10.312,14.213 10.469 C 13.979 10.939,13.454 10.854,13.386 10.336 C 13.352 10.068,13.291 8.472,13.239 6.480 C 13.171 3.844,13.141 3.349,13.037 3.135 C 12.833 2.712,12.251 2.461,11.693 2.556 " fill="#373B4D" stroke="none" fill-rule="evenodd"></path></svg>