<svg width="24" height="24" viewBox="0 0 24 24" fill="none" xmlns="http://www.w3.org/2000/svg"><path d="M11.416 2.678 C 11.190 2.808,11.017 2.991,10.933 3.190 C 10.837 3.421,10.800 4.402,10.774 7.440 C 10.757 9.536,10.736 10.437,10.705 10.477 C 10.680 10.508,10.590 10.584,10.504 10.647 C 10.286 10.805,10.098 10.800,9.908 10.630 L 9.762 10.500 9.721 9.700 C 9.698 9.260,9.653 8.081,9.620 7.080 C 9.552 4.952,9.535 4.683,9.455 4.433 C 9.393 4.238,9.227 4.058,8.922 3.856 C 8.767 3.754,8.742 3.750,8.364 3.768 C 8.033 3.784,7.940 3.804,7.794 3.890 C 7.396 4.124,7.339 4.264,7.285 5.140 C 7.201 6.510,7.188 7.087,7.164 10.536 L 7.140 14.051 6.992 14.171 C 6.784 14.340,6.499 14.367,6.347 14.234 C 6.188 14.096,6.136 13.775,6.041 12.340 C 5.957 11.075,5.912 10.644,5.843 10.406 C 5.785 10.209,5.623 10.017,5.409 9.891 C 5.235 9.789,5.187 9.780,4.800 9.780 C 4.414 9.780,4.365 9.789,4.194 9.889 C 4.092 9.950,3.937 10.079,3.850 10.178 L 3.693 10.357 3.666 11.205 C 3.652 11.671,3.640 12.606,3.640 13.283 L 3.640 14.512 3.864 15.166 C 4.383 16.682,4.768 17.484,5.258 18.073 C 5.709 18.613,6.883 19.776,7.282 20.077 C 7.876 20.524,9.105 21.070,10.184 21.366 L 10.660 21.497 11.940 21.498 C 13.385 21.500,13.428 21.495,14.400 21.171 C 15.751 20.722,16.741 20.141,17.697 19.236 C 18.695 18.292,19.548 16.971,19.956 15.740 C 20.311 14.671,20.326 14.453,20.349 10.375 C 20.365 7.371,20.360 6.916,20.308 6.815 C 20.216 6.637,19.924 6.369,19.704 6.259 C 19.339 6.078,18.775 6.146,18.422 6.416 C 18.134 6.635,18.081 6.885,17.980 8.500 C 17.900 9.782,17.849 10.255,17.774 10.443 C 17.620 10.827,17.108 10.832,17.002 10.450 C 16.956 10.284,16.905 9.191,16.839 6.920 C 16.767 4.488,16.744 4.328,16.418 4.061 C 16.137 3.830,15.945 3.762,15.580 3.762 C 15.210 3.762,15.013 3.833,14.803 4.044 C 14.501 4.345,14.465 4.583,14.401 6.680 C 14.326 9.136,14.277 10.217,14.235 10.376 C 14.123 10.797,13.640 10.908,13.458 10.555 C 13.380 10.405,13.341 9.784,13.282 7.740 C 13.161 3.557,13.147 3.341,12.981 3.059 C 12.797 2.744,12.406 2.560,11.925 2.560 C 11.661 2.561,11.592 2.577,11.416 2.678 " fill="#373B4D" stroke="none" fill-rule="evenodd"></path></svg>