<svg width="24" height="24" viewBox="0 0 24 24" fill="none" xmlns="http://www.w3.org/2000/svg"><path d="M10.360 3.746 C 10.225 3.803,10.066 3.940,9.919 4.127 C 9.741 4.351,9.609 4.727,9.281 5.940 C 8.946 7.179,8.966 7.120,8.864 7.158 C 8.813 7.178,8.314 7.214,7.756 7.238 C 6.228 7.304,5.645 7.355,5.460 7.436 C 5.136 7.579,4.872 8.006,4.864 8.399 C 4.859 8.668,4.969 8.912,5.220 9.192 C 5.469 9.468,5.658 9.513,7.000 9.619 C 8.243 9.716,8.200 9.708,8.200 9.848 C 8.200 9.913,8.145 10.221,8.077 10.533 C 7.946 11.133,7.167 14.367,7.150 14.381 C 7.145 14.385,6.528 14.410,5.780 14.436 C 4.215 14.491,3.425 14.543,3.166 14.608 C 2.944 14.663,2.697 14.897,2.568 15.173 C 2.391 15.549,2.475 16.047,2.773 16.385 C 3.037 16.686,3.430 16.762,5.100 16.838 C 6.177 16.888,6.358 16.907,6.385 16.978 C 6.396 17.007,6.330 17.460,6.239 17.985 C 6.148 18.510,6.071 19.066,6.068 19.220 C 6.061 19.561,6.120 19.687,6.436 20.001 C 6.708 20.272,6.911 20.344,7.307 20.307 C 7.782 20.262,8.015 20.087,8.222 19.619 C 8.340 19.353,8.690 18.200,8.900 17.390 L 9.053 16.800 9.396 16.801 C 9.779 16.801,11.312 16.863,11.955 16.904 L 12.371 16.930 12.345 17.207 C 12.331 17.360,12.274 17.758,12.219 18.092 C 12.080 18.941,12.052 19.419,12.133 19.609 C 12.227 19.835,12.534 20.139,12.768 20.240 C 12.933 20.311,13.029 20.325,13.257 20.312 C 13.794 20.283,14.036 20.082,14.271 19.472 C 14.440 19.034,14.687 18.212,14.860 17.520 C 14.917 17.289,14.982 17.032,15.004 16.950 L 15.043 16.800 16.638 16.800 L 18.233 16.800 18.486 16.630 C 18.784 16.430,19.045 16.075,19.119 15.766 C 19.239 15.262,18.833 14.666,18.299 14.562 C 18.189 14.541,17.776 14.504,17.380 14.480 C 16.153 14.404,15.760 14.374,15.738 14.352 C 15.719 14.332,15.971 13.225,16.539 10.840 C 16.662 10.323,16.781 9.832,16.803 9.750 L 16.843 9.600 17.912 9.597 C 19.534 9.593,20.630 9.545,20.810 9.468 C 20.986 9.393,21.323 9.068,21.421 8.878 C 21.524 8.679,21.544 8.292,21.464 8.051 C 21.388 7.824,21.169 7.548,20.993 7.456 C 20.802 7.357,20.492 7.323,19.220 7.261 C 17.737 7.188,17.610 7.175,17.582 7.087 C 17.558 7.010,17.580 6.865,17.774 5.840 C 18.028 4.497,18.026 4.466,17.674 4.114 C 17.359 3.799,17.258 3.760,16.748 3.760 C 16.351 3.760,16.326 3.765,16.146 3.884 C 15.920 4.034,15.803 4.223,15.645 4.700 C 15.548 4.992,15.232 6.134,15.001 7.030 L 14.957 7.200 13.708 7.195 C 13.022 7.192,12.271 7.179,12.040 7.165 C 11.627 7.140,11.620 7.138,11.608 7.038 C 11.602 6.981,11.678 6.487,11.778 5.940 C 11.996 4.747,12.002 4.602,11.846 4.358 C 11.714 4.150,11.403 3.854,11.259 3.800 C 11.136 3.753,10.442 3.711,10.360 3.746 M13.467 9.675 C 13.867 9.689,14.204 9.711,14.216 9.723 C 14.247 9.753,13.263 14.109,13.173 14.345 C 13.155 14.390,12.911 14.400,11.806 14.400 C 11.066 14.400,10.309 14.388,10.125 14.373 L 9.790 14.347 9.815 14.104 C 9.859 13.681,10.775 9.743,10.853 9.647 C 10.896 9.592,11.237 9.596,13.467 9.675 " fill="#373B4D" stroke="none" fill-rule="evenodd"></path></svg>