<svg width="24" height="24" viewBox="0 0 24 24" fill="none" xmlns="http://www.w3.org/2000/svg"><path d="M10.540 3.635 C 10.385 3.676,10.174 3.784,10.009 3.907 C 9.766 4.089,9.670 4.358,9.261 6.000 C 9.137 6.495,9.019 6.965,8.998 7.044 L 8.960 7.189 7.327 7.208 L 5.694 7.228 5.443 7.362 C 4.570 7.827,4.610 9.043,5.512 9.487 C 5.694 9.577,5.745 9.581,7.020 9.603 C 7.746 9.615,8.342 9.629,8.345 9.633 C 8.350 9.639,7.301 13.854,7.198 14.244 L 7.160 14.388 5.225 14.409 L 3.290 14.430 3.041 14.563 C 2.170 15.027,2.211 16.244,3.112 16.687 C 3.296 16.778,3.330 16.780,4.920 16.802 C 5.811 16.815,6.541 16.828,6.542 16.832 C 6.544 16.837,6.469 17.142,6.377 17.510 C 6.285 17.878,6.159 18.418,6.098 18.709 C 5.997 19.187,5.991 19.258,6.036 19.457 C 6.092 19.708,6.296 20.009,6.519 20.170 C 6.601 20.228,6.779 20.307,6.915 20.345 C 7.369 20.471,7.868 20.301,8.139 19.928 C 8.289 19.721,8.412 19.323,8.760 17.920 C 8.872 17.469,8.982 17.032,9.004 16.949 L 9.044 16.798 10.759 16.809 C 11.702 16.815,12.486 16.833,12.502 16.849 C 12.518 16.865,12.448 17.216,12.348 17.629 C 12.018 18.985,11.980 19.207,12.036 19.457 C 12.092 19.708,12.296 20.009,12.519 20.170 C 12.601 20.228,12.779 20.307,12.915 20.345 C 13.369 20.471,13.868 20.301,14.139 19.928 C 14.289 19.721,14.412 19.323,14.760 17.920 C 14.872 17.469,14.982 17.033,15.003 16.952 L 15.042 16.804 16.671 16.792 C 18.281 16.780,18.302 16.779,18.488 16.687 C 19.389 16.244,19.430 15.027,18.559 14.563 L 18.310 14.430 17.065 14.413 C 16.380 14.403,15.782 14.388,15.735 14.378 C 15.652 14.361,15.666 14.295,16.207 12.130 C 16.513 10.904,16.781 9.833,16.803 9.752 L 16.842 9.604 18.771 9.592 C 20.695 9.580,20.701 9.580,20.888 9.487 C 21.789 9.044,21.830 7.827,20.959 7.363 L 20.710 7.230 19.205 7.213 C 18.377 7.204,17.644 7.188,17.577 7.178 L 17.453 7.159 17.583 6.649 C 17.858 5.574,18.008 4.825,17.985 4.652 C 17.905 4.063,17.389 3.624,16.782 3.629 C 16.474 3.631,16.314 3.685,16.051 3.876 C 15.765 4.084,15.684 4.301,15.261 6.000 C 15.137 6.495,15.018 6.968,14.996 7.050 L 14.957 7.200 13.262 7.200 C 12.329 7.200,11.541 7.190,11.510 7.178 C 11.464 7.161,11.477 7.066,11.583 6.648 C 11.784 5.864,12.000 4.867,12.000 4.728 C 12.000 4.364,11.660 3.892,11.277 3.723 C 11.068 3.631,10.717 3.589,10.540 3.635 M14.306 9.652 C 14.330 9.676,13.463 13.267,13.191 14.270 L 13.156 14.400 11.461 14.400 C 10.529 14.400,9.741 14.390,9.709 14.378 C 9.662 14.360,9.754 13.942,10.207 12.128 C 10.513 10.903,10.782 9.832,10.804 9.749 L 10.844 9.598 12.559 9.609 C 13.502 9.615,14.288 9.635,14.306 9.652 " fill="#373B4D" stroke="none" fill-rule="evenodd"></path></svg>