<svg width="24" height="24" viewBox="0 0 24 24" fill="none" xmlns="http://www.w3.org/2000/svg"><path d="M10.284 3.807 C 10.192 3.852,10.055 3.965,9.980 4.058 C 9.741 4.349,9.638 4.633,9.225 6.140 C 9.104 6.580,8.988 6.987,8.966 7.045 C 8.914 7.180,8.887 7.184,7.380 7.260 C 5.541 7.354,5.357 7.393,5.108 7.745 C 4.937 7.986,4.887 8.135,4.883 8.410 C 4.879 8.702,4.987 8.940,5.240 9.200 C 5.509 9.476,5.664 9.511,7.197 9.640 C 7.713 9.683,8.154 9.738,8.177 9.761 C 8.206 9.790,8.186 9.962,8.111 10.331 C 7.979 10.983,7.214 14.188,7.163 14.305 C 7.128 14.385,7.089 14.391,6.393 14.416 C 4.040 14.501,3.234 14.559,3.045 14.658 C 2.872 14.747,2.679 14.962,2.575 15.180 C 2.458 15.428,2.451 15.723,2.557 16.002 C 2.720 16.431,2.941 16.602,3.464 16.702 C 3.738 16.755,4.016 16.777,5.660 16.876 C 5.990 16.896,6.290 16.925,6.327 16.940 C 6.403 16.970,6.409 16.908,6.234 17.980 C 6.089 18.862,6.052 19.373,6.117 19.570 C 6.179 19.759,6.550 20.141,6.767 20.240 C 6.962 20.328,7.183 20.340,7.477 20.277 C 7.922 20.182,8.123 19.935,8.374 19.172 C 8.573 18.570,8.826 17.701,8.963 17.150 L 9.050 16.800 9.375 16.801 C 9.698 16.802,10.926 16.852,11.875 16.903 L 12.370 16.930 12.343 17.195 C 12.328 17.341,12.272 17.739,12.219 18.080 C 12.089 18.910,12.059 19.339,12.117 19.550 C 12.169 19.740,12.494 20.103,12.715 20.218 C 13.046 20.389,13.601 20.330,13.877 20.094 C 14.204 19.814,14.428 19.188,15.004 16.950 L 15.043 16.800 16.644 16.800 L 18.246 16.800 18.413 16.684 C 18.848 16.381,19.131 15.943,19.131 15.575 C 19.131 15.318,18.976 14.974,18.788 14.816 C 18.497 14.570,18.402 14.553,16.531 14.425 C 16.130 14.397,15.788 14.362,15.772 14.346 C 15.756 14.329,15.775 14.159,15.814 13.968 C 15.886 13.616,16.720 10.057,16.798 9.768 L 16.840 9.612 18.530 9.587 C 20.507 9.559,20.742 9.536,20.979 9.350 C 21.164 9.206,21.363 8.987,21.435 8.852 C 21.506 8.717,21.534 8.319,21.485 8.139 C 21.422 7.905,21.227 7.619,21.052 7.503 C 20.852 7.371,20.584 7.337,19.140 7.261 C 17.557 7.178,17.541 7.175,17.579 6.944 C 17.590 6.876,17.671 6.424,17.759 5.940 C 18.026 4.466,18.027 4.474,17.626 4.088 C 17.322 3.797,17.173 3.747,16.659 3.766 C 16.332 3.779,16.278 3.792,16.148 3.891 C 15.810 4.149,15.723 4.359,15.288 5.960 C 15.136 6.521,14.999 7.030,14.985 7.090 L 14.958 7.200 13.689 7.196 C 12.290 7.192,11.707 7.163,11.639 7.095 C 11.605 7.061,11.641 6.769,11.777 5.961 C 11.878 5.362,11.960 4.811,11.960 4.735 C 11.960 4.537,11.878 4.369,11.665 4.133 C 11.418 3.860,11.225 3.774,10.795 3.747 C 10.500 3.728,10.427 3.736,10.284 3.807 M12.360 9.640 C 13.053 9.662,13.753 9.690,13.914 9.704 L 14.209 9.728 14.183 9.894 C 14.148 10.123,13.595 12.613,13.373 13.540 C 13.261 14.009,13.168 14.319,13.128 14.350 C 13.080 14.388,12.732 14.400,11.702 14.400 C 10.953 14.400,10.216 14.388,10.065 14.373 L 9.790 14.348 9.816 14.124 C 9.858 13.758,10.517 10.866,10.802 9.793 C 10.839 9.655,10.888 9.616,11.040 9.605 C 11.073 9.602,11.667 9.618,12.360 9.640 " fill="#373B4D" stroke="none" fill-rule="evenodd"></path></svg>