<svg width="24" height="24" viewBox="0 0 24 24" fill="none" xmlns="http://www.w3.org/2000/svg"><path d="M10.324 3.748 C 10.068 3.876,9.829 4.162,9.710 4.483 C 9.579 4.837,9.389 5.499,9.159 6.400 C 9.067 6.763,8.975 7.089,8.957 7.125 C 8.927 7.181,8.803 7.195,8.111 7.217 C 6.808 7.260,5.836 7.317,5.606 7.364 C 5.354 7.415,5.140 7.604,4.982 7.915 C 4.850 8.176,4.820 8.389,4.880 8.639 C 4.938 8.884,5.224 9.289,5.402 9.381 C 5.621 9.494,6.033 9.555,7.020 9.618 C 8.146 9.691,8.240 9.703,8.240 9.782 C 8.240 9.912,7.738 12.058,7.298 13.810 L 7.150 14.400 6.916 14.400 C 6.344 14.400,4.017 14.486,3.603 14.522 C 3.041 14.572,2.900 14.641,2.678 14.973 C 2.409 15.376,2.381 15.677,2.575 16.100 C 2.841 16.681,3.101 16.754,5.200 16.841 C 5.783 16.865,6.300 16.893,6.349 16.903 C 6.421 16.918,6.434 16.942,6.419 17.030 C 6.408 17.091,6.329 17.527,6.243 18.000 C 5.975 19.468,5.978 19.522,6.348 19.922 C 6.643 20.240,6.816 20.327,7.159 20.329 C 7.722 20.333,8.051 20.107,8.253 19.578 C 8.393 19.212,8.624 18.433,8.862 17.530 L 9.054 16.800 9.437 16.800 C 10.048 16.800,12.086 16.884,12.240 16.916 L 12.380 16.945 12.370 17.164 C 12.365 17.284,12.306 17.661,12.238 18.001 C 12.170 18.342,12.105 18.813,12.092 19.048 C 12.070 19.456,12.074 19.487,12.177 19.698 C 12.569 20.499,13.703 20.570,14.142 19.821 C 14.278 19.589,14.555 18.726,14.778 17.840 C 14.881 17.433,14.982 17.034,15.003 16.953 L 15.041 16.806 16.651 16.793 L 18.260 16.780 18.472 16.662 C 18.822 16.468,19.160 15.934,19.160 15.574 C 19.160 15.242,18.858 14.773,18.548 14.624 C 18.322 14.515,17.914 14.475,16.410 14.416 C 15.997 14.400,15.720 14.373,15.720 14.349 C 15.720 14.275,16.664 10.265,16.802 9.754 L 16.843 9.600 17.992 9.598 C 18.623 9.596,19.504 9.581,19.949 9.564 C 20.750 9.532,20.760 9.531,20.923 9.418 C 21.130 9.275,21.394 8.979,21.465 8.811 C 21.495 8.740,21.520 8.567,21.520 8.426 C 21.520 7.997,21.368 7.687,21.049 7.466 C 20.849 7.328,20.593 7.300,18.960 7.241 C 18.311 7.217,17.730 7.188,17.670 7.176 C 17.519 7.145,17.523 7.070,17.739 6.018 C 17.947 5.002,17.990 4.632,17.923 4.428 C 17.858 4.231,17.426 3.832,17.206 3.766 C 16.978 3.698,16.481 3.702,16.311 3.773 C 16.096 3.863,15.875 4.082,15.779 4.300 C 15.647 4.599,15.434 5.348,14.996 7.050 L 14.957 7.200 13.508 7.197 C 12.130 7.193,11.637 7.171,11.574 7.108 C 11.559 7.092,11.650 6.550,11.777 5.903 C 11.931 5.117,11.999 4.686,11.981 4.603 C 11.945 4.443,11.655 4.051,11.463 3.905 C 11.297 3.778,11.160 3.740,10.740 3.704 C 10.521 3.685,10.430 3.695,10.324 3.748 M13.512 9.667 L 14.245 9.692 14.219 9.856 C 14.172 10.147,13.355 13.661,13.197 14.252 L 13.156 14.403 11.500 14.392 C 10.312 14.383,9.831 14.367,9.798 14.334 C 9.763 14.299,9.768 14.206,9.818 13.954 C 9.947 13.315,10.642 10.348,10.804 9.744 L 10.846 9.588 11.813 9.615 C 12.345 9.629,13.110 9.653,13.512 9.667 " fill="#373B4D" stroke="none" fill-rule="evenodd"></path></svg>