<svg width="24" height="24" viewBox="0 0 24 24" fill="none" xmlns="http://www.w3.org/2000/svg"><path d="M10.460 3.684 C 10.250 3.733,9.924 3.982,9.811 4.181 C 9.693 4.390,9.576 4.776,9.279 5.940 C 9.145 6.468,9.017 6.968,8.996 7.050 L 8.957 7.200 8.308 7.202 C 7.300 7.204,5.716 7.272,5.552 7.320 C 5.360 7.376,5.054 7.682,4.934 7.939 C 4.830 8.164,4.810 8.563,4.893 8.787 C 5.020 9.131,5.358 9.452,5.667 9.522 C 5.751 9.541,6.297 9.575,6.880 9.599 C 7.463 9.623,8.019 9.652,8.115 9.664 L 8.289 9.686 8.263 9.853 C 8.240 9.995,7.315 13.812,7.197 14.250 L 7.157 14.400 6.428 14.401 C 5.241 14.404,3.311 14.473,3.152 14.520 C 2.955 14.577,2.659 14.872,2.538 15.131 C 2.294 15.655,2.511 16.324,3.023 16.624 C 3.247 16.755,3.585 16.786,5.213 16.822 C 6.209 16.844,6.450 16.860,6.467 16.905 C 6.479 16.935,6.395 17.379,6.280 17.890 C 6.030 19.002,5.990 19.426,6.112 19.662 C 6.206 19.845,6.525 20.164,6.702 20.252 C 7.141 20.473,7.707 20.372,8.049 20.012 C 8.242 19.809,8.427 19.253,8.800 17.760 C 8.890 17.397,8.982 17.032,9.004 16.950 L 9.043 16.800 9.552 16.800 C 10.538 16.800,12.397 16.853,12.444 16.883 C 12.480 16.905,12.438 17.154,12.280 17.866 C 12.028 18.998,11.988 19.423,12.112 19.663 C 12.206 19.845,12.525 20.164,12.702 20.252 C 13.141 20.473,13.707 20.372,14.049 20.012 C 14.242 19.809,14.427 19.253,14.800 17.760 C 14.890 17.397,14.982 17.032,15.004 16.950 L 15.043 16.800 16.643 16.800 L 18.243 16.800 18.445 16.698 C 19.290 16.269,19.408 15.200,18.671 14.656 C 18.399 14.457,18.398 14.456,16.746 14.416 L 15.711 14.391 15.737 14.225 C 15.784 13.920,16.584 10.563,16.801 9.755 L 16.842 9.603 18.771 9.591 C 20.969 9.578,20.835 9.599,21.206 9.213 C 21.448 8.962,21.526 8.798,21.550 8.497 C 21.586 8.051,21.385 7.647,21.007 7.404 L 20.803 7.274 19.471 7.238 C 18.739 7.219,18.014 7.202,17.860 7.201 C 17.706 7.200,17.556 7.184,17.527 7.165 C 17.484 7.138,17.505 7.001,17.636 6.456 C 17.875 5.457,17.921 5.217,17.946 4.820 L 17.969 4.460 17.807 4.220 C 17.711 4.078,17.560 3.923,17.438 3.841 C 17.241 3.708,17.212 3.701,16.818 3.686 C 16.443 3.673,16.389 3.680,16.252 3.762 C 15.797 4.034,15.729 4.184,15.295 5.880 C 15.152 6.441,15.017 6.968,14.996 7.050 L 14.957 7.200 13.283 7.200 C 11.881 7.200,11.602 7.191,11.562 7.143 C 11.506 7.075,11.519 6.993,11.776 5.835 C 12.021 4.731,12.030 4.647,11.926 4.433 C 11.804 4.181,11.506 3.859,11.310 3.767 C 11.109 3.673,10.685 3.631,10.460 3.684 M14.023 9.664 L 14.266 9.690 14.231 9.914 C 14.212 10.037,14.117 10.471,14.020 10.879 C 13.820 11.722,13.259 14.023,13.197 14.249 L 13.157 14.400 11.438 14.400 C 9.917 14.400,9.720 14.393,9.720 14.338 C 9.720 14.201,10.541 10.722,10.799 9.764 L 10.847 9.587 12.313 9.613 C 13.120 9.627,13.889 9.650,14.023 9.664 " fill="#373B4D" stroke="none" fill-rule="evenodd"></path></svg>