<svg width="24" height="24" viewBox="0 0 24 24" fill="none" xmlns="http://www.w3.org/2000/svg"><path d="M10.400 3.707 C 10.244 3.772,9.984 3.983,9.878 4.129 C 9.728 4.336,9.549 4.892,9.223 6.161 C 9.080 6.716,8.958 7.174,8.952 7.179 C 8.945 7.184,8.301 7.210,7.520 7.236 C 6.000 7.286,5.590 7.322,5.400 7.420 C 5.220 7.513,4.969 7.856,4.895 8.110 C 4.780 8.508,4.870 8.837,5.199 9.209 C 5.457 9.503,5.651 9.540,7.420 9.642 C 7.860 9.668,8.233 9.701,8.249 9.716 C 8.265 9.730,8.181 10.156,8.062 10.661 C 7.663 12.350,7.173 14.361,7.156 14.375 C 7.147 14.382,6.384 14.410,5.460 14.436 C 3.516 14.491,3.162 14.522,2.958 14.656 C 2.775 14.778,2.537 15.128,2.473 15.370 C 2.386 15.701,2.524 16.154,2.797 16.442 C 3.051 16.709,3.428 16.771,5.220 16.841 C 5.836 16.865,6.363 16.892,6.392 16.902 C 6.452 16.922,6.458 16.874,6.236 18.054 C 6.025 19.182,6.009 19.377,6.109 19.605 C 6.202 19.815,6.540 20.162,6.752 20.264 C 6.852 20.313,6.997 20.337,7.200 20.338 C 7.581 20.341,7.892 20.203,8.079 19.949 C 8.231 19.741,8.470 19.015,8.802 17.750 L 9.052 16.800 9.496 16.800 C 10.075 16.800,12.011 16.872,12.230 16.902 C 12.395 16.924,12.400 16.929,12.400 17.072 C 12.399 17.154,12.326 17.589,12.236 18.040 C 11.986 19.292,12.001 19.553,12.344 19.953 C 12.672 20.338,13.305 20.461,13.752 20.227 C 14.151 20.019,14.358 19.522,14.824 17.660 C 14.901 17.352,14.982 17.032,15.004 16.950 L 15.043 16.800 16.552 16.799 C 17.434 16.798,18.135 16.781,18.240 16.757 C 18.495 16.699,18.680 16.564,18.891 16.283 C 19.217 15.850,19.235 15.394,18.944 14.970 C 18.763 14.708,18.550 14.567,18.262 14.520 C 18.131 14.499,17.504 14.460,16.869 14.433 L 15.714 14.384 15.740 14.242 C 15.795 13.938,16.627 10.424,16.802 9.756 L 16.840 9.613 18.710 9.587 C 19.877 9.571,20.640 9.545,20.740 9.517 C 20.854 9.486,20.982 9.390,21.185 9.184 C 21.497 8.869,21.534 8.775,21.528 8.312 C 21.523 7.968,21.303 7.607,20.984 7.420 C 20.828 7.329,20.754 7.318,20.057 7.283 C 19.641 7.262,18.920 7.232,18.455 7.218 C 17.990 7.203,17.588 7.177,17.562 7.161 C 17.508 7.128,17.525 7.021,17.780 5.820 C 17.959 4.979,17.997 4.547,17.907 4.374 C 17.815 4.196,17.514 3.899,17.335 3.809 C 17.128 3.705,16.728 3.664,16.461 3.720 C 16.213 3.771,15.923 3.998,15.803 4.235 C 15.679 4.480,15.436 5.324,14.995 7.050 L 14.957 7.200 13.648 7.200 C 12.929 7.200,12.165 7.188,11.950 7.174 C 11.589 7.150,11.560 7.142,11.559 7.064 C 11.558 7.018,11.660 6.464,11.785 5.834 L 12.014 4.688 11.943 4.502 C 11.853 4.266,11.486 3.867,11.285 3.787 C 11.120 3.721,10.500 3.665,10.400 3.707 M13.634 9.666 L 14.248 9.692 14.223 9.856 C 14.174 10.169,13.378 13.578,13.197 14.250 L 13.157 14.400 11.536 14.400 C 10.437 14.400,9.888 14.386,9.833 14.356 C 9.763 14.319,9.755 14.288,9.777 14.146 C 9.832 13.795,10.602 10.496,10.804 9.744 L 10.846 9.588 11.933 9.615 C 12.531 9.629,13.296 9.653,13.634 9.666 " fill="#373B4D" stroke="none" fill-rule="evenodd"></path></svg>