<svg width="24" height="24" viewBox="0 0 24 24" fill="none" xmlns="http://www.w3.org/2000/svg"><path d="M10.260 3.782 C 9.772 4.115,9.715 4.241,9.260 6.020 C 9.136 6.504,9.018 6.965,8.997 7.044 L 8.960 7.189 7.850 7.216 C 6.408 7.251,5.619 7.307,5.452 7.386 C 5.291 7.463,5.071 7.702,4.957 7.925 C 4.837 8.161,4.813 8.498,4.898 8.753 C 4.970 8.972,5.257 9.325,5.437 9.418 C 5.619 9.512,5.980 9.556,7.140 9.622 C 7.756 9.657,8.264 9.691,8.271 9.697 C 8.277 9.703,8.261 9.805,8.237 9.924 C 8.190 10.147,7.268 13.988,7.199 14.244 L 7.160 14.388 5.870 14.416 C 4.011 14.455,3.213 14.506,3.040 14.595 C 2.833 14.701,2.535 15.089,2.478 15.327 C 2.391 15.689,2.501 16.119,2.754 16.407 C 3.023 16.714,3.342 16.770,5.220 16.839 C 5.814 16.862,6.334 16.880,6.375 16.880 C 6.466 16.880,6.461 16.926,6.239 18.062 C 5.964 19.469,5.971 19.573,6.382 19.983 C 6.577 20.179,6.680 20.249,6.844 20.297 C 7.372 20.454,7.896 20.280,8.138 19.867 C 8.282 19.621,8.490 18.962,8.781 17.825 C 8.921 17.278,9.046 16.821,9.059 16.808 C 9.104 16.763,12.364 16.868,12.412 16.916 C 12.447 16.951,12.411 17.197,12.263 17.927 C 12.009 19.185,11.996 19.369,12.137 19.657 C 12.471 20.339,13.330 20.571,13.909 20.135 C 14.178 19.932,14.365 19.446,14.746 17.960 C 14.867 17.487,14.983 17.032,15.004 16.950 L 15.043 16.800 16.643 16.800 C 18.475 16.800,18.390 16.815,18.781 16.424 C 19.173 16.032,19.261 15.529,19.015 15.079 C 18.856 14.785,18.603 14.575,18.347 14.522 C 18.145 14.480,16.652 14.402,16.026 14.401 L 15.711 14.400 15.738 14.250 C 15.802 13.890,16.630 10.391,16.801 9.758 L 16.840 9.612 18.730 9.588 C 19.939 9.573,20.675 9.549,20.771 9.520 C 20.960 9.464,21.366 9.075,21.462 8.858 C 21.506 8.757,21.533 8.591,21.535 8.400 C 21.538 8.148,21.521 8.067,21.431 7.895 C 21.301 7.647,21.002 7.374,20.804 7.323 C 20.725 7.302,19.967 7.264,19.120 7.239 C 18.273 7.213,17.565 7.183,17.546 7.171 C 17.501 7.144,17.531 6.959,17.705 6.180 C 17.963 5.019,18.015 4.578,17.914 4.387 C 17.822 4.213,17.589 3.960,17.415 3.845 C 17.269 3.748,17.178 3.722,16.907 3.699 C 16.517 3.667,16.311 3.712,16.103 3.877 C 15.875 4.059,15.796 4.182,15.673 4.547 C 15.582 4.817,15.275 5.953,14.995 7.050 L 14.957 7.200 13.708 7.200 C 13.022 7.200,12.255 7.188,12.005 7.173 L 11.550 7.147 11.574 6.915 C 11.587 6.788,11.679 6.304,11.778 5.841 C 12.033 4.642,12.033 4.651,11.895 4.397 C 11.757 4.143,11.499 3.877,11.299 3.782 C 11.209 3.740,11.014 3.706,10.787 3.693 C 10.437 3.674,10.412 3.678,10.260 3.782 M13.774 9.667 L 14.247 9.692 14.221 9.876 C 14.177 10.181,13.416 13.431,13.197 14.250 L 13.157 14.400 11.548 14.399 C 10.664 14.399,9.900 14.388,9.850 14.375 C 9.783 14.357,9.760 14.321,9.760 14.235 C 9.760 14.080,10.540 10.727,10.804 9.746 L 10.846 9.588 12.073 9.615 C 12.748 9.630,13.513 9.653,13.774 9.667 " fill="#373B4D" stroke="none" fill-rule="evenodd"></path></svg>