<svg width="24" height="24" viewBox="0 0 24 24" fill="none" xmlns="http://www.w3.org/2000/svg"><path d="M10.191 3.826 C 9.776 4.106,9.710 4.260,9.278 5.948 C 9.144 6.472,9.018 6.965,8.997 7.044 L 8.960 7.187 7.750 7.216 C 6.231 7.251,5.606 7.294,5.450 7.375 C 5.384 7.409,5.247 7.529,5.146 7.642 C 4.720 8.115,4.742 8.791,5.197 9.232 C 5.509 9.535,5.505 9.534,7.513 9.636 C 7.917 9.657,8.257 9.683,8.269 9.695 C 8.281 9.707,8.250 9.893,8.201 10.109 C 8.096 10.568,7.265 13.997,7.203 14.229 L 7.160 14.387 5.750 14.415 C 3.945 14.451,3.204 14.495,3.049 14.575 C 2.867 14.669,2.575 15.019,2.504 15.227 C 2.324 15.754,2.580 16.408,3.055 16.637 C 3.279 16.746,3.792 16.791,5.270 16.833 C 5.892 16.850,6.417 16.882,6.437 16.902 C 6.458 16.925,6.395 17.316,6.278 17.880 C 6.045 19.001,6.003 19.395,6.092 19.608 C 6.173 19.802,6.451 20.100,6.671 20.228 C 6.796 20.302,6.924 20.337,7.118 20.351 C 7.597 20.385,7.985 20.185,8.177 19.806 C 8.314 19.534,8.524 18.852,8.759 17.920 C 8.872 17.469,8.983 17.030,9.006 16.944 L 9.046 16.788 10.453 16.814 C 11.227 16.829,11.990 16.852,12.150 16.866 C 12.438 16.891,12.440 16.892,12.440 17.008 C 12.440 17.073,12.376 17.416,12.299 17.771 C 11.957 19.332,11.960 19.545,12.325 19.940 C 12.579 20.216,12.794 20.327,13.118 20.351 C 13.597 20.385,13.985 20.185,14.177 19.806 C 14.314 19.534,14.524 18.852,14.759 17.920 C 14.872 17.469,14.982 17.032,15.004 16.950 L 15.043 16.800 16.643 16.800 L 18.243 16.800 18.435 16.703 C 18.541 16.649,18.717 16.507,18.826 16.388 C 19.256 15.917,19.269 15.303,18.859 14.847 C 18.547 14.500,18.470 14.479,17.351 14.438 C 16.817 14.419,16.230 14.402,16.046 14.401 L 15.713 14.400 15.740 14.230 C 15.791 13.916,16.601 10.499,16.801 9.757 L 16.841 9.607 18.731 9.590 C 20.077 9.577,20.666 9.558,20.780 9.522 C 20.885 9.490,21.025 9.387,21.188 9.221 C 21.387 9.018,21.448 8.924,21.502 8.737 C 21.657 8.206,21.458 7.705,20.962 7.377 C 20.821 7.283,20.800 7.282,19.220 7.239 C 18.340 7.215,17.598 7.188,17.570 7.179 C 17.491 7.153,17.508 7.018,17.699 6.194 C 17.896 5.341,17.958 4.972,17.959 4.638 C 17.960 4.432,17.946 4.399,17.769 4.179 C 17.664 4.048,17.501 3.890,17.407 3.827 C 17.257 3.726,17.190 3.710,16.846 3.691 C 16.389 3.666,16.245 3.714,15.977 3.982 C 15.730 4.228,15.681 4.381,14.995 7.051 L 14.956 7.203 13.281 7.191 C 12.360 7.185,11.592 7.166,11.575 7.149 C 11.521 7.094,11.558 6.847,11.759 5.920 C 12.025 4.696,12.031 4.643,11.922 4.435 C 11.787 4.175,11.565 3.926,11.365 3.809 C 11.210 3.718,11.126 3.700,10.801 3.687 L 10.420 3.672 10.191 3.826 M13.153 9.638 C 13.731 9.656,14.216 9.683,14.230 9.697 C 14.277 9.743,14.159 10.297,13.703 12.183 C 13.453 13.215,13.228 14.137,13.203 14.230 L 13.157 14.400 11.488 14.399 C 10.571 14.399,9.797 14.384,9.768 14.366 C 9.727 14.340,9.737 14.242,9.816 13.877 C 10.009 12.989,10.585 10.580,10.804 9.750 L 10.843 9.600 11.472 9.602 C 11.817 9.603,12.574 9.619,13.153 9.638 " fill="#373B4D" stroke="none" fill-rule="evenodd"></path></svg>