<svg width="24" height="24" viewBox="0 0 24 24" fill="none" xmlns="http://www.w3.org/2000/svg"><path d="M10.260 3.791 C 10.113 3.884,9.865 4.155,9.787 4.308 C 9.692 4.493,9.460 5.248,9.219 6.160 C 9.093 6.633,8.982 7.050,8.971 7.088 C 8.944 7.184,8.867 7.193,7.660 7.240 C 6.268 7.295,5.631 7.345,5.470 7.415 C 5.066 7.588,4.764 8.209,4.878 8.632 C 4.938 8.854,5.233 9.280,5.391 9.372 C 5.575 9.479,6.042 9.550,7.030 9.619 C 7.991 9.687,8.189 9.710,8.221 9.761 C 8.254 9.816,7.993 10.978,7.435 13.250 L 7.153 14.400 6.882 14.400 C 6.424 14.400,4.372 14.479,3.788 14.520 C 3.164 14.563,2.972 14.625,2.776 14.847 C 2.430 15.242,2.370 15.667,2.595 16.133 C 2.856 16.673,3.143 16.752,5.160 16.840 C 6.390 16.894,6.400 16.895,6.400 17.022 C 6.400 17.077,6.330 17.512,6.244 17.991 C 5.979 19.463,5.982 19.514,6.347 19.917 C 6.651 20.253,6.838 20.334,7.256 20.312 C 7.840 20.282,8.079 20.065,8.332 19.337 C 8.474 18.930,8.806 17.779,8.962 17.150 L 9.050 16.800 9.435 16.801 C 9.887 16.801,11.507 16.866,12.010 16.903 L 12.360 16.928 12.360 17.114 C 12.360 17.216,12.306 17.606,12.239 17.980 C 12.173 18.354,12.108 18.842,12.094 19.065 C 12.070 19.438,12.076 19.487,12.162 19.665 C 12.448 20.255,13.145 20.504,13.708 20.216 C 13.845 20.146,13.987 20.032,14.064 19.933 C 14.216 19.733,14.549 18.746,14.798 17.760 C 14.890 17.397,14.983 17.032,15.004 16.950 L 15.043 16.800 16.632 16.800 L 18.220 16.799 18.422 16.683 C 18.795 16.470,19.101 16.029,19.147 15.641 C 19.187 15.308,18.896 14.811,18.561 14.641 C 18.361 14.538,17.944 14.489,16.860 14.440 C 16.000 14.401,15.720 14.376,15.720 14.338 C 15.720 14.286,16.700 10.135,16.801 9.756 L 16.840 9.612 18.650 9.586 C 19.645 9.572,20.548 9.543,20.656 9.520 C 20.887 9.473,21.127 9.290,21.342 8.997 C 21.470 8.823,21.494 8.757,21.510 8.527 C 21.520 8.380,21.509 8.188,21.485 8.099 C 21.417 7.848,21.224 7.578,21.033 7.466 C 20.818 7.339,20.443 7.300,18.840 7.237 C 18.213 7.212,17.666 7.174,17.625 7.152 C 17.534 7.103,17.544 7.003,17.740 6.020 C 17.918 5.128,17.977 4.684,17.942 4.499 C 17.922 4.389,17.852 4.286,17.686 4.119 C 17.347 3.781,17.255 3.742,16.780 3.741 C 16.416 3.740,16.363 3.750,16.196 3.848 C 15.825 4.066,15.732 4.281,15.284 5.960 C 15.134 6.521,14.999 7.031,14.984 7.094 L 14.956 7.208 13.328 7.191 C 12.433 7.182,11.669 7.160,11.632 7.143 C 11.584 7.122,11.569 7.080,11.581 7.006 C 11.591 6.948,11.682 6.450,11.783 5.900 C 12.029 4.569,12.029 4.601,11.779 4.258 C 11.656 4.090,11.503 3.936,11.387 3.864 C 11.216 3.759,11.156 3.745,10.789 3.731 C 10.438 3.717,10.363 3.726,10.260 3.791 M12.700 9.645 C 13.536 9.670,14.227 9.697,14.236 9.704 C 14.260 9.725,13.390 13.537,13.203 14.230 L 13.157 14.400 11.868 14.400 C 11.160 14.400,10.405 14.388,10.190 14.374 L 9.800 14.348 9.800 14.189 C 9.800 14.101,9.873 13.703,9.962 13.305 C 10.148 12.469,10.797 9.733,10.828 9.654 C 10.853 9.588,10.815 9.588,12.700 9.645 " fill="#373B4D" stroke="none" fill-rule="evenodd"></path></svg>