<svg width="24" height="24" viewBox="0 0 24 24" fill="none" xmlns="http://www.w3.org/2000/svg"><path d="M10.198 3.871 C 9.845 4.098,9.686 4.468,9.236 6.100 C 9.102 6.584,8.969 7.018,8.939 7.064 C 8.869 7.175,8.791 7.186,7.460 7.259 C 6.291 7.323,5.752 7.373,5.526 7.438 C 5.322 7.497,5.150 7.648,5.019 7.885 C 4.916 8.071,4.900 8.141,4.901 8.400 C 4.902 8.764,4.981 8.937,5.271 9.208 C 5.527 9.447,5.706 9.499,6.551 9.580 C 7.532 9.674,8.161 9.748,8.185 9.772 C 8.232 9.819,7.967 11.034,7.435 13.207 C 7.160 14.329,7.152 14.355,7.047 14.377 C 6.988 14.389,6.454 14.417,5.860 14.440 C 4.063 14.510,3.369 14.561,3.091 14.646 C 2.912 14.701,2.620 15.039,2.538 15.287 C 2.415 15.656,2.532 16.129,2.816 16.413 C 3.084 16.682,3.416 16.741,5.317 16.862 C 5.854 16.896,6.309 16.933,6.327 16.944 C 6.380 16.977,6.366 17.162,6.259 17.809 C 6.126 18.621,6.060 19.304,6.097 19.498 C 6.120 19.621,6.190 19.719,6.415 19.944 C 6.745 20.274,6.913 20.344,7.287 20.305 C 7.776 20.255,8.022 20.057,8.235 19.544 C 8.372 19.216,8.735 18.031,8.925 17.295 L 9.055 16.788 9.777 16.814 C 10.937 16.856,12.338 16.928,12.358 16.946 C 12.368 16.955,12.317 17.372,12.246 17.871 C 12.067 19.115,12.052 19.355,12.136 19.576 C 12.210 19.769,12.530 20.120,12.732 20.230 C 12.823 20.279,12.953 20.299,13.181 20.299 C 14.033 20.301,14.232 19.937,14.999 16.970 L 15.043 16.800 16.648 16.800 L 18.253 16.800 18.462 16.642 C 19.132 16.136,19.304 15.467,18.900 14.937 C 18.666 14.629,18.388 14.560,16.980 14.461 C 15.952 14.388,15.760 14.365,15.760 14.312 C 15.760 14.194,16.623 10.416,16.801 9.756 L 16.843 9.600 17.912 9.598 C 19.285 9.596,20.493 9.543,20.716 9.477 C 20.908 9.419,21.265 9.119,21.398 8.903 C 21.504 8.731,21.546 8.342,21.480 8.136 C 21.399 7.879,21.202 7.604,21.025 7.501 C 20.818 7.380,20.500 7.341,19.040 7.258 C 17.964 7.197,17.667 7.163,17.595 7.091 C 17.574 7.070,17.625 6.688,17.720 6.166 C 17.933 4.991,17.968 4.729,17.938 4.551 C 17.908 4.368,17.629 4.044,17.375 3.895 C 17.071 3.717,16.417 3.716,16.152 3.894 C 15.811 4.122,15.631 4.613,15.000 7.035 L 14.954 7.209 13.407 7.188 C 12.556 7.175,11.810 7.153,11.750 7.138 C 11.604 7.102,11.605 7.034,11.780 5.960 C 11.982 4.717,11.987 4.649,11.884 4.449 C 11.766 4.216,11.580 4.015,11.369 3.892 C 11.215 3.801,11.132 3.784,10.785 3.770 C 10.392 3.754,10.375 3.757,10.198 3.871 M12.260 9.639 C 12.876 9.660,13.566 9.689,13.793 9.703 L 14.206 9.728 14.179 9.894 C 14.140 10.136,13.539 12.842,13.374 13.520 C 13.186 14.290,13.160 14.349,12.989 14.381 C 12.803 14.416,9.854 14.388,9.817 14.351 C 9.759 14.292,10.078 12.757,10.567 10.746 C 10.817 9.716,10.867 9.599,11.050 9.601 C 11.100 9.601,11.644 9.618,12.260 9.639 " fill="#373B4D" stroke="none" fill-rule="evenodd"></path></svg>