<svg width="24" height="24" viewBox="0 0 24 24" fill="none" xmlns="http://www.w3.org/2000/svg"><path d="M16.020 4.961 C 14.979 5.035,14.231 5.490,12.590 7.047 L 12.000 7.606 11.390 7.025 C 10.375 6.059,9.869 5.665,9.195 5.319 C 8.649 5.039,8.458 5.006,7.180 4.975 L 6.100 4.949 5.676 5.115 C 4.759 5.475,3.861 6.146,3.290 6.900 C 2.755 7.605,2.404 8.832,2.454 9.820 C 2.522 11.158,2.880 11.885,4.095 13.154 C 4.781 13.872,10.667 19.854,11.419 20.600 L 12.005 21.180 13.672 19.499 C 16.892 16.254,20.172 12.896,20.488 12.520 C 20.869 12.066,21.012 11.831,21.230 11.300 C 21.486 10.675,21.533 10.368,21.510 9.465 C 21.493 8.783,21.479 8.661,21.383 8.340 C 21.243 7.873,20.979 7.319,20.715 6.937 C 19.970 5.859,18.650 5.046,17.540 4.980 C 16.850 4.940,16.403 4.934,16.020 4.961 " fill="#373B4D" stroke="none" fill-rule="evenodd"></path></svg>