<svg width="24" height="24" viewBox="0 0 24 24" fill="none" xmlns="http://www.w3.org/2000/svg"><path d="M5.740 5.094 C 5.270 5.289,4.979 5.444,4.557 5.725 C 4.123 6.013,3.417 6.697,3.180 7.060 C 2.699 7.793,2.396 8.987,2.457 9.900 C 2.535 11.055,2.884 11.820,3.790 12.820 C 4.192 13.264,7.708 16.855,10.488 19.659 L 11.995 21.180 12.500 20.680 C 13.190 19.997,18.766 14.326,19.696 13.360 C 20.805 12.210,21.048 11.858,21.349 10.966 C 21.485 10.563,21.493 10.505,21.510 9.900 C 21.540 8.825,21.445 8.330,21.052 7.526 C 20.409 6.210,19.016 5.170,17.671 5.001 C 17.185 4.940,15.983 4.949,15.634 5.016 C 14.773 5.182,14.062 5.660,12.550 7.088 L 12.000 7.607 11.410 7.048 C 11.085 6.740,10.667 6.359,10.480 6.201 C 9.830 5.651,9.033 5.181,8.580 5.079 C 8.359 5.029,7.184 4.963,6.500 4.962 C 6.092 4.962,6.037 4.971,5.740 5.094 " fill="#373B4D" stroke="none" fill-rule="evenodd"></path></svg>