<svg width="24" height="24" viewBox="0 0 24 24" fill="none" xmlns="http://www.w3.org/2000/svg"><path d="M6.500 4.864 C 5.407 5.037,4.521 5.496,3.748 6.292 C 3.111 6.948,2.701 7.730,2.496 8.680 C 2.441 8.936,2.423 9.179,2.426 9.660 C 2.429 10.239,2.441 10.345,2.551 10.769 C 2.693 11.312,2.944 11.868,3.247 12.309 C 3.406 12.540,4.542 13.704,7.730 16.899 L 12.000 21.180 16.254 16.916 C 19.153 14.012,20.576 12.558,20.718 12.356 C 21.093 11.826,21.351 11.235,21.507 10.554 C 21.602 10.136,21.601 9.134,21.505 8.688 C 21.180 7.176,20.268 5.979,18.943 5.325 C 18.196 4.956,17.682 4.840,16.800 4.840 C 15.928 4.840,15.304 4.981,14.620 5.334 C 14.128 5.588,13.742 5.903,12.834 6.792 L 11.999 7.610 11.250 6.875 C 10.333 5.976,10.010 5.696,9.643 5.482 C 9.054 5.138,8.353 4.902,7.797 4.863 C 7.057 4.809,6.845 4.810,6.500 4.864 " fill="#373B4D" stroke="none" fill-rule="evenodd"></path></svg>