<svg width="24" height="24" viewBox="0 0 24 24" fill="none" xmlns="http://www.w3.org/2000/svg"><path d="M6.360 4.919 C 5.998 4.960,5.597 5.095,5.114 5.339 C 3.628 6.088,2.642 7.450,2.477 8.980 C 2.335 10.299,2.640 11.496,3.339 12.360 C 3.681 12.783,5.507 14.657,8.854 18.020 L 12.000 21.180 15.126 18.040 C 18.572 14.578,20.328 12.774,20.687 12.326 C 21.085 11.828,21.409 11.048,21.526 10.303 C 21.581 9.955,21.545 8.964,21.465 8.600 C 21.040 6.672,19.428 5.168,17.520 4.921 C 17.118 4.869,16.342 4.870,15.988 4.923 C 14.817 5.097,14.194 5.483,12.610 7.017 L 12.001 7.608 11.330 6.959 C 10.962 6.602,10.496 6.173,10.295 6.005 C 9.649 5.465,8.982 5.122,8.300 4.981 C 7.928 4.903,6.814 4.868,6.360 4.919 " fill="#373B4D" stroke="none" fill-rule="evenodd"></path></svg>