<svg width="24" height="24" viewBox="0 0 24 24" fill="none" xmlns="http://www.w3.org/2000/svg"><path d="M15.740 4.977 C 14.777 5.169,14.075 5.625,12.649 6.986 L 11.999 7.607 11.469 7.097 C 10.430 6.094,9.785 5.591,9.133 5.278 C 8.570 5.007,8.468 4.991,7.227 4.970 L 6.114 4.952 5.807 5.061 C 4.782 5.424,3.842 6.125,3.226 6.985 C 2.716 7.698,2.398 8.874,2.454 9.846 C 2.525 11.110,2.862 11.840,3.883 12.940 C 4.297 13.387,10.048 19.236,11.237 20.420 L 12.000 21.179 12.643 20.540 C 13.687 19.501,19.715 13.373,20.099 12.960 C 20.778 12.230,20.976 11.942,21.220 11.336 C 21.480 10.692,21.530 10.422,21.529 9.660 C 21.529 8.909,21.481 8.597,21.274 8.007 C 20.766 6.554,19.429 5.362,17.920 5.016 C 17.542 4.930,16.108 4.904,15.740 4.977 " fill="#373B4D" stroke="none" fill-rule="evenodd"></path></svg>