<svg width="24" height="24" viewBox="0 0 24 24" fill="none" xmlns="http://www.w3.org/2000/svg"><path d="M16.480 4.868 C 15.803 4.902,15.195 5.057,14.665 5.331 C 14.147 5.599,13.632 6.022,12.591 7.035 L 12.001 7.610 11.380 7.006 C 10.281 5.937,9.904 5.633,9.291 5.325 C 8.567 4.961,8.012 4.861,6.891 4.889 C 6.264 4.905,6.194 4.914,5.820 5.037 C 4.186 5.574,2.950 6.871,2.557 8.460 C 2.454 8.877,2.415 9.732,2.475 10.275 C 2.553 10.982,2.885 11.807,3.299 12.320 C 3.668 12.778,5.301 14.455,8.692 17.860 L 11.999 21.180 15.170 17.999 C 18.689 14.468,20.453 12.653,20.759 12.248 C 21.109 11.787,21.413 11.029,21.521 10.353 C 21.600 9.860,21.553 8.908,21.427 8.428 C 20.954 6.631,19.465 5.230,17.724 4.944 C 17.352 4.883,16.831 4.851,16.480 4.868 " fill="#373B4D" stroke="none" fill-rule="evenodd"></path></svg>