<svg width="24" height="24" viewBox="0 0 24 24" fill="none" xmlns="http://www.w3.org/2000/svg"><path d="M16.160 4.923 C 15.716 4.956,15.401 5.032,14.997 5.204 C 14.299 5.501,13.694 5.967,12.491 7.135 L 12.001 7.610 11.451 7.078 C 10.389 6.051,9.777 5.574,9.141 5.276 C 8.531 4.990,8.319 4.955,7.160 4.947 L 6.140 4.940 5.760 5.072 C 4.803 5.406,3.845 6.122,3.259 6.940 C 2.501 8.000,2.253 9.482,2.604 10.857 C 2.809 11.660,3.105 12.121,4.062 13.136 C 4.680 13.791,10.527 19.723,11.596 20.779 L 12.000 21.178 12.324 20.859 C 13.223 19.974,19.346 13.763,19.946 13.128 C 20.326 12.725,20.721 12.269,20.824 12.115 C 21.066 11.750,21.297 11.223,21.429 10.732 C 21.523 10.385,21.535 10.264,21.537 9.680 C 21.540 8.956,21.489 8.628,21.281 8.017 C 20.717 6.358,19.041 5.036,17.380 4.939 C 16.645 4.896,16.532 4.895,16.160 4.923 " fill="#373B4D" stroke="none" fill-rule="evenodd"></path></svg>