<svg width="24" height="24" viewBox="0 0 24 24" fill="none" xmlns="http://www.w3.org/2000/svg"><path d="M6.080 4.987 C 5.827 5.029,4.987 5.442,4.564 5.732 C 4.183 5.994,3.446 6.701,3.211 7.031 C 2.984 7.349,2.785 7.819,2.639 8.384 C 2.414 9.255,2.392 9.841,2.556 10.592 C 2.778 11.607,3.156 12.175,4.598 13.660 C 6.048 15.153,11.976 21.160,11.999 21.160 C 12.024 21.160,17.854 15.252,19.392 13.668 C 20.807 12.210,21.015 11.920,21.364 10.920 L 21.496 10.540 21.496 9.680 C 21.496 8.873,21.489 8.796,21.389 8.427 C 21.045 7.154,20.152 6.054,18.970 5.447 C 18.174 5.038,17.408 4.913,16.189 4.993 C 15.405 5.044,15.301 5.067,14.864 5.286 C 14.279 5.580,13.657 6.063,12.610 7.037 L 12.000 7.604 11.350 6.996 C 10.602 6.296,10.245 6.002,9.740 5.670 C 9.243 5.342,8.791 5.132,8.480 5.083 C 7.975 5.004,6.368 4.940,6.080 4.987 " fill="#373B4D" stroke="none" fill-rule="evenodd"></path></svg>