<svg width="24" height="24" viewBox="0 0 24 24" fill="none" xmlns="http://www.w3.org/2000/svg"><path d="M6.048 5.003 C 5.834 5.045,5.223 5.332,4.789 5.595 C 4.608 5.704,4.277 5.957,4.053 6.156 C 3.278 6.844,2.974 7.290,2.726 8.102 C 2.401 9.163,2.368 9.885,2.604 10.786 C 2.858 11.755,3.214 12.231,5.235 14.307 C 7.637 16.772,11.960 21.140,11.998 21.140 C 12.038 21.140,16.197 16.938,18.730 14.340 C 20.801 12.216,20.981 11.982,21.364 10.918 L 21.529 10.460 21.503 9.615 C 21.484 8.955,21.460 8.706,21.398 8.475 C 21.083 7.318,20.409 6.383,19.409 5.719 C 18.475 5.100,17.617 4.909,16.185 5.002 C 15.408 5.053,15.168 5.113,14.713 5.374 C 14.117 5.714,13.576 6.144,12.570 7.076 L 12.000 7.604 11.370 7.017 C 10.345 6.063,9.760 5.626,9.064 5.297 C 8.619 5.086,8.428 5.054,7.320 5.001 C 6.352 4.955,6.288 4.955,6.048 5.003 " fill="#373B4D" stroke="none" fill-rule="evenodd"></path></svg>