<svg width="24" height="24" viewBox="0 0 24 24" fill="none" xmlns="http://www.w3.org/2000/svg"><path d="M11.690 2.517 C 11.619 2.535,11.466 2.622,11.349 2.710 C 10.974 2.993,9.524 4.398,6.941 6.982 C 3.966 9.958,2.636 11.340,2.522 11.576 C 2.357 11.916,2.450 12.442,2.727 12.743 C 2.963 12.999,3.259 13.132,3.593 13.132 C 3.931 13.132,4.156 13.037,4.526 12.738 L 4.800 12.517 4.801 15.848 C 4.802 19.666,4.834 20.679,4.963 20.946 C 5.056 21.138,5.310 21.379,5.509 21.465 C 5.731 21.560,6.598 21.611,7.560 21.585 C 8.693 21.554,8.837 21.529,9.076 21.328 C 9.332 21.111,9.473 20.896,9.519 20.648 C 9.541 20.531,9.586 19.982,9.620 19.428 C 9.746 17.361,9.756 17.314,10.146 17.050 L 10.380 16.891 11.960 16.862 L 13.540 16.833 13.808 17.040 C 14.241 17.374,14.285 17.528,14.360 18.960 C 14.420 20.087,14.476 20.744,14.524 20.872 C 14.579 21.018,14.951 21.396,15.106 21.463 C 15.343 21.566,16.132 21.613,17.180 21.586 C 17.730 21.572,18.247 21.542,18.328 21.519 C 18.525 21.464,18.820 21.225,19.030 20.953 L 19.200 20.733 19.200 16.625 L 19.200 12.517 19.474 12.738 C 19.847 13.039,20.070 13.133,20.420 13.134 C 20.878 13.136,21.220 12.899,21.444 12.424 C 21.671 11.944,21.584 11.666,20.995 11.003 C 20.501 10.446,13.522 3.459,13.020 3.019 C 12.800 2.826,12.548 2.636,12.460 2.597 C 12.270 2.512,11.872 2.471,11.690 2.517 " fill="#373B4D" stroke="none" fill-rule="evenodd"></path></svg>