<svg width="24" height="24" viewBox="0 0 24 24" fill="none" xmlns="http://www.w3.org/2000/svg"><path d="M11.571 2.584 C 11.328 2.707,10.822 3.177,8.900 5.064 C 7.077 6.854,3.720 10.245,3.002 11.020 C 2.531 11.529,2.468 11.634,2.465 11.912 C 2.461 12.266,2.545 12.498,2.766 12.739 C 3.028 13.026,3.180 13.092,3.579 13.092 C 3.964 13.092,4.137 13.026,4.530 12.728 L 4.800 12.523 4.801 15.672 C 4.803 18.875,4.838 20.368,4.923 20.757 C 4.982 21.031,5.231 21.312,5.529 21.440 C 5.824 21.567,6.424 21.611,7.460 21.581 C 8.756 21.545,8.989 21.487,9.259 21.133 C 9.495 20.824,9.551 20.529,9.661 19.020 C 9.774 17.465,9.808 17.331,10.155 17.065 L 10.380 16.892 11.966 16.867 L 13.552 16.841 13.775 17.025 C 14.219 17.390,14.255 17.531,14.380 19.400 C 14.470 20.754,14.516 20.949,14.806 21.228 C 15.009 21.422,15.252 21.510,15.714 21.558 C 16.578 21.646,18.274 21.585,18.467 21.459 C 18.523 21.422,18.711 21.257,18.884 21.091 L 19.200 20.789 19.200 16.656 L 19.200 12.523 19.470 12.728 C 19.866 13.028,20.039 13.096,20.420 13.098 C 20.700 13.100,20.764 13.086,20.928 12.989 C 21.156 12.856,21.414 12.510,21.507 12.215 C 21.657 11.740,21.532 11.575,19.362 9.366 C 16.978 6.940,13.205 3.188,12.880 2.921 C 12.550 2.649,12.373 2.573,12.000 2.542 C 11.764 2.523,11.672 2.532,11.571 2.584 " fill="#373B4D" stroke="none" fill-rule="evenodd"></path></svg>