<svg width="24" height="24" viewBox="0 0 24 24" fill="none" xmlns="http://www.w3.org/2000/svg"><path d="M11.460 2.596 C 11.208 2.741,8.629 5.251,5.748 8.157 C 3.506 10.420,2.597 11.373,2.496 11.568 C 2.427 11.701,2.416 12.151,2.478 12.357 C 2.613 12.812,3.097 13.157,3.604 13.159 C 3.929 13.160,4.227 13.024,4.570 12.719 L 4.800 12.514 4.802 16.127 C 4.804 19.926,4.826 20.740,4.934 20.948 C 5.028 21.130,5.434 21.474,5.619 21.530 C 5.850 21.600,8.464 21.597,8.741 21.527 C 8.981 21.466,9.275 21.231,9.421 20.982 C 9.549 20.764,9.588 20.434,9.620 19.320 C 9.652 18.207,9.706 17.542,9.777 17.408 C 9.845 17.276,10.004 17.126,10.232 16.978 L 10.404 16.867 11.965 16.848 L 13.525 16.829 13.804 17.020 C 14.185 17.281,14.275 17.440,14.321 17.948 C 14.341 18.164,14.376 18.847,14.398 19.467 C 14.420 20.088,14.459 20.680,14.485 20.785 C 14.546 21.026,14.950 21.450,15.186 21.520 C 15.392 21.581,17.461 21.618,18.004 21.570 C 18.394 21.536,18.444 21.522,18.617 21.398 C 18.721 21.323,18.894 21.143,19.003 20.996 L 19.200 20.730 19.200 16.622 L 19.200 12.515 19.430 12.710 C 19.833 13.052,20.079 13.164,20.428 13.165 C 20.936 13.166,21.429 12.734,21.559 12.172 C 21.640 11.821,21.554 11.618,21.117 11.126 C 20.262 10.162,13.964 3.843,12.900 2.881 C 12.529 2.546,12.382 2.482,11.980 2.481 C 11.700 2.481,11.635 2.495,11.460 2.596 " fill="#373B4D" stroke="none" fill-rule="evenodd"></path></svg>