<svg width="24" height="24" viewBox="0 0 24 24" fill="none" xmlns="http://www.w3.org/2000/svg"><path d="M11.532 2.641 C 11.250 2.784,10.499 3.499,7.705 6.279 C 4.797 9.171,2.809 11.205,2.621 11.477 C 2.515 11.632,2.502 11.683,2.502 11.955 C 2.501 12.341,2.562 12.514,2.778 12.736 C 3.004 12.968,3.164 13.046,3.464 13.070 C 3.811 13.098,4.076 13.022,4.426 12.793 C 4.593 12.685,4.740 12.607,4.754 12.621 C 4.768 12.635,4.792 14.253,4.807 16.218 C 4.834 19.784,4.865 20.590,4.983 20.873 C 5.075 21.094,5.347 21.349,5.587 21.439 C 5.912 21.561,6.596 21.613,7.460 21.583 C 8.260 21.555,8.745 21.491,8.949 21.386 C 9.154 21.280,9.356 21.007,9.440 20.721 C 9.532 20.409,9.573 20.105,9.680 18.940 C 9.815 17.460,9.827 17.413,10.144 17.101 L 10.359 16.889 11.950 16.871 C 12.824 16.861,13.562 16.864,13.589 16.878 C 13.718 16.942,14.022 17.279,14.091 17.434 C 14.196 17.672,14.262 18.123,14.361 19.280 C 14.460 20.426,14.522 20.787,14.657 21.018 C 14.838 21.327,15.208 21.503,15.794 21.560 C 16.634 21.642,18.154 21.583,18.416 21.459 C 18.485 21.427,18.689 21.263,18.871 21.097 L 19.200 20.794 19.200 16.677 C 19.200 14.413,19.210 12.560,19.222 12.560 C 19.234 12.560,19.338 12.630,19.453 12.715 C 19.777 12.954,19.993 13.049,20.265 13.070 C 20.709 13.106,20.865 13.060,21.096 12.827 C 21.336 12.584,21.486 12.298,21.511 12.039 C 21.551 11.627,21.385 11.435,18.224 8.223 C 16.153 6.118,13.458 3.468,12.931 3.019 C 12.545 2.690,12.368 2.606,11.998 2.577 C 11.743 2.558,11.676 2.567,11.532 2.641 " fill="#373B4D" stroke="none" fill-rule="evenodd"></path></svg>