<svg width="24" height="24" viewBox="0 0 24 24" fill="none" xmlns="http://www.w3.org/2000/svg"><path d="M11.539 2.560 C 11.277 2.689,9.925 3.989,6.759 7.157 C 3.617 10.300,2.589 11.370,2.491 11.600 C 2.393 11.826,2.437 12.340,2.574 12.573 C 2.793 12.947,3.275 13.192,3.704 13.148 C 3.996 13.118,4.223 13.008,4.533 12.744 L 4.800 12.518 4.802 16.029 C 4.803 19.676,4.830 20.682,4.931 20.923 C 4.996 21.079,5.303 21.369,5.522 21.481 C 5.830 21.638,8.607 21.624,8.914 21.463 C 9.097 21.368,9.393 21.065,9.460 20.905 C 9.546 20.701,9.594 20.191,9.640 19.018 C 9.702 17.412,9.723 17.333,10.168 17.026 L 10.384 16.878 11.950 16.853 L 13.517 16.827 13.675 16.932 C 13.936 17.105,14.120 17.283,14.202 17.444 C 14.294 17.625,14.340 18.107,14.401 19.540 C 14.445 20.579,14.463 20.766,14.532 20.900 C 14.615 21.062,14.825 21.293,14.996 21.411 C 15.167 21.528,15.195 21.534,15.796 21.570 C 16.566 21.616,18.163 21.585,18.375 21.520 C 18.550 21.467,18.855 21.200,19.062 20.917 L 19.200 20.729 19.200 16.624 L 19.200 12.518 19.468 12.740 C 19.809 13.021,20.040 13.132,20.325 13.153 C 20.800 13.187,21.212 12.930,21.447 12.452 C 21.678 11.983,21.623 11.723,21.180 11.200 C 20.489 10.382,13.098 2.990,12.688 2.706 C 12.455 2.544,12.259 2.484,11.960 2.482 C 11.778 2.481,11.652 2.504,11.539 2.560 " fill="#373B4D" stroke="none" fill-rule="evenodd"></path></svg>