<svg width="24" height="24" viewBox="0 0 24 24" fill="none" xmlns="http://www.w3.org/2000/svg"><path d="M11.630 2.535 C 11.447 2.603,11.260 2.754,10.672 3.308 C 8.852 5.024,3.218 10.687,2.698 11.323 C 2.469 11.602,2.462 11.619,2.447 11.881 C 2.416 12.430,2.636 12.811,3.114 13.033 C 3.292 13.117,3.400 13.139,3.620 13.138 C 3.960 13.136,4.153 13.052,4.534 12.737 L 4.800 12.518 4.801 15.929 C 4.802 19.613,4.833 20.710,4.943 20.941 C 5.013 21.089,5.305 21.369,5.487 21.464 C 5.808 21.630,8.372 21.641,8.866 21.478 C 8.937 21.455,9.101 21.322,9.231 21.183 C 9.557 20.835,9.536 20.963,9.679 18.420 C 9.736 17.413,9.778 17.294,10.169 17.028 L 10.380 16.885 11.960 16.858 L 13.540 16.831 13.805 17.033 C 14.260 17.380,14.288 17.474,14.359 18.860 C 14.435 20.333,14.474 20.793,14.537 20.914 C 14.619 21.072,14.923 21.379,15.078 21.459 C 15.280 21.563,16.100 21.612,17.220 21.586 C 17.770 21.573,18.280 21.545,18.354 21.523 C 18.531 21.470,18.808 21.240,19.024 20.964 L 19.200 20.740 19.200 16.630 L 19.200 12.520 19.450 12.723 C 19.857 13.054,20.049 13.138,20.400 13.139 C 20.659 13.140,20.729 13.124,20.914 13.021 C 21.164 12.883,21.322 12.706,21.466 12.402 C 21.682 11.948,21.594 11.674,21.023 11.028 C 20.584 10.531,14.759 4.675,13.556 3.521 C 12.987 2.976,12.627 2.662,12.502 2.601 C 12.265 2.486,11.845 2.454,11.630 2.535 " fill="#373B4D" stroke="none" fill-rule="evenodd"></path></svg>