<svg width="24" height="24" viewBox="0 0 24 24" fill="none" xmlns="http://www.w3.org/2000/svg"><path d="M11.460 2.673 C 11.158 2.851,9.847 4.121,6.575 7.405 C 3.519 10.471,2.786 11.226,2.605 11.497 C 2.512 11.636,2.500 11.693,2.500 11.997 C 2.501 12.397,2.549 12.513,2.836 12.800 C 3.061 13.025,3.306 13.100,3.714 13.071 C 4.007 13.050,4.212 12.962,4.547 12.715 C 4.662 12.630,4.764 12.560,4.774 12.560 C 4.783 12.560,4.800 14.220,4.812 16.250 C 4.834 20.281,4.851 20.642,5.031 20.974 C 5.178 21.243,5.428 21.420,5.780 21.502 C 6.368 21.640,8.210 21.611,8.765 21.455 C 9.211 21.330,9.437 20.991,9.538 20.296 C 9.570 20.078,9.634 19.450,9.681 18.900 C 9.728 18.350,9.782 17.815,9.802 17.711 C 9.855 17.432,9.972 17.230,10.188 17.051 L 10.380 16.891 11.971 16.870 L 13.561 16.848 13.743 16.999 C 14.187 17.365,14.223 17.505,14.383 19.500 C 14.464 20.516,14.527 20.853,14.671 21.059 C 14.809 21.257,15.067 21.417,15.380 21.502 C 15.893 21.641,18.144 21.614,18.430 21.465 C 18.491 21.433,18.689 21.269,18.870 21.100 L 19.200 20.793 19.200 16.659 L 19.200 12.524 19.489 12.741 C 19.648 12.861,19.858 12.986,19.956 13.019 C 20.178 13.095,20.679 13.098,20.853 13.025 C 21.154 12.900,21.541 12.301,21.535 11.969 C 21.531 11.720,21.295 11.399,20.469 10.520 C 19.421 9.404,16.182 6.144,14.389 4.399 C 12.571 2.629,12.526 2.595,11.980 2.570 C 11.684 2.557,11.645 2.565,11.460 2.673 " fill="#373B4D" stroke="none" fill-rule="evenodd"></path></svg>