<svg width="24" height="24" viewBox="0 0 24 24" fill="none" xmlns="http://www.w3.org/2000/svg"><path d="M11.630 2.577 C 11.547 2.607,11.395 2.700,11.291 2.785 C 10.843 3.152,9.396 4.562,6.820 7.140 C 3.824 10.139,2.678 11.329,2.557 11.565 C 2.453 11.769,2.453 12.197,2.557 12.425 C 2.660 12.653,2.908 12.918,3.100 13.005 C 3.302 13.097,3.794 13.105,4.044 13.019 C 4.142 12.986,4.352 12.861,4.511 12.741 L 4.800 12.524 4.801 15.592 C 4.802 18.966,4.842 20.450,4.942 20.793 C 5.023 21.073,5.299 21.358,5.581 21.454 C 5.925 21.571,6.482 21.611,7.400 21.584 C 8.722 21.545,9.007 21.475,9.261 21.125 C 9.495 20.802,9.544 20.534,9.679 18.852 C 9.723 18.298,9.779 17.754,9.803 17.644 C 9.855 17.399,9.963 17.234,10.200 17.039 L 10.380 16.890 11.968 16.867 L 13.557 16.845 13.777 17.027 C 14.171 17.351,14.239 17.579,14.339 18.920 C 14.478 20.790,14.504 20.919,14.802 21.208 C 15.018 21.418,15.216 21.493,15.720 21.559 C 16.332 21.638,18.137 21.588,18.407 21.485 C 18.458 21.465,18.657 21.301,18.850 21.121 L 19.200 20.793 19.200 16.658 L 19.200 12.523 19.470 12.728 C 19.859 13.023,20.028 13.088,20.415 13.091 C 20.787 13.095,20.902 13.049,21.125 12.813 C 21.347 12.577,21.473 12.364,21.524 12.139 C 21.618 11.719,21.459 11.517,19.261 9.267 C 16.808 6.756,12.992 2.988,12.713 2.801 C 12.365 2.570,11.913 2.476,11.630 2.577 " fill="#373B4D" stroke="none" fill-rule="evenodd"></path></svg>