<svg width="24" height="24" viewBox="0 0 24 24" fill="none" xmlns="http://www.w3.org/2000/svg"><path d="M4.000 3.068 C 4.000 3.150,5.185 17.957,5.224 18.363 L 5.249 18.627 8.375 19.565 L 11.500 20.502 14.620 19.567 C 16.336 19.052,17.743 18.629,17.747 18.626 C 17.753 18.620,18.256 12.408,18.741 6.345 C 18.885 4.544,18.992 3.059,18.978 3.045 C 18.965 3.031,15.589 3.014,11.477 3.008 C 4.285 2.996,4.000 2.998,4.000 3.068 M14.315 6.147 L 16.450 6.173 16.427 6.397 C 16.414 6.519,16.355 6.930,16.294 7.310 L 16.185 8.000 12.432 8.000 C 10.369 8.000,8.680 8.007,8.680 8.015 C 8.680 8.057,8.963 9.997,8.983 10.090 L 9.006 10.200 12.444 10.200 L 15.882 10.200 15.861 10.290 C 15.849 10.340,15.731 11.406,15.598 12.660 C 15.341 15.088,15.224 16.069,15.190 16.104 C 15.156 16.137,13.864 16.588,12.618 17.001 L 11.497 17.373 9.998 16.871 C 9.174 16.595,8.344 16.311,8.153 16.242 L 7.806 16.115 7.763 15.847 C 7.654 15.183,7.445 13.099,7.484 13.060 C 7.507 13.036,7.887 13.015,8.417 13.007 L 9.309 12.995 9.459 13.775 L 9.608 14.556 10.554 14.871 L 11.500 15.187 12.435 14.875 C 12.950 14.703,13.376 14.558,13.382 14.551 C 13.409 14.523,13.680 12.147,13.658 12.125 C 13.645 12.111,12.240 12.094,10.537 12.088 C 8.834 12.081,7.440 12.061,7.440 12.042 C 7.440 12.024,7.377 11.418,7.301 10.695 C 7.151 9.277,6.840 6.243,6.840 6.194 C 6.840 6.178,6.907 6.158,6.990 6.149 C 7.258 6.121,12.125 6.119,14.315 6.147 " fill="#373B4D" stroke="none" fill-rule="evenodd"></path></svg>