<svg width="24" height="24" viewBox="0 0 24 24" fill="none" xmlns="http://www.w3.org/2000/svg"><path d="M4.013 3.270 C 4.027 3.419,4.300 6.816,4.620 10.820 C 4.940 14.824,5.213 18.219,5.226 18.364 L 5.250 18.627 8.375 19.565 L 11.500 20.502 14.620 19.567 C 16.336 19.052,17.743 18.628,17.747 18.625 C 17.754 18.620,19.001 3.098,19.000 3.030 C 19.000 3.014,15.622 3.000,11.494 3.000 L 3.989 3.000 4.013 3.270 M16.457 6.163 C 16.470 6.176,16.414 6.595,16.334 7.093 L 16.187 8.000 12.429 8.000 L 8.671 8.000 8.696 8.131 C 8.709 8.203,8.774 8.649,8.840 9.121 C 8.905 9.594,8.970 10.030,8.983 10.090 L 9.006 10.200 12.442 10.200 L 15.878 10.200 15.859 10.310 C 15.848 10.370,15.758 11.194,15.659 12.140 C 15.370 14.901,15.235 16.057,15.195 16.106 C 15.174 16.131,14.335 16.426,13.329 16.763 L 11.500 17.374 9.672 16.764 C 8.667 16.428,7.827 16.132,7.805 16.106 C 7.784 16.081,7.702 15.475,7.624 14.760 C 7.545 14.045,7.471 13.368,7.458 13.255 C 7.437 13.066,7.443 13.049,7.528 13.026 C 7.578 13.012,8.001 13.001,8.466 13.001 L 9.312 13.000 9.461 13.778 L 9.611 14.557 10.555 14.872 L 11.500 15.187 12.444 14.872 L 13.388 14.557 13.534 13.349 C 13.615 12.684,13.681 12.127,13.680 12.110 C 13.680 12.093,12.276 12.080,10.560 12.080 C 8.844 12.080,7.440 12.069,7.440 12.055 C 7.440 12.041,7.377 11.443,7.301 10.725 C 7.113 8.967,6.840 6.282,6.840 6.190 C 6.840 6.118,6.987 6.116,11.637 6.128 C 14.275 6.135,16.444 6.151,16.457 6.163 " fill="#373B4D" stroke="none" fill-rule="evenodd"></path></svg>