<svg width="24" height="24" viewBox="0 0 24 24" fill="none" xmlns="http://www.w3.org/2000/svg"><path d="M4.230 3.026 C 4.073 3.038,4.000 3.061,4.000 3.098 C 4.000 3.215,5.188 18.061,5.225 18.403 L 5.249 18.627 8.374 19.564 L 11.500 20.502 14.620 19.567 C 16.336 19.052,17.743 18.629,17.747 18.625 C 17.753 18.620,18.170 13.505,18.602 8.140 C 18.830 5.302,18.996 3.066,18.980 3.048 C 18.963 3.029,4.477 3.007,4.230 3.026 M13.853 6.147 C 16.177 6.170,16.440 6.180,16.441 6.237 C 16.441 6.271,16.384 6.683,16.314 7.150 L 16.187 8.000 12.433 8.000 C 9.926 8.000,8.680 8.013,8.680 8.041 C 8.680 8.097,8.955 9.955,8.983 10.090 L 9.006 10.200 12.444 10.200 L 15.882 10.200 15.861 10.290 C 15.850 10.340,15.768 11.055,15.679 11.880 C 15.456 13.960,15.240 15.868,15.214 16.002 C 15.187 16.134,15.163 16.144,12.899 16.904 L 11.497 17.375 9.999 16.871 C 9.174 16.594,8.345 16.310,8.155 16.241 L 7.810 16.116 7.765 15.828 C 7.651 15.103,7.451 13.096,7.489 13.057 C 7.501 13.046,7.915 13.025,8.409 13.012 L 9.307 12.988 9.437 13.684 C 9.509 14.067,9.577 14.420,9.588 14.468 C 9.605 14.543,9.741 14.600,10.554 14.871 L 11.500 15.187 12.444 14.872 L 13.388 14.557 13.433 14.229 C 13.458 14.048,13.515 13.558,13.559 13.140 C 13.604 12.722,13.648 12.322,13.658 12.250 L 13.675 12.120 13.087 12.115 C 10.030 12.091,7.483 12.056,7.465 12.038 C 7.447 12.020,7.210 9.815,6.901 6.780 C 6.869 6.472,6.856 6.208,6.872 6.192 C 6.937 6.127,9.985 6.107,13.853 6.147 " fill="#373B4D" stroke="none" fill-rule="evenodd"></path></svg>