<svg width="24" height="24" viewBox="0 0 24 24" fill="none" xmlns="http://www.w3.org/2000/svg"><path d="M4.501 3.070 C 4.259 3.077,4.049 3.096,4.034 3.111 C 3.997 3.149,4.108 4.645,4.659 11.520 C 5.109 17.137,5.231 18.606,5.251 18.623 C 5.256 18.627,6.664 19.052,8.380 19.567 L 11.500 20.502 14.620 19.567 C 16.336 19.052,17.743 18.628,17.748 18.625 C 17.775 18.601,18.832 5.372,18.972 3.297 L 18.986 3.093 16.166 3.067 C 13.449 3.041,5.403 3.043,4.501 3.070 M15.310 6.185 L 16.400 6.209 16.400 6.355 C 16.400 6.435,16.352 6.838,16.293 7.250 L 16.187 8.000 13.643 8.006 C 12.244 8.009,10.560 8.022,9.900 8.036 L 8.700 8.060 8.713 8.220 C 8.732 8.455,8.914 9.746,8.963 9.990 L 9.006 10.200 12.447 10.200 C 15.193 10.200,15.885 10.210,15.869 10.250 C 15.859 10.278,15.710 11.560,15.539 13.100 C 15.368 14.640,15.213 15.942,15.194 15.992 C 15.144 16.128,14.861 16.242,13.082 16.843 L 11.505 17.376 10.242 16.952 C 9.548 16.718,8.717 16.434,8.394 16.321 L 7.809 16.114 7.763 15.807 C 7.689 15.311,7.520 13.582,7.520 13.324 C 7.520 13.033,7.455 13.053,8.522 13.017 L 9.304 12.990 9.395 13.485 C 9.567 14.424,9.596 14.520,9.714 14.568 C 9.772 14.592,10.197 14.742,10.658 14.900 L 11.495 15.189 12.433 14.876 C 12.949 14.703,13.379 14.554,13.389 14.545 C 13.398 14.535,13.458 14.062,13.521 13.494 C 13.584 12.925,13.647 12.386,13.660 12.296 L 13.683 12.132 10.952 12.102 C 9.449 12.085,8.049 12.060,7.841 12.046 L 7.461 12.020 7.352 11.040 C 7.075 8.549,6.861 6.245,6.903 6.204 C 6.969 6.138,12.553 6.126,15.310 6.185 " fill="#373B4D" stroke="none" fill-rule="evenodd"></path></svg>