<svg width="24" height="24" viewBox="0 0 24 24" fill="none" xmlns="http://www.w3.org/2000/svg"><path d="M4.017 3.094 C 4.005 3.124,4.114 4.641,4.259 6.465 C 4.768 12.859,5.200 18.222,5.224 18.423 L 5.248 18.626 8.374 19.564 L 11.500 20.502 14.620 19.567 C 16.336 19.052,17.742 18.629,17.745 18.626 C 17.774 18.595,18.930 4.121,18.968 3.320 L 18.980 3.060 11.509 3.050 C 5.224 3.041,4.034 3.048,4.017 3.094 M14.110 6.156 C 15.369 6.173,16.410 6.197,16.423 6.209 C 16.436 6.222,16.388 6.629,16.316 7.114 L 16.187 7.995 12.457 8.007 C 10.405 8.014,8.715 8.032,8.700 8.046 C 8.678 8.069,8.927 9.864,8.987 10.110 L 9.009 10.200 12.445 10.200 L 15.882 10.200 15.861 10.290 C 15.849 10.340,15.705 11.604,15.541 13.100 C 15.377 14.596,15.232 15.880,15.219 15.953 C 15.188 16.129,15.158 16.142,13.144 16.822 L 11.509 17.375 10.684 17.102 C 9.650 16.759,7.841 16.134,7.818 16.111 C 7.754 16.047,7.455 13.129,7.507 13.077 C 7.525 13.060,7.938 13.032,8.423 13.017 L 9.307 12.988 9.398 13.484 C 9.546 14.291,9.590 14.486,9.634 14.530 C 9.658 14.554,10.086 14.711,10.587 14.880 L 11.496 15.188 12.443 14.872 L 13.390 14.556 13.414 14.408 C 13.427 14.327,13.483 13.837,13.539 13.320 C 13.595 12.803,13.650 12.324,13.661 12.255 L 13.682 12.130 10.909 12.100 C 9.385 12.084,7.985 12.059,7.798 12.045 L 7.460 12.020 7.391 11.420 C 7.122 9.064,6.850 6.223,6.890 6.192 C 6.965 6.134,10.972 6.114,14.110 6.156 " fill="#373B4D" stroke="none" fill-rule="evenodd"></path></svg>