<svg width="24" height="24" viewBox="0 0 24 24" fill="none" xmlns="http://www.w3.org/2000/svg"><path d="M4.016 3.250 C 4.029 3.388,4.311 6.902,4.643 11.059 C 4.974 15.216,5.248 18.621,5.252 18.625 C 5.257 18.628,6.664 19.052,8.380 19.567 L 11.500 20.502 14.620 19.567 C 16.336 19.052,17.743 18.629,17.747 18.626 C 17.750 18.623,18.025 15.218,18.356 11.060 C 18.688 6.902,18.971 3.388,18.984 3.250 L 19.009 3.000 11.500 3.000 L 3.991 3.000 4.016 3.250 M16.481 6.170 C 16.481 6.197,16.415 6.620,16.334 7.110 L 16.187 8.000 12.431 8.000 L 8.674 8.000 8.696 8.110 C 8.708 8.171,8.773 8.616,8.840 9.100 C 8.907 9.584,8.972 10.030,8.984 10.090 L 9.006 10.200 12.439 10.200 L 15.872 10.200 15.854 10.350 C 15.844 10.433,15.704 11.757,15.542 13.293 C 15.381 14.830,15.234 16.101,15.215 16.118 C 15.196 16.136,14.352 16.425,13.340 16.762 L 11.501 17.373 9.660 16.762 C 8.648 16.425,7.804 16.136,7.785 16.118 C 7.759 16.094,7.456 13.365,7.441 13.030 C 7.441 13.013,7.861 13.000,8.375 13.000 L 9.310 13.000 9.463 13.779 L 9.617 14.559 10.559 14.873 L 11.500 15.187 12.441 14.873 L 13.383 14.559 13.517 13.470 C 13.590 12.870,13.660 12.313,13.671 12.230 L 13.691 12.080 10.569 12.080 L 7.448 12.080 7.423 11.890 C 7.363 11.416,6.840 6.354,6.840 6.244 L 6.840 6.120 11.660 6.120 C 15.489 6.120,16.480 6.130,16.481 6.170 " fill="#373B4D" stroke="none" fill-rule="evenodd"></path></svg>