<svg width="24" height="24" viewBox="0 0 24 24" fill="none" xmlns="http://www.w3.org/2000/svg"><path d="M11.500 2.555 C 11.296 2.647,10.902 3.071,10.838 3.267 C 10.782 3.437,10.812 4.857,10.878 5.136 C 10.929 5.354,11.113 5.591,11.372 5.775 C 11.570 5.915,11.625 5.934,11.887 5.950 C 12.305 5.977,12.473 5.919,12.765 5.649 C 12.901 5.523,13.036 5.364,13.064 5.296 C 13.148 5.096,13.213 4.307,13.190 3.775 C 13.173 3.379,13.151 3.247,13.081 3.101 C 12.974 2.881,12.716 2.661,12.442 2.557 C 12.174 2.455,11.721 2.454,11.500 2.555 M5.740 4.842 C 4.164 4.884,3.901 4.940,3.362 5.345 C 3.042 5.586,2.825 5.864,2.604 6.320 L 2.420 6.700 2.410 12.590 L 2.399 18.480 2.545 18.770 C 2.929 19.535,3.304 19.909,4.069 20.295 L 4.277 20.400 11.977 20.400 L 19.677 20.400 20.121 20.174 C 20.733 19.863,21.051 19.547,21.371 18.931 L 21.600 18.490 21.600 12.614 L 21.600 6.738 21.462 6.449 C 21.161 5.822,20.802 5.425,20.214 5.071 L 19.900 4.882 18.460 4.841 C 17.668 4.819,16.702 4.801,16.312 4.800 L 15.605 4.800 15.579 4.990 C 15.433 6.038,15.136 6.663,14.460 7.339 C 13.871 7.929,13.352 8.192,12.476 8.343 C 12.031 8.420,11.680 8.397,11.123 8.256 C 10.461 8.089,10.070 7.867,9.546 7.363 C 8.921 6.762,8.562 6.043,8.436 5.145 L 8.388 4.800 7.604 4.807 C 7.173 4.810,6.334 4.826,5.740 4.842 M8.500 9.797 C 8.825 9.957,9.206 10.322,9.380 10.641 C 9.497 10.854,9.500 10.875,9.500 11.400 C 9.500 11.910,9.493 11.952,9.391 12.147 C 9.086 12.726,8.366 13.200,7.790 13.200 C 7.600 13.200,7.093 13.034,6.888 12.905 C 6.653 12.757,6.381 12.459,6.234 12.188 C 6.101 11.941,6.100 11.937,6.100 11.400 C 6.100 10.882,6.105 10.850,6.217 10.629 C 6.428 10.213,6.818 9.882,7.299 9.710 C 7.450 9.656,7.590 9.641,7.864 9.651 C 8.182 9.662,8.263 9.680,8.500 9.797 M18.651 11.038 C 18.871 11.196,19.067 11.469,19.104 11.669 C 19.144 11.883,19.100 12.407,19.031 12.541 C 18.916 12.760,18.571 13.074,18.389 13.125 C 18.133 13.196,14.241 13.199,14.006 13.127 C 13.786 13.061,13.523 12.796,13.372 12.489 C 13.213 12.165,13.213 11.786,13.372 11.498 C 13.571 11.139,13.761 10.951,13.962 10.917 C 14.060 10.900,15.112 10.889,16.300 10.893 L 18.460 10.900 18.651 11.038 M8.437 14.522 C 9.177 14.642,10.021 15.277,10.394 15.994 C 10.620 16.428,10.710 16.803,10.743 17.457 L 10.772 18.000 7.800 18.000 L 4.828 18.000 4.852 17.450 C 4.878 16.834,4.939 16.554,5.140 16.129 C 5.469 15.431,6.141 14.822,6.847 14.582 C 7.100 14.496,7.212 14.482,7.660 14.481 C 7.946 14.481,8.296 14.499,8.437 14.522 M17.477 14.665 C 17.591 14.767,17.737 14.928,17.802 15.022 C 17.912 15.183,17.920 15.219,17.920 15.569 C 17.920 15.893,17.906 15.973,17.816 16.152 C 17.705 16.375,17.476 16.597,17.222 16.728 C 17.070 16.807,17.012 16.809,15.562 16.792 C 13.856 16.773,13.955 16.792,13.608 16.424 C 13.331 16.132,13.269 15.978,13.264 15.574 C 13.260 15.249,13.260 15.249,13.450 14.971 C 13.702 14.602,13.757 14.557,14.008 14.521 C 14.124 14.504,14.907 14.488,15.746 14.485 L 17.271 14.480 17.477 14.665 " fill="#373B4D" stroke="none" fill-rule="evenodd"></path></svg>