<svg width="24" height="24" viewBox="0 0 24 24" fill="none" xmlns="http://www.w3.org/2000/svg"><path d="M11.526 2.579 C 11.348 2.660,11.186 2.800,10.975 3.056 L 10.800 3.268 10.801 3.804 C 10.801 4.386,10.856 5.025,10.923 5.228 C 10.946 5.298,11.079 5.462,11.218 5.592 C 11.700 6.043,12.179 6.078,12.676 5.699 C 13.050 5.414,13.143 5.149,13.185 4.260 C 13.230 3.304,13.079 2.925,12.545 2.651 C 12.288 2.519,11.744 2.481,11.526 2.579 M6.800 4.827 C 5.863 4.846,4.541 4.923,4.233 4.978 C 3.542 5.100,2.959 5.609,2.525 6.469 L 2.400 6.718 2.400 12.600 L 2.400 18.483 2.485 18.652 C 2.811 19.302,3.351 19.887,3.923 20.210 L 4.260 20.400 11.978 20.400 L 19.695 20.400 20.078 20.190 C 20.611 19.898,21.098 19.411,21.390 18.878 L 21.600 18.495 21.600 12.606 L 21.600 6.718 21.484 6.489 C 21.224 5.974,20.751 5.454,20.220 5.101 L 19.900 4.887 18.680 4.863 C 18.009 4.850,17.045 4.828,16.538 4.814 L 15.616 4.788 15.533 5.184 C 15.350 6.052,14.993 6.756,14.460 7.301 C 13.975 7.797,13.581 8.042,12.973 8.225 C 12.661 8.319,12.552 8.332,12.040 8.333 C 11.570 8.333,11.401 8.317,11.147 8.247 C 10.359 8.032,9.761 7.636,9.229 6.980 C 8.907 6.582,8.592 5.844,8.457 5.170 L 8.383 4.800 7.841 4.809 C 7.544 4.813,7.075 4.822,6.800 4.827 M8.473 9.832 C 8.735 9.960,9.149 10.333,9.315 10.593 L 9.440 10.787 9.439 11.384 C 9.438 11.892,9.427 12.006,9.359 12.155 C 9.237 12.423,8.823 12.804,8.448 12.991 C 8.039 13.196,7.875 13.224,7.553 13.142 C 7.035 13.011,6.665 12.757,6.333 12.306 L 6.160 12.071 6.160 11.434 C 6.160 10.958,6.175 10.761,6.220 10.653 C 6.301 10.460,6.770 10.008,7.041 9.862 C 7.330 9.707,7.469 9.682,7.900 9.707 C 8.175 9.724,8.310 9.753,8.473 9.832 M18.739 11.127 C 19.035 11.456,19.060 11.524,19.058 11.980 C 19.057 12.254,19.036 12.425,18.993 12.523 C 18.898 12.738,18.682 12.963,18.480 13.057 C 18.306 13.137,18.231 13.140,16.168 13.152 L 14.037 13.164 13.845 13.023 C 13.491 12.764,13.315 12.407,13.314 11.945 C 13.313 11.718,13.333 11.632,13.430 11.447 C 13.494 11.324,13.615 11.168,13.697 11.101 C 13.845 10.982,13.857 10.980,14.414 10.957 C 14.725 10.945,15.784 10.931,16.766 10.927 L 18.553 10.920 18.739 11.127 M17.520 14.710 C 17.832 15.058,17.880 15.175,17.879 15.588 C 17.878 16.031,17.812 16.183,17.492 16.487 C 17.324 16.646,17.205 16.724,17.096 16.747 C 17.010 16.765,16.291 16.780,15.498 16.780 C 13.873 16.780,13.994 16.802,13.656 16.449 C 13.397 16.179,13.314 15.980,13.307 15.610 C 13.299 15.251,13.378 15.053,13.656 14.738 L 13.820 14.552 14.780 14.522 C 15.308 14.506,16.094 14.490,16.527 14.486 L 17.314 14.480 17.520 14.710 M8.413 14.558 C 8.938 14.625,9.692 15.087,10.063 15.568 C 10.500 16.134,10.665 16.636,10.740 17.630 L 10.768 18.000 7.804 18.000 L 4.840 18.000 4.840 17.850 C 4.840 17.564,4.959 16.687,5.023 16.494 C 5.128 16.180,5.350 15.788,5.578 15.512 C 5.934 15.080,6.590 14.645,7.009 14.563 C 7.239 14.517,8.075 14.514,8.413 14.558 " fill="#373B4D" stroke="none" fill-rule="evenodd"></path></svg>