<svg width="24" height="24" viewBox="0 0 24 24" fill="none" xmlns="http://www.w3.org/2000/svg"><path d="M11.740 2.481 C 11.652 2.494,11.520 2.537,11.446 2.576 C 11.257 2.675,10.982 2.961,10.877 3.166 C 10.791 3.335,10.789 3.366,10.813 4.180 C 10.827 4.642,10.857 5.085,10.880 5.164 C 10.942 5.385,11.135 5.623,11.386 5.790 C 11.592 5.926,11.642 5.941,11.929 5.954 C 12.159 5.965,12.294 5.950,12.424 5.901 C 12.626 5.824,12.955 5.522,13.061 5.318 C 13.152 5.143,13.215 4.304,13.185 3.686 C 13.166 3.296,13.148 3.207,13.062 3.059 C 12.808 2.626,12.286 2.397,11.740 2.481 M5.560 4.842 C 4.138 4.881,3.948 4.922,3.422 5.297 C 3.012 5.589,2.734 5.959,2.519 6.497 L 2.400 6.793 2.400 12.628 L 2.400 18.462 2.621 18.911 C 2.909 19.498,3.235 19.836,3.821 20.160 L 4.220 20.380 11.960 20.380 L 19.700 20.380 20.135 20.167 C 20.494 19.991,20.621 19.903,20.862 19.662 C 21.104 19.420,21.190 19.295,21.376 18.917 L 21.600 18.462 21.600 12.606 L 21.600 6.749 21.422 6.374 C 21.127 5.750,20.760 5.367,20.110 5.003 L 19.880 4.874 18.570 4.838 C 17.849 4.819,16.888 4.802,16.434 4.801 L 15.608 4.800 15.559 5.150 C 15.436 6.035,15.077 6.759,14.456 7.374 C 13.859 7.967,13.153 8.281,12.200 8.380 C 11.725 8.429,10.919 8.262,10.420 8.010 C 9.840 7.717,9.270 7.191,8.945 6.647 C 8.701 6.240,8.498 5.652,8.434 5.170 L 8.386 4.800 7.503 4.806 C 7.017 4.810,6.143 4.826,5.560 4.842 M8.319 9.709 C 8.743 9.852,9.180 10.244,9.397 10.674 C 9.514 10.906,9.520 10.941,9.520 11.399 C 9.520 11.937,9.477 12.078,9.203 12.439 C 8.937 12.790,8.656 12.985,8.226 13.116 C 7.898 13.217,7.750 13.220,7.429 13.137 C 6.885 12.996,6.453 12.647,6.210 12.154 C 6.084 11.899,6.080 11.873,6.080 11.391 C 6.080 10.915,6.085 10.882,6.203 10.647 C 6.603 9.847,7.523 9.439,8.319 9.709 M18.476 10.926 C 18.640 10.988,18.867 11.192,18.996 11.394 C 19.113 11.576,19.120 11.609,19.120 11.977 C 19.120 12.441,19.078 12.551,18.784 12.859 C 18.639 13.012,18.528 13.088,18.400 13.125 C 18.263 13.165,17.724 13.178,16.140 13.179 C 13.799 13.180,13.958 13.200,13.624 12.866 C 13.309 12.551,13.171 12.085,13.276 11.693 C 13.328 11.500,13.628 11.076,13.785 10.973 C 13.872 10.916,14.018 10.896,14.497 10.875 C 15.292 10.841,18.353 10.880,18.476 10.926 M8.566 14.539 C 9.266 14.685,10.110 15.367,10.434 16.049 C 10.658 16.518,10.724 16.815,10.749 17.450 L 10.770 18.000 7.805 18.000 L 4.840 18.000 4.840 17.506 C 4.840 16.348,5.311 15.491,6.312 14.829 C 6.591 14.645,6.878 14.534,7.209 14.483 C 7.518 14.436,8.210 14.464,8.566 14.539 M17.445 14.625 C 17.547 14.699,17.700 14.861,17.785 14.985 C 17.938 15.207,17.940 15.214,17.937 15.575 C 17.934 15.811,17.911 15.990,17.871 16.080 C 17.781 16.284,17.541 16.544,17.327 16.670 L 17.140 16.780 15.600 16.780 C 14.185 16.780,14.049 16.774,13.926 16.707 C 13.737 16.604,13.461 16.318,13.360 16.120 C 13.254 15.912,13.211 15.469,13.278 15.267 C 13.339 15.082,13.643 14.666,13.786 14.572 C 13.928 14.480,14.736 14.446,16.200 14.472 L 17.260 14.491 17.445 14.625 " fill="#373B4D" stroke="none" fill-rule="evenodd"></path></svg>