<svg width="24" height="24" viewBox="0 0 24 24" fill="none" xmlns="http://www.w3.org/2000/svg"><path d="M11.760 2.436 C 11.399 2.511,11.091 2.748,10.933 3.071 L 10.820 3.300 10.820 4.200 C 10.820 5.227,10.844 5.329,11.158 5.634 C 11.419 5.887,11.646 5.980,12.000 5.980 C 12.354 5.980,12.581 5.887,12.842 5.634 C 13.156 5.329,13.180 5.227,13.180 4.200 L 13.180 3.300 13.068 3.072 C 13.006 2.946,12.898 2.795,12.828 2.735 C 12.550 2.500,12.082 2.369,11.760 2.436 M4.720 4.841 C 4.031 4.878,3.623 5.045,3.176 5.471 C 2.857 5.776,2.706 6.005,2.539 6.437 L 2.400 6.797 2.400 12.600 L 2.400 18.403 2.539 18.763 C 2.820 19.490,3.276 19.953,4.020 20.263 L 4.300 20.380 11.919 20.390 L 19.539 20.401 19.799 20.317 C 20.678 20.033,21.218 19.496,21.516 18.611 C 21.600 18.363,21.600 18.342,21.600 12.608 C 21.600 6.871,21.600 6.852,21.516 6.597 C 21.268 5.838,20.855 5.360,20.160 5.024 L 19.820 4.860 19.020 4.834 C 18.580 4.819,17.633 4.806,16.915 4.804 L 15.609 4.800 15.580 5.110 C 15.420 6.825,14.093 8.187,12.410 8.366 C 10.375 8.582,8.600 7.131,8.416 5.100 L 8.389 4.800 6.804 4.807 C 5.933 4.810,4.995 4.826,4.720 4.841 M8.168 9.645 C 9.078 9.838,9.724 10.769,9.571 11.666 C 9.448 12.381,8.958 12.923,8.243 13.136 C 7.483 13.361,6.578 12.949,6.203 12.207 C 5.532 10.877,6.714 9.336,8.168 9.645 M17.541 10.834 L 18.422 10.860 18.637 10.998 C 18.781 11.091,18.903 11.215,19.006 11.374 C 19.158 11.609,19.160 11.618,19.160 12.000 C 19.160 12.382,19.158 12.391,19.006 12.624 C 18.845 12.870,18.730 12.972,18.450 13.115 C 18.286 13.199,18.247 13.200,16.200 13.200 L 14.117 13.200 13.920 13.100 C 13.370 12.822,13.080 12.182,13.258 11.645 C 13.333 11.419,13.647 11.042,13.856 10.928 C 13.948 10.878,14.120 10.854,14.520 10.838 C 15.289 10.806,16.518 10.805,17.541 10.834 M8.480 14.487 C 9.097 14.604,9.804 15.073,10.223 15.644 C 10.641 16.214,10.862 17.051,10.780 17.756 L 10.752 18.000 7.799 18.000 L 4.846 18.000 4.819 17.740 C 4.760 17.194,4.864 16.628,5.120 16.097 C 5.533 15.242,6.407 14.574,7.282 14.446 C 7.569 14.403,8.144 14.423,8.480 14.487 M17.400 14.577 C 17.554 14.669,17.671 14.784,17.790 14.958 L 17.960 15.207 17.960 15.597 C 17.960 15.983,17.958 15.991,17.806 16.224 C 17.652 16.461,17.541 16.562,17.280 16.704 C 17.149 16.775,17.039 16.780,15.600 16.780 C 14.078 16.780,14.058 16.779,13.891 16.690 C 13.365 16.409,13.084 15.769,13.258 15.245 C 13.333 15.019,13.647 14.642,13.856 14.528 C 14.030 14.432,14.593 14.406,16.000 14.427 L 17.180 14.445 17.400 14.577 " fill="#373B4D" stroke="none" fill-rule="evenodd"></path></svg>