<svg width="24" height="24" viewBox="0 0 24 24" fill="none" xmlns="http://www.w3.org/2000/svg"><path d="M11.590 2.534 C 11.374 2.615,11.183 2.773,10.989 3.030 L 10.820 3.254 10.823 4.077 C 10.827 5.165,10.850 5.258,11.196 5.602 C 11.491 5.895,11.643 5.960,12.027 5.960 C 12.339 5.960,12.614 5.823,12.874 5.539 C 13.132 5.257,13.177 5.036,13.179 4.060 C 13.180 3.353,13.178 3.336,13.069 3.114 C 12.953 2.878,12.819 2.752,12.523 2.602 C 12.299 2.487,11.810 2.452,11.590 2.534 M5.908 4.842 C 4.467 4.881,4.105 4.926,3.740 5.110 C 3.240 5.363,2.878 5.755,2.575 6.377 L 2.400 6.734 2.400 12.608 L 2.400 18.482 2.545 18.771 C 2.899 19.479,3.344 19.930,4.029 20.275 L 4.278 20.400 11.989 20.399 L 19.700 20.398 20.076 20.199 C 20.732 19.851,21.051 19.532,21.399 18.876 L 21.598 18.500 21.599 12.600 L 21.599 6.700 21.416 6.360 C 21.089 5.749,20.743 5.389,20.140 5.030 L 19.900 4.888 18.340 4.844 C 17.482 4.820,16.516 4.800,16.192 4.800 L 15.605 4.800 15.580 4.990 C 15.490 5.664,15.235 6.354,14.903 6.816 C 14.679 7.129,14.123 7.669,13.838 7.851 C 13.169 8.277,12.282 8.466,11.542 8.340 C 10.802 8.213,10.341 8.020,9.853 7.634 C 9.042 6.991,8.559 6.108,8.419 5.010 L 8.392 4.800 7.686 4.806 C 7.298 4.810,6.498 4.826,5.908 4.842 M8.477 9.793 C 8.754 9.927,9.212 10.354,9.364 10.619 C 9.476 10.815,9.479 10.835,9.480 11.392 C 9.480 12.025,9.471 12.059,9.194 12.430 C 8.901 12.823,8.227 13.200,7.818 13.200 C 7.623 13.200,7.089 13.021,6.880 12.886 C 6.641 12.732,6.436 12.512,6.263 12.222 L 6.120 11.985 6.120 11.408 C 6.120 10.837,6.121 10.829,6.246 10.594 C 6.466 10.182,7.004 9.766,7.435 9.675 C 7.712 9.617,8.236 9.676,8.477 9.793 M17.323 10.907 L 18.540 10.933 18.787 11.179 C 19.086 11.478,19.141 11.637,19.104 12.090 C 19.071 12.487,19.042 12.559,18.811 12.807 C 18.458 13.186,18.549 13.173,16.280 13.175 C 15.191 13.176,14.215 13.163,14.111 13.146 C 13.690 13.078,13.270 12.498,13.270 11.984 C 13.270 11.710,13.337 11.521,13.525 11.259 C 13.737 10.963,13.790 10.943,14.400 10.918 C 15.284 10.881,16.038 10.878,17.323 10.907 M8.343 14.519 C 8.717 14.568,9.011 14.682,9.373 14.918 C 10.071 15.374,10.516 16.016,10.660 16.777 C 10.690 16.933,10.727 17.271,10.742 17.530 L 10.771 18.000 7.799 18.000 L 4.828 18.000 4.855 17.490 C 4.889 16.847,4.956 16.531,5.136 16.150 C 5.499 15.386,6.279 14.715,7.011 14.537 C 7.260 14.477,7.947 14.468,8.343 14.519 M17.545 14.737 C 17.862 15.054,17.920 15.187,17.920 15.589 C 17.919 15.833,17.899 15.944,17.823 16.107 C 17.704 16.362,17.474 16.597,17.225 16.717 C 17.037 16.809,17.034 16.809,15.588 16.789 C 14.676 16.777,14.086 16.753,13.995 16.725 C 13.818 16.669,13.467 16.308,13.359 16.071 C 13.303 15.946,13.282 15.809,13.281 15.566 C 13.280 15.234,13.281 15.231,13.468 14.952 C 13.572 14.797,13.702 14.641,13.757 14.605 C 13.885 14.521,14.362 14.496,16.014 14.487 L 17.287 14.480 17.545 14.737 " fill="#373B4D" stroke="none" fill-rule="evenodd"></path></svg>