<svg width="24" height="24" viewBox="0 0 24 24" fill="none" xmlns="http://www.w3.org/2000/svg"><path d="M11.720 2.517 C 11.448 2.572,11.228 2.729,10.980 3.044 L 10.800 3.273 10.801 3.727 C 10.803 4.449,10.864 5.133,10.940 5.280 C 11.046 5.485,11.346 5.758,11.587 5.868 C 11.999 6.057,12.458 5.946,12.837 5.566 C 13.054 5.348,13.106 5.201,13.160 4.653 C 13.270 3.522,13.154 3.032,12.705 2.731 C 12.432 2.547,12.016 2.457,11.720 2.517 M6.140 4.843 C 4.891 4.878,4.226 4.937,3.933 5.040 C 3.387 5.231,2.901 5.723,2.525 6.469 L 2.400 6.718 2.401 12.609 L 2.401 18.500 2.572 18.813 C 2.926 19.463,3.363 19.910,3.960 20.236 L 4.260 20.399 11.975 20.399 L 19.691 20.400 20.007 20.231 C 20.677 19.874,21.074 19.477,21.431 18.807 L 21.600 18.491 21.600 12.604 L 21.600 6.717 21.494 6.509 C 21.208 5.943,20.754 5.435,20.229 5.094 L 19.918 4.893 18.869 4.867 C 18.292 4.852,17.323 4.829,16.716 4.814 L 15.612 4.788 15.540 5.164 C 15.307 6.386,14.678 7.327,13.700 7.917 C 12.569 8.599,10.914 8.470,9.846 7.617 C 9.121 7.038,8.650 6.209,8.453 5.167 L 8.383 4.800 7.802 4.806 C 7.482 4.810,6.734 4.826,6.140 4.843 M8.490 9.832 C 8.785 9.977,9.180 10.344,9.346 10.627 C 9.458 10.816,9.460 10.832,9.457 11.400 C 9.453 12.071,9.426 12.158,9.111 12.502 C 8.853 12.784,8.486 13.022,8.147 13.126 C 7.904 13.200,7.848 13.204,7.627 13.162 C 7.078 13.056,6.614 12.741,6.294 12.258 L 6.140 12.026 6.143 11.403 C 6.145 10.883,6.157 10.757,6.218 10.642 C 6.323 10.442,6.668 10.089,6.913 9.931 C 7.257 9.709,7.373 9.679,7.828 9.694 C 8.189 9.705,8.264 9.721,8.490 9.832 M18.761 11.150 C 19.038 11.457,19.080 11.567,19.080 11.991 C 19.080 12.414,18.980 12.657,18.703 12.913 C 18.435 13.160,18.374 13.165,16.049 13.152 L 14.007 13.140 13.833 13.019 C 13.335 12.670,13.147 11.949,13.421 11.444 C 13.591 11.134,13.755 10.998,14.006 10.961 C 14.124 10.944,15.195 10.928,16.387 10.925 L 18.554 10.920 18.761 11.150 M17.534 14.724 C 17.847 15.070,17.898 15.192,17.897 15.600 C 17.897 16.003,17.819 16.187,17.531 16.466 C 17.192 16.796,17.290 16.780,15.573 16.777 L 14.045 16.774 13.883 16.662 C 13.705 16.538,13.488 16.289,13.385 16.091 C 13.349 16.020,13.308 15.829,13.294 15.667 C 13.272 15.405,13.281 15.346,13.368 15.155 C 13.423 15.037,13.547 14.853,13.644 14.746 L 13.820 14.552 14.640 14.522 C 15.091 14.506,15.877 14.490,16.387 14.486 L 17.313 14.480 17.534 14.724 M8.500 14.559 C 9.016 14.643,9.718 15.102,10.099 15.605 C 10.517 16.158,10.672 16.645,10.744 17.630 L 10.771 18.000 7.800 18.000 L 4.828 18.000 4.856 17.577 C 4.871 17.344,4.910 16.998,4.943 16.807 C 5.106 15.863,5.905 14.939,6.853 14.598 C 7.019 14.537,7.177 14.523,7.660 14.522 C 7.990 14.521,8.368 14.538,8.500 14.559 " fill="#373B4D" stroke="none" fill-rule="evenodd"></path></svg>