<svg width="24" height="24" viewBox="0 0 24 24" fill="none" xmlns="http://www.w3.org/2000/svg"><path d="M11.456 2.633 C 11.388 2.676,11.212 2.824,11.066 2.960 L 10.800 3.209 10.800 3.760 C 10.800 4.417,10.863 5.091,10.938 5.237 C 11.017 5.389,11.398 5.737,11.603 5.843 C 11.961 6.030,12.410 5.938,12.748 5.608 C 13.078 5.286,13.174 4.939,13.176 4.060 C 13.177 3.573,13.165 3.471,13.087 3.275 C 12.984 3.016,12.788 2.796,12.548 2.673 C 12.300 2.546,11.633 2.521,11.456 2.633 M6.600 4.844 C 5.516 4.880,4.564 4.944,4.223 5.004 C 3.588 5.116,2.907 5.713,2.505 6.509 L 2.400 6.717 2.400 12.600 L 2.400 18.483 2.486 18.652 C 2.800 19.270,3.525 20.019,4.084 20.302 L 4.277 20.400 12.009 20.400 L 19.740 20.400 20.115 20.155 C 20.737 19.748,21.225 19.223,21.515 18.652 L 21.600 18.483 21.600 12.600 L 21.600 6.717 21.515 6.548 C 21.285 6.093,20.688 5.442,20.160 5.073 L 19.900 4.891 18.320 4.865 C 17.451 4.851,16.488 4.828,16.180 4.815 L 15.620 4.790 15.490 5.282 C 15.276 6.089,15.023 6.605,14.586 7.126 C 14.149 7.646,13.644 7.994,13.020 8.205 C 12.767 8.290,12.673 8.299,12.040 8.297 C 11.600 8.296,11.273 8.276,11.160 8.244 C 10.162 7.961,9.352 7.296,8.890 6.380 C 8.726 6.055,8.545 5.529,8.459 5.130 L 8.388 4.800 7.964 4.806 C 7.731 4.810,7.117 4.826,6.600 4.844 M8.016 9.761 C 8.487 9.806,8.641 9.888,9.047 10.310 C 9.470 10.750,9.456 10.711,9.425 11.404 C 9.407 11.802,9.377 12.057,9.334 12.162 C 9.239 12.402,8.775 12.809,8.370 13.010 C 7.954 13.216,7.756 13.225,7.340 13.060 C 6.898 12.884,6.648 12.690,6.308 12.260 L 6.150 12.060 6.169 11.394 C 6.191 10.627,6.204 10.590,6.586 10.241 C 6.998 9.865,7.230 9.739,7.540 9.726 C 7.584 9.724,7.798 9.739,8.016 9.761 M18.717 11.110 C 18.977 11.413,19.018 11.528,19.019 11.960 C 19.020 12.419,18.948 12.637,18.723 12.857 C 18.446 13.128,18.406 13.132,16.057 13.150 L 13.974 13.166 13.760 12.933 C 13.444 12.588,13.361 12.380,13.360 11.939 C 13.360 11.592,13.365 11.570,13.504 11.359 C 13.669 11.108,13.684 11.096,13.900 11.034 C 14.062 10.987,15.645 10.941,17.567 10.927 L 18.554 10.920 18.717 11.110 M17.593 14.816 L 17.848 15.132 17.834 15.576 C 17.821 15.974,17.808 16.040,17.710 16.206 C 17.605 16.386,17.403 16.574,17.204 16.679 C 16.953 16.810,14.286 16.839,14.000 16.713 C 13.824 16.636,13.538 16.328,13.438 16.108 C 13.382 15.985,13.362 15.848,13.361 15.600 C 13.361 15.214,13.447 14.976,13.685 14.708 L 13.820 14.556 14.980 14.524 C 15.618 14.506,16.410 14.493,16.739 14.496 L 17.338 14.500 17.593 14.816 M8.777 14.674 C 9.159 14.810,9.437 14.997,9.800 15.360 C 10.433 15.993,10.584 16.378,10.738 17.744 L 10.761 17.947 10.034 17.974 C 9.634 17.988,8.300 18.000,7.068 18.000 L 4.830 18.000 4.857 17.670 C 4.926 16.830,5.085 16.269,5.382 15.818 C 5.763 15.238,6.514 14.678,7.019 14.597 C 7.130 14.579,7.517 14.570,7.880 14.577 C 8.429 14.588,8.580 14.604,8.777 14.674 " fill="#373B4D" stroke="none" fill-rule="evenodd"></path></svg>