<svg width="24" height="24" viewBox="0 0 24 24" fill="none" xmlns="http://www.w3.org/2000/svg"><path d="M11.560 2.565 C 11.472 2.592,11.307 2.723,11.110 2.922 L 10.800 3.237 10.800 3.774 C 10.800 4.352,10.859 5.061,10.922 5.224 C 10.984 5.387,11.380 5.754,11.609 5.861 C 11.990 6.038,12.385 5.954,12.758 5.617 C 13.055 5.349,13.144 5.071,13.186 4.284 C 13.214 3.768,13.163 3.361,13.040 3.120 C 12.946 2.936,12.717 2.732,12.494 2.633 C 12.290 2.543,11.759 2.504,11.560 2.565 M6.480 4.842 C 5.364 4.875,4.384 4.944,4.120 5.008 C 3.506 5.157,2.901 5.720,2.505 6.509 L 2.400 6.717 2.400 12.600 L 2.400 18.482 2.516 18.711 C 2.839 19.352,3.477 19.993,4.108 20.314 L 4.277 20.400 11.990 20.400 L 19.703 20.400 20.032 20.210 C 20.669 19.842,21.066 19.446,21.413 18.830 L 21.600 18.500 21.600 12.609 L 21.600 6.717 21.495 6.509 C 21.242 6.004,20.739 5.457,20.189 5.087 L 19.900 4.892 18.580 4.866 C 17.854 4.851,16.891 4.828,16.440 4.815 L 15.620 4.790 15.492 5.316 C 15.283 6.173,14.939 6.813,14.395 7.354 C 13.918 7.828,13.503 8.076,12.909 8.240 C 12.496 8.355,11.542 8.354,11.126 8.239 C 10.148 7.968,9.332 7.304,8.889 6.420 C 8.716 6.074,8.537 5.545,8.458 5.146 L 8.389 4.800 7.925 4.806 C 7.669 4.810,7.019 4.826,6.480 4.842 M8.463 9.829 C 8.727 9.967,9.075 10.273,9.268 10.535 L 9.448 10.779 9.434 11.423 C 9.420 12.051,9.417 12.070,9.307 12.237 C 9.059 12.611,8.598 12.961,8.137 13.125 C 7.924 13.201,7.875 13.205,7.660 13.163 C 7.355 13.102,6.954 12.918,6.730 12.734 C 6.635 12.656,6.465 12.472,6.354 12.326 L 6.152 12.060 6.167 11.375 L 6.181 10.690 6.332 10.497 C 6.526 10.248,6.886 9.945,7.140 9.816 C 7.327 9.721,7.371 9.716,7.820 9.729 C 8.215 9.740,8.329 9.758,8.463 9.829 M18.742 11.130 C 19.018 11.436,19.049 11.534,19.033 12.057 C 19.020 12.484,19.015 12.507,18.887 12.691 C 18.679 12.991,18.500 13.088,18.088 13.124 C 17.897 13.141,16.900 13.156,15.873 13.157 L 14.006 13.160 13.781 12.954 C 13.480 12.679,13.357 12.431,13.331 12.043 C 13.308 11.712,13.354 11.550,13.549 11.267 C 13.734 10.999,13.795 10.984,14.780 10.958 C 15.264 10.946,16.311 10.932,17.106 10.928 L 18.553 10.920 18.742 11.130 M17.471 14.655 C 17.559 14.751,17.683 14.907,17.746 15.002 C 17.852 15.163,17.860 15.201,17.860 15.577 C 17.860 16.048,17.800 16.199,17.508 16.468 C 17.190 16.762,17.218 16.756,15.893 16.784 C 15.194 16.798,14.545 16.792,14.326 16.769 L 13.952 16.729 13.731 16.515 C 13.427 16.218,13.321 15.982,13.321 15.600 C 13.321 15.250,13.417 15.008,13.666 14.727 L 13.820 14.554 14.860 14.523 C 15.432 14.506,16.217 14.490,16.605 14.486 L 17.310 14.480 17.471 14.655 M8.725 14.642 C 9.633 14.947,10.382 15.765,10.598 16.685 C 10.666 16.975,10.760 17.694,10.760 17.924 C 10.760 17.998,10.678 18.000,7.800 18.000 L 4.840 18.000 4.840 17.844 C 4.840 17.525,4.969 16.691,5.059 16.430 C 5.303 15.721,5.886 15.081,6.632 14.704 C 6.922 14.557,7.199 14.521,7.886 14.540 C 8.347 14.553,8.526 14.575,8.725 14.642 " fill="#373B4D" stroke="none" fill-rule="evenodd"></path></svg>