<svg width="24" height="24" viewBox="0 0 24 24" fill="none" xmlns="http://www.w3.org/2000/svg"><path d="M11.615 2.535 C 11.386 2.610,11.191 2.767,10.974 3.055 L 10.789 3.300 10.816 4.142 C 10.830 4.605,10.860 5.049,10.882 5.130 C 10.976 5.470,11.445 5.892,11.787 5.943 C 12.170 6.001,12.465 5.909,12.776 5.635 C 13.067 5.379,13.124 5.213,13.172 4.478 C 13.244 3.402,13.157 3.060,12.728 2.733 C 12.453 2.523,11.934 2.431,11.615 2.535 M6.000 4.843 C 4.822 4.876,4.216 4.930,3.949 5.024 C 3.387 5.222,2.915 5.695,2.545 6.429 L 2.400 6.718 2.401 12.609 L 2.401 18.500 2.579 18.831 C 2.933 19.490,3.361 19.926,3.963 20.239 L 4.272 20.400 11.981 20.400 L 19.690 20.400 20.047 20.212 C 20.702 19.867,21.067 19.502,21.412 18.847 L 21.600 18.490 21.600 12.604 L 21.600 6.717 21.495 6.509 C 21.185 5.895,20.744 5.405,20.200 5.072 L 19.900 4.888 18.160 4.844 C 17.203 4.819,16.238 4.799,16.015 4.800 L 15.610 4.800 15.543 5.170 C 15.363 6.153,15.004 6.814,14.287 7.483 C 13.329 8.375,11.996 8.604,10.667 8.104 C 9.904 7.817,9.159 7.088,8.771 6.250 C 8.629 5.942,8.471 5.382,8.421 5.010 L 8.392 4.800 7.746 4.806 C 7.391 4.810,6.605 4.827,6.000 4.843 M8.309 9.744 C 8.709 9.854,9.348 10.459,9.445 10.819 C 9.512 11.065,9.472 11.990,9.389 12.140 C 9.182 12.513,8.818 12.838,8.372 13.048 C 8.015 13.217,7.773 13.230,7.380 13.101 C 6.845 12.925,6.520 12.656,6.215 12.135 C 6.116 11.966,6.113 11.943,6.126 11.370 C 6.140 10.801,6.144 10.773,6.257 10.580 C 6.495 10.175,7.041 9.764,7.449 9.682 C 7.658 9.640,8.029 9.667,8.309 9.744 M18.750 11.144 C 19.067 11.475,19.101 11.558,19.094 11.981 C 19.088 12.408,19.032 12.563,18.796 12.820 C 18.605 13.026,18.526 13.077,18.321 13.126 C 18.243 13.144,17.265 13.159,16.147 13.160 C 14.252 13.161,14.103 13.156,13.947 13.087 C 13.479 12.879,13.160 12.150,13.321 11.654 C 13.397 11.421,13.634 11.085,13.775 11.012 C 13.959 10.915,14.811 10.886,16.820 10.907 L 18.540 10.925 18.750 11.144 M8.640 14.579 C 9.532 14.818,10.393 15.706,10.619 16.620 C 10.675 16.850,10.760 17.597,10.760 17.870 L 10.760 18.000 7.800 18.000 L 4.840 18.000 4.840 17.830 C 4.840 17.502,4.923 16.778,4.985 16.560 C 5.260 15.593,6.264 14.651,7.160 14.517 C 7.471 14.471,8.378 14.509,8.640 14.579 M17.536 14.723 C 17.826 15.036,17.888 15.162,17.911 15.483 C 17.941 15.907,17.847 16.161,17.547 16.459 C 17.381 16.623,17.246 16.719,17.135 16.752 C 16.947 16.807,15.398 16.814,14.512 16.764 L 13.965 16.733 13.779 16.582 C 13.677 16.498,13.530 16.334,13.453 16.217 C 13.327 16.027,13.309 15.968,13.291 15.672 C 13.276 15.429,13.286 15.302,13.330 15.200 C 13.403 15.027,13.693 14.638,13.789 14.584 C 13.879 14.533,14.836 14.495,16.226 14.487 L 17.311 14.480 17.536 14.723 " fill="#373B4D" stroke="none" fill-rule="evenodd"></path></svg>