<svg width="24" height="24" viewBox="0 0 24 24" fill="none" xmlns="http://www.w3.org/2000/svg"><path d="M11.529 2.610 C 11.457 2.637,11.263 2.783,11.099 2.933 L 10.800 3.205 10.800 3.773 C 10.801 4.369,10.853 4.972,10.924 5.189 C 10.976 5.349,11.398 5.742,11.631 5.847 C 11.842 5.943,12.041 5.953,12.300 5.881 C 12.454 5.838,12.556 5.769,12.744 5.583 C 13.046 5.282,13.114 5.095,13.159 4.450 C 13.200 3.866,13.160 3.427,13.043 3.187 C 12.942 2.977,12.694 2.739,12.490 2.653 C 12.296 2.572,11.696 2.545,11.529 2.610 M6.700 4.843 C 5.616 4.881,4.579 4.949,4.260 5.005 C 3.614 5.116,2.894 5.734,2.505 6.509 L 2.400 6.717 2.400 12.600 L 2.400 18.483 2.485 18.652 C 2.780 19.238,3.547 20.030,4.083 20.301 L 4.277 20.400 12.011 20.400 L 19.745 20.400 20.089 20.165 C 20.279 20.036,20.527 19.851,20.642 19.755 C 20.902 19.536,21.314 19.025,21.477 18.720 L 21.600 18.489 21.600 12.603 L 21.600 6.717 21.515 6.549 C 21.296 6.121,20.657 5.426,20.160 5.075 L 19.900 4.892 18.220 4.865 C 17.296 4.851,16.331 4.828,16.076 4.814 L 15.611 4.789 15.539 5.084 C 15.371 5.773,15.165 6.277,14.858 6.748 C 14.430 7.405,13.816 7.905,13.115 8.167 C 12.783 8.292,12.774 8.293,12.040 8.291 C 11.348 8.289,11.279 8.282,10.980 8.182 C 10.399 7.988,9.893 7.661,9.476 7.210 C 9.014 6.712,8.720 6.129,8.505 5.290 L 8.380 4.800 7.980 4.806 C 7.760 4.810,7.184 4.826,6.700 4.843 M8.266 9.805 C 8.531 9.855,8.768 10.014,9.095 10.360 C 9.446 10.732,9.465 10.805,9.408 11.546 C 9.366 12.084,9.353 12.146,9.251 12.293 C 9.098 12.515,8.672 12.858,8.361 13.012 C 8.139 13.122,8.058 13.140,7.801 13.140 C 7.537 13.140,7.462 13.122,7.195 12.994 C 6.859 12.834,6.649 12.662,6.348 12.301 L 6.148 12.062 6.173 11.435 C 6.190 10.994,6.217 10.759,6.264 10.643 C 6.376 10.362,7.010 9.837,7.333 9.757 C 7.478 9.721,7.960 9.746,8.266 9.805 M18.702 11.090 C 18.943 11.367,18.998 11.528,18.999 11.955 C 19.000 12.162,18.979 12.400,18.954 12.486 C 18.893 12.686,18.662 12.955,18.486 13.028 C 18.275 13.117,17.357 13.158,15.573 13.159 L 13.966 13.160 13.763 12.931 C 13.470 12.604,13.393 12.421,13.370 12.002 C 13.351 11.672,13.357 11.637,13.463 11.442 C 13.629 11.136,13.748 11.052,14.063 11.018 C 14.365 10.986,16.301 10.936,17.647 10.927 L 18.554 10.920 18.702 11.090 M17.600 14.826 L 17.851 15.132 17.829 15.590 C 17.809 15.999,17.795 16.064,17.698 16.210 C 17.572 16.400,17.386 16.581,17.234 16.662 C 17.009 16.781,15.070 16.847,14.322 16.761 C 13.926 16.715,13.796 16.632,13.540 16.263 C 13.380 16.033,13.380 16.032,13.380 15.646 C 13.380 15.194,13.428 15.033,13.643 14.761 L 13.800 14.563 14.190 14.550 C 14.404 14.543,15.203 14.533,15.964 14.528 L 17.349 14.520 17.600 14.826 M8.804 14.698 C 9.176 14.824,9.459 15.026,9.874 15.460 C 10.273 15.878,10.432 16.153,10.556 16.641 C 10.644 16.987,10.772 17.921,10.737 17.956 C 10.724 17.969,9.390 17.986,7.772 17.994 L 4.830 18.008 4.857 17.694 C 4.955 16.579,5.176 15.996,5.717 15.429 C 6.013 15.118,6.415 14.819,6.706 14.693 C 7.051 14.543,8.357 14.547,8.804 14.698 " fill="#373B4D" stroke="none" fill-rule="evenodd"></path></svg>