<svg width="24" height="24" viewBox="0 0 24 24" fill="none" xmlns="http://www.w3.org/2000/svg"><path d="M5.003 3.871 C 4.567 4.090,4.003 4.714,3.705 5.309 L 3.600 5.517 3.600 12.000 L 3.600 18.482 3.736 18.751 C 4.085 19.438,4.502 19.869,5.153 20.212 L 5.510 20.400 11.425 20.398 C 17.410 20.395,18.334 20.378,18.706 20.263 C 18.981 20.178,19.321 19.945,19.652 19.615 C 19.960 19.308,20.154 19.011,20.300 18.624 L 20.400 18.358 20.399 11.989 L 20.399 5.620 20.269 5.300 C 20.197 5.124,20.082 4.899,20.014 4.800 C 19.842 4.550,19.244 3.985,19.034 3.873 L 18.860 3.780 12.040 3.771 L 5.220 3.762 5.003 3.871 M18.000 10.200 L 18.000 14.400 16.800 14.400 L 15.600 14.400 15.000 15.600 L 14.400 16.800 12.000 16.800 L 9.600 16.800 9.000 15.600 L 8.400 14.400 7.200 14.400 L 6.000 14.400 6.000 10.200 L 6.000 6.000 12.000 6.000 L 18.000 6.000 18.000 10.200 " fill="#373B4D" stroke="none" fill-rule="evenodd"></path></svg>