<svg width="24" height="24" viewBox="0 0 24 24" fill="none" xmlns="http://www.w3.org/2000/svg"><path d="M11.450 2.622 C 11.338 2.679,11.183 2.794,11.106 2.878 C 10.877 3.132,10.882 3.076,10.778 6.757 C 10.745 7.933,10.709 8.905,10.697 8.917 C 10.685 8.929,10.617 8.904,10.547 8.863 C 10.033 8.556,9.996 8.543,9.592 8.527 C 9.244 8.512,9.189 8.520,9.052 8.602 C 8.639 8.849,8.481 9.130,8.480 9.622 C 8.480 10.037,8.521 10.102,9.306 10.940 C 10.528 12.242,11.369 12.992,11.728 13.099 C 11.984 13.175,12.016 13.175,12.273 13.098 C 12.561 13.013,13.016 12.624,14.121 11.520 C 15.076 10.567,15.399 10.181,15.504 9.867 C 15.624 9.509,15.493 9.095,15.161 8.785 C 14.920 8.560,14.726 8.503,14.321 8.539 C 13.969 8.571,13.707 8.679,13.410 8.915 L 13.200 9.082 13.200 6.162 L 13.200 3.243 12.958 2.984 C 12.623 2.626,12.400 2.520,11.980 2.520 C 11.712 2.520,11.620 2.538,11.450 2.622 M5.552 3.722 C 4.862 3.802,4.172 4.380,3.758 5.223 L 3.600 5.546 3.600 12.014 L 3.600 18.483 3.705 18.691 C 4.088 19.451,4.549 19.912,5.309 20.295 L 5.517 20.400 11.089 20.399 C 16.852 20.398,18.345 20.371,18.703 20.263 C 19.106 20.141,19.745 19.597,20.050 19.117 C 20.126 18.998,20.236 18.780,20.294 18.633 L 20.400 18.366 20.400 11.919 L 20.400 5.471 20.210 5.151 C 19.741 4.363,19.197 3.891,18.596 3.752 C 18.455 3.719,18.037 3.702,17.400 3.701 C 16.275 3.700,16.302 3.693,15.967 4.060 C 15.760 4.286,15.640 4.560,15.640 4.806 C 15.640 4.992,15.760 5.289,15.923 5.506 C 16.195 5.871,16.625 6.000,17.563 6.000 L 18.000 6.000 18.000 10.200 L 18.000 14.400 16.800 14.400 L 15.600 14.400 15.000 15.600 L 14.400 16.800 12.000 16.800 L 9.600 16.800 9.000 15.600 L 8.400 14.400 7.200 14.400 L 6.000 14.400 6.000 10.206 L 6.000 6.012 6.615 5.990 C 7.466 5.959,7.666 5.899,7.983 5.583 C 8.195 5.371,8.236 5.305,8.299 5.072 C 8.399 4.700,8.368 4.489,8.174 4.206 C 8.002 3.956,7.700 3.747,7.451 3.706 C 7.245 3.672,5.883 3.683,5.552 3.722 " fill="#373B4D" stroke="none" fill-rule="evenodd"></path></svg>