<svg width="24" height="24" viewBox="0 0 24 24" fill="none" xmlns="http://www.w3.org/2000/svg"><path d="M11.455 2.639 C 11.227 2.756,11.007 2.986,10.961 3.158 C 10.897 3.395,10.846 4.147,10.800 5.540 C 10.714 8.147,10.686 8.847,10.670 8.863 C 10.661 8.873,10.484 8.810,10.277 8.723 C 9.774 8.514,9.420 8.475,9.133 8.598 C 8.651 8.806,8.405 9.306,8.518 9.851 C 8.557 10.038,8.613 10.131,8.888 10.460 C 9.300 10.954,10.689 12.344,11.103 12.678 C 11.535 13.026,11.779 13.134,12.081 13.112 C 12.265 13.099,12.360 13.065,12.532 12.950 C 12.824 12.757,13.595 12.041,14.380 11.235 C 15.390 10.199,15.620 9.840,15.522 9.452 C 15.454 9.179,15.345 8.992,15.158 8.823 C 14.932 8.619,14.772 8.560,14.451 8.561 C 14.128 8.563,13.714 8.711,13.401 8.935 L 13.200 9.080 13.200 6.143 L 13.200 3.207 12.950 2.980 C 12.580 2.643,12.450 2.587,12.000 2.570 C 11.674 2.557,11.596 2.567,11.455 2.639 M5.600 3.756 C 4.914 3.820,4.266 4.329,3.776 5.189 L 3.600 5.498 3.600 11.993 L 3.600 18.488 3.741 18.756 C 4.055 19.353,4.651 19.948,5.254 20.265 L 5.536 20.413 11.698 20.386 C 15.087 20.372,18.027 20.343,18.232 20.323 C 19.045 20.242,19.730 19.708,20.234 18.762 L 20.400 18.451 20.400 11.947 L 20.400 5.444 20.123 5.030 C 19.798 4.545,19.357 4.107,19.032 3.950 C 18.647 3.764,18.460 3.740,17.400 3.742 C 16.261 3.745,16.222 3.754,15.958 4.086 C 15.738 4.363,15.670 4.532,15.672 4.789 C 15.675 5.220,16.031 5.724,16.424 5.855 C 16.689 5.943,17.139 5.997,17.610 5.999 L 18.000 6.000 18.000 10.200 L 18.000 14.400 16.800 14.400 L 15.600 14.400 15.000 15.600 L 14.400 16.800 12.000 16.800 L 9.600 16.800 9.000 15.600 L 8.400 14.400 7.200 14.400 L 6.000 14.400 6.000 10.200 L 6.000 6.000 6.351 6.000 C 6.823 6.000,7.319 5.934,7.578 5.837 C 7.988 5.684,8.333 5.194,8.338 4.760 C 8.340 4.493,8.259 4.316,8.021 4.067 C 7.718 3.751,7.692 3.745,6.740 3.736 C 6.278 3.731,5.765 3.740,5.600 3.756 " fill="#373B4D" stroke="none" fill-rule="evenodd"></path></svg>