<svg width="24" height="24" viewBox="0 0 24 24" fill="none" xmlns="http://www.w3.org/2000/svg"><path d="M11.460 2.652 C 11.227 2.766,11.068 2.923,10.986 3.120 C 10.901 3.323,10.849 4.071,10.781 6.040 C 10.693 8.618,10.680 8.840,10.616 8.840 C 10.586 8.840,10.428 8.787,10.264 8.722 C 9.816 8.544,9.496 8.498,9.233 8.575 C 8.688 8.735,8.372 9.328,8.534 9.886 C 8.622 10.187,9.018 10.649,10.126 11.743 C 11.032 12.637,11.413 12.952,11.720 13.060 C 12.249 13.247,12.539 13.061,14.003 11.601 C 15.415 10.193,15.641 9.858,15.503 9.384 C 15.382 8.970,15.026 8.633,14.648 8.576 C 14.286 8.522,13.705 8.705,13.330 8.990 L 13.200 9.089 13.200 6.148 L 13.200 3.206 12.950 2.983 C 12.604 2.673,12.447 2.605,12.018 2.578 C 11.694 2.557,11.641 2.564,11.460 2.652 M5.840 3.759 C 5.371 3.780,5.321 3.790,5.036 3.926 C 4.550 4.157,4.124 4.596,3.722 5.277 L 3.600 5.484 3.600 11.988 L 3.600 18.493 3.743 18.754 C 4.087 19.379,4.625 19.916,5.255 20.262 L 5.531 20.413 11.615 20.385 C 14.962 20.370,17.880 20.342,18.100 20.323 C 18.557 20.284,18.885 20.181,19.185 19.982 C 19.589 19.714,20.023 19.193,20.295 18.651 L 20.400 18.443 20.400 11.938 L 20.400 5.434 20.150 5.067 C 19.668 4.362,19.118 3.911,18.608 3.804 C 18.485 3.779,17.981 3.760,17.408 3.761 C 16.287 3.762,16.196 3.781,15.973 4.065 C 15.597 4.543,15.582 5.009,15.930 5.461 C 16.221 5.841,16.530 5.950,17.430 5.988 L 18.000 6.012 18.000 10.206 L 18.000 14.400 16.800 14.400 L 15.600 14.400 15.000 15.600 L 14.400 16.800 12.000 16.800 L 9.600 16.800 9.000 15.600 L 8.400 14.400 7.200 14.400 L 6.000 14.400 6.000 10.200 L 6.000 6.000 6.370 5.999 C 6.802 5.998,7.214 5.946,7.511 5.854 C 8.107 5.669,8.504 4.877,8.249 4.378 C 8.131 4.146,7.761 3.810,7.595 3.785 C 7.367 3.750,6.368 3.735,5.840 3.759 " fill="#373B4D" stroke="none" fill-rule="evenodd"></path></svg>