<svg width="24" height="24" viewBox="0 0 24 24" fill="none" xmlns="http://www.w3.org/2000/svg"><path d="M11.800 2.469 C 11.583 2.498,11.521 2.525,11.282 2.702 C 10.879 2.998,10.871 3.029,10.836 4.440 C 10.820 5.089,10.805 6.241,10.803 7.000 C 10.801 7.759,10.788 8.527,10.774 8.707 L 10.749 9.033 10.505 8.831 C 10.185 8.564,10.051 8.513,9.618 8.489 C 9.221 8.468,9.124 8.497,8.829 8.729 C 8.582 8.923,8.469 9.160,8.448 9.525 C 8.420 10.000,8.496 10.125,9.353 11.015 C 10.357 12.057,11.287 12.942,11.488 13.044 C 11.600 13.102,11.761 13.139,11.949 13.152 C 12.393 13.181,12.521 13.101,13.469 12.204 C 14.650 11.086,15.409 10.240,15.515 9.924 C 15.644 9.538,15.512 9.078,15.185 8.768 C 14.926 8.523,14.755 8.466,14.336 8.486 C 13.964 8.503,13.778 8.585,13.430 8.887 L 13.200 9.085 13.200 6.176 L 13.200 3.267 13.039 3.053 C 12.835 2.783,12.515 2.529,12.348 2.504 C 12.124 2.470,11.903 2.456,11.800 2.469 M5.711 3.679 C 5.365 3.703,5.287 3.723,4.991 3.870 C 4.400 4.163,4.002 4.603,3.734 5.261 L 3.599 5.591 3.610 12.046 L 3.620 18.500 3.789 18.853 C 4.126 19.558,4.566 19.975,5.287 20.273 L 5.594 20.400 11.970 20.400 L 18.346 20.400 18.639 20.300 C 19.004 20.176,19.268 20.011,19.595 19.701 C 19.926 19.387,20.141 19.067,20.285 18.674 L 20.401 18.356 20.390 11.928 L 20.380 5.500 20.213 5.152 C 19.910 4.521,19.545 4.134,18.989 3.854 C 18.735 3.727,18.671 3.713,18.187 3.679 C 17.897 3.659,17.393 3.642,17.067 3.641 C 16.502 3.640,16.466 3.645,16.299 3.743 C 15.536 4.190,15.395 5.016,15.980 5.618 C 16.074 5.714,16.207 5.822,16.277 5.858 C 16.441 5.943,16.939 5.999,17.530 6.000 L 18.000 6.000 18.000 10.200 L 18.000 14.400 16.800 14.400 L 15.600 14.400 15.000 15.600 L 14.400 16.800 12.000 16.800 L 9.600 16.800 9.000 15.600 L 8.400 14.400 7.200 14.400 L 6.000 14.400 6.000 10.206 L 6.000 6.013 6.710 5.987 C 7.100 5.973,7.491 5.941,7.577 5.917 C 7.777 5.860,8.166 5.494,8.277 5.257 C 8.378 5.043,8.391 4.552,8.302 4.340 C 8.232 4.172,7.944 3.885,7.703 3.744 C 7.529 3.642,7.514 3.640,6.813 3.646 C 6.421 3.650,5.925 3.664,5.711 3.679 " fill="#373B4D" stroke="none" fill-rule="evenodd"></path></svg>