<svg width="24" height="24" viewBox="0 0 24 24" fill="none" xmlns="http://www.w3.org/2000/svg"><path d="M11.580 2.567 C 11.413 2.629,11.142 2.820,11.046 2.941 C 10.951 3.063,10.891 3.414,10.860 4.040 C 10.835 4.527,10.720 8.280,10.719 8.620 C 10.718 8.942,10.690 8.953,10.373 8.765 C 10.081 8.592,9.812 8.520,9.451 8.520 C 9.182 8.520,8.993 8.605,8.773 8.825 C 8.474 9.124,8.388 9.680,8.580 10.066 C 8.754 10.415,10.442 12.163,11.142 12.719 C 11.562 13.053,11.732 13.135,12.000 13.137 C 12.409 13.138,12.658 12.952,13.957 11.667 C 15.455 10.187,15.659 9.881,15.505 9.351 C 15.384 8.934,15.035 8.598,14.665 8.543 C 14.272 8.484,13.783 8.635,13.386 8.937 L 13.200 9.079 13.200 6.157 L 13.200 3.234 12.980 3.003 C 12.657 2.665,12.418 2.547,12.020 2.533 C 11.844 2.527,11.646 2.542,11.580 2.567 M5.695 3.717 C 5.397 3.741,5.276 3.772,5.031 3.888 C 4.522 4.130,3.989 4.705,3.701 5.324 L 3.601 5.540 3.600 12.011 L 3.600 18.483 3.705 18.691 C 4.076 19.424,4.584 19.932,5.316 20.299 L 5.531 20.407 11.756 20.388 C 15.921 20.375,18.097 20.354,18.334 20.324 C 18.752 20.272,18.982 20.168,19.369 19.855 C 19.741 19.555,20.024 19.203,20.217 18.800 L 20.380 18.460 20.390 11.963 L 20.401 5.466 20.230 5.183 C 19.755 4.396,19.236 3.932,18.662 3.782 C 18.338 3.698,16.505 3.692,16.309 3.774 C 16.151 3.841,15.875 4.135,15.761 4.359 C 15.564 4.744,15.644 5.178,15.981 5.553 C 16.280 5.886,16.674 5.999,17.530 6.000 L 18.000 6.000 18.000 10.200 L 18.000 14.400 16.800 14.400 L 15.600 14.400 15.000 15.600 L 14.400 16.800 12.000 16.800 L 9.600 16.800 9.000 15.600 L 8.400 14.400 7.200 14.400 L 6.000 14.400 6.000 10.200 L 6.000 6.000 6.391 6.000 C 6.900 6.000,7.419 5.934,7.620 5.842 C 8.012 5.665,8.294 5.274,8.344 4.838 C 8.378 4.541,8.262 4.269,7.995 4.019 C 7.682 3.727,7.605 3.706,6.780 3.696 C 6.384 3.692,5.896 3.701,5.695 3.717 " fill="#373B4D" stroke="none" fill-rule="evenodd"></path></svg>