<svg width="24" height="24" viewBox="0 0 24 24" fill="none" xmlns="http://www.w3.org/2000/svg"><path d="M11.598 2.598 C 11.414 2.654,11.163 2.838,11.062 2.990 C 10.900 3.234,10.850 3.831,10.758 6.580 C 10.710 8.015,10.666 8.787,10.631 8.823 C 10.618 8.835,10.420 8.781,10.190 8.703 C 9.637 8.514,9.315 8.506,9.018 8.677 C 8.669 8.877,8.451 9.307,8.500 9.696 C 8.550 10.095,8.761 10.366,9.937 11.543 C 10.937 12.543,11.305 12.861,11.642 13.018 C 12.201 13.278,12.491 13.103,14.003 11.596 C 15.220 10.381,15.529 9.978,15.529 9.602 C 15.529 9.257,15.238 8.826,14.890 8.655 C 14.557 8.492,13.928 8.608,13.442 8.922 L 13.200 9.078 13.200 6.142 L 13.200 3.206 12.990 3.020 C 12.676 2.743,12.490 2.647,12.178 2.602 C 11.858 2.555,11.740 2.555,11.598 2.598 M5.400 3.798 C 5.180 3.844,4.970 3.946,4.700 4.138 C 4.385 4.364,4.138 4.638,3.837 5.097 L 3.600 5.460 3.600 11.983 L 3.600 18.505 3.810 18.862 C 4.096 19.348,4.652 19.904,5.138 20.190 L 5.495 20.400 9.057 20.397 C 11.017 20.396,13.889 20.379,15.440 20.360 C 18.485 20.323,18.508 20.322,18.981 20.098 C 19.399 19.900,19.997 19.241,20.295 18.651 L 20.400 18.443 20.399 11.931 L 20.398 5.420 20.134 5.050 C 19.761 4.529,19.311 4.110,18.927 3.926 L 18.620 3.780 17.500 3.780 C 16.211 3.780,16.178 3.787,15.944 4.107 C 15.668 4.484,15.614 4.836,15.778 5.188 C 15.920 5.494,16.166 5.742,16.424 5.838 C 16.674 5.932,17.195 5.999,17.670 6.000 L 18.000 6.000 18.000 10.200 L 18.000 14.400 16.800 14.400 L 15.600 14.400 15.000 15.600 L 14.400 16.800 12.000 16.800 L 9.600 16.800 9.000 15.600 L 8.400 14.400 7.200 14.400 L 6.000 14.400 6.000 10.200 L 6.000 6.000 6.357 6.000 C 6.818 6.000,7.276 5.935,7.555 5.831 C 8.135 5.614,8.480 4.876,8.237 4.374 C 8.132 4.157,7.799 3.855,7.607 3.801 C 7.442 3.755,5.619 3.753,5.400 3.798 " fill="#373B4D" stroke="none" fill-rule="evenodd"></path></svg>