<svg width="24" height="24" viewBox="0 0 24 24" fill="none" xmlns="http://www.w3.org/2000/svg"><path d="M11.693 2.516 C 11.333 2.609,10.986 2.913,10.924 3.190 C 10.883 3.373,10.837 4.647,10.765 7.551 C 10.746 8.305,10.721 8.932,10.709 8.945 C 10.696 8.957,10.576 8.893,10.442 8.802 C 10.112 8.577,9.918 8.515,9.537 8.509 C 9.255 8.505,9.191 8.518,9.037 8.609 C 8.628 8.850,8.479 9.115,8.468 9.618 C 8.459 10.031,8.472 10.051,9.230 10.861 C 10.263 11.962,11.228 12.870,11.537 13.031 C 11.821 13.179,12.179 13.179,12.461 13.032 C 12.819 12.846,14.782 10.938,15.231 10.340 C 15.497 9.985,15.574 9.790,15.548 9.536 C 15.519 9.250,15.400 8.998,15.204 8.808 C 14.937 8.550,14.805 8.506,14.376 8.531 C 13.942 8.557,13.757 8.628,13.430 8.896 L 13.200 9.084 13.200 6.171 L 13.200 3.259 13.040 3.065 C 12.847 2.832,12.629 2.654,12.440 2.574 C 12.270 2.503,11.866 2.471,11.693 2.516 M6.080 3.682 C 5.374 3.713,5.255 3.741,4.862 3.962 C 4.388 4.230,3.972 4.721,3.702 5.331 L 3.600 5.562 3.601 12.031 L 3.601 18.500 3.776 18.826 C 4.138 19.499,4.508 19.872,5.153 20.212 L 5.510 20.400 11.425 20.398 C 17.410 20.395,18.334 20.378,18.706 20.263 C 18.981 20.178,19.321 19.945,19.652 19.615 C 19.960 19.308,20.154 19.011,20.300 18.624 L 20.400 18.358 20.400 11.922 L 20.400 5.485 20.190 5.113 C 20.048 4.862,19.871 4.627,19.643 4.389 C 19.233 3.961,18.914 3.786,18.427 3.721 C 18.027 3.668,16.585 3.668,16.395 3.721 C 16.219 3.770,15.872 4.100,15.755 4.330 C 15.629 4.576,15.614 4.893,15.716 5.160 C 15.821 5.437,16.069 5.729,16.290 5.835 C 16.500 5.935,17.000 6.000,17.569 6.000 L 18.000 6.000 18.000 10.200 L 18.000 14.400 16.800 14.400 L 15.600 14.400 15.000 15.600 L 14.400 16.800 12.000 16.800 L 9.600 16.800 9.000 15.600 L 8.400 14.400 7.200 14.400 L 6.000 14.400 6.000 10.205 L 6.000 6.010 6.630 5.990 C 7.422 5.966,7.701 5.889,7.980 5.618 C 8.208 5.397,8.324 5.144,8.351 4.814 C 8.368 4.598,8.356 4.532,8.263 4.342 C 8.143 4.098,7.904 3.867,7.660 3.760 C 7.455 3.670,6.938 3.644,6.080 3.682 " fill="#373B4D" stroke="none" fill-rule="evenodd"></path></svg>