<svg width="24" height="24" viewBox="0 0 24 24" fill="none" xmlns="http://www.w3.org/2000/svg"><path d="M11.780 2.439 C 11.539 2.478,11.311 2.614,11.114 2.833 C 10.811 3.170,10.826 3.006,10.810 6.212 L 10.796 9.085 10.549 8.857 C 10.215 8.547,9.978 8.441,9.620 8.441 C 9.224 8.440,9.075 8.494,8.820 8.727 C 8.553 8.971,8.487 9.088,8.435 9.410 C 8.385 9.724,8.440 9.988,8.609 10.233 C 8.759 10.453,10.497 12.225,11.027 12.700 C 11.491 13.115,11.613 13.174,12.000 13.174 C 12.481 13.173,12.552 13.122,13.834 11.863 C 14.712 11.000,15.382 10.272,15.485 10.070 C 15.587 9.871,15.603 9.508,15.523 9.228 C 15.452 8.977,15.165 8.657,14.901 8.534 C 14.747 8.462,14.631 8.441,14.400 8.441 C 14.020 8.441,13.791 8.541,13.449 8.859 L 13.200 9.089 13.200 6.210 L 13.200 3.332 13.097 3.136 C 12.827 2.623,12.312 2.351,11.780 2.439 M5.680 3.638 C 4.815 3.731,4.005 4.410,3.717 5.285 L 3.620 5.580 3.620 12.000 L 3.620 18.420 3.717 18.715 C 3.951 19.425,4.575 20.049,5.285 20.283 L 5.580 20.380 12.000 20.380 L 18.420 20.380 18.715 20.283 C 19.425 20.049,20.049 19.425,20.283 18.715 L 20.380 18.420 20.380 12.000 L 20.380 5.580 20.287 5.300 C 20.019 4.493,19.372 3.885,18.559 3.676 C 18.402 3.636,18.081 3.620,17.420 3.621 L 16.500 3.622 16.246 3.759 C 15.524 4.148,15.391 5.049,15.968 5.643 C 16.252 5.936,16.392 5.974,17.250 5.993 L 18.000 6.009 18.000 10.204 L 18.000 14.400 16.800 14.400 L 15.600 14.400 15.000 15.600 L 14.400 16.800 12.000 16.800 L 9.600 16.800 9.000 15.600 L 8.400 14.400 7.200 14.400 L 6.000 14.400 6.000 10.204 L 6.000 6.009 6.750 5.993 C 7.608 5.974,7.748 5.936,8.032 5.643 C 8.603 5.056,8.475 4.144,7.770 3.769 L 7.532 3.642 6.756 3.624 C 6.329 3.613,5.845 3.620,5.680 3.638 " fill="#373B4D" stroke="none" fill-rule="evenodd"></path></svg>