<svg width="24" height="24" viewBox="0 0 24 24" fill="none" xmlns="http://www.w3.org/2000/svg"><path d="M10.960 2.483 C 10.529 2.522,9.753 2.687,9.175 2.863 C 7.694 3.311,6.417 4.074,5.312 5.171 C 3.805 6.665,2.893 8.403,2.543 10.445 C 2.150 12.732,2.671 15.225,3.947 17.178 C 5.248 19.167,7.063 20.510,9.409 21.217 C 10.384 21.511,10.564 21.534,11.920 21.537 C 13.206 21.540,13.437 21.520,14.160 21.339 C 16.336 20.794,18.255 19.563,19.560 17.875 C 20.466 16.703,21.204 15.049,21.468 13.600 C 21.571 13.039,21.571 10.898,21.468 10.380 C 20.876 7.391,19.104 4.964,16.480 3.550 C 15.484 3.013,14.237 2.625,13.173 2.522 C 12.619 2.469,11.364 2.446,10.960 2.483 M12.361 6.122 C 12.600 6.183,12.865 6.379,12.986 6.587 C 13.092 6.766,13.100 6.810,13.100 7.205 L 13.100 7.630 12.943 7.858 C 12.723 8.177,12.496 8.325,12.185 8.350 C 11.647 8.393,11.256 8.212,11.034 7.817 C 10.797 7.394,10.798 6.928,11.038 6.550 C 11.316 6.112,11.758 5.969,12.361 6.122 M12.631 11.016 C 12.725 11.080,12.867 11.220,12.946 11.328 C 13.083 11.515,13.091 11.544,13.123 11.972 C 13.142 12.218,13.169 13.136,13.185 14.010 C 13.207 15.275,13.223 15.600,13.265 15.600 C 13.413 15.600,13.795 15.790,13.964 15.947 C 14.217 16.184,14.329 16.452,14.329 16.819 C 14.329 17.303,14.084 17.675,13.614 17.905 L 13.396 18.011 12.557 17.983 C 12.096 17.967,11.664 17.938,11.598 17.919 C 11.412 17.866,11.180 17.660,11.008 17.398 L 10.852 17.160 10.824 15.330 C 10.809 14.323,10.786 13.436,10.774 13.357 C 10.754 13.228,10.735 13.210,10.575 13.167 C 10.264 13.084,9.917 12.816,9.769 12.546 C 9.716 12.449,9.700 12.323,9.701 12.000 C 9.702 11.534,9.760 11.367,10.001 11.125 C 10.219 10.908,10.384 10.881,11.480 10.891 L 12.460 10.900 12.631 11.016 " fill="#373B4D" stroke="none" fill-rule="evenodd"></path></svg>