<svg width="24" height="24" viewBox="0 0 24 24" fill="none" xmlns="http://www.w3.org/2000/svg"><path d="M10.289 2.625 C 9.884 2.688,9.108 2.900,8.687 3.064 C 7.846 3.390,6.714 4.042,6.040 4.589 C 5.622 4.928,4.580 5.998,4.311 6.365 C 3.488 7.486,2.931 8.746,2.599 10.240 C 2.430 11.002,2.402 12.647,2.544 13.480 C 2.754 14.707,3.342 16.217,3.993 17.200 C 4.677 18.233,5.842 19.378,6.866 20.023 C 7.315 20.306,8.462 20.870,8.970 21.057 C 9.925 21.410,10.747 21.536,12.080 21.534 C 12.901 21.533,13.134 21.519,13.520 21.448 C 15.715 21.046,17.863 19.828,19.258 18.196 C 20.031 17.291,20.567 16.333,21.060 14.972 C 21.389 14.066,21.440 13.808,21.485 12.820 C 21.527 11.881,21.505 10.799,21.433 10.340 C 21.294 9.444,20.679 7.897,20.099 6.980 C 19.148 5.480,17.896 4.341,16.320 3.543 C 15.235 2.994,14.306 2.706,13.286 2.602 C 12.677 2.540,10.743 2.555,10.289 2.625 M12.629 6.304 C 12.900 6.469,12.989 6.667,13.047 7.240 L 13.093 7.696 12.825 7.945 C 12.676 8.084,12.477 8.225,12.378 8.263 C 11.988 8.412,11.390 8.234,11.161 7.902 C 10.900 7.522,10.888 6.844,11.135 6.487 C 11.325 6.214,11.490 6.158,12.049 6.176 C 12.397 6.186,12.459 6.200,12.629 6.304 M12.555 11.004 C 12.681 11.048,12.880 11.291,12.957 11.493 C 13.016 11.649,13.073 12.295,13.119 13.340 C 13.170 14.497,13.234 15.339,13.280 15.460 C 13.299 15.509,13.444 15.644,13.604 15.760 C 14.120 16.135,14.241 16.324,14.238 16.748 C 14.235 17.224,14.009 17.658,13.655 17.865 L 13.463 17.977 12.762 17.969 C 11.671 17.955,11.449 17.882,11.059 17.410 L 10.840 17.144 10.840 16.082 C 10.840 14.832,10.777 13.559,10.709 13.400 C 10.682 13.338,10.512 13.168,10.332 13.024 C 10.152 12.879,9.954 12.694,9.892 12.613 C 9.786 12.473,9.780 12.445,9.780 12.043 C 9.780 11.595,9.819 11.441,9.988 11.211 C 10.146 10.996,10.321 10.966,11.444 10.963 C 12.067 10.961,12.475 10.976,12.555 11.004 " fill="#373B4D" stroke="none" fill-rule="evenodd"></path></svg>