<svg width="24" height="24" viewBox="0 0 24 24" fill="none" xmlns="http://www.w3.org/2000/svg"><path d="M10.660 2.601 C 9.835 2.654,8.901 2.934,7.932 3.419 C 6.915 3.928,6.190 4.422,5.524 5.059 C 4.210 6.315,3.506 7.395,2.955 8.996 C 2.612 9.992,2.499 10.606,2.456 11.693 C 2.402 13.057,2.604 14.186,3.137 15.514 C 3.660 16.813,4.230 17.672,5.239 18.681 C 6.113 19.556,6.684 19.967,7.781 20.513 C 8.654 20.948,9.091 21.124,9.682 21.279 C 10.454 21.481,11.004 21.530,12.289 21.509 C 13.385 21.492,13.435 21.487,13.920 21.369 C 16.834 20.654,19.188 18.870,20.433 16.434 C 20.676 15.959,21.082 14.964,21.239 14.460 C 21.392 13.967,21.438 13.640,21.487 12.712 C 21.590 10.728,21.434 9.797,20.732 8.201 C 19.765 6.002,18.098 4.338,15.838 3.317 C 14.934 2.909,14.057 2.676,13.140 2.601 C 12.607 2.557,11.338 2.557,10.660 2.601 M12.502 6.242 C 12.651 6.297,12.851 6.495,12.923 6.659 C 12.962 6.747,13.016 7.015,13.043 7.252 L 13.092 7.685 12.936 7.844 C 12.685 8.102,12.402 8.276,12.189 8.305 C 11.729 8.368,11.205 8.084,11.053 7.689 C 10.946 7.411,10.954 6.836,11.068 6.619 C 11.190 6.387,11.348 6.245,11.514 6.218 C 11.595 6.205,11.687 6.189,11.720 6.181 C 11.811 6.160,12.409 6.207,12.502 6.242 M12.745 11.174 C 12.840 11.280,12.936 11.432,12.958 11.513 C 13.012 11.713,13.070 12.410,13.119 13.440 C 13.180 14.709,13.240 15.367,13.303 15.467 C 13.333 15.515,13.444 15.623,13.549 15.707 C 13.951 16.030,14.150 16.253,14.200 16.440 C 14.309 16.840,14.155 17.403,13.855 17.702 C 13.599 17.958,13.536 17.974,12.780 17.964 C 11.693 17.950,11.432 17.863,11.041 17.385 L 10.840 17.140 10.839 16.060 C 10.839 14.860,10.781 13.650,10.716 13.448 C 10.686 13.359,10.553 13.214,10.295 12.994 C 10.087 12.816,9.891 12.619,9.859 12.557 C 9.818 12.478,9.800 12.313,9.800 12.010 C 9.800 11.622,9.811 11.553,9.905 11.366 C 9.962 11.250,10.050 11.129,10.101 11.096 C 10.252 10.997,10.651 10.965,11.635 10.974 L 12.571 10.982 12.745 11.174 " fill="#373B4D" stroke="none" fill-rule="evenodd"></path></svg>