<svg width="24" height="24" viewBox="0 0 24 24" fill="none" xmlns="http://www.w3.org/2000/svg"><path d="M10.380 2.584 C 9.146 2.805,7.814 3.332,6.818 3.994 C 5.607 4.798,4.441 6.012,3.731 7.210 C 3.095 8.282,2.595 9.799,2.477 11.017 C 2.416 11.644,2.450 13.022,2.538 13.500 C 2.834 15.098,3.464 16.562,4.384 17.783 C 4.692 18.193,5.413 18.941,5.860 19.314 C 6.955 20.230,8.796 21.132,10.113 21.398 C 10.966 21.570,12.647 21.601,13.520 21.460 C 14.869 21.242,16.569 20.504,17.751 19.625 C 18.512 19.058,19.458 18.066,19.930 17.340 C 20.536 16.406,21.175 14.903,21.408 13.860 C 21.477 13.553,21.492 13.309,21.509 12.193 C 21.531 10.702,21.515 10.522,21.278 9.660 C 20.383 6.398,18.040 3.934,14.858 2.907 C 14.259 2.714,13.727 2.612,13.060 2.562 C 12.253 2.502,10.772 2.514,10.380 2.584 M12.674 6.311 C 12.982 6.519,13.033 6.637,13.066 7.214 L 13.093 7.685 12.818 7.962 C 12.508 8.274,12.376 8.335,12.010 8.332 C 11.570 8.329,11.229 8.128,11.053 7.770 C 10.953 7.566,10.940 7.497,10.941 7.160 C 10.942 6.849,10.958 6.750,11.029 6.616 C 11.134 6.418,11.362 6.210,11.511 6.177 C 11.571 6.164,11.638 6.146,11.660 6.137 C 11.682 6.128,11.868 6.129,12.074 6.140 C 12.427 6.157,12.461 6.167,12.674 6.311 M12.640 11.038 C 12.845 11.198,12.994 11.432,13.038 11.660 C 13.059 11.770,13.096 12.346,13.120 12.940 C 13.238 15.832,13.197 15.537,13.497 15.687 C 13.829 15.854,14.068 16.068,14.182 16.301 C 14.282 16.505,14.289 16.551,14.267 16.837 C 14.234 17.264,14.155 17.439,13.879 17.695 C 13.563 17.987,13.419 18.020,12.582 17.986 C 12.229 17.972,11.851 17.942,11.742 17.920 C 11.474 17.865,11.263 17.711,11.039 17.406 L 10.852 17.152 10.825 15.446 C 10.796 13.535,10.779 13.335,10.638 13.242 C 9.933 12.780,9.762 12.581,9.731 12.195 C 9.690 11.668,9.871 11.184,10.167 11.031 C 10.376 10.923,10.861 10.885,11.740 10.909 C 12.494 10.928,12.501 10.929,12.640 11.038 " fill="#373B4D" stroke="none" fill-rule="evenodd"></path></svg>