<svg width="24" height="24" viewBox="0 0 24 24" fill="none" xmlns="http://www.w3.org/2000/svg"><path d="M10.680 2.562 C 9.847 2.629,8.634 3.012,7.629 3.528 C 6.202 4.260,4.700 5.649,3.844 7.030 C 3.150 8.149,2.629 9.657,2.483 10.968 C 2.393 11.782,2.448 13.117,2.601 13.808 C 2.934 15.313,3.521 16.620,4.374 17.760 C 4.745 18.256,5.679 19.189,6.160 19.545 C 7.337 20.416,8.933 21.157,10.160 21.403 C 10.776 21.526,11.996 21.584,12.790 21.528 C 13.767 21.459,14.413 21.305,15.429 20.897 C 17.178 20.195,18.614 19.108,19.703 17.660 C 20.334 16.821,21.026 15.314,21.362 14.047 C 21.467 13.651,21.517 12.929,21.518 11.780 C 21.520 10.756,21.475 10.352,21.285 9.680 C 20.787 7.921,19.954 6.474,18.748 5.274 C 17.986 4.515,17.233 3.978,16.240 3.485 C 15.354 3.044,14.574 2.780,13.756 2.644 C 13.093 2.533,11.552 2.492,10.680 2.562 M12.581 6.260 C 12.956 6.475,13.019 6.609,13.064 7.273 L 13.092 7.685 12.896 7.888 C 12.788 7.999,12.620 8.142,12.522 8.205 C 12.366 8.306,12.308 8.320,12.042 8.319 C 11.562 8.318,11.255 8.141,11.056 7.751 C 10.973 7.588,10.960 7.507,10.960 7.149 C 10.960 6.762,10.967 6.724,11.075 6.554 C 11.296 6.206,11.512 6.114,12.040 6.146 C 12.336 6.163,12.456 6.189,12.581 6.260 M12.652 11.051 C 12.864 11.213,13.000 11.470,13.042 11.789 C 13.062 11.938,13.105 12.726,13.139 13.540 C 13.200 15.031,13.223 15.349,13.282 15.505 C 13.300 15.552,13.428 15.654,13.567 15.732 C 13.880 15.908,14.090 16.120,14.203 16.376 C 14.276 16.544,14.285 16.614,14.262 16.856 C 14.216 17.328,14.019 17.651,13.645 17.872 C 13.462 17.979,13.454 17.980,12.740 17.977 C 11.645 17.971,11.429 17.898,11.042 17.400 L 10.841 17.140 10.839 16.160 C 10.836 14.858,10.779 13.485,10.722 13.360 C 10.697 13.305,10.573 13.193,10.448 13.112 C 10.167 12.930,9.904 12.680,9.811 12.509 C 9.705 12.312,9.719 11.726,9.837 11.455 C 10.048 10.968,10.204 10.920,11.523 10.931 L 12.506 10.940 12.652 11.051 " fill="#373B4D" stroke="none" fill-rule="evenodd"></path></svg>