<svg width="24" height="24" viewBox="0 0 24 24" fill="none" xmlns="http://www.w3.org/2000/svg"><path d="M10.800 2.602 C 9.953 2.652,9.188 2.852,8.279 3.261 C 6.771 3.938,5.535 4.887,4.488 6.170 C 3.517 7.359,2.767 9.091,2.533 10.680 C 2.428 11.395,2.439 12.868,2.554 13.500 C 2.856 15.155,3.599 16.799,4.565 17.948 C 4.922 18.373,5.698 19.144,6.080 19.452 C 6.934 20.141,8.561 20.975,9.600 21.255 C 10.436 21.481,10.632 21.500,12.100 21.497 L 13.460 21.494 14.014 21.346 C 15.888 20.845,17.402 20.015,18.653 18.802 C 19.696 17.790,20.318 16.838,20.913 15.340 C 21.339 14.268,21.411 13.950,21.483 12.820 C 21.537 11.953,21.512 10.911,21.423 10.380 C 21.183 8.955,20.388 7.240,19.397 6.013 C 18.128 4.440,15.991 3.130,14.061 2.740 C 13.262 2.578,12.060 2.527,10.800 2.602 M12.460 6.245 C 12.671 6.303,12.896 6.541,12.952 6.766 C 12.976 6.861,13.018 7.110,13.044 7.318 L 13.092 7.695 12.859 7.913 C 12.593 8.160,12.288 8.319,12.077 8.320 C 11.667 8.321,11.267 8.085,11.101 7.745 C 11.000 7.540,10.994 7.494,11.006 7.105 C 11.019 6.715,11.028 6.675,11.141 6.513 C 11.319 6.259,11.465 6.200,11.920 6.200 C 12.129 6.200,12.372 6.220,12.460 6.245 M12.674 11.094 C 12.850 11.256,12.959 11.496,12.999 11.813 C 13.020 11.981,13.066 12.619,13.100 13.229 C 13.166 14.405,13.224 15.148,13.266 15.360 C 13.286 15.458,13.373 15.558,13.629 15.774 C 14.166 16.229,14.293 16.494,14.205 16.970 C 14.120 17.430,13.773 17.884,13.461 17.942 C 13.381 17.957,12.997 17.961,12.608 17.950 C 11.624 17.921,11.442 17.855,11.040 17.380 L 10.852 17.157 10.827 15.609 C 10.800 13.905,10.767 13.492,10.644 13.336 C 10.601 13.281,10.437 13.121,10.280 12.980 C 9.823 12.570,9.823 12.570,9.806 12.069 C 9.791 11.649,9.795 11.628,9.918 11.378 C 9.988 11.236,10.083 11.100,10.130 11.075 C 10.266 11.002,10.956 10.966,11.800 10.988 C 12.526 11.007,12.586 11.014,12.674 11.094 " fill="#373B4D" stroke="none" fill-rule="evenodd"></path></svg>