<svg width="24" height="24" viewBox="0 0 24 24" fill="none" xmlns="http://www.w3.org/2000/svg"><path d="M10.800 2.560 C 9.246 2.685,7.471 3.441,6.040 4.585 C 5.599 4.937,4.771 5.770,4.440 6.194 C 3.480 7.422,2.855 8.853,2.533 10.560 C 2.444 11.034,2.431 12.733,2.513 13.300 C 2.652 14.269,3.083 15.571,3.565 16.480 C 3.987 17.275,4.415 17.854,5.100 18.555 C 6.022 19.499,6.625 19.943,7.760 20.518 C 9.182 21.237,10.130 21.486,11.668 21.544 C 12.869 21.589,13.772 21.467,14.800 21.121 C 16.055 20.698,17.043 20.168,18.000 19.405 C 19.520 18.193,20.455 16.796,21.163 14.680 C 21.468 13.769,21.494 13.558,21.497 12.000 C 21.500 10.529,21.486 10.391,21.255 9.591 C 20.689 7.634,19.633 5.982,18.143 4.724 C 16.822 3.609,14.953 2.773,13.400 2.604 C 12.865 2.546,11.301 2.519,10.800 2.560 M12.520 6.243 C 12.907 6.419,12.991 6.571,13.051 7.210 L 13.096 7.693 12.807 7.964 C 12.469 8.281,12.330 8.337,11.954 8.310 C 11.610 8.286,11.347 8.156,11.171 7.926 C 10.999 7.699,10.950 7.496,10.966 7.062 C 10.979 6.728,10.990 6.685,11.112 6.510 C 11.309 6.226,11.458 6.164,11.940 6.163 C 12.258 6.162,12.377 6.178,12.520 6.243 M12.657 11.055 C 12.726 11.108,12.832 11.242,12.893 11.354 C 13.029 11.604,13.059 11.858,13.119 13.240 C 13.186 14.825,13.233 15.404,13.301 15.508 C 13.334 15.558,13.488 15.683,13.643 15.784 C 14.151 16.119,14.327 16.459,14.242 16.943 C 14.166 17.384,13.978 17.676,13.646 17.871 C 13.461 17.980,13.457 17.980,12.737 17.974 C 11.651 17.965,11.448 17.894,11.030 17.378 L 10.840 17.144 10.840 16.082 C 10.839 14.908,10.779 13.535,10.721 13.383 C 10.701 13.330,10.580 13.210,10.452 13.117 C 10.153 12.900,9.889 12.649,9.817 12.512 C 9.728 12.342,9.741 11.733,9.840 11.468 C 10.024 10.977,10.249 10.913,11.696 10.943 C 12.502 10.959,12.537 10.963,12.657 11.055 " fill="#373B4D" stroke="none" fill-rule="evenodd"></path></svg>