<svg width="24" height="24" viewBox="0 0 24 24" fill="none" xmlns="http://www.w3.org/2000/svg"><path d="M10.780 2.522 C 9.848 2.624,8.586 3.017,7.649 3.498 C 6.239 4.220,4.873 5.459,3.942 6.860 C 3.237 7.919,2.668 9.464,2.501 10.772 C 2.431 11.317,2.420 12.576,2.481 13.081 C 2.696 14.862,3.457 16.662,4.570 18.020 C 4.877 18.396,5.581 19.099,5.937 19.386 C 6.938 20.194,8.256 20.876,9.552 21.258 C 10.154 21.435,10.437 21.479,11.293 21.528 C 12.395 21.591,13.323 21.535,14.020 21.363 C 15.488 21.001,16.913 20.310,18.020 19.422 C 18.626 18.936,19.442 18.067,19.832 17.491 C 20.332 16.753,20.800 15.791,21.123 14.839 C 21.420 13.961,21.478 13.657,21.519 12.742 C 21.551 12.020,21.517 10.595,21.463 10.380 C 21.451 10.336,21.387 10.078,21.320 9.807 C 20.774 7.596,19.537 5.736,17.700 4.361 C 16.366 3.362,14.633 2.668,13.220 2.565 C 12.385 2.504,11.143 2.483,10.780 2.522 M12.647 6.289 C 13.019 6.545,13.051 6.615,13.070 7.198 L 13.086 7.700 12.846 7.947 C 12.518 8.286,12.408 8.339,12.040 8.337 C 11.797 8.336,11.696 8.314,11.511 8.225 C 11.099 8.027,10.920 7.696,10.920 7.131 C 10.920 6.801,11.021 6.544,11.226 6.355 C 11.452 6.146,11.546 6.119,12.005 6.130 C 12.424 6.140,12.434 6.142,12.647 6.289 M11.916 10.906 L 12.526 10.933 12.718 11.106 C 12.824 11.201,12.939 11.339,12.973 11.412 C 13.073 11.621,13.115 12.149,13.159 13.720 C 13.182 14.523,13.211 15.266,13.224 15.371 C 13.248 15.562,13.249 15.564,13.525 15.702 C 13.870 15.876,14.089 16.072,14.202 16.305 C 14.277 16.459,14.287 16.535,14.272 16.832 C 14.252 17.239,14.177 17.425,13.940 17.660 C 13.656 17.942,13.483 18.000,12.936 17.999 C 12.294 17.997,11.668 17.937,11.526 17.863 C 11.332 17.763,11.164 17.602,10.998 17.357 L 10.840 17.124 10.837 16.072 C 10.833 14.487,10.787 13.380,10.721 13.301 C 10.691 13.265,10.548 13.166,10.403 13.081 C 10.082 12.892,9.813 12.623,9.759 12.438 C 9.709 12.261,9.709 11.910,9.760 11.635 C 9.807 11.386,9.967 11.136,10.147 11.030 C 10.362 10.905,10.943 10.864,11.916 10.906 " fill="#373B4D" stroke="none" fill-rule="evenodd"></path></svg>