<svg width="24" height="24" viewBox="0 0 24 24" fill="none" xmlns="http://www.w3.org/2000/svg"><path d="M11.000 2.463 C 8.701 2.737,6.759 3.671,5.175 5.265 C 2.751 7.704,1.820 11.347,2.781 14.634 C 3.551 17.270,5.288 19.358,7.732 20.586 C 8.548 20.996,9.533 21.315,10.507 21.484 C 10.943 21.559,11.167 21.573,12.000 21.573 C 12.833 21.573,13.057 21.559,13.493 21.484 C 16.681 20.930,19.280 18.988,20.644 16.140 C 20.953 15.495,21.137 14.984,21.320 14.263 C 21.528 13.445,21.573 13.025,21.570 11.920 C 21.567 11.152,21.552 10.892,21.483 10.500 C 21.304 9.479,21.026 8.628,20.573 7.714 C 19.332 5.208,17.068 3.393,14.321 2.701 C 13.686 2.541,13.242 2.480,12.412 2.440 C 11.490 2.395,11.587 2.393,11.000 2.463 M12.549 6.165 C 12.976 6.369,13.160 6.689,13.160 7.228 C 13.160 7.463,13.140 7.563,13.060 7.720 C 12.932 7.973,12.716 8.188,12.484 8.294 C 12.215 8.417,11.767 8.413,11.506 8.284 C 10.765 7.920,10.587 6.933,11.160 6.360 C 11.524 5.996,12.042 5.923,12.549 6.165 M12.503 10.922 C 12.731 11.032,12.940 11.244,13.066 11.491 L 13.170 11.698 13.191 13.645 L 13.212 15.593 13.356 15.620 C 13.763 15.695,14.070 15.913,14.237 16.246 C 14.342 16.457,14.360 16.537,14.360 16.800 C 14.360 17.346,14.082 17.747,13.582 17.923 C 13.395 17.989,13.250 18.000,12.608 18.000 C 11.753 18.000,11.560 17.963,11.274 17.744 C 11.162 17.659,11.046 17.516,10.963 17.359 L 10.830 17.110 10.809 15.159 L 10.788 13.209 10.644 13.190 C 10.292 13.142,9.897 12.858,9.739 12.539 C 9.618 12.295,9.626 11.685,9.754 11.440 C 9.874 11.208,9.979 11.097,10.193 10.971 C 10.432 10.830,10.699 10.802,11.578 10.823 C 12.234 10.838,12.359 10.852,12.503 10.922 " fill="#373B4D" stroke="none" fill-rule="evenodd"></path></svg>