<svg width="24" height="24" viewBox="0 0 24 24" fill="none" xmlns="http://www.w3.org/2000/svg"><path d="M8.980 3.078 C 7.779 3.113,7.278 3.163,6.730 3.302 C 5.717 3.558,4.708 4.213,4.118 4.996 C 3.721 5.523,3.343 6.379,3.204 7.063 C 3.074 7.702,3.038 8.439,3.014 10.900 C 2.987 13.806,3.043 16.025,3.159 16.676 C 3.515 18.668,4.634 20.010,6.440 20.613 C 7.452 20.950,7.792 20.972,12.080 20.970 C 14.409 20.970,15.703 20.954,16.040 20.922 C 18.672 20.675,20.330 19.244,20.799 16.814 C 20.950 16.034,20.973 15.426,20.976 12.160 C 20.980 8.217,20.931 7.416,20.634 6.500 C 20.064 4.743,18.793 3.614,16.968 3.242 C 16.742 3.196,16.254 3.145,15.800 3.121 C 14.767 3.067,10.342 3.039,8.980 3.078 M17.055 4.922 C 18.081 5.333,18.486 5.695,18.899 6.568 C 19.275 7.362,19.297 7.646,19.291 11.800 C 19.285 15.618,19.256 16.408,19.099 16.940 C 18.765 18.074,17.994 18.817,16.810 19.145 C 16.212 19.310,15.528 19.336,11.860 19.336 C 9.525 19.335,8.366 19.321,8.060 19.287 C 6.534 19.121,5.668 18.592,5.139 17.503 C 4.722 16.644,4.699 16.352,4.702 11.920 C 4.705 7.740,4.723 7.454,5.042 6.647 C 5.198 6.252,5.482 5.873,5.871 5.539 C 6.266 5.201,6.440 5.105,7.000 4.918 L 7.460 4.764 12.055 4.762 L 16.651 4.760 17.055 4.922 M16.544 6.188 C 16.274 6.230,15.923 6.553,15.824 6.851 C 15.482 7.877,16.780 8.702,17.540 7.942 C 17.826 7.656,17.927 7.135,17.765 6.780 C 17.682 6.597,17.411 6.337,17.226 6.261 C 17.080 6.201,16.712 6.162,16.544 6.188 M11.251 7.481 C 10.856 7.523,10.491 7.640,10.037 7.871 C 9.120 8.338,8.515 8.885,8.033 9.681 C 7.747 10.154,7.531 10.789,7.441 11.420 C 7.288 12.501,7.641 13.866,8.293 14.710 C 8.624 15.138,9.273 15.729,9.640 15.936 C 10.994 16.699,12.469 16.795,13.829 16.209 C 14.325 15.995,14.712 15.728,15.174 15.281 C 16.213 14.277,16.706 12.968,16.566 11.588 C 16.447 10.422,16.066 9.612,15.264 8.820 C 14.131 7.700,12.942 7.303,11.251 7.481 M12.700 9.119 C 13.067 9.178,13.613 9.467,13.953 9.782 C 14.322 10.123,14.657 10.627,14.813 11.073 C 14.925 11.394,14.934 11.460,14.933 11.960 C 14.932 12.257,14.909 12.608,14.881 12.740 C 14.727 13.472,14.058 14.287,13.310 14.654 C 12.506 15.049,11.872 15.088,11.009 14.796 C 10.575 14.650,10.381 14.534,10.055 14.230 C 9.725 13.921,9.486 13.587,9.269 13.134 L 9.100 12.780 9.087 12.131 C 9.071 11.389,9.103 11.187,9.300 10.777 C 9.667 10.014,10.556 9.256,11.240 9.124 C 11.490 9.075,12.410 9.072,12.700 9.119 " fill="#373B4D" stroke="none" fill-rule="evenodd"></path></svg>