<svg width="24" height="24" viewBox="0 0 24 24" fill="none" xmlns="http://www.w3.org/2000/svg"><path d="M8.120 3.083 C 7.232 3.150,6.655 3.270,6.080 3.507 C 4.709 4.072,3.848 5.012,3.357 6.481 C 3.124 7.177,3.083 7.534,3.034 9.280 C 2.986 11.020,3.016 15.460,3.081 16.140 C 3.181 17.194,3.522 18.179,4.044 18.920 C 4.631 19.753,5.522 20.366,6.600 20.676 C 7.318 20.883,7.664 20.921,9.260 20.966 C 10.949 21.014,15.431 20.983,16.100 20.919 C 17.542 20.780,18.659 20.302,19.487 19.469 C 20.180 18.773,20.635 17.830,20.842 16.664 C 20.956 16.024,21.014 13.665,20.986 10.880 C 20.961 8.506,20.922 7.725,20.799 7.117 C 20.449 5.393,19.507 4.185,18.012 3.545 C 17.349 3.261,16.714 3.138,15.608 3.080 C 14.766 3.035,8.723 3.038,8.120 3.083 M16.840 4.834 C 17.005 4.884,17.329 5.018,17.560 5.131 C 17.911 5.303,18.033 5.389,18.305 5.658 C 18.590 5.940,18.658 6.037,18.854 6.440 C 19.310 7.376,19.331 7.659,19.309 12.480 C 19.293 15.922,19.290 16.077,19.208 16.500 C 19.068 17.233,18.883 17.663,18.524 18.099 C 17.960 18.783,17.142 19.179,16.076 19.283 C 15.847 19.305,14.400 19.334,12.860 19.346 C 9.907 19.370,8.126 19.329,7.520 19.222 C 6.368 19.020,5.556 18.442,5.100 17.500 C 4.820 16.921,4.750 16.455,4.676 14.696 C 4.628 13.541,4.655 9.617,4.720 8.300 C 4.784 7.006,5.033 6.329,5.681 5.681 C 5.998 5.364,6.281 5.175,6.677 5.015 C 6.911 4.920,7.418 4.783,7.660 4.748 C 7.726 4.738,9.751 4.733,12.160 4.736 L 16.540 4.742 16.840 4.834 M16.297 6.277 C 15.950 6.476,15.757 6.804,15.755 7.197 C 15.753 7.495,15.868 7.740,16.118 7.974 C 16.333 8.175,16.511 8.239,16.851 8.240 C 17.700 8.241,18.178 7.182,17.621 6.532 C 17.296 6.152,16.711 6.040,16.297 6.277 M11.180 7.477 C 10.663 7.572,10.475 7.637,9.935 7.905 C 7.741 8.993,6.815 11.583,7.799 13.884 C 7.994 14.341,8.270 14.748,8.658 15.153 C 9.083 15.597,9.410 15.838,9.940 16.101 C 12.278 17.260,14.976 16.336,16.159 13.971 C 16.699 12.891,16.732 11.368,16.240 10.187 C 15.865 9.285,14.974 8.352,14.040 7.881 C 13.421 7.570,12.965 7.465,12.040 7.423 C 11.690 7.407,11.484 7.420,11.180 7.477 M12.880 9.141 C 13.643 9.372,14.317 9.965,14.699 10.740 C 14.924 11.196,14.976 11.492,14.951 12.175 C 14.929 12.772,14.870 12.984,14.592 13.470 C 14.193 14.167,13.552 14.666,12.772 14.888 C 12.334 15.012,11.666 15.012,11.228 14.888 C 10.373 14.645,9.768 14.140,9.340 13.315 C 9.086 12.824,9.029 12.541,9.050 11.880 C 9.069 11.298,9.102 11.159,9.345 10.660 C 9.705 9.920,10.506 9.277,11.295 9.097 C 11.623 9.022,12.573 9.048,12.880 9.141 " fill="#373B4D" stroke="none" fill-rule="evenodd"></path></svg>