<svg width="24" height="24" viewBox="0 0 24 24" fill="none" xmlns="http://www.w3.org/2000/svg"><path d="M8.700 3.081 C 7.231 3.121,6.584 3.250,5.740 3.671 C 4.655 4.213,3.935 5.001,3.485 6.142 C 3.154 6.980,3.097 7.355,3.035 9.140 C 2.984 10.598,3.016 15.510,3.080 16.120 C 3.328 18.466,4.478 19.991,6.484 20.633 C 7.482 20.952,7.930 20.979,12.140 20.977 C 15.701 20.974,16.157 20.957,16.915 20.794 C 18.024 20.556,18.872 20.104,19.545 19.392 C 20.374 18.515,20.814 17.389,20.920 15.880 C 20.988 14.894,21.015 11.073,20.964 9.420 C 20.904 7.451,20.832 6.954,20.477 6.064 C 19.846 4.486,18.496 3.462,16.673 3.180 C 15.882 3.058,11.546 3.004,8.700 3.081 M16.928 4.864 C 17.088 4.922,17.399 5.060,17.618 5.172 C 18.190 5.465,18.553 5.833,18.829 6.404 C 19.060 6.883,19.140 7.115,19.200 7.480 C 19.314 8.187,19.346 10.898,19.282 14.560 C 19.250 16.367,19.249 16.383,19.140 16.800 C 18.960 17.490,18.766 17.848,18.330 18.296 C 17.895 18.742,17.296 19.054,16.581 19.207 C 16.283 19.270,15.932 19.291,14.580 19.326 C 12.702 19.374,8.729 19.346,8.028 19.281 C 6.553 19.142,5.648 18.588,5.120 17.500 C 4.801 16.842,4.742 16.419,4.677 14.283 C 4.631 12.757,4.686 8.477,4.761 7.800 C 4.822 7.252,4.936 6.828,5.126 6.440 C 5.265 6.156,5.359 6.034,5.696 5.699 C 6.161 5.237,6.460 5.063,7.106 4.878 L 7.500 4.765 12.068 4.762 L 16.635 4.760 16.928 4.864 M16.470 6.198 C 16.330 6.243,16.066 6.436,15.960 6.571 C 15.759 6.826,15.702 7.289,15.836 7.583 C 16.197 8.379,17.273 8.473,17.699 7.746 C 18.111 7.042,17.662 6.216,16.844 6.175 C 16.699 6.168,16.530 6.178,16.470 6.198 M11.040 7.504 C 10.628 7.594,10.410 7.675,9.944 7.912 C 8.523 8.633,7.636 9.888,7.438 11.456 C 7.310 12.480,7.582 13.660,8.143 14.508 C 8.419 14.925,9.035 15.555,9.400 15.793 C 10.800 16.708,12.489 16.844,13.949 16.160 C 14.887 15.721,15.725 14.877,16.176 13.919 C 16.668 12.874,16.721 11.592,16.320 10.414 C 16.109 9.793,15.780 9.305,15.185 8.729 C 14.420 7.989,13.643 7.598,12.704 7.480 C 12.254 7.424,11.351 7.437,11.040 7.504 M12.755 9.123 C 13.050 9.173,13.503 9.399,13.823 9.655 C 14.388 10.108,14.836 10.844,14.924 11.464 C 14.982 11.875,14.940 12.606,14.840 12.931 C 14.735 13.270,14.398 13.804,14.103 14.097 C 13.478 14.721,12.602 15.050,11.760 14.977 C 11.377 14.944,10.813 14.764,10.482 14.571 C 9.949 14.258,9.408 13.577,9.169 12.916 C 9.071 12.644,9.062 12.572,9.064 12.020 C 9.065 11.566,9.083 11.362,9.136 11.180 C 9.386 10.336,10.089 9.574,10.960 9.203 C 11.315 9.052,12.124 9.015,12.755 9.123 " fill="#373B4D" stroke="none" fill-rule="evenodd"></path></svg>