<svg width="24" height="24" viewBox="0 0 24 24" fill="none" xmlns="http://www.w3.org/2000/svg"><path d="M8.940 3.039 C 7.630 3.085,6.977 3.177,6.320 3.409 C 4.856 3.926,3.857 4.945,3.366 6.425 C 3.047 7.386,3.020 7.822,3.020 12.020 C 3.020 15.727,3.037 16.172,3.206 16.955 C 3.649 19.009,4.943 20.325,6.960 20.774 C 7.803 20.962,8.227 20.979,12.000 20.980 C 15.665 20.980,16.105 20.964,16.924 20.798 C 19.278 20.323,20.673 18.682,20.919 16.100 C 20.983 15.425,21.013 11.021,20.965 9.300 C 20.920 7.681,20.877 7.287,20.665 6.560 C 20.270 5.203,19.431 4.207,18.189 3.620 C 17.529 3.307,16.855 3.151,15.860 3.080 C 15.121 3.028,10.111 2.998,8.940 3.039 M16.621 4.787 C 17.443 4.975,18.075 5.332,18.512 5.854 C 18.742 6.128,19.054 6.779,19.158 7.200 C 19.204 7.387,19.261 7.756,19.284 8.020 C 19.350 8.751,19.354 15.335,19.289 15.920 C 19.154 17.146,18.931 17.707,18.341 18.305 C 17.987 18.663,17.663 18.873,17.213 19.035 C 16.621 19.247,16.386 19.280,15.180 19.320 C 13.780 19.366,10.200 19.367,8.820 19.321 C 7.531 19.279,7.061 19.189,6.398 18.858 C 5.706 18.512,5.125 17.802,4.904 17.031 C 4.657 16.170,4.587 13.805,4.680 9.460 C 4.711 7.989,4.726 7.730,4.801 7.380 C 4.956 6.649,5.204 6.158,5.654 5.688 C 6.171 5.151,6.883 4.839,7.864 4.721 C 8.016 4.703,9.967 4.692,12.200 4.697 C 16.140 4.705,16.271 4.708,16.621 4.787 M16.513 6.175 C 16.003 6.315,15.654 6.887,15.764 7.401 C 15.822 7.674,16.019 7.953,16.257 8.099 C 16.423 8.201,16.503 8.222,16.766 8.234 C 17.024 8.246,17.109 8.233,17.258 8.161 C 17.782 7.907,18.021 7.232,17.765 6.730 C 17.672 6.547,17.403 6.294,17.226 6.221 C 17.025 6.138,16.718 6.118,16.513 6.175 M11.500 7.423 C 10.824 7.515,10.487 7.616,9.940 7.890 C 9.487 8.117,9.193 8.327,8.810 8.694 C 8.245 9.237,7.875 9.810,7.644 10.501 C 7.170 11.920,7.413 13.564,8.266 14.706 C 9.173 15.921,10.520 16.600,12.021 16.600 C 13.556 16.600,14.962 15.845,15.822 14.558 C 16.455 13.612,16.657 12.773,16.562 11.490 C 16.489 10.499,16.074 9.609,15.321 8.825 C 14.685 8.163,13.933 7.727,13.072 7.520 C 12.751 7.443,11.787 7.383,11.500 7.423 M12.754 9.101 C 13.512 9.280,14.272 9.892,14.653 10.631 C 14.923 11.156,14.960 11.322,14.960 12.000 C 14.960 12.679,14.923 12.844,14.651 13.372 C 14.201 14.246,13.346 14.847,12.384 14.966 C 11.090 15.125,9.883 14.470,9.320 13.303 C 9.083 12.812,9.025 12.551,9.027 11.980 C 9.028 11.439,9.097 11.148,9.347 10.640 C 9.505 10.318,9.589 10.204,9.897 9.899 C 10.291 9.507,10.625 9.301,11.140 9.134 C 11.373 9.059,11.510 9.043,11.960 9.042 C 12.304 9.042,12.592 9.063,12.754 9.101 " fill="#373B4D" stroke="none" fill-rule="evenodd"></path></svg>