<svg width="24" height="24" viewBox="0 0 24 24" fill="none" xmlns="http://www.w3.org/2000/svg"><path d="M10.600 3.117 C 8.639 3.464,7.094 4.241,5.746 5.557 C 4.936 6.347,4.389 7.097,3.919 8.060 C 3.282 9.367,3.023 10.490,3.023 11.960 C 3.022 13.340,3.258 14.472,3.801 15.693 C 4.578 17.440,6.164 19.106,7.896 19.996 C 10.073 21.114,12.514 21.297,14.858 20.516 C 16.187 20.073,17.305 19.385,18.315 18.389 C 19.708 17.015,20.568 15.360,20.902 13.407 C 21.043 12.583,21.043 11.417,20.902 10.593 C 20.781 9.886,20.616 9.295,20.354 8.629 L 20.153 8.118 19.889 8.365 C 19.601 8.634,19.292 8.847,18.973 8.995 L 18.769 9.090 18.886 9.375 C 19.176 10.075,19.315 10.783,19.347 11.720 C 19.372 12.433,19.326 13.028,19.200 13.609 C 18.961 14.709,18.407 15.825,17.657 16.717 C 16.435 18.171,14.889 19.030,13.000 19.303 C 12.338 19.399,11.242 19.363,10.579 19.224 C 9.249 18.945,8.021 18.321,7.073 17.442 C 5.953 16.403,5.168 15.044,4.838 13.569 C 4.717 13.028,4.657 11.965,4.714 11.360 C 4.808 10.374,5.019 9.634,5.463 8.740 C 5.826 8.009,6.169 7.519,6.714 6.953 C 7.367 6.274,7.909 5.866,8.692 5.465 C 9.734 4.931,10.810 4.675,12.020 4.673 C 13.124 4.671,14.029 4.864,15.125 5.335 L 15.271 5.397 15.462 5.069 C 15.580 4.866,15.777 4.614,15.978 4.410 L 16.303 4.079 16.041 3.956 C 15.227 3.571,14.595 3.357,13.740 3.174 C 13.304 3.081,13.157 3.071,12.140 3.057 C 11.181 3.045,10.960 3.053,10.600 3.117 M17.544 4.562 C 17.093 4.638,16.519 5.051,16.269 5.480 C 15.970 5.993,15.969 6.705,16.264 7.289 C 16.539 7.830,17.275 8.280,17.886 8.280 C 18.973 8.280,19.925 7.212,19.760 6.179 C 19.582 5.068,18.638 4.379,17.544 4.562 M11.480 7.963 C 10.126 8.104,8.803 9.106,8.255 10.407 C 7.991 11.033,7.939 11.302,7.944 12.040 C 7.949 12.768,8.000 13.038,8.243 13.621 C 8.710 14.743,9.818 15.706,10.980 15.999 C 11.354 16.093,12.092 16.132,12.560 16.083 C 13.651 15.967,14.780 15.273,15.408 14.332 C 15.977 13.481,16.172 12.688,16.084 11.580 C 16.001 10.527,15.385 9.436,14.490 8.758 C 14.169 8.515,13.626 8.234,13.225 8.103 C 12.954 8.014,12.093 7.904,11.844 7.926 C 11.809 7.929,11.645 7.945,11.480 7.963 " fill="#373B4D" stroke="none" fill-rule="evenodd"></path></svg>