<svg width="24" height="24" viewBox="0 0 24 24" fill="none" xmlns="http://www.w3.org/2000/svg"><path d="M11.120 3.043 C 8.975 3.282,7.120 4.161,5.641 5.641 C 3.351 7.930,2.481 11.193,3.319 14.343 C 3.726 15.872,4.484 17.168,5.658 18.342 C 6.636 19.320,7.595 19.945,8.857 20.426 C 12.085 21.659,15.835 20.858,18.316 18.405 C 19.789 16.950,20.696 15.112,20.962 13.040 C 21.024 12.562,21.024 11.408,20.963 10.960 C 20.842 10.063,20.642 9.314,20.311 8.510 L 20.150 8.121 19.830 8.422 C 19.590 8.648,19.419 8.768,19.141 8.903 L 18.772 9.082 18.904 9.411 C 19.219 10.196,19.366 11.019,19.366 12.000 C 19.366 12.721,19.305 13.230,19.139 13.882 C 18.621 15.929,17.098 17.762,15.162 18.671 C 12.598 19.874,9.564 19.503,7.378 17.718 C 7.223 17.592,6.917 17.300,6.698 17.071 C 5.693 16.017,5.048 14.744,4.776 13.274 C 4.689 12.807,4.658 11.714,4.718 11.199 C 5.004 8.699,6.508 6.550,8.759 5.420 C 9.921 4.838,11.330 4.564,12.593 4.675 C 13.453 4.750,14.325 4.972,15.012 5.288 C 15.231 5.389,15.298 5.406,15.312 5.363 C 15.418 5.046,15.817 4.498,16.123 4.249 L 16.324 4.086 15.972 3.920 C 15.061 3.490,14.280 3.246,13.340 3.100 C 12.850 3.024,11.582 2.991,11.120 3.043 M17.460 4.577 C 17.143 4.656,16.888 4.797,16.633 5.033 C 16.228 5.408,16.040 5.841,16.040 6.400 C 16.040 7.337,16.706 8.106,17.643 8.251 C 18.629 8.404,19.598 7.680,19.759 6.670 C 19.875 5.939,19.485 5.141,18.829 4.765 C 18.439 4.542,17.897 4.468,17.460 4.577 M11.276 7.980 C 9.555 8.306,8.238 9.668,7.958 11.411 C 7.883 11.885,7.928 12.652,8.058 13.100 C 8.269 13.826,8.613 14.417,9.118 14.922 C 9.481 15.285,9.806 15.511,10.295 15.742 C 10.912 16.033,11.228 16.098,12.020 16.098 C 12.598 16.098,12.749 16.085,13.025 16.010 C 14.519 15.601,15.600 14.520,16.010 13.025 C 16.086 12.746,16.099 12.604,16.097 12.020 C 16.095 11.455,16.080 11.288,16.010 11.033 C 15.595 9.532,14.487 8.426,13.007 8.034 C 12.600 7.926,11.706 7.898,11.276 7.980 " fill="#373B4D" stroke="none" fill-rule="evenodd"></path></svg>