<svg width="24" height="24" viewBox="0 0 24 24" fill="none" xmlns="http://www.w3.org/2000/svg"><path d="M10.920 3.082 C 10.214 3.146,9.082 3.459,8.320 3.801 C 6.339 4.691,4.679 6.348,3.797 8.318 C 3.418 9.165,3.181 10.000,3.080 10.840 C 3.013 11.394,3.024 12.690,3.100 13.240 C 3.363 15.140,4.164 16.774,5.520 18.176 C 6.366 19.052,7.113 19.604,8.100 20.083 C 9.405 20.717,10.539 20.978,11.980 20.976 C 13.429 20.975,14.601 20.706,15.920 20.074 C 18.084 19.036,19.787 17.105,20.536 14.840 C 20.907 13.717,21.020 12.946,20.989 11.744 C 20.959 10.555,20.791 9.755,20.313 8.529 L 20.153 8.119 19.891 8.359 C 19.593 8.633,19.320 8.822,18.996 8.981 L 18.772 9.091 18.908 9.435 C 19.211 10.200,19.332 10.948,19.333 12.060 C 19.334 13.166,19.201 13.865,18.812 14.800 C 17.704 17.457,15.189 19.235,12.380 19.347 C 10.731 19.412,9.217 18.984,7.874 18.072 C 6.452 17.106,5.318 15.481,4.907 13.820 C 4.782 13.311,4.765 13.195,4.720 12.485 C 4.659 11.518,4.769 10.585,5.043 9.750 C 5.215 9.226,5.750 8.168,6.069 7.720 C 6.419 7.229,7.274 6.375,7.760 6.031 C 8.512 5.499,9.504 5.055,10.360 4.866 C 11.974 4.510,13.458 4.651,15.068 5.312 L 15.276 5.397 15.401 5.178 C 15.561 4.898,15.792 4.601,16.073 4.311 L 16.296 4.082 15.863 3.878 C 15.352 3.637,14.550 3.362,13.938 3.218 C 13.340 3.078,11.755 3.006,10.920 3.082 M17.588 4.565 C 17.102 4.634,16.442 5.121,16.222 5.574 C 15.887 6.260,16.041 7.164,16.582 7.697 C 16.932 8.041,17.472 8.281,17.897 8.280 C 18.852 8.277,19.758 7.385,19.767 6.439 C 19.778 5.269,18.764 4.397,17.588 4.565 M11.380 7.981 C 10.696 8.092,10.131 8.334,9.568 8.759 C 8.655 9.447,8.052 10.485,7.962 11.522 C 7.890 12.346,7.997 13.081,8.281 13.707 C 8.701 14.638,9.597 15.483,10.564 15.862 C 11.000 16.032,11.369 16.090,12.040 16.094 C 12.566 16.096,12.712 16.083,13.000 16.006 C 14.520 15.598,15.689 14.402,16.027 12.910 C 16.115 12.521,16.115 11.568,16.027 11.175 C 15.725 9.826,14.806 8.747,13.506 8.217 C 12.920 7.978,12.018 7.878,11.380 7.981 " fill="#373B4D" stroke="none" fill-rule="evenodd"></path></svg>