<svg width="24" height="24" viewBox="0 0 24 24" fill="none" xmlns="http://www.w3.org/2000/svg"><path d="M11.220 3.067 C 9.907 3.133,8.258 3.705,7.060 4.510 C 4.879 5.975,3.469 8.176,3.102 10.685 C 3.022 11.231,3.020 12.620,3.098 13.200 C 3.309 14.770,3.923 16.227,4.890 17.454 C 5.299 17.973,6.153 18.818,6.641 19.187 C 7.846 20.097,9.321 20.712,10.754 20.902 C 11.732 21.031,13.164 20.962,14.060 20.743 C 17.102 20.000,19.571 17.742,20.538 14.820 C 20.844 13.894,20.952 13.308,20.987 12.380 C 21.039 11.004,20.849 9.919,20.312 8.529 L 20.153 8.118 19.932 8.320 C 19.641 8.587,19.274 8.846,18.994 8.982 L 18.768 9.093 18.841 9.262 C 18.977 9.581,19.152 10.180,19.225 10.580 C 19.328 11.145,19.331 12.891,19.231 13.425 C 19.078 14.235,18.648 15.271,18.148 16.034 C 16.162 19.064,12.371 20.178,9.028 18.714 C 6.989 17.821,5.381 15.859,4.865 13.635 C 4.715 12.987,4.675 11.744,4.780 10.952 C 4.889 10.127,5.066 9.585,5.523 8.680 C 5.919 7.898,6.146 7.577,6.735 6.970 C 7.375 6.311,7.748 6.008,8.317 5.686 C 9.420 5.060,10.503 4.747,11.760 4.693 C 12.818 4.647,13.920 4.854,15.064 5.312 L 15.268 5.394 15.491 5.047 C 15.614 4.856,15.844 4.560,16.001 4.389 L 16.288 4.079 15.914 3.906 C 15.211 3.579,14.307 3.284,13.700 3.182 C 13.343 3.122,11.987 3.034,11.640 3.048 C 11.541 3.052,11.352 3.061,11.220 3.067 M17.434 4.597 C 16.978 4.744,16.353 5.262,16.199 5.621 C 15.804 6.544,16.220 7.641,17.131 8.076 C 17.593 8.296,17.944 8.332,18.369 8.201 C 18.904 8.035,19.340 7.651,19.593 7.124 C 20.035 6.201,19.557 5.060,18.569 4.676 C 18.320 4.579,17.636 4.532,17.434 4.597 M11.095 8.038 C 9.905 8.316,8.847 9.177,8.319 10.300 C 8.091 10.784,8.014 11.056,7.960 11.575 C 7.854 12.603,8.133 13.655,8.720 14.434 C 9.269 15.162,10.026 15.699,10.880 15.966 C 11.155 16.052,11.251 16.060,12.020 16.060 C 12.841 16.060,12.868 16.057,13.200 15.944 C 14.627 15.459,15.673 14.356,16.000 12.992 C 16.123 12.477,16.114 11.544,15.980 11.015 C 15.693 9.881,14.909 8.923,13.824 8.380 C 13.194 8.065,12.889 7.994,12.080 7.976 C 11.535 7.964,11.363 7.975,11.095 8.038 " fill="#373B4D" stroke="none" fill-rule="evenodd"></path></svg>