<svg width="24" height="24" viewBox="0 0 24 24" fill="none" xmlns="http://www.w3.org/2000/svg"><path d="M11.060 3.059 C 9.853 3.222,8.914 3.502,7.943 3.987 C 5.226 5.346,3.351 8.088,3.042 11.154 C 2.820 13.354,3.498 15.686,4.878 17.472 C 6.279 19.284,8.274 20.478,10.580 20.884 C 11.012 20.960,11.246 20.975,11.960 20.976 C 13.034 20.978,13.739 20.875,14.680 20.578 C 18.153 19.482,20.598 16.441,20.959 12.766 C 21.153 10.798,20.589 8.649,19.435 6.957 C 17.935 4.759,15.463 3.289,12.920 3.084 C 12.002 3.009,11.475 3.002,11.060 3.059 M6.749 9.067 C 7.111 9.239,7.137 9.789,6.792 9.999 C 6.443 10.212,6.041 9.954,6.040 9.515 C 6.040 9.302,6.128 9.166,6.328 9.067 C 6.496 8.984,6.574 8.984,6.749 9.067 M11.200 9.142 C 12.001 9.380,12.604 10.016,12.886 10.920 C 12.971 11.191,12.980 11.294,12.980 12.000 C 12.980 12.871,12.947 13.056,12.704 13.569 C 12.527 13.940,12.344 14.174,12.030 14.428 C 11.533 14.829,11.120 14.963,10.380 14.963 C 9.678 14.963,9.268 14.844,8.814 14.508 C 8.433 14.226,8.037 13.615,7.900 13.098 C 7.753 12.540,7.752 11.463,7.898 10.910 C 8.148 9.965,8.944 9.229,9.878 9.080 C 10.192 9.030,10.939 9.065,11.200 9.142 M16.340 9.081 C 17.112 9.189,17.744 9.779,17.872 10.510 L 17.909 10.720 17.438 10.720 L 16.968 10.720 16.923 10.590 C 16.850 10.382,16.691 10.169,16.513 10.040 C 16.350 9.922,16.341 9.920,15.841 9.920 C 15.342 9.920,15.331 9.922,15.148 10.043 C 14.596 10.409,14.672 11.027,15.301 11.273 C 15.411 11.316,15.789 11.435,16.141 11.537 C 16.806 11.730,17.332 11.953,17.543 12.132 C 17.611 12.189,17.723 12.341,17.791 12.470 C 18.230 13.293,17.860 14.341,16.989 14.738 C 16.565 14.931,16.322 14.980,15.780 14.979 C 15.268 14.978,14.914 14.900,14.521 14.700 C 14.129 14.502,13.723 13.922,13.658 13.470 L 13.631 13.280 14.089 13.280 L 14.548 13.280 14.620 13.440 C 14.710 13.640,15.028 13.942,15.251 14.039 C 15.769 14.266,16.532 14.124,16.815 13.749 C 16.868 13.678,16.935 13.544,16.962 13.451 C 17.004 13.308,17.002 13.257,16.945 13.108 C 16.831 12.809,16.625 12.701,15.580 12.396 C 14.480 12.074,14.195 11.905,13.960 11.440 C 13.646 10.819,13.748 10.110,14.219 9.632 C 14.439 9.409,14.956 9.133,15.245 9.085 C 15.542 9.036,16.006 9.034,16.340 9.081 M9.721 10.066 C 9.102 10.378,8.787 11.029,8.785 12.000 C 8.784 12.569,8.849 12.873,9.053 13.258 C 9.548 14.188,10.646 14.392,11.401 13.693 C 11.848 13.279,12.024 12.735,11.986 11.880 C 11.963 11.364,11.893 11.020,11.753 10.746 C 11.635 10.515,11.330 10.207,11.101 10.088 C 10.924 9.995,10.844 9.981,10.420 9.969 C 9.961 9.955,9.930 9.960,9.721 10.066 M7.000 12.780 L 7.000 14.920 6.546 14.920 L 6.093 14.920 6.066 13.954 C 6.052 13.422,6.040 12.459,6.040 11.814 L 6.040 10.640 6.520 10.640 L 7.000 10.640 7.000 12.780 " fill="#373B4D" stroke="none" fill-rule="evenodd"></path></svg>