<svg width="24" height="24" viewBox="0 0 24 24" fill="none" xmlns="http://www.w3.org/2000/svg"><path d="M11.069 3.082 C 9.810 3.214,8.324 3.723,7.248 4.392 C 4.911 5.845,3.322 8.415,3.042 11.194 C 2.814 13.455,3.588 15.912,5.095 17.709 C 5.442 18.122,6.113 18.780,6.480 19.067 C 7.566 19.914,8.929 20.535,10.380 20.844 C 10.695 20.911,10.973 20.933,11.688 20.950 C 12.702 20.973,13.224 20.932,13.900 20.780 C 15.550 20.407,16.981 19.634,18.195 18.460 C 19.605 17.096,20.505 15.410,20.862 13.460 C 20.951 12.979,20.986 11.495,20.922 10.969 C 20.737 9.449,20.089 7.834,19.177 6.619 C 17.912 4.933,15.915 3.661,13.880 3.244 C 13.097 3.084,11.777 3.008,11.069 3.082 M6.656 9.056 C 6.805 9.118,6.980 9.325,7.020 9.485 C 7.050 9.606,6.940 9.853,6.801 9.979 C 6.690 10.079,6.451 10.083,6.304 9.986 C 6.188 9.910,6.042 9.639,6.041 9.496 C 6.040 9.372,6.200 9.159,6.359 9.074 C 6.526 8.986,6.493 8.988,6.656 9.056 M11.031 9.145 C 11.704 9.203,12.475 9.890,12.800 10.719 C 12.933 11.057,12.982 11.702,12.934 12.471 L 12.894 13.121 12.709 13.490 C 12.345 14.218,11.816 14.694,11.180 14.866 C 10.881 14.947,10.226 14.975,9.862 14.924 C 9.492 14.871,9.212 14.752,8.852 14.496 C 8.394 14.169,7.953 13.432,7.880 12.872 C 7.831 12.495,7.832 11.504,7.881 11.125 C 7.950 10.589,8.360 9.913,8.829 9.562 C 9.420 9.120,9.834 9.041,11.031 9.145 M16.400 9.123 C 17.097 9.236,17.664 9.771,17.853 10.492 L 17.912 10.720 17.440 10.720 L 16.968 10.720 16.924 10.594 C 16.864 10.421,16.631 10.146,16.450 10.033 C 16.316 9.950,16.252 9.940,15.840 9.940 C 15.414 9.940,15.367 9.948,15.200 10.046 C 14.907 10.219,14.733 10.526,14.798 10.754 C 14.891 11.076,15.046 11.167,16.180 11.560 C 17.311 11.951,17.567 12.100,17.781 12.486 C 17.895 12.691,17.900 12.721,17.900 13.200 C 17.900 13.670,17.893 13.714,17.785 13.934 C 17.647 14.215,17.333 14.539,17.051 14.691 C 16.387 15.050,15.329 15.068,14.613 14.734 C 14.224 14.552,13.736 13.886,13.657 13.430 L 13.631 13.280 14.086 13.281 L 14.540 13.283 14.660 13.490 C 15.124 14.291,16.497 14.351,16.887 13.587 C 16.993 13.378,16.995 13.147,16.892 13.007 C 16.771 12.842,16.488 12.709,15.643 12.421 C 15.215 12.275,14.766 12.109,14.645 12.051 C 14.360 11.916,14.101 11.676,13.966 11.422 C 13.867 11.233,13.860 11.186,13.860 10.699 L 13.860 10.178 13.994 9.969 C 14.262 9.552,14.796 9.182,15.220 9.119 C 15.527 9.074,16.111 9.076,16.400 9.123 M9.771 10.064 C 9.406 10.198,9.024 10.671,8.900 11.140 C 8.801 11.515,8.775 12.404,8.854 12.709 C 9.086 13.608,9.886 14.238,10.597 14.080 C 11.122 13.963,11.543 13.623,11.801 13.109 L 11.960 12.791 11.960 12.143 C 11.960 11.140,11.869 10.820,11.467 10.407 C 11.140 10.070,11.027 10.027,10.440 10.013 C 10.064 10.005,9.898 10.017,9.771 10.064 M7.000 12.780 L 7.000 14.920 6.546 14.920 L 6.093 14.920 6.067 13.510 C 6.052 12.735,6.040 11.772,6.040 11.370 L 6.040 10.640 6.520 10.640 L 7.000 10.640 7.000 12.780 " fill="#373B4D" stroke="none" fill-rule="evenodd"></path></svg>