<svg width="24" height="24" viewBox="0 0 24 24" fill="none" xmlns="http://www.w3.org/2000/svg"><path d="M11.340 3.024 C 10.432 3.118,9.865 3.233,9.160 3.466 C 5.847 4.561,3.468 7.496,3.059 10.992 C 2.666 14.352,4.239 17.669,7.120 19.560 C 7.929 20.090,9.126 20.589,10.092 20.797 C 14.142 21.669,18.255 19.669,20.083 15.940 C 21.302 13.454,21.301 10.515,20.080 8.048 C 19.172 6.214,17.763 4.810,15.940 3.921 C 15.062 3.493,14.267 3.244,13.320 3.101 C 12.911 3.039,11.662 2.991,11.340 3.024 M6.758 9.059 C 7.025 9.197,7.129 9.475,7.019 9.751 C 6.851 10.170,6.259 10.194,6.067 9.789 C 5.980 9.605,5.982 9.471,6.078 9.285 C 6.206 9.034,6.513 8.932,6.758 9.059 M11.115 9.105 C 11.525 9.196,11.957 9.444,12.259 9.764 C 12.732 10.266,12.984 10.919,13.027 11.760 C 13.116 13.484,12.349 14.665,10.961 14.943 C 10.317 15.072,9.527 14.955,9.015 14.655 C 8.389 14.288,7.944 13.575,7.796 12.704 C 7.726 12.287,7.771 11.295,7.877 10.927 C 8.196 9.825,8.973 9.151,10.051 9.042 C 10.401 9.007,10.773 9.029,11.115 9.105 M16.529 9.102 C 17.257 9.279,17.783 9.816,17.874 10.478 L 17.907 10.720 17.435 10.720 L 16.963 10.720 16.922 10.566 C 16.860 10.337,16.722 10.157,16.504 10.022 C 16.330 9.915,16.270 9.901,15.913 9.886 C 15.603 9.874,15.476 9.886,15.334 9.940 C 14.836 10.130,14.620 10.635,14.880 11.000 C 15.026 11.204,15.274 11.312,16.083 11.521 C 16.985 11.754,17.280 11.880,17.576 12.160 C 17.834 12.404,17.949 12.649,17.984 13.026 C 18.053 13.786,17.696 14.428,17.030 14.740 C 16.312 15.076,15.328 15.084,14.612 14.759 C 14.106 14.530,13.704 14.005,13.652 13.507 L 13.629 13.280 14.114 13.280 C 14.525 13.280,14.600 13.290,14.600 13.342 C 14.600 13.569,14.957 13.950,15.275 14.060 C 16.157 14.368,17.086 13.910,16.982 13.217 C 16.923 12.828,16.663 12.674,15.600 12.400 C 14.503 12.117,14.162 11.917,13.914 11.413 C 13.612 10.799,13.767 10.008,14.282 9.543 C 14.444 9.396,14.792 9.206,15.051 9.122 C 15.421 9.002,16.078 8.993,16.529 9.102 M9.876 9.977 C 9.327 10.187,8.970 10.659,8.823 11.370 C 8.645 12.236,8.844 13.152,9.319 13.655 C 9.907 14.277,10.930 14.265,11.502 13.629 C 11.855 13.237,12.014 12.736,12.014 12.020 C 12.013 11.050,11.712 10.400,11.113 10.078 C 10.877 9.952,10.831 9.942,10.440 9.932 C 10.156 9.925,9.973 9.939,9.876 9.977 M7.000 12.781 L 7.000 14.923 6.530 14.911 L 6.060 14.900 6.050 12.770 L 6.039 10.640 6.520 10.640 L 7.000 10.640 7.000 12.781 " fill="#373B4D" stroke="none" fill-rule="evenodd"></path></svg>