<svg width="24" height="24" viewBox="0 0 24 24" fill="none" xmlns="http://www.w3.org/2000/svg">
<path fill-rule="evenodd" clip-rule="evenodd" d="M12 21C16.9725 21 21 16.968 21 12C21 7.0275 16.9725 3 12 3C7.0275 3 3 7.0275 3 12C3 16.968 7.0275 21 12 21ZM6.0543 14.9036H7.02004V10.6466H6.0543V14.9036ZM6.53523 10.0884C6.83387 10.0884 7.07434 9.84739 7.07434 9.54618C7.07434 9.23695 6.83387 9 6.53523 9C6.24047 9 6 9.23695 6 9.54618C6 9.84739 6.24047 10.0884 6.53523 10.0884ZM10.3943 9.01205C8.76147 9.01205 7.73756 10.1647 7.73756 12.008C7.73756 13.8514 8.76147 15 10.3943 15C12.0233 15 13.0472 13.8514 13.0472 12.008C13.0472 10.1647 12.0233 9.01205 10.3943 9.01205ZM10.3943 9.89558C11.3911 9.89558 12.0271 10.7149 12.0271 12.008C12.0271 13.2972 11.3911 14.1165 10.3943 14.1165C9.39367 14.1165 8.76147 13.2972 8.76147 12.008C8.76147 10.7149 9.39367 9.89558 10.3943 9.89558ZM15.7931 15C14.5055 15 13.66 14.3414 13.6173 13.2731H14.5869C14.649 13.8072 15.1648 14.1566 15.8474 14.1566C16.5223 14.1566 16.9916 13.8112 16.9916 13.3293C16.9916 12.9116 16.7046 12.6707 15.9987 12.498L15.2734 12.3213C14.2418 12.0763 13.7531 11.5622 13.7531 10.7349C13.7531 9.70683 14.618 9.01205 15.8358 9.01205C17.0692 9.01205 17.8836 9.70281 17.9069 10.7229H16.9528C16.9063 10.1807 16.468 9.85542 15.8281 9.85542C15.1959 9.85542 14.7692 10.1767 14.7692 10.6586C14.7692 11.0442 15.0524 11.2691 15.7388 11.4378L16.3827 11.5904C17.5191 11.8594 18 12.3454 18 13.2088C18 14.3092 17.1467 15 15.7931 15Z" fill="#373B4D"/>
</svg>
