<svg width="24" height="24" viewBox="0 0 24 24" fill="none" xmlns="http://www.w3.org/2000/svg"><path d="M11.025 3.084 C 9.559 3.238,7.991 3.834,6.792 4.692 C 4.349 6.440,2.900 9.365,3.012 12.320 C 3.139 15.634,5.139 18.666,8.143 20.098 C 8.915 20.467,9.931 20.785,10.697 20.899 C 11.261 20.982,12.701 20.982,13.275 20.898 C 16.540 20.417,19.277 18.178,20.442 15.033 C 20.859 13.907,21.030 12.724,20.960 11.437 C 20.864 9.643,20.133 7.783,18.956 6.333 C 17.627 4.697,15.616 3.518,13.580 3.182 C 12.763 3.047,11.743 3.008,11.025 3.084 M6.750 9.086 C 6.881 9.167,7.037 9.422,7.039 9.557 C 7.040 9.589,7.003 9.691,6.958 9.784 C 6.801 10.109,6.439 10.166,6.207 9.902 C 5.999 9.665,5.993 9.378,6.192 9.188 C 6.398 8.991,6.551 8.963,6.750 9.086 M10.800 9.117 C 11.205 9.144,11.291 9.164,11.520 9.278 C 12.085 9.562,12.427 9.921,12.731 10.551 C 12.929 10.961,12.976 11.346,12.948 12.320 C 12.930 12.910,12.917 13.010,12.822 13.260 C 12.548 13.982,12.005 14.564,11.372 14.812 C 10.931 14.985,9.891 14.997,9.451 14.835 C 9.131 14.717,8.717 14.435,8.500 14.188 C 8.281 13.937,7.985 13.378,7.901 13.057 C 7.816 12.730,7.815 11.273,7.899 10.948 C 8.036 10.424,8.405 9.873,8.839 9.547 C 9.400 9.126,9.763 9.046,10.800 9.117 M16.442 9.120 C 17.167 9.258,17.704 9.798,17.876 10.561 L 17.911 10.720 17.439 10.720 L 16.966 10.720 16.920 10.580 C 16.852 10.373,16.504 10.011,16.327 9.961 C 16.139 9.909,15.543 9.908,15.357 9.960 C 15.038 10.049,14.725 10.460,14.785 10.712 C 14.832 10.908,14.920 11.039,15.071 11.139 C 15.153 11.193,15.604 11.364,16.073 11.520 C 17.321 11.933,17.579 12.083,17.803 12.525 C 17.910 12.738,17.920 12.793,17.920 13.173 C 17.920 13.677,17.861 13.892,17.642 14.182 C 17.296 14.640,16.840 14.872,16.103 14.964 C 15.538 15.035,14.815 14.893,14.423 14.633 C 14.098 14.419,13.725 13.838,13.661 13.450 L 13.633 13.280 14.087 13.280 L 14.540 13.280 14.637 13.463 C 14.938 14.030,15.720 14.292,16.369 14.043 C 16.793 13.880,17.078 13.423,16.948 13.112 C 16.835 12.844,16.624 12.734,15.560 12.391 C 14.454 12.036,14.167 11.857,13.944 11.385 C 13.850 11.186,13.840 11.119,13.840 10.692 C 13.841 10.239,13.846 10.212,13.964 10.006 C 14.188 9.614,14.614 9.288,15.098 9.136 C 15.295 9.074,16.147 9.064,16.442 9.120 M10.000 10.001 C 9.760 10.032,9.535 10.156,9.336 10.367 C 8.961 10.763,8.839 11.125,8.810 11.921 C 8.787 12.550,8.826 12.777,9.020 13.161 C 9.356 13.824,10.000 14.203,10.589 14.085 C 11.131 13.977,11.544 13.649,11.791 13.131 L 11.940 12.820 11.953 12.147 C 11.970 11.310,11.912 10.997,11.675 10.642 C 11.489 10.364,11.172 10.096,10.965 10.044 C 10.776 9.996,10.228 9.972,10.000 10.001 M7.000 12.780 L 7.000 14.920 6.546 14.920 L 6.093 14.920 6.066 13.653 C 6.052 12.957,6.040 11.994,6.040 11.513 L 6.040 10.640 6.520 10.640 L 7.000 10.640 7.000 12.780 " fill="#373B4D" stroke="none" fill-rule="evenodd"></path></svg>