<svg width="24" height="24" viewBox="0 0 24 24" fill="none" xmlns="http://www.w3.org/2000/svg"><path d="M10.580 3.139 C 9.324 3.363,8.301 3.739,7.320 4.337 C 4.183 6.251,2.474 10.028,3.145 13.560 C 3.873 17.393,6.791 20.236,10.680 20.901 C 11.134 20.979,12.581 20.990,13.140 20.920 C 14.020 20.811,15.006 20.515,15.860 20.104 C 16.840 19.633,17.551 19.129,18.322 18.361 C 19.718 16.969,20.573 15.268,20.907 13.220 C 20.959 12.897,20.978 12.563,20.977 11.960 C 20.976 11.039,20.905 10.515,20.661 9.625 C 19.810 6.523,17.316 4.082,14.200 3.302 C 13.098 3.027,11.591 2.959,10.580 3.139 M6.764 9.091 C 6.944 9.211,7.049 9.418,7.026 9.608 C 6.966 10.100,6.370 10.240,6.131 9.819 C 5.966 9.527,6.040 9.226,6.311 9.082 C 6.506 8.979,6.599 8.981,6.764 9.091 M16.638 9.156 C 17.258 9.349,17.707 9.837,17.857 10.479 L 17.913 10.720 17.442 10.720 L 16.971 10.720 16.902 10.540 C 16.826 10.340,16.537 10.020,16.378 9.959 C 16.245 9.909,15.436 9.908,15.303 9.959 C 15.247 9.980,15.120 10.072,15.021 10.164 C 14.732 10.430,14.699 10.730,14.926 11.019 C 15.048 11.173,15.253 11.263,16.090 11.525 C 17.310 11.908,17.594 12.075,17.826 12.547 C 17.930 12.759,17.940 12.818,17.939 13.200 C 17.937 13.779,17.849 13.999,17.464 14.384 C 17.219 14.629,17.134 14.685,16.844 14.796 C 16.084 15.088,15.091 15.032,14.457 14.660 C 14.116 14.461,13.717 13.858,13.656 13.450 L 13.630 13.280 14.085 13.280 L 14.540 13.280 14.637 13.463 C 14.900 13.959,15.489 14.228,16.079 14.123 C 16.488 14.050,16.751 13.878,16.895 13.591 C 17.029 13.322,17.018 13.155,16.853 12.959 C 16.705 12.784,16.465 12.674,15.717 12.442 C 14.439 12.045,14.194 11.902,13.951 11.409 C 13.827 11.156,13.820 11.118,13.820 10.701 C 13.820 10.275,13.825 10.252,13.957 10.007 C 14.032 9.869,14.180 9.678,14.285 9.583 C 14.531 9.362,15.005 9.129,15.305 9.081 C 15.646 9.028,16.352 9.067,16.638 9.156 M11.385 9.208 C 12.058 9.489,12.497 9.957,12.824 10.742 C 12.937 11.014,12.940 11.037,12.953 11.866 C 12.960 12.345,12.947 12.813,12.924 12.946 C 12.858 13.313,12.529 13.938,12.258 14.210 C 11.947 14.523,11.606 14.743,11.265 14.850 C 10.873 14.974,9.861 14.982,9.520 14.864 C 8.838 14.630,8.361 14.179,8.041 13.465 C 7.849 13.039,7.820 12.843,7.820 12.000 C 7.820 11.112,7.848 10.949,8.089 10.440 C 8.376 9.835,9.042 9.277,9.662 9.123 C 9.749 9.101,10.117 9.089,10.480 9.095 C 11.083 9.105,11.161 9.115,11.385 9.208 M9.860 10.007 C 9.410 10.179,9.113 10.514,8.910 11.078 C 8.808 11.362,8.764 12.333,8.838 12.675 C 8.963 13.250,9.355 13.771,9.830 13.991 C 10.161 14.145,10.602 14.143,10.937 13.988 C 11.406 13.771,11.707 13.431,11.886 12.920 C 11.965 12.693,11.976 12.583,11.975 12.060 C 11.973 11.150,11.858 10.773,11.463 10.377 C 11.141 10.056,11.006 10.003,10.451 9.980 C 10.146 9.967,9.938 9.977,9.860 10.007 M7.000 12.780 L 7.000 14.920 6.546 14.920 L 6.093 14.920 6.067 13.810 C 6.052 13.200,6.040 12.237,6.040 11.670 L 6.040 10.640 6.520 10.640 L 7.000 10.640 7.000 12.780 " fill="#373B4D" stroke="none" fill-rule="evenodd"></path></svg>