<?xml version="1.0" encoding="utf-8"?>
<svg width="1000" height="1000" viewBox="0 0 1000 1000" xmlns="http://www.w3.org/2000/svg"><path d="M378.7 683.7L147.5 683.7 147.5 606.5 196.1 594.4 196.1 365.8 138.3 353.7 138.3 276.2 330.4 276.2 330.4 594.4 378.7 606.5 378.7 683.7ZM330.4 198.9L192.3 198.9 192.3 96.1 330.4 96.1 330.4 198.9ZM640.9 840.3L409.3 840.3 409.3 762.8 460.6 750.7 460.6 365.8 402.4 353.7 402.4 276.2 586.5 276.2 591.1 322.1C602.3 305.1 615.9 291.9 631.7 282.6 647.5 273.3 666.9 268.6 689.9 268.6 722.5 268.6 750.6 277.5 774.1 295.2 797.6 312.9 815.6 337.7 828.3 369.6 840.9 401.4 847.2 438.5 847.2 480.7L847.2 488.6C847.2 529.3 840.9 564.8 828.3 595.4 815.6 625.9 797.4 649.5 773.7 666.3 750 683.2 721.4 691.6 688 691.6 667.6 691.6 649.6 687.8 634.2 680.3 618.7 672.7 605.4 661.7 594.2 647.1L594.2 750.7 640.9 762.8 640.9 840.3ZM648.2 591C672.4 591 689.3 582 698.7 564.1 708.1 546.1 712.9 521 712.9 488.6L712.9 480.7C712.9 458.3 710.7 438.9 706.4 422.3 702 405.7 695.1 392.9 685.5 383.7 675.9 374.5 663.2 369.9 647.4 369.9 635.9 369.9 625.5 372.5 616.2 377.5 606.9 382.5 599.6 390 594.2 400.1L594.2 566.2C599.6 574.4 607 580.7 616.4 584.8 625.8 589 636.4 591 648.2 591Z"/></svg>