<svg width="24" height="24" viewBox="0 0 24 24" fill="none" xmlns="http://www.w3.org/2000/svg"><path d="M14.505 1.161 C 14.493 1.237,14.471 1.480,14.457 1.700 C 14.425 2.205,14.322 2.610,14.121 3.030 C 13.741 3.826,13.282 4.328,11.660 5.721 C 11.066 6.230,10.350 6.929,10.133 7.210 C 9.729 7.732,9.440 8.458,9.440 8.948 C 9.440 9.323,9.553 9.756,9.760 10.180 C 9.994 10.657,10.314 11.095,10.895 11.730 C 11.325 12.201,12.154 12.980,12.188 12.945 C 12.217 12.916,12.141 12.790,11.555 11.895 C 10.739 10.651,10.565 10.292,10.502 9.720 C 10.466 9.398,10.567 8.898,10.738 8.541 C 10.991 8.015,11.301 7.671,12.340 6.761 C 13.160 6.043,13.872 5.324,14.215 4.866 C 14.526 4.451,14.810 3.902,14.943 3.460 C 15.081 3.001,15.100 2.320,14.985 1.942 C 14.913 1.703,14.697 1.248,14.587 1.101 C 14.530 1.024,14.526 1.027,14.505 1.161 M16.440 5.763 C 14.802 6.363,13.843 6.915,13.094 7.686 C 12.525 8.272,12.357 8.658,12.357 9.380 C 12.357 10.097,12.506 10.474,13.114 11.290 C 13.541 11.864,13.656 12.103,13.673 12.460 C 13.690 12.801,13.603 13.062,13.340 13.454 C 13.241 13.601,13.160 13.732,13.160 13.743 C 13.160 13.804,13.814 13.301,14.077 13.038 C 14.569 12.546,14.774 12.138,14.778 11.640 C 14.781 11.263,14.737 11.156,14.273 10.388 C 13.805 9.614,13.693 9.366,13.659 9.018 C 13.604 8.453,13.770 8.009,14.217 7.531 C 14.676 7.039,15.320 6.570,16.325 5.996 C 17.230 5.479,17.233 5.472,16.440 5.763 M18.135 12.962 C 17.962 12.996,17.458 13.232,17.490 13.263 C 17.500 13.273,17.605 13.261,17.723 13.236 C 18.056 13.164,18.559 13.210,18.816 13.336 C 19.058 13.455,19.312 13.709,19.441 13.961 C 19.515 14.108,19.525 14.184,19.514 14.516 C 19.500 14.888,19.494 14.912,19.320 15.221 C 19.055 15.690,18.584 16.143,17.874 16.611 C 17.558 16.818,17.242 17.022,17.170 17.063 C 16.996 17.162,17.005 17.203,17.190 17.153 C 17.456 17.080,18.413 16.714,18.660 16.591 C 19.280 16.282,19.910 15.764,20.182 15.339 C 20.441 14.935,20.521 14.543,20.423 14.158 C 20.304 13.693,19.978 13.314,19.513 13.101 C 19.176 12.947,18.536 12.882,18.135 12.962 M8.864 13.166 C 7.784 13.304,6.194 13.844,5.881 14.178 C 5.772 14.295,5.788 14.358,5.963 14.488 C 6.739 15.063,11.305 15.208,14.380 14.756 C 15.510 14.590,15.979 14.456,16.537 14.139 C 16.840 13.967,16.816 13.966,15.853 14.098 C 13.720 14.391,12.792 14.453,10.460 14.457 C 8.525 14.460,8.202 14.440,7.728 14.291 C 7.483 14.214,7.409 14.120,7.476 13.972 C 7.535 13.843,8.000 13.630,8.810 13.362 C 9.156 13.247,9.440 13.146,9.440 13.137 C 9.440 13.112,9.178 13.125,8.864 13.166 M8.380 15.768 C 7.761 16.039,7.536 16.269,7.641 16.522 C 7.738 16.757,8.066 16.934,8.714 17.103 C 9.298 17.254,9.934 17.322,11.020 17.347 C 12.090 17.373,12.826 17.333,13.859 17.196 C 14.794 17.072,16.043 16.803,16.038 16.727 C 16.037 16.712,15.862 16.586,15.648 16.446 L 15.260 16.193 14.960 16.238 C 13.638 16.440,13.308 16.482,12.780 16.518 C 11.130 16.630,9.053 16.514,8.666 16.289 C 8.501 16.193,8.473 15.978,8.602 15.797 C 8.650 15.730,8.682 15.669,8.674 15.661 C 8.666 15.652,8.533 15.701,8.380 15.768 M8.818 18.214 C 8.507 18.363,8.240 18.590,8.240 18.705 C 8.241 18.968,8.638 19.245,9.347 19.476 C 10.874 19.974,13.070 19.923,14.960 19.346 C 15.213 19.268,15.491 19.175,15.578 19.139 L 15.735 19.072 15.247 18.839 C 14.497 18.479,14.608 18.495,13.740 18.626 C 13.017 18.735,12.916 18.740,11.640 18.738 C 10.575 18.737,10.214 18.722,9.883 18.668 C 9.250 18.565,9.020 18.417,9.139 18.189 C 9.214 18.043,9.167 18.047,8.818 18.214 M6.451 19.683 C 5.721 19.777,4.749 20.153,4.286 20.519 C 4.047 20.708,3.994 20.810,4.051 20.974 C 4.155 21.274,4.786 21.443,6.600 21.656 C 10.088 22.067,13.656 22.023,16.320 21.536 C 18.082 21.214,19.292 20.748,19.469 20.325 C 19.521 20.200,19.519 20.178,19.452 20.088 C 19.411 20.033,19.338 19.962,19.291 19.930 C 19.206 19.874,19.204 19.877,19.211 20.041 C 19.217 20.189,19.199 20.226,19.056 20.358 C 18.607 20.777,16.875 21.105,14.140 21.287 C 13.152 21.353,9.559 21.353,8.720 21.287 C 6.914 21.144,5.549 20.839,5.459 20.557 C 5.384 20.322,6.015 20.004,6.958 19.801 C 7.166 19.757,7.354 19.702,7.376 19.680 C 7.424 19.632,6.827 19.634,6.451 19.683 M20.299 21.136 C 19.083 22.095,14.427 22.808,10.451 22.645 C 9.299 22.598,8.138 22.516,7.543 22.441 C 7.369 22.418,7.218 22.409,7.208 22.419 C 7.161 22.466,7.772 22.627,8.412 22.738 C 10.225 23.051,13.677 23.079,16.080 22.800 C 16.884 22.706,17.708 22.558,18.312 22.398 C 19.370 22.117,19.964 21.798,20.330 21.311 C 20.542 21.030,20.529 20.955,20.299 21.136 " fill="#373B4D" stroke="none" fill-rule="evenodd"></path></svg>