<svg width="24" height="24" viewBox="0 0 24 24" fill="none" xmlns="http://www.w3.org/2000/svg"><path d="M14.504 1.170 C 14.493 1.242,14.475 1.489,14.464 1.720 C 14.418 2.653,14.028 3.469,13.225 4.310 C 13.024 4.520,12.428 5.062,11.900 5.514 C 10.758 6.491,10.285 6.960,9.988 7.408 C 9.573 8.035,9.410 8.559,9.452 9.133 C 9.512 9.940,9.895 10.640,10.846 11.680 C 11.321 12.200,12.150 12.983,12.186 12.947 C 12.221 12.913,12.054 12.641,11.422 11.700 C 10.789 10.758,10.583 10.338,10.511 9.843 C 10.428 9.274,10.584 8.687,10.967 8.130 C 11.165 7.841,11.727 7.274,12.240 6.846 C 13.215 6.033,14.007 5.213,14.404 4.606 C 15.180 3.421,15.284 2.242,14.699 1.278 C 14.619 1.147,14.547 1.040,14.539 1.040 C 14.531 1.040,14.515 1.099,14.504 1.170 M16.460 5.757 C 14.813 6.330,13.733 6.966,12.961 7.819 C 12.492 8.337,12.341 8.718,12.344 9.380 C 12.348 10.095,12.536 10.554,13.145 11.329 C 13.614 11.926,13.759 12.302,13.680 12.719 C 13.635 12.956,13.459 13.316,13.263 13.573 C 13.185 13.676,13.131 13.760,13.144 13.760 C 13.156 13.760,13.298 13.669,13.458 13.559 C 14.588 12.777,15.035 11.863,14.671 11.074 C 14.617 10.956,14.450 10.673,14.302 10.444 C 14.153 10.215,13.948 9.857,13.847 9.648 C 13.678 9.298,13.662 9.239,13.648 8.904 C 13.626 8.389,13.762 8.032,14.153 7.580 C 14.569 7.100,15.383 6.512,16.450 5.920 C 16.774 5.740,17.040 5.585,17.040 5.576 C 17.040 5.554,17.082 5.541,16.460 5.757 M18.115 12.962 C 17.913 13.010,17.537 13.181,17.499 13.241 C 17.476 13.280,17.496 13.285,17.584 13.262 C 18.421 13.048,19.112 13.302,19.440 13.945 C 19.525 14.110,19.540 14.193,19.537 14.481 C 19.534 14.801,19.524 14.840,19.362 15.152 C 19.023 15.803,18.456 16.297,17.180 17.052 C 17.076 17.113,17.000 17.174,17.012 17.186 C 17.048 17.221,18.110 16.848,18.510 16.659 C 19.602 16.145,20.291 15.458,20.441 14.733 C 20.611 13.915,19.967 13.093,19.053 12.961 C 18.728 12.914,18.316 12.915,18.115 12.962 M9.000 13.146 C 8.945 13.154,8.765 13.179,8.600 13.203 C 7.675 13.333,6.244 13.839,5.910 14.152 C 5.777 14.277,5.773 14.321,5.890 14.430 C 6.227 14.746,7.309 14.932,9.212 15.000 C 11.488 15.082,13.694 14.932,15.400 14.579 C 15.780 14.501,15.945 14.441,16.349 14.235 C 16.619 14.098,16.834 13.980,16.827 13.974 C 16.821 13.968,16.367 14.024,15.818 14.100 C 13.816 14.375,12.955 14.439,10.879 14.468 C 9.165 14.491,8.410 14.458,7.880 14.336 C 7.738 14.304,7.580 14.250,7.530 14.217 C 7.422 14.146,7.413 13.997,7.512 13.907 C 7.643 13.788,8.254 13.529,8.800 13.361 C 9.514 13.140,9.547 13.125,9.300 13.128 C 9.190 13.130,9.055 13.138,9.000 13.146 M8.354 15.776 C 7.641 16.089,7.453 16.349,7.719 16.653 C 7.866 16.821,8.205 16.975,8.698 17.101 C 9.361 17.269,9.880 17.324,11.005 17.348 C 12.131 17.372,12.797 17.336,13.860 17.196 C 14.827 17.069,16.104 16.791,16.058 16.717 C 16.048 16.700,15.927 16.623,15.790 16.546 C 15.652 16.468,15.479 16.354,15.405 16.291 L 15.270 16.177 14.765 16.265 C 14.487 16.313,13.963 16.392,13.600 16.441 C 12.170 16.634,9.302 16.572,8.737 16.336 C 8.462 16.221,8.419 16.006,8.624 15.763 C 8.681 15.695,8.712 15.640,8.694 15.641 C 8.675 15.642,8.522 15.703,8.354 15.776 M8.881 18.173 C 8.699 18.250,8.513 18.365,8.406 18.468 C 8.248 18.619,8.232 18.650,8.255 18.767 C 8.294 18.962,8.460 19.108,8.860 19.299 C 10.106 19.895,12.378 19.988,14.340 19.522 C 14.688 19.439,15.348 19.235,15.587 19.135 L 15.736 19.072 15.126 18.778 C 14.791 18.616,14.495 18.491,14.468 18.500 C 14.442 18.510,14.114 18.564,13.740 18.622 C 12.886 18.755,11.997 18.799,11.020 18.757 C 9.480 18.691,8.916 18.516,9.140 18.175 C 9.176 18.119,9.200 18.067,9.193 18.060 C 9.186 18.053,9.045 18.104,8.881 18.173 M6.100 19.739 C 5.335 19.918,4.569 20.252,4.236 20.552 C 4.007 20.757,3.975 20.837,4.059 20.998 C 4.187 21.246,4.594 21.381,5.680 21.537 C 9.837 22.135,14.262 22.060,17.260 21.341 C 18.504 21.042,19.288 20.692,19.461 20.359 C 19.539 20.208,19.512 20.114,19.355 19.982 C 19.201 19.853,19.149 19.852,19.208 19.981 C 19.280 20.141,19.167 20.331,18.911 20.479 C 17.949 21.035,14.394 21.408,10.640 21.347 C 8.745 21.316,7.722 21.232,6.658 21.019 C 5.481 20.784,5.191 20.566,5.650 20.261 C 5.937 20.071,6.425 19.899,6.977 19.795 C 7.230 19.748,7.428 19.693,7.417 19.674 C 7.371 19.601,6.511 19.643,6.100 19.739 M20.260 21.164 C 19.008 22.118,14.408 22.805,10.360 22.642 C 9.261 22.597,8.155 22.517,7.527 22.435 C 7.345 22.411,7.185 22.401,7.174 22.413 C 7.142 22.445,7.636 22.590,8.075 22.678 C 10.044 23.073,14.010 23.101,16.580 22.738 C 18.412 22.479,19.593 22.083,20.140 21.543 C 20.353 21.334,20.534 21.038,20.448 21.041 C 20.433 21.042,20.348 21.097,20.260 21.164 " fill="#373B4D" stroke="none" fill-rule="evenodd"></path></svg>