<svg width="24" height="24" viewBox="0 0 24 24" fill="none" xmlns="http://www.w3.org/2000/svg"><path d="M14.505 1.161 C 14.493 1.237,14.463 1.516,14.440 1.779 C 14.374 2.511,14.140 3.131,13.708 3.720 C 13.449 4.073,12.799 4.718,11.940 5.474 C 10.453 6.783,10.062 7.204,9.758 7.824 C 9.409 8.536,9.365 9.064,9.598 9.763 C 9.802 10.375,10.154 10.908,10.889 11.721 C 11.291 12.165,12.092 12.920,12.162 12.920 C 12.219 12.920,12.181 12.854,11.586 11.941 C 11.016 11.064,10.682 10.460,10.582 10.120 C 10.498 9.836,10.498 9.317,10.581 8.993 C 10.672 8.641,10.920 8.182,11.197 7.853 C 11.326 7.701,11.761 7.281,12.165 6.921 C 13.034 6.146,13.904 5.280,14.172 4.922 C 14.563 4.401,14.863 3.797,14.987 3.280 C 15.083 2.879,15.071 2.202,14.963 1.884 C 14.871 1.617,14.689 1.237,14.587 1.101 C 14.530 1.024,14.526 1.027,14.505 1.161 M16.360 5.795 C 14.747 6.401,13.753 6.984,13.043 7.743 C 12.493 8.331,12.379 8.620,12.382 9.420 C 12.386 10.193,12.443 10.339,13.126 11.306 C 13.560 11.920,13.656 12.141,13.658 12.520 C 13.660 12.852,13.601 13.037,13.385 13.375 C 13.182 13.692,13.141 13.776,13.206 13.738 C 13.405 13.622,13.952 13.157,14.192 12.900 C 14.525 12.544,14.709 12.201,14.760 11.841 C 14.822 11.400,14.736 11.145,14.259 10.359 C 13.729 9.485,13.594 9.073,13.675 8.574 C 13.725 8.260,13.801 8.085,14.018 7.781 C 14.404 7.240,15.162 6.664,16.490 5.903 C 16.748 5.755,16.969 5.617,16.982 5.597 C 17.012 5.548,17.060 5.533,16.360 5.795 M18.169 12.960 C 17.959 13.004,17.520 13.198,17.520 13.246 C 17.520 13.266,17.570 13.268,17.630 13.251 C 17.691 13.234,17.921 13.220,18.143 13.221 C 18.516 13.222,18.566 13.232,18.811 13.353 C 19.097 13.493,19.321 13.715,19.444 13.980 C 19.524 14.153,19.542 14.529,19.484 14.829 C 19.376 15.388,18.595 16.169,17.375 16.939 C 17.174 17.065,17.084 17.142,17.127 17.151 C 17.201 17.166,18.142 16.824,18.583 16.621 C 19.275 16.304,20.054 15.631,20.277 15.159 C 20.446 14.802,20.496 14.531,20.442 14.270 C 20.313 13.647,19.871 13.181,19.260 13.022 C 18.969 12.946,18.390 12.913,18.169 12.960 M8.780 13.182 C 7.646 13.349,6.100 13.896,5.864 14.213 L 5.780 14.326 5.908 14.441 C 6.543 15.009,10.438 15.206,13.737 14.837 C 14.676 14.732,15.425 14.591,15.865 14.437 C 16.249 14.303,16.767 14.036,16.691 14.010 C 16.666 14.002,16.234 14.049,15.732 14.116 C 13.595 14.400,12.847 14.447,10.420 14.450 C 8.481 14.452,8.176 14.434,7.755 14.297 C 7.653 14.264,7.538 14.202,7.499 14.159 C 7.434 14.087,7.434 14.075,7.496 13.981 C 7.587 13.842,7.992 13.647,8.694 13.405 C 9.020 13.292,9.317 13.182,9.354 13.161 C 9.446 13.107,9.235 13.115,8.780 13.182 M8.258 15.834 C 7.729 16.090,7.561 16.277,7.645 16.518 C 7.761 16.851,8.590 17.149,9.780 17.286 C 10.474 17.366,12.607 17.355,13.320 17.268 C 14.661 17.103,16.077 16.812,16.016 16.713 C 16.002 16.691,15.826 16.564,15.625 16.433 C 15.289 16.212,15.248 16.195,15.100 16.219 C 13.336 16.506,12.429 16.579,11.003 16.548 C 9.467 16.515,8.791 16.422,8.610 16.217 C 8.499 16.092,8.496 15.979,8.600 15.810 C 8.704 15.639,8.654 15.642,8.258 15.834 M8.817 18.222 C 8.505 18.378,8.240 18.608,8.240 18.724 C 8.240 18.842,8.496 19.096,8.749 19.230 C 8.876 19.297,9.151 19.406,9.360 19.472 C 10.142 19.721,10.770 19.806,11.800 19.804 C 12.622 19.802,13.306 19.733,14.034 19.580 C 14.692 19.441,15.773 19.109,15.714 19.064 C 15.706 19.058,15.464 18.942,15.175 18.807 C 14.559 18.517,14.509 18.512,13.652 18.647 C 13.157 18.725,12.949 18.734,11.640 18.732 C 10.328 18.730,10.140 18.721,9.789 18.648 C 9.574 18.603,9.340 18.532,9.269 18.490 C 9.154 18.421,9.141 18.395,9.148 18.247 C 9.152 18.155,9.143 18.080,9.128 18.080 C 9.112 18.081,8.973 18.144,8.817 18.222 M6.480 19.685 C 5.699 19.774,4.604 20.218,4.183 20.615 C 3.915 20.867,4.020 21.112,4.466 21.279 C 5.038 21.493,7.120 21.759,9.160 21.880 C 10.054 21.933,12.513 21.933,13.320 21.881 C 15.126 21.763,16.437 21.565,17.687 21.223 C 18.533 20.991,19.099 20.735,19.346 20.473 C 19.528 20.280,19.542 20.193,19.418 20.045 C 19.278 19.879,19.200 19.882,19.200 20.055 C 19.200 20.248,19.076 20.380,18.747 20.536 C 18.202 20.796,16.987 21.034,15.480 21.177 C 15.117 21.212,14.739 21.249,14.640 21.260 C 14.541 21.271,13.765 21.297,12.916 21.317 C 11.107 21.361,8.749 21.315,7.980 21.221 C 6.572 21.050,5.707 20.834,5.503 20.605 C 5.427 20.519,5.427 20.517,5.506 20.409 C 5.634 20.234,6.130 20.013,6.752 19.854 C 7.065 19.773,7.320 19.693,7.320 19.674 C 7.320 19.633,6.887 19.638,6.480 19.685 M20.163 21.223 C 18.829 22.140,14.165 22.816,10.360 22.644 C 9.389 22.600,8.159 22.514,7.530 22.447 C 7.370 22.429,7.240 22.428,7.240 22.443 C 7.240 22.477,7.736 22.610,8.180 22.697 C 9.238 22.902,10.358 22.977,12.360 22.977 C 14.867 22.977,16.588 22.820,18.069 22.457 C 19.275 22.161,19.904 21.841,20.325 21.309 C 20.580 20.987,20.538 20.965,20.163 21.223 " fill="#373B4D" stroke="none" fill-rule="evenodd"></path></svg>