<svg width="24" height="24" viewBox="0 0 24 24" fill="none" xmlns="http://www.w3.org/2000/svg"><path d="M14.490 1.510 C 14.481 2.099,14.361 2.600,14.108 3.103 C 13.725 3.866,13.211 4.427,11.881 5.534 C 10.524 6.664,10.057 7.167,9.721 7.860 C 9.491 8.333,9.428 8.622,9.450 9.100 C 9.483 9.817,9.815 10.496,10.562 11.372 C 10.918 11.789,12.030 12.887,12.185 12.973 C 12.295 13.035,11.998 12.528,11.545 11.880 C 11.017 11.125,10.914 10.961,10.744 10.600 C 10.559 10.209,10.480 9.889,10.480 9.540 C 10.480 8.623,11.022 7.812,12.340 6.761 C 12.985 6.245,13.859 5.376,14.210 4.901 C 15.049 3.762,15.288 2.632,14.895 1.660 C 14.803 1.433,14.565 1.040,14.519 1.040 C 14.507 1.040,14.494 1.251,14.490 1.510 M16.496 5.739 C 15.017 6.237,13.885 6.868,13.160 7.598 C 12.570 8.192,12.360 8.617,12.329 9.280 C 12.297 9.992,12.574 10.667,13.199 11.400 C 13.598 11.867,13.752 12.257,13.701 12.667 C 13.667 12.934,13.454 13.368,13.230 13.622 L 13.060 13.815 13.300 13.662 C 14.222 13.075,14.749 12.398,14.791 11.747 C 14.819 11.314,14.740 11.095,14.345 10.513 C 13.565 9.363,13.448 8.807,13.824 8.044 C 13.936 7.818,14.056 7.662,14.335 7.384 C 14.863 6.857,15.473 6.445,16.780 5.736 C 16.956 5.641,17.082 5.562,17.060 5.562 C 17.038 5.563,16.784 5.642,16.496 5.739 M18.180 12.947 C 17.859 13.019,17.440 13.213,17.492 13.265 C 17.501 13.274,17.632 13.252,17.784 13.217 C 18.486 13.052,19.148 13.340,19.443 13.939 C 19.558 14.173,19.567 14.223,19.554 14.510 C 19.542 14.775,19.517 14.871,19.392 15.122 C 19.138 15.635,18.705 16.074,17.973 16.561 C 17.748 16.710,17.438 16.900,17.283 16.984 C 17.127 17.068,17.000 17.151,17.000 17.169 C 17.000 17.213,17.133 17.178,17.731 16.974 C 19.377 16.413,20.403 15.511,20.470 14.565 C 20.520 13.865,20.046 13.233,19.295 13.001 C 19.044 12.924,18.420 12.894,18.180 12.947 M8.675 13.181 C 7.860 13.309,6.955 13.582,6.290 13.903 C 5.741 14.168,5.668 14.352,6.037 14.538 C 6.672 14.860,8.092 15.019,10.320 15.018 C 12.183 15.017,13.323 14.935,14.760 14.696 C 15.686 14.543,15.957 14.468,16.280 14.280 C 16.438 14.188,16.660 14.069,16.774 14.016 C 16.887 13.962,16.944 13.928,16.900 13.938 C 16.714 13.984,14.810 14.241,14.240 14.297 C 12.641 14.455,10.614 14.529,9.320 14.478 C 7.872 14.420,7.301 14.270,7.432 13.982 C 7.510 13.809,8.247 13.503,9.300 13.206 L 9.580 13.126 9.300 13.127 C 9.146 13.127,8.865 13.152,8.675 13.181 M8.355 15.774 C 7.792 16.020,7.600 16.184,7.600 16.420 C 7.600 17.037,9.616 17.457,12.100 17.355 C 13.480 17.299,15.225 17.028,16.074 16.738 C 16.104 16.727,16.005 16.657,15.853 16.581 C 15.701 16.505,15.506 16.382,15.420 16.308 L 15.264 16.172 14.982 16.227 C 14.517 16.316,13.374 16.473,12.840 16.522 C 11.751 16.620,9.404 16.536,8.859 16.381 C 8.611 16.309,8.480 16.193,8.480 16.044 C 8.480 15.941,8.595 15.744,8.699 15.671 C 8.794 15.603,8.643 15.648,8.355 15.774 M8.912 18.156 C 8.382 18.383,8.207 18.557,8.260 18.802 C 8.319 19.068,8.846 19.379,9.541 19.556 C 11.343 20.018,13.657 19.868,15.488 19.171 L 15.757 19.069 15.388 18.903 C 15.186 18.812,14.915 18.680,14.786 18.610 L 14.553 18.484 13.986 18.579 C 12.982 18.747,12.642 18.777,11.720 18.776 C 10.783 18.775,9.780 18.690,9.423 18.583 C 9.087 18.482,8.994 18.317,9.167 18.133 C 9.279 18.013,9.239 18.017,8.912 18.156 M6.581 19.644 C 5.435 19.800,4.121 20.404,4.015 20.824 C 3.962 21.036,4.242 21.251,4.738 21.378 C 5.033 21.454,6.453 21.655,7.280 21.737 C 8.340 21.843,8.900 21.879,10.110 21.920 C 13.178 22.023,16.306 21.704,18.150 21.099 C 18.988 20.823,19.432 20.551,19.502 20.270 C 19.525 20.176,19.504 20.134,19.363 19.994 C 19.195 19.826,19.118 19.807,19.197 19.954 C 19.275 20.100,19.244 20.208,19.082 20.362 C 18.751 20.677,17.757 20.925,16.052 21.118 C 13.611 21.394,10.149 21.437,8.000 21.218 C 6.593 21.074,5.494 20.794,5.420 20.560 C 5.337 20.298,6.237 19.887,7.185 19.755 C 7.442 19.719,7.509 19.698,7.445 19.674 C 7.296 19.619,6.872 19.604,6.581 19.644 M20.280 21.148 C 19.027 22.120,14.533 22.794,10.343 22.640 C 9.067 22.593,7.904 22.498,7.140 22.379 C 6.914 22.344,7.322 22.505,7.685 22.595 C 9.550 23.057,13.540 23.130,16.438 22.756 C 18.677 22.468,20.093 21.915,20.409 21.207 C 20.452 21.111,20.481 21.028,20.473 21.021 C 20.466 21.014,20.379 21.072,20.280 21.148 " fill="#373B4D" stroke="none" fill-rule="evenodd"></path></svg>