<svg width="24" height="24" viewBox="0 0 24 24" fill="none" xmlns="http://www.w3.org/2000/svg"><path d="M14.507 1.142 C 14.494 1.207,14.463 1.467,14.437 1.720 C 14.363 2.470,14.152 3.060,13.747 3.660 C 13.534 3.975,12.722 4.784,11.800 5.599 C 10.843 6.446,10.227 7.068,9.986 7.430 C 9.757 7.776,9.545 8.283,9.480 8.640 C 9.294 9.667,10.056 11.016,11.652 12.485 C 12.344 13.121,12.344 13.109,11.679 12.080 C 11.163 11.282,10.809 10.674,10.656 10.320 C 10.552 10.080,10.543 10.021,10.544 9.560 C 10.544 9.110,10.555 9.032,10.654 8.780 C 10.902 8.148,11.142 7.860,12.320 6.779 C 13.208 5.963,14.115 5.025,14.328 4.700 C 14.560 4.347,14.779 3.913,14.909 3.545 C 14.992 3.313,15.014 3.162,15.030 2.732 C 15.047 2.268,15.039 2.170,14.961 1.914 C 14.874 1.628,14.703 1.255,14.588 1.102 C 14.532 1.028,14.529 1.029,14.507 1.142 M16.420 5.775 C 14.828 6.381,13.882 6.919,13.177 7.618 C 12.510 8.281,12.384 8.571,12.388 9.440 C 12.392 10.157,12.448 10.306,13.053 11.208 C 13.308 11.589,13.544 11.979,13.578 12.075 C 13.614 12.175,13.640 12.380,13.639 12.555 C 13.638 12.887,13.590 13.029,13.335 13.448 C 13.256 13.578,13.202 13.695,13.214 13.708 C 13.250 13.743,13.785 13.302,14.127 12.954 C 14.612 12.462,14.845 11.896,14.757 11.426 C 14.708 11.163,14.610 10.953,14.240 10.322 C 13.729 9.451,13.612 9.083,13.683 8.582 C 13.797 7.773,14.496 7.086,16.280 6.028 C 16.829 5.703,17.045 5.563,17.000 5.562 C 16.989 5.562,16.728 5.658,16.420 5.775 M17.843 13.071 C 17.702 13.131,17.581 13.198,17.573 13.220 C 17.565 13.246,17.738 13.256,18.057 13.248 C 18.543 13.236,18.558 13.238,18.798 13.359 C 19.081 13.502,19.309 13.715,19.421 13.941 C 19.483 14.067,19.500 14.181,19.499 14.482 C 19.497 14.814,19.483 14.893,19.390 15.082 C 19.150 15.571,18.513 16.181,17.622 16.774 C 17.223 17.040,17.071 17.160,17.133 17.160 C 17.143 17.160,17.356 17.089,17.607 17.003 C 18.677 16.634,19.261 16.300,19.825 15.736 C 20.181 15.380,20.368 15.057,20.442 14.674 C 20.517 14.277,20.328 13.773,19.980 13.444 C 19.599 13.084,19.229 12.959,18.542 12.961 C 18.152 12.962,18.070 12.975,17.843 13.071 M8.765 13.186 C 7.633 13.360,6.047 13.929,5.849 14.232 C 5.785 14.329,5.787 14.335,5.915 14.441 C 6.651 15.056,11.082 15.224,14.325 14.760 C 15.342 14.615,15.848 14.479,16.426 14.194 C 16.713 14.053,16.751 13.989,16.530 14.020 C 16.032 14.091,14.394 14.287,13.800 14.347 C 13.213 14.407,12.702 14.418,10.640 14.419 C 8.415 14.420,8.156 14.413,7.926 14.350 C 7.671 14.279,7.440 14.149,7.440 14.075 C 7.440 13.929,7.922 13.675,8.760 13.381 C 9.536 13.109,9.537 13.067,8.765 13.186 M8.253 15.840 C 8.073 15.928,7.861 16.061,7.783 16.135 C 7.305 16.586,8.056 17.057,9.569 17.256 C 10.619 17.394,12.727 17.366,13.860 17.199 C 14.953 17.038,16.000 16.803,16.000 16.719 C 16.000 16.683,15.385 16.268,15.274 16.229 C 15.237 16.216,14.917 16.249,14.563 16.303 C 12.999 16.540,11.692 16.607,10.240 16.524 C 9.084 16.457,8.681 16.365,8.561 16.141 C 8.504 16.036,8.506 16.021,8.619 15.750 C 8.661 15.651,8.621 15.661,8.253 15.840 M8.802 18.241 C 8.494 18.404,8.240 18.616,8.240 18.712 C 8.240 18.936,8.711 19.258,9.330 19.457 C 10.079 19.698,10.478 19.761,11.425 19.787 C 12.588 19.820,13.414 19.739,14.380 19.497 C 14.894 19.368,15.671 19.127,15.695 19.089 C 15.720 19.047,14.842 18.648,14.602 18.593 C 14.438 18.555,14.290 18.563,13.732 18.637 C 13.109 18.721,12.945 18.726,11.480 18.711 C 9.991 18.696,9.883 18.690,9.609 18.607 C 9.206 18.485,9.160 18.451,9.160 18.273 C 9.160 18.191,9.146 18.116,9.129 18.105 C 9.112 18.095,8.965 18.156,8.802 18.241 M6.700 19.666 C 5.796 19.771,5.050 20.026,4.415 20.449 C 4.166 20.615,4.040 20.770,4.040 20.909 C 4.040 20.988,4.200 21.159,4.342 21.232 C 4.713 21.422,6.440 21.676,8.540 21.848 C 9.559 21.931,13.221 21.918,14.140 21.827 C 16.952 21.550,19.012 20.982,19.425 20.369 C 19.525 20.221,19.513 20.125,19.379 19.999 C 19.277 19.904,19.200 19.921,19.200 20.040 C 19.200 20.562,18.028 20.911,15.300 21.203 C 14.605 21.277,14.183 21.291,12.080 21.309 C 9.470 21.331,8.449 21.297,7.500 21.158 C 6.425 21.000,5.779 20.828,5.555 20.641 C 5.425 20.533,5.424 20.530,5.492 20.427 C 5.592 20.274,6.136 20.027,6.750 19.856 C 7.042 19.775,7.280 19.693,7.280 19.674 C 7.280 19.641,6.952 19.637,6.700 19.666 M20.167 21.221 C 19.113 21.877,16.829 22.368,13.720 22.607 C 12.332 22.713,9.521 22.652,7.860 22.479 C 7.470 22.438,7.216 22.430,7.245 22.458 C 7.330 22.544,8.686 22.804,9.440 22.880 C 10.213 22.958,12.291 22.998,13.580 22.960 C 15.361 22.907,16.307 22.817,17.420 22.596 C 18.963 22.289,19.809 21.922,20.282 21.354 C 20.450 21.152,20.517 21.040,20.469 21.040 C 20.463 21.040,20.327 21.121,20.167 21.221 " fill="#373B4D" stroke="none" fill-rule="evenodd"></path></svg>