<svg width="24" height="24" viewBox="0 0 24 24" fill="none" xmlns="http://www.w3.org/2000/svg"><path d="M14.503 1.170 C 14.492 1.220,14.455 1.494,14.421 1.780 C 14.307 2.718,14.001 3.407,13.420 4.037 C 13.043 4.446,12.391 5.071,11.640 5.745 C 11.343 6.011,10.856 6.480,10.559 6.786 C 10.064 7.296,9.999 7.379,9.808 7.762 C 9.535 8.306,9.426 8.725,9.460 9.095 C 9.531 9.856,9.971 10.680,10.820 11.641 C 11.227 12.103,12.131 12.946,12.152 12.885 C 12.159 12.862,11.951 12.506,11.689 12.092 C 11.115 11.185,10.930 10.870,10.720 10.435 L 10.560 10.104 10.561 9.562 C 10.563 9.065,10.572 8.997,10.674 8.738 C 10.866 8.253,11.050 8.020,11.855 7.240 C 13.097 6.040,14.049 5.072,14.245 4.812 C 14.465 4.519,14.752 3.969,14.899 3.560 C 15.043 3.156,15.085 2.394,14.984 2.000 C 14.909 1.710,14.619 1.080,14.560 1.080 C 14.539 1.080,14.513 1.121,14.503 1.170 M16.920 5.587 C 16.424 5.762,15.303 6.234,14.897 6.439 C 13.742 7.022,12.872 7.763,12.545 8.440 L 12.420 8.700 12.420 9.400 L 12.420 10.100 12.545 10.363 C 12.613 10.508,12.849 10.904,13.069 11.243 C 13.580 12.030,13.594 12.060,13.625 12.392 C 13.657 12.744,13.598 12.996,13.405 13.327 C 13.322 13.468,13.243 13.615,13.228 13.654 C 13.202 13.720,13.207 13.720,13.322 13.652 C 13.479 13.560,14.047 13.043,14.250 12.808 C 14.720 12.265,14.869 11.707,14.683 11.179 C 14.641 11.059,14.478 10.737,14.322 10.464 C 14.166 10.191,13.962 9.809,13.869 9.614 C 13.702 9.264,13.700 9.255,13.700 8.820 C 13.700 8.429,13.712 8.355,13.804 8.160 C 14.119 7.494,14.753 6.956,16.390 5.963 C 16.726 5.760,17.000 5.586,17.000 5.577 C 17.000 5.567,16.995 5.561,16.990 5.563 C 16.985 5.565,16.953 5.576,16.920 5.587 M18.060 12.997 C 17.878 13.048,17.649 13.154,17.620 13.199 C 17.604 13.226,17.758 13.240,18.068 13.240 C 18.483 13.241,18.565 13.252,18.748 13.338 C 19.001 13.456,19.300 13.724,19.403 13.927 C 19.464 14.045,19.480 14.162,19.480 14.483 C 19.480 14.864,19.472 14.904,19.350 15.134 C 19.104 15.600,18.424 16.228,17.424 16.913 C 17.253 17.030,17.121 17.134,17.131 17.144 C 17.168 17.181,18.118 16.825,18.580 16.600 C 19.118 16.339,19.374 16.161,19.775 15.769 C 20.090 15.462,20.280 15.187,20.378 14.899 C 20.621 14.185,20.162 13.353,19.371 13.073 C 19.116 12.983,18.280 12.934,18.060 12.997 M8.792 13.183 C 7.530 13.381,5.800 14.036,5.800 14.318 C 5.800 14.383,6.078 14.550,6.334 14.638 C 7.569 15.063,10.967 15.154,13.720 14.836 C 15.036 14.684,15.801 14.503,16.390 14.205 C 16.638 14.080,16.723 13.980,16.550 14.018 C 16.463 14.038,15.876 14.111,14.440 14.282 C 13.614 14.381,12.148 14.436,10.400 14.435 C 8.622 14.434,7.996 14.398,7.731 14.282 C 7.474 14.170,7.420 14.112,7.475 14.008 C 7.536 13.896,8.006 13.663,8.672 13.415 C 9.487 13.112,9.508 13.072,8.792 13.183 M8.249 15.851 C 7.563 16.202,7.468 16.476,7.926 16.784 C 8.647 17.268,10.855 17.476,13.160 17.276 C 14.182 17.188,16.000 16.833,16.000 16.722 C 16.000 16.708,15.845 16.593,15.657 16.468 C 15.257 16.203,15.258 16.203,14.472 16.318 C 13.002 16.534,11.522 16.605,10.220 16.523 C 9.100 16.452,8.751 16.373,8.588 16.154 C 8.508 16.046,8.510 16.021,8.620 15.750 C 8.661 15.650,8.620 15.661,8.249 15.851 M8.739 18.283 C 8.405 18.477,8.240 18.627,8.240 18.734 C 8.240 18.843,8.496 19.075,8.781 19.226 C 9.062 19.374,9.656 19.573,10.080 19.661 C 10.841 19.819,12.419 19.837,13.360 19.699 C 14.068 19.595,15.680 19.168,15.680 19.084 C 15.680 19.039,14.940 18.700,14.671 18.621 C 14.463 18.561,14.405 18.562,13.715 18.643 C 13.049 18.720,12.834 18.726,11.420 18.709 C 9.948 18.691,9.844 18.685,9.580 18.601 C 9.238 18.492,9.160 18.428,9.160 18.254 C 9.160 18.074,9.089 18.079,8.739 18.283 M6.467 19.703 C 6.274 19.733,5.968 19.797,5.787 19.845 C 4.942 20.070,4.040 20.604,4.040 20.880 C 4.040 20.994,4.222 21.184,4.400 21.255 C 4.764 21.401,5.914 21.587,7.520 21.760 C 9.433 21.967,13.268 21.956,14.920 21.741 C 17.239 21.438,18.816 20.983,19.330 20.470 C 19.499 20.301,19.528 20.135,19.407 20.026 C 19.298 19.927,19.200 19.942,19.200 20.057 C 19.200 20.191,19.025 20.386,18.805 20.497 C 18.062 20.873,16.030 21.205,14.020 21.280 C 12.692 21.329,9.681 21.328,8.780 21.279 C 7.305 21.197,5.901 20.914,5.545 20.628 C 5.447 20.549,5.436 20.523,5.473 20.453 C 5.543 20.322,6.091 20.062,6.690 19.876 C 6.992 19.781,7.240 19.690,7.240 19.672 C 7.240 19.625,6.871 19.640,6.467 19.703 M20.120 21.246 C 19.062 21.856,17.153 22.286,14.280 22.563 C 12.779 22.708,10.080 22.680,8.049 22.498 C 7.250 22.427,7.169 22.427,7.368 22.500 C 7.806 22.661,9.108 22.865,10.080 22.924 C 11.103 22.987,14.681 22.948,15.540 22.865 C 17.598 22.666,19.114 22.262,19.896 21.704 C 20.115 21.548,20.518 21.102,20.476 21.064 C 20.467 21.056,20.307 21.138,20.120 21.246 " fill="#373B4D" stroke="none" fill-rule="evenodd"></path></svg>