<svg width="24" height="24" viewBox="0 0 24 24" fill="none" xmlns="http://www.w3.org/2000/svg"><path d="M3.000 12.000 L 3.000 21.000 12.000 21.000 L 21.000 21.000 21.000 12.000 L 21.000 3.000 12.000 3.000 L 3.000 3.000 3.000 12.000 M17.998 11.156 C 18.132 11.198,18.364 11.304,18.512 11.392 C 18.808 11.568,19.309 12.048,19.426 12.267 L 19.500 12.407 19.360 12.525 C 19.283 12.590,19.010 12.804,18.754 13.001 L 18.288 13.358 18.124 13.141 C 17.709 12.591,17.103 12.451,16.693 12.811 C 16.529 12.955,16.402 13.201,16.401 13.377 C 16.400 13.442,16.437 13.572,16.483 13.666 C 16.622 13.953,16.929 14.190,17.663 14.576 C 19.057 15.308,19.337 15.528,19.630 16.122 C 19.862 16.590,19.932 16.914,19.933 17.520 C 19.935 17.937,19.920 18.063,19.845 18.280 C 19.562 19.096,18.851 19.758,18.088 19.916 C 17.971 19.940,17.701 19.960,17.487 19.960 C 16.514 19.960,15.852 19.775,15.318 19.355 C 14.872 19.005,14.400 18.440,14.400 18.258 C 14.400 18.150,14.519 18.042,15.096 17.622 L 15.572 17.276 15.693 17.428 C 15.863 17.641,16.187 17.947,16.391 18.087 C 16.689 18.293,16.903 18.367,17.196 18.367 C 17.985 18.367,18.444 17.945,18.303 17.349 C 18.194 16.886,18.127 16.828,17.050 16.265 C 16.660 16.061,16.268 15.848,16.180 15.792 C 15.677 15.473,15.335 15.077,15.054 14.485 L 14.914 14.190 14.927 13.365 C 14.940 12.544,14.941 12.539,15.057 12.309 C 15.365 11.701,16.074 11.188,16.754 11.080 C 17.080 11.029,17.711 11.067,17.998 11.156 M13.022 13.830 C 13.007 15.277,12.979 16.888,12.961 17.411 L 12.927 18.363 12.717 18.741 C 12.377 19.355,11.943 19.725,11.360 19.897 C 11.098 19.975,10.363 19.986,9.989 19.918 C 9.374 19.807,8.798 19.470,8.408 18.995 C 8.218 18.763,7.975 18.369,8.006 18.343 C 8.080 18.281,9.245 17.520,9.265 17.520 C 9.280 17.520,9.465 17.687,9.676 17.891 C 10.060 18.263,10.269 18.401,10.446 18.399 C 10.684 18.397,11.066 18.131,11.282 17.817 L 11.400 17.646 11.400 14.423 L 11.400 11.200 12.225 11.200 L 13.049 11.200 13.022 13.830 " fill="#373B4D" stroke="none" fill-rule="evenodd"></path></svg>