<svg width="24" height="24" viewBox="0 0 24 24" fill="none" xmlns="http://www.w3.org/2000/svg"><path d="M3.000 12.000 L 3.000 21.000 12.000 21.000 L 21.000 21.000 21.000 12.000 L 21.000 3.000 12.000 3.000 L 3.000 3.000 3.000 12.000 M17.848 11.124 C 18.231 11.205,18.661 11.462,19.039 11.839 C 19.228 12.026,19.409 12.232,19.441 12.295 C 19.509 12.429,19.535 12.402,18.754 13.001 L 18.288 13.359 18.134 13.158 C 17.654 12.528,16.925 12.449,16.548 12.985 C 16.381 13.223,16.370 13.412,16.507 13.680 C 16.656 13.970,16.953 14.191,17.847 14.676 C 19.082 15.346,19.334 15.553,19.624 16.140 C 19.865 16.628,19.930 16.963,19.913 17.643 L 19.900 18.186 19.732 18.523 C 19.640 18.708,19.478 18.968,19.371 19.100 C 19.123 19.406,18.676 19.727,18.330 19.847 C 18.090 19.930,17.988 19.940,17.420 19.939 C 16.204 19.937,15.622 19.709,14.893 18.949 C 14.548 18.589,14.380 18.325,14.420 18.201 C 14.447 18.115,14.626 17.965,15.169 17.571 L 15.557 17.290 15.969 17.698 C 16.515 18.242,16.710 18.340,17.240 18.340 C 17.567 18.340,17.651 18.325,17.844 18.235 C 18.262 18.039,18.415 17.666,18.264 17.211 C 18.156 16.888,18.014 16.779,17.000 16.240 C 16.615 16.036,16.199 15.800,16.076 15.717 C 15.711 15.470,15.352 15.048,15.117 14.590 L 14.909 14.185 14.930 13.356 L 14.951 12.528 15.085 12.274 C 15.344 11.784,16.028 11.246,16.546 11.124 C 16.768 11.072,17.599 11.072,17.848 11.124 M13.023 13.510 C 13.008 14.780,12.979 16.394,12.959 17.096 L 12.922 18.373 12.731 18.714 C 12.508 19.112,12.082 19.565,11.777 19.729 C 11.665 19.788,11.468 19.865,11.339 19.899 C 11.025 19.980,10.282 19.979,9.908 19.896 C 9.339 19.771,8.772 19.425,8.406 18.982 C 8.246 18.788,7.980 18.366,8.004 18.345 C 8.041 18.313,8.994 17.687,9.128 17.606 L 9.277 17.516 9.644 17.860 C 10.109 18.294,10.312 18.418,10.508 18.386 C 10.717 18.353,11.051 18.115,11.238 17.867 L 11.400 17.653 11.400 14.426 L 11.400 11.200 12.225 11.200 L 13.050 11.200 13.023 13.510 " fill="#373B4D" stroke="none" fill-rule="evenodd"></path></svg>