<svg width="24" height="24" viewBox="0 0 24 24" fill="none" xmlns="http://www.w3.org/2000/svg">
<path fill-rule="evenodd" clip-rule="evenodd" d="M21 3H3V21H21V3ZM15.6178 17.2415L14.3158 18.1646C14.4227 18.4436 15.064 20 17.4834 20C19.2845 20 20 18.5204 20 17.6064C20 15.7817 18.97 15.2021 18.2704 14.8479C18.1345 14.7791 17.9746 14.7129 17.8067 14.6434C17.1649 14.3778 16.4049 14.0632 16.4049 13.3614C16.4049 13.1112 16.5506 12.5617 17.2502 12.5617C17.5334 12.5617 17.9935 12.7603 18.2704 13.3614L19.5336 12.4168C18.8486 11.0376 17.4731 11 17.187 11C16.7498 11 14.8162 11.2469 14.8162 13.3936C14.8162 15.3425 16.4587 16.0149 16.9039 16.1971C16.9405 16.2121 16.969 16.2238 16.9879 16.2326C17.0246 16.2497 17.0783 16.2693 17.1436 16.2931C17.5439 16.4393 18.3773 16.7435 18.3773 17.6064C18.3773 17.9231 17.9984 18.4007 17.1822 18.4007C16.366 18.4007 15.7198 17.585 15.6178 17.2415ZM9.35706 17.4253L8 18.3479C8.12153 18.8521 8.87095 20 10.6736 20C12.6342 20 13.0785 18.2835 13.0515 17.4253V11.203H11.3825V17.4253C11.3825 17.7417 11.0757 18.4015 10.4761 18.4015C9.87659 18.4015 9.46339 17.7686 9.35706 17.4253Z" fill="#373B4D"/>
</svg>
