<svg width="24" height="24" viewBox="0 0 24 24" fill="none" xmlns="http://www.w3.org/2000/svg"><path d="M3.000 12.000 L 3.000 21.000 12.000 21.000 L 21.000 21.000 21.000 12.000 L 21.000 3.000 12.000 3.000 L 3.000 3.000 3.000 12.000 M17.700 11.081 C 18.149 11.143,18.664 11.418,19.038 11.796 C 19.204 11.963,19.376 12.169,19.420 12.253 L 19.500 12.405 19.360 12.524 C 19.283 12.590,19.009 12.805,18.752 13.002 L 18.284 13.360 18.166 13.190 C 17.832 12.709,17.413 12.518,16.960 12.640 C 16.618 12.732,16.352 13.151,16.417 13.496 C 16.456 13.708,16.676 13.999,16.920 14.163 C 17.041 14.244,17.461 14.474,17.854 14.675 C 19.009 15.264,19.320 15.512,19.616 16.079 C 19.837 16.503,19.926 16.844,19.948 17.360 C 19.973 17.929,19.907 18.243,19.669 18.694 C 19.434 19.139,19.074 19.498,18.650 19.710 C 18.196 19.937,17.980 19.974,17.240 19.949 C 16.512 19.924,16.151 19.842,15.660 19.588 C 15.103 19.301,14.282 18.381,14.394 18.171 C 14.416 18.130,14.692 17.911,15.007 17.685 L 15.579 17.274 15.696 17.427 C 15.953 17.760,16.319 18.075,16.627 18.227 C 16.906 18.365,16.963 18.379,17.237 18.375 C 17.631 18.369,17.943 18.253,18.135 18.041 C 18.334 17.820,18.380 17.620,18.302 17.314 C 18.186 16.862,18.105 16.797,16.934 16.204 C 16.018 15.741,15.702 15.507,15.375 15.050 C 15.262 14.893,15.109 14.624,15.035 14.452 L 14.900 14.140 14.900 13.420 C 14.900 12.578,14.932 12.447,15.241 12.006 C 15.460 11.695,15.783 11.439,16.207 11.240 C 16.597 11.058,17.128 11.001,17.700 11.081 M13.021 14.190 C 13.006 15.835,12.979 17.437,12.962 17.751 L 12.932 18.323 12.745 18.701 C 12.419 19.357,11.929 19.766,11.280 19.924 C 10.944 20.007,10.207 19.986,9.825 19.885 C 9.274 19.738,8.940 19.550,8.580 19.185 C 8.387 18.990,8.206 18.759,8.126 18.607 C 8.052 18.468,7.999 18.349,8.006 18.343 C 8.027 18.325,9.214 17.538,9.264 17.509 C 9.288 17.494,9.403 17.600,9.524 17.747 C 9.776 18.055,10.149 18.347,10.336 18.382 C 10.639 18.439,11.005 18.219,11.284 17.814 L 11.400 17.646 11.400 14.423 L 11.400 11.200 12.225 11.200 L 13.050 11.200 13.021 14.190 " fill="#373B4D" stroke="none" fill-rule="evenodd"></path></svg>