<svg width="24" height="24" viewBox="0 0 24 24" fill="none" xmlns="http://www.w3.org/2000/svg"><path d="M3.000 12.000 L 3.000 21.000 12.000 21.000 L 21.000 21.000 21.000 12.000 L 21.000 3.000 12.000 3.000 L 3.000 3.000 3.000 12.000 M17.897 11.101 C 18.461 11.248,19.034 11.652,19.347 12.122 C 19.509 12.365,19.525 12.408,19.472 12.451 C 19.439 12.478,19.158 12.693,18.848 12.929 L 18.284 13.359 18.121 13.126 C 17.855 12.746,17.592 12.590,17.220 12.590 C 16.950 12.590,16.799 12.651,16.632 12.826 C 16.326 13.148,16.332 13.580,16.646 13.938 C 16.852 14.171,17.089 14.317,17.789 14.639 C 18.569 14.998,18.849 15.165,19.151 15.454 C 19.478 15.767,19.670 16.062,19.805 16.458 C 19.933 16.834,20.014 17.443,19.979 17.758 C 19.890 18.553,19.432 19.288,18.800 19.651 C 18.297 19.940,17.894 20.012,17.056 19.961 C 16.614 19.934,16.467 19.907,16.128 19.790 C 15.600 19.610,15.331 19.446,14.958 19.080 C 14.644 18.771,14.278 18.224,14.344 18.162 C 14.432 18.079,15.562 17.280,15.590 17.282 C 15.606 17.283,15.683 17.384,15.760 17.507 C 15.939 17.793,16.390 18.175,16.672 18.281 C 17.265 18.503,17.933 18.362,18.243 17.949 C 18.325 17.840,18.340 17.776,18.338 17.540 C 18.335 16.933,18.067 16.686,16.835 16.160 C 15.327 15.516,14.642 14.352,14.882 12.840 C 15.006 12.053,15.621 11.390,16.480 11.115 C 16.769 11.022,17.564 11.014,17.897 11.101 M13.028 14.590 C 13.016 16.911,12.995 18.043,12.964 18.180 C 12.906 18.437,12.678 18.918,12.497 19.164 C 12.335 19.385,11.943 19.695,11.680 19.809 C 11.024 20.094,9.952 20.036,9.229 19.677 C 8.720 19.425,8.315 19.030,8.102 18.580 C 8.042 18.455,8.000 18.348,8.007 18.343 C 8.293 18.138,9.288 17.480,9.313 17.480 C 9.333 17.480,9.425 17.597,9.517 17.740 C 9.757 18.111,10.159 18.400,10.435 18.400 C 10.772 18.399,11.104 18.163,11.293 17.791 L 11.400 17.579 11.400 14.389 L 11.400 11.200 12.223 11.200 L 13.047 11.200 13.028 14.590 " fill="#373B4D" stroke="none" fill-rule="evenodd"></path></svg>