<svg width="24" height="24" viewBox="0 0 24 24" fill="none" xmlns="http://www.w3.org/2000/svg"><path d="M3.000 12.000 L 3.000 21.000 12.000 21.000 L 21.000 21.000 21.000 12.000 L 21.000 3.000 12.000 3.000 L 3.000 3.000 3.000 12.000 M17.720 11.077 C 18.204 11.157,18.685 11.414,19.056 11.792 C 19.284 12.024,19.481 12.306,19.478 12.396 C 19.477 12.431,19.207 12.663,18.880 12.910 L 18.284 13.360 18.166 13.189 C 17.998 12.945,17.718 12.699,17.543 12.641 C 17.459 12.613,17.280 12.598,17.138 12.607 C 16.833 12.627,16.633 12.760,16.490 13.041 C 16.379 13.258,16.377 13.445,16.483 13.680 C 16.634 14.014,16.893 14.204,17.796 14.645 C 18.709 15.091,19.013 15.287,19.319 15.629 C 19.910 16.291,20.139 17.474,19.842 18.333 C 19.636 18.932,19.160 19.485,18.640 19.729 C 18.217 19.928,18.019 19.966,17.396 19.964 C 16.327 19.961,15.606 19.702,14.989 19.100 C 14.712 18.829,14.360 18.339,14.360 18.224 C 14.360 18.161,14.516 18.029,14.970 17.706 L 15.580 17.273 15.680 17.404 C 16.258 18.162,16.866 18.484,17.489 18.361 C 18.124 18.236,18.418 17.891,18.323 17.380 C 18.238 16.917,18.055 16.744,17.240 16.354 C 16.449 15.976,16.298 15.895,16.016 15.696 C 15.536 15.358,15.174 14.872,14.975 14.300 C 14.875 14.011,14.864 13.926,14.863 13.420 C 14.860 12.660,14.965 12.326,15.354 11.847 C 15.632 11.504,16.227 11.155,16.653 11.084 C 16.937 11.036,17.455 11.033,17.720 11.077 M13.023 14.511 C 13.008 16.332,12.980 17.940,12.962 18.085 C 12.894 18.632,12.449 19.321,11.948 19.653 C 11.223 20.134,9.910 20.090,9.014 19.555 C 8.681 19.356,8.321 18.978,8.144 18.643 C 8.061 18.484,7.999 18.349,8.006 18.343 C 8.014 18.336,8.308 18.139,8.660 17.904 L 9.300 17.476 9.420 17.624 C 10.046 18.394,10.396 18.546,10.874 18.252 C 10.992 18.180,11.122 18.046,11.230 17.886 L 11.400 17.633 11.400 14.416 L 11.400 11.200 12.226 11.200 L 13.052 11.200 13.023 14.511 " fill="#373B4D" stroke="none" fill-rule="evenodd"></path></svg>