<svg width="24" height="24" viewBox="0 0 24 24" fill="none" xmlns="http://www.w3.org/2000/svg"><path d="M3.000 12.000 L 3.000 21.000 12.000 21.000 L 21.000 21.000 21.000 12.000 L 21.000 3.000 12.000 3.000 L 3.000 3.000 3.000 12.000 M17.920 11.099 C 18.491 11.252,19.058 11.659,19.367 12.136 C 19.451 12.266,19.520 12.385,19.520 12.401 C 19.520 12.417,19.242 12.639,18.902 12.894 L 18.284 13.358 18.132 13.131 C 17.842 12.698,17.437 12.503,17.020 12.596 C 16.461 12.722,16.231 13.351,16.562 13.850 C 16.729 14.103,17.071 14.326,17.740 14.618 C 18.551 14.972,18.887 15.173,19.218 15.500 C 19.694 15.970,19.934 16.553,19.984 17.358 C 20.015 17.848,19.937 18.230,19.720 18.662 C 19.424 19.250,18.972 19.644,18.338 19.867 C 18.038 19.973,17.984 19.979,17.380 19.975 C 16.712 19.971,16.460 19.928,15.917 19.723 C 15.355 19.512,14.801 19.044,14.495 18.521 C 14.399 18.356,14.320 18.209,14.320 18.193 C 14.320 18.177,14.611 17.958,14.967 17.705 L 15.613 17.246 15.694 17.413 C 15.825 17.682,16.272 18.102,16.580 18.246 C 17.194 18.533,17.957 18.386,18.264 17.921 C 18.356 17.781,18.367 17.731,18.353 17.511 C 18.314 16.942,18.021 16.646,17.153 16.299 C 16.045 15.856,15.458 15.386,15.101 14.654 C 14.908 14.257,14.841 13.941,14.841 13.412 C 14.840 12.866,14.886 12.628,15.066 12.249 C 15.358 11.633,16.000 11.183,16.791 11.039 C 17.042 10.993,17.646 11.025,17.920 11.099 M13.040 14.502 C 13.040 18.212,13.044 18.150,12.751 18.760 C 12.630 19.014,12.521 19.167,12.324 19.363 C 11.849 19.837,11.295 20.026,10.500 19.986 C 9.963 19.959,9.644 19.882,9.205 19.673 C 8.759 19.460,8.301 19.019,8.117 18.625 C 8.047 18.477,7.997 18.351,8.005 18.345 C 8.047 18.313,9.267 17.490,9.306 17.467 C 9.335 17.450,9.386 17.508,9.440 17.619 C 9.640 18.034,10.106 18.399,10.435 18.400 C 10.788 18.401,11.099 18.185,11.286 17.809 L 11.380 17.620 11.391 14.410 L 11.402 11.200 12.221 11.200 L 13.040 11.200 13.040 14.502 " fill="#373B4D" stroke="none" fill-rule="evenodd"></path></svg>