<svg width="24" height="24" viewBox="0 0 24 24" fill="none" xmlns="http://www.w3.org/2000/svg"><path d="M13.680 2.445 C 12.580 2.556,11.400 2.975,10.460 3.590 C 7.863 5.286,6.644 8.497,7.455 11.505 L 7.510 11.710 4.955 14.265 L 2.400 16.820 2.400 19.210 L 2.400 21.600 4.800 21.600 L 7.200 21.600 7.200 20.400 L 7.200 19.200 8.410 19.200 L 9.620 19.200 10.966 17.854 L 12.313 16.507 12.796 16.614 C 14.761 17.050,16.749 16.678,18.404 15.566 C 19.923 14.544,20.935 13.087,21.402 11.247 C 21.627 10.361,21.644 8.978,21.441 8.100 C 21.085 6.557,20.280 5.183,19.169 4.220 C 17.638 2.893,15.642 2.247,13.680 2.445 M14.875 4.843 C 15.664 4.917,16.343 5.158,17.009 5.599 C 17.758 6.096,18.343 6.759,18.721 7.537 C 19.008 8.127,19.123 8.608,19.149 9.321 C 19.170 9.890,19.168 9.907,19.065 10.110 C 18.932 10.372,18.718 10.588,18.491 10.688 C 17.958 10.924,17.295 10.733,17.021 10.265 C 16.890 10.042,16.852 9.910,16.796 9.482 C 16.697 8.732,16.413 8.170,15.933 7.780 C 15.508 7.433,15.085 7.268,14.456 7.203 C 14.040 7.161,13.797 7.063,13.578 6.850 C 13.411 6.688,13.261 6.386,13.220 6.132 C 13.153 5.708,13.404 5.207,13.793 4.988 C 14.140 4.793,14.225 4.782,14.875 4.843 " fill="#373B4D" stroke="none" fill-rule="evenodd"></path></svg>