<svg width="24" height="24" viewBox="0 0 24 24" fill="none" xmlns="http://www.w3.org/2000/svg"><path d="M13.180 2.560 C 12.581 2.690,11.695 2.998,11.212 3.242 C 9.490 4.116,8.313 5.443,7.649 7.260 C 7.313 8.182,7.300 8.268,7.300 9.640 C 7.300 10.665,7.312 10.922,7.375 11.250 C 7.446 11.624,7.446 11.644,7.378 11.748 C 7.276 11.905,5.596 13.631,3.883 15.340 L 2.400 16.820 2.400 19.210 L 2.400 21.600 4.800 21.600 L 7.200 21.600 7.200 20.400 L 7.200 19.200 8.410 19.200 L 9.620 19.200 10.960 17.864 L 12.300 16.527 12.860 16.620 C 13.664 16.754,14.364 16.814,14.759 16.783 C 15.250 16.744,16.012 16.583,16.573 16.398 C 17.167 16.203,18.161 15.716,18.540 15.434 C 18.874 15.187,19.949 14.119,20.207 13.780 C 20.787 13.016,21.280 11.777,21.504 10.520 C 21.778 8.983,21.277 6.971,20.259 5.520 C 19.207 4.022,17.578 2.977,15.700 2.597 C 15.058 2.467,13.698 2.447,13.180 2.560 M15.145 4.942 C 15.655 5.030,15.971 5.132,16.422 5.355 C 17.393 5.833,18.108 6.539,18.616 7.520 C 18.954 8.174,19.079 8.719,19.079 9.540 C 19.080 9.958,19.027 10.132,18.840 10.336 C 18.456 10.751,17.856 10.848,17.400 10.568 C 17.178 10.431,17.052 10.191,16.760 9.343 C 16.475 8.517,16.346 8.266,16.059 7.975 C 15.757 7.669,15.520 7.548,14.614 7.239 C 14.221 7.105,13.834 6.952,13.753 6.899 C 13.440 6.694,13.323 6.423,13.321 5.898 C 13.320 5.655,13.336 5.591,13.434 5.438 C 13.574 5.221,13.685 5.118,13.920 4.983 C 14.075 4.895,14.149 4.881,14.445 4.880 C 14.634 4.880,14.949 4.908,15.145 4.942 " fill="#373B4D" stroke="none" fill-rule="evenodd"></path></svg>