<svg width="24" height="24" viewBox="0 0 24 24" fill="none" xmlns="http://www.w3.org/2000/svg"><path d="M13.541 2.524 C 12.928 2.589,12.047 2.863,11.300 3.221 C 9.482 4.094,8.209 5.569,7.538 7.580 C 7.356 8.125,7.319 8.376,7.293 9.260 C 7.274 9.939,7.288 10.261,7.388 11.462 L 7.408 11.705 7.031 12.122 C 6.823 12.352,5.696 13.506,4.527 14.686 L 2.400 16.831 2.400 19.216 L 2.400 21.600 4.800 21.600 L 7.200 21.600 7.200 20.400 L 7.200 19.200 8.410 19.200 L 9.620 19.200 10.960 17.863 L 12.300 16.526 12.720 16.599 C 13.279 16.695,14.209 16.800,14.510 16.800 C 14.811 16.800,15.577 16.671,16.080 16.536 C 16.792 16.345,17.797 15.905,18.376 15.532 C 18.695 15.326,19.808 14.250,20.187 13.780 C 20.671 13.181,21.216 11.908,21.446 10.840 C 21.567 10.279,21.579 9.014,21.469 8.472 C 20.973 6.028,19.583 4.203,17.448 3.192 C 16.260 2.629,14.845 2.387,13.541 2.524 M14.820 4.921 C 16.520 5.081,17.927 6.098,18.698 7.725 C 18.952 8.262,19.003 8.506,19.028 9.308 C 19.050 9.995,19.050 9.996,18.946 10.174 C 18.632 10.710,17.801 10.890,17.352 10.519 C 17.183 10.380,17.027 10.070,16.766 9.357 C 16.487 8.593,16.335 8.300,16.071 8.018 C 15.784 7.710,15.555 7.587,14.609 7.236 C 14.197 7.083,13.791 6.912,13.707 6.856 C 13.507 6.724,13.374 6.433,13.337 6.049 C 13.299 5.653,13.372 5.472,13.684 5.183 C 14.020 4.872,14.099 4.854,14.820 4.921 " fill="#373B4D" stroke="none" fill-rule="evenodd"></path></svg>