<svg width="24" height="24" viewBox="0 0 24 24" fill="none" xmlns="http://www.w3.org/2000/svg"><path d="M13.620 2.483 C 12.657 2.631,11.927 2.858,11.175 3.244 C 9.305 4.205,8.060 5.731,7.465 7.791 C 7.291 8.391,7.269 8.607,7.270 9.680 C 7.270 10.623,7.278 10.736,7.373 11.177 C 7.452 11.542,7.466 11.673,7.432 11.737 C 7.409 11.783,6.267 12.946,4.895 14.322 L 2.400 16.823 2.400 19.212 L 2.400 21.600 4.800 21.600 L 7.200 21.600 7.200 20.400 L 7.200 19.200 8.410 19.200 L 9.620 19.200 10.960 17.862 L 12.300 16.524 12.860 16.620 C 14.010 16.818,14.656 16.838,15.434 16.701 C 16.437 16.525,17.583 16.080,18.353 15.568 C 18.975 15.155,19.948 14.190,20.364 13.575 C 20.953 12.702,21.393 11.461,21.545 10.248 C 21.622 9.631,21.591 9.053,21.438 8.261 C 21.016 6.071,19.531 4.142,17.540 3.196 C 16.806 2.847,16.095 2.639,15.173 2.503 C 14.478 2.401,14.180 2.397,13.620 2.483 M14.933 4.900 C 15.542 4.980,16.009 5.120,16.492 5.368 C 17.467 5.869,18.222 6.645,18.715 7.654 C 18.938 8.111,19.023 8.464,19.077 9.163 C 19.137 9.929,19.105 10.092,18.841 10.355 C 18.566 10.630,18.327 10.736,17.977 10.738 C 17.740 10.740,17.657 10.721,17.461 10.620 C 17.261 10.517,17.208 10.465,17.096 10.260 C 17.024 10.128,16.881 9.741,16.779 9.400 C 16.458 8.327,16.237 7.985,15.637 7.631 C 15.387 7.483,15.231 7.426,14.318 7.145 C 13.762 6.974,13.620 6.885,13.450 6.600 C 13.326 6.394,13.320 6.365,13.320 5.976 L 13.320 5.568 13.496 5.334 C 13.683 5.087,13.829 4.980,14.097 4.896 C 14.313 4.829,14.394 4.829,14.933 4.900 " fill="#373B4D" stroke="none" fill-rule="evenodd"></path></svg>