<svg width="24" height="24" viewBox="0 0 24 24" fill="none" xmlns="http://www.w3.org/2000/svg"><path d="M13.748 2.461 C 12.799 2.576,12.044 2.797,11.220 3.200 C 9.463 4.061,8.170 5.568,7.561 7.461 C 7.321 8.210,7.277 8.477,7.252 9.341 C 7.227 10.226,7.268 10.724,7.416 11.334 L 7.507 11.713 4.954 14.266 L 2.400 16.820 2.400 19.210 L 2.400 21.600 4.800 21.600 L 7.200 21.600 7.200 20.400 L 7.200 19.200 8.410 19.200 L 9.620 19.200 10.962 17.858 L 12.304 16.517 12.845 16.616 C 14.251 16.876,15.112 16.848,16.314 16.502 C 17.210 16.244,18.153 15.777,18.766 15.287 C 19.227 14.919,20.077 14.017,20.358 13.597 C 21.220 12.309,21.696 10.528,21.563 9.091 C 21.456 7.935,21.166 7.013,20.592 6.005 C 20.146 5.222,19.450 4.431,18.760 3.922 C 17.573 3.045,16.375 2.601,14.766 2.441 C 14.285 2.393,14.310 2.393,13.748 2.461 M14.940 4.884 C 15.758 4.984,16.326 5.193,16.999 5.644 C 17.830 6.199,18.419 6.911,18.823 7.850 C 19.007 8.277,19.084 8.680,19.109 9.361 C 19.134 10.026,19.120 10.075,18.811 10.405 C 18.417 10.827,17.711 10.881,17.276 10.523 C 17.063 10.347,16.941 10.075,16.780 9.420 C 16.562 8.529,16.351 8.143,15.890 7.788 C 15.535 7.515,15.277 7.404,14.613 7.238 C 13.884 7.056,13.646 6.939,13.482 6.682 C 13.307 6.410,13.223 6.047,13.277 5.795 C 13.329 5.552,13.370 5.470,13.545 5.253 C 13.855 4.870,14.161 4.789,14.940 4.884 " fill="#373B4D" stroke="none" fill-rule="evenodd"></path></svg>