<svg width="24" height="24" viewBox="0 0 24 24" fill="none" xmlns="http://www.w3.org/2000/svg"><path d="M13.840 2.445 C 10.718 2.757,8.231 4.857,7.444 7.844 C 7.278 8.475,7.240 8.812,7.240 9.653 C 7.240 10.403,7.294 10.896,7.434 11.425 L 7.510 11.711 4.955 14.265 L 2.400 16.820 2.400 19.210 L 2.400 21.600 4.800 21.600 L 7.200 21.600 7.200 20.400 L 7.200 19.200 8.410 19.200 L 9.620 19.200 10.963 17.857 L 12.306 16.515 12.843 16.616 C 13.988 16.833,14.783 16.845,15.700 16.660 C 16.703 16.458,17.788 15.999,18.560 15.451 C 19.048 15.104,19.904 14.248,20.250 13.760 C 21.198 12.425,21.699 10.635,21.563 9.071 C 21.476 8.073,21.257 7.304,20.799 6.380 C 20.101 4.975,19.036 3.920,17.577 3.189 C 16.789 2.794,15.973 2.566,14.970 2.459 C 14.369 2.395,14.336 2.395,13.840 2.445 M15.214 4.919 C 15.765 5.013,16.074 5.112,16.487 5.326 C 17.213 5.704,17.934 6.331,18.343 6.944 C 18.602 7.332,18.893 7.933,18.976 8.253 C 19.066 8.597,19.125 9.083,19.132 9.537 C 19.138 9.888,19.127 9.962,19.046 10.115 C 18.684 10.799,17.821 10.985,17.249 10.502 C 17.063 10.345,16.938 10.106,16.860 9.760 C 16.687 8.993,16.631 8.801,16.502 8.537 C 16.332 8.191,16.111 7.935,15.780 7.699 C 15.429 7.448,15.237 7.373,14.610 7.238 C 13.993 7.105,13.694 6.979,13.550 6.789 C 13.149 6.262,13.147 5.686,13.545 5.242 C 13.819 4.938,14.025 4.844,14.426 4.842 C 14.605 4.841,14.960 4.876,15.214 4.919 " fill="#373B4D" stroke="none" fill-rule="evenodd"></path></svg>