<svg width="24" height="24" viewBox="0 0 24 24" fill="none" xmlns="http://www.w3.org/2000/svg"><path d="M13.700 2.466 C 12.800 2.607,11.932 2.873,11.247 3.217 C 9.429 4.130,8.223 5.526,7.575 7.464 C 7.309 8.260,7.283 8.455,7.281 9.667 C 7.280 10.556,7.292 10.775,7.360 11.120 C 7.404 11.343,7.440 11.578,7.440 11.642 C 7.440 11.742,7.090 12.110,4.920 14.294 L 2.400 16.830 2.400 19.215 L 2.400 21.600 4.800 21.600 L 7.200 21.600 7.200 20.400 L 7.200 19.200 8.410 19.200 L 9.620 19.200 10.960 17.864 L 12.300 16.527 12.860 16.621 C 13.685 16.760,14.323 16.814,14.759 16.782 C 15.999 16.692,17.547 16.145,18.499 15.461 C 19.103 15.026,19.990 14.119,20.382 13.537 C 20.973 12.655,21.433 11.299,21.563 10.053 C 21.641 9.296,21.507 8.318,21.197 7.380 C 20.236 4.481,17.560 2.533,14.440 2.461 C 14.099 2.453,13.766 2.455,13.700 2.466 M15.200 4.945 C 16.675 5.199,17.960 6.177,18.661 7.580 C 18.977 8.213,19.080 8.702,19.080 9.571 C 19.080 10.063,19.055 10.134,18.793 10.388 C 18.306 10.861,17.544 10.854,17.178 10.374 C 17.095 10.266,16.972 9.966,16.802 9.457 C 16.513 8.592,16.348 8.245,16.108 8.001 C 15.771 7.656,15.496 7.521,14.443 7.179 C 13.780 6.964,13.626 6.875,13.460 6.611 C 13.350 6.437,13.339 6.385,13.326 6.008 C 13.313 5.618,13.318 5.587,13.416 5.446 C 13.596 5.186,13.825 4.993,14.047 4.914 C 14.284 4.830,14.575 4.838,15.200 4.945 " fill="#373B4D" stroke="none" fill-rule="evenodd"></path></svg>