<svg width="24" height="24" viewBox="0 0 24 24" fill="none" xmlns="http://www.w3.org/2000/svg"><path d="M13.740 2.464 C 12.785 2.593,12.104 2.790,11.329 3.161 C 9.482 4.047,8.208 5.503,7.563 7.466 C 7.297 8.275,7.263 8.524,7.263 9.660 C 7.263 10.554,7.273 10.703,7.354 11.060 C 7.403 11.280,7.453 11.523,7.465 11.600 C 7.485 11.739,7.469 11.756,4.943 14.280 L 2.400 16.820 2.400 19.210 L 2.400 21.600 4.800 21.600 L 7.200 21.600 7.200 20.400 L 7.200 19.200 8.410 19.200 L 9.620 19.200 10.960 17.860 L 12.300 16.521 12.840 16.617 C 13.613 16.755,14.311 16.815,14.780 16.783 C 15.973 16.701,17.386 16.215,18.417 15.532 C 18.848 15.246,19.703 14.431,20.129 13.899 C 20.914 12.920,21.481 11.359,21.581 9.900 C 21.614 9.417,21.526 8.572,21.380 7.968 C 20.956 6.216,19.855 4.633,18.392 3.669 C 17.378 3.001,16.283 2.622,14.895 2.460 C 14.303 2.391,14.276 2.391,13.740 2.464 M14.868 4.883 C 15.705 4.976,16.361 5.218,17.048 5.687 C 17.768 6.178,18.338 6.847,18.720 7.650 C 18.978 8.195,19.033 8.422,19.086 9.180 C 19.143 9.979,19.120 10.086,18.826 10.380 C 18.441 10.764,17.918 10.861,17.457 10.633 C 17.127 10.470,17.001 10.230,16.738 9.260 C 16.610 8.790,16.413 8.338,16.240 8.120 C 16.085 7.924,15.704 7.636,15.428 7.505 C 15.312 7.450,14.956 7.333,14.638 7.246 C 13.751 7.000,13.604 6.917,13.408 6.545 C 13.314 6.366,13.301 6.293,13.300 5.975 C 13.300 5.615,13.302 5.606,13.457 5.381 C 13.650 5.102,13.827 4.962,14.073 4.896 C 14.310 4.832,14.397 4.830,14.868 4.883 " fill="#373B4D" stroke="none" fill-rule="evenodd"></path></svg>