<svg width="24" height="24" viewBox="0 0 24 24" fill="none" xmlns="http://www.w3.org/2000/svg"><path d="M11.526 2.579 C 11.348 2.660,11.186 2.800,10.975 3.056 L 10.800 3.268 10.801 3.804 C 10.801 4.386,10.856 5.025,10.923 5.228 C 10.946 5.298,11.079 5.462,11.218 5.592 C 11.700 6.043,12.179 6.078,12.676 5.699 C 13.050 5.414,13.143 5.149,13.185 4.260 C 13.230 3.304,13.079 2.925,12.545 2.651 C 12.288 2.519,11.744 2.481,11.526 2.579 M5.654 5.017 C 5.381 5.144,5.145 5.363,5.034 5.593 C 4.912 5.843,4.910 6.267,5.030 6.501 C 5.206 6.846,5.989 7.653,6.357 7.871 C 6.606 8.018,7.141 8.048,7.410 7.929 C 7.778 7.766,8.080 7.213,8.024 6.804 C 7.978 6.464,7.834 6.250,7.292 5.715 C 6.760 5.190,6.599 5.080,6.213 4.980 C 5.915 4.902,5.897 4.903,5.654 5.017 M17.400 5.061 C 17.323 5.095,17.016 5.370,16.718 5.672 C 16.050 6.347,15.939 6.537,15.969 6.955 C 16.005 7.458,16.316 7.847,16.792 7.985 C 17.056 8.062,17.318 8.022,17.648 7.857 C 17.903 7.729,18.895 6.750,18.983 6.540 C 19.057 6.361,19.058 5.800,18.984 5.623 C 18.912 5.451,18.661 5.173,18.505 5.092 C 18.324 4.999,17.584 4.978,17.400 5.061 M11.072 7.363 C 9.982 7.523,8.557 8.510,7.958 9.520 C 7.764 9.847,7.464 10.545,7.381 10.860 C 7.203 11.539,7.218 12.398,7.421 13.238 C 7.595 13.953,7.772 14.259,8.685 15.420 C 9.270 16.165,9.502 16.496,9.566 16.680 L 9.608 16.800 12.004 16.800 C 14.023 16.800,14.400 16.791,14.400 16.744 C 14.400 16.651,14.842 16.013,15.358 15.360 C 16.144 14.367,16.297 14.113,16.515 13.431 C 16.694 12.869,16.734 12.550,16.707 11.880 C 16.662 10.719,16.395 9.914,15.829 9.229 C 15.538 8.876,14.983 8.341,14.695 8.135 C 14.371 7.904,13.516 7.497,13.240 7.443 C 12.678 7.334,11.556 7.292,11.072 7.363 M3.080 11.022 C 2.616 11.229,2.355 11.859,2.526 12.364 C 2.632 12.678,2.956 12.988,3.275 13.081 C 3.992 13.291,5.156 13.186,5.528 12.879 C 5.731 12.712,5.886 12.396,5.910 12.101 C 5.933 11.808,5.882 11.625,5.696 11.332 C 5.476 10.987,5.459 10.982,4.260 10.970 C 3.388 10.961,3.197 10.970,3.080 11.022 M18.680 11.022 C 18.216 11.229,17.955 11.859,18.126 12.364 C 18.232 12.678,18.556 12.988,18.875 13.081 C 19.592 13.291,20.756 13.186,21.128 12.879 C 21.331 12.712,21.486 12.396,21.510 12.101 C 21.533 11.808,21.482 11.625,21.296 11.332 C 21.076 10.987,21.059 10.982,19.860 10.970 C 18.988 10.961,18.797 10.970,18.680 11.022 M9.614 18.670 C 9.662 19.918,9.742 20.138,10.375 20.783 C 10.830 21.246,11.082 21.394,11.604 21.505 C 12.350 21.663,12.992 21.434,13.662 20.772 C 14.212 20.227,14.342 19.846,14.388 18.650 L 14.413 18.000 12.000 18.000 L 9.587 18.000 9.614 18.670 " fill="#373B4D" stroke="none" fill-rule="evenodd"></path></svg>