<svg width="24" height="24" viewBox="0 0 24 24" fill="none" xmlns="http://www.w3.org/2000/svg"><path d="M11.720 2.517 C 11.448 2.572,11.228 2.729,10.980 3.044 L 10.800 3.273 10.801 3.727 C 10.803 4.449,10.864 5.133,10.940 5.280 C 11.046 5.485,11.346 5.758,11.587 5.868 C 11.999 6.057,12.458 5.946,12.837 5.566 C 13.054 5.348,13.106 5.201,13.160 4.653 C 13.270 3.522,13.154 3.032,12.705 2.731 C 12.432 2.547,12.016 2.457,11.720 2.517 M5.625 5.018 C 5.386 5.135,5.141 5.366,5.030 5.580 C 4.909 5.812,4.910 6.274,5.031 6.522 C 5.133 6.733,5.851 7.507,6.166 7.747 C 6.435 7.952,6.612 8.009,6.979 8.009 C 7.337 8.009,7.501 7.937,7.733 7.679 C 8.100 7.271,8.136 6.730,7.827 6.281 C 7.653 6.028,6.877 5.265,6.670 5.144 C 6.505 5.047,6.066 4.920,5.900 4.922 C 5.856 4.922,5.732 4.965,5.625 5.018 M17.306 5.119 C 17.056 5.279,16.411 5.934,16.170 6.272 C 15.998 6.513,15.980 6.559,15.967 6.805 C 15.939 7.294,16.142 7.669,16.557 7.894 C 16.953 8.110,17.408 8.057,17.833 7.745 C 18.093 7.554,18.894 6.727,18.981 6.559 C 19.068 6.393,19.082 5.896,19.007 5.676 C 18.939 5.478,18.797 5.296,18.594 5.147 C 18.428 5.024,18.407 5.020,17.961 5.007 C 17.504 4.994,17.498 4.995,17.306 5.119 M10.940 7.379 C 10.424 7.493,9.908 7.727,9.323 8.113 C 8.865 8.414,8.223 9.057,7.999 9.440 C 7.776 9.821,7.471 10.509,7.387 10.820 C 7.180 11.592,7.216 12.577,7.487 13.500 C 7.643 14.032,7.887 14.425,8.639 15.360 C 9.222 16.085,9.500 16.477,9.562 16.665 L 9.606 16.800 11.999 16.800 L 14.391 16.800 14.416 16.702 C 14.454 16.552,14.811 16.040,15.341 15.380 C 16.136 14.389,16.279 14.154,16.511 13.460 C 16.693 12.916,16.734 12.574,16.709 11.829 C 16.677 10.884,16.494 10.237,16.056 9.529 C 15.824 9.153,15.017 8.331,14.640 8.087 C 14.260 7.840,13.616 7.530,13.340 7.462 C 12.766 7.319,11.424 7.273,10.940 7.379 M3.373 10.956 C 3.156 10.978,3.048 11.012,2.926 11.096 C 2.636 11.297,2.459 11.651,2.464 12.020 C 2.469 12.512,2.790 12.932,3.273 13.081 C 3.771 13.236,4.641 13.226,5.192 13.060 C 5.569 12.946,5.832 12.625,5.917 12.178 C 5.968 11.907,5.907 11.655,5.722 11.368 C 5.473 10.983,5.437 10.971,4.480 10.947 C 4.029 10.936,3.531 10.940,3.373 10.956 M18.973 10.956 C 18.756 10.978,18.648 11.012,18.526 11.096 C 18.236 11.297,18.059 11.651,18.064 12.020 C 18.069 12.512,18.390 12.932,18.873 13.081 C 19.371 13.236,20.241 13.226,20.792 13.060 C 21.169 12.946,21.432 12.625,21.517 12.178 C 21.568 11.907,21.507 11.655,21.322 11.368 C 21.073 10.983,21.037 10.971,20.080 10.947 C 19.629 10.936,19.131 10.940,18.973 10.956 M9.614 18.670 C 9.663 19.937,9.725 20.119,10.313 20.728 C 10.780 21.211,10.926 21.312,11.338 21.438 C 12.209 21.703,12.929 21.509,13.625 20.821 C 14.222 20.232,14.341 19.895,14.387 18.672 L 14.413 18.000 12.000 18.000 L 9.587 18.000 9.614 18.670 " fill="#373B4D" stroke="none" fill-rule="evenodd"></path></svg>