<svg width="24" height="24" viewBox="0 0 24 24" fill="none" xmlns="http://www.w3.org/2000/svg"><path d="M11.615 2.535 C 11.386 2.610,11.191 2.767,10.974 3.055 L 10.789 3.300 10.816 4.142 C 10.830 4.605,10.860 5.049,10.882 5.130 C 10.976 5.470,11.445 5.892,11.787 5.943 C 12.170 6.001,12.465 5.909,12.776 5.635 C 13.067 5.379,13.124 5.213,13.172 4.478 C 13.244 3.402,13.157 3.060,12.728 2.733 C 12.453 2.523,11.934 2.431,11.615 2.535 M5.616 5.016 C 5.375 5.128,5.155 5.336,5.031 5.571 C 4.960 5.705,4.941 5.806,4.941 6.060 C 4.941 6.502,5.015 6.624,5.696 7.305 C 6.189 7.799,6.288 7.879,6.480 7.944 C 6.779 8.044,7.210 8.043,7.418 7.941 C 7.951 7.679,8.195 6.967,7.932 6.439 C 7.787 6.149,6.900 5.250,6.618 5.108 C 6.439 5.018,6.052 4.919,5.883 4.920 C 5.848 4.921,5.728 4.964,5.616 5.016 M17.560 4.995 C 17.317 5.074,17.153 5.198,16.740 5.616 C 16.252 6.110,16.011 6.433,15.960 6.660 C 15.920 6.837,15.976 7.238,16.065 7.410 C 16.249 7.765,16.671 8.040,17.034 8.040 C 17.278 8.040,17.605 7.924,17.824 7.759 C 18.135 7.526,18.901 6.740,18.983 6.570 C 19.096 6.335,19.087 5.796,18.966 5.550 C 18.871 5.356,18.618 5.115,18.437 5.047 C 18.295 4.993,17.679 4.957,17.560 4.995 M11.160 7.338 C 10.539 7.427,9.983 7.663,9.283 8.133 C 8.913 8.381,8.367 8.901,8.135 9.225 C 7.937 9.502,7.568 10.252,7.441 10.633 C 7.162 11.474,7.192 12.590,7.522 13.620 C 7.670 14.082,8.012 14.610,8.700 15.440 C 9.238 16.089,9.485 16.439,9.567 16.665 L 9.616 16.800 12.004 16.800 L 14.391 16.800 14.418 16.693 C 14.462 16.520,14.754 16.098,15.246 15.500 C 16.063 14.506,16.223 14.258,16.452 13.640 C 16.665 13.067,16.726 12.709,16.725 12.040 C 16.723 10.951,16.503 10.185,15.960 9.380 C 15.742 9.056,15.178 8.481,14.800 8.195 C 14.499 7.968,13.808 7.603,13.460 7.487 C 13.003 7.336,11.745 7.254,11.160 7.338 M3.220 10.956 C 2.879 11.044,2.606 11.330,2.493 11.717 C 2.345 12.227,2.633 12.819,3.140 13.044 C 3.639 13.265,4.910 13.233,5.384 12.988 C 5.846 12.749,6.081 12.017,5.843 11.560 C 5.709 11.302,5.531 11.088,5.386 11.009 C 5.279 10.951,5.118 10.940,4.300 10.933 C 3.772 10.928,3.286 10.939,3.220 10.956 M18.820 10.956 C 18.479 11.044,18.206 11.330,18.093 11.717 C 17.945 12.227,18.233 12.819,18.740 13.044 C 19.239 13.265,20.510 13.233,20.984 12.988 C 21.446 12.749,21.681 12.017,21.443 11.560 C 21.309 11.302,21.131 11.088,20.986 11.009 C 20.879 10.951,20.718 10.940,19.900 10.933 C 19.372 10.928,18.886 10.939,18.820 10.956 M9.614 18.710 C 9.643 19.484,9.706 19.885,9.841 20.174 C 9.948 20.400,10.579 21.058,10.860 21.236 C 11.125 21.404,11.496 21.515,11.895 21.545 C 12.636 21.601,13.327 21.259,13.885 20.560 C 14.261 20.090,14.347 19.769,14.386 18.710 L 14.413 18.000 12.000 18.000 L 9.587 18.000 9.614 18.710 " fill="#373B4D" stroke="none" fill-rule="evenodd"></path></svg>