<svg width="24" height="24" viewBox="0 0 24 24" fill="none" xmlns="http://www.w3.org/2000/svg"><path d="M12.709 1.401 C 12.276 1.690,11.455 2.783,8.515 6.980 C 5.866 10.761,4.025 13.478,3.796 13.942 C 3.549 14.444,3.622 14.749,4.123 15.292 L 4.407 15.600 7.003 15.600 L 9.600 15.600 9.600 18.796 L 9.600 21.992 9.922 22.295 C 10.269 22.621,10.480 22.720,10.829 22.720 C 11.311 22.720,11.620 22.423,12.704 20.919 C 14.276 18.739,18.267 13.039,19.898 10.646 L 20.371 9.952 20.348 9.686 C 20.312 9.278,20.216 9.050,19.980 8.815 C 19.809 8.644,19.737 8.601,19.557 8.564 C 19.266 8.505,17.646 8.441,16.456 8.440 C 15.926 8.440,15.249 8.428,14.951 8.414 L 14.410 8.388 14.388 5.464 C 14.375 3.856,14.347 2.396,14.324 2.220 C 14.285 1.910,14.278 1.895,14.098 1.730 C 13.838 1.492,13.439 1.308,13.140 1.289 C 12.924 1.275,12.881 1.286,12.709 1.401 " fill="#373B4D" stroke="none" fill-rule="evenodd"></path></svg>