<svg width="24" height="24" viewBox="0 0 24 24" fill="none" xmlns="http://www.w3.org/2000/svg"><path d="M12.739 1.332 C 12.395 1.496,12.316 1.598,10.153 4.661 C 6.558 9.752,3.968 13.507,3.746 13.947 C 3.600 14.237,3.577 14.430,3.658 14.687 C 3.753 14.988,3.964 15.258,4.248 15.442 L 4.492 15.600 7.046 15.600 L 9.600 15.600 9.600 18.763 L 9.600 21.926 9.723 22.105 C 10.029 22.549,10.369 22.759,10.784 22.760 C 11.233 22.760,11.449 22.629,11.856 22.106 C 12.539 21.227,17.737 13.814,19.783 10.800 L 20.340 9.980 20.340 9.597 C 20.340 9.242,20.332 9.201,20.225 9.040 C 20.085 8.829,19.916 8.670,19.693 8.538 C 19.530 8.443,19.505 8.440,18.709 8.440 C 18.260 8.440,17.107 8.428,16.147 8.413 L 14.400 8.387 14.400 5.266 L 14.400 2.145 14.312 1.964 C 14.115 1.556,13.722 1.308,13.192 1.259 C 12.978 1.239,12.910 1.250,12.739 1.332 " fill="#373B4D" stroke="none" fill-rule="evenodd"></path></svg>