<svg width="24" height="24" viewBox="0 0 24 24" fill="none" xmlns="http://www.w3.org/2000/svg"><path d="M11.740 2.481 C 11.652 2.494,11.520 2.537,11.446 2.576 C 11.257 2.675,10.982 2.961,10.877 3.166 C 10.791 3.335,10.789 3.366,10.813 4.180 C 10.827 4.642,10.857 5.085,10.880 5.164 C 10.942 5.385,11.135 5.623,11.386 5.790 C 11.592 5.926,11.642 5.941,11.929 5.954 C 12.159 5.965,12.294 5.950,12.424 5.901 C 12.626 5.824,12.955 5.522,13.061 5.318 C 13.152 5.143,13.215 4.304,13.185 3.686 C 13.166 3.296,13.148 3.207,13.062 3.059 C 12.808 2.626,12.286 2.397,11.740 2.481 M5.573 5.014 C 5.297 5.146,5.061 5.397,4.979 5.643 C 4.884 5.929,4.896 6.325,5.006 6.554 C 5.122 6.795,6.112 7.795,6.360 7.922 C 6.603 8.045,7.073 8.075,7.347 7.984 C 7.941 7.787,8.247 6.968,7.941 6.400 C 7.784 6.110,6.848 5.166,6.600 5.048 C 6.487 4.995,6.301 4.954,6.100 4.939 C 5.814 4.918,5.758 4.926,5.573 5.014 M17.598 4.955 C 17.520 4.971,17.367 5.046,17.258 5.120 C 16.987 5.305,16.367 5.934,16.173 6.223 C 15.896 6.633,15.866 6.817,16.003 7.262 C 16.111 7.609,16.397 7.916,16.690 7.997 C 16.988 8.081,17.429 8.037,17.660 7.902 C 17.884 7.771,18.643 7.047,18.883 6.736 C 19.039 6.533,19.054 6.494,19.071 6.222 C 19.103 5.720,19.067 5.593,18.807 5.313 C 18.682 5.178,18.526 5.045,18.460 5.018 C 18.307 4.954,17.784 4.916,17.598 4.955 M11.180 7.316 C 10.812 7.355,10.505 7.449,10.053 7.660 C 9.311 8.007,8.728 8.460,8.236 9.071 C 7.986 9.382,7.590 10.138,7.443 10.586 C 7.243 11.194,7.188 12.001,7.299 12.720 C 7.468 13.824,7.798 14.455,8.741 15.480 C 9.219 16.000,9.493 16.381,9.559 16.618 L 9.610 16.800 11.999 16.800 L 14.387 16.800 14.437 16.630 C 14.511 16.373,14.705 16.104,15.284 15.452 C 15.894 14.766,16.058 14.536,16.301 14.029 C 16.642 13.316,16.786 12.595,16.748 11.780 C 16.685 10.412,16.152 9.326,15.080 8.383 C 14.610 7.969,13.825 7.555,13.176 7.378 C 12.908 7.305,11.652 7.266,11.180 7.316 M3.132 10.939 C 2.952 11.017,2.649 11.307,2.547 11.498 C 2.413 11.751,2.425 12.226,2.573 12.529 C 2.717 12.824,2.936 13.010,3.252 13.105 C 3.592 13.207,4.825 13.209,5.161 13.109 C 5.773 12.926,6.113 12.203,5.878 11.582 C 5.770 11.295,5.474 10.984,5.249 10.922 C 5.014 10.857,3.289 10.870,3.132 10.939 M18.732 10.939 C 18.552 11.017,18.249 11.307,18.147 11.498 C 18.013 11.751,18.025 12.226,18.173 12.529 C 18.317 12.824,18.536 13.010,18.852 13.105 C 19.192 13.207,20.425 13.209,20.761 13.109 C 21.373 12.926,21.713 12.203,21.478 11.582 C 21.370 11.295,21.074 10.984,20.849 10.922 C 20.614 10.857,18.889 10.870,18.732 10.939 M9.612 18.790 C 9.649 19.979,9.735 20.216,10.359 20.844 C 10.794 21.281,10.996 21.396,11.520 21.502 C 12.106 21.621,12.762 21.517,13.206 21.235 C 13.481 21.060,14.009 20.492,14.132 20.238 C 14.323 19.844,14.367 19.595,14.389 18.770 L 14.410 18.000 11.999 18.000 L 9.588 18.000 9.612 18.790 " fill="#373B4D" stroke="none" fill-rule="evenodd"></path></svg>