<svg width="24" height="24" viewBox="0 0 24 24" fill="none" xmlns="http://www.w3.org/2000/svg"><path d="M12.848 1.320 C 12.464 1.494,12.096 1.935,10.693 3.900 C 7.587 8.251,4.022 13.437,3.763 13.980 C 3.529 14.469,3.632 14.832,4.141 15.316 L 4.440 15.600 7.020 15.600 L 9.600 15.600 9.600 18.770 L 9.600 21.941 9.770 22.147 C 10.124 22.577,10.451 22.741,10.899 22.713 C 11.378 22.682,11.573 22.491,12.646 21.007 C 14.105 18.989,17.844 13.644,19.978 10.527 L 20.370 9.954 20.352 9.644 C 20.321 9.108,20.020 8.665,19.618 8.563 C 19.353 8.497,18.233 8.443,17.080 8.441 C 16.563 8.440,15.748 8.428,15.270 8.414 L 14.400 8.387 14.396 6.164 C 14.391 3.145,14.358 2.059,14.269 1.892 C 14.166 1.701,13.791 1.453,13.431 1.339 C 13.055 1.221,13.065 1.221,12.848 1.320 " fill="#373B4D" stroke="none" fill-rule="evenodd"></path></svg>