<svg width="24" height="24" viewBox="0 0 24 24" fill="none" xmlns="http://www.w3.org/2000/svg"><path d="M12.846 1.319 C 12.385 1.532,11.782 2.321,8.473 7.040 C 6.011 10.551,4.021 13.482,3.797 13.926 C 3.537 14.440,3.613 14.761,4.121 15.295 L 4.410 15.600 7.005 15.600 L 9.600 15.600 9.600 18.785 L 9.600 21.970 9.911 22.281 C 10.167 22.537,10.260 22.603,10.438 22.656 C 11.071 22.844,11.403 22.660,12.112 21.727 C 12.969 20.601,17.675 13.902,19.938 10.586 L 20.371 9.952 20.348 9.647 C 20.304 9.061,19.963 8.611,19.513 8.544 C 19.176 8.495,17.766 8.441,16.780 8.440 C 16.230 8.440,15.470 8.428,15.090 8.414 L 14.400 8.387 14.399 6.064 C 14.397 3.449,14.355 2.122,14.267 1.910 C 14.171 1.681,13.579 1.335,13.157 1.263 C 13.063 1.246,12.965 1.264,12.846 1.319 " fill="#373B4D" stroke="none" fill-rule="evenodd"></path></svg>