<svg width="24" height="24" viewBox="0 0 24 24" fill="none" xmlns="http://www.w3.org/2000/svg"><path d="M11.560 2.565 C 11.472 2.592,11.307 2.723,11.110 2.922 L 10.800 3.237 10.800 3.774 C 10.800 4.352,10.859 5.061,10.922 5.224 C 10.984 5.387,11.380 5.754,11.609 5.861 C 11.990 6.038,12.385 5.954,12.758 5.617 C 13.055 5.349,13.144 5.071,13.186 4.284 C 13.214 3.768,13.163 3.361,13.040 3.120 C 12.946 2.936,12.717 2.732,12.494 2.633 C 12.290 2.543,11.759 2.504,11.560 2.565 M5.658 5.019 C 5.185 5.255,4.950 5.600,4.950 6.058 C 4.950 6.390,5.041 6.576,5.406 6.999 C 5.809 7.465,6.293 7.868,6.537 7.941 C 6.773 8.011,7.113 8.017,7.323 7.954 C 7.697 7.842,8.021 7.352,8.019 6.901 C 8.018 6.527,7.902 6.341,7.300 5.740 C 6.764 5.204,6.587 5.083,6.187 4.976 C 5.911 4.902,5.887 4.904,5.658 5.019 M17.532 5.026 C 17.369 5.050,16.836 5.511,16.417 5.990 C 16.010 6.456,15.981 6.516,15.984 6.880 C 15.986 7.237,16.051 7.407,16.279 7.654 C 16.603 8.006,17.025 8.100,17.485 7.924 C 17.855 7.783,18.923 6.762,19.006 6.471 C 19.047 6.327,19.043 5.834,19.000 5.680 C 18.950 5.502,18.682 5.189,18.510 5.107 C 18.373 5.043,17.767 4.992,17.532 5.026 M11.133 7.361 C 10.357 7.459,9.396 7.974,8.653 8.692 C 8.185 9.143,7.922 9.526,7.657 10.138 C 7.415 10.696,7.342 10.953,7.279 11.460 C 7.204 12.073,7.326 13.041,7.562 13.693 C 7.714 14.113,7.918 14.426,8.714 15.460 C 9.070 15.922,9.419 16.413,9.490 16.551 L 9.620 16.801 11.997 16.791 C 13.746 16.783,14.377 16.768,14.389 16.734 C 14.416 16.651,14.846 16.027,15.115 15.680 C 16.149 14.344,16.331 14.047,16.535 13.360 C 16.725 12.723,16.761 12.228,16.676 11.432 C 16.585 10.586,16.335 9.893,15.929 9.360 C 15.606 8.936,14.820 8.205,14.458 7.993 C 13.930 7.684,13.418 7.476,13.040 7.419 C 12.585 7.350,11.489 7.317,11.133 7.361 M3.189 10.998 C 2.685 11.096,2.323 11.893,2.549 12.405 C 2.712 12.773,3.021 13.023,3.440 13.125 C 3.764 13.204,4.592 13.194,4.969 13.106 C 5.394 13.008,5.623 12.848,5.779 12.543 C 5.882 12.341,5.900 12.261,5.900 12.003 C 5.900 11.731,5.886 11.674,5.758 11.443 C 5.551 11.069,5.485 11.031,4.970 10.995 C 4.432 10.958,3.390 10.960,3.189 10.998 M18.789 10.998 C 18.285 11.096,17.923 11.893,18.149 12.405 C 18.312 12.773,18.621 13.023,19.040 13.125 C 19.364 13.204,20.192 13.194,20.569 13.106 C 20.994 13.008,21.223 12.848,21.379 12.543 C 21.482 12.341,21.500 12.261,21.500 12.003 C 21.500 11.731,21.486 11.674,21.358 11.443 C 21.151 11.069,21.085 11.031,20.570 10.995 C 20.032 10.958,18.990 10.960,18.789 10.998 M9.600 18.370 C 9.601 18.923,9.670 19.601,9.754 19.870 C 9.853 20.188,10.025 20.431,10.447 20.847 C 10.849 21.244,11.132 21.405,11.600 21.504 C 12.352 21.663,13.031 21.408,13.704 20.713 C 14.143 20.260,14.287 19.915,14.359 19.140 C 14.382 18.898,14.400 18.543,14.400 18.350 L 14.400 18.000 12.000 18.000 L 9.600 18.000 9.600 18.370 " fill="#373B4D" stroke="none" fill-rule="evenodd"></path></svg>