<svg width="24" height="24" viewBox="0 0 24 24" fill="none" xmlns="http://www.w3.org/2000/svg"><path d="M11.393 2.667 C 11.320 2.726,11.157 2.874,11.030 2.996 L 10.800 3.217 10.800 3.765 C 10.800 4.341,10.859 5.059,10.919 5.218 C 10.973 5.358,11.389 5.748,11.590 5.845 C 11.995 6.041,12.417 5.948,12.782 5.584 C 13.040 5.325,13.112 5.124,13.170 4.491 C 13.254 3.589,13.127 3.085,12.744 2.795 C 12.493 2.606,12.327 2.560,11.888 2.560 C 11.556 2.560,11.515 2.569,11.393 2.667 M5.638 5.038 C 5.039 5.348,4.798 5.953,5.055 6.500 C 5.235 6.883,6.028 7.687,6.440 7.903 C 6.632 8.004,7.245 8.010,7.422 7.913 C 7.935 7.632,8.164 6.933,7.902 6.450 C 7.765 6.200,6.814 5.249,6.580 5.130 C 6.403 5.040,6.021 4.919,5.923 4.922 C 5.888 4.923,5.760 4.975,5.638 5.038 M17.260 5.183 C 17.018 5.360,16.301 6.087,16.143 6.315 C 16.000 6.522,15.955 6.761,16.000 7.079 C 16.103 7.807,16.882 8.213,17.544 7.882 C 17.959 7.674,18.781 6.891,18.967 6.526 C 19.058 6.348,19.066 5.860,18.982 5.659 C 18.897 5.456,18.732 5.254,18.567 5.152 C 18.443 5.076,18.356 5.061,17.942 5.050 L 17.460 5.037 17.260 5.183 M10.760 7.440 C 10.074 7.624,9.228 8.137,8.617 8.740 C 8.119 9.231,7.839 9.667,7.547 10.405 C 7.204 11.271,7.168 12.191,7.438 13.258 C 7.615 13.961,7.738 14.170,8.793 15.571 C 9.102 15.981,9.415 16.426,9.488 16.558 L 9.620 16.799 11.480 16.799 C 12.503 16.800,13.571 16.788,13.853 16.774 L 14.366 16.747 14.571 16.444 C 14.683 16.277,15.039 15.788,15.361 15.357 C 16.100 14.370,16.319 14.014,16.474 13.547 C 16.769 12.655,16.796 11.778,16.558 10.766 C 16.369 9.960,16.079 9.465,15.406 8.799 C 14.838 8.237,14.546 8.025,13.955 7.744 C 13.275 7.421,13.141 7.395,12.020 7.376 C 11.152 7.361,11.031 7.367,10.760 7.440 M3.300 10.996 C 2.931 11.042,2.681 11.278,2.537 11.718 C 2.409 12.110,2.535 12.556,2.849 12.822 C 3.193 13.113,3.749 13.229,4.491 13.164 C 5.024 13.118,5.322 13.024,5.541 12.831 C 5.795 12.607,5.898 12.368,5.898 12.000 C 5.899 11.731,5.884 11.673,5.756 11.440 C 5.558 11.081,5.477 11.041,4.850 10.998 C 4.283 10.959,3.605 10.958,3.300 10.996 M18.900 10.996 C 18.531 11.042,18.281 11.278,18.137 11.718 C 18.009 12.110,18.135 12.556,18.449 12.822 C 18.793 13.113,19.349 13.229,20.091 13.164 C 20.624 13.118,20.922 13.024,21.141 12.831 C 21.395 12.607,21.498 12.368,21.498 12.000 C 21.499 11.731,21.484 11.673,21.356 11.440 C 21.158 11.081,21.077 11.041,20.450 10.998 C 19.883 10.959,19.205 10.958,18.900 10.996 M9.614 18.650 C 9.645 19.424,9.712 19.828,9.859 20.118 C 9.985 20.367,10.641 21.061,10.915 21.236 C 11.214 21.427,11.610 21.537,12.000 21.538 C 12.614 21.540,13.074 21.321,13.639 20.760 C 14.010 20.391,14.160 20.153,14.254 19.780 C 14.336 19.456,14.400 18.846,14.400 18.382 L 14.400 18.000 11.994 18.000 L 9.588 18.000 9.614 18.650 " fill="#373B4D" stroke="none" fill-rule="evenodd"></path></svg>