<svg width="24" height="24" viewBox="0 0 24 24" fill="none" xmlns="http://www.w3.org/2000/svg"><path d="M11.760 2.436 C 11.399 2.511,11.091 2.748,10.933 3.071 L 10.820 3.300 10.820 4.200 C 10.820 5.227,10.844 5.329,11.158 5.634 C 11.419 5.887,11.646 5.980,12.000 5.980 C 12.354 5.980,12.581 5.887,12.842 5.634 C 13.156 5.329,13.180 5.227,13.180 4.200 L 13.180 3.300 13.068 3.072 C 13.006 2.946,12.898 2.795,12.828 2.735 C 12.550 2.500,12.082 2.369,11.760 2.436 M5.744 4.922 C 5.403 5.007,5.053 5.340,4.937 5.689 C 4.852 5.945,4.881 6.335,5.005 6.591 C 5.131 6.851,6.121 7.839,6.380 7.964 C 6.648 8.093,7.177 8.101,7.420 7.981 C 8.019 7.685,8.250 6.983,7.952 6.362 C 7.837 6.121,6.846 5.131,6.600 5.012 C 6.390 4.910,5.970 4.866,5.744 4.922 M17.607 4.917 C 17.383 4.974,17.062 5.227,16.585 5.721 C 15.999 6.329,15.856 6.626,15.924 7.086 C 15.980 7.458,16.240 7.813,16.580 7.981 C 16.825 8.102,17.353 8.093,17.620 7.963 C 17.867 7.842,18.813 6.910,18.983 6.620 C 19.090 6.438,19.100 6.388,19.097 6.060 C 19.095 5.776,19.077 5.666,19.011 5.538 C 18.909 5.343,18.606 5.055,18.420 4.977 C 18.251 4.907,17.784 4.872,17.607 4.917 M11.040 7.302 C 9.782 7.586,8.741 8.288,8.035 9.327 C 7.804 9.668,7.503 10.316,7.383 10.733 C 7.112 11.672,7.181 12.829,7.564 13.778 C 7.851 14.489,8.244 15.040,8.895 15.649 C 9.320 16.046,9.524 16.344,9.581 16.650 L 9.609 16.800 12.000 16.800 L 14.391 16.800 14.419 16.650 C 14.476 16.342,14.671 16.065,15.176 15.573 C 15.751 15.014,16.010 14.665,16.303 14.060 C 16.700 13.240,16.841 12.464,16.760 11.546 C 16.643 10.201,15.858 8.854,14.748 8.087 C 14.339 7.805,13.708 7.508,13.240 7.377 C 12.900 7.282,12.778 7.269,12.080 7.257 C 11.497 7.247,11.234 7.258,11.040 7.302 M3.440 10.835 C 2.463 10.962,2.075 12.178,2.795 12.852 C 3.112 13.148,3.251 13.180,4.200 13.179 C 4.751 13.178,5.078 13.161,5.196 13.126 C 5.411 13.062,5.764 12.740,5.879 12.503 C 5.993 12.266,5.993 11.734,5.879 11.497 C 5.768 11.268,5.411 10.938,5.216 10.884 C 5.024 10.831,3.742 10.795,3.440 10.835 M19.040 10.835 C 18.063 10.962,17.675 12.178,18.395 12.852 C 18.712 13.148,18.851 13.180,19.800 13.179 C 20.351 13.178,20.678 13.161,20.796 13.126 C 21.011 13.062,21.364 12.740,21.479 12.503 C 21.593 12.266,21.593 11.734,21.479 11.497 C 21.368 11.268,21.011 10.938,20.816 10.884 C 20.624 10.831,19.342 10.795,19.040 10.835 M9.609 18.830 C 9.628 19.589,9.638 19.685,9.732 19.955 C 9.978 20.657,10.574 21.246,11.260 21.463 C 11.907 21.669,12.754 21.569,13.260 21.227 C 13.730 20.908,14.111 20.422,14.281 19.920 C 14.357 19.696,14.373 19.546,14.390 18.830 L 14.411 18.000 12.000 18.000 L 9.589 18.000 9.609 18.830 " fill="#373B4D" stroke="none" fill-rule="evenodd"></path></svg>