<svg width="24" height="24" viewBox="0 0 24 24" fill="none" xmlns="http://www.w3.org/2000/svg"><path d="M11.590 2.534 C 11.374 2.615,11.183 2.773,10.989 3.030 L 10.820 3.254 10.823 4.077 C 10.827 5.165,10.850 5.258,11.196 5.602 C 11.491 5.895,11.643 5.960,12.027 5.960 C 12.339 5.960,12.614 5.823,12.874 5.539 C 13.132 5.257,13.177 5.036,13.179 4.060 C 13.180 3.353,13.178 3.336,13.069 3.114 C 12.953 2.878,12.819 2.752,12.523 2.602 C 12.299 2.487,11.810 2.452,11.590 2.534 M5.700 4.969 C 5.346 5.095,5.041 5.423,4.959 5.765 C 4.877 6.105,4.927 6.412,5.107 6.672 C 5.300 6.953,5.998 7.661,6.253 7.836 C 6.467 7.982,6.869 8.060,7.175 8.015 C 7.655 7.944,8.040 7.463,8.048 6.925 C 8.053 6.538,7.924 6.318,7.340 5.723 C 6.785 5.158,6.586 5.025,6.199 4.963 C 5.892 4.913,5.857 4.913,5.700 4.969 M17.510 4.997 C 17.450 5.017,17.312 5.098,17.203 5.178 C 16.916 5.388,16.242 6.112,16.080 6.383 C 15.955 6.592,15.940 6.647,15.943 6.889 C 15.949 7.416,16.290 7.873,16.774 8.004 C 17.014 8.069,17.368 8.025,17.627 7.899 C 17.894 7.768,18.858 6.829,18.981 6.580 C 19.098 6.344,19.092 5.764,18.972 5.536 C 18.876 5.356,18.670 5.158,18.470 5.055 C 18.322 4.978,17.687 4.940,17.510 4.997 M11.240 7.325 C 10.809 7.369,10.476 7.470,10.011 7.697 C 9.221 8.082,8.504 8.673,8.092 9.280 C 7.893 9.574,7.537 10.316,7.425 10.670 C 7.272 11.158,7.214 11.806,7.271 12.412 C 7.322 12.950,7.461 13.545,7.621 13.905 C 7.778 14.262,8.188 14.846,8.682 15.420 C 9.218 16.042,9.505 16.439,9.567 16.647 L 9.613 16.800 12.000 16.800 L 14.387 16.800 14.433 16.647 C 14.494 16.444,14.767 16.063,15.358 15.360 C 16.075 14.506,16.267 14.197,16.502 13.512 C 16.679 12.995,16.738 12.617,16.737 12.000 C 16.734 10.927,16.462 10.057,15.877 9.252 C 15.626 8.907,15.019 8.325,14.658 8.084 C 14.238 7.803,13.597 7.497,13.271 7.421 C 13.052 7.370,11.837 7.269,11.640 7.286 C 11.607 7.288,11.427 7.306,11.240 7.325 M3.540 10.916 C 3.102 10.942,2.941 11.009,2.740 11.248 C 2.412 11.637,2.365 12.091,2.604 12.565 C 2.700 12.758,2.998 13.015,3.190 13.072 C 3.708 13.228,4.682 13.231,5.174 13.079 C 5.491 12.981,5.684 12.809,5.828 12.494 C 5.969 12.186,5.987 11.911,5.885 11.640 C 5.782 11.368,5.485 11.020,5.309 10.966 C 5.144 10.916,4.060 10.885,3.540 10.916 M19.140 10.916 C 18.702 10.942,18.541 11.009,18.340 11.248 C 18.012 11.637,17.965 12.091,18.204 12.565 C 18.300 12.758,18.598 13.015,18.790 13.072 C 19.308 13.228,20.282 13.231,20.774 13.079 C 21.091 12.981,21.284 12.809,21.428 12.494 C 21.569 12.186,21.587 11.911,21.485 11.640 C 21.382 11.368,21.085 11.020,20.909 10.966 C 20.744 10.916,19.660 10.885,19.140 10.916 M9.613 18.730 C 9.641 19.504,9.703 19.894,9.846 20.195 C 9.899 20.307,10.100 20.547,10.357 20.804 C 10.830 21.278,11.024 21.392,11.528 21.496 C 12.445 21.685,13.214 21.393,13.847 20.614 C 14.272 20.092,14.351 19.816,14.387 18.730 L 14.412 18.000 12.000 18.000 L 9.587 18.000 9.613 18.730 " fill="#373B4D" stroke="none" fill-rule="evenodd"></path></svg>