<svg width="24" height="24" viewBox="0 0 24 24" fill="none" xmlns="http://www.w3.org/2000/svg"><path d="M4.701 3.042 C 3.911 3.177,3.264 3.747,3.073 4.477 C 2.808 5.494,3.348 6.494,4.352 6.845 C 4.868 7.026,5.761 6.969,6.260 6.723 C 7.234 6.243,7.611 5.094,7.125 4.081 C 6.908 3.630,6.291 3.167,5.792 3.082 C 5.455 3.025,4.917 3.005,4.701 3.042 M15.820 8.322 C 15.296 8.403,14.734 8.627,14.252 8.947 C 13.989 9.121,13.428 9.661,13.251 9.909 L 13.131 10.077 13.106 9.869 C 13.092 9.754,13.081 9.401,13.080 9.084 L 13.080 8.508 11.177 8.530 C 10.131 8.542,9.269 8.558,9.262 8.566 C 9.256 8.574,9.241 11.149,9.231 14.290 L 9.211 20.000 11.146 20.000 L 13.080 20.000 13.083 16.990 C 13.084 15.335,13.099 13.727,13.115 13.418 C 13.143 12.908,13.157 12.831,13.267 12.598 C 13.633 11.823,14.239 11.365,14.992 11.295 C 15.495 11.249,16.097 11.416,16.427 11.694 C 16.602 11.843,16.823 12.187,16.948 12.509 C 17.053 12.777,17.054 12.795,17.083 14.180 C 17.099 14.950,17.114 16.575,17.116 17.790 L 17.120 20.000 19.063 20.000 L 21.006 20.000 20.990 16.230 C 20.972 12.132,20.976 12.200,20.739 11.379 C 20.537 10.677,20.277 10.168,19.885 9.707 C 19.317 9.037,18.539 8.570,17.680 8.381 C 17.325 8.303,16.176 8.266,15.820 8.322 M3.240 14.260 L 3.240 20.000 5.160 20.000 L 7.080 20.000 7.080 14.260 L 7.080 8.520 5.160 8.520 L 3.240 8.520 3.240 14.260 " fill="#373B4D" stroke="none" fill-rule="evenodd"></path></svg>