<svg width="24" height="24" viewBox="0 0 24 24" fill="none" xmlns="http://www.w3.org/2000/svg"><path d="M4.780 3.025 C 4.300 3.100,3.906 3.290,3.576 3.607 C 2.647 4.499,2.878 6.105,4.021 6.706 C 4.402 6.907,4.762 6.975,5.291 6.948 C 5.981 6.913,6.425 6.730,6.814 6.323 C 7.318 5.795,7.470 5.090,7.240 4.350 C 7.056 3.759,6.569 3.298,5.920 3.103 C 5.701 3.037,5.009 2.990,4.780 3.025 M16.159 8.285 C 15.453 8.331,14.808 8.556,14.222 8.961 C 13.903 9.182,13.399 9.683,13.213 9.964 L 13.100 10.134 13.089 9.327 L 13.078 8.519 11.161 8.530 L 9.244 8.540 9.232 14.270 L 9.220 20.000 11.150 20.000 L 13.080 20.000 13.080 16.650 C 13.080 14.519,13.096 13.205,13.122 13.040 C 13.219 12.436,13.741 11.736,14.284 11.482 C 14.726 11.275,15.226 11.226,15.717 11.342 C 16.380 11.498,16.791 11.936,17.027 12.740 C 17.092 12.960,17.099 13.277,17.110 16.490 L 17.123 20.000 19.061 20.000 L 21.000 20.000 21.000 16.464 C 21.000 12.757,20.987 12.417,20.821 11.671 C 20.579 10.589,20.094 9.771,19.331 9.158 C 18.492 8.484,17.461 8.200,16.159 8.285 M3.240 14.260 L 3.240 20.000 5.160 20.000 L 7.080 20.000 7.080 14.260 L 7.080 8.520 5.160 8.520 L 3.240 8.520 3.240 14.260 " fill="#373B4D" stroke="none" fill-rule="evenodd"></path></svg>