<svg width="24" height="24" viewBox="0 0 24 24" fill="none" xmlns="http://www.w3.org/2000/svg"><path d="M15.940 2.539 C 15.417 2.637,14.652 2.962,14.131 3.308 C 13.861 3.487,12.313 4.962,11.730 5.595 L 11.320 6.040 11.320 6.381 C 11.320 6.797,11.378 6.953,11.632 7.213 C 11.870 7.458,12.074 7.563,12.361 7.589 C 12.812 7.630,13.009 7.505,14.200 6.417 C 15.226 5.479,15.547 5.222,15.900 5.054 C 16.245 4.891,16.609 4.849,17.082 4.918 C 17.514 4.981,17.777 5.082,18.140 5.325 C 18.487 5.557,18.717 5.828,18.912 6.234 C 19.044 6.510,19.054 6.557,19.072 7.029 C 19.108 7.974,19.025 8.176,18.253 9.020 C 17.651 9.677,14.927 12.359,14.573 12.642 C 14.091 13.027,13.742 13.157,13.187 13.159 C 12.692 13.161,12.392 13.045,11.451 12.489 L 11.082 12.271 10.651 12.288 C 10.310 12.301,10.186 12.322,10.056 12.390 C 9.874 12.485,9.657 12.712,9.593 12.874 C 9.521 13.057,9.536 13.679,9.617 13.849 C 9.766 14.162,10.562 14.804,11.180 15.110 C 12.305 15.667,13.697 15.700,14.990 15.202 C 15.407 15.041,15.797 14.785,16.337 14.319 C 17.255 13.526,20.275 10.479,20.658 9.958 C 20.864 9.678,21.236 8.961,21.353 8.614 C 21.465 8.287,21.516 7.958,21.545 7.380 C 21.590 6.506,21.460 5.917,21.034 5.062 C 20.783 4.558,20.520 4.204,20.116 3.823 C 19.541 3.282,18.624 2.759,18.020 2.626 C 17.371 2.483,16.448 2.445,15.940 2.539 M9.859 8.559 C 9.395 8.625,8.671 8.932,8.162 9.279 C 7.668 9.615,6.105 11.093,4.723 12.530 C 3.223 14.090,2.825 14.661,2.605 15.560 C 2.356 16.579,2.417 17.517,2.800 18.569 C 3.165 19.572,4.284 20.721,5.320 21.159 C 5.969 21.433,6.885 21.593,7.516 21.543 C 8.450 21.469,9.394 21.099,10.121 20.524 C 10.433 20.276,12.214 18.491,12.513 18.126 C 12.659 17.949,12.660 17.944,12.659 17.582 C 12.658 17.259,12.645 17.196,12.549 17.032 C 12.375 16.734,12.045 16.509,11.682 16.440 C 11.268 16.362,11.030 16.507,9.898 17.526 C 8.462 18.819,8.340 18.911,7.862 19.066 C 7.311 19.244,6.738 19.191,6.180 18.911 C 5.744 18.693,5.356 18.278,5.071 17.727 L 4.912 17.421 4.927 16.760 L 4.941 16.100 5.091 15.820 C 5.332 15.369,5.847 14.792,7.399 13.237 C 9.395 11.237,9.707 11.003,10.491 10.911 C 11.090 10.841,11.383 10.899,11.980 11.209 C 12.951 11.713,13.090 11.774,13.307 11.792 C 13.479 11.806,13.561 11.789,13.736 11.704 C 14.005 11.572,14.266 11.317,14.375 11.080 C 14.487 10.837,14.489 10.403,14.380 10.180 C 14.213 9.840,13.550 9.298,12.875 8.951 C 12.475 8.745,12.207 8.656,11.820 8.600 C 11.432 8.544,10.151 8.517,9.859 8.559 " fill="#373B4D" stroke="none" fill-rule="evenodd"></path></svg>