<svg width="24" height="24" viewBox="0 0 24 24" fill="none" xmlns="http://www.w3.org/2000/svg"><path d="M4.660 3.078 C 4.396 3.123,4.197 3.211,3.870 3.427 C 3.545 3.642,3.366 3.853,3.193 4.222 C 2.969 4.700,2.988 5.387,3.240 5.881 C 3.350 6.095,3.652 6.414,3.907 6.583 C 4.569 7.022,5.530 7.058,6.294 6.673 C 7.052 6.290,7.471 5.361,7.258 4.538 C 7.160 4.161,7.044 3.959,6.763 3.679 C 6.473 3.391,6.131 3.192,5.813 3.125 C 5.519 3.064,4.896 3.039,4.660 3.078 M15.420 8.436 C 14.713 8.643,14.215 8.955,13.510 9.635 C 13.317 9.820,13.151 9.965,13.142 9.955 C 13.133 9.946,13.112 9.617,13.096 9.223 L 13.068 8.509 11.624 8.535 C 10.830 8.550,9.980 8.572,9.735 8.586 L 9.290 8.610 9.266 8.835 C 9.252 8.959,9.229 11.522,9.214 14.530 L 9.187 20.000 11.133 20.000 L 13.080 20.000 13.080 18.730 C 13.080 17.054,13.154 13.420,13.196 13.039 C 13.246 12.587,13.385 12.326,13.796 11.919 C 14.178 11.540,14.382 11.435,14.887 11.356 C 15.897 11.200,16.758 11.764,16.956 12.712 C 17.013 12.985,17.069 14.904,17.105 17.750 L 17.133 20.000 19.066 20.000 L 21.000 20.000 20.999 17.470 C 20.999 14.810,20.946 12.394,20.880 11.984 C 20.828 11.653,20.587 10.930,20.400 10.540 C 19.990 9.683,19.071 8.860,18.182 8.554 C 17.761 8.409,17.305 8.360,16.400 8.363 C 15.818 8.365,15.609 8.381,15.420 8.436 M3.240 14.260 L 3.240 20.000 5.160 20.000 L 7.080 20.000 7.080 14.260 L 7.080 8.520 5.160 8.520 L 3.240 8.520 3.240 14.260 " fill="#373B4D" stroke="none" fill-rule="evenodd"></path></svg>