<svg width="24" height="24" viewBox="0 0 24 24" fill="none" xmlns="http://www.w3.org/2000/svg"><path d="M16.133 2.482 C 15.453 2.571,14.543 2.944,13.980 3.366 C 13.632 3.626,11.572 5.676,11.415 5.917 C 11.311 6.077,11.300 6.127,11.300 6.437 C 11.301 6.838,11.375 7.016,11.649 7.279 C 11.908 7.528,12.128 7.620,12.460 7.618 C 12.925 7.615,12.930 7.611,14.819 5.835 C 15.624 5.077,15.889 4.933,16.604 4.859 C 17.165 4.801,17.747 4.982,18.265 5.374 C 18.868 5.830,19.133 6.398,19.135 7.240 C 19.136 7.794,19.039 8.115,18.754 8.500 C 18.486 8.863,14.867 12.481,14.500 12.753 C 14.046 13.090,13.396 13.254,12.881 13.160 C 12.499 13.091,12.252 12.985,11.768 12.681 C 11.048 12.231,11.024 12.221,10.660 12.222 C 10.161 12.225,9.784 12.439,9.597 12.827 C 9.475 13.077,9.472 13.579,9.589 13.845 C 9.820 14.366,10.967 15.133,11.953 15.425 C 12.376 15.550,13.197 15.594,13.828 15.525 C 14.553 15.446,15.367 15.126,15.910 14.707 C 16.741 14.066,19.953 10.879,20.649 10.006 C 20.902 9.687,21.215 9.079,21.373 8.598 C 21.533 8.109,21.572 7.756,21.552 6.992 C 21.534 6.323,21.528 6.286,21.385 5.860 C 21.198 5.306,20.897 4.697,20.642 4.357 C 20.154 3.707,19.295 3.056,18.520 2.749 C 17.881 2.495,16.887 2.384,16.133 2.482 M9.875 8.523 C 9.418 8.590,8.633 8.919,8.155 9.243 C 7.671 9.572,5.958 11.215,4.428 12.820 C 3.478 13.815,3.100 14.280,2.904 14.694 C 2.089 16.417,2.365 18.510,3.589 19.887 C 4.326 20.717,5.205 21.248,6.200 21.465 C 6.585 21.549,7.483 21.581,7.869 21.524 C 8.560 21.423,9.462 21.066,9.962 20.695 C 10.284 20.456,12.431 18.321,12.579 18.091 C 12.673 17.947,12.689 17.881,12.689 17.631 C 12.689 17.234,12.629 17.044,12.436 16.825 C 12.183 16.537,11.967 16.430,11.602 16.408 C 11.133 16.381,11.079 16.419,9.600 17.800 C 8.458 18.866,8.227 19.028,7.675 19.145 C 7.300 19.225,6.900 19.196,6.492 19.059 C 5.767 18.815,5.297 18.357,4.977 17.580 C 4.872 17.323,4.862 17.260,4.864 16.820 C 4.868 16.020,4.997 15.740,5.760 14.892 C 6.430 14.146,8.847 11.735,9.215 11.444 C 9.768 11.009,10.205 10.840,10.777 10.840 C 11.340 10.841,11.725 10.972,12.297 11.358 C 12.713 11.639,13.143 11.840,13.327 11.840 C 13.722 11.840,14.230 11.491,14.405 11.100 C 14.526 10.830,14.527 10.452,14.408 10.186 C 14.188 9.694,13.158 8.960,12.271 8.663 C 12.111 8.609,11.794 8.546,11.566 8.522 C 11.092 8.474,10.207 8.474,9.875 8.523 " fill="#373B4D" stroke="none" fill-rule="evenodd"></path></svg>