<svg width="24" height="24" viewBox="0 0 24 24" fill="none" xmlns="http://www.w3.org/2000/svg"><path d="M15.642 2.640 C 15.285 2.736,14.545 3.086,14.198 3.321 C 13.829 3.572,13.415 3.947,12.305 5.040 L 11.310 6.020 11.332 6.372 C 11.360 6.805,11.451 7.011,11.724 7.256 C 12.038 7.538,12.486 7.643,12.803 7.509 C 13.008 7.422,13.325 7.172,14.340 6.301 C 15.325 5.454,15.614 5.233,15.959 5.059 C 16.177 4.950,16.181 4.949,16.826 4.969 L 17.473 4.989 17.813 5.180 C 18.213 5.404,18.501 5.665,18.718 6.002 C 18.980 6.407,19.020 6.575,19.019 7.260 C 19.019 7.837,19.014 7.869,18.907 8.082 C 18.735 8.423,18.497 8.721,17.811 9.452 C 17.099 10.209,15.066 12.178,14.580 12.581 C 13.650 13.350,12.928 13.340,11.532 12.538 L 11.064 12.269 10.682 12.316 C 10.193 12.376,10.038 12.424,9.861 12.569 C 9.635 12.756,9.585 12.889,9.583 13.300 C 9.582 13.764,9.664 13.939,10.047 14.301 C 10.392 14.626,10.755 14.865,11.293 15.122 C 11.924 15.422,12.194 15.486,12.929 15.509 C 14.336 15.554,15.187 15.253,16.320 14.306 C 16.854 13.860,20.107 10.588,20.469 10.134 C 21.101 9.338,21.418 8.579,21.528 7.594 C 21.615 6.806,21.416 5.838,20.996 5.018 C 20.597 4.236,19.739 3.434,18.820 2.982 C 18.147 2.650,17.873 2.595,16.820 2.575 C 16.032 2.561,15.909 2.568,15.642 2.640 M9.760 8.641 C 9.405 8.674,9.240 8.732,8.723 9.003 C 8.048 9.355,7.508 9.799,6.164 11.103 C 5.359 11.884,4.117 13.184,3.626 13.761 C 3.057 14.427,2.712 15.072,2.572 15.733 C 2.466 16.227,2.477 17.427,2.591 17.845 C 2.725 18.337,2.982 18.979,3.139 19.216 C 3.368 19.562,3.834 20.073,4.203 20.385 C 4.871 20.949,5.324 21.192,6.077 21.388 C 6.598 21.524,7.466 21.559,7.968 21.464 C 8.697 21.326,9.392 21.023,9.964 20.593 C 10.334 20.314,12.357 18.324,12.556 18.044 C 12.646 17.916,12.680 17.824,12.680 17.704 C 12.679 17.509,12.599 17.191,12.505 17.009 C 12.369 16.747,11.855 16.480,11.486 16.480 C 11.173 16.480,11.010 16.592,9.741 17.675 C 8.399 18.820,8.084 19.028,7.556 19.120 C 7.055 19.207,6.318 19.034,5.967 18.746 C 5.709 18.534,5.368 18.142,5.109 17.762 L 4.907 17.464 4.950 16.787 C 4.991 16.159,5.003 16.092,5.115 15.865 C 5.182 15.730,5.355 15.472,5.499 15.292 C 6.025 14.637,8.218 12.415,9.100 11.643 C 9.652 11.161,10.059 10.977,10.677 10.934 C 11.131 10.902,11.311 10.951,12.343 11.392 C 12.803 11.589,13.239 11.763,13.312 11.779 C 13.601 11.841,14.299 11.325,14.396 10.978 C 14.452 10.777,14.452 10.504,14.396 10.303 C 14.284 9.898,13.222 9.078,12.426 8.780 C 12.186 8.690,12.055 8.673,11.366 8.640 C 10.502 8.598,10.210 8.598,9.760 8.641 " fill="#373B4D" stroke="none" fill-rule="evenodd"></path></svg>