<svg width="24" height="24" viewBox="0 0 24 24" fill="none" xmlns="http://www.w3.org/2000/svg"><path d="M4.505 3.084 C 4.257 3.143,3.805 3.400,3.600 3.600 C 2.625 4.550,2.896 6.150,4.132 6.743 C 4.612 6.973,5.253 7.016,5.860 6.859 C 6.758 6.626,7.320 5.902,7.320 4.979 C 7.320 4.397,7.138 3.973,6.723 3.589 C 6.436 3.323,6.070 3.134,5.740 3.080 C 5.447 3.032,4.717 3.035,4.505 3.084 M15.480 8.396 C 14.646 8.630,13.955 9.083,13.353 9.790 L 13.140 10.041 13.114 9.850 C 13.099 9.746,13.085 9.401,13.084 9.084 L 13.080 8.507 11.190 8.535 C 10.151 8.551,9.289 8.576,9.275 8.592 C 9.261 8.607,9.239 11.181,9.224 14.310 L 9.198 20.000 11.139 20.000 L 13.080 20.000 13.083 17.390 C 13.086 14.262,13.122 12.976,13.215 12.726 C 13.388 12.259,13.829 11.742,14.244 11.521 C 14.712 11.271,15.294 11.227,15.846 11.399 C 16.334 11.551,16.627 11.827,16.885 12.378 C 17.060 12.751,17.071 12.983,17.105 16.790 L 17.133 20.000 19.072 20.000 L 21.010 20.000 20.988 16.250 C 20.974 13.859,20.950 12.387,20.921 12.189 C 20.863 11.773,20.640 11.012,20.466 10.629 C 20.193 10.031,19.643 9.373,19.107 9.005 C 18.825 8.811,18.346 8.582,17.960 8.458 C 17.635 8.353,17.578 8.347,16.680 8.335 C 15.866 8.324,15.705 8.332,15.480 8.396 M3.240 14.260 L 3.240 20.000 5.160 20.000 L 7.080 20.000 7.080 14.260 L 7.080 8.520 5.160 8.520 L 3.240 8.520 3.240 14.260 " fill="#373B4D" stroke="none" fill-rule="evenodd"></path></svg>