<svg width="24" height="24" viewBox="0 0 24 24" fill="none" xmlns="http://www.w3.org/2000/svg"><path d="M15.732 2.597 C 15.331 2.706,14.738 2.960,14.358 3.186 C 13.966 3.419,13.295 4.021,12.166 5.154 L 11.311 6.011 11.328 6.396 C 11.347 6.836,11.396 6.958,11.659 7.222 C 11.990 7.552,12.377 7.667,12.746 7.545 C 12.986 7.465,13.333 7.193,14.370 6.270 C 15.306 5.437,15.572 5.230,15.920 5.065 C 16.152 4.955,16.227 4.940,16.620 4.927 C 17.398 4.902,17.942 5.105,18.445 5.607 C 18.926 6.089,19.117 6.647,19.066 7.420 C 19.021 8.104,18.913 8.295,18.024 9.251 C 17.439 9.880,15.872 11.422,15.002 12.226 C 14.324 12.852,14.030 13.037,13.583 13.117 C 12.943 13.232,12.531 13.115,11.526 12.532 L 11.072 12.269 10.669 12.297 C 10.241 12.326,10.067 12.379,9.848 12.547 C 9.641 12.704,9.562 12.918,9.561 13.322 C 9.560 13.776,9.664 13.994,10.037 14.315 C 10.575 14.778,11.015 15.052,11.549 15.257 C 12.167 15.494,12.422 15.531,13.291 15.509 C 13.962 15.493,14.108 15.477,14.440 15.385 C 15.001 15.230,15.548 14.944,16.041 14.548 C 17.050 13.738,20.122 10.655,20.704 9.870 C 20.945 9.544,21.305 8.796,21.398 8.430 C 21.582 7.703,21.600 6.766,21.442 6.147 C 21.343 5.760,21.060 5.086,20.847 4.728 C 20.302 3.813,19.064 2.905,18.000 2.638 C 17.488 2.511,16.142 2.486,15.732 2.597 M9.718 8.603 C 9.438 8.644,9.173 8.747,8.634 9.027 C 7.931 9.392,7.288 9.957,5.360 11.906 C 3.711 13.572,3.238 14.123,2.926 14.745 C 2.598 15.395,2.518 15.733,2.492 16.580 C 2.468 17.347,2.511 17.669,2.723 18.320 C 2.963 19.055,3.250 19.485,3.966 20.182 C 4.661 20.859,5.198 21.173,6.017 21.380 C 6.976 21.623,7.792 21.597,8.674 21.294 C 9.017 21.177,9.569 20.906,9.839 20.723 C 10.249 20.446,12.386 18.342,12.619 17.988 C 12.680 17.894,12.687 17.828,12.664 17.554 C 12.631 17.155,12.577 17.026,12.355 16.812 C 12.150 16.615,11.901 16.496,11.614 16.458 C 11.212 16.405,11.099 16.479,9.636 17.762 C 8.528 18.734,8.291 18.908,7.888 19.048 C 7.353 19.232,6.597 19.150,6.080 18.850 C 5.806 18.690,5.365 18.212,5.126 17.816 L 4.912 17.460 4.934 16.784 C 4.955 16.156,4.964 16.092,5.064 15.889 C 5.123 15.768,5.295 15.515,5.447 15.325 C 6.109 14.499,8.519 12.071,9.272 11.473 C 9.803 11.051,10.200 10.908,10.840 10.907 C 11.284 10.906,11.381 10.938,12.392 11.417 C 12.748 11.586,13.134 11.744,13.251 11.769 C 13.447 11.810,13.482 11.805,13.691 11.709 C 13.951 11.590,14.297 11.266,14.382 11.061 C 14.462 10.869,14.458 10.350,14.375 10.175 C 14.241 9.893,13.400 9.223,12.799 8.919 C 12.327 8.681,12.114 8.635,11.320 8.598 C 10.443 8.557,10.020 8.558,9.718 8.603 " fill="#373B4D" stroke="none" fill-rule="evenodd"></path></svg>