<svg width="24" height="24" viewBox="0 0 24 24" fill="none" xmlns="http://www.w3.org/2000/svg"><path d="M16.090 2.521 C 15.488 2.597,14.432 3.057,13.959 3.450 C 13.545 3.794,12.222 5.064,11.750 5.571 L 11.320 6.033 11.320 6.342 C 11.320 6.794,11.376 6.939,11.661 7.227 C 11.949 7.517,12.228 7.627,12.571 7.586 C 12.911 7.546,13.116 7.396,14.363 6.272 C 15.545 5.206,15.835 5.011,16.374 4.918 C 16.695 4.862,17.212 4.914,17.569 5.036 C 18.305 5.289,18.943 6.003,19.041 6.682 C 19.122 7.240,19.070 7.867,18.918 8.164 C 18.781 8.432,18.359 8.922,17.585 9.711 C 16.379 10.941,14.630 12.613,14.363 12.792 C 14.015 13.024,13.720 13.125,13.320 13.149 C 12.770 13.182,12.449 13.070,11.486 12.509 L 11.073 12.268 10.661 12.292 C 10.206 12.317,10.044 12.369,9.832 12.555 C 9.613 12.748,9.560 12.896,9.560 13.323 C 9.560 13.618,9.577 13.730,9.643 13.867 C 9.751 14.089,10.155 14.458,10.661 14.797 C 11.115 15.101,11.521 15.282,12.077 15.430 C 12.412 15.519,12.543 15.532,13.120 15.533 C 13.667 15.534,13.848 15.519,14.180 15.443 C 15.398 15.164,15.842 14.853,17.900 12.830 C 19.214 11.539,20.465 10.222,20.704 9.878 C 20.916 9.575,21.170 9.088,21.305 8.732 C 21.448 8.352,21.517 7.952,21.545 7.343 C 21.583 6.527,21.468 5.987,21.082 5.175 C 20.826 4.635,20.610 4.325,20.222 3.939 C 19.513 3.233,18.563 2.710,17.756 2.583 C 17.267 2.505,16.457 2.475,16.090 2.521 M9.500 8.642 C 9.094 8.758,8.303 9.162,7.986 9.416 C 6.916 10.271,4.194 12.994,3.410 13.993 C 2.753 14.830,2.471 15.650,2.465 16.740 C 2.462 17.280,2.516 17.639,2.687 18.215 C 2.908 18.961,3.221 19.461,3.880 20.120 C 4.727 20.967,5.445 21.326,6.649 21.503 C 7.723 21.662,8.858 21.378,9.889 20.693 C 10.178 20.501,12.152 18.574,12.501 18.144 L 12.660 17.947 12.658 17.584 C 12.655 17.172,12.609 17.049,12.365 16.805 C 12.147 16.587,11.871 16.465,11.560 16.448 C 11.160 16.427,11.049 16.502,9.622 17.775 C 9.181 18.169,8.693 18.586,8.538 18.704 C 7.849 19.226,7.026 19.301,6.202 18.917 C 5.842 18.749,5.367 18.260,5.105 17.787 L 4.909 17.434 4.928 16.764 C 4.948 16.102,4.949 16.091,5.077 15.852 C 5.276 15.479,5.631 15.061,6.653 13.997 C 7.642 12.967,8.690 11.950,9.197 11.527 C 9.724 11.088,10.024 10.958,10.643 10.900 C 11.142 10.854,11.363 10.917,12.290 11.368 C 13.267 11.844,13.382 11.870,13.735 11.697 C 13.991 11.572,14.293 11.272,14.388 11.049 C 14.463 10.874,14.472 10.395,14.404 10.225 C 14.278 9.908,13.489 9.265,12.805 8.922 C 12.216 8.627,12.009 8.591,10.820 8.575 C 9.874 8.563,9.755 8.569,9.500 8.642 " fill="#373B4D" stroke="none" fill-rule="evenodd"></path></svg>