<svg width="24" height="24" viewBox="0 0 24 24" fill="none" xmlns="http://www.w3.org/2000/svg"><path d="M16.100 2.463 C 15.437 2.565,14.730 2.832,14.180 3.190 C 13.750 3.469,11.720 5.444,11.430 5.864 C 11.153 6.267,11.230 6.910,11.600 7.280 C 11.933 7.613,12.363 7.718,12.828 7.580 C 13.065 7.509,13.220 7.375,14.465 6.155 C 14.929 5.700,15.406 5.264,15.525 5.186 C 15.889 4.946,16.309 4.827,16.800 4.825 C 17.108 4.823,17.279 4.842,17.440 4.897 C 18.289 5.183,18.858 5.760,19.104 6.582 C 19.239 7.034,19.175 7.821,18.971 8.218 C 18.827 8.497,18.474 8.889,17.221 10.156 C 15.403 11.993,14.530 12.811,14.223 12.961 C 13.680 13.226,13.008 13.262,12.439 13.057 C 12.099 12.934,11.958 12.851,11.496 12.498 C 11.136 12.224,11.015 12.181,10.600 12.180 C 10.138 12.180,9.679 12.501,9.539 12.924 C 9.453 13.183,9.473 13.635,9.580 13.860 C 9.811 14.345,10.807 15.055,11.655 15.340 C 12.240 15.536,12.498 15.575,13.200 15.573 C 13.802 15.571,13.900 15.561,14.320 15.451 C 14.573 15.385,14.915 15.273,15.080 15.203 C 15.736 14.924,15.926 14.778,17.083 13.667 C 18.555 12.253,20.474 10.299,20.694 9.990 C 21.067 9.467,21.341 8.842,21.505 8.140 C 21.610 7.691,21.610 6.709,21.505 6.260 C 21.244 5.141,20.723 4.257,19.920 3.570 C 19.365 3.095,18.676 2.733,18.003 2.561 C 17.756 2.498,16.628 2.382,16.480 2.405 C 16.469 2.406,16.298 2.433,16.100 2.463 M9.780 8.517 C 9.173 8.660,8.527 8.953,8.000 9.324 C 7.476 9.694,3.707 13.480,3.247 14.099 C 2.656 14.894,2.335 16.149,2.438 17.256 C 2.648 19.513,4.500 21.364,6.746 21.560 C 7.970 21.668,9.134 21.336,10.100 20.605 C 10.481 20.317,12.534 18.244,12.618 18.063 C 12.725 17.832,12.743 17.461,12.662 17.181 C 12.567 16.855,12.240 16.527,11.905 16.423 C 11.597 16.327,11.265 16.354,11.023 16.496 C 10.926 16.553,10.417 17.016,9.893 17.526 C 8.507 18.872,8.382 18.966,7.770 19.123 C 7.212 19.265,6.597 19.189,6.067 18.913 C 5.706 18.724,5.256 18.257,5.072 17.880 C 4.701 17.123,4.730 16.274,5.149 15.564 C 5.261 15.375,5.702 14.901,6.860 13.728 C 8.830 11.732,9.339 11.259,9.734 11.064 C 10.244 10.812,10.756 10.746,11.300 10.860 C 11.660 10.936,11.981 11.097,12.380 11.402 C 12.797 11.721,12.966 11.804,13.240 11.829 C 13.609 11.863,13.887 11.759,14.159 11.487 C 14.530 11.116,14.629 10.615,14.420 10.166 C 14.230 9.759,13.409 9.108,12.712 8.814 C 12.038 8.529,11.747 8.472,10.880 8.456 C 10.223 8.444,10.050 8.454,9.780 8.517 " fill="#373B4D" stroke="none" fill-rule="evenodd"></path></svg>