<svg width="24" height="24" viewBox="0 0 24 24" fill="none" xmlns="http://www.w3.org/2000/svg"><path d="M4.595 3.077 C 4.323 3.115,3.897 3.348,3.611 3.615 C 3.155 4.040,2.932 4.689,3.037 5.280 C 3.260 6.524,4.481 7.211,5.845 6.859 C 6.924 6.581,7.510 5.592,7.257 4.478 C 7.100 3.791,6.394 3.173,5.656 3.078 C 5.346 3.038,4.873 3.038,4.595 3.077 M15.700 8.362 C 15.273 8.418,14.554 8.738,14.129 9.062 C 13.899 9.237,13.596 9.524,13.345 9.803 C 13.242 9.918,13.148 10.001,13.135 9.989 C 13.123 9.976,13.103 9.638,13.090 9.237 L 13.068 8.509 11.344 8.536 C 10.396 8.551,9.546 8.573,9.455 8.585 L 9.290 8.608 9.266 8.914 C 9.253 9.082,9.230 11.646,9.215 14.610 L 9.188 20.000 11.128 20.000 L 13.068 20.000 13.093 16.790 C 13.107 15.024,13.136 13.396,13.157 13.171 C 13.202 12.700,13.300 12.460,13.598 12.090 C 14.022 11.562,14.518 11.320,15.171 11.320 C 15.582 11.321,15.840 11.377,16.144 11.532 C 16.549 11.737,16.926 12.296,17.003 12.803 C 17.045 13.080,17.115 16.707,17.118 18.750 L 17.120 20.000 19.060 20.000 L 21.000 20.000 20.997 17.530 C 20.996 16.172,20.979 14.394,20.961 13.580 C 20.923 11.953,20.913 11.878,20.599 10.980 C 20.262 10.015,19.534 9.188,18.620 8.730 C 18.061 8.451,17.830 8.393,17.120 8.357 C 16.337 8.318,16.023 8.319,15.700 8.362 M3.240 14.260 L 3.240 20.000 5.160 20.000 L 7.080 20.000 7.080 14.260 L 7.080 8.520 5.160 8.520 L 3.240 8.520 3.240 14.260 " fill="#373B4D" stroke="none" fill-rule="evenodd"></path></svg>