<svg width="24" height="24" viewBox="0 0 24 24" fill="none" xmlns="http://www.w3.org/2000/svg"><path d="M16.158 2.481 C 15.399 2.587,14.365 3.042,13.817 3.509 C 13.368 3.892,11.547 5.721,11.413 5.923 C 11.315 6.071,11.301 6.131,11.301 6.396 C 11.301 6.808,11.387 7.019,11.661 7.278 C 11.938 7.539,12.105 7.609,12.465 7.611 C 12.899 7.614,12.966 7.567,14.316 6.305 C 15.474 5.223,15.700 5.055,16.161 4.936 C 16.480 4.853,17.026 4.844,17.320 4.917 C 17.606 4.987,18.048 5.209,18.300 5.409 C 18.873 5.862,19.120 6.415,19.120 7.245 C 19.120 7.844,19.019 8.161,18.707 8.540 C 18.399 8.914,16.783 10.562,15.624 11.684 C 14.340 12.927,14.229 13.006,13.580 13.140 C 12.968 13.267,12.583 13.163,11.681 12.627 L 11.063 12.260 10.734 12.246 C 9.971 12.213,9.518 12.612,9.515 13.317 C 9.514 13.773,9.568 13.898,9.914 14.241 C 10.547 14.869,11.532 15.377,12.356 15.502 C 13.634 15.694,14.978 15.403,15.857 14.742 C 16.287 14.418,17.161 13.598,18.502 12.260 C 19.879 10.886,20.544 10.172,20.780 9.817 C 20.992 9.498,21.259 8.938,21.375 8.568 C 21.536 8.057,21.572 7.734,21.551 6.980 C 21.533 6.350,21.522 6.272,21.404 5.920 C 21.216 5.357,20.839 4.615,20.567 4.273 C 20.031 3.597,19.088 2.932,18.315 2.682 C 17.749 2.499,16.716 2.403,16.158 2.481 M9.937 8.520 C 9.391 8.590,8.457 9.001,7.976 9.384 C 7.228 9.980,4.663 12.513,3.717 13.591 C 3.030 14.373,2.804 14.768,2.604 15.534 C 2.237 16.938,2.525 18.491,3.356 19.586 C 4.344 20.889,5.683 21.558,7.306 21.560 C 8.171 21.560,9.295 21.183,9.993 20.659 C 10.356 20.386,12.529 18.206,12.611 18.032 C 12.723 17.798,12.706 17.307,12.577 17.050 C 12.395 16.683,12.062 16.461,11.629 16.417 C 11.173 16.370,11.037 16.462,9.640 17.761 C 8.435 18.882,8.139 19.079,7.533 19.168 C 7.258 19.208,7.159 19.205,6.856 19.145 C 5.960 18.971,5.338 18.450,4.977 17.572 C 4.895 17.372,4.882 17.273,4.881 16.858 C 4.879 15.864,4.988 15.685,6.611 14.004 C 7.890 12.679,9.133 11.490,9.482 11.259 C 9.871 11.000,10.217 10.879,10.640 10.853 C 11.254 10.815,11.655 10.948,12.454 11.453 C 13.099 11.862,13.378 11.914,13.790 11.705 C 14.042 11.578,14.381 11.216,14.436 11.016 C 14.508 10.757,14.491 10.367,14.398 10.176 C 14.111 9.583,12.817 8.753,11.911 8.581 C 11.517 8.506,10.336 8.470,9.937 8.520 " fill="#373B4D" stroke="none" fill-rule="evenodd"></path></svg>