<svg width="24" height="24" viewBox="0 0 24 24" fill="none" xmlns="http://www.w3.org/2000/svg"><path d="M16.030 2.559 C 15.687 2.603,15.316 2.724,14.860 2.942 C 14.120 3.295,13.838 3.526,12.326 5.019 L 11.312 6.020 11.329 6.360 C 11.340 6.586,11.373 6.761,11.427 6.883 C 11.601 7.271,12.066 7.578,12.480 7.576 C 12.831 7.576,12.994 7.466,14.200 6.418 C 15.250 5.504,15.563 5.260,15.887 5.097 L 16.172 4.953 16.799 4.967 L 17.426 4.980 17.781 5.156 C 18.406 5.466,18.857 6.013,19.002 6.640 C 19.074 6.949,19.065 7.614,18.985 7.887 C 18.848 8.359,18.417 8.875,16.897 10.386 C 15.719 11.557,14.796 12.426,14.442 12.698 C 14.116 12.949,13.839 13.075,13.497 13.128 C 12.944 13.214,12.451 13.066,11.532 12.538 L 11.060 12.266 10.640 12.313 C 10.094 12.374,9.825 12.499,9.680 12.760 C 9.593 12.917,9.580 12.988,9.581 13.320 C 9.582 13.777,9.640 13.912,9.983 14.254 C 10.539 14.810,11.558 15.340,12.337 15.478 C 12.646 15.533,13.549 15.532,13.945 15.477 C 14.785 15.360,15.561 14.972,16.364 14.269 C 16.885 13.812,18.466 12.270,19.334 11.371 C 20.426 10.240,20.767 9.823,21.040 9.281 C 21.596 8.177,21.703 6.935,21.335 5.848 C 21.038 4.968,20.784 4.543,20.217 3.976 C 19.497 3.256,18.607 2.758,17.800 2.624 C 17.337 2.547,16.397 2.512,16.030 2.559 M9.520 8.655 C 9.053 8.792,8.376 9.152,7.902 9.516 C 6.951 10.245,4.020 13.197,3.310 14.140 C 3.039 14.501,2.716 15.140,2.624 15.500 C 2.442 16.214,2.438 17.310,2.616 17.940 C 2.745 18.396,2.955 18.933,3.088 19.142 C 3.536 19.849,4.470 20.713,5.159 21.059 C 5.747 21.355,6.545 21.536,7.240 21.531 C 8.314 21.523,9.404 21.109,10.199 20.408 C 10.651 20.010,12.049 18.626,12.385 18.245 C 12.662 17.931,12.680 17.899,12.680 17.724 C 12.680 17.479,12.580 17.100,12.477 16.955 C 12.298 16.704,11.812 16.465,11.481 16.465 C 11.175 16.465,10.965 16.614,9.514 17.866 C 8.378 18.845,8.087 19.031,7.553 19.121 C 7.208 19.179,6.763 19.123,6.344 18.969 C 6.096 18.878,6.017 18.821,5.720 18.522 C 5.533 18.333,5.274 18.020,5.145 17.827 L 4.909 17.475 4.939 16.848 C 4.955 16.502,4.991 16.152,5.019 16.069 C 5.192 15.567,5.675 15.001,7.418 13.258 C 8.872 11.803,9.335 11.390,9.764 11.161 C 10.187 10.936,10.860 10.856,11.322 10.977 C 11.442 11.009,11.885 11.188,12.306 11.376 C 12.728 11.565,13.155 11.740,13.256 11.767 C 13.426 11.813,13.456 11.809,13.650 11.714 C 13.928 11.577,14.274 11.261,14.365 11.061 C 14.451 10.872,14.463 10.505,14.391 10.265 C 14.256 9.813,12.915 8.863,12.177 8.696 C 11.792 8.609,9.782 8.578,9.520 8.655 " fill="#373B4D" stroke="none" fill-rule="evenodd"></path></svg>