<svg width="24" height="24" viewBox="0 0 24 24" fill="none" xmlns="http://www.w3.org/2000/svg"><path d="M15.900 2.539 C 15.208 2.691,14.323 3.110,13.867 3.500 C 13.456 3.851,11.469 5.826,11.375 5.977 C 11.317 6.070,11.303 6.165,11.308 6.427 C 11.317 6.833,11.383 6.987,11.666 7.266 C 11.933 7.529,12.179 7.618,12.560 7.591 C 12.934 7.564,13.069 7.463,14.480 6.159 C 15.740 4.995,16.037 4.841,16.924 4.893 C 17.903 4.951,18.762 5.608,19.024 6.500 C 19.117 6.820,19.119 7.561,19.027 7.913 C 18.944 8.227,18.825 8.401,18.304 8.969 C 17.697 9.631,14.906 12.387,14.580 12.647 C 14.110 13.021,13.741 13.162,13.213 13.167 C 12.719 13.172,12.399 13.053,11.540 12.543 L 11.100 12.281 10.683 12.281 C 10.339 12.280,10.234 12.295,10.092 12.364 C 9.876 12.468,9.697 12.644,9.613 12.834 C 9.518 13.047,9.517 13.654,9.612 13.844 C 9.830 14.282,10.766 14.972,11.560 15.278 C 12.655 15.701,14.111 15.632,15.219 15.105 C 15.697 14.877,16.085 14.578,16.924 13.787 C 17.932 12.837,20.255 10.477,20.572 10.080 C 20.868 9.709,21.207 9.065,21.382 8.540 C 21.522 8.119,21.588 7.255,21.530 6.594 C 21.495 6.200,21.464 6.073,21.302 5.659 C 20.990 4.859,20.677 4.358,20.195 3.883 C 19.633 3.330,18.747 2.801,18.120 2.644 C 17.470 2.481,16.395 2.430,15.900 2.539 M9.839 8.559 C 9.393 8.617,8.714 8.903,8.185 9.257 C 7.753 9.545,6.876 10.358,5.440 11.798 C 3.218 14.026,2.803 14.596,2.561 15.743 C 2.359 16.701,2.434 17.580,2.803 18.591 C 3.148 19.536,4.157 20.611,5.140 21.080 C 6.107 21.542,7.321 21.673,8.294 21.421 C 9.091 21.214,9.704 20.901,10.251 20.421 C 10.616 20.102,12.264 18.430,12.506 18.135 C 12.660 17.948,12.660 17.947,12.660 17.584 C 12.659 17.286,12.643 17.190,12.571 17.055 C 12.453 16.833,12.155 16.578,11.927 16.503 C 11.288 16.295,11.188 16.349,9.662 17.738 C 8.704 18.610,8.441 18.822,8.136 18.966 C 7.814 19.119,7.356 19.214,7.100 19.181 C 6.136 19.059,5.475 18.576,5.044 17.680 L 4.900 17.380 4.902 16.820 C 4.904 16.193,4.945 16.026,5.190 15.641 C 5.443 15.243,5.881 14.758,7.099 13.524 C 9.438 11.157,9.751 10.927,10.687 10.889 C 11.259 10.866,11.504 10.931,12.100 11.261 C 13.187 11.863,13.351 11.907,13.758 11.701 C 14.249 11.452,14.514 11.012,14.469 10.519 C 14.442 10.223,14.360 10.072,14.064 9.778 C 13.617 9.334,12.835 8.860,12.249 8.680 C 11.798 8.540,10.491 8.475,9.839 8.559 " fill="#373B4D" stroke="none" fill-rule="evenodd"></path></svg>