<svg width="24" height="24" viewBox="0 0 24 24" fill="none" xmlns="http://www.w3.org/2000/svg"><path d="M15.972 2.564 C 15.427 2.627,14.482 3.060,13.940 3.494 C 13.576 3.785,12.433 4.874,11.768 5.564 L 11.320 6.029 11.320 6.286 C 11.320 6.627,11.398 6.912,11.542 7.094 C 11.826 7.452,12.321 7.660,12.666 7.565 C 12.965 7.482,13.203 7.298,14.627 6.048 C 15.336 5.425,15.595 5.230,15.920 5.071 C 16.170 4.949,16.199 4.944,16.700 4.942 C 17.129 4.941,17.269 4.956,17.502 5.029 C 18.065 5.206,18.609 5.678,18.861 6.209 C 19.086 6.682,19.134 7.384,18.979 7.942 C 18.856 8.382,18.150 9.185,16.337 10.945 C 14.268 12.954,14.084 13.088,13.320 13.146 C 12.824 13.184,12.396 13.038,11.527 12.533 L 11.074 12.270 10.713 12.298 C 10.035 12.351,9.732 12.515,9.621 12.889 C 9.543 13.152,9.543 13.489,9.621 13.752 C 9.804 14.366,11.279 15.309,12.320 15.477 C 12.647 15.530,13.473 15.532,13.924 15.480 C 14.549 15.408,15.226 15.135,15.804 14.722 C 16.277 14.383,17.018 13.699,18.341 12.380 C 20.293 10.434,20.739 9.916,21.096 9.182 C 21.533 8.284,21.668 7.166,21.453 6.223 C 21.392 5.955,21.126 5.244,20.978 4.955 C 20.701 4.413,20.073 3.747,19.435 3.321 C 18.682 2.817,18.163 2.625,17.384 2.562 C 16.800 2.514,16.391 2.515,15.972 2.564 M9.771 8.600 C 9.295 8.666,8.546 9.026,7.946 9.475 C 7.464 9.837,6.592 10.657,5.373 11.894 C 3.369 13.928,2.975 14.433,2.663 15.369 C 2.487 15.894,2.426 16.981,2.536 17.600 C 2.609 18.008,2.854 18.726,3.024 19.030 C 3.472 19.832,4.573 20.834,5.364 21.162 C 5.760 21.326,6.333 21.468,6.816 21.522 C 7.747 21.625,8.913 21.324,9.765 20.760 C 10.296 20.409,12.608 18.121,12.666 17.890 C 12.703 17.741,12.644 17.281,12.565 17.101 C 12.432 16.802,12.003 16.518,11.593 16.459 C 11.236 16.407,11.061 16.523,9.650 17.750 C 8.351 18.879,8.118 19.031,7.540 19.127 C 7.120 19.196,6.473 19.076,6.100 18.860 C 5.861 18.722,5.401 18.226,5.140 17.825 L 4.909 17.471 4.936 16.805 C 4.962 16.153,4.965 16.135,5.100 15.860 C 5.176 15.706,5.389 15.400,5.574 15.180 C 6.363 14.242,8.696 11.916,9.326 11.441 C 9.856 11.041,10.206 10.920,10.832 10.920 C 11.278 10.921,11.363 10.946,12.180 11.319 C 12.949 11.670,13.283 11.800,13.412 11.799 C 13.685 11.796,14.322 11.284,14.400 11.004 C 14.464 10.771,14.447 10.359,14.365 10.179 C 14.200 9.815,13.068 8.984,12.433 8.761 C 12.308 8.717,12.047 8.664,11.853 8.643 C 11.328 8.587,10.056 8.561,9.771 8.600 " fill="#373B4D" stroke="none" fill-rule="evenodd"></path></svg>