<svg width="24" height="24" viewBox="0 0 24 24" fill="none" xmlns="http://www.w3.org/2000/svg"><path d="M4.615 3.080 C 4.370 3.116,3.930 3.340,3.674 3.560 C 2.982 4.154,2.823 5.170,3.296 5.977 C 3.349 6.067,3.501 6.244,3.634 6.371 C 4.209 6.919,5.092 7.093,5.939 6.824 C 6.301 6.709,6.571 6.542,6.813 6.284 C 7.422 5.633,7.485 4.577,6.957 3.870 C 6.761 3.608,6.368 3.305,6.083 3.198 C 5.713 3.058,5.100 3.009,4.615 3.080 M15.759 8.359 C 15.616 8.377,15.332 8.454,15.129 8.530 C 14.550 8.748,14.168 9.000,13.619 9.529 L 13.132 9.998 13.106 9.549 C 13.092 9.302,13.080 8.967,13.080 8.805 L 13.080 8.509 11.510 8.535 C 10.647 8.550,9.794 8.572,9.615 8.585 L 9.291 8.609 9.266 8.874 C 9.252 9.020,9.229 11.583,9.214 14.570 L 9.187 20.000 11.133 20.000 L 13.080 20.000 13.082 18.610 C 13.084 16.265,13.150 13.121,13.202 12.880 C 13.228 12.759,13.304 12.556,13.371 12.428 C 13.524 12.138,13.955 11.695,14.223 11.551 C 14.635 11.331,15.171 11.269,15.697 11.380 C 16.423 11.534,16.920 12.138,17.001 12.967 C 17.041 13.376,17.120 17.366,17.120 18.982 L 17.120 20.000 19.060 20.000 L 21.000 20.000 20.999 17.450 C 20.997 14.668,20.947 12.368,20.879 11.960 C 20.822 11.616,20.561 10.840,20.385 10.491 C 19.843 9.413,18.662 8.529,17.596 8.404 C 17.106 8.347,16.061 8.321,15.759 8.359 M3.240 14.260 L 3.240 20.000 5.160 20.000 L 7.080 20.000 7.080 14.260 L 7.080 8.520 5.160 8.520 L 3.240 8.520 3.240 14.260 " fill="#373B4D" stroke="none" fill-rule="evenodd"></path></svg>