<svg width="24" height="24" viewBox="0 0 24 24" fill="none" xmlns="http://www.w3.org/2000/svg"><path d="M10.867 2.041 C 10.167 2.121,9.746 2.294,9.401 2.644 C 9.126 2.923,8.910 3.284,8.770 3.700 C 8.667 4.006,8.662 4.063,8.648 4.980 C 8.638 5.679,8.653 6.152,8.704 6.720 C 8.743 7.149,8.775 7.725,8.776 8.000 C 8.776 8.443,8.765 8.527,8.676 8.740 C 8.534 9.083,8.351 9.353,7.790 10.048 C 6.955 11.082,6.866 11.240,6.604 12.147 C 6.402 12.845,6.280 13.140,5.853 13.959 C 5.375 14.877,5.310 15.058,5.301 15.500 C 5.292 15.957,5.105 16.506,4.931 16.582 C 4.892 16.599,4.634 16.624,4.358 16.638 C 3.749 16.669,3.637 16.720,3.471 17.036 C 3.337 17.293,3.327 17.555,3.424 18.293 C 3.459 18.561,3.478 18.852,3.466 18.940 C 3.454 19.028,3.351 19.297,3.237 19.539 C 3.123 19.780,3.021 20.046,3.010 20.130 C 2.991 20.267,3.005 20.297,3.150 20.435 C 3.338 20.613,3.724 20.749,4.420 20.879 C 5.029 20.994,5.758 21.190,6.700 21.493 C 7.714 21.819,8.057 21.896,8.380 21.870 C 8.680 21.846,9.008 21.705,9.229 21.505 C 9.439 21.315,9.828 21.139,10.208 21.062 C 10.812 20.940,13.568 21.014,13.841 21.160 C 13.881 21.182,13.980 21.280,14.061 21.378 C 14.350 21.731,14.756 21.927,15.313 21.982 C 15.856 22.036,16.161 21.878,17.180 21.020 C 17.934 20.386,18.314 20.127,19.022 19.765 C 19.649 19.445,19.864 19.289,19.945 19.094 C 20.109 18.702,19.922 18.419,19.268 18.071 C 18.991 17.923,18.700 17.674,18.618 17.516 C 18.585 17.453,18.522 17.219,18.477 16.996 C 18.401 16.614,18.265 16.240,18.203 16.240 C 18.188 16.240,18.144 16.217,18.107 16.190 C 18.042 16.142,18.042 16.122,18.109 15.820 C 18.206 15.380,18.206 14.206,18.109 13.717 C 17.978 13.066,17.663 12.241,17.295 11.590 C 17.051 11.158,16.926 10.974,16.582 10.540 C 15.974 9.772,15.384 8.875,15.137 8.340 C 14.910 7.849,14.856 7.568,14.702 6.072 C 14.493 4.049,14.300 3.453,13.653 2.840 C 13.254 2.463,12.761 2.198,12.280 2.103 C 11.882 2.025,11.253 1.997,10.867 2.041 M12.543 5.044 C 12.818 5.128,12.994 5.440,13.029 5.904 C 13.051 6.188,12.980 6.903,12.921 6.998 C 12.898 7.036,12.853 7.035,12.716 6.996 C 12.619 6.968,12.533 6.940,12.524 6.933 C 12.515 6.926,12.572 6.857,12.652 6.780 C 13.070 6.374,12.749 5.472,12.208 5.532 C 11.889 5.567,11.722 5.833,11.721 6.310 C 11.720 6.472,11.703 6.600,11.681 6.600 C 11.552 6.600,11.361 5.840,11.416 5.545 C 11.431 5.470,11.509 5.332,11.591 5.240 C 11.816 4.987,12.138 4.921,12.543 5.044 M10.045 5.264 C 10.112 5.328,10.194 5.432,10.227 5.495 C 10.338 5.707,10.347 6.526,10.238 6.459 C 10.217 6.446,10.200 6.377,10.200 6.305 C 10.200 5.986,9.949 5.560,9.762 5.560 C 9.303 5.560,9.095 6.438,9.474 6.776 C 9.584 6.874,9.583 6.947,9.473 6.982 C 9.370 7.015,9.315 6.955,9.171 6.646 C 9.081 6.455,9.073 6.395,9.088 6.066 C 9.109 5.625,9.227 5.313,9.417 5.193 C 9.598 5.079,9.885 5.112,10.045 5.264 M9.878 5.807 C 9.976 5.912,10.028 6.148,9.966 6.210 C 9.935 6.241,9.901 6.201,9.843 6.067 C 9.799 5.964,9.736 5.880,9.704 5.880 C 9.632 5.880,9.586 5.815,9.620 5.760 C 9.662 5.692,9.793 5.716,9.878 5.807 M12.518 5.790 C 12.604 5.860,12.706 6.189,12.656 6.235 C 12.641 6.249,12.620 6.235,12.609 6.204 C 12.598 6.174,12.529 6.082,12.455 5.999 C 12.252 5.774,12.300 5.614,12.518 5.790 M11.408 6.624 C 11.867 6.769,12.699 7.098,12.939 7.230 C 13.294 7.426,13.327 7.652,13.039 7.926 C 12.837 8.118,11.986 8.686,11.646 8.856 C 11.208 9.075,10.986 9.132,10.665 9.111 C 10.326 9.089,10.083 8.977,9.765 8.695 C 9.549 8.504,9.224 8.123,9.253 8.094 C 9.261 8.086,9.374 8.143,9.504 8.221 C 10.038 8.543,10.611 8.612,11.174 8.423 C 11.606 8.278,12.173 7.983,12.531 7.717 C 12.548 7.704,12.548 7.656,12.531 7.610 C 12.502 7.532,12.479 7.540,12.120 7.769 C 10.978 8.494,10.236 8.579,9.545 8.062 C 9.240 7.834,9.148 7.708,9.179 7.564 C 9.237 7.300,9.759 6.872,10.313 6.636 C 10.664 6.486,10.958 6.483,11.408 6.624 M10.400 6.692 C 10.290 6.747,10.249 6.865,10.316 6.932 C 10.347 6.963,10.393 6.943,10.480 6.860 C 10.671 6.677,10.625 6.578,10.400 6.692 M10.880 6.717 C 10.880 6.800,11.067 6.971,11.134 6.949 C 11.218 6.921,11.203 6.839,11.097 6.741 C 10.967 6.621,10.880 6.611,10.880 6.717 M13.135 8.585 C 13.191 8.720,13.381 9.121,13.557 9.476 C 13.733 9.831,13.887 10.189,13.899 10.271 C 13.985 10.832,14.095 11.106,14.461 11.666 C 14.970 12.448,15.122 12.936,15.201 14.040 C 15.237 14.551,15.204 15.929,15.154 15.979 C 15.146 15.987,15.067 15.975,14.978 15.951 C 14.638 15.860,14.395 15.993,14.227 16.360 C 14.155 16.517,14.142 16.640,14.128 17.328 L 14.111 18.115 13.924 18.347 C 13.671 18.661,13.141 19.111,12.781 19.317 C 12.180 19.661,11.593 19.800,10.752 19.799 C 9.691 19.798,9.226 19.605,8.944 19.048 L 8.848 18.859 9.081 18.750 C 9.372 18.612,9.578 18.370,9.578 18.163 C 9.578 17.848,8.914 17.141,8.037 16.520 C 7.187 15.918,6.837 15.608,6.677 15.313 C 6.542 15.064,6.540 15.052,6.542 14.580 C 6.544 14.136,6.555 14.068,6.687 13.680 C 6.848 13.209,7.287 12.230,7.453 11.970 C 7.533 11.845,7.587 11.800,7.661 11.800 C 7.715 11.800,7.760 11.814,7.760 11.831 C 7.760 11.848,7.676 11.997,7.573 12.161 C 7.083 12.946,6.720 13.997,6.720 14.631 C 6.720 14.931,6.806 15.178,6.979 15.380 L 7.117 15.540 7.120 15.240 C 7.128 14.340,7.308 13.704,7.920 12.420 C 8.307 11.607,8.466 11.233,8.497 11.063 C 8.536 10.851,8.706 10.432,9.040 9.723 C 9.194 9.397,9.343 9.037,9.372 8.923 L 9.425 8.717 9.720 8.958 C 9.883 9.090,10.080 9.229,10.158 9.266 C 10.355 9.361,10.983 9.358,11.281 9.261 C 11.641 9.145,12.169 8.848,12.566 8.539 C 12.848 8.320,12.951 8.260,12.987 8.294 C 13.012 8.319,13.079 8.450,13.135 8.585 M15.506 11.483 C 15.848 11.648,16.222 12.162,16.377 12.680 C 16.523 13.167,16.498 14.103,16.320 14.850 C 16.277 15.029,16.247 15.180,16.252 15.186 C 16.258 15.191,16.443 15.223,16.664 15.256 C 17.470 15.376,17.820 15.605,17.941 16.090 C 17.986 16.270,17.899 16.219,17.717 15.960 C 17.586 15.774,17.500 15.697,17.331 15.617 C 16.880 15.404,16.221 15.344,15.938 15.491 C 15.873 15.524,15.698 15.664,15.548 15.801 C 15.399 15.938,15.265 16.038,15.251 16.024 C 15.205 15.978,15.542 15.544,15.741 15.392 C 15.976 15.213,16.011 15.151,16.151 14.651 C 16.250 14.296,16.260 14.199,16.259 13.600 C 16.258 12.986,16.250 12.918,16.149 12.629 C 16.089 12.458,15.997 12.250,15.944 12.167 C 15.832 11.989,15.478 11.661,15.303 11.572 C 15.147 11.493,15.147 11.493,15.178 11.443 C 15.218 11.379,15.316 11.391,15.506 11.483 M6.435 15.931 C 6.712 16.096,6.980 16.421,7.378 17.075 C 7.553 17.362,7.818 17.765,7.968 17.969 C 9.042 19.434,9.364 20.120,9.313 20.833 C 9.287 21.194,9.014 21.477,8.535 21.642 C 8.140 21.778,7.986 21.749,6.662 21.296 C 5.773 20.992,5.223 20.842,4.476 20.702 C 3.661 20.549,3.340 20.423,3.247 20.220 C 3.194 20.102,3.193 20.104,3.452 19.520 C 3.698 18.967,3.720 18.779,3.620 18.079 C 3.582 17.810,3.562 17.522,3.576 17.433 C 3.613 17.206,3.736 16.984,3.856 16.929 C 3.913 16.903,4.196 16.863,4.484 16.840 C 5.058 16.793,5.207 16.742,5.270 16.572 C 5.293 16.510,5.341 16.378,5.376 16.277 C 5.454 16.058,5.614 15.895,5.825 15.817 C 6.024 15.744,6.168 15.771,6.435 15.931 M15.086 16.225 C 15.125 16.261,15.187 16.382,15.224 16.495 C 15.434 17.137,15.691 17.377,16.222 17.427 C 16.652 17.468,16.847 17.381,17.326 16.937 C 17.925 16.382,17.991 16.334,18.061 16.404 C 18.093 16.435,18.173 16.676,18.240 16.939 C 18.307 17.203,18.399 17.494,18.444 17.588 C 18.555 17.817,18.833 18.084,19.121 18.237 C 19.581 18.483,19.748 18.692,19.703 18.969 C 19.660 19.242,19.586 19.304,18.940 19.615 C 18.156 19.993,17.920 20.150,17.123 20.819 C 16.377 21.446,16.073 21.655,15.786 21.741 C 15.216 21.910,14.562 21.690,14.230 21.219 L 14.118 21.058 14.178 20.639 C 14.211 20.409,14.268 20.004,14.305 19.740 C 14.352 19.409,14.381 18.837,14.399 17.900 C 14.422 16.699,14.433 16.522,14.498 16.389 C 14.621 16.133,14.898 16.056,15.086 16.225 " fill="#373B4D" stroke="none" fill-rule="evenodd"></path></svg>