<svg width="24" height="24" viewBox="0 0 24 24" fill="none" xmlns="http://www.w3.org/2000/svg"><path d="M10.694 2.081 C 9.767 2.179,9.106 2.748,8.755 3.750 C 8.640 4.079,8.609 5.245,8.684 6.459 C 8.715 6.966,8.740 7.652,8.740 7.985 L 8.740 8.590 8.568 8.925 C 8.467 9.122,8.151 9.578,7.802 10.030 C 6.919 11.174,6.992 11.041,6.537 12.340 C 6.413 12.696,6.102 13.425,5.838 13.981 L 5.362 14.983 5.279 15.559 C 5.195 16.141,5.083 16.494,4.964 16.558 C 4.928 16.577,4.683 16.613,4.419 16.638 C 3.828 16.695,3.715 16.729,3.565 16.900 C 3.376 17.116,3.337 17.378,3.393 18.053 C 3.469 18.954,3.466 18.981,3.241 19.524 C 2.959 20.208,2.956 20.231,3.161 20.416 C 3.253 20.500,3.387 20.592,3.458 20.622 C 3.529 20.651,4.098 20.801,4.723 20.955 C 5.349 21.109,6.211 21.343,6.640 21.476 C 7.542 21.754,8.039 21.879,8.246 21.880 C 8.492 21.880,8.893 21.730,9.218 21.516 C 9.816 21.122,10.044 21.060,11.040 21.018 C 11.701 20.990,13.281 21.055,13.630 21.124 C 13.805 21.159,13.886 21.208,14.118 21.421 C 14.521 21.791,14.839 21.935,15.360 21.984 C 15.838 22.029,16.104 21.887,17.240 20.977 C 17.977 20.387,18.420 20.089,19.081 19.738 C 19.785 19.364,20.041 19.092,19.983 18.780 C 19.944 18.572,19.764 18.394,19.255 18.057 C 18.755 17.727,18.612 17.550,18.517 17.142 C 18.405 16.662,18.276 16.323,18.177 16.244 L 18.075 16.165 18.116 15.772 C 18.262 14.360,18.184 13.664,17.763 12.608 C 17.424 11.758,17.218 11.401,16.505 10.440 C 15.593 9.211,15.103 8.378,14.960 7.819 C 14.917 7.653,14.836 7.135,14.780 6.668 C 14.540 4.681,14.419 4.036,14.201 3.585 C 13.925 3.012,13.309 2.478,12.628 2.222 C 12.188 2.056,11.445 2.002,10.694 2.081 M12.542 5.075 C 12.746 5.168,12.905 5.355,12.963 5.572 C 13.011 5.746,12.992 6.737,12.939 6.910 C 12.906 7.015,12.741 7.033,12.619 6.945 C 12.547 6.891,12.549 6.884,12.670 6.745 C 12.973 6.400,12.857 5.827,12.438 5.604 L 12.258 5.508 12.076 5.589 C 11.849 5.689,11.754 5.869,11.723 6.257 C 11.709 6.417,11.680 6.540,11.652 6.549 C 11.565 6.578,11.374 5.771,11.419 5.564 C 11.455 5.402,11.672 5.160,11.857 5.076 C 12.065 4.982,12.335 4.981,12.542 5.075 M9.921 5.210 C 10.141 5.321,10.223 5.461,10.280 5.820 C 10.326 6.101,10.303 6.459,10.243 6.422 C 10.225 6.411,10.199 6.313,10.184 6.204 C 10.152 5.962,9.946 5.637,9.790 5.583 C 9.545 5.498,9.300 5.850,9.300 6.286 C 9.300 6.529,9.312 6.567,9.437 6.722 C 9.566 6.882,9.569 6.894,9.500 6.945 C 9.404 7.015,9.346 6.967,9.208 6.703 C 9.118 6.529,9.103 6.452,9.105 6.160 C 9.108 5.774,9.159 5.553,9.291 5.357 C 9.458 5.109,9.638 5.067,9.921 5.210 M9.857 5.821 C 9.963 5.935,10.011 6.109,9.947 6.148 C 9.924 6.162,9.897 6.150,9.887 6.121 C 9.877 6.092,9.809 6.002,9.735 5.920 C 9.662 5.839,9.613 5.760,9.627 5.746 C 9.679 5.694,9.766 5.722,9.857 5.821 M12.492 5.791 C 12.550 5.855,12.680 6.124,12.680 6.179 C 12.680 6.190,12.664 6.200,12.645 6.200 C 12.608 6.200,12.320 5.801,12.320 5.750 C 12.320 5.694,12.428 5.720,12.492 5.791 M11.360 6.626 C 11.899 6.771,12.829 7.161,13.067 7.343 C 13.175 7.425,13.200 7.472,13.200 7.590 C 13.200 7.713,13.168 7.767,12.989 7.940 C 12.558 8.358,11.478 8.993,11.048 9.082 C 10.539 9.188,10.093 9.013,9.592 8.512 C 9.417 8.337,9.283 8.184,9.295 8.172 C 9.306 8.161,9.465 8.215,9.648 8.293 C 10.423 8.625,10.840 8.602,11.712 8.180 C 12.230 7.929,12.520 7.742,12.520 7.658 C 12.520 7.566,12.438 7.589,12.139 7.764 C 10.883 8.501,10.205 8.567,9.508 8.019 C 9.109 7.704,9.107 7.553,9.497 7.177 C 9.783 6.902,10.305 6.609,10.593 6.562 C 10.817 6.526,11.062 6.546,11.360 6.626 M10.385 6.723 C 10.273 6.812,10.245 6.920,10.335 6.920 C 10.414 6.920,10.600 6.764,10.600 6.697 C 10.600 6.616,10.508 6.627,10.385 6.723 M10.880 6.694 C 10.880 6.758,11.059 6.960,11.116 6.960 C 11.210 6.960,11.196 6.870,11.086 6.760 C 10.958 6.631,10.880 6.607,10.880 6.694 M13.235 8.830 C 13.606 9.572,13.860 10.166,13.940 10.480 C 14.046 10.894,14.187 11.210,14.502 11.739 C 14.858 12.336,14.971 12.599,15.057 13.021 C 15.167 13.568,15.239 15.247,15.175 15.783 L 15.151 15.986 14.968 15.958 C 14.724 15.921,14.527 15.981,14.379 16.138 C 14.187 16.342,14.153 16.505,14.131 17.349 L 14.111 18.117 13.865 18.401 C 13.350 18.994,12.549 19.507,11.860 19.684 C 11.594 19.752,11.408 19.767,10.757 19.770 C 10.028 19.774,9.956 19.767,9.702 19.678 C 9.392 19.568,9.137 19.365,8.984 19.103 C 8.927 19.005,8.880 18.910,8.880 18.890 C 8.880 18.871,8.941 18.826,9.015 18.790 C 9.199 18.703,9.431 18.494,9.506 18.348 C 9.588 18.190,9.556 18.006,9.408 17.791 C 9.249 17.561,8.701 17.041,8.260 16.702 C 6.679 15.488,6.558 15.346,6.562 14.711 C 6.566 13.950,6.657 13.629,7.181 12.532 C 7.416 12.039,7.578 11.800,7.678 11.800 C 7.755 11.800,7.721 11.892,7.504 12.277 C 6.964 13.232,6.667 14.241,6.746 14.851 C 6.770 15.038,6.977 15.441,7.064 15.469 C 7.093 15.478,7.116 15.341,7.133 15.071 C 7.185 14.215,7.307 13.802,7.885 12.516 C 8.087 12.067,8.364 11.403,8.501 11.040 C 8.639 10.677,8.876 10.092,9.030 9.740 C 9.183 9.388,9.330 9.033,9.357 8.951 C 9.384 8.868,9.420 8.793,9.437 8.782 C 9.454 8.772,9.607 8.870,9.778 9.001 C 10.155 9.290,10.304 9.335,10.800 9.309 C 11.391 9.279,11.723 9.134,12.577 8.532 C 12.774 8.393,12.940 8.280,12.947 8.280 C 12.954 8.280,13.083 8.527,13.235 8.830 M15.563 11.538 C 15.880 11.745,16.230 12.236,16.346 12.635 C 16.487 13.121,16.478 14.087,16.324 14.787 C 16.282 14.981,16.259 15.151,16.273 15.165 C 16.288 15.179,16.492 15.228,16.726 15.275 C 17.421 15.412,17.695 15.572,17.864 15.937 C 17.915 16.047,17.948 16.145,17.938 16.156 C 17.927 16.166,17.813 16.067,17.684 15.934 C 17.319 15.559,16.916 15.417,16.292 15.446 L 15.976 15.460 15.638 15.730 C 15.116 16.146,15.115 16.076,15.635 15.511 C 15.812 15.319,15.985 15.108,16.019 15.043 C 16.125 14.836,16.240 14.277,16.265 13.840 C 16.322 12.844,16.072 12.157,15.494 11.717 C 15.358 11.613,15.225 11.522,15.197 11.512 C 15.167 11.502,15.159 11.474,15.177 11.444 C 15.218 11.378,15.377 11.417,15.563 11.538 M6.261 15.858 C 6.665 16.027,6.822 16.229,8.509 18.760 C 8.824 19.234,9.131 19.827,9.221 20.136 C 9.297 20.398,9.310 20.882,9.245 21.048 C 9.171 21.240,8.929 21.465,8.675 21.579 C 8.452 21.679,8.397 21.688,8.085 21.670 C 7.799 21.655,7.602 21.607,6.938 21.389 C 5.818 21.023,5.407 20.907,4.580 20.726 C 3.739 20.541,3.434 20.435,3.318 20.289 C 3.211 20.153,3.227 20.064,3.468 19.476 C 3.678 18.962,3.687 18.867,3.626 17.840 C 3.597 17.356,3.601 17.285,3.667 17.160 C 3.765 16.972,3.872 16.929,4.419 16.858 C 5.130 16.764,5.154 16.752,5.320 16.413 C 5.479 16.088,5.606 15.934,5.780 15.856 C 5.938 15.786,6.091 15.787,6.261 15.858 M15.092 16.290 C 15.145 16.361,15.232 16.528,15.284 16.660 C 15.419 16.999,15.712 17.292,15.997 17.376 C 16.472 17.516,16.737 17.427,17.316 16.936 C 17.770 16.551,17.964 16.400,18.006 16.400 C 18.060 16.400,18.144 16.603,18.279 17.060 C 18.350 17.302,18.435 17.552,18.468 17.615 C 18.550 17.774,18.856 18.065,19.122 18.238 C 19.582 18.536,19.680 18.654,19.680 18.909 C 19.680 19.158,19.522 19.303,18.880 19.643 C 18.157 20.026,17.930 20.178,17.200 20.762 C 16.402 21.402,16.011 21.663,15.731 21.744 C 15.204 21.898,14.576 21.669,14.228 21.197 L 14.117 21.045 14.176 20.673 C 14.297 19.912,14.359 19.190,14.398 18.080 C 14.454 16.506,14.463 16.427,14.600 16.280 C 14.761 16.108,14.960 16.112,15.092 16.290 " fill="#373B4D" stroke="none" fill-rule="evenodd"></path></svg>