<svg width="24" height="24" viewBox="0 0 24 24" fill="none" xmlns="http://www.w3.org/2000/svg"><path d="M10.480 2.106 C 9.665 2.266,9.108 2.780,8.779 3.680 C 8.673 3.968,8.668 4.017,8.651 4.920 C 8.638 5.571,8.652 6.109,8.696 6.669 C 8.731 7.114,8.760 7.711,8.760 7.997 C 8.760 8.761,8.691 8.903,7.711 10.146 C 7.414 10.524,7.105 10.941,7.024 11.073 C 6.932 11.225,6.774 11.630,6.598 12.167 C 6.366 12.876,6.242 13.176,5.862 13.940 C 5.610 14.446,5.386 14.932,5.364 15.020 C 5.342 15.108,5.305 15.361,5.283 15.581 C 5.230 16.107,5.086 16.518,4.934 16.577 C 4.897 16.591,4.647 16.620,4.379 16.640 C 3.827 16.682,3.730 16.710,3.584 16.867 C 3.347 17.123,3.320 17.436,3.440 18.525 C 3.487 18.953,3.490 18.938,3.144 19.760 C 3.066 19.947,3.001 20.143,3.001 20.195 C 3.000 20.331,3.236 20.538,3.510 20.641 C 3.636 20.689,3.938 20.771,4.180 20.824 C 5.008 21.005,5.900 21.240,6.600 21.461 C 7.980 21.898,8.231 21.940,8.665 21.806 C 8.833 21.755,9.026 21.656,9.160 21.554 C 9.433 21.345,9.764 21.179,10.067 21.098 C 10.402 21.009,11.612 20.980,12.640 21.037 C 13.816 21.102,13.793 21.096,14.097 21.409 C 14.384 21.705,14.653 21.853,15.061 21.939 C 15.767 22.089,16.021 21.977,17.240 20.976 C 17.957 20.386,18.351 20.119,19.020 19.768 C 19.627 19.449,19.848 19.288,19.938 19.099 C 20.086 18.787,19.947 18.487,19.540 18.240 C 18.697 17.728,18.643 17.664,18.481 17.012 C 18.343 16.454,18.258 16.251,18.148 16.216 C 18.080 16.195,18.074 16.166,18.094 15.986 C 18.214 14.930,18.216 14.315,18.099 13.692 C 17.988 13.102,17.636 12.198,17.253 11.515 C 17.150 11.334,16.843 10.888,16.569 10.525 C 15.762 9.454,15.285 8.705,15.066 8.166 C 14.923 7.816,14.858 7.451,14.720 6.220 C 14.478 4.061,14.318 3.525,13.743 2.939 C 13.300 2.488,12.703 2.171,12.132 2.084 C 11.735 2.023,10.842 2.036,10.480 2.106 M12.602 5.090 C 12.954 5.268,13.078 5.695,13.003 6.470 C 12.977 6.728,12.935 6.962,12.908 6.989 C 12.870 7.027,12.825 7.028,12.709 6.992 C 12.539 6.940,12.523 6.885,12.646 6.776 C 12.974 6.484,12.862 5.795,12.454 5.597 C 12.297 5.521,12.253 5.516,12.123 5.554 C 11.854 5.635,11.725 5.877,11.722 6.308 C 11.720 6.589,11.670 6.655,11.585 6.490 C 11.519 6.362,11.400 5.822,11.400 5.650 C 11.400 5.470,11.604 5.186,11.805 5.087 C 12.043 4.969,12.364 4.970,12.602 5.090 M9.896 5.176 C 10.120 5.269,10.244 5.475,10.291 5.832 C 10.333 6.149,10.307 6.440,10.238 6.440 C 10.217 6.440,10.200 6.373,10.199 6.290 C 10.197 5.995,9.922 5.560,9.738 5.560 C 9.516 5.560,9.282 5.911,9.281 6.247 C 9.280 6.479,9.333 6.627,9.471 6.771 C 9.565 6.870,9.570 6.887,9.515 6.942 C 9.422 7.036,9.333 6.974,9.215 6.733 C 9.083 6.464,9.057 6.226,9.117 5.841 C 9.209 5.252,9.494 5.008,9.896 5.176 M9.828 5.780 C 9.935 5.855,10.026 6.110,9.968 6.168 C 9.940 6.196,9.907 6.171,9.865 6.089 C 9.830 6.023,9.754 5.933,9.695 5.890 C 9.520 5.763,9.650 5.655,9.828 5.780 M12.518 5.798 C 12.594 5.874,12.703 6.190,12.666 6.227 C 12.641 6.252,12.320 5.826,12.320 5.766 C 12.320 5.694,12.432 5.712,12.518 5.798 M11.622 6.700 C 11.855 6.779,12.260 6.935,12.521 7.045 C 13.214 7.338,13.357 7.528,13.114 7.837 C 12.918 8.085,11.837 8.794,11.356 8.988 C 10.823 9.203,10.355 9.145,9.914 8.809 C 9.667 8.621,9.250 8.177,9.286 8.141 C 9.296 8.130,9.446 8.193,9.619 8.279 C 10.006 8.474,10.288 8.535,10.679 8.510 C 11.048 8.486,11.252 8.419,11.829 8.133 C 12.335 7.882,12.583 7.693,12.524 7.603 C 12.493 7.556,12.425 7.583,12.153 7.749 C 11.105 8.392,10.467 8.530,9.860 8.245 C 9.597 8.121,9.222 7.807,9.189 7.682 C 9.117 7.406,9.748 6.848,10.399 6.611 C 10.748 6.485,11.058 6.507,11.622 6.700 M10.411 6.688 C 10.309 6.737,10.253 6.869,10.310 6.926 C 10.357 6.973,10.600 6.780,10.600 6.696 C 10.600 6.631,10.536 6.628,10.411 6.688 M10.880 6.702 C 10.880 6.770,11.053 6.960,11.116 6.960 C 11.209 6.960,11.200 6.865,11.097 6.757 C 10.974 6.629,10.880 6.605,10.880 6.702 M13.413 9.180 C 13.648 9.676,13.861 10.166,13.885 10.270 C 14.008 10.796,14.132 11.128,14.323 11.441 C 14.436 11.628,14.584 11.870,14.650 11.980 C 15.041 12.625,15.159 13.177,15.188 14.486 C 15.200 15.028,15.198 15.587,15.183 15.728 L 15.155 15.986 14.943 15.947 C 14.674 15.898,14.474 15.985,14.309 16.222 C 14.165 16.429,14.122 16.720,14.121 17.501 L 14.120 18.103 13.904 18.361 C 13.497 18.850,12.862 19.324,12.353 19.520 C 11.770 19.745,11.570 19.777,10.740 19.776 C 10.073 19.776,9.949 19.765,9.727 19.691 C 9.381 19.575,9.184 19.429,9.019 19.165 C 8.854 18.901,8.848 18.850,8.978 18.801 C 9.312 18.674,9.560 18.397,9.560 18.152 C 9.560 17.825,9.014 17.255,7.900 16.420 C 7.100 15.821,6.786 15.527,6.641 15.242 C 6.560 15.083,6.554 15.024,6.568 14.504 C 6.583 13.964,6.590 13.923,6.736 13.542 C 6.927 13.046,7.283 12.265,7.430 12.021 C 7.529 11.856,7.685 11.752,7.745 11.812 C 7.757 11.823,7.660 12.014,7.529 12.235 C 7.262 12.686,7.016 13.252,6.856 13.783 C 6.771 14.065,6.748 14.228,6.744 14.560 C 6.740 14.953,6.748 14.994,6.856 15.189 C 6.920 15.304,7.005 15.428,7.046 15.465 C 7.117 15.530,7.120 15.522,7.120 15.236 C 7.120 15.073,7.147 14.769,7.179 14.560 C 7.280 13.896,7.408 13.535,7.969 12.325 C 8.187 11.854,8.430 11.269,8.508 11.025 C 8.587 10.780,8.795 10.265,8.969 9.880 C 9.144 9.495,9.316 9.085,9.352 8.970 C 9.387 8.854,9.431 8.760,9.448 8.760 C 9.465 8.760,9.592 8.851,9.730 8.963 C 10.129 9.288,10.216 9.320,10.680 9.320 C 11.298 9.320,11.710 9.152,12.535 8.562 C 12.752 8.407,12.942 8.280,12.957 8.280 C 12.972 8.280,13.177 8.685,13.413 9.180 M15.550 11.521 C 15.793 11.660,16.058 11.977,16.231 12.335 C 16.445 12.778,16.508 13.279,16.441 14.017 C 16.404 14.429,16.374 14.612,16.260 15.105 C 16.242 15.184,16.266 15.194,16.570 15.241 C 17.320 15.355,17.686 15.541,17.859 15.894 C 17.989 16.160,17.977 16.269,17.837 16.099 C 17.583 15.790,17.410 15.648,17.184 15.564 C 16.769 15.410,16.172 15.373,15.950 15.487 C 15.911 15.507,15.752 15.630,15.595 15.761 C 15.100 16.176,15.139 16.025,15.669 15.476 C 15.982 15.150,16.015 15.101,16.104 14.812 C 16.239 14.374,16.294 13.863,16.263 13.332 C 16.210 12.428,15.910 11.926,15.166 11.493 C 15.158 11.489,15.164 11.466,15.178 11.443 C 15.222 11.372,15.329 11.394,15.550 11.521 M6.351 15.890 C 6.602 16.015,6.968 16.430,7.318 16.986 C 7.481 17.247,7.799 17.721,8.024 18.041 C 8.841 19.199,9.156 19.770,9.267 20.294 C 9.376 20.808,9.268 21.207,8.963 21.418 C 8.670 21.620,8.437 21.698,8.140 21.695 C 7.900 21.693,7.710 21.643,6.818 21.349 C 5.717 20.986,5.300 20.871,4.463 20.700 C 3.540 20.512,3.240 20.370,3.240 20.119 C 3.240 20.059,3.322 19.819,3.422 19.587 C 3.692 18.958,3.708 18.840,3.629 18.106 C 3.569 17.558,3.568 17.466,3.620 17.292 C 3.717 16.967,3.791 16.925,4.385 16.857 C 5.155 16.768,5.206 16.743,5.336 16.392 C 5.533 15.856,5.910 15.670,6.351 15.890 M15.074 16.234 C 15.115 16.275,15.198 16.439,15.259 16.597 C 15.467 17.142,15.751 17.385,16.229 17.428 C 16.660 17.467,16.844 17.369,17.582 16.710 C 17.773 16.540,17.962 16.400,18.002 16.400 C 18.079 16.400,18.088 16.423,18.325 17.220 C 18.451 17.641,18.467 17.670,18.698 17.901 C 18.831 18.033,19.064 18.213,19.216 18.301 C 19.566 18.503,19.693 18.664,19.693 18.904 C 19.693 19.185,19.607 19.262,18.865 19.648 C 18.105 20.043,17.908 20.176,17.088 20.850 C 16.133 21.634,15.831 21.800,15.362 21.800 C 14.960 21.800,14.453 21.537,14.228 21.211 L 14.118 21.053 14.177 20.656 C 14.329 19.646,14.364 19.216,14.401 17.935 C 14.423 17.168,14.459 16.515,14.483 16.452 C 14.506 16.391,14.563 16.300,14.610 16.250 C 14.717 16.135,14.967 16.127,15.074 16.234 " fill="#373B4D" stroke="none" fill-rule="evenodd"></path></svg>