<svg width="24" height="24" viewBox="0 0 24 24" fill="none" xmlns="http://www.w3.org/2000/svg"><path d="M10.784 2.046 C 10.002 2.146,9.595 2.353,9.218 2.843 C 8.972 3.162,8.816 3.490,8.711 3.909 C 8.632 4.222,8.623 4.355,8.627 5.140 C 8.629 5.637,8.660 6.299,8.698 6.660 C 8.734 7.012,8.774 7.518,8.787 7.784 C 8.832 8.692,8.710 8.947,7.585 10.300 C 7.023 10.976,6.820 11.346,6.640 12.018 C 6.430 12.802,6.294 13.142,5.875 13.926 C 5.656 14.336,5.439 14.777,5.393 14.906 C 5.296 15.179,5.252 15.633,5.311 15.744 C 5.341 15.800,5.338 15.841,5.300 15.894 C 5.270 15.934,5.205 16.085,5.154 16.230 C 5.021 16.604,4.951 16.640,4.345 16.640 C 3.823 16.640,3.703 16.680,3.537 16.907 C 3.340 17.177,3.310 17.450,3.404 18.119 C 3.523 18.965,3.519 18.998,3.240 19.543 C 2.992 20.027,2.960 20.167,3.056 20.352 C 3.166 20.565,3.628 20.741,4.434 20.879 C 5.025 20.980,5.725 21.170,6.720 21.501 C 7.888 21.889,8.243 21.946,8.680 21.816 C 8.941 21.739,9.048 21.675,9.280 21.457 C 9.483 21.266,9.834 21.124,10.320 21.035 C 10.759 20.954,12.248 20.964,13.140 21.053 C 13.833 21.122,13.863 21.128,13.940 21.230 C 14.301 21.706,14.627 21.899,15.192 21.969 C 15.857 22.051,16.118 21.931,17.090 21.096 C 17.977 20.334,18.297 20.113,19.020 19.762 C 19.719 19.423,19.932 19.251,19.982 18.982 C 20.052 18.612,19.901 18.408,19.336 18.108 C 19.137 18.003,18.892 17.841,18.792 17.748 C 18.595 17.568,18.568 17.500,18.467 16.936 C 18.391 16.515,18.275 16.251,18.142 16.201 C 18.086 16.179,18.040 16.151,18.040 16.137 C 18.040 16.124,18.078 15.930,18.124 15.706 C 18.242 15.135,18.215 14.142,18.065 13.507 C 17.829 12.506,17.237 11.320,16.594 10.556 C 16.141 10.019,15.470 9.018,15.188 8.460 C 14.900 7.888,14.833 7.542,14.679 5.840 C 14.574 4.667,14.374 3.812,14.097 3.353 C 13.796 2.854,13.225 2.394,12.669 2.203 C 12.142 2.022,11.432 1.962,10.784 2.046 M12.653 5.088 C 12.987 5.271,13.119 5.843,13.002 6.593 C 12.921 7.106,12.930 7.087,12.798 7.019 C 12.735 6.987,12.648 6.960,12.604 6.960 C 12.471 6.960,12.470 6.887,12.602 6.819 C 12.930 6.650,12.924 5.958,12.593 5.659 C 12.470 5.547,12.407 5.520,12.272 5.520 C 11.900 5.520,11.698 5.815,11.727 6.318 C 11.735 6.473,11.732 6.600,11.719 6.600 C 11.577 6.600,11.442 6.263,11.414 5.840 C 11.396 5.580,11.406 5.516,11.487 5.361 C 11.682 4.985,12.230 4.857,12.653 5.088 M9.955 5.177 C 10.016 5.209,10.118 5.312,10.182 5.407 C 10.285 5.559,10.301 5.623,10.313 5.931 C 10.329 6.301,10.305 6.480,10.239 6.480 C 10.218 6.480,10.200 6.411,10.200 6.327 C 10.200 5.942,9.973 5.558,9.747 5.561 C 9.505 5.565,9.311 5.804,9.287 6.125 C 9.263 6.463,9.305 6.622,9.458 6.776 L 9.593 6.910 9.493 6.964 C 9.402 7.012,9.386 7.008,9.314 6.919 C 9.270 6.864,9.196 6.739,9.149 6.640 C 8.964 6.253,9.086 5.457,9.365 5.222 C 9.506 5.103,9.773 5.083,9.955 5.177 M9.838 5.759 C 9.970 5.830,10.061 6.240,9.945 6.240 C 9.914 6.240,9.868 6.161,9.840 6.060 C 9.798 5.911,9.773 5.880,9.695 5.880 C 9.642 5.880,9.600 5.856,9.600 5.827 C 9.600 5.718,9.705 5.688,9.838 5.759 M12.552 5.802 C 12.601 5.846,12.640 5.923,12.641 5.972 C 12.641 6.020,12.652 6.100,12.665 6.150 C 12.700 6.281,12.607 6.263,12.557 6.130 C 12.535 6.070,12.461 5.973,12.392 5.916 C 12.265 5.810,12.266 5.720,12.395 5.720 C 12.433 5.720,12.504 5.757,12.552 5.802 M11.520 6.659 C 12.962 7.164,13.240 7.313,13.240 7.582 C 13.240 7.773,13.074 7.945,12.544 8.306 C 11.638 8.923,11.194 9.125,10.742 9.127 C 10.374 9.128,10.100 9.006,9.756 8.688 C 9.343 8.306,9.062 7.902,9.370 8.133 C 9.592 8.300,9.918 8.444,10.212 8.505 C 10.658 8.598,11.121 8.501,11.760 8.181 C 12.164 7.978,12.632 7.672,12.570 7.650 C 12.543 7.641,12.520 7.608,12.520 7.577 C 12.520 7.545,12.512 7.520,12.502 7.520 C 12.491 7.520,12.337 7.619,12.158 7.741 C 11.192 8.399,10.474 8.553,9.822 8.241 C 9.514 8.094,9.160 7.772,9.160 7.640 C 9.160 7.320,9.843 6.774,10.520 6.554 C 10.801 6.462,11.023 6.486,11.520 6.659 M10.400 6.676 C 10.324 6.697,10.297 6.734,10.287 6.832 C 10.272 6.995,10.346 7.000,10.493 6.848 C 10.665 6.668,10.634 6.611,10.400 6.676 M10.880 6.713 C 10.880 6.813,11.061 6.976,11.138 6.946 C 11.226 6.913,11.215 6.851,11.102 6.738 C 10.986 6.622,10.880 6.610,10.880 6.713 M13.182 8.690 C 13.287 8.938,13.496 9.376,13.646 9.663 C 13.844 10.041,13.920 10.229,13.920 10.338 C 13.920 10.711,14.113 11.159,14.556 11.814 C 14.673 11.987,14.812 12.228,14.866 12.350 C 15.015 12.686,15.156 13.323,15.205 13.880 C 15.247 14.355,15.229 15.544,15.174 15.887 C 15.151 16.031,15.146 16.035,15.066 15.979 C 14.941 15.891,14.616 15.903,14.479 16.001 C 14.416 16.045,14.314 16.185,14.252 16.311 C 14.141 16.538,14.140 16.547,14.140 17.307 L 14.140 18.075 13.988 18.275 C 13.766 18.565,13.313 18.980,12.976 19.200 C 12.330 19.622,11.658 19.810,10.780 19.815 C 9.751 19.821,9.227 19.609,8.958 19.076 L 8.841 18.844 8.979 18.805 C 9.256 18.729,9.600 18.372,9.600 18.160 C 9.600 17.859,8.827 17.043,8.053 16.527 C 7.462 16.133,6.898 15.670,6.752 15.457 C 6.692 15.371,6.615 15.219,6.580 15.120 C 6.490 14.867,6.498 14.335,6.597 13.949 C 6.738 13.402,7.376 11.986,7.555 11.824 C 7.627 11.759,7.760 11.773,7.760 11.845 C 7.760 11.865,7.688 11.986,7.600 12.115 C 7.401 12.407,7.078 13.081,6.943 13.486 C 6.713 14.176,6.656 14.795,6.795 15.100 C 6.871 15.266,7.065 15.520,7.117 15.520 C 7.133 15.520,7.139 15.377,7.128 15.203 C 7.105 14.799,7.205 14.193,7.385 13.641 C 7.461 13.410,7.738 12.780,8.002 12.241 C 8.265 11.701,8.480 11.218,8.480 11.166 C 8.480 10.981,8.724 10.349,9.019 9.769 C 9.184 9.445,9.343 9.074,9.372 8.945 L 9.424 8.710 9.732 8.972 C 9.902 9.116,10.108 9.258,10.190 9.287 C 10.416 9.366,11.016 9.354,11.280 9.265 C 11.742 9.109,12.239 8.819,12.720 8.426 C 12.841 8.326,12.952 8.244,12.966 8.243 C 12.981 8.241,13.078 8.443,13.182 8.690 M15.492 11.466 C 15.852 11.651,16.170 12.059,16.347 12.561 C 16.536 13.099,16.523 14.107,16.317 14.875 C 16.273 15.038,16.246 15.179,16.257 15.190 C 16.267 15.201,16.435 15.226,16.628 15.245 C 17.351 15.318,17.799 15.579,17.925 16.001 C 18.009 16.281,17.914 16.271,17.728 15.978 C 17.580 15.746,17.530 15.701,17.309 15.601 C 16.891 15.412,16.366 15.349,16.025 15.448 C 15.907 15.482,15.777 15.579,15.566 15.791 C 15.405 15.953,15.262 16.075,15.249 16.062 C 15.169 15.982,15.622 15.410,15.837 15.321 C 15.966 15.268,16.030 15.128,16.160 14.620 C 16.405 13.665,16.293 12.646,15.881 12.071 C 15.743 11.878,15.361 11.567,15.194 11.511 C 15.122 11.487,15.193 11.400,15.284 11.400 C 15.328 11.400,15.422 11.430,15.492 11.466 M6.300 15.854 C 6.708 16.044,6.953 16.337,7.517 17.311 C 7.609 17.472,7.876 17.859,8.110 18.171 C 8.644 18.886,8.842 19.193,9.041 19.609 C 9.243 20.034,9.320 20.342,9.320 20.722 C 9.320 20.996,9.308 21.045,9.205 21.187 C 8.989 21.485,8.520 21.720,8.141 21.720 C 7.937 21.720,7.482 21.589,6.687 21.302 C 5.875 21.010,5.189 20.823,4.472 20.701 C 3.797 20.585,3.470 20.476,3.306 20.312 C 3.158 20.164,3.174 20.074,3.438 19.540 C 3.709 18.995,3.739 18.797,3.639 18.229 C 3.537 17.641,3.538 17.391,3.645 17.171 C 3.774 16.904,3.847 16.874,4.451 16.840 C 4.742 16.824,5.029 16.791,5.088 16.767 C 5.222 16.713,5.303 16.588,5.339 16.380 C 5.391 16.078,5.562 15.894,5.880 15.797 C 6.040 15.749,6.088 15.755,6.300 15.854 M15.041 16.187 C 15.132 16.241,15.176 16.321,15.257 16.580 C 15.442 17.174,15.703 17.396,16.256 17.430 C 16.675 17.456,16.928 17.350,17.272 17.003 C 17.656 16.617,17.954 16.360,18.018 16.360 C 18.090 16.360,18.185 16.620,18.260 17.020 C 18.375 17.636,18.626 17.991,19.129 18.244 C 19.428 18.395,19.554 18.489,19.649 18.633 C 19.792 18.850,19.698 19.241,19.472 19.366 C 19.421 19.394,19.243 19.473,19.075 19.543 C 18.708 19.695,18.097 20.035,17.821 20.241 C 17.710 20.323,17.377 20.601,17.080 20.858 C 16.153 21.661,15.827 21.828,15.256 21.791 C 14.874 21.766,14.590 21.628,14.322 21.335 C 14.211 21.213,14.120 21.084,14.120 21.047 C 14.120 21.010,14.147 20.839,14.180 20.666 C 14.213 20.494,14.240 20.268,14.240 20.163 C 14.240 20.059,14.276 19.777,14.319 19.537 C 14.387 19.164,14.399 18.921,14.400 17.880 C 14.401 16.561,14.418 16.416,14.601 16.233 C 14.731 16.103,14.874 16.088,15.041 16.187 " fill="#373B4D" stroke="none" fill-rule="evenodd"></path></svg>