<svg width="24" height="24" viewBox="0 0 24 24" fill="none" xmlns="http://www.w3.org/2000/svg"><path d="M4.000 5.035 C 3.762 5.085,3.477 5.251,3.317 5.433 C 3.122 5.654,3.034 5.921,3.035 6.284 C 3.037 6.756,3.273 7.126,3.728 7.368 C 3.868 7.443,3.962 7.460,4.240 7.460 C 4.531 7.460,4.613 7.443,4.807 7.348 C 5.248 7.132,5.456 6.779,5.458 6.240 C 5.460 5.937,5.447 5.877,5.342 5.687 C 5.277 5.570,5.161 5.419,5.084 5.351 C 4.798 5.101,4.333 4.965,4.000 5.035 M9.640 5.035 C 8.914 5.058,8.846 5.067,8.665 5.160 C 8.258 5.367,8.034 5.766,8.035 6.277 C 8.036 6.621,8.123 6.838,8.364 7.100 C 8.597 7.353,8.697 7.396,9.150 7.440 C 9.664 7.490,19.336 7.490,19.850 7.440 C 20.303 7.396,20.403 7.353,20.636 7.100 C 20.876 6.839,20.964 6.621,20.965 6.279 C 20.966 5.749,20.768 5.402,20.328 5.168 L 20.091 5.041 15.255 5.025 C 12.596 5.017,10.069 5.021,9.640 5.035 M4.000 11.035 C 3.762 11.085,3.477 11.251,3.317 11.433 C 3.122 11.654,3.034 11.921,3.035 12.284 C 3.037 12.756,3.273 13.126,3.728 13.368 C 3.868 13.443,3.962 13.460,4.240 13.460 C 4.531 13.460,4.613 13.443,4.807 13.348 C 5.248 13.132,5.456 12.779,5.458 12.240 C 5.460 11.937,5.447 11.877,5.342 11.687 C 5.277 11.570,5.161 11.419,5.084 11.351 C 4.798 11.101,4.333 10.965,4.000 11.035 M9.640 11.035 C 8.914 11.058,8.846 11.067,8.665 11.160 C 8.258 11.367,8.034 11.766,8.035 12.277 C 8.036 12.621,8.123 12.838,8.364 13.100 C 8.597 13.353,8.697 13.396,9.150 13.440 C 9.664 13.490,19.336 13.490,19.850 13.440 C 20.303 13.396,20.403 13.353,20.636 13.100 C 20.876 12.839,20.964 12.621,20.965 12.279 C 20.966 11.749,20.768 11.402,20.328 11.168 L 20.091 11.041 15.255 11.025 C 12.596 11.017,10.069 11.021,9.640 11.035 M4.000 17.035 C 3.762 17.085,3.477 17.251,3.317 17.433 C 3.122 17.654,3.034 17.921,3.035 18.284 C 3.037 18.756,3.273 19.126,3.728 19.368 C 3.868 19.443,3.962 19.460,4.240 19.460 C 4.531 19.460,4.613 19.443,4.807 19.348 C 5.248 19.132,5.456 18.779,5.458 18.240 C 5.460 17.937,5.447 17.877,5.342 17.687 C 5.277 17.570,5.161 17.419,5.084 17.351 C 4.798 17.101,4.333 16.965,4.000 17.035 M9.640 17.035 C 8.914 17.058,8.846 17.067,8.665 17.160 C 8.258 17.367,8.034 17.766,8.035 18.277 C 8.036 18.621,8.123 18.838,8.364 19.100 C 8.597 19.353,8.697 19.396,9.150 19.440 C 9.664 19.490,19.336 19.490,19.850 19.440 C 20.303 19.396,20.403 19.353,20.636 19.100 C 20.876 18.839,20.964 18.621,20.965 18.279 C 20.966 17.749,20.768 17.402,20.328 17.168 L 20.091 17.041 15.255 17.025 C 12.596 17.017,10.069 17.021,9.640 17.035 " stroke="none" fill-rule="evenodd"></path></svg>