<svg width="24" height="24" viewBox="0 0 24 24" fill="none" xmlns="http://www.w3.org/2000/svg"><path d="M3.918 5.052 C 3.366 5.208,3.026 5.660,3.023 6.240 C 3.022 6.636,3.133 6.891,3.425 7.157 C 3.702 7.411,3.950 7.496,4.335 7.471 C 4.978 7.429,5.430 6.978,5.471 6.338 C 5.496 5.949,5.412 5.703,5.157 5.425 C 4.839 5.076,4.352 4.929,3.918 5.052 M8.918 5.054 C 8.370 5.203,8.026 5.660,8.023 6.240 C 8.022 6.635,8.133 6.891,8.424 7.157 C 8.807 7.507,8.308 7.480,14.500 7.480 C 20.692 7.480,20.193 7.507,20.576 7.157 C 20.867 6.891,20.978 6.635,20.977 6.240 C 20.975 5.739,20.732 5.350,20.286 5.131 L 20.060 5.020 14.580 5.012 C 10.334 5.006,9.059 5.016,8.918 5.054 M3.918 11.052 C 3.366 11.208,3.026 11.660,3.023 12.240 C 3.022 12.636,3.133 12.891,3.425 13.157 C 3.702 13.411,3.950 13.496,4.335 13.471 C 4.978 13.429,5.430 12.978,5.471 12.338 C 5.496 11.949,5.412 11.703,5.157 11.425 C 4.839 11.076,4.352 10.929,3.918 11.052 M8.918 11.054 C 8.370 11.203,8.026 11.660,8.023 12.240 C 8.022 12.635,8.133 12.891,8.424 13.157 C 8.807 13.507,8.308 13.480,14.500 13.480 C 20.692 13.480,20.193 13.507,20.576 13.157 C 20.867 12.891,20.978 12.635,20.977 12.240 C 20.975 11.739,20.732 11.350,20.286 11.131 L 20.060 11.020 14.580 11.012 C 10.334 11.006,9.059 11.016,8.918 11.054 M3.918 17.052 C 3.366 17.208,3.026 17.660,3.023 18.240 C 3.022 18.636,3.133 18.891,3.425 19.157 C 3.702 19.411,3.950 19.496,4.335 19.471 C 4.978 19.429,5.430 18.978,5.471 18.338 C 5.496 17.949,5.412 17.703,5.157 17.425 C 4.839 17.076,4.352 16.929,3.918 17.052 M8.918 17.054 C 8.370 17.203,8.026 17.660,8.023 18.240 C 8.022 18.635,8.133 18.891,8.424 19.157 C 8.807 19.507,8.308 19.480,14.500 19.480 C 20.692 19.480,20.193 19.507,20.576 19.157 C 20.867 18.891,20.978 18.635,20.977 18.240 C 20.975 17.739,20.732 17.350,20.286 17.131 L 20.060 17.020 14.580 17.012 C 10.334 17.006,9.059 17.016,8.918 17.054 " stroke="none" fill="black" fill-rule="evenodd"></path></svg>