<svg width="24" height="24" viewBox="0 0 24 24" fill="none" xmlns="http://www.w3.org/2000/svg"><path d="M10.700 2.563 C 9.959 2.646,8.909 3.017,8.024 3.507 C 7.217 3.953,6.656 4.374,6.039 4.996 C 4.984 6.059,4.287 7.307,3.812 8.980 C 3.717 9.317,3.709 9.412,3.691 10.464 C 3.679 11.166,3.688 11.743,3.716 12.004 C 3.822 12.975,4.309 14.257,4.940 15.225 C 5.275 15.739,5.525 16.031,6.525 17.080 C 7.404 18.000,11.391 22.067,11.800 22.460 L 12.008 22.660 13.668 20.980 C 17.069 17.540,18.362 16.184,18.839 15.560 C 19.824 14.270,20.438 12.162,20.342 10.401 C 20.174 7.324,18.428 4.702,15.632 3.328 C 14.616 2.829,13.925 2.636,12.880 2.562 C 12.221 2.515,11.116 2.515,10.700 2.563 M12.997 8.730 C 13.391 8.952,13.896 9.449,14.082 9.800 L 14.220 10.060 14.220 10.821 L 14.220 11.583 14.080 11.820 C 13.898 12.127,13.409 12.626,13.083 12.836 C 12.459 13.237,11.725 13.264,11.020 12.911 C 10.595 12.698,10.150 12.238,9.864 11.717 C 9.720 11.454,9.720 11.453,9.720 10.949 C 9.720 10.341,9.765 10.104,9.946 9.756 C 10.205 9.259,10.732 8.788,11.240 8.599 C 11.438 8.525,11.522 8.519,12.077 8.538 L 12.694 8.559 12.997 8.730 " fill="#373B4D" stroke="none" fill-rule="evenodd"></path></svg>