<svg width="24" height="24" viewBox="0 0 24 24" fill="none" xmlns="http://www.w3.org/2000/svg"><path d="M10.680 2.548 C 10.347 2.603,9.544 2.819,9.211 2.944 C 8.657 3.150,7.854 3.566,7.342 3.911 C 5.524 5.138,4.371 6.823,3.777 9.120 C 3.624 9.712,3.636 11.905,3.795 12.540 C 4.131 13.882,4.671 14.983,5.461 15.940 C 5.797 16.348,8.052 18.679,10.587 21.239 L 11.994 22.660 12.321 22.340 C 12.501 22.164,13.649 21.003,14.872 19.760 C 18.563 16.008,18.918 15.610,19.395 14.681 C 20.437 12.652,20.635 10.337,19.946 8.236 C 19.465 6.767,18.705 5.622,17.502 4.551 C 16.960 4.068,16.345 3.665,15.600 3.304 C 14.287 2.669,13.516 2.515,11.700 2.525 C 11.194 2.528,10.735 2.538,10.680 2.548 M12.943 8.693 C 13.505 8.990,13.984 9.493,14.169 9.980 C 14.249 10.192,14.260 10.292,14.260 10.840 C 14.260 11.453,14.259 11.463,14.134 11.727 C 14.048 11.907,13.907 12.098,13.697 12.318 C 12.816 13.240,11.978 13.408,10.940 12.868 C 10.564 12.673,10.090 12.173,9.881 11.752 L 9.711 11.409 9.710 10.915 C 9.710 10.643,9.730 10.331,9.757 10.221 C 9.917 9.550,10.491 8.909,11.199 8.610 C 11.404 8.524,11.464 8.518,12.040 8.530 L 12.660 8.544 12.943 8.693 " fill="#373B4D" stroke="none" fill-rule="evenodd"></path></svg>