<svg width="24" height="24" viewBox="0 0 24 24" fill="none" xmlns="http://www.w3.org/2000/svg"><path d="M10.877 2.521 C 10.401 2.571,9.526 2.803,9.003 3.017 C 6.484 4.049,4.716 5.977,3.943 8.533 C 3.679 9.408,3.662 9.545,3.665 10.780 C 3.667 12.022,3.694 12.240,3.939 13.048 C 4.359 14.431,4.867 15.325,5.823 16.360 C 6.267 16.842,10.455 21.123,11.340 22.000 L 12.006 22.660 13.755 20.895 C 16.395 18.233,18.268 16.295,18.607 15.876 C 19.190 15.154,19.482 14.637,19.812 13.737 C 20.642 11.478,20.527 9.201,19.477 7.084 C 19.023 6.169,18.598 5.598,17.790 4.815 C 17.085 4.131,16.511 3.731,15.620 3.300 C 14.742 2.876,14.087 2.674,13.280 2.578 C 12.656 2.504,11.333 2.473,10.877 2.521 M12.680 8.569 C 13.096 8.693,13.703 9.169,13.968 9.578 C 14.212 9.954,14.299 10.293,14.295 10.840 C 14.289 11.570,14.157 11.881,13.631 12.404 C 12.978 13.053,12.337 13.291,11.653 13.140 C 10.858 12.964,10.250 12.490,9.861 11.744 C 9.750 11.531,9.724 11.429,9.700 11.115 C 9.647 10.404,9.793 9.855,10.163 9.376 C 10.462 8.989,11.078 8.587,11.472 8.522 C 11.709 8.483,12.494 8.514,12.680 8.569 " fill="#373B4D" stroke="none" fill-rule="evenodd"></path></svg>