<svg width="24" height="24" viewBox="0 0 24 24" fill="none" xmlns="http://www.w3.org/2000/svg"><path d="M10.548 2.561 C 8.883 2.871,7.265 3.732,6.058 4.951 C 4.865 6.156,4.112 7.568,3.749 9.280 C 3.669 9.656,3.660 9.814,3.661 10.800 C 3.661 12.072,3.699 12.327,4.043 13.375 C 4.454 14.627,4.932 15.412,5.930 16.480 C 6.552 17.145,10.487 21.160,11.516 22.179 L 12.000 22.659 12.524 22.139 C 13.700 20.973,17.706 16.888,18.169 16.383 C 18.934 15.549,19.303 14.995,19.660 14.143 C 20.654 11.769,20.599 9.353,19.498 7.100 C 19.249 6.591,18.917 6.068,18.570 5.638 C 18.294 5.296,17.533 4.537,17.193 4.263 C 16.258 3.511,14.719 2.793,13.680 2.625 C 12.707 2.467,11.216 2.436,10.548 2.561 M12.935 8.674 C 13.479 8.945,13.916 9.372,14.123 9.834 C 14.390 10.429,14.377 11.314,14.093 11.851 C 13.928 12.164,13.322 12.750,12.975 12.930 C 12.410 13.225,11.942 13.262,11.332 13.060 C 10.729 12.860,10.191 12.390,9.878 11.790 C 9.727 11.502,9.714 11.449,9.693 11.070 C 9.662 10.521,9.725 10.134,9.905 9.766 C 10.198 9.165,10.905 8.612,11.520 8.503 C 11.575 8.493,11.843 8.491,12.115 8.499 C 12.602 8.512,12.616 8.515,12.935 8.674 " fill="#373B4D" stroke="none" fill-rule="evenodd"></path></svg>