<svg width="24" height="24" viewBox="0 0 24 24" fill="none" xmlns="http://www.w3.org/2000/svg"><path d="M10.840 2.602 C 10.270 2.638,9.796 2.749,9.200 2.985 C 7.936 3.486,6.757 4.261,5.941 5.127 C 4.941 6.190,4.338 7.280,3.842 8.922 L 3.680 9.460 3.680 10.775 L 3.680 12.091 3.860 12.707 C 4.177 13.792,4.544 14.624,5.007 15.310 C 5.269 15.698,5.813 16.313,6.928 17.480 C 8.214 18.826,11.961 22.640,11.997 22.640 C 12.061 22.640,16.354 18.244,17.997 16.495 C 18.288 16.185,18.630 15.793,18.756 15.625 C 19.387 14.783,19.840 13.764,20.172 12.440 L 20.297 11.940 20.294 10.800 C 20.290 9.491,20.256 9.256,19.936 8.291 C 19.378 6.611,18.417 5.257,17.074 4.258 C 16.045 3.492,14.738 2.878,13.760 2.701 C 13.081 2.578,11.856 2.536,10.840 2.602 M13.000 8.749 C 13.289 8.938,13.758 9.394,14.004 9.725 L 14.200 9.990 14.200 10.810 L 14.200 11.631 14.027 11.866 C 13.774 12.207,13.174 12.760,12.895 12.909 C 12.631 13.050,12.233 13.158,11.979 13.159 C 11.775 13.160,11.290 13.026,11.042 12.901 C 10.662 12.709,10.056 12.055,9.851 11.616 C 9.750 11.402,9.740 11.340,9.742 10.940 C 9.748 9.956,10.081 9.358,10.960 8.760 L 11.260 8.556 12.020 8.581 L 12.780 8.605 13.000 8.749 " fill="#373B4D" stroke="none" fill-rule="evenodd"></path></svg>