<svg width="24" height="24" viewBox="0 0 24 24" fill="none" xmlns="http://www.w3.org/2000/svg"><path d="M10.880 2.503 C 9.995 2.623,9.088 2.916,8.212 3.364 C 5.794 4.601,4.098 6.942,3.699 9.593 C 3.609 10.189,3.619 11.553,3.718 12.126 C 3.950 13.466,4.509 14.778,5.260 15.740 C 5.574 16.143,7.481 18.117,10.031 20.679 L 12.002 22.660 14.585 20.060 C 17.210 17.418,18.323 16.260,18.755 15.720 C 19.343 14.986,19.862 13.857,20.143 12.700 C 20.450 11.437,20.449 10.060,20.142 8.849 C 19.752 7.311,19.051 6.055,17.980 4.978 C 17.141 4.134,16.410 3.628,15.340 3.151 C 14.416 2.739,13.852 2.598,12.840 2.524 C 11.818 2.449,11.315 2.444,10.880 2.503 M12.536 8.519 C 13.064 8.606,13.816 9.194,14.075 9.722 C 14.260 10.100,14.319 10.366,14.320 10.822 C 14.320 11.526,14.166 11.900,13.664 12.410 C 12.861 13.224,11.958 13.402,11.000 12.935 C 10.577 12.729,10.080 12.225,9.859 11.780 C 9.703 11.466,9.700 11.451,9.686 10.956 C 9.671 10.402,9.724 10.101,9.901 9.736 C 10.112 9.301,10.777 8.718,11.247 8.556 C 11.489 8.473,12.138 8.454,12.536 8.519 " fill="#373B4D" stroke="none" fill-rule="evenodd"></path></svg>