<svg width="24" height="24" viewBox="0 0 24 24" fill="none" xmlns="http://www.w3.org/2000/svg"><path d="M10.680 2.603 C 10.038 2.651,9.301 2.891,8.385 3.348 C 7.507 3.787,6.813 4.269,6.187 4.876 C 5.061 5.966,4.310 7.261,3.840 8.926 L 3.680 9.491 3.680 10.779 L 3.680 12.066 3.816 12.563 C 4.171 13.856,4.661 14.912,5.244 15.640 C 5.776 16.306,7.275 17.873,10.712 21.360 L 11.993 22.660 12.520 22.140 C 13.866 20.811,18.151 16.374,18.549 15.897 C 19.303 14.994,19.852 13.816,20.186 12.380 C 20.294 11.916,20.298 11.862,20.299 10.800 C 20.299 9.528,20.262 9.276,19.918 8.228 C 19.200 6.041,17.717 4.378,15.541 3.319 C 14.567 2.844,13.991 2.683,12.984 2.602 C 12.405 2.555,11.314 2.556,10.680 2.603 M13.031 8.767 C 13.358 8.980,13.760 9.374,14.010 9.727 L 14.200 9.994 14.200 10.808 L 14.200 11.621 14.065 11.821 C 13.893 12.073,13.409 12.562,13.111 12.783 C 12.832 12.989,12.473 13.118,12.100 13.146 C 11.872 13.163,11.753 13.147,11.460 13.061 C 10.974 12.918,10.834 12.828,10.417 12.389 C 9.863 11.806,9.725 11.527,9.722 10.980 C 9.719 10.407,9.880 9.834,10.143 9.484 C 10.338 9.224,10.741 8.880,11.080 8.682 L 11.300 8.554 12.033 8.574 L 12.766 8.595 13.031 8.767 " fill="#373B4D" stroke="none" fill-rule="evenodd"></path></svg>