<svg width="24" height="24" viewBox="0 0 24 24" fill="none" xmlns="http://www.w3.org/2000/svg"><path d="M10.391 2.623 C 9.277 2.824,7.745 3.564,6.699 4.406 C 5.341 5.499,4.332 7.095,3.834 8.940 L 3.704 9.420 3.702 10.760 L 3.700 12.100 3.815 12.560 C 4.043 13.469,4.399 14.328,4.869 15.104 C 5.302 15.819,5.945 16.513,9.973 20.610 C 11.071 21.727,11.984 22.640,12.002 22.640 C 12.079 22.640,17.751 16.817,18.450 16.020 C 19.372 14.969,19.975 13.624,20.259 11.985 C 20.353 11.438,20.343 10.023,20.241 9.457 C 19.980 8.014,19.399 6.717,18.527 5.635 C 18.215 5.249,17.459 4.518,17.075 4.231 C 16.605 3.880,16.109 3.580,15.540 3.301 C 14.659 2.871,13.995 2.679,13.113 2.601 C 12.443 2.541,10.766 2.555,10.391 2.623 M12.986 8.732 C 13.336 8.944,13.766 9.358,13.999 9.706 L 14.200 10.007 14.200 10.814 L 14.200 11.621 14.055 11.841 C 13.842 12.162,13.214 12.760,12.932 12.910 C 12.662 13.054,12.270 13.159,11.996 13.159 C 11.755 13.160,11.260 13.032,11.002 12.901 C 10.735 12.766,10.227 12.255,9.969 11.863 C 9.795 11.598,9.761 11.514,9.737 11.290 C 9.679 10.740,9.776 10.125,9.989 9.700 C 10.140 9.400,10.676 8.893,11.040 8.706 L 11.340 8.552 12.041 8.568 L 12.743 8.584 12.986 8.732 " fill="#373B4D" stroke="none" fill-rule="evenodd"></path></svg>