<svg width="24" height="24" viewBox="0 0 24 24" fill="none" xmlns="http://www.w3.org/2000/svg"><path d="M10.820 2.557 C 10.119 2.627,9.355 2.864,8.500 3.276 C 6.952 4.023,5.840 4.990,4.942 6.371 C 4.381 7.234,3.789 8.765,3.719 9.533 C 3.669 10.088,3.671 11.625,3.721 12.041 C 3.774 12.470,3.962 13.183,4.147 13.655 C 4.362 14.206,4.811 15.057,5.094 15.452 C 5.534 16.065,6.812 17.411,10.688 21.340 L 11.990 22.660 12.081 22.580 C 12.131 22.536,13.216 21.438,14.493 20.140 C 16.939 17.654,18.210 16.324,18.676 15.760 C 19.470 14.802,20.036 13.415,20.285 11.820 C 20.350 11.399,20.352 10.194,20.288 9.740 C 19.890 6.930,18.239 4.644,15.680 3.360 C 14.819 2.928,14.189 2.725,13.386 2.621 C 12.834 2.549,11.286 2.511,10.820 2.557 M12.820 8.631 C 13.254 8.850,13.800 9.354,14.050 9.767 L 14.200 10.015 14.200 10.823 L 14.200 11.631 14.040 11.871 C 13.822 12.197,13.189 12.794,12.918 12.929 C 12.293 13.241,11.638 13.225,10.958 12.880 C 10.698 12.748,10.125 12.154,9.917 11.801 C 9.743 11.507,9.740 11.497,9.726 11.079 C 9.700 10.309,9.836 9.827,10.206 9.376 C 10.509 9.008,11.025 8.647,11.380 8.556 C 11.582 8.505,12.683 8.562,12.820 8.631 " fill="#373B4D" stroke="none" fill-rule="evenodd"></path></svg>