<svg width="24" height="24" viewBox="0 0 24 24" fill="none" xmlns="http://www.w3.org/2000/svg"><path d="M10.632 2.519 C 9.723 2.685,9.127 2.877,8.337 3.259 C 7.340 3.742,6.521 4.364,5.726 5.242 C 4.162 6.967,3.387 9.400,3.659 11.728 C 3.864 13.478,4.537 15.008,5.645 16.240 C 5.872 16.493,7.394 18.041,9.027 19.680 L 11.996 22.660 14.142 20.520 C 16.880 17.789,18.491 16.125,18.816 15.692 C 19.528 14.743,20.045 13.494,20.284 12.140 C 20.406 11.454,20.417 10.207,20.308 9.556 C 20.067 8.122,19.544 6.882,18.706 5.760 C 18.349 5.283,17.530 4.461,17.067 4.114 C 16.073 3.372,14.887 2.834,13.680 2.578 C 13.228 2.483,13.078 2.471,12.120 2.457 C 11.199 2.444,11.004 2.452,10.632 2.519 M12.641 8.503 C 14.028 8.911,14.772 10.468,14.188 11.740 C 13.788 12.613,12.903 13.200,11.989 13.200 C 11.708 13.200,11.204 13.071,10.896 12.920 C 10.611 12.781,10.184 12.382,9.981 12.064 C 9.222 10.878,9.685 9.294,10.975 8.659 C 11.176 8.560,11.439 8.463,11.560 8.442 C 11.847 8.393,12.365 8.422,12.641 8.503 " fill="#373B4D" stroke="none" fill-rule="evenodd"></path></svg>