<svg width="24" height="24" viewBox="0 0 24 24" fill="none" xmlns="http://www.w3.org/2000/svg"><path d="M11.180 2.464 C 11.114 2.473,10.916 2.499,10.740 2.523 C 9.322 2.709,7.607 3.515,6.484 4.522 C 4.947 5.902,4.002 7.622,3.696 9.600 C 3.605 10.182,3.606 11.479,3.696 12.020 C 3.960 13.603,4.635 15.088,5.541 16.080 C 6.118 16.711,9.065 19.730,10.540 21.200 L 12.005 22.660 14.412 20.239 C 17.978 16.653,18.650 15.938,19.081 15.275 C 19.362 14.843,19.739 14.036,19.931 13.455 C 20.670 11.221,20.498 9.031,19.418 6.919 C 18.885 5.878,18.065 4.921,17.007 4.107 C 16.171 3.464,14.799 2.831,13.793 2.624 C 13.301 2.522,11.545 2.415,11.180 2.464 M12.746 8.561 C 12.954 8.632,13.415 8.916,13.600 9.088 C 14.167 9.613,14.433 10.385,14.320 11.180 C 14.248 11.687,14.075 12.010,13.643 12.443 C 12.917 13.170,12.104 13.365,11.200 13.030 C 10.555 12.790,9.929 12.130,9.730 11.480 C 9.587 11.009,9.657 10.196,9.880 9.760 C 10.178 9.175,10.929 8.578,11.482 8.485 C 11.791 8.434,12.499 8.476,12.746 8.561 " fill="#373B4D" stroke="none" fill-rule="evenodd"></path></svg>