<svg width="24" height="24" viewBox="0 0 24 24" fill="none" xmlns="http://www.w3.org/2000/svg"><path d="M10.637 2.643 C 10.222 2.704,9.367 3.089,8.740 3.498 C 8.361 3.746,7.757 4.276,7.415 4.663 C 6.810 5.348,6.297 6.427,6.143 7.340 C 6.063 7.809,6.001 8.846,6.000 9.700 C 6.000 10.074,5.988 10.472,5.975 10.584 L 5.950 10.788 5.734 10.857 C 5.373 10.970,4.756 11.302,4.480 11.530 C 4.136 11.815,3.765 12.301,3.687 12.571 C 3.636 12.748,3.624 13.301,3.611 16.240 L 3.595 19.700 3.807 20.060 C 4.097 20.549,4.652 21.104,5.138 21.390 L 5.495 21.600 12.006 21.600 L 18.517 21.600 18.813 21.420 C 19.343 21.099,19.899 20.543,20.220 20.013 L 20.400 19.717 20.400 16.214 L 20.400 12.712 20.255 12.436 C 19.865 11.694,19.060 11.054,18.270 10.857 L 18.000 10.790 17.999 9.985 C 17.997 9.017,17.941 7.802,17.881 7.426 C 17.780 6.795,17.365 5.757,16.986 5.188 C 16.737 4.813,15.778 3.850,15.355 3.549 C 14.785 3.143,13.709 2.709,13.100 2.638 C 12.715 2.593,10.950 2.596,10.637 2.643 M12.605 5.038 C 13.148 5.071,13.209 5.083,13.445 5.202 C 13.813 5.387,14.021 5.538,14.354 5.857 C 14.869 6.351,15.222 6.941,15.339 7.501 C 15.443 8.003,15.598 9.777,15.599 10.490 L 15.600 10.800 12.000 10.800 L 8.400 10.800 8.400 10.604 C 8.400 10.330,8.472 9.081,8.524 8.460 C 8.635 7.116,8.796 6.725,9.544 5.977 C 9.968 5.553,10.355 5.265,10.651 5.152 C 11.026 5.009,11.591 4.976,12.605 5.038 " fill="#373B4D" stroke="none" fill-rule="evenodd"></path></svg>