<svg width="24" height="24" viewBox="0 0 24 24" fill="none" xmlns="http://www.w3.org/2000/svg"><path d="M10.880 2.643 C 10.693 2.660,10.414 2.713,10.260 2.760 C 9.842 2.888,8.988 3.324,8.580 3.618 C 8.185 3.903,7.547 4.514,7.219 4.920 C 6.640 5.638,6.199 6.732,6.081 7.742 C 6.058 7.939,6.028 8.706,6.013 9.447 L 5.987 10.793 5.804 10.842 C 5.055 11.043,4.078 11.775,3.779 12.360 C 3.669 12.573,3.665 12.606,3.636 13.420 C 3.619 13.882,3.604 15.488,3.603 16.989 L 3.600 19.717 3.780 20.013 C 4.101 20.543,4.657 21.099,5.187 21.420 L 5.483 21.600 11.983 21.600 L 18.483 21.600 18.652 21.514 C 19.206 21.232,19.761 20.716,20.151 20.120 L 20.400 19.740 20.400 16.229 C 20.400 12.729,20.400 12.716,20.315 12.548 C 20.095 12.111,19.454 11.409,19.072 11.185 C 18.959 11.118,18.788 11.067,18.598 11.042 C 18.125 10.978,16.472 10.925,13.540 10.880 C 9.726 10.820,8.477 10.781,8.440 10.720 C 8.409 10.669,8.413 10.530,8.483 9.240 C 8.536 8.249,8.592 7.668,8.661 7.391 C 8.827 6.722,9.471 5.905,10.213 5.421 C 10.819 5.026,10.746 5.042,11.996 5.041 L 13.092 5.040 13.436 5.226 C 14.308 5.699,14.581 5.964,15.173 6.908 C 15.862 8.007,16.061 8.229,16.440 8.320 C 16.602 8.359,16.674 8.356,16.854 8.304 C 17.106 8.230,17.442 7.992,17.593 7.780 C 17.882 7.374,17.647 6.209,17.112 5.398 C 16.840 4.985,15.924 4.014,15.445 3.632 C 15.110 3.364,14.266 2.930,13.784 2.778 C 13.504 2.689,13.359 2.674,12.484 2.640 C 11.400 2.597,11.368 2.597,10.880 2.643 " fill="#373B4D" stroke="none" fill-rule="evenodd"></path></svg>