<svg width="24" height="24" viewBox="0 0 24 24" fill="none" xmlns="http://www.w3.org/2000/svg"><path d="M10.586 2.625 C 10.007 2.749,9.079 3.197,8.496 3.632 C 8.037 3.975,7.363 4.652,7.069 5.066 C 6.634 5.679,6.225 6.653,6.122 7.320 C 6.057 7.743,6.003 8.910,6.001 9.920 L 5.999 10.780 5.676 10.870 C 5.310 10.972,4.782 11.224,4.535 11.415 C 4.297 11.598,3.991 11.970,3.792 12.318 L 3.620 12.619 3.609 16.149 L 3.598 19.679 3.704 19.889 C 4.074 20.621,4.584 21.132,5.309 21.495 L 5.517 21.600 12.000 21.600 L 18.482 21.600 18.731 21.475 C 19.412 21.132,19.936 20.608,20.275 19.931 L 20.400 19.682 20.400 16.207 L 20.400 12.731 20.262 12.455 C 20.090 12.113,19.679 11.596,19.395 11.366 C 19.024 11.065,18.852 11.000,18.326 10.959 C 17.716 10.911,14.630 10.849,11.170 10.814 L 8.400 10.787 8.400 10.564 C 8.401 10.191,8.478 8.615,8.523 8.040 C 8.549 7.715,8.598 7.405,8.647 7.260 C 8.974 6.279,9.981 5.308,10.980 5.012 C 11.292 4.919,12.463 4.896,12.840 4.975 C 13.431 5.099,14.362 5.672,14.706 6.123 C 14.797 6.242,14.983 6.538,15.120 6.780 C 15.671 7.752,15.745 7.868,15.943 8.067 C 16.184 8.310,16.386 8.382,16.717 8.343 C 17.151 8.292,17.483 8.065,17.664 7.696 C 17.763 7.494,17.769 7.449,17.751 7.109 C 17.720 6.543,17.462 5.873,17.009 5.180 C 16.775 4.822,15.666 3.710,15.320 3.486 C 14.601 3.021,13.761 2.677,13.161 2.602 C 12.646 2.538,10.921 2.554,10.586 2.625 " fill="#373B4D" stroke="none" fill-rule="evenodd"></path></svg>