<svg width="24" height="24" viewBox="0 0 24 24" fill="none" xmlns="http://www.w3.org/2000/svg"><path d="M10.840 2.562 C 10.310 2.626,9.379 3.009,8.798 3.400 C 8.129 3.851,7.369 4.593,6.986 5.170 C 6.573 5.790,6.214 6.670,6.124 7.281 C 6.054 7.760,6.001 8.867,6.000 9.863 L 6.000 10.785 5.690 10.857 C 5.520 10.896,5.236 10.997,5.060 11.080 C 4.477 11.356,4.094 11.737,3.768 12.363 L 3.600 12.686 3.600 16.188 L 3.600 19.690 3.788 20.047 C 4.133 20.702,4.498 21.067,5.153 21.412 L 5.510 21.600 11.987 21.600 L 18.464 21.600 18.782 21.446 C 19.436 21.128,19.898 20.674,20.217 20.037 L 20.400 19.672 20.400 16.237 C 20.400 12.851,20.399 12.800,20.316 12.579 C 20.111 12.031,19.465 11.301,18.987 11.077 C 18.738 10.961,18.691 10.954,17.973 10.919 C 17.090 10.876,11.884 10.800,9.820 10.800 L 8.388 10.800 8.416 9.930 C 8.452 8.782,8.512 7.797,8.564 7.500 C 8.651 7.001,9.192 6.142,9.679 5.734 C 9.999 5.464,10.429 5.203,10.798 5.054 C 10.974 4.983,11.176 4.947,11.577 4.914 C 12.295 4.856,12.846 4.910,13.253 5.080 C 13.614 5.230,14.188 5.599,14.487 5.874 C 14.767 6.131,14.901 6.332,15.318 7.120 C 15.741 7.919,15.893 8.122,16.180 8.262 C 16.374 8.357,16.437 8.368,16.672 8.351 C 17.001 8.328,17.258 8.219,17.459 8.019 C 17.913 7.565,17.888 6.878,17.379 5.820 C 17.088 5.216,16.826 4.860,16.243 4.277 C 15.626 3.660,15.370 3.467,14.719 3.125 C 14.069 2.784,13.509 2.605,12.948 2.558 C 12.422 2.515,11.212 2.517,10.840 2.562 " fill="#373B4D" stroke="none" fill-rule="evenodd"></path></svg>