<svg width="24" height="24" viewBox="0 0 24 24" fill="none" xmlns="http://www.w3.org/2000/svg"><path d="M10.960 2.559 C 10.502 2.605,10.044 2.755,9.420 3.061 C 8.845 3.344,8.404 3.657,7.857 4.172 C 7.201 4.790,6.757 5.433,6.444 6.220 C 6.097 7.090,6.046 7.467,6.012 9.404 L 5.988 10.788 5.704 10.855 C 5.312 10.948,4.748 11.226,4.454 11.472 C 4.215 11.670,3.875 12.129,3.685 12.508 C 3.600 12.676,3.600 12.694,3.600 16.184 L 3.600 19.691 3.769 20.007 C 4.126 20.677,4.523 21.074,5.193 21.431 L 5.509 21.600 11.996 21.600 L 18.482 21.600 18.731 21.475 C 19.451 21.112,19.912 20.650,20.276 19.929 L 20.403 19.677 20.391 16.188 L 20.380 12.698 20.247 12.428 C 19.965 11.855,19.326 11.203,18.886 11.038 C 18.702 10.969,18.515 10.951,17.664 10.919 C 16.471 10.874,11.525 10.800,9.687 10.800 L 8.389 10.800 8.416 10.010 C 8.454 8.910,8.517 7.867,8.563 7.566 C 8.672 6.866,9.325 5.949,10.064 5.456 C 10.727 5.015,11.106 4.911,12.058 4.909 C 12.884 4.907,13.294 5.031,13.979 5.491 C 14.602 5.908,14.754 6.090,15.259 7.018 C 15.648 7.731,15.772 7.922,15.966 8.108 C 16.232 8.362,16.532 8.417,16.977 8.292 C 17.300 8.202,17.636 7.882,17.722 7.580 C 17.887 7.007,17.606 6.072,16.991 5.153 C 16.666 4.667,15.816 3.816,15.334 3.494 C 14.693 3.065,13.931 2.732,13.321 2.615 C 12.961 2.546,11.448 2.510,10.960 2.559 " fill="#373B4D" stroke="none" fill-rule="evenodd"></path></svg>