<svg width="24" height="24" viewBox="0 0 24 24" fill="none" xmlns="http://www.w3.org/2000/svg"><path d="M10.612 2.620 C 10.113 2.729,9.245 3.126,8.672 3.508 C 8.199 3.824,7.543 4.451,7.134 4.980 C 6.924 5.251,6.606 5.839,6.442 6.260 C 6.104 7.126,6.048 7.545,6.013 9.440 L 5.988 10.781 5.684 10.873 C 4.896 11.112,4.366 11.476,3.971 12.049 C 3.559 12.647,3.600 12.188,3.600 16.180 L 3.600 19.683 3.705 19.891 C 4.059 20.593,4.604 21.138,5.309 21.494 L 5.517 21.600 12.003 21.600 L 18.488 21.600 18.758 21.458 C 19.349 21.148,19.948 20.548,20.259 19.956 L 20.400 19.688 20.400 16.200 L 20.400 12.712 20.260 12.446 C 19.824 11.616,19.112 11.039,18.301 10.859 L 18.000 10.792 17.999 9.946 C 17.999 8.827,17.936 7.635,17.859 7.259 C 17.707 6.524,17.278 5.534,16.885 5.014 C 16.584 4.614,15.657 3.710,15.317 3.486 C 14.687 3.069,13.671 2.668,13.070 2.598 C 12.569 2.541,10.909 2.556,10.612 2.620 M13.197 5.084 C 14.180 5.424,15.084 6.395,15.356 7.402 C 15.462 7.791,15.600 9.590,15.600 10.566 L 15.600 10.800 11.994 10.800 L 8.388 10.800 8.415 10.090 C 8.505 7.757,8.598 7.166,8.968 6.600 C 9.188 6.263,9.827 5.628,10.189 5.388 C 10.774 4.998,10.989 4.955,12.200 4.988 C 12.819 5.004,13.025 5.024,13.197 5.084 " fill="#373B4D" stroke="none" fill-rule="evenodd"></path></svg>