<svg width="24" height="24" viewBox="0 0 24 24" fill="none" xmlns="http://www.w3.org/2000/svg"><path d="M11.020 2.598 C 10.800 2.615,10.533 2.650,10.426 2.676 C 10.029 2.771,8.948 3.315,8.520 3.637 C 8.117 3.939,7.426 4.613,7.168 4.956 C 6.714 5.559,6.263 6.594,6.139 7.318 C 6.066 7.742,6.002 8.884,6.001 9.764 C 6.000 10.130,5.989 10.509,5.976 10.606 L 5.951 10.783 5.686 10.874 C 4.916 11.137,4.382 11.509,3.969 12.070 C 3.588 12.588,3.626 12.161,3.607 16.149 L 3.591 19.677 3.739 19.946 C 4.084 20.574,4.622 21.114,5.243 21.455 L 5.507 21.600 12.006 21.600 L 18.505 21.600 18.862 21.390 C 19.348 21.104,19.904 20.548,20.190 20.062 L 20.400 19.705 20.400 16.209 L 20.400 12.712 20.258 12.441 C 19.853 11.670,19.090 11.058,18.288 10.862 L 18.012 10.794 17.987 9.447 C 17.952 7.506,17.908 7.198,17.535 6.266 C 17.318 5.727,17.089 5.292,16.872 5.011 C 16.579 4.629,15.633 3.720,15.295 3.495 C 14.757 3.138,14.011 2.823,13.320 2.661 C 13.010 2.589,11.621 2.551,11.020 2.598 M12.660 5.035 C 13.155 5.060,13.195 5.069,13.482 5.212 C 14.342 5.639,15.105 6.540,15.321 7.385 C 15.440 7.848,15.600 9.650,15.600 10.518 L 15.600 10.800 12.000 10.800 L 8.400 10.800 8.400 10.590 C 8.400 10.475,8.418 10.047,8.440 9.640 C 8.532 7.937,8.620 7.319,8.835 6.874 C 9.079 6.368,9.941 5.506,10.492 5.216 C 10.884 5.011,11.391 4.968,12.660 5.035 " fill="#373B4D" stroke="none" fill-rule="evenodd"></path></svg>