<svg width="24" height="24" viewBox="0 0 24 24" fill="none" xmlns="http://www.w3.org/2000/svg"><path d="M10.880 2.602 C 10.291 2.649,9.465 2.986,8.717 3.486 C 8.287 3.774,7.472 4.545,7.138 4.981 C 6.709 5.540,6.231 6.645,6.123 7.324 C 6.057 7.734,6.001 8.907,6.000 9.880 L 5.999 10.780 5.690 10.873 C 4.901 11.108,4.367 11.474,3.971 12.049 C 3.559 12.647,3.600 12.188,3.600 16.180 L 3.600 19.683 3.705 19.891 C 4.059 20.593,4.604 21.138,5.309 21.494 L 5.517 21.600 12.000 21.600 L 18.483 21.600 18.691 21.494 C 19.379 21.147,19.870 20.671,20.238 19.994 L 20.399 19.700 20.399 16.203 L 20.400 12.707 20.257 12.446 C 19.832 11.674,19.196 11.096,18.668 11.004 C 18.279 10.937,16.411 10.887,12.240 10.835 C 10.139 10.809,8.413 10.782,8.404 10.774 C 8.383 10.757,8.472 8.774,8.523 8.120 C 8.545 7.845,8.588 7.517,8.620 7.391 C 8.848 6.488,9.837 5.437,10.798 5.077 C 11.246 4.909,12.513 4.879,13.004 5.025 C 13.474 5.165,14.182 5.591,14.540 5.951 C 14.727 6.138,14.897 6.401,15.457 7.367 C 15.776 7.917,15.956 8.131,16.205 8.255 C 16.448 8.376,16.618 8.386,16.922 8.296 C 17.220 8.207,17.445 8.041,17.605 7.792 C 17.736 7.586,17.740 7.570,17.736 7.180 C 17.732 6.862,17.709 6.711,17.621 6.440 C 17.485 6.017,17.167 5.391,16.928 5.073 C 16.640 4.690,15.627 3.704,15.289 3.478 C 14.590 3.010,13.721 2.671,13.046 2.602 C 12.587 2.555,11.467 2.555,10.880 2.602 " fill="#373B4D" stroke="none" fill-rule="evenodd"></path></svg>