<svg width="24" height="24" viewBox="0 0 24 24" fill="none" xmlns="http://www.w3.org/2000/svg"><path d="M11.000 2.600 C 9.781 2.698,8.373 3.530,7.303 4.785 C 6.692 5.501,6.183 6.699,6.080 7.660 C 6.056 7.880,6.026 8.674,6.013 9.424 L 5.988 10.787 5.684 10.877 C 5.292 10.992,4.807 11.238,4.510 11.471 C 4.260 11.668,3.766 12.289,3.676 12.520 C 3.631 12.634,3.619 13.324,3.609 16.171 L 3.597 19.682 3.739 19.953 C 4.052 20.548,4.650 21.147,5.242 21.458 L 5.512 21.600 11.997 21.600 L 18.483 21.600 18.691 21.495 C 19.357 21.158,19.831 20.700,20.221 20.016 L 20.400 19.702 20.400 16.209 C 20.400 12.724,20.400 12.716,20.315 12.548 C 20.047 12.020,19.460 11.368,19.055 11.151 C 18.937 11.087,18.736 11.025,18.576 11.002 C 18.162 10.944,15.906 10.888,12.000 10.839 C 10.075 10.814,8.475 10.786,8.445 10.777 C 8.401 10.762,8.395 10.656,8.417 10.209 C 8.539 7.632,8.565 7.414,8.802 6.937 C 9.193 6.147,10.062 5.343,10.807 5.081 C 11.333 4.896,12.624 4.895,13.147 5.079 C 13.615 5.244,14.324 5.711,14.627 6.054 C 14.712 6.151,14.977 6.561,15.217 6.965 C 15.820 7.984,15.989 8.186,16.335 8.304 C 16.780 8.455,17.354 8.201,17.652 7.720 C 17.727 7.599,17.738 7.529,17.731 7.180 C 17.720 6.572,17.482 5.912,17.024 5.224 C 16.744 4.804,15.644 3.720,15.210 3.436 C 14.657 3.075,13.966 2.782,13.375 2.660 C 13.000 2.583,11.637 2.548,11.000 2.600 " fill="#373B4D" stroke="none" fill-rule="evenodd"></path></svg>