<svg width="24" height="24" viewBox="0 0 24 24" fill="none" xmlns="http://www.w3.org/2000/svg"><path d="M10.740 2.559 C 9.384 2.853,8.082 3.704,7.160 4.900 C 6.794 5.375,6.367 6.252,6.208 6.860 C 6.074 7.372,6.036 7.849,6.012 9.362 L 5.989 10.784 5.664 10.851 C 4.773 11.034,4.033 11.660,3.701 12.512 L 3.597 12.780 3.609 16.240 L 3.620 19.700 3.787 20.049 C 4.105 20.714,4.486 21.095,5.151 21.413 L 5.500 21.580 11.952 21.590 L 18.404 21.601 18.701 21.477 C 19.477 21.154,19.963 20.669,20.278 19.902 L 20.409 19.584 20.391 16.162 L 20.373 12.740 20.270 12.475 C 19.926 11.589,19.222 11.011,18.273 10.836 L 18.011 10.788 17.988 9.364 C 17.957 7.459,17.923 7.182,17.613 6.360 C 17.231 5.347,16.773 4.687,15.937 3.943 C 15.507 3.559,15.254 3.384,14.735 3.111 C 14.313 2.889,13.851 2.712,13.382 2.593 C 13.113 2.525,12.899 2.509,12.080 2.496 C 11.220 2.483,11.056 2.490,10.740 2.559 M13.038 4.986 C 13.287 5.055,13.736 5.274,14.000 5.453 C 14.266 5.634,14.666 6.027,14.862 6.302 C 15.131 6.677,15.436 7.338,15.480 7.640 C 15.523 7.932,15.600 9.689,15.600 10.361 L 15.600 10.800 11.994 10.800 L 8.387 10.800 8.414 9.730 C 8.465 7.634,8.532 7.233,8.937 6.583 C 9.454 5.753,10.449 5.026,11.215 4.920 C 11.577 4.870,12.777 4.913,13.038 4.986 " fill="#373B4D" stroke="none" fill-rule="evenodd"></path></svg>