<svg width="24" height="24" viewBox="0 0 24 24" fill="none" xmlns="http://www.w3.org/2000/svg"><path d="M11.480 2.444 C 10.098 2.538,8.819 3.137,7.778 4.178 C 7.102 4.854,6.669 5.521,6.358 6.366 C 6.060 7.173,6.003 7.699,6.001 9.644 L 6.000 10.789 5.774 10.816 C 4.830 10.927,4.012 11.591,3.717 12.485 L 3.620 12.780 3.620 16.200 L 3.620 19.620 3.717 19.915 C 3.951 20.625,4.575 21.249,5.285 21.483 L 5.580 21.580 12.000 21.580 L 18.420 21.580 18.715 21.483 C 19.425 21.249,20.049 20.625,20.283 19.915 L 20.380 19.620 20.380 16.200 L 20.380 12.780 20.283 12.485 C 20.064 11.821,19.518 11.236,18.871 10.973 C 18.498 10.822,17.848 10.803,12.864 10.801 L 8.387 10.800 8.414 9.310 C 8.444 7.701,8.461 7.547,8.678 7.039 C 9.101 6.044,9.969 5.262,11.011 4.937 C 11.291 4.850,12.331 4.813,12.700 4.877 C 13.344 4.989,14.087 5.407,14.603 5.948 C 14.983 6.345,15.168 6.651,15.404 7.270 C 15.617 7.830,15.740 8.029,15.959 8.175 C 16.469 8.512,17.079 8.451,17.496 8.022 C 17.860 7.647,17.920 7.206,17.699 6.540 C 17.400 5.643,16.925 4.879,16.243 4.198 C 15.758 3.715,15.473 3.494,14.940 3.189 C 14.248 2.794,13.304 2.496,12.622 2.458 C 12.423 2.447,12.179 2.433,12.080 2.426 C 11.981 2.420,11.711 2.428,11.480 2.444 " fill="#373B4D" stroke="none" fill-rule="evenodd"></path></svg>