<svg width="24" height="24" viewBox="0 0 24 24" fill="none" xmlns="http://www.w3.org/2000/svg"><path d="M10.980 2.518 C 10.848 2.534,10.576 2.595,10.375 2.653 C 9.361 2.946,8.566 3.433,7.718 4.279 C 7.120 4.877,6.793 5.362,6.454 6.160 C 6.103 6.985,6.043 7.415,6.012 9.362 L 5.989 10.784 5.664 10.851 C 4.773 11.034,4.033 11.660,3.701 12.512 L 3.597 12.780 3.609 16.240 L 3.620 19.700 3.787 20.049 C 4.105 20.714,4.486 21.095,5.151 21.413 L 5.500 21.580 11.952 21.590 L 18.404 21.601 18.701 21.477 C 19.473 21.156,19.963 20.668,20.274 19.913 L 20.400 19.606 20.400 16.229 C 20.400 12.983,20.397 12.844,20.322 12.625 C 20.172 12.189,19.993 11.912,19.620 11.538 C 19.190 11.106,18.958 10.978,18.500 10.919 C 18.154 10.875,13.089 10.803,10.184 10.801 L 8.388 10.800 8.416 9.770 C 8.431 9.204,8.462 8.453,8.484 8.101 C 8.531 7.364,8.600 7.148,8.986 6.530 C 9.371 5.914,9.887 5.465,10.606 5.120 C 11.025 4.919,11.418 4.864,12.260 4.889 C 12.809 4.905,12.886 4.917,13.160 5.025 C 13.806 5.281,14.514 5.789,14.817 6.214 C 14.995 6.463,15.191 6.827,15.520 7.517 C 15.807 8.118,16.142 8.374,16.640 8.374 C 17.103 8.374,17.591 8.038,17.733 7.623 C 17.904 7.119,17.721 6.375,17.202 5.468 C 16.642 4.489,15.674 3.579,14.638 3.059 C 14.244 2.861,13.604 2.630,13.280 2.568 C 13.007 2.516,11.306 2.479,10.980 2.518 " fill="#373B4D" stroke="none" fill-rule="evenodd"></path></svg>