<svg width="24" height="24" viewBox="0 0 24 24" fill="none" xmlns="http://www.w3.org/2000/svg"><path d="M10.880 2.601 C 10.693 2.616,10.423 2.669,10.280 2.717 C 9.878 2.853,9.062 3.258,8.682 3.511 C 8.314 3.756,7.511 4.509,7.201 4.900 C 6.795 5.412,6.361 6.329,6.200 7.013 C 6.081 7.521,6.038 8.073,6.008 9.478 L 5.980 10.776 5.620 10.899 C 4.864 11.156,4.422 11.461,4.008 12.011 C 3.855 12.214,3.706 12.443,3.676 12.520 C 3.631 12.634,3.619 13.324,3.609 16.171 L 3.597 19.682 3.739 19.953 C 4.052 20.548,4.650 21.147,5.242 21.458 L 5.512 21.600 12.003 21.600 L 18.493 21.600 18.757 21.455 C 19.374 21.116,19.916 20.574,20.257 19.954 L 20.400 19.693 20.400 16.205 L 20.400 12.717 20.295 12.509 C 20.139 12.200,19.974 11.970,19.702 11.685 C 19.289 11.251,18.857 10.999,18.290 10.862 L 18.000 10.791 18.000 9.886 C 17.999 8.922,17.944 7.789,17.877 7.360 C 17.782 6.758,17.308 5.616,16.932 5.085 C 16.702 4.760,15.786 3.838,15.437 3.581 C 14.816 3.123,13.674 2.668,12.973 2.600 C 12.529 2.557,11.392 2.557,10.880 2.601 M13.310 5.129 C 13.736 5.308,14.045 5.522,14.423 5.898 C 15.102 6.574,15.353 7.124,15.457 8.160 C 15.530 8.891,15.599 10.005,15.600 10.470 L 15.600 10.800 12.000 10.800 L 8.400 10.800 8.400 10.610 C 8.400 10.258,8.480 8.744,8.523 8.280 C 8.587 7.577,8.690 7.128,8.865 6.793 C 9.065 6.408,9.875 5.582,10.321 5.308 C 10.793 5.018,10.902 4.999,12.060 5.013 C 13.038 5.024,13.066 5.026,13.310 5.129 " fill="#373B4D" stroke="none" fill-rule="evenodd"></path></svg>