<svg width="24" height="24" viewBox="0 0 24 24" fill="none" xmlns="http://www.w3.org/2000/svg"><path d="M10.820 2.638 C 10.442 2.669,10.204 2.743,9.649 3.003 C 8.869 3.368,8.321 3.756,7.678 4.398 C 6.894 5.181,6.324 6.287,6.141 7.380 C 6.061 7.863,6.001 8.794,6.000 9.600 C 6.000 9.963,5.988 10.379,5.974 10.525 L 5.949 10.791 5.785 10.838 C 5.520 10.915,4.840 11.266,4.580 11.460 C 4.295 11.672,3.937 12.078,3.778 12.370 C 3.666 12.576,3.663 12.597,3.635 13.420 C 3.619 13.882,3.604 15.488,3.603 16.989 L 3.600 19.717 3.780 20.013 C 4.101 20.543,4.657 21.099,5.187 21.420 L 5.483 21.600 12.005 21.600 L 18.528 21.600 18.874 21.375 C 19.317 21.087,19.887 20.517,20.175 20.074 L 20.400 19.728 20.400 16.217 L 20.400 12.707 20.256 12.443 C 19.837 11.678,19.086 11.082,18.258 10.858 L 18.000 10.788 17.999 9.944 C 17.998 8.999,17.940 7.784,17.879 7.420 C 17.805 6.987,17.553 6.277,17.276 5.723 C 17.048 5.267,16.946 5.113,16.648 4.778 C 16.232 4.309,15.656 3.771,15.307 3.527 C 14.673 3.082,13.648 2.697,12.940 2.638 C 12.455 2.598,11.320 2.598,10.820 2.638 M12.540 5.040 C 13.175 5.079,13.183 5.080,13.500 5.240 C 14.241 5.613,14.985 6.442,15.241 7.180 C 15.385 7.596,15.529 8.845,15.585 10.170 L 15.612 10.800 12.001 10.800 L 8.389 10.800 8.416 10.230 C 8.464 9.224,8.560 8.030,8.620 7.673 C 8.744 6.943,8.971 6.551,9.651 5.897 C 10.533 5.047,10.899 4.939,12.540 5.040 " fill="#373B4D" stroke="none" fill-rule="evenodd"></path></svg>