<svg width="24" height="24" viewBox="0 0 24 24" fill="none" xmlns="http://www.w3.org/2000/svg"><path d="M10.604 2.660 C 9.523 2.903,8.463 3.549,7.549 4.520 C 7.364 4.716,7.131 4.999,7.031 5.148 C 6.646 5.725,6.308 6.521,6.155 7.215 C 6.065 7.625,6.002 8.749,6.001 9.985 L 6.000 10.789 5.750 10.857 C 5.054 11.046,4.390 11.498,3.969 12.070 C 3.588 12.588,3.626 12.161,3.607 16.149 L 3.591 19.677 3.739 19.946 C 4.084 20.574,4.622 21.114,5.243 21.455 L 5.507 21.600 11.995 21.600 L 18.483 21.600 18.691 21.494 C 19.357 21.158,19.900 20.611,20.314 19.860 L 20.403 19.700 20.391 16.180 L 20.380 12.660 20.265 12.452 C 19.981 11.940,19.343 11.276,18.979 11.116 C 18.891 11.077,18.666 11.026,18.479 11.004 C 18.042 10.951,15.637 10.892,11.640 10.837 C 9.891 10.813,8.445 10.778,8.426 10.761 C 8.365 10.702,8.528 7.921,8.619 7.476 C 8.804 6.575,9.847 5.438,10.811 5.086 C 11.091 4.984,11.128 4.980,11.980 4.981 C 12.796 4.981,12.879 4.988,13.120 5.074 C 13.456 5.193,13.940 5.476,14.311 5.772 C 14.623 6.019,14.758 6.205,15.400 7.270 C 15.864 8.038,16.114 8.280,16.511 8.343 C 16.854 8.398,17.311 8.170,17.589 7.806 C 17.715 7.640,17.720 7.620,17.720 7.265 C 17.720 6.619,17.496 5.947,17.057 5.279 C 16.840 4.948,15.816 3.895,15.410 3.586 C 14.966 3.247,14.207 2.882,13.601 2.714 C 13.333 2.640,13.166 2.629,12.080 2.616 C 11.122 2.605,10.805 2.615,10.604 2.660 " fill="#373B4D" stroke="none" fill-rule="evenodd"></path></svg>