<svg width="24" height="24" viewBox="0 0 24 24" fill="none" xmlns="http://www.w3.org/2000/svg"><path d="M10.920 2.628 C 10.228 2.669,9.157 3.151,8.351 3.783 C 7.912 4.128,7.274 4.796,7.028 5.168 C 6.505 5.960,6.179 6.845,6.080 7.740 C 6.056 7.960,6.026 8.737,6.012 9.466 L 5.988 10.793 5.744 10.860 C 4.873 11.102,3.872 11.934,3.687 12.571 C 3.636 12.748,3.624 13.301,3.611 16.240 L 3.595 19.700 3.807 20.060 C 4.097 20.549,4.652 21.104,5.138 21.390 L 5.495 21.600 11.997 21.600 L 18.500 21.600 18.829 21.414 C 19.370 21.109,19.859 20.614,20.237 19.991 L 20.400 19.721 20.400 16.219 L 20.400 12.717 20.304 12.529 C 20.018 11.965,19.289 11.224,18.885 11.087 C 18.551 10.973,16.975 10.919,11.620 10.840 C 8.938 10.801,8.459 10.783,8.420 10.721 C 8.393 10.676,8.470 9.118,8.544 8.240 C 8.589 7.692,8.630 7.430,8.699 7.230 C 8.972 6.440,9.808 5.556,10.669 5.149 L 10.940 5.020 11.986 5.020 L 13.032 5.020 13.446 5.230 C 13.931 5.475,14.461 5.865,14.658 6.121 C 14.735 6.221,14.988 6.608,15.220 6.981 C 15.753 7.836,15.946 8.085,16.188 8.227 C 16.571 8.452,17.061 8.341,17.464 7.938 C 17.685 7.717,17.720 7.626,17.720 7.276 C 17.720 6.701,17.512 6.022,17.164 5.460 C 16.821 4.906,15.725 3.784,15.185 3.432 C 14.868 3.226,14.313 2.961,13.860 2.799 C 13.512 2.674,13.470 2.669,12.620 2.638 C 11.740 2.606,11.334 2.603,10.920 2.628 " fill="#373B4D" stroke="none" fill-rule="evenodd"></path></svg>