<svg width="24" height="24" viewBox="0 0 24 24" fill="none" xmlns="http://www.w3.org/2000/svg"><path d="M10.580 2.600 C 9.377 2.914,8.356 3.560,7.432 4.591 C 7.064 5.002,6.840 5.343,6.583 5.888 C 6.336 6.413,6.223 6.739,6.141 7.170 C 6.064 7.573,6.001 8.795,6.000 9.903 L 6.000 10.786 5.674 10.857 C 4.840 11.036,4.170 11.554,3.793 12.313 L 3.620 12.660 3.609 16.167 L 3.599 19.675 3.794 20.057 C 4.135 20.721,4.479 21.065,5.143 21.405 L 5.524 21.601 12.012 21.590 L 18.500 21.580 18.900 21.382 C 19.235 21.216,19.356 21.128,19.645 20.840 C 19.938 20.548,20.020 20.435,20.185 20.098 L 20.380 19.700 20.380 16.220 L 20.380 12.740 20.289 12.514 C 20.071 11.977,19.473 11.300,19.016 11.075 C 18.799 10.968,18.710 10.950,18.236 10.918 C 17.610 10.876,12.297 10.800,9.990 10.800 L 8.400 10.800 8.400 10.510 C 8.400 9.935,8.481 8.092,8.521 7.749 C 8.544 7.556,8.598 7.301,8.642 7.183 C 8.738 6.926,9.093 6.351,9.330 6.067 C 9.700 5.626,10.478 5.118,11.000 4.978 C 11.305 4.896,12.182 4.862,12.639 4.914 C 12.955 4.951,13.080 4.988,13.388 5.137 C 14.053 5.458,14.576 5.873,14.879 6.320 C 14.961 6.441,15.178 6.837,15.362 7.200 C 15.860 8.186,16.115 8.400,16.732 8.351 C 17.398 8.297,17.845 7.759,17.788 7.079 C 17.742 6.528,17.369 5.658,16.890 4.986 C 16.583 4.555,15.904 3.883,15.438 3.550 C 14.744 3.054,13.756 2.633,13.110 2.559 C 12.929 2.538,12.348 2.522,11.820 2.524 C 11.026 2.526,10.812 2.540,10.580 2.600 " fill="#373B4D" stroke="none" fill-rule="evenodd"></path></svg>