<svg width="24" height="24" viewBox="0 0 24 24" fill="none" xmlns="http://www.w3.org/2000/svg"><path d="M10.960 2.557 C 10.363 2.613,9.435 2.997,8.660 3.509 C 8.152 3.846,7.352 4.637,7.032 5.120 C 6.594 5.783,6.275 6.545,6.138 7.260 C 6.065 7.644,6.002 8.880,6.001 9.980 L 5.999 10.780 5.676 10.870 C 5.310 10.972,4.782 11.224,4.535 11.415 C 4.297 11.598,3.991 11.970,3.792 12.318 L 3.620 12.619 3.609 16.149 L 3.598 19.679 3.704 19.889 C 4.074 20.621,4.584 21.132,5.309 21.495 L 5.517 21.600 12.000 21.600 L 18.483 21.600 18.691 21.494 C 19.396 21.138,19.941 20.593,20.295 19.891 L 20.400 19.683 20.400 16.200 L 20.400 12.717 20.295 12.509 C 19.826 11.581,19.144 11.030,18.236 10.843 L 18.011 10.797 17.988 9.408 C 17.955 7.487,17.916 7.198,17.563 6.293 C 17.371 5.800,17.197 5.451,16.999 5.160 C 16.664 4.667,15.825 3.829,15.320 3.482 C 14.808 3.130,13.910 2.747,13.303 2.622 C 12.947 2.548,11.488 2.508,10.960 2.557 M13.229 5.088 C 13.881 5.355,14.418 5.761,14.790 6.270 C 15.243 6.889,15.413 7.333,15.477 8.060 C 15.522 8.576,15.599 10.140,15.600 10.550 L 15.600 10.800 12.000 10.800 L 8.400 10.800 8.400 10.530 C 8.400 10.099,8.477 8.582,8.524 8.084 C 8.614 7.125,8.804 6.691,9.411 6.057 C 9.789 5.662,10.188 5.350,10.560 5.158 C 10.888 4.988,11.113 4.961,12.080 4.974 C 12.938 4.986,12.992 4.991,13.229 5.088 " fill="#373B4D" stroke="none" fill-rule="evenodd"></path></svg>