<svg width="24" height="24" viewBox="0 0 24 24" fill="none" xmlns="http://www.w3.org/2000/svg"><path d="M3.080 3.807 C 2.871 3.913,2.599 4.172,2.493 4.366 C 2.423 4.494,2.420 4.819,2.409 12.044 L 2.398 19.587 2.731 19.907 C 3.090 20.251,3.238 20.320,3.623 20.320 C 3.955 20.320,4.119 20.245,4.404 19.962 C 4.626 19.741,4.672 19.672,4.696 19.520 C 4.760 19.121,4.797 15.717,4.799 10.216 L 4.800 4.413 4.550 4.175 C 4.121 3.766,4.076 3.744,3.641 3.729 C 3.307 3.717,3.238 3.727,3.080 3.807 M16.425 7.348 C 16.306 7.361,16.227 7.409,16.079 7.557 C 15.858 7.778,15.748 7.977,15.687 8.261 C 15.599 8.677,15.741 8.932,16.565 9.835 C 16.793 10.085,17.068 10.391,17.175 10.515 L 17.371 10.739 17.215 10.765 C 17.130 10.779,16.295 10.802,15.360 10.817 C 11.530 10.875,9.066 10.926,8.489 10.959 C 7.816 10.998,7.703 11.036,7.510 11.291 C 7.313 11.550,7.264 11.687,7.266 11.980 C 7.268 12.341,7.361 12.526,7.733 12.910 L 8.014 13.200 12.750 13.200 L 17.486 13.200 16.865 13.850 C 15.855 14.908,15.663 15.180,15.666 15.560 C 15.669 16.018,15.935 16.438,16.340 16.622 C 16.802 16.832,17.092 16.769,17.621 16.345 C 18.018 16.027,20.803 13.246,21.125 12.846 C 21.445 12.450,21.535 12.267,21.533 12.020 C 21.529 11.562,21.263 11.233,19.315 9.279 C 18.158 8.118,17.486 7.498,17.300 7.420 C 17.166 7.363,16.662 7.322,16.425 7.348 " fill="#373B4D" stroke="none" fill-rule="evenodd"></path></svg>