<svg width="24" height="24" viewBox="0 0 24 24" fill="none" xmlns="http://www.w3.org/2000/svg"><path d="M3.128 3.814 C 2.952 3.906,2.588 4.237,2.506 4.380 C 2.439 4.497,2.409 7.268,2.404 13.907 L 2.400 19.594 2.690 19.858 C 3.072 20.207,3.229 20.280,3.594 20.280 C 3.928 20.280,4.099 20.220,4.352 20.012 C 4.615 19.797,4.679 19.617,4.721 18.968 C 4.741 18.667,4.770 15.270,4.785 11.420 L 4.813 4.420 4.570 4.195 C 4.278 3.925,4.067 3.818,3.720 3.762 C 3.369 3.706,3.327 3.710,3.128 3.814 M16.154 7.519 C 15.813 7.800,15.619 8.301,15.717 8.649 C 15.779 8.869,16.095 9.295,16.795 10.098 C 17.081 10.426,17.308 10.707,17.299 10.722 C 17.268 10.772,16.540 10.800,13.680 10.860 C 10.261 10.931,8.392 10.991,8.044 11.040 C 7.571 11.106,7.312 11.434,7.309 11.973 C 7.307 12.329,7.403 12.531,7.766 12.934 L 8.006 13.200 12.744 13.200 L 17.483 13.200 16.857 13.870 C 15.838 14.963,15.641 15.270,15.696 15.680 C 15.769 16.214,16.214 16.654,16.736 16.708 C 17.124 16.748,17.361 16.579,18.652 15.339 C 19.951 14.090,21.188 12.783,21.389 12.445 C 21.534 12.202,21.533 11.889,21.387 11.594 C 21.249 11.315,20.662 10.670,19.332 9.337 C 18.102 8.104,17.530 7.580,17.300 7.475 C 17.178 7.419,17.040 7.402,16.719 7.401 C 16.311 7.400,16.294 7.404,16.154 7.519 " fill="#373B4D" stroke="none" fill-rule="evenodd"></path></svg>