<svg width="24" height="24" viewBox="0 0 24 24" fill="none" xmlns="http://www.w3.org/2000/svg"><path d="M3.080 3.807 C 2.871 3.913,2.599 4.172,2.493 4.366 C 2.423 4.494,2.420 4.819,2.409 12.044 L 2.398 19.587 2.731 19.907 C 3.090 20.251,3.238 20.320,3.623 20.320 C 3.955 20.320,4.119 20.245,4.404 19.962 C 4.626 19.741,4.672 19.672,4.696 19.520 C 4.760 19.121,4.797 15.717,4.799 10.216 L 4.800 4.413 4.550 4.175 C 4.121 3.766,4.076 3.744,3.641 3.729 C 3.307 3.717,3.238 3.727,3.080 3.807 M11.690 7.321 C 11.619 7.337,11.464 7.424,11.346 7.515 C 10.792 7.943,8.632 10.070,7.809 10.999 C 7.331 11.537,7.224 11.718,7.223 11.984 C 7.222 12.397,7.555 12.801,9.497 14.743 C 11.291 16.538,11.549 16.742,12.020 16.738 C 12.596 16.733,13.131 16.196,13.135 15.620 C 13.138 15.200,12.926 14.889,11.915 13.830 L 11.314 13.200 16.052 13.200 L 20.790 13.200 21.079 12.896 C 21.425 12.531,21.518 12.346,21.519 12.020 C 21.520 11.668,21.457 11.495,21.248 11.271 C 20.952 10.954,20.943 10.952,19.880 10.916 C 19.013 10.886,13.016 10.799,11.890 10.800 C 11.619 10.800,11.400 10.784,11.400 10.763 C 11.400 10.743,11.682 10.424,12.026 10.053 C 12.370 9.683,12.753 9.255,12.876 9.103 L 13.100 8.826 13.100 8.423 C 13.100 7.946,13.038 7.785,12.787 7.600 C 12.487 7.379,11.991 7.253,11.690 7.321 " fill="#373B4D" stroke="none" fill-rule="evenodd"></path></svg>