<svg width="24" height="24" viewBox="0 0 24 24" fill="none" xmlns="http://www.w3.org/2000/svg"><path d="M3.120 3.743 C 2.942 3.820,2.577 4.175,2.477 4.368 C 2.402 4.513,2.400 4.699,2.400 12.036 L 2.400 19.556 2.603 19.800 C 2.715 19.934,2.877 20.095,2.964 20.158 C 3.267 20.378,3.719 20.413,4.098 20.245 C 4.335 20.140,4.623 19.847,4.678 19.654 C 4.768 19.341,4.797 17.182,4.799 10.890 L 4.800 4.441 4.587 4.190 C 4.348 3.909,4.177 3.780,3.965 3.721 C 3.751 3.661,3.281 3.674,3.120 3.743 M16.332 7.336 C 15.985 7.494,15.702 7.904,15.652 8.322 C 15.600 8.765,15.771 9.029,16.795 10.086 L 17.477 10.789 14.108 10.817 C 10.173 10.850,8.126 10.898,7.900 10.963 C 7.714 11.016,7.453 11.268,7.342 11.502 C 7.185 11.832,7.229 12.343,7.440 12.634 C 7.504 12.722,7.666 12.885,7.800 12.997 L 8.044 13.200 12.766 13.200 L 17.488 13.200 16.858 13.850 C 15.743 15.000,15.614 15.191,15.652 15.643 C 15.693 16.125,15.902 16.446,16.304 16.641 C 16.576 16.773,16.986 16.776,17.243 16.650 C 17.511 16.518,18.115 15.966,19.408 14.671 C 20.669 13.409,21.360 12.661,21.469 12.442 C 21.574 12.232,21.565 11.751,21.452 11.540 C 21.316 11.284,20.708 10.625,19.431 9.351 C 18.203 8.126,17.510 7.481,17.300 7.369 C 17.133 7.280,16.504 7.258,16.332 7.336 " fill="#373B4D" stroke="none" fill-rule="evenodd"></path></svg>