<svg width="24" height="24" viewBox="0 0 24 24" fill="none" xmlns="http://www.w3.org/2000/svg"><path d="M3.120 3.808 C 2.873 3.930,2.539 4.271,2.478 4.464 C 2.440 4.584,2.425 6.337,2.410 12.103 L 2.392 19.585 2.685 19.856 C 3.084 20.226,3.226 20.293,3.600 20.293 C 3.937 20.293,4.103 20.228,4.385 19.985 C 4.636 19.768,4.682 19.632,4.725 18.986 C 4.746 18.675,4.773 15.273,4.786 11.426 L 4.810 4.433 4.635 4.255 C 4.319 3.932,4.097 3.809,3.747 3.762 C 3.332 3.706,3.328 3.706,3.120 3.808 M11.586 7.380 C 11.261 7.549,9.943 8.777,8.726 10.042 C 7.493 11.325,7.240 11.649,7.240 11.946 C 7.240 12.151,7.353 12.410,7.562 12.680 C 7.866 13.073,9.493 14.770,10.254 15.488 C 11.413 16.580,11.653 16.743,12.059 16.710 C 12.628 16.665,13.058 16.241,13.110 15.677 C 13.148 15.252,12.939 14.933,11.872 13.795 L 11.315 13.200 16.054 13.200 L 20.793 13.200 21.041 12.930 C 21.563 12.361,21.652 11.862,21.318 11.377 C 21.153 11.137,21.013 11.050,20.716 11.003 C 20.407 10.954,18.212 10.896,14.540 10.840 C 13.044 10.818,11.734 10.789,11.630 10.776 L 11.440 10.752 11.518 10.646 C 11.561 10.588,11.939 10.153,12.358 9.680 L 13.120 8.820 13.120 8.597 C 13.120 8.263,13.044 7.915,12.941 7.779 C 12.816 7.614,12.497 7.448,12.171 7.379 C 11.828 7.306,11.727 7.306,11.586 7.380 " fill="#373B4D" stroke="none" fill-rule="evenodd"></path></svg>