<svg width="24" height="24" viewBox="0 0 24 24" fill="none" xmlns="http://www.w3.org/2000/svg"><path d="M3.340 3.677 C 3.252 3.692,3.120 3.737,3.046 3.776 C 2.861 3.873,2.582 4.160,2.483 4.355 L 2.400 4.517 2.400 12.028 L 2.401 19.540 2.570 19.765 C 2.886 20.184,3.201 20.360,3.630 20.360 C 4.038 20.359,4.497 20.073,4.651 19.724 C 4.777 19.440,4.796 18.303,4.798 11.080 L 4.799 4.460 4.629 4.233 C 4.419 3.954,4.196 3.772,4.005 3.724 C 3.773 3.665,3.512 3.647,3.340 3.677 M11.660 7.282 C 11.410 7.359,10.936 7.782,9.557 9.159 C 7.493 11.222,7.200 11.574,7.200 12.000 C 7.200 12.391,7.459 12.717,9.083 14.377 C 10.336 15.656,11.272 16.529,11.530 16.658 C 11.774 16.779,12.075 16.793,12.399 16.697 C 12.556 16.650,12.666 16.580,12.819 16.426 C 13.062 16.183,13.160 15.941,13.160 15.581 C 13.160 15.140,13.014 14.936,11.864 13.770 L 11.301 13.200 16.013 13.200 L 20.726 13.200 20.909 13.074 C 21.343 12.775,21.560 12.412,21.560 11.984 C 21.560 11.575,21.391 11.274,21.016 11.016 L 20.797 10.865 17.909 10.835 C 16.320 10.819,14.185 10.805,13.165 10.803 L 11.310 10.800 11.934 10.160 C 12.771 9.301,13.070 8.945,13.125 8.744 C 13.149 8.654,13.161 8.450,13.150 8.290 C 13.128 7.931,12.988 7.681,12.705 7.491 C 12.425 7.302,11.922 7.202,11.660 7.282 " fill="#373B4D" stroke="none" fill-rule="evenodd"></path></svg>