<svg width="24" height="24" viewBox="0 0 24 24" fill="none" xmlns="http://www.w3.org/2000/svg"><path d="M3.251 3.718 C 3.006 3.778,2.646 4.078,2.507 4.337 L 2.420 4.500 2.408 12.040 L 2.397 19.581 2.668 19.869 C 3.014 20.235,3.190 20.318,3.620 20.319 C 3.902 20.319,3.965 20.305,4.146 20.201 C 4.343 20.088,4.573 19.848,4.678 19.646 C 4.760 19.489,4.797 16.615,4.798 10.299 L 4.800 4.418 4.490 4.111 C 4.319 3.942,4.135 3.788,4.080 3.767 C 3.932 3.713,3.400 3.681,3.251 3.718 M11.459 7.415 C 11.153 7.622,10.333 8.396,9.078 9.665 C 7.558 11.201,7.285 11.528,7.219 11.887 C 7.139 12.324,7.485 12.761,9.497 14.773 C 11.163 16.439,11.475 16.695,11.908 16.746 C 12.482 16.814,13.076 16.326,13.146 15.728 C 13.202 15.262,12.987 14.929,11.923 13.830 L 11.312 13.200 16.026 13.200 L 20.740 13.200 20.960 13.027 C 21.081 12.932,21.252 12.750,21.340 12.622 C 21.488 12.407,21.501 12.368,21.514 12.069 C 21.522 11.892,21.508 11.678,21.483 11.593 C 21.423 11.395,21.026 10.982,20.860 10.947 C 20.624 10.897,18.125 10.844,14.752 10.817 L 11.323 10.790 11.980 10.105 C 12.669 9.386,13.020 8.975,13.089 8.803 C 13.152 8.647,13.142 8.122,13.072 7.960 C 12.928 7.624,12.621 7.405,12.181 7.324 C 11.793 7.252,11.679 7.266,11.459 7.415 " fill="#373B4D" stroke="none" fill-rule="evenodd"></path></svg>