<svg width="24" height="24" viewBox="0 0 24 24" fill="none" xmlns="http://www.w3.org/2000/svg"><path d="M3.017 3.837 C 2.788 3.968,2.599 4.167,2.480 4.400 C 2.401 4.555,2.400 4.628,2.400 12.073 L 2.400 19.589 2.696 19.889 C 2.914 20.111,3.041 20.207,3.183 20.255 C 3.441 20.343,3.856 20.338,4.061 20.245 C 4.260 20.155,4.593 19.827,4.668 19.647 C 4.759 19.428,4.798 16.679,4.799 10.234 L 4.800 4.407 4.459 4.088 C 4.082 3.736,4.043 3.720,3.545 3.720 C 3.260 3.721,3.195 3.735,3.017 3.837 M16.343 7.359 C 16.163 7.417,15.898 7.705,15.775 7.975 C 15.641 8.271,15.625 8.588,15.731 8.803 C 15.836 9.014,16.245 9.505,16.858 10.157 C 17.157 10.475,17.388 10.747,17.371 10.762 C 17.354 10.778,15.765 10.812,13.840 10.837 C 9.884 10.890,8.129 10.939,7.909 11.002 C 7.707 11.059,7.521 11.229,7.378 11.487 C 7.280 11.666,7.261 11.745,7.260 11.980 C 7.260 12.349,7.356 12.540,7.728 12.911 L 8.017 13.200 12.753 13.200 L 17.490 13.200 16.995 13.712 C 15.718 15.032,15.561 15.286,15.692 15.816 C 15.808 16.286,16.076 16.570,16.528 16.699 C 16.942 16.818,17.226 16.707,17.792 16.207 C 18.285 15.771,20.547 13.508,21.017 12.980 C 21.576 12.352,21.657 12.055,21.408 11.550 C 21.299 11.329,21.101 11.104,20.161 10.134 C 18.839 8.768,17.625 7.602,17.374 7.454 C 17.221 7.365,17.136 7.346,16.827 7.335 C 16.625 7.328,16.407 7.339,16.343 7.359 " fill="#373B4D" stroke="none" fill-rule="evenodd"></path></svg>