<svg width="24" height="24" viewBox="0 0 24 24" fill="none" xmlns="http://www.w3.org/2000/svg"><path d="M3.222 3.746 C 2.998 3.811,2.567 4.199,2.474 4.420 C 2.434 4.515,2.420 6.124,2.409 12.062 L 2.393 19.584 2.695 19.870 C 3.071 20.227,3.189 20.288,3.543 20.311 C 3.883 20.333,4.080 20.260,4.367 20.005 C 4.731 19.681,4.720 19.749,4.761 17.572 C 4.781 16.520,4.798 13.128,4.799 10.034 L 4.800 4.407 4.511 4.140 C 4.353 3.993,4.171 3.846,4.108 3.814 C 3.990 3.753,3.365 3.705,3.222 3.746 M16.199 7.455 C 15.910 7.652,15.677 8.092,15.674 8.449 C 15.671 8.791,15.842 9.038,16.879 10.187 L 17.378 10.740 17.159 10.767 C 17.039 10.781,15.734 10.813,14.260 10.837 C 10.691 10.896,8.394 10.956,8.095 10.998 C 7.790 11.041,7.643 11.115,7.504 11.298 C 7.337 11.517,7.280 11.693,7.281 11.989 C 7.282 12.347,7.360 12.507,7.718 12.890 L 8.008 13.200 12.747 13.200 L 17.487 13.200 16.887 13.830 C 16.164 14.589,15.854 14.961,15.750 15.195 C 15.643 15.434,15.666 15.826,15.801 16.095 C 16.048 16.586,16.673 16.856,17.122 16.666 C 17.436 16.533,17.851 16.157,19.403 14.604 C 21.369 12.638,21.521 12.451,21.519 12.011 C 21.518 11.762,21.410 11.532,21.132 11.183 C 20.862 10.845,17.967 7.939,17.610 7.648 C 17.312 7.404,17.174 7.361,16.699 7.360 C 16.385 7.360,16.321 7.372,16.199 7.455 " fill="#373B4D" stroke="none" fill-rule="evenodd"></path></svg>