<svg width="24" height="24" viewBox="0 0 24 24" fill="none" xmlns="http://www.w3.org/2000/svg"><path d="M3.128 3.814 C 2.952 3.906,2.588 4.237,2.506 4.380 C 2.439 4.497,2.409 7.268,2.404 13.907 L 2.400 19.594 2.690 19.858 C 3.072 20.207,3.229 20.280,3.594 20.280 C 3.928 20.280,4.099 20.220,4.352 20.012 C 4.615 19.797,4.679 19.617,4.721 18.968 C 4.741 18.667,4.770 15.270,4.785 11.420 L 4.813 4.420 4.570 4.195 C 4.278 3.925,4.067 3.818,3.720 3.762 C 3.369 3.706,3.327 3.710,3.128 3.814 M11.473 7.466 C 10.758 7.950,7.859 10.841,7.412 11.515 C 7.209 11.821,7.195 12.011,7.352 12.330 C 7.507 12.645,7.642 12.803,8.746 13.966 C 9.998 15.284,11.123 16.338,11.543 16.585 C 12.042 16.877,12.753 16.616,13.014 16.044 C 13.130 15.789,13.128 15.399,13.010 15.174 C 12.880 14.928,12.521 14.492,11.885 13.810 L 11.316 13.200 16.055 13.200 L 20.793 13.200 21.012 12.958 C 21.507 12.412,21.619 11.967,21.379 11.499 C 21.200 11.148,21.033 11.046,20.558 11.000 C 20.109 10.956,17.836 10.897,14.278 10.837 C 12.858 10.813,11.637 10.781,11.563 10.766 L 11.430 10.739 12.165 9.904 C 12.569 9.444,12.952 9.007,13.015 8.931 C 13.127 8.798,13.130 8.784,13.109 8.467 C 13.077 8.002,12.991 7.785,12.783 7.642 C 12.579 7.502,12.206 7.371,11.914 7.337 C 11.713 7.313,11.686 7.321,11.473 7.466 " fill="#373B4D" stroke="none" fill-rule="evenodd"></path></svg>