<svg width="24" height="24" viewBox="0 0 24 24" fill="none" xmlns="http://www.w3.org/2000/svg"><path d="M3.340 3.677 C 3.252 3.692,3.120 3.737,3.046 3.776 C 2.861 3.873,2.582 4.160,2.483 4.355 L 2.400 4.517 2.400 12.028 L 2.401 19.540 2.570 19.765 C 2.886 20.184,3.201 20.360,3.630 20.360 C 4.038 20.359,4.497 20.073,4.651 19.724 C 4.777 19.440,4.796 18.303,4.798 11.080 L 4.799 4.460 4.629 4.233 C 4.419 3.954,4.196 3.772,4.005 3.724 C 3.773 3.665,3.512 3.647,3.340 3.677 M16.538 7.277 C 16.038 7.358,15.638 7.881,15.641 8.451 C 15.643 8.846,15.804 9.072,16.843 10.137 L 17.477 10.787 13.789 10.816 C 11.760 10.832,9.610 10.860,9.012 10.878 C 7.770 10.916,7.772 10.916,7.478 11.288 C 7.282 11.535,7.224 11.743,7.253 12.093 C 7.285 12.474,7.430 12.719,7.784 12.990 L 8.059 13.200 12.779 13.200 L 17.499 13.200 16.996 13.710 C 16.180 14.538,15.847 14.918,15.735 15.147 C 15.642 15.336,15.632 15.398,15.648 15.654 C 15.681 16.155,15.938 16.511,16.392 16.681 C 16.678 16.788,16.970 16.783,17.220 16.665 C 17.511 16.528,17.990 16.094,19.362 14.722 C 20.776 13.308,21.379 12.652,21.490 12.405 C 21.585 12.192,21.574 11.778,21.467 11.557 C 21.348 11.311,20.790 10.704,19.483 9.398 C 18.139 8.055,17.455 7.422,17.260 7.341 C 17.104 7.276,16.743 7.244,16.538 7.277 " fill="#373B4D" stroke="none" fill-rule="evenodd"></path></svg>