<svg width="24" height="24" viewBox="0 0 24 24" fill="none" xmlns="http://www.w3.org/2000/svg"><path d="M3.208 3.717 C 3.060 3.755,2.767 3.988,2.584 4.214 C 2.496 4.322,2.456 4.424,2.435 4.591 C 2.420 4.717,2.406 8.141,2.404 12.200 L 2.402 19.580 2.646 19.852 C 2.978 20.221,3.204 20.336,3.600 20.335 C 3.830 20.335,3.944 20.314,4.090 20.243 C 4.326 20.129,4.659 19.772,4.696 19.593 C 4.763 19.271,4.797 16.302,4.798 10.578 L 4.800 4.416 4.530 4.134 C 4.381 3.979,4.198 3.820,4.123 3.781 C 3.967 3.701,3.420 3.663,3.208 3.717 M16.411 7.316 C 16.024 7.416,15.640 7.995,15.640 8.479 C 15.640 8.801,15.936 9.203,16.912 10.207 C 17.209 10.512,17.445 10.768,17.436 10.775 C 17.427 10.782,15.557 10.810,13.280 10.836 C 11.003 10.863,8.856 10.900,8.509 10.920 C 7.891 10.955,7.873 10.958,7.709 11.079 C 7.385 11.317,7.213 11.687,7.252 12.065 C 7.288 12.416,7.421 12.656,7.736 12.941 L 8.020 13.199 12.754 13.200 L 17.488 13.200 16.898 13.810 C 15.792 14.953,15.610 15.216,15.651 15.618 C 15.686 15.952,15.763 16.152,15.932 16.344 C 16.211 16.661,16.622 16.803,17.020 16.720 C 17.361 16.649,17.678 16.373,19.443 14.605 C 21.240 12.805,21.460 12.555,21.524 12.232 C 21.591 11.901,21.519 11.621,21.288 11.310 C 21.067 11.013,18.538 8.448,17.882 7.855 C 17.630 7.628,17.368 7.415,17.299 7.382 C 17.149 7.311,16.592 7.270,16.411 7.316 " fill="#373B4D" stroke="none" fill-rule="evenodd"></path></svg>