<svg width="24" height="24" viewBox="0 0 24 24" fill="none" xmlns="http://www.w3.org/2000/svg"><path d="M3.131 3.799 C 2.914 3.897,2.588 4.202,2.496 4.392 C 2.428 4.532,2.423 4.939,2.407 12.062 L 2.391 19.583 2.694 19.866 C 3.088 20.235,3.220 20.298,3.600 20.299 C 3.965 20.300,4.132 20.228,4.426 19.941 C 4.596 19.774,4.639 19.703,4.678 19.520 C 4.758 19.149,4.796 16.138,4.798 10.116 L 4.800 4.412 4.590 4.214 C 4.191 3.839,4.121 3.801,3.755 3.759 C 3.321 3.709,3.329 3.709,3.131 3.799 M11.457 7.453 C 11.115 7.688,10.429 8.326,9.300 9.457 C 8.134 10.626,7.524 11.294,7.350 11.592 C 7.146 11.942,7.221 12.271,7.616 12.757 C 7.955 13.175,9.565 14.843,10.274 15.510 C 11.366 16.538,11.630 16.727,11.979 16.727 C 12.592 16.727,13.120 16.205,13.120 15.600 C 13.120 15.211,12.907 14.897,11.959 13.885 L 11.317 13.200 16.054 13.200 L 20.791 13.200 21.033 12.941 C 21.359 12.593,21.474 12.386,21.504 12.097 C 21.537 11.786,21.474 11.571,21.282 11.328 C 20.999 10.970,21.001 10.970,19.260 10.923 C 18.424 10.900,16.417 10.863,14.800 10.840 C 13.183 10.818,11.765 10.789,11.649 10.777 L 11.439 10.754 11.516 10.647 C 11.558 10.588,11.851 10.251,12.166 9.898 C 12.482 9.545,12.828 9.152,12.936 9.025 L 13.132 8.794 13.107 8.418 C 13.093 8.212,13.057 7.983,13.026 7.909 C 12.902 7.612,12.457 7.376,11.946 7.336 C 11.669 7.314,11.654 7.318,11.457 7.453 " fill="#373B4D" stroke="none" fill-rule="evenodd"></path></svg>