<svg width="24" height="24" viewBox="0 0 24 24" fill="none" xmlns="http://www.w3.org/2000/svg"><path d="M3.251 3.718 C 3.006 3.778,2.646 4.078,2.507 4.337 L 2.420 4.500 2.408 12.040 L 2.397 19.581 2.668 19.869 C 3.014 20.235,3.190 20.318,3.620 20.319 C 3.902 20.319,3.965 20.305,4.146 20.201 C 4.343 20.088,4.573 19.848,4.678 19.646 C 4.760 19.489,4.797 16.615,4.798 10.299 L 4.800 4.418 4.490 4.111 C 4.319 3.942,4.135 3.788,4.080 3.767 C 3.932 3.713,3.400 3.681,3.251 3.718 M16.206 7.425 C 15.879 7.621,15.601 8.191,15.651 8.564 C 15.690 8.854,15.998 9.256,16.897 10.192 C 17.174 10.480,17.400 10.735,17.400 10.758 C 17.400 10.785,17.197 10.800,16.810 10.800 C 15.513 10.800,9.917 10.884,8.953 10.918 C 7.799 10.959,7.792 10.961,7.524 11.265 C 7.323 11.494,7.220 11.805,7.253 12.087 C 7.291 12.406,7.417 12.630,7.726 12.926 L 8.012 13.200 12.750 13.200 L 17.487 13.200 16.880 13.830 C 15.804 14.945,15.611 15.232,15.655 15.651 C 15.715 16.222,16.064 16.615,16.608 16.724 C 16.921 16.787,17.199 16.701,17.528 16.438 C 18.160 15.934,21.063 13.011,21.358 12.583 C 21.637 12.177,21.603 11.745,21.255 11.282 C 21.026 10.977,18.095 8.024,17.664 7.664 C 17.302 7.361,17.189 7.320,16.720 7.321 C 16.425 7.321,16.357 7.335,16.206 7.425 " fill="#373B4D" stroke="none" fill-rule="evenodd"></path></svg>