<svg width="24" height="24" viewBox="0 0 24 24" fill="none" xmlns="http://www.w3.org/2000/svg"><path d="M3.120 3.743 C 2.942 3.820,2.577 4.175,2.477 4.368 C 2.402 4.513,2.400 4.699,2.400 12.036 L 2.400 19.556 2.603 19.800 C 2.715 19.934,2.877 20.095,2.964 20.158 C 3.267 20.378,3.719 20.413,4.098 20.245 C 4.335 20.140,4.623 19.847,4.678 19.654 C 4.768 19.341,4.797 17.182,4.799 10.890 L 4.800 4.441 4.587 4.190 C 4.348 3.909,4.177 3.780,3.965 3.721 C 3.751 3.661,3.281 3.674,3.120 3.743 M11.713 7.281 C 11.631 7.295,11.469 7.379,11.353 7.467 C 10.758 7.916,7.915 10.770,7.491 11.342 C 7.098 11.872,7.107 12.158,7.534 12.711 C 7.959 13.263,10.205 15.544,11.038 16.269 C 11.476 16.651,11.618 16.729,11.925 16.752 C 12.259 16.777,12.544 16.680,12.769 16.464 C 13.012 16.232,13.126 16.002,13.150 15.697 C 13.189 15.215,13.039 14.979,12.021 13.930 L 11.313 13.200 16.020 13.200 L 20.728 13.200 20.854 13.114 C 21.088 12.954,21.326 12.701,21.433 12.500 C 21.522 12.332,21.538 12.249,21.539 11.980 C 21.539 11.600,21.463 11.425,21.190 11.173 C 20.832 10.843,21.171 10.875,17.651 10.838 C 15.918 10.819,13.782 10.803,12.905 10.802 L 11.310 10.800 11.911 10.183 C 12.663 9.410,12.989 9.032,13.084 8.823 C 13.225 8.512,13.160 7.993,12.945 7.711 C 12.721 7.416,12.124 7.208,11.713 7.281 " fill="#373B4D" stroke="none" fill-rule="evenodd"></path></svg>