<svg width="24" height="24" viewBox="0 0 24 24" fill="none" xmlns="http://www.w3.org/2000/svg"><path d="M3.340 3.635 C 2.976 3.730,2.686 3.958,2.533 4.271 L 2.420 4.500 2.420 12.000 L 2.420 19.500 2.510 19.682 C 2.781 20.233,3.388 20.511,3.946 20.337 C 4.132 20.279,4.229 20.215,4.420 20.022 C 4.843 19.597,4.804 20.451,4.791 11.938 L 4.780 4.500 4.690 4.318 C 4.565 4.069,4.339 3.845,4.100 3.735 C 3.878 3.633,3.525 3.587,3.340 3.635 M11.780 7.238 C 11.410 7.304,11.351 7.355,9.359 9.351 C 7.267 11.447,7.252 11.465,7.211 11.915 C 7.184 12.209,7.244 12.398,7.452 12.680 C 7.645 12.941,10.198 15.525,10.935 16.205 C 11.379 16.615,11.480 16.689,11.672 16.745 C 12.226 16.906,12.820 16.631,13.087 16.088 C 13.160 15.941,13.180 15.834,13.179 15.600 C 13.177 15.131,13.113 15.036,12.148 14.054 L 11.310 13.201 16.005 13.190 L 20.700 13.180 20.888 13.087 C 21.789 12.644,21.830 11.427,20.959 10.963 L 20.710 10.830 16.015 10.809 L 11.321 10.788 12.154 9.941 C 13.114 8.964,13.177 8.869,13.178 8.400 C 13.179 8.178,13.157 8.052,13.095 7.916 C 12.876 7.442,12.301 7.145,11.780 7.238 " fill="#373B4D" stroke="none" fill-rule="evenodd"></path></svg>