<svg width="24" height="24" viewBox="0 0 24 24" fill="none" xmlns="http://www.w3.org/2000/svg"><path d="M3.131 3.799 C 2.914 3.897,2.588 4.202,2.496 4.392 C 2.428 4.532,2.423 4.939,2.407 12.062 L 2.391 19.583 2.694 19.866 C 3.088 20.235,3.220 20.298,3.600 20.299 C 3.965 20.300,4.132 20.228,4.426 19.941 C 4.596 19.774,4.639 19.703,4.678 19.520 C 4.758 19.149,4.796 16.138,4.798 10.116 L 4.800 4.412 4.590 4.214 C 4.191 3.839,4.121 3.801,3.755 3.759 C 3.321 3.709,3.329 3.709,3.131 3.799 M16.217 7.456 C 15.933 7.631,15.680 8.100,15.680 8.453 C 15.680 8.786,15.884 9.082,16.852 10.152 C 17.136 10.467,17.359 10.734,17.347 10.747 C 17.320 10.774,15.536 10.821,12.300 10.880 C 9.359 10.934,8.089 10.982,7.870 11.048 C 7.384 11.193,7.130 11.898,7.375 12.420 C 7.426 12.530,7.590 12.751,7.738 12.910 L 8.007 13.200 12.747 13.200 L 17.487 13.200 16.927 13.790 C 16.261 14.491,15.871 14.954,15.776 15.154 C 15.675 15.365,15.661 15.634,15.736 15.892 C 15.870 16.353,16.258 16.671,16.733 16.710 C 17.174 16.745,17.300 16.655,18.737 15.266 C 19.837 14.204,21.121 12.861,21.336 12.549 C 21.594 12.173,21.575 11.809,21.274 11.371 C 21.099 11.116,19.262 9.222,18.295 8.300 C 17.871 7.895,17.446 7.523,17.351 7.475 C 17.218 7.406,17.092 7.383,16.780 7.371 C 16.408 7.356,16.369 7.362,16.217 7.456 " fill="#373B4D" stroke="none" fill-rule="evenodd"></path></svg>