<svg width="24" height="24" viewBox="0 0 24 24" fill="none" xmlns="http://www.w3.org/2000/svg"><path d="M11.087 3.077 C 10.293 3.466,4.785 6.895,3.605 7.735 C 3.049 8.131,2.851 8.349,2.608 8.836 L 2.420 9.212 2.410 14.449 L 2.399 19.686 2.579 20.033 C 2.903 20.661,3.339 21.096,3.966 21.421 L 4.313 21.600 11.988 21.600 L 19.664 21.600 19.982 21.446 C 20.636 21.128,21.098 20.674,21.417 20.037 L 21.600 19.672 21.600 14.522 C 21.600 9.516,21.598 9.366,21.522 9.145 C 21.281 8.444,20.927 8.072,19.760 7.294 C 18.001 6.119,13.372 3.283,12.860 3.065 C 12.602 2.955,12.535 2.945,12.000 2.930 L 11.420 2.914 11.087 3.077 M6.540 10.639 C 6.955 10.841,7.468 11.167,9.950 12.804 L 12.000 14.156 14.230 12.685 C 17.613 10.454,17.566 10.481,18.032 10.480 C 18.381 10.480,18.565 10.560,18.821 10.824 C 19.048 11.057,19.133 11.312,19.114 11.697 C 19.084 12.282,18.931 12.409,15.640 14.602 C 12.663 16.586,12.341 16.777,11.997 16.772 C 11.647 16.767,11.134 16.461,8.300 14.567 C 6.163 13.139,5.579 12.727,5.236 12.410 C 4.918 12.116,4.880 12.033,4.880 11.641 C 4.880 11.372,4.898 11.282,4.984 11.109 C 5.114 10.849,5.254 10.697,5.460 10.590 C 5.824 10.401,6.076 10.413,6.540 10.639 " fill="#373B4D" stroke="none" fill-rule="evenodd"></path></svg>