<svg width="24" height="24" viewBox="0 0 24 24" fill="none" xmlns="http://www.w3.org/2000/svg"><path d="M11.337 2.963 C 11.030 3.052,6.163 6.047,4.300 7.293 C 3.281 7.975,2.844 8.382,2.570 8.905 L 2.400 9.229 2.400 14.473 L 2.400 19.716 2.522 19.923 C 2.975 20.691,3.449 21.161,4.109 21.494 L 4.317 21.600 12.005 21.600 L 19.693 21.600 19.957 21.455 C 20.574 21.116,21.116 20.574,21.457 19.954 L 21.600 19.693 21.600 14.524 L 21.600 9.354 21.480 9.067 C 21.336 8.723,21.038 8.316,20.728 8.040 C 20.204 7.573,17.818 6.030,14.774 4.190 C 13.079 3.165,12.794 3.036,12.063 2.963 C 11.564 2.914,11.506 2.914,11.337 2.963 M6.557 10.702 C 7.042 10.932,7.648 11.311,10.270 13.026 L 12.001 14.157 14.030 12.826 C 16.123 11.454,17.213 10.765,17.497 10.636 C 17.705 10.541,18.346 10.530,18.515 10.617 C 18.648 10.686,18.891 10.948,18.978 11.116 C 19.072 11.298,19.063 11.879,18.963 12.072 C 18.852 12.285,18.490 12.621,17.940 13.022 C 17.276 13.505,13.518 16.008,12.980 16.325 C 12.258 16.752,12.054 16.801,11.647 16.646 C 11.213 16.482,9.997 15.715,7.699 14.159 C 5.914 12.950,5.452 12.611,5.153 12.290 C 4.935 12.056,4.897 11.921,4.936 11.505 C 5.016 10.640,5.706 10.298,6.557 10.702 " fill="#373B4D" stroke="none" fill-rule="evenodd"></path></svg>