<svg width="24" height="24" viewBox="0 0 24 24" fill="none" xmlns="http://www.w3.org/2000/svg"><path d="M11.430 2.923 C 11.114 2.998,10.377 3.433,7.140 5.453 C 4.688 6.983,3.544 7.727,3.190 8.020 C 2.913 8.249,2.681 8.591,2.519 9.010 L 2.399 9.320 2.410 14.510 L 2.420 19.700 2.589 20.053 C 2.903 20.709,3.293 21.098,3.955 21.415 L 4.300 21.580 11.952 21.590 L 19.604 21.601 19.901 21.477 C 20.673 21.156,21.163 20.668,21.474 19.913 L 21.600 19.606 21.600 14.490 L 21.600 9.374 21.500 9.081 C 21.244 8.328,20.963 8.060,19.280 6.970 C 17.406 5.756,13.430 3.318,12.908 3.062 C 12.607 2.915,11.791 2.838,11.430 2.923 M6.569 10.632 C 6.990 10.849,7.413 11.121,10.090 12.892 L 12.000 14.156 13.970 12.852 C 17.683 10.394,17.571 10.460,18.023 10.460 C 18.326 10.460,18.362 10.469,18.583 10.606 C 18.996 10.862,19.202 11.296,19.142 11.781 C 19.086 12.230,18.888 12.409,17.140 13.602 C 15.986 14.389,13.529 16.014,13.000 16.339 C 12.493 16.651,12.170 16.800,12.000 16.800 C 11.692 16.800,11.135 16.463,8.260 14.541 C 4.975 12.344,4.893 12.277,4.851 11.748 C 4.792 11.018,5.289 10.448,5.989 10.442 C 6.162 10.440,6.261 10.473,6.569 10.632 " fill="#373B4D" stroke="none" fill-rule="evenodd"></path></svg>