<svg width="24" height="24" viewBox="0 0 24 24" fill="none" xmlns="http://www.w3.org/2000/svg"><path d="M8.938 4.958 L 3.977 4.980 3.742 5.120 C 3.448 5.295,3.028 5.706,2.821 6.020 C 2.593 6.365,2.385 6.861,2.433 6.946 C 2.454 6.983,2.630 7.102,2.825 7.211 C 3.335 7.494,7.333 9.529,9.850 10.786 L 12.000 11.860 14.070 10.826 C 16.602 9.561,20.787 7.435,21.211 7.197 C 21.427 7.077,21.530 6.994,21.546 6.929 C 21.578 6.804,21.426 6.352,21.283 6.145 C 21.075 5.844,20.678 5.444,20.327 5.181 L 19.980 4.922 16.940 4.929 C 15.268 4.933,11.667 4.946,8.938 4.958 M2.455 9.929 C 2.438 9.955,2.417 11.634,2.407 13.659 L 2.390 17.342 2.563 17.631 C 2.925 18.235,3.462 18.753,4.043 19.059 L 4.312 19.200 12.017 19.200 L 19.723 19.200 19.911 19.103 C 20.462 18.821,20.988 18.310,21.381 17.675 L 21.600 17.321 21.598 14.170 C 21.596 11.297,21.569 9.996,21.511 9.937 C 21.465 9.891,20.508 10.347,15.920 12.600 C 13.607 13.736,12.210 14.406,12.050 14.457 C 11.930 14.495,11.820 14.444,8.390 12.754 C 5.203 11.184,2.532 9.880,2.503 9.880 C 2.493 9.880,2.471 9.902,2.455 9.929 " fill="#373B4D" stroke="none" fill-rule="evenodd"></path></svg>