<svg width="24" height="24" viewBox="0 0 24 24" fill="none" xmlns="http://www.w3.org/2000/svg"><path d="M6.060 4.917 L 4.019 4.940 3.707 5.119 C 3.535 5.217,3.306 5.382,3.199 5.485 C 2.914 5.758,2.618 6.236,2.497 6.615 L 2.395 6.940 2.516 7.042 C 2.660 7.163,5.420 8.575,9.250 10.487 L 12.000 11.860 14.710 10.507 C 17.934 8.898,21.392 7.136,21.524 7.037 L 21.618 6.966 21.526 6.653 C 21.476 6.481,21.390 6.264,21.336 6.171 C 21.087 5.742,20.555 5.239,20.121 5.021 L 19.940 4.930 14.020 4.912 C 10.764 4.902,7.182 4.905,6.060 4.917 M2.425 9.930 C 2.412 9.979,2.401 11.664,2.401 13.674 L 2.400 17.328 2.569 17.652 C 2.896 18.281,3.295 18.675,3.950 19.012 L 4.313 19.200 12.018 19.200 L 19.723 19.200 19.931 19.095 C 20.613 18.753,21.075 18.306,21.395 17.679 L 21.600 17.276 21.600 14.808 C 21.600 13.451,21.588 11.785,21.573 11.107 L 21.547 9.875 21.449 9.899 C 21.305 9.935,19.414 10.857,15.504 12.796 C 13.592 13.744,12.015 14.520,12.000 14.520 C 11.984 14.520,9.849 13.467,7.256 12.180 C 4.662 10.893,2.520 9.840,2.495 9.840 C 2.470 9.840,2.438 9.880,2.425 9.930 " fill="#373B4D" stroke="none" fill-rule="evenodd"></path></svg>