<svg width="24" height="24" viewBox="0 0 24 24" fill="none" xmlns="http://www.w3.org/2000/svg"><path d="M11.467 2.916 C 11.176 2.977,10.526 3.352,8.140 4.833 C 4.776 6.921,3.463 7.777,3.108 8.115 C 2.848 8.363,2.661 8.652,2.505 9.047 L 2.400 9.314 2.400 14.495 L 2.400 19.676 2.609 20.088 C 2.782 20.431,2.875 20.557,3.159 20.841 C 3.443 21.125,3.569 21.218,3.913 21.392 L 4.325 21.601 12.013 21.590 L 19.700 21.580 20.100 21.382 C 20.435 21.216,20.556 21.128,20.845 20.840 C 21.138 20.548,21.220 20.435,21.385 20.098 L 21.580 19.700 21.590 14.533 L 21.601 9.367 21.476 9.022 C 21.245 8.383,20.934 8.071,19.720 7.265 C 18.142 6.216,13.668 3.456,13.010 3.125 C 12.883 3.062,12.687 2.990,12.573 2.966 C 12.288 2.906,11.653 2.877,11.467 2.916 M6.564 10.637 C 6.966 10.843,7.694 11.308,10.150 12.933 L 12.000 14.157 13.910 12.893 C 16.405 11.241,16.994 10.861,17.380 10.654 C 17.685 10.489,17.716 10.481,18.041 10.481 C 18.364 10.480,18.392 10.487,18.588 10.619 C 18.966 10.874,19.131 11.177,19.132 11.620 C 19.134 12.258,19.003 12.369,15.440 14.738 C 12.588 16.633,12.344 16.778,11.994 16.779 C 11.660 16.781,11.172 16.488,8.200 14.500 C 4.917 12.305,4.861 12.257,4.861 11.638 C 4.861 11.378,4.879 11.299,4.991 11.073 C 5.137 10.776,5.311 10.620,5.620 10.510 C 5.924 10.401,6.166 10.434,6.564 10.637 " fill="#373B4D" stroke="none" fill-rule="evenodd"></path></svg>