<svg width="24" height="24" viewBox="0 0 24 24" fill="none" xmlns="http://www.w3.org/2000/svg"><path d="M8.280 4.958 L 3.980 4.980 3.760 5.108 C 3.279 5.388,2.866 5.854,2.596 6.420 C 2.363 6.909,2.361 6.935,2.560 7.060 C 2.886 7.266,4.973 8.336,8.466 10.087 L 12.001 11.860 15.588 10.060 C 19.468 8.113,21.426 7.109,21.518 7.018 C 21.594 6.943,21.532 6.625,21.379 6.301 C 21.239 6.005,20.645 5.382,20.251 5.119 L 19.953 4.920 16.267 4.928 C 14.239 4.933,10.645 4.946,8.280 4.958 M2.454 9.930 C 2.437 9.957,2.416 11.636,2.409 13.660 L 2.394 17.340 2.583 17.669 C 2.914 18.246,3.486 18.781,4.109 19.095 L 4.317 19.200 12.025 19.200 L 19.733 19.200 19.997 19.056 C 20.566 18.744,21.067 18.237,21.422 17.614 L 21.600 17.302 21.600 14.397 C 21.600 11.030,21.574 9.920,21.495 9.920 C 21.391 9.920,20.405 10.394,15.920 12.599 C 13.271 13.902,12.060 14.480,11.981 14.480 C 11.898 14.480,11.480 14.278,8.000 12.561 C 4.714 10.938,2.544 9.880,2.506 9.880 C 2.494 9.880,2.471 9.902,2.454 9.930 " fill="#373B4D" stroke="none" fill-rule="evenodd"></path></svg>