<svg width="24" height="24" viewBox="0 0 24 24" fill="none" xmlns="http://www.w3.org/2000/svg"><path d="M5.140 4.839 C 4.298 4.861,4.200 4.871,3.980 4.957 C 3.631 5.095,3.352 5.285,3.058 5.586 C 2.770 5.881,2.612 6.170,2.472 6.654 L 2.382 6.968 2.465 7.036 C 2.598 7.143,4.545 8.136,8.410 10.067 L 12.000 11.860 15.590 10.067 C 19.455 8.136,21.402 7.143,21.535 7.036 L 21.618 6.968 21.528 6.654 C 21.478 6.481,21.383 6.229,21.318 6.093 C 21.105 5.654,20.487 5.114,19.994 4.937 C 19.872 4.893,19.562 4.864,18.960 4.839 C 18.033 4.800,6.656 4.801,5.140 4.839 M2.400 13.499 L 2.400 17.198 2.521 17.528 C 2.793 18.275,3.297 18.778,4.070 19.074 L 4.400 19.201 12.050 19.190 L 19.700 19.180 19.980 19.063 C 20.727 18.751,21.215 18.252,21.479 17.528 L 21.600 17.198 21.600 13.499 C 21.600 10.568,21.590 9.800,21.550 9.798 C 21.523 9.797,19.363 10.863,16.750 12.168 L 12.000 14.539 7.250 12.168 C 4.638 10.863,2.478 9.797,2.450 9.798 C 2.410 9.800,2.400 10.568,2.400 13.499 " fill="#373B4D" stroke="none" fill-rule="evenodd"></path></svg>