<svg width="24" height="24" viewBox="0 0 24 24" fill="none" xmlns="http://www.w3.org/2000/svg"><path d="M11.000 3.127 C 7.329 5.305,3.911 7.471,3.269 8.026 C 2.954 8.299,2.725 8.593,2.535 8.969 L 2.400 9.238 2.400 14.470 L 2.400 19.702 2.579 20.016 C 2.969 20.700,3.443 21.158,4.109 21.495 L 4.317 21.600 12.003 21.600 L 19.688 21.600 19.958 21.458 C 20.549 21.148,21.148 20.548,21.459 19.956 L 21.600 19.688 21.600 14.522 L 21.600 9.356 21.474 9.037 C 21.330 8.673,21.016 8.274,20.596 7.923 C 20.119 7.524,18.178 6.266,15.640 4.714 C 13.036 3.120,12.835 3.022,12.067 2.958 C 11.385 2.902,11.378 2.903,11.000 3.127 M6.633 10.731 C 7.123 10.980,7.789 11.399,10.091 12.906 L 12.001 14.157 13.651 13.073 C 15.690 11.731,16.387 11.281,16.900 10.972 C 17.618 10.539,17.614 10.541,18.041 10.541 C 18.413 10.540,18.427 10.543,18.617 10.680 C 18.737 10.767,18.858 10.904,18.935 11.040 C 19.047 11.238,19.060 11.294,19.060 11.600 C 19.060 12.285,18.947 12.383,15.440 14.722 C 12.718 16.537,12.393 16.729,12.020 16.736 C 11.645 16.743,11.001 16.371,8.508 14.704 C 5.893 12.955,5.194 12.440,5.011 12.129 C 4.919 11.971,4.912 11.926,4.927 11.586 C 4.940 11.274,4.960 11.187,5.051 11.032 C 5.271 10.656,5.529 10.514,5.960 10.530 C 6.227 10.540,6.301 10.562,6.633 10.731 " fill="#373B4D" stroke="none" fill-rule="evenodd"></path></svg>