<svg width="24" height="24" viewBox="0 0 24 24" fill="none" xmlns="http://www.w3.org/2000/svg"><path d="M5.680 4.959 C 3.990 4.980,3.979 4.981,3.800 5.075 C 3.211 5.384,2.678 6.037,2.458 6.719 L 2.388 6.937 2.494 7.019 C 2.697 7.173,4.394 8.047,8.188 9.950 L 11.996 11.860 13.988 10.867 C 16.754 9.488,21.409 7.124,21.512 7.045 C 21.596 6.982,21.597 6.974,21.538 6.724 C 21.505 6.583,21.420 6.358,21.349 6.224 C 21.177 5.897,20.586 5.302,20.218 5.086 L 19.935 4.920 13.658 4.929 C 10.205 4.934,6.615 4.947,5.680 4.959 M2.426 10.090 C 2.412 10.205,2.401 11.880,2.400 13.811 L 2.400 17.322 2.516 17.551 C 2.865 18.237,3.350 18.713,4.069 19.075 L 4.318 19.200 12.020 19.200 L 19.723 19.200 19.931 19.095 C 20.586 18.766,21.136 18.201,21.500 17.481 L 21.610 17.262 21.593 13.592 C 21.583 11.573,21.565 9.911,21.552 9.899 C 21.539 9.886,21.423 9.920,21.294 9.974 C 21.002 10.097,17.506 11.807,14.374 13.358 L 12.007 14.530 10.134 13.608 C 9.103 13.101,6.983 12.055,5.423 11.283 C 3.863 10.511,2.556 9.880,2.518 9.880 C 2.467 9.880,2.445 9.930,2.426 10.090 " fill="#373B4D" stroke="none" fill-rule="evenodd"></path></svg>