<svg width="24" height="24" viewBox="0 0 24 24" fill="none" xmlns="http://www.w3.org/2000/svg"><path d="M11.560 2.878 C 11.117 2.961,11.087 2.978,6.640 5.752 C 5.353 6.555,4.066 7.369,3.780 7.561 C 3.013 8.075,2.711 8.423,2.513 9.020 L 2.420 9.300 2.420 14.460 L 2.420 19.620 2.517 19.915 C 2.751 20.625,3.375 21.249,4.085 21.483 L 4.380 21.580 12.000 21.580 L 19.620 21.580 19.915 21.483 C 20.625 21.249,21.249 20.625,21.483 19.915 L 21.580 19.620 21.580 14.460 L 21.580 9.300 21.485 9.020 C 21.198 8.167,21.057 8.055,17.540 5.859 C 13.834 3.546,12.999 3.043,12.725 2.958 C 12.429 2.867,11.837 2.826,11.560 2.878 M6.284 10.454 C 6.511 10.523,7.091 10.892,9.790 12.688 L 12.000 14.159 14.330 12.608 C 17.669 10.385,17.689 10.373,18.085 10.414 C 18.806 10.490,19.294 11.136,19.160 11.839 C 19.070 12.316,19.004 12.369,15.900 14.437 C 12.460 16.730,12.344 16.800,12.000 16.800 C 11.654 16.800,11.531 16.725,7.980 14.354 C 5.552 12.733,5.120 12.424,4.974 12.207 C 4.857 12.034,4.785 11.678,4.820 11.447 C 4.926 10.741,5.638 10.257,6.284 10.454 " fill="#373B4D" stroke="none" fill-rule="evenodd"></path></svg>