<svg width="24" height="24" viewBox="0 0 24 24" fill="none" xmlns="http://www.w3.org/2000/svg"><path d="M11.005 3.123 C 10.019 3.654,5.719 6.317,4.100 7.400 C 3.124 8.053,2.869 8.305,2.555 8.929 L 2.400 9.238 2.400 14.460 L 2.400 19.682 2.525 19.931 C 2.883 20.640,3.360 21.117,4.069 21.475 L 4.318 21.600 12.000 21.600 L 19.682 21.600 19.931 21.475 C 20.650 21.112,21.112 20.650,21.475 19.931 L 21.600 19.682 21.599 14.651 C 21.599 11.748,21.583 9.511,21.561 9.361 C 21.474 8.759,21.045 8.199,20.219 7.611 C 19.092 6.808,13.889 3.589,12.960 3.120 C 12.688 2.983,12.300 2.922,11.700 2.921 C 11.392 2.921,11.366 2.928,11.005 3.123 M6.556 10.660 C 6.999 10.876,7.528 11.211,10.067 12.883 L 12.001 14.157 13.310 13.293 C 17.485 10.537,17.580 10.480,18.011 10.480 C 18.326 10.481,18.493 10.543,18.719 10.746 C 19.021 11.018,19.096 11.187,19.098 11.600 C 19.102 12.280,19.052 12.322,15.520 14.676 C 13.316 16.145,12.585 16.607,12.309 16.704 C 11.806 16.881,11.581 16.761,8.240 14.527 C 6.393 13.292,5.583 12.721,5.248 12.418 C 4.938 12.138,4.862 11.953,4.888 11.550 C 4.930 10.913,5.356 10.480,5.941 10.480 C 6.150 10.480,6.240 10.506,6.556 10.660 " fill="#373B4D" stroke="none" fill-rule="evenodd"></path></svg>