<svg width="24" height="24" viewBox="0 0 24 24" fill="none" xmlns="http://www.w3.org/2000/svg"><path d="M9.740 4.959 C 4.744 4.978,3.966 4.989,3.873 5.040 C 3.525 5.233,2.919 5.842,2.696 6.223 C 2.568 6.442,2.444 6.826,2.470 6.925 C 2.480 6.965,2.572 7.051,2.674 7.116 C 2.964 7.301,5.285 8.491,8.788 10.249 L 11.995 11.860 13.988 10.866 C 16.365 9.680,20.511 7.573,21.042 7.281 C 21.567 6.992,21.583 6.973,21.523 6.735 C 21.429 6.362,21.275 6.112,20.906 5.730 C 20.708 5.525,20.418 5.259,20.260 5.139 L 19.974 4.920 17.737 4.928 C 16.507 4.932,12.908 4.946,9.740 4.959 M2.456 9.927 C 2.440 9.952,2.419 11.642,2.408 13.683 L 2.389 17.392 2.623 17.726 C 3.029 18.304,3.628 18.850,4.148 19.114 L 4.317 19.200 12.020 19.200 L 19.723 19.200 19.917 19.101 C 20.389 18.862,20.966 18.295,21.403 17.639 L 21.600 17.344 21.600 15.282 C 21.600 12.725,21.557 10.061,21.516 9.993 C 21.491 9.952,21.454 9.953,21.332 9.997 C 21.123 10.073,19.671 10.769,17.320 11.920 C 12.875 14.096,12.146 14.440,11.977 14.440 C 11.842 14.440,11.326 14.199,8.680 12.900 C 5.774 11.472,2.513 9.880,2.497 9.880 C 2.490 9.880,2.472 9.901,2.456 9.927 " fill="#373B4D" stroke="none" fill-rule="evenodd"></path></svg>