<svg width="24" height="24" viewBox="0 0 24 24" fill="none" xmlns="http://www.w3.org/2000/svg"><path d="M7.320 4.958 L 3.980 4.980 3.765 5.099 C 3.252 5.383,2.714 6.030,2.498 6.621 L 2.384 6.934 2.493 7.017 C 2.687 7.165,4.702 8.201,8.390 10.050 L 12.000 11.860 15.530 10.089 C 19.751 7.972,21.548 7.049,21.572 6.987 C 21.598 6.918,21.491 6.531,21.383 6.300 C 21.208 5.926,20.583 5.294,20.135 5.037 L 19.930 4.920 15.295 4.928 C 12.746 4.933,9.157 4.946,7.320 4.958 M2.452 9.930 C 2.435 9.957,2.415 11.631,2.409 13.649 L 2.398 17.318 2.516 17.549 C 2.843 18.192,3.402 18.741,4.069 19.075 L 4.318 19.200 12.020 19.200 L 19.722 19.200 19.951 19.084 C 20.567 18.773,21.151 18.171,21.494 17.491 L 21.600 17.283 21.600 14.531 C 21.600 13.018,21.588 11.360,21.573 10.846 L 21.547 9.913 21.434 9.935 C 21.287 9.965,20.006 10.584,15.622 12.746 C 13.426 13.828,11.997 14.512,11.955 14.498 C 11.917 14.486,10.116 13.603,7.953 12.535 C 4.132 10.648,2.557 9.880,2.508 9.880 C 2.495 9.880,2.470 9.902,2.452 9.930 " fill="#373B4D" stroke="none" fill-rule="evenodd"></path></svg>