<svg width="24" height="24" viewBox="0 0 24 24" fill="none" xmlns="http://www.w3.org/2000/svg"><path d="M9.440 4.958 L 3.980 4.980 3.780 5.096 C 3.670 5.159,3.409 5.384,3.199 5.596 C 2.892 5.905,2.784 6.048,2.644 6.325 C 2.539 6.534,2.468 6.731,2.465 6.823 C 2.460 6.960,2.477 6.987,2.634 7.093 C 2.881 7.260,5.220 8.459,8.870 10.290 L 12.001 11.860 15.290 10.209 C 19.437 8.129,21.277 7.182,21.444 7.042 L 21.575 6.933 21.505 6.673 C 21.467 6.531,21.382 6.322,21.318 6.210 C 21.170 5.950,20.670 5.439,20.276 5.146 L 19.973 4.920 17.436 4.928 C 16.041 4.933,12.443 4.946,9.440 4.958 M2.455 9.928 C 2.439 9.955,2.418 11.642,2.409 13.678 L 2.392 17.380 2.639 17.748 C 2.965 18.234,3.515 18.759,3.962 19.010 L 4.300 19.200 12.011 19.200 L 19.723 19.200 19.912 19.104 C 20.402 18.856,20.948 18.329,21.362 17.706 L 21.604 17.340 21.586 13.740 C 21.576 11.760,21.555 10.092,21.540 10.033 C 21.513 9.929,21.508 9.928,21.366 9.978 C 21.130 10.062,19.887 10.659,16.740 12.201 C 12.918 14.072,12.122 14.450,11.999 14.452 C 11.861 14.454,11.490 14.280,8.557 12.837 C 5.588 11.377,2.521 9.880,2.500 9.880 C 2.491 9.880,2.471 9.902,2.455 9.928 " fill="#373B4D" stroke="none" fill-rule="evenodd"></path></svg>