<svg width="24" height="24" viewBox="0 0 24 24" fill="none" xmlns="http://www.w3.org/2000/svg"><path d="M4.199 4.956 C 3.539 5.016,2.754 5.810,2.460 6.714 C 2.393 6.921,2.393 6.931,2.465 7.002 C 2.584 7.120,4.179 7.941,8.231 9.971 L 12.001 11.860 15.891 9.910 C 18.030 8.837,20.185 7.747,20.680 7.487 L 21.580 7.014 21.574 6.882 C 21.570 6.809,21.520 6.621,21.462 6.462 C 21.283 5.972,20.774 5.412,20.193 5.068 L 19.942 4.920 12.201 4.926 C 7.943 4.930,4.343 4.943,4.199 4.956 M2.441 9.919 C 2.414 9.969,2.400 11.249,2.400 13.659 L 2.400 17.323 2.505 17.531 C 2.876 18.265,3.314 18.697,4.069 19.075 L 4.318 19.200 12.020 19.200 L 19.723 19.200 19.931 19.095 C 20.627 18.743,21.103 18.262,21.469 17.541 L 21.610 17.261 21.593 13.592 C 21.583 11.573,21.563 9.910,21.549 9.895 C 21.534 9.881,21.463 9.893,21.391 9.921 C 21.206 9.995,17.867 11.628,14.693 13.196 L 12.007 14.524 11.353 14.208 C 10.994 14.033,8.891 12.995,6.680 11.901 C 4.469 10.806,2.620 9.895,2.571 9.877 C 2.502 9.850,2.472 9.860,2.441 9.919 " fill="#373B4D" stroke="none" fill-rule="evenodd"></path></svg>