<svg width="24" height="24" viewBox="0 0 24 24" fill="none" xmlns="http://www.w3.org/2000/svg"><path d="M16.802 9.606 L 16.800 17.312 17.710 18.202 C 19.216 19.675,19.792 20.169,20.136 20.280 C 20.557 20.416,21.133 20.165,21.384 19.736 C 21.472 19.587,21.494 19.483,21.526 19.070 C 21.547 18.800,21.574 15.952,21.586 12.740 L 21.609 6.900 21.212 6.460 C 20.748 5.946,19.143 4.277,17.768 2.880 L 16.804 1.900 16.802 9.606 M14.012 2.394 C 13.884 2.501,12.840 3.510,11.690 4.636 L 9.600 6.685 9.600 14.392 L 9.600 22.100 12.004 19.700 L 14.408 17.300 14.384 10.540 C 14.360 3.848,14.338 2.200,14.276 2.200 C 14.259 2.200,14.140 2.287,14.012 2.394 M3.138 3.819 C 3.029 3.873,2.819 4.028,2.670 4.162 L 2.400 4.406 2.400 10.756 L 2.400 17.106 2.753 17.503 C 3.177 17.979,4.761 19.627,6.172 21.060 L 7.196 22.100 7.198 14.395 L 7.200 6.690 6.230 5.752 C 4.452 4.033,4.271 3.884,3.834 3.781 C 3.483 3.698,3.366 3.705,3.138 3.819 " fill="#373B4D" stroke="none" fill-rule="evenodd"></path></svg>