<svg width="24" height="24" viewBox="0 0 24 24" fill="none" xmlns="http://www.w3.org/2000/svg"><path d="M16.802 9.600 L 16.800 17.301 17.610 18.105 C 18.787 19.273,19.460 19.898,19.772 20.111 C 20.029 20.287,20.066 20.300,20.346 20.314 C 20.556 20.325,20.695 20.310,20.815 20.264 C 21.001 20.193,21.368 19.858,21.465 19.671 C 21.562 19.484,21.597 17.438,21.598 11.864 L 21.600 6.909 21.386 6.644 C 21.091 6.281,19.836 4.969,18.187 3.300 L 16.804 1.900 16.802 9.600 M13.275 3.066 C 12.739 3.587,11.693 4.617,10.950 5.356 L 9.600 6.700 9.600 14.400 L 9.600 22.100 12.004 19.700 L 14.409 17.300 14.384 9.880 C 14.370 5.799,14.347 2.384,14.334 2.290 C 14.320 2.196,14.296 2.120,14.280 2.120 C 14.263 2.120,13.811 2.546,13.275 3.066 M3.040 3.830 C 2.941 3.894,2.756 4.060,2.630 4.200 L 2.400 4.454 2.400 10.761 L 2.400 17.068 2.511 17.233 C 2.667 17.466,3.892 18.754,5.675 20.560 L 7.196 22.100 7.198 14.394 L 7.200 6.689 6.270 5.777 C 5.112 4.643,4.394 3.985,4.161 3.848 C 4.009 3.758,3.927 3.740,3.601 3.728 C 3.237 3.715,3.212 3.719,3.040 3.830 " fill="#373B4D" stroke="none" fill-rule="evenodd"></path></svg>