<svg width="24" height="24" viewBox="0 0 24 24" fill="none" xmlns="http://www.w3.org/2000/svg"><path d="M16.802 9.605 L 16.800 17.311 18.063 18.556 C 19.773 20.243,19.925 20.360,20.389 20.360 C 20.751 20.359,20.896 20.300,21.176 20.037 C 21.626 19.617,21.579 20.403,21.580 13.220 C 21.580 7.206,21.577 6.934,21.507 6.792 C 21.387 6.552,20.768 5.894,18.729 3.840 L 16.804 1.900 16.802 9.605 M11.944 4.364 L 9.600 6.688 9.600 14.394 L 9.600 22.100 12.000 19.700 L 14.400 17.300 14.400 10.517 C 14.400 3.999,14.381 2.040,14.318 2.040 C 14.302 2.040,13.234 3.086,11.944 4.364 M3.333 3.679 C 3.008 3.748,2.776 3.932,2.530 4.313 L 2.393 4.527 2.409 10.813 C 2.419 15.253,2.437 17.130,2.468 17.202 C 2.537 17.361,3.399 18.269,5.372 20.260 L 7.196 22.100 7.198 14.395 L 7.200 6.690 6.043 5.550 C 4.778 4.301,4.278 3.846,4.058 3.742 C 3.884 3.659,3.560 3.631,3.333 3.679 " fill="#373B4D" stroke="none" fill-rule="evenodd"></path></svg>