<svg width="24" height="24" viewBox="0 0 24 24" fill="none" xmlns="http://www.w3.org/2000/svg"><path d="M16.802 9.605 L 16.800 17.310 17.711 18.205 C 19.267 19.732,19.799 20.194,20.100 20.276 C 20.338 20.341,20.639 20.328,20.820 20.245 C 21.055 20.137,21.381 19.826,21.457 19.636 C 21.559 19.382,21.598 17.193,21.599 11.678 L 21.600 6.897 21.287 6.538 C 20.887 6.081,19.458 4.592,17.967 3.080 L 16.804 1.900 16.802 9.605 M13.936 2.445 C 13.762 2.602,12.716 3.620,11.610 4.708 L 9.600 6.687 9.600 14.393 L 9.600 22.100 12.004 19.700 L 14.408 17.300 14.384 10.320 C 14.361 3.646,14.342 2.160,14.281 2.160 C 14.265 2.160,14.110 2.288,13.936 2.445 M3.220 3.749 C 3.115 3.774,2.912 3.927,2.630 4.194 L 2.400 4.412 2.400 10.756 L 2.400 17.100 2.673 17.420 C 3.008 17.812,4.475 19.341,6.032 20.920 L 7.196 22.100 7.198 14.393 L 7.200 6.686 6.170 5.688 C 5.060 4.612,4.501 4.096,4.280 3.941 C 4.039 3.773,3.513 3.677,3.220 3.749 " fill="#373B4D" stroke="none" fill-rule="evenodd"></path></svg>