<svg width="24" height="24" viewBox="0 0 24 24" fill="none" xmlns="http://www.w3.org/2000/svg"><path d="M16.802 9.606 L 16.800 17.311 17.650 18.142 C 19.108 19.568,19.703 20.086,20.067 20.247 C 20.410 20.399,20.884 20.276,21.210 19.950 C 21.424 19.736,21.479 19.582,21.521 19.085 C 21.541 18.851,21.570 16.013,21.585 12.779 L 21.613 6.898 21.137 6.380 C 20.572 5.767,19.017 4.152,17.728 2.840 L 16.804 1.900 16.802 9.606 M14.099 2.327 C 13.906 2.481,13.480 2.891,11.290 5.035 L 9.600 6.688 9.600 14.394 L 9.600 22.100 12.000 19.700 L 14.400 17.300 14.398 13.380 C 14.395 8.179,14.340 2.349,14.294 2.267 C 14.262 2.209,14.238 2.216,14.099 2.327 M3.140 3.836 C 3.008 3.903,2.788 4.059,2.650 4.182 L 2.400 4.406 2.400 10.755 L 2.400 17.103 2.645 17.382 C 3.000 17.784,4.857 19.721,6.114 21.000 L 7.196 22.100 7.198 14.395 L 7.200 6.690 6.270 5.792 C 4.327 3.917,4.192 3.813,3.600 3.741 C 3.405 3.718,3.353 3.728,3.140 3.836 " fill="#373B4D" stroke="none" fill-rule="evenodd"></path></svg>