<svg width="24" height="24" viewBox="0 0 24 24" fill="none" xmlns="http://www.w3.org/2000/svg"><path d="M16.800 9.600 L 16.800 17.300 18.010 18.503 C 19.904 20.385,19.893 20.377,20.403 20.375 C 20.632 20.374,20.750 20.353,20.889 20.285 C 21.110 20.178,21.416 19.861,21.521 19.629 C 21.596 19.465,21.598 19.289,21.598 13.200 C 21.598 7.165,21.596 6.934,21.523 6.775 C 21.424 6.556,20.659 5.751,18.544 3.640 L 16.800 1.900 16.800 9.600 M11.970 4.330 L 9.600 6.700 9.600 14.400 L 9.600 22.100 12.000 19.700 L 14.400 17.300 14.400 9.630 C 14.400 5.412,14.386 1.960,14.370 1.960 C 14.353 1.960,13.273 3.027,11.970 4.330 M3.100 3.726 C 2.865 3.847,2.617 4.104,2.512 4.336 L 2.420 4.540 2.409 10.792 C 2.398 16.861,2.400 17.049,2.474 17.215 C 2.567 17.425,3.555 18.463,5.676 20.580 L 7.200 22.100 7.200 14.397 L 7.200 6.694 5.850 5.356 C 4.425 3.942,4.222 3.759,4.004 3.686 C 3.776 3.609,3.285 3.631,3.100 3.726 " fill="#373B4D" stroke="none" fill-rule="evenodd"></path></svg>