<svg width="24" height="24" viewBox="0 0 24 24" fill="none" xmlns="http://www.w3.org/2000/svg"><path d="M16.802 9.605 L 16.800 17.311 17.930 18.423 C 19.206 19.679,19.699 20.123,19.960 20.251 C 20.197 20.368,20.631 20.375,20.852 20.265 C 21.050 20.166,21.387 19.861,21.465 19.710 C 21.571 19.506,21.609 17.161,21.592 11.815 L 21.577 6.890 21.473 6.733 C 21.329 6.514,20.046 5.171,18.292 3.401 L 16.803 1.900 16.802 9.605 M13.471 2.868 C 13.047 3.279,12.002 4.309,11.150 5.157 L 9.600 6.700 9.600 14.400 L 9.600 22.100 12.000 19.700 L 14.400 17.300 14.400 11.397 C 14.400 4.496,14.373 2.120,14.295 2.120 C 14.266 2.120,13.896 2.456,13.471 2.868 M3.245 3.718 C 3.037 3.770,2.799 3.958,2.590 4.234 L 2.400 4.485 2.404 9.692 C 2.406 12.557,2.420 15.414,2.434 16.043 L 2.460 17.186 2.573 17.334 C 2.762 17.582,3.949 18.819,5.613 20.500 L 7.196 22.100 7.198 14.394 L 7.200 6.688 6.130 5.638 C 4.910 4.441,4.282 3.869,4.080 3.773 C 3.921 3.698,3.448 3.666,3.245 3.718 " fill="#373B4D" stroke="none" fill-rule="evenodd"></path></svg>