<svg width="24" height="24" viewBox="0 0 24 24" fill="none" xmlns="http://www.w3.org/2000/svg"><path d="M16.802 9.605 L 16.800 17.311 17.810 18.303 C 18.934 19.407,19.517 19.940,19.829 20.150 C 20.004 20.267,20.084 20.294,20.309 20.310 C 20.704 20.338,20.865 20.280,21.173 19.997 C 21.370 19.817,21.450 19.713,21.482 19.594 C 21.560 19.302,21.597 16.847,21.599 11.840 L 21.600 6.900 21.327 6.580 C 20.973 6.164,19.650 4.784,18.067 3.180 L 16.804 1.900 16.802 9.605 M13.217 3.125 C 12.647 3.679,11.600 4.710,10.890 5.416 L 9.600 6.700 9.600 14.400 L 9.600 22.100 12.000 19.700 L 14.400 17.300 14.395 12.860 C 14.387 6.371,14.349 2.213,14.297 2.161 C 14.266 2.130,13.960 2.402,13.217 3.125 M3.124 3.782 C 3.049 3.815,2.855 3.976,2.694 4.140 L 2.400 4.438 2.400 10.765 L 2.400 17.091 2.615 17.356 C 2.888 17.693,4.271 19.137,5.913 20.800 L 7.196 22.100 7.198 14.394 L 7.200 6.688 6.310 5.817 C 5.291 4.821,4.496 4.086,4.252 3.916 C 3.981 3.727,3.407 3.659,3.124 3.782 " fill="#373B4D" stroke="none" fill-rule="evenodd"></path></svg>