<svg width="24" height="24" viewBox="0 0 24 24" fill="none" xmlns="http://www.w3.org/2000/svg"><path d="M16.802 9.606 L 16.800 17.311 17.870 18.363 C 19.715 20.176,19.915 20.331,20.420 20.334 C 20.770 20.336,20.936 20.261,21.240 19.962 C 21.395 19.810,21.476 19.696,21.495 19.600 C 21.565 19.259,21.597 16.894,21.599 12.096 L 21.600 6.932 21.489 6.766 C 21.319 6.514,20.184 5.319,18.406 3.520 L 16.804 1.900 16.802 9.606 M13.900 2.465 C 13.680 2.666,12.623 3.698,11.550 4.759 L 9.600 6.687 9.600 14.394 L 9.600 22.100 12.002 19.700 L 14.405 17.300 14.385 9.900 C 14.374 5.830,14.351 2.410,14.333 2.300 L 14.300 2.100 13.900 2.465 M3.277 3.716 C 3.078 3.756,2.816 3.956,2.586 4.241 L 2.391 4.482 2.406 10.794 L 2.420 17.107 2.525 17.263 C 2.664 17.473,3.903 18.769,5.713 20.600 L 7.196 22.100 7.198 14.394 L 7.200 6.689 6.230 5.737 C 4.992 4.522,4.306 3.899,4.102 3.803 C 3.919 3.718,3.492 3.673,3.277 3.716 " fill="#373B4D" stroke="none" fill-rule="evenodd"></path></svg>