<svg width="24" height="24" viewBox="0 0 24 24" fill="none" xmlns="http://www.w3.org/2000/svg"><path d="M16.802 9.605 L 16.800 17.311 17.693 18.186 C 19.272 19.733,19.810 20.196,20.134 20.284 C 20.225 20.309,20.406 20.319,20.535 20.308 C 20.950 20.271,21.414 19.870,21.487 19.487 C 21.559 19.108,21.598 16.378,21.599 11.697 L 21.600 6.894 21.247 6.497 C 20.816 6.012,19.343 4.479,17.887 3.000 L 16.804 1.900 16.802 9.605 M13.837 2.546 C 13.608 2.759,12.560 3.778,11.510 4.811 L 9.600 6.688 9.600 14.394 L 9.600 22.100 12.000 19.700 L 14.400 17.300 14.397 13.160 C 14.394 7.527,14.344 2.248,14.294 2.198 C 14.267 2.171,14.113 2.289,13.837 2.546 M3.138 3.800 C 3.050 3.844,2.847 3.998,2.688 4.143 L 2.400 4.406 2.400 10.755 L 2.400 17.103 2.714 17.462 C 3.098 17.901,4.613 19.478,6.092 20.980 L 7.196 22.100 7.198 14.394 L 7.200 6.688 6.210 5.731 C 4.380 3.961,4.263 3.865,3.822 3.772 C 3.483 3.701,3.325 3.708,3.138 3.800 " fill="#373B4D" stroke="none" fill-rule="evenodd"></path></svg>