<svg width="24" height="24" viewBox="0 0 24 24" fill="none" xmlns="http://www.w3.org/2000/svg"><path d="M16.800 9.606 L 16.800 17.310 17.986 18.479 C 19.328 19.802,19.695 20.130,19.980 20.265 C 20.258 20.396,20.595 20.395,20.862 20.261 C 21.114 20.135,21.461 19.802,21.496 19.654 C 21.564 19.361,21.595 17.334,21.594 13.260 C 21.593 10.818,21.580 8.368,21.566 7.817 L 21.540 6.813 21.360 6.580 C 21.176 6.342,18.775 3.864,17.504 2.600 L 16.800 1.901 16.800 9.606 M11.948 4.363 L 9.600 6.687 9.600 14.393 L 9.600 22.100 12.002 19.700 L 14.404 17.300 14.392 9.740 C 14.384 4.576,14.367 2.158,14.338 2.110 C 14.302 2.049,13.971 2.361,11.948 4.363 M3.101 3.763 C 2.900 3.863,2.672 4.083,2.513 4.331 L 2.390 4.523 2.408 10.811 C 2.424 16.468,2.432 17.112,2.489 17.221 C 2.584 17.401,3.579 18.448,5.492 20.380 L 7.196 22.100 7.198 14.395 L 7.200 6.689 6.090 5.598 C 4.786 4.315,4.279 3.855,4.060 3.755 C 3.832 3.651,3.317 3.655,3.101 3.763 " fill="#373B4D" stroke="none" fill-rule="evenodd"></path></svg>