<svg width="24" height="24" viewBox="0 0 24 24" fill="none" xmlns="http://www.w3.org/2000/svg"><path d="M11.673 2.496 C 11.391 2.597,5.829 5.747,3.954 6.868 C 2.587 7.686,2.443 7.824,2.441 8.323 C 2.439 8.714,2.528 8.921,2.812 9.186 C 2.950 9.315,3.170 9.474,3.302 9.540 L 3.540 9.660 3.564 11.560 C 3.599 14.251,3.605 17.727,3.575 17.875 C 3.561 17.944,3.530 18.000,3.505 18.000 C 3.381 18.000,2.936 18.260,2.762 18.434 C 2.430 18.766,2.351 19.268,2.560 19.701 C 2.674 19.935,2.977 20.230,3.157 20.281 C 3.235 20.303,3.930 20.341,4.700 20.365 C 6.513 20.422,20.545 20.380,20.773 20.317 C 20.962 20.265,21.375 19.863,21.483 19.626 C 21.624 19.316,21.563 18.883,21.333 18.549 C 21.202 18.361,20.832 18.111,20.579 18.040 L 20.387 17.986 20.416 13.866 C 20.433 11.450,20.460 9.717,20.482 9.676 C 20.503 9.638,20.582 9.586,20.659 9.560 C 20.878 9.488,21.271 9.177,21.400 8.974 C 21.681 8.530,21.640 8.101,21.278 7.705 C 21.002 7.403,20.069 6.839,16.260 4.671 C 13.087 2.864,12.528 2.568,12.128 2.485 C 11.869 2.430,11.856 2.431,11.673 2.496 M7.698 10.977 C 7.771 11.007,7.903 11.097,7.991 11.177 C 8.293 11.449,8.280 11.337,8.279 13.746 C 8.279 14.931,8.262 15.970,8.242 16.055 C 8.200 16.238,7.938 16.526,7.700 16.651 C 7.472 16.771,6.928 16.771,6.700 16.651 C 6.483 16.537,6.208 16.246,6.158 16.078 C 6.111 15.923,6.043 13.832,6.041 12.505 L 6.040 11.631 6.184 11.435 C 6.352 11.206,6.628 10.970,6.788 10.918 C 6.939 10.869,7.532 10.907,7.698 10.977 M12.500 10.971 C 12.659 11.052,12.877 11.246,12.960 11.380 C 13.076 11.568,13.109 12.079,13.140 14.240 L 13.166 15.980 12.993 16.186 C 12.322 16.983,11.665 16.984,11.010 16.187 L 10.840 15.981 10.840 13.807 L 10.840 11.634 11.022 11.398 C 11.252 11.099,11.425 10.967,11.646 10.922 C 11.848 10.881,12.383 10.911,12.500 10.971 M17.300 10.971 C 17.459 11.052,17.677 11.246,17.760 11.380 C 17.876 11.568,17.909 12.079,17.940 14.240 L 17.966 15.980 17.793 16.186 C 17.122 16.983,16.465 16.984,15.810 16.187 L 15.640 15.981 15.640 13.807 L 15.640 11.634 15.822 11.398 C 16.052 11.099,16.225 10.967,16.446 10.922 C 16.648 10.881,17.183 10.911,17.300 10.971 " fill="#373B4D" stroke="none" fill-rule="evenodd"></path></svg>