<svg width="24" height="24" viewBox="0 0 24 24" fill="none" xmlns="http://www.w3.org/2000/svg"><path d="M11.740 2.435 C 11.596 2.473,10.087 3.316,6.743 5.228 C 3.760 6.933,2.862 7.465,2.717 7.609 C 2.414 7.912,2.322 8.494,2.516 8.889 C 2.691 9.248,3.056 9.523,3.438 9.584 L 3.600 9.610 3.600 13.802 L 3.600 17.993 3.430 18.021 C 3.056 18.084,2.684 18.365,2.511 18.716 C 2.380 18.982,2.383 19.425,2.518 19.699 C 2.653 19.973,2.916 20.218,3.183 20.318 C 3.403 20.400,3.416 20.400,12.000 20.400 C 20.584 20.400,20.597 20.400,20.817 20.318 C 21.085 20.218,21.346 19.974,21.480 19.700 C 21.614 19.424,21.617 18.982,21.486 18.714 C 21.314 18.363,20.945 18.084,20.570 18.021 L 20.400 17.993 20.400 13.802 L 20.400 9.610 20.568 9.583 C 20.828 9.542,21.190 9.329,21.345 9.125 C 21.691 8.672,21.666 7.996,21.288 7.618 C 21.220 7.550,20.800 7.277,20.353 7.011 C 18.824 6.100,13.171 2.888,12.524 2.562 C 12.256 2.427,11.957 2.378,11.740 2.435 M7.703 10.938 C 7.941 11.045,8.165 11.263,8.279 11.498 C 8.357 11.660,8.360 11.737,8.360 13.794 L 8.360 15.923 8.260 16.120 C 7.990 16.652,7.427 16.907,6.874 16.746 C 6.561 16.655,6.322 16.457,6.158 16.154 L 6.021 15.900 6.021 13.800 L 6.020 11.700 6.118 11.502 C 6.420 10.894,7.080 10.659,7.703 10.938 M12.503 10.938 C 12.741 11.045,12.965 11.263,13.079 11.498 C 13.157 11.660,13.160 11.737,13.160 13.797 L 13.160 15.929 13.032 16.168 C 12.573 17.030,11.393 16.996,10.931 16.109 L 10.823 15.900 10.821 13.800 L 10.820 11.700 10.918 11.502 C 11.220 10.894,11.880 10.659,12.503 10.938 M17.303 10.938 C 17.541 11.045,17.765 11.263,17.879 11.498 C 17.957 11.660,17.960 11.737,17.960 13.797 L 17.960 15.929 17.832 16.168 C 17.373 17.030,16.193 16.996,15.731 16.109 L 15.623 15.900 15.621 13.800 L 15.620 11.700 15.718 11.502 C 16.020 10.894,16.680 10.659,17.303 10.938 " fill="#373B4D" stroke="none" fill-rule="evenodd"></path></svg>