<svg width="24" height="24" viewBox="0 0 24 24" fill="none" xmlns="http://www.w3.org/2000/svg"><path d="M11.280 2.754 C 9.960 3.423,5.341 6.044,3.807 6.995 C 3.158 7.397,2.666 7.769,2.563 7.935 C 2.459 8.103,2.453 8.426,2.547 8.703 C 2.598 8.851,2.690 8.974,2.918 9.200 C 3.086 9.365,3.287 9.534,3.365 9.576 L 3.507 9.651 3.534 11.632 C 3.569 14.258,3.566 17.890,3.529 17.940 C 3.513 17.962,3.371 18.066,3.214 18.171 C 2.572 18.601,2.388 18.959,2.526 19.506 C 2.584 19.739,2.931 20.124,3.169 20.219 C 3.451 20.332,5.112 20.357,12.200 20.356 C 18.647 20.356,20.545 20.330,20.848 20.241 C 20.965 20.207,21.047 20.130,21.237 19.878 C 21.547 19.466,21.594 19.316,21.502 19.035 C 21.377 18.652,21.151 18.400,20.650 18.084 L 20.440 17.952 20.440 16.162 C 20.440 15.178,20.452 13.316,20.467 12.024 L 20.493 9.674 20.717 9.522 C 20.978 9.344,21.360 8.954,21.457 8.767 C 21.571 8.544,21.583 8.273,21.486 8.072 C 21.279 7.644,20.803 7.324,17.678 5.510 C 14.023 3.388,12.290 2.479,11.903 2.480 C 11.857 2.480,11.577 2.604,11.280 2.754 M7.363 10.977 C 7.708 11.038,7.971 11.158,8.060 11.295 C 8.152 11.434,8.190 12.152,8.223 14.280 L 8.251 16.140 8.026 16.352 C 7.756 16.606,7.596 16.679,7.245 16.707 C 7.007 16.726,6.957 16.716,6.761 16.612 C 6.515 16.483,6.303 16.235,6.243 16.008 C 6.189 15.799,6.129 14.742,6.076 13.042 L 6.030 11.584 6.350 11.275 C 6.740 10.900,6.812 10.879,7.363 10.977 M12.588 11.073 C 12.734 11.152,12.873 11.368,12.937 11.615 C 13.006 11.879,13.056 12.706,13.123 14.653 L 13.169 16.006 13.035 16.146 C 12.851 16.338,12.351 16.667,12.158 16.725 C 12.038 16.761,11.963 16.762,11.847 16.727 C 11.655 16.669,11.256 16.413,11.020 16.196 L 10.840 16.030 10.840 13.816 L 10.840 11.602 11.070 11.369 C 11.412 11.023,11.491 10.994,12.040 11.011 C 12.295 11.019,12.539 11.046,12.588 11.073 M17.254 11.038 C 17.581 11.113,17.743 11.403,17.800 12.011 C 17.834 12.384,17.872 13.230,17.944 15.282 L 17.970 16.024 17.764 16.208 C 17.340 16.590,16.947 16.789,16.708 16.744 C 16.531 16.711,16.129 16.466,15.857 16.226 L 15.640 16.035 15.640 13.819 L 15.640 11.602 15.870 11.369 C 16.185 11.050,16.300 11.002,16.740 11.002 C 16.938 11.002,17.169 11.018,17.254 11.038 " fill="#373B4D" stroke="none" fill-rule="evenodd"></path></svg>