<svg width="24" height="24" viewBox="0 0 24 24" fill="none" xmlns="http://www.w3.org/2000/svg"><path d="M11.720 2.477 C 11.498 2.545,10.716 2.980,7.165 5.009 C 2.759 7.527,2.612 7.621,2.479 8.024 C 2.400 8.262,2.447 8.718,2.573 8.932 C 2.703 9.153,3.074 9.455,3.329 9.547 C 3.432 9.584,3.529 9.643,3.543 9.677 C 3.557 9.712,3.578 11.598,3.590 13.870 C 3.610 17.647,3.606 18.000,3.547 18.000 C 3.259 18.000,2.712 18.383,2.552 18.695 C 2.425 18.943,2.411 19.325,2.518 19.608 C 2.629 19.901,2.921 20.216,3.140 20.277 C 3.511 20.382,6.122 20.409,13.300 20.384 C 17.260 20.371,20.589 20.348,20.698 20.334 C 20.877 20.310,20.924 20.280,21.185 20.019 C 21.494 19.710,21.559 19.573,21.560 19.235 C 21.560 18.676,21.181 18.218,20.566 18.036 L 20.393 17.985 20.411 13.883 C 20.421 11.626,20.442 9.741,20.458 9.692 C 20.476 9.640,20.534 9.594,20.602 9.580 C 20.761 9.545,21.159 9.281,21.293 9.122 C 21.767 8.557,21.663 7.917,21.021 7.459 C 20.625 7.177,18.332 5.838,15.440 4.201 C 12.972 2.804,12.517 2.564,12.212 2.499 C 11.911 2.435,11.865 2.433,11.720 2.477 M7.743 10.990 C 7.906 11.075,8.148 11.312,8.247 11.486 C 8.289 11.561,8.300 12.024,8.300 13.800 C 8.300 16.287,8.320 16.109,7.998 16.428 C 7.739 16.684,7.597 16.740,7.200 16.740 C 6.803 16.740,6.661 16.684,6.402 16.428 C 6.106 16.136,6.109 16.150,6.076 14.880 C 6.059 14.253,6.045 13.265,6.043 12.685 L 6.040 11.631 6.181 11.439 C 6.349 11.209,6.568 11.011,6.737 10.934 C 6.927 10.848,7.535 10.882,7.743 10.990 M12.626 11.046 C 12.728 11.120,12.865 11.247,12.931 11.328 C 13.092 11.527,13.106 11.706,13.142 14.058 L 13.172 15.958 12.997 16.183 C 12.667 16.612,12.237 16.839,11.862 16.782 C 11.604 16.744,11.290 16.533,11.052 16.240 L 10.842 15.980 10.841 13.808 L 10.840 11.637 10.996 11.425 C 11.336 10.965,11.522 10.871,12.050 10.895 C 12.415 10.911,12.452 10.921,12.626 11.046 M17.426 11.046 C 17.528 11.120,17.665 11.247,17.731 11.328 C 17.892 11.527,17.906 11.706,17.942 14.058 L 17.972 15.958 17.797 16.183 C 17.467 16.612,17.037 16.839,16.662 16.782 C 16.404 16.744,16.090 16.533,15.852 16.240 L 15.642 15.980 15.641 13.808 L 15.640 11.637 15.796 11.425 C 16.136 10.965,16.322 10.871,16.850 10.895 C 17.215 10.911,17.252 10.921,17.426 11.046 " fill="#373B4D" stroke="none" fill-rule="evenodd"></path></svg>