<svg width="24" height="24" viewBox="0 0 24 24" fill="none" xmlns="http://www.w3.org/2000/svg"><path d="M11.148 2.794 C 10.152 3.308,5.899 5.727,4.020 6.849 C 3.106 7.394,2.727 7.668,2.570 7.895 C 2.476 8.030,2.460 8.093,2.462 8.317 C 2.466 8.797,2.727 9.180,3.285 9.522 L 3.510 9.660 3.535 11.000 C 3.588 13.853,3.609 16.807,3.581 17.370 L 3.552 17.960 3.306 18.090 C 3.171 18.161,2.949 18.327,2.813 18.460 C 2.609 18.658,2.555 18.740,2.499 18.933 C 2.423 19.201,2.440 19.359,2.579 19.666 C 2.700 19.934,2.937 20.169,3.152 20.233 C 3.245 20.261,3.470 20.301,3.651 20.322 C 4.034 20.367,19.326 20.380,20.227 20.336 L 20.808 20.308 20.998 20.158 C 21.221 19.981,21.506 19.573,21.543 19.379 C 21.578 19.189,21.495 18.877,21.351 18.659 C 21.226 18.470,21.045 18.318,20.667 18.084 L 20.447 17.949 20.418 17.484 C 20.390 17.048,20.407 14.871,20.466 11.240 L 20.492 9.660 20.729 9.521 C 21.039 9.340,21.447 8.909,21.511 8.694 C 21.621 8.326,21.548 8.024,21.285 7.761 C 20.911 7.387,19.952 6.795,16.880 5.039 C 12.985 2.814,12.334 2.480,11.891 2.480 C 11.802 2.480,11.553 2.585,11.148 2.794 M7.819 11.076 C 8.158 11.267,8.169 11.296,8.204 12.108 C 8.221 12.500,8.236 13.561,8.237 14.466 L 8.240 16.112 8.096 16.285 C 7.812 16.625,7.607 16.720,7.160 16.719 C 6.854 16.718,6.639 16.632,6.452 16.435 C 6.167 16.135,6.144 15.950,6.074 13.409 L 6.024 11.598 6.362 11.255 L 6.700 10.912 7.160 10.938 C 7.563 10.961,7.645 10.978,7.819 11.076 M12.645 11.100 C 12.914 11.290,12.991 11.487,13.038 12.100 C 13.059 12.386,13.099 13.384,13.125 14.319 L 13.173 16.018 12.879 16.289 C 12.203 16.913,11.806 16.915,11.130 16.298 L 10.840 16.034 10.840 13.823 L 10.840 11.612 11.089 11.340 C 11.417 10.982,11.479 10.957,12.027 10.970 C 12.451 10.979,12.482 10.986,12.645 11.100 M17.445 11.100 C 17.714 11.290,17.791 11.487,17.838 12.100 C 17.859 12.386,17.898 13.385,17.924 14.319 L 17.972 16.018 17.679 16.289 C 17.003 16.913,16.606 16.915,15.930 16.298 L 15.640 16.034 15.640 13.823 L 15.640 11.612 15.889 11.340 C 16.217 10.982,16.279 10.957,16.827 10.970 C 17.251 10.979,17.282 10.986,17.445 11.100 " fill="#373B4D" stroke="none" fill-rule="evenodd"></path></svg>