<svg width="24" height="24" viewBox="0 0 24 24" fill="none" xmlns="http://www.w3.org/2000/svg"><path d="M11.760 2.508 C 11.328 2.663,7.952 4.546,4.800 6.391 C 2.990 7.450,2.553 7.773,2.477 8.112 C 2.436 8.298,2.483 8.609,2.588 8.833 C 2.676 9.023,3.049 9.387,3.312 9.540 L 3.518 9.660 3.519 9.940 C 3.519 10.094,3.540 11.648,3.564 13.393 C 3.589 15.138,3.596 16.879,3.580 17.262 L 3.552 17.957 3.341 18.076 C 2.996 18.270,2.659 18.575,2.558 18.783 C 2.377 19.157,2.464 19.604,2.787 19.963 C 3.022 20.224,3.192 20.280,3.872 20.322 C 4.541 20.363,19.958 20.367,20.481 20.327 C 20.785 20.303,20.840 20.286,20.975 20.175 C 21.182 20.004,21.471 19.613,21.528 19.427 C 21.564 19.308,21.564 19.231,21.525 19.088 C 21.411 18.661,21.238 18.452,20.739 18.135 L 20.448 17.951 20.419 17.416 C 20.403 17.122,20.411 15.463,20.436 13.731 C 20.461 11.998,20.481 10.377,20.480 10.130 L 20.480 9.679 20.710 9.532 C 20.983 9.358,21.362 8.990,21.457 8.807 C 21.494 8.735,21.535 8.587,21.548 8.478 C 21.596 8.073,21.386 7.778,20.734 7.332 C 19.734 6.648,13.984 3.353,12.820 2.797 C 12.202 2.502,11.960 2.436,11.760 2.508 M7.328 10.958 C 7.730 11.000,8.002 11.131,8.106 11.331 C 8.187 11.488,8.235 12.729,8.238 14.713 L 8.240 16.126 8.014 16.363 C 7.840 16.546,7.741 16.615,7.586 16.660 C 7.343 16.733,7.046 16.737,6.825 16.671 C 6.610 16.607,6.313 16.312,6.250 16.098 C 6.171 15.833,6.126 15.117,6.075 13.307 L 6.027 11.595 6.363 11.257 C 6.740 10.878,6.696 10.892,7.328 10.958 M12.638 11.099 C 12.838 11.237,12.951 11.453,12.997 11.784 C 13.038 12.074,13.099 13.447,13.144 15.062 L 13.170 16.024 12.895 16.273 C 12.577 16.562,12.212 16.760,12.000 16.760 C 11.789 16.760,11.424 16.562,11.110 16.278 L 10.840 16.034 10.840 13.821 L 10.840 11.609 11.090 11.342 C 11.415 10.995,11.532 10.952,12.075 10.977 C 12.438 10.994,12.509 11.009,12.638 11.099 M17.438 11.099 C 17.638 11.237,17.751 11.453,17.797 11.784 C 17.837 12.065,17.895 13.391,17.943 15.082 L 17.970 16.025 17.695 16.274 C 17.377 16.562,17.012 16.760,16.800 16.760 C 16.589 16.760,16.224 16.562,15.910 16.278 L 15.640 16.034 15.640 13.821 L 15.640 11.609 15.890 11.342 C 16.215 10.995,16.332 10.952,16.875 10.977 C 17.238 10.994,17.309 11.009,17.438 11.099 " fill="#373B4D" stroke="none" fill-rule="evenodd"></path></svg>