<svg width="24" height="24" viewBox="0 0 24 24" fill="none" xmlns="http://www.w3.org/2000/svg"><path d="M11.291 2.706 C 9.934 3.417,4.202 6.699,3.320 7.270 C 2.593 7.741,2.412 7.975,2.450 8.398 C 2.491 8.850,2.746 9.199,3.261 9.508 L 3.511 9.658 3.535 10.619 C 3.580 12.374,3.610 17.054,3.581 17.511 L 3.551 17.960 3.273 18.107 C 2.442 18.543,2.224 19.231,2.708 19.891 C 2.930 20.193,3.109 20.275,3.666 20.328 C 4.290 20.387,19.197 20.393,20.170 20.334 L 20.840 20.293 21.026 20.135 C 21.296 19.906,21.515 19.578,21.545 19.356 C 21.605 18.901,21.298 18.426,20.761 18.143 C 20.607 18.062,20.460 17.957,20.434 17.909 C 20.388 17.822,20.405 13.919,20.466 10.917 L 20.492 9.654 20.699 9.546 C 20.960 9.409,21.388 8.992,21.485 8.780 C 21.567 8.602,21.580 8.335,21.519 8.115 C 21.394 7.666,20.770 7.253,16.700 4.932 C 12.886 2.756,12.347 2.480,11.919 2.480 C 11.756 2.480,11.645 2.520,11.291 2.706 M7.870 11.101 C 8.236 11.345,8.218 11.206,8.233 13.821 L 8.245 16.102 8.120 16.261 C 7.815 16.648,7.587 16.744,7.050 16.714 C 6.817 16.701,6.751 16.679,6.585 16.560 C 6.316 16.366,6.213 16.172,6.163 15.760 C 6.123 15.440,6.041 12.916,6.040 12.005 L 6.040 11.590 6.381 11.249 L 6.722 10.908 7.188 10.933 C 7.637 10.957,7.661 10.963,7.870 11.101 M12.421 10.982 C 12.581 11.006,12.823 11.210,12.922 11.404 C 13.036 11.627,13.068 12.067,13.125 14.177 L 13.175 16.015 12.881 16.290 C 12.208 16.920,11.801 16.923,11.129 16.300 L 10.840 16.033 10.840 13.822 L 10.840 11.612 11.084 11.345 C 11.219 11.198,11.367 11.057,11.414 11.031 C 11.592 10.934,11.978 10.915,12.421 10.982 M17.221 10.982 C 17.381 11.006,17.623 11.210,17.722 11.404 C 17.836 11.627,17.868 12.067,17.925 14.177 L 17.975 16.015 17.681 16.290 C 17.008 16.920,16.601 16.923,15.929 16.300 L 15.640 16.033 15.640 13.822 L 15.640 11.612 15.884 11.345 C 16.019 11.198,16.167 11.057,16.214 11.031 C 16.392 10.934,16.778 10.915,17.221 10.982 " fill="#373B4D" stroke="none" fill-rule="evenodd"></path></svg>