<svg width="24" height="24" viewBox="0 0 24 24" fill="none" xmlns="http://www.w3.org/2000/svg"><path d="M11.498 2.594 C 10.809 2.928,5.936 5.690,4.020 6.832 C 3.147 7.353,2.849 7.557,2.652 7.771 C 2.462 7.978,2.419 8.130,2.451 8.484 C 2.488 8.889,2.751 9.219,3.285 9.529 L 3.511 9.660 3.535 10.020 C 3.572 10.594,3.614 17.315,3.582 17.657 L 3.553 17.966 3.372 18.043 C 2.626 18.363,2.305 18.930,2.509 19.565 C 2.599 19.846,2.947 20.214,3.180 20.275 C 3.268 20.298,3.871 20.336,4.520 20.358 C 5.849 20.405,13.788 20.408,17.980 20.364 C 20.417 20.339,20.754 20.328,20.863 20.270 C 21.061 20.165,21.457 19.716,21.511 19.533 C 21.674 18.992,21.388 18.440,20.792 18.142 C 20.637 18.064,20.482 18.000,20.449 18.000 C 20.395 18.000,20.391 17.611,20.414 14.470 C 20.429 12.528,20.452 10.648,20.466 10.292 L 20.491 9.643 20.676 9.557 C 20.863 9.470,21.125 9.274,21.308 9.084 C 21.559 8.823,21.650 8.331,21.501 8.040 C 21.249 7.550,20.926 7.339,16.920 5.052 C 13.351 3.015,12.600 2.611,12.171 2.499 C 11.862 2.419,11.859 2.419,11.498 2.594 M7.700 10.995 C 7.909 11.090,8.106 11.258,8.191 11.415 C 8.254 11.529,8.260 11.741,8.260 13.800 L 8.260 16.060 8.168 16.207 C 8.053 16.393,7.828 16.592,7.643 16.671 C 7.454 16.752,6.946 16.752,6.757 16.671 C 6.576 16.594,6.348 16.394,6.238 16.217 C 6.130 16.042,6.094 15.469,6.055 13.253 L 6.027 11.645 6.184 11.438 C 6.270 11.324,6.430 11.161,6.540 11.076 L 6.740 10.921 7.140 10.922 C 7.442 10.922,7.579 10.940,7.700 10.995 M12.669 11.092 C 12.983 11.323,13.034 11.463,13.078 12.224 C 13.098 12.574,13.127 13.564,13.141 14.425 L 13.168 15.990 12.906 16.268 C 12.264 16.949,11.741 16.953,11.108 16.283 L 10.840 15.999 10.840 13.814 L 10.840 11.629 11.057 11.360 C 11.370 10.973,11.508 10.912,12.041 10.928 C 12.458 10.941,12.465 10.943,12.669 11.092 M17.469 11.092 C 17.783 11.323,17.834 11.463,17.878 12.224 C 17.898 12.574,17.927 13.564,17.941 14.425 L 17.968 15.990 17.706 16.268 C 17.064 16.949,16.541 16.953,15.908 16.283 L 15.640 15.999 15.640 13.814 L 15.640 11.629 15.857 11.360 C 16.170 10.973,16.308 10.912,16.841 10.928 C 17.258 10.941,17.265 10.943,17.469 11.092 " fill="#373B4D" stroke="none" fill-rule="evenodd"></path></svg>