<svg width="24" height="24" viewBox="0 0 24 24" fill="none" xmlns="http://www.w3.org/2000/svg"><path d="M3.251 5.158 C 3.277 5.352,3.316 5.407,4.041 6.280 C 4.360 6.665,4.726 7.109,4.852 7.266 L 5.083 7.552 5.107 11.786 L 5.131 16.020 4.342 16.920 C 3.107 18.329,3.001 18.469,3.000 18.690 L 3.000 18.800 5.640 18.800 L 8.280 18.800 8.280 18.666 C 8.280 18.487,8.182 18.350,7.400 17.435 C 6.594 16.492,6.371 16.216,6.289 16.060 C 6.236 15.957,6.222 15.600,6.194 13.580 C 6.162 11.333,6.184 9.080,6.236 9.080 C 6.250 9.080,7.297 11.263,8.564 13.930 L 10.867 18.780 11.097 18.780 L 11.327 18.780 13.293 13.950 C 14.375 11.293,15.270 9.120,15.283 9.120 C 15.322 9.120,15.360 11.829,15.360 14.577 L 15.360 17.141 14.736 17.760 C 13.979 18.512,13.800 18.727,13.800 18.884 L 13.800 19.000 17.340 19.000 L 20.880 19.000 20.880 18.872 C 20.880 18.684,20.750 18.524,20.061 17.867 L 19.440 17.274 19.440 12.002 L 19.440 6.730 19.930 6.289 C 20.720 5.576,20.959 5.318,20.986 5.148 L 21.010 5.000 18.530 5.000 L 16.050 5.000 15.380 6.610 C 13.385 11.400,12.494 13.480,12.437 13.480 C 12.388 13.480,11.714 12.067,9.163 6.616 L 8.431 5.053 7.265 5.026 C 6.624 5.012,5.454 5.000,4.665 5.000 L 3.229 5.000 3.251 5.158 " fill="#373B4D" stroke="none" fill-rule="evenodd"></path></svg>