<svg width="24" height="24" viewBox="0 0 24 24" fill="none" xmlns="http://www.w3.org/2000/svg"><path d="M3.253 5.142 C 3.283 5.327,3.490 5.613,4.360 6.669 L 5.078 7.540 5.079 8.700 C 5.080 9.338,5.092 11.246,5.106 12.940 L 5.131 16.020 4.516 16.721 C 3.232 18.184,3.000 18.484,3.000 18.684 L 3.000 18.800 5.640 18.800 C 8.267 18.800,8.280 18.800,8.280 18.719 C 8.280 18.506,8.102 18.261,7.026 16.985 C 6.364 16.200,6.312 16.122,6.275 15.848 C 6.229 15.510,6.187 9.442,6.230 9.300 C 6.264 9.187,6.296 9.241,6.756 10.176 C 7.172 11.021,8.693 14.206,10.426 17.860 L 10.863 18.780 11.095 18.780 L 11.327 18.780 11.767 17.700 C 13.261 14.033,15.171 9.375,15.215 9.289 C 15.264 9.197,15.270 9.221,15.293 9.564 C 15.307 9.771,15.330 11.556,15.345 13.531 L 15.372 17.121 14.713 17.791 C 14.001 18.514,13.800 18.760,13.800 18.906 L 13.800 19.000 17.340 19.000 L 20.880 19.000 20.880 18.886 C 20.880 18.725,20.732 18.543,20.044 17.861 L 19.440 17.261 19.440 11.996 L 19.440 6.731 19.959 6.263 C 20.730 5.565,21.082 5.149,20.984 5.051 C 20.967 5.034,19.851 5.015,18.503 5.008 L 16.053 4.996 15.380 6.608 C 13.726 10.573,12.505 13.420,12.441 13.459 C 12.401 13.484,11.176 10.919,8.764 5.756 L 8.435 5.053 6.907 5.027 C 6.067 5.012,4.896 5.000,4.305 5.000 L 3.230 5.000 3.253 5.142 " fill="#373B4D" stroke="none" fill-rule="evenodd"></path></svg>