<svg width="24" height="24" viewBox="0 0 24 24" fill="none" xmlns="http://www.w3.org/2000/svg"><path d="M3.240 5.122 C 3.240 5.314,3.317 5.425,4.031 6.269 C 4.400 6.706,4.791 7.178,4.899 7.319 L 5.096 7.575 5.111 11.798 L 5.127 16.020 4.182 17.100 C 3.122 18.312,3.000 18.474,3.000 18.667 L 3.000 18.800 5.640 18.800 L 8.280 18.800 8.280 18.642 C 8.280 18.459,8.272 18.449,7.268 17.282 C 6.490 16.378,6.284 16.113,6.239 15.958 C 6.192 15.793,6.149 10.458,6.188 9.646 L 6.220 8.992 8.545 13.886 L 10.869 18.780 11.098 18.780 L 11.326 18.780 11.758 17.720 C 11.995 17.137,12.889 14.941,13.745 12.840 L 15.300 9.020 15.325 9.540 C 15.339 9.826,15.353 11.652,15.355 13.599 L 15.360 17.137 14.580 17.921 C 13.849 18.655,13.800 18.714,13.800 18.852 L 13.800 19.000 17.340 19.000 L 20.880 19.000 20.880 18.832 C 20.880 18.668,20.867 18.652,20.160 17.962 L 19.440 17.260 19.438 12.000 L 19.435 6.740 20.192 6.053 C 20.914 5.397,20.998 5.298,20.999 5.090 L 21.000 5.000 18.525 5.000 L 16.051 5.000 14.880 7.810 C 13.352 11.475,12.478 13.520,12.441 13.520 C 12.405 13.520,11.858 12.374,9.901 8.196 L 8.428 5.052 7.444 5.026 C 6.903 5.012,5.736 5.000,4.850 5.000 L 3.240 5.000 3.240 5.122 " fill="#373B4D" stroke="none" fill-rule="evenodd"></path></svg>