<svg width="24" height="24" viewBox="0 0 24 24" fill="none" xmlns="http://www.w3.org/2000/svg"><path d="M3.240 5.061 C 3.240 5.261,3.501 5.629,4.517 6.860 L 5.079 7.540 5.079 9.360 C 5.080 10.361,5.092 12.269,5.106 13.600 L 5.131 16.020 4.503 16.735 C 3.292 18.114,3.000 18.494,3.000 18.687 L 3.000 18.802 5.617 18.791 C 7.056 18.785,8.246 18.767,8.261 18.752 C 8.362 18.651,8.123 18.300,7.175 17.160 C 6.763 16.665,6.391 16.179,6.347 16.080 C 6.271 15.909,6.266 15.765,6.231 13.120 C 6.197 10.487,6.212 9.280,6.278 9.280 C 6.319 9.280,7.323 11.338,8.940 14.740 C 9.704 16.346,10.452 17.917,10.602 18.232 L 10.876 18.804 11.102 18.792 L 11.327 18.780 11.906 17.360 C 12.224 16.579,13.053 14.554,13.748 12.860 C 14.443 11.166,15.057 9.668,15.113 9.530 C 15.168 9.393,15.226 9.280,15.241 9.280 C 15.291 9.280,15.319 10.506,15.345 13.851 L 15.372 17.121 14.754 17.751 C 14.041 18.477,13.800 18.768,13.800 18.904 L 13.800 19.000 17.340 19.000 L 20.880 19.000 20.880 18.918 C 20.880 18.751,20.733 18.565,20.094 17.918 L 19.440 17.255 19.440 11.994 L 19.440 6.732 19.986 6.236 C 20.694 5.593,21.076 5.143,20.989 5.056 C 20.979 5.046,19.866 5.027,18.514 5.013 L 16.057 4.987 15.223 6.984 C 14.424 8.895,12.871 12.541,12.595 13.150 C 12.523 13.309,12.453 13.440,12.439 13.440 C 12.388 13.440,11.473 11.527,8.774 5.776 L 8.434 5.053 6.727 5.027 C 3.893 4.983,3.240 4.989,3.240 5.061 " fill="#373B4D" stroke="none" fill-rule="evenodd"></path></svg>