<svg width="24" height="24" viewBox="0 0 24 24" fill="none" xmlns="http://www.w3.org/2000/svg"><path d="M9.120 6.201 C 8.294 6.248,7.700 6.458,7.088 6.919 C 6.772 7.157,6.520 7.424,6.293 7.760 C 6.124 8.011,5.719 9.004,4.259 12.740 C 3.563 14.522,2.835 16.385,2.642 16.880 C 2.448 17.375,2.297 17.793,2.307 17.810 C 2.332 17.852,3.809 17.845,4.560 17.800 C 5.625 17.737,6.234 17.474,6.943 16.773 C 7.470 16.253,7.478 16.234,10.002 9.780 C 10.734 7.910,11.340 6.342,11.350 6.296 C 11.363 6.233,11.343 6.205,11.274 6.186 C 11.154 6.154,9.775 6.164,9.120 6.201 M14.300 6.199 C 13.650 6.233,13.270 6.324,12.808 6.556 C 12.158 6.883,11.612 7.419,11.302 8.035 C 10.945 8.746,7.480 17.604,7.480 17.805 C 7.480 17.840,7.816 17.846,8.830 17.829 C 10.003 17.809,10.220 17.795,10.485 17.726 C 11.081 17.570,11.682 17.207,12.173 16.705 C 12.660 16.210,12.746 16.011,15.132 9.880 C 16.271 6.953,16.536 6.242,16.499 6.205 C 16.462 6.169,14.958 6.164,14.300 6.199 M19.480 6.203 C 19.035 6.226,18.816 6.257,18.542 6.339 C 17.833 6.548,17.251 6.936,16.820 7.487 C 16.448 7.963,16.472 7.907,14.912 11.880 C 13.759 14.817,12.600 17.798,12.600 17.827 C 12.600 17.868,15.129 17.809,15.396 17.762 C 15.945 17.664,16.504 17.408,16.947 17.052 C 17.283 16.783,17.654 16.351,17.813 16.045 C 17.988 15.710,20.430 9.554,21.521 6.700 C 21.605 6.480,21.686 6.269,21.701 6.230 C 21.727 6.165,21.674 6.160,20.894 6.166 C 20.435 6.170,19.799 6.186,19.480 6.203 " fill="#373B4D" stroke="none" fill-rule="evenodd"></path></svg>