<svg width="24" height="24" viewBox="0 0 24 24" fill="none" xmlns="http://www.w3.org/2000/svg"><path d="M7.356 7.279 L 4.373 7.300 4.153 7.446 C 3.591 7.820,3.455 8.499,3.834 9.038 C 4.078 9.387,4.214 9.475,4.583 9.526 C 4.798 9.555,7.257 9.575,12.210 9.588 L 19.520 9.607 19.779 9.422 C 20.193 9.127,20.360 8.821,20.359 8.360 C 20.359 7.974,20.139 7.636,19.701 7.345 L 19.541 7.240 14.941 7.249 C 12.410 7.253,8.997 7.267,7.356 7.279 M7.440 14.478 C 4.561 14.499,4.371 14.504,4.230 14.574 C 3.911 14.733,3.678 15.115,3.649 15.530 C 3.617 15.975,3.775 16.267,4.254 16.647 L 4.447 16.800 12.002 16.800 L 19.556 16.800 19.795 16.601 C 20.085 16.359,20.219 16.190,20.299 15.962 C 20.485 15.437,20.233 14.858,19.675 14.526 L 19.531 14.440 15.015 14.448 C 12.532 14.453,9.123 14.466,7.440 14.478 " fill="#373B4D" stroke="none" fill-rule="evenodd"></path></svg>