<svg width="24" height="24" viewBox="0 0 24 24" fill="none" xmlns="http://www.w3.org/2000/svg"><path d="M4.980 4.834 C 4.451 4.859,4.408 4.867,4.200 4.984 C 3.667 5.285,3.460 5.937,3.721 6.493 C 3.845 6.757,4.127 7.022,4.388 7.120 C 4.603 7.200,4.660 7.201,12.052 7.190 L 19.500 7.180 19.688 7.087 C 20.585 6.645,20.630 5.427,19.765 4.966 L 19.523 4.837 12.531 4.822 C 8.686 4.815,5.288 4.820,4.980 4.834 M4.980 10.834 C 4.545 10.854,4.385 10.877,4.264 10.938 C 3.776 11.179,3.513 11.784,3.663 12.318 C 3.749 12.625,4.022 12.944,4.329 13.097 L 4.536 13.200 8.398 13.199 C 12.121 13.198,12.266 13.195,12.429 13.121 C 12.661 13.016,12.978 12.710,13.086 12.488 C 13.196 12.261,13.208 11.782,13.109 11.552 C 13.020 11.343,12.736 11.049,12.514 10.937 L 12.325 10.841 8.932 10.825 C 7.067 10.816,5.288 10.820,4.980 10.834 M5.400 16.835 C 4.543 16.857,4.400 16.870,4.264 16.937 C 3.776 17.179,3.513 17.784,3.663 18.318 C 3.749 18.625,4.022 18.944,4.329 19.097 L 4.536 19.200 12.000 19.200 L 19.464 19.200 19.671 19.097 C 19.784 19.041,19.965 18.898,20.072 18.781 C 20.599 18.204,20.424 17.297,19.717 16.938 L 19.525 16.841 12.952 16.826 C 9.338 16.817,5.939 16.821,5.400 16.835 " fill="#373B4D" stroke="none" fill-rule="evenodd"></path></svg>