<svg width="24" height="24" viewBox="0 0 24 24" fill="none" xmlns="http://www.w3.org/2000/svg"><path d="M9.938 7.278 C 4.735 7.299,4.370 7.304,4.270 7.370 C 4.095 7.485,3.856 7.754,3.739 7.968 C 3.644 8.144,3.632 8.201,3.650 8.416 C 3.681 8.808,3.932 9.222,4.246 9.399 C 4.392 9.481,4.488 9.494,5.175 9.525 C 5.596 9.545,9.000 9.571,12.740 9.583 L 19.540 9.606 19.767 9.423 C 20.193 9.077,20.412 8.606,20.324 8.222 C 20.265 7.961,20.051 7.652,19.772 7.422 L 19.551 7.240 17.525 7.248 C 16.411 7.252,12.997 7.266,9.938 7.278 M10.065 14.485 C 7.317 14.503,4.890 14.533,4.672 14.553 C 4.329 14.584,4.251 14.605,4.107 14.706 C 3.861 14.878,3.675 15.261,3.671 15.602 C 3.666 15.933,3.746 16.091,4.121 16.493 L 4.408 16.800 12.001 16.800 L 19.593 16.800 19.877 16.492 C 20.216 16.125,20.330 15.907,20.334 15.625 C 20.339 15.271,20.148 14.932,19.767 14.618 L 19.551 14.440 17.305 14.447 C 16.070 14.450,12.812 14.468,10.065 14.485 " fill="#373B4D" stroke="none" fill-rule="evenodd"></path></svg>