<svg width="24" height="24" viewBox="0 0 24 24" fill="none" xmlns="http://www.w3.org/2000/svg"><path d="M11.060 4.882 C 5.511 4.916,4.440 4.937,4.286 5.017 C 4.152 5.086,3.829 5.427,3.749 5.584 C 3.615 5.846,3.633 6.142,3.804 6.485 C 3.916 6.709,4.221 6.992,4.404 7.041 C 4.704 7.122,6.914 7.158,13.241 7.186 L 19.581 7.213 19.844 6.925 C 20.192 6.544,20.300 6.330,20.300 6.020 C 20.300 5.710,20.184 5.479,19.846 5.114 L 19.593 4.840 17.686 4.847 C 16.638 4.850,13.656 4.866,11.060 4.882 M13.880 10.868 C 10.816 10.880,5.541 10.957,4.891 10.999 C 4.503 11.024,4.277 11.057,4.179 11.103 C 3.999 11.188,3.826 11.437,3.739 11.736 C 3.620 12.146,3.724 12.433,4.173 12.938 L 4.405 13.200 12.001 13.200 L 19.598 13.200 19.857 12.896 C 20.192 12.503,20.300 12.285,20.300 12.000 C 20.300 11.714,20.184 11.487,19.850 11.121 L 19.594 10.840 17.767 10.850 C 16.762 10.855,15.013 10.863,13.880 10.868 M15.060 16.925 C 13.718 16.942,12.353 16.975,12.027 16.997 C 11.300 17.046,11.223 17.082,11.034 17.467 C 10.783 17.976,10.877 18.391,11.363 18.930 L 11.607 19.200 14.073 19.198 C 17.068 19.195,19.307 19.147,19.569 19.080 C 19.938 18.985,20.296 18.446,20.299 17.980 C 20.300 17.679,20.202 17.470,19.897 17.130 L 19.674 16.880 18.587 16.886 C 17.989 16.890,16.402 16.907,15.060 16.925 " fill="#373B4D" stroke="none" fill-rule="evenodd"></path></svg>