<svg width="24" height="24" viewBox="0 0 24 24" fill="none" xmlns="http://www.w3.org/2000/svg"><path d="M7.356 4.879 L 4.373 4.900 4.153 5.046 C 3.591 5.420,3.455 6.099,3.834 6.638 C 4.078 6.987,4.214 7.075,4.583 7.126 C 4.798 7.155,7.257 7.175,12.210 7.188 L 19.520 7.207 19.779 7.022 C 20.193 6.727,20.360 6.421,20.359 5.960 C 20.359 5.574,20.139 5.236,19.701 4.945 L 19.541 4.840 14.941 4.849 C 12.410 4.853,8.997 4.867,7.356 4.879 M4.435 10.917 C 4.208 10.948,3.993 11.106,3.835 11.354 C 3.612 11.706,3.574 12.120,3.736 12.460 C 3.829 12.657,4.098 12.944,4.346 13.114 L 4.472 13.200 7.306 13.196 C 8.865 13.194,10.644 13.181,11.260 13.166 L 12.380 13.140 12.566 13.031 C 12.929 12.818,13.118 12.497,13.149 12.043 C 13.179 11.601,13.065 11.379,12.628 11.034 L 12.433 10.880 8.526 10.885 C 6.378 10.888,4.537 10.902,4.435 10.917 M7.440 16.878 C 4.561 16.899,4.371 16.904,4.230 16.974 C 3.911 17.133,3.678 17.515,3.649 17.930 C 3.617 18.375,3.775 18.667,4.254 19.047 L 4.447 19.200 12.002 19.200 L 19.556 19.200 19.795 19.001 C 20.085 18.759,20.219 18.590,20.299 18.362 C 20.485 17.837,20.233 17.258,19.675 16.926 L 19.531 16.840 15.015 16.848 C 12.532 16.853,9.123 16.866,7.440 16.878 " fill="#373B4D" stroke="none" fill-rule="evenodd"></path></svg>