<svg width="24" height="24" viewBox="0 0 24 24" fill="none" xmlns="http://www.w3.org/2000/svg"><path d="M10.124 4.887 C 6.373 4.909,4.496 4.934,4.389 4.963 C 4.182 5.019,3.861 5.345,3.729 5.633 C 3.623 5.864,3.625 5.960,3.740 6.348 C 3.808 6.577,4.084 6.898,4.314 7.017 C 4.523 7.125,6.151 7.156,13.180 7.185 L 19.580 7.212 19.854 6.921 C 20.475 6.261,20.477 5.779,19.859 5.125 L 19.590 4.840 17.645 4.847 C 16.575 4.850,13.191 4.868,10.124 4.887 M11.360 10.884 C 7.004 10.914,4.651 10.966,4.343 11.038 C 4.257 11.058,4.140 11.109,4.083 11.151 C 3.928 11.267,3.765 11.555,3.711 11.811 C 3.630 12.200,3.746 12.476,4.203 12.975 L 4.408 13.200 12.001 13.200 L 19.594 13.200 19.810 12.957 C 20.468 12.218,20.480 11.794,19.862 11.130 L 19.593 10.840 17.686 10.847 C 16.638 10.850,13.791 10.867,11.360 10.884 M11.400 16.884 C 7.047 16.915,4.643 16.967,4.343 17.038 C 4.257 17.058,4.140 17.109,4.083 17.151 C 3.928 17.267,3.765 17.555,3.711 17.811 C 3.630 18.200,3.746 18.476,4.203 18.975 L 4.408 19.200 12.001 19.200 L 19.594 19.200 19.810 18.957 C 20.468 18.218,20.480 17.794,19.862 17.130 L 19.593 16.840 17.686 16.847 C 16.638 16.850,13.809 16.867,11.400 16.884 " fill="#373B4D" stroke="none" fill-rule="evenodd"></path></svg>