<svg width="24" height="24" viewBox="0 0 24 24" fill="none" xmlns="http://www.w3.org/2000/svg"><path d="M9.497 4.878 L 4.374 4.900 4.208 5.010 C 4.005 5.144,3.743 5.468,3.678 5.665 C 3.604 5.892,3.650 6.275,3.782 6.517 C 3.926 6.782,4.189 7.023,4.393 7.078 C 4.654 7.148,8.780 7.198,14.380 7.199 L 19.540 7.200 19.767 7.022 C 19.891 6.924,20.051 6.760,20.122 6.657 C 20.528 6.066,20.404 5.513,19.749 4.995 L 19.553 4.840 17.086 4.848 C 15.730 4.853,12.315 4.866,9.497 4.878 M9.500 10.884 C 6.860 10.900,4.607 10.925,4.494 10.939 C 4.254 10.969,4.015 11.111,3.885 11.301 C 3.741 11.511,3.630 11.910,3.655 12.128 C 3.685 12.395,3.771 12.538,4.113 12.890 L 4.414 13.200 12.003 13.200 L 19.591 13.200 19.915 12.858 C 20.183 12.575,20.250 12.477,20.304 12.292 C 20.446 11.804,20.236 11.355,19.665 10.927 L 19.549 10.840 16.925 10.847 C 15.481 10.850,12.140 10.867,9.500 10.884 M9.500 16.883 C 6.860 16.900,4.607 16.925,4.494 16.939 C 4.254 16.969,4.015 17.111,3.885 17.301 C 3.741 17.511,3.630 17.910,3.655 18.128 C 3.685 18.395,3.771 18.538,4.113 18.890 L 4.414 19.200 12.003 19.200 L 19.591 19.200 19.915 18.858 C 20.183 18.575,20.250 18.477,20.304 18.292 C 20.446 17.804,20.236 17.355,19.665 16.927 L 19.549 16.840 16.925 16.847 C 15.481 16.850,12.140 16.867,9.500 16.883 " fill="#373B4D" stroke="none" fill-rule="evenodd"></path></svg>