<svg width="24" height="24" viewBox="0 0 24 24" fill="none" xmlns="http://www.w3.org/2000/svg"><path d="M10.124 4.887 C 6.373 4.909,4.496 4.934,4.389 4.963 C 4.182 5.019,3.861 5.345,3.729 5.633 C 3.623 5.864,3.625 5.960,3.740 6.348 C 3.808 6.577,4.084 6.898,4.314 7.017 C 4.523 7.125,6.151 7.156,13.180 7.185 L 19.580 7.212 19.854 6.921 C 20.475 6.261,20.477 5.779,19.859 5.125 L 19.590 4.840 17.645 4.847 C 16.575 4.850,13.191 4.868,10.124 4.887 M11.360 10.884 C 7.004 10.914,4.651 10.966,4.343 11.038 C 4.257 11.058,4.140 11.109,4.083 11.151 C 3.928 11.267,3.765 11.555,3.711 11.811 C 3.630 12.200,3.746 12.476,4.203 12.975 L 4.408 13.200 12.001 13.200 L 19.594 13.200 19.810 12.957 C 20.468 12.218,20.480 11.794,19.862 11.130 L 19.593 10.840 17.686 10.847 C 16.638 10.850,13.791 10.867,11.360 10.884 M7.660 16.925 C 6.252 16.943,4.898 16.974,4.652 16.994 C 4.106 17.040,4.019 17.090,3.832 17.471 C 3.723 17.691,3.700 17.784,3.701 17.999 C 3.701 18.319,3.812 18.541,4.166 18.934 L 4.406 19.200 6.653 19.197 C 7.889 19.195,9.665 19.180,10.600 19.164 C 12.521 19.129,12.471 19.138,12.757 18.815 C 12.975 18.570,13.083 18.334,13.109 18.039 C 13.136 17.743,13.018 17.479,12.701 17.130 L 12.474 16.880 11.347 16.886 C 10.727 16.890,9.068 16.907,7.660 16.925 " fill="#373B4D" stroke="none" fill-rule="evenodd"></path></svg>