<svg width="24" height="24" viewBox="0 0 24 24" fill="none" xmlns="http://www.w3.org/2000/svg"><path d="M8.420 4.878 L 4.380 4.900 4.235 4.990 C 4.038 5.113,3.778 5.401,3.697 5.587 C 3.588 5.837,3.605 6.187,3.739 6.462 C 3.881 6.751,4.142 7.018,4.346 7.083 C 4.563 7.151,8.084 7.191,14.373 7.196 L 19.526 7.200 19.693 7.085 C 19.983 6.885,20.228 6.591,20.297 6.358 C 20.459 5.812,20.299 5.391,19.786 5.013 L 19.551 4.840 16.006 4.848 C 14.056 4.853,10.642 4.866,8.420 4.878 M8.420 10.880 C 4.704 10.904,4.408 10.911,4.251 10.977 C 3.928 11.113,3.693 11.492,3.654 11.939 C 3.618 12.352,3.764 12.634,4.205 13.001 L 4.444 13.200 12.017 13.200 L 19.589 13.200 19.887 12.910 C 20.223 12.583,20.320 12.410,20.348 12.085 C 20.385 11.667,20.143 11.232,19.728 10.965 L 19.533 10.840 15.976 10.848 C 14.020 10.852,10.620 10.867,8.420 10.880 M12.300 16.918 C 11.559 16.938,11.489 16.947,11.354 17.031 C 11.064 17.211,10.840 17.631,10.840 17.995 C 10.840 18.387,11.044 18.729,11.465 19.048 L 11.682 19.211 15.591 19.192 C 19.498 19.172,19.500 19.172,19.669 19.086 C 20.074 18.879,20.303 18.537,20.346 18.074 C 20.386 17.641,20.280 17.416,19.874 17.078 L 19.636 16.880 16.368 16.888 C 14.571 16.893,12.740 16.906,12.300 16.918 " fill="#373B4D" stroke="none" fill-rule="evenodd"></path></svg>