<svg width="24" height="24" viewBox="0 0 24 24" fill="none" xmlns="http://www.w3.org/2000/svg"><path d="M9.797 4.878 L 4.373 4.900 4.199 5.020 C 3.983 5.170,3.691 5.559,3.656 5.746 C 3.587 6.116,3.731 6.535,4.031 6.835 C 4.192 6.996,4.268 7.040,4.444 7.077 C 4.792 7.148,8.851 7.198,14.416 7.199 L 19.533 7.200 19.744 7.037 C 19.978 6.856,20.106 6.704,20.235 6.450 C 20.480 5.970,20.330 5.484,19.802 5.045 L 19.556 4.840 17.388 4.848 C 16.196 4.852,12.779 4.866,9.797 4.878 M9.980 10.883 C 4.479 10.917,4.439 10.918,4.215 11.032 C 3.880 11.203,3.667 11.592,3.662 12.040 C 3.660 12.333,3.746 12.496,4.110 12.883 L 4.408 13.200 11.999 13.200 L 19.590 13.200 19.873 12.902 C 20.029 12.737,20.191 12.535,20.234 12.452 C 20.479 11.968,20.305 11.442,19.757 11.005 L 19.550 10.840 17.145 10.847 C 15.822 10.850,12.598 10.867,9.980 10.883 M6.940 16.922 C 5.686 16.937,4.565 16.951,4.449 16.954 C 4.261 16.959,4.219 16.978,4.060 17.124 C 3.666 17.487,3.547 18.054,3.776 18.469 C 3.840 18.584,4.013 18.796,4.162 18.939 L 4.432 19.200 7.006 19.197 C 8.422 19.195,10.212 19.181,10.985 19.166 L 12.390 19.138 12.559 19.021 C 12.808 18.848,12.998 18.594,13.084 18.318 C 13.230 17.847,13.154 17.591,12.742 17.170 L 12.457 16.880 10.839 16.888 C 9.948 16.892,8.194 16.908,6.940 16.922 " fill="#373B4D" stroke="none" fill-rule="evenodd"></path></svg>