<svg width="24" height="24" viewBox="0 0 24 24" fill="none" xmlns="http://www.w3.org/2000/svg"><path d="M11.060 4.882 C 5.511 4.916,4.440 4.937,4.286 5.017 C 4.152 5.086,3.829 5.427,3.749 5.584 C 3.615 5.846,3.633 6.142,3.804 6.485 C 3.916 6.709,4.221 6.992,4.404 7.041 C 4.704 7.122,6.914 7.158,13.241 7.186 L 19.581 7.213 19.844 6.925 C 20.192 6.544,20.300 6.330,20.300 6.020 C 20.300 5.710,20.184 5.479,19.846 5.114 L 19.593 4.840 17.686 4.847 C 16.638 4.850,13.656 4.866,11.060 4.882 M7.860 10.925 C 6.518 10.942,5.153 10.975,4.827 10.997 C 4.100 11.046,4.023 11.082,3.834 11.467 C 3.583 11.976,3.677 12.391,4.163 12.930 L 4.407 13.200 6.873 13.198 C 9.868 13.195,12.107 13.147,12.369 13.080 C 12.738 12.985,13.096 12.446,13.099 11.980 C 13.100 11.679,13.002 11.470,12.697 11.130 L 12.474 10.880 11.387 10.886 C 10.789 10.890,9.202 10.907,7.860 10.925 M13.920 16.868 C 10.927 16.880,5.586 16.958,4.912 16.999 C 4.233 17.040,4.094 17.087,3.922 17.338 C 3.767 17.563,3.665 17.923,3.697 18.134 C 3.730 18.352,3.885 18.614,4.173 18.938 L 4.405 19.200 12.001 19.200 L 19.598 19.200 19.857 18.896 C 20.192 18.503,20.300 18.285,20.300 18.000 C 20.300 17.714,20.184 17.487,19.850 17.121 L 19.594 16.840 17.767 16.850 C 16.762 16.855,15.031 16.863,13.920 16.868 " fill="#373B4D" stroke="none" fill-rule="evenodd"></path></svg>