<svg width="24" height="24" viewBox="0 0 24 24" fill="none" xmlns="http://www.w3.org/2000/svg"><path d="M10.124 7.287 C 6.373 7.309,4.496 7.334,4.389 7.363 C 4.046 7.455,3.603 8.077,3.654 8.394 C 3.713 8.755,3.803 8.958,3.994 9.154 C 4.317 9.485,4.292 9.480,5.632 9.521 C 6.285 9.542,9.691 9.570,13.200 9.585 L 19.580 9.612 19.854 9.321 C 20.475 8.661,20.477 8.179,19.859 7.525 L 19.590 7.240 17.645 7.247 C 16.575 7.250,13.191 7.268,10.124 7.287 M11.360 14.484 C 7.004 14.514,4.651 14.566,4.343 14.638 C 4.257 14.658,4.140 14.709,4.083 14.751 C 3.928 14.867,3.765 15.155,3.711 15.411 C 3.630 15.800,3.746 16.076,4.203 16.575 L 4.408 16.800 12.001 16.800 L 19.594 16.800 19.810 16.557 C 20.468 15.818,20.480 15.394,19.862 14.730 L 19.593 14.440 17.686 14.447 C 16.638 14.450,13.791 14.467,11.360 14.484 " fill="#373B4D" stroke="none" fill-rule="evenodd"></path></svg>