<svg width="24" height="24" viewBox="0 0 24 24" fill="none" xmlns="http://www.w3.org/2000/svg"><path d="M10.220 7.283 C 7.184 7.300,4.617 7.321,4.516 7.330 C 4.286 7.351,4.087 7.496,3.855 7.811 C 3.630 8.116,3.602 8.300,3.719 8.685 C 3.793 8.929,3.841 9.007,4.033 9.200 C 4.164 9.330,4.312 9.438,4.380 9.454 C 4.704 9.526,6.822 9.559,12.907 9.585 L 19.554 9.613 19.838 9.340 C 20.497 8.703,20.499 8.139,19.844 7.507 L 19.568 7.240 17.654 7.247 C 16.601 7.250,13.256 7.267,10.220 7.283 M10.960 14.484 C 5.833 14.519,4.445 14.556,4.219 14.663 C 3.914 14.808,3.680 15.230,3.680 15.637 C 3.680 15.893,3.819 16.157,4.142 16.510 L 4.406 16.800 11.999 16.800 L 19.592 16.800 19.797 16.575 C 20.478 15.831,20.499 15.379,19.882 14.750 L 19.578 14.440 17.579 14.447 C 16.479 14.450,13.501 14.467,10.960 14.484 " fill="#373B4D" stroke="none" fill-rule="evenodd"></path></svg>