<svg width="24" height="24" viewBox="0 0 24 24" fill="none" xmlns="http://www.w3.org/2000/svg"><path d="M9.497 4.878 L 4.374 4.900 4.208 5.010 C 4.005 5.144,3.743 5.468,3.678 5.665 C 3.604 5.892,3.650 6.275,3.782 6.517 C 3.926 6.782,4.189 7.023,4.393 7.078 C 4.654 7.148,8.780 7.198,14.380 7.199 L 19.540 7.200 19.767 7.022 C 19.891 6.924,20.051 6.760,20.122 6.657 C 20.528 6.066,20.404 5.513,19.749 4.995 L 19.553 4.840 17.086 4.848 C 15.730 4.853,12.315 4.866,9.497 4.878 M9.500 10.884 C 6.860 10.900,4.607 10.925,4.494 10.939 C 4.254 10.969,4.015 11.111,3.885 11.301 C 3.741 11.511,3.630 11.910,3.655 12.128 C 3.685 12.395,3.771 12.538,4.113 12.890 L 4.414 13.200 12.003 13.200 L 19.591 13.200 19.915 12.858 C 20.183 12.575,20.250 12.477,20.304 12.292 C 20.446 11.804,20.236 11.355,19.665 10.927 L 19.549 10.840 16.925 10.847 C 15.481 10.850,12.140 10.867,9.500 10.884 M6.380 16.918 C 4.899 16.934,4.277 16.953,4.220 16.987 C 4.068 17.076,3.844 17.341,3.760 17.530 C 3.518 18.078,3.670 18.538,4.260 19.042 L 4.459 19.212 8.340 19.188 C 11.048 19.171,12.268 19.150,12.380 19.118 C 12.487 19.087,12.615 18.996,12.767 18.841 C 12.952 18.652,13.009 18.560,13.077 18.340 C 13.123 18.193,13.160 18.024,13.160 17.966 C 13.159 17.663,12.979 17.346,12.646 17.062 L 12.433 16.880 10.447 16.888 C 9.354 16.893,7.524 16.906,6.380 16.918 " fill="#373B4D" stroke="none" fill-rule="evenodd"></path></svg>