<svg width="24" height="24" viewBox="0 0 24 24" fill="none" xmlns="http://www.w3.org/2000/svg"><path d="M10.220 4.883 C 7.184 4.900,4.617 4.921,4.516 4.930 C 4.286 4.951,4.087 5.096,3.855 5.411 C 3.630 5.716,3.602 5.900,3.719 6.285 C 3.793 6.529,3.841 6.607,4.033 6.800 C 4.164 6.930,4.312 7.038,4.380 7.054 C 4.705 7.127,6.828 7.159,12.907 7.185 L 19.554 7.213 19.838 6.940 C 20.497 6.303,20.499 5.739,19.844 5.107 L 19.568 4.840 17.654 4.847 C 16.601 4.850,13.256 4.867,10.220 4.883 M10.960 10.884 C 5.833 10.919,4.445 10.956,4.219 11.063 C 3.914 11.208,3.680 11.630,3.680 12.037 C 3.680 12.293,3.819 12.557,4.142 12.910 L 4.406 13.200 11.999 13.200 L 19.592 13.200 19.797 12.975 C 20.478 12.231,20.499 11.779,19.882 11.150 L 19.578 10.840 17.579 10.847 C 16.479 10.850,13.501 10.867,10.960 10.884 M14.860 16.922 C 12.023 16.956,11.523 16.976,11.360 17.060 C 11.103 17.193,10.855 17.725,10.888 18.074 C 10.914 18.342,11.051 18.591,11.354 18.923 L 11.615 19.210 15.358 19.185 C 17.416 19.172,19.232 19.145,19.393 19.126 C 19.670 19.093,19.696 19.081,19.879 18.901 C 20.157 18.627,20.287 18.367,20.311 18.037 C 20.335 17.697,20.261 17.529,19.918 17.150 L 19.674 16.880 18.487 16.887 C 17.834 16.890,16.202 16.906,14.860 16.922 " fill="#373B4D" stroke="none" fill-rule="evenodd"></path></svg>