<svg width="24" height="24" viewBox="0 0 24 24" fill="none" xmlns="http://www.w3.org/2000/svg"><path d="M9.060 4.878 L 4.380 4.900 4.231 4.993 C 4.051 5.104,3.792 5.392,3.704 5.577 C 3.621 5.751,3.622 6.132,3.705 6.376 C 3.794 6.639,4.156 7.025,4.366 7.082 C 4.617 7.149,8.730 7.197,14.373 7.199 L 19.526 7.200 19.695 7.083 C 20.064 6.829,20.301 6.475,20.344 6.113 C 20.392 5.702,20.219 5.360,19.799 5.033 L 19.551 4.840 16.645 4.848 C 15.047 4.853,11.634 4.866,9.060 4.878 M9.140 10.881 C 6.654 10.896,4.539 10.922,4.440 10.938 C 4.069 11.001,3.811 11.273,3.696 11.725 C 3.573 12.204,3.671 12.481,4.115 12.910 L 4.415 13.200 12.001 13.200 L 19.586 13.200 19.909 12.869 C 20.174 12.598,20.243 12.500,20.296 12.322 C 20.371 12.068,20.375 11.957,20.316 11.740 C 20.246 11.482,20.041 11.201,19.788 11.014 L 19.551 10.840 16.606 10.847 C 14.986 10.851,11.626 10.866,9.140 10.881 M13.077 16.918 L 11.493 16.940 11.330 17.053 C 11.139 17.186,10.993 17.391,10.904 17.655 C 10.739 18.141,10.910 18.591,11.420 19.009 L 11.660 19.206 15.540 19.188 C 18.204 19.175,19.463 19.156,19.557 19.126 C 19.918 19.009,20.198 18.690,20.305 18.274 C 20.430 17.785,20.307 17.443,19.877 17.084 L 19.633 16.880 17.147 16.888 C 15.779 16.892,13.947 16.906,13.077 16.918 " fill="#373B4D" stroke="none" fill-rule="evenodd"></path></svg>