<svg width="24" height="24" viewBox="0 0 24 24" fill="none" xmlns="http://www.w3.org/2000/svg"><path d="M7.356 4.879 L 4.373 4.900 4.153 5.046 C 3.591 5.420,3.455 6.099,3.834 6.638 C 4.078 6.987,4.214 7.075,4.583 7.126 C 4.798 7.155,7.257 7.175,12.210 7.188 L 19.520 7.207 19.779 7.022 C 20.193 6.727,20.360 6.421,20.359 5.960 C 20.359 5.574,20.139 5.236,19.701 4.945 L 19.541 4.840 14.941 4.849 C 12.410 4.853,8.997 4.867,7.356 4.879 M7.440 10.878 C 4.561 10.899,4.371 10.904,4.230 10.974 C 3.911 11.133,3.678 11.515,3.649 11.930 C 3.617 12.375,3.775 12.667,4.254 13.047 L 4.447 13.200 12.002 13.200 L 19.556 13.200 19.795 13.001 C 20.085 12.759,20.219 12.590,20.299 12.362 C 20.485 11.837,20.233 11.258,19.675 10.926 L 19.531 10.840 15.015 10.848 C 12.532 10.853,9.123 10.866,7.440 10.878 M11.635 16.917 C 11.408 16.948,11.193 17.106,11.035 17.354 C 10.812 17.706,10.774 18.120,10.936 18.460 C 11.029 18.657,11.298 18.944,11.546 19.114 L 11.672 19.200 14.506 19.196 C 16.065 19.194,17.844 19.181,18.460 19.166 L 19.580 19.140 19.766 19.031 C 20.129 18.818,20.318 18.497,20.349 18.043 C 20.379 17.601,20.265 17.379,19.828 17.034 L 19.633 16.880 15.726 16.885 C 13.578 16.888,11.737 16.902,11.635 16.917 " fill="#373B4D" stroke="none" fill-rule="evenodd"></path></svg>