<svg width="24" height="24" viewBox="0 0 24 24" fill="none" xmlns="http://www.w3.org/2000/svg"><path d="M9.938 4.878 C 4.735 4.899,4.370 4.904,4.270 4.970 C 4.095 5.085,3.856 5.354,3.739 5.568 C 3.644 5.744,3.632 5.801,3.650 6.016 C 3.681 6.408,3.932 6.822,4.246 6.999 C 4.392 7.081,4.488 7.094,5.175 7.125 C 5.596 7.145,9.000 7.171,12.740 7.183 L 19.540 7.206 19.767 7.023 C 20.193 6.677,20.412 6.206,20.324 5.822 C 20.265 5.561,20.051 5.252,19.772 5.022 L 19.551 4.840 17.525 4.848 C 16.411 4.852,12.997 4.866,9.938 4.878 M10.065 10.885 C 7.317 10.903,4.890 10.933,4.672 10.953 C 4.329 10.984,4.251 11.005,4.107 11.106 C 3.861 11.278,3.675 11.661,3.671 12.002 C 3.666 12.333,3.746 12.491,4.121 12.893 L 4.408 13.200 12.001 13.200 L 19.593 13.200 19.877 12.892 C 20.216 12.525,20.330 12.307,20.334 12.025 C 20.339 11.671,20.148 11.332,19.767 11.018 L 19.551 10.840 17.305 10.847 C 16.070 10.850,12.812 10.868,10.065 10.885 M14.244 16.924 C 12.328 16.946,11.515 16.969,11.434 17.003 C 11.152 17.119,10.872 17.615,10.872 17.998 C 10.872 18.320,10.973 18.522,11.323 18.896 L 11.619 19.212 15.564 19.190 C 19.993 19.165,19.608 19.195,19.947 18.855 C 20.189 18.613,20.332 18.293,20.337 17.982 C 20.341 17.673,20.266 17.521,19.932 17.160 L 19.673 16.880 18.306 16.887 C 17.555 16.890,15.727 16.907,14.244 16.924 " fill="#373B4D" stroke="none" fill-rule="evenodd"></path></svg>