<svg width="24" height="24" viewBox="0 0 24 24" fill="none" xmlns="http://www.w3.org/2000/svg"><path d="M8.420 7.278 L 4.380 7.300 4.235 7.390 C 4.038 7.513,3.778 7.801,3.697 7.987 C 3.588 8.237,3.605 8.587,3.739 8.862 C 3.881 9.151,4.142 9.418,4.346 9.483 C 4.563 9.551,8.084 9.591,14.373 9.596 L 19.526 9.600 19.693 9.485 C 19.983 9.285,20.228 8.991,20.297 8.758 C 20.459 8.212,20.299 7.791,19.786 7.413 L 19.551 7.240 16.006 7.248 C 14.056 7.253,10.642 7.266,8.420 7.278 M8.420 14.480 C 4.704 14.504,4.408 14.511,4.251 14.577 C 3.928 14.713,3.693 15.092,3.654 15.539 C 3.618 15.952,3.764 16.234,4.205 16.601 L 4.444 16.800 12.017 16.800 L 19.589 16.800 19.887 16.510 C 20.223 16.183,20.320 16.010,20.348 15.685 C 20.385 15.267,20.143 14.832,19.728 14.565 L 19.533 14.440 15.976 14.448 C 14.020 14.452,10.620 14.467,8.420 14.480 " fill="#373B4D" stroke="none" fill-rule="evenodd"></path></svg>