<svg width="24" height="24" viewBox="0 0 24 24" fill="none" xmlns="http://www.w3.org/2000/svg"><path d="M10.100 4.881 C 7.042 4.896,4.473 4.922,4.390 4.938 C 4.208 4.975,3.830 5.362,3.709 5.636 C 3.514 6.075,3.844 6.827,4.320 7.030 C 4.567 7.135,5.664 7.155,12.700 7.185 L 19.540 7.213 19.739 7.041 C 20.534 6.353,20.536 5.689,19.746 5.005 L 19.555 4.840 17.608 4.847 C 16.536 4.851,13.158 4.867,10.100 4.881 M10.520 10.885 C 5.344 10.920,4.421 10.944,4.212 11.053 C 3.897 11.217,3.680 11.615,3.680 12.029 C 3.680 12.330,3.775 12.514,4.123 12.892 L 4.407 13.200 12.000 13.200 L 19.594 13.200 19.858 12.910 C 20.197 12.539,20.320 12.296,20.319 12.002 C 20.318 11.639,20.157 11.357,19.752 11.010 L 19.553 10.840 17.447 10.847 C 16.288 10.850,13.171 10.868,10.520 10.885 M10.540 16.886 C 5.353 16.920,4.419 16.945,4.212 17.053 C 3.897 17.218,3.680 17.615,3.680 18.029 C 3.680 18.330,3.775 18.514,4.123 18.892 L 4.407 19.200 12.000 19.200 L 19.594 19.200 19.858 18.910 C 20.197 18.539,20.320 18.296,20.319 18.002 C 20.318 17.639,20.157 17.357,19.752 17.010 L 19.553 16.840 17.447 16.847 C 16.288 16.850,13.180 16.868,10.540 16.886 " fill="#373B4D" stroke="none" fill-rule="evenodd"></path></svg>