<svg width="24" height="24" viewBox="0 0 24 24" fill="none" xmlns="http://www.w3.org/2000/svg"><path d="M8.420 4.878 L 4.380 4.900 4.235 4.990 C 4.038 5.113,3.778 5.401,3.697 5.587 C 3.588 5.837,3.605 6.187,3.739 6.462 C 3.881 6.751,4.142 7.018,4.346 7.083 C 4.563 7.151,8.084 7.191,14.373 7.196 L 19.526 7.200 19.693 7.085 C 19.983 6.885,20.228 6.591,20.297 6.358 C 20.459 5.812,20.299 5.391,19.786 5.013 L 19.551 4.840 16.006 4.848 C 14.056 4.853,10.642 4.866,8.420 4.878 M5.100 10.918 C 4.359 10.938,4.289 10.947,4.154 11.031 C 3.864 11.211,3.640 11.631,3.640 11.995 C 3.640 12.387,3.844 12.729,4.265 13.048 L 4.482 13.211 8.391 13.192 C 12.298 13.172,12.300 13.172,12.469 13.086 C 12.874 12.879,13.103 12.537,13.146 12.074 C 13.186 11.641,13.080 11.416,12.674 11.078 L 12.436 10.880 9.168 10.888 C 7.371 10.893,5.540 10.906,5.100 10.918 M8.420 16.880 C 4.704 16.904,4.408 16.911,4.251 16.977 C 3.928 17.113,3.693 17.492,3.654 17.939 C 3.618 18.352,3.764 18.634,4.205 19.001 L 4.444 19.200 12.017 19.200 L 19.589 19.200 19.887 18.910 C 20.223 18.583,20.320 18.410,20.348 18.085 C 20.385 17.667,20.143 17.232,19.728 16.965 L 19.533 16.840 15.976 16.848 C 14.020 16.852,10.620 16.867,8.420 16.880 " fill="#373B4D" stroke="none" fill-rule="evenodd"></path></svg>