<svg width="24" height="24" viewBox="0 0 24 24" fill="none" xmlns="http://www.w3.org/2000/svg"><path d="M10.100 4.881 C 7.042 4.896,4.473 4.922,4.390 4.938 C 4.208 4.975,3.830 5.362,3.709 5.636 C 3.514 6.075,3.844 6.827,4.320 7.030 C 4.567 7.135,5.664 7.155,12.700 7.185 L 19.540 7.213 19.739 7.041 C 20.534 6.353,20.536 5.689,19.746 5.005 L 19.555 4.840 17.608 4.847 C 16.536 4.851,13.158 4.867,10.100 4.881 M10.520 10.885 C 5.344 10.920,4.421 10.944,4.212 11.053 C 3.897 11.217,3.680 11.615,3.680 12.029 C 3.680 12.330,3.775 12.514,4.123 12.892 L 4.407 13.200 12.000 13.200 L 19.594 13.200 19.858 12.910 C 20.197 12.539,20.320 12.296,20.319 12.002 C 20.318 11.639,20.157 11.357,19.752 11.010 L 19.553 10.840 17.447 10.847 C 16.288 10.850,13.171 10.868,10.520 10.885 M14.600 16.923 C 13.203 16.939,11.907 16.965,11.720 16.980 C 11.385 17.008,11.377 17.011,11.214 17.180 C 11.015 17.388,10.880 17.723,10.880 18.012 C 10.881 18.301,11.013 18.561,11.338 18.910 L 11.607 19.200 14.674 19.198 C 17.914 19.196,19.453 19.159,19.672 19.079 C 19.844 19.016,20.180 18.600,20.265 18.345 C 20.353 18.080,20.346 17.768,20.247 17.575 C 20.204 17.490,20.057 17.299,19.921 17.150 L 19.673 16.880 18.406 16.887 C 17.710 16.890,15.997 16.907,14.600 16.923 " fill="#373B4D" stroke="none" fill-rule="evenodd"></path></svg>