<svg width="24" height="24" viewBox="0 0 24 24" fill="none" xmlns="http://www.w3.org/2000/svg"><path d="M9.797 7.278 L 4.373 7.300 4.199 7.420 C 3.983 7.570,3.691 7.959,3.656 8.146 C 3.587 8.516,3.731 8.935,4.031 9.235 C 4.192 9.396,4.268 9.440,4.444 9.477 C 4.792 9.548,8.851 9.598,14.416 9.599 L 19.533 9.600 19.744 9.437 C 19.978 9.256,20.106 9.104,20.235 8.850 C 20.480 8.370,20.330 7.884,19.802 7.445 L 19.556 7.240 17.388 7.248 C 16.196 7.252,12.779 7.266,9.797 7.278 M9.980 14.483 C 4.479 14.517,4.439 14.518,4.215 14.632 C 3.880 14.803,3.667 15.192,3.662 15.640 C 3.660 15.933,3.746 16.096,4.110 16.483 L 4.408 16.800 11.999 16.800 L 19.590 16.800 19.873 16.502 C 20.029 16.337,20.191 16.135,20.234 16.052 C 20.479 15.568,20.305 15.042,19.757 14.605 L 19.550 14.440 17.145 14.447 C 15.822 14.450,12.598 14.467,9.980 14.483 " fill="#373B4D" stroke="none" fill-rule="evenodd"></path></svg>