<svg width="24" height="24" viewBox="0 0 24 24" fill="none" xmlns="http://www.w3.org/2000/svg"><path d="M10.124 4.887 C 6.373 4.909,4.496 4.934,4.389 4.963 C 4.182 5.019,3.861 5.345,3.729 5.633 C 3.623 5.864,3.625 5.960,3.740 6.348 C 3.808 6.577,4.084 6.898,4.314 7.017 C 4.523 7.125,6.151 7.156,13.180 7.185 L 19.580 7.212 19.854 6.921 C 20.475 6.261,20.477 5.779,19.859 5.125 L 19.590 4.840 17.645 4.847 C 16.575 4.850,13.191 4.868,10.124 4.887 M11.360 10.884 C 7.004 10.914,4.651 10.966,4.343 11.038 C 4.257 11.058,4.140 11.109,4.083 11.151 C 3.928 11.267,3.765 11.555,3.711 11.811 C 3.630 12.200,3.746 12.476,4.203 12.975 L 4.408 13.200 12.001 13.200 L 19.594 13.200 19.810 12.957 C 20.468 12.218,20.480 11.794,19.862 11.130 L 19.593 10.840 17.686 10.847 C 16.638 10.850,13.791 10.867,11.360 10.884 M14.860 16.925 C 13.452 16.943,12.098 16.974,11.852 16.994 C 11.306 17.040,11.219 17.090,11.032 17.471 C 10.923 17.691,10.900 17.784,10.901 17.999 C 10.901 18.319,11.012 18.541,11.366 18.934 L 11.606 19.200 13.853 19.197 C 15.089 19.195,16.865 19.180,17.800 19.164 C 19.721 19.129,19.671 19.138,19.957 18.815 C 20.175 18.570,20.283 18.334,20.309 18.039 C 20.336 17.743,20.218 17.479,19.901 17.130 L 19.674 16.880 18.547 16.886 C 17.927 16.890,16.268 16.907,14.860 16.925 " fill="#373B4D" stroke="none" fill-rule="evenodd"></path></svg>