<svg width="24" height="24" viewBox="0 0 24 24" fill="none" xmlns="http://www.w3.org/2000/svg"><path d="M11.060 7.282 C 8.464 7.298,5.900 7.322,5.363 7.336 C 4.418 7.360,4.380 7.364,4.216 7.460 C 4.017 7.577,3.782 7.882,3.695 8.137 C 3.624 8.345,3.661 8.607,3.798 8.877 C 3.918 9.110,4.205 9.377,4.402 9.436 C 4.697 9.524,6.519 9.555,13.181 9.585 L 19.582 9.613 19.844 9.325 C 20.192 8.944,20.300 8.730,20.300 8.420 C 20.300 8.110,20.184 7.879,19.846 7.514 L 19.593 7.240 17.686 7.247 C 16.638 7.250,13.656 7.266,11.060 7.282 M13.880 14.468 C 10.816 14.480,5.541 14.557,4.891 14.599 C 4.503 14.624,4.277 14.657,4.179 14.703 C 3.999 14.788,3.826 15.037,3.739 15.336 C 3.620 15.746,3.724 16.033,4.173 16.538 L 4.405 16.800 12.001 16.800 L 19.598 16.800 19.857 16.496 C 20.192 16.103,20.300 15.885,20.300 15.600 C 20.300 15.314,20.184 15.087,19.850 14.721 L 19.594 14.440 17.767 14.450 C 16.762 14.455,15.013 14.463,13.880 14.468 " fill="#373B4D" stroke="none" fill-rule="evenodd"></path></svg>