<svg width="24" height="24" viewBox="0 0 24 24" fill="none" xmlns="http://www.w3.org/2000/svg"><path d="M10.100 4.881 C 7.042 4.896,4.473 4.922,4.390 4.938 C 4.208 4.975,3.830 5.362,3.709 5.636 C 3.514 6.075,3.844 6.827,4.320 7.030 C 4.567 7.135,5.664 7.155,12.700 7.185 L 19.540 7.213 19.739 7.041 C 20.534 6.353,20.536 5.689,19.746 5.005 L 19.555 4.840 17.608 4.847 C 16.536 4.851,13.158 4.867,10.100 4.881 M10.520 10.885 C 5.344 10.920,4.421 10.944,4.212 11.053 C 3.897 11.217,3.680 11.615,3.680 12.029 C 3.680 12.330,3.775 12.514,4.123 12.892 L 4.407 13.200 12.000 13.200 L 19.594 13.200 19.858 12.910 C 20.197 12.539,20.320 12.296,20.319 12.002 C 20.318 11.639,20.157 11.357,19.752 11.010 L 19.553 10.840 17.447 10.847 C 16.288 10.850,13.171 10.868,10.520 10.885 M7.400 16.923 C 6.003 16.939,4.707 16.965,4.520 16.980 C 4.185 17.008,4.177 17.011,4.014 17.180 C 3.815 17.388,3.680 17.723,3.680 18.012 C 3.681 18.301,3.813 18.561,4.138 18.910 L 4.407 19.200 7.474 19.198 C 10.714 19.196,12.253 19.159,12.472 19.079 C 12.644 19.016,12.980 18.600,13.065 18.345 C 13.153 18.080,13.146 17.768,13.047 17.575 C 13.004 17.490,12.857 17.299,12.721 17.150 L 12.473 16.880 11.206 16.887 C 10.510 16.890,8.797 16.907,7.400 16.923 " fill="#373B4D" stroke="none" fill-rule="evenodd"></path></svg>