<svg width="24" height="24" viewBox="0 0 24 24" fill="none" xmlns="http://www.w3.org/2000/svg"><path d="M10.220 4.883 C 7.184 4.900,4.617 4.921,4.516 4.930 C 4.286 4.951,4.087 5.096,3.855 5.411 C 3.630 5.716,3.602 5.900,3.719 6.285 C 3.793 6.529,3.841 6.607,4.033 6.800 C 4.164 6.930,4.312 7.038,4.380 7.054 C 4.705 7.127,6.828 7.159,12.907 7.185 L 19.554 7.213 19.838 6.940 C 20.497 6.303,20.499 5.739,19.844 5.107 L 19.568 4.840 17.654 4.847 C 16.601 4.850,13.256 4.867,10.220 4.883 M7.660 10.922 C 4.823 10.956,4.323 10.976,4.160 11.060 C 3.903 11.193,3.655 11.725,3.688 12.074 C 3.714 12.342,3.851 12.591,4.154 12.923 L 4.415 13.210 8.158 13.185 C 10.216 13.172,12.032 13.145,12.193 13.126 C 12.470 13.093,12.496 13.081,12.679 12.901 C 12.957 12.627,13.087 12.367,13.111 12.037 C 13.135 11.697,13.061 11.529,12.718 11.150 L 12.474 10.880 11.287 10.887 C 10.634 10.890,9.002 10.906,7.660 10.922 M10.980 16.885 C 5.825 16.920,4.445 16.956,4.219 17.063 C 3.914 17.208,3.680 17.630,3.680 18.037 C 3.680 18.293,3.819 18.557,4.142 18.910 L 4.406 19.200 11.999 19.200 L 19.592 19.200 19.797 18.975 C 20.478 18.231,20.499 17.779,19.882 17.150 L 19.578 16.840 17.599 16.847 C 16.510 16.850,13.532 16.867,10.980 16.885 " fill="#373B4D" stroke="none" fill-rule="evenodd"></path></svg>