<svg width="24" height="24" viewBox="0 0 24 24" fill="none" xmlns="http://www.w3.org/2000/svg"><path d="M11.060 4.882 C 5.511 4.916,4.440 4.937,4.286 5.017 C 4.152 5.086,3.829 5.427,3.749 5.584 C 3.615 5.846,3.633 6.142,3.804 6.485 C 3.916 6.709,4.221 6.992,4.404 7.041 C 4.704 7.122,6.914 7.158,13.241 7.186 L 19.581 7.213 19.844 6.925 C 20.192 6.544,20.300 6.330,20.300 6.020 C 20.300 5.710,20.184 5.479,19.846 5.114 L 19.593 4.840 17.686 4.847 C 16.638 4.850,13.656 4.866,11.060 4.882 M13.880 10.868 C 10.816 10.880,5.541 10.957,4.891 10.999 C 4.503 11.024,4.277 11.057,4.179 11.103 C 3.999 11.188,3.826 11.437,3.739 11.736 C 3.620 12.146,3.724 12.433,4.173 12.938 L 4.405 13.200 12.001 13.200 L 19.598 13.200 19.857 12.896 C 20.192 12.503,20.300 12.285,20.300 12.000 C 20.300 11.714,20.184 11.487,19.850 11.121 L 19.594 10.840 17.767 10.850 C 16.762 10.855,15.013 10.863,13.880 10.868 M13.920 16.868 C 10.927 16.880,5.586 16.958,4.912 16.999 C 4.233 17.040,4.094 17.087,3.922 17.338 C 3.767 17.563,3.665 17.923,3.697 18.134 C 3.730 18.352,3.885 18.614,4.173 18.938 L 4.405 19.200 12.001 19.200 L 19.598 19.200 19.857 18.896 C 20.192 18.503,20.300 18.285,20.300 18.000 C 20.300 17.714,20.184 17.487,19.850 17.121 L 19.594 16.840 17.767 16.850 C 16.762 16.855,15.031 16.863,13.920 16.868 " fill="#373B4D" stroke="none" fill-rule="evenodd"></path></svg>