<svg width="24" height="24" viewBox="0 0 24 24" fill="none" xmlns="http://www.w3.org/2000/svg"><path d="M4.980 4.834 C 4.451 4.859,4.408 4.867,4.200 4.984 C 3.667 5.285,3.460 5.937,3.721 6.493 C 3.845 6.757,4.127 7.022,4.388 7.120 C 4.603 7.200,4.660 7.201,12.052 7.190 L 19.500 7.180 19.688 7.087 C 20.585 6.645,20.630 5.427,19.765 4.966 L 19.523 4.837 12.531 4.822 C 8.686 4.815,5.288 4.820,4.980 4.834 M5.400 10.835 C 4.543 10.857,4.400 10.870,4.264 10.937 C 3.776 11.179,3.513 11.784,3.663 12.318 C 3.749 12.625,4.022 12.944,4.329 13.097 L 4.536 13.200 12.000 13.200 L 19.464 13.200 19.671 13.097 C 19.784 13.041,19.965 12.898,20.072 12.781 C 20.599 12.204,20.424 11.297,19.717 10.938 L 19.525 10.841 12.952 10.826 C 9.338 10.817,5.939 10.821,5.400 10.835 M12.180 16.834 C 11.745 16.854,11.585 16.877,11.464 16.938 C 10.976 17.179,10.713 17.784,10.863 18.318 C 10.949 18.625,11.222 18.944,11.529 19.097 L 11.736 19.200 15.598 19.199 C 19.321 19.198,19.466 19.195,19.629 19.121 C 19.861 19.016,20.178 18.710,20.286 18.488 C 20.396 18.261,20.408 17.782,20.309 17.552 C 20.220 17.343,19.936 17.049,19.714 16.937 L 19.525 16.841 16.132 16.825 C 14.267 16.816,12.488 16.820,12.180 16.834 " fill="#373B4D" stroke="none" fill-rule="evenodd"></path></svg>