<svg width="24" height="24" viewBox="0 0 24 24" fill="none" xmlns="http://www.w3.org/2000/svg"><path d="M7.356 4.879 L 4.373 4.900 4.153 5.046 C 3.591 5.420,3.455 6.099,3.834 6.638 C 4.078 6.987,4.214 7.075,4.583 7.126 C 4.798 7.155,7.257 7.175,12.210 7.188 L 19.520 7.207 19.779 7.022 C 20.193 6.727,20.360 6.421,20.359 5.960 C 20.359 5.574,20.139 5.236,19.701 4.945 L 19.541 4.840 14.941 4.849 C 12.410 4.853,8.997 4.867,7.356 4.879 M7.440 10.878 C 4.561 10.899,4.371 10.904,4.230 10.974 C 3.911 11.133,3.678 11.515,3.649 11.930 C 3.617 12.375,3.775 12.667,4.254 13.047 L 4.447 13.200 12.002 13.200 L 19.556 13.200 19.795 13.001 C 20.085 12.759,20.219 12.590,20.299 12.362 C 20.485 11.837,20.233 11.258,19.675 10.926 L 19.531 10.840 15.015 10.848 C 12.532 10.853,9.123 10.866,7.440 10.878 M4.435 16.917 C 4.208 16.948,3.993 17.106,3.835 17.354 C 3.612 17.706,3.574 18.120,3.736 18.460 C 3.829 18.657,4.098 18.944,4.346 19.114 L 4.472 19.200 7.306 19.196 C 8.865 19.194,10.644 19.181,11.260 19.166 L 12.380 19.140 12.566 19.031 C 12.929 18.818,13.118 18.497,13.149 18.043 C 13.179 17.601,13.065 17.379,12.628 17.034 L 12.433 16.880 8.526 16.885 C 6.378 16.888,4.537 16.902,4.435 16.917 " fill="#373B4D" stroke="none" fill-rule="evenodd"></path></svg>