<svg width="24" height="24" viewBox="0 0 24 24" fill="none" xmlns="http://www.w3.org/2000/svg"><path d="M11.096 1.319 C 10.133 1.571,9.226 2.313,8.768 3.221 C 8.724 3.310,8.623 3.568,8.544 3.795 L 8.400 4.208 8.400 7.202 L 8.400 10.196 8.556 10.639 C 8.968 11.808,9.709 12.578,10.837 13.008 L 11.180 13.139 12.000 13.139 L 12.820 13.139 13.163 13.008 C 13.739 12.789,14.095 12.555,14.540 12.105 C 15.007 11.632,15.210 11.303,15.444 10.639 L 15.600 10.196 15.600 7.202 L 15.600 4.208 15.457 3.794 C 15.223 3.117,14.993 2.739,14.529 2.266 C 14.050 1.779,13.429 1.434,12.792 1.303 C 12.351 1.213,11.469 1.221,11.096 1.319 M4.580 8.439 C 4.225 8.497,3.874 8.782,3.716 9.139 C 3.602 9.397,3.578 9.760,3.637 10.327 C 3.846 12.352,4.682 14.132,6.076 15.522 C 6.817 16.260,7.478 16.733,8.351 17.149 C 8.899 17.410,9.709 17.685,10.301 17.812 L 10.740 17.906 10.766 18.243 C 10.780 18.428,10.794 18.987,10.796 19.484 L 10.800 20.388 8.840 20.410 C 6.601 20.436,6.698 20.421,6.342 20.803 C 6.094 21.068,6.030 21.231,6.030 21.606 C 6.029 21.987,6.120 22.194,6.402 22.458 C 6.801 22.831,6.261 22.798,12.002 22.799 L 17.064 22.800 17.271 22.697 C 17.384 22.641,17.565 22.498,17.672 22.381 C 18.204 21.799,18.024 20.898,17.304 20.532 L 17.100 20.428 15.150 20.408 L 13.200 20.389 13.205 19.444 C 13.208 18.925,13.222 18.367,13.235 18.204 L 13.260 17.907 13.769 17.796 C 15.373 17.446,16.780 16.671,17.940 15.500 C 19.334 14.093,20.108 12.456,20.344 10.415 C 20.450 9.502,20.374 9.107,20.028 8.768 C 19.549 8.300,18.822 8.310,18.348 8.792 C 18.246 8.895,18.136 9.057,18.103 9.152 C 18.069 9.247,18.014 9.606,17.980 9.950 C 17.875 10.994,17.715 11.587,17.338 12.318 C 16.606 13.738,15.359 14.810,13.874 15.296 C 13.187 15.521,12.839 15.573,12.000 15.573 C 10.895 15.573,10.285 15.430,9.300 14.941 C 8.156 14.373,7.253 13.477,6.664 12.324 C 6.280 11.574,6.119 10.985,6.019 9.962 C 5.944 9.193,5.909 9.078,5.675 8.822 C 5.390 8.510,4.992 8.371,4.580 8.439 " fill="#373B4D" stroke="none" fill-rule="evenodd"></path></svg>