<svg width="24" height="24" viewBox="0 0 24 24" fill="none" xmlns="http://www.w3.org/2000/svg"><path d="M11.036 1.376 C 10.325 1.580,9.468 2.204,9.053 2.820 C 8.877 3.080,8.626 3.569,8.486 3.920 L 8.399 4.141 8.409 7.260 L 8.420 10.380 8.644 10.844 C 8.932 11.438,9.122 11.716,9.513 12.111 C 9.900 12.501,10.202 12.710,10.755 12.969 L 11.180 13.168 12.000 13.151 C 12.767 13.134,12.837 13.127,13.090 13.029 C 13.685 12.797,14.383 12.287,14.770 11.802 C 15.037 11.467,15.236 11.124,15.448 10.631 L 15.600 10.279 15.600 7.174 L 15.600 4.069 15.297 3.447 C 14.994 2.826,14.992 2.823,14.547 2.382 C 14.047 1.887,13.667 1.637,13.139 1.456 C 12.839 1.353,12.772 1.345,12.020 1.334 C 11.444 1.326,11.168 1.337,11.036 1.376 M4.311 8.562 C 4.108 8.670,3.858 8.937,3.739 9.177 C 3.654 9.347,3.640 9.431,3.640 9.758 C 3.641 10.853,3.951 12.139,4.478 13.228 C 5.179 14.680,6.397 16.003,7.785 16.823 C 8.264 17.106,8.619 17.255,9.691 17.622 C 10.180 17.790,10.602 17.948,10.628 17.974 C 10.690 18.034,10.749 18.663,10.783 19.630 L 10.810 20.400 10.435 20.400 C 9.796 20.400,7.561 20.481,7.149 20.518 C 6.665 20.562,6.463 20.666,6.261 20.972 C 5.929 21.477,5.979 21.941,6.416 22.427 C 6.759 22.808,6.211 22.773,12.040 22.792 L 17.180 22.809 17.490 22.489 C 17.845 22.123,17.924 21.968,17.925 21.637 C 17.927 21.199,17.754 20.876,17.378 20.617 L 17.150 20.460 15.485 20.434 C 14.569 20.420,13.678 20.407,13.504 20.404 L 13.188 20.400 13.215 19.710 C 13.230 19.331,13.253 18.774,13.267 18.474 L 13.291 17.929 13.556 17.859 C 14.076 17.721,15.003 17.396,15.467 17.189 C 16.352 16.794,17.032 16.328,17.754 15.623 C 18.859 14.545,19.470 13.602,19.894 12.320 C 20.311 11.062,20.462 9.821,20.276 9.201 C 20.162 8.823,19.680 8.510,19.203 8.506 C 18.970 8.504,18.892 8.523,18.656 8.642 C 18.224 8.858,18.136 9.050,17.919 10.232 C 17.743 11.190,17.626 11.600,17.381 12.109 C 16.903 13.105,16.138 13.990,15.229 14.602 C 14.769 14.911,14.416 15.078,13.748 15.301 C 13.091 15.521,12.583 15.579,11.680 15.539 C 11.026 15.510,10.669 15.448,10.146 15.273 C 8.867 14.845,7.813 14.024,7.022 12.840 C 6.525 12.096,6.328 11.561,6.102 10.340 C 5.911 9.313,5.821 9.021,5.639 8.839 C 5.322 8.522,4.651 8.383,4.311 8.562 " fill="#373B4D" stroke="none" fill-rule="evenodd"></path></svg>