<svg width="24" height="24" viewBox="0 0 24 24" fill="none" xmlns="http://www.w3.org/2000/svg"><path d="M10.860 3.079 C 9.971 3.152,8.800 3.516,7.883 4.005 C 6.466 4.761,5.259 5.905,4.377 7.328 C 4.117 7.746,3.789 8.421,3.808 8.499 C 3.816 8.532,4.009 8.447,4.360 8.254 C 5.466 7.649,6.258 7.419,7.573 7.320 C 8.969 7.216,10.282 7.464,11.397 8.043 C 12.567 8.649,13.412 9.468,13.880 10.447 C 14.126 10.963,14.210 11.332,14.215 11.920 C 14.220 12.533,14.141 12.826,13.840 13.300 C 13.603 13.675,13.539 13.858,13.577 14.058 C 13.653 14.465,14.398 14.841,15.359 14.959 C 15.545 14.981,16.095 15.000,16.580 15.000 C 17.345 15.000,17.501 14.989,17.757 14.918 C 18.719 14.652,19.342 14.247,20.029 13.442 C 20.329 13.090,20.546 12.675,20.736 12.088 C 21.273 10.424,20.972 8.753,19.811 6.960 C 19.362 6.266,18.632 5.466,18.015 4.992 C 16.753 4.022,14.970 3.290,13.460 3.123 C 12.955 3.067,11.339 3.040,10.860 3.079 M7.440 8.441 C 5.799 8.586,4.373 9.315,3.637 10.384 C 3.159 11.080,2.925 12.114,3.037 13.040 C 3.122 13.747,3.493 14.984,3.875 15.839 C 4.843 18.005,6.862 19.833,9.152 20.616 C 9.617 20.775,10.596 21.018,10.631 20.983 C 10.638 20.976,10.472 20.824,10.263 20.645 C 8.104 18.798,7.299 16.017,8.186 13.468 C 8.542 12.445,9.271 11.308,9.928 10.750 C 10.395 10.353,11.082 9.981,11.575 9.857 C 11.947 9.763,11.967 9.741,11.800 9.598 C 11.482 9.325,10.730 8.935,10.142 8.738 C 9.388 8.486,8.293 8.365,7.440 8.441 M9.657 12.883 C 9.500 13.129,9.225 13.791,9.102 14.215 C 8.608 15.928,9.199 17.998,10.578 19.384 C 11.126 19.935,11.759 20.337,12.400 20.541 C 12.687 20.633,14.064 20.674,14.399 20.600 C 15.240 20.417,16.347 19.922,17.219 19.340 C 17.960 18.845,19.108 17.699,19.490 17.072 C 19.655 16.800,19.678 16.647,19.567 16.546 C 19.459 16.449,19.375 16.462,18.874 16.655 C 17.967 17.004,17.350 17.149,16.546 17.200 C 15.253 17.283,14.121 17.072,12.900 16.521 C 11.984 16.108,10.847 15.050,10.337 14.137 C 10.187 13.869,9.880 13.055,9.880 12.925 C 9.880 12.887,9.855 12.822,9.825 12.780 C 9.774 12.710,9.763 12.716,9.657 12.883 " fill="#373B4D" stroke="none" fill-rule="evenodd"></path></svg>