<svg width="24" height="24" viewBox="0 0 24 24" fill="none" xmlns="http://www.w3.org/2000/svg"><path d="M11.340 1.316 C 10.911 1.371,10.539 1.531,9.977 1.903 C 9.368 2.305,8.925 2.874,8.580 3.697 L 8.399 4.131 8.409 7.235 L 8.420 10.340 8.585 10.710 C 8.893 11.398,9.074 11.674,9.500 12.104 C 9.931 12.540,10.213 12.730,10.837 13.005 L 11.204 13.167 12.012 13.152 C 12.813 13.137,12.823 13.136,13.143 13.008 C 13.321 12.937,13.610 12.785,13.785 12.670 C 14.627 12.116,15.061 11.574,15.486 10.544 L 15.600 10.269 15.600 7.179 L 15.600 4.090 15.408 3.675 C 15.127 3.066,15.064 2.955,14.840 2.674 C 14.344 2.052,13.635 1.567,12.971 1.398 C 12.632 1.311,11.732 1.266,11.340 1.316 M4.426 8.504 C 4.176 8.582,3.871 8.882,3.732 9.185 C 3.633 9.403,3.630 9.427,3.650 10.035 C 3.694 11.371,4.200 12.947,4.949 14.080 C 5.530 14.959,6.240 15.726,7.006 16.300 C 7.848 16.932,8.386 17.197,9.732 17.641 C 10.198 17.796,10.604 17.936,10.633 17.955 C 10.701 17.998,10.749 18.510,10.784 19.564 L 10.812 20.389 9.536 20.416 C 8.049 20.448,6.967 20.504,6.761 20.560 C 6.430 20.649,6.094 21.092,6.052 21.494 C 6.016 21.844,6.118 22.113,6.405 22.419 C 6.555 22.579,6.704 22.697,6.794 22.728 C 6.906 22.765,8.138 22.780,12.060 22.790 L 17.180 22.803 17.470 22.527 C 17.830 22.184,17.938 21.968,17.937 21.596 C 17.935 21.226,17.782 20.926,17.468 20.675 C 17.340 20.573,17.180 20.478,17.113 20.465 C 17.045 20.451,16.572 20.440,16.061 20.440 C 15.551 20.440,14.696 20.428,14.161 20.413 L 13.189 20.387 13.215 19.623 C 13.229 19.204,13.252 18.652,13.266 18.397 L 13.291 17.934 13.861 17.769 C 16.000 17.152,17.260 16.341,18.597 14.722 C 18.921 14.329,19.298 13.736,19.518 13.273 C 20.055 12.142,20.391 10.708,20.351 9.713 C 20.331 9.191,20.240 8.980,19.938 8.749 C 19.554 8.456,19.088 8.409,18.658 8.619 C 18.226 8.831,18.127 9.048,17.919 10.240 C 17.852 10.625,17.759 11.084,17.712 11.260 C 17.314 12.756,16.056 14.262,14.620 14.963 C 14.170 15.182,13.501 15.412,13.093 15.487 C 12.652 15.568,11.253 15.556,10.840 15.468 C 9.229 15.124,7.897 14.201,6.990 12.800 C 6.515 12.067,6.313 11.537,6.143 10.580 C 5.847 8.917,5.819 8.854,5.260 8.597 C 4.953 8.455,4.678 8.425,4.426 8.504 " fill="#373B4D" stroke="none" fill-rule="evenodd"></path></svg>