<svg width="24" height="24" viewBox="0 0 24 24" fill="none" xmlns="http://www.w3.org/2000/svg"><path d="M11.000 1.434 C 10.776 1.484,10.491 1.625,10.144 1.858 C 9.440 2.328,9.036 2.804,8.604 3.669 L 8.400 4.079 8.400 7.220 L 8.400 10.362 8.545 10.651 C 9.083 11.723,9.865 12.534,10.820 13.008 L 11.140 13.168 11.880 13.145 C 12.334 13.131,12.708 13.099,12.847 13.062 C 13.344 12.932,13.907 12.585,14.471 12.062 C 14.763 11.792,15.126 11.267,15.404 10.712 L 15.600 10.321 15.600 7.180 L 15.600 4.038 15.436 3.709 C 15.031 2.898,14.565 2.354,13.892 1.906 C 13.182 1.433,13.187 1.435,12.088 1.418 C 11.567 1.410,11.077 1.417,11.000 1.434 M4.211 8.675 C 3.931 8.897,3.725 9.151,3.695 9.313 C 3.680 9.390,3.679 9.743,3.693 10.097 C 3.722 10.877,3.804 11.300,4.103 12.200 C 4.445 13.231,4.791 13.878,5.418 14.660 C 5.935 15.304,6.945 16.266,7.494 16.638 C 7.851 16.880,8.991 17.373,10.325 17.862 L 10.630 17.974 10.654 18.228 C 10.708 18.814,10.811 20.362,10.796 20.375 C 10.787 20.383,10.267 20.411,9.640 20.436 C 6.724 20.555,6.488 20.603,6.225 21.130 C 6.010 21.560,6.047 21.880,6.363 22.305 C 6.603 22.629,6.720 22.682,7.291 22.725 C 7.560 22.746,9.896 22.774,12.482 22.787 L 17.183 22.810 17.376 22.596 C 17.771 22.157,17.881 21.932,17.879 21.564 C 17.878 21.183,17.651 20.811,17.314 20.638 C 17.129 20.542,16.546 20.496,14.800 20.440 C 14.085 20.417,13.452 20.388,13.394 20.377 C 13.241 20.346,13.231 20.236,13.264 18.999 L 13.292 17.924 13.416 17.897 C 13.713 17.833,14.754 17.466,15.226 17.258 C 16.177 16.838,16.779 16.449,17.560 15.751 C 19.228 14.258,20.234 12.182,20.309 10.077 C 20.339 9.225,20.260 9.007,19.827 8.760 C 19.392 8.511,18.927 8.515,18.548 8.771 C 18.277 8.954,18.162 9.216,17.919 10.200 C 17.509 11.857,17.344 12.256,16.706 13.120 C 15.877 14.243,14.734 15.031,13.427 15.381 C 12.974 15.503,12.023 15.549,11.280 15.487 C 9.863 15.367,8.504 14.604,7.439 13.329 C 6.818 12.586,6.580 12.096,6.275 10.941 C 5.748 8.937,5.744 8.928,5.422 8.739 C 5.255 8.641,4.769 8.525,4.514 8.521 C 4.449 8.521,4.330 8.581,4.211 8.675 " fill="#373B4D" stroke="none" fill-rule="evenodd"></path></svg>