<svg width="24" height="24" viewBox="0 0 24 24" fill="none" xmlns="http://www.w3.org/2000/svg"><path d="M11.171 1.362 C 10.858 1.403,10.336 1.654,9.924 1.961 C 9.298 2.426,8.911 2.936,8.555 3.761 L 8.400 4.121 8.400 7.235 L 8.400 10.348 8.619 10.795 C 8.931 11.429,9.082 11.650,9.495 12.073 C 9.912 12.500,10.234 12.728,10.778 12.982 L 11.159 13.160 11.789 13.159 C 12.658 13.157,12.897 13.120,13.301 12.926 C 13.750 12.711,14.071 12.488,14.443 12.132 C 14.837 11.756,15.117 11.350,15.386 10.764 L 15.600 10.300 15.600 7.177 L 15.600 4.054 15.296 3.440 C 15.002 2.847,14.980 2.814,14.597 2.437 C 14.141 1.987,13.745 1.708,13.296 1.520 C 13.018 1.404,12.917 1.384,12.460 1.356 C 11.834 1.318,11.502 1.319,11.171 1.362 M4.414 8.521 C 4.244 8.574,3.902 8.888,3.769 9.115 C 3.663 9.295,3.660 9.316,3.663 9.900 C 3.666 10.584,3.752 11.128,3.977 11.906 C 4.398 13.354,5.098 14.504,6.226 15.602 C 6.720 16.082,6.972 16.289,7.486 16.634 C 8.053 17.014,8.358 17.147,10.055 17.757 C 10.360 17.866,10.616 17.963,10.625 17.972 C 10.685 18.032,10.799 19.469,10.800 20.183 L 10.800 20.385 9.230 20.435 C 7.345 20.495,6.899 20.530,6.659 20.636 C 6.303 20.794,6.063 21.182,6.064 21.600 C 6.064 21.923,6.165 22.145,6.453 22.459 C 6.635 22.657,6.686 22.689,6.880 22.726 C 7.022 22.753,8.890 22.775,12.141 22.788 L 17.183 22.807 17.476 22.499 C 17.853 22.102,17.936 21.920,17.911 21.543 C 17.900 21.367,17.861 21.199,17.810 21.099 C 17.725 20.932,17.408 20.610,17.238 20.518 C 17.150 20.470,15.829 20.430,13.464 20.403 L 13.188 20.400 13.213 19.830 C 13.227 19.517,13.251 18.960,13.265 18.594 L 13.292 17.929 13.556 17.858 C 13.976 17.747,15.055 17.370,15.441 17.200 C 16.336 16.806,17.067 16.295,17.842 15.521 C 19.195 14.171,19.825 12.992,20.225 11.060 C 20.351 10.447,20.383 9.501,20.285 9.225 C 20.148 8.836,19.730 8.558,19.238 8.529 C 18.962 8.512,18.916 8.521,18.695 8.633 C 18.404 8.779,18.231 8.966,18.145 9.226 C 18.109 9.333,18.000 9.818,17.902 10.303 C 17.690 11.350,17.585 11.698,17.338 12.178 C 16.441 13.918,15.017 15.039,13.160 15.466 C 12.750 15.561,11.419 15.562,10.898 15.468 C 9.376 15.194,7.978 14.246,7.040 12.852 C 6.537 12.105,6.382 11.688,6.102 10.331 C 5.853 9.124,5.830 9.057,5.602 8.836 C 5.488 8.725,5.335 8.625,5.216 8.584 C 4.973 8.500,4.581 8.469,4.414 8.521 " fill="#373B4D" stroke="none" fill-rule="evenodd"></path></svg>