<svg width="24" height="24" viewBox="0 0 24 24" fill="none" xmlns="http://www.w3.org/2000/svg"><path d="M11.160 1.393 C 10.726 1.447,9.954 1.898,9.459 2.388 C 9.130 2.714,8.953 2.975,8.645 3.589 L 8.400 4.079 8.400 7.220 L 8.400 10.362 8.576 10.713 C 9.113 11.782,9.874 12.559,10.822 13.008 C 11.088 13.134,11.123 13.141,11.655 13.153 C 12.648 13.177,13.125 13.064,13.744 12.661 C 14.165 12.386,14.748 11.829,14.977 11.482 C 15.073 11.338,15.252 11.018,15.375 10.771 L 15.600 10.321 15.600 7.180 L 15.600 4.039 15.395 3.629 C 15.283 3.404,15.111 3.100,15.014 2.953 C 14.618 2.353,13.658 1.626,13.020 1.442 C 12.835 1.388,11.486 1.353,11.160 1.393 M4.200 8.671 C 4.079 8.759,3.917 8.918,3.840 9.025 L 3.700 9.220 3.687 9.760 C 3.665 10.661,3.765 11.232,4.145 12.360 C 4.446 13.253,4.821 13.934,5.434 14.700 C 5.986 15.390,6.854 16.206,7.494 16.638 C 7.904 16.915,8.804 17.308,10.106 17.778 L 10.632 17.968 10.656 18.174 C 10.696 18.513,10.753 19.265,10.782 19.845 L 10.809 20.389 10.035 20.416 C 7.495 20.503,6.926 20.552,6.606 20.706 C 6.134 20.934,5.946 21.583,6.203 22.097 C 6.329 22.350,6.620 22.632,6.808 22.682 C 7.072 22.753,9.605 22.798,13.487 22.799 L 17.194 22.800 17.450 22.519 C 17.873 22.056,17.986 21.728,17.866 21.316 C 17.736 20.870,17.416 20.578,16.994 20.521 C 16.854 20.502,15.984 20.466,15.060 20.441 C 14.136 20.416,13.348 20.386,13.310 20.375 C 13.229 20.351,13.221 20.059,13.266 18.713 L 13.292 17.932 13.736 17.803 C 14.689 17.525,15.862 17.028,16.411 16.669 C 17.096 16.220,17.908 15.492,18.472 14.821 C 19.535 13.554,20.214 11.861,20.317 10.220 C 20.353 9.657,20.325 9.322,20.226 9.131 C 20.126 8.939,19.811 8.686,19.587 8.620 C 19.099 8.475,18.630 8.592,18.339 8.932 C 18.181 9.117,18.128 9.268,17.957 10.040 C 17.669 11.336,17.479 11.926,17.195 12.409 C 16.201 14.096,14.680 15.213,13.040 15.462 C 12.602 15.528,11.476 15.538,11.060 15.479 C 9.645 15.277,8.338 14.489,7.336 13.232 C 6.743 12.489,6.516 11.981,6.211 10.724 C 5.874 9.335,5.809 9.115,5.684 8.960 C 5.458 8.677,5.244 8.583,4.720 8.538 L 4.420 8.512 4.200 8.671 " fill="#373B4D" stroke="none" fill-rule="evenodd"></path></svg>