<svg width="24" height="24" viewBox="0 0 24 24" fill="none" xmlns="http://www.w3.org/2000/svg"><path d="M11.252 1.319 C 10.845 1.366,10.053 1.779,9.597 2.182 C 9.149 2.578,8.831 3.058,8.555 3.755 L 8.402 4.140 8.401 7.189 L 8.400 10.238 8.520 10.540 C 9.030 11.823,9.640 12.479,10.804 12.992 L 11.140 13.140 11.892 13.153 C 12.573 13.165,12.673 13.158,12.932 13.079 C 13.759 12.830,14.623 12.144,15.098 11.363 C 15.183 11.223,15.330 10.918,15.426 10.685 L 15.599 10.260 15.599 7.180 L 15.598 4.100 15.388 3.620 C 15.128 3.027,14.916 2.708,14.523 2.319 C 13.934 1.733,13.274 1.392,12.591 1.320 C 12.177 1.277,11.628 1.276,11.252 1.319 M4.500 8.475 C 4.179 8.559,3.902 8.817,3.726 9.195 C 3.631 9.400,3.622 9.462,3.626 9.900 C 3.635 10.936,4.049 12.479,4.587 13.480 C 5.424 15.038,6.815 16.399,8.286 17.097 C 8.730 17.309,9.384 17.545,10.225 17.798 C 10.448 17.866,10.650 17.944,10.675 17.973 C 10.720 18.028,10.798 19.306,10.799 20.004 L 10.800 20.388 9.370 20.417 C 7.583 20.452,6.839 20.498,6.656 20.585 C 6.454 20.680,6.176 21.010,6.098 21.247 C 6.014 21.498,6.040 21.884,6.154 22.109 C 6.197 22.192,6.329 22.353,6.448 22.465 C 6.839 22.835,6.262 22.800,12.038 22.800 L 17.159 22.800 17.406 22.590 C 17.874 22.191,18.015 21.856,17.921 21.365 C 17.858 21.032,17.678 20.796,17.301 20.545 C 17.142 20.440,17.139 20.440,16.341 20.440 C 15.900 20.440,15.011 20.428,14.365 20.413 L 13.190 20.387 13.215 19.543 C 13.230 19.080,13.252 18.527,13.265 18.316 L 13.289 17.932 13.835 17.780 C 15.976 17.184,17.341 16.299,18.647 14.660 C 19.388 13.731,19.803 12.844,20.156 11.440 C 20.381 10.544,20.426 9.439,20.250 9.100 C 20.134 8.877,19.940 8.702,19.667 8.578 C 19.234 8.380,18.687 8.486,18.338 8.835 C 18.156 9.017,18.076 9.288,17.919 10.252 C 17.767 11.181,17.656 11.580,17.396 12.120 C 16.809 13.342,15.808 14.373,14.639 14.961 C 14.258 15.152,13.622 15.375,13.212 15.461 C 12.787 15.551,11.725 15.583,11.208 15.523 C 9.290 15.299,7.535 14.019,6.629 12.180 C 6.332 11.578,6.239 11.240,6.039 10.024 C 5.903 9.198,5.830 8.990,5.608 8.795 C 5.312 8.535,4.816 8.392,4.500 8.475 " fill="#373B4D" stroke="none" fill-rule="evenodd"></path></svg>