<svg width="24" height="24" viewBox="0 0 24 24" fill="none" xmlns="http://www.w3.org/2000/svg"><path d="M3.000 7.080 L 3.000 11.160 7.080 11.160 L 11.160 11.160 11.160 7.080 L 11.160 3.000 7.080 3.000 L 3.000 3.000 3.000 7.080 M12.840 7.080 L 12.840 11.160 16.920 11.160 L 21.000 11.160 21.000 7.080 L 21.000 3.000 16.920 3.000 L 12.840 3.000 12.840 7.080 M3.000 16.920 L 3.000 21.000 7.080 21.000 L 11.160 21.000 11.160 16.920 L 11.160 12.840 7.080 12.840 L 3.000 12.840 3.000 16.920 M12.840 16.920 L 12.840 21.000 16.920 21.000 L 21.000 21.000 21.000 16.920 L 21.000 12.840 16.920 12.840 L 12.840 12.840 12.840 16.920 " stroke="none" fill="black" fill-rule="evenodd"></path></svg>