<svg width="24" height="24" viewBox="0 0 24 24" fill="none" xmlns="http://www.w3.org/2000/svg"><path d="M11.210 1.360 C 10.882 1.406,10.313 1.678,9.900 1.987 C 9.321 2.419,8.946 2.904,8.593 3.678 L 8.401 4.100 8.400 7.234 L 8.400 10.369 8.661 10.874 C 8.971 11.476,9.210 11.805,9.621 12.196 C 9.979 12.536,10.353 12.786,10.833 13.009 L 11.180 13.169 11.960 13.150 C 12.611 13.134,12.783 13.117,13.000 13.047 C 13.530 12.874,14.229 12.394,14.656 11.910 C 14.946 11.581,15.133 11.286,15.383 10.769 L 15.600 10.319 15.600 7.175 L 15.600 4.032 15.295 3.435 C 15.016 2.890,14.960 2.809,14.645 2.495 C 14.013 1.865,13.395 1.484,12.878 1.404 C 12.500 1.346,11.499 1.320,11.210 1.360 M4.197 8.654 C 4.019 8.787,3.813 9.019,3.730 9.180 C 3.608 9.417,3.646 10.499,3.802 11.221 C 3.928 11.808,4.246 12.741,4.494 13.252 C 5.248 14.804,6.773 16.358,8.212 17.040 C 8.436 17.147,9.073 17.400,9.627 17.602 L 10.635 17.971 10.657 18.116 C 10.701 18.391,10.756 19.103,10.784 19.750 L 10.812 20.400 10.563 20.400 C 10.074 20.400,7.930 20.482,7.426 20.521 C 6.804 20.568,6.649 20.610,6.434 20.794 C 6.204 20.992,6.081 21.272,6.081 21.600 C 6.082 21.909,6.167 22.122,6.405 22.406 C 6.693 22.750,6.599 22.734,8.520 22.765 C 9.455 22.780,11.789 22.794,13.706 22.796 L 17.192 22.800 17.471 22.502 C 17.791 22.159,17.887 21.983,17.912 21.696 C 17.942 21.340,17.833 21.065,17.547 20.780 C 17.396 20.629,17.253 20.523,17.180 20.508 C 17.114 20.495,16.196 20.463,15.140 20.438 C 14.084 20.412,13.214 20.386,13.207 20.380 C 13.201 20.374,13.217 19.821,13.245 19.151 L 13.295 17.935 13.777 17.791 C 14.888 17.461,15.848 17.049,16.495 16.626 C 17.400 16.035,18.438 14.994,19.057 14.060 C 19.733 13.041,20.215 11.599,20.324 10.277 C 20.398 9.382,20.296 9.021,19.894 8.751 C 19.708 8.627,19.341 8.520,19.102 8.520 C 18.886 8.521,18.564 8.676,18.366 8.874 C 18.173 9.067,18.146 9.149,17.898 10.311 C 17.666 11.397,17.567 11.714,17.295 12.240 C 16.321 14.120,14.503 15.391,12.602 15.521 C 11.926 15.567,11.014 15.512,10.589 15.400 C 9.100 15.008,7.914 14.142,7.001 12.783 C 6.552 12.115,6.383 11.644,6.080 10.220 C 5.865 9.211,5.812 9.052,5.632 8.872 C 5.380 8.620,5.192 8.547,4.760 8.531 C 4.381 8.517,4.380 8.517,4.197 8.654 " fill="#373B4D" stroke="none" fill-rule="evenodd"></path></svg>