<svg width="24" height="24" viewBox="0 0 24 24" fill="none" xmlns="http://www.w3.org/2000/svg"><path d="M10.980 1.416 C 10.501 1.569,9.866 1.970,9.459 2.378 C 9.117 2.721,8.903 3.039,8.618 3.631 L 8.400 4.081 8.400 7.221 L 8.400 10.362 8.585 10.731 C 9.139 11.837,9.854 12.559,10.858 13.023 C 11.151 13.158,11.162 13.160,11.707 13.160 C 12.465 13.159,12.861 13.108,13.198 12.966 C 13.816 12.707,14.582 12.079,14.957 11.526 C 15.051 11.386,15.235 11.058,15.364 10.798 L 15.600 10.324 15.600 7.178 L 15.600 4.031 15.310 3.466 C 15.063 2.982,14.975 2.852,14.701 2.566 C 14.079 1.916,13.375 1.480,12.820 1.401 C 12.415 1.344,11.176 1.354,10.980 1.416 M4.226 8.643 C 3.981 8.807,3.733 9.118,3.691 9.312 C 3.637 9.568,3.673 10.476,3.756 10.960 C 3.843 11.466,4.161 12.494,4.402 13.050 C 4.995 14.417,6.433 16.022,7.767 16.805 C 8.122 17.013,8.884 17.334,9.886 17.698 L 10.632 17.968 10.656 18.134 C 10.695 18.403,10.753 19.176,10.783 19.804 L 10.810 20.388 9.975 20.416 C 7.422 20.499,6.838 20.549,6.571 20.704 C 6.159 20.944,5.976 21.481,6.142 21.967 C 6.233 22.236,6.548 22.608,6.742 22.675 C 6.972 22.755,9.152 22.794,13.525 22.797 L 17.191 22.800 17.433 22.541 C 17.750 22.202,17.880 21.975,17.907 21.712 C 17.947 21.324,17.759 20.925,17.413 20.661 C 17.190 20.490,17.209 20.492,15.000 20.436 C 14.043 20.412,13.247 20.380,13.232 20.366 C 13.216 20.351,13.224 19.798,13.249 19.136 L 13.294 17.932 13.737 17.803 C 14.674 17.529,15.758 17.079,16.339 16.721 C 17.003 16.313,17.891 15.519,18.512 14.780 C 19.619 13.462,20.318 11.590,20.335 9.900 C 20.340 9.415,20.333 9.365,20.233 9.153 C 20.059 8.780,19.640 8.546,19.140 8.542 C 18.849 8.540,18.601 8.653,18.367 8.896 C 18.180 9.090,18.131 9.230,17.939 10.120 C 17.603 11.675,17.452 12.072,16.874 12.920 C 16.000 14.203,14.667 15.135,13.300 15.420 C 12.524 15.581,11.265 15.565,10.552 15.384 C 9.395 15.091,8.330 14.416,7.529 13.470 C 6.700 12.490,6.471 11.979,6.085 10.236 C 5.853 9.195,5.822 9.102,5.627 8.890 C 5.406 8.649,5.215 8.570,4.779 8.538 C 4.422 8.513,4.419 8.513,4.226 8.643 " fill="#373B4D" stroke="none" fill-rule="evenodd"></path></svg>