<svg width="24" height="24" viewBox="0 0 24 24" fill="none" xmlns="http://www.w3.org/2000/svg"><path d="M10.489 3.126 C 10.121 3.179,9.377 3.378,8.930 3.543 C 7.466 4.084,6.126 5.055,5.093 6.324 C 4.607 6.920,4.080 7.768,3.883 8.270 C 3.813 8.449,3.810 8.480,3.862 8.480 C 3.896 8.480,4.180 8.348,4.494 8.186 C 5.442 7.699,6.043 7.507,7.012 7.381 C 7.554 7.311,8.686 7.300,9.147 7.361 C 10.667 7.562,11.954 8.183,12.960 9.200 C 13.468 9.713,13.752 10.127,13.979 10.685 C 14.156 11.118,14.213 11.498,14.193 12.119 C 14.178 12.583,14.168 12.640,14.048 12.896 C 13.977 13.047,13.858 13.272,13.784 13.396 C 13.505 13.861,13.500 14.089,13.763 14.349 C 13.946 14.530,14.217 14.674,14.600 14.794 C 15.141 14.963,15.303 14.979,16.480 14.980 L 17.620 14.980 17.997 14.848 C 18.743 14.588,19.290 14.237,19.803 13.689 C 20.314 13.145,20.567 12.677,20.800 11.852 C 21.337 9.946,20.696 7.828,19.008 5.930 C 18.323 5.161,17.558 4.598,16.460 4.057 C 15.394 3.531,14.347 3.217,13.340 3.122 C 12.815 3.072,10.845 3.075,10.489 3.126 M6.878 8.518 C 6.309 8.622,5.743 8.807,5.260 9.047 C 3.767 9.791,3.026 10.954,3.022 12.560 C 3.021 13.097,3.072 13.409,3.287 14.180 C 3.854 16.215,4.800 17.728,6.280 18.969 C 7.105 19.661,8.222 20.299,9.160 20.616 C 9.594 20.762,10.595 21.018,10.623 20.991 C 10.631 20.982,10.445 20.804,10.209 20.595 C 9.035 19.558,8.274 18.273,7.953 16.790 C 7.877 16.442,7.864 16.257,7.864 15.560 C 7.864 14.656,7.922 14.270,8.165 13.540 C 8.417 12.782,8.968 11.810,9.500 11.184 C 9.967 10.636,10.782 10.108,11.520 9.878 C 11.734 9.811,11.864 9.749,11.872 9.710 C 11.899 9.571,10.832 8.974,10.149 8.746 C 9.535 8.541,9.050 8.471,8.140 8.456 C 7.441 8.444,7.229 8.455,6.878 8.518 M9.607 12.970 C 9.418 13.304,9.125 14.081,9.039 14.473 C 8.592 16.525,9.595 18.871,11.434 20.072 C 12.120 20.520,12.591 20.639,13.685 20.640 C 14.306 20.640,14.696 20.561,15.360 20.299 C 15.821 20.118,16.586 19.739,16.952 19.512 C 18.052 18.827,19.640 17.164,19.640 16.695 C 19.640 16.638,19.599 16.575,19.534 16.532 C 19.430 16.464,19.417 16.467,18.884 16.656 C 17.621 17.103,17.083 17.206,16.020 17.205 C 14.994 17.204,14.211 17.050,13.229 16.655 C 12.451 16.343,11.922 15.976,11.220 15.262 C 10.787 14.822,10.473 14.398,10.264 13.971 C 10.134 13.705,9.908 13.086,9.862 12.870 C 9.826 12.703,9.739 12.737,9.607 12.970 " fill="#373B4D" stroke="none" fill-rule="evenodd"></path></svg>