<svg width="24" height="24" viewBox="0 0 24 24" fill="none" xmlns="http://www.w3.org/2000/svg"><path d="M11.085 1.339 C 10.754 1.419,10.096 1.767,9.739 2.051 C 9.205 2.475,8.849 2.992,8.541 3.790 L 8.399 4.161 8.409 7.230 L 8.420 10.300 8.590 10.715 C 9.081 11.910,9.714 12.543,10.916 13.038 C 11.209 13.159,11.216 13.160,11.967 13.160 C 12.623 13.160,12.755 13.149,12.967 13.078 C 13.687 12.835,14.329 12.377,14.839 11.740 C 15.082 11.436,15.277 11.080,15.458 10.612 L 15.600 10.243 15.600 7.184 L 15.600 4.125 15.397 3.643 C 15.143 3.042,14.952 2.746,14.565 2.347 C 14.058 1.825,13.388 1.441,12.803 1.337 C 12.417 1.268,11.372 1.269,11.085 1.339 M4.493 8.476 C 4.135 8.568,3.855 8.844,3.696 9.260 C 3.486 9.812,3.705 11.294,4.189 12.600 C 4.593 13.689,5.329 14.784,6.245 15.661 C 7.332 16.701,8.327 17.250,9.974 17.720 C 10.345 17.826,10.668 17.932,10.692 17.956 C 10.734 17.998,10.791 19.075,10.797 19.944 L 10.800 20.387 9.270 20.414 C 8.428 20.429,7.516 20.459,7.241 20.481 C 6.804 20.515,6.720 20.533,6.565 20.630 C 6.359 20.757,6.141 21.054,6.076 21.293 C 6.018 21.509,6.050 21.905,6.141 22.097 C 6.240 22.306,6.544 22.606,6.763 22.712 L 6.945 22.800 12.049 22.800 L 17.153 22.800 17.346 22.647 C 17.576 22.465,17.772 22.248,17.868 22.069 C 17.975 21.868,17.964 21.312,17.848 21.091 C 17.737 20.880,17.545 20.685,17.316 20.552 L 17.140 20.450 15.180 20.422 C 14.102 20.406,13.212 20.385,13.203 20.376 C 13.181 20.354,13.258 17.968,13.282 17.944 C 13.292 17.934,13.565 17.854,13.888 17.765 C 15.383 17.353,16.380 16.847,17.387 15.986 C 18.301 15.204,19.150 14.119,19.588 13.172 C 19.797 12.718,20.097 11.776,20.221 11.180 C 20.362 10.505,20.404 9.570,20.307 9.237 C 20.179 8.799,19.695 8.462,19.200 8.467 C 18.914 8.470,18.734 8.531,18.460 8.720 C 18.176 8.915,18.082 9.174,17.938 10.160 C 17.781 11.241,17.610 11.793,17.217 12.488 C 16.374 13.980,15.076 14.979,13.400 15.425 C 12.933 15.550,11.962 15.594,11.218 15.525 C 9.531 15.370,7.844 14.256,6.884 12.664 C 6.417 11.888,6.222 11.297,6.059 10.160 C 6.004 9.775,5.931 9.364,5.897 9.247 C 5.742 8.709,5.056 8.332,4.493 8.476 " fill="#373B4D" stroke="none" fill-rule="evenodd"></path></svg>