<svg width="24" height="24" viewBox="0 0 24 24" fill="none" xmlns="http://www.w3.org/2000/svg"><path d="M10.570 3.103 C 8.589 3.421,6.821 4.388,5.421 5.920 C 4.990 6.392,4.506 7.071,4.181 7.658 C 4.009 7.969,3.757 8.531,3.780 8.553 C 3.788 8.561,3.984 8.460,4.214 8.327 C 5.327 7.687,6.284 7.395,7.536 7.312 C 9.282 7.197,10.742 7.549,12.024 8.396 C 13.443 9.334,14.242 10.616,14.239 11.954 C 14.238 12.536,14.106 12.941,13.750 13.445 C 13.396 13.948,13.541 14.354,14.179 14.642 C 14.786 14.916,15.379 15.010,16.540 15.013 C 17.266 15.015,17.466 15.003,17.680 14.944 C 18.665 14.674,19.108 14.413,19.800 13.694 C 20.133 13.348,20.259 13.183,20.408 12.897 C 20.826 12.097,21.028 11.185,20.988 10.280 C 20.950 9.420,20.771 8.766,20.327 7.860 C 19.096 5.347,16.803 3.703,13.760 3.153 C 13.143 3.041,11.148 3.010,10.570 3.103 M7.197 8.460 C 6.400 8.557,5.592 8.815,4.981 9.170 C 3.594 9.975,2.911 11.254,3.022 12.840 C 3.055 13.320,3.119 13.628,3.339 14.384 C 3.835 16.079,4.568 17.331,5.758 18.511 C 6.992 19.735,8.628 20.611,10.260 20.920 C 10.392 20.945,10.532 20.974,10.570 20.985 C 10.707 21.024,10.636 20.936,10.365 20.730 C 9.930 20.398,9.281 19.698,8.965 19.220 C 7.939 17.666,7.586 15.916,7.960 14.240 C 8.275 12.831,9.044 11.500,10.029 10.659 C 10.405 10.338,11.171 9.938,11.569 9.856 C 11.903 9.786,11.956 9.752,11.876 9.655 C 11.785 9.543,11.270 9.222,10.871 9.027 C 9.805 8.506,8.490 8.303,7.197 8.460 M9.678 12.850 C 9.414 13.274,9.136 13.990,9.013 14.561 C 8.917 15.011,8.916 15.959,9.012 16.443 C 9.345 18.126,10.443 19.636,11.817 20.300 C 12.417 20.591,12.741 20.657,13.540 20.655 C 14.172 20.654,14.253 20.645,14.682 20.530 C 15.655 20.268,16.503 19.853,17.500 19.148 C 18.135 18.700,19.272 17.505,19.550 16.993 C 19.662 16.787,19.665 16.625,19.558 16.518 C 19.462 16.422,19.476 16.419,18.820 16.678 C 18.281 16.892,17.732 17.044,17.140 17.146 C 16.588 17.241,15.403 17.241,14.880 17.146 C 14.046 16.995,13.100 16.664,12.500 16.313 C 11.588 15.779,10.675 14.833,10.248 13.978 C 10.110 13.702,9.897 13.092,9.861 12.870 C 9.831 12.686,9.783 12.681,9.678 12.850 " fill="#373B4D" stroke="none" fill-rule="evenodd"></path></svg>