<svg width="24" height="24" viewBox="0 0 24 24" fill="none" xmlns="http://www.w3.org/2000/svg"><path d="M10.380 2.584 C 9.146 2.805,7.814 3.332,6.818 3.994 C 5.607 4.798,4.441 6.012,3.731 7.210 C 3.095 8.282,2.595 9.799,2.477 11.017 C 2.416 11.644,2.450 13.022,2.538 13.500 C 2.834 15.098,3.464 16.562,4.384 17.783 C 4.692 18.193,5.413 18.941,5.860 19.314 C 6.955 20.230,8.796 21.132,10.113 21.398 C 10.966 21.570,12.647 21.601,13.520 21.460 C 14.869 21.242,16.569 20.504,17.751 19.625 C 18.512 19.058,19.458 18.066,19.930 17.340 C 20.536 16.406,21.175 14.903,21.408 13.860 C 21.477 13.553,21.492 13.309,21.509 12.193 C 21.531 10.702,21.515 10.522,21.278 9.660 C 20.383 6.398,18.040 3.934,14.858 2.907 C 14.259 2.714,13.727 2.612,13.060 2.562 C 12.253 2.502,10.772 2.514,10.380 2.584 M16.243 11.063 C 16.594 11.349,16.660 11.506,16.660 12.047 L 16.660 12.434 16.496 12.666 C 16.406 12.793,16.251 12.953,16.152 13.022 L 15.970 13.147 14.579 13.173 C 13.813 13.188,12.033 13.200,10.623 13.200 L 8.059 13.200 7.871 13.045 C 7.469 12.713,7.322 12.443,7.321 12.035 C 7.320 11.740,7.382 11.525,7.538 11.291 C 7.677 11.080,7.898 10.963,8.208 10.935 C 8.494 10.909,12.233 10.856,14.476 10.847 L 15.971 10.840 16.243 11.063 " fill="#373B4D" stroke="none" fill-rule="evenodd"></path></svg>