<svg width="24" height="24" viewBox="0 0 24 24" fill="none" xmlns="http://www.w3.org/2000/svg"><path d="M9.916 10.878 C 7.229 10.897,6.720 10.909,6.656 10.958 C 6.386 11.163,6.156 11.431,6.096 11.613 C 6.009 11.874,6.036 12.278,6.157 12.514 C 6.297 12.789,6.552 13.018,6.782 13.076 C 7.137 13.166,8.751 13.198,12.975 13.199 L 17.129 13.200 17.321 13.059 C 17.699 12.782,17.901 12.475,17.944 12.113 C 17.992 11.702,17.819 11.360,17.399 11.033 L 17.151 10.840 15.125 10.848 C 14.011 10.853,11.667 10.866,9.916 10.878 " fill="#373B4D" stroke="none" fill-rule="evenodd"></path></svg>