<svg width="24" height="24" viewBox="0 0 24 24" fill="none" xmlns="http://www.w3.org/2000/svg"><path d="M10.960 2.483 C 10.529 2.522,9.753 2.687,9.175 2.863 C 7.694 3.311,6.417 4.074,5.312 5.171 C 3.805 6.665,2.893 8.403,2.543 10.445 C 2.150 12.732,2.671 15.225,3.947 17.178 C 5.248 19.167,7.063 20.510,9.409 21.217 C 10.384 21.511,10.564 21.534,11.920 21.537 C 13.206 21.540,13.437 21.520,14.160 21.339 C 16.336 20.794,18.255 19.563,19.560 17.875 C 20.466 16.703,21.204 15.049,21.468 13.600 C 21.571 13.039,21.571 10.898,21.468 10.380 C 20.876 7.391,19.104 4.964,16.480 3.550 C 15.484 3.013,14.237 2.625,13.173 2.522 C 12.619 2.469,11.364 2.446,10.960 2.483 M16.206 11.010 C 16.571 11.256,16.678 11.448,16.708 11.913 C 16.727 12.207,16.718 12.314,16.661 12.463 C 16.570 12.701,16.215 13.060,16.011 13.120 C 15.908 13.150,14.619 13.171,11.974 13.188 L 8.087 13.212 7.888 13.066 C 7.636 12.881,7.418 12.640,7.346 12.467 C 7.129 11.949,7.345 11.257,7.802 11.001 C 7.976 10.903,8.004 10.901,9.080 10.878 C 9.685 10.865,11.479 10.851,13.066 10.847 L 15.953 10.840 16.206 11.010 " fill="#373B4D" stroke="none" fill-rule="evenodd"></path></svg>