<svg width="24" height="24" viewBox="0 0 24 24" fill="none" xmlns="http://www.w3.org/2000/svg"><path d="M10.800 2.602 C 9.953 2.652,9.188 2.852,8.279 3.261 C 6.771 3.938,5.535 4.887,4.488 6.170 C 3.517 7.359,2.767 9.091,2.533 10.680 C 2.428 11.395,2.439 12.868,2.554 13.500 C 2.856 15.155,3.599 16.799,4.565 17.948 C 4.922 18.373,5.698 19.144,6.080 19.452 C 6.934 20.141,8.561 20.975,9.600 21.255 C 10.436 21.481,10.632 21.500,12.100 21.497 L 13.460 21.494 14.014 21.346 C 15.888 20.845,17.402 20.015,18.653 18.802 C 19.696 17.790,20.318 16.838,20.913 15.340 C 21.339 14.268,21.411 13.950,21.483 12.820 C 21.537 11.953,21.512 10.911,21.423 10.380 C 21.183 8.955,20.388 7.240,19.397 6.013 C 18.128 4.440,15.991 3.130,14.061 2.740 C 13.262 2.578,12.060 2.527,10.800 2.602 M16.191 11.015 C 16.477 11.325,16.557 11.480,16.599 11.802 C 16.675 12.389,16.665 12.447,16.437 12.708 C 16.326 12.835,16.162 12.998,16.072 13.070 L 15.909 13.200 11.958 13.200 L 8.006 13.200 7.783 12.950 C 7.449 12.577,7.400 12.453,7.400 11.972 C 7.400 11.584,7.405 11.562,7.530 11.375 C 7.737 11.064,7.895 11.007,8.682 10.958 C 9.326 10.917,12.554 10.859,14.865 10.846 L 16.030 10.840 16.191 11.015 " fill="#373B4D" stroke="none" fill-rule="evenodd"></path></svg>