<svg width="24" height="24" viewBox="0 0 24 24" fill="none" xmlns="http://www.w3.org/2000/svg"><path d="M10.260 10.880 C 6.363 10.909,6.676 10.882,6.371 11.212 C 6.109 11.497,6.061 11.616,6.061 11.980 C 6.061 12.355,6.145 12.574,6.376 12.810 C 6.586 13.023,6.724 13.083,7.116 13.127 C 7.310 13.149,9.563 13.175,12.289 13.187 L 17.118 13.208 17.323 13.058 C 17.709 12.775,17.960 12.349,17.960 11.980 C 17.960 11.655,17.744 11.308,17.349 10.995 L 17.153 10.840 15.446 10.847 C 14.508 10.851,12.174 10.866,10.260 10.880 " fill="#373B4D" stroke="none" fill-rule="evenodd"></path></svg>