<svg width="24" height="24" viewBox="0 0 24 24" fill="none" xmlns="http://www.w3.org/2000/svg"><path d="M10.480 10.883 C 8.191 10.902,6.946 10.927,6.801 10.956 C 6.553 11.007,6.346 11.178,6.169 11.476 C 6.082 11.624,6.065 11.700,6.066 11.956 C 6.066 12.358,6.131 12.534,6.372 12.789 C 6.694 13.130,6.666 13.125,8.920 13.162 C 9.987 13.179,12.271 13.195,13.996 13.196 L 17.133 13.200 17.344 13.037 C 17.688 12.771,17.906 12.426,17.947 12.083 C 17.988 11.735,17.799 11.376,17.402 11.045 L 17.156 10.840 15.548 10.847 C 14.664 10.851,12.383 10.867,10.480 10.883 " fill="#373B4D" stroke="none" fill-rule="evenodd"></path></svg>