<svg width="24" height="24" viewBox="0 0 24 24" fill="none" xmlns="http://www.w3.org/2000/svg"><path d="M10.460 2.556 C 8.397 2.940,6.796 3.749,5.385 5.120 C 4.496 5.984,3.882 6.821,3.377 7.860 C 2.066 10.554,2.096 13.601,3.462 16.323 C 4.177 17.749,5.334 19.053,6.680 19.949 C 7.607 20.566,8.758 21.065,9.980 21.380 C 10.692 21.563,12.698 21.607,13.602 21.459 C 14.327 21.340,15.373 20.991,16.183 20.597 C 17.678 19.870,19.020 18.714,19.908 17.388 C 20.322 16.768,20.870 15.645,21.111 14.919 C 21.413 14.007,21.475 13.692,21.529 12.787 C 21.595 11.660,21.531 10.569,21.360 9.900 C 21.053 8.702,20.624 7.713,19.996 6.757 C 18.554 4.560,16.139 2.990,13.567 2.575 C 13.303 2.532,12.811 2.507,12.020 2.497 C 11.015 2.484,10.807 2.492,10.460 2.556 M16.200 11.014 C 16.580 11.291,16.654 11.423,16.703 11.919 C 16.745 12.349,16.681 12.525,16.363 12.844 C 16.139 13.068,16.073 13.111,15.920 13.134 C 15.821 13.148,14.018 13.172,11.914 13.186 L 8.088 13.213 7.887 13.065 C 7.455 12.748,7.282 12.454,7.281 12.032 C 7.280 11.695,7.391 11.382,7.583 11.185 C 7.864 10.896,7.800 10.905,9.620 10.879 C 10.522 10.866,12.318 10.852,13.611 10.848 L 15.961 10.840 16.200 11.014 " fill="#373B4D" stroke="none" fill-rule="evenodd"></path></svg>