<svg width="24" height="24" viewBox="0 0 24 24" fill="none" xmlns="http://www.w3.org/2000/svg"><path d="M11.060 10.882 C 5.511 10.916,4.440 10.937,4.286 11.017 C 4.152 11.086,3.829 11.427,3.749 11.584 C 3.615 11.846,3.633 12.142,3.804 12.485 C 3.916 12.709,4.221 12.992,4.404 13.041 C 4.704 13.122,6.914 13.158,13.241 13.186 L 19.581 13.213 19.844 12.925 C 20.192 12.544,20.300 12.330,20.300 12.020 C 20.300 11.710,20.184 11.479,19.846 11.114 L 19.593 10.840 17.686 10.847 C 16.638 10.850,13.656 10.866,11.060 10.882 " fill="#373B4D" stroke="none" fill-rule="evenodd"></path></svg>