<svg width="24" height="24" viewBox="0 0 24 24" fill="none" xmlns="http://www.w3.org/2000/svg"><path d="M11.080 10.882 C 7.699 10.913,6.953 10.934,6.705 11.003 C 6.482 11.066,6.190 11.370,6.123 11.610 C 6.056 11.847,6.083 12.334,6.172 12.504 C 6.261 12.677,6.575 12.992,6.709 13.044 C 6.938 13.133,8.147 13.162,12.583 13.186 L 17.145 13.211 17.406 12.967 C 17.688 12.704,17.900 12.358,17.942 12.096 C 17.995 11.765,17.789 11.382,17.362 11.018 L 17.153 10.840 15.707 10.847 C 14.911 10.850,12.829 10.866,11.080 10.882 " fill="#373B4D" stroke="none" fill-rule="evenodd"></path></svg>