<svg width="24" height="24" viewBox="0 0 24 24" fill="none" xmlns="http://www.w3.org/2000/svg"><path d="M10.880 10.882 C 9.065 10.898,7.393 10.923,7.165 10.937 C 6.693 10.967,6.526 11.032,6.321 11.265 C 6.135 11.477,6.080 11.636,6.080 11.964 C 6.080 12.375,6.141 12.534,6.398 12.802 C 6.588 12.999,6.651 13.039,6.840 13.079 C 7.159 13.147,10.043 13.196,13.856 13.198 L 17.133 13.200 17.343 13.038 C 17.689 12.771,17.964 12.291,17.958 11.964 C 17.953 11.678,17.739 11.330,17.389 11.037 L 17.153 10.840 15.667 10.847 C 14.849 10.850,12.695 10.866,10.880 10.882 " fill="#373B4D" stroke="none" fill-rule="evenodd"></path></svg>