<svg width="24" height="24" viewBox="0 0 24 24" fill="none" xmlns="http://www.w3.org/2000/svg"><path d="M10.289 2.625 C 9.884 2.688,9.108 2.900,8.687 3.064 C 7.846 3.390,6.714 4.042,6.040 4.589 C 5.622 4.928,4.580 5.998,4.311 6.365 C 3.488 7.486,2.931 8.746,2.599 10.240 C 2.430 11.002,2.402 12.647,2.544 13.480 C 2.754 14.707,3.342 16.217,3.993 17.200 C 4.677 18.233,5.842 19.378,6.866 20.023 C 7.315 20.306,8.462 20.870,8.970 21.057 C 9.925 21.410,10.747 21.536,12.080 21.534 C 12.901 21.533,13.134 21.519,13.520 21.448 C 15.715 21.046,17.863 19.828,19.258 18.196 C 20.031 17.291,20.567 16.333,21.060 14.972 C 21.389 14.066,21.440 13.808,21.485 12.820 C 21.527 11.881,21.505 10.799,21.433 10.340 C 21.294 9.444,20.679 7.897,20.099 6.980 C 19.148 5.480,17.896 4.341,16.320 3.543 C 15.235 2.994,14.306 2.706,13.286 2.602 C 12.677 2.540,10.743 2.555,10.289 2.625 M16.256 11.083 C 16.582 11.435,16.611 11.508,16.632 12.022 L 16.649 12.464 16.430 12.723 C 16.309 12.866,16.139 13.031,16.053 13.091 L 15.896 13.200 11.951 13.200 L 8.007 13.200 7.758 12.930 C 7.425 12.569,7.362 12.423,7.361 12.009 C 7.360 11.720,7.375 11.648,7.479 11.442 C 7.677 11.050,7.851 10.974,8.640 10.936 C 9.173 10.910,12.773 10.858,14.806 10.847 L 16.031 10.840 16.256 11.083 " fill="#373B4D" stroke="none" fill-rule="evenodd"></path></svg>