<svg width="24" height="24" viewBox="0 0 24 24" fill="none" xmlns="http://www.w3.org/2000/svg"><path d="M11.062 10.885 C 9.258 10.903,7.545 10.933,7.254 10.953 C 6.794 10.985,6.702 11.003,6.547 11.094 C 6.329 11.222,6.133 11.506,6.097 11.749 C 6.064 11.964,6.101 12.368,6.164 12.492 C 6.231 12.622,6.563 12.957,6.693 13.026 C 6.889 13.129,7.939 13.157,12.653 13.186 L 17.166 13.213 17.439 12.930 C 18.102 12.240,18.102 11.742,17.438 11.101 L 17.168 10.840 15.754 10.847 C 14.976 10.850,12.865 10.867,11.062 10.885 " fill="#373B4D" stroke="none" fill-rule="evenodd"></path></svg>