<svg width="24" height="24" viewBox="0 0 24 24" fill="none" xmlns="http://www.w3.org/2000/svg"><path d="M10.220 10.883 C 7.184 10.900,4.617 10.921,4.516 10.930 C 4.286 10.951,4.087 11.096,3.855 11.411 C 3.630 11.716,3.602 11.900,3.719 12.285 C 3.793 12.529,3.841 12.607,4.033 12.800 C 4.164 12.930,4.312 13.038,4.380 13.054 C 4.705 13.127,6.828 13.159,12.907 13.185 L 19.554 13.213 19.838 12.940 C 20.497 12.303,20.499 11.739,19.844 11.107 L 19.568 10.840 17.654 10.847 C 16.601 10.850,13.256 10.867,10.220 10.883 " fill="#373B4D" stroke="none" fill-rule="evenodd"></path></svg>