<svg width="24" height="24" viewBox="0 0 24 24" fill="none" xmlns="http://www.w3.org/2000/svg"><path d="M9.938 10.878 C 4.735 10.899,4.370 10.904,4.270 10.970 C 4.095 11.085,3.856 11.354,3.739 11.568 C 3.644 11.744,3.632 11.801,3.650 12.016 C 3.681 12.408,3.932 12.822,4.246 12.999 C 4.392 13.081,4.488 13.094,5.175 13.125 C 5.596 13.145,9.000 13.171,12.740 13.183 L 19.540 13.206 19.767 13.023 C 20.193 12.677,20.412 12.206,20.324 11.822 C 20.265 11.561,20.051 11.252,19.772 11.022 L 19.551 10.840 17.525 10.848 C 16.411 10.852,12.997 10.866,9.938 10.878 " fill="#373B4D" stroke="none" fill-rule="evenodd"></path></svg>