<svg width="24" height="24" viewBox="0 0 24 24" fill="none" xmlns="http://www.w3.org/2000/svg"><path d="M11.320 10.885 C 7.786 10.921,6.844 10.956,6.623 11.061 C 6.421 11.157,6.180 11.444,6.120 11.661 C 6.050 11.910,6.090 12.363,6.198 12.537 C 6.305 12.710,6.610 12.991,6.748 13.043 C 6.964 13.125,8.388 13.159,12.742 13.186 L 17.183 13.213 17.442 12.925 C 17.793 12.534,17.920 12.290,17.920 12.007 C 17.920 11.707,17.809 11.491,17.468 11.133 L 17.190 10.840 15.825 10.847 C 15.074 10.850,13.047 10.867,11.320 10.885 " fill="#373B4D" stroke="none" fill-rule="evenodd"></path></svg>