<svg width="24" height="24" viewBox="0 0 24 24" fill="none" xmlns="http://www.w3.org/2000/svg"><path d="M10.760 2.522 C 10.374 2.561,9.778 2.692,9.213 2.863 C 7.699 3.321,6.431 4.086,5.278 5.239 C 4.146 6.370,3.447 7.473,2.937 8.932 C 2.589 9.928,2.429 10.874,2.427 11.940 C 2.425 12.966,2.541 13.773,2.827 14.720 C 3.603 17.286,5.348 19.360,7.722 20.537 C 8.525 20.935,9.507 21.288,10.181 21.420 C 10.954 21.572,12.804 21.593,13.592 21.458 C 14.060 21.378,14.717 21.191,15.300 20.971 C 17.069 20.304,18.595 19.166,19.682 17.700 C 20.542 16.540,21.320 14.686,21.487 13.400 C 21.553 12.883,21.554 11.041,21.487 10.580 C 21.355 9.662,20.930 8.407,20.452 7.520 C 19.135 5.077,16.774 3.289,14.060 2.676 C 13.604 2.573,13.417 2.554,12.540 2.521 C 11.413 2.478,11.186 2.478,10.760 2.522 M16.238 11.051 C 16.380 11.166,16.529 11.317,16.569 11.386 C 16.675 11.567,16.743 12.134,16.684 12.348 C 16.627 12.557,16.371 12.885,16.152 13.030 L 15.986 13.140 14.443 13.165 C 13.594 13.179,11.811 13.193,10.480 13.195 L 8.060 13.200 7.828 13.017 C 7.433 12.707,7.253 12.339,7.291 11.915 C 7.331 11.470,7.617 11.044,7.939 10.952 C 8.111 10.903,10.615 10.860,14.080 10.848 L 15.980 10.842 16.238 11.051 " fill="#373B4D" stroke="none" fill-rule="evenodd"></path></svg>