<svg width="24" height="24" viewBox="0 0 24 24" fill="none" xmlns="http://www.w3.org/2000/svg"><path d="M10.680 2.562 C 9.847 2.629,8.634 3.012,7.629 3.528 C 6.202 4.260,4.700 5.649,3.844 7.030 C 3.150 8.149,2.629 9.657,2.483 10.968 C 2.393 11.782,2.448 13.117,2.601 13.808 C 2.934 15.313,3.521 16.620,4.374 17.760 C 4.745 18.256,5.679 19.189,6.160 19.545 C 7.337 20.416,8.933 21.157,10.160 21.403 C 10.776 21.526,11.996 21.584,12.790 21.528 C 13.767 21.459,14.413 21.305,15.429 20.897 C 17.178 20.195,18.614 19.108,19.703 17.660 C 20.334 16.821,21.026 15.314,21.362 14.047 C 21.467 13.651,21.517 12.929,21.518 11.780 C 21.520 10.756,21.475 10.352,21.285 9.680 C 20.787 7.921,19.954 6.474,18.748 5.274 C 17.986 4.515,17.233 3.978,16.240 3.485 C 15.354 3.044,14.574 2.780,13.756 2.644 C 13.093 2.533,11.552 2.492,10.680 2.562 M16.295 11.130 C 16.629 11.460,16.640 11.492,16.640 12.081 L 16.640 12.473 16.483 12.671 C 16.397 12.780,16.243 12.938,16.141 13.021 L 15.955 13.174 11.998 13.192 L 8.042 13.211 7.744 12.913 C 7.491 12.660,7.437 12.581,7.378 12.380 C 7.260 11.973,7.357 11.489,7.615 11.206 C 7.766 11.040,7.984 10.957,8.333 10.934 C 8.701 10.909,12.496 10.857,14.611 10.847 L 16.002 10.840 16.295 11.130 " fill="#373B4D" stroke="none" fill-rule="evenodd"></path></svg>