<svg width="24" height="24" viewBox="0 0 24 24" fill="none" xmlns="http://www.w3.org/2000/svg"><path d="M11.160 2.443 C 9.387 2.658,7.995 3.159,6.645 4.068 C 6.005 4.499,5.646 4.801,5.080 5.385 C 4.339 6.149,3.829 6.878,3.376 7.820 C 3.049 8.500,2.867 9.000,2.680 9.737 C 2.463 10.590,2.429 10.960,2.451 12.266 C 2.469 13.338,2.474 13.400,2.594 13.916 C 2.874 15.122,3.399 16.382,3.995 17.280 C 5.383 19.372,7.475 20.803,9.980 21.374 C 10.748 21.550,10.992 21.569,12.204 21.549 C 13.245 21.533,13.380 21.523,13.820 21.426 C 15.811 20.988,17.457 20.102,18.815 18.737 C 19.526 18.021,20.153 17.137,20.598 16.220 C 21.009 15.375,21.264 14.623,21.450 13.703 C 21.532 13.299,21.540 13.148,21.540 12.000 C 21.540 10.839,21.533 10.705,21.448 10.300 C 21.117 8.717,20.541 7.418,19.629 6.200 C 19.289 5.744,18.503 4.930,18.060 4.574 C 16.556 3.364,14.753 2.627,12.940 2.484 C 12.109 2.418,11.483 2.404,11.160 2.443 M13.300 4.024 C 14.328 4.194,15.282 4.549,16.200 5.103 C 18.382 6.420,19.778 8.649,20.038 11.234 C 20.345 14.278,18.813 17.330,16.180 18.920 C 15.185 19.521,13.785 19.985,12.719 20.067 L 12.400 20.092 12.400 12.001 L 12.400 3.911 12.670 3.938 C 12.819 3.953,13.102 3.992,13.300 4.024 " fill="#373B4D" stroke="none" fill-rule="evenodd"></path></svg>