<svg width="24" height="24" viewBox="0 0 24 24" fill="none" xmlns="http://www.w3.org/2000/svg"><path d="M10.980 2.466 C 9.895 2.595,8.975 2.847,8.051 3.269 C 5.363 4.495,3.416 6.816,2.698 9.647 C 2.472 10.538,2.431 10.905,2.431 12.000 C 2.431 12.865,2.443 13.093,2.516 13.500 C 2.818 15.198,3.498 16.729,4.512 18.000 C 5.975 19.833,8.095 21.065,10.507 21.484 C 10.943 21.559,11.167 21.573,12.000 21.573 C 12.833 21.573,13.057 21.559,13.493 21.484 C 16.681 20.930,19.280 18.988,20.644 16.140 C 20.953 15.495,21.137 14.984,21.320 14.263 C 21.526 13.452,21.572 13.027,21.571 11.940 C 21.570 11.177,21.555 10.932,21.482 10.507 C 20.780 6.404,17.716 3.291,13.661 2.558 C 13.418 2.515,12.864 2.462,12.421 2.440 C 11.487 2.395,11.590 2.393,10.980 2.466 M13.340 4.024 C 14.958 4.292,16.568 5.121,17.721 6.278 C 20.143 8.710,20.770 12.423,19.280 15.511 C 18.104 17.951,15.866 19.591,13.135 20.017 C 12.913 20.052,12.656 20.080,12.565 20.080 L 12.400 20.080 12.400 11.995 L 12.400 3.910 12.690 3.937 C 12.850 3.952,13.142 3.991,13.340 4.024 " fill="#373B4D" stroke="none" fill-rule="evenodd"></path></svg>