<svg width="24" height="24" viewBox="0 0 24 24" fill="none" xmlns="http://www.w3.org/2000/svg"><path d="M11.320 2.423 C 11.243 2.432,11.013 2.459,10.808 2.483 C 8.524 2.749,6.256 3.956,4.763 5.698 C 3.528 7.140,2.784 8.759,2.493 10.640 C 2.394 11.282,2.394 12.718,2.493 13.360 C 3.154 17.630,6.370 20.846,10.640 21.507 C 11.282 21.606,12.718 21.606,13.360 21.507 C 15.173 21.226,16.839 20.473,18.220 19.308 C 19.737 18.029,20.852 16.214,21.333 14.240 C 21.526 13.450,21.578 12.972,21.578 12.000 C 21.578 11.336,21.560 10.979,21.507 10.640 C 20.847 6.374,17.604 3.134,13.360 2.501 C 12.956 2.441,11.609 2.389,11.320 2.423 M12.961 3.962 C 16.088 4.350,18.691 6.472,19.679 9.440 C 19.962 10.289,20.080 11.042,20.080 12.000 C 20.080 12.958,19.962 13.711,19.679 14.560 C 18.763 17.309,16.440 19.362,13.593 19.938 C 13.322 19.993,12.942 20.050,12.750 20.065 L 12.400 20.092 12.400 12.006 L 12.400 3.920 12.511 3.920 C 12.572 3.920,12.775 3.939,12.961 3.962 " fill="#373B4D" stroke="none" fill-rule="evenodd"></path></svg>