<svg width="24" height="24" viewBox="0 0 24 24" fill="none" xmlns="http://www.w3.org/2000/svg"><path d="M11.510 2.194 C 11.234 2.565,10.831 3.082,10.616 3.344 C 8.643 5.740,7.606 7.837,7.214 10.220 C 7.159 10.555,7.141 10.884,7.141 11.600 C 7.140 12.657,7.191 13.089,7.420 13.983 C 7.948 16.042,9.321 18.211,11.030 19.684 L 11.460 20.055 11.488 20.318 C 11.503 20.462,11.553 20.985,11.600 21.480 C 11.646 21.975,11.692 22.402,11.701 22.430 C 11.712 22.464,11.817 22.480,12.038 22.480 C 12.338 22.480,12.360 22.474,12.378 22.390 C 12.394 22.315,12.472 21.518,12.583 20.293 L 12.606 20.046 12.913 19.793 C 13.571 19.251,14.458 18.279,15.008 17.496 C 15.899 16.229,16.527 14.786,16.798 13.382 C 16.871 13.005,16.880 12.803,16.880 11.628 C 16.880 10.657,16.865 10.213,16.823 9.976 C 16.529 8.306,15.799 6.595,14.668 4.927 C 14.364 4.478,14.009 4.012,13.364 3.214 C 13.135 2.931,12.751 2.434,12.509 2.110 C 12.268 1.786,12.057 1.520,12.042 1.520 C 12.026 1.520,11.787 1.823,11.510 2.194 M12.303 14.152 L 12.533 19.364 12.298 19.602 C 12.168 19.733,12.052 19.840,12.040 19.840 C 12.028 19.840,11.915 19.738,11.789 19.613 C 11.586 19.412,11.560 19.367,11.558 19.223 C 11.554 18.764,12.021 8.803,12.045 8.866 C 12.060 8.907,12.176 11.285,12.303 14.152 " fill="#414146" stroke="none" fill-rule="evenodd"></path></svg>