<svg width="24" height="24" viewBox="0 0 24 24" fill="none" xmlns="http://www.w3.org/2000/svg">
<g clip-path="url(#clip0_16354_3401)">
<path d="M13.8727 3.8406C12.9875 2.79489 12.2252 1.73283 12.0694 1.51225C12.053 1.49592 12.0284 1.49592 12.0121 1.51225C11.8563 1.73283 11.094 2.79489 10.2087 3.8406C2.61021 13.4889 11.4055 20.0001 11.4055 20.0001L11.4793 20.0491C11.5448 21.054 11.7088 22.5 11.7088 22.5H12.0366H12.3645C12.3645 22.5 12.5285 21.0622 12.594 20.0491L12.6678 19.992C12.676 19.992 21.4713 13.4889 13.8727 3.8406ZM12.0366 19.853C12.0366 19.853 11.6432 19.5181 11.5366 19.3465V19.3302L12.0121 8.82406C12.0121 8.79138 12.0612 8.79138 12.0612 8.82406L12.5367 19.3302V19.3465C12.4301 19.5181 12.0366 19.853 12.0366 19.853Z" fill="#414146"/>
</g>
<defs>
<clipPath id="clip0_16354_3401">
<rect width="9.76744" height="21" fill="white" transform="translate(7.11621 1.5)"/>
</clipPath>
</defs>
</svg>
