<svg width="24" height="24" viewBox="0 0 24 24" fill="none" xmlns="http://www.w3.org/2000/svg"><path d="M7.318 3.672 C 5.821 4.585,4.886 5.440,4.070 6.644 C 3.261 7.837,2.639 9.508,2.477 10.920 C 2.415 11.458,2.453 13.140,2.535 13.542 C 2.873 15.192,3.439 16.503,4.330 17.703 C 4.701 18.204,5.664 19.184,6.160 19.567 C 7.153 20.334,8.177 20.841,9.505 21.222 C 10.437 21.490,10.835 21.538,12.080 21.538 C 13.263 21.537,13.562 21.501,14.412 21.254 C 15.451 20.953,16.601 20.436,17.362 19.926 C 18.263 19.323,19.359 18.199,20.035 17.185 C 20.533 16.438,20.781 15.982,20.670 16.019 C 18.912 16.597,18.043 16.760,16.728 16.760 C 15.850 16.760,15.425 16.710,14.642 16.515 C 12.882 16.076,11.399 15.267,10.186 14.083 C 9.448 13.363,8.959 12.715,8.444 11.776 C 7.525 10.099,7.285 9.008,7.330 6.725 C 7.353 5.584,7.395 5.314,7.743 4.109 C 7.862 3.696,7.960 3.350,7.960 3.339 C 7.960 3.290,7.857 3.344,7.318 3.672 " fill="#373B4D" stroke="none" fill-rule="evenodd"></path></svg>