<svg width="24" height="24" viewBox="0 0 24 24" fill="none" xmlns="http://www.w3.org/2000/svg"><path d="M7.360 3.674 C 6.162 4.451,5.528 4.971,4.801 5.777 C 3.941 6.729,3.514 7.460,3.020 8.822 C 2.639 9.874,2.486 10.643,2.452 11.683 C 2.418 12.726,2.526 13.583,2.820 14.595 C 3.283 16.188,4.056 17.485,5.264 18.697 C 6.577 20.013,7.769 20.699,9.719 21.260 C 10.481 21.478,10.694 21.500,12.040 21.497 C 13.510 21.494,13.697 21.467,14.780 21.102 C 16.385 20.562,17.301 20.042,18.326 19.091 C 19.207 18.272,19.818 17.544,20.334 16.694 C 20.566 16.312,20.643 16.120,20.563 16.120 C 20.538 16.120,20.126 16.218,19.649 16.337 C 18.208 16.698,18.232 16.695,16.760 16.698 C 15.312 16.700,15.267 16.695,14.288 16.399 C 13.070 16.032,11.984 15.496,11.100 14.825 C 10.700 14.521,9.790 13.637,9.468 13.240 C 8.728 12.325,7.924 10.810,7.658 9.831 C 7.474 9.152,7.433 8.769,7.411 7.547 C 7.391 6.432,7.423 5.756,7.525 5.120 C 7.563 4.889,7.898 3.504,7.949 3.372 C 7.984 3.279,7.908 3.318,7.360 3.674 " fill="#373B4D" stroke="none" fill-rule="evenodd"></path></svg>