<svg width="24" height="24" viewBox="0 0 24 24" fill="none" xmlns="http://www.w3.org/2000/svg"><path d="M7.400 3.612 C 5.880 4.494,4.862 5.436,3.977 6.780 C 3.462 7.562,3.040 8.492,2.784 9.409 C 2.500 10.426,2.438 10.903,2.437 12.060 C 2.437 12.763,2.453 13.035,2.518 13.412 C 2.916 15.725,3.924 17.580,5.623 19.126 C 6.680 20.087,7.962 20.792,9.385 21.197 C 10.423 21.493,10.650 21.526,11.803 21.548 C 12.975 21.571,13.290 21.541,14.193 21.320 C 15.256 21.059,16.469 20.529,17.380 19.926 C 18.167 19.405,19.271 18.294,19.928 17.360 C 20.272 16.872,20.746 16.053,20.707 16.014 C 20.697 16.004,20.448 16.076,20.154 16.175 C 19.115 16.524,18.403 16.676,17.420 16.762 C 15.637 16.917,13.545 16.403,11.880 15.401 C 10.257 14.425,9.070 13.114,8.201 11.340 C 7.521 9.949,7.359 9.251,7.297 7.420 C 7.252 6.115,7.356 5.357,7.764 4.021 C 7.871 3.669,7.959 3.366,7.960 3.350 C 7.960 3.293,7.899 3.322,7.400 3.612 " fill="#373B4D" stroke="none" fill-rule="evenodd"></path></svg>