<svg width="24" height="24" viewBox="0 0 24 24" fill="none" xmlns="http://www.w3.org/2000/svg"><path d="M7.460 3.592 C 6.796 4.001,6.323 4.328,5.890 4.676 C 5.457 5.026,4.716 5.771,4.434 6.140 C 3.553 7.296,2.876 8.825,2.557 10.380 C 2.452 10.892,2.410 12.236,2.476 12.960 C 2.605 14.360,3.221 16.061,4.039 17.278 C 4.725 18.299,6.028 19.557,7.020 20.157 C 8.031 20.769,9.635 21.344,10.727 21.486 C 11.205 21.549,12.866 21.548,13.360 21.486 C 14.301 21.366,15.991 20.744,16.992 20.149 C 17.787 19.676,18.672 18.891,19.415 18.000 C 19.783 17.559,20.342 16.747,20.558 16.340 C 20.682 16.106,20.683 16.100,20.601 16.087 C 20.554 16.080,20.243 16.156,19.908 16.255 C 18.699 16.616,18.151 16.708,17.000 16.746 C 15.838 16.784,15.086 16.674,13.922 16.297 C 12.252 15.755,10.961 14.928,9.779 13.640 C 9.146 12.951,8.673 12.237,8.161 11.196 C 7.483 9.817,7.334 8.978,7.371 6.749 C 7.394 5.389,7.401 5.341,7.759 4.062 C 7.870 3.667,7.960 3.339,7.960 3.332 C 7.960 3.295,7.857 3.348,7.460 3.592 " fill="#373B4D" stroke="none" fill-rule="evenodd"></path></svg>