<svg width="24" height="24" viewBox="0 0 24 24" fill="none" xmlns="http://www.w3.org/2000/svg"><path d="M7.440 3.592 C 5.799 4.558,4.719 5.578,3.849 6.980 C 3.164 8.085,2.613 9.666,2.477 10.915 C 2.450 11.160,2.439 11.713,2.450 12.274 C 2.466 13.110,2.480 13.280,2.578 13.740 C 2.919 15.354,3.544 16.728,4.472 17.900 C 4.795 18.307,5.604 19.122,6.020 19.458 C 7.156 20.375,8.395 20.966,10.014 21.362 C 10.973 21.597,12.780 21.627,13.740 21.425 C 15.257 21.105,16.933 20.341,17.917 19.520 C 18.563 18.981,19.287 18.218,19.783 17.553 C 20.084 17.148,20.560 16.386,20.660 16.145 L 20.719 16.005 20.510 16.065 C 20.394 16.098,20.111 16.186,19.880 16.261 C 18.762 16.625,17.873 16.772,16.780 16.775 C 15.897 16.777,15.414 16.715,14.500 16.481 C 12.314 15.923,10.435 14.673,9.160 12.929 C 8.804 12.442,8.469 11.871,8.145 11.200 C 7.482 9.827,7.312 8.970,7.309 7.000 C 7.307 5.765,7.381 5.298,7.803 3.897 C 7.889 3.610,7.960 3.363,7.960 3.347 C 7.960 3.293,7.893 3.324,7.440 3.592 " fill="#373B4D" stroke="none" fill-rule="evenodd"></path></svg>