<svg width="24" height="24" viewBox="0 0 24 24" fill="none" xmlns="http://www.w3.org/2000/svg"><path d="M7.337 3.645 C 6.718 4.006,6.403 4.219,5.965 4.574 C 4.056 6.122,2.853 8.259,2.495 10.740 C 2.411 11.326,2.400 12.570,2.475 13.120 C 2.776 15.326,3.690 17.208,5.199 18.723 C 5.475 18.999,5.844 19.340,6.020 19.479 C 7.179 20.398,8.509 21.027,10.004 21.361 C 10.799 21.538,11.037 21.562,12.021 21.562 C 12.878 21.562,13.044 21.551,13.541 21.460 C 14.555 21.276,15.304 21.027,16.260 20.558 C 17.301 20.048,17.893 19.623,18.712 18.800 C 19.222 18.288,19.678 17.739,20.037 17.205 C 20.304 16.807,20.720 16.084,20.720 16.016 C 20.720 15.991,20.508 16.049,20.232 16.149 C 18.865 16.645,17.403 16.865,16.127 16.767 C 13.425 16.560,10.781 15.135,9.230 13.051 C 8.359 11.881,7.750 10.592,7.440 9.261 C 7.336 8.815,7.261 7.388,7.292 6.460 C 7.321 5.621,7.434 5.057,7.823 3.823 C 7.970 3.354,7.977 3.320,7.927 3.320 C 7.909 3.320,7.644 3.466,7.337 3.645 " fill="#373B4D" stroke="none" fill-rule="evenodd"></path></svg>