<svg width="24" height="24" viewBox="0 0 24 24" fill="none" xmlns="http://www.w3.org/2000/svg"><path d="M7.114 3.834 C 6.091 4.514,5.810 4.739,5.116 5.442 C 4.232 6.335,3.764 7.016,3.318 8.060 C 2.849 9.155,2.560 10.186,2.482 11.040 C 2.365 12.322,2.470 13.422,2.821 14.610 C 3.290 16.193,4.049 17.480,5.196 18.638 C 6.403 19.858,7.388 20.481,8.960 21.019 C 10.295 21.476,10.748 21.542,12.334 21.508 C 13.536 21.483,13.783 21.443,14.751 21.123 C 16.279 20.617,17.311 20.039,18.275 19.149 C 19.190 18.304,19.801 17.573,20.360 16.657 C 20.603 16.259,20.649 16.120,20.540 16.120 C 20.507 16.120,20.161 16.202,19.770 16.303 C 18.293 16.684,18.268 16.687,16.995 16.709 C 15.721 16.731,15.395 16.704,14.696 16.519 C 13.277 16.145,12.090 15.583,11.054 14.796 C 10.639 14.482,9.791 13.649,9.428 13.200 C 8.801 12.424,8.084 11.127,7.760 10.180 C 7.670 9.916,7.561 9.499,7.519 9.252 C 7.313 8.052,7.333 6.087,7.562 4.897 C 7.626 4.569,7.835 3.743,7.944 3.390 C 7.956 3.351,7.948 3.320,7.926 3.320 C 7.905 3.320,7.539 3.551,7.114 3.834 " fill="#373B4D" stroke="none" fill-rule="evenodd"></path></svg>