<svg width="24" height="24" viewBox="0 0 24 24" fill="none" xmlns="http://www.w3.org/2000/svg"><path d="M7.400 3.625 C 5.846 4.569,4.866 5.460,4.063 6.660 C 3.277 7.834,2.652 9.502,2.482 10.879 C 2.431 11.293,2.429 12.324,2.479 13.000 C 2.547 13.925,2.959 15.289,3.483 16.320 C 3.984 17.309,4.426 17.900,5.352 18.824 C 6.163 19.633,6.820 20.102,7.820 20.585 C 8.659 20.990,9.912 21.383,10.660 21.475 C 11.554 21.586,13.109 21.558,13.780 21.420 C 14.627 21.246,16.218 20.620,16.984 20.161 C 17.893 19.615,18.736 18.849,19.581 17.800 C 20.055 17.212,20.736 16.123,20.671 16.058 C 20.656 16.043,20.398 16.106,20.097 16.199 C 18.803 16.600,18.144 16.717,17.012 16.748 C 16.013 16.776,15.516 16.726,14.660 16.512 C 12.808 16.050,11.374 15.254,10.098 13.981 C 9.335 13.219,8.806 12.483,8.260 11.419 C 7.538 10.012,7.344 9.101,7.345 7.120 C 7.345 5.690,7.383 5.399,7.721 4.197 C 7.852 3.729,7.960 3.341,7.960 3.333 C 7.960 3.294,7.855 3.349,7.400 3.625 " fill="#373B4D" stroke="none" fill-rule="evenodd"></path></svg>