<svg width="24" height="24" viewBox="0 0 24 24" fill="none" xmlns="http://www.w3.org/2000/svg"><path d="M7.539 3.514 C 5.986 4.324,4.635 5.611,3.713 7.158 C 3.144 8.114,2.727 9.286,2.498 10.581 C 2.387 11.209,2.397 12.806,2.516 13.493 C 2.797 15.111,3.408 16.531,4.373 17.813 C 5.595 19.436,7.342 20.628,9.366 21.219 C 11.020 21.703,12.832 21.716,14.504 21.258 C 16.913 20.598,18.916 19.084,20.223 16.934 C 20.488 16.499,20.776 15.960,20.744 15.960 C 20.734 15.960,20.640 15.998,20.533 16.044 C 19.994 16.280,19.104 16.531,18.260 16.686 C 17.616 16.805,16.146 16.815,15.441 16.706 C 13.675 16.433,11.982 15.670,10.608 14.530 C 9.203 13.364,8.067 11.594,7.577 9.808 C 7.283 8.734,7.261 8.550,7.260 7.200 C 7.260 6.185,7.272 5.919,7.332 5.620 C 7.452 5.018,7.674 4.213,7.846 3.753 C 7.936 3.513,8.003 3.309,7.994 3.301 C 7.985 3.292,7.781 3.388,7.539 3.514 " fill="#373B4D" stroke="none" fill-rule="evenodd"></path></svg>