<svg width="24" height="24" viewBox="0 0 24 24" fill="none" xmlns="http://www.w3.org/2000/svg"><path d="M7.760 3.410 C 7.276 3.699,6.320 4.354,5.980 4.628 C 5.475 5.036,4.614 5.916,4.284 6.360 C 3.654 7.211,3.214 8.137,2.775 9.540 C 2.568 10.203,2.478 10.790,2.451 11.643 C 2.415 12.815,2.514 13.603,2.823 14.627 C 3.353 16.380,4.183 17.716,5.508 18.954 C 6.667 20.036,7.531 20.546,9.100 21.073 C 10.247 21.458,10.643 21.519,12.000 21.518 C 13.105 21.518,13.616 21.468,14.182 21.305 C 15.649 20.883,16.846 20.315,17.758 19.609 C 18.173 19.289,19.212 18.257,19.550 17.830 C 20.073 17.171,20.684 16.187,20.613 16.118 C 20.595 16.100,20.346 16.147,20.060 16.223 C 18.284 16.693,18.063 16.726,16.720 16.727 C 15.485 16.729,15.211 16.688,14.060 16.336 C 12.899 15.980,11.785 15.396,10.889 14.675 C 10.424 14.300,9.618 13.471,9.277 13.018 C 8.466 11.940,7.753 10.467,7.545 9.440 C 7.386 8.657,7.332 7.522,7.395 6.290 C 7.446 5.291,7.557 4.704,7.945 3.390 C 7.971 3.302,7.935 3.306,7.760 3.410 " fill="#373B4D" stroke="none" fill-rule="evenodd"></path></svg>