<svg width="24" height="24" viewBox="0 0 24 24" fill="none" xmlns="http://www.w3.org/2000/svg"><path d="M7.309 3.690 C 6.355 4.288,5.800 4.720,5.140 5.380 C 4.314 6.206,3.806 6.948,3.311 8.052 C 3.066 8.597,2.717 9.641,2.604 10.167 C 2.392 11.156,2.383 12.673,2.584 13.700 C 2.812 14.870,3.374 16.265,3.993 17.200 C 4.787 18.399,6.196 19.718,7.360 20.352 C 8.061 20.734,9.360 21.209,10.241 21.406 C 10.636 21.495,10.738 21.500,12.040 21.500 C 13.595 21.500,13.608 21.498,14.620 21.172 C 16.037 20.715,17.013 20.217,17.900 19.499 C 18.326 19.154,19.208 18.263,19.543 17.840 C 19.996 17.267,20.640 16.268,20.640 16.140 C 20.640 16.057,20.602 16.064,19.680 16.321 C 18.429 16.670,17.971 16.733,16.700 16.737 C 15.651 16.740,15.317 16.697,14.380 16.433 C 12.585 15.927,11.258 15.148,10.011 13.867 C 9.226 13.060,8.716 12.319,8.160 11.180 C 7.492 9.810,7.318 8.799,7.377 6.620 C 7.409 5.472,7.451 5.185,7.739 4.140 C 7.860 3.700,7.960 3.336,7.960 3.330 C 7.960 3.292,7.830 3.364,7.309 3.690 " fill="#373B4D" stroke="none" fill-rule="evenodd"></path></svg>