<svg width="24" height="24" viewBox="0 0 24 24" fill="none" xmlns="http://www.w3.org/2000/svg"><path d="M13.006 4.398 L 10.960 6.473 7.810 6.490 C 4.934 6.505,4.641 6.512,4.440 6.577 C 3.805 6.781,3.356 7.216,3.111 7.863 L 3.021 8.100 3.008 11.660 C 2.999 14.290,3.007 15.262,3.042 15.380 C 3.114 15.626,3.309 15.998,3.469 16.194 C 3.669 16.438,4.030 16.694,4.329 16.805 L 4.580 16.898 7.325 16.911 L 10.070 16.924 11.407 18.192 C 12.492 19.221,14.019 20.662,14.928 21.514 L 15.077 21.653 15.348 21.416 C 15.851 20.977,16.569 20.262,16.889 19.880 C 17.742 18.863,18.446 17.726,18.863 16.690 C 18.941 16.497,19.002 16.400,19.045 16.400 C 19.115 16.400,20.692 16.796,21.011 16.894 L 21.202 16.953 21.258 16.820 C 21.452 16.355,21.765 15.084,21.897 14.228 C 22.194 12.295,22.105 10.325,21.638 8.472 C 21.531 8.049,21.248 7.074,21.224 7.051 C 21.219 7.046,20.705 7.195,20.082 7.382 C 19.458 7.569,18.943 7.716,18.937 7.710 C 18.930 7.704,18.798 7.421,18.643 7.081 C 18.161 6.027,17.588 5.083,16.911 4.230 C 16.591 3.826,15.477 2.661,15.196 2.438 L 15.053 2.323 13.006 4.398 M15.490 4.093 C 16.217 4.892,16.824 5.731,17.317 6.620 C 17.567 7.070,17.920 7.862,17.920 7.972 C 17.920 8.045,17.727 8.111,15.340 8.853 C 14.394 9.147,13.580 9.401,13.530 9.417 L 13.440 9.445 13.440 8.913 C 13.439 8.241,13.390 7.926,13.235 7.607 C 13.085 7.298,12.741 6.938,12.428 6.761 L 12.196 6.630 13.102 5.705 C 14.447 4.332,15.080 3.723,15.140 3.745 C 15.168 3.756,15.326 3.913,15.490 4.093 M20.615 8.470 C 20.699 8.732,20.862 9.495,20.943 10.000 C 21.032 10.561,21.069 12.801,21.001 13.471 C 20.911 14.351,20.637 15.668,20.535 15.707 C 20.504 15.719,20.087 15.617,19.609 15.480 C 19.131 15.343,18.497 15.170,18.200 15.095 C 17.903 15.020,16.710 14.704,15.550 14.392 L 13.440 13.824 13.440 12.762 C 13.440 12.178,13.452 11.420,13.466 11.078 L 13.492 10.457 14.956 10.001 C 17.656 9.161,20.500 8.283,20.527 8.281 C 20.542 8.281,20.581 8.365,20.615 8.470 M6.511 8.825 L 6.753 8.851 7.380 9.901 C 7.724 10.479,8.048 10.991,8.100 11.040 C 8.284 11.213,8.316 11.174,9.175 9.713 L 9.685 8.847 10.013 8.821 C 10.193 8.806,10.515 8.800,10.730 8.807 L 11.120 8.820 10.000 10.699 L 8.880 12.578 8.880 13.589 L 8.880 14.600 8.220 14.600 L 7.560 14.600 7.560 13.585 L 7.560 12.570 6.460 10.724 C 5.855 9.708,5.360 8.860,5.360 8.839 C 5.360 8.795,6.132 8.786,6.511 8.825 M16.167 15.586 L 18.034 16.093 17.955 16.297 C 17.776 16.759,17.358 17.533,16.995 18.079 C 16.501 18.820,16.180 19.218,15.577 19.836 L 15.094 20.333 13.517 18.833 C 12.650 18.008,11.860 17.246,11.762 17.139 L 11.585 16.945 11.817 16.893 C 12.714 16.689,13.437 15.852,13.440 15.013 L 13.440 14.846 13.870 14.963 C 14.107 15.026,15.140 15.307,16.167 15.586 " stroke="none" fill-rule="evenodd"></path></svg>