<svg width="24" height="24" viewBox="0 0 24 24" fill="none" xmlns="http://www.w3.org/2000/svg"><path d="M13.004 4.403 L 10.954 6.480 7.907 6.481 C 5.446 6.481,4.809 6.492,4.595 6.538 C 3.828 6.700,3.238 7.285,3.058 8.062 C 3.006 8.287,2.999 8.809,3.009 11.832 L 3.020 15.340 3.110 15.577 C 3.357 16.227,3.865 16.693,4.508 16.860 C 4.700 16.910,5.169 16.920,7.402 16.920 L 10.067 16.920 12.554 19.280 C 13.922 20.578,15.055 21.640,15.071 21.640 C 15.124 21.640,16.094 20.747,16.462 20.360 C 17.466 19.303,18.372 17.921,18.843 16.730 C 18.911 16.559,18.979 16.406,18.996 16.389 C 19.019 16.365,20.951 16.858,21.180 16.945 C 21.208 16.956,21.289 16.761,21.394 16.425 C 22.290 13.562,22.297 10.499,21.412 7.640 C 21.314 7.321,21.227 7.054,21.220 7.047 C 21.213 7.040,20.707 7.189,20.096 7.378 C 19.484 7.568,18.965 7.715,18.941 7.706 C 18.918 7.697,18.837 7.539,18.763 7.355 C 18.276 6.155,17.453 4.825,16.573 3.819 C 16.268 3.470,15.361 2.565,15.157 2.405 L 15.054 2.325 13.004 4.403 M15.506 4.110 C 16.357 5.039,16.988 5.940,17.498 6.956 C 17.726 7.411,17.972 8.002,17.944 8.029 C 17.932 8.041,16.954 8.351,15.771 8.718 C 14.588 9.086,13.580 9.399,13.530 9.416 L 13.440 9.445 13.440 8.832 C 13.440 8.145,13.380 7.838,13.179 7.495 C 13.009 7.204,12.708 6.906,12.438 6.762 L 12.199 6.635 13.627 5.177 C 14.412 4.376,15.076 3.720,15.102 3.720 C 15.128 3.720,15.310 3.896,15.506 4.110 M20.713 8.830 C 20.990 10.032,21.059 10.665,21.059 12.000 C 21.059 13.067,21.023 13.548,20.882 14.360 C 20.796 14.853,20.602 15.689,20.565 15.725 C 20.541 15.749,19.769 15.539,18.940 15.284 C 18.720 15.216,18.477 15.153,18.400 15.143 C 18.323 15.133,17.175 14.832,15.850 14.473 L 13.439 13.821 13.450 12.144 L 13.460 10.467 16.960 9.378 C 18.885 8.779,20.488 8.287,20.523 8.285 C 20.572 8.281,20.614 8.402,20.713 8.830 M7.420 9.970 C 8.072 11.073,8.105 11.120,8.221 11.120 C 8.337 11.120,8.370 11.073,9.022 9.970 L 9.701 8.820 10.411 8.809 C 10.801 8.803,11.120 8.805,11.120 8.814 C 11.120 8.822,10.616 9.673,10.000 10.704 L 8.880 12.579 8.880 13.590 L 8.880 14.600 8.220 14.600 L 7.560 14.600 7.560 13.586 L 7.560 12.572 6.477 10.756 C 5.881 9.757,5.376 8.908,5.355 8.869 C 5.318 8.802,5.357 8.799,6.028 8.809 L 6.739 8.820 7.420 9.970 M15.860 15.501 C 17.048 15.823,18.024 16.091,18.030 16.096 C 18.049 16.116,17.722 16.848,17.550 17.172 C 17.290 17.661,16.921 18.234,16.544 18.735 C 16.210 19.179,15.512 19.957,15.233 20.196 L 15.087 20.322 13.303 18.631 C 11.699 17.110,11.531 16.939,11.630 16.928 C 12.049 16.883,12.551 16.640,12.856 16.336 C 13.197 15.995,13.440 15.445,13.440 15.015 L 13.440 14.846 13.570 14.881 C 13.642 14.900,14.672 15.179,15.860 15.501 " stroke="none" fill-rule="evenodd" fill="black"></path></svg>