<svg width="24" height="24" viewBox="0 0 24 24" fill="none" xmlns="http://www.w3.org/2000/svg">
<path d="M18.8498 15.2489C18.2192 17.4868 16.8898 19.4712 15.0848 21C13.1088 19.1255 11.5581 17.6545 10.3411 16.5" stroke="#414146"/>
<path d="M18.7302 8.71265C18.0598 6.49804 16.7827 4.53396 15.0847 3C13.2657 4.84057 11.8071 6.31648 10.6375 7.5" stroke="#414146"/>
<path d="M12.7239 10.1781L20.9034 7.64514C21.3427 9.01339 21.5808 10.4777 21.5808 12C21.5808 13.5222 21.3427 14.9866 20.9034 16.3548L12.7239 14.1384" stroke="#414146"/>
<path fill-rule="evenodd" clip-rule="evenodd" d="M5 6.48389C3.89543 6.48389 3 7.37932 3 8.48389V14.9355C3 16.0401 3.89543 16.9355 5 16.9355H11.4516C12.5562 16.9355 13.4516 16.0401 13.4516 14.9355V8.48389C13.4516 7.37932 12.5562 6.48389 11.4516 6.48389H5ZM6.72715 8.8064L8.09601 11.1241H8.34652L9.71537 8.8064H11.129L8.89227 12.5472V14.6128H7.55025V12.5472L5.32251 8.8064H6.72715Z" fill="#414146"/>
</svg>
