<svg width="24" height="24" viewBox="0 0 24 24" fill="none" xmlns="http://www.w3.org/2000/svg"><path d="M19.740 3.539 C 19.156 3.713,15.800 4.853,8.280 7.433 C 2.255 9.501,2.514 9.406,2.311 9.609 C 2.008 9.912,2.029 9.584,2.009 14.242 C 1.990 18.417,1.990 18.423,2.073 18.586 C 2.278 18.989,2.501 19.146,2.946 19.199 C 3.511 19.267,5.640 19.368,12.180 19.638 C 14.292 19.725,16.533 19.818,17.160 19.844 C 17.787 19.870,18.816 19.894,19.446 19.896 L 20.592 19.900 20.765 19.779 C 20.860 19.712,20.994 19.583,21.064 19.492 L 21.190 19.327 21.221 15.773 C 21.237 13.819,21.238 10.384,21.223 8.140 C 21.195 4.159,21.192 4.057,21.114 3.931 C 20.992 3.733,20.735 3.533,20.540 3.484 C 20.284 3.420,20.100 3.433,19.740 3.539 M17.918 7.545 C 18.064 7.631,18.167 7.812,18.172 7.988 C 18.176 8.116,18.142 8.163,17.818 8.476 C 17.072 9.196,11.723 13.667,11.044 14.137 L 10.876 14.254 10.328 14.103 C 8.998 13.738,4.462 12.351,3.953 12.155 C 3.591 12.015,3.480 11.902,3.480 11.672 C 3.480 11.388,3.640 11.202,3.885 11.201 C 4.040 11.200,4.864 11.436,8.426 12.500 L 10.672 13.172 10.986 12.917 C 11.262 12.693,14.262 10.210,16.528 8.331 C 17.314 7.679,17.594 7.481,17.734 7.480 C 17.774 7.480,17.857 7.509,17.918 7.545 " fill="#373B4D" stroke="none" fill-rule="evenodd"></path></svg>