<svg width="24" height="24" viewBox="0 0 24 24" fill="none" xmlns="http://www.w3.org/2000/svg"><path d="M19.820 3.517 C 19.250 3.674,5.495 8.368,3.305 9.153 C 2.341 9.498,2.163 9.624,2.077 10.020 C 2.013 10.313,1.975 18.240,2.037 18.468 C 2.097 18.691,2.305 18.959,2.506 19.070 C 2.700 19.177,3.020 19.223,3.980 19.279 C 6.059 19.401,17.430 19.865,19.249 19.902 L 20.558 19.929 20.749 19.788 C 20.855 19.711,21.001 19.573,21.074 19.482 L 21.207 19.316 21.226 13.748 C 21.249 7.230,21.212 4.129,21.109 3.935 C 21.036 3.797,20.854 3.630,20.676 3.538 C 20.485 3.439,20.133 3.431,19.820 3.517 M17.971 7.590 C 18.085 7.693,18.160 7.859,18.160 8.008 C 18.160 8.120,18.113 8.185,17.850 8.440 C 17.333 8.940,14.738 11.143,12.540 12.946 C 11.466 13.827,10.929 14.240,10.856 14.240 C 10.683 14.240,5.063 12.546,4.071 12.194 C 3.570 12.017,3.436 11.865,3.497 11.542 C 3.526 11.385,3.719 11.200,3.853 11.200 C 4.032 11.200,5.547 11.636,9.766 12.901 L 10.672 13.172 11.306 12.652 C 11.655 12.366,13.119 11.156,14.560 9.963 C 16.001 8.770,17.288 7.722,17.419 7.634 C 17.678 7.461,17.816 7.450,17.971 7.590 " fill="#373B4D" stroke="none" fill-rule="evenodd"></path></svg>