<svg width="24" height="24" viewBox="0 0 24 24" fill="none" xmlns="http://www.w3.org/2000/svg"><path d="M20.020 3.440 C 19.932 3.455,18.402 3.967,16.620 4.577 C 14.838 5.188,11.706 6.260,9.660 6.960 C 4.928 8.579,2.738 9.334,2.558 9.410 C 2.370 9.488,2.090 9.812,2.051 9.995 C 2.010 10.185,2.011 18.336,2.051 18.527 C 2.088 18.702,2.380 19.043,2.570 19.133 C 2.777 19.231,3.633 19.276,11.900 19.619 C 20.332 19.969,20.419 19.972,20.670 19.853 C 20.853 19.766,21.058 19.560,21.160 19.361 C 21.239 19.205,21.240 19.133,21.240 11.680 C 21.240 4.757,21.235 4.146,21.174 4.028 C 20.932 3.561,20.527 3.354,20.020 3.440 M17.919 7.531 C 18.057 7.601,18.200 7.828,18.200 7.976 C 18.200 8.044,18.168 8.149,18.130 8.209 C 17.996 8.417,11.266 14.058,10.957 14.221 C 10.862 14.271,10.673 14.221,8.597 13.597 C 5.337 12.617,4.022 12.209,3.779 12.101 C 3.521 11.987,3.420 11.829,3.452 11.590 C 3.476 11.413,3.590 11.270,3.766 11.198 C 3.909 11.138,3.580 11.048,7.585 12.248 L 10.669 13.173 11.284 12.676 C 11.622 12.403,13.041 11.228,14.436 10.065 C 15.832 8.902,17.107 7.845,17.269 7.715 C 17.583 7.466,17.716 7.428,17.919 7.531 " fill="#373B4D" stroke="none" fill-rule="evenodd"></path></svg>