<svg width="24" height="24" viewBox="0 0 24 24" fill="none" xmlns="http://www.w3.org/2000/svg"><path d="M19.720 2.561 C 19.421 2.594,11.899 4.095,9.703 4.560 C 7.963 4.928,7.665 5.042,7.344 5.463 L 7.200 5.652 7.200 11.286 L 7.200 16.920 6.570 16.922 C 6.224 16.924,5.679 16.940,5.360 16.958 C 4.843 16.987,4.738 17.006,4.386 17.133 C 3.481 17.460,2.763 18.070,2.516 18.721 C 2.348 19.162,2.458 19.714,2.810 20.208 C 3.199 20.753,3.913 21.181,4.839 21.425 C 5.606 21.627,6.748 21.588,7.509 21.334 C 8.485 21.008,9.266 20.366,9.445 19.743 C 9.508 19.522,9.559 18.072,9.619 14.800 C 9.682 11.322,9.708 10.253,9.744 9.735 L 9.766 9.410 10.533 9.243 C 12.040 8.915,17.833 7.773,18.968 7.581 C 19.068 7.564,19.077 7.574,19.097 7.731 C 19.118 7.900,19.201 12.879,19.200 13.945 L 19.200 14.509 18.210 14.537 C 16.963 14.572,16.624 14.611,16.256 14.764 C 15.590 15.041,14.831 15.680,14.586 16.168 C 14.290 16.761,14.484 17.526,15.080 18.120 C 15.786 18.823,17.313 19.299,18.426 19.164 C 19.232 19.066,20.024 18.778,20.579 18.383 C 20.908 18.147,21.315 17.704,21.473 17.407 L 21.600 17.169 21.600 10.191 L 21.600 3.214 21.290 2.912 C 21.092 2.720,20.937 2.602,20.860 2.587 C 20.628 2.542,20.017 2.528,19.720 2.561 " fill="#373B4D" stroke="none" fill-rule="evenodd"></path></svg>