<svg width="24" height="24" viewBox="0 0 24 24" fill="none" xmlns="http://www.w3.org/2000/svg"><path d="M19.880 2.520 C 19.350 2.591,9.590 4.555,8.658 4.779 C 7.827 4.978,7.585 5.105,7.324 5.476 L 7.200 5.652 7.200 11.276 L 7.200 16.900 6.230 16.902 C 5.374 16.903,5.211 16.914,4.841 16.994 C 4.063 17.163,3.475 17.483,2.974 18.011 C 2.524 18.484,2.355 18.932,2.443 19.418 C 2.660 20.621,4.192 21.560,5.937 21.560 C 6.801 21.560,7.422 21.430,8.045 21.121 C 8.690 20.801,9.194 20.357,9.384 19.943 C 9.473 19.749,9.488 19.642,9.520 19.012 C 9.540 18.620,9.576 17.031,9.600 15.480 C 9.674 10.711,9.708 9.474,9.770 9.413 C 9.834 9.349,18.001 7.713,18.924 7.579 L 19.108 7.553 19.134 8.566 C 19.148 9.124,19.171 10.692,19.186 12.050 L 19.212 14.520 18.616 14.522 C 18.288 14.524,17.705 14.540,17.320 14.558 C 16.658 14.590,16.604 14.599,16.323 14.720 C 15.736 14.973,15.432 15.168,15.077 15.520 C 14.635 15.958,14.418 16.361,14.423 16.738 C 14.429 17.224,14.703 17.789,15.124 18.182 C 15.618 18.645,16.446 19.000,17.360 19.141 C 17.870 19.220,18.185 19.215,18.726 19.122 C 20.062 18.891,21.039 18.268,21.504 17.351 L 21.600 17.163 21.600 10.197 L 21.600 3.231 21.358 2.958 C 21.221 2.803,21.042 2.649,20.944 2.602 C 20.741 2.504,20.274 2.468,19.880 2.520 " fill="#373B4D" stroke="none" fill-rule="evenodd"></path></svg>