<svg width="24" height="24" viewBox="0 0 24 24" fill="none" xmlns="http://www.w3.org/2000/svg"><path d="M19.820 2.523 C 19.518 2.564,10.041 4.465,9.042 4.685 C 7.858 4.946,7.603 5.061,7.339 5.452 L 7.200 5.659 7.200 11.293 L 7.200 16.928 6.730 16.894 C 5.897 16.834,5.031 16.906,4.460 17.083 C 3.551 17.364,2.727 18.056,2.493 18.733 C 2.332 19.199,2.439 19.738,2.783 20.196 C 3.409 21.028,4.591 21.558,5.826 21.559 C 6.855 21.561,7.419 21.447,8.099 21.099 C 8.739 20.773,9.166 20.394,9.385 19.957 C 9.478 19.772,9.491 19.687,9.522 19.046 C 9.541 18.658,9.586 16.375,9.621 13.973 C 9.656 11.571,9.699 9.556,9.715 9.494 C 9.741 9.398,9.775 9.376,9.963 9.336 C 11.816 8.945,18.504 7.630,18.904 7.578 L 19.109 7.551 19.134 8.266 C 19.148 8.659,19.171 10.225,19.185 11.746 L 19.212 14.512 18.016 14.531 C 17.292 14.543,16.749 14.569,16.640 14.598 C 16.388 14.664,15.775 14.960,15.495 15.151 C 14.972 15.508,14.531 16.076,14.438 16.512 C 14.319 17.068,14.708 17.904,15.289 18.340 C 15.797 18.722,16.578 19.028,17.325 19.138 C 17.853 19.215,18.153 19.216,18.640 19.141 C 19.969 18.937,20.949 18.352,21.438 17.470 L 21.599 17.180 21.599 10.212 L 21.600 3.244 21.401 3.005 C 21.144 2.697,20.982 2.574,20.759 2.523 C 20.553 2.476,20.167 2.476,19.820 2.523 " fill="#373B4D" stroke="none" fill-rule="evenodd"></path></svg>