<svg width="24" height="24" viewBox="0 0 24 24" fill="none" xmlns="http://www.w3.org/2000/svg"><path d="M19.580 2.567 C 19.470 2.590,17.904 2.902,16.100 3.261 C 11.845 4.108,9.179 4.655,8.582 4.803 C 7.839 4.988,7.588 5.124,7.315 5.496 L 7.200 5.652 7.200 11.283 L 7.200 16.913 6.090 16.930 C 5.033 16.946,4.962 16.952,4.606 17.054 C 3.506 17.368,2.615 18.151,2.445 18.952 C 2.359 19.356,2.531 19.881,2.895 20.328 C 3.366 20.906,4.328 21.382,5.297 21.517 C 5.990 21.613,6.908 21.540,7.502 21.341 C 8.439 21.026,9.217 20.414,9.423 19.831 C 9.515 19.571,9.552 18.583,9.620 14.520 C 9.680 11.035,9.725 9.461,9.769 9.418 C 9.845 9.342,19.047 7.514,19.098 7.565 C 19.116 7.583,19.200 12.721,19.200 13.784 L 19.200 14.508 18.163 14.535 C 16.686 14.575,16.602 14.588,16.065 14.850 C 15.356 15.197,14.805 15.698,14.553 16.227 C 14.300 16.758,14.469 17.450,15.001 18.055 C 15.581 18.715,17.086 19.250,18.180 19.184 C 19.694 19.094,20.984 18.377,21.515 17.332 L 21.600 17.163 21.600 10.190 L 21.600 3.218 21.350 2.955 C 20.982 2.569,20.920 2.544,20.300 2.534 C 20.014 2.529,19.690 2.544,19.580 2.567 " fill="#373B4D" stroke="none" fill-rule="evenodd"></path></svg>