<svg width="24" height="24" viewBox="0 0 24 24" fill="none" xmlns="http://www.w3.org/2000/svg"><path d="M19.140 2.683 C 18.920 2.727,17.813 2.944,16.680 3.165 C 14.253 3.639,10.209 4.461,9.324 4.661 C 8.139 4.928,7.687 5.106,7.378 5.429 L 7.200 5.614 7.200 11.262 L 7.200 16.909 6.430 16.937 C 5.534 16.969,4.858 17.024,4.602 17.088 C 4.112 17.209,3.401 17.627,3.015 18.020 C 2.735 18.306,2.502 18.731,2.461 19.033 C 2.428 19.270,2.507 19.617,2.664 19.929 C 2.834 20.267,3.386 20.781,3.822 21.009 C 5.068 21.658,6.554 21.725,7.822 21.190 C 8.403 20.945,8.988 20.508,9.234 20.136 C 9.516 19.711,9.525 19.572,9.680 12.920 C 9.763 9.397,9.760 9.438,9.863 9.399 C 9.967 9.359,16.610 8.031,17.742 7.824 C 18.161 7.747,18.622 7.672,18.768 7.657 L 19.033 7.630 19.056 7.845 C 19.079 8.057,19.133 10.226,19.184 13.064 L 19.211 14.509 18.615 14.536 C 17.731 14.576,16.891 14.639,16.623 14.685 C 16.018 14.790,14.950 15.564,14.616 16.140 C 14.508 16.326,14.500 16.369,14.500 16.760 C 14.500 17.151,14.509 17.199,14.631 17.456 C 14.728 17.661,14.846 17.816,15.091 18.059 C 15.476 18.442,15.841 18.670,16.375 18.861 C 17.294 19.190,18.099 19.257,18.900 19.071 C 20.003 18.815,20.762 18.347,21.359 17.555 L 21.600 17.235 21.600 10.221 L 21.600 3.207 21.390 3.018 C 20.948 2.620,20.952 2.621,20.203 2.611 C 19.675 2.605,19.459 2.619,19.140 2.683 " fill="#373B4D" stroke="none" fill-rule="evenodd"></path></svg>