<svg width="24" height="24" viewBox="0 0 24 24" fill="none" xmlns="http://www.w3.org/2000/svg"><path d="M19.540 2.601 C 19.194 2.646,10.372 4.415,9.380 4.639 C 8.519 4.833,7.920 5.012,7.695 5.142 C 7.604 5.195,7.455 5.326,7.365 5.435 L 7.200 5.631 7.200 11.276 L 7.200 16.920 6.750 16.921 C 6.118 16.921,4.982 16.991,4.720 17.044 C 4.599 17.069,4.345 17.156,4.156 17.238 C 3.187 17.655,2.506 18.395,2.451 19.093 C 2.400 19.726,2.885 20.470,3.646 20.925 C 5.092 21.790,7.101 21.764,8.451 20.865 C 8.934 20.543,9.244 20.219,9.379 19.895 C 9.505 19.595,9.556 18.470,9.641 14.160 C 9.683 11.974,9.754 9.433,9.772 9.415 C 9.808 9.379,14.190 8.497,17.180 7.924 C 18.712 7.630,19.001 7.585,19.046 7.630 C 19.088 7.672,19.134 9.386,19.182 12.645 L 19.209 14.509 18.474 14.537 C 17.430 14.576,16.732 14.632,16.496 14.695 C 16.051 14.814,15.546 15.137,15.035 15.629 C 14.594 16.054,14.464 16.312,14.464 16.760 C 14.463 17.272,14.659 17.667,15.157 18.160 C 15.829 18.826,17.352 19.293,18.418 19.160 C 19.749 18.995,20.804 18.407,21.410 17.495 L 21.600 17.209 21.600 10.208 L 21.600 3.207 21.330 2.960 C 21.181 2.823,21.006 2.684,20.940 2.649 C 20.796 2.574,19.972 2.546,19.540 2.601 " fill="#373B4D" stroke="none" fill-rule="evenodd"></path></svg>