<svg width="24" height="24" viewBox="0 0 24 24" fill="none" xmlns="http://www.w3.org/2000/svg"><path d="M19.740 2.528 C 18.419 2.784,10.141 4.446,9.420 4.600 C 7.754 4.955,7.610 5.017,7.305 5.509 L 7.200 5.678 7.200 11.300 L 7.200 16.922 6.810 16.899 C 6.595 16.887,6.356 16.869,6.278 16.859 C 6.002 16.825,5.058 16.918,4.662 17.018 C 3.236 17.380,2.224 18.499,2.439 19.475 C 2.526 19.868,2.671 20.117,3.018 20.463 C 3.195 20.641,3.440 20.852,3.561 20.932 C 3.856 21.128,4.394 21.341,4.912 21.466 C 5.312 21.562,5.382 21.567,6.118 21.549 C 7.051 21.527,7.391 21.450,8.100 21.102 C 8.814 20.751,9.314 20.268,9.463 19.786 C 9.532 19.563,9.556 18.530,9.637 12.345 C 9.658 10.741,9.690 9.415,9.707 9.398 C 9.758 9.351,18.419 7.631,18.886 7.577 L 19.109 7.550 19.134 7.985 C 19.147 8.224,19.170 9.793,19.185 11.470 L 19.211 14.520 18.081 14.520 C 16.837 14.520,16.740 14.533,16.162 14.777 C 15.438 15.082,14.845 15.595,14.567 16.158 C 14.437 16.422,14.420 16.490,14.420 16.758 C 14.420 17.115,14.518 17.396,14.789 17.809 C 14.989 18.115,15.213 18.320,15.595 18.548 C 16.151 18.879,16.801 19.087,17.542 19.169 C 18.900 19.321,20.528 18.738,21.185 17.865 C 21.286 17.731,21.421 17.517,21.484 17.391 L 21.600 17.162 21.600 10.211 L 21.599 3.260 21.429 3.033 C 21.221 2.757,21.000 2.575,20.805 2.521 C 20.627 2.471,20.011 2.476,19.740 2.528 " fill="#373B4D" stroke="none" fill-rule="evenodd"></path></svg>