<svg width="24" height="24" viewBox="0 0 24 24" fill="none" xmlns="http://www.w3.org/2000/svg"><path d="M19.320 2.629 C 19.155 2.662,17.409 3.010,15.440 3.401 C 7.844 4.913,7.779 4.929,7.372 5.431 L 7.200 5.643 7.200 11.281 L 7.200 16.920 6.690 16.921 C 6.410 16.921,5.869 16.939,5.490 16.960 C 4.927 16.991,4.744 17.017,4.498 17.099 C 3.525 17.426,2.754 18.066,2.516 18.742 C 2.318 19.306,2.542 19.984,3.101 20.516 C 4.347 21.699,6.746 21.906,8.312 20.965 C 8.886 20.620,9.249 20.247,9.401 19.846 C 9.498 19.591,9.543 18.698,9.600 15.880 C 9.684 11.724,9.721 10.171,9.745 9.795 L 9.771 9.410 10.355 9.282 C 12.117 8.898,18.753 7.600,18.955 7.600 C 19.068 7.600,19.070 7.605,19.094 7.870 C 19.123 8.192,19.220 14.475,19.196 14.495 C 19.187 14.502,18.658 14.529,18.020 14.554 C 16.832 14.600,16.561 14.637,16.180 14.800 C 15.632 15.035,14.801 15.738,14.608 16.129 C 14.388 16.576,14.399 17.017,14.643 17.513 C 14.779 17.787,15.157 18.219,15.423 18.402 C 16.261 18.979,17.580 19.293,18.540 19.146 C 19.905 18.936,20.900 18.346,21.461 17.416 L 21.600 17.185 21.600 10.197 L 21.600 3.210 21.315 2.941 C 21.158 2.793,20.969 2.646,20.896 2.616 C 20.715 2.540,19.722 2.548,19.320 2.629 " fill="#373B4D" stroke="none" fill-rule="evenodd"></path></svg>