<svg width="24" height="24" viewBox="0 0 24 24" fill="none" xmlns="http://www.w3.org/2000/svg"><path d="M19.440 2.639 C 19.177 2.674,15.936 3.309,13.220 3.856 C 8.224 4.864,7.898 4.951,7.413 5.410 L 7.200 5.612 7.200 11.260 L 7.200 16.909 6.530 16.937 C 4.914 17.002,4.556 17.057,4.038 17.316 C 3.198 17.737,2.666 18.283,2.500 18.895 C 2.435 19.136,2.434 19.171,2.496 19.446 C 2.601 19.916,2.838 20.266,3.313 20.654 C 4.617 21.717,6.786 21.843,8.294 20.943 C 8.885 20.591,9.270 20.191,9.384 19.812 C 9.510 19.394,9.555 18.394,9.681 13.140 C 9.725 11.314,9.772 9.733,9.786 9.627 C 9.805 9.480,9.832 9.426,9.896 9.402 C 10.089 9.329,17.252 7.904,18.259 7.739 C 19.109 7.599,19.028 7.571,19.057 8.010 C 19.080 8.355,19.121 10.023,19.184 13.185 L 19.210 14.509 18.675 14.536 C 17.045 14.619,16.556 14.673,16.261 14.804 C 15.608 15.092,14.818 15.752,14.569 16.217 C 14.520 16.308,14.503 16.448,14.501 16.761 C 14.500 17.160,14.507 17.196,14.636 17.458 C 14.795 17.781,15.295 18.301,15.651 18.513 C 16.506 19.023,17.709 19.268,18.631 19.121 C 19.722 18.947,20.658 18.422,21.307 17.620 L 21.599 17.260 21.599 10.233 L 21.600 3.206 21.370 3.000 C 20.997 2.665,20.924 2.640,20.269 2.621 C 19.956 2.612,19.583 2.620,19.440 2.639 " fill="#373B4D" stroke="none" fill-rule="evenodd"></path></svg>