<svg width="24" height="24" viewBox="0 0 24 24" fill="none" xmlns="http://www.w3.org/2000/svg"><path d="M14.740 3.045 C 12.065 3.299,10.201 4.838,9.585 7.300 C 9.371 8.157,9.351 8.402,9.331 10.465 L 9.312 12.390 9.646 12.289 C 9.924 12.205,10.066 12.188,10.500 12.184 C 10.998 12.180,11.298 12.230,11.690 12.382 C 11.756 12.407,11.760 12.309,11.760 10.654 C 11.760 8.835,11.787 8.441,11.948 7.862 C 12.294 6.612,13.110 5.766,14.301 5.421 C 15.296 5.132,16.559 5.221,17.425 5.640 C 18.238 6.034,18.828 6.729,19.137 7.659 C 19.377 8.382,19.372 8.286,19.389 12.351 L 19.404 16.081 20.612 16.071 L 21.820 16.060 21.831 12.960 C 21.847 8.621,21.802 7.917,21.438 6.826 C 20.949 5.360,20.081 4.339,18.766 3.682 C 17.687 3.143,16.193 2.907,14.740 3.045 M3.745 9.663 C 2.979 9.849,2.378 10.493,2.212 11.307 C 2.041 12.146,2.498 13.102,3.264 13.509 C 3.727 13.754,4.297 13.827,4.761 13.700 C 5.438 13.515,5.662 13.476,6.054 13.475 C 6.279 13.475,6.552 13.496,6.661 13.522 C 7.248 13.664,7.775 14.075,8.030 14.593 C 8.173 14.882,8.180 14.914,8.180 15.298 C 8.180 15.668,8.170 15.722,8.051 15.972 C 7.883 16.328,7.552 16.672,7.204 16.855 C 6.551 17.198,5.917 17.221,4.926 16.936 C 3.681 16.579,2.479 17.274,2.220 18.500 C 2.147 18.849,2.147 18.950,2.220 19.300 C 2.420 20.251,3.172 20.918,4.122 20.988 C 4.827 21.040,5.534 20.712,5.937 20.146 C 6.152 19.843,6.215 19.693,6.344 19.182 C 6.684 17.826,7.518 17.084,8.706 17.081 C 9.023 17.080,9.461 17.154,9.848 17.273 C 10.240 17.394,10.573 17.416,10.920 17.343 C 11.917 17.135,12.601 16.304,12.600 15.303 C 12.599 14.757,12.436 14.314,12.093 13.923 C 11.539 13.294,10.700 13.075,9.820 13.330 C 9.280 13.487,8.949 13.534,8.542 13.509 C 7.741 13.460,7.097 13.053,6.701 12.345 C 6.536 12.049,6.474 11.883,6.316 11.302 C 6.166 10.753,6.045 10.526,5.736 10.216 C 5.218 9.695,4.471 9.488,3.745 9.663 " fill="#414146" stroke="none" fill-rule="evenodd"></path></svg>