<svg width="24" height="24" viewBox="0 0 24 24" fill="none" xmlns="http://www.w3.org/2000/svg"><path d="M5.460 3.066 C 4.841 3.198,4.396 3.445,3.920 3.920 C 3.436 4.405,3.195 4.846,3.063 5.488 C 3.007 5.761,3.000 6.507,3.000 12.000 C 3.000 17.493,3.007 18.239,3.063 18.512 C 3.195 19.154,3.436 19.595,3.920 20.080 C 4.405 20.564,4.846 20.805,5.488 20.937 C 5.753 20.991,6.223 21.000,8.812 21.000 C 11.691 21.000,11.841 20.996,12.144 20.920 C 12.669 20.788,13.009 20.592,13.424 20.181 C 13.723 19.886,13.819 19.758,13.956 19.480 C 14.271 18.837,14.254 19.035,14.278 15.830 L 14.300 12.959 15.993 15.137 C 16.924 16.334,17.768 17.395,17.868 17.493 C 18.579 18.194,19.757 18.169,20.466 17.438 C 20.711 17.185,20.822 17.003,20.921 16.686 C 20.998 16.437,21.000 16.307,20.999 11.086 C 20.999 5.315,21.005 5.502,20.787 4.961 C 20.620 4.548,20.434 4.274,20.080 3.920 C 19.608 3.448,19.139 3.188,18.527 3.058 C 18.118 2.971,5.870 2.979,5.460 3.066 M18.357 5.531 C 18.413 5.559,18.469 5.634,18.488 5.706 C 18.506 5.776,18.516 7.735,18.510 10.060 L 18.500 14.287 16.793 12.093 C 15.157 9.990,14.898 9.680,14.612 9.485 C 14.122 9.150,13.368 9.136,12.744 9.449 C 12.400 9.622,12.024 10.061,11.868 10.471 C 11.781 10.699,11.780 10.712,11.760 14.571 C 11.743 17.954,11.732 18.448,11.680 18.481 C 11.644 18.504,10.513 18.519,8.818 18.519 L 6.017 18.520 5.838 18.430 C 5.708 18.364,5.636 18.292,5.570 18.162 L 5.480 17.983 5.480 12.000 L 5.480 6.017 5.570 5.838 C 5.636 5.708,5.708 5.636,5.838 5.570 L 6.017 5.480 12.138 5.481 C 16.916 5.481,18.281 5.492,18.357 5.531 " fill="#414146" stroke="none" fill-rule="evenodd"></path></svg>