<svg width="24" height="24" viewBox="0 0 24 24" fill="none" xmlns="http://www.w3.org/2000/svg">
<path fill-rule="evenodd" clip-rule="evenodd" d="M3 6.10347C3 5.28038 3.32697 4.491 3.90899 3.90899C4.491 3.32697 5.28038 3 6.10347 3H17.8964C18.7195 3 19.5089 3.32697 20.0909 3.90899C20.6729 4.491 20.9998 5.28038 20.9998 6.10347V16.1334C20.9998 17.9064 18.7559 18.6759 17.6679 17.2764L14.2654 12.8994V18.2069C14.2654 18.9476 13.9712 19.658 13.4474 20.1818C12.9236 20.7056 12.2132 20.9998 11.4724 20.9998H6.10347C5.28038 20.9998 4.491 20.6729 3.90899 20.0909C3.32697 19.5089 3 18.7195 3 17.8964V6.10347ZM6.10347 5.48298C5.76048 5.48298 5.48298 5.76048 5.48298 6.10297V17.8964C5.48298 18.2394 5.76048 18.5174 6.10297 18.5174H11.5654C11.7369 18.5174 11.7824 18.3784 11.7824 18.2069V11.0899C11.7824 9.31645 14.0264 8.54695 15.1149 9.94694L18.5174 14.3234V6.10347C18.5174 5.76048 18.5494 5.48298 18.2069 5.48298H6.10347Z" fill="#414146"/>
<path fill-rule="evenodd" clip-rule="evenodd" d="M3 6.10347C3 5.28038 3.32697 4.491 3.90899 3.90899C4.491 3.32697 5.28038 3 6.10347 3H17.8964C18.7195 3 19.5089 3.32697 20.0909 3.90899C20.6729 4.491 20.9998 5.28038 20.9998 6.10347V16.1334C20.9998 17.9064 18.7559 18.6759 17.6679 17.2764L14.2654 12.8994V18.2069C14.2654 18.9476 13.9712 19.658 13.4474 20.1818C12.9236 20.7056 12.2132 20.9998 11.4724 20.9998H6.10347C5.28038 20.9998 4.491 20.6729 3.90899 20.0909C3.32697 19.5089 3 18.7195 3 17.8964V6.10347ZM6.10347 5.48298C5.76048 5.48298 5.48298 5.76048 5.48298 6.10297V17.8964C5.48298 18.2394 5.76048 18.5174 6.10297 18.5174H11.5654C11.7369 18.5174 11.7824 18.3784 11.7824 18.2069V11.0899C11.7824 9.31645 14.0264 8.54695 15.1149 9.94694L18.5174 14.3234V6.10347C18.5174 5.76048 18.5494 5.48298 18.2069 5.48298H6.10347Z" fill="#414146"/>
<path fill-rule="evenodd" clip-rule="evenodd" d="M3 6.10347C3 5.28038 3.32697 4.491 3.90899 3.90899C4.491 3.32697 5.28038 3 6.10347 3H17.8964C18.7195 3 19.5089 3.32697 20.0909 3.90899C20.6729 4.491 20.9998 5.28038 20.9998 6.10347V16.1334C20.9998 17.9064 18.7559 18.6759 17.6679 17.2764L14.2654 12.8994V18.2069C14.2654 18.9476 13.9712 19.658 13.4474 20.1818C12.9236 20.7056 12.2132 20.9998 11.4724 20.9998H6.10347C5.28038 20.9998 4.491 20.6729 3.90899 20.0909C3.32697 19.5089 3 18.7195 3 17.8964V6.10347ZM6.10347 5.48298C5.76048 5.48298 5.48298 5.76048 5.48298 6.10297V17.8964C5.48298 18.2394 5.76048 18.5174 6.10297 18.5174H11.5654C11.7369 18.5174 11.7824 18.3784 11.7824 18.2069V11.0899C11.7824 9.31645 14.0264 8.54695 15.1149 9.94694L18.5174 14.3234V6.10347C18.5174 5.76048 18.5494 5.48298 18.2069 5.48298H6.10347Z" fill="#414146"/>
<path d="M17.8965 3C18.7196 3 19.509 3.32697 20.091 3.90899C20.673 4.491 21 5.28038 21 6.10347V16.1334C21 17.9064 18.756 18.6759 17.668 17.2764L14.2655 12.8994V18.2069C14.2655 18.9476 13.9713 19.658 13.4475 20.1818C12.9237 20.7056 12.2133 20.9998 11.4725 20.9998C11.5132 20.9998 11.5536 20.9918 11.5912 20.9762C11.6288 20.9607 11.6629 20.9379 11.6917 20.9091C11.7205 20.8803 11.7434 20.8461 11.7589 20.8085C11.7745 20.7709 11.7825 20.7306 11.7825 20.6899V11.0899C11.7825 9.31645 14.0265 8.54695 15.115 9.94694L18.5175 14.3234V3.62049C18.5175 3.278 18.2395 3 17.8965 3Z" fill="#414146"/>
</svg>
