<svg width="24" height="24" viewBox="0 0 24 24" fill="none" xmlns="http://www.w3.org/2000/svg"><path d="M5.020 3.678 L 4.100 3.700 3.820 3.850 C 3.247 4.156,2.901 4.518,2.607 5.118 L 2.420 5.500 2.420 12.000 L 2.420 18.500 2.584 18.840 C 2.903 19.502,3.283 19.892,3.920 20.210 L 4.260 20.380 10.920 20.390 C 14.583 20.395,17.805 20.386,18.080 20.369 L 18.580 20.338 18.275 20.186 C 17.928 20.014,17.666 19.804,17.378 19.471 C 17.066 19.108,16.955 18.862,16.917 18.451 C 16.899 18.258,16.865 15.553,16.841 12.440 C 16.792 6.292,16.772 5.537,16.651 5.218 C 16.457 4.711,15.899 4.112,15.380 3.856 L 15.073 3.705 13.507 3.675 C 11.761 3.643,6.444 3.645,5.020 3.678 M13.200 9.600 L 13.200 12.000 9.600 12.000 L 6.000 12.000 6.000 9.600 L 6.000 7.200 9.600 7.200 L 13.200 7.200 13.200 9.600 M18.002 12.464 C 18.003 14.706,18.019 16.840,18.037 17.207 C 18.067 17.790,18.083 17.900,18.170 18.087 C 18.510 18.817,19.363 19.305,20.051 19.162 C 20.626 19.042,21.162 18.621,21.409 18.093 C 21.532 17.831,21.536 17.802,21.568 17.048 C 21.587 16.622,21.597 14.929,21.591 13.286 L 21.580 10.300 21.373 9.878 C 21.143 9.408,20.868 9.087,20.476 8.830 C 20.022 8.533,19.720 8.465,18.630 8.417 L 18.000 8.388 18.002 12.464 M13.200 15.600 L 13.200 16.800 9.600 16.800 L 6.000 16.800 6.000 15.600 L 6.000 14.400 9.600 14.400 L 13.200 14.400 13.200 15.600 " fill="#373B4D" stroke="none" fill-rule="evenodd"></path></svg>