<svg width="24" height="24" viewBox="0 0 24 24" fill="none" xmlns="http://www.w3.org/2000/svg"><path d="M4.080 3.797 C 3.630 3.862,2.871 4.585,2.516 5.289 L 2.400 5.518 2.400 12.024 L 2.400 18.530 2.585 18.835 C 2.948 19.436,3.309 19.806,3.948 20.234 L 4.196 20.400 9.628 20.400 C 15.736 20.400,18.360 20.371,18.360 20.303 C 18.359 20.280,18.222 20.152,18.054 20.021 C 17.713 19.753,17.333 19.348,17.116 19.018 L 16.972 18.800 16.945 17.310 C 16.930 16.490,16.892 14.092,16.860 11.980 C 16.798 7.912,16.738 5.789,16.676 5.460 C 16.656 5.350,16.591 5.162,16.533 5.042 C 16.392 4.754,15.861 4.205,15.483 3.956 L 15.184 3.760 9.722 3.765 C 6.718 3.768,4.179 3.782,4.080 3.797 M13.200 9.600 L 13.200 12.000 9.600 12.000 L 6.000 12.000 6.000 9.600 L 6.000 7.200 9.600 7.200 L 13.200 7.200 13.200 9.600 M18.000 13.056 L 18.000 17.723 18.098 17.911 C 18.247 18.198,18.336 18.317,18.605 18.588 C 19.093 19.080,19.658 19.263,20.182 19.098 C 20.650 18.950,21.188 18.461,21.476 17.921 L 21.600 17.689 21.600 14.000 L 21.600 10.312 21.460 10.046 C 21.070 9.308,20.553 8.838,19.900 8.626 C 19.698 8.561,18.994 8.466,18.350 8.416 L 18.000 8.389 18.000 13.056 M13.200 15.600 L 13.200 16.800 9.600 16.800 L 6.000 16.800 6.000 15.600 L 6.000 14.400 9.600 14.400 L 13.200 14.400 13.200 15.600 " fill="#373B4D" stroke="none" fill-rule="evenodd"></path></svg>