<svg width="24" height="24" viewBox="0 0 24 24" fill="none" xmlns="http://www.w3.org/2000/svg"><path d="M6.120 3.799 L 3.940 3.820 3.749 3.932 C 3.343 4.171,2.792 4.778,2.521 5.286 L 2.400 5.511 2.400 12.040 L 2.400 18.569 2.668 18.954 C 2.990 19.418,3.469 19.902,3.897 20.197 L 4.212 20.413 11.156 20.386 C 14.975 20.371,18.160 20.345,18.234 20.329 L 18.369 20.299 18.034 20.007 C 17.669 19.687,17.312 19.293,17.103 18.980 L 16.969 18.780 16.923 15.520 C 16.837 9.363,16.759 6.162,16.679 5.590 C 16.620 5.161,16.460 4.870,16.070 4.479 C 15.888 4.297,15.616 4.061,15.464 3.954 L 15.187 3.760 11.744 3.769 C 9.850 3.773,7.319 3.787,6.120 3.799 M13.200 9.600 L 13.200 12.000 9.600 12.000 L 6.000 12.000 6.000 9.600 L 6.000 7.200 9.600 7.200 L 13.200 7.200 13.200 9.600 M18.000 13.062 L 18.000 17.723 18.086 17.892 C 18.302 18.317,18.809 18.818,19.237 19.029 C 19.525 19.171,19.998 19.180,20.293 19.048 C 20.697 18.867,21.173 18.415,21.461 17.936 L 21.600 17.705 21.600 14.001 L 21.600 10.298 21.422 9.986 C 20.980 9.209,20.340 8.712,19.611 8.579 C 19.275 8.518,18.289 8.400,18.110 8.400 L 18.000 8.400 18.000 13.062 M13.200 15.600 L 13.200 16.800 9.600 16.800 L 6.000 16.800 6.000 15.600 L 6.000 14.400 9.600 14.400 L 13.200 14.400 13.200 15.600 " fill="#373B4D" stroke="none" fill-rule="evenodd"></path></svg>