<svg width="24" height="24" viewBox="0 0 24 24" fill="none" xmlns="http://www.w3.org/2000/svg"><path d="M5.000 3.798 L 3.940 3.820 3.740 3.937 C 3.326 4.178,2.752 4.816,2.505 5.309 L 2.400 5.517 2.400 12.033 L 2.400 18.548 2.675 18.964 C 2.988 19.438,3.426 19.880,3.898 20.199 L 4.208 20.408 11.114 20.387 C 14.912 20.375,18.101 20.351,18.200 20.333 L 18.380 20.300 18.020 19.993 C 17.638 19.667,17.385 19.394,17.130 19.029 L 16.973 18.805 16.946 17.092 C 16.931 16.151,16.901 14.246,16.879 12.860 C 16.826 9.396,16.763 6.732,16.720 6.040 C 16.681 5.408,16.620 5.168,16.427 4.880 C 16.251 4.618,15.772 4.157,15.456 3.944 L 15.181 3.760 10.620 3.768 C 8.112 3.773,5.583 3.787,5.000 3.798 M13.200 9.600 L 13.200 12.000 9.600 12.000 L 6.000 12.000 6.000 9.600 L 6.000 7.200 9.600 7.200 L 13.200 7.200 13.200 9.600 M18.000 13.064 L 18.000 17.729 18.129 17.974 C 18.317 18.330,18.826 18.829,19.178 19.002 C 19.424 19.123,19.493 19.139,19.778 19.139 C 20.059 19.140,20.135 19.123,20.376 19.009 C 20.725 18.844,21.240 18.341,21.454 17.956 L 21.600 17.692 21.600 13.996 L 21.600 10.300 21.410 9.960 C 21.002 9.231,20.341 8.709,19.662 8.579 C 19.367 8.523,18.298 8.400,18.101 8.400 L 18.000 8.400 18.000 13.064 M13.200 15.600 L 13.200 16.800 9.600 16.800 L 6.000 16.800 6.000 15.600 L 6.000 14.400 9.600 14.400 L 13.200 14.400 13.200 15.600 " fill="#373B4D" stroke="none" fill-rule="evenodd"></path></svg>