<svg width="24" height="24" viewBox="0 0 24 24" fill="none" xmlns="http://www.w3.org/2000/svg"><path d="M6.920 3.798 L 3.940 3.820 3.784 3.912 C 3.377 4.153,2.879 4.683,2.576 5.199 L 2.400 5.498 2.400 12.033 L 2.400 18.567 2.610 18.873 C 2.872 19.257,3.616 20.012,3.958 20.241 L 4.215 20.413 11.078 20.386 C 14.852 20.372,18.032 20.349,18.145 20.335 L 18.350 20.310 17.820 19.785 C 17.529 19.496,17.219 19.152,17.131 19.020 L 16.972 18.780 16.944 16.700 C 16.875 11.384,16.785 7.134,16.719 6.110 C 16.676 5.442,16.593 5.129,16.380 4.840 C 16.205 4.603,15.763 4.180,15.446 3.947 L 15.191 3.760 12.546 3.768 C 11.091 3.773,8.559 3.786,6.920 3.798 M13.200 9.600 L 13.200 12.000 9.600 12.000 L 6.000 12.000 6.000 9.600 L 6.000 7.200 9.600 7.200 L 13.200 7.200 13.200 9.600 M18.000 13.071 L 18.000 17.742 18.150 17.996 C 18.328 18.297,18.904 18.860,19.168 18.991 C 19.599 19.204,20.075 19.189,20.473 18.950 C 20.762 18.776,21.185 18.354,21.414 18.010 L 21.600 17.729 21.600 14.004 L 21.600 10.279 21.397 9.951 C 21.285 9.771,21.122 9.538,21.035 9.433 C 20.724 9.063,20.175 8.719,19.717 8.607 C 19.515 8.558,18.292 8.400,18.112 8.400 L 18.000 8.400 18.000 13.071 M13.200 15.600 L 13.200 16.800 9.600 16.800 L 6.000 16.800 6.000 15.600 L 6.000 14.400 9.600 14.400 L 13.200 14.400 13.200 15.600 " fill="#373B4D" stroke="none" fill-rule="evenodd"></path></svg>