<svg width="24" height="24" viewBox="0 0 24 24" fill="none" xmlns="http://www.w3.org/2000/svg"><path d="M4.960 3.717 C 3.933 3.743,3.927 3.745,3.422 4.131 C 3.103 4.375,2.811 4.738,2.569 5.193 L 2.400 5.509 2.401 12.005 L 2.401 18.500 2.571 18.809 C 2.942 19.488,3.260 19.820,3.902 20.199 L 4.242 20.400 9.591 20.400 C 14.883 20.400,18.481 20.369,18.479 20.323 C 18.478 20.311,18.366 20.237,18.229 20.160 C 17.886 19.967,17.253 19.332,17.088 19.014 L 16.960 18.768 16.922 17.194 C 16.901 16.328,16.873 14.495,16.860 13.120 C 16.826 9.488,16.764 6.243,16.722 5.760 C 16.701 5.529,16.655 5.268,16.618 5.180 C 16.442 4.757,15.849 4.123,15.412 3.889 L 15.178 3.765 14.379 3.743 C 13.188 3.710,5.997 3.690,4.960 3.717 M13.200 9.600 L 13.200 12.000 9.600 12.000 L 6.000 12.000 6.000 9.600 L 6.000 7.200 9.600 7.200 L 13.200 7.200 13.200 9.600 M18.009 13.069 L 18.029 17.749 18.136 17.981 C 18.491 18.759,19.353 19.302,20.007 19.162 C 20.576 19.040,21.164 18.576,21.408 18.056 L 21.538 17.780 21.565 16.560 C 21.581 15.889,21.595 14.210,21.596 12.829 L 21.600 10.318 21.475 10.069 C 21.195 9.514,20.850 9.108,20.422 8.831 C 20.022 8.573,19.616 8.488,18.444 8.416 L 17.988 8.388 18.009 13.069 M13.200 15.600 L 13.200 16.800 9.600 16.800 L 6.000 16.800 6.000 15.600 L 6.000 14.400 9.600 14.400 L 13.200 14.400 13.200 15.600 " fill="#373B4D" stroke="none" fill-rule="evenodd"></path></svg>