<svg width="24" height="24" viewBox="0 0 24 24" fill="none" xmlns="http://www.w3.org/2000/svg"><path d="M5.840 3.676 C 4.104 3.700,4.100 3.700,3.920 3.796 C 3.312 4.119,2.909 4.525,2.604 5.123 L 2.400 5.524 2.400 12.001 L 2.400 18.477 2.595 18.858 C 2.921 19.494,3.244 19.830,3.869 20.182 L 4.220 20.380 10.860 20.390 C 14.512 20.395,17.732 20.386,18.016 20.370 L 18.532 20.340 18.162 20.121 C 17.706 19.852,17.266 19.404,17.076 19.017 C 16.949 18.760,16.947 18.749,16.916 17.949 C 16.899 17.504,16.865 14.872,16.840 12.100 C 16.793 6.663,16.763 5.570,16.657 5.256 C 16.501 4.796,16.000 4.226,15.482 3.918 C 15.213 3.759,15.166 3.745,14.806 3.717 C 14.263 3.676,7.932 3.647,5.840 3.676 M13.200 9.600 L 13.200 12.000 9.600 12.000 L 6.000 12.000 6.000 9.600 L 6.000 7.200 9.600 7.200 L 13.200 7.200 13.200 9.600 M18.012 12.985 C 18.025 16.181,18.044 17.640,18.076 17.778 C 18.225 18.434,18.843 19.014,19.549 19.162 C 20.191 19.297,21.056 18.805,21.397 18.111 C 21.520 17.863,21.529 17.814,21.562 17.214 C 21.581 16.865,21.598 15.172,21.598 13.452 L 21.600 10.324 21.392 9.912 C 21.222 9.576,21.125 9.441,20.862 9.176 C 20.297 8.608,19.920 8.482,18.607 8.420 L 17.993 8.391 18.012 12.985 M13.200 15.600 L 13.200 16.800 9.600 16.800 L 6.000 16.800 6.000 15.600 L 6.000 14.400 9.600 14.400 L 13.200 14.400 13.200 15.600 " fill="#373B4D" stroke="none" fill-rule="evenodd"></path></svg>