<svg width="24" height="24" viewBox="0 0 24 24" fill="none" xmlns="http://www.w3.org/2000/svg"><path d="M4.340 3.715 C 4.076 3.736,3.979 3.764,3.785 3.876 C 3.258 4.180,2.909 4.553,2.584 5.160 L 2.401 5.500 2.401 11.995 L 2.400 18.490 2.588 18.847 C 2.923 19.483,3.278 19.845,3.930 20.215 L 4.260 20.402 11.347 20.391 C 15.401 20.385,18.448 20.365,18.467 20.345 C 18.485 20.325,18.478 20.301,18.450 20.291 C 18.423 20.281,18.261 20.182,18.090 20.071 C 17.670 19.797,17.296 19.408,17.107 19.048 L 16.953 18.755 16.918 17.508 C 16.899 16.821,16.864 14.253,16.840 11.800 C 16.793 6.968,16.756 5.617,16.661 5.296 C 16.490 4.720,15.671 3.905,15.115 3.756 C 14.925 3.705,4.955 3.667,4.340 3.715 M13.200 9.600 L 13.200 12.000 9.600 12.000 L 6.000 12.000 6.000 9.600 L 6.000 7.200 9.600 7.200 L 13.200 7.200 13.200 9.600 M18.004 11.650 C 18.006 13.438,18.019 15.557,18.034 16.361 L 18.060 17.822 18.197 18.101 C 18.540 18.803,19.380 19.293,20.014 19.161 C 20.727 19.013,21.376 18.402,21.524 17.740 C 21.554 17.605,21.575 16.372,21.588 13.937 L 21.608 10.334 21.448 10.017 C 21.037 9.199,20.445 8.688,19.739 8.542 C 19.482 8.488,18.504 8.401,18.150 8.400 L 18.000 8.400 18.004 11.650 M13.200 15.600 L 13.200 16.800 9.600 16.800 L 6.000 16.800 6.000 15.600 L 6.000 14.400 9.600 14.400 L 13.200 14.400 13.200 15.600 " fill="#373B4D" stroke="none" fill-rule="evenodd"></path></svg>