<svg width="24" height="24" viewBox="0 0 24 24" fill="none" xmlns="http://www.w3.org/2000/svg"><path d="M4.200 3.759 C 3.912 3.801,3.865 3.821,3.580 4.021 C 3.146 4.327,2.780 4.767,2.505 5.309 L 2.400 5.517 2.400 12.010 L 2.400 18.503 2.605 18.862 C 2.963 19.490,3.298 19.835,3.913 20.207 L 4.245 20.409 11.273 20.393 C 16.076 20.383,18.323 20.365,18.372 20.336 C 18.436 20.299,18.412 20.273,18.187 20.128 C 17.850 19.910,17.296 19.350,17.116 19.045 L 16.973 18.803 16.946 17.992 C 16.932 17.545,16.893 15.101,16.860 12.560 C 16.797 7.742,16.747 5.757,16.679 5.422 C 16.657 5.312,16.601 5.150,16.555 5.062 C 16.337 4.643,15.800 4.106,15.350 3.856 L 15.140 3.740 9.780 3.733 C 6.832 3.730,4.321 3.741,4.200 3.759 M13.200 9.600 L 13.200 12.000 9.600 12.000 L 6.000 12.000 6.000 9.600 L 6.000 7.200 9.600 7.200 L 13.200 7.200 13.200 9.600 M18.006 13.085 L 18.020 17.780 18.159 18.040 C 18.341 18.381,18.788 18.833,19.100 18.990 C 19.443 19.162,19.751 19.219,20.013 19.158 C 20.576 19.027,21.157 18.559,21.422 18.023 L 21.569 17.727 21.590 14.034 L 21.612 10.340 21.500 10.120 C 21.118 9.364,20.587 8.835,20.013 8.637 C 19.756 8.549,19.119 8.460,18.446 8.419 L 17.993 8.391 18.006 13.085 M13.200 15.600 L 13.200 16.800 9.600 16.800 L 6.000 16.800 6.000 15.600 L 6.000 14.400 9.600 14.400 L 13.200 14.400 13.200 15.600 " fill="#373B4D" stroke="none" fill-rule="evenodd"></path></svg>