<svg width="24" height="24" viewBox="0 0 24 24" fill="none" xmlns="http://www.w3.org/2000/svg"><path d="M5.060 3.639 C 4.229 3.662,4.166 3.669,3.933 3.767 C 3.271 4.047,2.736 4.622,2.517 5.285 L 2.420 5.580 2.420 12.000 L 2.420 18.420 2.517 18.715 C 2.746 19.410,3.339 20.014,4.045 20.272 L 4.340 20.380 11.300 20.392 C 15.128 20.399,18.359 20.393,18.480 20.378 L 18.700 20.351 18.426 20.258 C 17.669 20.002,17.001 19.259,16.872 18.528 C 16.847 18.386,16.822 15.904,16.805 11.920 L 16.778 5.540 16.671 5.245 C 16.426 4.566,15.837 3.971,15.180 3.737 C 15.022 3.681,14.783 3.660,14.040 3.637 C 12.940 3.603,6.342 3.604,5.060 3.639 M13.200 9.600 L 13.200 12.000 9.600 12.000 L 6.000 12.000 6.000 9.600 L 6.000 7.200 9.600 7.200 L 13.200 7.200 13.200 9.600 M18.001 12.810 C 18.001 15.236,18.018 17.378,18.038 17.571 C 18.086 18.026,18.209 18.293,18.521 18.618 C 18.788 18.896,19.118 19.082,19.472 19.156 C 19.756 19.215,19.898 19.212,20.182 19.139 C 20.539 19.047,20.810 18.895,21.060 18.645 C 21.332 18.373,21.504 18.032,21.559 17.656 C 21.583 17.490,21.599 15.992,21.599 13.891 L 21.600 10.402 21.479 10.072 C 21.242 9.423,20.819 8.949,20.212 8.653 C 19.862 8.483,19.820 8.472,19.352 8.438 C 19.081 8.419,18.667 8.402,18.430 8.401 L 18.000 8.400 18.001 12.810 M13.200 15.600 L 13.200 16.800 9.600 16.800 L 6.000 16.800 6.000 15.600 L 6.000 14.400 9.600 14.400 L 13.200 14.400 13.200 15.600 " fill="#373B4D" stroke="none" fill-rule="evenodd"></path></svg>