<svg width="24" height="24" viewBox="0 0 24 24" fill="none" xmlns="http://www.w3.org/2000/svg"><path d="M11.220 2.024 C 10.082 2.142,9.194 2.349,8.326 2.698 C 6.843 3.294,5.667 4.124,4.499 5.399 C 3.279 6.731,2.448 8.480,2.096 10.460 C 1.986 11.081,1.996 13.004,2.112 13.640 C 2.522 15.873,3.518 17.729,5.129 19.261 C 6.596 20.655,8.244 21.480,10.380 21.888 C 10.810 21.970,10.974 21.979,11.960 21.977 C 13.391 21.975,13.992 21.882,15.220 21.474 C 15.821 21.275,16.720 20.872,16.720 20.803 C 16.720 20.782,16.354 20.274,15.907 19.673 C 14.071 17.207,13.194 15.965,11.020 12.751 C 10.206 11.547,9.527 10.562,9.510 10.561 C 9.494 10.561,9.479 11.563,9.477 12.790 C 9.474 15.547,9.442 16.455,9.346 16.552 C 9.293 16.605,9.188 16.623,8.879 16.634 L 8.481 16.647 8.355 16.522 L 8.229 16.396 8.247 12.452 L 8.265 8.508 8.375 8.414 C 8.476 8.328,8.520 8.320,8.928 8.320 C 9.302 8.320,9.380 8.331,9.428 8.390 C 9.501 8.480,13.526 14.531,15.700 17.818 C 16.990 19.769,17.399 20.359,17.460 20.360 C 17.654 20.360,18.870 19.317,19.513 18.598 C 20.892 17.058,21.807 14.943,21.960 12.947 C 22.103 11.064,21.858 9.576,21.129 7.920 C 20.864 7.316,20.752 7.112,20.378 6.540 C 19.625 5.389,18.691 4.451,17.531 3.680 C 15.886 2.586,14.192 2.063,12.160 2.023 C 11.731 2.014,11.308 2.015,11.220 2.024 M15.476 8.098 C 15.567 8.145,15.593 8.192,15.614 8.344 C 15.648 8.589,15.647 12.609,15.613 14.113 L 15.587 15.285 14.989 14.373 L 14.390 13.461 14.409 10.901 C 14.428 8.194,14.430 8.176,14.615 8.087 C 14.748 8.022,15.345 8.030,15.476 8.098 " fill="#373B4D" stroke="none" fill-rule="evenodd"></path></svg>