<svg width="24" height="24" viewBox="0 0 24 24" fill="none" xmlns="http://www.w3.org/2000/svg"><path d="M10.840 2.060 C 9.029 2.280,7.418 2.930,5.942 4.036 C 5.457 4.399,4.427 5.416,4.087 5.867 C 3.013 7.293,2.406 8.699,2.094 10.480 C 1.988 11.080,1.987 12.909,2.092 13.520 C 2.473 15.745,3.413 17.574,4.966 19.109 C 5.795 19.928,6.580 20.489,7.580 20.980 C 8.627 21.493,9.512 21.761,10.756 21.942 C 11.407 22.036,12.985 22.005,13.640 21.884 C 14.689 21.691,15.637 21.384,16.443 20.978 C 16.596 20.902,16.720 20.820,16.720 20.798 C 16.720 20.775,16.561 20.546,16.367 20.288 C 14.615 17.964,13.302 16.131,11.794 13.900 C 10.857 12.514,9.957 11.187,9.795 10.951 L 9.500 10.522 9.480 13.451 C 9.459 16.528,9.461 16.503,9.282 16.599 C 9.240 16.622,9.035 16.640,8.826 16.640 C 8.450 16.640,8.446 16.639,8.341 16.513 L 8.234 16.387 8.247 12.454 L 8.260 8.522 8.371 8.411 C 8.478 8.304,8.497 8.300,8.891 8.300 C 9.116 8.300,9.332 8.313,9.372 8.329 C 9.445 8.359,10.663 10.184,14.919 16.640 C 16.246 18.653,17.355 20.326,17.384 20.357 C 17.429 20.405,17.468 20.393,17.653 20.270 C 18.353 19.805,19.447 18.759,19.986 18.040 C 20.966 16.731,21.583 15.305,21.884 13.649 C 21.990 13.061,22.034 11.543,21.962 10.924 C 21.799 9.515,21.306 8.051,20.602 6.880 C 19.141 4.452,16.746 2.753,14.005 2.200 C 13.022 2.001,11.773 1.946,10.840 2.060 M15.509 8.103 C 15.559 8.135,15.608 8.201,15.620 8.251 C 15.632 8.300,15.637 9.916,15.631 11.842 L 15.620 15.345 15.010 14.409 L 14.400 13.474 14.403 11.047 C 14.405 9.712,14.419 8.525,14.436 8.408 C 14.471 8.160,14.539 8.080,14.747 8.037 C 14.957 7.993,15.401 8.031,15.509 8.103 " fill="#373B4D" stroke="none" fill-rule="evenodd"></path></svg>