<svg width="24" height="24" viewBox="0 0 24 24" fill="none" xmlns="http://www.w3.org/2000/svg"><path d="M10.077 2.198 C 9.364 2.348,8.994 2.453,8.460 2.659 C 6.897 3.263,5.519 4.243,4.336 5.592 C 3.233 6.850,2.323 8.868,2.098 10.554 C 1.959 11.601,1.987 13.047,2.164 13.875 C 2.387 14.919,2.667 15.715,3.118 16.586 C 3.611 17.537,4.151 18.273,4.919 19.040 C 5.776 19.896,6.560 20.462,7.580 20.962 C 8.294 21.312,8.868 21.521,9.700 21.732 C 10.589 21.958,10.727 21.970,12.142 21.950 C 13.257 21.935,13.475 21.921,13.855 21.844 C 14.640 21.684,15.943 21.243,16.486 20.954 L 16.721 20.828 16.648 20.704 C 16.607 20.636,16.163 20.022,15.660 19.340 C 13.972 17.051,13.298 16.090,10.660 12.220 C 10.180 11.516,9.729 10.863,9.658 10.770 L 9.528 10.599 9.505 10.870 C 9.493 11.018,9.471 12.148,9.458 13.380 C 9.433 15.690,9.399 16.497,9.326 16.570 C 9.303 16.593,9.107 16.620,8.891 16.631 C 8.509 16.649,8.494 16.647,8.369 16.541 L 8.240 16.433 8.245 13.906 C 8.249 12.517,8.262 10.725,8.275 9.925 L 8.300 8.469 8.439 8.395 C 8.538 8.342,8.662 8.320,8.864 8.320 C 9.260 8.320,9.369 8.349,9.461 8.479 C 9.504 8.540,11.288 11.208,13.425 14.406 C 15.562 17.603,17.346 20.253,17.391 20.293 C 17.466 20.359,17.483 20.361,17.586 20.306 C 17.880 20.150,18.851 19.289,19.402 18.695 C 20.326 17.698,21.046 16.470,21.495 15.120 C 21.893 13.928,22.034 12.869,21.979 11.500 C 21.853 8.413,20.201 5.487,17.600 3.741 C 16.625 3.087,15.591 2.614,14.541 2.341 C 13.709 2.125,13.549 2.109,12.040 2.096 L 10.620 2.084 10.077 2.198 M15.429 8.103 C 15.623 8.143,15.620 8.086,15.616 11.560 C 15.615 13.353,15.600 14.908,15.583 15.015 L 15.554 15.210 14.970 14.336 L 14.387 13.462 14.417 11.181 C 14.448 8.891,14.474 8.193,14.531 8.136 C 14.610 8.057,15.118 8.038,15.429 8.103 " fill="#373B4D" stroke="none" fill-rule="evenodd"></path></svg>