<svg width="24" height="24" viewBox="0 0 24 24" fill="none" xmlns="http://www.w3.org/2000/svg"><path d="M10.700 2.084 C 10.568 2.105,10.232 2.167,9.954 2.222 C 8.413 2.525,6.882 3.264,5.645 4.300 C 5.222 4.654,4.441 5.442,4.138 5.820 C 3.234 6.948,2.500 8.530,2.181 10.040 C 2.000 10.896,1.958 12.365,2.084 13.436 C 2.133 13.854,2.387 14.855,2.572 15.360 C 3.182 17.028,4.150 18.429,5.492 19.584 C 6.723 20.644,8.021 21.313,9.640 21.720 C 10.579 21.957,10.737 21.974,11.880 21.972 C 13.032 21.970,13.514 21.929,14.160 21.777 C 15.026 21.573,16.290 21.105,16.676 20.846 C 16.743 20.800,16.826 20.921,15.589 19.246 C 13.957 17.034,13.215 15.981,11.341 13.220 C 9.883 11.073,9.555 10.600,9.520 10.600 C 9.505 10.600,9.480 11.829,9.466 13.330 C 9.441 15.949,9.417 16.479,9.322 16.574 C 9.298 16.598,9.098 16.624,8.877 16.633 C 8.481 16.649,8.473 16.648,8.357 16.537 L 8.240 16.425 8.240 14.079 C 8.240 12.789,8.252 10.999,8.267 10.102 L 8.293 8.471 8.417 8.396 C 8.514 8.336,8.618 8.320,8.913 8.320 C 9.118 8.320,9.322 8.340,9.367 8.364 C 9.413 8.388,10.701 10.292,12.230 12.594 C 16.963 19.718,17.189 20.056,17.328 20.215 L 17.463 20.371 17.588 20.306 C 17.814 20.190,18.611 19.510,19.120 19.001 C 20.602 17.518,21.598 15.537,21.906 13.458 C 22.006 12.780,22.007 11.201,21.908 10.560 C 21.517 8.042,20.229 5.795,18.280 4.233 C 17.190 3.360,15.870 2.683,14.622 2.358 C 13.728 2.125,13.281 2.072,12.060 2.058 C 11.444 2.051,10.832 2.062,10.700 2.084 M15.535 8.157 C 15.619 8.242,15.620 8.258,15.631 10.411 C 15.637 11.604,15.628 13.183,15.611 13.920 L 15.580 15.260 14.990 14.367 L 14.400 13.475 14.403 11.907 C 14.407 10.132,14.454 8.294,14.499 8.190 C 14.544 8.084,14.745 8.040,15.115 8.057 C 15.391 8.069,15.464 8.087,15.535 8.157 " fill="#373B4D" stroke="none" fill-rule="evenodd"></path></svg>