<svg width="24" height="24" viewBox="0 0 24 24" fill="none" xmlns="http://www.w3.org/2000/svg"><path d="M11.200 3.035 C 10.983 3.083,9.903 3.648,6.540 5.471 C 3.483 7.128,3.335 7.221,3.123 7.647 L 3.000 7.893 3.000 11.996 L 3.001 16.100 3.095 16.303 C 3.291 16.723,3.544 16.914,4.789 17.579 C 6.070 18.263,6.467 18.400,7.163 18.399 C 8.114 18.398,8.722 18.072,9.064 17.380 C 9.180 17.144,9.208 17.034,9.240 16.680 C 9.260 16.449,9.278 14.575,9.279 12.515 C 9.280 9.080,9.275 8.765,9.214 8.715 C 9.168 8.677,8.998 8.656,8.663 8.646 C 8.225 8.634,8.169 8.640,8.079 8.713 L 7.980 8.793 7.960 12.713 L 7.940 16.633 7.819 16.807 C 7.592 17.133,7.226 17.231,6.721 17.100 C 6.258 16.980,5.457 16.615,4.736 16.195 L 4.333 15.960 4.307 14.490 C 4.273 12.602,4.272 9.018,4.306 8.466 L 4.332 8.040 5.276 7.524 C 7.250 6.445,11.451 4.200,11.497 4.200 C 11.545 4.200,15.895 6.522,17.764 7.546 L 18.668 8.041 18.694 8.466 C 18.727 9.012,18.721 15.192,18.686 15.634 L 18.660 15.967 16.840 16.946 C 15.839 17.484,14.264 18.335,13.340 18.838 C 12.416 19.340,11.621 19.763,11.573 19.777 C 11.483 19.804,11.086 19.617,10.060 19.061 C 9.796 18.918,9.532 18.801,9.473 18.801 C 9.353 18.800,8.418 19.205,8.326 19.297 C 8.278 19.345,8.276 19.368,8.317 19.416 C 8.381 19.494,8.980 19.842,9.940 20.362 C 10.909 20.886,11.077 20.959,11.378 20.987 C 11.840 21.030,11.862 21.020,15.440 19.088 C 19.509 16.892,19.691 16.778,19.917 16.279 C 19.997 16.103,19.998 16.033,19.999 11.998 L 20.000 7.896 19.894 7.683 C 19.748 7.389,19.558 7.206,19.152 6.968 C 18.014 6.300,13.856 4.042,12.558 3.387 C 11.932 3.071,11.833 3.033,11.600 3.020 C 11.457 3.011,11.277 3.018,11.200 3.035 M12.865 8.481 C 11.101 8.637,10.122 9.461,10.211 10.716 C 10.255 11.347,10.540 11.777,11.110 12.072 C 11.635 12.344,12.137 12.460,13.380 12.601 C 14.904 12.772,15.551 12.952,15.703 13.246 C 15.787 13.408,15.775 13.744,15.678 13.944 C 15.568 14.171,15.373 14.311,14.976 14.448 C 14.252 14.698,12.802 14.661,12.075 14.374 C 11.648 14.206,11.463 14.000,11.321 13.535 C 11.193 13.114,11.240 13.140,10.618 13.140 C 9.956 13.140,9.941 13.150,9.973 13.563 C 10.070 14.785,11.258 15.610,13.074 15.717 C 14.749 15.816,15.929 15.519,16.624 14.824 C 16.843 14.605,16.928 14.486,16.996 14.301 C 17.172 13.830,17.201 13.457,17.098 13.002 C 16.955 12.376,16.517 12.002,15.615 11.739 C 15.135 11.599,14.286 11.459,13.440 11.380 C 11.992 11.246,11.600 11.070,11.600 10.557 C 11.600 10.209,11.743 9.993,12.090 9.816 C 12.420 9.647,12.766 9.586,13.380 9.588 C 14.074 9.591,14.477 9.666,14.880 9.869 C 15.129 9.994,15.206 10.058,15.330 10.240 C 15.412 10.361,15.508 10.555,15.543 10.670 C 15.580 10.793,15.639 10.898,15.686 10.923 C 15.814 10.992,16.793 10.955,16.844 10.880 C 16.900 10.796,16.858 10.426,16.758 10.131 C 16.459 9.252,15.696 8.718,14.480 8.540 C 13.953 8.462,13.333 8.440,12.865 8.481 " fill="#373B4D" stroke="none" fill-rule="evenodd"></path></svg>