<svg width="24" height="24" viewBox="0 0 24 24" fill="none" xmlns="http://www.w3.org/2000/svg"><path d="M10.440 3.391 C 9.430 3.906,5.847 5.837,4.540 6.570 C 3.491 7.159,3.283 7.322,3.085 7.710 L 3.000 7.877 3.000 12.000 L 3.000 16.123 3.103 16.326 C 3.313 16.740,3.769 17.059,5.183 17.783 C 6.100 18.251,6.436 18.362,7.020 18.388 C 8.172 18.440,8.933 17.967,9.188 17.039 C 9.255 16.798,9.260 16.497,9.260 12.772 C 9.260 9.699,9.249 8.753,9.212 8.716 C 9.180 8.684,8.992 8.666,8.646 8.664 C 8.200 8.661,8.118 8.670,8.049 8.732 C 7.969 8.804,7.968 8.857,7.954 12.714 C 7.941 16.474,7.937 16.628,7.864 16.739 C 7.658 17.053,7.362 17.190,6.983 17.145 C 6.542 17.094,5.516 16.657,4.677 16.163 L 4.333 15.961 4.307 14.251 C 4.273 12.062,4.273 9.289,4.306 8.587 L 4.332 8.040 5.316 7.505 C 6.814 6.689,8.675 5.688,10.151 4.906 L 11.482 4.200 11.851 4.385 C 12.490 4.706,16.637 6.928,18.386 7.886 L 18.671 8.042 18.701 8.991 C 18.734 10.040,18.703 15.825,18.664 15.920 C 18.650 15.953,18.140 16.249,17.529 16.577 C 16.919 16.906,15.673 17.579,14.760 18.073 C 13.847 18.567,12.751 19.157,12.325 19.383 L 11.549 19.795 11.345 19.714 C 11.232 19.670,10.861 19.487,10.520 19.308 C 10.179 19.128,9.806 18.938,9.690 18.885 L 9.481 18.789 9.190 18.896 C 8.807 19.037,8.309 19.288,8.290 19.349 C 8.267 19.419,8.679 19.674,9.788 20.279 C 10.819 20.841,11.189 20.998,11.484 20.999 C 11.859 21.001,12.161 20.856,15.180 19.229 C 19.249 17.037,19.654 16.789,19.893 16.342 L 19.980 16.180 19.991 12.031 C 20.002 7.900,20.002 7.881,19.920 7.719 C 19.805 7.494,19.584 7.259,19.321 7.082 C 18.817 6.742,14.268 4.260,12.640 3.436 L 11.900 3.062 11.520 3.048 L 11.140 3.034 10.440 3.391 M12.408 8.544 C 10.888 8.799,10.050 9.689,10.232 10.857 C 10.310 11.362,10.510 11.680,10.922 11.955 C 11.399 12.274,11.978 12.428,13.345 12.600 C 15.268 12.843,15.698 12.995,15.749 13.447 C 15.796 13.869,15.550 14.230,15.100 14.398 C 14.644 14.568,14.283 14.611,13.500 14.589 C 12.177 14.551,11.604 14.303,11.365 13.664 C 11.318 13.539,11.280 13.415,11.280 13.387 C 11.280 13.360,11.252 13.298,11.218 13.249 C 11.159 13.165,11.128 13.160,10.621 13.160 C 10.015 13.160,9.960 13.183,9.961 13.433 C 9.961 13.514,9.988 13.693,10.020 13.831 C 10.252 14.813,11.203 15.480,12.653 15.677 C 13.117 15.741,14.313 15.731,14.750 15.660 C 15.242 15.580,15.801 15.396,16.117 15.211 C 16.497 14.988,16.893 14.578,16.997 14.299 C 17.213 13.720,17.201 13.144,16.963 12.660 C 16.809 12.346,16.606 12.165,16.180 11.959 C 15.647 11.701,14.955 11.555,13.434 11.382 C 12.495 11.275,12.141 11.202,11.897 11.066 C 11.477 10.833,11.513 10.198,11.963 9.898 C 12.317 9.661,12.531 9.620,13.400 9.621 C 14.272 9.622,14.443 9.654,14.927 9.907 C 15.219 10.060,15.331 10.190,15.502 10.580 C 15.667 10.957,15.673 10.960,16.116 10.958 C 16.595 10.955,16.799 10.920,16.855 10.831 C 16.887 10.779,16.881 10.677,16.830 10.432 C 16.604 9.337,15.783 8.712,14.324 8.524 C 13.867 8.464,12.814 8.476,12.408 8.544 " fill="#373B4D" stroke="none" fill-rule="evenodd"></path></svg>