<svg width="24" height="24" viewBox="0 0 24 24" fill="none" xmlns="http://www.w3.org/2000/svg"><path d="M11.120 3.047 C 11.011 3.071,9.514 3.858,7.305 5.053 C 3.379 7.178,3.345 7.199,3.132 7.632 L 3.020 7.860 3.020 12.000 L 3.020 16.140 3.107 16.329 C 3.282 16.706,3.500 16.881,4.415 17.377 C 6.080 18.278,6.420 18.406,7.160 18.411 C 8.073 18.417,8.714 18.086,9.040 17.440 C 9.283 16.959,9.279 17.040,9.279 12.712 L 9.280 8.765 9.191 8.702 C 9.122 8.654,8.991 8.640,8.611 8.640 C 8.173 8.640,8.111 8.649,8.040 8.720 C 7.961 8.799,7.960 8.853,7.960 12.682 C 7.960 16.465,7.958 16.567,7.881 16.718 C 7.707 17.059,7.362 17.220,6.946 17.154 C 6.463 17.079,5.461 16.637,4.620 16.129 L 4.300 15.935 4.290 12.013 C 4.282 8.905,4.290 8.082,4.330 8.049 C 4.476 7.931,11.424 4.200,11.499 4.200 C 11.574 4.200,18.527 7.932,18.670 8.049 C 18.709 8.081,18.720 8.920,18.720 12.000 C 18.720 15.080,18.709 15.919,18.670 15.950 C 18.643 15.972,17.756 16.454,16.700 17.021 C 14.108 18.411,13.477 18.753,12.464 19.318 C 11.988 19.583,11.557 19.800,11.506 19.800 C 11.455 19.800,10.985 19.563,10.462 19.273 C 9.596 18.793,9.502 18.750,9.406 18.789 C 9.348 18.813,9.129 18.907,8.920 18.997 C 8.204 19.305,8.184 19.325,8.410 19.493 C 8.670 19.686,10.826 20.856,11.054 20.927 C 11.368 21.025,11.683 21.018,12.000 20.906 C 12.143 20.856,13.853 19.949,15.800 18.893 C 19.613 16.823,19.659 16.794,19.868 16.368 L 19.980 16.140 19.980 12.000 L 19.980 7.860 19.868 7.632 C 19.802 7.497,19.671 7.328,19.548 7.217 C 19.244 6.944,12.169 3.109,11.851 3.045 C 11.590 2.993,11.372 2.993,11.120 3.047 M12.834 8.482 C 11.194 8.600,10.201 9.391,10.201 10.580 C 10.201 11.672,10.906 12.250,12.540 12.495 C 12.760 12.528,13.147 12.575,13.400 12.600 C 14.752 12.732,15.485 12.926,15.683 13.204 C 15.791 13.356,15.799 13.725,15.699 13.936 C 15.565 14.219,15.220 14.420,14.655 14.544 C 14.179 14.648,13.149 14.639,12.613 14.526 C 11.746 14.342,11.449 14.105,11.303 13.480 C 11.270 13.337,11.212 13.198,11.174 13.170 C 11.127 13.136,10.947 13.120,10.621 13.120 C 10.035 13.120,9.960 13.153,9.960 13.417 C 9.960 14.553,10.906 15.398,12.480 15.668 C 13.021 15.761,14.283 15.759,14.820 15.664 C 15.829 15.485,16.562 15.072,16.910 14.485 C 17.211 13.977,17.241 13.160,16.979 12.639 C 16.851 12.385,16.529 12.099,16.187 11.937 C 15.625 11.670,14.524 11.454,13.242 11.359 C 12.023 11.268,11.596 11.058,11.592 10.546 C 11.588 10.139,11.805 9.884,12.293 9.723 C 12.684 9.595,13.094 9.548,13.600 9.573 C 14.387 9.613,14.974 9.803,15.239 10.105 C 15.375 10.260,15.559 10.613,15.560 10.721 C 15.560 10.755,15.588 10.822,15.622 10.871 C 15.681 10.955,15.713 10.960,16.205 10.960 C 16.491 10.960,16.760 10.941,16.803 10.919 C 16.898 10.867,16.903 10.685,16.820 10.330 C 16.732 9.958,16.512 9.555,16.250 9.287 C 15.821 8.849,15.036 8.561,14.053 8.481 C 13.506 8.437,13.468 8.437,12.834 8.482 " fill="#373B4D" stroke="none" fill-rule="evenodd"></path></svg>