<svg width="24" height="24" viewBox="0 0 24 24" fill="none" xmlns="http://www.w3.org/2000/svg"><path d="M10.260 3.482 C 8.991 4.152,6.621 5.426,5.520 6.031 C 3.637 7.065,3.343 7.264,3.118 7.655 L 3.001 7.860 3.001 12.000 L 3.001 16.140 3.118 16.345 C 3.355 16.757,3.876 17.119,5.201 17.789 C 6.219 18.305,6.684 18.434,7.360 18.386 C 8.363 18.315,9.006 17.817,9.210 16.953 C 9.248 16.790,9.260 15.810,9.260 12.749 C 9.260 9.244,9.253 8.752,9.200 8.719 C 9.100 8.656,8.149 8.670,8.058 8.737 C 7.982 8.792,7.979 8.894,7.954 12.653 C 7.940 14.776,7.916 16.567,7.901 16.634 C 7.865 16.800,7.569 17.064,7.354 17.122 C 7.258 17.148,7.096 17.159,6.993 17.147 C 6.583 17.098,5.616 16.697,4.820 16.244 L 4.340 15.972 4.316 14.496 C 4.280 12.374,4.276 9.481,4.306 8.707 L 4.332 8.042 4.896 7.735 C 6.321 6.959,8.515 5.779,9.934 5.024 L 11.488 4.197 12.154 4.545 C 12.937 4.953,16.274 6.739,17.684 7.505 L 18.667 8.039 18.694 8.886 C 18.724 9.864,18.720 12.611,18.684 14.577 L 18.660 15.933 18.420 16.080 C 18.185 16.223,15.365 17.753,12.827 19.114 L 11.555 19.797 11.354 19.718 C 11.244 19.674,10.783 19.447,10.330 19.212 L 9.506 18.786 9.303 18.856 C 9.014 18.956,8.280 19.315,8.280 19.357 C 8.280 19.436,9.127 19.938,10.183 20.485 C 11.196 21.010,11.402 21.067,11.839 20.937 C 12.122 20.853,13.260 20.269,15.460 19.081 C 19.195 17.064,19.674 16.765,19.904 16.312 L 20.002 16.119 19.991 11.970 C 19.980 8.001,19.977 7.814,19.905 7.682 C 19.779 7.452,19.440 7.150,19.040 6.916 C 17.813 6.194,13.872 4.057,12.521 3.380 L 11.902 3.070 11.501 3.055 L 11.100 3.039 10.260 3.482 M12.660 8.520 C 11.359 8.638,10.408 9.323,10.232 10.270 C 10.137 10.783,10.318 11.405,10.659 11.737 C 11.134 12.199,11.756 12.394,13.480 12.621 C 15.393 12.874,15.804 13.054,15.744 13.614 C 15.678 14.223,15.110 14.543,14.016 14.589 C 13.102 14.627,12.264 14.501,11.872 14.265 C 11.601 14.103,11.436 13.880,11.321 13.524 C 11.269 13.361,11.198 13.220,11.157 13.198 C 11.050 13.141,10.200 13.151,10.080 13.212 C 9.952 13.276,9.932 13.467,10.019 13.810 C 10.214 14.580,10.797 15.146,11.719 15.460 C 12.329 15.667,12.591 15.700,13.640 15.700 C 14.704 15.700,14.895 15.674,15.592 15.438 C 16.026 15.291,16.226 15.170,16.566 14.849 C 16.882 14.550,17.020 14.313,17.102 13.925 C 17.175 13.581,17.174 13.352,17.098 13.058 C 16.958 12.517,16.747 12.255,16.251 12.006 C 15.673 11.715,15.184 11.605,13.540 11.398 C 12.144 11.221,11.918 11.157,11.711 10.877 C 11.414 10.476,11.778 9.858,12.408 9.694 C 12.710 9.616,14.105 9.620,14.412 9.700 C 14.965 9.844,15.256 10.074,15.479 10.542 C 15.569 10.731,15.675 10.896,15.725 10.923 C 15.837 10.983,16.664 10.954,16.790 10.886 C 16.904 10.824,16.905 10.710,16.797 10.319 C 16.609 9.642,16.245 9.201,15.625 8.900 C 14.894 8.545,13.856 8.412,12.660 8.520 " fill="#373B4D" stroke="none" fill-rule="evenodd"></path></svg>