<svg width="24" height="24" viewBox="0 0 24 24" fill="none" xmlns="http://www.w3.org/2000/svg"><path d="M9.720 3.770 C 6.294 5.595,4.263 6.713,3.735 7.063 C 3.382 7.297,3.205 7.474,3.080 7.720 C 3.001 7.874,3.000 7.952,3.000 12.000 C 3.000 16.104,3.000 16.124,3.084 16.287 C 3.272 16.657,3.760 17.026,4.780 17.569 C 5.466 17.935,5.970 18.163,6.362 18.286 C 6.602 18.362,6.749 18.380,7.120 18.379 C 8.203 18.379,8.866 17.970,9.164 17.118 L 9.255 16.860 9.257 12.827 C 9.260 8.839,9.259 8.793,9.180 8.733 C 9.115 8.684,9.003 8.676,8.590 8.690 C 8.309 8.699,8.066 8.720,8.050 8.737 C 7.992 8.795,7.967 9.521,7.959 11.440 C 7.954 12.507,7.939 14.121,7.925 15.027 C 7.901 16.616,7.897 16.678,7.816 16.787 C 7.687 16.960,7.386 17.129,7.170 17.150 C 6.817 17.182,5.837 16.808,4.874 16.272 L 4.368 15.991 4.345 15.685 C 4.303 15.129,4.270 10.311,4.300 9.167 L 4.329 8.042 5.915 7.185 C 6.787 6.713,8.397 5.848,9.493 5.262 L 11.487 4.198 12.073 4.505 C 12.937 4.958,16.462 6.845,17.645 7.487 L 18.670 8.043 18.699 9.387 C 18.729 10.729,18.699 15.122,18.656 15.668 L 18.633 15.957 18.327 16.133 C 17.916 16.370,16.605 17.081,13.848 18.566 L 11.557 19.800 11.308 19.696 C 11.172 19.639,10.713 19.412,10.288 19.192 C 9.665 18.869,9.496 18.797,9.408 18.818 C 9.258 18.855,8.280 19.327,8.280 19.363 C 8.280 19.444,9.745 20.285,10.625 20.708 C 11.179 20.975,11.429 21.033,11.730 20.966 C 12.065 20.891,13.515 20.145,16.700 18.409 C 18.253 17.563,19.198 17.006,19.529 16.742 C 19.659 16.640,19.812 16.469,19.881 16.350 L 20.003 16.140 19.990 12.000 C 19.979 8.323,19.971 7.844,19.914 7.720 C 19.831 7.537,19.526 7.239,19.200 7.022 C 18.688 6.682,14.632 4.466,12.820 3.538 L 11.940 3.087 11.520 3.061 L 11.100 3.035 9.720 3.770 M12.660 8.522 C 12.263 8.563,11.690 8.713,11.429 8.845 C 11.336 8.891,11.149 9.009,11.012 9.105 C 9.949 9.859,9.945 11.321,11.004 12.002 C 11.402 12.258,12.020 12.413,13.465 12.621 C 15.519 12.915,15.854 13.078,15.717 13.717 C 15.637 14.089,15.291 14.370,14.751 14.502 C 14.155 14.647,12.962 14.615,12.312 14.435 C 11.769 14.285,11.549 14.082,11.318 13.513 C 11.173 13.159,11.175 13.159,10.660 13.165 C 10.184 13.171,10.076 13.198,10.003 13.327 C 9.856 13.589,10.165 14.368,10.577 14.776 C 10.874 15.069,11.167 15.249,11.633 15.423 C 12.264 15.660,12.506 15.692,13.640 15.693 C 14.758 15.694,14.959 15.666,15.662 15.409 C 16.045 15.269,16.228 15.158,16.527 14.884 C 16.829 14.609,16.984 14.356,17.080 13.980 C 17.176 13.603,17.180 13.390,17.097 13.069 C 16.955 12.521,16.710 12.233,16.154 11.965 C 15.736 11.762,15.217 11.636,14.254 11.502 C 12.101 11.202,11.959 11.169,11.762 10.930 C 11.602 10.736,11.572 10.564,11.659 10.337 C 11.759 10.076,11.891 9.939,12.184 9.795 C 12.438 9.670,12.455 9.667,13.132 9.649 C 14.583 9.610,15.073 9.796,15.474 10.540 C 15.701 10.962,15.663 10.940,16.172 10.940 C 16.721 10.940,16.830 10.914,16.865 10.773 C 16.897 10.647,16.764 10.160,16.614 9.846 C 16.308 9.213,15.573 8.759,14.560 8.579 C 14.132 8.503,13.133 8.473,12.660 8.522 " fill="#373B4D" stroke="none" fill-rule="evenodd"></path></svg>