<svg width="24" height="24" viewBox="0 0 24 24" fill="none" xmlns="http://www.w3.org/2000/svg"><path d="M12.940 3.164 C 12.126 3.227,10.146 3.378,8.540 3.501 C 4.979 3.773,4.002 3.862,3.732 3.941 C 3.454 4.021,3.154 4.309,3.085 4.560 C 3.023 4.788,2.977 13.980,3.028 15.906 L 3.063 17.192 3.231 17.526 C 3.444 17.950,5.373 20.554,6.133 21.445 C 6.570 21.956,6.847 22.029,8.098 21.960 C 12.127 21.739,19.367 21.283,19.880 21.218 C 20.200 21.178,20.432 21.079,20.636 20.896 C 21.013 20.557,20.981 21.267,20.976 13.560 C 20.973 8.531,20.960 6.737,20.926 6.614 C 20.865 6.396,20.817 6.356,19.429 5.368 C 16.757 3.466,16.304 3.171,15.920 3.083 C 15.618 3.014,14.496 3.045,12.940 3.164 M15.452 4.120 C 15.902 4.164,16.065 4.226,16.506 4.524 C 17.176 4.975,18.440 5.939,18.440 5.999 C 18.440 6.065,17.875 6.107,12.800 6.419 C 7.595 6.738,6.981 6.764,6.716 6.674 C 6.508 6.603,6.113 6.336,5.540 5.879 C 4.645 5.165,4.512 5.007,4.733 4.922 C 4.878 4.868,5.429 4.812,7.340 4.661 C 9.361 4.500,14.689 4.099,14.980 4.086 C 15.024 4.084,15.237 4.099,15.452 4.120 M19.516 7.431 C 19.571 7.472,19.631 7.562,19.649 7.631 C 19.667 7.699,19.676 10.413,19.671 13.662 L 19.660 19.569 19.525 19.682 C 19.340 19.836,19.157 19.870,18.160 19.940 C 16.625 20.047,9.964 20.433,8.201 20.518 C 7.263 20.563,7.153 20.546,6.911 20.316 L 6.757 20.169 6.768 14.275 C 6.775 11.033,6.795 8.350,6.813 8.312 C 6.910 8.117,7.105 8.079,8.520 7.979 C 10.843 7.814,19.002 7.326,19.198 7.340 C 19.327 7.349,19.456 7.386,19.516 7.431 M16.920 9.422 C 15.109 9.544,15.031 9.565,14.862 9.969 C 14.754 10.228,14.781 10.246,15.394 10.326 L 15.773 10.376 15.746 12.765 C 15.732 14.079,15.709 15.183,15.695 15.217 C 15.680 15.259,15.068 14.347,13.894 12.530 C 12.916 11.018,12.100 9.765,12.082 9.746 C 12.046 9.710,10.960 9.766,9.867 9.861 C 9.191 9.919,9.013 9.974,8.870 10.166 C 8.773 10.295,8.714 10.554,8.761 10.643 C 8.812 10.738,8.870 10.753,9.279 10.784 L 9.640 10.811 9.640 14.443 L 9.640 18.075 9.294 18.181 C 8.861 18.313,8.709 18.444,8.728 18.669 L 8.740 18.820 8.960 18.833 C 9.211 18.847,10.962 18.734,11.372 18.677 C 11.521 18.657,11.714 18.604,11.800 18.560 C 11.950 18.483,12.160 18.235,12.160 18.134 C 12.160 18.073,11.921 17.988,11.430 17.875 L 11.040 17.784 11.042 15.242 C 11.044 13.844,11.057 12.633,11.072 12.551 L 11.100 12.403 11.726 13.391 C 14.868 18.356,14.899 18.403,15.210 18.569 C 15.355 18.646,15.440 18.660,15.780 18.659 C 16.197 18.658,16.465 18.592,16.880 18.388 L 17.060 18.300 17.070 14.235 L 17.080 10.170 17.329 10.121 C 17.705 10.048,17.868 9.950,17.918 9.770 C 17.941 9.688,17.960 9.580,17.960 9.531 C 17.960 9.443,17.852 9.356,17.753 9.365 C 17.724 9.368,17.349 9.394,16.920 9.422 " fill="#373B4D" stroke="none" fill-rule="evenodd"></path></svg>