<svg width="24" height="24" viewBox="0 0 24 24" fill="none" xmlns="http://www.w3.org/2000/svg"><path d="M14.180 3.084 C 13.828 3.104,12.010 3.238,10.140 3.381 C 3.461 3.892,3.658 3.869,3.323 4.203 C 3.058 4.469,3.070 4.353,3.030 6.880 C 3.010 8.145,3.001 10.971,3.009 13.160 L 3.025 17.140 3.173 17.420 C 3.522 18.077,5.795 21.127,6.307 21.625 C 6.407 21.722,6.581 21.834,6.711 21.885 C 7.095 22.036,7.545 22.018,14.900 21.559 C 18.480 21.335,19.745 21.245,20.000 21.195 C 20.397 21.117,20.839 20.809,20.897 20.570 C 20.979 20.235,21.008 16.956,20.975 11.920 C 20.945 7.283,20.932 6.568,20.880 6.486 C 20.721 6.237,16.819 3.486,16.219 3.199 C 15.962 3.077,15.926 3.071,15.385 3.059 C 15.074 3.052,14.532 3.063,14.180 3.084 M15.406 4.121 C 15.762 4.156,15.865 4.184,16.140 4.320 C 16.619 4.557,18.479 5.937,18.411 6.005 C 18.342 6.074,17.418 6.142,12.520 6.440 C 8.890 6.660,7.771 6.720,7.256 6.720 C 6.844 6.720,6.796 6.712,6.576 6.601 C 6.315 6.470,5.589 5.936,5.073 5.496 C 4.731 5.205,4.596 5.028,4.663 4.961 C 4.750 4.874,5.506 4.803,9.740 4.479 C 11.192 4.368,12.929 4.235,13.600 4.184 C 14.271 4.132,14.859 4.087,14.906 4.085 C 14.953 4.082,15.178 4.098,15.406 4.121 M19.450 7.403 C 19.667 7.501,19.657 7.304,19.670 11.640 C 19.677 13.851,19.668 16.550,19.651 17.638 L 19.620 19.617 19.489 19.705 C 19.416 19.754,19.265 19.814,19.152 19.838 C 18.813 19.911,16.797 20.043,11.540 20.339 C 7.027 20.593,7.246 20.593,6.930 20.334 L 6.747 20.184 6.772 14.278 C 6.786 11.030,6.809 8.342,6.824 8.305 C 6.864 8.200,7.035 8.130,7.370 8.084 C 7.849 8.017,10.625 7.837,17.520 7.425 C 18.669 7.356,19.331 7.348,19.450 7.403 M16.668 9.441 C 15.122 9.559,15.036 9.583,14.869 9.957 L 14.790 10.135 14.873 10.203 C 14.927 10.246,15.106 10.290,15.364 10.322 L 15.771 10.374 15.741 12.715 C 15.725 14.003,15.699 15.090,15.683 15.132 C 15.654 15.213,14.924 14.130,13.038 11.206 L 12.100 9.751 11.340 9.774 C 10.530 9.799,9.428 9.893,9.205 9.958 C 8.909 10.044,8.760 10.238,8.760 10.537 C 8.760 10.720,8.821 10.750,9.274 10.784 L 9.640 10.811 9.640 14.444 L 9.640 18.077 9.370 18.158 C 8.958 18.283,8.787 18.395,8.744 18.567 C 8.685 18.803,8.722 18.840,9.009 18.840 C 9.314 18.840,10.375 18.775,10.980 18.719 C 11.611 18.660,11.794 18.599,11.997 18.378 C 12.090 18.278,12.158 18.174,12.150 18.148 C 12.124 18.070,11.968 18.010,11.491 17.893 L 11.040 17.784 11.040 15.622 C 11.040 13.179,11.065 12.406,11.141 12.488 C 11.168 12.516,11.753 13.431,12.441 14.520 C 13.838 16.733,14.695 18.047,14.910 18.310 C 15.137 18.586,15.309 18.656,15.760 18.655 C 16.161 18.655,16.514 18.571,16.880 18.389 L 17.060 18.300 17.070 14.238 L 17.080 10.177 17.365 10.110 C 17.711 10.029,17.829 9.956,17.903 9.778 C 17.977 9.602,17.975 9.501,17.897 9.423 C 17.824 9.350,17.890 9.349,16.668 9.441 " fill="#373B4D" stroke="none" fill-rule="evenodd"></path></svg>