<svg width="24" height="24" viewBox="0 0 24 24" fill="none" xmlns="http://www.w3.org/2000/svg"><path d="M9.440 3.422 C 5.378 3.728,3.924 3.850,3.760 3.901 C 3.595 3.951,3.489 4.020,3.338 4.175 C 2.973 4.548,3.000 4.017,3.000 10.864 C 3.000 17.500,2.983 17.065,3.261 17.621 C 3.416 17.931,5.911 21.242,6.249 21.588 C 6.524 21.868,6.764 21.967,7.220 21.988 C 7.642 22.007,19.815 21.261,20.072 21.200 C 20.495 21.099,20.731 20.916,20.896 20.560 L 20.980 20.380 20.991 13.567 C 21.003 5.751,21.045 6.559,20.608 6.220 C 19.919 5.685,16.581 3.340,16.340 3.222 C 16.019 3.064,15.678 2.999,15.220 3.005 C 15.044 3.008,12.443 3.195,9.440 3.422 M15.781 4.142 C 15.912 4.176,16.094 4.245,16.184 4.296 C 16.459 4.450,18.391 5.879,18.418 5.949 C 18.431 5.984,18.429 6.027,18.411 6.044 C 18.394 6.060,15.841 6.229,12.737 6.417 C 6.742 6.782,6.867 6.778,6.501 6.600 C 6.303 6.504,4.661 5.193,4.627 5.104 C 4.592 5.013,4.629 4.939,4.738 4.881 C 4.840 4.827,14.418 4.094,15.142 4.085 C 15.391 4.082,15.634 4.104,15.781 4.142 M19.459 7.377 C 19.537 7.409,19.626 7.491,19.667 7.567 C 19.737 7.694,19.740 7.972,19.740 13.540 C 19.740 19.351,19.740 19.381,19.658 19.540 C 19.601 19.651,19.521 19.728,19.396 19.790 C 19.223 19.877,19.002 19.893,13.418 20.223 C 10.229 20.411,7.527 20.556,7.413 20.546 C 7.132 20.520,6.939 20.420,6.831 20.246 L 6.740 20.100 6.740 14.253 L 6.740 8.406 6.823 8.293 C 7.015 8.033,6.645 8.069,13.120 7.683 C 16.387 7.489,19.119 7.327,19.191 7.325 C 19.263 7.322,19.384 7.346,19.459 7.377 M16.550 9.440 C 15.939 9.479,15.377 9.523,15.301 9.537 C 15.119 9.571,14.900 9.782,14.847 9.973 C 14.772 10.243,14.783 10.250,15.376 10.318 C 15.572 10.340,15.738 10.365,15.746 10.373 C 15.754 10.381,15.756 11.513,15.750 12.890 L 15.740 15.392 14.341 13.226 C 13.572 12.035,12.743 10.753,12.498 10.379 L 12.054 9.697 10.657 9.791 C 9.413 9.874,9.240 9.894,9.080 9.972 C 8.872 10.074,8.720 10.323,8.720 10.564 C 8.720 10.728,8.772 10.758,9.060 10.760 C 9.148 10.760,9.314 10.772,9.430 10.786 L 9.640 10.811 9.640 14.444 L 9.640 18.077 9.350 18.160 C 8.910 18.287,8.841 18.322,8.778 18.444 C 8.746 18.505,8.720 18.620,8.720 18.698 L 8.720 18.840 8.930 18.839 C 9.446 18.835,11.555 18.680,11.692 18.635 C 11.944 18.553,12.260 18.126,12.129 18.046 C 12.106 18.032,11.852 17.968,11.564 17.904 L 11.040 17.787 11.040 15.047 C 11.040 13.540,11.047 12.314,11.055 12.323 C 11.064 12.333,11.874 13.617,12.856 15.179 C 13.925 16.879,14.732 18.120,14.868 18.274 C 15.159 18.604,15.354 18.696,15.760 18.696 C 16.089 18.697,16.465 18.597,16.840 18.410 L 17.060 18.300 17.070 14.236 L 17.080 10.172 17.417 10.102 C 17.853 10.010,17.938 9.930,17.939 9.608 L 17.940 9.380 17.800 9.374 C 17.723 9.371,17.160 9.401,16.550 9.440 " fill="#373B4D" stroke="none" fill-rule="evenodd"></path></svg>