<svg width="24" height="24" viewBox="0 0 24 24" fill="none" xmlns="http://www.w3.org/2000/svg"><path d="M14.580 3.043 C 14.338 3.063,13.267 3.143,12.200 3.221 C 9.029 3.453,5.642 3.715,4.680 3.804 C 3.679 3.896,3.605 3.917,3.315 4.199 C 3.160 4.349,3.119 4.421,3.074 4.620 C 3.030 4.816,3.020 5.964,3.020 10.900 C 3.020 16.577,3.024 16.956,3.091 17.200 C 3.131 17.343,3.219 17.552,3.287 17.665 C 3.563 18.122,5.792 21.076,6.216 21.547 C 6.584 21.956,6.871 22.022,8.011 21.961 C 10.760 21.813,17.248 21.414,19.077 21.281 C 20.101 21.206,20.142 21.200,20.382 21.082 C 20.648 20.951,20.794 20.794,20.924 20.500 C 21.002 20.324,21.003 20.221,20.989 13.551 C 20.978 8.293,20.963 6.738,20.925 6.592 C 20.875 6.408,20.858 6.392,20.047 5.806 C 18.955 5.017,16.761 3.482,16.487 3.316 C 16.368 3.243,16.174 3.152,16.055 3.112 C 15.789 3.022,15.174 2.993,14.580 3.043 M15.933 4.194 C 16.185 4.283,16.602 4.563,17.641 5.343 C 18.339 5.868,18.471 5.982,18.429 6.024 C 18.393 6.061,17.751 6.107,14.360 6.318 C 7.729 6.731,7.066 6.763,6.734 6.683 C 6.513 6.630,5.942 6.224,5.100 5.521 C 4.391 4.930,4.407 4.908,5.605 4.799 C 6.629 4.706,11.700 4.316,13.360 4.202 C 14.009 4.157,14.621 4.114,14.720 4.105 C 15.107 4.070,15.705 4.114,15.933 4.194 M19.434 7.382 C 19.519 7.416,19.614 7.491,19.644 7.548 C 19.691 7.636,19.700 8.590,19.700 13.558 C 19.700 19.183,19.697 19.469,19.628 19.574 C 19.532 19.720,19.349 19.827,19.146 19.856 C 18.856 19.897,17.358 19.994,13.860 20.199 C 8.941 20.488,7.466 20.563,7.314 20.534 C 7.120 20.497,6.984 20.420,6.865 20.278 L 6.760 20.154 6.760 14.262 C 6.760 8.416,6.761 8.370,6.841 8.268 C 6.885 8.212,6.979 8.147,7.051 8.123 C 7.260 8.054,8.292 7.977,11.900 7.761 C 13.770 7.649,16.137 7.506,17.160 7.443 C 18.183 7.381,19.078 7.328,19.149 7.325 C 19.220 7.322,19.348 7.348,19.434 7.382 M17.500 9.387 C 16.614 9.432,15.360 9.530,15.257 9.563 C 15.021 9.637,14.760 10.009,14.825 10.179 C 14.851 10.245,14.922 10.263,15.390 10.323 L 15.760 10.370 15.755 12.155 C 15.752 13.137,15.739 14.252,15.725 14.634 L 15.700 15.327 13.884 12.518 L 12.067 9.709 11.564 9.737 C 10.857 9.775,9.533 9.875,9.329 9.904 C 8.990 9.954,8.747 10.205,8.743 10.508 C 8.739 10.734,8.762 10.746,9.290 10.783 L 9.640 10.807 9.640 14.442 L 9.640 18.077 9.350 18.162 C 8.816 18.320,8.720 18.405,8.720 18.726 C 8.720 18.840,8.721 18.840,8.979 18.840 C 9.286 18.840,10.878 18.733,11.353 18.680 C 11.733 18.638,11.910 18.549,12.061 18.327 C 12.235 18.071,12.223 18.061,11.600 17.916 L 11.040 17.786 11.040 15.064 C 11.040 12.782,11.049 12.352,11.094 12.401 C 11.123 12.434,11.685 13.315,12.341 14.360 C 13.892 16.829,14.719 18.102,14.919 18.330 C 15.151 18.592,15.354 18.680,15.734 18.680 C 16.104 18.680,16.447 18.598,16.800 18.427 L 17.060 18.300 17.070 14.237 L 17.080 10.174 17.391 10.107 C 17.767 10.026,17.864 9.964,17.918 9.769 C 17.986 9.524,17.972 9.413,17.870 9.385 C 17.820 9.372,17.771 9.364,17.760 9.368 C 17.749 9.372,17.632 9.381,17.500 9.387 " fill="#373B4D" stroke="none" fill-rule="evenodd"></path></svg>