<svg width="24" height="24" viewBox="0 0 24 24" fill="none" xmlns="http://www.w3.org/2000/svg"><path d="M13.300 3.145 C 12.904 3.175,11.158 3.308,9.420 3.441 C 4.839 3.790,3.947 3.876,3.614 4.002 C 3.445 4.065,3.165 4.357,3.117 4.519 C 3.045 4.765,3.004 7.589,3.002 12.411 L 3.000 17.083 3.105 17.291 C 3.450 17.976,5.577 20.852,6.220 21.504 C 6.682 21.973,6.702 21.978,7.998 21.948 C 9.013 21.925,10.090 21.864,14.960 21.559 C 18.129 21.361,19.715 21.246,19.964 21.199 C 20.223 21.150,20.590 20.959,20.755 20.787 C 20.875 20.661,20.894 20.611,20.924 20.333 C 20.984 19.786,21.009 14.072,20.969 10.270 C 20.933 6.956,20.923 6.591,20.863 6.499 C 20.770 6.356,20.298 5.991,19.140 5.163 C 17.787 4.196,16.559 3.376,16.221 3.214 L 15.942 3.080 14.981 3.085 C 14.453 3.088,13.696 3.114,13.300 3.145 M15.366 4.122 C 15.993 4.184,16.376 4.393,17.680 5.383 C 18.255 5.819,18.428 5.978,18.369 6.014 C 18.262 6.080,17.097 6.166,12.580 6.439 C 7.552 6.743,6.995 6.765,6.714 6.664 C 6.351 6.535,4.914 5.434,4.716 5.135 C 4.614 4.980,4.618 4.969,4.790 4.924 C 5.076 4.849,5.763 4.790,11.780 4.322 C 15.342 4.045,14.864 4.071,15.366 4.122 M19.487 7.418 C 19.524 7.433,19.567 7.476,19.583 7.513 C 19.649 7.664,19.684 11.157,19.658 15.080 C 19.643 17.379,19.620 19.349,19.606 19.457 C 19.582 19.643,19.569 19.660,19.397 19.746 C 19.123 19.882,18.654 19.925,15.080 20.139 C 10.810 20.394,8.258 20.524,7.716 20.512 L 7.132 20.500 6.946 20.347 L 6.760 20.195 6.764 17.247 C 6.767 15.626,6.780 12.944,6.794 11.287 C 6.819 8.399,6.823 8.271,6.895 8.219 C 7.060 8.098,7.571 8.047,10.460 7.861 C 11.811 7.774,17.462 7.430,18.260 7.386 C 18.656 7.365,19.407 7.384,19.487 7.418 M16.660 9.443 C 15.175 9.563,15.024 9.606,14.873 9.946 C 14.803 10.105,14.800 10.137,14.850 10.187 C 14.907 10.244,15.432 10.356,15.655 10.359 L 15.770 10.360 15.745 12.330 C 15.730 13.413,15.708 14.485,15.694 14.711 C 15.673 15.074,15.663 15.116,15.609 15.071 C 15.528 15.004,14.127 12.896,13.003 11.150 L 12.108 9.760 11.841 9.760 C 11.430 9.760,10.151 9.840,9.654 9.897 C 9.377 9.929,9.151 9.978,9.058 10.026 C 8.785 10.168,8.660 10.573,8.852 10.698 C 8.904 10.733,9.092 10.770,9.292 10.785 L 9.640 10.812 9.640 14.443 L 9.640 18.073 9.310 18.183 C 8.920 18.313,8.720 18.480,8.720 18.675 C 8.720 18.775,8.740 18.804,8.825 18.825 C 9.069 18.886,11.242 18.723,11.600 18.617 C 11.760 18.570,11.867 18.503,11.990 18.375 C 12.083 18.278,12.160 18.181,12.160 18.160 C 12.160 18.094,11.954 18.013,11.486 17.895 L 11.031 17.780 11.047 15.200 C 11.057 13.567,11.077 12.594,11.103 12.550 C 11.136 12.492,11.307 12.737,12.082 13.961 C 13.490 16.185,14.580 17.866,14.820 18.185 C 15.107 18.567,15.257 18.640,15.754 18.640 C 16.167 18.640,16.509 18.566,16.840 18.406 L 17.060 18.300 17.070 14.236 L 17.080 10.173 17.310 10.122 C 17.650 10.046,17.836 9.938,17.903 9.779 C 17.979 9.597,17.975 9.506,17.887 9.426 C 17.801 9.349,17.839 9.348,16.660 9.443 " fill="#373B4D" stroke="none" fill-rule="evenodd"></path></svg>