<svg width="24" height="24" viewBox="0 0 24 24" fill="none" xmlns="http://www.w3.org/2000/svg"><path d="M13.800 3.123 C 13.108 3.157,6.840 3.637,5.440 3.763 C 3.814 3.909,3.561 3.964,3.312 4.226 C 3.085 4.466,3.079 4.508,3.039 6.313 C 3.019 7.230,3.002 10.028,3.001 12.531 L 3.000 17.083 3.100 17.279 C 3.465 18.000,5.556 20.818,6.260 21.538 C 6.679 21.967,6.731 21.979,8.040 21.947 C 9.151 21.919,9.703 21.889,14.040 21.619 C 17.233 21.421,19.016 21.300,19.606 21.240 C 20.241 21.177,20.695 20.952,20.857 20.622 C 20.927 20.478,20.937 20.316,20.970 18.703 C 21.009 16.847,20.975 8.334,20.925 7.192 C 20.900 6.614,20.886 6.512,20.819 6.439 C 20.496 6.082,16.853 3.533,16.200 3.206 L 15.947 3.080 15.184 3.086 C 14.764 3.090,14.141 3.106,13.800 3.123 M15.620 4.163 C 15.929 4.219,16.492 4.518,17.068 4.933 C 17.802 5.461,18.360 5.912,18.360 5.976 C 18.360 6.045,18.239 6.063,17.300 6.138 C 15.576 6.275,8.855 6.673,7.740 6.705 C 6.747 6.732,6.740 6.731,6.166 6.334 C 5.444 5.835,4.640 5.135,4.640 5.005 C 4.640 4.894,4.960 4.860,9.300 4.520 C 11.451 4.352,13.797 4.169,14.620 4.106 C 14.866 4.087,15.352 4.115,15.620 4.163 M19.537 7.463 C 19.572 7.497,19.601 7.529,19.603 7.533 C 19.604 7.537,19.621 8.615,19.639 9.929 C 19.657 11.244,19.658 13.949,19.641 15.940 C 19.607 20.005,19.638 19.656,19.305 19.778 C 18.985 19.895,18.257 19.955,14.460 20.179 C 10.854 20.392,9.151 20.480,8.120 20.507 L 7.180 20.531 6.964 20.360 L 6.748 20.188 6.774 15.004 C 6.804 9.307,6.823 8.303,6.905 8.221 C 7.043 8.083,7.633 8.036,14.980 7.582 C 18.067 7.391,19.430 7.356,19.537 7.463 M16.880 9.424 C 15.870 9.506,15.289 9.588,15.126 9.670 C 14.971 9.749,14.787 10.040,14.827 10.143 C 14.854 10.215,15.178 10.311,15.505 10.345 L 15.760 10.371 15.758 11.076 C 15.755 12.484,15.685 15.011,15.648 15.048 C 15.594 15.102,14.517 13.506,12.683 10.650 L 12.112 9.760 11.866 9.760 C 11.140 9.761,9.510 9.897,9.213 9.981 C 8.904 10.070,8.714 10.331,8.777 10.581 C 8.809 10.711,8.933 10.757,9.327 10.788 L 9.640 10.812 9.640 14.443 L 9.640 18.073 9.386 18.158 C 9.038 18.274,8.769 18.450,8.735 18.585 C 8.690 18.764,8.759 18.818,9.044 18.833 C 9.356 18.849,10.447 18.776,11.100 18.696 C 11.658 18.627,11.862 18.544,12.047 18.312 C 12.165 18.162,12.170 18.146,12.105 18.099 C 12.035 18.047,11.189 17.800,11.084 17.800 C 11.035 17.800,11.031 17.426,11.052 15.214 C 11.066 13.757,11.093 12.611,11.113 12.591 C 11.165 12.539,11.302 12.739,12.457 14.553 C 13.022 15.440,13.738 16.556,14.048 17.033 C 15.096 18.643,15.129 18.671,15.897 18.629 C 16.291 18.607,16.546 18.542,16.900 18.375 L 17.060 18.299 17.070 14.238 L 17.080 10.178 17.363 10.105 C 17.706 10.016,17.905 9.861,17.945 9.650 C 17.967 9.530,17.957 9.494,17.881 9.433 C 17.780 9.351,17.783 9.351,16.880 9.424 " fill="#373B4D" stroke="none" fill-rule="evenodd"></path></svg>