<svg width="24" height="24" viewBox="0 0 24 24" fill="none" xmlns="http://www.w3.org/2000/svg"><path d="M10.920 2.026 C 10.037 2.111,9.352 2.244,8.680 2.461 C 6.429 3.190,4.581 4.655,3.359 6.680 C 2.735 7.715,2.291 8.964,2.093 10.240 C 1.994 10.882,1.994 12.318,2.093 12.960 C 2.333 14.508,2.877 15.873,3.751 17.120 L 3.990 17.460 3.461 18.000 C 2.868 18.606,2.760 18.796,2.760 19.234 C 2.760 19.599,2.858 19.824,3.137 20.102 C 3.503 20.465,3.917 20.567,4.405 20.412 C 4.592 20.353,4.694 20.272,5.187 19.788 L 5.754 19.232 6.230 19.550 C 7.485 20.389,8.734 20.874,10.240 21.107 C 10.882 21.206,12.318 21.206,12.960 21.107 C 14.773 20.826,16.439 20.073,17.820 18.908 C 19.337 17.629,20.452 15.814,20.933 13.840 C 21.126 13.050,21.178 12.572,21.178 11.600 C 21.178 10.630,21.126 10.150,20.935 9.368 C 20.646 8.183,20.208 7.199,19.509 6.168 L 19.230 5.756 19.787 5.188 C 20.272 4.694,20.353 4.592,20.412 4.405 C 20.567 3.916,20.465 3.502,20.102 3.138 C 19.829 2.865,19.583 2.760,19.217 2.760 C 18.797 2.760,18.599 2.874,18.003 3.461 L 17.466 3.989 17.043 3.699 C 15.633 2.734,14.109 2.189,12.400 2.041 C 11.968 2.003,11.235 1.996,10.920 2.026 M12.326 4.442 C 13.165 4.528,13.923 4.741,14.680 5.104 C 15.147 5.328,15.720 5.663,15.720 5.713 C 15.720 5.748,5.748 15.720,5.713 15.720 C 5.663 15.720,5.328 15.147,5.104 14.680 C 4.376 13.162,4.211 11.442,4.636 9.796 C 4.902 8.763,5.403 7.794,6.102 6.960 C 7.614 5.156,9.972 4.202,12.326 4.442 M17.695 7.770 C 18.510 9.080,18.897 10.660,18.767 12.153 C 18.681 13.145,18.487 13.867,18.083 14.705 C 17.162 16.617,15.531 17.980,13.493 18.541 C 11.572 19.069,9.504 18.770,7.805 17.717 L 7.470 17.510 12.485 12.495 C 15.243 9.737,17.503 7.480,17.507 7.480 C 17.511 7.480,17.596 7.611,17.695 7.770 " fill="#373B4D" stroke="none" fill-rule="evenodd"></path></svg>