<svg width="24" height="24" viewBox="0 0 24 24" fill="none" xmlns="http://www.w3.org/2000/svg"><path d="M10.618 2.078 C 9.162 2.210,7.586 2.775,6.320 3.618 C 4.087 5.105,2.624 7.346,2.138 10.020 C 2.046 10.532,2.003 11.499,2.040 12.232 C 2.119 13.760,2.657 15.396,3.545 16.800 C 3.691 17.031,3.845 17.277,3.887 17.346 L 3.963 17.471 3.537 17.926 C 2.843 18.667,2.725 18.908,2.799 19.434 C 2.841 19.727,2.939 19.899,3.193 20.123 C 3.566 20.453,3.930 20.549,4.315 20.422 C 4.564 20.339,4.809 20.151,5.345 19.630 L 5.751 19.236 6.145 19.492 C 7.548 20.399,8.904 20.910,10.480 21.125 C 11.036 21.201,12.318 21.191,12.880 21.106 C 15.054 20.778,16.963 19.816,18.422 18.314 C 19.697 17.001,20.488 15.562,20.958 13.701 C 21.116 13.077,21.176 12.275,21.150 11.160 C 21.132 10.439,21.112 10.218,21.023 9.793 C 20.767 8.565,20.302 7.438,19.567 6.264 L 19.244 5.748 19.704 5.266 C 20.211 4.734,20.379 4.506,20.444 4.263 C 20.565 3.814,20.274 3.204,19.809 2.932 C 19.658 2.843,19.565 2.821,19.280 2.807 C 18.988 2.793,18.909 2.804,18.771 2.874 C 18.553 2.986,18.084 3.369,17.746 3.712 L 17.472 3.990 17.009 3.694 C 16.502 3.370,15.478 2.838,14.952 2.626 C 14.527 2.455,13.802 2.266,13.160 2.160 C 12.594 2.066,11.232 2.023,10.618 2.078 M12.460 4.485 C 12.906 4.535,13.385 4.643,13.877 4.806 C 14.278 4.939,15.688 5.630,15.710 5.704 C 15.726 5.758,5.934 15.518,5.783 15.598 C 5.641 15.675,5.620 15.650,5.310 15.040 C 4.982 14.396,4.787 13.903,4.630 13.324 C 4.505 12.865,4.504 12.848,4.489 11.752 C 4.473 10.503,4.499 10.271,4.748 9.500 C 5.010 8.688,5.417 7.888,5.874 7.280 C 6.164 6.895,6.895 6.164,7.280 5.874 C 7.867 5.432,8.843 4.937,9.540 4.728 C 10.513 4.437,11.386 4.364,12.460 4.485 M17.707 7.830 C 18.107 8.484,18.414 9.235,18.603 10.020 C 18.677 10.328,18.692 10.534,18.709 11.446 C 18.726 12.419,18.720 12.551,18.641 12.963 C 18.464 13.892,18.089 14.782,17.515 15.644 C 17.069 16.313,16.290 17.100,15.660 17.519 C 13.970 18.642,12.062 19.031,10.166 18.638 C 9.394 18.479,8.397 18.086,7.767 17.693 L 7.471 17.509 11.546 13.431 C 15.368 9.605,17.447 7.560,17.513 7.560 C 17.529 7.560,17.616 7.681,17.707 7.830 " fill="#373B4D" stroke="none" fill-rule="evenodd"></path></svg>