<svg width="24" height="24" viewBox="0 0 24 24" fill="none" xmlns="http://www.w3.org/2000/svg"><path d="M10.760 2.043 C 9.368 2.197,8.272 2.523,7.127 3.123 C 5.113 4.177,3.507 5.962,2.685 8.060 C 2.174 9.363,1.959 10.658,2.021 12.060 C 2.097 13.778,2.666 15.494,3.648 16.963 L 3.984 17.466 3.476 17.991 C 2.853 18.637,2.780 18.768,2.781 19.240 C 2.782 19.649,2.861 19.830,3.169 20.125 C 3.524 20.465,3.975 20.563,4.419 20.397 C 4.602 20.328,4.739 20.219,5.197 19.776 L 5.753 19.238 6.226 19.548 C 8.013 20.719,9.974 21.270,12.040 21.181 C 14.400 21.079,16.697 20.065,18.381 18.381 C 19.615 17.147,20.473 15.620,20.920 13.863 C 21.123 13.065,21.171 12.630,21.171 11.600 C 21.171 10.600,21.124 10.155,20.939 9.404 C 20.640 8.191,20.245 7.292,19.534 6.207 L 19.237 5.753 19.776 5.197 C 20.226 4.732,20.328 4.604,20.401 4.411 C 20.569 3.963,20.459 3.515,20.089 3.139 C 19.869 2.915,19.639 2.802,19.342 2.772 C 18.872 2.723,18.544 2.908,17.846 3.612 L 17.471 3.990 16.966 3.652 C 16.405 3.277,15.373 2.752,14.820 2.559 C 14.267 2.367,13.619 2.210,13.012 2.122 C 12.368 2.028,11.247 1.988,10.760 2.043 M12.263 4.443 C 13.353 4.549,14.359 4.882,15.346 5.462 L 15.724 5.685 15.565 5.872 C 15.477 5.976,13.225 8.238,10.560 10.900 C 5.939 15.516,5.712 15.736,5.655 15.660 C 5.515 15.474,5.151 14.790,4.984 14.400 C 4.036 12.183,4.280 9.630,5.633 7.600 C 7.088 5.418,9.667 4.190,12.263 4.443 M17.829 8.012 C 18.451 9.089,18.765 10.256,18.771 11.520 C 18.777 12.793,18.546 13.791,17.995 14.866 C 17.265 16.292,16.159 17.378,14.740 18.061 C 13.782 18.522,12.920 18.740,11.880 18.787 C 10.456 18.850,8.965 18.446,7.706 17.656 L 7.472 17.509 12.486 12.493 C 17.345 7.633,17.502 7.481,17.560 7.564 C 17.593 7.611,17.714 7.813,17.829 8.012 " fill="#373B4D" stroke="none" fill-rule="evenodd"></path></svg>