<svg width="24" height="24" viewBox="0 0 24 24" fill="none" xmlns="http://www.w3.org/2000/svg"><path d="M10.200 2.122 C 8.015 2.471,6.210 3.403,4.700 4.964 C 3.230 6.483,2.377 8.265,2.072 10.460 C 2.007 10.930,2.008 12.276,2.075 12.760 C 2.295 14.366,2.824 15.739,3.767 17.148 C 3.873 17.307,3.960 17.448,3.960 17.462 C 3.960 17.476,3.747 17.710,3.487 17.982 C 2.893 18.604,2.787 18.788,2.783 19.199 C 2.780 19.623,2.864 19.819,3.176 20.110 C 3.480 20.394,3.763 20.503,4.106 20.468 C 4.449 20.432,4.636 20.313,5.214 19.757 L 5.754 19.238 6.124 19.480 C 7.215 20.197,8.275 20.663,9.440 20.937 C 11.986 21.538,14.692 21.051,16.871 19.599 C 17.476 19.196,17.807 18.929,18.297 18.449 C 19.703 17.070,20.616 15.368,21.048 13.324 C 21.165 12.768,21.198 10.895,21.102 10.240 C 20.904 8.890,20.382 7.530,19.583 6.286 L 19.240 5.751 19.758 5.213 C 20.049 4.910,20.313 4.597,20.362 4.497 C 20.566 4.074,20.480 3.587,20.132 3.200 C 19.868 2.906,19.616 2.788,19.240 2.784 C 18.969 2.780,18.915 2.794,18.681 2.920 C 18.511 3.012,18.258 3.219,17.943 3.523 L 17.464 3.987 16.982 3.671 C 16.309 3.229,15.101 2.639,14.505 2.461 C 13.909 2.282,13.189 2.138,12.623 2.083 C 11.940 2.016,10.739 2.035,10.200 2.122 M12.104 4.442 C 13.145 4.525,13.944 4.754,14.911 5.243 C 15.257 5.418,15.585 5.596,15.640 5.640 L 15.740 5.718 10.900 10.551 C 8.238 13.210,5.974 15.454,5.869 15.538 C 5.636 15.725,5.678 15.764,5.265 14.960 C 4.929 14.306,4.738 13.789,4.575 13.095 C 4.468 12.642,4.463 12.574,4.462 11.620 C 4.462 10.728,4.472 10.574,4.553 10.200 C 4.758 9.254,5.140 8.355,5.685 7.537 C 6.087 6.932,6.932 6.087,7.537 5.685 C 8.686 4.920,9.899 4.505,11.220 4.426 C 11.330 4.420,11.458 4.411,11.504 4.407 C 11.550 4.403,11.820 4.419,12.104 4.442 M17.741 7.870 C 18.230 8.697,18.514 9.470,18.686 10.440 C 18.757 10.839,18.757 12.351,18.685 12.777 C 18.365 14.693,17.225 16.476,15.639 17.540 C 13.984 18.651,12.015 19.041,10.120 18.633 C 9.327 18.463,8.420 18.100,7.767 17.693 L 7.471 17.509 11.906 13.071 C 16.156 8.817,17.437 7.560,17.520 7.560 C 17.541 7.560,17.640 7.700,17.741 7.870 " fill="#373B4D" stroke="none" fill-rule="evenodd"></path></svg>