<svg width="24" height="24" viewBox="0 0 24 24" fill="none" xmlns="http://www.w3.org/2000/svg"><path d="M9.162 5.102 C 8.672 5.238,8.604 5.339,6.791 8.580 C 3.357 14.721,2.070 17.116,2.018 17.457 C 1.985 17.678,2.042 17.964,2.170 18.217 C 2.287 18.450,2.621 18.783,2.852 18.899 L 3.056 19.000 5.178 18.997 C 6.345 18.996,7.687 18.980,8.160 18.962 C 8.973 18.931,9.041 18.922,9.398 18.803 C 10.191 18.539,10.719 18.211,11.300 17.623 C 11.828 17.089,11.848 17.055,14.380 12.540 C 15.034 11.374,15.586 10.402,15.607 10.380 C 15.687 10.298,15.836 10.549,17.799 14.077 C 19.204 16.601,19.265 16.719,19.193 16.765 C 19.164 16.784,18.348 16.801,17.380 16.805 C 16.412 16.808,15.344 16.822,15.008 16.835 L 14.395 16.860 13.877 17.808 C 13.593 18.329,13.355 18.795,13.350 18.845 C 13.342 18.920,13.366 18.940,13.500 18.969 C 13.588 18.988,15.307 18.998,17.320 18.992 C 20.962 18.980,20.981 18.980,21.160 18.895 C 21.780 18.601,22.114 17.792,21.884 17.141 C 21.754 16.771,19.259 12.221,17.553 9.240 C 16.565 7.514,16.595 7.555,16.200 7.366 C 16.014 7.276,15.928 7.260,15.640 7.262 C 15.013 7.265,14.809 7.430,14.243 8.386 C 14.036 8.735,13.730 9.252,13.562 9.535 C 13.395 9.819,13.241 10.053,13.221 10.055 C 13.175 10.061,13.031 9.818,12.030 8.040 C 10.547 5.407,10.463 5.284,10.063 5.147 C 9.773 5.049,9.417 5.030,9.162 5.102 M9.792 8.472 C 9.880 8.619,10.411 9.564,10.973 10.570 L 11.995 12.401 11.215 13.789 C 10.384 15.267,10.111 15.709,9.847 16.005 C 9.615 16.265,9.191 16.543,8.839 16.667 L 8.540 16.771 6.650 16.791 C 5.103 16.807,4.760 16.802,4.760 16.758 C 4.760 16.690,5.232 15.825,7.400 11.920 C 9.498 8.141,9.517 8.108,9.584 8.163 C 9.611 8.186,9.705 8.325,9.792 8.472 " fill="#373B4D" stroke="none" fill-rule="evenodd"></path></svg>