<svg width="24" height="24" viewBox="0 0 24 24" fill="none" xmlns="http://www.w3.org/2000/svg"><path d="M9.082 5.119 C 8.637 5.284,8.618 5.313,6.592 8.940 C 3.943 13.682,2.231 16.828,2.079 17.232 C 1.979 17.498,1.979 17.685,2.080 18.006 C 2.198 18.384,2.501 18.725,2.899 18.929 C 3.055 19.009,3.099 19.010,5.939 18.989 C 8.659 18.969,8.837 18.964,9.121 18.888 C 10.110 18.624,10.882 18.147,11.542 17.390 C 11.804 17.090,12.184 16.457,13.300 14.460 C 14.594 12.147,15.560 10.434,15.617 10.352 C 15.675 10.270,15.781 10.450,17.570 13.660 C 19.197 16.580,19.280 16.735,19.227 16.769 C 19.201 16.785,18.404 16.799,17.456 16.799 C 16.508 16.800,15.435 16.812,15.070 16.826 L 14.407 16.852 13.878 17.809 C 13.586 18.335,13.340 18.806,13.330 18.857 C 13.314 18.940,13.331 18.950,13.526 18.974 C 13.644 18.988,15.365 18.999,17.352 19.000 C 21.418 19.000,21.034 19.029,21.464 18.689 C 21.852 18.382,22.062 17.773,21.940 17.307 C 21.867 17.026,21.800 16.894,20.929 15.300 C 19.086 11.928,16.930 8.099,16.654 7.708 C 16.468 7.444,16.045 7.240,15.685 7.240 C 15.203 7.241,14.921 7.375,14.645 7.734 C 14.558 7.847,14.209 8.426,13.870 9.020 C 13.531 9.614,13.237 10.097,13.217 10.094 C 13.183 10.089,12.753 9.340,11.520 7.140 C 10.866 5.973,10.605 5.541,10.460 5.392 C 10.159 5.080,9.525 4.955,9.082 5.119 M9.849 8.561 C 9.982 8.792,10.519 9.750,11.043 10.690 L 11.995 12.400 11.251 13.730 C 10.842 14.462,10.408 15.222,10.286 15.420 C 9.884 16.075,9.390 16.495,8.800 16.686 C 8.555 16.765,8.430 16.771,6.667 16.790 C 5.615 16.801,4.780 16.795,4.761 16.775 C 4.726 16.738,4.853 16.504,7.551 11.640 C 9.456 8.207,9.511 8.110,9.568 8.129 C 9.590 8.137,9.716 8.331,9.849 8.561 " fill="#373B4D" stroke="none" fill-rule="evenodd"></path></svg>