<svg width="24" height="24" viewBox="0 0 24 24" fill="none" xmlns="http://www.w3.org/2000/svg"><path d="M9.001 5.147 C 8.584 5.355,8.694 5.181,6.639 8.860 C 3.704 14.113,2.102 17.063,2.038 17.327 C 1.893 17.934,2.241 18.599,2.865 18.904 L 3.080 19.009 5.950 18.990 C 8.721 18.971,8.831 18.968,9.140 18.885 C 10.175 18.609,10.973 18.105,11.594 17.332 C 11.906 16.945,12.097 16.618,13.780 13.600 C 15.050 11.323,15.641 10.280,15.662 10.280 C 15.697 10.280,19.280 16.702,19.280 16.766 C 19.280 16.785,18.401 16.800,17.326 16.800 C 16.252 16.800,15.156 16.812,14.892 16.826 L 14.411 16.852 13.830 17.896 C 13.287 18.871,13.255 18.942,13.334 18.966 C 13.381 18.980,15.113 18.994,17.182 18.996 L 20.944 19.000 21.162 18.892 C 21.677 18.636,21.973 18.167,21.978 17.600 C 21.981 17.226,21.978 17.220,20.861 15.180 C 18.665 11.167,16.805 7.869,16.608 7.638 C 16.535 7.552,16.364 7.428,16.223 7.359 C 16.003 7.250,15.927 7.234,15.648 7.234 C 15.244 7.234,15.011 7.329,14.760 7.596 C 14.564 7.805,14.374 8.116,13.694 9.338 C 13.449 9.779,13.234 10.137,13.217 10.134 C 13.200 10.131,12.751 9.348,12.221 8.394 C 10.869 5.966,10.607 5.521,10.435 5.354 C 10.103 5.032,9.427 4.934,9.001 5.147 M10.802 10.252 L 11.995 12.401 11.354 13.550 C 10.259 15.518,10.090 15.792,9.798 16.082 C 9.522 16.354,9.152 16.576,8.760 16.704 C 8.564 16.768,8.331 16.777,6.630 16.790 C 5.469 16.800,4.720 16.791,4.720 16.768 C 4.720 16.737,8.475 9.954,9.281 8.529 C 9.421 8.281,9.552 8.084,9.572 8.091 C 9.593 8.098,10.146 9.070,10.802 10.252 " fill="#373B4D" stroke="none" fill-rule="evenodd"></path></svg>