<svg width="24" height="24" viewBox="0 0 24 24" fill="none" xmlns="http://www.w3.org/2000/svg"><path d="M7.260 2.638 C 6.104 2.663,6.094 2.666,5.711 3.049 C 5.437 3.323,5.033 3.858,4.897 4.127 L 4.800 4.317 4.800 9.352 C 4.800 12.121,4.788 15.466,4.774 16.784 L 4.747 19.182 4.467 19.341 C 4.136 19.529,3.820 19.822,3.738 20.018 C 3.643 20.247,3.663 20.630,3.784 20.872 C 3.894 21.093,4.140 21.335,4.344 21.423 C 4.579 21.524,5.269 21.565,7.102 21.588 L 8.944 21.611 9.116 21.415 C 9.459 21.026,9.518 20.801,9.618 19.500 C 9.756 17.708,9.778 17.565,9.946 17.306 C 10.146 17.000,10.428 16.949,12.372 16.875 L 13.604 16.828 13.746 16.964 C 14.134 17.336,14.214 17.578,14.301 18.639 C 14.484 20.889,14.511 21.034,14.797 21.293 C 15.040 21.512,15.339 21.561,16.600 21.588 C 17.860 21.615,19.372 21.549,19.589 21.459 C 20.084 21.252,20.385 20.695,20.302 20.142 C 20.280 19.990,20.238 19.923,20.060 19.749 C 19.942 19.634,19.712 19.459,19.549 19.360 L 19.253 19.181 19.227 11.745 L 19.200 4.308 19.059 4.055 C 18.870 3.717,18.508 3.267,18.218 3.008 C 17.846 2.677,17.851 2.678,15.820 2.639 C 13.930 2.603,8.898 2.602,7.260 2.638 M10.800 7.200 L 10.800 8.400 9.600 8.400 L 8.400 8.400 8.400 7.200 L 8.400 6.000 9.600 6.000 L 10.800 6.000 10.800 7.200 M15.600 7.200 L 15.600 8.400 14.400 8.400 L 13.200 8.400 13.200 7.200 L 13.200 6.000 14.400 6.000 L 15.600 6.000 15.600 7.200 M10.800 12.000 L 10.800 13.200 9.600 13.200 L 8.400 13.200 8.400 12.000 L 8.400 10.800 9.600 10.800 L 10.800 10.800 10.800 12.000 M15.600 12.000 L 15.600 13.200 14.400 13.200 L 13.200 13.200 13.200 12.000 L 13.200 10.800 14.400 10.800 L 15.600 10.800 15.600 12.000 " fill="#373B4D" stroke="none" fill-rule="evenodd"></path></svg>