<svg width="24" height="24" viewBox="0 0 24 24" fill="none" xmlns="http://www.w3.org/2000/svg"><path d="M7.340 2.477 C 6.411 2.502,6.391 2.507,5.963 2.798 C 5.492 3.118,5.147 3.540,4.919 4.076 L 4.800 4.356 4.800 11.770 L 4.800 19.185 4.603 19.235 C 4.236 19.329,3.864 19.625,3.717 19.940 C 3.632 20.120,3.615 20.528,3.682 20.768 C 3.739 20.975,4.004 21.295,4.223 21.424 C 4.401 21.528,4.440 21.534,5.234 21.569 C 5.688 21.589,6.690 21.599,7.460 21.593 C 8.731 21.581,8.874 21.573,9.010 21.505 C 9.185 21.419,9.470 21.095,9.517 20.929 C 9.535 20.866,9.562 20.465,9.577 20.037 C 9.640 18.189,9.678 17.669,9.763 17.495 C 9.865 17.283,10.080 17.063,10.292 16.952 C 10.454 16.868,10.512 16.864,12.004 16.848 L 13.548 16.831 13.825 17.032 C 14.315 17.388,14.328 17.442,14.400 19.500 C 14.424 20.182,14.459 20.808,14.478 20.891 C 14.521 21.083,14.681 21.293,14.889 21.431 C 15.051 21.538,15.056 21.538,16.076 21.571 C 16.639 21.589,17.649 21.592,18.320 21.579 C 19.686 21.550,19.692 21.549,19.987 21.255 C 20.263 20.979,20.339 20.796,20.340 20.400 C 20.340 20.099,20.327 20.036,20.224 19.850 C 20.160 19.734,20.048 19.594,19.975 19.539 C 19.814 19.416,19.366 19.200,19.272 19.200 C 19.208 19.200,19.203 18.735,19.192 11.790 L 19.180 4.380 19.076 4.096 C 18.848 3.472,18.314 2.896,17.707 2.618 C 17.515 2.530,17.436 2.522,16.600 2.502 C 15.248 2.470,8.302 2.451,7.340 2.477 M10.800 7.200 L 10.800 8.400 9.600 8.400 L 8.400 8.400 8.400 7.200 L 8.400 6.000 9.600 6.000 L 10.800 6.000 10.800 7.200 M15.600 7.200 L 15.600 8.400 14.400 8.400 L 13.200 8.400 13.200 7.200 L 13.200 6.000 14.400 6.000 L 15.600 6.000 15.600 7.200 M10.800 12.000 L 10.800 13.200 9.600 13.200 L 8.400 13.200 8.400 12.000 L 8.400 10.800 9.600 10.800 L 10.800 10.800 10.800 12.000 M15.600 12.000 L 15.600 13.200 14.400 13.200 L 13.200 13.200 13.200 12.000 L 13.200 10.800 14.400 10.800 L 15.600 10.800 15.600 12.000 " fill="#373B4D" stroke="none" fill-rule="evenodd"></path></svg>