<svg width="24" height="24" viewBox="0 0 24 24" fill="none" xmlns="http://www.w3.org/2000/svg"><path d="M6.476 2.638 C 6.298 2.657,6.151 2.701,6.027 2.774 C 5.731 2.947,5.126 3.675,4.886 4.148 L 4.800 4.317 4.800 9.928 C 4.800 13.015,4.788 16.360,4.774 17.363 L 4.747 19.186 4.526 19.302 C 4.207 19.469,3.931 19.699,3.797 19.911 C 3.698 20.067,3.680 20.136,3.680 20.358 C 3.681 20.760,3.737 20.903,3.998 21.164 C 4.176 21.343,4.276 21.408,4.444 21.457 C 4.739 21.542,5.993 21.598,7.627 21.599 L 8.954 21.600 9.156 21.373 C 9.482 21.007,9.524 20.820,9.640 19.200 C 9.729 17.958,9.773 17.608,9.860 17.440 C 9.979 17.209,10.124 17.081,10.333 17.021 C 10.566 16.953,11.391 16.897,12.720 16.857 L 13.620 16.830 13.832 17.055 C 14.211 17.456,14.238 17.572,14.361 19.320 C 14.407 19.969,14.471 20.617,14.504 20.760 C 14.614 21.242,14.822 21.434,15.325 21.520 C 15.981 21.632,19.120 21.602,19.561 21.480 C 19.750 21.428,20.095 21.117,20.194 20.910 C 20.295 20.699,20.339 20.385,20.301 20.134 C 20.277 19.972,20.240 19.912,20.042 19.722 C 19.915 19.600,19.686 19.428,19.532 19.341 L 19.253 19.182 19.225 11.742 L 19.196 4.301 19.052 4.041 C 18.857 3.691,18.623 3.391,18.307 3.089 C 17.884 2.684,17.844 2.674,16.601 2.636 C 15.330 2.598,6.852 2.600,6.476 2.638 M10.800 7.200 L 10.800 8.400 9.600 8.400 L 8.400 8.400 8.400 7.200 L 8.400 6.000 9.600 6.000 L 10.800 6.000 10.800 7.200 M15.600 7.200 L 15.600 8.400 14.400 8.400 L 13.200 8.400 13.200 7.200 L 13.200 6.000 14.400 6.000 L 15.600 6.000 15.600 7.200 M10.800 12.000 L 10.800 13.200 9.600 13.200 L 8.400 13.200 8.400 12.000 L 8.400 10.800 9.600 10.800 L 10.800 10.800 10.800 12.000 M15.600 12.000 L 15.600 13.200 14.400 13.200 L 13.200 13.200 13.200 12.000 L 13.200 10.800 14.400 10.800 L 15.600 10.800 15.600 12.000 " fill="#373B4D" stroke="none" fill-rule="evenodd"></path></svg>