<svg width="24" height="24" viewBox="0 0 24 24" fill="none" xmlns="http://www.w3.org/2000/svg"><path d="M7.320 2.599 C 6.118 2.624,6.129 2.621,5.703 3.050 C 5.372 3.383,5.141 3.685,4.941 4.051 L 4.800 4.307 4.800 10.487 C 4.800 13.886,4.788 17.234,4.774 17.926 L 4.747 19.185 4.455 19.336 C 4.102 19.518,3.738 19.885,3.697 20.101 C 3.683 20.178,3.678 20.365,3.687 20.517 C 3.700 20.757,3.722 20.821,3.850 21.007 C 4.013 21.242,4.189 21.377,4.449 21.468 C 4.658 21.542,6.036 21.596,7.765 21.598 L 8.949 21.600 9.137 21.399 C 9.481 21.031,9.528 20.839,9.620 19.420 C 9.726 17.777,9.762 17.537,9.946 17.291 C 10.144 17.026,10.310 16.970,11.020 16.924 C 11.372 16.901,12.095 16.871,12.627 16.856 L 13.593 16.829 13.853 17.085 C 14.229 17.453,14.253 17.565,14.380 19.540 C 14.453 20.665,14.491 20.899,14.643 21.138 C 14.876 21.505,15.128 21.562,16.660 21.588 C 17.999 21.612,19.407 21.551,19.624 21.461 C 19.801 21.387,20.137 21.070,20.217 20.901 C 20.305 20.715,20.343 20.211,20.282 20.027 C 20.221 19.841,19.853 19.505,19.509 19.322 L 19.250 19.184 19.222 11.742 L 19.193 4.300 19.053 4.040 C 18.861 3.685,18.633 3.386,18.334 3.098 C 17.945 2.722,17.815 2.673,17.123 2.637 C 16.402 2.600,8.716 2.570,7.320 2.599 M10.800 7.200 L 10.800 8.400 9.600 8.400 L 8.400 8.400 8.400 7.200 L 8.400 6.000 9.600 6.000 L 10.800 6.000 10.800 7.200 M15.600 7.200 L 15.600 8.400 14.400 8.400 L 13.200 8.400 13.200 7.200 L 13.200 6.000 14.400 6.000 L 15.600 6.000 15.600 7.200 M10.800 12.000 L 10.800 13.200 9.600 13.200 L 8.400 13.200 8.400 12.000 L 8.400 10.800 9.600 10.800 L 10.800 10.800 10.800 12.000 M15.600 12.000 L 15.600 13.200 14.400 13.200 L 13.200 13.200 13.200 12.000 L 13.200 10.800 14.400 10.800 L 15.600 10.800 15.600 12.000 " fill="#373B4D" stroke="none" fill-rule="evenodd"></path></svg>