<svg width="24" height="24" viewBox="0 0 24 24" fill="none" xmlns="http://www.w3.org/2000/svg"><path d="M7.640 2.559 C 6.193 2.584,6.263 2.572,5.860 2.888 C 5.510 3.163,5.152 3.620,4.905 4.109 L 4.800 4.317 4.800 11.759 C 4.800 17.685,4.790 19.200,4.750 19.200 C 4.649 19.200,4.215 19.435,4.050 19.579 C 3.698 19.885,3.574 20.271,3.694 20.686 C 3.774 20.961,3.943 21.197,4.175 21.357 C 4.464 21.555,4.724 21.576,6.968 21.578 L 8.957 21.580 9.142 21.400 C 9.500 21.052,9.530 20.921,9.619 19.359 C 9.721 17.561,9.737 17.476,10.008 17.215 C 10.103 17.124,10.221 17.028,10.271 17.003 C 10.413 16.930,11.078 16.884,12.380 16.857 L 13.580 16.833 13.811 17.024 C 14.224 17.366,14.282 17.586,14.360 19.100 C 14.418 20.250,14.472 20.823,14.535 20.973 C 14.614 21.163,14.790 21.353,14.970 21.445 C 15.182 21.553,15.797 21.597,17.100 21.598 C 18.354 21.599,19.477 21.539,19.660 21.463 C 19.837 21.389,20.149 21.075,20.223 20.898 C 20.300 20.714,20.337 20.335,20.302 20.097 C 20.277 19.932,20.240 19.872,20.043 19.680 C 19.903 19.543,19.705 19.403,19.533 19.321 L 19.253 19.186 19.227 14.566 C 19.212 12.026,19.200 8.685,19.200 7.143 L 19.199 4.340 19.099 4.124 C 18.925 3.750,18.646 3.373,18.330 3.081 C 17.880 2.666,17.801 2.637,17.028 2.598 C 16.205 2.557,9.360 2.529,7.640 2.559 M10.800 7.200 L 10.800 8.400 9.600 8.400 L 8.400 8.400 8.400 7.200 L 8.400 6.000 9.600 6.000 L 10.800 6.000 10.800 7.200 M15.600 7.200 L 15.600 8.400 14.400 8.400 L 13.200 8.400 13.200 7.200 L 13.200 6.000 14.400 6.000 L 15.600 6.000 15.600 7.200 M10.800 12.000 L 10.800 13.200 9.600 13.200 L 8.400 13.200 8.400 12.000 L 8.400 10.800 9.600 10.800 L 10.800 10.800 10.800 12.000 M15.600 12.000 L 15.600 13.200 14.400 13.200 L 13.200 13.200 13.200 12.000 L 13.200 10.800 14.400 10.800 L 15.600 10.800 15.600 12.000 " fill="#373B4D" stroke="none" fill-rule="evenodd"></path></svg>