<svg width="24" height="24" viewBox="0 0 24 24" fill="none" xmlns="http://www.w3.org/2000/svg"><path d="M7.460 2.439 C 6.629 2.462,6.566 2.469,6.333 2.567 C 5.686 2.841,5.169 3.385,4.928 4.045 L 4.820 4.340 4.809 11.767 L 4.798 19.193 4.629 19.222 C 4.256 19.284,3.883 19.566,3.711 19.916 C 3.580 20.181,3.583 20.625,3.717 20.897 C 3.841 21.148,4.077 21.384,4.314 21.494 C 4.497 21.579,4.534 21.580,6.680 21.580 L 8.860 21.580 9.054 21.485 C 9.242 21.392,9.442 21.171,9.529 20.960 C 9.553 20.902,9.583 20.191,9.602 19.270 C 9.632 17.740,9.636 17.673,9.722 17.496 C 9.836 17.260,10.030 17.066,10.280 16.940 L 10.477 16.840 12.000 16.840 L 13.523 16.840 13.719 16.939 C 13.961 17.062,14.170 17.273,14.285 17.510 C 14.369 17.685,14.373 17.748,14.391 19.276 C 14.412 21.056,14.405 21.010,14.724 21.319 C 14.998 21.585,14.947 21.580,17.340 21.580 C 19.466 21.580,19.503 21.579,19.686 21.494 C 19.924 21.384,20.157 21.150,20.280 20.898 C 20.414 20.624,20.417 20.181,20.286 19.914 C 20.114 19.564,19.745 19.284,19.371 19.222 L 19.202 19.193 19.191 11.767 L 19.180 4.340 19.072 4.045 C 18.823 3.363,18.237 2.771,17.580 2.537 C 17.422 2.481,17.183 2.460,16.440 2.437 C 15.340 2.403,8.742 2.404,7.460 2.439 M10.800 7.200 L 10.800 8.400 9.600 8.400 L 8.400 8.400 8.400 7.200 L 8.400 6.000 9.600 6.000 L 10.800 6.000 10.800 7.200 M15.600 7.200 L 15.600 8.400 14.400 8.400 L 13.200 8.400 13.200 7.200 L 13.200 6.000 14.400 6.000 L 15.600 6.000 15.600 7.200 M10.800 12.000 L 10.800 13.200 9.600 13.200 L 8.400 13.200 8.400 12.000 L 8.400 10.800 9.600 10.800 L 10.800 10.800 10.800 12.000 M15.600 12.000 L 15.600 13.200 14.400 13.200 L 13.200 13.200 13.200 12.000 L 13.200 10.800 14.400 10.800 L 15.600 10.800 15.600 12.000 " fill="#373B4D" stroke="none" fill-rule="evenodd"></path></svg>