<svg width="24" height="24" viewBox="0 0 24 24" fill="none" xmlns="http://www.w3.org/2000/svg"><path d="M6.583 2.523 C 5.992 2.613,5.231 3.334,4.903 4.113 L 4.800 4.358 4.800 11.771 L 4.800 19.184 4.576 19.252 C 4.158 19.381,3.773 19.728,3.680 20.060 C 3.616 20.289,3.644 20.699,3.738 20.892 C 3.837 21.097,4.129 21.391,4.308 21.466 C 4.401 21.505,4.699 21.541,5.137 21.567 C 6.025 21.619,8.820 21.591,8.969 21.529 C 9.095 21.475,9.383 21.189,9.458 21.042 C 9.539 20.884,9.556 20.701,9.601 19.520 C 9.675 17.597,9.702 17.450,10.042 17.143 C 10.335 16.878,10.325 16.879,12.016 16.852 L 13.546 16.827 13.763 16.989 C 13.882 17.078,14.020 17.193,14.068 17.246 C 14.287 17.483,14.332 17.789,14.400 19.540 C 14.423 20.134,14.452 20.694,14.465 20.784 C 14.513 21.133,14.808 21.461,15.127 21.523 C 15.416 21.579,18.007 21.611,18.824 21.568 C 19.675 21.524,19.736 21.507,20.008 21.228 C 20.250 20.980,20.334 20.763,20.335 20.380 C 20.336 20.128,20.318 20.025,20.250 19.895 C 20.128 19.662,19.838 19.422,19.522 19.292 L 19.252 19.182 19.226 18.561 C 19.212 18.219,19.200 14.905,19.200 11.196 C 19.200 4.609,19.198 4.447,19.122 4.225 C 18.923 3.649,18.540 3.152,18.031 2.814 C 17.536 2.485,17.976 2.508,12.080 2.497 C 9.063 2.491,6.719 2.502,6.583 2.523 M10.800 7.200 L 10.800 8.400 9.600 8.400 L 8.400 8.400 8.400 7.200 L 8.400 6.000 9.600 6.000 L 10.800 6.000 10.800 7.200 M15.600 7.200 L 15.600 8.400 14.400 8.400 L 13.200 8.400 13.200 7.200 L 13.200 6.000 14.400 6.000 L 15.600 6.000 15.600 7.200 M10.800 12.000 L 10.800 13.200 9.600 13.200 L 8.400 13.200 8.400 12.000 L 8.400 10.800 9.600 10.800 L 10.800 10.800 10.800 12.000 M15.600 12.000 L 15.600 13.200 14.400 13.200 L 13.200 13.200 13.200 12.000 L 13.200 10.800 14.400 10.800 L 15.600 10.800 15.600 12.000 " fill="#373B4D" stroke="none" fill-rule="evenodd"></path></svg>