<svg width="24" height="24" viewBox="0 0 24 24" fill="none" xmlns="http://www.w3.org/2000/svg"><path d="M6.560 2.596 C 6.395 2.612,6.201 2.656,6.128 2.695 C 5.780 2.878,5.169 3.585,4.905 4.109 L 4.800 4.317 4.800 11.069 C 4.800 14.782,4.788 18.126,4.774 18.500 L 4.748 19.180 4.470 19.317 C 4.154 19.471,3.854 19.744,3.740 19.980 C 3.645 20.176,3.640 20.594,3.731 20.800 C 3.915 21.216,4.208 21.447,4.640 21.518 C 4.784 21.542,5.804 21.572,6.920 21.586 L 8.940 21.611 9.152 21.386 C 9.500 21.016,9.526 20.903,9.620 19.360 C 9.697 18.085,9.744 17.667,9.835 17.462 C 9.912 17.288,10.146 17.059,10.309 16.996 C 10.462 16.938,11.261 16.887,12.481 16.857 L 13.583 16.830 13.814 17.041 C 14.252 17.441,14.252 17.443,14.401 19.820 C 14.459 20.748,14.500 20.968,14.655 21.171 C 14.849 21.425,15.061 21.512,15.600 21.559 C 16.539 21.641,19.193 21.588,19.604 21.479 C 19.761 21.437,20.171 21.041,20.237 20.867 C 20.298 20.708,20.332 20.301,20.302 20.102 C 20.279 19.948,20.238 19.882,20.051 19.700 C 19.928 19.580,19.698 19.415,19.540 19.333 L 19.253 19.186 19.227 14.003 C 19.212 11.152,19.200 7.806,19.200 6.566 L 19.200 4.312 19.060 4.046 C 18.862 3.671,18.558 3.280,18.268 3.027 C 17.955 2.754,17.831 2.691,17.492 2.636 C 17.181 2.585,7.067 2.548,6.560 2.596 M10.800 7.200 L 10.800 8.400 9.600 8.400 L 8.400 8.400 8.400 7.200 L 8.400 6.000 9.600 6.000 L 10.800 6.000 10.800 7.200 M15.600 7.200 L 15.600 8.400 14.400 8.400 L 13.200 8.400 13.200 7.200 L 13.200 6.000 14.400 6.000 L 15.600 6.000 15.600 7.200 M10.800 12.000 L 10.800 13.200 9.600 13.200 L 8.400 13.200 8.400 12.000 L 8.400 10.800 9.600 10.800 L 10.800 10.800 10.800 12.000 M15.600 12.000 L 15.600 13.200 14.400 13.200 L 13.200 13.200 13.200 12.000 L 13.200 10.800 14.400 10.800 L 15.600 10.800 15.600 12.000 " fill="#373B4D" stroke="none" fill-rule="evenodd"></path></svg>