<svg width="24" height="24" viewBox="0 0 24 24" fill="none" xmlns="http://www.w3.org/2000/svg"><path d="M10.980 3.080 C 9.814 3.258,9.047 3.493,8.098 3.961 C 6.425 4.788,5.196 5.898,4.302 7.389 C 3.520 8.695,3.000 10.527,3.000 11.980 C 3.000 13.377,3.459 15.092,4.183 16.401 C 5.057 17.981,6.396 19.239,8.100 20.081 C 9.447 20.747,10.678 20.999,12.336 20.948 C 13.762 20.904,14.669 20.681,15.941 20.059 C 18.102 19.003,19.762 17.115,20.495 14.880 C 20.877 13.715,20.978 13.002,20.951 11.664 C 20.934 10.843,20.919 10.687,20.822 10.260 C 20.392 8.373,19.552 6.847,18.255 5.597 C 17.596 4.962,16.929 4.489,16.036 4.023 C 14.830 3.394,13.952 3.170,12.180 3.041 C 11.507 2.992,11.573 2.990,10.980 3.080 M12.540 7.601 C 13.121 7.655,13.489 7.760,13.972 8.008 C 14.905 8.487,15.482 9.073,16.014 10.080 C 16.331 10.680,16.354 10.797,16.385 11.995 L 16.411 13.020 16.264 13.374 C 15.800 14.492,15.277 15.184,14.512 15.693 C 13.416 16.423,12.141 16.641,10.867 16.317 C 9.579 15.989,8.592 15.148,7.923 13.808 C 7.659 13.279,7.632 13.119,7.626 12.022 C 7.619 10.927,7.637 10.816,7.901 10.260 C 8.517 8.964,9.544 8.046,10.743 7.717 C 11.289 7.567,11.812 7.533,12.540 7.601 " fill="#373B4D" stroke="none" fill-rule="evenodd"></path></svg>