<svg width="24" height="24" viewBox="0 0 24 24" fill="none" xmlns="http://www.w3.org/2000/svg"><path d="M10.980 3.078 C 9.796 3.251,9.173 3.432,8.210 3.883 C 7.223 4.345,6.395 4.920,5.657 5.657 C 4.888 6.426,4.412 7.089,3.938 8.053 C 2.693 10.582,2.700 13.397,3.956 15.980 C 4.401 16.894,4.887 17.579,5.611 18.314 C 6.353 19.067,7.057 19.568,8.085 20.079 C 9.468 20.765,10.560 20.991,12.293 20.949 C 13.516 20.919,14.119 20.808,15.124 20.426 C 17.568 19.496,19.430 17.673,20.357 15.302 C 20.560 14.784,20.782 13.985,20.864 13.482 C 21.012 12.562,21.001 11.047,20.839 10.302 C 20.224 7.475,18.534 5.265,16.011 3.989 C 14.760 3.356,13.940 3.148,12.261 3.041 C 11.504 2.992,11.582 2.990,10.980 3.078 M12.840 7.618 C 13.314 7.690,13.577 7.781,14.085 8.046 C 15.023 8.537,15.706 9.296,16.164 10.360 C 16.252 10.564,16.341 10.821,16.362 10.931 C 16.383 11.041,16.400 11.561,16.400 12.087 L 16.400 13.043 16.260 13.405 C 15.733 14.769,14.922 15.635,13.696 16.143 C 13.245 16.329,12.979 16.393,12.447 16.443 C 11.926 16.491,11.310 16.445,10.826 16.322 C 9.575 16.002,8.509 15.087,7.919 13.827 C 7.632 13.216,7.589 12.981,7.584 12.000 C 7.579 10.987,7.619 10.792,7.979 10.060 C 8.593 8.813,9.733 7.906,11.045 7.622 C 11.386 7.548,12.363 7.546,12.840 7.618 " fill="#373B4D" stroke="none" fill-rule="evenodd"></path></svg>