<svg width="24" height="24" viewBox="0 0 24 24" fill="none" xmlns="http://www.w3.org/2000/svg"><path d="M11.340 3.024 C 10.023 3.160,9.086 3.416,8.060 3.919 C 5.271 5.287,3.420 7.905,3.059 10.992 C 2.713 13.952,3.917 16.980,6.197 18.886 C 9.569 21.703,14.431 21.703,17.803 18.886 C 20.944 16.261,21.898 11.722,20.080 8.048 C 19.172 6.214,17.763 4.810,15.940 3.921 C 15.062 3.493,14.267 3.244,13.320 3.101 C 12.911 3.039,11.662 2.991,11.340 3.024 M13.088 7.633 C 14.745 8.076,15.905 9.235,16.370 10.912 C 16.443 11.178,16.455 11.327,16.455 12.000 C 16.455 12.856,16.420 13.057,16.160 13.706 C 15.486 15.389,13.840 16.491,12.000 16.491 C 9.917 16.491,8.175 15.133,7.634 13.088 C 7.529 12.689,7.490 11.783,7.558 11.315 C 7.830 9.448,9.295 7.934,11.173 7.577 C 11.605 7.495,12.688 7.527,13.088 7.633 " fill="#373B4D" stroke="none" fill-rule="evenodd"></path></svg>