<svg width="24" height="24" viewBox="0 0 24 24" fill="none" xmlns="http://www.w3.org/2000/svg"><path d="M11.340 3.027 C 10.178 3.177,9.305 3.402,8.498 3.759 C 7.051 4.401,5.887 5.278,4.960 6.425 C 3.919 7.715,3.197 9.535,3.036 11.280 C 2.847 13.325,3.539 15.694,4.822 17.397 C 5.810 18.709,7.148 19.726,8.740 20.374 C 9.754 20.787,10.710 20.961,11.960 20.959 C 13.342 20.958,14.240 20.792,15.360 20.330 C 17.616 19.401,19.369 17.670,20.291 15.460 C 20.576 14.778,20.841 13.768,20.917 13.072 C 20.973 12.569,20.972 11.306,20.917 10.808 C 20.822 9.955,20.399 8.664,19.933 7.803 C 19.011 6.099,17.666 4.817,15.870 3.929 C 14.712 3.356,13.907 3.160,12.233 3.041 C 11.644 3.000,11.563 2.999,11.340 3.027 M12.610 7.600 C 13.128 7.650,13.426 7.731,13.863 7.941 C 14.834 8.406,15.535 9.102,16.025 10.085 C 16.369 10.776,16.367 10.770,16.390 11.961 L 16.410 13.021 16.223 13.481 C 15.721 14.711,15.032 15.487,13.980 16.002 C 13.416 16.279,13.061 16.381,12.463 16.441 C 11.527 16.534,10.504 16.322,9.763 15.882 C 9.010 15.436,8.325 14.669,7.921 13.820 C 7.646 13.244,7.630 13.158,7.610 12.131 C 7.587 10.990,7.620 10.807,7.964 10.119 C 8.557 8.933,9.459 8.128,10.626 7.742 C 11.141 7.571,11.819 7.523,12.610 7.600 " fill="#373B4D" stroke="none" fill-rule="evenodd"></path></svg>