<svg width="24" height="24" viewBox="0 0 24 24" fill="none" xmlns="http://www.w3.org/2000/svg"><path d="M11.040 3.064 C 9.920 3.197,9.077 3.442,8.100 3.919 C 7.107 4.403,6.444 4.867,5.684 5.612 C 4.289 6.979,3.433 8.660,3.094 10.700 C 2.992 11.313,2.992 12.680,3.093 13.300 C 3.588 16.332,5.398 18.803,8.060 20.082 C 9.408 20.729,10.499 20.977,12.000 20.977 C 13.501 20.977,14.592 20.729,15.940 20.082 C 18.305 18.946,20.044 16.821,20.698 14.269 C 20.920 13.403,20.978 12.932,20.978 11.980 C 20.977 10.974,20.899 10.398,20.637 9.494 C 19.952 7.123,18.307 5.137,16.092 4.008 C 14.837 3.368,13.869 3.115,12.395 3.040 C 11.504 2.995,11.630 2.993,11.040 3.064 M12.467 7.560 C 12.861 7.590,13.086 7.630,13.353 7.718 C 14.768 8.180,15.765 9.173,16.285 10.640 L 16.420 11.020 16.420 12.000 L 16.420 12.980 16.291 13.348 C 15.845 14.627,15.065 15.513,13.901 16.065 C 13.693 16.163,13.346 16.291,13.131 16.349 C 12.783 16.442,12.662 16.454,12.040 16.457 C 11.236 16.460,10.958 16.412,10.294 16.155 C 8.964 15.638,7.872 14.313,7.596 12.880 C 7.568 12.733,7.546 12.324,7.547 11.940 C 7.548 11.337,7.560 11.216,7.652 10.869 C 7.849 10.128,8.218 9.471,8.752 8.913 C 9.483 8.148,10.435 7.658,11.380 7.561 C 11.804 7.517,11.897 7.517,12.467 7.560 " fill="#373B4D" stroke="none" fill-rule="evenodd"></path></svg>