<svg width="24" height="24" viewBox="0 0 24 24" fill="none" xmlns="http://www.w3.org/2000/svg"><path d="M11.340 3.027 C 9.825 3.217,9.067 3.439,7.886 4.039 C 6.925 4.527,6.211 5.058,5.467 5.841 C 4.306 7.062,3.539 8.538,3.181 10.240 C 2.925 11.457,2.957 12.918,3.266 14.120 C 3.965 16.841,5.666 18.933,8.140 20.118 C 9.407 20.724,10.480 20.963,11.960 20.967 C 13.170 20.970,13.997 20.840,14.940 20.499 C 18.043 19.376,20.159 16.943,20.819 13.740 C 21.002 12.855,21.030 11.319,20.879 10.500 C 20.606 9.024,19.958 7.578,19.054 6.428 C 18.717 6.000,17.912 5.213,17.480 4.890 C 16.407 4.088,15.132 3.480,14.035 3.247 C 13.526 3.139,13.102 3.088,12.320 3.041 C 11.657 3.001,11.562 2.999,11.340 3.027 M12.814 7.604 C 13.644 7.712,14.584 8.214,15.230 8.895 C 15.681 9.370,16.045 9.978,16.295 10.672 C 16.398 10.960,16.400 10.983,16.400 12.005 L 16.400 13.045 16.239 13.473 C 15.705 14.893,14.708 15.846,13.280 16.300 C 12.844 16.439,12.191 16.492,11.540 16.443 C 10.017 16.327,8.684 15.393,7.965 13.935 C 7.640 13.277,7.560 12.882,7.560 11.940 C 7.560 11.374,7.575 11.197,7.645 10.918 C 8.085 9.172,9.630 7.777,11.362 7.562 C 11.689 7.522,12.326 7.540,12.814 7.604 " fill="#373B4D" stroke="none" fill-rule="evenodd"></path></svg>