<svg width="24" height="24" viewBox="0 0 24 24" fill="none" xmlns="http://www.w3.org/2000/svg"><path d="M10.298 3.075 C 9.632 3.196,9.034 3.438,8.476 3.811 C 7.814 4.252,7.163 5.069,6.823 5.883 C 6.715 6.143,6.711 6.147,6.507 6.199 C 4.581 6.684,3.121 8.567,3.120 10.567 C 3.120 11.517,3.486 12.605,4.056 13.347 L 4.277 13.634 4.177 14.067 C 4.057 14.589,4.038 15.358,4.134 15.844 C 4.522 17.813,6.074 19.281,8.057 19.557 C 8.452 19.612,8.766 19.611,9.208 19.555 L 9.561 19.509 9.771 19.707 C 11.197 21.051,13.159 21.368,14.914 20.538 C 15.381 20.317,15.692 20.096,16.097 19.694 C 16.516 19.279,16.847 18.827,17.042 18.405 C 17.130 18.215,17.224 18.017,17.251 17.964 C 17.288 17.892,17.392 17.838,17.680 17.743 C 18.171 17.580,18.465 17.443,18.794 17.223 C 19.580 16.699,20.182 15.980,20.521 15.160 C 21.142 13.657,20.931 11.993,19.953 10.674 L 19.721 10.361 19.803 10.017 C 20.318 7.848,19.210 5.661,17.146 4.775 C 16.589 4.535,16.258 4.470,15.500 4.452 C 15.126 4.443,14.739 4.451,14.640 4.470 L 14.460 4.505 14.185 4.248 C 13.729 3.823,13.093 3.447,12.486 3.242 C 11.822 3.018,10.964 2.953,10.298 3.075 M11.841 4.280 C 12.302 4.368,13.259 4.882,13.150 4.984 C 13.123 5.009,12.459 5.400,11.676 5.851 C 9.932 6.856,9.537 7.098,9.370 7.264 L 9.240 7.392 9.240 9.989 C 9.240 11.418,9.230 12.597,9.217 12.610 C 9.204 12.623,8.862 12.442,8.457 12.208 L 7.720 11.783 7.721 9.482 C 7.721 8.199,7.739 7.060,7.761 6.910 C 7.811 6.562,8.024 6.034,8.256 5.687 C 8.484 5.343,8.983 4.866,9.321 4.669 C 9.678 4.461,10.146 4.287,10.469 4.242 C 10.778 4.199,11.523 4.220,11.841 4.280 M16.278 5.721 C 16.944 5.908,17.618 6.362,18.028 6.900 C 18.259 7.203,18.512 7.689,18.621 8.040 C 18.690 8.262,18.760 9.480,18.703 9.480 C 18.648 9.480,18.288 9.281,16.630 8.333 C 15.689 7.795,14.860 7.345,14.787 7.333 C 14.608 7.304,14.524 7.349,12.128 8.730 C 11.022 9.368,10.104 9.877,10.088 9.862 C 10.073 9.846,10.060 9.456,10.060 8.994 C 10.060 8.291,10.070 8.149,10.120 8.118 C 10.524 7.869,12.135 6.939,12.996 6.456 C 14.118 5.828,14.402 5.703,14.846 5.640 C 15.236 5.585,15.934 5.625,16.278 5.721 M6.486 7.450 C 6.490 7.455,6.503 8.462,6.516 9.687 C 6.539 11.854,6.542 11.917,6.622 12.024 C 6.706 12.137,7.271 12.477,9.739 13.900 L 11.126 14.700 11.005 14.800 C 10.939 14.855,10.606 15.059,10.266 15.253 L 9.647 15.607 9.193 15.357 C 8.591 15.024,7.492 14.385,6.460 13.768 C 5.883 13.422,5.540 13.189,5.366 13.023 C 5.049 12.721,4.682 12.170,4.513 11.744 C 4.389 11.433,4.383 11.394,4.368 10.739 C 4.349 9.930,4.386 9.694,4.597 9.252 C 4.947 8.522,5.355 8.067,6.006 7.682 C 6.377 7.463,6.467 7.419,6.486 7.450 M15.480 9.030 C 17.084 9.950,18.323 10.697,18.529 10.867 C 18.967 11.229,19.424 11.961,19.585 12.560 C 19.684 12.927,19.684 13.878,19.584 14.240 C 19.383 14.972,18.982 15.593,18.424 16.037 C 18.182 16.229,17.743 16.487,17.570 16.539 L 17.480 16.565 17.480 14.327 L 17.480 12.089 17.328 11.952 C 17.152 11.793,16.635 11.479,14.720 10.370 C 13.246 9.516,12.907 9.318,12.887 9.300 C 12.837 9.253,14.319 8.391,14.399 8.421 C 14.432 8.434,14.919 8.708,15.480 9.030 M12.854 10.247 C 13.319 10.515,13.749 10.762,13.810 10.797 L 13.919 10.860 13.920 12.005 L 13.920 13.149 12.960 13.700 L 12.000 14.251 11.040 13.700 L 10.080 13.149 10.080 12.001 L 10.080 10.853 10.170 10.808 C 10.220 10.784,10.647 10.538,11.120 10.263 C 11.593 9.988,11.986 9.762,11.994 9.761 C 12.002 9.761,12.389 9.979,12.854 10.247 M15.576 11.822 L 16.333 12.254 16.305 14.537 C 16.290 15.793,16.260 16.943,16.239 17.094 C 16.137 17.802,15.548 18.721,14.904 19.178 C 14.444 19.503,13.908 19.711,13.293 19.800 C 12.719 19.884,11.963 19.734,11.358 19.416 C 11.087 19.274,10.804 19.063,10.840 19.029 C 10.851 19.018,11.580 18.591,12.460 18.079 C 14.366 16.971,14.528 16.870,14.659 16.714 L 14.760 16.594 14.760 13.975 C 14.760 12.534,14.773 11.363,14.790 11.373 C 14.807 11.382,15.160 11.584,15.576 11.822 M13.934 14.390 C 13.967 14.737,13.967 15.593,13.935 15.755 C 13.912 15.869,13.824 15.930,12.885 16.475 C 10.876 17.643,10.064 18.091,9.764 18.201 C 8.461 18.675,6.934 18.271,6.069 17.222 C 5.800 16.896,5.542 16.446,5.411 16.072 C 5.322 15.820,5.305 15.693,5.289 15.150 C 5.277 14.760,5.284 14.520,5.308 14.520 C 5.329 14.520,5.930 14.855,6.643 15.264 C 9.297 16.786,9.150 16.715,9.455 16.623 C 9.624 16.573,10.884 15.864,12.900 14.685 C 13.428 14.376,13.871 14.123,13.884 14.122 C 13.898 14.121,13.920 14.242,13.934 14.390 " fill="#373B4D" stroke="none" fill-rule="evenodd"></path></svg>