<svg width="24" height="24" viewBox="0 0 24 24" fill="none" xmlns="http://www.w3.org/2000/svg"><path d="M5.720 3.035 L 4.660 3.060 4.320 3.224 C 3.721 3.512,3.308 3.977,3.103 4.592 L 3.000 4.900 3.000 12.021 L 3.000 19.142 3.120 19.454 C 3.392 20.161,3.865 20.629,4.565 20.884 L 4.882 21.000 11.999 21.000 L 19.115 21.000 19.408 20.895 C 20.134 20.634,20.632 20.136,20.895 19.408 L 21.000 19.115 21.000 11.999 L 21.000 4.882 20.884 4.565 C 20.634 3.880,20.139 3.375,19.475 3.129 C 19.252 3.046,19.214 3.045,13.015 3.027 C 9.586 3.018,6.303 3.021,5.720 3.035 M13.534 6.306 C 13.548 6.673,13.560 7.482,13.560 8.105 L 13.560 9.236 13.710 9.262 C 15.039 9.494,16.033 9.815,17.139 10.369 L 17.658 10.629 18.312 10.192 C 18.673 9.951,18.978 9.764,18.990 9.777 C 19.003 9.790,19.022 10.367,19.032 11.060 L 19.051 12.320 17.077 12.320 C 15.681 12.320,15.116 12.308,15.147 12.277 C 15.170 12.254,15.420 12.087,15.702 11.907 C 15.984 11.727,16.216 11.562,16.217 11.540 C 16.222 11.474,14.917 11.006,14.256 10.838 C 13.916 10.751,13.620 10.680,13.599 10.680 C 13.574 10.680,13.560 11.825,13.560 13.855 L 13.560 17.030 12.530 17.689 C 11.963 18.051,11.479 18.359,11.454 18.373 C 11.395 18.407,10.894 18.313,10.180 18.134 C 7.295 17.412,5.558 16.223,5.079 14.645 C 5.000 14.387,4.992 14.290,5.009 13.826 C 5.026 13.347,5.041 13.267,5.167 12.933 C 5.742 11.420,7.408 10.122,9.550 9.519 C 10.005 9.391,10.681 9.262,11.130 9.217 L 11.400 9.191 11.400 8.085 L 11.400 6.979 12.430 6.312 C 12.997 5.945,13.471 5.644,13.484 5.642 C 13.497 5.641,13.519 5.940,13.534 6.306 M10.980 10.624 C 9.695 10.855,8.742 11.296,8.058 11.979 C 6.904 13.131,6.817 14.446,7.824 15.516 C 8.487 16.221,9.405 16.656,10.833 16.941 C 11.105 16.996,11.343 17.040,11.363 17.040 C 11.404 17.040,11.416 10.729,11.376 10.623 C 11.362 10.588,11.340 10.562,11.326 10.564 C 11.312 10.566,11.156 10.593,10.980 10.624 " fill="#373B4D" stroke="none" fill-rule="evenodd"></path></svg>