<svg width="24" height="24" viewBox="0 0 24 24" fill="none" xmlns="http://www.w3.org/2000/svg"><path d="M10.226 3.104 C 8.809 3.360,7.661 4.245,6.947 5.633 L 6.685 6.142 6.334 6.256 C 4.508 6.851,3.222 8.515,3.133 10.400 C 3.086 11.380,3.419 12.442,4.047 13.319 L 4.281 13.646 4.222 13.873 C 4.123 14.254,4.068 14.869,4.090 15.357 C 4.107 15.749,4.133 15.890,4.260 16.280 C 4.454 16.877,4.584 17.161,4.830 17.524 C 5.805 18.963,7.486 19.757,9.151 19.563 L 9.562 19.515 9.811 19.741 C 10.746 20.590,11.981 21.052,13.138 20.986 C 13.601 20.960,14.142 20.841,14.624 20.660 C 15.590 20.296,16.440 19.500,17.040 18.396 C 17.152 18.190,17.280 17.983,17.324 17.936 C 17.368 17.889,17.629 17.764,17.904 17.659 C 19.348 17.107,20.419 15.869,20.770 14.342 C 20.869 13.915,20.886 13.058,20.804 12.642 C 20.672 11.966,20.361 11.250,19.954 10.681 L 19.719 10.354 19.778 10.127 C 20.055 9.048,19.909 7.797,19.394 6.840 C 18.750 5.643,17.506 4.732,16.220 4.515 C 16.066 4.490,15.597 4.466,15.177 4.464 L 14.414 4.460 14.197 4.264 C 13.491 3.628,12.605 3.208,11.703 3.083 C 11.287 3.025,10.609 3.035,10.226 3.104 M12.094 4.365 C 12.376 4.460,12.658 4.598,12.958 4.790 L 13.177 4.930 13.076 5.015 C 13.021 5.062,12.279 5.505,11.427 6.000 C 10.576 6.495,9.740 6.999,9.570 7.121 L 9.260 7.341 9.230 9.937 C 9.214 11.364,9.191 12.542,9.180 12.553 C 9.150 12.583,8.940 12.479,8.284 12.109 L 7.707 11.784 7.734 9.442 C 7.749 8.154,7.779 6.974,7.800 6.820 C 7.851 6.455,8.189 5.763,8.496 5.395 C 8.874 4.943,9.432 4.569,10.080 4.334 C 10.329 4.244,10.373 4.241,11.098 4.262 C 11.709 4.280,11.902 4.300,12.094 4.365 M16.317 5.746 C 17.380 6.041,18.422 7.135,18.618 8.163 C 18.685 8.515,18.742 9.326,18.706 9.420 C 18.676 9.496,18.773 9.547,16.720 8.390 C 15.983 7.975,15.230 7.561,15.048 7.470 L 14.715 7.305 14.408 7.457 C 14.238 7.540,13.317 8.054,12.360 8.599 C 10.128 9.870,10.149 9.859,10.113 9.770 C 10.072 9.666,10.074 8.300,10.115 8.193 C 10.155 8.090,11.010 7.575,12.800 6.576 C 13.994 5.910,14.396 5.721,14.718 5.678 C 15.048 5.633,16.066 5.677,16.317 5.746 M6.514 9.770 C 6.538 11.136,6.565 11.861,6.596 11.942 C 6.652 12.090,7.032 12.332,8.980 13.463 C 9.728 13.898,10.518 14.357,10.736 14.483 L 11.132 14.714 10.796 14.930 C 10.611 15.049,10.276 15.250,10.051 15.377 L 9.641 15.608 9.022 15.263 C 7.240 14.271,5.639 13.278,5.337 12.975 C 4.995 12.634,4.635 12.058,4.477 11.600 C 4.397 11.370,4.386 11.259,4.385 10.640 C 4.382 9.827,4.424 9.616,4.689 9.106 C 5.010 8.490,5.447 8.038,6.124 7.620 L 6.420 7.438 6.449 7.578 C 6.465 7.656,6.495 8.642,6.514 9.770 M15.037 8.786 C 16.306 9.491,18.020 10.524,18.469 10.855 C 18.859 11.142,19.319 11.815,19.526 12.400 C 19.608 12.634,19.617 12.733,19.618 13.380 C 19.619 14.191,19.588 14.349,19.320 14.877 C 18.971 15.566,18.543 16.010,17.840 16.409 C 17.741 16.466,17.620 16.524,17.570 16.539 L 17.480 16.565 17.480 14.326 L 17.480 12.087 17.356 11.983 C 17.166 11.823,16.390 11.350,14.590 10.300 C 13.686 9.772,12.939 9.320,12.931 9.295 C 12.923 9.270,13.055 9.164,13.224 9.059 C 13.564 8.847,14.319 8.442,14.377 8.441 C 14.397 8.440,14.694 8.596,15.037 8.786 M12.988 10.330 L 13.919 10.860 13.920 12.007 L 13.920 13.155 12.960 13.702 L 12.000 14.250 11.040 13.702 L 10.080 13.155 10.080 12.007 L 10.080 10.860 11.006 10.330 C 11.515 10.039,11.960 9.800,11.995 9.800 C 12.029 9.800,12.476 10.039,12.988 10.330 M15.608 11.844 L 16.320 12.249 16.319 12.974 C 16.318 14.323,16.240 17.019,16.196 17.240 C 16.112 17.658,15.738 18.341,15.356 18.775 C 15.135 19.026,14.759 19.289,14.354 19.475 C 13.788 19.735,13.578 19.779,12.900 19.779 C 12.325 19.779,12.284 19.774,11.920 19.647 C 11.535 19.513,11.132 19.311,10.957 19.162 L 10.860 19.080 10.960 18.995 C 11.015 18.949,11.411 18.703,11.840 18.449 C 12.269 18.196,13.007 17.759,13.481 17.479 C 13.954 17.198,14.436 16.895,14.551 16.804 L 14.760 16.638 14.760 14.429 C 14.760 12.135,14.782 11.440,14.854 11.440 C 14.877 11.440,15.216 11.622,15.608 11.844 M13.933 14.999 L 13.940 15.768 13.792 15.896 C 13.524 16.129,11.026 17.575,10.189 17.982 C 9.522 18.307,9.243 18.375,8.595 18.371 C 8.036 18.367,7.706 18.298,7.231 18.085 C 6.483 17.749,6.005 17.263,5.572 16.397 C 5.373 15.998,5.332 15.801,5.294 15.047 L 5.267 14.512 5.464 14.612 C 5.572 14.667,6.230 15.036,6.926 15.432 C 9.127 16.685,9.182 16.711,9.440 16.620 C 9.638 16.550,10.537 16.056,11.900 15.268 C 13.392 14.405,13.853 14.157,13.892 14.196 C 13.911 14.215,13.929 14.576,13.933 14.999 " fill="#373B4D" stroke="none" fill-rule="evenodd"></path></svg>