<svg width="24" height="24" viewBox="0 0 24 24" fill="none" xmlns="http://www.w3.org/2000/svg"><path d="M4.773 3.060 C 4.001 3.228,3.375 3.791,3.112 4.552 L 3.020 4.820 3.020 12.000 L 3.020 19.180 3.112 19.448 C 3.344 20.116,3.884 20.656,4.552 20.888 L 4.820 20.980 12.000 20.980 L 19.180 20.980 19.448 20.888 C 20.116 20.656,20.656 20.116,20.888 19.448 L 20.980 19.180 20.980 12.000 L 20.980 4.820 20.888 4.552 C 20.657 3.884,20.107 3.335,19.443 3.109 L 19.180 3.020 12.100 3.013 C 6.279 3.007,4.976 3.015,4.773 3.060 M13.710 9.262 C 15.047 9.489,16.047 9.809,17.142 10.361 L 17.664 10.625 18.342 10.172 L 19.020 9.720 19.031 11.006 C 19.036 11.713,19.035 12.299,19.027 12.306 C 19.019 12.314,18.127 12.316,17.046 12.310 L 15.079 12.300 15.681 11.925 C 16.012 11.718,16.277 11.543,16.269 11.536 C 16.223 11.490,15.111 11.071,14.760 10.968 C 14.410 10.865,13.654 10.680,13.580 10.680 C 13.569 10.680,13.560 12.108,13.560 13.853 L 13.560 17.027 12.529 17.691 C 11.962 18.057,11.470 18.366,11.437 18.379 C 11.349 18.413,10.326 18.192,9.598 17.983 C 6.993 17.235,5.404 16.028,5.037 14.520 C 4.954 14.180,4.972 13.558,5.076 13.183 C 5.247 12.566,5.665 11.889,6.207 11.354 C 7.353 10.221,9.274 9.386,11.128 9.214 L 11.400 9.189 11.400 8.083 L 11.400 6.977 12.470 6.288 L 13.540 5.600 13.550 7.418 L 13.561 9.237 13.710 9.262 M11.220 10.587 C 10.524 10.676,9.689 10.914,9.183 11.168 C 7.951 11.785,7.121 12.892,7.121 13.920 C 7.121 14.830,7.755 15.719,8.800 16.273 C 9.338 16.559,10.195 16.836,10.920 16.959 C 11.063 16.983,11.229 17.012,11.290 17.024 L 11.400 17.046 11.400 13.803 C 11.400 12.019,11.387 10.563,11.370 10.566 C 11.353 10.569,11.286 10.579,11.220 10.587 " fill="#373B4D" stroke="none" fill-rule="evenodd"></path></svg>