<svg width="24" height="24" viewBox="0 0 24 24" fill="none" xmlns="http://www.w3.org/2000/svg"><path d="M10.620 3.046 C 9.494 3.136,8.314 3.744,7.636 4.584 C 7.258 5.053,7.194 5.150,6.940 5.649 L 6.694 6.133 6.313 6.259 C 5.622 6.487,5.087 6.804,4.582 7.283 C 3.468 8.341,2.936 9.854,3.182 11.265 C 3.313 12.018,3.621 12.751,4.050 13.329 L 4.279 13.639 4.196 13.970 C 4.091 14.390,4.049 15.346,4.117 15.744 C 4.185 16.137,4.417 16.809,4.606 17.160 C 4.833 17.582,5.100 17.928,5.487 18.303 C 6.007 18.808,6.533 19.126,7.232 19.359 C 7.905 19.583,8.505 19.643,9.210 19.557 L 9.560 19.514 9.830 19.759 C 10.860 20.696,12.210 21.137,13.503 20.957 C 13.875 20.905,14.390 20.760,14.789 20.594 C 15.679 20.223,16.561 19.354,17.062 18.355 C 17.305 17.872,17.301 17.875,17.871 17.674 C 18.527 17.443,18.971 17.155,19.525 16.604 C 21.141 14.993,21.320 12.573,19.961 10.689 L 19.722 10.357 19.804 10.029 C 19.920 9.564,19.949 8.697,19.866 8.219 C 19.571 6.527,18.413 5.192,16.759 4.638 C 16.328 4.493,15.536 4.418,14.868 4.458 L 14.436 4.485 14.194 4.261 C 13.229 3.367,11.967 2.938,10.620 3.046 M12.080 4.348 C 12.524 4.511,13.160 4.866,13.160 4.952 C 13.160 4.988,13.050 5.055,11.540 5.930 C 10.029 6.806,9.630 7.049,9.411 7.227 L 9.242 7.364 9.231 9.958 C 9.225 11.386,9.207 12.566,9.192 12.582 C 9.176 12.597,8.837 12.424,8.437 12.196 L 7.711 11.783 7.730 9.341 C 7.752 6.602,7.741 6.711,8.058 6.060 C 8.266 5.633,8.575 5.248,8.948 4.948 C 9.302 4.664,9.578 4.513,10.020 4.361 L 10.380 4.237 11.120 4.253 C 11.735 4.265,11.897 4.282,12.080 4.348 M16.478 5.794 C 16.996 5.987,17.337 6.210,17.740 6.616 C 18.324 7.206,18.610 7.781,18.678 8.500 C 18.728 9.026,18.732 9.480,18.688 9.480 C 18.670 9.480,18.188 9.217,17.618 8.895 C 17.047 8.573,16.301 8.152,15.960 7.960 C 15.233 7.550,14.783 7.320,14.709 7.320 C 14.618 7.320,14.008 7.650,12.469 8.534 C 10.745 9.523,10.175 9.840,10.120 9.840 C 10.095 9.840,10.080 9.529,10.080 9.006 C 10.080 8.262,10.087 8.166,10.150 8.112 C 10.317 7.969,13.419 6.204,13.983 5.931 C 14.548 5.658,14.641 5.640,15.440 5.655 C 16.111 5.668,16.154 5.673,16.478 5.794 M6.494 8.406 C 6.508 8.938,6.521 9.843,6.522 10.416 C 6.525 11.720,6.550 11.981,6.683 12.084 C 6.855 12.218,7.781 12.770,9.460 13.740 C 10.362 14.262,11.107 14.694,11.115 14.702 C 11.136 14.723,10.518 15.115,10.051 15.378 L 9.641 15.608 9.191 15.357 C 7.669 14.510,5.843 13.409,5.503 13.133 C 5.186 12.876,4.880 12.468,4.633 11.975 C 4.455 11.619,4.426 11.526,4.392 11.195 C 4.328 10.587,4.371 9.875,4.492 9.528 C 4.753 8.778,5.322 8.093,6.040 7.666 C 6.249 7.542,6.431 7.440,6.444 7.440 C 6.457 7.440,6.479 7.875,6.494 8.406 M15.291 8.924 C 17.123 9.969,18.371 10.736,18.628 10.975 C 19.036 11.354,19.439 12.034,19.579 12.578 C 19.664 12.908,19.662 13.883,19.576 14.237 C 19.430 14.841,18.972 15.578,18.497 15.972 C 18.243 16.183,17.745 16.487,17.570 16.539 L 17.480 16.565 17.480 14.326 L 17.480 12.086 17.319 11.948 C 17.144 11.799,16.004 11.112,14.180 10.058 C 13.542 9.690,12.986 9.365,12.945 9.337 C 12.876 9.289,12.892 9.271,13.145 9.107 C 13.565 8.835,14.291 8.441,14.371 8.440 C 14.410 8.440,14.824 8.658,15.291 8.924 M12.977 10.320 L 13.920 10.860 13.920 12.007 L 13.920 13.155 12.960 13.702 L 12.000 14.250 11.040 13.702 L 10.080 13.155 10.081 12.007 L 10.081 10.860 11.031 10.312 C 11.553 10.011,11.992 9.768,12.007 9.772 C 12.022 9.776,12.458 10.023,12.977 10.320 M15.593 11.834 L 16.320 12.249 16.319 13.114 C 16.318 13.590,16.301 14.694,16.281 15.566 C 16.244 17.136,16.243 17.155,16.135 17.481 C 16.024 17.815,15.729 18.328,15.453 18.667 C 14.893 19.353,13.864 19.817,12.920 19.811 C 12.453 19.808,12.085 19.728,11.587 19.520 C 11.290 19.397,10.877 19.137,10.854 19.060 C 10.848 19.038,11.368 18.715,12.011 18.342 C 13.892 17.252,14.439 16.918,14.604 16.761 L 14.760 16.612 14.760 14.216 C 14.761 11.942,14.776 11.382,14.839 11.409 C 14.854 11.415,15.193 11.606,15.593 11.834 M13.949 14.887 C 13.960 15.268,13.953 15.643,13.932 15.720 C 13.888 15.890,13.732 15.992,11.980 17.000 C 9.739 18.290,9.508 18.384,8.580 18.376 C 8.139 18.372,8.006 18.355,7.702 18.263 C 6.991 18.050,6.398 17.655,6.006 17.135 C 5.761 16.809,5.474 16.267,5.383 15.960 C 5.317 15.737,5.242 14.520,5.294 14.520 C 5.327 14.520,6.025 14.911,7.452 15.729 C 8.064 16.079,8.714 16.438,8.898 16.526 C 9.203 16.672,9.244 16.682,9.386 16.644 C 9.573 16.593,10.704 15.967,12.520 14.908 C 13.257 14.479,13.876 14.142,13.895 14.160 C 13.914 14.178,13.938 14.505,13.949 14.887 " fill="#373B4D" stroke="none" fill-rule="evenodd"></path></svg>