<svg width="24" height="24" viewBox="0 0 24 24" fill="none" xmlns="http://www.w3.org/2000/svg"><path d="M10.600 3.025 C 9.878 3.129,9.516 3.239,8.960 3.524 C 8.751 3.632,8.459 3.810,8.312 3.921 C 7.717 4.370,7.129 5.132,6.856 5.810 L 6.726 6.133 6.394 6.229 C 4.689 6.721,3.409 8.206,3.163 9.977 C 2.993 11.202,3.361 12.506,4.147 13.466 L 4.284 13.633 4.202 13.953 C 3.862 15.285,4.150 16.666,5.006 17.801 C 5.734 18.767,6.838 19.399,8.080 19.561 C 8.461 19.610,9.110 19.592,9.407 19.524 C 9.542 19.492,9.564 19.501,9.687 19.630 C 9.894 19.848,10.375 20.222,10.672 20.395 C 11.961 21.147,13.617 21.196,14.965 20.522 C 15.455 20.277,15.753 20.056,16.180 19.621 C 16.624 19.169,16.936 18.707,17.144 18.190 L 17.274 17.867 17.606 17.771 C 18.837 17.416,19.896 16.511,20.440 15.349 C 21.176 13.779,20.978 12.005,19.912 10.614 L 19.718 10.361 19.800 10.040 C 20.435 7.551,18.802 4.998,16.252 4.494 C 15.862 4.417,14.956 4.403,14.633 4.470 L 14.446 4.509 14.273 4.331 C 13.627 3.667,12.605 3.166,11.640 3.041 C 11.351 3.004,10.807 2.996,10.600 3.025 M12.020 4.319 C 12.357 4.427,12.749 4.622,13.016 4.814 L 13.213 4.955 13.057 5.048 C 12.971 5.098,12.117 5.592,11.160 6.144 C 9.832 6.911,9.399 7.180,9.330 7.280 L 9.240 7.412 9.240 10.026 C 9.240 11.464,9.232 12.640,9.223 12.640 C 9.213 12.640,8.867 12.444,8.453 12.204 L 7.700 11.769 7.700 9.454 C 7.700 6.944,7.704 6.889,7.925 6.314 C 8.312 5.307,9.165 4.562,10.260 4.275 C 10.668 4.168,11.622 4.192,12.020 4.319 M16.040 5.657 C 17.124 5.887,17.972 6.564,18.436 7.566 C 18.660 8.051,18.735 8.408,18.736 8.988 C 18.737 9.257,18.727 9.487,18.714 9.499 C 18.701 9.512,17.892 9.061,16.916 8.497 C 14.848 7.303,14.880 7.320,14.720 7.320 C 14.559 7.320,14.632 7.281,12.180 8.697 L 10.060 9.921 10.049 9.053 C 10.041 8.391,10.050 8.173,10.089 8.136 C 10.191 8.040,13.867 5.941,14.120 5.835 C 14.263 5.775,14.506 5.699,14.660 5.666 C 15.017 5.590,15.704 5.585,16.040 5.657 M6.520 9.650 C 6.520 11.774,6.523 11.865,6.599 11.989 C 6.696 12.148,6.571 12.071,9.020 13.480 C 10.142 14.125,11.082 14.673,11.108 14.696 C 11.144 14.729,10.972 14.847,10.430 15.160 C 10.030 15.391,9.681 15.586,9.654 15.592 C 9.578 15.612,5.811 13.416,5.530 13.189 C 5.038 12.790,4.586 12.084,4.411 11.440 C 4.312 11.076,4.313 10.088,4.413 9.720 C 4.587 9.082,5.022 8.415,5.543 7.985 C 5.775 7.793,6.385 7.440,6.483 7.440 C 6.505 7.440,6.520 8.328,6.520 9.650 M16.308 9.505 C 17.360 10.112,18.328 10.695,18.460 10.800 C 19.025 11.249,19.466 11.975,19.622 12.714 C 19.653 12.860,19.679 13.178,19.679 13.420 C 19.680 14.309,19.385 15.059,18.779 15.714 C 18.452 16.068,17.922 16.429,17.570 16.538 L 17.480 16.565 17.480 14.349 L 17.480 12.132 17.389 11.996 C 17.316 11.888,16.846 11.599,15.103 10.592 C 13.896 9.895,12.894 9.310,12.876 9.292 C 12.849 9.264,14.292 8.402,14.368 8.400 C 14.384 8.400,15.257 8.897,16.308 9.505 M12.980 10.316 L 13.940 10.871 13.940 12.002 L 13.940 13.132 12.981 13.686 C 12.453 13.991,12.012 14.240,12.000 14.240 C 11.988 14.240,11.547 13.991,11.019 13.686 L 10.060 13.132 10.060 12.002 L 10.060 10.871 11.020 10.316 C 11.548 10.011,11.989 9.762,12.000 9.762 C 12.011 9.762,12.452 10.011,12.980 10.316 M15.633 11.851 L 16.325 12.250 16.309 14.615 C 16.292 17.207,16.296 17.165,16.039 17.768 C 15.779 18.379,15.221 19.018,14.656 19.353 C 14.306 19.559,13.760 19.742,13.313 19.801 C 12.728 19.878,12.016 19.752,11.460 19.472 C 11.101 19.291,10.790 19.074,10.831 19.033 C 10.850 19.014,11.702 18.515,12.723 17.926 C 14.160 17.096,14.600 16.824,14.670 16.721 L 14.760 16.588 14.760 13.973 L 14.760 11.357 14.850 11.404 C 14.900 11.430,15.252 11.631,15.633 11.851 M13.911 15.865 C 13.827 15.946,10.324 17.960,10.013 18.106 C 9.161 18.504,8.082 18.502,7.214 18.101 C 6.495 17.769,5.963 17.241,5.582 16.485 C 5.349 16.021,5.271 15.667,5.265 15.053 C 5.262 14.764,5.271 14.516,5.284 14.503 C 5.297 14.489,6.152 14.969,7.184 15.568 C 9.023 16.635,9.064 16.657,9.280 16.657 C 9.496 16.656,9.542 16.632,11.720 15.369 L 13.940 14.082 13.951 14.949 C 13.959 15.609,13.949 15.827,13.911 15.865 " fill="#373B4D" stroke="none" fill-rule="evenodd"></path></svg>