<svg width="24" height="24" viewBox="0 0 24 24" fill="none" xmlns="http://www.w3.org/2000/svg"><path d="M6.380 3.076 L 4.580 3.100 4.280 3.258 C 3.610 3.612,3.105 4.298,3.037 4.948 C 3.019 5.120,3.003 8.405,3.002 12.248 L 3.000 19.237 3.177 19.581 C 3.526 20.259,3.886 20.599,4.536 20.864 L 4.871 21.001 12.066 20.990 L 19.260 20.980 19.620 20.802 C 20.126 20.551,20.551 20.126,20.802 19.620 L 20.980 19.260 20.980 12.000 L 20.980 4.740 20.802 4.380 C 20.563 3.899,20.121 3.446,19.680 3.232 L 19.380 3.086 13.780 3.069 C 10.700 3.060,7.370 3.063,6.380 3.076 M13.494 5.870 C 13.507 5.975,13.530 6.775,13.545 7.648 L 13.572 9.237 13.796 9.279 C 15.058 9.517,16.270 9.928,17.420 10.510 L 17.655 10.629 18.157 10.301 C 18.831 9.861,18.950 9.792,18.973 9.829 C 18.983 9.846,19.005 10.413,19.021 11.090 L 19.051 12.320 17.145 12.320 C 16.097 12.320,15.240 12.305,15.240 12.287 C 15.240 12.234,15.393 12.111,15.790 11.842 C 15.993 11.704,16.160 11.576,16.160 11.556 C 16.160 11.461,15.250 11.120,14.303 10.861 C 13.549 10.655,13.617 10.614,13.586 11.290 C 13.572 11.603,13.560 13.024,13.560 14.447 L 13.560 17.034 12.484 17.719 L 11.409 18.403 10.994 18.320 C 10.043 18.128,8.902 17.784,8.120 17.451 C 7.244 17.079,6.562 16.641,6.018 16.100 C 5.619 15.704,5.357 15.316,5.154 14.820 C 5.029 14.516,5.023 14.475,5.024 14.000 C 5.025 13.389,5.095 13.074,5.341 12.580 C 6.174 10.902,8.326 9.617,10.910 9.255 L 11.400 9.186 11.400 8.083 L 11.400 6.980 12.409 6.330 C 12.963 5.973,13.429 5.680,13.443 5.680 C 13.458 5.680,13.480 5.765,13.494 5.870 M10.800 10.662 C 9.470 10.967,8.639 11.388,7.976 12.092 C 7.299 12.812,7.021 13.564,7.172 14.267 C 7.384 15.254,8.141 16.019,9.407 16.527 C 9.778 16.676,10.776 16.952,11.184 17.018 L 11.349 17.045 11.374 16.893 C 11.406 16.697,11.408 10.707,11.376 10.623 C 11.345 10.543,11.308 10.545,10.800 10.662 " fill="#373B4D" stroke="none" fill-rule="evenodd"></path></svg>