<svg width="24" height="24" viewBox="0 0 24 24" fill="none" xmlns="http://www.w3.org/2000/svg"><path d="M4.684 3.082 C 4.420 3.136,3.933 3.430,3.661 3.700 C 3.413 3.947,3.185 4.329,3.065 4.701 C 3.005 4.885,3.000 5.535,3.010 12.081 L 3.020 19.260 3.207 19.640 C 3.519 20.272,3.905 20.625,4.560 20.878 L 4.879 21.001 12.050 20.990 L 19.220 20.980 19.528 20.847 C 20.141 20.583,20.583 20.140,20.849 19.524 L 20.980 19.220 20.980 12.000 L 20.980 4.780 20.847 4.472 C 20.587 3.869,20.102 3.384,19.525 3.151 L 19.300 3.060 12.080 3.053 C 8.002 3.050,4.783 3.062,4.684 3.082 M13.548 7.549 L 13.572 9.239 13.716 9.264 C 14.942 9.475,15.925 9.791,17.061 10.337 L 17.662 10.626 18.041 10.371 C 18.535 10.038,18.958 9.785,18.981 9.808 C 18.991 9.818,19.012 10.387,19.026 11.073 L 19.053 12.320 17.170 12.320 C 16.134 12.320,15.257 12.309,15.221 12.295 C 15.174 12.277,15.296 12.176,15.654 11.937 C 15.929 11.754,16.165 11.585,16.179 11.561 C 16.214 11.505,15.898 11.367,15.167 11.120 C 14.530 10.905,13.639 10.668,13.602 10.704 C 13.590 10.717,13.575 12.146,13.569 13.881 L 13.558 17.035 12.489 17.714 L 11.420 18.393 11.180 18.355 C 11.048 18.333,10.715 18.262,10.440 18.197 C 8.454 17.723,7.013 17.058,6.099 16.192 C 5.686 15.802,5.452 15.484,5.244 15.034 C 5.052 14.616,5.000 14.402,5.001 14.032 C 5.004 13.357,5.141 12.866,5.487 12.294 C 6.434 10.724,8.587 9.532,11.010 9.235 L 11.400 9.187 11.400 8.084 L 11.400 6.980 12.250 6.431 C 12.718 6.129,13.181 5.831,13.280 5.768 L 13.460 5.654 13.492 5.757 C 13.509 5.814,13.534 6.620,13.548 7.549 M10.807 10.661 C 9.556 10.926,8.717 11.335,8.047 12.006 C 7.322 12.732,7.013 13.532,7.168 14.281 C 7.427 15.535,8.650 16.463,10.609 16.893 C 10.857 16.947,11.125 17.003,11.204 17.017 L 11.349 17.042 11.374 16.855 C 11.407 16.618,11.408 10.708,11.376 10.623 C 11.346 10.545,11.358 10.544,10.807 10.661 " fill="#373B4D" stroke="none" fill-rule="evenodd"></path></svg>