<svg width="24" height="24" viewBox="0 0 24 24" fill="none" xmlns="http://www.w3.org/2000/svg"><path d="M11.400 3.027 C 10.927 3.076,10.077 3.223,9.692 3.322 C 7.964 3.768,6.280 4.840,5.115 6.236 C 4.015 7.554,3.381 8.969,3.096 10.740 C 3.008 11.286,2.996 12.607,3.074 13.140 C 3.322 14.828,3.965 16.341,4.963 17.579 C 5.282 17.975,6.027 18.719,6.434 19.047 C 8.049 20.350,10.269 21.076,12.360 20.986 C 14.667 20.886,16.687 19.985,18.382 18.300 C 19.300 17.388,19.937 16.406,20.380 15.220 C 21.146 13.171,21.197 11.248,20.539 9.220 C 20.136 7.976,19.546 6.951,18.704 6.030 C 18.111 5.382,17.652 4.983,17.000 4.550 C 15.913 3.829,14.743 3.363,13.460 3.143 C 13.153 3.090,11.782 2.990,11.600 3.007 C 11.567 3.010,11.477 3.019,11.400 3.027 M15.364 4.302 C 15.620 4.334,15.988 4.405,16.182 4.462 C 16.515 4.558,17.660 5.055,17.701 5.121 C 17.711 5.138,17.562 5.101,17.370 5.039 C 16.689 4.820,16.410 4.781,15.520 4.782 C 14.648 4.782,14.335 4.824,13.768 5.017 C 13.453 5.125,12.920 5.387,12.920 5.434 C 12.920 5.452,12.988 5.488,13.070 5.512 C 13.328 5.590,13.927 5.902,14.231 6.117 C 15.189 6.796,16.025 8.059,16.419 9.420 C 16.674 10.300,16.726 10.669,16.748 11.760 C 16.771 12.866,16.735 13.279,16.540 14.100 C 16.038 16.221,14.785 17.862,13.230 18.436 C 13.074 18.493,12.940 18.561,12.931 18.586 C 12.910 18.649,13.278 18.817,13.841 19.002 C 14.525 19.226,14.711 19.249,15.706 19.230 L 16.580 19.213 17.115 19.045 C 17.410 18.953,17.659 18.886,17.671 18.897 C 17.693 18.920,17.062 19.222,16.614 19.404 C 16.243 19.554,15.602 19.705,15.112 19.758 C 13.308 19.953,11.592 19.412,10.140 18.192 C 8.720 16.998,7.818 15.403,7.498 13.520 C 7.398 12.929,7.375 11.467,7.456 10.808 C 7.647 9.252,8.160 8.042,9.149 6.820 C 10.148 5.586,11.406 4.766,12.863 4.398 C 13.661 4.196,14.310 4.171,15.364 4.302 " fill="#373B4D" stroke="none" fill-rule="evenodd"></path></svg>