<svg width="24" height="24" viewBox="0 0 24 24" fill="none" xmlns="http://www.w3.org/2000/svg"><path d="M11.340 3.027 C 9.124 3.215,7.161 4.119,5.621 5.661 C 3.874 7.410,2.922 9.833,3.012 12.300 C 3.062 13.641,3.350 14.788,3.938 15.980 C 6.126 20.421,11.534 22.266,15.952 20.080 C 16.716 19.702,17.883 18.910,17.849 18.792 C 17.843 18.771,17.855 18.764,17.875 18.777 C 17.925 18.808,18.670 18.064,18.997 17.659 C 20.063 16.335,20.741 14.714,20.941 13.008 C 21.216 10.655,20.503 8.211,18.997 6.341 C 18.670 5.936,17.925 5.192,17.875 5.223 C 17.855 5.236,17.843 5.229,17.849 5.209 C 17.878 5.110,16.776 4.339,16.135 4.010 C 14.672 3.259,12.896 2.895,11.340 3.027 M15.633 4.318 C 16.236 4.443,16.639 4.578,17.180 4.839 C 17.723 5.101,17.961 5.257,17.600 5.114 C 16.398 4.642,14.877 4.607,13.711 5.026 C 13.366 5.149,12.880 5.388,12.880 5.433 C 12.880 5.451,12.970 5.488,13.079 5.516 C 13.359 5.588,13.876 5.845,14.224 6.086 C 14.612 6.354,15.206 6.977,15.518 7.443 C 17.445 10.324,17.160 14.950,14.911 17.303 C 14.341 17.899,13.749 18.286,13.130 18.467 C 12.993 18.507,12.886 18.557,12.893 18.578 C 12.934 18.703,13.831 19.047,14.481 19.187 C 14.958 19.289,16.122 19.289,16.593 19.186 C 16.907 19.118,17.566 18.915,17.740 18.833 L 17.820 18.796 17.740 18.863 C 17.622 18.962,16.740 19.377,16.440 19.475 C 15.520 19.775,14.395 19.877,13.489 19.744 C 11.671 19.475,10.093 18.482,8.847 16.820 C 7.896 15.552,7.360 13.815,7.360 12.000 C 7.360 10.080,7.904 8.397,8.966 7.027 C 10.191 5.448,11.666 4.543,13.480 4.257 C 13.988 4.177,15.107 4.209,15.633 4.318 " fill="#373B4D" stroke="none" fill-rule="evenodd"></path></svg>