<svg width="24" height="24" viewBox="0 0 24 24" fill="none" xmlns="http://www.w3.org/2000/svg"><path d="M11.400 3.023 C 10.407 3.137,9.824 3.255,9.160 3.477 C 7.740 3.952,6.567 4.698,5.498 5.804 C 2.737 8.664,2.213 13.070,4.225 16.513 C 4.622 17.193,5.027 17.712,5.638 18.323 C 6.489 19.177,7.276 19.730,8.282 20.183 C 10.463 21.164,12.886 21.260,15.080 20.452 C 16.205 20.037,17.310 19.347,18.171 18.520 C 18.800 17.916,19.085 17.581,19.506 16.951 C 20.271 15.807,20.815 14.268,20.958 12.846 C 21.180 10.651,20.477 8.237,19.107 6.480 C 18.903 6.219,17.966 5.240,17.919 5.240 C 17.906 5.240,17.811 5.160,17.708 5.062 C 17.436 4.801,16.506 4.198,15.989 3.948 C 15.124 3.528,14.181 3.238,13.240 3.102 C 12.796 3.038,11.687 2.990,11.400 3.023 M14.846 4.240 C 15.449 4.279,15.946 4.368,16.400 4.519 C 16.663 4.606,17.771 5.123,17.747 5.147 C 17.739 5.154,17.600 5.114,17.437 5.058 C 16.791 4.836,16.278 4.756,15.494 4.756 C 14.865 4.755,14.322 4.831,13.842 4.986 C 13.447 5.115,12.871 5.393,12.901 5.442 C 12.914 5.463,12.943 5.480,12.966 5.480 C 12.988 5.480,13.145 5.535,13.313 5.602 C 15.070 6.302,16.339 8.212,16.706 10.708 C 16.790 11.281,16.801 12.606,16.726 13.140 C 16.489 14.833,15.907 16.189,14.967 17.238 C 14.491 17.770,13.768 18.263,13.180 18.456 C 12.857 18.562,12.848 18.578,13.045 18.693 C 13.266 18.821,14.061 19.095,14.469 19.184 C 14.851 19.267,16.126 19.280,16.512 19.205 C 16.650 19.178,16.982 19.086,17.250 19.000 C 17.518 18.914,17.744 18.850,17.751 18.858 C 17.775 18.882,16.800 19.343,16.499 19.451 C 15.255 19.897,13.671 19.907,12.386 19.478 C 10.625 18.890,9.030 17.458,8.179 15.700 C 7.626 14.559,7.380 13.402,7.383 11.960 C 7.387 9.915,7.925 8.328,9.111 6.856 C 10.424 5.225,12.213 4.283,14.140 4.206 C 14.206 4.204,14.524 4.219,14.846 4.240 " fill="#373B4D" stroke="none" fill-rule="evenodd"></path></svg>