<svg width="24" height="24" viewBox="0 0 24 24" fill="none" xmlns="http://www.w3.org/2000/svg"><path d="M8.558 4.116 C 8.460 4.180,7.201 5.121,5.760 6.207 C 3.756 7.718,3.124 8.215,3.070 8.321 C 3.007 8.446,3.000 8.612,3.000 9.980 C 3.000 11.347,3.007 11.514,3.070 11.640 C 3.124 11.748,3.741 12.233,5.780 13.773 C 7.232 14.869,8.499 15.802,8.595 15.847 C 8.798 15.941,8.942 15.905,8.981 15.751 C 8.993 15.701,8.998 15.045,8.992 14.293 C 8.980 12.979,8.977 12.921,8.897 12.813 C 8.851 12.751,8.074 12.142,7.170 11.460 C 6.266 10.778,5.489 10.186,5.443 10.144 C 5.337 10.047,5.337 9.914,5.443 9.816 C 5.488 9.774,6.266 9.182,7.171 8.500 C 8.076 7.818,8.853 7.209,8.898 7.147 C 8.977 7.039,8.980 6.973,8.991 5.573 C 9.000 4.509,8.990 4.096,8.957 4.056 C 8.885 3.969,8.752 3.989,8.558 4.116 M13.540 4.082 C 13.371 4.132,13.143 4.332,13.064 4.498 C 12.967 4.701,9.034 19.791,9.031 19.969 C 9.029 20.146,9.126 20.309,9.265 20.362 C 9.320 20.383,9.828 20.400,10.393 20.399 C 11.303 20.398,11.438 20.390,11.582 20.325 C 11.769 20.240,11.935 20.058,11.995 19.871 C 12.018 19.799,12.748 17.013,13.616 13.680 C 14.484 10.347,15.206 7.589,15.221 7.552 C 15.258 7.456,15.390 7.423,15.480 7.487 C 15.521 7.516,16.240 8.053,17.077 8.680 C 18.611 9.829,18.710 9.919,18.612 10.076 C 18.590 10.111,17.811 10.716,16.880 11.420 C 15.949 12.124,15.149 12.751,15.103 12.813 C 15.023 12.921,15.020 12.979,15.009 14.323 C 15.001 15.262,15.011 15.746,15.040 15.800 C 15.094 15.900,15.290 15.904,15.463 15.808 C 15.530 15.771,16.775 14.844,18.229 13.748 C 20.286 12.198,20.884 11.728,20.926 11.628 C 20.968 11.528,20.980 11.166,20.980 9.960 C 20.980 8.490,20.976 8.414,20.900 8.290 C 20.849 8.208,19.818 7.407,18.080 6.100 L 15.341 4.040 14.500 4.044 C 14.038 4.046,13.606 4.063,13.540 4.082 " fill="#373B4D" stroke="none" fill-rule="evenodd"></path></svg>