<svg width="24" height="24" viewBox="0 0 24 24" fill="none" xmlns="http://www.w3.org/2000/svg"><path d="M8.692 4.041 C 8.586 4.083,4.169 7.399,3.540 7.908 C 3.185 8.195,3.090 8.294,3.048 8.422 C 3.008 8.543,2.998 8.929,3.008 10.094 L 3.020 11.609 3.203 11.775 C 3.463 12.010,4.357 12.700,6.040 13.966 C 8.493 15.812,8.682 15.941,8.840 15.890 C 8.993 15.841,9.000 15.780,8.997 14.522 C 8.995 13.850,8.980 13.196,8.964 13.069 C 8.939 12.865,8.917 12.823,8.780 12.709 C 8.553 12.521,7.479 11.695,6.386 10.867 C 5.861 10.470,5.413 10.105,5.392 10.057 C 5.365 9.999,5.365 9.945,5.394 9.892 C 5.417 9.849,6.016 9.374,6.726 8.837 C 8.264 7.673,8.882 7.184,8.938 7.090 C 8.996 6.991,9.020 4.256,8.964 4.110 C 8.920 3.996,8.849 3.977,8.692 4.041 M13.700 4.076 C 13.437 4.102,13.201 4.244,13.102 4.437 C 13.005 4.623,11.791 9.203,10.025 16.040 C 8.946 20.221,8.969 20.107,9.160 20.298 C 9.239 20.377,9.285 20.380,10.374 20.380 L 11.506 20.380 11.668 20.273 C 11.757 20.214,11.867 20.106,11.911 20.033 C 11.958 19.956,12.361 18.490,12.859 16.580 C 14.873 8.867,15.128 7.890,15.184 7.694 C 15.247 7.476,15.328 7.417,15.464 7.492 C 15.506 7.514,16.143 7.984,16.880 8.536 C 18.164 9.496,18.640 9.890,18.640 9.991 C 18.640 10.062,18.447 10.225,17.556 10.904 C 16.860 11.434,15.410 12.555,15.148 12.765 C 15.095 12.808,15.056 12.904,15.036 13.045 C 15.000 13.305,14.990 15.539,15.025 15.714 C 15.053 15.855,15.144 15.899,15.325 15.859 C 15.486 15.823,20.374 12.163,20.813 11.749 L 20.951 11.619 20.981 10.860 C 21.017 9.947,20.984 8.439,20.925 8.329 C 20.870 8.226,19.721 7.335,17.302 5.517 L 15.335 4.040 14.638 4.046 C 14.254 4.049,13.832 4.063,13.700 4.076 " fill="#373B4D" stroke="none" fill-rule="evenodd"></path></svg>