<svg width="24" height="24" viewBox="0 0 24 24" fill="none" xmlns="http://www.w3.org/2000/svg"><path d="M11.380 2.685 C 10.985 3.032,10.486 3.977,6.644 11.640 C 4.342 16.233,2.763 19.434,2.593 19.852 C 2.468 20.159,2.466 20.686,2.590 20.885 C 2.715 21.085,3.011 21.351,3.212 21.442 C 3.425 21.539,3.580 21.539,4.047 21.443 C 5.413 21.162,9.424 19.991,10.029 19.697 C 10.393 19.520,10.697 19.233,10.735 19.031 C 10.793 18.724,10.838 16.940,10.839 14.933 L 10.840 12.846 11.048 12.618 C 11.400 12.234,11.479 12.200,12.029 12.200 C 12.535 12.201,12.626 12.229,12.791 12.441 C 13.026 12.741,13.045 12.889,13.118 14.980 C 13.237 18.351,13.271 18.885,13.382 19.151 C 13.458 19.334,13.692 19.582,13.880 19.679 C 14.084 19.783,15.242 20.154,16.640 20.561 C 19.032 21.258,20.234 21.547,20.557 21.503 C 20.886 21.459,21.213 21.200,21.408 20.829 C 21.531 20.596,21.528 20.231,21.402 19.860 C 21.296 19.546,13.717 4.371,13.292 3.620 C 12.947 3.010,12.670 2.714,12.363 2.624 C 12.243 2.589,12.005 2.560,11.834 2.560 C 11.542 2.560,11.514 2.568,11.380 2.685 " fill="#373B4D" stroke="none" fill-rule="evenodd"></path></svg>