<svg width="24" height="24" viewBox="0 0 24 24" fill="none" xmlns="http://www.w3.org/2000/svg"><path d="M8.346 2.581 C 7.697 2.704,6.954 3.016,6.337 3.425 C 5.927 3.696,5.225 4.356,4.853 4.820 C 4.214 5.617,3.768 6.708,3.679 7.695 C 3.659 7.918,3.631 9.459,3.616 11.120 L 3.589 14.140 3.751 14.760 C 4.279 16.772,4.881 17.886,6.098 19.101 C 6.636 19.638,7.231 20.115,7.707 20.392 C 9.494 21.430,11.636 21.816,13.520 21.438 C 14.441 21.253,15.494 20.848,16.300 20.368 C 17.203 19.830,18.405 18.677,19.010 17.768 C 19.601 16.880,20.154 15.444,20.280 14.471 C 20.339 14.023,20.397 11.689,20.399 9.748 C 20.400 7.907,20.422 8.019,19.987 7.612 C 19.781 7.420,19.685 7.359,19.519 7.320 C 19.267 7.259,18.903 7.287,18.703 7.381 C 18.464 7.494,18.166 7.788,18.122 7.953 C 18.056 8.197,18.004 9.312,17.960 11.365 C 17.938 12.435,17.900 13.549,17.877 13.841 C 17.765 15.238,17.218 16.379,16.155 17.431 C 15.644 17.936,15.229 18.239,14.660 18.518 C 13.557 19.062,12.671 19.225,11.360 19.128 C 10.931 19.096,10.783 19.065,10.315 18.909 C 9.678 18.696,9.036 18.402,8.680 18.160 C 8.381 17.957,7.610 17.219,7.306 16.845 C 7.037 16.514,6.738 15.986,6.478 15.378 C 6.122 14.550,6.147 14.865,6.130 10.933 L 6.116 7.446 6.282 7.113 C 6.891 5.894,7.834 5.087,8.800 4.958 C 9.275 4.895,10.252 4.892,10.524 4.953 C 10.648 4.981,10.890 5.075,11.062 5.163 C 11.883 5.584,12.427 6.146,12.880 7.043 L 13.073 7.425 13.114 9.643 C 13.160 12.196,13.132 13.506,13.025 13.712 C 12.930 13.894,12.677 14.139,12.472 14.248 C 12.244 14.368,11.732 14.378,11.522 14.265 C 11.316 14.153,10.976 13.795,10.948 13.659 C 10.903 13.446,10.839 11.779,10.805 9.939 C 10.767 7.884,10.775 7.932,10.414 7.596 C 10.167 7.366,9.993 7.307,9.560 7.303 C 9.282 7.301,9.190 7.316,9.055 7.388 C 8.816 7.516,8.536 7.811,8.504 7.968 C 8.440 8.285,8.402 9.658,8.401 11.724 L 8.400 13.948 8.618 14.392 C 8.914 14.996,9.163 15.363,9.520 15.723 C 9.874 16.082,10.150 16.274,10.719 16.560 L 11.139 16.770 11.979 16.751 C 12.807 16.732,12.825 16.730,13.144 16.605 C 13.804 16.347,14.561 15.739,14.973 15.133 C 15.076 14.983,15.258 14.644,15.380 14.380 L 15.600 13.900 15.600 10.708 L 15.600 7.515 15.398 6.907 C 15.163 6.203,14.859 5.544,14.560 5.096 C 14.247 4.627,13.399 3.801,12.868 3.448 C 12.222 3.017,11.655 2.765,11.009 2.617 C 10.609 2.526,8.771 2.501,8.346 2.581 " fill="#373B4D" stroke="none" fill-rule="evenodd"></path></svg>