<svg width="24" height="24" viewBox="0 0 24 24" fill="none" xmlns="http://www.w3.org/2000/svg"><path d="M8.460 2.519 C 7.255 2.780,6.304 3.275,5.473 4.073 C 4.738 4.778,4.235 5.569,3.919 6.512 C 3.620 7.408,3.634 7.221,3.612 10.480 C 3.590 13.571,3.605 14.007,3.763 14.829 C 4.000 16.055,4.685 17.532,5.434 18.430 C 6.561 19.780,7.815 20.654,9.353 21.160 C 11.554 21.885,13.804 21.705,15.872 20.638 C 16.788 20.165,17.492 19.609,18.307 18.714 C 19.148 17.791,19.789 16.584,20.119 15.304 C 20.373 14.320,20.370 14.359,20.389 11.256 C 20.401 9.317,20.393 8.338,20.363 8.176 C 20.297 7.816,20.086 7.535,19.756 7.367 C 19.530 7.251,19.453 7.233,19.203 7.233 C 18.703 7.233,18.291 7.497,18.090 7.946 C 18.029 8.085,18.020 8.382,17.997 10.960 C 17.975 13.382,17.961 13.877,17.905 14.189 C 17.663 15.525,17.101 16.589,16.155 17.502 C 14.885 18.729,13.192 19.324,11.429 19.165 C 10.026 19.038,8.685 18.383,7.678 17.332 C 7.062 16.689,6.583 15.885,6.298 15.016 C 6.037 14.220,6.040 14.269,6.041 10.886 C 6.041 7.538,6.037 7.604,6.278 7.039 C 6.741 5.950,7.822 5.054,8.881 4.883 C 9.214 4.829,9.985 4.829,10.320 4.883 C 11.405 5.058,12.509 6.000,12.957 7.134 C 13.159 7.646,13.160 7.658,13.160 10.683 L 13.160 13.523 13.060 13.720 C 12.790 14.252,12.227 14.507,11.674 14.346 C 11.361 14.255,11.122 14.057,10.958 13.754 L 10.821 13.500 10.808 10.820 L 10.795 8.140 10.691 7.922 C 10.465 7.451,10.117 7.240,9.568 7.240 C 9.311 7.240,9.239 7.257,9.034 7.367 C 8.784 7.500,8.605 7.690,8.489 7.946 C 8.426 8.087,8.419 8.344,8.409 10.930 L 8.397 13.760 8.544 14.200 C 8.930 15.364,9.704 16.176,10.837 16.608 L 11.180 16.739 12.000 16.739 L 12.820 16.739 13.163 16.608 C 13.739 16.389,14.095 16.155,14.540 15.705 C 15.007 15.232,15.209 14.905,15.448 14.231 L 15.607 13.780 15.589 10.660 L 15.570 7.540 15.465 7.127 C 15.146 5.872,14.598 4.909,13.729 4.075 C 12.938 3.315,12.005 2.810,10.920 2.553 C 10.401 2.430,8.961 2.410,8.460 2.519 " fill="#373B4D" stroke="none" fill-rule="evenodd"></path></svg>