<svg width="24" height="24" viewBox="0 0 24 24" fill="none" xmlns="http://www.w3.org/2000/svg"><path d="M8.660 2.560 C 8.309 2.583,8.132 2.618,7.785 2.735 C 6.938 3.020,6.350 3.361,5.700 3.946 C 4.684 4.858,4.112 5.776,3.802 6.994 C 3.668 7.519,3.642 8.100,3.616 11.200 L 3.590 14.180 3.775 14.846 C 4.337 16.870,4.877 17.864,6.062 19.055 C 7.007 20.004,7.791 20.530,8.922 20.974 C 10.418 21.560,12.023 21.723,13.496 21.439 C 14.574 21.231,15.885 20.682,16.705 20.096 C 17.557 19.487,18.531 18.496,19.021 17.742 C 19.593 16.862,20.119 15.511,20.261 14.560 C 20.379 13.762,20.455 8.621,20.355 8.154 C 20.320 7.989,20.267 7.899,20.106 7.729 C 19.850 7.459,19.639 7.335,19.373 7.300 C 18.937 7.243,18.471 7.441,18.226 7.788 C 18.053 8.034,18.054 8.010,17.919 12.503 C 17.866 14.279,17.788 14.794,17.455 15.571 C 17.072 16.467,16.236 17.486,15.399 18.076 C 14.799 18.500,13.889 18.891,13.100 19.065 C 12.849 19.120,12.600 19.135,11.940 19.133 C 11.171 19.132,11.068 19.123,10.716 19.029 C 10.222 18.898,9.332 18.542,8.941 18.318 C 8.383 17.999,7.485 17.132,7.098 16.540 C 6.662 15.871,6.269 14.977,6.202 14.500 C 6.174 14.298,6.148 12.940,6.133 10.820 L 6.108 7.460 6.258 7.160 C 6.714 6.250,7.369 5.537,8.059 5.197 C 8.483 4.989,8.674 4.954,9.543 4.931 C 10.225 4.913,10.381 4.920,10.581 4.979 C 11.082 5.124,11.629 5.463,12.063 5.897 C 12.387 6.221,12.587 6.504,12.880 7.053 L 13.087 7.439 13.093 10.390 C 13.097 12.012,13.085 13.428,13.067 13.537 C 13.039 13.698,12.994 13.774,12.812 13.965 C 12.671 14.113,12.523 14.223,12.405 14.268 C 12.165 14.361,11.709 14.361,11.532 14.268 C 11.329 14.161,11.005 13.806,10.962 13.645 C 10.917 13.474,10.853 11.949,10.801 9.780 C 10.758 7.975,10.747 7.909,10.458 7.642 C 10.178 7.385,10.005 7.322,9.568 7.321 C 9.305 7.320,9.160 7.339,9.073 7.383 C 8.907 7.469,8.607 7.751,8.537 7.886 C 8.448 8.058,8.402 9.386,8.401 11.811 L 8.400 13.961 8.604 14.371 C 9.157 15.479,9.730 16.066,10.759 16.581 L 11.139 16.770 11.979 16.751 C 12.787 16.733,12.831 16.728,13.099 16.620 C 13.616 16.411,14.132 16.058,14.544 15.633 C 14.911 15.253,15.059 15.035,15.342 14.454 L 15.600 13.925 15.600 10.703 L 15.600 7.480 15.382 6.867 C 14.981 5.740,14.687 5.199,14.150 4.595 C 13.539 3.910,12.872 3.397,12.100 3.019 C 11.418 2.685,11.080 2.603,10.200 2.559 C 9.390 2.519,9.305 2.519,8.660 2.560 " fill="#373B4D" stroke="none" fill-rule="evenodd"></path></svg>