<svg width="24" height="24" viewBox="0 0 24 24" fill="none" xmlns="http://www.w3.org/2000/svg"><path d="M8.517 2.599 C 7.856 2.663,6.842 3.091,6.197 3.576 C 5.772 3.896,5.033 4.631,4.727 5.037 C 4.317 5.581,3.976 6.331,3.807 7.060 C 3.680 7.606,3.638 8.571,3.612 11.545 L 3.589 14.229 3.780 14.865 C 4.308 16.622,4.710 17.459,5.447 18.340 C 5.881 18.859,6.724 19.664,7.227 20.039 C 8.179 20.751,9.757 21.350,11.119 21.518 C 12.568 21.697,14.239 21.379,15.740 20.640 C 16.585 20.223,17.377 19.610,18.166 18.759 C 19.066 17.790,19.519 17.007,19.980 15.620 C 20.291 14.685,20.340 14.115,20.383 10.960 C 20.411 8.845,20.382 8.233,20.236 7.931 C 20.126 7.704,19.762 7.428,19.485 7.361 C 19.028 7.252,18.439 7.483,18.219 7.859 C 18.071 8.111,18.027 8.678,17.920 11.720 C 17.844 13.868,17.771 14.653,17.597 15.169 C 17.440 15.634,17.125 16.186,16.670 16.793 C 15.896 17.824,15.078 18.392,13.609 18.916 L 13.039 19.120 12.004 19.120 L 10.969 19.120 10.512 18.962 C 9.979 18.779,9.258 18.476,9.000 18.328 C 8.901 18.271,8.712 18.143,8.580 18.044 C 8.216 17.770,7.358 16.893,7.167 16.600 C 6.940 16.252,6.523 15.425,6.350 14.980 L 6.210 14.620 6.164 11.720 C 6.139 10.125,6.119 8.503,6.119 8.115 L 6.120 7.411 6.390 6.965 C 6.931 6.074,7.472 5.521,8.096 5.221 C 8.488 5.032,8.647 5.007,9.688 4.976 L 10.580 4.948 10.840 5.079 C 11.755 5.540,12.230 5.996,12.825 6.985 L 13.087 7.420 13.069 10.461 L 13.050 13.502 12.949 13.703 C 12.815 13.966,12.534 14.222,12.314 14.282 C 12.041 14.356,11.669 14.309,11.451 14.174 C 11.223 14.032,11.018 13.742,10.985 13.513 C 10.951 13.270,10.889 12.000,10.840 10.540 C 10.782 8.829,10.730 8.137,10.644 7.940 C 10.562 7.753,10.333 7.540,10.103 7.436 C 9.888 7.338,9.254 7.330,9.076 7.422 C 8.909 7.509,8.646 7.752,8.578 7.883 C 8.467 8.098,8.436 8.735,8.412 11.324 L 8.388 13.948 8.624 14.397 C 9.155 15.407,9.880 16.137,10.829 16.614 L 11.118 16.760 11.670 16.760 C 12.317 16.760,12.810 16.705,13.107 16.601 C 13.414 16.493,14.092 16.035,14.434 15.704 C 14.811 15.341,15.014 15.055,15.339 14.433 L 15.600 13.932 15.600 10.708 L 15.600 7.484 15.445 7.052 C 14.929 5.611,14.392 4.769,13.484 3.980 C 13.004 3.563,12.776 3.415,12.100 3.084 C 11.424 2.753,11.247 2.693,10.780 2.642 C 10.262 2.585,8.919 2.560,8.517 2.599 " fill="#373B4D" stroke="none" fill-rule="evenodd"></path></svg>