<svg width="24" height="24" viewBox="0 0 24 24" fill="none" xmlns="http://www.w3.org/2000/svg"><path d="M8.820 2.521 C 7.767 2.593,6.621 3.099,5.732 3.885 C 5.344 4.228,4.838 4.795,4.594 5.158 C 4.124 5.858,3.746 6.870,3.681 7.600 C 3.659 7.853,3.629 9.419,3.615 11.080 L 3.590 14.100 3.752 14.760 C 4.229 16.698,4.933 17.988,6.165 19.183 C 6.877 19.874,7.473 20.302,8.267 20.696 C 9.936 21.522,11.948 21.793,13.631 21.417 C 15.033 21.104,16.271 20.518,17.226 19.713 C 17.671 19.338,18.518 18.457,18.803 18.073 C 19.276 17.435,19.699 16.581,19.995 15.670 C 20.332 14.634,20.352 14.392,20.386 10.840 L 20.412 8.180 20.323 8.004 C 20.204 7.774,19.883 7.456,19.670 7.359 C 19.438 7.253,18.963 7.253,18.732 7.358 C 18.537 7.446,18.218 7.728,18.139 7.883 C 18.061 8.033,18.007 9.044,17.979 10.900 C 17.950 12.862,17.897 14.023,17.817 14.443 C 17.610 15.532,17.056 16.548,16.202 17.401 C 15.378 18.224,14.521 18.706,13.307 19.028 C 12.925 19.129,12.845 19.136,12.020 19.138 C 11.420 19.139,11.064 19.123,10.900 19.086 C 10.140 18.915,9.023 18.433,8.539 18.067 C 8.232 17.834,7.413 17.011,7.181 16.700 C 6.968 16.415,6.586 15.684,6.386 15.179 C 6.099 14.453,6.099 14.460,6.108 10.750 L 6.116 7.440 6.285 7.095 C 6.675 6.295,7.163 5.730,7.808 5.329 C 8.309 5.018,8.495 4.965,9.264 4.914 C 10.144 4.855,10.532 4.901,10.990 5.119 C 11.840 5.524,12.418 6.105,12.873 7.013 L 13.078 7.422 13.123 9.521 C 13.169 11.652,13.149 13.330,13.074 13.620 C 13.026 13.808,12.707 14.140,12.460 14.259 C 12.230 14.369,11.842 14.387,11.609 14.298 C 11.402 14.219,11.067 13.927,10.972 13.744 C 10.890 13.585,10.846 12.618,10.808 10.100 C 10.778 8.129,10.776 8.097,10.687 7.928 C 10.572 7.711,10.341 7.478,10.147 7.386 C 9.934 7.285,9.345 7.251,9.160 7.329 C 8.937 7.424,8.598 7.715,8.535 7.866 C 8.438 8.098,8.395 9.425,8.408 11.780 L 8.420 13.980 8.648 14.450 C 8.939 15.052,9.213 15.446,9.586 15.801 C 9.935 16.132,10.170 16.288,10.730 16.564 L 11.140 16.766 11.980 16.750 C 12.762 16.736,12.839 16.727,13.088 16.633 C 13.881 16.332,14.642 15.702,15.072 14.988 C 15.145 14.868,15.289 14.582,15.392 14.354 L 15.580 13.940 15.591 10.740 L 15.602 7.540 15.441 7.033 C 15.019 5.706,14.595 4.978,13.783 4.186 C 12.762 3.191,11.514 2.583,10.400 2.538 C 9.418 2.497,9.207 2.495,8.820 2.521 " fill="#373B4D" stroke="none" fill-rule="evenodd"></path></svg>