<svg width="24" height="24" viewBox="0 0 24 24" fill="none" xmlns="http://www.w3.org/2000/svg"><path d="M8.320 2.640 C 7.883 2.698,7.132 3.002,6.547 3.356 C 5.967 3.708,4.932 4.712,4.572 5.272 C 4.232 5.800,3.906 6.586,3.786 7.168 C 3.678 7.694,3.632 8.998,3.626 11.760 L 3.620 14.420 3.914 15.298 C 4.547 17.187,4.952 17.875,6.120 19.040 C 7.275 20.193,7.980 20.626,9.540 21.141 C 10.713 21.528,11.566 21.630,12.703 21.517 C 14.679 21.320,16.423 20.489,17.851 19.063 C 18.833 18.083,19.388 17.239,19.816 16.076 C 20.281 14.811,20.342 14.267,20.385 11.000 C 20.409 9.146,20.383 8.439,20.275 8.078 C 20.162 7.702,19.671 7.360,19.244 7.360 C 19.121 7.360,18.954 7.379,18.873 7.401 C 18.675 7.456,18.360 7.677,18.252 7.836 C 18.084 8.084,18.037 8.557,17.941 10.960 C 17.836 13.586,17.778 14.388,17.655 14.928 C 17.517 15.538,16.877 16.595,16.201 17.330 C 15.564 18.023,14.707 18.529,13.377 18.999 L 13.024 19.124 11.942 19.112 L 10.860 19.100 10.300 18.887 C 9.454 18.565,8.901 18.286,8.560 18.011 C 8.119 17.655,7.355 16.856,7.149 16.537 C 6.937 16.209,6.535 15.416,6.345 14.951 L 6.210 14.620 6.161 11.026 L 6.112 7.432 6.323 7.086 C 6.926 6.094,7.443 5.568,8.140 5.236 C 8.521 5.054,8.773 5.016,9.842 4.978 L 10.585 4.951 10.802 5.061 C 11.644 5.485,12.222 6.037,12.822 6.989 L 13.080 7.399 13.077 8.609 C 13.072 10.758,13.010 13.491,12.963 13.645 C 12.897 13.863,12.565 14.179,12.316 14.261 C 11.801 14.432,11.194 14.137,11.046 13.644 C 10.979 13.420,10.929 12.686,10.860 10.900 C 10.756 8.241,10.721 7.961,10.454 7.702 C 10.200 7.455,9.993 7.381,9.560 7.380 C 9.123 7.380,9.030 7.416,8.747 7.699 C 8.603 7.843,8.557 7.925,8.523 8.090 C 8.457 8.411,8.401 10.307,8.401 12.234 L 8.400 13.968 8.562 14.278 C 9.130 15.370,9.885 16.140,10.880 16.641 L 11.140 16.772 11.860 16.747 C 12.931 16.711,13.247 16.612,13.960 16.088 C 14.560 15.647,14.952 15.167,15.384 14.348 L 15.598 13.940 15.599 10.700 L 15.600 7.460 15.417 6.980 C 14.797 5.351,14.033 4.295,12.960 3.581 C 12.619 3.354,11.851 2.961,11.433 2.799 C 11.106 2.673,11.083 2.670,10.180 2.637 C 9.108 2.598,8.626 2.599,8.320 2.640 " fill="#373B4D" stroke="none" fill-rule="evenodd"></path></svg>