<svg width="24" height="24" viewBox="0 0 24 24" fill="none" xmlns="http://www.w3.org/2000/svg"><path d="M8.634 2.519 C 8.022 2.597,7.225 2.875,6.660 3.208 C 6.143 3.513,5.863 3.734,5.379 4.218 C 4.650 4.947,4.250 5.591,3.904 6.590 C 3.647 7.335,3.647 7.333,3.619 10.860 L 3.593 14.060 3.698 14.540 C 4.124 16.485,4.861 17.902,6.079 19.113 C 7.392 20.420,8.860 21.165,10.760 21.488 C 11.478 21.611,12.627 21.611,13.300 21.489 C 14.733 21.229,16.207 20.576,17.160 19.778 C 17.514 19.482,18.350 18.642,18.632 18.300 C 19.272 17.522,19.858 16.307,20.165 15.120 C 20.330 14.481,20.356 13.980,20.386 10.840 L 20.412 8.180 20.323 8.006 C 20.196 7.757,19.935 7.489,19.702 7.369 C 19.409 7.217,18.987 7.220,18.686 7.375 C 18.404 7.520,18.141 7.787,18.105 7.962 C 18.044 8.265,18.004 9.229,17.981 11.000 C 17.948 13.534,17.911 14.153,17.763 14.729 C 17.196 16.929,15.385 18.610,13.076 19.081 C 12.584 19.181,11.564 19.190,11.000 19.098 C 10.283 18.982,9.326 18.593,8.627 18.134 C 8.257 17.890,7.354 16.985,7.104 16.606 C 6.821 16.178,6.466 15.445,6.296 14.940 C 6.086 14.314,6.068 13.913,6.092 10.388 L 6.113 7.436 6.332 6.988 C 6.707 6.225,7.190 5.691,7.872 5.284 C 8.387 4.977,8.588 4.928,9.451 4.896 C 10.320 4.863,10.605 4.909,11.104 5.164 C 11.909 5.575,12.493 6.190,12.907 7.065 L 13.085 7.440 13.127 9.370 C 13.150 10.431,13.159 11.817,13.148 12.450 C 13.124 13.743,13.135 13.694,12.792 14.028 C 12.336 14.473,11.661 14.487,11.224 14.061 C 10.866 13.713,10.876 13.774,10.837 11.843 C 10.819 10.906,10.803 9.694,10.802 9.149 C 10.800 8.178,10.798 8.153,10.702 7.964 C 10.567 7.698,10.424 7.537,10.207 7.410 C 10.049 7.318,9.967 7.300,9.638 7.287 C 9.311 7.274,9.230 7.283,9.097 7.352 C 8.880 7.464,8.611 7.703,8.532 7.854 C 8.435 8.041,8.396 9.296,8.409 11.813 L 8.420 13.940 8.605 14.368 C 8.834 14.898,9.149 15.376,9.506 15.735 C 9.849 16.078,10.136 16.275,10.676 16.536 L 11.100 16.740 11.852 16.752 C 12.761 16.767,12.914 16.740,13.475 16.459 C 14.360 16.016,15.022 15.286,15.407 14.329 L 15.580 13.900 15.591 10.715 L 15.601 7.530 15.396 6.895 C 15.001 5.673,14.608 5.004,13.822 4.216 C 13.005 3.396,11.966 2.808,10.920 2.574 C 10.612 2.505,9.040 2.467,8.634 2.519 " fill="#373B4D" stroke="none" fill-rule="evenodd"></path></svg>