<svg width="24" height="24" viewBox="0 0 24 24" fill="none" xmlns="http://www.w3.org/2000/svg"><path d="M11.740 2.478 C 11.319 2.549,11.142 2.751,10.600 3.781 C 10.357 4.242,8.413 8.106,6.279 12.367 C 3.447 18.023,2.400 20.150,2.401 20.247 C 2.403 20.664,2.620 21.131,2.906 21.333 C 3.361 21.655,3.497 21.646,5.220 21.176 C 7.773 20.478,9.885 19.844,10.178 19.687 C 10.302 19.620,10.445 19.493,10.556 19.348 L 10.736 19.116 10.764 18.328 C 10.780 17.895,10.805 16.483,10.821 15.190 L 10.850 12.841 11.017 12.591 C 11.126 12.428,11.253 12.298,11.380 12.220 C 11.566 12.105,11.594 12.100,12.022 12.101 C 12.448 12.102,12.478 12.108,12.634 12.216 C 12.724 12.278,12.844 12.390,12.901 12.465 C 13.131 12.767,13.130 12.758,13.166 14.680 C 13.185 15.659,13.216 17.048,13.234 17.767 L 13.268 19.073 13.374 19.254 C 13.499 19.466,13.752 19.681,13.984 19.771 C 14.243 19.871,15.608 20.278,17.220 20.735 C 19.922 21.501,20.062 21.536,20.441 21.538 C 20.762 21.540,20.794 21.532,20.995 21.403 C 21.340 21.182,21.600 20.686,21.600 20.252 C 21.600 20.157,20.752 18.423,18.605 14.130 C 15.441 7.802,13.383 3.733,13.041 3.126 C 12.875 2.831,12.801 2.741,12.659 2.658 C 12.387 2.498,12.034 2.429,11.740 2.478 " fill="#373B4D" stroke="none" fill-rule="evenodd"></path></svg>