<svg width="24" height="24" viewBox="0 0 24 24" fill="none" xmlns="http://www.w3.org/2000/svg"><path d="M8.100 2.676 C 7.479 2.845,6.788 3.167,6.280 3.523 C 5.829 3.838,4.857 4.828,4.582 5.250 C 4.195 5.846,3.859 6.681,3.762 7.286 C 3.676 7.827,3.639 8.881,3.613 11.503 L 3.587 14.226 3.795 14.911 C 4.267 16.468,4.614 17.234,5.208 18.028 C 5.720 18.713,6.719 19.685,7.393 20.153 C 8.124 20.661,9.444 21.195,10.528 21.421 C 11.475 21.619,12.684 21.596,13.711 21.358 C 15.357 20.978,16.663 20.257,17.842 19.081 C 18.922 18.002,19.448 17.167,19.914 15.796 C 20.253 14.799,20.302 14.414,20.360 12.356 C 20.436 9.630,20.403 8.337,20.247 7.988 C 20.089 7.631,19.659 7.355,19.259 7.353 C 18.888 7.350,18.626 7.452,18.379 7.695 C 18.197 7.875,18.166 7.929,18.126 8.140 C 18.057 8.512,18.005 9.319,17.941 11.040 C 17.845 13.602,17.783 14.460,17.659 14.937 C 17.388 15.976,16.330 17.412,15.343 18.078 C 14.942 18.349,14.201 18.704,13.551 18.937 L 13.041 19.120 12.003 19.120 L 10.965 19.120 10.493 18.954 C 9.742 18.691,9.072 18.387,8.745 18.161 C 8.389 17.915,7.466 17.006,7.216 16.656 C 7.009 16.366,6.549 15.473,6.351 14.974 L 6.210 14.620 6.159 11.032 L 6.108 7.443 6.336 7.062 C 6.876 6.156,7.447 5.558,8.053 5.261 C 8.498 5.042,8.669 5.014,9.761 4.978 L 10.583 4.950 10.841 5.079 C 11.640 5.479,12.209 6.015,12.756 6.881 L 13.092 7.414 13.064 10.474 C 13.032 13.842,13.052 13.604,12.775 13.946 C 12.405 14.404,11.693 14.445,11.294 14.031 C 10.972 13.697,10.963 13.641,10.881 11.480 C 10.774 8.639,10.735 8.132,10.605 7.880 C 10.505 7.686,10.184 7.452,9.949 7.401 C 9.703 7.349,9.342 7.349,9.152 7.401 C 9.066 7.425,8.914 7.530,8.787 7.651 C 8.601 7.829,8.561 7.893,8.522 8.080 C 8.457 8.384,8.403 10.294,8.401 12.297 L 8.400 13.973 8.604 14.356 C 9.177 15.428,9.888 16.142,10.879 16.640 L 11.139 16.771 11.879 16.748 C 12.975 16.714,13.252 16.622,14.028 16.035 C 14.633 15.576,14.967 15.158,15.395 14.326 L 15.600 13.927 15.600 10.700 L 15.600 7.474 15.396 6.927 C 14.838 5.428,14.166 4.471,13.121 3.685 C 12.696 3.365,11.534 2.786,11.139 2.697 C 10.929 2.649,10.554 2.629,9.620 2.616 C 8.491 2.601,8.355 2.606,8.100 2.676 " fill="#373B4D" stroke="none" fill-rule="evenodd"></path></svg>