<svg width="24" height="24" viewBox="0 0 24 24" fill="none" xmlns="http://www.w3.org/2000/svg"><path d="M8.713 2.559 C 8.244 2.597,8.006 2.651,7.557 2.822 C 6.709 3.144,6.106 3.541,5.403 4.241 C 4.552 5.087,4.050 5.957,3.798 7.020 C 3.673 7.546,3.641 8.307,3.616 11.340 L 3.592 14.220 3.816 14.993 C 4.356 16.855,4.863 17.794,5.920 18.893 C 7.046 20.065,7.961 20.659,9.344 21.117 C 10.330 21.443,11.039 21.560,12.040 21.560 C 12.798 21.560,13.188 21.516,13.840 21.355 C 14.691 21.146,15.545 20.802,16.262 20.380 C 17.331 19.751,18.637 18.435,19.233 17.386 C 19.640 16.672,20.083 15.509,20.216 14.809 C 20.327 14.224,20.371 13.038,20.376 10.560 C 20.380 8.151,20.380 8.139,20.293 7.978 C 20.187 7.779,19.906 7.515,19.674 7.397 C 19.137 7.121,18.262 7.473,18.124 8.019 C 18.063 8.261,18.013 9.240,17.939 11.600 C 17.862 14.047,17.826 14.463,17.635 15.080 C 17.310 16.126,16.381 17.378,15.422 18.059 C 14.875 18.448,14.019 18.828,13.245 19.025 C 12.904 19.111,12.787 19.120,11.959 19.120 C 11.103 19.120,11.028 19.114,10.699 19.019 C 9.861 18.776,9.018 18.404,8.621 18.102 C 8.039 17.660,7.415 17.014,7.077 16.505 C 6.844 16.154,6.425 15.277,6.300 14.880 L 6.193 14.540 6.158 12.500 C 6.140 11.378,6.123 9.780,6.122 8.949 L 6.120 7.438 6.257 7.167 C 6.592 6.501,7.190 5.762,7.646 5.449 C 7.960 5.234,8.368 5.049,8.640 4.999 C 8.783 4.973,9.269 4.949,9.720 4.945 L 10.540 4.940 10.843 5.071 C 11.437 5.327,12.050 5.810,12.429 6.320 C 12.519 6.441,12.702 6.738,12.836 6.980 L 13.079 7.420 13.080 10.477 C 13.080 13.494,13.079 13.537,12.997 13.707 C 12.902 13.903,12.606 14.182,12.403 14.269 C 12.216 14.348,11.690 14.348,11.536 14.268 C 11.407 14.201,11.079 13.868,11.003 13.726 C 10.941 13.609,10.893 12.799,10.842 11.000 C 10.755 7.896,10.762 7.957,10.483 7.680 C 10.382 7.580,10.228 7.463,10.140 7.422 C 9.946 7.330,9.410 7.292,9.179 7.355 C 8.944 7.418,8.574 7.761,8.518 7.966 C 8.443 8.245,8.403 9.583,8.402 11.820 L 8.402 13.980 8.632 14.420 C 8.951 15.030,9.129 15.287,9.498 15.673 C 9.841 16.031,10.264 16.333,10.789 16.596 L 11.118 16.760 11.769 16.759 C 12.715 16.757,12.903 16.725,13.382 16.483 C 14.027 16.157,14.650 15.613,15.010 15.060 C 15.096 14.928,15.264 14.617,15.383 14.369 L 15.600 13.919 15.600 10.700 L 15.600 7.481 15.395 6.911 C 15.092 6.065,14.878 5.605,14.579 5.155 C 14.247 4.657,13.567 3.965,13.040 3.590 C 12.595 3.273,11.644 2.788,11.300 2.703 C 10.790 2.576,9.436 2.501,8.713 2.559 " fill="#373B4D" stroke="none" fill-rule="evenodd"></path></svg>