<svg width="24" height="24" viewBox="0 0 24 24" fill="none" xmlns="http://www.w3.org/2000/svg"><path d="M11.592 2.520 C 11.402 2.577,11.258 2.709,11.038 3.027 C 10.918 3.201,10.131 4.708,9.247 6.458 C 6.936 11.034,2.804 19.317,2.601 19.780 C 2.382 20.278,2.374 20.471,2.558 20.855 C 2.785 21.331,3.214 21.598,3.669 21.544 C 4.237 21.477,7.825 20.471,10.072 19.748 C 10.149 19.723,10.316 19.588,10.475 19.419 L 10.747 19.133 10.773 18.317 C 10.788 17.868,10.811 16.456,10.826 15.180 L 10.853 12.860 10.945 12.713 C 11.103 12.462,11.293 12.270,11.460 12.195 C 11.639 12.113,12.314 12.089,12.495 12.158 C 12.643 12.215,12.915 12.474,12.998 12.637 C 13.100 12.840,13.114 13.082,13.179 15.900 C 13.244 18.655,13.263 19.050,13.340 19.201 C 13.369 19.256,13.490 19.394,13.611 19.507 C 13.817 19.703,13.862 19.724,14.464 19.915 C 15.289 20.176,16.309 20.478,17.700 20.874 C 19.931 21.508,20.347 21.596,20.727 21.515 C 21.210 21.411,21.681 20.640,21.552 20.166 C 21.483 19.914,20.901 18.724,18.439 13.800 C 15.711 8.345,13.488 3.948,13.123 3.290 C 12.927 2.936,12.837 2.814,12.700 2.720 C 12.411 2.521,11.896 2.428,11.592 2.520 " fill="#373B4D" stroke="none" fill-rule="evenodd"></path></svg>