<svg width="24" height="24" viewBox="0 0 24 24" fill="none" xmlns="http://www.w3.org/2000/svg"><path d="M11.454 2.594 C 11.304 2.689,11.053 3.035,10.740 3.580 C 10.025 4.823,2.765 19.343,2.559 19.942 C 2.472 20.196,2.458 20.499,2.522 20.731 C 2.585 20.957,2.868 21.279,3.121 21.413 C 3.321 21.518,3.366 21.526,3.640 21.508 C 4.116 21.475,5.560 21.104,7.740 20.454 C 9.862 19.821,10.094 19.738,10.349 19.524 C 10.808 19.139,10.762 19.318,10.802 17.774 C 10.821 17.029,10.838 15.621,10.838 14.644 L 10.840 12.867 11.000 12.656 C 11.219 12.366,11.465 12.204,11.761 12.157 C 12.031 12.113,12.402 12.158,12.593 12.256 C 12.753 12.339,12.953 12.587,13.000 12.760 C 13.045 12.927,13.108 14.014,13.140 15.180 C 13.192 17.058,13.246 18.400,13.283 18.739 C 13.330 19.162,13.438 19.380,13.693 19.565 C 13.917 19.728,14.009 19.764,14.960 20.059 C 17.797 20.938,19.999 21.520,20.487 21.520 C 20.741 21.520,21.052 21.353,21.239 21.116 C 21.595 20.666,21.610 20.292,21.297 19.580 C 21.083 19.091,14.365 5.663,13.623 4.240 C 13.084 3.208,12.921 2.951,12.685 2.771 C 12.486 2.619,12.332 2.574,11.900 2.540 C 11.623 2.519,11.563 2.526,11.454 2.594 " fill="#373B4D" stroke="none" fill-rule="evenodd"></path></svg>