<svg width="24" height="24" viewBox="0 0 24 24" fill="none" xmlns="http://www.w3.org/2000/svg"><path d="M10.780 2.522 C 9.848 2.624,8.586 3.017,7.649 3.498 C 6.239 4.220,4.873 5.459,3.942 6.860 C 3.237 7.919,2.668 9.464,2.501 10.772 C 2.431 11.317,2.420 12.576,2.481 13.081 C 2.696 14.862,3.457 16.662,4.570 18.020 C 4.877 18.396,5.581 19.099,5.937 19.386 C 6.938 20.194,8.256 20.876,9.552 21.258 C 10.154 21.435,10.437 21.479,11.293 21.528 C 12.395 21.591,13.323 21.535,14.020 21.363 C 15.488 21.001,16.913 20.310,18.020 19.422 C 18.626 18.936,19.442 18.067,19.832 17.491 C 20.332 16.753,20.800 15.791,21.123 14.839 C 21.420 13.961,21.478 13.657,21.519 12.742 C 21.551 12.020,21.517 10.595,21.463 10.380 C 21.451 10.336,21.387 10.078,21.320 9.807 C 20.774 7.596,19.537 5.736,17.700 4.361 C 16.366 3.362,14.633 2.668,13.220 2.565 C 12.385 2.504,11.143 2.483,10.780 2.522 M10.100 8.619 C 10.254 8.694,10.447 8.824,10.529 8.909 L 10.679 9.062 10.724 11.872 C 10.759 14.076,10.758 14.708,10.720 14.801 C 10.693 14.865,10.539 15.044,10.378 15.197 C 10.053 15.505,9.960 15.542,9.516 15.537 C 9.203 15.534,8.990 15.428,8.732 15.149 C 8.578 14.982,8.568 14.955,8.543 14.656 C 8.503 14.175,8.441 11.557,8.441 10.319 L 8.440 9.219 8.630 8.991 C 9.102 8.426,9.498 8.325,10.100 8.619 M14.900 8.619 C 15.054 8.694,15.247 8.824,15.328 8.908 L 15.476 9.060 15.518 11.380 C 15.541 12.656,15.560 13.950,15.560 14.255 L 15.560 14.810 15.250 15.119 C 14.612 15.755,14.130 15.742,13.498 15.072 L 13.240 14.799 13.240 12.016 L 13.240 9.233 13.424 9.000 C 13.860 8.444,14.306 8.329,14.900 8.619 " fill="#373B4D" stroke="none" fill-rule="evenodd"></path></svg>