<svg width="24" height="24" viewBox="0 0 24 24" fill="none" xmlns="http://www.w3.org/2000/svg"><path d="M10.760 2.522 C 10.374 2.561,9.778 2.692,9.213 2.863 C 7.699 3.321,6.431 4.086,5.278 5.239 C 4.146 6.370,3.447 7.473,2.937 8.932 C 2.589 9.928,2.429 10.874,2.427 11.940 C 2.425 12.966,2.541 13.773,2.827 14.720 C 3.603 17.286,5.348 19.360,7.722 20.537 C 8.525 20.935,9.507 21.288,10.181 21.420 C 10.954 21.572,12.804 21.593,13.592 21.458 C 14.060 21.378,14.717 21.191,15.300 20.971 C 17.069 20.304,18.595 19.166,19.682 17.700 C 20.542 16.540,21.320 14.686,21.487 13.400 C 21.553 12.883,21.554 11.041,21.487 10.580 C 21.355 9.662,20.930 8.407,20.452 7.520 C 19.135 5.077,16.774 3.289,14.060 2.676 C 13.604 2.573,13.417 2.554,12.540 2.521 C 11.413 2.478,11.186 2.478,10.760 2.522 M9.806 8.494 C 10.082 8.559,10.330 8.702,10.533 8.912 L 10.687 9.070 10.730 11.867 C 10.753 13.405,10.762 14.707,10.748 14.762 C 10.714 14.895,10.248 15.367,10.056 15.463 C 9.941 15.520,9.816 15.540,9.580 15.540 C 9.303 15.540,9.235 15.525,9.073 15.430 C 8.795 15.267,8.615 15.079,8.563 14.900 C 8.511 14.716,8.444 12.245,8.441 10.419 L 8.440 9.219 8.638 8.974 C 8.843 8.721,9.024 8.585,9.275 8.495 C 9.460 8.429,9.529 8.429,9.806 8.494 M14.606 8.494 C 14.882 8.559,15.130 8.702,15.334 8.912 L 15.487 9.071 15.531 11.912 L 15.575 14.753 15.459 14.904 C 15.170 15.284,14.816 15.531,14.487 15.583 C 14.162 15.635,13.760 15.413,13.410 14.987 L 13.240 14.781 13.240 12.007 L 13.240 9.234 13.424 8.995 C 13.619 8.741,13.820 8.586,14.068 8.498 C 14.260 8.429,14.327 8.429,14.606 8.494 " fill="#373B4D" stroke="none" fill-rule="evenodd"></path></svg>