<svg width="24" height="24" viewBox="0 0 24 24" fill="none" xmlns="http://www.w3.org/2000/svg"><path d="M10.289 2.625 C 9.884 2.688,9.108 2.900,8.687 3.064 C 7.846 3.390,6.714 4.042,6.040 4.589 C 5.622 4.928,4.580 5.998,4.311 6.365 C 3.488 7.486,2.931 8.746,2.599 10.240 C 2.430 11.002,2.402 12.647,2.544 13.480 C 2.754 14.707,3.342 16.217,3.993 17.200 C 4.677 18.233,5.842 19.378,6.866 20.023 C 7.315 20.306,8.462 20.870,8.970 21.057 C 9.925 21.410,10.747 21.536,12.080 21.534 C 12.901 21.533,13.134 21.519,13.520 21.448 C 15.715 21.046,17.863 19.828,19.258 18.196 C 20.031 17.291,20.567 16.333,21.060 14.972 C 21.389 14.066,21.440 13.808,21.485 12.820 C 21.527 11.881,21.505 10.799,21.433 10.340 C 21.294 9.444,20.679 7.897,20.099 6.980 C 19.148 5.480,17.896 4.341,16.320 3.543 C 15.235 2.994,14.306 2.706,13.286 2.602 C 12.677 2.540,10.743 2.555,10.289 2.625 M10.105 8.678 C 10.278 8.765,10.477 8.886,10.547 8.948 L 10.675 9.060 10.702 11.923 L 10.729 14.785 10.495 15.040 C 10.366 15.179,10.180 15.345,10.082 15.407 C 9.929 15.504,9.865 15.520,9.622 15.518 C 9.467 15.517,9.275 15.493,9.197 15.465 C 8.984 15.389,8.769 15.202,8.677 15.012 C 8.568 14.789,8.539 14.259,8.477 11.427 L 8.429 9.194 8.644 8.973 C 8.972 8.639,9.201 8.521,9.525 8.520 C 9.755 8.520,9.833 8.541,10.105 8.678 M14.878 8.655 C 14.997 8.715,15.182 8.828,15.288 8.906 L 15.480 9.047 15.480 9.549 C 15.480 9.826,15.500 11.125,15.523 12.436 L 15.567 14.820 15.361 15.010 C 14.974 15.366,14.622 15.560,14.361 15.560 C 14.187 15.560,13.801 15.342,13.510 15.078 L 13.240 14.834 13.240 12.017 L 13.240 9.201 13.490 8.946 C 13.848 8.582,13.988 8.515,14.360 8.532 C 14.588 8.542,14.712 8.572,14.878 8.655 " fill="#373B4D" stroke="none" fill-rule="evenodd"></path></svg>