<svg width="24" height="24" viewBox="0 0 24 24" fill="none" xmlns="http://www.w3.org/2000/svg"><path d="M11.000 2.463 C 8.701 2.737,6.759 3.671,5.175 5.265 C 2.751 7.704,1.820 11.347,2.781 14.634 C 3.551 17.270,5.288 19.358,7.732 20.586 C 8.548 20.996,9.533 21.315,10.507 21.484 C 10.943 21.559,11.167 21.573,12.000 21.573 C 12.833 21.573,13.057 21.559,13.493 21.484 C 16.681 20.930,19.280 18.988,20.644 16.140 C 20.953 15.495,21.137 14.984,21.320 14.263 C 21.528 13.445,21.573 13.025,21.570 11.920 C 21.567 11.152,21.552 10.892,21.483 10.500 C 21.304 9.479,21.026 8.628,20.573 7.714 C 19.332 5.208,17.068 3.393,14.321 2.701 C 13.686 2.541,13.242 2.480,12.412 2.440 C 11.490 2.395,11.587 2.393,11.000 2.463 M10.100 8.538 C 10.334 8.644,10.467 8.761,10.625 9.001 L 10.740 9.174 10.751 11.946 L 10.762 14.719 10.661 14.918 C 10.390 15.452,9.828 15.707,9.274 15.546 C 8.960 15.455,8.722 15.257,8.559 14.954 L 8.422 14.700 8.421 12.000 L 8.420 9.300 8.518 9.102 C 8.819 8.495,9.483 8.258,10.100 8.538 M14.900 8.538 C 15.134 8.644,15.267 8.761,15.425 9.001 L 15.540 9.174 15.551 11.949 L 15.562 14.725 15.433 14.967 C 14.973 15.830,13.793 15.797,13.332 14.909 L 13.224 14.700 13.222 12.000 L 13.220 9.300 13.318 9.102 C 13.619 8.495,14.283 8.258,14.900 8.538 " fill="#373B4D" stroke="none" fill-rule="evenodd"></path></svg>