<svg width="24" height="24" viewBox="0 0 24 24" fill="none" xmlns="http://www.w3.org/2000/svg"><path d="M10.380 2.584 C 9.146 2.805,7.814 3.332,6.818 3.994 C 5.607 4.798,4.441 6.012,3.731 7.210 C 3.095 8.282,2.595 9.799,2.477 11.017 C 2.416 11.644,2.450 13.022,2.538 13.500 C 2.834 15.098,3.464 16.562,4.384 17.783 C 4.692 18.193,5.413 18.941,5.860 19.314 C 6.955 20.230,8.796 21.132,10.113 21.398 C 10.966 21.570,12.647 21.601,13.520 21.460 C 14.869 21.242,16.569 20.504,17.751 19.625 C 18.512 19.058,19.458 18.066,19.930 17.340 C 20.536 16.406,21.175 14.903,21.408 13.860 C 21.477 13.553,21.492 13.309,21.509 12.193 C 21.531 10.702,21.515 10.522,21.278 9.660 C 20.383 6.398,18.040 3.934,14.858 2.907 C 14.259 2.714,13.727 2.612,13.060 2.562 C 12.253 2.502,10.772 2.514,10.380 2.584 M10.105 8.638 C 10.278 8.724,10.477 8.855,10.547 8.928 L 10.673 9.060 10.714 11.740 C 10.736 13.214,10.744 14.517,10.732 14.636 C 10.710 14.837,10.690 14.871,10.444 15.120 C 10.299 15.268,10.118 15.421,10.042 15.460 C 9.862 15.552,9.360 15.558,9.154 15.470 C 8.974 15.393,8.695 15.145,8.616 14.991 C 8.537 14.840,8.491 13.732,8.455 11.177 L 8.427 9.215 8.695 8.931 C 9.026 8.580,9.215 8.480,9.545 8.480 C 9.751 8.480,9.842 8.505,10.105 8.638 M14.946 8.655 C 15.101 8.737,15.283 8.861,15.350 8.932 L 15.473 9.060 15.522 11.939 L 15.571 14.819 15.260 15.108 C 14.888 15.455,14.657 15.577,14.380 15.576 C 14.107 15.574,13.887 15.452,13.532 15.104 L 13.240 14.817 13.240 12.014 L 13.240 9.210 13.500 8.929 C 13.848 8.554,14.015 8.470,14.382 8.491 C 14.610 8.504,14.716 8.535,14.946 8.655 " fill="#373B4D" stroke="none" fill-rule="evenodd"></path></svg>