<svg width="24" height="24" viewBox="0 0 24 24" fill="none" xmlns="http://www.w3.org/2000/svg"><path d="M10.680 2.562 C 9.847 2.629,8.634 3.012,7.629 3.528 C 6.202 4.260,4.700 5.649,3.844 7.030 C 3.150 8.149,2.629 9.657,2.483 10.968 C 2.393 11.782,2.448 13.117,2.601 13.808 C 2.934 15.313,3.521 16.620,4.374 17.760 C 4.745 18.256,5.679 19.189,6.160 19.545 C 7.337 20.416,8.933 21.157,10.160 21.403 C 10.776 21.526,11.996 21.584,12.790 21.528 C 13.767 21.459,14.413 21.305,15.429 20.897 C 17.178 20.195,18.614 19.108,19.703 17.660 C 20.334 16.821,21.026 15.314,21.362 14.047 C 21.467 13.651,21.517 12.929,21.518 11.780 C 21.520 10.756,21.475 10.352,21.285 9.680 C 20.787 7.921,19.954 6.474,18.748 5.274 C 17.986 4.515,17.233 3.978,16.240 3.485 C 15.354 3.044,14.574 2.780,13.756 2.644 C 13.093 2.533,11.552 2.492,10.680 2.562 M10.100 8.640 C 10.247 8.715,10.438 8.840,10.524 8.918 L 10.681 9.060 10.707 11.908 L 10.733 14.757 10.621 14.918 C 10.489 15.109,10.132 15.422,9.982 15.479 C 9.823 15.540,9.299 15.529,9.139 15.462 C 9.063 15.430,8.913 15.317,8.807 15.210 C 8.658 15.062,8.607 14.977,8.586 14.847 C 8.539 14.556,8.485 12.973,8.457 11.053 L 8.429 9.207 8.644 8.979 C 8.763 8.854,8.912 8.714,8.975 8.669 C 9.300 8.438,9.682 8.428,10.100 8.640 M14.905 8.641 C 15.039 8.707,15.223 8.827,15.312 8.910 L 15.474 9.060 15.521 11.940 L 15.568 14.820 15.277 15.090 C 14.918 15.422,14.657 15.560,14.385 15.560 C 14.113 15.560,13.915 15.455,13.548 15.117 L 13.240 14.833 13.240 12.023 L 13.240 9.214 13.461 8.970 C 13.686 8.720,13.876 8.580,14.071 8.518 C 14.260 8.457,14.641 8.514,14.905 8.641 " fill="#373B4D" stroke="none" fill-rule="evenodd"></path></svg>