<svg width="24" height="24" viewBox="0 0 24 24" fill="none" xmlns="http://www.w3.org/2000/svg"><path d="M10.660 2.601 C 9.835 2.654,8.901 2.934,7.932 3.419 C 6.915 3.928,6.190 4.422,5.524 5.059 C 4.210 6.315,3.506 7.395,2.955 8.996 C 2.612 9.992,2.499 10.606,2.456 11.693 C 2.402 13.057,2.604 14.186,3.137 15.514 C 3.660 16.813,4.230 17.672,5.239 18.681 C 6.113 19.556,6.684 19.967,7.781 20.513 C 8.654 20.948,9.091 21.124,9.682 21.279 C 10.454 21.481,11.004 21.530,12.289 21.509 C 13.385 21.492,13.435 21.487,13.920 21.369 C 16.834 20.654,19.188 18.870,20.433 16.434 C 20.676 15.959,21.082 14.964,21.239 14.460 C 21.392 13.967,21.438 13.640,21.487 12.712 C 21.590 10.728,21.434 9.797,20.732 8.201 C 19.765 6.002,18.098 4.338,15.838 3.317 C 14.934 2.909,14.057 2.676,13.140 2.601 C 12.607 2.557,11.338 2.557,10.660 2.601 M10.126 8.694 C 10.288 8.778,10.477 8.894,10.546 8.953 L 10.672 9.060 10.700 11.931 L 10.727 14.802 10.428 15.101 C 10.263 15.266,10.064 15.427,9.986 15.460 C 9.814 15.532,9.504 15.537,9.251 15.474 C 9.007 15.412,8.705 15.125,8.644 14.897 C 8.577 14.646,8.528 13.582,8.477 11.286 L 8.430 9.193 8.605 9.013 C 8.967 8.640,9.219 8.517,9.586 8.533 C 9.780 8.541,9.896 8.576,10.126 8.694 M14.826 8.638 C 14.918 8.679,15.099 8.784,15.229 8.872 L 15.464 9.032 15.514 11.926 L 15.563 14.820 15.312 15.051 C 15.037 15.302,14.574 15.560,14.398 15.560 C 14.168 15.560,13.758 15.319,13.390 14.967 L 13.240 14.824 13.240 12.015 L 13.240 9.206 13.341 9.086 C 13.505 8.891,13.833 8.633,13.992 8.574 C 14.180 8.504,14.594 8.536,14.826 8.638 " fill="#373B4D" stroke="none" fill-rule="evenodd"></path></svg>