<svg width="24" height="24" viewBox="0 0 24 24" fill="none" xmlns="http://www.w3.org/2000/svg"><path d="M10.800 2.560 C 9.246 2.685,7.471 3.441,6.040 4.585 C 5.599 4.937,4.771 5.770,4.440 6.194 C 3.480 7.422,2.855 8.853,2.533 10.560 C 2.444 11.034,2.431 12.733,2.513 13.300 C 2.652 14.269,3.083 15.571,3.565 16.480 C 3.987 17.275,4.415 17.854,5.100 18.555 C 6.022 19.499,6.625 19.943,7.760 20.518 C 9.182 21.237,10.130 21.486,11.668 21.544 C 12.869 21.589,13.772 21.467,14.800 21.121 C 16.055 20.698,17.043 20.168,18.000 19.405 C 19.520 18.193,20.455 16.796,21.163 14.680 C 21.468 13.769,21.494 13.558,21.497 12.000 C 21.500 10.529,21.486 10.391,21.255 9.591 C 20.689 7.634,19.633 5.982,18.143 4.724 C 16.822 3.609,14.953 2.773,13.400 2.604 C 12.865 2.546,11.301 2.519,10.800 2.560 M10.100 8.659 C 10.255 8.734,10.447 8.854,10.529 8.927 L 10.677 9.060 10.704 11.907 L 10.731 14.754 10.605 14.927 C 10.430 15.168,10.048 15.475,9.888 15.505 C 9.814 15.519,9.621 15.522,9.459 15.511 C 9.196 15.494,9.144 15.477,8.972 15.345 C 8.645 15.096,8.599 14.995,8.559 14.453 C 8.541 14.193,8.503 12.904,8.476 11.588 L 8.426 9.197 8.643 8.975 C 8.928 8.684,9.057 8.594,9.278 8.533 C 9.530 8.463,9.772 8.500,10.100 8.659 M14.580 8.541 C 14.776 8.573,15.129 8.757,15.327 8.931 L 15.473 9.060 15.520 11.940 L 15.567 14.820 15.293 15.072 C 14.967 15.372,14.616 15.560,14.381 15.560 C 14.149 15.560,13.871 15.409,13.530 15.098 L 13.240 14.834 13.240 12.025 L 13.240 9.216 13.436 8.996 C 13.759 8.634,14.072 8.463,14.340 8.503 C 14.384 8.510,14.492 8.527,14.580 8.541 " fill="#373B4D" stroke="none" fill-rule="evenodd"></path></svg>