<svg width="24" height="24" viewBox="0 0 24 24" fill="none" xmlns="http://www.w3.org/2000/svg"><path d="M6.751 3.162 C 6.669 3.206,6.574 3.294,6.541 3.358 C 6.444 3.547,6.274 4.469,5.702 7.920 C 4.731 13.785,4.076 17.988,4.066 18.423 C 4.061 18.676,4.072 18.721,4.172 18.853 L 4.284 19.000 6.012 18.996 C 6.962 18.994,7.784 18.980,7.839 18.965 C 7.912 18.944,7.950 18.892,7.988 18.761 C 8.016 18.664,8.176 17.729,8.343 16.682 C 8.850 13.509,8.902 13.302,9.240 13.130 C 9.403 13.048,9.508 13.035,10.320 12.999 C 12.835 12.888,13.165 12.852,13.932 12.598 C 15.437 12.099,16.588 11.103,17.215 9.755 C 17.745 8.616,18.094 6.947,17.964 6.177 C 17.836 5.423,17.554 4.835,17.100 4.378 C 16.353 3.626,15.315 3.202,14.020 3.120 C 13.690 3.099,11.953 3.082,10.160 3.083 C 6.994 3.084,6.896 3.086,6.751 3.162 M18.941 8.248 C 18.738 9.330,18.495 10.096,18.102 10.900 C 17.337 12.464,16.310 13.377,14.755 13.873 C 14.116 14.078,13.637 14.156,12.755 14.201 C 10.064 14.337,10.193 14.319,10.040 14.568 C 9.872 14.839,9.805 15.186,9.482 17.460 C 9.204 19.417,9.022 20.915,9.057 20.950 C 9.103 20.995,11.832 20.984,11.877 20.939 C 11.932 20.883,12.055 20.239,12.221 19.140 C 12.458 17.566,12.638 16.479,12.699 16.245 C 12.785 15.916,12.876 15.847,13.281 15.801 C 13.468 15.780,14.007 15.743,14.480 15.720 C 15.789 15.655,16.173 15.597,16.780 15.372 C 18.393 14.773,19.364 13.541,19.815 11.515 C 20.048 10.473,20.042 9.782,19.796 9.102 C 19.675 8.767,19.297 8.142,19.110 7.968 L 19.011 7.876 18.941 8.248 " fill="#373B4D" stroke="none" fill-rule="evenodd"></path></svg>