<svg width="24" height="24" viewBox="0 0 24 24" fill="none" xmlns="http://www.w3.org/2000/svg"><path d="M7.360 3.036 C 6.879 3.066,6.736 3.111,6.571 3.287 C 6.500 3.364,6.454 3.536,6.340 4.161 C 5.903 6.543,4.045 18.105,4.029 18.544 C 4.026 18.629,4.066 18.721,4.156 18.834 L 4.287 19.000 6.121 19.000 C 7.833 19.000,7.956 18.995,7.975 18.930 C 7.987 18.892,8.168 17.771,8.378 16.440 C 8.838 13.531,8.856 13.445,9.069 13.232 C 9.167 13.134,9.286 13.061,9.383 13.038 C 9.469 13.019,10.179 12.984,10.960 12.961 C 12.792 12.907,13.119 12.868,13.960 12.596 C 15.217 12.189,16.178 11.461,16.885 10.381 C 17.581 9.319,18.117 7.218,17.963 6.161 C 17.797 5.026,17.201 4.197,16.177 3.673 C 15.772 3.465,15.479 3.359,14.923 3.219 C 14.597 3.136,14.379 3.115,13.538 3.082 C 12.227 3.031,7.947 2.999,7.360 3.036 M18.982 8.067 C 18.967 8.173,18.900 8.512,18.834 8.820 C 18.197 11.767,16.691 13.463,14.200 14.037 C 13.664 14.160,13.226 14.197,11.816 14.239 C 11.092 14.261,10.439 14.297,10.364 14.318 C 10.016 14.419,9.907 14.649,9.761 15.591 C 9.427 17.737,9.015 20.838,9.052 20.934 C 9.075 20.994,9.208 21.000,10.456 21.000 C 11.599 21.000,11.844 20.990,11.892 20.943 C 11.953 20.881,12.076 20.153,12.380 18.060 C 12.651 16.194,12.705 15.970,12.915 15.863 C 13.073 15.784,13.282 15.764,14.460 15.719 C 15.708 15.672,16.106 15.618,16.683 15.417 C 17.702 15.064,18.433 14.505,18.986 13.656 C 19.490 12.883,19.848 11.773,19.965 10.626 C 20.024 10.040,19.972 9.544,19.801 9.078 C 19.679 8.741,19.334 8.183,19.128 7.987 L 19.010 7.875 18.982 8.067 " fill="#373B4D" stroke="none" fill-rule="evenodd"></path></svg>