<svg width="24" height="24" viewBox="0 0 24 24" fill="none" xmlns="http://www.w3.org/2000/svg"><path d="M6.960 3.081 C 6.746 3.126,6.600 3.226,6.525 3.379 C 6.446 3.541,6.331 4.153,5.944 6.460 C 5.078 11.634,4.040 18.209,4.040 18.523 C 4.040 18.621,4.079 18.722,4.160 18.834 L 4.281 19.000 6.073 19.000 C 7.446 19.000,7.879 18.988,7.928 18.950 C 7.974 18.913,8.051 18.522,8.218 17.460 C 8.846 13.482,8.866 13.388,9.147 13.175 C 9.348 13.023,9.402 13.018,11.100 12.959 C 12.881 12.898,13.328 12.832,14.220 12.501 C 15.508 12.022,16.548 11.099,17.150 9.900 C 17.718 8.766,18.097 7.022,17.963 6.160 C 17.896 5.728,17.702 5.183,17.501 4.860 C 16.916 3.920,15.633 3.240,14.215 3.117 C 13.585 3.063,7.197 3.031,6.960 3.081 M18.940 8.268 C 18.469 10.898,17.364 12.659,15.644 13.519 C 15.016 13.833,14.159 14.086,13.480 14.157 C 13.271 14.179,12.551 14.217,11.880 14.240 C 11.209 14.264,10.562 14.301,10.442 14.322 C 10.074 14.386,9.958 14.559,9.821 15.240 C 9.696 15.867,9.156 19.736,9.061 20.688 L 9.034 20.955 9.167 20.980 C 9.402 21.023,11.832 20.984,11.880 20.937 C 11.948 20.868,12.055 20.271,12.320 18.480 C 12.580 16.725,12.677 16.200,12.777 16.006 C 12.881 15.805,13.020 15.782,14.500 15.718 C 15.028 15.696,15.636 15.651,15.852 15.619 C 16.748 15.487,17.649 15.062,18.309 14.461 C 19.011 13.823,19.580 12.698,19.837 11.440 C 20.122 10.048,20.010 9.241,19.410 8.356 C 19.299 8.193,19.164 8.019,19.110 7.968 L 19.010 7.876 18.940 8.268 " fill="#373B4D" stroke="none" fill-rule="evenodd"></path></svg>