<svg width="24" height="24" viewBox="0 0 24 24" fill="none" xmlns="http://www.w3.org/2000/svg"><path d="M7.033 3.114 C 6.746 3.142,6.591 3.239,6.513 3.440 C 6.384 3.770,5.419 9.464,4.563 14.940 C 4.036 18.312,4.005 18.634,4.182 18.866 L 4.284 19.000 5.932 19.000 C 6.838 18.999,7.649 18.988,7.733 18.974 C 7.824 18.959,7.908 18.915,7.941 18.864 C 7.972 18.817,8.151 17.843,8.340 16.699 C 8.714 14.429,8.846 13.726,8.945 13.480 C 9.022 13.287,9.191 13.136,9.392 13.083 C 9.473 13.061,10.107 13.015,10.800 12.982 C 12.791 12.885,13.224 12.831,13.935 12.593 C 15.464 12.081,16.655 11.027,17.259 9.651 C 17.759 8.510,18.081 6.950,17.967 6.216 C 17.899 5.778,17.703 5.224,17.501 4.900 C 17.070 4.207,16.229 3.610,15.308 3.343 C 14.540 3.121,14.425 3.115,10.720 3.100 C 8.839 3.093,7.180 3.099,7.033 3.114 M18.924 8.329 C 18.716 9.389,18.473 10.134,18.070 10.940 C 17.267 12.544,16.213 13.446,14.589 13.920 C 13.945 14.107,13.558 14.156,12.040 14.240 C 11.259 14.284,10.539 14.330,10.440 14.344 C 10.025 14.401,9.929 14.588,9.743 15.700 C 9.566 16.763,9.173 19.637,9.060 20.704 L 9.033 20.948 9.559 20.977 C 9.848 20.993,10.488 20.993,10.981 20.977 L 11.878 20.948 11.917 20.824 C 11.980 20.625,12.107 19.906,12.301 18.640 C 12.551 17.004,12.679 16.286,12.749 16.108 C 12.858 15.836,13.012 15.803,14.540 15.720 C 15.964 15.644,16.494 15.534,17.260 15.156 C 17.747 14.916,18.095 14.660,18.468 14.267 C 18.812 13.905,19.010 13.618,19.260 13.121 C 19.706 12.233,20.045 10.763,19.981 10.000 C 19.947 9.596,19.824 9.126,19.674 8.827 C 19.519 8.516,19.237 8.088,19.109 7.969 L 19.012 7.877 18.924 8.329 " fill="#373B4D" stroke="none" fill-rule="evenodd"></path></svg>