<svg width="24" height="24" viewBox="0 0 24 24" fill="none" xmlns="http://www.w3.org/2000/svg"><path d="M7.196 3.037 C 6.902 3.058,6.831 3.078,6.705 3.173 C 6.624 3.235,6.531 3.327,6.497 3.379 C 6.412 3.508,5.074 11.636,4.281 16.840 C 4.149 17.709,4.032 18.469,4.022 18.529 C 4.008 18.608,4.037 18.683,4.133 18.809 L 4.264 18.980 6.111 18.990 L 7.958 19.001 7.980 18.910 C 7.991 18.861,8.136 17.956,8.302 16.900 C 8.861 13.331,8.833 13.468,9.056 13.228 C 9.269 12.999,9.328 12.990,10.960 12.957 C 12.549 12.924,12.940 12.886,13.625 12.700 C 14.691 12.409,15.480 11.966,16.182 11.263 C 16.953 10.490,17.404 9.617,17.753 8.220 C 18.028 7.117,18.062 6.449,17.880 5.740 C 17.523 4.350,16.446 3.502,14.570 3.135 C 14.073 3.038,8.271 2.961,7.196 3.037 M18.945 8.286 C 18.684 9.730,18.298 10.808,17.743 11.637 C 16.906 12.887,15.855 13.624,14.380 13.995 C 13.713 14.162,13.227 14.208,11.800 14.237 C 10.271 14.268,10.276 14.267,10.049 14.541 C 9.984 14.620,9.911 14.751,9.887 14.832 C 9.841 14.987,9.370 18.232,9.161 19.840 C 9.094 20.357,9.033 20.820,9.026 20.868 C 9.018 20.918,9.037 20.966,9.069 20.978 C 9.160 21.013,11.854 21.002,11.910 20.967 C 11.942 20.947,12.063 20.221,12.242 18.978 C 12.606 16.457,12.652 16.195,12.756 16.026 C 12.912 15.775,12.980 15.762,14.369 15.720 C 15.717 15.679,16.026 15.641,16.650 15.437 C 18.089 14.966,19.064 13.962,19.578 12.420 C 20.008 11.131,20.105 9.926,19.840 9.161 C 19.705 8.769,19.463 8.354,19.210 8.079 L 19.020 7.872 18.945 8.286 " fill="#373B4D" stroke="none" fill-rule="evenodd"></path></svg>