<svg width="24" height="24" viewBox="0 0 24 24" fill="none" xmlns="http://www.w3.org/2000/svg"><path d="M6.905 3.057 C 6.730 3.121,6.541 3.287,6.455 3.450 C 6.382 3.590,3.988 18.508,4.019 18.630 C 4.032 18.680,4.094 18.779,4.158 18.850 L 4.273 18.980 6.116 18.991 L 7.958 19.002 7.979 18.911 C 7.990 18.861,8.179 17.668,8.399 16.260 C 8.618 14.852,8.817 13.631,8.842 13.546 C 8.867 13.459,8.960 13.318,9.057 13.221 C 9.300 12.978,9.422 12.960,10.844 12.960 C 12.467 12.960,13.120 12.881,14.059 12.570 C 15.724 12.018,16.897 10.841,17.500 9.117 C 17.695 8.558,17.911 7.645,17.966 7.147 C 18.099 5.923,17.747 4.912,16.919 4.145 C 16.358 3.626,15.562 3.296,14.420 3.110 C 13.924 3.030,13.739 3.025,10.480 3.013 C 7.613 3.003,7.035 3.010,6.905 3.057 M19.000 7.967 C 19.000 8.107,18.780 9.141,18.653 9.600 C 18.314 10.824,17.778 11.783,17.001 12.562 C 16.218 13.347,15.308 13.817,14.104 14.059 C 13.420 14.197,12.822 14.239,11.566 14.240 C 10.341 14.240,10.313 14.245,10.063 14.522 C 9.987 14.606,9.904 14.751,9.879 14.842 C 9.815 15.083,8.998 20.924,9.023 20.966 C 9.053 21.013,11.960 21.010,11.960 20.963 C 11.960 20.864,12.605 16.437,12.642 16.283 C 12.695 16.061,12.809 15.899,12.973 15.810 C 13.082 15.752,13.283 15.738,14.380 15.715 C 15.467 15.693,15.719 15.676,16.048 15.604 C 17.578 15.270,18.600 14.505,19.259 13.200 C 19.494 12.734,19.644 12.294,19.823 11.540 C 19.966 10.938,19.975 10.860,19.977 10.240 C 19.980 9.656,19.969 9.545,19.887 9.280 C 19.727 8.769,19.426 8.262,19.104 7.963 L 19.000 7.866 19.000 7.967 " fill="#373B4D" stroke="none" fill-rule="evenodd"></path></svg>