<svg width="24" height="24" viewBox="0 0 24 24" fill="none" xmlns="http://www.w3.org/2000/svg"><path d="M17.525 3.658 C 17.362 3.689,17.119 3.769,16.985 3.835 C 16.722 3.965,16.220 4.388,15.690 4.926 L 15.361 5.261 17.054 6.954 L 18.746 8.646 19.343 8.028 C 19.697 7.662,20.000 7.308,20.088 7.159 C 20.253 6.879,20.400 6.336,20.400 6.003 C 20.400 5.511,20.183 4.908,19.872 4.534 C 19.268 3.808,18.414 3.489,17.525 3.658 M8.630 11.990 L 3.600 17.020 3.600 18.710 L 3.600 20.400 5.290 20.400 L 6.980 20.400 12.010 15.370 L 17.040 10.340 15.350 8.650 L 13.660 6.960 8.630 11.990 " fill="#373B4D" stroke="none" fill-rule="evenodd"></path></svg>