<svg width="24" height="24" viewBox="0 0 24 24" fill="none" xmlns="http://www.w3.org/2000/svg"><path d="M18.480 2.579 C 17.961 2.749,16.806 3.837,10.950 9.677 L 8.400 12.220 8.400 13.910 L 8.400 15.600 10.090 15.600 L 11.780 15.600 14.183 13.190 C 18.713 8.647,20.708 6.594,21.124 6.046 C 21.485 5.571,21.623 4.978,21.509 4.398 C 21.385 3.770,21.048 3.289,20.447 2.883 C 19.990 2.576,19.891 2.547,19.240 2.533 C 18.811 2.524,18.613 2.536,18.480 2.579 M4.560 4.998 C 3.922 5.019,3.893 5.024,3.700 5.137 C 3.305 5.367,2.775 5.977,2.506 6.509 L 2.400 6.717 2.400 13.200 L 2.400 19.683 2.505 19.891 C 2.874 20.621,3.385 21.132,4.109 21.495 L 4.317 21.600 10.850 21.600 L 17.382 21.600 17.757 21.358 C 18.353 20.972,18.697 20.609,19.078 19.963 L 19.200 19.756 19.200 16.895 L 19.200 14.033 18.950 13.772 C 18.609 13.417,18.485 13.360,17.984 13.332 L 17.574 13.309 17.322 13.524 C 17.183 13.643,17.015 13.816,16.949 13.909 L 16.828 14.077 16.808 16.639 L 16.789 19.200 10.794 19.200 L 4.800 19.200 4.800 13.204 L 4.800 7.208 7.290 7.190 C 9.103 7.176,9.824 7.158,9.940 7.122 C 10.111 7.070,10.467 6.753,10.607 6.528 C 10.797 6.223,10.774 5.835,10.543 5.416 C 10.317 5.009,10.379 5.026,8.968 4.994 C 7.570 4.963,5.534 4.965,4.560 4.998 " fill="#373B4D" stroke="none" fill-rule="evenodd"></path></svg>