<svg width="24" height="24" viewBox="0 0 24 24" fill="none" xmlns="http://www.w3.org/2000/svg"><path d="M18.620 2.555 C 18.532 2.572,18.388 2.623,18.300 2.670 C 17.752 2.960,16.245 4.396,10.930 9.697 L 8.400 12.220 8.400 13.910 L 8.400 15.600 10.096 15.600 L 11.792 15.600 14.862 12.510 C 18.150 9.200,20.072 7.232,20.746 6.485 C 21.256 5.919,21.457 5.552,21.527 5.060 C 21.565 4.792,21.562 4.688,21.507 4.420 C 21.418 3.982,21.210 3.578,20.928 3.292 C 20.656 3.015,20.137 2.658,19.928 2.604 C 19.728 2.551,18.819 2.518,18.620 2.555 M4.880 4.995 L 3.900 5.020 3.704 5.135 C 3.333 5.353,2.833 5.919,2.541 6.451 L 2.400 6.707 2.400 13.195 L 2.400 19.683 2.506 19.891 C 2.859 20.591,3.412 21.144,4.109 21.495 L 4.317 21.600 10.852 21.600 L 17.386 21.600 17.761 21.353 C 18.246 21.033,18.645 20.634,18.953 20.160 L 19.200 19.780 19.200 16.899 L 19.200 14.018 18.950 13.776 C 18.813 13.643,18.651 13.504,18.591 13.467 C 18.472 13.394,18.055 13.322,17.738 13.321 C 17.543 13.320,17.527 13.329,17.255 13.590 C 16.773 14.051,16.822 13.720,16.807 16.648 L 16.794 19.200 10.797 19.200 L 4.800 19.200 4.800 13.206 L 4.800 7.212 7.290 7.188 C 8.858 7.174,9.833 7.149,9.923 7.122 C 10.118 7.065,10.533 6.680,10.641 6.458 C 10.770 6.191,10.742 5.824,10.566 5.466 C 10.493 5.319,10.390 5.169,10.337 5.135 C 10.284 5.100,10.101 5.057,9.930 5.039 C 9.505 4.994,6.081 4.965,4.880 4.995 " fill="#373B4D" stroke="none" fill-rule="evenodd"></path></svg>