<svg width="24" height="24" viewBox="0 0 24 24" fill="none" xmlns="http://www.w3.org/2000/svg"><path d="M18.738 2.520 C 18.593 2.536,18.416 2.590,18.297 2.655 C 17.770 2.942,16.644 4.010,11.850 8.778 L 8.400 12.208 8.400 13.904 L 8.400 15.600 10.096 15.600 L 11.792 15.600 15.102 12.270 C 18.749 8.602,20.528 6.773,20.999 6.210 C 21.340 5.803,21.454 5.564,21.524 5.110 C 21.627 4.445,21.425 3.793,20.965 3.306 C 20.666 2.989,20.090 2.615,19.823 2.565 C 19.533 2.510,19.021 2.489,18.738 2.520 M4.036 4.995 C 3.573 5.092,2.920 5.720,2.550 6.426 L 2.400 6.712 2.400 13.200 L 2.400 19.688 2.559 19.994 C 2.903 20.653,3.347 21.097,4.006 21.441 L 4.312 21.600 10.834 21.600 L 17.356 21.600 17.563 21.478 C 18.300 21.044,18.656 20.696,19.022 20.055 L 19.200 19.742 19.200 16.892 L 19.200 14.043 18.956 13.782 C 18.587 13.388,18.505 13.349,18.003 13.328 L 17.579 13.311 17.375 13.472 C 17.263 13.561,17.101 13.718,17.016 13.822 L 16.862 14.010 16.834 14.755 C 16.819 15.165,16.805 16.332,16.803 17.350 L 16.800 19.200 10.800 19.200 L 4.800 19.200 4.800 13.205 L 4.800 7.210 7.353 7.193 C 10.291 7.172,9.988 7.217,10.433 6.741 C 10.629 6.532,10.682 6.445,10.721 6.271 C 10.783 5.994,10.697 5.630,10.499 5.331 C 10.250 4.955,10.505 4.982,7.140 4.973 C 5.512 4.969,4.115 4.979,4.036 4.995 " fill="#373B4D" stroke="none" fill-rule="evenodd"></path></svg>