<svg width="24" height="24" viewBox="0 0 24 24" fill="none" xmlns="http://www.w3.org/2000/svg"><path d="M17.440 3.754 C 17.104 3.827,16.352 4.338,15.694 4.939 L 15.353 5.252 16.146 6.049 C 16.583 6.487,17.352 7.245,17.855 7.733 L 18.771 8.620 18.991 8.380 C 19.370 7.967,19.773 7.469,19.948 7.200 C 20.557 6.259,20.472 5.348,19.697 4.525 C 19.300 4.102,19.001 3.905,18.633 3.821 C 18.304 3.746,17.647 3.709,17.440 3.754 M8.630 11.990 L 3.600 17.020 3.600 18.710 L 3.600 20.400 5.290 20.400 L 6.980 20.400 12.010 15.370 L 17.040 10.340 15.350 8.650 L 13.660 6.960 8.630 11.990 " fill="#373B4D" stroke="none" fill-rule="evenodd"></path></svg>