<svg width="24" height="24" viewBox="0 0 24 24" fill="none" xmlns="http://www.w3.org/2000/svg"><path d="M18.821 2.440 C 18.396 2.517,18.058 2.675,17.732 2.951 C 17.561 3.096,15.391 5.240,12.910 7.715 L 8.400 12.215 8.400 13.908 L 8.400 15.600 10.093 15.600 L 11.786 15.600 16.124 11.250 C 18.511 8.857,20.647 6.695,20.872 6.444 C 21.323 5.939,21.448 5.722,21.539 5.287 C 21.617 4.914,21.616 4.668,21.536 4.308 C 21.348 3.464,20.746 2.811,19.884 2.514 C 19.627 2.426,19.103 2.389,18.821 2.440 M5.100 4.838 C 4.155 4.866,4.104 4.876,3.645 5.121 C 3.381 5.261,2.995 5.616,2.807 5.889 C 2.736 5.993,2.615 6.239,2.539 6.437 L 2.400 6.797 2.400 13.200 L 2.400 19.603 2.539 19.963 C 2.829 20.714,3.301 21.179,4.070 21.474 L 4.400 21.601 10.850 21.590 L 17.300 21.580 17.580 21.463 C 18.305 21.161,18.761 20.705,19.063 19.980 L 19.180 19.700 19.180 16.900 L 19.180 14.100 19.087 13.911 C 18.971 13.676,18.605 13.336,18.408 13.282 C 18.218 13.229,17.782 13.229,17.592 13.282 C 17.395 13.336,17.029 13.676,16.913 13.911 L 16.820 14.100 16.806 16.650 L 16.793 19.200 10.796 19.200 L 4.800 19.200 4.800 13.204 L 4.800 7.207 7.350 7.194 L 9.900 7.180 10.086 7.088 C 10.307 6.979,10.620 6.658,10.707 6.449 C 10.804 6.218,10.792 5.730,10.682 5.505 C 10.570 5.272,10.202 4.934,10.008 4.885 C 9.821 4.837,6.268 4.804,5.100 4.838 " fill="#373B4D" stroke="none" fill-rule="evenodd"></path></svg>