<svg width="24" height="24" viewBox="0 0 24 24" fill="none" xmlns="http://www.w3.org/2000/svg"><path d="M17.520 3.684 C 17.070 3.761,16.581 4.086,15.807 4.822 L 15.354 5.253 17.046 6.946 L 18.738 8.639 18.914 8.469 C 19.364 8.036,20.009 7.252,20.139 6.980 C 20.320 6.601,20.417 6.142,20.382 5.832 C 20.275 4.882,19.494 3.959,18.615 3.743 C 18.298 3.665,17.789 3.638,17.520 3.684 M8.630 11.990 L 3.600 17.020 3.600 18.710 L 3.600 20.400 5.290 20.400 L 6.980 20.400 12.010 15.370 L 17.040 10.340 15.350 8.650 L 13.660 6.960 8.630 11.990 " fill="#373B4D" stroke="none" fill-rule="evenodd"></path></svg>