<svg width="24" height="24" viewBox="0 0 24 24" fill="none" xmlns="http://www.w3.org/2000/svg"><path d="M17.525 3.681 C 17.061 3.749,16.573 4.075,15.768 4.856 L 15.356 5.256 17.047 6.947 L 18.738 8.638 18.874 8.509 C 19.168 8.229,19.885 7.421,20.025 7.210 C 20.202 6.943,20.350 6.497,20.385 6.128 C 20.435 5.585,20.171 4.892,19.745 4.447 C 19.275 3.956,18.869 3.739,18.305 3.680 C 17.896 3.637,17.830 3.637,17.525 3.681 M8.630 11.990 L 3.600 17.020 3.600 18.710 L 3.600 20.400 5.290 20.400 L 6.980 20.400 12.010 15.370 L 17.040 10.340 15.350 8.650 L 13.660 6.960 8.630 11.990 " fill="#373B4D" stroke="none" fill-rule="evenodd"></path></svg>