<svg width="24" height="24" viewBox="0 0 24 24" fill="none" xmlns="http://www.w3.org/2000/svg"><path d="M18.671 2.519 C 18.065 2.629,17.656 3.004,11.930 8.698 L 8.400 12.208 8.400 13.904 L 8.400 15.600 10.096 15.600 L 11.792 15.600 15.242 12.130 C 19.894 7.451,21.055 6.242,21.304 5.817 C 21.468 5.537,21.574 5.032,21.548 4.660 C 21.505 4.067,21.322 3.652,20.919 3.239 C 20.691 3.005,20.194 2.674,19.931 2.581 C 19.710 2.502,18.963 2.466,18.671 2.519 M4.480 4.954 C 4.033 4.977,3.959 4.992,3.776 5.093 C 3.261 5.379,2.887 5.782,2.560 6.406 L 2.400 6.712 2.400 13.200 L 2.400 19.687 2.580 20.035 C 2.913 20.681,3.319 21.087,3.965 21.420 L 4.313 21.600 10.827 21.600 L 17.342 21.600 17.656 21.421 C 18.299 21.054,18.661 20.695,19.014 20.070 L 19.200 19.740 19.200 16.896 L 19.200 14.053 19.010 13.833 C 18.905 13.713,18.740 13.552,18.643 13.477 C 18.473 13.345,18.451 13.339,18.071 13.326 C 17.854 13.319,17.629 13.324,17.572 13.338 C 17.431 13.374,16.963 13.827,16.891 13.999 C 16.842 14.114,16.828 14.568,16.810 16.669 L 16.788 19.200 10.794 19.200 L 4.800 19.200 4.800 13.206 L 4.800 7.212 7.362 7.190 L 9.925 7.167 10.088 7.059 C 10.311 6.912,10.573 6.635,10.664 6.452 C 10.789 6.202,10.768 5.835,10.612 5.519 C 10.458 5.205,10.299 5.045,10.099 5.000 C 9.912 4.958,5.161 4.919,4.480 4.954 " fill="#373B4D" stroke="none" fill-rule="evenodd"></path></svg>