<svg width="24" height="24" viewBox="0 0 24 24" fill="none" xmlns="http://www.w3.org/2000/svg"><path d="M18.499 2.552 C 17.944 2.744,17.476 3.182,11.970 8.658 L 8.400 12.208 8.400 13.904 L 8.400 15.600 10.090 15.600 L 11.780 15.600 14.523 12.850 C 19.887 7.471,21.093 6.219,21.317 5.799 C 21.563 5.337,21.625 4.732,21.479 4.204 C 21.379 3.847,21.319 3.723,21.106 3.444 C 20.798 3.041,20.185 2.621,19.760 2.523 C 19.464 2.455,18.731 2.472,18.499 2.552 M4.160 4.946 C 3.992 4.976,3.831 5.048,3.576 5.207 C 3.159 5.468,2.790 5.915,2.517 6.493 L 2.400 6.740 2.400 13.211 L 2.400 19.682 2.545 19.971 C 2.926 20.727,3.272 21.074,4.029 21.455 L 4.318 21.600 10.824 21.600 L 17.331 21.600 17.646 21.432 C 18.253 21.109,18.708 20.654,19.030 20.050 L 19.200 19.731 19.200 16.894 L 19.200 14.057 18.977 13.789 C 18.854 13.641,18.672 13.472,18.572 13.413 C 18.411 13.319,18.347 13.307,18.005 13.303 C 17.698 13.301,17.592 13.315,17.481 13.376 C 17.305 13.471,16.928 13.856,16.873 13.995 C 16.847 14.061,16.824 15.037,16.810 16.650 L 16.788 19.200 10.794 19.200 L 4.800 19.200 4.800 13.200 L 4.800 7.200 6.490 7.197 C 7.420 7.195,8.586 7.181,9.083 7.165 L 9.986 7.137 10.183 6.992 C 10.544 6.727,10.760 6.388,10.760 6.085 C 10.760 5.830,10.617 5.434,10.457 5.247 C 10.175 4.918,10.418 4.941,7.160 4.934 C 5.565 4.930,4.215 4.936,4.160 4.946 " fill="#373B4D" stroke="none" fill-rule="evenodd"></path></svg>