<svg width="24" height="24" viewBox="0 0 24 24" fill="none" xmlns="http://www.w3.org/2000/svg"><path d="M18.734 2.480 C 18.436 2.524,18.144 2.672,17.780 2.963 C 17.418 3.254,15.532 5.106,11.310 9.317 L 8.400 12.220 8.400 13.910 L 8.400 15.600 10.096 15.600 L 11.792 15.600 15.642 11.730 C 19.980 7.369,21.021 6.294,21.246 5.946 C 21.653 5.316,21.684 4.519,21.330 3.760 C 21.176 3.427,20.587 2.860,20.200 2.671 C 19.770 2.460,19.293 2.398,18.734 2.480 M4.272 4.921 C 3.588 5.003,2.849 5.660,2.529 6.470 L 2.400 6.796 2.400 13.229 L 2.400 19.662 2.624 20.117 C 2.935 20.750,3.236 21.052,3.877 21.372 L 4.334 21.600 10.831 21.600 L 17.327 21.600 17.674 21.421 C 18.294 21.100,18.699 20.695,19.021 20.074 L 19.200 19.727 19.200 16.909 L 19.200 14.091 19.096 13.936 C 18.919 13.669,18.591 13.361,18.441 13.320 C 18.258 13.269,17.740 13.269,17.556 13.320 C 17.395 13.365,16.953 13.795,16.873 13.986 C 16.838 14.069,16.820 14.784,16.809 16.650 L 16.793 19.200 10.796 19.200 L 4.800 19.200 4.800 13.204 L 4.800 7.207 7.310 7.190 C 9.167 7.177,9.861 7.159,9.978 7.122 C 10.194 7.053,10.618 6.641,10.704 6.415 C 10.854 6.022,10.686 5.376,10.368 5.127 C 10.060 4.886,10.252 4.900,7.280 4.894 C 5.773 4.891,4.419 4.903,4.272 4.921 " fill="#373B4D" stroke="none" fill-rule="evenodd"></path></svg>