<svg width="24" height="24" viewBox="0 0 24 24" fill="none" xmlns="http://www.w3.org/2000/svg"><path d="M17.221 3.778 C 17.089 3.833,16.862 3.960,16.717 4.060 C 16.468 4.230,15.712 4.889,15.471 5.146 L 15.362 5.262 17.053 6.953 L 18.745 8.644 19.083 8.292 C 19.441 7.918,19.824 7.460,20.031 7.155 C 20.357 6.676,20.464 5.964,20.291 5.420 C 20.060 4.690,19.452 4.037,18.780 3.797 C 18.594 3.730,18.419 3.707,18.000 3.694 C 17.492 3.678,17.446 3.683,17.221 3.778 M8.630 11.990 L 3.600 17.020 3.600 18.710 L 3.600 20.400 5.290 20.400 L 6.980 20.400 12.010 15.370 L 17.040 10.340 15.350 8.650 L 13.660 6.960 8.630 11.990 " fill="#373B4D" stroke="none" fill-rule="evenodd"></path></svg>