<svg width="24" height="24" viewBox="0 0 24 24" fill="none" xmlns="http://www.w3.org/2000/svg"><path d="M17.271 3.798 C 16.902 3.942,16.134 4.509,15.569 5.055 L 15.359 5.258 16.189 6.092 C 16.646 6.550,17.414 7.307,17.895 7.773 L 18.771 8.620 19.009 8.360 C 19.839 7.456,20.159 6.975,20.300 6.422 C 20.490 5.669,20.171 4.879,19.417 4.236 C 19.287 4.125,19.098 3.991,18.997 3.940 C 18.590 3.731,17.642 3.653,17.271 3.798 M8.630 11.990 L 3.600 17.020 3.600 18.710 L 3.600 20.400 5.290 20.400 L 6.980 20.400 12.010 15.370 L 17.040 10.340 15.350 8.650 L 13.660 6.960 8.630 11.990 " fill="#373B4D" stroke="none" fill-rule="evenodd"></path></svg>