<svg width="24" height="24" viewBox="0 0 24 24" fill="none" xmlns="http://www.w3.org/2000/svg"><path d="M17.294 3.757 C 17.180 3.798,16.962 3.912,16.810 4.011 C 16.522 4.197,15.826 4.783,15.531 5.087 L 15.361 5.262 17.054 6.954 L 18.748 8.647 19.132 8.234 C 20.122 7.171,20.360 6.731,20.360 5.970 C 20.360 5.372,20.138 4.893,19.623 4.376 C 19.179 3.932,18.849 3.768,18.296 3.718 C 17.718 3.667,17.524 3.674,17.294 3.757 M8.630 11.990 L 3.600 17.020 3.600 18.710 L 3.600 20.400 5.290 20.400 L 6.980 20.400 12.010 15.370 L 17.040 10.340 15.350 8.650 L 13.660 6.960 8.630 11.990 " fill="#373B4D" stroke="none" fill-rule="evenodd"></path></svg>