<svg width="24" height="24" viewBox="0 0 24 24" fill="none" xmlns="http://www.w3.org/2000/svg"><path d="M17.467 3.763 C 17.137 3.816,16.300 4.378,15.644 4.987 L 15.348 5.261 17.042 6.931 C 17.973 7.849,18.749 8.600,18.766 8.600 C 18.810 8.600,19.496 7.812,19.762 7.457 C 20.604 6.334,20.538 5.353,19.556 4.393 C 19.080 3.927,18.747 3.794,17.940 3.749 C 17.786 3.740,17.573 3.746,17.467 3.763 M8.630 11.990 L 3.600 17.020 3.600 18.710 L 3.600 20.400 5.290 20.400 L 6.980 20.400 12.010 15.370 L 17.040 10.340 15.350 8.650 L 13.660 6.960 8.630 11.990 " fill="#373B4D" stroke="none" fill-rule="evenodd"></path></svg>