<svg width="24" height="24" viewBox="0 0 24 24" fill="none" xmlns="http://www.w3.org/2000/svg"><path d="M18.752 2.481 C 18.454 2.528,18.119 2.700,17.751 2.996 C 17.397 3.281,15.065 5.570,11.210 9.416 L 8.400 12.220 8.400 13.910 L 8.400 15.600 10.090 15.600 L 11.780 15.600 14.583 12.790 C 19.843 7.516,21.086 6.232,21.300 5.849 C 21.716 5.105,21.629 4.074,21.096 3.425 C 20.739 2.991,20.251 2.650,19.820 2.534 C 19.553 2.462,19.033 2.436,18.752 2.481 M5.039 4.916 L 4.058 4.940 3.799 5.068 C 3.294 5.317,2.893 5.738,2.607 6.320 L 2.420 6.700 2.410 13.190 L 2.399 19.680 2.575 20.030 C 2.932 20.740,3.234 21.043,3.953 21.414 L 4.313 21.600 10.817 21.600 L 17.322 21.600 17.571 21.475 C 18.260 21.127,18.728 20.659,19.075 19.971 L 19.200 19.722 19.200 16.889 L 19.200 14.056 18.979 13.788 C 18.656 13.396,18.516 13.316,18.111 13.291 C 17.630 13.262,17.478 13.314,17.173 13.619 C 17.035 13.758,16.901 13.923,16.875 13.986 C 16.843 14.066,16.823 14.864,16.809 16.650 L 16.790 19.200 10.795 19.200 L 4.800 19.200 4.800 13.206 L 4.800 7.212 7.310 7.188 C 9.015 7.173,9.870 7.151,9.975 7.120 C 10.201 7.052,10.660 6.583,10.722 6.354 C 10.872 5.798,10.514 5.058,10.046 4.959 C 9.848 4.916,6.259 4.886,5.039 4.916 " fill="#373B4D" stroke="none" fill-rule="evenodd"></path></svg>