<svg width="24" height="24" viewBox="0 0 24 24" fill="none" xmlns="http://www.w3.org/2000/svg"><path d="M18.336 2.658 C 17.771 2.944,16.363 4.282,10.890 9.738 L 8.400 12.220 8.400 13.910 L 8.400 15.600 10.097 15.600 L 11.793 15.600 15.270 12.090 C 21.066 6.239,21.241 6.049,21.443 5.401 C 21.571 4.989,21.581 4.742,21.488 4.371 C 21.330 3.749,21.033 3.317,20.503 2.942 C 20.010 2.593,19.981 2.584,19.220 2.569 C 18.556 2.555,18.535 2.557,18.336 2.658 M3.952 5.036 C 3.583 5.112,3.016 5.668,2.599 6.362 L 2.400 6.693 2.400 13.188 L 2.400 19.682 2.516 19.911 C 2.834 20.541,3.459 21.166,4.089 21.484 L 4.318 21.600 10.856 21.600 L 17.393 21.600 17.707 21.393 C 18.116 21.122,18.732 20.503,18.992 20.100 L 19.200 19.780 19.200 16.895 L 19.200 14.009 18.939 13.765 C 18.796 13.631,18.626 13.494,18.562 13.461 C 18.419 13.387,17.738 13.296,17.600 13.333 C 17.432 13.377,16.934 13.878,16.877 14.060 C 16.839 14.179,16.822 14.852,16.810 16.710 L 16.794 19.200 10.797 19.200 L 4.800 19.200 4.800 13.200 L 4.800 7.200 6.450 7.196 C 7.357 7.194,8.505 7.180,9.000 7.165 C 10.017 7.133,10.018 7.133,10.358 6.802 C 10.713 6.456,10.798 6.119,10.644 5.671 C 10.523 5.319,10.382 5.136,10.187 5.079 C 9.996 5.022,4.211 4.982,3.952 5.036 " fill="#373B4D" stroke="none" fill-rule="evenodd"></path></svg>