<svg width="24" height="24" viewBox="0 0 24 24" fill="none" xmlns="http://www.w3.org/2000/svg"><path d="M17.486 3.724 C 17.285 3.762,16.892 3.969,16.576 4.203 C 16.270 4.429,15.689 4.922,15.508 5.110 L 15.357 5.267 17.040 6.933 C 17.966 7.850,18.740 8.600,18.760 8.600 C 18.806 8.600,19.586 7.731,19.819 7.420 C 20.500 6.509,20.530 5.558,19.905 4.737 C 19.668 4.425,19.236 4.044,18.981 3.920 C 18.655 3.763,17.840 3.656,17.486 3.724 M8.630 11.990 L 3.600 17.020 3.600 18.710 L 3.600 20.400 5.290 20.400 L 6.980 20.400 12.010 15.370 L 17.040 10.340 15.350 8.650 L 13.660 6.960 8.630 11.990 " fill="#373B4D" stroke="none" fill-rule="evenodd"></path></svg>