<svg width="24" height="24" viewBox="0 0 24 24" fill="none" xmlns="http://www.w3.org/2000/svg"><path d="M17.340 3.763 C 17.209 3.809,16.955 3.942,16.777 4.058 C 16.462 4.264,15.753 4.853,15.489 5.129 L 15.359 5.265 17.036 6.933 C 17.959 7.850,18.732 8.600,18.755 8.600 C 18.809 8.600,19.563 7.767,19.822 7.420 C 20.418 6.623,20.518 5.866,20.133 5.081 C 20.021 4.852,19.900 4.695,19.623 4.415 C 19.099 3.888,18.785 3.754,17.942 3.701 C 17.636 3.681,17.543 3.691,17.340 3.763 M8.630 11.990 L 3.600 17.020 3.600 18.710 L 3.600 20.400 5.290 20.400 L 6.980 20.400 12.010 15.370 L 17.040 10.340 15.350 8.650 L 13.660 6.960 8.630 11.990 " fill="#373B4D" stroke="none" fill-rule="evenodd"></path></svg>