<svg width="24" height="24" viewBox="0 0 24 24" fill="none" xmlns="http://www.w3.org/2000/svg"><path d="M18.478 2.595 C 17.953 2.770,16.614 4.032,10.750 9.877 L 8.400 12.220 8.400 13.910 L 8.400 15.600 10.095 15.600 L 11.791 15.600 15.146 12.210 C 20.202 7.102,20.760 6.521,21.166 5.944 C 21.549 5.398,21.637 4.801,21.426 4.176 C 21.249 3.648,21.003 3.318,20.521 2.961 C 20.071 2.627,19.978 2.600,19.231 2.579 C 18.873 2.569,18.534 2.576,18.478 2.595 M4.240 5.035 C 3.789 5.065,3.684 5.113,3.325 5.456 C 3.040 5.729,2.816 6.011,2.568 6.409 L 2.400 6.678 2.400 13.189 L 2.400 19.700 2.590 20.040 C 2.855 20.515,3.485 21.145,3.960 21.410 L 4.300 21.600 10.852 21.600 L 17.404 21.600 17.633 21.445 C 18.094 21.131,18.671 20.555,18.996 20.083 L 19.200 19.786 19.200 16.896 L 19.200 14.007 18.930 13.758 C 18.781 13.621,18.605 13.486,18.537 13.457 C 18.371 13.386,17.742 13.306,17.612 13.338 C 17.474 13.373,16.984 13.849,16.896 14.034 C 16.834 14.166,16.825 14.418,16.808 16.690 L 16.789 19.200 10.794 19.200 L 4.800 19.200 4.800 13.200 L 4.800 7.200 6.550 7.198 C 8.655 7.196,9.803 7.153,10.000 7.071 C 10.198 6.988,10.611 6.533,10.671 6.333 C 10.740 6.102,10.732 5.959,10.632 5.654 C 10.576 5.482,10.494 5.334,10.402 5.238 L 10.260 5.089 9.820 5.065 C 9.172 5.030,4.683 5.005,4.240 5.035 " fill="#373B4D" stroke="none" fill-rule="evenodd"></path></svg>