<svg width="24" height="24" viewBox="0 0 24 24" fill="none" xmlns="http://www.w3.org/2000/svg"><path d="M17.398 3.735 C 17.010 3.839,16.401 4.269,15.687 4.940 L 15.354 5.254 17.045 6.945 C 17.974 7.875,18.750 8.626,18.769 8.614 C 18.788 8.603,19.011 8.365,19.264 8.087 C 20.055 7.218,20.307 6.768,20.350 6.152 C 20.392 5.549,20.220 5.061,19.793 4.568 C 19.494 4.224,19.140 3.950,18.853 3.842 C 18.661 3.769,17.993 3.677,17.706 3.683 C 17.637 3.684,17.498 3.708,17.398 3.735 M8.630 11.990 L 3.600 17.020 3.600 18.710 L 3.600 20.400 5.290 20.400 L 6.980 20.400 12.010 15.370 L 17.040 10.340 15.350 8.650 L 13.660 6.960 8.630 11.990 " fill="#373B4D" stroke="none" fill-rule="evenodd"></path></svg>