<svg width="24" height="24" viewBox="0 0 24 24" fill="none" xmlns="http://www.w3.org/2000/svg"><path d="M18.599 2.599 C 18.419 2.616,18.331 2.654,18.119 2.805 C 17.364 3.345,15.708 4.934,10.730 9.897 L 8.400 12.220 8.400 13.910 L 8.400 15.600 10.097 15.600 L 11.794 15.600 15.791 11.550 C 17.990 9.322,20.000 7.275,20.259 7.000 C 21.306 5.886,21.529 5.498,21.524 4.794 C 21.522 4.445,21.397 4.006,21.209 3.684 C 20.970 3.276,20.290 2.728,19.920 2.645 C 19.706 2.596,18.911 2.569,18.599 2.599 M3.825 5.103 C 3.560 5.188,3.021 5.725,2.666 6.260 L 2.400 6.659 2.400 13.171 L 2.400 19.683 2.486 19.852 C 2.810 20.490,3.510 21.190,4.148 21.514 L 4.317 21.600 10.868 21.600 L 17.420 21.600 17.760 21.345 C 18.172 21.035,18.712 20.483,18.993 20.083 L 19.200 19.787 19.200 16.897 L 19.200 14.007 18.950 13.778 C 18.633 13.489,18.467 13.415,18.005 13.359 C 17.634 13.313,17.634 13.313,17.478 13.421 C 17.257 13.575,16.966 13.896,16.891 14.071 C 16.834 14.201,16.824 14.535,16.808 16.710 L 16.790 19.200 10.795 19.200 L 4.800 19.200 4.800 13.200 L 4.800 7.200 6.590 7.199 C 8.283 7.198,9.609 7.157,9.920 7.095 C 10.111 7.057,10.563 6.600,10.660 6.346 C 10.778 6.036,10.655 5.529,10.384 5.216 L 10.249 5.060 7.135 5.051 C 4.419 5.043,3.995 5.050,3.825 5.103 " fill="#373B4D" stroke="none" fill-rule="evenodd"></path></svg>