<svg width="24" height="24" viewBox="0 0 24 24" fill="none" xmlns="http://www.w3.org/2000/svg"><path d="M10.760 3.067 C 8.800 3.378,7.073 4.233,5.686 5.578 C 5.458 5.799,5.158 6.116,5.019 6.282 C 4.373 7.055,3.754 8.160,3.463 9.060 C 3.285 9.610,3.052 10.546,3.016 10.850 L 2.989 11.080 7.034 11.080 L 11.080 11.080 11.080 7.060 L 11.080 3.040 10.970 3.045 C 10.910 3.048,10.815 3.058,10.760 3.067 M12.880 11.995 L 12.880 20.960 13.010 20.960 C 13.197 20.959,14.009 20.785,14.489 20.642 C 17.229 19.826,19.369 17.856,20.379 15.221 C 20.806 14.108,20.977 13.173,20.975 11.960 C 20.973 9.495,20.018 7.268,18.215 5.520 C 17.222 4.557,15.910 3.779,14.646 3.404 C 14.175 3.264,13.428 3.096,13.110 3.058 L 12.880 3.031 12.880 11.995 M3.025 13.045 C 3.011 13.114,3.000 14.932,3.000 17.085 L 3.000 21.000 7.026 21.000 L 11.052 21.000 11.027 20.690 C 10.999 20.335,10.824 19.596,10.638 19.040 C 10.233 17.834,9.512 16.635,8.626 15.696 C 7.915 14.941,7.194 14.408,6.213 13.911 C 5.456 13.528,5.179 13.412,4.660 13.261 C 4.336 13.167,3.207 12.921,3.095 12.920 C 3.070 12.920,3.039 12.976,3.025 13.045 " fill="#373B4D" stroke="none" fill-rule="evenodd"></path></svg>