<svg width="24" height="24" viewBox="0 0 24 24" fill="none" xmlns="http://www.w3.org/2000/svg"><path d="M10.337 3.138 C 7.290 3.717,4.731 5.812,3.603 8.651 C 3.362 9.259,3.098 10.264,3.020 10.870 L 2.992 11.080 7.036 11.080 L 11.080 11.080 11.080 7.060 L 11.080 3.040 10.950 3.043 C 10.878 3.045,10.603 3.088,10.337 3.138 M12.880 12.000 L 12.880 20.960 12.998 20.960 C 13.063 20.960,13.310 20.923,13.548 20.878 C 16.020 20.411,18.130 19.029,19.479 16.993 C 21.240 14.337,21.478 10.983,20.110 8.112 C 19.536 6.908,18.594 5.725,17.567 4.920 C 16.893 4.391,15.918 3.844,15.118 3.547 C 14.522 3.325,13.316 3.040,12.975 3.040 L 12.880 3.040 12.880 12.000 M3.000 16.960 L 3.000 21.000 7.029 20.990 L 11.057 20.980 11.046 20.780 C 11.032 20.538,10.867 19.738,10.755 19.368 C 10.015 16.922,8.351 14.928,6.140 13.840 C 5.490 13.521,5.024 13.338,4.500 13.199 C 4.109 13.094,3.205 12.920,3.056 12.920 C 3.008 12.920,3.000 13.523,3.000 16.960 " fill="#373B4D" stroke="none" fill-rule="evenodd"></path></svg>