<svg width="24" height="24" viewBox="0 0 24 24" fill="none" xmlns="http://www.w3.org/2000/svg"><path d="M10.540 3.102 C 7.418 3.631,4.749 5.768,3.600 8.659 C 3.373 9.230,3.000 10.683,3.000 10.995 L 3.000 11.080 7.040 11.080 L 11.080 11.080 11.080 7.060 L 11.080 3.040 10.970 3.044 C 10.910 3.046,10.716 3.073,10.540 3.102 M12.880 11.995 L 12.880 20.960 12.998 20.960 C 13.192 20.960,13.938 20.804,14.446 20.658 C 16.891 19.955,18.886 18.304,20.021 16.044 C 21.476 13.151,21.276 9.722,19.495 7.040 C 18.477 5.505,17.117 4.387,15.391 3.664 C 14.772 3.404,13.725 3.124,13.130 3.057 L 12.880 3.030 12.880 11.995 M3.026 13.067 C 3.012 13.151,3.001 14.970,3.000 17.110 L 3.000 21.000 7.020 21.000 L 11.040 21.000 11.040 20.815 C 11.040 20.518,10.850 19.665,10.654 19.080 C 10.007 17.147,8.747 15.493,7.080 14.387 C 6.532 14.024,5.503 13.523,4.899 13.326 C 4.485 13.191,3.777 13.029,3.216 12.941 L 3.051 12.915 3.026 13.067 " fill="#373B4D" stroke="none" fill-rule="evenodd"></path></svg>