<svg width="24" height="24" viewBox="0 0 24 24" fill="none" xmlns="http://www.w3.org/2000/svg"><path d="M10.420 3.118 C 7.283 3.676,4.641 5.862,3.546 8.804 C 3.298 9.472,3.095 10.270,3.023 10.870 L 2.997 11.080 7.039 11.080 L 11.080 11.080 11.080 7.060 L 11.080 3.040 10.950 3.043 C 10.878 3.045,10.640 3.079,10.420 3.118 M12.880 12.000 L 12.880 20.960 12.993 20.960 C 13.055 20.960,13.303 20.924,13.543 20.881 C 16.833 20.283,19.496 17.981,20.534 14.840 C 22.179 9.863,19.269 4.544,14.200 3.261 C 13.772 3.153,13.156 3.040,12.990 3.040 L 12.880 3.040 12.880 12.000 M3.000 16.956 L 3.000 21.000 7.030 20.990 L 11.060 20.980 11.047 20.780 C 11.025 20.420,10.843 19.608,10.661 19.058 C 10.010 17.080,8.632 15.325,6.872 14.233 C 6.354 13.911,5.482 13.502,4.933 13.322 C 4.445 13.163,3.689 12.992,3.230 12.938 L 3.000 12.911 3.000 16.956 " fill="#373B4D" stroke="none" fill-rule="evenodd"></path></svg>