<svg width="24" height="24" viewBox="0 0 24 24" fill="none" xmlns="http://www.w3.org/2000/svg"><path d="M4.200 2.560 C 3.602 2.576,3.162 2.606,3.071 2.636 C 2.880 2.699,2.623 2.990,2.542 3.234 C 2.401 3.658,2.366 4.775,2.442 6.480 C 2.518 8.217,2.733 9.415,3.232 10.880 C 4.015 13.183,5.162 15.056,6.840 16.775 C 8.500 18.475,10.218 19.636,12.249 20.432 C 13.645 20.979,14.901 21.311,16.120 21.457 C 16.828 21.542,18.250 21.600,19.617 21.600 L 20.786 21.600 21.065 21.310 C 21.512 20.845,21.518 20.833,21.566 20.271 C 21.612 19.729,21.581 18.202,21.515 17.722 C 21.434 17.136,21.251 16.959,20.509 16.744 C 19.570 16.472,16.408 15.965,14.977 15.858 L 14.615 15.831 14.369 16.103 C 14.234 16.253,13.995 16.574,13.838 16.818 C 12.934 18.216,12.990 18.141,12.862 18.131 C 12.632 18.115,11.387 17.418,10.665 16.903 C 9.206 15.861,7.983 14.605,7.058 13.200 C 6.540 12.413,5.829 11.060,5.904 11.006 C 5.925 10.992,6.301 10.739,6.741 10.444 C 7.723 9.784,7.986 9.585,8.084 9.425 C 8.263 9.130,8.112 7.562,7.679 5.220 C 7.384 3.630,7.209 3.098,6.857 2.721 L 6.669 2.520 5.925 2.527 C 5.515 2.530,4.739 2.545,4.200 2.560 M13.993 3.813 C 13.731 3.887,13.543 4.044,13.424 4.290 C 13.205 4.737,13.256 5.112,13.596 5.560 C 13.704 5.703,14.083 6.131,14.439 6.511 L 15.085 7.201 14.527 7.797 C 13.380 9.021,13.256 9.202,13.290 9.613 C 13.325 10.043,13.566 10.418,13.932 10.608 C 14.169 10.731,14.634 10.734,14.860 10.613 C 15.058 10.507,15.464 10.162,16.219 9.456 L 16.801 8.912 17.351 9.429 C 18.566 10.573,18.823 10.745,19.253 10.711 C 19.667 10.677,20.018 10.433,20.209 10.044 C 20.347 9.764,20.337 9.364,20.187 9.107 C 20.042 8.862,19.724 8.488,19.048 7.770 L 18.511 7.200 19.028 6.650 C 19.776 5.855,20.103 5.463,20.224 5.215 C 20.316 5.028,20.328 4.963,20.309 4.756 C 20.282 4.456,20.119 4.114,19.939 3.976 C 19.752 3.834,19.479 3.760,19.141 3.760 C 18.885 3.760,18.831 3.775,18.622 3.901 C 18.330 4.076,17.877 4.457,17.270 5.038 L 16.800 5.488 16.201 4.926 C 15.476 4.246,15.165 3.985,14.956 3.878 C 14.751 3.774,14.251 3.740,13.993 3.813 " fill="#373B4D" stroke="none" fill-rule="evenodd"></path></svg>