<svg width="24" height="24" viewBox="0 0 24 24" fill="none" xmlns="http://www.w3.org/2000/svg"><path d="M19.974 2.545 C 19.844 2.574,19.563 2.831,17.920 4.418 C 15.813 6.454,15.711 6.546,15.678 6.454 C 15.663 6.413,15.638 6.146,15.623 5.860 C 15.582 5.070,15.522 4.522,15.462 4.378 C 15.380 4.183,15.138 3.936,14.928 3.834 C 14.778 3.761,14.671 3.743,14.381 3.742 C 13.954 3.740,13.875 3.774,13.510 4.117 L 13.260 4.352 13.247 7.175 L 13.235 9.998 13.344 10.142 C 13.405 10.221,13.589 10.402,13.754 10.543 L 14.054 10.800 16.823 10.800 L 19.593 10.800 19.862 10.510 C 20.010 10.351,20.174 10.130,20.225 10.020 C 20.455 9.530,20.247 8.886,19.785 8.661 C 19.608 8.574,19.442 8.547,18.560 8.459 C 17.999 8.403,17.525 8.353,17.507 8.348 C 17.464 8.335,17.796 7.972,19.420 6.260 C 20.170 5.468,20.866 4.730,20.966 4.620 C 21.561 3.962,21.651 3.725,21.477 3.262 C 21.372 2.980,21.108 2.711,20.851 2.623 C 20.657 2.556,20.132 2.510,19.974 2.545 M3.440 2.597 C 3.003 2.623,2.931 2.661,2.602 3.029 L 2.400 3.256 2.400 4.438 C 2.401 5.852,2.458 7.235,2.544 7.920 C 2.827 10.165,3.799 12.750,5.080 14.660 C 6.119 16.209,7.795 17.878,9.380 18.943 C 11.541 20.395,14.343 21.361,16.865 21.523 C 17.840 21.586,20.410 21.589,20.621 21.528 C 21.045 21.406,21.440 21.004,21.521 20.613 C 21.597 20.251,21.584 18.017,21.505 17.643 C 21.404 17.170,21.207 16.952,20.729 16.783 C 20.221 16.604,16.141 15.926,15.157 15.857 C 14.835 15.834,14.749 15.841,14.624 15.901 C 14.379 16.017,14.092 16.384,13.556 17.265 L 13.048 18.100 12.886 18.093 C 12.536 18.077,11.035 17.223,10.060 16.486 C 9.352 15.951,8.325 14.941,7.715 14.180 C 7.232 13.578,6.494 12.387,6.072 11.528 C 5.900 11.179,5.876 11.101,5.912 11.022 C 5.936 10.969,6.154 10.806,6.427 10.637 C 7.664 9.874,8.036 9.592,8.146 9.331 C 8.261 9.058,8.169 8.174,7.801 6.019 C 7.381 3.565,7.220 2.988,6.884 2.730 C 6.744 2.623,6.719 2.619,6.080 2.594 C 5.303 2.563,3.978 2.565,3.440 2.597 " fill="#373B4D" stroke="none" fill-rule="evenodd"></path></svg>