<svg width="24" height="24" viewBox="0 0 24 24" fill="none" xmlns="http://www.w3.org/2000/svg"><path d="M3.300 2.516 C 3.003 2.569,2.804 2.723,2.525 3.116 L 2.400 3.292 2.400 4.236 C 2.400 5.338,2.462 7.102,2.523 7.760 C 2.672 9.359,3.243 11.276,4.063 12.928 C 4.847 14.509,5.733 15.731,7.044 17.038 C 9.096 19.084,11.502 20.432,14.392 21.155 C 15.480 21.427,16.032 21.495,17.660 21.560 C 19.338 21.626,20.556 21.596,20.860 21.480 C 21.019 21.420,21.431 21.009,21.479 20.864 C 21.592 20.520,21.640 18.775,21.559 17.941 C 21.507 17.409,21.433 17.200,21.234 17.020 C 20.914 16.730,20.754 16.692,17.801 16.202 C 14.911 15.723,14.804 15.715,14.457 15.964 C 14.220 16.134,14.005 16.448,13.541 17.300 C 13.350 17.652,13.149 17.998,13.096 18.068 C 13.001 18.194,12.996 18.195,12.849 18.143 C 12.236 17.926,10.841 17.109,10.020 16.487 C 9.057 15.757,7.832 14.477,7.206 13.549 C 6.710 12.813,5.840 11.211,5.840 11.034 C 5.840 10.950,6.053 10.805,6.620 10.501 C 7.891 9.820,8.170 9.574,8.226 9.087 C 8.275 8.653,7.455 3.760,7.239 3.194 C 7.131 2.912,6.961 2.704,6.746 2.589 C 6.583 2.502,6.549 2.500,5.020 2.494 C 4.162 2.491,3.388 2.501,3.300 2.516 M15.440 2.506 C 15.096 2.529,15.046 2.550,14.812 2.771 C 14.528 3.040,14.476 3.147,14.451 3.519 C 14.433 3.770,14.444 3.857,14.510 4.002 C 14.608 4.220,14.819 4.467,15.034 4.616 C 15.183 4.719,15.239 4.731,15.728 4.762 C 16.021 4.781,16.526 4.797,16.850 4.798 C 17.175 4.799,17.440 4.811,17.440 4.824 C 17.440 4.838,16.708 5.589,15.813 6.494 C 13.979 8.350,13.423 8.948,13.316 9.180 C 13.155 9.528,13.252 10.031,13.542 10.354 C 13.905 10.758,14.465 10.893,14.846 10.670 C 15.084 10.531,15.796 9.871,17.321 8.376 C 18.014 7.696,18.707 7.024,18.861 6.882 L 19.140 6.624 19.166 6.822 C 19.181 6.931,19.195 7.380,19.197 7.820 C 19.201 8.518,19.212 8.642,19.279 8.789 C 19.377 9.006,19.694 9.345,19.893 9.446 C 20.087 9.546,20.537 9.587,20.731 9.523 C 20.945 9.452,21.224 9.222,21.429 8.946 L 21.611 8.700 21.586 5.988 C 21.565 3.777,21.550 3.257,21.504 3.168 C 21.417 3.000,21.133 2.695,20.969 2.593 L 20.820 2.500 18.240 2.496 C 16.821 2.493,15.561 2.498,15.440 2.506 " fill="#373B4D" stroke="none" fill-rule="evenodd"></path></svg>