<svg width="24" height="24" viewBox="0 0 24 24" fill="none" xmlns="http://www.w3.org/2000/svg"><path d="M3.620 2.478 C 3.400 2.495,3.184 2.524,3.140 2.542 C 2.932 2.627,2.743 2.795,2.579 3.041 L 2.400 3.311 2.400 4.085 C 2.401 5.366,2.476 7.427,2.541 7.960 C 2.801 10.082,3.603 12.337,4.762 14.200 C 5.412 15.246,6.108 16.114,7.057 17.062 C 9.072 19.075,11.544 20.456,14.384 21.155 C 15.596 21.453,16.000 21.499,17.965 21.566 C 19.561 21.620,20.608 21.584,20.891 21.466 C 21.061 21.396,21.365 21.104,21.459 20.923 C 21.634 20.583,21.653 18.041,21.484 17.415 C 21.382 17.036,21.113 16.826,20.541 16.680 C 20.231 16.601,17.238 16.091,15.960 15.900 C 14.988 15.754,14.787 15.752,14.560 15.886 C 14.244 16.073,14.104 16.265,13.600 17.200 C 13.108 18.113,13.045 18.207,12.946 18.177 C 12.287 17.978,10.697 17.037,9.788 16.306 C 8.973 15.652,8.029 14.675,7.411 13.847 C 6.901 13.164,5.840 11.272,5.840 11.047 C 5.840 10.934,5.925 10.875,6.653 10.482 C 7.883 9.817,8.112 9.631,8.203 9.221 C 8.249 9.016,8.243 8.911,8.144 8.206 C 8.020 7.322,7.618 4.901,7.460 4.080 C 7.269 3.090,7.135 2.808,6.747 2.583 C 6.582 2.488,6.562 2.486,5.300 2.467 C 4.596 2.456,3.840 2.461,3.620 2.478 M16.340 2.480 C 15.355 2.497,15.161 2.510,15.058 2.567 C 14.897 2.655,14.611 2.943,14.531 3.098 C 14.447 3.258,14.419 3.734,14.479 3.956 C 14.543 4.194,14.991 4.654,15.220 4.717 C 15.308 4.741,15.852 4.773,16.428 4.787 L 17.476 4.813 15.751 6.556 C 13.878 8.451,13.387 8.978,13.298 9.191 C 13.206 9.411,13.224 9.823,13.335 10.063 C 13.604 10.641,14.329 10.947,14.820 10.691 C 15.066 10.562,15.634 10.034,17.457 8.238 C 18.873 6.843,19.139 6.598,19.164 6.663 C 19.181 6.705,19.196 7.168,19.197 7.691 C 19.200 8.630,19.201 8.645,19.302 8.845 C 19.427 9.090,19.684 9.354,19.900 9.459 C 20.127 9.570,20.622 9.591,20.817 9.499 C 21.024 9.401,21.329 9.115,21.482 8.877 L 21.612 8.674 21.586 6.007 C 21.572 4.540,21.549 3.288,21.535 3.225 C 21.499 3.069,21.028 2.574,20.867 2.526 C 20.716 2.479,17.974 2.452,16.340 2.480 " fill="#373B4D" stroke="none" fill-rule="evenodd"></path></svg>