<svg width="24" height="24" viewBox="0 0 24 24" fill="none" xmlns="http://www.w3.org/2000/svg"><path d="M3.673 2.515 C 3.147 2.539,3.120 2.545,2.953 2.661 C 2.858 2.728,2.695 2.896,2.590 3.034 L 2.400 3.285 2.400 4.312 C 2.401 5.456,2.458 7.057,2.523 7.760 C 2.744 10.132,3.871 13.046,5.351 15.074 C 6.408 16.521,7.917 17.980,9.365 18.951 C 11.340 20.276,14.005 21.264,16.180 21.477 C 17.476 21.604,20.220 21.629,20.714 21.519 C 20.893 21.479,20.969 21.431,21.183 21.222 C 21.323 21.084,21.455 20.925,21.477 20.868 C 21.637 20.447,21.638 18.031,21.479 17.436 C 21.378 17.059,21.054 16.817,20.466 16.679 C 19.940 16.555,15.951 15.895,15.372 15.836 C 14.774 15.775,14.635 15.807,14.355 16.068 C 14.137 16.272,13.983 16.504,13.562 17.260 C 13.402 17.546,13.217 17.867,13.149 17.974 C 13.035 18.155,13.017 18.167,12.893 18.147 C 12.614 18.101,11.458 17.468,10.571 16.874 C 9.441 16.117,8.079 14.786,7.302 13.680 C 6.910 13.121,6.134 11.758,5.917 11.244 L 5.825 11.029 5.948 10.919 C 6.015 10.859,6.257 10.707,6.485 10.581 C 7.755 9.879,8.066 9.639,8.183 9.267 C 8.247 9.064,8.246 9.022,8.162 8.357 C 7.978 6.899,7.412 3.715,7.255 3.251 C 7.162 2.976,6.983 2.737,6.789 2.625 C 6.623 2.530,6.600 2.528,5.420 2.510 C 4.760 2.499,3.974 2.502,3.673 2.515 M19.672 2.730 C 19.299 3.051,18.329 3.988,16.834 5.473 L 15.648 6.651 15.625 6.236 C 15.612 6.007,15.588 5.503,15.570 5.116 C 15.539 4.422,15.537 4.409,15.419 4.239 C 15.262 4.011,14.956 3.773,14.748 3.716 C 14.539 3.660,14.049 3.692,13.892 3.774 C 13.684 3.882,13.367 4.197,13.313 4.351 C 13.271 4.469,13.260 5.080,13.260 7.266 L 13.260 10.032 13.424 10.226 C 13.514 10.333,13.693 10.505,13.822 10.610 L 14.056 10.800 16.794 10.800 L 19.533 10.800 19.751 10.632 C 20.188 10.294,20.395 9.883,20.344 9.450 C 20.314 9.193,20.246 9.052,20.050 8.835 C 19.765 8.519,19.726 8.510,18.051 8.407 C 17.760 8.389,17.510 8.364,17.497 8.350 C 17.451 8.304,17.596 8.145,19.114 6.580 C 21.587 4.030,21.587 4.031,21.551 3.529 C 21.529 3.221,21.431 3.000,21.234 2.814 C 21.045 2.637,20.885 2.566,20.572 2.521 C 20.032 2.443,19.996 2.451,19.672 2.730 " fill="#373B4D" stroke="none" fill-rule="evenodd"></path></svg>