<svg width="24" height="24" viewBox="0 0 24 24" fill="none" xmlns="http://www.w3.org/2000/svg"><path d="M3.413 2.557 C 3.135 2.577,3.061 2.598,2.914 2.701 C 2.689 2.860,2.530 3.092,2.479 3.340 C 2.410 3.666,2.385 5.612,2.437 6.600 C 2.530 8.388,2.728 9.448,3.261 11.000 C 4.001 13.156,4.999 14.820,6.582 16.538 C 8.454 18.570,10.628 19.962,13.280 20.828 C 15.109 21.425,16.486 21.598,19.422 21.599 L 20.743 21.600 20.966 21.410 C 21.194 21.215,21.359 21.035,21.513 20.814 C 21.597 20.692,21.600 20.651,21.599 19.694 C 21.599 18.638,21.547 17.649,21.479 17.397 C 21.342 16.888,20.812 16.698,18.420 16.300 C 16.801 16.032,15.745 15.888,15.151 15.856 L 14.700 15.832 14.511 15.955 C 14.266 16.113,14.082 16.368,13.499 17.356 L 13.020 18.167 12.880 18.144 C 12.687 18.113,11.875 17.701,11.317 17.351 C 10.296 16.709,9.641 16.191,8.813 15.368 C 7.610 14.173,7.055 13.408,6.227 11.803 L 5.827 11.027 5.938 10.938 C 5.999 10.890,6.386 10.649,6.797 10.403 C 7.653 9.891,7.953 9.669,8.110 9.432 C 8.212 9.278,8.219 9.237,8.213 8.903 C 8.205 8.505,8.101 7.765,7.795 5.940 C 7.368 3.388,7.238 2.962,6.790 2.637 L 6.628 2.520 5.184 2.527 C 4.390 2.530,3.593 2.544,3.413 2.557 M14.020 3.755 C 13.665 3.849,13.438 4.086,13.314 4.491 C 13.138 5.068,13.299 5.347,14.557 6.649 L 15.088 7.199 14.508 7.809 C 13.368 9.011,13.257 9.165,13.265 9.546 C 13.276 10.021,13.468 10.376,13.832 10.589 C 13.999 10.687,14.057 10.698,14.402 10.699 C 14.750 10.700,14.800 10.690,14.943 10.595 C 15.141 10.464,15.462 10.178,16.210 9.471 L 16.800 8.913 17.430 9.513 C 18.271 10.314,18.494 10.499,18.790 10.647 C 19.011 10.756,19.068 10.769,19.277 10.750 C 19.821 10.700,20.192 10.336,20.323 9.722 C 20.418 9.282,20.250 9.019,19.134 7.850 L 18.514 7.200 19.113 6.570 C 19.825 5.822,20.191 5.392,20.265 5.213 C 20.349 5.013,20.336 4.508,20.243 4.328 C 20.142 4.132,19.856 3.859,19.671 3.782 C 19.473 3.699,18.917 3.699,18.744 3.781 C 18.534 3.881,18.098 4.247,17.430 4.885 L 16.800 5.486 16.170 4.887 C 15.038 3.811,14.958 3.757,14.462 3.737 C 14.285 3.729,14.086 3.737,14.020 3.755 " fill="#373B4D" stroke="none" fill-rule="evenodd"></path></svg>