<svg width="24" height="24" viewBox="0 0 24 24" fill="none" xmlns="http://www.w3.org/2000/svg"><path d="M19.860 2.592 C 19.704 2.692,18.992 3.368,17.180 5.133 C 16.372 5.921,15.696 6.551,15.680 6.533 C 15.663 6.515,15.629 6.104,15.603 5.620 C 15.544 4.497,15.521 4.378,15.311 4.139 C 15.048 3.841,14.887 3.759,14.507 3.733 C 14.032 3.700,13.891 3.751,13.551 4.075 L 13.268 4.345 13.248 7.168 L 13.229 9.991 13.342 10.138 C 13.404 10.220,13.589 10.402,13.754 10.543 L 14.054 10.800 16.822 10.800 L 19.590 10.800 19.868 10.507 C 20.226 10.130,20.325 9.929,20.325 9.575 C 20.325 9.070,20.007 8.655,19.551 8.564 C 19.435 8.541,18.927 8.485,18.423 8.440 C 17.919 8.396,17.500 8.353,17.492 8.346 C 17.468 8.322,17.894 7.862,19.422 6.260 C 21.438 4.147,21.496 4.077,21.548 3.685 C 21.601 3.292,21.310 2.813,20.912 2.638 C 20.612 2.507,20.032 2.482,19.860 2.592 M3.180 2.595 C 2.982 2.646,2.900 2.705,2.644 2.985 L 2.400 3.252 2.400 4.416 C 2.401 5.648,2.453 7.076,2.522 7.740 C 2.763 10.074,3.852 12.944,5.235 14.890 C 6.452 16.603,8.204 18.255,9.883 19.273 C 11.724 20.390,13.985 21.188,16.080 21.460 C 16.693 21.539,18.780 21.603,19.840 21.574 C 20.560 21.554,20.636 21.545,20.828 21.454 C 20.950 21.397,21.118 21.266,21.237 21.135 C 21.555 20.788,21.572 20.692,21.576 19.240 C 21.581 17.590,21.519 17.272,21.137 16.981 C 20.842 16.756,20.496 16.674,18.260 16.302 C 16.307 15.977,15.636 15.880,15.158 15.853 C 14.743 15.829,14.721 15.832,14.547 15.934 C 14.318 16.068,14.064 16.407,13.596 17.200 C 13.050 18.126,13.054 18.120,12.934 18.120 C 12.577 18.120,10.786 17.079,9.860 16.332 C 8.973 15.617,7.948 14.548,7.373 13.738 C 6.849 13.000,5.880 11.278,5.880 11.084 C 5.880 10.976,6.007 10.880,6.740 10.439 C 7.820 9.790,8.121 9.531,8.199 9.185 C 8.239 9.006,8.192 8.531,8.017 7.365 C 7.752 5.605,7.378 3.643,7.224 3.209 C 7.144 2.986,6.987 2.783,6.806 2.671 C 6.661 2.581,6.650 2.580,4.980 2.572 C 4.056 2.568,3.246 2.579,3.180 2.595 " fill="#373B4D" stroke="none" fill-rule="evenodd"></path></svg>