<svg width="24" height="24" viewBox="0 0 24 24" fill="none" xmlns="http://www.w3.org/2000/svg"><path d="M17.140 2.563 C 16.238 2.579,15.404 2.603,15.287 2.617 C 14.848 2.668,14.611 2.900,14.494 3.394 C 14.405 3.774,14.479 3.996,14.815 4.353 C 15.125 4.683,15.241 4.715,16.500 4.822 C 16.918 4.858,17.266 4.893,17.273 4.899 C 17.295 4.921,16.926 5.321,15.702 6.600 C 13.721 8.671,13.484 8.936,13.355 9.220 C 13.194 9.573,13.299 10.024,13.613 10.337 C 13.936 10.658,14.326 10.805,14.637 10.721 C 14.893 10.652,15.025 10.537,17.080 8.600 C 18.570 7.195,19.001 6.800,19.042 6.800 C 19.101 6.800,19.118 6.937,19.163 7.809 L 19.210 8.700 19.348 8.889 C 19.682 9.348,20.073 9.555,20.509 9.504 C 20.798 9.470,20.963 9.378,21.310 9.060 L 21.600 8.794 21.600 6.006 L 21.600 3.218 21.249 2.869 L 20.898 2.520 19.839 2.527 C 19.257 2.530,18.042 2.546,17.140 2.563 M3.780 2.598 C 3.020 2.633,2.940 2.661,2.614 3.014 L 2.387 3.258 2.413 5.059 C 2.441 6.938,2.471 7.448,2.603 8.280 C 2.941 10.404,3.809 12.676,4.979 14.500 C 5.737 15.680,7.104 17.158,8.436 18.237 C 10.360 19.795,12.946 20.925,15.640 21.385 C 16.343 21.505,17.408 21.557,19.203 21.559 C 20.706 21.560,20.755 21.551,21.116 21.217 C 21.549 20.816,21.540 20.859,21.537 19.140 C 21.534 17.514,21.529 17.475,21.283 17.164 C 21.109 16.944,20.842 16.822,20.240 16.687 C 18.729 16.349,16.064 15.930,15.200 15.894 L 14.660 15.872 14.510 15.986 C 14.303 16.143,13.974 16.593,13.459 17.422 C 13.027 18.118,13.023 18.123,12.902 18.097 C 12.344 17.980,10.785 17.059,9.787 16.258 C 9.019 15.642,7.978 14.541,7.373 13.706 C 7.070 13.289,6.437 12.223,6.153 11.652 C 5.966 11.277,5.916 11.140,5.936 11.060 C 5.957 10.979,6.134 10.843,6.731 10.453 C 7.613 9.876,8.013 9.568,8.101 9.397 C 8.257 9.097,8.206 8.473,7.857 6.360 C 7.478 4.063,7.248 3.152,6.969 2.844 C 6.829 2.688,6.803 2.676,6.520 2.642 C 6.075 2.589,4.511 2.564,3.780 2.598 " fill="#373B4D" stroke="none" fill-rule="evenodd"></path></svg>