<svg width="24" height="24" viewBox="0 0 24 24" fill="none" xmlns="http://www.w3.org/2000/svg"><path d="M19.900 2.600 C 19.737 2.681,19.334 3.055,17.240 5.073 C 16.010 6.258,15.734 6.507,15.694 6.468 C 15.682 6.455,15.646 6.097,15.616 5.672 C 15.540 4.593,15.504 4.403,15.334 4.181 C 15.258 4.081,15.102 3.946,14.988 3.880 C 14.798 3.771,14.747 3.761,14.409 3.760 C 13.952 3.760,13.858 3.797,13.510 4.118 L 13.240 4.367 13.240 7.186 L 13.240 10.005 13.347 10.146 C 13.406 10.223,13.589 10.402,13.754 10.543 L 14.054 10.800 16.824 10.800 L 19.594 10.800 19.858 10.510 C 20.003 10.351,20.161 10.141,20.208 10.043 C 20.448 9.548,20.258 8.913,19.800 8.680 C 19.616 8.586,19.353 8.542,18.341 8.438 C 17.901 8.392,17.534 8.347,17.525 8.338 C 17.494 8.308,17.791 7.982,19.382 6.300 C 20.256 5.376,21.061 4.512,21.172 4.380 C 21.393 4.116,21.559 3.797,21.560 3.635 C 21.561 3.302,21.269 2.837,20.958 2.679 C 20.844 2.621,20.308 2.524,20.080 2.520 C 20.069 2.520,19.988 2.556,19.900 2.600 M3.640 2.599 C 3.003 2.630,2.944 2.654,2.620 3.009 L 2.391 3.260 2.413 5.020 C 2.426 5.988,2.455 7.005,2.478 7.280 C 2.686 9.762,3.646 12.484,5.072 14.639 C 5.931 15.936,7.427 17.492,8.832 18.549 C 10.819 20.044,13.529 21.120,16.180 21.466 C 16.534 21.512,17.165 21.534,18.580 21.548 C 20.476 21.567,20.503 21.566,20.730 21.481 C 21.011 21.375,21.327 21.082,21.452 20.811 C 21.538 20.625,21.540 20.580,21.540 19.160 C 21.540 17.836,21.533 17.680,21.465 17.485 C 21.368 17.206,21.154 16.971,20.890 16.854 C 20.382 16.629,15.994 15.886,15.058 15.867 C 14.722 15.861,14.683 15.868,14.527 15.971 C 14.311 16.114,14.010 16.521,13.468 17.408 L 13.035 18.114 12.888 18.093 C 12.396 18.021,10.640 16.976,9.700 16.194 C 8.829 15.470,7.797 14.348,7.247 13.530 C 6.654 12.647,5.920 11.305,5.920 11.104 C 5.920 10.977,6.015 10.901,6.774 10.420 C 7.527 9.943,7.893 9.672,8.051 9.473 C 8.271 9.198,8.243 8.714,7.876 6.480 C 7.419 3.697,7.204 2.921,6.825 2.697 C 6.638 2.587,4.964 2.535,3.640 2.599 " fill="#373B4D" stroke="none" fill-rule="evenodd"></path></svg>