<svg width="24" height="24" viewBox="0 0 24 24" fill="none" xmlns="http://www.w3.org/2000/svg"><path d="M2.980 2.633 C 2.826 2.739,2.648 2.900,2.583 2.991 C 2.477 3.143,2.464 3.200,2.431 3.649 C 2.382 4.340,2.459 7.486,2.540 8.078 C 2.792 9.911,3.584 12.219,4.502 13.787 C 6.014 16.372,8.533 18.730,11.140 19.998 C 12.775 20.793,14.884 21.388,16.532 21.519 C 16.814 21.541,17.876 21.570,18.892 21.583 L 20.740 21.607 20.994 21.412 C 21.294 21.181,21.545 20.829,21.580 20.589 C 21.594 20.496,21.600 19.763,21.593 18.960 L 21.580 17.500 21.474 17.320 C 21.277 16.987,20.981 16.788,20.500 16.665 C 19.976 16.532,16.850 16.017,15.605 15.859 C 14.491 15.718,14.384 15.786,13.640 17.120 C 13.130 18.033,13.046 18.160,12.952 18.160 C 12.743 18.160,11.585 17.552,10.771 17.015 C 9.384 16.100,7.965 14.688,7.059 13.320 C 6.520 12.508,5.911 11.309,5.904 11.046 C 5.900 10.907,5.907 10.900,6.320 10.669 C 7.803 9.838,7.932 9.751,8.102 9.459 C 8.261 9.189,8.264 8.966,8.123 8.000 C 7.967 6.938,7.599 4.718,7.463 4.023 C 7.287 3.125,7.141 2.823,6.770 2.594 C 6.631 2.508,6.566 2.500,5.701 2.474 C 5.194 2.459,4.438 2.446,4.020 2.444 L 3.260 2.441 2.980 2.633 " fill="#373B4D" stroke="none" fill-rule="evenodd"></path></svg>