<svg width="24" height="24" viewBox="0 0 24 24" fill="none" xmlns="http://www.w3.org/2000/svg"><path d="M3.520 2.434 C 3.047 2.477,2.708 2.714,2.512 3.140 L 2.420 3.340 2.425 5.200 C 2.430 7.168,2.455 7.588,2.626 8.580 C 3.731 14.999,8.581 19.996,14.970 21.298 C 16.101 21.528,17.656 21.625,19.630 21.588 C 20.883 21.564,20.925 21.554,21.258 21.197 C 21.589 20.844,21.580 20.901,21.580 19.180 C 21.579 17.443,21.567 17.350,21.312 17.060 C 21.009 16.717,20.980 16.709,17.935 16.199 C 15.653 15.817,15.022 15.731,14.797 15.774 C 14.585 15.814,14.302 16.011,14.144 16.228 C 14.067 16.334,13.802 16.811,13.557 17.289 C 13.311 17.767,13.089 18.176,13.063 18.197 C 12.982 18.264,11.766 17.665,10.967 17.164 C 9.307 16.124,7.857 14.666,6.804 12.980 C 6.459 12.426,5.792 11.094,5.808 10.988 C 5.817 10.919,5.985 10.817,6.601 10.501 C 7.852 9.859,8.006 9.749,8.161 9.390 C 8.240 9.205,8.248 9.137,8.227 8.820 C 8.200 8.422,7.486 4.072,7.353 3.500 C 7.251 3.060,7.170 2.892,6.974 2.720 C 6.666 2.449,6.638 2.445,5.158 2.425 C 4.422 2.415,3.685 2.419,3.520 2.434 M20.156 2.440 C 20.055 2.457,19.915 2.501,19.846 2.537 C 19.777 2.573,18.794 3.521,17.663 4.643 L 15.606 6.685 15.593 5.592 C 15.581 4.663,15.569 4.477,15.510 4.346 C 15.395 4.091,15.216 3.900,14.966 3.767 C 14.755 3.654,14.692 3.640,14.400 3.640 C 14.108 3.640,14.045 3.654,13.834 3.767 C 13.584 3.900,13.405 4.090,13.289 4.346 C 13.226 4.487,13.220 4.723,13.220 7.200 L 13.220 9.900 13.313 10.088 C 13.431 10.327,13.673 10.569,13.912 10.687 L 14.100 10.780 16.800 10.780 L 19.500 10.780 19.688 10.687 C 20.590 10.243,20.630 9.027,19.758 8.562 L 19.508 8.429 18.413 8.409 L 17.317 8.388 19.251 6.444 C 20.315 5.375,21.259 4.406,21.349 4.291 C 21.590 3.984,21.654 3.636,21.540 3.253 C 21.373 2.692,20.767 2.335,20.156 2.440 " fill="#373B4D" stroke="none" fill-rule="evenodd"></path></svg>