<svg width="24" height="24" viewBox="0 0 24 24" fill="none" xmlns="http://www.w3.org/2000/svg"><path d="M19.880 2.632 C 19.650 2.781,19.336 3.069,17.860 4.480 C 16.226 6.042,15.752 6.480,15.718 6.459 C 15.702 6.449,15.677 6.283,15.662 6.091 C 15.597 5.264,15.515 4.596,15.458 4.434 C 15.386 4.230,15.166 3.989,14.940 3.867 C 14.807 3.794,14.717 3.780,14.400 3.782 C 13.946 3.785,13.833 3.830,13.484 4.146 L 13.240 4.367 13.240 7.186 L 13.240 10.005 13.347 10.146 C 13.406 10.223,13.589 10.402,13.754 10.543 L 14.054 10.800 16.823 10.800 L 19.593 10.800 19.782 10.590 C 20.340 9.972,20.443 9.529,20.147 9.034 C 19.935 8.680,19.776 8.623,18.600 8.479 C 18.061 8.413,17.594 8.354,17.562 8.349 C 17.485 8.337,17.760 8.022,19.044 6.657 C 21.521 4.024,21.603 3.922,21.543 3.547 C 21.506 3.319,21.290 2.931,21.131 2.811 C 20.986 2.700,20.609 2.581,20.272 2.541 C 20.082 2.518,20.041 2.527,19.880 2.632 M3.252 2.640 C 2.996 2.678,2.828 2.779,2.579 3.045 L 2.387 3.250 2.413 5.015 C 2.428 5.986,2.458 7.005,2.481 7.280 C 2.634 9.131,3.224 11.149,4.165 13.040 C 4.947 14.611,5.678 15.608,7.057 16.980 C 8.390 18.307,9.568 19.163,11.100 19.918 C 12.759 20.736,14.786 21.329,16.460 21.486 C 17.202 21.556,20.482 21.558,20.710 21.488 C 20.959 21.413,21.417 20.959,21.486 20.720 C 21.556 20.475,21.553 17.823,21.482 17.560 C 21.379 17.175,21.127 16.949,20.634 16.795 C 19.766 16.525,16.331 15.963,15.135 15.896 L 14.651 15.869 14.465 16.039 C 14.223 16.263,13.975 16.602,13.500 17.360 C 13.035 18.102,13.011 18.128,12.815 18.073 C 12.282 17.926,11.046 17.202,10.000 16.425 C 9.540 16.083,8.263 14.819,7.792 14.240 C 7.247 13.569,6.656 12.635,6.199 11.720 C 5.905 11.134,5.894 11.095,5.986 10.992 C 6.027 10.947,6.377 10.697,6.763 10.437 C 7.693 9.812,8.012 9.559,8.104 9.372 C 8.252 9.075,8.180 8.254,7.816 6.100 C 7.523 4.369,7.289 3.387,7.084 3.021 C 6.919 2.728,6.834 2.681,6.397 2.639 C 5.950 2.595,3.551 2.597,3.252 2.640 " fill="#373B4D" stroke="none" fill-rule="evenodd"></path></svg>