<svg width="24" height="24" viewBox="0 0 24 24" fill="none" xmlns="http://www.w3.org/2000/svg"><path d="M2.956 2.670 C 2.440 3.080,2.462 3.001,2.447 4.492 C 2.431 6.191,2.492 7.794,2.599 8.440 C 2.823 9.788,3.474 11.751,4.138 13.080 C 4.871 14.546,5.614 15.541,7.037 16.962 C 8.967 18.889,10.679 19.969,13.039 20.749 C 14.172 21.123,15.269 21.377,16.197 21.480 C 16.716 21.538,18.490 21.598,19.725 21.599 L 20.751 21.600 20.967 21.422 C 21.205 21.226,21.386 21.016,21.504 20.800 C 21.575 20.669,21.580 20.559,21.580 19.120 C 21.580 17.950,21.567 17.544,21.527 17.432 C 21.454 17.224,21.093 16.906,20.810 16.799 C 20.443 16.661,19.839 16.536,18.300 16.281 C 16.740 16.022,15.852 15.900,15.211 15.856 C 14.443 15.804,14.368 15.873,13.407 17.502 C 13.251 17.766,13.078 18.026,13.023 18.077 L 12.923 18.172 12.671 18.063 C 12.247 17.880,11.324 17.368,10.841 17.048 C 9.478 16.146,7.993 14.681,7.114 13.372 C 6.482 12.429,5.960 11.364,5.960 11.017 C 5.960 10.899,5.983 10.873,6.190 10.756 C 6.967 10.316,7.692 9.862,7.868 9.704 C 8.323 9.294,8.321 9.086,7.836 6.180 C 7.603 4.783,7.429 3.862,7.316 3.440 C 7.220 3.078,7.020 2.768,6.802 2.646 C 6.607 2.536,6.096 2.496,4.401 2.455 L 3.260 2.428 2.956 2.670 " fill="#373B4D" stroke="none" fill-rule="evenodd"></path></svg>