<svg width="24" height="24" viewBox="0 0 24 24" fill="none" xmlns="http://www.w3.org/2000/svg"><path d="M16.640 2.561 C 15.765 2.578,15.156 2.606,15.054 2.634 C 14.603 2.761,14.302 3.555,14.536 4.000 C 14.659 4.233,14.875 4.474,15.058 4.581 C 15.276 4.709,15.490 4.743,16.429 4.803 C 16.842 4.830,17.214 4.863,17.256 4.879 C 17.339 4.909,17.443 4.795,15.164 7.160 C 13.410 8.982,13.280 9.147,13.280 9.566 C 13.280 9.885,13.379 10.133,13.594 10.353 C 13.820 10.584,14.087 10.714,14.391 10.743 C 14.786 10.780,14.806 10.764,17.100 8.582 C 18.747 7.017,19.025 6.760,19.076 6.760 C 19.125 6.760,19.153 7.065,19.183 7.940 L 19.209 8.700 19.347 8.888 C 19.543 9.156,19.862 9.431,20.033 9.479 C 20.114 9.501,20.289 9.520,20.422 9.520 C 20.761 9.520,21.010 9.387,21.339 9.032 L 21.600 8.750 21.600 5.984 L 21.600 3.218 21.249 2.869 L 20.898 2.520 19.479 2.527 C 18.699 2.531,17.421 2.546,16.640 2.561 M3.440 2.597 C 3.003 2.623,2.931 2.661,2.602 3.029 L 2.400 3.256 2.400 4.438 C 2.401 5.852,2.458 7.235,2.544 7.920 C 2.827 10.165,3.799 12.750,5.080 14.660 C 6.119 16.209,7.795 17.878,9.380 18.943 C 11.541 20.395,14.343 21.361,16.865 21.523 C 17.840 21.586,20.410 21.589,20.621 21.528 C 21.045 21.406,21.440 21.004,21.521 20.613 C 21.597 20.251,21.584 18.017,21.505 17.643 C 21.404 17.170,21.207 16.952,20.729 16.783 C 20.221 16.604,16.141 15.926,15.157 15.857 C 14.835 15.834,14.749 15.841,14.624 15.901 C 14.379 16.017,14.092 16.384,13.556 17.265 L 13.048 18.100 12.886 18.093 C 12.536 18.077,11.035 17.223,10.060 16.486 C 9.352 15.951,8.325 14.941,7.715 14.180 C 7.232 13.578,6.494 12.387,6.072 11.528 C 5.900 11.179,5.876 11.101,5.912 11.022 C 5.936 10.969,6.154 10.806,6.427 10.637 C 7.664 9.874,8.036 9.592,8.146 9.331 C 8.261 9.058,8.169 8.174,7.801 6.019 C 7.381 3.565,7.220 2.988,6.884 2.730 C 6.744 2.623,6.719 2.619,6.080 2.594 C 5.303 2.563,3.978 2.565,3.440 2.597 " fill="#373B4D" stroke="none" fill-rule="evenodd"></path></svg>