<svg width="24" height="24" viewBox="0 0 24 24" fill="none" xmlns="http://www.w3.org/2000/svg"><path d="M3.243 2.484 C 3.189 2.505,3.023 2.623,2.872 2.746 C 2.453 3.089,2.464 3.024,2.473 5.280 C 2.481 7.169,2.514 7.884,2.622 8.511 C 2.895 10.097,3.820 12.610,4.625 13.949 C 5.349 15.154,6.042 15.963,7.680 17.513 C 8.622 18.404,9.579 19.123,10.580 19.689 C 11.634 20.285,13.675 21.002,15.223 21.321 C 16.070 21.495,17.726 21.599,19.646 21.600 L 20.792 21.600 21.082 21.290 C 21.242 21.119,21.426 20.908,21.491 20.820 L 21.610 20.660 21.587 19.219 C 21.574 18.423,21.544 17.687,21.519 17.574 C 21.432 17.169,21.055 16.886,20.355 16.702 C 19.453 16.466,16.364 15.973,15.315 15.899 C 14.717 15.856,14.626 15.883,14.320 16.195 C 14.161 16.357,13.847 16.782,13.511 17.290 C 13.102 17.908,12.941 18.120,12.882 18.120 C 12.564 18.120,10.854 17.087,9.860 16.295 C 9.294 15.844,8.235 14.784,7.785 14.220 C 7.137 13.406,6.562 12.494,6.251 11.788 C 6.036 11.301,5.970 11.024,6.046 10.932 C 6.076 10.896,6.468 10.623,6.918 10.326 C 7.367 10.030,7.812 9.710,7.905 9.617 C 8.094 9.428,8.200 9.150,8.200 8.842 C 8.200 8.117,7.470 3.879,7.240 3.271 C 7.141 3.008,6.934 2.762,6.742 2.677 C 6.560 2.597,5.988 2.544,4.640 2.481 C 3.609 2.432,3.371 2.433,3.243 2.484 " fill="#373B4D" stroke="none" fill-rule="evenodd"></path></svg>