<svg width="24" height="24" viewBox="0 0 24 24" fill="none" xmlns="http://www.w3.org/2000/svg"><path d="M3.535 2.554 C 3.018 2.584,2.948 2.620,2.606 3.020 L 2.401 3.260 2.401 4.400 C 2.401 5.627,2.452 7.032,2.523 7.740 C 2.761 10.126,3.845 12.956,5.300 14.987 C 6.414 16.542,8.126 18.174,9.642 19.126 C 11.812 20.488,14.372 21.353,16.740 21.524 C 17.670 21.591,20.446 21.596,20.662 21.530 C 21.051 21.413,21.436 21.029,21.518 20.677 C 21.581 20.404,21.615 18.647,21.567 18.117 C 21.505 17.440,21.460 17.296,21.241 17.077 C 20.921 16.757,20.767 16.717,18.177 16.284 C 16.083 15.934,15.409 15.840,14.992 15.840 C 14.702 15.840,14.647 15.852,14.510 15.947 C 14.237 16.136,14.005 16.477,13.207 17.863 C 13.051 18.135,13.039 18.146,12.912 18.130 C 12.739 18.109,11.935 17.715,11.380 17.380 C 10.300 16.728,9.724 16.282,8.825 15.402 C 8.088 14.679,7.677 14.201,7.242 13.560 C 6.677 12.727,5.880 11.262,5.880 11.058 C 5.880 10.959,6.005 10.872,6.919 10.330 C 7.838 9.785,8.106 9.548,8.201 9.195 C 8.249 9.017,8.198 8.540,7.977 7.100 C 7.696 5.277,7.339 3.451,7.201 3.135 C 7.096 2.894,6.857 2.648,6.686 2.602 C 6.507 2.555,4.148 2.519,3.535 2.554 M15.800 2.558 C 15.011 2.583,14.947 2.602,14.703 2.887 C 14.540 3.078,14.440 3.364,14.440 3.639 C 14.440 3.900,14.598 4.193,14.880 4.454 C 15.091 4.649,15.141 4.675,15.383 4.718 C 15.530 4.743,16.028 4.780,16.490 4.799 C 16.951 4.819,17.338 4.844,17.349 4.856 C 17.371 4.877,17.091 5.172,15.043 7.288 C 13.622 8.755,13.373 9.044,13.294 9.314 C 13.107 9.958,13.648 10.685,14.364 10.750 C 14.793 10.789,14.860 10.735,17.280 8.415 C 19.223 6.552,19.105 6.657,19.134 6.769 C 19.148 6.819,19.170 7.277,19.185 7.787 L 19.212 8.714 19.402 8.967 C 19.506 9.107,19.679 9.283,19.786 9.360 C 19.969 9.492,20.002 9.501,20.346 9.514 C 20.814 9.531,20.910 9.487,21.300 9.072 L 21.600 8.753 21.600 6.847 C 21.600 5.798,21.588 4.544,21.573 4.060 L 21.547 3.180 21.222 2.850 L 20.898 2.520 18.699 2.528 C 17.490 2.532,16.185 2.546,15.800 2.558 " fill="#373B4D" stroke="none" fill-rule="evenodd"></path></svg>