<svg width="24" height="24" viewBox="0 0 24 24" fill="none" xmlns="http://www.w3.org/2000/svg"><path d="M4.060 2.559 C 3.053 2.587,3.012 2.597,2.772 2.847 C 2.557 3.071,2.484 3.295,2.435 3.887 C 2.387 4.465,2.412 6.219,2.484 7.280 C 2.656 9.842,3.690 12.691,5.241 14.880 C 6.490 16.642,8.168 18.209,10.016 19.340 C 11.780 20.420,14.298 21.279,16.284 21.478 C 16.982 21.547,18.398 21.599,19.623 21.600 L 20.786 21.600 21.113 21.265 C 21.293 21.081,21.467 20.865,21.500 20.787 C 21.633 20.467,21.606 17.880,21.464 17.418 C 21.323 16.959,20.875 16.763,19.280 16.464 C 17.896 16.205,16.262 15.970,15.183 15.874 L 14.627 15.825 14.413 16.055 C 14.112 16.379,13.947 16.611,13.517 17.320 C 13.310 17.661,13.094 17.993,13.036 18.057 L 12.932 18.174 12.690 18.084 C 12.373 17.965,11.596 17.522,10.900 17.063 C 9.253 15.977,7.638 14.276,6.703 12.646 C 6.381 12.085,5.880 11.108,5.880 11.043 C 5.880 11.022,6.065 10.884,6.290 10.736 C 8.039 9.591,8.112 9.532,8.163 9.212 C 8.239 8.738,7.963 6.622,7.561 4.607 C 7.330 3.450,7.162 3.005,6.841 2.705 L 6.643 2.520 5.812 2.527 C 5.354 2.531,4.566 2.545,4.060 2.559 M18.933 3.758 C 18.649 3.803,18.149 4.191,17.211 5.094 L 16.802 5.489 16.190 4.914 C 15.085 3.877,14.969 3.799,14.500 3.769 C 14.121 3.744,13.847 3.812,13.653 3.978 C 13.348 4.239,13.207 4.728,13.332 5.094 C 13.443 5.420,13.633 5.660,14.548 6.630 L 15.086 7.199 14.459 7.867 C 13.731 8.642,13.425 9.009,13.341 9.212 C 13.120 9.740,13.497 10.498,14.061 10.662 C 14.332 10.741,14.634 10.726,14.848 10.623 C 15.032 10.536,15.429 10.198,16.204 9.472 L 16.801 8.913 17.371 9.449 C 18.522 10.534,18.794 10.729,19.158 10.729 C 19.791 10.729,20.313 10.207,20.318 9.568 C 20.321 9.195,20.118 8.903,19.108 7.830 L 18.515 7.200 19.124 6.550 C 20.215 5.386,20.346 5.187,20.310 4.744 C 20.289 4.476,20.150 4.157,19.994 4.015 C 19.759 3.801,19.325 3.696,18.933 3.758 " fill="#373B4D" stroke="none" fill-rule="evenodd"></path></svg>