<svg width="24" height="24" viewBox="0 0 24 24" fill="none" xmlns="http://www.w3.org/2000/svg"><path d="M3.620 2.478 C 3.400 2.495,3.184 2.524,3.140 2.542 C 2.932 2.627,2.743 2.795,2.579 3.041 L 2.400 3.311 2.400 4.085 C 2.401 5.366,2.476 7.427,2.541 7.960 C 2.801 10.082,3.603 12.337,4.762 14.200 C 5.412 15.246,6.108 16.114,7.057 17.062 C 9.072 19.075,11.544 20.456,14.384 21.155 C 15.596 21.453,16.000 21.499,17.965 21.566 C 19.561 21.620,20.608 21.584,20.891 21.466 C 21.061 21.396,21.365 21.104,21.459 20.923 C 21.634 20.583,21.653 18.041,21.484 17.415 C 21.382 17.036,21.113 16.826,20.541 16.680 C 20.231 16.601,17.238 16.091,15.960 15.900 C 14.988 15.754,14.787 15.752,14.560 15.886 C 14.244 16.073,14.104 16.265,13.600 17.200 C 13.108 18.113,13.045 18.207,12.946 18.177 C 12.287 17.978,10.697 17.037,9.788 16.306 C 8.973 15.652,8.029 14.675,7.411 13.847 C 6.901 13.164,5.840 11.272,5.840 11.047 C 5.840 10.934,5.925 10.875,6.653 10.482 C 7.883 9.817,8.112 9.631,8.203 9.221 C 8.249 9.016,8.243 8.911,8.144 8.206 C 8.020 7.322,7.618 4.901,7.460 4.080 C 7.269 3.090,7.135 2.808,6.747 2.583 C 6.582 2.488,6.562 2.486,5.300 2.467 C 4.596 2.456,3.840 2.461,3.620 2.478 M19.791 2.618 C 19.578 2.777,17.667 4.624,16.460 5.836 C 16.021 6.278,15.649 6.640,15.636 6.640 C 15.622 6.640,15.601 6.168,15.589 5.590 C 15.576 4.971,15.548 4.476,15.520 4.385 C 15.462 4.193,15.142 3.864,14.910 3.759 C 14.672 3.651,14.127 3.651,13.889 3.759 C 13.647 3.869,13.333 4.203,13.276 4.411 C 13.243 4.531,13.228 5.358,13.225 7.240 C 13.220 9.737,13.224 9.909,13.293 10.046 C 13.379 10.220,13.666 10.519,13.904 10.682 L 14.074 10.800 16.800 10.800 L 19.526 10.800 19.709 10.674 C 20.271 10.287,20.486 9.743,20.296 9.187 C 20.220 8.964,19.960 8.683,19.715 8.557 C 19.554 8.475,19.453 8.464,18.470 8.426 C 17.882 8.403,17.400 8.370,17.400 8.353 C 17.400 8.335,18.140 7.569,19.045 6.651 C 20.834 4.834,21.362 4.266,21.491 4.020 C 21.618 3.776,21.608 3.399,21.466 3.109 C 21.348 2.867,21.207 2.727,20.945 2.590 C 20.816 2.523,20.693 2.501,20.380 2.491 L 19.980 2.477 19.791 2.618 " fill="#373B4D" stroke="none" fill-rule="evenodd"></path></svg>