<svg width="24" height="24" viewBox="0 0 24 24" fill="none" xmlns="http://www.w3.org/2000/svg"><path d="M2.940 2.685 C 2.772 2.820,2.609 2.970,2.577 3.019 C 2.479 3.169,2.442 3.656,2.442 4.820 C 2.442 6.240,2.500 7.694,2.580 8.270 C 2.793 9.793,3.656 12.269,4.485 13.732 C 4.779 14.252,5.312 15.028,5.712 15.520 C 6.213 16.135,7.884 17.788,8.520 18.297 C 9.167 18.814,10.051 19.408,10.681 19.748 C 12.155 20.546,14.433 21.270,16.062 21.459 C 16.697 21.533,18.439 21.599,19.774 21.599 L 20.768 21.600 21.048 21.330 C 21.203 21.181,21.384 20.980,21.451 20.883 L 21.574 20.706 21.591 19.583 C 21.611 18.249,21.566 17.505,21.453 17.312 C 21.352 17.140,21.041 16.907,20.777 16.806 C 20.473 16.689,19.802 16.546,18.600 16.342 C 16.397 15.968,15.008 15.802,14.718 15.881 C 14.399 15.966,14.140 16.279,13.429 17.440 C 13.261 17.715,13.080 17.993,13.027 18.058 L 12.930 18.176 12.635 18.046 C 12.227 17.867,11.260 17.321,10.780 16.999 C 9.639 16.234,8.295 14.946,7.417 13.777 C 6.631 12.731,5.867 11.214,5.991 10.945 C 6.013 10.897,6.331 10.680,6.725 10.445 C 7.107 10.216,7.550 9.932,7.709 9.814 C 8.321 9.359,8.330 9.155,7.855 6.300 C 7.602 4.781,7.396 3.721,7.280 3.355 C 7.186 3.058,6.973 2.750,6.799 2.659 C 6.731 2.624,6.529 2.579,6.348 2.559 C 6.014 2.522,4.111 2.441,3.552 2.440 L 3.245 2.440 2.940 2.685 " fill="#373B4D" stroke="none" fill-rule="evenodd"></path></svg>