<svg width="24" height="24" viewBox="0 0 24 24" fill="none" xmlns="http://www.w3.org/2000/svg"><path d="M3.420 2.433 C 3.155 2.470,2.811 2.668,2.650 2.877 C 2.391 3.214,2.385 3.276,2.413 5.440 C 2.431 6.841,2.456 7.508,2.500 7.840 C 3.040 11.848,4.860 15.242,7.862 17.837 C 10.107 19.778,12.756 20.978,15.860 21.460 C 16.419 21.546,18.079 21.607,19.500 21.592 C 20.661 21.580,20.706 21.577,20.888 21.487 C 20.991 21.437,21.147 21.323,21.235 21.235 C 21.323 21.147,21.437 20.991,21.487 20.888 C 21.578 20.704,21.580 20.670,21.592 19.285 C 21.606 17.710,21.582 17.434,21.412 17.189 C 21.229 16.924,20.930 16.726,20.615 16.661 C 19.589 16.448,15.665 15.808,15.180 15.774 C 14.833 15.750,14.810 15.754,14.575 15.873 C 14.440 15.941,14.278 16.049,14.213 16.113 C 14.149 16.177,13.866 16.682,13.583 17.236 C 13.117 18.149,13.061 18.240,12.985 18.215 C 12.938 18.201,12.663 18.076,12.374 17.939 C 9.559 16.603,7.256 14.262,5.978 11.436 C 5.808 11.059,5.769 10.939,5.808 10.912 C 5.837 10.894,6.274 10.667,6.780 10.410 C 7.840 9.870,8.048 9.708,8.196 9.306 L 8.282 9.073 8.158 8.226 C 7.997 7.115,7.468 3.962,7.364 3.486 C 7.319 3.281,7.245 3.052,7.199 2.979 C 7.095 2.809,6.884 2.624,6.674 2.517 C 6.518 2.438,6.437 2.433,5.065 2.419 C 4.270 2.412,3.530 2.418,3.420 2.433 " fill="#373B4D" stroke="none" fill-rule="evenodd"></path></svg>