<svg width="24" height="24" viewBox="0 0 24 24" fill="none" xmlns="http://www.w3.org/2000/svg"><path d="M19.900 2.552 C 19.696 2.683,19.166 3.185,17.374 4.944 L 15.648 6.638 15.621 6.049 C 15.550 4.538,15.536 4.407,15.416 4.235 C 15.297 4.062,15.101 3.894,14.880 3.776 C 14.715 3.687,14.193 3.675,13.953 3.755 C 13.780 3.813,13.381 4.183,13.315 4.346 C 13.283 4.426,13.264 5.292,13.250 7.227 L 13.229 9.994 13.385 10.184 C 13.470 10.288,13.656 10.470,13.798 10.587 L 14.056 10.800 16.799 10.800 L 19.541 10.800 19.741 10.638 C 20.254 10.221,20.447 9.756,20.306 9.277 C 20.236 9.041,19.987 8.717,19.801 8.621 C 19.645 8.540,19.291 8.492,18.460 8.438 C 18.064 8.412,17.680 8.380,17.607 8.365 L 17.473 8.339 17.599 8.180 C 17.669 8.092,18.341 7.383,19.093 6.605 C 21.388 4.230,21.521 4.072,21.551 3.706 C 21.579 3.367,21.473 3.070,21.243 2.839 C 21.020 2.616,20.799 2.534,20.324 2.498 C 20.066 2.478,20.002 2.486,19.900 2.552 M3.199 2.556 C 3.009 2.595,2.844 2.723,2.602 3.021 L 2.400 3.270 2.400 4.345 C 2.400 5.518,2.455 7.047,2.522 7.740 C 2.774 10.359,4.039 13.452,5.716 15.549 C 6.650 16.716,7.928 17.938,9.043 18.727 C 11.026 20.133,13.731 21.190,16.032 21.460 C 17.179 21.595,20.218 21.636,20.693 21.523 C 21.032 21.443,21.453 21.020,21.522 20.692 C 21.544 20.586,21.573 20.086,21.586 19.580 C 21.613 18.581,21.560 17.693,21.458 17.391 C 21.377 17.155,21.195 16.973,20.900 16.835 C 20.605 16.697,20.419 16.657,18.660 16.359 C 16.333 15.965,15.438 15.833,15.054 15.826 C 14.705 15.820,14.679 15.826,14.514 15.942 C 14.250 16.126,14.038 16.421,13.522 17.320 L 13.051 18.140 12.908 18.131 C 12.728 18.121,12.119 17.819,11.340 17.355 C 10.291 16.730,9.598 16.190,8.701 15.295 C 7.775 14.373,7.279 13.721,6.603 12.540 C 6.088 11.641,5.820 11.081,5.868 11.002 C 5.910 10.934,6.259 10.714,7.105 10.220 C 7.891 9.762,8.146 9.509,8.220 9.116 C 8.289 8.746,7.470 3.845,7.233 3.211 C 7.188 3.089,7.086 2.919,7.008 2.832 C 6.735 2.529,6.812 2.541,4.980 2.533 C 4.078 2.530,3.276 2.540,3.199 2.556 " fill="#373B4D" stroke="none" fill-rule="evenodd"></path></svg>