<svg width="24" height="24" viewBox="0 0 24 24" fill="none" xmlns="http://www.w3.org/2000/svg"><path d="M16.300 2.560 C 15.002 2.587,14.946 2.598,14.726 2.865 C 14.448 3.203,14.372 3.664,14.538 4.012 C 14.645 4.234,14.937 4.542,15.132 4.636 C 15.309 4.722,15.718 4.767,16.810 4.822 C 17.092 4.837,17.320 4.865,17.320 4.887 C 17.320 4.908,17.143 5.108,16.927 5.333 C 16.711 5.557,15.970 6.325,15.280 7.040 C 13.349 9.042,13.267 9.146,13.266 9.584 C 13.264 10.169,13.755 10.684,14.375 10.748 C 14.790 10.791,14.815 10.770,17.400 8.298 C 19.047 6.723,19.087 6.688,19.122 6.785 C 19.138 6.827,19.164 7.275,19.180 7.781 L 19.209 8.700 19.342 8.880 C 19.537 9.145,19.800 9.388,19.969 9.458 C 20.056 9.495,20.236 9.520,20.406 9.520 C 20.793 9.520,20.966 9.431,21.324 9.048 L 21.610 8.741 21.593 5.969 L 21.576 3.198 21.239 2.859 L 20.902 2.520 19.181 2.527 C 18.234 2.531,16.938 2.546,16.300 2.560 M3.180 2.595 C 2.982 2.646,2.900 2.705,2.644 2.985 L 2.400 3.252 2.400 4.416 C 2.401 5.648,2.453 7.076,2.522 7.740 C 2.763 10.074,3.852 12.944,5.235 14.890 C 6.452 16.603,8.204 18.255,9.883 19.273 C 11.724 20.390,13.985 21.188,16.080 21.460 C 16.693 21.539,18.780 21.603,19.840 21.574 C 20.560 21.554,20.636 21.545,20.828 21.454 C 20.950 21.397,21.118 21.266,21.237 21.135 C 21.555 20.788,21.572 20.692,21.576 19.240 C 21.581 17.590,21.519 17.272,21.137 16.981 C 20.842 16.756,20.496 16.674,18.260 16.302 C 16.307 15.977,15.636 15.880,15.158 15.853 C 14.743 15.829,14.721 15.832,14.547 15.934 C 14.318 16.068,14.064 16.407,13.596 17.200 C 13.050 18.126,13.054 18.120,12.934 18.120 C 12.577 18.120,10.786 17.079,9.860 16.332 C 8.973 15.617,7.948 14.548,7.373 13.738 C 6.849 13.000,5.880 11.278,5.880 11.084 C 5.880 10.976,6.007 10.880,6.740 10.439 C 7.820 9.790,8.121 9.531,8.199 9.185 C 8.239 9.006,8.192 8.531,8.017 7.365 C 7.752 5.605,7.378 3.643,7.224 3.209 C 7.144 2.986,6.987 2.783,6.806 2.671 C 6.661 2.581,6.650 2.580,4.980 2.572 C 4.056 2.568,3.246 2.579,3.180 2.595 " fill="#373B4D" stroke="none" fill-rule="evenodd"></path></svg>