<svg width="24" height="24" viewBox="0 0 24 24" fill="none" xmlns="http://www.w3.org/2000/svg"><path d="M19.930 2.545 C 19.758 2.631,19.275 3.086,17.309 5.012 C 16.411 5.891,15.671 6.604,15.664 6.595 C 15.656 6.587,15.629 6.157,15.602 5.640 C 15.576 5.123,15.540 4.624,15.522 4.530 C 15.477 4.289,15.325 4.081,15.060 3.898 C 14.837 3.744,14.820 3.740,14.441 3.726 C 13.972 3.710,13.854 3.758,13.520 4.098 L 13.300 4.323 13.274 5.131 C 13.260 5.576,13.246 6.855,13.244 7.972 L 13.240 10.005 13.370 10.168 C 13.442 10.258,13.625 10.437,13.777 10.566 L 14.055 10.800 16.807 10.800 L 19.559 10.800 19.838 10.536 C 20.203 10.192,20.341 9.923,20.338 9.560 C 20.334 9.089,20.004 8.651,19.586 8.560 C 19.473 8.536,18.960 8.482,18.446 8.441 C 17.932 8.399,17.504 8.357,17.494 8.347 C 17.464 8.317,17.767 7.988,19.137 6.560 C 21.176 4.436,21.343 4.249,21.485 3.940 C 21.661 3.556,21.497 3.019,21.119 2.739 C 20.847 2.538,20.165 2.427,19.930 2.545 M3.535 2.554 C 3.018 2.584,2.948 2.620,2.606 3.020 L 2.401 3.260 2.401 4.400 C 2.401 5.627,2.452 7.032,2.523 7.740 C 2.761 10.126,3.845 12.956,5.300 14.987 C 6.414 16.542,8.126 18.174,9.642 19.126 C 11.812 20.488,14.372 21.353,16.740 21.524 C 17.670 21.591,20.446 21.596,20.662 21.530 C 21.051 21.413,21.436 21.029,21.518 20.677 C 21.581 20.404,21.615 18.647,21.567 18.117 C 21.505 17.440,21.460 17.296,21.241 17.077 C 20.921 16.757,20.767 16.717,18.177 16.284 C 16.083 15.934,15.409 15.840,14.992 15.840 C 14.702 15.840,14.647 15.852,14.510 15.947 C 14.237 16.136,14.005 16.477,13.207 17.863 C 13.051 18.135,13.039 18.146,12.912 18.130 C 12.739 18.109,11.935 17.715,11.380 17.380 C 10.300 16.728,9.724 16.282,8.825 15.402 C 8.088 14.679,7.677 14.201,7.242 13.560 C 6.677 12.727,5.880 11.262,5.880 11.058 C 5.880 10.959,6.005 10.872,6.919 10.330 C 7.838 9.785,8.106 9.548,8.201 9.195 C 8.249 9.017,8.198 8.540,7.977 7.100 C 7.696 5.277,7.339 3.451,7.201 3.135 C 7.096 2.894,6.857 2.648,6.686 2.602 C 6.507 2.555,4.148 2.519,3.535 2.554 " fill="#373B4D" stroke="none" fill-rule="evenodd"></path></svg>