<svg width="24" height="24" viewBox="0 0 24 24" fill="none" xmlns="http://www.w3.org/2000/svg"><path d="M2.993 2.636 C 2.673 2.878,2.536 3.038,2.476 3.236 C 2.418 3.432,2.452 7.241,2.518 7.820 C 2.632 8.829,2.811 9.595,3.219 10.821 C 4.079 13.409,5.103 15.062,7.050 17.005 C 9.203 19.153,11.404 20.397,14.357 21.137 C 15.772 21.491,16.375 21.550,19.000 21.587 L 20.740 21.612 20.965 21.427 C 21.207 21.230,21.383 21.025,21.505 20.800 C 21.575 20.670,21.580 20.552,21.580 19.080 C 21.580 17.312,21.594 17.404,21.281 17.095 C 20.947 16.765,20.602 16.663,18.720 16.342 C 16.457 15.956,15.067 15.788,14.703 15.857 C 14.410 15.912,14.133 16.248,13.579 17.220 C 13.185 17.911,13.011 18.160,12.920 18.160 C 12.820 18.160,11.644 17.559,11.176 17.268 C 9.776 16.400,8.389 15.119,7.391 13.773 C 6.689 12.827,5.960 11.444,5.960 11.060 L 5.960 10.886 6.670 10.476 C 7.748 9.853,7.970 9.688,8.120 9.399 C 8.292 9.065,8.260 8.721,7.805 6.000 C 7.513 4.257,7.365 3.522,7.232 3.167 C 7.127 2.888,6.872 2.622,6.654 2.563 C 6.478 2.516,4.765 2.442,3.816 2.441 L 3.252 2.440 2.993 2.636 " fill="#373B4D" stroke="none" fill-rule="evenodd"></path></svg>