<svg width="24" height="24" viewBox="0 0 24 24" fill="none" xmlns="http://www.w3.org/2000/svg"><path d="M3.014 2.613 C 2.627 2.900,2.492 3.076,2.453 3.346 C 2.409 3.661,2.425 6.181,2.479 7.192 C 2.546 8.451,2.741 9.415,3.223 10.866 C 4.052 13.363,5.130 15.097,7.037 17.002 C 9.044 19.006,11.084 20.216,13.750 20.981 C 14.470 21.188,15.293 21.366,15.960 21.459 C 16.468 21.530,18.338 21.598,19.806 21.599 L 20.753 21.600 20.946 21.447 C 21.214 21.235,21.394 21.021,21.505 20.783 C 21.599 20.581,21.599 20.572,21.600 19.068 C 21.600 17.742,21.592 17.540,21.534 17.428 C 21.354 17.079,21.085 16.860,20.666 16.724 C 20.042 16.520,15.767 15.834,15.060 15.825 C 14.442 15.817,14.310 15.941,13.581 17.220 C 13.141 17.992,13.025 18.160,12.928 18.160 C 12.819 18.160,11.867 17.681,11.280 17.331 C 9.800 16.448,8.320 15.081,7.291 13.647 C 6.671 12.782,5.946 11.403,5.942 11.083 L 5.940 10.903 6.220 10.735 C 6.374 10.643,6.777 10.409,7.117 10.214 C 7.864 9.785,8.087 9.585,8.182 9.261 C 8.277 8.933,8.233 8.565,7.755 5.707 C 7.388 3.504,7.287 3.113,7.006 2.792 C 6.776 2.531,6.704 2.516,5.565 2.478 C 5.001 2.459,4.249 2.443,3.894 2.442 L 3.249 2.440 3.014 2.613 " fill="#373B4D" stroke="none" fill-rule="evenodd"></path></svg>