<svg width="24" height="24" viewBox="0 0 24 24" fill="none" xmlns="http://www.w3.org/2000/svg"><path d="M17.300 2.563 C 16.376 2.579,15.508 2.602,15.372 2.615 C 14.932 2.654,14.669 2.853,14.539 3.243 C 14.393 3.681,14.463 3.963,14.808 4.342 C 15.115 4.677,15.336 4.732,16.910 4.863 C 17.091 4.878,17.240 4.906,17.240 4.926 C 17.240 4.974,17.003 5.230,15.398 6.920 C 13.739 8.666,13.507 8.925,13.390 9.160 C 13.267 9.407,13.268 9.792,13.393 10.032 C 13.598 10.423,14.073 10.736,14.465 10.737 C 14.792 10.737,14.898 10.653,16.741 8.918 C 18.289 7.462,19.007 6.800,19.042 6.800 C 19.090 6.800,19.114 7.019,19.162 7.880 L 19.207 8.700 19.375 8.919 C 19.796 9.468,20.348 9.648,20.858 9.401 C 20.948 9.358,21.151 9.203,21.310 9.058 L 21.600 8.794 21.600 6.008 L 21.600 3.222 21.251 2.871 L 20.902 2.520 19.941 2.526 C 19.412 2.530,18.224 2.546,17.300 2.563 M3.252 2.640 C 2.996 2.678,2.828 2.779,2.579 3.045 L 2.387 3.250 2.413 5.015 C 2.428 5.986,2.458 7.005,2.481 7.280 C 2.634 9.131,3.224 11.149,4.165 13.040 C 4.947 14.611,5.678 15.608,7.057 16.980 C 8.390 18.307,9.568 19.163,11.100 19.918 C 12.759 20.736,14.786 21.329,16.460 21.486 C 17.202 21.556,20.482 21.558,20.710 21.488 C 20.959 21.413,21.417 20.959,21.486 20.720 C 21.556 20.475,21.553 17.823,21.482 17.560 C 21.379 17.175,21.127 16.949,20.634 16.795 C 19.766 16.525,16.331 15.963,15.135 15.896 L 14.651 15.869 14.465 16.039 C 14.223 16.263,13.975 16.602,13.500 17.360 C 13.035 18.102,13.011 18.128,12.815 18.073 C 12.282 17.926,11.046 17.202,10.000 16.425 C 9.540 16.083,8.263 14.819,7.792 14.240 C 7.247 13.569,6.656 12.635,6.199 11.720 C 5.905 11.134,5.894 11.095,5.986 10.992 C 6.027 10.947,6.377 10.697,6.763 10.437 C 7.693 9.812,8.012 9.559,8.104 9.372 C 8.252 9.075,8.180 8.254,7.816 6.100 C 7.523 4.369,7.289 3.387,7.084 3.021 C 6.919 2.728,6.834 2.681,6.397 2.639 C 5.950 2.595,3.551 2.597,3.252 2.640 " fill="#373B4D" stroke="none" fill-rule="evenodd"></path></svg>