<svg width="24" height="24" viewBox="0 0 24 24" fill="none" xmlns="http://www.w3.org/2000/svg"><path d="M3.520 2.434 C 3.047 2.477,2.708 2.714,2.512 3.140 L 2.420 3.340 2.425 5.200 C 2.430 7.168,2.455 7.588,2.626 8.580 C 3.731 14.999,8.581 19.996,14.970 21.298 C 16.101 21.528,17.656 21.625,19.630 21.588 C 20.883 21.564,20.925 21.554,21.258 21.197 C 21.589 20.844,21.580 20.901,21.580 19.180 C 21.579 17.443,21.567 17.350,21.312 17.060 C 21.009 16.717,20.980 16.709,17.935 16.199 C 15.653 15.817,15.022 15.731,14.797 15.774 C 14.585 15.814,14.302 16.011,14.144 16.228 C 14.067 16.334,13.802 16.811,13.557 17.289 C 13.311 17.767,13.089 18.176,13.063 18.197 C 12.982 18.264,11.766 17.665,10.967 17.164 C 9.307 16.124,7.857 14.666,6.804 12.980 C 6.459 12.426,5.792 11.094,5.808 10.988 C 5.817 10.919,5.985 10.817,6.601 10.501 C 7.852 9.859,8.006 9.749,8.161 9.390 C 8.240 9.205,8.248 9.137,8.227 8.820 C 8.200 8.422,7.486 4.072,7.353 3.500 C 7.251 3.060,7.170 2.892,6.974 2.720 C 6.666 2.449,6.638 2.445,5.158 2.425 C 4.422 2.415,3.685 2.419,3.520 2.434 M15.480 2.433 C 14.468 2.539,14.053 3.707,14.766 4.442 C 15.077 4.762,15.151 4.778,16.393 4.793 L 17.487 4.807 15.493 6.813 C 14.397 7.917,13.450 8.894,13.389 8.984 C 13.325 9.078,13.258 9.253,13.232 9.394 C 13.047 10.385,14.196 11.168,15.017 10.611 C 15.107 10.550,16.083 9.603,17.188 8.506 L 19.195 6.512 19.208 7.606 C 19.219 8.645,19.225 8.709,19.310 8.882 C 19.580 9.431,20.190 9.711,20.740 9.538 C 21.020 9.450,21.350 9.164,21.486 8.890 L 21.580 8.700 21.580 6.000 C 21.580 3.523,21.574 3.287,21.511 3.146 C 21.394 2.889,21.216 2.699,20.963 2.565 L 20.723 2.437 18.231 2.421 C 16.861 2.413,15.623 2.418,15.480 2.433 " fill="#373B4D" stroke="none" fill-rule="evenodd"></path></svg>