<svg width="24" height="24" viewBox="0 0 24 24" fill="none" xmlns="http://www.w3.org/2000/svg"><path d="M2.921 2.705 C 2.646 2.930,2.572 3.015,2.522 3.161 C 2.471 3.312,2.462 3.635,2.464 5.200 C 2.467 7.665,2.517 8.241,2.839 9.500 C 3.118 10.590,3.633 12.009,4.116 13.020 C 4.517 13.861,5.167 14.865,5.792 15.609 C 6.147 16.032,7.440 17.337,8.047 17.884 C 8.733 18.503,9.708 19.197,10.600 19.702 C 11.808 20.386,14.072 21.149,15.620 21.395 C 16.378 21.515,17.171 21.559,19.073 21.587 L 20.765 21.613 21.025 21.356 C 21.168 21.215,21.352 21.010,21.433 20.901 L 21.580 20.702 21.579 19.241 C 21.579 17.573,21.558 17.401,21.338 17.180 C 21.178 17.021,20.901 16.852,20.666 16.771 C 20.257 16.629,18.179 16.253,16.520 16.020 C 15.700 15.905,14.936 15.853,14.700 15.897 C 14.486 15.938,14.176 16.266,13.807 16.842 C 13.646 17.094,13.390 17.494,13.239 17.730 C 13.087 17.966,12.939 18.160,12.910 18.160 C 12.824 18.160,11.880 17.671,11.317 17.335 C 9.934 16.510,8.428 15.126,7.377 13.714 C 6.706 12.812,6.000 11.451,6.000 11.058 C 6.000 10.901,6.027 10.880,6.936 10.318 C 7.308 10.088,7.718 9.803,7.847 9.686 C 8.316 9.255,8.313 8.978,7.800 5.980 C 7.586 4.727,7.395 3.747,7.305 3.443 C 7.159 2.952,6.919 2.670,6.592 2.604 C 6.346 2.554,5.346 2.494,4.119 2.456 L 3.259 2.429 2.921 2.705 " fill="#373B4D" stroke="none" fill-rule="evenodd"></path></svg>