<svg width="24" height="24" viewBox="0 0 24 24" fill="none" xmlns="http://www.w3.org/2000/svg"><path d="M3.200 2.557 C 2.926 2.641,2.672 2.855,2.542 3.113 C 2.404 3.387,2.361 4.912,2.441 6.660 C 2.516 8.288,2.721 9.411,3.205 10.853 C 3.995 13.206,5.111 15.033,6.860 16.835 C 8.851 18.886,11.076 20.209,13.900 21.020 C 15.442 21.463,16.769 21.599,19.562 21.600 L 20.744 21.600 21.002 21.387 C 21.144 21.270,21.332 21.070,21.420 20.943 L 21.580 20.711 21.593 19.745 C 21.606 18.762,21.552 17.660,21.478 17.391 C 21.348 16.921,20.880 16.724,19.180 16.423 C 17.310 16.092,15.497 15.840,14.983 15.840 C 14.678 15.840,14.639 15.850,14.485 15.961 C 14.239 16.139,14.047 16.410,13.533 17.300 C 13.279 17.740,13.051 18.122,13.026 18.149 C 12.922 18.259,11.856 17.723,10.860 17.059 C 10.077 16.537,9.517 16.077,8.817 15.380 C 7.573 14.141,6.978 13.313,6.172 11.703 L 5.831 11.022 5.955 10.919 C 6.023 10.862,6.327 10.674,6.629 10.500 C 7.774 9.846,8.116 9.571,8.205 9.233 C 8.266 9.006,8.209 8.491,7.938 6.810 C 7.403 3.482,7.258 2.939,6.825 2.650 L 6.631 2.520 4.965 2.523 C 4.049 2.525,3.255 2.541,3.200 2.557 M18.830 3.735 C 18.574 3.830,18.147 4.185,17.292 5.014 L 16.803 5.489 16.131 4.846 C 15.332 4.082,15.011 3.818,14.810 3.762 C 14.727 3.739,14.520 3.720,14.350 3.720 C 13.836 3.720,13.522 3.916,13.365 4.336 C 13.101 5.042,13.219 5.272,14.555 6.648 L 15.090 7.199 14.635 7.671 C 14.018 8.311,13.566 8.819,13.399 9.060 C 13.270 9.245,13.260 9.282,13.261 9.560 C 13.262 10.034,13.474 10.405,13.860 10.613 C 13.992 10.684,14.088 10.699,14.403 10.699 C 14.777 10.700,14.792 10.696,15.003 10.556 C 15.122 10.477,15.576 10.075,16.010 9.664 L 16.801 8.915 17.470 9.556 C 18.701 10.736,18.957 10.875,19.559 10.697 C 20.167 10.516,20.540 9.641,20.231 9.116 C 20.089 8.875,19.717 8.446,19.063 7.771 L 18.512 7.202 19.154 6.531 C 19.862 5.791,20.181 5.412,20.273 5.200 C 20.361 4.998,20.354 4.539,20.261 4.346 C 20.149 4.114,19.838 3.814,19.656 3.763 C 19.383 3.687,18.993 3.673,18.830 3.735 " fill="#373B4D" stroke="none" fill-rule="evenodd"></path></svg>