<svg width="24" height="24" viewBox="0 0 24 24" fill="none" xmlns="http://www.w3.org/2000/svg"><path d="M2.950 2.674 C 2.781 2.809,2.615 2.961,2.581 3.012 C 2.455 3.206,2.428 3.721,2.452 5.520 C 2.477 7.370,2.513 7.955,2.643 8.660 C 2.870 9.892,3.454 11.643,4.062 12.910 C 4.780 14.407,5.534 15.442,6.927 16.844 C 9.153 19.082,11.048 20.212,13.933 21.018 C 15.554 21.471,16.220 21.546,18.980 21.586 L 20.740 21.612 20.992 21.398 C 21.131 21.280,21.313 21.080,21.398 20.954 L 21.552 20.723 21.582 20.172 C 21.598 19.868,21.600 19.146,21.586 18.567 C 21.558 17.384,21.549 17.341,21.265 17.094 C 20.897 16.773,20.486 16.656,18.640 16.343 C 16.535 15.985,15.072 15.803,14.766 15.860 C 14.418 15.924,14.187 16.190,13.546 17.260 C 13.336 17.612,13.111 17.962,13.048 18.037 L 12.933 18.175 12.657 18.057 C 12.304 17.907,11.312 17.357,10.864 17.061 C 9.410 16.104,7.791 14.466,6.927 13.080 C 6.432 12.284,6.019 11.427,5.974 11.100 C 5.946 10.898,5.925 10.916,6.788 10.405 C 8.030 9.668,8.163 9.533,8.192 8.986 C 8.213 8.578,8.142 8.017,7.836 6.181 C 7.557 4.512,7.364 3.553,7.243 3.234 C 7.131 2.939,6.880 2.654,6.687 2.602 C 6.466 2.542,5.588 2.488,4.359 2.457 L 3.258 2.430 2.950 2.674 " fill="#373B4D" stroke="none" fill-rule="evenodd"></path></svg>