<svg width="24" height="24" viewBox="0 0 24 24" fill="none" xmlns="http://www.w3.org/2000/svg"><path d="M3.300 2.516 C 3.003 2.569,2.804 2.723,2.525 3.116 L 2.400 3.292 2.400 4.236 C 2.400 5.338,2.462 7.102,2.523 7.760 C 2.672 9.359,3.243 11.276,4.063 12.928 C 4.847 14.509,5.733 15.731,7.044 17.038 C 9.096 19.084,11.502 20.432,14.392 21.155 C 15.480 21.427,16.032 21.495,17.660 21.560 C 19.338 21.626,20.556 21.596,20.860 21.480 C 21.019 21.420,21.431 21.009,21.479 20.864 C 21.592 20.520,21.640 18.775,21.559 17.941 C 21.507 17.409,21.433 17.200,21.234 17.020 C 20.914 16.730,20.754 16.692,17.801 16.202 C 14.911 15.723,14.804 15.715,14.457 15.964 C 14.220 16.134,14.005 16.448,13.541 17.300 C 13.350 17.652,13.149 17.998,13.096 18.068 C 13.001 18.194,12.996 18.195,12.849 18.143 C 12.236 17.926,10.841 17.109,10.020 16.487 C 9.057 15.757,7.832 14.477,7.206 13.549 C 6.710 12.813,5.840 11.211,5.840 11.034 C 5.840 10.950,6.053 10.805,6.620 10.501 C 7.891 9.820,8.170 9.574,8.226 9.087 C 8.275 8.653,7.455 3.760,7.239 3.194 C 7.131 2.912,6.961 2.704,6.746 2.589 C 6.583 2.502,6.549 2.500,5.020 2.494 C 4.162 2.491,3.388 2.501,3.300 2.516 M19.739 2.669 C 19.400 2.952,18.300 4.013,16.874 5.432 L 15.648 6.652 15.625 6.396 C 15.613 6.255,15.593 5.785,15.581 5.352 C 15.569 4.918,15.547 4.504,15.533 4.432 C 15.515 4.342,15.422 4.215,15.243 4.037 C 14.956 3.749,14.792 3.680,14.400 3.680 C 14.041 3.680,13.853 3.752,13.600 3.986 C 13.217 4.341,13.241 4.138,13.231 7.212 C 13.225 9.242,13.235 9.927,13.271 10.012 C 13.334 10.157,13.693 10.537,13.907 10.685 L 14.074 10.800 16.802 10.800 L 19.529 10.800 19.721 10.659 C 20.239 10.279,20.446 9.804,20.321 9.283 C 20.284 9.131,20.220 9.021,20.074 8.861 C 19.748 8.505,19.684 8.487,18.577 8.437 C 18.051 8.413,17.570 8.381,17.508 8.366 C 17.401 8.340,17.455 8.280,18.903 6.800 C 20.765 4.897,21.374 4.238,21.485 4.009 C 21.657 3.655,21.563 3.137,21.274 2.838 C 21.045 2.603,20.843 2.526,20.374 2.495 L 19.977 2.469 19.739 2.669 " fill="#373B4D" stroke="none" fill-rule="evenodd"></path></svg>