<svg width="24" height="24" viewBox="0 0 24 24" fill="none" xmlns="http://www.w3.org/2000/svg"><path d="M3.199 2.556 C 3.009 2.595,2.844 2.723,2.602 3.021 L 2.400 3.270 2.400 4.345 C 2.400 5.518,2.455 7.047,2.522 7.740 C 2.774 10.359,4.039 13.452,5.716 15.549 C 6.650 16.716,7.928 17.938,9.043 18.727 C 11.026 20.133,13.731 21.190,16.032 21.460 C 17.179 21.595,20.218 21.636,20.693 21.523 C 21.032 21.443,21.453 21.020,21.522 20.692 C 21.544 20.586,21.573 20.086,21.586 19.580 C 21.613 18.581,21.560 17.693,21.458 17.391 C 21.377 17.155,21.195 16.973,20.900 16.835 C 20.605 16.697,20.419 16.657,18.660 16.359 C 16.333 15.965,15.438 15.833,15.054 15.826 C 14.705 15.820,14.679 15.826,14.514 15.942 C 14.250 16.126,14.038 16.421,13.522 17.320 L 13.051 18.140 12.908 18.131 C 12.728 18.121,12.119 17.819,11.340 17.355 C 10.291 16.730,9.598 16.190,8.701 15.295 C 7.775 14.373,7.279 13.721,6.603 12.540 C 6.088 11.641,5.820 11.081,5.868 11.002 C 5.910 10.934,6.259 10.714,7.105 10.220 C 7.891 9.762,8.146 9.509,8.220 9.116 C 8.289 8.746,7.470 3.845,7.233 3.211 C 7.188 3.089,7.086 2.919,7.008 2.832 C 6.735 2.529,6.812 2.541,4.980 2.533 C 4.078 2.530,3.276 2.540,3.199 2.556 M15.300 2.556 C 15.042 2.582,14.884 2.669,14.702 2.885 C 14.533 3.086,14.476 3.229,14.452 3.518 C 14.432 3.753,14.443 3.819,14.529 4.005 C 14.649 4.262,14.949 4.583,15.147 4.665 C 15.312 4.734,15.987 4.797,16.620 4.802 C 16.862 4.804,17.137 4.818,17.232 4.833 L 17.403 4.860 15.977 6.320 C 14.219 8.119,13.504 8.886,13.366 9.120 C 13.221 9.367,13.218 9.767,13.361 10.060 C 13.629 10.612,14.333 10.918,14.795 10.683 C 15.001 10.577,15.535 10.096,16.791 8.883 C 18.379 7.350,19.087 6.680,19.119 6.680 C 19.152 6.680,19.200 7.608,19.200 8.245 L 19.200 8.671 19.363 8.916 C 19.538 9.178,19.790 9.408,19.980 9.480 C 20.045 9.505,20.243 9.528,20.419 9.532 C 20.815 9.540,20.912 9.489,21.324 9.048 L 21.612 8.740 21.589 5.989 L 21.566 3.237 21.416 3.040 C 21.333 2.931,21.176 2.770,21.067 2.681 L 20.869 2.520 18.205 2.526 C 16.739 2.529,15.432 2.543,15.300 2.556 " fill="#373B4D" stroke="none" fill-rule="evenodd"></path></svg>