<svg width="24" height="24" viewBox="0 0 24 24" fill="none" xmlns="http://www.w3.org/2000/svg"><path d="M3.674 2.557 C 3.098 2.580,3.085 2.582,2.914 2.704 C 2.684 2.869,2.493 3.187,2.453 3.474 C 2.402 3.833,2.417 6.674,2.473 7.280 C 2.627 8.951,2.921 10.175,3.548 11.759 C 4.120 13.206,4.791 14.364,5.759 15.576 C 8.007 18.392,10.849 20.236,14.300 21.120 C 15.652 21.466,16.563 21.558,18.945 21.588 L 20.750 21.611 21.094 21.282 C 21.605 20.791,21.600 20.806,21.600 19.657 C 21.599 18.616,21.544 17.621,21.473 17.400 C 21.449 17.323,21.396 17.213,21.356 17.157 C 21.243 16.995,20.839 16.804,20.346 16.680 C 19.250 16.403,16.244 15.930,15.113 15.857 L 14.685 15.829 14.483 15.978 C 14.253 16.147,13.948 16.581,13.381 17.550 C 13.121 17.994,13.003 18.160,12.949 18.160 C 12.735 18.160,11.762 17.647,10.931 17.096 C 10.066 16.522,9.617 16.146,8.718 15.245 C 7.536 14.058,7.042 13.370,6.177 11.704 C 5.831 11.037,5.828 11.027,5.908 10.962 C 5.952 10.926,6.293 10.711,6.664 10.486 C 7.558 9.942,7.937 9.671,8.081 9.472 C 8.193 9.317,8.200 9.286,8.200 8.924 C 8.200 8.229,7.652 4.819,7.359 3.687 C 7.215 3.132,7.079 2.873,6.826 2.673 L 6.633 2.520 5.446 2.527 C 4.794 2.531,3.996 2.544,3.674 2.557 M14.062 3.762 C 13.768 3.812,13.565 3.975,13.404 4.290 C 13.297 4.499,13.267 4.608,13.265 4.789 C 13.260 5.200,13.472 5.510,14.484 6.570 L 15.086 7.200 14.452 7.870 C 13.705 8.660,13.408 9.010,13.334 9.188 C 13.271 9.339,13.263 9.719,13.320 9.921 C 13.384 10.152,13.576 10.417,13.775 10.549 C 13.987 10.689,14.310 10.745,14.641 10.700 C 14.904 10.664,15.059 10.546,16.027 9.639 L 16.802 8.915 17.451 9.529 C 18.582 10.599,18.865 10.789,19.265 10.748 C 19.800 10.693,20.170 10.339,20.316 9.744 C 20.425 9.299,20.260 9.038,19.093 7.810 L 18.513 7.200 19.071 6.610 C 20.192 5.426,20.286 5.297,20.311 4.903 C 20.334 4.546,20.278 4.339,20.104 4.136 C 19.855 3.845,19.684 3.755,19.333 3.732 C 19.156 3.720,18.949 3.730,18.856 3.755 C 18.591 3.827,18.089 4.239,17.153 5.153 L 16.807 5.492 16.131 4.853 C 15.390 4.152,15.083 3.894,14.900 3.819 C 14.735 3.752,14.301 3.723,14.062 3.762 " fill="#373B4D" stroke="none" fill-rule="evenodd"></path></svg>