<svg width="24" height="24" viewBox="0 0 24 24" fill="none" xmlns="http://www.w3.org/2000/svg"><path d="M3.880 2.557 C 3.006 2.583,2.994 2.587,2.707 2.923 C 2.496 3.169,2.447 3.396,2.420 4.260 C 2.389 5.212,2.459 7.358,2.539 7.934 C 2.794 9.772,3.265 11.296,4.100 12.980 C 5.415 15.633,7.731 18.055,10.400 19.569 C 12.065 20.513,14.283 21.248,16.103 21.459 C 16.792 21.539,18.327 21.599,19.681 21.600 L 20.782 21.600 21.107 21.270 C 21.611 20.758,21.581 20.882,21.577 19.340 C 21.572 17.516,21.521 17.225,21.162 17.006 C 20.916 16.856,20.716 16.781,20.253 16.664 C 19.188 16.395,16.259 15.941,15.049 15.858 L 14.639 15.830 14.349 16.126 C 14.141 16.341,13.954 16.599,13.680 17.053 C 12.998 18.184,13.007 18.171,12.864 18.143 C 12.502 18.070,11.101 17.253,10.268 16.627 C 9.051 15.713,7.667 14.229,6.935 13.052 C 6.589 12.496,5.880 11.156,5.880 11.058 C 5.880 10.994,6.054 10.867,6.650 10.498 C 7.483 9.981,7.974 9.627,8.100 9.451 C 8.274 9.209,8.156 7.931,7.741 5.580 C 7.369 3.472,7.209 2.981,6.781 2.641 L 6.629 2.520 5.644 2.527 C 5.103 2.531,4.309 2.545,3.880 2.557 M18.828 3.775 C 18.541 3.882,18.110 4.232,17.251 5.056 L 16.802 5.487 16.170 4.893 C 15.004 3.797,14.948 3.762,14.380 3.762 C 13.955 3.762,13.767 3.830,13.566 4.060 C 13.377 4.274,13.280 4.525,13.280 4.793 C 13.281 5.219,13.481 5.512,14.506 6.590 L 15.086 7.199 14.435 7.890 C 13.555 8.825,13.333 9.109,13.297 9.344 C 13.184 10.098,13.691 10.721,14.417 10.720 C 14.829 10.719,14.972 10.623,16.045 9.621 L 16.800 8.915 17.430 9.508 C 18.567 10.578,18.799 10.741,19.180 10.738 C 19.790 10.733,20.319 10.193,20.335 9.560 C 20.344 9.214,20.099 8.871,19.073 7.791 L 18.514 7.201 19.201 6.471 C 20.253 5.351,20.349 5.197,20.309 4.692 C 20.278 4.300,20.035 3.958,19.683 3.810 C 19.481 3.726,19.012 3.706,18.828 3.775 " fill="#373B4D" stroke="none" fill-rule="evenodd"></path></svg>