<svg width="24" height="24" viewBox="0 0 24 24" fill="none" xmlns="http://www.w3.org/2000/svg"><path d="M3.060 2.578 C 2.747 2.770,2.620 2.895,2.510 3.118 C 2.420 3.299,2.420 3.308,2.425 5.140 C 2.433 7.553,2.489 8.161,2.841 9.586 C 3.260 11.289,3.916 12.872,4.757 14.215 C 6.325 16.719,8.863 18.971,11.435 20.141 C 13.065 20.883,14.981 21.401,16.532 21.520 C 16.822 21.542,17.879 21.571,18.880 21.584 L 20.700 21.608 20.948 21.442 C 21.214 21.265,21.378 21.082,21.515 20.812 C 21.597 20.648,21.600 20.596,21.600 19.112 C 21.599 17.584,21.599 17.579,21.505 17.380 C 21.334 17.020,21.103 16.844,20.595 16.687 C 20.074 16.527,15.535 15.799,15.016 15.793 C 14.472 15.787,14.256 15.993,13.660 17.083 C 13.125 18.061,13.060 18.160,12.956 18.160 C 12.723 18.160,11.461 17.490,10.640 16.930 C 9.800 16.357,9.071 15.718,8.266 14.851 C 7.396 13.913,6.879 13.162,6.252 11.928 C 5.881 11.198,5.814 10.983,5.930 10.889 C 5.958 10.867,6.328 10.658,6.753 10.424 C 7.654 9.929,7.824 9.818,8.010 9.601 C 8.168 9.416,8.240 9.210,8.240 8.941 C 8.240 8.611,7.637 4.843,7.414 3.780 C 7.288 3.179,7.196 2.963,6.982 2.766 C 6.646 2.457,6.789 2.479,4.954 2.454 L 3.300 2.432 3.060 2.578 " fill="#373B4D" stroke="none" fill-rule="evenodd"></path></svg>