<svg width="24" height="24" viewBox="0 0 24 24" fill="none" xmlns="http://www.w3.org/2000/svg"><path d="M3.673 2.515 C 3.147 2.539,3.120 2.545,2.953 2.661 C 2.858 2.728,2.695 2.896,2.590 3.034 L 2.400 3.285 2.400 4.312 C 2.401 5.456,2.458 7.057,2.523 7.760 C 2.744 10.132,3.871 13.046,5.351 15.074 C 6.408 16.521,7.917 17.980,9.365 18.951 C 11.340 20.276,14.005 21.264,16.180 21.477 C 17.476 21.604,20.220 21.629,20.714 21.519 C 20.893 21.479,20.969 21.431,21.183 21.222 C 21.323 21.084,21.455 20.925,21.477 20.868 C 21.637 20.447,21.638 18.031,21.479 17.436 C 21.378 17.059,21.054 16.817,20.466 16.679 C 19.940 16.555,15.951 15.895,15.372 15.836 C 14.774 15.775,14.635 15.807,14.355 16.068 C 14.137 16.272,13.983 16.504,13.562 17.260 C 13.402 17.546,13.217 17.867,13.149 17.974 C 13.035 18.155,13.017 18.167,12.893 18.147 C 12.614 18.101,11.458 17.468,10.571 16.874 C 9.441 16.117,8.079 14.786,7.302 13.680 C 6.910 13.121,6.134 11.758,5.917 11.244 L 5.825 11.029 5.948 10.919 C 6.015 10.859,6.257 10.707,6.485 10.581 C 7.755 9.879,8.066 9.639,8.183 9.267 C 8.247 9.064,8.246 9.022,8.162 8.357 C 7.978 6.899,7.412 3.715,7.255 3.251 C 7.162 2.976,6.983 2.737,6.789 2.625 C 6.623 2.530,6.600 2.528,5.420 2.510 C 4.760 2.499,3.974 2.502,3.673 2.515 M15.049 2.586 C 14.977 2.622,14.830 2.747,14.722 2.865 C 14.574 3.027,14.516 3.128,14.483 3.281 C 14.376 3.783,14.466 4.073,14.844 4.446 C 15.141 4.739,15.233 4.758,16.450 4.789 C 16.973 4.802,17.400 4.827,17.400 4.846 C 17.400 4.864,16.722 5.568,15.894 6.409 C 14.140 8.192,13.433 8.951,13.335 9.154 C 13.164 9.510,13.251 10.011,13.542 10.351 C 13.738 10.581,14.124 10.766,14.405 10.766 C 14.869 10.766,14.716 10.897,18.282 7.445 C 18.745 6.997,19.133 6.640,19.144 6.651 C 19.155 6.662,19.177 7.128,19.193 7.687 L 19.222 8.704 19.354 8.910 C 19.512 9.158,19.756 9.385,19.954 9.471 C 20.044 9.510,20.224 9.535,20.425 9.537 C 20.739 9.540,20.757 9.535,20.976 9.384 C 21.100 9.299,21.291 9.116,21.401 8.979 L 21.600 8.729 21.597 6.994 C 21.595 6.040,21.581 4.798,21.566 4.233 L 21.538 3.206 21.414 3.033 C 21.346 2.938,21.197 2.784,21.084 2.690 L 20.877 2.520 18.029 2.521 C 15.489 2.522,15.166 2.529,15.049 2.586 " fill="#373B4D" stroke="none" fill-rule="evenodd"></path></svg>