<svg width="24" height="24" viewBox="0 0 24 24" fill="none" xmlns="http://www.w3.org/2000/svg"><path d="M3.640 2.476 C 3.383 2.492,3.136 2.528,3.080 2.558 C 2.897 2.656,2.695 2.834,2.584 2.995 C 2.482 3.141,2.470 3.201,2.433 3.727 C 2.388 4.358,2.418 6.550,2.483 7.476 C 2.596 9.088,3.191 11.196,4.001 12.861 C 4.954 14.817,6.500 16.729,8.300 18.175 C 10.087 19.611,12.020 20.560,14.374 21.157 C 15.690 21.491,16.324 21.551,18.900 21.584 L 20.700 21.608 20.948 21.442 C 21.217 21.263,21.377 21.082,21.521 20.800 L 21.612 20.620 21.584 19.042 C 21.552 17.252,21.564 17.322,21.220 17.007 C 20.909 16.723,20.635 16.654,18.180 16.245 C 15.438 15.787,14.891 15.732,14.600 15.880 C 14.237 16.065,14.147 16.185,13.540 17.300 C 13.348 17.652,13.147 17.998,13.094 18.069 L 12.997 18.198 12.748 18.104 C 11.992 17.820,10.701 17.033,9.800 16.307 C 9.569 16.121,9.046 15.629,8.638 15.215 C 7.647 14.208,7.158 13.568,6.553 12.492 C 6.266 11.981,5.840 11.099,5.840 11.016 C 5.840 10.940,5.965 10.856,6.580 10.520 C 8.042 9.721,8.240 9.537,8.240 8.977 C 8.240 8.722,8.061 7.513,7.736 5.580 C 7.356 3.316,7.283 3.044,6.982 2.766 C 6.666 2.475,6.747 2.490,5.360 2.469 C 4.667 2.458,3.893 2.461,3.640 2.476 M18.960 3.681 C 18.667 3.715,18.378 3.944,17.333 4.974 L 16.805 5.494 16.133 4.840 C 15.301 4.031,14.989 3.771,14.781 3.715 C 14.691 3.690,14.474 3.680,14.291 3.691 C 14.032 3.707,13.924 3.733,13.783 3.816 C 13.475 3.997,13.298 4.297,13.255 4.710 C 13.205 5.194,13.329 5.388,14.382 6.473 L 15.088 7.200 14.437 7.870 C 13.695 8.635,13.349 9.051,13.279 9.263 C 13.209 9.475,13.249 9.902,13.357 10.115 C 13.570 10.531,13.955 10.761,14.437 10.759 C 14.845 10.758,15.028 10.627,16.170 9.522 L 16.800 8.912 17.430 9.522 C 18.563 10.621,18.755 10.758,19.163 10.759 C 19.485 10.760,19.760 10.666,19.969 10.481 C 20.193 10.285,20.317 10.030,20.346 9.707 C 20.393 9.200,20.277 9.018,19.217 7.926 L 18.512 7.200 19.122 6.570 C 19.890 5.778,20.190 5.430,20.284 5.223 C 20.368 5.038,20.383 4.665,20.316 4.424 C 20.268 4.249,19.933 3.870,19.741 3.770 C 19.597 3.696,19.210 3.651,18.960 3.681 " fill="#373B4D" stroke="none" fill-rule="evenodd"></path></svg>