<svg width="24" height="24" viewBox="0 0 24 24" fill="none" xmlns="http://www.w3.org/2000/svg"><path d="M3.420 2.433 C 2.986 2.493,2.584 2.835,2.461 3.249 C 2.343 3.647,2.400 7.205,2.539 8.120 C 3.047 11.463,4.418 14.321,6.637 16.660 C 9.155 19.315,12.177 20.888,15.860 21.460 C 16.419 21.546,18.079 21.607,19.500 21.592 C 20.661 21.580,20.706 21.577,20.888 21.487 C 20.991 21.437,21.147 21.323,21.235 21.235 C 21.323 21.147,21.437 20.991,21.487 20.888 C 21.580 20.701,21.580 20.692,21.579 19.100 C 21.579 17.316,21.585 17.360,21.297 17.042 C 21.082 16.804,20.906 16.729,20.263 16.599 C 18.907 16.326,15.350 15.760,14.989 15.760 C 14.767 15.760,14.399 15.928,14.213 16.113 C 14.149 16.177,13.866 16.682,13.583 17.236 C 13.117 18.149,13.061 18.240,12.985 18.215 C 12.938 18.201,12.663 18.076,12.374 17.939 C 9.562 16.604,7.255 14.259,5.978 11.436 C 5.808 11.059,5.769 10.939,5.808 10.912 C 5.837 10.894,6.274 10.667,6.780 10.410 C 7.840 9.870,8.048 9.708,8.196 9.306 L 8.282 9.073 8.158 8.226 C 7.997 7.115,7.468 3.962,7.364 3.486 C 7.319 3.281,7.245 3.052,7.199 2.979 C 7.095 2.809,6.884 2.624,6.674 2.517 C 6.518 2.438,6.437 2.433,5.065 2.419 C 4.270 2.412,3.530 2.418,3.420 2.433 M13.900 3.724 C 13.470 3.951,13.222 4.352,13.223 4.820 C 13.224 5.250,13.323 5.395,14.275 6.368 L 15.090 7.201 14.313 7.991 C 13.886 8.426,13.478 8.867,13.407 8.970 C 13.245 9.205,13.184 9.505,13.239 9.795 C 13.298 10.104,13.384 10.257,13.621 10.474 C 13.867 10.699,14.097 10.780,14.466 10.774 C 14.856 10.767,15.023 10.650,15.968 9.725 L 16.800 8.910 17.632 9.725 C 18.577 10.650,18.744 10.767,19.134 10.774 C 19.503 10.780,19.733 10.699,19.979 10.474 C 20.095 10.368,20.221 10.217,20.258 10.140 C 20.426 9.784,20.406 9.271,20.212 8.984 C 20.150 8.894,19.742 8.456,19.304 8.010 L 18.508 7.201 19.286 6.409 C 20.170 5.510,20.311 5.329,20.358 5.029 C 20.397 4.785,20.354 4.421,20.266 4.251 C 20.172 4.069,19.791 3.742,19.611 3.688 C 19.523 3.662,19.318 3.640,19.155 3.640 C 18.724 3.641,18.584 3.736,17.616 4.689 L 16.801 5.491 15.946 4.653 C 15.476 4.192,15.022 3.780,14.936 3.738 C 14.825 3.684,14.676 3.658,14.420 3.651 C 14.117 3.641,14.035 3.653,13.900 3.724 " fill="#373B4D" stroke="none" fill-rule="evenodd"></path></svg>