<svg width="24" height="24" viewBox="0 0 24 24" fill="none" xmlns="http://www.w3.org/2000/svg"><path d="M2.945 2.687 C 2.431 3.103,2.460 2.954,2.467 5.220 C 2.473 7.140,2.505 7.807,2.624 8.520 C 2.828 9.743,3.510 11.773,4.162 13.100 C 4.579 13.949,5.177 14.865,5.797 15.605 C 6.247 16.142,8.061 17.920,8.580 18.333 C 9.122 18.765,10.042 19.388,10.592 19.696 C 11.668 20.299,13.659 21.001,15.190 21.316 C 16.089 21.502,17.661 21.598,19.805 21.599 L 20.789 21.600 21.092 21.283 C 21.258 21.109,21.443 20.893,21.503 20.802 L 21.612 20.637 21.587 19.169 C 21.573 18.357,21.542 17.619,21.519 17.520 C 21.434 17.164,21.014 16.860,20.392 16.702 C 19.555 16.491,16.665 16.016,15.640 15.922 C 15.019 15.866,14.737 15.869,14.608 15.936 C 14.450 16.018,14.084 16.419,13.874 16.740 C 13.774 16.894,13.539 17.254,13.353 17.540 C 13.167 17.826,12.987 18.083,12.953 18.110 C 12.874 18.174,12.676 18.089,11.864 17.644 C 9.755 16.487,7.886 14.684,6.703 12.668 C 6.266 11.923,5.963 11.190,6.013 10.995 C 6.038 10.897,6.063 10.878,7.120 10.192 C 7.796 9.753,7.976 9.604,8.083 9.394 C 8.266 9.036,8.234 8.588,7.876 6.440 C 7.591 4.730,7.362 3.583,7.240 3.265 C 7.137 2.995,6.918 2.732,6.732 2.654 C 6.572 2.587,5.941 2.533,4.700 2.481 C 3.152 2.415,3.300 2.398,2.945 2.687 " fill="#373B4D" stroke="none" fill-rule="evenodd"></path></svg>