<svg width="24" height="24" viewBox="0 0 24 24" fill="none" xmlns="http://www.w3.org/2000/svg"><path d="M3.500 2.514 C 3.099 2.543,2.971 2.601,2.705 2.874 C 2.601 2.982,2.531 3.103,2.491 3.247 C 2.360 3.723,2.392 6.837,2.541 8.040 C 2.792 10.064,3.664 12.476,4.785 14.246 C 5.760 15.784,7.200 17.342,8.700 18.481 C 10.472 19.826,12.753 20.838,15.100 21.321 C 15.991 21.504,17.558 21.598,19.735 21.599 L 20.729 21.600 20.915 21.463 C 21.163 21.279,21.367 21.059,21.495 20.836 C 21.600 20.653,21.600 20.652,21.599 19.756 C 21.597 18.339,21.543 17.482,21.444 17.288 C 21.276 16.959,20.963 16.790,20.200 16.617 C 19.125 16.374,15.631 15.834,15.080 15.826 C 14.753 15.821,14.681 15.832,14.560 15.907 C 14.248 16.102,14.074 16.339,13.522 17.320 C 13.317 17.683,13.115 18.029,13.073 18.089 L 12.996 18.198 12.728 18.097 C 12.063 17.847,10.872 17.125,10.000 16.445 C 8.839 15.539,7.578 14.156,6.861 13.000 C 6.602 12.582,5.840 11.104,5.840 11.019 C 5.840 10.961,6.150 10.763,6.907 10.337 C 7.563 9.969,7.979 9.671,8.107 9.476 C 8.306 9.177,8.285 8.923,7.837 6.200 C 7.351 3.245,7.247 2.892,6.779 2.617 L 6.594 2.509 5.227 2.499 C 4.475 2.493,3.698 2.500,3.500 2.514 M14.098 3.716 C 13.892 3.751,13.589 3.927,13.486 4.072 C 13.371 4.232,13.240 4.649,13.240 4.851 C 13.240 5.206,13.512 5.579,14.533 6.627 L 15.088 7.198 14.445 7.869 C 13.747 8.598,13.384 9.027,13.296 9.229 C 13.222 9.399,13.225 9.655,13.304 9.923 C 13.461 10.450,13.863 10.737,14.440 10.733 C 14.866 10.731,14.985 10.648,16.110 9.572 L 16.801 8.912 17.390 9.483 C 18.464 10.521,18.718 10.709,19.098 10.748 C 19.767 10.817,20.335 10.283,20.339 9.580 C 20.340 9.343,20.323 9.270,20.227 9.107 C 20.077 8.853,19.764 8.492,19.076 7.783 L 18.511 7.201 19.082 6.610 C 19.774 5.895,20.140 5.473,20.253 5.260 C 20.366 5.047,20.373 4.567,20.267 4.354 C 20.158 4.135,19.930 3.887,19.756 3.798 C 19.564 3.700,19.079 3.655,18.860 3.714 C 18.646 3.772,18.196 4.139,17.430 4.879 L 16.800 5.488 16.210 4.917 C 15.487 4.218,15.058 3.846,14.900 3.780 C 14.746 3.715,14.306 3.680,14.098 3.716 " fill="#373B4D" stroke="none" fill-rule="evenodd"></path></svg>