<svg width="24" height="24" viewBox="0 0 24 24" fill="none" xmlns="http://www.w3.org/2000/svg"><path d="M16.960 2.561 C 16.113 2.577,15.328 2.602,15.216 2.618 C 14.830 2.671,14.617 2.890,14.498 3.355 C 14.394 3.762,14.485 4.041,14.838 4.394 C 15.136 4.692,15.239 4.718,16.534 4.819 C 16.927 4.849,17.257 4.884,17.269 4.896 C 17.301 4.928,17.142 5.101,15.722 6.580 C 13.621 8.767,13.421 8.994,13.318 9.306 C 13.254 9.499,13.291 9.866,13.392 10.063 C 13.640 10.543,14.304 10.868,14.700 10.703 C 14.962 10.593,15.127 10.447,17.080 8.600 C 18.908 6.871,19.044 6.748,19.088 6.792 C 19.108 6.812,19.144 7.250,19.168 7.764 L 19.211 8.700 19.345 8.885 C 19.677 9.343,20.017 9.538,20.435 9.512 C 20.792 9.491,20.967 9.399,21.310 9.053 L 21.600 8.762 21.600 5.990 L 21.600 3.218 21.249 2.869 L 20.898 2.520 19.699 2.527 C 19.040 2.530,17.807 2.546,16.960 2.561 M3.640 2.599 C 3.003 2.630,2.944 2.654,2.620 3.009 L 2.391 3.260 2.413 5.020 C 2.426 5.988,2.455 7.005,2.478 7.280 C 2.686 9.762,3.646 12.484,5.072 14.639 C 5.931 15.936,7.427 17.492,8.832 18.549 C 10.819 20.044,13.529 21.120,16.180 21.466 C 16.534 21.512,17.165 21.534,18.580 21.548 C 20.476 21.567,20.503 21.566,20.730 21.481 C 21.011 21.375,21.327 21.082,21.452 20.811 C 21.538 20.625,21.540 20.580,21.540 19.160 C 21.540 17.836,21.533 17.680,21.465 17.485 C 21.368 17.206,21.154 16.971,20.890 16.854 C 20.382 16.629,15.994 15.886,15.058 15.867 C 14.722 15.861,14.683 15.868,14.527 15.971 C 14.311 16.114,14.010 16.521,13.468 17.408 L 13.035 18.114 12.888 18.093 C 12.396 18.021,10.640 16.976,9.700 16.194 C 8.829 15.470,7.797 14.348,7.247 13.530 C 6.654 12.647,5.920 11.305,5.920 11.104 C 5.920 10.977,6.015 10.901,6.774 10.420 C 7.527 9.943,7.893 9.672,8.051 9.473 C 8.271 9.198,8.243 8.714,7.876 6.480 C 7.419 3.697,7.204 2.921,6.825 2.697 C 6.638 2.587,4.964 2.535,3.640 2.599 " fill="#373B4D" stroke="none" fill-rule="evenodd"></path></svg>