<svg width="24" height="24" viewBox="0 0 24 24" fill="none" xmlns="http://www.w3.org/2000/svg"><path d="M6.420 3.759 C 3.646 3.783,3.893 3.751,3.408 4.149 C 3.082 4.416,2.788 4.781,2.569 5.193 L 2.400 5.509 2.400 11.996 L 2.400 18.483 2.505 18.691 C 2.888 19.451,3.349 19.912,4.109 20.295 L 4.317 20.400 10.669 20.396 C 14.162 20.394,17.633 20.381,18.383 20.366 L 19.746 20.340 20.083 20.172 C 20.632 19.897,21.092 19.429,21.438 18.794 L 21.599 18.500 21.599 12.009 L 21.600 5.517 21.494 5.309 C 21.210 4.747,20.815 4.295,20.313 3.960 L 19.955 3.720 14.407 3.729 C 11.356 3.733,7.762 3.747,6.420 3.759 M9.830 9.010 C 9.942 9.213,10.469 10.226,11.001 11.260 C 12.950 15.045,13.121 15.360,13.213 15.360 C 13.277 15.360,13.435 15.078,14.301 13.420 C 15.154 11.788,15.506 11.142,15.573 11.086 C 15.615 11.051,15.664 11.111,15.808 11.371 C 16.035 11.780,17.056 13.764,18.276 16.170 L 19.205 18.000 12.000 18.000 L 4.794 18.000 6.123 15.370 C 7.757 12.134,9.289 9.131,9.447 8.850 C 9.513 8.735,9.580 8.640,9.597 8.640 C 9.614 8.640,9.719 8.806,9.830 9.010 " fill="#373B4D" stroke="none" fill-rule="evenodd"></path></svg>