<svg width="24" height="24" viewBox="0 0 24 24" fill="none" xmlns="http://www.w3.org/2000/svg"><path d="M5.400 3.679 C 4.495 3.694,4.066 3.716,3.986 3.751 C 3.776 3.843,3.341 4.145,3.150 4.331 C 2.910 4.566,2.681 4.919,2.523 5.299 L 2.399 5.596 2.410 12.048 L 2.420 18.500 2.589 18.853 C 2.926 19.558,3.366 19.975,4.087 20.273 L 4.394 20.400 11.970 20.400 L 19.546 20.400 19.840 20.300 C 20.230 20.167,20.577 19.936,20.909 19.586 C 21.215 19.264,21.359 19.039,21.502 18.659 L 21.600 18.398 21.600 11.996 L 21.600 5.594 21.472 5.287 C 21.200 4.634,20.787 4.171,20.200 3.863 L 19.931 3.722 18.636 3.701 C 16.664 3.670,6.874 3.653,5.400 3.679 M9.751 8.810 C 9.816 8.925,10.315 9.893,10.859 10.960 C 12.546 14.267,13.043 15.222,13.133 15.336 L 13.221 15.446 13.393 15.138 C 13.488 14.969,13.892 14.198,14.291 13.425 C 15.348 11.378,15.543 11.020,15.599 11.020 C 15.668 11.020,15.965 11.585,17.705 15.030 L 19.206 18.000 12.003 18.000 L 4.800 18.000 5.675 16.250 C 6.882 13.838,9.279 9.110,9.438 8.830 C 9.509 8.704,9.582 8.600,9.600 8.600 C 9.618 8.600,9.686 8.695,9.751 8.810 " fill="#373B4D" stroke="none" fill-rule="evenodd"></path></svg>