<svg width="24" height="24" viewBox="0 0 24 24" fill="none" xmlns="http://www.w3.org/2000/svg"><path d="M10.380 3.765 C 7.718 3.782,5.175 3.814,4.729 3.835 C 4.014 3.869,3.895 3.885,3.729 3.965 C 3.408 4.120,2.874 4.701,2.528 5.271 L 2.400 5.481 2.400 11.993 L 2.400 18.505 2.610 18.862 C 2.896 19.348,3.452 19.904,3.938 20.190 L 4.295 20.400 11.979 20.400 L 19.663 20.400 19.993 20.210 C 20.591 19.865,20.902 19.562,21.396 18.843 L 21.600 18.546 21.600 12.031 L 21.600 5.517 21.515 5.348 C 21.298 4.922,20.724 4.279,20.238 3.918 L 19.970 3.720 17.595 3.727 C 16.289 3.730,13.042 3.747,10.380 3.765 M10.397 10.144 C 10.742 10.802,11.389 12.038,11.835 12.891 C 12.686 14.520,13.049 15.184,13.138 15.275 C 13.168 15.305,13.212 15.317,13.236 15.303 C 13.305 15.260,13.632 14.687,14.285 13.467 C 15.069 12.003,15.424 11.364,15.522 11.240 L 15.601 11.140 15.680 11.233 C 15.812 11.391,16.584 12.866,18.181 16.016 L 19.163 17.953 18.831 17.979 C 18.438 18.011,4.897 17.990,4.865 17.958 C 4.829 17.922,8.936 9.818,9.393 9.023 L 9.576 8.705 9.673 8.826 C 9.727 8.893,10.053 9.486,10.397 10.144 " fill="#373B4D" stroke="none" fill-rule="evenodd"></path></svg>