<svg width="24" height="24" viewBox="0 0 24 24" fill="none" xmlns="http://www.w3.org/2000/svg"><path d="M3.995 3.775 C 3.669 3.892,3.197 4.261,2.927 4.611 C 2.832 4.734,2.675 4.990,2.577 5.179 L 2.400 5.523 2.400 12.003 L 2.400 18.482 2.525 18.731 C 2.921 19.515,3.334 19.924,4.097 20.285 L 4.340 20.400 11.580 20.399 C 15.562 20.398,19.044 20.381,19.317 20.361 C 19.769 20.329,19.840 20.312,20.097 20.184 C 20.642 19.911,21.151 19.392,21.417 18.840 L 21.580 18.500 21.580 11.980 L 21.580 5.460 21.360 5.062 C 21.085 4.565,20.708 4.168,20.259 3.906 L 19.942 3.720 12.041 3.722 C 5.685 3.723,4.112 3.734,3.995 3.775 M9.694 8.736 C 9.754 8.829,10.163 9.618,11.881 12.960 C 12.788 14.724,13.102 15.315,13.178 15.393 C 13.238 15.455,13.229 15.470,14.380 13.260 C 15.246 11.596,15.551 11.040,15.598 11.040 C 15.616 11.040,15.657 11.080,15.690 11.130 C 15.781 11.269,16.873 13.393,18.097 15.810 L 19.206 18.000 11.999 18.000 L 4.793 18.000 6.433 14.750 C 8.214 11.218,9.397 8.903,9.502 8.742 C 9.585 8.616,9.614 8.615,9.694 8.736 " fill="#373B4D" stroke="none" fill-rule="evenodd"></path></svg>