<svg width="24" height="24" viewBox="0 0 24 24" fill="none" xmlns="http://www.w3.org/2000/svg"><path d="M4.337 3.715 C 3.983 3.740,3.967 3.745,3.645 3.957 C 3.184 4.259,2.851 4.632,2.613 5.112 L 2.420 5.500 2.410 11.987 L 2.399 18.475 2.600 18.867 C 2.937 19.527,3.291 19.882,3.920 20.192 L 4.300 20.380 11.919 20.390 C 20.400 20.402,19.640 20.426,20.217 20.126 C 20.519 19.970,21.018 19.512,21.234 19.192 C 21.303 19.089,21.415 18.870,21.481 18.705 L 21.601 18.405 21.590 11.952 L 21.580 5.500 21.388 5.114 C 21.099 4.533,20.683 4.114,20.080 3.797 L 19.900 3.702 12.300 3.696 C 8.120 3.692,4.537 3.701,4.337 3.715 M9.870 9.050 C 10.004 9.297,10.512 10.283,11.000 11.240 C 12.352 13.892,13.052 15.233,13.141 15.345 L 13.222 15.447 13.427 15.074 C 13.539 14.868,13.996 13.998,14.441 13.140 C 15.309 11.468,15.544 11.040,15.597 11.040 C 15.616 11.040,15.660 11.084,15.695 11.138 C 15.812 11.317,16.615 12.876,17.916 15.450 L 19.205 18.000 12.002 18.000 L 4.800 18.000 5.585 16.430 C 6.745 14.110,9.137 9.396,9.370 8.970 C 9.481 8.767,9.585 8.600,9.601 8.600 C 9.616 8.600,9.737 8.803,9.870 9.050 " fill="#373B4D" stroke="none" fill-rule="evenodd"></path></svg>