<svg width="24" height="24" viewBox="0 0 24 24" fill="none" xmlns="http://www.w3.org/2000/svg"><path d="M9.920 3.764 C 7.225 3.780,4.764 3.812,4.452 3.834 C 3.947 3.869,3.860 3.886,3.679 3.985 C 3.392 4.141,2.864 4.712,2.610 5.140 L 2.400 5.495 2.400 11.994 L 2.400 18.493 2.543 18.754 C 2.884 19.374,3.426 19.916,4.043 20.255 L 4.307 20.400 11.983 20.399 L 19.660 20.399 19.958 20.236 C 20.539 19.920,20.892 19.583,21.356 18.903 L 21.600 18.545 21.600 12.028 L 21.600 5.511 21.477 5.280 C 21.223 4.804,20.717 4.254,20.175 3.867 L 19.970 3.720 17.395 3.727 C 15.979 3.730,12.615 3.747,9.920 3.764 M9.798 9.001 C 9.880 9.145,10.456 10.243,11.079 11.441 C 12.737 14.629,13.070 15.244,13.167 15.304 C 13.262 15.363,13.375 15.173,14.481 13.100 C 15.302 11.561,15.531 11.160,15.593 11.160 C 15.663 11.160,15.762 11.318,16.131 12.020 C 16.754 13.206,17.993 15.625,18.593 16.824 L 19.155 17.949 18.887 17.974 C 18.535 18.007,5.322 18.000,5.049 17.966 L 4.837 17.940 5.723 16.180 C 6.798 14.045,8.487 10.731,9.092 9.569 C 9.389 8.997,9.554 8.721,9.592 8.729 C 9.624 8.735,9.717 8.858,9.798 9.001 " fill="#373B4D" stroke="none" fill-rule="evenodd"></path></svg>