<svg width="24" height="24" viewBox="0 0 24 24" fill="none" xmlns="http://www.w3.org/2000/svg"><path d="M4.700 3.758 C 3.839 3.783,3.873 3.772,3.352 4.187 C 3.062 4.417,2.822 4.726,2.564 5.200 L 2.401 5.500 2.401 12.000 L 2.401 18.500 2.576 18.826 C 2.938 19.500,3.308 19.872,3.957 20.214 L 4.319 20.405 11.929 20.390 C 18.999 20.377,19.557 20.371,19.777 20.307 C 20.424 20.118,21.128 19.458,21.482 18.709 L 21.600 18.460 21.600 11.989 L 21.600 5.517 21.495 5.309 C 21.197 4.714,20.752 4.215,20.242 3.903 L 19.944 3.720 12.702 3.728 C 8.719 3.732,5.118 3.746,4.700 3.758 M9.731 8.810 C 9.786 8.904,10.479 10.240,11.272 11.780 C 12.968 15.071,13.133 15.380,13.204 15.380 C 13.270 15.380,13.344 15.248,14.305 13.408 C 15.316 11.471,15.553 11.040,15.607 11.040 C 15.660 11.040,16.263 12.197,18.237 16.090 L 19.206 18.000 12.000 18.000 L 4.794 18.000 6.283 15.050 C 7.975 11.697,9.371 8.962,9.488 8.770 C 9.531 8.699,9.581 8.640,9.599 8.640 C 9.618 8.640,9.677 8.716,9.731 8.810 " fill="#373B4D" stroke="none" fill-rule="evenodd"></path></svg>