<svg width="24" height="24" viewBox="0 0 24 24" fill="none" xmlns="http://www.w3.org/2000/svg"><path d="M10.582 6.037 C 10.555 6.081,9.201 14.156,9.078 15.006 C 9.051 15.196,9.039 15.381,9.053 15.416 C 9.074 15.471,9.168 15.480,9.729 15.479 C 10.087 15.479,10.403 15.464,10.432 15.446 C 10.532 15.382,10.683 14.599,11.166 11.630 L 11.418 10.080 11.779 10.081 C 12.395 10.083,13.101 10.148,13.230 10.215 C 13.295 10.249,13.381 10.344,13.420 10.426 C 13.537 10.673,13.487 11.126,13.037 13.857 C 12.907 14.647,12.800 15.336,12.800 15.387 L 12.800 15.480 13.492 15.480 C 13.984 15.480,14.204 15.465,14.252 15.430 C 14.337 15.366,14.415 14.987,14.740 13.060 C 15.076 11.072,15.148 10.424,15.087 9.967 C 15.023 9.483,14.895 9.241,14.585 9.011 C 14.120 8.667,13.935 8.623,12.632 8.547 C 12.154 8.519,11.751 8.484,11.736 8.469 C 11.721 8.454,11.796 7.911,11.902 7.262 C 12.008 6.613,12.085 6.072,12.073 6.060 C 12.061 6.048,11.727 6.026,11.332 6.013 C 10.784 5.994,10.605 6.000,10.582 6.037 M3.622 8.597 C 3.609 8.617,3.554 8.856,3.498 9.127 C 3.356 9.824,2.083 17.499,2.070 17.737 C 2.060 17.927,2.064 17.934,2.190 17.968 C 2.261 17.987,2.594 17.997,2.929 17.991 L 3.539 17.980 3.647 17.360 C 3.842 16.240,3.965 15.617,4.001 15.558 C 4.030 15.511,4.214 15.495,4.949 15.474 C 6.477 15.431,6.969 15.265,7.591 14.582 C 8.234 13.878,8.618 13.042,8.786 11.983 C 8.868 11.470,8.843 10.486,8.740 10.160 C 8.532 9.500,8.154 9.027,7.635 8.781 C 7.377 8.658,7.280 8.636,6.860 8.601 C 6.248 8.550,3.653 8.547,3.622 8.597 M16.746 8.650 C 16.715 8.700,16.641 8.992,16.583 9.300 C 16.405 10.237,15.202 17.526,15.190 17.737 C 15.180 17.927,15.184 17.934,15.310 17.968 C 15.381 17.987,15.714 17.997,16.049 17.991 L 16.659 17.980 16.744 17.500 C 16.790 17.236,16.887 16.684,16.959 16.274 L 17.091 15.527 17.555 15.504 C 19.268 15.418,19.526 15.381,19.984 15.155 C 20.826 14.740,21.552 13.638,21.865 12.300 C 21.926 12.040,21.940 11.823,21.939 11.140 L 21.937 10.300 21.816 9.998 C 21.575 9.398,21.240 9.026,20.696 8.756 C 20.474 8.646,20.401 8.632,19.856 8.599 C 19.528 8.579,18.707 8.562,18.031 8.561 L 16.802 8.560 16.746 8.650 M6.295 10.120 C 6.636 10.163,6.989 10.333,7.106 10.510 C 7.220 10.682,7.255 10.963,7.222 11.435 C 7.159 12.335,6.997 12.919,6.684 13.374 C 6.417 13.762,5.834 13.956,4.830 13.990 C 4.312 14.008,4.240 14.003,4.240 13.948 C 4.240 13.753,4.855 10.245,4.902 10.173 C 4.933 10.125,5.008 10.078,5.069 10.068 C 5.216 10.046,5.949 10.077,6.295 10.120 M19.419 10.123 C 19.807 10.178,20.086 10.314,20.237 10.523 C 20.347 10.674,20.360 10.722,20.360 10.976 C 20.360 12.127,20.107 13.075,19.685 13.510 C 19.393 13.811,18.883 13.953,17.970 13.988 C 17.390 14.010,17.360 14.008,17.360 13.936 C 17.361 13.639,17.995 10.110,18.055 10.067 C 18.108 10.029,19.017 10.066,19.419 10.123 " fill="#373B4D" stroke="none" fill-rule="evenodd"></path></svg>