<svg width="24" height="24" viewBox="0 0 24 24" fill="none" xmlns="http://www.w3.org/2000/svg"><path d="M10.582 6.045 C 10.534 6.179,9.111 14.677,9.059 15.142 C 9.020 15.488,9.024 15.490,9.780 15.474 C 10.279 15.463,10.411 15.448,10.442 15.400 C 10.546 15.237,10.672 14.587,11.087 12.085 L 11.420 10.070 12.040 10.098 C 13.133 10.146,13.331 10.203,13.433 10.504 C 13.501 10.705,13.461 11.112,13.218 12.664 C 12.839 15.086,12.797 15.375,12.819 15.431 C 12.852 15.519,14.170 15.487,14.261 15.396 C 14.341 15.316,14.457 14.750,14.737 13.080 C 15.020 11.387,15.090 10.839,15.091 10.280 C 15.092 9.895,15.077 9.781,15.000 9.582 C 14.878 9.266,14.607 8.997,14.230 8.819 C 13.902 8.663,13.671 8.624,12.700 8.561 C 11.766 8.499,11.760 8.498,11.760 8.353 C 11.760 8.287,11.822 7.816,11.898 7.307 C 12.089 6.020,12.082 6.119,11.982 6.081 C 11.936 6.063,11.606 6.035,11.249 6.019 C 10.716 5.995,10.598 6.000,10.582 6.045 M3.868 8.592 C 3.660 8.603,3.632 8.615,3.597 8.709 C 3.473 9.035,2.123 17.145,2.107 17.658 C 2.097 17.990,2.129 18.003,2.919 17.990 L 3.537 17.980 3.705 17.069 C 3.960 15.681,3.988 15.572,4.092 15.546 C 4.140 15.534,4.522 15.505,4.940 15.481 C 6.489 15.392,6.916 15.258,7.480 14.683 C 8.152 13.999,8.605 13.053,8.786 11.960 C 8.854 11.546,8.839 10.584,8.758 10.240 C 8.624 9.672,8.146 9.055,7.643 8.801 C 7.431 8.694,7.318 8.666,6.983 8.638 C 6.573 8.604,4.291 8.570,3.868 8.592 M16.928 8.589 C 16.720 8.608,16.721 8.605,16.580 9.328 C 16.442 10.036,15.347 16.635,15.256 17.311 C 15.161 18.015,15.120 17.976,15.966 17.993 C 16.321 18.000,16.624 17.991,16.642 17.973 C 16.659 17.955,16.767 17.399,16.883 16.738 L 17.093 15.536 17.957 15.487 C 19.340 15.408,19.701 15.335,20.148 15.043 C 20.631 14.728,21.188 14.062,21.449 13.487 C 21.827 12.654,21.904 12.285,21.941 11.160 L 21.968 10.300 21.755 9.880 C 21.496 9.371,21.167 9.019,20.738 8.792 L 20.458 8.644 19.579 8.602 C 18.748 8.563,17.304 8.556,16.928 8.589 M19.260 10.124 C 19.696 10.178,19.942 10.264,20.123 10.428 C 20.337 10.621,20.375 10.768,20.343 11.276 C 20.274 12.365,20.079 13.032,19.703 13.468 C 19.423 13.791,18.895 13.944,17.910 13.988 C 17.439 14.009,17.360 14.004,17.360 13.953 C 17.360 13.869,17.618 12.313,17.763 11.520 C 17.916 10.684,18.038 10.155,18.092 10.087 C 18.137 10.031,18.617 10.046,19.260 10.124 M6.138 10.119 C 6.575 10.165,6.968 10.342,7.110 10.556 C 7.191 10.678,7.200 10.741,7.200 11.176 C 7.199 11.958,7.074 12.616,6.836 13.088 C 6.599 13.557,6.317 13.756,5.708 13.885 C 5.261 13.979,4.305 14.033,4.264 13.966 C 4.226 13.906,4.782 10.618,4.885 10.290 C 4.908 10.219,4.956 10.143,4.993 10.122 C 5.078 10.072,5.675 10.070,6.138 10.119 " fill="#373B4D" stroke="none" fill-rule="evenodd"></path></svg>