<svg width="24" height="24" viewBox="0 0 24 24" fill="none" xmlns="http://www.w3.org/2000/svg"><path d="M9.788 10.710 C 9.354 13.301,8.998 15.433,8.999 15.450 C 9.000 15.467,9.340 15.480,9.756 15.480 C 10.506 15.480,10.511 15.479,10.532 15.390 C 10.544 15.341,10.748 14.126,10.986 12.690 L 11.419 10.080 12.160 10.080 C 12.567 10.080,12.972 10.100,13.060 10.124 C 13.373 10.209,13.520 10.445,13.519 10.860 C 13.518 10.970,13.350 12.055,13.145 13.270 L 12.772 15.480 13.545 15.480 C 14.314 15.480,14.319 15.480,14.339 15.390 C 14.350 15.341,14.532 14.274,14.743 13.020 C 15.112 10.822,15.125 10.722,15.110 10.240 C 15.098 9.838,15.076 9.694,15.002 9.504 C 14.886 9.206,14.654 8.971,14.317 8.807 C 13.860 8.584,13.669 8.553,12.628 8.531 L 11.676 8.510 11.698 8.405 C 11.710 8.347,11.802 7.814,11.902 7.220 C 12.002 6.626,12.093 6.109,12.105 6.070 C 12.124 6.005,12.070 6.000,11.352 6.000 L 10.579 6.000 9.788 10.710 M3.582 8.567 C 3.573 8.596,3.221 10.699,2.800 13.240 C 2.379 15.781,2.025 17.892,2.014 17.931 C 1.995 17.997,2.043 18.001,2.766 17.991 L 3.537 17.980 3.746 16.740 C 3.861 16.058,3.956 15.497,3.958 15.494 C 3.959 15.491,4.415 15.480,4.970 15.469 C 6.118 15.446,6.406 15.401,6.880 15.172 C 7.107 15.063,7.259 14.948,7.503 14.704 C 8.159 14.046,8.556 13.258,8.766 12.191 C 8.884 11.595,8.892 10.678,8.784 10.260 C 8.556 9.378,8.063 8.847,7.253 8.613 C 7.055 8.556,6.763 8.543,5.310 8.530 C 3.915 8.517,3.597 8.524,3.582 8.567 M16.702 8.567 C 16.693 8.596,16.341 10.699,15.920 13.240 C 15.499 15.781,15.145 17.892,15.134 17.931 C 15.115 17.997,15.163 18.001,15.886 17.991 L 16.657 17.980 16.866 16.740 C 16.981 16.058,17.076 15.497,17.078 15.494 C 17.079 15.491,17.535 15.480,18.090 15.469 C 19.238 15.446,19.525 15.401,20.000 15.172 C 20.232 15.061,20.378 14.949,20.642 14.684 C 20.830 14.495,21.049 14.241,21.127 14.120 C 21.493 13.560,21.777 12.826,21.907 12.109 C 22.000 11.598,21.999 10.636,21.906 10.261 C 21.691 9.395,21.181 8.847,20.373 8.613 C 20.175 8.556,19.883 8.543,18.430 8.530 C 17.035 8.517,16.717 8.524,16.702 8.567 M6.240 10.082 C 6.804 10.171,7.057 10.309,7.191 10.600 C 7.238 10.704,7.255 10.868,7.255 11.240 C 7.257 12.340,6.903 13.370,6.416 13.678 C 6.121 13.866,5.608 13.968,4.846 13.991 C 4.219 14.010,4.192 14.007,4.213 13.935 C 4.225 13.894,4.372 13.023,4.540 12.000 C 4.708 10.977,4.852 10.117,4.861 10.090 C 4.882 10.027,5.856 10.021,6.240 10.082 M19.360 10.082 C 20.231 10.221,20.443 10.493,20.387 11.400 C 20.319 12.498,19.984 13.394,19.536 13.678 C 19.241 13.866,18.728 13.968,17.968 13.991 L 17.316 14.011 17.337 13.915 C 17.349 13.863,17.494 13.010,17.659 12.020 C 17.824 11.030,17.969 10.180,17.980 10.130 C 18.001 10.042,18.014 10.040,18.551 10.040 C 18.853 10.040,19.217 10.059,19.360 10.082 " fill="#373B4D" stroke="none" fill-rule="evenodd"></path></svg>