<svg width="24" height="24" viewBox="0 0 24 24" fill="none" xmlns="http://www.w3.org/2000/svg"><path d="M10.582 6.044 C 10.535 6.173,9.110 14.692,9.057 15.154 C 9.035 15.351,9.041 15.416,9.084 15.444 C 9.179 15.503,10.333 15.489,10.418 15.427 C 10.527 15.346,10.637 14.807,11.050 12.305 L 11.420 10.069 12.060 10.095 C 13.170 10.140,13.338 10.190,13.443 10.510 C 13.519 10.738,13.470 11.143,13.058 13.706 C 12.916 14.590,12.800 15.351,12.800 15.399 C 12.800 15.484,12.805 15.485,13.522 15.473 C 14.110 15.462,14.250 15.449,14.280 15.400 C 14.341 15.302,14.434 14.850,14.660 13.537 C 15.224 10.267,15.236 9.708,14.750 9.177 C 14.509 8.912,14.096 8.699,13.720 8.643 C 13.577 8.622,13.154 8.586,12.780 8.562 C 12.406 8.539,12.015 8.509,11.912 8.496 C 11.734 8.474,11.724 8.467,11.741 8.366 C 11.751 8.308,11.786 8.071,11.818 7.840 C 11.851 7.609,11.924 7.125,11.981 6.764 C 12.038 6.403,12.070 6.094,12.052 6.077 C 12.034 6.060,11.701 6.033,11.311 6.017 C 10.723 5.994,10.598 5.998,10.582 6.044 M3.735 8.586 C 3.612 8.604,3.609 8.609,3.523 9.012 C 3.331 9.911,2.080 17.497,2.080 17.761 C 2.080 17.984,2.155 18.004,2.915 17.991 L 3.539 17.980 3.627 17.480 C 3.829 16.335,3.970 15.641,4.015 15.581 C 4.054 15.526,4.205 15.509,4.926 15.478 C 6.590 15.405,7.039 15.238,7.703 14.446 C 8.293 13.741,8.669 12.854,8.804 11.846 C 8.864 11.400,8.827 10.458,8.738 10.160 C 8.506 9.383,7.875 8.759,7.200 8.639 C 6.973 8.599,3.958 8.552,3.735 8.586 M16.770 8.610 C 16.674 8.730,16.578 9.245,15.984 12.820 C 15.392 16.384,15.200 17.598,15.200 17.771 C 15.200 17.982,15.284 18.004,16.035 17.991 L 16.660 17.980 16.877 16.755 L 17.093 15.531 17.657 15.504 C 18.530 15.463,19.196 15.402,19.475 15.337 C 19.910 15.237,20.257 15.028,20.660 14.622 C 21.077 14.202,21.354 13.764,21.600 13.136 C 21.885 12.406,21.930 12.141,21.935 11.140 L 21.940 10.260 21.752 9.868 C 21.501 9.347,21.192 9.019,20.741 8.796 L 20.420 8.637 19.680 8.600 C 18.549 8.542,16.819 8.549,16.770 8.610 M18.858 10.080 C 19.743 10.138,20.087 10.265,20.279 10.607 C 20.367 10.763,20.370 10.798,20.346 11.276 C 20.275 12.661,19.929 13.488,19.305 13.761 C 19.031 13.882,18.532 13.964,17.930 13.989 C 17.370 14.012,17.360 14.011,17.360 13.928 C 17.360 13.793,17.709 11.747,17.878 10.892 C 17.969 10.427,18.054 10.096,18.086 10.075 C 18.152 10.033,18.130 10.033,18.858 10.080 M6.240 10.120 C 6.656 10.173,7.023 10.361,7.137 10.580 C 7.209 10.718,7.219 10.805,7.215 11.220 C 7.206 12.015,7.052 12.735,6.794 13.188 C 6.615 13.503,6.364 13.703,6.002 13.817 C 5.486 13.980,4.240 14.072,4.240 13.947 C 4.240 13.793,4.804 10.566,4.882 10.273 C 4.904 10.192,4.944 10.117,4.971 10.106 C 5.057 10.071,5.929 10.081,6.240 10.120 " fill="#373B4D" stroke="none" fill-rule="evenodd"></path></svg>