<svg width="24" height="24" viewBox="0 0 24 24" fill="none" xmlns="http://www.w3.org/2000/svg">
<circle cx="12" cy="12" r="9" fill="#373B4D"/>
<path d="M11.0068 8H12.0759L11.7737 9.68281H12.7344C13.2612 9.69462 13.6537 9.81796 13.912 10.0529C14.1754 10.2877 14.2528 10.7343 14.1444 11.3921L13.6253 14.326H12.5407L13.0365 11.5242C13.0881 11.2305 13.0726 11.022 12.99 10.8987C12.9075 10.7753 12.7293 10.7136 12.4555 10.7136L11.5955 10.7048L10.9603 14.326H9.89115L11.0068 8Z" fill="white"/>
<path fill-rule="evenodd" clip-rule="evenodd" d="M6.10786 9.68284H8.18412C8.79352 9.68866 9.23512 9.88848 9.5089 10.282C9.78269 10.6754 9.87302 11.2129 9.78005 11.8943C9.74395 12.2057 9.66385 12.511 9.53989 12.8106C9.42105 13.1101 9.25587 13.3803 9.04407 13.6212C8.78578 13.9265 8.50951 14.1204 8.21511 14.2026C7.92071 14.2849 7.61594 14.326 7.30093 14.326H6.37126L6.07687 16H5L6.10786 9.68284ZM6.54945 13.3304L7.01274 10.6961H7.16923C7.22609 10.6961 7.28544 10.6931 7.34742 10.6872C7.76065 10.6814 8.10402 10.7255 8.3778 10.8194C8.6567 10.9133 8.74967 11.2687 8.6567 11.8855C8.54313 12.6197 8.32094 13.0485 7.99044 13.1718C7.65994 13.2893 7.2467 13.345 6.75088 13.3392H6.64242C6.61143 13.3392 6.58044 13.3362 6.54945 13.3304Z" fill="white"/>
<path fill-rule="evenodd" clip-rule="evenodd" d="M17.3687 9.68284H15.2924L14.1846 16H15.2615L15.5559 14.326H16.4855C16.8005 14.326 17.1053 14.2849 17.3997 14.2026C17.6941 14.1204 17.9704 13.9265 18.2287 13.6212C18.4405 13.3803 18.6056 13.1101 18.7245 12.8106C18.8484 12.511 18.9285 12.2057 18.9646 11.8943C19.0576 11.2129 18.9673 10.6754 18.6935 10.282C18.4197 9.88848 17.9781 9.68866 17.3687 9.68284ZM16.1973 10.6961L15.734 13.3304C15.765 13.3362 15.796 13.3392 15.827 13.3392H15.9355C16.4313 13.345 16.8445 13.2893 17.175 13.1718C17.5055 13.0485 17.7277 12.6197 17.8413 11.8855C17.9343 11.2687 17.8413 10.9133 17.5624 10.8194C17.2886 10.7255 16.9452 10.6814 16.532 10.6872C16.47 10.6931 16.4107 10.6961 16.3538 10.6961H16.1973Z" fill="white"/>
</svg>
