<svg width="24" height="24" viewBox="0 0 24 24" fill="none" xmlns="http://www.w3.org/2000/svg"><path d="M11.040 3.066 C 9.956 3.231,9.424 3.362,8.772 3.622 C 7.529 4.118,6.601 4.721,5.697 5.620 C 4.731 6.582,4.123 7.481,3.680 8.603 C 3.250 9.695,3.049 10.639,3.013 11.740 C 2.946 13.766,3.577 15.736,4.829 17.409 C 5.433 18.216,6.508 19.188,7.351 19.690 C 7.745 19.924,8.593 20.360,8.655 20.360 C 8.688 20.360,8.697 20.070,8.687 19.290 L 8.675 18.220 8.880 17.320 C 8.992 16.825,9.245 15.732,9.443 14.891 L 9.801 13.363 9.722 13.078 C 9.559 12.491,9.529 11.743,9.648 11.240 C 9.766 10.740,10.154 10.207,10.567 9.978 C 10.761 9.871,10.814 9.860,11.160 9.860 C 11.503 9.860,11.558 9.871,11.729 9.971 C 12.108 10.194,12.250 10.501,12.252 11.100 C 12.253 11.553,12.199 11.802,11.800 13.200 C 11.509 14.220,11.476 14.484,11.596 14.802 C 11.755 15.224,12.009 15.466,12.434 15.600 C 12.894 15.745,13.399 15.687,13.920 15.430 C 14.273 15.256,14.790 14.731,15.065 14.269 C 15.314 13.848,15.540 13.188,15.624 12.631 C 15.718 12.009,15.685 10.840,15.562 10.460 C 15.177 9.273,14.343 8.453,13.146 8.084 C 12.901 8.009,12.775 8.000,11.986 8.001 C 10.960 8.001,10.727 8.038,10.218 8.276 C 9.122 8.790,8.388 9.628,8.058 10.743 C 7.927 11.184,7.884 11.884,7.959 12.350 C 8.027 12.775,8.234 13.334,8.461 13.708 L 8.651 14.020 8.562 14.400 C 8.433 14.951,8.354 15.193,8.282 15.258 C 8.227 15.308,8.198 15.306,8.059 15.244 C 7.614 15.043,7.108 14.480,6.785 13.825 C 6.503 13.254,6.376 12.810,6.319 12.194 C 6.172 10.623,6.654 9.210,7.710 8.114 C 8.510 7.283,9.471 6.759,10.680 6.495 C 11.183 6.385,13.072 6.385,13.540 6.495 C 15.196 6.886,16.523 7.911,17.223 9.340 C 17.618 10.149,17.742 10.893,17.677 12.082 C 17.641 12.734,17.568 13.143,17.397 13.646 C 17.086 14.559,16.740 15.137,16.125 15.771 C 15.613 16.298,15.278 16.541,14.751 16.768 C 14.108 17.045,13.860 17.097,13.160 17.096 C 12.664 17.096,12.496 17.081,12.320 17.022 C 11.910 16.885,11.566 16.684,11.280 16.415 C 11.126 16.269,11.000 16.160,11.000 16.172 C 11.000 16.183,10.855 16.721,10.677 17.367 C 10.335 18.610,10.228 18.896,9.744 19.874 C 9.577 20.212,9.440 20.520,9.440 20.558 C 9.440 20.608,9.504 20.645,9.670 20.691 C 10.617 20.954,11.983 21.068,12.881 20.959 C 15.734 20.614,18.172 19.089,19.630 16.740 C 20.499 15.339,21.000 13.606,21.000 12.000 C 21.000 10.824,20.714 9.491,20.221 8.361 C 19.362 6.398,17.719 4.741,15.744 3.848 C 14.792 3.418,13.880 3.167,12.960 3.082 C 12.529 3.043,11.262 3.032,11.040 3.066 " fill="#373B4D" stroke="none" fill-rule="evenodd"></path></svg>