<svg width="24" height="24" viewBox="0 0 24 24" fill="none" xmlns="http://www.w3.org/2000/svg"><path d="M10.320 3.194 C 8.352 3.608,6.895 4.407,5.519 5.825 C 4.471 6.906,3.907 7.851,3.442 9.303 C 2.867 11.100,2.868 12.918,3.444 14.718 C 3.874 16.063,4.540 17.173,5.517 18.175 C 6.297 18.974,6.969 19.492,7.823 19.952 C 8.525 20.330,8.627 20.371,8.657 20.293 C 8.670 20.260,8.680 19.776,8.680 19.218 L 8.680 18.202 9.197 15.971 C 9.481 14.744,9.735 13.657,9.760 13.556 C 9.798 13.406,9.795 13.334,9.746 13.167 C 9.659 12.875,9.586 12.040,9.612 11.638 C 9.657 10.941,9.979 10.384,10.560 9.999 C 10.731 9.886,10.761 9.880,11.164 9.880 C 11.568 9.880,11.595 9.885,11.744 9.995 C 12.149 10.292,12.217 10.458,12.214 11.140 C 12.212 11.701,12.226 11.632,11.695 13.600 C 11.505 14.305,11.495 14.608,11.652 14.929 C 12.013 15.662,12.983 15.882,13.882 15.433 C 14.153 15.297,14.728 14.757,14.960 14.420 C 15.146 14.150,15.377 13.603,15.518 13.101 C 15.659 12.597,15.707 11.842,15.646 11.077 C 15.597 10.460,15.465 10.083,15.116 9.561 C 14.771 9.045,14.341 8.659,13.811 8.388 C 13.118 8.034,13.050 8.021,11.960 8.022 C 10.878 8.023,10.724 8.050,10.133 8.340 C 9.218 8.790,8.568 9.469,8.199 10.360 C 7.995 10.854,7.950 11.114,7.948 11.800 C 7.947 12.413,7.948 12.425,8.097 12.866 C 8.179 13.111,8.337 13.471,8.446 13.666 L 8.645 14.020 8.541 14.466 C 8.483 14.711,8.396 14.990,8.348 15.086 C 8.273 15.234,8.243 15.259,8.148 15.252 C 7.979 15.240,7.547 14.910,7.307 14.608 C 6.763 13.926,6.452 13.197,6.356 12.383 C 6.298 11.893,6.329 10.965,6.416 10.566 C 6.764 8.974,7.785 7.718,9.334 6.978 C 10.248 6.542,10.764 6.442,12.100 6.441 C 13.127 6.440,13.539 6.486,14.066 6.661 C 15.732 7.213,17.042 8.523,17.497 10.094 C 17.659 10.652,17.701 11.217,17.648 12.104 C 17.614 12.667,17.577 12.958,17.503 13.246 C 17.237 14.269,16.773 15.091,16.048 15.825 C 15.647 16.230,15.327 16.475,14.950 16.665 C 14.296 16.995,13.927 17.079,13.129 17.079 C 12.615 17.080,12.478 17.067,12.269 16.997 C 11.950 16.890,11.689 16.739,11.342 16.461 C 11.189 16.339,11.045 16.245,11.022 16.252 C 10.999 16.260,10.858 16.702,10.710 17.235 C 10.392 18.374,10.264 18.728,9.813 19.716 C 9.628 20.121,9.473 20.490,9.468 20.536 C 9.462 20.604,9.499 20.633,9.672 20.690 C 9.973 20.790,10.760 20.913,11.450 20.968 C 13.616 21.141,15.981 20.349,17.799 18.843 C 18.295 18.433,18.700 18.002,19.136 17.420 C 19.573 16.837,19.759 16.532,20.084 15.867 C 20.868 14.262,21.155 12.459,20.899 10.753 C 20.330 6.963,17.555 4.020,13.791 3.216 C 13.335 3.119,13.212 3.110,12.080 3.096 C 10.865 3.080,10.858 3.081,10.320 3.194 " fill="#373B4D" stroke="none" fill-rule="evenodd"></path></svg>