<svg width="24" height="24" viewBox="0 0 24 24" fill="none" xmlns="http://www.w3.org/2000/svg"><path d="M10.800 3.103 C 9.547 3.304,8.558 3.638,7.582 4.190 C 6.397 4.860,5.225 5.959,4.436 7.140 C 3.810 8.077,3.281 9.498,3.101 10.730 C 2.723 13.322,3.532 15.997,5.287 17.953 C 5.845 18.574,6.782 19.359,7.387 19.712 C 7.734 19.915,8.599 20.360,8.645 20.360 C 8.664 20.360,8.680 19.876,8.680 19.284 L 8.680 18.207 8.842 17.494 C 8.932 17.101,9.184 16.013,9.402 15.076 L 9.800 13.371 9.715 13.056 C 9.611 12.667,9.565 11.659,9.637 11.316 C 9.741 10.814,10.085 10.299,10.490 10.037 L 10.732 9.880 11.159 9.880 L 11.586 9.880 11.799 10.030 C 12.104 10.246,12.206 10.460,12.231 10.943 C 12.257 11.442,12.202 11.755,11.895 12.859 C 11.578 13.999,11.503 14.358,11.537 14.572 C 11.669 15.393,12.504 15.851,13.423 15.606 C 13.910 15.476,14.070 15.377,14.522 14.923 C 14.873 14.571,14.974 14.440,15.128 14.140 C 15.311 13.780,15.504 13.232,15.606 12.780 C 15.691 12.402,15.678 10.895,15.588 10.560 C 15.407 9.892,14.926 9.158,14.394 8.739 C 14.038 8.459,13.387 8.138,13.014 8.059 C 12.696 7.992,11.561 7.980,11.054 8.038 C 10.223 8.134,9.178 8.796,8.616 9.584 C 8.388 9.903,8.140 10.432,8.033 10.829 C 7.917 11.260,7.905 12.264,8.012 12.620 C 8.144 13.058,8.278 13.379,8.464 13.701 L 8.648 14.020 8.539 14.480 C 8.394 15.098,8.313 15.280,8.187 15.280 C 8.051 15.280,7.640 14.996,7.417 14.748 C 6.954 14.234,6.577 13.502,6.415 12.806 C 6.327 12.423,6.286 11.684,6.326 11.171 C 6.497 8.992,8.077 7.201,10.380 6.575 C 11.158 6.364,13.120 6.366,13.846 6.578 C 15.888 7.177,17.387 8.823,17.644 10.749 C 17.703 11.197,17.669 12.458,17.584 12.923 C 17.513 13.316,17.297 13.963,17.094 14.389 C 16.862 14.879,16.489 15.393,16.041 15.842 C 15.555 16.330,15.197 16.580,14.666 16.801 C 14.099 17.039,13.836 17.087,13.119 17.088 C 12.521 17.088,12.487 17.084,12.179 16.965 C 11.823 16.827,11.563 16.664,11.248 16.380 C 11.131 16.275,11.022 16.205,11.005 16.224 C 10.988 16.244,10.869 16.647,10.741 17.120 C 10.355 18.545,10.314 18.657,9.597 20.190 C 9.474 20.455,9.437 20.573,9.468 20.604 C 9.613 20.749,10.871 20.955,11.800 20.987 C 13.745 21.053,15.786 20.382,17.449 19.129 C 19.712 17.425,21.093 14.532,20.987 11.720 C 20.911 9.698,20.174 7.773,18.889 6.240 C 17.525 4.612,15.480 3.458,13.399 3.143 C 12.778 3.048,11.282 3.025,10.800 3.103 " fill="#373B4D" stroke="none" fill-rule="evenodd"></path></svg>