<svg width="24" height="24" viewBox="0 0 24 24" fill="none" xmlns="http://www.w3.org/2000/svg"><path d="M10.730 3.121 C 9.940 3.230,8.861 3.569,8.060 3.959 C 7.118 4.417,6.440 4.914,5.600 5.757 C 4.616 6.745,4.048 7.622,3.601 8.840 C 3.202 9.930,3.024 10.901,3.024 12.000 C 3.024 13.547,3.417 15.058,4.162 16.373 C 4.876 17.633,6.093 18.899,7.321 19.658 C 7.876 20.002,8.541 20.336,8.615 20.308 C 8.673 20.285,8.680 20.167,8.680 19.243 L 8.680 18.204 9.240 15.792 L 9.801 13.380 9.742 13.140 C 9.638 12.718,9.583 11.852,9.637 11.474 C 9.705 11.000,9.928 10.555,10.247 10.260 C 10.603 9.930,10.725 9.880,11.171 9.880 C 11.512 9.880,11.560 9.890,11.723 9.993 C 12.142 10.259,12.216 10.461,12.190 11.260 C 12.174 11.754,12.153 11.890,12.011 12.420 C 11.519 14.251,11.490 14.422,11.600 14.786 C 11.774 15.361,12.501 15.756,13.182 15.646 C 13.748 15.555,14.066 15.372,14.596 14.834 C 14.925 14.500,15.103 14.228,15.275 13.798 C 15.594 13.003,15.707 12.302,15.665 11.395 C 15.622 10.485,15.439 9.960,14.945 9.336 C 14.554 8.842,14.059 8.474,13.404 8.191 L 13.100 8.060 11.960 8.060 C 10.695 8.060,10.735 8.054,10.140 8.349 C 9.109 8.861,8.476 9.570,8.095 10.641 C 7.999 10.912,7.987 11.009,7.970 11.665 C 7.955 12.268,7.963 12.430,8.019 12.625 C 8.116 12.961,8.345 13.501,8.507 13.778 L 8.647 14.016 8.549 14.418 C 8.495 14.639,8.410 14.915,8.360 15.030 C 8.283 15.210,8.255 15.240,8.161 15.240 C 7.934 15.240,7.406 14.776,7.078 14.288 C 6.481 13.400,6.257 12.445,6.353 11.199 C 6.450 9.941,6.872 9.015,7.760 8.115 C 8.569 7.295,9.616 6.722,10.655 6.531 C 11.137 6.443,13.026 6.432,13.480 6.515 C 14.885 6.773,16.352 7.820,17.048 9.061 C 17.563 9.980,17.721 10.784,17.640 12.078 C 17.591 12.877,17.554 13.095,17.378 13.640 C 17.122 14.432,16.709 15.116,16.101 15.753 C 15.693 16.181,15.409 16.411,15.037 16.615 C 14.421 16.953,13.906 17.076,13.094 17.079 C 12.323 17.081,12.071 16.993,11.356 16.477 L 11.022 16.236 10.969 16.388 C 10.939 16.472,10.810 16.900,10.681 17.340 C 10.367 18.408,10.255 18.716,9.833 19.670 C 9.635 20.115,9.480 20.511,9.487 20.549 C 9.517 20.703,10.352 20.879,11.457 20.966 C 13.140 21.098,14.984 20.640,16.582 19.691 C 17.835 18.948,18.734 18.082,19.551 16.830 C 20.574 15.263,21.127 13.102,20.964 11.315 C 20.688 8.308,19.042 5.719,16.467 4.241 C 15.547 3.713,14.406 3.302,13.480 3.165 C 13.122 3.112,11.037 3.078,10.730 3.121 " fill="#373B4D" stroke="none" fill-rule="evenodd"></path></svg>