<svg width="24" height="24" viewBox="0 0 24 24" fill="none" xmlns="http://www.w3.org/2000/svg"><path d="M10.460 2.556 C 8.397 2.940,6.796 3.749,5.385 5.120 C 4.496 5.984,3.882 6.821,3.377 7.860 C 2.066 10.554,2.096 13.601,3.462 16.323 C 4.177 17.749,5.334 19.053,6.680 19.949 C 7.607 20.566,8.758 21.065,9.980 21.380 C 10.692 21.563,12.698 21.607,13.602 21.459 C 14.327 21.340,15.373 20.991,16.183 20.597 C 17.678 19.870,19.020 18.714,19.908 17.388 C 20.322 16.768,20.870 15.645,21.111 14.919 C 21.413 14.007,21.475 13.692,21.529 12.787 C 21.595 11.660,21.531 10.569,21.360 9.900 C 21.053 8.702,20.624 7.713,19.996 6.757 C 18.554 4.560,16.139 2.990,13.567 2.575 C 13.303 2.532,12.811 2.507,12.020 2.497 C 11.015 2.484,10.807 2.492,10.460 2.556 M11.169 8.533 C 11.763 8.796,14.578 10.659,15.113 11.144 C 15.452 11.450,15.536 11.619,15.536 12.000 C 15.536 12.463,15.366 12.705,14.675 13.221 C 13.960 13.754,12.055 15.004,11.391 15.375 C 10.897 15.651,10.414 15.606,10.032 15.249 C 9.742 14.977,9.719 14.913,9.678 14.246 C 9.631 13.485,9.632 10.373,9.679 9.693 C 9.720 9.095,9.784 8.917,10.023 8.735 C 10.424 8.429,10.788 8.365,11.169 8.533 " fill="#373B4D" stroke="none" fill-rule="evenodd"></path></svg>