<svg width="24" height="24" viewBox="0 0 24 24" fill="none" xmlns="http://www.w3.org/2000/svg"><path d="M10.680 2.562 C 9.847 2.629,8.634 3.012,7.629 3.528 C 6.202 4.260,4.700 5.649,3.844 7.030 C 3.150 8.149,2.629 9.657,2.483 10.968 C 2.393 11.782,2.448 13.117,2.601 13.808 C 2.934 15.313,3.521 16.620,4.374 17.760 C 4.745 18.256,5.679 19.189,6.160 19.545 C 7.337 20.416,8.933 21.157,10.160 21.403 C 10.776 21.526,11.996 21.584,12.790 21.528 C 13.767 21.459,14.413 21.305,15.429 20.897 C 17.178 20.195,18.614 19.108,19.703 17.660 C 20.334 16.821,21.026 15.314,21.362 14.047 C 21.467 13.651,21.517 12.929,21.518 11.780 C 21.520 10.756,21.475 10.352,21.285 9.680 C 20.787 7.921,19.954 6.474,18.748 5.274 C 17.986 4.515,17.233 3.978,16.240 3.485 C 15.354 3.044,14.574 2.780,13.756 2.644 C 13.093 2.533,11.552 2.492,10.680 2.562 M11.234 8.602 C 11.714 8.814,13.527 9.977,14.513 10.704 C 15.361 11.331,15.480 11.487,15.480 11.980 C 15.480 12.371,15.419 12.509,15.111 12.814 C 14.678 13.242,13.220 14.267,12.040 14.971 C 11.119 15.521,10.860 15.601,10.431 15.472 C 10.219 15.409,9.905 15.121,9.823 14.915 C 9.720 14.657,9.682 13.898,9.682 12.040 C 9.681 10.023,9.722 9.264,9.844 9.013 C 10.071 8.542,10.687 8.360,11.234 8.602 " fill="#373B4D" stroke="none" fill-rule="evenodd"></path></svg>