<svg width="24" height="24" viewBox="0 0 24 24" fill="none" xmlns="http://www.w3.org/2000/svg"><path d="M10.800 2.602 C 9.953 2.652,9.188 2.852,8.279 3.261 C 6.771 3.938,5.535 4.887,4.488 6.170 C 3.517 7.359,2.767 9.091,2.533 10.680 C 2.428 11.395,2.439 12.868,2.554 13.500 C 2.856 15.155,3.599 16.799,4.565 17.948 C 4.922 18.373,5.698 19.144,6.080 19.452 C 6.934 20.141,8.561 20.975,9.600 21.255 C 10.436 21.481,10.632 21.500,12.100 21.497 L 13.460 21.494 14.014 21.346 C 15.888 20.845,17.402 20.015,18.653 18.802 C 19.696 17.790,20.318 16.838,20.913 15.340 C 21.339 14.268,21.411 13.950,21.483 12.820 C 21.537 11.953,21.512 10.911,21.423 10.380 C 21.183 8.955,20.388 7.240,19.397 6.013 C 18.128 4.440,15.991 3.130,14.061 2.740 C 13.262 2.578,12.060 2.527,10.800 2.602 M11.488 8.757 C 12.196 9.126,14.096 10.391,14.840 10.989 C 15.314 11.370,15.415 11.526,15.434 11.905 C 15.454 12.313,15.376 12.505,15.063 12.819 C 14.410 13.471,12.098 15.022,11.260 15.370 C 10.908 15.516,10.751 15.535,10.494 15.460 C 10.223 15.381,9.924 15.103,9.849 14.860 C 9.745 14.526,9.710 13.451,9.735 11.400 C 9.749 10.266,9.777 9.318,9.799 9.239 C 9.869 8.990,10.057 8.740,10.245 8.644 C 10.397 8.567,10.469 8.557,10.788 8.569 C 11.132 8.583,11.179 8.595,11.488 8.757 " fill="#373B4D" stroke="none" fill-rule="evenodd"></path></svg>