<svg width="24" height="24" viewBox="0 0 24 24" fill="none" xmlns="http://www.w3.org/2000/svg"><path d="M5.209 3.162 C 4.790 3.220,4.339 3.590,4.115 4.060 L 4.000 4.300 4.000 12.004 L 4.000 19.707 4.128 19.964 C 4.455 20.620,5.072 20.954,5.756 20.844 C 6.037 20.798,6.429 20.575,12.541 16.979 C 17.522 14.048,18.913 13.211,19.115 13.027 C 19.647 12.540,19.650 11.464,19.122 10.986 C 18.889 10.776,16.517 9.358,10.400 5.771 C 6.049 3.220,6.013 3.200,5.805 3.177 C 5.703 3.165,5.575 3.151,5.520 3.145 C 5.465 3.138,5.325 3.146,5.209 3.162 " fill="#373B4D" stroke="none" fill-rule="evenodd"></path></svg>