<svg width="24" height="24" viewBox="0 0 24 24" fill="none" xmlns="http://www.w3.org/2000/svg"><path d="M10.960 2.483 C 10.529 2.522,9.753 2.687,9.175 2.863 C 7.694 3.311,6.417 4.074,5.312 5.171 C 3.805 6.665,2.893 8.403,2.543 10.445 C 2.150 12.732,2.671 15.225,3.947 17.178 C 5.248 19.167,7.063 20.510,9.409 21.217 C 10.384 21.511,10.564 21.534,11.920 21.537 C 13.206 21.540,13.437 21.520,14.160 21.339 C 16.336 20.794,18.255 19.563,19.560 17.875 C 20.466 16.703,21.204 15.049,21.468 13.600 C 21.571 13.039,21.571 10.898,21.468 10.380 C 20.876 7.391,19.104 4.964,16.480 3.550 C 15.484 3.013,14.237 2.625,13.173 2.522 C 12.619 2.469,11.364 2.446,10.960 2.483 M11.376 8.632 C 11.791 8.852,12.906 9.567,14.020 10.330 C 15.304 11.209,15.490 11.394,15.544 11.847 C 15.603 12.353,15.417 12.674,14.792 13.140 C 13.837 13.854,11.443 15.403,11.130 15.510 C 10.896 15.589,10.513 15.559,10.285 15.443 C 10.040 15.318,9.773 15.037,9.724 14.854 C 9.646 14.560,9.592 11.872,9.637 10.540 C 9.660 9.858,9.696 9.242,9.717 9.170 C 9.799 8.886,10.039 8.659,10.429 8.495 C 10.739 8.364,10.917 8.390,11.376 8.632 " fill="#373B4D" stroke="none" fill-rule="evenodd"></path></svg>