<svg width="24" height="24" viewBox="0 0 24 24" fill="none" xmlns="http://www.w3.org/2000/svg"><path d="M5.020 3.207 C 4.678 3.337,4.322 3.666,4.124 4.039 L 4.000 4.271 4.000 12.002 L 4.000 19.732 4.146 19.993 C 4.417 20.477,4.780 20.749,5.276 20.839 C 5.593 20.897,5.818 20.853,6.206 20.657 C 6.631 20.443,7.992 19.655,11.400 17.651 C 17.647 13.977,18.971 13.180,19.168 12.973 C 19.330 12.803,19.479 12.440,19.506 12.154 C 19.537 11.823,19.468 11.504,19.308 11.235 C 19.151 10.971,19.040 10.895,17.120 9.743 C 15.070 8.513,8.865 4.861,7.065 3.825 C 5.953 3.184,5.958 3.187,5.520 3.173 C 5.304 3.167,5.088 3.181,5.020 3.207 " fill="#373B4D" stroke="none" fill-rule="evenodd"></path></svg>