<svg width="24" height="24" viewBox="0 0 24 24" fill="none" xmlns="http://www.w3.org/2000/svg"><path d="M10.380 2.584 C 9.146 2.805,7.814 3.332,6.818 3.994 C 5.607 4.798,4.441 6.012,3.731 7.210 C 3.095 8.282,2.595 9.799,2.477 11.017 C 2.416 11.644,2.450 13.022,2.538 13.500 C 2.834 15.098,3.464 16.562,4.384 17.783 C 4.692 18.193,5.413 18.941,5.860 19.314 C 6.955 20.230,8.796 21.132,10.113 21.398 C 10.966 21.570,12.647 21.601,13.520 21.460 C 14.869 21.242,16.569 20.504,17.751 19.625 C 18.512 19.058,19.458 18.066,19.930 17.340 C 20.536 16.406,21.175 14.903,21.408 13.860 C 21.477 13.553,21.492 13.309,21.509 12.193 C 21.531 10.702,21.515 10.522,21.278 9.660 C 20.383 6.398,18.040 3.934,14.858 2.907 C 14.259 2.714,13.727 2.612,13.060 2.562 C 12.253 2.502,10.772 2.514,10.380 2.584 M11.320 8.638 C 12.088 9.024,14.037 10.312,14.961 11.043 C 15.400 11.391,15.501 11.570,15.498 12.000 C 15.495 12.390,15.414 12.544,15.024 12.909 C 14.491 13.406,12.271 14.893,11.414 15.327 C 11.055 15.508,10.978 15.533,10.769 15.531 C 10.622 15.529,10.463 15.498,10.355 15.450 C 10.141 15.354,9.890 15.113,9.814 14.932 C 9.707 14.675,9.672 13.948,9.674 12.000 C 9.677 9.884,9.711 9.252,9.835 9.012 C 10.101 8.493,10.721 8.337,11.320 8.638 " fill="#373B4D" stroke="none" fill-rule="evenodd"></path></svg>