<svg width="24" height="24" viewBox="0 0 24 24" fill="none" xmlns="http://www.w3.org/2000/svg"><path d="M11.000 2.463 C 8.701 2.737,6.759 3.671,5.175 5.265 C 2.751 7.704,1.820 11.347,2.781 14.634 C 3.551 17.270,5.288 19.358,7.732 20.586 C 8.548 20.996,9.533 21.315,10.507 21.484 C 10.943 21.559,11.167 21.573,12.000 21.573 C 12.833 21.573,13.057 21.559,13.493 21.484 C 16.681 20.930,19.280 18.988,20.644 16.140 C 20.953 15.495,21.137 14.984,21.320 14.263 C 21.528 13.445,21.573 13.025,21.570 11.920 C 21.567 11.152,21.552 10.892,21.483 10.500 C 21.304 9.479,21.026 8.628,20.573 7.714 C 19.332 5.208,17.068 3.393,14.321 2.701 C 13.686 2.541,13.242 2.480,12.412 2.440 C 11.490 2.395,11.587 2.393,11.000 2.463 M11.061 8.452 C 11.289 8.511,11.947 8.921,13.680 10.084 C 15.380 11.224,15.471 11.306,15.557 11.769 C 15.652 12.284,15.502 12.625,15.019 12.991 C 14.304 13.531,11.951 15.088,11.340 15.425 C 11.096 15.560,11.027 15.580,10.800 15.580 C 10.379 15.580,10.022 15.386,9.797 15.035 L 9.663 14.827 9.629 13.903 C 9.611 13.396,9.602 12.152,9.609 11.140 L 9.623 9.300 9.720 9.102 C 9.883 8.767,10.184 8.523,10.540 8.437 C 10.726 8.392,10.846 8.396,11.061 8.452 " fill="#373B4D" stroke="none" fill-rule="evenodd"></path></svg>