<svg width="24" height="24" viewBox="0 0 24 24" fill="none" xmlns="http://www.w3.org/2000/svg"><path d="M10.780 2.522 C 9.848 2.624,8.586 3.017,7.649 3.498 C 6.239 4.220,4.873 5.459,3.942 6.860 C 3.237 7.919,2.668 9.464,2.501 10.772 C 2.431 11.317,2.420 12.576,2.481 13.081 C 2.696 14.862,3.457 16.662,4.570 18.020 C 4.877 18.396,5.581 19.099,5.937 19.386 C 6.938 20.194,8.256 20.876,9.552 21.258 C 10.154 21.435,10.437 21.479,11.293 21.528 C 12.395 21.591,13.323 21.535,14.020 21.363 C 15.488 21.001,16.913 20.310,18.020 19.422 C 18.626 18.936,19.442 18.067,19.832 17.491 C 20.332 16.753,20.800 15.791,21.123 14.839 C 21.420 13.961,21.478 13.657,21.519 12.742 C 21.551 12.020,21.517 10.595,21.463 10.380 C 21.451 10.336,21.387 10.078,21.320 9.807 C 20.774 7.596,19.537 5.736,17.700 4.361 C 16.366 3.362,14.633 2.668,13.220 2.565 C 12.385 2.504,11.143 2.483,10.780 2.522 M11.304 8.622 C 12.144 9.025,15.038 10.993,15.304 11.342 C 15.507 11.607,15.567 11.938,15.478 12.292 C 15.379 12.684,15.005 13.018,13.620 13.956 C 12.684 14.589,11.809 15.134,11.359 15.363 C 11.063 15.514,10.987 15.536,10.760 15.537 C 10.451 15.538,10.240 15.443,9.983 15.185 C 9.757 14.959,9.726 14.818,9.676 13.767 C 9.631 12.837,9.660 10.011,9.721 9.452 C 9.771 8.981,9.900 8.774,10.254 8.593 C 10.609 8.412,10.881 8.419,11.304 8.622 " fill="#373B4D" stroke="none" fill-rule="evenodd"></path></svg>