<svg width="24" height="24" viewBox="0 0 24 24" fill="none" xmlns="http://www.w3.org/2000/svg"><path d="M5.116 3.195 C 4.784 3.265,4.398 3.590,4.142 4.018 L 4.000 4.255 4.000 12.000 L 4.000 19.745 4.142 19.982 C 4.429 20.460,4.753 20.713,5.215 20.820 C 5.735 20.941,5.891 20.873,8.280 19.480 C 11.787 17.436,17.218 14.226,18.258 13.584 C 18.653 13.340,19.051 13.066,19.143 12.976 C 19.375 12.748,19.492 12.431,19.496 12.020 C 19.502 11.458,19.325 11.129,18.841 10.801 C 17.980 10.217,6.672 3.555,6.110 3.300 C 5.880 3.196,5.368 3.142,5.116 3.195 " fill="#373B4D" stroke="none" fill-rule="evenodd"></path></svg>