<svg width="24" height="24" viewBox="0 0 24 24" fill="none" xmlns="http://www.w3.org/2000/svg"><path d="M11.221 6.413 C 11.057 6.574,10.902 6.758,10.875 6.823 C 10.839 6.908,10.821 7.472,10.809 8.864 L 10.792 10.788 10.006 10.815 C 9.574 10.829,8.806 10.860,8.300 10.883 C 6.779 10.951,6.589 10.993,6.311 11.318 C 6.053 11.619,6.000 12.103,6.184 12.472 C 6.330 12.766,6.673 13.063,6.936 13.122 C 7.065 13.151,7.815 13.176,8.970 13.190 L 10.800 13.211 10.800 14.496 C 10.801 15.894,10.854 17.035,10.925 17.173 C 11.020 17.356,11.243 17.592,11.462 17.743 C 11.677 17.891,11.706 17.900,11.975 17.897 C 12.185 17.895,12.310 17.870,12.450 17.802 C 12.711 17.677,13.017 17.335,13.075 17.103 C 13.153 16.793,13.199 15.835,13.199 14.490 L 13.200 13.200 14.750 13.198 C 15.603 13.197,16.493 13.181,16.728 13.163 C 17.127 13.132,17.170 13.120,17.348 12.993 C 17.454 12.917,17.612 12.752,17.699 12.625 C 17.843 12.418,17.860 12.365,17.873 12.107 C 17.899 11.577,17.627 11.107,17.236 11.008 C 16.988 10.946,14.313 10.800,13.415 10.800 L 13.200 10.800 13.200 8.878 C 13.200 7.307,13.190 6.936,13.144 6.847 C 13.071 6.707,12.693 6.349,12.526 6.263 C 12.408 6.202,11.900 6.121,11.629 6.120 C 11.545 6.120,11.447 6.191,11.221 6.413 " fill="#373B4D" stroke="none" fill-rule="evenodd"></path></svg>