<svg width="24" height="24" viewBox="0 0 24 24" fill="none" xmlns="http://www.w3.org/2000/svg"><path d="M11.248 6.381 C 10.768 6.823,10.800 6.647,10.800 8.878 L 10.800 10.800 10.543 10.800 C 10.091 10.800,7.878 10.881,7.335 10.918 C 6.929 10.945,6.773 10.972,6.644 11.038 C 6.396 11.164,6.177 11.409,6.125 11.618 C 6.059 11.879,6.069 12.304,6.144 12.463 C 6.230 12.643,6.720 13.102,6.865 13.136 C 6.928 13.152,7.840 13.175,8.890 13.187 L 10.800 13.210 10.801 14.535 C 10.802 16.034,10.850 17.012,10.932 17.208 C 11.017 17.410,11.486 17.828,11.690 17.883 C 11.919 17.945,12.267 17.908,12.478 17.801 C 12.730 17.672,13.026 17.361,13.077 17.170 C 13.153 16.889,13.199 15.897,13.199 14.534 L 13.200 13.208 15.110 13.191 C 16.540 13.178,17.055 13.160,17.160 13.122 C 17.344 13.054,17.699 12.707,17.795 12.502 C 17.972 12.124,17.928 11.690,17.676 11.318 C 17.474 11.021,17.335 10.969,16.618 10.921 C 15.973 10.877,13.970 10.800,13.500 10.800 L 13.211 10.800 13.192 8.841 L 13.172 6.882 13.061 6.722 C 12.939 6.546,12.689 6.327,12.495 6.227 C 12.418 6.188,12.212 6.153,11.955 6.138 L 11.540 6.112 11.248 6.381 " fill="#373B4D" stroke="none" fill-rule="evenodd"></path></svg>