<svg width="24" height="24" viewBox="0 0 24 24" fill="none" xmlns="http://www.w3.org/2000/svg"><path d="M10.800 2.602 C 9.953 2.652,9.188 2.852,8.279 3.261 C 6.771 3.938,5.535 4.887,4.488 6.170 C 3.517 7.359,2.767 9.091,2.533 10.680 C 2.428 11.395,2.439 12.868,2.554 13.500 C 2.856 15.155,3.599 16.799,4.565 17.948 C 4.922 18.373,5.698 19.144,6.080 19.452 C 6.934 20.141,8.561 20.975,9.600 21.255 C 10.436 21.481,10.632 21.500,12.100 21.497 L 13.460 21.494 14.014 21.346 C 15.888 20.845,17.402 20.015,18.653 18.802 C 19.696 17.790,20.318 16.838,20.913 15.340 C 21.339 14.268,21.411 13.950,21.483 12.820 C 21.537 11.953,21.512 10.911,21.423 10.380 C 21.183 8.955,20.388 7.240,19.397 6.013 C 18.128 4.440,15.991 3.130,14.061 2.740 C 13.262 2.578,12.060 2.527,10.800 2.602 M12.353 7.422 C 12.593 7.493,12.813 7.670,12.918 7.876 C 13.025 8.086,13.080 8.600,13.182 10.345 L 13.208 10.791 13.674 10.817 C 16.073 10.951,16.265 10.996,16.514 11.480 C 16.640 11.726,16.646 11.756,16.625 12.048 C 16.613 12.217,16.578 12.415,16.547 12.488 C 16.466 12.679,16.082 13.026,15.895 13.076 C 15.626 13.148,14.852 13.199,14.015 13.200 L 13.210 13.200 13.183 13.690 C 13.061 15.924,13.017 16.155,12.647 16.489 C 12.198 16.895,11.353 16.704,11.064 16.132 C 10.964 15.932,10.901 15.321,10.816 13.710 L 10.789 13.200 10.003 13.200 C 9.570 13.200,8.974 13.181,8.678 13.158 C 7.998 13.105,7.815 13.028,7.569 12.693 L 7.400 12.463 7.400 11.978 C 7.400 11.504,7.403 11.488,7.517 11.330 C 7.748 11.012,8.087 10.950,10.344 10.818 L 10.789 10.792 10.816 10.246 C 10.850 9.560,10.952 8.413,11.002 8.147 C 11.043 7.932,11.181 7.666,11.313 7.546 C 11.514 7.364,11.974 7.309,12.353 7.422 " fill="#373B4D" stroke="none" fill-rule="evenodd"></path></svg>