<svg width="24" height="24" viewBox="0 0 24 24" fill="none" xmlns="http://www.w3.org/2000/svg"><path d="M11.277 3.966 C 11.112 4.107,10.965 4.273,10.929 4.356 C 10.854 4.530,10.807 6.265,10.803 9.030 L 10.800 10.800 10.442 10.800 C 8.910 10.800,4.557 10.944,4.352 11.001 C 4.141 11.060,3.863 11.353,3.763 11.622 C 3.585 12.097,3.699 12.443,4.214 12.990 L 4.412 13.200 7.606 13.200 L 10.800 13.200 10.800 16.396 L 10.800 19.593 11.090 19.862 C 11.468 20.214,11.652 20.298,12.040 20.298 C 12.395 20.298,12.509 20.248,12.798 19.958 C 13.129 19.627,13.133 19.615,13.165 18.640 C 13.181 18.167,13.195 16.750,13.197 15.490 L 13.200 13.200 16.397 13.200 L 19.594 13.200 19.838 12.930 C 20.160 12.574,20.254 12.374,20.273 12.012 C 20.292 11.657,20.218 11.482,19.902 11.133 L 19.685 10.893 17.293 10.866 C 15.977 10.851,14.518 10.827,14.050 10.813 L 13.200 10.787 13.200 7.599 L 13.200 4.412 12.990 4.213 C 12.658 3.899,12.493 3.807,12.180 3.762 C 11.632 3.683,11.596 3.691,11.277 3.966 " fill="#373B4D" stroke="none" fill-rule="evenodd"></path></svg>