<svg width="24" height="24" viewBox="0 0 24 24" fill="none" xmlns="http://www.w3.org/2000/svg"><path d="M11.000 2.463 C 8.701 2.737,6.759 3.671,5.175 5.265 C 2.751 7.704,1.820 11.347,2.781 14.634 C 3.551 17.270,5.288 19.358,7.732 20.586 C 8.548 20.996,9.533 21.315,10.507 21.484 C 10.943 21.559,11.167 21.573,12.000 21.573 C 12.833 21.573,13.057 21.559,13.493 21.484 C 16.681 20.930,19.280 18.988,20.644 16.140 C 20.953 15.495,21.137 14.984,21.320 14.263 C 21.528 13.445,21.573 13.025,21.570 11.920 C 21.567 11.152,21.552 10.892,21.483 10.500 C 21.304 9.479,21.026 8.628,20.573 7.714 C 19.332 5.208,17.068 3.393,14.321 2.701 C 13.686 2.541,13.242 2.480,12.412 2.440 C 11.490 2.395,11.587 2.393,11.000 2.463 M12.503 7.338 C 12.743 7.445,12.965 7.663,13.082 7.904 C 13.161 8.067,13.168 8.163,13.189 9.439 L 13.212 10.800 14.156 10.803 C 14.675 10.805,15.311 10.819,15.569 10.835 C 16.030 10.863,16.041 10.866,16.269 11.022 C 16.453 11.148,16.526 11.232,16.630 11.436 C 16.743 11.659,16.760 11.732,16.760 12.000 C 16.760 12.263,16.742 12.343,16.638 12.552 C 16.509 12.809,16.320 12.990,16.054 13.111 C 15.920 13.171,15.729 13.182,14.556 13.192 L 13.212 13.205 13.191 14.557 L 13.171 15.909 13.038 16.159 C 12.573 17.029,11.387 17.001,10.934 16.109 L 10.828 15.900 10.808 14.552 L 10.789 13.205 9.444 13.192 C 8.271 13.182,8.080 13.171,7.946 13.111 C 7.690 12.995,7.500 12.816,7.367 12.566 C 7.257 12.361,7.240 12.289,7.240 12.032 C 7.240 11.494,7.410 11.192,7.844 10.961 L 8.094 10.828 9.447 10.808 L 10.800 10.789 10.801 9.664 C 10.803 8.085,10.837 7.883,11.153 7.567 C 11.510 7.210,12.021 7.124,12.503 7.338 " fill="#373B4D" stroke="none" fill-rule="evenodd"></path></svg>