<svg width="24" height="24" viewBox="0 0 24 24" fill="none" xmlns="http://www.w3.org/2000/svg"><path d="M11.494 3.797 C 11.258 3.941,10.932 4.302,10.905 4.450 C 10.852 4.732,10.802 6.799,10.801 8.764 L 10.800 10.788 9.470 10.815 C 6.305 10.880,4.420 10.967,4.246 11.057 C 4.049 11.159,3.805 11.472,3.735 11.713 C 3.615 12.123,3.732 12.452,4.166 12.934 L 4.406 13.200 7.603 13.200 L 10.800 13.200 10.800 16.397 L 10.800 19.594 11.087 19.856 C 11.522 20.253,11.853 20.368,12.290 20.274 C 12.461 20.237,12.543 20.186,12.754 19.985 C 12.895 19.850,13.038 19.677,13.071 19.600 C 13.161 19.390,13.196 18.279,13.198 15.570 L 13.200 13.200 16.397 13.200 L 19.594 13.200 19.815 12.951 C 20.168 12.555,20.257 12.361,20.258 11.980 C 20.260 11.598,20.212 11.483,19.903 11.137 L 19.685 10.893 17.173 10.866 C 15.791 10.851,14.332 10.828,13.930 10.813 L 13.200 10.787 13.200 7.597 L 13.200 4.407 12.950 4.180 C 12.641 3.899,12.481 3.815,12.155 3.762 C 11.787 3.702,11.636 3.710,11.494 3.797 " fill="#373B4D" stroke="none" fill-rule="evenodd"></path></svg>