<svg width="24" height="24" viewBox="0 0 24 24" fill="none" xmlns="http://www.w3.org/2000/svg"><path d="M11.339 3.909 C 10.938 4.245,10.912 4.284,10.874 4.609 C 10.855 4.769,10.828 6.228,10.815 7.850 L 10.790 10.800 10.427 10.800 C 9.781 10.800,6.326 10.881,5.347 10.919 C 4.428 10.955,4.387 10.960,4.218 11.059 C 3.902 11.245,3.682 11.629,3.681 12.002 C 3.680 12.298,3.811 12.556,4.146 12.918 L 4.407 13.200 7.604 13.200 L 10.800 13.200 10.800 16.389 L 10.800 19.577 11.091 19.862 C 11.308 20.075,11.439 20.169,11.612 20.234 C 11.900 20.341,12.204 20.344,12.432 20.240 C 12.687 20.124,13.054 19.740,13.119 19.520 C 13.160 19.380,13.176 18.663,13.189 16.270 L 13.206 13.200 16.400 13.200 L 19.593 13.200 19.842 12.930 C 20.170 12.575,20.296 12.303,20.294 11.960 C 20.291 11.639,20.205 11.457,19.902 11.130 L 19.683 10.893 17.472 10.866 C 16.255 10.852,14.797 10.828,14.230 10.813 L 13.200 10.787 13.200 7.598 L 13.200 4.409 12.939 4.165 C 12.572 3.822,12.436 3.761,11.967 3.733 L 11.577 3.709 11.339 3.909 " fill="#373B4D" stroke="none" fill-rule="evenodd"></path></svg>