<svg width="24" height="24" viewBox="0 0 24 24" fill="none" xmlns="http://www.w3.org/2000/svg"><path d="M11.740 6.035 C 11.376 6.130,11.086 6.358,10.933 6.671 L 10.820 6.900 10.808 8.844 L 10.796 10.788 8.843 10.809 L 6.890 10.830 6.641 10.963 C 5.770 11.427,5.811 12.644,6.712 13.087 C 6.900 13.180,6.904 13.180,8.848 13.192 L 10.796 13.204 10.808 15.152 C 10.820 17.098,10.820 17.100,10.913 17.289 C 11.107 17.682,11.593 18.000,12.000 18.000 C 12.407 18.000,12.889 17.685,13.086 17.290 L 13.180 17.100 13.192 15.152 L 13.204 13.204 15.152 13.192 C 17.096 13.180,17.100 13.180,17.288 13.087 C 18.189 12.644,18.230 11.427,17.359 10.963 L 17.110 10.830 15.157 10.809 L 13.204 10.788 13.192 8.844 C 13.180 6.917,13.179 6.898,13.090 6.718 C 12.965 6.469,12.739 6.245,12.500 6.135 C 12.278 6.033,11.925 5.987,11.740 6.035 " fill="#373B4D" stroke="none" fill-rule="evenodd"></path></svg>