<svg width="24" height="24" viewBox="0 0 24 24" fill="none" xmlns="http://www.w3.org/2000/svg"><path d="M11.321 6.305 C 11.173 6.417,11.011 6.584,10.941 6.697 L 10.820 6.894 10.807 8.842 L 10.795 10.790 9.727 10.817 C 8.526 10.847,7.196 10.907,6.909 10.944 C 6.673 10.973,6.393 11.156,6.228 11.388 C 6.118 11.542,6.106 11.592,6.089 11.958 C 6.070 12.336,6.075 12.369,6.169 12.510 C 6.326 12.748,6.628 13.039,6.791 13.109 C 6.919 13.164,7.213 13.176,8.870 13.192 L 10.800 13.210 10.803 14.415 C 10.808 16.237,10.848 17.069,10.938 17.239 C 11.049 17.450,11.413 17.783,11.616 17.860 C 11.839 17.946,12.233 17.928,12.452 17.822 C 12.661 17.721,12.977 17.429,13.055 17.264 C 13.147 17.071,13.199 16.074,13.199 14.494 L 13.200 13.207 15.130 13.193 C 17.313 13.177,17.196 13.194,17.538 12.847 C 17.806 12.575,17.900 12.361,17.900 12.019 C 17.900 11.782,17.879 11.696,17.768 11.469 C 17.617 11.163,17.458 11.022,17.199 10.965 C 16.994 10.920,15.683 10.854,14.210 10.815 L 13.200 10.789 13.197 9.384 C 13.195 8.612,13.181 7.717,13.166 7.396 L 13.139 6.812 12.984 6.623 C 12.899 6.519,12.736 6.371,12.620 6.295 C 12.425 6.165,12.385 6.155,11.995 6.133 L 11.579 6.109 11.321 6.305 " fill="#373B4D" stroke="none" fill-rule="evenodd"></path></svg>