<svg width="24" height="24" viewBox="0 0 24 24" fill="none" xmlns="http://www.w3.org/2000/svg"><path d="M11.630 3.717 C 11.479 3.748,11.104 4.039,10.950 4.245 C 10.829 4.407,10.803 5.085,10.801 8.063 L 10.800 10.785 7.710 10.836 C 6.010 10.863,4.545 10.900,4.453 10.917 C 4.123 10.978,3.767 11.375,3.675 11.785 C 3.580 12.211,3.773 12.645,4.216 13.003 L 4.459 13.200 7.629 13.200 L 10.800 13.200 10.800 16.363 L 10.800 19.526 10.919 19.699 C 11.075 19.925,11.335 20.149,11.560 20.252 C 11.792 20.357,12.282 20.368,12.460 20.271 C 12.586 20.202,13.023 19.769,13.134 19.601 C 13.194 19.511,13.200 19.208,13.200 16.351 L 13.200 13.200 16.370 13.200 L 19.540 13.199 19.767 13.019 C 20.490 12.444,20.536 11.649,19.880 11.080 L 19.655 10.885 17.078 10.843 C 15.660 10.819,14.207 10.800,13.850 10.800 L 13.200 10.800 13.200 7.609 L 13.200 4.418 12.890 4.111 C 12.720 3.942,12.535 3.788,12.480 3.767 C 12.333 3.713,11.804 3.682,11.630 3.717 " fill="#373B4D" stroke="none" fill-rule="evenodd"></path></svg>