<svg width="24" height="24" viewBox="0 0 24 24" fill="none" xmlns="http://www.w3.org/2000/svg"><path d="M11.740 3.635 C 11.376 3.730,11.086 3.958,10.933 4.271 L 10.820 4.500 10.808 7.644 L 10.797 10.788 7.643 10.809 L 4.490 10.830 4.241 10.963 C 3.370 11.427,3.411 12.644,4.312 13.087 L 4.500 13.180 7.649 13.191 L 10.797 13.203 10.809 16.351 L 10.820 19.500 10.910 19.682 C 11.180 20.231,11.790 20.511,12.340 20.338 C 12.620 20.250,12.950 19.964,13.086 19.690 L 13.180 19.500 13.191 16.351 L 13.203 13.203 16.351 13.191 L 19.500 13.180 19.688 13.087 C 20.589 12.644,20.630 11.427,19.759 10.963 L 19.510 10.830 16.357 10.809 L 13.203 10.788 13.191 7.644 L 13.180 4.500 13.090 4.318 C 12.965 4.069,12.739 3.845,12.500 3.735 C 12.278 3.633,11.925 3.587,11.740 3.635 " fill="#373B4D" stroke="none" fill-rule="evenodd"></path></svg>