<svg width="24" height="24" viewBox="0 0 24 24" fill="none" xmlns="http://www.w3.org/2000/svg"><path d="M10.780 2.522 C 9.848 2.624,8.586 3.017,7.649 3.498 C 6.239 4.220,4.873 5.459,3.942 6.860 C 3.237 7.919,2.668 9.464,2.501 10.772 C 2.431 11.317,2.420 12.576,2.481 13.081 C 2.696 14.862,3.457 16.662,4.570 18.020 C 4.877 18.396,5.581 19.099,5.937 19.386 C 6.938 20.194,8.256 20.876,9.552 21.258 C 10.154 21.435,10.437 21.479,11.293 21.528 C 12.395 21.591,13.323 21.535,14.020 21.363 C 15.488 21.001,16.913 20.310,18.020 19.422 C 18.626 18.936,19.442 18.067,19.832 17.491 C 20.332 16.753,20.800 15.791,21.123 14.839 C 21.420 13.961,21.478 13.657,21.519 12.742 C 21.551 12.020,21.517 10.595,21.463 10.380 C 21.451 10.336,21.387 10.078,21.320 9.807 C 20.774 7.596,19.537 5.736,17.700 4.361 C 16.366 3.362,14.633 2.668,13.220 2.565 C 12.385 2.504,11.143 2.483,10.780 2.522 M12.397 7.359 C 12.774 7.467,13.014 7.772,13.078 8.227 C 13.119 8.512,13.199 10.031,13.200 10.524 L 13.200 10.789 13.970 10.816 C 15.096 10.856,15.943 10.916,16.069 10.963 C 16.220 11.020,16.508 11.305,16.611 11.500 C 16.735 11.737,16.734 12.231,16.608 12.488 C 16.490 12.726,16.236 12.989,16.047 13.069 C 15.869 13.144,15.055 13.194,13.976 13.198 L 13.212 13.200 13.184 14.010 C 13.136 15.399,13.087 15.959,12.996 16.147 C 12.903 16.341,12.650 16.583,12.457 16.664 C 12.243 16.753,11.702 16.738,11.493 16.636 C 11.317 16.552,11.080 16.310,10.975 16.109 C 10.907 15.979,10.857 15.348,10.817 14.096 L 10.789 13.212 9.524 13.189 C 8.724 13.175,8.187 13.148,8.060 13.116 C 7.900 13.076,7.815 13.020,7.630 12.829 C 7.350 12.539,7.308 12.411,7.326 11.911 C 7.339 11.559,7.350 11.512,7.461 11.354 C 7.751 10.942,7.910 10.904,9.655 10.835 C 10.274 10.810,10.782 10.788,10.785 10.785 C 10.787 10.782,10.810 10.248,10.836 9.597 C 10.861 8.947,10.899 8.309,10.920 8.179 C 10.970 7.875,11.133 7.613,11.376 7.450 C 11.557 7.328,11.591 7.320,11.915 7.320 C 12.105 7.320,12.322 7.338,12.397 7.359 " fill="#373B4D" stroke="none" fill-rule="evenodd"></path></svg>