<svg width="24" height="24" viewBox="0 0 24 24" fill="none" xmlns="http://www.w3.org/2000/svg"><path d="M10.760 2.522 C 10.374 2.561,9.778 2.692,9.213 2.863 C 7.699 3.321,6.431 4.086,5.278 5.239 C 4.146 6.370,3.447 7.473,2.937 8.932 C 2.589 9.928,2.429 10.874,2.427 11.940 C 2.425 12.966,2.541 13.773,2.827 14.720 C 3.603 17.286,5.348 19.360,7.722 20.537 C 8.525 20.935,9.507 21.288,10.181 21.420 C 10.954 21.572,12.804 21.593,13.592 21.458 C 14.060 21.378,14.717 21.191,15.300 20.971 C 17.069 20.304,18.595 19.166,19.682 17.700 C 20.542 16.540,21.320 14.686,21.487 13.400 C 21.553 12.883,21.554 11.041,21.487 10.580 C 21.355 9.662,20.930 8.407,20.452 7.520 C 19.135 5.077,16.774 3.289,14.060 2.676 C 13.604 2.573,13.417 2.554,12.540 2.521 C 11.413 2.478,11.186 2.478,10.760 2.522 M12.501 7.383 C 12.707 7.481,12.909 7.672,12.995 7.850 C 13.093 8.054,13.144 8.603,13.184 9.905 L 13.212 10.790 14.076 10.817 C 14.551 10.833,15.189 10.862,15.494 10.883 C 16.001 10.917,16.063 10.930,16.214 11.032 C 16.305 11.093,16.450 11.245,16.537 11.370 C 16.679 11.577,16.695 11.626,16.711 11.914 C 16.728 12.196,16.718 12.258,16.623 12.466 C 16.472 12.794,16.182 13.060,15.909 13.119 C 15.795 13.143,15.138 13.174,14.451 13.188 L 13.200 13.213 13.199 13.476 C 13.198 14.132,13.117 15.761,13.076 15.957 C 13.040 16.131,12.992 16.215,12.833 16.384 C 12.724 16.499,12.569 16.625,12.489 16.663 C 12.288 16.758,11.761 16.757,11.530 16.662 C 11.312 16.571,10.976 16.206,10.920 15.999 C 10.881 15.855,10.803 14.220,10.801 13.516 L 10.800 13.213 9.437 13.186 C 7.906 13.155,7.962 13.166,7.638 12.842 C 7.340 12.544,7.300 12.442,7.303 12.000 C 7.305 11.695,7.322 11.588,7.389 11.460 C 7.497 11.255,7.700 11.061,7.890 10.982 C 8.070 10.906,8.714 10.854,9.902 10.818 L 10.785 10.791 10.831 9.526 C 10.860 8.715,10.896 8.185,10.932 8.052 C 11.025 7.704,11.335 7.378,11.633 7.316 C 11.836 7.273,12.353 7.313,12.501 7.383 " fill="#373B4D" stroke="none" fill-rule="evenodd"></path></svg>