<svg width="24" height="24" viewBox="0 0 24 24" fill="none" xmlns="http://www.w3.org/2000/svg"><path d="M10.680 2.562 C 9.847 2.629,8.634 3.012,7.629 3.528 C 6.202 4.260,4.700 5.649,3.844 7.030 C 3.150 8.149,2.629 9.657,2.483 10.968 C 2.393 11.782,2.448 13.117,2.601 13.808 C 2.934 15.313,3.521 16.620,4.374 17.760 C 4.745 18.256,5.679 19.189,6.160 19.545 C 7.337 20.416,8.933 21.157,10.160 21.403 C 10.776 21.526,11.996 21.584,12.790 21.528 C 13.767 21.459,14.413 21.305,15.429 20.897 C 17.178 20.195,18.614 19.108,19.703 17.660 C 20.334 16.821,21.026 15.314,21.362 14.047 C 21.467 13.651,21.517 12.929,21.518 11.780 C 21.520 10.756,21.475 10.352,21.285 9.680 C 20.787 7.921,19.954 6.474,18.748 5.274 C 17.986 4.515,17.233 3.978,16.240 3.485 C 15.354 3.044,14.574 2.780,13.756 2.644 C 13.093 2.533,11.552 2.492,10.680 2.562 M12.316 7.363 C 12.600 7.424,12.827 7.602,12.942 7.853 C 13.061 8.114,13.106 8.497,13.165 9.780 C 13.190 10.330,13.213 10.782,13.215 10.785 C 13.218 10.788,13.679 10.811,14.240 10.837 C 15.674 10.903,15.975 10.938,16.189 11.063 C 16.395 11.184,16.583 11.428,16.645 11.656 C 16.702 11.869,16.670 12.304,16.583 12.487 C 16.478 12.709,16.258 12.944,16.070 13.035 C 15.851 13.141,15.117 13.200,14.010 13.200 L 13.200 13.200 13.200 13.390 C 13.200 13.727,13.120 15.249,13.082 15.626 C 13.036 16.096,12.934 16.300,12.612 16.566 C 12.361 16.773,11.707 16.768,11.388 16.557 C 11.188 16.424,11.014 16.196,10.960 15.995 C 10.918 15.839,10.856 14.929,10.817 13.910 L 10.789 13.200 9.925 13.199 C 8.999 13.198,8.158 13.148,7.989 13.083 C 7.833 13.024,7.570 12.771,7.448 12.563 C 7.349 12.395,7.340 12.346,7.343 11.972 C 7.346 11.592,7.354 11.550,7.464 11.372 C 7.552 11.230,7.639 11.153,7.801 11.071 C 8.062 10.940,8.363 10.905,9.800 10.837 C 10.339 10.812,10.782 10.788,10.785 10.785 C 10.788 10.782,10.811 10.312,10.836 9.740 C 10.893 8.469,10.938 8.074,11.052 7.845 C 11.153 7.642,11.403 7.414,11.578 7.363 C 11.751 7.313,12.082 7.313,12.316 7.363 " fill="#373B4D" stroke="none" fill-rule="evenodd"></path></svg>