<svg width="24" height="24" viewBox="0 0 24 24" fill="none" xmlns="http://www.w3.org/2000/svg"><path d="M11.561 6.122 C 11.360 6.207,11.040 6.485,10.932 6.670 L 10.820 6.860 10.808 8.822 L 10.796 10.784 8.799 10.828 C 6.540 10.878,6.704 10.851,6.361 11.223 C 6.103 11.503,6.025 11.715,6.051 12.062 C 6.078 12.410,6.166 12.595,6.427 12.846 C 6.813 13.217,6.692 13.200,8.872 13.200 L 10.787 13.200 10.813 15.168 L 10.839 17.136 10.951 17.317 C 11.088 17.540,11.467 17.851,11.675 17.914 C 11.950 17.996,12.204 17.972,12.473 17.837 C 12.750 17.699,13.055 17.383,13.127 17.160 C 13.157 17.067,13.178 16.375,13.190 15.110 L 13.207 13.200 15.125 13.200 L 17.043 13.200 17.231 13.104 C 17.972 12.727,18.180 11.801,17.652 11.235 C 17.290 10.849,17.465 10.878,15.201 10.828 L 13.205 10.784 13.192 8.842 C 13.179 6.688,13.197 6.834,12.900 6.490 C 12.819 6.396,12.670 6.271,12.569 6.211 C 12.411 6.119,12.331 6.101,12.022 6.092 C 11.823 6.086,11.615 6.099,11.561 6.122 " fill="#373B4D" stroke="none" fill-rule="evenodd"></path></svg>