<svg width="24" height="24" viewBox="0 0 24 24" fill="none" xmlns="http://www.w3.org/2000/svg"><path d="M11.700 6.104 C 11.656 6.114,11.580 6.132,11.532 6.142 C 11.407 6.168,10.969 6.585,10.877 6.765 C 10.804 6.909,10.800 7.018,10.800 8.854 L 10.800 10.791 9.330 10.818 C 7.491 10.852,6.810 10.892,6.650 10.975 C 6.515 11.044,6.227 11.355,6.126 11.540 C 6.038 11.702,6.041 12.243,6.131 12.450 C 6.215 12.645,6.564 13.013,6.753 13.107 C 6.888 13.174,7.055 13.181,8.844 13.192 L 10.787 13.205 10.811 15.158 C 10.837 17.345,10.818 17.212,11.142 17.536 C 11.448 17.842,11.652 17.940,11.980 17.940 C 12.322 17.940,12.556 17.837,12.833 17.565 C 13.181 17.225,13.166 17.326,13.190 15.135 L 13.212 13.200 15.136 13.200 L 17.060 13.199 17.262 13.083 C 17.998 12.661,18.160 11.803,17.618 11.203 C 17.534 11.110,17.413 11.007,17.348 10.974 C 17.190 10.892,16.498 10.852,14.674 10.818 L 13.207 10.791 13.192 8.865 C 13.179 7.177,13.169 6.922,13.111 6.790 C 13.028 6.605,12.708 6.280,12.519 6.191 C 12.378 6.125,11.849 6.068,11.700 6.104 " fill="#373B4D" stroke="none" fill-rule="evenodd"></path></svg>