<svg width="24" height="24" viewBox="0 0 24 24" fill="none" xmlns="http://www.w3.org/2000/svg"><path d="M11.400 6.251 C 11.301 6.327,11.139 6.486,11.041 6.603 L 10.861 6.816 10.834 7.318 C 10.819 7.594,10.805 8.488,10.803 9.304 L 10.800 10.789 10.070 10.816 C 7.805 10.898,7.040 10.950,6.706 11.043 C 6.339 11.145,6.054 11.621,6.088 12.074 C 6.111 12.374,6.213 12.577,6.469 12.829 C 6.807 13.161,6.798 13.160,8.950 13.188 L 10.800 13.213 10.800 14.496 C 10.800 15.922,10.853 16.979,10.934 17.172 C 11.000 17.329,11.290 17.632,11.518 17.784 C 11.666 17.882,11.724 17.895,11.969 17.892 C 12.194 17.888,12.295 17.864,12.473 17.773 C 12.731 17.642,13.016 17.320,13.077 17.091 C 13.149 16.821,13.199 15.766,13.199 14.474 L 13.200 13.209 15.070 13.189 C 16.369 13.176,16.989 13.155,17.100 13.121 C 17.209 13.088,17.346 12.986,17.527 12.802 C 17.838 12.487,17.902 12.321,17.866 11.929 C 17.828 11.522,17.644 11.207,17.356 11.058 C 17.201 10.978,15.823 10.878,13.992 10.815 L 13.204 10.788 13.192 8.838 L 13.180 6.887 13.056 6.734 C 12.988 6.649,12.841 6.505,12.730 6.414 C 12.513 6.237,12.354 6.186,11.860 6.139 C 11.585 6.113,11.577 6.115,11.400 6.251 " fill="#373B4D" stroke="none" fill-rule="evenodd"></path></svg>