<svg width="24" height="24" viewBox="0 0 24 24" fill="none" xmlns="http://www.w3.org/2000/svg"><path d="M10.660 2.601 C 9.835 2.654,8.901 2.934,7.932 3.419 C 6.915 3.928,6.190 4.422,5.524 5.059 C 4.210 6.315,3.506 7.395,2.955 8.996 C 2.612 9.992,2.499 10.606,2.456 11.693 C 2.402 13.057,2.604 14.186,3.137 15.514 C 3.660 16.813,4.230 17.672,5.239 18.681 C 6.113 19.556,6.684 19.967,7.781 20.513 C 8.654 20.948,9.091 21.124,9.682 21.279 C 10.454 21.481,11.004 21.530,12.289 21.509 C 13.385 21.492,13.435 21.487,13.920 21.369 C 16.834 20.654,19.188 18.870,20.433 16.434 C 20.676 15.959,21.082 14.964,21.239 14.460 C 21.392 13.967,21.438 13.640,21.487 12.712 C 21.590 10.728,21.434 9.797,20.732 8.201 C 19.765 6.002,18.098 4.338,15.838 3.317 C 14.934 2.909,14.057 2.676,13.140 2.601 C 12.607 2.557,11.338 2.557,10.660 2.601 M12.541 7.481 C 12.764 7.589,12.936 7.812,12.996 8.071 C 13.051 8.309,13.104 8.912,13.162 9.960 C 13.187 10.411,13.210 10.783,13.214 10.786 C 13.217 10.789,13.616 10.813,14.100 10.838 C 16.055 10.941,16.301 11.008,16.541 11.498 C 16.639 11.700,16.648 11.753,16.632 12.051 C 16.621 12.259,16.588 12.430,16.542 12.517 C 16.434 12.725,16.112 13.018,15.934 13.071 C 15.678 13.148,14.917 13.199,14.035 13.200 L 13.210 13.200 13.183 13.730 C 13.135 14.676,13.079 15.454,13.037 15.740 C 12.932 16.461,12.419 16.837,11.771 16.668 C 11.280 16.539,11.039 16.280,10.964 15.800 C 10.923 15.533,10.864 14.719,10.816 13.750 L 10.789 13.200 10.005 13.199 C 9.108 13.198,8.255 13.144,8.044 13.076 C 7.828 13.006,7.708 12.907,7.536 12.656 L 7.380 12.430 7.380 11.982 C 7.381 11.557,7.387 11.524,7.493 11.363 C 7.734 11.000,8.017 10.945,10.330 10.817 L 10.800 10.790 10.800 10.682 C 10.800 10.020,10.943 8.287,11.020 8.020 C 11.086 7.790,11.270 7.548,11.454 7.452 C 11.723 7.309,12.214 7.322,12.541 7.481 " fill="#373B4D" stroke="none" fill-rule="evenodd"></path></svg>