<svg width="24" height="24" viewBox="0 0 24 24" fill="none" xmlns="http://www.w3.org/2000/svg"><path d="M10.960 2.483 C 10.529 2.522,9.753 2.687,9.175 2.863 C 7.694 3.311,6.417 4.074,5.312 5.171 C 3.805 6.665,2.893 8.403,2.543 10.445 C 2.150 12.732,2.671 15.225,3.947 17.178 C 5.248 19.167,7.063 20.510,9.409 21.217 C 10.384 21.511,10.564 21.534,11.920 21.537 C 13.206 21.540,13.437 21.520,14.160 21.339 C 16.336 20.794,18.255 19.563,19.560 17.875 C 20.466 16.703,21.204 15.049,21.468 13.600 C 21.571 13.039,21.571 10.898,21.468 10.380 C 20.876 7.391,19.104 4.964,16.480 3.550 C 15.484 3.013,14.237 2.625,13.173 2.522 C 12.619 2.469,11.364 2.446,10.960 2.483 M12.505 7.365 C 12.596 7.408,12.738 7.508,12.821 7.588 C 13.084 7.844,13.112 7.957,13.158 8.962 C 13.181 9.456,13.199 10.069,13.200 10.324 L 13.200 10.787 14.350 10.815 C 15.856 10.852,16.024 10.873,16.265 11.045 C 16.393 11.137,16.499 11.264,16.596 11.440 C 16.724 11.674,16.738 11.730,16.737 12.000 C 16.736 12.244,16.716 12.338,16.630 12.505 C 16.491 12.774,16.195 13.066,16.008 13.120 C 15.927 13.143,15.262 13.173,14.530 13.187 L 13.200 13.213 13.197 13.696 C 13.195 13.962,13.181 14.576,13.164 15.060 C 13.140 15.792,13.123 15.963,13.063 16.080 C 12.836 16.518,12.466 16.768,12.044 16.768 C 11.606 16.768,11.272 16.589,11.016 16.216 L 10.870 16.006 10.837 15.133 C 10.819 14.653,10.803 14.024,10.802 13.735 L 10.800 13.210 9.470 13.189 C 8.618 13.175,8.083 13.150,7.983 13.120 C 7.779 13.058,7.431 12.704,7.340 12.466 C 7.289 12.331,7.275 12.196,7.286 11.914 C 7.299 11.568,7.310 11.526,7.431 11.351 C 7.503 11.247,7.643 11.107,7.741 11.039 C 7.973 10.880,8.241 10.849,9.684 10.814 L 10.789 10.787 10.812 9.644 C 10.826 9.015,10.856 8.375,10.879 8.222 C 10.943 7.806,11.118 7.555,11.480 7.358 C 11.707 7.235,12.234 7.238,12.505 7.365 " fill="#373B4D" stroke="none" fill-rule="evenodd"></path></svg>