<svg width="24" height="24" viewBox="0 0 24 24" fill="none" xmlns="http://www.w3.org/2000/svg"><path d="M11.740 3.677 C 11.652 3.692,11.520 3.737,11.446 3.776 C 11.261 3.873,10.982 4.160,10.883 4.355 C 10.801 4.515,10.800 4.561,10.800 7.658 L 10.800 10.800 9.550 10.803 C 8.863 10.804,7.423 10.819,6.350 10.836 L 4.401 10.866 4.184 11.015 C 3.820 11.266,3.640 11.597,3.640 12.015 C 3.640 12.451,3.827 12.755,4.291 13.074 L 4.474 13.200 7.637 13.200 L 10.800 13.200 10.800 16.365 L 10.800 19.530 10.976 19.777 C 11.164 20.040,11.380 20.214,11.628 20.302 C 11.826 20.373,12.248 20.375,12.411 20.306 C 12.587 20.232,12.927 19.918,13.077 19.692 L 13.200 19.506 13.200 16.353 L 13.200 13.200 16.363 13.200 L 19.526 13.200 19.709 13.074 C 20.143 12.775,20.360 12.412,20.360 11.984 C 20.360 11.575,20.191 11.274,19.817 11.016 L 19.599 10.866 17.650 10.836 C 16.577 10.819,15.138 10.804,14.450 10.803 L 13.200 10.800 13.200 7.630 L 13.199 4.460 13.029 4.233 C 12.819 3.954,12.596 3.772,12.405 3.724 C 12.173 3.665,11.912 3.647,11.740 3.677 " fill="#373B4D" stroke="none" fill-rule="evenodd"></path></svg>