<svg width="24" height="24" viewBox="0 0 24 24" fill="none" xmlns="http://www.w3.org/2000/svg"><path d="M11.608 3.717 C 11.470 3.752,11.409 3.795,11.127 4.059 C 10.797 4.366,10.823 4.077,10.807 7.630 L 10.793 10.800 10.046 10.801 C 8.674 10.803,4.552 10.878,4.415 10.904 C 4.237 10.937,3.927 11.217,3.791 11.467 C 3.497 12.008,3.655 12.568,4.230 13.019 L 4.460 13.200 7.630 13.200 L 10.800 13.200 10.800 16.363 L 10.800 19.526 10.917 19.695 C 11.076 19.927,11.334 20.152,11.555 20.254 C 11.793 20.363,12.278 20.372,12.464 20.271 C 12.621 20.186,12.913 19.904,13.076 19.680 L 13.200 19.508 13.200 16.354 L 13.200 13.200 16.372 13.200 L 19.544 13.200 19.779 13.010 C 20.079 12.767,20.262 12.499,20.321 12.217 C 20.416 11.758,20.270 11.393,19.855 11.057 L 19.649 10.890 18.715 10.865 C 18.201 10.852,16.750 10.829,15.490 10.815 L 13.200 10.790 13.200 7.603 L 13.200 4.416 12.930 4.134 C 12.782 3.979,12.598 3.820,12.523 3.781 C 12.367 3.701,11.820 3.663,11.608 3.717 " fill="#373B4D" stroke="none" fill-rule="evenodd"></path></svg>