<svg width="24" height="24" viewBox="0 0 24 24" fill="none" xmlns="http://www.w3.org/2000/svg"><path d="M10.800 2.560 C 9.246 2.685,7.471 3.441,6.040 4.585 C 5.599 4.937,4.771 5.770,4.440 6.194 C 3.480 7.422,2.855 8.853,2.533 10.560 C 2.444 11.034,2.431 12.733,2.513 13.300 C 2.652 14.269,3.083 15.571,3.565 16.480 C 3.987 17.275,4.415 17.854,5.100 18.555 C 6.022 19.499,6.625 19.943,7.760 20.518 C 9.182 21.237,10.130 21.486,11.668 21.544 C 12.869 21.589,13.772 21.467,14.800 21.121 C 16.055 20.698,17.043 20.168,18.000 19.405 C 19.520 18.193,20.455 16.796,21.163 14.680 C 21.468 13.769,21.494 13.558,21.497 12.000 C 21.500 10.529,21.486 10.391,21.255 9.591 C 20.689 7.634,19.633 5.982,18.143 4.724 C 16.822 3.609,14.953 2.773,13.400 2.604 C 12.865 2.546,11.301 2.519,10.800 2.560 M12.539 7.458 C 12.762 7.567,12.918 7.752,12.995 8.000 C 13.061 8.212,13.111 8.760,13.162 9.820 C 13.188 10.348,13.211 10.782,13.214 10.786 C 13.218 10.789,13.652 10.812,14.180 10.837 C 15.573 10.904,15.900 10.941,16.150 11.063 C 16.628 11.297,16.811 11.940,16.560 12.509 C 16.450 12.758,16.163 13.020,15.935 13.077 C 15.622 13.156,14.987 13.197,14.070 13.199 L 13.200 13.200 13.200 13.383 C 13.200 13.711,13.120 15.129,13.077 15.555 C 13.051 15.812,13.005 16.036,12.954 16.143 C 12.850 16.366,12.571 16.622,12.374 16.677 C 11.999 16.781,11.535 16.686,11.275 16.450 C 11.040 16.239,10.965 16.060,10.921 15.611 C 10.883 15.222,10.800 13.694,10.800 13.378 L 10.800 13.211 9.590 13.186 C 8.925 13.173,8.285 13.144,8.169 13.123 C 7.912 13.076,7.690 12.912,7.497 12.625 C 7.361 12.423,7.360 12.417,7.360 11.977 C 7.360 11.545,7.364 11.527,7.481 11.365 C 7.760 10.980,8.003 10.926,9.840 10.837 C 10.357 10.812,10.783 10.789,10.786 10.786 C 10.789 10.783,10.812 10.339,10.838 9.800 C 10.901 8.455,10.942 8.106,11.064 7.852 C 11.174 7.623,11.412 7.408,11.613 7.356 C 11.849 7.295,12.310 7.346,12.539 7.458 " fill="#373B4D" stroke="none" fill-rule="evenodd"></path></svg>