<svg width="24" height="24" viewBox="0 0 24 24" fill="none" xmlns="http://www.w3.org/2000/svg"><path d="M11.740 6.079 C 11.521 6.114,11.343 6.215,11.138 6.419 C 10.784 6.774,10.800 6.657,10.800 8.858 L 10.800 10.800 10.070 10.802 C 9.668 10.803,8.767 10.819,8.067 10.837 L 6.794 10.871 6.578 11.019 C 6.353 11.175,6.156 11.430,6.077 11.668 C 6.014 11.861,6.048 12.307,6.141 12.500 C 6.239 12.704,6.503 12.968,6.726 13.087 L 6.900 13.180 8.844 13.191 L 10.788 13.203 10.813 15.131 C 10.827 16.192,10.850 17.111,10.865 17.173 C 10.903 17.339,11.291 17.738,11.530 17.857 C 11.975 18.079,12.493 17.960,12.862 17.549 C 13.201 17.172,13.178 17.338,13.192 15.151 L 13.205 13.203 15.152 13.191 L 17.100 13.180 17.275 13.087 C 17.717 12.851,17.980 12.397,17.952 11.920 C 17.927 11.514,17.753 11.235,17.359 10.974 L 17.202 10.871 15.951 10.837 C 15.263 10.819,14.363 10.803,13.950 10.802 L 13.200 10.800 13.200 8.938 C 13.200 7.673,13.185 7.017,13.154 6.894 C 13.098 6.669,12.753 6.281,12.508 6.167 C 12.320 6.079,11.983 6.041,11.740 6.079 " fill="#373B4D" stroke="none" fill-rule="evenodd"></path></svg>