<svg width="24" height="24" viewBox="0 0 24 24" fill="none" xmlns="http://www.w3.org/2000/svg"><path d="M11.520 3.743 C 11.358 3.813,10.984 4.165,10.887 4.340 C 10.826 4.449,10.819 4.754,10.809 7.623 L 10.798 10.785 7.604 10.826 C 4.440 10.867,4.409 10.868,4.271 10.953 C 4.012 11.113,3.770 11.412,3.697 11.663 C 3.536 12.219,3.738 12.690,4.307 13.084 L 4.474 13.200 7.637 13.200 L 10.800 13.200 10.800 16.363 L 10.800 19.526 10.918 19.698 C 11.243 20.169,11.657 20.389,12.147 20.349 C 12.367 20.332,12.430 20.307,12.623 20.162 C 12.745 20.069,12.925 19.885,13.022 19.753 L 13.200 19.511 13.200 16.356 L 13.200 13.200 16.364 13.200 L 19.528 13.200 19.654 13.114 C 19.888 12.954,20.126 12.701,20.233 12.500 C 20.375 12.231,20.385 11.747,20.253 11.498 C 20.154 11.312,19.967 11.116,19.749 10.969 L 19.597 10.867 16.399 10.826 L 13.200 10.785 13.200 7.613 L 13.200 4.441 12.987 4.190 C 12.748 3.909,12.577 3.780,12.365 3.721 C 12.151 3.661,11.681 3.674,11.520 3.743 " fill="#373B4D" stroke="none" fill-rule="evenodd"></path></svg>