<svg width="24" height="24" viewBox="0 0 24 24" fill="none" xmlns="http://www.w3.org/2000/svg"><path d="M10.380 2.584 C 9.146 2.805,7.814 3.332,6.818 3.994 C 5.607 4.798,4.441 6.012,3.731 7.210 C 3.095 8.282,2.595 9.799,2.477 11.017 C 2.416 11.644,2.450 13.022,2.538 13.500 C 2.834 15.098,3.464 16.562,4.384 17.783 C 4.692 18.193,5.413 18.941,5.860 19.314 C 6.955 20.230,8.796 21.132,10.113 21.398 C 10.966 21.570,12.647 21.601,13.520 21.460 C 14.869 21.242,16.569 20.504,17.751 19.625 C 18.512 19.058,19.458 18.066,19.930 17.340 C 20.536 16.406,21.175 14.903,21.408 13.860 C 21.477 13.553,21.492 13.309,21.509 12.193 C 21.531 10.702,21.515 10.522,21.278 9.660 C 20.383 6.398,18.040 3.934,14.858 2.907 C 14.259 2.714,13.727 2.612,13.060 2.562 C 12.253 2.502,10.772 2.514,10.380 2.584 M12.368 7.365 C 12.659 7.427,12.925 7.688,13.016 8.000 C 13.085 8.239,13.141 8.927,13.184 10.065 L 13.211 10.790 13.916 10.817 C 14.957 10.857,15.839 10.919,16.014 10.965 C 16.206 11.015,16.490 11.274,16.598 11.496 C 16.718 11.744,16.712 12.229,16.586 12.501 C 16.466 12.757,16.135 13.061,15.933 13.099 C 15.627 13.156,14.833 13.198,14.035 13.199 L 13.210 13.200 13.183 13.970 C 13.153 14.815,13.098 15.654,13.056 15.918 C 13.021 16.136,12.828 16.418,12.606 16.576 C 12.439 16.695,12.416 16.700,12.026 16.700 C 11.656 16.700,11.604 16.690,11.434 16.591 C 11.221 16.466,11.012 16.221,10.959 16.036 C 10.912 15.872,10.850 14.989,10.816 13.990 L 10.789 13.200 9.965 13.198 C 8.859 13.195,8.087 13.146,7.937 13.069 C 7.872 13.035,7.726 12.910,7.613 12.789 C 7.354 12.516,7.302 12.346,7.333 11.863 C 7.353 11.552,7.371 11.485,7.473 11.343 C 7.624 11.132,7.796 11.016,8.036 10.965 C 8.258 10.917,9.111 10.857,10.105 10.818 L 10.790 10.791 10.817 10.106 C 10.876 8.579,10.918 8.114,11.015 7.900 C 11.114 7.683,11.283 7.501,11.489 7.390 C 11.641 7.308,12.045 7.296,12.368 7.365 " fill="#373B4D" stroke="none" fill-rule="evenodd"></path></svg>