<svg width="24" height="24" viewBox="0 0 24 24" fill="none" xmlns="http://www.w3.org/2000/svg"><path d="M11.274 3.952 C 11.073 4.111,10.954 4.238,10.922 4.326 C 10.846 4.534,10.804 5.997,10.802 8.510 L 10.800 10.800 10.430 10.800 C 9.736 10.800,5.942 10.883,5.151 10.916 C 4.389 10.947,4.356 10.952,4.201 11.055 C 3.890 11.260,3.672 11.649,3.669 12.000 C 3.667 12.293,3.804 12.558,4.145 12.920 L 4.410 13.200 7.605 13.200 L 10.800 13.200 10.800 16.376 L 10.800 19.551 10.950 19.733 C 11.272 20.122,11.631 20.320,12.015 20.320 C 12.369 20.319,12.515 20.255,12.787 19.977 C 13.219 19.537,13.178 19.902,13.192 16.330 L 13.203 13.200 16.390 13.200 L 19.577 13.200 19.840 12.930 C 20.190 12.571,20.300 12.345,20.300 11.980 C 20.300 11.633,20.227 11.475,19.914 11.140 L 19.683 10.893 17.651 10.866 C 16.534 10.852,15.075 10.828,14.410 10.813 L 13.200 10.787 13.200 7.600 L 13.200 4.412 12.970 4.193 C 12.553 3.796,12.455 3.749,11.987 3.728 L 11.577 3.710 11.274 3.952 " fill="#373B4D" stroke="none" fill-rule="evenodd"></path></svg>