<svg width="24" height="24" viewBox="0 0 24 24" fill="none" xmlns="http://www.w3.org/2000/svg"><path d="M11.243 6.385 C 11.081 6.535,10.919 6.722,10.884 6.799 C 10.829 6.921,10.818 7.202,10.808 8.870 L 10.796 10.800 10.528 10.800 C 10.084 10.800,8.144 10.877,7.460 10.921 C 6.727 10.969,6.586 11.016,6.326 11.298 C 6.140 11.500,6.081 11.679,6.080 12.037 C 6.080 12.371,6.179 12.576,6.468 12.840 C 6.843 13.183,6.687 13.160,8.861 13.188 L 10.800 13.213 10.801 14.536 C 10.802 15.795,10.842 16.814,10.904 17.120 C 10.943 17.312,11.400 17.763,11.654 17.860 C 11.879 17.946,12.188 17.925,12.447 17.808 C 12.670 17.707,12.950 17.432,13.043 17.224 C 13.146 16.990,13.200 16.051,13.200 14.496 L 13.200 13.211 15.114 13.192 C 16.988 13.173,17.032 13.171,17.211 13.085 C 17.436 12.975,17.700 12.695,17.811 12.447 C 18.048 11.914,17.744 11.136,17.246 11.002 C 17.033 10.944,16.237 10.895,14.593 10.836 L 13.206 10.786 13.193 8.840 L 13.180 6.893 13.066 6.728 C 12.930 6.533,12.578 6.251,12.409 6.202 C 12.343 6.184,12.120 6.155,11.914 6.140 L 11.539 6.112 11.243 6.385 " fill="#373B4D" stroke="none" fill-rule="evenodd"></path></svg>