<svg width="24" height="24" viewBox="0 0 24 24" fill="none" xmlns="http://www.w3.org/2000/svg"><path d="M11.540 3.024 C 10.626 3.115,9.754 3.310,9.138 3.561 C 7.031 4.418,5.376 6.061,4.588 8.080 C 3.524 10.805,3.959 13.803,5.754 16.120 C 6.012 16.452,10.395 20.866,11.177 21.580 L 11.571 21.940 11.920 21.954 C 12.209 21.965,12.295 21.954,12.427 21.887 C 12.761 21.716,13.041 21.250,13.039 20.868 C 13.037 20.485,13.051 20.501,10.360 17.760 C 7.878 15.231,7.428 14.753,7.177 14.376 C 6.916 13.985,6.648 13.428,6.483 12.937 C 6.267 12.289,6.240 12.082,6.240 11.042 C 6.240 10.149,6.247 10.064,6.342 9.694 C 6.625 8.604,7.118 7.736,7.903 6.947 C 8.404 6.444,8.857 6.119,9.500 5.799 C 10.124 5.490,10.603 5.336,11.140 5.273 C 11.608 5.218,13.062 5.259,13.367 5.335 C 15.036 5.751,16.455 6.858,17.175 8.305 C 17.394 8.747,17.589 9.292,17.662 9.667 C 17.743 10.086,17.782 11.576,17.723 12.020 C 17.658 12.512,17.391 13.292,17.018 14.076 C 16.673 14.803,16.633 14.977,16.734 15.324 C 16.851 15.727,17.094 15.954,17.529 16.067 C 17.763 16.128,17.796 16.128,18.014 16.064 C 18.326 15.973,18.583 15.729,18.838 15.284 C 19.343 14.400,19.698 13.416,19.885 12.380 C 20.013 11.670,20.013 10.389,19.884 9.660 C 19.569 7.872,18.826 6.443,17.595 5.259 C 16.381 4.090,14.830 3.334,13.177 3.104 C 12.721 3.041,11.816 2.996,11.540 3.024 M11.400 7.425 C 10.613 7.576,9.940 7.939,9.397 8.506 C 8.702 9.231,8.357 10.073,8.356 11.040 C 8.355 11.569,8.421 11.927,8.613 12.438 C 8.814 12.973,8.962 13.185,9.644 13.913 C 10.581 14.913,14.274 18.602,14.476 18.740 C 14.633 18.846,14.692 18.861,14.996 18.873 C 15.297 18.884,15.363 18.874,15.520 18.790 C 15.878 18.600,16.159 18.073,16.098 17.709 C 16.035 17.330,16.026 17.320,13.101 14.360 C 11.421 12.661,10.892 12.097,10.693 11.797 C 10.583 11.631,10.580 11.610,10.580 11.103 C 10.580 10.600,10.584 10.572,10.697 10.369 C 10.840 10.110,11.122 9.841,11.393 9.703 C 11.576 9.611,11.643 9.600,12.040 9.600 C 12.450 9.600,12.499 9.609,12.711 9.717 C 13.001 9.864,13.286 10.157,13.417 10.440 C 13.515 10.651,13.519 10.691,13.520 11.412 C 13.520 12.073,13.529 12.181,13.597 12.314 C 13.916 12.939,14.791 13.110,15.273 12.642 C 15.758 12.171,15.896 10.958,15.577 9.971 C 15.246 8.952,14.648 8.266,13.653 7.766 C 13.115 7.496,12.834 7.433,12.120 7.419 C 11.779 7.412,11.455 7.415,11.400 7.425 " fill="#373B4D" stroke="none" fill-rule="evenodd"></path></svg>