<svg width="24" height="24" viewBox="0 0 24 24" fill="none" xmlns="http://www.w3.org/2000/svg"><path d="M11.160 3.063 C 10.536 3.137,9.818 3.298,9.360 3.468 C 7.163 4.281,5.412 5.969,4.585 8.070 C 3.510 10.805,3.963 13.858,5.790 16.176 C 6.157 16.642,11.368 21.830,11.547 21.908 C 11.754 21.998,12.213 21.995,12.407 21.904 C 12.875 21.681,13.141 21.087,12.993 20.594 C 12.930 20.382,12.717 20.153,10.382 17.780 C 7.713 15.068,7.413 14.751,7.184 14.406 C 6.782 13.801,6.458 13.025,6.294 12.280 C 6.234 12.003,6.220 11.772,6.221 11.040 C 6.222 10.193,6.229 10.115,6.331 9.720 C 6.626 8.578,7.107 7.729,7.918 6.917 C 8.756 6.078,9.747 5.539,10.893 5.297 C 11.284 5.215,12.817 5.218,13.224 5.302 C 15.115 5.693,16.776 7.085,17.405 8.808 C 17.707 9.634,17.730 9.769,17.750 10.868 C 17.765 11.701,17.756 11.934,17.702 12.208 C 17.591 12.759,17.345 13.430,17.004 14.113 C 16.699 14.722,16.680 14.774,16.683 15.010 C 16.689 15.464,16.890 15.800,17.266 15.985 C 17.770 16.232,18.280 16.096,18.632 15.620 C 18.875 15.292,19.361 14.282,19.556 13.700 C 20.157 11.907,20.137 9.937,19.500 8.176 C 18.461 5.308,15.815 3.310,12.700 3.042 C 12.093 2.990,11.738 2.995,11.160 3.063 M11.580 7.404 C 10.828 7.474,10.063 7.838,9.488 8.398 C 8.268 9.589,7.999 11.315,8.793 12.860 C 8.955 13.175,9.065 13.311,9.675 13.953 C 10.058 14.355,11.273 15.591,12.375 16.699 C 13.786 18.116,14.433 18.739,14.559 18.802 C 14.771 18.907,15.174 18.927,15.415 18.844 C 15.744 18.730,16.043 18.335,16.103 17.934 C 16.119 17.829,16.104 17.686,16.063 17.544 C 15.985 17.276,15.926 17.213,13.080 14.340 C 11.225 12.468,10.770 11.978,10.625 11.692 C 10.576 11.595,10.560 11.449,10.560 11.093 C 10.560 10.658,10.569 10.604,10.670 10.403 C 10.816 10.114,11.086 9.847,11.380 9.701 C 11.600 9.592,11.656 9.582,12.040 9.581 C 12.424 9.580,12.480 9.590,12.699 9.697 C 13.004 9.847,13.274 10.117,13.422 10.421 C 13.546 10.677,13.559 10.853,13.516 11.780 C 13.501 12.112,13.509 12.156,13.609 12.348 C 13.920 12.936,14.737 13.101,15.249 12.678 C 15.699 12.308,15.887 11.130,15.645 10.197 C 15.355 9.076,14.692 8.262,13.660 7.758 C 12.999 7.435,12.376 7.329,11.580 7.404 " fill="#373B4D" stroke="none" fill-rule="evenodd"></path></svg>