<svg width="24" height="24" viewBox="0 0 24 24" fill="none" xmlns="http://www.w3.org/2000/svg"><path d="M11.188 3.082 C 10.698 3.126,9.918 3.296,9.431 3.465 C 8.657 3.734,7.672 4.286,7.000 4.829 C 6.561 5.183,5.820 5.966,5.512 6.401 C 4.140 8.338,3.686 10.801,4.279 13.096 C 4.568 14.213,5.071 15.234,5.761 16.100 C 5.902 16.276,7.261 17.667,8.781 19.190 L 11.546 21.960 11.889 21.960 C 12.184 21.960,12.260 21.945,12.442 21.850 C 12.802 21.661,13.083 21.128,13.022 20.746 C 12.976 20.456,12.888 20.357,10.260 17.659 C 8.279 15.626,7.620 14.930,7.340 14.580 C 7.073 14.246,6.623 13.353,6.433 12.780 L 6.301 12.380 6.300 11.080 L 6.300 9.780 6.458 9.320 C 6.654 8.751,6.960 8.141,7.267 7.711 C 7.606 7.235,8.308 6.544,8.757 6.245 C 9.456 5.780,10.296 5.422,10.943 5.315 C 11.327 5.251,12.587 5.252,13.107 5.316 C 14.333 5.467,15.809 6.380,16.660 7.514 C 17.172 8.195,17.591 9.179,17.677 9.900 C 17.700 10.098,17.720 10.668,17.720 11.166 C 17.720 12.351,17.676 12.536,17.039 14.020 C 16.685 14.844,16.648 14.982,16.713 15.230 C 16.827 15.664,17.107 15.945,17.535 16.057 C 17.809 16.128,18.065 16.077,18.323 15.898 C 18.784 15.579,19.397 14.319,19.748 12.971 L 19.934 12.260 19.951 11.255 C 19.970 10.105,19.927 9.692,19.703 8.872 C 19.314 7.456,18.682 6.357,17.680 5.359 C 15.980 3.666,13.683 2.861,11.188 3.082 M11.106 7.501 C 10.823 7.572,10.278 7.823,10.013 8.003 C 9.736 8.192,9.221 8.699,9.015 8.986 C 8.799 9.288,8.549 9.814,8.462 10.149 C 8.370 10.507,8.339 11.200,8.397 11.598 C 8.453 11.981,8.628 12.505,8.825 12.882 C 8.904 13.035,9.140 13.344,9.388 13.622 C 10.004 14.313,14.263 18.563,14.500 18.723 C 14.668 18.836,14.744 18.861,14.972 18.874 C 15.326 18.894,15.542 18.812,15.760 18.575 C 16.101 18.206,16.186 17.769,15.986 17.426 C 15.828 17.158,15.294 16.583,13.637 14.900 C 11.685 12.918,11.116 12.323,10.833 11.967 L 10.600 11.675 10.600 11.105 C 10.600 10.548,10.602 10.532,10.714 10.358 C 10.858 10.133,11.177 9.835,11.404 9.714 C 11.561 9.630,11.632 9.620,12.060 9.622 C 12.513 9.623,12.551 9.629,12.731 9.736 C 13.001 9.895,13.257 10.157,13.380 10.399 C 13.478 10.593,13.487 10.657,13.517 11.393 C 13.554 12.276,13.581 12.385,13.822 12.596 C 14.260 12.981,14.939 12.990,15.287 12.615 C 15.659 12.216,15.844 11.295,15.703 10.549 C 15.623 10.124,15.442 9.595,15.252 9.231 C 14.909 8.575,14.012 7.859,13.177 7.577 C 12.886 7.478,12.799 7.468,12.100 7.455 C 11.522 7.445,11.284 7.455,11.106 7.501 " fill="#373B4D" stroke="none" fill-rule="evenodd"></path></svg>