<svg width="24" height="24" viewBox="0 0 24 24" fill="none" xmlns="http://www.w3.org/2000/svg"><path d="M11.460 3.026 C 11.394 3.034,11.171 3.060,10.964 3.084 C 8.746 3.341,6.591 4.705,5.310 6.660 C 4.420 8.020,3.951 9.717,4.013 11.360 C 4.082 13.195,4.716 14.879,5.860 16.260 C 6.269 16.754,11.316 21.794,11.500 21.893 C 11.718 22.009,12.190 22.013,12.420 21.900 C 12.948 21.641,13.191 20.984,12.949 20.469 C 12.880 20.322,12.263 19.675,10.248 17.641 C 8.812 16.190,7.558 14.907,7.463 14.790 C 6.883 14.078,6.466 13.167,6.274 12.189 C 6.159 11.606,6.152 10.656,6.257 10.060 C 6.673 7.726,8.419 5.877,10.726 5.330 C 11.143 5.231,11.249 5.222,12.020 5.221 C 12.683 5.220,12.932 5.235,13.200 5.293 C 15.301 5.741,16.949 7.212,17.534 9.160 C 17.746 9.867,17.780 10.122,17.780 11.020 C 17.780 11.747,17.767 11.919,17.687 12.295 C 17.559 12.892,17.355 13.461,17.090 13.960 C 16.655 14.779,16.670 14.742,16.670 15.013 C 16.670 15.952,17.748 16.458,18.444 15.846 C 18.783 15.547,19.392 14.314,19.659 13.384 C 20.234 11.381,20.073 9.285,19.204 7.460 C 18.030 4.992,15.577 3.307,12.774 3.041 C 12.365 3.002,11.726 2.995,11.460 3.026 M11.349 7.421 C 10.542 7.574,9.786 8.013,9.249 8.640 C 8.836 9.123,8.569 9.653,8.413 10.300 C 8.304 10.751,8.323 11.519,8.454 12.018 C 8.572 12.465,8.805 12.964,9.044 13.285 C 9.132 13.403,10.364 14.673,11.781 16.106 C 13.741 18.088,14.405 18.735,14.550 18.806 C 14.810 18.934,15.266 18.937,15.502 18.812 C 16.038 18.529,16.260 17.873,15.997 17.353 C 15.938 17.237,15.071 16.337,13.358 14.616 C 10.386 11.629,10.541 11.821,10.540 11.100 C 10.540 10.707,10.551 10.636,10.646 10.433 C 11.091 9.484,12.323 9.248,13.098 9.962 C 13.453 10.289,13.643 10.852,13.559 11.322 C 13.473 11.801,13.468 11.984,13.536 12.189 C 13.794 12.964,14.818 13.178,15.365 12.572 C 15.633 12.275,15.786 11.597,15.748 10.880 C 15.689 9.794,15.144 8.765,14.281 8.111 C 13.940 7.853,13.380 7.580,12.980 7.477 C 12.555 7.367,11.775 7.340,11.349 7.421 " fill="#373B4D" stroke="none" fill-rule="evenodd"></path></svg>