<svg width="24" height="24" viewBox="0 0 24 24" fill="none" xmlns="http://www.w3.org/2000/svg"><path d="M10.740 3.137 C 9.795 3.303,9.222 3.490,8.451 3.885 C 6.855 4.701,5.586 5.983,4.836 7.535 C 4.224 8.804,3.931 10.303,4.038 11.626 C 4.161 13.149,4.608 14.437,5.444 15.679 C 5.737 16.113,5.943 16.338,7.495 17.914 C 9.086 19.530,10.887 21.314,11.388 21.770 L 11.597 21.960 11.932 21.960 C 12.206 21.960,12.300 21.943,12.444 21.867 C 12.869 21.643,13.151 20.977,12.985 20.589 C 12.892 20.371,12.490 19.939,10.301 17.700 C 7.966 15.312,7.438 14.750,7.197 14.396 C 6.847 13.880,6.479 13.038,6.335 12.420 C 6.272 12.150,6.260 11.935,6.260 11.040 C 6.260 10.007,6.263 9.970,6.369 9.600 C 6.689 8.478,7.206 7.622,8.051 6.815 C 8.484 6.400,8.920 6.098,9.500 5.809 C 10.523 5.300,11.193 5.186,12.646 5.276 C 13.277 5.314,13.397 5.334,13.776 5.458 C 15.572 6.046,16.946 7.402,17.517 9.151 C 17.683 9.657,17.726 10.046,17.734 11.080 C 17.739 11.835,17.728 12.032,17.665 12.300 C 17.555 12.771,17.347 13.343,17.041 14.021 C 16.653 14.878,16.628 14.990,16.746 15.355 C 16.868 15.734,17.147 15.974,17.585 16.077 C 17.957 16.165,18.350 15.976,18.652 15.567 C 18.865 15.277,19.263 14.478,19.459 13.946 C 19.637 13.462,19.857 12.617,19.923 12.160 C 19.996 11.653,19.985 10.268,19.904 9.782 C 19.547 7.645,18.574 5.977,16.938 4.698 C 15.823 3.826,14.375 3.239,12.952 3.083 C 12.289 3.010,11.332 3.033,10.740 3.137 M10.869 7.576 C 10.322 7.764,9.891 8.032,9.481 8.440 C 8.958 8.959,8.641 9.491,8.457 10.157 C 8.357 10.519,8.336 11.359,8.418 11.761 C 8.511 12.226,8.753 12.824,8.970 13.127 C 9.251 13.521,10.216 14.526,12.445 16.746 C 14.738 19.029,14.577 18.902,15.140 18.874 C 15.385 18.861,15.447 18.842,15.601 18.729 C 15.957 18.466,16.168 17.992,16.081 17.646 C 15.996 17.309,15.786 17.076,13.318 14.580 C 11.764 13.009,11.007 12.213,10.776 11.906 L 10.600 11.672 10.600 11.102 L 10.600 10.532 10.758 10.287 C 10.940 10.006,11.317 9.706,11.573 9.636 C 11.666 9.612,11.919 9.598,12.143 9.607 C 12.519 9.621,12.561 9.631,12.777 9.761 C 13.047 9.923,13.278 10.169,13.408 10.434 C 13.492 10.604,13.502 10.689,13.520 11.420 C 13.542 12.297,13.554 12.346,13.807 12.588 C 14.015 12.788,14.296 12.897,14.600 12.897 C 15.189 12.897,15.549 12.487,15.703 11.640 C 15.770 11.272,15.773 11.019,15.717 10.615 C 15.639 10.053,15.352 9.309,15.063 8.920 C 14.590 8.284,13.636 7.648,12.927 7.498 C 12.756 7.462,12.409 7.441,11.960 7.441 C 11.269 7.441,11.255 7.442,10.869 7.576 " fill="#373B4D" stroke="none" fill-rule="evenodd"></path></svg>