<svg width="24" height="24" viewBox="0 0 24 24" fill="none" xmlns="http://www.w3.org/2000/svg"><path d="M3.860 3.634 C 3.248 3.659,3.211 3.665,3.005 3.779 C 2.474 4.073,2.257 4.756,2.520 5.300 C 2.687 5.646,3.081 5.941,3.439 5.989 L 3.597 6.010 3.609 11.035 L 3.620 16.060 3.728 16.355 C 3.981 17.048,4.556 17.623,5.245 17.871 L 5.540 17.977 7.313 17.991 L 9.087 18.005 8.252 18.853 C 7.288 19.831,7.223 19.928,7.221 20.400 C 7.220 20.755,7.314 20.985,7.565 21.235 C 7.814 21.485,8.045 21.580,8.400 21.580 C 8.896 21.580,8.913 21.567,10.549 19.946 L 12.000 18.508 13.450 19.946 C 15.085 21.567,15.102 21.580,15.600 21.580 C 15.955 21.580,16.186 21.485,16.435 21.235 C 16.686 20.985,16.780 20.755,16.779 20.400 C 16.777 19.931,16.713 19.836,15.750 18.856 L 14.914 18.005 16.687 17.991 L 18.460 17.977 18.755 17.871 C 19.444 17.623,20.019 17.048,20.272 16.355 L 20.380 16.060 20.391 11.035 L 20.403 6.010 20.551 5.990 C 20.773 5.960,21.059 5.812,21.235 5.635 C 21.806 5.065,21.673 4.143,20.965 3.766 L 20.722 3.637 12.611 3.623 C 8.150 3.615,4.212 3.620,3.860 3.634 M17.349 7.365 C 17.780 7.571,17.960 7.888,17.960 8.443 C 17.960 8.738,17.953 8.762,17.792 9.005 C 17.613 9.275,14.343 12.598,13.188 13.685 C 12.622 14.217,12.532 14.286,12.331 14.344 C 12.052 14.425,11.748 14.400,11.488 14.274 C 11.361 14.213,11.027 13.914,10.451 13.346 L 9.601 12.509 8.747 13.347 C 7.761 14.317,7.665 14.380,7.200 14.379 C 6.712 14.378,6.363 14.161,6.140 13.720 C 6.057 13.556,6.040 13.466,6.040 13.191 C 6.041 12.894,6.054 12.838,6.165 12.643 C 6.298 12.411,7.913 10.744,8.597 10.132 C 9.114 9.669,9.200 9.629,9.656 9.646 C 9.995 9.659,10.034 9.669,10.220 9.798 C 10.330 9.874,10.775 10.286,11.209 10.714 L 11.999 11.491 14.061 9.446 C 15.195 8.321,16.179 7.372,16.247 7.336 C 16.560 7.174,16.972 7.185,17.349 7.365 " fill="#373B4D" stroke="none" fill-rule="evenodd"></path></svg>