<svg width="24" height="24" viewBox="0 0 24 24" fill="none" xmlns="http://www.w3.org/2000/svg"><path d="M9.720 3.722 C 3.863 3.754,3.221 3.769,2.973 3.879 C 2.780 3.964,2.637 4.158,2.520 4.492 C 2.420 4.774,2.420 4.933,2.519 5.150 C 2.646 5.430,2.790 5.586,3.141 5.824 C 3.464 6.044,3.475 6.056,3.496 6.235 C 3.509 6.337,3.539 8.616,3.563 11.300 L 3.608 16.180 3.751 16.418 C 3.952 16.749,4.434 17.312,4.666 17.484 C 5.287 17.947,5.345 17.958,7.331 17.996 C 8.228 18.014,8.972 18.039,8.986 18.052 C 8.999 18.066,8.757 18.343,8.447 18.668 C 7.489 19.676,7.280 19.982,7.280 20.372 C 7.280 20.960,7.729 21.463,8.326 21.544 C 8.771 21.605,9.214 21.254,11.308 19.185 L 11.995 18.505 12.893 19.387 C 14.105 20.577,14.889 21.291,15.131 21.422 C 15.532 21.640,16.027 21.540,16.402 21.164 C 16.651 20.913,16.740 20.691,16.731 20.335 C 16.723 19.997,16.580 19.780,15.822 18.960 C 15.241 18.331,15.027 18.079,15.053 18.053 C 15.067 18.039,15.758 18.013,16.589 17.995 C 17.420 17.977,18.226 17.943,18.380 17.920 C 18.535 17.897,18.772 17.824,18.911 17.756 C 19.265 17.584,19.812 17.053,20.136 16.566 L 20.393 16.180 20.417 12.900 C 20.430 11.096,20.452 8.814,20.466 7.829 L 20.492 6.039 20.728 5.913 C 21.033 5.750,21.303 5.511,21.403 5.313 C 21.510 5.104,21.546 4.696,21.478 4.454 C 21.439 4.312,21.356 4.191,21.148 3.972 L 20.870 3.680 17.885 3.687 C 16.243 3.691,12.569 3.706,9.720 3.722 M16.100 7.459 C 16.255 7.534,16.447 7.654,16.529 7.727 L 16.677 7.860 16.704 10.707 L 16.731 13.554 16.605 13.727 C 16.430 13.968,16.048 14.275,15.888 14.305 C 15.814 14.319,15.621 14.322,15.459 14.311 C 15.196 14.294,15.144 14.277,14.972 14.145 C 14.645 13.896,14.599 13.795,14.559 13.253 C 14.541 12.993,14.503 11.704,14.476 10.388 L 14.426 7.997 14.643 7.775 C 14.928 7.484,15.057 7.394,15.278 7.333 C 15.530 7.263,15.772 7.300,16.100 7.459 M12.645 8.700 C 12.914 8.890,12.991 9.087,13.038 9.700 C 13.059 9.986,13.099 10.984,13.125 11.919 L 13.173 13.618 12.879 13.889 C 12.203 14.513,11.806 14.515,11.130 13.898 L 10.840 13.634 10.840 11.423 L 10.840 9.212 11.089 8.940 C 11.417 8.582,11.479 8.557,12.027 8.570 C 12.451 8.579,12.482 8.586,12.645 8.700 M8.688 9.766 C 8.925 9.818,9.197 9.989,9.342 10.179 C 9.444 10.313,9.457 10.368,9.483 10.773 C 9.499 11.019,9.524 11.761,9.539 12.423 L 9.567 13.626 9.339 13.834 C 8.595 14.514,8.220 14.527,7.530 13.898 L 7.240 13.634 7.240 12.001 L 7.240 10.369 7.501 10.125 C 7.959 9.696,8.129 9.645,8.688 9.766 " fill="#373B4D" stroke="none" fill-rule="evenodd"></path></svg>