<svg width="24" height="24" viewBox="0 0 24 24" fill="none" xmlns="http://www.w3.org/2000/svg"><path d="M6.720 3.678 L 3.180 3.700 2.993 3.810 C 2.621 4.028,2.439 4.367,2.441 4.837 C 2.442 5.161,2.526 5.358,2.764 5.596 C 2.937 5.769,3.352 6.000,3.490 6.000 C 3.529 6.000,3.564 6.005,3.568 6.010 C 3.572 6.015,3.586 8.298,3.598 11.083 L 3.620 16.146 3.797 16.503 C 4.035 16.984,4.584 17.544,5.046 17.776 C 5.453 17.980,5.622 17.995,7.535 17.998 L 9.090 18.000 8.466 18.640 C 7.664 19.463,7.331 19.856,7.281 20.036 C 7.214 20.275,7.233 20.680,7.319 20.871 C 7.507 21.283,7.948 21.560,8.418 21.560 C 8.884 21.560,8.989 21.478,10.727 19.766 L 12.000 18.511 13.273 19.766 C 14.626 21.098,15.033 21.460,15.246 21.522 C 15.442 21.578,15.757 21.568,15.991 21.499 C 16.220 21.431,16.539 21.154,16.662 20.917 C 16.750 20.747,16.784 20.277,16.725 20.056 C 16.670 19.855,16.371 19.499,15.534 18.640 L 14.910 18.000 16.465 17.998 C 18.378 17.995,18.547 17.980,18.954 17.776 C 19.409 17.548,19.959 16.987,20.201 16.505 L 20.380 16.150 20.402 11.085 C 20.414 8.299,20.427 6.015,20.432 6.010 C 20.436 6.005,20.472 6.000,20.510 6.000 C 20.647 6.000,21.076 5.764,21.233 5.603 C 21.449 5.380,21.533 5.188,21.552 4.874 C 21.580 4.419,21.401 4.068,21.010 3.808 L 20.787 3.660 15.523 3.658 C 12.629 3.656,8.667 3.665,6.720 3.678 M17.160 7.325 C 17.416 7.381,17.690 7.594,17.805 7.827 C 17.880 7.980,17.903 8.099,17.913 8.400 C 17.926 8.766,17.922 8.786,17.810 8.940 C 17.490 9.378,14.943 11.997,13.520 13.352 C 12.549 14.276,12.423 14.360,12.000 14.359 C 11.547 14.358,11.382 14.244,10.266 13.159 L 9.595 12.506 9.067 13.025 C 8.410 13.673,8.003 14.049,7.797 14.198 C 7.501 14.412,6.909 14.410,6.582 14.193 C 6.291 14.000,6.129 13.744,6.077 13.393 C 6.025 13.042,6.061 12.864,6.238 12.596 C 6.566 12.100,8.696 9.995,9.090 9.776 C 9.271 9.676,9.341 9.660,9.600 9.662 C 10.074 9.666,10.244 9.784,11.403 10.909 L 12.005 11.494 13.353 10.155 C 15.785 7.737,16.222 7.332,16.450 7.281 C 16.596 7.248,16.891 7.266,17.160 7.325 " fill="#373B4D" stroke="none" fill-rule="evenodd"></path></svg>