<svg width="24" height="24" viewBox="0 0 24 24" fill="none" xmlns="http://www.w3.org/2000/svg"><path d="M3.538 3.717 C 3.112 3.739,3.090 3.745,2.898 3.882 C 2.395 4.242,2.284 5.030,2.673 5.485 C 2.845 5.686,3.239 5.949,3.418 5.982 L 3.547 6.006 3.574 7.810 C 3.588 8.802,3.600 11.082,3.601 12.877 L 3.601 16.140 3.764 16.440 C 4.153 17.155,4.730 17.693,5.320 17.888 C 5.567 17.970,5.669 17.975,7.331 17.991 L 9.083 18.007 8.486 18.620 C 7.381 19.756,7.242 19.952,7.241 20.383 C 7.240 20.718,7.334 20.966,7.545 21.183 C 7.768 21.412,8.023 21.527,8.366 21.551 C 8.847 21.586,8.988 21.477,10.834 19.659 L 12.000 18.511 13.170 19.662 C 15.050 21.513,15.149 21.588,15.662 21.549 C 16.002 21.523,16.196 21.434,16.438 21.193 C 16.656 20.976,16.722 20.821,16.749 20.460 C 16.785 19.980,16.670 19.809,15.514 18.620 L 14.917 18.007 16.669 17.990 C 18.200 17.976,18.448 17.965,18.640 17.903 C 19.240 17.711,19.845 17.156,20.236 16.438 L 20.399 16.140 20.399 12.780 C 20.400 10.932,20.412 8.650,20.427 7.710 C 20.451 6.124,20.458 6.000,20.522 6.000 C 20.636 6.000,21.049 5.766,21.213 5.607 C 21.422 5.407,21.519 5.203,21.546 4.908 C 21.587 4.465,21.429 4.129,21.044 3.839 L 20.832 3.680 12.406 3.687 C 7.772 3.691,3.781 3.705,3.538 3.717 M15.783 7.283 C 16.074 7.336,16.294 7.460,16.507 7.690 L 16.669 7.866 16.694 8.343 C 16.708 8.605,16.730 9.891,16.744 11.200 L 16.769 13.580 16.534 13.858 C 16.229 14.219,15.973 14.360,15.621 14.360 C 15.303 14.360,15.151 14.308,14.887 14.107 C 14.508 13.820,14.510 13.831,14.476 12.220 C 14.459 11.450,14.445 10.190,14.443 9.420 L 14.440 8.020 14.618 7.794 C 14.835 7.517,15.024 7.369,15.249 7.299 C 15.464 7.231,15.494 7.231,15.783 7.283 M12.626 8.646 C 12.728 8.720,12.865 8.847,12.931 8.928 C 13.092 9.127,13.106 9.306,13.142 11.658 L 13.172 13.558 12.997 13.783 C 12.667 14.212,12.237 14.439,11.862 14.382 C 11.604 14.344,11.290 14.133,11.052 13.840 L 10.842 13.580 10.841 11.408 L 10.840 9.237 10.996 9.025 C 11.336 8.565,11.522 8.471,12.050 8.495 C 12.415 8.511,12.452 8.521,12.626 8.646 M8.690 9.705 C 8.902 9.734,9.191 9.935,9.383 10.186 L 9.509 10.352 9.539 11.957 L 9.569 13.561 9.396 13.785 C 9.067 14.212,8.637 14.439,8.262 14.382 C 8.004 14.344,7.690 14.133,7.452 13.840 L 7.242 13.580 7.241 12.008 L 7.240 10.437 7.396 10.225 C 7.575 9.984,7.766 9.812,7.940 9.736 C 8.070 9.679,8.401 9.665,8.690 9.705 " fill="#373B4D" stroke="none" fill-rule="evenodd"></path></svg>