<svg width="24" height="24" viewBox="0 0 24 24" fill="none" xmlns="http://www.w3.org/2000/svg"><path d="M3.538 3.717 C 3.112 3.739,3.090 3.745,2.898 3.882 C 2.395 4.242,2.284 5.030,2.673 5.485 C 2.845 5.686,3.239 5.949,3.418 5.982 L 3.547 6.006 3.574 7.810 C 3.588 8.802,3.600 11.082,3.601 12.877 L 3.601 16.140 3.764 16.440 C 4.153 17.155,4.730 17.693,5.320 17.888 C 5.567 17.970,5.669 17.975,7.331 17.991 L 9.083 18.007 8.486 18.620 C 7.381 19.756,7.242 19.952,7.241 20.383 C 7.240 20.718,7.334 20.966,7.545 21.183 C 7.768 21.412,8.023 21.527,8.366 21.551 C 8.847 21.586,8.988 21.477,10.834 19.659 L 12.000 18.511 13.170 19.662 C 15.050 21.513,15.149 21.588,15.662 21.549 C 16.002 21.523,16.196 21.434,16.438 21.193 C 16.656 20.976,16.722 20.821,16.749 20.460 C 16.785 19.980,16.670 19.809,15.514 18.620 L 14.917 18.007 16.669 17.990 C 18.200 17.976,18.448 17.965,18.640 17.903 C 19.240 17.711,19.845 17.156,20.236 16.438 L 20.399 16.140 20.399 12.780 C 20.400 10.932,20.412 8.650,20.427 7.710 C 20.451 6.124,20.458 6.000,20.522 6.000 C 20.636 6.000,21.049 5.766,21.213 5.607 C 21.422 5.407,21.519 5.203,21.546 4.908 C 21.587 4.465,21.429 4.129,21.044 3.839 L 20.832 3.680 12.406 3.687 C 7.772 3.691,3.781 3.705,3.538 3.717 M17.300 7.377 C 17.501 7.461,17.703 7.653,17.810 7.860 C 17.876 7.989,17.893 8.099,17.896 8.423 L 17.900 8.826 17.740 9.023 C 17.213 9.669,13.716 13.219,12.963 13.871 C 12.530 14.246,12.383 14.327,12.089 14.352 C 11.621 14.392,11.379 14.235,10.307 13.197 L 9.594 12.507 9.107 12.987 C 8.332 13.749,7.873 14.162,7.703 14.248 C 7.483 14.361,7.144 14.384,6.875 14.306 C 6.543 14.210,6.349 14.048,6.199 13.745 C 6.081 13.504,6.073 13.461,6.086 13.147 C 6.099 12.830,6.110 12.796,6.260 12.575 C 6.439 12.313,7.932 10.775,8.520 10.248 C 9.098 9.730,9.190 9.680,9.575 9.680 C 9.815 9.680,9.937 9.700,10.063 9.761 C 10.281 9.867,10.682 10.211,11.411 10.918 L 11.999 11.489 13.710 9.798 C 15.388 8.139,16.061 7.504,16.300 7.351 C 16.402 7.286,16.475 7.277,16.780 7.292 C 16.990 7.302,17.206 7.337,17.300 7.377 " fill="#373B4D" stroke="none" fill-rule="evenodd"></path></svg>