<svg width="24" height="24" viewBox="0 0 24 24" fill="none" xmlns="http://www.w3.org/2000/svg"><path d="M10.880 3.722 C 4.006 3.761,3.154 3.785,2.885 3.944 C 2.661 4.075,2.414 4.644,2.453 4.935 C 2.484 5.163,2.738 5.502,3.080 5.770 C 3.245 5.900,3.403 6.038,3.432 6.078 C 3.483 6.150,3.508 7.421,3.584 14.009 L 3.610 16.198 3.801 16.489 C 4.053 16.870,4.507 17.358,4.814 17.577 C 5.299 17.923,5.536 17.957,7.911 18.024 C 8.468 18.039,8.930 18.064,8.939 18.078 C 8.948 18.093,8.724 18.358,8.442 18.669 C 7.400 19.814,7.299 19.966,7.302 20.380 C 7.305 20.851,7.555 21.231,7.997 21.433 C 8.404 21.619,8.662 21.563,9.157 21.182 C 9.488 20.926,10.235 20.236,11.171 19.322 L 12.002 18.510 12.751 19.245 C 14.273 20.738,15.035 21.413,15.277 21.480 C 15.688 21.594,16.092 21.467,16.409 21.125 C 16.643 20.872,16.721 20.685,16.719 20.375 C 16.718 20.015,16.568 19.788,15.682 18.800 C 15.435 18.525,15.198 18.252,15.156 18.193 L 15.078 18.085 15.249 18.063 C 15.343 18.050,15.978 18.021,16.660 17.998 C 18.816 17.925,18.899 17.901,19.603 17.171 C 19.832 16.934,20.105 16.613,20.208 16.459 L 20.397 16.180 20.438 11.944 C 20.461 9.614,20.480 7.334,20.480 6.878 L 20.480 6.048 20.708 5.919 C 21.014 5.746,21.385 5.387,21.445 5.205 C 21.514 4.999,21.505 4.484,21.429 4.338 C 21.396 4.273,21.257 4.099,21.120 3.950 L 20.873 3.680 18.346 3.687 C 16.957 3.691,13.597 3.706,10.880 3.722 M16.120 7.493 C 16.285 7.575,16.477 7.691,16.546 7.751 L 16.672 7.860 16.700 10.731 L 16.727 13.602 16.428 13.901 C 16.263 14.066,16.064 14.227,15.986 14.260 C 15.814 14.332,15.504 14.337,15.251 14.274 C 15.007 14.212,14.705 13.925,14.644 13.697 C 14.577 13.446,14.528 12.382,14.477 10.086 L 14.430 7.993 14.605 7.813 C 14.806 7.606,15.046 7.432,15.220 7.367 C 15.449 7.281,15.793 7.329,16.120 7.493 M12.560 8.661 C 12.817 8.793,12.953 9.055,13.001 9.512 C 13.038 9.862,13.095 11.168,13.144 12.761 L 13.171 13.623 12.955 13.818 C 12.679 14.068,12.381 14.258,12.168 14.322 C 12.033 14.363,11.967 14.363,11.832 14.322 C 11.620 14.259,11.322 14.068,11.050 13.822 L 10.840 13.633 10.840 11.426 L 10.840 9.219 11.021 9.012 C 11.218 8.786,11.420 8.645,11.614 8.597 C 11.787 8.554,12.437 8.599,12.560 8.661 M8.819 9.822 C 9.087 9.934,9.325 10.121,9.385 10.266 C 9.446 10.412,9.496 11.208,9.541 12.740 L 9.566 13.620 9.413 13.765 C 9.017 14.140,8.628 14.359,8.356 14.360 C 8.188 14.360,7.800 14.138,7.510 13.877 L 7.240 13.633 7.240 12.002 L 7.240 10.371 7.430 10.194 C 7.697 9.946,7.896 9.800,8.027 9.758 C 8.187 9.707,8.631 9.742,8.819 9.822 " fill="#373B4D" stroke="none" fill-rule="evenodd"></path></svg>