<svg width="24" height="24" viewBox="0 0 24 24" fill="none" xmlns="http://www.w3.org/2000/svg"><path d="M9.974 3.724 C 6.957 3.741,4.173 3.773,3.788 3.794 C 2.998 3.838,2.869 3.876,2.704 4.114 C 2.580 4.293,2.440 4.687,2.440 4.856 C 2.441 5.161,2.741 5.549,3.263 5.921 L 3.460 6.061 3.486 6.361 C 3.501 6.525,3.534 8.802,3.559 11.420 L 3.606 16.180 3.728 16.380 C 4.065 16.932,4.685 17.560,5.085 17.754 C 5.225 17.822,5.463 17.897,5.613 17.920 C 5.826 17.953,7.988 18.034,8.810 18.039 C 8.893 18.040,8.960 18.056,8.960 18.076 C 8.960 18.096,8.721 18.371,8.428 18.686 C 7.413 19.783,7.257 20.021,7.288 20.437 C 7.311 20.764,7.479 21.085,7.728 21.282 C 7.968 21.472,8.296 21.578,8.524 21.539 C 8.879 21.479,9.477 20.981,11.110 19.382 L 12.001 18.511 12.860 19.354 C 13.928 20.401,14.747 21.153,15.030 21.349 C 15.218 21.478,15.283 21.500,15.520 21.513 C 15.856 21.532,16.143 21.417,16.399 21.161 C 16.629 20.931,16.718 20.719,16.719 20.398 C 16.721 19.987,16.624 19.840,15.662 18.780 C 15.342 18.428,15.080 18.119,15.080 18.094 C 15.080 18.063,15.309 18.041,15.830 18.024 C 18.125 17.950,18.411 17.932,18.677 17.842 C 18.818 17.794,19.016 17.699,19.117 17.631 C 19.397 17.442,19.914 16.894,20.167 16.518 L 20.394 16.180 20.438 11.400 C 20.461 8.771,20.481 6.491,20.481 6.332 L 20.480 6.045 20.728 5.912 C 21.044 5.744,21.371 5.427,21.443 5.220 C 21.523 4.988,21.515 4.491,21.429 4.331 C 21.390 4.260,21.249 4.084,21.115 3.941 L 20.871 3.680 18.165 3.687 C 16.677 3.690,12.991 3.707,9.974 3.724 M16.102 7.476 C 16.277 7.562,16.477 7.683,16.547 7.746 L 16.675 7.860 16.702 10.723 L 16.729 13.585 16.495 13.840 C 16.366 13.979,16.180 14.145,16.082 14.207 C 15.929 14.304,15.865 14.320,15.622 14.318 C 15.467 14.317,15.275 14.293,15.197 14.265 C 14.984 14.189,14.769 14.002,14.677 13.812 C 14.568 13.589,14.539 13.059,14.477 10.227 L 14.429 7.994 14.644 7.773 C 14.970 7.440,15.201 7.321,15.522 7.320 C 15.746 7.320,15.830 7.343,16.102 7.476 M12.638 8.699 C 12.838 8.837,12.951 9.053,12.997 9.384 C 13.038 9.674,13.099 11.047,13.144 12.662 L 13.170 13.624 12.895 13.873 C 12.577 14.162,12.212 14.360,12.000 14.360 C 11.789 14.360,11.424 14.162,11.110 13.878 L 10.840 13.634 10.840 11.421 L 10.840 9.209 11.090 8.942 C 11.415 8.595,11.532 8.552,12.075 8.577 C 12.438 8.594,12.509 8.609,12.638 8.699 M8.703 9.779 C 8.947 9.851,9.253 10.042,9.341 10.177 C 9.458 10.354,9.476 10.547,9.523 12.093 L 9.569 13.605 9.475 13.707 C 9.307 13.887,8.893 14.198,8.714 14.279 C 8.332 14.452,8.015 14.340,7.465 13.837 L 7.240 13.632 7.240 12.000 L 7.240 10.367 7.510 10.119 C 7.659 9.983,7.843 9.839,7.920 9.798 C 8.093 9.706,8.431 9.698,8.703 9.779 " fill="#373B4D" stroke="none" fill-rule="evenodd"></path></svg>