<svg width="24" height="24" viewBox="0 0 24 24" fill="none" xmlns="http://www.w3.org/2000/svg"><path d="M7.180 3.722 C 4.289 3.740,3.180 3.760,3.073 3.795 C 2.984 3.823,2.853 3.923,2.742 4.046 C 2.414 4.411,2.354 4.898,2.586 5.323 C 2.721 5.572,2.895 5.722,3.244 5.892 L 3.507 6.020 3.533 6.320 C 3.547 6.485,3.571 8.771,3.586 11.400 L 3.613 16.180 3.803 16.500 C 4.217 17.199,4.777 17.698,5.357 17.886 C 5.604 17.966,5.724 17.973,7.350 17.990 L 9.080 18.009 8.520 18.587 C 7.504 19.635,7.291 19.922,7.252 20.291 C 7.189 20.902,7.665 21.470,8.302 21.545 C 8.810 21.605,9.069 21.405,11.187 19.306 L 11.995 18.506 13.107 19.600 C 14.320 20.792,14.842 21.268,15.120 21.433 C 15.269 21.522,15.348 21.540,15.580 21.540 C 16.273 21.540,16.817 20.959,16.748 20.291 C 16.710 19.923,16.571 19.733,15.578 18.694 L 14.922 18.009 16.631 17.990 C 18.511 17.969,18.604 17.958,19.034 17.712 C 19.451 17.474,19.932 16.954,20.270 16.378 L 20.388 16.177 20.415 11.558 C 20.429 9.018,20.453 6.737,20.466 6.490 L 20.491 6.040 20.735 5.919 C 21.296 5.643,21.532 5.313,21.537 4.800 C 21.540 4.539,21.525 4.472,21.420 4.283 C 21.350 4.156,21.204 3.986,21.068 3.873 L 20.836 3.680 15.988 3.688 C 13.322 3.693,9.358 3.708,7.180 3.722 M16.100 7.419 C 16.254 7.494,16.447 7.624,16.529 7.709 L 16.679 7.862 16.724 10.672 C 16.759 12.876,16.758 13.508,16.720 13.601 C 16.693 13.665,16.539 13.844,16.378 13.997 C 16.053 14.305,15.960 14.342,15.516 14.337 C 15.203 14.334,14.990 14.228,14.732 13.949 C 14.578 13.782,14.568 13.755,14.543 13.456 C 14.503 12.975,14.441 10.357,14.441 9.119 L 14.440 8.019 14.630 7.791 C 15.102 7.226,15.498 7.125,16.100 7.419 M12.669 8.692 C 12.983 8.923,13.034 9.063,13.078 9.824 C 13.098 10.174,13.127 11.164,13.141 12.025 L 13.168 13.590 12.906 13.868 C 12.264 14.549,11.741 14.553,11.108 13.883 L 10.840 13.599 10.840 11.414 L 10.840 9.229 11.057 8.960 C 11.370 8.573,11.508 8.512,12.041 8.528 C 12.458 8.541,12.465 8.543,12.669 8.692 M8.918 9.808 C 9.122 9.907,9.474 10.251,9.499 10.377 C 9.508 10.423,9.526 11.168,9.539 12.033 L 9.563 13.607 9.251 13.917 C 8.612 14.555,8.130 14.542,7.498 13.872 L 7.240 13.599 7.240 12.013 L 7.240 10.428 7.415 10.216 C 7.639 9.944,7.808 9.803,7.992 9.734 C 8.200 9.656,8.682 9.695,8.918 9.808 " fill="#373B4D" stroke="none" fill-rule="evenodd"></path></svg>