<svg width="24" height="24" viewBox="0 0 24 24" fill="none" xmlns="http://www.w3.org/2000/svg"><path d="M9.974 3.724 C 6.957 3.741,4.173 3.773,3.788 3.794 C 2.998 3.838,2.869 3.876,2.704 4.114 C 2.580 4.293,2.440 4.687,2.440 4.856 C 2.441 5.161,2.741 5.549,3.263 5.921 L 3.460 6.061 3.486 6.361 C 3.501 6.525,3.534 8.802,3.559 11.420 L 3.606 16.180 3.728 16.380 C 4.065 16.932,4.685 17.560,5.085 17.754 C 5.225 17.822,5.463 17.897,5.613 17.920 C 5.826 17.953,7.988 18.034,8.810 18.039 C 8.893 18.040,8.960 18.056,8.960 18.076 C 8.960 18.096,8.721 18.371,8.428 18.686 C 7.413 19.783,7.257 20.021,7.288 20.437 C 7.311 20.764,7.479 21.085,7.728 21.282 C 7.968 21.472,8.296 21.578,8.524 21.539 C 8.879 21.479,9.477 20.981,11.110 19.382 L 12.001 18.511 12.860 19.354 C 13.928 20.401,14.747 21.153,15.030 21.349 C 15.218 21.478,15.283 21.500,15.520 21.513 C 15.856 21.532,16.143 21.417,16.399 21.161 C 16.629 20.931,16.718 20.719,16.719 20.398 C 16.721 19.987,16.624 19.840,15.662 18.780 C 15.342 18.428,15.080 18.119,15.080 18.094 C 15.080 18.063,15.309 18.041,15.830 18.024 C 18.125 17.950,18.411 17.932,18.677 17.842 C 18.818 17.794,19.016 17.699,19.117 17.631 C 19.397 17.442,19.914 16.894,20.167 16.518 L 20.394 16.180 20.438 11.400 C 20.461 8.771,20.481 6.491,20.481 6.332 L 20.480 6.045 20.728 5.912 C 21.044 5.744,21.371 5.427,21.443 5.220 C 21.523 4.988,21.515 4.491,21.429 4.331 C 21.390 4.260,21.249 4.084,21.115 3.941 L 20.871 3.680 18.165 3.687 C 16.677 3.690,12.991 3.707,9.974 3.724 M16.918 7.362 C 17.295 7.409,17.364 7.437,17.553 7.615 C 17.756 7.805,17.801 7.926,17.850 8.420 L 17.896 8.874 17.138 9.666 C 15.865 10.996,13.318 13.533,13.000 13.787 C 12.563 14.137,12.272 14.320,12.110 14.346 C 11.713 14.411,11.163 14.029,9.953 12.846 L 9.605 12.507 8.953 13.124 C 7.948 14.073,7.776 14.206,7.428 14.296 C 7.005 14.406,6.585 14.236,6.329 13.852 C 6.185 13.635,6.180 13.616,6.167 13.204 L 6.153 12.780 6.351 12.520 C 6.820 11.904,8.263 10.467,8.909 9.972 L 9.197 9.751 9.609 9.766 C 9.961 9.779,10.043 9.796,10.180 9.880 C 10.387 10.008,10.851 10.408,11.493 11.011 L 12.007 11.493 13.013 10.495 C 14.420 9.101,15.344 8.206,15.869 7.728 C 16.371 7.271,16.324 7.288,16.918 7.362 " fill="#373B4D" stroke="none" fill-rule="evenodd"></path></svg>