<svg width="24" height="24" viewBox="0 0 24 24" fill="none" xmlns="http://www.w3.org/2000/svg"><path d="M10.920 3.724 C 5.714 3.755,3.429 3.801,3.080 3.883 C 2.850 3.937,2.737 4.042,2.596 4.337 C 2.331 4.891,2.399 5.106,3.027 5.707 L 3.452 6.114 3.484 7.327 C 3.501 7.994,3.535 10.259,3.559 12.360 L 3.604 16.180 3.832 16.520 C 4.105 16.929,4.706 17.538,4.985 17.689 C 5.396 17.911,5.896 17.972,7.733 18.024 C 8.257 18.039,8.742 18.063,8.810 18.077 L 8.933 18.102 8.797 18.261 C 8.722 18.348,8.428 18.680,8.145 18.999 C 7.363 19.877,7.247 20.093,7.320 20.542 C 7.366 20.823,7.479 21.033,7.682 21.217 C 8.031 21.532,8.417 21.603,8.785 21.420 C 9.134 21.246,9.860 20.603,11.310 19.184 L 12.000 18.508 12.730 19.224 C 14.165 20.631,14.931 21.314,15.219 21.445 C 15.806 21.712,16.638 21.190,16.707 20.512 C 16.752 20.072,16.656 19.912,15.680 18.796 L 15.071 18.100 15.225 18.074 C 15.310 18.060,15.740 18.037,16.180 18.022 C 18.048 17.960,18.608 17.899,18.960 17.720 C 19.248 17.573,19.988 16.806,20.295 16.337 L 20.402 16.174 20.449 11.106 L 20.496 6.039 20.706 5.920 C 20.956 5.779,21.381 5.374,21.439 5.222 C 21.462 5.163,21.480 4.967,21.480 4.787 C 21.480 4.399,21.442 4.313,21.108 3.940 L 20.875 3.680 18.528 3.687 C 17.236 3.690,13.813 3.707,10.920 3.724 M16.070 7.479 C 16.209 7.544,16.401 7.653,16.495 7.721 L 16.668 7.845 16.696 10.728 L 16.725 13.612 16.553 13.788 C 16.458 13.885,16.282 14.040,16.163 14.132 C 15.947 14.299,15.945 14.300,15.603 14.300 C 15.300 14.300,15.238 14.287,15.070 14.188 C 14.863 14.067,14.699 13.857,14.641 13.640 C 14.587 13.438,14.529 12.139,14.477 9.921 L 14.431 7.982 14.681 7.746 C 15.030 7.418,15.270 7.309,15.579 7.338 C 15.719 7.351,15.922 7.410,16.070 7.479 M12.588 8.673 C 12.734 8.752,12.873 8.968,12.937 9.215 C 13.006 9.479,13.056 10.306,13.123 12.253 L 13.169 13.606 13.035 13.746 C 12.851 13.938,12.351 14.267,12.158 14.325 C 12.038 14.361,11.963 14.362,11.847 14.327 C 11.655 14.269,11.256 14.013,11.020 13.796 L 10.840 13.630 10.840 11.416 L 10.840 9.202 11.070 8.969 C 11.412 8.623,11.491 8.594,12.040 8.611 C 12.295 8.619,12.539 8.646,12.588 8.673 M8.880 9.867 C 9.154 9.989,9.350 10.174,9.399 10.359 C 9.439 10.513,9.502 11.613,9.542 12.840 L 9.567 13.620 9.413 13.763 C 9.041 14.111,8.613 14.359,8.386 14.360 C 8.179 14.360,7.782 14.127,7.410 13.786 L 7.240 13.630 7.240 11.997 L 7.240 10.365 7.498 10.138 C 7.806 9.865,7.954 9.771,8.106 9.751 C 8.332 9.721,8.664 9.771,8.880 9.867 " fill="#373B4D" stroke="none" fill-rule="evenodd"></path></svg>