<svg width="24" height="24" viewBox="0 0 24 24" fill="none" xmlns="http://www.w3.org/2000/svg"><path d="M8.400 3.721 C 5.727 3.736,3.430 3.762,3.295 3.778 C 3.160 3.794,2.994 3.841,2.926 3.882 C 2.639 4.056,2.408 4.562,2.455 4.910 C 2.513 5.335,2.744 5.626,3.222 5.881 L 3.500 6.029 3.525 6.504 C 3.539 6.766,3.564 9.054,3.581 11.590 L 3.611 16.200 3.848 16.566 C 4.281 17.235,4.806 17.692,5.362 17.882 C 5.608 17.966,5.700 17.971,7.330 17.991 C 8.271 18.002,9.040 18.019,9.040 18.029 C 9.040 18.039,8.778 18.320,8.457 18.654 C 7.432 19.720,7.260 19.970,7.260 20.400 C 7.261 20.900,7.604 21.355,8.090 21.499 C 8.697 21.680,8.887 21.552,10.811 19.674 L 12.002 18.512 13.026 19.519 C 14.177 20.650,14.783 21.208,15.057 21.390 C 15.296 21.548,15.545 21.582,15.860 21.500 C 16.573 21.314,16.949 20.574,16.647 19.956 C 16.539 19.736,16.310 19.467,15.556 18.673 C 15.228 18.329,14.960 18.036,14.960 18.023 C 14.960 18.011,15.505 18.000,16.170 17.999 C 17.738 17.997,18.469 17.954,18.760 17.843 C 19.228 17.666,19.826 17.099,20.219 16.460 L 20.391 16.180 20.416 11.940 C 20.430 9.608,20.452 7.325,20.466 6.868 L 20.491 6.036 20.736 5.913 C 21.298 5.631,21.523 5.313,21.529 4.793 C 21.533 4.389,21.412 4.165,21.011 3.830 L 20.831 3.680 17.046 3.687 C 14.964 3.691,11.073 3.706,8.400 3.721 M17.413 7.467 C 17.781 7.727,17.873 7.945,17.878 8.566 L 17.880 8.872 17.367 9.426 C 17.084 9.731,16.260 10.583,15.536 11.320 C 12.573 14.335,12.325 14.525,11.672 14.281 C 11.394 14.177,11.042 13.893,10.250 13.136 L 9.600 12.514 8.910 13.175 C 8.028 14.021,7.776 14.221,7.494 14.303 C 6.988 14.450,6.480 14.227,6.243 13.754 C 6.138 13.543,6.120 13.464,6.121 13.204 C 6.122 12.705,6.163 12.643,7.234 11.523 C 7.977 10.745,8.660 10.113,9.014 9.877 C 9.240 9.726,9.262 9.720,9.575 9.721 C 9.803 9.721,9.948 9.744,10.062 9.795 C 10.272 9.891,10.807 10.340,11.473 10.981 L 12.006 11.493 13.113 10.395 C 14.630 8.889,15.553 7.997,15.980 7.624 L 16.340 7.310 16.797 7.332 C 17.215 7.352,17.266 7.364,17.413 7.467 " fill="#373B4D" stroke="none" fill-rule="evenodd"></path></svg>