<svg width="24" height="24" viewBox="0 0 24 24" fill="none" xmlns="http://www.w3.org/2000/svg"><path d="M10.880 3.722 C 4.006 3.761,3.154 3.785,2.885 3.944 C 2.661 4.075,2.414 4.644,2.453 4.935 C 2.484 5.163,2.738 5.502,3.080 5.770 C 3.245 5.900,3.403 6.038,3.432 6.078 C 3.483 6.150,3.508 7.421,3.584 14.009 L 3.610 16.198 3.801 16.489 C 4.053 16.870,4.507 17.358,4.814 17.577 C 5.299 17.923,5.536 17.957,7.911 18.024 C 8.468 18.039,8.930 18.064,8.939 18.078 C 8.948 18.093,8.724 18.358,8.442 18.669 C 7.400 19.814,7.299 19.966,7.302 20.380 C 7.305 20.851,7.555 21.231,7.997 21.433 C 8.404 21.619,8.662 21.563,9.157 21.182 C 9.488 20.926,10.235 20.236,11.171 19.322 L 12.002 18.510 12.751 19.245 C 14.273 20.738,15.035 21.413,15.277 21.480 C 15.688 21.594,16.092 21.467,16.409 21.125 C 16.643 20.872,16.721 20.685,16.719 20.375 C 16.718 20.015,16.568 19.788,15.682 18.800 C 15.435 18.525,15.198 18.252,15.156 18.193 L 15.078 18.085 15.249 18.063 C 15.343 18.050,15.978 18.021,16.660 17.998 C 18.816 17.925,18.899 17.901,19.603 17.171 C 19.832 16.934,20.105 16.613,20.208 16.459 L 20.397 16.180 20.438 11.944 C 20.461 9.614,20.480 7.334,20.480 6.878 L 20.480 6.048 20.708 5.919 C 21.014 5.746,21.385 5.387,21.445 5.205 C 21.514 4.999,21.505 4.484,21.429 4.338 C 21.396 4.273,21.257 4.099,21.120 3.950 L 20.873 3.680 18.346 3.687 C 16.957 3.691,13.597 3.706,10.880 3.722 M17.163 7.405 C 17.383 7.451,17.614 7.632,17.719 7.839 C 17.767 7.933,17.815 8.158,17.845 8.434 L 17.893 8.877 17.176 9.625 C 15.937 10.917,13.275 13.557,12.920 13.845 C 12.546 14.148,12.166 14.360,11.999 14.360 C 11.826 14.360,11.366 14.106,11.020 13.820 C 10.844 13.674,10.452 13.321,10.150 13.035 L 9.600 12.514 8.968 13.108 C 7.860 14.152,7.677 14.279,7.240 14.311 C 6.937 14.332,6.770 14.277,6.542 14.077 C 6.255 13.824,6.192 13.677,6.170 13.202 L 6.150 12.778 6.400 12.459 C 6.722 12.049,8.397 10.378,8.840 10.024 L 9.180 9.753 9.584 9.772 C 9.840 9.784,10.039 9.815,10.127 9.856 C 10.292 9.935,10.796 10.362,11.489 11.011 L 11.999 11.488 13.629 9.890 C 15.500 8.056,16.126 7.468,16.298 7.380 C 16.427 7.314,16.782 7.324,17.163 7.405 " fill="#373B4D" stroke="none" fill-rule="evenodd"></path></svg>