<svg width="24" height="24" viewBox="0 0 24 24" fill="none" xmlns="http://www.w3.org/2000/svg"><path d="M8.834 3.724 C 5.438 3.743,3.366 3.770,3.225 3.796 C 2.951 3.846,2.829 3.923,2.682 4.137 C 2.567 4.304,2.440 4.663,2.440 4.820 C 2.440 5.194,2.734 5.601,3.192 5.860 C 3.350 5.949,3.485 6.055,3.499 6.100 C 3.512 6.144,3.542 8.430,3.566 11.180 L 3.609 16.180 3.734 16.394 C 3.933 16.732,4.358 17.240,4.620 17.451 C 4.752 17.558,4.991 17.709,5.152 17.786 C 5.418 17.915,5.489 17.931,5.952 17.962 C 6.231 17.981,6.964 17.999,7.580 18.001 C 8.196 18.003,8.772 18.017,8.859 18.033 L 9.019 18.061 8.432 18.681 C 7.437 19.730,7.266 19.985,7.269 20.407 C 7.275 20.983,7.748 21.487,8.340 21.549 C 8.796 21.596,9.174 21.294,11.328 19.165 L 11.995 18.506 12.952 19.446 C 14.032 20.506,14.760 21.181,15.013 21.355 C 15.256 21.522,15.473 21.573,15.739 21.523 C 16.338 21.413,16.737 20.963,16.737 20.400 C 16.737 19.973,16.640 19.830,15.586 18.706 C 15.259 18.358,15.007 18.058,15.026 18.041 C 15.044 18.023,15.762 17.999,16.620 17.988 C 18.281 17.966,18.566 17.939,18.894 17.773 C 19.337 17.551,19.879 17.010,20.231 16.440 L 20.392 16.180 20.416 12.400 C 20.429 10.321,20.452 8.039,20.466 7.329 L 20.491 6.039 20.759 5.898 C 21.064 5.737,21.321 5.502,21.425 5.287 C 21.466 5.203,21.504 5.015,21.513 4.848 C 21.535 4.440,21.464 4.275,21.123 3.945 L 20.848 3.680 17.534 3.687 C 15.711 3.690,11.796 3.707,8.834 3.724 M17.379 7.457 C 17.733 7.666,17.841 7.885,17.870 8.462 L 17.891 8.863 17.275 9.520 C 16.355 10.503,13.606 13.271,13.152 13.670 C 12.708 14.062,12.338 14.306,12.125 14.345 C 11.712 14.423,11.290 14.140,10.077 12.970 L 9.602 12.512 8.951 13.132 C 8.142 13.902,7.909 14.102,7.679 14.220 C 7.134 14.498,6.524 14.292,6.238 13.733 C 6.155 13.570,6.140 13.484,6.140 13.176 C 6.140 12.826,6.145 12.805,6.284 12.596 C 6.627 12.082,8.352 10.358,8.953 9.929 L 9.218 9.740 9.579 9.740 C 9.846 9.741,9.978 9.760,10.086 9.813 C 10.291 9.915,10.763 10.312,11.433 10.948 L 12.007 11.493 13.073 10.434 C 14.562 8.957,15.558 7.994,15.980 7.625 L 16.340 7.310 16.779 7.336 C 17.138 7.358,17.246 7.380,17.379 7.457 " fill="#373B4D" stroke="none" fill-rule="evenodd"></path></svg>