<svg width="24" height="24" viewBox="0 0 24 24" fill="none" xmlns="http://www.w3.org/2000/svg"><path d="M5.380 3.719 C 2.865 3.743,3.037 3.721,2.730 4.054 C 2.303 4.517,2.359 5.252,2.850 5.654 C 3.049 5.816,3.383 6.000,3.479 6.000 C 3.542 6.000,3.549 6.172,3.573 8.190 C 3.588 9.395,3.600 11.676,3.600 13.261 L 3.600 16.142 3.779 16.456 C 4.151 17.110,4.534 17.499,5.066 17.766 C 5.362 17.914,5.432 17.932,5.826 17.962 C 6.065 17.981,6.896 17.997,7.674 17.998 L 9.087 18.000 8.400 18.710 C 7.353 19.792,7.206 20.022,7.250 20.514 C 7.277 20.815,7.388 21.026,7.636 21.249 C 7.955 21.536,8.446 21.637,8.780 21.485 C 9.058 21.359,9.504 20.963,10.770 19.720 L 12.001 18.512 13.150 19.643 C 15.001 21.462,15.173 21.593,15.662 21.547 C 15.988 21.517,16.153 21.445,16.381 21.235 C 16.615 21.019,16.714 20.825,16.746 20.522 C 16.798 20.025,16.673 19.827,15.617 18.730 L 14.914 18.000 16.287 17.997 C 18.142 17.994,18.517 17.967,18.845 17.812 C 19.391 17.554,19.855 17.098,20.216 16.464 L 20.388 16.163 20.414 11.292 C 20.429 8.612,20.452 6.327,20.465 6.213 C 20.487 6.032,20.503 6.003,20.595 5.980 C 20.764 5.938,21.142 5.691,21.282 5.532 C 21.439 5.353,21.507 5.195,21.542 4.930 C 21.598 4.513,21.431 4.153,21.037 3.842 L 20.833 3.680 14.226 3.689 C 10.593 3.694,6.612 3.708,5.380 3.719 M15.806 7.294 C 16.082 7.359,16.330 7.502,16.533 7.712 L 16.687 7.870 16.730 10.667 C 16.753 12.205,16.762 13.507,16.748 13.562 C 16.714 13.695,16.248 14.167,16.056 14.263 C 15.941 14.320,15.816 14.340,15.580 14.340 C 15.303 14.340,15.235 14.325,15.073 14.230 C 14.795 14.067,14.615 13.879,14.563 13.700 C 14.511 13.516,14.444 11.045,14.441 9.219 L 14.440 8.019 14.638 7.774 C 14.843 7.521,15.024 7.385,15.275 7.295 C 15.460 7.229,15.529 7.229,15.806 7.294 M12.500 8.571 C 12.659 8.652,12.877 8.846,12.960 8.980 C 13.076 9.168,13.109 9.679,13.140 11.840 L 13.166 13.580 12.993 13.786 C 12.322 14.583,11.665 14.584,11.010 13.787 L 10.840 13.581 10.840 11.407 L 10.840 9.234 11.022 8.998 C 11.252 8.699,11.425 8.567,11.646 8.522 C 11.848 8.481,12.383 8.511,12.500 8.571 M8.715 9.722 C 8.940 9.774,9.203 9.957,9.373 10.179 L 9.507 10.355 9.536 11.961 L 9.565 13.566 9.454 13.711 C 9.170 14.083,8.814 14.331,8.487 14.383 C 8.162 14.435,7.760 14.213,7.410 13.787 L 7.240 13.581 7.240 12.007 L 7.240 10.434 7.422 10.198 C 7.614 9.948,7.878 9.740,8.042 9.709 C 8.222 9.675,8.538 9.682,8.715 9.722 " fill="#373B4D" stroke="none" fill-rule="evenodd"></path></svg>