<svg width="24" height="24" viewBox="0 0 24 24" fill="none" xmlns="http://www.w3.org/2000/svg"><path d="M5.380 3.719 C 2.865 3.743,3.037 3.721,2.730 4.054 C 2.303 4.517,2.359 5.252,2.850 5.654 C 3.049 5.816,3.383 6.000,3.479 6.000 C 3.542 6.000,3.549 6.172,3.573 8.190 C 3.588 9.395,3.600 11.676,3.600 13.261 L 3.600 16.142 3.779 16.456 C 4.151 17.110,4.534 17.499,5.066 17.766 C 5.362 17.914,5.432 17.932,5.826 17.962 C 6.065 17.981,6.896 17.997,7.674 17.998 L 9.087 18.000 8.400 18.710 C 7.353 19.792,7.206 20.022,7.250 20.514 C 7.277 20.815,7.388 21.026,7.636 21.249 C 7.955 21.536,8.446 21.637,8.780 21.485 C 9.058 21.359,9.504 20.963,10.770 19.720 L 12.001 18.512 13.150 19.643 C 15.001 21.462,15.173 21.593,15.662 21.547 C 15.988 21.517,16.153 21.445,16.381 21.235 C 16.615 21.019,16.714 20.825,16.746 20.522 C 16.798 20.025,16.673 19.827,15.617 18.730 L 14.914 18.000 16.287 17.997 C 18.142 17.994,18.517 17.967,18.845 17.812 C 19.391 17.554,19.855 17.098,20.216 16.464 L 20.388 16.163 20.414 11.292 C 20.429 8.612,20.452 6.327,20.465 6.213 C 20.487 6.032,20.503 6.003,20.595 5.980 C 20.764 5.938,21.142 5.691,21.282 5.532 C 21.439 5.353,21.507 5.195,21.542 4.930 C 21.598 4.513,21.431 4.153,21.037 3.842 L 20.833 3.680 14.226 3.689 C 10.593 3.694,6.612 3.708,5.380 3.719 M17.242 7.361 C 17.435 7.412,17.695 7.643,17.796 7.853 C 17.865 7.994,17.880 8.101,17.880 8.444 L 17.880 8.863 17.636 9.142 C 17.152 9.694,14.681 12.229,13.815 13.062 C 12.570 14.259,12.365 14.396,11.888 14.347 C 11.522 14.310,11.233 14.094,10.183 13.076 L 9.601 12.512 8.970 13.122 C 8.042 14.021,7.787 14.230,7.526 14.306 C 7.132 14.420,6.669 14.307,6.413 14.035 C 6.171 13.776,6.100 13.581,6.102 13.180 C 6.103 12.728,6.119 12.701,6.870 11.899 C 7.977 10.714,8.862 9.897,9.197 9.749 C 9.424 9.648,9.863 9.668,10.100 9.790 C 10.308 9.897,10.724 10.256,11.430 10.938 L 12.000 11.488 13.590 9.917 C 15.362 8.167,16.161 7.416,16.340 7.333 C 16.469 7.274,16.973 7.289,17.242 7.361 " fill="#373B4D" stroke="none" fill-rule="evenodd"></path></svg>