<svg width="24" height="24" viewBox="0 0 24 24" fill="none" xmlns="http://www.w3.org/2000/svg"><path d="M7.180 3.722 C 4.289 3.740,3.180 3.760,3.073 3.795 C 2.984 3.823,2.853 3.923,2.742 4.046 C 2.414 4.411,2.354 4.898,2.586 5.323 C 2.721 5.572,2.895 5.722,3.244 5.892 L 3.507 6.020 3.533 6.320 C 3.547 6.485,3.571 8.771,3.586 11.400 L 3.613 16.180 3.803 16.500 C 4.217 17.199,4.777 17.698,5.357 17.886 C 5.604 17.966,5.724 17.973,7.350 17.990 L 9.080 18.009 8.520 18.587 C 7.504 19.635,7.291 19.922,7.252 20.291 C 7.189 20.902,7.665 21.470,8.302 21.545 C 8.810 21.605,9.069 21.405,11.187 19.306 L 11.995 18.506 13.107 19.600 C 14.320 20.792,14.842 21.268,15.120 21.433 C 15.269 21.522,15.348 21.540,15.580 21.540 C 16.273 21.540,16.817 20.959,16.748 20.291 C 16.710 19.923,16.571 19.733,15.578 18.694 L 14.922 18.009 16.631 17.990 C 18.511 17.969,18.604 17.958,19.034 17.712 C 19.451 17.474,19.932 16.954,20.270 16.378 L 20.388 16.177 20.415 11.558 C 20.429 9.018,20.453 6.737,20.466 6.490 L 20.491 6.040 20.735 5.919 C 21.296 5.643,21.532 5.313,21.537 4.800 C 21.540 4.539,21.525 4.472,21.420 4.283 C 21.350 4.156,21.204 3.986,21.068 3.873 L 20.836 3.680 15.988 3.688 C 13.322 3.693,9.358 3.708,7.180 3.722 M17.422 7.461 C 17.543 7.536,17.664 7.657,17.739 7.778 C 17.851 7.960,17.861 8.005,17.873 8.417 L 17.887 8.860 17.618 9.160 C 17.089 9.751,14.407 12.498,13.752 13.120 C 12.586 14.226,12.343 14.390,11.933 14.348 C 11.531 14.306,11.254 14.106,10.230 13.120 L 9.599 12.512 8.990 13.103 C 8.246 13.822,7.888 14.134,7.686 14.237 C 7.448 14.358,7.175 14.380,6.889 14.299 C 6.585 14.214,6.363 14.031,6.224 13.752 C 6.135 13.574,6.120 13.492,6.120 13.180 C 6.120 12.716,6.146 12.673,6.947 11.820 C 7.968 10.733,8.792 9.971,9.160 9.776 C 9.366 9.666,9.840 9.674,10.080 9.790 C 10.291 9.892,10.790 10.320,11.499 11.006 L 12.005 11.494 13.193 10.315 C 14.711 8.807,15.634 7.915,16.028 7.579 L 16.340 7.312 16.783 7.326 C 17.195 7.339,17.241 7.349,17.422 7.461 " fill="#373B4D" stroke="none" fill-rule="evenodd"></path></svg>