<svg width="24" height="24" viewBox="0 0 24 24" fill="none" xmlns="http://www.w3.org/2000/svg"><path d="M6.720 3.678 L 3.180 3.700 2.993 3.810 C 2.621 4.028,2.439 4.367,2.441 4.837 C 2.442 5.161,2.526 5.358,2.764 5.596 C 2.937 5.769,3.352 6.000,3.490 6.000 C 3.529 6.000,3.564 6.005,3.568 6.010 C 3.572 6.015,3.586 8.298,3.598 11.083 L 3.620 16.146 3.797 16.503 C 4.035 16.984,4.584 17.544,5.046 17.776 C 5.453 17.980,5.622 17.995,7.535 17.998 L 9.090 18.000 8.466 18.640 C 7.664 19.463,7.331 19.856,7.281 20.036 C 7.214 20.275,7.233 20.680,7.319 20.871 C 7.507 21.283,7.948 21.560,8.418 21.560 C 8.884 21.560,8.989 21.478,10.727 19.766 L 12.000 18.511 13.273 19.766 C 14.626 21.098,15.033 21.460,15.246 21.522 C 15.442 21.578,15.757 21.568,15.991 21.499 C 16.220 21.431,16.539 21.154,16.662 20.917 C 16.750 20.747,16.784 20.277,16.725 20.056 C 16.670 19.855,16.371 19.499,15.534 18.640 L 14.910 18.000 16.465 17.998 C 18.378 17.995,18.547 17.980,18.954 17.776 C 19.409 17.548,19.959 16.987,20.201 16.505 L 20.380 16.150 20.402 11.085 C 20.414 8.299,20.427 6.015,20.432 6.010 C 20.436 6.005,20.472 6.000,20.510 6.000 C 20.647 6.000,21.076 5.764,21.233 5.603 C 21.449 5.380,21.533 5.188,21.552 4.874 C 21.580 4.419,21.401 4.068,21.010 3.808 L 20.787 3.660 15.523 3.658 C 12.629 3.656,8.667 3.665,6.720 3.678 M15.797 7.279 C 16.101 7.323,16.409 7.513,16.584 7.766 L 16.697 7.928 16.725 9.634 C 16.741 10.572,16.755 11.842,16.757 12.455 L 16.760 13.569 16.623 13.755 C 16.302 14.190,15.989 14.375,15.580 14.372 C 15.271 14.370,15.016 14.258,14.778 14.020 C 14.459 13.701,14.477 13.879,14.452 10.804 L 14.429 8.060 14.605 7.801 C 14.835 7.461,15.125 7.281,15.500 7.245 C 15.522 7.243,15.655 7.258,15.797 7.279 M12.645 8.649 C 12.876 8.809,13.020 8.991,13.079 9.197 C 13.100 9.269,13.129 10.278,13.145 11.441 L 13.173 13.556 13.060 13.708 C 12.860 13.979,12.664 14.165,12.479 14.260 C 11.943 14.534,11.434 14.368,10.997 13.776 L 10.840 13.563 10.840 11.405 L 10.840 9.247 11.010 8.994 C 11.131 8.813,11.243 8.702,11.400 8.608 C 11.616 8.478,11.628 8.475,12.025 8.488 C 12.419 8.500,12.437 8.504,12.645 8.649 M9.053 9.854 C 9.176 9.938,9.330 10.091,9.396 10.194 L 9.515 10.380 9.544 11.968 L 9.572 13.556 9.460 13.708 C 9.260 13.979,9.064 14.165,8.879 14.260 C 8.343 14.534,7.834 14.368,7.397 13.776 L 7.240 13.563 7.240 12.005 L 7.240 10.447 7.410 10.194 C 7.531 10.013,7.643 9.902,7.800 9.808 C 8.016 9.678,8.028 9.675,8.425 9.688 C 8.821 9.700,8.836 9.703,9.053 9.854 " fill="#373B4D" stroke="none" fill-rule="evenodd"></path></svg>