<svg width="24" height="24" viewBox="0 0 24 24" fill="none" xmlns="http://www.w3.org/2000/svg"><path d="M9.720 3.722 C 3.863 3.754,3.221 3.769,2.973 3.879 C 2.780 3.964,2.637 4.158,2.520 4.492 C 2.420 4.774,2.420 4.933,2.519 5.150 C 2.646 5.430,2.790 5.586,3.141 5.824 C 3.464 6.044,3.475 6.056,3.496 6.235 C 3.509 6.337,3.539 8.616,3.563 11.300 L 3.608 16.180 3.751 16.418 C 3.952 16.749,4.434 17.312,4.666 17.484 C 5.287 17.947,5.345 17.958,7.331 17.996 C 8.228 18.014,8.972 18.039,8.986 18.052 C 8.999 18.066,8.757 18.343,8.447 18.668 C 7.489 19.676,7.280 19.982,7.280 20.372 C 7.280 20.960,7.729 21.463,8.326 21.544 C 8.771 21.605,9.214 21.254,11.308 19.185 L 11.995 18.505 12.893 19.387 C 14.105 20.577,14.889 21.291,15.131 21.422 C 15.532 21.640,16.027 21.540,16.402 21.164 C 16.651 20.913,16.740 20.691,16.731 20.335 C 16.723 19.997,16.580 19.780,15.822 18.960 C 15.241 18.331,15.027 18.079,15.053 18.053 C 15.067 18.039,15.758 18.013,16.589 17.995 C 17.420 17.977,18.226 17.943,18.380 17.920 C 18.535 17.897,18.772 17.824,18.911 17.756 C 19.265 17.584,19.812 17.053,20.136 16.566 L 20.393 16.180 20.417 12.900 C 20.430 11.096,20.452 8.814,20.466 7.829 L 20.492 6.039 20.728 5.913 C 21.033 5.750,21.303 5.511,21.403 5.313 C 21.510 5.104,21.546 4.696,21.478 4.454 C 21.439 4.312,21.356 4.191,21.148 3.972 L 20.870 3.680 17.885 3.687 C 16.243 3.691,12.569 3.706,9.720 3.722 M17.254 7.405 C 17.452 7.457,17.727 7.731,17.789 7.940 C 17.816 8.028,17.849 8.273,17.864 8.484 L 17.891 8.869 17.232 9.564 C 16.149 10.706,13.937 12.939,13.385 13.447 C 12.818 13.968,12.353 14.303,12.139 14.343 C 11.724 14.421,11.273 14.119,10.070 12.963 L 9.601 12.512 8.970 13.111 C 8.141 13.900,7.903 14.100,7.644 14.228 C 7.114 14.490,6.523 14.275,6.238 13.716 C 6.176 13.595,6.160 13.481,6.160 13.166 L 6.160 12.769 6.333 12.534 C 6.764 11.951,8.307 10.416,8.941 9.940 L 9.180 9.761 9.572 9.760 C 10.004 9.760,10.093 9.789,10.400 10.033 C 10.643 10.225,11.174 10.702,11.630 11.137 L 12.005 11.494 13.053 10.455 C 14.517 9.002,15.472 8.079,15.939 7.665 L 16.338 7.310 16.719 7.337 C 16.929 7.352,17.169 7.383,17.254 7.405 " fill="#373B4D" stroke="none" fill-rule="evenodd"></path></svg>