<svg width="24" height="24" viewBox="0 0 24 24" fill="none" xmlns="http://www.w3.org/2000/svg"><path d="M10.920 3.724 C 5.714 3.755,3.429 3.801,3.080 3.883 C 2.850 3.937,2.737 4.042,2.596 4.337 C 2.331 4.891,2.399 5.106,3.027 5.707 L 3.452 6.114 3.484 7.327 C 3.501 7.994,3.535 10.259,3.559 12.360 L 3.604 16.180 3.832 16.520 C 4.105 16.929,4.706 17.538,4.985 17.689 C 5.396 17.911,5.896 17.972,7.733 18.024 C 8.257 18.039,8.742 18.063,8.810 18.077 L 8.933 18.102 8.797 18.261 C 8.722 18.348,8.428 18.680,8.145 18.999 C 7.363 19.877,7.247 20.093,7.320 20.542 C 7.366 20.823,7.479 21.033,7.682 21.217 C 8.031 21.532,8.417 21.603,8.785 21.420 C 9.134 21.246,9.860 20.603,11.310 19.184 L 12.000 18.508 12.730 19.224 C 14.165 20.631,14.931 21.314,15.219 21.445 C 15.806 21.712,16.638 21.190,16.707 20.512 C 16.752 20.072,16.656 19.912,15.680 18.796 L 15.071 18.100 15.225 18.074 C 15.310 18.060,15.740 18.037,16.180 18.022 C 18.048 17.960,18.608 17.899,18.960 17.720 C 19.248 17.573,19.988 16.806,20.295 16.337 L 20.402 16.174 20.449 11.106 L 20.496 6.039 20.706 5.920 C 20.956 5.779,21.381 5.374,21.439 5.222 C 21.462 5.163,21.480 4.967,21.480 4.787 C 21.480 4.399,21.442 4.313,21.108 3.940 L 20.875 3.680 18.528 3.687 C 17.236 3.690,13.813 3.707,10.920 3.724 M17.337 7.478 C 17.683 7.646,17.787 7.877,17.864 8.648 L 17.891 8.916 15.435 11.372 C 13.393 13.414,12.923 13.865,12.640 14.049 C 12.189 14.343,12.046 14.392,11.850 14.324 C 11.454 14.185,11.050 13.877,10.131 13.013 L 9.601 12.515 8.891 13.177 C 8.052 13.959,7.769 14.180,7.503 14.260 C 7.107 14.380,6.818 14.321,6.528 14.059 C 6.277 13.834,6.207 13.657,6.175 13.169 L 6.149 12.778 6.405 12.460 C 6.734 12.050,8.328 10.455,8.806 10.057 L 9.175 9.750 9.575 9.777 C 9.794 9.792,10.029 9.828,10.097 9.856 C 10.270 9.929,10.641 10.234,11.371 10.906 L 12.002 11.486 13.551 9.971 C 15.395 8.167,15.957 7.632,16.176 7.472 C 16.337 7.354,16.346 7.352,16.743 7.369 C 17.058 7.382,17.188 7.407,17.337 7.478 " fill="#373B4D" stroke="none" fill-rule="evenodd"></path></svg>