<svg width="24" height="24" viewBox="0 0 24 24" fill="none" xmlns="http://www.w3.org/2000/svg"><path d="M8.900 2.516 L 7.620 2.540 7.416 2.653 C 6.969 2.901,6.452 3.422,6.238 3.840 C 6.039 4.231,6.030 4.330,6.011 6.423 L 5.993 8.387 5.258 8.433 C 4.413 8.485,4.036 8.558,3.706 8.732 C 3.445 8.870,2.966 9.318,2.762 9.616 C 2.496 10.004,2.474 10.115,2.437 11.240 C 2.419 11.801,2.403 12.854,2.403 13.580 L 2.401 14.900 2.584 15.240 C 2.888 15.808,3.206 16.168,3.660 16.460 C 4.042 16.705,4.546 16.798,5.504 16.799 L 5.989 16.800 6.012 18.150 C 6.037 19.597,6.060 19.794,6.261 20.219 C 6.466 20.651,7.031 21.156,7.669 21.475 L 7.918 21.600 12.000 21.600 L 16.082 21.600 16.331 21.475 C 17.198 21.041,17.704 20.482,17.902 19.740 C 17.953 19.552,17.972 19.209,17.989 18.156 L 18.011 16.812 18.796 16.788 C 19.647 16.763,19.844 16.726,20.247 16.512 C 20.516 16.370,21.040 15.870,21.245 15.559 C 21.463 15.230,21.523 15.008,21.567 14.360 C 21.610 13.732,21.577 10.906,21.521 10.406 C 21.472 9.968,21.268 9.588,20.860 9.175 C 20.305 8.611,19.970 8.505,18.476 8.417 L 18.011 8.390 17.987 6.585 C 17.958 4.512,17.931 4.172,17.761 3.809 C 17.613 3.493,17.138 3.012,16.716 2.749 C 16.431 2.572,16.406 2.565,16.040 2.543 C 15.451 2.509,10.331 2.490,8.900 2.516 M15.600 6.600 L 15.600 8.400 12.000 8.400 L 8.400 8.400 8.400 6.600 L 8.400 4.800 12.000 4.800 L 15.600 4.800 15.600 6.600 M15.600 16.800 L 15.600 19.200 12.000 19.200 L 8.400 19.200 8.400 16.800 L 8.400 14.400 12.000 14.400 L 15.600 14.400 15.600 16.800 " fill="#373B4D" stroke="none" fill-rule="evenodd"></path></svg>