<svg width="24" height="24" viewBox="0 0 24 24" fill="none" xmlns="http://www.w3.org/2000/svg"><path d="M8.400 2.555 C 7.586 2.580,7.578 2.581,7.365 2.699 C 7.119 2.835,6.560 3.370,6.362 3.657 C 6.111 4.022,6.074 4.181,6.037 5.040 C 6.019 5.469,6.003 6.399,6.002 7.106 L 6.000 8.392 5.530 8.420 C 4.848 8.459,4.247 8.543,3.990 8.633 C 3.668 8.746,3.362 8.963,3.042 9.306 C 2.697 9.676,2.533 9.995,2.481 10.400 C 2.460 10.565,2.430 11.636,2.415 12.780 L 2.388 14.860 2.500 15.080 C 2.908 15.883,3.531 16.493,4.107 16.652 C 4.448 16.747,4.952 16.800,5.503 16.800 L 5.987 16.800 6.013 18.070 C 6.042 19.505,6.074 19.797,6.237 20.147 C 6.448 20.598,7.087 21.183,7.709 21.495 L 7.917 21.600 12.000 21.600 L 16.083 21.600 16.291 21.495 C 16.893 21.193,17.465 20.676,17.712 20.211 C 17.927 19.804,17.959 19.565,17.987 18.116 L 18.012 16.812 18.736 16.787 C 19.917 16.746,20.172 16.653,20.787 16.042 C 21.404 15.429,21.503 15.208,21.561 14.320 C 21.610 13.561,21.609 12.276,21.559 11.186 C 21.503 9.971,21.408 9.722,20.774 9.119 C 20.251 8.623,19.901 8.520,18.390 8.417 L 18.000 8.390 17.999 7.325 C 17.998 6.001,17.939 4.491,17.877 4.200 C 17.806 3.868,17.667 3.629,17.353 3.298 C 17.040 2.969,16.628 2.674,16.380 2.602 C 16.200 2.549,9.838 2.512,8.400 2.555 M15.600 6.600 L 15.600 8.400 12.000 8.400 L 8.400 8.400 8.400 6.600 L 8.400 4.800 12.000 4.800 L 15.600 4.800 15.600 6.600 M15.600 16.800 L 15.600 19.200 12.000 19.200 L 8.400 19.200 8.400 16.800 L 8.400 14.400 12.000 14.400 L 15.600 14.400 15.600 16.800 " fill="#373B4D" stroke="none" fill-rule="evenodd"></path></svg>