<svg width="24" height="24" viewBox="0 0 24 24" fill="none" xmlns="http://www.w3.org/2000/svg"><path d="M8.360 2.638 C 7.336 2.664,7.390 2.645,6.828 3.195 C 6.374 3.640,6.228 3.849,6.141 4.180 C 6.063 4.476,6.002 5.664,6.001 6.884 C 6.000 7.381,5.989 7.923,5.975 8.088 L 5.949 8.388 5.285 8.457 C 4.002 8.589,3.692 8.706,3.118 9.279 C 2.741 9.654,2.627 9.849,2.541 10.265 C 2.458 10.662,2.400 12.018,2.400 13.563 L 2.400 14.905 2.610 15.261 C 2.750 15.498,2.946 15.746,3.200 16.006 C 3.788 16.608,4.152 16.739,5.370 16.788 L 6.000 16.813 6.000 17.563 C 6.000 18.479,6.063 19.458,6.142 19.776 C 6.228 20.118,6.383 20.379,6.700 20.714 C 6.981 21.012,7.280 21.246,7.672 21.476 L 7.884 21.600 11.986 21.600 L 16.089 21.600 16.320 21.477 C 16.621 21.316,17.142 20.898,17.400 20.609 C 17.634 20.347,17.812 19.999,17.876 19.680 C 17.945 19.335,17.999 18.411,18.000 17.576 L 18.000 16.811 18.650 16.790 C 19.821 16.752,20.137 16.633,20.783 15.984 C 21.507 15.257,21.546 15.123,21.585 13.160 C 21.620 11.396,21.536 10.298,21.332 9.842 C 21.181 9.503,20.697 9.025,20.286 8.807 C 19.968 8.638,19.687 8.574,18.840 8.476 C 18.433 8.429,18.088 8.380,18.074 8.366 C 18.060 8.351,18.028 7.620,18.003 6.740 C 17.932 4.240,17.892 3.984,17.508 3.519 C 17.273 3.235,16.978 2.973,16.641 2.747 L 16.421 2.600 12.821 2.608 C 10.840 2.613,8.833 2.627,8.360 2.638 M15.600 6.600 L 15.600 8.400 12.000 8.400 L 8.400 8.400 8.400 6.600 L 8.400 4.800 12.000 4.800 L 15.600 4.800 15.600 6.600 M15.600 16.800 L 15.600 19.200 12.000 19.200 L 8.400 19.200 8.400 16.800 L 8.400 14.400 12.000 14.400 L 15.600 14.400 15.600 16.800 " fill="#373B4D" stroke="none" fill-rule="evenodd"></path></svg>