<svg width="24" height="24" viewBox="0 0 24 24" fill="none" xmlns="http://www.w3.org/2000/svg"><path d="M9.260 2.638 C 7.672 2.658,7.528 2.666,7.380 2.737 C 7.169 2.838,6.395 3.614,6.280 3.840 C 6.078 4.236,6.044 4.582,6.003 6.691 C 5.985 7.611,5.964 8.370,5.955 8.378 C 5.947 8.386,5.733 8.413,5.480 8.439 C 4.033 8.585,3.670 8.718,3.082 9.321 C 2.755 9.655,2.613 9.909,2.540 10.291 C 2.456 10.731,2.400 12.043,2.400 13.564 L 2.400 14.917 2.577 15.209 C 2.930 15.789,3.529 16.383,3.940 16.559 C 4.276 16.703,4.939 16.798,5.624 16.799 L 5.988 16.800 6.013 17.950 C 6.048 19.605,6.106 19.926,6.456 20.417 C 6.687 20.740,7.042 21.063,7.497 21.364 L 7.854 21.600 11.969 21.600 C 16.673 21.600,16.132 21.645,16.720 21.209 C 17.359 20.735,17.726 20.260,17.858 19.735 C 17.939 19.415,17.999 18.498,18.000 17.576 L 18.000 16.812 18.670 16.787 C 19.810 16.743,20.119 16.628,20.736 16.023 C 21.500 15.273,21.543 15.124,21.585 13.100 C 21.622 11.339,21.534 10.291,21.310 9.803 C 21.205 9.576,20.657 9.027,20.358 8.851 C 20.068 8.680,19.687 8.587,18.840 8.481 C 18.455 8.432,18.124 8.377,18.104 8.358 C 18.084 8.339,18.053 7.922,18.035 7.432 C 17.927 4.507,17.895 4.165,17.694 3.797 C 17.548 3.529,17.100 3.072,16.724 2.808 L 16.427 2.600 13.704 2.608 C 12.206 2.613,10.206 2.626,9.260 2.638 M15.600 6.600 L 15.600 8.400 12.000 8.400 L 8.400 8.400 8.400 6.600 L 8.400 4.800 12.000 4.800 L 15.600 4.800 15.600 6.600 M15.600 16.800 L 15.600 19.200 12.000 19.200 L 8.400 19.200 8.400 16.800 L 8.400 14.400 12.000 14.400 L 15.600 14.400 15.600 16.800 " fill="#373B4D" stroke="none" fill-rule="evenodd"></path></svg>