<svg width="24" height="24" viewBox="0 0 24 24" fill="none" xmlns="http://www.w3.org/2000/svg"><path d="M7.680 2.534 C 7.201 2.667,6.480 3.318,6.224 3.848 C 6.138 4.027,6.066 4.254,6.042 4.422 C 6.020 4.576,6.001 5.526,6.001 6.544 L 6.000 8.388 5.390 8.414 C 4.617 8.448,4.069 8.530,3.795 8.654 C 3.430 8.818,2.890 9.345,2.669 9.751 C 2.431 10.188,2.426 10.250,2.423 12.680 L 2.420 14.900 2.584 15.240 C 2.799 15.685,3.066 16.033,3.370 16.261 C 3.962 16.706,4.142 16.758,5.210 16.789 L 6.000 16.812 6.000 17.936 C 6.001 19.559,6.063 19.956,6.389 20.440 C 6.665 20.848,7.010 21.144,7.476 21.372 L 7.900 21.580 12.000 21.580 L 16.100 21.580 16.526 21.371 C 16.993 21.143,17.326 20.856,17.610 20.440 C 17.937 19.959,17.999 19.560,18.000 17.935 L 18.000 16.811 18.810 16.791 C 19.554 16.772,19.644 16.762,19.916 16.666 C 20.316 16.524,20.539 16.373,20.889 16.007 C 21.205 15.676,21.385 15.393,21.505 15.040 C 21.575 14.835,21.580 14.672,21.576 12.680 C 21.573 11.179,21.557 10.462,21.523 10.280 C 21.443 9.855,21.065 9.269,20.666 8.952 C 20.199 8.580,19.755 8.464,18.615 8.414 L 18.010 8.388 17.988 6.504 C 17.965 4.507,17.937 4.146,17.779 3.820 C 17.565 3.377,17.070 2.901,16.562 2.648 L 16.264 2.500 12.062 2.492 C 8.812 2.486,7.819 2.496,7.680 2.534 M15.600 6.600 L 15.600 8.400 12.000 8.400 L 8.400 8.400 8.400 6.600 L 8.400 4.800 12.000 4.800 L 15.600 4.800 15.600 6.600 M15.600 16.800 L 15.600 19.200 12.000 19.200 L 8.400 19.200 8.400 16.800 L 8.400 14.400 12.000 14.400 L 15.600 14.400 15.600 16.800 " fill="#373B4D" stroke="none" fill-rule="evenodd"></path></svg>