<svg width="24" height="24" viewBox="0 0 24 24" fill="none" xmlns="http://www.w3.org/2000/svg"><path d="M7.720 2.557 C 7.448 2.596,7.180 2.775,6.758 3.197 C 6.335 3.622,6.156 3.912,6.080 4.300 C 6.050 4.453,6.025 5.241,6.011 6.466 L 5.989 8.392 5.505 8.419 C 4.020 8.503,3.693 8.621,3.033 9.311 C 2.667 9.695,2.531 9.956,2.479 10.383 C 2.457 10.557,2.428 11.636,2.414 12.780 L 2.388 14.860 2.500 15.080 C 2.889 15.850,3.412 16.397,3.954 16.603 C 4.283 16.728,4.824 16.799,5.444 16.800 L 5.987 16.800 6.013 18.130 C 6.040 19.565,6.072 19.834,6.261 20.209 C 6.480 20.646,7.053 21.164,7.644 21.462 L 7.918 21.600 12.003 21.600 L 16.088 21.600 16.394 21.440 C 17.023 21.111,17.473 20.688,17.724 20.192 C 17.943 19.758,17.962 19.613,17.988 18.156 L 18.012 16.812 18.776 16.788 C 19.944 16.750,20.176 16.663,20.822 16.020 C 21.267 15.577,21.413 15.344,21.503 14.931 C 21.587 14.550,21.618 12.847,21.567 11.440 C 21.531 10.455,21.514 10.267,21.441 10.060 C 21.329 9.738,21.140 9.462,20.804 9.130 C 20.329 8.659,19.937 8.526,18.780 8.441 C 18.472 8.419,18.173 8.400,18.116 8.400 L 18.013 8.400 17.987 6.610 C 17.959 4.711,17.927 4.248,17.800 3.911 C 17.667 3.559,17.145 3.014,16.661 2.723 C 16.469 2.608,16.380 2.582,16.087 2.556 C 15.666 2.519,7.974 2.520,7.720 2.557 M15.600 6.600 L 15.600 8.400 12.000 8.400 L 8.400 8.400 8.400 6.600 L 8.400 4.800 12.000 4.800 L 15.600 4.800 15.600 6.600 M15.600 16.800 L 15.600 19.200 12.000 19.200 L 8.400 19.200 8.400 16.800 L 8.400 14.400 12.000 14.400 L 15.600 14.400 15.600 16.800 " fill="#373B4D" stroke="none" fill-rule="evenodd"></path></svg>