<svg width="24" height="24" viewBox="0 0 24 24" fill="none" xmlns="http://www.w3.org/2000/svg"><path d="M8.240 2.518 C 7.670 2.538,7.604 2.549,7.420 2.646 C 6.926 2.908,6.335 3.541,6.161 3.995 C 6.025 4.350,6.001 4.743,6.000 6.624 L 6.000 8.389 5.430 8.416 C 4.050 8.483,3.717 8.594,3.137 9.176 C 2.747 9.568,2.554 9.887,2.481 10.260 C 2.459 10.370,2.429 11.444,2.414 12.646 L 2.387 14.832 2.530 15.133 C 2.814 15.731,3.170 16.147,3.677 16.475 C 4.025 16.700,4.339 16.763,5.245 16.790 L 5.991 16.812 6.010 18.156 C 6.028 19.365,6.038 19.532,6.115 19.817 C 6.162 19.991,6.245 20.210,6.301 20.305 C 6.558 20.743,7.006 21.139,7.564 21.418 L 7.928 21.600 12.002 21.600 L 16.076 21.600 16.473 21.398 C 17.239 21.007,17.705 20.484,17.887 19.810 C 17.962 19.533,17.973 19.357,17.990 18.156 L 18.009 16.811 18.815 16.789 C 19.677 16.765,19.806 16.740,20.275 16.503 C 20.531 16.373,21.056 15.865,21.249 15.560 C 21.523 15.127,21.551 14.995,21.578 13.978 C 21.592 13.473,21.587 12.430,21.568 11.660 C 21.536 10.361,21.527 10.244,21.445 10.034 C 21.234 9.492,20.762 8.950,20.304 8.725 C 19.944 8.548,19.623 8.487,18.750 8.432 L 18.000 8.384 17.999 7.162 C 17.997 5.537,17.942 4.324,17.858 4.042 C 17.822 3.922,17.734 3.733,17.662 3.622 C 17.483 3.343,17.024 2.921,16.673 2.713 L 16.380 2.540 14.840 2.515 C 12.989 2.485,9.103 2.486,8.240 2.518 M15.600 6.600 L 15.600 8.400 12.000 8.400 L 8.400 8.400 8.400 6.600 L 8.400 4.800 12.000 4.800 L 15.600 4.800 15.600 6.600 M15.600 16.800 L 15.600 19.200 12.000 19.200 L 8.400 19.200 8.400 16.800 L 8.400 14.400 12.000 14.400 L 15.600 14.400 15.600 16.800 " fill="#373B4D" stroke="none" fill-rule="evenodd"></path></svg>