<svg width="24" height="24" viewBox="0 0 24 24" fill="none" xmlns="http://www.w3.org/2000/svg"><path d="M8.380 2.440 C 7.862 2.462,7.746 2.480,7.533 2.569 C 6.889 2.838,6.367 3.386,6.129 4.045 L 6.022 4.340 6.009 6.364 L 5.995 8.389 5.188 8.412 C 4.156 8.442,3.876 8.516,3.372 8.897 C 2.964 9.204,2.677 9.607,2.513 10.100 C 2.420 10.380,2.420 10.384,2.420 12.600 L 2.420 14.820 2.517 15.115 C 2.747 15.812,3.345 16.421,4.045 16.669 C 4.318 16.766,4.402 16.775,5.167 16.791 L 5.994 16.808 6.009 18.234 C 6.024 19.657,6.024 19.661,6.130 19.955 C 6.381 20.657,6.988 21.253,7.685 21.483 L 7.980 21.580 12.000 21.580 L 16.020 21.580 16.315 21.483 C 17.012 21.253,17.619 20.657,17.870 19.955 C 17.976 19.661,17.976 19.657,17.991 18.234 L 18.006 16.808 18.833 16.791 C 19.598 16.775,19.682 16.766,19.955 16.669 C 20.655 16.421,21.253 15.812,21.483 15.115 L 21.580 14.820 21.580 12.600 C 21.580 10.384,21.580 10.380,21.487 10.100 C 21.325 9.611,21.031 9.201,20.620 8.891 C 20.125 8.517,19.840 8.442,18.813 8.412 L 18.006 8.389 17.990 6.364 C 17.973 4.137,17.977 4.172,17.710 3.670 C 17.564 3.392,17.164 2.973,16.864 2.781 C 16.476 2.532,16.277 2.477,15.640 2.438 C 14.988 2.398,9.306 2.399,8.380 2.440 M15.600 6.600 L 15.600 8.400 12.000 8.400 L 8.400 8.400 8.400 6.600 L 8.400 4.800 12.000 4.800 L 15.600 4.800 15.600 6.600 M15.600 16.800 L 15.600 19.200 12.000 19.200 L 8.400 19.200 8.400 16.800 L 8.400 14.400 12.000 14.400 L 15.600 14.400 15.600 16.800 " fill="#373B4D" stroke="none" fill-rule="evenodd"></path></svg>