<svg width="24" height="24" viewBox="0 0 24 24" fill="none" xmlns="http://www.w3.org/2000/svg"><path d="M7.613 2.637 C 7.401 2.672,7.184 2.823,6.800 3.203 C 6.145 3.851,6.083 4.017,6.038 5.260 C 6.019 5.766,6.003 6.569,6.002 7.044 C 6.001 7.519,5.989 8.017,5.975 8.150 L 5.949 8.393 5.625 8.419 C 4.947 8.474,4.320 8.563,4.072 8.639 C 3.721 8.748,3.395 8.969,3.052 9.332 C 2.716 9.687,2.616 9.865,2.536 10.247 C 2.458 10.622,2.401 12.023,2.401 13.600 L 2.401 14.900 2.558 15.180 C 2.885 15.764,3.433 16.336,3.860 16.538 C 4.167 16.683,4.629 16.761,5.347 16.788 L 6.000 16.813 6.001 17.516 C 6.001 18.466,6.067 19.532,6.142 19.822 C 6.288 20.385,6.839 20.996,7.585 21.422 L 7.898 21.600 11.993 21.600 L 16.089 21.600 16.314 21.479 C 16.843 21.197,17.504 20.587,17.700 20.201 C 17.755 20.091,17.828 19.898,17.861 19.771 C 17.936 19.486,17.999 18.456,17.999 17.510 L 18.000 16.800 18.430 16.800 C 19.276 16.799,19.858 16.694,20.232 16.473 C 20.553 16.284,21.150 15.673,21.312 15.370 C 21.521 14.976,21.560 14.667,21.587 13.180 C 21.619 11.421,21.538 10.328,21.342 9.858 C 21.184 9.480,20.669 8.977,20.220 8.762 C 19.914 8.615,19.535 8.538,18.715 8.455 C 18.355 8.419,18.056 8.386,18.050 8.382 C 18.045 8.378,18.022 7.638,17.999 6.737 C 17.942 4.490,17.906 4.135,17.690 3.760 C 17.535 3.489,17.016 2.976,16.697 2.777 L 16.413 2.600 12.097 2.605 C 9.722 2.608,7.705 2.622,7.613 2.637 M15.600 6.600 L 15.600 8.400 12.000 8.400 L 8.400 8.400 8.400 6.600 L 8.400 4.800 12.000 4.800 L 15.600 4.800 15.600 6.600 M15.600 16.800 L 15.600 19.200 12.000 19.200 L 8.400 19.200 8.400 16.800 L 8.400 14.400 12.000 14.400 L 15.600 14.400 15.600 16.800 " fill="#373B4D" stroke="none" fill-rule="evenodd"></path></svg>