<svg width="24" height="24" viewBox="0 0 24 24" fill="none" xmlns="http://www.w3.org/2000/svg"><path d="M10.840 3.101 C 7.753 3.533,5.174 5.408,3.857 8.180 C 3.285 9.382,3.024 10.563,3.026 11.940 C 3.026 12.975,3.151 13.758,3.466 14.709 C 4.082 16.571,5.342 18.234,6.940 19.296 C 8.614 20.407,10.717 20.985,12.559 20.838 C 14.567 20.677,16.239 20.018,17.680 18.818 C 19.059 17.670,19.995 16.334,20.513 14.776 C 20.846 13.772,20.977 12.955,20.975 11.880 C 20.974 10.532,20.712 9.383,20.118 8.128 C 19.588 7.007,18.683 5.852,17.740 5.092 C 16.611 4.182,15.164 3.491,13.815 3.218 C 12.975 3.048,11.606 2.994,10.840 3.101 M12.344 7.518 C 13.864 7.552,13.917 7.556,14.196 7.653 C 14.793 7.861,15.430 8.334,15.739 8.799 C 15.951 9.118,16.161 9.586,16.241 9.920 C 16.314 10.224,16.305 11.040,16.226 11.350 C 16.147 11.656,15.863 12.228,15.644 12.520 C 15.291 12.990,14.759 13.353,14.067 13.596 L 13.714 13.720 12.177 13.720 L 10.640 13.720 10.640 15.060 L 10.640 16.400 9.740 16.400 L 8.840 16.400 8.840 11.940 L 8.840 7.480 9.810 7.482 C 10.343 7.482,11.484 7.499,12.344 7.518 M10.640 10.574 L 10.640 11.920 11.630 11.918 C 12.175 11.916,12.867 11.901,13.170 11.884 L 13.719 11.853 13.946 11.677 C 14.208 11.473,14.419 11.186,14.484 10.947 C 14.547 10.712,14.508 10.297,14.402 10.071 C 14.279 9.813,14.051 9.565,13.794 9.413 L 13.580 9.286 12.110 9.257 L 10.640 9.229 10.640 10.574 " fill="#373B4D" stroke="none" fill-rule="evenodd"></path></svg>