<svg width="24" height="24" viewBox="0 0 24 24" fill="none" xmlns="http://www.w3.org/2000/svg"><path d="M11.340 3.024 C 10.006 3.162,9.038 3.428,8.007 3.942 C 6.997 4.445,6.222 5.011,5.488 5.780 C 2.955 8.433,2.297 12.244,3.794 15.598 C 5.028 18.363,7.641 20.310,10.760 20.786 C 11.390 20.882,12.610 20.882,13.240 20.786 C 15.279 20.475,17.011 19.604,18.421 18.182 C 21.801 14.775,21.860 9.316,18.556 5.825 C 17.174 4.364,15.338 3.410,13.320 3.102 C 12.913 3.040,11.664 2.991,11.340 3.024 M14.100 7.595 C 15.357 8.018,16.165 8.984,16.324 10.256 C 16.415 10.982,16.187 11.831,15.734 12.448 C 15.537 12.717,15.094 13.115,14.795 13.291 C 14.655 13.374,14.369 13.500,14.160 13.570 L 13.780 13.698 12.210 13.712 L 10.640 13.725 10.640 15.063 L 10.640 16.400 9.740 16.400 L 8.840 16.400 8.840 11.938 L 8.840 7.477 11.330 7.489 L 13.820 7.501 14.100 7.595 M10.640 10.577 L 10.640 11.920 12.053 11.920 C 13.631 11.920,13.666 11.915,14.020 11.648 C 14.405 11.357,14.612 10.845,14.527 10.389 C 14.440 9.918,14.171 9.575,13.727 9.366 L 13.500 9.260 12.070 9.247 L 10.640 9.233 10.640 10.577 " fill="#373B4D" stroke="none" fill-rule="evenodd"></path></svg>