<svg width="24" height="24" viewBox="0 0 24 24" fill="none" xmlns="http://www.w3.org/2000/svg"><path d="M11.020 3.068 C 8.912 3.344,7.109 4.198,5.690 5.593 C 4.540 6.722,3.668 8.228,3.283 9.747 C 2.602 12.433,3.214 15.273,4.947 17.467 C 5.198 17.785,5.917 18.516,6.234 18.777 C 7.997 20.227,10.364 20.997,12.575 20.839 C 14.837 20.677,16.744 19.812,18.344 18.221 C 18.886 17.682,19.161 17.355,19.507 16.840 C 20.866 14.813,21.327 12.194,20.738 9.837 C 20.093 7.255,18.370 5.126,15.980 3.957 C 15.002 3.478,13.947 3.173,12.960 3.082 C 12.527 3.043,11.283 3.033,11.020 3.068 M13.859 7.558 C 14.418 7.631,15.261 8.156,15.669 8.686 C 15.920 9.011,16.196 9.625,16.267 10.012 C 16.331 10.367,16.317 11.009,16.236 11.351 C 16.169 11.636,15.828 12.311,15.620 12.568 C 15.393 12.851,14.916 13.238,14.633 13.372 C 14.516 13.427,14.261 13.528,14.067 13.596 L 13.714 13.720 12.177 13.720 L 10.640 13.720 10.640 15.060 L 10.640 16.400 9.740 16.400 L 8.840 16.400 8.840 11.933 L 8.840 7.467 11.210 7.494 C 12.513 7.509,13.706 7.538,13.859 7.558 M10.640 10.578 L 10.640 11.929 12.090 11.909 C 13.030 11.897,13.593 11.873,13.690 11.843 C 13.888 11.781,14.278 11.415,14.394 11.183 C 14.716 10.538,14.447 9.781,13.756 9.385 L 13.572 9.280 12.106 9.253 L 10.640 9.227 10.640 10.578 " fill="#373B4D" stroke="none" fill-rule="evenodd"></path></svg>