<svg width="24" height="24" viewBox="0 0 24 24" fill="none" xmlns="http://www.w3.org/2000/svg"><path d="M13.440 2.444 C 13.157 2.499,12.776 2.708,12.543 2.935 C 12.168 3.301,12.002 3.755,12.000 4.420 C 11.998 4.909,11.933 5.225,11.790 5.445 C 11.645 5.669,11.270 5.945,11.067 5.978 C 10.997 5.989,10.031 6.004,8.920 6.011 L 6.900 6.023 6.691 6.132 C 6.425 6.270,6.212 6.483,6.107 6.716 C 6.029 6.892,6.024 6.995,6.000 9.001 L 5.974 11.102 5.839 11.355 C 5.591 11.820,5.236 12.000,4.563 12.000 C 4.041 12.001,3.708 12.061,3.402 12.212 C 2.303 12.753,2.075 14.217,2.956 15.079 C 3.356 15.471,3.656 15.564,4.699 15.620 C 5.035 15.638,5.179 15.664,5.312 15.730 C 5.545 15.847,5.739 16.043,5.869 16.293 L 5.976 16.500 5.998 18.620 C 6.020 20.733,6.020 20.741,6.112 20.912 C 6.236 21.145,6.490 21.390,6.714 21.494 C 6.897 21.579,6.936 21.580,9.000 21.580 L 11.100 21.580 11.288 21.487 C 11.528 21.369,11.770 21.127,11.885 20.890 C 11.961 20.733,11.980 20.606,12.005 20.082 C 12.023 19.717,12.061 19.375,12.098 19.254 C 12.234 18.808,12.647 18.354,13.091 18.164 C 13.882 17.825,14.802 18.093,15.275 18.802 C 15.507 19.149,15.560 19.363,15.595 20.082 C 15.620 20.606,15.639 20.733,15.715 20.890 C 15.830 21.127,16.072 21.369,16.312 21.487 L 16.500 21.580 18.600 21.580 L 20.700 21.580 20.888 21.487 C 21.127 21.369,21.369 21.127,21.487 20.888 L 21.580 20.700 21.580 18.600 C 21.580 16.692,21.574 16.486,21.511 16.346 C 21.394 16.089,21.215 15.899,20.962 15.764 C 20.731 15.641,20.694 15.634,20.069 15.600 C 19.355 15.562,19.133 15.505,18.781 15.273 C 18.552 15.121,18.301 14.814,18.176 14.532 C 17.746 13.568,18.222 12.467,19.220 12.116 C 19.403 12.052,19.607 12.025,20.082 12.004 C 20.608 11.979,20.732 11.961,20.890 11.885 C 21.127 11.770,21.369 11.528,21.487 11.288 L 21.580 11.100 21.580 9.000 C 21.580 7.092,21.574 6.886,21.511 6.746 C 21.393 6.486,21.215 6.299,20.952 6.159 L 20.700 6.025 18.600 6.000 C 16.593 5.976,16.492 5.972,16.316 5.893 C 16.084 5.788,15.868 5.574,15.738 5.316 C 15.648 5.139,15.632 5.040,15.599 4.461 C 15.558 3.748,15.502 3.528,15.275 3.186 C 14.896 2.613,14.140 2.307,13.440 2.444 " fill="#373B4D" stroke="none" fill-rule="evenodd"></path></svg>