<svg width="24" height="24" viewBox="0 0 24 24" fill="none" xmlns="http://www.w3.org/2000/svg"><path d="M13.379 2.536 C 13.018 2.649,12.422 3.122,12.273 3.413 C 12.230 3.498,12.105 3.928,11.996 4.367 C 11.785 5.221,11.716 5.398,11.517 5.597 C 11.206 5.908,10.895 5.962,8.840 6.059 C 7.233 6.135,6.891 6.173,6.641 6.299 C 6.220 6.513,6.109 6.735,6.040 7.498 C 5.986 8.092,5.921 9.750,5.920 10.541 L 5.920 11.181 5.681 11.446 C 5.540 11.602,5.368 11.745,5.260 11.796 C 5.160 11.843,4.747 11.961,4.342 12.059 C 3.938 12.156,3.521 12.277,3.416 12.326 C 3.002 12.521,2.594 13.076,2.479 13.603 C 2.396 13.981,2.527 14.387,2.881 14.856 C 3.159 15.225,3.407 15.341,4.580 15.655 C 5.355 15.862,5.560 15.968,5.695 16.231 C 5.813 16.461,5.859 16.890,5.961 18.720 C 6.017 19.735,6.072 20.376,6.127 20.655 C 6.206 21.061,6.546 21.403,6.944 21.478 C 7.057 21.499,8.034 21.535,9.115 21.559 L 11.081 21.603 11.250 21.486 C 11.629 21.223,11.775 20.971,11.965 20.255 C 12.311 18.946,12.381 18.798,12.836 18.406 L 13.122 18.160 13.797 18.160 L 14.471 18.160 14.661 18.317 C 14.899 18.514,15.178 18.852,15.274 19.060 C 15.315 19.148,15.415 19.472,15.497 19.780 C 15.835 21.048,15.899 21.191,16.189 21.352 C 16.500 21.523,16.822 21.565,18.021 21.588 C 19.138 21.610,20.440 21.558,20.722 21.480 C 20.889 21.434,21.254 21.119,21.422 20.878 L 21.540 20.707 21.540 18.763 C 21.539 15.928,21.571 15.998,20.094 15.636 C 19.016 15.372,18.797 15.266,18.467 14.844 C 18.187 14.487,18.160 14.411,18.160 13.989 C 18.160 13.097,18.377 12.674,18.997 12.362 C 19.128 12.295,19.557 12.157,19.948 12.055 C 20.814 11.830,20.992 11.750,21.340 11.431 L 21.611 11.182 21.587 9.481 C 21.551 6.883,21.495 6.552,21.055 6.326 C 20.842 6.217,20.260 6.141,19.180 6.080 C 16.279 5.919,16.140 5.890,15.925 5.400 C 15.882 5.301,15.763 4.932,15.661 4.580 C 15.290 3.296,15.290 3.297,15.058 3.085 C 14.820 2.867,14.372 2.633,14.022 2.542 C 13.740 2.469,13.597 2.467,13.379 2.536 " fill="#373B4D" stroke="none" fill-rule="evenodd"></path></svg>