<svg width="24" height="24" viewBox="0 0 24 24" fill="none" xmlns="http://www.w3.org/2000/svg"><path d="M13.390 2.483 C 13.033 2.567,12.532 2.910,12.329 3.209 C 12.155 3.464,12.086 3.715,11.999 4.400 C 11.887 5.291,11.872 5.333,11.563 5.643 C 11.388 5.818,11.257 5.915,11.172 5.932 C 11.102 5.946,10.400 5.975,9.612 5.998 C 6.873 6.075,6.847 6.076,6.702 6.137 C 6.521 6.212,6.229 6.507,6.117 6.725 C 6.031 6.894,6.028 6.955,5.984 9.039 C 5.943 11.055,5.935 11.187,5.862 11.300 C 5.644 11.634,5.391 11.858,5.165 11.918 C 5.085 11.939,4.795 11.975,4.520 12.000 C 3.665 12.074,3.329 12.200,2.944 12.588 C 2.697 12.838,2.548 13.113,2.454 13.493 C 2.397 13.727,2.394 13.803,2.436 14.033 C 2.559 14.702,3.020 15.270,3.592 15.458 C 3.708 15.496,4.122 15.568,4.512 15.617 C 4.921 15.668,5.271 15.733,5.340 15.770 C 5.511 15.861,5.786 16.155,5.854 16.320 C 5.937 16.521,5.956 16.848,6.002 18.819 C 6.024 19.787,6.053 20.649,6.067 20.735 C 6.099 20.933,6.359 21.259,6.609 21.413 C 6.782 21.520,6.835 21.530,7.427 21.568 C 7.775 21.590,8.754 21.601,9.602 21.592 L 11.145 21.576 11.328 21.469 C 11.574 21.325,11.822 21.036,11.897 20.807 C 11.930 20.704,11.986 20.332,12.021 19.980 C 12.075 19.441,12.104 19.300,12.201 19.088 C 12.349 18.768,12.689 18.409,13.012 18.235 C 13.259 18.101,13.263 18.100,13.800 18.100 C 14.289 18.100,14.358 18.109,14.535 18.196 C 14.831 18.342,15.218 18.726,15.361 19.016 C 15.462 19.221,15.497 19.371,15.561 19.882 C 15.688 20.889,15.707 20.953,15.975 21.233 C 16.226 21.497,16.304 21.523,16.956 21.568 C 17.806 21.627,20.726 21.580,20.871 21.505 C 20.989 21.444,21.368 21.058,21.512 20.854 C 21.599 20.728,21.600 20.717,21.599 19.054 C 21.598 17.227,21.560 16.475,21.456 16.256 C 21.375 16.087,21.117 15.856,20.897 15.756 C 20.802 15.713,20.508 15.656,20.197 15.620 C 19.474 15.537,19.212 15.488,19.007 15.398 C 18.784 15.300,18.405 14.902,18.234 14.587 C 18.101 14.342,18.100 14.336,18.100 13.800 C 18.100 13.311,18.109 13.242,18.196 13.065 C 18.314 12.824,18.707 12.398,18.932 12.267 C 19.171 12.127,19.342 12.088,20.020 12.018 C 20.350 11.984,20.679 11.940,20.750 11.921 C 20.962 11.865,21.264 11.614,21.442 11.348 L 21.608 11.100 21.588 9.080 C 21.575 7.838,21.550 6.983,21.523 6.861 C 21.472 6.630,21.327 6.434,21.070 6.249 C 20.823 6.071,20.634 6.053,18.480 6.001 C 17.501 5.977,16.628 5.947,16.540 5.934 C 16.195 5.884,15.844 5.574,15.741 5.229 C 15.713 5.136,15.669 4.898,15.643 4.700 C 15.489 3.550,15.433 3.370,15.115 3.022 C 14.707 2.576,13.972 2.346,13.390 2.483 " fill="#373B4D" stroke="none" fill-rule="evenodd"></path></svg>