<svg width="24" height="24" viewBox="0 0 24 24" fill="none" xmlns="http://www.w3.org/2000/svg"><path d="M13.337 2.516 C 12.971 2.648,12.450 3.039,12.302 3.294 C 12.191 3.486,12.081 3.899,11.961 4.580 C 11.915 4.844,11.856 5.130,11.830 5.216 C 11.769 5.423,11.442 5.774,11.233 5.858 C 11.038 5.936,10.493 5.976,8.760 6.040 C 7.265 6.095,6.808 6.133,6.643 6.219 C 6.482 6.302,6.223 6.559,6.141 6.718 C 6.054 6.887,6.012 7.515,5.955 9.500 L 5.907 11.180 5.798 11.341 C 5.666 11.536,5.354 11.829,5.228 11.877 C 5.177 11.896,4.894 11.951,4.598 11.998 C 3.584 12.160,3.379 12.232,3.049 12.533 C 2.792 12.769,2.590 13.099,2.483 13.459 C 2.401 13.734,2.396 13.795,2.436 13.994 C 2.528 14.452,2.857 14.975,3.214 15.231 C 3.424 15.382,3.644 15.456,4.187 15.560 C 5.184 15.749,5.339 15.795,5.516 15.946 C 5.861 16.241,5.892 16.402,5.960 18.280 C 6.011 19.699,6.069 20.557,6.129 20.800 C 6.186 21.029,6.561 21.414,6.789 21.477 C 7.195 21.589,10.737 21.635,11.180 21.534 C 11.250 21.518,11.401 21.406,11.544 21.264 C 11.838 20.969,11.873 20.875,12.040 19.927 C 12.202 19.003,12.333 18.758,12.885 18.343 L 13.128 18.160 13.800 18.160 L 14.471 18.160 14.706 18.333 C 14.927 18.496,15.138 18.725,15.290 18.967 C 15.365 19.086,15.476 19.519,15.600 20.180 C 15.706 20.742,15.776 20.955,15.921 21.156 C 16.181 21.514,16.420 21.563,18.040 21.589 C 19.428 21.610,20.634 21.557,20.852 21.465 C 21.001 21.402,21.395 21.000,21.504 20.799 C 21.573 20.673,21.581 20.546,21.593 19.441 C 21.607 18.115,21.552 16.724,21.475 16.416 C 21.440 16.276,21.375 16.171,21.243 16.039 C 21.022 15.818,20.778 15.735,19.920 15.585 C 19.104 15.443,18.947 15.385,18.697 15.135 C 18.583 15.021,18.404 14.808,18.299 14.661 L 18.108 14.393 18.135 13.793 C 18.165 13.122,18.193 13.035,18.477 12.713 C 18.711 12.447,18.985 12.258,19.240 12.186 C 19.361 12.152,19.721 12.079,20.040 12.024 C 20.918 11.873,21.008 11.830,21.390 11.395 L 21.600 11.155 21.597 10.027 C 21.594 8.477,21.538 6.974,21.476 6.789 C 21.402 6.565,21.191 6.343,20.957 6.243 C 20.689 6.127,20.360 6.098,18.480 6.020 C 17.633 5.985,16.818 5.939,16.669 5.918 C 15.980 5.821,15.862 5.652,15.600 4.380 C 15.510 3.940,15.397 3.499,15.349 3.400 C 15.147 2.976,14.605 2.618,13.985 2.500 C 13.599 2.426,13.586 2.426,13.337 2.516 " fill="#373B4D" stroke="none" fill-rule="evenodd"></path></svg>