<svg width="24" height="24" viewBox="0 0 24 24" fill="none" xmlns="http://www.w3.org/2000/svg"><path d="M13.371 2.498 C 13.029 2.605,12.506 2.983,12.311 3.265 C 12.192 3.437,12.089 3.829,11.960 4.600 C 11.852 5.250,11.821 5.339,11.627 5.549 C 11.395 5.801,11.274 5.877,11.033 5.920 C 10.916 5.941,10.100 5.985,9.220 6.019 C 6.771 6.111,6.790 6.109,6.583 6.246 C 6.353 6.399,6.138 6.666,6.085 6.862 C 6.042 7.028,5.981 8.385,5.938 10.140 L 5.913 11.180 5.776 11.384 C 5.629 11.602,5.390 11.815,5.219 11.880 C 5.161 11.902,4.821 11.964,4.463 12.018 C 4.104 12.071,3.709 12.151,3.583 12.196 C 3.048 12.384,2.618 12.891,2.455 13.526 C 2.403 13.732,2.400 13.813,2.439 14.016 C 2.512 14.391,2.705 14.744,3.000 15.044 C 3.315 15.364,3.492 15.438,4.272 15.579 C 5.184 15.744,5.276 15.767,5.458 15.883 C 5.685 16.027,5.836 16.286,5.880 16.608 C 5.899 16.747,5.934 17.427,5.958 18.120 C 6.025 20.054,6.072 20.711,6.156 20.899 C 6.241 21.090,6.546 21.381,6.752 21.468 C 7.064 21.600,10.797 21.643,11.214 21.519 C 11.415 21.460,11.701 21.172,11.823 20.905 C 11.886 20.767,11.954 20.470,12.020 20.038 C 12.076 19.676,12.141 19.317,12.165 19.240 C 12.264 18.927,12.566 18.561,12.956 18.285 L 13.132 18.160 13.792 18.160 L 14.453 18.160 14.646 18.284 C 14.904 18.449,15.232 18.814,15.345 19.060 C 15.398 19.176,15.489 19.556,15.560 19.960 C 15.715 20.834,15.765 20.989,15.963 21.214 C 16.248 21.537,16.626 21.599,18.300 21.597 C 19.889 21.595,20.719 21.549,20.908 21.451 C 21.101 21.352,21.507 20.874,21.560 20.684 C 21.608 20.511,21.609 18.468,21.562 17.340 C 21.524 16.439,21.484 16.270,21.253 16.032 C 21.061 15.836,20.807 15.733,20.333 15.658 C 19.496 15.525,19.098 15.434,18.930 15.336 C 18.761 15.237,18.481 14.930,18.237 14.576 L 18.108 14.389 18.131 13.773 C 18.153 13.170,18.156 13.153,18.277 12.964 C 18.445 12.703,18.839 12.334,19.049 12.241 C 19.211 12.169,19.435 12.123,20.314 11.980 C 20.873 11.888,21.043 11.801,21.349 11.443 L 21.609 11.140 21.585 9.200 C 21.571 8.133,21.544 7.146,21.524 7.007 C 21.449 6.479,21.129 6.192,20.536 6.121 C 20.362 6.101,19.464 6.055,18.540 6.020 C 16.654 5.949,16.418 5.924,16.160 5.768 C 15.884 5.602,15.784 5.362,15.615 4.461 C 15.538 4.048,15.439 3.613,15.395 3.495 C 15.211 3.005,14.672 2.615,14.022 2.501 C 13.608 2.429,13.591 2.429,13.371 2.498 " fill="#373B4D" stroke="none" fill-rule="evenodd"></path></svg>