<svg width="24" height="24" viewBox="0 0 24 24" fill="none" xmlns="http://www.w3.org/2000/svg"><path d="M13.355 2.535 C 13.043 2.647,12.505 3.041,12.346 3.274 C 12.235 3.437,12.134 3.758,11.981 4.440 C 11.811 5.192,11.733 5.391,11.524 5.600 C 11.226 5.897,10.883 5.962,9.180 6.040 C 7.061 6.136,6.928 6.149,6.644 6.292 C 6.307 6.460,6.175 6.629,6.102 6.982 C 6.029 7.335,5.967 8.447,5.934 9.980 L 5.909 11.180 5.711 11.425 C 5.437 11.766,5.257 11.852,4.434 12.037 C 3.466 12.253,3.312 12.316,3.020 12.615 C 2.741 12.899,2.588 13.166,2.496 13.522 C 2.387 13.949,2.496 14.348,2.847 14.816 C 3.176 15.252,3.349 15.337,4.528 15.637 C 5.624 15.916,5.743 16.023,5.839 16.820 C 5.860 16.996,5.905 17.644,5.939 18.260 C 6.068 20.598,6.096 20.813,6.302 21.065 C 6.520 21.332,6.684 21.438,6.946 21.484 C 7.075 21.506,8.062 21.540,9.139 21.558 L 11.098 21.591 11.263 21.478 C 11.672 21.197,11.813 20.927,12.035 20.000 C 12.289 18.942,12.369 18.789,12.889 18.356 L 13.124 18.160 13.797 18.160 L 14.471 18.160 14.692 18.342 C 14.950 18.555,15.209 18.877,15.303 19.102 C 15.340 19.189,15.466 19.635,15.583 20.093 C 15.701 20.551,15.836 20.988,15.882 21.064 C 16.148 21.493,16.649 21.600,18.394 21.600 C 19.543 21.600,20.600 21.538,20.787 21.460 C 20.977 21.380,21.397 20.972,21.485 20.780 C 21.552 20.633,21.558 20.485,21.559 18.920 C 21.559 17.069,21.529 16.614,21.382 16.293 C 21.222 15.944,21.014 15.843,19.960 15.602 C 19.069 15.398,18.830 15.283,18.515 14.908 C 18.181 14.510,18.139 14.405,18.148 14.000 C 18.165 13.242,18.272 12.925,18.620 12.604 C 18.890 12.356,19.205 12.228,20.060 12.020 C 20.884 11.820,20.959 11.785,21.354 11.419 L 21.600 11.191 21.599 10.026 C 21.599 8.750,21.545 7.408,21.478 6.999 C 21.358 6.262,21.120 6.175,18.926 6.061 C 16.762 5.949,16.293 5.886,16.087 5.680 C 15.948 5.541,15.867 5.323,15.580 4.300 C 15.456 3.860,15.322 3.426,15.282 3.334 C 15.115 2.957,14.178 2.474,13.628 2.482 C 13.558 2.483,13.435 2.507,13.355 2.535 " fill="#373B4D" stroke="none" fill-rule="evenodd"></path></svg>