<svg width="24" height="24" viewBox="0 0 24 24" fill="none" xmlns="http://www.w3.org/2000/svg"><path d="M13.301 2.545 C 12.867 2.734,12.414 3.097,12.277 3.367 C 12.191 3.534,12.050 4.074,11.918 4.740 C 11.820 5.238,11.743 5.415,11.533 5.624 C 11.237 5.920,11.002 5.958,8.960 6.041 C 7.590 6.096,6.851 6.154,6.695 6.220 C 6.521 6.292,6.222 6.572,6.145 6.734 C 6.057 6.921,6.009 7.615,5.953 9.525 L 5.905 11.190 5.711 11.435 C 5.409 11.819,5.320 11.861,4.483 12.023 C 3.653 12.183,3.404 12.265,3.147 12.461 C 2.921 12.634,2.599 13.109,2.504 13.413 C 2.337 13.943,2.531 14.539,3.032 15.040 C 3.346 15.354,3.405 15.378,4.480 15.619 C 5.285 15.800,5.535 15.912,5.687 16.160 C 5.841 16.411,5.866 16.629,5.959 18.480 C 6.045 20.198,6.090 20.691,6.178 20.902 C 6.249 21.070,6.530 21.351,6.698 21.422 C 6.950 21.527,7.516 21.560,9.280 21.570 L 11.060 21.580 11.254 21.485 C 11.377 21.424,11.510 21.310,11.619 21.170 C 11.812 20.924,11.894 20.684,12.063 19.860 C 12.237 19.008,12.374 18.750,12.845 18.382 L 13.128 18.160 13.800 18.160 L 14.473 18.160 14.666 18.314 C 14.944 18.534,15.180 18.803,15.292 19.026 C 15.345 19.133,15.456 19.526,15.539 19.900 C 15.753 20.871,15.812 21.042,15.998 21.233 C 16.202 21.443,16.438 21.515,17.080 21.561 C 18.212 21.642,20.611 21.579,20.837 21.461 C 20.988 21.384,21.420 20.955,21.496 20.808 C 21.585 20.635,21.615 19.391,21.566 17.880 C 21.519 16.450,21.494 16.307,21.251 16.074 C 21.020 15.851,20.818 15.771,20.152 15.638 C 19.037 15.414,18.926 15.369,18.600 15.013 C 18.119 14.488,18.082 14.376,18.155 13.665 C 18.219 13.035,18.244 12.968,18.525 12.685 C 18.919 12.286,19.028 12.240,20.062 12.022 C 20.882 11.849,20.917 11.834,21.284 11.489 L 21.613 11.180 21.586 9.360 C 21.558 7.402,21.524 6.917,21.394 6.649 C 21.181 6.207,20.854 6.132,18.740 6.041 C 16.855 5.960,16.391 5.907,16.151 5.745 C 15.939 5.602,15.845 5.370,15.600 4.379 C 15.468 3.846,15.330 3.382,15.281 3.302 C 15.043 2.916,14.339 2.538,13.720 2.462 C 13.580 2.445,13.487 2.463,13.301 2.545 " fill="#373B4D" stroke="none" fill-rule="evenodd"></path></svg>