<svg width="24" height="24" viewBox="0 0 24 24" fill="none" xmlns="http://www.w3.org/2000/svg"><path d="M10.300 3.040 C 9.513 3.060,9.396 3.072,9.194 3.153 C 8.685 3.356,8.229 3.726,7.920 4.188 C 7.584 4.690,7.553 4.844,7.530 6.110 L 7.510 7.200 9.735 7.200 L 11.960 7.200 11.960 7.438 L 11.960 7.675 8.510 7.688 L 5.060 7.700 4.756 7.808 C 4.345 7.953,4.018 8.152,3.743 8.422 C 3.455 8.705,3.287 8.970,3.125 9.391 L 2.998 9.722 3.009 12.051 L 3.020 14.380 3.136 14.660 C 3.450 15.418,4.001 15.942,4.760 16.204 C 4.996 16.286,5.112 16.295,6.025 16.310 L 7.031 16.327 7.050 15.073 C 7.072 13.654,7.091 13.538,7.371 13.046 C 7.593 12.657,8.015 12.256,8.405 12.063 C 8.972 11.784,8.844 11.794,11.960 11.764 L 14.780 11.736 15.020 11.643 C 15.531 11.444,16.028 11.019,16.237 10.603 C 16.466 10.147,16.460 10.232,16.460 7.520 L 16.460 5.020 16.367 4.760 C 16.220 4.350,16.048 4.082,15.741 3.780 C 15.413 3.458,15.122 3.273,14.733 3.142 C 14.469 3.052,14.408 3.048,12.820 3.033 C 11.918 3.025,10.784 3.028,10.300 3.040 M9.913 4.464 C 10.204 4.609,10.335 4.835,10.338 5.200 C 10.340 5.425,10.323 5.491,10.230 5.633 C 9.907 6.120,9.243 6.172,8.846 5.741 C 8.667 5.548,8.620 5.386,8.650 5.075 C 8.705 4.497,9.351 4.184,9.913 4.464 M16.958 8.430 C 16.957 9.332,16.900 10.365,16.841 10.566 C 16.780 10.775,16.429 11.297,16.198 11.522 C 15.943 11.770,15.601 11.976,15.199 12.123 L 14.878 12.240 12.489 12.243 C 11.175 12.245,9.873 12.259,9.595 12.274 C 9.107 12.301,9.080 12.307,8.748 12.471 C 8.206 12.740,7.843 13.143,7.629 13.712 C 7.545 13.935,7.542 13.999,7.529 16.393 C 7.516 18.824,7.516 18.848,7.603 19.113 C 7.886 19.981,8.439 20.557,9.275 20.857 L 9.620 20.980 11.960 20.992 L 14.301 21.005 14.650 20.881 C 14.842 20.814,15.112 20.693,15.249 20.612 C 15.593 20.413,15.987 20.003,16.166 19.660 C 16.430 19.154,16.447 19.055,16.470 17.870 L 16.490 16.800 14.265 16.800 L 12.040 16.800 12.040 16.561 L 12.040 16.321 15.530 16.311 L 19.020 16.300 19.300 16.184 C 20.136 15.836,20.749 15.165,20.928 14.400 C 21.002 14.084,21.002 9.916,20.928 9.600 C 20.767 8.912,20.237 8.275,19.548 7.940 C 19.184 7.764,19.125 7.748,18.728 7.717 C 18.493 7.699,17.998 7.683,17.630 7.682 L 16.960 7.680 16.958 8.430 M14.987 18.104 C 15.516 18.431,15.510 19.180,14.976 19.519 C 14.747 19.664,14.514 19.699,14.268 19.624 C 13.872 19.505,13.640 19.216,13.640 18.840 C 13.640 18.468,13.799 18.218,14.140 18.053 C 14.416 17.920,14.718 17.938,14.987 18.104 " fill="#373B4D" stroke="none" fill-rule="evenodd"></path></svg>