<svg width="24" height="24" viewBox="0 0 24 24" fill="none" xmlns="http://www.w3.org/2000/svg"><path d="M9.605 3.044 C 8.730 3.194,7.915 3.902,7.631 4.759 C 7.553 4.994,7.543 5.127,7.529 6.110 L 7.513 7.200 9.737 7.200 L 11.960 7.200 11.960 7.440 L 11.960 7.680 8.586 7.680 C 5.352 7.680,5.200 7.683,4.902 7.759 C 4.069 7.972,3.377 8.610,3.118 9.402 L 3.020 9.700 3.020 12.000 L 3.020 14.300 3.118 14.598 C 3.375 15.385,4.042 16.005,4.880 16.237 C 5.142 16.310,5.291 16.320,6.109 16.320 L 7.040 16.320 7.041 15.150 C 7.041 13.798,7.068 13.609,7.326 13.113 C 7.684 12.426,8.379 11.930,9.161 11.803 C 9.323 11.776,10.390 11.760,12.002 11.760 C 14.181 11.760,14.620 11.751,14.822 11.699 C 15.623 11.495,16.237 10.884,16.420 10.110 C 16.507 9.743,16.507 5.393,16.420 4.980 C 16.240 4.124,15.584 3.419,14.680 3.111 C 14.424 3.023,14.381 3.022,12.120 3.015 C 10.855 3.011,9.723 3.024,9.605 3.044 M9.920 4.456 C 10.185 4.587,10.332 4.818,10.352 5.134 C 10.371 5.432,10.288 5.635,10.066 5.830 C 9.885 5.989,9.680 6.053,9.426 6.032 C 9.026 5.998,8.737 5.761,8.636 5.384 C 8.546 5.051,8.741 4.616,9.054 4.452 C 9.334 4.305,9.618 4.306,9.920 4.456 M16.951 8.966 C 16.935 10.461,16.917 10.559,16.557 11.097 C 16.237 11.575,15.812 11.901,15.233 12.113 L 14.940 12.220 12.100 12.240 L 9.260 12.260 8.976 12.364 C 8.224 12.639,7.688 13.259,7.560 14.000 C 7.530 14.178,7.520 15.000,7.528 16.600 L 7.541 18.940 7.650 19.260 C 7.940 20.117,8.679 20.759,9.581 20.939 C 9.859 20.995,10.211 21.002,12.141 20.992 L 14.380 20.979 14.700 20.871 C 15.507 20.598,16.094 20.024,16.348 19.260 C 16.450 18.952,16.455 18.898,16.471 17.870 L 16.488 16.800 14.264 16.800 L 12.040 16.800 12.040 16.561 L 12.040 16.323 15.510 16.311 L 18.980 16.300 19.273 16.193 C 19.930 15.953,20.441 15.514,20.718 14.951 C 20.992 14.396,20.999 14.324,20.999 12.000 C 20.999 9.676,20.992 9.604,20.718 9.049 C 20.440 8.485,19.927 8.044,19.273 7.808 C 18.991 7.706,18.943 7.702,17.973 7.688 L 16.965 7.673 16.951 8.966 M14.907 18.044 C 15.473 18.317,15.563 19.038,15.082 19.449 C 14.449 19.991,13.467 19.438,13.644 18.640 C 13.766 18.092,14.394 17.795,14.907 18.044 " fill="#373B4D" stroke="none" fill-rule="evenodd"></path></svg>