<svg width="24" height="24" viewBox="0 0 24 24" fill="none" xmlns="http://www.w3.org/2000/svg">
<path fill-rule="evenodd" clip-rule="evenodd" d="M10.082 3C8.66956 3 7.52459 4.10863 7.52459 5.47619V7.19047H11.9508V7.66666H5.55737C4.14498 7.66666 3 8.77529 3 10.1429L3 13.8571C3 15.2247 4.14498 16.3333 5.55737 16.3333H7.03278V14.2381C7.03278 12.8705 8.17776 11.7619 9.59016 11.7619H14.3115C15.5066 11.7619 16.4754 10.8238 16.4754 9.66666V5.47619C16.4754 4.10863 15.3304 3 13.918 3H10.082ZM9.4918 6.04762C9.98071 6.04762 10.377 5.66386 10.377 5.19047C10.377 4.71709 9.98071 4.33333 9.4918 4.33333C9.00289 4.33333 8.60655 4.71709 8.60655 5.19047C8.60655 5.66386 9.00289 6.04762 9.4918 6.04762Z" fill="#373B4D"/>
<path fill-rule="evenodd" clip-rule="evenodd" d="M13.9176 20.9999C15.33 20.9999 16.475 19.8913 16.475 18.5238V16.8095H12.0488L12.0488 16.3333L18.4422 16.3333C19.8546 16.3333 20.9996 15.2247 20.9996 13.8571V10.1428C20.9996 8.77525 19.8546 7.66663 18.4422 7.66663L16.9668 7.66663V9.76186C16.9668 11.1294 15.8218 12.2381 14.4094 12.2381L9.6881 12.238C8.493 12.238 7.52417 13.1761 7.52417 14.3333L7.52417 18.5238C7.52417 19.8913 8.66915 20.9999 10.0815 20.9999H13.9176ZM14.5078 17.9523C14.0189 17.9523 13.6225 18.3361 13.6225 18.8095C13.6225 19.2829 14.0189 19.6666 14.5078 19.6666C14.9967 19.6666 15.393 19.2829 15.393 18.8095C15.393 18.3361 14.9967 17.9523 14.5078 17.9523Z" fill="#373B4D"/>
</svg>
