<svg width="24" height="24" viewBox="0 0 24 24" fill="none" xmlns="http://www.w3.org/2000/svg"><path d="M9.376 3.117 C 8.971 3.183,8.229 3.751,7.905 4.244 C 7.592 4.718,7.525 5.124,7.521 6.550 L 7.520 7.200 9.740 7.200 L 11.960 7.200 11.960 7.440 L 11.960 7.680 10.270 7.683 C 9.341 7.685,7.743 7.700,6.720 7.716 C 4.881 7.744,4.858 7.746,4.680 7.837 C 3.870 8.255,3.536 8.566,3.229 9.194 L 3.020 9.620 3.009 12.010 L 2.998 14.399 3.105 14.610 C 3.524 15.436,4.171 16.031,4.860 16.222 C 5.041 16.273,5.338 16.294,6.063 16.309 L 7.025 16.330 7.072 15.055 C 7.098 14.354,7.138 13.699,7.162 13.600 C 7.318 12.947,7.949 12.258,8.653 11.972 C 8.984 11.837,9.518 11.810,12.460 11.777 L 14.820 11.751 15.114 11.595 C 15.692 11.288,16.083 10.904,16.300 10.431 C 16.385 10.245,16.410 10.110,16.440 9.672 C 16.490 8.947,16.490 5.307,16.440 5.035 C 16.368 4.643,16.117 4.207,15.750 3.833 C 15.476 3.555,15.348 3.461,15.013 3.288 L 14.607 3.080 12.073 3.085 C 10.680 3.088,9.466 3.102,9.376 3.117 M9.921 4.510 C 10.170 4.637,10.282 4.814,10.311 5.125 C 10.337 5.392,10.236 5.643,10.033 5.816 C 9.683 6.117,9.203 6.086,8.887 5.743 C 8.797 5.645,8.712 5.514,8.698 5.452 C 8.684 5.391,8.666 5.316,8.657 5.288 C 8.628 5.193,8.722 4.863,8.822 4.711 C 9.034 4.388,9.511 4.301,9.921 4.510 M16.929 8.930 C 16.875 10.351,16.836 10.604,16.618 10.948 C 16.260 11.511,15.862 11.844,15.240 12.099 L 14.900 12.239 13.380 12.240 C 12.544 12.241,11.234 12.259,10.468 12.279 L 9.076 12.316 8.790 12.468 C 8.448 12.650,7.989 13.071,7.811 13.366 C 7.541 13.816,7.540 13.828,7.540 16.540 L 7.540 18.980 7.655 19.260 C 7.885 19.818,8.304 20.327,8.748 20.587 C 8.848 20.645,9.089 20.762,9.285 20.847 L 9.641 21.000 11.974 21.000 C 14.154 21.000,14.322 20.995,14.526 20.925 C 15.137 20.715,15.552 20.430,15.925 19.968 C 16.382 19.401,16.430 19.207,16.467 17.770 L 16.493 16.800 14.266 16.800 L 12.040 16.800 12.040 16.560 L 12.040 16.320 15.541 16.320 L 19.043 16.320 19.251 16.216 C 20.173 15.754,20.813 15.034,20.918 14.340 C 20.978 13.947,21.007 11.694,20.966 10.620 C 20.923 9.496,20.884 9.300,20.624 8.908 C 20.332 8.468,19.745 8.007,19.260 7.837 C 19.046 7.761,18.020 7.681,17.258 7.680 L 16.976 7.680 16.929 8.930 M14.982 18.142 C 15.302 18.340,15.433 18.717,15.301 19.062 C 15.165 19.420,14.878 19.640,14.548 19.640 C 13.971 19.640,13.568 19.179,13.682 18.649 C 13.804 18.079,14.466 17.821,14.982 18.142 " fill="#373B4D" stroke="none" fill-rule="evenodd"></path></svg>