<svg width="24" height="24" viewBox="0 0 24 24" fill="none" xmlns="http://www.w3.org/2000/svg"><path d="M9.560 3.077 C 9.039 3.133,8.415 3.536,8.003 4.082 C 7.594 4.626,7.524 4.966,7.521 6.430 L 7.520 7.200 9.740 7.200 L 11.960 7.200 11.960 7.434 L 11.960 7.668 8.490 7.689 L 5.020 7.710 4.694 7.836 C 3.921 8.136,3.415 8.641,3.119 9.409 L 2.998 9.722 3.009 12.071 L 3.020 14.420 3.207 14.802 C 3.529 15.460,4.106 15.980,4.760 16.202 C 4.993 16.281,5.125 16.293,6.023 16.311 L 7.027 16.331 7.054 15.131 C 7.069 14.471,7.100 13.825,7.124 13.695 C 7.287 12.799,8.205 11.950,9.133 11.836 C 9.322 11.813,10.679 11.782,12.148 11.767 L 14.820 11.740 15.172 11.568 C 15.651 11.334,16.064 10.944,16.265 10.537 C 16.403 10.259,16.411 10.218,16.443 9.673 C 16.461 9.358,16.477 8.196,16.478 7.092 L 16.480 5.084 16.360 4.752 C 16.222 4.371,16.090 4.158,15.819 3.875 C 15.468 3.509,15.204 3.327,14.777 3.157 L 14.540 3.062 12.180 3.055 C 10.882 3.052,9.703 3.061,9.560 3.077 M9.905 4.473 C 10.218 4.633,10.320 4.819,10.320 5.230 C 10.320 5.453,10.303 5.521,10.213 5.650 C 9.979 5.988,9.537 6.118,9.168 5.960 C 8.798 5.801,8.609 5.489,8.653 5.113 C 8.695 4.759,8.902 4.504,9.231 4.397 C 9.393 4.345,9.729 4.382,9.905 4.473 M16.960 8.284 C 16.960 9.148,16.888 10.361,16.825 10.570 C 16.757 10.795,16.423 11.286,16.174 11.528 C 15.932 11.762,15.596 11.965,15.193 12.120 L 14.883 12.240 12.831 12.243 C 11.703 12.244,10.400 12.259,9.936 12.276 L 9.093 12.307 8.776 12.461 C 8.354 12.668,7.915 13.100,7.723 13.500 C 7.542 13.877,7.525 14.148,7.522 16.722 C 7.520 19.002,7.520 19.004,7.780 19.540 C 8.094 20.187,8.596 20.609,9.392 20.895 L 9.685 21.000 12.000 21.000 L 14.315 21.000 14.608 20.895 C 15.147 20.701,15.361 20.569,15.722 20.205 C 15.932 19.993,16.112 19.766,16.190 19.617 C 16.414 19.189,16.443 19.003,16.469 17.850 L 16.492 16.800 14.266 16.800 L 12.040 16.800 12.040 16.561 L 12.040 16.321 15.550 16.311 L 19.060 16.300 19.440 16.112 C 20.101 15.786,20.590 15.294,20.825 14.720 C 20.920 14.487,20.935 14.386,20.963 13.740 C 21.003 12.825,21.003 11.234,20.963 10.280 C 20.928 9.432,20.876 9.248,20.538 8.776 C 20.215 8.323,19.575 7.879,19.075 7.762 C 18.979 7.739,18.463 7.708,17.930 7.694 L 16.960 7.667 16.960 8.284 M14.929 18.088 C 15.195 18.237,15.332 18.440,15.352 18.716 C 15.374 19.023,15.312 19.198,15.113 19.398 C 14.809 19.702,14.425 19.739,14.025 19.505 C 13.807 19.377,13.684 19.188,13.654 18.933 C 13.571 18.230,14.308 17.741,14.929 18.088 " fill="#373B4D" stroke="none" fill-rule="evenodd"></path></svg>