<svg width="24" height="24" viewBox="0 0 24 24" fill="none" xmlns="http://www.w3.org/2000/svg"><path d="M10.257 3.079 L 9.334 3.100 8.977 3.276 C 8.320 3.599,7.732 4.308,7.597 4.940 C 7.573 5.050,7.544 5.604,7.532 6.170 L 7.511 7.200 9.735 7.200 L 11.960 7.200 11.960 7.440 L 11.960 7.680 9.910 7.685 C 8.783 7.687,7.192 7.701,6.375 7.715 L 4.891 7.740 4.475 7.947 C 3.795 8.286,3.400 8.714,3.118 9.419 L 3.000 9.713 3.000 12.054 L 3.000 14.395 3.182 14.751 C 3.513 15.400,3.969 15.846,4.584 16.125 C 4.917 16.276,5.286 16.317,6.304 16.319 L 7.028 16.320 7.057 15.230 C 7.096 13.754,7.119 13.579,7.321 13.169 C 7.602 12.600,8.180 12.111,8.800 11.916 C 9.030 11.844,9.225 11.831,10.500 11.799 C 11.292 11.779,12.579 11.762,13.360 11.761 L 14.780 11.760 15.038 11.638 C 15.608 11.368,16.063 10.948,16.284 10.489 C 16.392 10.265,16.409 10.179,16.442 9.669 C 16.462 9.356,16.479 8.198,16.479 7.096 C 16.480 5.234,16.475 5.077,16.404 4.873 C 16.241 4.399,16.108 4.187,15.739 3.815 C 15.428 3.501,15.325 3.425,14.999 3.269 L 14.620 3.088 12.900 3.073 C 11.954 3.064,10.765 3.067,10.257 3.079 M9.905 4.485 C 10.107 4.580,10.192 4.670,10.262 4.867 C 10.400 5.254,10.299 5.639,10.004 5.857 C 9.371 6.324,8.481 5.744,8.681 4.995 C 8.825 4.453,9.358 4.231,9.905 4.485 M16.947 8.664 C 16.910 10.119,16.865 10.527,16.712 10.800 C 16.337 11.471,15.877 11.864,15.148 12.138 L 14.878 12.240 13.109 12.242 C 12.136 12.243,10.834 12.259,10.216 12.277 L 9.091 12.310 8.759 12.483 C 8.320 12.711,7.940 13.087,7.743 13.488 C 7.613 13.752,7.595 13.829,7.557 14.300 C 7.531 14.612,7.520 15.646,7.528 16.880 C 7.541 18.905,7.543 18.944,7.632 19.193 C 7.766 19.566,7.945 19.862,8.210 20.144 C 8.512 20.467,8.802 20.657,9.278 20.846 L 9.660 20.998 11.988 20.999 L 14.315 21.000 14.608 20.895 C 15.205 20.681,15.548 20.440,15.933 19.966 C 16.381 19.416,16.433 19.207,16.467 17.830 L 16.492 16.800 14.266 16.800 L 12.040 16.800 12.040 16.561 L 12.040 16.321 15.570 16.311 L 19.100 16.300 19.480 16.089 C 20.098 15.746,20.512 15.345,20.755 14.857 C 20.964 14.435,20.976 14.284,20.977 12.060 C 20.978 9.811,20.958 9.540,20.761 9.138 C 20.449 8.499,19.631 7.863,18.994 7.763 C 18.854 7.741,18.342 7.711,17.857 7.696 L 16.973 7.668 16.947 8.664 M14.909 18.087 C 15.436 18.333,15.515 19.035,15.062 19.433 C 14.870 19.601,14.765 19.640,14.507 19.639 C 13.984 19.637,13.581 19.192,13.662 18.705 C 13.698 18.488,13.763 18.369,13.934 18.204 C 14.182 17.967,14.554 17.922,14.909 18.087 " fill="#373B4D" stroke="none" fill-rule="evenodd"></path></svg>