<svg width="24" height="24" viewBox="0 0 24 24" fill="none" xmlns="http://www.w3.org/2000/svg"><path d="M5.820 3.758 C 4.721 3.775,4.316 3.795,4.248 3.833 C 4.198 3.861,4.032 3.992,3.878 4.124 L 3.600 4.364 3.600 6.096 C 3.600 7.048,3.612 8.050,3.627 8.323 L 3.653 8.818 4.033 9.209 L 4.412 9.600 6.592 9.600 L 8.772 9.600 9.186 9.192 L 9.600 8.785 9.599 7.622 C 9.599 6.070,9.539 4.774,9.455 4.474 C 9.404 4.291,9.338 4.184,9.151 3.980 L 8.913 3.720 8.106 3.728 C 7.663 3.732,6.634 3.746,5.820 3.758 M11.420 3.829 C 11.241 3.961,11.005 4.235,10.906 4.428 C 10.829 4.578,10.818 5.213,10.879 5.959 C 10.913 6.365,10.930 6.436,11.030 6.578 C 11.361 7.048,12.084 7.254,12.503 6.998 C 12.730 6.858,13.072 6.463,13.102 6.306 C 13.117 6.226,13.121 5.777,13.112 5.310 C 13.099 4.657,13.080 4.427,13.032 4.317 C 12.896 4.004,12.439 3.773,11.880 3.733 C 11.595 3.713,11.572 3.718,11.420 3.829 M15.332 3.834 C 15.001 3.857,14.953 3.871,14.847 3.973 C 14.782 4.035,14.684 4.170,14.628 4.273 C 14.456 4.589,14.420 5.007,14.422 6.700 C 14.425 8.639,14.450 8.796,14.827 9.173 C 15.210 9.555,15.341 9.576,17.360 9.578 C 19.497 9.581,19.562 9.568,20.111 9.060 L 20.400 8.793 20.399 7.666 C 20.398 6.150,20.339 4.803,20.260 4.502 C 20.170 4.162,20.060 4.004,19.844 3.908 C 19.668 3.830,19.576 3.826,17.680 3.818 C 16.591 3.813,15.535 3.820,15.332 3.834 M7.200 6.600 L 7.200 7.200 6.600 7.200 L 6.000 7.200 6.000 6.600 L 6.000 6.000 6.600 6.000 L 7.200 6.000 7.200 6.600 M18.000 6.600 L 18.000 7.200 17.400 7.200 L 16.800 7.200 16.800 6.600 L 16.800 6.000 17.400 6.000 L 18.000 6.000 18.000 6.600 M11.274 8.792 C 10.968 9.115,10.895 9.289,10.839 9.827 C 10.763 10.548,10.812 11.943,10.926 12.325 C 10.987 12.526,11.312 12.894,11.527 13.004 C 11.798 13.142,12.256 13.173,14.060 13.177 C 15.347 13.179,15.822 13.167,15.948 13.129 C 16.140 13.071,16.404 12.796,16.586 12.465 C 16.745 12.175,16.745 11.832,16.587 11.510 C 16.367 11.062,16.189 11.001,14.740 10.881 C 13.592 10.786,13.390 10.763,13.320 10.720 C 13.290 10.701,13.240 10.448,13.194 10.075 C 13.152 9.737,13.090 9.365,13.057 9.248 C 12.935 8.821,12.562 8.601,11.856 8.539 L 11.538 8.511 11.274 8.792 M18.587 11.079 C 18.236 11.302,18.031 11.783,18.119 12.177 C 18.252 12.771,18.732 13.168,19.243 13.107 C 19.539 13.072,19.817 12.933,20.016 12.720 C 20.509 12.193,20.364 11.408,19.714 11.083 C 19.495 10.974,19.428 10.960,19.121 10.960 C 18.806 10.960,18.759 10.971,18.587 11.079 M4.260 11.059 C 3.958 11.166,3.680 11.625,3.680 12.014 C 3.680 12.443,4.024 12.922,4.426 13.055 C 4.715 13.150,5.715 13.200,7.345 13.200 L 8.789 13.200 8.966 13.010 C 9.329 12.621,9.521 12.245,9.519 11.929 C 9.517 11.650,9.266 11.220,9.028 11.090 C 8.911 11.026,8.707 11.019,6.660 11.011 C 4.803 11.003,4.393 11.011,4.260 11.059 M12.345 14.524 C 11.666 14.561,11.445 14.620,11.204 14.825 C 10.891 15.094,10.848 15.344,10.813 17.122 C 10.769 19.358,10.876 19.864,11.458 20.173 C 11.589 20.242,11.689 20.259,11.981 20.259 C 12.290 20.260,12.370 20.245,12.541 20.158 C 12.783 20.033,13.019 19.737,13.079 19.482 C 13.153 19.167,13.198 18.526,13.200 17.760 C 13.200 17.353,13.212 16.980,13.225 16.931 C 13.240 16.876,13.342 16.790,13.494 16.705 C 13.995 16.424,14.329 15.965,14.326 15.561 C 14.324 15.310,14.201 15.072,13.895 14.729 L 13.674 14.480 13.307 14.486 C 13.105 14.489,12.672 14.506,12.345 14.524 M16.719 14.559 C 16.548 14.576,16.348 14.625,16.254 14.673 C 15.951 14.828,15.725 15.186,15.690 15.566 C 15.672 15.762,15.686 15.831,15.777 16.017 C 15.892 16.252,16.216 16.576,16.425 16.664 C 16.607 16.741,17.563 16.799,18.646 16.800 L 19.593 16.800 19.862 16.510 C 20.216 16.130,20.287 15.966,20.286 15.539 C 20.285 15.089,20.169 14.891,19.793 14.697 C 19.598 14.596,17.351 14.495,16.719 14.559 M4.532 14.634 C 4.201 14.657,4.153 14.671,4.047 14.773 C 3.861 14.952,3.731 15.232,3.682 15.560 C 3.612 16.031,3.583 18.086,3.636 18.820 C 3.689 19.556,3.765 19.775,4.047 20.016 C 4.438 20.352,4.590 20.373,6.560 20.377 C 8.697 20.381,8.762 20.369,9.311 19.860 L 9.600 19.593 9.599 18.466 C 9.598 16.950,9.539 15.603,9.460 15.302 C 9.370 14.962,9.260 14.804,9.044 14.708 C 8.868 14.630,8.776 14.626,6.880 14.618 C 5.791 14.613,4.735 14.620,4.532 14.634 M7.200 17.400 L 7.200 18.000 6.600 18.000 L 6.000 18.000 6.000 17.400 L 6.000 16.800 6.600 16.800 L 7.200 16.800 7.200 17.400 M15.060 18.259 C 14.758 18.366,14.480 18.825,14.480 19.214 C 14.480 19.643,14.824 20.122,15.226 20.255 C 15.515 20.350,16.515 20.400,18.145 20.400 L 19.589 20.400 19.766 20.210 C 20.129 19.821,20.321 19.445,20.319 19.129 C 20.317 18.850,20.066 18.420,19.828 18.290 C 19.711 18.226,19.507 18.219,17.460 18.211 C 15.603 18.203,15.193 18.211,15.060 18.259 " fill="#373B4D" stroke="none" fill-rule="evenodd"></path></svg>