<svg width="24" height="24" viewBox="0 0 24 24" fill="none" xmlns="http://www.w3.org/2000/svg"><path d="M11.297 3.910 C 11.164 4.037,11.004 4.227,10.942 4.333 L 10.830 4.524 10.849 5.412 C 10.872 6.452,10.895 6.541,11.215 6.822 C 11.471 7.048,11.742 7.135,12.123 7.113 C 12.363 7.099,12.423 7.079,12.625 6.939 C 12.751 6.851,12.912 6.695,12.983 6.591 C 13.102 6.418,13.115 6.368,13.141 5.973 C 13.174 5.496,13.138 4.622,13.076 4.389 C 12.985 4.045,12.606 3.794,12.067 3.722 C 11.567 3.655,11.565 3.655,11.297 3.910 M4.960 3.758 C 4.378 3.779,4.329 3.787,4.155 3.889 C 4.053 3.949,3.886 4.090,3.785 4.203 L 3.600 4.409 3.604 5.814 C 3.605 6.587,3.619 7.573,3.634 8.004 L 3.661 8.788 3.833 9.015 C 3.927 9.140,4.107 9.323,4.232 9.422 L 4.460 9.603 6.620 9.591 L 8.780 9.580 8.956 9.440 C 9.052 9.363,9.238 9.174,9.370 9.020 L 9.608 8.740 9.587 6.820 C 9.575 5.746,9.546 4.777,9.521 4.620 C 9.469 4.287,9.360 4.105,9.077 3.881 L 8.873 3.720 7.226 3.728 C 6.321 3.732,5.301 3.745,4.960 3.758 M15.516 3.755 C 15.054 3.780,15.052 3.781,14.869 3.930 C 14.760 4.020,14.643 4.168,14.580 4.296 C 14.484 4.492,14.471 4.576,14.439 5.226 C 14.369 6.597,14.413 8.426,14.523 8.795 C 14.585 9.000,14.932 9.376,15.140 9.463 C 15.356 9.553,16.149 9.598,17.540 9.598 C 19.518 9.599,19.708 9.557,20.161 9.028 L 20.408 8.740 20.386 6.840 C 20.374 5.795,20.346 4.809,20.323 4.649 C 20.263 4.223,20.001 3.868,19.698 3.799 C 19.508 3.757,16.137 3.721,15.516 3.755 M7.200 6.600 L 7.200 7.200 6.600 7.200 L 6.000 7.200 6.000 6.600 L 6.000 6.000 6.600 6.000 L 7.200 6.000 7.200 6.600 M18.000 6.600 L 18.000 7.200 17.400 7.200 L 16.800 7.200 16.800 6.600 L 16.800 6.000 17.400 6.000 L 18.000 6.000 18.000 6.600 M11.420 8.629 C 11.206 8.786,11.014 9.010,10.937 9.191 C 10.764 9.602,10.756 11.843,10.926 12.400 C 10.982 12.584,11.335 12.949,11.550 13.047 C 11.774 13.148,12.738 13.197,14.563 13.199 L 15.906 13.200 16.099 13.073 C 16.345 12.909,16.623 12.532,16.705 12.248 C 16.784 11.976,16.737 11.704,16.564 11.435 C 16.281 10.996,16.120 10.939,15.021 10.878 C 13.608 10.800,13.327 10.775,13.263 10.722 C 13.214 10.682,13.200 10.585,13.199 10.285 C 13.198 9.518,13.099 9.097,12.868 8.866 C 12.622 8.621,12.471 8.563,11.994 8.535 C 11.582 8.511,11.579 8.512,11.420 8.629 M18.867 10.922 C 18.550 11.001,18.244 11.295,18.127 11.636 C 18.048 11.866,18.069 12.235,18.174 12.460 C 18.271 12.668,18.543 12.948,18.751 13.055 C 19.050 13.210,19.466 13.157,19.845 12.916 C 20.410 12.556,20.489 11.707,20.001 11.235 C 19.725 10.967,19.233 10.831,18.867 10.922 M4.836 10.957 C 4.323 10.979,4.284 10.986,4.130 11.093 C 3.714 11.382,3.540 11.992,3.746 12.440 C 3.837 12.636,4.147 12.970,4.323 13.061 C 4.489 13.147,5.601 13.199,7.299 13.199 L 8.778 13.200 9.082 12.890 C 9.420 12.547,9.529 12.317,9.534 11.941 C 9.538 11.653,9.371 11.322,9.121 11.124 L 8.929 10.973 7.755 10.947 C 6.496 10.918,5.704 10.921,4.836 10.957 M12.080 14.519 C 11.587 14.548,11.443 14.594,11.192 14.801 C 10.952 14.999,10.887 15.188,10.841 15.821 C 10.789 16.547,10.789 18.261,10.842 19.000 C 10.890 19.671,10.948 19.814,11.278 20.074 C 11.519 20.266,11.765 20.337,12.092 20.311 C 12.402 20.286,12.603 20.185,12.856 19.925 C 13.134 19.641,13.159 19.500,13.188 18.015 L 13.211 16.809 13.376 16.761 C 13.773 16.645,14.139 16.307,14.283 15.923 C 14.442 15.501,14.322 15.128,13.896 14.719 L 13.647 14.480 13.093 14.486 C 12.789 14.490,12.333 14.505,12.080 14.519 M16.660 14.517 C 16.352 14.555,16.158 14.649,15.978 14.847 C 15.676 15.182,15.572 15.683,15.736 16.014 C 15.845 16.233,16.195 16.602,16.360 16.671 C 16.527 16.741,17.512 16.794,18.715 16.798 L 19.529 16.800 19.723 16.658 C 19.932 16.504,20.165 16.213,20.260 15.986 C 20.339 15.797,20.338 15.311,20.259 15.144 C 20.171 14.958,19.970 14.727,19.835 14.657 C 19.768 14.623,19.524 14.581,19.268 14.561 C 18.635 14.511,16.946 14.482,16.660 14.517 M4.716 14.555 C 4.254 14.580,4.252 14.581,4.069 14.730 C 3.960 14.820,3.843 14.968,3.780 15.097 C 3.685 15.290,3.670 15.385,3.633 16.006 C 3.580 16.898,3.620 19.173,3.694 19.486 C 3.787 19.876,4.154 20.239,4.542 20.322 C 4.830 20.383,7.767 20.419,8.275 20.367 C 8.832 20.310,9.035 20.210,9.361 19.828 L 9.608 19.540 9.586 17.640 C 9.574 16.595,9.546 15.609,9.523 15.449 C 9.463 15.023,9.201 14.668,8.898 14.599 C 8.708 14.557,5.337 14.521,4.716 14.555 M7.200 17.400 L 7.200 18.000 6.600 18.000 L 6.000 18.000 6.000 17.400 L 6.000 16.800 6.600 16.800 L 7.200 16.800 7.200 17.400 M15.636 18.157 C 15.123 18.179,15.084 18.186,14.930 18.293 C 14.514 18.582,14.340 19.192,14.546 19.640 C 14.637 19.836,14.947 20.170,15.123 20.261 C 15.289 20.347,16.401 20.399,18.099 20.399 L 19.578 20.400 19.882 20.090 C 20.220 19.747,20.329 19.517,20.334 19.141 C 20.338 18.853,20.171 18.522,19.921 18.324 L 19.729 18.173 18.555 18.147 C 17.296 18.118,16.504 18.121,15.636 18.157 " fill="#373B4D" stroke="none" fill-rule="evenodd"></path></svg>