<svg width="24" height="24" viewBox="0 0 24 24" fill="none" xmlns="http://www.w3.org/2000/svg"><path d="M11.498 3.753 C 11.329 3.859,10.963 4.271,10.890 4.440 C 10.839 4.557,10.833 4.716,10.854 5.420 C 10.868 5.882,10.897 6.325,10.919 6.403 C 10.971 6.587,11.265 6.885,11.503 6.997 C 11.770 7.123,12.151 7.150,12.386 7.060 C 12.646 6.961,13.064 6.540,13.108 6.333 C 13.155 6.110,13.135 4.694,13.081 4.461 C 13.056 4.351,12.994 4.207,12.942 4.140 C 12.784 3.932,12.349 3.759,11.840 3.701 C 11.663 3.681,11.596 3.691,11.498 3.753 M5.495 3.758 L 4.330 3.780 4.102 3.937 C 3.977 4.023,3.813 4.166,3.737 4.254 L 3.600 4.414 3.600 5.921 C 3.600 6.749,3.612 7.730,3.626 8.099 L 3.653 8.771 3.846 9.012 C 3.953 9.144,4.131 9.331,4.243 9.426 L 4.447 9.600 6.597 9.600 L 8.747 9.600 8.923 9.462 C 9.021 9.387,9.215 9.196,9.356 9.038 L 9.613 8.751 9.586 6.866 C 9.571 5.829,9.541 4.856,9.519 4.704 C 9.468 4.352,9.324 4.090,9.070 3.883 L 8.869 3.720 7.765 3.728 C 7.157 3.732,6.136 3.746,5.495 3.758 M15.452 3.794 L 15.003 3.820 14.838 3.980 C 14.482 4.325,14.446 4.513,14.414 6.200 C 14.390 7.458,14.428 8.360,14.523 8.735 C 14.580 8.963,14.895 9.322,15.145 9.442 C 15.301 9.518,15.431 9.537,15.975 9.564 C 16.805 9.605,18.278 9.605,18.927 9.564 C 19.568 9.524,19.755 9.442,20.136 9.038 L 20.400 8.759 20.399 7.569 C 20.398 6.016,20.340 4.680,20.262 4.418 C 20.183 4.155,19.961 3.895,19.768 3.842 C 19.595 3.794,16.123 3.756,15.452 3.794 M7.200 6.600 L 7.200 7.200 6.600 7.200 L 6.000 7.200 6.000 6.600 L 6.000 6.000 6.600 6.000 L 7.200 6.000 7.200 6.600 M18.000 6.600 L 18.000 7.200 17.400 7.200 L 16.800 7.200 16.800 6.600 L 16.800 6.000 17.400 6.000 L 18.000 6.000 18.000 6.600 M11.294 8.752 C 10.976 9.063,10.889 9.260,10.834 9.791 C 10.784 10.278,10.813 11.752,10.881 12.160 C 10.932 12.467,11.057 12.668,11.332 12.886 C 11.583 13.084,11.698 13.112,12.483 13.159 C 13.352 13.212,15.737 13.212,15.928 13.159 C 16.108 13.109,16.471 12.723,16.620 12.426 C 16.798 12.068,16.737 11.635,16.461 11.299 C 16.210 10.992,16.052 10.956,14.540 10.859 C 13.990 10.823,13.474 10.777,13.393 10.756 C 13.227 10.714,13.252 10.816,13.164 9.840 C 13.114 9.282,13.067 9.126,12.889 8.918 C 12.702 8.699,12.511 8.611,12.116 8.562 C 11.560 8.492,11.561 8.492,11.294 8.752 M18.674 11.018 C 18.016 11.370,17.894 12.212,18.418 12.793 C 18.718 13.125,19.119 13.209,19.578 13.037 C 20.499 12.693,20.574 11.496,19.704 11.051 C 19.400 10.895,18.932 10.880,18.674 11.018 M4.420 10.997 C 4.332 11.012,4.221 11.046,4.174 11.072 C 4.030 11.150,3.808 11.438,3.742 11.632 C 3.666 11.857,3.662 12.239,3.734 12.411 C 3.815 12.604,4.139 12.943,4.331 13.036 C 4.564 13.149,5.487 13.199,7.346 13.199 L 8.793 13.200 9.054 12.918 C 9.360 12.587,9.488 12.345,9.512 12.051 C 9.539 11.727,9.458 11.503,9.223 11.253 C 9.038 11.056,8.999 11.034,8.780 10.999 C 8.512 10.956,4.671 10.955,4.420 10.997 M12.236 14.522 C 11.696 14.550,11.634 14.562,11.410 14.675 C 11.125 14.819,11.022 14.937,10.939 15.216 C 10.855 15.494,10.802 16.391,10.801 17.524 C 10.800 18.718,10.854 19.425,10.967 19.687 C 11.131 20.068,11.510 20.291,12.000 20.295 C 12.259 20.297,12.329 20.282,12.514 20.180 C 12.772 20.039,13.026 19.762,13.078 19.564 C 13.145 19.316,13.200 18.420,13.200 17.594 C 13.200 16.957,13.211 16.800,13.254 16.800 C 13.283 16.800,13.417 16.745,13.551 16.678 C 14.031 16.438,14.398 15.886,14.343 15.483 C 14.313 15.258,14.176 15.025,13.895 14.721 L 13.671 14.480 13.246 14.486 C 13.012 14.489,12.557 14.506,12.236 14.522 M16.504 14.562 C 16.196 14.614,15.814 14.979,15.722 15.311 C 15.656 15.548,15.671 15.866,15.756 16.032 C 15.861 16.237,16.211 16.592,16.376 16.661 C 16.565 16.740,17.521 16.799,18.636 16.799 L 19.572 16.800 19.884 16.483 C 20.148 16.216,20.206 16.131,20.263 15.936 C 20.340 15.669,20.325 15.282,20.229 15.098 C 20.134 14.914,19.882 14.685,19.723 14.637 C 19.448 14.554,16.905 14.495,16.504 14.562 M4.652 14.594 L 4.203 14.620 4.038 14.780 C 3.685 15.122,3.645 15.324,3.613 16.880 C 3.590 18.060,3.638 19.269,3.721 19.565 C 3.813 19.897,4.231 20.255,4.601 20.320 C 4.959 20.383,7.427 20.415,8.078 20.366 C 8.794 20.311,8.953 20.244,9.336 19.838 L 9.600 19.559 9.599 18.369 C 9.598 16.816,9.540 15.480,9.462 15.218 C 9.383 14.955,9.161 14.695,8.968 14.642 C 8.795 14.594,5.323 14.556,4.652 14.594 M7.200 17.400 L 7.200 18.000 6.600 18.000 L 6.000 18.000 6.000 17.400 L 6.000 16.800 6.600 16.800 L 7.200 16.800 7.200 17.400 M15.220 18.197 C 15.132 18.212,15.021 18.246,14.974 18.272 C 14.830 18.350,14.608 18.638,14.542 18.832 C 14.466 19.057,14.462 19.439,14.534 19.611 C 14.615 19.804,14.939 20.143,15.131 20.236 C 15.364 20.349,16.287 20.399,18.146 20.399 L 19.593 20.400 19.854 20.118 C 20.160 19.787,20.288 19.545,20.312 19.251 C 20.339 18.927,20.258 18.703,20.023 18.453 C 19.838 18.256,19.799 18.234,19.580 18.199 C 19.312 18.156,15.471 18.155,15.220 18.197 " fill="#373B4D" stroke="none" fill-rule="evenodd"></path></svg>