<svg width="24" height="24" viewBox="0 0 24 24" fill="none" xmlns="http://www.w3.org/2000/svg"><path d="M11.540 3.716 C 11.425 3.766,10.985 4.236,10.901 4.399 C 10.836 4.523,10.831 4.622,10.852 5.398 C 10.864 5.872,10.895 6.332,10.921 6.420 C 10.979 6.617,11.262 6.899,11.513 7.010 C 11.739 7.110,12.125 7.144,12.349 7.083 C 12.552 7.028,12.955 6.672,13.066 6.450 C 13.131 6.318,13.140 6.201,13.138 5.460 C 13.136 4.355,13.080 4.160,12.698 3.937 C 12.401 3.763,11.728 3.634,11.540 3.716 M5.299 3.757 L 4.338 3.780 4.128 3.915 C 4.013 3.989,3.847 4.131,3.759 4.230 L 3.600 4.411 3.600 5.776 C 3.600 6.526,3.612 7.507,3.627 7.955 L 3.653 8.769 3.826 8.999 C 3.921 9.126,4.100 9.312,4.224 9.414 L 4.449 9.600 6.592 9.600 L 8.736 9.600 8.891 9.493 C 8.976 9.433,9.173 9.241,9.329 9.064 L 9.613 8.743 9.587 6.821 C 9.572 5.765,9.541 4.783,9.518 4.640 C 9.464 4.310,9.336 4.091,9.075 3.884 L 8.870 3.720 7.565 3.727 C 6.847 3.731,5.828 3.745,5.299 3.757 M15.088 3.803 C 14.927 3.852,14.682 4.091,14.586 4.292 C 14.468 4.541,14.439 4.848,14.414 6.100 C 14.385 7.522,14.440 8.600,14.555 8.856 C 14.595 8.946,14.735 9.121,14.866 9.245 C 15.209 9.570,15.276 9.578,17.440 9.579 C 18.981 9.580,19.209 9.572,19.435 9.509 C 19.740 9.425,19.943 9.284,20.206 8.973 L 20.400 8.743 20.398 7.602 C 20.396 6.974,20.380 6.037,20.361 5.520 C 20.324 4.491,20.293 4.331,20.075 4.067 C 19.828 3.767,19.960 3.781,17.460 3.772 C 16.068 3.767,15.170 3.779,15.088 3.803 M7.200 6.600 L 7.200 7.200 6.600 7.200 L 6.000 7.200 6.000 6.600 L 6.000 6.000 6.600 6.000 L 7.200 6.000 7.200 6.600 M18.000 6.600 L 18.000 7.200 17.400 7.200 L 16.800 7.200 16.800 6.600 L 16.800 6.000 17.400 6.000 L 18.000 6.000 18.000 6.600 M11.358 8.687 C 11.099 8.899,10.936 9.148,10.880 9.420 C 10.764 9.977,10.794 11.909,10.924 12.379 C 10.991 12.616,11.408 13.012,11.658 13.075 C 11.970 13.154,12.971 13.198,14.472 13.199 C 15.607 13.200,15.905 13.189,15.993 13.144 C 16.162 13.056,16.500 12.676,16.622 12.437 C 16.818 12.052,16.751 11.620,16.440 11.266 C 16.188 10.979,16.029 10.943,14.640 10.860 C 13.421 10.788,13.288 10.771,13.244 10.685 C 13.225 10.649,13.200 10.377,13.187 10.080 C 13.155 9.312,13.055 9.011,12.751 8.764 C 12.580 8.625,12.385 8.570,11.956 8.538 L 11.575 8.510 11.358 8.687 M18.940 10.920 C 18.484 10.992,18.083 11.469,18.081 11.943 C 18.079 12.386,18.317 12.798,18.709 13.028 C 18.961 13.175,19.296 13.174,19.625 13.023 C 20.066 12.821,20.279 12.526,20.311 12.070 C 20.329 11.826,20.318 11.774,20.204 11.542 C 20.119 11.369,20.024 11.245,19.912 11.164 C 19.647 10.969,19.254 10.870,18.940 10.920 M4.917 10.957 C 4.243 10.987,4.206 10.999,3.952 11.266 C 3.689 11.544,3.587 12.072,3.732 12.411 C 3.832 12.644,4.223 13.032,4.408 13.082 C 4.674 13.154,5.760 13.197,7.305 13.199 L 8.790 13.200 9.059 12.915 C 9.401 12.553,9.519 12.308,9.520 11.963 C 9.520 11.662,9.423 11.426,9.213 11.216 C 8.954 10.956,9.051 10.970,7.220 10.948 C 6.296 10.938,5.260 10.941,4.917 10.957 M12.169 14.521 C 11.691 14.546,11.614 14.560,11.413 14.664 C 10.891 14.933,10.842 15.120,10.812 16.980 C 10.790 18.350,10.831 19.287,10.926 19.604 C 11.079 20.116,11.752 20.433,12.330 20.265 C 12.605 20.185,12.960 19.879,13.056 19.638 C 13.139 19.430,13.199 18.576,13.199 17.576 L 13.200 16.813 13.370 16.764 C 13.774 16.647,14.166 16.262,14.301 15.849 C 14.424 15.471,14.321 15.175,13.915 14.741 L 13.671 14.480 13.185 14.486 C 12.918 14.490,12.461 14.505,12.169 14.521 M16.385 14.576 C 15.991 14.723,15.669 15.195,15.665 15.629 C 15.663 15.930,15.753 16.112,16.059 16.422 C 16.241 16.608,16.338 16.675,16.454 16.697 C 16.751 16.752,17.748 16.798,18.640 16.799 L 19.540 16.799 19.708 16.665 C 19.904 16.510,20.137 16.240,20.229 16.063 C 20.264 15.995,20.301 15.809,20.312 15.650 C 20.335 15.284,20.254 15.052,20.020 14.818 C 19.780 14.578,19.618 14.556,17.940 14.535 C 16.784 14.521,16.513 14.528,16.385 14.576 M4.288 14.603 C 4.128 14.652,3.882 14.891,3.788 15.089 C 3.666 15.346,3.640 15.595,3.615 16.760 C 3.587 18.100,3.642 19.392,3.738 19.621 C 3.842 19.871,4.063 20.106,4.303 20.223 C 4.513 20.326,4.572 20.334,5.353 20.369 C 6.588 20.424,8.357 20.389,8.659 20.304 C 8.934 20.226,9.152 20.070,9.415 19.761 L 9.600 19.545 9.598 18.402 C 9.596 17.774,9.580 16.837,9.561 16.320 C 9.524 15.291,9.493 15.131,9.275 14.867 C 9.028 14.567,9.160 14.581,6.660 14.572 C 5.268 14.567,4.370 14.579,4.288 14.603 M7.200 17.400 L 7.200 18.000 6.600 18.000 L 6.000 18.000 6.000 17.400 L 6.000 16.800 6.600 16.800 L 7.200 16.800 7.200 17.400 M15.717 18.157 C 15.043 18.187,15.006 18.199,14.752 18.466 C 14.489 18.744,14.387 19.272,14.532 19.611 C 14.632 19.844,15.023 20.232,15.208 20.282 C 15.474 20.354,16.560 20.397,18.105 20.399 L 19.590 20.400 19.859 20.115 C 20.201 19.753,20.319 19.508,20.320 19.163 C 20.320 18.862,20.223 18.626,20.013 18.416 C 19.754 18.156,19.851 18.170,18.020 18.148 C 17.096 18.138,16.060 18.141,15.717 18.157 " fill="#373B4D" stroke="none" fill-rule="evenodd"></path></svg>