<svg width="24" height="24" viewBox="0 0 24 24" fill="none" xmlns="http://www.w3.org/2000/svg"><path d="M11.317 3.887 C 11.156 4.024,11.020 4.183,10.947 4.322 L 10.832 4.540 10.849 5.440 C 10.868 6.469,10.883 6.530,11.195 6.805 C 11.468 7.046,11.582 7.092,11.949 7.112 C 12.246 7.128,12.301 7.119,12.498 7.023 C 12.716 6.916,12.944 6.692,13.073 6.460 C 13.130 6.358,13.140 6.205,13.140 5.440 C 13.140 4.390,13.112 4.265,12.818 4.006 C 12.609 3.822,12.343 3.733,11.896 3.697 L 11.572 3.671 11.317 3.887 M4.560 3.756 C 4.245 3.785,4.079 3.880,3.797 4.193 L 3.592 4.420 3.613 6.520 C 3.625 7.832,3.649 8.673,3.676 8.760 C 3.729 8.934,4.016 9.266,4.283 9.462 L 4.486 9.611 6.638 9.592 L 8.790 9.573 8.982 9.417 C 9.088 9.331,9.270 9.144,9.387 9.002 L 9.600 8.744 9.598 7.362 C 9.597 5.654,9.549 4.547,9.470 4.358 C 9.395 4.180,9.224 3.978,9.025 3.834 L 8.868 3.720 6.844 3.726 C 5.731 3.730,4.703 3.743,4.560 3.756 M15.136 3.761 C 14.952 3.818,14.662 4.092,14.558 4.309 C 14.473 4.486,14.464 4.580,14.428 5.581 C 14.404 6.249,14.403 7.051,14.426 7.681 C 14.467 8.837,14.477 8.879,14.803 9.206 C 15.091 9.495,15.180 9.526,15.818 9.563 C 16.611 9.609,18.747 9.606,19.197 9.559 C 19.669 9.509,19.832 9.420,20.159 9.031 L 20.400 8.745 20.399 7.323 C 20.398 5.655,20.348 4.543,20.266 4.352 C 20.235 4.279,20.142 4.143,20.061 4.049 C 19.779 3.725,19.930 3.743,17.460 3.733 C 16.157 3.727,15.209 3.739,15.136 3.761 M7.200 6.600 L 7.200 7.200 6.600 7.200 L 6.000 7.200 6.000 6.600 L 6.000 6.000 6.600 6.000 L 7.200 6.000 7.200 6.600 M18.000 6.600 L 18.000 7.200 17.400 7.200 L 16.800 7.200 16.800 6.600 L 16.800 6.000 17.400 6.000 L 18.000 6.000 18.000 6.600 M11.361 8.667 C 11.108 8.846,10.938 9.097,10.880 9.380 C 10.813 9.700,10.784 11.241,10.835 11.780 C 10.897 12.441,10.929 12.535,11.173 12.770 C 11.534 13.116,11.579 13.129,12.560 13.164 C 13.033 13.181,13.979 13.196,14.663 13.197 L 15.906 13.200 16.093 13.077 C 16.503 12.804,16.798 12.274,16.743 11.906 C 16.689 11.548,16.435 11.162,16.158 11.019 C 15.980 10.927,15.588 10.886,14.373 10.834 C 13.071 10.777,13.201 10.839,13.201 10.279 C 13.200 9.843,13.133 9.308,13.056 9.124 C 12.980 8.942,12.827 8.781,12.608 8.652 C 12.461 8.565,12.374 8.547,12.008 8.531 L 11.580 8.512 11.361 8.667 M18.845 10.920 C 18.647 10.967,18.398 11.156,18.255 11.369 C 17.915 11.874,18.048 12.567,18.556 12.936 C 18.924 13.203,19.257 13.221,19.707 12.999 C 20.120 12.796,20.320 12.473,20.320 12.011 C 20.319 11.745,20.221 11.454,20.072 11.278 C 19.817 10.977,19.275 10.819,18.845 10.920 M4.414 10.957 C 4.083 11.039,3.806 11.329,3.696 11.708 C 3.620 11.970,3.644 12.253,3.762 12.484 C 3.884 12.724,4.237 13.062,4.400 13.095 C 4.709 13.157,5.818 13.198,7.248 13.199 L 8.755 13.200 8.935 13.044 C 9.309 12.720,9.440 12.522,9.516 12.162 C 9.607 11.735,9.436 11.336,9.045 11.061 L 8.873 10.940 6.707 10.933 C 5.515 10.929,4.483 10.940,4.414 10.957 M11.956 14.519 C 11.642 14.540,11.539 14.565,11.390 14.652 C 11.161 14.786,10.938 15.043,10.903 15.212 C 10.770 15.864,10.770 18.939,10.904 19.593 C 10.944 19.787,11.275 20.131,11.526 20.239 C 11.786 20.351,12.249 20.341,12.500 20.219 C 12.705 20.120,12.989 19.837,13.064 19.657 C 13.145 19.462,13.198 18.692,13.199 17.676 L 13.200 16.813 13.370 16.763 C 13.972 16.587,14.403 16.021,14.351 15.476 C 14.326 15.219,14.118 14.881,13.845 14.657 L 13.631 14.480 12.985 14.486 C 12.630 14.490,12.167 14.504,11.956 14.519 M16.600 14.516 C 16.308 14.548,16.042 14.708,15.883 14.947 C 15.741 15.162,15.640 15.467,15.640 15.677 C 15.641 15.897,15.807 16.196,16.069 16.453 C 16.284 16.662,16.331 16.689,16.544 16.723 C 16.674 16.743,17.394 16.772,18.145 16.786 L 19.509 16.811 19.697 16.682 C 19.934 16.519,20.228 16.148,20.285 15.940 C 20.348 15.711,20.340 15.324,20.269 15.154 C 20.235 15.074,20.143 14.937,20.063 14.849 C 19.809 14.568,19.763 14.558,18.547 14.518 C 17.358 14.480,16.935 14.479,16.600 14.516 M4.336 14.561 C 4.152 14.618,3.862 14.893,3.759 15.109 C 3.678 15.279,3.664 15.394,3.631 16.140 C 3.611 16.602,3.606 17.520,3.619 18.180 C 3.647 19.587,3.661 19.655,3.975 19.977 C 4.288 20.298,4.368 20.327,5.039 20.363 C 5.866 20.409,7.951 20.406,8.397 20.359 C 8.869 20.309,9.023 20.225,9.354 19.834 L 9.600 19.544 9.599 18.122 C 9.598 16.455,9.548 15.343,9.466 15.152 C 9.435 15.079,9.342 14.943,9.261 14.849 C 8.979 14.525,9.130 14.543,6.660 14.533 C 5.357 14.527,4.409 14.539,4.336 14.561 M7.200 17.400 L 7.200 18.000 6.600 18.000 L 6.000 18.000 6.000 17.400 L 6.000 16.800 6.600 16.800 L 7.200 16.800 7.200 17.400 M15.214 18.157 C 14.883 18.239,14.606 18.529,14.496 18.908 C 14.420 19.170,14.444 19.453,14.562 19.684 C 14.684 19.924,15.037 20.262,15.200 20.295 C 15.509 20.357,16.618 20.398,18.048 20.399 L 19.555 20.400 19.735 20.244 C 20.109 19.920,20.240 19.722,20.316 19.362 C 20.407 18.935,20.236 18.536,19.845 18.261 L 19.673 18.140 17.507 18.133 C 16.315 18.129,15.283 18.140,15.214 18.157 " fill="#373B4D" stroke="none" fill-rule="evenodd"></path></svg>