<svg width="24" height="24" viewBox="0 0 24 24" fill="none" xmlns="http://www.w3.org/2000/svg"><path d="M4.640 3.634 C 4.233 3.688,3.906 3.918,3.732 4.272 L 3.620 4.500 3.620 6.600 L 3.620 8.700 3.713 8.888 C 3.831 9.127,4.073 9.369,4.312 9.487 L 4.500 9.580 6.600 9.580 L 8.700 9.580 8.888 9.487 C 9.127 9.369,9.369 9.127,9.487 8.888 L 9.580 8.700 9.580 6.600 C 9.580 4.692,9.574 4.486,9.511 4.346 C 9.394 4.089,9.215 3.899,8.963 3.765 L 8.721 3.636 6.791 3.621 C 5.729 3.612,4.761 3.618,4.640 3.634 M11.780 3.639 C 11.426 3.697,11.078 3.978,10.912 4.340 C 10.825 4.530,10.820 4.585,10.821 5.420 C 10.822 6.153,10.833 6.325,10.889 6.449 C 10.982 6.659,11.296 6.981,11.504 7.082 C 11.719 7.186,12.097 7.204,12.374 7.124 C 12.617 7.053,12.959 6.749,13.087 6.489 C 13.176 6.308,13.180 6.261,13.180 5.400 C 13.180 4.523,13.178 4.495,13.082 4.307 C 12.837 3.828,12.300 3.553,11.780 3.639 M15.560 3.634 C 15.150 3.666,14.965 3.754,14.711 4.036 C 14.418 4.362,14.420 4.347,14.420 6.640 C 14.420 8.219,14.432 8.693,14.473 8.810 C 14.547 9.018,14.884 9.375,15.111 9.486 C 15.300 9.579,15.304 9.579,17.365 9.594 C 19.372 9.608,19.434 9.606,19.613 9.527 C 19.862 9.417,20.175 9.116,20.298 8.868 L 20.400 8.664 20.399 6.602 C 20.398 4.662,20.394 4.530,20.322 4.372 C 20.217 4.141,19.940 3.852,19.713 3.737 L 19.524 3.640 17.712 3.624 C 16.715 3.615,15.747 3.619,15.560 3.634 M7.200 6.600 L 7.200 7.200 6.600 7.200 L 6.000 7.200 6.000 6.600 L 6.000 6.000 6.600 6.000 L 7.200 6.000 7.200 6.600 M18.000 6.600 L 18.000 7.200 17.400 7.200 L 16.800 7.200 16.800 6.600 L 16.800 6.000 17.400 6.000 L 18.000 6.000 18.000 6.600 M11.780 8.439 C 11.400 8.502,10.980 8.868,10.876 9.228 C 10.797 9.499,10.795 12.189,10.873 12.410 C 10.947 12.618,11.284 12.975,11.511 13.086 C 11.700 13.179,11.704 13.179,13.771 13.194 L 15.841 13.209 16.058 13.103 C 16.183 13.042,16.359 12.905,16.471 12.782 C 17.003 12.201,16.825 11.297,16.108 10.934 C 15.908 10.833,15.903 10.832,14.558 10.810 L 13.208 10.788 13.193 10.044 C 13.179 9.351,13.172 9.287,13.081 9.107 C 12.839 8.629,12.301 8.353,11.780 8.439 M4.760 10.834 C 4.236 10.875,3.929 11.074,3.738 11.497 C 3.601 11.799,3.580 12.025,3.663 12.318 C 3.747 12.619,4.022 12.945,4.311 13.086 C 4.500 13.179,4.504 13.179,6.571 13.194 L 8.641 13.209 8.858 13.103 C 9.602 12.739,9.814 11.820,9.289 11.236 C 9.190 11.126,9.022 10.992,8.916 10.938 L 8.724 10.840 6.912 10.824 C 5.915 10.815,4.947 10.819,4.760 10.834 M18.980 10.838 C 18.759 10.873,18.420 11.066,18.297 11.227 C 18.013 11.600,17.942 12.077,18.114 12.464 C 18.221 12.706,18.519 13.011,18.734 13.100 C 18.924 13.179,19.358 13.187,19.600 13.116 C 19.857 13.041,20.246 12.648,20.317 12.392 C 20.444 11.934,20.362 11.536,20.075 11.222 C 19.790 10.910,19.394 10.772,18.980 10.838 M4.760 14.434 C 4.350 14.466,4.165 14.554,3.911 14.836 C 3.618 15.162,3.620 15.147,3.620 17.440 C 3.620 19.019,3.632 19.493,3.673 19.610 C 3.747 19.818,4.084 20.175,4.311 20.286 C 4.500 20.379,4.504 20.379,6.565 20.394 C 8.572 20.408,8.634 20.406,8.813 20.327 C 9.062 20.217,9.375 19.916,9.498 19.668 L 9.600 19.464 9.599 17.402 C 9.598 15.462,9.594 15.330,9.522 15.172 C 9.417 14.941,9.140 14.652,8.913 14.537 L 8.724 14.440 6.912 14.424 C 5.915 14.415,4.947 14.419,4.760 14.434 M11.880 14.436 C 11.559 14.473,11.345 14.580,11.134 14.809 C 10.815 15.155,10.820 15.115,10.820 17.420 C 10.820 19.015,10.832 19.493,10.873 19.610 C 10.946 19.815,11.283 20.175,11.502 20.281 C 11.719 20.386,12.095 20.405,12.374 20.324 C 12.617 20.253,12.959 19.948,13.087 19.689 C 13.178 19.505,13.180 19.467,13.194 18.154 L 13.208 16.807 13.354 16.780 C 13.765 16.704,14.119 16.431,14.287 16.060 C 14.544 15.492,14.253 14.771,13.664 14.516 C 13.486 14.439,13.377 14.427,12.800 14.417 C 12.437 14.411,12.023 14.420,11.880 14.436 M16.700 14.434 C 16.233 14.480,15.919 14.696,15.738 15.097 C 15.524 15.570,15.589 16.011,15.928 16.381 C 16.291 16.779,16.275 16.775,17.970 16.794 L 19.440 16.809 19.658 16.703 C 20.402 16.339,20.614 15.420,20.089 14.836 C 19.990 14.726,19.823 14.592,19.717 14.539 C 19.530 14.444,19.504 14.442,18.253 14.424 C 17.553 14.415,16.854 14.419,16.700 14.434 M7.200 17.400 L 7.200 18.000 6.600 18.000 L 6.000 18.000 6.000 17.400 L 6.000 16.800 6.600 16.800 L 7.200 16.800 7.200 17.400 M15.560 18.034 C 15.036 18.075,14.729 18.274,14.538 18.697 C 14.401 18.999,14.380 19.225,14.463 19.518 C 14.547 19.819,14.822 20.145,15.111 20.286 C 15.300 20.379,15.304 20.379,17.371 20.394 L 19.441 20.409 19.658 20.303 C 20.402 19.939,20.614 19.020,20.089 18.436 C 19.990 18.326,19.822 18.192,19.716 18.138 L 19.524 18.040 17.712 18.024 C 16.715 18.015,15.747 18.019,15.560 18.034 " fill="#373B4D" stroke="none" fill-rule="evenodd"></path></svg>