<svg width="24" height="24" viewBox="0 0 24 24" fill="none" xmlns="http://www.w3.org/2000/svg"><path d="M5.911 3.761 L 4.321 3.788 4.171 3.893 C 4.088 3.951,3.924 4.082,3.806 4.185 L 3.592 4.373 3.606 6.586 L 3.620 8.799 4.019 9.199 L 4.418 9.600 6.600 9.600 L 8.781 9.600 9.197 9.183 L 9.612 8.767 9.588 7.033 C 9.563 5.211,9.521 4.605,9.404 4.340 C 9.365 4.252,9.238 4.077,9.122 3.950 L 8.912 3.720 8.206 3.727 C 7.818 3.731,6.785 3.746,5.911 3.761 M11.379 3.869 C 11.269 3.956,11.107 4.131,11.019 4.259 L 10.860 4.490 10.863 5.275 C 10.866 6.263,10.903 6.454,11.138 6.696 C 11.454 7.021,11.884 7.168,12.267 7.082 C 12.516 7.026,12.855 6.745,13.027 6.452 L 13.131 6.275 13.112 5.362 C 13.090 4.308,13.069 4.232,12.743 4.010 C 12.511 3.853,12.250 3.771,11.867 3.737 L 11.579 3.711 11.379 3.869 M14.972 3.899 C 14.810 3.969,14.617 4.235,14.537 4.497 C 14.447 4.792,14.389 6.164,14.419 7.300 C 14.455 8.659,14.498 8.850,14.847 9.188 C 15.152 9.484,15.291 9.522,16.254 9.567 C 17.164 9.611,18.956 9.581,19.292 9.518 C 19.596 9.460,19.788 9.352,20.110 9.058 L 20.400 8.794 20.400 7.587 C 20.399 6.128,20.343 4.923,20.257 4.526 C 20.182 4.180,20.004 3.947,19.766 3.881 C 19.675 3.856,18.769 3.841,17.360 3.842 C 15.523 3.843,15.076 3.854,14.972 3.899 M7.200 6.600 L 7.200 7.200 6.600 7.200 L 6.000 7.200 6.000 6.600 L 6.000 6.000 6.600 6.000 L 7.200 6.000 7.200 6.600 M18.000 6.600 L 18.000 7.200 17.400 7.200 L 16.800 7.200 16.800 6.600 L 16.800 6.000 17.400 6.000 L 18.000 6.000 18.000 6.600 M11.307 8.759 C 10.904 9.195,10.841 9.407,10.811 10.442 C 10.785 11.289,10.851 12.143,10.960 12.390 C 11.079 12.659,11.427 12.981,11.684 13.060 C 11.969 13.148,13.765 13.211,15.000 13.177 C 15.861 13.153,15.907 13.148,16.072 13.053 C 16.294 12.926,16.582 12.535,16.665 12.248 C 16.719 12.062,16.722 11.990,16.684 11.822 C 16.612 11.510,16.486 11.285,16.322 11.177 C 16.111 11.037,15.770 10.978,14.502 10.863 C 13.778 10.797,13.366 10.743,13.334 10.711 C 13.306 10.683,13.236 10.347,13.179 9.964 C 13.117 9.547,13.045 9.209,13.000 9.120 C 12.830 8.787,12.450 8.598,11.838 8.540 L 11.536 8.512 11.307 8.759 M18.684 11.027 C 18.321 11.211,18.047 11.717,18.106 12.094 C 18.201 12.693,18.716 13.161,19.225 13.108 C 20.193 13.008,20.654 11.919,19.994 11.293 C 19.752 11.065,19.538 10.981,19.160 10.969 C 18.900 10.960,18.788 10.974,18.684 11.027 M4.520 11.034 C 4.210 11.067,4.132 11.106,3.943 11.328 C 3.792 11.504,3.680 11.801,3.680 12.027 C 3.680 12.365,3.949 12.796,4.267 12.969 C 4.576 13.137,4.916 13.165,6.922 13.188 L 8.785 13.210 9.014 12.955 C 9.267 12.673,9.475 12.292,9.507 12.054 C 9.535 11.843,9.465 11.605,9.307 11.376 C 9.066 11.026,9.172 11.041,6.837 11.023 C 5.705 11.014,4.663 11.019,4.520 11.034 M12.404 14.525 C 11.750 14.562,11.489 14.625,11.244 14.802 C 10.880 15.065,10.829 15.391,10.824 17.500 C 10.821 18.861,10.829 19.095,10.890 19.331 C 11.009 19.795,11.165 20.021,11.480 20.183 C 11.585 20.237,11.711 20.256,11.980 20.256 C 12.386 20.256,12.519 20.207,12.773 19.966 C 13.105 19.651,13.157 19.406,13.188 18.020 C 13.201 17.470,13.225 16.980,13.244 16.932 C 13.262 16.883,13.393 16.770,13.534 16.681 C 14.174 16.277,14.459 15.689,14.244 15.217 C 14.203 15.127,14.059 14.925,13.923 14.767 L 13.676 14.480 13.328 14.486 C 13.137 14.489,12.721 14.507,12.404 14.525 M16.429 14.614 C 16.038 14.725,15.740 15.112,15.693 15.568 C 15.674 15.753,15.686 15.827,15.762 15.983 C 15.888 16.245,16.275 16.625,16.468 16.677 C 16.730 16.747,17.662 16.800,18.646 16.800 L 19.593 16.800 19.842 16.530 C 20.180 16.163,20.279 15.944,20.280 15.558 C 20.280 15.187,20.176 14.953,19.940 14.792 C 19.713 14.636,19.366 14.600,17.880 14.578 C 16.893 14.564,16.579 14.571,16.429 14.614 M4.175 14.697 C 4.009 14.770,3.858 14.975,3.758 15.264 C 3.558 15.841,3.544 18.895,3.738 19.541 C 3.856 19.931,4.185 20.207,4.650 20.306 C 4.883 20.356,5.261 20.369,6.580 20.371 C 8.694 20.376,8.756 20.364,9.310 19.858 L 9.600 19.594 9.600 18.387 C 9.599 16.928,9.543 15.723,9.457 15.326 C 9.382 14.980,9.204 14.747,8.966 14.681 C 8.875 14.656,7.969 14.641,6.560 14.642 C 4.746 14.643,4.275 14.654,4.175 14.697 M7.200 17.400 L 7.200 18.000 6.600 18.000 L 6.000 18.000 6.000 17.400 L 6.000 16.800 6.600 16.800 L 7.200 16.800 7.200 17.400 M15.320 18.234 C 15.010 18.267,14.932 18.306,14.743 18.528 C 14.592 18.704,14.480 19.001,14.480 19.227 C 14.480 19.565,14.749 19.996,15.067 20.169 C 15.376 20.337,15.716 20.365,17.722 20.388 L 19.585 20.410 19.814 20.155 C 20.067 19.873,20.275 19.492,20.307 19.254 C 20.335 19.043,20.265 18.805,20.107 18.576 C 19.866 18.226,19.972 18.241,17.637 18.223 C 16.505 18.214,15.463 18.219,15.320 18.234 " fill="#373B4D" stroke="none" fill-rule="evenodd"></path></svg>