<svg width="24" height="24" viewBox="0 0 24 24" fill="none" xmlns="http://www.w3.org/2000/svg"><path d="M16.000 3.679 C 15.116 3.702,15.116 3.702,14.812 3.949 C 14.551 4.162,14.486 4.339,14.434 4.983 C 14.379 5.669,14.416 8.540,14.483 8.780 C 14.513 8.890,14.605 9.016,14.777 9.186 C 15.203 9.604,14.997 9.574,17.400 9.577 C 19.365 9.580,19.509 9.575,19.635 9.507 C 19.819 9.406,20.093 9.148,20.267 8.911 L 20.412 8.713 20.388 6.627 C 20.373 5.320,20.349 4.485,20.321 4.394 C 20.268 4.212,19.954 3.876,19.740 3.770 C 19.592 3.697,19.473 3.690,18.200 3.674 C 17.441 3.665,16.451 3.667,16.000 3.679 M4.392 3.718 C 4.202 3.755,3.934 3.976,3.743 4.254 L 3.591 4.473 3.607 6.607 C 3.625 8.995,3.604 8.833,3.928 9.166 C 4.023 9.263,4.187 9.402,4.294 9.476 L 4.487 9.609 6.614 9.593 C 8.506 9.578,8.754 9.569,8.866 9.509 C 9.024 9.425,9.325 9.126,9.485 8.892 L 9.609 8.713 9.588 6.686 C 9.575 5.441,9.550 4.583,9.523 4.461 C 9.453 4.143,9.114 3.787,8.815 3.718 C 8.633 3.676,4.609 3.676,4.392 3.718 M11.373 3.821 C 11.145 3.979,10.990 4.162,10.891 4.390 C 10.838 4.514,10.827 4.691,10.830 5.407 C 10.834 6.393,10.855 6.484,11.152 6.788 C 11.421 7.064,11.603 7.139,12.000 7.139 C 12.270 7.139,12.373 7.122,12.500 7.054 C 12.721 6.936,13.057 6.570,13.120 6.379 C 13.179 6.201,13.198 4.829,13.146 4.511 C 13.105 4.259,12.879 3.976,12.597 3.821 C 12.404 3.716,12.336 3.701,11.980 3.690 L 11.580 3.678 11.373 3.821 M7.200 6.600 L 7.200 7.200 6.600 7.200 L 6.000 7.200 6.000 6.600 L 6.000 6.000 6.600 6.000 L 7.200 6.000 7.200 6.600 M18.000 6.600 L 18.000 7.200 17.400 7.200 L 16.800 7.200 16.800 6.600 L 16.800 6.000 17.400 6.000 L 18.000 6.000 18.000 6.600 M11.531 8.537 C 11.355 8.617,11.021 8.935,10.945 9.095 C 10.757 9.492,10.751 12.160,10.938 12.514 C 11.037 12.702,11.450 13.070,11.620 13.122 C 11.734 13.157,12.376 13.177,13.852 13.190 L 15.924 13.208 16.081 13.099 C 16.309 12.942,16.593 12.624,16.681 12.429 C 16.887 11.977,16.694 11.365,16.241 11.031 C 16.038 10.882,15.755 10.851,14.290 10.814 L 13.200 10.787 13.199 10.264 C 13.198 9.673,13.148 9.251,13.059 9.078 C 12.973 8.911,12.745 8.695,12.549 8.593 C 12.331 8.480,11.730 8.447,11.531 8.537 M5.120 10.877 C 4.478 10.898,4.404 10.908,4.225 11.000 C 3.718 11.259,3.488 11.948,3.738 12.460 C 3.890 12.770,4.175 13.053,4.400 13.116 C 4.529 13.152,5.161 13.173,6.648 13.188 L 8.715 13.210 8.917 13.063 C 9.481 12.649,9.668 12.177,9.496 11.600 C 9.408 11.303,9.088 10.987,8.813 10.927 C 8.586 10.878,6.126 10.844,5.120 10.877 M18.833 10.894 C 18.552 10.998,18.308 11.211,18.180 11.460 C 18.076 11.664,18.060 11.736,18.061 12.017 C 18.062 12.414,18.138 12.579,18.457 12.871 C 18.736 13.125,18.887 13.177,19.268 13.148 C 19.609 13.122,19.822 13.018,20.051 12.765 C 20.252 12.542,20.325 12.384,20.349 12.121 C 20.394 11.632,20.118 11.152,19.685 10.966 C 19.431 10.857,19.025 10.822,18.833 10.894 M5.200 14.479 C 4.316 14.502,4.316 14.502,4.012 14.749 C 3.751 14.962,3.686 15.139,3.634 15.783 C 3.579 16.469,3.616 19.340,3.683 19.580 C 3.713 19.690,3.805 19.816,3.977 19.986 C 4.402 20.404,4.197 20.373,6.600 20.377 C 8.565 20.380,8.709 20.375,8.835 20.307 C 9.019 20.206,9.293 19.948,9.467 19.711 L 9.612 19.513 9.588 17.427 C 9.573 16.120,9.549 15.285,9.521 15.194 C 9.468 15.012,9.154 14.676,8.940 14.570 C 8.792 14.497,8.673 14.490,7.400 14.474 C 6.641 14.465,5.651 14.467,5.200 14.479 M11.480 14.571 C 11.381 14.618,11.216 14.741,11.114 14.843 C 10.831 15.125,10.825 15.172,10.823 17.400 C 10.820 19.684,10.818 19.668,11.161 20.005 C 11.441 20.278,11.600 20.340,12.020 20.338 C 12.402 20.335,12.565 20.264,12.848 19.973 C 13.163 19.650,13.164 19.643,13.190 18.136 L 13.212 16.807 13.354 16.780 C 13.675 16.720,14.096 16.403,14.246 16.108 C 14.363 15.878,14.389 15.448,14.300 15.215 C 14.221 15.006,14.020 14.765,13.784 14.593 L 13.628 14.480 12.644 14.482 C 11.719 14.484,11.649 14.489,11.480 14.571 M16.290 14.563 C 16.063 14.677,15.796 14.981,15.710 15.223 C 15.628 15.453,15.620 15.742,15.689 15.975 C 15.756 16.205,16.202 16.657,16.420 16.717 C 16.514 16.743,17.181 16.772,18.044 16.787 L 19.507 16.813 19.688 16.688 C 19.973 16.492,20.231 16.180,20.300 15.949 C 20.427 15.520,20.341 15.112,20.064 14.827 C 19.734 14.487,19.823 14.501,18.040 14.488 C 16.493 14.477,16.456 14.479,16.290 14.563 M7.200 17.400 L 7.200 18.000 6.600 18.000 L 6.000 18.000 6.000 17.400 L 6.000 16.800 6.600 16.800 L 7.200 16.800 7.200 17.400 M15.920 18.077 C 15.278 18.098,15.204 18.108,15.025 18.200 C 14.518 18.459,14.288 19.148,14.538 19.660 C 14.690 19.970,14.975 20.253,15.200 20.316 C 15.329 20.352,15.961 20.373,17.448 20.388 L 19.515 20.410 19.717 20.263 C 20.281 19.849,20.468 19.377,20.296 18.800 C 20.208 18.503,19.888 18.187,19.613 18.127 C 19.386 18.078,16.926 18.044,15.920 18.077 " fill="#373B4D" stroke="none" fill-rule="evenodd"></path></svg>