<svg width="24" height="24" viewBox="0 0 24 24" fill="none" xmlns="http://www.w3.org/2000/svg"><path d="M11.372 3.834 C 11.082 4.063,10.890 4.329,10.857 4.544 C 10.843 4.641,10.839 5.085,10.848 5.530 C 10.861 6.142,10.881 6.375,10.927 6.482 C 11.008 6.668,11.401 7.016,11.596 7.074 C 11.785 7.131,12.210 7.133,12.405 7.079 C 12.592 7.027,12.892 6.763,13.031 6.526 C 13.138 6.343,13.140 6.329,13.154 5.533 C 13.171 4.516,13.139 4.340,12.894 4.078 C 12.658 3.826,12.430 3.733,11.960 3.698 L 11.579 3.670 11.372 3.834 M15.755 3.715 L 15.131 3.740 14.929 3.877 C 14.683 4.046,14.539 4.260,14.474 4.555 C 14.402 4.877,14.401 8.371,14.472 8.682 C 14.532 8.947,14.784 9.260,15.071 9.429 C 15.245 9.531,15.295 9.539,15.938 9.566 C 16.881 9.606,18.695 9.604,19.194 9.562 C 19.685 9.522,19.798 9.458,20.170 9.019 L 20.400 8.748 20.397 7.444 C 20.393 5.473,20.351 4.491,20.264 4.325 C 20.162 4.131,19.880 3.836,19.740 3.778 C 19.599 3.719,16.771 3.674,15.755 3.715 M4.300 3.779 C 4.193 3.817,4.048 3.933,3.864 4.127 L 3.589 4.420 3.609 6.540 C 3.626 8.335,3.639 8.683,3.692 8.808 C 3.767 8.987,4.026 9.273,4.281 9.461 L 4.471 9.600 6.065 9.597 C 6.942 9.595,7.924 9.581,8.246 9.566 L 8.833 9.539 9.026 9.376 C 9.133 9.286,9.306 9.107,9.410 8.978 L 9.600 8.744 9.598 7.442 C 9.596 6.726,9.581 5.766,9.564 5.310 C 9.533 4.500,9.529 4.474,9.415 4.251 C 9.329 4.082,9.241 3.982,9.082 3.871 L 8.866 3.720 6.663 3.722 C 4.884 3.723,4.429 3.734,4.300 3.779 M7.200 6.600 L 7.200 7.200 6.600 7.200 L 6.000 7.200 6.000 6.600 L 6.000 6.000 6.600 6.000 L 7.200 6.000 7.200 6.600 M18.000 6.600 L 18.000 7.200 17.400 7.200 L 16.800 7.200 16.800 6.600 L 16.800 6.000 17.400 6.000 L 18.000 6.000 18.000 6.600 M11.390 8.641 C 11.148 8.803,10.985 9.000,10.923 9.207 C 10.745 9.799,10.769 12.155,10.956 12.520 C 11.051 12.707,11.477 13.064,11.667 13.118 C 11.846 13.168,15.658 13.228,15.892 13.184 C 16.004 13.163,16.110 13.091,16.296 12.908 C 16.585 12.625,16.714 12.398,16.747 12.122 C 16.795 11.718,16.511 11.185,16.154 11.008 C 15.953 10.908,15.535 10.870,13.960 10.809 L 13.220 10.780 13.196 10.180 C 13.153 9.131,13.093 8.976,12.600 8.636 C 12.477 8.552,12.407 8.538,12.020 8.527 C 11.583 8.514,11.579 8.514,11.390 8.641 M4.720 10.914 C 4.288 10.944,4.138 11.012,3.899 11.292 C 3.634 11.602,3.570 12.109,3.752 12.465 C 3.869 12.693,4.157 13.003,4.313 13.068 C 4.514 13.152,5.523 13.197,7.246 13.199 L 8.752 13.200 8.996 12.994 C 9.306 12.731,9.462 12.487,9.518 12.174 C 9.595 11.746,9.490 11.444,9.162 11.149 C 8.985 10.990,8.932 10.965,8.730 10.945 C 8.376 10.910,5.148 10.885,4.720 10.914 M18.785 10.936 C 18.133 11.180,17.862 11.973,18.222 12.587 C 18.350 12.806,18.673 13.064,18.892 13.123 C 19.271 13.225,19.808 13.052,20.055 12.747 C 20.284 12.464,20.336 12.329,20.333 12.020 C 20.330 11.580,20.126 11.223,19.764 11.026 C 19.506 10.886,19.036 10.842,18.785 10.936 M4.955 14.515 L 4.331 14.540 4.129 14.677 C 3.883 14.846,3.739 15.060,3.674 15.355 C 3.602 15.677,3.601 19.171,3.672 19.482 C 3.732 19.747,3.984 20.061,4.272 20.229 C 4.447 20.332,4.493 20.339,5.158 20.366 C 6.149 20.406,7.947 20.404,8.415 20.362 C 8.884 20.320,9.004 20.252,9.370 19.819 L 9.600 19.548 9.597 18.244 C 9.593 16.273,9.551 15.291,9.464 15.125 C 9.362 14.931,9.080 14.636,8.940 14.578 C 8.799 14.519,5.971 14.474,4.955 14.515 M11.814 14.518 C 11.604 14.538,11.486 14.572,11.374 14.647 C 11.153 14.794,10.998 14.959,10.930 15.119 C 10.759 15.524,10.759 19.274,10.930 19.681 C 11.008 19.866,11.282 20.135,11.503 20.241 C 11.770 20.371,12.215 20.361,12.503 20.220 C 12.718 20.115,12.953 19.884,13.069 19.662 C 13.146 19.515,13.195 18.735,13.198 17.613 L 13.200 16.806 13.330 16.778 C 13.541 16.733,13.831 16.569,14.000 16.400 C 14.217 16.183,14.327 15.949,14.351 15.651 C 14.369 15.427,14.357 15.372,14.242 15.139 C 14.148 14.947,14.050 14.825,13.875 14.679 L 13.636 14.480 12.868 14.486 C 12.446 14.489,11.971 14.504,11.814 14.518 M16.520 14.516 C 15.848 14.611,15.410 15.568,15.781 16.129 C 15.928 16.351,16.218 16.633,16.350 16.684 C 16.514 16.747,17.497 16.798,18.573 16.799 L 19.526 16.800 19.699 16.681 C 19.924 16.526,20.148 16.266,20.253 16.040 C 20.360 15.809,20.367 15.324,20.266 15.131 C 20.170 14.947,19.978 14.738,19.810 14.634 C 19.674 14.550,19.603 14.542,18.662 14.515 C 17.479 14.481,16.769 14.481,16.520 14.516 M7.200 17.400 L 7.200 18.000 6.600 18.000 L 6.000 18.000 6.000 17.400 L 6.000 16.800 6.600 16.800 L 7.200 16.800 7.200 17.400 M15.520 18.114 C 15.088 18.144,14.938 18.212,14.699 18.492 C 14.434 18.802,14.370 19.309,14.552 19.665 C 14.669 19.893,14.957 20.203,15.113 20.268 C 15.314 20.352,16.323 20.397,18.046 20.399 L 19.552 20.400 19.796 20.194 C 20.106 19.931,20.262 19.687,20.318 19.374 C 20.395 18.946,20.290 18.644,19.962 18.349 C 19.785 18.190,19.732 18.165,19.530 18.145 C 19.176 18.110,15.948 18.085,15.520 18.114 " fill="#373B4D" stroke="none" fill-rule="evenodd"></path></svg>