<svg width="24" height="24" viewBox="0 0 24 24" fill="none" xmlns="http://www.w3.org/2000/svg"><path d="M11.528 3.747 C 11.366 3.827,10.991 4.235,10.897 4.433 C 10.836 4.561,10.831 4.671,10.853 5.399 C 10.867 5.850,10.899 6.289,10.923 6.374 C 10.982 6.585,11.243 6.856,11.514 6.989 C 11.701 7.081,11.793 7.100,12.043 7.100 C 12.308 7.100,12.367 7.086,12.515 6.988 C 12.722 6.851,12.986 6.583,13.066 6.429 C 13.115 6.334,13.123 6.147,13.113 5.387 C 13.101 4.538,13.093 4.444,13.014 4.274 C 12.913 4.055,12.687 3.904,12.305 3.799 C 11.901 3.688,11.678 3.673,11.528 3.747 M5.677 3.758 L 4.334 3.780 4.160 3.895 C 4.064 3.959,3.899 4.098,3.793 4.203 L 3.600 4.396 3.600 6.028 C 3.600 6.926,3.612 7.919,3.627 8.235 L 3.653 8.810 4.036 9.206 L 4.420 9.601 6.586 9.600 L 8.752 9.600 8.955 9.430 C 9.066 9.336,9.257 9.149,9.379 9.014 L 9.600 8.767 9.598 7.694 C 9.598 7.103,9.581 6.179,9.561 5.640 C 9.516 4.424,9.493 4.331,9.145 3.975 L 8.897 3.720 7.958 3.728 C 7.442 3.732,6.416 3.746,5.677 3.758 M15.020 3.838 C 14.863 3.901,14.607 4.226,14.541 4.446 C 14.368 5.019,14.354 8.105,14.522 8.727 C 14.584 8.958,14.868 9.281,15.123 9.412 C 15.318 9.511,15.408 9.528,15.921 9.561 C 16.668 9.609,18.374 9.609,18.940 9.561 C 19.559 9.509,19.700 9.450,20.087 9.086 L 20.411 8.781 20.388 7.001 C 20.361 4.932,20.327 4.510,20.164 4.221 C 20.002 3.934,19.893 3.867,19.528 3.834 C 19.096 3.794,15.118 3.798,15.020 3.838 M7.200 6.600 L 7.200 7.200 6.600 7.200 L 6.000 7.200 6.000 6.600 L 6.000 6.000 6.600 6.000 L 7.200 6.000 7.200 6.600 M18.000 6.600 L 18.000 7.200 17.400 7.200 L 16.800 7.200 16.800 6.600 L 16.800 6.000 17.400 6.000 L 18.000 6.000 18.000 6.600 M11.342 8.722 C 10.909 9.131,10.844 9.331,10.813 10.340 C 10.801 10.736,10.811 11.329,10.835 11.657 C 10.871 12.168,10.893 12.286,10.983 12.470 C 11.109 12.727,11.446 13.012,11.701 13.076 C 12.021 13.157,13.220 13.206,14.560 13.193 C 16.110 13.178,16.038 13.195,16.401 12.747 C 16.782 12.276,16.820 11.859,16.523 11.391 C 16.315 11.063,16.109 10.987,15.243 10.918 C 13.542 10.783,13.345 10.762,13.297 10.712 C 13.269 10.683,13.227 10.455,13.202 10.200 C 13.134 9.492,13.084 9.235,12.977 9.051 C 12.790 8.731,12.492 8.591,11.886 8.538 L 11.566 8.510 11.342 8.722 M18.851 10.956 C 18.584 11.025,18.353 11.220,18.209 11.500 C 17.855 12.188,18.393 13.123,19.140 13.118 C 19.555 13.115,19.988 12.868,20.172 12.529 C 20.561 11.811,20.084 10.999,19.238 10.941 C 19.096 10.931,18.922 10.938,18.851 10.956 M4.658 10.994 C 4.197 11.024,4.110 11.065,3.901 11.351 C 3.628 11.726,3.606 12.252,3.849 12.590 C 4.018 12.826,4.274 13.025,4.479 13.080 C 4.757 13.155,5.790 13.198,7.306 13.199 L 8.793 13.200 9.029 12.943 C 9.587 12.334,9.666 11.813,9.275 11.319 C 9.007 10.979,9.082 10.990,6.940 10.978 C 5.906 10.973,4.879 10.980,4.658 10.994 M12.283 14.524 C 11.705 14.554,11.650 14.564,11.411 14.681 C 11.123 14.823,10.988 14.990,10.923 15.285 C 10.808 15.802,10.758 18.042,10.840 18.956 C 10.893 19.544,10.967 19.769,11.176 19.978 C 11.388 20.190,11.656 20.286,12.037 20.285 C 12.462 20.283,12.831 20.052,13.016 19.670 C 13.139 19.415,13.199 18.743,13.200 17.620 C 13.201 17.224,13.214 16.881,13.231 16.858 C 13.247 16.835,13.368 16.764,13.500 16.700 C 13.968 16.475,14.330 15.990,14.337 15.580 C 14.341 15.321,14.222 15.088,13.912 14.744 L 13.674 14.480 13.287 14.486 C 13.074 14.489,12.622 14.506,12.283 14.524 M16.699 14.557 C 16.333 14.585,16.165 14.667,15.943 14.928 C 15.681 15.234,15.604 15.699,15.762 16.025 C 15.877 16.262,16.313 16.662,16.493 16.696 C 16.802 16.754,17.708 16.798,18.625 16.799 L 19.590 16.800 19.854 16.520 C 20.231 16.121,20.297 15.978,20.297 15.560 C 20.297 15.320,20.278 15.184,20.231 15.097 C 20.132 14.912,19.865 14.690,19.684 14.641 C 19.596 14.617,19.023 14.581,18.412 14.560 C 17.228 14.519,17.194 14.519,16.699 14.557 M4.217 14.639 C 4.068 14.699,3.803 15.042,3.739 15.256 C 3.565 15.837,3.557 18.999,3.727 19.569 C 3.793 19.789,4.081 20.095,4.341 20.222 C 4.538 20.318,4.622 20.332,5.229 20.362 C 6.121 20.407,7.643 20.406,8.140 20.360 C 8.769 20.302,8.903 20.247,9.283 19.890 L 9.611 19.581 9.588 17.801 C 9.561 15.732,9.527 15.310,9.364 15.021 C 9.202 14.734,9.093 14.667,8.728 14.634 C 8.290 14.594,4.317 14.598,4.217 14.639 M7.200 17.400 L 7.200 18.000 6.600 18.000 L 6.000 18.000 6.000 17.400 L 6.000 16.800 6.600 16.800 L 7.200 16.800 7.200 17.400 M15.458 18.194 C 14.997 18.224,14.910 18.265,14.701 18.551 C 14.428 18.926,14.406 19.452,14.649 19.790 C 14.818 20.026,15.074 20.225,15.279 20.280 C 15.557 20.355,16.590 20.398,18.106 20.399 L 19.593 20.400 19.829 20.143 C 20.387 19.534,20.466 19.013,20.075 18.519 C 19.807 18.179,19.882 18.190,17.740 18.178 C 16.706 18.173,15.679 18.180,15.458 18.194 " fill="#373B4D" stroke="none" fill-rule="evenodd"></path></svg>