<svg width="24" height="24" viewBox="0 0 24 24" fill="none" xmlns="http://www.w3.org/2000/svg"><path d="M10.800 2.602 C 9.953 2.652,9.188 2.852,8.279 3.261 C 6.771 3.938,5.535 4.887,4.488 6.170 C 3.517 7.359,2.767 9.091,2.533 10.680 C 2.428 11.395,2.439 12.868,2.554 13.500 C 2.856 15.155,3.599 16.799,4.565 17.948 C 4.922 18.373,5.698 19.144,6.080 19.452 C 6.934 20.141,8.561 20.975,9.600 21.255 C 10.436 21.481,10.632 21.500,12.100 21.497 L 13.460 21.494 14.014 21.346 C 15.888 20.845,17.402 20.015,18.653 18.802 C 19.696 17.790,20.318 16.838,20.913 15.340 C 21.339 14.268,21.411 13.950,21.483 12.820 C 21.537 11.953,21.512 10.911,21.423 10.380 C 21.183 8.955,20.388 7.240,19.397 6.013 C 18.128 4.440,15.991 3.130,14.061 2.740 C 13.262 2.578,12.060 2.527,10.800 2.602 M12.950 6.258 C 13.521 6.398,14.217 6.861,14.688 7.414 C 15.024 7.809,15.309 8.291,15.356 8.540 C 15.422 8.901,15.445 9.651,15.405 10.128 C 15.323 11.085,14.953 11.637,13.568 12.873 C 13.312 13.102,13.190 13.249,13.018 13.541 C 12.782 13.943,12.627 14.123,12.426 14.228 C 12.255 14.318,11.707 14.319,11.540 14.231 C 11.372 14.141,11.145 13.892,11.041 13.685 C 10.956 13.516,10.953 13.472,10.966 12.545 C 10.984 11.267,10.916 11.378,12.055 10.775 C 12.382 10.602,12.718 10.395,12.800 10.314 C 12.970 10.150,13.120 9.799,13.120 9.565 C 13.120 9.360,12.911 8.951,12.729 8.801 C 12.464 8.583,12.342 8.547,11.969 8.573 C 11.568 8.601,11.433 8.660,10.945 9.023 C 10.750 9.168,10.518 9.324,10.429 9.370 C 10.225 9.477,9.922 9.503,9.617 9.440 C 9.422 9.400,9.351 9.361,9.217 9.222 C 9.127 9.129,9.012 8.967,8.961 8.862 C 8.881 8.696,8.872 8.632,8.891 8.352 C 8.921 7.912,9.079 7.597,9.457 7.221 C 9.932 6.748,10.669 6.285,11.080 6.200 C 11.349 6.145,12.652 6.185,12.950 6.258 M12.504 15.872 C 12.722 15.983,12.912 16.186,12.960 16.358 C 12.982 16.436,13.000 16.682,13.000 16.904 C 13.000 17.283,12.993 17.316,12.890 17.449 C 12.650 17.760,12.212 17.955,11.870 17.904 C 11.631 17.868,11.300 17.668,11.159 17.473 C 10.999 17.251,10.950 17.046,10.966 16.661 C 10.978 16.374,10.994 16.319,11.104 16.170 C 11.357 15.825,11.520 15.756,12.022 15.777 C 12.246 15.786,12.393 15.815,12.504 15.872 " fill="#373B4D" stroke="none" fill-rule="evenodd"></path></svg>