<svg width="24" height="24" viewBox="0 0 24 24" fill="none" xmlns="http://www.w3.org/2000/svg"><path d="M10.289 2.625 C 9.884 2.688,9.108 2.900,8.687 3.064 C 7.846 3.390,6.714 4.042,6.040 4.589 C 5.622 4.928,4.580 5.998,4.311 6.365 C 3.488 7.486,2.931 8.746,2.599 10.240 C 2.430 11.002,2.402 12.647,2.544 13.480 C 2.754 14.707,3.342 16.217,3.993 17.200 C 4.677 18.233,5.842 19.378,6.866 20.023 C 7.315 20.306,8.462 20.870,8.970 21.057 C 9.925 21.410,10.747 21.536,12.080 21.534 C 12.901 21.533,13.134 21.519,13.520 21.448 C 15.715 21.046,17.863 19.828,19.258 18.196 C 20.031 17.291,20.567 16.333,21.060 14.972 C 21.389 14.066,21.440 13.808,21.485 12.820 C 21.527 11.881,21.505 10.799,21.433 10.340 C 21.294 9.444,20.679 7.897,20.099 6.980 C 19.148 5.480,17.896 4.341,16.320 3.543 C 15.235 2.994,14.306 2.706,13.286 2.602 C 12.677 2.540,10.743 2.555,10.289 2.625 M12.840 6.220 C 13.736 6.410,14.567 7.069,15.170 8.068 C 15.339 8.347,15.366 8.424,15.404 8.738 C 15.428 8.933,15.441 9.401,15.432 9.777 C 15.418 10.392,15.406 10.489,15.310 10.756 C 15.067 11.434,14.613 12.007,13.804 12.657 C 13.235 13.115,13.242 13.107,13.043 13.504 C 12.811 13.968,12.609 14.184,12.330 14.265 C 11.825 14.411,11.403 14.271,11.131 13.865 C 10.937 13.577,10.904 13.412,10.908 12.740 C 10.913 12.069,10.969 11.576,11.062 11.397 C 11.136 11.254,11.391 11.090,11.960 10.820 C 12.710 10.464,12.845 10.370,12.974 10.113 C 13.141 9.778,13.159 9.470,13.028 9.195 C 12.905 8.939,12.835 8.855,12.603 8.687 C 12.435 8.565,12.412 8.560,12.044 8.561 C 11.567 8.562,11.478 8.600,10.920 9.040 C 10.385 9.461,10.315 9.491,9.882 9.474 C 9.446 9.456,9.274 9.372,9.071 9.077 C 8.851 8.755,8.811 8.561,8.889 8.169 C 8.998 7.615,9.369 7.161,10.120 6.659 C 10.817 6.194,11.097 6.114,11.940 6.139 C 12.270 6.148,12.675 6.185,12.840 6.220 M12.414 15.803 C 12.612 15.858,12.901 16.125,12.967 16.313 C 12.996 16.396,13.019 16.639,13.019 16.867 C 13.019 17.256,13.014 17.282,12.898 17.446 C 12.642 17.811,12.211 17.981,11.773 17.889 C 11.476 17.827,11.271 17.679,11.099 17.405 C 10.963 17.187,10.960 17.174,10.960 16.757 C 10.960 16.334,10.961 16.330,11.097 16.153 C 11.223 15.987,11.373 15.859,11.520 15.793 C 11.616 15.749,12.246 15.757,12.414 15.803 " fill="#373B4D" stroke="none" fill-rule="evenodd"></path></svg>