<svg width="24" height="24" viewBox="0 0 24 24" fill="none" xmlns="http://www.w3.org/2000/svg"><path d="M10.660 2.601 C 9.835 2.654,8.901 2.934,7.932 3.419 C 6.915 3.928,6.190 4.422,5.524 5.059 C 4.210 6.315,3.506 7.395,2.955 8.996 C 2.612 9.992,2.499 10.606,2.456 11.693 C 2.402 13.057,2.604 14.186,3.137 15.514 C 3.660 16.813,4.230 17.672,5.239 18.681 C 6.113 19.556,6.684 19.967,7.781 20.513 C 8.654 20.948,9.091 21.124,9.682 21.279 C 10.454 21.481,11.004 21.530,12.289 21.509 C 13.385 21.492,13.435 21.487,13.920 21.369 C 16.834 20.654,19.188 18.870,20.433 16.434 C 20.676 15.959,21.082 14.964,21.239 14.460 C 21.392 13.967,21.438 13.640,21.487 12.712 C 21.590 10.728,21.434 9.797,20.732 8.201 C 19.765 6.002,18.098 4.338,15.838 3.317 C 14.934 2.909,14.057 2.676,13.140 2.601 C 12.607 2.557,11.338 2.557,10.660 2.601 M13.053 6.280 C 13.890 6.531,14.720 7.255,15.220 8.170 C 15.358 8.423,15.370 8.473,15.411 8.978 C 15.442 9.357,15.443 9.678,15.415 10.068 C 15.376 10.592,15.365 10.638,15.208 10.974 C 14.903 11.624,14.554 12.035,13.720 12.727 C 13.300 13.075,13.243 13.139,13.063 13.464 C 12.801 13.939,12.702 14.064,12.484 14.191 C 12.326 14.284,12.255 14.299,11.980 14.299 C 11.623 14.299,11.492 14.249,11.266 14.024 C 11.192 13.949,11.088 13.801,11.036 13.694 C 10.944 13.508,10.940 13.465,10.941 12.680 C 10.941 11.721,10.983 11.465,11.168 11.285 C 11.235 11.219,11.612 11.000,12.006 10.798 C 12.537 10.526,12.755 10.392,12.852 10.278 C 12.991 10.117,13.120 9.776,13.120 9.574 C 13.120 9.246,12.867 8.850,12.535 8.655 C 12.370 8.558,12.330 8.552,11.988 8.568 C 11.552 8.588,11.465 8.627,10.920 9.042 C 10.392 9.444,10.266 9.495,9.860 9.470 C 9.681 9.459,9.480 9.422,9.413 9.387 C 9.185 9.269,8.942 8.932,8.875 8.640 C 8.830 8.443,8.904 8.029,9.032 7.764 C 9.255 7.304,9.995 6.668,10.696 6.335 C 10.939 6.220,11.061 6.189,11.347 6.167 C 11.897 6.125,12.717 6.179,13.053 6.280 M12.337 15.798 C 12.553 15.849,12.802 16.032,12.909 16.222 C 12.988 16.360,12.999 16.438,12.999 16.844 L 13.000 17.308 12.861 17.491 C 12.702 17.699,12.378 17.879,12.105 17.910 C 11.698 17.955,11.242 17.696,11.048 17.308 C 10.976 17.163,10.960 17.063,10.960 16.752 C 10.960 16.396,10.967 16.363,11.084 16.187 C 11.209 15.998,11.354 15.871,11.526 15.803 C 11.647 15.754,12.135 15.751,12.337 15.798 " fill="#373B4D" stroke="none" fill-rule="evenodd"></path></svg>