<svg width="24" height="24" viewBox="0 0 24 24" fill="none" xmlns="http://www.w3.org/2000/svg"><path d="M10.460 2.556 C 8.397 2.940,6.796 3.749,5.385 5.120 C 4.496 5.984,3.882 6.821,3.377 7.860 C 2.066 10.554,2.096 13.601,3.462 16.323 C 4.177 17.749,5.334 19.053,6.680 19.949 C 7.607 20.566,8.758 21.065,9.980 21.380 C 10.692 21.563,12.698 21.607,13.602 21.459 C 14.327 21.340,15.373 20.991,16.183 20.597 C 17.678 19.870,19.020 18.714,19.908 17.388 C 20.322 16.768,20.870 15.645,21.111 14.919 C 21.413 14.007,21.475 13.692,21.529 12.787 C 21.595 11.660,21.531 10.569,21.360 9.900 C 21.053 8.702,20.624 7.713,19.996 6.757 C 18.554 4.560,16.139 2.990,13.567 2.575 C 13.303 2.532,12.811 2.507,12.020 2.497 C 11.015 2.484,10.807 2.492,10.460 2.556 M13.012 6.195 C 13.838 6.414,14.652 7.081,15.139 7.937 C 15.457 8.497,15.498 8.693,15.496 9.620 C 15.494 10.511,15.487 10.546,15.186 11.154 C 14.824 11.884,14.338 12.385,13.560 12.831 L 13.220 13.025 13.156 13.283 C 13.042 13.747,12.810 14.090,12.504 14.250 C 12.293 14.360,11.690 14.373,11.499 14.271 C 11.330 14.182,11.008 13.828,10.934 13.652 C 10.842 13.433,10.825 13.019,10.876 12.242 C 10.917 11.620,10.932 11.526,11.020 11.377 C 11.160 11.138,11.403 10.995,12.009 10.796 C 12.641 10.588,12.850 10.457,13.010 10.170 C 13.314 9.626,13.121 8.936,12.569 8.593 C 12.438 8.511,12.370 8.500,11.996 8.500 L 11.572 8.500 11.371 8.660 C 11.260 8.748,11.025 8.950,10.847 9.108 C 10.406 9.501,10.333 9.535,9.920 9.535 C 9.523 9.535,9.336 9.459,9.079 9.194 C 8.783 8.889,8.704 8.271,8.907 7.857 C 9.259 7.138,10.264 6.355,11.112 6.139 C 11.457 6.052,12.597 6.085,13.012 6.195 M12.541 15.791 C 12.890 15.971,13.070 16.265,13.108 16.717 C 13.165 17.402,12.746 17.904,12.080 17.950 C 11.394 17.997,10.876 17.498,10.876 16.790 C 10.876 16.629,10.896 16.444,10.920 16.378 C 11.030 16.087,11.312 15.807,11.585 15.719 C 11.784 15.655,12.361 15.698,12.541 15.791 " fill="#373B4D" stroke="none" fill-rule="evenodd"></path></svg>