<svg width="24" height="24" viewBox="0 0 24 24" fill="none" xmlns="http://www.w3.org/2000/svg"><path d="M11.000 2.463 C 8.701 2.737,6.759 3.671,5.175 5.265 C 2.751 7.704,1.820 11.347,2.781 14.634 C 3.551 17.270,5.288 19.358,7.732 20.586 C 8.548 20.996,9.533 21.315,10.507 21.484 C 10.943 21.559,11.167 21.573,12.000 21.573 C 12.833 21.573,13.057 21.559,13.493 21.484 C 16.681 20.930,19.280 18.988,20.644 16.140 C 20.953 15.495,21.137 14.984,21.320 14.263 C 21.528 13.445,21.573 13.025,21.570 11.920 C 21.567 11.152,21.552 10.892,21.483 10.500 C 21.304 9.479,21.026 8.628,20.573 7.714 C 19.332 5.208,17.068 3.393,14.321 2.701 C 13.686 2.541,13.242 2.480,12.412 2.440 C 11.490 2.395,11.587 2.393,11.000 2.463 M12.783 6.102 C 13.901 6.333,14.913 7.207,15.354 8.322 C 15.536 8.783,15.571 9.033,15.552 9.745 C 15.537 10.329,15.526 10.408,15.413 10.729 C 15.082 11.669,14.398 12.428,13.475 12.882 L 13.210 13.012 13.185 13.253 C 13.137 13.716,12.882 14.092,12.487 14.286 C 12.232 14.411,11.779 14.415,11.516 14.294 C 11.283 14.187,11.068 13.973,10.938 13.716 L 10.836 13.515 10.848 12.541 L 10.860 11.567 11.020 11.337 C 11.231 11.034,11.482 10.893,11.949 10.815 C 12.426 10.735,12.764 10.569,12.940 10.326 C 13.402 9.690,13.208 8.895,12.500 8.529 C 12.342 8.447,12.241 8.425,12.020 8.424 C 11.568 8.421,11.269 8.587,10.942 9.020 C 10.574 9.507,10.119 9.687,9.621 9.542 C 9.060 9.379,8.738 8.957,8.742 8.392 C 8.745 8.007,8.948 7.621,9.392 7.154 C 9.885 6.636,10.442 6.302,11.120 6.118 C 11.466 6.024,12.364 6.015,12.783 6.102 M12.549 15.763 C 12.978 15.971,13.160 16.290,13.160 16.832 C 13.160 17.089,13.143 17.161,13.032 17.368 C 12.572 18.231,11.349 18.182,10.914 17.283 C 10.785 17.017,10.787 16.572,10.918 16.303 C 11.224 15.674,11.902 15.450,12.549 15.763 " fill="#373B4D" stroke="none" fill-rule="evenodd"></path></svg>