<svg width="24" height="24" viewBox="0 0 24 24" fill="none" xmlns="http://www.w3.org/2000/svg"><path d="M10.680 2.562 C 9.847 2.629,8.634 3.012,7.629 3.528 C 6.202 4.260,4.700 5.649,3.844 7.030 C 3.150 8.149,2.629 9.657,2.483 10.968 C 2.393 11.782,2.448 13.117,2.601 13.808 C 2.934 15.313,3.521 16.620,4.374 17.760 C 4.745 18.256,5.679 19.189,6.160 19.545 C 7.337 20.416,8.933 21.157,10.160 21.403 C 10.776 21.526,11.996 21.584,12.790 21.528 C 13.767 21.459,14.413 21.305,15.429 20.897 C 17.178 20.195,18.614 19.108,19.703 17.660 C 20.334 16.821,21.026 15.314,21.362 14.047 C 21.467 13.651,21.517 12.929,21.518 11.780 C 21.520 10.756,21.475 10.352,21.285 9.680 C 20.787 7.921,19.954 6.474,18.748 5.274 C 17.986 4.515,17.233 3.978,16.240 3.485 C 15.354 3.044,14.574 2.780,13.756 2.644 C 13.093 2.533,11.552 2.492,10.680 2.562 M12.213 6.123 C 12.857 6.180,13.136 6.247,13.510 6.435 C 14.248 6.807,14.788 7.345,15.224 8.145 L 15.405 8.478 15.448 9.140 C 15.518 10.219,15.438 10.666,15.055 11.325 C 14.726 11.893,14.370 12.256,13.591 12.820 C 13.336 13.005,13.196 13.134,13.179 13.199 C 13.116 13.447,12.874 13.888,12.714 14.048 C 12.510 14.252,12.317 14.320,11.944 14.320 C 11.609 14.320,11.463 14.259,11.253 14.030 C 10.964 13.715,10.910 13.566,10.889 13.019 C 10.869 12.515,10.932 11.680,11.003 11.491 C 11.100 11.237,11.299 11.099,12.000 10.801 C 12.546 10.569,12.643 10.517,12.814 10.363 C 12.996 10.198,13.091 9.972,13.112 9.651 C 13.128 9.397,13.117 9.336,13.024 9.145 C 12.890 8.871,12.620 8.620,12.394 8.558 C 12.153 8.492,11.644 8.535,11.451 8.637 C 11.368 8.681,11.129 8.861,10.920 9.038 C 10.413 9.465,10.339 9.500,9.920 9.499 C 9.417 9.499,9.167 9.342,8.937 8.883 C 8.837 8.683,8.831 8.642,8.853 8.327 C 8.882 7.916,8.985 7.687,9.303 7.331 C 9.836 6.733,10.621 6.254,11.260 6.138 C 11.621 6.072,11.638 6.072,12.213 6.123 M12.509 15.803 C 12.665 15.863,12.951 16.181,12.997 16.346 C 13.059 16.570,13.051 17.176,12.984 17.338 C 12.892 17.558,12.631 17.788,12.395 17.858 C 11.799 18.035,11.280 17.832,11.031 17.324 C 10.900 17.058,10.880 16.514,10.993 16.296 C 11.115 16.060,11.408 15.794,11.588 15.757 C 11.762 15.721,12.373 15.752,12.509 15.803 " fill="#373B4D" stroke="none" fill-rule="evenodd"></path></svg>