<svg width="24" height="24" viewBox="0 0 24 24" fill="none" xmlns="http://www.w3.org/2000/svg"><path d="M10.960 2.483 C 10.529 2.522,9.753 2.687,9.175 2.863 C 7.694 3.311,6.417 4.074,5.312 5.171 C 3.805 6.665,2.893 8.403,2.543 10.445 C 2.150 12.732,2.671 15.225,3.947 17.178 C 5.248 19.167,7.063 20.510,9.409 21.217 C 10.384 21.511,10.564 21.534,11.920 21.537 C 13.206 21.540,13.437 21.520,14.160 21.339 C 16.336 20.794,18.255 19.563,19.560 17.875 C 20.466 16.703,21.204 15.049,21.468 13.600 C 21.571 13.039,21.571 10.898,21.468 10.380 C 20.876 7.391,19.104 4.964,16.480 3.550 C 15.484 3.013,14.237 2.625,13.173 2.522 C 12.619 2.469,11.364 2.446,10.960 2.483 M12.792 6.144 C 13.220 6.218,13.527 6.344,13.936 6.616 C 14.722 7.139,15.406 8.136,15.483 8.871 C 15.528 9.302,15.526 10.047,15.478 10.380 C 15.400 10.924,14.841 11.876,14.357 12.286 C 14.099 12.505,13.606 12.830,13.374 12.934 C 13.223 13.002,13.205 13.025,13.180 13.192 C 13.112 13.650,12.857 14.067,12.548 14.230 C 12.366 14.325,12.294 14.339,11.980 14.339 C 11.709 14.340,11.587 14.322,11.488 14.268 C 11.283 14.156,11.043 13.894,10.937 13.667 C 10.827 13.429,10.816 13.135,10.879 12.103 C 10.913 11.541,10.922 11.496,11.028 11.347 C 11.212 11.089,11.417 10.973,12.000 10.798 C 12.608 10.615,12.783 10.518,12.951 10.271 C 13.110 10.038,13.160 9.872,13.160 9.584 C 13.159 9.167,12.898 8.754,12.512 8.556 C 12.318 8.457,11.698 8.448,11.516 8.542 C 11.450 8.576,11.203 8.783,10.968 9.002 C 10.430 9.503,10.357 9.540,9.920 9.539 C 9.649 9.538,9.547 9.521,9.415 9.451 C 8.980 9.220,8.795 8.911,8.790 8.405 C 8.787 8.123,8.801 8.056,8.915 7.824 C 9.067 7.515,9.522 7.015,9.912 6.727 C 10.382 6.380,10.921 6.148,11.406 6.081 C 11.715 6.039,12.343 6.068,12.792 6.144 M12.372 15.722 C 12.624 15.786,12.894 16.001,13.002 16.225 C 13.129 16.487,13.159 17.007,13.061 17.262 C 12.883 17.730,12.334 18.044,11.851 17.955 C 11.433 17.878,11.139 17.668,10.972 17.328 C 10.819 17.017,10.815 16.559,10.962 16.265 C 11.064 16.060,11.279 15.850,11.493 15.744 C 11.642 15.671,12.121 15.659,12.372 15.722 " fill="#373B4D" stroke="none" fill-rule="evenodd"></path></svg>