<svg width="24" height="24" viewBox="0 0 24 24" fill="none" xmlns="http://www.w3.org/2000/svg"><path d="M10.800 2.560 C 9.246 2.685,7.471 3.441,6.040 4.585 C 5.599 4.937,4.771 5.770,4.440 6.194 C 3.480 7.422,2.855 8.853,2.533 10.560 C 2.444 11.034,2.431 12.733,2.513 13.300 C 2.652 14.269,3.083 15.571,3.565 16.480 C 3.987 17.275,4.415 17.854,5.100 18.555 C 6.022 19.499,6.625 19.943,7.760 20.518 C 9.182 21.237,10.130 21.486,11.668 21.544 C 12.869 21.589,13.772 21.467,14.800 21.121 C 16.055 20.698,17.043 20.168,18.000 19.405 C 19.520 18.193,20.455 16.796,21.163 14.680 C 21.468 13.769,21.494 13.558,21.497 12.000 C 21.500 10.529,21.486 10.391,21.255 9.591 C 20.689 7.634,19.633 5.982,18.143 4.724 C 16.822 3.609,14.953 2.773,13.400 2.604 C 12.865 2.546,11.301 2.519,10.800 2.560 M12.652 6.182 C 13.701 6.333,14.604 7.035,15.252 8.201 C 15.394 8.457,15.398 8.478,15.441 9.101 C 15.509 10.107,15.437 10.588,15.132 11.167 C 14.800 11.797,14.478 12.146,13.645 12.782 C 13.282 13.059,13.212 13.131,13.142 13.303 C 13.023 13.593,12.827 13.923,12.696 14.054 C 12.519 14.230,12.365 14.291,12.050 14.312 C 11.669 14.336,11.458 14.258,11.235 14.007 C 10.994 13.736,10.929 13.561,10.898 13.100 C 10.870 12.690,10.929 11.782,11.001 11.516 C 11.054 11.321,11.260 11.143,11.638 10.969 C 12.528 10.559,12.754 10.438,12.872 10.303 C 13.093 10.051,13.187 9.529,13.063 9.235 C 12.965 9.000,12.770 8.769,12.572 8.653 C 12.397 8.550,12.347 8.540,12.015 8.544 C 11.563 8.549,11.438 8.605,10.940 9.023 C 10.438 9.445,10.333 9.494,9.939 9.493 C 9.409 9.491,9.149 9.324,8.929 8.845 C 8.840 8.653,8.833 8.599,8.857 8.325 C 8.873 8.145,8.922 7.938,8.975 7.820 C 9.165 7.405,9.647 6.933,10.283 6.541 C 11.000 6.099,11.523 6.020,12.652 6.182 M12.491 15.814 C 12.639 15.876,12.860 16.089,12.944 16.249 C 13.021 16.397,13.056 16.774,13.022 17.093 C 12.998 17.324,12.975 17.378,12.832 17.539 C 12.625 17.775,12.405 17.886,12.097 17.910 C 11.639 17.947,11.278 17.754,11.060 17.354 C 10.954 17.160,10.943 17.103,10.942 16.754 C 10.940 16.387,10.946 16.358,11.061 16.195 C 11.128 16.100,11.259 15.963,11.354 15.891 C 11.523 15.762,11.533 15.760,11.944 15.760 C 12.206 15.760,12.411 15.780,12.491 15.814 " fill="#373B4D" stroke="none" fill-rule="evenodd"></path></svg>