<svg width="24" height="24" viewBox="0 0 24 24" fill="none" xmlns="http://www.w3.org/2000/svg"><path d="M10.380 2.584 C 9.146 2.805,7.814 3.332,6.818 3.994 C 5.607 4.798,4.441 6.012,3.731 7.210 C 3.095 8.282,2.595 9.799,2.477 11.017 C 2.416 11.644,2.450 13.022,2.538 13.500 C 2.834 15.098,3.464 16.562,4.384 17.783 C 4.692 18.193,5.413 18.941,5.860 19.314 C 6.955 20.230,8.796 21.132,10.113 21.398 C 10.966 21.570,12.647 21.601,13.520 21.460 C 14.869 21.242,16.569 20.504,17.751 19.625 C 18.512 19.058,19.458 18.066,19.930 17.340 C 20.536 16.406,21.175 14.903,21.408 13.860 C 21.477 13.553,21.492 13.309,21.509 12.193 C 21.531 10.702,21.515 10.522,21.278 9.660 C 20.383 6.398,18.040 3.934,14.858 2.907 C 14.259 2.714,13.727 2.612,13.060 2.562 C 12.253 2.502,10.772 2.514,10.380 2.584 M12.240 6.121 C 12.912 6.179,13.096 6.224,13.540 6.441 C 14.245 6.786,14.858 7.407,15.230 8.151 L 15.414 8.521 15.455 9.165 C 15.484 9.632,15.483 9.925,15.449 10.234 C 15.407 10.617,15.382 10.701,15.204 11.060 C 14.851 11.774,14.435 12.232,13.639 12.782 C 13.398 12.949,13.200 13.103,13.200 13.124 C 13.200 13.145,13.145 13.304,13.079 13.477 C 12.938 13.842,12.702 14.136,12.462 14.245 C 12.235 14.348,11.673 14.349,11.479 14.247 C 11.307 14.156,10.979 13.733,10.922 13.530 C 10.869 13.339,10.868 12.368,10.921 11.907 C 10.994 11.273,11.105 11.159,12.004 10.798 C 12.800 10.479,12.979 10.324,13.102 9.846 C 13.200 9.463,13.081 9.091,12.759 8.768 C 12.547 8.556,12.364 8.505,11.910 8.530 C 11.503 8.553,11.464 8.574,10.900 9.058 C 10.459 9.437,10.370 9.485,10.056 9.510 C 9.523 9.553,9.169 9.370,8.959 8.944 C 8.837 8.697,8.831 8.662,8.847 8.331 C 8.868 7.898,8.972 7.683,9.371 7.256 C 9.943 6.644,10.677 6.217,11.319 6.122 C 11.633 6.076,11.724 6.076,12.240 6.121 M12.554 15.823 C 12.735 15.938,12.884 16.093,12.972 16.260 C 13.084 16.472,13.095 17.148,12.990 17.345 C 12.779 17.740,12.470 17.919,11.998 17.920 C 11.494 17.920,11.203 17.728,10.995 17.258 C 10.876 16.989,10.868 16.526,10.979 16.301 C 11.075 16.107,11.323 15.853,11.493 15.775 C 11.670 15.695,12.403 15.728,12.554 15.823 " fill="#373B4D" stroke="none" fill-rule="evenodd"></path></svg>