<svg width="24" height="24" viewBox="0 0 24 24" fill="none" xmlns="http://www.w3.org/2000/svg"><path d="M11.620 2.046 C 8.033 2.083,8.084 2.079,7.506 2.373 C 7.264 2.496,7.097 2.621,6.858 2.859 L 6.537 3.180 4.869 6.491 C 3.952 8.312,3.161 9.932,3.111 10.091 C 3.036 10.330,3.021 10.466,3.023 10.880 C 3.028 11.741,2.796 11.295,6.036 16.668 C 6.805 17.945,7.034 18.213,7.580 18.483 C 8.141 18.761,8.215 18.767,10.240 18.714 L 12.020 18.667 15.470 19.956 C 17.367 20.666,18.949 21.240,18.986 21.233 C 19.172 21.196,19.146 21.130,18.230 19.318 L 17.330 17.540 18.997 14.527 C 20.876 11.132,21.009 10.847,21.065 10.101 C 21.092 9.734,21.044 9.421,20.908 9.083 C 20.807 8.834,19.740 6.851,19.561 6.580 C 19.503 6.492,19.033 5.683,18.518 4.781 C 17.615 3.203,17.567 3.130,17.239 2.797 C 16.959 2.513,16.836 2.421,16.559 2.288 C 16.135 2.085,15.721 1.998,15.212 2.007 C 14.996 2.010,13.380 2.028,11.620 2.046 M10.365 4.340 C 11.185 5.242,12.739 6.944,13.818 8.122 C 14.897 9.300,15.811 10.300,15.849 10.344 C 15.916 10.421,15.901 10.442,15.369 11.024 C 15.067 11.354,14.797 11.652,14.769 11.687 C 14.727 11.739,14.772 12.248,15.021 14.525 C 15.188 16.051,15.338 17.404,15.356 17.530 C 15.373 17.657,15.376 17.759,15.363 17.759 C 15.351 17.758,13.694 16.123,11.682 14.126 L 8.025 10.495 8.782 9.755 C 9.199 9.347,9.608 8.952,9.690 8.877 L 9.841 8.740 9.340 5.760 C 9.065 4.121,8.831 2.756,8.820 2.727 C 8.809 2.697,8.816 2.679,8.836 2.687 C 8.857 2.694,9.544 3.438,10.365 4.340 " fill="#373B4D" stroke="none" fill-rule="evenodd"></path></svg>