<svg width="24" height="24" viewBox="0 0 24 24" fill="none" xmlns="http://www.w3.org/2000/svg"><path d="M9.660 2.082 C 9.044 2.098,8.396 2.132,8.220 2.157 C 7.721 2.227,7.312 2.443,6.807 2.902 L 6.554 3.132 5.243 5.756 C 3.273 9.695,3.095 10.076,3.043 10.453 C 2.955 11.089,3.007 11.419,3.279 11.980 C 3.547 12.532,5.834 16.385,6.472 17.360 C 6.983 18.140,7.494 18.549,8.118 18.678 C 8.361 18.728,9.956 18.737,11.220 18.695 L 12.020 18.669 14.300 19.519 C 18.177 20.965,18.833 21.200,18.987 21.200 C 19.078 21.200,19.086 21.188,19.061 21.090 C 19.008 20.876,18.746 20.324,18.043 18.940 L 17.331 17.540 18.008 16.320 C 20.102 12.548,20.783 11.253,20.945 10.736 C 21.038 10.435,21.047 10.356,21.034 9.870 L 21.020 9.334 20.767 8.817 C 20.310 7.882,19.339 6.154,18.006 3.901 C 17.395 2.871,16.939 2.424,16.217 2.151 C 15.981 2.062,15.970 2.061,13.380 2.056 C 11.950 2.054,10.276 2.065,9.660 2.082 M9.325 3.210 C 9.556 3.458,11.065 5.109,12.678 6.880 C 14.292 8.651,15.666 10.157,15.731 10.227 C 15.819 10.321,15.844 10.379,15.826 10.447 C 15.813 10.498,15.597 10.768,15.346 11.046 C 15.095 11.324,14.861 11.594,14.825 11.645 C 14.718 11.798,14.698 11.557,15.180 16.040 C 15.256 16.755,15.319 17.420,15.320 17.518 L 15.320 17.696 14.850 17.239 C 14.592 16.988,12.951 15.370,11.205 13.643 L 8.030 10.504 8.937 9.607 L 9.843 8.710 9.362 5.845 C 9.097 4.269,8.871 2.931,8.861 2.870 C 8.851 2.809,8.856 2.760,8.874 2.760 C 8.891 2.760,9.094 2.962,9.325 3.210 " fill="#373B4D" stroke="none" fill-rule="evenodd"></path></svg>