<svg width="24" height="24" viewBox="0 0 24 24" fill="none" xmlns="http://www.w3.org/2000/svg"><path d="M8.740 2.122 C 8.177 2.156,7.915 2.203,7.654 2.319 C 7.427 2.419,7.069 2.668,6.785 2.924 C 6.551 3.135,6.543 3.149,5.003 6.238 C 4.152 7.944,3.372 9.538,3.270 9.780 C 2.929 10.589,2.914 11.165,3.217 11.849 C 3.413 12.292,5.803 16.342,6.430 17.294 C 6.884 17.984,7.356 18.416,7.870 18.612 C 8.096 18.698,8.139 18.700,10.120 18.702 L 12.140 18.705 14.660 19.648 C 18.734 21.173,19.081 21.291,19.080 21.155 C 19.079 21.041,18.666 20.159,18.010 18.871 L 17.333 17.540 18.110 16.140 C 20.025 12.690,20.862 11.080,20.979 10.622 C 21.018 10.469,21.040 10.198,21.040 9.869 L 21.040 9.355 20.702 8.688 C 20.122 7.542,18.163 4.094,17.719 3.439 C 17.319 2.848,16.927 2.488,16.410 2.233 L 16.140 2.100 12.700 2.096 C 10.808 2.093,9.026 2.105,8.740 2.122 M12.236 6.399 C 13.811 8.125,15.241 9.691,15.414 9.879 C 15.875 10.379,15.870 10.370,15.751 10.551 C 15.696 10.633,15.500 10.871,15.315 11.080 C 14.692 11.785,14.745 11.681,14.775 12.128 C 14.789 12.342,14.872 13.188,14.960 14.008 C 15.230 16.525,15.324 17.490,15.312 17.591 C 15.302 17.673,14.756 17.150,11.666 14.098 L 8.033 10.508 8.939 9.601 L 9.844 8.695 9.362 5.833 C 9.097 4.259,8.881 2.920,8.882 2.856 C 8.884 2.713,8.555 2.365,12.236 6.399 " fill="#373B4D" stroke="none" fill-rule="evenodd"></path></svg>