<svg width="24" height="24" viewBox="0 0 24 24" fill="none" xmlns="http://www.w3.org/2000/svg"><path d="M11.760 2.042 C 8.691 2.080,8.120 2.111,7.767 2.254 C 7.448 2.384,7.151 2.581,6.825 2.883 L 6.550 3.136 4.855 6.531 C 3.924 8.399,3.135 10.016,3.102 10.125 C 3.018 10.407,2.982 11.053,3.035 11.340 C 3.060 11.483,3.175 11.776,3.317 12.062 C 3.558 12.552,6.090 16.800,6.533 17.460 C 6.955 18.089,7.271 18.368,7.802 18.584 C 8.190 18.742,8.541 18.759,10.363 18.713 L 12.025 18.671 14.763 19.691 C 18.586 21.116,18.995 21.261,19.049 21.207 C 19.129 21.127,19.014 20.866,18.161 19.180 L 17.331 17.540 17.630 17.000 C 20.266 12.247,20.759 11.318,20.942 10.757 C 21.035 10.471,21.052 10.350,21.054 9.960 C 21.055 9.581,21.040 9.454,20.964 9.240 C 20.867 8.964,20.049 7.406,19.624 6.689 C 19.484 6.453,19.023 5.657,18.600 4.920 C 18.177 4.183,17.749 3.456,17.649 3.305 C 17.257 2.712,16.672 2.268,16.060 2.102 C 15.727 2.011,15.013 2.001,11.760 2.042 M10.620 4.620 C 11.669 5.771,15.482 9.950,15.792 10.288 C 15.917 10.425,15.929 10.406,15.265 11.137 C 14.768 11.684,14.760 11.696,14.760 11.882 C 14.760 12.129,14.792 12.443,15.104 15.293 C 15.248 16.610,15.356 17.697,15.344 17.709 C 15.325 17.728,10.366 12.839,8.568 11.030 L 8.036 10.494 8.939 9.607 L 9.843 8.720 9.341 5.758 C 9.066 4.130,8.841 2.775,8.841 2.749 C 8.843 2.684,9.137 2.994,10.620 4.620 " fill="#373B4D" stroke="none" fill-rule="evenodd"></path></svg>