<svg width="24" height="24" viewBox="0 0 24 24" fill="none" xmlns="http://www.w3.org/2000/svg"><path d="M8.122 4.084 C 7.592 4.152,7.075 4.522,6.812 5.021 C 6.644 5.339,6.493 5.870,6.459 6.263 C 6.426 6.643,6.489 7.394,6.622 8.206 C 6.767 9.086,6.805 8.989,6.230 9.194 C 5.528 9.444,4.809 9.760,4.430 9.985 C 3.968 10.260,3.380 10.849,3.197 11.220 C 3.063 11.492,3.060 11.509,3.061 11.999 C 3.062 12.471,3.068 12.513,3.178 12.731 C 3.382 13.138,3.840 13.625,4.320 13.945 C 4.731 14.220,5.641 14.651,6.328 14.897 C 6.497 14.957,6.654 15.028,6.676 15.055 C 6.703 15.088,6.677 15.364,6.593 15.922 C 6.434 16.983,6.421 17.842,6.555 18.340 C 6.682 18.808,6.838 19.110,7.097 19.390 C 7.754 20.099,8.763 20.144,10.000 19.520 C 10.361 19.338,10.854 18.997,11.437 18.527 C 11.710 18.306,11.964 18.118,12.002 18.108 C 12.047 18.096,12.248 18.231,12.566 18.486 C 13.604 19.320,14.247 19.706,14.879 19.879 C 15.676 20.096,16.452 19.902,16.921 19.369 C 17.158 19.100,17.421 18.548,17.481 18.195 C 17.559 17.733,17.511 16.178,17.401 15.644 C 17.264 14.972,17.226 15.030,18.000 14.732 C 18.363 14.592,18.841 14.390,19.063 14.282 C 20.285 13.687,21.088 12.654,20.977 11.822 C 20.939 11.540,20.824 11.230,20.681 11.022 C 20.505 10.766,20.077 10.348,19.792 10.155 C 19.439 9.915,18.424 9.437,17.800 9.216 C 17.503 9.111,17.257 9.024,17.253 9.023 C 17.249 9.021,17.293 8.786,17.349 8.500 C 17.440 8.039,17.454 7.856,17.469 6.890 C 17.486 5.850,17.483 5.788,17.398 5.530 C 17.200 4.922,16.867 4.490,16.413 4.252 C 16.079 4.076,15.813 4.025,15.384 4.052 C 14.553 4.105,13.696 4.570,12.370 5.690 L 12.001 6.003 11.498 5.579 C 10.487 4.728,9.486 4.173,8.832 4.100 C 8.716 4.087,8.566 4.070,8.500 4.063 C 8.434 4.056,8.264 4.065,8.122 4.084 M8.775 4.841 C 9.116 4.891,9.576 5.101,10.072 5.435 C 10.475 5.706,11.155 6.243,11.334 6.432 L 11.448 6.552 10.682 7.492 C 10.040 8.279,9.895 8.435,9.788 8.457 C 9.669 8.481,7.585 8.800,7.546 8.800 C 7.524 8.800,7.428 8.366,7.313 7.740 C 7.197 7.107,7.189 6.012,7.299 5.700 C 7.399 5.417,7.615 5.107,7.796 4.987 C 8.073 4.804,8.291 4.771,8.775 4.841 M16.031 4.903 C 16.531 5.152,16.758 5.703,16.759 6.670 C 16.760 7.356,16.577 8.629,16.460 8.754 C 16.417 8.799,16.238 8.781,15.360 8.644 C 14.783 8.554,14.248 8.449,14.170 8.412 C 14.081 8.371,13.897 8.186,13.684 7.925 C 13.495 7.694,13.164 7.292,12.948 7.031 C 12.733 6.771,12.568 6.539,12.582 6.516 C 12.648 6.409,13.543 5.683,13.915 5.434 C 14.658 4.937,14.979 4.807,15.482 4.803 C 15.773 4.800,15.855 4.815,16.031 4.903 M12.548 7.738 C 12.863 8.128,12.987 8.309,12.958 8.338 C 12.902 8.394,11.100 8.396,11.043 8.339 C 10.971 8.267,11.917 7.146,12.032 7.168 C 12.067 7.175,12.299 7.431,12.548 7.738 M13.708 9.298 C 13.808 9.414,14.490 10.549,14.981 11.415 L 15.295 11.971 15.141 12.271 C 14.915 12.710,14.171 14.003,13.892 14.441 L 13.651 14.820 13.396 14.845 C 13.054 14.879,10.836 14.886,10.570 14.854 L 10.360 14.829 10.044 14.324 C 9.638 13.677,9.280 13.061,8.965 12.470 L 8.715 12.000 8.965 11.530 C 9.282 10.935,9.639 10.322,10.051 9.664 L 10.374 9.148 11.996 9.170 L 13.618 9.192 13.708 9.298 M9.319 9.310 C 9.317 9.367,8.370 10.977,8.331 10.990 C 8.239 11.020,7.822 9.872,7.847 9.656 C 7.862 9.527,7.892 9.517,8.741 9.365 C 9.243 9.276,9.320 9.268,9.319 9.310 M15.379 9.401 C 15.748 9.468,16.083 9.540,16.125 9.562 C 16.166 9.585,16.200 9.646,16.200 9.699 C 16.200 9.893,15.739 11.013,15.669 10.990 C 15.630 10.977,14.683 9.367,14.681 9.310 C 14.680 9.271,14.612 9.263,15.379 9.401 M7.399 10.840 C 7.631 11.423,7.834 11.920,7.849 11.944 C 7.864 11.968,7.799 12.175,7.704 12.404 C 7.609 12.633,7.409 13.130,7.261 13.509 C 7.113 13.887,6.966 14.219,6.934 14.245 C 6.889 14.282,6.760 14.249,6.309 14.082 C 5.541 13.799,4.974 13.517,4.596 13.232 C 4.238 12.962,4.054 12.755,3.898 12.444 C 3.799 12.246,3.792 12.201,3.814 11.930 C 3.828 11.767,3.869 11.572,3.904 11.497 C 4.074 11.138,4.598 10.701,5.227 10.393 C 5.652 10.185,6.817 9.757,6.918 9.772 C 6.954 9.777,7.137 10.184,7.399 10.840 M17.495 9.896 C 18.002 10.066,18.861 10.456,19.286 10.708 C 19.646 10.922,19.943 11.219,20.086 11.509 C 20.161 11.662,20.180 11.763,20.179 12.020 C 20.178 12.298,20.162 12.368,20.060 12.555 C 19.833 12.969,19.215 13.430,18.436 13.766 C 17.964 13.970,17.282 14.200,17.149 14.200 C 17.036 14.200,17.077 14.286,16.501 12.844 L 16.159 11.988 16.534 11.024 C 16.741 10.494,16.931 9.992,16.958 9.910 C 16.984 9.828,17.025 9.760,17.048 9.760 C 17.071 9.760,17.272 9.821,17.495 9.896 M11.468 10.495 C 11.125 10.624,10.687 11.035,10.516 11.388 C 10.439 11.547,10.424 11.645,10.422 11.979 C 10.420 12.347,10.430 12.400,10.540 12.618 C 10.777 13.088,11.243 13.443,11.780 13.563 C 12.344 13.690,13.163 13.230,13.461 12.621 C 13.560 12.419,13.573 12.349,13.574 11.987 C 13.576 11.636,13.562 11.552,13.479 11.380 C 13.358 11.129,12.918 10.685,12.676 10.568 C 12.435 10.451,11.702 10.407,11.468 10.495 M8.889 13.914 C 9.151 14.362,9.355 14.738,9.344 14.749 C 9.322 14.771,8.532 14.637,8.073 14.533 C 7.824 14.477,7.800 14.462,7.800 14.370 C 7.800 14.241,8.008 13.634,8.187 13.243 C 8.310 12.973,8.330 12.949,8.369 13.020 C 8.394 13.064,8.628 13.466,8.889 13.914 M15.955 13.498 C 16.040 13.719,16.143 14.006,16.184 14.135 C 16.257 14.368,16.257 14.369,16.174 14.437 C 16.087 14.507,15.247 14.678,14.920 14.692 C 14.764 14.699,14.742 14.690,14.753 14.625 C 14.767 14.542,15.333 13.505,15.551 13.162 C 15.680 12.958,15.693 12.949,15.745 13.020 C 15.775 13.061,15.870 13.276,15.955 13.498 M9.252 15.493 L 9.964 15.583 10.268 15.982 C 10.435 16.201,10.740 16.583,10.946 16.832 C 11.152 17.081,11.347 17.335,11.379 17.397 C 11.436 17.509,11.434 17.513,11.209 17.727 C 10.566 18.336,9.636 18.927,9.026 19.115 C 8.296 19.341,7.757 19.146,7.415 18.534 L 7.272 18.278 7.292 17.169 C 7.311 16.081,7.327 15.931,7.481 15.357 L 7.519 15.215 8.030 15.309 C 8.310 15.361,8.860 15.444,9.252 15.493 M16.494 15.259 C 16.709 15.475,16.866 17.571,16.709 18.149 C 16.562 18.694,16.278 19.044,15.877 19.173 C 15.603 19.262,15.385 19.257,15.054 19.156 C 14.440 18.968,13.768 18.546,13.001 17.868 L 12.562 17.480 13.102 16.810 C 13.399 16.442,13.749 16.020,13.881 15.873 C 14.158 15.565,14.092 15.587,15.300 15.397 C 15.718 15.331,16.123 15.261,16.200 15.243 C 16.404 15.192,16.428 15.194,16.494 15.259 M13.016 15.674 C 13.037 15.708,12.302 16.615,12.110 16.792 L 12.010 16.885 11.748 16.592 C 11.440 16.248,11.041 15.752,11.040 15.712 C 11.040 15.671,11.327 15.655,12.208 15.647 C 12.641 15.643,13.005 15.655,13.016 15.674 " fill="#373B4D" stroke="none" fill-rule="evenodd"></path></svg>