<svg width="24" height="24" viewBox="0 0 24 24" fill="none" xmlns="http://www.w3.org/2000/svg"><path d="M15.220 4.069 C 14.460 4.174,13.652 4.627,12.469 5.611 L 11.998 6.003 11.649 5.711 C 10.915 5.096,10.423 4.753,9.851 4.458 C 9.286 4.167,9.024 4.100,8.440 4.100 C 7.960 4.100,7.929 4.105,7.668 4.229 C 7.108 4.494,6.748 4.974,6.564 5.703 C 6.401 6.346,6.414 6.870,6.626 8.231 C 6.716 8.812,6.721 8.892,6.669 8.971 C 6.628 9.033,6.429 9.126,6.021 9.275 C 5.188 9.580,4.327 10.018,3.984 10.313 C 3.629 10.618,3.305 11.002,3.168 11.280 C 3.068 11.484,3.060 11.536,3.061 12.000 C 3.062 12.487,3.065 12.506,3.192 12.741 C 3.381 13.092,3.688 13.449,4.057 13.744 C 4.419 14.036,5.308 14.500,6.100 14.812 C 6.364 14.916,6.606 15.018,6.638 15.038 C 6.699 15.077,6.689 15.213,6.538 16.320 C 6.446 17.000,6.455 17.938,6.557 18.334 C 6.678 18.799,6.862 19.142,7.143 19.424 C 7.732 20.015,8.548 20.114,9.549 19.717 C 10.149 19.478,10.494 19.262,11.424 18.540 C 11.722 18.309,11.990 18.120,12.019 18.120 C 12.076 18.120,12.397 18.349,12.877 18.732 C 14.357 19.911,15.479 20.227,16.449 19.736 C 16.889 19.513,17.313 18.901,17.458 18.280 C 17.572 17.794,17.527 16.311,17.374 15.490 L 17.305 15.121 17.395 15.026 C 17.444 14.973,17.685 14.853,17.932 14.759 C 19.021 14.342,19.606 14.025,20.110 13.579 C 20.539 13.200,20.874 12.662,20.961 12.212 C 21.021 11.903,20.945 11.513,20.754 11.155 C 20.573 10.815,19.955 10.234,19.518 9.994 C 19.036 9.730,18.340 9.417,17.757 9.204 L 17.254 9.020 17.327 8.640 C 17.489 7.804,17.541 6.019,17.416 5.597 C 17.294 5.186,17.112 4.871,16.841 4.597 C 16.394 4.146,15.878 3.978,15.220 4.069 M8.737 4.842 C 9.209 4.910,9.793 5.213,10.540 5.779 C 10.782 5.962,11.087 6.210,11.218 6.329 L 11.456 6.546 10.818 7.323 C 10.032 8.282,9.901 8.426,9.789 8.454 C 9.613 8.497,7.553 8.806,7.538 8.791 C 7.530 8.783,7.465 8.498,7.393 8.158 C 7.269 7.569,7.263 7.498,7.262 6.640 L 7.260 5.740 7.371 5.529 C 7.571 5.149,7.835 4.912,8.140 4.837 C 8.312 4.796,8.424 4.796,8.737 4.842 M16.037 4.925 C 16.439 5.125,16.633 5.472,16.723 6.146 C 16.795 6.686,16.683 8.044,16.520 8.610 C 16.477 8.756,16.471 8.760,16.288 8.760 C 16.078 8.760,14.991 8.597,14.502 8.493 C 14.112 8.410,14.047 8.356,13.402 7.580 C 12.691 6.725,12.578 6.565,12.626 6.486 C 12.692 6.379,13.590 5.655,13.980 5.395 C 14.661 4.941,14.996 4.813,15.524 4.804 C 15.744 4.801,15.828 4.820,16.037 4.925 M12.725 7.969 C 12.854 8.144,12.960 8.301,12.960 8.319 C 12.960 8.370,11.998 8.410,11.501 8.379 C 11.247 8.363,11.040 8.339,11.040 8.324 C 11.040 8.233,11.725 7.384,11.914 7.241 L 12.020 7.161 12.255 7.406 C 12.384 7.541,12.595 7.795,12.725 7.969 M13.710 9.310 C 13.806 9.427,14.731 10.970,15.082 11.597 L 15.293 11.975 15.157 12.237 C 14.946 12.645,14.192 13.954,13.906 14.409 L 13.648 14.820 13.394 14.845 C 13.054 14.879,10.780 14.887,10.546 14.855 L 10.361 14.829 9.987 14.225 C 9.576 13.561,9.245 12.989,8.924 12.390 L 8.715 12.000 8.924 11.610 C 9.246 11.008,9.577 10.438,9.994 9.764 L 10.375 9.147 11.998 9.174 L 13.620 9.201 13.710 9.310 M9.320 9.303 C 9.320 9.334,8.834 10.182,8.569 10.612 C 8.450 10.806,8.332 10.957,8.306 10.949 C 8.242 10.928,7.988 10.298,7.899 9.940 C 7.794 9.519,7.759 9.542,8.774 9.360 C 9.223 9.279,9.320 9.269,9.320 9.303 M15.556 9.441 C 15.877 9.504,16.147 9.577,16.166 9.607 C 16.186 9.636,16.191 9.722,16.178 9.797 C 16.133 10.054,15.745 10.960,15.680 10.960 C 15.629 10.960,14.680 9.384,14.680 9.301 C 14.680 9.273,14.758 9.285,15.556 9.441 M7.020 9.960 C 7.162 10.240,7.840 11.919,7.840 11.991 C 7.840 12.053,7.441 13.080,7.134 13.810 C 6.976 14.183,6.940 14.240,6.859 14.240 C 6.586 14.240,5.193 13.641,4.724 13.323 C 4.358 13.075,4.066 12.763,3.919 12.465 C 3.799 12.220,3.792 12.185,3.819 11.931 C 3.835 11.782,3.874 11.598,3.905 11.523 C 4.090 11.078,4.749 10.585,5.660 10.209 C 5.992 10.072,6.826 9.773,6.909 9.761 C 6.914 9.761,6.964 9.850,7.020 9.960 M17.693 9.972 C 18.658 10.329,19.640 10.882,19.889 11.210 C 20.108 11.497,20.160 11.655,20.160 12.034 C 20.160 12.385,20.157 12.395,19.995 12.637 C 19.810 12.916,19.510 13.173,19.048 13.453 C 18.526 13.768,17.259 14.247,17.104 14.187 C 17.033 14.160,17.034 14.163,16.537 12.922 L 16.161 11.984 16.495 11.122 C 16.679 10.648,16.861 10.170,16.901 10.060 C 17.029 9.708,16.992 9.712,17.693 9.972 M11.513 10.496 C 11.173 10.587,10.727 10.990,10.518 11.394 C 10.442 11.541,10.427 11.633,10.426 11.974 C 10.424 12.483,10.501 12.664,10.884 13.051 C 11.285 13.454,11.760 13.641,12.184 13.563 C 12.681 13.471,13.241 13.057,13.452 12.625 C 13.549 12.428,13.560 12.360,13.560 11.981 C 13.560 11.470,13.510 11.348,13.144 10.967 C 12.820 10.629,12.640 10.528,12.276 10.481 C 11.893 10.431,11.742 10.434,11.513 10.496 M8.741 13.670 C 9.301 14.636,9.320 14.670,9.320 14.718 C 9.320 14.768,9.204 14.754,8.462 14.613 C 7.888 14.503,7.800 14.470,7.800 14.366 C 7.800 14.201,8.259 13.000,8.322 13.000 C 8.339 13.000,8.528 13.302,8.741 13.670 M15.953 13.510 C 16.250 14.275,16.271 14.358,16.183 14.423 C 15.987 14.566,14.760 14.753,14.760 14.639 C 14.760 14.505,15.624 13.000,15.701 13.000 C 15.732 13.000,15.836 13.210,15.953 13.510 M16.493 15.272 C 16.691 15.491,16.847 17.463,16.715 18.088 C 16.615 18.565,16.358 18.936,16.009 19.107 C 15.319 19.446,14.300 19.013,12.921 17.794 L 12.562 17.477 13.089 16.829 C 13.854 15.885,14.045 15.674,14.187 15.615 C 14.257 15.586,14.760 15.488,15.306 15.398 C 15.852 15.308,16.306 15.227,16.316 15.217 C 16.354 15.180,16.431 15.204,16.493 15.272 M8.080 15.317 C 8.311 15.358,8.797 15.431,9.160 15.478 C 9.523 15.526,9.857 15.572,9.902 15.581 C 9.948 15.590,10.043 15.678,10.114 15.777 C 10.184 15.876,10.503 16.282,10.821 16.680 C 11.140 17.078,11.400 17.438,11.400 17.479 C 11.400 17.699,9.995 18.724,9.300 19.011 C 8.575 19.310,7.939 19.232,7.603 18.802 C 7.302 18.416,7.280 18.343,7.282 17.736 C 7.285 16.593,7.388 15.474,7.507 15.270 C 7.533 15.226,7.613 15.233,8.080 15.317 M12.911 15.666 C 13.000 15.689,13.001 15.693,12.935 15.795 C 12.837 15.947,12.227 16.683,12.109 16.793 L 12.008 16.886 11.699 16.533 C 11.377 16.165,11.040 15.742,11.040 15.705 C 11.040 15.660,12.757 15.624,12.911 15.666 " fill="#373B4D" stroke="none" fill-rule="evenodd"></path></svg>