<svg width="24" height="24" viewBox="0 0 24 24" fill="none" xmlns="http://www.w3.org/2000/svg"><path d="M15.123 4.043 C 14.352 4.195,13.410 4.755,12.370 5.679 L 12.001 6.007 11.710 5.740 C 11.071 5.152,10.251 4.592,9.613 4.308 C 8.395 3.766,7.255 4.059,6.760 5.041 C 6.518 5.519,6.465 5.811,6.464 6.660 C 6.464 7.445,6.528 7.967,6.719 8.713 C 6.773 8.925,6.780 9.009,6.747 9.021 C 6.721 9.029,6.565 9.076,6.400 9.124 C 5.633 9.348,4.778 9.731,4.217 10.102 C 3.837 10.354,3.364 10.836,3.221 11.118 C 2.616 12.312,3.256 13.486,4.981 14.350 C 5.381 14.550,6.173 14.861,6.531 14.959 C 6.636 14.988,6.732 15.026,6.743 15.045 C 6.755 15.064,6.719 15.282,6.664 15.530 C 6.418 16.626,6.377 17.737,6.555 18.412 C 6.896 19.700,7.949 20.265,9.245 19.856 C 10.053 19.601,10.663 19.208,11.901 18.145 L 12.036 18.030 12.454 18.399 C 12.924 18.813,13.524 19.266,13.810 19.421 L 14.000 19.525 13.999 19.092 L 13.997 18.660 13.689 18.433 C 13.326 18.166,12.600 17.528,12.600 17.477 C 12.600 17.458,12.785 17.221,13.010 16.951 C 13.236 16.681,13.551 16.285,13.711 16.070 L 14.002 15.681 13.991 14.996 L 13.980 14.311 13.816 14.569 L 13.651 14.827 13.256 14.853 C 12.746 14.887,11.199 14.888,10.727 14.854 L 10.361 14.828 10.087 14.404 C 9.657 13.739,9.169 12.897,8.883 12.326 L 8.715 11.993 9.084 11.306 C 9.420 10.679,9.851 9.949,10.203 9.409 C 10.284 9.285,10.381 9.187,10.440 9.170 C 10.574 9.132,13.343 9.133,13.520 9.171 C 13.665 9.202,13.680 9.221,14.175 10.006 L 14.317 10.232 14.489 10.064 C 14.583 9.972,14.714 9.858,14.780 9.810 C 14.910 9.718,14.914 9.742,14.724 9.429 L 14.632 9.278 14.806 9.303 C 14.902 9.318,15.178 9.366,15.420 9.411 C 15.797 9.482,16.055 9.496,17.220 9.507 C 18.790 9.522,18.786 9.524,17.850 9.218 C 17.525 9.112,17.254 9.021,17.246 9.015 C 17.238 9.010,17.287 8.730,17.354 8.393 C 17.659 6.871,17.605 5.774,17.186 4.981 C 16.800 4.250,15.977 3.876,15.123 4.043 M8.940 4.848 C 9.419 4.967,10.187 5.438,10.900 6.049 C 11.495 6.559,11.478 6.532,11.336 6.699 C 11.272 6.774,11.070 7.012,10.886 7.228 C 10.703 7.443,10.425 7.791,10.270 8.000 C 10.114 8.209,9.974 8.395,9.958 8.413 C 9.943 8.431,9.651 8.480,9.310 8.523 C 8.969 8.565,8.445 8.644,8.146 8.700 C 7.847 8.755,7.585 8.800,7.565 8.800 C 7.520 8.800,7.394 8.284,7.278 7.618 C 7.178 7.049,7.158 6.209,7.237 5.880 C 7.449 4.996,8.056 4.628,8.940 4.848 M16.078 4.903 C 16.833 5.314,16.991 6.563,16.540 8.550 L 16.477 8.826 15.908 8.716 C 15.596 8.655,15.055 8.569,14.706 8.525 C 14.357 8.481,14.067 8.439,14.063 8.432 C 13.846 8.128,13.229 7.345,12.937 7.002 L 12.546 6.545 12.763 6.349 C 13.757 5.452,14.495 4.967,15.098 4.814 C 15.426 4.730,15.828 4.766,16.078 4.903 M12.244 7.368 C 12.528 7.694,13.040 8.330,13.040 8.358 C 13.040 8.370,12.572 8.380,12.000 8.380 C 11.428 8.380,10.960 8.373,10.960 8.364 C 10.960 8.316,11.959 7.129,12.004 7.123 C 12.017 7.121,12.125 7.231,12.244 7.368 M9.335 9.330 C 9.318 9.357,9.194 9.560,9.059 9.780 C 8.925 10.000,8.737 10.324,8.641 10.500 C 8.546 10.676,8.432 10.880,8.388 10.954 L 8.308 11.089 8.173 10.755 C 8.099 10.572,7.973 10.235,7.893 10.007 C 7.774 9.671,7.757 9.587,7.801 9.559 C 7.859 9.523,8.303 9.437,8.901 9.344 C 9.369 9.271,9.370 9.271,9.335 9.330 M7.118 10.120 C 7.274 10.582,7.560 11.313,7.735 11.693 L 7.878 12.006 7.804 12.153 C 7.682 12.396,7.259 13.473,7.122 13.890 C 7.047 14.116,6.972 14.280,6.942 14.280 C 6.820 14.280,5.784 13.898,5.374 13.702 C 4.593 13.328,4.111 12.935,3.896 12.495 C 3.803 12.306,3.782 12.210,3.783 11.981 C 3.783 11.739,3.802 11.665,3.918 11.448 C 4.168 10.981,4.736 10.564,5.603 10.211 C 6.098 10.009,6.868 9.759,6.952 9.772 C 6.981 9.776,7.055 9.933,7.118 10.120 M15.560 10.056 C 15.461 10.085,15.330 10.129,15.269 10.154 C 15.095 10.224,14.763 10.558,14.646 10.779 L 14.540 10.980 14.540 15.500 L 14.540 20.020 14.647 20.224 C 14.791 20.496,15.131 20.800,15.403 20.900 C 15.611 20.977,15.719 20.980,18.020 20.980 L 20.420 20.980 20.660 20.868 C 20.950 20.733,21.209 20.490,21.353 20.220 L 21.460 20.020 21.460 15.500 L 21.460 10.980 21.353 10.776 C 21.217 10.520,20.874 10.204,20.617 10.100 C 20.429 10.024,20.315 10.020,18.080 10.012 C 16.254 10.006,15.700 10.015,15.560 10.056 M11.531 10.456 C 11.107 10.594,10.739 10.916,10.545 11.320 C 10.431 11.558,10.420 11.614,10.420 11.980 C 10.420 12.332,10.433 12.408,10.529 12.613 C 10.768 13.122,11.140 13.426,11.670 13.544 C 11.927 13.601,12.015 13.604,12.237 13.564 C 12.792 13.464,13.218 13.144,13.452 12.650 C 13.569 12.402,13.580 12.347,13.580 11.979 C 13.580 11.609,13.570 11.558,13.452 11.319 C 13.290 10.989,13.012 10.711,12.684 10.549 C 12.463 10.440,12.379 10.422,12.064 10.412 C 11.834 10.405,11.638 10.421,11.531 10.456 M8.498 13.250 C 8.583 13.410,8.812 13.804,9.006 14.128 C 9.201 14.451,9.360 14.724,9.360 14.735 C 9.360 14.758,9.270 14.746,8.448 14.614 C 8.111 14.560,7.810 14.506,7.780 14.494 C 7.735 14.477,7.755 14.386,7.877 14.046 C 8.125 13.355,8.284 12.960,8.314 12.960 C 8.330 12.960,8.413 13.091,8.498 13.250 M7.909 15.298 C 8.264 15.372,9.210 15.507,9.625 15.542 L 9.951 15.570 10.205 15.915 C 10.423 16.210,10.620 16.450,11.371 17.341 L 11.482 17.473 11.271 17.672 C 10.767 18.146,10.033 18.683,9.569 18.914 C 8.557 19.420,7.774 19.294,7.402 18.563 C 7.139 18.048,7.131 17.029,7.380 15.838 C 7.521 15.167,7.481 15.208,7.909 15.298 M13.040 15.664 C 13.040 15.700,12.436 16.462,12.211 16.711 L 12.020 16.922 11.652 16.491 C 11.450 16.254,11.210 15.966,11.119 15.850 L 10.953 15.640 11.997 15.640 C 12.570 15.640,13.040 15.651,13.040 15.664 M18.307 18.323 C 18.739 18.533,18.830 19.077,18.489 19.417 C 18.201 19.705,17.799 19.705,17.511 19.417 C 17.171 19.078,17.260 18.537,17.690 18.324 C 17.905 18.218,18.088 18.217,18.307 18.323 " fill="#414146" stroke="none" fill-rule="evenodd"></path></svg>