<svg width="24" height="24" viewBox="0 0 24 24" fill="none" xmlns="http://www.w3.org/2000/svg"><path d="M15.060 4.059 C 14.609 4.159,14.152 4.372,13.560 4.762 C 13.123 5.049,12.974 5.164,12.411 5.651 L 12.002 6.004 11.643 5.687 C 10.230 4.440,9.009 3.896,8.036 4.081 C 7.364 4.208,6.879 4.654,6.612 5.390 C 6.415 5.933,6.419 7.340,6.620 8.260 C 6.678 8.524,6.734 8.803,6.746 8.880 L 6.767 9.020 6.433 9.118 C 5.681 9.339,4.796 9.731,4.263 10.080 C 3.883 10.329,3.381 10.827,3.231 11.104 C 2.697 12.095,3.108 13.157,4.343 13.979 C 4.854 14.319,5.484 14.601,6.560 14.974 C 6.743 15.038,6.748 15.101,6.624 15.722 C 6.422 16.735,6.391 17.755,6.543 18.360 C 6.650 18.784,6.858 19.176,7.112 19.431 C 7.776 20.099,8.680 20.163,9.822 19.624 C 10.298 19.399,10.789 19.065,11.479 18.498 L 12.042 18.036 12.451 18.392 C 12.956 18.832,13.537 19.273,13.801 19.417 L 14.000 19.525 13.999 19.092 L 13.999 18.660 13.669 18.413 C 13.299 18.136,12.600 17.530,12.600 17.486 C 12.600 17.470,12.782 17.233,13.005 16.959 C 13.228 16.684,13.543 16.285,13.705 16.072 L 14.000 15.684 14.000 15.022 C 14.000 14.658,13.987 14.360,13.970 14.360 C 13.954 14.361,13.875 14.466,13.796 14.594 L 13.651 14.827 13.316 14.853 C 12.881 14.887,11.063 14.888,10.665 14.854 L 10.358 14.828 10.013 14.284 C 9.637 13.690,9.095 12.749,8.863 12.287 L 8.716 11.994 9.043 11.387 C 9.498 10.544,10.155 9.452,10.305 9.293 L 10.429 9.160 11.986 9.160 C 13.288 9.160,13.556 9.170,13.626 9.219 C 13.672 9.251,13.832 9.471,13.981 9.709 C 14.131 9.946,14.266 10.155,14.283 10.174 C 14.299 10.193,14.436 10.105,14.586 9.978 C 14.737 9.852,14.867 9.743,14.875 9.736 C 14.883 9.729,14.832 9.622,14.762 9.498 L 14.635 9.273 14.748 9.296 C 15.532 9.455,15.861 9.486,17.044 9.509 C 18.211 9.531,18.535 9.516,18.456 9.443 C 18.436 9.425,18.164 9.325,17.850 9.222 C 17.537 9.118,17.273 9.022,17.264 9.007 C 17.255 8.992,17.299 8.701,17.361 8.360 C 17.643 6.810,17.603 5.853,17.221 5.060 C 16.844 4.275,15.953 3.863,15.060 4.059 M15.932 4.849 C 16.139 4.910,16.423 5.168,16.542 5.405 C 16.854 6.019,16.852 7.176,16.538 8.558 L 16.477 8.826 16.108 8.754 C 15.906 8.714,15.363 8.626,14.903 8.560 C 14.250 8.465,14.056 8.423,14.018 8.369 C 13.872 8.161,13.330 7.477,12.970 7.048 C 12.744 6.777,12.567 6.541,12.579 6.522 C 12.590 6.504,12.775 6.337,12.990 6.152 C 14.365 4.964,15.148 4.618,15.932 4.849 M8.952 4.857 C 9.236 4.933,9.739 5.194,10.167 5.487 C 10.649 5.817,11.400 6.466,11.399 6.551 C 11.399 6.589,11.178 6.883,10.909 7.205 C 10.640 7.527,10.321 7.927,10.200 8.095 C 9.947 8.445,9.954 8.441,9.220 8.539 C 8.956 8.574,8.480 8.648,8.163 8.702 C 7.846 8.757,7.572 8.788,7.555 8.771 C 7.511 8.727,7.412 8.331,7.316 7.820 C 7.213 7.268,7.170 6.233,7.237 5.911 C 7.343 5.407,7.649 4.994,8.015 4.865 C 8.228 4.789,8.683 4.786,8.952 4.857 M12.667 7.880 L 13.044 8.340 12.812 8.366 C 12.506 8.400,11.391 8.400,11.151 8.366 L 10.962 8.340 11.324 7.900 C 11.523 7.658,11.761 7.382,11.853 7.287 L 12.020 7.115 12.155 7.267 C 12.229 7.351,12.460 7.627,12.667 7.880 M9.320 9.315 C 9.320 9.334,9.196 9.554,9.045 9.805 C 8.894 10.055,8.667 10.447,8.540 10.675 L 8.309 11.091 8.252 10.955 C 8.049 10.473,7.798 9.732,7.808 9.646 C 7.822 9.529,7.810 9.532,8.680 9.381 C 9.321 9.270,9.320 9.270,9.320 9.315 M6.998 9.836 C 7.020 9.878,7.139 10.184,7.261 10.516 C 7.384 10.848,7.572 11.320,7.680 11.565 L 7.877 12.009 7.803 12.155 C 7.721 12.317,7.274 13.448,7.101 13.933 C 7.040 14.106,6.968 14.255,6.942 14.265 C 6.877 14.290,6.037 13.993,5.520 13.764 C 4.718 13.407,4.138 12.949,3.905 12.489 C 3.821 12.324,3.800 12.226,3.800 12.000 C 3.800 11.679,3.855 11.519,4.065 11.233 C 4.387 10.795,5.215 10.323,6.300 9.961 C 6.630 9.851,6.913 9.761,6.929 9.760 C 6.944 9.760,6.975 9.794,6.998 9.836 M15.860 10.035 C 15.526 10.059,15.424 10.083,15.244 10.182 C 15.010 10.309,14.757 10.575,14.612 10.847 L 14.520 11.019 14.520 15.495 L 14.520 19.971 14.610 20.156 C 14.738 20.417,15.076 20.744,15.349 20.870 L 15.580 20.977 17.968 20.993 L 20.356 21.009 20.608 20.890 C 20.943 20.732,21.198 20.498,21.353 20.207 L 21.480 19.969 21.480 15.499 L 21.480 11.029 21.390 10.847 C 21.263 10.589,20.923 10.255,20.672 10.140 L 20.459 10.043 18.360 10.025 C 17.205 10.014,16.080 10.019,15.860 10.035 M11.627 10.440 C 11.220 10.513,10.730 10.922,10.525 11.360 C 10.437 11.549,10.422 11.636,10.421 11.981 C 10.420 12.353,10.429 12.400,10.549 12.645 C 10.699 12.948,10.996 13.264,11.252 13.392 C 11.350 13.441,11.551 13.511,11.698 13.547 C 11.922 13.602,12.007 13.605,12.213 13.567 C 12.756 13.466,13.248 13.092,13.471 12.610 C 13.564 12.410,13.578 12.328,13.579 11.980 C 13.580 11.618,13.569 11.557,13.462 11.340 C 13.316 11.041,12.971 10.693,12.680 10.553 C 12.430 10.433,11.953 10.381,11.627 10.440 M8.633 13.490 C 8.787 13.760,9.013 14.150,9.136 14.357 C 9.259 14.565,9.353 14.740,9.346 14.747 C 9.321 14.772,7.819 14.511,7.781 14.475 C 7.737 14.434,7.809 14.205,8.109 13.431 C 8.209 13.173,8.305 12.971,8.322 12.981 C 8.339 12.992,8.479 13.221,8.633 13.490 M8.280 15.361 C 8.849 15.457,9.641 15.560,9.812 15.560 C 9.928 15.560,9.971 15.601,10.266 15.990 C 10.446 16.227,10.792 16.654,11.036 16.940 L 11.478 17.460 11.191 17.734 C 10.841 18.068,10.162 18.578,9.769 18.804 C 9.609 18.895,9.321 19.024,9.129 19.090 C 8.434 19.330,7.888 19.223,7.550 18.779 C 7.166 18.274,7.102 17.290,7.366 15.921 C 7.410 15.691,7.472 15.441,7.503 15.366 C 7.556 15.241,7.570 15.232,7.690 15.257 C 7.762 15.272,8.027 15.318,8.280 15.361 M12.987 15.700 C 12.999 15.737,12.497 16.385,12.155 16.774 L 12.020 16.928 11.542 16.354 C 11.280 16.038,11.038 15.748,11.005 15.709 C 10.949 15.642,10.995 15.639,11.960 15.649 C 12.594 15.656,12.978 15.675,12.987 15.700 M18.231 18.302 C 18.526 18.425,18.680 18.644,18.680 18.940 C 18.680 19.158,18.608 19.313,18.440 19.454 C 18.168 19.683,17.832 19.683,17.560 19.454 C 17.392 19.313,17.320 19.158,17.320 18.940 C 17.320 18.648,17.472 18.429,17.760 18.304 C 17.940 18.226,18.048 18.225,18.231 18.302 " fill="#414146" stroke="none" fill-rule="evenodd"></path></svg>