<svg width="24" height="24" viewBox="0 0 24 24" fill="none" xmlns="http://www.w3.org/2000/svg"><path d="M15.080 4.062 C 14.243 4.242,13.455 4.728,12.191 5.844 L 12.003 6.011 11.691 5.733 C 10.980 5.098,10.372 4.674,9.744 4.377 C 8.673 3.869,7.746 3.934,7.116 4.559 C 6.849 4.824,6.642 5.231,6.534 5.700 C 6.383 6.356,6.456 7.567,6.714 8.675 C 6.769 8.911,6.778 9.010,6.746 9.020 C 5.648 9.360,4.820 9.709,4.275 10.060 C 3.854 10.331,3.362 10.841,3.206 11.166 C 2.507 12.632,3.685 14.039,6.320 14.883 C 6.551 14.957,6.747 15.022,6.755 15.027 C 6.764 15.033,6.715 15.312,6.648 15.649 C 6.350 17.129,6.386 18.179,6.760 18.944 C 7.269 19.985,8.441 20.264,9.755 19.657 C 10.339 19.387,11.097 18.861,11.706 18.302 C 11.864 18.158,12.008 18.040,12.026 18.041 C 12.045 18.041,12.204 18.169,12.380 18.325 C 13.838 19.621,15.020 20.155,15.964 19.945 C 16.710 19.778,17.211 19.247,17.446 18.374 C 17.577 17.886,17.594 16.945,17.485 16.198 C 17.438 15.880,17.366 15.479,17.325 15.307 L 17.250 14.994 17.340 14.960 C 17.389 14.941,17.508 14.905,17.602 14.879 C 17.894 14.801,18.641 14.500,19.040 14.301 C 19.610 14.017,20.030 13.721,20.368 13.368 C 21.309 12.382,21.180 11.211,20.028 10.297 C 19.587 9.947,18.717 9.516,17.900 9.242 C 17.548 9.124,17.253 9.022,17.245 9.015 C 17.236 9.008,17.276 8.764,17.332 8.471 C 17.473 7.741,17.476 7.719,17.518 7.161 C 17.560 6.610,17.521 5.991,17.419 5.593 C 17.121 4.427,16.196 3.823,15.080 4.062 M9.055 4.878 C 9.529 5.041,10.069 5.363,10.637 5.819 C 11.037 6.140,11.440 6.519,11.440 6.573 C 11.440 6.597,11.361 6.699,11.265 6.799 C 11.039 7.033,10.388 7.830,10.143 8.173 C 10.031 8.331,9.917 8.447,9.866 8.456 C 9.819 8.465,9.482 8.509,9.119 8.555 C 8.755 8.601,8.256 8.678,8.010 8.727 C 7.764 8.776,7.550 8.803,7.534 8.787 C 7.472 8.725,7.239 7.513,7.193 7.013 C 7.078 5.760,7.418 4.994,8.180 4.795 C 8.360 4.748,8.796 4.789,9.055 4.878 M15.928 4.822 C 16.614 5.056,16.924 6.003,16.759 7.361 C 16.711 7.753,16.523 8.730,16.483 8.795 C 16.464 8.826,16.415 8.827,16.318 8.800 C 16.105 8.738,14.818 8.530,14.460 8.499 C 14.284 8.483,14.119 8.459,14.093 8.445 C 14.067 8.431,13.896 8.220,13.713 7.975 C 13.530 7.731,13.200 7.320,12.980 7.062 C 12.760 6.804,12.575 6.578,12.568 6.560 C 12.553 6.519,13.236 5.908,13.641 5.600 C 14.585 4.880,15.343 4.623,15.928 4.822 M12.269 7.390 C 12.574 7.739,13.040 8.321,13.040 8.354 C 13.040 8.368,12.572 8.380,12.000 8.380 C 11.428 8.380,10.960 8.371,10.960 8.359 C 10.960 8.303,11.958 7.121,12.006 7.121 C 12.020 7.120,12.138 7.242,12.269 7.390 M13.189 9.146 L 13.639 9.172 13.955 9.656 C 14.298 10.182,14.746 10.949,15.079 11.580 L 15.291 11.980 15.065 12.429 C 14.803 12.952,14.258 13.895,13.900 14.444 L 13.650 14.827 13.255 14.853 C 12.749 14.887,11.119 14.887,10.691 14.854 L 10.361 14.828 10.046 14.344 C 9.648 13.735,9.214 12.986,8.935 12.430 L 8.719 12.000 8.918 11.603 C 9.198 11.046,9.673 10.226,10.048 9.652 L 10.367 9.163 10.673 9.150 C 11.279 9.123,12.749 9.121,13.189 9.146 M9.277 9.430 C 8.955 9.961,8.534 10.692,8.446 10.870 C 8.390 10.986,8.332 11.080,8.317 11.080 C 8.289 11.080,7.981 10.296,7.840 9.866 C 7.786 9.699,7.765 9.579,7.788 9.556 C 7.824 9.520,9.083 9.289,9.274 9.283 L 9.368 9.280 9.277 9.430 M15.600 9.425 C 15.897 9.479,16.170 9.532,16.207 9.543 C 16.266 9.561,16.259 9.605,16.142 9.952 C 15.935 10.562,15.715 11.082,15.675 11.057 C 15.655 11.045,15.593 10.945,15.538 10.836 C 15.451 10.664,15.016 9.913,14.720 9.425 L 14.627 9.271 14.843 9.299 C 14.962 9.315,15.303 9.371,15.600 9.425 M7.199 10.325 C 7.304 10.625,7.499 11.125,7.633 11.437 L 7.877 12.004 7.775 12.232 C 7.626 12.562,7.185 13.694,7.082 14.010 C 7.027 14.177,6.972 14.280,6.936 14.280 C 6.728 14.280,5.418 13.766,5.000 13.521 C 4.403 13.170,4.114 12.904,3.898 12.511 C 3.746 12.233,3.734 11.804,3.868 11.510 C 4.054 11.104,4.570 10.681,5.296 10.337 C 5.721 10.135,6.819 9.756,6.935 9.771 C 6.992 9.778,7.053 9.905,7.199 10.325 M17.780 9.987 C 18.441 10.210,19.270 10.617,19.579 10.868 C 20.058 11.257,20.275 11.675,20.224 12.109 C 20.133 12.880,19.299 13.518,17.664 14.067 C 17.104 14.254,17.046 14.266,17.020 14.190 C 16.837 13.651,16.592 13.020,16.390 12.563 L 16.136 11.991 16.403 11.365 C 16.550 11.021,16.747 10.519,16.841 10.248 L 17.012 9.756 17.136 9.783 C 17.204 9.798,17.494 9.890,17.780 9.987 M11.531 10.456 C 11.107 10.594,10.739 10.916,10.545 11.320 C 10.431 11.558,10.420 11.614,10.420 11.980 C 10.420 12.332,10.433 12.408,10.529 12.613 C 10.768 13.122,11.140 13.426,11.670 13.544 C 11.927 13.601,12.015 13.604,12.237 13.564 C 12.792 13.464,13.218 13.144,13.452 12.650 C 13.569 12.402,13.580 12.347,13.580 11.979 C 13.580 11.609,13.570 11.558,13.452 11.319 C 13.290 10.989,13.012 10.711,12.684 10.549 C 12.463 10.440,12.379 10.422,12.064 10.412 C 11.834 10.405,11.638 10.421,11.531 10.456 M15.922 13.383 C 16.196 14.072,16.315 14.444,16.267 14.461 C 16.065 14.531,14.694 14.749,14.663 14.716 C 14.655 14.707,14.809 14.430,15.005 14.100 C 15.201 13.770,15.435 13.358,15.526 13.183 C 15.716 12.818,15.692 12.806,15.922 13.383 M8.489 13.210 C 8.630 13.484,9.174 14.410,9.336 14.651 L 9.411 14.763 9.235 14.738 C 8.854 14.685,7.832 14.514,7.781 14.495 C 7.739 14.479,7.756 14.390,7.859 14.087 C 8.047 13.531,8.286 12.920,8.315 12.920 C 8.329 12.920,8.407 13.051,8.489 13.210 M8.804 15.435 C 9.121 15.478,9.510 15.526,9.670 15.541 L 9.959 15.568 10.166 15.854 C 10.418 16.202,10.984 16.897,11.270 17.210 C 11.385 17.336,11.480 17.453,11.480 17.471 C 11.480 17.488,11.368 17.601,11.232 17.721 C 10.122 18.701,9.142 19.237,8.457 19.239 C 8.190 19.240,7.907 19.134,7.704 18.955 C 7.283 18.585,7.117 17.928,7.201 16.971 C 7.238 16.551,7.377 15.752,7.482 15.355 L 7.520 15.210 7.874 15.283 C 8.068 15.323,8.487 15.391,8.804 15.435 M16.562 15.369 C 16.655 15.713,16.756 16.315,16.802 16.798 C 16.950 18.350,16.474 19.240,15.495 19.240 C 14.799 19.240,13.817 18.670,12.753 17.648 L 12.566 17.469 12.958 17.004 C 13.313 16.584,13.954 15.755,14.032 15.615 C 14.053 15.578,14.231 15.540,14.582 15.499 C 15.123 15.436,15.960 15.304,16.200 15.243 C 16.478 15.173,16.513 15.185,16.562 15.369 M12.955 15.810 C 12.684 16.161,12.168 16.783,12.091 16.851 C 12.015 16.919,12.004 16.911,11.695 16.551 C 11.414 16.223,11.173 15.930,11.004 15.710 C 10.953 15.644,11.007 15.640,12.018 15.640 L 13.087 15.640 12.955 15.810 " fill="#373B4D" stroke="none" fill-rule="evenodd"></path></svg>