<svg width="24" height="24" viewBox="0 0 24 24" fill="none" xmlns="http://www.w3.org/2000/svg"><path d="M8.200 2.524 C 6.693 2.541,5.384 2.566,5.292 2.580 C 4.784 2.654,4.176 3.218,3.808 3.956 L 3.620 4.332 3.607 10.596 C 3.600 14.041,3.607 17.908,3.622 19.189 L 3.650 21.517 3.775 21.465 C 3.898 21.413,4.096 21.304,6.555 19.925 L 7.770 19.244 7.995 19.357 C 8.203 19.462,8.741 19.761,11.093 21.077 C 11.883 21.519,11.977 21.562,12.079 21.526 C 12.141 21.505,12.882 21.095,13.726 20.617 C 14.570 20.138,15.466 19.633,15.719 19.494 L 16.177 19.242 16.628 19.481 C 16.877 19.613,17.596 20.010,18.227 20.365 C 19.552 21.109,20.176 21.440,20.255 21.440 C 20.352 21.440,20.371 19.997,20.375 11.959 L 20.380 4.299 20.247 4.028 C 19.987 3.499,19.492 2.973,18.981 2.681 L 18.762 2.556 15.371 2.519 C 13.506 2.499,11.746 2.485,11.460 2.488 C 11.174 2.491,9.707 2.507,8.200 2.524 M11.447 5.084 C 11.742 5.274,11.852 5.491,11.873 5.923 C 11.887 6.230,11.878 6.295,11.795 6.462 C 11.683 6.686,11.409 7.018,10.710 7.778 C 10.359 8.159,10.214 8.344,10.249 8.364 C 10.277 8.379,10.714 8.412,11.220 8.438 C 13.217 8.537,13.726 8.636,14.652 9.104 C 15.223 9.392,15.700 9.740,16.183 10.220 C 16.686 10.720,17.044 11.226,17.356 11.881 C 17.804 12.819,17.882 13.269,17.894 14.960 C 17.900 15.894,17.896 15.948,17.814 16.101 C 17.724 16.269,17.406 16.590,17.238 16.683 C 17.114 16.751,16.590 16.753,16.395 16.686 C 16.191 16.617,15.819 16.217,15.762 16.009 C 15.738 15.918,15.674 15.425,15.619 14.912 C 15.467 13.472,15.369 13.060,15.066 12.586 C 14.771 12.125,14.042 11.464,13.558 11.219 C 13.294 11.085,12.855 10.973,12.400 10.922 C 12.033 10.881,10.642 10.801,10.287 10.800 L 10.114 10.800 10.716 11.430 C 11.353 12.098,11.719 12.534,11.819 12.744 C 11.914 12.944,11.902 13.521,11.798 13.723 C 11.619 14.074,11.175 14.360,10.808 14.360 C 10.590 14.360,10.221 14.166,9.880 13.871 C 9.427 13.481,7.413 11.492,6.859 10.890 C 6.592 10.598,6.320 10.265,6.256 10.150 C 6.153 9.964,6.140 9.901,6.140 9.600 C 6.140 9.301,6.154 9.235,6.255 9.053 C 6.432 8.733,6.883 8.244,8.224 6.919 C 9.628 5.531,10.243 4.973,10.395 4.946 C 10.453 4.935,10.669 4.934,10.875 4.943 C 11.214 4.957,11.270 4.971,11.447 5.084 " fill="#373B4D" stroke="none" fill-rule="evenodd"></path></svg>