<svg width="24" height="24" viewBox="0 0 24 24" fill="none" xmlns="http://www.w3.org/2000/svg"><path d="M8.400 2.523 C 5.163 2.563,5.229 2.559,4.919 2.724 C 4.478 2.959,4.059 3.445,3.725 4.109 L 3.600 4.358 3.606 11.769 C 3.609 15.845,3.622 19.709,3.636 20.354 L 3.660 21.529 4.000 21.349 C 4.187 21.250,5.113 20.735,6.059 20.206 L 7.778 19.243 8.159 19.447 C 8.368 19.560,9.210 20.027,10.028 20.485 C 11.747 21.446,11.888 21.520,12.000 21.520 C 12.115 21.520,12.296 21.425,14.040 20.441 C 14.887 19.963,15.715 19.498,15.879 19.408 L 16.178 19.243 16.599 19.469 C 16.831 19.593,17.614 20.025,18.340 20.430 C 19.805 21.246,20.228 21.465,20.266 21.427 C 20.333 21.360,20.354 19.707,20.380 12.325 L 20.409 4.350 20.262 4.061 C 19.986 3.518,19.506 3.000,18.993 2.692 L 18.780 2.564 15.100 2.522 C 13.076 2.499,11.285 2.483,11.120 2.487 C 10.955 2.490,9.731 2.506,8.400 2.523 M9.220 6.124 C 9.418 6.148,9.641 6.196,9.715 6.231 C 9.881 6.308,10.278 6.671,10.487 6.934 L 10.640 7.127 10.640 7.802 L 10.640 8.476 10.446 8.708 C 10.042 9.192,9.746 9.401,9.263 9.541 C 9.070 9.597,8.991 9.601,8.812 9.565 C 8.394 9.481,7.875 9.149,7.625 8.805 C 7.360 8.440,7.353 8.414,7.367 7.746 L 7.380 7.138 7.572 6.868 C 7.837 6.498,8.234 6.207,8.589 6.124 C 8.797 6.075,8.813 6.075,9.220 6.124 M16.090 6.214 C 16.434 6.357,16.630 6.663,16.667 7.112 C 16.712 7.644,16.606 7.785,14.633 9.803 C 13.922 10.531,12.402 12.047,11.256 13.173 C 8.908 15.480,8.859 15.520,8.390 15.520 C 8.076 15.520,7.897 15.456,7.656 15.259 C 7.412 15.059,7.349 14.866,7.366 14.369 C 7.380 13.980,7.384 13.964,7.536 13.743 C 7.773 13.400,9.059 12.067,11.205 9.940 C 13.449 7.717,14.776 6.447,15.060 6.251 C 15.260 6.114,15.261 6.114,15.610 6.136 C 15.803 6.149,16.019 6.184,16.090 6.214 M15.220 12.124 C 15.418 12.148,15.641 12.196,15.715 12.231 C 15.881 12.308,16.278 12.671,16.487 12.934 L 16.640 13.127 16.640 13.802 L 16.640 14.476 16.446 14.708 C 16.042 15.192,15.746 15.401,15.263 15.541 C 15.070 15.597,14.991 15.601,14.812 15.565 C 14.394 15.481,13.875 15.149,13.625 14.805 C 13.360 14.440,13.353 14.414,13.367 13.746 L 13.380 13.138 13.572 12.868 C 13.837 12.498,14.234 12.207,14.589 12.124 C 14.797 12.075,14.813 12.075,15.220 12.124 " fill="#373B4D" stroke="none" fill-rule="evenodd"></path></svg>