<svg width="24" height="24" viewBox="0 0 24 24" fill="none" xmlns="http://www.w3.org/2000/svg"><path d="M6.540 2.519 C 5.048 2.543,5.089 2.535,4.620 2.890 C 4.195 3.212,3.836 3.730,3.659 4.277 C 3.593 4.481,3.590 4.972,3.608 12.987 C 3.618 17.658,3.638 21.491,3.652 21.505 C 3.683 21.536,4.304 21.198,6.290 20.067 L 7.800 19.207 9.570 20.216 C 10.544 20.772,11.489 21.305,11.670 21.403 L 12.000 21.580 12.330 21.403 C 12.512 21.305,13.456 20.772,14.428 20.217 L 16.197 19.208 17.568 19.989 C 19.453 21.060,20.218 21.480,20.288 21.480 C 20.339 21.480,20.350 21.097,20.373 18.533 C 20.388 16.913,20.400 13.082,20.400 10.020 C 20.400 4.600,20.398 4.447,20.322 4.225 C 20.171 3.786,19.995 3.511,19.642 3.160 C 19.401 2.920,19.218 2.778,19.023 2.680 L 18.747 2.541 16.743 2.514 C 14.496 2.483,8.555 2.486,6.540 2.519 M9.706 6.199 C 9.981 6.337,10.405 6.744,10.570 7.030 C 10.675 7.213,10.679 7.241,10.679 7.800 C 10.679 8.377,10.679 8.381,10.553 8.600 C 10.286 9.067,9.754 9.461,9.252 9.564 C 8.946 9.627,8.634 9.578,8.294 9.413 C 7.975 9.258,7.551 8.837,7.411 8.536 C 7.311 8.319,7.302 8.259,7.301 7.800 C 7.300 7.322,7.305 7.290,7.420 7.066 C 7.606 6.704,7.915 6.388,8.247 6.222 C 8.524 6.084,8.543 6.080,8.999 6.080 C 9.439 6.080,9.482 6.087,9.706 6.199 M15.984 6.139 C 16.221 6.209,16.493 6.430,16.600 6.639 C 16.702 6.841,16.763 7.231,16.720 7.420 C 16.635 7.798,16.025 8.459,12.702 11.782 C 9.935 14.548,9.138 15.304,8.825 15.460 C 8.555 15.594,8.219 15.596,7.940 15.465 C 7.705 15.354,7.572 15.236,7.415 14.999 C 7.307 14.837,7.300 14.800,7.300 14.418 C 7.300 13.934,7.278 13.974,7.964 13.208 C 8.530 12.577,13.298 7.802,14.213 6.950 C 15.083 6.140,15.173 6.080,15.520 6.080 C 15.666 6.080,15.875 6.107,15.984 6.139 M15.706 12.199 C 15.981 12.337,16.405 12.744,16.570 13.030 C 16.675 13.213,16.679 13.241,16.679 13.800 C 16.679 14.377,16.679 14.381,16.553 14.600 C 16.286 15.067,15.754 15.461,15.252 15.564 C 14.946 15.627,14.634 15.578,14.294 15.413 C 13.975 15.258,13.551 14.837,13.411 14.536 C 13.311 14.319,13.302 14.259,13.301 13.800 C 13.300 13.322,13.305 13.290,13.420 13.066 C 13.606 12.704,13.915 12.388,14.247 12.222 C 14.524 12.084,14.543 12.080,14.999 12.080 C 15.439 12.080,15.482 12.087,15.706 12.199 " fill="#373B4D" stroke="none" fill-rule="evenodd"></path></svg>