<svg width="24" height="24" viewBox="0 0 24 24" fill="none" xmlns="http://www.w3.org/2000/svg"><path d="M7.580 2.522 C 5.980 2.540,5.214 2.563,5.113 2.595 C 4.905 2.662,4.541 2.940,4.255 3.253 C 3.974 3.560,3.699 4.070,3.639 4.395 C 3.594 4.643,3.585 15.260,3.627 19.087 L 3.653 21.513 3.750 21.476 C 3.889 21.424,4.534 21.066,6.215 20.109 C 7.026 19.648,7.723 19.261,7.764 19.251 C 7.812 19.238,8.481 19.597,9.629 20.250 C 10.614 20.810,11.550 21.339,11.710 21.424 L 11.999 21.580 12.330 21.403 C 12.511 21.305,13.455 20.772,14.427 20.218 L 16.193 19.211 17.567 19.990 C 19.227 20.932,20.111 21.419,20.226 21.456 C 20.309 21.482,20.314 21.468,20.344 21.091 C 20.361 20.876,20.377 17.019,20.378 12.520 L 20.380 4.340 20.289 4.114 C 20.068 3.567,19.528 2.960,19.027 2.695 L 18.740 2.543 15.940 2.515 C 12.743 2.483,10.876 2.485,7.580 2.522 M9.692 6.198 C 9.947 6.329,10.309 6.661,10.503 6.942 L 10.660 7.170 10.660 7.800 L 10.660 8.430 10.485 8.685 C 10.047 9.323,9.315 9.692,8.743 9.564 C 8.393 9.486,8.073 9.302,7.786 9.016 C 7.642 8.872,7.478 8.661,7.422 8.549 C 7.328 8.360,7.320 8.302,7.320 7.811 C 7.320 7.326,7.329 7.260,7.417 7.086 C 7.567 6.789,7.810 6.508,8.055 6.345 C 8.408 6.111,8.522 6.081,9.040 6.091 C 9.439 6.099,9.525 6.113,9.692 6.198 M16.167 6.228 C 16.536 6.428,16.720 6.765,16.720 7.237 C 16.719 7.664,16.541 7.879,14.294 10.179 C 12.652 11.859,9.739 14.725,9.249 15.143 C 8.900 15.440,8.730 15.528,8.454 15.552 C 8.178 15.575,7.891 15.475,7.666 15.277 C 7.360 15.008,7.320 14.911,7.320 14.443 C 7.320 13.958,7.336 13.919,7.732 13.468 C 8.439 12.662,13.995 7.110,14.708 6.498 C 15.146 6.122,15.265 6.071,15.653 6.097 C 15.891 6.113,16.013 6.144,16.167 6.228 M15.692 12.198 C 15.947 12.329,16.309 12.661,16.503 12.942 L 16.660 13.170 16.660 13.800 L 16.660 14.430 16.485 14.685 C 16.047 15.323,15.315 15.692,14.743 15.564 C 14.393 15.486,14.073 15.302,13.786 15.016 C 13.642 14.872,13.478 14.661,13.422 14.549 C 13.328 14.360,13.320 14.302,13.320 13.811 C 13.320 13.326,13.329 13.260,13.417 13.086 C 13.567 12.789,13.810 12.508,14.055 12.345 C 14.408 12.111,14.522 12.081,15.040 12.091 C 15.439 12.099,15.525 12.113,15.692 12.198 " fill="#373B4D" stroke="none" fill-rule="evenodd"></path></svg>