<svg width="24" height="24" viewBox="0 0 24 24" fill="none" xmlns="http://www.w3.org/2000/svg"><path d="M6.400 2.437 C 5.248 2.466,5.194 2.479,4.676 2.823 C 4.237 3.115,3.925 3.517,3.731 4.040 L 3.620 4.340 3.609 12.950 C 3.602 18.118,3.612 21.560,3.634 21.560 C 3.654 21.560,4.600 21.029,5.736 20.379 L 7.801 19.199 9.900 20.401 L 11.999 21.604 14.099 20.401 L 16.199 19.199 18.264 20.379 C 19.400 21.029,20.346 21.560,20.366 21.560 C 20.388 21.560,20.398 18.132,20.391 12.950 L 20.380 4.340 20.269 4.040 C 20.052 3.450,19.644 2.978,19.105 2.695 C 18.571 2.414,18.995 2.433,12.920 2.421 C 9.895 2.416,6.961 2.423,6.400 2.437 M9.325 6.040 C 10.049 6.175,10.645 6.801,10.761 7.548 C 10.895 8.413,10.355 9.253,9.492 9.520 C 8.992 9.674,8.472 9.589,8.002 9.275 C 7.437 8.898,7.126 8.189,7.237 7.530 C 7.405 6.532,8.349 5.858,9.325 6.040 M16.149 6.165 C 16.577 6.369,16.760 6.689,16.760 7.229 C 16.760 7.580,16.725 7.658,16.392 8.050 C 16.078 8.420,11.027 13.493,9.848 14.624 C 9.020 15.418,8.940 15.484,8.731 15.544 C 8.173 15.707,7.611 15.455,7.340 14.920 C 7.257 14.756,7.240 14.666,7.240 14.388 C 7.240 14.081,7.250 14.038,7.364 13.867 C 7.577 13.545,8.765 12.323,11.884 9.219 C 13.891 7.222,14.954 6.192,15.060 6.141 C 15.410 5.974,15.764 5.981,16.149 6.165 M15.325 12.040 C 16.049 12.175,16.645 12.801,16.761 13.548 C 16.895 14.413,16.355 15.253,15.492 15.520 C 14.992 15.674,14.472 15.589,14.002 15.275 C 13.437 14.898,13.126 14.189,13.237 13.530 C 13.405 12.532,14.349 11.858,15.325 12.040 " fill="#373B4D" stroke="none" fill-rule="evenodd"></path></svg>