<svg width="24" height="24" viewBox="0 0 24 24" fill="none" xmlns="http://www.w3.org/2000/svg"><path d="M6.440 2.557 C 5.375 2.593,5.160 2.619,4.918 2.741 C 4.536 2.934,4.098 3.428,3.764 4.040 L 3.601 4.340 3.601 11.080 C 3.600 18.339,3.628 21.480,3.693 21.480 C 3.743 21.480,5.032 20.782,6.560 19.928 C 7.209 19.565,7.759 19.268,7.783 19.268 C 7.807 19.267,8.527 19.655,9.383 20.130 C 10.239 20.604,11.176 21.116,11.465 21.266 L 11.990 21.540 12.485 21.292 C 12.757 21.156,13.700 20.639,14.580 20.145 L 16.179 19.245 16.480 19.410 C 16.645 19.500,17.284 19.853,17.900 20.193 C 19.348 20.994,20.238 21.455,20.270 21.423 C 20.325 21.368,20.354 18.884,20.383 11.740 L 20.412 4.300 20.241 4.020 C 19.894 3.450,19.472 3.008,18.973 2.688 L 18.766 2.556 13.053 2.541 C 9.911 2.533,6.935 2.541,6.440 2.557 M11.422 5.086 C 11.498 5.138,11.618 5.261,11.690 5.360 C 11.814 5.532,11.821 5.559,11.833 5.961 L 11.847 6.382 11.657 6.641 C 11.553 6.784,11.313 7.079,11.124 7.298 C 10.583 7.923,10.280 8.292,10.280 8.324 C 10.280 8.374,10.466 8.397,11.400 8.460 C 13.338 8.592,13.954 8.723,14.744 9.171 C 15.941 9.850,16.773 10.723,17.342 11.899 C 17.768 12.781,17.822 13.089,17.866 14.920 L 17.891 15.980 17.666 16.266 C 17.388 16.620,17.205 16.720,16.837 16.720 C 16.507 16.720,16.356 16.675,16.158 16.519 C 15.853 16.277,15.809 16.150,15.657 15.072 C 15.358 12.964,15.307 12.811,14.668 12.136 C 13.929 11.355,13.434 11.087,12.497 10.961 C 12.202 10.922,10.573 10.802,10.310 10.801 C 10.250 10.800,10.200 10.818,10.200 10.839 C 10.200 10.861,10.430 11.127,10.710 11.431 C 11.356 12.130,11.560 12.371,11.715 12.618 C 11.833 12.805,11.840 12.837,11.840 13.212 C 11.840 13.680,11.792 13.810,11.533 14.038 C 11.246 14.290,10.844 14.384,10.516 14.275 C 10.441 14.250,10.254 14.134,10.100 14.018 C 9.485 13.553,6.861 10.937,6.417 10.347 C 6.202 10.062,6.146 9.866,6.169 9.494 C 6.198 9.050,6.300 8.901,7.304 7.853 C 8.012 7.112,9.554 5.619,10.037 5.204 L 10.335 4.949 10.810 4.971 C 11.220 4.990,11.303 5.005,11.422 5.086 " fill="#373B4D" stroke="none" fill-rule="evenodd"></path></svg>