<svg width="24" height="24" viewBox="0 0 24 24" fill="none" xmlns="http://www.w3.org/2000/svg"><path d="M5.566 2.603 C 5.240 2.628,5.104 2.658,4.930 2.743 C 4.539 2.934,4.017 3.534,3.706 4.149 L 3.600 4.357 3.604 11.649 C 3.607 18.658,3.631 21.404,3.688 21.462 C 3.718 21.491,4.299 21.183,6.225 20.116 C 6.932 19.724,7.572 19.374,7.648 19.338 C 7.816 19.258,7.670 19.189,9.594 20.248 C 11.318 21.196,11.931 21.520,12.003 21.520 C 12.080 21.520,13.183 20.928,14.800 20.021 C 15.537 19.607,16.158 19.268,16.180 19.268 C 16.202 19.267,16.845 19.612,17.608 20.033 C 19.300 20.965,20.127 21.400,20.208 21.400 C 20.252 21.400,20.278 21.341,20.297 21.194 C 20.334 20.915,20.397 12.817,20.399 8.100 L 20.400 4.260 20.135 3.868 C 19.820 3.401,19.481 3.047,19.081 2.766 L 18.787 2.560 12.384 2.566 C 8.862 2.569,5.793 2.586,5.566 2.603 M11.332 5.045 C 11.465 5.112,11.679 5.325,11.748 5.457 C 11.786 5.529,11.817 5.729,11.829 5.977 L 11.850 6.380 11.671 6.620 C 11.573 6.752,11.220 7.182,10.887 7.576 C 10.553 7.970,10.280 8.306,10.280 8.322 C 10.280 8.369,10.492 8.394,11.595 8.481 C 13.348 8.618,13.877 8.727,14.599 9.104 C 15.467 9.556,16.272 10.244,16.794 10.981 C 17.115 11.434,17.576 12.366,17.677 12.766 C 17.779 13.170,17.830 13.765,17.863 14.969 C 17.895 16.084,17.913 15.999,17.563 16.375 C 17.325 16.631,17.131 16.718,16.798 16.719 C 16.315 16.721,15.949 16.453,15.826 16.006 C 15.792 15.882,15.699 15.339,15.620 14.800 C 15.374 13.121,15.260 12.777,14.772 12.243 C 14.185 11.600,13.668 11.246,13.079 11.082 C 12.630 10.958,10.315 10.749,10.238 10.826 C 10.205 10.859,10.300 10.972,11.153 11.924 C 11.358 12.153,11.592 12.439,11.673 12.560 C 11.809 12.764,11.821 12.805,11.834 13.122 C 11.841 13.310,11.827 13.540,11.802 13.633 C 11.670 14.123,10.947 14.460,10.477 14.251 C 10.175 14.118,9.704 13.703,8.484 12.500 C 7.129 11.163,6.459 10.443,6.295 10.148 C 6.193 9.963,6.180 9.902,6.182 9.600 C 6.185 9.185,6.228 9.080,6.564 8.660 C 6.865 8.283,8.840 6.297,9.700 5.505 L 10.300 4.953 10.772 4.976 C 11.032 4.989,11.284 5.020,11.332 5.045 " fill="#373B4D" stroke="none" fill-rule="evenodd"></path></svg>