<svg width="24" height="24" viewBox="0 0 24 24" fill="none" xmlns="http://www.w3.org/2000/svg"><path d="M6.540 2.519 C 5.048 2.543,5.089 2.535,4.620 2.890 C 4.195 3.212,3.836 3.730,3.659 4.277 C 3.593 4.481,3.590 4.972,3.608 12.987 C 3.618 17.658,3.638 21.491,3.652 21.505 C 3.683 21.536,4.304 21.198,6.290 20.067 L 7.800 19.207 9.570 20.216 C 10.544 20.772,11.489 21.305,11.670 21.403 L 12.000 21.580 12.330 21.403 C 12.512 21.305,13.456 20.772,14.428 20.217 L 16.197 19.208 17.568 19.989 C 19.453 21.060,20.218 21.480,20.288 21.480 C 20.339 21.480,20.350 21.097,20.373 18.533 C 20.388 16.913,20.400 13.082,20.400 10.020 C 20.400 4.600,20.398 4.447,20.322 4.225 C 20.171 3.786,19.995 3.511,19.642 3.160 C 19.401 2.920,19.218 2.778,19.023 2.680 L 18.747 2.541 16.743 2.514 C 14.496 2.483,8.555 2.486,6.540 2.519 M11.330 4.983 C 11.498 5.068,11.750 5.308,11.829 5.459 C 11.864 5.527,11.899 5.725,11.911 5.921 C 11.927 6.207,11.917 6.295,11.851 6.443 C 11.760 6.647,11.397 7.069,10.648 7.844 L 10.122 8.389 11.011 8.416 C 13.057 8.478,13.618 8.578,14.613 9.056 C 15.655 9.556,16.639 10.484,17.195 11.492 C 17.406 11.874,17.653 12.498,17.786 12.989 C 17.888 13.363,17.893 13.433,17.910 14.617 C 17.923 15.471,17.915 15.900,17.883 16.005 C 17.818 16.224,17.484 16.571,17.231 16.682 C 16.952 16.805,16.649 16.805,16.372 16.683 C 16.109 16.568,15.782 16.230,15.724 16.014 C 15.700 15.928,15.653 15.480,15.619 15.018 C 15.507 13.513,15.402 13.053,15.051 12.536 C 14.542 11.786,13.689 11.143,12.991 10.981 C 12.673 10.908,11.967 10.851,10.920 10.816 L 10.100 10.788 10.713 11.418 C 11.796 12.532,11.920 12.717,11.920 13.214 C 11.920 13.462,11.901 13.560,11.822 13.716 C 11.613 14.129,11.247 14.359,10.800 14.359 C 10.331 14.359,10.099 14.172,8.097 12.175 C 6.230 10.314,6.081 10.123,6.080 9.589 C 6.080 9.086,6.247 8.870,7.998 7.117 C 9.245 5.869,10.127 5.048,10.335 4.941 C 10.496 4.857,11.134 4.885,11.330 4.983 " fill="#373B4D" stroke="none" fill-rule="evenodd"></path></svg>