<svg width="24" height="24" viewBox="0 0 24 24" fill="none" xmlns="http://www.w3.org/2000/svg"><path d="M8.160 2.522 C 5.491 2.561,5.163 2.584,4.887 2.746 C 4.486 2.980,4.079 3.448,3.773 4.022 L 3.591 4.364 3.606 12.919 C 3.614 17.624,3.633 21.487,3.650 21.503 C 3.672 21.526,5.648 20.447,7.603 19.344 L 7.785 19.241 9.797 20.359 C 10.904 20.973,11.863 21.488,11.929 21.502 C 12.086 21.536,12.211 21.472,14.398 20.243 L 16.177 19.243 16.518 19.428 C 16.706 19.529,17.445 19.937,18.160 20.333 C 19.714 21.194,20.231 21.462,20.269 21.425 C 20.329 21.365,20.354 19.250,20.381 11.920 L 20.409 4.300 20.194 3.944 C 19.925 3.496,19.477 3.015,19.095 2.765 L 18.801 2.571 16.491 2.546 C 11.673 2.492,10.473 2.488,8.160 2.522 M9.153 6.121 C 9.314 6.141,9.517 6.178,9.603 6.201 C 9.794 6.252,10.169 6.558,10.439 6.883 L 10.640 7.124 10.640 7.800 L 10.640 8.475 10.421 8.734 C 10.021 9.205,9.643 9.456,9.171 9.565 C 8.997 9.605,8.935 9.600,8.694 9.527 C 8.212 9.381,7.726 9.008,7.487 8.602 C 7.383 8.425,7.380 8.402,7.380 7.780 L 7.380 7.140 7.507 6.957 C 7.777 6.568,8.259 6.203,8.615 6.118 C 8.787 6.077,8.819 6.077,9.153 6.121 M16.160 6.273 C 16.323 6.352,16.408 6.426,16.490 6.560 C 16.619 6.773,16.697 7.147,16.661 7.386 C 16.601 7.788,16.076 8.368,12.961 11.477 C 10.431 14.002,9.283 15.106,8.941 15.341 C 8.718 15.494,8.699 15.500,8.385 15.500 C 8.011 15.500,7.831 15.431,7.597 15.197 C 7.406 15.006,7.341 14.744,7.372 14.296 C 7.390 14.040,7.418 13.930,7.495 13.808 C 7.742 13.417,9.816 11.286,12.499 8.668 C 14.278 6.931,14.976 6.283,15.170 6.184 C 15.364 6.086,15.869 6.131,16.160 6.273 M15.153 12.121 C 15.314 12.141,15.517 12.178,15.603 12.201 C 15.794 12.252,16.169 12.558,16.439 12.883 L 16.640 13.124 16.640 13.800 L 16.640 14.475 16.421 14.734 C 16.021 15.205,15.643 15.456,15.171 15.565 C 14.997 15.605,14.935 15.600,14.694 15.527 C 14.212 15.381,13.726 15.008,13.487 14.602 C 13.383 14.425,13.380 14.402,13.380 13.780 L 13.380 13.140 13.507 12.957 C 13.777 12.568,14.259 12.203,14.615 12.118 C 14.787 12.077,14.819 12.077,15.153 12.121 " fill="#373B4D" stroke="none" fill-rule="evenodd"></path></svg>