<svg width="24" height="24" viewBox="0 0 24 24" fill="none" xmlns="http://www.w3.org/2000/svg"><path d="M6.900 2.598 L 5.220 2.620 4.987 2.729 C 4.573 2.923,4.005 3.553,3.701 4.157 L 3.592 4.373 3.613 12.777 C 3.625 17.399,3.647 21.238,3.662 21.310 C 3.677 21.382,3.711 21.440,3.737 21.440 C 3.800 21.440,4.277 21.190,5.480 20.528 C 6.019 20.231,6.734 19.838,7.068 19.654 C 7.408 19.467,7.724 19.320,7.784 19.320 C 7.850 19.320,8.604 19.709,9.716 20.316 C 10.719 20.864,11.645 21.363,11.773 21.426 L 12.006 21.540 12.432 21.320 C 12.666 21.199,13.596 20.690,14.498 20.190 C 15.401 19.689,16.158 19.280,16.181 19.280 C 16.204 19.280,16.933 19.668,17.802 20.142 C 19.861 21.267,20.186 21.430,20.251 21.366 C 20.326 21.290,20.348 19.645,20.382 11.529 L 20.413 4.278 20.177 3.930 C 19.873 3.481,19.501 3.087,19.107 2.793 L 18.793 2.560 13.687 2.568 C 10.878 2.573,7.824 2.587,6.900 2.598 M11.227 5.025 C 11.388 5.054,11.649 5.275,11.734 5.454 C 11.772 5.533,11.810 5.755,11.825 5.985 L 11.850 6.380 11.569 6.740 C 11.414 6.938,11.061 7.370,10.785 7.700 C 10.508 8.030,10.281 8.311,10.281 8.326 C 10.279 8.368,10.493 8.394,11.540 8.481 C 13.707 8.660,14.208 8.800,15.300 9.536 C 15.787 9.863,16.567 10.640,16.851 11.080 C 17.101 11.467,17.445 12.138,17.587 12.516 C 17.733 12.904,17.795 13.426,17.846 14.705 L 17.892 15.870 17.803 16.053 C 17.690 16.287,17.339 16.610,17.131 16.672 C 16.655 16.814,16.110 16.608,15.904 16.208 C 15.832 16.068,15.749 15.645,15.601 14.667 C 15.355 13.044,15.244 12.745,14.652 12.117 C 14.129 11.563,13.504 11.178,12.939 11.062 C 12.304 10.932,10.339 10.765,10.269 10.835 C 10.241 10.863,10.340 11.004,10.584 11.281 C 11.768 12.630,11.793 12.666,11.827 13.067 C 11.862 13.486,11.787 13.773,11.592 13.968 C 11.366 14.194,11.119 14.297,10.797 14.299 C 10.557 14.300,10.512 14.286,10.306 14.149 C 9.973 13.928,9.537 13.533,8.485 12.500 C 7.352 11.387,6.560 10.542,6.353 10.224 C 6.203 9.993,6.200 9.980,6.200 9.612 C 6.200 9.179,6.239 9.078,6.560 8.674 C 6.811 8.359,8.935 6.218,9.720 5.489 L 10.300 4.951 10.700 4.977 C 10.920 4.991,11.157 5.013,11.227 5.025 " fill="#373B4D" stroke="none" fill-rule="evenodd"></path></svg>