<svg width="24" height="24" viewBox="0 0 24 24" fill="none" xmlns="http://www.w3.org/2000/svg"><path d="M8.400 2.523 C 5.163 2.563,5.229 2.559,4.919 2.724 C 4.478 2.959,4.059 3.445,3.725 4.109 L 3.600 4.358 3.606 11.769 C 3.609 15.845,3.622 19.709,3.636 20.354 L 3.660 21.529 4.000 21.349 C 4.187 21.250,5.113 20.735,6.059 20.206 L 7.778 19.243 8.159 19.447 C 8.368 19.560,9.210 20.027,10.028 20.485 C 11.747 21.446,11.888 21.520,12.000 21.520 C 12.115 21.520,12.296 21.425,14.040 20.441 C 14.887 19.963,15.715 19.498,15.879 19.408 L 16.178 19.243 16.599 19.469 C 16.831 19.593,17.614 20.025,18.340 20.430 C 19.805 21.246,20.228 21.465,20.266 21.427 C 20.333 21.360,20.354 19.707,20.380 12.325 L 20.409 4.350 20.262 4.061 C 19.986 3.518,19.506 3.000,18.993 2.692 L 18.780 2.564 15.100 2.522 C 13.076 2.499,11.285 2.483,11.120 2.487 C 10.955 2.490,9.731 2.506,8.400 2.523 M11.354 5.037 C 11.565 5.144,11.789 5.405,11.828 5.588 C 11.845 5.671,11.860 5.876,11.860 6.042 C 11.860 6.314,11.847 6.365,11.723 6.569 C 11.648 6.694,11.372 7.035,11.110 7.328 C 10.318 8.214,10.226 8.329,10.286 8.362 C 10.316 8.378,10.709 8.411,11.160 8.436 C 13.218 8.550,13.792 8.661,14.667 9.119 C 15.853 9.739,16.777 10.686,17.341 11.860 C 17.786 12.786,17.841 13.076,17.869 14.647 C 17.880 15.322,17.879 15.918,17.865 15.973 C 17.830 16.113,17.547 16.460,17.352 16.601 C 17.200 16.712,17.163 16.720,16.837 16.720 C 16.424 16.720,16.339 16.693,16.120 16.495 C 15.796 16.203,15.767 16.114,15.637 15.011 C 15.465 13.564,15.362 13.076,15.150 12.720 C 14.889 12.281,14.326 11.718,13.804 11.371 C 13.262 11.011,12.660 10.904,10.700 10.818 L 10.100 10.792 10.443 11.146 C 11.391 12.126,11.773 12.592,11.845 12.856 C 11.897 13.048,11.869 13.590,11.801 13.718 C 11.617 14.061,11.195 14.333,10.840 14.337 C 10.384 14.343,10.114 14.134,8.440 12.490 C 7.188 11.260,6.573 10.603,6.310 10.214 C 6.162 9.995,6.160 9.986,6.160 9.604 C 6.160 9.238,6.167 9.204,6.285 9.018 C 6.353 8.909,6.492 8.721,6.594 8.600 C 7.046 8.060,9.470 5.670,10.072 5.169 L 10.324 4.960 10.764 4.960 C 11.119 4.960,11.232 4.975,11.354 5.037 " fill="#373B4D" stroke="none" fill-rule="evenodd"></path></svg>