<svg width="24" height="24" viewBox="0 0 24 24" fill="none" xmlns="http://www.w3.org/2000/svg"><path d="M5.566 2.603 C 5.240 2.628,5.104 2.658,4.930 2.743 C 4.539 2.934,4.017 3.534,3.706 4.149 L 3.600 4.357 3.604 11.649 C 3.607 18.658,3.631 21.404,3.688 21.462 C 3.718 21.491,4.299 21.183,6.225 20.116 C 6.932 19.724,7.572 19.374,7.648 19.338 C 7.816 19.258,7.670 19.189,9.594 20.248 C 11.318 21.196,11.931 21.520,12.003 21.520 C 12.080 21.520,13.183 20.928,14.800 20.021 C 15.537 19.607,16.158 19.268,16.180 19.268 C 16.202 19.267,16.845 19.612,17.608 20.033 C 19.300 20.965,20.127 21.400,20.208 21.400 C 20.252 21.400,20.278 21.341,20.297 21.194 C 20.334 20.915,20.397 12.817,20.399 8.100 L 20.400 4.260 20.135 3.868 C 19.820 3.401,19.481 3.047,19.081 2.766 L 18.787 2.560 12.384 2.566 C 8.862 2.569,5.793 2.586,5.566 2.603 M9.239 6.142 C 9.715 6.219,9.871 6.308,10.305 6.751 L 10.640 7.093 10.640 7.785 L 10.640 8.477 10.457 8.689 C 10.087 9.116,9.700 9.390,9.276 9.527 C 9.006 9.614,8.998 9.614,8.771 9.544 C 8.294 9.397,7.858 9.092,7.573 8.706 L 7.400 8.471 7.400 7.785 L 7.400 7.099 7.600 6.851 C 7.835 6.561,8.230 6.266,8.529 6.159 C 8.787 6.066,8.773 6.066,9.239 6.142 M15.761 6.174 C 16.128 6.245,16.351 6.379,16.498 6.617 C 16.611 6.799,16.620 6.841,16.620 7.182 L 16.620 7.551 16.420 7.844 C 16.091 8.325,10.053 14.415,9.160 15.165 C 8.833 15.440,8.705 15.493,8.380 15.491 C 8.057 15.489,7.877 15.425,7.661 15.236 C 7.443 15.045,7.400 14.910,7.400 14.431 C 7.401 13.807,7.357 13.867,9.244 11.920 C 10.233 10.901,13.897 7.300,14.614 6.644 C 14.945 6.341,15.286 6.120,15.420 6.122 C 15.464 6.122,15.617 6.146,15.761 6.174 M15.239 12.142 C 15.715 12.219,15.871 12.308,16.305 12.751 L 16.640 13.093 16.640 13.785 L 16.640 14.477 16.457 14.689 C 16.087 15.116,15.700 15.390,15.276 15.527 C 15.006 15.614,14.998 15.614,14.771 15.544 C 14.294 15.397,13.858 15.092,13.573 14.706 L 13.400 14.471 13.400 13.785 L 13.400 13.099 13.600 12.851 C 13.835 12.561,14.230 12.266,14.529 12.159 C 14.787 12.066,14.773 12.066,15.239 12.142 " fill="#373B4D" stroke="none" fill-rule="evenodd"></path></svg>