<svg width="24" height="24" viewBox="0 0 24 24" fill="none" xmlns="http://www.w3.org/2000/svg"><path d="M5.380 2.518 C 4.754 2.600,3.947 3.383,3.708 4.140 L 3.620 4.420 3.620 12.967 C 3.620 17.667,3.631 21.524,3.644 21.537 C 3.656 21.550,4.597 21.030,5.733 20.382 L 7.799 19.204 9.570 20.215 C 10.543 20.772,11.489 21.306,11.670 21.403 L 12.000 21.580 12.330 21.403 C 12.511 21.306,13.456 20.772,14.429 20.216 L 16.198 19.206 17.709 20.066 C 19.728 21.216,20.317 21.536,20.351 21.502 C 20.367 21.486,20.380 17.636,20.380 12.947 L 20.380 4.420 20.291 4.138 C 20.102 3.536,19.559 2.922,18.977 2.652 C 18.748 2.546,18.709 2.541,17.840 2.515 C 16.698 2.480,5.648 2.482,5.380 2.518 M11.431 5.036 C 11.547 5.109,11.700 5.252,11.771 5.354 C 11.891 5.527,11.901 5.567,11.914 5.923 C 11.923 6.194,11.910 6.346,11.869 6.443 C 11.799 6.609,11.397 7.071,10.669 7.824 L 10.123 8.387 11.052 8.414 C 13.201 8.476,13.681 8.572,14.851 9.171 C 15.388 9.446,15.884 9.837,16.399 10.390 C 16.968 11.000,17.359 11.669,17.642 12.516 C 17.898 13.282,17.937 13.586,17.939 14.820 C 17.940 15.838,17.935 15.911,17.855 16.084 C 17.808 16.185,17.704 16.333,17.624 16.414 C 17.138 16.899,16.475 16.906,15.999 16.430 C 15.723 16.154,15.682 16.032,15.639 15.368 C 15.530 13.703,15.471 13.328,15.241 12.858 C 14.875 12.110,13.955 11.282,13.222 11.042 C 13.089 10.998,12.857 10.943,12.706 10.920 C 12.414 10.874,11.057 10.802,10.465 10.801 L 10.110 10.800 10.732 11.438 C 11.825 12.559,11.940 12.729,11.936 13.206 C 11.934 13.455,11.913 13.554,11.824 13.735 C 11.631 14.130,11.231 14.375,10.780 14.375 C 10.338 14.375,10.098 14.178,8.038 12.120 C 6.188 10.273,6.073 10.125,6.065 9.580 C 6.057 9.122,6.192 8.942,7.677 7.431 C 8.712 6.377,9.981 5.173,10.244 4.995 C 10.415 4.879,10.431 4.876,10.820 4.890 C 11.191 4.903,11.235 4.914,11.431 5.036 " fill="#373B4D" stroke="none" fill-rule="evenodd"></path></svg>