<svg width="24" height="24" viewBox="0 0 24 24" fill="none" xmlns="http://www.w3.org/2000/svg"><path d="M6.400 2.437 C 5.248 2.466,5.194 2.479,4.676 2.823 C 4.237 3.115,3.925 3.517,3.731 4.040 L 3.620 4.340 3.609 12.950 C 3.602 18.118,3.612 21.560,3.634 21.560 C 3.654 21.560,4.600 21.029,5.736 20.379 L 7.801 19.199 9.900 20.401 L 11.999 21.604 14.099 20.401 L 16.199 19.199 18.264 20.379 C 19.400 21.029,20.346 21.560,20.366 21.560 C 20.388 21.560,20.398 18.132,20.391 12.950 L 20.380 4.340 20.269 4.040 C 20.052 3.450,19.644 2.978,19.105 2.695 C 18.571 2.414,18.995 2.433,12.920 2.421 C 9.895 2.416,6.961 2.423,6.400 2.437 M11.354 4.968 C 11.539 5.056,11.642 5.137,11.734 5.267 C 11.913 5.521,11.954 5.657,11.957 6.020 C 11.959 6.307,11.946 6.362,11.836 6.554 C 11.762 6.684,11.397 7.090,10.911 7.584 L 10.108 8.400 10.744 8.402 C 11.761 8.405,12.915 8.468,13.251 8.538 C 13.942 8.683,14.724 9.021,15.378 9.455 C 15.871 9.782,16.629 10.544,16.956 11.040 C 17.758 12.257,18.049 13.447,17.987 15.248 C 17.966 15.859,17.955 15.932,17.862 16.116 C 17.415 16.999,16.224 17.025,15.765 16.163 L 15.634 15.918 15.598 14.849 C 15.569 13.967,15.548 13.729,15.480 13.487 C 15.298 12.838,14.983 12.311,14.493 11.836 C 14.148 11.500,13.854 11.297,13.448 11.114 C 12.915 10.873,12.715 10.845,11.348 10.815 L 10.100 10.788 10.907 11.610 C 11.878 12.599,11.959 12.720,11.960 13.184 C 11.960 13.465,11.944 13.539,11.838 13.752 C 11.703 14.022,11.548 14.174,11.290 14.288 C 10.886 14.468,10.449 14.416,10.108 14.148 C 9.841 13.939,7.069 11.191,6.573 10.645 C 6.090 10.113,6.040 10.015,6.040 9.600 C 6.040 9.174,6.090 9.082,6.654 8.472 C 7.478 7.580,10.090 5.023,10.260 4.941 C 10.611 4.773,10.964 4.781,11.354 4.968 " fill="#373B4D" stroke="none" fill-rule="evenodd"></path></svg>