<svg width="24" height="24" viewBox="0 0 24 24" fill="none" xmlns="http://www.w3.org/2000/svg"><path d="M7.580 2.522 C 5.980 2.540,5.214 2.563,5.113 2.595 C 4.905 2.662,4.541 2.940,4.255 3.253 C 3.974 3.560,3.699 4.070,3.639 4.395 C 3.594 4.643,3.585 15.260,3.627 19.087 L 3.653 21.513 3.750 21.476 C 3.889 21.424,4.534 21.066,6.215 20.109 C 7.026 19.648,7.723 19.261,7.764 19.251 C 7.812 19.238,8.481 19.597,9.629 20.250 C 10.614 20.810,11.550 21.339,11.710 21.424 L 11.999 21.580 12.330 21.403 C 12.511 21.305,13.455 20.772,14.427 20.218 L 16.193 19.211 17.567 19.990 C 19.227 20.932,20.111 21.419,20.226 21.456 C 20.309 21.482,20.314 21.468,20.344 21.091 C 20.361 20.876,20.377 17.019,20.378 12.520 L 20.380 4.340 20.289 4.114 C 20.068 3.567,19.528 2.960,19.027 2.695 L 18.740 2.543 15.940 2.515 C 12.743 2.483,10.876 2.485,7.580 2.522 M11.306 4.981 C 11.476 5.051,11.738 5.294,11.813 5.452 C 11.847 5.523,11.888 5.721,11.903 5.891 C 11.951 6.418,11.850 6.580,10.752 7.732 C 10.421 8.079,10.157 8.369,10.165 8.376 C 10.173 8.383,10.693 8.410,11.320 8.435 C 13.111 8.508,13.649 8.607,14.517 9.023 C 16.086 9.775,17.128 10.976,17.685 12.676 C 17.846 13.166,17.851 13.202,17.888 13.960 C 17.909 14.389,17.920 15.019,17.913 15.360 C 17.901 15.953,17.895 15.988,17.790 16.168 C 17.666 16.379,17.406 16.608,17.188 16.699 C 17.001 16.777,16.599 16.777,16.412 16.699 C 16.073 16.558,15.758 16.192,15.705 15.880 C 15.692 15.803,15.654 15.398,15.619 14.980 C 15.502 13.545,15.387 13.053,15.049 12.542 C 14.691 12.000,13.998 11.399,13.427 11.138 C 13.015 10.950,12.417 10.875,10.840 10.816 L 10.100 10.788 10.716 11.424 C 11.360 12.088,11.698 12.484,11.825 12.720 C 11.882 12.827,11.900 12.945,11.900 13.220 C 11.900 13.541,11.888 13.600,11.790 13.767 C 11.519 14.229,10.966 14.466,10.516 14.314 C 10.221 14.215,9.802 13.847,8.385 12.442 C 6.218 10.295,6.100 10.148,6.100 9.600 C 6.100 9.244,6.169 9.087,6.514 8.662 C 6.962 8.109,9.882 5.241,10.231 5.010 C 10.281 4.977,10.380 4.935,10.451 4.918 C 10.619 4.876,11.145 4.915,11.306 4.981 " fill="#373B4D" stroke="none" fill-rule="evenodd"></path></svg>