<svg width="24" height="24" viewBox="0 0 24 24" fill="none" xmlns="http://www.w3.org/2000/svg"><path d="M6.440 2.557 C 5.375 2.593,5.160 2.619,4.918 2.741 C 4.536 2.934,4.098 3.428,3.764 4.040 L 3.601 4.340 3.601 11.080 C 3.600 18.339,3.628 21.480,3.693 21.480 C 3.743 21.480,5.032 20.782,6.560 19.928 C 7.209 19.565,7.759 19.268,7.783 19.268 C 7.807 19.267,8.527 19.655,9.383 20.130 C 10.239 20.604,11.176 21.116,11.465 21.266 L 11.990 21.540 12.485 21.292 C 12.757 21.156,13.700 20.639,14.580 20.145 L 16.179 19.245 16.480 19.410 C 16.645 19.500,17.284 19.853,17.900 20.193 C 19.348 20.994,20.238 21.455,20.270 21.423 C 20.325 21.368,20.354 18.884,20.383 11.740 L 20.412 4.300 20.241 4.020 C 19.894 3.450,19.472 3.008,18.973 2.688 L 18.766 2.556 13.053 2.541 C 9.911 2.533,6.935 2.541,6.440 2.557 M9.223 6.135 C 9.422 6.165,9.629 6.212,9.683 6.240 C 9.905 6.356,10.180 6.588,10.403 6.847 L 10.640 7.122 10.640 7.799 L 10.640 8.475 10.393 8.761 C 10.080 9.124,9.687 9.402,9.318 9.521 C 9.068 9.601,9.009 9.607,8.838 9.567 C 8.355 9.456,7.789 9.059,7.525 8.647 L 7.400 8.453 7.400 7.782 L 7.400 7.111 7.540 6.920 C 7.799 6.568,8.174 6.278,8.533 6.154 C 8.784 6.067,8.773 6.068,9.223 6.135 M15.732 6.161 C 16.338 6.249,16.640 6.587,16.652 7.193 C 16.658 7.526,16.591 7.662,16.173 8.169 C 15.823 8.593,10.027 14.403,9.420 14.939 C 8.836 15.454,8.767 15.493,8.447 15.497 C 8.057 15.501,7.912 15.458,7.703 15.274 C 7.416 15.021,7.380 14.929,7.382 14.437 C 7.384 13.906,7.407 13.864,8.103 13.100 C 9.082 12.025,13.852 7.308,14.812 6.465 C 15.044 6.262,15.285 6.126,15.420 6.123 C 15.442 6.122,15.582 6.139,15.732 6.161 M15.223 12.135 C 15.422 12.165,15.629 12.212,15.683 12.240 C 15.905 12.356,16.180 12.588,16.403 12.847 L 16.640 13.122 16.640 13.799 L 16.640 14.475 16.393 14.761 C 16.080 15.124,15.687 15.402,15.318 15.521 C 15.068 15.601,15.009 15.607,14.838 15.567 C 14.355 15.456,13.789 15.059,13.525 14.647 L 13.400 14.453 13.400 13.782 L 13.400 13.111 13.540 12.920 C 13.799 12.568,14.174 12.278,14.533 12.154 C 14.784 12.067,14.773 12.068,15.223 12.135 " fill="#373B4D" stroke="none" fill-rule="evenodd"></path></svg>