<svg width="24" height="24" viewBox="0 0 24 24" fill="none" xmlns="http://www.w3.org/2000/svg"><path d="M8.180 2.521 C 6.706 2.537,5.401 2.562,5.280 2.578 C 4.744 2.648,4.030 3.362,3.716 4.142 L 3.620 4.380 3.607 10.340 C 3.599 13.618,3.606 17.474,3.622 18.909 L 3.650 21.517 3.793 21.457 C 3.872 21.424,4.468 21.097,5.118 20.730 C 5.768 20.363,6.631 19.878,7.035 19.653 L 7.769 19.244 8.095 19.407 C 8.274 19.497,9.200 20.011,10.152 20.549 C 11.105 21.088,11.919 21.538,11.961 21.549 C 12.049 21.572,11.996 21.600,14.337 20.268 C 15.304 19.718,16.125 19.261,16.161 19.251 C 16.198 19.242,16.906 19.618,17.761 20.101 C 19.815 21.263,20.264 21.498,20.307 21.432 C 20.349 21.366,20.389 15.969,20.395 9.452 C 20.400 4.421,20.400 4.402,20.316 4.179 C 20.118 3.649,19.540 2.990,19.018 2.697 L 18.750 2.547 15.485 2.516 C 11.905 2.482,12.018 2.482,8.180 2.521 M11.423 5.062 C 11.710 5.239,11.837 5.444,11.886 5.808 C 11.960 6.360,11.846 6.561,10.861 7.613 C 10.498 8.002,10.200 8.336,10.200 8.355 C 10.200 8.374,10.492 8.402,10.850 8.417 C 12.933 8.504,13.524 8.590,14.285 8.920 C 16.006 9.667,17.207 11.037,17.741 12.865 C 17.833 13.179,17.850 13.338,17.889 14.240 C 17.913 14.801,17.919 15.436,17.902 15.651 C 17.876 16.000,17.859 16.062,17.745 16.228 C 17.674 16.330,17.513 16.486,17.386 16.576 C 17.158 16.738,17.149 16.740,16.807 16.740 C 16.412 16.739,16.292 16.692,16.040 16.440 C 15.759 16.159,15.724 16.044,15.637 15.127 C 15.502 13.700,15.438 13.341,15.240 12.898 C 15.039 12.447,14.590 11.935,14.028 11.515 C 13.325 10.990,12.904 10.899,10.800 10.817 L 10.100 10.789 10.620 11.325 C 11.229 11.953,11.607 12.385,11.766 12.636 C 11.872 12.803,11.880 12.844,11.880 13.218 C 11.880 13.613,11.877 13.625,11.739 13.831 C 11.585 14.059,11.396 14.203,11.125 14.298 C 10.713 14.443,10.410 14.338,9.860 13.856 C 9.351 13.411,7.229 11.309,6.733 10.760 C 6.211 10.182,6.120 10.009,6.121 9.602 C 6.122 9.231,6.183 9.086,6.508 8.680 C 6.992 8.075,10.045 5.091,10.300 4.974 C 10.383 4.936,10.544 4.922,10.824 4.930 C 11.194 4.941,11.246 4.952,11.423 5.062 " fill="#373B4D" stroke="none" fill-rule="evenodd"></path></svg>