<svg width="24" height="24" viewBox="0 0 24 24" fill="none" xmlns="http://www.w3.org/2000/svg"><path d="M6.900 2.598 L 5.220 2.620 4.987 2.729 C 4.573 2.923,4.005 3.553,3.701 4.157 L 3.592 4.373 3.613 12.777 C 3.625 17.399,3.647 21.238,3.662 21.310 C 3.677 21.382,3.711 21.440,3.737 21.440 C 3.800 21.440,4.277 21.190,5.480 20.528 C 6.019 20.231,6.734 19.838,7.068 19.654 C 7.408 19.467,7.724 19.320,7.784 19.320 C 7.850 19.320,8.604 19.709,9.716 20.316 C 10.719 20.864,11.645 21.363,11.773 21.426 L 12.006 21.540 12.432 21.320 C 12.666 21.199,13.596 20.690,14.498 20.190 C 15.401 19.689,16.158 19.280,16.181 19.280 C 16.204 19.280,16.933 19.668,17.802 20.142 C 19.861 21.267,20.186 21.430,20.251 21.366 C 20.326 21.290,20.348 19.645,20.382 11.529 L 20.413 4.278 20.177 3.930 C 19.873 3.481,19.501 3.087,19.107 2.793 L 18.793 2.560 13.687 2.568 C 10.878 2.573,7.824 2.587,6.900 2.598 M9.216 6.143 C 9.412 6.177,9.646 6.242,9.736 6.288 C 9.826 6.333,10.066 6.534,10.270 6.733 L 10.640 7.095 10.640 7.792 L 10.640 8.489 10.331 8.807 C 9.970 9.178,9.703 9.365,9.340 9.501 C 9.009 9.626,8.982 9.625,8.609 9.480 C 8.219 9.329,7.820 9.030,7.584 8.712 L 7.400 8.465 7.400 7.782 L 7.400 7.099 7.570 6.895 C 7.854 6.554,8.160 6.320,8.516 6.174 C 8.784 6.064,8.769 6.064,9.216 6.143 M15.996 6.243 C 16.238 6.327,16.321 6.390,16.486 6.616 C 16.594 6.764,16.600 6.794,16.600 7.182 L 16.600 7.591 16.426 7.826 C 15.876 8.563,9.571 14.894,8.980 15.302 C 8.780 15.439,8.720 15.460,8.475 15.474 C 8.097 15.495,7.866 15.424,7.658 15.223 C 7.457 15.030,7.400 14.858,7.400 14.440 C 7.400 14.045,7.444 13.908,7.659 13.621 C 7.978 13.198,9.765 11.373,12.040 9.145 C 14.529 6.709,14.760 6.491,15.100 6.270 C 15.327 6.122,15.352 6.115,15.560 6.141 C 15.681 6.155,15.877 6.201,15.996 6.243 M15.216 12.143 C 15.412 12.177,15.646 12.242,15.736 12.288 C 15.826 12.333,16.067 12.534,16.270 12.733 L 16.640 13.095 16.640 13.792 L 16.640 14.489 16.331 14.807 C 15.970 15.178,15.703 15.365,15.340 15.501 C 15.009 15.626,14.982 15.625,14.609 15.480 C 14.219 15.329,13.820 15.030,13.584 14.712 L 13.400 14.465 13.400 13.782 L 13.400 13.099 13.570 12.895 C 13.854 12.554,14.160 12.320,14.516 12.174 C 14.784 12.064,14.769 12.064,15.216 12.143 " fill="#373B4D" stroke="none" fill-rule="evenodd"></path></svg>