<svg width="24" height="24" viewBox="0 0 24 24" fill="none" xmlns="http://www.w3.org/2000/svg"><path d="M8.160 2.522 C 5.491 2.561,5.163 2.584,4.887 2.746 C 4.486 2.980,4.079 3.448,3.773 4.022 L 3.591 4.364 3.606 12.919 C 3.614 17.624,3.633 21.487,3.650 21.503 C 3.672 21.526,5.648 20.447,7.603 19.344 L 7.785 19.241 9.797 20.359 C 10.904 20.973,11.863 21.488,11.929 21.502 C 12.086 21.536,12.211 21.472,14.398 20.243 L 16.177 19.243 16.518 19.428 C 16.706 19.529,17.445 19.937,18.160 20.333 C 19.714 21.194,20.231 21.462,20.269 21.425 C 20.329 21.365,20.354 19.250,20.381 11.920 L 20.409 4.300 20.194 3.944 C 19.925 3.496,19.477 3.015,19.095 2.765 L 18.801 2.571 16.491 2.546 C 11.673 2.492,10.473 2.488,8.160 2.522 M11.435 5.092 C 11.528 5.154,11.657 5.288,11.722 5.390 C 11.833 5.564,11.840 5.601,11.840 5.982 L 11.840 6.387 11.645 6.664 C 11.538 6.816,11.212 7.210,10.920 7.540 C 10.293 8.250,10.246 8.314,10.318 8.359 C 10.347 8.377,10.579 8.403,10.835 8.418 C 12.453 8.510,13.332 8.613,13.834 8.767 C 14.942 9.109,16.213 10.073,16.886 11.082 C 17.271 11.659,17.626 12.429,17.742 12.936 C 17.813 13.247,17.877 14.375,17.879 15.346 L 17.880 15.991 17.707 16.226 C 17.612 16.355,17.464 16.514,17.377 16.580 C 17.237 16.687,17.184 16.702,16.887 16.714 C 16.643 16.725,16.506 16.710,16.378 16.661 C 16.165 16.580,15.876 16.273,15.808 16.055 C 15.781 15.970,15.706 15.486,15.640 14.980 C 15.495 13.875,15.384 13.263,15.278 12.994 C 15.163 12.702,14.931 12.382,14.584 12.033 C 13.821 11.266,13.340 11.040,12.220 10.923 C 11.849 10.884,10.485 10.800,10.227 10.800 C 10.123 10.800,10.157 10.845,10.654 11.370 C 11.304 12.056,11.649 12.466,11.769 12.692 C 11.845 12.834,11.858 12.919,11.855 13.247 C 11.851 13.569,11.836 13.657,11.764 13.774 C 11.473 14.245,10.867 14.456,10.424 14.242 C 10.117 14.093,9.490 13.528,8.138 12.180 C 6.883 10.929,6.360 10.349,6.221 10.057 C 6.181 9.973,6.160 9.811,6.160 9.593 C 6.160 9.217,6.204 9.105,6.503 8.717 C 6.866 8.245,9.399 5.730,10.094 5.152 L 10.334 4.952 10.800 4.966 C 11.231 4.979,11.278 4.988,11.435 5.092 " fill="#373B4D" stroke="none" fill-rule="evenodd"></path></svg>