<svg width="24" height="24" viewBox="0 0 24 24" fill="none" xmlns="http://www.w3.org/2000/svg"><path d="M8.180 2.521 C 6.706 2.537,5.401 2.562,5.280 2.578 C 4.744 2.648,4.030 3.362,3.716 4.142 L 3.620 4.380 3.607 10.340 C 3.599 13.618,3.606 17.474,3.622 18.909 L 3.650 21.517 3.793 21.457 C 3.872 21.424,4.468 21.097,5.118 20.730 C 5.768 20.363,6.631 19.878,7.035 19.653 L 7.769 19.244 8.095 19.407 C 8.274 19.497,9.200 20.011,10.152 20.549 C 11.105 21.088,11.919 21.538,11.961 21.549 C 12.049 21.572,11.996 21.600,14.337 20.268 C 15.304 19.718,16.125 19.261,16.161 19.251 C 16.198 19.242,16.906 19.618,17.761 20.101 C 19.815 21.263,20.264 21.498,20.307 21.432 C 20.349 21.366,20.389 15.969,20.395 9.452 C 20.400 4.421,20.400 4.402,20.316 4.179 C 20.118 3.649,19.540 2.990,19.018 2.697 L 18.750 2.547 15.485 2.516 C 11.905 2.482,12.018 2.482,8.180 2.521 M9.678 6.199 C 9.919 6.322,10.258 6.620,10.456 6.883 L 10.640 7.128 10.640 7.800 L 10.640 8.472 10.458 8.715 C 9.992 9.334,9.318 9.675,8.774 9.566 C 8.250 9.460,7.671 9.016,7.436 8.538 C 7.313 8.288,7.312 8.281,7.326 7.751 C 7.340 7.222,7.341 7.214,7.480 6.985 C 7.738 6.556,8.188 6.194,8.560 6.114 C 8.807 6.061,9.512 6.114,9.678 6.199 M16.102 6.204 C 16.495 6.388,16.698 6.727,16.699 7.203 C 16.700 7.679,16.664 7.725,14.626 9.833 C 13.208 11.300,9.804 14.660,9.280 15.110 C 8.858 15.472,8.721 15.537,8.380 15.539 C 8.144 15.539,8.066 15.521,7.888 15.422 C 7.624 15.277,7.419 15.053,7.363 14.853 C 7.340 14.769,7.320 14.564,7.320 14.398 C 7.320 13.937,7.395 13.821,8.317 12.852 C 9.538 11.569,14.419 6.732,14.795 6.432 C 14.979 6.286,15.195 6.148,15.275 6.126 C 15.475 6.071,15.907 6.112,16.102 6.204 M15.678 12.199 C 15.919 12.322,16.258 12.620,16.456 12.883 L 16.640 13.128 16.640 13.800 L 16.640 14.472 16.458 14.715 C 15.992 15.334,15.318 15.675,14.774 15.566 C 14.250 15.460,13.671 15.016,13.436 14.538 C 13.313 14.288,13.312 14.281,13.326 13.751 C 13.340 13.222,13.341 13.214,13.480 12.985 C 13.738 12.556,14.188 12.194,14.560 12.114 C 14.807 12.061,15.512 12.114,15.678 12.199 " fill="#373B4D" stroke="none" fill-rule="evenodd"></path></svg>