<svg width="24" height="24" viewBox="0 0 24 24" fill="none" xmlns="http://www.w3.org/2000/svg"><path d="M10.960 3.082 C 9.791 3.256,8.944 3.507,8.060 3.941 C 7.151 4.387,6.370 4.947,5.639 5.679 C 4.904 6.414,4.406 7.106,3.957 8.020 C 3.517 8.914,3.260 9.723,3.093 10.740 C 2.982 11.412,2.994 12.725,3.116 13.420 C 3.458 15.359,4.336 17.027,5.743 18.409 C 6.494 19.147,7.069 19.561,7.986 20.023 C 9.734 20.904,11.751 21.196,13.624 20.838 C 17.261 20.145,20.048 17.390,20.818 13.727 C 21.022 12.752,21.040 11.341,20.858 10.460 C 20.458 8.518,19.666 6.995,18.393 5.723 C 17.579 4.909,17.017 4.498,16.040 4.003 C 14.758 3.354,13.952 3.149,12.261 3.041 C 11.496 2.992,11.579 2.989,10.960 3.082 M16.111 6.662 C 16.301 6.741,16.466 6.898,16.568 7.096 C 16.632 7.222,16.645 7.311,16.633 7.544 C 16.621 7.790,16.600 7.862,16.498 8.007 C 16.346 8.222,16.058 8.403,15.823 8.430 C 15.479 8.469,15.064 8.179,14.899 7.784 C 14.866 7.706,14.796 7.613,14.742 7.578 C 14.689 7.543,14.351 7.454,13.993 7.381 C 13.223 7.224,12.957 7.187,12.893 7.230 C 12.812 7.284,12.287 9.777,12.332 9.894 C 12.346 9.931,12.485 9.965,12.747 9.998 C 13.851 10.133,14.624 10.383,15.489 10.886 L 15.758 11.042 16.069 10.877 L 16.380 10.711 16.716 10.736 C 17.098 10.765,17.304 10.844,17.548 11.056 C 17.872 11.338,18.040 11.916,17.924 12.346 C 17.862 12.576,17.592 12.967,17.409 13.094 L 17.256 13.200 17.210 13.759 C 17.158 14.382,17.070 14.657,16.779 15.103 C 16.413 15.663,15.639 16.303,14.944 16.619 C 12.203 17.869,8.591 17.142,7.251 15.071 C 6.955 14.613,6.800 14.064,6.800 13.475 C 6.800 13.283,6.790 13.265,6.518 12.977 C 6.127 12.564,6.062 12.406,6.093 11.933 C 6.123 11.483,6.174 11.352,6.413 11.113 C 6.695 10.831,6.909 10.744,7.322 10.742 C 7.639 10.740,7.688 10.751,7.962 10.887 L 8.258 11.034 8.644 10.816 C 9.419 10.377,10.160 10.140,11.140 10.017 C 11.426 9.981,11.690 9.935,11.727 9.916 C 11.796 9.879,11.879 9.554,12.276 7.772 C 12.385 7.284,12.498 6.834,12.528 6.772 C 12.597 6.631,12.571 6.629,13.850 6.867 L 14.839 7.051 14.999 6.936 C 15.349 6.683,15.532 6.602,15.751 6.601 C 15.867 6.600,16.029 6.628,16.111 6.662 M9.560 12.110 C 9.164 12.304,8.944 12.718,9.040 13.085 C 9.166 13.563,9.496 13.839,9.942 13.840 C 10.591 13.841,11.057 13.130,10.770 12.577 C 10.537 12.127,9.971 11.909,9.560 12.110 M13.689 12.107 C 13.408 12.245,13.120 12.672,13.120 12.950 C 13.120 13.111,13.247 13.384,13.392 13.533 C 13.798 13.953,14.298 13.969,14.693 13.573 C 14.892 13.375,14.976 13.180,14.976 12.920 C 14.975 12.418,14.569 12.045,14.020 12.043 C 13.910 12.042,13.761 12.071,13.689 12.107 M9.803 15.105 C 9.702 15.233,9.702 15.232,9.795 15.373 C 9.928 15.575,10.257 15.751,10.893 15.959 C 11.151 16.044,11.214 16.047,12.093 16.030 C 13.113 16.010,13.241 15.987,13.720 15.736 C 14.005 15.587,14.320 15.322,14.320 15.232 C 14.320 15.200,14.275 15.132,14.220 15.080 L 14.121 14.987 13.650 15.211 C 12.975 15.532,12.789 15.573,12.020 15.571 C 11.258 15.568,11.003 15.513,10.344 15.204 C 10.105 15.092,9.904 15.000,9.897 15.000 C 9.891 15.000,9.848 15.047,9.803 15.105 " fill="#373B4D" stroke="none" fill-rule="evenodd"></path></svg>