<svg width="24" height="24" viewBox="0 0 24 24" fill="none" xmlns="http://www.w3.org/2000/svg"><path d="M11.100 3.063 C 9.829 3.256,9.005 3.504,8.044 3.983 C 6.965 4.520,6.287 5.020,5.461 5.888 C 4.742 6.644,4.278 7.320,3.876 8.200 C 3.275 9.514,3.023 10.635,3.023 12.000 C 3.023 13.269,3.243 14.333,3.748 15.517 C 4.477 17.223,5.956 18.884,7.548 19.784 C 10.693 21.563,14.485 21.336,17.345 19.198 C 17.797 18.860,18.528 18.164,18.906 17.713 C 19.686 16.779,20.331 15.537,20.661 14.333 C 20.920 13.388,20.940 13.217,20.939 11.940 C 20.939 10.871,20.932 10.750,20.848 10.400 C 20.335 8.265,19.674 7.030,18.320 5.680 C 17.541 4.903,16.965 4.482,16.040 4.012 C 14.821 3.393,13.966 3.177,12.202 3.041 C 11.564 2.992,11.561 2.992,11.100 3.063 M16.269 6.773 C 16.343 6.826,16.447 6.929,16.502 7.002 C 16.588 7.119,16.600 7.177,16.600 7.470 C 16.600 7.842,16.560 7.951,16.353 8.146 C 15.881 8.590,15.376 8.493,14.959 7.878 C 14.870 7.747,14.757 7.614,14.708 7.582 C 14.603 7.513,13.301 7.240,13.079 7.240 C 12.967 7.240,12.911 7.261,12.882 7.315 C 12.794 7.481,12.425 9.100,12.342 9.687 C 12.309 9.922,12.332 9.937,12.866 10.020 C 13.885 10.179,14.445 10.355,15.235 10.763 L 15.770 11.040 16.086 10.872 L 16.401 10.704 16.739 10.753 C 17.330 10.839,17.611 11.021,17.816 11.455 C 17.902 11.637,17.920 11.732,17.920 12.008 C 17.919 12.421,17.830 12.628,17.492 13.000 L 17.255 13.260 17.189 13.805 C 17.153 14.104,17.086 14.449,17.040 14.570 C 16.741 15.370,15.738 16.296,14.734 16.701 C 13.142 17.343,11.410 17.404,9.801 16.875 C 8.998 16.611,8.343 16.227,7.807 15.705 C 7.159 15.074,6.908 14.556,6.818 13.660 C 6.780 13.291,6.765 13.257,6.503 12.957 C 6.171 12.577,6.120 12.449,6.121 11.997 C 6.122 11.565,6.182 11.389,6.419 11.127 C 6.660 10.859,6.870 10.780,7.340 10.780 C 7.704 10.780,7.764 10.791,8.002 10.904 L 8.264 11.028 8.582 10.854 C 9.377 10.420,10.107 10.179,11.060 10.037 C 11.368 9.991,11.659 9.928,11.706 9.898 C 11.798 9.839,11.867 9.586,12.259 7.856 C 12.475 6.905,12.535 6.728,12.653 6.699 C 12.734 6.679,13.106 6.737,14.347 6.960 L 14.834 7.048 15.007 6.930 C 15.258 6.758,15.441 6.669,15.600 6.641 C 15.810 6.605,16.117 6.665,16.269 6.773 M9.656 12.081 C 9.488 12.133,9.161 12.427,9.095 12.587 C 8.960 12.909,9.092 13.392,9.379 13.629 C 9.955 14.104,10.840 13.670,10.840 12.913 C 10.840 12.498,10.448 12.113,9.976 12.064 C 9.868 12.053,9.724 12.060,9.656 12.081 M13.854 12.077 C 13.485 12.168,13.118 12.604,13.121 12.949 C 13.123 13.217,13.410 13.602,13.729 13.765 C 14.224 14.017,14.903 13.606,14.951 13.026 C 14.973 12.759,14.910 12.557,14.746 12.370 C 14.543 12.139,14.141 12.007,13.854 12.077 M9.817 15.099 C 9.693 15.223,9.695 15.249,9.837 15.411 C 9.986 15.580,10.247 15.722,10.746 15.905 L 11.140 16.049 12.040 16.026 C 13.003 16.001,13.291 15.957,13.638 15.781 C 13.873 15.662,14.320 15.298,14.320 15.226 C 14.320 15.197,14.275 15.132,14.221 15.080 L 14.121 14.987 13.691 15.190 C 12.995 15.519,12.898 15.539,12.000 15.539 C 11.128 15.540,11.033 15.519,10.262 15.163 L 9.914 15.002 9.817 15.099 " fill="#373B4D" stroke="none" fill-rule="evenodd"></path></svg>