<svg width="24" height="24" viewBox="0 0 24 24" fill="none" xmlns="http://www.w3.org/2000/svg"><path d="M11.340 3.024 C 10.026 3.160,9.091 3.415,8.060 3.918 C 5.287 5.272,3.420 7.913,3.059 10.992 C 2.666 14.352,4.239 17.669,7.120 19.560 C 7.929 20.090,9.126 20.589,10.092 20.797 C 14.142 21.669,18.255 19.669,20.083 15.940 C 21.302 13.453,21.302 10.547,20.083 8.060 C 19.190 6.237,17.762 4.810,15.944 3.923 C 15.066 3.494,14.269 3.244,13.320 3.101 C 12.911 3.039,11.662 2.991,11.340 3.024 M16.142 6.655 C 16.628 6.881,16.814 7.410,16.583 7.908 C 16.419 8.259,16.024 8.476,15.645 8.424 C 15.274 8.373,14.950 8.087,14.860 7.731 L 14.812 7.540 13.856 7.336 C 13.008 7.155,12.897 7.139,12.870 7.196 C 12.843 7.254,12.280 9.853,12.280 9.919 C 12.280 9.935,12.450 9.959,12.658 9.973 C 13.637 10.037,14.756 10.397,15.548 10.904 L 15.756 11.037 15.983 10.900 C 16.392 10.654,16.806 10.625,17.222 10.816 C 17.507 10.946,17.723 11.152,17.862 11.428 C 17.966 11.631,17.980 11.702,17.979 12.000 C 17.978 12.292,17.962 12.371,17.866 12.560 C 17.744 12.801,17.565 13.009,17.382 13.123 L 17.264 13.197 17.257 13.628 C 17.247 14.266,17.082 14.733,16.672 15.290 C 16.017 16.178,14.848 16.833,13.393 17.128 C 12.999 17.208,12.821 17.220,12.020 17.220 C 11.219 17.220,11.041 17.208,10.647 17.128 C 8.919 16.778,7.618 15.927,7.058 14.781 C 6.863 14.381,6.793 14.081,6.784 13.609 C 6.777 13.199,6.776 13.197,6.658 13.123 C 6.483 13.014,6.259 12.764,6.153 12.560 C 6.075 12.408,6.060 12.320,6.060 12.000 C 6.060 11.556,6.138 11.352,6.414 11.074 C 6.664 10.823,6.954 10.704,7.320 10.702 C 7.643 10.700,7.798 10.746,8.072 10.926 L 8.243 11.039 8.600 10.825 C 9.013 10.575,9.518 10.356,10.000 10.216 C 10.427 10.091,11.223 9.960,11.547 9.960 L 11.795 9.960 11.858 9.670 C 11.892 9.511,12.046 8.789,12.199 8.066 C 12.352 7.343,12.498 6.727,12.523 6.696 C 12.598 6.606,12.771 6.627,13.884 6.865 C 14.614 7.020,14.942 7.075,14.952 7.043 C 15.027 6.818,15.457 6.561,15.760 6.561 C 15.865 6.561,16.024 6.600,16.142 6.655 M9.635 12.053 C 9.408 12.138,9.249 12.270,9.130 12.473 C 9.038 12.630,9.020 12.705,9.021 12.940 C 9.022 13.258,9.082 13.400,9.304 13.616 C 9.455 13.762,9.734 13.880,9.932 13.880 C 10.409 13.880,10.880 13.409,10.880 12.932 C 10.880 12.621,10.644 12.247,10.352 12.096 C 10.182 12.008,9.814 11.986,9.635 12.053 M13.754 12.053 C 13.392 12.188,13.120 12.565,13.120 12.930 C 13.120 13.409,13.590 13.880,14.068 13.880 C 14.266 13.880,14.545 13.762,14.696 13.616 C 14.919 13.399,14.978 13.258,14.979 12.937 C 14.980 12.690,14.964 12.628,14.859 12.458 C 14.632 12.091,14.137 11.910,13.754 12.053 M9.786 15.073 C 9.511 15.377,10.186 15.835,11.188 16.023 C 11.681 16.115,12.689 16.085,13.136 15.965 C 13.708 15.811,14.186 15.538,14.283 15.310 C 14.321 15.220,14.318 15.182,14.264 15.100 C 14.175 14.964,14.028 14.971,13.839 15.121 C 13.030 15.762,11.010 15.762,10.201 15.121 C 10.027 14.983,9.883 14.967,9.786 15.073 " fill="#373B4D" stroke="none" fill-rule="evenodd"></path></svg>