<svg width="24" height="24" viewBox="0 0 24 24" fill="none" xmlns="http://www.w3.org/2000/svg"><path d="M10.940 3.081 C 9.521 3.277,8.445 3.653,7.300 4.350 C 6.255 4.986,5.221 5.980,4.522 7.017 C 3.387 8.704,2.841 10.853,3.042 12.846 C 3.252 14.931,4.168 16.847,5.679 18.362 C 6.717 19.402,7.855 20.097,9.283 20.561 C 12.378 21.568,15.814 20.776,18.187 18.507 C 19.649 17.110,20.564 15.345,20.906 13.260 C 21.007 12.647,21.007 11.353,20.907 10.740 C 20.637 9.100,20.009 7.645,19.040 6.420 C 18.682 5.967,17.888 5.191,17.431 4.848 C 16.440 4.104,15.104 3.474,14.035 3.247 C 13.526 3.139,13.102 3.088,12.320 3.041 C 11.527 2.993,11.586 2.991,10.940 3.081 M16.198 6.699 C 16.735 6.971,16.826 7.739,16.374 8.168 C 16.232 8.302,15.937 8.438,15.785 8.439 C 15.428 8.442,15.078 8.189,14.905 7.803 C 14.779 7.523,14.850 7.554,13.805 7.335 C 13.440 7.259,13.078 7.202,13.001 7.208 L 12.860 7.220 12.750 7.700 C 12.535 8.637,12.287 9.900,12.313 9.925 C 12.328 9.938,12.525 9.970,12.752 9.995 C 13.798 10.110,14.666 10.389,15.465 10.867 L 15.750 11.038 16.065 10.875 C 16.374 10.714,16.386 10.712,16.720 10.729 C 17.102 10.748,17.295 10.826,17.564 11.068 C 17.895 11.367,18.021 11.775,17.943 12.293 C 17.907 12.531,17.649 12.927,17.426 13.084 L 17.252 13.207 17.225 13.674 C 17.210 13.930,17.175 14.230,17.145 14.340 C 17.037 14.748,16.715 15.274,16.341 15.654 C 14.803 17.217,11.808 17.697,9.433 16.760 C 8.428 16.364,7.624 15.725,7.181 14.972 C 6.943 14.568,6.848 14.244,6.807 13.694 L 6.773 13.248 6.515 12.993 C 6.372 12.853,6.214 12.651,6.163 12.546 C 6.079 12.373,6.072 12.313,6.088 11.947 C 6.109 11.482,6.156 11.362,6.419 11.098 C 6.656 10.862,6.874 10.759,7.198 10.732 C 7.530 10.704,7.812 10.767,8.060 10.924 L 8.244 11.041 8.512 10.885 C 9.433 10.350,10.160 10.116,11.277 9.995 C 11.518 9.969,11.737 9.934,11.763 9.918 C 11.789 9.902,11.933 9.324,12.082 8.634 C 12.422 7.060,12.509 6.712,12.571 6.672 C 12.633 6.631,12.740 6.647,13.846 6.863 C 14.345 6.960,14.783 7.040,14.820 7.040 C 14.857 7.040,14.961 6.977,15.052 6.899 C 15.142 6.822,15.307 6.713,15.418 6.659 C 15.661 6.538,15.906 6.551,16.198 6.699 M9.477 12.153 C 9.098 12.394,8.950 12.714,9.037 13.103 C 9.173 13.708,9.807 14.029,10.335 13.760 C 10.580 13.635,10.743 13.440,10.829 13.168 C 10.912 12.907,10.863 12.677,10.667 12.405 C 10.486 12.153,10.256 12.040,9.922 12.040 C 9.698 12.040,9.627 12.058,9.477 12.153 M13.660 12.114 C 13.469 12.231,13.277 12.445,13.190 12.637 C 12.979 13.103,13.322 13.694,13.892 13.846 C 14.157 13.917,14.467 13.815,14.703 13.580 C 15.302 12.980,14.896 12.040,14.037 12.040 C 13.858 12.040,13.744 12.063,13.660 12.114 M9.803 15.105 C 9.702 15.234,9.702 15.230,9.798 15.388 C 9.903 15.560,10.201 15.724,10.737 15.905 L 11.180 16.054 12.000 16.049 C 12.932 16.044,13.218 15.993,13.713 15.744 C 14.010 15.594,14.320 15.333,14.320 15.233 C 14.320 15.201,14.275 15.132,14.220 15.080 L 14.120 14.986 13.670 15.210 C 13.060 15.513,12.766 15.580,12.040 15.580 C 11.291 15.580,10.932 15.501,10.366 15.212 C 10.139 15.095,9.938 15.000,9.919 15.000 C 9.901 15.000,9.848 15.047,9.803 15.105 " fill="#373B4D" stroke="none" fill-rule="evenodd"></path></svg>