<svg width="24" height="24" viewBox="0 0 24 24" fill="none" xmlns="http://www.w3.org/2000/svg"><path d="M11.078 3.060 C 9.848 3.209,8.988 3.464,7.940 3.990 C 7.026 4.450,6.304 4.981,5.557 5.746 C 3.305 8.050,2.464 11.369,3.348 14.460 C 4.062 16.957,5.924 19.127,8.246 20.166 C 9.610 20.777,10.903 21.039,12.300 20.988 C 16.060 20.851,19.315 18.422,20.516 14.858 C 21.158 12.953,21.159 11.050,20.521 9.160 C 20.065 7.807,19.417 6.743,18.443 5.746 C 17.703 4.988,17.012 4.478,16.080 4.002 C 14.842 3.370,13.865 3.114,12.395 3.040 C 11.507 2.995,11.624 2.994,11.078 3.060 M16.015 6.617 C 16.119 6.648,16.268 6.722,16.346 6.782 C 16.519 6.914,16.679 7.241,16.680 7.463 C 16.681 7.862,16.411 8.254,16.051 8.377 C 15.818 8.456,15.702 8.456,15.469 8.377 C 15.156 8.270,14.929 7.991,14.820 7.579 C 14.815 7.557,14.443 7.463,13.995 7.371 C 12.772 7.118,12.893 7.125,12.844 7.306 C 12.759 7.622,12.322 9.668,12.311 9.801 L 12.300 9.939 12.758 9.987 C 13.775 10.094,14.724 10.402,15.489 10.873 L 15.759 11.039 15.949 10.927 C 16.054 10.865,16.176 10.801,16.220 10.785 C 16.838 10.550,17.554 10.835,17.859 11.437 C 17.945 11.608,17.960 11.691,17.960 12.000 C 17.960 12.307,17.945 12.393,17.860 12.560 C 17.739 12.800,17.559 13.009,17.382 13.119 L 17.250 13.201 17.230 13.690 C 17.206 14.289,17.125 14.567,16.833 15.040 C 16.357 15.814,15.491 16.460,14.426 16.836 C 13.504 17.161,12.756 17.265,11.640 17.223 C 10.884 17.194,10.459 17.117,9.753 16.881 C 8.501 16.462,7.571 15.746,7.104 14.840 C 6.875 14.397,6.842 14.273,6.803 13.704 L 6.770 13.228 6.543 13.029 C 6.418 12.919,6.263 12.737,6.198 12.625 C 6.091 12.438,6.081 12.386,6.080 12.045 C 6.080 11.524,6.128 11.388,6.418 11.097 C 6.711 10.803,6.918 10.720,7.357 10.721 C 7.670 10.722,7.877 10.787,8.122 10.961 L 8.238 11.044 8.609 10.827 C 9.011 10.592,9.391 10.417,9.800 10.279 C 10.165 10.157,10.988 10.001,11.425 9.973 C 11.765 9.950,11.796 9.941,11.817 9.858 C 11.829 9.808,11.930 9.339,12.042 8.814 C 12.328 7.463,12.483 6.792,12.528 6.706 C 12.579 6.610,12.736 6.628,13.872 6.864 C 14.340 6.961,14.773 7.040,14.834 7.040 C 14.912 7.040,14.972 7.003,15.036 6.917 C 15.137 6.780,15.561 6.560,15.724 6.560 C 15.781 6.560,15.912 6.585,16.015 6.617 M9.667 12.057 C 9.467 12.111,9.200 12.330,9.102 12.520 C 8.945 12.826,9.003 13.274,9.234 13.530 C 9.410 13.726,9.721 13.879,9.942 13.880 C 10.146 13.880,10.482 13.716,10.625 13.547 C 10.778 13.366,10.878 13.126,10.879 12.940 C 10.880 12.582,10.518 12.109,10.203 12.058 C 10.125 12.045,10.015 12.028,9.960 12.020 C 9.905 12.011,9.773 12.028,9.667 12.057 M13.760 12.050 C 13.683 12.076,13.529 12.187,13.419 12.298 C 13.039 12.678,13.024 13.131,13.375 13.547 C 13.518 13.716,13.854 13.880,14.058 13.880 C 14.279 13.879,14.590 13.726,14.766 13.530 C 14.997 13.274,15.055 12.827,14.898 12.520 C 14.830 12.387,14.612 12.185,14.445 12.101 C 14.274 12.015,13.941 11.990,13.760 12.050 M9.797 15.083 C 9.699 15.181,9.718 15.329,9.848 15.467 C 9.983 15.613,10.447 15.833,10.865 15.950 C 11.238 16.054,11.304 16.060,12.040 16.056 C 12.926 16.051,13.199 16.000,13.738 15.737 C 14.037 15.592,14.320 15.340,14.320 15.220 C 14.320 15.139,14.176 15.000,14.093 15.000 C 14.056 15.000,13.916 15.072,13.781 15.159 C 12.878 15.748,11.162 15.748,10.259 15.159 C 9.980 14.978,9.913 14.967,9.797 15.083 " fill="#373B4D" stroke="none" fill-rule="evenodd"></path></svg>