<svg width="24" height="24" viewBox="0 0 24 24" fill="none" xmlns="http://www.w3.org/2000/svg"><path d="M10.968 3.083 C 9.781 3.265,9.002 3.497,8.100 3.938 C 7.097 4.427,6.399 4.929,5.611 5.726 C 4.765 6.580,4.258 7.321,3.785 8.391 C 2.745 10.745,2.751 13.289,3.802 15.650 C 4.455 17.116,5.737 18.624,7.082 19.505 C 9.031 20.782,11.477 21.266,13.720 20.817 C 17.475 20.065,20.340 17.034,20.905 13.216 C 20.984 12.679,20.995 11.326,20.924 10.840 C 20.852 10.352,20.594 9.369,20.409 8.880 C 19.913 7.571,19.341 6.692,18.324 5.676 C 17.475 4.828,16.789 4.349,15.690 3.835 C 14.630 3.340,13.817 3.153,12.233 3.041 C 11.523 2.991,11.575 2.990,10.968 3.083 M16.239 6.740 C 16.327 6.795,16.449 6.916,16.510 7.008 C 16.608 7.156,16.620 7.211,16.619 7.497 C 16.617 7.778,16.603 7.840,16.513 7.972 C 16.287 8.304,15.885 8.489,15.576 8.405 C 15.360 8.346,15.064 8.081,14.911 7.811 C 14.838 7.681,14.747 7.577,14.684 7.553 C 14.565 7.506,13.386 7.260,13.129 7.228 C 13.013 7.214,12.941 7.225,12.903 7.263 C 12.819 7.347,12.450 8.958,12.339 9.726 C 12.307 9.949,12.260 9.927,13.010 10.041 C 13.956 10.184,14.699 10.435,15.441 10.863 L 15.759 11.046 16.076 10.875 L 16.394 10.703 16.757 10.749 C 17.336 10.822,17.618 11.013,17.835 11.480 C 17.917 11.657,17.937 11.763,17.939 12.020 C 17.940 12.422,17.843 12.636,17.497 12.987 L 17.254 13.234 17.205 13.740 C 17.144 14.365,17.064 14.631,16.815 15.030 C 16.434 15.642,15.573 16.353,14.840 16.662 C 14.443 16.830,13.840 17.016,13.440 17.096 C 10.790 17.620,8.019 16.607,7.087 14.774 C 6.963 14.530,6.846 14.072,6.819 13.725 C 6.784 13.275,6.779 13.263,6.516 12.973 C 6.150 12.569,6.099 12.451,6.104 12.019 C 6.109 11.563,6.165 11.394,6.396 11.146 C 6.666 10.856,6.897 10.761,7.333 10.760 C 7.650 10.760,7.715 10.774,7.979 10.896 L 8.273 11.031 8.406 10.950 C 8.718 10.761,9.406 10.440,9.743 10.327 C 10.153 10.190,10.501 10.114,11.140 10.020 C 11.777 9.927,11.751 9.939,11.815 9.724 C 11.869 9.541,12.046 8.794,12.341 7.500 C 12.505 6.783,12.551 6.680,12.711 6.680 C 12.771 6.680,13.272 6.763,13.825 6.865 L 14.831 7.049 15.077 6.882 C 15.213 6.790,15.390 6.689,15.472 6.658 C 15.686 6.576,16.039 6.613,16.239 6.740 M9.529 12.141 C 9.159 12.329,8.963 12.696,9.040 13.056 C 9.197 13.791,9.973 14.079,10.526 13.606 C 10.737 13.425,10.838 13.202,10.839 12.915 C 10.840 12.726,10.819 12.658,10.710 12.496 C 10.535 12.236,10.274 12.079,9.974 12.053 C 9.776 12.037,9.708 12.050,9.529 12.141 M13.745 12.096 C 13.448 12.207,13.119 12.650,13.120 12.938 C 13.121 13.272,13.482 13.710,13.844 13.818 C 14.240 13.935,14.685 13.710,14.900 13.284 C 15.010 13.065,14.970 12.650,14.818 12.434 C 14.601 12.124,14.097 11.966,13.745 12.096 M9.805 15.103 C 9.695 15.242,9.697 15.251,9.847 15.421 C 9.998 15.594,10.312 15.759,10.811 15.926 L 11.180 16.050 12.080 16.028 C 13.071 16.004,13.286 15.967,13.691 15.751 C 13.950 15.613,14.320 15.302,14.320 15.223 C 14.320 15.196,14.275 15.132,14.220 15.080 L 14.120 14.986 13.730 15.172 C 13.015 15.514,12.944 15.531,12.160 15.550 C 11.305 15.570,11.072 15.528,10.436 15.241 C 10.185 15.127,9.960 15.026,9.935 15.015 C 9.910 15.004,9.851 15.044,9.805 15.103 " fill="#373B4D" stroke="none" fill-rule="evenodd"></path></svg>