<svg width="24" height="24" viewBox="0 0 24 24" fill="none" xmlns="http://www.w3.org/2000/svg"><path d="M12.280 3.765 C 9.880 4.010,7.322 4.904,5.390 6.173 L 4.960 6.455 4.960 6.639 C 4.960 7.124,5.145 8.096,5.365 8.767 C 5.605 9.498,6.016 10.240,6.181 10.240 C 6.210 10.240,6.456 10.084,6.727 9.893 C 8.052 8.960,9.236 8.264,10.240 7.828 C 10.738 7.612,11.273 7.419,11.299 7.446 C 11.306 7.454,10.232 8.648,8.912 10.100 C 4.552 14.896,3.000 16.675,3.000 16.874 C 3.000 16.910,3.046 17.111,3.102 17.320 C 3.375 18.343,4.077 19.735,4.520 20.135 C 4.708 20.305,4.902 20.327,5.108 20.202 C 5.394 20.027,7.617 17.384,9.059 15.504 L 9.455 14.987 9.529 15.504 C 9.739 16.981,10.226 18.092,11.028 18.924 C 11.564 19.480,12.062 19.776,12.812 19.985 C 13.352 20.135,14.270 20.162,14.940 20.046 C 16.189 19.831,17.255 19.281,18.220 18.353 C 18.758 17.836,19.060 17.473,19.463 16.860 C 20.003 16.038,20.398 15.201,20.763 14.104 C 21.063 13.204,21.063 13.041,20.758 12.785 C 20.612 12.662,20.315 12.640,20.169 12.742 C 20.121 12.776,19.860 13.078,19.591 13.412 C 18.077 15.291,16.892 16.046,15.214 16.202 C 13.664 16.346,12.532 15.729,11.878 14.382 C 11.658 13.927,11.543 13.551,11.459 13.000 C 11.369 12.416,11.376 12.385,11.539 12.656 C 11.934 13.311,12.350 13.710,12.940 13.998 C 13.507 14.276,13.782 14.337,14.460 14.338 C 15.238 14.339,15.851 14.201,16.593 13.858 C 17.412 13.479,18.262 12.729,18.810 11.900 C 19.135 11.409,19.299 11.073,19.480 10.525 C 19.754 9.696,19.825 8.930,19.702 8.120 C 19.338 5.722,17.540 4.135,14.788 3.781 C 14.270 3.714,12.866 3.706,12.280 3.765 M15.134 7.223 C 15.802 7.394,16.332 7.790,16.590 8.312 C 16.739 8.613,16.740 8.620,16.739 9.098 C 16.738 9.520,16.725 9.609,16.639 9.810 C 16.356 10.467,15.791 10.922,14.960 11.161 C 14.531 11.285,13.766 11.313,13.317 11.222 C 12.984 11.154,12.422 10.947,12.377 10.875 C 12.365 10.855,12.694 10.312,13.110 9.669 C 13.526 9.026,14.060 8.199,14.297 7.830 C 14.620 7.328,14.747 7.160,14.808 7.160 C 14.852 7.160,14.999 7.188,15.134 7.223 " fill="#414146" stroke="none" fill-rule="evenodd"></path></svg>