<svg width="24" height="24" viewBox="0 0 24 24" fill="none" xmlns="http://www.w3.org/2000/svg">
<g clip-path="url(#clip0_16354_3404)">
<path d="M20.0331 12.8591C18.788 14.4279 17.4433 16.2209 14.7538 16.2209C12.3515 16.2209 11.4566 14.102 11.3937 12.3806C11.92 13.4936 12.949 14.3949 14.5546 14.3532C17.6425 14.2536 19.7592 11.4645 19.7592 8.92452C19.7592 5.88646 17.4931 3.69507 13.5585 3.69507C10.7446 3.69507 7.25827 4.76586 4.96727 6.45921C4.94237 8.20236 5.91355 10.4685 6.26218 10.2194C8.24833 8.7914 9.82327 7.87214 11.3508 7.41121C9.0896 9.93279 3.66426 15.7878 3 16.8185C3.07471 17.7648 4.24511 20.3048 4.81786 20.3048C4.99217 20.3048 5.14159 20.2052 5.3159 20.0309C6.95152 18.1931 8.28485 16.5455 9.47082 14.9573C9.63735 17.2849 10.7819 20.1305 13.9819 20.1305C16.8456 20.1305 19.6844 18.0636 20.9794 13.4069C21.1288 12.8342 20.4315 12.3859 20.0331 12.8591ZM16.7709 9.09884C16.7709 10.5681 15.3266 11.2902 14.0068 11.2902C13.3013 11.2902 12.7593 11.105 12.3307 10.8643C13.1193 9.67015 13.9 8.44569 14.7387 7.1349C16.2175 7.3852 16.7709 8.20721 16.7709 9.09884Z" fill="#414146"/>
</g>
<defs>
<clipPath id="clip0_16354_3404">
<rect width="18" height="16.6097" fill="white" transform="translate(3 3.69507)"/>
</clipPath>
</defs>
</svg>
