<svg width="24" height="24" viewBox="0 0 24 24" fill="none" xmlns="http://www.w3.org/2000/svg"><path d="M4.454 2.516 C 4.142 2.596,3.716 3.002,3.635 3.294 C 3.602 3.415,3.595 4.324,3.611 6.662 C 3.629 9.404,3.641 9.885,3.693 10.010 C 3.767 10.187,4.026 10.474,4.281 10.661 L 4.471 10.800 7.807 10.800 L 11.144 10.800 11.379 10.610 C 11.680 10.366,11.862 10.099,11.921 9.815 C 12.025 9.312,11.839 8.908,11.363 8.602 L 11.167 8.476 9.734 8.439 C 8.015 8.395,7.432 8.365,7.357 8.317 C 7.279 8.267,8.062 7.506,8.542 7.166 C 8.970 6.862,9.691 6.502,10.313 6.281 L 10.767 6.120 11.753 6.120 C 13.328 6.121,13.630 6.180,14.633 6.683 C 15.261 6.998,15.745 7.347,16.236 7.839 C 16.626 8.228,16.912 8.632,17.420 9.507 C 18.043 10.583,18.215 10.738,18.780 10.739 C 19.061 10.740,19.126 10.725,19.315 10.621 C 19.560 10.485,19.760 10.260,19.884 9.980 C 20.042 9.624,19.950 9.214,19.521 8.345 C 18.708 6.701,17.376 5.362,15.732 4.541 C 14.582 3.966,13.679 3.748,12.220 3.693 C 10.112 3.614,8.470 4.180,6.553 5.649 C 6.292 5.848,6.072 6.005,6.064 5.996 C 6.056 5.987,6.030 5.374,6.007 4.634 C 5.973 3.509,5.955 3.266,5.899 3.158 C 5.807 2.979,5.491 2.672,5.314 2.589 C 5.147 2.510,4.642 2.467,4.454 2.516 M4.807 13.317 C 4.502 13.395,4.168 13.810,4.075 14.228 C 4.034 14.412,4.036 14.489,4.091 14.719 C 4.232 15.306,4.684 16.166,5.251 16.927 C 6.630 18.778,8.655 19.986,10.904 20.302 C 11.430 20.376,12.707 20.363,13.280 20.278 C 14.708 20.065,16.157 19.399,17.435 18.368 C 17.686 18.165,17.905 18.000,17.921 18.000 C 17.956 18.000,17.987 18.568,18.023 19.859 C 18.040 20.495,18.063 20.768,18.103 20.847 C 18.197 21.027,18.556 21.352,18.786 21.465 C 18.975 21.557,19.037 21.568,19.281 21.551 C 19.604 21.527,19.752 21.446,20.097 21.101 C 20.242 20.957,20.324 20.838,20.340 20.751 C 20.353 20.679,20.358 19.132,20.352 17.314 L 20.340 14.008 20.215 13.834 C 20.146 13.738,19.997 13.583,19.884 13.490 L 19.677 13.320 16.237 13.320 C 13.437 13.320,12.774 13.330,12.669 13.374 C 12.508 13.442,12.214 13.758,12.134 13.948 C 12.101 14.026,12.064 14.211,12.052 14.358 C 12.034 14.575,12.045 14.660,12.113 14.813 C 12.215 15.045,12.573 15.431,12.760 15.511 C 12.903 15.573,13.592 15.608,15.769 15.665 C 16.832 15.693,16.793 15.656,16.284 16.152 C 15.643 16.776,15.174 17.098,14.400 17.445 C 13.916 17.661,13.452 17.815,13.080 17.884 C 12.739 17.946,11.349 17.945,10.940 17.882 C 10.016 17.738,8.846 17.163,8.118 16.495 C 7.449 15.882,7.131 15.465,6.537 14.423 C 6.184 13.804,5.918 13.480,5.684 13.386 C 5.495 13.311,4.990 13.271,4.807 13.317 " fill="#373B4D" stroke="none" fill-rule="evenodd"></path></svg>