<svg width="24" height="24" viewBox="0 0 24 24" fill="none" xmlns="http://www.w3.org/2000/svg"><path d="M4.072 2.779 C 3.947 2.877,3.794 3.043,3.732 3.149 L 3.620 3.340 3.607 5.597 C 3.593 8.200,3.640 9.786,3.739 10.025 C 3.774 10.110,3.942 10.320,4.111 10.490 L 4.418 10.800 7.806 10.800 L 11.194 10.800 11.433 10.535 C 11.846 10.077,11.987 9.684,11.878 9.290 C 11.837 9.140,11.763 9.036,11.523 8.796 L 11.220 8.492 10.040 8.466 C 8.468 8.431,7.556 8.372,7.485 8.302 C 7.438 8.255,7.443 8.228,7.520 8.120 C 7.632 7.962,8.270 7.403,8.551 7.215 C 8.878 6.997,9.735 6.539,10.199 6.335 L 10.620 6.151 11.720 6.172 C 13.374 6.204,13.689 6.263,14.568 6.704 C 15.724 7.284,16.270 7.804,17.249 9.258 C 18.149 10.596,18.320 10.750,18.860 10.709 C 19.172 10.685,19.257 10.654,19.483 10.476 C 19.976 10.090,20.028 9.557,19.659 8.682 C 18.859 6.786,16.930 4.968,14.951 4.243 C 13.863 3.845,12.436 3.657,11.235 3.754 C 9.666 3.881,8.590 4.306,6.747 5.527 C 6.421 5.743,6.141 5.920,6.125 5.920 C 6.108 5.920,6.072 5.529,6.045 5.050 C 5.946 3.341,5.913 3.163,5.637 2.887 C 5.396 2.645,5.257 2.600,4.752 2.600 L 4.300 2.600 4.072 2.779 M4.698 13.395 C 4.519 13.504,4.285 13.788,4.167 14.040 C 4.012 14.371,4.027 14.569,4.250 15.115 C 4.652 16.101,5.266 16.998,6.115 17.842 C 7.163 18.884,8.153 19.488,9.607 19.974 C 10.523 20.280,10.602 20.289,12.168 20.271 C 13.708 20.253,13.636 20.264,14.711 19.874 C 15.462 19.602,16.006 19.307,17.456 18.386 C 17.652 18.262,17.827 18.160,17.844 18.160 C 17.894 18.160,17.916 18.348,17.981 19.360 C 18.074 20.794,18.107 20.907,18.529 21.253 C 19.041 21.673,19.500 21.621,20.045 21.082 L 20.310 20.820 20.335 20.120 C 20.349 19.735,20.360 18.196,20.360 16.699 L 20.360 13.978 20.023 13.643 L 19.686 13.307 17.233 13.336 C 13.791 13.377,12.729 13.413,12.572 13.494 C 12.420 13.573,12.206 13.836,12.136 14.033 C 12.064 14.235,12.066 14.659,12.140 14.815 C 12.239 15.022,12.547 15.347,12.731 15.436 C 12.967 15.550,13.314 15.589,14.700 15.659 C 16.135 15.730,16.474 15.758,16.503 15.805 C 16.537 15.860,16.388 16.032,16.028 16.353 C 15.368 16.941,14.658 17.345,13.582 17.741 L 13.063 17.932 12.102 17.907 C 10.997 17.877,10.746 17.847,10.232 17.681 C 9.391 17.409,8.589 16.913,7.940 16.261 C 7.517 15.837,7.338 15.604,6.493 14.376 C 5.907 13.525,5.801 13.438,5.265 13.363 C 4.858 13.307,4.841 13.308,4.698 13.395 " fill="#373B4D" stroke="none" fill-rule="evenodd"></path></svg>