<svg width="24" height="24" viewBox="0 0 24 24" fill="none" xmlns="http://www.w3.org/2000/svg"><path d="M4.260 2.633 C 4.054 2.730,3.787 2.998,3.683 3.215 C 3.602 3.381,3.600 3.442,3.603 5.503 C 3.608 8.221,3.648 9.913,3.710 10.024 C 3.792 10.172,4.043 10.455,4.248 10.630 L 4.447 10.800 7.812 10.800 L 11.177 10.800 11.450 10.520 C 12.093 9.864,12.095 9.231,11.456 8.704 L 11.200 8.493 10.090 8.467 C 8.979 8.440,7.699 8.376,7.530 8.339 C 7.383 8.306,7.424 8.185,7.670 7.932 C 8.219 7.368,8.920 6.908,9.920 6.459 C 10.714 6.102,10.665 6.111,11.660 6.140 C 12.784 6.172,13.346 6.222,13.711 6.321 C 14.056 6.415,14.859 6.809,15.280 7.091 C 16.150 7.673,16.562 8.146,17.500 9.635 C 17.863 10.210,18.220 10.614,18.428 10.683 C 18.511 10.710,18.699 10.722,18.878 10.712 C 19.141 10.697,19.211 10.676,19.369 10.567 C 19.920 10.188,20.041 9.754,19.798 9.026 C 19.327 7.616,17.990 5.976,16.540 5.031 C 15.197 4.155,13.667 3.721,11.920 3.720 C 10.618 3.720,9.597 3.943,8.526 4.461 C 7.874 4.777,7.515 4.991,6.726 5.538 C 6.392 5.770,6.112 5.960,6.104 5.960 C 6.085 5.960,6.047 5.398,5.999 4.400 C 5.976 3.927,5.940 3.451,5.918 3.343 C 5.869 3.100,5.667 2.843,5.408 2.691 C 5.244 2.595,5.173 2.580,4.821 2.569 C 4.494 2.559,4.390 2.571,4.260 2.633 M4.608 13.448 C 4.249 13.734,4.005 14.227,4.063 14.548 C 4.178 15.182,4.750 16.260,5.410 17.090 C 6.594 18.578,8.129 19.587,9.980 20.096 C 10.698 20.293,10.764 20.300,12.020 20.300 C 13.352 20.300,13.495 20.282,14.340 20.011 C 15.350 19.687,16.215 19.240,17.242 18.512 C 17.587 18.267,17.869 18.093,17.889 18.113 C 17.908 18.132,17.941 18.488,17.963 18.904 C 18.029 20.183,18.071 20.662,18.131 20.804 C 18.163 20.879,18.285 21.035,18.404 21.151 C 18.954 21.688,19.462 21.685,20.001 21.142 C 20.141 21.001,20.275 20.843,20.298 20.792 C 20.326 20.731,20.344 19.557,20.352 17.343 L 20.363 13.985 20.033 13.653 L 19.702 13.320 18.361 13.321 C 16.116 13.324,12.749 13.391,12.632 13.436 C 12.448 13.505,12.216 13.773,12.136 14.005 C 12.047 14.268,12.046 14.659,12.135 14.830 C 12.243 15.038,12.630 15.428,12.797 15.494 C 12.966 15.562,13.625 15.611,15.300 15.680 C 16.408 15.726,16.560 15.742,16.560 15.812 C 16.560 15.870,16.045 16.367,15.675 16.666 C 15.185 17.063,14.429 17.450,13.531 17.763 L 13.060 17.928 12.040 17.907 C 10.908 17.884,10.610 17.842,10.039 17.622 C 9.060 17.244,8.241 16.681,7.595 15.940 C 7.461 15.786,7.075 15.243,6.738 14.733 C 6.401 14.223,6.047 13.726,5.952 13.627 C 5.755 13.422,5.625 13.377,5.120 13.338 L 4.780 13.312 4.608 13.448 " fill="#373B4D" stroke="none" fill-rule="evenodd"></path></svg>