<svg width="24" height="24" viewBox="0 0 24 24" fill="none" xmlns="http://www.w3.org/2000/svg"><path d="M4.323 2.580 C 4.098 2.682,3.845 2.914,3.719 3.134 L 3.601 3.340 3.605 5.120 C 3.607 6.099,3.621 7.585,3.635 8.423 L 3.660 9.946 3.781 10.142 C 3.848 10.250,4.026 10.442,4.177 10.569 L 4.452 10.800 7.796 10.800 L 11.141 10.800 11.359 10.621 C 11.645 10.386,11.862 10.060,11.921 9.776 C 12.015 9.322,11.822 8.932,11.341 8.601 L 11.180 8.490 10.180 8.463 C 8.856 8.427,7.541 8.365,7.463 8.336 C 7.375 8.302,7.384 8.248,7.503 8.092 C 7.641 7.911,8.394 7.268,8.697 7.072 C 9.026 6.859,9.891 6.441,10.380 6.259 L 10.780 6.110 11.857 6.137 C 13.471 6.178,13.678 6.218,14.560 6.662 C 15.099 6.933,15.434 7.152,15.837 7.497 C 16.435 8.009,16.765 8.427,17.400 9.477 C 17.844 10.212,18.136 10.577,18.348 10.666 C 18.422 10.697,18.621 10.720,18.811 10.720 C 19.108 10.720,19.163 10.708,19.322 10.607 C 19.526 10.477,19.763 10.226,19.865 10.032 C 19.973 9.829,19.953 9.410,19.819 9.040 C 19.271 7.531,17.971 5.931,16.560 5.031 C 15.882 4.599,15.030 4.199,14.410 4.021 C 13.237 3.686,11.504 3.609,10.305 3.841 C 9.116 4.070,7.949 4.635,6.535 5.665 C 6.312 5.827,6.120 5.960,6.107 5.960 C 6.067 5.960,6.043 5.634,6.000 4.510 C 5.977 3.899,5.947 3.344,5.933 3.276 C 5.903 3.125,5.532 2.714,5.346 2.626 C 5.145 2.530,4.496 2.501,4.323 2.580 M4.614 13.433 C 4.330 13.641,4.098 14.015,4.054 14.336 C 4.021 14.581,4.146 14.979,4.460 15.620 C 4.897 16.515,5.433 17.237,6.233 18.006 C 7.316 19.047,8.627 19.769,10.101 20.135 C 10.792 20.307,11.091 20.338,12.020 20.336 C 13.007 20.333,13.459 20.279,14.153 20.078 C 15.303 19.746,16.341 19.207,17.428 18.378 C 17.918 18.004,17.911 18.006,17.937 18.210 C 17.950 18.303,17.979 18.866,18.002 19.460 C 18.025 20.054,18.059 20.608,18.078 20.691 C 18.126 20.904,18.205 21.010,18.501 21.253 C 18.874 21.561,19.110 21.618,19.516 21.497 C 19.684 21.448,19.786 21.377,20.017 21.147 C 20.279 20.888,20.311 20.841,20.334 20.664 C 20.348 20.557,20.360 19.012,20.360 17.231 L 20.360 13.993 20.024 13.651 L 19.688 13.310 16.294 13.333 C 14.367 13.346,12.822 13.372,12.720 13.394 C 12.511 13.439,12.281 13.665,12.146 13.960 C 12.036 14.198,12.030 14.639,12.132 14.845 C 12.218 15.018,12.598 15.417,12.751 15.495 C 12.883 15.562,13.277 15.589,15.113 15.658 C 16.045 15.692,16.542 15.726,16.572 15.756 C 16.605 15.789,16.546 15.873,16.338 16.084 C 15.564 16.871,14.761 17.357,13.600 17.743 L 13.140 17.896 12.351 17.912 C 11.280 17.933,10.768 17.882,10.260 17.705 C 9.467 17.429,8.917 17.132,8.339 16.667 C 7.710 16.161,7.296 15.659,6.678 14.655 C 5.926 13.430,5.857 13.369,5.193 13.333 C 4.781 13.311,4.780 13.311,4.614 13.433 " fill="#373B4D" stroke="none" fill-rule="evenodd"></path></svg>