<svg width="24" height="24" viewBox="0 0 24 24" fill="none" xmlns="http://www.w3.org/2000/svg"><path d="M4.344 2.537 C 4.156 2.607,3.785 2.960,3.673 3.175 C 3.595 3.327,3.594 3.387,3.611 6.575 C 3.623 8.689,3.644 9.874,3.672 9.976 C 3.718 10.146,4.023 10.486,4.307 10.683 L 4.474 10.800 7.801 10.800 L 11.128 10.800 11.254 10.714 C 11.488 10.554,11.726 10.301,11.833 10.100 C 11.975 9.831,11.985 9.347,11.853 9.098 C 11.746 8.897,11.554 8.705,11.326 8.570 L 11.151 8.467 9.726 8.433 C 7.682 8.383,7.320 8.363,7.320 8.299 C 7.320 8.227,7.907 7.651,8.291 7.348 C 8.876 6.885,9.539 6.539,10.385 6.256 L 10.790 6.120 11.917 6.120 C 13.221 6.120,13.416 6.147,14.100 6.426 C 14.948 6.772,15.590 7.190,16.205 7.799 C 16.675 8.264,16.893 8.573,17.460 9.577 C 17.894 10.346,18.121 10.613,18.411 10.700 C 19.038 10.886,19.588 10.626,19.870 10.010 C 19.954 9.826,19.967 9.750,19.949 9.545 C 19.922 9.222,19.845 9.005,19.540 8.380 C 19.061 7.402,18.662 6.855,17.802 6.000 C 16.801 5.004,15.369 4.213,13.975 3.886 C 13.171 3.697,11.857 3.626,10.968 3.722 C 9.383 3.895,7.995 4.501,6.544 5.653 C 6.304 5.844,6.092 6.000,6.074 6.000 C 6.055 6.000,6.039 5.950,6.037 5.890 C 5.973 3.287,5.974 3.301,5.904 3.168 C 5.801 2.969,5.569 2.729,5.366 2.610 C 5.216 2.522,5.127 2.502,4.843 2.491 C 4.614 2.483,4.448 2.498,4.344 2.537 M4.734 13.335 C 4.383 13.495,4.095 13.921,4.051 14.346 C 3.992 14.913,4.669 16.249,5.555 17.318 C 6.954 19.005,8.952 20.091,11.088 20.325 C 11.755 20.398,12.993 20.347,13.591 20.222 C 15.136 19.898,16.461 19.234,17.651 18.188 C 17.801 18.057,17.935 17.962,17.951 17.978 C 17.967 17.993,17.994 18.621,18.011 19.373 L 18.043 20.740 18.153 20.919 C 18.287 21.139,18.667 21.451,18.875 21.514 C 19.089 21.578,19.415 21.571,19.587 21.499 C 19.792 21.414,20.239 21.011,20.315 20.842 C 20.373 20.715,20.379 20.361,20.372 17.392 C 20.366 14.585,20.356 14.068,20.306 13.972 C 20.217 13.800,19.935 13.496,19.769 13.393 L 19.620 13.300 16.300 13.300 C 14.474 13.300,12.892 13.315,12.785 13.333 C 12.629 13.360,12.556 13.402,12.413 13.549 C 12.165 13.805,12.077 13.997,12.051 14.343 C 12.031 14.608,12.040 14.658,12.142 14.868 C 12.204 14.996,12.339 15.181,12.441 15.281 C 12.768 15.599,12.708 15.590,14.791 15.632 C 15.809 15.652,16.653 15.680,16.666 15.692 C 16.738 15.765,15.847 16.607,15.333 16.952 C 15.008 17.170,14.210 17.556,13.800 17.694 C 13.190 17.898,12.883 17.940,12.000 17.938 C 10.817 17.936,10.298 17.815,9.307 17.311 C 8.713 17.009,8.283 16.693,7.803 16.204 C 7.304 15.695,7.052 15.347,6.620 14.567 C 6.013 13.471,5.839 13.315,5.201 13.291 C 4.967 13.282,4.821 13.296,4.734 13.335 " fill="#373B4D" stroke="none" fill-rule="evenodd"></path></svg>