<svg width="24" height="24" viewBox="0 0 24 24" fill="none" xmlns="http://www.w3.org/2000/svg"><path d="M4.266 2.565 C 4.060 2.673,3.786 2.953,3.679 3.163 L 3.592 3.333 3.607 6.636 C 3.624 10.338,3.598 10.025,3.928 10.366 C 4.023 10.463,4.184 10.600,4.287 10.671 L 4.474 10.800 7.800 10.800 L 11.126 10.800 11.309 10.674 C 11.743 10.375,11.960 10.012,11.960 9.584 C 11.960 9.177,11.791 8.874,11.422 8.620 C 11.163 8.441,11.222 8.447,8.971 8.406 C 7.850 8.386,7.347 8.363,7.315 8.331 C 7.226 8.242,8.350 7.230,8.888 6.915 C 9.298 6.674,9.951 6.389,10.442 6.234 L 10.860 6.103 11.940 6.102 C 13.161 6.100,13.348 6.126,14.060 6.403 C 15.221 6.855,16.259 7.652,16.852 8.547 C 16.995 8.763,17.260 9.210,17.441 9.540 C 17.961 10.490,18.082 10.621,18.546 10.740 C 18.949 10.843,19.322 10.720,19.635 10.381 C 19.970 10.017,20.040 9.649,19.872 9.131 C 19.712 8.638,19.147 7.573,18.799 7.110 C 18.415 6.600,17.708 5.854,17.284 5.512 C 16.401 4.800,15.207 4.195,14.139 3.920 C 12.862 3.591,11.144 3.584,9.887 3.902 C 8.714 4.200,7.517 4.830,6.507 5.682 C 6.269 5.883,6.062 6.035,6.047 6.020 C 6.032 6.006,6.011 5.387,6.000 4.647 C 5.981 3.362,5.976 3.293,5.893 3.138 C 5.777 2.921,5.514 2.664,5.305 2.563 C 5.065 2.446,4.488 2.447,4.266 2.565 M4.916 13.277 C 4.677 13.325,4.404 13.511,4.275 13.714 C 4.140 13.927,4.040 14.232,4.040 14.431 C 4.040 14.933,4.581 16.054,5.257 16.951 C 6.649 18.799,8.636 19.991,10.834 20.297 C 11.411 20.378,12.532 20.379,13.137 20.300 C 14.692 20.096,16.364 19.328,17.569 18.264 C 17.783 18.075,17.965 17.920,17.973 17.920 C 17.981 17.920,17.999 18.537,18.014 19.290 C 18.028 20.043,18.051 20.711,18.065 20.773 C 18.102 20.939,18.491 21.338,18.730 21.457 C 18.891 21.538,18.996 21.560,19.212 21.560 C 19.561 21.560,19.706 21.492,20.022 21.181 C 20.451 20.760,20.415 21.131,20.387 17.401 C 20.373 15.607,20.350 14.089,20.335 14.026 C 20.302 13.879,19.860 13.405,19.691 13.334 C 19.587 13.290,18.931 13.280,16.200 13.280 C 12.451 13.280,12.696 13.262,12.391 13.567 C 12.154 13.805,12.067 14.003,12.047 14.347 C 12.034 14.590,12.047 14.668,12.131 14.852 C 12.259 15.130,12.464 15.357,12.708 15.488 L 12.900 15.592 14.766 15.621 C 15.792 15.637,16.656 15.665,16.686 15.684 C 16.755 15.727,16.017 16.451,15.523 16.824 C 15.095 17.147,14.370 17.508,13.730 17.719 C 13.123 17.918,12.544 17.981,11.640 17.947 C 10.789 17.914,10.236 17.773,9.420 17.378 C 8.678 17.020,8.153 16.615,7.539 15.929 C 7.131 15.474,7.025 15.315,6.575 14.485 C 6.173 13.744,5.970 13.488,5.691 13.370 C 5.470 13.277,5.124 13.235,4.916 13.277 " fill="#373B4D" stroke="none" fill-rule="evenodd"></path></svg>