<svg width="24" height="24" viewBox="0 0 24 24" fill="none" xmlns="http://www.w3.org/2000/svg"><path d="M4.114 2.748 C 3.896 2.926,3.758 3.087,3.661 3.277 C 3.595 3.405,3.592 3.605,3.613 6.377 C 3.625 8.007,3.653 9.489,3.675 9.670 C 3.720 10.046,3.761 10.119,4.155 10.530 L 4.413 10.800 7.803 10.800 L 11.194 10.800 11.418 10.550 C 11.735 10.197,11.901 9.849,11.898 9.541 C 11.895 9.241,11.832 9.118,11.500 8.766 L 11.242 8.493 9.980 8.465 C 8.775 8.439,7.772 8.385,7.573 8.335 C 7.404 8.292,7.460 8.159,7.768 7.867 C 8.361 7.305,9.142 6.812,10.167 6.353 L 10.599 6.160 11.089 6.161 C 11.920 6.162,13.165 6.234,13.465 6.297 C 13.964 6.402,14.458 6.616,15.119 7.013 C 15.905 7.485,16.350 7.960,17.300 9.338 C 18.086 10.480,18.337 10.717,18.763 10.719 C 19.078 10.721,19.336 10.618,19.556 10.404 C 19.813 10.154,19.889 9.974,19.889 9.620 C 19.889 9.137,19.560 8.331,19.052 7.570 C 17.915 5.867,16.142 4.541,14.359 4.061 C 13.505 3.831,12.253 3.691,11.500 3.740 C 9.748 3.855,8.754 4.227,6.782 5.505 C 6.167 5.904,6.140 5.917,6.116 5.828 C 6.102 5.776,6.069 5.375,6.044 4.937 C 5.955 3.432,5.898 3.151,5.632 2.895 C 5.374 2.647,5.312 2.626,4.780 2.610 L 4.300 2.595 4.114 2.748 M4.653 13.435 C 4.471 13.567,4.239 13.868,4.144 14.095 C 4.005 14.429,4.105 14.873,4.492 15.640 C 5.331 17.304,6.937 18.845,8.602 19.583 C 9.182 19.840,10.117 20.152,10.515 20.221 C 10.918 20.292,12.663 20.302,13.340 20.238 C 13.812 20.194,14.230 20.071,15.060 19.733 C 15.579 19.521,16.035 19.271,17.038 18.649 C 17.443 18.398,17.796 18.183,17.823 18.173 C 17.885 18.150,17.905 18.304,17.980 19.380 C 18.074 20.722,18.119 20.892,18.462 21.193 C 19.001 21.668,19.457 21.630,20.068 21.062 L 20.340 20.810 20.354 17.399 L 20.367 13.989 20.034 13.651 L 19.700 13.312 17.400 13.338 C 14.967 13.366,12.903 13.421,12.681 13.466 C 12.522 13.498,12.287 13.721,12.181 13.941 C 12.087 14.137,12.055 14.543,12.119 14.736 C 12.196 14.970,12.493 15.301,12.730 15.416 C 13.009 15.553,13.282 15.584,14.973 15.679 C 15.761 15.723,16.436 15.777,16.473 15.798 C 16.530 15.831,16.481 15.894,16.160 16.208 C 15.473 16.879,14.807 17.274,13.571 17.743 L 13.103 17.920 12.522 17.919 C 11.686 17.919,10.867 17.854,10.516 17.762 C 9.580 17.516,8.717 17.012,7.965 16.270 C 7.575 15.886,7.292 15.529,6.719 14.700 C 5.921 13.545,5.842 13.469,5.330 13.378 C 4.893 13.300,4.832 13.305,4.653 13.435 " fill="#373B4D" stroke="none" fill-rule="evenodd"></path></svg>