<svg width="24" height="24" viewBox="0 0 24 24" fill="none" xmlns="http://www.w3.org/2000/svg"><path d="M4.478 2.559 C 4.182 2.596,3.850 2.872,3.660 3.240 C 3.591 3.373,3.589 3.540,3.614 6.631 C 3.639 9.755,3.643 9.889,3.718 10.031 C 3.814 10.214,3.999 10.423,4.252 10.637 L 4.445 10.800 7.801 10.800 L 11.157 10.800 11.411 10.563 C 12.132 9.888,12.115 9.174,11.364 8.623 L 11.169 8.480 10.715 8.479 C 9.749 8.477,7.520 8.370,7.441 8.321 C 7.316 8.243,7.750 7.788,8.480 7.231 C 8.777 7.004,9.897 6.434,10.424 6.242 L 10.780 6.112 11.760 6.139 C 13.378 6.182,13.665 6.232,14.420 6.599 C 14.989 6.875,15.424 7.153,15.855 7.515 C 16.401 7.974,16.722 8.390,17.563 9.734 C 17.918 10.300,18.241 10.655,18.435 10.693 C 18.663 10.738,19.076 10.723,19.211 10.665 C 19.394 10.586,19.651 10.352,19.796 10.133 C 19.907 9.966,19.920 9.914,19.920 9.650 C 19.920 9.283,19.803 8.916,19.494 8.313 C 18.783 6.922,17.617 5.665,16.315 4.886 C 14.933 4.059,13.648 3.720,11.891 3.720 C 9.950 3.720,8.607 4.197,6.666 5.575 C 6.368 5.787,6.116 5.960,6.107 5.960 C 6.076 5.960,6.042 5.480,5.996 4.400 C 5.968 3.733,5.933 3.295,5.901 3.220 C 5.822 3.031,5.536 2.734,5.350 2.647 C 5.167 2.562,4.772 2.522,4.478 2.559 M4.595 13.454 C 4.376 13.622,4.189 13.891,4.096 14.173 C 4.009 14.433,4.056 14.694,4.286 15.240 C 5.018 16.970,6.567 18.602,8.302 19.470 C 8.995 19.817,9.942 20.131,10.687 20.262 C 11.137 20.341,12.673 20.352,13.200 20.281 C 13.930 20.182,14.776 19.912,15.580 19.520 C 16.226 19.206,16.663 18.938,17.346 18.437 C 17.614 18.240,17.851 18.080,17.874 18.080 C 17.929 18.080,17.953 18.338,18.001 19.480 C 18.056 20.788,18.067 20.838,18.368 21.127 C 18.698 21.446,18.977 21.578,19.259 21.549 C 19.556 21.518,19.722 21.430,20.017 21.144 C 20.195 20.972,20.284 20.851,20.315 20.739 C 20.346 20.629,20.360 19.569,20.360 17.279 L 20.360 13.978 20.029 13.649 L 19.698 13.320 18.139 13.323 C 17.282 13.324,15.705 13.339,14.636 13.356 C 12.732 13.385,12.689 13.388,12.550 13.474 C 12.183 13.700,11.985 14.202,12.080 14.661 C 12.119 14.847,12.165 14.920,12.406 15.178 C 12.609 15.395,12.727 15.489,12.833 15.517 C 13.043 15.571,13.400 15.595,15.000 15.662 C 15.781 15.695,16.451 15.731,16.490 15.743 C 16.529 15.756,16.560 15.787,16.560 15.813 C 16.561 15.893,15.834 16.567,15.458 16.834 C 15.003 17.157,14.290 17.506,13.600 17.742 L 13.060 17.927 12.000 17.907 C 10.789 17.885,10.600 17.853,9.828 17.537 C 9.063 17.224,8.462 16.825,7.876 16.242 C 7.459 15.827,7.205 15.486,6.610 14.543 C 6.143 13.802,5.919 13.527,5.702 13.424 C 5.634 13.391,5.399 13.353,5.179 13.338 L 4.780 13.311 4.595 13.454 " fill="#373B4D" stroke="none" fill-rule="evenodd"></path></svg>