<svg width="24" height="24" viewBox="0 0 24 24" fill="none" xmlns="http://www.w3.org/2000/svg"><path d="M4.540 2.435 C 4.176 2.530,3.886 2.758,3.733 3.071 L 3.620 3.300 3.620 6.600 L 3.620 9.900 3.713 10.088 C 3.831 10.327,4.073 10.569,4.312 10.687 L 4.500 10.780 7.800 10.780 L 11.100 10.780 11.288 10.687 C 12.192 10.242,12.230 9.031,11.354 8.558 L 11.100 8.421 9.170 8.406 C 8.108 8.398,7.240 8.380,7.240 8.366 C 7.240 8.352,7.355 8.207,7.495 8.045 C 8.325 7.085,9.541 6.393,10.880 6.119 C 11.257 6.041,11.388 6.035,12.160 6.052 C 12.926 6.070,13.064 6.083,13.420 6.178 C 14.552 6.479,15.510 7.030,16.284 7.826 C 16.844 8.402,17.223 8.986,17.603 9.854 C 17.716 10.113,17.831 10.306,17.938 10.416 C 18.261 10.748,18.705 10.868,19.139 10.742 C 19.471 10.646,19.791 10.323,19.913 9.962 C 19.961 9.820,20.000 9.656,20.000 9.597 C 20.000 9.261,19.447 8.040,18.968 7.320 C 18.415 6.489,17.525 5.606,16.660 5.031 C 13.398 2.863,9.068 3.222,6.252 5.893 L 6.005 6.128 5.992 4.714 C 5.980 3.338,5.978 3.295,5.890 3.118 C 5.765 2.869,5.539 2.645,5.300 2.535 C 5.078 2.433,4.725 2.387,4.540 2.435 M4.980 13.237 C 4.490 13.322,4.128 13.703,4.047 14.219 C 3.985 14.611,4.071 14.899,4.506 15.763 C 4.998 16.740,5.472 17.348,6.490 18.304 C 7.525 19.276,9.023 19.994,10.622 20.286 C 11.011 20.357,11.260 20.373,11.960 20.376 C 12.494 20.378,12.941 20.359,13.140 20.327 C 14.936 20.033,16.466 19.305,17.688 18.164 L 17.995 17.876 18.008 19.288 C 18.020 20.672,18.022 20.704,18.113 20.889 C 18.307 21.282,18.793 21.600,19.200 21.600 C 19.607 21.600,20.089 21.285,20.286 20.890 L 20.380 20.700 20.380 17.400 C 20.380 14.353,20.375 14.088,20.311 13.946 C 20.195 13.690,20.016 13.500,19.766 13.367 L 19.529 13.240 16.200 13.240 L 12.871 13.240 12.632 13.368 C 11.758 13.833,11.817 15.076,12.733 15.503 L 12.940 15.599 14.600 15.604 C 15.513 15.607,16.377 15.621,16.519 15.635 L 16.779 15.660 16.359 16.096 C 15.590 16.895,14.882 17.348,13.884 17.682 C 13.184 17.916,12.780 17.977,11.960 17.976 C 11.397 17.975,11.181 17.957,10.857 17.888 C 9.679 17.635,8.704 17.125,7.873 16.328 C 7.235 15.715,6.787 15.054,6.397 14.147 C 6.288 13.895,6.174 13.702,6.071 13.596 C 5.801 13.317,5.358 13.171,4.980 13.237 " fill="#373B4D" stroke="none" fill-rule="evenodd"></path></svg>