<svg width="24" height="24" viewBox="0 0 24 24" fill="none" xmlns="http://www.w3.org/2000/svg"><path d="M4.323 2.604 C 4.246 2.627,4.080 2.753,3.940 2.893 C 3.750 3.084,3.683 3.183,3.647 3.328 C 3.590 3.557,3.584 7.321,3.638 8.911 C 3.680 10.127,3.656 10.048,4.133 10.511 L 4.431 10.800 7.812 10.800 L 11.193 10.800 11.442 10.530 C 11.755 10.191,11.920 9.858,11.920 9.569 C 11.920 9.217,11.783 8.979,11.394 8.656 L 11.196 8.493 10.048 8.466 C 8.887 8.439,7.638 8.375,7.510 8.336 C 7.471 8.324,7.440 8.285,7.440 8.248 C 7.440 8.135,8.158 7.469,8.580 7.191 C 8.982 6.926,9.859 6.470,10.380 6.255 L 10.660 6.140 11.480 6.149 C 12.498 6.160,13.279 6.222,13.676 6.324 C 13.843 6.367,14.202 6.511,14.473 6.645 C 15.776 7.287,16.358 7.860,17.500 9.627 C 17.852 10.172,18.190 10.567,18.383 10.659 C 18.570 10.747,19.072 10.729,19.269 10.626 C 19.470 10.521,19.673 10.327,19.792 10.125 C 19.886 9.964,19.900 9.898,19.898 9.620 C 19.897 9.394,19.870 9.224,19.805 9.040 C 19.193 7.294,17.531 5.470,15.744 4.583 C 14.662 4.046,13.618 3.792,12.260 3.735 C 10.257 3.651,8.801 4.121,6.774 5.506 C 6.440 5.734,6.148 5.920,6.124 5.920 C 6.100 5.920,6.080 5.885,6.080 5.841 C 6.080 5.518,5.949 3.539,5.917 3.376 C 5.866 3.120,5.696 2.884,5.444 2.722 C 5.267 2.609,5.212 2.596,4.854 2.579 C 4.636 2.570,4.399 2.580,4.323 2.604 M4.575 13.489 C 4.319 13.725,4.174 13.949,4.096 14.232 C 4.029 14.471,4.030 14.477,4.133 14.808 C 4.272 15.255,4.608 15.926,4.948 16.440 C 6.075 18.140,7.622 19.325,9.541 19.956 C 10.543 20.286,10.606 20.294,12.020 20.294 C 13.423 20.293,13.514 20.281,14.440 19.975 C 15.251 19.707,16.125 19.260,17.053 18.640 C 17.497 18.344,17.861 18.126,17.880 18.145 C 17.898 18.164,17.943 18.666,17.978 19.260 C 18.066 20.737,18.077 20.789,18.341 21.075 C 18.919 21.699,19.482 21.693,20.076 21.058 L 20.307 20.811 20.333 19.959 C 20.348 19.490,20.360 17.953,20.360 16.543 L 20.360 13.978 20.029 13.649 L 19.698 13.320 18.459 13.320 C 16.942 13.321,13.244 13.389,12.860 13.423 C 12.588 13.448,12.574 13.454,12.379 13.654 C 12.256 13.780,12.159 13.924,12.129 14.025 C 12.069 14.226,12.065 14.636,12.122 14.786 C 12.180 14.937,12.479 15.281,12.666 15.410 C 12.857 15.542,13.150 15.580,14.420 15.641 C 16.108 15.721,16.485 15.749,16.530 15.794 C 16.563 15.827,16.487 15.924,16.238 16.163 C 15.450 16.920,14.742 17.331,13.400 17.809 L 13.060 17.931 12.080 17.908 C 11.458 17.893,10.969 17.861,10.740 17.820 C 10.114 17.709,9.272 17.325,8.601 16.845 C 7.964 16.390,7.503 15.876,6.840 14.880 C 6.701 14.671,6.443 14.296,6.266 14.047 C 5.875 13.497,5.756 13.414,5.274 13.359 C 4.783 13.303,4.775 13.304,4.575 13.489 " fill="#373B4D" stroke="none" fill-rule="evenodd"></path></svg>