<svg width="24" height="24" viewBox="0 0 24 24" fill="none" xmlns="http://www.w3.org/2000/svg"><path d="M10.980 4.957 C 10.691 4.988,10.535 5.066,10.321 5.289 C 9.996 5.627,9.909 6.187,10.118 6.596 C 10.259 6.872,10.536 7.144,10.731 7.197 C 10.840 7.227,11.617 7.257,12.915 7.281 C 14.024 7.301,14.941 7.328,14.953 7.340 C 14.980 7.366,14.590 7.763,10.599 11.780 C 5.038 17.376,5.038 17.376,4.921 17.734 C 4.862 17.915,4.918 18.282,5.042 18.524 C 5.164 18.763,5.482 19.019,5.750 19.094 C 6.075 19.185,6.264 19.176,6.520 19.057 C 6.774 18.939,6.931 18.785,12.928 12.802 L 16.757 8.984 16.768 11.102 C 16.781 13.465,16.760 13.287,17.077 13.648 C 17.319 13.922,17.622 14.059,17.979 14.055 C 18.139 14.053,18.324 14.024,18.410 13.988 C 18.609 13.903,18.995 13.537,19.072 13.360 C 19.124 13.239,19.135 12.712,19.151 9.519 L 19.170 5.817 19.083 5.647 C 18.961 5.406,18.737 5.172,18.502 5.037 L 18.300 4.921 14.760 4.926 C 12.813 4.930,11.112 4.944,10.980 4.957 " fill="#373B4D" stroke="none" fill-rule="evenodd"></path></svg>