<svg width="24" height="24" viewBox="0 0 24 24" fill="none" xmlns="http://www.w3.org/2000/svg"><path d="M11.840 4.916 C 10.978 4.936,10.798 4.951,10.678 5.011 C 10.266 5.216,10.000 5.628,10.000 6.059 C 10.000 6.394,10.093 6.641,10.309 6.882 C 10.662 7.274,10.526 7.253,12.887 7.278 C 14.023 7.290,14.967 7.313,14.983 7.330 C 15.000 7.346,12.863 9.515,10.236 12.150 C 7.608 14.784,5.355 17.068,5.230 17.224 C 4.933 17.592,4.867 17.752,4.900 18.016 C 4.945 18.373,5.036 18.588,5.224 18.782 C 5.437 19.001,5.690 19.121,5.995 19.149 C 6.318 19.178,6.522 19.108,6.810 18.871 C 6.947 18.757,9.242 16.486,11.910 13.825 L 16.760 8.986 16.761 11.063 C 16.762 13.025,16.766 13.149,16.839 13.309 C 16.944 13.541,17.250 13.858,17.474 13.967 C 17.728 14.091,18.179 14.093,18.449 13.971 C 18.692 13.861,19.019 13.535,19.085 13.335 C 19.125 13.214,19.139 12.366,19.150 9.492 L 19.163 5.804 19.062 5.603 C 18.934 5.351,18.732 5.147,18.489 5.025 L 18.300 4.930 15.580 4.912 C 14.084 4.901,12.401 4.904,11.840 4.916 " fill="#373B4D" stroke="none" fill-rule="evenodd"></path></svg>