<svg width="24" height="24" viewBox="0 0 24 24" fill="none" xmlns="http://www.w3.org/2000/svg"><path d="M9.435 7.001 C 9.194 7.041,9.124 7.081,8.942 7.283 C 8.516 7.755,8.521 8.428,8.955 8.892 C 9.317 9.279,9.174 9.257,11.507 9.280 C 12.632 9.291,13.565 9.312,13.579 9.326 C 13.593 9.340,12.423 10.546,10.977 12.006 C 7.953 15.061,7.116 15.941,6.995 16.189 C 6.926 16.334,6.913 16.416,6.929 16.633 C 6.952 16.959,7.060 17.184,7.314 17.437 C 7.525 17.648,7.686 17.708,8.133 17.746 L 8.437 17.771 8.714 17.547 C 9.059 17.269,10.552 15.812,13.268 13.105 L 15.357 11.024 15.368 13.082 C 15.380 15.119,15.381 15.142,15.469 15.321 C 15.584 15.553,15.836 15.816,16.051 15.927 C 16.259 16.034,16.758 16.073,16.979 16.000 C 17.193 15.930,17.619 15.500,17.676 15.299 C 17.700 15.212,17.740 14.735,17.764 14.240 C 17.818 13.141,17.787 8.364,17.723 7.922 C 17.670 7.553,17.562 7.380,17.234 7.139 L 16.991 6.960 13.306 6.965 C 11.279 6.967,9.537 6.983,9.435 7.001 " fill="#373B4D" stroke="none" fill-rule="evenodd"></path></svg>