<svg width="24" height="24" viewBox="0 0 24 24" fill="none" xmlns="http://www.w3.org/2000/svg"><path d="M9.526 6.922 C 8.624 7.103,8.290 8.260,8.948 8.928 C 9.301 9.286,9.252 9.280,11.631 9.280 L 13.699 9.280 10.374 12.610 C 6.685 16.305,6.897 16.061,6.903 16.605 C 6.910 17.266,7.437 17.769,8.118 17.765 C 8.626 17.763,8.444 17.923,12.068 14.306 L 15.357 11.025 15.368 13.083 L 15.380 15.140 15.475 15.351 C 15.603 15.634,15.938 15.938,16.210 16.019 C 16.671 16.156,17.065 16.058,17.404 15.721 C 17.806 15.322,17.780 15.611,17.780 11.480 C 17.780 8.133,17.775 7.887,17.708 7.693 C 17.611 7.417,17.369 7.150,17.089 7.012 L 16.860 6.900 13.280 6.894 C 11.311 6.890,9.622 6.903,9.526 6.922 " fill="#373B4D" stroke="none" fill-rule="evenodd"></path></svg>