<svg width="24" height="24" viewBox="0 0 24 24" fill="none" xmlns="http://www.w3.org/2000/svg"><path d="M11.660 4.958 C 10.805 4.978,10.730 4.986,10.600 5.067 C 9.971 5.460,9.824 6.259,10.277 6.831 C 10.559 7.189,10.615 7.207,11.514 7.245 C 11.946 7.263,12.889 7.289,13.610 7.303 C 14.505 7.321,14.920 7.343,14.920 7.372 C 14.920 7.421,14.753 7.590,9.760 12.620 C 6.029 16.379,5.124 17.320,4.988 17.580 C 4.879 17.788,4.882 18.107,4.997 18.406 C 5.224 19.001,5.985 19.314,6.540 19.042 C 6.770 18.929,7.671 18.048,13.207 12.525 L 16.753 8.987 16.770 11.064 C 16.783 12.576,16.801 13.183,16.838 13.297 C 16.910 13.523,17.288 13.888,17.537 13.973 C 17.797 14.061,18.243 14.061,18.434 13.972 C 18.637 13.877,19.061 13.447,19.096 13.300 C 19.111 13.234,19.135 11.523,19.147 9.498 C 19.169 6.031,19.166 5.808,19.100 5.678 C 18.974 5.433,18.789 5.231,18.545 5.074 L 18.308 4.920 15.444 4.928 C 13.869 4.932,12.166 4.946,11.660 4.958 " fill="#373B4D" stroke="none" fill-rule="evenodd"></path></svg>