<svg width="24" height="24" viewBox="0 0 24 24" fill="none" xmlns="http://www.w3.org/2000/svg"><path d="M10.926 4.922 C 10.545 4.999,10.179 5.323,10.056 5.693 C 9.865 6.266,10.114 6.883,10.651 7.170 C 10.819 7.260,10.827 7.260,12.930 7.271 C 14.091 7.278,15.040 7.296,15.040 7.311 C 15.040 7.327,12.800 9.581,10.061 12.319 C 4.559 17.821,4.902 17.444,4.903 17.982 C 4.903 18.453,5.136 18.823,5.571 19.046 C 5.807 19.166,6.207 19.190,6.485 19.101 C 6.691 19.034,6.914 18.817,11.728 14.008 L 16.757 8.984 16.768 11.082 L 16.780 13.180 16.878 13.378 C 17.004 13.632,17.237 13.865,17.474 13.973 C 17.759 14.104,18.232 14.094,18.505 13.951 C 18.618 13.892,18.783 13.761,18.873 13.659 C 19.178 13.312,19.163 13.537,19.151 9.417 L 19.140 5.740 19.021 5.526 C 18.890 5.288,18.711 5.123,18.440 4.989 L 18.260 4.900 14.680 4.894 C 12.711 4.890,11.022 4.903,10.926 4.922 " fill="#373B4D" stroke="none" fill-rule="evenodd"></path></svg>