<svg width="24" height="24" viewBox="0 0 24 24" fill="none" xmlns="http://www.w3.org/2000/svg"><path d="M12.300 4.958 C 10.763 4.980,10.738 4.981,10.593 5.072 C 10.289 5.261,10.074 5.596,10.020 5.964 C 9.967 6.320,10.206 6.854,10.520 7.087 C 10.685 7.208,11.017 7.237,12.800 7.283 C 13.735 7.307,14.599 7.340,14.720 7.356 L 14.940 7.385 13.697 8.643 C 13.014 9.334,11.134 11.232,9.520 12.860 C 6.231 16.177,5.114 17.344,4.999 17.583 C 4.827 17.937,4.933 18.452,5.240 18.761 C 5.600 19.124,6.075 19.233,6.507 19.054 C 6.712 18.969,7.730 17.981,12.364 13.368 L 16.749 9.003 16.772 11.072 C 16.786 12.423,16.810 13.192,16.839 13.291 C 16.894 13.474,17.239 13.833,17.463 13.939 C 17.690 14.046,18.154 14.069,18.379 13.983 C 18.573 13.908,18.959 13.555,19.061 13.358 C 19.118 13.248,19.126 12.824,19.132 9.485 L 19.140 5.735 19.025 5.561 C 18.887 5.352,18.765 5.234,18.501 5.055 L 18.301 4.920 16.081 4.928 C 14.859 4.932,13.158 4.945,12.300 4.958 " fill="#373B4D" stroke="none" fill-rule="evenodd"></path></svg>