<svg width="24" height="24" viewBox="0 0 24 24" fill="none" xmlns="http://www.w3.org/2000/svg"><path d="M9.438 6.957 C 9.151 7.013,8.842 7.299,8.689 7.652 C 8.463 8.170,8.735 8.888,9.260 9.158 L 9.458 9.260 11.569 9.274 L 13.681 9.287 10.520 12.468 C 8.782 14.218,7.272 15.767,7.164 15.910 C 7.057 16.053,6.948 16.241,6.922 16.329 C 6.833 16.627,6.986 17.133,7.245 17.401 C 7.488 17.651,7.711 17.736,8.123 17.738 L 8.466 17.740 8.697 17.566 C 9.012 17.328,9.900 16.463,12.850 13.522 L 15.360 11.020 15.360 13.080 L 15.361 15.140 15.482 15.352 C 15.760 15.837,16.106 16.055,16.600 16.057 C 16.857 16.059,16.928 16.043,17.087 15.950 C 17.365 15.787,17.631 15.503,17.681 15.315 C 17.762 15.014,17.797 13.867,17.798 11.480 C 17.798 8.815,17.762 7.801,17.659 7.584 C 17.577 7.410,17.265 7.115,17.047 7.004 C 16.884 6.920,16.863 6.920,13.232 6.925 C 11.223 6.927,9.516 6.942,9.438 6.957 " fill="#373B4D" stroke="none" fill-rule="evenodd"></path></svg>