<svg width="24" height="24" viewBox="0 0 24 24" fill="none" xmlns="http://www.w3.org/2000/svg"><path d="M10.417 6.916 L 9.373 6.940 9.178 7.061 C 8.668 7.376,8.469 8.022,8.712 8.572 C 8.820 8.816,9.065 9.076,9.280 9.176 C 9.454 9.257,9.528 9.260,11.575 9.273 L 13.691 9.285 10.613 12.373 C 8.920 14.071,7.421 15.594,7.282 15.757 C 6.953 16.144,6.863 16.345,6.897 16.616 C 6.966 17.159,7.217 17.511,7.654 17.674 C 7.919 17.774,8.298 17.788,8.491 17.705 C 8.740 17.599,9.285 17.079,12.310 14.065 L 15.360 11.026 15.360 13.066 L 15.360 15.107 15.481 15.350 C 15.614 15.615,15.821 15.826,16.088 15.968 C 16.317 16.089,16.828 16.098,17.040 15.984 C 17.297 15.846,17.570 15.587,17.651 15.404 C 17.766 15.145,17.796 14.305,17.794 11.480 C 17.792 8.514,17.767 7.800,17.660 7.581 C 17.557 7.370,17.326 7.144,17.091 7.027 L 16.900 6.930 14.180 6.911 C 12.684 6.901,10.991 6.903,10.417 6.916 " fill="#373B4D" stroke="none" fill-rule="evenodd"></path></svg>