<svg width="24" height="24" viewBox="0 0 24 24" fill="none" xmlns="http://www.w3.org/2000/svg"><path d="M10.040 6.957 C 9.264 6.983,9.210 6.998,8.954 7.267 C 8.714 7.519,8.623 7.738,8.621 8.061 C 8.619 8.550,8.893 8.983,9.343 9.201 C 9.498 9.277,9.596 9.280,11.573 9.280 C 12.710 9.280,13.640 9.291,13.640 9.304 C 13.640 9.317,12.404 10.573,10.894 12.094 C 7.847 15.163,7.124 15.919,6.993 16.170 C 6.812 16.520,6.917 17.018,7.250 17.383 C 7.480 17.636,7.646 17.707,8.084 17.742 L 8.420 17.769 8.665 17.588 C 8.962 17.369,10.177 16.187,13.130 13.243 L 15.360 11.020 15.360 13.072 C 15.360 15.337,15.343 15.177,15.624 15.564 C 15.866 15.896,16.180 16.047,16.639 16.049 C 16.864 16.051,16.945 16.033,17.087 15.949 C 17.317 15.813,17.581 15.536,17.659 15.350 C 17.757 15.115,17.799 13.920,17.799 11.400 C 17.798 8.991,17.758 7.849,17.666 7.628 C 17.587 7.438,17.392 7.229,17.150 7.073 L 16.942 6.940 13.841 6.937 C 12.135 6.935,10.425 6.944,10.040 6.957 " fill="#373B4D" stroke="none" fill-rule="evenodd"></path></svg>