<svg width="24" height="24" viewBox="0 0 24 24" fill="none" xmlns="http://www.w3.org/2000/svg"><path d="M7.515 4.085 C 6.840 4.694,3.037 8.519,2.826 8.800 C 2.541 9.180,2.465 9.346,2.463 9.600 C 2.460 9.888,2.530 10.022,2.928 10.483 C 3.351 10.972,7.084 14.709,7.495 15.054 C 8.090 15.553,8.325 15.633,8.739 15.477 C 9.328 15.256,9.687 14.625,9.514 14.116 C 9.410 13.811,8.963 13.301,7.443 11.750 L 6.511 10.800 7.006 10.800 C 7.677 10.800,10.810 10.870,12.380 10.920 C 13.833 10.966,14.513 11.017,14.860 11.103 C 15.164 11.179,16.030 11.607,16.500 11.912 C 17.321 12.446,18.024 13.253,18.509 14.218 C 18.954 15.104,19.007 15.398,19.140 17.740 C 19.229 19.306,19.274 19.589,19.480 19.873 C 19.705 20.184,20.050 20.339,20.454 20.312 C 20.782 20.290,20.962 20.196,21.315 19.861 L 21.611 19.580 21.586 18.000 C 21.560 16.356,21.524 15.760,21.416 15.220 C 21.281 14.547,20.839 13.361,20.470 12.688 C 19.871 11.592,18.602 10.319,17.423 9.630 C 16.835 9.286,15.842 8.869,15.259 8.720 C 14.733 8.585,13.855 8.544,9.280 8.441 C 7.264 8.395,6.640 8.365,6.640 8.315 C 6.640 8.295,7.078 7.825,7.612 7.270 C 8.147 6.714,8.675 6.161,8.786 6.040 C 9.313 5.464,9.560 5.076,9.560 4.823 C 9.560 4.580,9.405 4.241,9.199 4.035 C 8.979 3.815,8.862 3.776,8.315 3.737 L 7.930 3.710 7.515 4.085 " fill="#373B4D" stroke="none" fill-rule="evenodd"></path></svg>