<svg width="24" height="24" viewBox="0 0 24 24" fill="none" xmlns="http://www.w3.org/2000/svg"><path d="M7.700 3.919 C 6.686 4.801,3.317 8.173,2.797 8.827 C 2.364 9.371,2.328 9.716,2.653 10.173 C 3.050 10.729,7.393 15.076,7.822 15.346 C 8.091 15.516,8.294 15.574,8.509 15.545 C 8.890 15.493,9.234 15.261,9.431 14.925 C 9.525 14.765,9.540 14.696,9.540 14.420 C 9.540 14.145,9.525 14.075,9.433 13.920 C 9.277 13.656,8.747 13.075,7.563 11.870 L 6.511 10.800 7.038 10.800 C 7.884 10.800,11.635 10.877,12.920 10.921 C 14.181 10.964,14.728 11.024,15.096 11.162 C 15.454 11.296,16.199 11.686,16.572 11.934 C 17.505 12.554,18.296 13.567,18.755 14.729 C 18.989 15.321,19.046 15.748,19.141 17.620 C 19.237 19.516,19.271 19.704,19.579 20.007 C 19.757 20.184,19.924 20.268,20.197 20.319 C 20.635 20.402,21.035 20.222,21.416 19.772 L 21.611 19.540 21.587 17.920 C 21.553 15.687,21.509 15.323,21.146 14.260 C 20.663 12.844,20.213 12.088,19.250 11.076 C 18.355 10.136,17.412 9.510,16.133 9.007 C 15.493 8.755,15.115 8.650,14.680 8.601 C 14.187 8.546,12.332 8.487,9.500 8.438 C 8.136 8.414,6.921 8.382,6.800 8.366 L 6.580 8.339 7.320 7.578 C 8.871 5.985,9.386 5.406,9.501 5.131 C 9.670 4.728,9.454 4.146,9.037 3.878 C 8.857 3.763,8.810 3.752,8.391 3.732 L 7.940 3.711 7.700 3.919 " fill="#373B4D" stroke="none" fill-rule="evenodd"></path></svg>