<svg width="24" height="24" viewBox="0 0 24 24" fill="none" xmlns="http://www.w3.org/2000/svg"><path d="M7.940 3.734 C 7.757 3.819,6.591 4.926,4.857 6.658 C 3.162 8.351,2.695 8.860,2.528 9.200 C 2.402 9.457,2.388 9.748,2.492 9.947 C 2.654 10.254,3.177 10.820,4.959 12.615 C 7.679 15.355,7.925 15.566,8.406 15.566 C 8.791 15.566,9.207 15.306,9.430 14.927 C 9.525 14.765,9.540 14.697,9.540 14.420 C 9.540 14.140,9.526 14.076,9.425 13.905 C 9.256 13.617,8.865 13.188,7.620 11.925 L 6.500 10.789 8.540 10.816 C 11.319 10.852,13.781 10.915,14.241 10.960 C 14.718 11.007,15.128 11.138,15.740 11.439 C 16.557 11.841,17.135 12.272,17.623 12.842 C 18.433 13.791,18.923 14.812,19.041 15.800 C 19.064 15.987,19.116 16.878,19.158 17.780 C 19.215 18.990,19.251 19.465,19.296 19.591 C 19.492 20.140,20.059 20.445,20.653 20.322 C 20.928 20.264,21.145 20.109,21.410 19.780 L 21.600 19.544 21.598 18.502 C 21.596 16.902,21.541 15.774,21.440 15.280 C 21.286 14.522,20.877 13.392,20.529 12.760 C 19.924 11.663,18.960 10.622,17.846 9.864 C 17.044 9.318,15.639 8.731,14.823 8.601 C 14.361 8.527,13.030 8.482,10.060 8.441 C 8.432 8.418,6.978 8.389,6.830 8.376 L 6.560 8.352 7.527 7.366 C 8.544 6.329,9.251 5.564,9.430 5.306 C 9.571 5.102,9.600 4.740,9.498 4.435 C 9.409 4.165,9.083 3.825,8.856 3.765 C 8.573 3.689,8.072 3.672,7.940 3.734 " fill="#373B4D" stroke="none" fill-rule="evenodd"></path></svg>