<svg width="24" height="24" viewBox="0 0 24 24" fill="none" xmlns="http://www.w3.org/2000/svg"><path d="M7.895 3.753 C 7.591 3.946,4.739 6.718,3.483 8.042 C 2.716 8.849,2.504 9.130,2.436 9.427 C 2.317 9.943,2.502 10.173,5.265 12.936 C 7.231 14.904,7.665 15.309,7.980 15.472 C 8.395 15.687,8.876 15.568,9.256 15.158 C 9.500 14.894,9.582 14.659,9.552 14.307 C 9.516 13.880,9.366 13.695,7.686 11.991 L 6.500 10.788 8.780 10.816 C 11.780 10.852,13.984 10.910,14.380 10.963 C 14.981 11.043,15.802 11.396,16.571 11.903 C 17.756 12.685,18.756 14.182,19.019 15.569 C 19.052 15.743,19.098 16.320,19.121 16.852 C 19.144 17.385,19.179 18.195,19.198 18.653 C 19.232 19.435,19.241 19.500,19.339 19.702 C 19.451 19.930,19.671 20.147,19.914 20.267 C 20.134 20.376,20.686 20.368,20.900 20.253 C 21.069 20.162,21.365 19.871,21.519 19.646 L 21.611 19.512 21.588 17.846 C 21.575 16.930,21.544 15.991,21.519 15.760 C 21.414 14.804,20.946 13.460,20.386 12.509 C 19.815 11.538,18.851 10.536,17.818 9.838 C 17.144 9.384,16.039 8.892,15.211 8.678 C 14.582 8.515,14.034 8.489,10.260 8.439 C 8.500 8.416,6.946 8.387,6.808 8.375 L 6.555 8.353 7.488 7.406 C 8.770 6.104,9.396 5.415,9.493 5.200 C 9.659 4.827,9.559 4.349,9.248 4.027 C 9.014 3.784,8.850 3.719,8.408 3.695 C 8.068 3.677,8.005 3.684,7.895 3.753 " fill="#373B4D" stroke="none" fill-rule="evenodd"></path></svg>