<svg width="24" height="24" viewBox="0 0 24 24" fill="none" xmlns="http://www.w3.org/2000/svg"><path d="M7.269 4.333 C 6.458 5.102,3.468 8.124,3.011 8.637 C 2.624 9.071,2.522 9.248,2.492 9.538 C 2.463 9.814,2.555 10.013,2.888 10.400 C 3.318 10.900,5.255 12.888,6.165 13.763 C 7.714 15.253,7.931 15.433,8.280 15.523 C 8.439 15.563,8.488 15.558,8.698 15.479 C 9.136 15.312,9.561 14.780,9.559 14.400 C 9.557 14.005,9.138 13.483,7.397 11.705 L 6.501 10.790 7.701 10.816 C 13.087 10.936,14.490 11.004,14.980 11.167 C 15.303 11.275,16.179 11.724,16.546 11.969 C 17.322 12.488,18.070 13.377,18.542 14.340 C 18.902 15.076,18.978 15.485,19.100 17.320 C 19.186 18.625,19.265 19.345,19.345 19.580 C 19.442 19.860,19.754 20.166,20.020 20.241 C 20.501 20.375,20.858 20.266,21.330 19.838 L 21.600 19.594 21.599 18.687 C 21.598 17.604,21.537 16.046,21.480 15.635 C 21.329 14.552,20.719 13.017,20.073 12.093 C 19.562 11.363,18.495 10.336,17.720 9.830 C 17.119 9.437,15.855 8.875,15.271 8.742 C 14.736 8.620,13.583 8.562,9.680 8.460 C 7.379 8.401,6.825 8.375,6.728 8.323 C 6.671 8.292,6.787 8.157,7.800 7.079 C 9.023 5.777,9.376 5.350,9.502 5.021 C 9.589 4.793,9.538 4.554,9.336 4.249 C 9.119 3.919,8.843 3.791,8.233 3.738 L 7.925 3.711 7.269 4.333 " fill="#373B4D" stroke="none" fill-rule="evenodd"></path></svg>