<svg width="24" height="24" viewBox="0 0 24 24" fill="none" xmlns="http://www.w3.org/2000/svg"><path d="M8.180 3.638 C 8.092 3.653,7.953 3.695,7.870 3.731 C 7.710 3.800,4.110 7.346,3.075 8.452 C 2.607 8.954,2.512 9.076,2.461 9.250 C 2.340 9.657,2.391 9.925,2.655 10.280 C 2.848 10.540,6.299 14.026,7.212 14.885 C 7.778 15.417,7.868 15.486,8.069 15.544 C 8.489 15.666,8.918 15.553,9.235 15.235 C 9.486 14.985,9.580 14.755,9.579 14.400 C 9.577 13.900,9.565 13.885,7.946 12.251 L 6.508 10.800 8.544 10.803 C 9.664 10.805,11.399 10.821,12.400 10.839 C 14.163 10.871,14.232 10.875,14.620 10.974 C 15.590 11.221,16.585 11.765,17.287 12.434 C 18.192 13.294,18.768 14.306,19.063 15.556 C 19.142 15.888,19.196 17.025,19.198 18.402 L 19.200 19.464 19.307 19.679 C 19.441 19.949,19.673 20.183,19.914 20.293 C 20.182 20.416,20.632 20.413,20.888 20.287 C 21.127 20.169,21.369 19.927,21.487 19.688 L 21.580 19.500 21.579 17.720 C 21.577 16.207,21.567 15.880,21.507 15.540 C 21.145 13.479,20.254 11.857,18.745 10.513 C 17.798 9.670,16.431 8.949,15.229 8.659 C 14.272 8.429,14.323 8.432,10.268 8.411 L 6.517 8.391 7.951 6.945 C 8.947 5.939,9.411 5.443,9.471 5.319 C 9.754 4.733,9.521 4.039,8.950 3.766 C 8.677 3.635,8.427 3.594,8.180 3.638 " fill="#373B4D" stroke="none" fill-rule="evenodd"></path></svg>