<svg width="24" height="24" viewBox="0 0 24 24" fill="none" xmlns="http://www.w3.org/2000/svg"><path d="M7.540 4.061 C 7.011 4.527,3.246 8.292,2.908 8.694 C 2.445 9.244,2.345 9.585,2.534 9.972 C 2.667 10.243,3.469 11.102,5.283 12.916 C 7.894 15.526,8.104 15.686,8.687 15.502 C 9.437 15.266,9.788 14.458,9.397 13.867 C 9.223 13.605,8.598 12.926,7.503 11.810 L 6.511 10.800 7.006 10.800 C 7.753 10.800,11.218 10.874,12.612 10.920 C 13.888 10.963,14.465 11.006,14.837 11.088 C 15.134 11.154,16.096 11.630,16.580 11.951 C 17.353 12.465,18.055 13.288,18.515 14.220 C 18.970 15.141,19.017 15.397,19.141 17.680 C 19.237 19.446,19.272 19.649,19.532 19.944 C 19.717 20.155,19.905 20.259,20.193 20.311 C 20.620 20.389,20.940 20.255,21.350 19.827 L 21.600 19.567 21.599 18.593 C 21.598 17.330,21.537 15.934,21.462 15.468 C 21.310 14.522,20.771 13.119,20.258 12.331 C 19.621 11.355,18.596 10.353,17.598 9.732 C 16.874 9.282,15.737 8.807,15.040 8.665 C 14.628 8.581,13.585 8.531,11.160 8.480 C 8.141 8.417,6.638 8.371,6.609 8.343 C 6.595 8.329,6.872 8.025,7.224 7.669 C 9.137 5.729,9.560 5.216,9.560 4.837 C 9.560 4.598,9.438 4.289,9.268 4.096 C 9.032 3.828,8.880 3.766,8.373 3.736 L 7.940 3.709 7.540 4.061 " fill="#373B4D" stroke="none" fill-rule="evenodd"></path></svg>