<svg width="24" height="24" viewBox="0 0 24 24" fill="none" xmlns="http://www.w3.org/2000/svg"><path d="M7.397 4.211 C 6.813 4.757,4.459 7.118,3.376 8.243 C 2.641 9.008,2.515 9.196,2.488 9.563 C 2.457 9.977,2.527 10.066,4.337 11.936 C 5.439 13.075,7.263 14.846,7.681 15.184 C 8.170 15.578,8.407 15.629,8.832 15.431 C 9.217 15.251,9.561 14.759,9.560 14.388 C 9.558 13.989,9.127 13.461,7.203 11.506 L 6.500 10.792 7.820 10.817 C 12.577 10.908,14.509 10.998,14.958 11.147 C 15.236 11.239,16.185 11.721,16.510 11.936 C 17.576 12.639,18.613 14.069,18.877 15.202 C 18.980 15.649,19.023 16.057,19.120 17.540 C 19.220 19.061,19.262 19.404,19.377 19.660 C 19.562 20.069,19.924 20.300,20.380 20.300 C 20.734 20.299,20.930 20.205,21.325 19.845 L 21.612 19.582 21.587 18.041 C 21.557 16.229,21.516 15.650,21.375 15.080 C 21.090 13.929,20.549 12.715,19.994 11.980 C 19.429 11.233,18.497 10.344,17.760 9.851 C 17.177 9.460,15.922 8.892,15.320 8.746 C 14.766 8.612,13.734 8.558,9.800 8.460 C 7.142 8.393,6.680 8.370,6.680 8.305 C 6.680 8.280,7.132 7.783,7.684 7.200 C 9.326 5.467,9.597 5.108,9.545 4.735 C 9.513 4.499,9.346 4.192,9.155 4.020 C 8.974 3.857,8.712 3.773,8.266 3.737 L 7.933 3.710 7.397 4.211 " fill="#373B4D" stroke="none" fill-rule="evenodd"></path></svg>