<svg width="24" height="24" viewBox="0 0 24 24" fill="none" xmlns="http://www.w3.org/2000/svg"><path d="M10.319 6.209 C 9.904 6.425,8.776 7.153,6.420 8.724 C 3.183 10.883,2.741 11.211,2.545 11.605 C 2.365 11.967,2.424 12.317,2.725 12.660 C 3.047 13.028,4.126 13.804,6.560 15.420 C 9.337 17.263,10.229 17.813,10.558 17.883 C 10.780 17.931,11.062 17.906,11.260 17.821 C 11.326 17.793,11.520 17.640,11.690 17.481 L 12.000 17.193 12.000 15.318 L 12.000 13.443 14.430 15.057 C 18.231 17.582,18.790 17.922,19.147 17.927 C 19.518 17.932,19.976 17.672,20.220 17.315 L 20.347 17.130 20.373 14.719 C 20.388 13.392,20.400 11.073,20.400 9.565 L 20.400 6.823 20.129 6.558 C 19.800 6.236,19.535 6.120,19.132 6.120 C 18.759 6.120,18.839 6.073,14.940 8.613 C 12.547 10.172,12.136 10.430,12.099 10.393 C 12.092 10.385,12.066 9.849,12.042 9.200 C 11.984 7.628,11.927 6.891,11.852 6.730 C 11.720 6.449,11.220 6.149,10.799 6.099 C 10.600 6.076,10.554 6.086,10.319 6.209 " fill="#373B4D" stroke="none" fill-rule="evenodd"></path></svg>