<svg width="24" height="24" viewBox="0 0 24 24" fill="none" xmlns="http://www.w3.org/2000/svg"><path d="M10.280 6.250 C 9.769 6.523,7.337 8.099,5.360 9.439 C 3.268 10.857,2.724 11.279,2.551 11.617 C 2.440 11.834,2.439 12.165,2.550 12.380 C 2.655 12.585,3.072 12.983,3.580 13.365 C 5.094 14.503,9.422 17.344,10.235 17.734 C 10.825 18.017,11.171 17.949,11.730 17.440 L 12.000 17.194 12.000 15.317 L 12.000 13.439 13.555 14.476 C 17.433 17.063,18.685 17.848,19.011 17.896 C 19.232 17.929,19.598 17.832,19.813 17.685 C 19.905 17.621,20.063 17.482,20.163 17.374 L 20.347 17.178 20.373 15.999 C 20.388 15.350,20.400 13.017,20.400 10.813 L 20.400 6.806 20.178 6.608 C 19.828 6.296,19.598 6.189,19.234 6.168 C 18.753 6.140,18.761 6.136,15.200 8.446 C 12.889 9.945,12.232 10.360,12.172 10.360 C 12.110 10.360,12.086 10.123,12.039 9.000 C 11.988 7.782,11.933 7.071,11.874 6.849 C 11.784 6.508,11.287 6.188,10.766 6.135 C 10.562 6.114,10.515 6.125,10.280 6.250 " fill="#373B4D" stroke="none" fill-rule="evenodd"></path></svg>