<svg width="24" height="24" viewBox="0 0 24 24" fill="none" xmlns="http://www.w3.org/2000/svg"><path d="M10.350 6.199 C 9.473 6.657,3.942 10.339,3.033 11.069 C 2.723 11.319,2.580 11.494,2.498 11.724 C 2.339 12.175,2.523 12.540,3.166 13.056 C 4.299 13.962,9.324 17.299,10.238 17.752 C 10.499 17.882,10.571 17.900,10.818 17.898 C 11.177 17.895,11.307 17.832,11.695 17.475 L 12.000 17.193 12.000 15.316 L 12.000 13.440 13.610 14.513 C 16.893 16.703,18.265 17.583,18.753 17.812 C 18.970 17.914,19.039 17.928,19.236 17.910 C 19.607 17.876,19.954 17.661,20.237 17.290 L 20.367 17.120 20.390 11.970 L 20.412 6.820 20.163 6.589 C 19.834 6.285,19.584 6.161,19.240 6.132 C 18.805 6.095,18.868 6.059,15.300 8.379 C 12.148 10.429,12.130 10.440,12.102 10.351 C 12.093 10.323,12.066 9.778,12.042 9.140 C 11.993 7.862,11.936 7.055,11.879 6.840 C 11.826 6.640,11.750 6.548,11.511 6.391 C 11.248 6.219,11.038 6.137,10.780 6.104 C 10.607 6.083,10.549 6.095,10.350 6.199 " fill="#373B4D" stroke="none" fill-rule="evenodd"></path></svg>