<svg width="24" height="24" viewBox="0 0 24 24" fill="none" xmlns="http://www.w3.org/2000/svg"><path d="M10.260 6.231 C 9.812 6.480,8.211 7.517,6.140 8.900 C 2.828 11.113,2.506 11.373,2.454 11.882 C 2.403 12.377,2.601 12.647,3.521 13.335 C 4.810 14.300,9.461 17.367,10.257 17.778 C 10.464 17.885,10.534 17.900,10.817 17.899 C 11.210 17.898,11.281 17.864,11.693 17.478 L 12.000 17.192 12.000 15.317 L 12.000 13.443 14.510 15.111 C 18.297 17.629,18.815 17.942,19.180 17.937 C 19.538 17.932,20.004 17.654,20.233 17.308 L 20.340 17.146 20.366 14.923 C 20.380 13.700,20.393 11.383,20.396 9.774 L 20.400 6.848 20.257 6.676 C 19.937 6.294,19.570 6.108,19.126 6.103 C 18.872 6.100,18.843 6.110,18.500 6.318 C 18.063 6.583,16.650 7.494,14.640 8.806 C 12.477 10.220,12.137 10.430,12.092 10.385 C 12.080 10.374,12.055 9.837,12.036 9.192 C 12.002 8.065,11.942 7.060,11.894 6.830 C 11.826 6.508,11.255 6.126,10.792 6.094 C 10.558 6.077,10.520 6.087,10.260 6.231 " fill="#373B4D" stroke="none" fill-rule="evenodd"></path></svg>