<svg width="24" height="24" viewBox="0 0 24 24" fill="none" xmlns="http://www.w3.org/2000/svg"><path d="M10.503 6.101 C 10.257 6.186,8.537 7.291,5.740 9.162 C 3.260 10.820,2.676 11.265,2.515 11.620 C 2.418 11.832,2.420 12.172,2.519 12.391 C 2.678 12.740,3.209 13.162,5.153 14.480 C 7.348 15.969,9.703 17.491,10.261 17.782 C 10.478 17.895,10.570 17.920,10.768 17.920 C 11.166 17.920,11.303 17.857,11.670 17.505 L 12.000 17.189 12.000 15.314 L 12.000 13.440 13.970 14.753 C 17.607 17.178,18.569 17.788,18.943 17.906 C 19.145 17.970,19.172 17.970,19.404 17.905 C 19.694 17.825,19.930 17.671,20.150 17.422 C 20.288 17.265,20.312 17.209,20.334 16.991 C 20.347 16.853,20.370 14.517,20.384 11.800 L 20.409 6.860 20.213 6.620 C 19.954 6.303,19.620 6.127,19.213 6.093 C 18.928 6.069,18.926 6.069,18.600 6.258 C 18.188 6.495,16.992 7.265,14.740 8.741 C 13.003 9.880,12.181 10.400,12.117 10.400 C 12.064 10.400,12.045 10.117,12.021 9.000 C 11.994 7.697,11.941 6.928,11.867 6.751 C 11.693 6.335,10.910 5.962,10.503 6.101 " fill="#373B4D" stroke="none" fill-rule="evenodd"></path></svg>