<svg width="24" height="24" viewBox="0 0 24 24" fill="none" xmlns="http://www.w3.org/2000/svg"><path d="M10.356 6.152 C 9.760 6.465,3.948 10.319,3.160 10.922 C 2.576 11.369,2.439 11.576,2.441 12.009 C 2.443 12.584,2.634 12.763,4.920 14.322 C 6.853 15.641,9.792 17.551,10.289 17.811 C 10.499 17.921,10.577 17.940,10.818 17.939 C 11.187 17.938,11.435 17.806,11.763 17.437 L 12.000 17.169 12.000 15.306 L 12.000 13.443 14.690 15.231 C 17.525 17.117,18.277 17.601,18.727 17.829 C 18.969 17.952,19.032 17.967,19.232 17.953 C 19.360 17.944,19.547 17.894,19.656 17.842 C 19.908 17.720,20.299 17.337,20.333 17.180 C 20.347 17.114,20.370 14.781,20.386 11.995 L 20.413 6.929 20.307 6.749 C 20.186 6.542,19.904 6.279,19.698 6.182 C 19.518 6.096,19.149 6.037,18.987 6.067 C 18.771 6.107,18.206 6.462,14.990 8.574 C 12.017 10.526,12.090 10.480,12.062 10.391 C 12.054 10.363,12.035 9.797,12.021 9.134 C 12.007 8.470,11.980 7.672,11.960 7.359 C 11.928 6.852,11.913 6.774,11.824 6.638 C 11.635 6.353,11.201 6.108,10.800 6.060 C 10.605 6.037,10.554 6.047,10.356 6.152 " fill="#373B4D" stroke="none" fill-rule="evenodd"></path></svg>