<svg width="24" height="24" viewBox="0 0 24 24" fill="none" xmlns="http://www.w3.org/2000/svg"><path d="M10.349 6.136 C 9.923 6.365,4.530 9.928,3.500 10.661 C 2.550 11.336,2.440 11.477,2.440 12.019 C 2.440 12.625,2.496 12.676,5.200 14.508 C 7.903 16.341,10.264 17.860,10.514 17.929 C 10.594 17.951,10.772 17.960,10.908 17.949 C 11.267 17.921,11.526 17.764,11.790 17.417 L 12.000 17.140 12.000 15.290 L 12.000 13.440 14.210 14.913 C 17.918 17.386,18.691 17.877,19.018 17.965 C 19.424 18.074,20.136 17.666,20.327 17.216 C 20.364 17.127,20.379 15.894,20.391 12.016 C 20.407 6.968,20.407 6.930,20.326 6.772 C 20.216 6.556,19.912 6.264,19.686 6.157 C 19.578 6.106,19.388 6.061,19.233 6.049 C 18.982 6.031,18.950 6.038,18.693 6.181 C 18.292 6.403,17.317 7.031,15.380 8.313 C 13.000 9.889,12.075 10.488,12.054 10.467 C 12.044 10.458,12.021 9.649,12.003 8.671 C 11.965 6.658,11.979 6.741,11.635 6.419 C 11.384 6.185,11.131 6.073,10.801 6.050 C 10.577 6.035,10.513 6.047,10.349 6.136 " fill="#373B4D" stroke="none" fill-rule="evenodd"></path></svg>