<svg width="24" height="24" viewBox="0 0 24 24" fill="none" xmlns="http://www.w3.org/2000/svg"><path d="M5.769 3.640 C 4.827 3.841,4.488 4.959,5.165 5.635 C 5.442 5.913,5.609 5.968,6.296 6.007 C 7.097 6.052,7.825 6.139,8.417 6.259 C 11.958 6.976,15.077 9.365,16.702 12.603 C 17.256 13.709,17.644 14.910,17.837 16.120 C 17.936 16.741,17.957 16.946,17.996 17.700 C 18.032 18.391,18.085 18.558,18.356 18.827 C 18.617 19.087,18.842 19.181,19.200 19.177 C 19.689 19.173,20.068 18.935,20.283 18.497 C 20.375 18.310,20.380 18.264,20.375 17.620 C 20.356 14.925,19.409 12.031,17.800 9.752 C 16.901 8.479,15.600 7.164,14.400 6.315 C 12.003 4.619,9.385 3.730,6.476 3.623 C 6.181 3.612,5.863 3.620,5.769 3.640 M5.736 9.643 C 5.444 9.713,5.153 9.919,5.012 10.156 C 4.697 10.683,4.769 11.243,5.207 11.668 C 5.441 11.896,5.614 11.948,6.377 12.020 C 7.350 12.113,7.942 12.273,8.690 12.646 C 9.267 12.934,9.705 13.250,10.195 13.731 C 10.691 14.217,11.057 14.718,11.362 15.324 C 11.723 16.042,11.887 16.653,11.980 17.620 C 12.056 18.423,12.102 18.566,12.371 18.830 C 12.640 19.095,12.814 19.167,13.197 19.168 C 13.561 19.170,13.729 19.108,13.977 18.878 C 14.355 18.530,14.418 18.284,14.358 17.389 C 14.120 13.848,11.588 10.798,8.140 9.899 C 7.278 9.675,6.117 9.551,5.736 9.643 M5.357 15.698 C 4.800 15.851,4.178 16.357,3.904 16.877 C 3.729 17.210,3.600 17.687,3.600 18.000 C 3.600 18.312,3.729 18.789,3.903 19.120 C 4.062 19.422,4.419 19.809,4.738 20.025 C 5.411 20.481,6.590 20.481,7.260 20.026 C 7.516 19.852,7.852 19.516,8.026 19.260 C 8.481 18.590,8.481 17.411,8.025 16.738 C 7.688 16.239,7.144 15.838,6.618 15.701 C 6.334 15.627,5.620 15.625,5.357 15.698 " fill="#373B4D" stroke="none" fill-rule="evenodd"></path></svg>