<svg width="24" height="24" viewBox="0 0 24 24" fill="none" xmlns="http://www.w3.org/2000/svg"><path d="M5.820 3.676 C 5.754 3.693,5.624 3.746,5.531 3.794 C 4.950 4.092,4.704 4.703,4.958 5.218 C 5.073 5.454,5.289 5.702,5.449 5.785 C 5.620 5.873,6.132 5.975,7.339 6.160 C 9.118 6.433,9.572 6.548,10.520 6.967 C 12.511 7.847,14.045 9.004,15.351 10.610 C 16.029 11.444,16.779 12.754,17.184 13.811 C 17.456 14.523,17.613 15.227,17.899 17.036 C 18.002 17.682,18.121 18.306,18.164 18.421 C 18.327 18.856,18.812 19.153,19.296 19.112 C 19.555 19.090,19.753 18.995,19.997 18.775 C 20.302 18.501,20.334 18.383,20.330 17.560 C 20.321 15.592,19.834 13.611,18.880 11.660 C 18.142 10.149,17.415 9.173,15.975 7.757 C 14.936 6.737,14.314 6.259,13.154 5.594 C 11.783 4.807,10.521 4.306,9.253 4.044 C 8.208 3.829,6.101 3.602,5.820 3.676 M5.578 9.760 C 5.396 9.817,5.151 10.046,5.025 10.279 C 4.825 10.645,4.840 11.078,5.062 11.422 C 5.269 11.740,5.457 11.816,6.750 12.103 C 7.753 12.325,8.115 12.437,8.580 12.670 C 9.696 13.229,10.681 14.168,11.233 15.200 C 11.513 15.722,11.668 16.235,11.983 17.677 C 12.062 18.039,12.163 18.411,12.207 18.505 C 12.513 19.157,13.471 19.326,13.979 18.818 C 14.287 18.510,14.401 18.011,14.326 17.296 C 14.133 15.445,13.330 13.644,12.117 12.345 C 10.943 11.088,9.028 10.054,7.440 9.820 C 6.957 9.749,5.739 9.710,5.578 9.760 M5.344 15.763 C 4.887 15.876,4.164 16.514,3.902 17.036 C 3.619 17.600,3.581 18.100,3.778 18.683 C 3.970 19.248,4.377 19.754,4.880 20.049 C 5.223 20.250,5.468 20.294,6.120 20.270 C 6.776 20.247,6.983 20.179,7.364 19.863 C 7.880 19.435,8.186 18.976,8.282 18.488 C 8.343 18.177,8.311 17.488,8.226 17.252 C 8.007 16.648,7.297 15.977,6.716 15.826 C 6.436 15.753,5.547 15.712,5.344 15.763 " fill="#373B4D" stroke="none" fill-rule="evenodd"></path></svg>