<svg width="24" height="24" viewBox="0 0 24 24" fill="none" xmlns="http://www.w3.org/2000/svg"><path d="M5.738 3.677 C 5.395 3.733,5.017 4.055,4.896 4.393 C 4.867 4.474,4.843 4.665,4.842 4.817 C 4.840 5.149,4.927 5.357,5.174 5.611 C 5.449 5.893,5.548 5.922,6.680 6.047 C 8.660 6.266,9.489 6.463,10.720 7.008 C 12.185 7.655,13.306 8.421,14.424 9.537 C 15.354 10.466,15.896 11.177,16.482 12.240 C 17.353 13.822,17.731 15.124,17.961 17.338 C 18.060 18.295,18.092 18.454,18.229 18.652 C 18.520 19.074,19.031 19.255,19.540 19.116 C 19.768 19.054,20.098 18.792,20.228 18.570 L 20.340 18.380 20.340 17.520 C 20.340 16.327,20.184 15.279,19.819 14.020 C 19.095 11.521,17.932 9.600,15.989 7.694 C 15.211 6.931,14.867 6.651,14.008 6.078 C 11.762 4.580,9.613 3.859,6.861 3.681 C 6.168 3.637,5.987 3.636,5.738 3.677 M5.720 9.677 C 5.103 9.802,4.693 10.538,4.898 11.155 C 4.936 11.269,5.037 11.450,5.122 11.557 C 5.329 11.819,5.542 11.895,6.498 12.044 C 6.917 12.109,7.404 12.197,7.580 12.239 C 8.452 12.447,9.450 13.030,10.199 13.767 C 10.629 14.192,10.914 14.564,11.189 15.062 C 11.628 15.857,11.804 16.425,11.959 17.540 C 12.089 18.471,12.166 18.664,12.522 18.946 C 12.805 19.170,13.350 19.223,13.695 19.060 C 13.888 18.968,14.136 18.723,14.248 18.512 C 14.334 18.351,14.340 18.296,14.337 17.640 C 14.333 16.816,14.235 16.256,13.938 15.366 C 13.060 12.731,10.909 10.691,8.220 9.943 C 7.373 9.708,6.192 9.582,5.720 9.677 M5.447 15.700 C 4.845 15.834,4.146 16.403,3.875 16.980 C 3.743 17.261,3.600 17.790,3.600 17.999 C 3.600 18.189,3.747 18.772,3.853 18.997 C 4.013 19.340,4.483 19.848,4.848 20.072 C 5.143 20.253,5.512 20.338,6.000 20.337 C 6.726 20.335,7.151 20.160,7.656 19.656 C 7.976 19.335,8.117 19.117,8.228 18.766 C 8.472 17.998,8.340 17.143,7.890 16.577 C 7.728 16.372,7.368 16.078,7.057 15.896 C 6.730 15.705,5.885 15.602,5.447 15.700 " fill="#373B4D" stroke="none" fill-rule="evenodd"></path></svg>