<svg width="24" height="24" viewBox="0 0 24 24" fill="none" xmlns="http://www.w3.org/2000/svg"><path d="M5.749 3.684 C 5.431 3.758,5.095 4.015,4.955 4.289 C 4.856 4.484,4.817 4.888,4.876 5.108 C 4.931 5.311,5.188 5.645,5.391 5.778 C 5.568 5.894,5.904 5.959,7.040 6.100 C 9.044 6.349,9.883 6.586,11.320 7.312 C 12.389 7.852,13.125 8.355,14.017 9.157 C 15.172 10.194,16.016 11.315,16.759 12.800 C 17.371 14.022,17.670 15.104,17.897 16.920 C 18.094 18.489,18.110 18.550,18.426 18.841 C 18.668 19.064,18.844 19.133,19.180 19.136 C 19.564 19.139,19.721 19.073,20.019 18.786 C 20.360 18.457,20.377 18.387,20.345 17.440 C 20.302 16.152,20.160 15.219,19.840 14.113 C 19.239 12.042,18.381 10.415,17.046 8.820 C 16.654 8.352,15.507 7.209,15.109 6.891 C 14.309 6.251,13.303 5.606,12.376 5.139 C 10.656 4.273,9.178 3.881,6.947 3.701 C 6.114 3.634,5.970 3.632,5.749 3.684 M5.774 9.679 C 5.108 9.821,4.721 10.494,4.916 11.172 C 4.984 11.409,5.261 11.728,5.471 11.812 C 5.642 11.880,6.137 11.987,6.999 12.140 C 7.318 12.197,7.736 12.296,7.928 12.360 C 9.054 12.738,10.246 13.645,10.914 14.633 C 11.459 15.439,11.733 16.175,11.922 17.344 C 12.093 18.406,12.160 18.599,12.450 18.867 C 12.672 19.071,12.858 19.134,13.244 19.134 C 13.500 19.135,13.576 19.118,13.727 19.030 C 13.938 18.906,14.186 18.643,14.260 18.466 C 14.392 18.147,14.363 17.171,14.196 16.340 C 13.960 15.166,13.308 13.766,12.565 12.840 C 12.261 12.460,11.591 11.794,11.200 11.482 C 10.049 10.562,8.615 9.944,7.174 9.744 C 6.596 9.664,5.979 9.635,5.774 9.679 M5.440 15.706 C 5.239 15.747,4.774 16.001,4.529 16.203 C 3.974 16.662,3.621 17.364,3.625 18.000 C 3.630 18.627,3.949 19.290,4.478 19.769 C 4.928 20.176,5.317 20.320,5.966 20.320 C 6.713 20.320,7.119 20.162,7.601 19.685 C 7.969 19.320,8.085 19.143,8.227 18.731 C 8.317 18.468,8.334 18.352,8.334 17.980 C 8.334 17.518,8.302 17.376,8.089 16.920 C 7.882 16.478,7.258 15.953,6.751 15.794 C 6.501 15.715,5.666 15.659,5.440 15.706 " fill="#373B4D" stroke="none" fill-rule="evenodd"></path></svg>