<svg width="24" height="24" viewBox="0 0 24 24" fill="none" xmlns="http://www.w3.org/2000/svg"><path d="M5.800 3.677 C 5.463 3.745,5.099 4.012,4.965 4.290 C 4.855 4.518,4.816 4.873,4.878 5.094 C 4.942 5.321,5.238 5.697,5.430 5.795 C 5.627 5.895,6.043 5.975,7.020 6.102 C 9.080 6.369,9.764 6.559,11.180 7.258 C 13.732 8.518,15.563 10.356,16.800 12.900 C 17.409 14.153,17.644 15.040,17.919 17.118 C 18.089 18.403,18.124 18.529,18.377 18.781 C 18.657 19.060,18.816 19.126,19.198 19.126 C 19.579 19.126,19.746 19.052,20.051 18.747 C 20.309 18.489,20.360 18.337,20.359 17.835 C 20.358 16.765,20.209 15.555,19.961 14.580 C 19.424 12.476,18.571 10.730,17.303 9.140 C 16.839 8.559,15.567 7.270,15.028 6.835 C 14.594 6.485,13.579 5.805,13.015 5.486 C 12.492 5.190,11.483 4.711,11.040 4.547 C 9.775 4.079,8.610 3.843,6.850 3.699 C 6.082 3.636,6.011 3.635,5.800 3.677 M5.561 9.747 C 5.310 9.856,5.127 10.036,4.997 10.300 C 4.882 10.533,4.873 10.583,4.886 10.871 C 4.898 11.138,4.919 11.216,5.021 11.382 C 5.274 11.791,5.393 11.838,6.948 12.137 C 7.779 12.298,8.035 12.375,8.542 12.623 C 9.882 13.276,10.977 14.424,11.495 15.719 C 11.672 16.160,11.804 16.682,11.942 17.480 C 12.098 18.382,12.164 18.569,12.413 18.817 C 12.654 19.057,12.825 19.120,13.232 19.120 C 13.564 19.120,13.680 19.082,13.900 18.902 C 14.307 18.568,14.404 18.195,14.322 17.267 C 14.233 16.247,13.993 15.390,13.524 14.420 C 12.971 13.275,12.461 12.603,11.492 11.739 C 10.305 10.680,8.701 9.951,7.099 9.741 C 6.500 9.662,5.749 9.665,5.561 9.747 M5.419 15.715 C 5.063 15.807,4.473 16.209,4.180 16.561 C 3.303 17.610,3.534 19.109,4.700 19.941 C 5.115 20.237,5.324 20.296,5.980 20.297 C 6.609 20.298,6.885 20.231,7.237 19.989 C 7.520 19.794,7.933 19.349,8.070 19.092 C 8.283 18.690,8.330 18.456,8.311 17.886 C 8.296 17.427,8.283 17.354,8.171 17.101 C 8.015 16.748,7.787 16.454,7.492 16.223 C 7.168 15.968,6.860 15.813,6.580 15.765 C 6.242 15.707,5.563 15.678,5.419 15.715 " fill="#373B4D" stroke="none" fill-rule="evenodd"></path></svg>