<svg width="24" height="24" viewBox="0 0 24 24" fill="none" xmlns="http://www.w3.org/2000/svg"><path d="M5.789 3.684 C 5.177 3.828,4.770 4.394,4.858 4.979 C 4.891 5.203,5.158 5.612,5.355 5.740 C 5.567 5.878,5.849 5.938,7.139 6.121 C 9.273 6.424,9.819 6.582,11.275 7.319 C 13.056 8.221,14.403 9.327,15.516 10.800 C 15.965 11.395,16.258 11.870,16.665 12.660 C 17.377 14.044,17.591 14.798,17.898 17.004 C 18.061 18.167,18.121 18.439,18.266 18.649 C 18.488 18.970,18.787 19.120,19.206 19.120 C 19.574 19.120,19.757 19.035,20.051 18.726 C 20.321 18.443,20.360 18.320,20.359 17.740 C 20.359 15.942,19.921 13.966,19.119 12.131 C 18.686 11.144,18.022 10.048,17.316 9.160 C 16.861 8.588,15.313 7.045,14.840 6.693 C 13.876 5.975,12.876 5.376,11.852 4.903 C 10.319 4.195,9.036 3.890,6.800 3.700 C 6.018 3.634,6.000 3.634,5.789 3.684 M5.686 9.720 C 5.394 9.782,5.153 9.997,4.975 10.351 C 4.881 10.539,4.872 10.596,4.888 10.875 C 4.902 11.121,4.929 11.229,5.012 11.370 C 5.237 11.754,5.414 11.828,6.740 12.097 C 7.802 12.313,8.065 12.392,8.562 12.641 C 9.212 12.967,9.657 13.292,10.203 13.837 C 11.230 14.865,11.614 15.670,11.940 17.480 C 12.072 18.216,12.134 18.427,12.282 18.650 C 12.501 18.981,12.786 19.120,13.242 19.120 C 13.565 19.120,13.854 18.990,14.058 18.752 C 14.337 18.425,14.405 17.970,14.304 17.098 C 14.097 15.311,13.283 13.553,12.086 12.310 C 10.547 10.709,8.504 9.769,6.422 9.701 C 6.113 9.691,5.781 9.700,5.686 9.720 M5.163 15.819 C 4.400 16.184,3.849 16.843,3.693 17.576 C 3.503 18.467,3.963 19.473,4.805 20.012 C 5.166 20.243,5.351 20.287,5.964 20.288 C 6.822 20.289,7.119 20.166,7.683 19.574 C 8.204 19.027,8.345 18.631,8.309 17.824 C 8.288 17.366,8.281 17.335,8.122 17.014 C 7.857 16.480,7.330 16.013,6.771 15.817 C 6.637 15.770,6.400 15.745,5.980 15.733 C 5.399 15.716,5.373 15.719,5.163 15.819 " fill="#373B4D" stroke="none" fill-rule="evenodd"></path></svg>