<svg width="24" height="24" viewBox="0 0 24 24" fill="none" xmlns="http://www.w3.org/2000/svg"><path d="M5.758 3.694 C 5.238 3.835,4.840 4.332,4.840 4.841 C 4.840 5.033,5.042 5.432,5.238 5.628 C 5.475 5.865,5.616 5.899,7.760 6.219 C 9.090 6.418,9.719 6.593,10.655 7.022 C 12.234 7.746,13.354 8.508,14.441 9.598 C 15.338 10.496,15.900 11.248,16.503 12.360 C 17.297 13.821,17.541 14.624,17.880 16.898 C 17.968 17.493,18.065 18.082,18.094 18.206 C 18.236 18.805,18.631 19.121,19.236 19.119 C 19.513 19.118,19.735 19.021,19.981 18.795 C 20.321 18.482,20.340 18.412,20.338 17.540 C 20.331 15.175,19.519 12.495,18.158 10.352 C 17.531 9.363,16.881 8.607,15.613 7.393 C 14.678 6.497,13.681 5.821,12.220 5.090 C 10.557 4.258,9.193 3.911,6.760 3.701 C 5.948 3.631,5.993 3.631,5.758 3.694 M5.480 9.796 C 5.142 9.983,4.880 10.407,4.880 10.769 C 4.880 11.107,4.980 11.382,5.173 11.575 C 5.379 11.781,5.614 11.861,6.667 12.082 C 7.695 12.297,8.072 12.409,8.540 12.639 C 9.232 12.977,9.907 13.488,10.418 14.060 C 11.267 15.010,11.587 15.718,11.919 17.383 C 12.007 17.825,12.106 18.264,12.140 18.360 C 12.312 18.848,12.699 19.120,13.222 19.120 C 13.991 19.120,14.422 18.491,14.343 17.482 C 14.196 15.586,13.402 13.734,12.156 12.382 C 11.253 11.403,9.884 10.525,8.608 10.107 C 7.758 9.828,7.315 9.753,6.400 9.734 C 5.685 9.719,5.608 9.725,5.480 9.796 M5.277 15.775 C 4.849 15.928,4.334 16.349,4.043 16.783 C 3.701 17.295,3.580 17.854,3.695 18.396 C 3.857 19.159,4.364 19.814,5.040 20.136 C 5.283 20.252,5.334 20.261,5.836 20.274 C 6.762 20.298,7.060 20.192,7.605 19.642 C 8.196 19.046,8.350 18.646,8.309 17.813 C 8.288 17.392,8.276 17.337,8.135 17.050 C 7.925 16.619,7.460 16.152,7.034 15.942 C 6.769 15.812,6.674 15.788,6.314 15.758 C 5.739 15.710,5.444 15.715,5.277 15.775 " fill="#373B4D" stroke="none" fill-rule="evenodd"></path></svg>