<svg width="24" height="24" viewBox="0 0 24 24" fill="none" xmlns="http://www.w3.org/2000/svg"><path d="M15.546 4.282 C 14.427 4.432,13.503 4.564,13.492 4.575 C 13.460 4.607,14.114 4.800,14.253 4.800 C 14.324 4.800,14.598 4.747,14.861 4.683 C 15.124 4.619,15.853 4.456,16.480 4.321 C 17.107 4.186,17.637 4.058,17.658 4.038 C 17.708 3.988,17.857 3.970,15.546 4.282 M17.840 4.590 C 16.685 4.844,15.733 5.058,15.723 5.066 C 15.714 5.074,15.716 5.090,15.728 5.101 C 15.760 5.134,20.883 6.526,20.919 6.512 C 20.937 6.505,20.762 5.965,20.530 5.310 C 20.154 4.250,20.099 4.120,20.024 4.124 C 19.978 4.127,18.995 4.336,17.840 4.590 M11.440 5.445 C 9.506 6.505,9.291 6.645,8.520 7.359 C 8.245 7.614,7.624 8.182,7.140 8.621 C 5.791 9.846,5.949 9.664,4.948 11.144 L 4.323 12.068 4.736 12.474 C 5.015 12.748,5.178 12.880,5.239 12.880 C 5.289 12.880,6.109 12.493,7.062 12.021 L 8.793 11.162 9.248 10.731 C 9.499 10.494,10.398 9.673,11.246 8.906 L 12.788 7.511 13.338 6.433 C 13.641 5.840,13.882 5.348,13.873 5.340 C 13.826 5.292,12.643 4.881,12.560 4.883 C 12.505 4.885,12.001 5.137,11.440 5.445 M14.520 5.397 C 14.453 5.438,13.412 7.505,13.443 7.536 C 13.470 7.563,19.440 6.669,19.440 6.638 C 19.440 6.620,15.104 5.478,14.640 5.374 C 14.607 5.366,14.553 5.377,14.520 5.397 M20.706 7.271 C 20.577 7.463,19.513 9.042,18.342 10.780 C 17.171 12.518,16.202 13.970,16.189 14.006 C 16.165 14.075,19.803 20.083,20.134 20.520 L 20.300 20.740 20.311 20.560 C 20.328 20.301,21.000 7.040,21.000 6.975 C 21.000 6.865,20.935 6.930,20.706 7.271 M16.860 7.502 C 15.100 7.795,13.639 8.036,13.614 8.037 C 13.576 8.040,15.765 13.370,15.836 13.446 C 15.854 13.465,19.721 7.787,20.174 7.076 L 20.248 6.960 20.154 6.964 C 20.102 6.967,18.620 7.209,16.860 7.502 M11.180 9.703 C 10.147 10.635,9.296 11.412,9.290 11.430 C 9.284 11.448,10.337 11.800,11.630 12.212 C 12.922 12.625,14.280 13.059,14.647 13.176 L 15.315 13.390 15.241 13.205 C 15.072 12.782,13.120 8.113,13.091 8.062 C 13.069 8.023,12.541 8.476,11.180 9.703 M7.029 12.675 C 6.175 13.110,5.462 13.483,5.444 13.503 C 5.409 13.543,7.091 17.850,7.149 17.870 C 7.168 17.876,7.268 17.535,7.371 17.111 C 7.474 16.687,7.802 15.346,8.099 14.132 C 8.397 12.917,8.640 11.914,8.640 11.902 C 8.640 11.890,8.627 11.881,8.610 11.881 C 8.594 11.882,7.882 12.239,7.029 12.675 M9.139 11.971 C 9.098 12.087,7.483 18.857,7.494 18.867 C 7.501 18.874,9.197 17.806,11.263 16.494 C 13.329 15.183,15.089 14.065,15.174 14.012 C 15.258 13.958,15.320 13.907,15.311 13.898 C 15.302 13.888,13.937 13.448,12.277 12.920 C 10.618 12.391,9.237 11.950,9.208 11.940 C 9.180 11.930,9.149 11.944,9.139 11.971 M3.542 15.109 C 3.259 16.490,3.019 17.652,3.009 17.690 C 2.999 17.729,3.008 17.760,3.030 17.760 C 3.084 17.760,4.880 13.643,4.880 13.519 C 4.880 13.445,4.773 13.311,4.469 13.009 L 4.058 12.599 3.542 15.109 M4.091 16.670 C 3.515 18.026,3.051 19.144,3.061 19.154 C 3.077 19.170,7.048 19.077,7.071 19.060 C 7.086 19.048,5.201 14.265,5.167 14.231 C 5.151 14.215,4.667 15.313,4.091 16.670 M11.869 16.766 C 9.717 18.133,7.963 19.256,7.969 19.262 C 7.975 19.269,10.608 19.626,13.820 20.057 C 17.032 20.488,19.693 20.848,19.733 20.857 C 19.784 20.869,19.800 20.857,19.785 20.817 C 19.748 20.723,15.822 14.283,15.800 14.282 C 15.789 14.282,14.020 15.400,11.869 16.766 M5.520 19.649 C 4.215 19.683,3.840 19.706,3.840 19.753 C 3.840 19.768,6.788 20.048,10.390 20.374 C 13.992 20.700,17.017 20.977,17.110 20.989 C 17.203 21.001,17.280 20.995,17.280 20.975 C 17.280 20.956,16.762 20.871,16.130 20.787 C 15.497 20.703,13.864 20.482,12.500 20.296 C 9.296 19.859,7.634 19.652,7.160 19.632 C 6.951 19.623,6.213 19.630,5.520 19.649 " fill="#373B4D" stroke="none" fill-rule="evenodd"></path></svg>