<svg width="24" height="24" viewBox="0 0 24 24" fill="none" xmlns="http://www.w3.org/2000/svg"><path d="M16.000 4.222 C 13.872 4.516,13.560 4.564,13.560 4.598 C 13.560 4.632,14.150 4.800,14.270 4.800 C 14.395 4.800,17.406 4.118,17.540 4.059 C 17.707 3.986,17.719 3.985,16.000 4.222 M19.800 4.167 C 18.589 4.423,15.812 5.053,15.786 5.078 C 15.768 5.097,15.813 5.130,15.886 5.154 C 16.279 5.279,20.758 6.480,20.830 6.480 C 20.914 6.480,20.915 6.477,20.854 6.270 C 20.732 5.857,20.205 4.396,20.133 4.272 C 20.045 4.122,20.032 4.118,19.800 4.167 M12.400 4.947 C 11.997 5.121,9.994 6.244,9.519 6.562 C 8.919 6.963,6.192 9.449,5.772 9.977 C 5.631 10.155,5.247 10.699,4.919 11.186 L 4.322 12.073 4.684 12.418 C 5.239 12.945,5.156 12.924,5.704 12.676 C 6.472 12.330,8.546 11.293,8.739 11.160 C 8.838 11.092,9.374 10.619,9.931 10.108 C 10.487 9.598,11.365 8.798,11.882 8.332 L 12.822 7.483 13.336 6.444 C 13.619 5.873,13.841 5.381,13.830 5.352 C 13.813 5.308,12.627 4.870,12.560 4.883 C 12.549 4.885,12.477 4.914,12.400 4.947 M14.439 5.530 C 14.395 5.601,14.150 6.074,13.895 6.580 C 13.442 7.480,13.434 7.500,13.531 7.512 C 13.674 7.530,16.147 7.170,19.030 6.712 C 19.190 6.686,19.320 6.654,19.320 6.639 C 19.320 6.601,18.939 6.495,16.723 5.916 C 15.634 5.632,14.693 5.400,14.631 5.400 C 14.548 5.400,14.498 5.433,14.439 5.530 M16.867 7.500 C 15.111 7.793,13.664 8.043,13.651 8.055 C 13.618 8.088,13.738 8.401,14.442 10.120 C 15.369 12.384,15.755 13.293,15.816 13.353 C 15.862 13.399,15.975 13.256,16.529 12.454 C 18.283 9.911,20.200 7.064,20.200 7.001 C 20.200 6.978,20.168 6.962,20.130 6.963 C 20.091 6.965,18.623 7.207,16.867 7.500 M20.710 7.270 C 20.417 7.690,17.783 11.602,16.897 12.934 L 16.182 14.008 16.317 14.254 C 16.392 14.389,16.884 15.220,17.412 16.100 C 19.212 19.102,20.200 20.680,20.279 20.680 C 20.301 20.680,20.320 20.637,20.320 20.584 C 20.320 20.531,20.356 19.816,20.399 18.994 C 20.536 16.424,20.999 7.168,21.000 6.990 C 21.000 6.900,20.903 6.994,20.710 7.270 M12.854 8.233 C 12.327 8.650,9.340 11.356,9.340 11.416 C 9.340 11.462,9.886 11.649,11.950 12.314 C 14.054 12.991,15.196 13.338,15.226 13.307 C 15.261 13.272,15.125 12.928,14.091 10.444 C 13.282 8.500,13.099 8.080,13.063 8.080 C 13.054 8.080,12.960 8.149,12.854 8.233 M7.020 12.685 C 6.162 13.127,5.454 13.494,5.447 13.500 C 5.420 13.526,6.512 16.374,6.940 17.393 C 7.045 17.642,7.145 17.831,7.163 17.813 C 7.181 17.795,7.348 17.168,7.535 16.420 C 7.905 14.941,8.640 11.934,8.640 11.901 C 8.640 11.889,8.627 11.880,8.610 11.881 C 8.594 11.881,7.878 12.243,7.020 12.685 M9.104 12.150 C 8.953 12.608,7.505 18.759,7.540 18.794 C 7.568 18.822,7.955 18.588,9.569 17.567 C 15.483 13.828,15.240 13.984,15.240 13.918 C 15.240 13.902,15.056 13.824,14.830 13.745 C 14.099 13.490,9.272 11.960,9.198 11.960 C 9.181 11.960,9.138 12.046,9.104 12.150 M4.040 12.625 C 4.040 12.649,3.806 13.808,3.520 15.200 C 3.234 16.592,3.000 17.742,3.000 17.756 C 3.001 17.820,3.177 17.476,3.439 16.898 C 3.797 16.108,4.657 14.109,4.786 13.766 L 4.882 13.513 4.803 13.386 C 4.705 13.229,4.040 12.566,4.040 12.625 M4.998 14.580 C 4.613 15.404,3.138 18.909,3.113 19.060 C 3.101 19.134,3.126 19.141,3.420 19.153 C 3.823 19.169,6.761 19.086,6.922 19.054 C 7.022 19.034,7.038 19.015,7.017 18.945 C 6.966 18.776,6.257 16.950,5.718 15.600 L 5.167 14.220 4.998 14.580 M15.600 14.408 C 13.520 15.719,8.096 19.175,8.043 19.224 C 8.034 19.233,8.035 19.248,8.045 19.258 C 8.076 19.289,19.479 20.840,19.675 20.840 C 19.722 20.840,19.760 20.824,19.760 20.805 C 19.760 20.704,15.863 14.343,15.794 14.330 C 15.764 14.325,15.677 14.360,15.600 14.408 M4.080 19.717 L 3.860 19.742 4.020 19.771 C 4.437 19.848,16.666 20.966,16.968 20.955 C 17.171 20.948,16.663 20.870,14.118 20.522 C 7.724 19.647,8.030 19.678,5.951 19.687 C 5.043 19.690,4.201 19.704,4.080 19.717 " fill="#373B4D" stroke="none" fill-rule="evenodd"></path></svg>