<svg width="24" height="24" viewBox="0 0 24 24" fill="none" xmlns="http://www.w3.org/2000/svg"><path d="M17.320 4.046 C 17.177 4.065,16.403 4.170,15.600 4.279 C 13.617 4.548,13.509 4.565,13.549 4.605 C 13.568 4.624,13.736 4.679,13.923 4.727 L 14.262 4.815 15.301 4.585 C 17.009 4.206,17.577 4.074,17.640 4.037 C 17.714 3.994,17.690 3.995,17.320 4.046 M19.520 4.226 C 17.706 4.615,15.775 5.052,15.748 5.078 C 15.730 5.095,15.784 5.127,15.868 5.150 C 15.951 5.172,16.911 5.434,18.000 5.732 C 20.486 6.411,20.894 6.519,20.913 6.500 C 20.942 6.471,20.282 4.564,20.137 4.259 C 20.101 4.183,20.050 4.122,20.025 4.123 C 20.000 4.125,19.773 4.171,19.520 4.226 M12.300 4.994 C 11.981 5.146,10.450 5.987,9.921 6.301 C 9.689 6.439,9.363 6.657,9.196 6.786 C 8.840 7.060,6.372 9.311,6.018 9.685 C 5.756 9.960,5.464 10.363,4.768 11.407 L 4.323 12.074 4.745 12.477 C 4.977 12.699,5.192 12.880,5.224 12.880 C 5.294 12.880,6.581 12.270,7.848 11.636 C 8.778 11.171,8.804 11.154,9.189 10.791 C 9.560 10.440,11.174 8.968,12.289 7.962 L 12.797 7.505 13.343 6.426 C 13.777 5.568,13.877 5.341,13.831 5.316 C 13.768 5.280,12.604 4.880,12.565 4.880 C 12.551 4.880,12.432 4.931,12.300 4.994 M14.510 5.416 C 14.452 5.474,13.618 7.098,13.504 7.376 L 13.439 7.531 13.710 7.504 C 14.336 7.440,19.326 6.683,19.369 6.645 C 19.398 6.618,18.811 6.457,16.280 5.799 C 14.413 5.314,14.577 5.349,14.510 5.416 M20.857 7.061 C 20.746 7.203,17.574 11.911,16.576 13.414 L 16.182 14.008 16.317 14.254 C 16.518 14.620,18.244 17.493,19.060 18.820 C 19.809 20.039,20.211 20.657,20.279 20.699 C 20.304 20.715,20.320 20.665,20.320 20.570 C 20.320 20.484,20.347 19.912,20.380 19.297 C 20.562 15.882,21.001 7.048,20.991 6.981 C 20.982 6.915,20.960 6.928,20.857 7.061 M16.860 7.502 C 15.100 7.796,13.648 8.038,13.633 8.038 C 13.618 8.039,13.678 8.225,13.765 8.450 C 13.986 9.018,15.301 12.220,15.590 12.891 C 15.809 13.401,15.831 13.436,15.888 13.371 C 16.038 13.199,19.982 7.401,20.215 7.010 C 20.235 6.976,20.216 6.961,20.152 6.964 C 20.102 6.966,18.620 7.208,16.860 7.502 M12.620 8.425 C 12.233 8.758,10.337 10.459,9.635 11.103 L 9.291 11.420 9.395 11.469 C 9.681 11.602,15.238 13.375,15.270 13.344 C 15.290 13.324,14.755 12.022,13.292 8.530 C 13.189 8.283,13.085 8.080,13.062 8.081 C 13.039 8.081,12.840 8.236,12.620 8.425 M7.021 12.682 C 6.164 13.123,5.457 13.489,5.450 13.496 C 5.406 13.541,7.083 17.840,7.145 17.840 C 7.154 17.840,7.181 17.791,7.204 17.730 C 7.241 17.634,8.640 11.954,8.640 11.900 C 8.640 11.889,8.627 11.880,8.610 11.880 C 8.594 11.881,7.879 12.242,7.021 12.682 M8.964 12.670 C 8.197 15.848,7.519 18.742,7.528 18.789 C 7.542 18.853,7.742 18.729,11.840 16.128 C 13.347 15.171,14.738 14.291,14.930 14.170 C 15.123 14.050,15.280 13.936,15.280 13.917 C 15.280 13.899,14.862 13.748,14.350 13.584 C 11.573 12.689,9.261 11.960,9.202 11.960 C 9.148 11.960,9.101 12.102,8.964 12.670 M3.545 15.089 C 3.264 16.459,3.024 17.625,3.012 17.680 C 2.936 18.023,3.339 17.167,4.217 15.120 C 4.917 13.488,4.900 13.533,4.842 13.423 C 4.814 13.372,4.627 13.166,4.424 12.964 L 4.056 12.598 3.545 15.089 M5.089 14.382 C 4.857 14.841,3.080 19.036,3.080 19.127 C 3.080 19.160,3.386 19.165,4.210 19.145 C 6.727 19.087,7.040 19.072,7.040 19.012 C 7.040 18.957,6.173 16.726,5.506 15.062 L 5.170 14.224 5.089 14.382 M15.300 14.593 C 14.167 15.310,8.669 18.807,8.346 19.016 C 8.151 19.142,7.999 19.253,8.008 19.261 C 8.016 19.270,9.157 19.430,10.542 19.617 C 13.218 19.979,19.566 20.834,19.700 20.850 C 19.746 20.856,19.776 20.839,19.770 20.811 C 19.760 20.758,18.745 19.077,17.169 16.502 C 16.630 15.621,16.109 14.770,16.012 14.611 C 15.914 14.452,15.823 14.314,15.807 14.305 C 15.792 14.297,15.564 14.426,15.300 14.593 M4.587 19.680 C 4.195 19.698,3.866 19.721,3.856 19.731 C 3.845 19.742,3.914 19.762,4.008 19.775 C 4.511 19.848,17.243 21.010,17.268 20.986 C 17.298 20.956,16.789 20.881,13.662 20.456 C 7.590 19.632,7.913 19.668,6.520 19.658 C 5.849 19.653,4.979 19.663,4.587 19.680 " fill="#373B4D" stroke="none" fill-rule="evenodd"></path></svg>