<svg width="24" height="24" viewBox="0 0 24 24" fill="none" xmlns="http://www.w3.org/2000/svg"><path d="M17.160 4.069 C 16.043 4.196,13.640 4.561,13.640 4.604 C 13.640 4.642,14.130 4.800,14.249 4.800 C 14.405 4.800,17.198 4.167,17.400 4.085 L 17.500 4.045 17.400 4.049 C 17.345 4.051,17.237 4.060,17.160 4.069 M19.660 4.206 C 18.848 4.358,15.914 5.035,15.863 5.083 C 15.842 5.103,15.876 5.136,15.943 5.162 C 16.169 5.249,20.190 6.328,20.770 6.457 C 20.858 6.477,20.880 6.467,20.880 6.410 C 20.880 6.240,20.152 4.245,20.072 4.194 C 20.009 4.154,19.924 4.157,19.660 4.206 M12.100 5.106 C 11.462 5.432,10.069 6.219,9.720 6.451 C 9.081 6.874,8.075 7.737,6.809 8.949 C 5.908 9.811,5.586 10.194,4.879 11.245 L 4.323 12.070 4.612 12.347 C 5.059 12.777,5.172 12.852,5.328 12.820 C 5.656 12.751,8.600 11.269,8.900 11.021 C 9.052 10.896,9.588 10.413,11.843 8.372 L 12.824 7.484 13.269 6.572 C 13.514 6.070,13.741 5.592,13.775 5.510 C 13.835 5.361,13.835 5.359,13.728 5.304 C 13.607 5.242,12.619 4.880,12.571 4.880 C 12.554 4.880,12.342 4.982,12.100 5.106 M14.460 5.537 C 14.332 5.704,13.480 7.377,13.480 7.461 C 13.480 7.494,13.516 7.520,13.562 7.520 C 13.741 7.520,18.885 6.759,19.150 6.694 C 19.382 6.636,19.190 6.566,17.820 6.205 C 16.562 5.873,14.679 5.400,14.620 5.400 C 14.589 5.400,14.517 5.462,14.460 5.537 M19.960 6.988 C 15.328 7.766,13.696 8.048,13.668 8.076 C 13.629 8.115,14.075 9.256,14.951 11.360 C 15.586 12.884,15.798 13.360,15.842 13.360 C 15.911 13.360,16.740 12.175,18.626 9.380 C 19.715 7.765,20.200 7.028,20.200 6.987 C 20.200 6.959,20.130 6.959,19.960 6.988 M20.835 7.121 C 20.649 7.349,19.509 9.027,17.647 11.813 L 16.181 14.006 16.316 14.253 C 16.643 14.847,18.684 18.226,19.571 19.640 C 19.991 20.310,20.271 20.702,20.305 20.669 C 20.334 20.639,21.010 7.252,20.992 7.061 L 20.980 6.941 20.835 7.121 M12.636 8.426 C 11.900 9.039,9.926 10.834,9.507 11.271 L 9.353 11.430 9.667 11.550 C 10.603 11.907,15.182 13.351,15.229 13.304 C 15.274 13.259,13.131 8.080,13.068 8.080 C 13.059 8.080,12.864 8.236,12.636 8.426 M7.040 12.679 C 6.193 13.118,5.485 13.482,5.467 13.489 C 5.429 13.504,5.743 14.361,6.399 16.040 C 6.916 17.361,7.107 17.789,7.158 17.737 C 7.202 17.693,7.700 15.784,8.218 13.669 C 8.655 11.889,8.657 11.880,8.613 11.881 C 8.595 11.882,7.887 12.241,7.040 12.679 M9.104 12.150 C 8.889 12.803,7.523 18.696,7.575 18.748 C 7.622 18.795,8.055 18.530,11.820 16.147 C 15.040 14.109,15.260 13.963,15.196 13.904 C 15.156 13.867,14.203 13.537,13.240 13.227 C 11.992 12.823,9.233 11.960,9.194 11.960 C 9.179 11.960,9.138 12.046,9.104 12.150 M4.024 12.710 C 3.984 12.839,3.010 17.720,3.025 17.720 C 3.080 17.720,4.200 15.218,4.699 13.980 C 4.776 13.788,4.840 13.580,4.840 13.519 C 4.840 13.435,4.754 13.318,4.476 13.025 C 4.276 12.813,4.097 12.640,4.079 12.640 C 4.060 12.640,4.036 12.672,4.024 12.710 M5.000 14.579 C 4.651 15.327,3.420 18.243,3.179 18.891 C 3.140 18.996,3.122 19.095,3.138 19.111 C 3.210 19.182,6.914 19.100,6.988 19.026 C 7.033 18.980,6.598 17.808,5.686 15.520 L 5.167 14.220 5.000 14.579 M14.775 14.934 C 12.182 16.560,8.080 19.198,8.080 19.239 C 8.080 19.286,9.479 19.484,15.680 20.317 C 19.615 20.846,19.715 20.858,19.745 20.828 C 19.777 20.797,19.512 20.342,18.368 18.460 C 16.630 15.601,15.841 14.360,15.763 14.360 C 15.722 14.360,15.278 14.618,14.775 14.934 M4.080 19.750 C 4.080 19.769,4.391 19.817,4.770 19.854 C 8.898 20.265,16.833 20.980,16.869 20.945 C 16.899 20.914,14.801 20.612,11.440 20.163 C 8.016 19.705,8.549 19.749,6.190 19.730 C 4.945 19.720,4.080 19.728,4.080 19.750 " fill="#373B4D" stroke="none" fill-rule="evenodd"></path></svg>