<svg width="24" height="24" viewBox="0 0 24 24" fill="none" xmlns="http://www.w3.org/2000/svg"><path d="M17.020 4.085 C 15.840 4.232,13.774 4.549,13.687 4.597 C 13.629 4.629,14.100 4.800,14.246 4.800 C 14.425 4.800,17.199 4.164,17.380 4.082 L 17.460 4.045 17.380 4.048 C 17.336 4.049,17.174 4.066,17.020 4.085 M19.220 4.298 C 18.607 4.425,16.515 4.905,16.103 5.012 C 15.895 5.066,15.828 5.136,15.948 5.170 C 17.978 5.748,20.813 6.483,20.854 6.442 C 20.901 6.395,20.757 5.929,20.419 5.030 C 20.128 4.258,20.075 4.159,19.949 4.162 C 19.900 4.163,19.572 4.224,19.220 4.298 M11.968 5.181 C 11.075 5.648,9.881 6.337,9.535 6.585 C 8.468 7.349,6.293 9.363,5.630 10.200 C 5.465 10.409,5.102 10.916,4.825 11.326 L 4.320 12.073 4.670 12.401 C 4.862 12.582,5.075 12.756,5.143 12.789 C 5.257 12.844,5.285 12.841,5.543 12.740 C 5.932 12.588,7.973 11.568,8.489 11.269 C 8.875 11.045,9.113 10.843,10.865 9.260 L 12.813 7.500 13.288 6.530 C 13.549 5.996,13.772 5.508,13.785 5.444 C 13.807 5.334,13.797 5.325,13.574 5.240 C 13.094 5.058,12.595 4.880,12.568 4.881 C 12.553 4.881,12.282 5.016,11.968 5.181 M14.510 5.470 C 14.419 5.573,14.026 6.297,13.729 6.909 C 13.538 7.302,13.481 7.457,13.513 7.489 C 13.546 7.522,13.949 7.478,15.029 7.322 C 17.134 7.020,19.044 6.725,19.160 6.684 C 19.259 6.649,19.258 6.648,19.103 6.581 C 19.016 6.543,18.620 6.424,18.223 6.315 C 17.454 6.105,14.670 5.400,14.609 5.400 C 14.589 5.400,14.545 5.431,14.510 5.470 M18.340 7.260 C 14.653 7.886,13.739 8.049,13.701 8.085 C 13.652 8.131,13.736 8.372,14.221 9.580 C 15.057 11.659,15.786 13.360,15.843 13.360 C 15.890 13.360,16.464 12.559,17.446 11.120 C 18.516 9.553,20.154 7.101,20.185 7.020 C 20.201 6.979,20.185 6.961,20.134 6.964 C 20.093 6.966,19.286 7.099,18.340 7.260 M20.893 7.050 C 20.725 7.237,19.085 9.648,17.179 12.511 L 16.186 14.002 16.255 14.146 C 16.341 14.327,18.134 17.315,18.999 18.720 C 19.668 19.806,20.161 20.558,20.256 20.636 C 20.299 20.672,20.313 20.608,20.334 20.290 C 20.376 19.661,20.545 16.411,20.738 12.540 C 20.974 7.799,21.010 6.997,20.990 6.977 C 20.981 6.968,20.937 7.001,20.893 7.050 M12.517 8.532 C 11.875 9.075,10.391 10.415,9.788 10.998 L 9.355 11.415 9.463 11.472 C 9.704 11.598,13.848 12.934,14.830 13.203 C 15.012 13.252,15.173 13.281,15.187 13.266 C 15.222 13.232,15.066 12.822,14.419 11.240 C 13.787 9.693,13.132 8.156,13.087 8.111 C 13.069 8.093,12.813 8.283,12.517 8.532 M7.040 12.681 C 5.559 13.448,5.500 13.483,5.505 13.590 C 5.510 13.713,5.971 14.962,6.526 16.360 C 6.910 17.328,7.077 17.692,7.139 17.697 C 7.196 17.701,7.366 17.071,8.016 14.460 C 8.662 11.865,8.659 11.879,8.613 11.882 C 8.595 11.882,7.887 12.242,7.040 12.681 M9.105 12.150 C 8.958 12.600,8.238 15.615,7.827 17.500 C 7.560 18.720,7.553 18.760,7.597 18.760 C 7.657 18.760,8.961 17.957,11.186 16.550 C 14.560 14.416,15.161 14.024,15.188 13.937 C 15.206 13.881,14.285 13.558,12.360 12.947 C 10.507 12.359,9.224 11.960,9.191 11.960 C 9.177 11.960,9.139 12.046,9.105 12.150 M4.028 12.694 C 3.984 12.809,3.036 17.608,3.050 17.649 C 3.091 17.772,4.840 13.747,4.840 13.528 C 4.840 13.435,4.715 13.274,4.344 12.890 C 4.088 12.625,4.061 12.608,4.028 12.694 M5.089 14.382 C 4.877 14.800,3.456 18.149,3.215 18.798 C 3.157 18.955,3.123 19.096,3.138 19.111 C 3.204 19.177,6.919 19.094,6.988 19.026 C 7.031 18.982,6.355 17.176,5.466 14.962 L 5.170 14.224 5.089 14.382 M15.114 14.731 C 13.604 15.644,8.156 19.150,8.131 19.225 C 8.109 19.293,8.732 19.384,14.920 20.217 C 19.142 20.785,19.631 20.848,19.703 20.832 C 19.780 20.816,19.664 20.601,18.867 19.280 C 17.146 16.429,15.841 14.360,15.763 14.360 C 15.744 14.360,15.452 14.527,15.114 14.731 M4.227 19.749 C 4.212 19.774,4.275 19.799,4.391 19.814 C 4.867 19.876,9.743 20.337,12.900 20.618 C 16.181 20.911,16.683 20.949,16.637 20.904 C 16.598 20.865,10.338 20.003,8.900 19.837 C 8.359 19.775,7.814 19.754,6.236 19.733 C 4.885 19.715,4.245 19.720,4.227 19.749 M16.712 20.947 C 16.741 20.959,16.776 20.957,16.789 20.944 C 16.802 20.931,16.779 20.921,16.737 20.923 C 16.690 20.925,16.681 20.935,16.712 20.947 " fill="#373B4D" stroke="none" fill-rule="evenodd"></path></svg>