<svg width="24" height="24" viewBox="0 0 24 24" fill="none" xmlns="http://www.w3.org/2000/svg"><path d="M15.875 4.238 C 13.934 4.512,13.600 4.565,13.600 4.599 C 13.600 4.615,13.740 4.670,13.910 4.721 L 14.220 4.814 14.652 4.726 C 15.303 4.594,17.155 4.169,17.360 4.104 L 17.540 4.048 17.380 4.048 C 17.292 4.048,16.615 4.134,15.875 4.238 M18.120 4.538 C 15.865 5.045,15.828 5.054,15.826 5.100 C 15.824 5.144,15.984 5.190,17.940 5.718 C 20.257 6.343,20.842 6.492,20.869 6.464 C 20.884 6.450,20.874 6.357,20.848 6.258 C 20.787 6.030,20.269 4.576,20.164 4.339 C 20.090 4.171,20.075 4.160,19.932 4.162 C 19.849 4.163,19.033 4.332,18.120 4.538 M12.050 5.125 C 11.461 5.433,10.430 6.010,9.880 6.341 C 9.226 6.734,7.892 7.881,6.485 9.259 C 5.759 9.971,5.549 10.235,4.688 11.527 L 4.323 12.073 4.702 12.436 C 4.911 12.636,5.129 12.811,5.186 12.825 C 5.252 12.842,5.370 12.819,5.515 12.761 C 6.017 12.560,8.635 11.238,8.821 11.091 C 8.930 11.005,9.731 10.287,10.601 9.497 C 11.470 8.707,12.323 7.934,12.496 7.780 L 12.811 7.500 13.237 6.640 C 13.471 6.167,13.702 5.684,13.750 5.567 L 13.838 5.355 13.620 5.258 C 13.381 5.153,12.614 4.880,12.556 4.880 C 12.536 4.880,12.308 4.990,12.050 5.125 M14.508 5.450 C 14.428 5.510,13.480 7.365,13.480 7.462 C 13.480 7.540,13.456 7.542,14.800 7.355 C 15.589 7.245,18.846 6.751,19.150 6.695 C 19.339 6.660,19.310 6.614,19.050 6.539 C 18.243 6.304,14.734 5.400,14.630 5.400 C 14.600 5.400,14.545 5.423,14.508 5.450 M17.120 7.461 C 15.503 7.734,14.058 7.979,13.910 8.005 C 13.762 8.031,13.640 8.067,13.640 8.086 C 13.640 8.132,14.004 9.060,14.399 10.020 C 15.547 12.812,15.784 13.360,15.846 13.360 C 15.864 13.360,15.976 13.230,16.093 13.070 C 16.693 12.257,20.200 7.073,20.200 6.999 C 20.200 6.978,20.168 6.961,20.130 6.963 C 20.091 6.964,18.737 7.188,17.120 7.461 M20.871 7.070 C 20.755 7.192,19.659 8.806,17.567 11.933 L 16.181 14.006 16.317 14.253 C 16.745 15.028,19.343 19.309,19.908 20.170 C 20.218 20.642,20.320 20.757,20.320 20.630 C 20.320 20.602,20.365 19.725,20.420 18.680 C 20.474 17.635,20.618 14.800,20.738 12.380 C 20.859 9.960,20.969 7.750,20.984 7.470 C 20.998 7.190,21.002 6.960,20.993 6.960 C 20.983 6.960,20.928 7.010,20.871 7.070 M12.692 8.373 C 11.739 9.168,9.352 11.356,9.372 11.417 C 9.389 11.467,10.046 11.698,11.660 12.219 C 13.926 12.951,15.195 13.338,15.227 13.306 C 15.257 13.276,15.018 12.673,14.180 10.660 C 13.290 8.522,13.099 8.080,13.064 8.080 C 13.052 8.080,12.885 8.212,12.692 8.373 M7.020 12.686 C 6.162 13.128,5.454 13.495,5.448 13.501 C 5.416 13.528,6.798 17.103,7.021 17.572 C 7.082 17.700,7.147 17.789,7.165 17.771 C 7.211 17.725,8.640 12.036,8.640 11.901 C 8.640 11.889,8.627 11.880,8.610 11.881 C 8.594 11.881,7.878 12.244,7.020 12.686 M9.104 12.150 C 8.913 12.731,7.546 18.587,7.568 18.729 C 7.583 18.822,7.779 18.703,11.480 16.361 C 15.355 13.909,15.273 13.963,15.183 13.897 C 15.108 13.842,13.864 13.422,12.360 12.944 C 11.025 12.519,9.226 11.960,9.195 11.960 C 9.179 11.960,9.138 12.046,9.104 12.150 M4.021 12.730 C 3.919 13.173,3.003 17.736,3.013 17.747 C 3.051 17.785,4.176 15.274,4.688 14.008 C 4.884 13.524,4.886 13.515,4.817 13.408 C 4.730 13.273,4.117 12.640,4.074 12.640 C 4.056 12.640,4.032 12.681,4.021 12.730 M4.999 14.580 C 4.570 15.497,3.120 18.958,3.120 19.064 C 3.120 19.161,3.309 19.171,4.595 19.142 C 6.205 19.105,6.949 19.067,6.998 19.018 C 7.038 18.978,6.619 17.860,5.686 15.520 L 5.167 14.220 4.999 14.580 M15.636 14.397 C 15.302 14.577,8.040 19.210,8.040 19.243 C 8.040 19.256,8.252 19.297,8.510 19.334 C 10.598 19.632,18.914 20.758,19.517 20.824 C 19.757 20.850,19.771 20.847,19.744 20.776 C 19.647 20.522,15.897 14.400,15.804 14.342 C 15.787 14.332,15.711 14.356,15.636 14.397 M4.420 19.716 C 4.049 19.733,3.940 19.748,4.040 19.769 C 4.376 19.840,15.356 20.853,16.680 20.936 L 16.980 20.955 16.700 20.898 C 16.242 20.806,10.302 19.994,8.800 19.818 C 8.010 19.726,7.719 19.712,6.420 19.702 C 5.606 19.696,4.706 19.702,4.420 19.716 " fill="#373B4D" stroke="none" fill-rule="evenodd"></path></svg>