<svg width="24" height="24" viewBox="0 0 24 24" fill="none" xmlns="http://www.w3.org/2000/svg"><path d="M10.760 3.104 C 8.690 3.487,7.055 4.301,5.725 5.611 C 4.260 7.055,3.348 8.869,3.099 10.837 C 3.006 11.567,3.033 12.850,3.156 13.540 C 3.487 15.405,4.382 17.084,5.745 18.401 C 7.326 19.928,9.224 20.786,11.421 20.968 C 13.477 21.138,15.844 20.387,17.590 19.010 C 17.966 18.713,18.608 18.081,18.919 17.700 C 19.988 16.390,20.652 14.893,20.897 13.235 C 20.971 12.738,20.982 11.438,20.918 10.919 C 20.473 7.333,17.741 4.213,14.280 3.338 C 13.548 3.153,13.167 3.113,11.980 3.099 C 11.364 3.092,10.815 3.094,10.760 3.104 M11.840 4.960 L 11.840 5.800 12.000 5.800 L 12.160 5.800 12.160 4.960 L 12.160 4.120 12.277 4.120 C 12.342 4.120,12.440 4.137,12.496 4.158 L 12.597 4.197 12.572 4.601 L 12.548 5.006 12.682 4.993 L 12.817 4.980 12.892 4.600 C 12.934 4.391,12.973 4.214,12.980 4.207 C 13.020 4.165,13.281 4.259,13.301 4.323 C 13.314 4.363,13.269 4.733,13.201 5.144 C 13.134 5.555,13.083 5.896,13.089 5.901 C 13.095 5.906,13.155 5.922,13.222 5.937 L 13.344 5.963 13.495 5.276 C 13.669 4.490,13.699 4.407,13.827 4.375 C 14.029 4.324,14.044 4.360,14.014 4.844 C 13.983 5.365,14.017 5.396,14.227 5.037 C 14.488 4.590,14.497 4.579,14.601 4.594 C 14.751 4.615,14.808 4.680,14.781 4.797 C 14.768 4.854,14.646 5.195,14.511 5.555 C 14.277 6.182,14.269 6.213,14.341 6.265 C 14.455 6.349,14.478 6.335,14.567 6.130 C 14.762 5.678,15.153 4.889,15.194 4.864 C 15.243 4.833,15.360 4.886,15.455 4.981 C 15.510 5.035,15.504 5.068,15.401 5.298 C 15.243 5.649,15.229 5.800,15.354 5.800 C 15.444 5.800,15.505 5.731,15.697 5.410 C 15.779 5.272,15.858 5.165,15.873 5.172 C 16.057 5.257,16.200 5.345,16.200 5.371 C 16.200 5.437,16.035 5.714,15.683 6.239 L 15.322 6.777 15.445 6.855 C 15.523 6.904,15.577 6.918,15.594 6.891 C 15.608 6.869,15.809 6.579,16.040 6.246 C 16.344 5.809,16.482 5.642,16.541 5.641 C 16.648 5.640,16.800 5.748,16.800 5.827 C 16.800 5.862,16.708 6.014,16.596 6.166 C 16.391 6.442,16.371 6.536,16.507 6.588 C 16.558 6.608,16.645 6.539,16.845 6.320 L 17.114 6.026 17.299 6.177 C 17.452 6.303,17.475 6.338,17.434 6.387 C 17.303 6.545,16.148 7.344,13.128 9.366 L 10.876 10.873 9.293 13.227 C 7.085 16.509,6.512 17.324,6.379 17.375 C 6.303 17.404,6.210 17.347,6.090 17.198 L 5.999 17.086 6.319 16.833 C 6.496 16.694,6.640 16.570,6.640 16.557 C 6.640 16.544,6.599 16.496,6.550 16.450 L 6.460 16.366 6.143 16.626 L 5.825 16.887 5.757 16.796 C 5.719 16.746,5.660 16.658,5.626 16.599 L 5.563 16.494 5.992 16.192 C 6.592 15.770,6.840 15.568,6.840 15.499 C 6.840 15.376,6.650 15.450,6.122 15.774 C 5.354 16.248,5.400 16.229,5.311 16.118 C 5.188 15.966,5.234 15.846,5.496 15.643 C 5.949 15.291,5.907 15.208,5.371 15.397 C 5.003 15.527,4.986 15.529,4.934 15.459 C 4.847 15.340,4.870 15.213,4.992 15.126 C 5.054 15.082,5.292 14.958,5.522 14.850 C 5.991 14.630,6.280 14.458,6.280 14.399 C 6.280 14.292,5.910 14.388,5.086 14.707 C 4.687 14.861,4.671 14.859,4.615 14.650 C 4.579 14.514,4.620 14.452,4.808 14.357 C 5.019 14.251,5.240 14.089,5.240 14.040 C 5.240 14.019,5.074 14.013,4.849 14.027 L 4.458 14.051 4.407 13.939 C 4.362 13.841,4.365 13.817,4.428 13.755 C 4.496 13.687,4.883 13.572,5.570 13.418 C 5.914 13.340,5.986 13.291,5.908 13.185 C 5.861 13.120,5.812 13.124,5.108 13.242 C 4.695 13.311,4.331 13.358,4.299 13.345 C 4.258 13.330,4.240 13.262,4.240 13.128 L 4.240 12.934 4.542 12.887 C 4.902 12.831,5.000 12.786,5.000 12.674 C 5.000 12.593,4.987 12.591,4.628 12.618 C 4.199 12.651,4.185 12.643,4.143 12.350 L 4.115 12.160 4.958 12.160 L 5.800 12.160 5.800 12.024 L 5.800 11.887 5.046 11.874 C 4.196 11.858,4.160 11.847,4.160 11.595 L 4.160 11.440 4.580 11.440 L 5.000 11.440 5.000 11.339 C 5.000 11.221,4.923 11.180,4.585 11.122 C 4.312 11.074,4.240 11.027,4.240 10.897 C 4.240 10.692,4.447 10.683,5.415 10.844 C 5.676 10.888,5.894 10.918,5.900 10.912 C 5.906 10.905,5.922 10.846,5.937 10.779 L 5.962 10.658 5.181 10.504 L 4.400 10.350 4.400 10.149 L 4.400 9.948 4.730 9.980 C 5.401 10.044,5.455 9.989,4.965 9.742 C 4.649 9.583,4.590 9.523,4.607 9.376 C 4.631 9.172,4.696 9.177,5.458 9.452 C 5.854 9.595,6.199 9.703,6.225 9.692 C 6.252 9.682,6.284 9.647,6.297 9.614 C 6.314 9.569,6.165 9.480,5.690 9.252 C 4.788 8.818,4.752 8.786,4.930 8.580 L 5.020 8.476 5.316 8.598 C 5.925 8.850,5.970 8.707,5.403 8.322 L 5.158 8.155 5.246 7.998 C 5.295 7.911,5.364 7.840,5.401 7.840 C 5.473 7.840,5.910 8.097,6.438 8.451 L 6.776 8.678 6.847 8.569 C 6.903 8.484,6.908 8.451,6.869 8.414 C 6.842 8.388,6.538 8.180,6.192 7.953 L 5.565 7.539 5.686 7.329 L 5.807 7.119 5.913 7.197 C 5.972 7.240,6.119 7.357,6.239 7.457 L 6.459 7.639 6.556 7.542 L 6.653 7.446 6.516 7.333 C 6.441 7.271,6.301 7.147,6.205 7.057 C 6.030 6.894,6.029 6.894,6.098 6.789 C 6.260 6.542,6.394 6.608,7.088 7.276 L 7.548 7.718 7.642 7.618 L 7.736 7.518 7.395 7.169 C 6.633 6.390,6.562 6.262,6.796 6.089 L 6.911 6.004 7.162 6.322 C 7.299 6.497,7.421 6.640,7.433 6.640 C 7.445 6.640,7.495 6.602,7.544 6.556 L 7.633 6.472 7.394 6.146 L 7.155 5.820 7.286 5.710 C 7.358 5.650,7.445 5.600,7.478 5.601 C 7.512 5.601,7.718 5.853,7.936 6.160 C 8.154 6.468,8.365 6.748,8.405 6.784 C 8.475 6.848,8.600 6.838,8.600 6.768 C 8.600 6.750,8.472 6.519,8.316 6.257 C 8.160 5.995,7.988 5.693,7.934 5.587 C 7.826 5.375,7.834 5.347,8.045 5.196 L 8.157 5.117 8.294 5.388 C 8.369 5.538,8.466 5.703,8.508 5.755 C 8.577 5.840,8.596 5.845,8.683 5.800 C 8.736 5.772,8.785 5.745,8.791 5.741 C 8.797 5.736,8.748 5.617,8.683 5.476 C 8.510 5.102,8.497 5.023,8.597 4.923 C 8.780 4.740,8.861 4.842,9.244 5.730 C 9.470 6.253,9.508 6.317,9.579 6.295 C 9.762 6.239,9.759 6.219,9.476 5.509 C 9.325 5.130,9.201 4.792,9.201 4.758 C 9.200 4.659,9.285 4.600,9.429 4.600 C 9.554 4.600,9.569 4.616,9.702 4.896 C 9.862 5.234,9.945 5.327,10.004 5.237 C 10.024 5.206,10.032 5.144,10.020 5.100 C 10.009 5.056,9.988 4.888,9.974 4.726 C 9.946 4.410,9.969 4.362,10.149 4.361 C 10.281 4.360,10.337 4.503,10.506 5.275 L 10.656 5.963 10.778 5.937 C 10.845 5.922,10.905 5.906,10.911 5.901 C 10.917 5.896,10.886 5.669,10.842 5.396 C 10.688 4.426,10.693 4.240,10.879 4.240 C 10.997 4.240,11.068 4.340,11.097 4.548 C 11.145 4.888,11.197 5.006,11.294 4.992 C 11.373 4.981,11.382 4.951,11.400 4.616 C 11.423 4.190,11.464 4.120,11.685 4.120 L 11.840 4.120 11.840 4.960 M17.854 6.735 L 17.998 6.911 17.696 7.158 C 17.395 7.405,17.352 7.489,17.485 7.572 C 17.536 7.604,17.617 7.564,17.865 7.385 L 18.180 7.156 18.290 7.287 C 18.351 7.358,18.400 7.447,18.400 7.483 C 18.400 7.519,18.288 7.626,18.150 7.722 C 17.717 8.022,17.120 8.487,17.120 8.524 C 17.120 8.544,17.172 8.560,17.235 8.560 C 17.308 8.560,17.551 8.438,17.906 8.223 C 18.613 7.795,18.635 7.789,18.770 7.992 L 18.874 8.150 18.547 8.365 C 18.042 8.697,18.089 8.815,18.648 8.620 C 18.805 8.565,18.949 8.520,18.966 8.520 C 19.004 8.520,19.220 8.835,19.196 8.855 C 19.187 8.862,18.843 9.017,18.430 9.198 C 18.018 9.380,17.680 9.541,17.680 9.555 C 17.680 9.570,17.707 9.620,17.739 9.667 C 17.798 9.751,17.800 9.750,18.502 9.474 C 18.896 9.318,19.237 9.206,19.276 9.219 C 19.315 9.231,19.371 9.286,19.400 9.340 C 19.467 9.466,19.407 9.541,19.109 9.700 C 18.877 9.824,18.760 9.914,18.760 9.969 C 18.760 9.989,18.940 10.000,19.166 9.993 L 19.573 9.980 19.604 10.093 C 19.621 10.156,19.626 10.231,19.615 10.260 C 19.591 10.322,19.165 10.440,18.509 10.566 L 18.037 10.657 18.063 10.778 C 18.078 10.845,18.094 10.905,18.099 10.911 C 18.104 10.917,18.439 10.867,18.842 10.801 C 19.246 10.734,19.608 10.690,19.647 10.702 C 19.720 10.725,19.786 10.955,19.748 11.054 C 19.724 11.117,19.510 11.159,19.207 11.160 L 18.995 11.160 19.007 11.290 L 19.020 11.420 19.430 11.406 L 19.840 11.392 19.840 11.571 C 19.840 11.851,19.818 11.858,18.954 11.874 L 18.200 11.887 18.200 12.024 L 18.200 12.160 19.040 12.160 L 19.880 12.160 19.880 12.250 C 19.879 12.300,19.868 12.410,19.854 12.495 L 19.828 12.649 19.544 12.623 C 19.388 12.608,19.200 12.586,19.127 12.573 C 19.004 12.552,18.994 12.557,19.007 12.645 C 19.024 12.772,19.237 12.873,19.555 12.906 L 19.804 12.932 19.777 13.156 C 19.762 13.279,19.748 13.383,19.745 13.387 C 19.742 13.390,19.461 13.343,19.120 13.281 C 18.121 13.101,18.132 13.102,18.079 13.202 C 18.053 13.250,18.048 13.304,18.066 13.322 C 18.085 13.341,18.429 13.428,18.830 13.516 C 19.232 13.604,19.580 13.687,19.603 13.702 C 19.649 13.730,19.615 14.035,19.559 14.095 C 19.541 14.114,19.357 14.088,19.144 14.037 C 18.934 13.986,18.749 13.958,18.732 13.974 C 18.674 14.033,18.793 14.143,19.056 14.272 C 19.351 14.418,19.426 14.526,19.358 14.705 C 19.308 14.837,19.271 14.831,18.556 14.567 C 17.883 14.319,17.788 14.297,17.721 14.379 C 17.692 14.414,17.676 14.449,17.684 14.457 C 17.693 14.466,18.017 14.625,18.403 14.811 C 18.790 14.996,19.117 15.175,19.130 15.209 C 19.160 15.287,19.012 15.533,18.948 15.509 C 18.394 15.305,18.240 15.264,18.196 15.308 C 18.131 15.373,18.314 15.543,18.634 15.714 L 18.876 15.842 18.795 15.979 C 18.640 16.243,18.553 16.219,17.751 15.686 L 17.201 15.322 17.138 15.445 C 17.103 15.512,17.080 15.572,17.087 15.578 C 17.094 15.583,17.289 15.719,17.520 15.880 C 18.073 16.263,18.311 16.448,18.339 16.515 C 18.364 16.577,18.244 16.805,18.174 16.829 C 18.150 16.837,17.994 16.736,17.829 16.605 L 17.529 16.366 17.434 16.466 L 17.340 16.567 17.539 16.734 C 17.648 16.825,17.791 16.947,17.857 17.005 L 17.977 17.111 17.823 17.299 L 17.668 17.488 17.062 16.882 L 16.456 16.277 16.360 16.380 L 16.264 16.482 16.605 16.831 C 17.367 17.610,17.438 17.738,17.204 17.911 L 17.089 17.996 16.838 17.678 C 16.701 17.503,16.579 17.360,16.567 17.360 C 16.555 17.360,16.505 17.398,16.456 17.444 L 16.366 17.528 16.605 17.849 C 16.836 18.161,16.841 18.173,16.771 18.249 C 16.732 18.293,16.653 18.352,16.596 18.382 C 16.492 18.436,16.489 18.433,16.158 17.968 C 15.714 17.343,15.562 17.160,15.490 17.160 C 15.379 17.160,15.470 17.396,15.803 17.965 C 16.163 18.580,16.181 18.673,15.974 18.803 L 15.849 18.882 15.700 18.611 C 15.521 18.284,15.451 18.200,15.354 18.200 C 15.245 18.200,15.261 18.370,15.401 18.699 C 15.466 18.852,15.520 18.990,15.520 19.004 C 15.520 19.050,15.241 19.165,15.196 19.138 C 15.173 19.123,15.009 18.816,14.833 18.455 C 14.533 17.842,14.403 17.658,14.339 17.761 C 14.301 17.823,14.351 18.008,14.565 18.590 C 14.672 18.881,14.760 19.164,14.760 19.219 C 14.760 19.322,14.602 19.461,14.517 19.432 C 14.491 19.424,14.395 19.274,14.303 19.099 C 14.044 18.608,13.893 18.661,14.040 19.191 C 14.144 19.566,14.142 19.589,14.001 19.620 C 13.724 19.681,13.691 19.620,13.476 18.632 L 13.347 18.045 13.224 18.068 C 13.156 18.081,13.097 18.094,13.093 18.096 C 13.089 18.099,13.142 18.449,13.210 18.874 C 13.302 19.436,13.324 19.665,13.294 19.713 C 13.242 19.796,13.028 19.822,12.970 19.752 C 12.946 19.723,12.907 19.557,12.883 19.381 C 12.833 19.027,12.811 18.987,12.675 19.007 C 12.583 19.020,12.580 19.032,12.569 19.450 L 12.557 19.880 12.359 19.880 L 12.160 19.880 12.160 19.040 L 12.160 18.200 12.000 18.200 L 11.840 18.200 11.840 19.040 L 11.840 19.880 11.640 19.880 L 11.440 19.880 11.440 19.537 C 11.440 19.211,11.399 19.040,11.321 19.040 C 11.240 19.040,11.163 19.174,11.119 19.390 C 11.046 19.754,10.933 19.870,10.761 19.762 C 10.682 19.711,10.697 19.443,10.820 18.721 C 10.875 18.398,10.903 18.127,10.884 18.108 C 10.865 18.089,10.807 18.079,10.755 18.087 C 10.667 18.099,10.647 18.154,10.479 18.829 C 10.380 19.230,10.278 19.578,10.254 19.602 C 10.230 19.626,10.158 19.640,10.095 19.633 C 9.951 19.617,9.932 19.506,10.000 19.086 C 10.036 18.862,10.036 18.780,10.001 18.746 C 9.939 18.685,9.834 18.815,9.653 19.174 C 9.524 19.430,9.508 19.446,9.408 19.421 C 9.151 19.356,9.152 19.322,9.441 18.565 C 9.658 17.994,9.710 17.783,9.642 17.741 C 9.558 17.689,9.477 17.811,9.156 18.469 C 8.980 18.829,8.811 19.134,8.780 19.145 C 8.724 19.167,8.480 19.046,8.480 18.996 C 8.480 18.982,8.543 18.832,8.620 18.663 C 8.776 18.321,8.788 18.248,8.699 18.214 C 8.623 18.185,8.522 18.273,8.293 18.570 C 8.195 18.697,8.091 18.800,8.061 18.800 C 8.031 18.800,7.951 18.754,7.884 18.697 L 7.762 18.595 8.204 17.934 C 8.447 17.570,8.637 17.249,8.625 17.219 C 8.614 17.189,8.568 17.146,8.524 17.122 C 8.434 17.074,8.476 17.026,7.909 17.823 C 7.720 18.088,7.538 18.328,7.505 18.356 C 7.437 18.412,7.343 18.376,7.228 18.249 C 7.159 18.173,7.165 18.161,7.395 17.849 L 7.634 17.528 7.544 17.444 C 7.495 17.398,7.445 17.360,7.434 17.360 C 7.422 17.360,7.298 17.503,7.158 17.677 L 6.903 17.993 6.752 17.873 C 6.668 17.807,6.600 17.739,6.600 17.722 C 6.600 17.651,6.785 17.465,7.093 17.226 C 7.438 16.958,8.419 16.287,11.300 14.351 C 12.268 13.700,13.098 13.126,13.143 13.074 C 13.189 13.022,13.971 11.873,14.880 10.520 C 15.790 9.167,16.665 7.871,16.826 7.640 C 17.186 7.122,17.628 6.560,17.675 6.560 C 17.695 6.560,17.775 6.639,17.854 6.735 " fill="#373B4D" stroke="none" fill-rule="evenodd"></path></svg>