<svg width="24" height="24" viewBox="0 0 24 24" fill="none" xmlns="http://www.w3.org/2000/svg"><path d="M11.340 3.024 C 10.432 3.118,9.865 3.233,9.160 3.466 C 5.847 4.561,3.468 7.496,3.059 10.992 C 2.744 13.685,3.704 16.422,5.641 18.359 C 7.803 20.522,10.920 21.441,13.908 20.797 C 14.897 20.584,16.082 20.086,16.920 19.531 C 19.182 18.034,20.627 15.691,20.941 13.008 C 21.254 10.329,20.295 7.579,18.379 5.661 C 17.000 4.281,15.242 3.391,13.320 3.101 C 12.911 3.039,11.662 2.991,11.340 3.024 M11.840 4.960 L 11.840 5.800 12.000 5.800 L 12.160 5.800 12.160 4.960 L 12.160 4.120 12.275 4.120 C 12.338 4.120,12.447 4.131,12.517 4.145 C 12.628 4.168,12.641 4.184,12.624 4.275 C 12.613 4.333,12.592 4.519,12.577 4.690 L 12.551 5.000 12.692 5.000 C 12.848 5.000,12.825 5.067,12.906 4.385 L 12.929 4.190 13.152 4.216 C 13.275 4.231,13.380 4.246,13.384 4.251 C 13.389 4.256,13.320 4.625,13.230 5.071 C 13.141 5.517,13.075 5.888,13.084 5.896 C 13.093 5.904,13.156 5.923,13.224 5.937 L 13.349 5.964 13.504 5.179 C 13.589 4.748,13.670 4.376,13.685 4.352 C 13.728 4.283,14.120 4.392,14.119 4.474 C 14.119 4.510,14.074 4.684,14.019 4.860 C 13.965 5.036,13.920 5.192,13.920 5.206 C 13.920 5.220,13.975 5.251,14.042 5.275 C 14.181 5.323,14.169 5.343,14.321 4.827 C 14.423 4.481,14.419 4.483,14.748 4.621 C 14.863 4.669,14.875 4.687,14.843 4.768 C 14.823 4.819,14.686 5.148,14.540 5.500 C 14.393 5.852,14.264 6.160,14.254 6.184 C 14.236 6.227,14.465 6.348,14.499 6.314 C 14.509 6.305,14.654 5.965,14.822 5.559 C 14.990 5.152,15.134 4.812,15.144 4.803 C 15.169 4.778,15.560 4.969,15.560 5.007 C 15.560 5.026,15.477 5.194,15.375 5.382 C 15.274 5.570,15.197 5.730,15.205 5.737 C 15.243 5.769,15.398 5.840,15.431 5.840 C 15.451 5.840,15.489 5.791,15.517 5.730 C 15.544 5.670,15.629 5.507,15.705 5.369 L 15.845 5.118 15.955 5.183 C 16.016 5.219,16.107 5.280,16.157 5.318 L 16.249 5.387 15.785 6.082 L 15.322 6.777 15.443 6.853 C 15.509 6.896,15.569 6.923,15.576 6.915 C 15.583 6.907,15.790 6.599,16.035 6.230 C 16.280 5.861,16.495 5.560,16.513 5.560 C 16.550 5.560,16.880 5.799,16.880 5.826 C 16.880 5.836,16.764 5.983,16.622 6.152 L 16.363 6.458 16.449 6.549 C 16.496 6.599,16.547 6.640,16.562 6.640 C 16.577 6.640,16.707 6.496,16.850 6.320 L 17.110 6.001 17.298 6.166 L 17.485 6.332 17.313 6.510 C 17.212 6.614,15.833 7.561,14.006 8.781 L 10.871 10.873 8.851 13.906 C 7.421 16.055,6.760 17.013,6.587 17.190 C 6.452 17.328,6.330 17.440,6.316 17.440 C 6.301 17.440,6.226 17.362,6.148 17.267 L 6.006 17.094 6.323 16.840 C 6.497 16.700,6.640 16.574,6.640 16.560 C 6.640 16.546,6.599 16.496,6.550 16.449 L 6.460 16.365 6.145 16.622 C 5.971 16.764,5.826 16.880,5.821 16.880 C 5.807 16.880,5.560 16.527,5.560 16.506 C 5.560 16.495,5.866 16.276,6.240 16.021 L 6.920 15.557 6.859 15.437 C 6.820 15.363,6.778 15.328,6.748 15.346 C 6.722 15.362,6.408 15.569,6.051 15.807 C 5.694 16.045,5.393 16.240,5.383 16.240 C 5.356 16.240,5.160 15.902,5.160 15.856 C 5.160 15.836,5.322 15.733,5.519 15.627 L 5.879 15.435 5.811 15.327 C 5.774 15.268,5.740 15.214,5.735 15.206 C 5.730 15.199,5.574 15.275,5.389 15.376 C 5.204 15.477,5.035 15.560,5.014 15.560 C 4.978 15.560,4.800 15.233,4.800 15.166 C 4.800 15.149,5.142 14.994,5.560 14.822 C 5.978 14.650,6.319 14.489,6.319 14.465 C 6.318 14.440,6.295 14.381,6.269 14.333 C 6.220 14.247,6.218 14.248,5.640 14.487 C 5.321 14.619,4.975 14.761,4.870 14.803 L 4.681 14.879 4.619 14.732 C 4.487 14.415,4.483 14.423,4.818 14.326 C 5.332 14.177,5.323 14.182,5.275 14.042 C 5.251 13.975,5.220 13.920,5.206 13.920 C 5.192 13.921,5.012 13.973,4.807 14.037 C 4.547 14.118,4.430 14.139,4.419 14.107 C 4.347 13.887,4.319 13.706,4.354 13.683 C 4.377 13.670,4.748 13.589,5.179 13.504 L 5.964 13.349 5.937 13.224 C 5.923 13.156,5.905 13.094,5.899 13.087 C 5.892 13.080,5.522 13.147,5.077 13.237 C 4.631 13.326,4.261 13.394,4.254 13.388 C 4.248 13.381,4.231 13.275,4.216 13.152 C 4.186 12.894,4.164 12.907,4.710 12.858 L 5.000 12.832 5.000 12.696 C 5.000 12.540,4.995 12.539,4.480 12.598 C 4.315 12.617,4.177 12.630,4.174 12.627 C 4.170 12.623,4.155 12.517,4.139 12.390 L 4.111 12.160 4.955 12.160 L 5.800 12.160 5.800 12.020 L 5.800 11.880 4.982 11.880 C 4.471 11.880,4.155 11.865,4.140 11.839 C 4.126 11.817,4.127 11.699,4.142 11.577 C 4.169 11.365,4.174 11.357,4.275 11.376 C 4.333 11.386,4.517 11.407,4.685 11.421 L 4.991 11.446 5.007 11.306 L 5.023 11.165 4.722 11.140 C 4.165 11.094,4.186 11.106,4.216 10.848 C 4.231 10.725,4.246 10.620,4.251 10.616 C 4.256 10.611,4.625 10.680,5.071 10.770 C 5.517 10.859,5.888 10.925,5.896 10.916 C 5.904 10.907,5.922 10.846,5.937 10.779 L 5.962 10.658 5.171 10.504 C 4.736 10.419,4.366 10.337,4.349 10.322 C 4.332 10.307,4.340 10.201,4.366 10.087 C 4.422 9.844,4.421 9.844,4.860 9.981 C 5.036 10.035,5.192 10.080,5.206 10.080 C 5.220 10.080,5.251 10.025,5.275 9.958 C 5.323 9.819,5.343 9.831,4.827 9.679 C 4.481 9.577,4.483 9.581,4.621 9.252 C 4.669 9.137,4.687 9.125,4.768 9.157 C 4.841 9.185,5.997 9.666,6.184 9.745 C 6.226 9.763,6.349 9.535,6.315 9.503 C 6.307 9.495,5.967 9.349,5.560 9.180 C 5.153 9.011,4.812 8.865,4.803 8.856 C 4.777 8.831,4.969 8.440,5.007 8.440 C 5.026 8.440,5.194 8.523,5.382 8.625 C 5.570 8.726,5.730 8.803,5.737 8.795 C 5.790 8.733,5.839 8.591,5.819 8.558 C 5.805 8.536,5.665 8.453,5.507 8.374 C 5.095 8.168,5.106 8.185,5.246 7.957 C 5.312 7.849,5.380 7.760,5.397 7.760 C 5.413 7.760,5.730 7.967,6.102 8.219 L 6.777 8.679 6.853 8.558 C 6.896 8.491,6.923 8.430,6.915 8.423 C 6.907 8.415,6.603 8.215,6.240 7.978 C 5.877 7.741,5.572 7.541,5.563 7.533 C 5.540 7.515,5.626 7.364,5.736 7.228 L 5.827 7.116 6.141 7.377 L 6.456 7.639 6.548 7.552 C 6.599 7.505,6.640 7.454,6.640 7.440 C 6.640 7.426,6.497 7.300,6.323 7.160 L 6.005 6.905 6.129 6.749 C 6.197 6.663,6.278 6.583,6.310 6.571 C 6.347 6.556,6.578 6.758,6.956 7.136 L 7.544 7.723 7.640 7.620 L 7.736 7.517 7.143 6.923 C 6.817 6.596,6.561 6.310,6.575 6.287 C 6.590 6.265,6.669 6.192,6.753 6.125 L 6.905 6.005 7.160 6.323 C 7.300 6.497,7.426 6.640,7.440 6.640 C 7.454 6.640,7.504 6.600,7.551 6.550 L 7.635 6.460 7.376 6.143 C 7.234 5.969,7.132 5.815,7.149 5.800 C 7.166 5.786,7.254 5.718,7.344 5.648 L 7.509 5.522 7.976 6.223 L 8.442 6.923 8.559 6.854 C 8.623 6.816,8.664 6.766,8.650 6.743 C 8.637 6.719,8.431 6.408,8.193 6.051 C 7.955 5.694,7.760 5.394,7.760 5.384 C 7.760 5.375,7.849 5.312,7.959 5.245 L 8.157 5.122 8.345 5.471 C 8.449 5.663,8.539 5.827,8.545 5.835 C 8.561 5.856,8.800 5.756,8.800 5.729 C 8.800 5.718,8.719 5.560,8.620 5.378 C 8.521 5.196,8.440 5.031,8.440 5.011 C 8.440 4.970,8.830 4.776,8.856 4.803 C 8.866 4.812,9.010 5.152,9.178 5.559 C 9.346 5.965,9.491 6.305,9.501 6.314 C 9.517 6.330,9.760 6.241,9.760 6.219 C 9.760 6.213,9.708 6.085,9.643 5.934 C 9.579 5.783,9.436 5.438,9.325 5.167 L 9.122 4.675 9.253 4.620 C 9.579 4.484,9.577 4.483,9.674 4.818 C 9.823 5.332,9.818 5.323,9.958 5.275 C 10.025 5.251,10.080 5.220,10.080 5.206 C 10.080 5.192,10.035 5.036,9.981 4.860 C 9.844 4.419,9.844 4.417,10.083 4.359 C 10.197 4.332,10.299 4.326,10.316 4.345 C 10.332 4.364,10.414 4.736,10.498 5.172 L 10.651 5.964 10.776 5.937 C 10.844 5.923,10.907 5.904,10.916 5.896 C 10.925 5.888,10.859 5.517,10.770 5.071 C 10.680 4.625,10.611 4.256,10.616 4.251 C 10.620 4.246,10.725 4.231,10.848 4.216 C 11.106 4.186,11.093 4.164,11.142 4.710 L 11.168 5.000 11.309 5.000 L 11.449 5.000 11.422 4.650 C 11.407 4.458,11.386 4.270,11.376 4.233 C 11.355 4.160,11.428 4.135,11.690 4.125 L 11.840 4.120 11.840 4.960 M17.852 6.733 L 17.994 6.906 17.677 7.160 C 17.503 7.300,17.360 7.426,17.360 7.440 C 17.360 7.454,17.401 7.504,17.450 7.551 L 17.540 7.635 17.857 7.376 C 18.031 7.234,18.185 7.132,18.200 7.149 C 18.214 7.166,18.282 7.254,18.352 7.344 L 18.478 7.509 17.777 7.976 L 17.077 8.442 17.146 8.559 C 17.184 8.623,17.234 8.664,17.257 8.650 C 17.281 8.637,17.592 8.431,17.949 8.193 C 18.306 7.955,18.606 7.760,18.616 7.760 C 18.625 7.760,18.688 7.849,18.754 7.957 L 18.875 8.154 18.788 8.211 C 18.739 8.243,18.589 8.325,18.453 8.394 C 18.317 8.462,18.195 8.536,18.181 8.558 C 18.161 8.591,18.210 8.733,18.263 8.795 C 18.270 8.803,18.430 8.726,18.618 8.625 C 18.806 8.523,18.974 8.440,18.993 8.440 C 19.033 8.440,19.222 8.832,19.195 8.859 C 19.184 8.869,18.844 9.015,18.438 9.183 C 18.032 9.352,17.693 9.496,17.685 9.503 C 17.669 9.517,17.760 9.760,17.781 9.760 C 17.787 9.760,17.915 9.708,18.066 9.643 C 18.217 9.579,18.562 9.436,18.833 9.325 L 19.325 9.122 19.380 9.253 C 19.517 9.581,19.519 9.577,19.173 9.679 C 18.657 9.831,18.677 9.819,18.725 9.958 C 18.749 10.025,18.780 10.080,18.794 10.080 C 18.808 10.080,18.964 10.035,19.140 9.981 C 19.584 9.843,19.585 9.843,19.638 10.087 C 19.662 10.201,19.668 10.306,19.651 10.322 C 19.634 10.337,19.264 10.419,18.829 10.504 L 18.038 10.658 18.063 10.779 C 18.078 10.846,18.095 10.907,18.103 10.915 C 18.110 10.923,18.481 10.857,18.928 10.769 C 19.375 10.681,19.745 10.613,19.752 10.619 C 19.758 10.625,19.767 10.736,19.772 10.865 L 19.780 11.100 19.390 11.135 L 19.000 11.170 19.000 11.305 C 19.000 11.435,19.006 11.440,19.150 11.438 C 19.233 11.437,19.420 11.423,19.566 11.406 L 19.833 11.377 19.859 11.588 C 19.874 11.704,19.874 11.817,19.860 11.839 C 19.845 11.865,19.529 11.880,19.018 11.880 L 18.200 11.880 18.200 12.020 L 18.200 12.160 19.040 12.160 L 19.880 12.160 19.880 12.250 C 19.879 12.300,19.868 12.409,19.854 12.493 L 19.829 12.646 19.644 12.624 C 19.543 12.612,19.357 12.590,19.230 12.576 L 19.000 12.551 19.000 12.692 C 19.000 12.830,19.004 12.833,19.190 12.855 C 19.294 12.867,19.477 12.889,19.595 12.903 L 19.810 12.929 19.784 13.152 C 19.769 13.275,19.752 13.381,19.746 13.388 C 19.739 13.394,19.369 13.326,18.923 13.237 C 18.478 13.147,18.108 13.080,18.101 13.087 C 18.095 13.094,18.077 13.156,18.063 13.224 L 18.036 13.348 18.788 13.496 C 19.773 13.691,19.688 13.657,19.656 13.833 C 19.641 13.914,19.614 14.019,19.597 14.066 L 19.565 14.152 19.194 14.036 C 18.991 13.972,18.811 13.920,18.796 13.920 C 18.780 13.920,18.749 13.975,18.725 14.042 C 18.677 14.182,18.668 14.177,19.182 14.326 C 19.517 14.423,19.516 14.420,19.379 14.748 C 19.331 14.863,19.313 14.875,19.232 14.843 C 19.159 14.815,18.003 14.334,17.816 14.255 C 17.773 14.237,17.652 14.465,17.686 14.499 C 17.695 14.509,18.035 14.654,18.441 14.822 C 18.848 14.990,19.188 15.134,19.197 15.144 C 19.225 15.171,19.029 15.560,18.987 15.560 C 18.966 15.560,18.796 15.477,18.611 15.376 C 18.426 15.275,18.270 15.199,18.265 15.206 C 18.260 15.214,18.226 15.268,18.189 15.327 L 18.122 15.434 18.500 15.638 L 18.878 15.842 18.754 16.043 C 18.679 16.166,18.609 16.237,18.577 16.225 C 18.548 16.213,18.230 16.007,17.869 15.766 L 17.213 15.327 17.143 15.446 C 17.104 15.512,17.078 15.571,17.086 15.577 C 17.094 15.584,17.402 15.790,17.770 16.035 C 18.139 16.280,18.440 16.491,18.440 16.504 C 18.440 16.517,18.383 16.606,18.314 16.702 C 18.169 16.904,18.185 16.908,17.800 16.584 L 17.540 16.365 17.450 16.449 C 17.401 16.496,17.360 16.546,17.360 16.561 C 17.360 16.576,17.503 16.703,17.678 16.843 C 18.032 17.127,18.024 17.080,17.763 17.371 L 17.663 17.482 17.060 16.880 L 16.456 16.277 16.360 16.380 L 16.264 16.483 16.857 17.077 C 17.183 17.404,17.439 17.690,17.425 17.713 C 17.410 17.735,17.331 17.808,17.247 17.875 L 17.095 17.995 16.840 17.677 C 16.700 17.503,16.574 17.360,16.560 17.360 C 16.546 17.360,16.496 17.401,16.449 17.450 L 16.365 17.540 16.622 17.855 C 16.763 18.028,16.872 18.181,16.863 18.196 C 16.854 18.210,16.767 18.279,16.669 18.349 L 16.491 18.477 16.024 17.777 L 15.558 17.077 15.441 17.146 C 15.377 17.184,15.336 17.234,15.350 17.257 C 15.363 17.281,15.570 17.593,15.809 17.951 C 16.048 18.310,16.233 18.619,16.221 18.638 C 16.209 18.658,16.119 18.719,16.020 18.774 L 15.841 18.874 15.703 18.627 C 15.628 18.491,15.544 18.331,15.517 18.270 C 15.489 18.210,15.451 18.160,15.431 18.160 C 15.398 18.160,15.243 18.231,15.205 18.263 C 15.197 18.270,15.274 18.430,15.375 18.618 C 15.477 18.806,15.560 18.974,15.560 18.993 C 15.560 19.031,15.169 19.223,15.144 19.197 C 15.135 19.188,14.990 18.848,14.823 18.443 C 14.656 18.037,14.511 17.697,14.501 17.687 C 14.466 17.652,14.236 17.772,14.254 17.816 C 14.264 17.840,14.393 18.148,14.540 18.500 C 14.686 18.852,14.822 19.180,14.842 19.230 C 14.874 19.309,14.860 19.327,14.731 19.381 C 14.415 19.513,14.423 19.517,14.326 19.182 C 14.177 18.668,14.182 18.677,14.042 18.725 C 13.975 18.749,13.920 18.780,13.920 18.796 C 13.920 18.811,13.972 18.991,14.036 19.194 L 14.152 19.565 14.060 19.600 C 14.010 19.619,13.905 19.647,13.828 19.661 C 13.660 19.693,13.691 19.773,13.497 18.792 L 13.349 18.044 13.225 18.068 C 13.156 18.081,13.094 18.096,13.087 18.102 C 13.080 18.108,13.147 18.478,13.237 18.923 C 13.326 19.369,13.395 19.739,13.388 19.745 C 13.382 19.751,13.275 19.772,13.151 19.792 L 12.925 19.827 12.904 19.684 C 12.892 19.605,12.871 19.418,12.857 19.270 L 12.831 19.000 12.695 19.000 C 12.565 19.000,12.560 19.006,12.562 19.150 C 12.563 19.233,12.578 19.421,12.594 19.569 C 12.628 19.874,12.623 19.880,12.337 19.880 L 12.160 19.880 12.160 19.040 L 12.160 18.200 12.000 18.200 L 11.840 18.200 11.840 19.040 L 11.840 19.880 11.650 19.879 C 11.370 19.878,11.363 19.868,11.402 19.500 C 11.456 18.984,11.460 19.000,11.304 19.000 C 11.153 19.000,11.169 18.953,11.097 19.603 L 11.072 19.827 10.848 19.791 C 10.724 19.772,10.620 19.753,10.616 19.748 C 10.612 19.744,10.681 19.375,10.769 18.928 C 10.857 18.481,10.923 18.110,10.915 18.103 C 10.907 18.095,10.844 18.077,10.776 18.063 L 10.651 18.036 10.496 18.821 C 10.411 19.252,10.330 19.624,10.315 19.648 C 10.272 19.717,9.880 19.608,9.881 19.526 C 9.881 19.490,9.926 19.316,9.981 19.140 C 10.035 18.964,10.080 18.808,10.080 18.794 C 10.080 18.780,10.025 18.749,9.958 18.725 C 9.818 18.677,9.823 18.668,9.674 19.182 C 9.577 19.517,9.579 19.516,9.253 19.380 L 9.122 19.325 9.325 18.833 C 9.436 18.562,9.580 18.216,9.644 18.064 C 9.709 17.912,9.757 17.784,9.751 17.779 C 9.714 17.750,9.559 17.680,9.530 17.680 C 9.511 17.680,9.353 18.022,9.180 18.440 C 9.007 18.858,8.853 19.200,8.837 19.200 C 8.770 19.200,8.440 19.032,8.440 18.998 C 8.440 18.977,8.521 18.809,8.620 18.626 C 8.719 18.443,8.800 18.284,8.800 18.272 C 8.800 18.244,8.562 18.144,8.545 18.165 C 8.539 18.173,8.457 18.324,8.364 18.500 C 8.270 18.676,8.182 18.833,8.167 18.848 C 8.125 18.892,7.750 18.642,7.773 18.585 C 7.783 18.557,7.992 18.240,8.237 17.880 L 8.681 17.225 8.559 17.147 C 8.492 17.105,8.431 17.077,8.424 17.085 C 8.417 17.093,8.206 17.408,7.955 17.784 L 7.500 18.467 7.340 18.351 C 7.252 18.287,7.166 18.221,7.149 18.204 C 7.132 18.187,7.234 18.031,7.376 17.857 L 7.635 17.540 7.551 17.450 C 7.504 17.401,7.454 17.360,7.439 17.360 C 7.424 17.360,7.298 17.503,7.158 17.677 L 6.903 17.993 6.748 17.870 C 6.663 17.803,6.583 17.722,6.571 17.691 C 6.559 17.659,6.616 17.565,6.705 17.473 C 6.790 17.384,8.270 16.370,9.994 15.219 L 13.129 13.127 15.149 10.094 C 16.579 7.945,17.240 6.987,17.413 6.810 C 17.548 6.673,17.670 6.560,17.684 6.560 C 17.699 6.560,17.774 6.638,17.852 6.733 " fill="#373B4D" stroke="none" fill-rule="evenodd"></path></svg>