<svg width="24" height="24" viewBox="0 0 24 24" fill="none" xmlns="http://www.w3.org/2000/svg"><path d="M11.160 3.046 C 8.229 3.347,5.684 4.977,4.229 7.484 C 3.376 8.954,2.949 10.650,3.013 12.320 C 3.097 14.530,3.973 16.603,5.492 18.184 C 6.543 19.278,7.708 20.031,9.067 20.495 C 11.252 21.240,13.423 21.159,15.560 20.251 C 17.572 19.397,19.283 17.721,20.183 15.723 C 21.135 13.609,21.252 11.329,20.520 9.154 C 20.067 7.811,19.437 6.773,18.463 5.768 C 17.137 4.399,15.439 3.484,13.621 3.159 C 13.264 3.095,11.803 2.987,11.560 3.006 C 11.527 3.008,11.347 3.026,11.160 3.046 M11.840 4.960 L 11.840 5.800 12.000 5.800 L 12.160 5.800 12.160 4.960 L 12.160 4.120 12.297 4.120 C 12.490 4.120,12.653 4.188,12.626 4.258 C 12.614 4.289,12.592 4.469,12.577 4.657 L 12.549 5.000 12.672 5.000 C 12.740 5.000,12.806 4.982,12.820 4.960 C 12.833 4.939,12.864 4.759,12.888 4.560 C 12.937 4.168,12.927 4.179,13.210 4.226 C 13.319 4.244,13.360 4.270,13.360 4.322 C 13.360 4.362,13.295 4.730,13.216 5.140 C 13.137 5.550,13.079 5.891,13.086 5.898 C 13.094 5.905,13.156 5.923,13.223 5.937 L 13.347 5.963 13.501 5.199 C 13.586 4.778,13.676 4.407,13.700 4.373 C 13.737 4.323,13.772 4.320,13.910 4.357 C 14.002 4.382,14.088 4.420,14.101 4.442 C 14.114 4.463,14.078 4.646,14.020 4.847 C 13.909 5.234,13.920 5.293,14.100 5.270 C 14.162 5.262,14.204 5.186,14.289 4.923 C 14.349 4.738,14.419 4.573,14.444 4.557 C 14.519 4.511,14.840 4.638,14.840 4.714 C 14.840 4.750,14.707 5.095,14.544 5.480 C 14.250 6.175,14.249 6.181,14.328 6.250 C 14.373 6.288,14.430 6.320,14.456 6.320 C 14.482 6.320,14.645 5.982,14.818 5.570 C 14.991 5.157,15.137 4.814,15.142 4.808 C 15.156 4.790,15.445 4.914,15.505 4.965 C 15.546 4.999,15.520 5.081,15.376 5.368 C 15.276 5.566,15.201 5.733,15.208 5.739 C 15.267 5.789,15.409 5.839,15.438 5.821 C 15.458 5.809,15.558 5.646,15.660 5.459 L 15.845 5.118 15.955 5.184 C 16.016 5.219,16.107 5.280,16.157 5.318 L 16.249 5.387 15.785 6.082 L 15.322 6.777 15.443 6.853 C 15.509 6.896,15.569 6.923,15.575 6.915 C 15.582 6.907,15.770 6.630,15.994 6.300 C 16.569 5.452,16.482 5.530,16.697 5.678 C 16.909 5.824,16.913 5.809,16.584 6.200 L 16.365 6.460 16.450 6.551 C 16.497 6.601,16.549 6.637,16.567 6.631 C 16.584 6.625,16.714 6.481,16.855 6.311 L 17.111 6.002 17.298 6.167 L 17.485 6.331 17.374 6.446 C 17.209 6.618,16.264 7.269,13.427 9.167 L 10.873 10.874 9.045 13.607 C 8.040 15.110,7.101 16.502,6.960 16.700 C 6.701 17.063,6.374 17.440,6.319 17.440 C 6.303 17.440,6.225 17.362,6.147 17.266 L 6.004 17.091 6.322 16.836 C 6.497 16.696,6.640 16.570,6.640 16.557 C 6.640 16.545,6.599 16.496,6.550 16.449 L 6.460 16.365 6.142 16.625 L 5.824 16.885 5.751 16.792 C 5.710 16.742,5.652 16.653,5.620 16.595 L 5.563 16.490 6.240 16.023 C 6.895 15.571,6.915 15.553,6.872 15.458 C 6.847 15.404,6.803 15.360,6.773 15.360 C 6.743 15.360,6.422 15.558,6.060 15.800 C 5.698 16.042,5.394 16.240,5.385 16.240 C 5.345 16.240,5.158 15.876,5.180 15.841 C 5.193 15.820,5.355 15.719,5.541 15.618 C 5.825 15.464,5.873 15.423,5.841 15.367 C 5.735 15.182,5.745 15.182,5.386 15.378 C 5.196 15.481,5.023 15.554,5.000 15.540 C 4.938 15.502,4.794 15.202,4.818 15.163 C 4.830 15.144,5.143 15.000,5.515 14.842 C 6.322 14.500,6.347 14.485,6.284 14.367 C 6.258 14.319,6.219 14.280,6.196 14.280 C 6.173 14.280,5.863 14.399,5.507 14.544 C 5.151 14.690,4.820 14.824,4.770 14.843 C 4.692 14.874,4.673 14.860,4.620 14.734 C 4.501 14.450,4.521 14.420,4.910 14.294 C 5.184 14.205,5.262 14.163,5.270 14.100 C 5.293 13.919,5.234 13.909,4.845 14.025 C 4.427 14.150,4.402 14.142,4.371 13.869 C 4.357 13.742,4.366 13.686,4.405 13.672 C 4.435 13.660,4.798 13.582,5.212 13.499 L 5.963 13.346 5.937 13.223 C 5.923 13.155,5.907 13.096,5.902 13.090 C 5.898 13.085,5.526 13.151,5.078 13.238 C 4.629 13.324,4.259 13.391,4.255 13.387 C 4.252 13.383,4.236 13.286,4.221 13.171 C 4.195 12.976,4.199 12.959,4.286 12.923 C 4.338 12.902,4.519 12.873,4.690 12.859 L 5.000 12.833 5.000 12.715 C 5.000 12.650,4.974 12.588,4.942 12.575 C 4.911 12.563,4.728 12.573,4.535 12.596 C 4.343 12.620,4.182 12.635,4.178 12.629 C 4.174 12.624,4.157 12.517,4.142 12.390 L 4.114 12.160 4.957 12.160 L 5.800 12.160 5.800 12.020 L 5.800 11.880 5.010 11.879 C 4.575 11.879,4.196 11.863,4.166 11.845 C 4.124 11.818,4.120 11.762,4.147 11.595 C 4.177 11.416,4.196 11.381,4.261 11.387 C 4.305 11.391,4.486 11.407,4.665 11.422 L 4.990 11.449 5.007 11.308 L 5.023 11.167 4.674 11.139 C 4.228 11.104,4.184 11.074,4.221 10.828 C 4.243 10.683,4.266 10.640,4.322 10.640 C 4.362 10.640,4.730 10.705,5.140 10.784 C 5.550 10.863,5.891 10.921,5.898 10.914 C 5.905 10.906,5.922 10.846,5.936 10.779 L 5.962 10.659 5.171 10.499 L 4.380 10.340 4.383 10.149 C 4.386 9.866,4.415 9.856,4.842 9.978 C 5.234 10.091,5.293 10.081,5.270 9.900 C 5.262 9.838,5.186 9.796,4.923 9.711 C 4.738 9.651,4.573 9.581,4.557 9.556 C 4.511 9.481,4.638 9.160,4.714 9.160 C 4.750 9.160,5.095 9.293,5.480 9.456 C 6.175 9.750,6.181 9.751,6.250 9.672 C 6.289 9.627,6.320 9.571,6.320 9.546 C 6.320 9.521,5.978 9.357,5.560 9.181 C 5.142 9.006,4.800 8.848,4.800 8.829 C 4.800 8.789,4.915 8.559,4.969 8.491 C 4.998 8.455,5.095 8.487,5.363 8.621 C 5.558 8.720,5.726 8.800,5.735 8.800 C 5.745 8.800,5.771 8.747,5.793 8.683 C 5.840 8.548,5.828 8.536,5.410 8.325 C 5.272 8.256,5.160 8.178,5.160 8.153 C 5.160 8.092,5.356 7.760,5.392 7.760 C 5.407 7.760,5.725 7.967,6.098 8.219 L 6.777 8.678 6.853 8.558 C 6.896 8.491,6.923 8.430,6.915 8.423 C 6.907 8.415,6.603 8.216,6.240 7.980 C 5.877 7.744,5.574 7.546,5.567 7.539 C 5.549 7.523,5.662 7.320,5.751 7.207 L 5.825 7.114 6.140 7.377 L 6.456 7.639 6.548 7.552 C 6.599 7.505,6.640 7.455,6.640 7.443 C 6.640 7.430,6.496 7.304,6.320 7.163 C 5.965 6.878,5.975 6.928,6.214 6.652 C 6.321 6.528,6.362 6.556,7.003 7.186 L 7.546 7.720 7.639 7.621 L 7.732 7.522 7.166 6.941 C 6.855 6.621,6.600 6.334,6.600 6.303 C 6.600 6.272,6.670 6.192,6.755 6.124 L 6.909 6.002 7.105 6.246 C 7.212 6.380,7.330 6.528,7.367 6.574 L 7.435 6.659 7.535 6.565 L 7.636 6.470 7.398 6.163 C 7.267 5.995,7.161 5.839,7.162 5.818 C 7.162 5.797,7.241 5.723,7.337 5.652 L 7.510 5.525 7.976 6.223 C 8.403 6.865,8.448 6.918,8.523 6.878 C 8.568 6.854,8.614 6.811,8.625 6.781 C 8.637 6.751,8.467 6.460,8.249 6.133 C 7.696 5.305,7.723 5.389,7.958 5.245 L 8.155 5.124 8.344 5.472 C 8.447 5.663,8.538 5.827,8.545 5.835 C 8.562 5.856,8.800 5.756,8.800 5.728 C 8.800 5.716,8.718 5.555,8.618 5.370 C 8.485 5.124,8.447 5.019,8.478 4.983 C 8.525 4.926,8.834 4.779,8.854 4.804 C 8.861 4.813,9.007 5.153,9.178 5.560 C 9.349 5.967,9.493 6.305,9.498 6.310 C 9.509 6.322,9.760 6.237,9.760 6.221 C 9.760 6.215,9.731 6.140,9.695 6.055 C 9.659 5.970,9.515 5.624,9.376 5.287 L 9.123 4.675 9.260 4.617 C 9.545 4.498,9.580 4.522,9.706 4.910 C 9.795 5.184,9.837 5.262,9.900 5.270 C 10.081 5.293,10.091 5.234,9.978 4.842 C 9.859 4.428,9.865 4.407,10.118 4.360 C 10.250 4.336,10.290 4.343,10.317 4.395 C 10.336 4.431,10.420 4.798,10.502 5.212 L 10.652 5.964 10.776 5.937 C 10.844 5.923,10.906 5.905,10.914 5.898 C 10.921 5.891,10.863 5.550,10.784 5.140 C 10.705 4.730,10.640 4.362,10.640 4.322 C 10.640 4.266,10.683 4.243,10.825 4.221 C 10.934 4.205,11.026 4.210,11.050 4.234 C 11.072 4.256,11.108 4.437,11.130 4.637 L 11.171 5.000 11.305 5.000 C 11.438 5.000,11.440 4.997,11.437 4.830 C 11.435 4.736,11.420 4.555,11.404 4.426 C 11.377 4.213,11.382 4.189,11.457 4.158 C 11.503 4.140,11.607 4.124,11.690 4.123 L 11.840 4.120 11.840 4.960 M17.854 6.735 L 17.997 6.910 17.754 7.105 C 17.620 7.212,17.472 7.330,17.426 7.367 L 17.341 7.435 17.435 7.535 L 17.530 7.636 17.837 7.398 C 18.005 7.267,18.161 7.161,18.182 7.162 C 18.203 7.162,18.277 7.241,18.348 7.337 L 18.475 7.510 17.777 7.976 C 17.135 8.403,17.082 8.448,17.122 8.523 C 17.146 8.568,17.189 8.614,17.219 8.625 C 17.249 8.637,17.540 8.467,17.867 8.249 C 18.695 7.696,18.611 7.723,18.756 7.959 L 18.878 8.158 18.689 8.265 C 18.585 8.324,18.424 8.414,18.332 8.466 C 18.172 8.557,18.166 8.566,18.206 8.680 C 18.229 8.746,18.255 8.800,18.265 8.800 C 18.274 8.800,18.442 8.720,18.637 8.621 C 18.920 8.480,19.001 8.454,19.035 8.495 C 19.086 8.556,19.210 8.844,19.192 8.860 C 19.186 8.866,18.847 9.011,18.440 9.182 C 18.033 9.353,17.693 9.498,17.685 9.505 C 17.650 9.533,17.775 9.763,17.816 9.747 C 17.840 9.737,18.166 9.602,18.540 9.448 C 18.914 9.293,19.246 9.161,19.277 9.153 C 19.345 9.137,19.488 9.482,19.444 9.554 C 19.427 9.581,19.262 9.651,19.077 9.711 C 18.814 9.796,18.738 9.838,18.730 9.900 C 18.707 10.081,18.765 10.091,19.161 9.978 C 19.523 9.873,19.536 9.872,19.589 9.945 C 19.620 9.987,19.638 10.090,19.632 10.180 L 19.620 10.340 18.829 10.499 L 18.038 10.659 18.064 10.779 C 18.078 10.846,18.095 10.906,18.102 10.914 C 18.109 10.921,18.450 10.863,18.860 10.784 C 19.270 10.705,19.640 10.640,19.683 10.640 C 19.750 10.640,19.760 10.669,19.760 10.875 L 19.760 11.110 19.378 11.139 L 18.996 11.168 19.008 11.294 L 19.020 11.420 19.425 11.409 L 19.829 11.398 19.857 11.605 C 19.877 11.757,19.870 11.821,19.832 11.846 C 19.803 11.864,19.425 11.879,18.990 11.879 L 18.200 11.880 18.200 12.020 L 18.200 12.160 19.040 12.160 L 19.880 12.160 19.880 12.250 C 19.879 12.300,19.868 12.409,19.854 12.494 L 19.828 12.649 19.644 12.626 C 19.543 12.614,19.355 12.592,19.227 12.577 L 18.994 12.550 19.007 12.683 C 19.022 12.834,19.069 12.854,19.534 12.900 L 19.808 12.927 19.780 13.154 C 19.765 13.278,19.749 13.383,19.745 13.387 C 19.742 13.391,19.371 13.324,18.922 13.238 C 18.474 13.151,18.102 13.085,18.098 13.090 C 18.093 13.096,18.077 13.156,18.063 13.224 L 18.036 13.348 18.788 13.498 C 19.202 13.580,19.571 13.665,19.609 13.685 C 19.679 13.722,19.675 13.853,19.597 14.066 L 19.565 14.152 19.178 14.031 C 18.767 13.903,18.706 13.913,18.730 14.100 C 18.738 14.163,18.816 14.205,19.090 14.294 C 19.393 14.392,19.440 14.420,19.440 14.498 C 19.440 14.659,19.356 14.840,19.282 14.840 C 19.243 14.840,18.894 14.707,18.505 14.544 C 17.801 14.248,17.799 14.248,17.740 14.333 C 17.707 14.380,17.680 14.437,17.680 14.460 C 17.680 14.484,18.018 14.645,18.430 14.818 C 18.843 14.991,19.187 15.138,19.196 15.146 C 19.222 15.167,19.074 15.475,19.015 15.524 C 18.975 15.558,18.878 15.523,18.615 15.381 C 18.255 15.186,18.263 15.186,18.159 15.367 C 18.126 15.424,18.179 15.466,18.498 15.639 L 18.876 15.843 18.797 15.976 C 18.617 16.281,18.651 16.288,17.889 15.779 L 17.202 15.321 17.138 15.444 C 17.103 15.512,17.080 15.572,17.087 15.577 C 17.094 15.583,17.401 15.790,17.769 16.037 C 18.394 16.458,18.436 16.494,18.394 16.574 C 18.334 16.690,18.195 16.840,18.147 16.840 C 18.125 16.840,17.977 16.733,17.819 16.602 L 17.531 16.363 17.438 16.463 C 17.332 16.575,17.305 16.535,17.710 16.877 C 17.848 16.993,17.960 17.101,17.960 17.117 C 17.960 17.133,17.894 17.222,17.814 17.316 L 17.668 17.487 17.062 16.882 L 16.456 16.277 16.362 16.378 L 16.268 16.478 16.834 17.059 C 17.145 17.379,17.400 17.666,17.400 17.697 C 17.400 17.728,17.330 17.808,17.245 17.876 L 17.091 17.998 16.895 17.754 C 16.788 17.620,16.670 17.472,16.633 17.426 L 16.565 17.341 16.465 17.435 L 16.364 17.530 16.602 17.837 C 16.733 18.005,16.840 18.162,16.840 18.185 C 16.840 18.208,16.761 18.283,16.665 18.352 L 16.491 18.477 16.025 17.778 C 15.597 17.135,15.552 17.082,15.477 17.122 C 15.432 17.146,15.386 17.189,15.376 17.217 C 15.365 17.246,15.536 17.543,15.756 17.878 C 15.977 18.213,16.168 18.523,16.182 18.568 C 16.211 18.658,16.200 18.672,15.993 18.795 L 15.846 18.883 15.660 18.542 C 15.558 18.355,15.458 18.191,15.438 18.179 C 15.409 18.161,15.267 18.211,15.208 18.261 C 15.201 18.267,15.277 18.435,15.377 18.635 L 15.560 18.998 15.470 19.056 C 15.343 19.138,15.162 19.216,15.146 19.196 C 15.138 19.187,14.991 18.843,14.819 18.430 C 14.647 18.018,14.485 17.680,14.458 17.680 C 14.431 17.680,14.373 17.711,14.328 17.750 C 14.249 17.819,14.250 17.825,14.544 18.520 C 14.707 18.905,14.840 19.243,14.840 19.272 C 14.840 19.334,14.529 19.481,14.457 19.453 C 14.428 19.442,14.355 19.277,14.293 19.087 C 14.205 18.816,14.163 18.738,14.100 18.730 C 13.913 18.706,13.903 18.767,14.031 19.178 L 14.152 19.565 14.066 19.597 C 13.842 19.682,13.726 19.686,13.687 19.613 C 13.665 19.573,13.581 19.203,13.499 18.792 L 13.349 18.044 13.225 18.068 C 13.156 18.081,13.095 18.095,13.089 18.100 C 13.080 18.107,13.326 19.432,13.380 19.666 C 13.398 19.743,13.376 19.756,13.170 19.792 C 13.043 19.814,12.936 19.828,12.931 19.823 C 12.926 19.819,12.900 19.630,12.875 19.405 L 12.828 18.996 12.704 19.008 L 12.580 19.020 12.580 19.440 L 12.580 19.860 12.370 19.872 L 12.160 19.884 12.160 19.042 L 12.160 18.200 12.000 18.200 L 11.840 18.200 11.840 19.042 L 11.840 19.884 11.630 19.872 L 11.420 19.860 11.420 19.440 L 11.420 19.020 11.300 19.020 C 11.169 19.020,11.163 19.035,11.091 19.580 C 11.067 19.756,11.043 19.818,10.999 19.813 C 10.724 19.783,10.640 19.752,10.640 19.681 C 10.640 19.639,10.705 19.270,10.784 18.860 C 10.863 18.450,10.921 18.109,10.914 18.102 C 10.906 18.095,10.844 18.077,10.777 18.063 L 10.653 18.037 10.499 18.801 C 10.414 19.222,10.324 19.593,10.300 19.627 C 10.263 19.677,10.228 19.680,10.090 19.643 C 9.998 19.618,9.912 19.580,9.899 19.558 C 9.886 19.537,9.922 19.354,9.980 19.153 C 10.091 18.766,10.080 18.707,9.900 18.730 C 9.838 18.738,9.796 18.815,9.709 19.078 C 9.649 19.264,9.578 19.429,9.552 19.445 C 9.481 19.489,9.138 19.344,9.153 19.277 C 9.161 19.246,9.293 18.914,9.448 18.540 C 9.602 18.166,9.737 17.841,9.746 17.817 C 9.765 17.770,9.572 17.668,9.522 17.699 C 9.505 17.709,9.351 18.043,9.180 18.440 C 9.009 18.837,8.855 19.171,8.836 19.182 C 8.803 19.203,8.588 19.109,8.491 19.031 C 8.455 19.002,8.487 18.904,8.624 18.632 C 8.724 18.434,8.799 18.267,8.792 18.261 C 8.757 18.232,8.601 18.160,8.573 18.160 C 8.555 18.160,8.459 18.313,8.360 18.500 C 8.255 18.698,8.155 18.840,8.119 18.840 C 8.086 18.840,7.992 18.785,7.910 18.718 L 7.762 18.596 8.220 17.909 L 8.678 17.223 8.557 17.147 C 8.491 17.104,8.431 17.077,8.424 17.085 C 8.417 17.093,8.210 17.402,7.965 17.770 C 7.720 18.139,7.507 18.440,7.492 18.440 C 7.437 18.440,7.160 18.228,7.160 18.186 C 7.160 18.163,7.267 18.005,7.398 17.837 L 7.636 17.530 7.545 17.445 C 7.496 17.398,7.445 17.360,7.434 17.360 C 7.422 17.360,7.297 17.503,7.157 17.678 L 6.902 17.995 6.743 17.864 C 6.656 17.792,6.578 17.715,6.571 17.693 C 6.527 17.560,6.970 17.244,10.678 14.763 L 13.128 13.125 14.955 10.392 C 15.960 8.890,16.898 7.498,17.040 7.300 C 17.299 6.937,17.626 6.560,17.681 6.560 C 17.697 6.560,17.775 6.639,17.854 6.735 " fill="#373B4D" stroke="none" fill-rule="evenodd"></path></svg>