<svg width="24" height="24" viewBox="0 0 24 24" fill="none" xmlns="http://www.w3.org/2000/svg"><path d="M10.660 3.120 C 8.894 3.439,7.509 4.065,6.241 5.116 C 5.077 6.082,4.077 7.498,3.558 8.920 C 2.591 11.567,2.933 14.556,4.469 16.880 C 5.925 19.082,8.141 20.500,10.761 20.906 C 11.457 21.013,12.700 21.004,13.363 20.887 C 16.371 20.354,18.769 18.584,20.062 15.940 C 20.702 14.631,20.974 13.472,20.977 12.040 C 20.979 10.956,20.845 10.137,20.496 9.107 C 19.548 6.313,17.142 4.061,14.331 3.338 C 13.581 3.144,13.030 3.079,12.000 3.058 C 11.225 3.043,11.039 3.052,10.660 3.120 M11.840 4.960 L 11.840 5.800 12.000 5.800 L 12.160 5.800 12.160 4.960 L 12.160 4.120 12.277 4.120 C 12.342 4.120,12.442 4.138,12.499 4.160 L 12.604 4.199 12.576 4.603 L 12.548 5.006 12.683 4.993 L 12.818 4.980 12.888 4.605 C 12.926 4.399,12.964 4.223,12.973 4.214 C 12.982 4.205,13.064 4.209,13.155 4.224 C 13.313 4.249,13.320 4.256,13.320 4.395 C 13.320 4.475,13.265 4.843,13.197 5.214 C 13.130 5.585,13.081 5.893,13.087 5.899 C 13.094 5.906,13.155 5.922,13.222 5.937 L 13.343 5.963 13.492 5.263 C 13.683 4.364,13.685 4.360,13.849 4.361 C 14.090 4.362,14.099 4.386,14.022 4.814 C 13.984 5.024,13.965 5.215,13.979 5.238 C 14.046 5.346,14.133 5.260,14.280 4.939 C 14.366 4.752,14.463 4.589,14.494 4.577 C 14.525 4.565,14.617 4.583,14.698 4.617 C 14.872 4.689,14.883 4.625,14.558 5.440 C 14.258 6.191,14.251 6.222,14.357 6.279 C 14.404 6.303,14.455 6.315,14.472 6.305 C 14.489 6.295,14.646 5.961,14.821 5.563 C 15.008 5.137,15.162 4.840,15.194 4.840 C 15.279 4.840,15.520 4.965,15.520 5.009 C 15.520 5.030,15.448 5.203,15.359 5.391 C 15.237 5.652,15.211 5.742,15.249 5.767 C 15.396 5.860,15.501 5.772,15.704 5.383 C 15.768 5.260,15.843 5.160,15.871 5.160 C 15.920 5.160,16.240 5.355,16.240 5.386 C 16.240 5.394,16.033 5.711,15.781 6.089 L 15.322 6.777 15.443 6.853 C 15.509 6.896,15.569 6.923,15.576 6.915 C 15.583 6.907,15.762 6.648,15.974 6.340 C 16.187 6.032,16.393 5.738,16.434 5.686 L 16.507 5.592 16.673 5.677 C 16.765 5.723,16.839 5.784,16.838 5.811 C 16.837 5.861,16.718 6.032,16.489 6.313 L 16.359 6.473 16.467 6.558 C 16.553 6.626,16.583 6.633,16.620 6.591 C 16.645 6.563,16.760 6.428,16.877 6.290 C 16.993 6.153,17.105 6.040,17.126 6.040 C 17.146 6.040,17.237 6.109,17.328 6.193 L 17.492 6.347 17.216 6.567 C 16.823 6.880,16.104 7.373,13.320 9.237 L 10.868 10.879 10.288 11.749 C 9.132 13.485,7.143 16.427,6.928 16.720 C 6.578 17.198,6.362 17.438,6.303 17.416 C 6.274 17.404,6.194 17.326,6.127 17.243 L 6.005 17.090 6.266 16.875 C 6.410 16.757,6.556 16.637,6.592 16.609 C 6.651 16.564,6.648 16.550,6.558 16.462 L 6.460 16.364 6.143 16.626 L 5.825 16.887 5.757 16.796 C 5.719 16.746,5.660 16.658,5.626 16.600 L 5.564 16.494 6.188 16.057 C 6.531 15.817,6.830 15.590,6.853 15.553 C 6.884 15.505,6.881 15.469,6.842 15.423 C 6.780 15.348,6.719 15.379,5.971 15.865 C 5.311 16.293,5.372 16.276,5.275 16.058 C 5.181 15.845,5.173 15.859,5.523 15.629 C 5.785 15.457,5.869 15.315,5.740 15.266 C 5.704 15.252,5.534 15.309,5.349 15.398 C 4.997 15.568,4.965 15.565,4.879 15.358 C 4.807 15.185,4.872 15.132,5.491 14.858 C 6.160 14.561,6.280 14.491,6.280 14.396 C 6.280 14.271,6.133 14.302,5.425 14.580 C 5.060 14.723,4.742 14.840,4.719 14.840 C 4.661 14.840,4.549 14.566,4.577 14.493 C 4.589 14.462,4.739 14.372,4.909 14.294 C 5.246 14.141,5.305 14.088,5.225 14.008 C 5.183 13.965,5.122 13.968,4.888 14.021 C 4.517 14.105,4.434 14.092,4.393 13.940 C 4.335 13.723,4.371 13.694,4.832 13.585 C 5.067 13.530,5.418 13.454,5.610 13.417 C 5.960 13.349,5.976 13.337,5.926 13.176 C 5.900 13.093,5.898 13.093,5.100 13.240 C 4.660 13.321,4.287 13.380,4.270 13.372 C 4.254 13.363,4.240 13.259,4.240 13.141 L 4.240 12.926 4.470 12.899 C 4.936 12.843,4.979 12.827,4.993 12.702 L 5.007 12.588 4.583 12.612 C 4.167 12.635,4.160 12.634,4.160 12.548 C 4.159 12.499,4.148 12.393,4.134 12.310 L 4.110 12.160 4.955 12.160 L 5.800 12.160 5.800 12.020 L 5.800 11.880 5.083 11.880 C 4.688 11.880,4.319 11.862,4.263 11.841 C 4.173 11.807,4.160 11.778,4.160 11.621 L 4.160 11.440 4.583 11.440 L 5.005 11.440 4.993 11.312 L 4.980 11.184 4.646 11.136 C 4.463 11.110,4.295 11.071,4.274 11.050 C 4.252 11.028,4.240 10.941,4.247 10.855 L 4.260 10.700 4.500 10.707 C 4.632 10.711,4.998 10.761,5.314 10.820 C 5.629 10.878,5.893 10.920,5.899 10.913 C 5.905 10.906,5.922 10.846,5.937 10.779 L 5.962 10.658 5.181 10.504 L 4.400 10.350 4.400 10.135 C 4.400 9.990,4.416 9.920,4.450 9.920 C 4.478 9.920,4.659 9.949,4.853 9.985 C 5.100 10.030,5.219 10.037,5.249 10.007 C 5.327 9.929,5.248 9.852,4.974 9.739 C 4.590 9.581,4.538 9.527,4.598 9.345 C 4.624 9.266,4.662 9.191,4.682 9.179 C 4.702 9.167,5.041 9.283,5.436 9.438 C 5.830 9.593,6.172 9.720,6.195 9.720 C 6.236 9.720,6.339 9.564,6.313 9.541 C 6.277 9.509,5.768 9.270,5.330 9.081 C 4.789 8.846,4.747 8.793,4.931 8.579 L 5.021 8.474 5.354 8.620 C 5.537 8.700,5.712 8.756,5.743 8.744 C 5.857 8.701,5.803 8.563,5.630 8.454 C 5.537 8.395,5.392 8.304,5.310 8.253 L 5.159 8.158 5.261 7.959 C 5.382 7.719,5.307 7.693,6.179 8.277 L 6.777 8.678 6.855 8.554 C 6.921 8.451,6.925 8.425,6.877 8.397 C 6.846 8.379,6.537 8.178,6.191 7.951 L 5.562 7.539 5.683 7.328 L 5.803 7.117 5.912 7.196 C 5.971 7.240,6.119 7.357,6.239 7.457 L 6.459 7.639 6.556 7.542 L 6.653 7.446 6.516 7.333 C 6.441 7.271,6.301 7.147,6.205 7.057 L 6.029 6.894 6.100 6.785 C 6.139 6.726,6.206 6.658,6.248 6.636 C 6.348 6.582,6.475 6.679,7.084 7.269 L 7.547 7.719 7.642 7.618 L 7.736 7.518 7.356 7.129 C 6.804 6.565,6.640 6.371,6.640 6.286 C 6.640 6.244,6.701 6.163,6.775 6.106 L 6.911 6.003 7.161 6.321 C 7.299 6.497,7.421 6.640,7.433 6.640 C 7.445 6.640,7.495 6.602,7.544 6.556 L 7.634 6.472 7.392 6.147 L 7.151 5.821 7.302 5.691 C 7.385 5.619,7.473 5.561,7.497 5.561 C 7.520 5.562,7.702 5.805,7.899 6.102 C 8.296 6.700,8.457 6.894,8.531 6.870 C 8.638 6.835,8.593 6.682,8.375 6.339 C 7.809 5.447,7.786 5.405,7.838 5.343 C 7.864 5.311,7.947 5.248,8.022 5.204 L 8.157 5.125 8.346 5.482 C 8.449 5.679,8.550 5.840,8.570 5.840 C 8.599 5.840,8.754 5.771,8.791 5.740 C 8.797 5.735,8.727 5.576,8.636 5.385 C 8.477 5.054,8.472 5.035,8.538 4.962 C 8.577 4.920,8.658 4.868,8.720 4.846 C 8.831 4.807,8.833 4.810,8.992 5.154 C 9.080 5.344,9.228 5.680,9.320 5.900 C 9.413 6.120,9.493 6.305,9.498 6.310 C 9.509 6.322,9.760 6.237,9.760 6.221 C 9.760 6.215,9.659 5.969,9.536 5.675 C 9.195 4.859,9.149 4.714,9.211 4.652 C 9.240 4.623,9.332 4.595,9.417 4.590 L 9.570 4.580 9.710 4.913 C 9.849 5.244,9.926 5.330,10.008 5.248 C 10.039 5.217,10.030 5.098,9.979 4.836 C 9.910 4.479,9.910 4.466,9.982 4.414 C 10.087 4.337,10.270 4.346,10.313 4.430 C 10.333 4.469,10.418 4.829,10.503 5.231 L 10.656 5.963 10.778 5.937 C 10.845 5.922,10.906 5.905,10.913 5.899 C 10.920 5.893,10.878 5.629,10.820 5.314 C 10.761 4.998,10.711 4.632,10.707 4.500 L 10.700 4.260 10.868 4.248 C 11.032 4.236,11.037 4.239,11.074 4.388 C 11.096 4.472,11.125 4.645,11.140 4.772 C 11.166 5.004,11.166 5.005,11.293 4.992 L 11.420 4.980 11.406 4.594 C 11.391 4.158,11.411 4.123,11.690 4.121 L 11.840 4.120 11.840 4.960 M17.855 6.736 L 17.999 6.912 17.709 7.142 C 17.550 7.269,17.406 7.385,17.389 7.399 C 17.372 7.414,17.395 7.474,17.441 7.532 L 17.524 7.637 17.851 7.394 L 18.179 7.151 18.309 7.302 C 18.381 7.385,18.440 7.473,18.439 7.497 C 18.439 7.520,18.344 7.601,18.229 7.675 C 17.666 8.038,17.118 8.458,17.129 8.517 C 17.153 8.642,17.307 8.600,17.661 8.375 C 18.553 7.809,18.595 7.786,18.657 7.838 C 18.689 7.864,18.752 7.947,18.796 8.022 L 18.876 8.158 18.548 8.350 C 18.315 8.487,18.216 8.568,18.207 8.632 C 18.186 8.777,18.294 8.775,18.640 8.623 C 18.819 8.544,18.983 8.489,19.004 8.502 C 19.046 8.529,19.212 8.842,19.193 8.859 C 19.186 8.866,18.937 8.974,18.640 9.100 C 18.158 9.305,17.727 9.505,17.685 9.544 C 17.676 9.551,17.698 9.602,17.734 9.656 L 17.799 9.755 18.477 9.478 C 18.850 9.325,19.198 9.200,19.251 9.200 C 19.315 9.200,19.363 9.234,19.394 9.302 C 19.496 9.528,19.482 9.544,18.973 9.760 C 18.750 9.854,18.692 9.927,18.780 10.000 C 18.822 10.035,18.918 10.029,19.177 9.975 C 19.561 9.895,19.590 9.905,19.627 10.133 C 19.649 10.271,19.642 10.283,19.515 10.336 C 19.440 10.368,19.077 10.453,18.708 10.526 L 18.038 10.658 18.063 10.779 C 18.078 10.846,18.094 10.906,18.101 10.913 C 18.107 10.919,18.421 10.869,18.799 10.800 C 19.177 10.732,19.543 10.681,19.613 10.688 C 19.736 10.700,19.740 10.707,19.752 10.904 L 19.764 11.108 19.516 11.134 C 19.380 11.148,19.207 11.160,19.132 11.160 C 19.002 11.160,18.996 11.166,19.007 11.290 L 19.020 11.420 19.430 11.406 L 19.840 11.392 19.840 11.597 C 19.840 11.780,19.829 11.806,19.737 11.841 C 19.681 11.862,19.312 11.880,18.917 11.880 L 18.200 11.880 18.200 12.020 L 18.200 12.160 19.040 12.160 L 19.880 12.160 19.880 12.250 C 19.879 12.300,19.868 12.410,19.854 12.494 L 19.828 12.649 19.584 12.623 C 19.450 12.609,19.264 12.587,19.170 12.574 C 19.007 12.552,19.000 12.555,19.000 12.657 C 19.000 12.792,19.150 12.860,19.532 12.901 L 19.805 12.930 19.777 13.155 C 19.762 13.279,19.748 13.383,19.745 13.386 C 19.742 13.390,19.371 13.325,18.920 13.243 L 18.100 13.092 18.068 13.211 C 18.050 13.276,18.041 13.334,18.048 13.340 C 18.054 13.345,18.294 13.399,18.580 13.458 C 18.866 13.517,19.224 13.593,19.375 13.627 L 19.650 13.689 19.627 13.885 C 19.614 13.993,19.594 14.097,19.583 14.115 C 19.572 14.134,19.416 14.106,19.237 14.054 C 18.873 13.949,18.720 13.936,18.721 14.010 C 18.722 14.105,18.784 14.157,19.021 14.261 C 19.153 14.318,19.287 14.379,19.320 14.396 C 19.405 14.441,19.419 14.695,19.341 14.773 C 19.267 14.847,19.261 14.845,18.366 14.490 C 17.810 14.269,17.790 14.265,17.735 14.340 C 17.704 14.382,17.685 14.434,17.692 14.456 C 17.699 14.477,18.032 14.640,18.432 14.818 C 19.042 15.088,19.159 15.154,19.159 15.225 C 19.160 15.318,19.018 15.520,18.952 15.520 C 18.929 15.520,18.767 15.456,18.593 15.377 C 18.339 15.262,18.264 15.243,18.218 15.282 C 18.186 15.308,18.160 15.345,18.160 15.363 C 18.160 15.427,18.330 15.556,18.603 15.699 L 18.876 15.842 18.793 15.982 C 18.626 16.266,18.608 16.261,17.735 15.677 L 17.202 15.320 17.138 15.444 C 17.103 15.512,17.080 15.572,17.087 15.577 C 17.094 15.582,17.382 15.779,17.727 16.015 C 18.071 16.252,18.364 16.473,18.377 16.508 C 18.402 16.572,18.227 16.840,18.161 16.840 C 18.141 16.840,17.991 16.733,17.827 16.603 L 17.529 16.366 17.434 16.466 L 17.340 16.567 17.539 16.734 C 17.648 16.825,17.791 16.947,17.857 17.005 L 17.977 17.111 17.823 17.299 L 17.668 17.488 17.062 16.882 L 16.456 16.277 16.360 16.380 L 16.264 16.482 16.644 16.871 C 17.196 17.435,17.360 17.629,17.360 17.714 C 17.360 17.756,17.299 17.837,17.225 17.894 L 17.089 17.997 16.839 17.679 C 16.701 17.503,16.579 17.360,16.567 17.360 C 16.555 17.360,16.505 17.398,16.456 17.444 L 16.366 17.528 16.607 17.853 L 16.848 18.177 16.704 18.309 C 16.626 18.381,16.538 18.439,16.511 18.438 C 16.483 18.438,16.293 18.187,16.088 17.882 C 15.677 17.269,15.543 17.106,15.469 17.130 C 15.359 17.166,15.411 17.321,15.672 17.740 C 16.127 18.472,16.186 18.590,16.136 18.670 C 16.111 18.708,16.037 18.772,15.970 18.811 L 15.849 18.882 15.700 18.611 C 15.521 18.283,15.451 18.200,15.353 18.200 C 15.220 18.200,15.226 18.317,15.375 18.634 C 15.455 18.804,15.520 18.966,15.520 18.994 C 15.520 19.052,15.192 19.209,15.156 19.168 C 15.143 19.153,14.990 18.820,14.817 18.430 C 14.500 17.715,14.440 17.635,14.324 17.775 C 14.276 17.833,14.343 18.041,14.657 18.809 C 14.854 19.290,14.843 19.369,14.574 19.423 C 14.458 19.446,14.452 19.439,14.289 19.080 C 14.159 18.796,14.106 18.717,14.051 18.727 C 13.944 18.748,13.945 18.909,14.055 19.255 L 14.153 19.565 14.059 19.600 C 13.856 19.677,13.746 19.665,13.694 19.560 C 13.667 19.505,13.578 19.142,13.495 18.752 L 13.345 18.045 13.223 18.068 C 13.155 18.081,13.096 18.095,13.091 18.098 C 13.086 18.102,13.146 18.463,13.225 18.900 C 13.360 19.657,13.364 19.698,13.296 19.748 C 13.217 19.806,12.976 19.819,12.944 19.767 C 12.933 19.748,12.902 19.567,12.876 19.365 L 12.829 18.996 12.704 19.008 L 12.580 19.020 12.569 19.450 L 12.557 19.880 12.359 19.880 L 12.160 19.880 12.160 19.040 L 12.160 18.200 12.000 18.200 L 11.840 18.200 11.840 19.040 L 11.840 19.880 11.640 19.880 L 11.440 19.880 11.440 19.460 C 11.440 19.044,11.439 19.040,11.345 19.040 C 11.213 19.040,11.175 19.100,11.118 19.400 C 11.055 19.734,11.019 19.800,10.902 19.800 C 10.635 19.800,10.629 19.742,10.803 18.786 C 10.870 18.415,10.919 18.107,10.913 18.101 C 10.906 18.094,10.844 18.077,10.775 18.063 C 10.655 18.037,10.649 18.042,10.623 18.188 C 10.545 18.623,10.307 19.586,10.266 19.629 C 10.207 19.690,9.920 19.623,9.920 19.548 C 9.920 19.522,9.949 19.341,9.985 19.147 C 10.031 18.895,10.037 18.781,10.006 18.750 C 9.937 18.681,9.843 18.790,9.697 19.110 C 9.624 19.270,9.538 19.411,9.507 19.423 C 9.475 19.435,9.383 19.417,9.302 19.383 C 9.129 19.311,9.124 19.347,9.389 18.700 C 9.736 17.852,9.763 17.720,9.593 17.720 C 9.515 17.720,9.422 17.893,8.986 18.850 C 8.893 19.056,8.823 19.160,8.779 19.160 C 8.699 19.160,8.480 19.036,8.480 18.991 C 8.480 18.974,8.551 18.802,8.639 18.610 L 8.797 18.260 8.689 18.212 C 8.564 18.156,8.574 18.147,8.307 18.558 C 8.215 18.700,8.122 18.821,8.099 18.828 C 8.077 18.835,7.992 18.785,7.910 18.718 L 7.762 18.596 8.220 17.909 L 8.678 17.223 8.555 17.145 C 8.451 17.079,8.426 17.076,8.399 17.123 C 8.322 17.259,7.588 18.307,7.522 18.375 C 7.451 18.447,7.445 18.446,7.300 18.313 L 7.152 18.177 7.393 17.853 L 7.634 17.528 7.544 17.444 C 7.495 17.398,7.445 17.360,7.434 17.360 C 7.422 17.360,7.298 17.503,7.158 17.677 L 6.903 17.993 6.752 17.873 C 6.414 17.606,6.258 17.727,11.152 14.448 L 13.125 13.126 14.608 10.913 C 15.423 9.696,16.330 8.349,16.623 7.920 C 17.134 7.170,17.607 6.560,17.677 6.560 C 17.695 6.560,17.775 6.639,17.855 6.736 " fill="#373B4D" stroke="none" fill-rule="evenodd"></path></svg>