<svg width="24" height="24" viewBox="0 0 24 24" fill="none" xmlns="http://www.w3.org/2000/svg"><path d="M11.060 3.059 C 8.925 3.349,7.228 4.138,5.799 5.506 C 2.337 8.820,2.064 14.212,5.175 17.827 C 6.842 19.764,9.162 20.887,11.700 20.988 C 13.849 21.073,16.074 20.302,17.760 18.889 C 20.383 16.691,21.536 13.231,20.743 9.940 C 20.342 8.279,19.561 6.882,18.360 5.679 C 16.880 4.196,15.009 3.286,13.060 3.102 C 12.100 3.011,11.504 2.998,11.060 3.059 M11.840 4.960 L 11.840 5.800 12.000 5.800 L 12.160 5.800 12.160 4.960 L 12.160 4.120 12.311 4.120 C 12.394 4.120,12.499 4.146,12.545 4.178 C 12.618 4.229,12.624 4.259,12.596 4.428 C 12.579 4.534,12.564 4.707,12.562 4.813 L 12.560 5.005 12.690 4.993 L 12.820 4.980 12.882 4.611 C 12.916 4.408,12.956 4.231,12.969 4.217 C 13.004 4.183,13.314 4.238,13.342 4.284 C 13.355 4.304,13.300 4.673,13.220 5.104 C 13.140 5.535,13.080 5.893,13.087 5.899 C 13.094 5.906,13.156 5.923,13.224 5.937 L 13.348 5.964 13.438 5.512 C 13.594 4.724,13.688 4.366,13.742 4.345 C 13.770 4.334,13.861 4.343,13.942 4.366 C 14.087 4.406,14.089 4.409,14.068 4.573 C 14.056 4.665,14.023 4.843,13.995 4.970 C 13.954 5.152,13.954 5.210,13.993 5.249 C 14.066 5.322,14.169 5.241,14.236 5.056 C 14.379 4.658,14.435 4.560,14.520 4.560 C 14.619 4.560,14.840 4.667,14.840 4.715 C 14.840 4.734,14.714 5.057,14.560 5.434 C 14.406 5.811,14.280 6.146,14.280 6.179 C 14.280 6.255,14.436 6.340,14.485 6.291 C 14.506 6.270,14.657 5.941,14.822 5.558 C 14.987 5.175,15.135 4.849,15.151 4.833 C 15.194 4.790,15.520 4.947,15.520 5.010 C 15.520 5.040,15.448 5.213,15.360 5.395 C 15.272 5.577,15.200 5.732,15.200 5.739 C 15.200 5.746,15.253 5.771,15.319 5.794 C 15.434 5.834,15.441 5.829,15.574 5.607 C 15.649 5.482,15.740 5.321,15.777 5.249 C 15.843 5.119,15.844 5.118,15.954 5.183 C 16.015 5.219,16.107 5.280,16.157 5.318 L 16.249 5.387 15.785 6.082 L 15.322 6.777 15.443 6.853 C 15.509 6.896,15.569 6.923,15.576 6.915 C 15.583 6.907,15.782 6.615,16.019 6.267 C 16.256 5.919,16.474 5.624,16.504 5.613 C 16.572 5.587,16.840 5.749,16.840 5.817 C 16.840 5.868,16.734 6.019,16.491 6.312 L 16.362 6.468 16.462 6.562 C 16.521 6.617,16.574 6.640,16.594 6.617 C 16.612 6.597,16.737 6.451,16.871 6.292 L 17.114 6.005 17.303 6.171 L 17.491 6.337 17.328 6.482 C 17.073 6.708,16.098 7.379,13.382 9.196 L 10.876 10.873 9.313 13.207 C 8.453 14.490,7.545 15.839,7.295 16.204 C 6.847 16.858,6.422 17.400,6.336 17.428 C 6.312 17.436,6.227 17.363,6.147 17.266 L 6.003 17.090 6.231 16.906 C 6.357 16.805,6.504 16.684,6.557 16.639 L 6.654 16.556 6.557 16.460 L 6.460 16.364 6.143 16.626 L 5.825 16.887 5.757 16.796 C 5.719 16.746,5.660 16.657,5.626 16.599 L 5.563 16.492 6.174 16.068 C 6.859 15.594,6.915 15.544,6.855 15.449 C 6.833 15.414,6.797 15.379,6.776 15.372 C 6.755 15.365,6.435 15.557,6.066 15.800 C 5.697 16.042,5.387 16.240,5.378 16.240 C 5.351 16.240,5.200 15.927,5.200 15.871 C 5.200 15.842,5.339 15.737,5.510 15.638 C 5.831 15.452,5.893 15.354,5.749 15.264 C 5.693 15.229,5.642 15.240,5.509 15.314 C 5.416 15.366,5.263 15.442,5.169 15.483 L 4.998 15.558 4.919 15.429 C 4.764 15.176,4.775 15.165,5.517 14.845 C 6.257 14.525,6.353 14.460,6.264 14.339 C 6.211 14.267,6.179 14.276,5.495 14.552 C 5.102 14.710,4.758 14.840,4.731 14.840 C 4.664 14.840,4.552 14.614,4.568 14.507 C 4.577 14.442,4.639 14.398,4.820 14.330 C 5.181 14.193,5.260 14.145,5.260 14.058 C 5.260 13.948,5.144 13.942,4.805 14.036 C 4.646 14.080,4.491 14.106,4.461 14.095 C 4.380 14.064,4.338 13.764,4.406 13.701 C 4.436 13.673,4.798 13.582,5.212 13.498 L 5.963 13.346 5.937 13.223 C 5.922 13.155,5.908 13.097,5.905 13.093 C 5.902 13.089,5.531 13.155,5.080 13.240 C 4.629 13.325,4.258 13.391,4.256 13.387 C 4.222 13.339,4.208 12.960,4.239 12.941 C 4.261 12.927,4.441 12.896,4.640 12.872 C 4.996 12.828,5.000 12.826,5.000 12.716 C 5.000 12.655,4.983 12.594,4.963 12.582 C 4.942 12.569,4.760 12.577,4.557 12.600 C 4.354 12.623,4.185 12.637,4.179 12.631 C 4.174 12.625,4.157 12.517,4.142 12.390 L 4.114 12.160 4.957 12.160 L 5.800 12.160 5.800 12.020 L 5.800 11.880 5.028 11.880 C 4.124 11.880,4.104 11.873,4.152 11.600 L 4.184 11.420 4.587 11.432 L 4.990 11.445 5.008 11.321 C 5.018 11.252,5.016 11.191,5.003 11.183 C 4.990 11.176,4.845 11.158,4.680 11.142 C 4.282 11.105,4.188 11.045,4.223 10.848 C 4.238 10.767,4.263 10.685,4.280 10.667 C 4.297 10.648,4.666 10.699,5.099 10.779 C 5.533 10.860,5.893 10.920,5.899 10.913 C 5.906 10.906,5.922 10.846,5.937 10.779 L 5.962 10.658 5.181 10.504 L 4.400 10.350 4.400 10.130 L 4.400 9.910 4.570 9.932 C 4.663 9.944,4.843 9.977,4.970 10.005 C 5.152 10.046,5.210 10.046,5.249 10.007 C 5.322 9.934,5.241 9.831,5.056 9.764 C 4.658 9.621,4.560 9.565,4.560 9.480 C 4.560 9.381,4.667 9.160,4.715 9.160 C 4.734 9.160,5.057 9.286,5.434 9.440 C 5.811 9.594,6.146 9.720,6.179 9.720 C 6.232 9.720,6.345 9.570,6.313 9.541 C 6.272 9.505,5.755 9.262,5.329 9.080 C 5.059 8.965,4.829 8.855,4.818 8.836 C 4.787 8.786,4.954 8.480,5.013 8.480 C 5.041 8.480,5.215 8.553,5.399 8.642 C 5.748 8.811,5.798 8.808,5.799 8.616 C 5.800 8.552,5.724 8.492,5.480 8.360 C 5.304 8.265,5.160 8.171,5.160 8.151 C 5.160 8.108,5.360 7.760,5.384 7.760 C 5.394 7.760,5.711 7.967,6.089 8.219 L 6.777 8.678 6.853 8.557 C 6.896 8.491,6.923 8.431,6.915 8.423 C 6.907 8.416,6.603 8.217,6.240 7.981 C 5.877 7.745,5.573 7.545,5.565 7.537 C 5.550 7.523,5.797 7.120,5.820 7.120 C 5.827 7.120,5.973 7.237,6.145 7.380 L 6.458 7.640 6.557 7.541 C 6.611 7.487,6.648 7.437,6.638 7.429 C 6.554 7.369,6.094 6.972,6.071 6.940 C 6.026 6.880,6.031 6.868,6.152 6.723 C 6.243 6.614,6.281 6.595,6.358 6.620 C 6.411 6.636,6.700 6.890,7.000 7.184 L 7.547 7.719 7.642 7.618 L 7.736 7.518 7.316 7.089 C 6.738 6.500,6.598 6.332,6.624 6.263 C 6.637 6.231,6.706 6.159,6.779 6.104 L 6.911 6.003 7.161 6.321 C 7.299 6.497,7.421 6.640,7.433 6.640 C 7.445 6.640,7.495 6.602,7.544 6.556 L 7.634 6.472 7.392 6.147 L 7.151 5.821 7.326 5.670 C 7.486 5.530,7.504 5.524,7.549 5.589 C 7.575 5.628,7.773 5.920,7.989 6.238 C 8.408 6.857,8.476 6.927,8.575 6.844 C 8.631 6.797,8.629 6.775,8.553 6.626 C 8.506 6.535,8.348 6.280,8.200 6.060 C 7.933 5.661,7.800 5.433,7.800 5.372 C 7.800 5.354,7.880 5.291,7.978 5.232 L 8.155 5.125 8.342 5.472 C 8.445 5.664,8.536 5.827,8.543 5.835 C 8.560 5.853,8.800 5.758,8.800 5.734 C 8.800 5.725,8.728 5.575,8.640 5.400 C 8.552 5.225,8.480 5.055,8.480 5.022 C 8.480 4.956,8.782 4.784,8.837 4.818 C 8.857 4.830,9.011 5.168,9.180 5.570 C 9.350 5.971,9.493 6.305,9.498 6.310 C 9.509 6.322,9.760 6.237,9.760 6.221 C 9.760 6.215,9.618 5.870,9.444 5.455 C 9.165 4.786,9.136 4.694,9.191 4.651 C 9.279 4.581,9.518 4.542,9.565 4.589 C 9.587 4.611,9.653 4.760,9.712 4.920 C 9.827 5.229,9.921 5.335,10.007 5.249 C 10.046 5.210,10.045 5.152,10.003 4.970 C 9.973 4.843,9.941 4.666,9.931 4.576 C 9.915 4.430,9.923 4.408,10.006 4.386 C 10.058 4.372,10.148 4.361,10.206 4.361 C 10.308 4.360,10.317 4.377,10.393 4.710 C 10.437 4.902,10.513 5.263,10.562 5.512 L 10.652 5.964 10.776 5.937 C 10.844 5.923,10.906 5.906,10.913 5.899 C 10.920 5.893,10.860 5.533,10.779 5.099 C 10.699 4.666,10.648 4.297,10.667 4.280 C 10.719 4.232,10.975 4.198,11.028 4.232 C 11.054 4.248,11.097 4.429,11.123 4.633 L 11.171 5.004 11.296 4.992 L 11.420 4.980 11.408 4.573 C 11.394 4.121,11.386 4.134,11.690 4.125 L 11.840 4.120 11.840 4.960 M17.855 6.736 L 17.999 6.912 17.709 7.142 C 17.550 7.269,17.403 7.387,17.383 7.406 C 17.360 7.426,17.382 7.478,17.437 7.536 L 17.528 7.634 17.853 7.392 L 18.179 7.151 18.328 7.324 C 18.410 7.419,18.471 7.503,18.463 7.510 C 18.456 7.517,18.166 7.716,17.818 7.952 C 17.471 8.187,17.168 8.410,17.146 8.447 C 17.116 8.494,17.120 8.531,17.156 8.575 C 17.203 8.631,17.225 8.629,17.374 8.553 C 17.465 8.506,17.720 8.348,17.940 8.200 C 18.339 7.933,18.567 7.800,18.628 7.800 C 18.646 7.800,18.709 7.880,18.768 7.978 L 18.876 8.156 18.748 8.233 C 18.678 8.275,18.526 8.361,18.410 8.425 C 18.265 8.505,18.200 8.565,18.201 8.620 C 18.202 8.807,18.253 8.810,18.601 8.642 C 18.785 8.553,18.960 8.480,18.989 8.480 C 19.035 8.480,19.222 8.833,19.191 8.861 C 19.185 8.867,18.851 9.010,18.450 9.180 C 18.048 9.349,17.709 9.505,17.696 9.526 C 17.684 9.546,17.701 9.606,17.736 9.659 L 17.798 9.754 18.544 9.449 C 19.266 9.154,19.292 9.147,19.347 9.222 C 19.418 9.320,19.455 9.463,19.427 9.536 C 19.415 9.567,19.301 9.630,19.173 9.676 C 18.831 9.798,18.740 9.854,18.740 9.942 C 18.740 10.051,18.854 10.058,19.204 9.967 C 19.367 9.925,19.522 9.899,19.549 9.909 C 19.609 9.932,19.657 10.165,19.623 10.272 C 19.601 10.339,19.482 10.373,18.818 10.504 L 18.038 10.658 18.063 10.779 C 18.078 10.846,18.094 10.906,18.101 10.913 C 18.107 10.920,18.465 10.860,18.896 10.780 C 19.327 10.700,19.698 10.646,19.720 10.660 C 19.742 10.674,19.760 10.781,19.760 10.899 L 19.760 11.113 19.378 11.141 L 18.996 11.170 19.008 11.295 L 19.020 11.420 19.424 11.406 L 19.829 11.392 19.852 11.586 C 19.886 11.876,19.876 11.880,18.972 11.880 L 18.200 11.880 18.200 12.020 L 18.200 12.160 19.040 12.160 L 19.880 12.160 19.880 12.250 C 19.879 12.300,19.868 12.410,19.854 12.495 L 19.828 12.650 19.604 12.624 C 19.481 12.610,19.294 12.588,19.190 12.574 C 19.007 12.551,19.000 12.554,19.000 12.650 C 19.000 12.801,19.087 12.846,19.462 12.891 L 19.804 12.933 19.777 13.156 C 19.762 13.279,19.748 13.383,19.745 13.387 C 19.742 13.391,19.371 13.325,18.920 13.240 C 18.469 13.155,18.098 13.089,18.095 13.093 C 18.092 13.097,18.077 13.156,18.063 13.224 L 18.036 13.348 18.488 13.438 C 18.737 13.487,19.098 13.563,19.290 13.607 L 19.640 13.687 19.640 13.821 C 19.640 13.895,19.623 13.999,19.602 14.054 L 19.565 14.153 19.261 14.056 C 19.094 14.003,18.902 13.960,18.836 13.960 C 18.733 13.960,18.716 13.974,18.727 14.049 C 18.741 14.145,18.815 14.191,19.180 14.331 C 19.417 14.421,19.420 14.424,19.415 14.575 C 19.412 14.658,19.381 14.756,19.346 14.791 C 19.286 14.851,19.224 14.833,18.566 14.568 C 18.173 14.410,17.831 14.280,17.807 14.280 C 17.742 14.280,17.665 14.441,17.709 14.485 C 17.730 14.506,18.059 14.657,18.442 14.822 C 18.825 14.987,19.153 15.137,19.172 15.156 C 19.229 15.213,19.049 15.520,18.960 15.520 C 18.917 15.520,18.746 15.453,18.581 15.371 C 18.295 15.230,18.277 15.226,18.211 15.292 C 18.109 15.394,18.172 15.465,18.549 15.668 L 18.875 15.844 18.795 15.979 C 18.679 16.176,18.628 16.209,18.506 16.162 C 18.449 16.141,18.132 15.942,17.802 15.721 L 17.202 15.320 17.138 15.444 C 17.103 15.512,17.080 15.572,17.087 15.577 C 17.094 15.582,17.361 15.762,17.680 15.978 C 18.502 16.534,18.472 16.497,18.286 16.720 L 18.171 16.857 18.056 16.782 C 17.992 16.741,17.848 16.629,17.736 16.534 L 17.533 16.361 17.436 16.464 L 17.340 16.567 17.539 16.734 C 17.648 16.825,17.791 16.947,17.857 17.005 L 17.977 17.111 17.823 17.299 L 17.668 17.488 17.062 16.882 L 16.456 16.277 16.360 16.380 L 16.264 16.482 16.684 16.911 C 17.262 17.500,17.402 17.668,17.376 17.737 C 17.363 17.769,17.294 17.841,17.221 17.896 L 17.089 17.997 16.839 17.679 C 16.701 17.503,16.579 17.360,16.567 17.360 C 16.555 17.360,16.505 17.398,16.456 17.444 L 16.366 17.528 16.608 17.854 L 16.849 18.179 16.675 18.333 C 16.512 18.478,16.498 18.483,16.452 18.414 C 15.916 17.613,15.607 17.177,15.553 17.145 C 15.506 17.117,15.468 17.120,15.424 17.157 C 15.347 17.221,15.338 17.202,15.826 17.984 C 16.047 18.338,16.193 18.613,16.179 18.648 C 16.167 18.680,16.087 18.746,16.003 18.794 L 15.850 18.880 15.659 18.540 C 15.513 18.281,15.448 18.200,15.384 18.201 C 15.186 18.202,15.185 18.252,15.375 18.631 C 15.513 18.904,15.545 19.002,15.509 19.031 C 15.396 19.121,15.188 19.204,15.156 19.172 C 15.137 19.153,14.987 18.825,14.822 18.442 C 14.657 18.059,14.506 17.730,14.486 17.710 C 14.441 17.665,14.280 17.758,14.280 17.829 C 14.280 17.857,14.409 18.195,14.566 18.581 C 14.842 19.257,14.849 19.285,14.776 19.341 C 14.680 19.415,14.536 19.455,14.465 19.428 C 14.435 19.416,14.361 19.270,14.300 19.104 C 14.183 18.782,14.118 18.697,14.021 18.734 C 13.935 18.767,13.945 18.910,14.056 19.261 L 14.153 19.565 14.066 19.596 C 13.898 19.659,13.779 19.676,13.730 19.646 C 13.683 19.617,13.562 19.132,13.418 18.392 L 13.350 18.044 13.225 18.068 C 13.156 18.081,13.095 18.095,13.090 18.100 C 13.084 18.104,13.142 18.441,13.220 18.849 C 13.297 19.257,13.360 19.628,13.360 19.674 C 13.360 19.753,13.289 19.781,13.003 19.813 C 12.938 19.821,12.903 19.687,12.861 19.268 L 12.833 18.995 12.707 19.008 L 12.580 19.020 12.569 19.450 L 12.557 19.880 12.359 19.880 L 12.160 19.880 12.160 19.040 L 12.160 18.200 12.000 18.200 L 11.840 18.200 11.840 19.040 L 11.840 19.880 11.640 19.880 L 11.440 19.880 11.440 19.457 L 11.440 19.035 11.310 19.047 C 11.183 19.060,11.179 19.066,11.129 19.340 C 11.039 19.827,11.052 19.800,10.907 19.800 C 10.835 19.800,10.743 19.776,10.704 19.748 C 10.636 19.698,10.639 19.657,10.779 18.904 C 10.859 18.468,10.920 18.107,10.913 18.101 C 10.906 18.094,10.844 18.077,10.776 18.063 L 10.652 18.036 10.583 18.388 C 10.478 18.921,10.322 19.573,10.285 19.633 C 10.258 19.676,10.218 19.677,10.081 19.640 L 9.910 19.594 9.932 19.427 C 9.944 19.335,9.977 19.157,10.005 19.030 C 10.046 18.848,10.046 18.790,10.007 18.751 C 9.921 18.665,9.829 18.770,9.700 19.104 C 9.605 19.349,9.558 19.423,9.492 19.432 C 9.398 19.446,9.160 19.339,9.160 19.284 C 9.160 19.265,9.293 18.924,9.456 18.527 C 9.760 17.785,9.766 17.747,9.585 17.714 C 9.523 17.702,9.457 17.818,9.203 18.380 C 8.792 19.293,8.853 19.211,8.650 19.120 C 8.556 19.078,8.480 19.020,8.480 18.990 C 8.480 18.960,8.553 18.786,8.641 18.602 C 8.730 18.419,8.797 18.265,8.791 18.260 C 8.731 18.211,8.591 18.161,8.562 18.178 C 8.543 18.191,8.444 18.344,8.342 18.520 C 8.241 18.696,8.135 18.840,8.108 18.840 C 8.081 18.840,7.992 18.785,7.910 18.718 L 7.762 18.596 8.220 17.909 L 8.678 17.223 8.557 17.147 C 8.491 17.104,8.431 17.077,8.425 17.085 C 8.418 17.093,8.210 17.402,7.962 17.770 C 7.714 18.139,7.495 18.440,7.475 18.440 C 7.455 18.440,7.374 18.381,7.296 18.309 L 7.152 18.177 7.393 17.853 L 7.634 17.528 7.544 17.444 C 7.495 17.398,7.445 17.360,7.434 17.360 C 7.422 17.360,7.298 17.503,7.158 17.677 L 6.903 17.993 6.752 17.874 C 6.546 17.710,6.538 17.689,6.646 17.573 C 6.871 17.330,7.449 16.928,10.733 14.728 L 13.125 13.126 14.688 10.793 C 16.660 7.847,17.054 7.268,17.254 7.020 C 17.466 6.756,17.649 6.560,17.683 6.560 C 17.698 6.560,17.775 6.639,17.855 6.736 " fill="#373B4D" stroke="none" fill-rule="evenodd"></path></svg>