<svg width="24" height="24" viewBox="0 0 24 24" fill="none" xmlns="http://www.w3.org/2000/svg"><path d="M10.955 3.082 C 10.100 3.176,8.879 3.548,8.007 3.981 C 6.728 4.615,5.689 5.476,4.849 6.594 C 3.622 8.227,3.028 9.984,3.029 11.980 C 3.029 13.973,3.618 15.758,4.796 17.334 C 6.921 20.179,10.550 21.554,13.880 20.775 C 15.667 20.357,17.132 19.555,18.360 18.322 C 19.774 16.903,20.684 15.033,20.922 13.060 C 20.978 12.591,20.977 11.403,20.919 10.920 C 20.609 8.314,19.089 5.921,16.792 4.425 C 16.323 4.119,15.414 3.681,14.891 3.508 C 14.311 3.317,13.633 3.172,13.100 3.124 C 12.453 3.066,11.305 3.043,10.955 3.082 M11.840 4.960 L 11.840 5.800 12.000 5.800 L 12.160 5.800 12.160 4.960 L 12.160 4.120 12.277 4.120 C 12.342 4.120,12.441 4.138,12.498 4.159 L 12.601 4.198 12.574 4.602 L 12.548 5.006 12.683 4.993 L 12.818 4.980 12.895 4.587 L 12.972 4.193 13.116 4.220 C 13.367 4.268,13.363 4.221,13.198 5.182 C 13.132 5.572,13.082 5.895,13.088 5.900 C 13.095 5.906,13.155 5.922,13.223 5.937 L 13.345 5.963 13.497 5.252 C 13.580 4.860,13.673 4.500,13.705 4.450 C 13.775 4.339,13.989 4.324,14.028 4.427 C 14.043 4.465,14.034 4.658,14.009 4.857 C 13.937 5.426,14.050 5.416,14.346 4.828 C 14.459 4.603,14.497 4.560,14.562 4.578 C 14.605 4.590,14.676 4.610,14.720 4.623 C 14.769 4.637,14.800 4.680,14.800 4.735 C 14.800 4.785,14.683 5.124,14.540 5.489 C 14.397 5.855,14.280 6.173,14.280 6.196 C 14.280 6.254,14.442 6.334,14.479 6.294 C 14.496 6.275,14.586 6.089,14.679 5.880 C 14.974 5.215,15.167 4.840,15.214 4.840 C 15.301 4.840,15.527 5.003,15.508 5.052 C 15.498 5.078,15.431 5.230,15.360 5.389 C 15.226 5.688,15.224 5.800,15.353 5.800 C 15.447 5.800,15.517 5.721,15.679 5.430 C 15.750 5.304,15.824 5.190,15.845 5.177 C 15.866 5.164,15.963 5.201,16.061 5.259 C 16.276 5.385,16.302 5.314,15.723 6.179 L 15.322 6.777 15.443 6.854 C 15.509 6.896,15.569 6.923,15.576 6.915 C 15.583 6.907,15.782 6.621,16.018 6.280 C 16.254 5.939,16.462 5.645,16.480 5.626 C 16.513 5.590,16.655 5.651,16.769 5.750 C 16.853 5.824,16.828 5.879,16.555 6.225 C 16.371 6.458,16.365 6.472,16.434 6.535 C 16.474 6.571,16.532 6.600,16.563 6.599 C 16.594 6.599,16.725 6.473,16.854 6.319 C 16.982 6.166,17.101 6.040,17.119 6.040 C 17.136 6.040,17.227 6.109,17.323 6.193 L 17.495 6.347 17.258 6.534 C 16.844 6.861,15.852 7.542,13.328 9.232 L 10.875 10.874 9.523 12.887 C 6.895 16.802,6.471 17.400,6.324 17.400 C 6.285 17.400,6.197 17.330,6.128 17.244 L 6.002 17.087 6.289 16.854 C 6.446 16.725,6.594 16.607,6.618 16.591 C 6.645 16.573,6.623 16.526,6.560 16.463 L 6.460 16.364 6.143 16.626 L 5.825 16.887 5.757 16.796 C 5.719 16.746,5.661 16.658,5.627 16.601 L 5.565 16.496 6.213 16.036 C 6.667 15.712,6.860 15.552,6.860 15.497 C 6.860 15.338,6.695 15.401,6.080 15.798 C 5.739 16.018,5.431 16.198,5.396 16.199 C 5.325 16.200,5.240 16.042,5.240 15.908 C 5.240 15.851,5.293 15.785,5.389 15.720 C 5.956 15.338,5.935 15.152,5.354 15.400 C 5.199 15.466,5.047 15.520,5.017 15.520 C 4.947 15.520,4.880 15.394,4.880 15.260 C 4.880 15.163,4.934 15.129,5.530 14.844 C 6.193 14.526,6.329 14.433,6.249 14.353 C 6.198 14.302,5.939 14.378,5.222 14.655 C 4.959 14.757,4.731 14.840,4.716 14.840 C 4.676 14.840,4.552 14.515,4.580 14.485 C 4.594 14.471,4.743 14.388,4.912 14.300 C 5.106 14.199,5.225 14.112,5.234 14.064 C 5.247 13.994,5.230 13.990,4.994 14.018 C 4.507 14.076,4.467 14.071,4.409 13.951 C 4.298 13.720,4.404 13.668,5.399 13.460 C 5.673 13.403,5.909 13.337,5.924 13.314 C 5.967 13.245,5.916 13.120,5.845 13.120 C 5.809 13.121,5.475 13.175,5.101 13.240 C 4.187 13.402,4.240 13.407,4.240 13.146 L 4.240 12.932 4.566 12.886 C 4.917 12.837,5.000 12.795,5.000 12.669 C 5.000 12.592,4.984 12.590,4.599 12.616 C 4.154 12.647,4.182 12.663,4.141 12.350 L 4.115 12.160 4.958 12.160 L 5.800 12.160 5.800 12.023 L 5.800 11.886 5.018 11.873 C 4.152 11.859,4.162 11.862,4.161 11.590 L 4.160 11.440 4.580 11.440 L 5.000 11.440 5.000 11.321 C 5.000 11.190,5.021 11.200,4.550 11.118 C 4.267 11.069,4.209 11.010,4.247 10.813 C 4.269 10.699,4.599 10.701,5.289 10.819 C 5.620 10.876,5.896 10.917,5.901 10.911 C 5.906 10.905,5.922 10.846,5.937 10.779 L 5.962 10.658 5.181 10.504 L 4.400 10.350 4.400 10.157 C 4.400 10.051,4.416 9.955,4.435 9.943 C 4.454 9.932,4.620 9.948,4.804 9.981 C 5.418 10.089,5.449 9.954,4.870 9.688 C 4.625 9.576,4.600 9.553,4.600 9.445 C 4.600 9.274,4.638 9.200,4.725 9.200 C 4.767 9.200,5.119 9.320,5.506 9.467 C 6.180 9.723,6.213 9.732,6.265 9.660 C 6.295 9.618,6.320 9.573,6.320 9.559 C 6.320 9.545,5.992 9.382,5.590 9.196 C 4.794 8.829,4.749 8.787,4.928 8.585 L 5.020 8.481 5.374 8.624 C 5.636 8.730,5.740 8.756,5.773 8.723 C 5.844 8.652,5.765 8.560,5.448 8.347 L 5.161 8.154 5.243 7.995 C 5.287 7.908,5.350 7.826,5.382 7.814 C 5.415 7.801,5.722 7.978,6.109 8.234 L 6.778 8.676 6.856 8.554 C 6.921 8.451,6.925 8.426,6.877 8.399 C 6.846 8.381,6.537 8.180,6.192 7.953 L 5.564 7.540 5.686 7.330 L 5.807 7.119 5.913 7.197 C 5.972 7.240,6.119 7.357,6.239 7.457 L 6.459 7.639 6.556 7.542 L 6.653 7.446 6.516 7.333 C 6.441 7.271,6.300 7.146,6.203 7.056 L 6.026 6.891 6.116 6.766 C 6.282 6.532,6.393 6.594,7.162 7.348 L 7.544 7.722 7.638 7.622 L 7.732 7.523 7.287 7.060 C 6.578 6.322,6.551 6.270,6.796 6.089 L 6.911 6.004 7.162 6.322 C 7.299 6.497,7.421 6.640,7.433 6.640 C 7.445 6.640,7.495 6.602,7.544 6.556 L 7.634 6.472 7.393 6.147 L 7.152 5.822 7.306 5.692 C 7.391 5.620,7.478 5.567,7.499 5.574 C 7.520 5.580,7.705 5.827,7.909 6.122 C 8.349 6.758,8.504 6.929,8.561 6.840 C 8.582 6.807,8.599 6.771,8.599 6.759 C 8.600 6.734,8.331 6.269,8.044 5.801 C 7.930 5.614,7.842 5.427,7.848 5.385 C 7.855 5.343,7.927 5.266,8.009 5.214 L 8.159 5.120 8.295 5.390 C 8.370 5.538,8.466 5.703,8.508 5.755 C 8.579 5.843,8.594 5.846,8.691 5.795 L 8.797 5.740 8.659 5.440 C 8.498 5.088,8.488 4.987,8.609 4.902 C 8.819 4.755,8.832 4.772,9.241 5.720 C 9.378 6.039,9.494 6.305,9.499 6.310 C 9.525 6.342,9.762 6.223,9.747 6.185 C 9.737 6.160,9.610 5.849,9.465 5.493 C 9.319 5.137,9.200 4.801,9.200 4.747 C 9.200 4.637,9.265 4.600,9.453 4.600 C 9.572 4.600,9.587 4.617,9.694 4.877 C 9.817 5.179,9.935 5.321,10.003 5.253 C 10.032 5.224,10.026 5.103,9.984 4.864 C 9.917 4.477,9.927 4.410,10.062 4.376 C 10.305 4.315,10.313 4.332,10.564 5.532 L 10.654 5.963 10.777 5.937 C 10.845 5.922,10.905 5.906,10.911 5.901 C 10.917 5.896,10.876 5.620,10.819 5.289 C 10.762 4.957,10.721 4.590,10.728 4.473 C 10.740 4.267,10.744 4.260,10.863 4.248 C 11.028 4.232,11.063 4.286,11.118 4.640 C 11.169 4.976,11.191 5.012,11.325 4.993 C 11.418 4.980,11.420 4.973,11.406 4.617 C 11.390 4.190,11.429 4.120,11.683 4.120 L 11.840 4.120 11.840 4.960 M17.855 6.737 L 18.000 6.913 17.702 7.147 C 17.538 7.275,17.403 7.406,17.402 7.437 C 17.401 7.468,17.429 7.525,17.464 7.564 C 17.524 7.630,17.546 7.620,17.853 7.393 L 18.178 7.152 18.308 7.306 C 18.380 7.391,18.433 7.478,18.427 7.500 C 18.420 7.522,18.263 7.644,18.078 7.771 C 17.626 8.081,17.120 8.475,17.120 8.517 C 17.120 8.595,17.255 8.594,17.412 8.514 C 17.505 8.467,17.746 8.323,17.948 8.194 C 18.398 7.908,18.575 7.822,18.650 7.851 C 18.682 7.863,18.746 7.937,18.792 8.015 L 18.875 8.157 18.628 8.305 C 18.336 8.479,18.200 8.594,18.200 8.667 C 18.200 8.749,18.376 8.730,18.648 8.620 C 18.783 8.565,18.923 8.520,18.960 8.520 C 19.017 8.520,19.230 8.826,19.194 8.857 C 19.186 8.864,18.919 8.982,18.600 9.119 C 18.071 9.347,17.725 9.508,17.685 9.544 C 17.676 9.551,17.698 9.601,17.733 9.655 L 17.797 9.753 18.489 9.477 C 18.869 9.325,19.211 9.201,19.249 9.201 C 19.334 9.200,19.451 9.370,19.433 9.468 C 19.425 9.512,19.296 9.602,19.101 9.700 C 18.797 9.852,18.691 9.965,18.810 10.011 C 18.840 10.022,19.003 10.007,19.173 9.977 C 19.344 9.948,19.507 9.933,19.538 9.945 C 19.606 9.971,19.659 10.237,19.606 10.290 C 19.560 10.336,18.993 10.477,18.428 10.582 L 18.037 10.655 18.063 10.778 C 18.078 10.845,18.094 10.906,18.101 10.913 C 18.107 10.919,18.370 10.880,18.686 10.825 C 19.620 10.663,19.666 10.660,19.717 10.754 C 19.741 10.798,19.760 10.896,19.760 10.972 C 19.760 11.107,19.758 11.109,19.550 11.134 C 19.434 11.148,19.262 11.159,19.167 11.160 C 18.997 11.160,18.995 11.162,19.007 11.290 L 19.020 11.420 19.430 11.406 L 19.840 11.392 19.839 11.566 C 19.838 11.865,19.857 11.858,18.982 11.873 L 18.200 11.886 18.200 12.023 L 18.200 12.160 19.040 12.160 L 19.880 12.160 19.880 12.250 C 19.879 12.300,19.868 12.410,19.854 12.495 L 19.828 12.650 19.564 12.623 C 19.419 12.609,19.233 12.586,19.150 12.573 C 19.019 12.553,19.000 12.560,19.000 12.629 C 19.000 12.672,19.032 12.735,19.070 12.769 C 19.146 12.836,19.489 12.920,19.685 12.920 L 19.806 12.920 19.778 13.150 C 19.763 13.277,19.748 13.383,19.745 13.387 C 19.742 13.390,19.407 13.332,19.000 13.257 C 18.096 13.091,18.096 13.091,18.062 13.225 C 18.048 13.282,18.041 13.334,18.048 13.340 C 18.055 13.345,18.410 13.424,18.837 13.515 C 19.264 13.606,19.622 13.688,19.631 13.698 C 19.641 13.707,19.636 13.806,19.620 13.917 C 19.588 14.153,19.590 14.153,19.163 14.039 C 18.813 13.946,18.720 13.941,18.720 14.014 C 18.720 14.097,18.837 14.184,19.108 14.301 C 19.310 14.389,19.360 14.429,19.380 14.522 C 19.412 14.665,19.342 14.800,19.236 14.800 C 19.192 14.800,18.878 14.692,18.540 14.560 C 17.895 14.308,17.745 14.277,17.703 14.386 C 17.689 14.422,17.683 14.456,17.689 14.461 C 17.720 14.488,18.231 14.731,18.607 14.898 C 18.842 15.003,19.064 15.121,19.100 15.160 C 19.161 15.227,19.161 15.242,19.101 15.358 C 19.065 15.428,19.013 15.493,18.985 15.503 C 18.958 15.514,18.807 15.468,18.650 15.401 C 18.349 15.273,18.222 15.252,18.178 15.323 C 18.136 15.392,18.307 15.543,18.603 15.699 L 18.876 15.842 18.792 15.985 C 18.636 16.250,18.578 16.235,17.803 15.721 L 17.201 15.322 17.138 15.445 C 17.103 15.512,17.080 15.572,17.087 15.577 C 17.094 15.583,17.280 15.710,17.500 15.861 C 18.110 16.280,18.360 16.479,18.360 16.546 C 18.360 16.619,18.210 16.840,18.160 16.840 C 18.141 16.840,17.991 16.733,17.827 16.603 L 17.529 16.366 17.434 16.466 L 17.340 16.567 17.539 16.734 C 17.648 16.825,17.791 16.947,17.857 17.005 L 17.977 17.111 17.823 17.299 L 17.668 17.488 17.062 16.882 L 16.456 16.277 16.362 16.377 L 16.268 16.477 16.713 16.940 C 17.422 17.678,17.449 17.730,17.204 17.911 L 17.089 17.996 16.838 17.678 C 16.701 17.503,16.579 17.360,16.567 17.360 C 16.555 17.360,16.505 17.398,16.456 17.444 L 16.366 17.528 16.608 17.853 L 16.849 18.179 16.697 18.310 C 16.613 18.382,16.526 18.435,16.504 18.428 C 16.481 18.420,16.295 18.172,16.090 17.877 C 15.650 17.244,15.495 17.072,15.442 17.158 C 15.393 17.236,15.462 17.392,15.774 17.913 C 16.215 18.649,16.218 18.663,15.967 18.810 L 15.847 18.880 15.700 18.610 C 15.521 18.284,15.451 18.200,15.354 18.200 C 15.228 18.200,15.243 18.347,15.403 18.699 C 15.467 18.842,15.520 18.974,15.520 18.993 C 15.520 19.048,15.256 19.175,15.192 19.150 C 15.160 19.138,15.003 18.839,14.843 18.486 C 14.553 17.848,14.448 17.686,14.358 17.741 C 14.284 17.787,14.340 18.018,14.564 18.582 C 14.811 19.203,14.825 19.315,14.668 19.392 C 14.606 19.422,14.528 19.436,14.496 19.424 C 14.463 19.411,14.376 19.270,14.303 19.110 C 14.148 18.769,14.075 18.689,14.001 18.779 C 13.949 18.842,13.987 19.075,14.105 19.411 C 14.156 19.559,14.155 19.564,14.051 19.603 C 13.887 19.666,13.747 19.633,13.693 19.520 C 13.667 19.465,13.578 19.111,13.496 18.732 L 13.345 18.045 13.223 18.068 C 13.155 18.081,13.096 18.095,13.091 18.099 C 13.085 18.102,13.135 18.410,13.201 18.783 C 13.350 19.633,13.353 19.750,13.224 19.783 C 13.171 19.796,13.086 19.801,13.035 19.793 C 12.936 19.779,12.923 19.737,12.862 19.228 C 12.834 18.996,12.833 18.995,12.707 19.008 L 12.580 19.020 12.569 19.450 L 12.557 19.880 12.359 19.880 L 12.160 19.880 12.160 19.040 L 12.160 18.200 12.000 18.200 L 11.840 18.200 11.840 19.040 L 11.840 19.880 11.641 19.880 L 11.443 19.880 11.431 19.470 C 11.421 19.083,11.415 19.059,11.333 19.048 C 11.229 19.033,11.180 19.111,11.120 19.385 C 11.043 19.741,11.003 19.806,10.868 19.792 C 10.660 19.771,10.653 19.710,10.775 18.972 C 10.837 18.603,10.896 18.253,10.907 18.195 C 10.925 18.106,10.912 18.088,10.814 18.068 C 10.751 18.056,10.688 18.058,10.673 18.073 C 10.658 18.088,10.601 18.300,10.546 18.545 C 10.492 18.790,10.407 19.136,10.359 19.315 C 10.273 19.634,10.269 19.640,10.146 19.639 C 9.912 19.638,9.903 19.614,9.981 19.182 C 10.031 18.903,10.038 18.782,10.007 18.751 C 9.940 18.684,9.868 18.765,9.701 19.091 C 9.619 19.250,9.538 19.395,9.520 19.414 C 9.502 19.433,9.423 19.427,9.344 19.401 C 9.235 19.365,9.200 19.332,9.200 19.264 C 9.200 19.214,9.308 18.902,9.440 18.570 C 9.678 17.972,9.733 17.720,9.626 17.720 C 9.531 17.720,9.447 17.853,9.181 18.422 C 9.038 18.729,8.887 19.025,8.845 19.080 L 8.769 19.180 8.625 19.104 C 8.545 19.062,8.480 19.013,8.480 18.994 C 8.480 18.976,8.552 18.805,8.641 18.614 C 8.763 18.348,8.789 18.258,8.751 18.233 C 8.638 18.159,8.537 18.229,8.326 18.529 C 8.091 18.864,8.072 18.870,7.853 18.670 L 7.765 18.591 8.195 17.945 C 8.432 17.590,8.637 17.281,8.650 17.257 C 8.664 17.234,8.623 17.184,8.559 17.146 L 8.443 17.077 8.331 17.234 C 8.270 17.320,8.060 17.618,7.865 17.895 C 7.649 18.203,7.484 18.400,7.443 18.400 C 7.405 18.400,7.326 18.349,7.266 18.286 L 7.156 18.172 7.395 17.850 L 7.634 17.528 7.544 17.444 C 7.495 17.398,7.445 17.360,7.434 17.360 C 7.422 17.360,7.298 17.503,7.158 17.677 L 6.903 17.993 6.752 17.873 C 6.668 17.807,6.600 17.732,6.600 17.705 C 6.600 17.618,6.971 17.294,7.488 16.928 C 7.889 16.645,11.444 14.247,12.854 13.310 C 13.060 13.173,13.173 13.060,13.310 12.854 C 14.276 11.402,16.645 7.888,16.929 7.488 C 17.311 6.949,17.625 6.560,17.678 6.560 C 17.696 6.560,17.776 6.640,17.855 6.737 " fill="#373B4D" stroke="none" fill-rule="evenodd"></path></svg>