<svg width="24" height="24" viewBox="0 0 24 24" fill="none" xmlns="http://www.w3.org/2000/svg"><path d="M7.074 6.083 C 6.726 6.134,6.228 6.344,5.846 6.602 C 4.529 7.487,3.978 8.974,4.362 10.609 L 4.453 10.999 4.075 11.389 C 3.639 11.840,3.485 12.050,3.296 12.460 C 3.096 12.893,3.028 13.225,3.030 13.760 C 3.033 14.312,3.124 14.707,3.358 15.180 C 3.653 15.776,4.173 16.289,4.776 16.579 C 5.186 16.776,5.469 16.838,6.090 16.867 L 6.639 16.892 6.782 17.181 C 7.191 18.008,8.163 18.763,9.029 18.926 C 9.384 18.992,10.328 18.946,10.602 18.849 C 11.414 18.560,12.162 17.903,12.552 17.137 L 12.635 16.973 12.987 17.094 C 13.304 17.202,13.392 17.215,13.840 17.216 C 14.219 17.218,14.398 17.200,14.580 17.144 C 15.161 16.964,15.662 16.625,16.109 16.109 L 16.358 15.821 16.989 15.817 C 17.532 15.813,17.674 15.798,18.008 15.709 C 18.755 15.510,19.296 15.189,19.817 14.637 C 20.352 14.070,20.616 13.626,20.825 12.940 C 20.928 12.601,20.935 12.534,20.937 11.780 L 20.940 10.980 20.779 10.520 C 20.570 9.924,20.301 9.476,19.884 9.033 C 19.503 8.627,19.202 8.400,18.737 8.168 C 18.163 7.880,18.050 7.860,17.080 7.862 C 16.279 7.864,16.197 7.871,15.878 7.966 L 15.536 8.068 15.378 7.849 C 15.163 7.552,14.615 7.039,14.322 6.861 C 14.189 6.781,13.968 6.667,13.830 6.609 C 13.587 6.505,13.556 6.502,12.780 6.502 C 11.990 6.502,11.977 6.503,11.720 6.615 C 11.384 6.761,11.042 6.965,10.735 7.204 L 10.490 7.394 10.335 7.232 C 10.100 6.987,9.629 6.620,9.344 6.461 C 8.706 6.104,7.874 5.966,7.074 6.083 " fill="#373B4D" stroke="none" fill-rule="evenodd"></path></svg>