<svg width="24" height="24" viewBox="0 0 24 24" fill="none" xmlns="http://www.w3.org/2000/svg"><path d="M6.852 6.141 C 5.880 6.403,4.870 7.297,4.520 8.207 C 4.305 8.763,4.269 8.967,4.270 9.620 C 4.270 10.089,4.290 10.306,4.358 10.612 L 4.445 11.004 4.115 11.352 C 3.558 11.940,3.342 12.270,3.156 12.820 C 3.072 13.070,3.062 13.171,3.062 13.760 C 3.062 14.299,3.076 14.460,3.136 14.640 C 3.455 15.577,4.133 16.316,4.997 16.665 C 5.323 16.797,5.533 16.834,6.125 16.865 L 6.631 16.892 6.699 17.036 C 7.044 17.762,7.847 18.499,8.637 18.815 C 8.935 18.934,8.952 18.936,9.640 18.935 C 10.287 18.933,10.362 18.926,10.629 18.831 C 10.788 18.775,10.999 18.681,11.098 18.623 C 11.581 18.340,12.206 17.719,12.516 17.214 L 12.642 17.008 12.871 17.065 C 13.636 17.256,14.010 17.272,14.538 17.135 C 15.054 17.002,15.690 16.577,16.166 16.047 L 16.352 15.840 16.666 15.840 C 18.153 15.840,19.114 15.432,19.992 14.428 C 20.289 14.088,20.510 13.733,20.679 13.322 C 20.883 12.828,20.920 12.616,20.945 11.811 L 20.969 11.060 20.840 10.700 C 20.548 9.884,20.291 9.456,19.796 8.961 C 19.232 8.397,18.531 7.995,17.970 7.915 C 17.549 7.855,16.148 7.901,15.802 7.987 L 15.544 8.051 15.384 7.855 C 14.973 7.353,14.556 7.008,13.994 6.704 L 13.653 6.520 12.781 6.520 L 11.909 6.520 11.515 6.729 C 11.298 6.843,10.980 7.038,10.808 7.161 L 10.495 7.386 10.221 7.131 C 9.650 6.600,8.941 6.217,8.356 6.122 C 7.989 6.063,7.102 6.074,6.852 6.141 " fill="#373B4D" stroke="none" fill-rule="evenodd"></path></svg>