<svg width="24" height="24" viewBox="0 0 24 24" fill="none" xmlns="http://www.w3.org/2000/svg"><path d="M7.119 6.080 C 6.106 6.242,5.001 7.105,4.575 8.067 C 4.521 8.189,4.430 8.444,4.372 8.634 C 4.279 8.939,4.266 9.051,4.264 9.580 C 4.261 10.073,4.278 10.254,4.355 10.593 L 4.448 11.006 4.132 11.333 C 3.569 11.916,3.344 12.259,3.154 12.820 C 3.070 13.070,3.060 13.171,3.061 13.760 C 3.062 14.395,3.067 14.433,3.185 14.768 C 3.540 15.767,4.355 16.528,5.340 16.780 C 5.472 16.814,5.817 16.853,6.107 16.867 L 6.634 16.892 6.760 17.141 C 7.136 17.881,7.887 18.541,8.688 18.833 C 8.961 18.933,9.023 18.940,9.640 18.939 C 10.203 18.937,10.341 18.924,10.580 18.850 C 11.045 18.705,11.452 18.438,11.900 17.985 C 12.234 17.647,12.544 17.229,12.612 17.024 C 12.620 16.999,12.767 17.025,12.983 17.089 C 14.144 17.431,15.122 17.143,16.022 16.192 L 16.343 15.852 17.012 15.823 C 17.519 15.801,17.761 15.772,18.010 15.703 C 18.748 15.498,19.222 15.224,19.738 14.707 C 20.281 14.162,20.565 13.707,20.799 13.008 C 20.911 12.676,20.920 12.598,20.944 11.856 L 20.968 11.060 20.821 10.643 C 20.550 9.875,20.291 9.449,19.782 8.935 C 19.307 8.455,18.585 8.021,18.093 7.919 C 17.953 7.890,17.547 7.880,16.948 7.891 C 16.167 7.905,15.982 7.920,15.782 7.986 L 15.543 8.064 15.315 7.777 C 14.973 7.346,14.491 6.949,14.028 6.718 L 13.633 6.520 12.783 6.520 L 11.933 6.520 11.536 6.714 C 11.318 6.821,10.994 7.018,10.814 7.151 L 10.489 7.393 10.354 7.251 C 10.157 7.043,9.672 6.662,9.409 6.509 C 9.119 6.340,8.811 6.218,8.480 6.140 C 8.160 6.065,7.417 6.032,7.119 6.080 " fill="#373B4D" stroke="none" fill-rule="evenodd"></path></svg>