<svg width="24" height="24" viewBox="0 0 24 24" fill="none" xmlns="http://www.w3.org/2000/svg"><path d="M6.872 6.117 C 6.101 6.325,5.314 6.875,4.893 7.500 C 4.247 8.458,4.078 9.471,4.370 10.628 L 4.463 10.996 4.081 11.368 C 3.455 11.976,3.123 12.614,3.039 13.371 C 2.883 14.775,3.590 16.041,4.853 16.619 C 5.236 16.795,5.478 16.843,6.112 16.869 L 6.644 16.892 6.756 17.136 C 7.124 17.939,8.043 18.690,8.920 18.905 C 9.225 18.979,10.118 18.976,10.422 18.900 C 11.234 18.695,12.053 18.043,12.483 17.260 L 12.645 16.965 12.832 17.046 C 12.936 17.090,13.152 17.152,13.314 17.183 C 14.380 17.389,15.373 17.006,16.123 16.100 L 16.374 15.797 16.797 15.822 C 17.712 15.877,18.664 15.605,19.315 15.104 C 19.688 14.816,20.217 14.236,20.414 13.899 C 20.806 13.230,20.974 12.586,20.973 11.760 C 20.972 11.263,20.956 11.123,20.866 10.780 C 20.565 9.642,19.767 8.658,18.740 8.159 C 18.152 7.873,17.981 7.840,17.089 7.840 C 16.366 7.840,16.312 7.846,15.936 7.957 C 15.719 8.022,15.540 8.071,15.539 8.067 C 15.538 8.063,15.461 7.958,15.369 7.832 C 14.910 7.211,14.265 6.729,13.643 6.544 C 13.338 6.454,12.224 6.454,11.917 6.544 C 11.595 6.639,11.100 6.908,10.776 7.165 L 10.490 7.393 10.295 7.193 C 9.711 6.596,9.072 6.232,8.366 6.096 C 7.951 6.017,7.207 6.027,6.872 6.117 " fill="#373B4D" stroke="none" fill-rule="evenodd"></path></svg>