<svg width="24" height="24" viewBox="0 0 24 24" fill="none" xmlns="http://www.w3.org/2000/svg"><path d="M14.079 2.559 C 13.785 2.596,13.462 2.893,13.340 3.241 C 13.248 3.500,13.200 4.142,13.200 5.099 L 13.200 5.989 12.270 6.016 C 9.774 6.089,9.013 6.146,8.692 6.283 C 8.199 6.495,7.736 6.951,7.386 7.570 L 7.200 7.900 7.200 11.401 L 7.200 14.902 7.379 15.216 C 7.769 15.900,8.243 16.358,8.909 16.695 L 9.117 16.800 14.405 16.800 L 19.693 16.800 19.957 16.655 C 20.574 16.316,21.116 15.774,21.457 15.154 L 21.600 14.893 21.600 11.396 L 21.600 7.898 21.424 7.589 C 21.104 7.028,20.651 6.553,20.228 6.334 C 19.926 6.177,19.222 6.110,17.124 6.038 C 16.410 6.013,15.787 5.978,15.738 5.959 C 15.652 5.927,15.648 5.900,15.624 5.253 C 15.565 3.687,15.531 3.287,15.442 3.144 C 15.342 2.981,15.052 2.708,14.895 2.629 C 14.762 2.562,14.342 2.526,14.079 2.559 M15.600 8.144 L 15.600 10.289 16.050 9.857 C 16.971 8.974,17.399 8.636,17.698 8.555 C 17.949 8.487,18.335 8.538,18.575 8.672 C 18.864 8.834,19.017 9.072,19.073 9.449 C 19.138 9.882,19.106 10.000,18.850 10.291 C 18.406 10.796,16.477 12.756,15.746 13.446 C 14.939 14.207,14.715 14.360,14.411 14.360 C 14.170 14.360,14.029 14.292,13.666 14.000 C 13.030 13.488,10.221 10.662,9.872 10.183 C 9.754 10.022,9.753 10.015,9.767 9.577 C 9.779 9.172,9.790 9.120,9.890 8.967 C 10.053 8.722,10.265 8.598,10.609 8.549 C 11.171 8.469,11.393 8.598,12.530 9.658 L 13.200 10.283 13.200 8.141 L 13.200 6.000 14.400 6.000 L 15.600 6.000 15.600 8.144 M4.360 10.894 C 3.536 11.188,3.038 11.591,2.599 12.322 L 2.400 12.653 2.400 16.168 L 2.400 19.682 2.516 19.911 C 2.834 20.541,3.459 21.166,4.089 21.484 L 4.318 21.600 9.620 21.600 L 14.923 21.600 15.111 21.504 C 15.631 21.240,16.286 20.628,16.474 20.230 C 16.631 19.896,16.823 19.290,16.785 19.251 C 16.767 19.234,14.064 19.215,10.777 19.209 L 4.800 19.197 4.800 14.999 L 4.800 10.800 4.710 10.801 C 4.660 10.801,4.503 10.843,4.360 10.894 " fill="#373B4D" stroke="none" fill-rule="evenodd"></path></svg>