<svg width="24" height="24" viewBox="0 0 24 24" fill="none" xmlns="http://www.w3.org/2000/svg"><path d="M13.876 2.540 C 13.649 2.658,13.355 2.977,13.281 3.185 C 13.240 3.301,13.222 3.676,13.210 4.670 L 13.194 6.000 11.527 6.000 C 9.622 6.001,9.068 6.035,8.722 6.176 C 8.078 6.438,7.536 7.020,7.317 7.685 L 7.220 7.980 7.220 11.400 L 7.220 14.820 7.317 15.115 C 7.551 15.825,8.175 16.449,8.885 16.683 L 9.180 16.780 14.400 16.780 L 19.620 16.780 19.915 16.683 C 20.625 16.449,21.249 15.825,21.483 15.115 L 21.580 14.820 21.580 11.400 L 21.580 7.980 21.483 7.685 C 21.265 7.024,20.718 6.436,20.078 6.176 C 19.732 6.035,19.178 6.001,17.274 6.000 L 15.608 6.000 15.594 4.650 C 15.580 3.333,15.578 3.295,15.487 3.111 C 15.370 2.873,15.020 2.551,14.811 2.488 C 14.533 2.405,14.087 2.429,13.876 2.540 M15.600 8.146 L 15.600 10.293 16.390 9.515 C 16.825 9.087,17.270 8.674,17.380 8.598 C 17.561 8.473,17.611 8.459,17.909 8.446 C 18.466 8.422,18.801 8.597,19.033 9.034 C 19.146 9.244,19.160 9.308,19.160 9.597 C 19.160 10.015,19.111 10.112,18.627 10.645 C 18.103 11.224,15.214 14.076,15.016 14.211 C 14.666 14.449,14.134 14.449,13.784 14.211 C 13.586 14.076,10.697 11.224,10.173 10.645 C 9.689 10.112,9.640 10.015,9.640 9.597 C 9.640 9.308,9.654 9.244,9.767 9.034 C 9.999 8.597,10.334 8.422,10.891 8.446 C 11.189 8.459,11.239 8.473,11.420 8.598 C 11.530 8.674,11.976 9.087,12.410 9.515 L 13.200 10.293 13.200 8.146 L 13.200 6.000 14.400 6.000 L 15.600 6.000 15.600 8.146 M4.320 10.862 C 3.935 10.945,3.461 11.196,3.178 11.468 C 2.856 11.777,2.706 12.006,2.539 12.437 L 2.400 12.797 2.400 16.200 L 2.400 19.603 2.539 19.963 C 2.829 20.714,3.301 21.179,4.070 21.475 L 4.400 21.601 9.650 21.591 L 14.900 21.580 15.180 21.463 C 15.718 21.238,16.139 20.897,16.425 20.453 C 16.583 20.208,16.742 19.751,16.781 19.430 L 16.809 19.200 10.805 19.200 L 4.800 19.200 4.800 15.000 L 4.800 10.800 4.690 10.803 C 4.630 10.805,4.463 10.831,4.320 10.862 " fill="#373B4D" stroke="none" fill-rule="evenodd"></path></svg>