<svg width="24" height="24" viewBox="0 0 24 24" fill="none" xmlns="http://www.w3.org/2000/svg"><path d="M11.273 4.004 C 11.084 4.190,10.994 4.315,10.945 4.460 C 10.860 4.705,10.802 5.528,10.801 6.484 L 10.800 7.188 9.550 7.215 C 6.131 7.289,4.484 7.357,4.089 7.442 C 3.605 7.546,2.831 8.268,2.496 8.929 L 2.400 9.117 2.400 13.805 L 2.400 18.493 2.543 18.754 C 2.897 19.398,3.504 19.986,4.160 20.321 L 4.340 20.412 11.280 20.385 C 15.097 20.370,18.586 20.342,19.034 20.322 C 19.797 20.288,19.861 20.279,20.067 20.178 C 20.471 19.981,21.270 19.139,21.515 18.652 L 21.600 18.483 21.600 13.800 L 21.600 9.117 21.514 8.948 C 21.223 8.376,20.689 7.807,20.230 7.582 C 19.990 7.464,19.871 7.433,19.540 7.402 C 18.856 7.337,14.984 7.201,13.790 7.200 L 13.200 7.200 13.198 6.450 C 13.195 5.405,13.144 4.612,13.068 4.432 C 12.995 4.259,12.705 3.955,12.521 3.860 C 12.436 3.817,12.246 3.786,11.962 3.771 L 11.532 3.749 11.273 4.004 M13.200 10.541 L 13.200 13.883 13.850 13.275 C 14.894 12.300,15.109 12.162,15.602 12.161 C 16.130 12.159,16.485 12.411,16.617 12.880 C 16.653 13.007,16.686 13.219,16.691 13.350 C 16.700 13.587,16.699 13.589,16.474 13.846 C 16.008 14.377,13.875 16.559,13.341 17.050 C 13.037 17.331,12.662 17.646,12.509 17.750 C 12.152 17.994,11.951 18.006,11.573 17.804 C 11.017 17.507,7.828 14.313,7.477 13.700 C 7.333 13.450,7.299 13.233,7.359 12.944 C 7.449 12.510,7.752 12.242,8.247 12.159 C 8.770 12.071,8.963 12.184,10.130 13.264 L 10.800 13.884 10.800 10.542 L 10.800 7.200 12.000 7.200 L 13.200 7.200 13.200 10.541 " fill="#373B4D" stroke="none" fill-rule="evenodd"></path></svg>