<svg width="24" height="24" viewBox="0 0 24 24" fill="none" xmlns="http://www.w3.org/2000/svg"><path d="M11.438 3.831 C 11.203 3.982,10.969 4.257,10.920 4.441 C 10.843 4.728,10.801 5.357,10.801 6.264 L 10.800 7.188 9.030 7.215 C 6.747 7.250,4.609 7.315,4.283 7.360 C 3.623 7.452,2.928 8.065,2.485 8.948 L 2.400 9.117 2.400 13.800 L 2.400 18.483 2.505 18.691 C 2.890 19.454,3.348 19.911,4.117 20.299 L 4.335 20.409 11.937 20.390 C 20.368 20.368,19.767 20.389,20.233 20.108 C 20.350 20.038,20.630 19.791,20.855 19.560 C 21.168 19.238,21.302 19.064,21.431 18.814 L 21.600 18.488 21.600 13.803 L 21.600 9.117 21.495 8.909 C 21.211 8.343,20.751 7.816,20.341 7.587 C 20.016 7.405,19.785 7.361,18.960 7.320 C 18.159 7.280,14.672 7.200,13.736 7.200 L 13.213 7.200 13.186 5.857 C 13.156 4.355,13.168 4.417,12.848 4.088 C 12.565 3.798,12.446 3.747,12.000 3.729 C 11.636 3.715,11.612 3.719,11.438 3.831 M13.200 10.544 L 13.200 13.887 13.790 13.318 C 14.437 12.694,14.880 12.322,15.133 12.194 C 15.468 12.022,16.102 12.118,16.373 12.381 C 16.570 12.572,16.632 12.704,16.679 13.028 C 16.766 13.631,16.825 13.521,15.885 14.506 C 14.953 15.482,13.100 17.321,12.757 17.610 C 12.171 18.104,11.781 18.077,11.100 17.498 C 10.685 17.145,8.554 15.011,7.948 14.342 C 7.690 14.057,7.443 13.748,7.398 13.656 C 7.134 13.110,7.378 12.437,7.924 12.202 C 8.100 12.126,8.188 12.115,8.499 12.126 C 8.863 12.140,8.869 12.142,9.090 12.312 C 9.213 12.407,9.648 12.799,10.057 13.184 L 10.800 13.883 10.800 10.542 L 10.800 7.200 12.000 7.200 L 13.200 7.200 13.200 10.544 " fill="#373B4D" stroke="none" fill-rule="evenodd"></path></svg>