<svg width="24" height="24" viewBox="0 0 24 24" fill="none" xmlns="http://www.w3.org/2000/svg"><path d="M11.531 3.739 C 11.368 3.810,11.012 4.140,10.932 4.295 C 10.852 4.450,10.803 5.197,10.801 6.304 L 10.800 7.187 8.050 7.215 C 6.538 7.231,5.030 7.260,4.700 7.281 C 4.114 7.317,4.093 7.322,3.775 7.478 C 3.227 7.749,2.800 8.234,2.523 8.900 L 2.399 9.197 2.410 13.848 L 2.420 18.500 2.589 18.853 C 2.926 19.558,3.366 19.975,4.087 20.273 L 4.394 20.400 11.970 20.400 L 19.546 20.400 19.839 20.300 C 20.211 20.174,20.470 20.010,20.809 19.686 C 21.128 19.381,21.358 19.041,21.498 18.669 L 21.600 18.398 21.600 13.796 L 21.600 9.193 21.481 8.897 C 21.192 8.174,20.689 7.660,20.000 7.383 C 19.742 7.279,19.062 7.252,15.916 7.218 L 13.211 7.189 13.190 5.844 C 13.178 5.091,13.151 4.455,13.128 4.397 C 13.063 4.231,12.691 3.853,12.506 3.763 C 12.298 3.662,11.739 3.649,11.531 3.739 M13.200 10.545 L 13.200 13.891 13.790 13.315 C 14.913 12.220,15.132 12.066,15.560 12.065 C 16.059 12.065,16.427 12.268,16.616 12.648 C 16.705 12.826,16.720 12.908,16.720 13.224 L 16.720 13.592 16.532 13.846 C 16.428 13.986,15.524 14.920,14.522 15.922 C 12.488 17.955,12.456 17.981,12.000 17.977 C 11.694 17.974,11.568 17.917,11.198 17.617 C 10.802 17.295,7.593 14.047,7.426 13.798 C 7.284 13.588,7.280 13.570,7.280 13.215 C 7.280 12.892,7.293 12.824,7.392 12.635 C 7.517 12.396,7.763 12.185,7.991 12.122 C 8.073 12.099,8.285 12.080,8.462 12.080 C 8.747 12.080,8.805 12.093,8.962 12.193 C 9.163 12.321,9.594 12.712,10.310 13.417 L 10.800 13.899 10.800 10.549 L 10.800 7.200 12.000 7.200 L 13.200 7.200 13.200 10.545 " fill="#373B4D" stroke="none" fill-rule="evenodd"></path></svg>