<svg width="24" height="24" viewBox="0 0 24 24" fill="none" xmlns="http://www.w3.org/2000/svg"><path d="M11.256 4.020 C 11.061 4.226,10.984 4.343,10.941 4.496 C 10.856 4.794,10.801 5.553,10.800 6.430 L 10.800 7.200 10.470 7.200 C 9.941 7.200,7.115 7.276,5.960 7.321 C 4.397 7.382,4.111 7.414,3.811 7.562 C 3.377 7.775,2.741 8.440,2.485 8.948 L 2.400 9.117 2.400 13.809 L 2.400 18.502 2.576 18.801 C 2.932 19.404,3.515 19.976,4.081 20.278 L 4.311 20.400 8.266 20.398 C 13.229 20.396,19.342 20.335,19.667 20.285 C 19.802 20.264,19.977 20.217,20.055 20.180 C 20.416 20.008,21.157 19.251,21.453 18.750 L 21.600 18.502 21.600 13.801 L 21.599 9.100 21.470 8.868 C 21.069 8.151,20.368 7.547,19.815 7.443 C 19.462 7.376,16.821 7.263,14.510 7.215 L 13.200 7.187 13.199 6.384 C 13.199 5.617,13.157 4.855,13.097 4.539 C 13.059 4.338,12.649 3.897,12.446 3.841 C 12.366 3.818,12.123 3.788,11.906 3.774 L 11.513 3.747 11.256 4.020 M13.200 10.542 L 13.200 13.884 13.830 13.297 C 14.906 12.295,15.087 12.181,15.600 12.181 C 15.981 12.180,16.157 12.243,16.369 12.455 C 16.554 12.640,16.647 12.888,16.669 13.257 C 16.688 13.572,16.686 13.584,16.562 13.740 C 16.324 14.041,14.021 16.411,13.462 16.930 C 12.599 17.731,12.314 17.930,12.020 17.936 C 11.624 17.945,11.148 17.559,9.419 15.824 C 8.214 14.614,7.578 13.905,7.435 13.609 C 7.229 13.185,7.380 12.593,7.754 12.356 C 7.990 12.206,8.158 12.160,8.480 12.161 C 8.693 12.161,8.776 12.181,8.940 12.276 C 9.171 12.408,9.614 12.783,10.310 13.432 L 10.800 13.890 10.800 10.545 L 10.800 7.200 12.000 7.200 L 13.200 7.200 13.200 10.542 " fill="#373B4D" stroke="none" fill-rule="evenodd"></path></svg>