<svg width="24" height="24" viewBox="0 0 24 24" fill="none" xmlns="http://www.w3.org/2000/svg"><path d="M11.416 3.835 C 11.188 4.003,11.012 4.200,10.944 4.364 C 10.850 4.589,10.800 5.248,10.800 6.258 L 10.800 7.187 8.830 7.215 C 6.363 7.249,4.469 7.309,4.192 7.361 C 3.600 7.473,3.002 7.999,2.572 8.787 L 2.401 9.100 2.401 13.800 L 2.401 18.500 2.576 18.826 C 2.938 19.500,3.308 19.872,3.957 20.214 L 4.319 20.405 11.929 20.390 C 19.001 20.377,19.557 20.371,19.777 20.307 C 20.167 20.193,20.398 20.041,20.819 19.620 C 21.155 19.285,21.251 19.159,21.410 18.848 L 21.600 18.475 21.599 13.788 L 21.599 9.100 21.420 8.768 C 20.980 7.947,20.379 7.453,19.706 7.358 C 19.370 7.310,17.384 7.250,15.076 7.216 L 13.213 7.190 13.186 5.885 C 13.171 5.167,13.147 4.528,13.133 4.464 C 13.119 4.396,12.998 4.235,12.844 4.078 C 12.535 3.764,12.422 3.721,11.916 3.720 C 11.600 3.720,11.559 3.729,11.416 3.835 M13.200 10.545 L 13.200 13.890 13.731 13.375 C 14.961 12.180,15.213 12.024,15.762 12.115 C 16.224 12.191,16.425 12.331,16.616 12.710 C 16.656 12.788,16.692 12.993,16.707 13.219 L 16.732 13.598 16.498 13.869 C 16.171 14.247,13.470 16.968,12.960 17.431 C 12.484 17.864,12.313 17.958,12.003 17.959 C 11.723 17.960,11.530 17.866,11.154 17.546 C 10.386 16.890,7.751 14.206,7.459 13.781 C 7.108 13.272,7.305 12.490,7.851 12.223 C 8.036 12.132,8.119 12.117,8.432 12.116 C 8.638 12.116,8.837 12.136,8.889 12.163 C 9.041 12.243,9.465 12.614,10.150 13.267 L 10.800 13.886 10.800 10.543 L 10.800 7.200 12.000 7.200 L 13.200 7.200 13.200 10.545 " fill="#373B4D" stroke="none" fill-rule="evenodd"></path></svg>