<svg width="24" height="24" viewBox="0 0 24 24" fill="none" xmlns="http://www.w3.org/2000/svg"><path d="M11.658 3.757 C 11.379 3.802,11.057 4.108,10.940 4.441 C 10.848 4.700,10.800 5.342,10.800 6.298 L 10.800 7.188 9.330 7.215 C 7.017 7.257,5.104 7.317,4.560 7.363 C 4.131 7.399,4.024 7.423,3.806 7.530 C 3.355 7.752,2.780 8.361,2.505 8.909 L 2.400 9.117 2.400 13.800 L 2.400 18.483 2.506 18.691 C 2.856 19.384,3.416 19.944,4.109 20.294 L 4.317 20.400 9.249 20.396 C 11.961 20.394,15.413 20.379,16.920 20.362 C 19.944 20.328,19.892 20.333,20.279 20.068 C 20.698 19.781,21.278 19.116,21.514 18.652 L 21.600 18.483 21.600 13.800 L 21.600 9.117 21.494 8.909 C 21.085 8.098,20.400 7.505,19.758 7.403 C 19.326 7.335,15.312 7.201,13.690 7.200 L 13.200 7.200 13.198 6.430 C 13.196 6.006,13.181 5.394,13.163 5.070 C 13.133 4.517,13.124 4.470,13.020 4.320 C 12.861 4.090,12.595 3.857,12.437 3.809 C 12.251 3.752,11.855 3.726,11.658 3.757 M13.200 10.543 L 13.200 13.886 13.790 13.326 C 14.461 12.690,14.865 12.350,15.082 12.239 C 15.569 11.990,16.260 12.163,16.527 12.600 C 16.610 12.735,16.649 12.873,16.684 13.150 L 16.731 13.521 16.615 13.687 C 16.473 13.892,14.555 15.884,13.721 16.694 C 12.388 17.986,12.162 18.110,11.622 17.844 C 11.273 17.672,10.865 17.298,9.278 15.695 C 7.967 14.372,7.483 13.832,7.374 13.571 C 7.306 13.408,7.307 12.986,7.377 12.790 C 7.512 12.412,7.854 12.171,8.310 12.133 C 8.836 12.090,8.954 12.162,10.070 13.203 L 10.800 13.884 10.800 10.542 L 10.800 7.200 12.000 7.200 L 13.200 7.200 13.200 10.543 " fill="#373B4D" stroke="none" fill-rule="evenodd"></path></svg>