<svg width="24" height="24" viewBox="0 0 24 24" fill="none" xmlns="http://www.w3.org/2000/svg"><path d="M14.010 2.597 C 13.715 2.672,13.412 3.001,13.323 3.344 C 13.253 3.612,13.201 4.409,13.201 5.224 L 13.200 5.989 12.370 6.016 C 10.116 6.089,8.982 6.187,8.651 6.339 C 8.151 6.568,7.592 7.145,7.285 7.748 C 7.200 7.917,7.200 7.921,7.200 11.431 L 7.200 14.945 7.438 15.294 C 7.899 15.970,8.372 16.424,8.884 16.682 L 9.118 16.800 14.423 16.800 L 19.728 16.800 20.074 16.575 C 20.517 16.287,21.087 15.717,21.375 15.274 L 21.600 14.928 21.600 11.387 L 21.600 7.847 21.391 7.533 C 21.141 7.159,20.567 6.551,20.335 6.415 C 20.010 6.224,19.442 6.156,17.380 6.060 C 15.909 5.991,15.772 5.977,15.721 5.882 C 15.701 5.844,15.656 5.392,15.622 4.876 C 15.546 3.712,15.522 3.458,15.477 3.276 C 15.433 3.104,15.097 2.740,14.910 2.662 C 14.747 2.593,14.183 2.553,14.010 2.597 M15.600 8.143 L 15.600 10.286 16.130 9.786 C 17.169 8.806,17.540 8.560,17.979 8.560 C 18.604 8.560,18.952 8.875,19.049 9.528 C 19.112 9.950,19.077 10.022,18.507 10.642 C 17.697 11.523,15.205 13.964,14.927 14.149 C 14.483 14.445,14.280 14.425,13.751 14.031 C 13.351 13.734,10.113 10.509,9.928 10.223 C 9.803 10.032,9.800 10.014,9.800 9.579 C 9.800 9.147,9.804 9.126,9.918 8.969 C 9.983 8.879,10.123 8.755,10.228 8.693 C 10.403 8.590,10.455 8.580,10.803 8.580 C 11.181 8.580,11.190 8.582,11.416 8.732 C 11.684 8.910,12.075 9.244,12.730 9.852 L 13.200 10.289 13.200 8.145 L 13.200 6.000 14.400 6.000 L 15.600 6.000 15.600 8.143 M4.420 10.884 C 3.607 11.160,3.085 11.583,2.545 12.403 L 2.398 12.626 2.409 16.183 C 2.420 19.733,2.420 19.740,2.506 19.900 C 2.813 20.473,3.569 21.220,4.129 21.504 L 4.317 21.600 9.629 21.600 L 14.940 21.599 15.169 21.470 C 15.492 21.287,15.888 20.950,16.185 20.605 C 16.437 20.311,16.574 20.034,16.732 19.496 L 16.792 19.292 15.706 19.266 C 15.109 19.252,12.411 19.229,9.710 19.214 L 4.800 19.188 4.800 15.144 C 4.799 12.920,4.788 11.033,4.774 10.950 C 4.761 10.867,4.729 10.801,4.705 10.801 C 4.680 10.802,4.552 10.839,4.420 10.884 " fill="#373B4D" stroke="none" fill-rule="evenodd"></path></svg>