<svg width="24" height="24" viewBox="0 0 24 24" fill="none" xmlns="http://www.w3.org/2000/svg"><path d="M11.579 3.720 C 11.417 3.770,11.026 4.124,10.946 4.293 C 10.853 4.489,10.801 5.199,10.800 6.270 L 10.800 7.200 9.810 7.201 C 8.167 7.202,4.640 7.276,4.324 7.317 C 3.883 7.372,3.573 7.543,3.158 7.958 C 2.873 8.244,2.784 8.365,2.618 8.700 L 2.420 9.100 2.410 13.787 L 2.399 18.474 2.600 18.867 C 2.937 19.527,3.291 19.882,3.920 20.192 L 4.300 20.380 11.919 20.390 C 20.403 20.402,19.639 20.426,20.220 20.125 C 20.409 20.027,20.604 19.876,20.820 19.660 C 21.154 19.325,21.342 19.046,21.505 18.644 L 21.601 18.405 21.590 13.753 L 21.580 9.100 21.385 8.700 C 21.221 8.365,21.137 8.248,20.865 7.978 C 20.439 7.556,20.095 7.372,19.631 7.318 C 19.307 7.280,15.609 7.203,14.016 7.201 L 13.212 7.200 13.189 5.850 C 13.176 5.102,13.148 4.453,13.126 4.395 C 13.072 4.254,12.693 3.869,12.520 3.780 C 12.361 3.698,11.771 3.660,11.579 3.720 M13.200 10.544 L 13.200 13.889 13.830 13.277 C 14.565 12.564,14.909 12.272,15.151 12.155 C 15.298 12.084,15.378 12.073,15.653 12.088 C 16.150 12.116,16.435 12.295,16.625 12.700 C 16.701 12.862,16.719 12.967,16.720 13.248 L 16.720 13.597 16.533 13.828 C 16.017 14.466,12.887 17.582,12.517 17.827 C 12.183 18.048,11.779 18.027,11.401 17.769 C 10.949 17.461,7.518 13.989,7.360 13.680 C 7.242 13.448,7.249 12.969,7.375 12.698 C 7.503 12.423,7.788 12.178,8.044 12.123 C 8.336 12.060,8.707 12.070,8.862 12.144 C 9.046 12.231,9.465 12.595,10.190 13.297 L 10.800 13.888 10.800 10.544 L 10.800 7.200 12.000 7.200 L 13.200 7.200 13.200 10.544 " fill="#373B4D" stroke="none" fill-rule="evenodd"></path></svg>