<svg width="24" height="24" viewBox="0 0 24 24" fill="none" xmlns="http://www.w3.org/2000/svg"><path d="M11.540 3.774 C 11.330 3.873,11.088 4.115,10.983 4.331 C 10.850 4.606,10.800 5.144,10.800 6.310 L 10.800 7.200 10.270 7.200 C 9.390 7.200,6.038 7.278,5.119 7.320 C 4.581 7.344,4.182 7.382,4.056 7.419 C 3.502 7.584,2.868 8.193,2.506 8.909 L 2.400 9.117 2.400 13.800 L 2.400 18.483 2.505 18.691 C 2.867 19.413,3.383 19.928,4.118 20.299 L 4.336 20.410 11.778 20.387 C 16.633 20.373,19.343 20.350,19.574 20.323 C 20.020 20.269,20.201 20.174,20.652 19.756 C 21.034 19.402,21.312 19.053,21.484 18.711 L 21.600 18.482 21.600 13.800 L 21.600 9.117 21.494 8.909 C 21.087 8.103,20.434 7.515,19.821 7.403 C 19.689 7.379,19.194 7.342,18.721 7.320 C 17.788 7.278,14.558 7.200,13.726 7.200 L 13.213 7.200 13.187 5.930 C 13.173 5.205,13.143 4.591,13.118 4.500 C 13.065 4.312,12.689 3.901,12.490 3.815 C 12.294 3.731,11.688 3.704,11.540 3.774 M13.200 10.543 L 13.200 13.886 13.810 13.304 C 14.846 12.316,15.133 12.120,15.545 12.120 C 15.928 12.120,16.190 12.217,16.404 12.437 C 16.605 12.645,16.661 12.799,16.704 13.265 L 16.729 13.540 16.565 13.760 C 16.354 14.041,14.058 16.387,13.257 17.140 C 12.581 17.775,12.383 17.912,12.089 17.946 C 11.925 17.966,11.847 17.951,11.657 17.864 C 11.530 17.806,11.343 17.691,11.243 17.610 C 10.681 17.156,8.132 14.590,7.668 14.011 C 7.363 13.632,7.309 13.509,7.306 13.198 C 7.300 12.569,7.757 12.118,8.397 12.121 C 8.899 12.123,8.970 12.168,10.070 13.200 L 10.800 13.884 10.800 10.542 L 10.800 7.200 12.000 7.200 L 13.200 7.200 13.200 10.543 " fill="#373B4D" stroke="none" fill-rule="evenodd"></path></svg>