<svg width="24" height="24" viewBox="0 0 24 24" fill="none" xmlns="http://www.w3.org/2000/svg"><path d="M13.979 2.595 C 13.711 2.664,13.464 2.931,13.336 3.290 C 13.258 3.509,13.203 4.304,13.201 5.244 L 13.200 5.988 12.310 6.015 C 10.364 6.075,9.083 6.170,8.776 6.278 C 8.292 6.448,7.719 6.981,7.384 7.574 L 7.200 7.900 7.200 11.420 L 7.200 14.940 7.445 15.315 C 7.858 15.945,8.362 16.421,8.909 16.695 L 9.117 16.800 14.417 16.800 L 19.717 16.800 20.013 16.620 C 20.543 16.299,21.099 15.743,21.420 15.213 L 21.600 14.917 21.600 11.386 L 21.600 7.854 21.352 7.477 C 21.064 7.040,20.540 6.499,20.279 6.372 C 19.927 6.200,19.243 6.130,17.020 6.039 C 15.931 5.995,15.786 5.979,15.718 5.897 C 15.693 5.867,15.657 5.571,15.637 5.232 C 15.557 3.884,15.519 3.413,15.476 3.260 C 15.428 3.084,15.138 2.773,14.913 2.655 C 14.766 2.578,14.188 2.541,13.979 2.595 M15.600 8.143 L 15.600 10.286 16.150 9.765 C 17.150 8.817,17.550 8.548,17.960 8.547 C 18.635 8.545,19.024 8.926,19.067 9.632 C 19.083 9.907,19.075 9.957,18.988 10.096 C 18.738 10.497,15.373 13.865,14.929 14.159 C 14.331 14.555,14.109 14.445,12.636 13.020 C 11.426 11.849,10.102 10.484,9.913 10.211 C 9.784 10.026,9.780 10.007,9.783 9.640 C 9.784 9.431,9.798 9.211,9.813 9.151 C 9.854 8.990,10.066 8.768,10.285 8.657 C 10.540 8.528,11.042 8.518,11.277 8.639 C 11.505 8.755,11.947 9.118,12.610 9.736 L 13.200 10.285 13.200 8.142 L 13.200 6.000 14.400 6.000 L 15.600 6.000 15.600 8.143 M4.440 10.876 C 3.635 11.140,3.146 11.520,2.628 12.283 L 2.400 12.620 2.400 16.152 C 2.400 19.681,2.400 19.683,2.486 19.852 C 2.810 20.490,3.510 21.190,4.148 21.514 L 4.317 21.600 9.620 21.600 L 14.923 21.600 15.117 21.501 C 15.555 21.280,16.274 20.604,16.459 20.240 C 16.580 20.003,16.809 19.316,16.778 19.284 C 16.749 19.256,11.802 19.213,7.670 19.205 L 4.800 19.200 4.800 15.000 C 4.800 11.026,4.796 10.800,4.730 10.802 C 4.691 10.803,4.561 10.837,4.440 10.876 " fill="#373B4D" stroke="none" fill-rule="evenodd"></path></svg>