<svg width="24" height="24" viewBox="0 0 24 24" fill="none" xmlns="http://www.w3.org/2000/svg"><path d="M11.476 3.740 C 11.249 3.858,10.955 4.177,10.881 4.385 C 10.840 4.501,10.822 4.876,10.810 5.870 L 10.794 7.200 7.987 7.201 C 4.843 7.202,4.291 7.226,3.927 7.374 C 3.278 7.638,2.737 8.218,2.517 8.885 L 2.420 9.180 2.420 13.800 L 2.420 18.420 2.517 18.715 C 2.751 19.425,3.375 20.049,4.085 20.283 L 4.380 20.380 12.000 20.380 L 19.620 20.380 19.915 20.283 C 20.625 20.049,21.249 19.425,21.483 18.715 L 21.580 18.420 21.580 13.800 L 21.580 9.180 21.483 8.885 C 21.264 8.222,20.718 7.636,20.073 7.374 C 19.709 7.226,19.157 7.202,16.014 7.201 L 13.208 7.200 13.194 5.850 C 13.180 4.533,13.178 4.495,13.087 4.311 C 12.970 4.073,12.620 3.751,12.411 3.688 C 12.133 3.605,11.687 3.629,11.476 3.740 M13.200 10.546 L 13.200 13.893 13.990 13.115 C 14.425 12.687,14.870 12.274,14.980 12.198 C 15.161 12.073,15.211 12.059,15.509 12.046 C 16.066 12.022,16.401 12.197,16.633 12.634 C 16.746 12.844,16.760 12.908,16.760 13.197 C 16.760 13.615,16.711 13.712,16.227 14.245 C 15.703 14.824,12.814 17.676,12.616 17.811 C 12.266 18.049,11.734 18.049,11.384 17.811 C 11.186 17.676,8.297 14.824,7.773 14.245 C 7.289 13.712,7.240 13.615,7.240 13.197 C 7.240 12.908,7.254 12.844,7.367 12.634 C 7.599 12.197,7.934 12.022,8.491 12.046 C 8.789 12.059,8.839 12.073,9.020 12.198 C 9.130 12.274,9.575 12.687,10.010 13.115 L 10.800 13.893 10.800 10.546 L 10.800 7.200 12.000 7.200 L 13.200 7.200 13.200 10.546 " fill="#373B4D" stroke="none" fill-rule="evenodd"></path></svg>