<svg width="24" height="24" viewBox="0 0 24 24" fill="none" xmlns="http://www.w3.org/2000/svg"><path d="M13.940 2.574 C 13.730 2.673,13.488 2.915,13.383 3.131 C 13.250 3.406,13.200 3.944,13.200 5.104 L 13.200 5.989 12.190 6.015 C 10.836 6.051,9.438 6.117,9.126 6.160 C 8.447 6.254,7.817 6.770,7.362 7.606 L 7.201 7.900 7.201 11.400 L 7.201 14.900 7.362 15.194 C 7.730 15.871,8.221 16.347,8.909 16.694 L 9.117 16.800 14.403 16.800 L 19.688 16.800 19.958 16.658 C 20.549 16.348,21.148 15.748,21.459 15.156 L 21.600 14.888 21.600 11.400 L 21.600 7.912 21.459 7.646 C 21.161 7.082,20.691 6.570,20.278 6.359 C 19.883 6.158,19.363 6.104,17.160 6.038 C 16.357 6.014,15.685 5.979,15.666 5.961 C 15.647 5.943,15.616 5.382,15.596 4.714 C 15.577 4.046,15.541 3.417,15.518 3.316 C 15.484 3.172,15.422 3.081,15.228 2.889 C 15.091 2.754,14.928 2.625,14.865 2.601 C 14.668 2.527,14.076 2.510,13.940 2.574 M15.600 8.143 L 15.600 10.286 16.210 9.704 C 16.886 9.059,17.297 8.718,17.543 8.599 C 17.744 8.501,18.100 8.495,18.403 8.584 C 18.684 8.667,18.967 8.945,19.031 9.203 C 19.120 9.557,19.134 9.896,19.066 10.029 C 18.930 10.292,15.913 13.351,15.124 14.026 C 14.823 14.284,14.657 14.359,14.389 14.360 C 14.007 14.360,13.754 14.154,12.005 12.422 C 10.629 11.059,10.040 10.438,9.844 10.143 C 9.752 10.004,9.740 9.946,9.740 9.643 C 9.741 9.248,9.799 9.050,9.970 8.854 C 10.147 8.653,10.365 8.557,10.699 8.531 C 11.221 8.492,11.416 8.610,12.490 9.617 L 13.200 10.283 13.200 8.141 L 13.200 6.000 14.400 6.000 L 15.600 6.000 15.600 8.143 M4.400 10.877 C 3.531 11.166,2.972 11.625,2.543 12.406 L 2.400 12.667 2.400 16.175 L 2.400 19.683 2.505 19.891 C 2.856 20.588,3.409 21.141,4.109 21.494 L 4.317 21.600 9.620 21.600 L 14.923 21.600 15.092 21.514 C 15.581 21.265,16.202 20.720,16.418 20.349 C 16.538 20.143,16.800 19.409,16.800 19.279 C 16.800 19.201,16.759 19.200,10.800 19.200 L 4.800 19.200 4.800 15.000 L 4.800 10.800 4.710 10.802 C 4.660 10.803,4.521 10.837,4.400 10.877 " fill="#373B4D" stroke="none" fill-rule="evenodd"></path></svg>