<svg width="24" height="24" viewBox="0 0 24 24" fill="none" xmlns="http://www.w3.org/2000/svg"><path d="M11.374 2.618 C 11.127 2.784,10.934 3.010,10.875 3.200 C 10.852 3.277,10.823 3.758,10.811 4.268 L 10.790 5.196 8.426 6.142 L 6.062 7.087 5.081 6.606 C 4.541 6.342,4.030 6.104,3.944 6.077 C 3.756 6.020,3.348 6.051,3.139 6.138 C 2.882 6.245,2.690 6.431,2.557 6.699 C 2.402 7.015,2.390 7.307,2.520 7.652 C 2.644 7.982,2.754 8.065,3.990 8.760 C 4.390 8.985,4.440 9.025,4.440 9.121 C 4.440 9.261,4.345 9.577,3.477 12.328 C 2.326 15.978,2.339 15.921,2.536 16.344 C 2.786 16.881,3.816 17.559,4.811 17.843 C 5.172 17.945,6.211 17.991,6.729 17.927 C 7.801 17.793,9.162 17.003,9.468 16.335 C 9.662 15.911,9.686 16.013,8.573 12.500 C 7.674 9.658,7.520 9.169,7.520 9.148 C 7.520 9.112,7.990 8.907,8.965 8.519 C 10.050 8.087,10.676 7.863,10.708 7.895 C 10.739 7.925,10.796 13.348,10.798 16.470 L 10.800 19.200 10.270 19.201 C 9.979 19.202,9.358 19.219,8.890 19.239 C 7.927 19.281,7.859 19.299,7.557 19.600 C 7.342 19.815,7.240 20.071,7.240 20.401 C 7.240 20.823,7.416 21.133,7.816 21.419 L 8.070 21.600 11.998 21.600 L 15.926 21.600 16.109 21.474 C 16.543 21.175,16.760 20.812,16.760 20.384 C 16.760 19.976,16.591 19.674,16.221 19.419 L 16.006 19.270 15.133 19.237 C 14.653 19.219,14.022 19.203,13.730 19.202 L 13.200 19.200 13.202 16.410 C 13.204 13.195,13.261 7.925,13.294 7.892 C 13.307 7.880,13.412 7.901,13.528 7.939 C 13.739 8.007,16.446 9.073,16.470 9.096 C 16.487 9.114,16.289 9.761,15.498 12.260 C 14.359 15.864,14.335 15.962,14.521 16.334 C 14.732 16.756,15.429 17.294,16.193 17.624 C 16.822 17.896,17.043 17.934,18.000 17.937 C 18.832 17.939,18.872 17.935,19.220 17.827 C 20.027 17.577,20.694 17.216,21.118 16.800 C 21.601 16.325,21.652 16.061,21.418 15.238 C 21.264 14.696,21.220 14.554,20.394 11.923 C 19.703 9.720,19.560 9.239,19.560 9.113 C 19.560 9.027,19.647 8.965,20.250 8.623 C 21.326 8.012,21.457 7.885,21.564 7.353 C 21.624 7.057,21.540 6.763,21.316 6.479 C 21.099 6.205,20.850 6.090,20.398 6.056 L 20.060 6.030 19.001 6.559 L 17.943 7.089 15.576 6.142 L 13.209 5.196 13.194 4.267 C 13.179 3.346,13.178 3.337,13.066 3.110 C 12.933 2.838,12.683 2.617,12.415 2.537 C 12.312 2.505,12.081 2.480,11.903 2.480 C 11.600 2.480,11.566 2.489,11.374 2.618 M18.390 13.611 C 18.567 14.144,18.762 14.757,18.824 14.974 C 18.933 15.354,18.935 15.370,18.863 15.422 C 18.573 15.635,17.284 15.614,17.147 15.394 C 17.117 15.346,17.130 15.229,17.193 14.969 C 17.297 14.548,17.663 13.363,17.845 12.859 C 17.954 12.559,17.979 12.517,18.021 12.574 C 18.048 12.611,18.214 13.077,18.390 13.611 M6.060 12.630 C 6.277 13.158,6.880 15.136,6.880 15.319 C 6.880 15.413,6.857 15.441,6.750 15.475 C 6.543 15.540,5.848 15.568,5.521 15.525 C 5.174 15.479,5.102 15.418,5.140 15.200 C 5.201 14.850,5.709 13.188,5.914 12.670 C 5.964 12.544,6.019 12.529,6.060 12.630 " fill="#373B4D" stroke="none" fill-rule="evenodd"></path></svg>