<svg width="24" height="24" viewBox="0 0 24 24" fill="none" xmlns="http://www.w3.org/2000/svg"><path d="M11.500 2.553 C 11.281 2.656,10.938 3.030,10.883 3.224 C 10.859 3.310,10.827 3.789,10.813 4.288 L 10.787 5.197 8.424 6.142 L 6.060 7.088 5.760 6.938 C 4.945 6.533,4.028 6.118,3.870 6.082 C 3.634 6.029,3.230 6.095,3.014 6.222 C 2.562 6.486,2.341 7.069,2.501 7.577 C 2.592 7.868,2.828 8.087,3.423 8.436 C 3.663 8.576,3.992 8.772,4.154 8.871 C 4.446 9.049,4.447 9.051,4.420 9.192 C 4.376 9.428,4.158 10.153,3.460 12.380 C 2.556 15.262,2.472 15.561,2.465 15.900 C 2.459 16.255,2.535 16.418,2.858 16.743 C 3.321 17.206,4.107 17.639,4.827 17.824 C 5.313 17.950,6.160 17.995,6.695 17.923 C 7.595 17.803,8.538 17.348,9.142 16.743 C 9.478 16.407,9.578 16.188,9.547 15.858 C 9.514 15.506,9.472 15.364,8.234 11.422 C 7.862 10.235,7.562 9.227,7.568 9.182 C 7.577 9.118,7.714 9.043,8.200 8.835 C 8.780 8.587,10.438 7.955,10.624 7.911 C 10.707 7.891,10.707 7.892,10.733 9.655 C 10.748 10.626,10.772 13.168,10.786 15.305 L 10.813 19.189 9.817 19.217 C 8.571 19.251,8.035 19.300,7.843 19.399 C 7.645 19.499,7.383 19.792,7.317 19.983 C 7.239 20.211,7.250 20.709,7.337 20.875 C 7.430 21.054,7.699 21.342,7.906 21.484 L 8.074 21.600 12.009 21.600 L 15.944 21.600 16.179 21.410 C 16.869 20.852,16.946 20.074,16.365 19.549 C 16.075 19.287,16.069 19.286,14.874 19.242 C 14.272 19.219,13.650 19.201,13.490 19.200 L 13.200 19.200 13.200 17.411 C 13.200 15.471,13.278 7.909,13.298 7.889 C 13.322 7.864,16.414 9.041,16.469 9.095 C 16.482 9.109,16.184 10.080,15.466 12.360 C 14.420 15.683,14.357 15.942,14.509 16.283 C 14.676 16.658,15.248 17.146,15.924 17.491 C 16.609 17.840,17.058 17.934,18.060 17.936 C 18.627 17.937,18.797 17.923,19.083 17.851 C 20.183 17.574,21.163 16.936,21.464 16.300 C 21.517 16.190,21.559 16.040,21.560 15.967 C 21.560 15.716,21.396 15.141,20.519 12.320 C 19.908 10.352,19.623 9.404,19.588 9.215 C 19.557 9.052,19.595 9.020,20.325 8.581 C 21.091 8.122,21.327 7.932,21.457 7.671 C 21.671 7.241,21.563 6.715,21.189 6.372 C 20.987 6.186,20.751 6.101,20.317 6.058 L 20.055 6.032 18.999 6.561 L 17.943 7.089 15.576 6.142 L 13.208 5.195 13.194 4.268 C 13.177 3.204,13.153 3.111,12.816 2.800 C 12.577 2.580,12.449 2.532,12.020 2.502 C 11.715 2.481,11.636 2.489,11.500 2.553 M6.313 13.373 C 6.622 14.315,6.889 15.262,6.872 15.350 C 6.848 15.474,6.579 15.531,6.000 15.535 C 5.313 15.539,5.160 15.487,5.160 15.250 C 5.160 15.088,5.323 14.482,5.625 13.520 C 5.870 12.743,5.955 12.546,6.023 12.602 C 6.052 12.626,6.183 12.973,6.313 13.373 M18.456 13.853 C 18.903 15.215,18.935 15.339,18.856 15.418 C 18.758 15.516,18.366 15.570,17.901 15.551 C 17.344 15.528,17.160 15.460,17.160 15.279 C 17.160 15.044,17.588 13.546,17.850 12.863 C 17.956 12.585,17.977 12.555,18.022 12.616 C 18.050 12.654,18.245 13.210,18.456 13.853 " fill="#373B4D" stroke="none" fill-rule="evenodd"></path></svg>