<svg width="24" height="24" viewBox="0 0 24 24" fill="none" xmlns="http://www.w3.org/2000/svg"><path d="M11.618 2.507 C 11.491 2.532,11.155 2.804,11.029 2.983 C 10.864 3.218,10.841 3.363,10.813 4.328 L 10.788 5.197 8.428 6.141 L 6.068 7.085 5.212 6.680 C 3.998 6.105,3.884 6.066,3.540 6.097 C 2.989 6.146,2.642 6.425,2.499 6.936 C 2.339 7.503,2.580 7.912,3.354 8.387 C 4.289 8.961,4.400 9.043,4.400 9.161 C 4.400 9.314,4.231 9.892,3.439 12.442 C 2.588 15.185,2.480 15.578,2.481 15.917 C 2.482 16.282,2.568 16.445,2.948 16.800 C 3.461 17.281,4.181 17.659,4.932 17.842 C 5.365 17.947,6.200 17.987,6.638 17.923 C 7.350 17.819,8.058 17.546,8.614 17.162 C 9.013 16.886,9.408 16.470,9.499 16.229 C 9.624 15.901,9.584 15.744,8.561 12.460 C 7.811 10.057,7.600 9.343,7.600 9.212 C 7.600 9.131,7.649 9.093,7.910 8.974 C 8.652 8.634,10.620 7.887,10.662 7.929 C 10.693 7.960,10.752 11.751,10.782 15.710 L 10.810 19.200 10.555 19.200 C 10.065 19.201,8.537 19.281,8.242 19.321 C 7.564 19.413,7.243 19.824,7.289 20.542 C 7.307 20.822,7.319 20.856,7.486 21.071 C 7.584 21.197,7.753 21.367,7.862 21.450 L 8.060 21.600 12.009 21.600 L 15.959 21.600 16.238 21.336 C 16.601 20.994,16.727 20.746,16.729 20.370 C 16.731 20.069,16.677 19.928,16.455 19.654 C 16.187 19.323,15.968 19.283,14.004 19.216 L 13.188 19.188 13.217 15.644 C 13.253 11.251,13.303 7.964,13.334 7.932 C 13.363 7.904,14.409 8.280,15.606 8.750 L 16.473 9.089 16.413 9.295 C 16.380 9.408,16.032 10.535,15.639 11.800 C 14.783 14.553,14.543 15.372,14.478 15.764 C 14.431 16.042,14.434 16.072,14.519 16.269 C 14.744 16.790,15.761 17.508,16.668 17.788 C 17.008 17.892,17.053 17.896,17.980 17.898 C 18.858 17.900,18.966 17.892,19.248 17.811 C 19.957 17.605,20.713 17.166,21.151 16.704 C 21.469 16.369,21.586 16.110,21.547 15.824 C 21.515 15.596,21.276 14.777,20.525 12.336 C 19.531 9.106,19.546 9.163,19.677 9.023 C 19.725 8.972,20.007 8.780,20.304 8.596 C 21.252 8.009,21.502 7.750,21.548 7.307 C 21.575 7.046,21.492 6.766,21.316 6.528 C 21.152 6.305,20.798 6.134,20.379 6.075 L 20.059 6.030 19.001 6.560 L 17.943 7.089 15.578 6.143 L 13.212 5.197 13.187 4.289 C 13.173 3.789,13.144 3.316,13.121 3.237 C 13.064 3.039,12.827 2.775,12.603 2.662 C 12.500 2.609,12.276 2.547,12.105 2.523 C 11.789 2.479,11.763 2.478,11.618 2.507 M6.074 12.750 C 6.243 13.085,6.795 14.892,6.829 15.225 L 6.850 15.432 6.635 15.480 C 6.503 15.510,6.207 15.523,5.874 15.514 C 5.090 15.494,5.090 15.493,5.286 14.700 C 5.471 13.953,5.920 12.600,5.983 12.600 C 5.991 12.600,6.033 12.668,6.074 12.750 M18.232 13.220 C 18.703 14.538,18.900 15.298,18.807 15.434 C 18.711 15.575,17.430 15.581,17.261 15.441 C 17.136 15.337,17.194 14.978,17.505 13.928 C 17.672 13.366,17.893 12.716,17.947 12.629 C 17.987 12.564,18.030 12.654,18.232 13.220 " fill="#373B4D" stroke="none" fill-rule="evenodd"></path></svg>