<svg width="24" height="24" viewBox="0 0 24 24" fill="none" xmlns="http://www.w3.org/2000/svg"><path d="M11.520 2.587 C 11.332 2.683,11.009 3.009,10.940 3.174 C 10.863 3.358,10.800 4.026,10.800 4.660 L 10.800 5.192 8.430 6.140 L 6.060 7.087 5.200 6.687 C 4.113 6.182,4.045 6.160,3.586 6.160 C 3.246 6.160,3.201 6.170,3.034 6.275 C 2.779 6.437,2.651 6.587,2.559 6.832 C 2.449 7.126,2.457 7.377,2.585 7.635 C 2.703 7.871,2.937 8.083,3.548 8.503 C 4.297 9.018,4.360 9.072,4.360 9.194 C 4.360 9.325,4.179 9.995,3.861 11.040 C 2.458 15.654,2.396 15.900,2.550 16.244 C 2.803 16.809,3.854 17.527,4.791 17.776 C 5.722 18.024,6.520 18.006,7.420 17.717 C 8.602 17.338,9.637 16.416,9.538 15.829 C 9.499 15.595,9.074 14.137,8.365 11.810 C 7.684 9.572,7.606 9.270,7.684 9.176 C 7.712 9.141,7.891 9.035,8.080 8.940 C 8.499 8.730,10.063 8.103,10.363 8.026 C 10.556 7.976,10.584 7.977,10.616 8.032 C 10.636 8.066,10.666 8.833,10.683 9.737 C 10.729 12.124,10.812 19.161,10.795 19.177 C 10.787 19.185,10.384 19.212,9.900 19.237 C 8.755 19.297,8.182 19.354,7.960 19.428 C 7.511 19.578,7.315 19.892,7.315 20.462 C 7.315 20.802,7.391 20.958,7.726 21.304 L 8.014 21.600 12.004 21.600 L 15.994 21.600 16.234 21.334 C 16.593 20.936,16.694 20.727,16.692 20.382 C 16.691 19.932,16.549 19.678,16.200 19.501 C 15.892 19.345,15.444 19.292,13.784 19.216 L 13.188 19.189 13.214 17.364 C 13.228 16.361,13.260 13.920,13.284 11.940 C 13.308 9.960,13.340 8.248,13.354 8.134 L 13.380 7.929 14.120 8.199 C 15.018 8.527,15.955 8.887,16.252 9.018 L 16.471 9.115 16.253 9.808 C 15.796 11.257,14.749 14.719,14.637 15.152 C 14.404 16.053,14.419 16.201,14.776 16.586 C 15.208 17.053,15.950 17.532,16.560 17.740 C 17.319 17.998,18.912 17.960,19.638 17.667 C 20.478 17.328,21.388 16.572,21.519 16.105 C 21.559 15.958,21.549 15.879,21.425 15.400 C 21.349 15.103,21.007 13.933,20.666 12.800 C 19.707 9.613,19.619 9.291,19.657 9.138 C 19.670 9.087,19.869 8.917,20.149 8.719 C 21.433 7.809,21.687 7.468,21.498 6.912 C 21.361 6.511,20.963 6.225,20.360 6.095 L 20.059 6.030 19.001 6.559 L 17.943 7.089 15.572 6.140 L 13.200 5.192 13.200 4.605 C 13.200 3.939,13.148 3.419,13.056 3.170 C 12.930 2.830,12.488 2.577,11.946 2.537 C 11.721 2.521,11.630 2.531,11.520 2.587 M18.244 13.289 C 18.442 13.844,18.743 14.873,18.781 15.132 C 18.806 15.300,18.798 15.337,18.718 15.422 C 18.630 15.516,18.605 15.520,18.123 15.519 C 17.327 15.518,17.172 15.452,17.222 15.140 C 17.287 14.725,17.730 13.170,17.885 12.810 L 17.966 12.620 18.024 12.729 C 18.056 12.790,18.155 13.042,18.244 13.289 M6.153 12.990 C 6.400 13.635,6.788 14.978,6.809 15.256 C 6.819 15.399,6.810 15.415,6.700 15.448 C 6.524 15.499,5.764 15.536,5.548 15.503 C 5.210 15.453,5.183 15.352,5.323 14.666 C 5.455 14.018,5.912 12.680,6.001 12.680 C 6.019 12.680,6.088 12.820,6.153 12.990 " fill="#373B4D" stroke="none" fill-rule="evenodd"></path></svg>