<svg width="24" height="24" viewBox="0 0 24 24" fill="none" xmlns="http://www.w3.org/2000/svg"><path d="M11.578 2.523 C 11.420 2.569,11.151 2.801,10.997 3.025 C 10.885 3.187,10.871 3.244,10.838 3.671 C 10.818 3.929,10.801 4.377,10.801 4.666 L 10.800 5.192 8.433 6.139 L 6.066 7.086 5.348 6.741 C 4.954 6.551,4.459 6.323,4.249 6.233 C 3.890 6.080,3.850 6.071,3.564 6.089 C 3.092 6.117,2.764 6.319,2.584 6.692 C 2.443 6.984,2.415 7.255,2.498 7.540 C 2.594 7.871,2.823 8.074,3.681 8.588 C 4.076 8.825,4.407 9.042,4.418 9.070 C 4.447 9.146,4.290 9.712,3.820 11.220 C 2.482 15.513,2.480 15.520,2.480 15.928 C 2.480 16.282,2.543 16.417,2.856 16.730 C 3.454 17.329,4.458 17.808,5.340 17.916 C 6.370 18.042,7.250 17.900,8.099 17.473 C 8.691 17.176,9.305 16.661,9.461 16.333 C 9.643 15.949,9.617 15.833,8.660 12.780 C 7.815 10.086,7.553 9.203,7.586 9.151 C 7.629 9.081,8.293 8.788,9.220 8.431 C 10.391 7.979,10.630 7.896,10.666 7.933 C 10.707 7.974,10.745 10.388,10.781 15.225 L 10.810 19.190 9.895 19.217 C 8.901 19.247,8.183 19.301,7.956 19.361 C 7.764 19.413,7.467 19.679,7.363 19.893 C 7.263 20.100,7.247 20.645,7.335 20.851 C 7.408 21.023,7.688 21.334,7.902 21.481 L 8.074 21.600 12.007 21.600 L 15.941 21.600 16.146 21.430 C 16.568 21.080,16.737 20.776,16.738 20.360 C 16.739 20.146,16.718 20.062,16.621 19.886 C 16.454 19.583,16.204 19.375,15.947 19.323 C 15.755 19.284,14.082 19.201,13.470 19.200 L 13.200 19.200 13.200 17.890 C 13.199 15.607,13.287 7.941,13.314 7.914 C 13.339 7.888,14.696 8.385,15.889 8.858 L 16.472 9.088 16.391 9.374 C 16.346 9.531,15.969 10.749,15.553 12.080 C 14.410 15.737,14.355 15.960,14.520 16.299 C 14.761 16.797,15.745 17.500,16.560 17.755 C 16.993 17.891,17.306 17.927,18.060 17.928 C 18.978 17.930,19.378 17.836,20.160 17.435 C 21.016 16.997,21.560 16.408,21.560 15.920 C 21.560 15.724,21.355 15.018,20.420 12.000 C 19.786 9.953,19.600 9.311,19.600 9.168 C 19.600 9.026,19.623 9.008,20.453 8.503 C 21.086 8.118,21.409 7.829,21.497 7.572 C 21.625 7.194,21.554 6.818,21.293 6.493 C 21.113 6.268,20.818 6.129,20.398 6.074 L 20.060 6.029 19.002 6.559 L 17.943 7.089 15.576 6.142 L 13.209 5.196 13.189 4.288 C 13.177 3.766,13.149 3.315,13.122 3.227 C 13.096 3.143,13.010 3.003,12.931 2.915 C 12.704 2.664,12.496 2.563,12.114 2.519 C 11.733 2.475,11.741 2.475,11.578 2.523 M6.151 12.910 C 6.294 13.283,6.735 14.718,6.816 15.074 C 6.848 15.213,6.865 15.353,6.853 15.383 C 6.817 15.478,6.542 15.523,5.998 15.524 C 5.397 15.525,5.212 15.482,5.174 15.332 C 5.142 15.204,5.289 14.604,5.577 13.678 C 5.816 12.910,5.937 12.600,5.995 12.600 C 6.016 12.600,6.086 12.740,6.151 12.910 M18.441 13.828 C 18.686 14.567,18.851 15.128,18.854 15.237 C 18.863 15.506,18.771 15.540,18.040 15.539 C 17.438 15.538,17.279 15.504,17.185 15.352 C 17.130 15.264,17.365 14.310,17.663 13.410 C 17.891 12.721,17.941 12.600,17.998 12.600 C 18.017 12.600,18.217 13.153,18.441 13.828 " fill="#373B4D" stroke="none" fill-rule="evenodd"></path></svg>