<svg width="24" height="24" viewBox="0 0 24 24" fill="none" xmlns="http://www.w3.org/2000/svg"><path d="M11.606 2.549 C 11.555 2.559,11.386 2.687,11.231 2.835 C 10.969 3.085,10.946 3.121,10.893 3.362 C 10.862 3.505,10.826 3.971,10.812 4.408 L 10.789 5.197 8.424 6.142 L 6.059 7.088 5.280 6.727 C 4.148 6.204,4.117 6.193,3.675 6.170 C 3.326 6.152,3.271 6.159,3.100 6.244 C 2.849 6.370,2.615 6.641,2.540 6.893 C 2.369 7.467,2.570 7.812,3.420 8.411 C 4.196 8.958,4.323 9.058,4.344 9.142 C 4.376 9.268,4.224 9.822,3.480 12.296 C 2.655 15.044,2.511 15.576,2.505 15.925 C 2.500 16.173,2.511 16.206,2.660 16.422 C 2.945 16.837,3.642 17.339,4.294 17.600 C 5.358 18.026,6.395 18.059,7.465 17.700 C 8.444 17.371,9.329 16.674,9.504 16.094 C 9.556 15.920,9.554 15.876,9.478 15.582 C 9.368 15.154,9.027 13.998,8.377 11.848 C 7.755 9.792,7.671 9.482,7.688 9.286 C 7.700 9.147,7.714 9.135,8.075 8.952 C 8.544 8.714,10.211 8.052,10.427 8.017 C 10.556 7.997,10.593 8.005,10.614 8.058 C 10.659 8.176,10.835 19.141,10.792 19.180 C 10.786 19.186,10.411 19.212,9.960 19.237 C 8.342 19.328,7.994 19.378,7.710 19.558 C 7.468 19.711,7.352 19.956,7.328 20.361 C 7.305 20.758,7.381 20.933,7.740 21.314 L 8.010 21.600 12.001 21.600 L 15.993 21.600 16.237 21.330 C 16.371 21.181,16.528 20.965,16.585 20.849 C 16.680 20.660,16.688 20.605,16.672 20.299 C 16.657 20.002,16.639 19.937,16.536 19.790 C 16.388 19.579,16.076 19.416,15.720 19.362 C 15.436 19.320,14.613 19.259,13.744 19.217 L 13.189 19.190 13.215 17.445 C 13.230 16.485,13.259 14.305,13.280 12.600 C 13.326 8.785,13.351 7.960,13.418 7.960 C 13.504 7.960,15.762 8.805,16.285 9.032 L 16.469 9.113 16.073 10.386 C 15.856 11.087,15.462 12.377,15.198 13.254 C 14.320 16.169,14.324 16.128,14.856 16.659 C 15.387 17.191,16.255 17.691,16.874 17.823 C 17.496 17.955,18.631 17.933,19.278 17.776 C 19.846 17.639,20.631 17.169,21.115 16.678 C 21.414 16.374,21.535 16.154,21.529 15.925 C 21.524 15.713,21.284 14.859,20.462 12.120 C 19.735 9.697,19.604 9.191,19.683 9.096 C 19.714 9.058,20.010 8.826,20.340 8.579 C 21.314 7.852,21.597 7.513,21.546 7.137 C 21.475 6.621,21.067 6.267,20.344 6.097 L 20.059 6.030 19.001 6.559 L 17.943 7.089 15.577 6.143 L 13.211 5.196 13.189 4.388 C 13.157 3.199,13.070 2.957,12.590 2.724 C 12.452 2.657,12.223 2.584,12.080 2.561 C 11.813 2.519,11.767 2.518,11.606 2.549 M18.347 13.600 C 18.587 14.323,18.809 15.198,18.781 15.309 C 18.734 15.497,18.608 15.531,18.010 15.513 C 17.235 15.490,17.166 15.440,17.263 14.970 C 17.386 14.378,17.815 12.918,17.931 12.700 C 17.970 12.628,17.984 12.643,18.071 12.840 C 18.124 12.961,18.248 13.303,18.347 13.600 M6.212 13.160 C 6.468 13.853,6.800 15.051,6.800 15.278 C 6.800 15.442,6.706 15.476,6.162 15.507 C 5.597 15.539,5.379 15.505,5.291 15.372 C 5.228 15.276,5.228 15.244,5.290 14.885 C 5.373 14.398,5.591 13.638,5.804 13.094 C 5.999 12.596,6.005 12.597,6.212 13.160 " fill="#373B4D" stroke="none" fill-rule="evenodd"></path></svg>