<svg width="24" height="24" viewBox="0 0 24 24" fill="none" xmlns="http://www.w3.org/2000/svg"><path d="M11.760 2.436 C 11.399 2.511,11.091 2.748,10.933 3.071 C 10.820 3.300,10.820 3.302,10.807 4.247 L 10.794 5.195 8.425 6.142 L 6.057 7.089 5.009 6.564 L 3.961 6.040 3.616 6.040 C 3.305 6.040,3.248 6.053,3.032 6.168 C 2.457 6.474,2.248 7.147,2.542 7.747 C 2.679 8.028,2.834 8.140,3.732 8.607 C 4.124 8.811,4.461 8.997,4.482 9.022 C 4.506 9.051,4.491 9.153,4.442 9.304 C 4.234 9.940,2.930 14.052,2.679 14.860 C 2.432 15.659,2.398 15.807,2.417 15.987 C 2.467 16.440,2.725 16.773,3.339 17.179 C 3.875 17.533,4.382 17.747,5.060 17.905 C 5.509 18.010,6.491 18.010,6.940 17.905 C 7.618 17.747,8.125 17.533,8.661 17.179 C 9.275 16.773,9.533 16.440,9.583 15.987 C 9.609 15.749,9.541 15.520,8.297 11.632 C 7.891 10.363,7.548 9.272,7.535 9.207 L 7.512 9.089 9.126 8.447 L 10.740 7.806 10.765 8.233 C 10.779 8.468,10.792 11.029,10.795 13.924 L 10.800 19.189 9.447 19.208 L 8.094 19.228 7.843 19.362 C 6.970 19.827,7.010 21.043,7.912 21.487 L 8.100 21.580 12.000 21.580 L 15.900 21.580 16.088 21.487 C 16.990 21.043,17.030 19.827,16.157 19.362 L 15.906 19.228 14.553 19.208 L 13.200 19.189 13.205 13.904 C 13.208 10.998,13.221 8.437,13.235 8.213 L 13.260 7.806 14.853 8.439 C 15.729 8.787,16.456 9.083,16.469 9.096 C 16.500 9.127,16.506 9.109,15.679 11.700 C 14.447 15.560,14.391 15.750,14.417 15.987 C 14.467 16.440,14.725 16.773,15.339 17.179 C 15.875 17.533,16.382 17.747,17.060 17.905 C 17.509 18.010,18.491 18.010,18.940 17.905 C 19.618 17.747,20.125 17.533,20.661 17.179 C 21.266 16.779,21.524 16.451,21.583 16.005 C 21.614 15.774,21.551 15.560,20.302 11.643 C 19.769 9.971,19.494 9.051,19.518 9.022 C 19.539 8.997,19.876 8.811,20.268 8.607 C 21.166 8.140,21.321 8.028,21.458 7.747 C 21.752 7.147,21.543 6.474,20.968 6.168 C 20.752 6.053,20.695 6.040,20.384 6.040 L 20.039 6.040 18.991 6.564 L 17.943 7.089 15.575 6.142 L 13.207 5.195 13.194 4.248 C 13.180 3.303,13.180 3.299,13.068 3.072 C 13.006 2.946,12.898 2.795,12.828 2.735 C 12.550 2.500,12.082 2.369,11.760 2.436 M6.270 13.190 C 6.609 14.212,6.920 15.242,6.920 15.343 C 6.920 15.444,6.769 15.498,6.290 15.568 C 5.951 15.617,5.612 15.586,5.226 15.471 C 5.078 15.427,5.073 15.420,5.096 15.282 C 5.147 14.970,5.945 12.440,5.992 12.440 C 6.008 12.440,6.133 12.777,6.270 13.190 M18.391 13.570 C 18.810 14.869,18.920 15.237,18.920 15.348 C 18.920 15.444,18.762 15.499,18.290 15.568 C 17.951 15.617,17.612 15.586,17.226 15.471 C 17.078 15.427,17.073 15.420,17.096 15.282 C 17.148 14.962,17.945 12.440,17.994 12.440 C 18.011 12.440,18.190 12.948,18.391 13.570 " fill="#373B4D" stroke="none" fill-rule="evenodd"></path></svg>