<svg width="24" height="24" viewBox="0 0 24 24" fill="none" xmlns="http://www.w3.org/2000/svg"><path d="M5.621 2.562 C 5.230 2.661,4.562 2.975,4.206 3.227 C 3.428 3.778,2.948 4.421,2.598 5.380 C 2.469 5.733,2.466 5.755,2.450 6.540 L 2.434 7.340 2.561 7.700 C 2.862 8.552,3.162 9.038,3.713 9.568 C 4.130 9.969,4.531 10.242,5.000 10.444 C 5.521 10.669,5.760 10.721,6.380 10.746 C 7.057 10.774,7.441 10.716,8.139 10.481 L 8.619 10.319 9.459 11.160 L 10.300 12.000 9.460 12.839 L 8.620 13.678 8.242 13.559 C 7.571 13.348,7.319 13.311,6.540 13.308 C 5.869 13.305,5.795 13.312,5.460 13.413 C 4.004 13.850,2.913 14.969,2.548 16.400 C 2.423 16.890,2.426 17.901,2.554 18.418 C 2.953 20.033,4.339 21.254,6.102 21.542 C 7.067 21.700,8.237 21.371,9.144 20.687 C 9.766 20.218,10.353 19.384,10.617 18.593 C 10.714 18.305,10.720 18.237,10.720 17.501 C 10.720 16.612,10.677 16.330,10.456 15.750 L 10.316 15.384 13.231 12.462 C 18.744 6.935,20.117 5.517,20.280 5.179 C 20.588 4.544,20.011 3.681,19.280 3.681 C 18.970 3.680,18.771 3.744,18.540 3.918 C 18.187 4.183,17.000 5.326,14.467 7.840 L 11.995 10.294 11.156 9.455 L 10.317 8.616 10.459 8.248 C 10.669 7.705,10.721 7.393,10.747 6.540 L 10.770 5.780 10.645 5.469 C 10.257 4.503,9.819 3.879,9.152 3.341 C 8.757 3.024,8.160 2.722,7.680 2.599 C 7.173 2.468,6.070 2.448,5.621 2.562 M7.292 4.998 C 7.547 5.129,7.909 5.461,8.103 5.742 L 8.260 5.970 8.260 6.600 L 8.260 7.230 8.085 7.485 C 7.647 8.123,6.915 8.492,6.343 8.364 C 5.993 8.286,5.673 8.102,5.386 7.816 C 5.242 7.672,5.078 7.461,5.022 7.349 C 4.928 7.160,4.920 7.102,4.920 6.611 C 4.920 6.126,4.929 6.060,5.017 5.886 C 5.167 5.589,5.410 5.308,5.655 5.145 C 6.008 4.911,6.122 4.881,6.640 4.891 C 7.039 4.899,7.125 4.913,7.292 4.998 M13.933 13.584 C 13.565 13.834,13.400 14.138,13.400 14.566 C 13.400 14.867,13.457 15.000,13.722 15.318 C 14.358 16.082,17.833 19.532,18.494 20.055 C 18.647 20.177,18.845 20.293,18.944 20.321 C 19.394 20.447,19.960 20.187,20.228 19.731 C 20.320 19.573,20.332 19.510,20.329 19.201 C 20.326 18.781,20.301 18.725,19.937 18.320 C 18.968 17.244,15.900 14.209,15.290 13.723 C 14.996 13.489,14.847 13.440,14.440 13.442 C 14.164 13.443,14.123 13.455,13.933 13.584 M7.292 15.798 C 7.547 15.929,7.909 16.261,8.103 16.542 L 8.260 16.770 8.260 17.400 L 8.260 18.030 8.085 18.285 C 7.647 18.923,6.915 19.292,6.343 19.164 C 5.993 19.086,5.673 18.902,5.386 18.616 C 5.242 18.472,5.078 18.261,5.022 18.149 C 4.928 17.960,4.920 17.902,4.920 17.411 C 4.920 16.926,4.929 16.860,5.017 16.686 C 5.167 16.389,5.410 16.108,5.655 15.945 C 6.008 15.711,6.122 15.681,6.640 15.691 C 7.039 15.699,7.125 15.713,7.292 15.798 " fill="#373B4D" stroke="none" fill-rule="evenodd"></path></svg>