<svg width="24" height="24" viewBox="0 0 24 24" fill="none" xmlns="http://www.w3.org/2000/svg"><path d="M5.933 2.521 C 5.208 2.612,4.342 3.057,3.726 3.656 C 3.193 4.172,2.961 4.507,2.707 5.121 C 2.499 5.623,2.440 5.975,2.440 6.701 C 2.440 7.431,2.490 7.632,2.860 8.380 C 3.406 9.486,4.413 10.327,5.553 10.628 C 5.887 10.717,6.028 10.731,6.580 10.735 C 7.272 10.738,7.492 10.700,8.270 10.437 L 8.619 10.319 9.459 11.159 L 10.300 12.000 9.460 12.838 L 8.620 13.677 8.157 13.542 C 7.531 13.358,7.010 13.303,6.233 13.336 C 5.540 13.365,5.399 13.399,4.823 13.681 C 3.673 14.243,2.881 15.183,2.571 16.355 C 2.483 16.688,2.469 16.824,2.468 17.360 C 2.468 17.800,2.488 18.072,2.537 18.296 C 2.860 19.777,4.016 20.967,5.566 21.415 C 7.485 21.970,9.618 20.891,10.482 18.930 C 10.673 18.496,10.719 18.215,10.720 17.493 C 10.720 16.758,10.668 16.403,10.479 15.844 L 10.325 15.387 13.928 11.764 C 18.843 6.821,20.089 5.524,20.269 5.163 C 20.435 4.829,20.320 4.323,20.008 4.011 C 19.687 3.689,19.168 3.609,18.747 3.815 C 18.386 3.991,17.278 5.043,13.730 8.577 L 12.000 10.300 11.160 9.460 L 10.320 8.620 10.464 8.220 C 10.659 7.680,10.715 7.343,10.746 6.538 C 10.775 5.765,10.763 5.704,10.458 5.060 C 9.828 3.734,8.696 2.789,7.481 2.578 C 7.070 2.507,6.281 2.478,5.933 2.521 M6.832 4.921 C 7.036 4.942,7.252 4.986,7.312 5.017 C 7.505 5.120,7.874 5.454,8.059 5.695 L 8.240 5.930 8.240 6.601 L 8.240 7.272 8.018 7.555 C 7.668 8.003,7.182 8.310,6.711 8.380 C 6.177 8.461,5.349 7.940,5.036 7.327 C 4.948 7.156,4.940 7.094,4.942 6.580 C 4.943 6.038,4.947 6.014,5.057 5.827 C 5.319 5.384,5.794 4.996,6.164 4.923 C 6.404 4.876,6.410 4.876,6.832 4.921 M14.180 13.472 C 13.861 13.585,13.552 13.904,13.460 14.213 C 13.334 14.638,13.406 14.897,13.787 15.377 C 14.084 15.752,17.835 19.493,18.318 19.895 C 18.758 20.263,18.899 20.332,19.205 20.330 C 19.607 20.327,19.999 20.098,20.200 19.747 C 20.305 19.564,20.319 19.502,20.319 19.220 C 20.318 18.997,20.296 18.852,20.245 18.739 C 20.144 18.516,19.245 17.571,17.355 15.700 C 15.786 14.147,15.232 13.643,14.977 13.536 C 14.830 13.475,14.293 13.431,14.180 13.472 M6.832 15.721 C 7.036 15.742,7.252 15.786,7.312 15.817 C 7.505 15.920,7.874 16.254,8.059 16.495 L 8.240 16.730 8.240 17.401 L 8.240 18.072 8.018 18.355 C 7.668 18.803,7.182 19.110,6.711 19.180 C 6.177 19.261,5.349 18.740,5.036 18.127 C 4.948 17.956,4.940 17.894,4.942 17.380 C 4.943 16.838,4.947 16.814,5.057 16.627 C 5.319 16.184,5.794 15.796,6.164 15.723 C 6.404 15.676,6.410 15.676,6.832 15.721 " fill="#373B4D" stroke="none" fill-rule="evenodd"></path></svg>