<svg width="24" height="24" viewBox="0 0 24 24" fill="none" xmlns="http://www.w3.org/2000/svg"><path d="M6.082 2.445 C 5.622 2.498,5.220 2.622,4.740 2.860 C 3.516 3.464,2.695 4.566,2.464 5.917 C 2.142 7.805,3.198 9.724,4.964 10.455 C 5.624 10.728,5.863 10.774,6.600 10.770 C 7.339 10.767,7.596 10.718,8.248 10.457 L 8.611 10.311 9.456 11.156 L 10.300 12.000 9.454 12.846 L 8.609 13.691 8.314 13.569 C 7.902 13.397,7.462 13.289,6.973 13.239 C 5.128 13.052,3.304 14.188,2.679 15.916 C 2.471 16.490,2.426 16.760,2.427 17.420 C 2.428 18.087,2.510 18.499,2.755 19.075 C 3.350 20.472,4.767 21.473,6.302 21.580 C 7.809 21.685,9.283 20.959,10.095 19.713 C 10.352 19.318,10.511 18.967,10.663 18.456 C 10.759 18.132,10.768 18.039,10.768 17.420 C 10.767 16.659,10.722 16.414,10.458 15.754 L 10.313 15.393 15.147 10.547 C 17.805 7.881,20.055 5.601,20.146 5.480 C 20.400 5.144,20.456 4.844,20.340 4.453 C 20.254 4.162,20.050 3.918,19.768 3.768 C 19.555 3.654,19.493 3.640,19.202 3.640 C 18.988 3.640,18.836 3.661,18.758 3.701 C 18.506 3.832,17.960 4.354,15.029 7.276 L 11.998 10.298 11.155 9.455 L 10.311 8.611 10.457 8.248 C 10.716 7.600,10.763 7.344,10.764 6.580 C 10.764 5.963,10.755 5.866,10.660 5.540 C 10.506 5.015,10.358 4.686,10.097 4.293 C 9.400 3.247,8.284 2.574,7.020 2.440 C 6.610 2.396,6.498 2.397,6.082 2.445 M6.925 4.840 C 7.649 4.975,8.245 5.601,8.361 6.348 C 8.495 7.213,7.955 8.053,7.092 8.320 C 6.592 8.474,6.072 8.389,5.602 8.075 C 5.037 7.698,4.726 6.989,4.837 6.330 C 5.005 5.332,5.949 4.658,6.925 4.840 M14.225 13.404 C 14.023 13.452,13.731 13.668,13.574 13.887 C 13.358 14.187,13.307 14.528,13.421 14.912 C 13.474 15.090,13.568 15.209,14.115 15.789 C 15.058 16.788,18.223 19.911,18.513 20.129 C 18.833 20.369,19.019 20.422,19.347 20.368 C 19.688 20.311,19.849 20.225,20.074 19.979 C 20.295 19.737,20.375 19.514,20.374 19.142 C 20.373 18.806,20.291 18.668,19.729 18.058 C 19.029 17.299,15.412 13.719,15.192 13.568 C 14.923 13.383,14.570 13.323,14.225 13.404 M6.925 15.640 C 7.649 15.775,8.245 16.401,8.361 17.148 C 8.495 18.013,7.955 18.853,7.092 19.120 C 6.592 19.274,6.072 19.189,5.602 18.875 C 5.037 18.498,4.726 17.789,4.837 17.130 C 5.005 16.132,5.949 15.458,6.925 15.640 " fill="#373B4D" stroke="none" fill-rule="evenodd"></path></svg>