<svg width="24" height="24" viewBox="0 0 24 24" fill="none" xmlns="http://www.w3.org/2000/svg"><path d="M5.757 2.563 C 4.925 2.685,3.753 3.477,3.150 4.323 C 2.907 4.665,2.663 5.179,2.554 5.580 C 2.480 5.850,2.466 6.012,2.463 6.620 C 2.460 7.270,2.469 7.369,2.554 7.640 C 2.680 8.042,3.002 8.679,3.245 9.007 C 3.709 9.633,4.470 10.227,5.139 10.485 C 5.620 10.670,5.913 10.719,6.566 10.719 C 7.240 10.720,7.596 10.664,8.202 10.459 L 8.619 10.319 9.459 11.159 L 10.300 12.000 9.460 12.838 L 8.620 13.676 8.211 13.560 C 7.986 13.497,7.666 13.426,7.498 13.402 C 7.053 13.340,5.875 13.350,5.554 13.418 C 4.998 13.536,4.114 14.055,3.632 14.546 C 3.142 15.046,2.871 15.481,2.641 16.140 C 2.528 16.463,2.513 16.562,2.494 17.100 C 2.455 18.178,2.581 18.744,3.024 19.487 C 3.416 20.142,4.205 20.848,4.890 21.156 C 5.911 21.614,6.838 21.671,7.832 21.339 C 8.960 20.961,9.845 20.185,10.396 19.088 C 10.664 18.554,10.697 18.377,10.698 17.460 C 10.699 16.605,10.669 16.413,10.418 15.673 L 10.322 15.390 13.587 12.105 C 18.322 7.341,19.936 5.667,20.207 5.242 C 20.402 4.936,20.343 4.432,20.075 4.106 C 19.815 3.791,19.289 3.644,18.893 3.776 C 18.492 3.909,17.675 4.663,14.207 8.100 L 11.994 10.294 11.158 9.457 L 10.323 8.620 10.460 8.220 C 10.639 7.698,10.717 7.232,10.747 6.520 C 10.775 5.838,10.734 5.626,10.477 5.113 C 10.025 4.216,9.485 3.583,8.773 3.118 C 8.155 2.715,7.817 2.610,6.962 2.558 C 6.287 2.516,6.064 2.517,5.757 2.563 M6.753 4.921 C 6.914 4.941,7.117 4.978,7.203 5.001 C 7.394 5.052,7.769 5.358,8.039 5.683 L 8.240 5.924 8.240 6.600 L 8.240 7.275 8.021 7.534 C 7.621 8.005,7.243 8.256,6.771 8.365 C 6.597 8.405,6.535 8.400,6.294 8.327 C 5.812 8.181,5.326 7.808,5.087 7.402 C 4.983 7.225,4.980 7.202,4.980 6.580 L 4.980 5.940 5.107 5.757 C 5.377 5.368,5.859 5.003,6.215 4.918 C 6.387 4.877,6.419 4.877,6.753 4.921 M13.945 13.603 C 13.701 13.767,13.536 13.992,13.455 14.272 C 13.329 14.703,13.457 14.996,14.054 15.646 C 14.757 16.412,18.203 19.811,18.497 20.029 C 18.649 20.141,18.852 20.255,18.948 20.282 C 19.429 20.417,20.018 20.124,20.237 19.640 C 20.327 19.440,20.345 19.111,20.278 18.869 C 20.207 18.616,19.706 18.063,17.981 16.338 C 16.363 14.720,15.596 13.990,15.176 13.673 C 14.964 13.513,14.956 13.511,14.551 13.492 L 14.140 13.472 13.945 13.603 M6.753 15.721 C 6.914 15.741,7.117 15.778,7.203 15.801 C 7.394 15.852,7.769 16.158,8.039 16.483 L 8.240 16.724 8.240 17.400 L 8.240 18.075 8.021 18.334 C 7.621 18.805,7.243 19.056,6.771 19.165 C 6.597 19.205,6.535 19.200,6.294 19.127 C 5.812 18.981,5.326 18.608,5.087 18.202 C 4.983 18.025,4.980 18.002,4.980 17.380 L 4.980 16.740 5.107 16.557 C 5.377 16.168,5.859 15.803,6.215 15.718 C 6.387 15.677,6.419 15.677,6.753 15.721 " fill="#373B4D" stroke="none" fill-rule="evenodd"></path></svg>