<svg width="24" height="24" viewBox="0 0 24 24" fill="none" xmlns="http://www.w3.org/2000/svg"><path d="M5.820 2.560 C 5.119 2.666,4.380 3.076,3.671 3.755 C 3.242 4.166,2.995 4.506,2.778 4.982 C 2.517 5.555,2.469 5.809,2.467 6.640 C 2.465 7.343,2.470 7.396,2.572 7.691 C 2.816 8.396,3.189 9.001,3.675 9.481 C 4.081 9.883,4.429 10.139,4.864 10.357 C 5.377 10.613,5.689 10.685,6.400 10.708 C 7.125 10.732,7.525 10.677,8.192 10.460 L 8.620 10.321 9.460 11.161 L 10.300 12.000 9.460 12.837 L 8.620 13.675 8.080 13.530 L 7.540 13.386 6.600 13.383 C 5.540 13.380,5.442 13.398,4.863 13.689 C 3.711 14.268,2.953 15.134,2.594 16.280 C 2.508 16.555,2.500 16.648,2.503 17.380 C 2.506 18.073,2.518 18.223,2.593 18.498 C 2.845 19.412,3.490 20.264,4.382 20.861 C 4.766 21.118,5.142 21.284,5.670 21.429 C 6.006 21.521,6.135 21.536,6.600 21.534 C 7.057 21.533,7.201 21.516,7.540 21.425 C 8.020 21.296,8.721 20.959,9.084 20.683 C 9.628 20.269,10.141 19.629,10.444 18.982 C 10.666 18.507,10.691 18.358,10.691 17.460 C 10.692 16.600,10.657 16.365,10.421 15.681 L 10.319 15.382 12.692 13.001 C 17.203 8.476,19.537 6.081,20.020 5.480 C 20.135 5.337,20.252 5.150,20.280 5.064 C 20.351 4.844,20.308 4.522,20.173 4.271 C 19.918 3.794,19.247 3.591,18.760 3.842 C 18.350 4.053,17.281 5.055,14.127 8.180 L 11.994 10.294 11.157 9.456 L 10.319 8.619 10.456 8.212 C 10.626 7.707,10.713 7.211,10.746 6.558 C 10.780 5.895,10.728 5.629,10.465 5.106 C 9.956 4.096,9.297 3.388,8.429 2.920 C 8.030 2.705,7.645 2.614,6.921 2.563 C 6.254 2.516,6.117 2.515,5.820 2.560 M6.823 4.935 C 7.022 4.965,7.229 5.012,7.283 5.040 C 7.505 5.156,7.780 5.388,8.003 5.647 L 8.240 5.922 8.240 6.599 L 8.240 7.275 7.993 7.561 C 7.680 7.924,7.287 8.202,6.918 8.321 C 6.668 8.401,6.609 8.407,6.438 8.367 C 5.955 8.256,5.389 7.859,5.125 7.447 L 5.000 7.253 5.000 6.582 L 5.000 5.911 5.140 5.720 C 5.399 5.368,5.774 5.078,6.133 4.954 C 6.384 4.867,6.373 4.868,6.823 4.935 M13.920 13.633 C 13.673 13.814,13.557 13.972,13.464 14.251 C 13.285 14.790,13.455 15.051,15.019 16.636 C 16.779 18.419,18.448 20.016,18.711 20.167 C 18.907 20.280,18.978 20.299,19.200 20.298 C 19.519 20.297,19.767 20.193,19.994 19.966 C 20.198 19.762,20.278 19.607,20.307 19.362 C 20.345 19.041,20.292 18.824,20.118 18.591 C 19.563 17.846,15.455 13.795,15.034 13.577 C 14.974 13.546,14.749 13.510,14.533 13.496 L 14.140 13.472 13.920 13.633 M6.823 15.735 C 7.022 15.765,7.229 15.812,7.283 15.840 C 7.505 15.956,7.780 16.188,8.003 16.447 L 8.240 16.722 8.240 17.399 L 8.240 18.075 7.993 18.361 C 7.680 18.724,7.287 19.002,6.918 19.121 C 6.668 19.201,6.609 19.207,6.438 19.167 C 5.955 19.056,5.389 18.659,5.125 18.247 L 5.000 18.053 5.000 17.382 L 5.000 16.711 5.140 16.520 C 5.399 16.168,5.774 15.878,6.133 15.754 C 6.384 15.667,6.373 15.668,6.823 15.735 " fill="#373B4D" stroke="none" fill-rule="evenodd"></path></svg>