<svg width="24" height="24" viewBox="0 0 24 24" fill="none" xmlns="http://www.w3.org/2000/svg"><path d="M5.910 2.522 C 5.561 2.563,5.308 2.647,4.839 2.876 C 4.277 3.152,4.022 3.334,3.600 3.760 C 3.166 4.197,2.912 4.593,2.668 5.215 C 2.476 5.706,2.442 5.930,2.441 6.728 C 2.440 7.348,2.442 7.361,2.582 7.748 C 2.969 8.820,3.498 9.510,4.389 10.106 C 5.008 10.520,5.602 10.711,6.380 10.746 C 7.010 10.775,7.425 10.712,8.134 10.480 L 8.620 10.321 9.460 11.161 L 10.300 12.000 9.460 12.839 L 8.620 13.677 8.175 13.542 C 7.542 13.349,7.208 13.310,6.355 13.329 C 5.669 13.344,5.600 13.353,5.320 13.458 C 3.881 13.997,2.906 15.029,2.561 16.377 C 2.395 17.027,2.422 18.004,2.624 18.645 C 3.113 20.195,4.541 21.345,6.246 21.558 C 6.843 21.633,7.647 21.486,8.311 21.179 C 9.348 20.700,10.199 19.757,10.603 18.640 C 10.686 18.410,10.699 18.294,10.712 17.641 C 10.730 16.751,10.686 16.416,10.477 15.823 L 10.321 15.380 13.153 12.540 C 18.786 6.891,20.080 5.551,20.267 5.169 C 20.401 4.896,20.383 4.587,20.216 4.280 C 19.875 3.652,19.122 3.500,18.528 3.937 C 18.186 4.190,16.923 5.406,14.327 7.980 L 11.994 10.294 11.155 9.455 L 10.316 8.616 10.439 8.298 C 10.507 8.123,10.588 7.881,10.619 7.760 C 10.696 7.465,10.760 6.762,10.760 6.205 C 10.760 5.755,10.758 5.747,10.576 5.314 C 10.104 4.197,9.440 3.429,8.531 2.951 C 8.027 2.685,7.656 2.573,7.120 2.523 C 6.609 2.475,6.311 2.475,5.910 2.522 M7.278 4.999 C 7.519 5.122,7.858 5.420,8.056 5.683 L 8.240 5.928 8.240 6.600 L 8.240 7.272 8.058 7.515 C 7.592 8.134,6.918 8.475,6.374 8.366 C 5.850 8.260,5.271 7.816,5.036 7.338 C 4.913 7.088,4.912 7.081,4.926 6.551 C 4.940 6.022,4.941 6.014,5.080 5.785 C 5.338 5.356,5.788 4.994,6.160 4.914 C 6.407 4.861,7.112 4.914,7.278 4.999 M14.059 13.517 C 13.848 13.625,13.614 13.855,13.511 14.057 C 13.462 14.154,13.420 14.330,13.409 14.489 C 13.371 15.016,13.532 15.210,16.185 17.841 C 18.580 20.217,18.731 20.342,19.200 20.338 C 19.624 20.335,20.063 20.065,20.240 19.699 C 20.315 19.545,20.326 19.465,20.314 19.146 C 20.300 18.780,20.297 18.770,20.136 18.557 C 19.769 18.073,16.292 14.588,15.480 13.890 C 15.066 13.534,14.928 13.469,14.540 13.451 C 14.276 13.438,14.192 13.449,14.059 13.517 M7.278 15.799 C 7.519 15.922,7.858 16.220,8.056 16.483 L 8.240 16.728 8.240 17.400 L 8.240 18.072 8.058 18.315 C 7.592 18.934,6.918 19.275,6.374 19.166 C 5.850 19.060,5.271 18.616,5.036 18.138 C 4.913 17.888,4.912 17.881,4.926 17.351 C 4.940 16.822,4.941 16.814,5.080 16.585 C 5.338 16.156,5.788 15.794,6.160 15.714 C 6.407 15.661,7.112 15.714,7.278 15.799 " fill="#373B4D" stroke="none" fill-rule="evenodd"></path></svg>