<svg width="24" height="24" viewBox="0 0 24 24" fill="none" xmlns="http://www.w3.org/2000/svg"><path d="M5.384 2.682 C 4.310 3.046,3.204 4.031,2.761 5.017 C 2.516 5.564,2.500 5.661,2.500 6.620 C 2.500 7.480,2.502 7.507,2.609 7.795 C 3.027 8.923,3.951 9.930,5.021 10.424 C 5.475 10.634,5.779 10.684,6.620 10.685 C 7.400 10.686,7.671 10.644,8.319 10.421 L 8.618 10.319 9.459 11.159 L 10.300 12.000 9.460 12.840 L 8.620 13.680 8.109 13.540 C 7.598 13.400,7.597 13.400,6.749 13.401 C 6.282 13.402,5.766 13.420,5.602 13.441 C 4.897 13.533,3.724 14.337,3.176 15.104 C 2.956 15.412,2.714 15.897,2.599 16.260 C 2.519 16.512,2.510 16.619,2.513 17.346 C 2.516 18.222,2.558 18.502,2.748 18.938 C 3.016 19.550,3.663 20.341,4.226 20.745 C 4.542 20.972,5.087 21.241,5.520 21.384 C 5.842 21.491,5.898 21.497,6.600 21.498 C 7.312 21.500,7.352 21.496,7.660 21.387 C 8.079 21.239,8.635 20.967,8.960 20.753 C 9.546 20.365,10.256 19.473,10.525 18.786 C 10.649 18.468,10.653 18.441,10.671 17.678 C 10.693 16.754,10.654 16.405,10.463 15.816 L 10.324 15.387 13.831 11.843 C 19.690 5.923,20.022 5.575,20.230 5.126 C 20.352 4.864,20.339 4.662,20.180 4.336 C 20.066 4.103,19.845 3.908,19.587 3.813 C 19.381 3.737,19.004 3.751,18.803 3.842 C 18.362 4.042,17.152 5.175,13.550 8.758 L 12.000 10.300 11.161 9.460 L 10.322 8.620 10.442 8.240 C 10.649 7.580,10.735 7.047,10.738 6.400 C 10.740 5.750,10.712 5.626,10.429 5.060 C 9.959 4.120,9.122 3.258,8.311 2.880 C 7.825 2.653,7.242 2.560,6.321 2.561 C 5.781 2.562,5.715 2.570,5.384 2.682 M6.816 4.943 C 7.012 4.977,7.246 5.042,7.336 5.088 C 7.426 5.133,7.667 5.334,7.870 5.533 L 8.240 5.895 8.240 6.592 L 8.240 7.289 7.931 7.607 C 7.570 7.978,7.303 8.165,6.940 8.301 C 6.609 8.426,6.582 8.425,6.209 8.280 C 5.819 8.129,5.420 7.830,5.184 7.512 L 5.000 7.265 5.000 6.582 L 5.000 5.899 5.170 5.695 C 5.454 5.354,5.760 5.120,6.116 4.974 C 6.384 4.864,6.369 4.864,6.816 4.943 M13.981 13.606 C 13.726 13.778,13.537 14.029,13.458 14.301 C 13.299 14.849,13.485 15.095,15.816 17.420 C 17.410 19.011,18.368 19.919,18.677 20.132 C 18.917 20.298,19.329 20.333,19.607 20.210 C 20.003 20.035,20.273 19.679,20.309 19.285 C 20.337 18.978,20.224 18.724,19.879 18.318 C 19.315 17.653,15.980 14.355,15.328 13.818 C 15.037 13.578,14.929 13.537,14.480 13.498 C 14.187 13.472,14.175 13.475,13.981 13.606 M6.816 15.743 C 7.012 15.777,7.246 15.842,7.336 15.888 C 7.426 15.933,7.667 16.134,7.870 16.333 L 8.240 16.695 8.240 17.392 L 8.240 18.089 7.931 18.407 C 7.570 18.778,7.303 18.965,6.940 19.101 C 6.609 19.226,6.582 19.225,6.209 19.080 C 5.819 18.929,5.420 18.630,5.184 18.312 L 5.000 18.065 5.000 17.382 L 5.000 16.699 5.170 16.495 C 5.454 16.154,5.760 15.920,6.116 15.774 C 6.384 15.664,6.369 15.664,6.816 15.743 " fill="#373B4D" stroke="none" fill-rule="evenodd"></path></svg>