<svg width="24" height="24" viewBox="0 0 24 24" fill="none" xmlns="http://www.w3.org/2000/svg"><path d="M5.740 2.577 C 5.029 2.715,4.281 3.158,3.576 3.858 C 3.205 4.228,2.972 4.557,2.772 4.994 C 2.526 5.532,2.480 5.795,2.480 6.649 C 2.480 7.350,2.487 7.428,2.580 7.704 C 2.955 8.822,3.791 9.796,4.841 10.338 C 5.414 10.634,5.685 10.690,6.580 10.695 C 7.394 10.700,7.588 10.669,8.331 10.416 L 8.618 10.319 9.459 11.159 L 10.300 12.000 9.460 12.839 L 8.620 13.678 8.109 13.539 L 7.598 13.400 6.628 13.400 C 5.509 13.400,5.369 13.424,4.843 13.704 C 3.675 14.324,2.941 15.165,2.594 16.280 C 2.508 16.556,2.501 16.645,2.505 17.380 C 2.511 18.252,2.545 18.460,2.765 18.978 C 3.021 19.581,3.577 20.264,4.180 20.717 C 4.551 20.996,5.171 21.294,5.640 21.419 C 5.964 21.505,6.106 21.520,6.606 21.520 C 7.112 21.520,7.239 21.506,7.546 21.419 C 8.110 21.258,8.883 20.858,9.257 20.535 C 9.814 20.053,10.314 19.356,10.554 18.728 C 10.650 18.476,10.657 18.407,10.671 17.589 C 10.688 16.626,10.659 16.387,10.442 15.745 L 10.322 15.391 13.974 11.706 C 19.935 5.690,20.260 5.341,20.309 4.907 C 20.357 4.481,20.081 4.016,19.676 3.842 C 19.404 3.725,19.020 3.724,18.783 3.838 C 18.378 4.034,17.227 5.110,14.027 8.280 L 11.994 10.294 11.158 9.457 L 10.322 8.620 10.457 8.197 C 10.721 7.367,10.828 6.310,10.704 5.752 C 10.576 5.176,10.052 4.301,9.501 3.741 C 8.986 3.218,8.375 2.832,7.860 2.703 C 7.295 2.561,6.166 2.494,5.740 2.577 M6.839 4.942 C 7.315 5.019,7.471 5.108,7.905 5.551 L 8.240 5.893 8.240 6.585 L 8.240 7.277 8.057 7.489 C 7.687 7.916,7.300 8.190,6.876 8.327 C 6.606 8.414,6.598 8.414,6.371 8.344 C 5.894 8.197,5.458 7.892,5.173 7.506 L 5.000 7.271 5.000 6.585 L 5.000 5.899 5.200 5.651 C 5.435 5.361,5.830 5.066,6.129 4.959 C 6.387 4.866,6.373 4.866,6.839 4.942 M13.974 13.595 C 13.717 13.781,13.539 14.019,13.459 14.283 C 13.323 14.733,13.462 14.991,14.351 15.944 C 15.024 16.664,17.151 18.768,17.980 19.534 C 18.729 20.226,18.844 20.297,19.199 20.292 C 19.538 20.286,19.708 20.214,19.978 19.959 C 20.223 19.726,20.320 19.507,20.320 19.181 C 20.320 18.876,20.183 18.645,19.664 18.074 C 18.724 17.040,15.768 14.144,15.216 13.717 C 15.041 13.582,14.969 13.554,14.716 13.521 C 14.239 13.459,14.149 13.468,13.974 13.595 M6.839 15.742 C 7.315 15.819,7.471 15.908,7.905 16.351 L 8.240 16.693 8.240 17.385 L 8.240 18.077 8.057 18.289 C 7.687 18.716,7.300 18.990,6.876 19.127 C 6.606 19.214,6.598 19.214,6.371 19.144 C 5.894 18.997,5.458 18.692,5.173 18.306 L 5.000 18.071 5.000 17.385 L 5.000 16.699 5.200 16.451 C 5.435 16.161,5.830 15.866,6.129 15.759 C 6.387 15.666,6.373 15.666,6.839 15.742 " fill="#373B4D" stroke="none" fill-rule="evenodd"></path></svg>