<svg width="24" height="24" viewBox="0 0 24 24" fill="none" xmlns="http://www.w3.org/2000/svg"><path d="M8.129 2.599 C 7.020 2.857,5.845 3.435,5.000 4.140 C 3.769 5.166,2.963 6.497,2.574 8.145 C 2.468 8.595,2.462 8.669,2.462 9.560 C 2.462 10.387,2.473 10.550,2.553 10.920 C 2.810 12.105,3.316 13.195,4.012 14.060 C 4.366 14.500,5.028 15.126,5.482 15.451 C 6.675 16.304,8.531 16.868,9.874 16.786 C 10.986 16.718,12.799 16.137,13.583 15.598 L 13.769 15.470 15.435 17.128 C 18.407 20.088,19.700 21.326,19.963 21.461 C 20.136 21.551,20.492 21.578,20.706 21.518 C 20.944 21.452,21.412 21.025,21.483 20.810 C 21.509 20.731,21.532 20.527,21.533 20.356 C 21.534 20.078,21.523 20.028,21.420 19.881 C 21.239 19.619,19.981 18.310,17.652 15.960 L 15.492 13.780 15.706 13.400 C 16.076 12.744,16.471 11.735,16.647 11.000 C 16.717 10.705,16.728 10.528,16.727 9.660 C 16.726 8.508,16.688 8.221,16.436 7.467 C 16.138 6.575,15.695 5.754,15.159 5.100 C 14.892 4.774,14.315 4.213,14.000 3.973 C 13.217 3.378,12.184 2.880,11.220 2.632 C 10.939 2.560,10.753 2.548,9.680 2.536 C 8.588 2.524,8.425 2.531,8.129 2.599 M10.936 5.056 C 12.406 5.498,13.516 6.566,14.129 8.127 L 14.288 8.533 14.260 9.736 L 14.232 10.940 13.957 11.473 C 13.582 12.201,13.362 12.521,12.962 12.922 C 11.974 13.913,10.747 14.404,9.400 14.347 C 8.154 14.294,7.076 13.809,6.217 12.914 C 5.875 12.558,5.688 12.286,5.368 11.680 C 4.943 10.874,4.941 10.865,4.942 9.660 C 4.942 8.805,4.955 8.571,5.012 8.344 C 5.209 7.562,5.942 6.458,6.629 5.908 C 7.124 5.512,7.801 5.174,8.453 4.997 C 8.707 4.929,8.846 4.921,9.660 4.934 C 10.519 4.948,10.603 4.956,10.936 5.056 " fill="#373B4D" stroke="none" fill-rule="evenodd"></path></svg>