<svg width="24" height="24" viewBox="0 0 24 24" fill="none" xmlns="http://www.w3.org/2000/svg"><path d="M10.940 2.521 C 10.499 2.565,9.467 2.818,8.820 3.040 C 6.915 3.694,5.179 5.040,4.048 6.740 C 3.514 7.542,3.144 8.376,2.718 9.733 L 2.480 10.492 2.480 12.062 L 2.480 13.632 2.724 14.346 C 3.057 15.322,3.372 16.114,3.588 16.520 C 4.587 18.391,6.417 20.042,8.325 20.793 C 9.887 21.407,11.238 21.632,12.720 21.524 C 13.668 21.455,14.295 21.312,15.320 20.933 C 16.999 20.312,18.557 19.125,19.701 17.594 C 20.631 16.350,21.291 14.717,21.478 13.201 C 21.532 12.764,21.532 11.198,21.478 10.759 C 21.327 9.524,20.670 7.831,19.888 6.660 C 19.369 5.883,18.413 4.896,17.611 4.310 C 17.044 3.895,15.845 3.265,15.160 3.021 C 14.685 2.851,14.011 2.689,13.412 2.601 C 12.777 2.506,11.499 2.465,10.940 2.521 M13.605 6.158 C 14.233 6.190,14.350 6.207,14.685 6.319 C 15.378 6.551,15.979 6.945,16.573 7.557 C 17.011 8.009,17.289 8.407,17.573 8.991 L 17.780 9.417 17.793 10.650 C 17.801 11.462,17.790 11.957,17.760 12.101 C 17.701 12.382,17.349 13.095,17.078 13.480 C 16.644 14.096,15.817 14.815,15.180 15.130 C 14.620 15.407,14.005 15.520,13.061 15.520 L 12.373 15.520 11.797 15.345 C 11.479 15.248,11.117 15.147,10.992 15.119 L 10.763 15.068 10.552 15.230 C 10.435 15.320,9.943 15.768,9.459 16.226 C 7.608 17.977,7.466 18.070,6.891 17.900 C 6.634 17.823,6.314 17.543,6.220 17.310 C 6.177 17.204,6.143 16.980,6.130 16.711 L 6.109 16.281 6.969 15.391 C 8.275 14.039,8.921 13.349,8.965 13.258 C 8.996 13.195,8.965 13.044,8.827 12.598 C 8.569 11.766,8.505 11.328,8.531 10.585 C 8.568 9.579,8.838 8.759,9.361 8.070 C 9.655 7.684,10.236 7.115,10.551 6.907 C 10.850 6.709,11.612 6.320,11.860 6.239 C 12.193 6.129,12.631 6.109,13.605 6.158 M12.619 8.548 C 12.459 8.569,11.946 8.853,11.651 9.084 C 11.245 9.401,10.976 9.908,10.882 10.529 C 10.829 10.875,10.849 11.101,10.965 11.476 C 11.070 11.814,11.248 12.079,11.606 12.428 C 12.165 12.975,12.609 13.146,13.378 13.112 C 13.727 13.096,13.824 13.076,14.043 12.973 C 14.577 12.721,15.127 12.182,15.340 11.700 C 15.552 11.221,15.591 10.628,15.443 10.154 C 15.205 9.395,14.371 8.667,13.620 8.561 C 13.349 8.523,12.866 8.517,12.619 8.548 " fill="#373B4D" stroke="none" fill-rule="evenodd"></path></svg>