<svg width="24" height="24" viewBox="0 0 24 24" fill="none" xmlns="http://www.w3.org/2000/svg"><path d="M8.880 2.445 C 6.546 2.680,4.400 4.102,3.286 6.152 C 2.442 7.706,2.201 9.428,2.585 11.157 C 3.422 14.918,7.101 17.368,10.877 16.680 C 11.749 16.521,12.788 16.111,13.515 15.641 L 13.769 15.476 16.695 18.388 C 18.304 19.990,19.693 21.350,19.783 21.411 C 20.431 21.850,21.384 21.443,21.566 20.650 C 21.629 20.373,21.564 20.010,21.411 19.784 C 21.350 19.694,19.990 18.304,18.388 16.695 L 15.476 13.769 15.657 13.490 C 16.106 12.795,16.503 11.794,16.683 10.900 C 16.760 10.523,16.772 10.334,16.771 9.580 C 16.769 8.577,16.719 8.244,16.438 7.390 C 15.926 5.830,14.960 4.544,13.622 3.641 C 13.200 3.356,12.365 2.946,11.875 2.783 C 10.931 2.468,9.854 2.347,8.880 2.445 M9.928 4.841 C 10.569 4.885,10.982 4.982,11.528 5.219 C 12.946 5.833,14.064 7.242,14.304 8.720 C 14.370 9.122,14.378 10.126,14.318 10.463 C 14.128 11.531,13.490 12.609,12.641 13.294 C 10.690 14.870,7.961 14.737,6.220 12.982 C 5.552 12.308,5.097 11.466,4.901 10.539 C 4.819 10.153,4.820 9.055,4.902 8.655 C 5.259 6.929,6.560 5.505,8.224 5.019 C 8.510 4.936,9.077 4.823,9.300 4.804 C 9.322 4.803,9.604 4.819,9.928 4.841 " fill="#373B4D" stroke="none" fill-rule="evenodd"></path></svg>