<svg width="24" height="24" viewBox="0 0 24 24" fill="none" xmlns="http://www.w3.org/2000/svg"><path d="M10.980 2.481 C 8.707 2.828,7.055 3.577,5.530 4.953 C 4.736 5.668,3.918 6.764,3.421 7.777 C 3.127 8.374,2.735 9.514,2.580 10.217 C 2.475 10.691,2.475 10.699,2.490 12.137 L 2.506 13.580 2.655 14.120 C 3.173 15.990,3.837 17.251,4.909 18.405 C 6.187 19.780,7.335 20.520,9.101 21.103 C 10.222 21.473,11.078 21.589,12.380 21.547 C 13.201 21.521,13.572 21.476,14.140 21.336 C 16.421 20.771,18.317 19.520,19.709 17.660 C 20.300 16.871,20.772 15.928,21.133 14.820 C 21.382 14.052,21.471 13.584,21.528 12.730 C 21.584 11.882,21.531 10.791,21.403 10.172 C 21.162 9.006,20.620 7.703,19.964 6.717 C 18.990 5.252,17.793 4.208,16.180 3.417 C 14.901 2.790,13.997 2.569,12.180 2.440 C 11.506 2.392,11.572 2.390,10.980 2.481 M14.168 6.142 C 15.052 6.268,15.921 6.777,16.746 7.654 C 17.098 8.029,17.290 8.302,17.509 8.740 C 17.840 9.403,17.920 9.813,17.918 10.840 C 17.917 11.801,17.843 12.158,17.500 12.848 C 16.815 14.229,15.601 15.189,14.180 15.476 C 13.124 15.689,12.422 15.614,11.241 15.163 L 10.740 14.972 9.651 16.043 C 8.401 17.274,7.855 17.770,7.623 17.889 C 7.418 17.993,7.008 18.003,6.786 17.907 C 6.554 17.807,6.331 17.614,6.210 17.406 C 6.112 17.240,6.099 17.173,6.086 16.778 L 6.072 16.337 6.410 15.958 C 6.596 15.750,7.266 15.053,7.899 14.409 L 9.049 13.239 8.889 12.849 C 8.527 11.974,8.407 11.338,8.455 10.560 C 8.526 9.418,8.892 8.502,9.605 7.684 C 10.015 7.214,10.470 6.858,11.034 6.567 C 11.612 6.268,12.037 6.123,12.456 6.082 C 12.861 6.042,13.658 6.070,14.168 6.142 M12.730 8.479 C 12.259 8.552,11.626 8.963,11.293 9.412 C 10.965 9.855,10.840 10.236,10.840 10.800 C 10.840 11.386,10.994 11.825,11.348 12.250 C 12.149 13.212,13.344 13.451,14.354 12.852 C 14.701 12.645,15.197 12.121,15.352 11.796 C 15.665 11.140,15.616 10.185,15.238 9.596 C 15.086 9.360,14.601 8.895,14.358 8.753 C 13.951 8.514,13.255 8.397,12.730 8.479 " fill="#373B4D" stroke="none" fill-rule="evenodd"></path></svg>