<svg width="24" height="24" viewBox="0 0 24 24" fill="none" xmlns="http://www.w3.org/2000/svg"><path d="M11.089 2.484 C 10.335 2.551,8.954 2.927,8.111 3.295 C 5.968 4.229,4.195 6.004,3.285 8.125 C 3.028 8.723,2.874 9.164,2.657 9.917 L 2.480 10.534 2.480 12.062 L 2.480 13.591 2.745 14.405 C 3.330 16.210,3.792 17.096,4.690 18.140 C 6.000 19.665,7.463 20.611,9.382 21.175 C 10.598 21.533,11.915 21.648,13.120 21.502 C 16.564 21.083,19.615 18.720,20.894 15.480 C 21.188 14.735,21.369 14.034,21.488 13.180 C 21.563 12.638,21.551 11.162,21.467 10.594 C 21.276 9.303,20.702 7.866,19.883 6.632 C 18.968 5.252,17.779 4.236,16.122 3.416 C 14.987 2.855,13.937 2.584,12.500 2.481 C 11.871 2.436,11.625 2.436,11.089 2.484 M13.754 6.123 C 14.332 6.177,14.733 6.279,15.152 6.479 C 16.407 7.080,17.445 8.278,17.790 9.528 C 17.848 9.738,17.860 9.954,17.860 10.820 C 17.860 11.800,17.855 11.877,17.766 12.160 C 17.344 13.508,16.223 14.729,14.934 15.245 C 14.488 15.424,13.986 15.517,13.320 15.546 C 12.599 15.578,12.378 15.542,11.536 15.258 C 11.182 15.138,10.847 15.040,10.792 15.040 C 10.717 15.040,10.463 15.262,9.736 15.964 C 8.157 17.490,7.787 17.810,7.484 17.914 C 7.104 18.043,6.659 17.910,6.369 17.580 C 6.171 17.356,6.132 17.232,6.096 16.715 L 6.069 16.331 6.384 15.995 C 6.558 15.811,7.227 15.117,7.872 14.453 L 9.044 13.245 8.861 12.740 C 8.595 12.006,8.518 11.658,8.492 11.060 C 8.444 9.957,8.693 9.012,9.256 8.167 C 9.475 7.837,10.117 7.183,10.467 6.934 C 10.781 6.709,11.576 6.301,11.857 6.219 C 12.301 6.090,13.018 6.054,13.754 6.123 M12.657 8.515 C 12.301 8.577,11.691 8.969,11.364 9.347 C 10.761 10.044,10.677 11.220,11.177 11.980 C 11.344 12.235,11.723 12.614,11.980 12.784 C 12.468 13.108,13.155 13.237,13.680 13.104 C 14.143 12.987,14.426 12.819,14.825 12.423 C 15.316 11.935,15.498 11.561,15.545 10.943 C 15.597 10.269,15.382 9.734,14.844 9.195 C 14.467 8.817,14.169 8.638,13.800 8.567 C 13.502 8.510,12.857 8.481,12.657 8.515 " fill="#373B4D" stroke="none" fill-rule="evenodd"></path></svg>