<svg width="24" height="24" viewBox="0 0 24 24" fill="none" xmlns="http://www.w3.org/2000/svg"><path d="M10.220 2.656 C 9.079 2.928,8.559 3.114,7.640 3.581 C 5.874 4.479,4.387 5.953,3.535 7.650 C 3.263 8.191,3.073 8.669,2.742 9.640 L 2.480 10.409 2.480 12.019 L 2.480 13.629 2.678 14.211 C 2.920 14.921,3.338 15.992,3.534 16.404 C 3.955 17.292,5.088 18.658,6.040 19.427 C 7.337 20.474,9.095 21.218,10.840 21.460 C 11.386 21.536,12.614 21.547,13.140 21.481 C 16.577 21.050,19.626 18.644,20.915 15.348 C 21.114 14.840,21.339 14.039,21.423 13.540 C 21.564 12.711,21.532 10.900,21.364 10.128 C 21.199 9.375,20.689 8.047,20.298 7.354 C 19.751 6.387,18.901 5.386,17.960 4.602 C 17.545 4.256,16.921 3.869,16.225 3.526 C 15.470 3.154,15.005 2.967,14.480 2.825 C 13.730 2.622,13.433 2.593,11.980 2.576 C 10.658 2.561,10.609 2.563,10.220 2.656 M13.860 6.205 C 14.484 6.257,14.620 6.292,15.100 6.519 C 16.079 6.982,16.956 7.863,17.574 9.004 L 17.760 9.348 17.760 10.770 L 17.760 12.191 17.507 12.691 C 17.117 13.461,16.691 14.000,16.043 14.541 C 15.215 15.234,14.528 15.467,13.200 15.508 L 12.460 15.530 11.780 15.343 C 11.406 15.240,11.019 15.146,10.920 15.134 C 10.697 15.107,10.623 15.157,9.899 15.825 C 7.828 17.737,7.554 17.957,7.232 17.959 C 7.011 17.961,6.669 17.794,6.456 17.581 C 6.223 17.348,6.182 17.222,6.141 16.600 L 6.119 16.260 7.063 15.280 C 8.307 13.990,8.919 13.320,8.944 13.218 C 8.956 13.172,8.902 12.884,8.824 12.577 C 8.618 11.757,8.560 11.369,8.560 10.805 C 8.561 9.611,8.864 8.706,9.542 7.877 C 10.002 7.315,10.537 6.894,11.240 6.542 C 12.095 6.113,12.363 6.079,13.860 6.205 M12.312 8.695 C 11.732 8.987,11.350 9.338,11.129 9.780 C 10.865 10.309,10.799 10.919,10.954 11.403 C 11.172 12.080,11.858 12.769,12.552 13.007 C 12.929 13.136,13.511 13.136,13.887 13.007 C 14.784 12.699,15.520 11.708,15.520 10.806 C 15.520 10.194,15.328 9.760,14.843 9.279 C 14.280 8.720,13.883 8.560,13.062 8.560 C 12.594 8.560,12.572 8.564,12.312 8.695 " fill="#373B4D" stroke="none" fill-rule="evenodd"></path></svg>