<svg width="24" height="24" viewBox="0 0 24 24" fill="none" xmlns="http://www.w3.org/2000/svg"><path d="M11.148 2.480 C 10.437 2.548,9.203 2.863,8.380 3.187 C 7.214 3.645,5.946 4.508,5.068 5.441 C 3.942 6.637,3.257 7.892,2.699 9.784 L 2.480 10.527 2.480 12.064 L 2.480 13.601 2.755 14.432 C 3.215 15.818,3.537 16.537,4.030 17.274 C 4.873 18.535,6.162 19.708,7.480 20.414 C 8.126 20.760,9.203 21.153,10.000 21.334 C 10.738 21.502,11.130 21.540,12.080 21.538 C 13.128 21.536,13.440 21.497,14.359 21.257 C 15.969 20.835,17.403 20.018,18.635 18.821 C 20.104 17.393,21.015 15.714,21.402 13.720 C 21.580 12.804,21.580 11.125,21.403 10.256 C 21.111 8.824,20.460 7.386,19.552 6.166 C 19.176 5.661,18.367 4.857,17.840 4.464 C 16.690 3.608,15.224 2.928,14.000 2.684 C 13.118 2.508,11.823 2.415,11.148 2.480 M14.080 6.165 C 15.452 6.349,16.865 7.464,17.544 8.897 C 17.825 9.491,17.840 9.589,17.840 10.831 C 17.840 11.900,17.838 11.933,17.737 12.232 C 17.235 13.727,15.846 15.061,14.438 15.398 C 13.724 15.570,12.694 15.602,12.220 15.467 C 12.110 15.435,11.752 15.326,11.425 15.224 C 11.098 15.121,10.798 15.048,10.758 15.061 C 10.669 15.089,10.203 15.511,9.192 16.481 C 7.871 17.748,7.586 17.959,7.195 17.960 C 6.820 17.960,6.448 17.745,6.255 17.415 C 6.170 17.270,6.143 17.152,6.108 16.781 L 6.066 16.325 6.539 15.832 C 6.800 15.562,7.470 14.868,8.030 14.292 L 9.046 13.244 8.882 12.796 C 8.538 11.858,8.436 11.168,8.517 10.336 C 8.628 9.194,8.994 8.384,9.756 7.589 C 10.272 7.051,10.553 6.845,11.243 6.503 C 11.822 6.216,12.015 6.158,12.580 6.104 C 12.815 6.081,13.734 6.119,14.080 6.165 M12.299 8.654 C 11.968 8.814,11.578 9.101,11.376 9.333 C 11.033 9.726,10.813 10.418,10.857 10.965 C 10.901 11.524,11.079 11.912,11.485 12.340 C 12.027 12.911,12.496 13.128,13.200 13.135 C 13.543 13.138,13.667 13.122,13.880 13.047 C 14.561 12.806,15.273 12.080,15.462 11.433 C 15.570 11.063,15.562 10.421,15.445 10.100 C 15.327 9.775,15.123 9.478,14.801 9.163 C 14.285 8.658,13.917 8.522,13.059 8.521 C 12.594 8.520,12.568 8.525,12.299 8.654 " fill="#373B4D" stroke="none" fill-rule="evenodd"></path></svg>