<svg width="24" height="24" viewBox="0 0 24 24" fill="none" xmlns="http://www.w3.org/2000/svg"><path d="M10.700 2.544 C 10.244 2.626,9.654 2.772,9.109 2.938 C 6.805 3.638,4.735 5.340,3.621 7.451 C 3.245 8.163,2.978 8.850,2.638 9.987 L 2.480 10.515 2.480 12.074 L 2.480 13.634 2.745 14.407 C 3.059 15.324,3.232 15.773,3.458 16.260 C 4.291 18.047,6.086 19.798,7.940 20.632 C 8.581 20.920,9.586 21.252,10.200 21.378 C 11.267 21.598,12.882 21.598,13.870 21.377 C 15.012 21.123,16.283 20.593,17.160 20.007 C 18.768 18.933,20.076 17.395,20.771 15.760 C 21.121 14.937,21.387 13.977,21.478 13.207 C 21.534 12.732,21.536 11.234,21.481 10.772 C 21.352 9.693,20.880 8.337,20.255 7.253 C 19.786 6.436,19.488 6.048,18.800 5.354 C 17.940 4.487,17.356 4.060,16.280 3.513 C 15.141 2.933,14.178 2.658,12.806 2.521 C 12.221 2.463,11.086 2.475,10.700 2.544 M14.436 6.238 C 15.687 6.550,16.935 7.629,17.556 8.933 C 17.815 9.476,17.818 9.498,17.819 10.800 C 17.820 12.139,17.823 12.122,17.479 12.820 C 17.024 13.743,16.126 14.653,15.220 15.110 C 14.623 15.411,13.976 15.538,13.060 15.535 L 12.420 15.533 11.680 15.307 C 11.273 15.182,10.888 15.081,10.824 15.080 C 10.680 15.080,10.584 15.162,9.300 16.379 C 7.764 17.835,7.551 17.988,7.116 17.949 C 6.651 17.907,6.248 17.567,6.163 17.147 C 6.140 17.033,6.116 16.794,6.110 16.615 L 6.100 16.290 7.560 14.778 C 8.363 13.946,9.018 13.237,9.014 13.203 C 9.011 13.168,8.935 12.927,8.845 12.668 C 8.438 11.499,8.394 10.440,8.707 9.360 C 8.911 8.656,9.265 8.090,9.898 7.458 C 10.350 7.006,10.621 6.816,11.263 6.499 C 11.978 6.145,12.136 6.116,13.200 6.136 C 13.940 6.151,14.160 6.169,14.436 6.238 M12.440 8.594 C 12.218 8.681,11.845 8.917,11.583 9.135 C 11.045 9.584,10.743 10.509,10.896 11.240 C 10.993 11.703,11.168 12.008,11.560 12.400 C 12.101 12.941,12.533 13.126,13.253 13.125 C 13.711 13.124,13.949 13.059,14.299 12.836 C 15.199 12.266,15.638 11.428,15.521 10.505 C 15.452 9.963,15.262 9.624,14.756 9.141 C 14.247 8.654,13.866 8.520,13.000 8.523 C 12.734 8.523,12.566 8.545,12.440 8.594 " fill="#373B4D" stroke="none" fill-rule="evenodd"></path></svg>