<svg width="24" height="24" viewBox="0 0 24 24" fill="none" xmlns="http://www.w3.org/2000/svg"><path d="M11.190 2.443 C 7.875 2.794,5.175 4.557,3.601 7.397 C 3.071 8.354,2.713 9.400,2.518 10.562 C 2.401 11.261,2.402 12.769,2.520 13.460 C 2.811 15.170,3.504 16.732,4.538 18.015 C 4.928 18.499,5.729 19.277,6.200 19.629 C 7.514 20.613,9.050 21.254,10.680 21.501 C 11.178 21.576,12.553 21.588,13.100 21.522 C 14.243 21.383,15.196 21.098,16.263 20.575 C 17.190 20.121,17.893 19.624,18.655 18.883 C 19.491 18.070,20.089 17.255,20.574 16.266 C 21.350 14.682,21.639 13.247,21.552 11.410 C 21.492 10.135,21.185 8.981,20.574 7.734 C 19.569 5.684,17.774 4.008,15.660 3.146 C 14.584 2.707,13.632 2.499,12.430 2.441 C 11.984 2.419,11.593 2.404,11.560 2.406 C 11.527 2.409,11.361 2.425,11.190 2.443 M14.040 6.084 C 14.647 6.175,15.354 6.462,15.880 6.832 C 16.217 7.068,16.874 7.709,17.119 8.040 C 17.480 8.529,17.828 9.345,17.915 9.908 C 17.940 10.066,17.960 10.500,17.960 10.873 C 17.960 11.464,17.947 11.599,17.862 11.926 C 17.580 13.003,17.025 13.870,16.190 14.539 C 15.405 15.167,14.664 15.466,13.633 15.569 C 12.802 15.652,12.045 15.525,11.206 15.161 L 10.748 14.962 9.359 16.334 C 8.596 17.088,7.887 17.761,7.786 17.828 C 7.482 18.029,7.013 18.048,6.668 17.874 C 6.460 17.768,6.232 17.531,6.124 17.308 C 6.014 17.082,5.998 16.578,6.093 16.350 C 6.168 16.171,6.455 15.862,7.895 14.412 L 9.055 13.244 8.890 12.892 C 8.377 11.799,8.277 10.695,8.583 9.522 C 8.689 9.117,8.940 8.551,9.169 8.198 C 9.503 7.683,10.186 7.016,10.690 6.713 C 11.235 6.385,12.001 6.109,12.557 6.039 C 12.855 6.002,13.651 6.026,14.040 6.084 M12.736 8.456 C 12.191 8.560,11.633 8.920,11.273 9.400 C 10.825 9.998,10.691 10.813,10.923 11.520 C 11.062 11.943,11.152 12.081,11.539 12.469 C 11.944 12.876,12.133 12.985,12.660 13.120 C 13.056 13.221,13.344 13.221,13.740 13.120 C 14.267 12.985,14.456 12.876,14.861 12.469 C 15.248 12.081,15.338 11.943,15.477 11.520 C 15.718 10.786,15.557 9.917,15.072 9.334 C 14.471 8.612,13.612 8.289,12.736 8.456 " fill="#373B4D" stroke="none" fill-rule="evenodd"></path></svg>