<svg width="24" height="24" viewBox="0 0 24 24" fill="none" xmlns="http://www.w3.org/2000/svg"><path d="M11.100 2.461 C 10.432 2.568,9.705 2.726,9.241 2.866 C 6.799 3.603,4.848 5.183,3.604 7.432 C 3.257 8.058,2.864 9.105,2.612 10.069 L 2.500 10.500 2.500 12.060 L 2.500 13.620 2.689 14.247 C 3.335 16.394,4.014 17.555,5.411 18.905 C 6.516 19.973,7.545 20.584,9.107 21.101 C 10.858 21.681,12.841 21.722,14.580 21.215 C 16.127 20.763,17.489 19.972,18.635 18.860 C 19.855 17.676,20.616 16.431,21.159 14.734 C 21.491 13.696,21.613 12.549,21.527 11.267 C 21.474 10.465,21.392 10.012,21.176 9.320 C 20.532 7.257,19.368 5.574,17.752 4.371 C 16.846 3.696,15.520 3.046,14.507 2.780 C 13.508 2.517,11.770 2.355,11.100 2.461 M13.940 6.121 C 14.453 6.179,14.837 6.294,15.277 6.521 C 16.403 7.103,17.347 8.158,17.726 9.258 C 17.943 9.890,17.983 11.352,17.802 12.054 C 17.580 12.914,16.904 13.935,16.165 14.526 C 15.291 15.226,14.308 15.571,13.180 15.574 C 12.534 15.576,12.263 15.521,11.420 15.220 C 11.134 15.117,10.860 15.024,10.810 15.012 C 10.735 14.994,10.551 15.157,9.690 16.003 C 8.440 17.232,7.845 17.771,7.623 17.879 C 7.420 17.977,6.987 17.989,6.779 17.902 C 6.562 17.812,6.376 17.651,6.239 17.438 C 6.123 17.257,6.112 17.211,6.092 16.791 L 6.070 16.340 6.299 16.080 C 6.425 15.937,7.095 15.239,7.788 14.529 L 9.048 13.239 8.866 12.785 C 8.437 11.711,8.350 10.853,8.564 9.785 C 8.865 8.287,9.924 7.032,11.443 6.374 C 11.989 6.137,12.263 6.085,12.960 6.083 C 13.301 6.081,13.742 6.099,13.940 6.121 M12.772 8.484 C 12.140 8.563,11.392 9.134,11.064 9.789 C 10.756 10.405,10.764 11.212,11.084 11.850 C 11.270 12.221,11.815 12.747,12.203 12.931 C 13.130 13.369,14.058 13.211,14.793 12.489 C 14.965 12.319,15.163 12.098,15.231 11.997 C 15.615 11.428,15.661 10.464,15.336 9.774 C 15.193 9.469,14.636 8.911,14.296 8.731 C 13.897 8.519,13.283 8.420,12.772 8.484 " fill="#373B4D" stroke="none" fill-rule="evenodd"></path></svg>