<svg width="24" height="24" viewBox="0 0 24 24" fill="none" xmlns="http://www.w3.org/2000/svg"><path d="M11.198 3.982 C 10.041 5.049,7.596 7.556,7.420 7.857 C 7.192 8.245,7.205 8.664,7.455 9.027 C 7.694 9.375,8.181 9.610,8.527 9.545 C 8.899 9.475,9.423 9.040,11.030 7.463 L 12.000 6.511 12.942 7.435 C 14.029 8.502,14.874 9.287,15.091 9.432 C 15.219 9.517,15.286 9.531,15.536 9.529 C 15.930 9.525,16.133 9.464,16.323 9.293 C 16.517 9.117,16.719 8.706,16.748 8.426 C 16.789 8.028,16.579 7.752,15.044 6.189 C 14.093 5.220,13.067 4.238,12.721 3.964 C 12.483 3.777,12.350 3.734,11.878 3.697 L 11.537 3.670 11.198 3.982 M7.851 14.604 C 7.515 14.770,7.229 15.236,7.229 15.616 C 7.229 15.878,7.319 16.054,7.664 16.460 C 8.274 17.178,10.869 19.736,11.382 20.124 C 11.642 20.321,11.928 20.389,12.223 20.323 C 12.530 20.254,12.934 19.897,14.697 18.136 C 16.268 16.566,16.647 16.144,16.718 15.890 C 16.852 15.409,16.618 14.857,16.186 14.631 C 16.055 14.562,15.931 14.541,15.599 14.528 L 15.178 14.512 14.848 14.778 C 14.476 15.079,13.844 15.674,12.753 16.755 L 12.005 17.494 11.110 16.617 C 9.584 15.122,9.027 14.634,8.771 14.562 C 8.505 14.489,8.041 14.509,7.851 14.604 " fill="#373B4D" stroke="none" fill-rule="evenodd"></path></svg>