<svg width="24" height="24" viewBox="0 0 24 24" fill="none" xmlns="http://www.w3.org/2000/svg"><path d="M11.197 3.983 C 10.990 4.156,10.198 4.918,9.439 5.678 C 7.361 7.756,7.211 7.948,7.249 8.475 C 7.271 8.784,7.367 8.995,7.586 9.214 C 7.794 9.422,8.008 9.525,8.286 9.550 C 8.818 9.598,8.995 9.468,10.753 7.738 L 12.001 6.511 13.117 7.611 C 14.422 8.896,14.959 9.384,15.180 9.485 C 15.377 9.575,15.714 9.581,15.988 9.500 C 16.390 9.381,16.716 8.925,16.751 8.433 C 16.777 8.072,16.704 7.933,16.188 7.360 C 15.671 6.786,13.595 4.706,13.082 4.249 C 12.490 3.721,12.468 3.710,11.985 3.688 L 11.574 3.670 11.197 3.983 M7.888 14.569 C 7.573 14.730,7.374 14.962,7.278 15.279 C 7.165 15.650,7.193 15.840,7.405 16.158 C 7.618 16.476,8.896 17.815,9.985 18.860 C 11.425 20.242,11.593 20.368,12.000 20.368 C 12.403 20.368,12.582 20.233,14.078 18.793 C 15.215 17.699,16.384 16.474,16.599 16.151 C 16.752 15.923,16.760 15.896,16.759 15.605 C 16.758 15.238,16.684 15.051,16.444 14.813 C 16.186 14.556,15.995 14.480,15.606 14.480 C 15.360 14.480,15.239 14.499,15.125 14.557 C 14.907 14.669,14.372 15.157,13.110 16.398 L 12.000 17.489 10.930 16.437 C 9.622 15.152,9.070 14.650,8.860 14.554 C 8.621 14.446,8.114 14.453,7.888 14.569 " fill="#373B4D" stroke="none" fill-rule="evenodd"></path></svg>