<svg width="24" height="24" viewBox="0 0 24 24" fill="none" xmlns="http://www.w3.org/2000/svg"><path d="M10.503 4.648 C 9.330 5.792,7.829 7.353,7.554 7.716 C 7.330 8.011,7.263 8.216,7.292 8.505 C 7.359 9.155,8.009 9.657,8.590 9.506 C 8.945 9.414,9.425 9.012,10.971 7.512 L 12.001 6.512 12.851 7.343 C 13.846 8.318,14.693 9.103,14.996 9.334 C 15.190 9.482,15.238 9.500,15.481 9.513 C 16.049 9.545,16.356 9.354,16.612 8.807 C 16.848 8.302,16.771 8.063,16.139 7.350 C 15.287 6.390,13.266 4.407,12.723 3.998 C 12.481 3.817,12.228 3.735,11.800 3.700 L 11.500 3.676 10.503 4.648 M8.077 14.555 C 7.549 14.667,7.139 15.317,7.276 15.827 C 7.340 16.064,7.576 16.364,8.329 17.163 C 9.063 17.943,10.810 19.635,11.234 19.978 C 11.566 20.246,11.733 20.320,12.006 20.320 C 12.305 20.320,12.473 20.222,13.020 19.731 C 13.628 19.184,15.462 17.351,16.131 16.621 C 16.568 16.144,16.652 16.032,16.705 15.848 C 16.820 15.452,16.628 14.923,16.294 14.717 C 16.151 14.628,15.655 14.524,15.364 14.521 C 15.090 14.519,14.892 14.686,13.027 16.492 L 11.994 17.493 11.387 16.894 C 9.921 15.447,9.190 14.790,8.897 14.654 C 8.675 14.552,8.304 14.507,8.077 14.555 " fill="#373B4D" stroke="none" fill-rule="evenodd"></path></svg>