<svg width="24" height="24" viewBox="0 0 24 24" fill="none" xmlns="http://www.w3.org/2000/svg"><path d="M10.915 4.250 C 10.188 4.934,8.482 6.661,7.864 7.340 C 7.367 7.885,7.265 8.069,7.268 8.420 C 7.270 8.714,7.352 8.909,7.570 9.146 C 7.898 9.502,8.351 9.639,8.697 9.486 C 9.081 9.315,9.786 8.695,11.287 7.207 L 11.995 6.506 12.927 7.420 C 14.065 8.534,14.957 9.356,15.130 9.450 C 15.284 9.534,15.766 9.545,16.013 9.471 C 16.102 9.445,16.243 9.358,16.326 9.279 C 16.504 9.109,16.708 8.696,16.745 8.430 C 16.796 8.057,16.560 7.742,15.137 6.283 C 14.182 5.304,12.899 4.087,12.647 3.920 C 12.427 3.774,12.281 3.733,11.855 3.698 L 11.531 3.671 10.915 4.250 M8.014 14.558 C 7.481 14.685,7.087 15.436,7.294 15.931 C 7.324 16.002,7.455 16.195,7.587 16.360 C 8.092 16.994,10.829 19.702,11.368 20.102 C 11.820 20.436,12.190 20.427,12.669 20.070 C 13.032 19.799,16.383 16.440,16.575 16.155 C 16.773 15.861,16.808 15.567,16.685 15.240 C 16.496 14.741,16.229 14.568,15.591 14.532 L 15.176 14.509 14.798 14.824 C 14.376 15.175,13.813 15.707,12.733 16.775 L 12.005 17.494 11.113 16.620 C 10.128 15.657,9.306 14.896,9.074 14.736 C 8.992 14.679,8.856 14.608,8.772 14.578 C 8.609 14.519,8.219 14.509,8.014 14.558 " fill="#373B4D" stroke="none" fill-rule="evenodd"></path></svg>