<svg width="24" height="24" viewBox="0 0 24 24" fill="none" xmlns="http://www.w3.org/2000/svg"><path d="M11.060 4.112 C 10.396 4.721,7.904 7.234,7.604 7.597 C 7.432 7.806,7.339 7.960,7.295 8.113 C 7.101 8.780,7.606 9.485,8.326 9.550 C 8.782 9.591,9.130 9.328,10.871 7.620 L 12.001 6.511 12.992 7.486 C 14.109 8.584,14.855 9.276,15.093 9.433 C 15.236 9.528,15.290 9.539,15.577 9.535 C 15.923 9.530,16.150 9.460,16.314 9.308 C 16.563 9.077,16.760 8.642,16.760 8.325 C 16.760 7.984,16.510 7.675,14.961 6.104 C 13.653 4.778,12.723 3.907,12.501 3.802 C 12.395 3.752,12.203 3.716,11.940 3.698 L 11.540 3.671 11.060 4.112 M8.054 14.517 C 7.707 14.604,7.397 14.927,7.274 15.329 C 7.168 15.680,7.211 15.885,7.462 16.221 C 7.747 16.601,9.118 18.025,10.089 18.946 C 11.533 20.318,11.562 20.339,11.999 20.339 C 12.352 20.339,12.368 20.331,12.880 19.906 C 13.320 19.541,16.155 16.706,16.446 16.340 C 16.716 16.001,16.777 15.833,16.750 15.496 C 16.726 15.203,16.603 14.961,16.374 14.760 C 16.147 14.561,16.009 14.520,15.564 14.520 L 15.165 14.520 14.869 14.756 C 14.530 15.025,13.881 15.637,12.772 16.735 L 12.005 17.494 11.055 16.561 C 9.841 15.370,9.102 14.699,8.900 14.603 C 8.720 14.517,8.245 14.469,8.054 14.517 " fill="#373B4D" stroke="none" fill-rule="evenodd"></path></svg>