<svg width="24" height="24" viewBox="0 0 24 24" fill="none" xmlns="http://www.w3.org/2000/svg"><path d="M11.365 3.840 C 10.979 4.145,10.094 4.993,9.044 6.063 C 7.348 7.794,7.243 7.929,7.241 8.383 C 7.240 8.744,7.337 8.984,7.584 9.225 C 7.830 9.466,8.066 9.560,8.417 9.559 C 8.887 9.557,9.019 9.454,10.792 7.702 L 12.004 6.505 12.952 7.447 C 14.302 8.788,14.947 9.386,15.149 9.484 C 15.405 9.608,15.910 9.581,16.170 9.428 C 16.658 9.142,16.914 8.418,16.685 7.969 C 16.565 7.735,15.909 7.027,14.581 5.699 C 13.277 4.396,12.695 3.862,12.460 3.755 C 12.343 3.701,12.202 3.682,11.934 3.681 L 11.567 3.680 11.365 3.840 M8.038 14.493 C 7.816 14.575,7.527 14.791,7.416 14.959 C 7.361 15.043,7.289 15.208,7.258 15.326 C 7.097 15.932,7.211 16.094,9.158 18.043 C 10.559 19.446,11.338 20.163,11.598 20.289 C 11.841 20.408,12.159 20.408,12.400 20.290 C 12.651 20.168,13.527 19.358,14.962 17.922 C 16.145 16.739,16.549 16.293,16.704 16.000 C 16.798 15.822,16.799 15.402,16.707 15.186 C 16.604 14.947,16.409 14.727,16.185 14.598 C 15.998 14.491,15.947 14.481,15.599 14.480 C 15.232 14.480,15.212 14.485,15.014 14.618 C 14.770 14.783,14.190 15.327,12.933 16.574 L 12.005 17.494 10.875 16.382 C 9.601 15.129,9.036 14.611,8.860 14.538 C 8.667 14.459,8.201 14.433,8.038 14.493 " fill="#373B4D" stroke="none" fill-rule="evenodd"></path></svg>