<svg width="24" height="24" viewBox="0 0 24 24" fill="none" xmlns="http://www.w3.org/2000/svg"><path d="M11.740 3.637 C 11.390 3.727,11.302 3.805,9.359 5.751 C 7.184 7.930,7.223 7.881,7.221 8.400 C 7.220 8.755,7.314 8.985,7.565 9.235 C 7.814 9.485,8.045 9.580,8.400 9.580 C 8.896 9.580,8.913 9.567,10.549 7.946 L 12.000 6.508 13.450 7.946 C 14.488 8.975,14.953 9.409,15.085 9.473 C 15.949 9.891,16.943 9.134,16.768 8.192 C 16.743 8.056,16.674 7.876,16.613 7.784 C 16.552 7.694,15.656 6.772,14.621 5.736 C 13.042 4.155,12.705 3.836,12.520 3.750 C 12.282 3.638,11.933 3.588,11.740 3.637 M8.133 14.437 C 7.911 14.492,7.584 14.703,7.450 14.877 C 7.201 15.201,7.134 15.709,7.296 16.048 C 7.410 16.285,8.042 16.955,9.726 18.622 C 11.419 20.299,11.481 20.350,11.915 20.389 C 12.209 20.416,12.398 20.356,12.680 20.148 C 12.941 19.955,15.525 17.403,16.205 16.666 C 16.595 16.243,16.690 16.116,16.740 15.949 C 16.905 15.392,16.676 14.838,16.168 14.568 C 15.955 14.454,15.893 14.440,15.602 14.440 C 15.074 14.440,15.097 14.423,13.330 16.176 L 12.000 17.496 10.670 16.175 C 9.347 14.862,9.089 14.625,8.860 14.510 C 8.712 14.435,8.304 14.394,8.133 14.437 " fill="#373B4D" stroke="none" fill-rule="evenodd"></path></svg>