<svg width="24" height="24" viewBox="0 0 24 24" fill="none" xmlns="http://www.w3.org/2000/svg"><path d="M11.091 4.078 C 10.507 4.602,8.191 6.916,7.787 7.379 C 7.614 7.576,7.428 7.814,7.374 7.907 C 7.240 8.136,7.212 8.442,7.298 8.739 C 7.391 9.059,7.729 9.404,8.041 9.496 C 8.719 9.698,8.900 9.573,11.127 7.366 L 11.995 6.506 13.087 7.580 C 14.233 8.707,14.834 9.262,15.097 9.436 C 15.237 9.528,15.293 9.540,15.597 9.538 C 16.001 9.536,16.178 9.462,16.417 9.198 C 16.611 8.983,16.714 8.749,16.745 8.451 C 16.794 7.985,16.690 7.850,14.863 6.005 C 13.425 4.554,12.745 3.916,12.507 3.794 C 12.396 3.737,12.241 3.710,11.947 3.695 L 11.540 3.674 11.091 4.078 M8.040 14.515 C 7.850 14.577,7.700 14.674,7.554 14.827 C 7.375 15.016,7.304 15.155,7.240 15.444 C 7.184 15.695,7.220 15.866,7.381 16.120 C 7.736 16.677,10.855 19.782,11.477 20.196 C 11.678 20.330,11.714 20.340,12.002 20.340 C 12.294 20.340,12.322 20.332,12.531 20.188 C 13.182 19.739,16.178 16.758,16.623 16.115 C 16.712 15.988,16.740 15.895,16.753 15.694 C 16.776 15.338,16.704 15.115,16.489 14.876 C 16.210 14.566,16.054 14.500,15.597 14.500 C 15.251 14.500,15.199 14.510,15.057 14.604 C 14.801 14.774,14.206 15.323,13.070 16.438 L 12.000 17.488 10.970 16.477 C 9.756 15.285,9.078 14.667,8.882 14.574 C 8.725 14.499,8.201 14.462,8.040 14.515 " fill="#373B4D" stroke="none" fill-rule="evenodd"></path></svg>