<svg width="24" height="24" viewBox="0 0 24 24" fill="none" xmlns="http://www.w3.org/2000/svg"><path d="M19.420 3.097 C 18.842 3.262,4.345 9.099,3.785 9.391 C 3.486 9.548,3.250 9.801,3.109 10.117 C 3.042 10.267,3.033 10.357,3.048 10.718 C 3.063 11.092,3.079 11.167,3.181 11.355 C 3.325 11.619,3.551 11.821,3.996 12.083 C 4.539 12.402,7.770 14.000,7.872 14.000 C 8.040 14.000,8.083 13.968,12.900 10.264 C 17.074 7.054,17.078 7.051,17.215 7.104 C 17.327 7.147,17.336 7.304,17.237 7.469 C 17.012 7.843,15.906 9.290,12.003 14.319 L 10.321 16.487 11.238 18.313 C 12.430 20.688,12.613 20.981,13.054 21.226 C 13.247 21.333,13.289 21.340,13.720 21.340 C 14.267 21.340,14.439 21.276,14.776 20.945 C 14.943 20.781,15.022 20.652,15.176 20.300 C 15.469 19.630,16.653 16.700,18.682 11.628 C 21.166 5.417,21.430 4.707,21.384 4.363 C 21.320 3.894,20.990 3.440,20.531 3.190 C 20.276 3.051,19.738 3.006,19.420 3.097 " fill="#373B4D" stroke="none" fill-rule="evenodd"></path></svg>