<svg width="24" height="24" viewBox="0 0 24 24" fill="none" xmlns="http://www.w3.org/2000/svg"><path d="M19.560 3.027 C 19.505 3.039,15.950 4.451,11.660 6.166 C 6.444 8.252,3.791 9.331,3.652 9.426 C 3.409 9.591,3.276 9.754,3.128 10.071 C 3.035 10.268,3.020 10.351,3.022 10.660 C 3.024 11.141,3.126 11.402,3.436 11.719 C 3.652 11.940,3.774 12.007,5.794 13.017 C 7.023 13.632,7.944 14.070,7.972 14.053 C 7.998 14.037,10.033 12.469,12.494 10.569 C 14.954 8.670,17.008 7.100,17.058 7.081 C 17.205 7.025,17.338 7.116,17.350 7.281 C 17.360 7.410,17.100 7.756,13.842 11.954 L 10.323 16.487 11.387 18.613 C 12.393 20.624,12.464 20.752,12.683 20.966 C 12.997 21.274,13.259 21.376,13.740 21.378 C 14.051 21.380,14.132 21.365,14.333 21.271 C 14.639 21.127,14.846 20.960,14.994 20.737 C 15.060 20.637,16.520 17.039,18.239 12.742 C 21.725 4.027,21.500 4.657,21.325 4.095 C 21.181 3.631,20.861 3.286,20.407 3.107 C 20.219 3.032,19.745 2.988,19.560 3.027 " fill="#373B4D" stroke="none" fill-rule="evenodd"></path></svg>