<svg width="24" height="24" viewBox="0 0 24 24" fill="none" xmlns="http://www.w3.org/2000/svg"><path d="M19.140 3.188 C 15.277 4.706,4.740 8.947,3.873 9.332 C 3.566 9.468,3.319 9.706,3.162 10.016 C 3.034 10.269,3.031 10.283,3.047 10.707 C 3.060 11.093,3.075 11.163,3.178 11.350 C 3.390 11.737,3.610 11.897,4.722 12.471 C 5.673 12.961,7.629 13.927,7.827 14.002 C 7.974 14.059,7.844 14.155,12.987 10.197 C 17.295 6.882,17.071 7.045,17.221 7.113 C 17.286 7.143,17.320 7.191,17.320 7.253 C 17.320 7.465,17.154 7.685,11.528 14.933 L 10.323 16.486 11.045 17.933 C 12.483 20.811,12.594 20.991,13.089 21.238 C 13.308 21.348,13.370 21.360,13.705 21.360 C 14.203 21.360,14.446 21.269,14.761 20.966 C 15.030 20.707,14.977 20.821,16.099 18.060 C 16.943 15.983,20.156 7.953,20.621 6.760 C 21.104 5.520,21.400 4.650,21.400 4.472 C 21.400 4.291,21.247 3.869,21.101 3.648 C 20.971 3.452,20.577 3.169,20.330 3.095 C 20.230 3.065,20.002 3.042,19.824 3.043 C 19.553 3.046,19.441 3.070,19.140 3.188 " fill="#373B4D" stroke="none" fill-rule="evenodd"></path></svg>