<svg width="24" height="24" viewBox="0 0 24 24" fill="none" xmlns="http://www.w3.org/2000/svg"><path d="M4.280 3.662 C 3.843 3.757,3.460 3.972,3.119 4.316 C 2.772 4.665,2.594 4.974,2.479 5.424 C 2.402 5.724,2.400 5.885,2.400 10.800 C 2.400 15.715,2.402 15.876,2.479 16.176 C 2.595 16.628,2.772 16.935,3.119 17.281 C 3.465 17.628,3.772 17.805,4.224 17.921 C 4.501 17.992,4.669 18.000,5.866 18.000 L 7.200 18.000 7.200 20.400 L 7.200 22.801 10.200 20.400 L 13.199 18.000 16.333 18.000 C 19.323 18.000,19.481 17.996,19.776 17.921 C 20.228 17.805,20.535 17.628,20.881 17.281 C 21.228 16.935,21.405 16.628,21.521 16.176 C 21.598 15.876,21.600 15.715,21.600 10.800 C 21.600 5.885,21.598 5.724,21.521 5.424 C 21.406 4.974,21.228 4.665,20.881 4.316 C 20.534 3.967,20.154 3.755,19.700 3.660 C 19.291 3.574,4.679 3.576,4.280 3.662 " fill="#414146" stroke="none" fill-rule="evenodd"></path></svg>