<svg width="24" height="24" viewBox="0 0 24 24" fill="none" xmlns="http://www.w3.org/2000/svg"><path d="M19.580 3.028 C 19.199 3.127,4.269 9.122,3.755 9.382 C 3.498 9.513,3.303 9.722,3.150 10.034 C 3.033 10.273,3.023 10.323,3.028 10.657 C 3.032 10.872,3.060 11.092,3.098 11.196 C 3.191 11.456,3.428 11.745,3.700 11.928 C 3.959 12.103,7.712 13.981,7.884 14.021 C 7.974 14.042,8.273 13.825,10.204 12.336 C 16.691 7.333,17.025 7.080,17.142 7.080 C 17.200 7.080,17.264 7.119,17.303 7.179 C 17.420 7.358,17.679 7.010,11.668 14.754 L 10.322 16.487 11.318 18.475 C 11.866 19.568,12.386 20.570,12.474 20.701 C 12.655 20.971,12.943 21.209,13.204 21.302 C 13.484 21.403,14.055 21.396,14.294 21.288 C 14.586 21.157,14.870 20.932,14.978 20.746 C 15.103 20.531,16.150 17.958,18.479 12.140 C 21.144 5.483,21.401 4.803,21.399 4.431 C 21.398 4.231,21.223 3.798,21.056 3.578 C 20.920 3.400,20.529 3.135,20.323 3.083 C 20.134 3.035,19.681 3.002,19.580 3.028 " fill="#373B4D" stroke="none" fill-rule="evenodd"></path></svg>