<svg width="24" height="24" viewBox="0 0 24 24" fill="none" xmlns="http://www.w3.org/2000/svg"><path d="M8.457 3.758 L 3.933 3.780 3.758 3.900 C 3.662 3.966,3.410 4.191,3.198 4.401 C 2.686 4.907,2.530 5.209,2.478 5.784 C 2.433 6.285,2.433 8.051,2.477 8.586 C 2.505 8.918,2.534 9.037,2.637 9.246 C 2.891 9.760,3.454 10.328,4.020 10.643 L 4.300 10.799 12.003 10.799 L 19.705 10.800 20.060 10.590 C 20.299 10.449,20.541 10.256,20.801 10.000 C 21.508 9.305,21.535 9.203,21.538 7.300 C 21.540 5.789,21.501 5.358,21.335 5.029 C 21.213 4.789,20.693 4.257,20.276 3.946 L 19.973 3.720 16.476 3.728 C 14.553 3.733,10.944 3.746,8.457 3.758 M18.502 6.242 C 18.651 6.297,18.851 6.495,18.923 6.659 C 18.962 6.747,19.016 7.015,19.043 7.252 L 19.092 7.685 18.936 7.844 C 18.685 8.102,18.402 8.276,18.189 8.305 C 17.729 8.368,17.205 8.084,17.053 7.689 C 16.946 7.411,16.954 6.836,17.068 6.619 C 17.190 6.387,17.348 6.245,17.514 6.218 C 17.595 6.205,17.687 6.189,17.720 6.181 C 17.811 6.160,18.409 6.207,18.502 6.242 M9.837 13.358 L 3.973 13.380 3.737 13.536 C 3.457 13.721,2.966 14.186,2.782 14.440 C 2.584 14.713,2.523 14.954,2.474 15.640 C 2.419 16.431,2.453 18.215,2.530 18.520 C 2.630 18.920,2.827 19.231,3.238 19.640 C 3.515 19.915,3.714 20.072,3.960 20.210 L 4.300 20.400 8.720 20.400 C 13.587 20.399,19.030 20.339,19.560 20.280 C 20.059 20.223,20.322 20.080,20.800 19.604 C 21.033 19.371,21.263 19.094,21.382 18.901 L 21.580 18.581 21.591 16.925 C 21.604 14.991,21.608 15.018,21.245 14.533 C 20.991 14.195,20.499 13.700,20.184 13.466 L 19.988 13.320 17.844 13.328 C 16.665 13.332,13.061 13.346,9.837 13.358 M18.605 15.901 C 18.848 16.072,19.030 16.325,19.062 16.537 C 19.104 16.817,19.013 17.252,18.866 17.470 C 18.621 17.835,18.077 17.998,17.623 17.843 C 17.403 17.768,17.145 17.515,17.037 17.269 C 16.911 16.984,16.907 16.530,17.029 16.300 C 17.114 16.139,17.351 15.890,17.500 15.805 C 17.550 15.776,17.740 15.763,18.007 15.769 C 18.409 15.779,18.443 15.787,18.605 15.901 " fill="#373B4D" stroke="none" fill-rule="evenodd"></path></svg>