<svg width="24" height="24" viewBox="0 0 24 24" fill="none" xmlns="http://www.w3.org/2000/svg"><path d="M7.477 3.759 L 3.933 3.780 3.773 3.891 C 3.504 4.078,2.995 4.567,2.812 4.815 C 2.709 4.955,2.603 5.165,2.550 5.335 C 2.463 5.610,2.460 5.675,2.460 7.200 C 2.460 8.651,2.466 8.799,2.537 9.014 C 2.736 9.622,3.413 10.346,4.109 10.695 L 4.317 10.800 12.005 10.800 L 19.693 10.800 19.954 10.657 C 20.296 10.469,20.604 10.228,20.903 9.915 C 21.449 9.344,21.516 9.134,21.546 7.906 C 21.577 6.602,21.516 5.454,21.399 5.144 C 21.288 4.852,20.838 4.366,20.320 3.980 L 19.971 3.720 15.495 3.729 C 13.034 3.733,9.425 3.747,7.477 3.759 M18.629 6.304 C 18.900 6.469,18.989 6.667,19.047 7.240 L 19.093 7.696 18.825 7.945 C 18.676 8.084,18.477 8.225,18.378 8.263 C 17.988 8.412,17.390 8.234,17.161 7.902 C 16.900 7.522,16.888 6.844,17.135 6.487 C 17.325 6.214,17.490 6.158,18.049 6.176 C 18.397 6.186,18.459 6.200,18.629 6.304 M9.700 13.358 L 3.980 13.380 3.800 13.487 C 3.397 13.725,2.771 14.362,2.638 14.668 C 2.503 14.978,2.471 15.289,2.451 16.500 C 2.429 17.818,2.469 18.429,2.599 18.758 C 2.834 19.354,3.412 19.942,4.109 20.294 L 4.317 20.400 8.609 20.400 C 13.472 20.399,19.147 20.338,19.610 20.281 C 20.035 20.228,20.296 20.094,20.683 19.730 C 21.050 19.385,21.312 19.060,21.471 18.753 L 21.580 18.544 21.592 16.895 C 21.601 15.796,21.590 15.193,21.561 15.085 C 21.459 14.705,20.833 13.953,20.264 13.527 L 19.988 13.320 17.704 13.328 C 16.448 13.332,12.846 13.346,9.700 13.358 M18.564 15.866 C 18.796 15.992,18.976 16.209,19.048 16.450 C 19.120 16.692,19.042 17.232,18.905 17.440 C 18.588 17.919,17.945 18.050,17.420 17.742 C 16.987 17.488,16.795 16.780,17.027 16.290 C 17.130 16.073,17.401 15.818,17.583 15.767 C 17.670 15.743,17.878 15.730,18.047 15.738 C 18.292 15.749,18.397 15.775,18.564 15.866 " fill="#373B4D" stroke="none" fill-rule="evenodd"></path></svg>