<svg width="24" height="24" viewBox="0 0 24 24" fill="none" xmlns="http://www.w3.org/2000/svg"><path d="M4.275 3.757 C 3.955 3.778,3.912 3.792,3.700 3.938 C 3.388 4.153,2.878 4.659,2.747 4.883 C 2.689 4.984,2.601 5.173,2.552 5.303 C 2.469 5.528,2.464 5.614,2.449 7.031 C 2.440 7.911,2.450 8.627,2.474 8.779 C 2.582 9.470,3.209 10.220,4.046 10.660 L 4.312 10.800 11.997 10.800 L 19.683 10.800 19.891 10.695 C 20.533 10.370,21.144 9.786,21.381 9.270 C 21.434 9.153,21.496 8.932,21.518 8.779 C 21.567 8.441,21.570 6.583,21.522 5.851 C 21.493 5.389,21.473 5.289,21.370 5.068 C 21.214 4.734,20.841 4.341,20.354 3.996 L 19.965 3.720 12.293 3.727 C 8.073 3.731,4.465 3.744,4.275 3.757 M18.581 6.260 C 18.956 6.475,19.019 6.609,19.064 7.273 L 19.092 7.685 18.896 7.888 C 18.788 7.999,18.620 8.142,18.522 8.205 C 18.366 8.306,18.308 8.320,18.042 8.319 C 17.562 8.318,17.255 8.141,17.056 7.751 C 16.973 7.588,16.960 7.507,16.960 7.149 C 16.960 6.762,16.967 6.724,17.075 6.554 C 17.296 6.206,17.512 6.114,18.040 6.146 C 18.336 6.163,18.456 6.189,18.581 6.260 M8.940 13.358 L 3.980 13.380 3.792 13.490 C 3.360 13.744,2.911 14.174,2.704 14.532 C 2.521 14.847,2.479 15.096,2.442 16.067 C 2.395 17.333,2.444 18.345,2.572 18.711 C 2.792 19.344,3.338 19.903,4.129 20.305 L 4.340 20.412 11.300 20.386 C 18.432 20.359,19.678 20.336,19.999 20.221 C 20.468 20.054,21.197 19.318,21.515 18.692 C 21.598 18.527,21.600 18.480,21.600 16.820 L 21.600 15.117 21.495 14.909 C 21.249 14.418,20.750 13.857,20.242 13.501 L 19.984 13.320 16.942 13.328 C 15.269 13.333,11.668 13.346,8.940 13.358 M18.522 15.822 C 18.765 15.944,19.028 16.234,19.062 16.419 C 19.077 16.499,19.082 16.717,19.072 16.903 C 19.056 17.217,19.043 17.256,18.897 17.468 C 18.707 17.744,18.474 17.877,18.129 17.909 C 17.640 17.953,17.291 17.778,17.050 17.367 C 16.966 17.223,16.942 17.121,16.928 16.859 C 16.907 16.469,16.951 16.311,17.143 16.087 C 17.428 15.754,17.635 15.673,18.100 15.712 C 18.233 15.723,18.421 15.772,18.522 15.822 " fill="#373B4D" stroke="none" fill-rule="evenodd"></path></svg>