<svg width="24" height="24" viewBox="0 0 24 24" fill="none" xmlns="http://www.w3.org/2000/svg"><path d="M6.958 3.716 L 4.017 3.740 3.779 3.880 C 3.649 3.957,3.376 4.182,3.173 4.381 C 2.876 4.672,2.777 4.800,2.661 5.043 C 2.583 5.209,2.501 5.452,2.479 5.582 C 2.427 5.902,2.430 8.649,2.483 8.880 C 2.641 9.568,3.277 10.278,4.109 10.695 L 4.317 10.800 12.003 10.800 L 19.688 10.800 19.997 10.639 C 20.565 10.344,21.159 9.764,21.386 9.284 C 21.546 8.944,21.569 8.628,21.549 7.020 C 21.534 5.798,21.519 5.498,21.464 5.300 C 21.334 4.834,20.950 4.389,20.307 3.957 L 19.955 3.720 16.784 3.720 C 15.040 3.720,12.778 3.714,11.757 3.706 C 10.735 3.698,8.576 3.703,6.958 3.716 M18.674 6.311 C 18.982 6.519,19.033 6.637,19.066 7.214 L 19.093 7.685 18.818 7.962 C 18.508 8.274,18.376 8.335,18.010 8.332 C 17.570 8.329,17.229 8.128,17.053 7.770 C 16.953 7.566,16.940 7.497,16.941 7.160 C 16.942 6.849,16.958 6.750,17.029 6.616 C 17.134 6.418,17.362 6.210,17.511 6.177 C 17.571 6.164,17.638 6.146,17.660 6.137 C 17.682 6.128,17.868 6.129,18.074 6.140 C 18.427 6.157,18.461 6.167,18.674 6.311 M8.280 13.358 L 3.980 13.380 3.780 13.496 C 3.127 13.877,2.648 14.437,2.520 14.968 C 2.448 15.269,2.400 16.786,2.436 17.646 C 2.464 18.311,2.486 18.503,2.555 18.697 C 2.789 19.358,3.308 19.891,4.109 20.295 L 4.317 20.400 8.749 20.397 C 11.186 20.395,14.629 20.379,16.400 20.361 C 19.964 20.325,19.898 20.330,20.303 20.062 C 20.764 19.758,21.247 19.222,21.484 18.751 L 21.600 18.522 21.600 16.820 L 21.600 15.117 21.494 14.909 C 21.219 14.364,20.806 13.893,20.284 13.527 L 19.987 13.320 16.284 13.328 C 14.247 13.333,10.645 13.346,8.280 13.358 M18.419 15.760 C 18.626 15.838,18.921 16.086,19.010 16.254 C 19.130 16.482,19.132 17.017,19.014 17.280 C 18.819 17.712,18.495 17.920,18.020 17.918 C 17.530 17.915,17.257 17.761,17.048 17.368 C 16.931 17.149,16.920 17.097,16.920 16.764 C 16.920 16.447,16.933 16.379,17.016 16.249 C 17.146 16.046,17.391 15.817,17.560 15.741 C 17.716 15.670,18.213 15.681,18.419 15.760 " fill="#373B4D" stroke="none" fill-rule="evenodd"></path></svg>