<svg width="24" height="24" viewBox="0 0 24 24" fill="none" xmlns="http://www.w3.org/2000/svg"><path d="M5.900 3.759 L 3.940 3.780 3.762 3.895 C 3.665 3.959,3.407 4.183,3.190 4.394 C 2.685 4.883,2.532 5.171,2.478 5.731 C 2.429 6.235,2.431 8.538,2.480 8.805 C 2.603 9.470,3.258 10.246,4.044 10.659 L 4.312 10.800 11.997 10.800 L 19.682 10.800 19.911 10.684 C 20.231 10.523,20.577 10.260,20.874 9.953 C 21.208 9.607,21.343 9.398,21.451 9.060 C 21.537 8.790,21.540 8.726,21.538 7.200 C 21.536 5.473,21.519 5.309,21.292 4.924 C 21.148 4.678,20.727 4.267,20.314 3.969 L 19.968 3.720 13.914 3.729 C 10.584 3.734,6.978 3.747,5.900 3.759 M18.520 6.243 C 18.907 6.419,18.991 6.571,19.051 7.210 L 19.096 7.693 18.807 7.964 C 18.469 8.281,18.330 8.337,17.954 8.310 C 17.610 8.286,17.347 8.156,17.171 7.926 C 16.999 7.699,16.950 7.496,16.966 7.062 C 16.979 6.728,16.990 6.685,17.112 6.510 C 17.309 6.226,17.458 6.164,17.940 6.163 C 18.258 6.162,18.377 6.178,18.520 6.243 M9.398 13.358 L 3.977 13.380 3.741 13.520 C 3.403 13.720,2.799 14.327,2.668 14.600 C 2.514 14.917,2.479 15.156,2.446 16.120 C 2.410 17.156,2.451 18.248,2.539 18.577 C 2.716 19.238,3.313 19.892,4.109 20.294 L 4.317 20.400 8.529 20.398 C 13.564 20.396,19.173 20.338,19.627 20.284 C 20.010 20.237,20.239 20.132,20.567 19.852 C 21.006 19.479,21.475 18.869,21.559 18.564 C 21.583 18.479,21.600 17.748,21.600 16.768 C 21.600 15.159,21.598 15.112,21.514 14.948 C 21.266 14.459,20.813 13.936,20.311 13.558 L 19.995 13.320 17.408 13.328 C 15.984 13.333,12.380 13.346,9.398 13.358 M18.408 15.782 C 18.650 15.865,18.892 16.077,19.002 16.304 C 19.079 16.463,19.088 16.533,19.071 16.835 C 19.049 17.215,18.988 17.378,18.786 17.594 C 18.295 18.115,17.364 17.981,17.046 17.343 C 16.909 17.070,16.882 16.597,16.989 16.355 C 17.097 16.112,17.306 15.883,17.500 15.795 C 17.702 15.703,18.157 15.696,18.408 15.782 " fill="#373B4D" stroke="none" fill-rule="evenodd"></path></svg>