<svg width="24" height="24" viewBox="0 0 24 24" fill="none" xmlns="http://www.w3.org/2000/svg"><path d="M5.120 3.639 C 4.223 3.662,4.169 3.667,3.933 3.767 C 3.271 4.048,2.736 4.622,2.517 5.285 C 2.421 5.578,2.420 5.593,2.420 7.200 C 2.420 8.807,2.421 8.822,2.517 9.115 C 2.751 9.825,3.375 10.449,4.085 10.683 L 4.380 10.780 12.000 10.780 L 19.620 10.780 19.915 10.683 C 20.625 10.449,21.249 9.825,21.483 9.115 C 21.579 8.822,21.580 8.807,21.580 7.200 C 21.580 5.409,21.575 5.368,21.309 4.867 C 21.078 4.431,20.469 3.907,19.994 3.737 C 19.872 3.693,19.562 3.664,18.960 3.639 C 18.028 3.600,6.657 3.600,5.120 3.639 M18.549 6.165 C 18.976 6.369,19.160 6.689,19.160 7.228 C 19.160 7.463,19.140 7.563,19.060 7.720 C 18.932 7.973,18.716 8.188,18.484 8.294 C 18.215 8.417,17.767 8.413,17.506 8.284 C 16.765 7.920,16.587 6.933,17.160 6.360 C 17.524 5.996,18.042 5.923,18.549 6.165 M6.380 13.237 C 4.009 13.263,4.158 13.247,3.645 13.521 C 3.383 13.660,2.995 14.015,2.812 14.282 C 2.443 14.820,2.384 15.246,2.411 17.160 C 2.427 18.259,2.440 18.491,2.499 18.660 C 2.792 19.503,3.325 20.026,4.189 20.316 L 4.437 20.400 11.989 20.400 C 20.019 20.399,19.597 20.409,20.080 20.217 C 20.503 20.050,20.963 19.665,21.219 19.263 C 21.291 19.152,21.400 18.925,21.463 18.760 L 21.577 18.460 21.577 16.800 L 21.578 15.140 21.464 14.840 C 21.313 14.445,21.137 14.176,20.838 13.884 C 20.598 13.651,20.142 13.378,19.840 13.288 C 19.675 13.239,9.747 13.202,6.380 13.237 M18.214 15.639 C 18.541 15.692,18.814 15.877,19.006 16.174 C 19.158 16.409,19.160 16.418,19.160 16.800 C 19.160 17.182,19.158 17.191,19.006 17.424 C 18.742 17.828,18.475 17.977,18.016 17.976 C 17.481 17.975,17.149 17.766,16.932 17.293 C 16.716 16.824,16.781 16.398,17.126 16.021 C 17.346 15.780,17.497 15.682,17.720 15.637 C 17.923 15.596,17.956 15.597,18.214 15.639 " fill="#373B4D" stroke="none" fill-rule="evenodd"></path></svg>