<svg width="24" height="24" viewBox="0 0 24 24" fill="none" xmlns="http://www.w3.org/2000/svg"><path d="M6.820 3.678 L 4.100 3.700 3.800 3.858 C 3.404 4.067,2.862 4.597,2.685 4.950 C 2.436 5.444,2.420 5.580,2.422 7.220 C 2.423 8.493,2.433 8.736,2.492 8.955 C 2.686 9.675,3.235 10.274,4.054 10.663 L 4.343 10.801 12.021 10.790 L 19.700 10.780 20.100 10.581 C 20.428 10.419,20.558 10.325,20.823 10.061 C 21.001 9.885,21.212 9.630,21.292 9.496 C 21.558 9.053,21.574 8.922,21.572 7.300 C 21.570 5.720,21.537 5.340,21.374 5.005 C 21.185 4.616,20.583 4.055,20.080 3.798 L 19.900 3.706 16.640 3.676 C 13.137 3.644,11.096 3.645,6.820 3.678 M18.375 6.137 C 18.605 6.206,18.807 6.355,18.963 6.570 C 19.077 6.727,19.080 6.746,19.080 7.202 L 19.080 7.673 18.926 7.868 C 18.606 8.272,18.376 8.384,17.938 8.350 C 17.313 8.300,16.920 7.888,16.886 7.248 C 16.850 6.562,17.278 6.080,17.921 6.080 C 18.068 6.080,18.272 6.105,18.375 6.137 M4.220 13.357 C 3.805 13.393,3.470 13.602,2.972 14.136 C 2.488 14.654,2.421 14.979,2.421 16.840 C 2.420 18.298,2.448 18.552,2.657 18.989 C 2.919 19.534,3.343 19.923,4.041 20.258 L 4.338 20.400 9.859 20.396 C 12.895 20.393,16.370 20.379,17.580 20.364 C 19.733 20.337,19.785 20.334,19.995 20.247 C 20.308 20.116,20.540 19.947,20.901 19.583 C 21.154 19.329,21.260 19.184,21.401 18.900 L 21.580 18.540 21.580 16.820 L 21.580 15.100 21.388 14.714 C 21.145 14.225,20.832 13.878,20.348 13.559 L 19.986 13.320 12.243 13.326 C 7.984 13.330,4.374 13.344,4.220 13.357 M18.459 15.738 C 18.621 15.807,18.934 16.089,19.041 16.262 C 19.118 16.386,19.126 16.447,19.114 16.816 C 19.100 17.222,19.097 17.235,18.946 17.453 C 18.654 17.878,18.281 18.023,17.740 17.924 C 17.276 17.839,16.970 17.493,16.879 16.951 C 16.799 16.481,16.954 16.148,17.410 15.803 C 17.628 15.639,18.149 15.606,18.459 15.738 " fill="#373B4D" stroke="none" fill-rule="evenodd"></path></svg>