<svg width="24" height="24" viewBox="0 0 24 24" fill="none" xmlns="http://www.w3.org/2000/svg"><path d="M5.520 3.679 L 4.100 3.700 3.845 3.830 C 3.235 4.143,2.749 4.670,2.557 5.229 C 2.429 5.601,2.389 6.224,2.410 7.528 C 2.426 8.483,2.444 8.791,2.496 8.980 C 2.691 9.689,3.186 10.243,3.960 10.616 L 4.300 10.780 11.952 10.790 L 19.604 10.801 19.901 10.677 C 20.512 10.423,20.926 10.078,21.255 9.550 C 21.566 9.050,21.579 8.961,21.577 7.240 C 21.574 5.296,21.540 5.114,21.074 4.572 C 20.827 4.284,20.501 4.021,20.184 3.853 L 19.900 3.703 17.740 3.675 C 15.321 3.643,7.700 3.646,5.520 3.679 M18.361 6.122 C 18.600 6.183,18.865 6.379,18.986 6.587 C 19.092 6.766,19.100 6.810,19.100 7.205 L 19.100 7.630 18.943 7.858 C 18.723 8.177,18.496 8.325,18.185 8.350 C 17.647 8.393,17.256 8.212,17.034 7.817 C 16.797 7.394,16.798 6.928,17.038 6.550 C 17.316 6.112,17.758 5.969,18.361 6.122 M6.140 13.317 L 4.020 13.340 3.819 13.446 C 3.403 13.666,2.938 14.085,2.711 14.444 C 2.499 14.782,2.399 15.530,2.401 16.780 C 2.403 18.342,2.464 18.729,2.786 19.232 C 3.050 19.645,3.374 19.926,3.861 20.165 L 4.300 20.380 11.920 20.378 C 18.976 20.376,19.559 20.370,19.796 20.307 C 20.170 20.207,20.420 20.057,20.774 19.720 C 21.145 19.367,21.281 19.181,21.451 18.789 L 21.576 18.500 21.591 16.855 L 21.606 15.209 21.480 14.906 C 21.216 14.272,20.852 13.846,20.291 13.512 L 19.980 13.327 14.120 13.311 C 10.897 13.302,7.306 13.305,6.140 13.317 M18.501 15.750 C 18.666 15.835,18.987 16.149,19.084 16.322 C 19.119 16.386,19.138 16.547,19.137 16.780 C 19.135 17.070,19.118 17.173,19.047 17.309 C 18.912 17.569,18.736 17.746,18.495 17.864 C 18.293 17.963,18.249 17.970,17.940 17.948 C 17.543 17.920,17.350 17.834,17.146 17.597 C 16.979 17.401,16.885 17.152,16.853 16.815 C 16.833 16.608,16.845 16.538,16.929 16.355 C 17.081 16.026,17.350 15.783,17.680 15.675 C 17.856 15.617,18.326 15.660,18.501 15.750 " fill="#373B4D" stroke="none" fill-rule="evenodd"></path></svg>