<svg width="24" height="24" viewBox="0 0 24 24" fill="none" xmlns="http://www.w3.org/2000/svg"><path d="M17.220 2.520 C 16.980 2.557,16.690 2.669,16.262 2.892 C 16.019 3.018,15.850 3.151,15.539 3.458 C 15.316 3.679,15.076 3.945,15.005 4.049 C 14.691 4.513,14.448 5.320,14.412 6.023 L 14.389 6.466 11.455 7.933 L 8.521 9.399 8.211 9.196 C 7.806 8.931,7.162 8.619,6.862 8.541 C 6.590 8.472,5.791 8.460,5.333 8.520 C 4.287 8.656,3.278 9.463,2.693 10.634 L 2.460 11.100 2.447 11.820 C 2.432 12.647,2.467 12.890,2.664 13.315 C 3.099 14.259,3.833 14.965,4.838 15.406 L 5.215 15.571 5.978 15.549 C 6.613 15.530,6.783 15.512,6.998 15.440 C 7.357 15.319,7.843 15.069,8.212 14.816 L 8.524 14.602 11.462 16.071 L 14.400 17.540 14.401 17.780 C 14.404 18.308,14.527 18.931,14.721 19.402 C 15.153 20.451,16.337 21.387,17.406 21.524 C 17.771 21.571,18.625 21.542,18.920 21.472 C 19.421 21.353,20.020 20.987,20.503 20.503 C 21.090 19.916,21.445 19.242,21.526 18.565 C 21.576 18.140,21.536 17.270,21.453 16.988 C 21.206 16.146,20.366 15.197,19.500 14.781 C 18.969 14.526,18.820 14.500,17.900 14.502 L 17.100 14.505 16.600 14.750 C 16.325 14.886,15.957 15.085,15.781 15.194 L 15.462 15.391 12.531 13.926 L 9.600 12.460 9.600 12.000 L 9.600 11.540 12.538 10.071 L 15.476 8.602 15.788 8.817 C 16.158 9.071,16.639 9.319,17.000 9.441 C 17.218 9.514,17.382 9.532,18.011 9.550 L 18.762 9.572 19.111 9.418 C 20.201 8.938,20.964 8.204,21.359 7.256 C 21.460 7.014,21.492 6.862,21.524 6.487 C 21.592 5.672,21.524 5.106,21.300 4.615 C 21.024 4.011,20.466 3.366,19.886 2.983 C 19.399 2.661,19.073 2.556,18.440 2.517 C 17.803 2.478,17.493 2.479,17.220 2.520 " fill="#373B4D" stroke="none" fill-rule="evenodd"></path></svg>