<svg width="24" height="24" viewBox="0 0 24 24" fill="none" xmlns="http://www.w3.org/2000/svg"><path d="M17.184 2.600 C 16.557 2.679,15.489 3.417,15.054 4.072 C 14.750 4.530,14.459 5.454,14.414 6.103 L 14.389 6.466 11.453 7.933 L 8.518 9.401 8.073 9.158 C 7.827 9.024,7.454 8.834,7.243 8.735 L 6.860 8.555 5.900 8.582 L 4.940 8.608 4.600 8.789 C 3.766 9.232,3.201 9.804,2.587 10.825 C 2.441 11.068,2.440 11.075,2.440 11.508 C 2.440 12.133,2.513 12.772,2.623 13.123 C 2.756 13.542,2.975 13.862,3.474 14.361 C 3.966 14.854,4.381 15.175,4.817 15.401 C 5.088 15.541,5.157 15.560,5.400 15.560 C 5.851 15.560,6.684 15.480,6.915 15.416 C 7.178 15.341,7.927 14.987,8.279 14.770 L 8.539 14.610 11.464 16.072 L 14.389 17.534 14.413 17.897 C 14.440 18.303,14.576 18.885,14.742 19.303 C 14.907 19.719,15.160 20.083,15.571 20.493 C 16.355 21.276,17.098 21.564,18.183 21.505 C 18.858 21.468,19.455 21.290,19.829 21.014 C 20.575 20.465,21.135 19.738,21.379 19.002 C 21.502 18.630,21.546 17.989,21.487 17.433 C 21.417 16.779,21.187 16.325,20.626 15.734 C 20.039 15.116,19.421 14.723,18.914 14.643 C 18.774 14.621,18.308 14.583,17.879 14.557 L 17.097 14.512 16.359 14.892 C 15.952 15.101,15.581 15.284,15.533 15.298 C 15.413 15.333,14.984 15.134,12.073 13.692 L 9.600 12.467 9.600 12.003 L 9.600 11.540 12.530 10.075 L 15.460 8.610 15.805 8.819 C 16.638 9.321,17.254 9.514,18.140 9.548 C 18.716 9.570,18.750 9.567,18.989 9.471 C 19.610 9.220,20.644 8.364,21.037 7.776 C 21.276 7.419,21.391 7.125,21.464 6.680 C 21.556 6.122,21.530 5.490,21.394 4.960 C 21.281 4.523,20.956 4.038,20.452 3.556 C 19.857 2.988,19.387 2.711,18.899 2.643 C 18.483 2.585,17.498 2.560,17.184 2.600 " fill="#373B4D" stroke="none" fill-rule="evenodd"></path></svg>