<svg width="24" height="24" viewBox="0 0 24 24" fill="none" xmlns="http://www.w3.org/2000/svg"><path d="M17.270 2.523 C 17.009 2.562,16.523 2.747,16.202 2.930 C 15.912 3.096,15.114 3.874,14.940 4.160 C 14.664 4.614,14.400 5.610,14.400 6.195 L 14.400 6.460 11.462 7.929 L 8.523 9.398 8.192 9.192 C 7.799 8.948,7.230 8.676,6.898 8.573 C 6.581 8.476,5.564 8.475,5.121 8.573 C 4.765 8.652,4.318 8.858,3.983 9.096 C 3.474 9.460,2.899 10.174,2.589 10.828 L 2.460 11.100 2.460 11.880 C 2.460 12.723,2.489 12.919,2.681 13.345 C 2.843 13.707,3.093 14.058,3.454 14.430 C 3.822 14.810,4.208 15.088,4.732 15.353 L 5.100 15.540 5.840 15.538 C 6.322 15.537,6.657 15.517,6.800 15.482 C 7.164 15.392,7.634 15.176,8.099 14.884 L 8.538 14.609 11.464 16.072 L 14.389 17.534 14.414 17.957 C 14.476 19.019,14.822 19.832,15.496 20.503 C 15.938 20.943,16.382 21.218,16.988 21.427 C 17.282 21.528,17.340 21.534,17.980 21.530 C 18.528 21.526,18.721 21.509,18.977 21.442 C 19.914 21.198,20.971 20.199,21.362 19.188 C 21.558 18.682,21.605 17.819,21.474 17.120 C 21.320 16.298,20.412 15.240,19.466 14.780 C 19.010 14.559,18.774 14.522,17.803 14.521 L 17.067 14.520 16.456 14.838 C 16.120 15.013,15.760 15.210,15.655 15.275 L 15.466 15.393 12.533 13.927 L 9.600 12.460 9.600 12.000 L 9.600 11.540 12.533 10.073 L 15.466 8.607 15.803 8.827 C 16.227 9.103,16.788 9.378,17.100 9.461 C 17.255 9.502,17.597 9.533,18.064 9.548 L 18.787 9.572 19.244 9.350 C 20.374 8.803,21.207 7.888,21.462 6.916 C 21.553 6.565,21.553 5.445,21.461 5.100 C 21.384 4.810,21.171 4.350,20.995 4.090 C 20.690 3.643,20.080 3.090,19.597 2.825 C 19.260 2.640,18.977 2.573,18.322 2.522 C 17.720 2.475,17.599 2.475,17.270 2.523 " fill="#373B4D" stroke="none" fill-rule="evenodd"></path></svg>