<svg width="24" height="24" viewBox="0 0 24 24" fill="none" xmlns="http://www.w3.org/2000/svg"><path d="M17.041 2.584 C 16.208 2.808,15.236 3.606,14.860 4.375 C 14.582 4.943,14.400 5.685,14.400 6.253 L 14.400 6.460 11.463 7.928 L 8.526 9.397 8.113 9.158 C 7.886 9.027,7.502 8.834,7.260 8.730 L 6.820 8.540 6.020 8.543 C 5.104 8.548,4.954 8.577,4.399 8.863 C 3.832 9.155,3.363 9.605,2.901 10.300 C 2.784 10.476,2.630 10.737,2.559 10.880 L 2.429 11.140 2.452 11.920 C 2.478 12.775,2.519 13.002,2.725 13.410 C 3.117 14.187,3.774 14.829,4.697 15.337 L 5.093 15.556 5.857 15.534 C 6.311 15.522,6.717 15.490,6.858 15.455 C 7.141 15.387,7.868 15.039,8.257 14.787 L 8.535 14.607 11.462 16.071 L 14.389 17.534 14.414 17.937 C 14.444 18.412,14.592 19.055,14.754 19.412 C 15.092 20.158,15.736 20.828,16.468 21.195 C 17.036 21.480,17.201 21.520,17.795 21.520 C 18.504 21.519,18.942 21.467,19.241 21.346 C 20.248 20.939,21.172 19.896,21.445 18.860 C 21.556 18.435,21.568 17.516,21.466 17.104 C 21.292 16.395,20.733 15.646,19.980 15.111 C 19.315 14.640,19.044 14.564,17.915 14.532 L 17.090 14.509 16.575 14.781 C 16.292 14.930,15.939 15.121,15.790 15.204 C 15.550 15.339,15.506 15.351,15.390 15.315 C 15.319 15.293,13.987 14.642,12.430 13.869 L 9.600 12.462 9.600 12.001 L 9.600 11.540 12.535 10.073 L 15.469 8.605 15.679 8.747 C 16.070 9.010,16.784 9.359,17.104 9.443 C 17.341 9.506,17.596 9.532,18.125 9.549 L 18.831 9.571 19.245 9.349 C 20.267 8.800,20.930 8.159,21.285 7.375 C 21.467 6.973,21.519 6.683,21.519 6.060 C 21.518 5.356,21.480 5.090,21.324 4.716 C 21.151 4.299,20.949 4.010,20.558 3.615 C 20.001 3.052,19.537 2.744,19.100 2.647 C 18.485 2.510,17.436 2.478,17.041 2.584 " fill="#373B4D" stroke="none" fill-rule="evenodd"></path></svg>