<svg width="24" height="24" viewBox="0 0 24 24" fill="none" xmlns="http://www.w3.org/2000/svg"><path d="M17.080 2.542 C 16.756 2.633,16.291 2.842,16.031 3.014 C 15.906 3.098,15.621 3.356,15.400 3.588 C 15.065 3.939,14.967 4.072,14.820 4.375 C 14.562 4.910,14.403 5.602,14.401 6.200 L 14.400 6.460 11.460 7.930 L 8.520 9.400 8.253 9.216 C 7.928 8.994,7.298 8.674,6.966 8.562 C 6.761 8.493,6.622 8.480,6.080 8.480 C 5.301 8.480,4.945 8.544,4.504 8.764 C 3.658 9.186,3.023 9.865,2.618 10.784 L 2.460 11.140 2.447 11.909 C 2.432 12.800,2.450 12.894,2.758 13.507 C 3.192 14.370,3.841 14.967,4.809 15.394 L 5.140 15.540 5.921 15.539 C 6.669 15.538,6.717 15.533,7.051 15.424 C 7.414 15.306,7.940 15.026,8.305 14.756 L 8.518 14.599 11.453 16.067 L 14.388 17.534 14.413 17.999 C 14.456 18.796,14.676 19.486,15.056 20.016 C 15.545 20.696,16.239 21.207,17.002 21.446 C 17.268 21.530,17.375 21.540,18.000 21.539 C 18.797 21.537,19.013 21.495,19.516 21.242 C 20.412 20.791,21.154 19.929,21.446 18.999 C 21.530 18.731,21.540 18.626,21.539 17.980 C 21.537 17.405,21.523 17.212,21.465 17.022 C 21.094 15.794,19.834 14.655,18.691 14.514 C 18.498 14.490,18.058 14.479,17.712 14.490 L 17.084 14.509 16.552 14.770 C 16.259 14.913,15.895 15.112,15.743 15.211 L 15.465 15.393 12.533 13.926 L 9.600 12.460 9.600 12.000 L 9.600 11.540 12.541 10.069 L 15.482 8.599 15.695 8.756 C 16.051 9.019,16.577 9.302,16.928 9.418 C 17.228 9.518,17.332 9.531,18.001 9.550 L 18.743 9.571 19.087 9.431 C 19.599 9.222,20.048 8.938,20.426 8.585 C 20.933 8.111,21.294 7.551,21.463 6.978 C 21.562 6.644,21.565 5.412,21.469 5.051 C 21.324 4.510,20.956 3.920,20.474 3.457 C 20.013 3.014,19.610 2.762,19.100 2.600 C 18.861 2.523,18.709 2.508,18.060 2.495 C 17.462 2.483,17.253 2.493,17.080 2.542 " fill="#373B4D" stroke="none" fill-rule="evenodd"></path></svg>