<svg width="24" height="24" viewBox="0 0 24 24" fill="none" xmlns="http://www.w3.org/2000/svg"><path d="M17.311 2.519 C 16.558 2.655,15.900 3.061,15.224 3.804 C 14.793 4.279,14.459 5.208,14.411 6.063 L 14.389 6.466 11.454 7.933 L 8.518 9.401 8.289 9.254 C 7.922 9.019,7.045 8.607,6.804 8.557 C 6.662 8.527,6.322 8.517,5.861 8.529 C 5.179 8.547,5.122 8.555,4.815 8.669 C 4.636 8.736,4.358 8.868,4.197 8.962 C 3.651 9.281,3.010 10.014,2.625 10.760 L 2.429 11.140 2.452 11.940 C 2.471 12.643,2.486 12.778,2.573 13.051 C 2.842 13.896,3.611 14.738,4.627 15.300 L 5.060 15.540 5.856 15.532 C 6.540 15.525,6.693 15.512,6.934 15.438 C 7.254 15.341,7.848 15.048,8.258 14.786 L 8.536 14.608 11.468 16.074 L 14.400 17.540 14.400 17.760 C 14.401 18.091,14.502 18.700,14.617 19.060 C 14.963 20.141,15.833 21.018,16.945 21.406 L 17.294 21.528 18.077 21.510 C 18.944 21.490,19.076 21.461,19.597 21.175 C 20.365 20.753,21.104 19.903,21.367 19.138 C 21.594 18.481,21.607 17.463,21.398 16.854 C 21.163 16.170,20.479 15.387,19.720 14.931 C 19.145 14.586,18.823 14.520,17.721 14.520 L 17.060 14.520 16.346 14.901 C 15.953 15.110,15.595 15.307,15.550 15.338 C 15.476 15.390,15.230 15.275,12.535 13.928 L 9.600 12.460 9.600 12.000 L 9.600 11.540 12.534 10.073 L 15.468 8.606 15.584 8.685 C 15.909 8.906,16.458 9.208,16.762 9.334 C 17.152 9.495,17.617 9.560,18.379 9.560 L 18.829 9.560 19.253 9.344 C 20.203 8.862,20.897 8.202,21.256 7.440 C 21.497 6.929,21.531 6.726,21.512 5.883 C 21.495 5.162,21.491 5.131,21.368 4.820 C 21.162 4.298,20.970 4.011,20.540 3.579 C 20.083 3.120,19.613 2.792,19.249 2.680 C 18.814 2.545,17.684 2.451,17.311 2.519 " fill="#373B4D" stroke="none" fill-rule="evenodd"></path></svg>