<svg width="24" height="24" viewBox="0 0 24 24" fill="none" xmlns="http://www.w3.org/2000/svg"><path d="M16.947 2.620 C 16.621 2.744,16.066 3.065,15.765 3.303 C 15.400 3.592,15.098 3.948,14.902 4.322 C 14.626 4.846,14.400 5.709,14.400 6.235 L 14.400 6.460 11.458 7.931 L 8.517 9.402 8.229 9.234 C 8.071 9.141,7.698 8.949,7.401 8.808 L 6.860 8.550 5.917 8.572 L 4.975 8.594 4.652 8.752 C 4.184 8.980,3.899 9.180,3.558 9.520 C 3.187 9.888,2.906 10.263,2.635 10.754 L 2.428 11.127 2.452 11.854 C 2.479 12.642,2.510 12.862,2.640 13.210 C 2.927 13.977,3.956 14.991,4.929 15.464 L 5.159 15.576 5.949 15.530 C 6.439 15.501,6.823 15.458,6.959 15.417 C 7.207 15.343,7.990 14.957,8.318 14.747 L 8.535 14.608 11.462 16.071 L 14.389 17.534 14.416 17.909 C 14.508 19.227,15.045 20.212,16.060 20.929 C 16.660 21.353,17.013 21.481,17.660 21.509 C 18.973 21.566,19.667 21.304,20.491 20.442 C 20.920 19.992,21.195 19.557,21.370 19.053 C 21.478 18.740,21.494 18.635,21.511 18.116 C 21.541 17.225,21.430 16.776,21.040 16.199 C 20.646 15.616,19.788 14.902,19.259 14.716 C 18.962 14.612,18.622 14.570,17.800 14.539 L 17.100 14.512 16.303 14.923 L 15.506 15.334 15.303 15.263 C 15.191 15.224,13.863 14.579,12.350 13.829 L 9.600 12.466 9.600 12.003 L 9.600 11.540 12.534 10.073 L 15.468 8.606 15.644 8.726 C 15.965 8.946,16.923 9.394,17.216 9.462 C 17.385 9.501,17.769 9.536,18.166 9.550 L 18.832 9.571 19.146 9.402 C 19.698 9.105,20.130 8.791,20.523 8.400 C 21.329 7.599,21.553 7.007,21.508 5.797 C 21.476 4.921,21.307 4.477,20.782 3.878 C 20.208 3.225,19.628 2.805,19.096 2.656 C 18.758 2.562,17.168 2.535,16.947 2.620 " fill="#373B4D" stroke="none" fill-rule="evenodd"></path></svg>