<svg width="24" height="24" viewBox="0 0 24 24" fill="none" xmlns="http://www.w3.org/2000/svg"><path d="M17.135 2.599 C 16.954 2.620,16.799 2.676,16.535 2.818 C 15.851 3.187,15.372 3.592,15.046 4.081 C 14.741 4.538,14.453 5.456,14.412 6.103 L 14.389 6.466 11.452 7.934 L 8.514 9.403 8.167 9.204 C 7.976 9.095,7.604 8.904,7.340 8.779 L 6.860 8.552 5.903 8.579 L 4.947 8.606 4.663 8.747 C 3.821 9.169,3.188 9.793,2.640 10.740 L 2.432 11.100 2.455 11.860 C 2.494 13.184,2.679 13.609,3.605 14.501 C 4.025 14.906,4.357 15.154,4.800 15.396 C 5.064 15.539,5.132 15.559,5.362 15.559 C 5.723 15.560,6.661 15.483,6.880 15.435 C 7.089 15.389,8.000 14.954,8.318 14.748 L 8.535 14.608 11.468 16.074 L 14.400 17.540 14.400 17.720 C 14.401 18.307,14.638 19.198,14.932 19.717 C 15.126 20.059,15.611 20.591,15.995 20.881 C 16.659 21.384,17.218 21.546,18.160 21.507 C 19.024 21.471,19.549 21.278,20.129 20.783 C 20.750 20.252,21.173 19.643,21.407 18.940 C 21.491 18.687,21.500 18.590,21.498 17.940 C 21.496 17.265,21.489 17.199,21.387 16.891 C 21.136 16.137,20.297 15.234,19.460 14.819 C 19.094 14.637,18.941 14.611,17.940 14.556 L 17.100 14.510 16.316 14.915 C 15.885 15.138,15.507 15.320,15.476 15.320 C 15.387 15.320,14.489 14.890,11.959 13.635 L 9.600 12.466 9.600 12.003 L 9.600 11.540 12.532 10.074 L 15.465 8.608 15.682 8.747 C 15.983 8.939,16.433 9.163,16.860 9.332 C 17.260 9.491,17.738 9.560,18.445 9.560 C 18.902 9.560,19.019 9.515,19.660 9.089 C 20.503 8.529,21.124 7.836,21.342 7.211 C 21.571 6.551,21.578 5.535,21.358 4.822 C 21.141 4.120,20.098 3.062,19.292 2.726 C 18.975 2.594,17.789 2.524,17.135 2.599 " fill="#373B4D" stroke="none" fill-rule="evenodd"></path></svg>