<svg width="24" height="24" viewBox="0 0 24 24" fill="none" xmlns="http://www.w3.org/2000/svg"><path d="M11.280 2.905 C 9.423 4.228,8.140 4.885,6.454 5.374 C 5.745 5.580,5.143 5.707,3.866 5.919 C 2.551 6.137,2.577 6.126,2.517 6.504 C 2.451 6.919,2.425 9.004,2.477 9.680 C 2.613 11.453,3.275 13.614,4.185 15.262 C 4.548 15.919,5.207 16.902,5.600 17.370 C 6.025 17.879,7.511 19.368,7.907 19.683 C 8.918 20.486,10.720 21.514,11.683 21.838 C 11.937 21.923,11.954 21.924,12.196 21.861 C 12.992 21.655,14.668 20.747,15.736 19.943 C 16.789 19.151,18.079 17.831,18.886 16.720 C 20.223 14.878,21.128 12.604,21.467 10.236 C 21.524 9.839,21.538 9.468,21.538 8.380 C 21.538 7.047,21.498 6.451,21.393 6.220 C 21.341 6.107,21.296 6.096,20.160 5.919 C 16.947 5.420,15.260 4.734,12.640 2.861 C 12.387 2.680,12.135 2.504,12.080 2.469 C 11.982 2.407,11.968 2.414,11.280 2.905 M16.179 8.657 C 16.533 8.866,16.641 9.085,16.670 9.662 L 16.691 10.064 16.270 10.522 C 15.509 11.349,11.708 15.102,11.440 15.290 C 10.810 15.732,10.494 15.648,9.560 14.793 C 8.805 14.102,7.551 12.774,7.426 12.532 C 7.356 12.396,7.299 11.824,7.336 11.626 C 7.370 11.445,7.668 11.112,7.894 11.003 C 8.080 10.913,8.454 10.893,8.733 10.957 C 8.992 11.017,9.279 11.245,10.213 12.131 L 10.807 12.693 11.873 11.634 C 13.362 10.157,14.358 9.194,14.780 8.825 L 15.140 8.510 15.579 8.536 C 15.938 8.558,16.046 8.580,16.179 8.657 " fill="#373B4D" stroke="none" fill-rule="evenodd"></path></svg>