<svg width="24" height="24" viewBox="0 0 24 24" fill="none" xmlns="http://www.w3.org/2000/svg"><path d="M11.440 2.786 C 10.788 3.288,9.805 3.950,9.260 4.255 C 8.184 4.856,6.505 5.450,5.063 5.741 C 4.778 5.798,4.148 5.889,3.663 5.942 C 3.177 5.996,2.741 6.049,2.693 6.060 C 2.576 6.087,2.531 6.242,2.475 6.820 C 2.413 7.471,2.411 9.272,2.473 9.833 C 2.620 11.171,2.998 12.657,3.507 13.900 C 4.015 15.141,4.944 16.668,5.787 17.648 C 6.223 18.155,7.492 19.386,7.920 19.717 C 8.931 20.499,10.411 21.360,11.398 21.741 C 11.924 21.944,12.001 21.949,12.442 21.802 C 13.316 21.511,15.202 20.434,16.067 19.734 C 16.464 19.412,17.313 18.591,17.912 17.950 C 19.533 16.215,20.754 13.825,21.278 11.360 C 21.508 10.278,21.529 10.073,21.549 8.772 C 21.575 7.117,21.492 6.114,21.327 6.062 C 21.290 6.051,20.914 6.005,20.492 5.960 C 19.517 5.857,18.942 5.758,18.147 5.555 C 16.056 5.021,14.551 4.294,12.780 2.960 C 12.382 2.660,12.039 2.404,12.018 2.392 C 11.997 2.380,11.737 2.557,11.440 2.786 M15.960 8.525 C 16.216 8.581,16.490 8.794,16.605 9.027 C 16.680 9.180,16.703 9.299,16.713 9.600 C 16.726 9.967,16.723 9.985,16.608 10.143 C 16.376 10.462,15.518 11.362,13.880 13.004 C 12.166 14.721,11.496 15.347,11.220 15.489 C 10.970 15.618,10.596 15.607,10.333 15.463 C 10.064 15.317,8.822 14.151,8.090 13.358 C 7.306 12.509,7.303 12.504,7.286 12.103 C 7.279 11.924,7.293 11.702,7.317 11.610 C 7.381 11.374,7.585 11.128,7.832 10.989 C 8.016 10.886,8.087 10.869,8.372 10.865 C 8.870 10.858,9.019 10.959,10.203 12.109 L 10.805 12.694 12.153 11.355 C 14.585 8.937,15.022 8.532,15.250 8.481 C 15.396 8.448,15.691 8.466,15.960 8.525 " fill="#373B4D" stroke="none" fill-rule="evenodd"></path></svg>