<svg width="24" height="24" viewBox="0 0 24 24" fill="none" xmlns="http://www.w3.org/2000/svg"><path d="M11.420 2.805 C 9.718 4.029,8.737 4.582,7.429 5.056 C 6.308 5.462,5.382 5.686,3.860 5.918 C 2.673 6.100,2.650 6.106,2.579 6.242 C 2.499 6.397,2.441 7.277,2.441 8.364 C 2.440 9.751,2.523 10.532,2.783 11.593 C 3.307 13.728,4.144 15.484,5.453 17.200 C 5.841 17.707,7.524 19.405,7.981 19.748 C 9.078 20.573,10.742 21.521,11.618 21.819 C 11.931 21.926,11.939 21.927,12.190 21.865 C 12.955 21.676,14.655 20.759,15.741 19.949 C 16.754 19.193,18.149 17.762,18.904 16.703 C 19.755 15.510,20.359 14.326,20.821 12.940 C 21.475 10.981,21.657 9.479,21.521 7.156 C 21.480 6.450,21.425 6.176,21.313 6.116 C 21.271 6.094,20.864 6.022,20.409 5.956 C 18.472 5.675,17.146 5.330,15.820 4.762 C 14.912 4.373,13.856 3.737,12.510 2.767 C 12.229 2.565,11.995 2.401,11.990 2.401 C 11.984 2.402,11.728 2.584,11.420 2.805 M16.213 8.667 C 16.581 8.927,16.673 9.145,16.678 9.767 L 16.680 10.074 16.295 10.501 C 15.774 11.077,12.120 14.729,11.731 15.062 C 11.318 15.414,11.129 15.521,10.867 15.548 C 10.471 15.589,10.183 15.402,9.237 14.491 C 8.600 13.878,7.580 12.790,7.451 12.586 C 7.366 12.451,7.348 12.364,7.330 12.017 C 7.311 11.647,7.317 11.594,7.395 11.469 C 7.502 11.294,7.808 11.010,7.943 10.959 C 8.107 10.897,8.709 10.911,8.856 10.981 C 9.067 11.081,9.502 11.447,10.173 12.088 L 10.807 12.693 11.913 11.594 C 13.430 10.089,14.353 9.197,14.780 8.824 L 15.140 8.510 15.597 8.532 C 16.015 8.552,16.066 8.564,16.213 8.667 " fill="#373B4D" stroke="none" fill-rule="evenodd"></path></svg>