<svg width="24" height="24" viewBox="0 0 24 24" fill="none" xmlns="http://www.w3.org/2000/svg"><path d="M11.098 3.033 C 9.147 4.355,7.969 4.942,6.359 5.395 C 5.666 5.590,5.332 5.662,4.020 5.898 C 2.889 6.103,2.762 6.133,2.638 6.234 C 2.512 6.335,2.486 6.550,2.456 7.700 C 2.400 9.856,2.577 11.110,3.198 12.962 C 3.695 14.442,4.211 15.446,5.174 16.804 C 5.526 17.303,6.604 18.455,7.480 19.270 C 7.927 19.686,8.257 19.952,8.660 20.220 C 9.708 20.916,10.961 21.587,11.643 21.817 L 11.980 21.931 12.358 21.803 C 13.076 21.562,14.198 20.975,15.160 20.340 C 16.324 19.570,17.801 18.152,18.742 16.898 C 20.014 15.205,20.956 13.028,21.356 10.860 C 21.514 10.003,21.538 9.658,21.533 8.340 C 21.529 7.064,21.489 6.472,21.396 6.268 C 21.334 6.132,21.293 6.121,20.024 5.896 C 16.739 5.314,15.442 4.794,12.891 3.036 C 12.446 2.729,12.058 2.469,12.029 2.458 C 12.000 2.447,11.581 2.706,11.098 3.033 M12.638 7.499 C 12.838 7.637,12.951 7.853,12.997 8.184 C 13.038 8.474,13.099 9.847,13.144 11.462 L 13.170 12.424 12.895 12.673 C 12.577 12.962,12.212 13.160,12.000 13.160 C 11.789 13.160,11.424 12.962,11.110 12.678 L 10.840 12.434 10.840 10.221 L 10.840 8.009 11.090 7.742 C 11.415 7.395,11.532 7.352,12.075 7.377 C 12.438 7.394,12.509 7.409,12.638 7.499 M12.414 15.803 C 12.612 15.858,12.901 16.125,12.967 16.313 C 12.996 16.396,13.019 16.639,13.019 16.867 C 13.019 17.256,13.014 17.282,12.898 17.446 C 12.642 17.811,12.211 17.981,11.773 17.889 C 11.476 17.827,11.271 17.679,11.099 17.405 C 10.963 17.187,10.960 17.174,10.960 16.757 C 10.960 16.334,10.961 16.330,11.097 16.153 C 11.223 15.987,11.373 15.859,11.520 15.793 C 11.616 15.749,12.246 15.757,12.414 15.803 " fill="#373B4D" stroke="none" fill-rule="evenodd"></path></svg>