<svg width="24" height="24" viewBox="0 0 24 24" fill="none" xmlns="http://www.w3.org/2000/svg"><path d="M11.153 2.997 C 10.098 3.756,9.412 4.181,8.660 4.543 C 7.194 5.250,5.595 5.700,3.700 5.939 C 2.720 6.062,2.629 6.086,2.562 6.230 C 2.484 6.401,2.429 7.773,2.453 8.980 C 2.478 10.200,2.538 10.633,2.861 11.900 C 3.600 14.800,5.107 17.238,7.420 19.277 C 7.973 19.765,8.213 19.947,8.861 20.370 C 9.996 21.112,11.359 21.801,11.885 21.900 C 12.459 22.008,15.206 20.511,16.380 19.449 C 17.029 18.863,18.091 17.762,18.493 17.260 C 19.173 16.409,19.813 15.372,20.259 14.400 C 20.811 13.197,21.300 11.556,21.464 10.361 C 21.593 9.417,21.571 6.767,21.430 6.282 C 21.367 6.066,21.411 6.080,20.320 5.941 C 19.297 5.810,18.441 5.642,17.640 5.412 C 15.777 4.879,14.438 4.189,12.540 2.786 C 12.254 2.574,12.011 2.401,12.000 2.402 C 11.989 2.402,11.608 2.670,11.153 2.997 M16.042 8.561 C 16.235 8.612,16.495 8.843,16.596 9.053 C 16.665 9.194,16.680 9.301,16.680 9.644 L 16.680 10.063 16.353 10.442 C 15.941 10.917,12.960 13.923,12.088 14.743 C 11.681 15.124,11.358 15.394,11.230 15.458 C 10.969 15.587,10.636 15.596,10.390 15.480 C 9.947 15.272,7.590 12.931,7.374 12.486 C 7.286 12.303,7.275 11.673,7.358 11.520 C 7.469 11.313,7.654 11.115,7.834 11.009 C 8.000 10.912,8.059 10.900,8.380 10.900 C 8.671 10.901,8.770 10.917,8.900 10.986 C 9.117 11.103,9.581 11.504,10.246 12.151 L 10.799 12.689 12.390 11.118 C 14.162 9.367,14.961 8.616,15.140 8.533 C 15.269 8.474,15.773 8.489,16.042 8.561 " fill="#373B4D" stroke="none" fill-rule="evenodd"></path></svg>