<svg width="24" height="24" viewBox="0 0 24 24" fill="none" xmlns="http://www.w3.org/2000/svg"><path d="M11.560 2.703 C 10.236 3.777,8.955 4.514,7.414 5.092 C 6.101 5.584,4.539 5.911,3.138 5.986 C 2.735 6.007,2.629 6.025,2.601 6.077 C 2.503 6.262,2.422 7.287,2.421 8.360 C 2.421 9.508,2.450 9.870,2.622 10.875 C 3.324 14.956,5.784 18.550,9.363 20.723 C 10.275 21.276,11.708 21.935,12.000 21.935 C 12.283 21.935,13.658 21.310,14.560 20.771 C 15.767 20.051,16.781 19.224,17.789 18.140 C 20.321 15.418,21.707 11.708,21.586 7.980 C 21.561 7.199,21.462 6.196,21.399 6.079 C 21.371 6.025,21.272 6.008,20.872 5.987 C 18.840 5.883,16.617 5.265,14.840 4.311 C 13.977 3.848,13.332 3.417,12.475 2.732 C 12.220 2.527,12.004 2.361,11.995 2.362 C 11.987 2.362,11.791 2.516,11.560 2.703 M12.503 7.338 C 12.741 7.445,12.965 7.663,13.079 7.898 C 13.157 8.060,13.160 8.137,13.160 10.197 L 13.160 12.329 13.032 12.568 C 12.573 13.430,11.393 13.396,10.931 12.509 L 10.823 12.300 10.821 10.200 L 10.820 8.100 10.918 7.902 C 11.220 7.294,11.880 7.059,12.503 7.338 M12.549 15.763 C 12.978 15.971,13.160 16.290,13.160 16.832 C 13.160 17.089,13.143 17.161,13.032 17.368 C 12.572 18.231,11.349 18.182,10.914 17.283 C 10.785 17.017,10.787 16.572,10.918 16.303 C 11.224 15.674,11.902 15.450,12.549 15.763 " fill="#373B4D" stroke="none" fill-rule="evenodd"></path></svg>