<svg width="24" height="24" viewBox="0 0 24 24" fill="none" xmlns="http://www.w3.org/2000/svg"><path d="M11.653 2.652 C 11.481 2.769,11.055 3.059,10.707 3.297 C 9.172 4.344,7.918 4.955,6.440 5.376 C 5.724 5.580,5.203 5.692,4.000 5.898 C 2.808 6.102,2.635 6.152,2.562 6.311 C 2.415 6.635,2.409 9.432,2.554 10.381 C 2.824 12.145,3.489 14.082,4.302 15.466 C 4.613 15.995,5.171 16.828,5.479 17.220 C 5.617 17.396,6.219 18.027,6.815 18.622 C 7.729 19.533,7.977 19.756,8.390 20.042 C 9.450 20.774,10.930 21.584,11.641 21.820 L 11.966 21.929 12.370 21.801 C 13.089 21.573,14.483 20.824,15.456 20.143 C 16.308 19.547,17.504 18.415,18.336 17.420 C 19.643 15.855,20.664 13.801,21.179 11.700 C 21.507 10.366,21.597 9.274,21.526 7.503 C 21.483 6.417,21.446 6.212,21.280 6.134 C 21.225 6.109,20.685 6.005,20.080 5.903 C 16.800 5.355,15.358 4.770,12.722 2.918 C 12.348 2.655,12.024 2.440,12.003 2.440 C 11.982 2.440,11.824 2.536,11.653 2.652 M16.054 8.605 C 16.252 8.657,16.527 8.931,16.589 9.140 C 16.616 9.228,16.649 9.474,16.664 9.686 L 16.691 10.072 16.150 10.647 C 15.476 11.364,12.192 14.616,11.689 15.064 C 10.797 15.859,10.500 15.756,8.820 14.063 C 7.908 13.144,7.452 12.623,7.399 12.436 C 7.379 12.365,7.351 12.153,7.337 11.964 C 7.313 11.624,7.314 11.618,7.443 11.425 C 7.696 11.048,8.022 10.894,8.486 10.933 C 8.929 10.969,9.119 11.102,10.213 12.134 L 10.805 12.694 11.853 11.655 C 13.317 10.202,14.272 9.279,14.739 8.865 L 15.138 8.510 15.519 8.537 C 15.729 8.552,15.969 8.583,16.054 8.605 " fill="#373B4D" stroke="none" fill-rule="evenodd"></path></svg>