<svg width="24" height="24" viewBox="0 0 24 24" fill="none" xmlns="http://www.w3.org/2000/svg"><path d="M11.395 2.824 C 9.960 3.884,8.990 4.457,7.923 4.877 C 6.375 5.487,5.136 5.786,3.340 5.982 C 3.010 6.018,2.701 6.072,2.654 6.102 C 2.493 6.204,2.460 6.581,2.460 8.340 C 2.460 9.920,2.461 9.948,2.573 10.580 C 2.958 12.748,3.603 14.431,4.724 16.192 C 5.457 17.343,6.354 18.353,7.650 19.485 C 8.575 20.294,10.593 21.482,11.620 21.822 C 11.915 21.921,11.956 21.925,12.160 21.879 C 12.919 21.711,14.873 20.651,15.960 19.818 C 16.269 19.581,17.190 18.704,17.743 18.120 C 19.640 16.116,20.836 13.715,21.399 10.780 C 21.523 10.133,21.573 9.142,21.546 7.860 C 21.522 6.724,21.466 6.205,21.357 6.105 C 21.322 6.072,20.952 6.012,20.380 5.946 C 19.312 5.822,18.547 5.675,17.679 5.426 C 15.714 4.861,14.382 4.171,12.444 2.713 C 12.215 2.541,12.015 2.400,11.999 2.400 C 11.982 2.400,11.711 2.591,11.395 2.824 M12.626 7.446 C 12.728 7.520,12.865 7.647,12.931 7.728 C 13.092 7.927,13.106 8.106,13.142 10.458 L 13.172 12.358 12.997 12.583 C 12.667 13.012,12.237 13.239,11.862 13.182 C 11.604 13.144,11.290 12.933,11.052 12.640 L 10.842 12.380 10.841 10.208 L 10.840 8.037 10.996 7.825 C 11.336 7.365,11.522 7.271,12.050 7.295 C 12.415 7.311,12.452 7.321,12.626 7.446 M12.541 15.791 C 12.890 15.971,13.070 16.265,13.108 16.717 C 13.165 17.402,12.746 17.904,12.080 17.950 C 11.394 17.997,10.876 17.498,10.876 16.790 C 10.876 16.629,10.896 16.444,10.920 16.378 C 11.030 16.087,11.312 15.807,11.585 15.719 C 11.784 15.655,12.361 15.698,12.541 15.791 " fill="#373B4D" stroke="none" fill-rule="evenodd"></path></svg>