<svg width="24" height="24" viewBox="0 0 24 24" fill="none" xmlns="http://www.w3.org/2000/svg"><path d="M11.420 2.806 C 9.532 4.161,8.633 4.652,7.072 5.183 C 6.044 5.532,5.173 5.728,3.725 5.937 C 3.196 6.013,2.726 6.095,2.680 6.120 C 2.634 6.145,2.578 6.212,2.556 6.270 C 2.453 6.542,2.406 8.698,2.481 9.740 C 2.527 10.375,2.595 10.807,2.760 11.500 C 3.311 13.811,4.211 15.659,5.674 17.480 C 6.056 17.955,7.209 19.114,7.740 19.556 C 8.709 20.362,10.648 21.495,11.616 21.820 C 11.896 21.914,11.950 21.920,12.133 21.881 C 12.762 21.746,13.991 21.125,15.180 20.342 C 16.111 19.729,16.700 19.211,17.779 18.057 C 18.410 17.382,18.650 17.086,19.093 16.434 C 20.077 14.985,20.696 13.596,21.177 11.758 C 21.492 10.550,21.587 9.542,21.544 7.860 C 21.516 6.769,21.472 6.315,21.383 6.178 C 21.316 6.076,21.309 6.075,20.300 5.939 C 18.047 5.637,16.240 5.077,14.678 4.197 C 14.137 3.892,13.216 3.284,12.515 2.770 C 12.238 2.567,12.004 2.401,11.996 2.402 C 11.987 2.403,11.728 2.585,11.420 2.806 M16.222 8.661 C 16.343 8.736,16.464 8.857,16.539 8.978 C 16.651 9.160,16.661 9.205,16.673 9.617 L 16.686 10.060 16.353 10.440 C 15.890 10.969,12.183 14.679,11.723 15.074 C 11.275 15.458,11.139 15.530,10.820 15.551 C 10.506 15.572,10.299 15.462,9.768 14.992 C 9.195 14.484,7.686 12.937,7.500 12.664 C 7.345 12.438,7.340 12.418,7.326 12.054 C 7.318 11.846,7.322 11.635,7.335 11.585 C 7.370 11.446,7.610 11.163,7.801 11.035 C 7.961 10.927,7.997 10.920,8.378 10.920 C 8.756 10.920,8.797 10.928,8.964 11.034 C 9.213 11.192,9.603 11.532,10.253 12.160 L 10.805 12.694 11.973 11.535 C 13.501 10.017,14.438 9.112,14.826 8.781 L 15.140 8.512 15.583 8.526 C 15.995 8.539,16.041 8.549,16.222 8.661 " fill="#373B4D" stroke="none" fill-rule="evenodd"></path></svg>