<svg width="24" height="24" viewBox="0 0 24 24" fill="none" xmlns="http://www.w3.org/2000/svg"><path d="M11.395 2.824 C 9.960 3.884,8.990 4.457,7.923 4.877 C 6.375 5.487,5.136 5.786,3.340 5.982 C 3.010 6.018,2.701 6.072,2.654 6.102 C 2.493 6.204,2.460 6.581,2.460 8.340 C 2.460 9.920,2.461 9.948,2.573 10.580 C 2.958 12.748,3.603 14.431,4.724 16.192 C 5.457 17.343,6.354 18.353,7.650 19.485 C 8.575 20.294,10.593 21.482,11.620 21.822 C 11.915 21.921,11.956 21.925,12.160 21.879 C 12.919 21.711,14.873 20.651,15.960 19.818 C 16.269 19.581,17.190 18.704,17.743 18.120 C 19.640 16.116,20.836 13.715,21.399 10.780 C 21.523 10.133,21.573 9.142,21.546 7.860 C 21.522 6.724,21.466 6.205,21.357 6.105 C 21.322 6.072,20.952 6.012,20.380 5.946 C 19.312 5.822,18.547 5.675,17.679 5.426 C 15.714 4.861,14.382 4.171,12.444 2.713 C 12.215 2.541,12.015 2.400,11.999 2.400 C 11.982 2.400,11.711 2.591,11.395 2.824 M16.100 8.577 C 16.301 8.661,16.503 8.853,16.610 9.060 C 16.676 9.189,16.693 9.299,16.696 9.623 L 16.700 10.026 16.465 10.314 C 15.848 11.069,11.964 14.944,11.411 15.357 C 11.059 15.619,10.614 15.646,10.281 15.425 C 9.716 15.050,7.578 12.902,7.370 12.501 C 7.286 12.338,7.259 11.894,7.319 11.644 C 7.379 11.396,7.640 11.086,7.894 10.963 C 8.130 10.848,8.626 10.847,8.859 10.960 C 9.091 11.072,9.443 11.372,10.170 12.077 L 10.800 12.688 12.510 10.998 C 14.188 9.339,14.861 8.704,15.100 8.551 C 15.202 8.486,15.275 8.477,15.580 8.492 C 15.790 8.502,16.006 8.537,16.100 8.577 " fill="#373B4D" stroke="none" fill-rule="evenodd"></path></svg>