<svg width="24" height="24" viewBox="0 0 24 24" fill="none" xmlns="http://www.w3.org/2000/svg"><path d="M11.280 2.905 C 9.423 4.228,8.140 4.885,6.454 5.374 C 5.745 5.580,5.143 5.707,3.866 5.919 C 2.551 6.137,2.577 6.126,2.517 6.504 C 2.451 6.919,2.425 9.004,2.477 9.680 C 2.613 11.453,3.275 13.614,4.185 15.262 C 4.548 15.919,5.207 16.902,5.600 17.370 C 6.025 17.879,7.511 19.368,7.907 19.683 C 8.918 20.486,10.720 21.514,11.683 21.838 C 11.937 21.923,11.954 21.924,12.196 21.861 C 12.992 21.655,14.668 20.747,15.736 19.943 C 16.789 19.151,18.079 17.831,18.886 16.720 C 20.223 14.878,21.128 12.604,21.467 10.236 C 21.524 9.839,21.538 9.468,21.538 8.380 C 21.538 7.047,21.498 6.451,21.393 6.220 C 21.341 6.107,21.296 6.096,20.160 5.919 C 16.947 5.420,15.260 4.734,12.640 2.861 C 12.387 2.680,12.135 2.504,12.080 2.469 C 11.982 2.407,11.968 2.414,11.280 2.905 M12.421 7.382 C 12.581 7.406,12.823 7.610,12.922 7.804 C 13.036 8.027,13.068 8.467,13.125 10.577 L 13.175 12.415 12.881 12.690 C 12.208 13.320,11.801 13.323,11.129 12.700 L 10.840 12.433 10.840 10.222 L 10.840 8.012 11.084 7.745 C 11.219 7.598,11.367 7.457,11.414 7.431 C 11.592 7.334,11.978 7.315,12.421 7.382 M12.509 15.803 C 12.665 15.863,12.951 16.181,12.997 16.346 C 13.059 16.570,13.051 17.176,12.984 17.338 C 12.892 17.558,12.631 17.788,12.395 17.858 C 11.799 18.035,11.280 17.832,11.031 17.324 C 10.900 17.058,10.880 16.514,10.993 16.296 C 11.115 16.060,11.408 15.794,11.588 15.757 C 11.762 15.721,12.373 15.752,12.509 15.803 " fill="#373B4D" stroke="none" fill-rule="evenodd"></path></svg>