<svg width="24" height="24" viewBox="0 0 24 24" fill="none" xmlns="http://www.w3.org/2000/svg"><path d="M11.420 2.805 C 9.718 4.029,8.737 4.582,7.429 5.056 C 6.308 5.462,5.382 5.686,3.860 5.918 C 2.673 6.100,2.650 6.106,2.579 6.242 C 2.499 6.397,2.441 7.277,2.441 8.364 C 2.440 9.751,2.523 10.532,2.783 11.593 C 3.307 13.728,4.144 15.484,5.453 17.200 C 5.841 17.707,7.524 19.405,7.981 19.748 C 9.078 20.573,10.742 21.521,11.618 21.819 C 11.931 21.926,11.939 21.927,12.190 21.865 C 12.955 21.676,14.655 20.759,15.741 19.949 C 16.754 19.193,18.149 17.762,18.904 16.703 C 19.755 15.510,20.359 14.326,20.821 12.940 C 21.475 10.981,21.657 9.479,21.521 7.156 C 21.480 6.450,21.425 6.176,21.313 6.116 C 21.271 6.094,20.864 6.022,20.409 5.956 C 18.472 5.675,17.146 5.330,15.820 4.762 C 14.912 4.373,13.856 3.737,12.510 2.767 C 12.229 2.565,11.995 2.401,11.990 2.401 C 11.984 2.402,11.728 2.584,11.420 2.805 M12.545 7.414 C 12.854 7.578,12.987 7.796,13.041 8.230 C 13.076 8.520,13.158 11.133,13.160 12.019 L 13.160 12.417 12.870 12.701 C 12.223 13.334,11.777 13.334,11.130 12.701 L 10.840 12.417 10.841 10.219 L 10.842 8.020 11.031 7.793 C 11.261 7.517,11.382 7.419,11.562 7.364 C 11.754 7.305,12.403 7.338,12.545 7.414 M12.554 15.823 C 12.735 15.938,12.884 16.093,12.972 16.260 C 13.084 16.472,13.095 17.148,12.990 17.345 C 12.779 17.740,12.470 17.919,11.998 17.920 C 11.494 17.920,11.203 17.728,10.995 17.258 C 10.876 16.989,10.868 16.526,10.979 16.301 C 11.075 16.107,11.323 15.853,11.493 15.775 C 11.670 15.695,12.403 15.728,12.554 15.823 " fill="#373B4D" stroke="none" fill-rule="evenodd"></path></svg>