<svg width="24" height="24" viewBox="0 0 24 24" fill="none" xmlns="http://www.w3.org/2000/svg"><path d="M11.560 2.703 C 10.236 3.777,8.955 4.514,7.414 5.092 C 6.101 5.584,4.539 5.911,3.138 5.986 C 2.735 6.007,2.629 6.025,2.601 6.077 C 2.503 6.262,2.422 7.287,2.421 8.360 C 2.421 9.508,2.450 9.870,2.622 10.875 C 3.324 14.956,5.784 18.550,9.363 20.723 C 10.275 21.276,11.708 21.935,12.000 21.935 C 12.283 21.935,13.658 21.310,14.560 20.771 C 15.767 20.051,16.781 19.224,17.789 18.140 C 20.321 15.418,21.707 11.708,21.586 7.980 C 21.561 7.199,21.462 6.196,21.399 6.079 C 21.371 6.025,21.272 6.008,20.872 5.987 C 18.840 5.883,16.617 5.265,14.840 4.311 C 13.977 3.848,13.332 3.417,12.475 2.732 C 12.220 2.527,12.004 2.361,11.995 2.362 C 11.987 2.362,11.791 2.516,11.560 2.703 M16.149 8.565 C 16.580 8.771,16.760 9.088,16.760 9.643 C 16.760 9.938,16.753 9.962,16.592 10.205 C 16.413 10.475,13.143 13.798,11.988 14.885 C 11.422 15.417,11.332 15.486,11.131 15.544 C 10.853 15.625,10.549 15.600,10.288 15.475 C 10.150 15.409,9.748 15.033,8.778 14.063 C 7.232 12.516,7.225 12.505,7.246 11.967 C 7.266 11.470,7.421 11.190,7.798 10.968 C 7.947 10.880,8.037 10.860,8.344 10.847 C 8.689 10.832,8.726 10.838,8.925 10.945 C 9.065 11.021,9.420 11.337,9.969 11.875 L 10.800 12.690 12.861 10.646 C 13.995 9.521,14.979 8.572,15.047 8.536 C 15.360 8.374,15.772 8.385,16.149 8.565 " fill="#373B4D" stroke="none" fill-rule="evenodd"></path></svg>