<svg width="24" height="24" viewBox="0 0 24 24" fill="none" xmlns="http://www.w3.org/2000/svg"><path d="M11.860 2.538 C 8.372 4.873,7.407 5.284,3.920 5.919 C 2.812 6.121,2.659 6.167,2.576 6.327 C 2.427 6.616,2.403 9.129,2.539 10.194 C 2.746 11.814,3.425 13.901,4.186 15.258 C 4.567 15.937,5.210 16.877,5.625 17.360 C 6.170 17.995,7.537 19.354,8.020 19.741 C 9.054 20.569,11.197 21.761,11.907 21.903 C 12.282 21.978,14.444 20.885,15.567 20.052 C 16.415 19.422,17.699 18.187,18.407 17.320 C 19.899 15.491,20.934 13.179,21.405 10.620 C 21.484 10.193,21.496 9.972,21.510 8.621 C 21.527 7.057,21.492 6.426,21.379 6.253 C 21.304 6.139,21.218 6.116,20.020 5.897 C 17.734 5.479,16.652 5.162,15.380 4.540 C 14.642 4.178,14.163 3.891,12.980 3.097 C 12.474 2.758,12.033 2.481,12.000 2.482 C 11.967 2.483,11.904 2.508,11.860 2.538 M15.963 8.605 C 16.183 8.652,16.414 8.832,16.521 9.041 C 16.564 9.126,16.619 9.363,16.645 9.573 L 16.692 9.953 16.580 10.146 C 16.509 10.268,15.770 11.037,14.584 12.221 C 12.390 14.412,11.498 15.255,11.204 15.415 C 10.789 15.639,10.480 15.551,9.852 15.027 C 9.179 14.466,7.631 12.854,7.477 12.553 C 7.435 12.472,7.380 12.234,7.354 12.024 L 7.308 11.643 7.418 11.475 C 7.674 11.089,7.912 10.962,8.382 10.961 C 8.894 10.959,9.080 11.079,10.216 12.141 L 10.800 12.687 12.430 11.089 C 14.300 9.256,14.926 8.668,15.098 8.580 C 15.227 8.514,15.582 8.524,15.963 8.605 " fill="#373B4D" stroke="none" fill-rule="evenodd"></path></svg>