<svg width="24" height="24" viewBox="0 0 24 24" fill="none" xmlns="http://www.w3.org/2000/svg"><path d="M11.098 3.033 C 9.147 4.355,7.969 4.942,6.359 5.395 C 5.666 5.590,5.332 5.662,4.020 5.898 C 2.889 6.103,2.762 6.133,2.638 6.234 C 2.512 6.335,2.486 6.550,2.456 7.700 C 2.400 9.856,2.577 11.110,3.198 12.962 C 3.695 14.442,4.211 15.446,5.174 16.804 C 5.526 17.303,6.604 18.455,7.480 19.270 C 7.927 19.686,8.257 19.952,8.660 20.220 C 9.708 20.916,10.961 21.587,11.643 21.817 L 11.980 21.931 12.358 21.803 C 13.076 21.562,14.198 20.975,15.160 20.340 C 16.324 19.570,17.801 18.152,18.742 16.898 C 20.014 15.205,20.956 13.028,21.356 10.860 C 21.514 10.003,21.538 9.658,21.533 8.340 C 21.529 7.064,21.489 6.472,21.396 6.268 C 21.334 6.132,21.293 6.121,20.024 5.896 C 16.739 5.314,15.442 4.794,12.891 3.036 C 12.446 2.729,12.058 2.469,12.029 2.458 C 12.000 2.447,11.581 2.706,11.098 3.033 M15.718 8.562 C 16.095 8.609,16.164 8.637,16.353 8.815 C 16.543 8.993,16.590 9.104,16.638 9.483 C 16.719 10.133,16.832 9.953,15.498 11.312 C 13.944 12.896,11.710 15.068,11.405 15.293 C 10.812 15.730,10.481 15.627,9.467 14.692 C 8.857 14.128,7.737 12.949,7.537 12.659 C 7.410 12.474,7.391 12.409,7.351 12.049 L 7.308 11.646 7.436 11.446 C 7.671 11.081,7.945 10.938,8.400 10.944 C 8.894 10.951,9.074 11.069,10.203 12.127 L 10.807 12.693 11.813 11.695 C 13.220 10.301,14.144 9.406,14.669 8.928 C 15.171 8.471,15.124 8.488,15.718 8.562 " fill="#373B4D" stroke="none" fill-rule="evenodd"></path></svg>