<svg width="24" height="24" viewBox="0 0 24 24" fill="none" xmlns="http://www.w3.org/2000/svg"><path d="M11.860 2.538 C 8.372 4.873,7.407 5.284,3.920 5.919 C 2.812 6.121,2.659 6.167,2.576 6.327 C 2.427 6.616,2.403 9.129,2.539 10.194 C 2.746 11.814,3.425 13.901,4.186 15.258 C 4.567 15.937,5.210 16.877,5.625 17.360 C 6.170 17.995,7.537 19.354,8.020 19.741 C 9.054 20.569,11.197 21.761,11.907 21.903 C 12.282 21.978,14.444 20.885,15.567 20.052 C 16.415 19.422,17.699 18.187,18.407 17.320 C 19.899 15.491,20.934 13.179,21.405 10.620 C 21.484 10.193,21.496 9.972,21.510 8.621 C 21.527 7.057,21.492 6.426,21.379 6.253 C 21.304 6.139,21.218 6.116,20.020 5.897 C 17.734 5.479,16.652 5.162,15.380 4.540 C 14.642 4.178,14.163 3.891,12.980 3.097 C 12.474 2.758,12.033 2.481,12.000 2.482 C 11.967 2.483,11.904 2.508,11.860 2.538 M12.560 7.461 C 12.817 7.593,12.953 7.855,13.001 8.312 C 13.038 8.662,13.095 9.968,13.144 11.561 L 13.171 12.423 12.955 12.618 C 12.679 12.868,12.381 13.058,12.168 13.122 C 12.033 13.163,11.967 13.163,11.832 13.122 C 11.620 13.059,11.322 12.868,11.050 12.622 L 10.840 12.433 10.840 10.226 L 10.840 8.019 11.021 7.812 C 11.218 7.586,11.420 7.445,11.614 7.397 C 11.787 7.354,12.437 7.399,12.560 7.461 M12.337 15.798 C 12.553 15.849,12.802 16.032,12.909 16.222 C 12.988 16.360,12.999 16.438,12.999 16.844 L 13.000 17.308 12.861 17.491 C 12.702 17.699,12.378 17.879,12.105 17.910 C 11.698 17.955,11.242 17.696,11.048 17.308 C 10.976 17.163,10.960 17.063,10.960 16.752 C 10.960 16.396,10.967 16.363,11.084 16.187 C 11.209 15.998,11.354 15.871,11.526 15.803 C 11.647 15.754,12.135 15.751,12.337 15.798 " fill="#373B4D" stroke="none" fill-rule="evenodd"></path></svg>