<svg width="24" height="24" viewBox="0 0 24 24" fill="none" xmlns="http://www.w3.org/2000/svg"><path d="M11.653 2.652 C 11.481 2.769,11.055 3.059,10.707 3.297 C 9.172 4.344,7.918 4.955,6.440 5.376 C 5.724 5.580,5.203 5.692,4.000 5.898 C 2.808 6.102,2.635 6.152,2.562 6.311 C 2.415 6.635,2.409 9.432,2.554 10.381 C 2.824 12.145,3.489 14.082,4.302 15.466 C 4.613 15.995,5.171 16.828,5.479 17.220 C 5.617 17.396,6.219 18.027,6.815 18.622 C 7.729 19.533,7.977 19.756,8.390 20.042 C 9.450 20.774,10.930 21.584,11.641 21.820 L 11.966 21.929 12.370 21.801 C 13.089 21.573,14.483 20.824,15.456 20.143 C 16.308 19.547,17.504 18.415,18.336 17.420 C 19.643 15.855,20.664 13.801,21.179 11.700 C 21.507 10.366,21.597 9.274,21.526 7.503 C 21.483 6.417,21.446 6.212,21.280 6.134 C 21.225 6.109,20.685 6.005,20.080 5.903 C 16.800 5.355,15.358 4.770,12.722 2.918 C 12.348 2.655,12.024 2.440,12.003 2.440 C 11.982 2.440,11.824 2.536,11.653 2.652 M12.645 7.500 C 12.914 7.690,12.991 7.887,13.038 8.500 C 13.059 8.786,13.099 9.784,13.125 10.719 L 13.173 12.418 12.879 12.689 C 12.203 13.313,11.806 13.315,11.130 12.698 L 10.840 12.434 10.840 10.223 L 10.840 8.012 11.089 7.740 C 11.417 7.382,11.479 7.357,12.027 7.370 C 12.451 7.379,12.482 7.386,12.645 7.500 M12.491 15.814 C 12.639 15.876,12.860 16.089,12.944 16.249 C 13.021 16.397,13.056 16.774,13.022 17.093 C 12.998 17.324,12.975 17.378,12.832 17.539 C 12.625 17.775,12.405 17.886,12.097 17.910 C 11.639 17.947,11.278 17.754,11.060 17.354 C 10.954 17.160,10.943 17.103,10.942 16.754 C 10.940 16.387,10.946 16.358,11.061 16.195 C 11.128 16.100,11.259 15.963,11.354 15.891 C 11.523 15.762,11.533 15.760,11.944 15.760 C 12.206 15.760,12.411 15.780,12.491 15.814 " fill="#373B4D" stroke="none" fill-rule="evenodd"></path></svg>