<svg width="24" height="24" viewBox="0 0 24 24" fill="none" xmlns="http://www.w3.org/2000/svg"><path d="M11.440 2.786 C 10.788 3.288,9.805 3.950,9.260 4.255 C 8.184 4.856,6.505 5.450,5.063 5.741 C 4.778 5.798,4.148 5.889,3.663 5.942 C 3.177 5.996,2.741 6.049,2.693 6.060 C 2.576 6.087,2.531 6.242,2.475 6.820 C 2.413 7.471,2.411 9.272,2.473 9.833 C 2.620 11.171,2.998 12.657,3.507 13.900 C 4.015 15.141,4.944 16.668,5.787 17.648 C 6.223 18.155,7.492 19.386,7.920 19.717 C 8.931 20.499,10.411 21.360,11.398 21.741 C 11.924 21.944,12.001 21.949,12.442 21.802 C 13.316 21.511,15.202 20.434,16.067 19.734 C 16.464 19.412,17.313 18.591,17.912 17.950 C 19.533 16.215,20.754 13.825,21.278 11.360 C 21.508 10.278,21.529 10.073,21.549 8.772 C 21.575 7.117,21.492 6.114,21.327 6.062 C 21.290 6.051,20.914 6.005,20.492 5.960 C 19.517 5.857,18.942 5.758,18.147 5.555 C 16.056 5.021,14.551 4.294,12.780 2.960 C 12.382 2.660,12.039 2.404,12.018 2.392 C 11.997 2.380,11.737 2.557,11.440 2.786 M12.645 7.449 C 12.876 7.609,13.020 7.791,13.079 7.997 C 13.100 8.069,13.129 9.078,13.145 10.241 L 13.173 12.356 13.060 12.508 C 12.860 12.779,12.664 12.965,12.479 13.060 C 11.943 13.334,11.434 13.168,10.997 12.576 L 10.840 12.363 10.840 10.205 L 10.840 8.047 11.010 7.794 C 11.131 7.613,11.243 7.502,11.400 7.408 C 11.616 7.278,11.628 7.275,12.025 7.288 C 12.419 7.300,12.437 7.304,12.645 7.449 M12.372 15.722 C 12.624 15.786,12.894 16.001,13.002 16.225 C 13.129 16.487,13.159 17.007,13.061 17.262 C 12.883 17.730,12.334 18.044,11.851 17.955 C 11.433 17.878,11.139 17.668,10.972 17.328 C 10.819 17.017,10.815 16.559,10.962 16.265 C 11.064 16.060,11.279 15.850,11.493 15.744 C 11.642 15.671,12.121 15.659,12.372 15.722 " fill="#373B4D" stroke="none" fill-rule="evenodd"></path></svg>