<svg width="24" height="24" viewBox="0 0 24 24" fill="none" xmlns="http://www.w3.org/2000/svg"><path d="M10.860 2.595 C 10.296 2.750,9.595 3.100,9.120 3.463 C 8.668 3.809,8.027 4.537,7.768 5.000 C 7.423 5.617,7.200 6.743,7.200 7.873 L 7.200 8.390 6.790 8.417 C 5.742 8.486,5.438 8.569,5.149 8.862 C 4.962 9.052,4.873 9.324,4.764 10.046 C 4.581 11.262,3.600 20.039,3.600 20.468 C 3.600 20.643,3.803 20.988,4.057 21.246 C 4.214 21.406,4.274 21.438,4.490 21.479 C 5.230 21.620,18.643 21.635,19.520 21.496 C 19.673 21.472,19.742 21.425,19.985 21.183 C 20.239 20.930,20.276 20.874,20.322 20.667 C 20.405 20.297,20.310 19.261,19.717 14.020 C 19.222 9.646,19.134 9.140,18.817 8.826 C 18.663 8.674,18.532 8.611,18.232 8.542 C 18.020 8.494,17.127 8.400,16.884 8.400 C 16.818 8.400,16.810 8.337,16.789 7.650 C 16.747 6.277,16.545 5.501,16.025 4.702 C 15.497 3.892,14.628 3.175,13.742 2.817 C 13.217 2.606,12.913 2.558,11.980 2.537 C 11.240 2.521,11.107 2.528,10.860 2.595 M12.277 4.922 C 13.217 5.040,13.982 5.712,14.215 6.623 C 14.272 6.848,14.400 7.984,14.400 8.267 L 14.400 8.400 12.000 8.400 L 9.600 8.400 9.600 8.239 C 9.600 8.025,9.711 6.963,9.765 6.660 C 9.821 6.342,9.953 6.074,10.204 5.770 C 10.579 5.314,11.093 4.990,11.546 4.924 C 11.878 4.875,11.905 4.875,12.277 4.922 M8.909 11.003 C 9.065 11.063,9.351 11.381,9.397 11.546 C 9.459 11.770,9.451 12.376,9.384 12.538 C 9.292 12.758,9.031 12.988,8.795 13.058 C 8.199 13.235,7.680 13.032,7.431 12.524 C 7.300 12.258,7.280 11.714,7.393 11.496 C 7.515 11.260,7.808 10.994,7.988 10.957 C 8.162 10.921,8.773 10.952,8.909 11.003 M16.109 11.003 C 16.265 11.063,16.551 11.381,16.597 11.546 C 16.659 11.770,16.651 12.376,16.584 12.538 C 16.492 12.758,16.231 12.988,15.995 13.058 C 15.399 13.235,14.880 13.032,14.631 12.524 C 14.500 12.258,14.480 11.714,14.593 11.496 C 14.715 11.260,15.008 10.994,15.188 10.957 C 15.362 10.921,15.973 10.952,16.109 11.003 " fill="#373B4D" stroke="none" fill-rule="evenodd"></path></svg>