<svg width="24" height="24" viewBox="0 0 24 24" fill="none" xmlns="http://www.w3.org/2000/svg"><path d="M3.308 1.322 C 3.074 1.361,2.772 1.550,2.647 1.736 C 2.338 2.194,2.384 2.761,2.762 3.175 C 3.050 3.489,3.190 3.530,4.293 3.617 C 4.663 3.646,4.985 3.689,5.008 3.712 C 5.030 3.734,5.147 4.119,5.267 4.566 C 5.583 5.750,6.816 10.666,6.922 11.168 L 7.013 11.596 6.902 11.741 C 6.841 11.821,6.585 12.114,6.332 12.393 C 5.793 12.988,5.507 13.398,5.412 13.713 C 5.318 14.025,5.317 14.741,5.409 15.040 C 5.513 15.375,5.748 15.740,6.080 16.079 C 6.329 16.334,6.451 16.421,6.794 16.593 L 7.207 16.800 12.774 16.799 L 18.340 16.798 18.529 16.660 C 19.229 16.146,19.357 15.351,18.824 14.819 C 18.435 14.430,19.011 14.470,13.300 14.433 C 10.528 14.416,8.145 14.390,8.004 14.377 L 7.749 14.352 8.323 13.777 L 8.897 13.202 13.018 13.191 C 17.592 13.179,17.235 13.201,17.506 12.913 C 17.822 12.578,18.431 11.442,20.042 8.180 C 21.160 5.918,21.350 5.511,21.504 5.050 C 21.597 4.775,21.602 4.730,21.557 4.569 C 21.494 4.344,21.265 4.037,20.992 3.814 L 20.781 3.640 16.917 3.640 C 14.792 3.640,11.811 3.628,10.292 3.613 L 7.532 3.587 7.461 3.283 C 7.354 2.821,7.053 1.929,6.938 1.733 C 6.784 1.470,6.596 1.365,6.197 1.319 C 5.798 1.273,3.584 1.275,3.308 1.322 M7.267 18.135 C 6.625 18.406,6.166 18.933,6.039 19.547 C 5.944 20.004,6.130 20.519,6.550 20.965 C 6.843 21.276,7.219 21.489,7.611 21.566 C 8.394 21.720,9.353 20.959,9.564 20.017 C 9.608 19.822,9.605 19.757,9.544 19.526 C 9.386 18.930,9.023 18.480,8.486 18.214 C 8.219 18.082,8.139 18.062,7.841 18.050 C 7.550 18.039,7.466 18.052,7.267 18.135 M16.867 18.135 C 16.225 18.406,15.766 18.933,15.639 19.547 C 15.544 20.004,15.730 20.519,16.150 20.965 C 16.443 21.276,16.819 21.489,17.211 21.566 C 17.994 21.720,18.953 20.959,19.164 20.017 C 19.208 19.822,19.205 19.757,19.144 19.526 C 18.986 18.930,18.623 18.480,18.086 18.214 C 17.819 18.082,17.739 18.062,17.441 18.050 C 17.150 18.039,17.066 18.052,16.867 18.135 " fill="#373B4D" stroke="none" fill-rule="evenodd"></path></svg>