<svg width="24" height="24" viewBox="0 0 24 24" fill="none" xmlns="http://www.w3.org/2000/svg"><path d="M10.867 2.604 C 10.641 2.657,10.148 2.870,9.782 3.072 C 8.842 3.592,8.158 4.284,7.738 5.140 C 7.400 5.831,7.267 6.458,7.219 7.580 C 7.206 7.888,7.188 8.195,7.178 8.262 L 7.160 8.383 6.526 8.451 C 5.565 8.553,5.217 8.692,5.037 9.046 C 4.921 9.273,4.814 9.721,4.722 10.355 C 4.567 11.439,3.934 16.985,3.667 19.611 L 3.575 20.522 3.697 20.742 C 3.836 20.992,4.150 21.332,4.324 21.422 C 4.553 21.541,6.047 21.569,12.320 21.575 C 18.634 21.580,19.304 21.566,19.671 21.419 C 19.856 21.345,20.115 21.078,20.254 20.820 C 20.330 20.678,20.339 20.602,20.334 20.140 C 20.324 19.213,19.686 13.340,19.299 10.616 C 19.089 9.136,18.959 8.830,18.459 8.643 C 18.252 8.566,17.692 8.471,17.130 8.419 C 16.930 8.400,16.840 8.375,16.840 8.339 C 16.840 8.099,16.747 6.975,16.698 6.629 C 16.525 5.403,16.063 4.542,15.144 3.729 C 14.791 3.417,14.428 3.171,14.017 2.966 C 13.455 2.686,13.254 2.637,12.500 2.599 C 11.651 2.556,11.065 2.557,10.867 2.604 M12.537 4.999 C 13.031 5.126,13.422 5.377,13.763 5.788 C 14.088 6.179,14.235 6.654,14.339 7.649 C 14.372 7.973,14.400 8.274,14.400 8.319 C 14.400 8.399,14.385 8.400,11.994 8.400 L 9.588 8.400 9.615 8.070 C 9.661 7.492,9.762 6.747,9.825 6.520 C 10.002 5.883,10.697 5.193,11.380 4.976 C 11.628 4.897,12.181 4.908,12.537 4.999 M8.737 10.998 C 8.953 11.049,9.202 11.232,9.309 11.422 C 9.388 11.560,9.399 11.638,9.399 12.044 L 9.400 12.508 9.261 12.691 C 9.102 12.899,8.778 13.079,8.505 13.110 C 8.098 13.155,7.642 12.896,7.448 12.508 C 7.376 12.363,7.360 12.263,7.360 11.952 C 7.360 11.596,7.367 11.563,7.484 11.387 C 7.609 11.198,7.754 11.071,7.926 11.003 C 8.047 10.954,8.535 10.951,8.737 10.998 M16.179 11.097 C 16.291 11.163,16.413 11.281,16.483 11.391 C 16.595 11.568,16.600 11.595,16.600 12.042 L 16.600 12.508 16.465 12.685 C 16.090 13.177,15.350 13.250,14.905 12.841 C 14.635 12.591,14.560 12.399,14.560 11.952 C 14.560 11.596,14.567 11.563,14.684 11.387 C 14.916 11.036,15.096 10.955,15.606 10.974 C 15.940 10.986,16.017 11.002,16.179 11.097 " fill="#373B4D" stroke="none" fill-rule="evenodd"></path></svg>