<svg width="24" height="24" viewBox="0 0 24 24" fill="none" xmlns="http://www.w3.org/2000/svg"><path d="M3.105 1.458 C 3.019 1.489,2.880 1.582,2.796 1.664 C 2.453 1.999,2.384 2.434,2.603 2.873 C 2.826 3.319,3.063 3.431,4.180 3.620 C 4.510 3.676,4.818 3.730,4.865 3.740 C 5.039 3.778,5.120 4.050,6.019 7.620 C 6.657 10.152,6.920 11.270,6.920 11.455 C 6.920 11.614,6.803 11.816,6.476 12.220 C 5.914 12.914,5.630 13.302,5.510 13.540 C 5.392 13.774,5.389 13.793,5.384 14.400 L 5.380 15.020 5.554 15.313 C 5.893 15.887,6.401 16.378,6.966 16.679 L 7.191 16.800 12.792 16.800 L 18.394 16.800 18.638 16.530 C 18.975 16.158,19.100 15.894,19.098 15.560 C 19.096 15.263,19.028 15.101,18.806 14.867 C 18.622 14.673,18.510 14.616,18.260 14.585 C 18.011 14.554,14.977 14.493,11.140 14.440 C 9.534 14.418,8.114 14.389,7.985 14.376 L 7.750 14.351 8.318 13.782 L 8.886 13.213 12.673 13.186 C 14.756 13.171,16.619 13.143,16.812 13.122 C 17.325 13.067,17.412 13.012,17.727 12.540 C 18.129 11.938,18.587 11.089,19.593 9.080 C 21.030 6.209,21.594 4.931,21.542 4.660 C 21.508 4.482,21.330 4.197,21.067 3.902 L 20.835 3.640 14.907 3.635 C 11.647 3.632,8.658 3.619,8.265 3.605 L 7.550 3.580 7.321 2.880 C 6.953 1.757,6.893 1.637,6.620 1.486 C 6.515 1.428,6.301 1.419,4.880 1.410 C 3.564 1.403,3.231 1.412,3.105 1.458 M7.140 18.247 C 6.820 18.420,6.333 18.914,6.181 19.218 C 6.076 19.428,6.063 19.495,6.065 19.804 C 6.067 20.096,6.084 20.187,6.172 20.366 C 6.318 20.666,6.631 21.002,6.985 21.238 C 7.517 21.594,7.901 21.639,8.380 21.402 C 8.873 21.158,9.339 20.620,9.521 20.085 L 9.618 19.800 9.521 19.515 C 9.391 19.132,9.096 18.722,8.788 18.493 C 8.407 18.210,8.248 18.153,7.784 18.133 C 7.389 18.117,7.375 18.119,7.140 18.247 M16.740 18.246 C 16.420 18.420,15.933 18.914,15.781 19.217 C 15.676 19.429,15.663 19.492,15.667 19.807 C 15.672 20.275,15.783 20.507,16.198 20.922 C 16.893 21.618,17.566 21.728,18.231 21.254 C 18.644 20.959,18.984 20.511,19.101 20.105 C 19.254 19.575,18.961 18.930,18.360 18.475 C 18.017 18.215,17.853 18.158,17.389 18.136 C 16.986 18.116,16.976 18.118,16.740 18.246 " fill="#373B4D" stroke="none" fill-rule="evenodd"></path></svg>