<svg width="24" height="24" viewBox="0 0 24 24" fill="none" xmlns="http://www.w3.org/2000/svg"><path d="M3.499 1.317 C 3.135 1.345,2.900 1.456,2.687 1.698 C 2.557 1.846,2.440 2.169,2.440 2.380 C 2.440 2.707,2.679 3.160,2.955 3.357 C 3.128 3.480,3.461 3.548,4.240 3.619 C 4.706 3.661,4.958 3.701,4.994 3.737 C 5.074 3.817,5.200 4.284,6.021 7.540 C 6.721 10.314,7.000 11.466,7.000 11.580 C 7.000 11.608,6.764 11.898,6.476 12.225 C 5.905 12.874,5.592 13.287,5.474 13.549 C 5.359 13.802,5.308 14.320,5.357 14.723 C 5.417 15.207,5.601 15.555,6.047 16.021 C 6.341 16.328,6.455 16.415,6.792 16.592 L 7.190 16.800 12.771 16.800 L 18.353 16.800 18.575 16.619 C 19.095 16.195,19.288 15.607,19.057 15.152 C 18.968 14.976,18.735 14.691,18.616 14.614 C 18.564 14.580,18.408 14.536,18.270 14.517 C 18.133 14.498,15.824 14.465,13.140 14.442 C 10.456 14.420,8.145 14.391,8.004 14.377 L 7.749 14.352 8.321 13.779 L 8.892 13.206 12.956 13.189 C 15.679 13.177,17.073 13.157,17.180 13.128 C 17.560 13.026,17.946 12.387,19.471 9.338 C 20.864 6.552,21.497 5.192,21.579 4.807 C 21.625 4.594,21.421 4.227,21.079 3.905 L 20.799 3.640 16.409 3.640 C 13.995 3.640,11.010 3.628,9.776 3.613 L 7.532 3.587 7.460 3.284 C 7.353 2.827,7.009 1.840,6.898 1.671 C 6.746 1.439,6.546 1.360,6.006 1.318 C 5.495 1.278,4.007 1.278,3.499 1.317 M7.326 18.117 C 7.017 18.232,6.753 18.414,6.505 18.682 C 6.255 18.952,6.108 19.237,6.040 19.584 C 5.950 20.041,6.152 20.551,6.603 21.005 C 6.895 21.298,7.245 21.491,7.618 21.566 C 8.064 21.656,8.548 21.458,9.005 20.998 C 9.297 20.704,9.492 20.357,9.566 20.000 C 9.607 19.804,9.602 19.745,9.519 19.465 C 9.348 18.889,8.993 18.470,8.458 18.214 C 8.083 18.034,7.648 17.997,7.326 18.117 M16.926 18.117 C 16.617 18.232,16.353 18.414,16.105 18.682 C 15.855 18.952,15.708 19.237,15.640 19.584 C 15.550 20.041,15.752 20.551,16.203 21.005 C 16.495 21.298,16.845 21.491,17.218 21.566 C 17.664 21.656,18.148 21.458,18.605 20.998 C 18.897 20.704,19.092 20.357,19.166 20.000 C 19.207 19.804,19.202 19.745,19.119 19.465 C 18.948 18.889,18.593 18.470,18.058 18.214 C 17.683 18.034,17.248 17.997,16.926 18.117 " fill="#373B4D" stroke="none" fill-rule="evenodd"></path></svg>