<svg width="24" height="24" viewBox="0 0 24 24" fill="none" xmlns="http://www.w3.org/2000/svg"><path d="M3.660 1.277 C 3.312 1.295,3.180 1.320,3.030 1.394 C 2.662 1.575,2.440 1.954,2.440 2.401 C 2.440 2.792,2.620 3.140,2.931 3.353 C 3.194 3.532,3.327 3.558,4.200 3.600 C 4.648 3.621,5.030 3.654,5.049 3.673 C 5.080 3.704,6.955 11.153,7.016 11.488 C 7.042 11.633,7.034 11.644,6.594 12.108 C 5.923 12.814,5.640 13.157,5.537 13.387 C 5.205 14.126,5.258 14.985,5.674 15.623 C 5.854 15.899,6.238 16.285,6.486 16.439 C 6.582 16.499,6.786 16.599,6.940 16.664 L 7.220 16.780 12.772 16.790 L 18.324 16.801 18.502 16.679 C 18.928 16.386,19.121 16.086,19.151 15.676 C 19.184 15.218,19.007 14.875,18.601 14.610 L 18.360 14.453 13.310 14.426 C 10.533 14.411,8.146 14.387,8.006 14.373 L 7.753 14.348 8.325 13.775 L 8.897 13.202 13.018 13.191 L 17.140 13.180 17.326 13.071 C 17.685 12.860,17.850 12.569,19.574 9.120 C 21.003 6.260,21.500 5.214,21.566 4.925 C 21.654 4.547,21.441 4.141,20.976 3.797 L 20.763 3.640 18.312 3.640 C 16.963 3.640,13.987 3.628,11.698 3.613 L 7.536 3.587 7.424 3.147 C 7.128 1.986,6.951 1.605,6.611 1.395 C 6.471 1.308,6.402 1.299,5.680 1.274 C 4.790 1.243,4.288 1.244,3.660 1.277 M7.471 18.062 C 6.751 18.237,6.163 18.849,6.030 19.562 C 5.871 20.417,6.627 21.390,7.587 21.567 C 7.793 21.606,7.878 21.602,8.105 21.546 C 8.491 21.451,8.694 21.341,8.979 21.075 C 9.265 20.807,9.444 20.500,9.544 20.103 C 9.603 19.865,9.606 19.792,9.564 19.583 C 9.411 18.823,8.851 18.235,8.116 18.062 C 7.812 17.990,7.769 17.990,7.471 18.062 M17.071 18.062 C 16.351 18.237,15.763 18.849,15.630 19.562 C 15.471 20.417,16.227 21.390,17.187 21.567 C 17.393 21.606,17.478 21.602,17.705 21.546 C 18.091 21.451,18.294 21.341,18.579 21.075 C 18.865 20.807,19.044 20.500,19.144 20.103 C 19.203 19.865,19.206 19.792,19.164 19.583 C 19.011 18.823,18.451 18.235,17.716 18.062 C 17.412 17.990,17.369 17.990,17.071 18.062 " fill="#373B4D" stroke="none" fill-rule="evenodd"></path></svg>