<svg width="24" height="24" viewBox="0 0 24 24" fill="none" xmlns="http://www.w3.org/2000/svg"><path d="M3.619 1.315 C 2.980 1.361,2.653 1.580,2.500 2.065 C 2.415 2.336,2.434 2.552,2.568 2.846 C 2.811 3.375,3.031 3.486,4.077 3.603 C 4.464 3.646,4.828 3.691,4.887 3.703 C 5.022 3.731,5.064 3.835,5.297 4.708 C 5.561 5.702,6.776 10.544,6.899 11.097 L 7.005 11.573 6.914 11.697 C 6.865 11.764,6.615 12.063,6.361 12.360 C 5.469 13.401,5.352 13.631,5.348 14.360 C 5.344 15.095,5.529 15.504,6.135 16.100 C 6.379 16.340,6.551 16.467,6.825 16.610 L 7.190 16.800 12.768 16.800 L 18.347 16.800 18.527 16.660 C 18.926 16.349,19.136 15.970,19.139 15.560 C 19.140 15.349,19.120 15.266,19.033 15.120 C 18.854 14.816,18.659 14.618,18.493 14.570 C 18.269 14.505,17.218 14.482,12.480 14.439 C 10.137 14.418,8.114 14.389,7.985 14.376 L 7.750 14.351 8.318 13.782 L 8.887 13.212 12.978 13.190 C 16.946 13.169,17.074 13.166,17.248 13.089 C 17.620 12.925,17.975 12.318,19.573 9.120 C 20.741 6.782,21.328 5.541,21.507 5.028 C 21.587 4.799,21.595 4.731,21.560 4.602 C 21.510 4.414,21.240 4.041,20.987 3.810 L 20.802 3.640 16.027 3.640 C 13.402 3.640,10.415 3.628,9.391 3.614 L 7.530 3.587 7.481 3.364 C 7.410 3.039,7.057 1.990,6.941 1.763 C 6.823 1.529,6.663 1.422,6.340 1.362 C 6.047 1.308,4.172 1.275,3.619 1.315 M7.440 18.092 C 6.764 18.284,6.165 18.925,6.041 19.590 C 5.956 20.048,6.155 20.544,6.606 20.997 C 6.988 21.382,7.553 21.628,7.944 21.580 C 8.643 21.496,9.415 20.735,9.566 19.985 C 9.601 19.809,9.597 19.729,9.541 19.537 C 9.387 19.009,9.141 18.659,8.730 18.387 C 8.291 18.097,7.811 17.987,7.440 18.092 M17.040 18.092 C 16.364 18.284,15.765 18.925,15.641 19.590 C 15.556 20.048,15.755 20.544,16.206 20.997 C 16.588 21.382,17.153 21.628,17.544 21.580 C 18.243 21.496,19.015 20.735,19.166 19.985 C 19.201 19.809,19.197 19.729,19.141 19.537 C 18.987 19.009,18.741 18.659,18.330 18.387 C 17.891 18.097,17.411 17.987,17.040 18.092 " fill="#373B4D" stroke="none" fill-rule="evenodd"></path></svg>