<svg width="24" height="24" viewBox="0 0 24 24" fill="none" xmlns="http://www.w3.org/2000/svg"><path d="M10.940 2.600 C 10.344 2.689,9.212 3.346,8.599 3.959 C 7.691 4.868,7.304 5.862,7.222 7.500 C 7.209 7.764,7.188 8.072,7.177 8.185 L 7.155 8.390 6.868 8.417 C 6.311 8.469,5.748 8.566,5.539 8.644 C 4.905 8.881,4.855 9.070,4.402 12.940 C 4.213 14.554,3.799 18.282,3.665 19.580 L 3.570 20.500 3.675 20.698 C 3.812 20.956,4.185 21.358,4.352 21.427 C 4.608 21.534,6.194 21.562,12.380 21.565 C 18.660 21.569,19.341 21.556,19.660 21.422 C 19.839 21.348,20.132 21.052,20.242 20.835 C 20.326 20.671,20.329 20.628,20.309 19.942 C 20.262 18.377,19.397 10.773,19.138 9.659 C 18.997 9.048,18.838 8.804,18.489 8.658 C 18.358 8.603,17.809 8.506,17.100 8.412 L 16.861 8.380 16.793 7.580 C 16.631 5.661,16.350 4.944,15.382 3.979 C 14.904 3.501,14.461 3.181,13.920 2.924 C 13.437 2.694,13.197 2.644,12.360 2.600 C 11.533 2.556,11.233 2.556,10.940 2.600 M12.602 5.024 C 12.990 5.139,13.287 5.318,13.584 5.616 C 13.741 5.772,13.916 5.993,13.974 6.108 C 14.162 6.479,14.285 7.077,14.380 8.085 C 14.404 8.337,14.401 8.350,14.313 8.374 C 14.262 8.388,13.181 8.399,11.910 8.399 L 9.600 8.400 9.600 8.290 C 9.601 8.092,9.719 7.108,9.783 6.760 C 9.871 6.284,10.027 6.009,10.438 5.600 C 10.789 5.251,11.154 5.023,11.471 4.955 C 11.689 4.909,12.349 4.949,12.602 5.024 M8.904 11.072 C 9.122 11.183,9.312 11.386,9.360 11.558 C 9.382 11.636,9.400 11.882,9.400 12.104 C 9.400 12.483,9.393 12.516,9.290 12.649 C 9.050 12.960,8.612 13.155,8.270 13.104 C 8.031 13.068,7.700 12.868,7.559 12.673 C 7.399 12.451,7.350 12.246,7.366 11.861 C 7.378 11.574,7.394 11.519,7.504 11.370 C 7.757 11.025,7.920 10.956,8.422 10.977 C 8.646 10.986,8.793 11.015,8.904 11.072 M16.067 11.045 C 16.207 11.088,16.501 11.384,16.561 11.543 C 16.582 11.599,16.600 11.841,16.600 12.080 C 16.600 12.494,16.595 12.520,16.490 12.647 C 16.221 12.972,15.975 13.096,15.600 13.093 C 15.304 13.091,15.110 13.019,14.899 12.834 C 14.646 12.611,14.583 12.439,14.581 11.960 C 14.580 11.552,14.584 11.535,14.708 11.356 C 14.860 11.136,14.987 11.047,15.212 11.000 C 15.402 10.961,15.876 10.986,16.067 11.045 " fill="#373B4D" stroke="none" fill-rule="evenodd"></path></svg>