<svg width="24" height="24" viewBox="0 0 24 24" fill="none" xmlns="http://www.w3.org/2000/svg"><path d="M3.414 1.238 C 2.446 1.389,2.077 2.531,2.766 3.242 C 3.064 3.548,3.177 3.576,4.181 3.593 L 5.062 3.607 6.064 7.617 L 7.066 11.626 6.443 12.263 C 6.100 12.613,5.749 13.006,5.664 13.136 C 5.191 13.851,5.177 14.846,5.630 15.593 C 5.939 16.105,6.402 16.485,6.939 16.670 L 7.260 16.780 12.780 16.780 L 18.300 16.780 18.488 16.687 C 19.392 16.242,19.430 15.031,18.554 14.558 L 18.300 14.421 13.030 14.406 C 10.132 14.398,7.760 14.380,7.760 14.365 C 7.760 14.351,8.017 14.083,8.331 13.769 L 8.901 13.200 12.983 13.200 L 17.064 13.200 17.262 13.101 C 17.620 12.923,17.691 12.829,18.184 11.880 C 19.069 10.177,21.463 5.340,21.536 5.107 C 21.707 4.564,21.455 4.011,20.912 3.736 L 20.707 3.632 14.123 3.610 L 7.538 3.588 7.349 2.844 C 7.132 1.990,6.989 1.662,6.756 1.477 C 6.450 1.235,6.392 1.226,4.940 1.216 C 4.214 1.210,3.527 1.220,3.414 1.238 M7.410 18.061 C 7.061 18.136,6.793 18.294,6.523 18.583 C 6.267 18.857,6.154 19.061,6.062 19.418 C 5.988 19.701,5.985 19.844,6.044 20.128 C 6.197 20.862,6.781 21.426,7.530 21.564 C 8.418 21.728,9.363 21.058,9.556 20.128 C 9.615 19.844,9.612 19.702,9.539 19.418 C 9.354 18.701,8.800 18.170,8.103 18.043 C 7.810 17.990,7.726 17.992,7.410 18.061 M17.010 18.061 C 16.661 18.136,16.393 18.294,16.123 18.583 C 15.867 18.857,15.754 19.061,15.662 19.418 C 15.588 19.701,15.585 19.844,15.644 20.128 C 15.797 20.862,16.381 21.426,17.130 21.564 C 18.018 21.728,18.963 21.058,19.156 20.128 C 19.215 19.844,19.212 19.702,19.139 19.418 C 18.954 18.701,18.400 18.170,17.703 18.043 C 17.410 17.990,17.326 17.992,17.010 18.061 " fill="#373B4D" stroke="none" fill-rule="evenodd"></path></svg>