<svg width="24" height="24" viewBox="0 0 24 24" fill="none" xmlns="http://www.w3.org/2000/svg"><path d="M3.282 1.362 C 3.048 1.410,2.765 1.588,2.650 1.759 C 2.514 1.961,2.427 2.296,2.458 2.502 C 2.495 2.749,2.701 3.139,2.867 3.275 C 3.058 3.433,3.358 3.510,4.209 3.619 C 4.654 3.676,4.948 3.732,4.981 3.766 C 5.052 3.840,5.128 4.080,5.364 4.974 C 5.614 5.925,6.941 11.248,6.975 11.441 C 7.003 11.596,6.964 11.652,6.205 12.545 C 5.780 13.045,5.497 13.474,5.420 13.732 C 5.351 13.966,5.340 14.686,5.402 14.955 C 5.540 15.554,6.168 16.267,6.886 16.641 L 7.192 16.800 12.771 16.800 L 18.350 16.800 18.545 16.645 C 18.976 16.301,19.216 15.765,19.123 15.352 C 19.075 15.138,18.822 14.775,18.634 14.651 C 18.491 14.557,18.446 14.551,17.592 14.518 C 17.101 14.499,14.774 14.464,12.420 14.441 C 10.066 14.417,8.053 14.386,7.946 14.373 L 7.752 14.349 8.320 13.780 L 8.888 13.211 12.934 13.188 C 15.382 13.174,17.041 13.149,17.136 13.125 C 17.480 13.038,17.780 12.613,18.581 11.080 C 19.449 9.418,20.941 6.379,21.295 5.549 C 21.553 4.945,21.606 4.749,21.552 4.590 C 21.489 4.407,21.301 4.139,21.046 3.870 L 20.828 3.640 15.644 3.640 C 12.793 3.640,9.800 3.628,8.993 3.614 L 7.526 3.587 7.500 3.444 C 7.465 3.249,7.091 2.109,6.981 1.859 C 6.880 1.629,6.705 1.464,6.489 1.396 C 6.304 1.337,3.544 1.308,3.282 1.362 M7.535 18.078 C 7.135 18.141,6.619 18.506,6.323 18.935 C 6.046 19.338,5.958 19.869,6.105 20.245 C 6.351 20.875,7.008 21.438,7.645 21.564 C 7.831 21.601,7.909 21.597,8.105 21.541 C 8.741 21.359,9.326 20.769,9.527 20.107 C 9.601 19.862,9.605 19.806,9.562 19.615 C 9.494 19.310,9.273 18.891,9.072 18.684 C 8.637 18.238,8.033 18.000,7.535 18.078 M17.135 18.078 C 16.735 18.141,16.219 18.506,15.923 18.935 C 15.646 19.338,15.558 19.869,15.705 20.245 C 15.951 20.875,16.608 21.438,17.245 21.564 C 17.431 21.601,17.509 21.597,17.705 21.541 C 18.341 21.359,18.926 20.769,19.127 20.107 C 19.201 19.862,19.205 19.806,19.162 19.615 C 19.094 19.310,18.873 18.891,18.672 18.684 C 18.237 18.238,17.633 18.000,17.135 18.078 " fill="#373B4D" stroke="none" fill-rule="evenodd"></path></svg>