<svg width="24" height="24" viewBox="0 0 24 24" fill="none" xmlns="http://www.w3.org/2000/svg"><path d="M3.736 1.279 C 3.265 1.305,3.192 1.320,3.002 1.423 C 2.758 1.556,2.626 1.712,2.517 1.998 C 2.307 2.550,2.575 3.212,3.103 3.445 C 3.298 3.532,3.695 3.584,4.448 3.622 C 4.727 3.636,4.983 3.669,5.018 3.694 C 5.089 3.747,7.000 11.300,7.000 11.530 C 7.000 11.653,6.941 11.733,6.496 12.212 C 5.527 13.256,5.379 13.518,5.333 14.260 C 5.290 14.966,5.499 15.493,6.041 16.048 C 6.338 16.352,6.434 16.421,6.781 16.588 L 7.180 16.780 12.752 16.790 L 18.324 16.801 18.497 16.682 C 18.780 16.488,19.019 16.192,19.099 15.938 C 19.186 15.662,19.165 15.326,19.048 15.095 C 18.959 14.922,18.701 14.666,18.480 14.534 C 18.340 14.450,18.325 14.450,13.260 14.425 C 10.466 14.411,8.084 14.388,7.966 14.374 L 7.753 14.348 8.326 13.774 L 8.899 13.200 12.991 13.200 C 16.999 13.200,17.086 13.198,17.239 13.120 C 17.645 12.914,17.854 12.556,19.513 9.240 C 21.473 5.321,21.654 4.909,21.565 4.577 C 21.499 4.333,21.295 4.054,21.023 3.837 L 20.780 3.643 17.540 3.641 C 15.758 3.641,12.778 3.628,10.918 3.613 L 7.536 3.587 7.424 3.143 C 7.268 2.529,7.078 1.971,6.948 1.750 C 6.795 1.488,6.616 1.364,6.334 1.322 C 6.000 1.272,4.355 1.245,3.736 1.279 M7.493 18.055 C 6.582 18.283,5.885 19.217,6.033 20.012 C 6.173 20.764,6.815 21.407,7.583 21.564 C 8.041 21.657,8.609 21.443,9.024 21.020 C 9.295 20.744,9.443 20.476,9.548 20.070 C 9.615 19.813,9.615 19.787,9.548 19.530 C 9.447 19.141,9.291 18.855,9.039 18.597 C 8.615 18.162,7.970 17.936,7.493 18.055 M17.093 18.055 C 16.182 18.283,15.485 19.217,15.633 20.012 C 15.773 20.764,16.415 21.407,17.183 21.564 C 17.641 21.657,18.209 21.443,18.624 21.020 C 18.895 20.744,19.043 20.476,19.148 20.070 C 19.215 19.813,19.215 19.787,19.148 19.530 C 19.047 19.141,18.891 18.855,18.639 18.597 C 18.215 18.162,17.570 17.936,17.093 18.055 " fill="#373B4D" stroke="none" fill-rule="evenodd"></path></svg>