<svg width="24" height="24" viewBox="0 0 24 24" fill="none" xmlns="http://www.w3.org/2000/svg"><path d="M11.200 2.477 C 10.434 2.625,9.970 2.812,9.356 3.221 C 8.302 3.922,7.578 4.970,7.312 6.180 C 7.251 6.457,7.228 6.753,7.211 7.464 L 7.190 8.388 6.439 8.410 L 5.688 8.431 5.442 8.562 C 5.172 8.706,4.990 8.906,4.902 9.154 C 4.824 9.375,4.670 10.633,4.183 15.040 C 3.538 20.873,3.574 20.483,3.658 20.751 C 3.714 20.928,3.782 21.029,3.975 21.219 C 4.402 21.640,3.559 21.600,12.000 21.600 C 20.441 21.600,19.598 21.640,20.025 21.219 C 20.218 21.028,20.286 20.928,20.342 20.750 C 20.426 20.485,20.459 20.845,19.817 15.040 C 19.347 10.790,19.176 9.393,19.097 9.152 C 19.020 8.920,18.790 8.677,18.514 8.537 C 18.316 8.436,18.265 8.430,17.557 8.410 L 16.810 8.388 16.788 7.464 C 16.774 6.889,16.743 6.434,16.707 6.260 C 16.348 4.555,15.102 3.170,13.447 2.638 C 12.785 2.426,11.826 2.357,11.200 2.477 M12.640 4.905 C 13.232 5.072,13.812 5.535,14.087 6.062 C 14.334 6.535,14.365 6.693,14.389 7.590 L 14.411 8.400 12.000 8.400 L 9.589 8.400 9.612 7.590 C 9.637 6.729,9.671 6.529,9.858 6.156 C 10.380 5.114,11.535 4.595,12.640 4.905 M8.949 10.963 C 9.378 11.171,9.560 11.490,9.560 12.032 C 9.560 12.289,9.543 12.361,9.432 12.568 C 8.972 13.431,7.749 13.382,7.314 12.483 C 7.185 12.217,7.187 11.772,7.318 11.503 C 7.624 10.874,8.302 10.650,8.949 10.963 M16.149 10.963 C 16.578 11.171,16.760 11.490,16.760 12.032 C 16.760 12.289,16.743 12.361,16.632 12.568 C 16.172 13.431,14.949 13.382,14.514 12.483 C 14.385 12.217,14.387 11.772,14.518 11.503 C 14.824 10.874,15.502 10.650,16.149 10.963 " fill="#373B4D" stroke="none" fill-rule="evenodd"></path></svg>