<svg width="24" height="24" viewBox="0 0 24 24" fill="none" xmlns="http://www.w3.org/2000/svg"><path d="M11.379 2.483 C 10.969 2.523,10.515 2.658,10.056 2.877 C 9.467 3.158,9.073 3.438,8.598 3.916 C 7.704 4.814,7.363 5.587,7.242 6.980 C 7.219 7.244,7.201 7.671,7.200 7.930 L 7.200 8.400 6.927 8.400 C 6.588 8.400,5.830 8.472,5.632 8.523 C 5.448 8.571,5.118 8.828,5.004 9.014 C 4.829 9.296,4.752 9.870,4.141 15.380 C 3.648 19.829,3.586 20.451,3.617 20.616 C 3.648 20.773,3.986 21.235,4.180 21.383 C 4.308 21.481,4.379 21.500,4.714 21.527 C 4.926 21.545,7.503 21.570,10.440 21.583 C 15.833 21.608,19.352 21.569,19.648 21.481 C 19.835 21.426,20.262 20.970,20.319 20.765 C 20.413 20.429,20.367 19.887,19.859 15.320 C 19.224 9.611,19.146 9.109,18.844 8.806 C 18.588 8.551,18.300 8.480,17.256 8.417 L 16.812 8.391 16.787 7.585 C 16.758 6.694,16.689 6.180,16.536 5.723 C 16.107 4.441,15.061 3.336,13.772 2.805 C 13.320 2.618,12.865 2.519,12.360 2.497 C 12.107 2.486,11.846 2.472,11.780 2.466 C 11.714 2.460,11.533 2.468,11.379 2.483 M12.643 4.953 C 13.320 5.130,14.023 5.819,14.220 6.500 C 14.288 6.735,14.345 7.226,14.384 7.910 L 14.411 8.400 12.006 8.400 L 9.600 8.400 9.600 8.230 C 9.600 7.897,9.686 6.936,9.741 6.649 C 9.818 6.243,10.004 5.916,10.360 5.558 C 10.671 5.246,11.013 5.032,11.356 4.938 C 11.628 4.863,12.329 4.871,12.643 4.953 M8.842 10.961 C 9.054 11.018,9.295 11.245,9.401 11.488 C 9.527 11.776,9.533 12.260,9.415 12.520 C 9.189 13.018,8.618 13.264,8.062 13.102 C 7.751 13.012,7.448 12.716,7.349 12.405 C 7.272 12.166,7.260 11.814,7.320 11.597 C 7.392 11.339,7.755 10.983,8.015 10.916 C 8.159 10.879,8.633 10.904,8.842 10.961 M16.042 10.961 C 16.254 11.018,16.495 11.245,16.601 11.488 C 16.727 11.776,16.733 12.260,16.615 12.520 C 16.389 13.018,15.818 13.264,15.262 13.102 C 14.951 13.012,14.648 12.716,14.549 12.405 C 14.472 12.166,14.460 11.814,14.520 11.597 C 14.592 11.339,14.955 10.983,15.215 10.916 C 15.359 10.879,15.833 10.904,16.042 10.961 " fill="#373B4D" stroke="none" fill-rule="evenodd"></path></svg>