<svg width="24" height="24" viewBox="0 0 24 24" fill="none" xmlns="http://www.w3.org/2000/svg"><path d="M11.060 2.559 C 10.576 2.637,9.692 3.047,9.166 3.438 C 8.830 3.688,8.361 4.169,8.042 4.590 C 7.512 5.289,7.257 6.235,7.212 7.666 L 7.189 8.392 6.784 8.419 C 5.871 8.481,5.495 8.571,5.240 8.789 C 4.869 9.107,4.838 9.256,4.443 12.640 C 4.162 15.046,3.801 18.317,3.675 19.601 L 3.586 20.502 3.687 20.721 C 3.812 20.993,4.132 21.352,4.319 21.431 C 4.413 21.470,4.702 21.502,5.180 21.525 C 6.400 21.582,15.274 21.613,17.473 21.567 C 19.793 21.518,19.671 21.539,20.058 21.112 C 20.411 20.722,20.417 20.627,20.216 18.580 C 19.938 15.750,19.360 10.805,19.200 9.900 C 18.991 8.714,18.812 8.571,17.372 8.437 L 16.843 8.388 16.823 8.224 C 16.813 8.134,16.793 7.808,16.781 7.500 C 16.737 6.442,16.593 5.784,16.258 5.116 C 15.634 3.872,14.209 2.787,12.960 2.604 C 12.595 2.551,11.300 2.520,11.060 2.559 M12.334 4.940 C 13.030 5.061,13.548 5.398,13.923 5.972 C 14.007 6.100,14.111 6.316,14.155 6.452 C 14.235 6.699,14.333 7.383,14.384 8.050 L 14.411 8.400 12.006 8.400 L 9.600 8.400 9.600 8.259 C 9.600 8.070,9.712 7.001,9.763 6.700 C 9.900 5.894,10.744 5.061,11.564 4.925 C 11.881 4.873,11.955 4.874,12.334 4.940 M8.891 11.014 C 9.039 11.076,9.260 11.289,9.344 11.449 C 9.421 11.597,9.456 11.974,9.422 12.293 C 9.398 12.524,9.375 12.578,9.232 12.739 C 9.025 12.975,8.805 13.086,8.497 13.110 C 8.039 13.147,7.678 12.954,7.460 12.554 C 7.354 12.360,7.343 12.303,7.342 11.954 C 7.340 11.587,7.346 11.558,7.461 11.395 C 7.528 11.300,7.659 11.163,7.754 11.091 C 7.923 10.962,7.933 10.960,8.344 10.960 C 8.606 10.960,8.811 10.980,8.891 11.014 M16.091 11.014 C 16.239 11.076,16.460 11.289,16.544 11.449 C 16.621 11.597,16.656 11.974,16.622 12.293 C 16.598 12.524,16.575 12.578,16.432 12.739 C 16.225 12.975,16.005 13.086,15.697 13.110 C 15.239 13.147,14.878 12.954,14.660 12.554 C 14.554 12.360,14.543 12.303,14.542 11.954 C 14.540 11.587,14.546 11.558,14.661 11.395 C 14.728 11.300,14.859 11.163,14.954 11.091 C 15.123 10.962,15.133 10.960,15.544 10.960 C 15.806 10.960,16.011 10.980,16.091 11.014 " fill="#373B4D" stroke="none" fill-rule="evenodd"></path></svg>