<svg width="24" height="24" viewBox="0 0 24 24" fill="none" xmlns="http://www.w3.org/2000/svg"><path d="M7.180 3.122 C 6.625 3.196,5.845 3.521,5.252 3.926 C 4.856 4.196,4.114 4.936,3.874 5.300 C 2.992 6.637,2.798 8.065,3.288 9.599 C 3.355 9.808,3.459 10.106,3.521 10.261 L 3.632 10.541 3.590 11.241 C 3.471 13.242,3.921 15.040,4.927 16.585 C 6.010 18.249,7.548 19.409,9.480 20.018 C 10.450 20.324,11.088 20.408,12.520 20.418 L 13.660 20.426 13.985 20.570 C 15.282 21.142,16.855 21.089,18.129 20.432 C 19.040 19.961,20.071 18.895,20.455 18.028 C 20.618 17.660,20.833 16.956,20.899 16.578 C 20.979 16.119,20.978 15.226,20.897 14.799 C 20.863 14.617,20.757 14.251,20.662 13.984 L 20.489 13.500 20.465 12.260 C 20.449 11.486,20.418 10.870,20.380 10.620 C 20.110 8.822,18.927 6.730,17.500 5.528 C 16.215 4.445,14.721 3.793,13.031 3.577 C 12.608 3.523,12.301 3.513,11.523 3.530 L 10.547 3.550 10.143 3.413 C 9.541 3.209,9.254 3.160,8.440 3.119 C 7.600 3.078,7.512 3.078,7.180 3.122 M13.696 6.748 C 14.742 7.110,15.525 7.661,15.823 8.243 C 15.912 8.417,15.934 8.516,15.937 8.746 C 15.940 9.003,15.927 9.050,15.820 9.202 C 15.641 9.455,15.341 9.608,14.978 9.631 C 14.613 9.655,14.549 9.620,13.820 9.001 C 13.132 8.418,12.883 8.291,12.320 8.240 C 11.331 8.152,10.942 8.201,10.590 8.461 C 10.036 8.869,9.945 9.392,10.350 9.842 C 10.449 9.953,10.596 10.077,10.676 10.118 C 10.866 10.215,11.413 10.371,12.760 10.713 C 14.693 11.204,15.022 11.343,15.534 11.880 C 15.851 12.213,16.080 12.605,16.188 13.005 C 16.283 13.352,16.281 14.349,16.186 14.714 C 16.082 15.112,15.742 15.733,15.469 16.025 C 14.928 16.603,14.061 17.000,12.980 17.164 C 12.541 17.230,11.587 17.220,11.080 17.143 C 9.912 16.967,9.074 16.597,8.470 15.991 C 8.039 15.559,7.823 15.151,7.773 14.676 C 7.731 14.268,7.933 13.931,8.317 13.770 C 8.490 13.698,8.933 13.723,9.113 13.817 C 9.179 13.850,9.509 14.144,9.848 14.469 C 10.186 14.795,10.554 15.119,10.665 15.190 C 11.211 15.541,12.087 15.651,12.687 15.445 C 13.379 15.206,13.805 14.841,13.900 14.404 C 13.949 14.176,13.930 13.776,13.864 13.649 C 13.681 13.294,13.372 13.165,11.320 12.584 C 10.155 12.254,9.247 11.955,9.059 11.839 C 8.724 11.633,8.092 10.847,7.999 10.524 C 7.850 10.000,7.871 8.974,8.040 8.489 C 8.284 7.792,8.976 7.166,9.911 6.795 C 10.308 6.638,10.378 6.623,10.840 6.598 C 11.115 6.583,11.781 6.580,12.320 6.591 L 13.300 6.611 13.696 6.748 " fill="#373B4D" stroke="none" fill-rule="evenodd"></path></svg>