<svg width="24" height="24" viewBox="0 0 24 24" fill="none" xmlns="http://www.w3.org/2000/svg"><path d="M7.424 3.043 C 6.283 3.201,5.265 3.718,4.440 4.557 C 3.469 5.545,2.956 6.867,3.013 8.240 C 3.043 8.978,3.193 9.578,3.517 10.260 L 3.669 10.580 3.617 10.960 C 3.554 11.421,3.546 12.448,3.601 12.940 C 3.968 16.223,6.177 18.957,9.300 19.993 C 10.488 20.387,11.917 20.537,13.060 20.387 L 13.420 20.339 13.820 20.527 C 15.414 21.277,17.201 21.124,18.720 20.108 C 19.111 19.847,19.812 19.144,20.078 18.745 C 20.785 17.689,21.138 16.143,20.943 14.958 C 20.864 14.483,20.700 13.957,20.517 13.595 C 20.394 13.351,20.393 13.342,20.436 13.052 C 20.500 12.623,20.491 11.365,20.420 10.823 C 20.161 8.849,19.091 6.880,17.536 5.515 C 16.263 4.397,14.676 3.714,12.912 3.522 C 12.423 3.469,11.329 3.468,10.874 3.520 C 10.539 3.559,10.520 3.556,10.254 3.444 C 9.635 3.182,8.971 3.044,8.220 3.021 C 7.934 3.012,7.576 3.022,7.424 3.043 M13.051 6.560 C 14.096 6.762,15.032 7.218,15.548 7.776 C 16.118 8.391,16.153 9.112,15.631 9.465 C 15.309 9.683,14.783 9.731,14.460 9.571 C 14.394 9.539,14.124 9.293,13.860 9.025 C 13.455 8.614,13.333 8.515,13.080 8.393 C 12.647 8.184,12.421 8.140,11.780 8.140 C 11.134 8.140,10.890 8.199,10.550 8.437 C 10.252 8.644,10.106 8.899,10.087 9.244 C 10.073 9.482,10.085 9.541,10.174 9.693 C 10.360 10.011,10.801 10.261,11.418 10.399 C 11.617 10.443,12.275 10.589,12.880 10.723 C 14.371 11.052,14.690 11.164,15.226 11.544 C 15.958 12.063,16.320 12.812,16.320 13.808 C 16.320 14.817,16.035 15.546,15.401 16.160 C 14.604 16.932,13.114 17.334,11.530 17.202 C 10.072 17.081,9.041 16.664,8.334 15.908 C 7.696 15.227,7.528 14.395,7.943 13.980 C 8.182 13.740,8.367 13.670,8.716 13.686 C 9.137 13.705,9.325 13.821,9.672 14.274 C 10.017 14.723,10.413 15.113,10.662 15.247 C 10.967 15.412,11.413 15.521,11.880 15.546 C 12.589 15.583,13.115 15.421,13.538 15.035 C 13.840 14.759,13.975 14.470,13.975 14.100 C 13.975 13.664,13.775 13.363,13.340 13.146 C 13.229 13.090,12.437 12.869,11.560 12.648 C 9.455 12.119,9.103 11.976,8.538 11.420 C 8.012 10.903,7.816 10.336,7.849 9.425 C 7.876 8.678,8.045 8.210,8.475 7.684 C 8.773 7.321,9.416 6.923,10.026 6.726 C 10.908 6.442,12.102 6.376,13.051 6.560 " fill="#373B4D" stroke="none" fill-rule="evenodd"></path></svg>