<svg width="24" height="24" viewBox="0 0 24 24" fill="none" xmlns="http://www.w3.org/2000/svg"><path d="M7.105 3.100 C 5.220 3.491,3.673 4.935,3.181 6.760 C 2.877 7.890,2.976 9.043,3.474 10.157 C 3.667 10.590,3.668 10.597,3.627 10.827 C 3.603 10.955,3.584 11.492,3.583 12.020 C 3.582 12.774,3.597 13.062,3.653 13.360 C 3.944 14.919,4.507 16.174,5.432 17.323 C 5.740 17.706,6.495 18.436,6.888 18.731 C 8.592 20.008,10.916 20.638,13.028 20.393 L 13.435 20.346 13.788 20.509 C 15.178 21.151,16.610 21.155,17.985 20.520 C 18.632 20.221,19.149 19.822,19.722 19.179 C 20.235 18.604,20.574 17.940,20.801 17.066 C 21.123 15.824,21.054 14.854,20.559 13.693 L 20.402 13.326 20.446 12.973 C 20.503 12.512,20.466 11.005,20.387 10.580 C 20.053 8.789,19.205 7.169,17.938 5.899 C 16.161 4.120,13.631 3.259,10.947 3.520 L 10.553 3.559 10.187 3.416 C 9.502 3.150,9.082 3.074,8.180 3.058 C 7.592 3.047,7.307 3.058,7.105 3.100 M13.290 6.613 C 14.168 6.823,14.973 7.223,15.444 7.685 C 15.884 8.117,16.086 8.638,15.960 9.019 C 15.807 9.483,15.159 9.779,14.632 9.625 C 14.448 9.572,14.346 9.494,13.868 9.039 C 13.039 8.252,12.768 8.143,11.687 8.167 C 11.082 8.180,11.051 8.184,10.800 8.304 C 10.458 8.467,10.218 8.709,10.140 8.972 C 10.017 9.388,10.078 9.639,10.370 9.907 C 10.709 10.218,10.885 10.279,12.508 10.642 C 14.426 11.071,14.734 11.177,15.288 11.597 C 15.928 12.081,16.251 12.716,16.307 13.600 C 16.400 15.088,15.704 16.243,14.371 16.811 C 13.173 17.321,11.418 17.362,10.000 16.913 C 9.270 16.681,8.629 16.272,8.226 15.779 C 7.807 15.267,7.626 14.657,7.776 14.264 C 7.864 14.035,8.141 13.779,8.366 13.718 C 8.569 13.663,8.940 13.692,9.130 13.777 C 9.301 13.854,9.364 13.914,9.724 14.340 C 10.492 15.249,10.896 15.477,11.863 15.545 C 12.550 15.594,13.170 15.390,13.581 14.980 C 13.847 14.716,13.933 14.528,13.953 14.168 C 13.974 13.787,13.895 13.575,13.653 13.362 C 13.429 13.165,13.231 13.090,12.264 12.836 C 9.746 12.175,9.425 12.073,9.014 11.805 C 8.556 11.506,8.120 10.984,7.983 10.567 C 7.766 9.911,7.824 8.828,8.104 8.270 C 8.396 7.688,8.769 7.328,9.432 6.987 C 10.193 6.595,10.815 6.477,12.020 6.497 C 12.753 6.509,12.915 6.524,13.290 6.613 " fill="#373B4D" stroke="none" fill-rule="evenodd"></path></svg>