<svg width="24" height="24" viewBox="0 0 24 24" fill="none" xmlns="http://www.w3.org/2000/svg"><path d="M6.960 3.155 C 5.401 3.502,3.945 4.756,3.366 6.253 C 2.856 7.572,2.899 8.692,3.522 10.265 L 3.635 10.550 3.594 11.205 C 3.499 12.725,3.695 14.001,4.215 15.247 C 5.059 17.268,6.623 18.853,8.600 19.692 C 10.039 20.302,11.262 20.493,13.160 20.402 C 13.535 20.384,13.545 20.386,13.923 20.550 C 14.569 20.831,15.001 20.926,15.740 20.949 C 16.234 20.965,16.462 20.954,16.740 20.903 C 17.803 20.707,18.602 20.277,19.421 19.460 C 20.208 18.676,20.592 17.957,20.864 16.760 C 20.944 16.409,20.959 16.231,20.959 15.680 C 20.959 14.924,20.911 14.659,20.635 13.914 L 20.467 13.460 20.460 12.240 C 20.453 10.944,20.408 10.524,20.194 9.760 C 19.794 8.328,18.806 6.710,17.729 5.724 C 15.976 4.120,13.684 3.348,11.195 3.523 L 10.599 3.565 10.116 3.399 C 9.461 3.173,9.124 3.122,8.140 3.099 C 7.415 3.083,7.253 3.090,6.960 3.155 M13.670 6.733 C 15.075 7.204,15.960 7.989,15.960 8.764 C 15.960 9.022,15.873 9.205,15.669 9.380 C 15.375 9.632,14.853 9.728,14.558 9.584 C 14.482 9.548,14.159 9.292,13.840 9.017 C 13.117 8.393,12.916 8.286,12.374 8.238 C 12.157 8.219,11.773 8.202,11.520 8.202 C 11.114 8.201,11.035 8.212,10.849 8.299 C 10.540 8.443,10.219 8.763,10.138 9.007 C 10.010 9.392,10.172 9.782,10.571 10.054 C 10.797 10.207,11.033 10.277,13.040 10.782 C 14.725 11.206,15.029 11.339,15.569 11.892 C 15.893 12.224,16.116 12.648,16.221 13.132 C 16.305 13.516,16.285 14.370,16.185 14.740 C 16.094 15.075,15.796 15.661,15.592 15.907 C 14.596 17.109,12.302 17.553,10.171 16.957 C 9.268 16.705,8.519 16.193,8.066 15.520 C 7.798 15.122,7.684 14.538,7.814 14.229 C 7.875 14.083,8.154 13.816,8.305 13.758 C 8.441 13.707,8.764 13.710,8.992 13.766 C 9.157 13.806,9.247 13.878,9.735 14.368 C 10.579 15.215,10.845 15.385,11.506 15.500 C 11.935 15.575,12.144 15.575,12.500 15.500 C 13.038 15.387,13.661 14.989,13.818 14.658 C 13.922 14.440,13.966 14.056,13.917 13.811 C 13.882 13.637,13.843 13.574,13.677 13.425 C 13.424 13.198,13.136 13.093,11.560 12.654 C 10.156 12.263,9.332 11.998,9.100 11.862 C 8.763 11.664,8.273 11.114,8.064 10.696 C 7.872 10.312,7.829 9.246,7.982 8.658 C 8.155 7.993,8.725 7.359,9.500 6.970 C 9.816 6.812,10.281 6.647,10.535 6.602 C 10.648 6.582,11.298 6.570,11.980 6.574 L 13.220 6.583 13.670 6.733 " fill="#373B4D" stroke="none" fill-rule="evenodd"></path></svg>