<svg width="24" height="24" viewBox="0 0 24 24" fill="none" xmlns="http://www.w3.org/2000/svg"><path d="M7.340 3.082 C 5.867 3.225,4.275 4.380,3.541 5.840 C 2.877 7.160,2.842 8.587,3.437 10.060 L 3.637 10.555 3.599 11.308 C 3.526 12.727,3.623 13.543,3.997 14.680 C 4.447 16.045,5.161 17.157,6.223 18.150 C 7.118 18.986,7.956 19.495,9.108 19.904 C 10.386 20.358,11.643 20.522,12.929 20.403 L 13.460 20.354 13.764 20.496 C 14.495 20.835,15.127 20.978,15.900 20.978 C 16.892 20.978,17.808 20.702,18.640 20.153 C 18.963 19.939,19.699 19.232,19.963 18.882 C 20.522 18.140,20.932 16.939,20.989 15.877 C 21.026 15.181,20.897 14.525,20.563 13.705 C 20.406 13.322,20.403 13.304,20.440 13.045 C 20.489 12.705,20.489 11.721,20.440 11.087 C 20.334 9.720,19.697 8.115,18.763 6.860 C 18.418 6.395,17.750 5.697,17.320 5.349 C 15.607 3.965,13.330 3.305,11.014 3.522 L 10.567 3.564 10.194 3.419 C 9.600 3.190,9.256 3.122,8.460 3.080 C 8.064 3.059,7.722 3.044,7.700 3.047 C 7.678 3.049,7.516 3.065,7.340 3.082 M13.110 6.583 C 13.489 6.651,14.144 6.871,14.497 7.048 C 15.534 7.567,16.132 8.365,15.956 8.993 C 15.843 9.398,15.294 9.718,14.814 9.660 C 14.549 9.628,14.365 9.507,13.840 9.019 C 13.023 8.260,12.827 8.180,11.780 8.180 C 11.066 8.180,11.058 8.181,10.823 8.296 C 10.042 8.680,9.842 9.435,10.393 9.925 C 10.724 10.219,10.765 10.232,13.260 10.821 C 14.604 11.138,15.058 11.342,15.579 11.864 C 16.583 12.868,16.552 14.884,15.514 16.019 C 14.452 17.181,12.122 17.559,10.000 16.912 C 8.852 16.562,7.945 15.718,7.761 14.825 C 7.667 14.373,7.810 14.035,8.188 13.813 C 8.352 13.716,8.421 13.701,8.660 13.704 C 9.069 13.710,9.246 13.802,9.580 14.184 C 10.506 15.242,10.874 15.464,11.830 15.544 C 12.532 15.602,13.172 15.383,13.615 14.934 C 13.876 14.669,13.937 14.510,13.938 14.094 C 13.940 13.749,13.933 13.717,13.818 13.554 C 13.673 13.345,13.382 13.163,13.012 13.048 C 12.863 13.001,12.191 12.817,11.520 12.639 C 10.089 12.259,9.419 12.046,9.134 11.882 C 8.679 11.619,8.149 11.014,7.998 10.584 C 7.825 10.092,7.819 9.162,7.984 8.594 C 8.244 7.704,9.158 6.948,10.351 6.635 C 10.897 6.492,12.441 6.463,13.110 6.583 " fill="#373B4D" stroke="none" fill-rule="evenodd"></path></svg>