<svg width="24" height="24" viewBox="0 0 24 24" fill="none" xmlns="http://www.w3.org/2000/svg"><path d="M9.320 3.046 C 8.860 3.122,8.363 3.449,8.076 3.865 C 7.917 4.097,7.760 4.588,7.760 4.855 C 7.760 5.395,7.930 5.796,8.327 6.193 C 8.832 6.698,9.064 6.757,10.574 6.759 L 11.528 6.760 11.512 5.670 C 11.497 4.667,11.489 4.560,11.406 4.327 C 11.291 4.000,11.157 3.791,10.914 3.558 C 10.485 3.147,9.882 2.953,9.320 3.046 M13.839 3.098 C 13.147 3.353,12.643 3.912,12.520 4.561 C 12.467 4.841,12.467 9.678,12.520 9.958 C 12.709 10.958,13.780 11.685,14.736 11.462 C 15.320 11.327,15.810 10.929,16.096 10.358 L 16.240 10.069 16.240 7.260 L 16.240 4.451 16.096 4.162 C 15.831 3.633,15.364 3.228,14.866 3.096 C 14.609 3.027,14.027 3.028,13.839 3.098 M18.620 7.816 C 18.306 7.894,18.081 8.031,17.797 8.316 C 17.454 8.660,17.282 9.003,17.237 9.430 C 17.219 9.600,17.203 10.140,17.202 10.630 L 17.200 11.520 18.130 11.519 C 19.257 11.518,19.528 11.485,19.904 11.301 C 20.838 10.843,21.216 9.756,20.770 8.805 C 20.628 8.502,20.241 8.121,19.920 7.970 C 19.495 7.769,19.032 7.714,18.620 7.816 M4.356 7.837 C 3.976 7.912,3.435 8.378,3.218 8.818 C 3.026 9.206,2.973 9.518,3.036 9.874 C 3.167 10.604,3.631 11.158,4.322 11.407 L 4.580 11.500 7.240 11.500 C 9.886 11.500,9.901 11.500,10.186 11.410 C 10.845 11.203,11.368 10.582,11.492 9.861 C 11.615 9.141,11.174 8.344,10.440 7.963 L 10.128 7.800 7.314 7.805 C 5.766 7.807,4.435 7.822,4.356 7.837 M4.850 12.520 C 4.444 12.545,4.372 12.562,4.110 12.691 C 3.511 12.987,3.098 13.566,3.052 14.171 C 3.007 14.768,3.191 15.278,3.602 15.688 C 4.187 16.273,5.006 16.397,5.787 16.017 C 6.229 15.803,6.669 15.160,6.758 14.600 C 6.781 14.457,6.800 13.922,6.800 13.410 L 6.800 12.480 6.050 12.486 C 5.638 12.490,5.097 12.505,4.850 12.520 M14.620 12.521 C 13.687 12.555,13.434 12.644,13.014 13.089 C 12.063 14.095,12.447 15.626,13.786 16.166 L 14.020 16.260 16.763 16.260 L 19.506 16.260 19.855 16.087 C 20.268 15.883,20.560 15.610,20.749 15.255 C 20.890 14.990,20.998 14.592,20.999 14.338 C 21.000 14.136,20.903 13.756,20.791 13.520 C 20.673 13.274,20.232 12.845,19.934 12.689 C 19.697 12.564,19.669 12.559,19.094 12.540 C 18.029 12.505,15.357 12.494,14.620 12.521 M9.145 12.564 C 8.661 12.678,8.182 13.086,7.922 13.605 L 7.756 13.937 7.769 16.699 C 7.782 19.435,7.783 19.462,7.871 19.720 C 8.027 20.175,8.407 20.577,8.920 20.831 C 9.123 20.931,9.178 20.940,9.622 20.940 C 10.099 20.940,10.108 20.938,10.408 20.790 C 10.768 20.612,11.113 20.291,11.266 19.990 C 11.495 19.538,11.492 19.572,11.510 17.029 C 11.528 14.291,11.512 14.012,11.302 13.572 C 11.052 13.043,10.571 12.665,10.023 12.564 C 9.745 12.513,9.365 12.513,9.145 12.564 M12.488 18.304 C 12.504 19.386,12.507 19.429,12.609 19.712 C 12.934 20.620,13.899 21.138,14.818 20.899 C 15.655 20.681,16.240 19.931,16.240 19.076 C 16.240 18.793,16.111 18.361,15.953 18.110 C 15.710 17.729,15.237 17.389,14.795 17.279 C 14.699 17.255,14.137 17.225,13.546 17.212 L 12.472 17.189 12.488 18.304 " fill="#373B4D" stroke="none" fill-rule="evenodd"></path></svg>