<svg width="24" height="24" viewBox="0 0 24 24" fill="none" xmlns="http://www.w3.org/2000/svg"><path d="M9.191 3.062 C 8.550 3.218,8.054 3.679,7.839 4.320 C 7.725 4.661,7.742 5.222,7.877 5.571 C 8.057 6.035,8.477 6.456,8.950 6.647 C 9.169 6.735,9.236 6.740,10.350 6.752 L 11.520 6.764 11.520 5.768 C 11.520 5.219,11.502 4.674,11.479 4.555 C 11.372 3.985,10.972 3.459,10.460 3.215 C 10.010 3.000,9.633 2.955,9.191 3.062 M14.080 3.027 C 13.911 3.054,13.508 3.207,13.360 3.300 C 13.180 3.414,12.894 3.700,12.780 3.880 C 12.731 3.957,12.648 4.137,12.596 4.280 L 12.500 4.540 12.500 7.260 L 12.500 9.980 12.596 10.240 C 12.781 10.744,13.088 11.089,13.548 11.309 C 14.627 11.826,15.830 11.286,16.186 10.124 C 16.265 9.865,16.265 4.655,16.186 4.396 C 16.033 3.897,15.664 3.435,15.250 3.225 C 14.896 3.046,14.444 2.969,14.080 3.027 M4.380 7.817 C 4.045 7.924,3.812 8.064,3.570 8.304 C 2.985 8.885,2.850 9.697,3.211 10.452 C 3.459 10.972,3.982 11.371,4.555 11.479 C 4.687 11.504,5.744 11.520,7.260 11.520 C 8.776 11.520,9.833 11.504,9.965 11.479 C 10.746 11.332,11.367 10.683,11.490 9.884 C 11.631 8.976,11.052 8.098,10.124 7.814 C 9.873 7.737,4.620 7.740,4.380 7.817 M18.580 7.816 C 17.887 8.036,17.369 8.610,17.243 9.297 C 17.220 9.428,17.200 9.981,17.200 10.527 L 17.200 11.520 18.230 11.519 C 19.348 11.519,19.589 11.488,19.964 11.298 C 20.393 11.080,20.774 10.612,20.900 10.145 C 21.010 9.738,20.973 9.218,20.810 8.868 C 20.477 8.157,19.845 7.756,19.066 7.763 C 18.887 7.764,18.668 7.788,18.580 7.816 M4.471 12.542 C 3.813 12.702,3.272 13.220,3.100 13.855 C 2.990 14.262,3.027 14.782,3.190 15.132 C 3.435 15.655,3.832 16.002,4.370 16.166 C 4.598 16.235,4.717 16.247,5.022 16.231 C 5.345 16.214,5.435 16.192,5.700 16.067 C 6.253 15.804,6.649 15.293,6.757 14.703 C 6.780 14.572,6.800 14.019,6.800 13.473 L 6.800 12.480 5.750 12.483 C 5.001 12.486,4.634 12.503,4.471 12.542 M9.191 12.540 C 8.548 12.703,8.053 13.162,7.843 13.789 C 7.762 14.031,7.760 14.111,7.760 16.711 C 7.760 19.613,7.756 19.558,7.985 20.010 C 8.134 20.304,8.484 20.627,8.834 20.793 C 9.100 20.919,9.183 20.939,9.512 20.953 C 9.787 20.965,9.957 20.951,10.145 20.900 C 10.612 20.774,11.080 20.393,11.298 19.964 C 11.514 19.538,11.519 19.469,11.519 16.755 C 11.520 15.226,11.504 14.167,11.479 14.035 C 11.389 13.558,11.036 13.029,10.641 12.781 C 10.241 12.530,9.630 12.428,9.191 12.540 M13.880 12.553 C 12.529 12.906,12.027 14.592,12.967 15.620 C 13.215 15.891,13.457 16.051,13.794 16.168 L 14.060 16.260 16.760 16.260 L 19.460 16.260 19.697 16.170 C 21.269 15.572,21.459 13.542,20.020 12.717 C 19.618 12.486,19.533 12.480,16.712 12.482 C 14.425 12.484,14.111 12.492,13.880 12.553 M12.481 18.230 C 12.481 19.348,12.512 19.589,12.702 19.964 C 12.920 20.393,13.388 20.774,13.855 20.900 C 14.262 21.010,14.782 20.973,15.132 20.810 C 15.655 20.565,16.002 20.168,16.166 19.630 C 16.235 19.402,16.247 19.283,16.231 18.978 C 16.214 18.655,16.192 18.565,16.067 18.300 C 15.804 17.747,15.293 17.351,14.703 17.243 C 14.572 17.220,14.019 17.200,13.473 17.200 L 12.480 17.200 12.481 18.230 " fill="#373B4D" stroke="none" fill-rule="evenodd"></path></svg>