<svg width="24" height="24" viewBox="0 0 24 24" fill="none" xmlns="http://www.w3.org/2000/svg"><path d="M9.219 3.077 C 8.987 3.133,8.522 3.410,8.316 3.614 C 7.922 4.006,7.699 4.669,7.793 5.172 C 7.861 5.542,8.053 5.895,8.342 6.184 C 8.826 6.668,9.028 6.722,10.450 6.749 L 11.520 6.769 11.520 5.954 C 11.520 5.057,11.475 4.578,11.361 4.252 C 11.148 3.648,10.524 3.168,9.840 3.082 C 9.466 3.035,9.396 3.035,9.219 3.077 M13.780 3.126 C 13.558 3.210,13.248 3.442,12.987 3.718 C 12.673 4.052,12.569 4.299,12.514 4.850 C 12.458 5.405,12.493 9.805,12.555 10.036 C 12.646 10.371,12.810 10.652,13.063 10.905 C 13.723 11.564,14.636 11.664,15.393 11.159 C 15.643 10.992,15.996 10.571,16.158 10.247 L 16.245 10.074 16.232 7.267 L 16.220 4.460 16.096 4.197 C 15.923 3.833,15.555 3.449,15.199 3.262 C 14.925 3.118,14.903 3.114,14.408 3.097 C 14.085 3.087,13.856 3.097,13.780 3.126 M18.698 7.816 C 18.171 7.944,17.656 8.366,17.415 8.869 C 17.241 9.229,17.204 9.558,17.201 10.735 L 17.200 11.529 18.250 11.510 C 19.057 11.494,19.355 11.474,19.537 11.424 C 20.229 11.230,20.735 10.694,20.903 9.976 C 21.129 9.011,20.441 8.046,19.365 7.818 C 19.051 7.751,18.966 7.751,18.698 7.816 M5.679 7.838 L 4.218 7.860 4.015 7.990 C 3.701 8.192,3.336 8.597,3.189 8.908 C 3.068 9.163,3.060 9.207,3.060 9.620 C 3.060 10.045,3.065 10.070,3.209 10.372 C 3.499 10.979,4.067 11.397,4.722 11.485 C 4.935 11.514,5.853 11.522,7.451 11.510 C 9.558 11.494,9.890 11.483,10.100 11.424 C 10.944 11.185,11.645 10.134,11.482 9.351 C 11.371 8.817,10.967 8.292,10.418 7.967 L 10.135 7.800 8.638 7.808 C 7.814 7.812,6.483 7.826,5.679 7.838 M5.175 12.522 C 4.470 12.553,4.329 12.584,4.000 12.782 C 2.909 13.436,2.734 14.775,3.623 15.664 C 4.088 16.130,4.645 16.314,5.214 16.190 C 5.790 16.065,6.109 15.848,6.447 15.349 C 6.534 15.222,6.631 15.043,6.663 14.951 C 6.743 14.724,6.799 14.002,6.799 13.170 L 6.800 12.480 6.310 12.486 C 6.040 12.490,5.530 12.506,5.175 12.522 M9.249 12.564 C 9.133 12.584,8.944 12.647,8.829 12.705 C 8.551 12.846,8.089 13.317,7.907 13.644 L 7.760 13.908 7.761 16.284 C 7.763 19.091,7.786 19.549,7.945 19.873 C 8.090 20.171,8.544 20.620,8.880 20.799 C 9.135 20.935,9.150 20.938,9.620 20.939 C 10.070 20.940,10.115 20.933,10.337 20.824 C 10.649 20.670,11.152 20.190,11.294 19.909 C 11.483 19.534,11.494 19.361,11.495 16.720 C 11.496 14.094,11.488 13.961,11.298 13.573 C 11.186 13.344,10.844 12.974,10.602 12.821 C 10.256 12.603,9.677 12.493,9.249 12.564 M14.820 12.555 C 13.877 12.579,13.809 12.585,13.628 12.675 C 13.030 12.969,12.644 13.465,12.515 14.107 C 12.454 14.410,12.510 14.779,12.669 15.117 C 12.814 15.427,13.296 15.901,13.680 16.113 L 13.980 16.279 16.731 16.279 L 19.482 16.280 19.714 16.163 C 20.122 15.957,20.500 15.624,20.711 15.286 C 20.830 15.093,21.000 14.554,21.000 14.366 C 21.000 14.174,20.900 13.789,20.792 13.564 C 20.690 13.353,20.171 12.827,19.954 12.717 C 19.869 12.674,19.668 12.621,19.508 12.601 C 19.125 12.552,16.093 12.523,14.820 12.555 M12.481 18.004 C 12.483 19.167,12.521 19.496,12.697 19.868 C 13.064 20.641,13.941 21.094,14.704 20.907 C 15.105 20.808,15.387 20.652,15.664 20.376 C 16.414 19.630,16.416 18.569,15.669 17.822 C 15.526 17.678,15.312 17.517,15.174 17.447 C 14.880 17.299,14.534 17.256,13.308 17.215 L 12.480 17.187 12.481 18.004 " fill="#373B4D" stroke="none" fill-rule="evenodd"></path></svg>