<svg width="24" height="24" viewBox="0 0 24 24" fill="none" xmlns="http://www.w3.org/2000/svg"><path d="M9.140 3.096 C 8.713 3.232,8.309 3.527,8.083 3.868 C 7.922 4.111,7.760 4.626,7.760 4.894 C 7.760 5.166,7.857 5.534,7.989 5.760 C 8.162 6.056,8.548 6.429,8.817 6.560 C 9.142 6.718,9.527 6.760,10.629 6.760 L 11.520 6.760 11.520 5.910 C 11.519 4.834,11.479 4.466,11.323 4.134 C 11.109 3.677,10.667 3.289,10.171 3.123 C 9.885 3.027,9.397 3.015,9.140 3.096 M13.929 3.080 C 13.652 3.139,13.359 3.320,13.057 3.619 C 12.728 3.946,12.579 4.225,12.521 4.627 C 12.469 4.986,12.469 9.534,12.521 9.893 C 12.575 10.264,12.722 10.557,13.011 10.866 C 13.414 11.296,13.839 11.490,14.380 11.490 C 15.082 11.489,15.686 11.095,16.084 10.380 L 16.239 10.100 16.239 7.268 C 16.240 4.058,16.273 4.387,15.895 3.852 C 15.679 3.547,15.454 3.360,15.114 3.201 C 14.897 3.099,14.790 3.076,14.477 3.061 C 14.270 3.051,14.023 3.060,13.929 3.080 M18.715 7.801 C 18.134 7.899,17.513 8.462,17.314 9.073 C 17.236 9.314,17.226 9.448,17.209 10.434 L 17.191 11.529 18.286 11.511 C 19.252 11.495,19.409 11.483,19.630 11.411 C 20.759 11.039,21.286 9.771,20.734 8.756 C 20.481 8.291,19.896 7.885,19.360 7.801 C 19.069 7.756,18.981 7.756,18.715 7.801 M4.800 7.837 C 4.252 7.859,4.209 7.866,4.020 7.977 C 3.722 8.150,3.347 8.551,3.206 8.847 C 3.140 8.986,3.063 9.222,3.036 9.371 C 2.940 9.891,3.172 10.527,3.611 10.948 C 3.874 11.201,4.072 11.320,4.434 11.445 C 4.638 11.515,4.802 11.520,6.856 11.518 C 8.068 11.517,9.298 11.502,9.590 11.484 C 10.088 11.454,10.137 11.444,10.415 11.306 C 11.139 10.948,11.621 10.069,11.488 9.350 C 11.383 8.785,10.996 8.274,10.440 7.967 L 10.140 7.801 7.760 7.808 C 6.451 7.812,5.119 7.825,4.800 7.837 M4.975 12.521 C 4.443 12.549,4.393 12.558,4.137 12.684 C 2.944 13.272,2.675 14.749,3.594 15.668 C 4.084 16.157,4.667 16.331,5.309 16.180 C 5.822 16.059,6.120 15.851,6.414 15.409 C 6.746 14.909,6.773 14.774,6.792 13.550 L 6.808 12.480 6.174 12.486 C 5.825 12.490,5.286 12.505,4.975 12.521 M9.169 12.562 C 8.727 12.650,8.172 13.120,7.905 13.633 L 7.752 13.926 7.769 16.713 C 7.785 19.491,7.785 19.501,7.875 19.729 C 8.058 20.193,8.409 20.562,8.921 20.828 C 9.122 20.932,9.169 20.940,9.619 20.940 C 10.085 20.940,10.111 20.936,10.373 20.806 C 10.762 20.615,11.126 20.261,11.303 19.901 C 11.445 19.614,11.447 19.604,11.486 18.876 C 11.508 18.471,11.518 17.240,11.510 16.140 C 11.492 13.965,11.486 13.902,11.253 13.474 C 11.102 13.196,10.749 12.859,10.465 12.721 C 10.097 12.543,9.587 12.480,9.169 12.562 M14.040 12.565 C 13.458 12.632,12.961 13.003,12.676 13.583 C 12.216 14.516,12.642 15.601,13.666 16.107 L 13.976 16.260 16.730 16.271 L 19.485 16.282 19.810 16.112 C 20.429 15.790,20.784 15.354,20.944 14.721 C 21.023 14.407,21.003 14.128,20.875 13.740 C 20.797 13.504,20.738 13.415,20.495 13.160 C 20.337 12.995,20.106 12.799,19.982 12.724 C 19.773 12.598,19.723 12.586,19.288 12.557 C 18.663 12.515,14.420 12.521,14.040 12.565 M12.481 18.110 C 12.482 18.610,12.500 19.155,12.521 19.320 C 12.617 20.070,13.181 20.704,13.930 20.903 C 14.520 21.060,15.205 20.865,15.667 20.408 C 16.608 19.477,16.350 18.016,15.137 17.415 C 14.859 17.277,14.844 17.274,14.137 17.239 C 13.743 17.219,13.208 17.202,12.950 17.201 L 12.480 17.200 12.481 18.110 " fill="#373B4D" stroke="none" fill-rule="evenodd"></path></svg>