<svg width="24" height="24" viewBox="0 0 24 24" fill="none" xmlns="http://www.w3.org/2000/svg"><path d="M11.320 3.464 C 10.415 3.574,9.833 3.759,9.318 4.101 C 8.848 4.414,8.680 4.641,7.986 5.901 C 7.639 6.532,7.360 7.054,7.368 7.061 C 7.375 7.068,7.506 7.013,7.660 6.939 C 8.720 6.428,10.445 6.380,12.122 6.816 C 13.997 7.304,16.408 8.543,18.420 10.054 C 18.639 10.219,18.822 10.351,18.825 10.347 C 18.852 10.314,20.564 7.237,20.582 7.188 C 20.612 7.112,20.161 6.768,19.218 6.149 C 17.074 4.741,14.911 3.818,13.100 3.539 C 12.704 3.478,11.590 3.431,11.320 3.464 M9.112 6.978 C 8.561 7.058,8.157 7.176,7.724 7.386 C 7.411 7.537,7.290 7.626,6.999 7.914 C 6.472 8.437,6.260 8.942,6.265 9.660 C 6.268 10.095,6.351 10.431,6.562 10.862 C 6.728 11.200,7.165 11.781,7.355 11.916 L 7.467 11.996 10.063 11.096 C 11.492 10.601,12.795 10.160,12.960 10.116 C 13.406 9.997,14.159 9.971,14.682 10.057 C 15.440 10.182,16.242 10.512,16.785 10.923 C 16.919 11.025,17.048 11.120,17.070 11.134 C 17.105 11.155,17.504 11.029,18.471 10.691 C 18.687 10.616,18.686 10.615,18.083 10.182 C 15.749 8.507,13.345 7.400,11.252 7.038 C 10.634 6.931,9.636 6.903,9.112 6.978 M13.179 10.361 C 13.002 10.379,12.745 10.422,12.607 10.458 C 12.291 10.540,5.556 12.868,5.514 12.910 C 5.461 12.963,3.683 16.376,3.700 16.393 C 3.708 16.402,5.161 15.832,6.928 15.128 C 8.694 14.424,10.257 13.819,10.400 13.785 C 11.826 13.443,13.368 13.779,14.496 14.677 C 15.119 15.173,15.552 15.814,15.785 16.588 C 15.878 16.895,15.891 17.009,15.890 17.480 C 15.890 17.777,15.871 18.074,15.848 18.140 C 15.813 18.242,15.806 18.212,15.803 17.936 C 15.787 16.430,14.488 15.030,12.648 14.534 C 12.127 14.394,11.233 14.359,10.707 14.457 C 10.482 14.500,9.116 14.954,6.927 15.715 C 5.042 16.371,3.473 16.916,3.441 16.927 C 3.332 16.962,4.598 17.848,5.659 18.479 C 7.891 19.805,10.028 20.547,11.840 20.626 C 13.361 20.692,14.694 20.220,15.296 19.401 C 15.496 19.129,17.690 14.976,17.809 14.643 C 17.922 14.329,17.949 13.669,17.864 13.307 C 17.782 12.958,17.570 12.500,17.345 12.186 C 17.121 11.873,16.615 11.384,16.285 11.162 C 15.409 10.572,14.194 10.258,13.179 10.361 M15.787 18.367 C 15.775 18.399,15.765 18.390,15.763 18.343 C 15.761 18.301,15.771 18.278,15.784 18.291 C 15.797 18.304,15.799 18.339,15.787 18.367 " fill="#414146" stroke="none" fill-rule="evenodd"></path></svg>