<svg width="24" height="24" viewBox="0 0 24 24" fill="none" xmlns="http://www.w3.org/2000/svg">
<path fill-rule="evenodd" clip-rule="evenodd" d="M10.471 3.6027C14.906 2.52479 20.6204 7.13779 20.6204 7.13779L18.8176 10.3567C17.7827 9.53259 12.547 5.63212 8.38775 6.67629L8.32925 6.69231L8.32925 6.69231C8.21032 6.72475 8.08661 6.7585 7.97959 6.80147C7.73919 6.88729 7.5189 6.9937 7.3197 7.11758L8.41078 5.13264C8.43128 5.09758 8.45023 5.06086 8.46939 5.02373C8.5009 4.96268 8.53297 4.90054 8.57343 4.84288C8.88789 4.35608 9.39753 3.95041 10.0807 3.7186C10.183 3.67882 10.3013 3.64757 10.4151 3.61753C10.4339 3.61257 10.4526 3.60763 10.471 3.6027Z" fill="#414146"/>
<path fill-rule="evenodd" clip-rule="evenodd" d="M12.2711 10.5454C14.082 9.91952 16.3916 10.7077 17.4326 12.2956C18.0398 13.2228 18.0832 14.2196 17.6494 15.0309L15.4808 19.1571L15.4343 19.1486C16.0582 18.1617 16.0918 16.8297 15.3878 15.6824C14.2994 13.9085 11.8561 13.2233 9.96263 13.9225L3.64136 16.4436L5.50486 12.8867L12.2711 10.5454Z" fill="#414146"/>
<path d="M15.3072 16.3406C14.2663 14.7527 11.9566 13.9646 10.1458 14.5905L3.37952 16.9433C3.37952 16.9433 9.09397 21.5563 13.5289 20.4784C13.659 20.4436 13.8 20.4089 13.9193 20.3625C15.7301 19.7366 16.3482 17.9285 15.3072 16.3406Z" fill="#414146"/>
<path fill-rule="evenodd" clip-rule="evenodd" d="M8.47413 7.09469C8.49294 7.08973 8.51162 7.08479 8.53008 7.07986C12.965 6.00194 18.6795 10.615 18.6795 10.6265L17.0986 11.1736C15.9171 10.135 14.1074 9.70426 12.6298 10.215L7.44435 12.0092C7.17787 11.775 6.94334 11.5099 6.75177 11.2177C5.7108 9.62976 6.32888 7.82165 8.13972 7.19576C8.24207 7.15598 8.36039 7.12473 8.47413 7.09469Z" fill="#414146"/>
</svg>
