<svg width="24" height="24" viewBox="0 0 24 24" fill="none" xmlns="http://www.w3.org/2000/svg"><path d="M8.259 3.678 L 3.178 3.700 3.012 3.822 C 2.797 3.980,2.532 4.302,2.475 4.474 C 2.367 4.802,2.536 5.341,2.841 5.636 C 3.148 5.934,3.035 5.924,6.540 5.961 C 8.256 5.980,11.343 5.996,13.400 5.997 L 17.140 5.999 17.367 5.819 C 17.791 5.482,18.012 5.007,17.924 4.622 C 17.865 4.361,17.651 4.052,17.372 3.822 L 17.151 3.640 15.245 3.648 C 14.197 3.652,11.053 3.666,8.259 3.678 M16.340 8.592 C 16.095 8.708,15.503 9.254,14.060 10.699 C 12.740 12.019,12.292 12.519,12.155 12.820 C 11.915 13.347,12.262 14.049,12.878 14.283 C 13.424 14.490,13.631 14.372,15.010 13.071 L 15.600 12.514 15.600 16.048 L 15.600 19.582 15.890 19.867 C 16.050 20.024,16.239 20.181,16.310 20.217 C 16.386 20.255,16.594 20.292,16.811 20.306 L 17.181 20.331 17.440 20.132 C 17.760 19.886,17.869 19.689,17.920 19.259 C 17.941 19.083,17.970 17.505,17.986 15.750 C 18.001 13.995,18.021 12.560,18.031 12.560 C 18.040 12.560,18.266 12.769,18.532 13.024 C 19.046 13.516,19.630 14.019,19.875 14.181 C 20.262 14.437,20.747 14.388,21.117 14.055 C 21.409 13.793,21.491 13.615,21.511 13.200 C 21.531 12.795,21.538 12.807,20.860 12.065 C 19.554 10.634,17.751 8.891,17.365 8.686 C 17.059 8.524,16.579 8.480,16.340 8.592 M3.278 8.596 C 2.973 8.624,2.849 8.694,2.688 8.929 C 2.519 9.177,2.467 9.371,2.489 9.676 C 2.519 10.097,2.767 10.490,3.080 10.615 C 3.366 10.730,3.909 10.761,6.020 10.786 C 8.112 10.811,9.688 10.768,10.014 10.677 C 10.198 10.626,10.478 10.358,10.602 10.117 C 10.726 9.872,10.747 9.543,10.657 9.255 C 10.601 9.076,10.530 8.965,10.360 8.790 L 10.136 8.560 6.838 8.566 C 5.024 8.570,3.422 8.583,3.278 8.596 M3.660 13.398 C 2.948 13.422,2.893 13.441,2.706 13.712 C 2.454 14.076,2.406 14.499,2.574 14.861 C 2.689 15.107,3.013 15.407,3.236 15.474 C 3.511 15.556,4.355 15.598,5.760 15.598 C 7.426 15.597,8.538 15.547,8.801 15.460 C 9.066 15.372,9.329 15.130,9.440 14.872 C 9.516 14.693,9.527 14.615,9.509 14.353 C 9.482 13.965,9.346 13.696,9.077 13.498 L 8.889 13.360 6.595 13.368 C 5.333 13.372,4.012 13.386,3.660 13.398 " fill="#373B4D" stroke="none" fill-rule="evenodd"></path></svg>