<svg width="24" height="24" viewBox="0 0 24 24" fill="none" xmlns="http://www.w3.org/2000/svg"><path d="M8.420 3.678 L 3.180 3.700 3.052 3.791 C 2.880 3.914,2.576 4.266,2.496 4.435 C 2.302 4.842,2.750 5.756,3.190 5.856 C 3.498 5.925,5.577 5.959,11.087 5.985 L 17.154 6.013 17.436 5.741 C 17.788 5.401,17.920 5.153,17.920 4.830 C 17.920 4.503,17.778 4.229,17.438 3.901 L 17.168 3.640 15.414 3.648 C 14.449 3.652,11.302 3.666,8.420 3.678 M4.580 8.598 C 3.206 8.619,3.089 8.626,2.941 8.700 C 2.743 8.799,2.577 9.059,2.511 9.373 C 2.414 9.838,2.662 10.387,3.057 10.580 C 3.352 10.724,3.850 10.757,6.200 10.785 C 8.233 10.810,9.561 10.771,9.938 10.676 C 10.169 10.618,10.427 10.392,10.581 10.114 C 10.681 9.933,10.699 9.857,10.698 9.620 C 10.696 9.285,10.599 9.057,10.331 8.759 L 10.153 8.560 8.106 8.568 C 6.981 8.572,5.394 8.585,4.580 8.598 M16.160 8.725 C 16.007 8.828,15.359 9.433,14.584 10.200 C 12.327 12.430,12.042 12.780,12.091 13.257 C 12.121 13.542,12.212 13.726,12.440 13.960 C 12.756 14.284,13.122 14.418,13.426 14.319 C 13.724 14.221,14.056 13.958,15.030 13.046 L 15.600 12.513 15.600 16.050 L 15.600 19.588 15.830 19.806 C 16.210 20.166,16.318 20.231,16.601 20.277 C 16.743 20.300,16.943 20.320,17.044 20.320 C 17.217 20.320,17.244 20.304,17.506 20.050 C 17.828 19.738,17.862 19.654,17.920 19.033 C 17.948 18.731,18.035 14.170,18.040 12.750 C 18.040 12.690,18.057 12.640,18.077 12.640 C 18.097 12.640,18.281 12.796,18.487 12.986 C 19.156 13.607,19.776 14.120,19.978 14.221 C 20.487 14.476,21.167 14.213,21.400 13.672 C 21.518 13.397,21.549 13.027,21.469 12.837 C 21.388 12.642,21.063 12.272,20.037 11.205 C 19.166 10.299,17.939 9.122,17.600 8.868 C 17.289 8.633,17.168 8.589,16.780 8.570 L 16.420 8.551 16.160 8.725 M4.580 13.399 C 2.818 13.428,2.862 13.418,2.649 13.840 C 2.389 14.354,2.447 14.810,2.819 15.183 C 3.136 15.502,3.223 15.521,4.590 15.571 C 5.425 15.602,6.160 15.602,7.150 15.571 C 8.808 15.520,8.863 15.509,9.206 15.166 C 9.527 14.844,9.591 14.559,9.452 14.063 C 9.397 13.863,9.344 13.779,9.156 13.590 L 8.926 13.360 7.493 13.367 C 6.705 13.371,5.394 13.385,4.580 13.399 " fill="#373B4D" stroke="none" fill-rule="evenodd"></path></svg>