<svg width="24" height="24" viewBox="0 0 24 24" fill="none" xmlns="http://www.w3.org/2000/svg"><path d="M3.740 3.634 C 3.257 3.658,3.205 3.669,3.000 3.784 C 2.467 4.085,2.260 4.737,2.521 5.293 C 2.645 5.557,2.927 5.822,3.188 5.920 C 3.403 6.000,3.462 6.001,10.252 5.990 L 17.100 5.980 17.288 5.887 C 18.186 5.445,18.230 4.227,17.365 3.766 L 17.122 3.636 10.691 3.622 C 7.154 3.614,4.026 3.620,3.740 3.634 M3.700 8.434 C 3.165 8.463,3.024 8.511,2.777 8.751 C 2.296 9.218,2.304 9.992,2.795 10.452 C 3.166 10.799,2.949 10.780,6.620 10.780 C 9.214 10.780,9.890 10.769,10.010 10.727 C 10.216 10.654,10.575 10.316,10.682 10.095 C 10.807 9.839,10.807 9.361,10.682 9.105 C 10.571 8.876,10.204 8.536,10.008 8.482 C 9.837 8.435,4.454 8.394,3.700 8.434 M16.266 8.544 C 16.058 8.653,13.555 11.099,12.671 12.058 C 12.112 12.665,12.028 12.806,12.024 13.140 C 12.020 13.543,12.102 13.747,12.377 14.023 C 12.655 14.300,12.859 14.381,13.266 14.374 C 13.656 14.367,13.823 14.250,14.768 13.325 L 15.600 12.510 15.600 15.987 L 15.600 19.464 15.703 19.671 C 15.841 19.947,16.178 20.252,16.426 20.324 C 16.703 20.404,17.081 20.386,17.296 20.282 C 17.393 20.235,17.556 20.107,17.658 19.997 C 18.002 19.630,17.976 19.939,17.992 16.008 L 18.007 12.515 18.794 13.290 C 19.683 14.163,19.866 14.305,20.171 14.362 C 20.560 14.434,20.908 14.330,21.205 14.052 C 21.456 13.817,21.521 13.693,21.560 13.377 C 21.605 13.015,21.549 12.787,21.352 12.524 C 21.151 12.256,18.685 9.759,17.914 9.042 C 17.306 8.477,17.233 8.439,16.755 8.442 C 16.520 8.443,16.421 8.464,16.266 8.544 M3.640 13.234 C 3.170 13.263,3.014 13.320,2.777 13.551 C 2.296 14.018,2.304 14.792,2.795 15.252 C 3.161 15.594,3.026 15.580,6.020 15.580 C 8.114 15.580,8.691 15.569,8.810 15.527 C 9.016 15.454,9.375 15.116,9.482 14.895 C 9.607 14.639,9.607 14.161,9.482 13.905 C 9.372 13.676,9.004 13.336,8.809 13.282 C 8.637 13.235,4.287 13.194,3.640 13.234 " fill="#373B4D" stroke="none" fill-rule="evenodd"></path></svg>