<svg width="24" height="24" viewBox="0 0 24 24" fill="none" xmlns="http://www.w3.org/2000/svg"><path d="M8.420 3.678 L 3.180 3.700 3.052 3.791 C 2.880 3.914,2.576 4.266,2.496 4.435 C 2.302 4.842,2.750 5.756,3.190 5.856 C 3.498 5.925,5.577 5.959,11.087 5.985 L 17.154 6.013 17.436 5.741 C 17.788 5.401,17.920 5.153,17.920 4.830 C 17.920 4.503,17.778 4.229,17.438 3.901 L 17.168 3.640 15.414 3.648 C 14.449 3.652,11.302 3.666,8.420 3.678 M7.220 8.482 C 4.238 8.514,3.375 8.541,3.143 8.610 C 2.913 8.679,2.564 9.019,2.518 9.220 C 2.470 9.434,2.471 9.674,2.522 9.914 C 2.555 10.067,2.616 10.168,2.791 10.361 C 2.915 10.499,3.080 10.637,3.157 10.670 C 3.366 10.757,4.510 10.796,6.880 10.798 C 9.656 10.799,12.242 10.737,12.415 10.665 C 12.567 10.601,12.939 10.237,13.031 10.061 C 13.074 9.980,13.094 9.835,13.094 9.620 C 13.094 9.229,13.032 9.093,12.681 8.710 L 12.433 8.440 11.166 8.447 C 10.470 8.450,8.694 8.466,7.220 8.482 M16.165 8.712 C 15.879 8.928,15.766 9.096,15.719 9.382 C 15.669 9.680,15.602 11.955,15.601 13.360 C 15.600 14.671,15.557 16.160,15.520 16.160 C 15.505 16.160,15.289 15.976,15.041 15.750 C 14.284 15.061,13.843 14.691,13.702 14.624 C 13.607 14.579,13.451 14.560,13.170 14.560 C 12.797 14.560,12.762 14.567,12.616 14.673 C 12.146 15.014,11.950 15.589,12.159 16.017 C 12.277 16.258,12.868 16.905,14.048 18.082 C 15.628 19.659,16.335 20.273,16.647 20.341 C 16.829 20.381,17.095 20.290,17.435 20.069 C 17.669 19.917,18.152 19.459,19.504 18.106 C 20.626 16.982,21.309 16.267,21.384 16.140 C 21.488 15.961,21.500 15.903,21.500 15.597 C 21.500 15.285,21.489 15.236,21.380 15.060 C 21.314 14.953,21.173 14.803,21.067 14.727 C 20.845 14.567,20.652 14.534,20.190 14.578 C 19.924 14.603,19.873 14.623,19.658 14.783 C 19.528 14.881,19.101 15.258,18.711 15.621 L 18.000 16.282 18.000 12.745 L 18.000 9.209 17.757 8.984 C 17.392 8.646,17.255 8.587,16.780 8.568 L 16.379 8.552 16.165 8.712 M4.580 13.399 C 2.818 13.428,2.862 13.418,2.649 13.840 C 2.389 14.354,2.447 14.810,2.819 15.183 C 3.136 15.502,3.223 15.521,4.590 15.571 C 5.425 15.602,6.160 15.602,7.150 15.571 C 8.808 15.520,8.863 15.509,9.206 15.166 C 9.527 14.844,9.591 14.559,9.452 14.063 C 9.397 13.863,9.344 13.779,9.156 13.590 L 8.926 13.360 7.493 13.367 C 6.705 13.371,5.394 13.385,4.580 13.399 " fill="#373B4D" stroke="none" fill-rule="evenodd"></path></svg>