<svg width="24" height="24" viewBox="0 0 24 24" fill="none" xmlns="http://www.w3.org/2000/svg"><path d="M8.460 3.678 L 3.180 3.700 3.048 3.794 C 2.858 3.929,2.536 4.330,2.480 4.500 C 2.354 4.882,2.707 5.631,3.102 5.818 C 3.325 5.924,4.826 5.954,11.340 5.985 L 17.180 6.012 17.461 5.715 C 17.827 5.329,17.900 5.179,17.898 4.820 C 17.896 4.468,17.814 4.301,17.454 3.920 L 17.190 3.640 15.465 3.648 C 14.516 3.652,11.364 3.666,8.460 3.678 M4.960 8.600 C 2.912 8.627,2.965 8.620,2.743 8.883 C 2.575 9.083,2.509 9.276,2.504 9.580 C 2.501 9.812,2.519 9.900,2.612 10.089 C 2.743 10.354,2.971 10.567,3.200 10.635 C 3.548 10.740,4.360 10.771,6.800 10.775 C 9.518 10.780,9.835 10.761,10.142 10.581 C 10.482 10.382,10.692 10.021,10.692 9.637 C 10.692 9.317,10.573 9.032,10.322 8.750 L 10.153 8.560 8.487 8.567 C 7.570 8.571,5.983 8.586,4.960 8.600 M16.053 8.819 C 15.661 9.133,13.477 11.273,12.873 11.936 C 12.123 12.758,11.998 13.021,12.138 13.476 C 12.268 13.895,12.848 14.361,13.237 14.360 C 13.526 14.359,13.902 14.086,14.930 13.136 L 15.600 12.516 15.600 16.052 L 15.600 19.588 15.830 19.807 C 15.957 19.927,16.132 20.073,16.220 20.130 C 16.388 20.239,16.732 20.320,17.031 20.320 C 17.192 20.320,17.229 20.299,17.469 20.070 C 17.613 19.933,17.764 19.746,17.805 19.657 C 17.918 19.404,17.950 18.743,18.005 15.550 C 18.033 13.950,18.065 12.640,18.078 12.640 C 18.090 12.640,18.343 12.859,18.640 13.126 C 19.302 13.722,19.813 14.137,20.000 14.230 C 20.094 14.277,20.232 14.300,20.420 14.299 C 20.926 14.298,21.291 14.016,21.446 13.507 C 21.556 13.149,21.534 12.913,21.369 12.674 C 20.944 12.056,18.042 9.161,17.460 8.775 C 17.243 8.631,16.955 8.561,16.578 8.560 C 16.390 8.560,16.355 8.577,16.053 8.819 M4.840 13.401 C 3.119 13.429,2.943 13.448,2.780 13.624 C 2.522 13.902,2.424 14.546,2.591 14.865 C 2.730 15.133,3.015 15.389,3.250 15.459 C 3.583 15.558,5.049 15.613,6.580 15.584 C 8.672 15.544,8.903 15.506,9.222 15.153 C 9.449 14.901,9.534 14.674,9.510 14.381 C 9.484 14.061,9.370 13.810,9.137 13.561 L 8.949 13.360 7.705 13.367 C 7.020 13.371,5.731 13.386,4.840 13.401 " fill="#373B4D" stroke="none" fill-rule="evenodd"></path></svg>