<svg width="24" height="24" viewBox="0 0 24 24" fill="none" xmlns="http://www.w3.org/2000/svg"><path d="M5.936 3.679 L 3.173 3.700 2.953 3.846 C 2.391 4.220,2.255 4.899,2.634 5.438 C 2.872 5.778,3.013 5.873,3.361 5.925 C 3.570 5.956,5.694 5.976,10.390 5.988 L 17.120 6.007 17.379 5.822 C 17.793 5.527,17.960 5.221,17.959 4.760 C 17.959 4.374,17.739 4.036,17.301 3.745 L 17.141 3.640 12.921 3.649 C 10.599 3.654,7.456 3.667,5.936 3.679 M4.918 8.478 C 3.265 8.498,3.128 8.505,3.018 8.575 C 2.551 8.873,2.344 9.408,2.495 9.928 C 2.574 10.199,2.840 10.513,3.136 10.682 L 3.340 10.799 6.620 10.796 C 8.424 10.794,10.458 10.781,11.140 10.766 L 12.380 10.740 12.566 10.631 C 12.761 10.516,12.939 10.318,13.061 10.080 C 13.151 9.903,13.183 9.472,13.122 9.245 C 13.071 9.058,12.816 8.752,12.544 8.554 L 12.388 8.440 9.544 8.448 C 7.980 8.452,5.898 8.466,4.918 8.478 M16.331 8.539 C 16.147 8.619,15.800 8.954,15.728 9.120 C 15.641 9.323,15.605 10.610,15.602 13.695 L 15.600 16.290 14.962 15.668 C 13.858 14.592,13.668 14.461,13.220 14.463 C 12.850 14.466,12.665 14.533,12.428 14.755 C 12.168 14.998,12.078 15.186,12.051 15.541 C 12.023 15.915,12.085 16.050,12.524 16.560 C 12.932 17.036,15.428 19.522,15.882 19.905 C 16.321 20.275,16.507 20.368,16.805 20.368 C 17.137 20.368,17.318 20.265,17.867 19.764 C 18.517 19.171,21.272 16.377,21.420 16.162 C 21.534 15.996,21.540 15.966,21.537 15.599 C 21.535 15.254,21.523 15.191,21.427 15.029 C 21.212 14.661,20.837 14.463,20.360 14.463 C 19.932 14.463,19.711 14.618,18.630 15.675 L 18.000 16.291 18.000 12.792 L 18.000 9.294 17.880 9.112 C 17.705 8.848,17.395 8.573,17.215 8.524 C 16.997 8.463,16.485 8.472,16.331 8.539 M3.210 13.316 C 2.773 13.391,2.404 13.964,2.448 14.498 C 2.483 14.916,2.824 15.390,3.152 15.478 C 3.450 15.558,4.330 15.597,5.800 15.596 C 7.716 15.595,8.741 15.552,8.909 15.466 C 9.104 15.365,9.426 15.022,9.485 14.852 C 9.514 14.768,9.538 14.565,9.538 14.400 C 9.538 14.045,9.448 13.810,9.224 13.587 C 8.918 13.280,9.137 13.301,6.100 13.293 C 4.604 13.290,3.304 13.300,3.210 13.316 " fill="#373B4D" stroke="none" fill-rule="evenodd"></path></svg>