<svg width="24" height="24" viewBox="0 0 24 24" fill="none" xmlns="http://www.w3.org/2000/svg"><path d="M3.740 3.634 C 3.257 3.658,3.205 3.669,3.000 3.784 C 2.467 4.085,2.260 4.737,2.521 5.293 C 2.645 5.557,2.927 5.822,3.188 5.920 C 3.403 6.000,3.462 6.001,10.252 5.990 L 17.100 5.980 17.288 5.887 C 18.186 5.445,18.230 4.227,17.365 3.766 L 17.122 3.636 10.691 3.622 C 7.154 3.614,4.026 3.620,3.740 3.634 M3.860 8.434 C 3.149 8.463,3.041 8.494,2.777 8.751 C 2.177 9.333,2.364 10.331,3.140 10.688 L 3.340 10.780 7.791 10.791 C 12.140 10.802,12.247 10.801,12.420 10.724 C 12.656 10.620,12.976 10.315,13.084 10.093 C 13.191 9.870,13.204 9.381,13.108 9.152 C 13.028 8.962,12.750 8.661,12.540 8.538 L 12.375 8.441 8.438 8.425 C 6.272 8.416,4.212 8.420,3.860 8.434 M16.276 8.540 C 16.050 8.657,15.756 8.976,15.680 9.185 C 15.633 9.313,15.621 9.946,15.610 12.814 L 15.597 16.288 14.783 15.487 C 13.813 14.534,13.676 14.441,13.240 14.441 C 12.792 14.440,12.662 14.491,12.380 14.774 C 12.101 15.054,12.020 15.257,12.024 15.660 C 12.029 16.091,12.088 16.165,13.877 17.974 C 15.178 19.288,16.123 20.179,16.334 20.289 C 16.567 20.411,17.032 20.411,17.265 20.290 C 17.355 20.243,17.697 19.953,18.025 19.647 C 18.852 18.874,21.148 16.548,21.352 16.276 C 21.550 16.012,21.605 15.785,21.560 15.417 C 21.522 15.117,21.427 14.948,21.162 14.709 C 20.929 14.500,20.748 14.440,20.355 14.440 C 19.922 14.441,19.778 14.539,18.815 15.488 L 18.007 16.286 17.993 12.793 L 17.980 9.300 17.887 9.111 C 17.770 8.873,17.420 8.551,17.211 8.488 C 16.933 8.405,16.487 8.429,16.276 8.540 M3.640 13.234 C 3.170 13.263,3.014 13.320,2.777 13.551 C 2.296 14.018,2.304 14.792,2.795 15.252 C 3.161 15.594,3.026 15.580,6.020 15.580 C 8.114 15.580,8.691 15.569,8.810 15.527 C 9.016 15.454,9.375 15.116,9.482 14.895 C 9.607 14.639,9.607 14.161,9.482 13.905 C 9.372 13.676,9.004 13.336,8.809 13.282 C 8.637 13.235,4.287 13.194,3.640 13.234 " fill="#373B4D" stroke="none" fill-rule="evenodd"></path></svg>