<svg width="24" height="24" viewBox="0 0 24 24" fill="none" xmlns="http://www.w3.org/2000/svg"><path d="M8.117 3.678 L 3.173 3.700 3.001 3.820 C 2.815 3.948,2.552 4.269,2.483 4.453 C 2.322 4.875,2.591 5.531,3.029 5.787 C 3.202 5.889,3.263 5.900,3.818 5.928 C 4.149 5.945,7.277 5.971,10.769 5.985 L 17.118 6.011 17.337 5.843 C 17.578 5.656,17.705 5.505,17.835 5.250 C 18.080 4.770,17.930 4.284,17.402 3.845 L 17.156 3.640 15.108 3.648 C 13.982 3.652,10.835 3.666,8.117 3.678 M6.460 8.484 C 4.854 8.501,3.446 8.527,3.330 8.541 C 3.074 8.571,2.800 8.747,2.624 8.994 C 2.505 9.161,2.500 9.184,2.500 9.574 C 2.500 9.924,2.512 10.000,2.589 10.123 C 2.700 10.301,3.083 10.668,3.208 10.715 C 3.354 10.770,7.349 10.803,9.960 10.770 C 12.331 10.740,12.341 10.740,12.484 10.650 C 12.685 10.526,12.982 10.199,13.063 10.014 C 13.102 9.926,13.132 9.749,13.134 9.600 C 13.138 9.261,13.018 9.026,12.668 8.690 L 12.407 8.440 10.893 8.447 C 10.061 8.450,8.066 8.467,6.460 8.484 M16.368 8.562 C 16.166 8.643,15.916 8.852,15.816 9.024 C 15.659 9.291,15.644 9.598,15.615 13.148 L 15.588 16.275 14.984 15.702 C 14.298 15.051,14.078 14.858,13.809 14.671 C 13.639 14.553,13.587 14.539,13.283 14.526 C 12.858 14.507,12.697 14.556,12.449 14.779 C 12.188 15.014,12.079 15.267,12.075 15.644 C 12.073 15.909,12.083 15.944,12.220 16.143 C 12.437 16.457,13.376 17.453,14.423 18.477 C 16.022 20.041,16.415 20.360,16.741 20.360 C 16.986 20.360,17.258 20.244,17.540 20.019 C 17.961 19.684,19.259 18.420,20.289 17.344 C 21.551 16.026,21.497 16.098,21.514 15.711 C 21.540 15.147,21.400 14.878,20.959 14.643 C 20.721 14.516,20.697 14.511,20.345 14.527 C 20.007 14.542,19.964 14.553,19.781 14.679 C 19.520 14.859,19.051 15.273,18.470 15.836 L 18.000 16.291 18.000 12.775 L 18.000 9.259 17.822 9.043 C 17.622 8.798,17.379 8.620,17.165 8.561 C 16.986 8.511,16.493 8.512,16.368 8.562 M3.175 13.389 C 2.822 13.421,2.469 13.925,2.465 14.399 C 2.463 14.803,2.733 15.243,3.092 15.417 C 3.266 15.501,3.394 15.524,3.880 15.558 C 4.579 15.608,6.567 15.610,7.785 15.562 C 8.774 15.524,8.889 15.496,9.193 15.222 C 9.429 15.008,9.520 14.794,9.520 14.452 C 9.520 13.997,9.366 13.680,9.039 13.464 L 8.882 13.360 6.111 13.367 C 4.587 13.371,3.266 13.381,3.175 13.389 " fill="#373B4D" stroke="none" fill-rule="evenodd"></path></svg>