<svg width="24" height="24" viewBox="0 0 24 24" fill="none" xmlns="http://www.w3.org/2000/svg"><path d="M7.917 3.678 L 3.174 3.700 3.008 3.810 C 2.805 3.944,2.543 4.268,2.478 4.465 C 2.403 4.693,2.450 5.074,2.584 5.320 C 2.723 5.576,3.000 5.826,3.204 5.881 C 3.457 5.949,7.233 5.998,12.340 5.999 L 17.140 6.000 17.367 5.822 C 17.491 5.724,17.651 5.560,17.722 5.457 C 18.128 4.866,18.004 4.313,17.349 3.795 L 17.153 3.640 14.906 3.648 C 13.671 3.652,10.526 3.666,7.917 3.678 M6.303 8.483 C 4.765 8.499,3.410 8.524,3.293 8.539 C 3.043 8.570,2.819 8.723,2.625 8.994 C 2.505 9.162,2.500 9.183,2.500 9.577 C 2.500 9.951,2.509 10.000,2.604 10.143 C 2.763 10.383,3.074 10.671,3.235 10.729 C 3.350 10.769,4.293 10.779,7.802 10.776 C 12.174 10.771,12.225 10.770,12.409 10.689 C 12.644 10.585,12.943 10.289,13.043 10.061 C 13.275 9.538,13.132 9.070,12.603 8.619 L 12.393 8.440 10.747 8.447 C 9.841 8.450,7.842 8.467,6.303 8.483 M16.493 8.517 C 16.159 8.600,15.795 8.924,15.719 9.205 C 15.655 9.440,15.601 11.649,15.601 14.053 L 15.600 16.286 14.950 15.664 C 14.232 14.978,13.852 14.659,13.640 14.566 C 13.422 14.471,12.900 14.483,12.700 14.588 C 12.482 14.702,12.263 14.931,12.155 15.154 C 12.052 15.369,12.032 15.833,12.119 16.000 C 12.296 16.341,13.470 17.573,15.172 19.204 C 16.268 20.255,16.465 20.389,16.855 20.349 C 17.134 20.320,17.313 20.225,17.680 19.911 C 18.416 19.281,21.149 16.510,21.420 16.120 C 21.519 15.977,21.533 15.922,21.531 15.668 C 21.530 15.510,21.508 15.302,21.482 15.208 C 21.421 14.979,21.205 14.748,20.926 14.611 C 20.737 14.518,20.651 14.500,20.400 14.503 C 20.226 14.505,20.041 14.531,19.960 14.567 C 19.749 14.658,19.289 15.045,18.610 15.699 L 18.000 16.288 18.000 12.777 L 18.000 9.267 17.837 9.056 C 17.645 8.807,17.459 8.657,17.250 8.583 C 17.049 8.513,16.651 8.478,16.493 8.517 M3.777 13.356 C 3.098 13.379,3.045 13.386,2.913 13.477 C 2.634 13.668,2.406 14.200,2.462 14.531 C 2.524 14.904,2.795 15.292,3.093 15.436 C 3.234 15.505,3.399 15.528,4.003 15.565 C 4.862 15.617,8.194 15.584,8.600 15.519 C 8.901 15.471,9.094 15.352,9.333 15.069 C 9.488 14.886,9.495 14.865,9.512 14.549 C 9.521 14.368,9.509 14.146,9.484 14.056 C 9.427 13.842,9.239 13.586,9.050 13.464 L 8.900 13.367 6.700 13.350 C 5.490 13.340,4.175 13.343,3.777 13.356 " fill="#373B4D" stroke="none" fill-rule="evenodd"></path></svg>