<svg width="24" height="24" viewBox="0 0 24 24" fill="none" xmlns="http://www.w3.org/2000/svg"><path d="M7.540 3.678 L 3.180 3.700 3.031 3.793 C 2.851 3.904,2.592 4.192,2.504 4.377 C 2.421 4.551,2.422 4.932,2.505 5.176 C 2.595 5.440,2.956 5.825,3.167 5.882 C 3.421 5.950,7.101 5.997,12.333 5.999 L 17.126 6.000 17.295 5.883 C 17.664 5.629,17.901 5.275,17.944 4.913 C 17.992 4.502,17.819 4.160,17.399 3.833 L 17.151 3.640 14.525 3.648 C 13.081 3.653,9.938 3.666,7.540 3.678 M5.956 8.482 C 4.066 8.502,3.209 8.524,3.109 8.557 C 2.940 8.613,2.621 8.941,2.532 9.151 C 2.437 9.376,2.445 9.817,2.550 10.049 C 2.645 10.260,2.955 10.592,3.164 10.706 C 3.294 10.777,3.489 10.780,7.740 10.778 C 11.074 10.776,12.221 10.763,12.346 10.727 C 12.563 10.664,12.898 10.361,13.023 10.114 C 13.293 9.581,13.158 9.074,12.628 8.633 L 12.396 8.440 10.528 8.447 C 9.501 8.451,7.443 8.466,5.956 8.482 M16.493 8.517 C 16.192 8.566,15.806 8.901,15.718 9.189 C 15.654 9.398,15.607 11.411,15.603 14.074 L 15.600 16.289 14.970 15.678 C 14.304 15.033,13.909 14.695,13.684 14.581 C 13.502 14.488,13.136 14.459,12.893 14.517 C 12.599 14.587,12.324 14.813,12.180 15.100 C 12.080 15.299,12.060 15.388,12.061 15.620 C 12.062 15.960,12.102 16.041,12.497 16.510 C 12.893 16.980,15.660 19.722,16.051 20.031 C 16.390 20.300,16.595 20.378,16.880 20.351 C 17.134 20.326,17.311 20.231,17.668 19.927 C 18.386 19.316,21.192 16.471,21.426 16.118 C 21.529 15.962,21.540 15.914,21.536 15.623 C 21.531 15.172,21.423 14.929,21.133 14.722 C 21.014 14.637,20.826 14.545,20.714 14.519 C 20.465 14.459,20.100 14.487,19.916 14.581 C 19.691 14.695,19.296 15.033,18.630 15.678 L 18.000 16.289 18.000 12.774 L 18.000 9.260 17.822 9.033 C 17.565 8.706,17.333 8.559,17.007 8.517 C 16.712 8.479,16.727 8.479,16.493 8.517 M3.195 13.355 C 2.933 13.394,2.750 13.550,2.592 13.869 C 2.416 14.228,2.408 14.554,2.568 14.880 C 2.696 15.140,2.965 15.411,3.159 15.476 C 3.431 15.567,4.751 15.610,6.540 15.587 C 7.508 15.575,8.434 15.545,8.599 15.522 C 8.931 15.475,9.053 15.400,9.338 15.063 C 9.496 14.877,9.500 14.863,9.514 14.533 C 9.522 14.340,9.507 14.117,9.480 14.018 C 9.423 13.815,9.222 13.565,9.009 13.433 L 8.860 13.340 6.120 13.334 C 4.613 13.330,3.297 13.340,3.195 13.355 " fill="#373B4D" stroke="none" fill-rule="evenodd"></path></svg>