<svg width="24" height="24" viewBox="0 0 24 24" fill="none" xmlns="http://www.w3.org/2000/svg"><path d="M8.500 3.678 C 2.408 3.703,3.119 3.649,2.733 4.118 C 2.467 4.440,2.411 4.603,2.477 4.867 C 2.602 5.369,2.887 5.756,3.193 5.838 C 3.504 5.922,5.451 5.957,11.360 5.985 L 17.180 6.013 17.454 5.718 C 17.814 5.329,17.892 5.172,17.892 4.835 C 17.892 4.492,17.796 4.291,17.454 3.922 L 17.193 3.640 15.506 3.648 C 14.579 3.652,11.426 3.666,8.500 3.678 M7.460 8.485 C 4.399 8.521,3.284 8.564,3.067 8.655 C 2.849 8.745,2.581 9.042,2.520 9.259 C 2.462 9.468,2.488 9.845,2.574 10.053 C 2.639 10.209,2.991 10.573,3.161 10.661 C 3.335 10.751,4.779 10.798,7.360 10.798 C 9.751 10.799,11.942 10.745,12.271 10.677 C 12.441 10.642,12.528 10.592,12.717 10.417 C 13.039 10.118,13.094 9.989,13.072 9.584 C 13.051 9.198,12.991 9.069,12.667 8.703 L 12.435 8.440 11.287 8.447 C 10.656 8.450,8.934 8.467,7.460 8.485 M16.123 8.761 C 15.873 8.968,15.816 9.045,15.755 9.256 C 15.686 9.491,15.642 10.545,15.602 12.920 C 15.558 15.457,15.532 16.131,15.478 16.112 C 15.460 16.105,15.137 15.831,14.760 15.503 C 14.384 15.175,13.984 14.837,13.871 14.753 L 13.666 14.600 13.189 14.600 C 12.719 14.600,12.709 14.602,12.560 14.720 C 12.353 14.884,12.167 15.186,12.112 15.449 C 12.050 15.747,12.113 15.954,12.370 16.298 C 12.773 16.837,15.554 19.591,16.150 20.042 C 16.291 20.148,16.485 20.266,16.580 20.302 C 16.742 20.364,16.767 20.364,16.957 20.301 C 17.285 20.192,17.591 19.959,18.369 19.225 C 19.044 18.587,20.719 16.883,21.192 16.353 C 21.474 16.036,21.493 15.987,21.493 15.600 C 21.493 15.207,21.445 15.086,21.205 14.869 C 20.925 14.616,20.824 14.581,20.400 14.586 C 20.191 14.589,19.974 14.610,19.917 14.632 C 19.764 14.692,19.375 15.015,18.650 15.685 L 18.000 16.285 18.000 12.746 L 18.000 9.206 17.770 9.000 C 17.472 8.733,17.305 8.649,16.972 8.601 C 16.452 8.526,16.392 8.537,16.123 8.761 M5.080 13.402 C 4.145 13.418,3.272 13.451,3.140 13.475 C 2.949 13.510,2.874 13.547,2.773 13.656 C 2.542 13.904,2.445 14.502,2.582 14.831 C 2.659 15.016,2.931 15.301,3.128 15.403 C 3.401 15.544,3.951 15.578,5.940 15.576 C 8.408 15.574,8.840 15.525,9.174 15.208 C 9.476 14.921,9.578 14.540,9.461 14.138 C 9.386 13.880,9.302 13.738,9.086 13.510 L 8.944 13.360 7.862 13.367 C 7.267 13.370,6.015 13.386,5.080 13.402 " fill="#373B4D" stroke="none" fill-rule="evenodd"></path></svg>