<svg width="24" height="24" viewBox="0 0 24 24" fill="none" xmlns="http://www.w3.org/2000/svg"><path d="M8.117 3.678 L 3.173 3.700 3.001 3.820 C 2.815 3.948,2.552 4.269,2.483 4.453 C 2.322 4.875,2.591 5.531,3.029 5.787 C 3.202 5.889,3.263 5.900,3.818 5.928 C 4.149 5.945,7.277 5.971,10.769 5.985 L 17.118 6.011 17.337 5.843 C 17.578 5.656,17.705 5.505,17.835 5.250 C 18.080 4.770,17.930 4.284,17.402 3.845 L 17.156 3.640 15.108 3.648 C 13.982 3.652,10.835 3.666,8.117 3.678 M4.040 8.556 C 3.482 8.571,3.058 8.600,2.998 8.627 C 2.856 8.690,2.648 8.936,2.551 9.156 C 2.331 9.656,2.569 10.360,3.039 10.600 C 3.299 10.732,3.760 10.762,5.860 10.785 C 8.276 10.811,9.813 10.766,10.070 10.661 C 10.295 10.569,10.576 10.252,10.662 9.993 C 10.815 9.535,10.652 8.975,10.285 8.695 L 10.108 8.560 9.364 8.560 C 8.955 8.560,7.801 8.553,6.800 8.545 C 5.799 8.537,4.557 8.542,4.040 8.556 M16.326 8.585 C 16.091 8.706,15.456 9.296,14.057 10.696 C 12.286 12.467,12.068 12.742,12.067 13.200 C 12.067 13.729,12.550 14.271,13.090 14.345 C 13.529 14.405,13.801 14.227,14.970 13.114 L 15.600 12.513 15.600 16.053 L 15.600 19.592 15.891 19.890 C 16.240 20.246,16.364 20.298,16.863 20.299 L 17.226 20.300 17.443 20.136 C 17.780 19.882,17.872 19.721,17.922 19.298 C 17.947 19.089,17.974 17.607,17.987 15.730 L 18.010 12.521 18.535 13.027 C 19.182 13.652,19.753 14.130,19.996 14.249 C 20.273 14.386,20.638 14.376,20.894 14.226 C 21.174 14.061,21.384 13.827,21.462 13.593 C 21.551 13.326,21.556 12.935,21.472 12.780 C 21.322 12.501,19.269 10.360,18.157 9.324 C 17.434 8.649,17.273 8.555,16.805 8.533 C 16.533 8.520,16.431 8.531,16.326 8.585 M3.175 13.389 C 2.822 13.421,2.469 13.925,2.465 14.399 C 2.463 14.803,2.733 15.243,3.092 15.417 C 3.266 15.501,3.394 15.524,3.880 15.558 C 4.579 15.608,6.567 15.610,7.785 15.562 C 8.774 15.524,8.889 15.496,9.193 15.222 C 9.429 15.008,9.520 14.794,9.520 14.452 C 9.520 13.997,9.366 13.680,9.039 13.464 L 8.882 13.360 6.111 13.367 C 4.587 13.371,3.266 13.381,3.175 13.389 " fill="#373B4D" stroke="none" fill-rule="evenodd"></path></svg>