<svg width="24" height="24" viewBox="0 0 24 24" fill="none" xmlns="http://www.w3.org/2000/svg"><path d="M6.960 3.678 L 3.180 3.700 3.035 3.790 C 2.838 3.913,2.578 4.201,2.497 4.387 C 2.388 4.637,2.405 4.987,2.539 5.262 C 2.681 5.551,2.942 5.818,3.146 5.883 C 3.367 5.952,6.472 5.991,12.273 5.996 L 17.126 6.000 17.293 5.885 C 17.583 5.685,17.828 5.391,17.897 5.158 C 18.059 4.612,17.899 4.191,17.386 3.813 L 17.151 3.640 13.946 3.648 C 12.183 3.653,9.039 3.666,6.960 3.678 M3.408 8.521 C 3.212 8.541,3.024 8.586,2.949 8.629 C 2.638 8.811,2.411 9.304,2.452 9.706 C 2.479 9.967,2.683 10.364,2.869 10.517 C 3.064 10.677,3.233 10.716,3.967 10.765 C 4.745 10.818,9.540 10.782,9.879 10.721 C 10.580 10.595,10.950 9.761,10.617 9.058 C 10.520 8.855,10.266 8.612,10.093 8.557 C 9.909 8.498,3.942 8.467,3.408 8.521 M16.339 8.553 C 16.108 8.661,15.403 9.314,13.958 10.759 C 12.637 12.080,12.204 12.573,12.102 12.874 C 11.965 13.275,12.059 13.649,12.375 13.958 C 12.726 14.303,12.807 14.340,13.200 14.338 C 13.434 14.337,13.577 14.316,13.660 14.272 C 13.839 14.176,14.306 13.765,14.990 13.103 L 15.600 12.512 15.600 16.032 L 15.600 19.553 15.755 19.746 C 16.135 20.220,16.334 20.330,16.820 20.332 C 17.069 20.334,17.176 20.316,17.302 20.251 C 17.498 20.149,17.773 19.888,17.859 19.721 C 17.956 19.534,17.998 18.158,17.999 15.125 L 18.000 12.511 18.589 13.081 C 19.691 14.151,20.006 14.372,20.418 14.369 C 20.694 14.366,20.970 14.245,21.193 14.028 C 21.432 13.796,21.516 13.614,21.546 13.265 C 21.568 13.010,21.559 12.943,21.484 12.789 C 21.361 12.534,20.774 11.896,19.344 10.464 C 18.116 9.233,17.553 8.720,17.280 8.578 C 17.069 8.469,16.547 8.455,16.339 8.553 M3.780 13.315 C 3.195 13.337,3.081 13.351,2.961 13.422 C 2.644 13.608,2.410 14.102,2.451 14.499 C 2.494 14.911,2.843 15.395,3.159 15.480 C 3.439 15.555,4.454 15.599,5.920 15.599 C 7.583 15.598,8.694 15.549,8.889 15.467 C 9.045 15.401,9.422 15.011,9.484 14.852 C 9.561 14.654,9.542 14.120,9.451 13.919 C 9.340 13.675,9.051 13.403,8.855 13.359 C 8.662 13.315,4.705 13.281,3.780 13.315 " fill="#373B4D" stroke="none" fill-rule="evenodd"></path></svg>