<svg width="24" height="24" viewBox="0 0 24 24" fill="none" xmlns="http://www.w3.org/2000/svg"><path d="M7.540 3.678 L 3.180 3.700 3.031 3.793 C 2.851 3.904,2.592 4.192,2.504 4.377 C 2.421 4.551,2.422 4.932,2.505 5.176 C 2.595 5.440,2.956 5.825,3.167 5.882 C 3.421 5.950,7.101 5.997,12.333 5.999 L 17.126 6.000 17.295 5.883 C 17.664 5.629,17.901 5.275,17.944 4.913 C 17.992 4.502,17.819 4.160,17.399 3.833 L 17.151 3.640 14.525 3.648 C 13.081 3.653,9.938 3.666,7.540 3.678 M3.940 8.517 C 3.017 8.545,2.918 8.574,2.698 8.877 C 2.435 9.237,2.385 9.673,2.559 10.068 C 2.742 10.481,2.964 10.648,3.428 10.724 C 3.801 10.785,7.042 10.813,8.628 10.770 L 9.916 10.735 10.145 10.617 C 10.843 10.260,10.946 9.262,10.340 8.729 C 10.158 8.568,10.157 8.567,9.749 8.545 C 9.118 8.510,4.838 8.489,3.940 8.517 M16.472 8.516 C 16.252 8.562,15.986 8.787,14.809 9.923 C 13.646 11.046,12.530 12.211,12.282 12.562 C 11.905 13.095,11.977 13.595,12.498 14.071 C 12.799 14.346,13.075 14.403,13.589 14.297 C 13.715 14.271,14.275 13.793,14.990 13.102 L 15.600 12.512 15.600 16.034 L 15.600 19.556 15.799 19.795 C 16.157 20.226,16.346 20.320,16.848 20.320 C 17.220 20.320,17.325 20.276,17.628 19.989 C 17.771 19.854,17.854 19.737,17.882 19.633 C 17.958 19.351,17.998 17.822,17.999 15.146 L 18.000 12.513 18.630 13.120 C 19.885 14.329,20.188 14.495,20.773 14.296 C 21.009 14.216,21.328 13.931,21.439 13.702 C 21.536 13.501,21.588 13.030,21.529 12.880 C 21.434 12.640,21.014 12.171,19.701 10.844 C 18.198 9.326,17.555 8.724,17.300 8.601 C 17.119 8.513,16.693 8.469,16.472 8.516 M3.195 13.355 C 2.933 13.394,2.750 13.550,2.592 13.869 C 2.416 14.228,2.408 14.554,2.568 14.880 C 2.696 15.140,2.965 15.411,3.159 15.476 C 3.431 15.567,4.751 15.610,6.540 15.587 C 7.508 15.575,8.434 15.545,8.599 15.522 C 8.931 15.475,9.053 15.400,9.338 15.063 C 9.496 14.877,9.500 14.863,9.514 14.533 C 9.522 14.340,9.507 14.117,9.480 14.018 C 9.423 13.815,9.222 13.565,9.009 13.433 L 8.860 13.340 6.120 13.334 C 4.613 13.330,3.297 13.340,3.195 13.355 " fill="#373B4D" stroke="none" fill-rule="evenodd"></path></svg>