<svg width="24" height="24" viewBox="0 0 24 24" fill="none" xmlns="http://www.w3.org/2000/svg"><path d="M6.960 3.678 L 3.180 3.700 3.035 3.790 C 2.838 3.913,2.578 4.201,2.497 4.387 C 2.388 4.637,2.405 4.987,2.539 5.262 C 2.681 5.551,2.942 5.818,3.146 5.883 C 3.367 5.952,6.472 5.991,12.273 5.996 L 17.126 6.000 17.293 5.885 C 17.583 5.685,17.828 5.391,17.897 5.158 C 18.059 4.612,17.899 4.191,17.386 3.813 L 17.151 3.640 13.946 3.648 C 12.183 3.653,9.039 3.666,6.960 3.678 M5.500 8.481 C 3.921 8.498,3.145 8.521,3.072 8.552 C 2.909 8.620,2.643 8.904,2.547 9.114 C 2.483 9.252,2.461 9.377,2.462 9.600 C 2.463 9.855,2.480 9.932,2.580 10.114 C 2.709 10.350,2.972 10.603,3.219 10.730 C 3.377 10.811,3.412 10.811,7.839 10.792 C 12.254 10.773,12.302 10.771,12.462 10.689 C 12.680 10.578,12.936 10.316,13.043 10.093 C 13.171 9.830,13.193 9.425,13.091 9.197 C 12.994 8.977,12.841 8.794,12.588 8.594 L 12.393 8.440 10.106 8.448 C 8.849 8.452,6.776 8.467,5.500 8.481 M16.410 8.516 C 16.261 8.555,15.966 8.785,15.820 8.977 C 15.749 9.069,15.706 9.197,15.676 9.404 C 15.650 9.586,15.625 10.971,15.612 12.990 L 15.591 16.281 14.971 15.678 C 13.875 14.611,13.680 14.479,13.197 14.481 C 12.851 14.482,12.652 14.557,12.407 14.779 C 12.196 14.969,12.084 15.207,12.054 15.530 C 12.006 16.044,12.150 16.229,14.191 18.264 C 15.589 19.658,16.141 20.159,16.418 20.285 C 16.655 20.392,16.978 20.383,17.224 20.261 C 17.512 20.117,18.237 19.440,19.776 17.877 C 21.451 16.175,21.501 16.117,21.537 15.831 C 21.574 15.531,21.504 15.141,21.379 14.952 C 21.265 14.780,20.981 14.581,20.761 14.520 C 20.518 14.452,20.123 14.471,19.941 14.560 C 19.705 14.674,19.310 15.010,18.611 15.693 L 18.000 16.291 18.000 12.791 L 18.000 9.291 17.896 9.136 C 17.742 8.905,17.561 8.726,17.369 8.612 C 17.232 8.531,17.132 8.508,16.869 8.497 C 16.688 8.489,16.482 8.498,16.410 8.516 M3.780 13.315 C 3.195 13.337,3.081 13.351,2.961 13.422 C 2.644 13.608,2.410 14.102,2.451 14.499 C 2.494 14.911,2.843 15.395,3.159 15.480 C 3.439 15.555,4.454 15.599,5.920 15.599 C 7.583 15.598,8.694 15.549,8.889 15.467 C 9.045 15.401,9.422 15.011,9.484 14.852 C 9.561 14.654,9.542 14.120,9.451 13.919 C 9.340 13.675,9.051 13.403,8.855 13.359 C 8.662 13.315,4.705 13.281,3.780 13.315 " fill="#373B4D" stroke="none" fill-rule="evenodd"></path></svg>