<svg width="24" height="24" viewBox="0 0 24 24" fill="none" xmlns="http://www.w3.org/2000/svg"><path d="M7.917 3.678 L 3.174 3.700 3.008 3.810 C 2.805 3.944,2.543 4.268,2.478 4.465 C 2.403 4.693,2.450 5.074,2.584 5.320 C 2.723 5.576,3.000 5.826,3.204 5.881 C 3.457 5.949,7.233 5.998,12.340 5.999 L 17.140 6.000 17.367 5.822 C 17.491 5.724,17.651 5.560,17.722 5.457 C 18.128 4.866,18.004 4.313,17.349 3.795 L 17.153 3.640 14.906 3.648 C 13.671 3.652,10.526 3.666,7.917 3.678 M3.273 8.558 C 3.149 8.575,2.987 8.624,2.913 8.666 C 2.748 8.762,2.539 9.102,2.482 9.367 C 2.368 9.900,2.697 10.515,3.177 10.664 C 3.510 10.768,5.065 10.810,7.591 10.784 C 10.171 10.758,10.008 10.778,10.379 10.436 C 10.900 9.957,10.823 9.041,10.230 8.649 L 10.066 8.540 6.783 8.534 C 4.977 8.530,3.398 8.541,3.273 8.558 M16.238 8.633 C 15.869 8.869,13.689 10.985,12.742 12.028 C 12.203 12.620,12.060 12.871,12.061 13.220 C 12.062 13.409,12.087 13.505,12.179 13.674 C 12.338 13.962,12.635 14.224,12.891 14.300 C 13.133 14.371,13.212 14.374,13.474 14.318 C 13.717 14.265,14.026 14.018,14.950 13.135 L 15.600 12.514 15.600 16.043 L 15.600 19.571 15.824 19.826 C 16.149 20.196,16.333 20.292,16.758 20.312 C 17.001 20.324,17.142 20.312,17.241 20.270 C 17.450 20.182,17.782 19.863,17.856 19.678 C 17.955 19.431,17.998 18.044,17.999 15.084 L 18.000 12.509 18.490 12.985 C 19.215 13.689,19.710 14.109,19.976 14.242 C 20.370 14.439,20.714 14.394,21.092 14.097 C 21.401 13.855,21.536 13.572,21.538 13.160 C 21.540 12.862,21.536 12.849,21.371 12.630 C 20.971 12.099,18.110 9.207,17.588 8.805 C 17.292 8.578,17.130 8.524,16.738 8.522 C 16.451 8.520,16.396 8.532,16.238 8.633 M3.777 13.356 C 3.098 13.379,3.045 13.386,2.913 13.477 C 2.634 13.668,2.406 14.200,2.462 14.531 C 2.524 14.904,2.795 15.292,3.093 15.436 C 3.234 15.505,3.399 15.528,4.003 15.565 C 4.862 15.617,8.194 15.584,8.600 15.519 C 8.901 15.471,9.094 15.352,9.333 15.069 C 9.488 14.886,9.495 14.865,9.512 14.549 C 9.521 14.368,9.509 14.146,9.484 14.056 C 9.427 13.842,9.239 13.586,9.050 13.464 L 8.900 13.367 6.700 13.350 C 5.490 13.340,4.175 13.343,3.777 13.356 " fill="#373B4D" stroke="none" fill-rule="evenodd"></path></svg>