<svg width="24" height="24" viewBox="0 0 24 24" fill="none" xmlns="http://www.w3.org/2000/svg"><path d="M5.936 3.679 L 3.173 3.700 2.953 3.846 C 2.391 4.220,2.255 4.899,2.634 5.438 C 2.872 5.778,3.013 5.873,3.361 5.925 C 3.570 5.956,5.694 5.976,10.390 5.988 L 17.120 6.007 17.379 5.822 C 17.793 5.527,17.960 5.221,17.959 4.760 C 17.959 4.374,17.739 4.036,17.301 3.745 L 17.141 3.640 12.921 3.649 C 10.599 3.654,7.456 3.667,5.936 3.679 M4.280 8.478 C 3.066 8.510,2.985 8.529,2.719 8.831 C 2.398 9.196,2.350 9.761,2.605 10.184 C 2.775 10.466,2.953 10.624,3.163 10.681 C 3.254 10.705,3.583 10.742,3.894 10.762 C 4.572 10.806,7.579 10.807,8.985 10.764 C 9.974 10.734,9.993 10.732,10.171 10.627 C 10.375 10.508,10.524 10.345,10.650 10.105 C 10.786 9.845,10.775 9.372,10.627 9.070 C 10.559 8.932,10.444 8.783,10.337 8.695 C 10.177 8.564,10.127 8.547,9.830 8.518 C 9.354 8.473,5.527 8.445,4.280 8.478 M16.530 8.486 C 16.437 8.502,16.283 8.569,16.187 8.635 C 15.948 8.799,14.343 10.338,13.404 11.303 C 12.171 12.571,12.010 12.806,12.049 13.292 C 12.060 13.430,12.101 13.605,12.140 13.681 C 12.248 13.889,12.612 14.223,12.817 14.301 C 13.039 14.386,13.473 14.367,13.671 14.265 C 13.855 14.169,14.270 13.805,14.983 13.111 L 15.600 12.510 15.600 16.026 L 15.600 19.541 15.811 19.820 C 16.101 20.206,16.364 20.340,16.820 20.339 C 17.077 20.339,17.175 20.320,17.316 20.246 C 17.569 20.112,17.861 19.806,17.895 19.639 C 17.962 19.317,17.997 17.811,17.999 15.246 L 18.000 12.513 18.710 13.200 C 19.530 13.994,19.849 14.247,20.148 14.341 C 20.495 14.450,20.924 14.316,21.239 14.001 C 21.451 13.789,21.522 13.619,21.549 13.260 C 21.587 12.756,21.576 12.742,19.906 11.023 C 18.555 9.633,17.571 8.711,17.300 8.582 C 17.078 8.476,16.788 8.440,16.530 8.486 M3.210 13.316 C 2.773 13.391,2.404 13.964,2.448 14.498 C 2.483 14.916,2.824 15.390,3.152 15.478 C 3.450 15.558,4.330 15.597,5.800 15.596 C 7.716 15.595,8.741 15.552,8.909 15.466 C 9.104 15.365,9.426 15.022,9.485 14.852 C 9.514 14.768,9.538 14.565,9.538 14.400 C 9.538 14.045,9.448 13.810,9.224 13.587 C 8.918 13.280,9.137 13.301,6.100 13.293 C 4.604 13.290,3.304 13.300,3.210 13.316 " fill="#373B4D" stroke="none" fill-rule="evenodd"></path></svg>