<svg width="24" height="24" viewBox="0 0 24 24" fill="none" xmlns="http://www.w3.org/2000/svg"><path d="M8.360 3.678 L 3.180 3.700 3.053 3.790 C 2.871 3.920,2.558 4.278,2.494 4.429 C 2.317 4.851,2.669 5.642,3.117 5.830 C 3.367 5.934,4.553 5.957,10.920 5.983 L 17.140 6.008 17.334 5.844 C 18.132 5.170,18.136 4.489,17.346 3.805 L 17.155 3.640 15.348 3.648 C 14.353 3.652,11.209 3.666,8.360 3.678 M16.450 8.557 C 16.379 8.575,16.226 8.661,16.110 8.749 C 15.591 9.142,12.787 11.946,12.360 12.500 C 12.078 12.865,12.017 13.161,12.147 13.543 C 12.238 13.811,12.624 14.194,12.900 14.291 C 13.427 14.474,13.665 14.336,15.030 13.049 L 15.600 12.511 15.600 16.052 L 15.600 19.592 15.910 19.882 C 16.081 20.041,16.279 20.197,16.352 20.227 C 16.424 20.257,16.649 20.293,16.852 20.306 L 17.220 20.330 17.507 20.055 C 17.968 19.613,17.947 19.811,17.996 15.390 C 18.013 13.877,18.038 12.628,18.053 12.614 C 18.067 12.600,18.261 12.764,18.484 12.978 C 19.076 13.547,19.778 14.135,19.990 14.241 C 20.473 14.482,21.147 14.223,21.401 13.699 C 21.519 13.453,21.553 12.981,21.465 12.796 C 21.366 12.587,20.478 11.629,19.265 10.420 C 18.033 9.194,17.482 8.713,17.205 8.624 C 16.966 8.547,16.615 8.516,16.450 8.557 M3.920 8.598 C 2.933 8.623,2.874 8.640,2.677 8.952 C 2.439 9.327,2.421 9.752,2.627 10.152 C 2.772 10.434,2.972 10.594,3.267 10.665 C 3.757 10.783,7.509 10.843,9.117 10.758 C 10.017 10.711,10.119 10.681,10.408 10.370 C 10.839 9.906,10.811 9.268,10.337 8.761 L 10.149 8.560 7.465 8.568 C 5.988 8.573,4.393 8.586,3.920 8.598 M4.200 13.399 C 2.917 13.425,2.897 13.429,2.704 13.721 C 2.312 14.313,2.464 15.033,3.053 15.378 C 3.363 15.560,3.652 15.580,5.920 15.579 C 8.648 15.577,8.855 15.552,9.227 15.170 C 9.459 14.932,9.537 14.709,9.509 14.368 C 9.477 13.985,9.387 13.793,9.132 13.560 L 8.914 13.360 7.127 13.368 C 6.144 13.372,4.827 13.386,4.200 13.399 " fill="#373B4D" stroke="none" fill-rule="evenodd"></path></svg>