<svg width="24" height="24" viewBox="0 0 24 24" fill="none" xmlns="http://www.w3.org/2000/svg"><path d="M8.500 3.678 C 2.408 3.703,3.119 3.649,2.733 4.118 C 2.467 4.440,2.411 4.603,2.477 4.867 C 2.602 5.369,2.887 5.756,3.193 5.838 C 3.504 5.922,5.451 5.957,11.360 5.985 L 17.180 6.013 17.454 5.718 C 17.814 5.329,17.892 5.172,17.892 4.835 C 17.892 4.492,17.796 4.291,17.454 3.922 L 17.193 3.640 15.506 3.648 C 14.579 3.652,11.426 3.666,8.500 3.678 M5.260 8.601 C 3.904 8.619,3.164 8.644,3.052 8.675 C 2.843 8.733,2.630 8.972,2.558 9.226 C 2.366 9.915,2.721 10.542,3.384 10.681 C 3.674 10.743,7.271 10.797,8.615 10.760 C 9.963 10.723,10.062 10.702,10.363 10.401 C 10.805 9.959,10.785 9.278,10.315 8.744 L 10.153 8.560 8.727 8.567 C 7.942 8.571,6.382 8.586,5.260 8.601 M16.180 8.728 C 15.603 9.154,12.884 11.857,12.442 12.443 C 12.125 12.864,12.052 13.064,12.111 13.344 C 12.188 13.715,12.519 14.094,12.922 14.278 C 13.366 14.479,13.628 14.328,14.970 13.095 L 15.600 12.516 15.600 16.055 L 15.600 19.593 15.870 19.841 C 16.179 20.124,16.333 20.212,16.632 20.275 C 16.918 20.336,17.102 20.332,17.237 20.261 C 17.412 20.171,17.781 19.740,17.834 19.565 C 17.913 19.302,17.955 18.357,18.002 15.820 C 18.026 14.478,18.059 13.215,18.073 13.013 L 18.100 12.646 18.640 13.126 C 19.301 13.715,19.795 14.115,19.984 14.216 C 20.086 14.269,20.206 14.291,20.405 14.289 C 20.934 14.286,21.276 14.021,21.441 13.486 C 21.584 13.023,21.532 12.850,21.097 12.340 C 20.724 11.902,18.688 9.851,18.107 9.327 C 17.381 8.672,17.276 8.615,16.720 8.573 L 16.420 8.551 16.180 8.728 M5.080 13.402 C 4.145 13.418,3.272 13.451,3.140 13.475 C 2.949 13.510,2.874 13.547,2.773 13.656 C 2.542 13.904,2.445 14.502,2.582 14.831 C 2.659 15.016,2.931 15.301,3.128 15.403 C 3.401 15.544,3.951 15.578,5.940 15.576 C 8.408 15.574,8.840 15.525,9.174 15.208 C 9.476 14.921,9.578 14.540,9.461 14.138 C 9.386 13.880,9.302 13.738,9.086 13.510 L 8.944 13.360 7.862 13.367 C 7.267 13.370,6.015 13.386,5.080 13.402 " fill="#373B4D" stroke="none" fill-rule="evenodd"></path></svg>