<svg width="24" height="24" viewBox="0 0 24 24" fill="none" xmlns="http://www.w3.org/2000/svg"><path d="M8.259 3.678 L 3.178 3.700 3.012 3.822 C 2.797 3.980,2.532 4.302,2.475 4.474 C 2.367 4.802,2.536 5.341,2.841 5.636 C 3.148 5.934,3.035 5.924,6.540 5.961 C 8.256 5.980,11.343 5.996,13.400 5.997 L 17.140 5.999 17.367 5.819 C 17.791 5.482,18.012 5.007,17.924 4.622 C 17.865 4.361,17.651 4.052,17.372 3.822 L 17.151 3.640 15.245 3.648 C 14.197 3.652,11.053 3.666,8.259 3.678 M6.780 8.483 C 5.218 8.499,3.776 8.522,3.575 8.533 C 3.096 8.559,2.835 8.690,2.610 9.014 C 2.507 9.163,2.500 9.201,2.500 9.581 C 2.501 9.966,2.507 9.997,2.619 10.158 C 2.684 10.252,2.833 10.414,2.950 10.519 C 3.144 10.691,3.188 10.712,3.412 10.733 C 4.381 10.828,12.158 10.788,12.408 10.687 C 12.556 10.627,12.822 10.381,12.970 10.166 C 13.072 10.017,13.096 9.938,13.112 9.693 C 13.138 9.287,13.061 9.105,12.709 8.734 L 12.430 8.440 11.025 8.447 C 10.252 8.450,8.342 8.467,6.780 8.483 M16.366 8.563 C 16.293 8.586,16.128 8.707,16.001 8.832 C 15.803 9.026,15.762 9.093,15.721 9.280 C 15.660 9.562,15.604 11.941,15.602 14.370 C 15.601 15.399,15.589 16.240,15.575 16.240 C 15.561 16.240,15.287 15.991,14.965 15.687 C 14.286 15.046,13.897 14.713,13.712 14.613 C 13.613 14.560,13.485 14.542,13.200 14.541 C 12.856 14.540,12.802 14.551,12.633 14.650 C 12.246 14.877,12.060 15.242,12.087 15.718 C 12.101 15.967,12.117 16.008,12.277 16.216 C 12.579 16.608,13.628 17.704,14.623 18.667 C 16.065 20.064,16.437 20.360,16.752 20.360 C 16.942 20.360,17.258 20.226,17.501 20.043 C 18.067 19.615,21.072 16.605,21.388 16.148 C 21.492 15.998,21.500 15.958,21.500 15.600 C 21.500 15.240,21.492 15.201,21.380 15.022 C 21.300 14.895,21.181 14.783,21.023 14.686 C 20.792 14.544,20.776 14.540,20.403 14.543 C 20.125 14.545,19.984 14.564,19.891 14.613 C 19.701 14.713,19.256 15.094,18.590 15.726 L 18.000 16.286 18.000 12.765 L 18.000 9.245 17.774 9.000 C 17.439 8.639,17.279 8.559,16.852 8.538 C 16.659 8.529,16.440 8.540,16.366 8.563 M3.660 13.398 C 2.948 13.422,2.893 13.441,2.706 13.712 C 2.454 14.076,2.406 14.499,2.574 14.861 C 2.689 15.107,3.013 15.407,3.236 15.474 C 3.511 15.556,4.355 15.598,5.760 15.598 C 7.426 15.597,8.538 15.547,8.801 15.460 C 9.066 15.372,9.329 15.130,9.440 14.872 C 9.516 14.693,9.527 14.615,9.509 14.353 C 9.482 13.965,9.346 13.696,9.077 13.498 L 8.889 13.360 6.595 13.368 C 5.333 13.372,4.012 13.386,3.660 13.398 " fill="#373B4D" stroke="none" fill-rule="evenodd"></path></svg>