<svg width="24" height="24" viewBox="0 0 24 24" fill="none" xmlns="http://www.w3.org/2000/svg"><path d="M8.360 3.678 L 3.180 3.700 3.053 3.790 C 2.871 3.920,2.558 4.278,2.494 4.429 C 2.317 4.851,2.669 5.642,3.117 5.830 C 3.367 5.934,4.553 5.957,10.920 5.983 L 17.140 6.008 17.334 5.844 C 18.132 5.170,18.136 4.489,17.346 3.805 L 17.155 3.640 15.348 3.648 C 14.353 3.652,11.209 3.666,8.360 3.678 M6.980 8.483 C 3.985 8.514,3.378 8.532,3.163 8.597 C 2.964 8.657,2.742 8.823,2.613 9.010 C 2.507 9.163,2.500 9.199,2.500 9.578 C 2.500 10.027,2.515 10.067,2.810 10.386 C 3.122 10.725,3.141 10.730,4.136 10.764 C 6.142 10.832,12.177 10.772,12.416 10.682 C 12.554 10.629,12.926 10.259,13.024 10.078 C 13.078 9.977,13.098 9.854,13.099 9.620 C 13.100 9.224,13.044 9.101,12.692 8.720 L 12.433 8.440 11.106 8.447 C 10.377 8.450,8.520 8.466,6.980 8.483 M16.516 8.552 C 16.365 8.562,16.289 8.598,16.099 8.752 C 15.971 8.855,15.833 9.006,15.791 9.086 C 15.674 9.315,15.638 10.138,15.607 13.307 C 15.592 14.872,15.567 16.166,15.552 16.182 C 15.536 16.197,15.266 15.969,14.950 15.675 C 14.303 15.070,14.010 14.816,13.784 14.665 C 13.641 14.568,13.596 14.560,13.201 14.560 L 12.774 14.560 12.561 14.710 C 12.271 14.914,12.115 15.194,12.090 15.556 C 12.074 15.770,12.087 15.863,12.150 16.003 C 12.266 16.259,12.820 16.867,14.099 18.140 C 15.838 19.872,16.422 20.360,16.758 20.360 C 16.980 20.360,17.426 20.123,17.740 19.839 C 18.727 18.946,21.086 16.564,21.377 16.165 C 21.493 16.007,21.542 15.699,21.502 15.379 C 21.468 15.110,21.307 14.880,21.018 14.688 C 20.820 14.556,20.820 14.556,20.376 14.568 C 19.968 14.579,19.920 14.589,19.776 14.689 C 19.557 14.842,19.189 15.166,18.550 15.768 L 18.000 16.287 18.000 12.761 L 18.000 9.234 17.774 8.997 C 17.420 8.626,17.103 8.514,16.516 8.552 M4.200 13.399 C 2.917 13.425,2.897 13.429,2.704 13.721 C 2.312 14.313,2.464 15.033,3.053 15.378 C 3.363 15.560,3.652 15.580,5.920 15.579 C 8.648 15.577,8.855 15.552,9.227 15.170 C 9.459 14.932,9.537 14.709,9.509 14.368 C 9.477 13.985,9.387 13.793,9.132 13.560 L 8.914 13.360 7.127 13.368 C 6.144 13.372,4.827 13.386,4.200 13.399 " fill="#373B4D" stroke="none" fill-rule="evenodd"></path></svg>