<svg width="24" height="24" viewBox="0 0 24 24" fill="none" xmlns="http://www.w3.org/2000/svg"><path d="M5.492 2.582 C 5.422 2.618,5.267 2.750,5.148 2.875 C 4.878 3.159,4.841 3.298,4.811 4.165 L 4.789 4.791 4.424 4.817 C 3.365 4.895,3.068 4.975,2.787 5.256 C 2.452 5.590,2.371 6.009,2.558 6.431 C 2.795 6.968,3.340 7.199,4.370 7.200 L 4.800 7.200 4.800 7.550 C 4.801 8.467,4.927 8.929,5.259 9.232 C 5.518 9.469,5.722 9.535,6.132 9.514 C 6.380 9.501,6.455 9.480,6.598 9.382 C 7.014 9.093,7.199 8.555,7.200 7.630 L 7.200 7.200 7.551 7.200 C 7.972 7.200,8.503 7.139,8.787 7.058 C 9.352 6.898,9.714 6.075,9.447 5.560 C 9.318 5.312,9.143 5.140,8.925 5.046 C 8.730 4.962,8.137 4.864,7.555 4.818 L 7.209 4.791 7.189 4.166 C 7.158 3.212,7.021 2.894,6.538 2.657 C 6.254 2.518,5.695 2.478,5.492 2.582 M13.877 2.599 C 13.691 2.698,13.451 2.966,13.355 3.183 C 13.275 3.362,12.477 6.135,12.039 7.753 C 11.796 8.651,11.782 8.687,11.663 8.748 C 11.466 8.850,8.494 10.633,8.124 10.872 C 7.653 11.175,7.418 11.405,7.344 11.634 C 7.248 11.933,7.229 12.105,7.277 12.252 C 7.418 12.678,7.861 13.012,10.047 14.345 C 11.336 15.131,11.556 15.277,11.688 15.433 C 11.818 15.588,11.933 15.943,12.598 18.254 C 13.379 20.964,13.471 21.194,13.855 21.377 C 14.189 21.536,14.484 21.579,14.718 21.501 C 14.949 21.424,15.254 21.169,15.357 20.965 C 15.477 20.728,15.691 20.026,16.342 17.732 C 16.682 16.538,16.981 15.525,17.008 15.482 C 17.073 15.377,17.553 15.065,18.980 14.199 C 21.018 12.963,21.434 12.658,21.493 12.364 C 21.538 12.138,21.523 11.724,21.465 11.589 C 21.382 11.398,21.159 11.206,20.580 10.829 C 20.051 10.486,17.757 9.095,17.276 8.827 L 17.013 8.680 16.863 8.130 C 16.101 5.323,15.529 3.374,15.382 3.084 C 15.213 2.751,14.762 2.519,14.290 2.522 C 14.105 2.523,13.975 2.547,13.877 2.599 M5.492 14.582 C 5.422 14.618,5.267 14.750,5.148 14.875 C 4.878 15.159,4.841 15.298,4.811 16.165 L 4.789 16.791 4.424 16.817 C 3.365 16.895,3.068 16.975,2.787 17.256 C 2.452 17.590,2.371 18.009,2.558 18.431 C 2.795 18.968,3.340 19.199,4.370 19.200 L 4.800 19.200 4.800 19.630 C 4.801 20.187,4.859 20.683,4.943 20.845 C 5.040 21.033,5.391 21.361,5.589 21.448 C 5.683 21.490,5.849 21.534,5.959 21.547 C 6.233 21.580,6.522 21.435,6.816 21.118 C 7.108 20.802,7.157 20.634,7.188 19.830 L 7.212 19.200 7.556 19.200 C 8.044 19.199,8.563 19.133,8.816 19.038 C 9.174 18.904,9.429 18.555,9.539 18.049 C 9.610 17.720,9.298 17.206,8.931 17.049 C 8.731 16.963,8.144 16.864,7.555 16.818 L 7.209 16.791 7.189 16.166 C 7.158 15.212,7.021 14.894,6.538 14.657 C 6.254 14.518,5.695 14.478,5.492 14.582 " fill="#373B4D" stroke="none" fill-rule="evenodd"></path></svg>