<svg width="24" height="24" viewBox="0 0 24 24" fill="none" xmlns="http://www.w3.org/2000/svg"><path d="M14.010 2.500 C 13.767 2.605,13.522 2.802,13.424 2.971 C 13.300 3.184,13.182 3.583,12.421 6.382 C 12.081 7.630,11.798 8.655,11.792 8.661 C 11.785 8.667,10.970 9.144,9.980 9.721 C 7.833 10.971,7.500 11.192,7.369 11.447 C 7.255 11.668,7.206 12.155,7.276 12.368 C 7.390 12.714,7.957 13.120,9.920 14.261 C 11.544 15.205,11.714 15.312,11.777 15.435 C 11.856 15.591,11.983 16.028,12.556 18.120 C 13.354 21.032,13.371 21.082,13.673 21.309 C 14.006 21.560,14.587 21.632,14.914 21.463 C 15.091 21.372,15.340 21.116,15.432 20.932 C 15.496 20.804,16.044 18.854,16.812 16.020 L 16.985 15.380 18.022 14.770 C 20.904 13.075,21.310 12.807,21.461 12.496 C 21.554 12.303,21.584 11.877,21.520 11.639 C 21.423 11.275,21.125 11.066,18.580 9.581 C 17.722 9.080,17.015 8.667,17.010 8.662 C 17.004 8.657,16.720 7.628,16.378 6.376 C 15.662 3.752,15.501 3.198,15.394 2.988 C 15.197 2.602,14.413 2.325,14.010 2.500 M5.374 2.618 C 5.127 2.784,4.933 3.010,4.876 3.200 C 4.852 3.277,4.823 3.669,4.811 4.070 L 4.789 4.800 4.505 4.801 C 3.921 4.804,3.252 4.872,3.115 4.942 C 2.780 5.114,2.549 5.399,2.458 5.755 C 2.401 5.977,2.401 6.023,2.458 6.243 C 2.563 6.654,2.851 6.984,3.216 7.111 C 3.321 7.147,3.634 7.175,4.084 7.189 L 4.788 7.212 4.813 7.916 C 4.827 8.303,4.859 8.691,4.883 8.777 C 4.939 8.973,5.319 9.383,5.540 9.485 C 5.759 9.585,6.241 9.585,6.460 9.485 C 6.681 9.383,7.061 8.973,7.117 8.777 C 7.141 8.691,7.173 8.300,7.187 7.910 L 7.213 7.200 7.676 7.200 C 8.658 7.199,9.008 7.104,9.277 6.764 C 9.687 6.247,9.674 5.634,9.246 5.206 C 8.947 4.907,8.839 4.875,7.977 4.828 L 7.210 4.786 7.192 4.057 C 7.175 3.363,7.169 3.318,7.064 3.105 C 6.934 2.838,6.681 2.616,6.415 2.537 C 6.312 2.505,6.081 2.480,5.903 2.480 C 5.600 2.480,5.566 2.489,5.374 2.618 M5.374 14.618 C 5.127 14.784,4.933 15.010,4.876 15.200 C 4.852 15.277,4.823 15.668,4.811 16.070 L 4.789 16.800 4.505 16.801 C 3.921 16.804,3.252 16.872,3.115 16.942 C 2.780 17.114,2.549 17.399,2.458 17.755 C 2.401 17.977,2.401 18.023,2.458 18.243 C 2.563 18.654,2.851 18.984,3.216 19.111 C 3.321 19.147,3.634 19.175,4.084 19.190 L 4.788 19.212 4.814 19.936 C 4.829 20.334,4.852 20.714,4.866 20.780 C 4.905 20.958,5.416 21.451,5.625 21.512 C 5.850 21.578,6.253 21.572,6.423 21.501 C 6.609 21.423,7.026 21.003,7.106 20.812 C 7.154 20.699,7.176 20.472,7.191 19.930 L 7.211 19.200 7.676 19.200 C 8.658 19.199,9.008 19.104,9.277 18.764 C 9.687 18.247,9.674 17.634,9.246 17.206 C 8.947 16.907,8.839 16.875,7.977 16.828 L 7.210 16.786 7.192 16.057 C 7.175 15.363,7.169 15.318,7.064 15.105 C 6.934 14.838,6.681 14.616,6.415 14.537 C 6.312 14.505,6.081 14.480,5.903 14.480 C 5.600 14.480,5.566 14.489,5.374 14.618 " fill="#373B4D" stroke="none" fill-rule="evenodd"></path></svg>