<svg width="24" height="24" viewBox="0 0 24 24" fill="none" xmlns="http://www.w3.org/2000/svg"><path d="M5.760 2.436 C 5.399 2.511,5.091 2.748,4.933 3.071 C 4.823 3.293,4.820 3.323,4.806 4.044 L 4.793 4.788 4.040 4.810 L 3.288 4.831 3.040 4.963 C 2.324 5.345,2.193 6.251,2.768 6.843 C 3.052 7.136,3.193 7.175,4.046 7.193 L 4.792 7.208 4.807 7.954 C 4.826 8.808,4.864 8.948,5.158 9.234 C 5.419 9.487,5.646 9.580,6.000 9.580 C 6.354 9.580,6.581 9.487,6.842 9.234 C 7.136 8.948,7.174 8.808,7.193 7.954 L 7.208 7.208 7.954 7.193 C 8.807 7.175,8.948 7.136,9.232 6.843 C 9.807 6.251,9.676 5.345,8.960 4.963 L 8.712 4.831 7.960 4.810 L 7.208 4.788 7.194 4.044 C 7.180 3.324,7.176 3.293,7.068 3.072 C 7.006 2.946,6.898 2.795,6.828 2.735 C 6.550 2.500,6.082 2.369,5.760 2.436 M14.180 2.441 C 13.957 2.475,13.705 2.614,13.518 2.807 C 13.324 3.007,13.346 2.935,12.560 5.880 C 12.228 7.123,11.921 8.257,11.879 8.400 L 11.802 8.660 10.451 9.438 C 8.490 10.568,7.773 11.001,7.579 11.170 C 7.330 11.388,7.240 11.599,7.240 11.963 C 7.241 12.728,7.212 12.705,10.550 14.622 L 11.800 15.340 11.878 15.600 C 11.921 15.743,12.199 16.769,12.497 17.880 C 13.367 21.133,13.317 20.974,13.545 21.205 C 13.823 21.487,14.026 21.575,14.398 21.574 C 14.775 21.572,14.935 21.506,15.221 21.236 C 15.387 21.078,15.455 20.979,15.502 20.824 C 15.565 20.612,15.969 19.126,16.601 16.776 C 16.803 16.025,16.980 15.394,16.994 15.372 C 17.008 15.349,17.560 15.021,18.220 14.641 C 21.601 12.695,21.561 12.727,21.559 11.960 C 21.558 11.597,21.479 11.400,21.251 11.194 C 21.074 11.034,20.067 10.427,18.209 9.357 L 16.999 8.660 16.921 8.400 C 16.879 8.257,16.601 7.231,16.303 6.120 C 15.434 2.873,15.482 3.026,15.258 2.798 C 14.968 2.503,14.590 2.378,14.180 2.441 M5.760 14.436 C 5.399 14.511,5.091 14.748,4.933 15.071 C 4.823 15.293,4.820 15.323,4.806 16.044 L 4.793 16.788 4.040 16.810 L 3.288 16.831 3.040 16.963 C 2.324 17.345,2.193 18.251,2.768 18.843 C 3.052 19.136,3.192 19.174,4.050 19.193 L 4.800 19.209 4.800 19.877 C 4.800 20.750,4.838 20.886,5.174 21.219 C 5.690 21.732,6.311 21.733,6.822 21.222 C 7.160 20.883,7.200 20.742,7.200 19.880 L 7.200 19.209 7.950 19.193 C 8.808 19.174,8.948 19.136,9.232 18.843 C 9.807 18.251,9.676 17.345,8.960 16.963 L 8.712 16.831 7.960 16.810 L 7.208 16.788 7.194 16.044 C 7.180 15.324,7.176 15.293,7.068 15.072 C 7.006 14.946,6.898 14.795,6.828 14.735 C 6.550 14.500,6.082 14.369,5.760 14.436 " fill="#373B4D" stroke="none" fill-rule="evenodd"></path></svg>