<svg width="24" height="24" viewBox="0 0 24 24" fill="none" xmlns="http://www.w3.org/2000/svg"><path d="M13.995 2.533 C 13.678 2.652,13.466 2.885,13.314 3.285 C 13.218 3.539,12.634 5.577,12.141 7.384 L 11.790 8.667 11.225 8.998 C 9.677 9.903,8.030 10.905,7.783 11.091 C 7.436 11.353,7.377 11.435,7.295 11.767 C 7.198 12.164,7.240 12.360,7.472 12.609 C 7.796 12.955,8.271 13.272,10.340 14.519 C 10.934 14.877,11.479 15.214,11.551 15.267 C 11.801 15.455,11.850 15.593,12.561 18.140 C 13.104 20.086,13.368 20.904,13.522 21.116 C 13.585 21.203,13.714 21.320,13.808 21.375 C 14.022 21.500,14.456 21.575,14.680 21.525 C 14.912 21.472,15.240 21.210,15.369 20.973 C 15.478 20.774,15.935 19.228,16.581 16.880 C 16.772 16.187,16.951 15.564,16.980 15.495 C 17.024 15.388,17.269 15.227,18.586 14.438 C 20.797 13.113,21.306 12.770,21.442 12.516 C 21.517 12.376,21.557 11.912,21.513 11.703 C 21.459 11.444,21.299 11.286,20.668 10.869 C 20.218 10.571,18.581 9.581,17.515 8.962 L 17.011 8.669 16.660 7.385 C 15.915 4.658,15.513 3.305,15.354 2.990 C 15.181 2.647,14.395 2.383,13.995 2.533 M5.335 2.675 C 5.228 2.761,5.081 2.913,5.009 3.013 C 4.893 3.175,4.874 3.240,4.840 3.588 C 4.819 3.803,4.802 4.162,4.801 4.385 L 4.800 4.790 4.370 4.818 C 3.259 4.888,3.038 4.952,2.740 5.293 C 2.429 5.648,2.363 6.054,2.553 6.444 C 2.831 7.019,3.264 7.200,4.357 7.200 L 4.789 7.200 4.811 7.830 C 4.840 8.665,4.916 8.925,5.222 9.223 C 5.477 9.473,5.641 9.536,6.040 9.537 C 6.297 9.539,6.368 9.523,6.527 9.430 C 7.012 9.146,7.197 8.645,7.199 7.616 L 7.200 7.212 7.790 7.189 C 8.660 7.156,8.991 7.064,9.221 6.792 C 9.384 6.600,9.522 6.272,9.548 6.020 C 9.568 5.828,9.555 5.768,9.444 5.542 C 9.187 5.021,8.900 4.908,7.590 4.817 L 7.200 4.790 7.200 4.345 C 7.199 3.338,7.096 3.002,6.707 2.735 C 6.456 2.562,6.294 2.520,5.875 2.520 C 5.535 2.520,5.528 2.522,5.335 2.675 M5.335 14.675 C 5.228 14.761,5.081 14.913,5.009 15.013 C 4.893 15.175,4.874 15.240,4.840 15.588 C 4.819 15.803,4.802 16.162,4.801 16.385 L 4.800 16.790 4.370 16.818 C 3.259 16.888,3.038 16.952,2.740 17.293 C 2.429 17.648,2.363 18.054,2.553 18.444 C 2.831 19.019,3.264 19.200,4.357 19.200 L 4.787 19.200 4.812 19.918 C 4.841 20.739,4.863 20.820,5.146 21.123 C 5.411 21.406,5.616 21.517,5.928 21.546 C 6.138 21.566,6.220 21.555,6.375 21.486 C 6.578 21.396,6.959 21.035,7.063 20.834 C 7.138 20.690,7.197 20.144,7.199 19.596 L 7.200 19.211 7.830 19.189 C 8.826 19.155,9.151 19.011,9.406 18.493 C 9.585 18.130,9.589 17.798,9.419 17.486 C 9.163 17.015,8.864 16.906,7.590 16.817 L 7.200 16.790 7.200 16.345 C 7.199 15.338,7.096 15.002,6.707 14.735 C 6.456 14.562,6.294 14.520,5.875 14.520 C 5.535 14.520,5.528 14.522,5.335 14.675 " fill="#373B4D" stroke="none" fill-rule="evenodd"></path></svg>