<svg width="24" height="24" viewBox="0 0 24 24" fill="none" xmlns="http://www.w3.org/2000/svg"><path d="M14.035 2.493 C 13.859 2.559,13.702 2.669,13.530 2.848 C 13.350 3.035,13.266 3.301,12.477 6.179 C 12.102 7.542,11.793 8.660,11.788 8.664 C 11.784 8.668,11.033 9.108,10.120 9.641 C 8.395 10.649,7.642 11.120,7.492 11.285 C 7.366 11.422,7.282 11.644,7.254 11.916 C 7.217 12.275,7.260 12.422,7.469 12.645 C 7.774 12.972,8.356 13.343,10.930 14.856 C 11.254 15.046,11.582 15.257,11.658 15.324 C 11.826 15.471,11.807 15.411,12.563 18.148 C 13.290 20.778,13.366 21.008,13.584 21.226 C 13.709 21.352,13.821 21.415,14.020 21.477 C 14.530 21.635,14.825 21.576,15.167 21.250 C 15.379 21.047,15.411 20.995,15.517 20.662 C 15.631 20.308,16.396 17.569,16.791 16.103 L 16.984 15.386 18.409 14.543 C 20.903 13.067,21.318 12.789,21.463 12.493 C 21.518 12.379,21.538 12.248,21.539 11.980 C 21.540 11.672,21.527 11.598,21.448 11.472 C 21.276 11.195,20.770 10.863,18.440 9.501 C 17.659 9.045,17.017 8.669,17.013 8.666 C 17.010 8.662,16.752 7.733,16.441 6.600 C 15.569 3.427,15.467 3.086,15.320 2.880 C 15.118 2.597,14.366 2.370,14.035 2.493 M5.463 2.563 C 5.236 2.687,4.930 3.017,4.881 3.191 C 4.857 3.273,4.827 3.669,4.813 4.070 L 4.787 4.800 4.504 4.800 C 4.136 4.800,3.384 4.871,3.184 4.925 C 3.079 4.953,2.951 5.043,2.797 5.197 C 2.601 5.393,2.553 5.471,2.479 5.714 L 2.392 6.000 2.474 6.270 C 2.609 6.712,2.884 7.008,3.264 7.118 C 3.350 7.143,3.731 7.174,4.110 7.188 L 4.800 7.212 4.801 7.616 C 4.802 7.838,4.819 8.196,4.840 8.412 C 4.883 8.854,4.967 9.018,5.297 9.309 C 5.502 9.489,5.700 9.560,6.000 9.560 C 6.309 9.560,6.504 9.487,6.725 9.288 C 7.114 8.938,7.196 8.647,7.199 7.610 L 7.200 7.200 7.710 7.200 C 8.630 7.199,9.044 7.078,9.296 6.734 C 9.547 6.391,9.623 6.001,9.511 5.625 C 9.444 5.397,9.036 4.983,8.820 4.923 C 8.732 4.899,8.334 4.858,7.935 4.833 L 7.209 4.787 7.193 4.064 C 7.175 3.253,7.137 3.113,6.857 2.825 C 6.624 2.586,6.439 2.514,6.003 2.495 C 5.667 2.480,5.601 2.488,5.463 2.563 M5.463 14.563 C 5.236 14.687,4.930 15.017,4.881 15.191 C 4.857 15.273,4.827 15.668,4.813 16.070 L 4.787 16.800 4.504 16.800 C 4.136 16.800,3.384 16.871,3.184 16.925 C 3.079 16.953,2.951 17.043,2.797 17.197 C 2.601 17.393,2.553 17.471,2.479 17.714 L 2.392 18.000 2.474 18.270 C 2.609 18.712,2.884 19.008,3.264 19.118 C 3.350 19.143,3.728 19.174,4.104 19.188 L 4.788 19.212 4.814 19.963 C 4.828 20.377,4.858 20.763,4.881 20.823 C 4.931 20.953,5.350 21.371,5.530 21.469 C 5.627 21.522,5.751 21.540,6.024 21.540 C 6.385 21.540,6.390 21.539,6.584 21.387 C 6.825 21.200,7.104 20.865,7.137 20.725 C 7.151 20.667,7.173 20.300,7.187 19.910 L 7.211 19.200 7.716 19.200 C 8.630 19.199,9.044 19.077,9.296 18.734 C 9.547 18.391,9.623 18.001,9.511 17.625 C 9.444 17.397,9.036 16.983,8.820 16.923 C 8.732 16.899,8.334 16.858,7.935 16.833 L 7.209 16.787 7.193 16.064 C 7.175 15.253,7.137 15.113,6.857 14.825 C 6.624 14.586,6.439 14.514,6.003 14.495 C 5.667 14.480,5.601 14.488,5.463 14.563 " fill="#373B4D" stroke="none" fill-rule="evenodd"></path></svg>