<svg width="24" height="24" viewBox="0 0 24 24" fill="none" xmlns="http://www.w3.org/2000/svg"><path d="M5.585 2.576 C 5.265 2.695,4.958 3.045,4.876 3.386 C 4.856 3.471,4.828 3.822,4.814 4.166 L 4.788 4.793 4.464 4.820 C 3.864 4.869,3.315 4.958,3.147 5.033 C 2.909 5.139,2.733 5.300,2.598 5.536 C 2.503 5.702,2.481 5.785,2.483 5.980 C 2.487 6.264,2.536 6.412,2.706 6.653 C 2.950 6.998,3.559 7.196,4.384 7.199 L 4.788 7.200 4.813 7.750 C 4.840 8.362,4.915 8.736,5.061 8.986 C 5.253 9.312,5.632 9.520,6.036 9.520 C 6.355 9.519,6.524 9.449,6.740 9.226 C 7.053 8.904,7.199 8.384,7.200 7.590 L 7.200 7.200 7.570 7.200 C 8.049 7.199,8.689 7.102,8.908 6.996 C 9.356 6.779,9.620 6.161,9.473 5.672 C 9.415 5.478,9.159 5.181,8.965 5.084 C 8.770 4.985,7.656 4.800,7.262 4.800 C 7.211 4.800,7.200 4.740,7.199 4.470 C 7.197 3.602,7.065 3.053,6.807 2.840 C 6.506 2.591,5.898 2.460,5.585 2.576 M13.960 2.570 C 13.768 2.635,13.514 2.901,13.386 3.171 C 13.271 3.413,12.939 4.528,12.265 6.927 C 12.035 7.748,11.828 8.468,11.805 8.527 C 11.756 8.655,11.571 8.783,10.460 9.458 C 8.354 10.738,7.889 11.034,7.676 11.230 C 7.429 11.459,7.303 11.682,7.260 11.965 C 7.182 12.486,7.611 12.844,10.328 14.527 C 10.885 14.872,11.415 15.208,11.506 15.274 C 11.780 15.473,11.775 15.459,12.760 18.800 C 13.206 20.312,13.425 20.941,13.579 21.142 C 13.787 21.415,14.394 21.594,14.731 21.483 C 14.953 21.410,15.211 21.190,15.328 20.975 C 15.469 20.715,15.556 20.445,16.145 18.420 C 16.813 16.126,16.960 15.639,17.023 15.516 C 17.085 15.394,17.604 15.045,18.980 14.201 C 20.808 13.080,21.350 12.690,21.466 12.412 C 21.530 12.258,21.536 11.880,21.477 11.667 C 21.393 11.364,21.123 11.164,19.280 10.034 C 18.653 9.650,17.886 9.187,17.576 9.006 L 17.012 8.678 16.821 7.969 C 16.474 6.684,15.803 4.351,15.595 3.705 C 15.414 3.145,15.371 3.051,15.231 2.911 C 15.011 2.691,14.706 2.559,14.372 2.539 C 14.222 2.530,14.037 2.544,13.960 2.570 M5.585 14.576 C 5.265 14.695,4.958 15.045,4.876 15.386 C 4.856 15.471,4.828 15.822,4.814 16.166 L 4.788 16.793 4.464 16.820 C 3.864 16.869,3.315 16.958,3.147 17.033 C 2.909 17.139,2.733 17.300,2.598 17.536 C 2.503 17.702,2.481 17.785,2.483 17.980 C 2.487 18.264,2.536 18.412,2.706 18.653 C 2.951 18.999,3.559 19.196,4.390 19.199 L 4.800 19.200 4.800 19.610 C 4.801 20.174,4.861 20.645,4.956 20.832 C 5.048 21.013,5.387 21.331,5.606 21.443 C 5.809 21.547,6.191 21.547,6.392 21.443 C 6.801 21.232,7.079 20.825,7.159 20.320 C 7.181 20.177,7.200 19.867,7.200 19.630 L 7.200 19.200 7.530 19.200 C 7.984 19.200,8.539 19.127,8.785 19.035 C 9.139 18.902,9.360 18.629,9.499 18.148 C 9.562 17.933,9.562 17.906,9.498 17.713 C 9.420 17.478,9.174 17.189,8.962 17.082 C 8.796 16.998,8.283 16.901,7.650 16.835 L 7.200 16.787 7.200 16.443 C 7.199 15.602,7.064 15.052,6.807 14.840 C 6.506 14.591,5.898 14.460,5.585 14.576 " fill="#373B4D" stroke="none" fill-rule="evenodd"></path></svg>