<svg width="24" height="24" viewBox="0 0 24 24" fill="none" xmlns="http://www.w3.org/2000/svg"><path d="M5.563 2.526 C 5.369 2.583,4.940 3.022,4.883 3.222 C 4.859 3.309,4.827 3.696,4.813 4.083 L 4.788 4.786 4.124 4.831 C 3.238 4.893,3.088 4.935,2.818 5.202 C 2.570 5.447,2.431 5.735,2.431 6.004 C 2.431 6.374,2.750 6.871,3.093 7.036 C 3.300 7.135,3.802 7.200,4.369 7.200 L 4.800 7.200 4.801 7.590 C 4.802 8.561,4.914 8.971,5.259 9.268 C 5.530 9.502,5.627 9.537,6.000 9.539 C 6.300 9.540,6.362 9.527,6.527 9.430 C 7.006 9.149,7.159 8.779,7.190 7.830 L 7.211 7.200 7.595 7.200 C 8.077 7.199,8.596 7.141,8.842 7.059 C 9.202 6.940,9.507 6.503,9.549 6.047 C 9.567 5.850,9.553 5.773,9.471 5.593 C 9.206 5.013,8.936 4.900,7.630 4.818 L 7.200 4.790 7.199 4.365 C 7.198 4.131,7.182 3.772,7.162 3.566 C 7.132 3.257,7.106 3.164,7.014 3.031 C 6.872 2.826,6.590 2.611,6.404 2.564 C 6.166 2.504,5.709 2.483,5.563 2.526 M14.031 2.517 C 13.688 2.628,13.444 2.897,13.296 3.328 C 13.174 3.682,12.707 5.321,12.180 7.244 L 11.790 8.667 10.430 9.464 C 8.146 10.801,7.522 11.209,7.397 11.448 C 7.275 11.683,7.215 12.117,7.276 12.322 C 7.380 12.671,7.941 13.081,9.963 14.289 C 10.569 14.651,11.211 15.041,11.388 15.155 C 11.822 15.433,11.777 15.321,12.481 17.860 C 13.229 20.552,13.374 20.986,13.603 21.224 C 13.801 21.428,14.086 21.534,14.443 21.537 C 14.728 21.540,14.760 21.531,14.970 21.392 C 15.246 21.209,15.376 21.041,15.481 20.736 C 15.588 20.428,16.186 18.325,16.633 16.686 C 16.967 15.464,16.992 15.389,17.103 15.322 C 17.167 15.282,17.921 14.832,18.778 14.321 C 20.533 13.274,20.984 12.985,21.233 12.746 C 21.457 12.531,21.483 12.479,21.521 12.169 C 21.571 11.768,21.520 11.545,21.336 11.354 C 21.082 11.091,19.817 10.299,17.515 8.963 L 17.011 8.669 16.681 7.465 C 15.674 3.787,15.453 3.064,15.278 2.864 C 15.044 2.598,14.365 2.409,14.031 2.517 M5.563 14.526 C 5.369 14.583,4.940 15.022,4.883 15.222 C 4.859 15.309,4.827 15.696,4.813 16.083 L 4.788 16.786 4.124 16.831 C 3.238 16.893,3.088 16.935,2.818 17.202 C 2.570 17.447,2.431 17.735,2.431 18.004 C 2.431 18.374,2.750 18.871,3.093 19.036 C 3.299 19.135,3.802 19.200,4.363 19.200 L 4.787 19.200 4.813 19.943 C 4.832 20.494,4.855 20.720,4.902 20.819 C 4.937 20.892,5.086 21.068,5.233 21.211 C 5.459 21.429,5.535 21.476,5.713 21.515 C 6.207 21.621,6.412 21.558,6.781 21.186 C 6.968 20.996,7.080 20.846,7.113 20.740 C 7.141 20.652,7.174 20.270,7.188 19.890 L 7.212 19.200 7.636 19.199 C 8.458 19.196,8.874 19.106,9.140 18.872 C 9.518 18.539,9.658 17.929,9.449 17.531 C 9.170 17.003,8.903 16.898,7.630 16.818 L 7.200 16.790 7.199 16.365 C 7.198 16.131,7.182 15.772,7.162 15.566 C 7.132 15.257,7.106 15.164,7.014 15.031 C 6.872 14.826,6.590 14.611,6.404 14.564 C 6.166 14.504,5.709 14.483,5.563 14.526 " fill="#373B4D" stroke="none" fill-rule="evenodd"></path></svg>