<svg width="24" height="24" viewBox="0 0 24 24" fill="none" xmlns="http://www.w3.org/2000/svg"><path d="M5.666 2.566 C 5.470 2.610,5.192 2.809,5.059 3.002 C 4.893 3.240,4.842 3.486,4.814 4.164 L 4.788 4.794 4.484 4.820 C 3.313 4.921,2.937 5.052,2.661 5.454 C 2.507 5.678,2.500 5.701,2.501 5.994 C 2.503 6.364,2.588 6.552,2.861 6.793 C 3.161 7.056,3.712 7.199,4.430 7.200 L 4.800 7.200 4.800 7.511 C 4.800 7.947,4.868 8.455,4.966 8.755 C 5.109 9.191,5.470 9.465,5.960 9.509 C 6.357 9.545,6.618 9.414,6.865 9.055 C 7.075 8.750,7.162 8.400,7.189 7.750 L 7.211 7.200 7.543 7.200 C 8.253 7.200,8.871 7.064,9.116 6.854 C 9.415 6.598,9.593 6.043,9.483 5.709 C 9.416 5.507,9.226 5.258,9.050 5.143 C 8.881 5.032,8.466 4.939,7.720 4.844 L 7.220 4.780 7.195 4.239 C 7.168 3.673,7.097 3.308,6.961 3.042 C 6.794 2.715,6.114 2.465,5.666 2.566 M13.900 2.606 C 13.745 2.692,13.512 2.942,13.419 3.125 C 13.290 3.376,13.050 4.160,12.416 6.400 C 12.121 7.445,11.852 8.372,11.818 8.460 C 11.738 8.672,11.674 8.717,10.000 9.740 C 8.269 10.797,7.732 11.150,7.560 11.346 C 7.376 11.556,7.265 11.823,7.264 12.062 C 7.261 12.532,7.692 12.880,10.280 14.500 C 10.907 14.892,11.471 15.251,11.534 15.297 C 11.757 15.460,11.820 15.634,12.613 18.300 C 13.149 20.099,13.370 20.763,13.524 21.044 C 13.703 21.368,14.358 21.606,14.733 21.482 C 14.916 21.422,15.262 21.113,15.357 20.925 C 15.464 20.714,15.649 20.121,16.239 18.100 C 16.902 15.825,16.987 15.561,17.093 15.446 C 17.207 15.321,17.831 14.912,19.080 14.140 C 20.923 13.002,21.435 12.617,21.493 12.325 C 21.572 11.928,21.504 11.609,21.291 11.388 C 21.040 11.127,19.531 10.160,17.637 9.045 L 17.013 8.679 16.861 8.109 C 16.378 6.310,15.564 3.544,15.421 3.219 C 15.313 2.973,15.025 2.710,14.771 2.623 C 14.558 2.551,14.020 2.540,13.900 2.606 M5.666 14.565 C 5.469 14.610,5.192 14.809,5.059 15.002 C 4.893 15.240,4.842 15.486,4.814 16.164 L 4.788 16.794 4.484 16.820 C 3.313 16.921,2.937 17.052,2.661 17.454 C 2.507 17.678,2.500 17.701,2.501 17.994 C 2.503 18.364,2.588 18.552,2.861 18.793 C 3.161 19.056,3.712 19.199,4.430 19.200 L 4.800 19.200 4.801 19.670 C 4.803 20.227,4.880 20.706,4.999 20.899 C 5.109 21.076,5.463 21.380,5.652 21.459 C 5.995 21.603,6.423 21.497,6.726 21.194 C 7.051 20.869,7.198 20.390,7.199 19.656 L 7.200 19.212 7.730 19.187 C 8.868 19.134,9.248 18.922,9.476 18.211 C 9.554 17.969,9.560 17.910,9.519 17.774 C 9.456 17.561,9.234 17.264,9.047 17.140 C 8.873 17.025,8.366 16.915,7.650 16.838 L 7.200 16.790 7.199 16.365 C 7.197 15.863,7.125 15.420,6.998 15.123 C 6.928 14.960,6.863 14.882,6.727 14.796 C 6.409 14.594,5.964 14.497,5.666 14.565 " fill="#373B4D" stroke="none" fill-rule="evenodd"></path></svg>