<svg width="24" height="24" viewBox="0 0 24 24" fill="none" xmlns="http://www.w3.org/2000/svg"><path d="M15.320 4.820 L 10.580 7.196 9.740 7.199 C 8.252 7.205,5.750 7.275,5.360 7.322 C 4.666 7.405,4.097 7.704,3.496 8.299 C 3.124 8.668,2.893 8.994,2.678 9.455 C 2.467 9.909,2.432 10.138,2.447 10.980 L 2.460 11.700 2.647 12.082 C 3.123 13.056,3.763 13.727,4.518 14.045 C 4.906 14.207,5.529 14.360,5.939 14.392 L 6.299 14.420 6.407 14.689 C 6.467 14.838,6.797 15.792,7.142 16.809 C 8.528 20.899,8.618 21.128,8.943 21.376 C 9.236 21.600,9.321 21.614,10.238 21.590 C 10.877 21.574,11.096 21.554,11.220 21.503 C 11.398 21.429,11.709 21.144,11.878 20.900 L 11.989 20.740 12.016 18.320 C 12.030 16.989,12.053 15.760,12.066 15.589 C 12.089 15.295,12.095 15.279,12.175 15.304 C 12.294 15.340,14.894 16.607,17.752 18.022 L 20.164 19.216 20.444 19.168 C 20.922 19.086,21.331 18.810,21.518 18.443 C 21.599 18.284,21.600 18.243,21.596 13.152 C 21.591 6.822,21.551 3.364,21.481 3.140 C 21.424 2.958,21.193 2.719,20.957 2.599 C 20.817 2.527,20.363 2.441,20.140 2.443 C 20.096 2.444,17.927 3.513,15.320 4.820 " fill="#373B4D" stroke="none" fill-rule="evenodd"></path></svg>