<svg width="24" height="24" viewBox="0 0 24 24" fill="none" xmlns="http://www.w3.org/2000/svg"><path d="M15.320 4.814 L 10.580 7.188 8.480 7.213 C 5.965 7.243,5.214 7.285,4.828 7.419 C 4.380 7.574,3.975 7.831,3.572 8.215 C 3.166 8.602,2.933 8.922,2.685 9.435 C 2.461 9.898,2.432 10.083,2.447 10.932 L 2.460 11.660 2.611 11.999 C 3.007 12.891,3.601 13.581,4.274 13.933 C 4.746 14.181,5.587 14.399,6.075 14.401 C 6.177 14.401,6.282 14.415,6.309 14.432 C 6.335 14.449,6.702 15.488,7.123 16.742 C 8.085 19.607,8.414 20.545,8.585 20.906 C 8.728 21.209,8.894 21.384,9.171 21.526 C 9.333 21.609,9.374 21.611,10.226 21.589 C 11.022 21.568,11.128 21.558,11.277 21.481 C 11.471 21.383,11.698 21.166,11.868 20.916 L 11.988 20.740 12.016 18.020 C 12.032 16.524,12.057 15.287,12.073 15.271 C 12.107 15.237,13.281 15.804,17.260 17.778 L 20.140 19.208 20.366 19.185 C 20.869 19.134,21.311 18.849,21.519 18.442 L 21.607 18.270 21.588 10.985 C 21.575 6.096,21.555 3.597,21.526 3.386 C 21.477 3.029,21.385 2.875,21.109 2.687 C 20.880 2.532,20.726 2.485,20.366 2.460 L 20.060 2.439 15.320 4.814 " fill="#373B4D" stroke="none" fill-rule="evenodd"></path></svg>