<svg width="24" height="24" viewBox="0 0 24 24" fill="none" xmlns="http://www.w3.org/2000/svg"><path d="M20.191 2.429 C 20.096 2.439,18.311 3.310,15.291 4.822 L 10.540 7.199 8.700 7.202 C 7.688 7.204,6.491 7.219,6.040 7.236 C 5.271 7.265,5.198 7.274,4.871 7.388 C 3.803 7.760,3.008 8.545,2.592 9.637 L 2.461 9.980 2.461 10.800 L 2.460 11.620 2.589 11.953 C 3.162 13.443,4.330 14.301,5.902 14.387 L 6.344 14.411 7.137 16.796 C 8.508 20.919,8.597 21.150,8.884 21.358 C 9.168 21.564,9.266 21.580,10.220 21.580 C 11.059 21.580,11.109 21.576,11.288 21.487 C 11.527 21.369,11.769 21.127,11.887 20.888 L 11.980 20.700 12.000 17.963 C 12.015 15.967,12.032 15.223,12.066 15.211 C 12.091 15.203,13.918 16.099,16.126 17.203 L 20.140 19.210 20.431 19.188 C 20.919 19.151,21.305 18.892,21.503 18.467 L 21.599 18.260 21.599 10.800 C 21.598 3.458,21.597 3.337,21.519 3.166 C 21.285 2.649,20.774 2.366,20.191 2.429 " fill="#373B4D" stroke="none" fill-rule="evenodd"></path></svg>