<svg width="24" height="24" viewBox="0 0 24 24" fill="none" xmlns="http://www.w3.org/2000/svg"><path d="M20.100 2.516 C 19.938 2.558,18.136 3.436,14.014 5.481 L 10.567 7.190 9.614 7.217 C 5.668 7.327,5.189 7.356,4.786 7.513 C 3.997 7.820,3.230 8.491,2.806 9.242 C 2.537 9.720,2.442 10.253,2.441 11.292 L 2.440 11.724 2.627 12.052 C 3.184 13.027,3.709 13.592,4.360 13.920 C 4.636 14.058,5.213 14.242,5.757 14.363 C 6.019 14.421,6.207 14.486,6.264 14.538 C 6.371 14.636,6.403 14.721,7.452 17.720 C 8.585 20.959,8.597 20.989,8.887 21.266 C 9.204 21.569,9.248 21.580,10.060 21.577 C 11.127 21.571,11.390 21.482,11.790 20.989 L 11.991 20.740 12.036 18.500 C 12.083 16.106,12.112 15.410,12.162 15.379 C 12.222 15.342,12.767 15.598,16.480 17.409 C 19.182 18.727,19.682 18.962,20.053 19.083 C 20.299 19.164,20.318 19.165,20.563 19.102 C 21.011 18.988,21.398 18.693,21.481 18.404 C 21.586 18.036,21.609 16.301,21.583 10.780 C 21.569 7.700,21.540 4.751,21.520 4.226 C 21.479 3.154,21.448 3.032,21.166 2.799 C 20.902 2.581,20.381 2.442,20.100 2.516 " fill="#373B4D" stroke="none" fill-rule="evenodd"></path></svg>