<svg width="24" height="24" viewBox="0 0 24 24" fill="none" xmlns="http://www.w3.org/2000/svg"><path d="M19.640 2.690 C 19.343 2.827,17.183 3.894,14.840 5.062 L 10.580 7.186 8.360 7.233 C 5.317 7.299,5.023 7.327,4.462 7.608 C 3.904 7.888,3.301 8.439,2.928 9.012 C 2.540 9.606,2.441 10.010,2.441 11.000 L 2.442 11.700 2.639 12.072 C 3.173 13.078,3.736 13.675,4.461 14.004 C 4.792 14.154,5.507 14.344,5.870 14.380 C 6.243 14.416,6.272 14.428,6.347 14.573 C 6.383 14.643,6.812 15.861,7.301 17.280 C 7.791 18.699,8.267 20.067,8.360 20.320 C 8.664 21.148,8.802 21.339,9.230 21.529 C 9.408 21.607,9.466 21.611,10.226 21.588 C 11.113 21.562,11.210 21.540,11.499 21.303 C 11.590 21.228,11.738 21.071,11.828 20.954 L 11.991 20.740 12.016 18.740 C 12.029 17.640,12.052 16.419,12.066 16.027 L 12.091 15.314 12.186 15.338 C 12.326 15.373,13.709 16.037,16.520 17.419 C 19.495 18.882,20.169 19.200,20.294 19.200 C 20.399 19.200,20.766 19.081,20.946 18.987 C 21.011 18.953,21.157 18.843,21.269 18.742 C 21.427 18.600,21.485 18.515,21.522 18.369 C 21.641 17.904,21.599 3.622,21.477 3.187 C 21.426 3.002,21.198 2.741,21.003 2.642 C 20.871 2.575,20.353 2.440,20.232 2.440 C 20.203 2.440,19.937 2.553,19.640 2.690 " fill="#373B4D" stroke="none" fill-rule="evenodd"></path></svg>