<svg width="24" height="24" viewBox="0 0 24 24" fill="none" xmlns="http://www.w3.org/2000/svg"><path d="M19.540 2.763 C 19.276 2.894,17.149 3.944,14.814 5.096 L 10.568 7.191 8.514 7.257 C 6.341 7.327,5.490 7.374,5.102 7.444 C 4.497 7.553,3.661 8.113,3.156 8.748 C 2.628 9.413,2.441 10.054,2.440 11.202 L 2.440 11.743 2.683 12.142 C 2.992 12.649,3.284 13.034,3.594 13.346 C 4.040 13.793,4.402 13.983,5.301 14.240 C 5.542 14.309,5.859 14.400,6.004 14.442 L 6.267 14.518 6.391 14.789 C 6.525 15.086,6.599 15.290,7.579 18.080 C 8.536 20.802,8.602 20.964,8.876 21.244 C 9.178 21.553,9.265 21.573,10.219 21.550 C 11.187 21.527,11.262 21.503,11.689 21.075 L 12.000 20.765 12.000 20.512 C 11.999 19.151,12.125 15.461,12.175 15.411 C 12.228 15.359,12.885 15.665,16.620 17.480 C 19.059 18.664,19.634 18.932,20.036 19.067 L 20.332 19.166 20.612 19.076 C 21.183 18.892,21.453 18.610,21.524 18.120 C 21.629 17.393,21.592 4.773,21.480 3.586 C 21.452 3.281,21.420 3.154,21.341 3.017 C 21.215 2.803,20.956 2.642,20.622 2.572 C 20.184 2.481,20.067 2.501,19.540 2.763 " fill="#373B4D" stroke="none" fill-rule="evenodd"></path></svg>