<svg width="24" height="24" viewBox="0 0 24 24" fill="none" xmlns="http://www.w3.org/2000/svg"><path d="M19.500 2.784 C 19.192 2.931,17.056 3.982,14.753 5.120 L 10.566 7.190 9.713 7.216 C 9.244 7.231,8.293 7.261,7.600 7.282 C 6.057 7.331,5.278 7.384,4.977 7.462 C 4.480 7.592,3.812 8.023,3.360 8.507 C 2.662 9.253,2.440 9.905,2.440 11.218 L 2.440 11.735 2.607 12.018 C 3.182 12.992,3.699 13.567,4.280 13.877 C 4.556 14.024,5.112 14.210,5.674 14.344 C 5.902 14.398,6.138 14.468,6.199 14.500 C 6.353 14.579,6.328 14.514,7.594 18.120 C 8.561 20.875,8.587 20.941,8.847 21.223 C 9.137 21.540,9.268 21.578,10.042 21.573 C 10.732 21.569,11.081 21.521,11.324 21.397 C 11.404 21.357,11.588 21.195,11.734 21.037 L 12.000 20.750 12.000 20.465 C 12.001 19.951,12.076 16.755,12.103 16.115 C 12.117 15.772,12.144 15.466,12.162 15.437 C 12.190 15.391,12.220 15.391,12.348 15.437 C 12.562 15.514,13.849 16.129,16.500 17.420 C 19.092 18.682,19.669 18.951,20.049 19.077 C 20.311 19.164,20.325 19.164,20.548 19.099 C 21.006 18.966,21.320 18.740,21.449 18.450 C 21.588 18.135,21.611 16.805,21.583 10.840 C 21.556 4.988,21.525 3.517,21.421 3.173 C 21.311 2.807,20.902 2.556,20.380 2.532 L 20.060 2.517 19.500 2.784 " fill="#373B4D" stroke="none" fill-rule="evenodd"></path></svg>