<svg width="24" height="24" viewBox="0 0 24 24" fill="none" xmlns="http://www.w3.org/2000/svg"><path d="M19.780 2.624 C 19.560 2.725,17.398 3.794,14.975 4.998 L 10.571 7.188 8.475 7.236 C 6.311 7.285,5.420 7.328,5.040 7.404 C 4.357 7.539,3.454 8.226,2.937 9.005 C 2.551 9.585,2.478 9.870,2.451 10.887 L 2.430 11.674 2.640 12.067 C 2.933 12.617,3.211 13.007,3.560 13.361 C 4.145 13.954,4.789 14.218,6.150 14.424 C 6.240 14.438,6.297 14.477,6.334 14.552 C 6.389 14.661,6.736 15.647,7.660 18.317 C 8.291 20.140,8.508 20.739,8.607 20.934 C 8.732 21.178,8.983 21.423,9.211 21.521 C 9.411 21.607,9.453 21.610,10.180 21.588 C 10.676 21.573,11.007 21.544,11.132 21.506 C 11.365 21.434,11.610 21.239,11.827 20.954 L 11.990 20.740 12.035 18.043 C 12.060 16.560,12.088 15.339,12.098 15.328 C 12.139 15.288,13.114 15.750,16.640 17.480 C 19.903 19.082,20.106 19.176,20.320 19.173 C 20.574 19.170,20.922 19.025,21.180 18.815 C 21.533 18.527,21.532 18.532,21.565 17.340 C 21.641 14.548,21.573 3.715,21.476 3.244 C 21.411 2.928,21.151 2.676,20.775 2.565 C 20.274 2.416,20.226 2.419,19.780 2.624 " fill="#373B4D" stroke="none" fill-rule="evenodd"></path></svg>