<svg width="24" height="24" viewBox="0 0 24 24" fill="none" xmlns="http://www.w3.org/2000/svg"><path d="M18.959 3.014 C 18.310 3.330,16.160 4.398,14.180 5.388 L 10.580 7.188 8.860 7.215 C 6.656 7.250,5.439 7.303,5.076 7.378 C 3.957 7.611,2.741 8.846,2.497 9.997 C 2.462 10.164,2.441 10.518,2.441 10.970 L 2.440 11.680 2.653 12.092 C 2.934 12.635,3.157 12.960,3.477 13.294 C 3.799 13.629,4.023 13.796,4.395 13.980 C 4.725 14.143,5.471 14.346,5.867 14.381 C 6.318 14.420,6.299 14.409,6.419 14.730 C 6.479 14.889,6.858 15.983,7.260 17.160 C 8.366 20.393,8.540 20.864,8.736 21.162 C 8.865 21.357,9.165 21.550,9.392 21.584 C 9.638 21.621,10.986 21.575,11.154 21.524 C 11.330 21.470,11.608 21.240,11.819 20.971 L 11.989 20.754 12.015 18.547 C 12.029 17.333,12.052 16.109,12.066 15.826 L 12.091 15.312 12.196 15.333 C 12.313 15.357,14.383 16.359,17.856 18.075 C 19.108 18.694,20.179 19.200,20.236 19.200 C 20.554 19.198,21.012 18.998,21.273 18.747 C 21.609 18.423,21.579 18.924,21.592 13.540 C 21.605 8.483,21.551 3.397,21.482 3.162 C 21.437 3.012,21.214 2.761,21.013 2.636 C 20.900 2.566,20.382 2.440,20.205 2.440 C 20.168 2.440,19.607 2.698,18.959 3.014 " fill="#373B4D" stroke="none" fill-rule="evenodd"></path></svg>