<svg width="24" height="24" viewBox="0 0 24 24" fill="none" xmlns="http://www.w3.org/2000/svg"><path d="M20.000 2.546 C 19.814 2.610,15.701 4.631,12.440 6.260 L 10.580 7.190 8.780 7.236 C 6.697 7.290,5.432 7.347,5.120 7.402 C 4.850 7.449,4.309 7.703,3.982 7.937 C 3.289 8.432,2.716 9.201,2.542 9.871 C 2.501 10.032,2.471 10.385,2.456 10.908 L 2.433 11.700 2.680 12.140 C 3.007 12.721,3.257 13.053,3.639 13.412 C 4.140 13.883,4.673 14.125,5.698 14.344 C 5.999 14.409,6.243 14.483,6.282 14.522 C 6.363 14.603,6.402 14.709,7.459 17.740 C 8.588 20.979,8.594 20.993,8.869 21.264 C 9.189 21.578,9.353 21.618,10.200 21.588 C 11.182 21.552,11.415 21.464,11.797 20.983 L 11.991 20.740 12.036 18.360 C 12.060 17.051,12.091 15.839,12.105 15.667 C 12.128 15.365,12.132 15.354,12.221 15.377 C 12.369 15.414,13.365 15.885,15.440 16.900 C 20.263 19.259,20.111 19.191,20.490 19.125 C 20.946 19.044,21.390 18.727,21.477 18.420 C 21.587 18.031,21.609 16.468,21.583 10.720 C 21.555 4.480,21.530 3.335,21.419 3.115 C 21.272 2.825,21.020 2.641,20.620 2.534 C 20.364 2.466,20.224 2.469,20.000 2.546 " fill="#373B4D" stroke="none" fill-rule="evenodd"></path></svg>