<svg width="24" height="24" viewBox="0 0 24 24" fill="none" xmlns="http://www.w3.org/2000/svg"><path d="M19.560 2.735 C 19.263 2.875,17.118 3.934,14.794 5.089 L 10.569 7.189 8.634 7.236 C 6.584 7.286,5.397 7.341,5.063 7.402 C 4.761 7.457,4.183 7.760,3.815 8.057 C 3.136 8.602,2.650 9.315,2.517 9.959 C 2.496 10.059,2.468 10.484,2.454 10.905 L 2.428 11.670 2.614 12.020 C 3.406 13.507,4.164 14.068,5.779 14.361 C 6.060 14.412,6.243 14.466,6.286 14.510 C 6.360 14.586,6.487 14.935,7.460 17.740 C 8.609 21.051,8.582 20.984,8.864 21.266 C 9.146 21.548,9.297 21.598,9.860 21.598 C 10.501 21.598,11.091 21.537,11.250 21.455 C 11.470 21.342,11.639 21.195,11.819 20.962 L 11.991 20.738 12.039 18.059 C 12.066 16.586,12.099 15.368,12.114 15.353 C 12.162 15.302,12.987 15.691,16.840 17.580 C 20.111 19.184,20.007 19.138,20.340 19.139 C 20.655 19.140,20.913 19.034,21.235 18.770 C 21.506 18.547,21.523 18.476,21.568 17.322 C 21.613 16.190,21.579 5.838,21.525 4.216 C 21.496 3.329,21.486 3.238,21.401 3.063 C 21.287 2.828,21.070 2.665,20.729 2.560 C 20.301 2.427,20.172 2.447,19.560 2.735 " fill="#373B4D" stroke="none" fill-rule="evenodd"></path></svg>