<svg width="24" height="24" viewBox="0 0 24 24" fill="none" xmlns="http://www.w3.org/2000/svg"><path d="M10.500 6.065 C 9.109 6.207,8.374 6.325,7.508 6.543 C 5.079 7.155,3.181 8.285,2.442 9.560 C 2.088 10.171,1.953 10.729,2.039 11.234 C 2.280 12.657,4.260 14.085,7.400 15.099 C 7.829 15.237,10.064 15.840,10.149 15.840 C 10.218 15.840,10.094 16.013,9.776 16.361 C 9.130 17.067,9.000 17.275,9.000 17.598 C 9.000 17.793,9.174 18.133,9.346 18.274 C 9.587 18.473,9.984 18.540,10.213 18.420 C 10.417 18.314,10.889 17.861,11.908 16.792 C 13.442 15.183,13.441 15.184,13.470 14.760 C 13.486 14.525,13.477 14.484,13.374 14.333 C 13.060 13.873,10.495 11.224,10.242 11.098 C 9.901 10.929,9.374 11.086,9.182 11.413 C 9.045 11.648,8.987 11.964,9.044 12.175 C 9.096 12.370,9.160 12.452,9.815 13.181 C 10.092 13.488,10.319 13.760,10.319 13.785 C 10.320 13.817,10.265 13.819,10.134 13.795 C 9.507 13.678,8.078 13.279,7.184 12.972 C 5.280 12.318,3.997 11.512,4.000 10.971 C 4.002 10.669,4.526 10.053,5.118 9.659 C 6.107 9.001,7.444 8.538,9.300 8.212 L 9.940 8.100 12.000 8.100 L 14.060 8.100 14.700 8.212 C 16.538 8.534,17.897 9.004,18.882 9.659 C 19.482 10.059,19.999 10.670,19.999 10.980 C 19.999 11.142,19.801 11.477,19.544 11.750 C 19.088 12.233,18.408 12.646,17.380 13.062 C 17.072 13.187,16.737 13.331,16.636 13.383 C 16.384 13.510,16.102 13.831,16.045 14.056 C 15.986 14.290,15.988 14.345,16.063 14.598 C 16.146 14.878,16.424 15.162,16.708 15.256 C 16.893 15.317,16.935 15.318,17.166 15.264 C 17.934 15.086,19.273 14.476,20.060 13.947 C 21.425 13.029,22.124 11.824,21.963 10.666 C 21.795 9.455,20.819 8.371,19.127 7.515 C 17.758 6.822,16.215 6.391,14.200 6.137 C 13.722 6.077,10.917 6.022,10.500 6.065 " fill="#373B4D" stroke="none" fill-rule="evenodd"></path></svg>