<svg width="24" height="24" viewBox="0 0 24 24" fill="none" xmlns="http://www.w3.org/2000/svg"><path d="M10.860 6.039 C 8.483 6.190,6.508 6.673,4.880 7.502 C 3.598 8.153,2.758 8.902,2.320 9.780 C 1.796 10.832,1.939 11.708,2.778 12.594 C 3.965 13.846,6.291 14.923,9.358 15.638 C 9.808 15.743,10.183 15.849,10.191 15.873 C 10.199 15.897,9.979 16.154,9.703 16.445 C 9.404 16.759,9.160 17.055,9.100 17.175 C 8.933 17.510,8.982 17.871,9.234 18.166 C 9.415 18.377,9.638 18.478,9.923 18.479 C 10.106 18.480,10.180 18.458,10.332 18.357 C 10.608 18.174,13.085 15.603,13.350 15.225 C 13.488 15.026,13.525 14.608,13.423 14.392 C 13.301 14.136,10.683 11.392,10.321 11.141 C 10.040 10.946,9.656 10.976,9.339 11.218 C 9.056 11.434,8.925 12.029,9.092 12.341 C 9.127 12.406,9.427 12.756,9.758 13.119 C 10.089 13.481,10.360 13.791,10.360 13.808 C 10.360 13.914,7.932 13.262,6.895 12.878 C 5.112 12.217,4.000 11.489,4.000 10.984 C 4.000 10.647,4.474 10.075,5.097 9.661 C 6.184 8.938,7.651 8.455,9.680 8.153 C 10.253 8.068,10.430 8.060,12.000 8.060 C 13.570 8.060,13.747 8.068,14.320 8.153 C 16.349 8.455,17.816 8.938,18.903 9.661 C 19.519 10.070,20.000 10.649,20.000 10.980 C 20.000 11.170,19.789 11.531,19.520 11.801 C 19.078 12.245,18.285 12.714,17.400 13.056 C 16.629 13.353,16.514 13.411,16.323 13.597 C 15.941 13.970,15.901 14.460,16.218 14.917 C 16.333 15.083,16.618 15.256,16.841 15.295 C 17.121 15.345,17.981 15.049,18.980 14.561 C 20.571 13.782,21.501 12.887,21.866 11.780 C 22.013 11.336,22.021 10.718,21.886 10.280 C 21.535 9.137,20.585 8.214,18.940 7.416 C 17.541 6.737,15.795 6.284,13.881 6.102 C 13.076 6.026,11.564 5.994,10.860 6.039 " fill="#373B4D" stroke="none" fill-rule="evenodd"></path></svg>