<svg width="24" height="24" viewBox="0 0 24 24" fill="none" xmlns="http://www.w3.org/2000/svg"><path d="M10.731 6.044 C 10.103 6.082,9.025 6.214,8.440 6.325 C 4.694 7.038,2.153 8.811,2.013 10.810 C 1.931 11.974,2.925 13.091,4.958 14.117 C 6.430 14.861,7.987 15.368,10.193 15.824 C 10.276 15.841,10.225 15.907,9.708 16.439 C 9.099 17.066,9.000 17.222,9.000 17.560 C 9.000 18.060,9.403 18.486,9.880 18.492 C 10.215 18.496,10.313 18.433,10.907 17.829 C 12.298 16.415,13.269 15.378,13.377 15.192 C 13.519 14.945,13.534 14.634,13.416 14.369 C 13.364 14.251,12.891 13.728,11.900 12.693 C 10.364 11.089,10.259 11.000,9.900 11.001 C 9.719 11.002,9.426 11.122,9.286 11.252 C 9.234 11.301,9.154 11.412,9.107 11.500 C 8.995 11.712,8.989 12.158,9.096 12.357 C 9.136 12.433,9.447 12.787,9.786 13.144 C 10.125 13.502,10.384 13.805,10.362 13.819 C 10.275 13.873,8.391 13.388,7.420 13.063 C 5.340 12.365,3.999 11.549,4.000 10.982 C 4.001 10.762,4.186 10.445,4.490 10.142 C 5.512 9.128,7.589 8.377,10.160 8.093 C 11.021 7.998,12.979 7.998,13.840 8.093 C 16.411 8.377,18.488 9.128,19.510 10.142 C 19.815 10.446,19.999 10.762,20.000 10.984 C 20.000 11.197,19.779 11.573,19.498 11.836 C 18.905 12.391,18.129 12.810,16.872 13.257 C 16.521 13.382,16.243 13.600,16.115 13.850 C 15.833 14.402,16.121 15.093,16.704 15.263 C 16.990 15.346,17.154 15.315,17.910 15.034 C 20.601 14.035,22.096 12.498,21.988 10.840 C 21.797 7.888,16.632 5.687,10.731 6.044 " fill="#373B4D" stroke="none" fill-rule="evenodd"></path></svg>