<svg width="24" height="24" viewBox="0 0 24 24" fill="none" xmlns="http://www.w3.org/2000/svg"><path d="M10.560 6.067 C 8.937 6.226,7.937 6.404,6.880 6.723 C 5.453 7.153,4.188 7.799,3.305 8.547 C 2.513 9.218,1.934 10.360,2.021 11.080 C 2.192 12.501,3.866 13.834,6.820 14.900 C 7.312 15.078,8.573 15.443,9.664 15.724 C 9.937 15.794,10.160 15.863,10.160 15.876 C 10.159 15.909,9.921 16.199,9.529 16.644 C 9.041 17.198,8.930 17.464,9.047 17.804 C 9.179 18.188,9.472 18.428,9.856 18.468 C 10.046 18.488,10.099 18.476,10.264 18.380 C 10.473 18.257,11.281 17.461,12.376 16.300 C 13.376 15.238,13.480 15.086,13.480 14.684 C 13.480 14.391,13.423 14.320,12.012 12.833 C 11.024 11.792,10.346 11.143,10.182 11.081 C 10.025 11.021,9.739 11.031,9.569 11.102 C 9.237 11.240,9.031 11.585,9.031 12.003 C 9.031 12.263,9.131 12.420,9.703 13.060 C 9.959 13.346,10.204 13.630,10.247 13.690 L 10.325 13.800 10.211 13.800 C 9.915 13.800,7.775 13.193,6.804 12.834 C 6.105 12.575,5.199 12.140,4.779 11.860 C 4.378 11.593,4.053 11.252,4.017 11.058 C 3.978 10.851,4.148 10.542,4.492 10.190 C 5.368 9.295,6.862 8.671,9.154 8.242 L 9.807 8.120 12.000 8.120 L 14.193 8.120 14.846 8.242 C 16.916 8.629,18.349 9.188,19.295 9.977 C 19.557 10.196,19.908 10.649,19.966 10.846 C 20.010 10.990,20.004 11.025,19.912 11.213 C 19.569 11.912,18.871 12.421,17.378 13.060 C 16.526 13.425,16.311 13.566,16.130 13.872 C 15.900 14.264,16.038 14.812,16.440 15.104 C 16.719 15.307,16.889 15.335,17.265 15.236 C 18.005 15.043,19.299 14.449,19.998 13.982 C 21.178 13.194,21.878 12.211,21.980 11.200 C 22.068 10.321,21.564 9.287,20.680 8.535 C 19.329 7.386,17.258 6.585,14.652 6.202 C 13.929 6.097,11.184 6.005,10.560 6.067 " fill="#373B4D" stroke="none" fill-rule="evenodd"></path></svg>