<svg width="24" height="24" viewBox="0 0 24 24" fill="none" xmlns="http://www.w3.org/2000/svg"><path d="M11.078 3.060 C 9.848 3.209,8.988 3.464,7.940 3.990 C 7.026 4.450,6.304 4.981,5.557 5.746 C 3.305 8.050,2.464 11.369,3.348 14.460 C 4.062 16.957,5.924 19.127,8.246 20.166 C 9.610 20.777,10.903 21.039,12.300 20.988 C 16.060 20.851,19.315 18.422,20.516 14.858 C 21.158 12.953,21.159 11.050,20.521 9.160 C 20.065 7.807,19.417 6.743,18.443 5.746 C 17.703 4.988,17.012 4.478,16.080 4.002 C 14.842 3.370,13.865 3.114,12.395 3.040 C 11.507 2.995,11.624 2.994,11.078 3.060 M12.340 8.104 C 14.089 8.277,15.519 8.651,16.892 9.293 C 17.480 9.568,17.810 9.801,17.903 10.007 C 18.109 10.465,17.849 11.006,17.371 11.113 C 17.170 11.158,16.902 11.074,16.340 10.791 C 14.597 9.913,12.245 9.501,9.740 9.637 C 8.747 9.690,8.270 9.755,7.460 9.945 C 7.076 10.036,6.800 10.080,6.693 10.068 C 6.314 10.028,6.021 9.685,6.021 9.281 C 6.021 9.102,6.044 9.026,6.142 8.881 C 6.304 8.639,6.489 8.545,7.080 8.402 C 7.908 8.203,8.815 8.082,9.920 8.024 C 10.389 7.999,11.728 8.043,12.340 8.104 M12.660 11.135 C 12.968 11.195,13.398 11.289,13.616 11.344 C 14.775 11.638,16.151 12.234,16.613 12.643 C 16.761 12.774,16.775 12.804,16.789 13.023 C 16.801 13.215,16.786 13.289,16.712 13.416 C 16.589 13.625,16.446 13.725,16.232 13.749 C 16.073 13.767,16.003 13.742,15.554 13.508 C 14.391 12.903,13.404 12.584,12.040 12.373 C 11.680 12.317,11.331 12.301,10.440 12.301 C 9.197 12.300,8.863 12.334,7.862 12.562 C 7.251 12.701,7.067 12.708,6.888 12.599 C 6.658 12.459,6.541 12.082,6.643 11.813 C 6.750 11.529,7.014 11.399,7.847 11.220 C 8.804 11.013,8.935 11.003,10.560 11.015 C 12.048 11.026,12.119 11.030,12.660 11.135 M11.852 13.780 C 13.045 13.919,14.403 14.356,15.260 14.875 C 15.615 15.090,15.760 15.263,15.760 15.468 C 15.760 15.737,15.523 15.999,15.280 16.000 C 15.225 16.000,14.883 15.857,14.520 15.681 C 13.106 14.998,12.194 14.790,10.580 14.785 C 9.580 14.782,9.145 14.820,8.090 15.002 C 7.305 15.138,7.194 15.124,7.041 14.872 C 6.882 14.611,6.956 14.284,7.204 14.158 C 7.430 14.043,8.499 13.843,9.400 13.748 C 9.807 13.705,11.385 13.725,11.852 13.780 " fill="#373B4D" stroke="none" fill-rule="evenodd"></path></svg>