<svg width="24" height="24" viewBox="0 0 24 24" fill="none" xmlns="http://www.w3.org/2000/svg"><path d="M10.968 3.083 C 9.781 3.265,9.002 3.497,8.100 3.938 C 7.097 4.427,6.399 4.929,5.611 5.726 C 4.765 6.580,4.258 7.321,3.785 8.391 C 2.745 10.745,2.751 13.289,3.802 15.650 C 4.455 17.116,5.737 18.624,7.082 19.505 C 9.031 20.782,11.477 21.266,13.720 20.817 C 17.475 20.065,20.340 17.034,20.905 13.216 C 20.984 12.679,20.995 11.326,20.924 10.840 C 20.852 10.352,20.594 9.369,20.409 8.880 C 19.913 7.571,19.341 6.692,18.324 5.676 C 17.475 4.828,16.789 4.349,15.690 3.835 C 14.630 3.340,13.817 3.153,12.233 3.041 C 11.523 2.991,11.575 2.990,10.968 3.083 M12.094 8.121 C 13.724 8.225,15.317 8.607,16.689 9.222 C 17.645 9.652,17.960 9.933,17.960 10.358 C 17.960 10.517,17.769 10.869,17.623 10.981 C 17.349 11.189,17.148 11.154,16.204 10.735 C 15.169 10.274,14.424 10.053,13.100 9.812 C 12.579 9.718,12.431 9.709,10.967 9.691 C 9.200 9.670,8.876 9.691,7.719 9.900 C 6.768 10.072,6.558 10.078,6.373 9.938 C 6.176 9.787,6.064 9.546,6.066 9.275 C 6.070 8.667,6.505 8.462,8.391 8.181 C 8.939 8.099,9.177 8.086,10.240 8.084 C 10.911 8.082,11.745 8.098,12.094 8.121 M11.895 11.084 C 12.266 11.106,12.743 11.159,12.955 11.203 C 13.866 11.389,14.973 11.763,15.780 12.158 C 16.569 12.544,16.760 12.725,16.760 13.092 C 16.760 13.324,16.684 13.483,16.510 13.613 C 16.240 13.816,16.215 13.811,15.282 13.390 C 14.194 12.898,13.698 12.726,12.760 12.513 L 12.220 12.390 10.580 12.372 L 8.940 12.354 8.200 12.493 C 7.134 12.694,7.085 12.698,6.932 12.603 C 6.578 12.383,6.543 11.798,6.869 11.569 C 7.159 11.366,8.295 11.100,9.118 11.042 C 9.637 11.005,10.882 11.024,11.895 11.084 M11.140 13.798 C 12.281 13.832,12.526 13.866,13.380 14.109 C 14.415 14.402,15.470 14.929,15.657 15.246 C 15.736 15.380,15.738 15.570,15.661 15.719 C 15.598 15.839,15.403 16.000,15.319 16.000 C 15.292 16.000,14.880 15.835,14.405 15.633 C 13.043 15.056,12.707 14.959,11.820 14.884 C 10.450 14.770,9.521 14.795,8.263 14.980 C 7.346 15.115,7.301 15.114,7.136 14.939 C 6.824 14.607,6.978 14.223,7.480 14.079 C 7.739 14.005,8.737 13.832,9.080 13.802 C 9.542 13.760,9.877 13.760,11.140 13.798 " fill="#373B4D" stroke="none" fill-rule="evenodd"></path></svg>