<svg width="24" height="24" viewBox="0 0 24 24" fill="none" xmlns="http://www.w3.org/2000/svg"><path d="M11.100 3.063 C 9.829 3.256,9.005 3.504,8.044 3.983 C 6.965 4.520,6.287 5.020,5.461 5.888 C 4.742 6.644,4.278 7.320,3.876 8.200 C 3.275 9.514,3.023 10.635,3.023 12.000 C 3.023 13.269,3.243 14.333,3.748 15.517 C 4.477 17.223,5.956 18.884,7.548 19.784 C 10.693 21.563,14.485 21.336,17.345 19.198 C 17.797 18.860,18.528 18.164,18.906 17.713 C 19.686 16.779,20.331 15.537,20.661 14.333 C 20.920 13.388,20.940 13.217,20.939 11.940 C 20.939 10.871,20.932 10.750,20.848 10.400 C 20.335 8.265,19.674 7.030,18.320 5.680 C 17.541 4.903,16.965 4.482,16.040 4.012 C 14.821 3.393,13.966 3.177,12.202 3.041 C 11.564 2.992,11.561 2.992,11.100 3.063 M11.850 8.120 C 13.804 8.223,15.536 8.648,17.018 9.388 C 17.508 9.632,17.771 9.836,17.875 10.050 C 17.991 10.289,17.981 10.419,17.827 10.700 C 17.722 10.892,17.658 10.959,17.508 11.034 C 17.334 11.121,17.306 11.125,17.110 11.078 C 16.995 11.051,16.587 10.896,16.205 10.735 C 15.299 10.351,14.705 10.155,13.931 9.984 C 12.919 9.759,12.587 9.726,11.080 9.698 C 9.463 9.667,8.893 9.702,7.726 9.901 C 6.823 10.055,6.660 10.066,6.461 9.983 C 6.190 9.870,6.024 9.451,6.097 9.064 C 6.148 8.792,6.461 8.583,7.037 8.436 C 7.457 8.328,8.464 8.161,8.920 8.123 C 9.466 8.077,11.021 8.076,11.850 8.120 M12.460 11.138 C 13.419 11.255,14.684 11.646,15.700 12.138 C 16.399 12.477,16.600 12.615,16.698 12.821 C 16.848 13.138,16.701 13.545,16.379 13.698 C 16.196 13.785,16.126 13.764,15.153 13.335 C 14.231 12.929,13.734 12.755,12.952 12.564 L 12.300 12.405 10.620 12.378 L 8.940 12.351 8.180 12.498 C 7.270 12.673,7.059 12.688,6.905 12.587 C 6.776 12.502,6.642 12.234,6.642 12.060 C 6.642 11.847,6.778 11.613,6.954 11.523 C 7.258 11.368,8.130 11.156,8.840 11.065 C 9.186 11.021,11.957 11.076,12.460 11.138 M11.908 13.844 C 12.839 13.909,13.811 14.185,14.782 14.659 C 15.106 14.816,15.380 14.981,15.502 15.092 C 15.688 15.260,15.700 15.283,15.700 15.466 C 15.700 15.682,15.598 15.865,15.426 15.957 C 15.334 16.006,15.288 15.996,14.932 15.850 C 14.716 15.762,14.248 15.570,13.891 15.424 C 12.665 14.923,12.266 14.859,10.380 14.862 C 9.345 14.863,8.961 14.878,8.600 14.932 C 7.577 15.085,7.420 15.098,7.286 15.043 C 7.016 14.931,6.907 14.513,7.095 14.310 C 7.146 14.254,7.242 14.180,7.307 14.147 C 7.500 14.047,8.655 13.840,9.320 13.786 C 9.608 13.762,11.288 13.800,11.908 13.844 " fill="#373B4D" stroke="none" fill-rule="evenodd"></path></svg>