<svg width="24" height="24" viewBox="0 0 24 24" fill="none" xmlns="http://www.w3.org/2000/svg"><path d="M10.960 3.082 C 9.791 3.256,8.944 3.507,8.060 3.941 C 7.151 4.387,6.370 4.947,5.639 5.679 C 4.904 6.414,4.406 7.106,3.957 8.020 C 3.517 8.914,3.260 9.723,3.093 10.740 C 2.982 11.412,2.994 12.725,3.116 13.420 C 3.458 15.359,4.336 17.027,5.743 18.409 C 6.494 19.147,7.069 19.561,7.986 20.023 C 9.734 20.904,11.751 21.196,13.624 20.838 C 17.261 20.145,20.048 17.390,20.818 13.727 C 21.022 12.752,21.040 11.341,20.858 10.460 C 20.458 8.518,19.666 6.995,18.393 5.723 C 17.579 4.909,17.017 4.498,16.040 4.003 C 14.758 3.354,13.952 3.149,12.261 3.041 C 11.496 2.992,11.579 2.989,10.960 3.082 M12.260 8.121 C 13.194 8.180,14.565 8.448,15.500 8.754 C 16.346 9.032,17.292 9.465,17.652 9.740 C 18.025 10.025,18.060 10.521,17.733 10.882 C 17.444 11.203,17.192 11.187,16.348 10.796 C 15.314 10.317,14.543 10.073,13.400 9.866 C 12.422 9.688,12.052 9.660,10.660 9.660 C 9.164 9.660,8.718 9.697,7.680 9.906 C 7.295 9.984,6.878 10.050,6.753 10.053 C 6.556 10.058,6.506 10.043,6.373 9.937 C 6.138 9.750,6.030 9.511,6.053 9.229 C 6.088 8.808,6.349 8.599,7.062 8.418 C 7.462 8.317,8.538 8.141,9.106 8.083 C 9.499 8.044,11.391 8.066,12.260 8.121 M11.160 11.040 C 11.839 11.063,12.446 11.104,12.660 11.141 C 14.108 11.394,16.091 12.154,16.600 12.652 C 16.904 12.950,16.804 13.494,16.411 13.685 C 16.181 13.796,16.121 13.781,15.387 13.435 C 14.261 12.904,13.546 12.662,12.525 12.463 C 12.017 12.363,11.948 12.360,10.450 12.359 L 8.900 12.359 8.035 12.525 C 7.483 12.631,7.130 12.681,7.059 12.663 C 6.773 12.592,6.557 12.189,6.639 11.884 C 6.729 11.551,7.034 11.398,8.005 11.199 C 8.950 11.005,9.414 10.981,11.160 11.040 M12.338 13.858 C 13.235 14.027,14.037 14.280,14.759 14.625 C 15.551 15.003,15.822 15.277,15.724 15.602 C 15.674 15.770,15.440 16.000,15.319 16.000 C 15.276 16.000,14.930 15.863,14.550 15.695 C 12.958 14.992,12.614 14.905,11.147 14.832 C 10.046 14.777,9.264 14.817,8.240 14.980 C 7.301 15.130,7.216 15.120,7.045 14.839 C 6.943 14.671,6.938 14.558,7.027 14.371 C 7.136 14.141,7.384 14.061,8.620 13.856 C 9.147 13.768,9.264 13.763,10.580 13.777 C 11.674 13.788,12.058 13.806,12.338 13.858 " fill="#373B4D" stroke="none" fill-rule="evenodd"></path></svg>