<svg width="24" height="24" viewBox="0 0 24 24" fill="none" xmlns="http://www.w3.org/2000/svg">
<path fill-rule="evenodd" clip-rule="evenodd" d="M12 21C16.9706 21 21 16.9706 21 12C21 7.02944 16.9706 3 12 3C7.02944 3 3 7.02944 3 12C3 16.9706 7.02944 21 12 21ZM14.9787 15.9207C15.2305 16.0725 15.5527 16.0017 15.7038 15.7486C15.8549 15.4956 15.7743 15.1718 15.5225 15.02C13.3069 13.6537 10.5475 13.3399 7.33483 14.0787C7.05284 14.1395 6.88164 14.4228 6.94206 14.7062C7.00249 14.9896 7.28448 15.1616 7.56646 15.1009C10.5072 14.433 12.9947 14.7062 14.9787 15.9207ZM15.8246 13.6638C16.1368 13.846 16.5397 13.7549 16.731 13.4411C16.9224 13.1274 16.8217 12.7226 16.5296 12.5404C13.9212 10.9312 10.1144 10.4859 7.05284 11.417C6.70036 11.5182 6.50901 11.8826 6.60972 12.2368C6.71043 12.5809 7.07299 12.7732 7.42547 12.672C10.1043 11.8522 13.5587 12.257 15.8246 13.6638ZM7.02263 10.0508C9.62094 9.26136 14.1025 9.41317 16.8217 11.0325C17.1943 11.2652 17.6777 11.1337 17.8892 10.7491C18.1108 10.3746 17.9899 9.88883 17.6173 9.66618C14.4953 7.804 9.54037 7.62183 6.55937 8.53268C6.14646 8.66424 5.90476 9.10955 6.03568 9.52449C6.1666 9.94955 6.60972 10.1823 7.02263 10.0508Z" fill="#373B4D"/>
</svg>
