<svg width="24" height="24" viewBox="0 0 24 24" fill="none" xmlns="http://www.w3.org/2000/svg"><path d="M11.340 3.024 C 10.026 3.160,9.091 3.415,8.060 3.918 C 5.287 5.272,3.420 7.913,3.059 10.992 C 2.666 14.352,4.239 17.669,7.120 19.560 C 7.929 20.090,9.126 20.589,10.092 20.797 C 14.142 21.669,18.255 19.669,20.083 15.940 C 21.302 13.453,21.302 10.547,20.083 8.060 C 19.190 6.237,17.762 4.810,15.944 3.923 C 15.066 3.494,14.269 3.244,13.320 3.101 C 12.911 3.039,11.662 2.991,11.340 3.024 M11.660 8.041 C 13.807 8.176,15.624 8.634,17.173 9.430 C 17.726 9.714,17.890 9.860,17.964 10.137 C 18.095 10.619,17.724 11.130,17.239 11.137 C 17.085 11.140,16.948 11.087,16.437 10.832 C 15.310 10.270,14.297 9.964,12.900 9.763 C 11.965 9.628,11.254 9.589,10.200 9.613 C 8.981 9.642,8.229 9.737,7.286 9.983 C 7.081 10.036,6.847 10.080,6.766 10.079 C 6.276 10.076,5.895 9.550,6.037 9.074 C 6.063 8.986,6.149 8.844,6.227 8.757 C 6.344 8.629,6.430 8.581,6.700 8.499 C 7.985 8.107,9.902 7.930,11.660 8.041 M12.301 11.072 C 13.011 11.183,13.672 11.335,14.259 11.523 C 15.398 11.887,16.563 12.470,16.735 12.761 C 16.879 13.006,16.815 13.381,16.594 13.587 C 16.373 13.793,16.102 13.811,15.796 13.640 C 15.677 13.574,15.439 13.447,15.266 13.358 C 13.157 12.266,10.245 11.962,7.780 12.578 C 7.211 12.720,7.069 12.721,6.857 12.582 C 6.492 12.342,6.524 11.680,6.911 11.486 C 7.213 11.334,8.331 11.090,9.120 11.003 C 9.307 10.983,9.982 10.972,10.620 10.979 C 11.540 10.989,11.888 11.008,12.301 11.072 M11.800 13.765 C 13.012 13.896,14.352 14.328,15.304 14.895 C 15.670 15.113,15.760 15.232,15.760 15.497 C 15.760 15.649,15.737 15.706,15.629 15.825 C 15.437 16.033,15.218 16.051,14.920 15.882 C 14.199 15.473,13.493 15.191,12.704 14.998 C 11.354 14.667,9.623 14.683,7.846 15.043 C 7.388 15.136,7.303 15.128,7.124 14.977 C 6.870 14.763,6.881 14.356,7.147 14.178 C 7.368 14.029,8.705 13.791,9.718 13.721 C 10.278 13.682,11.222 13.702,11.800 13.765 " fill="#373B4D" stroke="none" fill-rule="evenodd"></path></svg>