<svg width="24" height="24" viewBox="0 0 24 24" fill="none" xmlns="http://www.w3.org/2000/svg"><path d="M11.507 4.058 C 11.134 4.191,11.046 4.366,10.280 6.502 C 9.549 8.538,9.262 9.184,9.035 9.302 C 8.808 9.420,8.100 9.475,5.660 9.561 C 4.350 9.608,3.848 9.653,3.679 9.740 C 3.530 9.818,3.366 10.020,3.256 10.260 C 3.127 10.544,3.102 10.732,3.162 10.952 C 3.241 11.239,3.662 11.630,5.260 12.901 C 7.204 14.446,7.335 14.579,7.332 14.996 C 7.330 15.270,7.244 15.603,6.686 17.520 C 6.141 19.394,6.066 19.691,6.090 19.899 C 6.169 20.605,7.032 21.104,7.653 20.803 C 7.759 20.752,8.656 20.172,9.647 19.515 C 11.516 18.275,11.587 18.236,12.089 18.178 C 12.381 18.144,12.431 18.171,13.768 19.107 C 15.036 19.994,16.022 20.646,16.309 20.786 C 16.613 20.935,16.949 20.934,17.257 20.783 C 17.492 20.668,17.616 20.543,17.790 20.246 C 17.992 19.904,17.966 19.751,17.354 17.680 C 16.923 16.218,16.736 15.503,16.699 15.179 C 16.630 14.571,16.736 14.458,19.160 12.558 C 20.910 11.186,21.062 10.964,20.739 10.246 C 20.576 9.882,20.355 9.699,20.008 9.643 C 19.702 9.594,18.291 9.536,16.410 9.496 L 15.120 9.468 14.924 9.260 C 14.609 8.927,14.500 8.682,13.800 6.720 C 13.090 4.732,12.912 4.342,12.645 4.186 C 12.353 4.015,11.801 3.953,11.507 4.058 " fill="#373B4D" stroke="none" fill-rule="evenodd"></path></svg>