<svg width="24" height="24" viewBox="0 0 24 24" fill="none" xmlns="http://www.w3.org/2000/svg"><path d="M11.636 3.973 C 11.404 4.059,11.118 4.287,11.033 4.454 C 10.930 4.655,10.653 5.415,10.221 6.680 C 9.459 8.907,9.308 9.219,8.909 9.381 C 8.714 9.460,7.592 9.513,6.000 9.519 C 4.747 9.524,3.884 9.575,3.730 9.655 C 3.538 9.754,3.253 10.101,3.178 10.327 C 3.095 10.575,3.093 10.897,3.172 11.086 C 3.295 11.381,3.453 11.516,5.620 13.170 C 6.214 13.623,6.800 14.084,6.923 14.194 C 7.150 14.398,7.400 14.798,7.400 14.958 C 7.400 15.159,7.135 16.103,6.574 17.900 C 6.166 19.206,6.080 19.539,6.080 19.822 C 6.080 20.129,6.216 20.417,6.466 20.637 C 6.689 20.833,6.938 20.920,7.278 20.920 C 7.611 20.920,7.634 20.906,9.220 19.795 C 10.828 18.668,11.398 18.291,11.601 18.220 C 11.698 18.185,11.909 18.160,12.100 18.160 L 12.430 18.160 13.025 18.573 C 13.352 18.800,14.034 19.280,14.540 19.640 C 16.192 20.815,16.374 20.920,16.756 20.920 C 17.372 20.920,17.864 20.488,17.909 19.908 C 17.933 19.595,17.879 19.362,17.493 18.120 C 16.739 15.690,16.638 15.322,16.633 14.999 C 16.625 14.514,16.788 14.356,19.103 12.608 C 20.794 11.332,20.903 11.213,20.873 10.668 C 20.863 10.499,20.826 10.317,20.782 10.226 C 20.665 9.985,20.335 9.648,20.167 9.598 C 19.996 9.548,17.917 9.485,16.294 9.482 L 15.167 9.480 14.944 9.298 C 14.590 9.010,14.578 8.983,13.759 6.620 C 13.030 4.516,12.975 4.378,12.807 4.226 C 12.693 4.123,12.240 3.965,11.989 3.940 C 11.862 3.927,11.724 3.940,11.636 3.973 " fill="#373B4D" stroke="none" fill-rule="evenodd"></path></svg>