<svg width="24" height="24" viewBox="0 0 24 24" fill="none" xmlns="http://www.w3.org/2000/svg"><path d="M11.640 3.967 C 11.475 4.015,11.154 4.242,11.069 4.373 C 10.981 4.506,10.668 5.360,10.179 6.800 C 9.557 8.632,9.387 9.029,9.133 9.243 C 8.857 9.475,8.900 9.471,6.320 9.510 C 3.658 9.551,3.794 9.535,3.482 9.848 C 3.234 10.095,3.099 10.406,3.103 10.720 C 3.108 11.123,3.239 11.319,3.820 11.787 C 3.930 11.876,4.560 12.359,5.220 12.860 C 6.589 13.901,6.746 14.025,7.015 14.277 C 7.222 14.472,7.399 14.790,7.400 14.968 C 7.400 15.156,7.141 16.095,6.706 17.480 C 6.107 19.389,6.080 19.488,6.080 19.806 C 6.080 20.136,6.134 20.278,6.356 20.528 C 6.588 20.789,6.879 20.924,7.227 20.933 C 7.474 20.939,7.525 20.926,7.760 20.793 C 7.903 20.712,8.722 20.150,9.580 19.543 C 10.438 18.936,11.264 18.377,11.415 18.300 C 11.671 18.170,11.717 18.160,12.059 18.160 L 12.426 18.160 12.895 18.480 C 13.153 18.656,13.826 19.130,14.392 19.533 C 16.250 20.857,16.383 20.935,16.781 20.932 C 17.117 20.930,17.393 20.802,17.633 20.540 C 17.847 20.306,17.920 20.115,17.920 19.792 C 17.920 19.503,17.846 19.227,17.346 17.638 C 16.691 15.560,16.576 15.116,16.624 14.846 C 16.693 14.454,16.897 14.271,19.119 12.598 C 20.780 11.348,20.893 11.228,20.890 10.722 C 20.889 10.400,20.788 10.152,20.557 9.901 C 20.221 9.537,20.257 9.546,18.921 9.514 C 18.271 9.499,17.161 9.485,16.454 9.483 L 15.167 9.480 14.974 9.326 C 14.867 9.241,14.749 9.137,14.711 9.094 C 14.593 8.960,14.421 8.535,14.043 7.440 C 12.889 4.093,12.978 4.303,12.657 4.133 C 12.436 4.016,12.055 3.915,11.863 3.924 C 11.817 3.926,11.717 3.945,11.640 3.967 " fill="#373B4D" stroke="none" fill-rule="evenodd"></path></svg>