<svg width="24" height="24" viewBox="0 0 24 24" fill="none" xmlns="http://www.w3.org/2000/svg"><path d="M11.660 3.996 C 11.157 4.124,11.037 4.334,10.354 6.300 C 9.730 8.092,9.352 9.013,9.150 9.230 C 8.976 9.416,8.605 9.453,6.040 9.540 C 5.039 9.574,4.130 9.613,4.020 9.626 C 3.768 9.657,3.657 9.714,3.474 9.907 C 3.267 10.124,3.153 10.377,3.129 10.665 C 3.089 11.166,3.250 11.335,5.193 12.847 C 6.919 14.188,7.117 14.364,7.294 14.708 C 7.433 14.979,7.389 15.183,6.680 17.543 C 6.271 18.903,6.080 19.622,6.080 19.803 C 6.080 19.859,6.108 20.001,6.143 20.118 C 6.307 20.669,7.009 21.043,7.546 20.865 C 7.654 20.829,8.108 20.550,8.561 20.242 C 10.566 18.879,11.352 18.358,11.520 18.285 C 11.627 18.238,11.846 18.195,12.060 18.179 L 12.420 18.151 13.600 18.984 C 16.009 20.683,16.398 20.920,16.783 20.920 C 17.228 20.920,17.735 20.534,17.862 20.101 C 17.969 19.730,17.955 19.666,17.259 17.352 C 16.725 15.580,16.607 15.066,16.676 14.812 C 16.775 14.449,17.089 14.159,18.866 12.791 C 19.457 12.336,20.105 11.820,20.306 11.644 C 20.917 11.111,21.015 10.754,20.712 10.164 C 20.563 9.874,20.362 9.691,20.135 9.637 C 19.901 9.582,18.606 9.528,16.789 9.498 L 15.159 9.470 14.994 9.340 C 14.675 9.088,14.529 8.785,13.996 7.280 C 13.820 6.785,13.556 6.039,13.408 5.623 C 13.073 4.675,12.905 4.330,12.723 4.209 C 12.477 4.046,11.910 3.933,11.660 3.996 " fill="#373B4D" stroke="none" fill-rule="evenodd"></path></svg>