<svg width="24" height="24" viewBox="0 0 24 24" fill="none" xmlns="http://www.w3.org/2000/svg"><path d="M11.820 3.909 C 11.515 3.946,11.166 4.166,11.021 4.415 C 10.966 4.509,10.596 5.555,10.200 6.739 C 9.399 9.135,9.406 9.119,8.973 9.349 L 8.740 9.473 6.360 9.488 L 3.980 9.503 3.778 9.608 C 3.165 9.927,2.912 10.667,3.222 11.236 C 3.349 11.469,3.698 11.750,5.495 13.064 C 6.933 14.115,7.154 14.299,7.289 14.557 C 7.495 14.950,7.456 15.172,6.857 17.025 C 5.978 19.742,5.980 19.734,6.097 20.137 C 6.148 20.312,6.212 20.415,6.357 20.561 C 6.702 20.905,7.086 21.024,7.520 20.920 C 7.734 20.869,7.769 20.845,10.600 18.811 C 11.007 18.519,11.416 18.242,11.509 18.197 C 11.748 18.080,12.253 18.080,12.491 18.197 C 12.584 18.243,13.056 18.565,13.540 18.913 C 14.024 19.261,14.825 19.837,15.320 20.193 C 16.315 20.909,16.475 20.986,16.884 20.949 C 17.168 20.923,17.477 20.763,17.668 20.541 C 17.899 20.273,17.937 20.172,17.936 19.820 C 17.936 19.457,17.949 19.507,17.256 17.370 C 16.538 15.158,16.502 14.973,16.704 14.568 C 16.833 14.308,16.985 14.181,18.510 13.059 C 20.415 11.657,20.653 11.467,20.773 11.246 C 21.086 10.670,20.838 9.928,20.224 9.610 L 20.020 9.504 17.600 9.482 L 15.180 9.460 14.955 9.314 C 14.831 9.233,14.681 9.104,14.623 9.027 C 14.549 8.931,14.287 8.201,13.776 6.670 C 13.194 4.928,13.009 4.421,12.916 4.308 C 12.703 4.050,12.192 3.864,11.820 3.909 " fill="#373B4D" stroke="none" fill-rule="evenodd"></path></svg>