<svg width="24" height="24" viewBox="0 0 24 24" fill="none" xmlns="http://www.w3.org/2000/svg"><path d="M11.500 4.041 C 11.072 4.273,11.014 4.386,10.381 6.220 C 9.524 8.705,9.316 9.177,9.004 9.338 C 8.798 9.445,8.234 9.482,6.260 9.521 C 5.182 9.542,4.174 9.578,4.020 9.601 C 3.698 9.649,3.543 9.752,3.333 10.056 C 3.165 10.299,3.108 10.515,3.128 10.825 C 3.156 11.271,3.210 11.322,5.499 13.080 C 6.201 13.619,6.869 14.153,6.983 14.266 C 7.097 14.379,7.240 14.573,7.300 14.697 C 7.406 14.913,7.408 14.931,7.361 15.171 C 7.300 15.483,6.977 16.604,6.580 17.880 C 6.196 19.114,6.080 19.559,6.080 19.797 C 6.080 20.398,6.546 20.871,7.179 20.911 C 7.436 20.928,7.487 20.918,7.702 20.809 C 7.833 20.742,8.372 20.387,8.900 20.018 C 10.294 19.045,11.147 18.469,11.414 18.319 C 11.623 18.202,11.691 18.185,12.034 18.169 L 12.420 18.150 13.520 18.924 C 14.125 19.349,14.908 19.900,15.260 20.149 C 16.075 20.725,16.451 20.920,16.743 20.920 C 17.242 20.920,17.730 20.585,17.858 20.155 C 17.978 19.749,17.950 19.606,17.407 17.840 C 16.691 15.515,16.616 15.223,16.649 14.881 C 16.661 14.750,16.707 14.625,16.781 14.518 C 16.931 14.302,17.559 13.780,18.800 12.839 C 20.372 11.648,20.697 11.363,20.818 11.071 C 21.000 10.635,20.766 9.990,20.319 9.694 C 20.173 9.598,20.113 9.587,19.550 9.557 C 19.215 9.539,18.088 9.511,17.046 9.495 L 15.151 9.467 14.943 9.298 C 14.609 9.025,14.549 8.888,13.712 6.483 C 13.152 4.875,13.029 4.547,12.919 4.367 C 12.719 4.040,11.864 3.844,11.500 4.041 " fill="#373B4D" stroke="none" fill-rule="evenodd"></path></svg>