<svg width="24" height="24" viewBox="0 0 24 24" fill="none" xmlns="http://www.w3.org/2000/svg"><path d="M3.250 2.522 C 2.961 2.561,2.568 2.952,2.477 3.292 C 2.420 3.503,2.453 3.799,2.558 4.016 C 2.681 4.271,3.328 4.958,5.947 7.620 C 8.251 9.961,18.450 20.089,19.398 20.977 C 19.958 21.502,20.093 21.579,20.398 21.546 C 21.105 21.471,21.482 21.136,21.545 20.529 C 21.590 20.100,21.445 19.816,20.823 19.113 L 20.481 18.726 20.860 18.140 C 21.751 16.759,22.391 15.168,22.637 13.721 C 22.811 12.695,22.785 10.976,22.580 10.005 C 22.126 7.860,21.262 6.147,19.928 4.755 C 19.397 4.201,19.246 4.120,18.739 4.120 C 18.397 4.120,18.362 4.128,18.185 4.245 C 17.722 4.551,17.518 5.148,17.722 5.598 C 17.767 5.695,18.021 6.081,18.288 6.455 C 18.952 7.384,19.242 7.849,19.541 8.460 C 20.090 9.583,20.296 10.558,20.296 12.040 C 20.296 13.219,20.167 14.042,19.855 14.834 C 19.599 15.483,18.811 16.960,18.720 16.960 C 18.701 16.960,18.314 16.596,17.860 16.150 L 17.033 15.340 17.220 14.940 C 17.722 13.865,17.863 13.375,17.929 12.471 C 18.010 11.368,17.900 10.657,17.508 9.747 C 17.120 8.846,16.598 8.092,16.104 7.720 C 15.937 7.593,15.832 7.548,15.634 7.515 C 15.345 7.468,15.094 7.491,14.900 7.583 C 14.586 7.732,14.273 8.173,14.217 8.545 C 14.186 8.751,14.247 8.897,14.630 9.526 C 15.004 10.141,15.298 10.695,15.376 10.931 C 15.476 11.230,15.528 11.989,15.481 12.447 C 15.431 12.934,15.327 13.360,15.251 13.389 C 15.214 13.403,14.935 13.155,14.467 12.693 C 11.636 9.898,5.722 4.084,5.081 3.465 C 4.652 3.051,4.229 2.671,4.141 2.620 C 3.969 2.521,3.577 2.478,3.250 2.522 M2.288 8.443 C 1.989 8.535,1.635 9.077,1.466 9.702 C 1.279 10.393,1.183 12.085,1.277 13.020 C 1.480 15.040,2.332 17.144,3.577 18.700 C 3.945 19.159,4.478 19.678,4.697 19.789 C 5.263 20.075,5.958 19.842,6.233 19.274 C 6.347 19.040,6.353 18.575,6.245 18.340 C 6.205 18.252,5.980 17.913,5.745 17.588 C 5.164 16.780,4.972 16.491,4.690 16.000 C 4.197 15.143,3.865 14.159,3.757 13.240 C 3.685 12.622,3.695 11.052,3.775 10.427 C 3.812 10.145,3.842 9.744,3.844 9.535 C 3.845 9.198,3.834 9.137,3.742 8.980 C 3.630 8.788,3.478 8.658,3.209 8.523 C 3.011 8.424,2.496 8.378,2.288 8.443 M7.433 13.334 C 6.918 13.526,6.600 14.148,6.739 14.690 C 6.814 14.980,6.922 15.167,7.259 15.588 C 7.587 15.997,7.956 16.330,8.231 16.466 C 8.406 16.552,8.478 16.567,8.641 16.547 C 9.244 16.476,9.770 15.936,9.766 15.393 C 9.765 15.259,9.726 15.121,9.641 14.947 C 9.390 14.438,8.591 13.499,8.307 13.380 C 8.102 13.295,7.608 13.268,7.433 13.334 " fill="#373B4D" stroke="none" fill-rule="evenodd"></path></svg>