<svg width="24" height="24" viewBox="0 0 24 24" fill="none" xmlns="http://www.w3.org/2000/svg"><path d="M2.938 2.712 C 2.691 2.910,2.522 3.208,2.492 3.496 C 2.446 3.945,2.583 4.123,4.515 6.110 C 6.265 7.910,18.639 20.245,19.300 20.848 C 19.929 21.422,20.141 21.542,20.459 21.502 C 20.784 21.461,21.138 21.269,21.300 21.045 C 21.458 20.828,21.575 20.455,21.536 20.292 C 21.473 20.031,21.186 19.573,20.773 19.074 C 20.634 18.906,20.520 18.755,20.520 18.739 C 20.520 18.723,20.693 18.414,20.904 18.052 C 21.955 16.252,22.546 14.612,22.684 13.117 C 22.745 12.451,22.710 10.819,22.624 10.340 C 22.416 9.182,22.001 7.941,21.490 6.946 C 21.035 6.062,20.063 4.825,19.475 4.382 L 19.232 4.200 18.794 4.200 C 18.495 4.200,18.322 4.218,18.248 4.256 C 18.013 4.379,17.744 4.759,17.676 5.064 C 17.631 5.261,17.635 5.286,17.750 5.531 C 17.817 5.674,18.122 6.193,18.429 6.685 C 19.341 8.148,19.702 8.822,19.922 9.480 C 20.152 10.166,20.159 10.236,20.159 12.026 C 20.160 13.650,20.159 13.676,20.061 14.054 C 20.006 14.264,19.894 14.604,19.812 14.808 C 19.643 15.231,18.865 16.791,18.780 16.876 C 18.705 16.953,18.629 16.891,17.748 16.033 L 17.035 15.340 17.220 14.920 C 17.484 14.320,17.706 13.644,17.827 13.074 C 17.959 12.455,17.975 11.504,17.863 10.980 C 17.566 9.590,16.754 8.198,15.942 7.685 C 15.761 7.570,15.716 7.560,15.405 7.560 C 14.956 7.560,14.787 7.641,14.536 7.973 C 14.345 8.225,14.203 8.492,14.201 8.600 C 14.200 8.633,14.451 9.165,14.759 9.782 C 15.375 11.020,15.439 11.209,15.439 11.800 C 15.440 12.490,15.332 13.360,15.244 13.360 C 15.202 13.360,14.515 12.696,9.740 8.039 C 4.790 3.211,4.378 2.816,4.175 2.696 C 4.038 2.615,3.938 2.595,3.575 2.574 L 3.140 2.550 2.938 2.712 M2.047 8.661 C 1.954 8.767,1.827 8.945,1.764 9.057 C 1.190 10.077,1.073 12.552,1.515 14.300 C 1.867 15.693,2.433 16.994,3.177 18.120 C 3.611 18.777,4.406 19.615,4.740 19.767 C 5.034 19.901,5.430 19.894,5.706 19.750 C 6.248 19.467,6.430 18.820,6.129 18.245 C 6.060 18.114,5.782 17.659,5.509 17.234 C 3.851 14.642,3.682 13.992,3.797 10.657 L 3.849 9.160 3.743 9.020 C 3.446 8.631,3.243 8.536,2.624 8.496 L 2.216 8.469 2.047 8.661 M7.446 13.403 C 6.976 13.495,6.682 14.063,6.777 14.694 C 6.816 14.953,7.126 15.409,7.592 15.888 C 8.081 16.392,8.256 16.500,8.580 16.498 C 8.874 16.496,9.087 16.394,9.385 16.111 C 9.860 15.662,9.825 15.149,9.271 14.416 C 8.944 13.983,8.388 13.451,8.210 13.402 C 8.036 13.354,7.695 13.354,7.446 13.403 " fill="#373B4D" stroke="none" fill-rule="evenodd"></path></svg>