<svg width="24" height="24" viewBox="0 0 24 24" fill="none" xmlns="http://www.w3.org/2000/svg"><path d="M4.660 4.185 C 4.413 4.347,3.692 5.096,3.365 5.532 C 1.855 7.545,1.036 10.329,1.238 12.760 C 1.426 15.014,2.233 17.053,3.621 18.780 C 4.456 19.819,4.931 20.090,5.580 19.902 C 5.894 19.810,6.206 19.505,6.297 19.199 C 6.385 18.903,6.379 18.495,6.285 18.311 C 6.244 18.230,6.013 17.916,5.770 17.612 C 5.141 16.824,4.830 16.348,4.481 15.636 C 3.869 14.391,3.674 13.480,3.673 11.860 C 3.672 10.581,3.888 9.581,4.401 8.491 C 4.734 7.784,4.936 7.479,5.992 6.093 C 6.302 5.687,6.360 5.550,6.360 5.228 C 6.360 4.885,6.263 4.621,6.064 4.422 C 5.809 4.167,5.641 4.103,5.200 4.091 C 4.849 4.081,4.808 4.089,4.660 4.185 M18.247 4.182 C 18.004 4.305,17.745 4.603,17.682 4.832 C 17.620 5.054,17.630 5.508,17.700 5.654 C 17.734 5.723,17.971 6.050,18.227 6.380 C 18.852 7.184,19.190 7.709,19.519 8.380 C 19.823 9.002,19.942 9.314,20.143 10.018 L 20.280 10.497 20.280 11.982 L 20.280 13.466 20.138 13.983 C 19.778 15.300,19.199 16.398,18.221 17.620 C 18.010 17.884,17.798 18.181,17.750 18.280 C 17.643 18.499,17.610 18.930,17.681 19.182 C 17.745 19.412,17.974 19.671,18.246 19.821 C 18.435 19.926,18.498 19.940,18.780 19.938 C 19.178 19.935,19.328 19.864,19.726 19.489 C 20.794 18.482,21.710 16.961,22.255 15.290 C 22.673 14.010,22.735 13.574,22.738 11.900 C 22.740 10.655,22.737 10.606,22.632 10.119 C 22.209 8.168,21.412 6.450,20.326 5.156 C 19.941 4.696,19.497 4.276,19.290 4.177 C 19.194 4.131,19.017 4.099,18.800 4.090 C 18.493 4.076,18.439 4.085,18.247 4.182 M8.356 7.476 C 8.121 7.524,7.876 7.694,7.554 8.031 C 6.488 9.147,5.885 10.905,6.035 12.459 C 6.170 13.845,6.701 15.065,7.569 15.982 C 8.016 16.454,8.171 16.540,8.580 16.540 C 8.850 16.540,8.936 16.522,9.129 16.428 C 9.538 16.227,9.778 15.829,9.774 15.360 C 9.772 15.094,9.705 14.954,9.272 14.310 C 8.915 13.780,8.589 13.126,8.524 12.808 C 8.467 12.533,8.467 11.426,8.524 11.152 C 8.593 10.819,8.885 10.242,9.264 9.691 C 9.454 9.414,9.647 9.104,9.692 9.003 C 9.866 8.613,9.743 8.042,9.428 7.775 C 9.149 7.539,8.684 7.410,8.356 7.476 M14.923 7.544 C 14.372 7.824,14.094 8.380,14.258 8.875 C 14.296 8.988,14.489 9.327,14.687 9.630 C 15.093 10.248,15.359 10.751,15.466 11.103 C 15.523 11.290,15.538 11.467,15.535 11.940 C 15.533 12.270,15.511 12.646,15.486 12.776 C 15.422 13.110,15.111 13.730,14.694 14.360 C 14.269 15.001,14.220 15.111,14.226 15.400 C 14.241 16.035,14.701 16.510,15.341 16.551 C 15.699 16.574,15.886 16.499,16.211 16.201 C 17.141 15.350,17.798 14.017,17.925 12.720 C 17.981 12.149,17.950 11.164,17.861 10.746 C 17.665 9.815,17.027 8.598,16.406 7.971 C 16.063 7.625,15.804 7.490,15.420 7.458 C 15.167 7.436,15.119 7.445,14.923 7.544 M11.660 10.883 C 11.388 10.989,11.104 11.205,10.971 11.407 C 10.879 11.546,10.858 11.627,10.846 11.884 C 10.828 12.276,10.908 12.529,11.127 12.779 C 11.373 13.058,11.606 13.160,12.000 13.160 C 12.402 13.160,12.542 13.104,12.815 12.830 C 13.353 12.292,13.273 11.417,12.652 11.053 C 12.470 10.947,12.042 10.798,11.926 10.802 C 11.890 10.803,11.770 10.839,11.660 10.883 " fill="#373B4D" stroke="none" fill-rule="evenodd"></path></svg>