<svg width="24" height="24" viewBox="0 0 24 24" fill="none" xmlns="http://www.w3.org/2000/svg"><path d="M4.827 4.081 C 4.376 4.216,3.281 5.491,2.620 6.650 C 1.992 7.753,1.517 9.145,1.296 10.540 C 1.188 11.219,1.198 12.879,1.315 13.580 C 1.541 14.938,1.989 16.244,2.585 17.288 C 3.308 18.552,4.376 19.795,4.850 19.923 C 5.112 19.994,5.489 19.978,5.693 19.887 C 5.922 19.786,6.185 19.523,6.293 19.286 C 6.358 19.146,6.379 19.021,6.379 18.780 C 6.380 18.501,6.365 18.433,6.264 18.251 C 6.200 18.136,6.037 17.918,5.900 17.766 C 4.775 16.517,4.125 15.264,3.777 13.678 C 3.680 13.235,3.666 13.075,3.650 12.219 C 3.635 11.455,3.645 11.163,3.698 10.799 C 3.942 9.120,4.662 7.613,5.852 6.286 C 6.246 5.848,6.366 5.623,6.390 5.284 C 6.423 4.795,6.156 4.350,5.700 4.135 C 5.489 4.035,5.066 4.009,4.827 4.081 M18.380 4.089 C 17.722 4.324,17.408 5.143,17.742 5.756 C 17.801 5.865,17.976 6.095,18.130 6.267 C 19.213 7.477,19.880 8.767,20.226 10.320 C 20.334 10.805,20.337 10.856,20.337 12.000 C 20.337 13.144,20.334 13.195,20.226 13.680 C 19.883 15.220,19.209 16.529,18.148 17.714 C 17.709 18.203,17.620 18.383,17.621 18.780 C 17.621 19.165,17.710 19.390,17.960 19.640 C 18.197 19.877,18.426 19.969,18.780 19.969 C 19.197 19.969,19.371 19.878,19.816 19.430 C 21.297 17.933,22.300 15.889,22.685 13.580 C 22.802 12.879,22.812 11.219,22.704 10.540 C 22.328 8.177,21.325 6.098,19.828 4.584 C 19.398 4.150,19.185 4.039,18.791 4.043 C 18.631 4.045,18.446 4.066,18.380 4.089 M8.090 7.543 C 7.828 7.673,7.340 8.184,7.025 8.658 C 6.594 9.306,6.290 10.039,6.112 10.860 C 5.987 11.436,5.987 12.563,6.112 13.143 C 6.358 14.283,6.880 15.306,7.600 16.056 C 7.998 16.469,8.208 16.577,8.620 16.577 C 9.243 16.576,9.731 16.118,9.789 15.480 C 9.817 15.179,9.731 14.928,9.496 14.620 C 9.396 14.488,9.242 14.286,9.155 14.170 C 8.378 13.135,8.200 11.805,8.683 10.633 C 8.837 10.259,8.912 10.139,9.312 9.626 C 9.792 9.011,9.881 8.726,9.739 8.249 C 9.649 7.947,9.460 7.723,9.165 7.570 C 8.944 7.456,8.875 7.440,8.604 7.440 C 8.353 7.440,8.257 7.459,8.090 7.543 M14.820 7.574 C 14.538 7.731,14.346 7.961,14.261 8.249 C 14.130 8.690,14.217 9.034,14.570 9.472 C 15.386 10.483,15.685 11.357,15.563 12.369 C 15.464 13.188,15.224 13.708,14.559 14.545 C 14.278 14.898,14.181 15.158,14.211 15.480 C 14.251 15.924,14.500 16.284,14.902 16.480 C 15.174 16.613,15.575 16.615,15.869 16.484 C 16.299 16.293,17.021 15.393,17.419 14.552 C 17.834 13.677,17.969 13.050,17.971 12.000 C 17.972 11.179,17.921 10.817,17.717 10.189 C 17.361 9.092,16.508 7.840,15.914 7.545 C 15.740 7.458,15.650 7.440,15.382 7.440 C 15.092 7.441,15.036 7.454,14.820 7.574 M11.740 10.836 C 11.379 10.928,11.054 11.193,10.907 11.514 C 10.776 11.801,10.786 12.231,10.932 12.527 C 11.126 12.922,11.480 13.160,11.920 13.190 C 12.942 13.261,13.566 12.087,12.941 11.269 C 12.700 10.954,12.111 10.741,11.740 10.836 " fill="#373B4D" stroke="none" fill-rule="evenodd"></path></svg>