<svg width="24" height="24" viewBox="0 0 24 24" fill="none" xmlns="http://www.w3.org/2000/svg"><path d="M3.316 2.476 C 2.819 2.578,2.438 3.050,2.430 3.573 C 2.426 3.865,2.482 3.990,2.779 4.360 C 3.493 5.248,19.246 20.973,19.896 21.446 C 20.033 21.546,20.087 21.560,20.339 21.560 C 20.839 21.560,21.195 21.367,21.430 20.967 C 21.529 20.798,21.540 20.743,21.540 20.397 C 21.540 19.945,21.514 19.894,20.984 19.303 C 20.805 19.103,20.618 18.888,20.569 18.825 L 20.481 18.710 20.735 18.345 C 21.776 16.850,22.437 15.170,22.705 13.340 C 22.790 12.762,22.802 11.414,22.727 10.840 C 22.547 9.462,22.104 8.035,21.511 6.920 C 21.051 6.055,20.253 4.989,19.659 4.446 C 19.337 4.152,19.236 4.108,18.832 4.088 C 18.535 4.073,18.459 4.083,18.305 4.158 C 17.712 4.445,17.453 5.133,17.732 5.680 C 17.794 5.801,18.043 6.151,18.285 6.457 C 19.486 7.976,20.034 9.175,20.264 10.787 C 20.355 11.423,20.355 12.617,20.264 13.253 C 20.122 14.248,19.910 14.886,19.382 15.903 C 18.955 16.726,18.770 17.008,18.687 16.962 C 18.650 16.942,18.264 16.568,17.829 16.131 L 17.037 15.337 17.233 14.918 C 17.789 13.728,17.920 13.245,17.949 12.280 C 17.976 11.329,17.927 10.889,17.723 10.278 C 17.338 9.127,16.712 8.136,16.092 7.692 L 15.822 7.500 15.435 7.486 C 14.981 7.470,14.851 7.516,14.583 7.783 C 14.278 8.088,14.135 8.538,14.240 8.864 C 14.267 8.950,14.469 9.290,14.688 9.620 C 15.392 10.680,15.524 11.058,15.525 12.020 C 15.526 12.564,15.460 12.989,15.327 13.294 L 15.255 13.459 14.618 12.854 C 14.267 12.521,12.045 10.328,9.680 7.980 C 5.122 3.455,4.330 2.687,4.090 2.566 C 3.918 2.478,3.527 2.433,3.316 2.476 M2.320 8.419 C 1.896 8.557,1.669 8.906,1.453 9.753 C 1.328 10.242,1.309 10.386,1.275 11.120 C 1.186 13.043,1.309 13.990,1.856 15.584 C 2.272 16.798,2.807 17.762,3.636 18.789 C 4.440 19.786,4.887 20.055,5.483 19.902 C 6.006 19.768,6.317 19.395,6.351 18.860 C 6.375 18.485,6.289 18.288,5.859 17.740 C 4.867 16.478,4.387 15.645,4.045 14.598 C 3.761 13.727,3.659 13.006,3.664 11.900 C 3.667 11.195,3.685 10.944,3.777 10.340 C 3.907 9.494,3.901 9.211,3.747 8.948 C 3.485 8.502,2.822 8.256,2.320 8.419 M7.580 13.277 C 7.350 13.317,7.203 13.406,6.991 13.632 C 6.662 13.984,6.590 14.509,6.812 14.943 C 6.979 15.269,7.315 15.718,7.637 16.043 C 8.174 16.586,8.551 16.693,9.054 16.446 C 9.373 16.289,9.603 16.044,9.718 15.737 C 9.876 15.318,9.772 15.005,9.244 14.304 C 8.877 13.816,8.509 13.438,8.320 13.352 C 8.149 13.275,7.795 13.239,7.580 13.277 " fill="#373B4D" stroke="none" fill-rule="evenodd"></path></svg>