<svg width="24" height="24" viewBox="0 0 24 24" fill="none" xmlns="http://www.w3.org/2000/svg"><path d="M4.818 4.123 C 4.571 4.195,3.837 4.926,3.317 5.620 C 2.087 7.261,1.314 9.504,1.214 11.720 C 1.130 13.584,1.772 15.946,2.822 17.640 C 3.405 18.581,4.274 19.579,4.717 19.817 C 4.898 19.913,4.982 19.933,5.217 19.934 C 5.861 19.935,6.291 19.523,6.347 18.851 C 6.379 18.475,6.297 18.304,5.734 17.560 C 4.784 16.307,4.372 15.565,4.024 14.485 C 3.742 13.609,3.632 12.450,3.716 11.245 C 3.796 10.106,3.986 9.380,4.456 8.415 C 4.727 7.858,4.987 7.448,5.581 6.640 C 6.232 5.756,6.324 5.598,6.348 5.331 C 6.390 4.874,6.162 4.425,5.793 4.237 C 5.671 4.174,5.075 4.065,4.960 4.084 C 4.949 4.086,4.885 4.103,4.818 4.123 M18.420 4.109 C 18.300 4.140,18.023 4.341,17.898 4.489 C 17.694 4.730,17.628 4.938,17.648 5.278 C 17.668 5.621,17.689 5.659,18.343 6.540 C 19.266 7.783,19.743 8.703,20.124 9.969 L 20.280 10.487 20.280 11.988 L 20.280 13.489 20.097 14.095 C 19.712 15.372,19.307 16.143,18.314 17.488 C 17.709 18.307,17.663 18.404,17.664 18.836 C 17.665 19.230,17.707 19.338,17.959 19.590 C 18.205 19.836,18.420 19.926,18.761 19.925 C 19.187 19.923,19.401 19.809,19.875 19.330 C 20.871 18.324,21.722 16.872,22.261 15.260 C 22.650 14.095,22.736 13.470,22.737 11.800 C 22.738 10.558,22.706 10.299,22.437 9.360 C 21.989 7.796,21.381 6.529,20.566 5.460 C 20.296 5.107,19.565 4.367,19.376 4.256 C 19.170 4.135,18.641 4.054,18.420 4.109 M8.168 7.557 C 7.646 7.802,6.938 8.682,6.548 9.571 C 6.187 10.397,6.031 11.120,6.030 11.980 C 6.028 12.831,6.190 13.600,6.539 14.400 C 6.911 15.253,7.643 16.198,8.110 16.427 C 8.889 16.808,9.815 16.186,9.753 15.324 C 9.734 15.067,9.671 14.930,9.288 14.320 C 8.959 13.796,8.657 13.209,8.569 12.920 C 8.483 12.636,8.473 11.359,8.555 11.080 C 8.642 10.783,8.894 10.291,9.240 9.740 C 9.671 9.055,9.723 8.949,9.749 8.700 C 9.818 8.027,9.383 7.556,8.640 7.500 C 8.391 7.481,8.311 7.490,8.168 7.557 M14.930 7.543 C 14.577 7.724,14.263 8.138,14.216 8.486 C 14.183 8.730,14.279 8.958,14.735 9.714 C 15.235 10.542,15.435 10.963,15.481 11.284 C 15.530 11.620,15.530 12.398,15.481 12.700 C 15.432 13.000,15.075 13.741,14.657 14.407 C 14.219 15.105,14.168 15.302,14.303 15.758 C 14.380 16.017,14.663 16.338,14.914 16.450 C 15.151 16.555,15.646 16.559,15.862 16.456 C 16.058 16.363,16.549 15.874,16.855 15.466 C 17.289 14.887,17.698 13.958,17.856 13.191 C 17.944 12.765,17.974 11.939,17.925 11.307 C 17.888 10.840,17.857 10.681,17.724 10.283 C 17.330 9.102,16.512 7.902,15.900 7.602 C 15.638 7.474,15.126 7.443,14.930 7.543 M11.576 10.937 C 11.398 11.026,11.217 11.159,11.091 11.292 C 10.920 11.473,10.885 11.537,10.861 11.713 C 10.768 12.392,11.121 12.996,11.680 13.116 C 12.191 13.226,12.500 13.139,12.818 12.795 C 13.082 12.510,13.182 12.236,13.149 11.880 C 13.111 11.455,12.881 11.166,12.414 10.954 C 12.014 10.773,11.906 10.771,11.576 10.937 " fill="#373B4D" stroke="none" fill-rule="evenodd"></path></svg>