<svg width="24" height="24" viewBox="0 0 24 24" fill="none" xmlns="http://www.w3.org/2000/svg"><path d="M3.197 2.515 C 2.903 2.612,2.640 2.878,2.497 3.220 C 2.403 3.446,2.438 3.821,2.574 4.053 C 2.747 4.349,3.255 4.888,5.724 7.398 C 8.188 9.902,17.567 19.226,19.085 20.681 C 20.061 21.615,20.044 21.606,20.579 21.520 C 20.911 21.467,21.108 21.370,21.279 21.175 C 21.443 20.988,21.512 20.826,21.544 20.547 C 21.598 20.090,21.473 19.843,20.805 19.091 L 20.477 18.722 20.792 18.251 C 21.765 16.796,22.385 15.250,22.667 13.573 C 22.772 12.950,22.772 11.094,22.667 10.460 C 22.515 9.544,22.183 8.414,21.816 7.567 C 21.361 6.515,20.637 5.451,19.812 4.621 C 19.372 4.179,19.222 4.105,18.758 4.104 C 18.458 4.103,18.394 4.116,18.231 4.211 C 17.854 4.432,17.640 4.803,17.640 5.234 C 17.640 5.519,17.709 5.656,18.179 6.300 C 19.194 7.694,19.610 8.423,19.917 9.344 C 20.439 10.913,20.456 13.053,19.957 14.570 C 19.735 15.244,18.846 16.960,18.718 16.960 C 18.694 16.960,18.306 16.596,17.856 16.150 L 17.038 15.340 17.295 14.779 C 17.775 13.729,17.891 13.287,17.939 12.320 C 17.978 11.525,17.910 10.839,17.739 10.327 C 17.550 9.760,17.182 9.004,16.880 8.563 C 16.628 8.196,16.138 7.693,15.923 7.582 C 15.759 7.497,15.262 7.459,15.052 7.516 C 14.582 7.644,14.149 8.279,14.218 8.737 C 14.234 8.845,14.372 9.110,14.626 9.520 C 15.135 10.341,15.385 10.843,15.436 11.140 C 15.557 11.854,15.527 12.630,15.357 13.182 C 15.288 13.403,15.267 13.436,15.208 13.404 C 15.171 13.384,13.601 11.849,11.720 9.992 C 4.392 2.759,4.269 2.640,4.041 2.553 C 3.902 2.500,3.322 2.474,3.197 2.515 M2.220 8.466 C 1.780 8.698,1.455 9.419,1.322 10.460 C 1.249 11.035,1.223 12.477,1.276 13.018 C 1.425 14.535,1.965 16.181,2.748 17.502 C 3.342 18.505,4.262 19.588,4.700 19.800 C 5.265 20.074,5.918 19.868,6.215 19.322 C 6.309 19.149,6.328 19.067,6.330 18.808 C 6.334 18.416,6.295 18.338,5.667 17.480 C 4.580 15.997,4.139 15.120,3.856 13.883 C 3.667 13.058,3.633 11.411,3.784 10.358 C 3.820 10.106,3.852 9.738,3.855 9.540 C 3.859 9.238,3.846 9.153,3.771 9.014 C 3.654 8.794,3.396 8.579,3.132 8.480 C 2.865 8.380,2.397 8.373,2.220 8.466 M7.480 13.315 C 6.835 13.526,6.512 14.314,6.815 14.934 C 7.083 15.481,7.817 16.281,8.221 16.466 C 8.407 16.551,8.488 16.566,8.657 16.549 C 9.238 16.489,9.768 15.954,9.777 15.419 C 9.779 15.270,9.747 15.152,9.651 14.957 C 9.399 14.445,8.638 13.542,8.320 13.379 C 8.166 13.299,7.648 13.260,7.480 13.315 " fill="#373B4D" stroke="none" fill-rule="evenodd"></path></svg>