<svg width="24" height="24" viewBox="0 0 24 24" fill="none" xmlns="http://www.w3.org/2000/svg"><path d="M4.809 4.111 C 4.526 4.200,3.625 5.147,3.120 5.887 C 1.991 7.539,1.305 9.623,1.214 11.668 C 1.138 13.407,1.638 15.496,2.521 17.120 C 3.173 18.320,4.161 19.531,4.730 19.829 C 4.905 19.920,4.990 19.938,5.240 19.938 C 5.495 19.937,5.572 19.920,5.753 19.820 C 6.135 19.612,6.317 19.312,6.349 18.841 C 6.378 18.431,6.329 18.332,5.712 17.534 C 4.969 16.573,4.616 15.992,4.263 15.150 C 3.801 14.046,3.647 13.097,3.692 11.620 C 3.732 10.296,3.928 9.480,4.479 8.340 C 4.716 7.849,4.987 7.435,5.689 6.493 C 5.987 6.093,6.263 5.684,6.301 5.583 C 6.391 5.347,6.366 4.928,6.249 4.698 C 6.140 4.484,5.939 4.288,5.736 4.196 C 5.559 4.116,4.966 4.062,4.809 4.111 M18.420 4.105 C 18.163 4.172,17.780 4.553,17.686 4.836 C 17.622 5.024,17.629 5.455,17.697 5.618 C 17.728 5.692,17.970 6.042,18.236 6.395 C 18.869 7.236,19.138 7.650,19.453 8.270 C 19.780 8.913,19.924 9.274,20.122 9.953 L 20.280 10.492 20.280 11.983 L 20.280 13.474 20.139 13.963 C 19.935 14.673,19.818 14.982,19.541 15.552 C 19.212 16.228,18.939 16.660,18.337 17.463 C 17.678 18.342,17.664 18.371,17.662 18.820 C 17.660 19.142,17.672 19.200,17.769 19.366 C 17.884 19.560,18.081 19.738,18.320 19.861 C 18.527 19.968,19.015 19.959,19.254 19.843 C 19.640 19.656,20.391 18.845,20.942 18.020 C 21.675 16.921,22.336 15.335,22.600 14.040 C 22.706 13.520,22.778 12.066,22.742 11.160 C 22.712 10.377,22.592 9.782,22.262 8.780 C 21.821 7.441,21.307 6.435,20.572 5.469 C 20.173 4.946,19.553 4.322,19.320 4.210 C 19.140 4.123,18.594 4.060,18.420 4.105 M15.078 7.476 C 14.739 7.584,14.353 7.976,14.255 8.312 C 14.145 8.690,14.206 8.866,14.750 9.733 C 15.112 10.311,15.380 10.825,15.461 11.097 C 15.530 11.329,15.543 12.423,15.481 12.765 C 15.432 13.031,15.048 13.813,14.716 14.320 C 14.297 14.960,14.240 15.090,14.240 15.398 C 14.240 15.868,14.512 16.280,14.946 16.467 C 15.166 16.561,15.657 16.561,15.846 16.467 C 16.156 16.313,16.725 15.703,17.088 15.136 C 17.409 14.635,17.693 13.924,17.847 13.235 C 17.928 12.872,17.940 12.715,17.939 11.980 C 17.939 11.058,17.905 10.800,17.714 10.227 C 17.323 9.058,16.488 7.859,15.873 7.583 C 15.641 7.479,15.240 7.425,15.078 7.476 M8.137 7.558 C 7.898 7.680,7.551 8.005,7.267 8.374 C 6.934 8.805,6.798 9.028,6.586 9.482 C 5.935 10.877,5.844 12.383,6.322 13.845 C 6.577 14.625,7.018 15.385,7.552 15.961 C 7.911 16.350,8.092 16.472,8.384 16.526 C 9.100 16.659,9.760 16.126,9.760 15.415 C 9.760 15.092,9.720 14.997,9.322 14.383 C 8.884 13.706,8.567 13.050,8.519 12.719 C 8.471 12.386,8.471 11.574,8.519 11.242 C 8.566 10.914,8.847 10.330,9.259 9.700 C 9.682 9.054,9.735 8.943,9.753 8.655 C 9.796 7.979,9.356 7.526,8.620 7.491 C 8.355 7.478,8.272 7.489,8.137 7.558 M11.700 10.868 C 11.438 10.973,11.108 11.215,10.980 11.397 C 10.867 11.557,10.860 11.588,10.860 11.953 C 10.860 12.275,10.875 12.368,10.948 12.505 C 11.181 12.940,11.460 13.125,11.926 13.152 C 12.318 13.175,12.528 13.103,12.776 12.861 C 13.019 12.626,13.128 12.397,13.151 12.075 C 13.195 11.463,12.880 11.073,12.164 10.854 C 11.945 10.787,11.900 10.788,11.700 10.868 " fill="#373B4D" stroke="none" fill-rule="evenodd"></path></svg>