<svg width="24" height="24" viewBox="0 0 24 24" fill="none" xmlns="http://www.w3.org/2000/svg"><path d="M4.890 4.160 C 4.628 4.221,4.058 4.754,3.459 5.500 C 2.542 6.642,1.812 8.292,1.408 10.135 C 1.304 10.608,1.301 10.654,1.301 12.020 C 1.300 13.588,1.304 13.618,1.647 14.814 C 2.135 16.517,2.728 17.644,3.781 18.874 C 4.449 19.654,4.784 19.884,5.262 19.888 C 5.687 19.892,6.139 19.556,6.261 19.144 C 6.395 18.693,6.346 18.553,5.677 17.491 C 4.185 15.124,3.943 14.552,3.801 13.049 C 3.715 12.144,3.781 10.725,3.945 9.940 C 4.111 9.147,4.379 8.562,5.096 7.426 C 5.279 7.137,5.619 6.597,5.853 6.227 C 6.086 5.857,6.289 5.492,6.304 5.414 C 6.371 5.056,6.207 4.624,5.932 4.434 C 5.623 4.222,5.154 4.098,4.890 4.160 M18.420 4.161 C 18.251 4.213,17.900 4.532,17.770 4.753 C 17.684 4.901,17.662 4.987,17.664 5.172 C 17.668 5.466,17.773 5.673,18.447 6.720 C 19.322 8.077,19.591 8.588,20.019 9.700 L 20.249 10.297 20.269 11.899 L 20.289 13.500 20.067 14.120 C 19.635 15.328,19.378 15.832,18.489 17.213 C 17.671 18.483,17.557 18.809,17.777 19.257 C 17.910 19.528,18.179 19.773,18.421 19.840 C 18.644 19.903,19.064 19.870,19.265 19.775 C 19.583 19.624,20.564 18.526,21.049 17.780 C 21.784 16.646,22.426 14.973,22.625 13.667 C 22.671 13.364,22.688 12.912,22.691 11.900 C 22.695 10.401,22.675 10.222,22.396 9.300 C 21.650 6.828,20.252 4.679,19.100 4.232 C 18.888 4.149,18.569 4.116,18.420 4.161 M15.033 7.548 C 14.885 7.571,14.597 7.835,14.403 8.126 C 14.149 8.505,14.152 8.518,14.756 9.759 C 15.039 10.343,15.305 10.919,15.346 11.040 C 15.408 11.224,15.420 11.384,15.420 12.020 L 15.419 12.780 15.154 13.360 C 15.008 13.679,14.758 14.219,14.598 14.560 C 14.252 15.297,14.223 15.449,14.372 15.773 C 14.593 16.257,15.016 16.550,15.430 16.507 C 15.548 16.495,15.722 16.447,15.818 16.401 C 16.015 16.306,16.592 15.740,16.858 15.382 C 17.235 14.875,17.604 14.100,17.763 13.484 C 17.859 13.114,17.920 12.338,17.920 11.488 L 17.920 10.835 17.696 10.268 C 17.133 8.837,16.323 7.764,15.686 7.604 C 15.493 7.556,15.167 7.528,15.033 7.548 M7.878 7.799 C 7.172 8.389,6.753 9.064,6.304 10.330 L 6.080 10.960 6.080 11.996 L 6.080 13.032 6.224 13.446 C 6.485 14.198,6.831 14.934,7.144 15.405 C 7.379 15.760,7.911 16.289,8.146 16.403 C 8.667 16.655,9.352 16.383,9.619 15.819 C 9.813 15.409,9.762 15.229,9.075 13.897 L 8.641 13.053 8.601 12.497 C 8.579 12.191,8.561 11.728,8.560 11.469 L 8.560 10.997 9.026 10.154 C 9.752 8.841,9.828 8.570,9.602 8.103 C 9.443 7.776,9.129 7.630,8.461 7.574 L 8.176 7.550 7.878 7.799 M11.496 11.038 C 11.229 11.191,10.930 11.524,10.896 11.707 C 10.819 12.115,11.008 12.637,11.314 12.861 C 11.512 13.006,11.908 13.161,12.078 13.159 C 12.344 13.157,12.844 12.783,13.011 12.461 C 13.122 12.248,13.132 11.761,13.029 11.572 C 12.834 11.212,12.346 10.920,11.940 10.920 C 11.748 10.921,11.659 10.944,11.496 11.038 " fill="#373B4D" stroke="none" fill-rule="evenodd"></path></svg>