<svg width="24" height="24" viewBox="0 0 24 24" fill="none" xmlns="http://www.w3.org/2000/svg"><path d="M3.176 2.561 C 2.985 2.620,2.680 2.913,2.575 3.138 C 2.509 3.279,2.481 3.412,2.481 3.580 C 2.481 3.882,2.588 4.079,3.024 4.580 C 3.737 5.398,17.984 19.643,19.279 20.833 C 19.970 21.468,20.086 21.537,20.413 21.511 C 20.963 21.466,21.369 21.149,21.502 20.659 C 21.569 20.410,21.569 20.383,21.506 20.182 C 21.421 19.913,21.135 19.476,20.770 19.057 L 20.488 18.734 20.686 18.417 C 21.520 17.082,22.037 15.949,22.399 14.663 C 22.646 13.787,22.686 13.496,22.709 12.399 C 22.746 10.676,22.646 9.993,22.141 8.494 C 21.775 7.409,21.488 6.830,20.889 5.965 C 20.369 5.214,19.629 4.417,19.292 4.246 C 19.097 4.147,18.678 4.129,18.370 4.207 C 18.033 4.291,17.692 4.744,17.650 5.160 C 17.627 5.389,17.726 5.583,18.406 6.640 C 19.595 8.491,19.973 9.303,20.150 10.380 C 20.200 10.687,20.216 11.073,20.217 12.040 C 20.220 13.464,20.187 13.756,19.930 14.536 C 19.752 15.077,18.811 16.960,18.720 16.958 C 18.709 16.958,18.325 16.594,17.867 16.149 L 17.035 15.340 17.242 14.880 C 17.501 14.305,17.729 13.626,17.845 13.080 C 17.974 12.473,17.974 11.437,17.846 10.842 C 17.709 10.212,17.283 9.221,16.897 8.637 C 16.574 8.149,16.047 7.672,15.705 7.561 C 15.522 7.501,15.041 7.537,14.876 7.622 C 14.641 7.743,14.196 8.389,14.202 8.600 C 14.204 8.701,14.362 9.029,14.807 9.862 C 15.043 10.301,15.284 10.804,15.344 10.980 C 15.443 11.270,15.453 11.353,15.452 11.860 C 15.451 12.581,15.341 13.360,15.241 13.360 C 15.188 13.360,14.530 12.724,10.500 8.781 C 3.916 2.338,4.229 2.633,3.934 2.588 C 3.594 2.536,3.293 2.525,3.176 2.561 M1.988 8.719 C 1.657 9.076,1.423 9.743,1.314 10.640 C 1.233 11.306,1.244 12.926,1.333 13.460 C 1.715 15.746,2.899 18.172,4.231 19.400 C 4.582 19.724,4.790 19.836,5.091 19.868 C 5.760 19.937,6.288 19.469,6.294 18.803 C 6.297 18.463,6.257 18.382,5.565 17.323 C 4.910 16.323,4.740 16.038,4.459 15.477 C 3.866 14.296,3.673 13.130,3.758 11.252 C 3.780 10.772,3.809 10.110,3.823 9.780 L 3.848 9.180 3.728 8.995 C 3.486 8.622,3.171 8.480,2.583 8.480 L 2.209 8.480 1.988 8.719 M7.300 13.423 C 6.960 13.599,6.743 13.987,6.741 14.422 C 6.740 14.668,6.759 14.742,6.888 15.002 C 7.130 15.489,7.947 16.346,8.296 16.478 C 8.503 16.557,8.771 16.528,9.032 16.398 C 9.310 16.259,9.610 15.953,9.682 15.735 C 9.750 15.527,9.714 15.134,9.604 14.908 C 9.422 14.532,8.749 13.737,8.398 13.483 C 8.235 13.365,8.212 13.360,7.824 13.360 C 7.537 13.360,7.385 13.378,7.300 13.423 " fill="#373B4D" stroke="none" fill-rule="evenodd"></path></svg>