<svg width="24" height="24" viewBox="0 0 24 24" fill="none" xmlns="http://www.w3.org/2000/svg"><path d="M3.051 2.580 C 2.805 2.705,2.664 2.860,2.529 3.153 C 2.448 3.329,2.434 3.413,2.447 3.638 C 2.468 4.021,2.572 4.161,3.746 5.386 C 6.047 7.786,19.196 20.870,19.836 21.395 C 20.009 21.537,20.020 21.540,20.356 21.539 C 20.870 21.538,21.194 21.368,21.421 20.980 C 21.540 20.777,21.584 20.405,21.523 20.117 C 21.472 19.877,21.409 19.786,20.848 19.142 L 20.477 18.715 20.691 18.408 C 21.926 16.634,22.663 14.568,22.758 12.607 C 22.832 11.090,22.660 9.913,22.145 8.416 C 21.738 7.232,21.293 6.417,20.477 5.360 C 20.114 4.888,19.509 4.279,19.314 4.188 C 19.077 4.078,18.600 4.054,18.372 4.141 C 17.796 4.361,17.479 5.052,17.703 5.599 C 17.743 5.697,18.025 6.110,18.330 6.516 C 18.981 7.384,19.249 7.806,19.566 8.460 C 20.098 9.561,20.320 10.611,20.320 12.020 C 20.320 13.663,20.064 14.641,19.232 16.180 C 18.925 16.747,18.782 16.960,18.708 16.960 C 18.681 16.960,18.295 16.595,17.850 16.150 L 17.040 15.339 17.296 14.778 C 17.851 13.561,17.937 13.181,17.938 11.940 C 17.939 10.928,17.898 10.697,17.575 9.880 C 17.174 8.867,16.597 8.037,16.016 7.637 C 15.856 7.527,15.789 7.508,15.506 7.491 C 15.071 7.464,14.878 7.521,14.636 7.748 C 14.290 8.071,14.121 8.574,14.253 8.889 C 14.287 8.971,14.485 9.305,14.693 9.631 C 15.137 10.328,15.329 10.696,15.419 11.023 C 15.506 11.336,15.542 12.213,15.486 12.628 C 15.447 12.918,15.320 13.374,15.261 13.433 C 15.231 13.462,15.089 13.323,9.840 8.137 C 4.942 3.299,4.406 2.778,4.152 2.610 C 4.013 2.518,3.940 2.501,3.625 2.489 C 3.294 2.476,3.241 2.484,3.051 2.580 M2.413 8.400 C 1.926 8.501,1.656 8.907,1.418 9.898 C 1.261 10.549,1.195 12.053,1.280 13.040 C 1.420 14.665,2.100 16.575,3.027 17.954 C 3.679 18.922,4.342 19.642,4.759 19.835 C 5.181 20.030,5.722 19.921,6.039 19.576 C 6.267 19.329,6.333 19.158,6.337 18.800 C 6.341 18.410,6.296 18.322,5.640 17.446 C 4.518 15.949,4.050 14.960,3.772 13.500 C 3.675 12.993,3.655 11.266,3.738 10.660 C 3.887 9.577,3.897 9.398,3.826 9.154 C 3.677 8.644,2.995 8.280,2.413 8.400 M7.332 13.363 C 6.787 13.633,6.541 14.360,6.805 14.920 C 6.945 15.218,7.350 15.755,7.681 16.081 C 8.005 16.400,8.298 16.560,8.561 16.560 C 9.103 16.560,9.643 16.120,9.764 15.579 C 9.804 15.398,9.801 15.334,9.744 15.153 C 9.575 14.624,8.570 13.417,8.220 13.323 C 7.946 13.250,7.522 13.269,7.332 13.363 " fill="#373B4D" stroke="none" fill-rule="evenodd"></path></svg>