<svg width="24" height="24" viewBox="0 0 24 24" fill="none" xmlns="http://www.w3.org/2000/svg"><path d="M2.959 2.691 C 2.622 2.950,2.458 3.290,2.489 3.665 C 2.518 4.022,2.749 4.305,4.345 5.940 C 6.338 7.981,18.579 20.191,19.224 20.782 C 19.872 21.374,20.028 21.484,20.256 21.510 C 20.511 21.538,20.940 21.399,21.149 21.221 C 21.435 20.975,21.610 20.499,21.519 20.213 C 21.445 19.978,21.135 19.499,20.798 19.098 L 20.494 18.736 20.844 18.156 C 21.891 16.416,22.567 14.584,22.679 13.184 C 22.733 12.511,22.731 11.328,22.677 10.777 C 22.543 9.439,21.951 7.677,21.234 6.490 C 20.754 5.695,19.873 4.650,19.417 4.336 L 19.190 4.180 18.785 4.181 C 18.485 4.181,18.348 4.199,18.258 4.248 C 17.929 4.426,17.607 4.978,17.656 5.280 C 17.687 5.475,17.843 5.759,18.383 6.607 C 19.477 8.323,19.870 9.116,20.092 10.057 C 20.173 10.396,20.178 10.525,20.179 12.000 C 20.180 13.161,20.166 13.644,20.127 13.820 C 20.046 14.191,19.896 14.641,19.717 15.048 C 19.534 15.464,18.868 16.779,18.779 16.896 C 18.726 16.967,18.676 16.927,17.971 16.250 C 17.558 15.853,17.180 15.485,17.130 15.432 L 17.041 15.336 17.222 14.925 C 17.808 13.593,18.026 12.500,17.922 11.417 C 17.856 10.731,17.644 10.047,17.255 9.268 C 16.911 8.580,16.361 7.925,15.900 7.657 C 15.724 7.555,15.664 7.541,15.396 7.545 C 14.955 7.552,14.832 7.605,14.592 7.893 C 14.385 8.142,14.201 8.480,14.200 8.613 C 14.200 8.652,14.441 9.156,14.736 9.733 C 15.423 11.074,15.440 11.124,15.440 11.830 C 15.440 12.580,15.339 13.360,15.243 13.360 C 15.195 13.360,14.488 12.676,9.720 8.019 C 5.149 3.553,4.425 2.856,4.194 2.696 C 4.056 2.600,3.996 2.588,3.590 2.570 L 3.140 2.551 2.959 2.691 M2.027 8.680 C 1.558 9.202,1.315 10.082,1.260 11.460 C 1.226 12.318,1.290 13.300,1.419 13.902 C 1.782 15.588,2.535 17.299,3.452 18.520 C 3.819 19.008,4.402 19.588,4.671 19.733 C 5.419 20.134,6.279 19.635,6.279 18.800 C 6.279 18.457,6.223 18.342,5.513 17.240 C 4.811 16.150,4.642 15.861,4.398 15.341 C 3.794 14.049,3.682 13.089,3.806 10.253 L 3.854 9.165 3.688 8.946 C 3.443 8.621,3.204 8.516,2.648 8.490 L 2.217 8.469 2.027 8.680 M7.340 13.420 C 6.862 13.587,6.597 14.364,6.835 14.898 C 7.015 15.303,7.681 16.072,8.103 16.362 C 8.443 16.596,8.826 16.562,9.234 16.261 C 10.005 15.692,9.867 14.963,8.780 13.853 C 8.560 13.629,8.329 13.426,8.267 13.403 C 8.108 13.342,7.530 13.353,7.340 13.420 " fill="#373B4D" stroke="none" fill-rule="evenodd"></path></svg>