<svg width="24" height="24" viewBox="0 0 24 24" fill="none" xmlns="http://www.w3.org/2000/svg"><path d="M3.040 2.627 C 2.533 2.888,2.314 3.516,2.561 4.000 C 2.600 4.077,2.748 4.275,2.889 4.440 C 3.419 5.058,6.316 7.988,11.743 13.396 C 17.675 19.306,19.476 21.074,19.858 21.362 C 20.081 21.530,20.108 21.540,20.337 21.535 C 20.910 21.523,21.367 21.198,21.499 20.709 C 21.638 20.194,21.498 19.887,20.713 18.995 L 20.480 18.729 20.820 18.195 C 21.657 16.881,22.282 15.390,22.582 13.989 C 22.768 13.125,22.788 11.102,22.621 10.240 C 22.378 8.993,21.906 7.643,21.413 6.781 C 20.824 5.754,19.947 4.665,19.431 4.321 L 19.191 4.160 18.773 4.160 C 18.286 4.160,18.209 4.190,17.953 4.475 C 17.659 4.801,17.568 5.217,17.718 5.548 C 17.760 5.640,18.099 6.174,18.472 6.733 C 19.466 8.224,19.930 9.187,20.123 10.160 C 20.244 10.766,20.303 12.074,20.246 12.872 C 20.169 13.966,20.000 14.574,19.486 15.605 C 19.180 16.221,18.762 16.960,18.721 16.960 C 18.710 16.960,18.325 16.595,17.867 16.150 L 17.035 15.340 17.275 14.814 C 17.406 14.525,17.568 14.128,17.634 13.931 C 18.042 12.712,18.059 11.320,17.679 10.200 C 17.560 9.850,17.124 8.961,16.912 8.640 C 16.657 8.252,16.149 7.740,15.896 7.616 C 15.705 7.523,15.646 7.513,15.325 7.526 C 15.003 7.539,14.949 7.552,14.793 7.661 C 14.593 7.800,14.301 8.212,14.239 8.442 C 14.182 8.655,14.230 8.813,14.492 9.280 C 14.609 9.489,14.800 9.831,14.918 10.040 C 15.220 10.578,15.393 11.003,15.446 11.334 C 15.526 11.845,15.427 13.095,15.287 13.346 C 15.237 13.435,15.364 13.556,10.600 8.883 C 4.379 2.779,4.298 2.701,4.096 2.616 C 4.027 2.587,3.811 2.552,3.616 2.538 C 3.279 2.515,3.249 2.519,3.040 2.627 M2.178 8.512 C 1.780 8.763,1.447 9.553,1.323 10.540 C 1.298 10.738,1.267 11.305,1.254 11.800 C 1.227 12.821,1.274 13.309,1.486 14.240 C 1.953 16.291,3.043 18.320,4.287 19.456 C 4.666 19.801,4.838 19.880,5.210 19.879 C 5.961 19.877,6.434 19.281,6.279 18.533 C 6.242 18.359,6.155 18.196,5.889 17.805 C 5.054 16.578,4.805 16.197,4.646 15.902 C 4.245 15.159,3.946 14.319,3.822 13.590 C 3.716 12.971,3.700 11.738,3.780 10.474 C 3.820 9.850,3.840 9.273,3.825 9.193 C 3.789 9.000,3.507 8.688,3.255 8.561 C 2.983 8.425,2.362 8.396,2.178 8.512 M7.460 13.357 C 7.273 13.402,7.181 13.464,7.010 13.658 C 6.711 13.998,6.644 14.507,6.840 14.949 C 6.963 15.228,7.280 15.630,7.680 16.016 C 8.112 16.432,8.390 16.583,8.653 16.543 C 9.048 16.484,9.489 16.168,9.661 15.820 C 9.776 15.587,9.765 15.241,9.634 14.960 C 9.407 14.472,8.572 13.508,8.266 13.380 C 8.117 13.318,7.676 13.305,7.460 13.357 " fill="#373B4D" stroke="none" fill-rule="evenodd"></path></svg>