<svg width="24" height="24" viewBox="0 0 24 24" fill="none" xmlns="http://www.w3.org/2000/svg"><path d="M4.766 4.185 C 4.432 4.357,3.459 5.406,3.034 6.052 C 2.232 7.274,1.644 8.811,1.356 10.440 C 1.235 11.121,1.224 12.912,1.336 13.540 C 1.547 14.718,2.076 16.294,2.552 17.160 C 3.117 18.187,4.250 19.548,4.735 19.781 C 5.161 19.986,5.624 19.927,5.950 19.627 C 6.216 19.381,6.327 19.122,6.327 18.744 C 6.327 18.516,6.268 18.407,5.542 17.284 C 4.525 15.712,4.211 15.113,4.018 14.380 C 3.652 12.986,3.643 11.065,3.998 9.661 C 4.196 8.877,4.504 8.293,5.604 6.617 C 5.952 6.088,6.255 5.605,6.278 5.545 C 6.394 5.241,6.283 4.737,6.051 4.511 C 5.727 4.196,5.070 4.029,4.766 4.185 M18.324 4.189 C 18.142 4.278,17.832 4.593,17.737 4.785 C 17.686 4.887,17.660 5.022,17.661 5.180 C 17.663 5.496,17.762 5.689,18.434 6.693 C 19.337 8.040,19.651 8.647,20.087 9.892 L 20.280 10.444 20.280 11.977 L 20.280 13.510 20.097 14.045 C 19.653 15.343,19.326 15.985,18.450 17.278 C 17.843 18.174,17.716 18.428,17.689 18.801 C 17.666 19.129,17.751 19.341,18.013 19.604 C 18.236 19.827,18.376 19.880,18.749 19.879 C 19.189 19.878,19.335 19.800,19.822 19.308 C 20.787 18.331,21.435 17.330,21.954 16.013 C 22.553 14.490,22.677 13.872,22.709 12.239 C 22.734 10.930,22.692 10.406,22.502 9.668 C 21.825 7.038,20.193 4.486,18.988 4.173 C 18.714 4.102,18.489 4.107,18.324 4.189 M14.891 7.596 C 14.668 7.737,14.432 8.011,14.310 8.271 L 14.191 8.522 14.259 8.731 C 14.295 8.846,14.520 9.309,14.758 9.760 C 15.264 10.720,15.381 11.001,15.443 11.403 C 15.509 11.826,15.470 12.593,15.365 12.920 C 15.320 13.063,15.085 13.569,14.843 14.045 C 14.312 15.092,14.229 15.315,14.283 15.555 C 14.342 15.816,14.468 16.034,14.681 16.240 C 14.913 16.466,15.139 16.543,15.464 16.505 C 15.824 16.462,15.954 16.383,16.380 15.946 C 16.978 15.332,17.271 14.860,17.607 13.967 C 17.858 13.301,17.882 13.140,17.906 11.960 L 17.928 10.900 17.781 10.480 C 17.433 9.482,16.866 8.505,16.351 8.015 C 15.969 7.652,15.782 7.563,15.354 7.535 C 15.064 7.517,15.003 7.525,14.891 7.596 M7.980 7.705 C 7.203 8.282,6.629 9.225,6.199 10.631 L 6.073 11.042 6.089 12.071 L 6.104 13.100 6.235 13.493 C 6.704 14.902,7.448 16.049,8.126 16.406 C 8.371 16.535,8.787 16.536,9.048 16.407 C 9.447 16.211,9.740 15.791,9.740 15.414 C 9.740 15.197,9.656 15.013,8.902 13.578 C 8.643 13.083,8.627 13.036,8.597 12.698 C 8.580 12.501,8.564 12.033,8.563 11.658 L 8.560 10.977 9.066 10.078 C 9.614 9.106,9.720 8.862,9.720 8.576 C 9.720 7.947,9.323 7.604,8.560 7.572 L 8.180 7.556 7.980 7.705 M11.720 10.915 C 11.434 11.009,11.071 11.312,10.930 11.574 C 10.754 11.904,10.925 12.537,11.272 12.843 C 11.448 12.997,11.851 13.160,12.057 13.160 C 12.411 13.160,12.925 12.759,13.053 12.383 C 13.146 12.109,13.139 11.785,13.037 11.573 C 12.940 11.372,12.667 11.120,12.418 10.999 C 12.226 10.906,11.876 10.864,11.720 10.915 " fill="#373B4D" stroke="none" fill-rule="evenodd"></path></svg>