<svg width="24" height="24" viewBox="0 0 24 24" fill="none" xmlns="http://www.w3.org/2000/svg"><path d="M4.764 4.199 C 4.379 4.379,3.297 5.599,2.837 6.372 C 2.099 7.612,1.504 9.316,1.313 10.730 C 1.240 11.274,1.254 13.069,1.335 13.517 C 1.575 14.851,2.148 16.489,2.691 17.394 C 3.194 18.232,4.144 19.380,4.586 19.684 C 4.832 19.853,5.200 19.940,5.430 19.882 C 6.010 19.736,6.353 19.283,6.312 18.718 C 6.293 18.458,6.304 18.477,5.278 16.861 C 4.215 15.187,3.942 14.492,3.797 13.089 C 3.727 12.410,3.769 10.862,3.873 10.280 C 4.087 9.090,4.293 8.650,5.546 6.711 C 5.883 6.190,6.195 5.695,6.239 5.612 C 6.403 5.307,6.291 4.718,6.028 4.495 C 5.829 4.327,5.445 4.167,5.180 4.141 C 4.988 4.122,4.905 4.134,4.764 4.199 M18.340 4.192 C 18.252 4.233,18.078 4.377,17.954 4.512 C 17.688 4.799,17.611 5.033,17.681 5.345 C 17.740 5.608,17.828 5.765,18.439 6.700 C 19.307 8.029,19.635 8.655,20.045 9.760 L 20.260 10.340 20.271 11.922 L 20.283 13.504 20.119 13.979 C 19.720 15.137,19.380 15.843,18.777 16.773 C 18.580 17.075,18.289 17.524,18.129 17.771 C 17.586 18.610,17.544 19.077,17.970 19.543 C 18.221 19.818,18.416 19.894,18.808 19.873 C 18.983 19.863,19.164 19.826,19.260 19.780 C 19.575 19.629,20.484 18.633,20.973 17.904 C 21.781 16.700,22.490 14.841,22.647 13.520 C 22.676 13.274,22.698 12.588,22.698 11.860 C 22.700 10.811,22.688 10.558,22.625 10.220 C 22.370 8.860,21.657 7.141,20.832 5.894 C 20.343 5.154,19.724 4.521,19.280 4.305 C 18.899 4.120,18.575 4.081,18.340 4.192 M14.940 7.574 C 14.769 7.652,14.427 8.030,14.300 8.280 C 14.158 8.561,14.161 8.572,14.779 9.800 C 15.412 11.059,15.459 11.208,15.457 11.940 C 15.456 12.248,15.432 12.608,15.404 12.740 C 15.373 12.887,15.162 13.377,14.861 14.000 C 14.590 14.561,14.346 15.090,14.319 15.176 C 14.209 15.525,14.350 15.910,14.712 16.249 C 14.940 16.462,15.164 16.540,15.450 16.506 C 15.786 16.467,15.985 16.345,16.378 15.943 C 16.962 15.344,17.310 14.778,17.635 13.894 C 17.842 13.332,17.883 13.032,17.909 11.920 L 17.932 10.900 17.782 10.480 C 17.312 9.161,16.506 7.970,15.880 7.670 C 15.607 7.539,15.124 7.490,14.940 7.574 M7.879 7.790 C 7.189 8.345,6.697 9.146,6.283 10.387 L 6.080 10.995 6.080 12.014 L 6.080 13.034 6.264 13.567 C 6.484 14.201,6.833 14.938,7.124 15.380 C 7.397 15.795,7.892 16.294,8.145 16.409 C 8.783 16.699,9.554 16.280,9.717 15.555 C 9.772 15.310,9.684 15.080,9.115 13.974 L 8.635 13.043 8.598 12.572 C 8.578 12.312,8.561 11.849,8.561 11.543 L 8.560 10.987 8.998 10.203 C 9.712 8.926,9.785 8.718,9.679 8.278 C 9.576 7.847,9.206 7.622,8.521 7.574 L 8.178 7.549 7.879 7.790 M11.725 10.927 C 11.650 10.948,11.542 10.994,11.485 11.030 C 11.319 11.132,11.000 11.449,10.931 11.580 C 10.790 11.847,10.905 12.418,11.161 12.728 C 11.305 12.903,11.704 13.110,11.966 13.145 C 12.115 13.165,12.195 13.150,12.374 13.068 C 12.629 12.951,12.909 12.688,13.014 12.467 C 13.114 12.257,13.142 11.922,13.079 11.697 C 12.944 11.216,12.202 10.794,11.725 10.927 " fill="#373B4D" stroke="none" fill-rule="evenodd"></path></svg>