<svg width="24" height="24" viewBox="0 0 24 24" fill="none" xmlns="http://www.w3.org/2000/svg"><path d="M4.770 4.163 C 4.581 4.258,3.860 4.959,3.515 5.383 C 2.820 6.237,2.155 7.509,1.767 8.722 C 1.353 10.020,1.176 11.344,1.245 12.640 C 1.324 14.123,1.925 16.100,2.700 17.425 C 3.145 18.184,4.061 19.311,4.527 19.670 C 5.015 20.046,5.750 19.973,6.089 19.514 C 6.294 19.237,6.399 18.784,6.318 18.529 C 6.292 18.447,5.911 17.840,5.471 17.180 C 4.420 15.604,4.101 14.937,3.884 13.860 C 3.671 12.805,3.671 11.154,3.884 10.100 C 4.114 8.961,4.498 8.202,5.777 6.360 C 6.014 6.019,6.234 5.677,6.267 5.600 C 6.360 5.384,6.349 5.017,6.242 4.770 C 6.119 4.489,5.905 4.303,5.593 4.207 C 5.164 4.076,4.965 4.065,4.770 4.163 M18.340 4.173 C 18.090 4.292,17.796 4.604,17.702 4.850 C 17.606 5.101,17.633 5.406,17.775 5.685 C 17.835 5.803,18.099 6.206,18.360 6.580 C 19.294 7.916,19.655 8.598,20.045 9.760 L 20.279 10.460 20.280 11.990 L 20.280 13.519 20.057 14.186 C 19.679 15.319,19.285 16.095,18.579 17.100 C 17.772 18.248,17.680 18.429,17.680 18.857 C 17.681 19.181,17.748 19.352,17.957 19.561 C 18.246 19.849,18.361 19.898,18.760 19.896 C 19.205 19.894,19.334 19.826,19.818 19.339 C 20.912 18.238,21.685 16.927,22.276 15.171 C 22.633 14.110,22.719 13.461,22.720 11.819 C 22.720 10.685,22.686 10.327,22.520 9.699 C 22.007 7.758,21.122 6.024,20.071 4.899 C 19.595 4.389,19.220 4.165,18.740 4.104 C 18.577 4.083,18.503 4.096,18.340 4.173 M15.028 7.527 C 14.727 7.610,14.297 8.111,14.222 8.465 C 14.182 8.654,14.301 8.940,14.761 9.763 C 15.245 10.631,15.378 10.915,15.433 11.205 C 15.554 11.840,15.514 12.660,15.340 13.088 C 15.284 13.227,15.042 13.700,14.803 14.140 C 14.312 15.043,14.223 15.265,14.258 15.500 C 14.318 15.903,14.697 16.385,15.025 16.476 C 15.242 16.537,15.510 16.530,15.749 16.460 C 15.920 16.409,16.017 16.334,16.359 15.991 C 16.992 15.356,17.353 14.750,17.679 13.772 C 17.901 13.106,17.930 12.863,17.912 11.766 L 17.897 10.820 17.732 10.336 C 17.278 9.006,16.428 7.816,15.765 7.582 C 15.543 7.503,15.205 7.478,15.028 7.527 M8.137 7.593 C 7.909 7.700,7.482 8.111,7.177 8.517 C 6.743 9.094,6.433 9.771,6.177 10.704 C 6.074 11.080,6.068 11.144,6.070 11.980 C 6.071 12.651,6.086 12.927,6.136 13.140 C 6.460 14.525,7.383 16.045,8.123 16.414 C 8.709 16.706,9.485 16.363,9.692 15.721 C 9.824 15.314,9.785 15.194,9.168 14.091 C 8.518 12.929,8.560 13.078,8.560 11.951 L 8.560 10.992 8.787 10.566 C 8.912 10.332,9.130 9.944,9.272 9.705 C 9.660 9.048,9.735 8.864,9.737 8.560 C 9.739 8.345,9.718 8.263,9.621 8.086 C 9.427 7.734,9.136 7.578,8.606 7.539 C 8.355 7.520,8.270 7.530,8.137 7.593 M11.718 10.893 C 11.520 10.966,11.242 11.164,11.070 11.354 C 10.868 11.578,10.814 11.780,10.869 12.104 C 10.957 12.618,11.205 12.923,11.666 13.086 C 12.079 13.231,12.462 13.140,12.781 12.821 C 13.089 12.513,13.213 12.082,13.102 11.701 C 12.949 11.173,12.178 10.723,11.718 10.893 " fill="#373B4D" stroke="none" fill-rule="evenodd"></path></svg>