<svg width="24" height="24" viewBox="0 0 24 24" fill="none" xmlns="http://www.w3.org/2000/svg"><path d="M3.049 2.602 C 2.673 2.794,2.406 3.264,2.457 3.646 C 2.519 4.114,2.470 4.058,5.436 7.090 C 7.341 9.038,17.899 19.539,19.250 20.829 C 19.601 21.165,19.914 21.429,20.025 21.482 C 20.197 21.566,20.233 21.569,20.493 21.529 C 21.074 21.439,21.419 21.145,21.523 20.650 C 21.621 20.184,21.490 19.893,20.851 19.151 L 20.481 18.721 20.736 18.331 C 21.764 16.756,22.440 15.054,22.686 13.419 C 22.753 12.979,22.753 11.207,22.687 10.680 C 22.543 9.524,22.077 8.040,21.533 7.000 C 20.947 5.878,19.856 4.522,19.302 4.227 C 19.167 4.155,19.073 4.141,18.740 4.140 C 18.348 4.140,18.336 4.143,18.149 4.278 C 17.910 4.450,17.738 4.705,17.677 4.979 C 17.597 5.335,17.649 5.510,17.975 5.992 C 18.135 6.228,18.475 6.729,18.731 7.107 C 19.265 7.897,19.730 8.796,19.942 9.451 C 20.171 10.159,20.246 10.688,20.270 11.746 C 20.309 13.532,20.143 14.325,19.437 15.720 C 19.143 16.302,18.762 16.960,18.720 16.960 C 18.706 16.960,18.320 16.596,17.863 16.150 L 17.032 15.340 17.236 14.907 C 17.679 13.963,17.847 13.383,17.923 12.540 C 18.002 11.663,17.932 10.952,17.698 10.246 C 17.554 9.812,17.156 9.004,16.893 8.608 C 16.614 8.188,16.160 7.725,15.909 7.604 C 15.642 7.475,15.133 7.468,14.897 7.590 C 14.603 7.742,14.284 8.182,14.221 8.522 C 14.185 8.720,14.269 8.922,14.660 9.581 C 15.134 10.379,15.389 10.923,15.439 11.240 C 15.531 11.830,15.465 12.908,15.314 13.273 L 15.260 13.407 15.100 13.281 C 15.012 13.211,13.482 11.720,11.700 9.967 C 4.716 3.096,4.353 2.744,4.100 2.609 C 4.022 2.567,3.848 2.539,3.600 2.530 C 3.271 2.517,3.197 2.527,3.049 2.602 M2.327 8.438 C 1.886 8.547,1.479 9.357,1.341 10.400 C 1.251 11.084,1.216 12.506,1.277 13.040 C 1.552 15.467,2.712 17.965,4.227 19.399 C 4.660 19.810,4.840 19.900,5.220 19.895 C 5.547 19.891,5.734 19.819,5.964 19.612 C 6.224 19.377,6.298 19.197,6.299 18.800 C 6.300 18.378,6.286 18.348,5.602 17.383 C 4.980 16.506,4.693 16.039,4.419 15.460 C 4.078 14.740,3.877 14.071,3.778 13.321 C 3.713 12.838,3.704 11.174,3.762 10.640 C 3.783 10.453,3.810 10.048,3.824 9.740 C 3.847 9.200,3.844 9.173,3.751 9.000 C 3.642 8.798,3.310 8.541,3.082 8.483 C 2.856 8.425,2.472 8.402,2.327 8.438 M7.329 13.386 C 6.763 13.666,6.556 14.426,6.881 15.035 C 7.183 15.603,7.972 16.392,8.367 16.522 C 8.688 16.628,9.234 16.401,9.516 16.044 C 9.794 15.694,9.827 15.357,9.626 14.939 C 9.354 14.376,8.484 13.403,8.202 13.346 C 7.953 13.297,7.466 13.319,7.329 13.386 " fill="#373B4D" stroke="none" fill-rule="evenodd"></path></svg>