<svg width="24" height="24" viewBox="0 0 24 24" fill="none" xmlns="http://www.w3.org/2000/svg"><path d="M4.673 4.240 C 4.397 4.422,3.533 5.334,3.232 5.761 C 2.272 7.118,1.614 8.794,1.332 10.600 C 1.277 10.954,1.260 11.295,1.261 12.080 C 1.261 12.969,1.273 13.166,1.353 13.614 C 1.591 14.936,2.123 16.442,2.696 17.415 C 3.131 18.153,4.104 19.355,4.506 19.650 C 5.319 20.247,6.337 19.739,6.336 18.736 C 6.336 18.506,6.316 18.470,5.459 17.160 C 4.620 15.879,4.277 15.242,4.067 14.576 C 3.628 13.184,3.616 10.902,4.040 9.479 C 4.257 8.751,4.617 8.089,5.561 6.680 C 5.907 6.163,6.222 5.678,6.260 5.603 C 6.371 5.383,6.328 4.900,6.176 4.653 C 5.980 4.336,5.529 4.122,5.057 4.120 C 4.898 4.120,4.815 4.146,4.673 4.240 M18.223 4.247 C 17.981 4.407,17.735 4.715,17.677 4.932 C 17.570 5.327,17.689 5.614,18.367 6.592 C 19.305 7.946,19.668 8.645,20.105 9.938 L 20.280 10.457 20.280 11.980 L 20.280 13.503 20.086 14.081 C 19.642 15.401,19.330 16.007,18.396 17.360 C 17.825 18.187,17.712 18.415,17.688 18.787 C 17.672 19.044,17.682 19.104,17.778 19.299 C 17.890 19.528,18.132 19.761,18.341 19.841 C 18.407 19.866,18.600 19.886,18.771 19.886 C 19.208 19.886,19.336 19.813,19.886 19.249 C 20.983 18.125,21.675 16.939,22.262 15.180 C 22.630 14.078,22.719 13.432,22.720 11.848 C 22.720 10.766,22.678 10.314,22.519 9.703 C 22.053 7.911,21.177 6.156,20.192 5.040 C 19.633 4.407,19.150 4.120,18.642 4.120 C 18.453 4.120,18.381 4.142,18.223 4.247 M8.219 7.561 C 8.030 7.618,7.582 8.013,7.297 8.372 C 6.805 8.993,6.485 9.644,6.217 10.573 L 6.080 11.046 6.080 11.979 C 6.080 12.847,6.087 12.938,6.181 13.301 C 6.299 13.754,6.571 14.439,6.798 14.852 C 7.189 15.563,7.742 16.217,8.110 16.401 C 8.530 16.611,9.038 16.519,9.400 16.165 C 9.592 15.977,9.760 15.629,9.760 15.418 C 9.760 15.227,9.602 14.870,9.169 14.088 C 8.543 12.958,8.586 13.110,8.568 11.971 L 8.553 11.001 8.742 10.651 C 8.847 10.458,9.075 10.053,9.249 9.751 C 9.641 9.074,9.729 8.853,9.729 8.538 C 9.730 8.110,9.448 7.740,9.032 7.624 C 8.749 7.546,8.368 7.516,8.219 7.561 M14.834 7.634 C 14.615 7.775,14.347 8.113,14.260 8.360 C 14.205 8.516,14.205 8.556,14.259 8.737 C 14.292 8.849,14.446 9.174,14.600 9.460 C 15.436 11.010,15.479 11.132,15.479 11.980 C 15.479 12.773,15.445 12.880,14.814 14.115 C 14.308 15.104,14.263 15.209,14.263 15.406 C 14.264 15.821,14.676 16.382,15.056 16.485 C 15.271 16.543,15.677 16.504,15.868 16.406 C 16.057 16.310,16.681 15.669,16.925 15.320 C 17.191 14.940,17.330 14.676,17.533 14.158 C 17.873 13.294,17.889 13.198,17.909 11.980 L 17.926 10.900 17.760 10.420 C 17.314 9.131,16.569 8.014,15.918 7.662 C 15.736 7.564,15.643 7.541,15.360 7.529 C 15.038 7.515,15.010 7.520,14.834 7.634 M11.562 10.971 C 11.282 11.111,10.936 11.472,10.879 11.682 C 10.772 12.076,10.998 12.683,11.336 12.910 C 11.589 13.080,11.921 13.176,12.146 13.145 C 12.681 13.072,13.138 12.532,13.132 11.979 C 13.130 11.686,13.038 11.489,12.793 11.252 C 12.426 10.897,11.933 10.784,11.562 10.971 " fill="#373B4D" stroke="none" fill-rule="evenodd"></path></svg>