<svg width="24" height="24" viewBox="0 0 24 24" fill="none" xmlns="http://www.w3.org/2000/svg"><path d="M3.197 2.558 C 2.716 2.704,2.379 3.271,2.484 3.760 C 2.542 4.031,2.745 4.296,3.547 5.150 C 4.381 6.038,16.483 18.135,18.236 19.833 C 20.064 21.604,20.039 21.586,20.511 21.512 C 21.086 21.421,21.446 21.077,21.538 20.530 C 21.598 20.175,21.383 19.763,20.767 19.055 L 20.484 18.729 20.696 18.395 C 21.591 16.984,22.140 15.743,22.495 14.328 C 22.689 13.558,22.733 13.001,22.709 11.655 C 22.691 10.654,22.678 10.491,22.586 10.060 C 22.361 9.013,21.916 7.721,21.532 7.000 C 20.967 5.940,19.978 4.690,19.401 4.306 C 19.186 4.163,19.172 4.160,18.801 4.161 C 18.343 4.162,18.164 4.229,17.948 4.481 C 17.789 4.667,17.640 5.013,17.640 5.196 C 17.640 5.413,17.758 5.641,18.311 6.488 C 19.550 8.388,19.966 9.251,20.137 10.280 C 20.236 10.876,20.285 12.092,20.239 12.810 C 20.169 13.918,20.014 14.507,19.533 15.489 C 19.216 16.137,18.762 16.961,18.723 16.959 C 18.711 16.958,18.325 16.594,17.867 16.149 L 17.034 15.340 17.261 14.840 C 17.986 13.240,18.142 11.807,17.741 10.420 C 17.622 10.008,17.129 8.967,16.875 8.593 C 16.615 8.208,16.121 7.735,15.855 7.612 C 15.649 7.518,15.598 7.511,15.287 7.533 C 15.015 7.552,14.919 7.577,14.809 7.655 C 14.620 7.789,14.334 8.181,14.257 8.411 C 14.199 8.585,14.199 8.618,14.256 8.786 C 14.290 8.887,14.470 9.242,14.654 9.575 C 15.309 10.754,15.418 11.023,15.461 11.560 C 15.508 12.145,15.372 13.310,15.252 13.349 C 15.188 13.371,14.952 13.144,10.620 8.899 C 5.419 3.803,4.530 2.939,4.300 2.761 C 4.129 2.629,4.055 2.600,3.787 2.563 C 3.434 2.514,3.344 2.514,3.197 2.558 M2.289 8.466 C 2.164 8.493,1.915 8.740,1.784 8.968 C 1.639 9.217,1.458 9.759,1.381 10.169 C 1.307 10.562,1.242 11.507,1.241 12.192 C 1.238 13.658,1.637 15.225,2.419 16.820 C 3.067 18.141,3.998 19.351,4.672 19.748 C 5.032 19.960,5.623 19.899,5.954 19.616 C 6.287 19.331,6.402 18.767,6.212 18.351 C 6.164 18.247,5.815 17.698,5.436 17.131 C 4.232 15.331,3.852 14.352,3.755 12.802 C 3.714 12.144,3.719 11.854,3.806 10.113 L 3.851 9.206 3.746 9.027 C 3.530 8.658,3.212 8.484,2.710 8.461 C 2.528 8.452,2.339 8.455,2.289 8.466 M7.467 13.356 C 7.038 13.446,6.675 14.034,6.735 14.541 C 6.785 14.963,7.028 15.353,7.597 15.923 C 8.068 16.394,8.298 16.538,8.578 16.536 C 9.035 16.533,9.628 16.062,9.718 15.631 C 9.768 15.388,9.700 15.049,9.551 14.802 C 9.300 14.385,8.760 13.751,8.456 13.517 C 8.264 13.369,8.230 13.357,7.935 13.341 C 7.762 13.332,7.551 13.338,7.467 13.356 " fill="#373B4D" stroke="none" fill-rule="evenodd"></path></svg>