<svg width="24" height="24" viewBox="0 0 24 24" fill="none" xmlns="http://www.w3.org/2000/svg"><path d="M10.289 2.625 C 9.884 2.688,9.108 2.900,8.687 3.064 C 7.846 3.390,6.714 4.042,6.040 4.589 C 5.622 4.928,4.580 5.998,4.311 6.365 C 3.488 7.486,2.931 8.746,2.599 10.240 C 2.430 11.002,2.402 12.647,2.544 13.480 C 2.754 14.707,3.342 16.217,3.993 17.200 C 4.677 18.233,5.842 19.378,6.866 20.023 C 7.315 20.306,8.462 20.870,8.970 21.057 C 9.925 21.410,10.747 21.536,12.080 21.534 C 12.901 21.533,13.134 21.519,13.520 21.448 C 15.715 21.046,17.863 19.828,19.258 18.196 C 20.031 17.291,20.567 16.333,21.060 14.972 C 21.389 14.066,21.440 13.808,21.485 12.820 C 21.527 11.881,21.505 10.799,21.433 10.340 C 21.294 9.444,20.679 7.897,20.099 6.980 C 19.148 5.480,17.896 4.341,16.320 3.543 C 15.235 2.994,14.306 2.706,13.286 2.602 C 12.677 2.540,10.743 2.555,10.289 2.625 M14.364 8.586 L 14.980 8.613 15.250 8.873 L 15.520 9.133 15.520 12.002 L 15.520 14.871 15.253 15.120 C 15.107 15.257,14.927 15.394,14.855 15.425 C 14.782 15.455,14.475 15.498,14.172 15.520 C 13.544 15.565,11.120 15.573,9.949 15.534 L 9.164 15.507 8.961 15.329 C 8.849 15.231,8.717 15.077,8.669 14.986 L 8.580 14.820 8.569 12.008 L 8.557 9.196 8.666 8.997 C 8.839 8.679,8.964 8.624,9.580 8.598 C 10.364 8.564,13.662 8.556,14.364 8.586 " fill="#373B4D" stroke="none" fill-rule="evenodd"></path></svg>