<svg width="24" height="24" viewBox="0 0 24 24" fill="none" xmlns="http://www.w3.org/2000/svg"><path d="M10.800 2.602 C 9.953 2.652,9.188 2.852,8.279 3.261 C 6.771 3.938,5.535 4.887,4.488 6.170 C 3.517 7.359,2.767 9.091,2.533 10.680 C 2.428 11.395,2.439 12.868,2.554 13.500 C 2.856 15.155,3.599 16.799,4.565 17.948 C 4.922 18.373,5.698 19.144,6.080 19.452 C 6.934 20.141,8.561 20.975,9.600 21.255 C 10.436 21.481,10.632 21.500,12.100 21.497 L 13.460 21.494 14.014 21.346 C 15.888 20.845,17.402 20.015,18.653 18.802 C 19.696 17.790,20.318 16.838,20.913 15.340 C 21.339 14.268,21.411 13.950,21.483 12.820 C 21.537 11.953,21.512 10.911,21.423 10.380 C 21.183 8.955,20.388 7.240,19.397 6.013 C 18.128 4.440,15.991 3.130,14.061 2.740 C 13.262 2.578,12.060 2.527,10.800 2.602 M15.249 8.869 L 15.520 9.138 15.520 12.006 L 15.520 14.873 15.270 15.102 C 14.870 15.467,14.816 15.482,13.745 15.528 C 13.236 15.550,12.007 15.560,11.013 15.551 L 9.205 15.534 8.988 15.348 C 8.632 15.044,8.629 15.033,8.595 13.720 C 8.579 13.093,8.565 11.815,8.564 10.880 L 8.562 9.180 8.680 8.991 C 8.831 8.750,8.948 8.676,9.231 8.640 C 9.357 8.624,10.702 8.608,12.219 8.605 L 14.978 8.600 15.249 8.869 " fill="#373B4D" stroke="none" fill-rule="evenodd"></path></svg>