<svg width="24" height="24" viewBox="0 0 24 24" fill="none" xmlns="http://www.w3.org/2000/svg"><path d="M10.760 2.522 C 10.374 2.561,9.778 2.692,9.213 2.863 C 7.699 3.321,6.431 4.086,5.278 5.239 C 4.146 6.370,3.447 7.473,2.937 8.932 C 2.589 9.928,2.429 10.874,2.427 11.940 C 2.425 12.966,2.541 13.773,2.827 14.720 C 3.603 17.286,5.348 19.360,7.722 20.537 C 8.525 20.935,9.507 21.288,10.181 21.420 C 10.954 21.572,12.804 21.593,13.592 21.458 C 14.060 21.378,14.717 21.191,15.300 20.971 C 17.069 20.304,18.595 19.166,19.682 17.700 C 20.542 16.540,21.320 14.686,21.487 13.400 C 21.553 12.883,21.554 11.041,21.487 10.580 C 21.355 9.662,20.930 8.407,20.452 7.520 C 19.135 5.077,16.774 3.289,14.060 2.676 C 13.604 2.573,13.417 2.554,12.540 2.521 C 11.413 2.478,11.186 2.478,10.760 2.522 M14.633 8.522 C 14.999 8.568,15.121 8.639,15.343 8.938 L 15.520 9.175 15.520 12.002 L 15.520 14.828 15.377 15.016 C 15.299 15.118,15.146 15.272,15.039 15.357 C 14.845 15.511,14.839 15.512,14.392 15.539 C 14.143 15.554,12.878 15.560,11.580 15.553 C 9.233 15.540,9.219 15.540,9.080 15.453 C 9.003 15.404,8.873 15.296,8.792 15.213 C 8.525 14.937,8.516 14.887,8.479 13.462 C 8.438 11.839,8.486 9.220,8.560 9.079 C 8.679 8.851,8.847 8.687,9.049 8.599 C 9.239 8.516,9.348 8.504,10.160 8.477 C 11.250 8.441,14.226 8.471,14.633 8.522 " fill="#373B4D" stroke="none" fill-rule="evenodd"></path></svg>