<svg width="24" height="24" viewBox="0 0 24 24" fill="none" xmlns="http://www.w3.org/2000/svg"><path d="M10.960 2.483 C 10.529 2.522,9.753 2.687,9.175 2.863 C 7.694 3.311,6.417 4.074,5.312 5.171 C 3.805 6.665,2.893 8.403,2.543 10.445 C 2.150 12.732,2.671 15.225,3.947 17.178 C 5.248 19.167,7.063 20.510,9.409 21.217 C 10.384 21.511,10.564 21.534,11.920 21.537 C 13.206 21.540,13.437 21.520,14.160 21.339 C 16.336 20.794,18.255 19.563,19.560 17.875 C 20.466 16.703,21.204 15.049,21.468 13.600 C 21.571 13.039,21.571 10.898,21.468 10.380 C 20.876 7.391,19.104 4.964,16.480 3.550 C 15.484 3.013,14.237 2.625,13.173 2.522 C 12.619 2.469,11.364 2.446,10.960 2.483 M14.473 8.480 C 14.970 8.525,15.093 8.588,15.345 8.930 L 15.520 9.169 15.520 11.998 L 15.520 14.827 15.363 15.046 C 15.205 15.267,14.999 15.435,14.780 15.524 C 14.691 15.560,13.979 15.573,11.980 15.575 C 8.932 15.578,9.183 15.605,8.785 15.223 C 8.643 15.087,8.552 14.960,8.522 14.857 C 8.458 14.639,8.425 11.799,8.469 10.314 L 8.504 9.128 8.616 8.965 C 8.843 8.639,9.080 8.511,9.520 8.478 C 10.064 8.437,14.019 8.439,14.473 8.480 " fill="#373B4D" stroke="none" fill-rule="evenodd"></path></svg>