<svg width="24" height="24" viewBox="0 0 24 24" fill="none" xmlns="http://www.w3.org/2000/svg"><path d="M10.380 2.584 C 9.146 2.805,7.814 3.332,6.818 3.994 C 5.607 4.798,4.441 6.012,3.731 7.210 C 3.095 8.282,2.595 9.799,2.477 11.017 C 2.416 11.644,2.450 13.022,2.538 13.500 C 2.834 15.098,3.464 16.562,4.384 17.783 C 4.692 18.193,5.413 18.941,5.860 19.314 C 6.955 20.230,8.796 21.132,10.113 21.398 C 10.966 21.570,12.647 21.601,13.520 21.460 C 14.869 21.242,16.569 20.504,17.751 19.625 C 18.512 19.058,19.458 18.066,19.930 17.340 C 20.536 16.406,21.175 14.903,21.408 13.860 C 21.477 13.553,21.492 13.309,21.509 12.193 C 21.531 10.702,21.515 10.522,21.278 9.660 C 20.383 6.398,18.040 3.934,14.858 2.907 C 14.259 2.714,13.727 2.612,13.060 2.562 C 12.253 2.502,10.772 2.514,10.380 2.584 M14.970 8.615 C 15.052 8.656,15.210 8.793,15.320 8.920 L 15.520 9.151 15.520 11.991 L 15.520 14.831 15.360 15.026 C 15.168 15.258,14.962 15.419,14.765 15.489 C 14.653 15.528,14.031 15.540,12.000 15.540 C 10.559 15.540,9.310 15.525,9.225 15.507 C 9.120 15.485,9.010 15.414,8.880 15.283 C 8.531 14.935,8.551 15.061,8.506 12.924 C 8.464 10.877,8.503 9.225,8.598 9.040 C 8.712 8.820,8.938 8.639,9.200 8.556 C 9.255 8.539,10.542 8.528,12.060 8.533 C 14.664 8.540,14.828 8.544,14.970 8.615 " fill="#373B4D" stroke="none" fill-rule="evenodd"></path></svg>