<svg width="24" height="24" viewBox="0 0 24 24" fill="none" xmlns="http://www.w3.org/2000/svg"><path d="M10.840 2.841 C 9.024 2.944,7.160 3.888,6.141 5.220 C 5.112 6.566,4.842 8.798,5.514 10.399 C 5.841 11.176,6.765 12.125,7.685 12.628 C 8.077 12.843,8.727 13.128,10.202 13.731 C 11.588 14.298,11.927 14.459,12.242 14.701 C 12.630 15.000,12.792 15.339,12.744 15.753 C 12.667 16.404,12.270 16.714,11.400 16.803 C 9.998 16.945,8.465 16.609,6.189 15.661 C 5.776 15.489,5.428 15.359,5.414 15.373 C 5.350 15.437,5.324 16.190,5.322 18.066 L 5.320 20.112 5.650 20.231 C 7.207 20.792,8.569 21.123,9.660 21.206 C 10.393 21.262,12.065 21.226,12.545 21.144 C 14.957 20.731,16.782 19.532,17.466 17.913 C 17.628 17.527,17.861 16.781,17.918 16.460 C 17.982 16.101,17.973 15.029,17.902 14.587 C 17.735 13.551,17.304 12.702,16.588 12.002 C 15.798 11.231,15.067 10.847,12.620 9.920 C 11.511 9.501,10.842 9.167,10.578 8.903 C 10.333 8.659,10.297 8.540,10.333 8.109 C 10.360 7.783,10.460 7.626,10.772 7.414 C 10.931 7.306,11.008 7.283,11.302 7.259 C 11.680 7.227,12.868 7.262,13.507 7.323 C 14.132 7.383,15.181 7.689,16.428 8.176 C 16.631 8.255,16.841 8.320,16.894 8.320 L 16.991 8.320 17.021 7.370 C 17.038 6.848,17.039 5.817,17.024 5.080 C 16.999 3.811,16.993 3.736,16.918 3.673 C 16.753 3.534,15.724 3.233,14.680 3.019 C 14.015 2.882,13.922 2.873,12.820 2.840 C 11.544 2.801,11.555 2.801,10.840 2.841 " fill="#373B4D" stroke="none" fill-rule="evenodd"></path></svg>