<svg width="24" height="24" viewBox="0 0 24 24" fill="none" xmlns="http://www.w3.org/2000/svg"><path d="M10.940 2.801 C 9.637 2.885,8.316 3.344,7.280 4.074 C 6.914 4.332,6.252 5.006,6.022 5.355 C 5.637 5.939,5.367 6.617,5.214 7.381 C 5.116 7.877,5.115 8.961,5.214 9.454 C 5.372 10.247,5.670 10.863,6.171 11.428 C 6.914 12.268,7.649 12.723,9.320 13.377 C 11.852 14.368,12.045 14.458,12.410 14.813 C 12.689 15.083,12.776 15.280,12.776 15.640 C 12.776 16.269,12.447 16.630,11.735 16.780 C 11.366 16.858,10.351 16.857,9.805 16.778 C 8.635 16.609,7.291 16.181,5.940 15.548 C 5.454 15.321,5.376 15.295,5.353 15.353 C 5.338 15.390,5.324 16.476,5.323 17.766 L 5.320 20.112 5.810 20.292 C 7.915 21.065,9.658 21.351,11.600 21.242 C 13.980 21.109,15.963 20.186,17.017 18.720 C 17.738 17.718,18.104 16.257,17.963 14.940 C 17.825 13.649,17.393 12.735,16.538 11.925 C 15.735 11.165,14.910 10.747,12.460 9.859 C 10.719 9.228,10.279 8.899,10.281 8.232 C 10.282 7.804,10.490 7.502,10.918 7.304 C 11.089 7.225,11.164 7.220,12.120 7.223 C 12.893 7.225,13.236 7.242,13.537 7.294 C 14.431 7.448,15.488 7.772,16.454 8.188 C 16.866 8.365,16.977 8.398,17.004 8.355 C 17.043 8.293,17.054 3.958,17.015 3.766 C 16.991 3.645,16.974 3.636,16.385 3.444 C 14.619 2.868,12.949 2.671,10.940 2.801 " fill="#373B4D" stroke="none" fill-rule="evenodd"></path></svg>