<svg width="24" height="24" viewBox="0 0 24 24" fill="none" xmlns="http://www.w3.org/2000/svg"><path d="M11.500 2.555 C 11.296 2.647,10.902 3.071,10.838 3.267 C 10.782 3.437,10.812 4.857,10.878 5.136 C 10.929 5.354,11.113 5.591,11.372 5.775 C 11.570 5.915,11.625 5.934,11.887 5.950 C 12.305 5.977,12.473 5.919,12.765 5.649 C 12.901 5.523,13.036 5.364,13.064 5.296 C 13.148 5.096,13.213 4.307,13.190 3.775 C 13.173 3.379,13.151 3.247,13.081 3.101 C 12.974 2.881,12.716 2.661,12.442 2.557 C 12.174 2.455,11.721 2.454,11.500 2.555 M5.670 4.977 C 5.422 5.066,5.153 5.302,5.031 5.540 C 4.927 5.741,4.892 6.175,4.959 6.417 C 5.047 6.729,6.070 7.791,6.440 7.954 C 6.530 7.994,6.708 8.016,6.940 8.018 C 7.237 8.020,7.329 8.005,7.464 7.932 C 7.882 7.708,8.136 7.164,8.039 6.698 C 7.979 6.408,7.820 6.185,7.297 5.659 C 6.766 5.126,6.596 5.016,6.218 4.962 C 5.870 4.911,5.853 4.912,5.670 4.977 M17.365 5.061 C 16.975 5.284,16.229 6.073,16.033 6.470 C 15.922 6.693,15.912 6.744,15.936 6.947 C 16.029 7.738,16.604 8.161,17.371 8.002 C 17.656 7.943,17.862 7.788,18.473 7.173 C 19.011 6.631,19.078 6.508,19.079 6.063 C 19.080 5.669,18.996 5.476,18.714 5.222 C 18.474 5.006,18.328 4.960,17.880 4.961 C 17.591 4.961,17.514 4.976,17.365 5.061 M11.176 7.322 C 10.148 7.422,8.884 8.216,8.116 9.245 C 7.774 9.704,7.441 10.491,7.303 11.168 C 7.170 11.821,7.246 12.828,7.481 13.520 C 7.880 14.698,8.792 15.706,9.998 16.303 C 10.650 16.625,11.215 16.759,11.921 16.760 C 13.201 16.761,14.167 16.398,15.116 15.561 C 16.281 14.533,16.833 13.238,16.745 11.740 C 16.669 10.442,16.202 9.459,15.215 8.520 C 14.723 8.051,14.154 7.717,13.443 7.479 C 12.897 7.296,12.051 7.237,11.176 7.322 M3.336 10.914 C 3.132 10.936,3.062 10.965,2.901 11.097 C 2.503 11.423,2.374 11.801,2.497 12.280 C 2.585 12.625,2.771 12.872,3.048 13.014 C 3.344 13.165,4.015 13.229,4.692 13.169 C 5.232 13.122,5.495 13.008,5.690 12.740 C 6.054 12.240,6.041 11.672,5.655 11.243 C 5.353 10.907,5.339 10.903,4.400 10.895 C 3.949 10.891,3.470 10.900,3.336 10.914 M18.936 10.914 C 18.732 10.936,18.662 10.965,18.501 11.097 C 18.103 11.423,17.974 11.801,18.097 12.280 C 18.185 12.625,18.371 12.872,18.648 13.014 C 18.944 13.165,19.615 13.229,20.292 13.169 C 20.832 13.122,21.095 13.008,21.290 12.740 C 21.654 12.240,21.641 11.672,21.255 11.243 C 20.953 10.907,20.939 10.903,20.000 10.895 C 19.549 10.891,19.070 10.900,18.936 10.914 M6.380 16.065 C 6.108 16.204,5.164 17.165,5.023 17.448 C 4.908 17.680,4.890 17.936,4.965 18.286 C 5.001 18.455,5.049 18.534,5.217 18.703 C 5.531 19.016,5.636 19.060,6.060 19.058 C 6.548 19.056,6.657 18.993,7.303 18.345 C 7.930 17.715,8.047 17.517,8.047 17.090 C 8.047 16.763,7.982 16.589,7.774 16.358 C 7.427 15.974,6.814 15.845,6.380 16.065 M16.690 15.996 C 16.527 16.038,16.250 16.263,16.106 16.472 C 15.900 16.769,15.890 17.371,16.087 17.667 C 16.205 17.844,16.972 18.629,17.246 18.852 C 17.383 18.964,17.495 19.015,17.668 19.047 C 18.382 19.180,18.932 18.817,19.081 18.116 C 19.143 17.821,19.098 17.592,18.928 17.341 C 18.753 17.083,17.864 16.226,17.651 16.110 C 17.436 15.993,16.936 15.934,16.690 15.996 M11.544 18.136 C 11.345 18.211,11.023 18.527,10.911 18.759 C 10.829 18.927,10.823 18.997,10.825 19.760 C 10.826 20.272,10.844 20.643,10.874 20.748 C 10.936 20.964,11.265 21.326,11.507 21.444 C 11.726 21.549,12.166 21.568,12.420 21.482 C 12.668 21.397,13.028 21.030,13.100 20.786 C 13.182 20.511,13.186 18.979,13.105 18.789 C 13.024 18.598,12.734 18.289,12.546 18.193 C 12.331 18.083,11.771 18.052,11.544 18.136 " fill="#373B4D" stroke="none" fill-rule="evenodd"></path></svg>