<svg width="24" height="24" viewBox="0 0 24 24" fill="none" xmlns="http://www.w3.org/2000/svg"><path d="M11.720 2.517 C 11.448 2.572,11.228 2.729,10.980 3.044 L 10.800 3.273 10.801 3.727 C 10.803 4.449,10.864 5.133,10.940 5.280 C 11.046 5.485,11.346 5.758,11.587 5.868 C 11.999 6.057,12.458 5.946,12.837 5.566 C 13.054 5.348,13.106 5.201,13.160 4.653 C 13.270 3.522,13.154 3.032,12.705 2.731 C 12.432 2.547,12.016 2.457,11.720 2.517 M5.625 5.018 C 5.386 5.135,5.141 5.366,5.030 5.580 C 4.909 5.812,4.910 6.274,5.031 6.522 C 5.133 6.733,5.851 7.507,6.166 7.747 C 6.435 7.952,6.612 8.009,6.979 8.009 C 7.337 8.009,7.501 7.937,7.733 7.679 C 8.100 7.271,8.136 6.730,7.827 6.281 C 7.653 6.028,6.877 5.265,6.670 5.144 C 6.505 5.047,6.066 4.920,5.900 4.922 C 5.856 4.922,5.732 4.965,5.625 5.018 M17.306 5.119 C 17.056 5.279,16.411 5.934,16.170 6.272 C 15.998 6.513,15.980 6.559,15.967 6.805 C 15.939 7.294,16.142 7.669,16.557 7.894 C 16.953 8.110,17.408 8.057,17.833 7.745 C 18.093 7.554,18.894 6.727,18.981 6.559 C 19.068 6.393,19.082 5.896,19.007 5.676 C 18.939 5.478,18.797 5.296,18.594 5.147 C 18.428 5.024,18.407 5.020,17.961 5.007 C 17.504 4.994,17.498 4.995,17.306 5.119 M11.080 7.359 C 10.166 7.454,8.873 8.267,8.199 9.170 C 7.782 9.729,7.393 10.642,7.276 11.338 C 7.218 11.684,7.250 12.510,7.337 12.920 C 7.548 13.905,7.913 14.564,8.656 15.301 C 9.588 16.226,10.538 16.674,11.720 16.747 C 13.289 16.844,14.811 16.108,15.822 14.764 C 16.743 13.540,16.992 12.012,16.513 10.520 C 16.087 9.194,14.827 7.948,13.461 7.502 C 13.000 7.351,11.826 7.281,11.080 7.359 M3.373 10.956 C 3.156 10.978,3.048 11.012,2.926 11.096 C 2.636 11.297,2.459 11.651,2.464 12.020 C 2.469 12.512,2.790 12.932,3.273 13.081 C 3.771 13.236,4.641 13.226,5.192 13.060 C 5.569 12.946,5.832 12.625,5.917 12.178 C 5.968 11.907,5.907 11.655,5.722 11.368 C 5.473 10.983,5.437 10.971,4.480 10.947 C 4.029 10.936,3.531 10.940,3.373 10.956 M18.973 10.956 C 18.756 10.978,18.648 11.012,18.526 11.096 C 18.236 11.297,18.059 11.651,18.064 12.020 C 18.069 12.512,18.390 12.932,18.873 13.081 C 19.371 13.236,20.241 13.226,20.792 13.060 C 21.169 12.946,21.432 12.625,21.517 12.178 C 21.568 11.907,21.507 11.655,21.322 11.368 C 21.073 10.983,21.037 10.971,20.080 10.947 C 19.629 10.936,19.131 10.940,18.973 10.956 M6.640 15.997 C 6.563 16.013,6.437 16.058,6.360 16.098 C 6.161 16.202,5.196 17.181,5.056 17.420 C 4.953 17.597,4.940 17.657,4.942 17.940 C 4.944 18.185,4.964 18.298,5.028 18.421 C 5.152 18.657,5.478 18.946,5.684 19.001 C 5.920 19.065,6.383 19.034,6.580 18.942 C 6.815 18.832,7.802 17.830,7.921 17.581 C 8.122 17.160,8.059 16.709,7.754 16.378 C 7.497 16.099,6.989 15.926,6.640 15.997 M16.760 15.995 C 16.426 16.104,16.085 16.437,16.000 16.739 C 15.925 17.009,15.967 17.396,16.096 17.617 C 16.234 17.852,17.190 18.807,17.425 18.945 C 17.581 19.037,17.654 19.052,17.936 19.054 C 18.222 19.056,18.289 19.042,18.446 18.950 C 18.919 18.673,19.181 18.132,19.062 17.675 C 18.948 17.233,17.899 16.201,17.424 16.063 C 17.140 15.980,16.886 15.954,16.760 15.995 M11.500 18.173 C 11.297 18.268,10.933 18.685,10.879 18.884 C 10.847 19.003,10.837 19.323,10.848 19.880 C 10.865 20.767,10.884 20.848,11.135 21.147 C 11.395 21.455,12.027 21.612,12.414 21.464 C 12.648 21.375,13.056 20.952,13.116 20.738 C 13.141 20.646,13.160 20.219,13.160 19.719 C 13.160 18.986,13.150 18.843,13.094 18.759 C 12.982 18.590,12.666 18.277,12.543 18.212 C 12.377 18.125,11.661 18.098,11.500 18.173 " fill="#373B4D" stroke="none" fill-rule="evenodd"></path></svg>