<svg width="24" height="24" viewBox="0 0 24 24" fill="none" xmlns="http://www.w3.org/2000/svg"><path d="M11.615 2.535 C 11.386 2.610,11.191 2.767,10.974 3.055 L 10.789 3.300 10.816 4.142 C 10.830 4.605,10.860 5.049,10.882 5.130 C 10.976 5.470,11.445 5.892,11.787 5.943 C 12.170 6.001,12.465 5.909,12.776 5.635 C 13.067 5.379,13.124 5.213,13.172 4.478 C 13.244 3.402,13.157 3.060,12.728 2.733 C 12.453 2.523,11.934 2.431,11.615 2.535 M5.616 5.016 C 5.375 5.128,5.155 5.336,5.031 5.571 C 4.960 5.705,4.941 5.806,4.941 6.060 C 4.941 6.502,5.015 6.624,5.696 7.305 C 6.189 7.799,6.288 7.879,6.480 7.944 C 6.779 8.044,7.210 8.043,7.418 7.941 C 7.951 7.679,8.195 6.967,7.932 6.439 C 7.787 6.149,6.900 5.250,6.618 5.108 C 6.439 5.018,6.052 4.919,5.883 4.920 C 5.848 4.921,5.728 4.964,5.616 5.016 M17.560 4.995 C 17.317 5.074,17.153 5.198,16.740 5.616 C 16.252 6.110,16.011 6.433,15.960 6.660 C 15.920 6.837,15.976 7.238,16.065 7.410 C 16.249 7.765,16.671 8.040,17.034 8.040 C 17.278 8.040,17.605 7.924,17.824 7.759 C 18.135 7.526,18.901 6.740,18.983 6.570 C 19.096 6.335,19.087 5.796,18.966 5.550 C 18.871 5.356,18.618 5.115,18.437 5.047 C 18.295 4.993,17.679 4.957,17.560 4.995 M10.866 7.383 C 10.177 7.536,9.512 7.902,8.803 8.517 C 8.192 9.048,7.768 9.708,7.466 10.600 C 7.294 11.109,7.241 11.419,7.241 11.920 C 7.240 13.156,7.663 14.277,8.443 15.105 C 9.540 16.272,10.739 16.805,12.140 16.748 C 13.434 16.696,14.383 16.272,15.351 15.313 C 16.593 14.082,17.023 12.484,16.581 10.742 C 16.199 9.235,14.811 7.856,13.251 7.433 C 12.832 7.319,11.298 7.287,10.866 7.383 M3.220 10.956 C 2.879 11.044,2.606 11.330,2.493 11.717 C 2.345 12.227,2.633 12.819,3.140 13.044 C 3.639 13.265,4.910 13.233,5.384 12.988 C 5.846 12.749,6.081 12.017,5.843 11.560 C 5.709 11.302,5.531 11.088,5.386 11.009 C 5.279 10.951,5.118 10.940,4.300 10.933 C 3.772 10.928,3.286 10.939,3.220 10.956 M18.820 10.956 C 18.479 11.044,18.206 11.330,18.093 11.717 C 17.945 12.227,18.233 12.819,18.740 13.044 C 19.239 13.265,20.510 13.233,20.984 12.988 C 21.446 12.749,21.681 12.017,21.443 11.560 C 21.309 11.302,21.131 11.088,20.986 11.009 C 20.879 10.951,20.718 10.940,19.900 10.933 C 19.372 10.928,18.886 10.939,18.820 10.956 M6.540 16.007 C 6.331 16.085,6.112 16.261,5.690 16.686 C 5.019 17.363,4.892 17.587,4.933 18.023 C 4.963 18.349,5.036 18.516,5.235 18.715 C 5.492 18.972,5.672 19.045,6.049 19.044 C 6.500 19.043,6.681 18.947,7.208 18.427 C 7.896 17.750,8.039 17.512,8.040 17.050 C 8.040 16.498,7.527 16.012,6.906 15.976 C 6.771 15.968,6.606 15.982,6.540 16.007 M16.747 16.004 C 16.393 16.087,16.030 16.475,15.977 16.826 C 15.939 17.081,15.974 17.395,16.061 17.578 C 16.164 17.793,17.212 18.846,17.440 18.964 C 17.583 19.038,17.685 19.057,17.940 19.057 C 18.220 19.058,18.287 19.043,18.473 18.941 C 18.917 18.697,19.178 18.155,19.077 17.685 C 19.044 17.531,18.974 17.421,18.725 17.136 C 18.315 16.666,17.866 16.254,17.635 16.138 C 17.486 16.062,17.012 15.947,16.920 15.964 C 16.909 15.966,16.831 15.984,16.747 16.004 M11.446 18.200 C 11.228 18.336,10.937 18.667,10.886 18.834 C 10.814 19.077,10.825 20.494,10.901 20.752 C 10.989 21.048,11.309 21.370,11.600 21.456 C 11.846 21.529,12.192 21.539,12.410 21.478 C 12.593 21.427,12.955 21.085,13.075 20.850 C 13.154 20.694,13.160 20.623,13.160 19.768 L 13.160 18.853 13.005 18.637 C 12.919 18.517,12.762 18.357,12.655 18.280 C 12.464 18.143,12.451 18.140,12.020 18.128 C 11.630 18.117,11.565 18.125,11.446 18.200 " fill="#373B4D" stroke="none" fill-rule="evenodd"></path></svg>