<svg width="24" height="24" viewBox="0 0 24 24" fill="none" xmlns="http://www.w3.org/2000/svg"><path d="M11.529 2.610 C 11.457 2.637,11.263 2.783,11.099 2.933 L 10.800 3.205 10.800 3.773 C 10.801 4.369,10.853 4.972,10.924 5.189 C 10.976 5.349,11.398 5.742,11.631 5.847 C 11.842 5.943,12.041 5.953,12.300 5.881 C 12.454 5.838,12.556 5.769,12.744 5.583 C 13.046 5.282,13.114 5.095,13.159 4.450 C 13.200 3.866,13.160 3.427,13.043 3.187 C 12.942 2.977,12.694 2.739,12.490 2.653 C 12.296 2.572,11.696 2.545,11.529 2.610 M5.798 4.976 C 5.227 5.174,4.884 5.718,4.992 6.256 C 5.055 6.570,5.189 6.759,5.715 7.280 C 6.303 7.862,6.485 7.967,6.916 7.968 C 7.314 7.970,7.480 7.914,7.656 7.720 C 7.863 7.490,7.968 7.256,7.991 6.973 C 8.018 6.628,7.902 6.403,7.440 5.911 C 6.747 5.172,6.174 4.846,5.798 4.976 M17.218 5.229 C 16.834 5.550,16.158 6.276,16.077 6.455 C 15.984 6.659,15.977 7.038,16.061 7.285 C 16.144 7.528,16.311 7.721,16.554 7.853 C 17.129 8.166,17.653 7.956,18.504 7.071 C 18.811 6.752,18.925 6.604,18.974 6.458 C 19.114 6.047,19.026 5.600,18.751 5.332 C 18.529 5.114,18.460 5.092,17.914 5.058 L 17.456 5.030 17.218 5.229 M11.282 7.363 C 10.380 7.473,9.509 7.908,8.764 8.619 C 8.165 9.191,7.784 9.786,7.507 10.584 C 7.140 11.641,7.168 12.628,7.596 13.696 C 8.006 14.721,8.941 15.722,9.980 16.249 C 10.658 16.593,11.217 16.719,12.066 16.720 C 12.775 16.720,13.350 16.570,14.095 16.189 C 15.271 15.589,16.131 14.567,16.534 13.292 C 16.699 12.770,16.733 12.483,16.709 11.842 C 16.659 10.564,16.277 9.713,15.322 8.758 C 14.457 7.894,13.716 7.519,12.640 7.404 C 12.018 7.337,11.598 7.324,11.282 7.363 M3.460 10.997 C 3.306 11.012,3.112 11.058,3.030 11.097 C 2.557 11.324,2.356 12.026,2.622 12.519 C 2.837 12.918,3.185 13.096,3.866 13.158 C 4.503 13.216,5.167 13.102,5.470 12.883 C 5.916 12.560,6.027 11.847,5.708 11.364 C 5.564 11.147,5.468 11.092,5.160 11.045 C 4.799 10.991,3.797 10.962,3.460 10.997 M19.060 10.997 C 18.906 11.012,18.712 11.058,18.630 11.097 C 18.157 11.324,17.956 12.026,18.222 12.519 C 18.437 12.918,18.785 13.096,19.466 13.158 C 20.103 13.216,20.767 13.102,21.070 12.883 C 21.516 12.560,21.627 11.847,21.308 11.364 C 21.164 11.147,21.068 11.092,20.760 11.045 C 20.399 10.991,19.397 10.962,19.060 10.997 M6.448 16.082 C 6.197 16.183,5.175 17.238,5.036 17.540 C 4.821 18.004,5.076 18.650,5.575 18.911 C 5.739 18.996,5.836 19.018,6.060 19.018 C 6.446 19.020,6.660 18.895,7.208 18.351 C 8.023 17.542,8.179 17.121,7.862 16.580 C 7.701 16.305,7.416 16.135,7.027 16.082 C 6.659 16.032,6.572 16.032,6.448 16.082 M16.518 16.151 C 16.289 16.298,16.105 16.519,16.046 16.717 C 15.975 16.952,15.991 17.316,16.079 17.511 C 16.176 17.723,17.266 18.845,17.471 18.942 C 17.645 19.025,18.150 19.037,18.369 18.964 C 18.642 18.873,19.022 18.353,19.067 18.009 C 19.113 17.661,18.752 17.116,18.117 16.574 C 17.668 16.191,17.410 16.068,17.020 16.049 C 16.721 16.035,16.688 16.041,16.518 16.151 M11.256 18.406 C 10.824 18.857,10.840 18.818,10.841 19.415 C 10.843 20.176,10.900 20.724,10.997 20.914 C 11.209 21.330,11.865 21.600,12.334 21.463 C 12.511 21.412,12.593 21.356,12.776 21.158 C 13.122 20.784,13.120 20.789,13.148 19.860 C 13.177 18.880,13.157 18.795,12.815 18.482 C 12.561 18.250,12.450 18.213,11.900 18.178 L 11.500 18.153 11.256 18.406 " fill="#373B4D" stroke="none" fill-rule="evenodd"></path></svg>