<svg width="24" height="24" viewBox="0 0 24 24" fill="none" xmlns="http://www.w3.org/2000/svg"><path d="M11.456 2.633 C 11.388 2.676,11.212 2.824,11.066 2.960 L 10.800 3.209 10.800 3.760 C 10.800 4.417,10.863 5.091,10.938 5.237 C 11.017 5.389,11.398 5.737,11.603 5.843 C 11.961 6.030,12.410 5.938,12.748 5.608 C 13.078 5.286,13.174 4.939,13.176 4.060 C 13.177 3.573,13.165 3.471,13.087 3.275 C 12.984 3.016,12.788 2.796,12.548 2.673 C 12.300 2.546,11.633 2.521,11.456 2.633 M5.640 5.041 C 5.367 5.193,5.223 5.329,5.086 5.560 C 4.942 5.804,4.934 6.248,5.069 6.520 C 5.261 6.905,6.060 7.704,6.440 7.889 C 6.583 7.959,6.690 7.977,6.960 7.976 C 7.361 7.975,7.478 7.926,7.712 7.659 C 7.905 7.440,8.000 7.185,8.000 6.886 C 8.000 6.583,7.905 6.407,7.511 5.983 C 6.870 5.291,6.456 5.003,6.006 4.939 C 5.892 4.922,5.812 4.944,5.640 5.041 M17.340 5.123 C 16.920 5.448,16.171 6.231,16.063 6.459 C 15.963 6.671,15.972 7.101,16.084 7.360 C 16.238 7.719,16.658 8.000,17.041 8.000 C 17.437 8.000,17.857 7.744,18.463 7.134 C 18.954 6.639,19.057 6.436,19.032 6.009 C 19.011 5.662,18.948 5.511,18.736 5.298 C 18.542 5.105,18.456 5.079,17.921 5.053 C 17.482 5.031,17.454 5.035,17.340 5.123 M11.280 7.364 C 10.844 7.414,10.622 7.471,10.240 7.632 C 9.222 8.060,8.314 8.888,7.826 9.832 C 7.321 10.811,7.147 11.735,7.298 12.637 C 7.482 13.740,7.947 14.598,8.802 15.413 C 9.423 16.004,10.032 16.355,10.876 16.608 C 11.213 16.709,12.238 16.752,12.680 16.683 C 13.586 16.542,14.617 16.013,15.310 15.332 C 15.975 14.679,16.512 13.662,16.677 12.743 C 16.746 12.359,16.730 11.573,16.644 11.131 C 16.449 10.131,16.057 9.448,15.215 8.638 C 14.690 8.133,14.312 7.882,13.707 7.640 C 13.320 7.485,12.975 7.418,12.282 7.363 C 11.692 7.316,11.709 7.316,11.280 7.364 M3.360 10.999 C 2.985 11.048,2.755 11.219,2.602 11.566 C 2.334 12.171,2.595 12.803,3.207 13.032 C 3.701 13.216,4.540 13.228,5.111 13.059 C 5.469 12.953,5.734 12.706,5.842 12.380 C 6.002 11.896,5.809 11.292,5.431 11.096 C 5.237 10.995,3.881 10.932,3.360 10.999 M18.960 10.999 C 18.585 11.048,18.355 11.219,18.202 11.566 C 17.934 12.171,18.195 12.803,18.807 13.032 C 19.301 13.216,20.140 13.228,20.711 13.059 C 21.069 12.953,21.334 12.706,21.442 12.380 C 21.602 11.896,21.409 11.292,21.031 11.096 C 20.837 10.995,19.481 10.932,18.960 10.999 M16.760 16.036 C 16.460 16.132,16.173 16.388,16.062 16.660 C 15.965 16.895,15.974 17.320,16.079 17.539 C 16.177 17.740,17.247 18.839,17.450 18.947 C 17.628 19.041,18.248 19.043,18.422 18.951 C 18.606 18.853,18.875 18.541,18.989 18.292 C 19.106 18.035,19.099 17.792,18.964 17.528 C 18.759 17.126,17.963 16.361,17.541 16.161 C 17.285 16.040,16.926 15.982,16.760 16.036 M6.360 16.120 C 6.125 16.265,5.140 17.297,5.045 17.497 C 4.709 18.212,5.339 19.098,6.136 19.032 C 6.484 19.003,6.697 18.870,7.204 18.363 C 7.722 17.847,7.936 17.552,7.998 17.270 C 8.099 16.813,7.828 16.341,7.348 16.141 C 7.267 16.107,7.043 16.069,6.850 16.057 C 6.539 16.037,6.485 16.044,6.360 16.120 M11.286 18.377 C 11.155 18.503,10.998 18.677,10.937 18.764 L 10.828 18.922 10.852 19.751 C 10.880 20.717,10.921 20.908,11.149 21.126 C 11.511 21.474,12.111 21.605,12.483 21.417 C 12.640 21.338,13.066 20.864,13.096 20.734 C 13.138 20.552,13.174 19.192,13.142 18.980 C 13.118 18.819,13.076 18.748,12.887 18.548 C 12.762 18.417,12.605 18.286,12.538 18.257 C 12.470 18.229,12.215 18.193,11.970 18.177 L 11.526 18.149 11.286 18.377 " fill="#373B4D" stroke="none" fill-rule="evenodd"></path></svg>