<svg width="24" height="24" viewBox="0 0 24 24" fill="none" xmlns="http://www.w3.org/2000/svg"><path d="M11.393 2.667 C 11.320 2.726,11.157 2.874,11.030 2.996 L 10.800 3.217 10.800 3.765 C 10.800 4.341,10.859 5.059,10.919 5.218 C 10.973 5.358,11.389 5.748,11.590 5.845 C 11.995 6.041,12.417 5.948,12.782 5.584 C 13.040 5.325,13.112 5.124,13.170 4.491 C 13.254 3.589,13.127 3.085,12.744 2.795 C 12.493 2.606,12.327 2.560,11.888 2.560 C 11.556 2.560,11.515 2.569,11.393 2.667 M5.638 5.038 C 5.039 5.348,4.798 5.953,5.055 6.500 C 5.235 6.883,6.028 7.687,6.440 7.903 C 6.632 8.004,7.245 8.010,7.422 7.913 C 7.935 7.632,8.164 6.933,7.902 6.450 C 7.765 6.200,6.814 5.249,6.580 5.130 C 6.403 5.040,6.021 4.919,5.923 4.922 C 5.888 4.923,5.760 4.975,5.638 5.038 M17.260 5.183 C 17.018 5.360,16.301 6.087,16.143 6.315 C 16.000 6.522,15.955 6.761,16.000 7.079 C 16.103 7.807,16.882 8.213,17.544 7.882 C 17.959 7.674,18.781 6.891,18.967 6.526 C 19.058 6.348,19.066 5.860,18.982 5.659 C 18.897 5.456,18.732 5.254,18.567 5.152 C 18.443 5.076,18.356 5.061,17.942 5.050 L 17.460 5.037 17.260 5.183 M11.236 7.364 C 10.336 7.451,9.400 7.943,8.615 8.742 C 8.089 9.278,7.768 9.809,7.484 10.615 C 6.921 12.212,7.370 13.991,8.665 15.305 C 9.327 15.976,10.129 16.431,11.030 16.645 C 11.549 16.768,12.488 16.757,13.008 16.622 C 14.751 16.169,16.036 14.948,16.561 13.245 C 16.857 12.286,16.763 11.035,16.323 10.096 C 16.092 9.605,15.793 9.194,15.319 8.721 C 14.842 8.243,14.501 8.001,13.910 7.721 C 13.431 7.493,13.114 7.420,12.340 7.362 C 11.726 7.316,11.730 7.316,11.236 7.364 M3.300 10.996 C 2.931 11.042,2.681 11.278,2.537 11.718 C 2.409 12.110,2.535 12.556,2.849 12.822 C 3.193 13.113,3.749 13.229,4.491 13.164 C 5.024 13.118,5.322 13.024,5.541 12.831 C 5.795 12.607,5.898 12.368,5.898 12.000 C 5.899 11.731,5.884 11.673,5.756 11.440 C 5.558 11.081,5.477 11.041,4.850 10.998 C 4.283 10.959,3.605 10.958,3.300 10.996 M18.900 10.996 C 18.531 11.042,18.281 11.278,18.137 11.718 C 18.009 12.110,18.135 12.556,18.449 12.822 C 18.793 13.113,19.349 13.229,20.091 13.164 C 20.624 13.118,20.922 13.024,21.141 12.831 C 21.395 12.607,21.498 12.368,21.498 12.000 C 21.499 11.731,21.484 11.673,21.356 11.440 C 21.158 11.081,21.077 11.041,20.450 10.998 C 19.883 10.959,19.205 10.958,18.900 10.996 M16.660 16.066 C 16.221 16.251,15.978 16.621,15.983 17.100 C 15.985 17.311,16.008 17.425,16.078 17.560 C 16.183 17.764,17.239 18.834,17.447 18.947 C 17.633 19.049,18.245 19.050,18.429 18.949 C 18.624 18.843,18.857 18.581,18.980 18.330 C 19.072 18.141,19.086 18.071,19.068 17.891 C 19.030 17.532,18.909 17.341,18.384 16.819 C 18.007 16.444,17.834 16.303,17.605 16.183 C 17.249 15.999,16.919 15.958,16.660 16.066 M6.320 16.151 C 6.141 16.267,5.436 16.974,5.150 17.324 C 4.762 17.800,4.945 18.584,5.516 18.894 C 5.983 19.148,6.445 19.074,6.909 18.671 C 7.288 18.341,7.763 17.805,7.904 17.546 C 8.117 17.156,8.040 16.681,7.714 16.374 C 7.474 16.149,7.259 16.067,6.860 16.049 C 6.517 16.035,6.491 16.039,6.320 16.151 M11.369 18.285 C 11.275 18.359,11.116 18.528,11.017 18.660 L 10.835 18.900 10.853 19.760 C 10.872 20.649,10.895 20.798,11.049 21.027 C 11.314 21.420,12.074 21.630,12.477 21.421 C 12.657 21.329,12.996 20.979,13.069 20.811 C 13.168 20.584,13.197 18.987,13.105 18.810 C 13.016 18.638,12.667 18.289,12.533 18.237 C 12.471 18.213,12.222 18.184,11.980 18.172 L 11.540 18.151 11.369 18.285 " fill="#373B4D" stroke="none" fill-rule="evenodd"></path></svg>