<svg width="24" height="24" viewBox="0 0 24 24" fill="none" xmlns="http://www.w3.org/2000/svg"><path d="M11.740 2.481 C 11.652 2.494,11.520 2.537,11.446 2.576 C 11.257 2.675,10.982 2.961,10.877 3.166 C 10.791 3.335,10.789 3.366,10.813 4.180 C 10.827 4.642,10.857 5.085,10.880 5.164 C 10.942 5.385,11.135 5.623,11.386 5.790 C 11.592 5.926,11.642 5.941,11.929 5.954 C 12.159 5.965,12.294 5.950,12.424 5.901 C 12.626 5.824,12.955 5.522,13.061 5.318 C 13.152 5.143,13.215 4.304,13.185 3.686 C 13.166 3.296,13.148 3.207,13.062 3.059 C 12.808 2.626,12.286 2.397,11.740 2.481 M5.573 5.014 C 5.297 5.146,5.061 5.397,4.979 5.643 C 4.884 5.929,4.896 6.325,5.006 6.554 C 5.122 6.795,6.112 7.795,6.360 7.922 C 6.603 8.045,7.073 8.075,7.347 7.984 C 7.941 7.787,8.247 6.968,7.941 6.400 C 7.784 6.110,6.848 5.166,6.600 5.048 C 6.487 4.995,6.301 4.954,6.100 4.939 C 5.814 4.918,5.758 4.926,5.573 5.014 M17.598 4.955 C 17.520 4.971,17.367 5.046,17.258 5.120 C 16.987 5.305,16.367 5.934,16.173 6.223 C 15.896 6.633,15.866 6.817,16.003 7.262 C 16.111 7.609,16.397 7.916,16.690 7.997 C 16.988 8.081,17.429 8.037,17.660 7.902 C 17.884 7.771,18.643 7.047,18.883 6.736 C 19.039 6.533,19.054 6.494,19.071 6.222 C 19.103 5.720,19.067 5.593,18.807 5.313 C 18.682 5.178,18.526 5.045,18.460 5.018 C 18.307 4.954,17.784 4.916,17.598 4.955 M11.086 7.323 C 10.316 7.423,9.333 7.952,8.639 8.640 C 8.061 9.213,7.714 9.779,7.463 10.560 C 7.285 11.116,7.225 11.487,7.227 12.020 C 7.232 13.011,7.562 14.015,8.135 14.786 C 8.872 15.779,10.133 16.555,11.281 16.723 C 11.762 16.793,12.735 16.751,13.133 16.642 C 14.027 16.399,14.668 16.024,15.345 15.346 C 16.384 14.306,16.806 13.228,16.748 11.763 C 16.707 10.723,16.409 9.920,15.766 9.111 C 15.244 8.456,14.831 8.110,14.179 7.784 C 13.623 7.507,13.201 7.366,12.787 7.318 C 12.400 7.274,11.445 7.276,11.086 7.323 M3.132 10.939 C 2.952 11.017,2.649 11.307,2.547 11.498 C 2.413 11.751,2.425 12.226,2.573 12.529 C 2.717 12.824,2.936 13.010,3.252 13.105 C 3.592 13.207,4.825 13.209,5.161 13.109 C 5.773 12.926,6.113 12.203,5.878 11.582 C 5.770 11.295,5.474 10.984,5.249 10.922 C 5.014 10.857,3.289 10.870,3.132 10.939 M18.732 10.939 C 18.552 11.017,18.249 11.307,18.147 11.498 C 18.013 11.751,18.025 12.226,18.173 12.529 C 18.317 12.824,18.536 13.010,18.852 13.105 C 19.192 13.207,20.425 13.209,20.761 13.109 C 21.373 12.926,21.713 12.203,21.478 11.582 C 21.370 11.295,21.074 10.984,20.849 10.922 C 20.614 10.857,18.889 10.870,18.732 10.939 M6.600 15.973 C 6.501 16.000,6.338 16.079,6.239 16.147 C 5.968 16.333,5.104 17.245,5.006 17.448 C 4.909 17.649,4.894 17.950,4.964 18.288 C 5.002 18.469,5.044 18.535,5.254 18.742 C 5.435 18.921,5.549 18.998,5.688 19.037 C 5.926 19.103,6.375 19.078,6.560 18.988 C 6.908 18.819,7.787 17.928,7.968 17.560 C 8.079 17.336,8.088 16.900,7.988 16.666 C 7.763 16.147,7.125 15.828,6.600 15.973 M16.611 16.017 C 16.397 16.114,16.091 16.429,16.012 16.634 C 15.916 16.887,15.920 17.364,16.021 17.580 C 16.119 17.789,17.208 18.880,17.420 18.980 C 17.643 19.086,18.055 19.105,18.339 19.022 C 18.650 18.932,18.928 18.658,19.018 18.355 C 19.217 17.683,19.143 17.495,18.377 16.734 C 17.696 16.057,17.579 15.987,17.102 15.971 C 16.847 15.962,16.702 15.976,16.611 16.017 M11.468 18.164 C 11.252 18.278,11.006 18.537,10.908 18.754 C 10.831 18.924,10.824 19.013,10.823 19.780 C 10.823 20.762,10.841 20.841,11.136 21.153 C 11.437 21.471,11.589 21.539,12.000 21.539 C 12.397 21.539,12.579 21.464,12.848 21.188 C 13.143 20.886,13.162 20.804,13.167 19.790 C 13.171 18.781,13.176 18.799,12.854 18.441 C 12.590 18.148,12.428 18.082,11.980 18.083 C 11.698 18.083,11.587 18.101,11.468 18.164 " fill="#373B4D" stroke="none" fill-rule="evenodd"></path></svg>