<svg width="24" height="24" viewBox="0 0 24 24" fill="none" xmlns="http://www.w3.org/2000/svg"><path d="M11.590 2.534 C 11.374 2.615,11.183 2.773,10.989 3.030 L 10.820 3.254 10.823 4.077 C 10.827 5.165,10.850 5.258,11.196 5.602 C 11.491 5.895,11.643 5.960,12.027 5.960 C 12.339 5.960,12.614 5.823,12.874 5.539 C 13.132 5.257,13.177 5.036,13.179 4.060 C 13.180 3.353,13.178 3.336,13.069 3.114 C 12.953 2.878,12.819 2.752,12.523 2.602 C 12.299 2.487,11.810 2.452,11.590 2.534 M5.700 4.969 C 5.346 5.095,5.041 5.423,4.959 5.765 C 4.877 6.105,4.927 6.412,5.107 6.672 C 5.300 6.953,5.998 7.661,6.253 7.836 C 6.467 7.982,6.869 8.060,7.175 8.015 C 7.655 7.944,8.040 7.463,8.048 6.925 C 8.053 6.538,7.924 6.318,7.340 5.723 C 6.785 5.158,6.586 5.025,6.199 4.963 C 5.892 4.913,5.857 4.913,5.700 4.969 M17.510 4.997 C 17.450 5.017,17.312 5.098,17.203 5.178 C 16.916 5.388,16.242 6.112,16.080 6.383 C 15.955 6.592,15.940 6.647,15.943 6.889 C 15.949 7.416,16.290 7.873,16.774 8.004 C 17.014 8.069,17.368 8.025,17.627 7.899 C 17.894 7.768,18.858 6.829,18.981 6.580 C 19.098 6.344,19.092 5.764,18.972 5.536 C 18.876 5.356,18.670 5.158,18.470 5.055 C 18.322 4.978,17.687 4.940,17.510 4.997 M11.221 7.321 C 10.855 7.363,10.452 7.477,10.088 7.643 C 9.440 7.936,8.601 8.611,8.155 9.199 C 7.790 9.679,7.386 10.643,7.282 11.285 C 7.184 11.890,7.260 12.798,7.462 13.440 C 7.686 14.150,8.041 14.720,8.620 15.301 C 9.560 16.245,10.725 16.760,11.916 16.760 C 13.304 16.760,14.406 16.292,15.400 15.281 C 16.352 14.313,16.819 13.104,16.746 11.800 C 16.674 10.509,16.254 9.568,15.343 8.657 C 14.670 7.984,13.862 7.542,13.000 7.375 C 12.626 7.302,11.645 7.273,11.221 7.321 M3.540 10.916 C 3.102 10.942,2.941 11.009,2.740 11.248 C 2.412 11.637,2.365 12.091,2.604 12.565 C 2.700 12.758,2.998 13.015,3.190 13.072 C 3.708 13.228,4.682 13.231,5.174 13.079 C 5.491 12.981,5.684 12.809,5.828 12.494 C 5.969 12.186,5.987 11.911,5.885 11.640 C 5.782 11.368,5.485 11.020,5.309 10.966 C 5.144 10.916,4.060 10.885,3.540 10.916 M19.140 10.916 C 18.702 10.942,18.541 11.009,18.340 11.248 C 18.012 11.637,17.965 12.091,18.204 12.565 C 18.300 12.758,18.598 13.015,18.790 13.072 C 19.308 13.228,20.282 13.231,20.774 13.079 C 21.091 12.981,21.284 12.809,21.428 12.494 C 21.569 12.186,21.587 11.911,21.485 11.640 C 21.382 11.368,21.085 11.020,20.909 10.966 C 20.744 10.916,19.660 10.885,19.140 10.916 M6.510 16.017 C 6.304 16.091,6.123 16.235,5.692 16.668 C 5.257 17.105,5.029 17.401,4.960 17.617 C 4.883 17.855,4.932 18.285,5.060 18.504 C 5.190 18.725,5.515 18.987,5.712 19.028 C 5.983 19.086,6.391 19.052,6.592 18.954 C 6.821 18.844,7.644 18.035,7.860 17.708 C 7.998 17.500,8.015 17.445,8.032 17.159 C 8.048 16.874,8.039 16.819,7.941 16.619 C 7.694 16.114,7.026 15.833,6.510 16.017 M16.729 15.998 C 16.451 16.067,16.148 16.346,16.021 16.651 C 15.931 16.867,15.942 17.336,16.043 17.559 C 16.147 17.788,17.190 18.849,17.421 18.961 C 17.665 19.079,18.018 19.104,18.298 19.022 C 18.897 18.848,19.279 18.043,19.020 17.500 C 18.935 17.322,18.137 16.484,17.823 16.243 C 17.546 16.030,17.046 15.918,16.729 15.998 M11.608 18.125 C 11.483 18.154,11.375 18.227,11.206 18.393 C 10.835 18.759,10.825 18.796,10.832 19.791 C 10.838 20.744,10.856 20.826,11.136 21.148 C 11.358 21.402,11.642 21.524,12.011 21.524 C 12.184 21.524,12.371 21.500,12.452 21.466 C 12.643 21.386,12.903 21.143,13.032 20.923 L 13.140 20.740 13.140 19.780 L 13.140 18.820 13.011 18.634 C 12.871 18.432,12.633 18.226,12.468 18.163 C 12.308 18.102,11.799 18.079,11.608 18.125 " fill="#373B4D" stroke="none" fill-rule="evenodd"></path></svg>