<svg width="24" height="24" viewBox="0 0 24 24" fill="none" xmlns="http://www.w3.org/2000/svg"><path d="M11.560 2.565 C 11.472 2.592,11.307 2.723,11.110 2.922 L 10.800 3.237 10.800 3.774 C 10.800 4.352,10.859 5.061,10.922 5.224 C 10.984 5.387,11.380 5.754,11.609 5.861 C 11.990 6.038,12.385 5.954,12.758 5.617 C 13.055 5.349,13.144 5.071,13.186 4.284 C 13.214 3.768,13.163 3.361,13.040 3.120 C 12.946 2.936,12.717 2.732,12.494 2.633 C 12.290 2.543,11.759 2.504,11.560 2.565 M5.658 5.019 C 5.185 5.255,4.950 5.600,4.950 6.058 C 4.950 6.390,5.041 6.576,5.406 6.999 C 5.809 7.465,6.293 7.868,6.537 7.941 C 6.773 8.011,7.113 8.017,7.323 7.954 C 7.697 7.842,8.021 7.352,8.019 6.901 C 8.018 6.527,7.902 6.341,7.300 5.740 C 6.764 5.204,6.587 5.083,6.187 4.976 C 5.911 4.902,5.887 4.904,5.658 5.019 M17.532 5.026 C 17.369 5.050,16.836 5.511,16.417 5.990 C 16.010 6.456,15.981 6.516,15.984 6.880 C 15.986 7.237,16.051 7.407,16.279 7.654 C 16.603 8.006,17.025 8.100,17.485 7.924 C 17.855 7.783,18.923 6.762,19.006 6.471 C 19.047 6.327,19.043 5.834,19.000 5.680 C 18.950 5.502,18.682 5.189,18.510 5.107 C 18.373 5.043,17.767 4.992,17.532 5.026 M11.220 7.361 C 9.878 7.472,8.364 8.618,7.725 10.005 C 7.194 11.159,7.110 12.050,7.421 13.231 C 7.805 14.689,9.139 16.067,10.620 16.534 C 11.170 16.707,11.390 16.739,12.020 16.735 C 12.528 16.732,12.679 16.716,13.003 16.630 C 14.902 16.126,16.239 14.756,16.666 12.874 C 16.765 12.439,16.758 11.571,16.652 11.080 C 16.460 10.191,16.108 9.531,15.465 8.854 C 14.964 8.326,14.547 8.013,13.985 7.741 C 13.455 7.485,13.150 7.412,12.390 7.360 C 11.768 7.318,11.746 7.318,11.220 7.361 M3.189 10.998 C 2.685 11.096,2.323 11.893,2.549 12.405 C 2.712 12.773,3.021 13.023,3.440 13.125 C 3.764 13.204,4.592 13.194,4.969 13.106 C 5.394 13.008,5.623 12.848,5.779 12.543 C 5.882 12.341,5.900 12.261,5.900 12.003 C 5.900 11.731,5.886 11.674,5.758 11.443 C 5.551 11.069,5.485 11.031,4.970 10.995 C 4.432 10.958,3.390 10.960,3.189 10.998 M18.789 10.998 C 18.285 11.096,17.923 11.893,18.149 12.405 C 18.312 12.773,18.621 13.023,19.040 13.125 C 19.364 13.204,20.192 13.194,20.569 13.106 C 20.994 13.008,21.223 12.848,21.379 12.543 C 21.482 12.341,21.500 12.261,21.500 12.003 C 21.500 11.731,21.486 11.674,21.358 11.443 C 21.151 11.069,21.085 11.031,20.570 10.995 C 20.032 10.958,18.990 10.960,18.789 10.998 M6.533 16.036 C 6.463 16.054,6.337 16.123,6.253 16.190 C 5.960 16.423,5.096 17.341,5.019 17.500 C 4.968 17.606,4.942 17.748,4.941 17.920 C 4.939 18.399,5.247 18.836,5.692 18.984 C 5.925 19.061,6.364 19.042,6.547 18.946 C 6.893 18.765,7.753 17.879,7.930 17.520 C 8.051 17.276,8.052 16.886,7.932 16.658 C 7.738 16.290,7.369 16.058,6.920 16.024 C 6.777 16.013,6.603 16.018,6.533 16.036 M16.670 16.057 C 16.211 16.221,15.918 16.697,15.975 17.185 C 16.019 17.552,16.092 17.663,16.671 18.239 C 17.409 18.973,17.456 19.006,17.796 19.030 C 18.213 19.060,18.457 18.986,18.680 18.764 C 18.782 18.662,18.916 18.475,18.978 18.348 C 19.075 18.149,19.088 18.084,19.069 17.881 C 19.039 17.544,18.884 17.289,18.428 16.831 C 17.717 16.114,17.177 15.876,16.670 16.057 M11.359 18.286 C 11.261 18.361,11.102 18.538,11.006 18.681 L 10.832 18.940 10.848 19.800 C 10.866 20.725,10.883 20.812,11.102 21.100 C 11.251 21.294,11.634 21.475,11.963 21.506 C 12.296 21.537,12.516 21.447,12.795 21.169 C 13.132 20.832,13.136 20.817,13.153 19.849 C 13.161 19.380,13.157 18.955,13.144 18.903 C 13.109 18.760,12.820 18.414,12.635 18.292 C 12.487 18.194,12.431 18.183,12.005 18.167 L 11.538 18.151 11.359 18.286 " fill="#373B4D" stroke="none" fill-rule="evenodd"></path></svg>