<svg width="24" height="24" viewBox="0 0 24 24" fill="none" xmlns="http://www.w3.org/2000/svg"><path d="M11.526 2.579 C 11.348 2.660,11.186 2.800,10.975 3.056 L 10.800 3.268 10.801 3.804 C 10.801 4.386,10.856 5.025,10.923 5.228 C 10.946 5.298,11.079 5.462,11.218 5.592 C 11.700 6.043,12.179 6.078,12.676 5.699 C 13.050 5.414,13.143 5.149,13.185 4.260 C 13.230 3.304,13.079 2.925,12.545 2.651 C 12.288 2.519,11.744 2.481,11.526 2.579 M5.654 5.017 C 5.381 5.144,5.145 5.363,5.034 5.593 C 4.912 5.843,4.910 6.267,5.030 6.501 C 5.206 6.846,5.989 7.653,6.357 7.871 C 6.606 8.018,7.141 8.048,7.410 7.929 C 7.778 7.766,8.080 7.213,8.024 6.804 C 7.978 6.464,7.834 6.250,7.292 5.715 C 6.760 5.190,6.599 5.080,6.213 4.980 C 5.915 4.902,5.897 4.903,5.654 5.017 M17.400 5.061 C 17.323 5.095,17.016 5.370,16.718 5.672 C 16.050 6.347,15.939 6.537,15.969 6.955 C 16.005 7.458,16.316 7.847,16.792 7.985 C 17.056 8.062,17.318 8.022,17.648 7.857 C 17.903 7.729,18.895 6.750,18.983 6.540 C 19.057 6.361,19.058 5.800,18.984 5.623 C 18.912 5.451,18.661 5.173,18.505 5.092 C 18.324 4.999,17.584 4.978,17.400 5.061 M11.116 7.363 C 10.211 7.459,8.987 8.194,8.296 9.057 C 7.858 9.604,7.446 10.506,7.296 11.249 C 7.178 11.829,7.260 12.793,7.485 13.479 C 7.911 14.778,9.186 16.051,10.517 16.507 C 11.672 16.902,12.852 16.826,13.980 16.283 C 15.563 15.521,16.635 13.965,16.744 12.270 C 16.788 11.578,16.629 10.717,16.341 10.093 C 15.786 8.893,14.505 7.778,13.338 7.479 C 12.818 7.346,11.783 7.292,11.116 7.363 M3.080 11.022 C 2.616 11.229,2.355 11.859,2.526 12.364 C 2.632 12.678,2.956 12.988,3.275 13.081 C 3.992 13.291,5.156 13.186,5.528 12.879 C 5.731 12.712,5.886 12.396,5.910 12.101 C 5.933 11.808,5.882 11.625,5.696 11.332 C 5.476 10.987,5.459 10.982,4.260 10.970 C 3.388 10.961,3.197 10.970,3.080 11.022 M18.680 11.022 C 18.216 11.229,17.955 11.859,18.126 12.364 C 18.232 12.678,18.556 12.988,18.875 13.081 C 19.592 13.291,20.756 13.186,21.128 12.879 C 21.331 12.712,21.486 12.396,21.510 12.101 C 21.533 11.808,21.482 11.625,21.296 11.332 C 21.076 10.987,21.059 10.982,19.860 10.970 C 18.988 10.961,18.797 10.970,18.680 11.022 M6.411 16.076 C 6.230 16.161,5.302 17.067,5.106 17.350 C 4.809 17.781,4.896 18.400,5.306 18.760 C 5.608 19.025,5.935 19.096,6.398 18.997 C 6.567 18.960,6.660 18.899,6.970 18.622 C 7.465 18.179,7.883 17.688,7.968 17.450 C 8.159 16.920,7.919 16.380,7.380 16.123 C 7.098 15.989,6.644 15.967,6.411 16.076 M16.617 16.062 C 16.089 16.323,15.854 16.856,16.019 17.422 C 16.083 17.643,16.128 17.698,16.714 18.287 C 17.101 18.676,17.397 18.940,17.489 18.978 C 17.713 19.072,18.212 19.061,18.425 18.958 C 18.643 18.852,18.862 18.609,18.989 18.331 C 19.071 18.153,19.086 18.068,19.073 17.861 C 19.052 17.535,18.890 17.280,18.383 16.776 C 17.797 16.193,17.442 15.999,16.964 16.001 C 16.841 16.001,16.685 16.029,16.617 16.062 M11.610 18.147 C 11.428 18.173,11.070 18.511,10.937 18.783 L 10.830 19.001 10.847 19.833 C 10.863 20.645,10.866 20.671,10.974 20.892 C 11.114 21.177,11.310 21.341,11.634 21.441 C 11.914 21.528,12.145 21.540,12.360 21.481 C 12.545 21.429,12.893 21.121,13.030 20.887 C 13.139 20.702,13.140 20.692,13.154 19.865 C 13.161 19.406,13.156 18.972,13.143 18.901 C 13.113 18.744,12.738 18.317,12.551 18.228 C 12.416 18.164,11.840 18.114,11.610 18.147 " fill="#373B4D" stroke="none" fill-rule="evenodd"></path></svg>