<svg width="24" height="24" viewBox="0 0 24 24" fill="none" xmlns="http://www.w3.org/2000/svg"><path d="M10.960 2.483 C 10.529 2.522,9.753 2.687,9.175 2.863 C 7.694 3.311,6.417 4.074,5.312 5.171 C 3.805 6.665,2.893 8.403,2.543 10.445 C 2.150 12.732,2.671 15.225,3.947 17.178 C 5.248 19.167,7.063 20.510,9.409 21.217 C 10.384 21.511,10.564 21.534,11.920 21.537 C 13.206 21.540,13.437 21.520,14.160 21.339 C 16.336 20.794,18.255 19.563,19.560 17.875 C 20.466 16.703,21.204 15.049,21.468 13.600 C 21.571 13.039,21.571 10.898,21.468 10.380 C 20.876 7.391,19.104 4.964,16.480 3.550 C 15.484 3.013,14.237 2.625,13.173 2.522 C 12.619 2.469,11.364 2.446,10.960 2.483 M13.520 4.995 C 13.973 5.094,14.760 5.338,14.970 5.445 C 15.053 5.487,15.120 5.544,15.120 5.571 C 15.120 5.622,13.784 6.949,13.489 7.191 C 13.300 7.346,13.336 7.342,12.580 7.300 C 12.048 7.270,10.885 7.328,10.655 7.395 C 10.532 7.431,10.518 7.419,9.617 6.517 L 8.703 5.603 8.962 5.486 C 9.293 5.336,10.023 5.105,10.560 4.979 C 10.962 4.885,11.026 4.882,12.060 4.896 C 12.965 4.909,13.201 4.925,13.520 4.995 M18.756 9.582 C 19.049 10.391,19.213 11.728,19.128 12.610 C 19.046 13.450,18.816 14.354,18.503 15.058 L 18.397 15.296 17.484 14.384 L 16.570 13.471 16.645 13.185 C 16.687 13.028,16.742 12.672,16.768 12.394 C 16.808 11.963,16.806 11.810,16.749 11.354 L 16.683 10.820 17.212 10.286 C 17.502 9.992,17.910 9.599,18.118 9.412 C 18.493 9.075,18.497 9.073,18.564 9.156 C 18.602 9.202,18.688 9.394,18.756 9.582 M7.246 11.694 C 7.233 12.381,7.270 12.958,7.346 13.269 C 7.365 13.343,7.219 13.509,6.477 14.259 C 5.988 14.755,5.573 15.160,5.556 15.160 C 5.487 15.160,5.126 14.098,5.005 13.540 C 4.877 12.945,4.836 11.705,4.921 10.999 C 4.998 10.361,5.158 9.703,5.342 9.261 L 5.403 9.116 6.331 10.015 L 7.260 10.915 7.246 11.694 M12.680 9.743 C 13.331 9.934,13.977 10.556,14.235 11.239 C 14.320 11.465,14.334 11.565,14.332 11.980 C 14.331 12.529,14.257 12.810,14.014 13.195 C 13.322 14.292,12.105 14.665,10.960 14.130 C 10.624 13.973,10.043 13.377,9.866 13.007 C 9.406 12.047,9.698 10.813,10.538 10.174 C 10.894 9.903,11.236 9.722,11.472 9.678 C 11.737 9.630,12.419 9.666,12.680 9.743 M11.260 16.740 C 11.789 16.810,12.233 16.815,12.678 16.755 L 13.010 16.711 13.469 17.165 C 13.722 17.415,14.126 17.835,14.367 18.098 C 14.875 18.652,14.879 18.608,14.304 18.797 C 12.762 19.303,11.468 19.320,9.860 18.855 C 9.309 18.695,9.120 18.606,9.120 18.504 C 9.120 18.446,9.395 18.134,9.963 17.549 C 10.427 17.071,10.810 16.680,10.813 16.680 C 10.817 16.681,11.018 16.707,11.260 16.740 " fill="#373B4D" stroke="none" fill-rule="evenodd"></path></svg>