<svg width="24" height="24" viewBox="0 0 24 24" fill="none" xmlns="http://www.w3.org/2000/svg"><path d="M10.460 2.556 C 8.397 2.940,6.796 3.749,5.385 5.120 C 4.496 5.984,3.882 6.821,3.377 7.860 C 2.066 10.554,2.096 13.601,3.462 16.323 C 4.177 17.749,5.334 19.053,6.680 19.949 C 7.607 20.566,8.758 21.065,9.980 21.380 C 10.692 21.563,12.698 21.607,13.602 21.459 C 14.327 21.340,15.373 20.991,16.183 20.597 C 17.678 19.870,19.020 18.714,19.908 17.388 C 20.322 16.768,20.870 15.645,21.111 14.919 C 21.413 14.007,21.475 13.692,21.529 12.787 C 21.595 11.660,21.531 10.569,21.360 9.900 C 21.053 8.702,20.624 7.713,19.996 6.757 C 18.554 4.560,16.139 2.990,13.567 2.575 C 13.303 2.532,12.811 2.507,12.020 2.497 C 11.015 2.484,10.807 2.492,10.460 2.556 M13.317 4.966 C 13.904 5.048,15.120 5.453,15.120 5.567 C 15.120 5.625,13.611 7.111,13.429 7.232 C 13.281 7.330,13.267 7.332,12.729 7.309 C 12.198 7.286,11.064 7.327,10.696 7.383 L 10.517 7.410 9.609 6.507 L 8.701 5.604 8.941 5.498 C 9.415 5.286,10.387 4.997,10.875 4.921 C 11.155 4.877,12.916 4.910,13.317 4.966 M7.252 11.932 C 7.264 12.508,7.292 13.052,7.315 13.140 C 7.348 13.269,7.344 13.319,7.293 13.396 C 7.211 13.521,5.598 15.160,5.557 15.160 C 5.467 15.160,5.037 13.790,4.961 13.258 C 4.888 12.750,4.864 11.593,4.917 11.100 C 4.987 10.448,5.150 9.752,5.356 9.227 L 5.400 9.114 6.315 9.999 L 7.230 10.884 7.252 11.932 M18.612 9.250 C 18.997 10.074,19.221 11.550,19.119 12.595 C 19.039 13.419,18.792 14.409,18.503 15.058 L 18.397 15.296 17.485 14.385 L 16.573 13.473 16.647 13.167 C 16.688 12.998,16.742 12.635,16.767 12.360 C 16.806 11.942,16.803 11.775,16.749 11.340 L 16.686 10.820 17.153 10.346 C 17.749 9.741,18.431 9.120,18.498 9.120 C 18.527 9.120,18.578 9.178,18.612 9.250 M12.986 9.879 C 13.473 10.120,13.882 10.531,14.127 11.024 C 14.296 11.366,14.300 11.383,14.314 11.835 C 14.338 12.674,14.175 13.106,13.621 13.663 C 13.137 14.149,12.655 14.359,12.017 14.360 C 11.374 14.360,10.892 14.166,10.440 13.723 C 9.867 13.161,9.671 12.739,9.668 12.060 C 9.663 11.185,10.028 10.507,10.767 10.016 C 11.242 9.700,11.330 9.677,12.026 9.691 L 12.633 9.703 12.986 9.879 M11.260 16.740 C 11.792 16.811,12.234 16.815,12.684 16.755 L 13.020 16.709 13.823 17.534 C 14.639 18.373,14.749 18.507,14.707 18.615 C 14.694 18.650,14.498 18.735,14.243 18.816 C 13.054 19.192,12.037 19.280,10.940 19.101 C 10.271 18.993,9.289 18.706,9.166 18.583 C 9.113 18.530,9.119 18.506,9.212 18.371 C 9.294 18.253,10.785 16.679,10.813 16.680 C 10.817 16.681,11.018 16.707,11.260 16.740 " fill="#373B4D" stroke="none" fill-rule="evenodd"></path></svg>