<svg width="24" height="24" viewBox="0 0 24 24" fill="none" xmlns="http://www.w3.org/2000/svg"><path d="M10.800 2.560 C 9.246 2.685,7.471 3.441,6.040 4.585 C 5.599 4.937,4.771 5.770,4.440 6.194 C 3.480 7.422,2.855 8.853,2.533 10.560 C 2.444 11.034,2.431 12.733,2.513 13.300 C 2.652 14.269,3.083 15.571,3.565 16.480 C 3.987 17.275,4.415 17.854,5.100 18.555 C 6.022 19.499,6.625 19.943,7.760 20.518 C 9.182 21.237,10.130 21.486,11.668 21.544 C 12.869 21.589,13.772 21.467,14.800 21.121 C 16.055 20.698,17.043 20.168,18.000 19.405 C 19.520 18.193,20.455 16.796,21.163 14.680 C 21.468 13.769,21.494 13.558,21.497 12.000 C 21.500 10.529,21.486 10.391,21.255 9.591 C 20.689 7.634,19.633 5.982,18.143 4.724 C 16.822 3.609,14.953 2.773,13.400 2.604 C 12.865 2.546,11.301 2.519,10.800 2.560 M12.869 5.003 C 13.227 5.024,13.641 5.067,13.789 5.098 C 14.427 5.233,15.040 5.476,15.040 5.593 C 15.040 5.629,14.667 6.033,14.210 6.490 L 13.381 7.320 12.924 7.320 C 12.673 7.320,12.027 7.340,11.489 7.365 L 10.510 7.409 9.992 6.895 C 9.707 6.612,9.313 6.205,9.115 5.992 L 8.755 5.604 8.908 5.527 C 9.101 5.430,9.909 5.153,10.380 5.023 C 10.720 4.930,10.782 4.925,11.480 4.944 C 11.887 4.955,12.512 4.981,12.869 5.003 M18.643 9.413 C 18.784 9.716,18.942 10.316,18.999 10.769 C 19.021 10.950,19.040 11.535,19.040 12.070 C 19.040 12.954,19.031 13.083,18.941 13.499 C 18.753 14.370,18.481 15.240,18.397 15.240 C 18.340 15.240,16.945 13.860,16.767 13.628 L 16.607 13.420 16.670 13.100 C 16.717 12.864,16.735 12.516,16.738 11.770 L 16.742 10.761 16.981 10.517 C 17.346 10.145,18.453 9.160,18.505 9.160 C 18.516 9.160,18.578 9.274,18.643 9.413 M5.742 9.487 C 6.429 10.095,7.079 10.738,7.142 10.871 C 7.197 10.987,7.218 11.196,7.244 11.918 C 7.261 12.414,7.277 12.955,7.278 13.121 L 7.280 13.422 6.441 14.277 C 5.760 14.971,5.592 15.123,5.546 15.085 C 5.480 15.030,5.380 14.762,5.172 14.080 L 5.020 13.580 5.020 11.980 L 5.020 10.380 5.135 9.960 C 5.251 9.540,5.375 9.240,5.432 9.240 C 5.449 9.240,5.588 9.351,5.742 9.487 M12.740 9.804 C 13.152 9.918,13.751 10.451,14.078 10.996 C 14.277 11.328,14.280 11.337,14.278 11.656 C 14.277 11.834,14.262 12.161,14.245 12.382 C 14.218 12.752,14.203 12.806,14.061 13.042 C 13.976 13.184,13.743 13.462,13.543 13.660 C 12.987 14.212,12.639 14.345,11.840 14.311 C 11.375 14.291,11.153 14.219,10.810 13.975 C 10.363 13.657,9.920 13.120,9.814 12.767 C 9.778 12.648,9.760 12.369,9.760 11.943 L 9.760 11.298 9.942 10.979 C 10.223 10.483,10.773 9.974,11.190 9.821 C 11.377 9.752,12.506 9.740,12.740 9.804 M11.260 16.740 C 11.789 16.810,12.233 16.815,12.678 16.755 L 13.009 16.711 13.267 16.965 C 13.606 17.299,14.471 18.248,14.594 18.422 C 14.728 18.609,14.684 18.649,14.159 18.818 C 12.769 19.268,11.590 19.286,10.024 18.881 C 9.455 18.734,9.200 18.629,9.200 18.540 C 9.200 18.425,9.389 18.193,10.103 17.430 C 10.489 17.018,10.809 16.680,10.813 16.680 C 10.817 16.681,11.018 16.707,11.260 16.740 " fill="#373B4D" stroke="none" fill-rule="evenodd"></path></svg>