<svg width="24" height="24" viewBox="0 0 24 24" fill="none" xmlns="http://www.w3.org/2000/svg"><path d="M10.380 2.584 C 9.146 2.805,7.814 3.332,6.818 3.994 C 5.607 4.798,4.441 6.012,3.731 7.210 C 3.095 8.282,2.595 9.799,2.477 11.017 C 2.416 11.644,2.450 13.022,2.538 13.500 C 2.834 15.098,3.464 16.562,4.384 17.783 C 4.692 18.193,5.413 18.941,5.860 19.314 C 6.955 20.230,8.796 21.132,10.113 21.398 C 10.966 21.570,12.647 21.601,13.520 21.460 C 14.869 21.242,16.569 20.504,17.751 19.625 C 18.512 19.058,19.458 18.066,19.930 17.340 C 20.536 16.406,21.175 14.903,21.408 13.860 C 21.477 13.553,21.492 13.309,21.509 12.193 C 21.531 10.702,21.515 10.522,21.278 9.660 C 20.383 6.398,18.040 3.934,14.858 2.907 C 14.259 2.714,13.727 2.612,13.060 2.562 C 12.253 2.502,10.772 2.514,10.380 2.584 M13.280 5.001 C 13.802 5.047,14.748 5.328,15.037 5.521 C 15.127 5.581,15.118 5.592,14.243 6.451 L 13.357 7.320 12.669 7.320 C 12.290 7.320,11.648 7.339,11.242 7.362 L 10.505 7.404 9.613 6.513 C 9.123 6.023,8.735 5.609,8.751 5.593 C 8.805 5.540,9.534 5.276,10.120 5.098 L 10.700 4.921 11.800 4.944 C 12.405 4.956,13.071 4.982,13.280 5.001 M18.649 9.402 C 19.026 10.155,19.206 11.927,19.024 13.100 C 18.907 13.858,18.585 15.001,18.427 15.217 C 18.385 15.274,18.266 15.169,17.484 14.382 C 16.618 13.511,16.590 13.478,16.613 13.351 C 16.627 13.279,16.666 13.067,16.701 12.880 C 16.778 12.475,16.790 11.508,16.724 11.100 L 16.678 10.820 17.309 10.204 C 18.003 9.527,18.434 9.152,18.498 9.171 C 18.521 9.178,18.589 9.281,18.649 9.402 M6.368 10.057 C 7.050 10.702,7.200 10.863,7.216 10.970 C 7.227 11.042,7.246 11.622,7.259 12.260 L 7.283 13.420 6.437 14.291 C 5.780 14.967,5.579 15.153,5.539 15.119 C 5.457 15.051,5.096 13.906,5.016 13.460 C 4.958 13.141,4.943 12.842,4.942 11.980 C 4.941 10.832,4.984 10.458,5.207 9.700 C 5.325 9.298,5.386 9.190,5.471 9.236 C 5.509 9.256,5.913 9.625,6.368 10.057 M12.527 9.754 C 12.816 9.780,12.855 9.796,13.175 10.013 C 13.609 10.308,13.894 10.619,14.115 11.038 L 14.291 11.370 14.272 12.037 L 14.252 12.705 14.098 12.998 C 13.922 13.334,13.498 13.792,13.160 14.012 C 12.797 14.248,12.486 14.334,12.000 14.335 C 11.649 14.335,11.533 14.319,11.291 14.232 C 10.791 14.053,10.334 13.671,9.998 13.152 C 9.754 12.775,9.709 12.567,9.726 11.920 L 9.741 11.371 9.917 11.016 C 10.056 10.733,10.155 10.598,10.398 10.360 C 10.755 10.009,11.099 9.793,11.357 9.756 C 11.607 9.721,12.157 9.720,12.527 9.754 M11.260 16.740 C 11.792 16.811,12.234 16.815,12.684 16.754 L 13.020 16.709 13.692 17.404 C 14.447 18.186,14.693 18.483,14.673 18.588 C 14.664 18.641,14.541 18.700,14.220 18.808 C 13.312 19.112,12.304 19.246,11.522 19.165 C 10.678 19.078,9.450 18.778,9.240 18.608 C 9.130 18.519,9.154 18.461,9.427 18.149 C 9.606 17.945,10.801 16.680,10.814 16.680 C 10.817 16.681,11.018 16.707,11.260 16.740 " fill="#373B4D" stroke="none" fill-rule="evenodd"></path></svg>