<svg width="24" height="24" viewBox="0 0 24 24" fill="none" xmlns="http://www.w3.org/2000/svg"><path d="M10.680 2.562 C 9.847 2.629,8.634 3.012,7.629 3.528 C 6.202 4.260,4.700 5.649,3.844 7.030 C 3.150 8.149,2.629 9.657,2.483 10.968 C 2.393 11.782,2.448 13.117,2.601 13.808 C 2.934 15.313,3.521 16.620,4.374 17.760 C 4.745 18.256,5.679 19.189,6.160 19.545 C 7.337 20.416,8.933 21.157,10.160 21.403 C 10.776 21.526,11.996 21.584,12.790 21.528 C 13.767 21.459,14.413 21.305,15.429 20.897 C 17.178 20.195,18.614 19.108,19.703 17.660 C 20.334 16.821,21.026 15.314,21.362 14.047 C 21.467 13.651,21.517 12.929,21.518 11.780 C 21.520 10.756,21.475 10.352,21.285 9.680 C 20.787 7.921,19.954 6.474,18.748 5.274 C 17.986 4.515,17.233 3.978,16.240 3.485 C 15.354 3.044,14.574 2.780,13.756 2.644 C 13.093 2.533,11.552 2.492,10.680 2.562 M12.140 4.960 C 13.411 5.001,13.723 5.043,14.400 5.263 C 14.922 5.432,15.098 5.532,15.045 5.630 C 15.025 5.669,14.638 6.065,14.186 6.510 L 13.365 7.320 12.794 7.320 C 12.481 7.320,11.836 7.340,11.362 7.364 L 10.500 7.407 9.630 6.525 C 9.152 6.040,8.760 5.627,8.760 5.606 C 8.760 5.522,10.555 4.928,10.820 4.924 C 10.908 4.923,11.502 4.939,12.140 4.960 M18.635 9.390 C 18.775 9.668,18.894 10.084,18.987 10.620 C 19.075 11.127,19.089 12.844,19.008 13.220 C 18.762 14.366,18.495 15.240,18.392 15.240 C 18.336 15.240,16.825 13.741,16.704 13.565 L 16.604 13.420 16.681 12.980 C 16.766 12.489,16.787 11.470,16.720 11.061 C 16.682 10.825,16.683 10.821,16.811 10.687 C 17.260 10.215,18.431 9.160,18.505 9.160 C 18.513 9.160,18.571 9.264,18.635 9.390 M6.242 9.940 C 6.642 10.314,7.020 10.684,7.082 10.763 C 7.223 10.941,7.231 11.011,7.261 12.360 L 7.284 13.420 6.452 14.271 C 5.994 14.739,5.599 15.121,5.574 15.121 C 5.498 15.119,5.315 14.610,5.073 13.720 C 4.984 13.395,4.980 13.318,4.980 12.000 C 4.980 10.548,4.983 10.519,5.186 9.780 C 5.295 9.385,5.376 9.228,5.460 9.248 C 5.490 9.254,5.842 9.566,6.242 9.940 M12.900 9.856 C 13.179 9.984,13.633 10.351,13.828 10.606 C 13.918 10.724,14.060 10.944,14.142 11.094 L 14.292 11.369 14.267 12.050 C 14.241 12.731,14.241 12.731,14.104 12.975 C 13.885 13.367,13.452 13.829,13.093 14.053 C 12.751 14.267,12.471 14.329,11.917 14.314 C 11.416 14.300,11.412 14.299,11.067 14.128 C 10.677 13.935,10.286 13.582,10.028 13.191 C 9.768 12.797,9.744 12.695,9.742 11.980 L 9.740 11.340 9.912 11.023 C 10.113 10.652,10.238 10.499,10.574 10.207 C 10.879 9.943,11.159 9.793,11.420 9.755 C 11.530 9.739,11.863 9.735,12.160 9.745 C 12.612 9.761,12.732 9.779,12.900 9.856 M11.260 16.740 C 11.789 16.810,12.233 16.815,12.678 16.756 L 13.008 16.711 13.189 16.886 C 13.538 17.223,14.492 18.261,14.592 18.411 C 14.682 18.547,14.686 18.571,14.634 18.624 C 14.512 18.745,13.561 19.021,12.900 19.125 C 12.387 19.207,11.501 19.189,10.940 19.085 C 10.345 18.976,9.614 18.788,9.378 18.683 C 9.058 18.542,9.075 18.513,10.213 17.310 C 10.541 16.963,10.812 16.680,10.815 16.680 C 10.818 16.681,11.018 16.707,11.260 16.740 " fill="#373B4D" stroke="none" fill-rule="evenodd"></path></svg>