<svg width="24" height="24" viewBox="0 0 24 24" fill="none" xmlns="http://www.w3.org/2000/svg"><path d="M10.800 2.602 C 9.953 2.652,9.188 2.852,8.279 3.261 C 6.771 3.938,5.535 4.887,4.488 6.170 C 3.517 7.359,2.767 9.091,2.533 10.680 C 2.428 11.395,2.439 12.868,2.554 13.500 C 2.856 15.155,3.599 16.799,4.565 17.948 C 4.922 18.373,5.698 19.144,6.080 19.452 C 6.934 20.141,8.561 20.975,9.600 21.255 C 10.436 21.481,10.632 21.500,12.100 21.497 L 13.460 21.494 14.014 21.346 C 15.888 20.845,17.402 20.015,18.653 18.802 C 19.696 17.790,20.318 16.838,20.913 15.340 C 21.339 14.268,21.411 13.950,21.483 12.820 C 21.537 11.953,21.512 10.911,21.423 10.380 C 21.183 8.955,20.388 7.240,19.397 6.013 C 18.128 4.440,15.991 3.130,14.061 2.740 C 13.262 2.578,12.060 2.527,10.800 2.602 M12.140 5.000 C 13.667 5.065,14.177 5.147,14.753 5.420 L 15.046 5.559 14.967 5.669 C 14.923 5.730,14.549 6.126,14.134 6.549 L 13.380 7.319 11.941 7.366 L 10.501 7.413 9.630 6.519 C 9.136 6.012,8.774 5.610,8.794 5.590 C 8.848 5.536,10.152 5.078,10.420 5.019 C 10.717 4.954,10.976 4.951,12.140 5.000 M18.628 9.402 C 18.676 9.500,18.775 9.814,18.848 10.100 L 18.980 10.620 18.979 12.000 L 18.978 13.380 18.865 13.820 C 18.718 14.394,18.496 15.083,18.428 15.176 C 18.379 15.243,18.312 15.187,17.615 14.492 C 17.197 14.075,16.805 13.668,16.743 13.587 L 16.630 13.440 16.677 13.010 C 16.703 12.773,16.735 12.160,16.748 11.647 L 16.772 10.714 17.345 10.179 C 18.026 9.542,18.441 9.194,18.498 9.212 C 18.521 9.218,18.579 9.304,18.628 9.402 M5.820 9.564 C 6.250 9.947,6.684 10.372,6.921 10.643 C 7.165 10.923,7.182 11.013,7.245 12.394 L 7.292 13.408 6.456 14.244 C 5.997 14.704,5.607 15.080,5.591 15.080 C 5.536 15.080,5.402 14.768,5.221 14.219 L 5.040 13.674 5.040 11.975 L 5.040 10.277 5.202 9.778 C 5.325 9.400,5.381 9.280,5.432 9.280 C 5.470 9.280,5.644 9.408,5.820 9.564 M13.000 9.940 C 13.300 10.103,13.867 10.675,14.073 11.022 L 14.240 11.305 14.240 11.827 C 14.240 12.770,14.142 13.026,13.563 13.600 C 13.152 14.007,12.912 14.161,12.539 14.259 C 12.086 14.377,11.454 14.310,11.040 14.100 C 10.745 13.951,10.122 13.337,9.964 13.042 C 9.815 12.763,9.763 12.431,9.761 11.755 L 9.760 11.290 9.965 10.975 C 10.273 10.503,10.372 10.390,10.701 10.138 C 11.107 9.827,11.223 9.799,12.080 9.811 C 12.774 9.820,12.782 9.821,13.000 9.940 M11.260 16.740 C 11.791 16.811,12.233 16.815,12.683 16.755 L 13.019 16.710 13.396 17.105 C 13.958 17.695,14.640 18.481,14.640 18.540 C 14.640 18.656,14.166 18.838,13.400 19.016 C 12.393 19.250,10.954 19.168,9.820 18.811 C 9.461 18.698,9.200 18.577,9.200 18.522 C 9.200 18.458,9.585 18.001,10.205 17.330 C 10.535 16.973,10.808 16.680,10.812 16.680 C 10.817 16.681,11.018 16.707,11.260 16.740 " fill="#373B4D" stroke="none" fill-rule="evenodd"></path></svg>