<svg width="24" height="24" viewBox="0 0 24 24" fill="none" xmlns="http://www.w3.org/2000/svg"><path d="M11.000 2.463 C 8.701 2.737,6.759 3.671,5.175 5.265 C 2.751 7.704,1.820 11.347,2.781 14.634 C 3.551 17.270,5.288 19.358,7.732 20.586 C 8.548 20.996,9.533 21.315,10.507 21.484 C 10.943 21.559,11.167 21.573,12.000 21.573 C 12.833 21.573,13.057 21.559,13.493 21.484 C 16.681 20.930,19.280 18.988,20.644 16.140 C 20.953 15.495,21.137 14.984,21.320 14.263 C 21.528 13.445,21.573 13.025,21.570 11.920 C 21.567 11.152,21.552 10.892,21.483 10.500 C 21.304 9.479,21.026 8.628,20.573 7.714 C 19.332 5.208,17.068 3.393,14.321 2.701 C 13.686 2.541,13.242 2.480,12.412 2.440 C 11.490 2.395,11.587 2.393,11.000 2.463 M13.527 4.976 C 14.018 5.083,14.339 5.185,14.851 5.398 L 15.161 5.528 14.964 5.755 C 14.856 5.880,14.451 6.292,14.063 6.671 C 13.326 7.392,13.315 7.399,13.040 7.320 C 12.580 7.187,11.450 7.204,10.833 7.353 L 10.527 7.427 9.615 6.515 L 8.703 5.603 9.002 5.465 C 9.734 5.128,10.653 4.889,11.380 4.846 C 12.078 4.805,12.990 4.860,13.527 4.976 M18.637 9.223 C 18.882 9.777,19.084 10.640,19.167 11.486 C 19.272 12.558,19.030 13.913,18.543 14.978 L 18.397 15.296 17.483 14.383 L 16.570 13.470 16.626 13.265 C 16.799 12.627,16.838 11.927,16.737 11.248 L 16.675 10.826 17.567 9.933 C 18.058 9.442,18.481 9.040,18.508 9.040 C 18.534 9.040,18.593 9.122,18.637 9.223 M7.165 10.823 L 7.309 10.940 7.252 11.300 C 7.183 11.739,7.206 12.517,7.302 12.989 L 7.369 13.317 7.249 13.469 C 7.183 13.552,6.772 13.970,6.336 14.399 L 5.544 15.177 5.428 14.920 C 5.105 14.202,4.894 13.330,4.845 12.513 C 4.777 11.349,4.957 10.164,5.340 9.264 L 5.406 9.108 6.213 9.907 C 6.657 10.346,7.085 10.759,7.165 10.823 M12.641 9.704 C 13.836 10.059,14.582 11.259,14.342 12.441 C 14.115 13.561,13.107 14.400,11.989 14.400 C 11.708 14.400,11.204 14.271,10.896 14.120 C 10.611 13.981,10.184 13.582,9.981 13.264 C 9.222 12.078,9.685 10.494,10.975 9.859 C 11.176 9.760,11.439 9.663,11.560 9.642 C 11.848 9.593,12.366 9.622,12.641 9.704 M11.263 16.740 C 11.737 16.811,12.226 16.816,12.682 16.755 L 13.017 16.710 13.928 17.633 C 14.430 18.140,14.840 18.574,14.840 18.596 C 14.840 18.649,13.923 18.945,13.458 19.042 C 12.150 19.316,10.855 19.221,9.533 18.756 C 8.887 18.528,8.844 18.663,9.899 17.603 C 10.404 17.095,10.829 16.680,10.842 16.680 C 10.856 16.680,11.045 16.707,11.263 16.740 " fill="#373B4D" stroke="none" fill-rule="evenodd"></path></svg>