<svg width="24" height="24" viewBox="0 0 24 24" fill="none" xmlns="http://www.w3.org/2000/svg"><path d="M13.440 2.038 C 12.763 2.126,12.001 2.374,11.463 2.683 C 11.272 2.792,10.005 3.622,8.648 4.527 C 6.362 6.051,6.152 6.201,5.799 6.557 C 5.051 7.310,4.581 8.187,4.342 9.281 C 4.253 9.686,4.217 10.726,4.276 11.172 C 4.344 11.680,4.491 12.223,4.681 12.668 C 4.841 13.042,4.845 13.062,4.783 13.159 C 4.511 13.582,4.250 14.254,4.112 14.892 C 3.984 15.485,3.985 16.599,4.114 17.200 C 4.520 19.079,5.689 20.582,7.380 21.401 C 8.156 21.777,8.791 21.941,9.643 21.985 C 10.665 22.039,11.711 21.793,12.569 21.298 C 12.739 21.201,13.974 20.394,15.314 19.506 C 17.948 17.759,18.154 17.600,18.658 16.928 C 19.346 16.012,19.695 15.022,19.747 13.836 C 19.786 12.952,19.648 12.155,19.317 11.364 L 19.159 10.985 19.397 10.502 C 20.316 8.646,20.173 6.444,19.023 4.722 C 18.096 3.335,16.765 2.427,15.201 2.116 C 14.766 2.030,13.828 1.988,13.440 2.038 M15.233 5.119 C 15.888 5.279,16.509 5.636,16.984 6.127 C 17.903 7.075,18.205 8.257,17.837 9.466 L 17.750 9.752 17.385 9.510 C 16.934 9.212,16.333 8.919,15.872 8.772 L 15.522 8.660 15.521 8.457 C 15.518 7.850,15.091 7.403,14.480 7.368 C 14.289 7.356,14.167 7.373,14.020 7.430 C 13.856 7.493,9.628 10.076,9.107 10.430 C 8.765 10.664,8.630 11.157,8.801 11.553 C 8.932 11.858,9.208 12.092,9.545 12.183 C 9.976 12.299,10.135 12.239,11.295 11.523 C 11.826 11.194,12.396 10.861,12.561 10.783 C 13.757 10.216,15.285 10.392,16.360 11.221 C 17.786 12.319,18.177 14.235,17.258 15.620 C 17.044 15.943,16.782 16.221,16.505 16.417 C 16.370 16.513,15.148 17.276,13.789 18.112 C 12.078 19.166,11.220 19.671,10.999 19.756 C 10.062 20.113,9.012 20.071,8.086 19.638 C 7.114 19.183,6.358 18.293,6.098 17.298 C 5.984 16.863,5.993 16.122,6.117 15.650 C 6.171 15.447,6.229 15.280,6.246 15.280 C 6.264 15.280,6.445 15.390,6.649 15.523 C 7.098 15.819,7.572 16.049,8.080 16.220 L 8.460 16.347 8.469 16.592 C 8.488 17.089,8.813 17.490,9.305 17.623 C 9.777 17.751,9.753 17.762,12.447 16.097 C 13.751 15.291,14.863 14.597,14.916 14.555 C 15.346 14.216,15.379 13.596,14.990 13.174 C 14.898 13.074,14.751 12.956,14.663 12.911 C 14.468 12.812,14.079 12.775,13.858 12.835 C 13.768 12.859,13.213 13.175,12.623 13.538 C 11.181 14.424,10.873 14.537,9.900 14.536 C 9.282 14.535,9.004 14.483,8.480 14.268 C 7.435 13.840,6.655 12.984,6.352 11.938 C 6.233 11.526,6.224 10.688,6.334 10.280 C 6.494 9.691,6.908 9.050,7.368 8.681 C 7.751 8.374,12.626 5.399,12.980 5.257 C 13.156 5.186,13.408 5.108,13.540 5.084 C 13.672 5.060,13.825 5.033,13.880 5.023 C 14.101 4.984,14.914 5.041,15.233 5.119 " fill="#373B4D" stroke="none" fill-rule="evenodd"></path></svg>