<svg width="24" height="24" viewBox="0 0 24 24" fill="none" xmlns="http://www.w3.org/2000/svg"><path d="M13.000 2.118 C 12.208 2.286,11.707 2.518,10.640 3.212 C 9.403 4.017,7.173 5.509,6.600 5.914 C 5.732 6.529,5.215 7.122,4.799 7.980 C 4.376 8.855,4.206 9.717,4.251 10.760 C 4.277 11.355,4.347 11.703,4.564 12.320 C 4.846 13.121,4.842 13.009,4.608 13.484 C 4.177 14.355,4.026 15.020,4.026 16.040 C 4.026 16.831,4.080 17.191,4.299 17.860 C 4.813 19.429,5.865 20.641,7.358 21.383 C 8.220 21.812,8.916 21.974,9.900 21.976 C 10.610 21.977,10.988 21.920,11.608 21.717 C 12.309 21.488,12.428 21.417,15.320 19.499 C 17.885 17.798,18.182 17.568,18.667 16.908 C 19.304 16.040,19.627 15.171,19.728 14.055 C 19.809 13.150,19.682 12.308,19.328 11.405 L 19.167 10.996 19.361 10.581 C 19.829 9.583,19.974 8.964,19.976 7.960 C 19.978 7.206,19.927 6.842,19.734 6.225 C 19.067 4.094,17.162 2.418,15.043 2.098 C 14.495 2.016,13.434 2.026,13.000 2.118 M15.082 5.099 C 15.975 5.251,16.875 5.857,17.428 6.680 C 17.979 7.499,18.115 8.414,17.837 9.443 L 17.753 9.754 17.425 9.540 C 16.999 9.262,16.283 8.912,15.857 8.773 L 15.520 8.664 15.520 8.482 C 15.519 7.922,15.177 7.505,14.629 7.395 C 14.224 7.314,14.144 7.346,12.934 8.074 C 9.947 9.873,9.018 10.465,8.889 10.654 C 8.839 10.727,8.777 10.888,8.751 11.012 C 8.711 11.202,8.714 11.269,8.772 11.451 C 8.912 11.897,9.353 12.220,9.820 12.220 C 10.116 12.219,10.309 12.125,11.623 11.332 C 12.679 10.695,13.043 10.546,13.684 10.488 C 14.418 10.423,15.043 10.528,15.675 10.824 C 16.808 11.355,17.572 12.383,17.721 13.580 C 17.798 14.197,17.688 14.801,17.398 15.359 C 17.223 15.695,16.895 16.112,16.651 16.307 C 16.364 16.536,12.317 19.035,11.460 19.512 C 11.205 19.654,10.869 19.802,10.660 19.864 C 10.344 19.958,10.229 19.972,9.720 19.974 C 9.084 19.977,8.842 19.934,8.282 19.718 C 7.239 19.316,6.327 18.287,6.097 17.252 C 5.979 16.724,6.068 15.488,6.235 15.310 C 6.251 15.294,6.407 15.372,6.582 15.483 C 7.030 15.769,7.594 16.047,8.048 16.205 C 8.435 16.340,8.436 16.340,8.458 16.490 C 8.470 16.573,8.490 16.711,8.503 16.797 C 8.532 16.995,8.709 17.277,8.892 17.416 C 9.095 17.571,9.466 17.692,9.660 17.667 C 9.951 17.629,10.499 17.311,13.640 15.361 C 14.965 14.538,15.165 14.373,15.235 14.046 C 15.259 13.934,15.267 13.784,15.253 13.711 C 15.188 13.370,14.912 13.021,14.603 12.889 C 14.522 12.855,14.329 12.827,14.160 12.824 C 13.814 12.819,13.860 12.798,12.520 13.601 C 11.270 14.351,10.995 14.466,10.330 14.516 C 9.454 14.581,8.776 14.453,8.128 14.099 C 7.230 13.608,6.522 12.717,6.337 11.843 C 6.270 11.527,6.263 10.647,6.325 10.352 C 6.419 9.903,6.794 9.243,7.166 8.870 C 7.392 8.644,7.815 8.367,9.664 7.231 C 12.076 5.749,12.869 5.288,13.185 5.184 C 13.750 4.999,14.334 4.972,15.082 5.099 " fill="#373B4D" stroke="none" fill-rule="evenodd"></path></svg>