<svg width="24" height="24" viewBox="0 0 24 24" fill="none" xmlns="http://www.w3.org/2000/svg"><path d="M12.920 2.138 C 12.361 2.256,11.889 2.464,11.080 2.951 C 10.085 3.550,6.640 5.859,6.240 6.195 C 5.405 6.897,4.891 7.634,4.548 8.621 C 4.315 9.292,4.267 9.604,4.266 10.460 C 4.264 11.316,4.283 11.434,4.549 12.260 C 4.784 12.987,4.784 13.073,4.551 13.600 C 4.124 14.565,4.017 15.140,4.053 16.280 C 4.085 17.272,4.192 17.723,4.601 18.580 C 5.210 19.855,6.151 20.791,7.459 21.421 C 8.334 21.842,9.017 21.978,10.120 21.948 C 10.698 21.933,10.886 21.912,11.200 21.829 C 12.092 21.594,12.390 21.432,14.562 19.999 C 17.855 17.827,18.270 17.506,18.793 16.724 C 19.349 15.892,19.681 14.883,19.746 13.829 C 19.789 13.124,19.627 12.210,19.309 11.367 L 19.169 10.993 19.342 10.623 C 19.613 10.042,19.868 9.236,19.923 8.787 C 19.952 8.544,19.963 8.120,19.950 7.667 C 19.928 6.909,19.861 6.541,19.639 5.960 C 18.932 4.112,17.283 2.618,15.480 2.192 C 15.033 2.087,13.334 2.051,12.920 2.138 M14.660 5.079 C 15.370 5.126,15.744 5.253,16.400 5.671 C 17.057 6.090,17.742 7.033,17.883 7.713 C 17.975 8.159,17.878 9.576,17.745 9.708 C 17.734 9.719,17.575 9.638,17.392 9.528 C 16.946 9.259,16.233 8.912,15.841 8.773 L 15.520 8.660 15.520 8.476 C 15.520 8.247,15.461 8.069,15.311 7.850 C 15.098 7.536,14.543 7.307,14.213 7.397 C 13.994 7.456,13.324 7.838,11.692 8.832 C 9.031 10.454,8.890 10.556,8.776 10.947 C 8.676 11.293,8.749 11.539,9.047 11.863 C 9.235 12.067,9.562 12.208,9.850 12.209 C 10.089 12.209,10.396 12.065,11.280 11.538 C 12.252 10.958,12.931 10.622,13.262 10.558 C 13.708 10.470,14.631 10.490,15.020 10.595 C 15.908 10.834,16.690 11.398,17.177 12.151 C 17.569 12.757,17.694 13.196,17.695 13.980 C 17.696 14.697,17.571 15.115,17.187 15.680 C 16.830 16.204,16.558 16.407,14.580 17.626 C 12.163 19.115,11.132 19.704,10.680 19.856 C 10.402 19.949,9.557 19.986,9.074 19.926 C 8.416 19.845,7.694 19.485,7.151 18.967 C 6.281 18.136,5.952 17.250,6.079 16.080 C 6.129 15.621,6.182 15.376,6.239 15.340 C 6.260 15.328,6.502 15.446,6.778 15.603 C 7.053 15.761,7.535 15.993,7.849 16.119 L 8.418 16.350 8.470 16.605 C 8.585 17.180,8.817 17.450,9.327 17.605 C 9.583 17.683,9.608 17.684,9.791 17.623 C 10.071 17.530,10.769 17.133,12.240 16.229 C 13.793 15.275,14.726 14.667,14.960 14.455 C 15.167 14.269,15.240 14.109,15.240 13.845 C 15.240 13.577,15.127 13.333,14.913 13.136 C 14.659 12.902,14.431 12.825,14.065 12.848 C 13.769 12.867,13.768 12.868,12.894 13.384 C 11.773 14.046,11.117 14.376,10.763 14.456 C 10.442 14.530,9.677 14.541,9.280 14.479 C 8.165 14.303,7.146 13.567,6.624 12.560 C 6.337 12.007,6.312 11.875,6.327 10.989 L 6.340 10.220 6.491 9.904 C 6.830 9.194,7.108 8.877,7.801 8.414 C 8.893 7.682,12.146 5.707,12.780 5.391 C 13.217 5.173,13.387 5.115,13.700 5.079 C 14.049 5.038,14.049 5.038,14.660 5.079 " fill="#373B4D" stroke="none" fill-rule="evenodd"></path></svg>