<svg width="24" height="24" viewBox="0 0 24 24" fill="none" xmlns="http://www.w3.org/2000/svg"><path d="M13.300 2.078 C 12.429 2.180,11.818 2.452,10.406 3.367 C 9.414 4.010,6.829 5.746,6.445 6.028 C 6.036 6.328,5.421 6.953,5.185 7.311 C 4.777 7.928,4.480 8.651,4.333 9.389 C 4.281 9.646,4.262 9.937,4.261 10.480 C 4.260 11.320,4.290 11.497,4.583 12.368 C 4.680 12.659,4.760 12.954,4.760 13.023 C 4.760 13.093,4.677 13.328,4.576 13.545 C 4.161 14.438,4.040 15.005,4.040 16.065 C 4.040 17.115,4.177 17.710,4.638 18.660 C 5.217 19.851,6.084 20.723,7.325 21.360 C 8.168 21.794,8.896 21.963,9.920 21.963 C 10.672 21.963,11.012 21.912,11.636 21.701 C 12.325 21.469,12.548 21.337,15.180 19.591 C 18.095 17.658,18.336 17.461,18.933 16.509 C 19.533 15.554,19.842 14.218,19.729 13.073 C 19.678 12.552,19.507 11.858,19.304 11.345 L 19.164 10.990 19.277 10.765 C 19.479 10.363,19.755 9.628,19.842 9.261 C 20.011 8.549,20.010 7.265,19.840 6.600 C 19.405 4.897,18.216 3.413,16.662 2.631 C 15.859 2.227,15.263 2.084,14.280 2.061 C 13.895 2.052,13.454 2.060,13.300 2.078 M15.280 5.138 C 15.669 5.234,16.297 5.560,16.662 5.853 C 17.226 6.307,17.693 6.999,17.869 7.640 C 17.976 8.032,17.965 8.946,17.848 9.395 C 17.799 9.580,17.760 9.736,17.760 9.743 C 17.760 9.749,17.603 9.656,17.412 9.536 C 16.970 9.259,16.276 8.920,15.850 8.773 L 15.520 8.660 15.520 8.472 C 15.520 7.915,15.106 7.466,14.513 7.379 C 14.178 7.330,14.063 7.389,11.940 8.678 C 9.202 10.341,8.956 10.509,8.831 10.791 C 8.716 11.052,8.698 11.270,8.778 11.461 C 8.944 11.860,9.192 12.079,9.599 12.183 C 9.986 12.282,10.128 12.225,11.454 11.435 C 12.361 10.895,12.789 10.678,13.140 10.582 C 13.475 10.490,14.282 10.456,14.663 10.518 C 15.819 10.704,16.807 11.402,17.336 12.404 C 17.609 12.921,17.686 13.214,17.710 13.822 C 17.733 14.418,17.662 14.795,17.439 15.261 C 17.259 15.638,16.865 16.142,16.591 16.343 C 15.958 16.809,11.784 19.355,11.180 19.643 C 10.570 19.935,10.384 19.971,9.580 19.950 C 9.014 19.936,8.853 19.918,8.620 19.843 C 7.688 19.541,6.933 18.937,6.441 18.098 C 6.103 17.521,5.986 16.863,6.076 16.041 C 6.130 15.544,6.185 15.320,6.253 15.320 C 6.280 15.320,6.473 15.422,6.681 15.546 C 7.133 15.816,7.602 16.041,8.074 16.215 L 8.420 16.343 8.453 16.521 C 8.560 17.103,8.715 17.346,9.094 17.523 C 9.230 17.587,9.422 17.650,9.521 17.662 C 9.809 17.700,10.235 17.469,12.748 15.916 C 14.677 14.723,15.047 14.462,15.177 14.202 C 15.390 13.779,15.143 13.174,14.662 12.939 C 14.466 12.843,14.406 12.833,14.109 12.846 L 13.777 12.860 13.238 13.178 C 11.012 14.494,10.947 14.520,9.931 14.520 C 9.369 14.520,8.971 14.451,8.512 14.274 C 7.576 13.914,6.715 13.022,6.412 12.100 C 6.316 11.806,6.307 11.722,6.304 11.080 C 6.300 10.320,6.311 10.260,6.545 9.788 C 6.718 9.440,6.944 9.107,7.158 8.886 C 7.412 8.625,8.992 7.618,11.578 6.069 C 13.220 5.085,13.368 5.031,14.380 5.057 C 14.780 5.067,15.117 5.098,15.280 5.138 " fill="#373B4D" stroke="none" fill-rule="evenodd"></path></svg>