<svg width="24" height="24" viewBox="0 0 24 24" fill="none" xmlns="http://www.w3.org/2000/svg"><path d="M14.200 4.140 C 14.200 4.151,14.345 4.408,14.523 4.710 C 14.923 5.393,15.386 6.333,15.581 6.860 C 15.740 7.290,15.961 8.114,16.047 8.600 C 16.131 9.076,16.118 10.881,16.027 11.340 C 15.949 11.730,15.768 12.429,15.723 12.511 C 15.671 12.608,14.445 11.777,12.580 10.380 C 11.127 9.291,9.696 8.085,7.932 6.465 C 7.546 6.110,7.211 5.813,7.188 5.804 C 7.123 5.780,7.275 6.020,7.678 6.574 C 8.473 7.671,9.518 8.978,10.794 10.472 C 11.686 11.517,11.818 11.680,11.774 11.680 C 11.693 11.680,10.320 10.750,9.300 10.005 C 8.469 9.397,7.507 8.654,6.228 7.630 C 5.573 7.105,5.007 6.665,4.972 6.651 C 4.880 6.616,5.053 6.859,5.724 7.703 C 7.970 10.531,9.925 12.603,12.388 14.767 C 12.811 15.138,13.166 15.458,13.178 15.477 C 13.256 15.603,11.786 16.170,10.940 16.341 C 10.495 16.430,9.490 16.477,8.800 16.440 C 7.293 16.359,5.630 15.813,3.887 14.825 C 3.506 14.609,3.184 14.442,3.173 14.454 C 3.092 14.535,4.355 15.959,5.232 16.775 C 6.869 18.298,8.935 19.315,11.229 19.727 C 11.672 19.807,11.873 19.819,12.740 19.819 C 14.211 19.819,14.446 19.763,16.823 18.846 C 17.472 18.595,17.682 18.561,18.561 18.560 L 19.262 18.560 19.512 18.708 C 19.767 18.859,20.315 19.366,20.650 19.760 C 20.802 19.940,20.844 19.969,20.877 19.920 C 20.998 19.740,20.977 18.512,20.844 17.993 C 20.672 17.324,20.270 16.425,19.788 15.632 C 19.534 15.215,19.528 15.201,19.566 15.033 C 19.646 14.677,19.755 13.844,19.781 13.400 C 19.929 10.771,18.420 7.593,16.021 5.487 C 15.563 5.085,14.880 4.552,14.433 4.247 C 14.249 4.123,14.200 4.100,14.200 4.140 " fill="#373B4D" stroke="none" fill-rule="evenodd"></path></svg>