<svg width="24" height="24" viewBox="0 0 24 24" fill="none" xmlns="http://www.w3.org/2000/svg"><path d="M14.168 4.104 C 14.179 4.124,14.314 4.347,14.467 4.600 C 15.018 5.510,15.347 6.184,15.644 7.010 C 16.258 8.717,16.320 10.584,15.818 12.230 L 15.716 12.564 15.508 12.444 C 14.834 12.056,12.585 10.431,11.380 9.462 C 10.207 8.519,8.571 7.080,7.291 5.865 C 7.198 5.777,7.112 5.715,7.100 5.727 C 7.061 5.766,8.232 7.351,9.135 8.480 C 9.719 9.210,10.448 10.079,11.181 10.920 C 11.535 11.327,11.841 11.686,11.860 11.718 C 11.902 11.789,11.746 11.695,11.040 11.225 C 9.519 10.214,7.623 8.784,5.594 7.117 C 5.219 6.808,4.902 6.565,4.890 6.577 C 4.849 6.617,5.747 7.767,6.955 9.220 C 8.645 11.254,10.441 13.095,12.278 14.676 C 12.728 15.063,13.123 15.401,13.157 15.426 C 13.255 15.500,13.156 15.575,12.688 15.781 C 11.663 16.231,10.862 16.420,9.789 16.465 C 7.807 16.548,5.761 15.963,3.733 14.735 C 3.143 14.377,3.093 14.355,3.157 14.474 C 3.274 14.694,4.067 15.634,4.557 16.136 C 5.723 17.329,6.674 18.028,8.053 18.703 C 9.124 19.229,10.225 19.574,11.440 19.765 C 12.369 19.912,13.396 19.887,14.360 19.695 C 14.848 19.598,15.288 19.452,16.220 19.079 C 17.617 18.519,17.530 18.540,18.440 18.541 L 19.220 18.541 19.460 18.667 C 19.867 18.881,20.348 19.337,20.688 19.831 C 20.802 19.997,20.817 20.006,20.864 19.941 C 20.949 19.825,20.971 19.557,20.949 18.889 C 20.933 18.379,20.910 18.194,20.829 17.913 C 20.608 17.145,20.250 16.357,19.806 15.658 L 19.524 15.215 19.618 14.752 C 19.992 12.911,19.765 11.188,18.904 9.328 C 18.061 7.508,16.801 5.989,15.046 4.679 C 14.502 4.273,14.124 4.025,14.168 4.104 " fill="#373B4D" stroke="none" fill-rule="evenodd"></path></svg>