<svg width="24" height="24" viewBox="0 0 24 24" fill="none" xmlns="http://www.w3.org/2000/svg"><path d="M14.141 4.082 C 14.161 4.114,14.314 4.350,14.482 4.607 C 14.849 5.169,15.284 6.011,15.534 6.640 C 16.302 8.581,16.398 10.677,15.795 12.329 L 15.711 12.558 15.525 12.452 C 15.423 12.394,14.983 12.106,14.547 11.813 C 12.292 10.296,9.681 8.166,7.642 6.180 C 6.877 5.435,6.861 5.431,7.333 6.100 C 8.396 7.606,10.115 9.754,11.299 11.057 C 11.498 11.276,11.741 11.545,11.840 11.656 L 12.020 11.857 11.860 11.761 C 11.519 11.555,10.348 10.764,9.680 10.287 C 8.237 9.257,6.514 7.912,5.364 6.920 C 5.025 6.628,4.763 6.414,4.780 6.444 C 4.903 6.656,5.367 7.301,5.541 7.501 C 5.657 7.634,6.034 8.093,6.379 8.521 C 7.655 10.105,8.585 11.152,9.854 12.434 C 10.993 13.584,12.057 14.544,13.010 15.281 C 13.136 15.379,13.240 15.471,13.240 15.487 C 13.240 15.539,12.258 15.996,11.880 16.119 C 9.880 16.770,7.549 16.566,5.206 15.534 C 4.440 15.196,3.932 14.902,3.111 14.321 C 2.857 14.141,3.760 15.339,4.376 16.000 C 6.299 18.062,8.890 19.439,11.480 19.776 C 12.217 19.872,12.700 19.889,13.320 19.842 C 14.410 19.759,15.316 19.519,16.263 19.061 C 17.133 18.640,17.756 18.471,18.440 18.468 C 19.197 18.465,19.659 18.653,20.180 19.179 C 20.356 19.357,20.563 19.614,20.640 19.750 C 20.717 19.887,20.798 19.993,20.820 19.987 C 20.842 19.980,20.887 19.921,20.920 19.857 C 21.021 19.660,21.002 18.642,20.887 18.126 C 20.689 17.239,20.335 16.427,19.811 15.662 L 19.511 15.225 19.595 14.882 C 19.765 14.190,19.808 13.752,19.788 12.920 C 19.765 11.905,19.639 11.221,19.299 10.242 C 18.527 8.024,16.870 5.903,14.789 4.468 C 14.303 4.133,14.097 4.010,14.141 4.082 " fill="#373B4D" stroke="none" fill-rule="evenodd"></path></svg>