<svg width="24" height="24" viewBox="0 0 24 24" fill="none" xmlns="http://www.w3.org/2000/svg"><path d="M14.160 4.098 C 14.160 4.108,14.274 4.293,14.413 4.508 C 15.112 5.588,15.621 6.710,15.898 7.780 C 16.285 9.274,16.263 10.907,15.836 12.189 L 15.714 12.559 15.596 12.498 C 15.382 12.388,13.911 11.385,13.233 10.888 C 11.344 9.504,9.413 7.881,7.726 6.262 C 7.367 5.917,7.063 5.644,7.051 5.655 C 7.007 5.700,8.301 7.444,9.341 8.740 C 9.987 9.545,10.938 10.664,11.570 11.360 C 11.780 11.591,11.945 11.787,11.937 11.795 C 11.919 11.815,10.797 11.073,10.020 10.528 C 8.654 9.570,6.615 7.991,5.373 6.930 C 5.084 6.682,4.835 6.480,4.821 6.480 C 4.771 6.480,5.301 7.211,5.718 7.717 C 5.950 7.998,6.449 8.604,6.827 9.064 C 7.672 10.092,8.065 10.542,8.894 11.435 C 10.052 12.681,11.633 14.178,12.660 15.000 C 12.836 15.141,13.038 15.310,13.109 15.375 C 13.236 15.492,13.237 15.495,13.156 15.551 C 13.003 15.659,12.129 16.033,11.746 16.156 C 11.125 16.355,10.546 16.445,9.734 16.469 C 8.667 16.500,7.775 16.386,6.727 16.084 C 5.679 15.782,4.474 15.233,3.621 14.668 C 3.336 14.479,3.096 14.331,3.087 14.339 C 3.063 14.364,3.305 14.704,3.712 15.220 C 4.200 15.839,5.248 16.878,5.860 17.352 C 7.723 18.795,9.848 19.645,12.080 19.841 C 12.935 19.916,13.901 19.829,14.800 19.597 C 15.234 19.485,15.816 19.263,16.677 18.881 C 16.885 18.789,17.227 18.667,17.437 18.608 C 17.771 18.516,17.897 18.502,18.420 18.501 C 19.100 18.500,19.317 18.547,19.674 18.772 C 19.965 18.956,20.408 19.403,20.624 19.730 C 20.722 19.878,20.810 20.000,20.820 20.000 C 20.830 20.000,20.870 19.942,20.908 19.870 C 21.005 19.691,21.003 18.734,20.904 18.223 C 20.745 17.399,20.348 16.469,19.823 15.683 L 19.517 15.227 19.619 14.775 C 19.770 14.099,19.814 13.591,19.786 12.840 C 19.757 12.089,19.690 11.615,19.519 10.972 C 18.837 8.403,17.055 6.000,14.611 4.355 C 14.220 4.092,14.160 4.058,14.160 4.098 " fill="#373B4D" stroke="none" fill-rule="evenodd"></path></svg>