<svg width="24" height="24" viewBox="0 0 24 24" fill="none" xmlns="http://www.w3.org/2000/svg"><path d="M14.238 4.222 C 15.135 5.707,15.596 6.707,15.859 7.734 C 16.072 8.567,16.131 9.036,16.131 9.920 C 16.132 10.890,16.062 11.384,15.795 12.292 L 15.715 12.565 15.528 12.456 C 14.788 12.026,12.317 10.231,11.160 9.284 C 10.050 8.375,8.352 6.878,7.351 5.925 C 7.247 5.826,7.152 5.755,7.140 5.766 C 7.112 5.795,7.592 6.479,8.225 7.310 C 9.112 8.475,9.901 9.439,11.180 10.920 C 11.545 11.343,11.834 11.699,11.823 11.711 C 11.792 11.741,10.332 10.757,9.393 10.073 C 8.430 9.372,7.179 8.405,6.061 7.498 C 5.054 6.681,4.920 6.579,4.920 6.627 C 4.920 6.715,6.164 8.284,7.260 9.580 C 8.851 11.460,10.851 13.466,12.720 15.055 C 12.973 15.271,13.186 15.462,13.192 15.480 C 13.226 15.573,12.270 15.987,11.542 16.196 C 10.873 16.387,10.328 16.455,9.440 16.457 C 9.003 16.459,8.502 16.437,8.300 16.408 C 6.689 16.176,5.293 15.662,3.680 14.705 C 3.405 14.542,3.174 14.425,3.167 14.444 C 3.149 14.491,3.269 14.654,3.736 15.220 C 4.230 15.819,5.290 16.878,5.822 17.303 C 7.774 18.866,10.416 19.849,12.660 19.848 C 13.994 19.847,14.644 19.704,16.314 19.042 C 17.545 18.553,17.515 18.560,18.449 18.560 L 19.249 18.560 19.493 18.690 C 19.779 18.842,20.349 19.371,20.601 19.717 C 20.698 19.851,20.800 19.960,20.827 19.960 C 20.932 19.960,20.970 19.633,20.948 18.940 C 20.929 18.369,20.909 18.203,20.822 17.906 C 20.596 17.135,20.243 16.361,19.782 15.623 L 19.530 15.220 19.623 14.720 C 19.997 12.718,19.736 11.011,18.755 9.040 C 17.926 7.374,16.781 6.009,15.200 4.804 C 14.800 4.500,14.396 4.214,14.202 4.099 C 14.166 4.078,14.180 4.126,14.238 4.222 " fill="#373B4D" stroke="none" fill-rule="evenodd"></path></svg>