<svg width="24" height="24" viewBox="0 0 24 24" fill="none" xmlns="http://www.w3.org/2000/svg"><path d="M14.228 4.206 C 14.272 4.280,14.441 4.556,14.602 4.820 C 15.170 5.751,15.650 6.849,15.882 7.746 C 16.065 8.459,16.123 8.875,16.148 9.660 C 16.180 10.667,16.098 11.328,15.837 12.173 L 15.716 12.565 15.528 12.457 C 15.425 12.397,15.016 12.128,14.620 11.859 C 12.320 10.297,10.232 8.610,7.943 6.466 C 7.482 6.034,7.097 5.690,7.086 5.701 C 7.061 5.726,7.267 6.025,7.849 6.808 C 8.975 8.324,10.065 9.659,11.575 11.371 C 11.765 11.586,11.920 11.770,11.920 11.781 C 11.920 11.791,11.753 11.693,11.550 11.562 C 9.909 10.507,7.647 8.820,5.687 7.190 C 5.239 6.818,4.865 6.521,4.856 6.531 C 4.808 6.579,5.773 7.806,7.271 9.600 C 8.027 10.506,8.926 11.486,9.860 12.423 C 10.926 13.493,11.593 14.110,12.530 14.890 C 12.898 15.197,13.200 15.464,13.200 15.483 C 13.200 15.539,13.049 15.623,12.600 15.821 C 11.599 16.259,10.860 16.427,9.760 16.467 C 7.656 16.543,5.548 15.906,3.449 14.560 C 3.267 14.444,3.110 14.356,3.100 14.367 C 3.064 14.402,3.838 15.387,4.246 15.824 C 5.093 16.733,5.796 17.345,6.610 17.884 C 8.324 19.019,10.108 19.657,12.080 19.841 C 12.626 19.892,13.218 19.870,13.880 19.775 C 14.725 19.653,15.205 19.507,16.342 19.028 C 16.737 18.861,17.227 18.677,17.430 18.618 C 17.781 18.518,17.840 18.513,18.513 18.526 L 19.224 18.540 19.501 18.680 C 19.827 18.845,20.376 19.363,20.635 19.750 C 20.728 19.887,20.812 20.000,20.824 20.000 C 20.835 20.000,20.873 19.933,20.909 19.850 C 20.999 19.643,20.994 18.667,20.901 18.220 C 20.731 17.398,20.317 16.440,19.768 15.595 L 19.519 15.211 19.583 14.935 C 19.896 13.589,19.858 12.127,19.476 10.821 C 19.084 9.483,18.355 8.093,17.453 6.965 C 17.049 6.460,16.200 5.596,15.707 5.186 C 15.284 4.836,14.459 4.233,14.265 4.132 L 14.147 4.071 14.228 4.206 " fill="#373B4D" stroke="none" fill-rule="evenodd"></path></svg>