<svg width="24" height="24" viewBox="0 0 24 24" fill="none" xmlns="http://www.w3.org/2000/svg"><path d="M15.034 2.675 C 14.629 2.932,14.440 3.242,14.440 3.649 C 14.440 3.912,14.566 4.099,15.428 5.113 C 15.703 5.436,15.952 5.748,15.983 5.807 C 16.036 5.909,16.034 5.915,15.929 5.936 C 15.780 5.966,13.942 6.031,11.840 6.079 C 9.893 6.124,9.369 6.149,9.149 6.205 C 8.793 6.296,8.510 6.730,8.506 7.193 C 8.503 7.538,8.593 7.728,8.942 8.110 L 9.206 8.400 12.746 8.400 L 16.286 8.400 15.726 8.990 C 14.765 10.003,14.520 10.348,14.489 10.739 C 14.442 11.322,14.999 11.931,15.579 11.931 C 16.018 11.931,16.303 11.701,18.163 9.842 C 19.544 8.463,20.106 7.853,20.227 7.603 C 20.326 7.397,20.345 7.004,20.263 6.832 C 20.162 6.618,19.631 6.027,18.622 5.005 C 17.628 3.997,16.722 3.139,16.353 2.855 C 16.059 2.629,15.861 2.560,15.503 2.560 C 15.255 2.560,15.191 2.576,15.034 2.675 M8.100 12.125 C 7.893 12.184,7.482 12.529,6.512 13.457 C 5.521 14.407,4.318 15.652,4.026 16.033 C 3.532 16.676,3.540 16.954,4.072 17.620 C 4.399 18.028,7.371 20.988,7.697 21.229 C 8.007 21.458,8.237 21.540,8.492 21.511 C 8.746 21.482,8.955 21.369,9.186 21.134 C 9.440 20.876,9.541 20.613,9.508 20.293 C 9.470 19.929,9.278 19.667,8.228 18.550 L 7.711 18.000 11.252 18.000 L 14.793 18.000 15.040 17.730 C 15.428 17.308,15.495 17.168,15.498 16.783 C 15.500 16.391,15.448 16.290,15.045 15.910 L 14.771 15.652 11.676 15.626 C 8.411 15.598,7.960 15.582,7.960 15.500 C 7.960 15.472,8.199 15.164,8.491 14.815 C 9.482 13.631,9.538 13.538,9.512 13.136 C 9.478 12.597,9.044 12.217,8.340 12.109 C 8.274 12.099,8.166 12.106,8.100 12.125 " fill="#373B4D" stroke="none" fill-rule="evenodd"></path></svg>