<svg width="24" height="24" viewBox="0 0 24 24" fill="none" xmlns="http://www.w3.org/2000/svg"><path d="M15.078 2.599 C 14.921 2.682,14.641 2.940,14.538 3.097 C 14.495 3.163,14.464 3.319,14.450 3.536 C 14.431 3.840,14.438 3.888,14.522 4.024 C 14.644 4.221,14.933 4.571,15.357 5.036 C 15.981 5.720,16.122 5.894,16.084 5.932 C 16.047 5.969,14.668 6.009,11.093 6.074 L 9.206 6.109 9.029 6.212 C 8.703 6.404,8.468 6.807,8.465 7.180 C 8.462 7.572,8.637 7.885,9.054 8.230 L 9.259 8.400 12.773 8.400 L 16.288 8.400 15.699 9.010 C 15.058 9.675,14.682 10.121,14.558 10.364 C 14.224 11.019,14.744 11.879,15.516 11.949 C 15.998 11.993,16.278 11.773,18.240 9.805 C 19.803 8.237,20.142 7.861,20.284 7.540 C 20.383 7.316,20.376 7.027,20.265 6.794 C 20.150 6.556,19.540 5.893,18.203 4.558 C 16.913 3.269,16.309 2.726,16.022 2.595 C 15.796 2.493,15.275 2.495,15.078 2.599 M7.896 12.185 C 7.342 12.558,4.822 15.038,4.000 16.020 C 3.782 16.279,3.641 16.579,3.641 16.780 C 3.641 17.159,3.903 17.520,5.026 18.687 C 6.485 20.203,7.635 21.272,7.994 21.448 C 8.271 21.583,8.597 21.573,8.875 21.420 C 9.129 21.281,9.426 20.957,9.481 20.760 C 9.537 20.557,9.529 20.139,9.465 19.987 C 9.391 19.808,9.025 19.378,8.313 18.630 L 7.713 18.000 11.253 18.000 L 14.792 18.000 15.102 17.670 C 15.273 17.489,15.437 17.282,15.466 17.211 C 15.540 17.036,15.535 16.553,15.458 16.369 C 15.387 16.198,15.136 15.925,14.893 15.756 L 14.726 15.640 12.613 15.639 C 10.540 15.637,7.932 15.586,7.892 15.545 C 7.862 15.516,7.978 15.374,8.513 14.784 C 9.343 13.868,9.506 13.631,9.547 13.287 C 9.577 13.030,9.506 12.800,9.326 12.572 C 9.137 12.334,8.857 12.177,8.519 12.123 C 8.141 12.061,8.068 12.069,7.896 12.185 " fill="#373B4D" stroke="none" fill-rule="evenodd"></path></svg>