<svg width="24" height="24" viewBox="0 0 24 24" fill="none" xmlns="http://www.w3.org/2000/svg"><path d="M6.691 3.759 C 6.394 3.940,3.714 6.589,2.970 7.437 C 2.500 7.972,2.405 8.253,2.540 8.706 C 2.661 9.116,3.006 9.422,3.460 9.523 C 3.635 9.562,3.689 9.557,3.889 9.481 C 4.205 9.362,4.468 9.157,5.290 8.384 L 6.000 7.717 6.000 11.230 L 6.000 14.742 6.310 15.047 C 6.665 15.396,6.805 15.478,7.099 15.508 C 7.452 15.545,7.678 15.442,8.067 15.069 L 8.400 14.749 8.400 11.231 L 8.400 7.713 8.950 8.233 C 10.032 9.255,10.445 9.560,10.746 9.560 C 10.818 9.560,10.981 9.521,11.107 9.474 C 11.557 9.306,11.928 8.825,11.936 8.400 C 11.943 8.065,11.790 7.843,10.925 6.933 C 9.992 5.953,8.633 4.613,8.180 4.225 C 7.806 3.906,7.654 3.821,7.311 3.740 C 6.975 3.661,6.845 3.665,6.691 3.759 M16.165 8.712 C 15.879 8.928,15.766 9.096,15.719 9.382 C 15.669 9.680,15.602 11.955,15.601 13.360 C 15.600 14.671,15.557 16.160,15.520 16.160 C 15.505 16.160,15.289 15.976,15.041 15.750 C 14.284 15.061,13.843 14.691,13.702 14.624 C 13.607 14.579,13.451 14.560,13.170 14.560 C 12.797 14.560,12.762 14.567,12.616 14.673 C 12.146 15.014,11.950 15.589,12.159 16.017 C 12.277 16.258,12.868 16.905,14.048 18.082 C 15.628 19.659,16.335 20.273,16.647 20.341 C 16.829 20.381,17.095 20.290,17.435 20.069 C 17.669 19.917,18.152 19.459,19.504 18.106 C 20.626 16.982,21.309 16.267,21.384 16.140 C 21.488 15.961,21.500 15.903,21.500 15.597 C 21.500 15.285,21.489 15.236,21.380 15.060 C 21.314 14.953,21.173 14.803,21.067 14.727 C 20.845 14.567,20.652 14.534,20.190 14.578 C 19.924 14.603,19.873 14.623,19.658 14.783 C 19.528 14.881,19.101 15.258,18.711 15.621 L 18.000 16.282 18.000 12.745 L 18.000 9.209 17.757 8.984 C 17.392 8.646,17.255 8.587,16.780 8.568 L 16.379 8.552 16.165 8.712 " fill="#373B4D" stroke="none" fill-rule="evenodd"></path></svg>