<svg width="24" height="24" viewBox="0 0 24 24" fill="none" xmlns="http://www.w3.org/2000/svg"><path d="M15.356 2.436 C 15.129 2.482,14.792 2.693,14.650 2.877 C 14.385 3.221,14.335 3.718,14.526 4.112 C 14.587 4.239,14.885 4.572,15.448 5.144 L 16.280 5.988 12.785 6.009 L 9.289 6.030 9.041 6.163 C 8.170 6.627,8.211 7.844,9.112 8.287 L 9.300 8.380 12.795 8.391 L 16.289 8.403 15.453 9.252 C 14.488 10.231,14.423 10.328,14.421 10.800 C 14.420 11.034,14.440 11.141,14.513 11.288 C 14.780 11.831,15.374 12.106,15.928 11.945 C 16.120 11.889,16.221 11.815,16.665 11.405 C 17.402 10.725,19.955 8.141,20.148 7.880 C 20.356 7.598,20.416 7.409,20.389 7.115 C 20.348 6.665,20.332 6.646,18.263 4.576 C 16.651 2.963,16.304 2.636,16.120 2.549 C 15.878 2.435,15.578 2.391,15.356 2.436 M8.180 12.039 C 7.832 12.096,7.697 12.214,5.835 14.075 C 4.832 15.079,3.936 16.001,3.844 16.125 C 3.529 16.551,3.531 17.054,3.849 17.478 C 4.050 17.746,6.669 20.396,7.331 21.001 C 7.877 21.501,8.006 21.574,8.342 21.575 C 8.753 21.575,8.948 21.497,9.223 21.223 C 9.499 20.946,9.576 20.750,9.572 20.337 C 9.569 19.946,9.454 19.781,8.525 18.832 L 7.710 18.000 11.187 18.000 L 14.664 18.000 14.871 17.897 C 14.984 17.841,15.165 17.698,15.272 17.581 C 15.803 17.000,15.624 16.097,14.906 15.733 L 14.703 15.630 11.213 15.609 L 7.722 15.588 8.531 14.762 C 9.450 13.823,9.567 13.656,9.574 13.266 C 9.580 12.898,9.498 12.667,9.275 12.422 C 8.990 12.110,8.592 11.971,8.180 12.039 " fill="#373B4D" stroke="none" fill-rule="evenodd"></path></svg>