<svg width="24" height="24" viewBox="0 0 24 24" fill="none" xmlns="http://www.w3.org/2000/svg"><path d="M6.093 4.276 C 5.382 4.946,3.760 6.574,3.086 7.295 C 2.572 7.846,2.480 8.005,2.480 8.345 C 2.480 8.870,2.671 9.192,3.111 9.408 C 3.462 9.581,3.724 9.587,4.044 9.430 C 4.304 9.302,4.514 9.126,5.370 8.312 L 6.000 7.713 6.000 11.235 L 6.000 14.756 6.310 15.072 C 6.548 15.315,6.666 15.404,6.817 15.454 C 7.339 15.628,7.796 15.458,8.228 14.929 L 8.400 14.717 8.400 11.209 L 8.400 7.702 8.750 8.043 C 9.563 8.837,10.177 9.367,10.436 9.499 C 10.615 9.590,10.958 9.567,11.204 9.448 C 11.819 9.150,12.104 8.513,11.851 8.000 C 11.717 7.727,11.213 7.172,10.013 5.974 C 8.803 4.765,7.982 4.002,7.738 3.858 C 7.581 3.765,7.179 3.682,6.873 3.681 C 6.738 3.680,6.674 3.729,6.093 4.276 M16.366 8.563 C 16.293 8.586,16.128 8.707,16.001 8.832 C 15.803 9.026,15.762 9.093,15.721 9.280 C 15.660 9.562,15.604 11.941,15.602 14.370 C 15.601 15.399,15.589 16.240,15.575 16.240 C 15.561 16.240,15.287 15.991,14.965 15.687 C 14.286 15.046,13.897 14.713,13.712 14.613 C 13.613 14.560,13.485 14.542,13.200 14.541 C 12.856 14.540,12.802 14.551,12.633 14.650 C 12.246 14.877,12.060 15.242,12.087 15.718 C 12.101 15.967,12.117 16.008,12.277 16.216 C 12.579 16.608,13.628 17.704,14.623 18.667 C 16.065 20.064,16.437 20.360,16.752 20.360 C 16.942 20.360,17.258 20.226,17.501 20.043 C 18.067 19.615,21.072 16.605,21.388 16.148 C 21.492 15.998,21.500 15.958,21.500 15.600 C 21.500 15.240,21.492 15.201,21.380 15.022 C 21.300 14.895,21.181 14.783,21.023 14.686 C 20.792 14.544,20.776 14.540,20.403 14.543 C 20.125 14.545,19.984 14.564,19.891 14.613 C 19.701 14.713,19.256 15.094,18.590 15.726 L 18.000 16.286 18.000 12.765 L 18.000 9.245 17.774 9.000 C 17.439 8.639,17.279 8.559,16.852 8.538 C 16.659 8.529,16.440 8.540,16.366 8.563 " fill="#373B4D" stroke="none" fill-rule="evenodd"></path></svg>