<svg width="24" height="24" viewBox="0 0 24 24" fill="none" xmlns="http://www.w3.org/2000/svg"><path d="M6.565 3.840 C 6.179 4.145,5.294 4.993,4.244 6.063 C 3.016 7.316,2.617 7.759,2.515 7.980 C 2.422 8.184,2.418 8.561,2.507 8.823 C 2.595 9.081,2.922 9.406,3.184 9.495 C 3.399 9.568,3.749 9.579,3.964 9.519 C 4.144 9.469,4.537 9.136,5.360 8.334 L 6.000 7.710 6.000 11.208 L 6.000 14.706 6.121 14.889 C 6.280 15.129,6.564 15.387,6.772 15.482 C 6.997 15.584,7.403 15.584,7.628 15.482 C 7.836 15.387,8.120 15.129,8.279 14.889 L 8.400 14.706 8.400 11.210 L 8.400 7.713 9.130 8.420 C 10.204 9.462,10.486 9.648,10.888 9.583 C 11.276 9.521,11.714 9.203,11.878 8.863 C 11.980 8.654,11.991 8.178,11.899 7.984 C 11.803 7.780,11.078 6.999,9.802 5.723 C 8.468 4.390,7.894 3.861,7.660 3.755 C 7.543 3.701,7.402 3.682,7.134 3.681 L 6.767 3.680 6.565 3.840 M16.331 8.539 C 16.147 8.619,15.800 8.954,15.728 9.120 C 15.641 9.323,15.605 10.610,15.602 13.695 L 15.600 16.290 14.962 15.668 C 13.858 14.592,13.668 14.461,13.220 14.463 C 12.850 14.466,12.665 14.533,12.428 14.755 C 12.168 14.998,12.078 15.186,12.051 15.541 C 12.023 15.915,12.085 16.050,12.524 16.560 C 12.932 17.036,15.428 19.522,15.882 19.905 C 16.321 20.275,16.507 20.368,16.805 20.368 C 17.137 20.368,17.318 20.265,17.867 19.764 C 18.517 19.171,21.272 16.377,21.420 16.162 C 21.534 15.996,21.540 15.966,21.537 15.599 C 21.535 15.254,21.523 15.191,21.427 15.029 C 21.212 14.661,20.837 14.463,20.360 14.463 C 19.932 14.463,19.711 14.618,18.630 15.675 L 18.000 16.291 18.000 12.792 L 18.000 9.294 17.880 9.112 C 17.705 8.848,17.395 8.573,17.215 8.524 C 16.997 8.463,16.485 8.472,16.331 8.539 " fill="#373B4D" stroke="none" fill-rule="evenodd"></path></svg>