<svg width="24" height="24" viewBox="0 0 24 24" fill="none" xmlns="http://www.w3.org/2000/svg"><path d="M15.186 2.576 C 15.004 2.644,14.695 2.895,14.573 3.076 C 14.476 3.218,14.418 3.566,14.454 3.788 C 14.488 3.998,14.673 4.253,15.378 5.059 C 16.079 5.861,16.108 5.901,16.015 5.936 C 15.942 5.965,14.126 6.021,11.400 6.080 C 10.355 6.102,9.392 6.138,9.260 6.159 C 9.041 6.194,9.002 6.216,8.814 6.416 C 8.563 6.683,8.463 6.945,8.488 7.274 C 8.511 7.583,8.610 7.768,8.934 8.109 L 9.210 8.400 12.751 8.400 L 16.291 8.400 15.835 8.870 C 14.765 9.973,14.461 10.402,14.465 10.800 C 14.472 11.422,15.123 12.029,15.692 11.943 C 16.097 11.883,16.502 11.533,18.484 9.535 C 20.224 7.779,20.335 7.638,20.332 7.172 C 20.330 6.981,20.307 6.885,20.229 6.752 C 19.907 6.203,16.734 3.042,16.152 2.690 C 15.976 2.584,15.882 2.557,15.638 2.539 C 15.431 2.525,15.293 2.536,15.186 2.576 M7.867 12.230 C 7.523 12.463,6.680 13.252,5.498 14.446 C 3.982 15.979,3.712 16.313,3.655 16.735 C 3.599 17.138,3.960 17.598,5.700 19.341 C 7.004 20.648,7.629 21.223,7.940 21.403 C 8.104 21.498,8.187 21.519,8.397 21.520 C 8.734 21.520,8.934 21.422,9.216 21.117 C 9.455 20.860,9.520 20.699,9.518 20.380 C 9.515 19.959,9.409 19.803,8.399 18.728 L 7.715 18.000 11.254 18.000 L 14.793 18.000 15.080 17.690 C 15.444 17.296,15.490 17.207,15.511 16.840 C 15.526 16.569,15.517 16.519,15.412 16.320 C 15.336 16.176,15.205 16.024,15.030 15.877 L 14.763 15.653 11.552 15.626 C 8.314 15.599,7.919 15.585,7.921 15.504 C 7.921 15.480,8.166 15.181,8.466 14.840 C 9.414 13.760,9.540 13.564,9.538 13.180 C 9.536 12.891,9.437 12.679,9.205 12.470 C 8.998 12.282,8.861 12.214,8.552 12.141 C 8.185 12.054,8.112 12.064,7.867 12.230 " fill="#373B4D" stroke="none" fill-rule="evenodd"></path></svg>