<svg width="24" height="24" viewBox="0 0 24 24" fill="none" xmlns="http://www.w3.org/2000/svg"><path d="M6.940 3.637 C 6.590 3.727,6.502 3.805,4.559 5.751 C 2.384 7.930,2.423 7.881,2.421 8.400 C 2.420 8.755,2.514 8.985,2.765 9.235 C 3.014 9.485,3.245 9.580,3.600 9.580 C 4.066 9.580,4.162 9.516,5.146 8.549 L 5.997 7.712 6.009 11.206 L 6.020 14.700 6.113 14.889 C 6.307 15.282,6.793 15.600,7.200 15.600 C 7.607 15.600,8.089 15.285,8.286 14.890 L 8.380 14.700 8.391 11.205 L 8.403 7.711 9.252 8.547 C 10.148 9.430,10.302 9.543,10.671 9.586 C 11.244 9.654,11.837 9.227,11.965 8.654 C 12.028 8.371,11.965 8.011,11.813 7.784 C 11.752 7.694,10.856 6.772,9.821 5.736 C 8.242 4.155,7.905 3.836,7.720 3.750 C 7.482 3.638,7.133 3.588,6.940 3.637 M16.276 8.540 C 16.050 8.657,15.756 8.976,15.680 9.185 C 15.633 9.313,15.621 9.946,15.610 12.814 L 15.597 16.288 14.783 15.487 C 13.813 14.534,13.676 14.441,13.240 14.441 C 12.792 14.440,12.662 14.491,12.380 14.774 C 12.101 15.054,12.020 15.257,12.024 15.660 C 12.029 16.091,12.088 16.165,13.877 17.974 C 15.178 19.288,16.123 20.179,16.334 20.289 C 16.567 20.411,17.032 20.411,17.265 20.290 C 17.355 20.243,17.697 19.953,18.025 19.647 C 18.852 18.874,21.148 16.548,21.352 16.276 C 21.550 16.012,21.605 15.785,21.560 15.417 C 21.522 15.117,21.427 14.948,21.162 14.709 C 20.929 14.500,20.748 14.440,20.355 14.440 C 19.922 14.441,19.778 14.539,18.815 15.488 L 18.007 16.286 17.993 12.793 L 17.980 9.300 17.887 9.111 C 17.770 8.873,17.420 8.551,17.211 8.488 C 16.933 8.405,16.487 8.429,16.276 8.540 " fill="#373B4D" stroke="none" fill-rule="evenodd"></path></svg>