<svg width="24" height="24" viewBox="0 0 24 24" fill="none" xmlns="http://www.w3.org/2000/svg"><path d="M6.737 3.759 C 6.419 3.920,3.452 6.839,2.880 7.554 C 2.486 8.048,2.409 8.333,2.562 8.738 C 2.723 9.165,3.201 9.532,3.600 9.534 C 3.961 9.536,4.303 9.298,5.370 8.304 L 6.000 7.716 6.000 11.234 L 6.000 14.752 6.300 15.033 C 7.008 15.694,7.419 15.679,8.170 14.966 L 8.400 14.748 8.400 11.230 L 8.400 7.712 8.910 8.189 C 9.570 8.807,10.026 9.196,10.311 9.386 C 10.508 9.517,10.571 9.538,10.760 9.537 C 11.300 9.533,11.917 8.928,11.919 8.400 C 11.920 7.983,11.636 7.633,9.822 5.818 C 8.397 4.393,8.052 4.088,7.624 3.881 C 7.212 3.682,6.960 3.647,6.737 3.759 M16.123 8.761 C 15.873 8.968,15.816 9.045,15.755 9.256 C 15.686 9.491,15.642 10.545,15.602 12.920 C 15.558 15.457,15.532 16.131,15.478 16.112 C 15.460 16.105,15.137 15.831,14.760 15.503 C 14.384 15.175,13.984 14.837,13.871 14.753 L 13.666 14.600 13.189 14.600 C 12.719 14.600,12.709 14.602,12.560 14.720 C 12.353 14.884,12.167 15.186,12.112 15.449 C 12.050 15.747,12.113 15.954,12.370 16.298 C 12.773 16.837,15.554 19.591,16.150 20.042 C 16.291 20.148,16.485 20.266,16.580 20.302 C 16.742 20.364,16.767 20.364,16.957 20.301 C 17.285 20.192,17.591 19.959,18.369 19.225 C 19.044 18.587,20.719 16.883,21.192 16.353 C 21.474 16.036,21.493 15.987,21.493 15.600 C 21.493 15.207,21.445 15.086,21.205 14.869 C 20.925 14.616,20.824 14.581,20.400 14.586 C 20.191 14.589,19.974 14.610,19.917 14.632 C 19.764 14.692,19.375 15.015,18.650 15.685 L 18.000 16.285 18.000 12.746 L 18.000 9.206 17.770 9.000 C 17.472 8.733,17.305 8.649,16.972 8.601 C 16.452 8.526,16.392 8.537,16.123 8.761 " fill="#373B4D" stroke="none" fill-rule="evenodd"></path></svg>