<svg width="24" height="24" viewBox="0 0 24 24" fill="none" xmlns="http://www.w3.org/2000/svg"><path d="M15.300 2.540 C 15.278 2.547,15.211 2.564,15.151 2.577 C 15.091 2.590,14.925 2.710,14.783 2.843 C 14.552 3.059,14.520 3.109,14.478 3.310 C 14.369 3.833,14.435 3.987,15.080 4.720 C 15.284 4.951,15.592 5.301,15.765 5.498 C 15.938 5.696,16.080 5.878,16.080 5.903 C 16.080 5.963,15.464 5.990,12.980 6.039 C 8.798 6.121,9.121 6.095,8.825 6.383 C 8.598 6.603,8.481 6.882,8.480 7.202 C 8.480 7.558,8.604 7.798,8.963 8.137 L 9.241 8.400 12.765 8.400 L 16.288 8.400 15.758 8.950 C 14.549 10.204,14.348 10.542,14.500 11.067 C 14.698 11.746,15.405 12.130,15.967 11.863 C 16.263 11.723,16.830 11.210,18.142 9.898 C 20.151 7.888,20.342 7.652,20.338 7.180 C 20.335 6.776,20.267 6.685,18.954 5.320 C 17.999 4.327,16.672 3.058,16.302 2.782 C 16.172 2.685,15.988 2.586,15.895 2.563 C 15.736 2.523,15.391 2.509,15.300 2.540 M7.976 12.143 C 7.703 12.278,6.364 13.535,5.039 14.900 C 3.929 16.044,3.693 16.356,3.650 16.740 C 3.602 17.162,3.951 17.600,5.836 19.483 C 7.167 20.812,7.731 21.320,8.037 21.465 C 8.236 21.560,8.578 21.555,8.803 21.454 C 9.046 21.343,9.375 21.009,9.461 20.783 C 9.513 20.647,9.526 20.526,9.512 20.307 C 9.486 19.902,9.398 19.780,8.271 18.590 L 7.713 18.000 11.252 18.000 L 14.791 18.000 15.030 17.744 C 15.458 17.287,15.490 17.231,15.511 16.908 C 15.521 16.750,15.509 16.546,15.484 16.456 C 15.433 16.265,15.199 15.985,14.929 15.788 L 14.740 15.651 11.600 15.625 C 9.873 15.611,8.330 15.588,8.171 15.575 C 7.918 15.552,7.887 15.541,7.919 15.482 C 7.939 15.445,8.201 15.137,8.503 14.798 C 9.205 14.007,9.420 13.722,9.503 13.472 C 9.703 12.868,9.254 12.263,8.501 12.124 C 8.194 12.067,8.125 12.069,7.976 12.143 " fill="#373B4D" stroke="none" fill-rule="evenodd"></path></svg>