<svg width="24" height="24" viewBox="0 0 24 24" fill="none" xmlns="http://www.w3.org/2000/svg"><path d="M15.238 2.524 C 15.048 2.578,14.738 2.820,14.585 3.034 C 14.467 3.199,14.460 3.228,14.460 3.575 L 14.460 3.942 14.647 4.201 C 14.834 4.461,15.097 4.763,15.794 5.515 C 16.031 5.772,16.148 5.926,16.114 5.937 C 15.981 5.979,15.192 6.002,12.540 6.040 C 10.978 6.062,9.569 6.091,9.408 6.104 C 9.162 6.123,9.091 6.147,8.952 6.254 C 8.725 6.427,8.535 6.718,8.476 6.981 C 8.380 7.411,8.571 7.843,9.016 8.203 L 9.259 8.400 12.773 8.400 L 16.288 8.400 15.677 9.030 C 14.632 10.110,14.402 10.457,14.453 10.883 C 14.526 11.500,15.025 11.960,15.621 11.960 C 16.045 11.960,16.455 11.620,18.383 9.675 C 20.243 7.798,20.383 7.618,20.353 7.142 C 20.340 6.933,20.311 6.850,20.192 6.671 C 19.998 6.377,18.986 5.310,17.774 4.119 C 16.679 3.043,16.205 2.638,15.953 2.562 C 15.721 2.493,15.406 2.476,15.238 2.524 M7.753 12.282 C 7.261 12.675,6.176 13.713,5.250 14.676 C 3.790 16.195,3.640 16.392,3.640 16.786 C 3.640 17.234,4.009 17.691,5.879 19.560 C 6.946 20.626,7.620 21.240,7.908 21.407 C 8.325 21.649,8.761 21.583,9.154 21.219 C 9.297 21.087,9.419 20.931,9.460 20.830 C 9.549 20.609,9.552 20.138,9.465 19.970 C 9.356 19.758,9.018 19.362,8.355 18.670 L 7.714 18.000 11.253 18.000 L 14.792 18.000 15.135 17.636 C 15.519 17.229,15.537 17.183,15.514 16.690 C 15.501 16.404,15.488 16.361,15.352 16.176 C 15.270 16.065,15.096 15.899,14.965 15.807 L 14.727 15.640 12.634 15.639 C 10.607 15.638,7.931 15.584,7.891 15.545 C 7.859 15.512,7.979 15.365,8.511 14.784 C 9.217 14.014,9.432 13.735,9.501 13.503 C 9.616 13.119,9.560 12.843,9.309 12.543 C 9.102 12.296,8.872 12.170,8.538 12.122 C 8.063 12.053,8.031 12.060,7.753 12.282 " fill="#373B4D" stroke="none" fill-rule="evenodd"></path></svg>