<svg width="24" height="24" viewBox="0 0 24 24" fill="none" xmlns="http://www.w3.org/2000/svg"><path d="M6.300 4.071 C 5.712 4.599,3.651 6.659,3.069 7.300 C 2.813 7.581,2.572 7.877,2.534 7.956 C 2.432 8.167,2.446 8.664,2.560 8.900 C 2.750 9.292,3.258 9.586,3.683 9.548 C 4.078 9.514,4.322 9.335,5.410 8.282 L 6.000 7.712 6.000 11.209 L 6.000 14.707 6.157 14.927 C 6.442 15.324,6.802 15.535,7.200 15.538 C 7.604 15.541,7.952 15.326,8.283 14.870 L 8.400 14.708 8.400 11.211 L 8.400 7.714 9.070 8.356 C 9.777 9.034,10.203 9.393,10.438 9.509 C 10.761 9.668,11.230 9.538,11.593 9.187 C 11.808 8.980,11.917 8.773,11.948 8.518 C 11.983 8.217,11.903 8.005,11.617 7.648 C 11.010 6.889,8.089 4.025,7.715 3.821 C 7.536 3.724,7.450 3.705,7.123 3.691 L 6.740 3.675 6.300 4.071 M16.493 8.517 C 16.159 8.600,15.795 8.924,15.719 9.205 C 15.655 9.440,15.601 11.649,15.601 14.053 L 15.600 16.286 14.950 15.664 C 14.232 14.978,13.852 14.659,13.640 14.566 C 13.422 14.471,12.900 14.483,12.700 14.588 C 12.482 14.702,12.263 14.931,12.155 15.154 C 12.052 15.369,12.032 15.833,12.119 16.000 C 12.296 16.341,13.470 17.573,15.172 19.204 C 16.268 20.255,16.465 20.389,16.855 20.349 C 17.134 20.320,17.313 20.225,17.680 19.911 C 18.416 19.281,21.149 16.510,21.420 16.120 C 21.519 15.977,21.533 15.922,21.531 15.668 C 21.530 15.510,21.508 15.302,21.482 15.208 C 21.421 14.979,21.205 14.748,20.926 14.611 C 20.737 14.518,20.651 14.500,20.400 14.503 C 20.226 14.505,20.041 14.531,19.960 14.567 C 19.749 14.658,19.289 15.045,18.610 15.699 L 18.000 16.288 18.000 12.777 L 18.000 9.267 17.837 9.056 C 17.645 8.807,17.459 8.657,17.250 8.583 C 17.049 8.513,16.651 8.478,16.493 8.517 " fill="#373B4D" stroke="none" fill-rule="evenodd"></path></svg>