<svg width="24" height="24" viewBox="0 0 24 24" fill="none" xmlns="http://www.w3.org/2000/svg"><path d="M15.257 2.565 C 15.049 2.612,14.652 2.930,14.548 3.133 C 14.502 3.222,14.461 3.398,14.451 3.553 C 14.434 3.807,14.441 3.832,14.587 4.069 C 14.671 4.207,14.992 4.610,15.300 4.966 C 15.969 5.740,16.067 5.870,16.017 5.918 C 15.976 5.959,14.375 6.018,11.660 6.080 C 9.068 6.139,9.060 6.139,8.824 6.400 C 8.578 6.673,8.502 6.862,8.502 7.200 C 8.502 7.571,8.569 7.710,8.940 8.111 L 9.207 8.400 12.747 8.400 L 16.286 8.400 15.704 9.010 C 14.718 10.043,14.480 10.392,14.480 10.801 C 14.480 11.369,15.015 11.932,15.560 11.938 C 15.998 11.942,16.252 11.745,17.855 10.162 C 19.247 8.788,20.093 7.880,20.220 7.624 C 20.335 7.394,20.355 7.039,20.265 6.829 C 20.151 6.563,19.011 5.344,17.623 4.004 C 16.759 3.170,16.293 2.767,16.060 2.651 C 15.868 2.555,15.482 2.514,15.257 2.565 M7.963 12.181 C 7.636 12.371,7.108 12.852,5.817 14.140 C 3.400 16.550,3.327 16.693,4.069 17.614 C 4.560 18.223,7.014 20.677,7.629 21.174 C 7.967 21.447,8.132 21.520,8.411 21.520 C 8.950 21.520,9.517 20.960,9.519 20.425 C 9.521 19.986,9.402 19.807,8.398 18.730 L 7.717 18.000 11.255 18.000 L 14.793 18.000 15.075 17.695 C 15.447 17.290,15.498 17.180,15.499 16.774 C 15.500 16.465,15.493 16.438,15.357 16.243 C 15.279 16.130,15.108 15.949,14.979 15.839 L 14.743 15.640 12.762 15.637 C 10.141 15.633,8.011 15.587,7.957 15.533 C 7.928 15.504,8.015 15.373,8.248 15.100 C 9.467 13.665,9.527 13.576,9.531 13.203 C 9.536 12.633,9.056 12.196,8.320 12.101 C 8.173 12.082,8.108 12.096,7.963 12.181 " fill="#373B4D" stroke="none" fill-rule="evenodd"></path></svg>