<svg width="24" height="24" viewBox="0 0 24 24" fill="none" xmlns="http://www.w3.org/2000/svg"><path d="M15.078 2.578 C 14.861 2.691,14.578 2.988,14.491 3.192 C 14.415 3.371,14.409 3.725,14.477 3.932 C 14.544 4.135,14.865 4.526,15.599 5.300 L 16.205 5.940 15.813 5.969 C 15.597 5.985,14.023 6.013,12.315 6.032 C 9.234 6.067,9.210 6.067,9.071 6.153 C 8.812 6.313,8.570 6.612,8.497 6.863 C 8.336 7.419,8.538 7.890,9.107 8.284 L 9.274 8.400 12.781 8.400 L 16.288 8.400 15.638 9.070 C 14.550 10.190,14.408 10.408,14.452 10.892 C 14.508 11.518,14.984 11.960,15.601 11.960 C 15.851 11.960,16.020 11.899,16.260 11.721 C 16.805 11.316,19.706 8.409,20.137 7.835 C 20.373 7.521,20.435 7.261,20.346 6.955 C 20.254 6.638,19.839 6.162,18.420 4.741 C 17.033 3.352,16.342 2.718,16.062 2.579 C 15.787 2.441,15.342 2.441,15.078 2.578 M7.760 12.271 C 7.332 12.592,6.362 13.521,5.232 14.692 C 3.697 16.282,3.639 16.358,3.641 16.789 C 3.643 17.225,3.759 17.386,5.019 18.697 C 6.156 19.881,7.567 21.222,7.859 21.397 C 8.139 21.565,8.408 21.598,8.731 21.504 C 9.048 21.412,9.412 21.048,9.504 20.731 C 9.581 20.469,9.565 20.164,9.463 19.952 C 9.369 19.754,9.018 19.349,8.303 18.610 L 7.712 18.000 11.248 18.000 L 14.785 18.000 15.087 17.710 C 15.488 17.325,15.540 17.223,15.537 16.820 C 15.536 16.621,15.511 16.445,15.471 16.354 C 15.386 16.159,15.157 15.912,14.928 15.768 L 14.740 15.650 11.560 15.625 C 8.521 15.601,7.840 15.582,7.840 15.521 C 7.840 15.506,8.076 15.243,8.364 14.937 C 9.420 13.815,9.524 13.668,9.552 13.259 C 9.576 12.907,9.510 12.716,9.286 12.486 C 8.997 12.189,8.810 12.108,8.380 12.091 L 8.020 12.076 7.760 12.271 " fill="#373B4D" stroke="none" fill-rule="evenodd"></path></svg>