<svg width="24" height="24" viewBox="0 0 24 24" fill="none" xmlns="http://www.w3.org/2000/svg"><path d="M6.527 3.878 C 6.165 4.179,4.281 6.041,3.436 6.933 C 2.610 7.805,2.480 7.996,2.480 8.341 C 2.480 8.893,2.788 9.319,3.301 9.477 C 3.628 9.578,3.629 9.578,3.905 9.481 C 4.205 9.376,4.411 9.214,5.270 8.404 L 6.000 7.716 6.000 11.236 L 6.000 14.755 6.321 15.076 C 6.582 15.337,6.681 15.409,6.849 15.459 C 7.329 15.601,7.681 15.487,8.109 15.050 L 8.400 14.752 8.400 11.233 L 8.400 7.714 8.990 8.274 C 9.705 8.952,10.205 9.373,10.423 9.480 C 10.961 9.744,11.781 9.250,11.920 8.579 C 11.980 8.293,11.923 8.091,11.688 7.760 C 11.483 7.471,9.319 5.265,8.480 4.491 C 7.855 3.915,7.710 3.819,7.335 3.740 C 6.869 3.641,6.796 3.654,6.527 3.878 M16.516 8.552 C 16.365 8.562,16.289 8.598,16.099 8.752 C 15.971 8.855,15.833 9.006,15.791 9.086 C 15.674 9.315,15.638 10.138,15.607 13.307 C 15.592 14.872,15.567 16.166,15.552 16.182 C 15.536 16.197,15.266 15.969,14.950 15.675 C 14.303 15.070,14.010 14.816,13.784 14.665 C 13.641 14.568,13.596 14.560,13.201 14.560 L 12.774 14.560 12.561 14.710 C 12.271 14.914,12.115 15.194,12.090 15.556 C 12.074 15.770,12.087 15.863,12.150 16.003 C 12.266 16.259,12.820 16.867,14.099 18.140 C 15.838 19.872,16.422 20.360,16.758 20.360 C 16.980 20.360,17.426 20.123,17.740 19.839 C 18.727 18.946,21.086 16.564,21.377 16.165 C 21.493 16.007,21.542 15.699,21.502 15.379 C 21.468 15.110,21.307 14.880,21.018 14.688 C 20.820 14.556,20.820 14.556,20.376 14.568 C 19.968 14.579,19.920 14.589,19.776 14.689 C 19.557 14.842,19.189 15.166,18.550 15.768 L 18.000 16.287 18.000 12.761 L 18.000 9.234 17.774 8.997 C 17.420 8.626,17.103 8.514,16.516 8.552 " fill="#373B4D" stroke="none" fill-rule="evenodd"></path></svg>