<svg width="24" height="24" viewBox="0 0 24 24" fill="none" xmlns="http://www.w3.org/2000/svg"><path d="M15.130 2.623 C 14.924 2.729,14.644 2.995,14.550 3.175 C 14.488 3.293,14.463 3.414,14.462 3.601 C 14.459 3.933,14.519 4.029,15.321 4.988 C 15.980 5.775,16.044 5.868,15.965 5.917 C 15.899 5.958,15.249 5.989,13.380 6.040 C 10.303 6.125,9.404 6.160,9.199 6.204 C 8.792 6.291,8.520 6.698,8.520 7.219 C 8.520 7.533,8.633 7.767,8.962 8.130 L 9.206 8.400 12.746 8.400 L 16.286 8.400 15.766 8.950 C 14.833 9.937,14.544 10.332,14.495 10.690 C 14.416 11.269,14.990 11.918,15.582 11.920 C 16.018 11.920,16.346 11.656,18.161 9.841 C 19.475 8.526,20.080 7.871,20.207 7.625 C 20.310 7.424,20.344 7.094,20.281 6.902 C 20.201 6.661,19.702 6.102,18.400 4.796 C 17.083 3.475,16.419 2.867,16.109 2.698 C 15.852 2.558,15.333 2.519,15.130 2.623 M7.980 12.184 C 7.512 12.442,4.915 14.960,4.105 15.942 C 3.636 16.512,3.571 16.848,3.843 17.301 C 4.135 17.787,7.492 21.142,7.926 21.381 C 8.102 21.478,8.186 21.499,8.400 21.498 C 8.716 21.497,8.900 21.409,9.166 21.133 C 9.429 20.859,9.497 20.709,9.499 20.400 C 9.501 19.976,9.350 19.753,8.302 18.630 L 7.715 18.000 11.254 18.000 L 14.793 18.000 15.021 17.750 C 15.147 17.613,15.293 17.435,15.346 17.356 C 15.477 17.161,15.533 16.801,15.476 16.522 C 15.435 16.326,15.398 16.270,15.104 15.972 L 14.778 15.640 12.859 15.637 C 10.382 15.633,8.118 15.585,8.028 15.535 C 7.964 15.499,7.971 15.477,8.107 15.298 C 8.190 15.189,8.445 14.875,8.673 14.600 C 9.362 13.770,9.520 13.515,9.520 13.232 C 9.520 12.822,9.258 12.451,8.836 12.261 C 8.524 12.121,8.154 12.088,7.980 12.184 " fill="#373B4D" stroke="none" fill-rule="evenodd"></path></svg>