<svg width="24" height="24" viewBox="0 0 24 24" fill="none" xmlns="http://www.w3.org/2000/svg"><path d="M6.220 4.150 C 5.558 4.762,3.172 7.168,2.848 7.550 C 2.511 7.947,2.480 8.018,2.480 8.390 C 2.480 8.894,2.691 9.225,3.150 9.441 C 3.571 9.638,3.937 9.573,4.380 9.220 C 4.534 9.097,4.962 8.708,5.330 8.355 L 6.000 7.714 6.000 11.213 L 6.000 14.712 6.179 14.950 C 6.468 15.334,6.811 15.528,7.203 15.528 C 7.595 15.528,7.959 15.304,8.285 14.864 L 8.400 14.708 8.400 11.211 L 8.400 7.714 9.030 8.314 C 9.754 9.004,10.227 9.406,10.428 9.501 C 10.776 9.666,11.312 9.498,11.655 9.118 C 11.977 8.759,12.042 8.314,11.825 7.946 C 11.646 7.640,11.194 7.148,10.003 5.959 C 8.679 4.636,7.898 3.918,7.660 3.801 C 7.555 3.750,7.370 3.714,7.120 3.696 L 6.740 3.670 6.220 4.150 M16.368 8.562 C 16.166 8.643,15.916 8.852,15.816 9.024 C 15.659 9.291,15.644 9.598,15.615 13.148 L 15.588 16.275 14.984 15.702 C 14.298 15.051,14.078 14.858,13.809 14.671 C 13.639 14.553,13.587 14.539,13.283 14.526 C 12.858 14.507,12.697 14.556,12.449 14.779 C 12.188 15.014,12.079 15.267,12.075 15.644 C 12.073 15.909,12.083 15.944,12.220 16.143 C 12.437 16.457,13.376 17.453,14.423 18.477 C 16.022 20.041,16.415 20.360,16.741 20.360 C 16.986 20.360,17.258 20.244,17.540 20.019 C 17.961 19.684,19.259 18.420,20.289 17.344 C 21.551 16.026,21.497 16.098,21.514 15.711 C 21.540 15.147,21.400 14.878,20.959 14.643 C 20.721 14.516,20.697 14.511,20.345 14.527 C 20.007 14.542,19.964 14.553,19.781 14.679 C 19.520 14.859,19.051 15.273,18.470 15.836 L 18.000 16.291 18.000 12.775 L 18.000 9.259 17.822 9.043 C 17.622 8.798,17.379 8.620,17.165 8.561 C 16.986 8.511,16.493 8.512,16.368 8.562 " fill="#373B4D" stroke="none" fill-rule="evenodd"></path></svg>