<svg width="24" height="24" viewBox="0 0 24 24" fill="none" xmlns="http://www.w3.org/2000/svg"><path d="M15.195 2.533 C 14.913 2.639,14.580 2.956,14.482 3.214 C 14.423 3.370,14.430 3.818,14.494 3.971 C 14.570 4.153,14.943 4.602,15.597 5.300 C 15.907 5.630,16.160 5.911,16.160 5.926 C 16.160 5.973,15.213 6.002,12.240 6.042 C 10.623 6.065,9.250 6.093,9.189 6.106 C 9.033 6.139,8.717 6.436,8.591 6.667 C 8.297 7.208,8.455 7.768,9.030 8.219 L 9.260 8.400 12.774 8.400 L 16.288 8.400 15.658 9.050 C 14.589 10.152,14.406 10.428,14.453 10.874 C 14.520 11.515,14.996 11.960,15.614 11.960 C 15.916 11.960,16.156 11.825,16.665 11.366 C 17.233 10.855,19.131 8.956,19.702 8.328 C 20.246 7.730,20.379 7.508,20.375 7.200 C 20.370 6.771,20.202 6.560,18.502 4.847 C 17.029 3.362,16.431 2.805,16.114 2.624 C 15.873 2.485,15.437 2.442,15.195 2.533 M7.709 12.315 C 7.240 12.688,6.235 13.650,5.297 14.624 C 3.757 16.223,3.638 16.378,3.642 16.778 C 3.644 17.051,3.713 17.225,3.930 17.507 C 4.205 17.864,5.772 19.491,6.564 20.241 C 7.600 21.223,7.855 21.430,8.113 21.505 C 8.510 21.621,8.874 21.517,9.195 21.195 C 9.458 20.933,9.535 20.753,9.537 20.400 C 9.538 20.168,9.519 20.064,9.453 19.940 C 9.339 19.726,8.972 19.303,8.282 18.590 L 7.712 18.000 11.247 18.000 L 14.782 18.000 15.109 17.670 C 15.289 17.488,15.457 17.286,15.482 17.220 C 15.541 17.070,15.539 16.536,15.480 16.380 C 15.410 16.196,15.182 15.942,14.944 15.785 L 14.726 15.640 12.813 15.637 C 10.351 15.634,7.929 15.585,7.881 15.537 C 7.858 15.514,8.037 15.293,8.347 14.960 C 9.399 13.829,9.518 13.662,9.550 13.264 C 9.577 12.926,9.512 12.749,9.264 12.485 C 9.004 12.208,8.827 12.131,8.378 12.097 L 8.018 12.070 7.709 12.315 " fill="#373B4D" stroke="none" fill-rule="evenodd"></path></svg>