<svg width="24" height="24" viewBox="0 0 24 24" fill="none" xmlns="http://www.w3.org/2000/svg"><path d="M15.240 2.500 C 14.954 2.593,14.679 2.828,14.541 3.098 C 14.441 3.293,14.421 3.380,14.423 3.597 C 14.428 4.030,14.550 4.206,15.594 5.288 C 15.927 5.634,16.200 5.932,16.200 5.951 C 16.200 5.971,14.663 6.003,12.704 6.024 L 9.209 6.061 8.988 6.212 C 8.620 6.466,8.440 6.796,8.440 7.215 C 8.440 7.651,8.627 7.955,9.091 8.274 L 9.274 8.400 12.782 8.400 L 16.290 8.400 15.675 9.032 C 14.554 10.183,14.442 10.341,14.441 10.783 C 14.439 11.235,14.646 11.603,15.029 11.827 C 15.281 11.975,15.746 12.005,16.003 11.891 C 16.265 11.775,16.833 11.254,18.261 9.824 C 19.598 8.484,20.094 7.946,20.273 7.641 C 20.425 7.384,20.425 7.016,20.273 6.759 C 20.092 6.449,19.592 5.906,18.323 4.638 C 16.994 3.310,16.310 2.682,16.060 2.562 C 15.838 2.455,15.465 2.427,15.240 2.500 M8.067 12.078 C 7.779 12.171,6.858 13.014,5.355 14.563 C 3.692 16.277,3.630 16.356,3.630 16.774 C 3.630 17.266,3.821 17.504,5.798 19.483 C 7.799 21.486,7.941 21.595,8.497 21.550 C 8.798 21.526,8.955 21.449,9.202 21.202 C 9.458 20.946,9.529 20.793,9.551 20.457 C 9.582 19.976,9.480 19.824,8.322 18.630 L 7.711 18.000 11.234 18.000 L 14.756 18.000 14.995 17.801 C 15.507 17.375,15.633 17.067,15.518 16.526 C 15.453 16.227,15.286 15.996,14.995 15.806 L 14.741 15.640 13.597 15.640 C 11.518 15.640,7.884 15.587,7.835 15.557 C 7.802 15.536,7.973 15.333,8.359 14.933 C 9.096 14.171,9.392 13.826,9.484 13.623 C 9.568 13.437,9.583 13.067,9.516 12.820 C 9.455 12.597,9.082 12.235,8.818 12.145 C 8.574 12.062,8.218 12.030,8.067 12.078 " fill="#373B4D" stroke="none" fill-rule="evenodd"></path></svg>