<svg width="24" height="24" viewBox="0 0 24 24" fill="none" xmlns="http://www.w3.org/2000/svg"><path d="M6.732 3.743 C 6.451 3.886,3.465 6.830,2.901 7.520 C 2.501 8.009,2.414 8.295,2.542 8.701 C 2.672 9.113,3.072 9.456,3.521 9.539 C 3.717 9.576,4.037 9.448,4.360 9.204 C 4.503 9.096,4.931 8.717,5.310 8.362 L 6.000 7.717 6.000 11.234 L 6.000 14.751 6.338 15.071 C 6.985 15.683,7.412 15.676,8.090 15.042 L 8.400 14.752 8.400 11.235 L 8.400 7.717 9.070 8.343 C 9.824 9.046,10.348 9.460,10.570 9.527 C 11.044 9.671,11.767 9.159,11.900 8.586 C 11.965 8.308,11.903 8.070,11.693 7.793 C 11.265 7.227,8.717 4.661,8.062 4.136 C 7.604 3.769,7.020 3.596,6.732 3.743 M16.180 8.709 C 15.920 8.916,15.857 8.990,15.778 9.177 C 15.681 9.411,15.645 10.227,15.599 13.220 C 15.576 14.694,15.545 15.958,15.529 16.028 L 15.500 16.157 14.780 15.517 C 14.384 15.165,13.963 14.811,13.845 14.729 L 13.630 14.580 13.179 14.580 L 12.728 14.580 12.538 14.741 C 12.281 14.959,12.118 15.256,12.091 15.558 C 12.061 15.892,12.177 16.110,12.693 16.680 C 13.282 17.332,15.464 19.478,15.935 19.870 C 16.419 20.272,16.624 20.379,16.831 20.341 C 17.131 20.285,17.503 20.044,17.987 19.591 C 19.148 18.505,21.306 16.296,21.429 16.068 C 21.522 15.893,21.524 15.310,21.432 15.139 C 21.323 14.936,20.987 14.650,20.795 14.598 C 20.582 14.540,20.002 14.576,19.847 14.657 C 19.704 14.731,19.244 15.127,18.561 15.763 L 18.000 16.286 18.000 12.746 L 18.000 9.207 17.754 8.984 C 17.405 8.668,17.247 8.602,16.774 8.573 L 16.380 8.549 16.180 8.709 " fill="#373B4D" stroke="none" fill-rule="evenodd"></path></svg>