<svg width="24" height="24" viewBox="0 0 24 24" fill="none" xmlns="http://www.w3.org/2000/svg"><path d="M9.920 4.961 L 4.900 4.987 4.720 5.079 C 4.417 5.233,3.856 5.634,3.562 5.906 C 3.169 6.271,2.946 6.583,2.654 7.180 L 2.400 7.700 2.400 12.025 L 2.400 16.350 2.631 16.805 C 2.937 17.406,3.153 17.717,3.518 18.081 C 3.869 18.432,4.161 18.631,4.807 18.961 L 5.274 19.200 12.024 19.200 L 18.773 19.200 19.194 18.977 C 20.391 18.344,21.014 17.668,21.496 16.482 L 21.600 16.226 21.600 11.952 L 21.600 7.679 21.395 7.269 C 20.852 6.183,20.347 5.652,19.357 5.124 L 18.973 4.920 16.957 4.927 C 15.848 4.931,12.681 4.946,9.920 4.961 M10.800 10.800 L 10.800 12.000 7.800 12.000 L 4.800 12.000 4.800 10.800 L 4.800 9.600 7.800 9.600 L 10.800 9.600 10.800 10.800 M19.200 10.800 L 19.200 12.000 16.200 12.000 L 13.200 12.000 13.200 10.800 L 13.200 9.600 16.200 9.600 L 19.200 9.600 19.200 10.800 M10.800 15.600 L 10.800 16.800 9.050 16.800 C 7.213 16.799,5.876 16.750,5.640 16.675 C 5.422 16.605,5.176 16.381,5.063 16.150 C 4.955 15.928,4.867 15.432,4.819 14.770 L 4.792 14.400 7.796 14.400 L 10.800 14.400 10.800 15.600 M19.200 14.510 C 19.200 14.693,19.084 15.646,19.036 15.860 C 18.968 16.157,18.811 16.422,18.631 16.541 C 18.326 16.743,18.133 16.759,15.570 16.787 L 13.200 16.813 13.200 15.606 L 13.200 14.400 16.200 14.400 L 19.200 14.400 19.200 14.510 " fill="#373B4D" stroke="none" fill-rule="evenodd"></path></svg>