<svg width="24" height="24" viewBox="0 0 24 24" fill="none" xmlns="http://www.w3.org/2000/svg"><path d="M6.639 4.959 L 4.898 4.980 4.639 5.108 C 3.590 5.627,2.978 6.306,2.520 7.460 L 2.400 7.762 2.400 12.021 L 2.400 16.280 2.574 16.676 C 3.132 17.944,3.658 18.472,4.893 19.006 L 5.340 19.199 12.006 19.200 L 18.673 19.200 18.986 19.066 C 20.333 18.489,21.009 17.799,21.482 16.514 L 21.600 16.195 21.600 11.947 L 21.600 7.700 21.419 7.300 C 21.160 6.726,20.900 6.312,20.584 5.972 C 20.237 5.599,19.924 5.375,19.395 5.121 L 18.980 4.921 13.680 4.929 C 10.765 4.934,7.597 4.947,6.639 4.959 M10.800 10.800 L 10.800 12.000 7.800 12.000 L 4.800 12.000 4.800 10.800 L 4.800 9.600 7.800 9.600 L 10.800 9.600 10.800 10.800 M19.200 10.800 L 19.200 12.000 16.200 12.000 L 13.200 12.000 13.200 10.800 L 13.200 9.600 16.200 9.600 L 19.200 9.600 19.200 10.800 M10.800 15.600 L 10.800 16.800 8.730 16.799 C 6.582 16.798,5.741 16.763,5.511 16.667 C 5.371 16.608,5.073 16.299,4.975 16.110 C 4.905 15.976,4.849 15.553,4.814 14.895 L 4.788 14.400 7.794 14.400 L 10.800 14.400 10.800 15.600 M19.200 14.590 C 19.199 14.884,19.123 15.716,19.075 15.957 C 19.040 16.133,18.993 16.215,18.826 16.392 C 18.713 16.513,18.559 16.637,18.484 16.669 C 18.278 16.756,17.184 16.797,15.070 16.799 L 13.200 16.800 13.200 15.600 L 13.200 14.400 16.200 14.400 L 19.200 14.400 19.200 14.590 " fill="#373B4D" stroke="none" fill-rule="evenodd"></path></svg>