<svg width="24" height="24" viewBox="0 0 24 24" fill="none" xmlns="http://www.w3.org/2000/svg"><path d="M9.400 4.959 L 4.900 4.983 4.680 5.096 C 4.001 5.445,3.346 6.009,2.979 6.561 C 2.875 6.717,2.703 7.044,2.595 7.287 L 2.400 7.728 2.400 12.021 L 2.400 16.314 2.573 16.687 C 3.139 17.906,3.727 18.481,4.988 19.051 L 5.317 19.200 12.039 19.200 L 18.761 19.200 19.210 18.968 C 19.788 18.671,20.113 18.450,20.454 18.123 C 20.888 17.708,21.194 17.225,21.496 16.481 L 21.600 16.226 21.600 11.950 L 21.600 7.674 21.397 7.258 C 20.864 6.163,20.325 5.602,19.331 5.105 L 18.962 4.920 16.431 4.928 C 15.039 4.932,11.875 4.946,9.400 4.959 M10.800 10.800 L 10.800 12.000 7.800 12.000 L 4.800 12.000 4.800 10.800 L 4.800 9.600 7.800 9.600 L 10.800 9.600 10.800 10.800 M19.200 10.800 L 19.200 12.000 16.200 12.000 L 13.200 12.000 13.200 10.800 L 13.200 9.600 16.200 9.600 L 19.200 9.600 19.200 10.800 M10.800 15.600 L 10.800 16.800 8.970 16.799 C 7.027 16.798,5.830 16.754,5.600 16.675 C 5.265 16.560,4.988 16.206,4.924 15.811 C 4.875 15.511,4.800 14.733,4.800 14.530 L 4.800 14.400 7.800 14.400 L 10.800 14.400 10.800 15.600 M19.182 14.790 C 19.148 15.270,19.050 15.969,18.996 16.112 C 18.926 16.294,18.688 16.549,18.505 16.638 C 18.261 16.756,17.363 16.797,15.030 16.799 L 13.200 16.800 13.200 15.600 L 13.200 14.400 16.205 14.400 L 19.210 14.400 19.182 14.790 " fill="#373B4D" stroke="none" fill-rule="evenodd"></path></svg>