<svg width="24" height="24" viewBox="0 0 24 24" fill="none" xmlns="http://www.w3.org/2000/svg"><path d="M9.700 4.960 L 4.900 4.985 4.720 5.077 C 4.350 5.268,3.877 5.603,3.578 5.887 C 3.087 6.353,2.880 6.654,2.559 7.366 L 2.400 7.720 2.400 12.026 L 2.400 16.331 2.617 16.776 C 2.896 17.345,3.112 17.669,3.451 18.026 C 3.797 18.390,4.190 18.661,4.808 18.961 L 5.300 19.200 12.037 19.200 L 18.773 19.200 19.197 18.976 C 19.806 18.654,20.139 18.423,20.483 18.081 C 20.916 17.652,21.208 17.191,21.496 16.482 L 21.600 16.226 21.600 11.950 L 21.600 7.674 21.379 7.231 C 21.075 6.621,20.837 6.272,20.482 5.918 C 20.151 5.587,19.898 5.409,19.345 5.115 L 18.980 4.922 16.740 4.928 C 15.508 4.932,12.340 4.946,9.700 4.960 M10.800 10.800 L 10.800 12.000 7.800 12.000 L 4.800 12.000 4.800 10.800 L 4.800 9.600 7.800 9.600 L 10.800 9.600 10.800 10.800 M19.200 10.800 L 19.200 12.000 16.200 12.000 L 13.200 12.000 13.200 10.800 L 13.200 9.600 16.200 9.600 L 19.200 9.600 19.200 10.800 M10.800 15.600 L 10.800 16.800 8.990 16.799 C 7.132 16.798,5.917 16.755,5.634 16.678 C 5.431 16.624,5.150 16.368,5.038 16.136 C 4.945 15.945,4.864 15.452,4.818 14.803 L 4.790 14.400 7.795 14.400 L 10.800 14.400 10.800 15.600 M19.200 14.496 C 19.200 14.679,19.118 15.422,19.058 15.775 C 18.959 16.361,18.695 16.633,18.138 16.723 C 17.969 16.750,16.949 16.776,15.530 16.789 L 13.200 16.809 13.200 15.605 L 13.200 14.400 16.200 14.400 L 19.200 14.400 19.200 14.496 " fill="#373B4D" stroke="none" fill-rule="evenodd"></path></svg>