<svg width="24" height="24" viewBox="0 0 24 24" fill="none" xmlns="http://www.w3.org/2000/svg"><path d="M8.020 4.959 L 4.900 4.980 4.600 5.134 C 3.569 5.665,2.965 6.340,2.521 7.459 L 2.400 7.762 2.400 12.031 L 2.400 16.300 2.612 16.760 C 3.153 17.934,3.699 18.474,4.874 18.998 L 5.329 19.200 12.006 19.200 L 18.684 19.200 19.112 19.009 C 20.336 18.463,20.991 17.779,21.464 16.554 L 21.600 16.203 21.600 11.939 L 21.600 7.674 21.363 7.187 C 21.059 6.563,20.849 6.249,20.501 5.895 C 20.185 5.574,19.791 5.305,19.300 5.076 L 18.968 4.920 15.054 4.929 C 12.901 4.933,9.736 4.947,8.020 4.959 M10.800 10.800 L 10.800 12.000 7.800 12.000 L 4.800 12.000 4.800 10.800 L 4.800 9.600 7.800 9.600 L 10.800 9.600 10.800 10.800 M19.200 10.800 L 19.200 12.000 16.200 12.000 L 13.200 12.000 13.200 10.800 L 13.200 9.600 16.200 9.600 L 19.200 9.600 19.200 10.800 M10.800 15.604 L 10.800 16.809 8.390 16.789 C 5.526 16.767,5.561 16.771,5.246 16.447 C 5.127 16.326,5.007 16.170,4.978 16.102 C 4.913 15.945,4.851 15.475,4.816 14.870 L 4.789 14.400 7.795 14.400 L 10.800 14.400 10.800 15.604 M19.185 14.830 C 19.140 15.548,19.078 15.971,18.994 16.149 C 18.893 16.362,18.564 16.661,18.392 16.697 C 18.088 16.759,16.863 16.797,15.090 16.799 L 13.200 16.800 13.200 15.600 L 13.200 14.400 16.206 14.400 L 19.212 14.400 19.185 14.830 " fill="#373B4D" stroke="none" fill-rule="evenodd"></path></svg>