<svg width="24" height="24" viewBox="0 0 24 24" fill="none" xmlns="http://www.w3.org/2000/svg"><path d="M8.880 4.959 L 4.900 4.981 4.640 5.116 C 4.149 5.370,3.819 5.610,3.460 5.975 C 3.059 6.383,2.803 6.778,2.558 7.366 L 2.402 7.740 2.401 12.026 L 2.400 16.312 2.600 16.739 C 3.152 17.923,3.719 18.480,4.919 19.020 L 5.322 19.201 12.051 19.190 L 18.780 19.180 19.205 18.971 C 20.352 18.408,20.969 17.763,21.422 16.654 L 21.599 16.220 21.600 11.946 L 21.600 7.672 21.379 7.220 C 20.839 6.114,20.297 5.557,19.292 5.077 L 18.965 4.920 15.912 4.928 C 14.234 4.933,11.069 4.946,8.880 4.959 M10.800 10.800 L 10.800 12.000 7.800 12.000 L 4.800 12.000 4.800 10.800 L 4.800 9.600 7.800 9.600 L 10.800 9.600 10.800 10.800 M19.200 10.800 L 19.200 12.000 16.200 12.000 L 13.200 12.000 13.200 10.800 L 13.200 9.600 16.200 9.600 L 19.200 9.600 19.200 10.800 M10.800 15.600 L 10.800 16.800 9.010 16.798 C 8.025 16.797,6.874 16.781,6.451 16.762 C 5.539 16.721,5.437 16.688,5.149 16.333 C 5.002 16.150,4.958 16.058,4.924 15.863 C 4.877 15.593,4.801 14.783,4.800 14.550 L 4.800 14.400 7.800 14.400 L 10.800 14.400 10.800 15.600 M19.182 14.830 C 19.145 15.416,19.055 16.016,18.983 16.155 C 18.885 16.343,18.723 16.515,18.542 16.621 C 18.385 16.713,18.313 16.724,17.596 16.760 C 17.169 16.781,16.006 16.799,15.010 16.799 L 13.200 16.800 13.200 15.600 L 13.200 14.400 16.205 14.400 L 19.210 14.400 19.182 14.830 " fill="#373B4D" stroke="none" fill-rule="evenodd"></path></svg>