<svg width="24" height="24" viewBox="0 0 24 24" fill="none" xmlns="http://www.w3.org/2000/svg"><path d="M10.028 4.964 L 4.875 4.994 4.603 5.156 C 4.199 5.395,3.692 5.782,3.419 6.057 C 3.132 6.346,2.943 6.626,2.632 7.220 L 2.402 7.660 2.401 12.017 L 2.400 16.373 2.620 16.789 C 3.191 17.868,3.755 18.421,4.867 18.991 L 5.273 19.200 12.027 19.199 L 18.780 19.199 19.120 19.016 C 20.269 18.400,20.945 17.705,21.423 16.648 L 21.599 16.260 21.599 11.967 L 21.600 7.673 21.395 7.274 C 20.845 6.204,20.311 5.652,19.277 5.086 L 18.973 4.920 17.077 4.927 C 16.033 4.930,12.861 4.947,10.028 4.964 M10.800 10.800 L 10.800 12.000 7.800 12.000 L 4.800 12.000 4.800 10.800 L 4.800 9.600 7.800 9.600 L 10.800 9.600 10.800 10.800 M19.200 10.800 L 19.200 12.000 16.200 12.000 L 13.200 12.000 13.200 10.800 L 13.200 9.600 16.200 9.600 L 19.200 9.600 19.200 10.800 M10.800 15.600 L 10.800 16.800 9.390 16.799 C 7.432 16.797,5.916 16.741,5.653 16.662 C 5.386 16.580,5.109 16.286,5.019 15.986 C 4.950 15.757,4.859 15.183,4.818 14.710 L 4.791 14.400 7.795 14.400 L 10.800 14.400 10.800 15.600 M19.183 14.690 C 19.139 15.162,19.042 15.779,18.979 15.990 C 18.897 16.267,18.707 16.512,18.507 16.601 C 18.214 16.731,17.713 16.761,15.430 16.787 L 13.200 16.813 13.200 15.607 L 13.200 14.400 16.205 14.400 L 19.210 14.400 19.183 14.690 " fill="#373B4D" stroke="none" fill-rule="evenodd"></path></svg>