<svg width="24" height="24" viewBox="0 0 24 24" fill="none" xmlns="http://www.w3.org/2000/svg"><path d="M4.980 2.598 C 4.596 2.664,3.892 3.114,3.450 3.575 C 3.092 3.948,2.829 4.350,2.577 4.909 L 2.400 5.300 2.400 8.787 L 2.400 12.274 2.546 12.467 C 2.802 12.805,3.567 13.603,5.700 15.754 C 8.060 18.135,10.894 20.912,11.313 21.255 C 11.558 21.455,11.628 21.490,11.847 21.527 C 12.211 21.587,12.365 21.533,12.735 21.218 C 13.668 20.422,21.057 13.008,21.324 12.600 C 21.704 12.019,21.646 11.739,20.993 10.997 C 20.559 10.505,14.394 4.336,13.317 3.316 L 12.575 2.613 12.021 2.587 C 11.300 2.552,5.188 2.562,4.980 2.598 M6.674 5.111 C 6.982 5.319,7.033 5.437,7.066 6.014 L 7.093 6.485 6.818 6.762 C 6.508 7.074,6.376 7.135,6.010 7.132 C 5.570 7.129,5.229 6.928,5.053 6.570 C 4.953 6.366,4.940 6.297,4.941 5.960 C 4.942 5.649,4.958 5.550,5.029 5.416 C 5.134 5.218,5.362 5.010,5.511 4.977 C 5.571 4.964,5.638 4.946,5.660 4.937 C 5.682 4.928,5.868 4.929,6.074 4.940 C 6.427 4.957,6.461 4.967,6.674 5.111 " fill="#373B4D" stroke="none" fill-rule="evenodd"></path></svg>