<svg width="24" height="24" viewBox="0 0 24 24" fill="none" xmlns="http://www.w3.org/2000/svg"><path d="M6.180 2.518 C 4.928 2.546,4.953 2.542,4.438 2.800 C 3.937 3.051,3.356 3.555,3.053 4.000 C 2.897 4.230,2.673 4.674,2.520 5.060 L 2.400 5.362 2.400 8.813 L 2.400 12.264 2.514 12.442 C 2.712 12.752,3.814 13.892,6.920 16.999 C 10.228 20.309,11.272 21.309,11.578 21.461 C 11.830 21.587,12.236 21.599,12.421 21.486 C 12.643 21.350,13.441 20.592,15.740 18.333 C 18.126 15.988,21.045 13.012,21.320 12.646 C 21.539 12.353,21.622 12.060,21.560 11.799 C 21.496 11.533,21.389 11.395,20.608 10.569 C 19.108 8.982,12.830 2.762,12.552 2.587 C 12.475 2.538,12.045 2.526,9.900 2.511 C 8.492 2.501,6.818 2.504,6.180 2.518 M6.375 4.937 C 6.605 5.006,6.807 5.155,6.963 5.370 C 7.077 5.527,7.080 5.546,7.080 6.002 L 7.080 6.473 6.926 6.668 C 6.606 7.072,6.376 7.184,5.938 7.150 C 5.313 7.100,4.920 6.688,4.886 6.048 C 4.850 5.362,5.278 4.880,5.921 4.880 C 6.068 4.880,6.272 4.905,6.375 4.937 " fill="#373B4D" stroke="none" fill-rule="evenodd"></path></svg>