<svg width="24" height="24" viewBox="0 0 24 24" fill="none" xmlns="http://www.w3.org/2000/svg"><path d="M5.500 2.595 L 4.820 2.620 4.487 2.800 C 4.108 3.003,3.607 3.389,3.357 3.670 C 3.105 3.953,2.779 4.469,2.578 4.902 L 2.400 5.286 2.400 8.793 L 2.400 12.300 2.675 12.623 C 3.365 13.433,8.601 18.697,10.596 20.586 C 11.047 21.013,11.485 21.394,11.576 21.437 C 11.666 21.481,11.834 21.528,11.949 21.543 C 12.290 21.587,12.472 21.470,13.355 20.637 C 14.331 19.717,19.052 14.996,20.338 13.655 C 21.613 12.326,21.708 12.149,21.442 11.616 C 21.377 11.486,21.181 11.218,21.008 11.020 C 20.648 10.610,14.541 4.492,13.343 3.342 L 12.553 2.584 9.367 2.577 C 7.614 2.573,5.874 2.581,5.500 2.595 M6.581 5.060 C 6.956 5.275,7.019 5.409,7.064 6.073 L 7.092 6.485 6.896 6.688 C 6.788 6.799,6.620 6.942,6.522 7.005 C 6.366 7.106,6.308 7.120,6.042 7.119 C 5.562 7.118,5.255 6.941,5.056 6.551 C 4.973 6.388,4.960 6.307,4.960 5.949 C 4.960 5.562,4.967 5.524,5.075 5.354 C 5.296 5.006,5.512 4.914,6.040 4.946 C 6.336 4.963,6.456 4.989,6.581 5.060 " fill="#373B4D" stroke="none" fill-rule="evenodd"></path></svg>