<svg width="24" height="24" viewBox="0 0 24 24" fill="none" xmlns="http://www.w3.org/2000/svg"><path d="M6.420 2.440 C 5.356 2.464,5.191 2.477,4.967 2.551 C 4.273 2.780,3.562 3.267,3.171 3.780 C 2.918 4.113,2.647 4.654,2.504 5.112 L 2.400 5.444 2.400 8.760 C 2.400 11.015,2.414 12.142,2.444 12.281 C 2.476 12.430,2.543 12.552,2.692 12.733 C 2.956 13.051,9.474 19.597,10.585 20.657 C 11.323 21.363,11.455 21.473,11.639 21.532 C 12.032 21.659,12.338 21.604,12.680 21.346 C 12.939 21.151,19.484 14.644,20.658 13.415 C 21.363 12.677,21.473 12.545,21.532 12.361 C 21.616 12.101,21.618 11.915,21.538 11.647 C 21.459 11.381,21.379 11.297,17.383 7.287 C 13.875 3.767,12.718 2.641,12.494 2.528 C 12.348 2.455,12.212 2.450,9.980 2.432 C 8.682 2.421,7.080 2.425,6.420 2.440 M6.549 4.965 C 6.976 5.169,7.160 5.489,7.160 6.028 C 7.160 6.263,7.140 6.363,7.060 6.520 C 6.932 6.773,6.716 6.988,6.484 7.094 C 6.215 7.217,5.767 7.213,5.506 7.084 C 4.765 6.720,4.587 5.733,5.160 5.160 C 5.524 4.796,6.042 4.723,6.549 4.965 " fill="#373B4D" stroke="none" fill-rule="evenodd"></path></svg>