<svg width="24" height="24" viewBox="0 0 24 24" fill="none" xmlns="http://www.w3.org/2000/svg"><path d="M6.179 2.638 L 4.738 2.660 4.457 2.827 C 3.612 3.330,3.137 3.846,2.605 4.843 L 2.400 5.227 2.400 8.767 L 2.400 12.308 2.793 12.744 C 3.863 13.932,10.267 20.328,11.140 21.081 C 11.436 21.336,11.645 21.461,11.883 21.524 C 12.050 21.569,12.084 21.564,12.283 21.473 C 12.402 21.418,12.644 21.258,12.819 21.117 C 13.163 20.840,19.630 14.388,20.600 13.355 C 21.239 12.672,21.452 12.387,21.526 12.109 C 21.572 11.938,21.568 11.913,21.450 11.674 C 21.376 11.524,21.178 11.255,20.968 11.020 C 20.771 10.800,18.816 8.816,16.622 6.610 L 12.633 2.600 10.126 2.608 C 8.748 2.613,6.972 2.626,6.179 2.638 M6.502 5.042 C 6.651 5.097,6.851 5.295,6.923 5.459 C 6.962 5.547,7.016 5.815,7.043 6.052 L 7.092 6.485 6.936 6.644 C 6.685 6.902,6.402 7.076,6.189 7.105 C 5.729 7.168,5.205 6.884,5.053 6.489 C 4.946 6.211,4.954 5.636,5.068 5.419 C 5.190 5.187,5.348 5.045,5.514 5.018 C 5.595 5.005,5.687 4.989,5.720 4.981 C 5.811 4.960,6.409 5.007,6.502 5.042 " fill="#373B4D" stroke="none" fill-rule="evenodd"></path></svg>