<svg width="24" height="24" viewBox="0 0 24 24" fill="none" xmlns="http://www.w3.org/2000/svg"><path d="M6.120 2.556 L 4.900 2.580 4.564 2.750 C 3.623 3.229,3.053 3.844,2.588 4.884 L 2.420 5.260 2.409 8.765 L 2.399 12.269 2.572 12.505 C 2.845 12.875,4.593 14.665,7.584 17.640 C 10.446 20.485,11.346 21.345,11.594 21.467 C 11.695 21.517,11.833 21.539,12.043 21.539 C 12.412 21.540,12.387 21.557,13.320 20.682 C 14.232 19.827,20.674 13.383,21.058 12.940 C 21.422 12.521,21.559 12.262,21.560 11.989 C 21.560 11.718,21.493 11.586,21.137 11.158 C 20.514 10.408,12.749 2.679,12.540 2.601 C 12.431 2.560,7.634 2.527,6.120 2.556 M6.647 5.089 C 7.019 5.345,7.051 5.415,7.070 5.998 L 7.086 6.500 6.846 6.747 C 6.518 7.086,6.408 7.139,6.040 7.137 C 5.797 7.136,5.696 7.114,5.511 7.025 C 5.099 6.827,4.920 6.496,4.920 5.931 C 4.920 5.601,5.021 5.344,5.226 5.155 C 5.452 4.946,5.546 4.919,6.005 4.930 C 6.424 4.940,6.434 4.942,6.647 5.089 " fill="#373B4D" stroke="none" fill-rule="evenodd"></path></svg>