<svg width="24" height="24" viewBox="0 0 24 24" fill="none" xmlns="http://www.w3.org/2000/svg"><path d="M5.440 2.638 L 4.740 2.660 4.420 2.848 C 3.593 3.335,3.097 3.880,2.611 4.836 L 2.400 5.251 2.400 8.778 L 2.400 12.306 2.753 12.703 C 3.763 13.839,9.917 19.993,11.055 21.005 C 11.466 21.370,11.684 21.500,11.957 21.544 C 12.192 21.582,12.458 21.436,12.961 20.997 C 13.545 20.487,20.634 13.377,21.039 12.894 C 21.423 12.437,21.580 12.141,21.547 11.935 C 21.507 11.689,21.346 11.432,20.973 11.018 C 20.772 10.795,18.812 8.809,16.619 6.606 L 12.631 2.600 9.385 2.608 C 7.600 2.612,5.825 2.626,5.440 2.638 M6.629 5.104 C 6.900 5.269,6.989 5.467,7.047 6.040 L 7.093 6.496 6.825 6.745 C 6.676 6.884,6.477 7.025,6.378 7.063 C 5.988 7.212,5.390 7.034,5.161 6.702 C 4.900 6.322,4.888 5.644,5.135 5.287 C 5.325 5.014,5.490 4.958,6.049 4.976 C 6.397 4.986,6.459 5.000,6.629 5.104 " fill="#373B4D" stroke="none" fill-rule="evenodd"></path></svg>