<svg width="24" height="24" viewBox="0 0 24 24" fill="none" xmlns="http://www.w3.org/2000/svg"><path d="M5.257 2.520 C 4.706 2.580,3.999 2.968,3.463 3.504 C 3.098 3.868,2.851 4.257,2.606 4.850 L 2.420 5.300 2.420 8.803 L 2.420 12.306 2.524 12.463 C 2.738 12.786,3.786 13.868,6.939 17.023 C 10.320 20.406,11.297 21.343,11.597 21.488 C 11.817 21.595,12.200 21.605,12.384 21.509 C 12.609 21.391,13.275 20.763,15.575 18.500 C 18.139 15.978,21.090 12.976,21.342 12.633 C 21.611 12.268,21.657 11.908,21.479 11.560 C 21.372 11.351,21.001 10.957,18.940 8.864 C 16.625 6.514,12.837 2.782,12.601 2.620 L 12.427 2.500 8.983 2.494 C 7.090 2.491,5.413 2.503,5.257 2.520 M6.361 4.922 C 6.600 4.983,6.865 5.179,6.986 5.387 C 7.092 5.566,7.100 5.610,7.100 6.005 L 7.100 6.430 6.943 6.658 C 6.723 6.977,6.496 7.125,6.185 7.150 C 5.647 7.193,5.256 7.012,5.034 6.617 C 4.797 6.194,4.798 5.728,5.038 5.350 C 5.316 4.912,5.758 4.769,6.361 4.922 " fill="#373B4D" stroke="none" fill-rule="evenodd"></path></svg>