<svg width="24" height="24" viewBox="0 0 24 24" fill="none" xmlns="http://www.w3.org/2000/svg"><path d="M11.078 3.060 C 9.848 3.209,8.988 3.464,7.940 3.990 C 7.026 4.450,6.304 4.981,5.557 5.746 C 3.305 8.050,2.464 11.369,3.348 14.460 C 4.062 16.957,5.924 19.127,8.246 20.166 C 9.610 20.777,10.903 21.039,12.300 20.988 C 16.060 20.851,19.315 18.422,20.516 14.858 C 21.158 12.953,21.159 11.050,20.521 9.160 C 20.065 7.807,19.417 6.743,18.443 5.746 C 17.703 4.988,17.012 4.478,16.080 4.002 C 14.842 3.370,13.865 3.114,12.395 3.040 C 11.507 2.995,11.624 2.994,11.078 3.060 M16.026 8.542 C 16.181 8.660,16.189 8.738,16.119 9.446 C 16.021 10.422,15.475 13.885,15.183 15.378 C 14.992 16.352,14.742 16.626,14.193 16.465 C 13.958 16.395,13.404 16.050,11.998 15.094 C 10.648 14.175,10.542 14.063,10.716 13.733 C 10.830 13.516,11.107 13.233,12.410 12.002 C 13.042 11.405,13.606 10.855,13.663 10.780 C 13.777 10.630,13.781 10.469,13.670 10.448 C 13.574 10.429,13.197 10.664,11.249 11.955 C 10.319 12.571,9.455 13.125,9.329 13.187 C 8.910 13.391,8.427 13.336,7.260 12.952 C 6.686 12.763,6.451 12.636,6.415 12.495 C 6.375 12.336,6.507 12.199,6.883 12.011 C 7.472 11.717,11.917 9.806,13.644 9.105 C 15.326 8.422,15.740 8.324,16.026 8.542 " fill="#373B4D" stroke="none" fill-rule="evenodd"></path></svg>