<svg width="24" height="24" viewBox="0 0 24 24" fill="none" xmlns="http://www.w3.org/2000/svg"><path d="M11.100 3.063 C 9.829 3.256,9.005 3.504,8.044 3.983 C 6.965 4.520,6.287 5.020,5.461 5.888 C 4.742 6.644,4.278 7.320,3.876 8.200 C 3.275 9.514,3.023 10.635,3.023 12.000 C 3.023 13.269,3.243 14.333,3.748 15.517 C 4.477 17.223,5.956 18.884,7.548 19.784 C 10.693 21.563,14.485 21.336,17.345 19.198 C 17.797 18.860,18.528 18.164,18.906 17.713 C 19.686 16.779,20.331 15.537,20.661 14.333 C 20.920 13.388,20.940 13.217,20.939 11.940 C 20.939 10.871,20.932 10.750,20.848 10.400 C 20.335 8.265,19.674 7.030,18.320 5.680 C 17.541 4.903,16.965 4.482,16.040 4.012 C 14.821 3.393,13.966 3.177,12.202 3.041 C 11.564 2.992,11.561 2.992,11.100 3.063 M16.028 8.584 C 16.131 8.687,16.131 8.692,16.109 9.154 C 16.084 9.665,15.867 11.225,15.558 13.120 C 15.155 15.588,15.064 15.962,14.773 16.350 C 14.685 16.468,14.656 16.480,14.467 16.480 C 14.305 16.480,14.191 16.446,13.959 16.329 C 13.430 16.062,11.654 14.886,11.080 14.422 C 10.788 14.187,10.655 13.985,10.693 13.833 C 10.707 13.778,11.305 13.133,12.063 12.357 C 13.540 10.846,13.780 10.584,13.741 10.522 C 13.669 10.405,13.496 10.502,11.700 11.666 C 9.267 13.243,9.183 13.290,8.781 13.287 C 8.170 13.284,6.615 12.781,6.453 12.535 C 6.402 12.459,6.407 12.438,6.500 12.327 C 6.632 12.170,7.266 11.848,8.584 11.266 C 11.341 10.050,14.428 8.776,15.080 8.584 C 15.276 8.527,15.527 8.483,15.672 8.482 C 15.891 8.480,15.937 8.493,16.028 8.584 " fill="#373B4D" stroke="none" fill-rule="evenodd"></path></svg>