<svg width="24" height="24" viewBox="0 0 24 24" fill="none" xmlns="http://www.w3.org/2000/svg"><path d="M10.968 3.083 C 9.781 3.265,9.002 3.497,8.100 3.938 C 7.097 4.427,6.399 4.929,5.611 5.726 C 4.765 6.580,4.258 7.321,3.785 8.391 C 2.745 10.745,2.751 13.289,3.802 15.650 C 4.455 17.116,5.737 18.624,7.082 19.505 C 9.031 20.782,11.477 21.266,13.720 20.817 C 17.475 20.065,20.340 17.034,20.905 13.216 C 20.984 12.679,20.995 11.326,20.924 10.840 C 20.852 10.352,20.594 9.369,20.409 8.880 C 19.913 7.571,19.341 6.692,18.324 5.676 C 17.475 4.828,16.789 4.349,15.690 3.835 C 14.630 3.340,13.817 3.153,12.233 3.041 C 11.523 2.991,11.575 2.990,10.968 3.083 M15.992 8.544 C 16.146 8.645,16.169 8.774,16.120 9.259 C 16.008 10.368,15.458 13.917,15.202 15.180 C 15.065 15.853,14.963 16.137,14.784 16.344 C 14.658 16.489,14.635 16.500,14.448 16.494 C 14.164 16.486,13.786 16.278,12.517 15.434 C 10.792 14.286,10.558 14.066,10.726 13.747 C 10.751 13.699,11.445 12.979,12.268 12.146 C 13.223 11.180,13.760 10.608,13.752 10.566 C 13.726 10.431,13.561 10.472,13.189 10.705 C 12.986 10.833,12.208 11.334,11.460 11.821 C 9.228 13.271,9.173 13.301,8.760 13.295 C 8.347 13.289,7.028 12.914,6.651 12.696 C 6.250 12.463,6.332 12.325,7.101 11.940 C 8.088 11.445,13.025 9.333,14.400 8.817 C 15.397 8.443,15.746 8.383,15.992 8.544 " fill="#373B4D" stroke="none" fill-rule="evenodd"></path></svg>