<svg width="24" height="24" viewBox="0 0 24 24" fill="none" xmlns="http://www.w3.org/2000/svg"><path d="M10.940 3.081 C 9.521 3.277,8.445 3.653,7.300 4.350 C 6.255 4.986,5.221 5.980,4.522 7.017 C 3.387 8.704,2.841 10.853,3.042 12.846 C 3.252 14.931,4.168 16.847,5.679 18.362 C 6.717 19.402,7.855 20.097,9.283 20.561 C 12.378 21.568,15.814 20.776,18.187 18.507 C 19.649 17.110,20.564 15.345,20.906 13.260 C 21.007 12.647,21.007 11.353,20.907 10.740 C 20.637 9.100,20.009 7.645,19.040 6.420 C 18.682 5.967,17.888 5.191,17.431 4.848 C 16.440 4.104,15.104 3.474,14.035 3.247 C 13.526 3.139,13.102 3.088,12.320 3.041 C 11.527 2.993,11.586 2.991,10.940 3.081 M15.938 8.497 C 16.144 8.583,16.174 8.675,16.143 9.117 C 16.071 10.136,15.297 15.007,15.086 15.767 C 14.983 16.141,14.824 16.394,14.648 16.467 C 14.328 16.601,14.057 16.472,12.580 15.485 C 11.304 14.633,10.832 14.281,10.720 14.100 C 10.542 13.812,10.665 13.664,12.605 11.816 C 13.207 11.243,13.691 10.750,13.720 10.681 C 13.760 10.584,13.760 10.548,13.720 10.500 C 13.693 10.467,13.657 10.440,13.640 10.440 C 13.582 10.440,12.759 10.959,11.320 11.905 C 9.381 13.179,9.355 13.194,9.060 13.267 C 8.828 13.324,8.772 13.324,8.433 13.267 C 8.025 13.198,7.006 12.884,6.720 12.740 C 6.257 12.505,6.310 12.309,6.920 12.001 C 7.446 11.735,11.425 10.018,13.319 9.239 C 15.148 8.488,15.606 8.358,15.938 8.497 " fill="#373B4D" stroke="none" fill-rule="evenodd"></path></svg>