<svg width="24" height="24" viewBox="0 0 24 24" fill="none" xmlns="http://www.w3.org/2000/svg"><path d="M11.340 3.024 C 10.026 3.160,9.091 3.415,8.060 3.918 C 5.287 5.272,3.420 7.913,3.059 10.992 C 2.666 14.352,4.239 17.669,7.120 19.560 C 7.929 20.090,9.126 20.589,10.092 20.797 C 14.142 21.669,18.255 19.669,20.083 15.940 C 21.302 13.453,21.302 10.547,20.083 8.060 C 19.190 6.237,17.762 4.810,15.944 3.923 C 15.066 3.494,14.269 3.244,13.320 3.101 C 12.911 3.039,11.662 2.991,11.340 3.024 M16.049 8.562 L 16.171 8.685 16.149 9.132 C 16.117 9.802,15.806 11.883,15.356 14.440 C 15.125 15.752,15.097 15.882,14.990 16.100 C 14.809 16.468,14.603 16.569,14.213 16.482 C 14.035 16.442,13.761 16.276,12.708 15.571 C 11.032 14.448,10.813 14.290,10.719 14.138 C 10.530 13.832,10.643 13.668,11.763 12.620 C 13.015 11.450,13.678 10.798,13.742 10.675 C 13.817 10.532,13.739 10.417,13.591 10.454 C 13.473 10.483,12.623 11.033,10.760 12.283 C 9.356 13.225,9.174 13.320,8.776 13.320 C 8.524 13.320,7.932 13.176,7.210 12.939 C 6.444 12.688,6.275 12.530,6.484 12.264 C 6.530 12.205,6.670 12.106,6.794 12.043 C 7.305 11.785,12.197 9.686,13.700 9.079 C 14.947 8.576,15.358 8.443,15.673 8.441 C 15.903 8.440,15.937 8.451,16.049 8.562 " fill="#373B4D" stroke="none" fill-rule="evenodd"></path></svg>