<svg width="24" height="24" viewBox="0 0 24 24" fill="none" xmlns="http://www.w3.org/2000/svg"><path d="M10.960 3.082 C 9.791 3.256,8.944 3.507,8.060 3.941 C 7.151 4.387,6.370 4.947,5.639 5.679 C 4.904 6.414,4.406 7.106,3.957 8.020 C 3.517 8.914,3.260 9.723,3.093 10.740 C 2.982 11.412,2.994 12.725,3.116 13.420 C 3.458 15.359,4.336 17.027,5.743 18.409 C 6.494 19.147,7.069 19.561,7.986 20.023 C 9.734 20.904,11.751 21.196,13.624 20.838 C 17.261 20.145,20.048 17.390,20.818 13.727 C 21.022 12.752,21.040 11.341,20.858 10.460 C 20.458 8.518,19.666 6.995,18.393 5.723 C 17.579 4.909,17.017 4.498,16.040 4.003 C 14.758 3.354,13.952 3.149,12.261 3.041 C 11.496 2.992,11.579 2.989,10.960 3.082 M15.948 8.518 C 16.160 8.614,16.180 8.707,16.121 9.300 C 16.008 10.417,15.516 13.593,15.216 15.140 C 15.077 15.857,14.985 16.122,14.802 16.328 C 14.661 16.486,14.634 16.500,14.454 16.500 C 14.173 16.500,13.889 16.347,12.691 15.553 C 11.489 14.755,11.130 14.497,10.870 14.247 C 10.652 14.036,10.628 13.909,10.763 13.680 C 10.809 13.603,11.502 12.892,12.304 12.100 C 13.106 11.308,13.762 10.631,13.761 10.595 C 13.759 10.481,13.658 10.427,13.553 10.483 C 13.379 10.575,12.386 11.209,11.222 11.973 C 9.083 13.375,9.066 13.382,8.425 13.262 C 7.992 13.181,7.113 12.914,6.777 12.762 C 6.639 12.699,6.497 12.602,6.459 12.544 C 6.396 12.447,6.395 12.433,6.456 12.340 C 6.589 12.137,6.768 12.049,9.060 11.052 C 12.742 9.450,14.769 8.626,15.340 8.500 C 15.667 8.427,15.753 8.430,15.948 8.518 " fill="#373B4D" stroke="none" fill-rule="evenodd"></path></svg>