<svg width="24" height="24" viewBox="0 0 24 24" fill="none" xmlns="http://www.w3.org/2000/svg"><path d="M7.848 5.063 C 6.370 5.278,5.124 5.866,4.126 6.820 C 2.908 7.983,2.217 9.386,2.037 11.060 C 1.921 12.142,2.170 13.512,2.677 14.573 C 3.144 15.553,4.030 16.559,4.992 17.204 C 6.794 18.411,9.066 18.652,11.103 17.852 C 13.059 17.085,14.482 15.494,15.079 13.410 C 15.185 13.039,15.196 13.019,15.305 13.010 C 16.152 12.934,16.701 12.312,16.629 11.511 C 16.591 11.092,16.317 10.706,15.900 10.486 C 15.724 10.393,15.653 10.380,15.320 10.380 C 15.007 10.380,14.912 10.395,14.780 10.467 C 14.543 10.595,14.293 10.824,14.179 11.018 C 14.076 11.193,14.063 11.264,13.939 12.330 C 13.772 13.761,13.008 15.074,11.840 15.938 C 9.864 17.400,7.218 17.340,5.297 15.789 C 4.334 15.011,3.596 13.749,3.401 12.547 C 3.340 12.172,3.351 11.142,3.420 10.745 C 3.703 9.123,4.766 7.679,6.229 6.927 C 7.013 6.525,7.609 6.385,8.753 6.336 L 9.380 6.309 9.800 5.903 C 10.031 5.680,10.290 5.444,10.375 5.380 L 10.530 5.263 10.415 5.232 C 10.028 5.126,8.858 4.994,8.404 5.004 C 8.303 5.007,8.053 5.033,7.848 5.063 M14.505 5.061 C 12.530 5.336,10.871 6.371,9.774 8.013 C 9.371 8.617,9.122 9.184,8.833 10.160 L 8.780 10.340 8.540 10.365 C 8.254 10.395,8.134 10.439,7.895 10.603 C 7.674 10.755,7.467 11.065,7.378 11.375 C 7.321 11.575,7.319 11.646,7.360 11.854 C 7.450 12.312,7.719 12.675,8.112 12.868 C 8.303 12.961,8.386 12.977,8.678 12.977 C 9.100 12.977,9.324 12.882,9.625 12.575 C 9.892 12.304,9.949 12.128,10.023 11.360 C 10.084 10.722,10.214 10.137,10.389 9.704 C 10.973 8.267,12.129 7.153,13.560 6.649 C 14.224 6.415,14.463 6.380,15.360 6.381 C 16.127 6.382,16.207 6.390,16.600 6.493 C 18.211 6.919,19.483 7.961,20.159 9.410 C 20.487 10.111,20.596 10.591,20.627 11.460 C 20.664 12.486,20.540 13.120,20.142 13.940 C 19.382 15.506,17.961 16.608,16.320 16.903 C 16.133 16.937,15.682 16.975,15.318 16.988 L 14.655 17.012 14.103 17.521 C 13.800 17.801,13.553 18.046,13.556 18.065 C 13.565 18.138,14.125 18.243,14.728 18.285 C 16.119 18.383,17.121 18.200,18.260 17.641 C 19.086 17.236,19.726 16.748,20.330 16.064 C 22.305 13.827,22.546 10.483,20.909 8.030 C 19.975 6.632,18.594 5.636,17.020 5.227 C 16.308 5.042,15.177 4.967,14.505 5.061 M7.880 7.758 C 5.317 8.303,3.960 11.033,5.080 13.390 C 5.287 13.826,5.433 14.032,5.817 14.433 C 6.957 15.621,8.652 15.970,10.212 15.339 C 10.960 15.036,11.735 14.346,12.138 13.626 C 12.441 13.084,12.566 12.632,12.659 11.734 C 12.727 11.079,12.785 10.836,12.963 10.461 C 13.247 9.863,13.968 9.264,14.620 9.084 C 14.708 9.060,15.032 9.041,15.340 9.041 C 15.827 9.042,15.935 9.054,16.171 9.137 C 17.013 9.434,17.679 10.153,17.908 11.010 C 17.999 11.350,17.997 12.016,17.904 12.360 C 17.708 13.083,17.172 13.730,16.480 14.080 C 16.281 14.181,16.253 14.212,16.185 14.406 C 16.144 14.524,16.013 14.829,15.895 15.083 C 15.777 15.338,15.680 15.568,15.680 15.593 C 15.680 15.654,15.737 15.652,16.076 15.581 C 16.917 15.404,17.595 15.039,18.170 14.454 C 19.023 13.586,19.404 12.496,19.287 11.261 C 19.129 9.604,17.949 8.232,16.324 7.816 C 14.248 7.284,12.153 8.460,11.519 10.512 C 11.413 10.855,11.321 11.433,11.319 11.760 C 11.315 12.797,10.584 13.790,9.530 14.193 C 9.283 14.288,9.208 14.297,8.660 14.297 C 8.104 14.297,8.040 14.289,7.791 14.190 C 7.392 14.033,7.173 13.892,6.849 13.585 C 6.273 13.038,6.004 12.400,6.001 11.576 C 6.000 11.292,6.133 10.795,6.306 10.440 C 6.499 10.045,6.971 9.566,7.414 9.317 L 7.727 9.140 7.917 8.680 C 8.021 8.427,8.164 8.108,8.233 7.971 C 8.303 7.834,8.360 7.713,8.360 7.701 C 8.360 7.667,8.242 7.681,7.880 7.758 " fill="#373B4D" stroke="none" fill-rule="evenodd"></path></svg>