<svg width="24" height="24" viewBox="0 0 24 24" fill="none" xmlns="http://www.w3.org/2000/svg"><path d="M7.860 5.081 C 6.894 5.185,5.518 5.737,4.708 6.344 C 4.300 6.650,3.541 7.433,3.230 7.868 C 2.508 8.877,2.000 10.435,2.000 11.640 C 2.000 12.346,2.225 13.430,2.531 14.198 C 3.157 15.769,4.592 17.188,6.206 17.830 C 7.266 18.252,8.392 18.402,9.446 18.262 C 10.490 18.123,11.542 17.734,12.379 17.179 C 12.922 16.819,13.796 15.937,14.141 15.401 C 14.399 15.003,14.808 14.159,15.022 13.586 C 15.229 13.032,15.204 13.059,15.600 12.940 C 16.039 12.807,16.409 12.485,16.544 12.117 C 16.579 12.019,16.610 11.814,16.613 11.660 C 16.618 11.312,16.490 11.007,16.236 10.760 C 15.958 10.491,15.800 10.430,15.328 10.408 L 14.916 10.389 14.696 10.541 C 14.575 10.624,14.397 10.780,14.301 10.888 C 14.104 11.107,14.116 11.064,13.926 12.240 C 13.784 13.119,13.666 13.515,13.377 14.080 C 12.894 15.025,12.074 15.864,11.152 16.357 C 10.822 16.534,10.177 16.767,9.700 16.882 C 9.280 16.983,8.153 16.992,7.688 16.897 C 6.193 16.592,4.890 15.668,4.113 14.362 C 3.878 13.967,3.764 13.722,3.574 13.201 L 3.435 12.822 3.449 11.621 L 3.463 10.420 3.596 10.060 C 4.151 8.562,5.117 7.474,6.459 6.836 C 7.080 6.541,7.534 6.446,8.760 6.357 L 9.380 6.312 9.700 6.005 C 9.876 5.836,10.136 5.595,10.277 5.469 C 10.418 5.343,10.517 5.240,10.497 5.240 C 10.477 5.240,10.298 5.214,10.100 5.182 C 9.278 5.051,8.476 5.015,7.860 5.081 M14.540 5.085 C 13.612 5.174,12.468 5.600,11.609 6.177 C 11.002 6.585,10.197 7.396,9.780 8.020 C 9.484 8.462,9.237 8.991,8.985 9.717 L 8.771 10.335 8.535 10.383 C 7.910 10.510,7.545 10.836,7.380 11.412 C 7.323 11.608,7.321 11.677,7.361 11.852 C 7.448 12.227,7.745 12.638,8.069 12.827 C 8.307 12.967,8.759 13.001,9.092 12.904 C 9.366 12.825,9.718 12.504,9.843 12.223 C 9.887 12.124,9.985 11.668,10.061 11.211 C 10.213 10.291,10.287 9.999,10.478 9.564 C 10.775 8.888,11.125 8.399,11.733 7.811 C 12.159 7.399,12.566 7.116,13.100 6.861 C 13.938 6.462,14.604 6.357,15.861 6.429 C 16.545 6.468,16.599 6.477,16.980 6.620 C 17.893 6.963,18.449 7.316,19.081 7.954 C 19.979 8.862,20.429 9.756,20.564 10.899 C 20.622 11.388,20.587 12.515,20.504 12.884 C 20.189 14.269,19.057 15.723,17.773 16.391 C 17.073 16.755,16.314 16.936,15.244 16.995 L 14.635 17.028 14.407 17.244 C 13.779 17.840,13.600 18.022,13.600 18.064 C 13.600 18.090,13.677 18.130,13.770 18.153 C 14.183 18.256,14.675 18.288,15.554 18.269 C 16.541 18.248,16.747 18.212,17.580 17.918 C 19.425 17.266,20.934 15.743,21.599 13.860 C 22.202 12.156,22.100 10.404,21.300 8.740 C 20.999 8.115,20.665 7.667,20.000 7.000 C 19.348 6.346,18.958 6.061,18.232 5.707 C 17.392 5.297,16.843 5.158,15.760 5.082 C 15.114 5.036,15.052 5.036,14.540 5.085 M7.980 7.739 C 7.447 7.857,6.768 8.156,6.337 8.462 C 5.785 8.853,5.209 9.601,4.958 10.250 C 4.744 10.808,4.710 11.028,4.731 11.760 C 4.752 12.481,4.793 12.690,5.019 13.213 C 5.231 13.705,5.392 13.945,5.797 14.369 C 6.388 14.989,6.938 15.315,7.748 15.525 C 8.274 15.662,9.105 15.654,9.655 15.508 C 10.372 15.316,10.913 14.996,11.492 14.421 C 12.209 13.710,12.444 13.173,12.662 11.748 C 12.784 10.953,12.865 10.667,13.061 10.341 C 13.350 9.862,13.663 9.570,14.227 9.255 C 14.461 9.123,14.524 9.108,14.962 9.072 C 15.801 9.003,16.271 9.118,16.862 9.540 C 17.215 9.792,17.501 10.128,17.679 10.500 C 17.887 10.936,17.940 11.181,17.939 11.720 C 17.939 12.097,17.922 12.233,17.843 12.475 C 17.664 13.025,17.171 13.629,16.571 14.033 C 16.285 14.227,16.196 14.360,15.920 15.012 C 15.661 15.625,15.657 15.640,15.753 15.640 C 15.893 15.640,16.573 15.448,16.843 15.333 C 18.083 14.801,18.911 13.801,19.220 12.464 C 19.471 11.379,19.145 10.064,18.394 9.135 C 17.921 8.550,17.039 8.007,16.280 7.833 C 15.766 7.715,14.752 7.705,14.360 7.815 C 12.737 8.268,11.630 9.536,11.381 11.229 C 11.346 11.466,11.290 11.840,11.258 12.060 C 11.127 12.944,10.548 13.694,9.662 14.125 L 9.344 14.280 8.657 14.280 L 7.969 14.280 7.649 14.120 C 6.934 13.762,6.406 13.190,6.152 12.497 C 6.078 12.296,6.065 12.174,6.064 11.700 C 6.062 11.082,6.091 10.938,6.306 10.487 C 6.473 10.136,6.889 9.700,7.402 9.335 L 7.737 9.097 8.049 8.401 C 8.220 8.019,8.360 7.700,8.360 7.693 C 8.360 7.669,8.221 7.686,7.980 7.739 " fill="#373B4D" stroke="none" fill-rule="evenodd"></path></svg>