<svg width="24" height="24" viewBox="0 0 24 24" fill="none" xmlns="http://www.w3.org/2000/svg"><path d="M8.120 5.023 C 6.868 5.168,5.885 5.517,4.938 6.153 C 2.972 7.474,1.820 9.867,2.033 12.186 C 2.184 13.842,2.820 15.220,3.960 16.361 C 5.036 17.439,6.413 18.106,7.921 18.282 C 8.462 18.345,9.411 18.308,9.934 18.202 C 12.468 17.692,14.434 15.848,15.097 13.360 L 15.188 13.020 15.442 12.988 C 15.772 12.947,15.990 12.848,16.221 12.635 C 16.494 12.383,16.610 12.130,16.631 11.740 C 16.653 11.312,16.553 11.039,16.266 10.745 C 16.017 10.489,15.710 10.359,15.342 10.353 C 14.980 10.346,14.719 10.448,14.443 10.703 C 14.111 11.011,14.036 11.206,13.997 11.860 C 13.962 12.451,13.885 12.866,13.719 13.368 C 13.096 15.241,11.423 16.648,9.474 16.937 C 8.360 17.102,7.302 16.937,6.300 16.440 C 4.802 15.698,3.740 14.303,3.413 12.650 C 3.310 12.123,3.319 11.145,3.434 10.611 C 3.836 8.731,5.161 7.220,6.940 6.613 C 7.463 6.435,7.942 6.357,8.678 6.332 L 9.376 6.308 9.714 5.972 C 9.900 5.787,10.160 5.551,10.290 5.449 L 10.528 5.262 10.334 5.213 C 9.754 5.064,8.611 4.966,8.120 5.023 M14.780 5.023 C 14.714 5.033,14.516 5.059,14.340 5.082 C 14.164 5.105,13.853 5.168,13.648 5.222 C 11.322 5.831,9.489 7.669,8.881 10.000 L 8.793 10.340 8.567 10.351 C 8.111 10.374,7.684 10.665,7.479 11.093 C 7.326 11.411,7.298 11.653,7.378 11.966 C 7.485 12.383,7.738 12.693,8.120 12.875 C 8.304 12.963,8.395 12.980,8.680 12.979 C 8.969 12.979,9.054 12.962,9.246 12.869 C 9.370 12.808,9.547 12.676,9.639 12.576 C 9.892 12.302,9.965 12.100,10.004 11.563 C 10.052 10.898,10.074 10.745,10.184 10.322 C 10.707 8.310,12.362 6.778,14.400 6.418 C 14.910 6.328,15.787 6.327,16.260 6.416 C 17.699 6.687,18.977 7.512,19.739 8.660 C 20.374 9.618,20.649 10.513,20.653 11.640 C 20.656 12.310,20.599 12.705,20.413 13.295 C 19.991 14.639,18.904 15.884,17.635 16.477 C 16.873 16.833,16.319 16.958,15.367 16.988 L 14.634 17.011 14.261 17.378 C 14.057 17.579,13.797 17.815,13.684 17.900 C 13.541 18.010,13.496 18.065,13.532 18.086 C 13.561 18.102,13.773 18.156,14.002 18.206 C 14.365 18.285,14.538 18.297,15.320 18.298 C 16.300 18.300,16.520 18.271,17.293 18.036 C 20.164 17.161,22.112 14.418,21.988 11.424 C 21.915 9.682,21.261 8.182,20.040 6.959 C 19.056 5.974,17.844 5.342,16.480 5.102 C 16.115 5.038,15.029 4.988,14.780 5.023 M7.940 7.740 C 7.373 7.845,6.743 8.118,6.297 8.454 C 6.012 8.667,5.550 9.144,5.363 9.416 C 5.165 9.703,4.890 10.310,4.798 10.664 C 4.671 11.149,4.650 11.954,4.751 12.441 C 5.170 14.461,6.999 15.829,9.025 15.638 C 9.978 15.547,10.809 15.157,11.483 14.483 C 11.837 14.129,12.071 13.796,12.282 13.345 C 12.503 12.874,12.595 12.495,12.643 11.860 C 12.698 11.138,12.762 10.857,12.966 10.441 C 13.095 10.179,13.201 10.035,13.437 9.801 C 13.782 9.461,14.060 9.282,14.487 9.129 C 14.748 9.034,14.838 9.023,15.320 9.022 C 15.811 9.021,15.889 9.031,16.180 9.134 C 16.610 9.285,17.109 9.622,17.362 9.933 C 18.474 11.296,18.074 13.263,16.526 14.051 L 16.272 14.180 16.144 14.520 C 16.074 14.708,15.931 15.030,15.828 15.237 C 15.725 15.444,15.648 15.622,15.659 15.632 C 15.701 15.674,16.322 15.543,16.669 15.420 C 17.953 14.961,18.866 13.947,19.224 12.580 C 19.335 12.159,19.327 11.135,19.209 10.710 C 19.009 9.986,18.718 9.456,18.244 8.953 C 17.841 8.524,17.534 8.298,17.034 8.062 C 16.106 7.624,15.038 7.561,14.060 7.885 C 12.591 8.373,11.554 9.661,11.361 11.239 C 11.339 11.425,11.320 11.687,11.320 11.821 C 11.320 12.148,11.232 12.472,11.033 12.880 C 10.716 13.532,10.006 14.098,9.300 14.261 C 8.959 14.341,8.332 14.340,8.020 14.261 C 7.575 14.148,7.130 13.892,6.800 13.560 C 6.276 13.033,6.048 12.524,6.011 11.799 C 5.993 11.454,6.005 11.319,6.073 11.047 C 6.275 10.251,6.724 9.683,7.471 9.280 L 7.730 9.140 7.860 8.800 C 7.931 8.612,8.073 8.293,8.175 8.090 C 8.277 7.888,8.360 7.712,8.360 7.701 C 8.360 7.672,8.263 7.681,7.940 7.740 " fill="#373B4D" stroke="none" fill-rule="evenodd"></path></svg>