<svg width="24" height="24" viewBox="0 0 24 24" fill="none" xmlns="http://www.w3.org/2000/svg"><path d="M8.000 5.041 C 5.877 5.336,4.246 6.334,3.101 8.040 C 2.319 9.206,1.890 10.876,2.035 12.196 C 2.186 13.573,2.611 14.689,3.349 15.652 C 3.619 16.006,4.170 16.569,4.520 16.851 C 6.831 18.714,10.083 18.804,12.541 17.073 C 13.005 16.746,13.707 16.042,14.050 15.560 C 14.402 15.065,14.799 14.266,15.001 13.645 C 15.090 13.373,15.179 13.119,15.200 13.081 C 15.224 13.035,15.306 13.003,15.436 12.988 C 15.888 12.934,16.319 12.621,16.514 12.206 C 16.654 11.907,16.663 11.437,16.534 11.155 C 16.421 10.908,16.189 10.658,15.942 10.517 C 15.754 10.409,15.710 10.401,15.315 10.400 L 14.889 10.400 14.646 10.562 C 14.390 10.733,14.192 10.951,14.118 11.144 C 14.093 11.208,14.030 11.589,13.977 11.991 C 13.925 12.394,13.853 12.835,13.817 12.971 C 13.570 13.926,13.111 14.732,12.421 15.421 C 11.672 16.171,10.793 16.647,9.717 16.886 C 9.136 17.015,8.206 17.015,7.612 16.887 C 5.580 16.449,4.006 14.932,3.474 12.900 C 3.389 12.574,3.380 12.461,3.384 11.700 C 3.387 11.075,3.405 10.785,3.454 10.566 C 3.848 8.820,5.083 7.360,6.719 6.705 C 7.224 6.503,7.746 6.406,8.620 6.354 L 9.380 6.308 9.740 5.962 C 9.938 5.772,10.196 5.534,10.314 5.433 L 10.528 5.250 10.174 5.186 C 9.372 5.042,8.442 4.980,8.000 5.041 M14.260 5.102 C 12.305 5.467,10.767 6.489,9.702 8.130 C 9.404 8.589,9.196 9.046,8.961 9.758 L 8.768 10.340 8.520 10.371 C 7.945 10.444,7.510 10.849,7.357 11.454 C 7.237 11.932,7.615 12.626,8.132 12.876 C 8.358 12.986,8.795 13.005,9.100 12.920 C 9.425 12.829,9.853 12.377,9.932 12.040 C 9.945 11.985,9.993 11.643,10.039 11.280 C 10.180 10.156,10.388 9.543,10.888 8.772 C 11.226 8.250,11.900 7.561,12.380 7.245 C 12.963 6.862,13.740 6.540,14.326 6.439 C 14.491 6.411,14.934 6.399,15.506 6.407 L 16.420 6.422 16.919 6.592 C 17.850 6.911,18.548 7.347,19.179 8.005 C 19.752 8.602,20.174 9.305,20.411 10.060 C 20.682 10.919,20.702 12.252,20.458 13.109 C 20.245 13.857,19.739 14.732,19.181 15.316 C 18.058 16.492,16.808 16.998,15.018 17.000 L 14.656 17.000 14.098 17.536 L 13.540 18.072 13.654 18.117 C 13.937 18.227,14.555 18.292,15.340 18.295 C 16.016 18.297,16.210 18.283,16.589 18.208 C 17.693 17.987,18.748 17.480,19.627 16.748 C 20.708 15.849,21.496 14.546,21.823 13.120 C 22.248 11.265,21.865 9.369,20.747 7.800 C 20.425 7.348,19.631 6.563,19.160 6.230 C 18.428 5.713,17.439 5.292,16.600 5.140 C 16.065 5.043,14.695 5.021,14.260 5.102 M8.120 7.708 C 7.549 7.808,6.873 8.079,6.411 8.392 C 5.633 8.921,5.060 9.737,4.810 10.675 C 4.723 11.001,4.707 11.149,4.705 11.640 C 4.702 12.312,4.775 12.675,5.029 13.265 C 5.237 13.747,5.436 14.037,5.839 14.444 C 6.593 15.204,7.435 15.583,8.470 15.629 C 9.595 15.679,10.545 15.333,11.349 14.582 C 11.770 14.189,12.040 13.837,12.241 13.420 C 12.451 12.986,12.547 12.614,12.641 11.880 C 12.753 11.005,12.786 10.863,12.968 10.480 C 13.101 10.200,13.192 10.079,13.477 9.796 C 13.763 9.512,13.893 9.417,14.209 9.260 L 14.594 9.069 15.147 9.050 C 15.810 9.026,16.047 9.068,16.472 9.282 C 17.060 9.579,17.475 10.004,17.742 10.580 C 17.911 10.947,17.960 11.196,17.960 11.694 C 17.960 12.175,17.895 12.461,17.689 12.880 C 17.500 13.265,16.988 13.794,16.580 14.025 C 16.381 14.137,16.280 14.223,16.230 14.321 C 16.107 14.565,15.680 15.563,15.680 15.607 C 15.680 15.663,15.965 15.619,16.398 15.495 C 18.852 14.792,20.014 12.109,18.856 9.820 C 17.934 7.996,15.599 7.188,13.708 8.037 C 12.900 8.399,12.183 9.078,11.795 9.849 C 11.514 10.408,11.321 11.166,11.319 11.717 C 11.316 12.754,10.571 13.787,9.540 14.184 C 9.281 14.284,9.215 14.292,8.660 14.292 C 8.080 14.293,8.049 14.289,7.740 14.167 C 7.011 13.879,6.374 13.203,6.135 12.463 C 6.049 12.197,6.029 12.059,6.026 11.680 C 6.022 11.259,6.032 11.189,6.150 10.848 C 6.221 10.644,6.345 10.374,6.425 10.248 C 6.626 9.934,7.050 9.536,7.426 9.313 C 7.736 9.128,7.742 9.121,7.856 8.833 C 7.920 8.672,8.060 8.353,8.166 8.124 C 8.273 7.895,8.360 7.702,8.360 7.694 C 8.360 7.678,8.262 7.684,8.120 7.708 " fill="#373B4D" stroke="none" fill-rule="evenodd"></path></svg>