<svg width="24" height="24" viewBox="0 0 24 24" fill="none" xmlns="http://www.w3.org/2000/svg"><path d="M9.544 3.684 C 6.453 3.705,4.649 3.731,4.469 3.759 C 4.167 3.806,4.029 3.882,3.872 4.089 C 3.619 4.420,3.627 4.367,3.625 5.940 C 3.625 7.047,3.637 7.417,3.678 7.540 C 3.742 7.726,4.102 8.122,4.358 8.286 L 4.536 8.400 11.978 8.400 L 19.420 8.399 19.621 8.284 C 19.891 8.129,20.340 7.650,20.374 7.481 C 20.407 7.314,20.402 5.619,20.366 4.956 C 20.340 4.489,20.329 4.437,20.218 4.256 C 20.150 4.146,19.979 3.970,19.825 3.851 L 19.552 3.640 16.946 3.647 C 15.513 3.650,12.182 3.667,9.544 3.684 M6.420 10.918 C 4.895 10.934,4.277 10.953,4.217 10.987 C 4.084 11.064,3.799 11.393,3.736 11.543 C 3.658 11.731,3.602 14.050,3.601 17.162 L 3.600 19.544 3.818 19.809 C 4.157 20.220,4.256 20.280,4.668 20.325 C 4.862 20.347,6.667 20.374,8.680 20.386 L 12.340 20.407 12.576 20.214 C 12.706 20.107,12.886 19.915,12.976 19.787 L 13.140 19.554 13.151 15.606 L 13.162 11.657 13.042 11.476 C 12.976 11.376,12.812 11.201,12.677 11.087 L 12.432 10.880 10.486 10.888 C 9.416 10.893,7.586 10.906,6.420 10.918 M16.345 10.979 C 16.135 11.054,15.918 11.235,15.812 11.424 C 15.655 11.706,15.634 12.081,15.613 15.000 C 15.592 17.814,15.629 19.305,15.727 19.615 C 15.792 19.817,16.078 20.133,16.291 20.235 C 16.536 20.354,17.380 20.414,18.458 20.390 C 19.607 20.364,19.658 20.349,20.084 19.908 L 20.400 19.582 20.396 17.161 C 20.394 15.829,20.381 14.056,20.366 13.219 L 20.339 11.699 20.220 11.459 C 20.066 11.152,19.848 11.009,19.454 10.958 C 19.303 10.938,18.577 10.923,17.840 10.923 C 16.803 10.923,16.465 10.936,16.345 10.979 " fill="#373B4D" stroke="none" fill-rule="evenodd"></path></svg>