<svg width="24" height="24" viewBox="0 0 24 24" fill="none" xmlns="http://www.w3.org/2000/svg"><path d="M12.700 3.683 C 8.309 3.716,4.842 3.781,4.444 3.839 C 4.155 3.880,3.993 3.988,3.786 4.274 L 3.660 4.448 3.647 6.011 L 3.635 7.573 4.047 7.987 L 4.459 8.400 11.943 8.400 L 19.428 8.400 19.598 8.277 C 19.692 8.209,19.906 8.021,20.074 7.860 L 20.380 7.567 20.379 6.354 C 20.378 5.099,20.330 4.504,20.215 4.327 C 20.182 4.276,20.027 4.101,19.872 3.937 L 19.590 3.640 18.145 3.647 C 17.350 3.651,14.900 3.667,12.700 3.683 M8.040 10.922 C 5.560 10.953,4.544 10.985,4.300 11.039 C 4.100 11.084,3.820 11.376,3.759 11.604 C 3.676 11.911,3.641 13.054,3.615 16.300 L 3.588 19.580 3.892 19.868 C 4.059 20.026,4.251 20.184,4.318 20.219 C 4.515 20.321,5.544 20.357,9.081 20.386 L 12.341 20.413 12.585 20.187 C 12.719 20.063,12.904 19.865,12.995 19.747 L 13.160 19.533 13.160 15.600 L 13.160 11.668 13.011 11.484 C 12.929 11.383,12.773 11.205,12.665 11.090 L 12.468 10.880 11.384 10.887 C 10.788 10.890,9.283 10.906,8.040 10.922 M16.620 11.035 C 16.225 11.062,16.117 11.111,15.940 11.343 C 15.649 11.725,15.629 11.998,15.626 15.620 C 15.623 18.616,15.651 19.359,15.775 19.653 C 15.865 19.866,16.238 20.185,16.484 20.258 C 16.918 20.387,18.321 20.442,19.060 20.359 C 19.512 20.308,19.729 20.204,20.110 19.857 L 20.400 19.593 20.400 15.663 L 20.400 11.732 20.286 11.576 C 20.224 11.490,20.120 11.365,20.056 11.297 C 19.813 11.040,19.867 11.049,18.360 11.028 C 17.601 11.018,16.818 11.021,16.620 11.035 " fill="#373B4D" stroke="none" fill-rule="evenodd"></path></svg>