<svg width="24" height="24" viewBox="0 0 24 24" fill="none" xmlns="http://www.w3.org/2000/svg"><path d="M11.280 3.684 C 6.719 3.717,4.532 3.766,4.267 3.842 C 4.089 3.893,3.837 4.130,3.722 4.357 C 3.644 4.510,3.640 4.585,3.640 6.043 L 3.640 7.568 4.056 7.984 L 4.472 8.400 11.949 8.400 L 19.426 8.400 19.603 8.282 C 19.700 8.217,19.910 8.033,20.069 7.872 L 20.358 7.580 20.383 6.840 C 20.411 6.020,20.350 4.668,20.274 4.420 C 20.239 4.306,20.133 4.171,19.905 3.950 L 19.586 3.640 17.643 3.647 C 16.574 3.650,13.711 3.667,11.280 3.684 M7.281 10.927 C 5.696 10.947,4.399 10.979,4.317 11.001 C 4.124 11.053,3.810 11.373,3.756 11.574 C 3.672 11.886,3.642 12.890,3.614 16.192 L 3.587 19.565 3.883 19.865 C 4.047 20.031,4.229 20.192,4.290 20.224 C 4.481 20.325,5.456 20.359,8.961 20.386 L 12.341 20.413 12.585 20.187 C 12.719 20.063,12.904 19.864,12.996 19.745 L 13.163 19.528 13.152 15.594 L 13.140 11.660 13.042 11.520 C 12.988 11.443,12.836 11.268,12.705 11.130 L 12.467 10.880 11.284 10.886 C 10.633 10.890,8.832 10.908,7.281 10.927 M16.693 10.995 C 16.325 11.018,16.270 11.032,16.114 11.142 C 16.002 11.220,15.901 11.341,15.828 11.483 C 15.649 11.833,15.624 12.358,15.623 15.760 C 15.622 19.035,15.642 19.439,15.821 19.744 C 15.943 19.954,16.212 20.180,16.431 20.257 C 16.959 20.443,19.228 20.443,19.620 20.258 C 19.686 20.226,19.892 20.061,20.076 19.892 L 20.410 19.584 20.393 15.639 L 20.375 11.694 20.281 11.557 C 20.129 11.335,19.950 11.158,19.800 11.081 C 19.677 11.019,19.505 11.008,18.380 10.990 C 17.676 10.979,16.917 10.982,16.693 10.995 " fill="#373B4D" stroke="none" fill-rule="evenodd"></path></svg>