<svg width="24" height="24" viewBox="0 0 24 24" fill="none" xmlns="http://www.w3.org/2000/svg"><path d="M4.980 3.634 C 4.513 3.656,4.393 3.675,4.255 3.748 C 3.990 3.890,3.852 4.028,3.732 4.272 L 3.620 4.500 3.620 6.000 C 3.620 7.487,3.621 7.502,3.713 7.688 C 3.831 7.927,4.073 8.169,4.312 8.287 L 4.500 8.380 12.000 8.380 L 19.500 8.380 19.688 8.287 C 19.927 8.169,20.169 7.927,20.287 7.688 C 20.379 7.502,20.380 7.487,20.380 6.000 C 20.380 4.662,20.373 4.483,20.311 4.346 C 20.194 4.089,20.016 3.899,19.763 3.765 L 19.523 3.637 12.531 3.622 C 8.686 3.615,5.288 3.620,4.980 3.634 M4.980 10.835 C 4.328 10.865,4.202 10.912,3.911 11.236 C 3.605 11.576,3.620 11.350,3.620 15.660 L 3.620 19.500 3.712 19.686 C 3.822 19.911,4.139 20.216,4.371 20.321 C 4.534 20.395,4.679 20.398,8.402 20.399 L 12.264 20.400 12.468 20.298 C 12.709 20.178,13.014 19.866,13.121 19.629 C 13.195 19.466,13.198 19.322,13.198 15.600 C 13.198 11.891,13.195 11.733,13.122 11.572 C 13.017 11.341,12.740 11.052,12.514 10.937 L 12.325 10.841 8.932 10.825 C 7.067 10.816,5.288 10.820,4.980 10.835 M16.700 10.834 C 16.354 10.868,16.147 10.974,15.911 11.236 C 15.605 11.576,15.620 11.352,15.620 15.640 C 15.620 18.716,15.630 19.489,15.673 19.610 C 15.747 19.818,16.084 20.176,16.311 20.286 C 16.496 20.376,16.535 20.378,17.964 20.393 C 19.370 20.409,19.435 20.406,19.613 20.327 C 19.862 20.217,20.175 19.917,20.298 19.668 L 20.400 19.464 20.399 15.602 C 20.398 11.892,20.395 11.733,20.322 11.572 C 20.217 11.341,19.940 11.052,19.715 10.937 C 19.530 10.844,19.499 10.841,18.253 10.824 C 17.553 10.815,16.854 10.819,16.700 10.834 " fill="#373B4D" stroke="none" fill-rule="evenodd"></path></svg>