<svg width="24" height="24" viewBox="0 0 24 24" fill="none" xmlns="http://www.w3.org/2000/svg"><path d="M10.320 3.682 C 5.693 3.712,4.526 3.735,4.268 3.804 C 4.079 3.854,3.818 4.108,3.713 4.345 C 3.640 4.511,3.635 4.618,3.636 5.980 C 3.637 7.123,3.649 7.465,3.693 7.568 C 3.766 7.744,4.118 8.125,4.348 8.277 L 4.534 8.400 11.968 8.400 L 19.403 8.400 19.572 8.314 C 19.789 8.203,20.264 7.728,20.341 7.545 C 20.388 7.431,20.400 7.197,20.399 6.391 C 20.398 5.215,20.351 4.496,20.266 4.334 C 20.205 4.218,19.873 3.883,19.665 3.726 L 19.549 3.640 17.165 3.647 C 15.853 3.650,12.773 3.666,10.320 3.682 M6.980 10.922 C 5.726 10.937,4.597 10.951,4.471 10.954 C 4.276 10.959,4.222 10.979,4.099 11.086 C 4.020 11.156,3.901 11.291,3.835 11.387 C 3.725 11.547,3.712 11.602,3.677 12.071 C 3.656 12.351,3.628 14.146,3.615 16.060 L 3.590 19.540 3.856 19.849 C 4.002 20.019,4.176 20.187,4.242 20.221 C 4.309 20.256,4.511 20.301,4.692 20.322 C 5.064 20.365,12.169 20.427,12.323 20.388 C 12.433 20.360,12.903 19.904,13.060 19.672 L 13.160 19.524 13.160 15.592 C 13.159 11.920,13.155 11.653,13.090 11.556 C 12.985 11.401,12.839 11.240,12.629 11.050 L 12.442 10.880 10.851 10.888 C 9.976 10.892,8.234 10.908,6.980 10.922 M16.513 10.957 C 16.221 10.998,15.939 11.193,15.811 11.443 C 15.756 11.548,15.702 11.755,15.679 11.941 C 15.658 12.117,15.629 13.493,15.615 15.000 C 15.589 17.955,15.626 19.354,15.740 19.627 C 15.901 20.011,16.205 20.244,16.653 20.327 C 17.064 20.403,19.179 20.401,19.477 20.324 C 19.664 20.276,19.745 20.220,20.053 19.924 L 20.411 19.580 20.388 15.672 C 20.366 11.907,20.363 11.758,20.287 11.587 C 20.244 11.490,20.142 11.336,20.060 11.245 C 19.812 10.970,19.712 10.955,18.120 10.939 C 17.361 10.931,16.638 10.939,16.513 10.957 " fill="#373B4D" stroke="none" fill-rule="evenodd"></path></svg>