<svg width="24" height="24" viewBox="0 0 24 24" fill="none" xmlns="http://www.w3.org/2000/svg"><path d="M13.860 3.668 C 10.910 3.680,5.428 3.759,4.817 3.798 C 4.484 3.819,4.250 3.853,4.175 3.892 C 3.994 3.986,3.731 4.293,3.683 4.466 C 3.656 4.563,3.640 5.172,3.640 6.101 L 3.640 7.581 4.051 7.991 L 4.461 8.400 11.946 8.400 L 19.431 8.400 19.666 8.225 C 19.795 8.128,20.003 7.943,20.130 7.814 L 20.360 7.578 20.385 6.799 C 20.414 5.879,20.347 4.623,20.257 4.406 C 20.224 4.326,20.058 4.120,19.889 3.950 L 19.582 3.640 17.741 3.650 C 16.728 3.655,14.982 3.663,13.860 3.668 M7.880 10.922 C 5.082 10.956,4.348 10.983,4.204 11.058 C 4.050 11.139,3.853 11.359,3.782 11.529 C 3.677 11.780,3.641 12.807,3.614 16.280 L 3.589 19.580 3.909 19.889 C 4.084 20.059,4.280 20.217,4.343 20.241 C 4.559 20.323,5.703 20.359,9.021 20.386 L 12.341 20.413 12.585 20.187 C 12.719 20.063,12.904 19.865,12.995 19.747 L 13.160 19.533 13.160 15.609 L 13.160 11.686 13.015 11.493 C 12.936 11.387,12.779 11.205,12.667 11.090 L 12.463 10.880 11.341 10.887 C 10.725 10.890,9.167 10.906,7.880 10.922 M16.344 11.028 C 16.175 11.055,15.830 11.417,15.766 11.634 C 15.737 11.730,15.699 11.964,15.680 12.154 C 15.623 12.732,15.594 16.492,15.635 17.960 C 15.679 19.547,15.696 19.646,15.976 19.934 C 16.323 20.291,16.576 20.355,17.760 20.387 C 18.709 20.413,19.371 20.361,19.617 20.241 C 19.707 20.197,19.919 20.033,20.090 19.877 L 20.400 19.594 20.400 15.661 L 20.400 11.729 20.221 11.486 C 20.123 11.352,19.966 11.192,19.874 11.131 L 19.706 11.020 18.083 11.014 C 17.190 11.011,16.408 11.017,16.344 11.028 " fill="#373B4D" stroke="none" fill-rule="evenodd"></path></svg>