<svg width="24" height="24" viewBox="0 0 24 24" fill="none" xmlns="http://www.w3.org/2000/svg"><path d="M9.300 3.681 C 6.880 3.696,4.753 3.722,4.574 3.738 C 4.373 3.756,4.202 3.796,4.127 3.842 C 3.953 3.948,3.688 4.298,3.651 4.472 C 3.634 4.553,3.622 5.259,3.623 6.040 C 3.626 7.341,3.633 7.473,3.702 7.620 C 3.802 7.834,4.176 8.203,4.403 8.312 L 4.585 8.400 11.993 8.400 L 19.401 8.400 19.590 8.311 C 19.836 8.196,20.297 7.731,20.363 7.532 C 20.422 7.352,20.388 4.666,20.324 4.449 C 20.268 4.261,20.060 4.015,19.787 3.814 L 19.551 3.640 16.626 3.647 C 15.017 3.651,11.720 3.666,9.300 3.681 M5.897 10.918 L 4.293 10.940 4.130 11.053 C 3.959 11.172,3.798 11.377,3.716 11.580 C 3.656 11.730,3.608 14.208,3.603 17.316 L 3.600 19.532 3.706 19.676 C 3.871 19.901,4.169 20.200,4.289 20.264 C 4.461 20.354,6.125 20.398,9.416 20.399 L 12.333 20.400 12.547 20.239 C 12.808 20.041,13.064 19.725,13.122 19.527 C 13.152 19.425,13.161 18.197,13.152 15.500 L 13.140 11.620 13.046 11.469 C 12.995 11.387,12.836 11.220,12.694 11.099 L 12.435 10.880 9.968 10.888 C 8.610 10.893,6.778 10.906,5.897 10.918 M16.600 10.915 C 16.310 10.943,16.043 11.094,15.866 11.331 C 15.711 11.539,15.681 11.700,15.640 12.542 C 15.590 13.582,15.590 17.758,15.640 18.759 C 15.676 19.470,15.689 19.557,15.782 19.748 C 15.884 19.957,16.065 20.130,16.311 20.256 C 16.482 20.344,17.219 20.397,18.260 20.399 C 19.124 20.399,19.484 20.360,19.721 20.239 C 19.804 20.197,19.993 20.024,20.140 19.855 L 20.408 19.548 20.386 15.784 C 20.375 13.710,20.348 11.907,20.327 11.768 C 20.252 11.277,19.930 10.983,19.428 10.945 C 18.969 10.910,16.886 10.888,16.600 10.915 " fill="#373B4D" stroke="none" fill-rule="evenodd"></path></svg>