<svg width="24" height="24" viewBox="0 0 24 24" fill="none" xmlns="http://www.w3.org/2000/svg"><path d="M8.500 3.681 C 5.543 3.700,4.487 3.719,4.331 3.756 C 4.160 3.797,4.088 3.843,3.938 4.011 C 3.602 4.384,3.620 4.279,3.621 5.920 C 3.621 7.007,3.635 7.425,3.674 7.556 C 3.740 7.778,4.098 8.163,4.354 8.287 L 4.538 8.376 11.999 8.376 L 19.461 8.376 19.649 8.285 C 19.847 8.190,20.236 7.801,20.345 7.590 C 20.402 7.480,20.407 7.298,20.389 6.023 C 20.375 5.081,20.352 4.526,20.321 4.425 C 20.264 4.239,19.985 3.930,19.723 3.762 L 19.533 3.640 15.996 3.648 C 14.051 3.652,10.678 3.667,8.500 3.681 M5.136 10.918 L 4.293 10.940 4.123 11.058 C 3.883 11.224,3.720 11.479,3.677 11.753 C 3.657 11.878,3.630 13.672,3.616 15.740 L 3.591 19.500 3.725 19.700 C 3.932 20.009,4.203 20.262,4.361 20.295 C 4.671 20.360,6.502 20.398,9.333 20.399 L 12.326 20.400 12.493 20.284 C 12.820 20.056,13.092 19.712,13.136 19.472 C 13.184 19.209,13.172 11.833,13.123 11.652 C 13.069 11.449,12.973 11.327,12.673 11.077 L 12.436 10.880 9.208 10.888 C 7.433 10.893,5.600 10.906,5.136 10.918 M16.440 10.914 C 16.115 11.023,15.793 11.327,15.721 11.595 C 15.639 11.901,15.602 13.178,15.602 15.680 C 15.603 18.200,15.637 19.331,15.721 19.643 C 15.786 19.886,16.131 20.216,16.410 20.302 C 16.670 20.383,18.654 20.429,19.234 20.369 C 19.682 20.322,19.816 20.243,20.169 19.823 L 20.400 19.548 20.399 16.304 C 20.398 12.779,20.366 11.688,20.256 11.458 C 20.172 11.281,19.864 11.013,19.680 10.957 C 19.508 10.905,16.583 10.867,16.440 10.914 " fill="#373B4D" stroke="none" fill-rule="evenodd"></path></svg>