<svg width="24" height="24" viewBox="0 0 24 24" fill="none" xmlns="http://www.w3.org/2000/svg"><path d="M7.400 3.678 C 3.982 3.703,4.232 3.677,3.913 4.035 C 3.585 4.404,3.589 4.378,3.607 6.035 C 3.625 7.735,3.606 7.645,4.042 8.056 C 4.272 8.273,4.346 8.320,4.508 8.346 C 4.758 8.388,19.241 8.388,19.490 8.347 C 19.645 8.321,19.727 8.272,19.927 8.087 C 20.063 7.962,20.225 7.780,20.287 7.682 L 20.400 7.504 20.398 6.362 C 20.397 5.734,20.381 5.025,20.363 4.787 C 20.331 4.380,20.322 4.345,20.195 4.187 C 20.038 3.992,19.886 3.855,19.685 3.730 L 19.540 3.640 14.980 3.649 C 12.472 3.653,9.061 3.666,7.400 3.678 M4.432 10.917 C 4.195 10.950,3.902 11.188,3.761 11.462 C 3.662 11.654,3.661 11.662,3.634 13.138 C 3.619 13.953,3.605 15.719,3.603 17.063 L 3.600 19.506 3.720 19.688 C 3.936 20.014,4.157 20.235,4.312 20.281 C 4.580 20.360,6.058 20.396,9.213 20.398 L 12.326 20.400 12.493 20.285 C 12.726 20.124,13.033 19.787,13.107 19.609 C 13.162 19.478,13.170 19.008,13.175 15.720 C 13.178 13.663,13.165 11.875,13.147 11.746 C 13.110 11.487,12.987 11.320,12.626 11.033 L 12.433 10.880 8.526 10.885 C 6.378 10.888,4.535 10.903,4.432 10.917 M16.289 10.963 C 16.010 11.104,15.781 11.354,15.723 11.582 C 15.634 11.934,15.603 12.967,15.603 15.660 C 15.602 18.492,15.635 19.455,15.740 19.706 C 15.820 19.897,16.006 20.095,16.233 20.229 C 16.377 20.314,16.481 20.336,16.853 20.363 C 17.417 20.404,18.829 20.404,19.290 20.364 C 19.621 20.335,19.651 20.324,19.830 20.173 C 19.935 20.085,20.106 19.907,20.210 19.778 L 20.400 19.544 20.398 16.202 C 20.397 12.714,20.370 11.716,20.269 11.476 C 20.237 11.398,20.132 11.267,20.035 11.184 C 19.689 10.886,19.793 10.901,18.040 10.888 C 16.488 10.877,16.457 10.878,16.289 10.963 " fill="#373B4D" stroke="none" fill-rule="evenodd"></path></svg>