<svg width="24" height="24" viewBox="0 0 24 24" fill="none" xmlns="http://www.w3.org/2000/svg"><path d="M11.240 3.682 C 6.889 3.711,4.975 3.745,4.486 3.799 C 4.143 3.838,3.975 3.947,3.780 4.261 L 3.660 4.454 3.648 5.991 L 3.636 7.528 3.822 7.754 C 3.925 7.878,4.119 8.075,4.254 8.190 L 4.500 8.400 11.980 8.390 L 19.460 8.380 19.605 8.290 C 19.684 8.241,19.885 8.058,20.050 7.885 L 20.351 7.570 20.378 6.995 C 20.392 6.679,20.389 5.996,20.369 5.478 C 20.328 4.347,20.314 4.305,19.862 3.901 L 19.571 3.640 17.475 3.647 C 16.323 3.651,13.517 3.666,11.240 3.682 M7.220 10.925 C 5.702 10.943,4.400 10.968,4.326 10.981 C 4.166 11.010,3.861 11.299,3.776 11.505 C 3.671 11.755,3.642 12.592,3.614 16.102 L 3.587 19.545 3.802 19.782 C 4.038 20.042,4.173 20.164,4.309 20.235 C 4.486 20.328,5.438 20.360,8.861 20.386 L 12.341 20.413 12.585 20.187 C 12.719 20.063,12.904 19.865,12.995 19.747 L 13.160 19.533 13.160 15.676 C 13.160 13.072,13.146 11.770,13.117 11.667 C 13.088 11.563,12.975 11.410,12.772 11.197 L 12.469 10.880 11.225 10.886 C 10.540 10.890,8.738 10.907,7.220 10.925 M16.414 10.995 C 16.093 11.052,15.792 11.382,15.721 11.754 C 15.655 12.105,15.600 13.952,15.601 15.860 C 15.601 17.992,15.652 19.334,15.742 19.606 C 15.816 19.829,16.114 20.126,16.380 20.244 C 16.813 20.436,19.178 20.450,19.614 20.264 C 19.683 20.234,19.889 20.071,20.070 19.902 L 20.400 19.593 20.400 16.927 C 20.400 15.460,20.388 13.676,20.373 12.963 L 20.347 11.666 20.182 11.424 C 20.063 11.251,19.961 11.155,19.823 11.083 L 19.630 10.984 18.105 10.974 C 17.266 10.969,16.505 10.978,16.414 10.995 " fill="#373B4D" stroke="none" fill-rule="evenodd"></path></svg>