<svg width="24" height="24" viewBox="0 0 24 24" fill="none" xmlns="http://www.w3.org/2000/svg"><path d="M3.995 3.775 C 3.669 3.892,3.197 4.261,2.927 4.611 C 2.832 4.734,2.675 4.990,2.577 5.179 L 2.400 5.523 2.400 12.003 L 2.400 18.482 2.525 18.731 C 2.921 19.515,3.334 19.924,4.097 20.285 L 4.340 20.400 11.580 20.399 C 15.562 20.398,19.044 20.381,19.317 20.361 C 19.769 20.329,19.840 20.312,20.097 20.184 C 20.642 19.911,21.151 19.392,21.417 18.840 L 21.580 18.500 21.580 11.980 L 21.580 5.460 21.360 5.062 C 21.085 4.565,20.708 4.168,20.259 3.906 L 19.942 3.720 12.041 3.722 C 5.685 3.723,4.112 3.734,3.995 3.775 M7.707 7.394 C 7.931 7.509,8.785 8.312,10.081 9.624 C 11.288 10.846,11.717 11.320,11.849 11.578 C 11.966 11.806,11.936 12.277,11.789 12.529 C 11.621 12.815,11.066 13.416,9.850 14.630 C 8.472 16.005,7.942 16.482,7.610 16.647 C 7.388 16.757,7.332 16.769,7.109 16.751 C 6.497 16.702,6.072 16.212,6.072 15.556 C 6.072 15.128,6.310 14.826,8.017 13.090 L 9.089 12.000 8.018 10.910 C 6.749 9.619,6.273 9.092,6.150 8.843 C 5.901 8.335,6.183 7.614,6.734 7.354 C 6.950 7.253,7.474 7.274,7.707 7.394 M17.438 14.651 C 17.813 14.956,17.857 15.049,17.874 15.582 C 17.886 15.960,17.877 16.042,17.814 16.143 C 17.651 16.404,17.532 16.533,17.362 16.632 C 17.191 16.733,17.154 16.738,16.322 16.765 C 15.848 16.781,14.873 16.795,14.157 16.797 L 12.853 16.800 12.673 16.660 C 12.473 16.504,12.291 16.292,12.176 16.080 C 12.067 15.878,12.068 15.284,12.179 15.061 C 12.295 14.826,12.529 14.612,12.728 14.557 C 12.926 14.503,14.339 14.456,16.020 14.447 L 17.180 14.442 17.438 14.651 " fill="#373B4D" stroke="none" fill-rule="evenodd"></path></svg>