<svg width="24" height="24" viewBox="0 0 24 24" fill="none" xmlns="http://www.w3.org/2000/svg"><path d="M4.337 3.715 C 3.983 3.740,3.967 3.745,3.645 3.957 C 3.184 4.259,2.851 4.632,2.613 5.112 L 2.420 5.500 2.410 11.987 L 2.399 18.475 2.600 18.867 C 2.937 19.527,3.291 19.882,3.920 20.192 L 4.300 20.380 11.919 20.390 C 20.400 20.402,19.640 20.426,20.217 20.126 C 20.519 19.970,21.018 19.512,21.234 19.192 C 21.303 19.089,21.415 18.870,21.481 18.705 L 21.601 18.405 21.590 11.952 L 21.580 5.500 21.388 5.114 C 21.099 4.533,20.683 4.114,20.080 3.797 L 19.900 3.702 12.300 3.696 C 8.120 3.692,4.537 3.701,4.337 3.715 M7.818 7.457 C 8.321 7.804,11.346 10.838,11.725 11.376 C 11.919 11.651,11.920 11.654,11.920 11.974 C 11.920 12.211,11.900 12.337,11.841 12.458 C 11.711 12.726,11.174 13.314,9.884 14.601 C 7.985 16.494,7.653 16.763,7.207 16.766 C 6.629 16.771,6.181 16.382,6.078 15.785 C 5.976 15.199,6.117 15.008,8.214 12.893 L 9.093 12.006 7.921 10.813 C 6.656 9.525,6.277 9.108,6.152 8.863 C 5.897 8.366,6.123 7.707,6.654 7.396 C 6.849 7.282,6.879 7.277,7.228 7.290 C 7.579 7.303,7.605 7.310,7.818 7.457 M17.400 14.614 C 17.810 14.912,17.894 15.089,17.898 15.665 C 17.900 16.026,17.898 16.033,17.743 16.259 C 17.545 16.546,17.385 16.668,17.136 16.724 C 17.016 16.750,16.148 16.774,14.900 16.786 L 12.860 16.805 12.661 16.651 C 12.419 16.465,12.186 16.165,12.125 15.962 C 12.055 15.726,12.070 15.285,12.156 15.097 C 12.256 14.876,12.450 14.663,12.628 14.579 C 12.803 14.496,13.745 14.457,15.851 14.447 L 17.161 14.440 17.400 14.614 " fill="#373B4D" stroke="none" fill-rule="evenodd"></path></svg>