<svg width="24" height="24" viewBox="0 0 24 24" fill="none" xmlns="http://www.w3.org/2000/svg"><path d="M8.800 3.763 C 5.774 3.782,4.181 3.807,4.022 3.836 C 3.767 3.883,3.611 3.971,3.311 4.237 C 3.074 4.447,2.673 4.977,2.518 5.284 L 2.400 5.518 2.400 12.000 L 2.400 18.483 2.505 18.691 C 2.859 19.393,3.404 19.938,4.109 20.294 L 4.317 20.400 11.983 20.400 L 19.648 20.400 19.954 20.240 C 20.595 19.905,20.936 19.581,21.363 18.901 L 21.600 18.525 21.600 12.021 L 21.600 5.517 21.495 5.309 C 21.247 4.815,20.776 4.291,20.235 3.908 L 19.970 3.720 16.655 3.727 C 14.832 3.731,11.297 3.747,8.800 3.763 M7.703 7.444 C 7.942 7.556,8.562 8.122,9.756 9.318 C 10.924 10.489,11.593 11.212,11.746 11.468 C 11.967 11.840,11.911 12.309,11.596 12.730 C 11.160 13.312,8.481 15.983,7.874 16.439 C 7.701 16.570,7.489 16.698,7.403 16.724 C 6.929 16.866,6.307 16.458,6.156 15.906 C 6.086 15.651,6.095 15.359,6.178 15.200 C 6.367 14.841,6.930 14.204,8.256 12.851 L 9.091 11.999 8.356 11.249 C 6.700 9.562,6.234 9.025,6.136 8.692 C 5.985 8.176,6.345 7.474,6.818 7.363 C 7.045 7.310,7.509 7.352,7.703 7.444 M17.414 14.641 C 17.535 14.752,17.681 14.936,17.737 15.049 C 17.827 15.229,17.840 15.307,17.840 15.649 C 17.840 15.994,17.828 16.060,17.745 16.191 C 17.437 16.675,17.309 16.720,16.144 16.763 C 15.636 16.781,14.678 16.797,14.015 16.798 L 12.811 16.800 12.634 16.610 C 12.210 16.156,12.098 15.897,12.141 15.468 C 12.204 14.818,12.449 14.595,13.161 14.539 C 13.562 14.507,15.389 14.456,16.447 14.446 L 17.194 14.440 17.414 14.641 " fill="#373B4D" stroke="none" fill-rule="evenodd"></path></svg>