<svg width="24" height="24" viewBox="0 0 24 24" fill="none" xmlns="http://www.w3.org/2000/svg"><path d="M9.920 3.764 C 7.225 3.780,4.764 3.812,4.452 3.834 C 3.947 3.869,3.860 3.886,3.679 3.985 C 3.392 4.141,2.864 4.712,2.610 5.140 L 2.400 5.495 2.400 11.994 L 2.400 18.493 2.543 18.754 C 2.884 19.374,3.426 19.916,4.043 20.255 L 4.307 20.400 11.983 20.399 L 19.660 20.399 19.958 20.236 C 20.539 19.920,20.892 19.583,21.356 18.903 L 21.600 18.545 21.600 12.028 L 21.600 5.511 21.477 5.280 C 21.223 4.804,20.717 4.254,20.175 3.867 L 19.970 3.720 17.395 3.727 C 15.979 3.730,12.615 3.747,9.920 3.764 M7.691 7.458 C 7.914 7.564,8.327 7.934,9.437 9.023 C 10.607 10.171,11.457 11.076,11.683 11.414 C 11.832 11.637,11.840 11.665,11.840 11.957 C 11.840 12.525,11.698 12.709,9.803 14.602 C 7.992 16.412,7.498 16.805,7.116 16.744 C 6.595 16.661,6.173 16.197,6.130 15.660 C 6.113 15.450,6.126 15.375,6.210 15.195 C 6.378 14.834,7.037 14.088,8.474 12.633 L 9.093 12.006 8.111 10.993 C 6.333 9.157,6.120 8.882,6.120 8.419 C 6.120 8.017,6.436 7.493,6.733 7.401 C 6.926 7.342,7.520 7.377,7.691 7.458 M17.434 14.669 C 17.759 15.040,17.820 15.194,17.818 15.640 C 17.817 15.949,17.800 16.051,17.731 16.184 C 17.612 16.410,17.400 16.585,17.151 16.661 C 16.892 16.740,15.610 16.795,13.953 16.798 L 12.806 16.800 12.601 16.570 C 12.289 16.220,12.160 15.931,12.160 15.584 C 12.160 15.428,12.180 15.228,12.205 15.141 C 12.267 14.916,12.495 14.702,12.757 14.625 C 13.045 14.539,14.407 14.476,16.547 14.449 L 17.233 14.440 17.434 14.669 " fill="#373B4D" stroke="none" fill-rule="evenodd"></path></svg>