<svg width="24" height="24" viewBox="0 0 24 24" fill="none" xmlns="http://www.w3.org/2000/svg"><path d="M5.380 3.639 C 4.197 3.661,4.177 3.663,3.933 3.766 C 3.269 4.050,2.735 4.622,2.517 5.285 L 2.420 5.580 2.420 12.000 L 2.420 18.420 2.517 18.715 C 2.751 19.425,3.375 20.049,4.085 20.283 L 4.380 20.380 12.000 20.380 L 19.620 20.380 19.915 20.283 C 20.625 20.049,21.249 19.425,21.483 18.715 L 21.580 18.420 21.580 12.000 L 21.580 5.580 21.483 5.285 C 21.257 4.600,20.654 3.978,19.980 3.737 C 19.812 3.676,19.581 3.660,18.520 3.637 C 17.062 3.604,7.158 3.605,5.380 3.639 M7.718 7.350 C 7.895 7.434,8.220 7.735,9.434 8.937 C 11.045 10.532,11.764 11.293,11.884 11.528 C 11.992 11.739,11.990 12.264,11.882 12.477 C 11.839 12.561,11.634 12.817,11.427 13.045 C 10.931 13.591,8.159 16.339,7.892 16.548 C 7.308 17.006,6.488 16.806,6.140 16.120 C 6.058 15.958,6.040 15.865,6.040 15.599 C 6.040 15.075,6.024 15.095,7.776 13.330 L 9.095 12.000 7.756 10.650 C 7.019 9.907,6.349 9.217,6.268 9.116 C 6.166 8.989,6.099 8.848,6.054 8.666 C 5.994 8.421,5.994 8.380,6.053 8.139 C 6.244 7.366,6.998 7.009,7.718 7.350 M17.365 14.566 C 17.789 14.792,17.960 15.098,17.960 15.632 C 17.960 15.889,17.943 15.961,17.833 16.166 C 17.700 16.416,17.510 16.595,17.254 16.711 C 17.114 16.774,16.908 16.780,15.000 16.780 L 12.900 16.780 12.714 16.688 C 12.002 16.333,11.796 15.403,12.298 14.809 C 12.482 14.591,12.726 14.474,13.072 14.437 C 13.241 14.420,14.222 14.412,15.252 14.421 L 17.123 14.437 17.365 14.566 " fill="#373B4D" stroke="none" fill-rule="evenodd"></path></svg>