<svg width="24" height="24" viewBox="0 0 24 24" fill="none" xmlns="http://www.w3.org/2000/svg"><path d="M4.000 5.921 L 4.000 7.843 4.105 8.050 C 4.249 8.335,4.632 8.723,4.905 8.861 C 5.104 8.961,5.173 8.975,5.500 8.975 C 5.828 8.975,5.896 8.962,6.098 8.859 C 6.398 8.707,6.805 8.278,6.898 8.015 C 6.935 7.908,6.976 7.635,6.989 7.410 L 7.011 7.000 8.506 7.000 L 10.000 7.000 10.000 11.994 L 10.000 16.987 9.074 17.012 C 8.154 17.037,8.147 17.038,7.893 17.157 C 7.582 17.303,7.289 17.593,7.133 17.909 C 7.034 18.112,7.020 18.184,7.021 18.502 C 7.022 18.812,7.038 18.895,7.131 19.085 C 7.263 19.355,7.661 19.749,7.950 19.895 L 8.157 20.000 12.000 20.000 L 15.843 20.000 16.050 19.895 C 16.341 19.747,16.724 19.367,16.860 19.090 C 16.960 18.888,16.973 18.816,16.972 18.498 C 16.971 18.219,16.952 18.093,16.887 17.946 C 16.765 17.670,16.366 17.272,16.086 17.146 C 15.868 17.048,15.809 17.041,14.928 17.015 L 14.000 16.987 14.000 11.994 L 14.000 7.000 15.494 7.000 L 16.989 7.000 17.009 7.433 C 17.024 7.751,17.052 7.915,17.114 8.055 C 17.228 8.312,17.629 8.721,17.905 8.861 C 18.104 8.961,18.173 8.975,18.500 8.975 C 18.827 8.975,18.896 8.961,19.095 8.861 C 19.368 8.723,19.751 8.335,19.895 8.050 L 20.000 7.843 20.000 5.921 L 20.000 4.000 12.000 4.000 L 4.000 4.000 4.000 5.921 " fill="#373B4D" stroke="none" fill-rule="evenodd"></path></svg>