<svg width="24" height="24" viewBox="0 0 24 24" fill="none" xmlns="http://www.w3.org/2000/svg"><path d="M4.580 3.047 C 3.859 3.185,3.199 3.848,3.044 4.592 C 2.982 4.892,2.982 19.108,3.044 19.408 C 3.201 20.158,3.842 20.799,4.592 20.956 C 4.892 21.018,19.108 21.018,19.408 20.956 C 20.158 20.799,20.799 20.158,20.956 19.408 C 21.018 19.108,21.018 4.892,20.956 4.592 C 20.797 3.830,20.138 3.181,19.383 3.043 C 19.076 2.987,4.875 2.991,4.580 3.047 M16.810 8.657 C 17.623 8.944,18.102 9.499,18.204 10.271 C 18.228 10.453,18.237 10.647,18.223 10.702 C 18.197 10.807,17.936 11.120,17.875 11.120 C 17.856 11.120,17.840 11.008,17.839 10.870 C 17.837 9.806,17.092 9.000,16.112 9.000 C 15.994 9.000,15.920 8.982,15.920 8.954 C 15.920 8.929,15.984 8.830,16.063 8.734 C 16.190 8.579,16.223 8.560,16.373 8.561 C 16.465 8.561,16.661 8.605,16.810 8.657 M16.630 9.488 C 17.101 9.662,17.405 10.041,17.461 10.523 C 17.485 10.725,17.478 10.757,17.380 10.873 C 17.321 10.943,17.256 11.000,17.236 11.000 C 17.216 11.000,17.200 10.911,17.200 10.802 C 17.200 10.536,17.064 10.187,16.895 10.018 C 16.705 9.828,16.496 9.730,16.162 9.675 L 15.876 9.628 16.006 9.494 C 16.153 9.342,16.233 9.342,16.630 9.488 M10.302 10.273 C 10.290 10.313,10.200 10.542,10.103 10.783 L 9.928 11.220 9.264 11.231 L 8.600 11.242 8.600 13.141 L 8.600 15.040 8.020 15.040 L 7.440 15.040 7.440 13.140 L 7.440 11.240 6.580 11.240 L 5.720 11.240 5.720 10.720 L 5.720 10.200 8.023 10.200 C 10.231 10.200,10.324 10.203,10.302 10.273 M12.936 11.484 L 13.732 12.767 13.851 12.573 C 13.917 12.467,14.275 11.889,14.648 11.290 L 15.326 10.200 15.883 10.200 L 16.441 10.200 16.430 12.590 L 16.420 14.980 15.840 14.980 L 15.260 14.980 15.240 13.687 L 15.220 12.394 14.579 13.407 L 13.939 14.420 13.726 14.432 C 13.609 14.439,13.492 14.426,13.465 14.404 C 13.439 14.382,13.139 13.923,12.799 13.383 C 12.458 12.843,12.167 12.401,12.150 12.401 C 12.133 12.400,12.120 12.985,12.120 13.700 L 12.120 15.000 11.540 15.000 L 10.960 15.000 10.960 12.600 L 10.960 10.200 11.550 10.200 L 12.140 10.201 12.936 11.484 " fill="#373B4D" stroke="none" fill-rule="evenodd"></path></svg>