<svg width="24" height="24" viewBox="0 0 24 24" fill="none" xmlns="http://www.w3.org/2000/svg"><path d="M4.000 5.930 L 4.001 7.860 4.116 8.060 C 4.264 8.317,4.743 8.778,4.967 8.880 C 5.237 9.002,5.799 8.993,6.064 8.860 C 6.274 8.756,6.734 8.323,6.830 8.141 C 6.913 7.982,6.999 7.533,6.999 7.250 L 7.000 7.000 8.500 7.000 L 10.000 7.000 10.000 11.994 L 10.000 16.988 9.230 17.016 C 8.376 17.047,8.012 17.091,7.825 17.187 C 7.756 17.223,7.581 17.372,7.435 17.520 C 7.110 17.850,7.025 18.064,7.027 18.544 C 7.028 18.800,7.047 18.906,7.121 19.053 C 7.234 19.280,7.690 19.740,7.950 19.890 L 8.140 19.999 12.000 19.999 L 15.860 19.999 16.063 19.883 C 16.341 19.723,16.738 19.313,16.864 19.054 C 16.961 18.857,16.968 18.809,16.954 18.426 C 16.940 18.058,16.926 17.994,16.832 17.851 C 16.664 17.597,16.330 17.291,16.098 17.177 C 15.898 17.079,15.829 17.070,14.943 17.028 L 14.000 16.984 14.000 11.992 L 14.000 7.000 15.495 7.000 L 16.990 7.000 17.008 7.416 C 17.031 7.929,17.138 8.178,17.484 8.524 C 17.823 8.863,17.978 8.932,18.450 8.952 C 18.808 8.968,18.858 8.961,19.053 8.865 C 19.308 8.740,19.724 8.337,19.884 8.060 L 19.999 7.860 20.000 5.930 L 20.000 4.000 12.000 4.000 L 4.000 4.000 4.000 5.930 " fill="#373B4D" stroke="none" fill-rule="evenodd"></path></svg>