<svg width="24" height="24" viewBox="0 0 24 24" fill="none" xmlns="http://www.w3.org/2000/svg"><path d="M5.678 3.039 L 4.456 3.060 4.143 3.214 C 3.731 3.418,3.419 3.730,3.216 4.140 C 3.077 4.421,3.061 4.488,3.035 4.894 C 2.997 5.476,2.997 18.524,3.035 19.106 C 3.061 19.512,3.077 19.579,3.216 19.860 C 3.418 20.269,3.731 20.582,4.141 20.784 C 4.426 20.925,4.485 20.939,4.915 20.965 C 5.522 21.003,18.478 21.003,19.085 20.965 C 19.515 20.939,19.574 20.925,19.859 20.784 C 20.269 20.582,20.582 20.269,20.784 19.859 C 20.925 19.574,20.939 19.515,20.965 19.085 C 21.003 18.478,21.003 5.522,20.965 4.915 C 20.939 4.485,20.925 4.426,20.784 4.141 C 20.581 3.729,20.270 3.419,19.857 3.214 L 19.544 3.060 18.402 3.034 C 17.067 3.004,7.464 3.007,5.678 3.039 M16.683 8.624 C 17.565 8.886,18.091 9.478,18.202 10.331 C 18.243 10.644,18.240 10.694,18.179 10.791 C 18.073 10.958,17.912 11.120,17.874 11.096 C 17.855 11.085,17.840 10.972,17.840 10.846 C 17.840 10.199,17.477 9.533,16.959 9.229 C 16.747 9.105,16.370 9.000,16.134 9.000 C 16.041 9.000,15.955 8.985,15.944 8.967 C 15.918 8.924,16.099 8.656,16.190 8.603 C 16.291 8.545,16.435 8.551,16.683 8.624 M16.621 9.487 C 17.071 9.659,17.390 10.058,17.458 10.533 C 17.482 10.702,17.473 10.741,17.380 10.863 C 17.254 11.028,17.200 11.010,17.200 10.802 C 17.200 10.411,16.929 9.968,16.590 9.806 C 16.496 9.761,16.297 9.703,16.147 9.678 L 15.874 9.631 15.984 9.515 C 16.122 9.372,16.298 9.364,16.621 9.487 M10.155 10.225 C 10.224 10.239,10.280 10.271,10.280 10.297 C 10.280 10.322,10.201 10.541,10.104 10.782 L 9.928 11.220 9.264 11.231 L 8.600 11.242 8.600 13.141 L 8.600 15.040 8.020 15.040 L 7.440 15.040 7.440 13.140 L 7.440 11.240 6.580 11.240 L 5.720 11.240 5.720 10.720 L 5.720 10.200 7.875 10.200 C 9.060 10.200,10.086 10.211,10.155 10.225 M12.891 11.414 C 13.304 12.081,13.664 12.656,13.691 12.693 C 13.733 12.749,13.853 12.576,14.534 11.479 L 15.327 10.200 15.884 10.200 L 16.440 10.200 16.440 11.670 C 16.440 12.478,16.428 13.558,16.414 14.070 L 16.387 15.000 15.839 15.000 L 15.291 15.000 15.266 14.754 C 15.252 14.619,15.240 14.043,15.240 13.474 C 15.240 12.905,15.227 12.441,15.210 12.442 C 15.194 12.442,14.900 12.888,14.558 13.432 L 13.936 14.420 13.782 14.433 C 13.502 14.456,13.468 14.428,13.138 13.911 C 12.400 12.754,12.190 12.440,12.156 12.440 C 12.135 12.440,12.120 12.990,12.120 13.720 L 12.120 15.000 11.540 15.000 L 10.960 15.000 10.960 12.600 L 10.960 10.200 11.550 10.200 L 12.140 10.201 12.891 11.414 " fill="#373B4D" stroke="none" fill-rule="evenodd"></path></svg>