<svg width="24" height="24" viewBox="0 0 24 24" fill="none" xmlns="http://www.w3.org/2000/svg"><path d="M8.179 3.038 L 4.418 3.060 4.122 3.236 C 3.730 3.469,3.372 3.836,3.203 4.181 C 3.075 4.441,3.067 4.482,3.036 5.077 C 2.993 5.900,2.995 17.940,3.038 18.840 C 3.076 19.632,3.104 19.730,3.415 20.150 C 3.613 20.418,3.988 20.721,4.280 20.849 C 4.592 20.986,5.752 21.006,12.740 20.990 C 20.138 20.973,19.540 21.000,20.049 20.655 C 20.472 20.368,20.784 19.962,20.906 19.540 C 20.970 19.318,20.976 18.815,20.990 12.740 C 20.998 9.079,20.988 5.798,20.967 5.315 L 20.930 4.451 20.797 4.180 C 20.630 3.841,20.271 3.469,19.894 3.246 L 19.614 3.079 18.877 3.060 C 17.611 3.027,12.105 3.016,8.179 3.038 M17.031 8.781 C 17.763 9.127,18.200 9.774,18.200 10.514 C 18.200 10.745,18.099 10.966,17.959 11.041 C 17.893 11.076,17.882 11.059,17.860 10.890 C 17.765 10.186,17.637 9.881,17.280 9.516 C 17.005 9.236,16.740 9.103,16.320 9.034 C 16.155 9.008,16.004 8.972,15.985 8.956 C 15.944 8.921,16.096 8.659,16.193 8.599 C 16.311 8.527,16.648 8.599,17.031 8.781 M16.707 9.545 C 17.127 9.744,17.404 10.132,17.430 10.559 C 17.440 10.730,17.426 10.802,17.367 10.876 C 17.275 10.992,17.200 10.957,17.200 10.799 C 17.200 10.735,17.171 10.597,17.137 10.491 C 16.991 10.053,16.743 9.846,16.187 9.699 L 15.870 9.615 16.003 9.503 C 16.119 9.406,16.160 9.395,16.309 9.415 C 16.405 9.428,16.583 9.487,16.707 9.545 M9.250 10.226 C 10.409 10.257,10.322 10.196,10.085 10.820 L 9.934 11.220 9.267 11.231 L 8.600 11.242 8.600 13.141 L 8.600 15.040 8.020 15.040 L 7.440 15.040 7.440 13.140 L 7.440 11.240 6.580 11.240 L 5.720 11.240 5.720 10.720 L 5.720 10.200 6.990 10.200 C 7.689 10.200,8.705 10.212,9.250 10.226 M12.904 11.429 C 13.324 12.104,13.687 12.662,13.711 12.670 C 13.759 12.686,14.179 12.060,14.878 10.930 L 15.330 10.200 15.885 10.200 L 16.440 10.200 16.440 11.310 C 16.440 11.921,16.428 13.001,16.413 13.710 L 16.387 15.000 15.840 15.000 L 15.292 15.000 15.266 14.574 C 15.252 14.339,15.240 13.791,15.240 13.356 C 15.240 12.896,15.224 12.555,15.202 12.541 C 15.162 12.517,14.872 12.933,14.260 13.894 L 13.907 14.449 13.714 14.430 C 13.478 14.408,13.513 14.448,12.780 13.344 C 12.472 12.880,12.202 12.504,12.180 12.510 C 12.155 12.516,12.136 12.975,12.129 13.760 L 12.119 15.000 11.539 15.000 L 10.960 15.000 10.960 12.600 L 10.960 10.200 11.550 10.201 L 12.140 10.202 12.904 11.429 " fill="#373B4D" stroke="none" fill-rule="evenodd"></path></svg>