<svg width="24" height="24" viewBox="0 0 24 24" fill="none" xmlns="http://www.w3.org/2000/svg"><path d="M4.000 5.910 L 4.000 7.820 4.119 8.072 C 4.269 8.388,4.585 8.708,4.899 8.861 C 5.109 8.964,5.181 8.978,5.500 8.978 C 5.819 8.978,5.891 8.964,6.101 8.861 C 6.407 8.712,6.735 8.385,6.867 8.096 C 6.951 7.913,6.974 7.790,6.991 7.435 L 7.011 7.000 8.506 7.000 L 10.000 7.000 10.000 11.995 L 10.000 16.989 9.064 17.008 C 8.146 17.026,8.125 17.028,7.907 17.135 C 7.575 17.297,7.304 17.562,7.151 17.872 C 7.032 18.115,7.020 18.171,7.021 18.501 C 7.022 18.819,7.037 18.893,7.139 19.102 C 7.292 19.415,7.612 19.731,7.928 19.881 L 8.180 20.000 12.000 20.000 L 15.820 20.000 16.072 19.881 C 16.388 19.731,16.708 19.415,16.861 19.101 C 16.964 18.890,16.978 18.819,16.977 18.501 C 16.977 18.195,16.960 18.105,16.870 17.909 C 16.736 17.618,16.410 17.289,16.110 17.143 C 15.884 17.032,15.869 17.031,14.940 17.010 L 14.000 16.988 14.000 11.994 L 14.000 7.000 15.495 7.000 L 16.990 7.000 17.007 7.430 C 17.022 7.786,17.043 7.900,17.131 8.091 C 17.265 8.385,17.590 8.710,17.899 8.861 C 18.109 8.964,18.181 8.978,18.500 8.978 C 18.819 8.978,18.891 8.964,19.101 8.861 C 19.415 8.708,19.731 8.388,19.881 8.072 L 20.000 7.820 20.000 5.910 L 20.000 4.000 12.000 4.000 L 4.000 4.000 4.000 5.910 " fill="#373B4D" stroke="none" fill-rule="evenodd"></path></svg>