<svg width="24" height="24" viewBox="0 0 24 24" fill="none" xmlns="http://www.w3.org/2000/svg"><path d="M7.380 3.039 L 4.419 3.060 4.105 3.240 C 3.720 3.460,3.376 3.816,3.197 4.181 C 3.075 4.429,3.064 4.485,3.035 5.013 C 2.994 5.783,2.996 18.275,3.037 18.991 C 3.068 19.522,3.080 19.582,3.202 19.831 C 3.379 20.194,3.806 20.621,4.170 20.799 C 4.423 20.922,4.475 20.933,5.030 20.963 C 5.795 21.005,18.199 21.005,18.962 20.963 C 19.505 20.934,19.564 20.922,19.822 20.799 C 20.201 20.619,20.619 20.201,20.799 19.822 C 20.924 19.559,20.933 19.510,20.964 18.922 C 21.006 18.113,21.005 5.800,20.963 5.030 C 20.933 4.478,20.922 4.422,20.801 4.177 C 20.624 3.816,20.279 3.460,19.895 3.240 L 19.581 3.060 17.000 3.034 C 14.130 3.006,11.775 3.007,7.380 3.039 M16.600 8.603 C 16.699 8.625,16.926 8.714,17.104 8.800 C 17.769 9.121,18.184 9.767,18.212 10.523 C 18.219 10.719,18.205 10.762,18.085 10.913 C 18.011 11.007,17.930 11.077,17.905 11.069 C 17.880 11.060,17.849 10.920,17.835 10.754 C 17.808 10.419,17.757 10.235,17.610 9.942 C 17.482 9.688,17.131 9.320,16.911 9.210 C 16.693 9.101,16.308 9.000,16.112 9.000 C 16.028 9.000,15.960 8.981,15.960 8.958 C 15.960 8.878,16.080 8.684,16.169 8.622 C 16.272 8.550,16.352 8.546,16.600 8.603 M16.763 9.565 C 17.044 9.714,17.217 9.897,17.342 10.178 C 17.480 10.486,17.497 10.675,17.401 10.830 C 17.289 11.012,17.200 11.001,17.200 10.805 C 17.200 10.720,17.172 10.571,17.138 10.475 C 16.983 10.032,16.706 9.804,16.188 9.693 L 15.870 9.624 16.001 9.507 C 16.119 9.402,16.152 9.393,16.327 9.413 C 16.434 9.426,16.630 9.494,16.763 9.565 M10.241 10.265 C 10.274 10.298,10.240 10.428,10.108 10.765 L 9.931 11.220 9.265 11.231 L 8.600 11.242 8.600 13.141 L 8.600 15.040 8.020 15.040 L 7.440 15.040 7.440 13.140 L 7.440 11.240 6.580 11.240 L 5.720 11.240 5.720 10.718 L 5.720 10.196 7.958 10.208 C 9.549 10.216,10.209 10.233,10.241 10.265 M12.897 11.423 C 13.314 12.095,13.672 12.655,13.694 12.669 C 13.755 12.706,13.871 12.540,14.626 11.330 L 15.330 10.200 15.885 10.200 L 16.440 10.200 16.440 11.490 C 16.440 12.200,16.428 13.280,16.413 13.890 L 16.387 15.000 15.839 15.000 L 15.292 15.000 15.266 14.670 C 15.252 14.489,15.240 13.920,15.240 13.407 C 15.240 12.726,15.228 12.477,15.194 12.489 C 15.169 12.497,14.875 12.935,14.540 13.462 L 13.930 14.420 13.762 14.432 C 13.660 14.440,13.557 14.421,13.501 14.385 C 13.451 14.351,13.162 13.941,12.859 13.472 C 12.193 12.440,12.177 12.418,12.144 12.503 C 12.131 12.538,12.120 13.114,12.120 13.783 L 12.120 15.000 11.540 15.000 L 10.960 15.000 10.960 12.600 L 10.960 10.200 11.550 10.201 L 12.140 10.201 12.897 11.423 " fill="#373B4D" stroke="none" fill-rule="evenodd"></path></svg>