<svg width="24" height="24" viewBox="0 0 24 24" fill="none" xmlns="http://www.w3.org/2000/svg"><path d="M11.611 2.599 C 11.451 2.637,11.238 2.796,11.095 2.983 C 10.957 3.164,10.910 3.351,10.739 4.400 C 10.441 6.221,10.534 6.007,9.046 8.300 C 7.740 10.312,7.561 10.624,7.325 11.293 L 7.200 11.646 7.200 15.527 L 7.200 19.408 7.341 19.674 C 7.523 20.019,7.895 20.466,8.210 20.718 C 8.692 21.104,9.427 21.404,10.073 21.479 C 10.562 21.536,13.593 21.600,15.811 21.600 L 17.683 21.600 17.891 21.495 C 18.310 21.285,18.854 20.844,19.120 20.500 C 19.310 20.254,19.412 19.970,19.656 19.009 C 20.060 17.422,20.701 14.245,20.939 12.650 C 21.097 11.593,20.960 11.128,20.291 10.452 C 20.142 10.301,19.876 10.069,19.700 9.935 L 19.380 9.693 17.480 9.666 C 16.435 9.651,15.315 9.627,14.990 9.613 L 14.400 9.588 14.400 6.950 L 14.400 4.312 14.258 4.041 C 13.877 3.317,13.151 2.727,12.484 2.601 C 12.239 2.554,11.802 2.553,11.611 2.599 M3.740 10.957 C 3.562 11.000,3.454 11.065,3.093 11.346 C 2.711 11.643,2.593 11.843,2.522 12.320 C 2.461 12.731,2.421 18.249,2.471 19.362 C 2.503 20.075,2.523 20.256,2.588 20.402 C 2.733 20.729,3.186 21.181,3.580 21.393 C 3.759 21.489,3.823 21.500,4.180 21.500 C 4.535 21.500,4.605 21.488,4.804 21.390 C 5.071 21.259,5.781 20.552,5.922 20.277 L 6.012 20.100 5.985 16.780 C 5.956 13.287,5.925 12.400,5.817 12.040 C 5.762 11.856,5.700 11.769,5.434 11.507 C 5.047 11.125,4.832 11.018,4.340 10.962 C 3.940 10.916,3.911 10.916,3.740 10.957 " fill="#373B4D" stroke="none" fill-rule="evenodd"></path></svg>