<svg width="24" height="24" viewBox="0 0 24 24" fill="none" xmlns="http://www.w3.org/2000/svg"><path d="M19.360 2.492 C 18.970 2.604,18.315 3.143,18.182 3.462 C 18.061 3.752,18.037 4.300,18.014 7.340 C 17.987 10.928,18.016 11.749,18.182 12.100 C 18.506 12.786,19.384 13.290,20.027 13.159 C 20.618 13.039,21.128 12.641,21.413 12.078 L 21.565 11.777 21.586 9.138 C 21.611 6.029,21.564 3.974,21.460 3.641 C 21.315 3.177,20.906 2.775,20.359 2.560 C 20.094 2.455,19.603 2.422,19.360 2.492 M6.200 2.516 C 5.922 2.547,5.572 2.754,5.189 3.115 C 4.712 3.566,4.630 3.728,4.381 4.720 C 4.112 5.791,3.383 9.330,3.120 10.840 C 2.957 11.780,2.931 12.188,3.015 12.515 C 3.124 12.937,3.303 13.224,3.719 13.643 C 4.024 13.949,4.168 14.061,4.440 14.200 L 4.780 14.375 7.190 14.393 L 9.600 14.411 9.600 17.028 L 9.600 19.645 9.739 19.946 C 10.028 20.572,10.519 21.109,11.019 21.346 C 11.239 21.450,11.386 21.488,11.693 21.519 C 11.909 21.542,12.130 21.551,12.183 21.540 C 12.236 21.529,12.323 21.511,12.376 21.500 C 12.525 21.470,12.865 21.181,12.976 20.991 C 13.110 20.760,13.145 20.582,13.241 19.633 C 13.415 17.910,13.505 17.693,14.796 15.889 C 16.078 14.095,16.335 13.660,16.636 12.775 L 16.800 12.295 16.800 8.476 L 16.800 4.658 16.581 4.213 C 16.238 3.516,15.844 3.166,14.968 2.781 C 14.537 2.592,14.383 2.567,13.345 2.521 C 12.405 2.479,6.572 2.475,6.200 2.516 " fill="#373B4D" stroke="none" fill-rule="evenodd"></path></svg>