<svg width="24" height="24" viewBox="0 0 24 24" fill="none" xmlns="http://www.w3.org/2000/svg"><path d="M19.470 2.442 C 19.084 2.537,18.529 2.925,18.298 3.260 C 18.036 3.641,18.037 3.630,18.014 7.000 C 18.003 8.661,18.010 10.434,18.029 10.940 C 18.063 11.858,18.063 11.861,18.190 12.131 C 18.425 12.633,18.916 13.020,19.477 13.145 C 19.729 13.201,19.814 13.204,20.037 13.163 C 20.748 13.032,21.321 12.522,21.501 11.860 C 21.558 11.652,21.569 11.233,21.586 8.700 C 21.610 5.250,21.574 3.888,21.449 3.567 C 21.206 2.945,20.577 2.499,19.839 2.426 C 19.718 2.414,19.552 2.421,19.470 2.442 M7.476 2.477 L 6.092 2.500 5.776 2.660 C 5.538 2.780,5.376 2.903,5.119 3.159 C 4.747 3.531,4.655 3.687,4.507 4.200 C 4.255 5.071,3.209 10.149,3.020 11.420 C 2.866 12.455,3.022 12.983,3.678 13.644 C 3.955 13.923,4.087 14.021,4.371 14.161 L 4.722 14.334 5.611 14.364 C 6.100 14.381,7.197 14.396,8.050 14.397 L 9.600 14.400 9.601 17.010 L 9.603 19.620 9.714 19.902 C 9.996 20.617,10.586 21.220,11.220 21.442 C 11.365 21.493,11.610 21.535,11.840 21.548 C 12.331 21.577,12.542 21.496,12.854 21.160 C 13.121 20.871,13.142 20.792,13.221 19.780 C 13.364 17.928,13.450 17.719,14.890 15.746 C 16.128 14.048,16.355 13.663,16.635 12.785 L 16.800 12.270 16.800 8.494 L 16.800 4.717 16.679 4.403 C 16.404 3.689,15.983 3.249,15.220 2.878 C 14.905 2.724,14.630 2.621,14.420 2.578 C 13.858 2.463,10.950 2.421,7.476 2.477 " fill="#373B4D" stroke="none" fill-rule="evenodd"></path></svg>