<svg width="24" height="24" viewBox="0 0 24 24" fill="none" xmlns="http://www.w3.org/2000/svg"><path d="M11.533 2.581 C 11.347 2.677,11.087 2.911,11.019 3.042 C 10.925 3.223,10.853 3.592,10.722 4.560 C 10.655 5.055,10.572 5.577,10.539 5.720 C 10.441 6.137,10.085 6.804,9.525 7.620 C 7.898 9.990,7.602 10.484,7.322 11.293 L 7.200 11.646 7.200 15.525 L 7.200 19.403 7.305 19.611 C 7.605 20.207,8.002 20.658,8.463 20.927 C 8.805 21.127,9.300 21.345,9.581 21.420 C 9.968 21.522,11.027 21.558,14.440 21.586 L 17.660 21.612 17.920 21.481 C 18.568 21.156,19.096 20.688,19.298 20.260 C 19.353 20.145,19.452 19.855,19.520 19.615 C 19.901 18.262,20.945 13.007,21.024 12.040 C 21.053 11.694,21.014 11.513,20.818 11.089 C 20.712 10.859,20.610 10.724,20.332 10.446 C 20.138 10.253,19.845 10.004,19.680 9.894 L 19.380 9.693 17.100 9.646 C 15.846 9.620,14.726 9.599,14.610 9.599 L 14.400 9.600 14.400 6.959 L 14.400 4.317 14.295 4.109 C 13.909 3.341,13.345 2.809,12.720 2.622 C 12.388 2.522,11.693 2.499,11.533 2.581 M3.729 10.918 C 3.439 10.990,2.781 11.523,2.639 11.802 C 2.599 11.880,2.547 12.042,2.523 12.162 C 2.404 12.758,2.367 19.328,2.479 20.056 C 2.565 20.615,2.963 21.112,3.548 21.390 C 3.827 21.523,3.894 21.539,4.180 21.539 C 4.399 21.540,4.563 21.516,4.700 21.464 C 5.159 21.290,5.607 20.867,5.885 20.345 L 6.013 20.104 5.986 16.502 C 5.971 14.521,5.941 12.722,5.920 12.505 C 5.893 12.233,5.850 12.041,5.781 11.892 C 5.647 11.597,5.261 11.234,4.900 11.060 C 4.660 10.944,4.566 10.922,4.240 10.905 C 4.031 10.894,3.801 10.900,3.729 10.918 " fill="#373B4D" stroke="none" fill-rule="evenodd"></path></svg>