<svg width="24" height="24" viewBox="0 0 24 24" fill="none" xmlns="http://www.w3.org/2000/svg"><path d="M19.500 2.481 C 19.263 2.506,18.983 2.652,18.651 2.923 C 18.356 3.165,18.205 3.377,18.132 3.651 C 18.003 4.131,17.957 11.093,18.078 11.734 C 18.176 12.252,18.548 12.712,19.080 12.973 C 19.628 13.241,19.968 13.244,20.502 12.982 C 20.847 12.813,21.198 12.461,21.423 12.060 L 21.580 11.780 21.579 8.200 C 21.578 4.288,21.559 3.841,21.383 3.454 C 21.165 2.979,20.535 2.545,19.979 2.489 C 19.826 2.473,19.610 2.469,19.500 2.481 M6.600 2.518 C 5.961 2.542,5.938 2.550,5.497 2.862 C 5.189 3.080,4.826 3.470,4.700 3.721 C 4.499 4.117,4.177 5.476,3.582 8.436 C 2.845 12.105,2.826 12.434,3.303 13.152 C 3.561 13.541,4.080 14.011,4.477 14.216 L 4.833 14.400 7.216 14.400 L 9.600 14.400 9.600 17.030 L 9.600 19.659 9.780 20.020 C 10.099 20.658,10.646 21.212,11.139 21.396 C 11.456 21.515,12.042 21.579,12.273 21.521 C 12.497 21.465,12.791 21.255,12.932 21.051 C 13.081 20.836,13.143 20.544,13.259 19.514 C 13.442 17.893,13.532 17.679,14.763 15.940 C 16.039 14.137,16.307 13.688,16.616 12.831 L 16.800 12.321 16.800 8.476 L 16.800 4.630 16.591 4.225 C 16.425 3.904,16.315 3.753,16.061 3.496 C 15.777 3.209,15.683 3.143,15.240 2.925 C 14.942 2.777,14.627 2.653,14.460 2.618 C 13.946 2.508,8.588 2.440,6.600 2.518 " fill="#373B4D" stroke="none" fill-rule="evenodd"></path></svg>