<svg width="24" height="24" viewBox="0 0 24 24" fill="none" xmlns="http://www.w3.org/2000/svg"><path d="M6.800 2.517 C 5.962 2.549,5.904 2.565,5.485 2.877 C 4.971 3.260,4.728 3.581,4.564 4.096 C 4.349 4.772,4.078 5.968,3.583 8.435 C 2.926 11.704,2.868 12.259,3.118 12.824 C 3.346 13.341,3.999 13.976,4.629 14.294 L 4.837 14.400 7.219 14.400 L 9.600 14.400 9.600 17.046 L 9.600 19.692 9.780 20.023 C 10.158 20.715,10.674 21.226,11.175 21.402 C 11.289 21.442,11.537 21.495,11.726 21.520 C 12.143 21.576,12.328 21.538,12.632 21.331 C 13.018 21.070,13.100 20.836,13.259 19.549 C 13.474 17.808,13.521 17.701,14.955 15.668 C 15.976 14.222,16.302 13.667,16.627 12.820 L 16.780 12.420 16.791 8.530 L 16.801 4.640 16.655 4.350 C 16.308 3.659,15.924 3.270,15.270 2.948 C 14.634 2.633,14.512 2.606,13.520 2.561 C 12.407 2.510,7.758 2.479,6.800 2.517 M19.270 2.538 C 18.903 2.679,18.358 3.136,18.226 3.412 C 18.189 3.490,18.142 3.646,18.120 3.759 C 18.022 4.275,17.962 9.649,18.038 11.120 C 18.076 11.869,18.134 12.074,18.404 12.425 C 18.717 12.831,19.338 13.160,19.793 13.160 C 20.433 13.160,21.086 12.694,21.479 11.955 L 21.600 11.729 21.598 9.234 C 21.595 5.923,21.548 4.019,21.461 3.700 C 21.340 3.253,21.046 2.927,20.531 2.671 C 20.225 2.519,20.175 2.507,19.811 2.494 C 19.537 2.485,19.375 2.498,19.270 2.538 " fill="#373B4D" stroke="none" fill-rule="evenodd"></path></svg>