<svg width="24" height="24" viewBox="0 0 24 24" fill="none" xmlns="http://www.w3.org/2000/svg"><path d="M11.438 2.633 C 11.340 2.696,11.194 2.820,11.114 2.909 C 10.934 3.110,10.882 3.324,10.739 4.473 C 10.619 5.439,10.555 5.757,10.414 6.114 C 10.221 6.599,9.926 7.079,9.114 8.230 C 7.963 9.861,7.618 10.447,7.343 11.238 L 7.200 11.648 7.200 15.529 L 7.200 19.411 7.366 19.722 C 7.748 20.440,8.078 20.757,8.811 21.114 C 9.322 21.363,9.534 21.433,9.917 21.483 C 10.341 21.538,13.321 21.598,15.691 21.599 L 17.682 21.600 17.931 21.475 C 18.483 21.196,18.827 20.933,19.096 20.583 C 19.292 20.327,19.365 20.164,19.516 19.640 C 19.885 18.357,20.961 12.939,21.025 12.040 C 21.047 11.740,21.037 11.663,20.944 11.387 C 20.886 11.215,20.778 10.981,20.705 10.867 C 20.525 10.589,20.004 10.092,19.660 9.871 L 19.380 9.691 17.280 9.645 C 16.125 9.620,15.005 9.599,14.790 9.600 L 14.400 9.600 14.400 6.959 L 14.400 4.317 14.296 4.109 C 14.079 3.676,13.762 3.249,13.509 3.048 C 13.014 2.655,12.618 2.520,11.960 2.520 C 11.650 2.520,11.598 2.531,11.438 2.633 M3.652 10.936 C 3.429 11.038,3.052 11.312,2.844 11.523 C 2.595 11.776,2.526 11.973,2.477 12.569 C 2.421 13.259,2.388 17.840,2.431 19.080 C 2.466 20.069,2.478 20.202,2.558 20.400 C 2.746 20.868,3.169 21.262,3.699 21.461 C 4.497 21.762,5.366 21.318,5.886 20.343 L 6.013 20.105 5.986 16.443 C 5.972 14.428,5.943 12.638,5.921 12.464 C 5.856 11.935,5.784 11.776,5.464 11.459 C 5.274 11.270,5.091 11.134,4.909 11.046 C 4.668 10.929,4.592 10.912,4.209 10.896 C 3.885 10.882,3.749 10.892,3.652 10.936 " fill="#373B4D" stroke="none" fill-rule="evenodd"></path></svg>