<svg width="24" height="24" viewBox="0 0 24 24" fill="none" xmlns="http://www.w3.org/2000/svg"><path d="M19.205 2.580 C 18.986 2.678,18.582 2.983,18.407 3.181 C 18.319 3.282,18.217 3.449,18.181 3.552 C 18.064 3.889,18.029 4.925,18.025 8.220 C 18.020 11.639,18.022 11.678,18.220 12.110 C 18.356 12.408,18.757 12.796,19.094 12.957 C 19.605 13.201,19.975 13.207,20.472 12.980 C 20.761 12.847,21.296 12.309,21.471 11.974 L 21.600 11.729 21.599 9.434 C 21.598 8.172,21.580 6.447,21.559 5.600 C 21.520 4.025,21.486 3.682,21.337 3.394 C 21.227 3.181,20.877 2.870,20.557 2.700 C 20.267 2.546,20.249 2.542,19.800 2.530 C 19.454 2.522,19.306 2.534,19.205 2.580 M5.944 2.617 C 5.526 2.771,4.933 3.311,4.731 3.722 C 4.487 4.220,4.191 5.417,3.645 8.120 C 2.973 11.443,2.885 12.148,3.076 12.694 C 3.265 13.232,3.981 13.965,4.649 14.304 L 4.837 14.400 7.217 14.400 L 9.597 14.400 9.609 17.070 L 9.620 19.740 9.772 20.010 C 9.982 20.384,10.363 20.847,10.655 21.083 C 10.943 21.316,11.193 21.418,11.684 21.503 C 12.009 21.559,12.063 21.559,12.259 21.502 C 12.506 21.430,12.778 21.238,12.910 21.042 C 13.054 20.829,13.115 20.566,13.263 19.540 C 13.340 19.012,13.437 18.436,13.481 18.260 C 13.589 17.820,13.882 17.242,14.326 16.592 C 16.167 13.892,16.337 13.611,16.678 12.686 L 16.800 12.355 16.800 8.496 L 16.800 4.637 16.695 4.429 C 16.310 3.661,15.808 3.190,14.979 2.820 C 14.447 2.582,14.584 2.589,10.160 2.574 C 6.715 2.562,6.076 2.569,5.944 2.617 " fill="#373B4D" stroke="none" fill-rule="evenodd"></path></svg>