<svg width="24" height="24" viewBox="0 0 24 24" fill="none" xmlns="http://www.w3.org/2000/svg"><path d="M19.296 2.555 C 18.994 2.634,18.363 3.159,18.230 3.442 C 18.099 3.721,18.079 4.078,18.039 6.790 C 17.990 10.069,18.025 11.621,18.152 11.953 C 18.398 12.589,19.145 13.125,19.800 13.136 C 20.142 13.141,20.473 13.015,20.783 12.761 C 21.057 12.537,21.389 12.140,21.521 11.880 L 21.612 11.700 21.587 8.340 C 21.561 4.896,21.529 3.991,21.418 3.602 C 21.364 3.416,21.307 3.334,21.067 3.099 C 20.909 2.945,20.670 2.761,20.536 2.690 C 20.317 2.575,20.250 2.560,19.856 2.542 C 19.616 2.532,19.364 2.537,19.296 2.555 M6.280 2.594 C 5.961 2.616,5.869 2.638,5.704 2.735 C 5.402 2.913,4.909 3.407,4.771 3.670 C 4.488 4.209,4.220 5.272,3.621 8.240 C 3.104 10.796,3.025 11.289,3.022 11.981 C 3.020 12.578,3.021 12.582,3.149 12.843 C 3.398 13.350,4.082 14.017,4.643 14.302 L 4.837 14.400 7.219 14.400 L 9.600 14.400 9.600 17.041 L 9.600 19.683 9.696 19.871 C 9.976 20.419,10.548 21.059,10.943 21.266 C 11.164 21.382,11.523 21.485,11.902 21.540 C 12.224 21.588,12.716 21.335,12.917 21.018 C 13.050 20.808,13.113 20.532,13.299 19.330 C 13.378 18.819,13.480 18.279,13.525 18.130 C 13.672 17.651,13.984 17.116,15.052 15.512 C 16.163 13.845,16.385 13.464,16.640 12.784 L 16.800 12.359 16.800 8.495 L 16.800 4.632 16.660 4.366 C 16.360 3.797,15.983 3.392,15.470 3.085 C 14.997 2.803,14.685 2.686,14.300 2.644 C 13.887 2.599,6.854 2.556,6.280 2.594 " fill="#373B4D" stroke="none" fill-rule="evenodd"></path></svg>