<svg width="24" height="24" viewBox="0 0 24 24" fill="none" xmlns="http://www.w3.org/2000/svg"><path d="M11.653 2.516 C 11.463 2.565,11.132 2.826,11.021 3.015 C 10.911 3.202,10.851 3.533,10.721 4.670 C 10.555 6.108,10.427 6.386,8.982 8.420 C 7.926 9.908,7.618 10.437,7.343 11.234 L 7.200 11.648 7.200 15.522 L 7.200 19.397 7.372 19.731 C 7.588 20.150,7.868 20.517,8.132 20.726 C 8.388 20.928,9.222 21.339,9.540 21.419 C 9.972 21.528,10.889 21.560,14.300 21.586 L 17.660 21.612 17.950 21.466 C 18.664 21.105,19.060 20.755,19.298 20.272 C 19.479 19.905,19.697 19.045,20.094 17.120 C 20.714 14.120,21.041 12.309,21.039 11.880 C 21.038 11.616,20.973 11.377,20.814 11.046 C 20.640 10.683,20.171 10.198,19.699 9.894 L 19.380 9.688 17.440 9.643 C 16.373 9.619,15.252 9.599,14.950 9.600 L 14.400 9.600 14.399 6.950 L 14.399 4.300 14.216 3.960 C 14.116 3.773,13.962 3.527,13.874 3.412 C 13.595 3.050,13.141 2.727,12.737 2.602 C 12.461 2.517,11.843 2.468,11.653 2.516 M3.509 11.008 C 3.192 11.189,2.835 11.485,2.700 11.680 C 2.500 11.968,2.479 12.139,2.435 13.820 C 2.385 15.680,2.414 19.793,2.478 20.134 C 2.576 20.652,2.948 21.112,3.480 21.373 C 4.028 21.641,4.368 21.644,4.902 21.382 C 5.247 21.213,5.598 20.861,5.823 20.460 L 5.980 20.180 5.979 16.600 C 5.978 12.688,5.959 12.241,5.783 11.854 C 5.645 11.553,5.314 11.241,4.933 11.053 C 4.639 10.908,4.603 10.899,4.182 10.888 C 3.746 10.877,3.737 10.878,3.509 11.008 " fill="#373B4D" stroke="none" fill-rule="evenodd"></path></svg>