<svg width="24" height="24" viewBox="0 0 24 24" fill="none" xmlns="http://www.w3.org/2000/svg"><path d="M7.780 2.476 L 6.060 2.500 5.745 2.680 C 5.333 2.916,4.844 3.401,4.681 3.735 C 4.537 4.031,4.405 4.538,4.081 6.037 C 3.478 8.835,3.011 11.287,2.973 11.863 C 2.925 12.585,3.124 13.074,3.705 13.662 C 3.971 13.932,4.097 14.025,4.407 14.179 L 4.785 14.367 7.193 14.390 L 9.600 14.412 9.600 17.024 L 9.600 19.635 9.707 19.887 C 9.938 20.432,10.352 20.945,10.785 21.224 C 11.127 21.445,11.441 21.531,11.920 21.536 C 12.310 21.540,12.353 21.532,12.526 21.431 C 12.790 21.275,13.030 20.988,13.099 20.743 C 13.131 20.632,13.195 20.118,13.242 19.601 C 13.396 17.897,13.495 17.670,14.948 15.668 C 16.088 14.097,16.350 13.648,16.639 12.768 L 16.800 12.278 16.799 8.489 L 16.799 4.700 16.665 4.377 C 16.439 3.826,16.164 3.479,15.706 3.164 C 15.454 2.991,14.750 2.661,14.508 2.604 C 14.025 2.489,10.977 2.431,7.780 2.476 M19.251 2.521 C 18.975 2.643,18.628 2.898,18.408 3.139 C 18.103 3.472,18.080 3.582,18.039 4.840 C 17.994 6.219,17.994 10.394,18.038 11.233 C 18.070 11.849,18.080 11.902,18.197 12.140 C 18.526 12.808,19.373 13.285,20.020 13.166 C 20.603 13.058,21.125 12.663,21.389 12.130 L 21.535 11.835 21.570 10.567 C 21.615 8.979,21.582 4.329,21.523 3.920 C 21.499 3.755,21.435 3.528,21.380 3.416 C 21.188 3.024,20.669 2.625,20.180 2.494 C 19.891 2.417,19.456 2.430,19.251 2.521 " fill="#373B4D" stroke="none" fill-rule="evenodd"></path></svg>