<svg width="24" height="24" viewBox="0 0 24 24" fill="none" xmlns="http://www.w3.org/2000/svg"><path d="M19.020 2.700 C 18.730 2.875,18.342 3.246,18.238 3.447 C 18.113 3.687,18.083 4.178,18.037 6.700 C 17.993 9.094,18.010 10.858,18.084 11.540 C 18.134 12.004,18.226 12.191,18.577 12.543 C 19.345 13.313,20.228 13.323,20.970 12.572 C 21.269 12.269,21.409 12.092,21.523 11.872 C 21.596 11.731,21.600 11.619,21.599 9.692 C 21.598 7.190,21.538 4.368,21.478 3.940 C 21.453 3.765,21.408 3.560,21.376 3.485 C 21.303 3.309,20.873 2.898,20.577 2.720 C 20.345 2.581,20.340 2.580,19.802 2.567 L 19.260 2.555 19.020 2.700 M5.929 2.637 C 5.595 2.722,4.924 3.352,4.726 3.767 C 4.456 4.336,4.171 5.504,3.560 8.560 C 3.134 10.687,3.060 11.136,3.018 11.820 C 2.970 12.613,3.084 12.909,3.680 13.533 C 4.024 13.894,4.360 14.160,4.668 14.315 C 4.834 14.399,4.871 14.400,7.218 14.400 L 9.600 14.400 9.600 17.042 C 9.600 19.662,9.601 19.685,9.686 19.852 C 9.922 20.317,10.480 20.970,10.833 21.195 C 11.031 21.321,11.390 21.446,11.770 21.520 C 12.049 21.575,12.320 21.511,12.606 21.321 C 12.972 21.078,13.048 20.884,13.242 19.680 C 13.418 18.592,13.516 18.129,13.628 17.860 C 13.780 17.496,14.092 16.982,15.000 15.598 C 16.244 13.703,16.408 13.419,16.684 12.670 L 16.800 12.355 16.800 8.487 L 16.800 4.620 16.610 4.283 C 16.275 3.690,15.787 3.236,15.130 2.905 C 14.561 2.619,14.799 2.632,10.200 2.617 C 7.923 2.610,6.001 2.619,5.929 2.637 " fill="#373B4D" stroke="none" fill-rule="evenodd"></path></svg>