<svg width="24" height="24" viewBox="0 0 24 24" fill="none" xmlns="http://www.w3.org/2000/svg"><path d="M19.372 2.521 C 19.049 2.587,18.395 3.096,18.241 3.400 C 18.202 3.477,18.150 3.634,18.125 3.750 C 18.004 4.321,17.963 10.956,18.076 11.653 C 18.140 12.043,18.291 12.324,18.589 12.603 C 18.869 12.864,19.101 12.997,19.459 13.101 C 20.173 13.309,21.014 12.829,21.484 11.946 L 21.611 11.708 21.588 8.224 C 21.563 4.390,21.538 3.838,21.373 3.471 C 21.237 3.169,20.909 2.863,20.516 2.672 C 20.269 2.551,20.164 2.524,19.880 2.507 C 19.693 2.495,19.464 2.502,19.372 2.521 M6.193 2.557 C 5.919 2.595,5.703 2.703,5.371 2.968 C 5.037 3.233,4.862 3.444,4.698 3.780 C 4.470 4.246,4.115 5.744,3.505 8.820 C 2.909 11.824,2.869 12.303,3.162 12.907 C 3.375 13.345,4.000 13.945,4.566 14.257 L 4.827 14.400 7.213 14.400 L 9.600 14.400 9.600 17.042 C 9.600 19.651,9.601 19.685,9.685 19.852 C 10.001 20.482,10.577 21.119,11.016 21.323 C 11.306 21.459,11.913 21.574,12.140 21.536 C 12.515 21.475,12.905 21.167,13.020 20.840 C 13.118 20.564,13.146 20.411,13.277 19.440 C 13.498 17.801,13.550 17.680,14.829 15.853 C 15.971 14.221,16.366 13.545,16.679 12.687 L 16.800 12.355 16.800 8.493 L 16.800 4.632 16.634 4.313 C 16.297 3.665,15.922 3.292,15.280 2.964 C 14.791 2.714,14.581 2.648,14.118 2.597 C 13.663 2.547,6.524 2.511,6.193 2.557 " fill="#373B4D" stroke="none" fill-rule="evenodd"></path></svg>