<svg width="24" height="24" viewBox="0 0 24 24" fill="none" xmlns="http://www.w3.org/2000/svg"><path d="M11.476 2.540 C 11.247 2.659,10.953 2.979,10.885 3.185 C 10.855 3.275,10.819 3.687,10.800 4.163 C 10.754 5.317,10.644 5.833,10.296 6.527 C 10.121 6.876,9.892 7.208,8.979 8.440 C 7.720 10.139,7.591 10.365,7.333 11.312 L 7.228 11.700 7.210 15.501 L 7.192 19.301 7.335 19.672 C 7.504 20.110,7.646 20.328,7.970 20.643 C 8.351 21.016,9.196 21.397,9.920 21.523 C 10.095 21.553,11.391 21.575,13.871 21.589 L 17.562 21.610 17.871 21.501 C 18.537 21.268,18.966 20.935,19.275 20.412 C 19.512 20.011,19.532 19.928,20.323 16.000 C 21.052 12.385,21.118 11.958,21.021 11.539 C 20.844 10.777,20.372 10.189,19.645 9.828 L 19.309 9.661 18.545 9.634 C 18.124 9.619,17.020 9.605,16.090 9.603 L 14.400 9.600 14.400 7.001 L 14.400 4.402 14.279 4.072 C 14.131 3.666,13.953 3.392,13.637 3.083 C 13.195 2.652,12.658 2.439,12.022 2.442 C 11.720 2.443,11.629 2.460,11.476 2.540 M3.840 10.844 C 3.557 10.899,3.170 11.117,2.925 11.359 C 2.623 11.658,2.484 11.951,2.438 12.393 C 2.390 12.845,2.390 19.555,2.438 20.007 C 2.486 20.464,2.605 20.709,2.945 21.049 C 3.230 21.334,3.421 21.445,3.790 21.541 C 4.577 21.746,5.459 21.319,5.814 20.562 C 5.912 20.354,5.941 20.225,5.965 19.902 C 6.005 19.379,6.005 13.021,5.965 12.498 C 5.941 12.170,5.912 12.047,5.809 11.826 C 5.579 11.336,5.062 10.947,4.501 10.844 C 4.233 10.794,4.096 10.794,3.840 10.844 " fill="#373B4D" stroke="none" fill-rule="evenodd"></path></svg>