<svg width="24" height="24" viewBox="0 0 24 24" fill="none" xmlns="http://www.w3.org/2000/svg"><path d="M6.780 2.438 C 6.356 2.458,6.162 2.486,5.983 2.552 C 5.247 2.822,4.682 3.428,4.483 4.160 C 4.336 4.698,3.247 10.064,3.038 11.280 C 2.921 11.956,2.921 12.348,3.036 12.680 C 3.311 13.476,3.934 14.083,4.704 14.306 C 4.912 14.367,5.219 14.377,7.270 14.390 L 9.600 14.406 9.600 17.002 L 9.600 19.598 9.721 19.928 C 9.915 20.461,10.260 20.900,10.740 21.226 C 11.215 21.549,12.090 21.679,12.486 21.487 C 12.705 21.381,13.019 21.059,13.106 20.852 C 13.148 20.751,13.178 20.462,13.203 19.903 C 13.247 18.908,13.294 18.556,13.442 18.112 C 13.670 17.425,13.836 17.157,15.011 15.571 C 16.276 13.867,16.411 13.631,16.666 12.688 L 16.772 12.300 16.790 8.533 L 16.809 4.766 16.721 4.493 C 16.412 3.536,15.851 3.018,14.720 2.646 C 14.511 2.578,14.214 2.501,14.060 2.476 C 13.740 2.424,7.709 2.392,6.780 2.438 M19.440 2.444 C 19.157 2.499,18.770 2.717,18.525 2.959 C 18.223 3.258,18.084 3.551,18.038 3.993 C 17.990 4.445,17.990 11.155,18.038 11.607 C 18.086 12.064,18.205 12.309,18.545 12.649 C 18.830 12.934,19.021 13.045,19.390 13.141 C 20.177 13.346,21.059 12.919,21.414 12.162 C 21.512 11.954,21.541 11.825,21.565 11.502 C 21.605 10.979,21.605 4.621,21.565 4.098 C 21.541 3.770,21.512 3.647,21.409 3.426 C 21.179 2.936,20.662 2.547,20.101 2.444 C 19.833 2.394,19.696 2.394,19.440 2.444 " fill="#373B4D" stroke="none" fill-rule="evenodd"></path></svg>