<svg width="24" height="24" viewBox="0 0 24 24" fill="none" xmlns="http://www.w3.org/2000/svg"><path d="M18.957 2.753 C 18.611 2.985,18.302 3.298,18.217 3.502 C 18.120 3.733,18.085 4.326,18.036 6.527 C 17.988 8.698,18.009 10.931,18.082 11.520 C 18.136 11.952,18.253 12.208,18.524 12.484 C 19.146 13.117,19.764 13.275,20.418 12.968 C 20.628 12.869,20.775 12.756,21.021 12.507 C 21.200 12.325,21.399 12.088,21.463 11.978 L 21.580 11.780 21.575 8.640 C 21.570 5.446,21.526 4.035,21.422 3.640 C 21.371 3.449,21.322 3.380,21.052 3.119 C 20.880 2.954,20.653 2.767,20.546 2.705 C 20.366 2.600,20.314 2.591,19.806 2.571 L 19.260 2.550 18.957 2.753 M6.960 2.640 L 5.860 2.660 5.675 2.769 C 5.448 2.902,5.017 3.318,4.853 3.560 C 4.529 4.041,4.241 5.155,3.559 8.560 C 2.944 11.633,2.886 12.267,3.164 12.860 C 3.346 13.246,4.113 14.010,4.578 14.268 L 4.780 14.380 7.189 14.391 L 9.597 14.403 9.609 17.071 L 9.620 19.740 9.735 19.948 C 9.890 20.227,10.310 20.748,10.568 20.979 C 10.839 21.224,11.088 21.346,11.547 21.463 C 11.996 21.577,12.216 21.552,12.554 21.349 C 12.958 21.107,13.034 20.911,13.280 19.479 C 13.579 17.739,13.523 17.865,15.054 15.520 C 16.033 14.020,16.376 13.438,16.594 12.910 L 16.780 12.460 16.791 8.550 L 16.801 4.639 16.715 4.470 C 16.359 3.769,15.751 3.195,14.987 2.838 C 14.793 2.746,14.644 2.712,14.318 2.682 C 13.846 2.639,8.640 2.609,6.960 2.640 " fill="#373B4D" stroke="none" fill-rule="evenodd"></path></svg>