<svg width="24" height="24" viewBox="0 0 24 24" fill="none" xmlns="http://www.w3.org/2000/svg"><path d="M11.740 2.546 C 11.696 2.556,11.621 2.571,11.574 2.581 C 11.418 2.614,11.075 2.920,10.999 3.094 C 10.917 3.280,10.857 3.605,10.680 4.820 C 10.612 5.282,10.529 5.750,10.494 5.860 C 10.360 6.281,9.992 6.907,9.098 8.240 C 7.779 10.206,7.598 10.519,7.319 11.309 L 7.200 11.646 7.201 15.533 L 7.201 19.420 7.364 19.720 C 7.570 20.097,7.904 20.513,8.173 20.727 C 8.426 20.929,9.253 21.335,9.580 21.418 C 9.973 21.518,11.122 21.558,14.480 21.586 L 17.660 21.612 17.945 21.468 C 18.517 21.179,19.075 20.687,19.270 20.300 C 19.471 19.900,19.723 18.906,20.180 16.704 C 20.727 14.062,21.060 12.109,21.024 11.748 C 20.992 11.427,20.798 10.985,20.562 10.698 C 20.359 10.451,19.884 10.031,19.560 9.813 L 19.380 9.692 17.860 9.666 C 17.024 9.651,15.903 9.628,15.370 9.614 L 14.400 9.588 14.400 6.950 L 14.400 4.312 14.260 4.046 C 13.793 3.161,13.133 2.651,12.340 2.561 C 11.969 2.519,11.877 2.517,11.740 2.546 M3.540 11.005 C 3.321 11.122,2.866 11.492,2.743 11.653 C 2.461 12.022,2.430 12.502,2.425 16.600 C 2.421 20.031,2.424 20.084,2.633 20.520 C 2.785 20.837,3.164 21.198,3.541 21.385 C 3.830 21.527,3.874 21.537,4.199 21.535 C 4.505 21.533,4.582 21.517,4.819 21.406 C 5.166 21.244,5.642 20.777,5.860 20.384 L 6.013 20.109 5.986 16.584 C 5.958 12.970,5.935 12.327,5.815 11.980 C 5.723 11.711,5.277 11.261,4.920 11.077 C 4.674 10.950,4.635 10.943,4.180 10.931 C 3.753 10.921,3.682 10.929,3.540 11.005 " fill="#373B4D" stroke="none" fill-rule="evenodd"></path></svg>