<svg width="24" height="24" viewBox="0 0 24 24" fill="none" xmlns="http://www.w3.org/2000/svg"><path d="M5.120 4.839 C 4.223 4.862,4.169 4.867,3.933 4.967 C 3.284 5.242,2.765 5.789,2.530 6.445 C 2.424 6.739,2.424 6.743,2.409 8.164 L 2.394 9.588 2.623 9.615 C 3.160 9.678,3.808 9.998,4.137 10.362 C 4.369 10.619,4.550 10.928,4.665 11.267 C 4.754 11.528,4.772 11.650,4.772 12.000 C 4.772 12.692,4.547 13.217,4.036 13.720 C 3.902 13.853,3.715 14.007,3.621 14.061 C 3.384 14.201,2.903 14.358,2.627 14.387 L 2.394 14.412 2.409 15.836 C 2.424 17.257,2.424 17.261,2.530 17.555 C 2.781 18.257,3.388 18.853,4.085 19.083 L 4.380 19.180 12.000 19.180 L 19.620 19.180 19.941 19.070 C 20.638 18.830,21.220 18.254,21.470 17.555 C 21.576 17.261,21.576 17.257,21.591 15.836 L 21.606 14.412 21.373 14.387 C 21.097 14.358,20.616 14.201,20.379 14.061 C 20.149 13.927,19.749 13.527,19.580 13.262 C 19.504 13.144,19.394 12.905,19.335 12.733 C 19.246 12.472,19.228 12.350,19.228 12.000 C 19.228 11.650,19.246 11.528,19.335 11.267 C 19.450 10.928,19.631 10.619,19.863 10.362 C 20.192 9.998,20.840 9.678,21.378 9.615 L 21.608 9.588 21.590 8.164 C 21.571 6.603,21.564 6.548,21.309 6.067 C 21.078 5.631,20.469 5.107,19.994 4.937 C 19.872 4.893,19.562 4.864,18.960 4.839 C 18.028 4.800,6.657 4.800,5.120 4.839 " fill="#373B4D" stroke="none" fill-rule="evenodd"></path></svg>