<svg width="24" height="24" viewBox="0 0 24 24" fill="none" xmlns="http://www.w3.org/2000/svg"><path d="M4.480 4.959 C 4.136 4.977,3.935 5.007,3.837 5.054 C 3.661 5.138,3.020 5.693,2.869 5.891 C 2.509 6.364,2.451 6.675,2.415 8.321 L 2.387 9.581 2.718 9.677 C 3.585 9.928,4.194 10.398,4.544 11.089 C 4.631 11.260,4.640 11.326,4.638 11.809 C 4.636 12.635,4.596 12.883,4.425 13.141 C 4.345 13.260,4.160 13.486,4.013 13.642 C 3.795 13.873,3.678 13.958,3.383 14.101 C 3.183 14.197,2.902 14.305,2.758 14.341 C 2.613 14.377,2.472 14.420,2.444 14.438 C 2.402 14.463,2.400 14.737,2.432 15.865 C 2.467 17.106,2.481 17.289,2.556 17.526 C 2.731 18.078,3.366 18.719,4.109 19.094 L 4.317 19.200 12.009 19.200 L 19.700 19.200 20.049 19.004 C 20.887 18.534,21.360 17.976,21.480 17.316 C 21.542 16.970,21.599 15.960,21.599 15.173 C 21.600 14.514,21.593 14.443,21.530 14.425 C 20.657 14.174,20.421 14.063,20.085 13.743 C 19.814 13.484,19.559 13.139,19.439 12.867 C 19.390 12.756,19.357 12.552,19.340 12.260 C 19.287 11.363,19.515 10.738,20.062 10.280 C 20.305 10.077,20.966 9.752,21.330 9.658 L 21.600 9.588 21.599 8.884 C 21.597 7.413,21.508 6.485,21.338 6.156 C 21.221 5.929,20.706 5.435,20.318 5.177 L 19.932 4.920 12.456 4.926 C 8.344 4.930,4.755 4.945,4.480 4.959 " fill="#373B4D" stroke="none" fill-rule="evenodd"></path></svg>