<svg width="24" height="24" viewBox="0 0 24 24" fill="none" xmlns="http://www.w3.org/2000/svg"><path d="M6.960 4.920 C 3.623 4.943,3.987 4.901,3.467 5.320 C 2.820 5.840,2.558 6.238,2.481 6.820 C 2.457 6.996,2.427 7.690,2.413 8.362 L 2.388 9.585 2.740 9.678 C 3.538 9.889,4.167 10.360,4.495 10.993 L 4.647 11.286 4.634 12.053 C 4.618 12.929,4.623 12.914,4.178 13.472 C 3.821 13.921,3.397 14.176,2.715 14.354 L 2.420 14.431 2.426 15.645 C 2.433 17.018,2.471 17.390,2.637 17.747 C 2.848 18.198,3.487 18.783,4.109 19.095 L 4.317 19.200 12.004 19.200 L 19.691 19.200 20.002 19.034 C 20.800 18.609,21.299 18.070,21.457 17.465 C 21.533 17.171,21.608 15.848,21.593 15.065 L 21.580 14.431 21.300 14.360 C 20.908 14.260,20.537 14.104,20.288 13.933 C 20.024 13.752,19.687 13.351,19.500 12.994 C 19.368 12.744,19.355 12.689,19.334 12.272 C 19.294 11.519,19.408 11.053,19.742 10.598 C 20.027 10.209,20.616 9.852,21.264 9.675 L 21.612 9.580 21.586 8.340 C 21.552 6.668,21.501 6.358,21.197 5.950 C 21.003 5.689,20.588 5.328,20.220 5.102 L 19.940 4.929 14.920 4.914 C 12.159 4.907,8.577 4.909,6.960 4.920 " fill="#373B4D" stroke="none" fill-rule="evenodd"></path></svg>