<svg width="24" height="24" viewBox="0 0 24 24" fill="none" xmlns="http://www.w3.org/2000/svg"><path d="M4.418 4.915 C 4.052 4.938,3.995 4.953,3.782 5.080 C 3.488 5.256,2.885 5.822,2.727 6.071 C 2.661 6.175,2.578 6.359,2.542 6.480 C 2.464 6.747,2.402 7.773,2.401 8.824 L 2.400 9.587 2.750 9.675 C 3.548 9.876,4.129 10.302,4.470 10.937 L 4.640 11.253 4.640 12.009 C 4.640 12.841,4.646 12.818,4.352 13.252 C 4.070 13.667,3.761 13.946,3.393 14.117 C 3.080 14.262,2.626 14.400,2.461 14.400 C 2.391 14.400,2.389 14.455,2.413 15.730 C 2.440 17.165,2.472 17.434,2.661 17.809 C 2.880 18.246,3.453 18.764,4.044 19.062 L 4.318 19.200 12.009 19.199 L 19.700 19.199 20.031 19.021 C 20.831 18.592,21.322 18.052,21.468 17.441 C 21.540 17.138,21.606 15.879,21.592 15.082 L 21.580 14.424 21.420 14.391 C 21.022 14.310,20.511 14.107,20.282 13.939 C 19.987 13.721,19.653 13.321,19.475 12.971 C 19.345 12.715,19.340 12.685,19.327 12.178 C 19.312 11.550,19.355 11.283,19.529 10.926 C 19.815 10.341,20.456 9.875,21.255 9.671 L 21.611 9.580 21.587 8.320 C 21.556 6.638,21.514 6.384,21.192 5.934 C 21.021 5.695,20.534 5.277,20.181 5.067 L 19.902 4.900 12.361 4.895 C 8.213 4.893,4.639 4.902,4.418 4.915 " fill="#373B4D" stroke="none" fill-rule="evenodd"></path></svg>