<svg width="24" height="24" viewBox="0 0 24 24" fill="none" xmlns="http://www.w3.org/2000/svg"><path d="M5.520 4.879 L 4.100 4.900 3.852 5.026 C 3.491 5.209,3.149 5.493,2.901 5.816 C 2.465 6.386,2.435 6.532,2.411 8.225 L 2.392 9.590 2.666 9.638 C 3.149 9.722,3.708 9.990,4.035 10.294 C 4.252 10.496,4.555 10.989,4.638 11.276 C 4.802 11.841,4.773 12.490,4.564 12.940 C 4.424 13.244,4.029 13.734,3.764 13.934 C 3.517 14.121,3.066 14.302,2.683 14.368 L 2.400 14.416 2.400 15.538 C 2.401 17.158,2.463 17.556,2.789 18.040 C 3.065 18.448,3.410 18.744,3.876 18.972 L 4.300 19.180 12.000 19.180 L 19.700 19.180 20.128 18.970 C 20.596 18.741,20.848 18.528,21.170 18.089 C 21.540 17.587,21.597 17.232,21.599 15.415 L 21.600 14.410 21.406 14.385 C 21.300 14.370,21.048 14.307,20.846 14.244 C 20.400 14.104,20.127 13.908,19.791 13.485 C 19.447 13.053,19.331 12.798,19.278 12.360 C 19.177 11.529,19.442 10.771,20.014 10.255 C 20.289 10.006,20.858 9.734,21.272 9.652 L 21.600 9.587 21.599 8.584 C 21.599 7.542,21.554 6.769,21.475 6.457 C 21.355 5.978,20.746 5.333,20.111 5.011 L 19.900 4.903 17.740 4.875 C 15.324 4.843,7.704 4.846,5.520 4.879 " fill="#373B4D" stroke="none" fill-rule="evenodd"></path></svg>