<svg width="24" height="24" viewBox="0 0 24 24" fill="none" xmlns="http://www.w3.org/2000/svg"><path d="M8.278 4.958 L 4.017 4.980 3.781 5.120 C 3.651 5.197,3.361 5.440,3.137 5.660 C 2.704 6.086,2.604 6.259,2.517 6.740 C 2.458 7.071,2.401 8.094,2.401 8.863 L 2.400 9.585 2.630 9.656 C 2.994 9.769,3.558 10.051,3.829 10.257 C 4.087 10.452,4.541 11.009,4.585 11.184 C 4.598 11.239,4.602 11.621,4.593 12.034 C 4.578 12.754,4.573 12.793,4.467 13.008 C 4.328 13.293,3.890 13.769,3.586 13.966 C 3.457 14.049,3.161 14.191,2.927 14.281 C 2.693 14.372,2.476 14.467,2.445 14.493 C 2.397 14.532,2.392 14.706,2.414 15.560 C 2.454 17.164,2.519 17.571,2.798 17.977 C 3.054 18.350,3.568 18.794,4.046 19.057 L 4.307 19.200 12.003 19.200 L 19.700 19.200 20.038 19.010 C 20.417 18.796,21.000 18.271,21.196 17.967 C 21.477 17.528,21.551 17.095,21.586 15.679 C 21.605 14.916,21.599 14.593,21.566 14.532 C 21.541 14.485,21.435 14.416,21.330 14.377 C 20.348 14.019,20.082 13.830,19.628 13.167 C 19.443 12.896,19.405 12.757,19.374 12.240 C 19.326 11.408,19.487 10.907,19.957 10.436 C 20.169 10.223,20.308 10.128,20.671 9.950 C 20.918 9.828,21.229 9.696,21.360 9.657 L 21.600 9.585 21.600 8.922 C 21.599 8.169,21.540 7.074,21.478 6.683 C 21.455 6.539,21.395 6.330,21.345 6.220 C 21.230 5.970,20.787 5.528,20.300 5.179 L 19.940 4.922 16.240 4.929 C 14.205 4.933,10.622 4.946,8.278 4.958 " fill="#373B4D" stroke="none" fill-rule="evenodd"></path></svg>