<svg width="24" height="24" viewBox="0 0 24 24" fill="none" xmlns="http://www.w3.org/2000/svg"><path d="M6.820 4.878 L 4.100 4.900 3.800 5.059 C 3.440 5.249,2.839 5.827,2.668 6.149 C 2.471 6.518,2.439 6.780,2.413 8.240 L 2.389 9.580 2.764 9.669 C 3.481 9.838,3.997 10.169,4.321 10.665 C 4.653 11.175,4.697 11.328,4.699 12.000 C 4.700 12.474,4.686 12.617,4.624 12.780 C 4.450 13.243,3.905 13.883,3.520 14.080 C 3.268 14.209,2.825 14.354,2.591 14.385 L 2.391 14.412 2.410 15.756 C 2.428 16.965,2.438 17.132,2.515 17.417 C 2.562 17.591,2.645 17.810,2.701 17.905 C 2.958 18.343,3.406 18.739,3.964 19.018 L 4.328 19.200 12.002 19.200 L 19.676 19.200 20.069 19.000 C 20.515 18.772,20.750 18.591,21.037 18.256 C 21.508 17.703,21.562 17.460,21.589 15.740 L 21.609 14.420 21.335 14.368 C 20.632 14.235,20.205 13.996,19.833 13.528 C 19.384 12.962,19.280 12.681,19.280 12.027 C 19.280 11.403,19.427 10.961,19.787 10.502 C 20.086 10.121,20.749 9.755,21.355 9.637 L 21.610 9.588 21.588 8.284 C 21.564 6.861,21.530 6.526,21.378 6.214 C 21.187 5.821,20.582 5.254,20.080 4.998 L 19.900 4.906 16.640 4.876 C 13.137 4.844,11.096 4.845,6.820 4.878 " fill="#373B4D" stroke="none" fill-rule="evenodd"></path></svg>