<svg width="24" height="24" viewBox="0 0 24 24" fill="none" xmlns="http://www.w3.org/2000/svg"><path d="M7.380 4.877 L 4.100 4.900 3.860 5.031 C 3.383 5.291,2.793 5.873,2.615 6.261 C 2.474 6.567,2.440 6.906,2.413 8.301 L 2.388 9.583 2.698 9.656 C 3.578 9.863,4.147 10.283,4.505 10.988 L 4.660 11.293 4.660 12.016 L 4.660 12.740 4.526 12.987 C 4.355 13.303,4.015 13.714,3.760 13.916 C 3.531 14.097,3.050 14.295,2.658 14.369 L 2.389 14.420 2.412 15.760 C 2.437 17.196,2.461 17.395,2.661 17.819 C 2.866 18.251,3.431 18.756,4.069 19.075 L 4.318 19.200 12.000 19.200 L 19.682 19.200 19.931 19.075 C 20.388 18.844,20.675 18.637,20.957 18.335 C 21.494 17.760,21.551 17.522,21.587 15.690 C 21.612 14.420,21.611 14.400,21.532 14.400 C 21.361 14.400,20.806 14.233,20.534 14.100 C 20.089 13.882,19.561 13.271,19.368 12.751 C 19.265 12.473,19.277 11.617,19.389 11.258 C 19.643 10.447,20.307 9.892,21.310 9.654 L 21.600 9.585 21.599 8.743 C 21.597 7.555,21.542 6.717,21.446 6.409 C 21.400 6.261,21.295 6.063,21.194 5.931 C 20.982 5.656,20.536 5.271,20.204 5.075 L 19.957 4.929 18.709 4.905 C 16.660 4.866,10.888 4.852,7.380 4.877 " fill="#373B4D" stroke="none" fill-rule="evenodd"></path></svg>