<svg width="24" height="24" viewBox="0 0 24 24" fill="none" xmlns="http://www.w3.org/2000/svg"><path d="M12.063 8.230 C 12.047 11.107,12.019 14.031,12.001 14.729 L 11.968 15.998 11.848 16.256 C 11.407 17.197,10.702 17.752,9.781 17.883 C 8.936 18.002,7.978 17.539,7.460 16.760 C 7.084 16.194,6.958 15.653,7.038 14.940 C 7.109 14.307,7.341 13.834,7.817 13.355 C 8.141 13.028,8.543 12.813,9.093 12.670 L 9.440 12.581 9.440 11.046 L 9.440 9.512 9.190 9.539 C 7.391 9.735,5.909 10.635,4.932 12.126 C 4.793 12.338,4.632 12.618,4.574 12.746 C 4.397 13.141,4.160 13.880,4.096 14.239 C 4.007 14.736,4.009 15.881,4.099 16.318 C 4.241 17.009,4.669 18.059,5.009 18.554 C 5.211 18.847,6.029 19.666,6.392 19.939 C 6.755 20.211,7.450 20.572,7.920 20.732 C 8.459 20.916,8.852 20.977,9.480 20.977 C 11.364 20.974,12.991 20.089,14.097 18.464 C 14.429 17.977,14.692 17.375,14.900 16.631 C 14.999 16.279,15.006 16.189,15.040 14.840 C 15.059 14.059,15.087 12.453,15.102 11.270 C 15.117 10.088,15.145 9.120,15.164 9.120 C 15.184 9.120,15.483 9.262,15.830 9.436 C 16.505 9.774,17.028 9.983,17.540 10.118 C 17.926 10.221,18.549 10.319,18.810 10.320 L 19.000 10.320 19.000 8.786 L 19.000 7.251 18.741 7.225 C 18.048 7.154,17.106 6.747,16.604 6.302 C 16.246 5.986,15.900 5.592,15.723 5.300 C 15.406 4.777,15.120 3.903,15.057 3.270 L 15.031 3.000 13.561 3.000 L 12.091 3.000 12.063 8.230 " fill="#373B4D" stroke="none" fill-rule="evenodd"></path></svg>