<svg width="24" height="24" viewBox="0 0 24 24" fill="none" xmlns="http://www.w3.org/2000/svg"><path d="M12.065 8.710 C 12.050 11.851,12.022 14.776,12.003 15.212 L 11.969 16.003 11.791 16.372 C 11.394 17.193,10.732 17.718,9.909 17.866 C 8.733 18.077,7.541 17.321,7.118 16.096 C 6.957 15.628,6.975 14.856,7.160 14.329 C 7.350 13.789,7.890 13.162,8.362 12.934 C 8.663 12.788,9.029 12.662,9.272 12.621 L 9.440 12.593 9.440 11.053 L 9.440 9.514 9.170 9.540 C 7.248 9.731,5.621 10.814,4.686 12.524 C 4.471 12.916,4.225 13.610,4.115 14.129 C 4.011 14.624,3.991 15.713,4.076 16.200 C 4.220 17.016,4.662 18.094,5.080 18.647 C 5.356 19.012,6.019 19.668,6.409 19.962 C 6.814 20.267,7.575 20.640,8.118 20.799 C 9.713 21.266,11.603 20.857,12.941 19.755 C 13.536 19.265,14.098 18.564,14.439 17.886 C 14.648 17.472,14.946 16.581,14.998 16.214 C 15.020 16.058,15.057 14.394,15.079 12.518 C 15.101 10.642,15.128 9.099,15.138 9.089 C 15.148 9.079,15.353 9.181,15.593 9.316 C 16.613 9.889,17.727 10.253,18.630 10.309 L 19.000 10.332 19.000 8.792 L 19.000 7.252 18.750 7.227 C 18.192 7.173,17.475 6.915,16.958 6.582 C 16.571 6.333,15.987 5.741,15.746 5.353 C 15.396 4.789,15.121 3.971,15.059 3.310 L 15.031 3.000 13.562 3.000 L 12.093 3.000 12.065 8.710 " fill="#373B4D" stroke="none" fill-rule="evenodd"></path></svg>