<svg width="24" height="24" viewBox="0 0 24 24" fill="none" xmlns="http://www.w3.org/2000/svg"><path d="M12.077 8.430 C 12.075 11.417,12.060 14.301,12.044 14.840 C 12.016 15.749,12.006 15.842,11.909 16.124 C 11.764 16.547,11.561 16.875,11.263 17.169 C 10.810 17.616,10.288 17.857,9.672 17.905 C 8.119 18.024,6.784 16.544,6.998 14.939 C 7.158 13.737,7.991 12.853,9.170 12.636 L 9.440 12.586 9.440 11.048 L 9.440 9.511 9.170 9.537 C 7.794 9.673,6.670 10.188,5.720 11.120 C 4.782 12.041,4.209 13.227,4.041 14.599 C 3.861 16.070,4.310 17.702,5.202 18.818 C 6.821 20.843,9.296 21.525,11.591 20.577 C 13.074 19.965,14.212 18.732,14.755 17.151 C 15.064 16.252,15.049 16.467,15.076 12.534 L 15.100 9.008 15.540 9.284 C 16.480 9.873,17.883 10.320,18.795 10.320 L 19.000 10.320 19.000 8.780 L 19.000 7.240 18.850 7.239 C 18.768 7.239,18.538 7.205,18.340 7.164 C 16.926 6.871,15.779 5.847,15.288 4.440 C 15.161 4.077,15.040 3.457,15.040 3.173 L 15.040 3.000 13.560 3.000 L 12.080 3.000 12.077 8.430 " fill="#373B4D" stroke="none" fill-rule="evenodd"></path></svg>