<svg width="24" height="24" viewBox="0 0 24 24" fill="none" xmlns="http://www.w3.org/2000/svg"><path d="M12.080 9.110 C 12.079 12.921,12.064 15.351,12.039 15.569 C 11.919 16.620,11.251 17.455,10.251 17.804 C 9.927 17.918,9.377 17.944,9.005 17.865 C 7.906 17.631,7.056 16.621,6.975 15.452 C 6.881 14.102,7.793 12.894,9.092 12.649 L 9.440 12.583 9.440 11.047 L 9.440 9.511 9.130 9.538 C 8.960 9.553,8.645 9.601,8.431 9.643 C 6.802 9.969,5.324 11.141,4.582 12.696 C 3.966 13.987,3.834 15.525,4.224 16.871 C 4.527 17.916,4.966 18.655,5.738 19.420 C 7.742 21.406,10.820 21.532,13.014 19.718 C 13.995 18.907,14.647 17.810,14.969 16.431 C 15.053 16.068,15.056 15.982,15.069 12.530 C 15.077 10.588,15.089 9.000,15.096 9.000 C 15.102 9.000,15.258 9.101,15.442 9.224 C 16.333 9.820,17.569 10.243,18.610 10.308 L 19.000 10.332 19.000 8.792 L 19.000 7.252 18.709 7.227 C 18.549 7.214,18.256 7.157,18.059 7.101 C 16.519 6.663,15.381 5.372,15.101 3.745 C 15.067 3.549,15.040 3.302,15.040 3.195 L 15.040 3.000 13.560 3.000 L 12.080 3.000 12.080 9.110 " fill="#373B4D" stroke="none" fill-rule="evenodd"></path></svg>