<svg width="24" height="24" viewBox="0 0 24 24" fill="none" xmlns="http://www.w3.org/2000/svg"><path d="M12.063 7.610 C 12.048 10.146,12.019 13.067,12.000 14.103 L 11.965 15.987 11.863 16.217 C 11.294 17.504,9.985 18.178,8.820 17.783 C 8.047 17.520,7.507 17.001,7.166 16.191 C 7.067 15.956,7.060 15.900,7.060 15.320 C 7.060 14.771,7.071 14.666,7.158 14.402 C 7.280 14.028,7.566 13.598,7.890 13.297 C 8.176 13.032,8.687 12.772,9.150 12.655 L 9.440 12.582 9.440 11.051 C 9.440 9.620,9.435 9.520,9.370 9.520 C 9.223 9.520,8.526 9.646,8.220 9.728 C 7.012 10.049,5.939 10.778,5.158 11.811 C 4.699 12.417,4.478 12.876,4.211 13.780 C 4.073 14.245,4.068 14.285,4.050 15.075 C 4.027 16.031,4.060 16.296,4.286 16.980 C 4.542 17.753,4.896 18.438,5.248 18.840 C 6.236 19.969,7.319 20.646,8.547 20.900 C 8.921 20.978,9.883 20.989,10.300 20.920 C 11.497 20.722,12.444 20.244,13.294 19.410 C 14.099 18.620,14.611 17.729,14.900 16.615 C 14.993 16.259,15.004 16.120,15.038 14.884 C 15.059 14.145,15.088 12.676,15.104 11.620 C 15.119 10.564,15.142 9.568,15.156 9.407 L 15.180 9.114 15.743 9.393 C 16.434 9.734,17.115 10.009,17.540 10.116 C 17.957 10.221,18.571 10.320,18.810 10.320 L 19.000 10.320 19.000 8.780 L 19.000 7.240 18.878 7.240 C 18.476 7.240,17.613 6.951,17.073 6.636 C 16.608 6.364,15.957 5.698,15.669 5.200 C 15.408 4.748,15.117 3.820,15.056 3.250 L 15.030 3.000 13.560 3.000 L 12.091 3.000 12.063 7.610 " fill="#373B4D" stroke="none" fill-rule="evenodd"></path></svg>