<svg width="24" height="24" viewBox="0 0 24 24" fill="none" xmlns="http://www.w3.org/2000/svg"><path d="M12.077 7.570 C 12.074 12.592,12.031 15.677,11.961 15.960 C 11.874 16.310,11.615 16.774,11.344 17.067 C 11.023 17.413,10.680 17.641,10.260 17.785 C 9.817 17.937,9.236 17.945,8.808 17.804 C 7.972 17.531,7.287 16.795,7.064 15.934 C 6.973 15.586,6.980 14.970,7.079 14.584 C 7.201 14.106,7.408 13.749,7.778 13.376 C 8.037 13.115,8.166 13.019,8.440 12.888 C 8.627 12.799,8.928 12.694,9.110 12.656 L 9.440 12.586 9.440 11.049 L 9.440 9.511 9.170 9.538 C 7.753 9.682,6.592 10.239,5.628 11.238 C 4.835 12.058,4.369 12.950,4.112 14.136 C 3.985 14.719,3.986 15.803,4.113 16.390 C 4.292 17.217,4.593 17.943,5.012 18.558 C 5.309 18.993,6.102 19.773,6.551 20.072 C 7.168 20.481,7.803 20.749,8.529 20.906 C 8.994 21.006,10.049 21.005,10.520 20.904 C 11.305 20.736,12.064 20.405,12.687 19.961 C 13.389 19.460,14.107 18.602,14.482 17.815 C 14.702 17.355,14.945 16.608,15.001 16.220 C 15.032 16.011,15.057 14.721,15.075 12.492 C 15.091 10.617,15.112 9.074,15.124 9.063 C 15.135 9.051,15.273 9.122,15.430 9.219 C 16.383 9.812,17.660 10.252,18.590 10.308 L 19.000 10.332 19.000 8.792 L 19.000 7.251 18.725 7.226 C 18.157 7.173,17.420 6.899,16.884 6.542 C 16.590 6.346,16.128 5.895,15.878 5.560 C 15.461 5.003,15.117 4.061,15.054 3.310 L 15.028 3.000 13.554 3.000 L 12.080 3.000 12.077 7.570 " fill="#373B4D" stroke="none" fill-rule="evenodd"></path></svg>