<svg width="24" height="24" viewBox="0 0 24 24" fill="none" xmlns="http://www.w3.org/2000/svg"><path d="M7.720 6.121 C 6.803 6.143,6.622 6.158,6.379 6.231 C 5.421 6.519,4.496 7.089,3.740 7.856 C 3.044 8.562,2.572 9.341,2.257 10.300 C 2.135 10.672,2.107 10.830,2.072 11.324 C 2.012 12.165,2.077 13.148,2.220 13.580 C 2.631 14.818,3.227 15.760,4.060 16.489 C 4.815 17.149,5.485 17.495,6.681 17.840 L 7.251 18.005 12.015 17.989 C 17.306 17.972,16.900 17.992,17.800 17.696 C 19.826 17.030,21.323 15.403,21.845 13.300 C 21.965 12.816,21.997 11.473,21.900 10.980 C 21.457 8.721,19.972 7.054,17.724 6.290 L 17.300 6.146 16.320 6.116 C 15.171 6.081,9.255 6.085,7.720 6.121 M16.480 8.117 C 16.988 8.146,17.100 8.165,17.380 8.274 C 18.070 8.542,18.813 9.126,19.230 9.729 C 19.473 10.080,19.728 10.580,19.818 10.880 C 19.907 11.175,19.939 11.980,19.887 12.612 C 19.846 13.106,19.837 13.138,19.643 13.545 C 19.375 14.107,19.136 14.458,18.777 14.817 C 18.312 15.281,17.780 15.605,17.120 15.823 C 16.796 15.930,16.743 15.936,16.020 15.938 C 15.341 15.940,15.226 15.930,14.940 15.847 C 14.113 15.608,13.300 15.025,12.776 14.294 C 12.495 13.904,12.215 13.275,12.137 12.860 C 12.032 12.302,12.040 11.427,12.153 11.020 C 12.371 10.237,12.927 9.378,13.513 8.919 C 13.817 8.681,14.511 8.298,14.820 8.198 C 15.157 8.089,15.597 8.068,16.480 8.117 " fill="#373B4D" stroke="none" fill-rule="evenodd"></path></svg>