<svg width="24" height="24" viewBox="0 0 24 24" fill="none" xmlns="http://www.w3.org/2000/svg"><path d="M7.200 6.060 C 6.493 6.158,5.936 6.330,5.320 6.640 C 3.658 7.475,2.527 8.951,2.111 10.830 C 1.986 11.395,1.986 12.605,2.111 13.170 C 2.653 15.617,4.403 17.361,6.848 17.891 L 7.260 17.980 12.000 17.980 L 16.740 17.980 17.152 17.891 C 19.595 17.361,21.349 15.614,21.887 13.174 C 22.013 12.603,22.013 11.397,21.887 10.826 C 21.342 8.356,19.554 6.602,17.060 6.091 C 16.776 6.033,16.219 6.025,12.160 6.016 C 8.535 6.009,7.501 6.018,7.200 6.060 M16.958 8.120 C 17.621 8.282,18.329 8.683,18.823 9.177 C 19.321 9.675,19.716 10.376,19.887 11.062 C 20.013 11.571,20.013 12.429,19.887 12.938 C 19.531 14.369,18.434 15.486,17.005 15.871 C 16.669 15.962,16.542 15.975,16.000 15.975 C 15.458 15.975,15.331 15.962,14.995 15.871 C 13.806 15.550,12.914 14.799,12.376 13.663 C 12.110 13.100,12.024 12.697,12.024 12.000 C 12.024 11.535,12.042 11.349,12.113 11.062 C 12.215 10.654,12.470 10.088,12.722 9.715 C 13.304 8.853,14.337 8.215,15.433 8.040 C 15.783 7.984,16.572 8.026,16.958 8.120 " fill="#373B4D" stroke="none" fill-rule="evenodd"></path></svg>