<svg width="24" height="24" viewBox="0 0 24 24" fill="none" xmlns="http://www.w3.org/2000/svg"><path d="M6.900 6.124 C 5.903 6.268,4.767 6.860,3.902 7.685 C 3.023 8.525,2.503 9.397,2.171 10.589 C 2.066 10.968,2.063 11.011,2.064 12.000 C 2.065 12.975,2.069 13.037,2.170 13.409 C 2.356 14.096,2.743 14.919,3.164 15.520 C 3.280 15.685,3.547 15.992,3.757 16.203 C 4.615 17.060,5.388 17.489,6.748 17.861 L 7.254 18.000 11.737 18.000 C 14.409 17.999,16.403 17.983,16.674 17.959 C 17.232 17.910,18.027 17.663,18.675 17.339 C 20.237 16.557,21.383 15.123,21.824 13.399 C 21.919 13.027,21.933 12.885,21.949 12.140 C 21.965 11.401,21.957 11.251,21.883 10.894 C 21.550 9.268,20.622 7.888,19.271 7.012 C 18.639 6.602,17.664 6.204,17.088 6.120 C 16.753 6.072,7.239 6.076,6.900 6.124 M17.180 8.198 C 18.299 8.558,19.248 9.453,19.717 10.591 C 19.902 11.042,19.929 11.257,19.911 12.142 C 19.893 13.039,19.886 13.073,19.558 13.742 C 19.040 14.799,18.082 15.578,16.929 15.880 C 16.590 15.969,15.814 15.988,15.291 15.920 C 14.612 15.832,13.834 15.426,13.259 14.860 C 12.858 14.465,12.647 14.167,12.380 13.620 C 12.175 13.198,12.097 12.848,12.058 12.175 C 12.020 11.517,12.081 11.121,12.300 10.582 C 12.712 9.572,13.354 8.876,14.294 8.421 C 14.941 8.108,15.094 8.079,16.060 8.095 C 16.798 8.107,16.934 8.119,17.180 8.198 " fill="#373B4D" stroke="none" fill-rule="evenodd"></path></svg>