<svg width="24" height="24" viewBox="0 0 24 24" fill="none" xmlns="http://www.w3.org/2000/svg"><path d="M3.106 6.140 C 3.071 6.174,3.031 6.268,3.016 6.347 C 2.984 6.518,3.017 8.391,3.053 8.427 C 3.110 8.484,4.142 8.515,6.046 8.517 L 8.073 8.520 8.093 13.150 C 8.104 15.697,8.126 17.839,8.141 17.910 C 8.162 18.005,8.198 18.049,8.275 18.070 C 8.412 18.108,11.108 18.108,11.246 18.070 C 11.333 18.046,11.356 18.010,11.378 17.870 C 11.417 17.616,11.453 8.634,11.420 7.335 C 11.404 6.717,11.376 6.186,11.357 6.155 C 11.328 6.109,10.660 6.098,7.246 6.089 C 3.587 6.078,3.162 6.084,3.106 6.140 M12.680 6.119 C 12.602 6.169,12.571 8.223,12.565 13.843 L 12.560 17.905 12.679 18.019 L 12.798 18.133 14.267 18.108 C 15.639 18.084,15.740 18.078,15.811 18.006 C 15.885 17.932,15.888 17.785,15.910 13.226 L 15.932 8.523 18.365 8.511 L 20.798 8.500 20.887 8.411 C 20.975 8.323,20.976 8.304,20.978 7.239 C 20.980 6.319,20.971 6.151,20.920 6.119 C 20.839 6.068,12.761 6.068,12.680 6.119 " fill="#373B4D" stroke="none" fill-rule="evenodd"></path></svg>