<svg width="24" height="24" viewBox="0 0 24 24" fill="none" xmlns="http://www.w3.org/2000/svg"><path d="M3.106 6.100 C 3.071 6.134,3.031 6.227,3.016 6.305 C 2.983 6.483,3.016 8.389,3.053 8.426 C 3.116 8.489,3.911 8.514,5.930 8.517 L 8.080 8.520 8.080 12.354 C 8.080 16.223,8.106 17.952,8.165 18.048 C 8.214 18.127,11.308 18.124,11.357 18.045 C 11.419 17.945,11.446 15.322,11.433 10.712 C 11.423 7.048,11.410 6.154,11.368 6.112 C 11.326 6.070,10.519 6.058,7.242 6.049 C 3.591 6.039,3.162 6.044,3.106 6.100 M12.668 6.098 C 12.619 6.146,12.604 6.479,12.580 8.068 C 12.545 10.273,12.576 17.866,12.619 17.970 C 12.636 18.009,12.696 18.054,12.754 18.070 C 12.892 18.109,15.588 18.109,15.726 18.070 C 15.784 18.054,15.846 18.009,15.864 17.970 C 15.881 17.932,15.903 15.790,15.911 13.210 L 15.927 8.520 18.377 8.520 C 20.818 8.520,20.828 8.520,20.904 8.436 C 20.975 8.357,20.980 8.277,20.980 7.262 C 20.980 6.397,20.969 6.159,20.925 6.106 C 20.875 6.045,20.537 6.040,16.798 6.040 C 13.291 6.040,12.718 6.048,12.668 6.098 " fill="#373B4D" stroke="none" fill-rule="evenodd"></path></svg>