<svg width="24" height="24" viewBox="0 0 24 24" fill="none" xmlns="http://www.w3.org/2000/svg"><path d="M3.321 6.073 C 2.991 6.114,2.993 6.105,3.010 7.349 C 3.018 7.926,3.037 8.410,3.053 8.426 C 3.114 8.487,4.017 8.515,6.010 8.517 L 8.080 8.520 8.084 12.610 C 8.088 16.993,8.107 17.963,8.192 18.048 C 8.268 18.124,11.252 18.124,11.328 18.048 C 11.420 17.956,11.444 16.340,11.432 11.171 C 11.421 6.718,11.413 6.196,11.357 6.140 C 11.301 6.084,10.875 6.075,7.417 6.062 C 5.285 6.053,3.441 6.059,3.321 6.073 M12.922 6.076 L 12.663 6.100 12.623 6.260 C 12.596 6.364,12.582 8.432,12.581 12.169 L 12.580 17.918 12.671 18.008 L 12.761 18.099 14.191 18.099 C 14.977 18.098,15.668 18.085,15.726 18.069 C 15.784 18.054,15.844 18.009,15.860 17.970 C 15.876 17.932,15.899 15.790,15.910 13.210 L 15.931 8.520 18.323 8.520 C 19.762 8.520,20.755 8.505,20.816 8.481 C 20.876 8.459,20.931 8.397,20.949 8.331 C 20.966 8.270,20.980 7.757,20.980 7.192 C 20.979 6.406,20.967 6.151,20.928 6.112 C 20.886 6.070,20.113 6.059,17.028 6.056 C 14.912 6.054,13.064 6.063,12.922 6.076 " fill="#373B4D" stroke="none" fill-rule="evenodd"></path></svg>