<svg width="24" height="24" viewBox="0 0 24 24" fill="none" xmlns="http://www.w3.org/2000/svg"><path d="M3.550 6.027 C 2.955 6.049,2.992 5.961,3.008 7.313 C 3.014 7.907,3.035 8.408,3.052 8.426 C 3.120 8.494,3.768 8.514,5.889 8.517 L 8.078 8.520 8.089 13.258 C 8.098 17.079,8.110 18.006,8.152 18.048 C 8.192 18.088,8.548 18.103,9.756 18.111 C 11.172 18.122,11.313 18.117,11.364 18.055 C 11.411 17.998,11.422 17.118,11.433 12.404 C 11.440 9.333,11.433 6.655,11.419 6.454 C 11.396 6.123,11.385 6.085,11.307 6.064 C 11.206 6.036,4.188 6.003,3.550 6.027 M12.873 6.028 C 12.767 6.037,12.663 6.072,12.633 6.108 C 12.589 6.161,12.580 7.221,12.580 12.065 C 12.580 17.668,12.584 17.961,12.651 18.029 C 12.717 18.095,12.837 18.100,14.240 18.100 C 15.643 18.100,15.763 18.095,15.829 18.029 C 15.896 17.961,15.901 17.707,15.911 13.239 L 15.922 8.522 18.384 8.511 L 20.847 8.500 20.924 8.406 C 20.994 8.318,21.000 8.235,21.000 7.260 C 21.000 6.285,20.994 6.202,20.924 6.114 L 20.847 6.020 16.954 6.016 C 14.812 6.014,12.976 6.020,12.873 6.028 " fill="#373B4D" stroke="none" fill-rule="evenodd"></path></svg>