<svg width="24" height="24" viewBox="0 0 24 24" fill="none" xmlns="http://www.w3.org/2000/svg"><path d="M3.140 6.047 C 3.096 6.073,3.047 6.113,3.031 6.137 C 3.014 6.160,3.001 6.667,3.001 7.262 C 3.000 8.135,3.011 8.360,3.057 8.422 C 3.112 8.498,3.191 8.500,5.597 8.511 L 8.080 8.522 8.080 13.255 C 8.080 17.789,8.083 17.990,8.153 18.054 C 8.219 18.113,8.390 18.120,9.771 18.120 L 11.315 18.120 11.378 18.031 C 11.433 17.952,11.440 17.319,11.440 12.059 C 11.440 7.041,11.432 6.164,11.383 6.098 C 11.328 6.022,11.234 6.020,7.273 6.011 C 4.294 6.004,3.199 6.014,3.140 6.047 M12.640 6.080 C 12.561 6.159,12.560 6.213,12.560 12.060 C 12.560 17.907,12.561 17.961,12.640 18.040 C 12.717 18.117,12.773 18.120,14.240 18.120 C 15.707 18.120,15.763 18.117,15.840 18.040 C 15.919 17.961,15.920 17.907,15.920 13.240 L 15.920 8.520 18.380 8.520 C 20.787 8.520,20.842 8.518,20.920 8.440 C 20.996 8.364,21.000 8.307,21.000 7.260 C 21.000 6.213,20.996 6.156,20.920 6.080 C 20.841 6.001,20.787 6.000,16.780 6.000 C 12.773 6.000,12.719 6.001,12.640 6.080 " fill="#373B4D" stroke="none" fill-rule="evenodd"></path></svg>