<svg width="24" height="24" viewBox="0 0 24 24" fill="none" xmlns="http://www.w3.org/2000/svg"><path d="M3.321 6.113 C 2.992 6.153,2.993 6.148,3.010 7.369 C 3.018 7.935,3.037 8.410,3.052 8.425 C 3.109 8.482,4.211 8.516,6.104 8.518 L 8.067 8.520 8.091 13.204 C 8.112 17.278,8.123 17.899,8.176 17.979 C 8.234 18.069,8.258 18.072,9.088 18.099 C 9.557 18.114,10.246 18.112,10.620 18.093 L 11.299 18.060 11.356 17.942 C 11.403 17.842,11.413 16.954,11.416 12.182 C 11.418 9.079,11.406 6.456,11.388 6.354 C 11.368 6.238,11.331 6.157,11.289 6.141 C 11.198 6.107,3.597 6.080,3.321 6.113 M13.080 6.116 L 12.660 6.140 12.632 6.440 C 12.616 6.605,12.591 9.248,12.576 12.312 L 12.549 17.885 12.665 18.007 L 12.780 18.130 14.200 18.108 C 15.004 18.096,15.665 18.069,15.725 18.046 C 15.790 18.021,15.840 17.964,15.856 17.893 C 15.871 17.831,15.894 15.697,15.907 13.150 L 15.931 8.521 18.371 8.510 L 20.811 8.500 20.896 8.387 C 20.976 8.279,20.980 8.229,20.980 7.239 C 20.980 6.443,20.968 6.192,20.928 6.152 C 20.886 6.110,20.157 6.099,17.188 6.096 C 15.160 6.094,13.311 6.103,13.080 6.116 " fill="#373B4D" stroke="none" fill-rule="evenodd"></path></svg>