<svg width="24" height="24" viewBox="0 0 24 24" fill="none" xmlns="http://www.w3.org/2000/svg"><path d="M7.900 2.554 C 7.697 2.652,7.382 2.975,7.302 3.169 C 7.258 3.275,7.232 3.530,7.213 4.043 C 7.196 4.509,7.172 4.772,7.144 4.781 C 7.120 4.788,6.219 4.813,5.142 4.837 L 3.184 4.880 3.030 4.987 C 2.381 5.437,2.256 6.213,2.745 6.757 C 2.847 6.871,3.008 7.017,3.102 7.082 L 3.274 7.200 6.155 7.200 L 9.035 7.200 8.955 7.490 C 8.703 8.409,7.903 10.619,7.837 10.578 C 7.818 10.567,7.588 10.211,7.325 9.789 C 6.788 8.926,6.622 8.713,6.394 8.597 C 6.189 8.492,5.787 8.456,5.528 8.518 C 5.004 8.644,4.745 9.003,4.693 9.677 L 4.669 9.983 4.981 10.542 C 5.374 11.247,6.060 12.392,6.341 12.812 L 6.556 13.134 6.251 13.577 C 5.538 14.611,4.982 15.302,4.000 16.374 C 2.917 17.556,2.761 17.735,2.599 17.975 C 2.453 18.190,2.440 18.231,2.441 18.475 C 2.442 18.800,2.538 19.031,2.772 19.273 C 3.156 19.670,3.651 19.774,4.066 19.545 C 4.605 19.248,6.206 17.605,7.352 16.172 C 7.957 15.417,8.107 15.251,8.160 15.280 C 8.197 15.300,8.405 15.461,8.623 15.639 C 9.154 16.071,9.300 16.140,9.680 16.139 C 9.907 16.138,10.019 16.117,10.140 16.053 C 10.496 15.865,10.770 15.467,10.826 15.061 C 10.874 14.713,10.721 14.448,9.957 13.560 L 9.445 12.963 9.665 12.472 C 10.263 11.141,11.054 8.941,11.364 7.751 L 11.496 7.242 11.658 7.223 C 11.747 7.212,12.168 7.194,12.593 7.182 C 13.560 7.154,13.667 7.129,13.939 6.863 C 14.318 6.493,14.443 6.071,14.301 5.644 C 14.217 5.392,14.093 5.239,13.786 5.013 L 13.551 4.840 12.446 4.840 C 11.838 4.840,10.951 4.828,10.475 4.814 L 9.610 4.788 9.589 4.084 C 9.576 3.697,9.545 3.308,9.520 3.220 C 9.457 3.006,9.066 2.621,8.854 2.564 C 8.769 2.541,8.556 2.512,8.380 2.500 C 8.114 2.480,8.033 2.489,7.900 2.554 M15.059 9.794 C 14.821 9.933,14.642 10.174,14.271 10.860 C 13.590 12.116,10.683 17.952,9.897 19.640 C 9.684 20.097,9.664 20.164,9.663 20.420 C 9.661 21.024,10.085 21.485,10.702 21.549 C 11.341 21.615,11.733 21.218,12.449 19.781 L 12.739 19.200 15.599 19.200 L 18.460 19.201 18.792 19.856 C 19.175 20.612,19.544 21.193,19.734 21.338 C 20.156 21.660,20.745 21.625,21.158 21.254 C 21.455 20.987,21.538 20.808,21.537 20.440 C 21.537 20.200,21.514 20.088,21.424 19.880 C 21.051 19.021,17.626 12.144,16.897 10.788 C 16.398 9.861,16.260 9.744,15.620 9.700 C 15.273 9.677,15.253 9.680,15.059 9.794 M16.404 15.180 C 16.799 15.972,17.117 16.646,17.111 16.678 C 17.105 16.710,17.055 16.749,17.000 16.764 C 16.945 16.780,16.296 16.794,15.558 16.796 C 14.469 16.799,14.201 16.789,14.139 16.744 C 14.065 16.690,14.068 16.677,14.215 16.334 C 14.398 15.910,15.338 14.053,15.496 13.804 C 15.584 13.667,15.617 13.641,15.647 13.684 C 15.668 13.715,16.009 14.388,16.404 15.180 " fill="#373B4D" stroke="none" fill-rule="evenodd"></path></svg>