<svg width="24" height="24" viewBox="0 0 24 24" fill="none" xmlns="http://www.w3.org/2000/svg"><path d="M7.889 2.602 C 7.650 2.724,7.370 3.055,7.299 3.300 C 7.267 3.410,7.216 3.767,7.185 4.094 C 7.154 4.420,7.113 4.703,7.094 4.721 C 7.043 4.772,5.913 4.834,4.447 4.865 L 3.155 4.893 2.905 5.136 C 2.613 5.421,2.512 5.614,2.488 5.926 C 2.461 6.289,2.556 6.507,2.907 6.880 L 3.208 7.200 6.122 7.200 L 9.036 7.200 8.975 7.410 C 8.837 7.892,8.117 9.955,7.939 10.378 L 7.872 10.536 7.795 10.438 C 7.752 10.384,7.529 10.070,7.300 9.740 C 6.603 8.736,6.362 8.520,5.936 8.520 C 5.699 8.520,5.318 8.613,5.177 8.706 C 4.948 8.856,4.739 9.295,4.694 9.721 C 4.672 9.930,4.682 9.963,4.888 10.361 C 5.118 10.805,6.079 12.423,6.379 12.869 L 6.557 13.134 6.372 13.397 C 5.707 14.341,4.995 15.225,3.840 16.540 C 2.601 17.951,2.411 18.225,2.453 18.536 C 2.508 18.935,2.822 19.368,3.180 19.538 C 3.566 19.722,3.895 19.655,4.370 19.295 C 4.766 18.995,5.951 17.779,6.799 16.799 C 7.648 15.820,8.080 15.360,8.152 15.360 C 8.178 15.360,8.401 15.497,8.649 15.665 C 8.897 15.833,9.163 15.998,9.240 16.030 C 9.428 16.110,9.992 16.107,10.151 16.025 C 10.379 15.907,10.712 15.454,10.799 15.144 C 10.894 14.804,10.708 14.466,9.882 13.477 L 9.451 12.961 9.721 12.331 C 10.238 11.121,11.210 8.382,11.425 7.530 L 11.498 7.240 11.763 7.240 C 12.166 7.240,13.065 7.161,13.377 7.097 C 13.529 7.067,13.724 6.995,13.809 6.939 C 14.002 6.811,14.257 6.424,14.319 6.162 C 14.410 5.787,14.220 5.391,13.776 5.025 L 13.551 4.840 11.881 4.840 C 10.963 4.840,10.077 4.829,9.912 4.815 L 9.612 4.789 9.587 4.185 C 9.554 3.406,9.465 3.068,9.234 2.852 C 9.057 2.687,8.709 2.560,8.374 2.536 C 8.103 2.517,8.037 2.526,7.889 2.602 M15.222 9.749 C 15.048 9.775,14.701 10.159,14.415 10.644 C 13.772 11.733,10.682 17.900,9.917 19.622 C 9.715 20.076,9.705 20.116,9.706 20.430 C 9.708 20.723,9.721 20.781,9.825 20.949 C 10.067 21.340,10.629 21.620,10.982 21.525 C 11.226 21.459,11.483 21.276,11.667 21.037 C 11.919 20.709,12.257 20.154,12.512 19.651 L 12.740 19.200 15.600 19.200 L 18.460 19.200 18.708 19.690 C 19.053 20.373,19.486 21.042,19.717 21.250 C 20.056 21.555,20.456 21.606,20.873 21.397 C 21.172 21.248,21.378 21.017,21.468 20.731 C 21.578 20.382,21.506 20.089,21.089 19.202 C 20.625 18.214,17.591 12.126,17.122 11.240 C 16.599 10.255,16.438 10.020,16.197 9.899 C 16.090 9.844,15.881 9.782,15.731 9.761 C 15.452 9.720,15.423 9.720,15.222 9.749 M16.038 14.499 C 16.430 15.237,16.993 16.434,17.025 16.596 C 17.044 16.689,17.032 16.713,16.954 16.736 C 16.806 16.780,14.810 16.810,14.504 16.773 C 14.135 16.729,14.112 16.687,14.259 16.334 C 14.424 15.936,15.163 14.436,15.386 14.046 C 15.616 13.644,15.567 13.610,16.038 14.499 " fill="#373B4D" stroke="none" fill-rule="evenodd"></path></svg>