<svg width="24" height="24" viewBox="0 0 24 24" fill="none" xmlns="http://www.w3.org/2000/svg"><path d="M7.963 2.526 C 7.766 2.583,7.338 3.024,7.286 3.223 C 7.263 3.309,7.227 3.683,7.206 4.054 C 7.186 4.424,7.153 4.742,7.134 4.761 C 7.115 4.779,6.218 4.815,5.140 4.840 L 3.180 4.887 3.028 4.990 C 2.566 5.305,2.345 5.854,2.497 6.312 C 2.587 6.583,2.751 6.801,3.030 7.019 L 3.260 7.200 6.147 7.200 L 9.035 7.200 8.956 7.490 C 8.748 8.255,7.915 10.560,7.847 10.560 C 7.832 10.560,7.612 10.235,7.360 9.838 C 6.565 8.590,6.466 8.504,5.840 8.503 C 5.549 8.503,5.470 8.518,5.294 8.610 C 4.918 8.806,4.742 9.126,4.693 9.704 L 4.669 9.990 4.981 10.545 C 5.391 11.273,6.078 12.418,6.345 12.817 L 6.556 13.134 6.291 13.517 C 5.524 14.625,4.994 15.277,3.702 16.700 C 2.607 17.907,2.470 18.093,2.448 18.402 C 2.414 18.861,2.695 19.326,3.132 19.536 C 3.756 19.836,4.096 19.669,5.281 18.482 C 5.988 17.773,6.623 17.062,7.438 16.066 C 7.777 15.651,8.078 15.303,8.106 15.292 C 8.134 15.282,8.351 15.425,8.588 15.611 C 9.174 16.071,9.305 16.133,9.680 16.133 C 10.044 16.133,10.236 16.048,10.471 15.781 C 10.664 15.562,10.749 15.391,10.810 15.104 C 10.848 14.921,10.844 14.862,10.783 14.703 C 10.698 14.481,10.399 14.073,9.849 13.430 L 9.447 12.960 9.648 12.510 C 10.258 11.150,11.092 8.817,11.400 7.613 L 11.494 7.246 11.777 7.224 C 11.933 7.212,12.354 7.191,12.714 7.178 C 13.531 7.147,13.691 7.104,13.951 6.838 C 14.291 6.491,14.418 6.114,14.323 5.732 C 14.255 5.457,14.119 5.272,13.815 5.042 L 13.548 4.840 12.264 4.840 C 11.558 4.840,10.670 4.828,10.290 4.814 L 9.600 4.787 9.599 4.364 C 9.598 4.131,9.582 3.772,9.562 3.566 C 9.532 3.257,9.506 3.164,9.414 3.031 C 9.272 2.826,8.990 2.611,8.804 2.564 C 8.566 2.504,8.109 2.483,7.963 2.526 M15.138 9.754 C 14.943 9.844,14.703 10.109,14.487 10.472 C 14.075 11.166,11.372 16.544,10.184 19.034 C 9.697 20.053,9.628 20.263,9.679 20.570 C 9.729 20.872,9.777 20.977,9.961 21.176 C 10.154 21.386,10.399 21.510,10.688 21.544 C 11.309 21.617,11.707 21.230,12.389 19.891 L 12.740 19.201 15.600 19.201 L 18.460 19.201 18.780 19.829 C 19.143 20.540,19.585 21.236,19.749 21.352 C 19.903 21.461,20.213 21.560,20.400 21.560 C 20.782 21.560,21.271 21.249,21.441 20.898 C 21.560 20.653,21.561 20.224,21.444 19.930 C 21.217 19.356,17.414 11.713,16.842 10.680 C 16.399 9.880,16.248 9.762,15.600 9.705 C 15.353 9.684,15.271 9.692,15.138 9.754 M15.884 14.150 C 16.022 14.409,16.356 15.079,16.626 15.640 C 17.061 16.544,17.110 16.667,17.057 16.720 C 16.971 16.806,14.176 16.811,14.123 16.725 C 14.068 16.636,14.170 16.394,14.756 15.229 C 15.309 14.129,15.556 13.680,15.606 13.680 C 15.621 13.680,15.746 13.892,15.884 14.150 " fill="#373B4D" stroke="none" fill-rule="evenodd"></path></svg>