<svg width="24" height="24" viewBox="0 0 24 24" fill="none" xmlns="http://www.w3.org/2000/svg"><path d="M7.774 2.618 C 7.527 2.784,7.333 3.010,7.276 3.200 C 7.252 3.277,7.223 3.669,7.211 4.070 L 7.189 4.800 6.445 4.802 C 6.035 4.803,5.136 4.819,4.447 4.837 L 3.194 4.871 2.981 5.018 C 2.621 5.266,2.440 5.599,2.440 6.015 C 2.440 6.451,2.627 6.755,3.091 7.074 L 3.274 7.200 6.155 7.200 L 9.035 7.200 8.956 7.490 C 8.836 7.928,8.234 9.722,8.042 10.210 C 7.949 10.447,7.858 10.631,7.839 10.619 C 7.806 10.599,7.616 10.289,7.057 9.340 C 6.645 8.644,6.416 8.480,5.852 8.480 C 5.567 8.481,5.461 8.499,5.298 8.575 C 4.918 8.752,4.725 9.078,4.691 9.602 L 4.668 9.956 4.996 10.562 C 5.369 11.252,5.821 12.012,6.255 12.679 L 6.554 13.137 6.210 13.639 C 5.439 14.764,4.928 15.394,3.820 16.580 C 2.465 18.031,2.424 18.088,2.423 18.500 C 2.423 18.810,2.536 19.059,2.790 19.314 C 3.004 19.528,3.338 19.680,3.594 19.680 C 4.045 19.680,4.336 19.465,5.522 18.255 C 6.383 17.378,6.764 16.943,7.366 16.153 C 7.958 15.378,8.074 15.240,8.134 15.241 C 8.159 15.242,8.360 15.404,8.580 15.601 C 9.091 16.058,9.285 16.160,9.649 16.160 C 9.966 16.160,10.143 16.097,10.388 15.895 C 10.717 15.626,10.890 15.173,10.820 14.762 C 10.786 14.560,10.495 14.158,9.880 13.460 L 9.444 12.966 9.736 12.313 C 10.384 10.859,11.042 9.021,11.345 7.816 L 11.497 7.211 12.458 7.188 C 12.987 7.175,13.487 7.145,13.568 7.121 C 13.817 7.047,14.097 6.794,14.236 6.516 C 14.339 6.310,14.360 6.220,14.360 5.992 C 14.360 5.548,14.200 5.271,13.786 5.000 L 13.541 4.840 12.920 4.840 C 12.579 4.840,11.695 4.828,10.955 4.814 L 9.610 4.787 9.592 4.058 C 9.575 3.363,9.569 3.318,9.464 3.105 C 9.334 2.838,9.081 2.616,8.815 2.537 C 8.712 2.505,8.481 2.480,8.303 2.480 C 8.000 2.480,7.966 2.489,7.774 2.618 M15.090 9.750 C 14.854 9.880,14.682 10.082,14.439 10.513 C 14.094 11.125,9.864 19.607,9.742 19.931 C 9.550 20.441,9.629 20.875,9.978 21.224 C 10.403 21.648,11.057 21.693,11.485 21.327 C 11.714 21.130,11.964 20.735,12.385 19.904 L 12.740 19.201 15.601 19.200 L 18.461 19.200 18.715 19.710 C 19.347 20.983,19.662 21.410,20.048 21.517 C 20.804 21.727,21.562 21.191,21.565 20.442 C 21.566 20.249,21.532 20.124,21.376 19.753 C 21.168 19.259,17.911 12.730,17.099 11.180 C 16.503 10.042,16.441 9.947,16.203 9.808 C 16.044 9.715,15.971 9.700,15.621 9.690 C 15.296 9.681,15.195 9.692,15.090 9.750 M15.769 13.890 C 16.044 14.364,17.120 16.570,17.120 16.660 C 17.120 16.711,17.092 16.762,17.057 16.776 C 16.960 16.813,14.147 16.803,14.088 16.766 C 14.047 16.740,14.053 16.688,14.119 16.512 C 14.289 16.058,15.537 13.641,15.602 13.640 C 15.614 13.640,15.689 13.752,15.769 13.890 " fill="#373B4D" stroke="none" fill-rule="evenodd"></path></svg>