<svg width="24" height="24" viewBox="0 0 24 24" fill="none" xmlns="http://www.w3.org/2000/svg"><path d="M8.160 2.436 C 7.799 2.511,7.491 2.748,7.333 3.071 C 7.223 3.293,7.220 3.323,7.206 4.044 L 7.193 4.788 5.241 4.809 L 3.290 4.830 3.041 4.963 C 2.170 5.427,2.211 6.644,3.112 7.087 L 3.300 7.180 6.167 7.191 L 9.034 7.203 8.934 7.571 C 8.641 8.658,7.938 10.640,7.846 10.640 C 7.805 10.640,7.439 10.040,7.141 9.482 C 6.795 8.836,6.692 8.711,6.384 8.559 C 6.169 8.453,6.089 8.436,5.824 8.436 C 5.463 8.436,5.259 8.516,5.021 8.751 C 4.784 8.984,4.661 9.284,4.663 9.620 C 4.664 9.855,4.687 9.949,4.806 10.201 C 5.072 10.769,5.814 12.027,6.373 12.860 L 6.554 13.131 6.158 13.723 C 5.370 14.902,4.815 15.571,3.511 16.914 C 2.681 17.769,2.550 17.921,2.477 18.116 C 2.313 18.550,2.425 18.989,2.796 19.360 C 3.041 19.605,3.297 19.694,3.697 19.674 C 3.957 19.661,4.014 19.642,4.224 19.503 C 4.513 19.310,5.567 18.283,6.202 17.574 C 6.762 16.949,7.358 16.208,7.761 15.636 C 7.922 15.407,8.068 15.204,8.085 15.184 C 8.103 15.164,8.334 15.357,8.599 15.613 C 9.026 16.024,9.109 16.086,9.308 16.144 C 9.741 16.270,10.173 16.151,10.513 15.811 C 10.739 15.585,10.840 15.334,10.840 15.000 C 10.840 14.558,10.797 14.490,9.870 13.444 L 9.439 12.959 9.496 12.829 C 9.526 12.758,9.645 12.502,9.760 12.260 C 10.401 10.903,11.019 9.168,11.362 7.753 L 11.495 7.207 12.498 7.193 C 13.637 7.177,13.728 7.156,14.032 6.843 C 14.607 6.251,14.476 5.345,13.759 4.963 L 13.510 4.830 11.559 4.809 L 9.608 4.788 9.594 4.044 C 9.580 3.324,9.576 3.293,9.468 3.072 C 9.406 2.946,9.298 2.795,9.228 2.735 C 8.950 2.500,8.482 2.369,8.160 2.436 M15.360 9.637 C 15.133 9.681,14.795 9.888,14.669 10.060 C 14.513 10.272,9.891 19.523,9.722 19.960 C 9.614 20.240,9.595 20.336,9.612 20.507 C 9.671 21.075,10.109 21.520,10.676 21.587 C 10.817 21.604,10.953 21.586,11.159 21.523 C 11.600 21.389,11.692 21.274,12.260 20.151 L 12.740 19.201 15.600 19.201 L 18.460 19.201 18.940 20.151 C 19.508 21.274,19.600 21.389,20.041 21.523 C 20.247 21.586,20.383 21.604,20.524 21.587 C 21.091 21.520,21.529 21.075,21.588 20.507 C 21.605 20.337,21.586 20.240,21.480 19.966 C 21.243 19.353,16.611 10.130,16.449 9.949 C 16.264 9.742,15.679 9.574,15.360 9.637 M16.416 15.117 C 16.847 15.973,17.200 16.702,17.200 16.737 C 17.200 16.793,17.035 16.800,15.607 16.800 C 14.730 16.800,14.002 16.788,13.988 16.774 C 13.957 16.744,15.555 13.560,15.601 13.560 C 15.618 13.560,15.985 14.260,16.416 15.117 " fill="#373B4D" stroke="none" fill-rule="evenodd"></path></svg>