<svg width="24" height="24" viewBox="0 0 24 24" fill="none" xmlns="http://www.w3.org/2000/svg"><path d="M7.863 2.563 C 7.636 2.687,7.330 3.017,7.281 3.191 C 7.257 3.273,7.227 3.665,7.213 4.062 L 7.188 4.784 5.192 4.828 L 3.196 4.872 3.038 4.981 C 2.610 5.278,2.410 5.667,2.451 6.120 C 2.484 6.492,2.692 6.797,3.107 7.084 L 3.274 7.200 6.154 7.200 L 9.034 7.200 8.994 7.350 C 8.737 8.311,7.927 10.600,7.842 10.600 C 7.828 10.600,7.592 10.231,7.319 9.779 C 6.763 8.858,6.568 8.629,6.264 8.539 C 5.805 8.403,5.299 8.499,5.023 8.775 C 4.813 8.985,4.720 9.235,4.694 9.660 L 4.674 9.980 4.981 10.540 C 5.364 11.237,5.865 12.078,6.256 12.679 L 6.554 13.137 6.250 13.579 C 5.452 14.740,4.968 15.334,3.758 16.643 C 2.455 18.054,2.425 18.096,2.431 18.511 C 2.435 18.820,2.539 19.053,2.782 19.295 C 3.096 19.610,3.505 19.739,3.864 19.639 C 4.160 19.556,4.485 19.287,5.400 18.365 C 6.377 17.381,6.639 17.085,7.469 16.023 C 7.794 15.606,8.081 15.258,8.106 15.250 C 8.132 15.242,8.330 15.390,8.546 15.578 C 8.763 15.766,9.046 15.974,9.176 16.040 C 9.817 16.366,10.558 16.015,10.776 15.282 C 10.932 14.756,10.833 14.556,9.881 13.467 L 9.445 12.968 9.725 12.334 C 10.424 10.755,11.038 9.020,11.408 7.580 L 11.500 7.220 12.452 7.191 C 12.975 7.175,13.479 7.142,13.572 7.118 C 13.805 7.056,14.201 6.652,14.293 6.382 C 14.434 5.968,14.346 5.517,14.071 5.246 C 13.977 5.154,13.819 5.025,13.720 4.959 L 13.540 4.840 12.656 4.840 C 12.171 4.840,11.286 4.828,10.691 4.814 L 9.609 4.787 9.593 4.064 C 9.575 3.253,9.537 3.113,9.257 2.825 C 9.024 2.586,8.839 2.514,8.403 2.495 C 8.067 2.480,8.001 2.488,7.863 2.563 M15.080 9.769 C 14.741 9.951,14.590 10.201,13.367 12.615 C 11.582 16.137,9.735 19.914,9.679 20.154 C 9.512 20.881,10.054 21.560,10.800 21.559 C 11.429 21.558,11.742 21.212,12.505 19.670 L 12.738 19.200 15.599 19.200 L 18.460 19.200 18.787 19.850 C 19.126 20.524,19.350 20.898,19.588 21.191 C 19.984 21.679,20.771 21.681,21.244 21.196 C 21.558 20.874,21.636 20.480,21.479 20.014 C 21.333 19.582,17.835 12.548,16.853 10.710 C 16.385 9.835,16.266 9.734,15.659 9.697 C 15.288 9.674,15.247 9.679,15.080 9.769 M16.417 15.180 C 16.753 15.862,17.051 16.479,17.079 16.550 C 17.178 16.803,17.192 16.800,15.645 16.799 C 14.883 16.799,14.220 16.788,14.170 16.775 C 14.115 16.760,14.080 16.720,14.080 16.670 C 14.080 16.531,15.179 14.308,15.498 13.803 L 15.610 13.626 15.708 13.783 C 15.762 13.869,16.081 14.498,16.417 15.180 " fill="#373B4D" stroke="none" fill-rule="evenodd"></path></svg>