<svg width="24" height="24" viewBox="0 0 24 24" fill="none" xmlns="http://www.w3.org/2000/svg"><path d="M7.794 2.678 C 7.406 2.938,7.286 3.217,7.180 4.104 C 7.143 4.410,7.092 4.682,7.066 4.709 C 7.002 4.776,6.053 4.833,4.451 4.866 L 3.156 4.893 2.878 5.191 C 2.327 5.780,2.345 6.256,2.942 6.910 L 3.206 7.200 5.037 7.200 C 6.043 7.200,7.354 7.212,7.949 7.226 L 9.031 7.253 8.740 8.116 C 8.340 9.301,7.963 10.341,7.904 10.421 C 7.862 10.479,7.781 10.388,7.294 9.733 C 6.452 8.602,6.272 8.470,5.690 8.556 C 5.528 8.580,5.345 8.627,5.282 8.659 C 5.003 8.803,4.750 9.272,4.694 9.749 C 4.670 9.952,4.678 9.974,4.960 10.489 C 5.289 11.091,6.115 12.476,6.380 12.871 L 6.556 13.133 6.471 13.257 C 5.955 14.000,5.102 15.067,3.940 16.420 C 3.050 17.455,2.631 17.983,2.512 18.215 C 2.410 18.415,2.436 18.607,2.608 18.929 C 2.777 19.246,2.999 19.459,3.264 19.558 C 3.571 19.673,3.706 19.661,4.045 19.492 C 4.305 19.362,4.446 19.239,5.243 18.442 C 5.740 17.946,6.507 17.135,6.948 16.640 C 8.018 15.439,8.055 15.400,8.147 15.400 C 8.190 15.400,8.395 15.510,8.603 15.644 C 9.167 16.010,9.333 16.079,9.645 16.080 C 9.791 16.080,9.970 16.068,10.044 16.053 C 10.338 15.994,10.807 15.337,10.807 14.983 C 10.807 14.694,10.655 14.445,9.909 13.508 L 9.470 12.957 9.832 12.048 C 10.442 10.515,11.236 8.263,11.422 7.536 L 11.495 7.252 12.077 7.227 C 12.766 7.197,13.415 7.105,13.651 7.004 C 13.865 6.912,14.100 6.654,14.232 6.365 C 14.435 5.922,14.328 5.573,13.848 5.110 L 13.568 4.840 11.794 4.840 C 10.818 4.839,9.925 4.828,9.810 4.814 L 9.600 4.789 9.600 4.424 C 9.599 3.957,9.504 3.323,9.405 3.130 C 9.220 2.771,8.882 2.593,8.340 2.569 C 7.991 2.554,7.974 2.557,7.794 2.678 M15.300 9.759 C 15.109 9.802,15.019 9.865,14.830 10.090 C 14.540 10.433,14.349 10.743,13.882 11.624 C 12.890 13.494,10.406 18.507,9.936 19.586 C 9.774 19.959,9.746 20.062,9.729 20.361 C 9.705 20.785,9.758 20.917,10.063 21.196 C 10.415 21.518,10.839 21.606,11.190 21.431 C 11.538 21.257,12.031 20.587,12.531 19.610 L 12.740 19.200 15.601 19.200 L 18.462 19.200 18.633 19.545 C 18.854 19.990,19.239 20.628,19.493 20.969 C 19.766 21.336,20.062 21.520,20.381 21.520 C 20.830 21.520,21.335 21.136,21.463 20.696 C 21.528 20.474,21.528 20.444,21.466 20.203 C 21.330 19.685,20.838 18.638,19.013 14.986 C 16.887 10.734,16.556 10.135,16.233 9.946 C 15.978 9.798,15.530 9.708,15.300 9.759 M15.737 13.955 C 15.866 14.159,16.648 15.724,16.845 16.172 C 17.046 16.629,17.047 16.707,16.850 16.747 C 16.768 16.763,16.178 16.778,15.540 16.779 C 14.227 16.780,14.175 16.771,14.212 16.539 C 14.251 16.302,15.343 14.055,15.509 13.870 C 15.599 13.770,15.627 13.781,15.737 13.955 " fill="#373B4D" stroke="none" fill-rule="evenodd"></path></svg>