<svg width="24" height="24" viewBox="0 0 24 24" fill="none" xmlns="http://www.w3.org/2000/svg"><path d="M7.730 2.676 C 7.493 2.863,7.295 3.150,7.263 3.352 C 7.242 3.479,7.161 4.523,7.160 4.671 C 7.160 4.699,7.117 4.738,7.064 4.758 C 7.012 4.778,6.116 4.816,5.074 4.842 L 3.180 4.890 2.976 5.042 C 2.577 5.339,2.382 5.800,2.477 6.224 C 2.540 6.503,2.720 6.764,3.015 7.003 L 3.259 7.200 6.147 7.200 L 9.035 7.200 8.955 7.490 C 8.791 8.083,8.169 9.848,7.930 10.400 L 7.851 10.580 7.343 9.806 C 6.804 8.983,6.540 8.662,6.331 8.574 C 6.124 8.487,5.511 8.502,5.319 8.600 C 4.945 8.791,4.740 9.153,4.693 9.702 L 4.669 9.996 4.982 10.548 C 5.390 11.268,6.135 12.506,6.370 12.857 L 6.556 13.134 6.291 13.517 C 5.574 14.549,4.995 15.261,3.683 16.720 C 2.444 18.099,2.348 18.264,2.494 18.767 C 2.613 19.176,2.914 19.474,3.352 19.618 C 3.820 19.772,4.198 19.554,5.204 18.552 C 5.892 17.866,6.417 17.284,7.319 16.209 C 8.216 15.138,8.050 15.202,8.680 15.682 C 8.889 15.841,9.132 16.005,9.220 16.045 C 9.451 16.151,9.919 16.147,10.147 16.036 C 10.464 15.883,10.770 15.429,10.824 15.033 C 10.867 14.723,10.652 14.372,9.830 13.409 L 9.445 12.958 9.600 12.619 C 10.151 11.421,11.049 8.930,11.383 7.673 L 11.496 7.247 11.918 7.223 C 13.657 7.126,13.681 7.121,13.997 6.776 C 14.524 6.199,14.460 5.551,13.827 5.055 L 13.552 4.840 12.122 4.840 C 11.336 4.840,10.447 4.828,10.146 4.814 L 9.600 4.788 9.600 4.344 C 9.599 3.339,9.496 3.002,9.107 2.735 C 8.856 2.562,8.694 2.520,8.274 2.520 C 7.931 2.520,7.925 2.522,7.730 2.676 M15.269 9.723 C 15.054 9.758,14.854 9.936,14.594 10.324 C 14.105 11.052,10.092 19.077,9.760 19.990 C 9.576 20.496,9.712 21.002,10.114 21.308 C 10.322 21.468,10.673 21.576,10.897 21.550 C 11.414 21.492,11.787 21.068,12.427 19.814 L 12.740 19.201 15.600 19.201 L 18.460 19.200 18.708 19.690 C 18.992 20.254,19.344 20.849,19.568 21.146 C 19.770 21.413,20.032 21.536,20.400 21.537 C 20.820 21.537,21.238 21.277,21.423 20.898 C 21.519 20.700,21.528 20.646,21.512 20.349 C 21.494 20.041,21.474 19.980,21.203 19.400 C 20.738 18.409,17.234 11.393,16.912 10.810 C 16.576 10.201,16.383 9.954,16.152 9.836 C 15.971 9.744,15.506 9.684,15.269 9.723 M15.928 14.250 C 16.273 14.895,17.023 16.458,17.061 16.609 C 17.080 16.684,17.067 16.716,17.013 16.737 C 16.899 16.781,14.945 16.809,14.520 16.773 C 14.153 16.741,14.140 16.736,14.128 16.639 C 14.112 16.497,15.512 13.680,15.599 13.680 C 15.613 13.680,15.761 13.937,15.928 14.250 " fill="#373B4D" stroke="none" fill-rule="evenodd"></path></svg>