<svg width="24" height="24" viewBox="0 0 24 24" fill="none" xmlns="http://www.w3.org/2000/svg"><path d="M11.200 2.479 C 10.563 2.503,10.479 2.515,10.274 2.608 C 9.945 2.759,9.689 3.133,9.098 4.324 L 8.868 4.788 8.244 4.814 C 7.901 4.828,6.907 4.840,6.035 4.840 L 4.451 4.840 4.190 5.041 C 4.046 5.152,3.882 5.313,3.826 5.399 C 3.430 5.996,3.719 6.744,4.492 7.125 L 4.747 7.251 4.773 10.012 C 4.788 11.531,4.800 14.328,4.800 16.228 L 4.800 19.683 4.905 19.891 C 5.215 20.509,5.624 20.957,6.243 21.358 L 6.618 21.600 11.930 21.600 L 17.243 21.600 17.556 21.447 C 18.151 21.155,18.605 20.728,18.984 20.104 L 19.188 19.768 19.214 14.614 C 19.229 11.779,19.252 8.959,19.266 8.348 L 19.291 7.235 19.531 7.115 C 19.839 6.959,20.150 6.669,20.253 6.440 C 20.354 6.218,20.360 5.809,20.266 5.586 C 20.170 5.359,19.971 5.127,19.796 5.038 C 19.686 4.982,19.500 4.948,19.151 4.921 C 18.680 4.883,16.126 4.800,15.459 4.800 L 15.138 4.800 14.905 4.330 C 14.630 3.776,14.276 3.161,14.109 2.948 C 14.044 2.865,13.892 2.717,13.772 2.618 L 13.553 2.440 12.726 2.447 C 12.272 2.450,11.585 2.465,11.200 2.479 M10.000 8.569 C 10.205 8.631,10.470 8.826,10.544 8.968 C 10.590 9.057,10.618 9.282,10.643 9.776 C 10.677 10.441,10.759 15.234,10.760 16.559 L 10.760 17.217 10.470 17.501 C 9.826 18.130,9.390 18.132,8.733 17.508 L 8.440 17.230 8.440 13.222 L 8.440 9.214 8.663 8.968 C 8.944 8.657,9.074 8.564,9.289 8.524 C 9.483 8.488,9.794 8.507,10.000 8.569 M14.800 8.569 C 15.005 8.631,15.270 8.826,15.344 8.968 C 15.390 9.057,15.418 9.282,15.443 9.776 C 15.477 10.441,15.559 15.234,15.560 16.559 L 15.560 17.217 15.270 17.501 C 14.624 18.132,14.176 18.132,13.530 17.501 L 13.240 17.217 13.240 13.215 L 13.240 9.214 13.463 8.968 C 13.744 8.657,13.874 8.564,14.089 8.524 C 14.283 8.488,14.594 8.507,14.800 8.569 " fill="#373B4D" stroke="none" fill-rule="evenodd"></path></svg>