<svg width="24" height="24" viewBox="0 0 24 24" fill="none" xmlns="http://www.w3.org/2000/svg"><path d="M11.020 2.478 C 10.171 2.516,10.037 2.604,9.571 3.428 C 9.437 3.666,9.224 4.069,9.098 4.324 L 8.868 4.788 8.087 4.814 C 7.658 4.828,6.664 4.840,5.878 4.840 L 4.448 4.840 4.209 5.020 C 4.078 5.118,3.922 5.263,3.862 5.341 C 3.409 5.935,3.689 6.751,4.471 7.119 L 4.747 7.248 4.773 9.494 C 4.788 10.729,4.800 13.528,4.800 15.714 L 4.800 19.688 4.970 20.014 C 5.304 20.657,5.679 21.031,6.437 21.478 L 6.644 21.600 11.932 21.599 L 17.220 21.598 17.483 21.485 C 18.139 21.206,18.730 20.632,19.097 19.920 L 19.190 19.740 19.215 14.140 C 19.230 11.060,19.252 8.247,19.266 7.890 L 19.291 7.240 19.549 7.112 C 19.851 6.964,20.116 6.721,20.245 6.475 C 20.385 6.207,20.374 5.769,20.220 5.486 C 20.077 5.224,19.852 5.017,19.652 4.964 C 19.457 4.911,18.143 4.851,16.457 4.817 L 15.133 4.790 14.923 4.365 C 14.612 3.737,14.244 3.099,14.085 2.914 C 14.008 2.824,13.857 2.681,13.749 2.595 L 13.553 2.440 12.566 2.447 C 12.024 2.450,11.328 2.464,11.020 2.478 M10.096 8.594 C 10.340 8.702,10.552 8.903,10.599 9.073 C 10.657 9.279,10.711 11.360,10.742 14.505 L 10.767 17.191 10.506 17.468 C 9.865 18.147,9.339 18.151,8.708 17.483 L 8.440 17.199 8.440 13.213 L 8.440 9.228 8.615 9.016 C 8.983 8.569,9.183 8.467,9.634 8.499 C 9.795 8.510,10.003 8.553,10.096 8.594 M14.896 8.594 C 15.140 8.702,15.352 8.903,15.399 9.073 C 15.457 9.279,15.511 11.360,15.542 14.505 L 15.567 17.191 15.306 17.468 C 14.665 18.147,14.139 18.151,13.508 17.483 L 13.240 17.199 13.240 13.213 L 13.240 9.228 13.415 9.016 C 13.783 8.569,13.983 8.467,14.434 8.499 C 14.595 8.510,14.803 8.553,14.896 8.594 " fill="#373B4D" stroke="none" fill-rule="evenodd"></path></svg>