<svg width="24" height="24" viewBox="0 0 24 24" fill="none" xmlns="http://www.w3.org/2000/svg"><path d="M10.328 2.534 C 9.955 2.729,9.741 3.032,9.178 4.164 L 8.868 4.787 7.367 4.814 C 6.542 4.828,5.550 4.840,5.163 4.840 L 4.459 4.840 4.207 5.005 C 3.804 5.268,3.558 5.723,3.618 6.097 C 3.685 6.518,4.048 6.978,4.426 7.119 C 4.545 7.164,4.678 7.200,4.720 7.200 C 4.795 7.200,4.797 7.319,4.808 13.430 L 4.820 19.660 4.922 19.921 C 5.155 20.518,5.700 21.102,6.308 21.405 L 6.660 21.580 11.908 21.590 L 17.155 21.601 17.474 21.485 C 17.649 21.421,17.898 21.296,18.029 21.208 C 18.404 20.953,18.813 20.486,19.010 20.089 L 19.180 19.746 19.200 13.496 C 19.211 10.059,19.229 7.240,19.240 7.231 C 19.251 7.223,19.364 7.184,19.491 7.146 C 19.668 7.092,19.783 7.019,19.978 6.836 C 20.273 6.560,20.360 6.365,20.360 5.979 C 20.360 5.532,20.017 5.031,19.634 4.917 C 19.486 4.873,17.297 4.804,15.979 4.801 L 15.139 4.800 14.825 4.170 C 14.272 3.060,14.060 2.753,13.699 2.542 L 13.526 2.440 12.013 2.442 C 10.523 2.444,10.497 2.445,10.328 2.534 M10.267 8.664 C 10.611 8.906,10.666 9.007,10.694 9.449 C 10.708 9.653,10.730 11.471,10.745 13.489 L 10.771 17.158 10.659 17.309 C 10.460 17.579,10.264 17.765,10.079 17.860 C 9.543 18.134,9.034 17.968,8.597 17.376 L 8.440 17.163 8.440 13.205 L 8.440 9.247 8.610 8.994 C 8.731 8.813,8.843 8.702,9.000 8.608 C 9.216 8.478,9.228 8.475,9.627 8.488 C 10.032 8.500,10.036 8.501,10.267 8.664 M15.067 8.664 C 15.411 8.906,15.466 9.007,15.494 9.449 C 15.508 9.653,15.530 11.471,15.545 13.489 L 15.571 17.158 15.459 17.309 C 15.260 17.579,15.064 17.765,14.879 17.860 C 14.343 18.134,13.834 17.968,13.397 17.376 L 13.240 17.163 13.240 13.205 L 13.240 9.247 13.410 8.994 C 13.531 8.813,13.643 8.702,13.800 8.608 C 14.016 8.478,14.028 8.475,14.427 8.488 C 14.832 8.500,14.836 8.501,15.067 8.664 " fill="#373B4D" stroke="none" fill-rule="evenodd"></path></svg>