<svg width="24" height="24" viewBox="0 0 24 24" fill="none" xmlns="http://www.w3.org/2000/svg"><path d="M11.560 2.481 C 11.131 2.496,10.687 2.521,10.572 2.537 C 10.105 2.604,9.804 2.950,9.216 4.100 C 9.025 4.474,8.861 4.789,8.851 4.799 C 8.842 4.810,7.850 4.828,6.647 4.840 C 4.720 4.858,4.446 4.869,4.339 4.927 C 4.167 5.020,3.807 5.413,3.735 5.585 C 3.662 5.761,3.656 6.105,3.723 6.311 C 3.828 6.633,4.154 6.963,4.563 7.161 L 4.747 7.250 4.773 11.031 C 4.788 13.111,4.800 15.913,4.800 17.257 L 4.800 19.700 4.990 20.040 C 5.227 20.464,5.834 21.093,6.298 21.394 L 6.616 21.600 11.929 21.600 L 17.242 21.600 17.491 21.475 C 18.091 21.172,18.539 20.765,18.939 20.160 L 19.191 19.780 19.216 15.600 C 19.229 13.301,19.252 10.479,19.266 9.329 L 19.292 7.238 19.521 7.116 C 19.803 6.966,20.148 6.634,20.245 6.420 C 20.337 6.220,20.342 5.839,20.257 5.590 C 20.179 5.360,19.873 5.062,19.655 5.005 C 19.429 4.945,18.470 4.890,16.695 4.835 L 15.131 4.786 14.941 4.403 C 14.470 3.452,14.112 2.911,13.754 2.610 L 13.552 2.440 12.946 2.447 C 12.613 2.450,11.989 2.466,11.560 2.481 M10.097 8.616 C 10.288 8.696,10.509 8.906,10.556 9.052 C 10.617 9.239,10.671 10.912,10.724 14.253 L 10.771 17.205 10.616 17.366 C 10.378 17.612,9.996 17.871,9.788 17.926 C 9.453 18.016,9.147 17.886,8.685 17.459 L 8.440 17.231 8.440 13.214 L 8.440 9.196 8.732 8.904 C 8.937 8.699,9.072 8.598,9.182 8.567 C 9.375 8.514,9.921 8.543,10.097 8.616 M14.897 8.616 C 15.088 8.696,15.309 8.906,15.356 9.052 C 15.417 9.239,15.471 10.912,15.524 14.253 L 15.571 17.205 15.416 17.366 C 15.178 17.612,14.796 17.871,14.588 17.926 C 14.254 18.016,13.921 17.869,13.450 17.426 L 13.240 17.228 13.240 13.212 L 13.240 9.196 13.532 8.904 C 13.737 8.699,13.872 8.598,13.982 8.567 C 14.175 8.514,14.721 8.543,14.897 8.616 " fill="#373B4D" stroke="none" fill-rule="evenodd"></path></svg>