<svg width="24" height="24" viewBox="0 0 24 24" fill="none" xmlns="http://www.w3.org/2000/svg"><path d="M11.680 2.483 C 10.569 2.523,10.448 2.540,10.227 2.680 C 9.920 2.874,9.677 3.232,9.027 4.444 L 8.843 4.788 8.331 4.814 C 8.050 4.828,7.424 4.841,6.940 4.842 C 5.510 4.846,4.436 4.899,4.292 4.974 C 4.126 5.059,3.847 5.380,3.750 5.596 C 3.653 5.811,3.667 6.181,3.780 6.420 C 3.885 6.640,4.256 6.997,4.531 7.141 L 4.760 7.260 4.760 8.920 C 4.760 9.833,4.772 12.646,4.787 15.172 L 4.813 19.764 5.015 20.072 C 5.272 20.465,5.868 21.081,6.274 21.373 L 6.589 21.600 11.924 21.600 L 17.260 21.600 17.590 21.413 C 18.172 21.085,18.578 20.692,19.028 20.020 L 19.189 19.780 19.235 14.220 C 19.261 11.162,19.281 8.342,19.281 7.953 L 19.280 7.246 19.507 7.116 C 19.817 6.939,20.172 6.575,20.260 6.345 C 20.449 5.851,20.157 5.199,19.680 5.048 C 19.390 4.956,18.488 4.900,15.939 4.816 L 15.137 4.790 14.868 4.262 C 14.511 3.564,14.192 3.078,13.861 2.727 L 13.590 2.440 13.065 2.446 C 12.776 2.450,12.153 2.466,11.680 2.483 M10.143 8.651 C 10.211 8.686,10.330 8.785,10.408 8.872 C 10.529 9.006,10.553 9.066,10.575 9.284 C 10.613 9.664,10.672 11.816,10.724 14.680 L 10.769 17.220 10.515 17.452 C 10.238 17.704,9.775 17.960,9.598 17.960 C 9.368 17.960,8.958 17.719,8.590 17.367 L 8.440 17.224 8.440 13.200 L 8.440 9.177 8.630 8.994 C 8.861 8.773,9.072 8.616,9.180 8.586 C 9.345 8.541,10.018 8.586,10.143 8.651 M14.943 8.651 C 15.011 8.686,15.130 8.785,15.208 8.872 C 15.329 9.006,15.353 9.066,15.375 9.284 C 15.413 9.664,15.472 11.817,15.524 14.679 L 15.569 17.219 15.356 17.415 C 14.608 18.103,14.209 18.104,13.449 17.421 L 13.240 17.233 13.240 13.205 L 13.240 9.177 13.430 8.994 C 13.661 8.773,13.872 8.616,13.980 8.586 C 14.145 8.541,14.818 8.586,14.943 8.651 " fill="#373B4D" stroke="none" fill-rule="evenodd"></path></svg>