<svg width="24" height="24" viewBox="0 0 24 24" fill="none" xmlns="http://www.w3.org/2000/svg"><path d="M11.720 2.484 C 10.610 2.524,10.412 2.556,10.167 2.731 C 9.936 2.896,9.577 3.419,9.149 4.212 L 8.839 4.788 8.413 4.814 C 8.179 4.828,7.581 4.840,7.084 4.841 C 6.127 4.842,4.651 4.899,4.407 4.945 C 4.304 4.964,4.201 5.034,4.058 5.181 C 3.721 5.525,3.624 5.834,3.721 6.247 C 3.765 6.434,3.811 6.499,4.096 6.780 C 4.274 6.957,4.494 7.133,4.584 7.174 L 4.747 7.246 4.776 13.490 L 4.804 19.733 4.900 19.896 C 5.174 20.362,5.834 21.060,6.345 21.425 L 6.590 21.600 11.917 21.600 L 17.243 21.600 17.412 21.515 C 18.018 21.210,18.542 20.730,18.999 20.059 L 19.190 19.778 19.236 14.659 C 19.261 11.844,19.281 9.025,19.280 8.396 L 19.280 7.251 19.515 7.107 C 19.644 7.027,19.859 6.845,19.992 6.702 C 20.325 6.346,20.385 6.114,20.256 5.677 C 20.174 5.403,19.896 5.108,19.660 5.046 C 19.350 4.965,18.291 4.900,15.899 4.817 L 15.138 4.790 14.884 4.296 C 14.551 3.646,14.156 3.044,13.843 2.710 L 13.591 2.440 13.105 2.446 C 12.838 2.450,12.215 2.467,11.720 2.484 M10.101 8.640 C 10.231 8.690,10.437 8.877,10.504 9.007 C 10.548 9.094,10.574 9.347,10.601 9.953 C 10.645 10.981,10.717 14.320,10.730 15.998 L 10.740 17.255 10.471 17.482 C 10.183 17.724,9.750 17.960,9.595 17.960 C 9.386 17.959,8.941 17.696,8.590 17.365 L 8.440 17.224 8.440 13.195 L 8.440 9.167 8.690 8.938 C 9.066 8.595,9.181 8.552,9.639 8.583 C 9.847 8.597,10.055 8.623,10.101 8.640 M14.630 8.597 C 15.124 8.654,15.336 8.881,15.377 9.394 C 15.410 9.816,15.470 12.047,15.524 14.860 L 15.569 17.220 15.317 17.448 C 14.637 18.065,14.170 18.067,13.490 17.458 L 13.240 17.234 13.240 13.200 L 13.240 9.167 13.490 8.938 C 13.895 8.568,14.030 8.528,14.630 8.597 " fill="#373B4D" stroke="none" fill-rule="evenodd"></path></svg>