<svg width="24" height="24" viewBox="0 0 24 24" fill="none" xmlns="http://www.w3.org/2000/svg"><path d="M11.360 2.481 C 10.900 2.497,10.506 2.531,10.400 2.563 C 10.023 2.676,9.686 3.132,9.097 4.324 L 8.867 4.788 8.364 4.814 C 8.087 4.828,7.093 4.840,6.155 4.840 C 4.223 4.840,4.441 4.804,4.027 5.197 C 3.751 5.458,3.663 5.643,3.663 5.960 C 3.663 6.435,3.952 6.844,4.483 7.118 L 4.747 7.254 4.773 10.517 C 4.788 12.312,4.800 15.109,4.800 16.734 L 4.800 19.688 4.940 19.954 C 5.251 20.543,5.683 20.998,6.320 21.407 L 6.620 21.600 11.931 21.600 L 17.242 21.600 17.531 21.455 C 18.135 21.151,18.535 20.785,18.936 20.170 L 19.190 19.780 19.215 15.060 C 19.229 12.464,19.252 9.642,19.266 8.789 L 19.292 7.238 19.536 7.110 C 19.858 6.940,20.219 6.583,20.276 6.377 C 20.345 6.129,20.329 5.723,20.243 5.534 C 20.140 5.307,19.878 5.054,19.693 5.002 C 19.609 4.979,19.279 4.942,18.960 4.921 C 18.358 4.880,16.060 4.800,15.475 4.799 L 15.140 4.799 14.822 4.177 C 14.382 3.313,14.109 2.905,13.804 2.650 L 13.553 2.440 12.847 2.447 C 12.458 2.450,11.789 2.466,11.360 2.481 M10.140 8.630 C 10.342 8.737,10.514 8.899,10.563 9.028 C 10.626 9.195,10.673 10.626,10.725 13.997 L 10.774 17.214 10.508 17.465 C 9.820 18.117,9.403 18.124,8.722 17.494 L 8.440 17.233 8.440 13.222 L 8.440 9.212 8.679 8.950 C 9.021 8.578,9.169 8.511,9.620 8.530 C 9.888 8.541,10.021 8.567,10.140 8.630 M14.940 8.630 C 15.142 8.737,15.314 8.899,15.363 9.028 C 15.426 9.195,15.473 10.626,15.525 13.998 L 15.574 17.215 15.287 17.484 C 14.616 18.112,14.193 18.115,13.522 17.494 L 13.240 17.233 13.240 13.222 L 13.240 9.212 13.479 8.950 C 13.821 8.578,13.969 8.511,14.420 8.530 C 14.688 8.541,14.821 8.567,14.940 8.630 " fill="#373B4D" stroke="none" fill-rule="evenodd"></path></svg>