<svg width="24" height="24" viewBox="0 0 24 24" fill="none" xmlns="http://www.w3.org/2000/svg"><path d="M11.620 2.483 C 11.158 2.499,10.703 2.523,10.610 2.536 C 10.114 2.602,9.818 2.938,9.193 4.144 C 9.017 4.482,8.854 4.772,8.829 4.787 C 8.804 4.802,7.816 4.828,6.634 4.844 C 4.194 4.878,4.338 4.857,4.006 5.221 C 3.746 5.505,3.680 5.657,3.680 5.968 C 3.680 6.162,3.705 6.274,3.781 6.428 C 3.908 6.682,4.244 7.004,4.529 7.144 L 4.747 7.250 4.773 11.535 C 4.788 13.892,4.800 16.697,4.800 17.768 L 4.800 19.716 4.939 19.953 C 5.240 20.467,5.806 21.064,6.313 21.404 L 6.607 21.600 11.933 21.599 L 17.260 21.599 17.554 21.438 C 18.138 21.120,18.566 20.718,18.973 20.104 L 19.189 19.780 19.214 16.200 C 19.229 14.231,19.252 11.410,19.266 9.932 L 19.292 7.244 19.550 7.092 C 19.865 6.909,20.221 6.535,20.278 6.330 C 20.414 5.841,20.228 5.337,19.826 5.101 C 19.574 4.954,18.935 4.906,15.999 4.816 L 15.137 4.789 14.845 4.216 C 14.464 3.469,14.151 2.999,13.828 2.690 L 13.567 2.440 13.013 2.446 C 12.709 2.450,12.082 2.466,11.620 2.483 M10.048 8.601 C 10.129 8.624,10.275 8.720,10.372 8.814 C 10.526 8.964,10.552 9.015,10.575 9.203 C 10.618 9.565,10.675 11.593,10.724 14.480 L 10.770 17.219 10.529 17.440 C 10.211 17.731,9.901 17.913,9.669 17.945 C 9.507 17.967,9.443 17.953,9.230 17.847 C 9.092 17.779,8.859 17.613,8.710 17.478 L 8.440 17.234 8.440 13.201 L 8.440 9.169 8.688 8.939 C 9.072 8.583,9.124 8.560,9.540 8.560 C 9.738 8.560,9.966 8.579,10.048 8.601 M14.848 8.601 C 14.929 8.624,15.075 8.720,15.172 8.814 C 15.326 8.964,15.352 9.015,15.375 9.203 C 15.418 9.565,15.475 11.593,15.524 14.480 L 15.570 17.219 15.329 17.440 C 14.611 18.098,14.206 18.105,13.506 17.474 L 13.240 17.234 13.240 13.201 L 13.240 9.169 13.488 8.939 C 13.872 8.583,13.924 8.560,14.340 8.560 C 14.538 8.560,14.766 8.579,14.848 8.601 " fill="#373B4D" stroke="none" fill-rule="evenodd"></path></svg>