<svg width="24" height="24" viewBox="0 0 24 24" fill="none" xmlns="http://www.w3.org/2000/svg"><path d="M16.300 6.163 C 14.191 6.194,13.939 6.207,13.764 6.298 C 13.372 6.502,13.159 7.195,13.356 7.620 C 13.459 7.842,13.700 8.108,13.881 8.201 C 14.093 8.309,14.420 8.350,15.640 8.420 C 16.808 8.487,17.112 8.515,17.139 8.558 C 17.148 8.573,17.083 8.675,16.994 8.783 C 16.784 9.039,14.671 11.236,13.846 12.056 L 13.206 12.693 12.173 11.691 C 11.048 10.600,10.502 10.097,10.270 9.934 C 10.089 9.807,9.885 9.764,9.455 9.762 L 9.130 9.760 8.782 10.064 C 8.365 10.429,6.022 12.707,5.036 13.706 C 2.880 15.892,2.444 16.409,2.441 16.780 C 2.436 17.264,2.973 17.837,3.528 17.940 C 3.955 18.020,4.530 17.528,7.853 14.240 L 9.600 12.511 10.490 13.382 C 12.625 15.471,13.008 15.729,13.573 15.461 C 13.857 15.326,14.400 14.822,17.173 12.122 C 18.155 11.166,18.987 10.368,19.022 10.349 C 19.057 10.329,19.097 10.324,19.111 10.338 C 19.125 10.352,19.151 10.736,19.169 11.192 C 19.269 13.792,19.236 13.591,19.634 13.971 C 19.920 14.244,20.081 14.320,20.369 14.320 C 20.712 14.319,20.859 14.257,21.143 13.991 C 21.578 13.585,21.536 13.972,21.553 10.145 L 21.568 6.789 21.235 6.455 L 20.902 6.120 19.621 6.127 C 18.916 6.130,17.422 6.147,16.300 6.163 " fill="#373B4D" stroke="none" fill-rule="evenodd"></path></svg>