<svg width="24" height="24" viewBox="0 0 24 24" fill="none" xmlns="http://www.w3.org/2000/svg"><path d="M3.356 6.036 C 3.129 6.083,2.792 6.293,2.651 6.476 C 2.411 6.788,2.334 7.271,2.475 7.580 C 2.515 7.669,2.644 7.858,2.761 8.000 C 3.031 8.329,7.337 12.659,8.314 13.585 C 8.980 14.216,9.069 14.286,9.271 14.345 C 9.547 14.425,9.853 14.400,10.111 14.275 C 10.245 14.210,10.705 13.781,11.751 12.744 L 13.204 11.304 15.322 13.422 C 16.487 14.587,17.440 15.551,17.440 15.566 C 17.440 15.580,16.688 15.598,15.770 15.607 L 14.100 15.622 13.846 15.759 C 12.970 16.231,13.008 17.442,13.912 17.887 L 14.100 17.980 17.400 17.980 L 20.700 17.980 20.888 17.887 C 20.991 17.837,21.147 17.723,21.235 17.635 C 21.323 17.547,21.437 17.391,21.487 17.288 L 21.580 17.100 21.591 13.947 C 21.599 11.893,21.588 10.714,21.561 10.567 C 21.497 10.217,21.283 9.933,20.956 9.767 C 20.730 9.651,20.653 9.633,20.403 9.633 C 19.903 9.633,19.493 9.896,19.289 10.346 C 19.228 10.483,19.219 10.688,19.208 12.198 L 19.196 13.896 16.868 11.575 C 14.318 9.034,14.003 8.731,13.729 8.557 C 13.563 8.452,13.511 8.440,13.210 8.440 C 12.673 8.440,12.701 8.419,10.930 10.176 L 9.600 11.495 7.090 8.996 C 5.710 7.622,4.481 6.415,4.360 6.314 C 4.063 6.066,3.699 5.965,3.356 6.036 " fill="#373B4D" stroke="none" fill-rule="evenodd"></path></svg>