<svg width="24" height="24" viewBox="0 0 24 24" fill="none" xmlns="http://www.w3.org/2000/svg"><path d="M3.420 6.062 C 3.398 6.068,3.313 6.085,3.230 6.098 C 3.019 6.134,2.639 6.492,2.519 6.770 C 2.408 7.025,2.398 7.359,2.495 7.563 C 2.599 7.783,3.066 8.297,4.547 9.820 C 6.549 11.880,8.559 13.841,9.063 14.225 C 9.183 14.316,9.256 14.336,9.520 14.352 C 10.060 14.383,10.158 14.309,11.998 12.495 L 13.205 11.305 14.626 12.723 C 16.088 14.181,17.320 15.459,17.320 15.518 C 17.320 15.559,16.811 15.587,15.240 15.633 C 13.926 15.671,13.941 15.668,13.612 15.972 C 13.335 16.227,13.263 16.397,13.263 16.800 C 13.263 17.274,13.372 17.458,13.913 17.893 L 14.046 18.000 17.386 18.000 L 20.726 18.000 20.898 17.882 C 21.085 17.753,21.337 17.501,21.499 17.281 L 21.602 17.141 21.591 13.821 C 21.579 10.059,21.611 10.407,21.236 10.032 C 20.967 9.763,20.773 9.682,20.398 9.681 C 20.153 9.680,20.057 9.699,19.892 9.782 C 19.636 9.909,19.340 10.221,19.283 10.425 C 19.256 10.519,19.228 11.224,19.213 12.210 C 19.199 13.107,19.179 13.840,19.169 13.840 C 19.160 13.840,18.222 12.919,17.086 11.793 C 14.785 9.514,13.863 8.639,13.663 8.544 C 13.477 8.456,12.921 8.457,12.733 8.546 C 12.531 8.642,12.001 9.127,10.728 10.379 L 9.600 11.489 7.490 9.397 C 5.051 6.980,4.343 6.316,4.060 6.182 C 3.881 6.097,3.525 6.030,3.420 6.062 " fill="#373B4D" stroke="none" fill-rule="evenodd"></path></svg>