<svg width="24" height="24" viewBox="0 0 24 24" fill="none" xmlns="http://www.w3.org/2000/svg"><path d="M16.442 6.165 C 14.242 6.197,13.855 6.223,13.681 6.352 C 13.427 6.541,13.255 6.984,13.293 7.352 C 13.329 7.703,13.643 8.112,13.973 8.237 C 14.164 8.310,14.582 8.357,15.580 8.419 C 16.957 8.505,17.120 8.522,17.120 8.578 C 17.120 8.605,17.028 8.734,16.915 8.864 C 16.635 9.185,14.457 11.449,13.765 12.137 L 13.205 12.693 12.213 11.733 C 10.853 10.418,10.414 10.021,10.186 9.896 C 10.020 9.806,9.927 9.787,9.565 9.770 L 9.139 9.750 8.760 10.088 C 8.115 10.663,5.514 13.210,4.435 14.323 C 2.428 16.392,2.288 16.600,2.532 17.134 C 2.709 17.519,3.140 17.868,3.533 17.941 C 3.946 18.019,4.574 17.480,7.893 14.199 L 9.605 12.506 10.253 13.145 C 12.383 15.248,12.913 15.651,13.384 15.524 C 13.743 15.428,13.864 15.320,16.744 12.535 C 18.879 10.470,19.068 10.294,19.104 10.331 C 19.115 10.342,19.150 10.951,19.181 11.685 C 19.264 13.621,19.263 13.615,19.605 13.941 C 19.892 14.215,20.109 14.318,20.400 14.318 C 20.688 14.318,20.886 14.225,21.189 13.944 C 21.384 13.763,21.444 13.679,21.482 13.528 C 21.517 13.392,21.536 12.436,21.549 10.064 L 21.566 6.788 21.234 6.454 L 20.902 6.120 19.741 6.126 C 19.102 6.130,17.618 6.147,16.442 6.165 " fill="#373B4D" stroke="none" fill-rule="evenodd"></path></svg>