<svg width="24" height="24" viewBox="0 0 24 24" fill="none" xmlns="http://www.w3.org/2000/svg"><path d="M14.640 6.158 C 13.803 6.183,13.723 6.206,13.521 6.486 C 13.253 6.855,13.173 7.309,13.319 7.631 C 13.427 7.869,13.790 8.222,13.984 8.278 C 14.165 8.331,14.862 8.381,16.238 8.438 C 16.775 8.461,17.230 8.494,17.248 8.512 C 17.285 8.549,15.670 10.240,14.187 11.717 L 13.205 12.694 12.158 11.665 C 11.001 10.528,10.432 10.006,10.160 9.835 C 9.995 9.731,9.948 9.721,9.596 9.721 C 9.242 9.720,9.199 9.729,9.046 9.831 C 8.737 10.039,7.625 11.109,5.518 13.227 C 3.363 15.393,2.612 16.191,2.496 16.435 C 2.409 16.617,2.442 17.057,2.561 17.301 C 2.787 17.769,3.502 18.078,3.923 17.891 C 4.315 17.717,5.022 17.059,8.007 14.087 L 9.594 12.507 10.747 13.637 C 12.518 15.374,12.798 15.585,13.293 15.553 C 13.489 15.541,13.578 15.512,13.720 15.413 C 14.006 15.215,15.108 14.163,17.206 12.086 C 18.276 11.027,19.161 10.160,19.173 10.160 C 19.184 10.160,19.201 10.894,19.210 11.790 C 19.222 12.871,19.243 13.468,19.274 13.564 C 19.326 13.725,19.738 14.144,19.960 14.262 C 20.157 14.366,20.648 14.367,20.839 14.264 C 21.015 14.169,21.431 13.774,21.504 13.632 C 21.551 13.542,21.560 12.964,21.560 10.172 L 21.559 6.820 21.408 6.629 C 21.325 6.525,21.170 6.367,21.064 6.279 L 20.871 6.120 18.126 6.128 C 16.616 6.132,15.047 6.146,14.640 6.158 " fill="#373B4D" stroke="none" fill-rule="evenodd"></path></svg>