<svg width="24" height="24" viewBox="0 0 24 24" fill="none" xmlns="http://www.w3.org/2000/svg"><path d="M3.169 6.104 C 2.949 6.186,2.644 6.485,2.521 6.740 C 2.399 6.994,2.387 7.354,2.494 7.568 C 2.613 7.808,2.989 8.222,4.449 9.723 C 6.904 12.245,8.914 14.189,9.189 14.305 C 9.260 14.335,9.449 14.360,9.609 14.360 C 10.102 14.359,10.182 14.296,12.170 12.323 L 13.200 11.300 14.683 12.780 C 16.443 14.537,17.381 15.512,17.345 15.548 C 17.331 15.562,16.658 15.589,15.850 15.607 C 15.041 15.625,14.286 15.650,14.171 15.663 C 13.884 15.694,13.546 15.942,13.380 16.243 C 13.273 16.436,13.260 16.497,13.260 16.800 C 13.260 17.106,13.272 17.162,13.383 17.360 C 13.470 17.514,13.589 17.643,13.783 17.790 L 14.060 18.000 17.384 18.000 L 20.708 18.000 20.953 17.841 C 21.116 17.736,21.266 17.591,21.399 17.411 L 21.599 17.140 21.599 13.848 C 21.600 10.598,21.599 10.555,21.517 10.394 C 21.395 10.155,21.131 9.887,20.902 9.770 C 20.610 9.621,20.183 9.621,19.895 9.770 C 19.627 9.909,19.334 10.205,19.280 10.392 C 19.254 10.481,19.227 11.209,19.212 12.209 L 19.188 13.877 17.009 11.716 C 14.810 9.536,13.929 8.693,13.703 8.555 C 13.605 8.496,13.501 8.480,13.197 8.480 C 12.834 8.480,12.804 8.487,12.623 8.606 C 12.389 8.762,11.829 9.288,10.573 10.534 L 9.605 11.494 7.353 9.260 C 4.885 6.813,4.329 6.291,4.047 6.158 C 3.805 6.043,3.402 6.018,3.169 6.104 " fill="#373B4D" stroke="none" fill-rule="evenodd"></path></svg>