<svg width="24" height="24" viewBox="0 0 24 24" fill="none" xmlns="http://www.w3.org/2000/svg"><path d="M3.278 6.095 C 3.043 6.158,2.873 6.280,2.679 6.527 C 2.501 6.752,2.441 6.929,2.440 7.232 C 2.440 7.619,2.477 7.665,4.295 9.555 C 6.346 11.688,8.837 14.112,9.140 14.270 C 9.206 14.304,9.379 14.341,9.525 14.351 C 10.035 14.388,10.219 14.248,12.064 12.429 L 13.205 11.305 14.426 12.523 C 15.933 14.025,17.326 15.478,17.300 15.520 C 17.276 15.558,16.759 15.589,15.260 15.641 C 14.644 15.662,14.073 15.698,13.992 15.721 C 13.790 15.778,13.425 16.119,13.340 16.330 C 13.296 16.439,13.271 16.611,13.270 16.806 C 13.269 17.216,13.362 17.402,13.733 17.739 L 14.020 17.999 17.373 18.000 L 20.726 18.000 20.893 17.884 C 21.065 17.764,21.360 17.469,21.513 17.265 L 21.600 17.149 21.599 14.265 C 21.597 11.146,21.573 10.478,21.451 10.269 C 21.340 10.080,20.943 9.775,20.739 9.724 C 20.643 9.700,20.466 9.680,20.346 9.680 C 19.904 9.680,19.352 10.098,19.277 10.488 C 19.258 10.583,19.231 11.290,19.216 12.060 C 19.201 12.830,19.177 13.541,19.164 13.640 L 19.139 13.820 17.179 11.884 C 15.054 9.785,13.989 8.768,13.743 8.605 C 13.601 8.510,13.549 8.500,13.203 8.500 C 12.921 8.500,12.788 8.517,12.700 8.567 C 12.505 8.675,11.850 9.278,10.690 10.417 L 9.600 11.488 7.590 9.497 C 5.478 7.405,4.498 6.474,4.202 6.277 C 3.922 6.091,3.558 6.019,3.278 6.095 " fill="#373B4D" stroke="none" fill-rule="evenodd"></path></svg>