<svg width="24" height="24" viewBox="0 0 24 24" fill="none" xmlns="http://www.w3.org/2000/svg"><path d="M3.127 6.187 C 2.940 6.280,2.663 6.560,2.555 6.765 C 2.438 6.988,2.430 7.356,2.537 7.560 C 2.692 7.856,3.280 8.503,4.960 10.224 C 6.283 11.580,7.985 13.250,8.617 13.813 C 9.176 14.309,9.394 14.403,9.792 14.318 C 10.158 14.240,10.388 14.046,12.093 12.389 L 13.206 11.307 13.727 11.824 C 14.515 12.605,16.797 14.957,17.018 15.216 C 17.185 15.412,17.205 15.452,17.157 15.499 C 17.114 15.540,16.803 15.570,15.940 15.617 C 14.008 15.722,13.834 15.754,13.567 16.058 C 13.345 16.310,13.301 16.431,13.301 16.780 C 13.301 17.183,13.365 17.321,13.734 17.709 L 14.010 18.000 17.377 18.000 L 20.745 18.000 20.962 17.818 C 21.082 17.717,21.274 17.533,21.388 17.408 L 21.597 17.180 21.598 14.640 C 21.598 13.243,21.581 11.733,21.560 11.285 C 21.524 10.522,21.516 10.460,21.421 10.298 C 21.219 9.953,20.913 9.772,20.471 9.735 C 20.129 9.706,19.912 9.778,19.617 10.020 C 19.279 10.297,19.271 10.344,19.181 12.393 C 19.151 13.083,19.117 13.656,19.106 13.668 C 19.066 13.707,18.870 13.524,17.140 11.844 C 15.042 9.805,14.263 9.061,13.909 8.754 L 13.638 8.520 13.203 8.520 L 12.768 8.520 12.454 8.774 C 12.095 9.064,11.382 9.736,10.333 10.774 L 9.606 11.493 7.593 9.512 C 4.822 6.784,4.424 6.421,3.998 6.222 C 3.735 6.100,3.337 6.084,3.127 6.187 " fill="#373B4D" stroke="none" fill-rule="evenodd"></path></svg>