<svg width="24" height="24" viewBox="0 0 24 24" fill="none" xmlns="http://www.w3.org/2000/svg"><path d="M3.160 6.183 C 2.998 6.253,2.660 6.569,2.576 6.730 C 2.486 6.900,2.441 7.206,2.479 7.378 C 2.529 7.597,2.725 7.862,3.327 8.520 C 4.002 9.258,7.075 12.357,8.019 13.252 C 9.115 14.291,9.320 14.415,9.774 14.321 C 10.150 14.243,10.327 14.095,12.136 12.343 L 13.211 11.301 14.472 12.580 C 16.256 14.391,17.160 15.352,17.160 15.437 C 17.160 15.538,17.079 15.550,15.886 15.621 C 14.711 15.691,14.165 15.743,13.953 15.807 C 13.753 15.867,13.543 16.047,13.412 16.270 C 13.318 16.430,13.304 16.498,13.305 16.777 C 13.306 17.178,13.377 17.329,13.746 17.720 L 14.010 18.000 17.381 18.000 L 20.752 18.000 21.007 17.769 C 21.147 17.642,21.340 17.453,21.436 17.349 L 21.609 17.161 21.586 14.030 C 21.573 12.309,21.546 10.785,21.525 10.644 C 21.456 10.176,21.119 9.850,20.615 9.762 C 20.191 9.688,19.914 9.769,19.558 10.068 C 19.301 10.284,19.268 10.482,19.178 12.340 C 19.142 13.066,19.106 13.667,19.098 13.676 C 19.072 13.702,18.826 13.470,16.620 11.340 C 15.454 10.214,14.311 9.120,14.080 8.908 L 13.660 8.522 13.212 8.521 L 12.763 8.520 12.406 8.817 C 12.001 9.154,11.342 9.776,10.313 10.794 L 9.605 11.494 7.693 9.614 C 4.661 6.635,4.296 6.307,3.872 6.181 C 3.613 6.104,3.341 6.105,3.160 6.183 " fill="#373B4D" stroke="none" fill-rule="evenodd"></path></svg>