<svg width="24" height="24" viewBox="0 0 24 24" fill="none" xmlns="http://www.w3.org/2000/svg"><path d="M3.300 6.150 C 3.059 6.184,2.593 6.625,2.517 6.891 C 2.459 7.093,2.475 7.365,2.555 7.542 C 2.596 7.631,2.766 7.868,2.933 8.069 C 3.685 8.972,8.439 13.709,8.964 14.077 C 9.333 14.337,9.524 14.388,9.812 14.304 C 10.177 14.198,10.477 13.943,12.232 12.246 L 13.204 11.306 13.685 11.783 C 14.375 12.469,16.671 14.853,16.936 15.160 C 17.059 15.303,17.154 15.437,17.147 15.459 C 17.126 15.523,16.909 15.552,15.980 15.618 C 14.017 15.757,13.865 15.784,13.609 16.040 C 13.360 16.289,13.307 16.435,13.328 16.816 C 13.350 17.211,13.421 17.361,13.759 17.730 L 14.007 18.000 17.394 18.000 L 20.781 18.000 21.197 17.583 L 21.613 17.166 21.588 13.902 C 21.560 10.220,21.584 10.478,21.240 10.105 C 21.016 9.862,20.794 9.780,20.357 9.780 C 20.031 9.780,20.000 9.788,19.777 9.926 C 19.444 10.130,19.334 10.321,19.282 10.780 C 19.237 11.178,19.178 12.066,19.137 12.966 C 19.122 13.288,19.095 13.576,19.077 13.605 C 19.040 13.665,19.231 13.842,16.620 11.339 C 15.586 10.347,14.498 9.308,14.203 9.028 L 13.666 8.520 13.208 8.520 L 12.750 8.520 12.348 8.868 C 11.880 9.274,11.210 9.909,10.272 10.835 L 9.605 11.495 8.032 9.952 C 4.668 6.653,4.280 6.303,3.881 6.203 C 3.678 6.153,3.438 6.131,3.300 6.150 " fill="#373B4D" stroke="none" fill-rule="evenodd"></path></svg>