<svg width="24" height="24" viewBox="0 0 24 24" fill="none" xmlns="http://www.w3.org/2000/svg"><path d="M16.100 6.161 C 15.066 6.176,14.126 6.202,14.010 6.218 C 13.712 6.260,13.563 6.376,13.409 6.687 C 13.171 7.166,13.229 7.574,13.591 7.965 C 13.912 8.312,13.976 8.326,15.680 8.419 C 16.881 8.485,17.160 8.512,17.160 8.558 C 17.160 8.575,17.105 8.659,17.037 8.744 C 16.864 8.963,14.875 11.030,13.965 11.937 L 13.205 12.694 12.333 11.840 C 11.288 10.817,10.486 10.076,10.240 9.905 C 10.068 9.785,10.040 9.779,9.600 9.767 L 9.140 9.754 8.840 10.010 C 8.040 10.694,4.273 14.435,3.211 15.600 C 2.440 16.446,2.343 16.661,2.519 17.129 C 2.668 17.526,3.084 17.861,3.528 17.941 C 3.963 18.020,4.492 17.569,7.739 14.354 L 9.599 12.511 10.550 13.442 C 12.643 15.493,13.018 15.743,13.582 15.461 C 13.861 15.322,14.424 14.803,16.640 12.641 C 17.707 11.600,18.692 10.640,18.830 10.506 C 18.999 10.341,19.092 10.276,19.120 10.304 C 19.144 10.328,19.176 10.915,19.200 11.782 C 19.248 13.561,19.248 13.557,19.434 13.774 C 19.626 13.997,19.932 14.253,20.048 14.286 C 20.231 14.338,20.686 14.321,20.819 14.258 C 20.978 14.183,21.381 13.790,21.473 13.621 C 21.534 13.511,21.541 13.186,21.552 10.143 L 21.563 6.785 21.233 6.453 L 20.902 6.120 19.441 6.127 C 18.637 6.131,17.134 6.146,16.100 6.161 " fill="#373B4D" stroke="none" fill-rule="evenodd"></path></svg>