<svg width="24" height="24" viewBox="0 0 24 24" fill="none" xmlns="http://www.w3.org/2000/svg"><path d="M14.580 6.117 C 13.851 6.143,13.789 6.164,13.524 6.465 C 13.334 6.681,13.240 6.952,13.241 7.277 C 13.242 7.568,13.340 7.776,13.595 8.032 C 13.912 8.349,13.961 8.357,15.740 8.408 C 16.576 8.431,17.276 8.465,17.295 8.483 C 17.338 8.521,16.266 9.642,14.506 11.397 L 13.205 12.694 12.055 11.562 C 10.187 9.723,10.101 9.658,9.542 9.688 C 9.252 9.703,9.185 9.721,9.008 9.835 C 8.734 10.011,6.500 12.191,4.525 14.209 C 2.761 16.012,2.552 16.241,2.479 16.463 C 2.416 16.654,2.447 17.099,2.537 17.289 C 2.779 17.799,3.546 18.109,4.010 17.885 C 4.276 17.756,4.992 17.083,7.393 14.700 L 9.600 12.510 10.750 13.642 C 12.040 14.913,12.539 15.363,12.793 15.486 C 12.995 15.584,13.405 15.603,13.560 15.522 C 13.900 15.344,14.549 14.729,17.447 11.845 L 19.194 10.106 19.207 11.803 C 19.219 13.378,19.225 13.510,19.296 13.639 C 19.390 13.812,19.760 14.177,19.931 14.266 C 20.101 14.353,20.547 14.384,20.739 14.320 C 20.939 14.254,21.433 13.824,21.514 13.644 C 21.574 13.514,21.579 13.183,21.572 10.192 C 21.566 7.385,21.556 6.868,21.506 6.772 C 21.417 6.600,21.135 6.296,20.969 6.193 L 20.820 6.100 18.020 6.097 C 16.480 6.095,14.932 6.104,14.580 6.117 " fill="#373B4D" stroke="none" fill-rule="evenodd"></path></svg>