<svg width="24" height="24" viewBox="0 0 24 24" fill="none" xmlns="http://www.w3.org/2000/svg"><path d="M3.289 6.117 C 2.974 6.197,2.575 6.601,2.481 6.936 C 2.421 7.149,2.442 7.367,2.540 7.575 C 2.686 7.881,3.941 9.222,6.159 11.441 C 7.890 13.172,8.910 14.126,9.159 14.248 C 9.435 14.382,9.798 14.373,10.068 14.224 C 10.328 14.081,10.981 13.488,12.235 12.257 L 13.211 11.300 14.675 12.783 C 16.421 14.550,17.200 15.375,17.200 15.455 C 17.200 15.488,17.168 15.524,17.130 15.536 C 17.091 15.548,16.538 15.585,15.900 15.618 C 13.891 15.723,13.871 15.727,13.570 16.056 C 13.329 16.320,13.259 16.535,13.293 16.900 C 13.324 17.233,13.392 17.358,13.733 17.710 L 14.014 18.000 17.377 18.000 L 20.740 18.000 20.980 17.803 C 21.112 17.695,21.306 17.507,21.410 17.386 L 21.600 17.165 21.598 14.513 C 21.597 12.045,21.565 10.765,21.498 10.450 C 21.462 10.282,21.202 9.988,20.970 9.852 C 20.823 9.766,20.723 9.742,20.454 9.728 C 20.149 9.711,20.102 9.720,19.896 9.824 C 19.630 9.958,19.339 10.266,19.305 10.449 C 19.267 10.649,19.207 11.683,19.177 12.651 C 19.162 13.131,19.138 13.576,19.125 13.641 C 19.101 13.755,19.057 13.716,17.500 12.195 C 15.458 10.200,14.169 8.964,13.871 8.716 L 13.636 8.520 13.200 8.520 L 12.765 8.520 12.463 8.763 C 12.112 9.045,11.410 9.707,10.350 10.757 L 9.600 11.499 8.270 10.177 C 5.363 7.288,4.438 6.422,4.064 6.241 C 3.801 6.113,3.498 6.065,3.289 6.117 " fill="#373B4D" stroke="none" fill-rule="evenodd"></path></svg>