<svg width="24" height="24" viewBox="0 0 24 24" fill="none" xmlns="http://www.w3.org/2000/svg"><path d="M3.860 4.834 C 3.307 4.857,3.198 4.872,3.055 4.948 C 2.847 5.060,2.553 5.384,2.479 5.585 C 2.431 5.716,2.420 6.701,2.410 11.992 C 2.398 18.127,2.399 18.246,2.476 18.420 C 2.581 18.657,2.885 18.976,3.112 19.086 C 3.278 19.166,3.373 19.177,4.063 19.193 L 4.830 19.210 4.900 18.995 C 5.200 18.073,5.895 17.325,6.780 16.972 C 7.051 16.864,7.084 16.861,7.800 16.861 C 8.516 16.861,8.549 16.864,8.820 16.972 C 9.693 17.321,10.347 18.010,10.666 18.920 L 10.757 19.180 11.528 19.178 C 12.246 19.177,12.313 19.171,12.486 19.087 C 12.710 18.978,13.016 18.662,13.121 18.429 C 13.196 18.265,13.198 18.089,13.198 12.000 C 13.198 5.932,13.196 5.735,13.122 5.572 C 13.026 5.360,12.753 5.063,12.540 4.938 L 12.375 4.841 8.438 4.825 C 6.272 4.816,4.212 4.820,3.860 4.834 M16.640 8.438 C 16.519 8.452,16.346 8.502,16.255 8.550 C 16.048 8.659,15.754 8.983,15.680 9.185 C 15.633 9.314,15.621 9.979,15.610 13.090 L 15.597 16.840 16.148 16.841 C 16.822 16.841,17.086 16.898,17.575 17.148 C 17.872 17.299,18.008 17.402,18.301 17.697 C 18.683 18.081,18.885 18.405,19.066 18.920 L 19.157 19.180 19.908 19.178 C 20.411 19.177,20.710 19.159,20.810 19.125 C 21.016 19.055,21.374 18.718,21.487 18.489 L 21.580 18.300 21.594 15.035 C 21.608 11.849,21.606 11.765,21.529 11.590 C 21.397 11.292,19.259 9.094,18.647 8.628 C 18.444 8.473,18.418 8.465,18.047 8.435 C 17.601 8.399,16.959 8.400,16.640 8.438 M7.463 18.041 C 7.001 18.122,6.433 18.540,6.224 18.953 C 5.975 19.444,5.943 19.938,6.129 20.434 C 6.292 20.872,6.721 21.302,7.166 21.475 C 7.521 21.614,8.077 21.619,8.410 21.486 C 8.715 21.364,9.023 21.129,9.227 20.861 C 10.084 19.734,9.350 18.141,7.920 18.027 C 7.777 18.015,7.571 18.022,7.463 18.041 M15.810 18.061 C 15.461 18.136,15.193 18.294,14.923 18.583 C 14.667 18.857,14.554 19.061,14.462 19.418 C 14.388 19.701,14.385 19.844,14.444 20.128 C 14.597 20.862,15.181 21.426,15.930 21.564 C 16.818 21.728,17.763 21.058,17.956 20.128 C 18.015 19.844,18.012 19.702,17.939 19.418 C 17.754 18.701,17.200 18.170,16.503 18.043 C 16.210 17.990,16.126 17.992,15.810 18.061 " fill="#373B4D" stroke="none" fill-rule="evenodd"></path></svg>