<svg width="24" height="24" viewBox="0 0 24 24" fill="none" xmlns="http://www.w3.org/2000/svg"><path d="M9.660 4.867 C 7.855 4.881,4.265 4.961,3.685 5.001 C 3.074 5.043,2.894 5.107,2.665 5.360 C 2.587 5.446,2.505 5.589,2.480 5.679 C 2.416 5.918,2.450 17.889,2.516 18.216 C 2.569 18.481,2.694 18.663,2.984 18.901 C 3.235 19.107,3.461 19.160,4.203 19.188 L 4.826 19.211 4.990 18.916 C 5.366 18.233,5.896 17.613,6.474 17.180 L 6.818 16.921 7.799 16.947 L 8.780 16.972 9.067 17.165 C 9.742 17.619,10.095 18.011,10.544 18.803 L 10.774 19.211 11.337 19.191 C 12.017 19.168,12.408 19.069,12.702 18.846 C 12.933 18.670,13.033 18.488,13.083 18.152 C 13.131 17.835,13.197 12.263,13.199 8.454 L 13.200 5.568 12.810 5.205 L 12.420 4.842 11.600 4.850 C 11.149 4.855,10.276 4.862,9.660 4.867 M16.640 8.557 C 16.349 8.598,16.138 8.711,15.842 8.984 L 15.598 9.210 15.609 13.002 C 15.615 15.087,15.629 16.803,15.641 16.814 C 15.652 16.826,15.886 16.864,16.161 16.900 C 17.272 17.043,17.602 17.173,18.088 17.660 C 18.421 17.993,18.808 18.513,19.034 18.929 L 19.180 19.199 19.480 19.199 C 19.889 19.199,20.440 19.133,20.670 19.055 C 20.894 18.979,21.147 18.812,21.410 18.566 L 21.600 18.389 21.600 15.019 L 21.600 11.649 20.746 10.754 C 19.881 9.849,18.997 9.013,18.650 8.772 C 18.543 8.698,18.373 8.625,18.260 8.604 C 17.974 8.551,16.900 8.520,16.640 8.557 M15.540 18.246 C 15.220 18.420,14.733 18.914,14.581 19.217 C 14.476 19.429,14.463 19.492,14.467 19.807 C 14.472 20.275,14.583 20.507,14.998 20.922 C 15.693 21.618,16.366 21.728,17.031 21.254 C 17.444 20.959,17.784 20.511,17.901 20.105 C 18.054 19.575,17.761 18.930,17.160 18.475 C 16.817 18.215,16.653 18.158,16.189 18.136 C 15.786 18.116,15.776 18.118,15.540 18.246 M7.210 18.192 C 7.056 18.240,6.686 18.556,6.423 18.864 C 6.127 19.211,6.058 19.400,6.064 19.848 C 6.070 20.235,6.181 20.481,6.520 20.851 C 6.952 21.322,7.341 21.523,7.826 21.526 C 8.066 21.528,8.154 21.508,8.376 21.402 C 8.888 21.157,9.364 20.608,9.501 20.102 C 9.630 19.625,9.519 19.274,9.079 18.762 C 8.748 18.378,8.614 18.284,8.334 18.241 C 7.993 18.190,7.314 18.160,7.210 18.192 " fill="#373B4D" stroke="none" fill-rule="evenodd"></path></svg>