<svg width="24" height="24" viewBox="0 0 24 24" fill="none" xmlns="http://www.w3.org/2000/svg"><path d="M6.393 4.884 C 4.860 4.901,3.479 4.933,3.324 4.954 C 3.002 4.999,2.883 5.069,2.640 5.360 L 2.472 5.560 2.438 7.870 C 2.365 12.770,2.414 18.169,2.534 18.447 C 2.612 18.627,3.023 19.021,3.220 19.103 C 3.342 19.154,3.552 19.175,4.100 19.190 L 4.820 19.210 4.980 18.875 C 5.334 18.134,5.819 17.581,6.507 17.132 L 6.851 16.908 7.810 16.934 L 8.769 16.960 9.057 17.124 C 9.462 17.354,9.891 17.720,10.118 18.029 C 10.224 18.174,10.417 18.498,10.546 18.750 L 10.780 19.209 11.480 19.185 C 11.865 19.172,12.240 19.144,12.314 19.122 C 12.502 19.067,12.861 18.787,12.987 18.597 C 13.082 18.454,13.096 18.380,13.134 17.849 C 13.160 17.480,13.177 15.077,13.178 11.406 L 13.179 5.551 12.800 5.197 L 12.420 4.843 10.800 4.848 C 9.909 4.851,7.926 4.867,6.393 4.884 M16.817 8.481 C 16.661 8.497,16.476 8.523,16.406 8.539 C 16.236 8.576,15.927 8.826,15.746 9.071 L 15.600 9.271 15.600 13.049 L 15.600 16.828 16.182 16.876 C 17.146 16.956,17.516 17.085,18.022 17.516 C 18.407 17.845,18.733 18.277,18.972 18.775 L 19.180 19.210 19.820 19.186 C 20.172 19.173,20.552 19.138,20.665 19.108 C 20.923 19.040,21.222 18.822,21.435 18.547 L 21.600 18.333 21.600 15.002 L 21.600 11.670 21.250 11.268 C 20.815 10.767,19.381 9.325,18.906 8.910 C 18.510 8.565,18.457 8.544,17.846 8.482 C 17.392 8.436,17.242 8.436,16.817 8.481 M15.726 18.117 C 15.417 18.232,15.153 18.414,14.905 18.682 C 14.655 18.952,14.508 19.237,14.440 19.584 C 14.350 20.041,14.552 20.551,15.003 21.005 C 15.295 21.298,15.645 21.491,16.018 21.566 C 16.464 21.656,16.948 21.458,17.405 20.998 C 17.697 20.704,17.892 20.357,17.966 20.000 C 18.007 19.804,18.002 19.745,17.919 19.465 C 17.748 18.889,17.393 18.470,16.858 18.214 C 16.483 18.034,16.048 17.997,15.726 18.117 M7.080 18.206 C 6.981 18.257,6.744 18.454,6.553 18.645 C 6.245 18.953,6.197 19.021,6.126 19.249 C 5.999 19.660,5.985 19.840,6.058 20.124 C 6.142 20.454,6.278 20.681,6.575 20.992 C 6.851 21.280,7.242 21.495,7.611 21.562 C 8.383 21.703,9.373 20.931,9.564 20.040 C 9.618 19.789,9.566 19.447,9.428 19.147 C 9.316 18.904,8.849 18.416,8.574 18.254 C 8.398 18.151,8.352 18.144,7.823 18.130 C 7.299 18.116,7.247 18.121,7.080 18.206 " fill="#373B4D" stroke="none" fill-rule="evenodd"></path></svg>