<svg width="24" height="24" viewBox="0 0 24 24" fill="none" xmlns="http://www.w3.org/2000/svg"><path d="M7.060 4.884 C 5.520 4.901,4.004 4.934,3.692 4.956 C 3.023 5.004,2.897 5.053,2.636 5.365 L 2.461 5.573 2.428 7.457 C 2.390 9.575,2.424 17.261,2.474 17.945 C 2.501 18.302,2.525 18.419,2.599 18.538 C 2.713 18.723,3.168 19.104,3.313 19.135 C 3.372 19.148,3.735 19.169,4.120 19.183 L 4.820 19.208 5.015 18.834 C 5.402 18.092,5.823 17.612,6.483 17.160 L 6.844 16.913 7.822 16.942 L 8.799 16.971 9.164 17.207 C 9.817 17.629,10.097 17.947,10.541 18.770 L 10.773 19.200 11.197 19.197 C 11.852 19.194,12.248 19.145,12.446 19.043 C 12.651 18.937,12.940 18.669,13.031 18.500 C 13.133 18.308,13.154 17.337,13.184 11.221 L 13.212 5.582 12.816 5.212 L 12.420 4.842 11.140 4.847 C 10.436 4.850,8.600 4.867,7.060 4.884 M16.517 8.532 C 16.226 8.615,15.971 8.787,15.779 9.032 L 15.600 9.260 15.600 13.045 L 15.600 16.831 15.910 16.858 C 16.459 16.906,17.029 17.000,17.267 17.082 C 17.920 17.306,18.580 17.987,19.025 18.895 L 19.180 19.210 19.780 19.187 C 20.699 19.152,20.960 19.053,21.394 18.579 L 21.600 18.354 21.600 15.005 L 21.600 11.656 21.047 11.058 C 20.444 10.406,19.055 9.039,18.747 8.794 C 18.449 8.558,18.249 8.513,17.420 8.496 C 16.912 8.485,16.646 8.496,16.517 8.532 M15.935 18.078 C 15.535 18.141,15.019 18.506,14.723 18.935 C 14.446 19.338,14.358 19.869,14.505 20.245 C 14.751 20.875,15.408 21.438,16.045 21.564 C 16.231 21.601,16.309 21.597,16.505 21.541 C 17.141 21.359,17.726 20.769,17.927 20.107 C 18.001 19.862,18.005 19.806,17.962 19.615 C 17.894 19.310,17.673 18.891,17.472 18.684 C 17.037 18.238,16.433 18.000,15.935 18.078 M7.272 18.157 C 7.072 18.197,6.865 18.347,6.525 18.697 C 6.220 19.012,6.099 19.236,6.033 19.605 C 5.885 20.436,6.823 21.507,7.737 21.553 C 8.093 21.571,8.384 21.476,8.734 21.226 C 9.260 20.851,9.648 20.142,9.580 19.684 C 9.509 19.216,9.257 18.821,8.771 18.420 C 8.534 18.224,8.490 18.204,8.265 18.184 C 7.733 18.137,7.413 18.128,7.272 18.157 " fill="#373B4D" stroke="none" fill-rule="evenodd"></path></svg>