<svg width="24" height="24" viewBox="0 0 24 24" fill="none" xmlns="http://www.w3.org/2000/svg"><path d="M9.160 4.867 C 7.434 4.880,4.004 4.960,3.538 4.997 C 3.068 5.036,2.894 5.109,2.652 5.372 C 2.505 5.531,2.484 5.580,2.454 5.825 C 2.406 6.215,2.424 16.918,2.474 17.685 C 2.497 18.040,2.539 18.368,2.571 18.445 C 2.633 18.593,3.017 18.965,3.210 19.065 C 3.351 19.138,3.900 19.197,4.447 19.199 L 4.833 19.200 5.000 18.890 C 5.356 18.229,5.962 17.534,6.525 17.136 L 6.832 16.920 7.806 16.945 L 8.780 16.970 9.117 17.192 C 9.758 17.615,10.150 18.063,10.599 18.890 L 10.767 19.200 11.214 19.199 C 12.209 19.195,12.770 18.975,13.002 18.497 C 13.080 18.336,13.092 18.220,13.122 17.369 C 13.141 16.847,13.169 13.982,13.184 11.002 L 13.213 5.583 12.817 5.212 L 12.420 4.842 11.380 4.850 C 10.808 4.855,9.809 4.863,9.160 4.867 M16.592 8.560 C 16.320 8.595,16.051 8.754,15.784 9.040 L 15.600 9.237 15.600 13.038 C 15.600 16.100,15.610 16.840,15.651 16.840 C 15.679 16.840,15.922 16.867,16.191 16.900 C 17.297 17.037,17.601 17.160,18.122 17.679 C 18.459 18.015,18.901 18.627,19.086 19.016 L 19.180 19.211 19.740 19.187 C 20.605 19.149,20.871 19.055,21.350 18.620 L 21.600 18.393 21.600 15.022 L 21.600 11.650 20.818 10.826 C 19.859 9.814,18.838 8.855,18.556 8.702 C 18.371 8.601,18.287 8.584,17.843 8.556 C 17.253 8.518,16.907 8.519,16.592 8.560 M15.567 18.226 C 15.150 18.449,14.769 18.836,14.569 19.240 C 14.474 19.432,14.460 19.506,14.463 19.820 C 14.466 20.261,14.556 20.465,14.923 20.857 C 15.531 21.507,16.192 21.708,16.783 21.421 C 17.124 21.256,17.626 20.744,17.804 20.381 C 18.087 19.801,17.951 19.222,17.403 18.679 C 17.255 18.532,17.027 18.358,16.881 18.282 C 16.643 18.157,16.585 18.144,16.201 18.129 C 15.799 18.113,15.770 18.117,15.567 18.226 M7.161 18.207 C 6.970 18.262,6.287 18.952,6.157 19.220 C 6.025 19.492,6.020 20.048,6.146 20.320 C 6.361 20.785,6.861 21.265,7.320 21.448 C 7.473 21.509,7.627 21.535,7.825 21.536 C 8.076 21.537,8.148 21.518,8.422 21.383 C 9.027 21.084,9.503 20.444,9.549 19.868 C 9.574 19.562,9.509 19.336,9.315 19.051 C 9.141 18.796,8.728 18.366,8.585 18.292 C 8.518 18.258,8.270 18.218,7.985 18.198 C 7.401 18.155,7.339 18.156,7.161 18.207 " fill="#373B4D" stroke="none" fill-rule="evenodd"></path></svg>