<svg width="24" height="24" viewBox="0 0 24 24" fill="none" xmlns="http://www.w3.org/2000/svg"><path d="M7.620 4.884 C 4.930 4.916,3.366 4.970,3.115 5.040 C 2.953 5.086,2.693 5.279,2.554 5.458 C 2.465 5.572,2.462 5.606,2.428 6.898 C 2.389 8.396,2.425 16.724,2.475 17.700 C 2.498 18.156,2.525 18.375,2.571 18.463 C 2.671 18.656,3.138 19.070,3.309 19.118 C 3.392 19.142,3.767 19.172,4.141 19.186 L 4.822 19.212 4.957 18.956 C 5.344 18.218,5.923 17.544,6.528 17.129 L 6.835 16.919 7.808 16.944 L 8.780 16.968 9.060 17.150 C 9.773 17.612,10.098 17.969,10.535 18.770 L 10.769 19.200 11.155 19.200 C 12.237 19.199,12.758 18.999,13.004 18.493 C 13.087 18.320,13.097 18.228,13.125 17.303 C 13.142 16.751,13.169 13.889,13.184 10.941 L 13.213 5.583 12.816 5.212 L 12.420 4.842 11.320 4.847 C 10.715 4.851,9.050 4.867,7.620 4.884 M16.480 8.555 C 16.240 8.634,16.038 8.771,15.827 9.000 L 15.600 9.245 15.600 13.037 L 15.600 16.829 16.030 16.877 C 17.299 17.020,17.587 17.132,18.174 17.710 C 18.462 17.995,18.876 18.581,19.066 18.975 L 19.180 19.210 19.740 19.187 C 20.642 19.149,20.867 19.070,21.354 18.619 L 21.600 18.391 21.600 15.021 L 21.600 11.651 20.887 10.896 C 20.495 10.480,19.897 9.876,19.557 9.553 C 18.456 8.507,18.545 8.549,17.420 8.534 C 16.958 8.527,16.535 8.537,16.480 8.555 M15.840 18.115 C 15.417 18.203,14.830 18.707,14.596 19.182 C 14.472 19.435,14.460 19.489,14.461 19.819 C 14.461 20.151,14.472 20.200,14.592 20.423 C 14.926 21.040,15.688 21.570,16.234 21.566 C 16.802 21.562,17.470 21.054,17.810 20.370 C 18.008 19.969,18.025 19.746,17.885 19.391 C 17.678 18.865,17.306 18.470,16.789 18.226 C 16.561 18.119,16.086 18.063,15.840 18.115 M7.093 18.235 C 6.852 18.348,6.310 18.910,6.173 19.190 C 6.074 19.391,6.060 19.466,6.060 19.781 C 6.060 20.110,6.072 20.165,6.197 20.419 C 6.457 20.948,7.027 21.409,7.560 21.524 C 8.103 21.640,8.731 21.343,9.182 20.757 C 9.522 20.316,9.638 19.861,9.519 19.436 C 9.428 19.105,8.848 18.408,8.547 18.267 C 8.463 18.227,8.225 18.198,7.840 18.182 C 7.316 18.159,7.244 18.164,7.093 18.235 " fill="#373B4D" stroke="none" fill-rule="evenodd"></path></svg>