<svg width="24" height="24" viewBox="0 0 24 24" fill="none" xmlns="http://www.w3.org/2000/svg"><path d="M4.980 4.878 C 3.412 4.898,3.164 4.910,3.059 4.967 C 2.925 5.040,2.602 5.370,2.516 5.522 C 2.391 5.742,2.379 18.126,2.503 18.430 C 2.582 18.625,2.955 19.001,3.160 19.093 C 3.314 19.162,3.448 19.176,4.080 19.192 L 4.820 19.210 4.951 18.889 C 5.274 18.100,5.807 17.507,6.572 17.084 L 6.870 16.920 7.729 16.920 C 8.699 16.920,8.789 16.936,9.234 17.196 C 9.820 17.539,10.314 18.126,10.628 18.856 L 10.780 19.210 11.500 19.188 C 11.896 19.176,12.288 19.146,12.372 19.121 C 12.467 19.092,12.620 18.981,12.776 18.828 C 13.222 18.390,13.175 19.193,13.176 12.020 C 13.177 7.158,13.166 5.708,13.128 5.598 C 13.082 5.465,12.760 5.117,12.505 4.926 L 12.389 4.840 9.585 4.848 C 8.042 4.852,5.970 4.866,4.980 4.878 M16.640 8.476 C 16.230 8.514,15.960 8.707,15.685 9.160 L 15.600 9.300 15.600 13.064 L 15.600 16.828 16.150 16.855 C 17.053 16.900,17.407 17.011,17.949 17.418 C 18.398 17.756,18.801 18.295,19.045 18.887 L 19.175 19.200 19.597 19.199 C 20.301 19.197,20.738 19.140,20.931 19.026 C 21.122 18.913,21.343 18.694,21.496 18.464 L 21.600 18.309 21.600 15.004 L 21.599 11.700 21.403 11.440 C 20.965 10.859,19.039 8.924,18.586 8.610 C 18.450 8.516,18.373 8.496,18.044 8.474 C 17.584 8.443,16.996 8.444,16.640 8.476 M15.871 18.062 C 15.151 18.237,14.563 18.849,14.430 19.562 C 14.271 20.417,15.027 21.390,15.987 21.567 C 16.193 21.606,16.278 21.602,16.505 21.546 C 16.891 21.451,17.094 21.341,17.379 21.075 C 17.665 20.807,17.844 20.500,17.944 20.103 C 18.003 19.865,18.006 19.792,17.964 19.583 C 17.811 18.823,17.251 18.235,16.516 18.062 C 16.212 17.990,16.169 17.990,15.871 18.062 M7.080 18.187 C 6.952 18.252,6.726 18.433,6.539 18.619 C 6.263 18.894,6.205 18.977,6.130 19.200 C 5.889 19.914,6.026 20.472,6.577 21.023 C 6.897 21.343,7.165 21.490,7.569 21.564 C 8.579 21.750,9.684 20.702,9.587 19.650 C 9.536 19.097,9.139 18.532,8.599 18.240 C 8.347 18.104,8.327 18.100,7.820 18.088 C 7.317 18.075,7.293 18.079,7.080 18.187 " fill="#373B4D" stroke="none" fill-rule="evenodd"></path></svg>