<svg width="24" height="24" viewBox="0 0 24 24" fill="none" xmlns="http://www.w3.org/2000/svg"><path d="M5.560 4.879 C 2.910 4.907,3.075 4.886,2.742 5.242 C 2.641 5.350,2.540 5.488,2.516 5.549 C 2.375 5.921,2.375 18.092,2.516 18.454 C 2.579 18.614,3.007 19.030,3.188 19.107 C 3.302 19.155,3.526 19.176,4.080 19.190 L 4.820 19.210 4.937 18.935 C 5.161 18.405,5.357 18.114,5.756 17.720 C 6.019 17.460,6.254 17.273,6.500 17.127 L 6.860 16.914 7.783 16.927 L 8.706 16.940 9.043 17.108 C 9.709 17.441,10.226 18.004,10.588 18.793 L 10.780 19.210 11.500 19.184 C 11.896 19.170,12.268 19.148,12.327 19.135 C 12.447 19.109,12.925 18.730,13.018 18.588 C 13.051 18.538,13.097 18.372,13.120 18.219 C 13.179 17.823,13.211 11.806,13.172 8.394 L 13.140 5.568 12.976 5.374 C 12.886 5.267,12.719 5.104,12.605 5.010 L 12.397 4.840 10.149 4.847 C 8.912 4.852,6.847 4.866,5.560 4.879 M16.740 8.480 C 16.564 8.495,16.384 8.523,16.340 8.541 C 16.138 8.624,15.914 8.819,15.764 9.044 L 15.600 9.289 15.600 13.059 L 15.600 16.829 16.110 16.858 C 17.062 16.911,17.453 17.036,17.988 17.457 C 18.422 17.800,18.741 18.232,19.023 18.861 L 19.180 19.210 19.840 19.188 C 20.217 19.176,20.589 19.142,20.708 19.110 C 20.953 19.043,21.220 18.836,21.442 18.542 L 21.600 18.333 21.600 15.015 L 21.600 11.698 21.335 11.359 C 20.974 10.898,18.831 8.763,18.587 8.621 C 18.422 8.525,18.330 8.504,17.947 8.477 C 17.437 8.440,17.194 8.441,16.740 8.480 M15.893 18.055 C 14.982 18.283,14.285 19.217,14.433 20.012 C 14.573 20.764,15.215 21.407,15.983 21.564 C 16.441 21.657,17.009 21.443,17.424 21.020 C 17.695 20.744,17.843 20.476,17.948 20.070 C 18.015 19.813,18.015 19.787,17.948 19.530 C 17.847 19.141,17.691 18.855,17.439 18.597 C 17.015 18.162,16.370 17.936,15.893 18.055 M7.220 18.126 C 6.886 18.254,6.323 18.776,6.179 19.093 C 6.043 19.391,5.985 19.779,6.034 20.044 C 6.091 20.345,6.165 20.506,6.385 20.798 C 6.831 21.392,7.532 21.694,8.116 21.544 C 8.840 21.359,9.403 20.778,9.566 20.048 C 9.628 19.772,9.571 19.405,9.416 19.087 C 9.281 18.809,8.860 18.382,8.569 18.227 C 8.377 18.124,8.313 18.113,7.849 18.097 C 7.523 18.087,7.297 18.097,7.220 18.126 " fill="#373B4D" stroke="none" fill-rule="evenodd"></path></svg>