<svg width="24" height="24" viewBox="0 0 24 24" fill="none" xmlns="http://www.w3.org/2000/svg"><path d="M7.300 4.885 C 4.558 4.916,3.349 4.961,3.066 5.042 C 2.914 5.085,2.636 5.326,2.502 5.532 C 2.440 5.627,2.432 5.952,2.413 9.408 C 2.391 13.632,2.445 18.073,2.524 18.355 C 2.579 18.556,2.888 18.891,3.169 19.055 C 3.330 19.150,3.387 19.158,4.081 19.184 L 4.820 19.211 4.976 18.915 C 5.384 18.141,5.874 17.578,6.529 17.128 L 6.838 16.916 7.819 16.944 L 8.799 16.972 9.156 17.206 C 9.813 17.636,10.119 17.986,10.562 18.815 L 10.773 19.211 11.416 19.189 C 12.165 19.163,12.385 19.110,12.673 18.882 C 12.942 18.669,13.037 18.524,13.084 18.251 C 13.134 17.958,13.196 12.811,13.198 8.714 L 13.200 5.568 12.810 5.205 L 12.420 4.842 11.220 4.848 C 10.560 4.851,8.796 4.867,7.300 4.885 M16.660 8.517 C 16.290 8.572,15.992 8.754,15.747 9.076 L 15.600 9.269 15.600 13.050 L 15.600 16.832 15.890 16.859 C 16.299 16.898,16.951 16.995,17.139 17.045 C 17.854 17.237,18.579 17.969,19.084 19.010 L 19.176 19.200 19.518 19.200 C 20.010 19.199,20.524 19.132,20.785 19.035 C 20.954 18.971,21.087 18.876,21.306 18.660 L 21.600 18.371 21.600 15.012 L 21.600 11.654 20.967 10.977 C 20.199 10.155,18.934 8.928,18.660 8.739 C 18.533 8.651,18.380 8.587,18.240 8.563 C 17.937 8.511,16.904 8.481,16.660 8.517 M15.740 18.131 C 15.246 18.335,14.827 18.714,14.610 19.153 C 14.470 19.435,14.460 19.480,14.460 19.818 C 14.460 20.156,14.469 20.198,14.600 20.440 C 14.925 21.044,15.673 21.571,16.213 21.577 C 16.909 21.585,17.776 20.790,17.965 19.969 C 18.007 19.787,18.003 19.734,17.924 19.493 C 17.734 18.915,17.392 18.519,16.852 18.252 C 16.587 18.121,16.513 18.103,16.206 18.093 C 15.996 18.086,15.813 18.101,15.740 18.131 M7.060 18.244 C 6.828 18.370,6.308 18.907,6.189 19.142 C 5.892 19.729,6.007 20.338,6.520 20.895 C 7.303 21.745,8.252 21.768,9.019 20.955 C 9.520 20.424,9.690 19.873,9.504 19.380 C 9.357 18.989,8.869 18.427,8.512 18.236 C 8.463 18.209,8.169 18.183,7.823 18.174 C 7.263 18.159,7.209 18.164,7.060 18.244 " fill="#373B4D" stroke="none" fill-rule="evenodd"></path></svg>