<svg width="24" height="24" viewBox="0 0 24 24" fill="none" xmlns="http://www.w3.org/2000/svg"><path d="M6.748 4.885 C 5.190 4.902,3.727 4.933,3.498 4.955 C 3.014 5.000,2.894 5.057,2.636 5.365 L 2.468 5.566 2.436 7.513 C 2.371 11.535,2.409 17.554,2.504 18.287 C 2.530 18.485,2.552 18.520,2.822 18.787 C 3.015 18.978,3.164 19.089,3.266 19.120 C 3.351 19.145,3.735 19.175,4.120 19.187 L 4.820 19.209 5.016 18.819 C 5.377 18.101,5.826 17.594,6.508 17.136 L 6.845 16.909 7.812 16.938 L 8.780 16.966 9.046 17.122 C 9.453 17.362,9.865 17.709,10.074 17.988 C 10.178 18.127,10.380 18.459,10.522 18.725 L 10.780 19.210 11.500 19.184 C 12.164 19.161,12.236 19.151,12.432 19.055 C 12.721 18.915,13.015 18.614,13.078 18.394 C 13.141 18.174,13.192 14.242,13.197 9.174 L 13.200 5.568 12.810 5.205 L 12.420 4.842 11.000 4.848 C 10.219 4.851,8.305 4.867,6.748 4.885 M16.763 8.486 C 16.289 8.542,16.021 8.697,15.742 9.077 L 15.600 9.271 15.600 13.050 L 15.600 16.828 16.135 16.877 C 17.208 16.973,17.597 17.123,18.148 17.653 C 18.519 18.008,18.745 18.324,19.005 18.850 L 19.178 19.200 19.539 19.199 C 20.065 19.198,20.625 19.131,20.815 19.045 C 21.030 18.948,21.241 18.776,21.440 18.535 L 21.600 18.341 21.600 15.001 L 21.599 11.660 21.165 11.180 C 20.526 10.473,18.808 8.791,18.600 8.670 C 18.304 8.497,17.419 8.408,16.763 8.486 M15.840 18.092 C 15.164 18.284,14.565 18.925,14.441 19.590 C 14.356 20.048,14.555 20.544,15.006 20.997 C 15.388 21.382,15.953 21.628,16.344 21.580 C 17.043 21.496,17.815 20.735,17.966 19.985 C 18.001 19.809,17.997 19.729,17.941 19.537 C 17.787 19.009,17.541 18.659,17.130 18.387 C 16.691 18.097,16.211 17.987,15.840 18.092 M7.180 18.160 C 7.025 18.211,6.570 18.600,6.344 18.875 C 6.087 19.189,5.957 19.691,6.041 20.049 C 6.207 20.757,6.874 21.409,7.580 21.552 C 8.323 21.703,9.259 21.028,9.526 20.149 C 9.602 19.898,9.607 19.840,9.565 19.616 C 9.487 19.192,9.387 19.016,9.004 18.633 C 8.810 18.439,8.586 18.253,8.506 18.220 C 8.330 18.146,7.358 18.103,7.180 18.160 " fill="#373B4D" stroke="none" fill-rule="evenodd"></path></svg>