<svg width="24" height="24" viewBox="0 0 24 24" fill="none" xmlns="http://www.w3.org/2000/svg"><path d="M5.980 4.884 C 4.419 4.901,3.276 4.930,3.183 4.954 C 2.989 5.004,2.870 5.091,2.664 5.335 L 2.503 5.525 2.473 6.013 C 2.457 6.281,2.432 8.228,2.418 10.340 C 2.390 14.286,2.438 18.245,2.516 18.450 C 2.571 18.595,3.000 19.012,3.183 19.099 C 3.302 19.155,3.479 19.173,4.076 19.189 L 4.820 19.210 5.013 18.789 C 5.330 18.100,5.839 17.542,6.559 17.095 L 6.858 16.909 7.805 16.929 L 8.752 16.948 9.102 17.144 C 9.505 17.370,9.928 17.744,10.178 18.096 C 10.273 18.230,10.448 18.536,10.566 18.775 L 10.780 19.210 11.539 19.184 C 12.243 19.159,12.309 19.150,12.459 19.061 C 12.769 18.877,13.026 18.615,13.078 18.431 C 13.180 18.071,13.228 12.805,13.173 7.922 L 13.147 5.544 12.792 5.192 L 12.437 4.840 10.528 4.847 C 9.479 4.851,7.432 4.868,5.980 4.884 M16.756 8.482 C 16.542 8.501,16.353 8.543,16.256 8.593 C 16.094 8.676,15.836 8.928,15.686 9.146 L 15.600 9.272 15.600 13.049 L 15.600 16.826 16.210 16.873 C 17.249 16.953,17.628 17.109,18.224 17.699 C 18.601 18.072,18.813 18.389,19.052 18.930 L 19.177 19.212 19.839 19.187 C 20.249 19.172,20.578 19.140,20.704 19.102 C 20.960 19.025,21.215 18.832,21.432 18.551 L 21.600 18.333 21.600 15.008 L 21.600 11.684 21.392 11.432 C 20.759 10.666,18.743 8.679,18.492 8.574 C 18.361 8.519,17.564 8.437,17.260 8.446 C 17.172 8.449,16.945 8.465,16.756 8.482 M15.667 18.135 C 15.025 18.406,14.566 18.933,14.439 19.547 C 14.344 20.004,14.530 20.519,14.950 20.965 C 15.243 21.276,15.619 21.489,16.011 21.566 C 16.794 21.720,17.753 20.959,17.964 20.017 C 18.008 19.822,18.005 19.757,17.944 19.526 C 17.786 18.930,17.423 18.480,16.886 18.214 C 16.619 18.082,16.539 18.062,16.241 18.050 C 15.950 18.039,15.866 18.052,15.667 18.135 M7.340 18.117 C 7.084 18.161,6.923 18.268,6.556 18.636 C 6.253 18.939,6.202 19.011,6.129 19.240 C 6.008 19.619,5.988 19.808,6.041 20.068 C 6.228 20.971,7.241 21.724,8.044 21.557 C 8.776 21.405,9.412 20.773,9.562 20.049 C 9.619 19.779,9.568 19.423,9.431 19.126 C 9.320 18.886,8.757 18.320,8.520 18.211 C 8.323 18.120,7.637 18.066,7.340 18.117 " fill="#373B4D" stroke="none" fill-rule="evenodd"></path></svg>