<svg width="24" height="24" viewBox="0 0 24 24" fill="none" xmlns="http://www.w3.org/2000/svg"><path d="M10.830 3.490 C 10.741 4.142,10.567 4.717,10.282 5.300 C 9.697 6.499,8.824 7.342,7.680 7.812 C 7.493 7.889,7.264 7.975,7.170 8.002 L 7.000 8.053 7.000 9.506 L 7.000 10.960 8.200 10.960 L 9.400 10.960 9.403 13.170 C 9.404 14.386,9.420 15.830,9.438 16.380 C 9.469 17.316,9.479 17.411,9.596 17.856 C 9.821 18.711,10.126 19.242,10.726 19.825 C 11.268 20.351,11.740 20.611,12.527 20.815 C 13.097 20.964,13.661 21.000,15.410 21.000 L 17.000 21.000 17.000 19.240 L 17.000 17.480 16.150 17.479 C 15.220 17.477,14.824 17.428,14.500 17.276 C 14.223 17.146,13.975 16.884,13.829 16.567 L 13.706 16.300 13.676 15.120 C 13.660 14.471,13.645 13.270,13.643 12.450 L 13.640 10.961 15.250 10.950 L 16.860 10.940 16.870 9.270 L 16.881 7.600 15.260 7.600 L 13.640 7.600 13.640 5.300 L 13.640 3.000 12.268 3.000 L 10.897 3.000 10.830 3.490 " fill="#373B4D" stroke="none" fill-rule="evenodd"></path></svg>