<svg width="24" height="24" viewBox="0 0 24 24" fill="none" xmlns="http://www.w3.org/2000/svg"><path d="M10.805 3.520 C 10.641 4.468,10.336 5.253,9.847 5.983 C 9.586 6.372,9.017 6.971,8.633 7.259 C 8.355 7.468,7.553 7.880,7.223 7.984 L 7.000 8.055 7.000 9.507 L 7.000 10.960 8.200 10.960 L 9.400 10.960 9.402 12.890 C 9.404 15.616,9.455 17.161,9.556 17.620 C 9.723 18.375,9.937 18.845,10.354 19.369 C 11.075 20.276,11.972 20.772,13.160 20.921 C 13.347 20.945,14.287 20.975,15.250 20.987 L 17.000 21.011 17.000 19.251 L 17.000 17.491 16.090 17.468 C 15.139 17.443,14.780 17.393,14.489 17.244 C 14.299 17.148,13.971 16.791,13.829 16.528 L 13.728 16.340 13.684 14.300 C 13.659 13.178,13.639 11.968,13.640 11.610 L 13.640 10.961 15.250 10.950 L 16.860 10.940 16.870 9.270 L 16.881 7.600 15.260 7.600 L 13.640 7.600 13.640 5.300 L 13.640 3.000 12.267 3.000 L 10.894 3.000 10.805 3.520 " fill="#373B4D" stroke="none" fill-rule="evenodd"></path></svg>