<svg width="24" height="24" viewBox="0 0 24 24" fill="none" xmlns="http://www.w3.org/2000/svg"><path d="M10.842 3.330 C 10.696 4.355,10.387 5.186,9.848 6.000 C 9.545 6.459,8.910 7.092,8.463 7.382 C 8.112 7.610,7.502 7.902,7.170 8.002 L 7.000 8.053 7.000 9.506 L 7.000 10.960 8.196 10.960 L 9.391 10.960 9.411 13.830 C 9.424 15.606,9.449 16.853,9.477 17.100 C 9.608 18.238,9.937 18.972,10.638 19.694 C 11.233 20.307,11.763 20.614,12.596 20.825 C 13.079 20.947,14.005 20.999,15.750 20.999 L 17.000 21.000 17.000 19.240 L 17.000 17.480 16.370 17.479 C 15.552 17.477,14.968 17.423,14.658 17.319 C 14.455 17.252,14.365 17.191,14.170 16.987 C 14.038 16.850,13.884 16.647,13.828 16.536 L 13.726 16.335 13.683 14.501 C 13.659 13.493,13.640 12.284,13.640 11.814 L 13.640 10.961 15.250 10.950 L 16.860 10.940 16.870 9.270 L 16.881 7.600 15.260 7.600 L 13.640 7.600 13.640 5.300 L 13.640 3.000 12.265 3.000 L 10.889 3.000 10.842 3.330 " fill="#373B4D" stroke="none" fill-rule="evenodd"></path></svg>