<svg width="24" height="24" viewBox="0 0 24 24" fill="none" xmlns="http://www.w3.org/2000/svg"><path d="M10.862 3.290 C 10.711 4.867,9.906 6.362,8.740 7.231 C 8.384 7.496,7.795 7.798,7.348 7.943 L 7.000 8.056 7.000 9.508 L 7.000 10.960 8.197 10.960 L 9.394 10.960 9.412 14.010 C 9.427 16.516,9.441 17.117,9.491 17.380 C 9.704 18.504,10.009 19.129,10.660 19.780 C 11.206 20.326,11.725 20.615,12.527 20.818 C 13.149 20.975,13.528 21.000,15.310 21.000 L 17.000 21.000 17.000 19.240 L 17.000 17.480 16.170 17.479 C 15.713 17.479,15.220 17.461,15.073 17.440 C 14.334 17.333,13.937 16.998,13.729 16.307 C 13.676 16.132,13.664 15.706,13.650 13.530 L 13.634 10.961 15.247 10.950 L 16.860 10.940 16.870 9.270 L 16.881 7.600 15.260 7.600 L 13.640 7.600 13.640 5.300 L 13.640 3.000 12.265 3.000 L 10.890 3.000 10.862 3.290 " fill="#373B4D" stroke="none" fill-rule="evenodd"></path></svg>