<svg width="24" height="24" viewBox="0 0 24 24" fill="none" xmlns="http://www.w3.org/2000/svg"><path d="M10.859 3.230 C 10.624 5.272,9.502 6.959,7.872 7.718 C 7.690 7.803,7.419 7.915,7.270 7.966 L 7.000 8.060 7.000 9.510 L 7.000 10.960 8.200 10.960 L 9.400 10.960 9.401 13.290 C 9.402 16.672,9.448 17.434,9.697 18.175 C 9.910 18.808,10.194 19.267,10.673 19.751 C 11.162 20.244,11.632 20.534,12.273 20.736 C 12.939 20.945,13.196 20.968,15.170 20.989 L 17.000 21.009 17.000 19.249 L 17.000 17.490 16.050 17.469 C 15.099 17.447,14.854 17.415,14.510 17.268 C 14.296 17.177,13.987 16.851,13.842 16.565 L 13.719 16.319 13.680 14.670 C 13.659 13.762,13.641 12.557,13.641 11.990 L 13.640 10.961 15.250 10.950 L 16.860 10.940 16.870 9.270 L 16.881 7.600 15.260 7.600 L 13.640 7.600 13.640 5.300 L 13.640 3.000 12.263 3.000 L 10.886 3.000 10.859 3.230 " fill="#373B4D" stroke="none" fill-rule="evenodd"></path></svg>