<svg width="24" height="24" viewBox="0 0 24 24" fill="none" xmlns="http://www.w3.org/2000/svg"><path d="M10.180 2.164 C 8.405 2.589,7.008 3.242,5.739 4.241 C 5.328 4.564,4.448 5.453,4.112 5.884 C 2.924 7.408,2.222 9.231,2.035 11.280 C 1.871 13.084,2.333 15.149,3.285 16.864 C 3.803 17.795,4.097 18.170,5.046 19.103 C 5.729 19.775,6.228 20.182,6.780 20.517 C 7.144 20.737,8.013 21.162,8.420 21.318 C 9.073 21.569,10.078 21.821,10.840 21.925 C 11.330 21.992,12.670 21.992,13.160 21.925 C 14.762 21.706,16.294 21.132,17.595 20.264 C 18.047 19.962,18.265 19.778,18.875 19.180 C 19.669 18.402,19.945 18.087,20.314 17.535 C 21.164 16.264,21.809 14.468,21.923 13.051 C 21.983 12.320,21.949 10.927,21.861 10.401 C 21.702 9.458,21.408 8.570,20.942 7.620 C 20.528 6.776,20.014 6.000,19.471 5.400 C 18.453 4.277,17.696 3.713,16.300 3.037 C 15.544 2.671,15.048 2.482,14.417 2.319 C 13.831 2.168,13.340 2.129,11.760 2.106 C 10.617 2.089,10.470 2.095,10.180 2.164 M12.841 4.762 C 13.730 4.872,14.417 5.070,15.188 5.440 C 15.773 5.720,16.136 5.949,16.628 6.347 C 17.910 7.384,18.788 8.846,19.144 10.540 C 19.272 11.150,19.317 12.226,19.241 12.871 C 18.910 15.680,16.978 18.052,14.301 18.937 C 12.743 19.452,11.109 19.437,9.545 18.893 C 6.987 18.003,5.074 15.597,4.757 12.873 C 4.688 12.277,4.729 11.134,4.839 10.582 C 5.295 8.293,6.763 6.414,8.881 5.406 C 9.598 5.064,10.428 4.825,11.160 4.748 C 11.479 4.714,12.526 4.723,12.841 4.762 M9.030 7.563 C 8.385 7.715,7.724 8.398,7.541 9.102 C 7.337 9.885,7.712 10.742,8.482 11.253 C 9.277 11.781,10.171 11.683,10.905 10.989 C 11.369 10.550,11.640 9.913,11.581 9.400 C 11.549 9.123,11.428 8.747,11.306 8.545 C 11.145 8.279,10.680 7.845,10.420 7.719 C 10.053 7.541,9.425 7.470,9.030 7.563 M13.969 7.562 C 13.718 7.612,13.347 7.824,13.106 8.056 C 12.291 8.840,12.191 9.863,12.844 10.731 C 13.303 11.341,14.077 11.678,14.750 11.561 C 15.665 11.402,16.442 10.571,16.510 9.679 C 16.566 8.940,16.063 8.072,15.385 7.740 C 14.960 7.531,14.451 7.468,13.969 7.562 M9.082 12.481 C 8.807 12.539,8.523 12.695,8.229 12.950 C 7.810 13.311,7.662 13.536,7.563 13.954 C 7.464 14.378,7.459 14.621,7.542 14.942 C 7.694 15.529,8.280 16.155,8.916 16.408 C 9.211 16.525,9.799 16.535,10.107 16.428 C 10.569 16.267,11.130 15.788,11.354 15.363 C 11.510 15.069,11.617 14.576,11.581 14.329 C 11.455 13.488,10.994 12.897,10.204 12.564 C 9.959 12.460,9.382 12.418,9.082 12.481 M14.000 12.495 C 12.994 12.715,12.212 13.923,12.457 14.881 C 12.493 15.023,12.561 15.221,12.608 15.320 C 12.719 15.552,13.320 16.150,13.583 16.290 C 14.361 16.702,15.210 16.545,15.899 15.860 C 16.634 15.131,16.712 14.156,16.104 13.304 C 15.621 12.627,14.814 12.317,14.000 12.495 " fill="#373B4D" stroke="none" fill-rule="evenodd"></path></svg>