<svg width="24" height="24" viewBox="0 0 24 24" fill="none" xmlns="http://www.w3.org/2000/svg"><path d="M10.720 2.081 C 5.977 2.729,2.331 6.603,2.033 11.310 C 1.881 13.721,2.504 15.889,3.931 17.915 C 4.255 18.375,5.625 19.745,6.085 20.069 C 8.107 21.494,10.277 22.116,12.690 21.965 C 13.669 21.903,14.628 21.694,15.569 21.338 C 16.447 21.004,17.528 20.387,18.240 19.812 C 18.701 19.439,19.789 18.303,20.080 17.891 C 21.036 16.535,21.592 15.195,21.882 13.540 C 21.952 13.144,21.967 12.889,21.970 12.080 C 21.973 10.964,21.931 10.545,21.739 9.764 C 21.196 7.555,20.094 5.755,18.420 4.341 C 17.417 3.494,15.885 2.694,14.629 2.362 C 13.672 2.108,13.360 2.070,12.120 2.058 C 11.493 2.051,10.863 2.062,10.720 2.081 M12.688 4.720 C 15.201 4.928,17.481 6.498,18.580 8.777 C 19.937 11.591,19.384 14.968,17.210 17.152 C 15.723 18.646,13.827 19.386,11.684 19.308 C 9.349 19.224,7.220 18.033,5.918 16.084 C 4.281 13.636,4.274 10.368,5.899 7.940 C 6.456 7.107,7.095 6.468,7.927 5.910 C 9.324 4.974,10.925 4.574,12.688 4.720 M9.022 7.541 C 8.672 7.630,8.324 7.843,8.050 8.135 C 7.296 8.942,7.289 10.154,8.036 10.912 C 8.459 11.342,8.849 11.538,9.382 11.588 C 10.379 11.681,11.365 10.912,11.563 9.888 C 11.650 9.433,11.530 8.823,11.282 8.463 C 11.155 8.279,10.810 7.933,10.600 7.780 C 10.273 7.540,9.494 7.422,9.022 7.541 M13.964 7.539 C 13.371 7.674,12.754 8.239,12.522 8.860 C 12.347 9.327,12.381 9.967,12.604 10.411 C 13.033 11.264,14.016 11.750,14.896 11.543 C 16.020 11.279,16.739 10.139,16.460 9.065 C 16.325 8.547,15.992 8.077,15.566 7.804 C 15.134 7.527,14.488 7.420,13.964 7.539 M9.091 12.461 C 8.732 12.538,8.379 12.741,8.080 13.040 C 7.779 13.341,7.627 13.602,7.542 13.963 C 7.369 14.696,7.561 15.369,8.096 15.903 C 8.918 16.723,10.144 16.730,10.961 15.920 C 11.696 15.190,11.797 14.166,11.217 13.313 C 10.927 12.887,10.446 12.568,9.925 12.458 C 9.602 12.389,9.416 12.390,9.091 12.461 M14.120 12.441 C 13.019 12.632,12.216 13.783,12.438 14.851 C 12.593 15.594,13.253 16.291,13.963 16.458 C 14.696 16.631,15.369 16.439,15.904 15.904 C 16.325 15.482,16.517 15.038,16.519 14.478 C 16.524 13.223,15.350 12.227,14.120 12.441 " fill="#373B4D" stroke="none" fill-rule="evenodd"></path></svg>