<svg width="24" height="24" viewBox="0 0 24 24" fill="none" xmlns="http://www.w3.org/2000/svg"><path d="M10.020 2.204 C 8.409 2.579,6.898 3.301,5.700 4.268 C 5.172 4.694,4.375 5.518,3.985 6.040 C 2.067 8.610,1.498 12.029,2.486 15.040 C 2.866 16.196,3.522 17.425,4.174 18.200 C 4.577 18.678,5.456 19.543,5.916 19.913 C 6.416 20.315,6.920 20.626,7.620 20.964 C 8.339 21.311,8.829 21.490,9.577 21.679 C 10.325 21.868,10.905 21.953,11.669 21.985 C 13.833 22.076,16.188 21.333,18.000 19.986 C 18.424 19.671,19.483 18.630,19.877 18.139 C 20.797 16.997,21.498 15.434,21.842 13.760 C 21.951 13.233,21.991 11.873,21.925 10.968 C 21.811 9.410,21.117 7.602,20.060 6.109 C 19.697 5.596,18.755 4.607,18.260 4.220 C 17.264 3.441,15.884 2.736,14.659 2.381 C 13.862 2.150,13.651 2.128,12.040 2.104 L 10.540 2.083 10.020 2.204 M13.029 4.782 C 15.776 5.156,18.042 7.034,18.917 9.664 C 19.687 11.977,19.280 14.488,17.824 16.420 C 16.126 18.670,13.280 19.735,10.500 19.161 C 9.038 18.859,7.801 18.173,6.750 17.083 C 4.557 14.809,4.072 11.385,5.543 8.563 C 6.522 6.685,8.470 5.234,10.540 4.842 C 11.410 4.677,12.128 4.660,13.029 4.782 M8.886 7.600 C 8.580 7.710,8.328 7.883,8.045 8.178 C 7.588 8.654,7.394 9.305,7.524 9.928 C 7.687 10.710,8.447 11.432,9.252 11.570 C 10.276 11.746,11.378 10.908,11.566 9.814 C 11.625 9.469,11.554 9.032,11.379 8.662 C 11.235 8.357,10.732 7.849,10.436 7.709 C 10.010 7.508,9.283 7.457,8.886 7.600 M13.819 7.595 C 13.140 7.840,12.540 8.561,12.432 9.263 C 12.340 9.860,12.563 10.492,13.031 10.958 C 13.345 11.270,13.666 11.445,14.110 11.544 C 14.735 11.683,15.382 11.468,15.899 10.950 C 16.578 10.269,16.700 9.443,16.249 8.585 C 15.969 8.052,15.490 7.681,14.928 7.564 C 14.599 7.496,14.053 7.511,13.819 7.595 M8.939 12.512 C 8.622 12.622,8.380 12.783,8.064 13.095 C 7.725 13.429,7.664 13.531,7.558 13.949 C 7.364 14.705,7.538 15.300,8.120 15.883 C 8.972 16.735,10.096 16.737,10.955 15.887 C 11.317 15.529,11.456 15.275,11.549 14.805 C 11.607 14.507,11.607 14.453,11.548 14.152 C 11.513 13.972,11.426 13.708,11.356 13.566 C 11.121 13.088,10.601 12.668,10.043 12.504 C 9.751 12.418,9.199 12.422,8.939 12.512 M13.866 12.519 C 12.883 12.833,12.213 13.976,12.459 14.920 C 12.559 15.303,12.704 15.542,13.044 15.883 C 13.879 16.721,14.998 16.734,15.860 15.914 C 16.419 15.383,16.624 14.747,16.460 14.050 C 16.288 13.319,15.680 12.684,14.979 12.502 C 14.658 12.418,14.158 12.426,13.866 12.519 " fill="#373B4D" stroke="none" fill-rule="evenodd"></path></svg>