<svg width="24" height="24" viewBox="0 0 24 24" fill="none" xmlns="http://www.w3.org/2000/svg"><path d="M11.080 2.042 C 8.669 2.274,6.451 3.347,4.772 5.095 C 3.336 6.589,2.421 8.471,2.092 10.600 C 1.993 11.245,1.993 12.755,2.092 13.400 C 2.359 15.132,3.006 16.677,4.045 18.068 C 4.422 18.572,5.428 19.578,5.932 19.955 C 7.319 20.992,8.873 21.641,10.600 21.907 C 11.244 22.006,12.756 22.006,13.400 21.907 C 15.128 21.641,16.685 20.990,18.068 19.954 C 18.572 19.577,19.577 18.572,19.954 18.068 C 20.990 16.685,21.641 15.128,21.907 13.400 C 21.959 13.058,21.978 12.699,21.978 12.000 C 21.978 10.963,21.928 10.517,21.717 9.650 C 21.007 6.744,19.099 4.362,16.420 3.039 C 15.457 2.563,14.512 2.270,13.400 2.102 C 12.892 2.025,11.603 1.991,11.080 2.042 M12.979 4.740 C 16.270 5.178,18.829 7.740,19.260 11.028 C 19.741 14.696,17.488 18.092,13.920 19.079 C 13.015 19.329,11.790 19.394,10.860 19.241 C 8.468 18.847,6.516 17.421,5.441 15.281 C 4.659 13.727,4.469 11.848,4.918 10.109 C 5.647 7.281,8.069 5.139,10.987 4.742 C 11.517 4.670,12.443 4.669,12.979 4.740 M9.004 7.543 C 7.734 7.885,7.109 9.313,7.710 10.500 C 7.848 10.772,8.326 11.240,8.600 11.372 C 9.432 11.772,10.345 11.623,10.984 10.984 C 11.623 10.345,11.772 9.432,11.372 8.600 C 11.243 8.331,10.781 7.862,10.497 7.711 C 10.075 7.486,9.469 7.418,9.004 7.543 M13.924 7.543 C 13.586 7.634,13.324 7.795,13.017 8.099 C 12.714 8.400,12.564 8.658,12.461 9.058 C 12.187 10.128,12.878 11.249,13.989 11.537 C 14.819 11.752,15.716 11.383,16.208 10.623 C 16.952 9.473,16.322 7.891,14.978 7.541 C 14.687 7.465,14.210 7.466,13.924 7.543 M9.134 12.442 C 8.717 12.524,8.322 12.756,8.004 13.103 C 7.645 13.496,7.480 13.923,7.480 14.460 C 7.480 15.018,7.690 15.529,8.081 15.919 C 8.759 16.598,9.832 16.720,10.623 16.208 C 11.379 15.718,11.739 14.855,11.540 14.010 C 11.286 12.935,10.204 12.230,9.134 12.442 M13.985 12.463 C 12.897 12.727,12.188 13.879,12.461 14.942 C 12.563 15.339,12.714 15.600,13.017 15.904 C 13.448 16.337,13.876 16.520,14.460 16.520 C 15.394 16.520,16.188 15.917,16.456 15.003 C 16.492 14.882,16.520 14.640,16.520 14.457 C 16.520 13.144,15.261 12.155,13.985 12.463 " fill="#373B4D" stroke="none" fill-rule="evenodd"></path></svg>