<svg width="24" height="24" viewBox="0 0 24 24" fill="none" xmlns="http://www.w3.org/2000/svg"><path d="M15.356 4.045 C 13.927 4.179,12.532 5.260,12.016 6.633 C 11.804 7.199,11.748 7.562,11.774 8.194 C 11.786 8.494,11.802 8.785,11.808 8.840 C 11.820 8.938,11.816 8.940,11.560 8.931 C 11.001 8.912,9.995 8.733,9.220 8.514 C 7.705 8.087,6.204 7.304,4.974 6.298 C 4.735 6.103,4.286 5.686,3.976 5.372 C 3.666 5.057,3.401 4.800,3.387 4.800 C 3.348 4.800,3.183 5.145,3.069 5.462 C 2.520 6.991,3.013 8.755,4.292 9.843 L 4.594 10.100 4.458 10.112 C 4.273 10.129,3.534 9.946,3.186 9.797 C 3.029 9.730,2.875 9.664,2.844 9.651 C 2.762 9.616,2.814 10.168,2.937 10.648 C 3.282 11.995,4.357 13.125,5.670 13.521 C 5.830 13.569,5.969 13.622,5.980 13.640 C 6.022 13.708,5.420 13.768,4.842 13.754 L 4.252 13.740 4.367 14.009 C 4.934 15.343,6.088 16.214,7.630 16.475 L 8.060 16.548 7.683 16.795 C 6.144 17.807,4.535 18.274,2.725 18.234 C 2.103 18.220,2.084 18.222,2.170 18.291 C 2.357 18.438,3.801 19.125,4.286 19.298 C 6.863 20.214,9.650 20.232,12.260 19.347 C 13.936 18.779,15.223 17.976,16.501 16.700 C 18.722 14.481,19.959 11.520,19.960 8.420 L 19.960 7.979 20.230 7.773 C 20.732 7.390,21.983 6.049,21.908 5.975 C 21.898 5.964,21.694 6.021,21.456 6.101 C 20.822 6.313,19.720 6.573,19.720 6.510 C 19.720 6.500,19.844 6.399,19.996 6.286 C 20.331 6.036,20.738 5.604,20.982 5.237 C 21.165 4.962,21.400 4.485,21.400 4.390 C 21.400 4.357,21.247 4.413,20.983 4.543 C 20.483 4.789,19.897 5.005,19.304 5.162 L 18.867 5.277 18.644 5.085 C 17.944 4.485,17.102 4.110,16.342 4.059 C 16.165 4.047,15.948 4.032,15.860 4.025 C 15.772 4.019,15.545 4.027,15.356 4.045 " fill="#373B4D" stroke="none" fill-rule="evenodd"></path></svg>