<svg width="24" height="24" viewBox="0 0 24 24" fill="none" xmlns="http://www.w3.org/2000/svg"><path d="M5.666 3.696 L 4.000 5.392 4.000 11.496 L 4.000 17.600 6.000 17.600 L 8.000 17.600 8.002 19.290 L 8.004 20.980 9.672 19.290 L 11.340 17.601 12.684 17.590 L 14.027 17.580 17.013 14.540 L 19.999 11.500 20.000 6.750 L 20.000 2.000 13.666 2.000 L 7.332 2.000 5.666 3.696 M18.680 7.083 L 18.680 10.806 17.330 12.183 L 15.980 13.560 14.644 13.560 L 13.307 13.560 12.156 14.730 L 11.004 15.900 11.002 14.730 L 11.000 13.560 9.500 13.560 L 8.000 13.560 8.000 8.460 L 8.000 3.360 13.340 3.360 L 18.680 3.360 18.680 7.083 M11.680 7.760 L 11.680 9.800 12.340 9.800 L 13.000 9.800 13.000 7.760 L 13.000 5.720 12.340 5.720 L 11.680 5.720 11.680 7.760 M15.348 5.746 C 15.332 5.761,15.320 6.679,15.320 7.787 L 15.320 9.800 16.000 9.800 L 16.681 9.800 16.670 7.770 L 16.660 5.740 16.018 5.729 C 15.664 5.723,15.363 5.731,15.348 5.746 " fill="#373B4D" stroke="none" fill-rule="evenodd"></path></svg>