<svg width="24" height="24" viewBox="0 0 24 24" fill="none" xmlns="http://www.w3.org/2000/svg"><path d="M15.060 4.106 C 14.206 4.236,13.006 5.025,12.476 5.806 C 12.231 6.167,11.974 6.737,11.873 7.142 C 11.798 7.448,11.785 7.605,11.787 8.216 L 11.790 8.932 11.365 8.906 C 9.678 8.806,7.243 7.919,5.720 6.848 C 5.209 6.489,4.779 6.121,3.847 5.247 L 3.364 4.795 3.287 4.947 C 3.245 5.031,3.136 5.313,3.045 5.573 C 2.882 6.039,2.880 6.053,2.881 6.593 C 2.883 7.349,2.930 7.649,3.124 8.145 C 3.320 8.647,3.626 9.117,4.080 9.618 C 4.460 10.036,4.516 10.120,4.411 10.120 C 4.319 10.120,3.682 9.949,3.210 9.798 C 3.006 9.733,2.828 9.680,2.814 9.680 C 2.765 9.680,2.840 10.223,2.941 10.600 C 3.125 11.294,3.461 11.889,3.970 12.425 C 4.438 12.918,4.953 13.250,5.670 13.524 C 5.807 13.577,5.920 13.632,5.920 13.648 C 5.920 13.692,5.715 13.717,5.026 13.756 C 4.668 13.777,4.372 13.812,4.348 13.836 C 4.249 13.935,4.740 14.732,5.191 15.206 C 5.799 15.843,6.338 16.122,7.690 16.498 C 7.817 16.533,7.920 16.580,7.920 16.602 C 7.920 16.668,7.342 17.019,6.742 17.317 C 5.675 17.846,4.656 18.125,3.500 18.202 C 2.224 18.288,2.272 18.282,2.322 18.343 C 2.386 18.420,3.666 19.045,4.077 19.200 C 7.250 20.395,10.737 20.216,13.749 18.705 C 15.873 17.640,17.844 15.536,18.894 13.214 C 19.570 11.717,19.895 10.336,19.946 8.740 L 19.971 7.980 20.115 7.862 C 20.634 7.438,21.931 6.067,21.832 6.048 C 21.797 6.041,21.342 6.145,20.822 6.278 C 20.301 6.411,19.856 6.520,19.832 6.520 C 19.809 6.520,19.987 6.316,20.228 6.067 C 20.470 5.817,20.743 5.518,20.835 5.401 C 21.149 5.005,21.439 4.440,21.329 4.440 C 21.307 4.440,20.985 4.555,20.614 4.696 C 20.244 4.837,19.703 5.027,19.414 5.119 L 18.889 5.286 18.459 4.967 C 17.993 4.620,17.549 4.382,17.080 4.227 C 16.812 4.138,16.694 4.125,15.980 4.107 C 15.540 4.096,15.126 4.095,15.060 4.106 " fill="#373B4D" stroke="none" fill-rule="evenodd"></path></svg>