<svg width="24" height="24" viewBox="0 0 24 24" fill="none" xmlns="http://www.w3.org/2000/svg"><path d="M15.290 4.040 C 13.514 4.291,12.106 5.645,11.799 7.395 C 11.746 7.700,11.746 8.476,11.800 8.700 C 11.865 8.973,11.871 8.967,11.550 8.940 C 9.277 8.747,7.154 7.952,5.405 6.640 C 4.808 6.192,4.123 5.572,3.737 5.129 C 3.569 4.937,3.420 4.775,3.405 4.770 C 3.366 4.755,3.168 5.167,3.054 5.500 C 2.847 6.102,2.792 6.762,2.896 7.400 C 3.064 8.432,3.578 9.282,4.460 9.989 L 4.620 10.117 4.494 10.119 C 4.167 10.122,3.379 9.913,3.011 9.726 C 2.919 9.678,2.831 9.640,2.816 9.640 C 2.775 9.640,2.834 10.248,2.904 10.551 C 3.243 12.013,4.402 13.205,5.843 13.574 C 5.958 13.603,6.036 13.638,6.016 13.650 C 5.859 13.747,4.909 13.806,4.470 13.746 L 4.240 13.714 4.373 14.029 C 4.935 15.362,6.164 16.271,7.700 16.490 L 8.060 16.542 7.620 16.837 C 7.046 17.222,6.273 17.598,5.600 17.818 C 4.599 18.146,3.790 18.262,2.727 18.230 L 2.035 18.209 2.267 18.350 C 2.605 18.555,3.449 18.974,3.820 19.122 C 5.447 19.770,6.969 20.040,8.700 19.987 C 9.981 19.947,11.010 19.768,12.180 19.381 C 13.931 18.802,15.348 17.907,16.665 16.548 C 18.381 14.778,19.491 12.505,19.862 10.000 C 19.896 9.769,19.935 9.218,19.948 8.775 L 19.971 7.971 20.256 7.756 C 20.646 7.461,21.410 6.690,21.713 6.285 C 21.851 6.101,21.956 5.943,21.947 5.934 C 21.939 5.925,21.843 5.956,21.736 6.002 C 21.297 6.190,20.018 6.520,19.729 6.520 C 19.691 6.520,19.756 6.456,19.872 6.378 C 20.363 6.047,20.872 5.483,21.159 4.952 C 21.310 4.671,21.455 4.320,21.420 4.320 C 21.410 4.320,21.290 4.382,21.151 4.458 C 20.652 4.732,19.921 5.009,19.251 5.179 L 18.868 5.276 18.624 5.063 C 18.105 4.609,17.486 4.286,16.822 4.123 C 16.420 4.024,15.685 3.984,15.290 4.040 " fill="#373B4D" stroke="none" fill-rule="evenodd"></path></svg>