<svg width="24" height="24" viewBox="0 0 24 24" fill="none" xmlns="http://www.w3.org/2000/svg"><path d="M15.124 4.084 C 14.569 4.169,13.932 4.456,13.387 4.865 C 12.739 5.352,12.302 5.932,11.996 6.716 C 11.800 7.216,11.753 7.599,11.788 8.390 L 11.812 8.920 11.556 8.919 C 10.300 8.915,8.152 8.265,6.654 7.434 C 5.744 6.929,5.106 6.446,4.188 5.568 C 3.876 5.269,3.563 4.971,3.493 4.907 L 3.366 4.790 3.268 4.985 C 3.214 5.092,3.109 5.360,3.035 5.580 L 2.900 5.980 2.901 6.760 C 2.902 7.509,2.907 7.554,3.016 7.880 C 3.264 8.624,3.603 9.158,4.202 9.749 C 4.386 9.930,4.522 10.091,4.506 10.107 C 4.461 10.153,3.836 10.012,3.384 9.855 C 3.162 9.778,2.937 9.704,2.884 9.691 L 2.787 9.668 2.815 9.961 C 2.958 11.509,4.013 12.897,5.460 13.442 C 5.636 13.508,5.825 13.582,5.880 13.606 L 5.980 13.649 5.883 13.686 C 5.829 13.706,5.496 13.732,5.143 13.744 C 4.394 13.769,4.320 13.780,4.320 13.866 C 4.320 13.991,4.702 14.652,4.960 14.974 C 5.563 15.727,6.453 16.235,7.562 16.460 C 7.748 16.498,7.924 16.541,7.952 16.557 C 8.015 16.591,7.763 16.765,7.156 17.108 C 5.781 17.883,4.386 18.240,2.727 18.240 C 2.324 18.240,2.197 18.252,2.210 18.289 C 2.228 18.344,3.005 18.744,3.640 19.025 C 7.165 20.585,11.611 20.220,14.800 18.107 C 15.591 17.583,16.748 16.503,17.397 15.684 C 19.067 13.575,19.960 11.024,19.960 8.361 L 19.960 7.974 20.150 7.837 C 20.535 7.561,21.978 6.039,21.885 6.008 C 21.862 6.001,21.586 6.067,21.271 6.156 C 20.546 6.362,19.848 6.529,19.793 6.511 C 19.770 6.503,19.893 6.374,20.066 6.224 C 20.440 5.900,20.780 5.519,21.024 5.154 C 21.210 4.874,21.418 4.444,21.383 4.410 C 21.372 4.399,21.079 4.507,20.731 4.650 C 20.092 4.915,19.698 5.052,19.166 5.197 L 18.872 5.277 18.606 5.065 C 17.981 4.566,17.453 4.296,16.800 4.141 C 16.479 4.065,15.470 4.030,15.124 4.084 " fill="#373B4D" stroke="none" fill-rule="evenodd"></path></svg>