<svg width="24" height="24" viewBox="0 0 24 24" fill="none" xmlns="http://www.w3.org/2000/svg"><path d="M15.106 4.082 C 14.147 4.243,13.143 4.880,12.516 5.725 C 12.277 6.048,11.997 6.628,11.872 7.060 C 11.789 7.349,11.780 7.456,11.785 8.156 L 11.789 8.931 11.365 8.908 C 10.192 8.842,8.643 8.411,7.362 7.795 C 6.045 7.161,5.247 6.599,4.160 5.542 C 3.819 5.210,3.500 4.904,3.450 4.863 L 3.360 4.788 3.217 5.099 C 3.137 5.270,3.026 5.584,2.970 5.795 C 2.881 6.126,2.867 6.261,2.867 6.760 C 2.868 7.258,2.883 7.394,2.973 7.724 C 3.212 8.606,3.652 9.291,4.394 9.935 C 4.489 10.018,4.556 10.097,4.542 10.111 C 4.474 10.179,3.494 9.934,3.053 9.738 C 2.793 9.624,2.776 9.643,2.818 10.012 C 3.005 11.672,4.142 13.051,5.730 13.543 C 6.162 13.677,6.012 13.721,5.029 13.749 C 4.155 13.773,4.213 13.712,4.512 14.297 C 5.116 15.475,6.225 16.238,7.691 16.484 C 7.862 16.512,7.996 16.553,7.989 16.573 C 7.968 16.635,7.126 17.149,6.699 17.359 C 5.484 17.959,4.236 18.240,2.785 18.240 C 2.216 18.240,2.156 18.246,2.202 18.302 C 2.271 18.385,3.505 18.984,4.080 19.213 C 5.223 19.669,6.607 19.943,8.000 19.988 C 10.562 20.072,13.263 19.264,15.182 17.841 C 16.117 17.147,17.107 16.133,17.798 15.160 C 19.147 13.262,19.873 11.090,19.948 8.732 L 19.972 7.965 20.156 7.835 C 20.528 7.574,21.980 6.045,21.916 5.983 C 21.907 5.974,21.639 6.047,21.320 6.143 C 20.688 6.335,19.865 6.531,19.775 6.512 C 19.744 6.505,19.864 6.386,20.041 6.246 C 20.552 5.843,21.064 5.199,21.303 4.658 C 21.356 4.537,21.400 4.429,21.400 4.419 C 21.400 4.370,21.260 4.417,20.819 4.615 C 20.283 4.855,19.792 5.030,19.241 5.178 L 18.869 5.277 18.665 5.104 C 17.997 4.539,17.253 4.187,16.502 4.083 C 16.151 4.034,15.394 4.034,15.106 4.082 " fill="#373B4D" stroke="none" fill-rule="evenodd"></path></svg>