<svg width="24" height="24" viewBox="0 0 24 24" fill="none" xmlns="http://www.w3.org/2000/svg"><path d="M5.666 3.696 L 4.000 5.391 4.000 11.496 L 4.000 17.600 6.000 17.600 L 8.000 17.600 8.002 19.290 L 8.003 20.980 9.672 19.289 L 11.340 17.597 12.667 17.599 L 13.993 17.600 16.996 14.550 L 19.999 11.500 19.999 6.750 L 20.000 2.000 13.666 2.000 L 7.331 2.000 5.666 3.696 M18.680 7.084 L 18.680 10.808 17.334 12.184 L 15.988 13.560 14.644 13.559 L 13.300 13.557 12.152 14.729 L 11.003 15.900 11.002 14.730 L 11.000 13.560 9.500 13.560 L 8.000 13.560 8.000 8.460 L 8.000 3.360 13.340 3.360 L 18.680 3.360 18.680 7.084 M11.680 7.760 L 11.680 9.800 12.340 9.800 L 13.000 9.800 13.000 7.760 L 13.000 5.720 12.340 5.720 L 11.680 5.720 11.680 7.760 M15.533 5.748 C 15.339 5.786,15.341 5.769,15.327 7.846 L 15.314 9.800 15.997 9.800 L 16.680 9.800 16.680 7.786 L 16.680 5.772 16.374 5.746 C 16.051 5.719,15.679 5.719,15.533 5.748 " fill="#373B4D" stroke="none" fill-rule="evenodd"></path></svg>