<svg width="24" height="24" viewBox="0 0 24 24" fill="none" xmlns="http://www.w3.org/2000/svg"><path d="M5.666 3.696 L 4.000 5.391 4.000 11.496 L 4.000 17.600 6.000 17.600 L 8.000 17.600 8.002 19.290 L 8.004 20.980 9.672 19.289 L 11.340 17.598 12.670 17.599 L 14.000 17.600 15.253 16.330 C 15.942 15.632,17.291 14.259,18.252 13.280 L 19.999 11.500 20.000 6.750 L 20.000 2.000 13.666 2.000 L 7.331 2.000 5.666 3.696 M18.680 7.083 L 18.680 10.807 17.331 12.183 L 15.983 13.560 14.641 13.560 L 13.300 13.560 12.152 14.730 L 11.004 15.900 11.002 14.730 L 11.000 13.560 9.500 13.560 L 8.000 13.560 8.000 8.460 L 8.000 3.360 13.340 3.360 L 18.680 3.360 18.680 7.083 M11.680 7.760 L 11.680 9.800 12.340 9.800 L 13.000 9.800 13.000 7.760 L 13.000 5.720 12.340 5.720 L 11.680 5.720 11.680 7.760 M15.370 5.746 C 15.331 5.762,15.320 6.207,15.320 7.783 L 15.320 9.800 16.000 9.800 L 16.680 9.800 16.680 7.786 L 16.680 5.771 16.470 5.746 C 16.225 5.717,15.443 5.717,15.370 5.746 " fill="#373B4D" stroke="none" fill-rule="evenodd"></path></svg>