<svg width="24" height="24" viewBox="0 0 24 24" fill="none" xmlns="http://www.w3.org/2000/svg"><path d="M14.781 4.163 C 13.906 4.420,12.964 5.086,12.493 5.780 C 11.926 6.619,11.729 7.349,11.785 8.413 L 11.813 8.933 11.349 8.908 C 9.822 8.826,7.485 8.011,6.020 7.050 C 5.268 6.556,4.839 6.194,3.531 4.946 L 3.362 4.785 3.246 5.043 C 3.183 5.184,3.072 5.479,3.000 5.697 L 2.869 6.094 2.891 6.837 C 2.912 7.543,2.919 7.598,3.041 7.940 C 3.288 8.633,3.543 9.042,4.101 9.639 C 4.460 10.023,4.529 10.120,4.443 10.120 C 4.325 10.120,3.774 9.980,3.346 9.841 C 3.075 9.752,2.841 9.680,2.826 9.680 C 2.729 9.680,2.902 10.611,3.085 11.072 C 3.412 11.897,4.026 12.631,4.785 13.105 C 5.028 13.256,5.268 13.366,5.880 13.609 C 5.978 13.648,5.979 13.649,5.895 13.681 C 5.848 13.699,5.551 13.725,5.235 13.739 C 4.465 13.772,4.320 13.791,4.320 13.864 C 4.320 14.012,4.746 14.721,5.039 15.060 C 5.619 15.732,6.357 16.154,7.420 16.422 C 7.706 16.494,7.939 16.568,7.938 16.586 C 7.932 16.702,6.726 17.371,6.049 17.635 C 5.017 18.036,4.231 18.191,2.990 18.235 C 2.567 18.250,2.276 18.276,2.272 18.300 C 2.263 18.354,3.265 18.867,3.865 19.116 C 6.929 20.386,10.643 20.252,13.651 18.762 C 14.581 18.302,15.229 17.847,16.135 17.019 C 18.540 14.820,19.959 11.637,19.960 8.435 L 19.960 7.971 20.118 7.861 C 20.205 7.801,20.588 7.434,20.969 7.046 C 21.642 6.360,21.910 6.057,21.873 6.020 C 21.864 6.010,21.461 6.107,20.978 6.235 C 20.092 6.471,19.800 6.538,19.800 6.506 C 19.800 6.497,20.023 6.267,20.296 5.995 C 20.615 5.676,20.871 5.377,21.015 5.155 C 21.252 4.789,21.415 4.453,21.368 4.426 C 21.353 4.417,21.001 4.543,20.587 4.706 C 20.173 4.870,19.618 5.066,19.353 5.142 L 18.872 5.280 18.626 5.087 C 18.054 4.636,17.684 4.428,17.109 4.232 C 16.749 4.110,16.721 4.106,15.900 4.094 C 15.147 4.082,15.031 4.089,14.781 4.163 " fill="#373B4D" stroke="none" fill-rule="evenodd"></path></svg>