<svg width="24" height="24" viewBox="0 0 24 24" fill="none" xmlns="http://www.w3.org/2000/svg"><path d="M7.420 3.039 L 4.260 3.060 4.044 3.171 C 3.557 3.422,3.221 3.811,3.095 4.267 C 3.023 4.530,3.020 4.825,3.020 12.020 C 3.020 19.167,3.023 19.511,3.094 19.740 C 3.267 20.305,3.696 20.735,4.260 20.907 C 4.489 20.977,4.844 20.980,12.000 20.980 C 19.156 20.980,19.511 20.977,19.740 20.907 C 20.293 20.738,20.721 20.316,20.905 19.760 C 20.974 19.551,20.978 19.174,20.991 12.505 C 20.998 8.435,20.988 5.213,20.966 4.862 C 20.933 4.326,20.916 4.226,20.818 4.020 C 20.675 3.717,20.288 3.329,19.977 3.176 L 19.740 3.060 17.320 3.034 C 14.667 3.005,12.233 3.006,7.420 3.039 M18.560 12.077 C 18.747 12.097,19.067 12.152,19.270 12.200 L 19.640 12.287 19.640 13.104 L 19.640 13.921 19.368 13.784 C 18.935 13.566,18.622 13.481,18.069 13.432 C 16.988 13.335,16.300 13.619,16.300 14.160 C 16.300 14.509,16.604 14.785,17.360 15.123 C 18.676 15.712,19.147 15.983,19.482 16.347 C 19.823 16.716,20.036 17.383,19.979 17.900 C 19.899 18.614,19.457 19.261,18.824 19.588 C 18.218 19.902,16.999 20.063,16.000 19.963 C 15.498 19.912,15.196 19.851,14.690 19.698 L 14.360 19.597 14.361 18.809 C 14.361 18.375,14.377 17.995,14.396 17.964 C 14.426 17.918,14.451 17.923,14.546 17.989 C 14.745 18.130,15.209 18.347,15.560 18.463 C 15.879 18.569,15.943 18.576,16.600 18.578 C 17.230 18.580,17.318 18.572,17.482 18.496 C 17.900 18.302,18.093 18.013,18.002 17.712 C 17.898 17.365,17.527 17.093,16.620 16.699 C 15.536 16.228,15.140 15.983,14.795 15.572 C 14.346 15.035,14.220 14.344,14.440 13.630 C 14.693 12.813,15.626 12.190,16.760 12.080 C 17.200 12.038,18.169 12.036,18.560 12.077 M13.600 12.880 L 13.600 13.600 12.420 13.600 L 11.240 13.600 11.240 16.760 L 11.240 19.920 10.300 19.920 L 9.360 19.920 9.360 16.760 L 9.360 13.600 8.180 13.600 L 7.000 13.600 7.000 12.880 L 7.000 12.160 10.300 12.160 L 13.600 12.160 13.600 12.880 " fill="#373B4D" stroke="none" fill-rule="evenodd"></path></svg>