<svg width="24" height="24" viewBox="0 0 24 24" fill="none" xmlns="http://www.w3.org/2000/svg"><path d="M4.340 3.056 C 3.710 3.213,3.227 3.695,3.054 4.340 C 3.011 4.504,3.001 5.898,3.001 12.000 C 3.001 18.102,3.011 19.496,3.054 19.660 C 3.227 20.305,3.695 20.773,4.340 20.946 C 4.504 20.989,5.898 20.999,12.000 20.999 C 18.102 20.999,19.496 20.989,19.660 20.946 C 20.305 20.773,20.773 20.305,20.946 19.660 C 20.989 19.496,20.999 18.102,20.999 12.000 C 20.999 5.898,20.989 4.504,20.946 4.340 C 20.769 3.679,20.256 3.183,19.608 3.045 C 19.288 2.977,4.616 2.988,4.340 3.056 M18.760 12.081 C 18.903 12.104,19.160 12.160,19.330 12.206 L 19.640 12.289 19.640 13.100 L 19.640 13.911 19.390 13.778 C 18.591 13.354,17.368 13.255,16.731 13.563 C 16.437 13.706,16.313 13.860,16.291 14.115 C 16.253 14.552,16.639 14.858,17.814 15.325 C 18.765 15.703,19.369 16.104,19.674 16.560 C 19.870 16.854,19.954 17.113,19.987 17.521 C 20.068 18.546,19.530 19.354,18.519 19.723 C 17.961 19.926,17.587 19.978,16.680 19.978 C 15.761 19.978,15.369 19.925,14.734 19.714 L 14.360 19.590 14.360 18.735 C 14.360 18.265,14.367 17.880,14.375 17.880 C 14.384 17.880,14.498 17.952,14.629 18.039 C 15.187 18.411,15.883 18.614,16.620 18.618 C 17.014 18.620,17.152 18.604,17.392 18.528 C 18.073 18.314,18.240 17.778,17.766 17.320 C 17.538 17.100,17.266 16.953,16.539 16.658 C 16.232 16.533,15.872 16.376,15.740 16.310 C 14.799 15.836,14.320 15.164,14.320 14.317 C 14.320 13.083,15.180 12.285,16.756 12.058 C 17.185 11.996,18.321 12.009,18.760 12.081 M13.600 12.880 L 13.600 13.600 12.420 13.600 L 11.240 13.600 11.240 16.760 L 11.240 19.920 10.300 19.920 L 9.360 19.920 9.360 16.760 L 9.360 13.600 8.180 13.600 L 7.000 13.600 7.000 12.880 L 7.000 12.160 10.300 12.160 L 13.600 12.160 13.600 12.880 " fill="#373B4D" stroke="none" fill-rule="evenodd"></path></svg>