<svg width="24" height="24" viewBox="0 0 24 24" fill="none" xmlns="http://www.w3.org/2000/svg"><path d="M8.140 3.037 L 4.260 3.060 4.002 3.200 C 3.641 3.396,3.346 3.696,3.190 4.027 L 3.061 4.300 3.034 5.520 C 3.000 7.071,3.000 16.956,3.034 18.520 L 3.060 19.700 3.184 19.960 C 3.365 20.341,3.626 20.609,3.991 20.789 L 4.296 20.940 5.518 20.966 C 6.190 20.980,9.107 20.992,12.000 20.992 C 14.893 20.992,17.809 20.980,18.480 20.966 L 19.700 20.940 19.971 20.812 C 20.327 20.643,20.643 20.327,20.812 19.971 L 20.940 19.700 20.966 18.620 C 21.006 16.964,21.003 5.538,20.962 4.870 C 20.931 4.370,20.910 4.245,20.824 4.057 C 20.693 3.772,20.301 3.364,20.007 3.207 C 19.789 3.091,19.750 3.084,19.179 3.063 C 18.183 3.026,12.264 3.012,8.140 3.037 M18.860 12.122 C 18.992 12.146,19.222 12.193,19.370 12.226 L 19.640 12.286 19.640 13.101 L 19.640 13.915 19.310 13.761 C 18.889 13.564,18.569 13.483,18.059 13.442 C 17.129 13.367,16.531 13.544,16.353 13.946 C 16.289 14.090,16.284 14.145,16.319 14.278 C 16.404 14.590,16.710 14.828,17.480 15.178 C 18.205 15.507,18.908 15.878,19.156 16.060 C 20.165 16.803,20.250 18.319,19.333 19.206 C 18.950 19.577,18.520 19.767,17.775 19.898 C 16.768 20.074,15.694 20.004,14.693 19.699 L 14.353 19.595 14.366 18.808 C 14.374 18.374,14.395 17.997,14.413 17.969 C 14.438 17.930,14.469 17.935,14.553 17.994 C 14.745 18.130,15.155 18.320,15.531 18.448 C 15.887 18.569,15.924 18.573,16.600 18.575 C 17.184 18.577,17.326 18.566,17.458 18.508 C 17.711 18.395,17.884 18.241,17.966 18.055 C 18.077 17.806,18.017 17.610,17.752 17.353 C 17.551 17.156,17.352 17.049,16.034 16.428 C 15.202 16.036,14.790 15.680,14.525 15.120 C 14.397 14.853,14.380 14.778,14.366 14.424 C 14.349 13.993,14.400 13.678,14.530 13.420 C 14.912 12.659,15.744 12.180,16.860 12.078 C 17.314 12.037,18.543 12.064,18.860 12.122 M13.600 12.880 L 13.600 13.600 12.420 13.600 L 11.240 13.600 11.240 16.760 L 11.240 19.920 10.300 19.920 L 9.360 19.920 9.360 16.760 L 9.360 13.600 8.180 13.600 L 7.000 13.600 7.000 12.880 L 7.000 12.160 10.300 12.160 L 13.600 12.160 13.600 12.880 " fill="#373B4D" stroke="none" fill-rule="evenodd"></path></svg>