<svg width="24" height="24" viewBox="0 0 24 24" fill="none" xmlns="http://www.w3.org/2000/svg"><path d="M5.599 3.039 L 4.258 3.060 3.996 3.189 C 3.671 3.349,3.317 3.709,3.171 4.028 C 3.099 4.186,3.056 4.366,3.036 4.599 C 2.997 5.044,2.997 18.956,3.036 19.401 C 3.074 19.838,3.204 20.126,3.505 20.442 C 3.833 20.785,4.133 20.925,4.633 20.965 C 5.138 21.006,18.862 21.006,19.367 20.965 C 19.867 20.925,20.167 20.785,20.495 20.442 C 20.807 20.114,20.927 19.840,20.965 19.360 C 21.006 18.860,21.005 5.134,20.965 4.633 C 20.940 4.319,20.910 4.197,20.808 3.990 C 20.652 3.672,20.290 3.318,19.971 3.169 C 19.748 3.064,19.709 3.059,18.820 3.034 C 17.752 3.004,7.579 3.007,5.599 3.039 M18.818 12.101 C 19.010 12.134,19.274 12.191,19.404 12.227 L 19.640 12.293 19.640 13.102 L 19.640 13.910 19.330 13.756 C 19.160 13.671,18.876 13.563,18.700 13.517 C 18.294 13.410,17.502 13.369,17.152 13.438 C 16.329 13.600,16.036 14.166,16.530 14.641 C 16.729 14.832,17.034 14.994,17.838 15.338 C 18.967 15.820,19.509 16.222,19.780 16.775 C 20.170 17.572,20.010 18.557,19.390 19.178 C 18.930 19.638,18.251 19.892,17.300 19.962 C 16.315 20.034,15.511 19.957,14.750 19.719 L 14.360 19.597 14.360 18.736 C 14.360 18.058,14.371 17.882,14.410 17.905 C 14.438 17.921,14.568 18.002,14.700 18.084 C 15.016 18.282,15.464 18.458,15.860 18.540 C 16.292 18.630,17.032 18.634,17.320 18.548 C 17.959 18.359,18.201 17.914,17.901 17.481 C 17.728 17.232,17.367 17.015,16.531 16.657 C 15.566 16.243,15.256 16.063,14.920 15.723 C 14.446 15.243,14.255 14.659,14.352 13.987 C 14.491 13.018,15.200 12.385,16.440 12.119 C 16.894 12.021,18.301 12.011,18.818 12.101 M13.600 12.880 L 13.600 13.600 12.420 13.600 L 11.240 13.600 11.240 16.760 L 11.240 19.920 10.300 19.920 L 9.360 19.920 9.360 16.760 L 9.360 13.600 8.180 13.600 L 7.000 13.600 7.000 12.880 L 7.000 12.160 10.300 12.160 L 13.600 12.160 13.600 12.880 " fill="#373B4D" stroke="none" fill-rule="evenodd"></path></svg>