<svg width="24" height="24" viewBox="0 0 24 24" fill="none" xmlns="http://www.w3.org/2000/svg"><path d="M17.220 3.460 C 16.340 3.689,14.730 4.108,13.642 4.392 L 11.664 4.908 11.122 5.833 L 10.580 6.759 9.460 6.761 L 8.340 6.764 5.701 9.358 C 4.250 10.784,3.057 11.968,3.050 11.990 C 3.043 12.011,4.238 13.201,5.705 14.634 L 8.373 17.240 9.480 17.240 L 10.587 17.240 10.991 17.930 C 11.580 18.934,11.624 18.997,11.776 19.061 C 12.030 19.167,18.572 20.908,18.939 20.967 C 19.040 20.983,18.958 21.258,20.079 17.167 L 21.004 13.795 20.482 12.942 C 20.195 12.473,19.960 12.052,19.960 12.006 C 19.960 11.915,20.020 11.808,20.606 10.852 L 21.004 10.204 20.539 8.512 C 19.822 5.901,19.083 3.252,19.040 3.141 C 19.014 3.072,18.973 3.041,18.911 3.043 C 18.861 3.044,18.100 3.232,17.220 3.460 M16.320 5.710 C 16.320 5.749,15.598 6.983,14.239 9.270 L 13.140 11.119 9.910 11.120 C 8.133 11.120,6.680 11.114,6.680 11.106 C 6.680 11.098,7.599 10.187,8.721 9.081 L 10.762 7.070 13.511 6.378 C 16.556 5.613,16.320 5.669,16.320 5.710 M18.766 9.367 L 19.521 11.980 19.456 12.220 C 19.308 12.763,18.044 17.109,18.001 17.219 L 17.955 17.338 17.765 17.039 C 17.281 16.276,15.242 12.878,14.918 12.293 L 14.781 12.047 14.874 11.853 C 15.106 11.374,16.932 8.267,17.615 7.191 C 17.809 6.884,17.952 6.696,17.974 6.718 C 17.994 6.738,18.350 7.930,18.766 9.367 M14.610 15.330 C 16.301 18.167,16.343 18.240,16.282 18.240 C 16.211 18.240,14.749 17.889,12.651 17.369 L 10.762 16.900 8.781 14.947 C 7.691 13.872,6.800 12.977,6.800 12.958 C 6.800 12.915,7.586 12.901,10.765 12.889 L 13.150 12.880 14.610 15.330 " fill="#373B4D" stroke="none" fill-rule="evenodd"></path></svg>