<svg width="24" height="24" viewBox="0 0 24 24" fill="none" xmlns="http://www.w3.org/2000/svg"><path d="M15.324 3.956 L 11.667 4.906 11.121 5.837 L 10.575 6.767 9.470 6.762 L 8.365 6.757 5.702 9.361 C 4.238 10.793,3.040 11.981,3.040 12.001 C 3.040 12.021,4.242 13.209,5.710 14.642 L 8.380 17.246 9.478 17.233 L 10.576 17.220 11.106 18.120 C 11.398 18.615,11.642 19.033,11.648 19.049 C 11.659 19.076,19.005 21.009,19.023 20.989 C 19.028 20.984,19.475 19.364,20.017 17.388 L 21.002 13.796 20.461 12.918 C 20.163 12.435,19.920 12.023,19.920 12.001 C 19.920 11.980,20.163 11.566,20.460 11.082 L 21.000 10.201 20.013 6.601 C 19.470 4.620,19.015 3.001,19.003 3.003 C 18.990 3.005,17.335 3.434,15.324 3.956 M16.232 5.913 C 16.160 6.040,15.434 7.264,14.620 8.632 L 13.140 11.119 9.910 11.120 C 8.133 11.120,6.680 11.114,6.680 11.108 C 6.680 11.101,7.599 10.190,8.722 9.082 L 10.764 7.069 13.512 6.378 C 15.023 5.998,16.284 5.686,16.312 5.684 C 16.345 5.681,16.315 5.766,16.232 5.913 M18.758 9.330 L 19.524 11.999 18.756 14.670 C 18.334 16.138,17.978 17.352,17.965 17.366 C 17.941 17.391,14.855 12.248,14.784 12.063 C 14.753 11.984,14.973 11.593,16.343 9.286 C 17.221 7.810,17.950 6.615,17.965 6.631 C 17.980 6.647,18.337 7.861,18.758 9.330 M14.760 15.564 C 15.643 17.040,16.359 18.255,16.349 18.264 C 16.340 18.273,15.079 17.969,13.547 17.589 L 10.761 16.897 8.751 14.921 C 7.645 13.834,6.734 12.930,6.727 12.912 C 6.719 12.895,8.162 12.880,9.934 12.880 L 13.154 12.880 14.760 15.564 " fill="#373B4D" stroke="none" fill-rule="evenodd"></path></svg>