<svg width="24" height="24" viewBox="0 0 24 24" fill="none" xmlns="http://www.w3.org/2000/svg"><path d="M17.620 3.361 C 16.938 3.535,15.318 3.955,14.021 4.293 L 11.661 4.908 11.121 5.833 L 10.580 6.759 9.460 6.760 L 8.340 6.762 5.688 9.368 L 3.036 11.974 3.328 12.272 C 3.489 12.435,4.689 13.620,5.995 14.904 L 8.369 17.240 9.476 17.240 L 10.583 17.240 10.798 17.610 C 10.916 17.814,11.154 18.208,11.327 18.487 C 11.637 18.988,11.644 18.996,11.864 19.078 C 12.275 19.232,18.763 20.960,18.929 20.960 C 18.972 20.960,19.020 20.914,19.044 20.850 C 19.102 20.700,19.671 18.666,20.398 16.010 L 21.003 13.800 20.561 13.060 C 20.318 12.652,20.080 12.240,20.033 12.143 L 19.948 11.967 20.476 11.082 L 21.005 10.197 20.799 9.448 C 19.559 4.937,19.057 3.174,18.990 3.090 C 18.968 3.063,18.930 3.041,18.905 3.041 C 18.880 3.042,18.302 3.186,17.620 3.361 M16.320 5.700 C 16.320 5.725,15.131 7.758,13.999 9.670 L 13.140 11.120 9.910 11.120 C 8.133 11.120,6.680 11.113,6.680 11.105 C 6.680 11.097,7.598 10.186,8.719 9.081 L 10.759 7.072 13.509 6.378 C 16.388 5.652,16.320 5.668,16.320 5.700 M18.004 6.830 C 18.071 7.007,18.357 7.968,18.958 10.039 L 19.521 11.978 19.376 12.499 C 19.067 13.611,17.994 17.222,17.963 17.253 C 17.924 17.292,17.764 17.042,16.711 15.300 C 15.590 13.444,15.146 12.690,14.955 12.315 L 14.793 11.997 15.063 11.509 C 15.790 10.193,17.883 6.722,17.951 6.720 C 17.957 6.720,17.981 6.770,18.004 6.830 M14.590 15.310 C 16.175 17.983,16.298 18.196,16.272 18.221 C 16.249 18.245,15.431 18.053,12.915 17.434 L 10.770 16.906 8.795 14.957 C 7.709 13.884,6.834 12.993,6.852 12.975 C 6.885 12.942,9.203 12.900,11.704 12.887 L 13.149 12.880 14.590 15.310 " fill="#373B4D" stroke="none" fill-rule="evenodd"></path></svg>