<svg width="24" height="24" viewBox="0 0 24 24" fill="none" xmlns="http://www.w3.org/2000/svg"><path d="M17.620 3.360 C 16.938 3.534,15.318 3.954,14.021 4.293 L 11.661 4.908 11.121 5.834 L 10.580 6.759 9.460 6.761 L 8.340 6.762 5.689 9.369 L 3.037 11.977 3.669 12.612 C 4.016 12.962,5.216 14.146,6.335 15.244 L 8.371 17.240 9.476 17.240 L 10.582 17.240 11.050 18.030 C 11.308 18.464,11.560 18.871,11.611 18.934 C 11.691 19.034,11.806 19.077,12.482 19.266 C 14.228 19.752,18.594 20.904,18.849 20.946 C 18.986 20.968,19.002 20.960,19.042 20.855 C 19.117 20.661,19.319 19.940,20.178 16.809 L 21.004 13.798 20.587 13.109 C 20.170 12.419,19.960 12.036,19.960 11.965 C 19.960 11.944,20.195 11.538,20.482 11.063 L 21.004 10.199 20.479 8.290 C 19.444 4.529,19.037 3.103,18.989 3.072 C 18.916 3.026,18.950 3.019,17.620 3.360 M16.308 5.733 C 16.280 5.805,15.296 7.485,14.119 9.470 L 13.140 11.119 9.910 11.120 C 8.133 11.120,6.680 11.113,6.680 11.106 C 6.680 11.098,7.598 10.187,8.720 9.081 L 10.760 7.071 13.510 6.378 C 15.022 5.997,16.275 5.684,16.294 5.683 C 16.313 5.681,16.319 5.704,16.308 5.733 M18.239 7.570 C 18.377 8.037,18.722 9.219,19.005 10.197 L 19.519 11.973 19.460 12.202 C 19.324 12.725,17.993 17.262,17.967 17.288 C 17.935 17.321,17.803 17.112,16.600 15.120 C 15.144 12.709,14.789 12.088,14.815 11.988 C 14.890 11.687,17.857 6.720,17.961 6.720 C 17.975 6.720,18.100 7.103,18.239 7.570 M14.629 15.370 C 16.280 18.149,16.303 18.190,16.271 18.222 C 16.247 18.247,14.769 17.897,12.312 17.285 L 10.764 16.900 8.780 14.945 C 7.689 13.870,6.808 12.979,6.822 12.965 C 6.853 12.934,8.794 12.901,11.265 12.889 L 13.150 12.880 14.629 15.370 " fill="#373B4D" stroke="none" fill-rule="evenodd"></path></svg>