<svg width="24" height="24" viewBox="0 0 24 24" fill="none" xmlns="http://www.w3.org/2000/svg"><path d="M9.898 4.050 C 8.175 5.795,7.476 6.544,7.379 6.749 C 7.285 6.946,7.260 7.284,7.322 7.509 C 7.362 7.656,7.435 7.760,7.637 7.962 C 7.920 8.243,8.088 8.321,8.405 8.318 C 8.774 8.315,8.917 8.224,9.943 7.343 C 10.313 7.025,10.628 6.773,10.643 6.782 C 10.696 6.815,10.722 7.641,10.782 11.140 C 10.843 14.712,10.876 15.589,10.964 15.939 C 11.020 16.160,11.355 16.551,11.582 16.658 C 12.112 16.910,12.931 16.484,13.080 15.880 C 13.139 15.641,13.194 12.472,13.198 9.170 C 13.199 7.735,13.210 6.560,13.222 6.560 C 13.235 6.560,13.518 6.815,13.852 7.127 C 14.551 7.779,15.025 8.166,15.273 8.286 C 15.573 8.432,15.960 8.326,16.333 7.998 C 16.676 7.696,16.811 7.228,16.659 6.865 C 16.558 6.622,15.921 5.920,14.601 4.596 C 13.225 3.218,12.821 2.853,12.469 2.675 C 12.257 2.567,11.867 2.485,11.554 2.481 C 11.467 2.480,11.173 2.758,9.898 4.050 M10.220 19.285 C 6.371 19.306,4.492 19.331,4.390 19.360 C 4.190 19.418,3.854 19.759,3.730 20.031 C 3.623 20.264,3.624 20.360,3.740 20.748 C 3.808 20.977,4.084 21.298,4.314 21.417 C 4.523 21.525,6.151 21.556,13.180 21.585 L 19.580 21.612 19.854 21.321 C 20.475 20.661,20.477 20.179,19.859 19.525 L 19.590 19.240 17.745 19.247 C 16.730 19.250,13.344 19.267,10.220 19.285 " fill="#373B4D" stroke="none" fill-rule="evenodd"></path></svg>