<svg width="24" height="24" viewBox="0 0 24 24" fill="none" xmlns="http://www.w3.org/2000/svg"><path d="M11.191 2.788 C 10.987 2.958,10.198 3.718,9.439 4.478 C 7.361 6.556,7.211 6.748,7.249 7.275 C 7.271 7.584,7.367 7.795,7.586 8.014 C 7.797 8.225,8.014 8.327,8.299 8.350 C 8.792 8.389,8.996 8.258,10.099 7.196 C 10.738 6.580,10.739 6.580,10.765 6.700 C 10.779 6.766,10.793 8.377,10.797 10.280 C 10.804 14.423,10.841 15.885,10.942 16.098 C 11.039 16.304,11.459 16.671,11.657 16.725 C 11.914 16.794,12.324 16.749,12.529 16.628 C 12.735 16.508,13.024 16.206,13.084 16.050 C 13.160 15.851,13.198 13.917,13.199 10.185 L 13.200 6.511 13.806 7.099 C 14.918 8.179,15.269 8.430,15.615 8.391 C 15.852 8.364,16.195 8.200,16.398 8.017 C 16.633 7.805,16.729 7.597,16.751 7.253 C 16.777 6.863,16.708 6.734,16.146 6.118 C 15.532 5.446,12.997 2.942,12.711 2.726 C 12.447 2.525,12.299 2.482,11.871 2.481 L 11.563 2.480 11.191 2.788 M8.420 19.278 L 4.380 19.300 4.235 19.390 C 4.038 19.513,3.778 19.801,3.697 19.987 C 3.588 20.237,3.605 20.587,3.739 20.862 C 3.881 21.151,4.142 21.418,4.346 21.483 C 4.563 21.551,8.084 21.591,14.373 21.596 L 19.526 21.600 19.693 21.485 C 19.983 21.285,20.228 20.991,20.297 20.758 C 20.459 20.212,20.299 19.791,19.786 19.413 L 19.551 19.240 16.006 19.248 C 14.056 19.253,10.642 19.266,8.420 19.278 " fill="#373B4D" stroke="none" fill-rule="evenodd"></path></svg>