<svg width="24" height="24" viewBox="0 0 24 24" fill="none" xmlns="http://www.w3.org/2000/svg"><path d="M9.931 4.026 C 8.386 5.567,7.608 6.389,7.410 6.687 C 7.331 6.808,7.304 6.908,7.289 7.138 C 7.266 7.494,7.347 7.696,7.624 7.982 C 7.856 8.221,8.075 8.318,8.380 8.318 C 8.791 8.318,8.949 8.217,10.057 7.244 C 10.360 6.978,10.623 6.760,10.640 6.760 C 10.710 6.760,10.731 7.465,10.802 12.180 C 10.845 15.000,10.879 15.707,10.983 16.013 C 11.059 16.234,11.347 16.545,11.585 16.663 C 12.012 16.874,12.704 16.614,12.983 16.138 C 13.066 15.996,13.093 15.879,13.125 15.512 C 13.146 15.263,13.174 13.139,13.187 10.792 L 13.211 6.523 13.755 7.038 C 14.832 8.054,15.246 8.360,15.546 8.360 C 15.938 8.360,16.469 7.986,16.642 7.588 C 16.768 7.298,16.765 7.071,16.630 6.796 C 16.502 6.535,15.332 5.286,13.983 3.970 C 12.650 2.669,12.485 2.558,11.794 2.498 L 11.489 2.471 9.931 4.026 M10.320 19.283 C 7.207 19.300,4.585 19.322,4.494 19.331 C 4.285 19.354,4.077 19.510,3.855 19.811 C 3.630 20.116,3.602 20.300,3.719 20.685 C 3.793 20.929,3.841 21.007,4.033 21.200 C 4.164 21.330,4.312 21.438,4.380 21.454 C 4.705 21.527,6.828 21.559,12.907 21.585 L 19.554 21.613 19.838 21.340 C 20.497 20.703,20.499 20.139,19.844 19.507 L 19.568 19.240 17.774 19.247 C 16.787 19.250,13.433 19.267,10.320 19.283 " fill="#373B4D" stroke="none" fill-rule="evenodd"></path></svg>