<svg width="24" height="24" viewBox="0 0 24 24" fill="none" xmlns="http://www.w3.org/2000/svg"><path d="M11.297 2.669 C 11.047 2.877,8.404 5.562,7.842 6.180 C 7.371 6.696,7.302 6.827,7.302 7.199 C 7.301 7.555,7.357 7.681,7.644 7.968 C 7.879 8.203,8.115 8.318,8.364 8.319 C 8.731 8.321,8.887 8.228,9.780 7.481 C 10.564 6.825,10.608 6.792,10.646 6.830 C 10.681 6.865,10.741 8.894,10.780 11.300 C 10.814 13.426,10.877 15.375,10.922 15.691 C 10.943 15.842,10.985 16.013,11.016 16.072 C 11.112 16.257,11.403 16.560,11.563 16.642 C 12.015 16.872,12.741 16.581,13.009 16.061 C 13.132 15.823,13.154 15.121,13.184 10.640 C 13.199 8.473,13.223 6.675,13.239 6.645 C 13.260 6.606,13.430 6.739,13.844 7.120 C 14.816 8.014,15.288 8.358,15.543 8.360 C 15.725 8.360,16.032 8.232,16.240 8.068 C 16.505 7.858,16.677 7.564,16.708 7.266 C 16.750 6.861,16.624 6.688,15.240 5.246 C 14.310 4.277,13.094 3.110,12.746 2.853 C 12.493 2.667,12.147 2.541,11.771 2.498 L 11.535 2.471 11.297 2.669 M10.920 19.282 C 5.375 19.314,4.448 19.333,4.286 19.417 C 4.152 19.486,3.829 19.827,3.749 19.984 C 3.615 20.246,3.633 20.542,3.804 20.885 C 3.916 21.109,4.221 21.392,4.404 21.441 C 4.704 21.522,6.914 21.558,13.241 21.586 L 19.581 21.613 19.844 21.325 C 20.192 20.944,20.300 20.730,20.300 20.420 C 20.300 20.110,20.184 19.879,19.846 19.514 L 19.593 19.240 17.726 19.247 C 16.700 19.250,13.637 19.266,10.920 19.282 " fill="#373B4D" stroke="none" fill-rule="evenodd"></path></svg>