<svg xmlns="http://www.w3.org/2000/svg" xmlns:xlink="http://www.w3.org/1999/xlink" width="24" height="24" fill="none">
  <defs>
    <path id="reuse-0" d="M16.4774 7.51413c-1.6454-1.65475-4.3132-1.65475-5.9587 0-1.64539 1.65475-1.64539 4.33767 0 5.99237l1.4899-1.4981c-.8229-.8273-.8229-2.16868 0-2.99613.195-.19661.4271-.35265.6827-.45914.2557-.10649.5299-.16132.8068-.16132.277 0 .5512.05483.8069.16132.2556.10649.4877.26253.6827.45914l1.4897-1.49814Z"/>
  </defs>

  <g>
    <path d="M4.5603 19.4991c3.29085 3.3095 8.6263 3.3095 11.9171 0 3.2909-3.3095 3.2909-8.6754 0-11.98494L14.9878 9.0123c2.4681 2.4822 2.4681 6.5064 0 8.9886-2.4682 2.4821-6.4697 2.4821-8.93784 0L4.5603 19.4991Z"/>
    <path d="M7.53972 16.5027c1.64542 1.6548 4.31308 1.6548 5.95848 0 1.6454-1.6547 1.6454-4.3376 0-5.9923l-1.4895 1.4981c.8227.8273.8227 2.1688 0 2.9961-.1951.1966-.4271.3527-.6828.4592-.2557.1065-.5299.1614-.8069.1614-.2769 0-.55116-.0549-.80683-.1614-.25567-.1065-.48773-.2626-.68279-.4592l-1.48966 1.4981Z"/>
    <path d="M19.4568 4.51801c-3.2909-3.30949-8.6263-3.30949-11.91713 0-3.29085 3.30966-3.29085 8.67539 0 11.98489l1.48949-1.4981c-2.46797-2.4822-2.46797-6.50645 0-8.98866 2.46814-2.48203 6.46984-2.48203 8.93794 0l1.4897-1.49813Z"/>
    <use xlink:href="#reuse-0"/>
    <path d="M19.4567 4.51801c-3.2908-3.30949-8.6264-3.30949-11.91728 0-3.29084 3.30966-3.29084 8.67539 0 11.98489l1.48984-1.4981c-2.46831-2.4822-2.46831-6.50645 0-8.98866 2.46794-2.48203 6.46944-2.48203 8.93764 0l1.4898-1.49813Z"/>
    <use xlink:href="#reuse-0"/>
  </g>
</svg>