<svg width="24" height="24" viewBox="0 0 24 24" fill="none" xmlns="http://www.w3.org/2000/svg"><path d="M8.540 3.816 C 7.873 4.028,6.953 4.761,6.519 5.425 C 6.155 5.982,6.075 6.331,6.066 7.380 L 6.060 8.100 6.231 8.435 C 6.599 9.155,7.213 9.870,7.797 10.258 C 8.307 10.597,8.710 10.704,9.642 10.746 C 10.181 10.770,10.245 10.765,10.502 10.680 C 11.086 10.488,11.628 10.138,12.134 9.628 C 12.524 9.234,12.792 8.828,12.963 8.371 L 13.095 8.020 13.096 7.200 L 13.096 6.380 12.969 6.045 C 12.720 5.387,12.306 4.847,11.705 4.393 C 11.260 4.057,10.818 3.850,10.440 3.801 C 10.000 3.744,8.735 3.754,8.540 3.816 M15.660 9.798 C 14.948 9.822,14.893 9.841,14.706 10.112 C 14.454 10.476,14.406 10.899,14.574 11.261 C 14.689 11.507,15.013 11.807,15.236 11.874 C 15.511 11.956,16.355 11.998,17.760 11.998 C 19.426 11.997,20.538 11.947,20.801 11.860 C 21.066 11.772,21.329 11.530,21.440 11.272 C 21.516 11.093,21.527 11.015,21.509 10.753 C 21.482 10.365,21.346 10.096,21.077 9.898 L 20.889 9.760 18.595 9.768 C 17.333 9.772,16.012 9.786,15.660 9.798 M8.509 13.364 C 7.687 13.450,6.414 13.950,5.592 14.508 C 4.984 14.921,4.030 15.885,3.616 16.505 C 2.998 17.431,2.496 18.909,2.413 20.050 L 2.388 20.400 9.600 20.400 L 16.812 20.400 16.788 20.050 C 16.743 19.389,16.441 18.215,16.130 17.494 C 15.506 16.047,14.282 14.797,12.735 14.026 C 11.702 13.511,11.335 13.422,9.980 13.361 C 9.005 13.316,8.953 13.317,8.509 13.364 " fill="#373B4D" stroke="none" fill-rule="evenodd"></path></svg>