<svg width="24" height="24" viewBox="0 0 24 24" fill="none" xmlns="http://www.w3.org/2000/svg"><path d="M10.780 2.522 C 9.848 2.624,8.586 3.017,7.649 3.498 C 6.239 4.220,4.873 5.459,3.942 6.860 C 3.237 7.919,2.668 9.464,2.501 10.772 C 2.431 11.317,2.420 12.576,2.481 13.081 C 2.696 14.862,3.457 16.662,4.570 18.020 C 4.877 18.396,5.581 19.099,5.937 19.386 C 6.938 20.194,8.256 20.876,9.552 21.258 C 10.154 21.435,10.437 21.479,11.293 21.528 C 12.395 21.591,13.323 21.535,14.020 21.363 C 15.488 21.001,16.913 20.310,18.020 19.422 C 18.626 18.936,19.442 18.067,19.832 17.491 C 20.332 16.753,20.800 15.791,21.123 14.839 C 21.420 13.961,21.478 13.657,21.519 12.742 C 21.551 12.020,21.517 10.595,21.463 10.380 C 21.451 10.336,21.387 10.078,21.320 9.807 C 20.774 7.596,19.537 5.736,17.700 4.361 C 16.366 3.362,14.633 2.668,13.220 2.565 C 12.385 2.504,11.143 2.483,10.780 2.522 M12.480 6.123 C 13.105 6.227,13.809 6.789,14.131 7.439 L 14.260 7.698 14.260 8.399 L 14.260 9.100 14.102 9.396 C 13.821 9.923,13.223 10.450,12.671 10.657 C 12.304 10.795,12.037 10.817,11.660 10.740 C 10.860 10.577,10.265 10.113,9.882 9.353 C 9.748 9.087,9.724 8.997,9.700 8.668 C 9.625 7.677,10.003 6.923,10.842 6.389 C 11.354 6.063,11.746 6.000,12.480 6.123 M13.120 13.382 C 14.693 13.637,16.169 14.653,17.067 16.097 C 17.355 16.559,17.373 16.683,17.188 16.916 C 16.703 17.527,15.596 18.277,14.580 18.683 C 14.162 18.850,13.323 19.060,12.822 19.122 C 12.342 19.182,11.259 19.151,10.759 19.063 C 9.373 18.818,8.041 18.132,6.998 17.126 C 6.727 16.865,6.640 16.755,6.640 16.676 C 6.640 16.554,6.946 16.032,7.269 15.603 C 8.157 14.423,9.789 13.461,11.140 13.322 C 11.614 13.273,12.643 13.304,13.120 13.382 " fill="#373B4D" stroke="none" fill-rule="evenodd"></path></svg>