<svg width="24" height="24" viewBox="0 0 24 24" fill="none" xmlns="http://www.w3.org/2000/svg"><path d="M11.060 3.755 C 10.083 4.034,9.193 4.796,8.740 5.740 C 8.497 6.247,8.464 6.427,8.464 7.240 C 8.463 7.800,8.477 7.988,8.535 8.180 C 8.836 9.182,9.848 10.240,10.832 10.583 C 11.321 10.753,12.104 10.811,12.672 10.719 C 13.757 10.542,14.931 9.547,15.357 8.440 C 15.567 7.897,15.614 6.857,15.456 6.252 C 15.186 5.214,14.177 4.157,13.140 3.827 C 12.641 3.669,11.499 3.629,11.060 3.755 M4.131 7.336 C 3.759 7.457,3.164 7.862,2.930 8.154 C 2.780 8.340,2.583 8.727,2.522 8.954 C 2.452 9.214,2.464 10.017,2.542 10.280 C 2.656 10.664,2.831 10.937,3.179 11.277 C 3.562 11.651,3.838 11.797,4.361 11.903 C 4.774 11.986,5.197 11.959,5.600 11.823 C 5.932 11.710,6.072 11.612,6.484 11.202 C 6.958 10.732,7.130 10.303,7.134 9.580 C 7.138 8.758,6.817 8.152,6.129 7.686 C 5.694 7.391,5.421 7.309,4.820 7.294 C 4.456 7.285,4.250 7.297,4.131 7.336 M18.531 7.336 C 18.154 7.459,17.564 7.862,17.323 8.162 C 17.253 8.249,17.129 8.460,17.048 8.630 C 16.903 8.933,16.900 8.952,16.886 9.487 C 16.865 10.341,16.996 10.685,17.560 11.250 C 17.961 11.652,18.220 11.793,18.761 11.903 C 19.174 11.986,19.597 11.959,20.000 11.823 C 20.332 11.710,20.472 11.612,20.884 11.202 C 21.358 10.732,21.530 10.303,21.534 9.580 C 21.538 8.758,21.217 8.152,20.529 7.686 C 20.094 7.391,19.821 7.309,19.220 7.294 C 18.856 7.285,18.650 7.297,18.531 7.336 M11.043 13.327 C 10.509 13.403,9.629 13.828,9.051 14.287 C 8.489 14.734,7.846 15.564,7.598 16.163 C 7.312 16.853,7.278 17.045,7.239 18.200 C 7.219 18.783,7.202 19.787,7.201 20.430 L 7.200 21.600 12.007 21.600 L 16.813 21.600 16.787 19.650 C 16.772 18.578,16.742 17.538,16.719 17.341 C 16.696 17.143,16.616 16.798,16.541 16.574 C 16.282 15.800,15.965 15.279,15.405 14.707 C 14.973 14.266,14.552 13.966,13.996 13.703 C 13.357 13.402,13.203 13.365,12.412 13.321 C 11.589 13.275,11.396 13.276,11.043 13.327 M4.415 14.480 C 3.588 14.551,2.903 14.884,2.280 15.518 C 1.727 16.082,1.382 16.733,1.282 17.403 C 1.257 17.568,1.226 18.566,1.213 19.650 L 1.188 21.600 2.988 21.600 L 4.787 21.600 4.812 19.810 C 4.848 17.149,4.917 16.564,5.338 15.331 C 5.460 14.975,5.560 14.647,5.560 14.603 C 5.560 14.544,5.526 14.518,5.430 14.503 C 5.147 14.460,4.763 14.451,4.415 14.480 M18.568 14.506 C 18.517 14.517,18.467 14.547,18.457 14.573 C 18.447 14.599,18.548 14.962,18.682 15.380 C 18.988 16.335,19.026 16.503,19.078 17.120 C 19.122 17.635,19.198 20.131,19.199 21.070 L 19.200 21.600 21.005 21.600 L 22.811 21.600 22.787 19.670 C 22.774 18.608,22.744 17.589,22.721 17.404 C 22.650 16.848,22.351 16.241,21.868 15.676 C 21.418 15.150,20.705 14.700,20.129 14.579 C 19.854 14.521,18.734 14.469,18.568 14.506 " fill="#373B4D" stroke="none" fill-rule="evenodd"></path></svg>