<svg width="24" height="24" viewBox="0 0 24 24" fill="none" xmlns="http://www.w3.org/2000/svg"><path d="M6.401 3.781 C 5.671 3.913,4.671 4.632,4.173 5.383 C 3.996 5.649,3.775 6.273,3.695 6.733 C 3.423 8.292,4.494 10.001,6.110 10.588 C 6.343 10.672,6.428 10.680,7.152 10.680 C 7.700 10.679,8.004 10.662,8.151 10.623 C 9.033 10.388,10.024 9.497,10.461 8.545 C 10.858 7.680,10.819 6.527,10.363 5.651 C 10.087 5.121,9.425 4.446,8.867 4.127 C 8.506 3.920,8.097 3.816,7.428 3.762 C 6.814 3.712,6.782 3.712,6.401 3.781 M15.934 3.799 C 15.533 3.885,14.947 4.207,14.503 4.585 C 13.982 5.028,13.626 5.556,13.416 6.200 C 13.313 6.516,13.305 6.588,13.303 7.220 C 13.301 7.890,13.303 7.906,13.435 8.289 C 13.611 8.799,13.881 9.207,14.357 9.681 C 14.765 10.087,15.158 10.358,15.628 10.558 L 15.916 10.680 16.737 10.680 C 17.516 10.680,17.572 10.675,17.825 10.580 C 18.887 10.180,19.577 9.518,20.179 8.322 C 20.310 8.061,20.320 8.016,20.319 7.671 C 20.318 7.114,20.248 6.366,20.175 6.140 C 19.844 5.118,18.739 4.065,17.780 3.859 C 17.450 3.788,16.177 3.746,15.934 3.799 M5.860 13.439 C 5.118 13.635,4.270 14.039,3.703 14.467 C 3.243 14.813,2.677 15.376,2.359 15.803 C 1.936 16.369,1.499 17.385,1.344 18.160 C 1.266 18.547,1.200 19.369,1.200 19.946 L 1.200 20.400 7.200 20.400 L 13.200 20.400 13.200 19.870 C 13.200 18.967,13.049 17.977,12.798 17.238 C 12.641 16.775,12.206 15.980,11.941 15.670 C 11.657 15.338,11.110 14.812,10.724 14.501 C 10.281 14.143,9.233 13.612,8.760 13.504 C 8.054 13.344,6.361 13.306,5.860 13.439 M15.659 13.400 C 15.143 13.494,14.108 13.832,13.955 13.956 L 13.867 14.027 14.446 15.184 C 14.765 15.820,15.082 16.511,15.150 16.720 C 15.335 17.284,15.429 18.100,15.503 19.790 L 15.530 20.400 19.171 20.400 L 22.813 20.400 22.787 19.730 C 22.730 18.225,22.459 17.095,21.954 16.254 C 21.759 15.930,21.255 15.339,20.852 14.961 C 19.921 14.088,19.056 13.627,18.039 13.461 C 17.590 13.388,15.954 13.346,15.659 13.400 " fill="#373B4D" stroke="none" fill-rule="evenodd"></path></svg>