<svg width="24" height="24" viewBox="0 0 24 24" fill="none" xmlns="http://www.w3.org/2000/svg"><path d="M11.359 3.719 C 10.301 3.805,9.063 4.854,8.617 6.044 C 8.517 6.312,8.504 6.401,8.489 6.989 C 8.465 7.885,8.513 8.208,8.737 8.660 C 9.169 9.532,10.030 10.307,10.928 10.632 C 11.192 10.728,11.285 10.739,11.902 10.752 C 12.442 10.763,12.637 10.753,12.840 10.700 C 13.800 10.451,14.755 9.647,15.239 8.680 C 15.516 8.126,15.527 8.059,15.512 7.131 C 15.498 6.305,15.497 6.298,15.373 5.999 C 15.304 5.833,15.185 5.590,15.108 5.459 C 14.708 4.778,13.832 4.046,13.172 3.841 C 12.820 3.732,11.939 3.672,11.359 3.719 M10.900 13.320 C 9.947 13.402,8.419 13.974,7.445 14.613 C 6.325 15.349,5.345 16.375,4.735 17.450 C 4.144 18.491,3.600 20.364,3.600 21.355 L 3.600 21.600 12.000 21.600 L 20.400 21.600 20.400 21.355 C 20.400 20.774,20.115 19.451,19.818 18.657 C 19.323 17.331,18.486 16.163,17.342 15.199 C 16.351 14.365,14.875 13.647,13.658 13.406 C 13.207 13.317,11.542 13.265,10.900 13.320 " fill="#373B4D" stroke="none" fill-rule="evenodd"></path></svg>