<svg width="24" height="24" viewBox="0 0 24 24" fill="none" xmlns="http://www.w3.org/2000/svg"><path d="M8.776 3.798 C 7.997 3.888,6.734 4.905,6.326 5.770 C 6.160 6.122,6.128 6.311,6.073 7.243 L 6.025 8.065 6.279 8.512 C 6.821 9.467,7.624 10.263,8.298 10.516 C 8.859 10.726,9.937 10.823,10.394 10.705 C 11.389 10.449,12.510 9.432,12.963 8.376 L 13.099 8.060 13.099 7.200 L 13.100 6.340 12.972 6.046 C 12.770 5.581,12.534 5.215,12.225 4.889 C 11.723 4.359,11.137 3.980,10.630 3.860 C 10.332 3.789,9.184 3.751,8.776 3.798 M17.389 7.473 C 16.973 7.803,16.853 8.111,16.815 8.940 C 16.790 9.484,16.778 9.549,16.690 9.576 C 16.651 9.588,16.368 9.626,16.060 9.661 C 15.204 9.759,15.016 9.815,14.797 10.038 C 14.600 10.239,14.480 10.553,14.480 10.866 C 14.480 11.237,14.849 11.722,15.236 11.859 C 15.463 11.939,15.978 12.000,16.423 12.000 L 16.788 12.000 16.813 12.550 C 16.850 13.388,16.974 13.794,17.268 14.036 C 17.575 14.289,18.137 14.376,18.459 14.220 C 18.962 13.975,19.200 13.405,19.200 12.443 L 19.200 12.012 19.750 11.988 C 20.625 11.950,20.903 11.864,21.226 11.531 C 21.499 11.251,21.532 11.162,21.512 10.757 C 21.493 10.349,21.400 10.166,21.110 9.967 C 20.864 9.798,20.589 9.728,19.881 9.655 C 19.540 9.620,19.253 9.585,19.244 9.577 C 19.235 9.568,19.212 9.278,19.192 8.931 C 19.150 8.199,19.122 8.070,18.963 7.850 C 18.702 7.490,18.427 7.364,17.896 7.362 C 17.554 7.360,17.522 7.367,17.389 7.473 M8.120 13.439 C 7.357 13.603,6.259 14.073,5.587 14.523 C 5.015 14.907,4.000 15.944,3.598 16.555 C 3.001 17.463,2.489 18.971,2.413 20.050 L 2.388 20.400 9.600 20.400 L 16.812 20.400 16.786 20.059 C 16.734 19.390,16.416 18.165,16.111 17.460 C 15.745 16.614,15.058 15.717,14.267 15.054 C 13.313 14.252,12.089 13.630,11.180 13.484 C 10.305 13.343,8.678 13.319,8.120 13.439 " fill="#373B4D" stroke="none" fill-rule="evenodd"></path></svg>