<svg width="24" height="24" viewBox="0 0 24 24" fill="none" xmlns="http://www.w3.org/2000/svg"><path d="M11.117 3.758 C 10.889 3.800,10.400 4.023,10.092 4.226 C 9.550 4.585,8.975 5.251,8.717 5.821 C 8.510 6.277,8.471 6.535,8.489 7.340 C 8.503 7.970,8.517 8.095,8.601 8.340 C 8.779 8.856,9.269 9.499,9.854 9.981 C 10.541 10.548,11.058 10.725,12.040 10.731 C 12.524 10.734,12.712 10.719,12.898 10.664 C 13.647 10.441,14.488 9.821,14.951 9.148 C 15.406 8.487,15.486 8.222,15.510 7.298 C 15.531 6.459,15.496 6.258,15.238 5.730 C 14.799 4.835,13.760 3.949,12.980 3.805 C 12.697 3.752,11.336 3.718,11.117 3.758 M4.204 7.341 C 3.939 7.415,3.700 7.543,3.357 7.796 C 3.033 8.034,2.844 8.261,2.638 8.658 C 2.489 8.947,2.480 8.984,2.481 9.312 C 2.482 9.910,2.545 10.348,2.665 10.593 C 2.790 10.850,3.270 11.369,3.572 11.575 C 4.235 12.026,5.216 12.058,5.916 11.652 C 6.162 11.509,6.638 11.028,6.832 10.728 C 7.118 10.284,7.200 9.604,7.041 8.983 C 6.936 8.571,6.798 8.331,6.504 8.043 C 6.196 7.741,6.110 7.676,5.845 7.542 C 5.434 7.335,4.594 7.232,4.204 7.341 M18.604 7.341 C 18.339 7.415,18.100 7.543,17.757 7.796 C 17.433 8.034,17.244 8.261,17.038 8.658 C 16.889 8.947,16.880 8.984,16.881 9.312 C 16.882 9.910,16.945 10.348,17.065 10.593 C 17.192 10.854,17.680 11.379,17.979 11.577 C 18.656 12.027,19.617 12.058,20.316 11.652 C 20.562 11.509,21.038 11.028,21.232 10.728 C 21.518 10.284,21.600 9.604,21.441 8.983 C 21.336 8.571,21.198 8.331,20.904 8.043 C 20.596 7.741,20.510 7.676,20.245 7.542 C 19.834 7.335,18.994 7.232,18.604 7.341 M10.976 13.359 C 10.542 13.425,9.722 13.816,9.185 14.213 C 8.400 14.793,7.742 15.704,7.443 16.624 C 7.276 17.135,7.240 17.632,7.212 19.770 L 7.188 21.600 12.000 21.600 L 16.811 21.600 16.788 19.810 C 16.763 17.824,16.725 17.269,16.578 16.745 C 16.351 15.938,16.057 15.428,15.456 14.802 C 14.712 14.026,13.796 13.504,13.009 13.405 C 12.586 13.351,11.226 13.321,10.976 13.359 M4.236 14.528 C 3.089 14.637,1.859 15.662,1.426 16.871 C 1.273 17.295,1.239 17.763,1.212 19.790 L 1.189 21.600 2.994 21.600 L 4.800 21.600 4.800 20.950 C 4.800 20.089,4.870 18.077,4.923 17.400 C 4.975 16.731,5.062 16.292,5.319 15.399 C 5.430 15.016,5.520 14.670,5.520 14.632 C 5.520 14.592,5.481 14.553,5.430 14.541 C 5.276 14.507,4.546 14.499,4.236 14.528 M18.497 14.574 C 18.483 14.610,18.574 14.997,18.698 15.434 C 18.982 16.429,19.026 16.683,19.078 17.623 C 19.124 18.461,19.200 20.703,19.200 21.250 L 19.200 21.600 21.006 21.600 L 22.811 21.600 22.788 19.830 C 22.763 17.833,22.722 17.283,22.572 16.865 C 22.200 15.827,21.113 14.813,20.166 14.620 C 20.020 14.590,19.590 14.553,19.211 14.537 C 18.596 14.512,18.519 14.516,18.497 14.574 " fill="#373B4D" stroke="none" fill-rule="evenodd"></path></svg>