<svg width="24" height="24" viewBox="0 0 24 24" fill="none" xmlns="http://www.w3.org/2000/svg"><path d="M8.680 3.741 C 8.124 3.895,7.388 4.360,6.961 4.826 C 6.606 5.215,6.325 5.675,6.149 6.159 C 6.083 6.341,6.065 6.510,6.050 7.108 C 6.033 7.774,6.039 7.862,6.119 8.128 C 6.460 9.266,7.602 10.408,8.650 10.661 C 8.792 10.696,9.203 10.733,9.605 10.747 L 10.310 10.772 10.686 10.626 C 11.268 10.401,11.681 10.127,12.140 9.664 C 12.773 9.024,13.051 8.460,13.127 7.657 C 13.213 6.749,13.081 6.069,12.688 5.409 C 12.252 4.675,11.302 3.944,10.570 3.777 C 10.167 3.686,8.964 3.662,8.680 3.741 M15.780 9.715 C 15.195 9.737,15.081 9.751,14.961 9.822 C 14.644 10.008,14.410 10.502,14.451 10.899 C 14.494 11.311,14.843 11.795,15.159 11.880 C 15.439 11.955,16.454 11.999,17.920 11.999 C 19.583 11.998,20.694 11.949,20.889 11.867 C 21.045 11.801,21.422 11.411,21.484 11.252 C 21.561 11.054,21.542 10.520,21.451 10.319 C 21.340 10.075,21.051 9.803,20.855 9.759 C 20.662 9.715,16.705 9.681,15.780 9.715 M8.510 13.320 C 7.947 13.390,7.071 13.683,6.367 14.036 C 5.564 14.440,5.051 14.826,4.366 15.542 C 3.420 16.533,2.833 17.690,2.540 19.140 C 2.486 19.404,2.430 19.796,2.415 20.010 L 2.388 20.400 9.594 20.400 L 16.800 20.400 16.800 20.165 C 16.800 19.692,16.543 18.512,16.296 17.851 C 15.744 16.373,14.674 15.109,13.252 14.255 C 12.582 13.852,11.609 13.484,10.900 13.365 C 10.574 13.310,8.845 13.277,8.510 13.320 " fill="#373B4D" stroke="none" fill-rule="evenodd"></path></svg>