<svg width="24" height="24" viewBox="0 0 24 24" fill="none" xmlns="http://www.w3.org/2000/svg"><path d="M6.477 3.763 C 5.840 3.856,5.173 4.258,4.537 4.929 C 4.186 5.300,4.020 5.578,3.863 6.060 C 3.644 6.729,3.593 7.296,3.704 7.832 C 3.931 8.936,4.691 9.905,5.740 10.429 C 6.249 10.683,6.345 10.701,7.208 10.692 C 7.939 10.684,8.018 10.676,8.308 10.579 C 9.097 10.315,9.994 9.497,10.412 8.660 C 10.592 8.300,10.662 8.058,10.720 7.592 C 10.807 6.903,10.632 6.072,10.271 5.462 C 10.081 5.140,9.493 4.533,9.139 4.293 C 8.585 3.918,8.296 3.825,7.482 3.762 C 6.884 3.715,6.798 3.715,6.477 3.763 M15.711 3.858 C 15.200 4.035,14.635 4.409,14.217 4.847 C 13.581 5.513,13.277 6.272,13.273 7.200 C 13.269 8.219,13.600 8.967,14.393 9.728 C 14.799 10.117,15.097 10.323,15.540 10.519 L 15.860 10.660 16.740 10.659 L 17.620 10.657 17.971 10.524 C 18.865 10.186,19.592 9.485,20.102 8.470 L 20.328 8.020 20.300 7.243 C 20.268 6.371,20.231 6.179,20.003 5.726 C 19.713 5.149,19.203 4.591,18.605 4.195 C 18.107 3.866,17.595 3.759,16.540 3.763 C 16.061 3.764,15.941 3.778,15.711 3.858 M6.231 13.361 C 5.621 13.430,4.501 13.888,3.898 14.314 C 3.191 14.813,2.470 15.557,2.116 16.153 C 1.871 16.565,1.594 17.207,1.461 17.670 C 1.306 18.208,1.237 18.747,1.212 19.610 L 1.188 20.400 7.194 20.400 L 13.200 20.400 13.200 19.884 C 13.200 18.956,13.075 18.082,12.836 17.343 C 12.683 16.869,12.332 16.167,12.085 15.840 C 11.777 15.432,10.849 14.550,10.463 14.299 C 10.101 14.063,9.272 13.650,8.940 13.540 C 8.488 13.391,6.894 13.285,6.231 13.361 M15.720 13.388 C 15.486 13.430,14.823 13.608,14.514 13.713 C 14.060 13.867,13.880 13.958,13.880 14.030 C 13.880 14.064,14.050 14.408,14.258 14.796 C 14.696 15.613,15.039 16.351,15.177 16.774 C 15.349 17.303,15.438 18.106,15.503 19.730 L 15.530 20.400 19.171 20.400 L 22.813 20.400 22.786 19.690 C 22.741 18.512,22.596 17.700,22.294 16.946 C 22.026 16.276,21.748 15.869,21.102 15.205 C 19.990 14.061,18.963 13.527,17.636 13.403 C 17.197 13.362,15.926 13.352,15.720 13.388 " fill="#373B4D" stroke="none" fill-rule="evenodd"></path></svg>