<svg width="24" height="24" viewBox="0 0 24 24" fill="none" xmlns="http://www.w3.org/2000/svg"><path d="M11.360 3.685 C 10.361 3.835,9.274 4.659,8.779 5.642 C 8.508 6.179,8.460 6.419,8.460 7.220 C 8.460 7.805,8.474 7.985,8.533 8.178 C 8.852 9.211,9.806 10.216,10.815 10.583 C 11.193 10.720,11.659 10.774,12.256 10.750 C 12.711 10.732,12.824 10.713,13.113 10.606 C 14.090 10.246,14.833 9.577,15.261 8.670 C 15.496 8.173,15.540 7.941,15.540 7.200 C 15.540 6.459,15.496 6.227,15.261 5.730 C 14.951 5.074,14.471 4.547,13.807 4.131 C 13.296 3.812,12.902 3.710,12.000 3.665 C 11.791 3.654,11.503 3.663,11.360 3.685 M4.367 7.281 C 3.871 7.349,3.149 7.820,2.828 8.285 C 2.745 8.406,2.630 8.639,2.572 8.802 C 2.480 9.060,2.466 9.165,2.465 9.580 C 2.464 10.001,2.477 10.099,2.573 10.375 C 2.699 10.738,2.842 10.961,3.141 11.259 C 3.441 11.559,3.664 11.702,4.021 11.822 C 4.605 12.018,5.289 11.988,5.821 11.745 C 6.070 11.631,6.655 11.089,6.835 10.806 C 7.147 10.315,7.239 9.450,7.043 8.847 C 6.868 8.309,6.541 7.919,5.978 7.580 C 5.539 7.316,4.935 7.204,4.367 7.281 M18.767 7.281 C 18.271 7.349,17.549 7.820,17.228 8.285 C 17.145 8.406,17.030 8.639,16.972 8.802 C 16.880 9.060,16.866 9.165,16.865 9.580 C 16.864 10.001,16.877 10.099,16.973 10.375 C 17.104 10.751,17.227 10.937,17.566 11.270 C 17.903 11.601,18.054 11.698,18.423 11.822 C 19.005 12.018,19.689 11.988,20.221 11.745 C 20.470 11.631,21.055 11.089,21.235 10.806 C 21.547 10.315,21.639 9.450,21.443 8.847 C 21.268 8.309,20.941 7.919,20.378 7.580 C 19.939 7.316,19.335 7.204,18.767 7.281 M11.030 13.321 C 10.516 13.408,9.741 13.764,9.213 14.157 C 8.575 14.633,7.933 15.407,7.647 16.046 C 7.475 16.430,7.326 16.907,7.281 17.220 C 7.259 17.374,7.229 18.422,7.214 19.550 L 7.187 21.600 12.000 21.600 L 16.813 21.600 16.787 19.610 C 16.773 18.515,16.742 17.471,16.719 17.290 C 16.643 16.687,16.341 15.928,15.929 15.305 C 15.708 14.971,15.152 14.404,14.800 14.153 C 14.494 13.935,13.864 13.614,13.440 13.461 C 13.184 13.368,13.044 13.347,12.480 13.318 C 11.693 13.277,11.287 13.278,11.030 13.321 M4.300 14.481 C 3.808 14.533,3.354 14.702,2.870 15.012 C 2.308 15.371,1.690 16.119,1.463 16.713 C 1.251 17.267,1.235 17.458,1.212 19.610 L 1.191 21.600 2.996 21.600 L 4.800 21.600 4.801 20.270 C 4.801 19.538,4.819 18.564,4.841 18.105 C 4.902 16.785,5.005 16.237,5.386 15.190 C 5.540 14.766,5.593 14.577,5.563 14.547 C 5.474 14.458,4.829 14.424,4.300 14.481 M18.530 14.508 C 18.480 14.518,18.440 14.555,18.440 14.592 C 18.440 14.628,18.557 15.000,18.699 15.419 C 18.842 15.838,18.985 16.337,19.018 16.530 C 19.104 17.033,19.153 18.024,19.184 19.930 L 19.211 21.600 21.006 21.600 L 22.800 21.600 22.799 20.230 C 22.798 18.488,22.746 17.334,22.657 17.040 C 22.420 16.255,21.725 15.357,21.050 14.965 C 20.529 14.662,20.255 14.567,19.775 14.521 C 19.348 14.481,18.707 14.474,18.530 14.508 " fill="#373B4D" stroke="none" fill-rule="evenodd"></path></svg>