<svg width="24" height="24" viewBox="0 0 24 24" fill="none" xmlns="http://www.w3.org/2000/svg"><path d="M6.280 3.738 C 5.347 3.977,4.378 4.801,3.942 5.724 C 3.705 6.226,3.662 6.455,3.661 7.220 C 3.660 7.823,3.671 7.934,3.754 8.199 C 4.112 9.340,4.925 10.173,6.120 10.623 C 6.409 10.732,6.448 10.736,7.160 10.738 C 7.826 10.740,7.930 10.731,8.200 10.647 C 9.317 10.300,10.293 9.323,10.646 8.199 C 10.729 7.934,10.740 7.822,10.740 7.220 C 10.739 6.444,10.705 6.251,10.485 5.782 C 10.281 5.345,10.094 5.075,9.770 4.746 C 9.325 4.294,8.772 3.945,8.240 3.780 C 7.934 3.685,6.598 3.656,6.280 3.738 M15.880 3.743 C 15.759 3.777,15.480 3.891,15.260 3.998 C 14.346 4.442,13.571 5.364,13.343 6.280 C 13.240 6.692,13.219 7.393,13.296 7.836 C 13.586 9.492,15.064 10.760,16.704 10.760 C 17.680 10.760,18.540 10.431,19.209 9.803 C 19.711 9.332,19.995 8.883,20.225 8.200 C 20.331 7.882,20.338 7.820,20.336 7.240 C 20.333 6.555,20.282 6.268,20.081 5.797 C 19.766 5.057,19.108 4.373,18.337 3.988 C 17.873 3.756,17.666 3.715,16.840 3.698 C 16.262 3.686,16.052 3.695,15.880 3.743 M6.560 13.268 C 5.798 13.328,4.692 13.726,3.953 14.207 C 3.380 14.579,2.661 15.280,2.227 15.888 C 1.880 16.374,1.488 17.330,1.345 18.040 C 1.250 18.508,1.200 19.113,1.200 19.784 L 1.200 20.400 7.206 20.400 L 13.212 20.400 13.188 19.530 C 13.150 18.137,13.006 17.487,12.517 16.500 C 12.183 15.825,11.944 15.526,11.102 14.727 C 10.439 14.098,9.413 13.569,8.500 13.385 C 7.930 13.270,7.140 13.223,6.560 13.268 M16.160 13.280 C 15.579 13.326,14.524 13.632,13.969 13.916 L 13.805 13.999 14.105 14.447 C 14.601 15.189,15.092 16.263,15.298 17.055 C 15.488 17.787,15.537 18.258,15.538 19.370 L 15.540 20.400 19.176 20.400 L 22.812 20.400 22.789 19.550 C 22.734 17.515,22.256 16.266,21.080 15.080 C 20.347 14.342,19.508 13.803,18.681 13.543 C 17.989 13.324,16.955 13.216,16.160 13.280 " fill="#373B4D" stroke="none" fill-rule="evenodd"></path></svg>