<svg width="24" height="24" viewBox="0 0 24 24" fill="none" xmlns="http://www.w3.org/2000/svg"><path d="M8.696 3.799 C 8.056 3.872,6.854 4.821,6.412 5.603 C 6.168 6.034,6.120 6.259,6.073 7.216 L 6.032 8.053 6.201 8.375 C 6.460 8.871,6.741 9.263,7.117 9.654 C 7.893 10.462,8.423 10.692,9.632 10.747 C 10.262 10.775,10.443 10.739,10.980 10.476 C 11.816 10.067,12.606 9.231,12.962 8.380 C 13.096 8.060,13.096 8.060,13.112 7.267 C 13.127 6.524,13.123 6.458,13.039 6.227 C 12.718 5.341,12.197 4.696,11.383 4.179 C 11.032 3.956,10.727 3.846,10.333 3.801 C 9.944 3.756,9.077 3.755,8.696 3.799 M17.571 7.362 C 17.366 7.425,17.024 7.786,16.945 8.024 C 16.865 8.265,16.801 8.784,16.800 9.200 C 16.799 9.365,16.786 9.520,16.769 9.545 C 16.753 9.570,16.605 9.603,16.440 9.617 C 15.597 9.694,15.188 9.767,14.958 9.882 C 14.688 10.018,14.480 10.442,14.480 10.859 C 14.480 11.243,14.782 11.668,15.178 11.843 C 15.378 11.932,15.918 11.999,16.430 12.000 L 16.800 12.000 16.800 12.330 C 16.801 12.512,16.819 12.819,16.841 13.013 C 16.933 13.813,17.183 14.142,17.805 14.281 C 18.106 14.347,18.354 14.305,18.586 14.148 C 19.024 13.851,19.199 13.362,19.200 12.436 L 19.200 12.012 19.790 11.988 C 20.707 11.951,20.978 11.850,21.339 11.411 C 21.516 11.195,21.520 11.185,21.520 10.905 C 21.519 10.447,21.487 10.337,21.296 10.124 C 21.101 9.908,20.863 9.788,20.500 9.725 C 20.283 9.687,19.432 9.600,19.276 9.600 C 19.222 9.600,19.209 9.505,19.187 8.930 C 19.172 8.562,19.141 8.190,19.117 8.104 C 19.061 7.907,18.715 7.533,18.500 7.437 C 18.308 7.352,17.751 7.307,17.571 7.362 M8.531 13.362 C 7.501 13.489,6.031 14.121,5.240 14.776 C 4.912 15.048,4.119 15.855,3.868 16.173 C 3.325 16.858,2.880 17.822,2.600 18.920 C 2.500 19.313,2.401 19.953,2.400 20.210 L 2.400 20.400 9.606 20.400 L 16.812 20.400 16.789 20.069 C 16.744 19.439,16.474 18.352,16.180 17.620 C 15.629 16.251,14.485 15.004,13.035 14.191 C 12.106 13.671,11.493 13.475,10.580 13.406 C 9.726 13.341,8.852 13.322,8.531 13.362 " fill="#373B4D" stroke="none" fill-rule="evenodd"></path></svg>