<svg width="24" height="24" viewBox="0 0 24 24" fill="none" xmlns="http://www.w3.org/2000/svg"><path d="M11.260 3.717 C 11.150 3.735,10.916 3.806,10.739 3.874 C 9.844 4.221,9.023 5.036,8.653 5.943 C 8.535 6.232,8.509 6.357,8.477 6.775 C 8.425 7.462,8.478 8.058,8.624 8.419 C 8.985 9.318,9.956 10.269,10.815 10.565 C 11.395 10.765,12.159 10.817,12.752 10.698 C 13.376 10.572,14.231 10.048,14.686 9.513 C 15.110 9.014,15.333 8.597,15.468 8.049 C 15.563 7.662,15.562 6.634,15.466 6.280 C 15.159 5.148,14.006 4.008,12.937 3.780 C 12.610 3.710,11.546 3.670,11.260 3.717 M4.229 7.322 C 4.000 7.360,3.682 7.531,3.298 7.822 C 2.981 8.063,2.812 8.277,2.629 8.670 C 2.515 8.915,2.502 8.984,2.488 9.420 C 2.459 10.304,2.600 10.689,3.158 11.240 C 3.525 11.603,3.775 11.755,4.180 11.860 C 5.034 12.081,5.769 11.896,6.371 11.308 C 6.942 10.749,7.120 10.348,7.119 9.621 C 7.118 8.864,6.930 8.402,6.434 7.943 C 6.024 7.563,5.620 7.372,5.120 7.320 C 4.686 7.276,4.499 7.276,4.229 7.322 M18.629 7.322 C 18.400 7.360,18.082 7.531,17.698 7.822 C 17.381 8.063,17.215 8.273,17.030 8.668 C 16.914 8.916,16.902 8.982,16.887 9.420 C 16.858 10.301,16.998 10.681,17.556 11.237 C 17.924 11.604,18.171 11.754,18.580 11.860 C 19.434 12.081,20.169 11.896,20.771 11.308 C 21.342 10.749,21.520 10.348,21.519 9.621 C 21.518 8.864,21.330 8.402,20.834 7.943 C 20.424 7.563,20.020 7.372,19.520 7.320 C 19.086 7.276,18.899 7.276,18.629 7.322 M11.088 13.324 C 10.325 13.440,9.202 14.063,8.608 14.700 C 7.825 15.540,7.380 16.425,7.281 17.340 C 7.257 17.560,7.226 18.608,7.213 19.670 L 7.188 21.600 11.994 21.600 L 16.800 21.600 16.799 20.470 C 16.798 19.848,16.781 18.872,16.761 18.300 C 16.720 17.134,16.665 16.826,16.376 16.141 C 15.877 14.958,14.739 13.920,13.458 13.479 C 13.061 13.343,11.596 13.247,11.088 13.324 M4.220 14.504 C 3.747 14.609,3.569 14.658,3.414 14.727 C 2.455 15.151,1.583 16.156,1.338 17.120 C 1.257 17.437,1.205 18.703,1.202 20.410 L 1.200 21.600 3.000 21.600 L 4.800 21.600 4.800 20.830 C 4.801 19.586,4.875 17.537,4.937 17.039 C 5.012 16.432,5.077 16.159,5.346 15.308 C 5.522 14.755,5.561 14.585,5.524 14.548 C 5.477 14.501,4.399 14.464,4.220 14.504 M18.580 14.515 C 18.420 14.551,18.412 14.503,18.817 15.820 C 18.898 16.084,18.990 16.471,19.021 16.680 C 19.085 17.108,19.145 18.449,19.185 20.330 L 19.212 21.600 21.006 21.600 L 22.800 21.600 22.798 20.450 C 22.796 18.768,22.738 17.392,22.659 17.101 C 22.358 16.005,21.336 14.937,20.291 14.627 C 20.018 14.546,18.797 14.466,18.580 14.515 " fill="#373B4D" stroke="none" fill-rule="evenodd"></path></svg>