<svg width="24" height="24" viewBox="0 0 24 24" fill="none" xmlns="http://www.w3.org/2000/svg"><path d="M6.415 3.761 C 5.715 3.835,4.593 4.652,4.116 5.437 C 3.855 5.868,3.638 6.725,3.642 7.320 C 3.645 7.891,3.872 8.595,4.225 9.128 C 4.755 9.928,5.721 10.585,6.519 10.689 C 6.922 10.741,7.967 10.697,8.244 10.616 C 9.053 10.378,9.993 9.535,10.436 8.649 C 10.805 7.914,10.843 6.760,10.527 5.946 C 10.207 5.120,9.366 4.283,8.494 3.920 C 8.238 3.813,8.128 3.793,7.611 3.760 C 6.954 3.717,6.827 3.717,6.415 3.761 M16.030 3.763 C 15.716 3.809,15.321 3.982,14.897 4.259 C 14.304 4.645,13.825 5.189,13.558 5.778 C 13.167 6.640,13.160 7.724,13.539 8.581 C 13.861 9.310,14.561 10.036,15.303 10.412 C 15.791 10.658,16.003 10.700,16.740 10.696 C 17.294 10.692,17.477 10.676,17.726 10.608 C 18.802 10.316,19.693 9.477,20.185 8.291 L 20.331 7.940 20.306 7.176 C 20.286 6.578,20.263 6.355,20.201 6.156 C 19.978 5.438,19.258 4.557,18.558 4.143 C 18.096 3.870,17.874 3.809,17.180 3.763 C 16.467 3.715,16.360 3.715,16.030 3.763 M6.096 13.364 C 5.512 13.461,4.559 13.862,3.930 14.275 C 3.493 14.563,2.696 15.320,2.353 15.775 C 1.925 16.344,1.482 17.373,1.342 18.126 C 1.260 18.568,1.201 19.305,1.201 19.910 L 1.200 20.400 7.200 20.400 L 13.200 20.400 13.199 19.930 C 13.198 18.905,13.083 18.050,12.856 17.371 C 12.555 16.472,12.203 15.887,11.562 15.225 C 10.725 14.361,9.929 13.851,8.900 13.520 C 8.537 13.403,8.432 13.388,7.760 13.357 C 6.862 13.316,6.367 13.318,6.096 13.364 M15.748 13.359 C 15.446 13.414,14.704 13.633,14.315 13.782 C 13.738 14.002,13.763 13.929,14.085 14.470 C 14.239 14.729,14.498 15.210,14.660 15.540 C 15.329 16.902,15.405 17.239,15.488 19.230 L 15.537 20.400 19.174 20.400 L 22.812 20.400 22.788 19.650 C 22.751 18.521,22.590 17.642,22.277 16.864 C 22.086 16.387,21.804 15.953,21.353 15.442 C 20.353 14.308,19.226 13.629,18.000 13.423 C 17.559 13.348,16.039 13.305,15.748 13.359 " fill="#373B4D" stroke="none" fill-rule="evenodd"></path></svg>