<svg width="20" height="20" viewBox="0 0 20 20" fill="none" xmlns="http://www.w3.org/2000/svg">
<path fill-rule="evenodd" clip-rule="evenodd" d="M10 9C10.7956 9 11.5587 8.68393 12.1213 8.12132C12.6839 7.55871 13 6.79565 13 6C13 5.20435 12.6839 4.44129 12.1213 3.87868C11.5587 3.31607 10.7956 3 10 3C9.20435 3 8.44129 3.31607 7.87868 3.87868C7.31607 4.44129 7 5.20435 7 6C7 6.79565 7.31607 7.55871 7.87868 8.12132C8.44129 8.68393 9.20435 9 10 9ZM3 18C3 17.0807 3.18106 16.1705 3.53284 15.3212C3.88463 14.4719 4.40024 13.7003 5.05025 13.0503C5.70026 12.4002 6.47194 11.8846 7.32122 11.5328C8.1705 11.1811 9.08075 11 10 11C10.9193 11 11.8295 11.1811 12.6788 11.5328C13.5281 11.8846 14.2997 12.4002 14.9497 13.0503C15.5998 13.7003 16.1154 14.4719 16.4672 15.3212C16.8189 16.1705 17 17.0807 17 18H3Z" fill="#9CA3AF"/>
</svg>
