<svg width="24" height="24" viewBox="0 0 24 24" fill="none" xmlns="http://www.w3.org/2000/svg"><path d="M11.112 3.739 C 9.809 4.070,8.581 5.423,8.479 6.640 C 8.440 7.094,8.497 8.097,8.572 8.303 C 8.956 9.354,9.965 10.329,11.012 10.661 C 11.293 10.750,11.392 10.760,12.000 10.760 C 12.608 10.760,12.707 10.750,12.988 10.661 C 14.034 10.330,15.005 9.389,15.407 8.318 C 15.533 7.980,15.533 7.979,15.530 7.215 C 15.528 6.473,15.524 6.440,15.408 6.103 C 15.234 5.599,14.957 5.160,14.560 4.757 C 14.048 4.238,13.493 3.896,12.970 3.777 C 12.578 3.688,11.407 3.664,11.112 3.739 M10.660 13.336 C 9.767 13.506,8.772 13.854,8.040 14.252 C 7.255 14.679,6.688 15.107,6.020 15.778 C 5.468 16.333,5.185 16.691,4.825 17.291 C 4.206 18.321,3.678 20.003,3.613 21.150 L 3.588 21.600 11.994 21.600 L 20.400 21.600 20.400 21.357 C 20.400 20.679,20.089 19.304,19.743 18.448 C 19.332 17.432,18.733 16.532,17.941 15.739 C 16.785 14.582,15.347 13.788,13.735 13.417 C 13.285 13.313,13.198 13.307,12.100 13.295 C 11.254 13.286,10.864 13.297,10.660 13.336 " fill="#373B4D" stroke="none" fill-rule="evenodd"></path></svg>