<svg width="24" height="24" viewBox="0 0 24 24" fill="none" xmlns="http://www.w3.org/2000/svg"><path d="M6.527 3.721 C 6.208 3.765,6.050 3.816,5.700 3.990 C 5.147 4.265,4.495 4.845,4.146 5.372 C 3.690 6.063,3.515 7.307,3.758 8.140 C 4.056 9.161,4.776 9.992,5.769 10.460 C 6.243 10.684,6.461 10.724,7.180 10.724 C 7.901 10.724,8.235 10.661,8.687 10.441 C 9.452 10.067,10.251 9.196,10.559 8.398 C 10.807 7.754,10.809 6.676,10.564 6.005 C 10.184 4.963,9.038 3.949,8.052 3.781 C 7.633 3.709,6.839 3.678,6.527 3.721 M15.960 3.758 C 15.589 3.814,14.917 4.173,14.470 4.552 C 13.931 5.011,13.535 5.638,13.353 6.320 C 13.237 6.754,13.227 7.551,13.332 7.973 C 13.615 9.110,14.416 10.054,15.480 10.502 C 15.943 10.698,16.183 10.733,16.908 10.710 C 17.622 10.688,17.835 10.637,18.380 10.358 C 19.114 9.982,19.621 9.460,20.013 8.676 C 20.298 8.106,20.334 7.911,20.309 7.080 C 20.287 6.321,20.259 6.194,20.001 5.680 C 19.812 5.302,19.569 4.978,19.234 4.657 C 18.872 4.309,18.653 4.158,18.210 3.951 C 17.878 3.795,17.846 3.788,17.303 3.757 C 16.650 3.719,16.214 3.719,15.960 3.758 M6.340 13.318 C 5.606 13.403,4.472 13.863,3.760 14.364 C 3.364 14.642,2.513 15.500,2.247 15.891 C 1.864 16.450,1.491 17.358,1.341 18.095 C 1.260 18.495,1.202 19.235,1.201 19.890 L 1.200 20.400 7.200 20.400 L 13.200 20.400 13.199 19.910 C 13.198 18.499,13.016 17.562,12.563 16.623 C 12.274 16.023,11.993 15.630,11.501 15.138 C 10.516 14.152,9.522 13.596,8.360 13.380 C 7.966 13.307,6.753 13.269,6.340 13.318 M16.060 13.305 C 15.473 13.387,14.587 13.640,14.070 13.875 L 13.800 13.997 13.976 14.270 C 14.233 14.667,14.647 15.440,14.883 15.962 C 15.147 16.548,15.295 17.004,15.377 17.489 C 15.450 17.916,15.517 19.045,15.519 19.870 L 15.520 20.400 19.166 20.400 L 22.812 20.400 22.789 19.670 C 22.730 17.825,22.380 16.664,21.587 15.687 C 21.288 15.317,20.636 14.683,20.288 14.421 C 19.470 13.805,18.611 13.457,17.680 13.363 C 17.228 13.317,16.230 13.282,16.060 13.305 " fill="#373B4D" stroke="none" fill-rule="evenodd"></path></svg>