<svg width="24" height="24" viewBox="0 0 24 24" fill="none" xmlns="http://www.w3.org/2000/svg"><path d="M6.499 3.721 C 5.612 3.814,4.433 4.729,3.964 5.688 C 3.703 6.221,3.578 7.122,3.676 7.760 C 3.849 8.884,4.592 9.876,5.662 10.412 C 6.212 10.687,6.461 10.740,7.180 10.736 C 7.699 10.733,7.879 10.716,8.132 10.647 C 8.738 10.482,9.136 10.240,9.674 9.710 C 10.176 9.215,10.507 8.673,10.669 8.080 C 10.765 7.730,10.762 6.708,10.664 6.300 C 10.471 5.492,9.832 4.670,8.989 4.144 C 8.531 3.859,8.254 3.772,7.639 3.723 C 7.056 3.676,6.922 3.676,6.499 3.721 M15.820 3.775 C 15.110 4.018,14.424 4.490,13.995 5.029 C 12.594 6.793,13.230 9.420,15.300 10.421 C 15.838 10.681,16.078 10.732,16.760 10.730 C 17.450 10.727,17.783 10.654,18.346 10.380 C 19.052 10.037,19.600 9.494,19.967 8.777 C 20.303 8.121,20.331 7.985,20.311 7.127 C 20.294 6.405,20.289 6.368,20.165 6.035 C 19.799 5.055,18.930 4.181,17.993 3.851 C 17.719 3.754,17.643 3.747,16.840 3.734 C 16.186 3.723,15.942 3.733,15.820 3.775 M6.100 13.346 C 5.376 13.499,4.463 13.882,3.858 14.286 C 3.683 14.403,3.335 14.697,3.084 14.940 C 2.245 15.750,1.898 16.299,1.537 17.380 C 1.306 18.070,1.243 18.489,1.213 19.530 L 1.187 20.400 7.200 20.400 L 13.212 20.400 13.188 19.570 C 13.152 18.314,13.022 17.636,12.663 16.836 C 12.271 15.959,11.900 15.461,11.121 14.768 C 10.634 14.334,10.259 14.083,9.704 13.817 C 9.171 13.561,8.685 13.415,8.120 13.338 C 7.569 13.264,6.468 13.268,6.100 13.346 M16.040 13.305 C 15.482 13.376,14.615 13.624,14.097 13.860 L 13.800 13.995 14.042 14.368 C 14.331 14.813,14.853 15.834,15.057 16.354 C 15.337 17.070,15.438 17.565,15.481 18.438 C 15.501 18.868,15.519 19.485,15.519 19.810 L 15.520 20.400 19.160 20.400 L 22.800 20.400 22.800 19.986 C 22.800 19.093,22.678 18.080,22.494 17.442 C 22.225 16.513,21.835 15.876,21.060 15.099 C 20.519 14.557,20.040 14.194,19.484 13.907 C 18.923 13.618,18.560 13.492,18.002 13.396 C 17.555 13.319,16.363 13.264,16.040 13.305 " fill="#373B4D" stroke="none" fill-rule="evenodd"></path></svg>