<svg width="24" height="24" viewBox="0 0 24 24" fill="none" xmlns="http://www.w3.org/2000/svg"><path d="M6.449 3.721 C 6.219 3.746,6.072 3.794,5.744 3.954 C 4.865 4.384,4.165 5.122,3.841 5.964 C 3.690 6.355,3.619 6.986,3.658 7.580 C 3.743 8.851,4.644 10.017,5.954 10.551 C 6.377 10.724,6.818 10.778,7.500 10.742 C 8.345 10.697,8.993 10.397,9.661 9.740 C 10.275 9.137,10.637 8.473,10.725 7.788 C 10.789 7.298,10.737 6.497,10.618 6.122 C 10.321 5.188,9.467 4.285,8.501 3.883 C 8.246 3.777,8.117 3.751,7.689 3.720 C 7.112 3.677,6.865 3.678,6.449 3.721 M16.056 3.719 C 15.721 3.757,14.995 4.111,14.591 4.433 C 13.638 5.193,13.177 6.230,13.255 7.440 C 13.352 8.955,14.424 10.252,15.920 10.665 C 16.275 10.763,17.186 10.764,17.574 10.668 C 18.840 10.352,19.755 9.513,20.202 8.260 C 20.326 7.911,20.330 7.881,20.328 7.259 C 20.326 6.820,20.306 6.531,20.262 6.343 C 20.178 5.978,19.928 5.455,19.679 5.118 C 19.179 4.444,18.323 3.866,17.676 3.764 C 17.336 3.711,16.362 3.684,16.056 3.719 M6.520 13.279 C 5.616 13.374,4.443 13.839,3.693 14.398 C 3.072 14.861,2.323 15.674,2.024 16.211 C 1.841 16.539,1.550 17.260,1.439 17.659 C 1.286 18.212,1.239 18.593,1.213 19.510 L 1.188 20.400 7.194 20.400 L 13.200 20.400 13.200 19.910 C 13.200 18.878,13.098 18.048,12.893 17.404 C 12.751 16.955,12.292 16.043,12.046 15.719 C 11.720 15.291,10.904 14.527,10.448 14.224 C 9.723 13.741,8.863 13.414,8.080 13.324 C 7.560 13.264,6.853 13.244,6.520 13.279 M15.665 13.360 C 15.067 13.487,14.390 13.707,13.991 13.906 L 13.802 14.000 14.086 14.430 C 14.454 14.988,14.955 16.013,15.157 16.620 C 15.455 17.520,15.486 17.746,15.509 19.150 L 15.529 20.400 19.171 20.400 L 22.812 20.400 22.787 19.610 C 22.719 17.500,22.295 16.355,21.142 15.165 C 20.297 14.292,19.375 13.719,18.428 13.477 C 17.623 13.271,16.344 13.217,15.665 13.360 " fill="#373B4D" stroke="none" fill-rule="evenodd"></path></svg>