<svg width="24" height="24" viewBox="0 0 24 24" fill="none" xmlns="http://www.w3.org/2000/svg"><path d="M10.460 2.556 C 8.397 2.940,6.796 3.749,5.385 5.120 C 4.496 5.984,3.882 6.821,3.377 7.860 C 2.066 10.554,2.096 13.601,3.462 16.323 C 4.177 17.749,5.334 19.053,6.680 19.949 C 7.607 20.566,8.758 21.065,9.980 21.380 C 10.692 21.563,12.698 21.607,13.602 21.459 C 14.327 21.340,15.373 20.991,16.183 20.597 C 17.678 19.870,19.020 18.714,19.908 17.388 C 20.322 16.768,20.870 15.645,21.111 14.919 C 21.413 14.007,21.475 13.692,21.529 12.787 C 21.595 11.660,21.531 10.569,21.360 9.900 C 21.053 8.702,20.624 7.713,19.996 6.757 C 18.554 4.560,16.139 2.990,13.567 2.575 C 13.303 2.532,12.811 2.507,12.020 2.497 C 11.015 2.484,10.807 2.492,10.460 2.556 M12.373 6.081 C 13.320 6.218,14.203 7.107,14.318 8.038 C 14.352 8.317,14.325 8.776,14.257 9.063 C 14.196 9.322,13.949 9.715,13.668 10.000 C 13.192 10.483,12.745 10.721,12.196 10.784 C 11.891 10.819,11.376 10.712,11.001 10.536 C 10.591 10.343,10.129 9.874,9.880 9.397 C 9.705 9.062,9.704 9.057,9.687 8.578 C 9.678 8.293,9.690 8.003,9.718 7.868 C 9.828 7.339,10.238 6.767,10.751 6.426 C 11.281 6.074,11.703 5.984,12.373 6.081 M12.806 13.322 C 14.140 13.458,15.501 14.171,16.441 15.228 C 16.879 15.720,17.360 16.483,17.360 16.687 C 17.360 16.809,16.646 17.499,16.155 17.851 C 15.686 18.188,14.795 18.636,14.230 18.819 C 12.029 19.532,9.589 19.146,7.780 17.798 C 7.132 17.315,6.600 16.806,6.600 16.668 C 6.600 16.584,7.021 15.901,7.277 15.569 C 8.131 14.465,9.562 13.576,10.860 13.344 C 11.246 13.275,12.236 13.264,12.806 13.322 " fill="#373B4D" stroke="none" fill-rule="evenodd"></path></svg>