<svg width="24" height="24" viewBox="0 0 24 24" fill="none" xmlns="http://www.w3.org/2000/svg"><path d="M10.660 2.601 C 9.835 2.654,8.901 2.934,7.932 3.419 C 6.915 3.928,6.190 4.422,5.524 5.059 C 4.210 6.315,3.506 7.395,2.955 8.996 C 2.612 9.992,2.499 10.606,2.456 11.693 C 2.402 13.057,2.604 14.186,3.137 15.514 C 3.660 16.813,4.230 17.672,5.239 18.681 C 6.113 19.556,6.684 19.967,7.781 20.513 C 8.654 20.948,9.091 21.124,9.682 21.279 C 10.454 21.481,11.004 21.530,12.289 21.509 C 13.385 21.492,13.435 21.487,13.920 21.369 C 16.834 20.654,19.188 18.870,20.433 16.434 C 20.676 15.959,21.082 14.964,21.239 14.460 C 21.392 13.967,21.438 13.640,21.487 12.712 C 21.590 10.728,21.434 9.797,20.732 8.201 C 19.765 6.002,18.098 4.338,15.838 3.317 C 14.934 2.909,14.057 2.676,13.140 2.601 C 12.607 2.557,11.338 2.557,10.660 2.601 M12.460 6.180 C 13.086 6.312,13.553 6.650,14.012 7.306 L 14.240 7.632 14.240 8.393 L 14.240 9.153 14.040 9.452 C 13.777 9.846,13.249 10.344,12.918 10.509 C 12.431 10.754,12.020 10.812,11.578 10.699 C 10.877 10.520,10.247 10.002,9.912 9.329 C 9.793 9.089,9.787 9.049,9.769 8.489 C 9.747 7.787,9.772 7.675,10.038 7.267 C 10.364 6.767,10.869 6.334,11.309 6.177 C 11.510 6.106,12.112 6.107,12.460 6.180 M13.187 13.443 C 14.130 13.538,15.453 14.268,16.289 15.154 C 16.817 15.714,17.240 16.376,17.240 16.643 C 17.240 17.013,16.237 17.860,15.156 18.402 C 14.635 18.664,13.823 18.933,13.233 19.040 C 11.459 19.362,9.599 18.967,8.060 17.942 C 7.384 17.492,6.679 16.847,6.681 16.681 C 6.682 16.588,7.026 15.966,7.205 15.734 C 7.458 15.406,8.352 14.560,8.693 14.326 C 9.077 14.062,9.833 13.682,10.252 13.541 C 10.427 13.483,10.726 13.422,10.932 13.403 C 11.354 13.365,12.645 13.388,13.187 13.443 " fill="#373B4D" stroke="none" fill-rule="evenodd"></path></svg>