<svg width="24" height="24" viewBox="0 0 24 24" fill="none" xmlns="http://www.w3.org/2000/svg"><path d="M8.651 3.838 C 8.058 3.932,7.001 4.729,6.528 5.438 C 6.209 5.915,6.102 6.377,6.055 7.479 L 6.028 8.102 6.261 8.481 C 6.965 9.626,7.716 10.335,8.460 10.557 C 8.826 10.666,9.463 10.759,9.842 10.760 C 10.224 10.760,10.536 10.681,10.940 10.481 C 11.358 10.274,11.703 10.009,12.121 9.574 C 12.505 9.175,12.731 8.852,12.962 8.369 L 13.120 8.038 13.120 7.203 L 13.120 6.368 12.959 6.018 C 12.742 5.545,12.494 5.183,12.154 4.839 C 11.664 4.345,11.171 4.027,10.690 3.897 C 10.424 3.824,8.995 3.783,8.651 3.838 M17.080 9.802 C 16.145 9.818,15.272 9.851,15.140 9.875 C 14.949 9.910,14.874 9.947,14.773 10.056 C 14.542 10.304,14.445 10.902,14.582 11.231 C 14.659 11.416,14.931 11.701,15.128 11.803 C 15.401 11.944,15.951 11.978,17.940 11.976 C 20.408 11.974,20.840 11.925,21.174 11.608 C 21.476 11.321,21.578 10.940,21.461 10.538 C 21.386 10.280,21.302 10.138,21.086 9.910 L 20.944 9.760 19.862 9.767 C 19.267 9.770,18.015 9.786,17.080 9.802 M8.514 13.402 C 7.740 13.471,6.441 13.966,5.647 14.496 C 5.088 14.868,4.214 15.727,3.733 16.376 C 3.109 17.217,2.498 18.919,2.414 20.050 L 2.388 20.400 9.594 20.400 L 16.800 20.400 16.800 20.225 C 16.800 19.849,16.579 18.829,16.335 18.080 C 15.904 16.758,15.021 15.579,13.818 14.722 C 12.905 14.071,11.960 13.635,11.164 13.499 C 10.491 13.384,9.235 13.338,8.514 13.402 " fill="#373B4D" stroke="none" fill-rule="evenodd"></path></svg>