<svg width="24" height="24" viewBox="0 0 24 24" fill="none" xmlns="http://www.w3.org/2000/svg"><path d="M6.236 3.775 C 5.426 4.011,4.410 4.837,4.040 5.561 C 3.673 6.282,3.545 7.338,3.739 8.058 C 4.053 9.224,4.928 10.170,6.088 10.593 C 6.368 10.696,6.413 10.700,7.180 10.700 C 8.067 10.700,8.219 10.672,8.722 10.419 C 9.495 10.030,10.339 9.072,10.580 8.311 C 10.835 7.508,10.794 6.513,10.480 5.815 C 10.075 4.917,9.103 4.061,8.210 3.816 C 7.891 3.728,6.496 3.700,6.236 3.775 M15.980 3.765 C 15.532 3.830,14.807 4.239,14.325 4.697 C 13.260 5.712,12.952 7.286,13.558 8.622 C 14.001 9.599,14.980 10.426,15.970 10.660 C 16.485 10.781,17.535 10.715,17.999 10.532 C 18.975 10.148,19.736 9.378,20.168 8.338 L 20.300 8.020 20.298 7.240 C 20.297 6.610,20.283 6.414,20.225 6.222 C 20.065 5.690,19.732 5.164,19.264 4.700 C 18.887 4.327,18.582 4.115,18.154 3.930 C 17.873 3.809,17.796 3.794,17.234 3.760 C 16.521 3.716,16.309 3.717,15.980 3.765 M5.853 13.416 C 4.884 13.673,3.969 14.147,3.350 14.713 C 2.487 15.502,2.082 16.042,1.738 16.863 C 1.360 17.765,1.249 18.337,1.212 19.570 L 1.188 20.400 7.200 20.400 L 13.211 20.400 13.188 19.590 C 13.154 18.389,13.029 17.726,12.682 16.896 C 12.384 16.182,12.048 15.693,11.446 15.094 C 10.595 14.249,9.705 13.720,8.681 13.451 C 8.332 13.359,8.213 13.349,7.260 13.335 C 6.259 13.319,6.206 13.323,5.853 13.416 M15.800 13.348 C 15.350 13.427,14.458 13.702,14.032 13.892 L 13.805 13.993 14.066 14.427 C 14.417 15.008,14.916 16.009,15.098 16.497 C 15.377 17.243,15.461 17.857,15.507 19.483 L 15.533 20.400 19.166 20.400 L 22.800 20.400 22.800 19.970 C 22.798 18.485,22.508 17.138,22.009 16.300 C 21.624 15.654,20.762 14.749,20.095 14.292 C 19.269 13.726,18.523 13.451,17.572 13.361 C 17.152 13.321,16.002 13.313,15.800 13.348 " fill="#373B4D" stroke="none" fill-rule="evenodd"></path></svg>