<svg width="24" height="24" viewBox="0 0 24 24" fill="none" xmlns="http://www.w3.org/2000/svg"><path d="M8.960 3.685 C 8.330 3.780,7.715 4.103,7.154 4.634 C 6.764 5.003,6.525 5.334,6.282 5.843 C 6.073 6.280,6.040 6.475,6.040 7.267 C 6.040 7.823,6.052 7.960,6.122 8.167 C 6.446 9.129,7.202 10.001,8.100 10.451 C 8.564 10.683,8.745 10.720,9.560 10.746 L 10.300 10.769 10.643 10.643 C 11.854 10.199,12.761 9.256,13.068 8.120 C 13.168 7.751,13.168 6.649,13.068 6.280 C 12.975 5.937,12.759 5.485,12.544 5.184 C 12.157 4.641,11.418 4.058,10.862 3.857 C 10.438 3.702,9.442 3.613,8.960 3.685 M17.475 7.360 C 17.395 7.403,17.249 7.517,17.152 7.614 C 16.889 7.877,16.836 8.078,16.810 8.904 L 16.789 9.588 16.222 9.615 C 15.242 9.661,14.940 9.748,14.712 10.048 C 14.463 10.376,14.394 10.687,14.480 11.098 C 14.523 11.308,14.557 11.363,14.794 11.603 C 14.982 11.793,15.107 11.886,15.220 11.917 C 15.308 11.941,15.697 11.973,16.084 11.987 L 16.788 12.012 16.813 12.746 C 16.843 13.589,16.868 13.682,17.152 13.973 C 17.439 14.269,17.596 14.336,18.000 14.338 C 18.274 14.339,18.371 14.323,18.502 14.253 C 18.718 14.138,18.985 13.873,19.055 13.705 C 19.146 13.487,19.200 13.044,19.200 12.509 L 19.200 12.013 19.910 11.987 C 20.300 11.973,20.691 11.941,20.778 11.916 C 20.887 11.886,21.021 11.787,21.204 11.605 C 21.443 11.365,21.476 11.313,21.520 11.100 C 21.606 10.687,21.537 10.376,21.288 10.048 C 21.060 9.748,20.772 9.667,19.755 9.616 L 19.212 9.588 19.189 8.844 C 19.177 8.435,19.149 8.054,19.127 7.997 C 19.064 7.833,18.692 7.453,18.506 7.363 C 18.270 7.249,17.689 7.247,17.475 7.360 M8.249 13.361 C 7.114 13.607,5.998 14.120,5.180 14.771 C 4.804 15.071,4.135 15.749,3.875 16.093 C 3.592 16.469,3.249 17.044,3.054 17.470 C 2.733 18.169,2.464 19.244,2.412 20.029 L 2.388 20.400 9.594 20.400 L 16.800 20.400 16.800 20.190 C 16.799 19.672,16.548 18.491,16.301 17.843 C 15.941 16.898,15.414 16.090,14.682 15.358 C 13.708 14.384,12.516 13.724,11.180 13.417 C 10.735 13.315,10.625 13.306,9.660 13.294 C 8.737 13.283,8.578 13.290,8.249 13.361 " fill="#373B4D" stroke="none" fill-rule="evenodd"></path></svg>