<svg width="24" height="24" viewBox="0 0 24 24" fill="none" xmlns="http://www.w3.org/2000/svg"><path d="M10.380 2.584 C 9.146 2.805,7.814 3.332,6.818 3.994 C 5.607 4.798,4.441 6.012,3.731 7.210 C 3.095 8.282,2.595 9.799,2.477 11.017 C 2.416 11.644,2.450 13.022,2.538 13.500 C 2.834 15.098,3.464 16.562,4.384 17.783 C 4.692 18.193,5.413 18.941,5.860 19.314 C 6.955 20.230,8.796 21.132,10.113 21.398 C 10.966 21.570,12.647 21.601,13.520 21.460 C 14.869 21.242,16.569 20.504,17.751 19.625 C 18.512 19.058,19.458 18.066,19.930 17.340 C 20.536 16.406,21.175 14.903,21.408 13.860 C 21.477 13.553,21.492 13.309,21.509 12.193 C 21.531 10.702,21.515 10.522,21.278 9.660 C 20.383 6.398,18.040 3.934,14.858 2.907 C 14.259 2.714,13.727 2.612,13.060 2.562 C 12.253 2.502,10.772 2.514,10.380 2.584 M12.736 6.194 C 13.270 6.385,13.817 6.866,14.090 7.387 L 14.240 7.672 14.240 8.400 L 14.240 9.129 14.116 9.362 C 13.664 10.210,12.626 10.868,11.884 10.777 C 11.567 10.738,11.101 10.578,10.840 10.420 C 10.426 10.169,9.943 9.576,9.777 9.114 C 9.696 8.890,9.684 8.142,9.758 7.840 C 9.937 7.099,10.616 6.385,11.378 6.134 C 11.629 6.051,12.436 6.087,12.736 6.194 M13.320 13.419 C 14.025 13.576,14.670 13.853,15.298 14.268 C 15.845 14.630,16.572 15.359,16.938 15.912 C 17.282 16.431,17.342 16.591,17.263 16.779 C 17.105 17.157,16.059 17.971,15.139 18.431 C 14.328 18.837,13.268 19.113,12.380 19.149 C 10.743 19.215,9.326 18.820,7.996 17.926 C 7.340 17.484,6.639 16.836,6.641 16.673 C 6.641 16.644,6.713 16.488,6.801 16.326 C 7.565 14.925,9.141 13.747,10.720 13.396 C 11.016 13.331,11.188 13.323,12.040 13.337 C 12.758 13.349,13.100 13.371,13.320 13.419 " fill="#373B4D" stroke="none" fill-rule="evenodd"></path></svg>