<svg width="24" height="24" viewBox="0 0 24 24" fill="none" xmlns="http://www.w3.org/2000/svg"><path d="M8.776 3.798 C 7.997 3.888,6.734 4.905,6.326 5.770 C 6.160 6.122,6.128 6.311,6.073 7.243 L 6.025 8.065 6.279 8.512 C 6.821 9.467,7.624 10.263,8.298 10.516 C 8.859 10.726,9.937 10.823,10.394 10.705 C 11.389 10.449,12.510 9.432,12.963 8.376 L 13.099 8.060 13.099 7.200 L 13.100 6.340 12.972 6.046 C 12.770 5.581,12.534 5.215,12.225 4.889 C 11.723 4.359,11.137 3.980,10.630 3.860 C 10.332 3.789,9.184 3.751,8.776 3.798 M16.580 9.799 C 14.818 9.828,14.862 9.818,14.649 10.240 C 14.389 10.754,14.447 11.210,14.819 11.583 C 15.136 11.902,15.223 11.921,16.590 11.971 C 17.425 12.002,18.160 12.002,19.150 11.971 C 20.808 11.920,20.863 11.909,21.206 11.566 C 21.527 11.244,21.591 10.959,21.452 10.463 C 21.397 10.263,21.344 10.179,21.156 9.990 L 20.926 9.760 19.493 9.767 C 18.705 9.771,17.394 9.785,16.580 9.799 M8.120 13.439 C 7.357 13.603,6.259 14.073,5.587 14.523 C 5.015 14.907,4.000 15.944,3.598 16.555 C 3.001 17.463,2.489 18.971,2.413 20.050 L 2.388 20.400 9.600 20.400 L 16.812 20.400 16.786 20.059 C 16.734 19.390,16.416 18.165,16.111 17.460 C 15.745 16.614,15.058 15.717,14.267 15.054 C 13.313 14.252,12.089 13.630,11.180 13.484 C 10.305 13.343,8.678 13.319,8.120 13.439 " fill="#373B4D" stroke="none" fill-rule="evenodd"></path></svg>