<svg width="24" height="24" viewBox="0 0 24 24" fill="none" xmlns="http://www.w3.org/2000/svg"><path d="M10.736 3.892 C 10.271 4.088,9.872 4.360,9.502 4.735 C 8.979 5.266,8.652 5.817,8.537 6.360 C 8.472 6.665,8.463 7.573,8.522 7.980 C 8.600 8.528,8.962 9.121,9.589 9.725 C 10.405 10.512,10.935 10.720,12.125 10.720 C 12.803 10.720,12.992 10.676,13.520 10.394 C 14.434 9.905,15.206 9.019,15.423 8.210 C 15.520 7.845,15.546 6.691,15.463 6.340 C 15.231 5.351,14.213 4.233,13.216 3.873 C 13.006 3.797,12.876 3.786,12.020 3.772 L 11.060 3.756 10.736 3.892 M4.031 7.401 C 3.401 7.657,2.850 8.178,2.575 8.780 C 2.473 9.003,2.470 9.028,2.491 9.555 C 2.527 10.440,2.626 10.674,3.203 11.247 C 3.684 11.725,4.148 11.921,4.804 11.923 C 5.557 11.926,5.996 11.705,6.594 11.024 C 6.711 10.890,6.851 10.695,6.904 10.591 C 7.116 10.175,7.174 9.596,7.055 9.068 C 6.951 8.601,6.824 8.376,6.462 8.017 C 5.941 7.499,5.472 7.320,4.640 7.323 C 4.321 7.324,4.175 7.343,4.031 7.401 M18.431 7.401 C 17.801 7.657,17.250 8.178,16.975 8.780 C 16.873 9.003,16.870 9.028,16.891 9.555 C 16.927 10.438,17.027 10.676,17.597 11.240 C 18.085 11.723,18.551 11.921,19.204 11.923 C 19.957 11.926,20.396 11.705,20.994 11.024 C 21.111 10.890,21.251 10.695,21.304 10.591 C 21.516 10.175,21.574 9.596,21.455 9.068 C 21.351 8.601,21.224 8.376,20.862 8.017 C 20.341 7.499,19.872 7.320,19.040 7.323 C 18.721 7.324,18.575 7.343,18.431 7.401 M10.672 13.435 C 10.547 13.476,10.277 13.592,10.072 13.691 C 9.002 14.213,8.212 14.988,7.699 16.020 C 7.293 16.837,7.248 17.180,7.212 19.770 L 7.187 21.600 12.000 21.600 L 16.813 21.600 16.786 19.790 C 16.772 18.794,16.742 17.791,16.719 17.560 C 16.648 16.831,16.405 16.090,16.069 15.569 C 15.427 14.578,14.334 13.742,13.328 13.474 C 13.064 13.403,12.867 13.389,11.960 13.375 C 11.001 13.361,10.878 13.366,10.672 13.435 M3.932 14.580 C 3.577 14.657,3.071 14.908,2.692 15.195 C 2.007 15.713,1.486 16.487,1.335 17.209 C 1.261 17.564,1.202 18.999,1.201 20.470 L 1.200 21.600 2.994 21.600 L 4.787 21.600 4.815 20.310 C 4.846 18.818,4.903 17.575,4.962 17.060 C 5.018 16.578,5.080 16.288,5.324 15.386 C 5.519 14.664,5.525 14.623,5.457 14.573 C 5.359 14.501,4.270 14.507,3.932 14.580 M18.504 14.554 C 18.480 14.593,18.573 14.994,18.779 15.740 C 18.971 16.435,19.028 16.829,19.078 17.780 C 19.127 18.706,19.200 20.788,19.200 21.270 L 19.200 21.600 21.000 21.600 L 22.800 21.600 22.799 20.490 C 22.798 19.049,22.739 17.620,22.664 17.233 C 22.457 16.156,21.369 14.965,20.318 14.664 C 19.976 14.567,18.550 14.480,18.504 14.554 " fill="#373B4D" stroke="none" fill-rule="evenodd"></path></svg>