<svg width="24" height="24" viewBox="0 0 24 24" fill="none" xmlns="http://www.w3.org/2000/svg"><path d="M8.686 3.724 C 8.038 3.898,7.504 4.219,7.011 4.733 C 6.648 5.112,6.385 5.529,6.192 6.037 L 6.061 6.380 6.061 7.200 L 6.061 8.020 6.192 8.363 C 6.601 9.436,7.373 10.207,8.437 10.606 C 8.766 10.729,8.809 10.735,9.484 10.751 C 10.265 10.769,10.441 10.742,10.988 10.514 C 11.998 10.094,12.817 9.140,13.099 8.056 C 13.183 7.736,13.183 6.664,13.099 6.344 C 12.758 5.034,11.661 3.964,10.392 3.703 C 9.941 3.611,9.068 3.621,8.686 3.724 M15.640 9.634 C 15.170 9.663,15.014 9.720,14.777 9.951 C 14.296 10.418,14.304 11.192,14.795 11.652 C 15.161 11.994,15.026 11.980,18.020 11.980 C 20.114 11.980,20.691 11.969,20.810 11.927 C 21.016 11.854,21.375 11.516,21.482 11.295 C 21.607 11.039,21.607 10.561,21.482 10.305 C 21.372 10.076,21.004 9.736,20.809 9.682 C 20.637 9.635,16.287 9.594,15.640 9.634 M9.080 13.224 C 8.364 13.287,7.546 13.488,6.828 13.779 C 4.756 14.617,3.119 16.542,2.604 18.748 C 2.506 19.171,2.400 19.926,2.400 20.207 L 2.400 20.400 9.600 20.400 L 16.800 20.400 16.800 20.229 C 16.800 20.135,16.773 19.840,16.740 19.575 C 16.343 16.364,13.963 13.863,10.790 13.322 C 10.346 13.246,9.430 13.194,9.080 13.224 " fill="#373B4D" stroke="none" fill-rule="evenodd"></path></svg>