<svg width="24" height="24" viewBox="0 0 24 24" fill="none" xmlns="http://www.w3.org/2000/svg"><path d="M11.300 3.758 C 10.268 3.844,9.030 4.915,8.609 6.088 C 8.508 6.367,8.503 6.416,8.503 7.200 C 8.502 7.985,8.507 8.034,8.610 8.340 C 8.928 9.288,10.020 10.342,11.000 10.647 C 11.267 10.730,11.378 10.740,12.020 10.740 C 12.805 10.740,12.924 10.717,13.420 10.469 C 14.138 10.110,14.822 9.442,15.215 8.713 C 15.479 8.223,15.500 8.111,15.500 7.180 L 15.500 6.340 15.374 6.029 C 15.304 5.857,15.175 5.596,15.087 5.447 C 14.637 4.690,13.608 3.902,12.937 3.803 C 12.598 3.752,11.675 3.727,11.300 3.758 M10.780 13.361 C 10.229 13.406,9.647 13.569,8.848 13.904 C 7.659 14.402,6.800 14.989,5.919 15.904 C 4.879 16.985,4.314 18.048,3.859 19.780 C 3.693 20.410,3.600 20.968,3.600 21.330 L 3.600 21.600 12.000 21.600 L 20.400 21.600 20.400 21.401 C 20.400 20.856,20.142 19.616,19.860 18.800 C 19.365 17.374,18.280 15.893,17.069 14.994 C 16.129 14.297,14.917 13.718,13.895 13.479 C 13.281 13.335,11.794 13.279,10.780 13.361 " fill="#373B4D" stroke="none" fill-rule="evenodd"></path></svg>