<svg width="24" height="24" viewBox="0 0 24 24" fill="none" xmlns="http://www.w3.org/2000/svg"><path d="M8.540 3.816 C 7.873 4.028,6.953 4.761,6.519 5.425 C 6.155 5.982,6.075 6.331,6.066 7.380 L 6.060 8.100 6.231 8.435 C 6.599 9.155,7.213 9.870,7.797 10.258 C 8.307 10.597,8.710 10.704,9.642 10.746 C 10.181 10.770,10.245 10.765,10.502 10.680 C 11.086 10.488,11.628 10.138,12.134 9.628 C 12.524 9.234,12.792 8.828,12.963 8.371 L 13.095 8.020 13.096 7.200 L 13.096 6.380 12.969 6.045 C 12.720 5.387,12.306 4.847,11.705 4.393 C 11.260 4.057,10.818 3.850,10.440 3.801 C 10.000 3.744,8.735 3.754,8.540 3.816 M17.499 7.392 C 17.411 7.434,17.255 7.561,17.152 7.675 C 16.914 7.940,16.839 8.236,16.810 9.030 C 16.790 9.577,16.786 9.600,16.704 9.600 C 16.477 9.601,15.664 9.689,15.380 9.744 C 15.204 9.778,15.004 9.841,14.936 9.883 C 14.549 10.121,14.354 10.834,14.559 11.257 C 14.607 11.356,14.742 11.525,14.859 11.632 C 15.147 11.896,15.387 11.960,16.180 11.989 L 16.788 12.012 16.812 12.596 C 16.858 13.714,17.068 14.096,17.728 14.265 C 18.229 14.394,18.559 14.280,18.886 13.868 C 19.106 13.589,19.198 13.166,19.199 12.416 L 19.200 12.012 19.830 11.988 C 20.722 11.954,20.957 11.866,21.326 11.428 L 21.500 11.222 21.500 10.798 C 21.500 10.375,21.500 10.373,21.360 10.191 C 21.056 9.794,20.815 9.718,19.536 9.618 L 19.212 9.593 19.187 8.906 C 19.173 8.529,19.142 8.152,19.119 8.070 C 19.067 7.889,18.725 7.527,18.508 7.426 C 18.415 7.382,18.221 7.347,18.008 7.335 C 17.722 7.319,17.631 7.329,17.499 7.392 M8.509 13.364 C 7.687 13.450,6.414 13.950,5.592 14.508 C 4.984 14.921,4.030 15.885,3.616 16.505 C 2.998 17.431,2.496 18.909,2.413 20.050 L 2.388 20.400 9.600 20.400 L 16.812 20.400 16.788 20.050 C 16.743 19.389,16.441 18.215,16.130 17.494 C 15.506 16.047,14.282 14.797,12.735 14.026 C 11.702 13.511,11.335 13.422,9.980 13.361 C 9.005 13.316,8.953 13.317,8.509 13.364 " fill="#373B4D" stroke="none" fill-rule="evenodd"></path></svg>