<svg width="24" height="24" viewBox="0 0 24 24" fill="none" xmlns="http://www.w3.org/2000/svg"><path d="M8.680 3.741 C 8.124 3.895,7.388 4.360,6.961 4.826 C 6.606 5.215,6.325 5.675,6.149 6.159 C 6.083 6.341,6.065 6.510,6.050 7.108 C 6.033 7.774,6.039 7.862,6.119 8.128 C 6.460 9.266,7.602 10.408,8.650 10.661 C 8.792 10.696,9.203 10.733,9.605 10.747 L 10.310 10.772 10.686 10.626 C 11.268 10.401,11.681 10.127,12.140 9.664 C 12.773 9.024,13.051 8.460,13.127 7.657 C 13.213 6.749,13.081 6.069,12.688 5.409 C 12.252 4.675,11.302 3.944,10.570 3.777 C 10.167 3.686,8.964 3.662,8.680 3.741 M17.574 7.321 C 17.408 7.373,17.055 7.693,16.960 7.880 C 16.864 8.069,16.800 8.571,16.800 9.143 L 16.800 9.589 16.270 9.617 C 15.241 9.671,14.936 9.759,14.697 10.072 C 14.419 10.437,14.368 10.981,14.578 11.340 C 14.674 11.504,14.901 11.733,15.090 11.857 C 15.205 11.932,15.801 11.997,16.384 11.999 L 16.788 12.000 16.810 12.670 C 16.838 13.517,16.875 13.664,17.127 13.940 C 17.402 14.240,17.607 14.331,18.018 14.334 C 18.302 14.336,18.370 14.322,18.525 14.231 C 18.793 14.074,19.024 13.802,19.101 13.554 C 19.146 13.408,19.174 13.126,19.189 12.670 L 19.211 12.000 19.616 11.999 C 20.197 11.997,20.729 11.938,20.885 11.857 C 20.959 11.819,21.122 11.684,21.247 11.556 C 21.441 11.358,21.480 11.292,21.521 11.094 C 21.650 10.474,21.350 9.900,20.818 9.747 C 20.686 9.710,20.276 9.658,19.896 9.632 L 19.212 9.586 19.188 8.835 C 19.169 8.250,19.150 8.056,19.098 7.956 C 19.011 7.789,18.689 7.468,18.516 7.377 C 18.358 7.294,17.775 7.260,17.574 7.321 M8.510 13.320 C 7.947 13.390,7.071 13.683,6.367 14.036 C 5.564 14.440,5.051 14.826,4.366 15.542 C 3.420 16.533,2.833 17.690,2.540 19.140 C 2.486 19.404,2.430 19.796,2.415 20.010 L 2.388 20.400 9.594 20.400 L 16.800 20.400 16.800 20.165 C 16.800 19.692,16.543 18.512,16.296 17.851 C 15.744 16.373,14.674 15.109,13.252 14.255 C 12.582 13.852,11.609 13.484,10.900 13.365 C 10.574 13.310,8.845 13.277,8.510 13.320 " fill="#373B4D" stroke="none" fill-rule="evenodd"></path></svg>