<svg width="24" height="24" viewBox="0 0 24 24" fill="none" xmlns="http://www.w3.org/2000/svg"><path d="M10.800 2.560 C 9.246 2.685,7.471 3.441,6.040 4.585 C 5.599 4.937,4.771 5.770,4.440 6.194 C 3.480 7.422,2.855 8.853,2.533 10.560 C 2.444 11.034,2.431 12.733,2.513 13.300 C 2.652 14.269,3.083 15.571,3.565 16.480 C 3.987 17.275,4.415 17.854,5.100 18.555 C 6.022 19.499,6.625 19.943,7.760 20.518 C 9.182 21.237,10.130 21.486,11.668 21.544 C 12.869 21.589,13.772 21.467,14.800 21.121 C 16.055 20.698,17.043 20.168,18.000 19.405 C 19.520 18.193,20.455 16.796,21.163 14.680 C 21.468 13.769,21.494 13.558,21.497 12.000 C 21.500 10.529,21.486 10.391,21.255 9.591 C 20.689 7.634,19.633 5.982,18.143 4.724 C 16.822 3.609,14.953 2.773,13.400 2.604 C 12.865 2.546,11.301 2.519,10.800 2.560 M12.210 6.121 C 13.014 6.213,13.580 6.591,14.050 7.350 L 14.240 7.656 14.240 8.398 L 14.240 9.140 14.097 9.377 C 13.683 10.063,13.009 10.586,12.339 10.742 C 11.609 10.911,10.614 10.428,10.085 9.648 C 9.776 9.192,9.762 9.139,9.761 8.418 L 9.760 7.776 9.923 7.438 C 10.215 6.834,10.930 6.231,11.480 6.124 C 11.729 6.075,11.810 6.075,12.210 6.121 M13.515 13.479 C 14.898 13.847,16.135 14.737,16.944 15.946 C 17.228 16.371,17.308 16.596,17.236 16.771 C 17.074 17.168,15.944 18.048,15.070 18.459 C 13.881 19.018,12.533 19.253,11.288 19.118 C 9.867 18.963,8.557 18.416,7.456 17.517 C 7.098 17.224,6.690 16.814,6.658 16.715 C 6.633 16.636,6.753 16.400,7.074 15.900 C 7.322 15.513,8.207 14.641,8.668 14.328 C 9.086 14.045,9.679 13.739,10.120 13.581 C 10.699 13.372,10.810 13.361,12.040 13.376 C 13.064 13.389,13.214 13.399,13.515 13.479 " fill="#373B4D" stroke="none" fill-rule="evenodd"></path></svg>