<svg width="24" height="24" viewBox="0 0 24 24" fill="none" xmlns="http://www.w3.org/2000/svg"><path d="M8.960 3.685 C 8.330 3.780,7.715 4.103,7.154 4.634 C 6.764 5.003,6.525 5.334,6.282 5.843 C 6.073 6.280,6.040 6.475,6.040 7.267 C 6.040 7.823,6.052 7.960,6.122 8.167 C 6.446 9.129,7.202 10.001,8.100 10.451 C 8.564 10.683,8.745 10.720,9.560 10.746 L 10.300 10.769 10.643 10.643 C 11.854 10.199,12.761 9.256,13.068 8.120 C 13.168 7.751,13.168 6.649,13.068 6.280 C 12.975 5.937,12.759 5.485,12.544 5.184 C 12.157 4.641,11.418 4.058,10.862 3.857 C 10.438 3.702,9.442 3.613,8.960 3.685 M15.210 9.716 C 14.773 9.791,14.404 10.364,14.448 10.898 C 14.483 11.316,14.824 11.790,15.152 11.878 C 15.450 11.958,16.330 11.997,17.800 11.996 C 19.716 11.995,20.741 11.952,20.909 11.866 C 21.104 11.765,21.426 11.422,21.485 11.252 C 21.514 11.168,21.538 10.965,21.538 10.800 C 21.538 10.445,21.448 10.210,21.224 9.987 C 20.918 9.680,21.137 9.701,18.100 9.693 C 16.604 9.690,15.304 9.700,15.210 9.716 M8.249 13.361 C 7.114 13.607,5.998 14.120,5.180 14.771 C 4.804 15.071,4.135 15.749,3.875 16.093 C 3.592 16.469,3.249 17.044,3.054 17.470 C 2.733 18.169,2.464 19.244,2.412 20.029 L 2.388 20.400 9.594 20.400 L 16.800 20.400 16.800 20.190 C 16.799 19.672,16.548 18.491,16.301 17.843 C 15.941 16.898,15.414 16.090,14.682 15.358 C 13.708 14.384,12.516 13.724,11.180 13.417 C 10.735 13.315,10.625 13.306,9.660 13.294 C 8.737 13.283,8.578 13.290,8.249 13.361 " fill="#373B4D" stroke="none" fill-rule="evenodd"></path></svg>