<svg width="24" height="24" viewBox="0 0 24 24" fill="none" xmlns="http://www.w3.org/2000/svg"><path d="M10.680 2.562 C 9.847 2.629,8.634 3.012,7.629 3.528 C 6.202 4.260,4.700 5.649,3.844 7.030 C 3.150 8.149,2.629 9.657,2.483 10.968 C 2.393 11.782,2.448 13.117,2.601 13.808 C 2.934 15.313,3.521 16.620,4.374 17.760 C 4.745 18.256,5.679 19.189,6.160 19.545 C 7.337 20.416,8.933 21.157,10.160 21.403 C 10.776 21.526,11.996 21.584,12.790 21.528 C 13.767 21.459,14.413 21.305,15.429 20.897 C 17.178 20.195,18.614 19.108,19.703 17.660 C 20.334 16.821,21.026 15.314,21.362 14.047 C 21.467 13.651,21.517 12.929,21.518 11.780 C 21.520 10.756,21.475 10.352,21.285 9.680 C 20.787 7.921,19.954 6.474,18.748 5.274 C 17.986 4.515,17.233 3.978,16.240 3.485 C 15.354 3.044,14.574 2.780,13.756 2.644 C 13.093 2.533,11.552 2.492,10.680 2.562 M12.300 6.122 C 13.038 6.206,13.642 6.635,14.080 7.385 L 14.240 7.659 14.240 8.396 L 14.240 9.132 14.096 9.389 C 13.805 9.911,13.183 10.450,12.634 10.656 C 12.245 10.803,11.996 10.819,11.620 10.722 C 10.920 10.543,10.414 10.178,10.033 9.580 C 9.752 9.139,9.740 9.093,9.741 8.420 C 9.742 7.857,9.749 7.804,9.852 7.560 C 10.070 7.042,10.519 6.561,11.052 6.277 C 11.405 6.089,11.695 6.053,12.300 6.122 M13.180 13.404 C 13.754 13.485,14.672 13.859,15.264 14.253 C 15.983 14.733,16.757 15.555,17.135 16.243 C 17.312 16.565,17.316 16.692,17.158 16.931 C 16.928 17.278,15.906 18.046,15.205 18.397 C 12.922 19.542,10.180 19.377,8.060 17.967 C 7.386 17.519,6.640 16.834,6.640 16.663 C 6.640 16.596,6.991 15.999,7.200 15.711 C 7.456 15.357,8.040 14.781,8.456 14.471 C 9.246 13.883,10.215 13.456,10.980 13.359 C 11.283 13.320,12.808 13.352,13.180 13.404 " fill="#373B4D" stroke="none" fill-rule="evenodd"></path></svg>