<svg width="24" height="24" viewBox="0 0 24 24" fill="none" xmlns="http://www.w3.org/2000/svg"><path d="M8.833 3.758 C 8.449 3.790,8.073 3.969,7.515 4.388 C 6.959 4.806,6.581 5.243,6.305 5.790 C 6.142 6.111,6.087 6.433,6.057 7.242 L 6.029 7.983 6.173 8.314 C 6.560 9.208,7.453 10.162,8.218 10.501 C 8.539 10.643,8.991 10.721,9.645 10.748 C 10.189 10.770,10.257 10.765,10.508 10.682 C 11.200 10.452,11.820 10.019,12.373 9.379 C 12.666 9.041,12.848 8.717,13.004 8.260 C 13.092 8.002,13.100 7.918,13.100 7.200 C 13.100 6.482,13.092 6.398,13.004 6.140 C 12.754 5.405,12.351 4.870,11.660 4.349 C 11.251 4.042,10.867 3.857,10.528 3.806 C 10.181 3.753,9.226 3.726,8.833 3.758 M17.487 7.385 C 17.258 7.502,17.017 7.770,16.944 7.986 C 16.861 8.239,16.801 8.753,16.800 9.226 L 16.800 9.591 16.390 9.619 C 15.682 9.667,15.164 9.752,14.985 9.850 C 14.681 10.017,14.463 10.448,14.463 10.882 C 14.462 11.153,14.582 11.378,14.872 11.648 C 15.145 11.904,15.348 11.958,16.145 11.988 L 16.790 12.012 16.811 12.616 C 16.845 13.575,16.996 13.943,17.450 14.175 C 17.718 14.312,18.140 14.359,18.382 14.279 C 18.583 14.213,18.903 13.910,19.024 13.672 C 19.132 13.458,19.198 12.972,19.199 12.376 L 19.200 12.013 19.850 11.988 C 20.704 11.955,20.846 11.912,21.180 11.584 C 21.322 11.445,21.456 11.283,21.479 11.223 C 21.540 11.063,21.530 10.501,21.463 10.340 C 21.431 10.265,21.325 10.123,21.226 10.024 C 20.972 9.770,20.683 9.699,19.576 9.619 L 19.212 9.592 19.186 8.853 C 19.167 8.342,19.142 8.081,19.103 8.007 C 19.003 7.817,18.758 7.562,18.568 7.451 C 18.408 7.357,18.331 7.340,18.001 7.330 C 17.703 7.320,17.591 7.332,17.487 7.385 M8.480 13.363 C 7.725 13.433,6.475 13.922,5.627 14.479 C 5.032 14.870,4.010 15.894,3.610 16.500 C 3.356 16.884,2.956 17.732,2.784 18.250 C 2.608 18.777,2.448 19.549,2.414 20.036 L 2.388 20.400 9.600 20.400 L 16.812 20.400 16.789 20.030 C 16.747 19.316,16.377 17.975,16.025 17.258 C 15.249 15.674,13.864 14.431,12.083 13.721 C 11.381 13.442,11.173 13.404,10.082 13.360 C 9.003 13.317,8.970 13.317,8.480 13.363 " fill="#373B4D" stroke="none" fill-rule="evenodd"></path></svg>