<svg width="24" height="24" viewBox="0 0 24 24" fill="none" xmlns="http://www.w3.org/2000/svg"><path d="M16.322 3.643 C 15.816 3.710,15.220 3.941,14.766 4.247 C 14.447 4.462,13.875 5.077,13.692 5.402 C 13.192 6.289,13.086 7.353,13.399 8.330 C 13.678 9.200,14.446 10.074,15.253 10.440 C 16.635 11.066,18.187 10.814,19.268 9.787 C 20.279 8.827,20.636 7.388,20.195 6.057 C 19.774 4.787,18.529 3.765,17.275 3.662 C 16.666 3.611,16.574 3.609,16.322 3.643 M6.286 3.724 C 5.039 4.059,4.029 5.082,3.701 6.344 C 3.617 6.664,3.617 7.736,3.701 8.056 C 3.984 9.142,4.800 10.093,5.812 10.514 C 6.359 10.742,6.535 10.769,7.316 10.751 C 7.991 10.735,8.034 10.729,8.363 10.606 C 9.428 10.207,10.207 9.428,10.606 8.363 C 10.729 8.034,10.735 7.991,10.751 7.316 C 10.764 6.761,10.754 6.559,10.704 6.364 C 10.365 5.041,9.269 3.966,7.992 3.703 C 7.541 3.611,6.668 3.621,6.286 3.724 M6.680 13.228 C 6.603 13.236,6.345 13.279,6.107 13.323 C 4.769 13.572,3.621 14.231,2.696 15.280 C 2.186 15.858,1.917 16.294,1.642 16.989 C 1.311 17.826,1.200 18.532,1.200 19.808 L 1.200 20.400 7.200 20.400 L 13.200 20.400 13.200 19.808 C 13.200 18.533,13.089 17.825,12.759 16.992 C 12.442 16.192,12.065 15.629,11.411 14.978 C 10.586 14.157,9.761 13.685,8.651 13.398 C 8.310 13.310,8.043 13.272,7.531 13.241 C 7.162 13.219,6.851 13.203,6.840 13.207 C 6.829 13.210,6.757 13.219,6.680 13.228 M16.320 13.227 C 15.652 13.293,14.641 13.578,14.090 13.855 L 13.801 14.001 13.938 14.180 C 14.445 14.844,15.009 15.979,15.256 16.832 C 15.555 17.863,15.665 19.199,15.536 20.230 L 15.515 20.400 19.158 20.400 L 22.800 20.400 22.800 19.808 C 22.800 18.261,22.590 17.296,22.033 16.288 C 21.570 15.449,20.703 14.568,19.806 14.026 C 19.125 13.614,18.124 13.299,17.373 13.260 C 17.135 13.248,16.832 13.232,16.700 13.225 C 16.568 13.218,16.397 13.219,16.320 13.227 " fill="#373B4D" stroke="none" fill-rule="evenodd"></path></svg>