<svg width="24" height="24" viewBox="0 0 24 24" fill="none" xmlns="http://www.w3.org/2000/svg"><path d="M11.230 3.801 C 10.873 3.835,10.401 4.038,9.980 4.338 C 9.413 4.743,8.821 5.517,8.602 6.140 C 8.512 6.399,8.504 6.476,8.505 7.160 C 8.506 8.185,8.571 8.432,9.008 9.067 C 9.255 9.426,9.848 10.001,10.233 10.256 C 10.688 10.557,11.024 10.682,11.487 10.723 C 12.068 10.773,12.794 10.712,13.133 10.584 C 13.895 10.297,14.853 9.420,15.233 8.660 C 15.435 8.258,15.483 8.006,15.508 7.217 C 15.528 6.590,15.521 6.465,15.460 6.277 C 15.359 5.970,15.140 5.541,14.937 5.255 C 14.570 4.737,13.826 4.151,13.247 3.923 C 12.881 3.778,12.013 3.726,11.230 3.801 M10.680 13.402 C 10.049 13.451,9.309 13.686,8.420 14.118 C 6.917 14.850,5.654 15.971,4.865 17.275 C 4.255 18.285,3.689 20.058,3.615 21.193 L 3.588 21.600 12.000 21.600 L 20.412 21.600 20.388 21.230 C 20.351 20.636,20.101 19.529,19.831 18.760 C 19.423 17.596,18.545 16.300,17.590 15.451 C 16.470 14.456,14.712 13.582,13.551 13.444 C 13.119 13.392,11.167 13.364,10.680 13.402 " fill="#373B4D" stroke="none" fill-rule="evenodd"></path></svg>