<svg width="24" height="24" viewBox="0 0 24 24" fill="none" xmlns="http://www.w3.org/2000/svg"><path d="M8.909 3.718 C 8.638 3.741,8.542 3.773,8.149 3.971 C 7.366 4.367,6.825 4.871,6.418 5.585 C 6.097 6.148,6.063 6.304,6.062 7.220 L 6.060 8.020 6.190 8.344 C 6.598 9.354,7.570 10.310,8.501 10.615 C 8.748 10.696,9.360 10.758,9.925 10.759 C 10.320 10.760,10.375 10.750,10.699 10.619 C 11.292 10.380,11.697 10.108,12.155 9.640 C 12.639 9.146,12.886 8.729,13.045 8.136 C 13.170 7.673,13.171 6.713,13.047 6.262 C 12.813 5.412,12.278 4.721,11.426 4.169 C 11.082 3.945,10.764 3.816,10.436 3.764 C 10.089 3.710,9.289 3.686,8.909 3.718 M17.632 7.313 C 17.479 7.352,17.191 7.565,17.059 7.737 C 16.892 7.957,16.836 8.229,16.811 8.943 L 16.789 9.587 16.125 9.633 C 15.066 9.707,14.821 9.806,14.603 10.249 C 14.442 10.575,14.411 10.838,14.497 11.136 C 14.551 11.322,14.611 11.412,14.817 11.618 C 15.127 11.929,15.227 11.957,16.144 11.989 L 16.788 12.011 16.812 12.676 C 16.840 13.466,16.891 13.671,17.128 13.940 C 17.374 14.219,17.615 14.319,18.046 14.320 C 18.372 14.320,18.402 14.313,18.586 14.187 C 18.847 14.007,19.067 13.710,19.122 13.461 C 19.146 13.351,19.176 12.977,19.189 12.630 L 19.212 12.000 19.637 12.000 C 20.132 12.000,20.679 11.939,20.856 11.863 C 21.016 11.795,21.370 11.452,21.463 11.276 C 21.563 11.089,21.565 10.605,21.468 10.354 C 21.383 10.133,21.078 9.831,20.878 9.768 C 20.706 9.715,20.193 9.653,19.636 9.618 L 19.212 9.591 19.189 8.862 C 19.173 8.358,19.148 8.090,19.108 7.996 C 19.037 7.829,18.663 7.449,18.500 7.379 C 18.357 7.317,17.785 7.274,17.632 7.313 M8.165 13.382 C 7.315 13.575,6.131 14.100,5.440 14.590 C 4.953 14.936,4.097 15.791,3.750 16.280 C 3.260 16.969,2.800 18.000,2.600 18.860 C 2.504 19.272,2.400 19.978,2.400 20.215 L 2.400 20.400 9.600 20.400 L 16.800 20.400 16.800 20.167 C 16.800 19.761,16.577 18.686,16.356 18.026 C 16.016 17.013,15.418 16.090,14.574 15.280 C 13.656 14.398,12.564 13.791,11.280 13.450 C 10.919 13.354,10.837 13.348,9.660 13.336 C 8.684 13.326,8.366 13.336,8.165 13.382 " fill="#373B4D" stroke="none" fill-rule="evenodd"></path></svg>