<svg width="24" height="24" viewBox="0 0 24 24" fill="none" xmlns="http://www.w3.org/2000/svg"><path d="M10.289 2.625 C 9.884 2.688,9.108 2.900,8.687 3.064 C 7.846 3.390,6.714 4.042,6.040 4.589 C 5.622 4.928,4.580 5.998,4.311 6.365 C 3.488 7.486,2.931 8.746,2.599 10.240 C 2.430 11.002,2.402 12.647,2.544 13.480 C 2.754 14.707,3.342 16.217,3.993 17.200 C 4.677 18.233,5.842 19.378,6.866 20.023 C 7.315 20.306,8.462 20.870,8.970 21.057 C 9.925 21.410,10.747 21.536,12.080 21.534 C 12.901 21.533,13.134 21.519,13.520 21.448 C 15.715 21.046,17.863 19.828,19.258 18.196 C 20.031 17.291,20.567 16.333,21.060 14.972 C 21.389 14.066,21.440 13.808,21.485 12.820 C 21.527 11.881,21.505 10.799,21.433 10.340 C 21.294 9.444,20.679 7.897,20.099 6.980 C 19.148 5.480,17.896 4.341,16.320 3.543 C 15.235 2.994,14.306 2.706,13.286 2.602 C 12.677 2.540,10.743 2.555,10.289 2.625 M12.593 6.204 C 13.169 6.350,13.591 6.675,14.001 7.288 L 14.240 7.645 14.240 8.397 L 14.240 9.150 14.042 9.453 C 13.542 10.220,12.793 10.719,12.094 10.752 C 11.342 10.788,10.551 10.336,10.045 9.580 C 9.800 9.213,9.760 9.037,9.760 8.317 C 9.760 7.780,9.765 7.749,9.876 7.529 C 10.224 6.839,10.911 6.241,11.495 6.120 C 11.718 6.073,12.236 6.113,12.593 6.204 M12.540 13.397 C 13.362 13.427,13.389 13.431,13.813 13.574 C 14.393 13.769,15.047 14.110,15.516 14.460 C 16.374 15.102,17.240 16.194,17.240 16.635 C 17.240 16.925,16.783 17.383,15.907 17.974 C 14.587 18.862,12.859 19.290,11.288 19.117 C 9.676 18.940,8.200 18.250,7.030 17.125 C 6.764 16.869,6.680 16.763,6.680 16.683 C 6.680 16.564,6.959 16.055,7.196 15.740 C 7.401 15.469,8.054 14.816,8.394 14.543 C 8.740 14.265,9.125 14.031,9.620 13.799 C 10.529 13.371,10.814 13.332,12.540 13.397 " fill="#373B4D" stroke="none" fill-rule="evenodd"></path></svg>