<svg width="24" height="24" viewBox="0 0 24 24" fill="none" xmlns="http://www.w3.org/2000/svg"><path d="M11.090 3.721 C 10.758 3.807,10.218 4.060,9.934 4.262 C 9.421 4.627,8.919 5.252,8.681 5.825 C 8.459 6.358,8.431 6.538,8.449 7.316 C 8.465 7.991,8.471 8.034,8.594 8.363 C 8.993 9.427,9.764 10.199,10.837 10.608 L 11.180 10.739 12.000 10.739 L 12.820 10.739 13.163 10.608 C 13.723 10.395,14.096 10.152,14.524 9.724 C 14.954 9.294,15.198 8.918,15.406 8.363 C 15.529 8.034,15.535 7.991,15.551 7.316 C 15.564 6.761,15.554 6.559,15.504 6.364 C 15.165 5.041,14.069 3.966,12.792 3.703 C 12.348 3.612,11.470 3.621,11.090 3.721 M11.220 13.245 C 8.428 13.509,5.897 15.203,4.581 17.689 C 4.033 18.725,3.691 19.962,3.614 21.190 L 3.588 21.600 11.994 21.600 L 20.400 21.600 20.400 21.410 C 20.400 21.109,20.289 20.241,20.199 19.833 C 19.841 18.219,19.083 16.834,17.923 15.679 C 16.137 13.899,13.692 13.011,11.220 13.245 " fill="#373B4D" stroke="none" fill-rule="evenodd"></path></svg>