<svg width="24" height="24" viewBox="0 0 24 24" fill="none" xmlns="http://www.w3.org/2000/svg"><path d="M8.651 3.838 C 8.058 3.932,7.001 4.729,6.528 5.438 C 6.209 5.915,6.102 6.377,6.055 7.479 L 6.028 8.102 6.261 8.481 C 6.965 9.626,7.716 10.335,8.460 10.557 C 8.826 10.666,9.463 10.759,9.842 10.760 C 10.224 10.760,10.536 10.681,10.940 10.481 C 11.358 10.274,11.703 10.009,12.121 9.574 C 12.505 9.175,12.731 8.852,12.962 8.369 L 13.120 8.038 13.120 7.203 L 13.120 6.368 12.959 6.018 C 12.742 5.545,12.494 5.183,12.154 4.839 C 11.664 4.345,11.171 4.027,10.690 3.897 C 10.424 3.824,8.995 3.783,8.651 3.838 M17.544 7.399 C 17.282 7.483,16.988 7.876,16.898 8.262 C 16.864 8.410,16.821 8.744,16.803 9.005 C 16.785 9.266,16.749 9.505,16.724 9.535 C 16.697 9.568,16.520 9.609,16.289 9.637 C 15.613 9.718,15.200 9.798,15.042 9.879 C 14.738 10.034,14.480 10.465,14.480 10.817 C 14.480 11.210,14.868 11.724,15.263 11.855 C 15.513 11.937,16.029 11.999,16.470 12.000 L 16.800 12.000 16.800 12.350 C 16.801 12.792,16.892 13.409,16.992 13.641 C 17.159 14.030,17.587 14.281,18.077 14.279 C 18.368 14.278,18.583 14.177,18.786 13.947 C 19.072 13.621,19.196 13.149,19.199 12.370 L 19.200 12.000 19.550 12.000 C 20.074 11.999,20.650 11.901,20.887 11.772 C 21.188 11.608,21.469 11.282,21.503 11.056 C 21.537 10.829,21.497 10.469,21.422 10.324 C 21.331 10.148,21.068 9.936,20.830 9.847 C 20.619 9.768,20.085 9.676,19.514 9.620 L 19.247 9.594 19.221 9.207 C 19.169 8.449,19.125 8.188,19.010 7.962 C 18.886 7.717,18.639 7.504,18.408 7.443 C 18.183 7.383,17.674 7.358,17.544 7.399 M8.514 13.402 C 7.740 13.471,6.441 13.966,5.647 14.496 C 5.088 14.868,4.214 15.727,3.733 16.376 C 3.109 17.217,2.498 18.919,2.414 20.050 L 2.388 20.400 9.594 20.400 L 16.800 20.400 16.800 20.225 C 16.800 19.849,16.579 18.829,16.335 18.080 C 15.904 16.758,15.021 15.579,13.818 14.722 C 12.905 14.071,11.960 13.635,11.164 13.499 C 10.491 13.384,9.235 13.338,8.514 13.402 " fill="#373B4D" stroke="none" fill-rule="evenodd"></path></svg>