<svg width="24" height="24" viewBox="0 0 24 24" fill="none" xmlns="http://www.w3.org/2000/svg"><path d="M11.297 3.799 C 10.475 3.886,9.582 4.507,8.987 5.407 C 8.664 5.894,8.556 6.178,8.521 6.640 C 8.478 7.196,8.533 8.090,8.627 8.365 C 8.901 9.165,9.968 10.234,10.824 10.567 C 11.342 10.768,12.230 10.799,12.942 10.640 C 13.661 10.479,14.777 9.518,15.218 8.679 C 15.441 8.254,15.491 7.972,15.496 7.100 L 15.500 6.340 15.372 6.046 C 15.157 5.552,14.921 5.195,14.583 4.858 C 14.043 4.320,13.412 3.932,12.927 3.841 C 12.621 3.783,11.676 3.759,11.297 3.799 M10.262 13.465 C 9.756 13.556,9.152 13.777,8.420 14.138 C 7.422 14.631,6.725 15.121,6.014 15.832 C 5.145 16.700,4.638 17.515,4.181 18.779 C 3.857 19.673,3.600 20.832,3.600 21.395 L 3.600 21.600 12.000 21.600 L 20.400 21.600 20.400 21.384 C 20.400 21.120,20.275 20.375,20.135 19.804 C 19.731 18.153,18.964 16.790,17.814 15.679 C 17.198 15.083,16.640 14.687,15.792 14.241 C 14.875 13.760,14.112 13.505,13.393 13.440 C 12.732 13.380,10.638 13.397,10.262 13.465 " fill="#373B4D" stroke="none" fill-rule="evenodd"></path></svg>