<svg width="24" height="24" viewBox="0 0 24 24" fill="none" xmlns="http://www.w3.org/2000/svg"><path d="M10.620 3.953 C 10.051 4.257,9.923 4.349,9.535 4.736 C 8.962 5.308,8.616 5.906,8.522 6.487 C 8.464 6.840,8.472 7.603,8.537 7.960 C 8.653 8.597,8.890 9.000,9.520 9.632 C 10.098 10.212,10.503 10.470,11.080 10.627 C 11.464 10.732,12.688 10.731,13.000 10.626 C 13.953 10.304,15.052 9.258,15.367 8.374 C 15.529 7.919,15.555 6.639,15.412 6.180 C 15.196 5.485,14.542 4.674,13.813 4.198 C 13.321 3.877,13.169 3.836,12.320 3.797 C 10.993 3.737,11.033 3.733,10.620 3.953 M4.214 7.359 C 3.676 7.474,2.929 8.108,2.597 8.731 L 2.468 8.973 2.493 9.517 C 2.520 10.139,2.592 10.459,2.765 10.728 C 2.947 11.011,3.546 11.561,3.815 11.693 C 4.440 11.998,5.277 11.989,5.837 11.671 C 5.960 11.602,6.215 11.388,6.405 11.197 C 6.820 10.780,7.014 10.427,7.084 9.960 C 7.201 9.187,6.971 8.524,6.400 7.988 C 6.076 7.683,5.786 7.512,5.435 7.418 C 5.167 7.347,4.436 7.311,4.214 7.359 M18.614 7.359 C 18.076 7.474,17.329 8.108,16.997 8.731 L 16.868 8.973 16.893 9.517 C 16.920 10.139,16.992 10.459,17.165 10.728 C 17.347 11.011,17.946 11.561,18.215 11.693 C 18.840 11.998,19.677 11.989,20.237 11.671 C 20.360 11.602,20.615 11.388,20.805 11.197 C 21.220 10.780,21.414 10.427,21.484 9.960 C 21.601 9.187,21.371 8.524,20.800 7.988 C 20.476 7.683,20.186 7.512,19.835 7.418 C 19.567 7.347,18.836 7.311,18.614 7.359 M10.900 13.400 C 10.653 13.436,10.198 13.623,9.790 13.856 C 8.523 14.578,7.612 15.762,7.357 17.019 C 7.265 17.472,7.200 18.887,7.200 20.450 L 7.200 21.600 12.006 21.600 L 16.812 21.600 16.788 19.910 C 16.753 17.493,16.688 16.935,16.351 16.126 C 15.970 15.208,15.011 14.243,13.981 13.738 C 13.481 13.492,13.258 13.446,12.361 13.401 C 11.488 13.356,11.193 13.356,10.900 13.400 M4.152 14.563 C 3.172 14.667,1.946 15.651,1.516 16.677 C 1.456 16.822,1.378 17.081,1.342 17.253 C 1.265 17.630,1.202 19.114,1.201 20.570 L 1.200 21.600 3.000 21.600 L 4.800 21.600 4.800 21.327 C 4.800 20.781,4.882 18.364,4.921 17.740 C 4.971 16.943,5.036 16.551,5.286 15.541 C 5.394 15.102,5.478 14.706,5.472 14.662 C 5.464 14.608,5.419 14.572,5.340 14.555 C 5.173 14.520,4.522 14.524,4.152 14.563 M18.547 14.547 C 18.493 14.600,18.524 14.775,18.719 15.535 C 18.953 16.450,19.020 16.922,19.078 18.080 C 19.129 19.081,19.199 20.988,19.200 21.350 L 19.200 21.600 21.006 21.600 L 22.813 21.600 22.788 19.890 C 22.754 17.572,22.702 17.118,22.411 16.541 C 21.957 15.644,21.027 14.843,20.230 14.662 C 20.092 14.631,19.716 14.586,19.393 14.563 C 18.706 14.513,18.583 14.511,18.547 14.547 " fill="#373B4D" stroke="none" fill-rule="evenodd"></path></svg>