<svg width="24" height="24" viewBox="0 0 24 24" fill="none" xmlns="http://www.w3.org/2000/svg"><path d="M8.696 3.799 C 8.056 3.872,6.854 4.821,6.412 5.603 C 6.168 6.034,6.120 6.259,6.073 7.216 L 6.032 8.053 6.201 8.375 C 6.460 8.871,6.741 9.263,7.117 9.654 C 7.893 10.462,8.423 10.692,9.632 10.747 C 10.262 10.775,10.443 10.739,10.980 10.476 C 11.816 10.067,12.606 9.231,12.962 8.380 C 13.096 8.060,13.096 8.060,13.112 7.267 C 13.127 6.524,13.123 6.458,13.039 6.227 C 12.718 5.341,12.197 4.696,11.383 4.179 C 11.032 3.956,10.727 3.846,10.333 3.801 C 9.944 3.756,9.077 3.755,8.696 3.799 M16.200 9.799 C 14.917 9.825,14.897 9.829,14.704 10.121 C 14.312 10.713,14.464 11.433,15.053 11.778 C 15.363 11.960,15.652 11.980,17.920 11.979 C 20.648 11.977,20.855 11.952,21.227 11.570 C 21.459 11.332,21.537 11.109,21.509 10.768 C 21.477 10.385,21.387 10.193,21.132 9.960 L 20.914 9.760 19.127 9.768 C 18.144 9.772,16.827 9.786,16.200 9.799 M8.531 13.362 C 7.501 13.489,6.031 14.121,5.240 14.776 C 4.912 15.048,4.119 15.855,3.868 16.173 C 3.325 16.858,2.880 17.822,2.600 18.920 C 2.500 19.313,2.401 19.953,2.400 20.210 L 2.400 20.400 9.606 20.400 L 16.812 20.400 16.789 20.069 C 16.744 19.439,16.474 18.352,16.180 17.620 C 15.629 16.251,14.485 15.004,13.035 14.191 C 12.106 13.671,11.493 13.475,10.580 13.406 C 9.726 13.341,8.852 13.322,8.531 13.362 " fill="#373B4D" stroke="none" fill-rule="evenodd"></path></svg>