<svg width="24" height="24" viewBox="0 0 24 24" fill="none" xmlns="http://www.w3.org/2000/svg"><path d="M8.469 3.878 C 7.825 4.084,6.929 4.813,6.499 5.480 C 6.184 5.969,6.108 6.316,6.057 7.500 L 6.032 8.100 6.293 8.533 C 6.860 9.470,7.488 10.122,8.130 10.438 C 8.616 10.677,9.776 10.829,10.300 10.721 C 11.297 10.517,12.468 9.481,12.965 8.365 L 13.119 8.020 13.119 7.200 L 13.120 6.380 12.948 6.000 C 12.719 5.492,12.493 5.165,12.104 4.779 C 11.555 4.235,11.001 3.920,10.451 3.841 C 10.302 3.819,9.847 3.802,9.440 3.803 C 8.834 3.804,8.658 3.818,8.469 3.878 M16.840 9.801 C 15.119 9.829,14.943 9.848,14.780 10.024 C 14.522 10.302,14.424 10.946,14.591 11.265 C 14.730 11.533,15.015 11.789,15.250 11.859 C 15.583 11.958,17.049 12.013,18.580 11.984 C 20.672 11.944,20.903 11.906,21.222 11.553 C 21.449 11.301,21.534 11.074,21.510 10.781 C 21.484 10.461,21.370 10.210,21.137 9.961 L 20.949 9.760 19.705 9.767 C 19.020 9.771,17.731 9.786,16.840 9.801 M8.440 13.400 C 7.707 13.471,6.369 13.997,5.612 14.512 C 5.071 14.880,4.249 15.691,3.751 16.348 C 3.124 17.175,2.494 18.914,2.414 20.035 L 2.388 20.400 9.594 20.400 L 16.800 20.400 16.800 20.230 C 16.799 19.799,16.541 18.644,16.278 17.900 C 16.019 17.166,15.629 16.507,15.055 15.832 C 14.130 14.745,12.460 13.728,11.231 13.502 C 10.563 13.380,9.176 13.329,8.440 13.400 " fill="#373B4D" stroke="none" fill-rule="evenodd"></path></svg>