<svg width="24" height="24" viewBox="0 0 24 24" fill="none" xmlns="http://www.w3.org/2000/svg"><path d="M8.660 3.757 C 7.985 3.946,7.034 4.658,6.600 5.300 C 6.132 5.993,6.070 6.219,6.064 7.259 L 6.060 8.060 6.207 8.390 C 6.596 9.263,7.434 10.146,8.216 10.503 C 8.548 10.655,8.919 10.719,9.620 10.746 C 10.209 10.768,10.280 10.763,10.516 10.683 C 10.861 10.565,11.290 10.346,11.580 10.140 C 11.884 9.925,12.474 9.314,12.660 9.023 C 12.843 8.736,13.021 8.290,13.082 7.960 C 13.161 7.541,13.141 6.637,13.046 6.275 C 12.846 5.515,12.354 4.838,11.620 4.313 C 10.938 3.825,10.692 3.754,9.620 3.737 C 9.158 3.729,8.726 3.738,8.660 3.757 M15.777 9.756 C 15.098 9.779,15.045 9.786,14.913 9.877 C 14.634 10.068,14.406 10.600,14.462 10.931 C 14.524 11.304,14.795 11.692,15.093 11.836 C 15.234 11.905,15.399 11.928,16.003 11.965 C 16.862 12.017,20.194 11.984,20.600 11.919 C 20.901 11.871,21.094 11.752,21.333 11.469 C 21.488 11.286,21.495 11.265,21.512 10.949 C 21.521 10.768,21.509 10.546,21.484 10.456 C 21.427 10.242,21.239 9.986,21.050 9.864 L 20.900 9.767 18.700 9.750 C 17.490 9.740,16.175 9.743,15.777 9.756 M8.420 13.360 C 7.714 13.424,6.438 13.940,5.540 14.526 C 5.096 14.815,3.973 15.942,3.668 16.403 C 3.225 17.074,2.819 18.000,2.622 18.788 C 2.510 19.237,2.400 19.943,2.400 20.215 L 2.400 20.400 9.600 20.400 L 16.800 20.400 16.800 20.190 C 16.799 19.502,16.415 18.032,16.035 17.265 C 15.145 15.470,13.527 14.132,11.500 13.513 C 11.126 13.399,11.041 13.389,10.180 13.358 C 9.123 13.320,8.864 13.320,8.420 13.360 " fill="#373B4D" stroke="none" fill-rule="evenodd"></path></svg>