<svg width="24" height="24" viewBox="0 0 24 24" fill="none" xmlns="http://www.w3.org/2000/svg"><path d="M8.469 3.878 C 7.825 4.084,6.929 4.813,6.499 5.480 C 6.184 5.969,6.108 6.316,6.057 7.500 L 6.032 8.100 6.293 8.533 C 6.860 9.470,7.488 10.122,8.130 10.438 C 8.616 10.677,9.776 10.829,10.300 10.721 C 11.297 10.517,12.468 9.481,12.965 8.365 L 13.119 8.020 13.119 7.200 L 13.120 6.380 12.948 6.000 C 12.719 5.492,12.493 5.165,12.104 4.779 C 11.555 4.235,11.001 3.920,10.451 3.841 C 10.302 3.819,9.847 3.802,9.440 3.803 C 8.834 3.804,8.658 3.818,8.469 3.878 M17.500 7.403 C 17.302 7.519,17.035 7.827,16.961 8.026 C 16.878 8.250,16.800 8.768,16.800 9.104 C 16.800 9.394,16.761 9.554,16.685 9.577 C 16.649 9.588,16.386 9.625,16.100 9.659 C 15.389 9.744,15.168 9.791,14.977 9.901 C 14.783 10.013,14.616 10.242,14.537 10.502 C 14.417 10.902,14.495 11.205,14.805 11.541 C 15.108 11.870,15.384 11.955,16.250 11.989 L 16.800 12.011 16.800 12.317 C 16.800 12.694,16.864 13.234,16.940 13.503 C 17.061 13.925,17.364 14.185,17.842 14.273 C 18.424 14.381,18.874 14.066,19.085 13.403 C 19.146 13.209,19.174 12.991,19.190 12.570 L 19.211 12.000 19.516 12.000 C 19.935 11.999,20.500 11.931,20.740 11.853 C 20.970 11.777,21.379 11.416,21.465 11.211 C 21.531 11.056,21.536 10.757,21.476 10.478 C 21.443 10.324,21.391 10.231,21.272 10.112 C 20.998 9.838,20.676 9.740,19.714 9.640 L 19.247 9.591 19.225 9.326 C 19.212 9.180,19.190 8.889,19.176 8.680 C 19.143 8.197,19.083 8.001,18.900 7.777 C 18.675 7.502,18.426 7.395,17.963 7.374 C 17.712 7.363,17.552 7.373,17.500 7.403 M8.440 13.400 C 7.707 13.471,6.369 13.997,5.612 14.512 C 5.071 14.880,4.249 15.691,3.751 16.348 C 3.124 17.175,2.494 18.914,2.414 20.035 L 2.388 20.400 9.594 20.400 L 16.800 20.400 16.800 20.230 C 16.799 19.799,16.541 18.644,16.278 17.900 C 16.019 17.166,15.629 16.507,15.055 15.832 C 14.130 14.745,12.460 13.728,11.231 13.502 C 10.563 13.380,9.176 13.329,8.440 13.400 " fill="#373B4D" stroke="none" fill-rule="evenodd"></path></svg>