<svg width="24" height="24" viewBox="0 0 24 24" fill="none" xmlns="http://www.w3.org/2000/svg"><path d="M10.960 3.793 C 10.005 4.113,9.155 4.879,8.723 5.806 C 8.517 6.250,8.469 6.508,8.467 7.200 C 8.465 7.830,8.507 8.115,8.652 8.475 C 8.965 9.251,9.960 10.240,10.710 10.520 C 11.175 10.694,11.436 10.736,12.060 10.738 C 12.743 10.739,12.924 10.700,13.470 10.430 C 14.426 9.958,15.201 9.055,15.445 8.131 C 15.555 7.712,15.565 6.671,15.462 6.283 C 15.325 5.765,15.026 5.266,14.563 4.786 C 14.227 4.437,13.902 4.191,13.540 4.009 C 13.079 3.778,12.932 3.752,12.020 3.735 C 11.283 3.721,11.153 3.728,10.960 3.793 M4.244 7.323 C 3.905 7.390,3.327 7.753,2.996 8.106 C 2.895 8.214,2.742 8.445,2.656 8.619 L 2.500 8.936 2.501 9.558 C 2.503 10.253,2.551 10.459,2.802 10.823 C 3.026 11.148,3.474 11.552,3.782 11.704 C 4.407 12.015,5.124 12.028,5.745 11.742 C 5.995 11.626,6.120 11.531,6.425 11.227 C 6.959 10.692,7.121 10.314,7.119 9.605 C 7.118 8.955,6.935 8.466,6.541 8.060 C 6.088 7.594,5.684 7.393,5.053 7.321 C 4.647 7.275,4.490 7.275,4.244 7.323 M18.644 7.323 C 18.305 7.390,17.727 7.753,17.396 8.106 C 17.295 8.214,17.142 8.445,17.056 8.619 L 16.900 8.936 16.901 9.558 C 16.903 10.246,16.952 10.460,17.191 10.807 C 17.417 11.134,17.883 11.556,18.182 11.704 C 18.808 12.015,19.524 12.028,20.145 11.742 C 20.395 11.626,20.520 11.531,20.825 11.227 C 21.359 10.692,21.521 10.314,21.519 9.605 C 21.518 8.955,21.335 8.466,20.941 8.060 C 20.488 7.594,20.084 7.393,19.453 7.321 C 19.047 7.275,18.890 7.275,18.644 7.323 M10.780 13.393 C 9.944 13.646,9.026 14.221,8.507 14.817 C 7.869 15.548,7.494 16.249,7.336 17.000 C 7.260 17.365,7.204 18.800,7.202 20.430 L 7.200 21.600 12.000 21.600 L 16.800 21.600 16.799 20.370 C 16.799 18.846,16.741 17.488,16.657 17.041 C 16.587 16.665,16.382 16.099,16.193 15.760 C 15.569 14.637,14.269 13.632,13.160 13.415 C 12.973 13.378,12.515 13.349,11.940 13.338 C 11.132 13.323,10.991 13.329,10.780 13.393 M3.961 14.560 C 3.775 14.604,3.488 14.703,3.324 14.781 C 2.397 15.221,1.550 16.226,1.340 17.135 C 1.260 17.482,1.200 18.844,1.200 20.330 L 1.200 21.600 3.000 21.600 L 4.800 21.600 4.800 20.870 C 4.800 19.949,4.869 17.930,4.921 17.303 C 4.973 16.682,5.074 16.200,5.319 15.396 C 5.517 14.747,5.550 14.583,5.488 14.545 C 5.471 14.534,5.196 14.516,4.878 14.503 C 4.389 14.485,4.248 14.494,3.961 14.560 M18.510 14.542 C 18.456 14.598,18.477 14.696,18.696 15.427 C 18.978 16.366,19.030 16.643,19.079 17.460 C 19.122 18.167,19.199 20.585,19.200 21.230 L 19.200 21.600 21.000 21.600 L 22.800 21.600 22.800 20.370 C 22.799 18.879,22.737 17.472,22.657 17.121 C 22.403 16.018,21.191 14.806,20.139 14.601 C 19.850 14.545,18.552 14.498,18.510 14.542 " fill="#373B4D" stroke="none" fill-rule="evenodd"></path></svg>