<svg width="24" height="24" viewBox="0 0 24 24" fill="none" xmlns="http://www.w3.org/2000/svg"><path d="M11.040 3.778 C 10.026 4.037,8.974 5.043,8.591 6.118 C 8.530 6.291,8.508 6.484,8.491 7.000 C 8.467 7.764,8.511 8.131,8.675 8.522 C 9.011 9.320,9.919 10.212,10.754 10.563 C 11.132 10.722,11.512 10.771,12.197 10.751 C 12.730 10.735,12.809 10.723,13.115 10.608 C 13.581 10.433,13.999 10.161,14.407 9.769 C 14.925 9.270,15.326 8.646,15.460 8.132 C 15.530 7.865,15.543 6.761,15.480 6.380 C 15.432 6.085,15.143 5.475,14.905 5.168 C 14.407 4.524,13.634 3.958,13.053 3.813 C 12.712 3.728,11.330 3.703,11.040 3.778 M10.495 13.379 C 9.577 13.546,8.229 14.100,7.393 14.654 C 6.115 15.502,5.037 16.730,4.468 17.990 C 4.001 19.022,3.600 20.564,3.600 21.324 L 3.600 21.600 12.006 21.600 L 20.412 21.600 20.387 21.190 C 20.341 20.457,20.068 19.297,19.752 18.500 C 19.138 16.945,17.899 15.460,16.487 14.586 C 15.378 13.901,14.179 13.451,13.220 13.361 C 12.600 13.303,10.849 13.315,10.495 13.379 " fill="#373B4D" stroke="none" fill-rule="evenodd"></path></svg>