<svg width="24" height="24" viewBox="0 0 24 24" fill="none" xmlns="http://www.w3.org/2000/svg"><path d="M8.909 3.718 C 8.638 3.741,8.542 3.773,8.149 3.971 C 7.366 4.367,6.825 4.871,6.418 5.585 C 6.097 6.148,6.063 6.304,6.062 7.220 L 6.060 8.020 6.190 8.344 C 6.598 9.354,7.570 10.310,8.501 10.615 C 8.748 10.696,9.360 10.758,9.925 10.759 C 10.320 10.760,10.375 10.750,10.699 10.619 C 11.292 10.380,11.697 10.108,12.155 9.640 C 12.639 9.146,12.886 8.729,13.045 8.136 C 13.170 7.673,13.171 6.713,13.047 6.262 C 12.813 5.412,12.278 4.721,11.426 4.169 C 11.082 3.945,10.764 3.816,10.436 3.764 C 10.089 3.710,9.289 3.686,8.909 3.718 M15.195 9.755 C 14.933 9.794,14.750 9.950,14.592 10.269 C 14.416 10.628,14.408 10.954,14.568 11.280 C 14.696 11.540,14.965 11.811,15.159 11.876 C 15.431 11.967,16.751 12.010,18.540 11.987 C 19.508 11.975,20.434 11.945,20.599 11.922 C 20.931 11.875,21.053 11.800,21.338 11.463 C 21.496 11.277,21.500 11.263,21.514 10.933 C 21.522 10.740,21.507 10.517,21.480 10.418 C 21.423 10.215,21.222 9.965,21.009 9.833 L 20.860 9.740 18.120 9.734 C 16.613 9.730,15.297 9.740,15.195 9.755 M8.165 13.382 C 7.315 13.575,6.131 14.100,5.440 14.590 C 4.953 14.936,4.097 15.791,3.750 16.280 C 3.260 16.969,2.800 18.000,2.600 18.860 C 2.504 19.272,2.400 19.978,2.400 20.215 L 2.400 20.400 9.600 20.400 L 16.800 20.400 16.800 20.167 C 16.800 19.761,16.577 18.686,16.356 18.026 C 16.016 17.013,15.418 16.090,14.574 15.280 C 13.656 14.398,12.564 13.791,11.280 13.450 C 10.919 13.354,10.837 13.348,9.660 13.336 C 8.684 13.326,8.366 13.336,8.165 13.382 " fill="#373B4D" stroke="none" fill-rule="evenodd"></path></svg>