<svg width="24" height="24" viewBox="0 0 24 24" fill="none" xmlns="http://www.w3.org/2000/svg"><path d="M10.972 3.861 C 10.048 4.110,9.021 5.078,8.639 6.060 C 8.557 6.270,8.543 6.386,8.529 6.994 C 8.500 8.172,8.607 8.562,9.140 9.228 C 9.674 9.896,10.321 10.387,10.951 10.604 C 11.478 10.785,12.459 10.783,13.054 10.599 C 13.518 10.456,13.998 10.118,14.546 9.549 C 14.941 9.138,15.171 8.814,15.309 8.473 C 15.441 8.147,15.469 7.950,15.501 7.138 L 15.530 6.416 15.377 6.062 C 15.167 5.572,14.906 5.188,14.535 4.823 C 14.010 4.306,13.387 3.933,12.899 3.843 C 12.555 3.780,11.228 3.792,10.972 3.861 M10.640 13.440 C 9.919 13.491,9.450 13.643,8.400 14.164 C 7.311 14.705,6.681 15.159,5.897 15.966 C 5.179 16.705,4.736 17.389,4.347 18.360 C 3.922 19.422,3.601 20.716,3.600 21.370 L 3.600 21.600 12.000 21.600 L 20.400 21.600 20.400 21.394 C 20.400 21.123,20.265 20.334,20.121 19.760 C 19.821 18.570,19.339 17.541,18.643 16.609 C 18.288 16.133,17.549 15.403,17.033 15.018 C 16.046 14.283,14.733 13.671,13.767 13.497 C 13.360 13.423,11.381 13.387,10.640 13.440 " fill="#373B4D" stroke="none" fill-rule="evenodd"></path></svg>