<svg width="24" height="24" viewBox="0 0 24 24" fill="none" xmlns="http://www.w3.org/2000/svg"><path d="M4.600 3.788 C 4.118 4.035,3.708 4.881,3.181 6.719 C 2.963 7.482,2.682 8.674,2.603 9.180 C 2.513 9.750,2.481 10.458,2.481 11.920 C 2.480 13.473,2.519 14.281,2.624 14.900 C 2.914 16.612,3.673 19.096,4.100 19.735 C 4.316 20.060,4.675 20.299,5.010 20.344 C 5.396 20.396,5.951 20.028,6.198 19.556 L 6.294 19.372 6.225 19.090 C 6.187 18.935,6.004 18.288,5.817 17.654 C 5.016 14.935,4.940 14.458,4.946 12.160 C 4.953 9.464,5.024 8.988,5.822 6.332 C 6.252 4.901,6.289 4.702,6.171 4.435 C 5.976 3.994,5.612 3.762,5.071 3.734 C 4.807 3.720,4.712 3.731,4.600 3.788 M18.367 3.802 C 18.107 3.960,17.857 4.250,17.806 4.452 C 17.737 4.726,17.786 4.962,18.201 6.382 C 18.785 8.379,18.916 8.963,18.998 9.940 C 19.070 10.804,19.092 12.382,19.044 13.280 C 18.964 14.771,18.819 15.536,18.260 17.398 C 17.702 19.259,17.690 19.344,17.920 19.748 C 18.273 20.365,19.147 20.509,19.661 20.035 C 20.252 19.490,21.224 16.267,21.459 14.074 C 21.642 12.366,21.548 9.953,21.240 8.460 C 21.032 7.449,20.650 6.108,20.312 5.200 C 19.885 4.054,19.722 3.862,19.092 3.764 C 18.681 3.701,18.518 3.709,18.367 3.802 M8.970 8.677 C 8.378 9.106,8.310 9.864,8.816 10.383 C 8.992 10.563,9.065 10.606,9.352 10.696 C 9.535 10.753,9.753 10.800,9.838 10.800 L 9.991 10.800 10.314 11.605 L 10.637 12.409 10.210 12.915 C 9.976 13.193,9.603 13.600,9.382 13.821 C 8.993 14.208,8.968 14.225,8.604 14.357 C 7.690 14.689,7.369 14.925,7.277 15.338 C 7.159 15.864,7.506 16.493,8.002 16.653 C 8.313 16.753,8.827 16.741,9.297 16.622 C 10.006 16.442,10.428 16.182,11.203 15.447 L 11.626 15.046 11.872 15.395 C 12.222 15.891,12.726 16.372,13.046 16.515 C 13.434 16.690,13.693 16.740,14.200 16.738 C 14.582 16.738,14.692 16.723,14.846 16.653 C 15.487 16.361,15.734 15.455,15.313 14.944 C 15.161 14.760,14.723 14.545,14.325 14.459 L 14.004 14.389 13.683 13.589 L 13.362 12.789 13.751 12.325 C 14.285 11.688,14.787 11.171,14.981 11.057 C 15.071 11.005,15.333 10.892,15.563 10.806 C 16.140 10.592,16.286 10.511,16.468 10.304 C 16.882 9.834,16.785 9.080,16.260 8.683 L 16.100 8.562 15.497 8.561 C 14.806 8.560,14.521 8.602,14.181 8.757 C 13.743 8.957,13.419 9.195,12.586 9.929 L 12.393 10.099 12.286 9.975 C 12.228 9.906,12.082 9.723,11.963 9.566 C 11.718 9.246,11.382 8.958,10.977 8.721 L 10.701 8.560 9.917 8.560 L 9.132 8.560 8.970 8.677 " fill="#373B4D" stroke="none" fill-rule="evenodd"></path></svg>