<svg width="24" height="24" viewBox="0 0 24 24" fill="none" xmlns="http://www.w3.org/2000/svg"><path d="M18.414 3.797 C 18.205 3.892,17.932 4.162,17.853 4.351 C 17.731 4.642,17.775 4.887,18.245 6.540 C 18.987 9.150,19.066 9.744,19.028 12.417 C 18.996 14.623,18.926 15.072,18.259 17.388 C 17.741 19.181,17.710 19.379,17.890 19.687 C 18.240 20.283,18.965 20.486,19.503 20.137 C 19.874 19.896,20.307 18.975,20.739 17.506 C 21.409 15.232,21.656 13.158,21.524 10.920 C 21.416 9.073,21.162 7.781,20.524 5.835 C 19.980 4.178,19.788 3.903,19.091 3.778 C 18.683 3.705,18.611 3.708,18.414 3.797 M4.492 3.876 C 3.952 4.267,3.359 5.799,2.786 8.280 C 2.552 9.292,2.521 9.636,2.494 11.500 C 2.461 13.728,2.517 14.503,2.805 15.816 C 3.054 16.953,3.616 18.745,3.927 19.396 C 4.291 20.157,4.928 20.492,5.501 20.226 C 5.736 20.116,6.173 19.663,6.241 19.458 C 6.289 19.311,6.292 19.321,5.598 16.870 C 5.026 14.849,4.991 14.571,4.985 12.020 C 4.978 9.394,5.035 9.003,5.802 6.400 C 6.160 5.187,6.244 4.801,6.202 4.572 C 6.162 4.357,6.110 4.274,5.881 4.068 C 5.625 3.838,5.396 3.760,4.979 3.760 C 4.682 3.760,4.638 3.771,4.492 3.876 M8.891 8.753 C 8.621 9.002,8.508 9.251,8.508 9.600 C 8.508 10.226,8.937 10.649,9.694 10.769 L 9.998 10.818 10.318 11.615 L 10.638 12.412 10.183 12.936 C 9.497 13.726,9.033 14.158,8.720 14.297 C 7.578 14.805,7.367 14.961,7.283 15.365 C 7.180 15.865,7.504 16.444,8.000 16.644 C 8.227 16.735,8.951 16.714,9.340 16.605 C 9.991 16.422,10.458 16.130,11.240 15.417 L 11.620 15.071 11.740 15.223 C 12.435 16.104,12.714 16.362,13.193 16.567 C 13.485 16.691,13.529 16.698,14.088 16.712 C 14.639 16.726,14.689 16.721,14.862 16.635 C 15.495 16.319,15.724 15.368,15.272 14.932 C 15.096 14.763,14.715 14.578,14.323 14.474 L 14.004 14.388 13.683 13.588 L 13.362 12.787 13.641 12.456 C 13.795 12.273,14.137 11.891,14.401 11.606 C 14.927 11.038,14.797 11.122,15.779 10.717 C 16.161 10.559,16.369 10.418,16.514 10.219 C 16.676 9.996,16.734 9.789,16.709 9.521 C 16.684 9.242,16.584 9.040,16.335 8.762 L 16.143 8.549 15.461 8.572 C 14.267 8.614,13.988 8.737,12.770 9.767 C 12.566 9.939,12.393 10.080,12.384 10.080 C 12.376 10.080,12.231 9.909,12.060 9.699 C 11.711 9.269,11.479 9.060,11.025 8.765 L 10.710 8.560 9.905 8.560 L 9.100 8.560 8.891 8.753 " fill="#373B4D" stroke="none" fill-rule="evenodd"></path></svg>