<svg width="24" height="24" viewBox="0 0 24 24" fill="none" xmlns="http://www.w3.org/2000/svg"><path d="M18.493 3.764 C 18.330 3.811,17.949 4.158,17.865 4.336 C 17.730 4.620,17.764 4.819,18.260 6.598 C 18.830 8.643,18.939 9.218,19.009 10.541 C 19.044 11.213,19.044 11.758,19.008 12.841 C 18.945 14.726,18.888 15.125,18.460 16.660 C 18.337 17.100,18.147 17.784,18.036 18.180 C 17.788 19.069,17.752 19.396,17.877 19.654 C 18.207 20.336,19.140 20.523,19.640 20.006 C 19.963 19.673,20.335 18.838,20.698 17.635 C 21.531 14.877,21.749 12.353,21.398 9.540 C 21.247 8.326,20.983 7.226,20.480 5.715 C 19.964 4.162,19.783 3.917,19.053 3.777 C 18.716 3.713,18.673 3.712,18.493 3.764 M4.547 3.850 C 4.184 4.076,3.817 4.766,3.423 5.960 C 3.138 6.827,2.758 8.294,2.637 9.000 C 2.541 9.561,2.481 10.804,2.481 12.260 C 2.481 13.554,2.526 14.255,2.661 15.068 C 2.894 16.464,3.641 18.930,4.022 19.562 C 4.384 20.161,4.903 20.425,5.397 20.261 C 5.634 20.182,6.095 19.760,6.210 19.517 C 6.293 19.340,6.284 19.299,5.764 17.456 C 5.003 14.760,5.021 14.889,5.020 12.020 C 5.020 9.206,5.036 9.075,5.666 6.880 C 6.118 5.308,6.199 4.979,6.200 4.729 C 6.200 4.454,6.130 4.294,5.928 4.112 C 5.653 3.863,5.466 3.790,5.060 3.771 C 4.734 3.756,4.686 3.764,4.547 3.850 M8.853 8.812 C 8.594 9.089,8.520 9.264,8.520 9.600 C 8.520 9.941,8.593 10.116,8.839 10.364 C 9.078 10.604,9.360 10.729,9.788 10.783 L 9.995 10.810 10.316 11.611 L 10.638 12.412 10.290 12.816 C 10.099 13.038,9.734 13.428,9.479 13.682 L 9.016 14.145 8.358 14.469 C 7.406 14.939,7.279 15.068,7.281 15.569 C 7.282 15.994,7.510 16.374,7.887 16.581 C 8.090 16.693,8.121 16.698,8.560 16.692 C 9.497 16.680,10.145 16.387,11.083 15.552 C 11.263 15.391,11.460 15.220,11.520 15.171 L 11.629 15.083 11.897 15.420 C 12.512 16.197,13.012 16.576,13.557 16.680 C 13.892 16.743,14.617 16.731,14.789 16.659 C 15.023 16.561,15.192 16.411,15.320 16.187 C 15.566 15.757,15.565 15.290,15.318 14.990 C 15.172 14.814,14.777 14.609,14.332 14.481 L 14.003 14.386 13.682 13.586 L 13.362 12.787 13.551 12.563 C 13.655 12.441,13.977 12.078,14.266 11.758 C 14.832 11.132,14.938 11.054,15.574 10.802 C 16.017 10.627,16.181 10.537,16.365 10.371 C 16.609 10.150,16.697 9.952,16.699 9.620 C 16.700 9.286,16.615 9.086,16.338 8.770 L 16.154 8.560 15.847 8.561 C 15.317 8.562,14.625 8.635,14.358 8.718 C 13.995 8.830,13.681 9.029,13.055 9.538 C 12.757 9.781,12.481 10.003,12.443 10.031 C 12.381 10.076,12.337 10.037,12.057 9.697 C 11.727 9.297,11.398 9.004,10.964 8.725 L 10.708 8.560 9.898 8.560 L 9.089 8.560 8.853 8.812 " fill="#373B4D" stroke="none" fill-rule="evenodd"></path></svg>