<svg width="24" height="24" viewBox="0 0 24 24" fill="none" xmlns="http://www.w3.org/2000/svg"><path d="M4.853 3.638 C 4.619 3.675,4.328 3.867,4.152 4.100 C 3.756 4.624,2.993 6.985,2.701 8.591 C 2.454 9.948,2.366 11.395,2.436 12.950 C 2.498 14.351,2.643 15.339,2.978 16.660 C 3.286 17.870,3.825 19.402,4.086 19.810 C 4.309 20.158,4.725 20.400,5.099 20.400 C 5.558 20.400,6.077 20.031,6.219 19.603 C 6.337 19.248,6.291 18.972,5.981 18.164 C 5.359 16.543,5.022 15.121,4.881 13.520 C 4.819 12.812,4.830 10.873,4.901 10.240 C 5.077 8.655,5.383 7.415,6.004 5.770 C 6.309 4.964,6.341 4.753,6.213 4.377 C 6.043 3.878,5.431 3.546,4.853 3.638 M18.700 3.642 C 18.360 3.692,18.037 3.924,17.858 4.247 C 17.754 4.435,17.740 4.498,17.742 4.780 C 17.744 5.080,17.764 5.151,18.052 5.908 C 18.420 6.877,18.674 7.741,18.859 8.660 C 19.123 9.970,19.140 10.167,19.140 12.000 C 19.140 13.526,19.133 13.710,19.048 14.280 C 18.843 15.663,18.529 16.858,18.030 18.154 C 17.762 18.851,17.743 18.921,17.742 19.220 C 17.740 19.502,17.754 19.566,17.859 19.754 C 18.081 20.155,18.460 20.376,18.920 20.371 C 19.362 20.366,19.736 20.135,19.949 19.733 C 20.117 19.418,20.345 18.834,20.610 18.040 C 21.916 14.137,21.916 9.863,20.610 5.960 C 20.224 4.805,19.978 4.235,19.758 3.984 C 19.537 3.732,19.084 3.585,18.700 3.642 M9.397 8.438 C 8.455 8.611,8.097 9.743,8.768 10.428 C 8.992 10.656,9.262 10.765,9.667 10.790 L 9.996 10.811 10.314 11.606 L 10.633 12.401 9.972 13.224 C 9.608 13.676,9.238 14.099,9.149 14.163 C 8.968 14.294,8.821 14.341,8.343 14.418 C 8.161 14.448,7.942 14.508,7.856 14.553 C 7.649 14.660,7.380 14.942,7.298 15.137 C 7.211 15.346,7.207 15.851,7.291 16.048 C 7.366 16.224,7.638 16.527,7.823 16.642 C 8.276 16.922,9.436 16.762,10.237 16.308 C 10.566 16.122,11.091 15.648,11.404 15.256 C 11.515 15.115,11.619 15.000,11.633 15.000 C 11.648 15.001,11.735 15.158,11.827 15.350 C 12.053 15.822,12.289 16.107,12.658 16.353 C 13.116 16.660,13.499 16.772,14.100 16.777 C 14.720 16.781,14.899 16.729,15.190 16.464 C 15.486 16.193,15.558 16.027,15.559 15.609 C 15.560 15.210,15.508 15.069,15.261 14.805 C 15.024 14.552,14.781 14.448,14.346 14.415 L 14.004 14.389 13.685 13.594 L 13.367 12.799 14.025 11.980 C 14.387 11.530,14.742 11.117,14.814 11.062 C 14.988 10.929,15.235 10.845,15.600 10.795 C 15.981 10.743,16.214 10.640,16.435 10.428 C 16.689 10.184,16.758 10.007,16.759 9.603 C 16.760 9.186,16.686 9.013,16.384 8.728 C 16.105 8.464,15.959 8.426,15.320 8.450 C 14.894 8.465,14.763 8.487,14.440 8.596 C 14.231 8.666,13.926 8.800,13.763 8.892 C 13.434 9.078,12.909 9.552,12.596 9.944 C 12.485 10.085,12.381 10.200,12.367 10.199 C 12.352 10.199,12.257 10.023,12.155 9.809 C 12.008 9.502,11.914 9.364,11.703 9.154 C 11.418 8.869,10.996 8.620,10.600 8.503 C 10.341 8.427,9.658 8.390,9.397 8.438 " fill="#373B4D" stroke="none" fill-rule="evenodd"></path></svg>