<svg width="24" height="24" viewBox="0 0 24 24" fill="none" xmlns="http://www.w3.org/2000/svg"><path d="M4.520 3.807 C 4.125 4.046,3.879 4.513,3.419 5.900 C 3.019 7.107,2.686 8.518,2.539 9.631 C 2.461 10.220,2.422 12.511,2.474 13.480 C 2.523 14.412,2.673 15.341,2.962 16.511 C 3.297 17.869,3.812 19.350,4.102 19.790 C 4.364 20.187,4.759 20.389,5.194 20.350 C 5.614 20.312,5.974 20.045,6.184 19.616 C 6.325 19.328,6.309 19.227,5.954 18.110 C 4.996 15.099,4.838 14.124,4.896 11.600 C 4.949 9.333,5.057 8.726,5.859 6.200 C 6.044 5.617,6.216 5.060,6.241 4.962 C 6.355 4.524,6.104 4.057,5.622 3.809 C 5.464 3.728,5.346 3.702,5.080 3.690 C 4.753 3.675,4.732 3.679,4.520 3.807 M18.520 3.707 C 18.373 3.737,18.036 4.004,17.903 4.196 C 17.669 4.533,17.711 4.863,18.161 6.254 C 18.603 7.618,18.849 8.553,18.977 9.360 C 19.057 9.860,19.133 11.890,19.102 12.700 C 19.019 14.874,18.909 15.445,18.090 17.940 C 17.808 18.797,17.787 18.885,17.784 19.220 C 17.779 19.629,17.823 19.743,18.080 20.000 C 18.317 20.237,18.454 20.292,18.851 20.312 C 19.673 20.354,19.925 20.032,20.564 18.130 C 21.182 16.291,21.493 14.582,21.541 12.780 C 21.579 11.318,21.515 9.996,21.363 9.112 C 21.067 7.393,20.540 5.545,20.058 4.540 C 19.747 3.892,19.545 3.738,18.960 3.705 C 18.773 3.695,18.575 3.695,18.520 3.707 M9.174 8.522 C 8.981 8.581,8.662 8.891,8.567 9.113 C 8.435 9.419,8.420 9.608,8.502 9.912 C 8.564 10.141,8.606 10.212,8.797 10.401 C 9.047 10.648,9.281 10.744,9.735 10.787 L 9.996 10.811 10.315 11.607 L 10.634 12.404 10.251 12.872 C 9.834 13.382,9.421 13.855,9.197 14.081 C 9.078 14.202,8.980 14.247,8.597 14.357 C 7.689 14.618,7.388 14.831,7.279 15.285 C 7.136 15.880,7.437 16.473,7.985 16.678 C 8.499 16.871,9.486 16.694,10.227 16.276 C 10.457 16.146,10.683 15.960,11.084 15.569 L 11.629 15.039 11.859 15.403 C 12.270 16.050,12.696 16.427,13.253 16.634 C 13.434 16.702,13.614 16.726,14.073 16.746 C 14.649 16.771,14.664 16.770,14.864 16.668 C 15.324 16.435,15.596 15.957,15.546 15.472 C 15.485 14.893,15.128 14.585,14.360 14.449 L 14.003 14.386 13.685 13.592 L 13.367 12.799 13.793 12.269 C 14.282 11.663,14.795 11.114,14.976 11.004 C 15.044 10.962,15.305 10.871,15.555 10.802 C 16.080 10.657,16.186 10.609,16.405 10.410 C 16.614 10.222,16.724 10.001,16.750 9.715 C 16.802 9.140,16.401 8.573,15.886 8.496 C 15.784 8.480,15.453 8.488,15.152 8.512 C 14.478 8.567,14.176 8.673,13.611 9.054 C 13.210 9.323,12.920 9.579,12.590 9.953 C 12.487 10.070,12.387 10.156,12.367 10.145 C 12.348 10.133,12.246 9.974,12.141 9.792 C 11.856 9.299,11.469 8.935,10.973 8.693 L 10.580 8.500 9.940 8.492 C 9.588 8.487,9.243 8.500,9.174 8.522 " fill="#373B4D" stroke="none" fill-rule="evenodd"></path></svg>