<svg width="24" height="24" viewBox="0 0 24 24" fill="none" xmlns="http://www.w3.org/2000/svg"><path d="M4.651 3.737 C 4.394 3.854,4.133 4.148,3.945 4.534 C 3.383 5.683,2.677 8.307,2.516 9.843 C 2.487 10.114,2.466 10.982,2.464 11.980 C 2.460 13.797,2.491 14.230,2.705 15.340 C 3.000 16.868,3.561 18.722,3.986 19.571 C 4.297 20.192,4.838 20.471,5.410 20.305 C 5.789 20.195,6.188 19.759,6.262 19.376 C 6.289 19.235,6.190 18.858,5.787 17.560 C 4.973 14.946,4.810 13.745,4.915 11.158 C 4.996 9.155,5.099 8.622,5.885 6.120 C 6.061 5.559,6.223 5.015,6.246 4.911 C 6.332 4.510,6.062 4.034,5.627 3.822 C 5.359 3.691,4.849 3.646,4.651 3.737 M18.255 3.866 C 17.901 4.133,17.760 4.364,17.760 4.676 C 17.761 4.893,17.893 5.405,18.201 6.380 C 18.970 8.818,19.085 9.558,19.090 12.060 C 19.094 14.419,18.961 15.228,18.157 17.732 C 17.827 18.763,17.747 19.130,17.787 19.438 C 17.820 19.689,17.878 19.789,18.129 20.026 C 18.362 20.246,18.569 20.320,18.952 20.320 C 19.683 20.319,19.955 19.947,20.560 18.120 C 21.325 15.812,21.607 13.900,21.546 11.437 C 21.533 10.897,21.494 10.186,21.459 9.857 C 21.285 8.198,20.599 5.627,20.024 4.482 C 19.708 3.853,19.556 3.751,18.899 3.728 L 18.459 3.712 18.255 3.866 M9.300 8.513 C 8.820 8.579,8.386 9.199,8.458 9.714 C 8.544 10.319,9.014 10.720,9.717 10.785 L 9.996 10.811 10.315 11.607 L 10.634 12.402 10.349 12.751 C 9.879 13.326,9.383 13.890,9.193 14.064 C 9.045 14.200,8.934 14.253,8.538 14.378 C 7.932 14.569,7.645 14.714,7.469 14.921 C 7.034 15.428,7.262 16.331,7.901 16.641 C 8.294 16.830,9.053 16.768,9.780 16.485 C 10.237 16.308,10.515 16.110,11.107 15.544 L 11.628 15.044 11.875 15.422 C 12.398 16.221,12.982 16.641,13.680 16.721 C 14.300 16.791,14.638 16.773,14.870 16.658 C 15.389 16.399,15.660 15.804,15.503 15.265 C 15.377 14.830,15.022 14.581,14.341 14.450 L 14.003 14.385 13.685 13.592 L 13.367 12.800 13.697 12.390 C 14.189 11.780,14.707 11.210,14.892 11.076 C 14.983 11.010,15.234 10.903,15.458 10.835 C 16.116 10.635,16.202 10.595,16.423 10.379 C 16.772 10.038,16.845 9.606,16.637 9.121 C 16.514 8.835,16.220 8.579,15.944 8.518 C 15.689 8.460,14.813 8.525,14.473 8.626 C 13.974 8.774,13.418 9.141,12.836 9.708 C 12.604 9.934,12.396 10.120,12.376 10.120 C 12.355 10.120,12.277 10.017,12.203 9.890 C 11.860 9.312,11.491 8.961,10.928 8.679 C 10.616 8.523,10.609 8.522,10.057 8.504 C 9.751 8.494,9.410 8.498,9.300 8.513 " fill="#373B4D" stroke="none" fill-rule="evenodd"></path></svg>