<svg width="24" height="24" viewBox="0 0 24 24" fill="none" xmlns="http://www.w3.org/2000/svg"><path d="M4.735 3.716 C 4.457 3.786,4.180 4.077,3.950 4.540 C 3.485 5.475,2.905 7.474,2.599 9.200 C 2.428 10.166,2.416 13.630,2.580 14.640 C 2.860 16.369,3.516 18.664,3.990 19.571 C 4.266 20.102,4.742 20.401,5.214 20.343 C 5.625 20.291,6.057 19.933,6.219 19.508 C 6.283 19.341,6.282 19.316,6.206 18.996 C 6.161 18.811,6.006 18.273,5.861 17.800 C 5.057 15.181,4.907 14.316,4.908 12.300 C 4.908 10.387,4.997 9.379,5.263 8.280 C 5.415 7.654,5.472 7.455,5.866 6.188 C 6.261 4.915,6.286 4.802,6.224 4.563 C 6.124 4.177,5.812 3.858,5.441 3.762 C 5.218 3.704,4.871 3.682,4.735 3.716 M18.258 3.869 C 17.851 4.192,17.733 4.416,17.773 4.796 C 17.796 5.008,17.872 5.279,18.417 7.100 C 18.968 8.937,19.078 9.765,19.079 12.060 C 19.080 14.245,18.943 15.211,18.374 17.034 C 17.788 18.908,17.730 19.161,17.800 19.501 C 17.853 19.754,18.069 20.023,18.354 20.191 C 18.521 20.289,18.578 20.300,18.920 20.300 C 19.261 20.300,19.319 20.289,19.484 20.192 C 19.585 20.133,19.717 20.019,19.777 19.940 C 20.237 19.337,21.016 16.899,21.319 15.112 C 21.671 13.035,21.629 10.325,21.215 8.340 C 20.844 6.558,20.185 4.594,19.781 4.065 C 19.611 3.842,19.399 3.763,18.896 3.734 L 18.460 3.709 18.258 3.869 M9.093 8.577 C 8.911 8.658,8.672 8.912,8.560 9.142 C 8.310 9.656,8.553 10.329,9.089 10.604 C 9.281 10.703,9.656 10.800,9.844 10.800 L 9.991 10.800 10.313 11.603 L 10.635 12.405 10.128 13.012 C 9.417 13.861,9.100 14.176,8.880 14.254 C 7.789 14.636,7.551 14.766,7.371 15.071 C 7.276 15.232,7.260 15.304,7.260 15.560 C 7.260 15.808,7.280 15.900,7.372 16.089 C 7.511 16.370,7.776 16.611,8.030 16.685 C 8.334 16.773,8.878 16.749,9.331 16.627 C 10.065 16.429,10.437 16.192,11.244 15.412 L 11.627 15.040 11.842 15.370 C 12.143 15.833,12.670 16.353,13.003 16.516 C 13.461 16.739,14.313 16.829,14.747 16.700 C 15.389 16.509,15.739 15.670,15.420 15.086 C 15.235 14.748,14.899 14.559,14.273 14.442 L 14.006 14.392 13.686 13.594 L 13.366 12.796 13.749 12.328 C 14.365 11.575,14.775 11.146,14.986 11.032 C 15.093 10.974,15.360 10.869,15.580 10.798 C 16.087 10.635,16.240 10.557,16.422 10.370 C 16.661 10.124,16.738 9.941,16.736 9.620 C 16.735 9.399,16.711 9.291,16.625 9.111 C 16.503 8.857,16.264 8.627,16.048 8.556 C 15.858 8.493,14.811 8.534,14.522 8.616 C 14.022 8.756,13.441 9.132,12.827 9.713 C 12.328 10.185,12.402 10.179,12.127 9.770 C 11.825 9.321,11.427 8.951,10.995 8.720 L 10.660 8.540 9.940 8.530 C 9.387 8.522,9.191 8.533,9.093 8.577 " fill="#373B4D" stroke="none" fill-rule="evenodd"></path></svg>