<svg width="24" height="24" viewBox="0 0 24 24" fill="none" xmlns="http://www.w3.org/2000/svg"><path d="M18.540 3.749 C 18.394 3.784,18.035 4.085,17.917 4.272 C 17.725 4.574,17.741 4.695,18.202 6.383 C 18.950 9.124,19.018 9.574,19.013 11.740 C 19.008 13.706,18.930 14.745,18.717 15.670 C 18.675 15.851,18.469 16.619,18.259 17.377 C 18.049 18.136,17.857 18.898,17.831 19.073 C 17.790 19.354,17.793 19.411,17.858 19.581 C 18.018 19.999,18.432 20.285,18.893 20.295 C 19.566 20.309,19.950 19.823,20.485 18.280 C 20.949 16.943,21.283 15.459,21.467 13.920 C 21.567 13.087,21.567 11.030,21.467 10.120 C 21.315 8.734,21.084 7.639,20.653 6.260 C 20.234 4.922,19.994 4.357,19.734 4.097 C 19.562 3.925,19.420 3.860,19.037 3.779 C 18.749 3.719,18.681 3.715,18.540 3.749 M4.620 3.813 C 4.453 3.890,4.199 4.177,4.029 4.482 C 3.475 5.473,2.687 8.251,2.554 9.680 C 2.483 10.444,2.482 13.755,2.553 14.340 C 2.681 15.391,3.029 16.842,3.481 18.206 C 3.893 19.449,4.170 19.919,4.646 20.181 C 4.939 20.342,5.261 20.346,5.521 20.194 C 5.742 20.064,6.098 19.719,6.185 19.550 C 6.284 19.359,6.245 19.162,5.800 17.580 C 5.030 14.846,5.074 15.152,5.051 12.380 C 5.025 9.202,5.034 9.124,5.674 6.860 C 6.242 4.852,6.270 4.699,6.124 4.377 C 6.043 4.198,5.773 3.955,5.555 3.864 C 5.346 3.776,4.768 3.745,4.620 3.813 M8.883 8.785 C 8.576 9.120,8.541 9.205,8.541 9.600 C 8.541 9.989,8.588 10.108,8.846 10.366 C 9.050 10.570,9.366 10.716,9.721 10.771 L 9.997 10.814 10.318 11.614 L 10.639 12.414 10.390 12.697 C 10.254 12.853,9.899 13.238,9.602 13.553 L 9.062 14.127 8.346 14.488 C 7.518 14.906,7.341 15.049,7.298 15.340 C 7.239 15.730,7.360 16.112,7.625 16.374 C 7.890 16.637,8.016 16.680,8.521 16.680 C 9.582 16.680,10.154 16.391,11.543 15.153 C 11.626 15.079,11.629 15.081,11.823 15.329 C 12.342 15.992,12.902 16.469,13.340 16.621 C 13.567 16.700,14.240 16.744,14.573 16.703 C 14.990 16.651,15.333 16.309,15.459 15.820 C 15.537 15.521,15.507 15.299,15.361 15.068 C 15.230 14.861,14.800 14.619,14.312 14.478 L 14.004 14.389 13.683 13.587 C 13.369 12.805,13.363 12.782,13.433 12.702 C 13.472 12.657,13.654 12.449,13.837 12.240 C 14.020 12.031,14.334 11.692,14.535 11.487 C 14.918 11.096,15.064 11.005,15.776 10.716 C 16.401 10.462,16.692 10.109,16.692 9.604 C 16.692 9.274,16.608 9.078,16.333 8.764 L 16.144 8.548 15.578 8.574 C 14.955 8.602,14.420 8.682,14.178 8.784 C 13.934 8.885,13.547 9.148,13.000 9.585 C 12.725 9.804,12.477 9.998,12.448 10.015 C 12.413 10.037,12.230 9.878,11.868 9.509 C 11.535 9.170,11.224 8.895,11.027 8.765 L 10.713 8.560 9.901 8.560 L 9.088 8.560 8.883 8.785 " fill="#373B4D" stroke="none" fill-rule="evenodd"></path></svg>