<svg width="24" height="24" viewBox="0 0 24 24" fill="none" xmlns="http://www.w3.org/2000/svg"><path d="M4.515 3.834 C 4.158 4.061,3.878 4.571,3.501 5.681 C 3.117 6.811,2.720 8.388,2.581 9.334 C 2.421 10.424,2.433 13.720,2.600 14.749 C 2.889 16.532,3.634 19.023,4.090 19.735 C 4.341 20.127,4.845 20.401,5.208 20.343 C 5.589 20.282,5.994 19.964,6.185 19.574 L 6.292 19.356 6.206 19.008 C 6.159 18.817,5.968 18.155,5.783 17.538 C 4.999 14.926,4.894 14.204,4.932 11.705 C 4.967 9.387,5.064 8.791,5.794 6.420 C 6.298 4.781,6.307 4.725,6.146 4.380 C 5.943 3.946,5.544 3.720,4.981 3.720 C 4.736 3.720,4.670 3.736,4.515 3.834 M18.207 3.917 C 17.687 4.350,17.663 4.567,18.012 5.740 C 18.708 8.084,18.820 8.515,18.937 9.321 C 19.071 10.236,19.118 12.208,19.039 13.540 C 18.960 14.846,18.796 15.666,18.266 17.383 C 17.977 18.320,17.819 18.894,17.780 19.149 C 17.700 19.660,18.157 20.227,18.707 20.299 C 19.217 20.366,19.603 20.209,19.842 19.837 C 20.378 19.001,21.195 16.211,21.416 14.460 C 21.625 12.803,21.593 10.624,21.337 9.000 C 21.078 7.365,20.273 4.776,19.818 4.117 C 19.680 3.918,19.458 3.805,19.113 3.761 C 18.536 3.686,18.472 3.697,18.207 3.917 M9.187 8.556 C 8.987 8.598,8.673 8.907,8.556 9.176 C 8.335 9.689,8.575 10.338,9.082 10.600 C 9.265 10.695,9.671 10.800,9.851 10.800 L 9.991 10.800 10.314 11.605 L 10.637 12.410 10.113 13.026 C 9.392 13.874,9.081 14.178,8.849 14.263 C 7.827 14.636,7.578 14.769,7.397 15.038 C 7.091 15.493,7.294 16.255,7.806 16.571 C 8.150 16.784,8.817 16.786,9.485 16.577 C 10.127 16.376,10.507 16.123,11.263 15.392 L 11.626 15.041 11.856 15.379 C 12.110 15.752,12.537 16.205,12.819 16.399 C 13.336 16.755,14.421 16.873,14.908 16.626 C 15.279 16.438,15.530 16.018,15.530 15.585 C 15.530 14.989,15.150 14.629,14.343 14.460 L 14.004 14.388 13.684 13.589 L 13.363 12.790 13.837 12.225 C 14.391 11.564,14.739 11.201,14.949 11.065 C 15.032 11.011,15.316 10.891,15.580 10.799 C 16.124 10.610,16.239 10.548,16.448 10.333 C 16.642 10.133,16.724 9.927,16.725 9.637 C 16.727 9.221,16.553 8.874,16.233 8.657 L 16.060 8.540 15.438 8.546 C 14.711 8.552,14.456 8.605,14.005 8.840 C 13.628 9.038,13.291 9.290,12.807 9.736 C 12.601 9.925,12.421 10.080,12.407 10.079 C 12.352 10.078,12.291 10.014,12.160 9.820 C 11.822 9.320,11.451 8.976,10.951 8.702 L 10.682 8.554 10.011 8.539 C 9.642 8.530,9.271 8.538,9.187 8.556 " fill="#373B4D" stroke="none" fill-rule="evenodd"></path></svg>