<svg width="24" height="24" viewBox="0 0 24 24" fill="none" xmlns="http://www.w3.org/2000/svg"><path d="M4.818 3.678 C 4.618 3.709,4.405 3.838,4.236 4.031 C 3.794 4.534,3.045 6.789,2.704 8.640 C 2.474 9.894,2.462 10.050,2.461 11.980 C 2.460 13.832,2.467 13.942,2.645 15.020 C 2.846 16.234,3.227 17.663,3.645 18.772 C 3.944 19.563,4.025 19.727,4.237 19.968 C 4.771 20.573,5.682 20.474,6.108 19.763 C 6.360 19.344,6.361 19.351,5.816 17.675 C 5.083 15.420,4.880 14.271,4.883 12.380 C 4.886 10.836,4.944 9.757,5.057 9.160 C 5.228 8.259,5.428 7.518,5.845 6.245 C 6.064 5.577,6.253 4.955,6.266 4.861 C 6.361 4.166,5.614 3.555,4.818 3.678 M18.409 3.738 C 18.337 3.770,18.181 3.894,18.062 4.013 C 17.640 4.435,17.650 4.724,18.133 6.160 C 18.504 7.261,18.738 8.111,18.925 9.035 C 19.032 9.563,19.048 9.745,19.088 10.900 C 19.121 11.851,19.121 12.442,19.087 13.200 C 19.010 14.918,18.871 15.591,18.119 17.864 C 17.820 18.766,17.760 18.991,17.760 19.200 C 17.760 19.583,17.826 19.749,18.078 20.002 C 18.340 20.263,18.512 20.326,18.965 20.328 C 19.619 20.331,19.884 20.022,20.378 18.680 C 20.930 17.180,21.315 15.547,21.487 13.980 C 21.568 13.242,21.557 10.493,21.470 9.820 C 21.276 8.317,20.829 6.492,20.335 5.190 C 19.865 3.949,19.645 3.717,18.920 3.692 C 18.646 3.682,18.503 3.695,18.409 3.738 M9.378 8.477 C 9.124 8.518,8.980 8.592,8.785 8.786 C 8.396 9.171,8.337 9.790,8.644 10.254 C 8.852 10.567,9.205 10.745,9.706 10.787 L 9.996 10.811 10.315 11.607 L 10.634 12.402 10.269 12.851 C 9.680 13.576,9.159 14.159,9.045 14.218 C 8.986 14.248,8.759 14.320,8.539 14.379 C 7.734 14.592,7.442 14.783,7.306 15.180 C 7.092 15.808,7.383 16.452,7.982 16.679 C 8.191 16.758,8.271 16.766,8.640 16.748 C 9.304 16.715,9.902 16.509,10.500 16.108 C 10.632 16.019,10.940 15.742,11.184 15.490 L 11.629 15.034 11.870 15.427 C 12.252 16.049,12.653 16.405,13.220 16.626 C 13.480 16.727,13.543 16.735,14.120 16.737 L 14.740 16.740 14.960 16.616 C 15.453 16.338,15.667 15.775,15.497 15.204 C 15.372 14.782,14.980 14.526,14.315 14.432 L 14.004 14.388 13.685 13.593 L 13.366 12.798 13.891 12.149 C 14.505 11.391,14.803 11.081,15.022 10.971 C 15.109 10.927,15.351 10.851,15.560 10.801 C 16.041 10.687,16.255 10.578,16.485 10.332 C 16.621 10.187,16.681 10.081,16.719 9.923 C 16.855 9.359,16.590 8.766,16.110 8.559 C 15.912 8.474,15.866 8.470,15.311 8.495 C 14.900 8.514,14.647 8.545,14.471 8.601 C 13.914 8.776,13.166 9.292,12.712 9.815 C 12.576 9.972,12.444 10.124,12.418 10.153 C 12.380 10.196,12.337 10.145,12.205 9.899 C 11.824 9.193,11.367 8.797,10.635 8.538 C 10.431 8.466,9.675 8.429,9.378 8.477 " fill="#373B4D" stroke="none" fill-rule="evenodd"></path></svg>