<svg width="24" height="24" viewBox="0 0 24 24" fill="none" xmlns="http://www.w3.org/2000/svg"><path d="M3.857 5.037 C 3.230 5.351,2.810 5.810,2.527 6.488 L 2.399 6.797 2.410 12.048 L 2.420 17.300 2.587 17.650 C 2.899 18.302,3.298 18.701,3.950 19.013 L 4.300 19.180 8.330 19.191 L 12.360 19.201 12.676 19.079 C 13.438 18.785,13.995 18.240,14.286 17.502 L 14.397 17.220 14.397 12.000 L 14.397 6.780 14.286 6.498 C 14.038 5.871,13.572 5.349,13.012 5.071 L 12.666 4.900 8.420 4.889 L 4.174 4.878 3.857 5.037 M19.017 7.755 C 17.251 8.681,16.977 8.868,16.883 9.209 C 16.822 9.433,16.783 12.747,16.828 13.943 C 16.860 14.820,16.861 14.828,16.973 14.996 C 17.135 15.242,17.632 15.547,18.950 16.211 C 20.060 16.770,20.084 16.780,20.330 16.775 C 20.775 16.767,21.151 16.566,21.426 16.192 L 21.572 15.994 21.590 12.787 C 21.609 9.467,21.576 8.132,21.469 7.875 C 21.403 7.717,21.187 7.516,20.957 7.398 C 20.813 7.325,20.275 7.233,20.060 7.245 C 20.016 7.248,19.547 7.477,19.017 7.755 " fill="#373B4D" stroke="none" fill-rule="evenodd"></path></svg>