<svg width="24" height="24" viewBox="0 0 24 24" fill="none" xmlns="http://www.w3.org/2000/svg"><path d="M3.739 5.130 C 3.279 5.457,2.827 5.942,2.590 6.363 L 2.400 6.700 2.401 12.000 L 2.401 17.300 2.562 17.594 C 2.930 18.271,3.421 18.747,4.109 19.094 L 4.317 19.200 8.380 19.200 L 12.442 19.200 12.691 19.075 C 13.425 18.705,13.939 18.196,14.295 17.491 L 14.400 17.283 14.400 11.990 L 14.400 6.698 14.221 6.384 C 13.878 5.782,13.586 5.472,13.020 5.110 L 12.740 4.931 8.412 4.908 L 4.083 4.885 3.739 5.130 M19.975 7.318 C 19.816 7.356,18.594 7.988,17.862 8.410 C 17.235 8.772,16.992 8.981,16.923 9.220 C 16.762 9.774,16.769 14.551,16.931 14.861 C 17.097 15.178,17.661 15.557,18.878 16.170 C 19.862 16.666,20.189 16.783,20.471 16.741 C 20.850 16.684,21.152 16.502,21.425 16.167 L 21.600 15.953 21.599 13.006 C 21.598 10.008,21.557 8.287,21.482 8.006 C 21.432 7.823,21.190 7.557,20.971 7.445 C 20.760 7.338,20.192 7.265,19.975 7.318 " fill="#373B4D" stroke="none" fill-rule="evenodd"></path></svg>