<svg width="24" height="24" viewBox="0 0 24 24" fill="none" xmlns="http://www.w3.org/2000/svg"><path d="M5.940 4.826 C 4.294 5.039,2.979 6.179,2.531 7.783 L 2.420 8.180 2.420 12.000 L 2.420 15.820 2.531 16.217 C 2.952 17.726,4.107 18.808,5.626 19.117 C 6.026 19.199,6.124 19.200,12.000 19.200 C 17.876 19.200,17.974 19.199,18.374 19.117 C 19.891 18.808,21.057 17.715,21.472 16.212 L 21.580 15.820 21.580 12.000 L 21.580 8.180 21.474 7.795 C 21.211 6.845,20.644 6.039,19.869 5.512 C 19.529 5.281,18.953 5.018,18.558 4.912 L 18.220 4.822 12.140 4.817 C 8.796 4.813,6.006 4.818,5.940 4.826 M10.840 8.641 C 11.286 8.868,14.758 10.903,14.850 10.990 C 15.229 11.352,15.229 12.050,14.850 12.409 C 14.790 12.467,13.850 13.028,12.761 13.656 C 11.367 14.461,10.722 14.812,10.578 14.844 C 10.179 14.933,9.721 14.702,9.507 14.303 C 9.420 14.141,9.420 14.130,9.420 11.700 C 9.420 9.384,9.424 9.252,9.496 9.107 C 9.629 8.838,9.888 8.630,10.180 8.556 C 10.347 8.514,10.673 8.556,10.840 8.641 " fill="#373B4D" stroke="none" fill-rule="evenodd"></path></svg>