<svg width="24" height="24" viewBox="0 0 24 24" fill="none" xmlns="http://www.w3.org/2000/svg"><path d="M6.380 4.879 C 5.506 4.900,5.444 4.907,5.140 5.013 C 4.163 5.354,3.287 6.117,2.828 7.025 C 2.771 7.137,2.651 7.448,2.562 7.714 L 2.400 8.199 2.400 11.997 L 2.400 15.795 2.537 16.214 C 2.804 17.029,3.133 17.574,3.665 18.080 C 4.194 18.584,4.637 18.830,5.464 19.080 L 5.860 19.199 12.000 19.199 L 18.140 19.199 18.526 19.083 C 19.385 18.824,19.937 18.503,20.454 17.961 C 20.950 17.442,21.240 16.937,21.476 16.182 L 21.600 15.783 21.600 11.994 L 21.600 8.205 21.464 7.790 C 21.298 7.283,21.031 6.742,20.785 6.416 C 20.577 6.139,20.135 5.709,19.875 5.530 C 19.603 5.344,19.071 5.089,18.682 4.959 L 18.328 4.840 12.814 4.848 C 9.781 4.852,6.886 4.866,6.380 4.879 M10.960 8.716 C 11.258 8.870,12.729 9.724,13.900 10.421 C 14.949 11.047,15.006 11.098,15.088 11.489 C 15.124 11.661,15.124 11.761,15.086 11.930 C 15.008 12.277,14.852 12.422,14.026 12.915 C 12.991 13.534,11.447 14.415,10.989 14.649 C 10.619 14.839,10.585 14.848,10.344 14.833 C 10.013 14.812,9.751 14.657,9.581 14.382 L 9.460 14.186 9.447 12.003 C 9.434 9.683,9.459 9.141,9.588 8.968 C 9.708 8.807,9.940 8.635,10.087 8.597 C 10.324 8.537,10.719 8.591,10.960 8.716 " fill="#373B4D" stroke="none" fill-rule="evenodd"></path></svg>