<svg width="24" height="24" viewBox="0 0 24 24" fill="none" xmlns="http://www.w3.org/2000/svg"><path d="M3.764 5.105 C 3.213 5.473,2.784 5.958,2.485 6.548 L 2.400 6.717 2.400 12.000 L 2.400 17.282 2.525 17.531 C 2.864 18.208,3.388 18.732,4.069 19.075 L 4.318 19.200 8.380 19.200 L 12.442 19.200 12.691 19.075 C 13.457 18.689,13.927 18.224,14.295 17.491 L 14.400 17.283 14.399 11.991 L 14.399 6.700 14.238 6.406 C 13.922 5.826,13.551 5.428,13.026 5.105 L 12.740 4.929 8.418 4.906 L 4.096 4.882 3.764 5.105 M19.960 7.315 C 19.636 7.423,17.955 8.324,17.377 8.699 C 16.818 9.062,16.819 9.055,16.822 12.100 C 16.824 14.524,16.840 14.785,16.997 14.985 C 17.119 15.141,17.439 15.381,17.846 15.622 C 18.374 15.936,19.735 16.610,20.014 16.697 C 20.515 16.853,21.050 16.649,21.442 16.153 L 21.600 15.953 21.598 12.906 C 21.597 9.798,21.559 8.266,21.478 7.980 C 21.414 7.755,21.093 7.459,20.826 7.378 C 20.580 7.303,20.100 7.268,19.960 7.315 " fill="#373B4D" stroke="none" fill-rule="evenodd"></path></svg>