<svg width="24" height="24" viewBox="0 0 24 24" fill="none" xmlns="http://www.w3.org/2000/svg"><path d="M3.740 5.143 C 3.162 5.601,2.703 6.116,2.485 6.548 L 2.400 6.717 2.400 12.029 L 2.400 17.340 2.645 17.715 C 3.058 18.345,3.562 18.821,4.109 19.095 L 4.317 19.200 8.383 19.200 L 12.448 19.200 12.717 19.059 C 13.307 18.749,13.971 18.093,14.277 17.520 L 14.400 17.289 14.400 11.960 L 14.400 6.631 14.131 6.246 C 13.807 5.780,13.444 5.412,13.033 5.130 L 12.727 4.920 8.373 4.920 L 4.020 4.920 3.740 5.143 M19.948 7.349 C 19.713 7.384,17.830 8.409,17.340 8.769 C 16.845 9.132,16.824 9.274,16.824 12.180 C 16.824 14.381,16.845 14.708,17.002 14.934 C 17.140 15.133,17.484 15.400,17.930 15.654 C 18.496 15.978,19.635 16.528,20.015 16.663 C 20.304 16.765,20.345 16.770,20.515 16.725 C 20.830 16.642,21.042 16.517,21.331 16.244 L 21.609 15.981 21.587 12.401 C 21.574 10.431,21.546 8.646,21.524 8.433 C 21.466 7.868,21.335 7.651,20.950 7.480 C 20.799 7.413,20.167 7.302,20.080 7.326 C 20.069 7.329,20.010 7.340,19.948 7.349 " fill="#373B4D" stroke="none" fill-rule="evenodd"></path></svg>