<svg width="24" height="24" viewBox="0 0 24 24" fill="none" xmlns="http://www.w3.org/2000/svg"><path d="M5.539 4.901 C 4.379 5.156,3.358 5.964,2.809 7.060 C 2.743 7.192,2.624 7.505,2.545 7.757 L 2.400 8.213 2.400 12.000 L 2.400 15.787 2.544 16.243 C 3.006 17.709,3.984 18.670,5.420 19.069 L 5.820 19.180 12.000 19.180 L 18.180 19.180 18.580 19.069 C 20.025 18.667,21.041 17.656,21.480 16.180 L 21.599 15.780 21.600 11.997 L 21.600 8.213 21.456 7.757 C 21.004 6.325,20.067 5.386,18.648 4.943 L 18.316 4.840 12.048 4.844 C 7.005 4.847,5.733 4.858,5.539 4.901 M11.021 8.741 C 11.807 9.177,14.582 10.809,14.815 10.972 C 14.878 11.016,14.972 11.144,15.024 11.256 C 15.225 11.688,15.104 12.231,14.754 12.469 C 14.337 12.753,11.710 14.277,10.989 14.653 C 10.658 14.826,10.566 14.857,10.389 14.854 C 10.019 14.849,9.636 14.591,9.494 14.251 C 9.451 14.148,9.440 13.642,9.441 11.691 C 9.442 8.960,9.430 9.078,9.741 8.805 C 9.977 8.598,10.100 8.556,10.441 8.572 C 10.701 8.584,10.779 8.606,11.021 8.741 " fill="#373B4D" stroke="none" fill-rule="evenodd"></path></svg>