<svg width="24" height="24" viewBox="0 0 24 24" fill="none" xmlns="http://www.w3.org/2000/svg"><path d="M3.678 5.186 C 3.143 5.589,2.739 6.050,2.486 6.548 L 2.400 6.717 2.400 12.009 L 2.400 17.302 2.579 17.616 C 2.969 18.300,3.443 18.758,4.109 19.095 L 4.317 19.200 8.380 19.200 L 12.442 19.200 12.711 19.064 C 13.373 18.731,13.962 18.149,14.284 17.511 L 14.400 17.282 14.400 11.982 L 14.400 6.682 14.220 6.378 C 13.864 5.775,13.540 5.441,12.959 5.072 L 12.737 4.932 8.403 4.911 L 4.070 4.890 3.678 5.186 M19.660 7.452 C 18.884 7.823,17.594 8.550,17.275 8.797 C 16.860 9.117,16.847 9.191,16.814 11.400 C 16.788 13.161,16.839 14.624,16.934 14.852 C 17.006 15.025,17.294 15.274,17.740 15.551 C 18.294 15.894,19.621 16.551,19.998 16.669 C 20.335 16.774,20.336 16.774,20.598 16.706 C 20.916 16.624,21.209 16.430,21.433 16.155 L 21.600 15.949 21.599 13.085 C 21.599 11.509,21.581 9.746,21.560 9.167 C 21.516 7.967,21.499 7.896,21.190 7.613 C 20.966 7.407,20.806 7.356,20.320 7.335 C 19.955 7.319,19.929 7.324,19.660 7.452 " fill="#373B4D" stroke="none" fill-rule="evenodd"></path></svg>