<svg width="24" height="24" viewBox="0 0 24 24" fill="none" xmlns="http://www.w3.org/2000/svg"><path d="M3.733 5.118 C 3.262 5.428,2.879 5.840,2.610 6.326 L 2.400 6.705 2.400 11.994 L 2.400 17.282 2.525 17.531 C 2.883 18.240,3.360 18.717,4.069 19.075 L 4.318 19.200 8.370 19.200 L 12.422 19.200 12.714 19.060 C 13.468 18.699,13.905 18.265,14.295 17.491 L 14.400 17.283 14.400 12.000 L 14.400 6.717 14.295 6.509 C 13.973 5.870,13.575 5.423,13.054 5.114 L 12.740 4.928 8.417 4.904 L 4.093 4.881 3.733 5.118 M19.271 7.634 C 18.441 8.060,17.493 8.596,17.224 8.792 C 16.938 9.001,16.889 9.142,16.841 9.904 C 16.793 10.653,16.791 12.887,16.836 14.009 C 16.867 14.767,16.873 14.805,16.973 14.956 C 17.156 15.234,17.787 15.630,19.060 16.270 C 20.063 16.773,20.253 16.823,20.679 16.697 C 21.016 16.597,21.243 16.425,21.513 16.065 L 21.600 15.949 21.598 12.945 C 21.597 11.292,21.581 9.516,21.563 8.998 C 21.526 7.946,21.503 7.854,21.222 7.607 C 21.026 7.435,20.899 7.375,20.622 7.324 C 20.105 7.228,20.030 7.245,19.271 7.634 " fill="#373B4D" stroke="none" fill-rule="evenodd"></path></svg>