<svg width="24" height="24" viewBox="0 0 24 24" fill="none" xmlns="http://www.w3.org/2000/svg"><path d="M7.640 4.881 C 5.180 4.909,5.327 4.891,4.638 5.244 C 3.974 5.584,3.330 6.176,2.960 6.786 C 2.885 6.909,2.733 7.246,2.622 7.535 L 2.420 8.060 2.409 11.926 L 2.399 15.792 2.523 16.166 C 2.799 16.994,3.099 17.503,3.622 18.027 C 4.140 18.547,4.567 18.793,5.413 19.061 L 5.853 19.200 12.005 19.200 L 18.158 19.200 18.639 19.042 C 20.106 18.560,20.981 17.684,21.462 16.217 L 21.600 15.795 21.600 12.005 L 21.600 8.214 21.478 7.837 C 21.410 7.630,21.257 7.262,21.138 7.020 C 20.651 6.033,19.901 5.404,18.687 4.961 L 18.355 4.840 14.087 4.848 C 11.740 4.853,8.839 4.867,7.640 4.881 M10.760 8.643 C 10.980 8.698,14.198 10.566,14.702 10.931 C 15.010 11.154,15.095 11.321,15.097 11.701 C 15.098 12.047,14.986 12.265,14.694 12.486 C 14.344 12.751,12.063 14.082,11.131 14.566 C 10.555 14.865,10.451 14.886,10.092 14.780 C 9.890 14.720,9.637 14.498,9.519 14.278 C 9.451 14.152,9.414 10.496,9.472 9.689 C 9.519 9.043,9.560 8.934,9.827 8.747 C 10.081 8.568,10.343 8.539,10.760 8.643 " fill="#373B4D" stroke="none" fill-rule="evenodd"></path></svg>