<svg width="24" height="24" viewBox="0 0 24 24" fill="none" xmlns="http://www.w3.org/2000/svg"><path d="M6.213 3.720 C 5.488 3.754,5.198 3.798,4.988 3.905 C 4.647 4.080,4.053 4.644,3.863 4.974 C 3.682 5.289,3.662 5.505,3.661 7.220 C 3.660 9.184,3.663 9.198,4.172 9.810 C 4.431 10.122,4.967 10.542,5.233 10.641 C 5.567 10.766,6.316 10.813,7.540 10.785 C 8.134 10.772,8.727 10.743,8.858 10.721 C 9.271 10.652,9.486 10.514,10.044 9.959 C 10.616 9.390,10.640 9.345,10.717 8.680 C 10.776 8.168,10.811 6.275,10.770 5.820 C 10.727 5.359,10.637 5.139,10.311 4.703 C 9.909 4.166,9.372 3.815,8.871 3.759 C 8.394 3.706,6.949 3.685,6.213 3.720 M14.663 3.863 C 14.142 4.131,13.619 4.687,13.305 5.309 L 13.200 5.517 13.200 7.206 L 13.200 8.895 13.410 9.274 C 13.752 9.891,14.253 10.366,14.909 10.695 L 15.117 10.800 16.810 10.800 L 18.502 10.800 18.816 10.621 C 19.500 10.231,19.958 9.757,20.295 9.091 L 20.400 8.883 20.400 7.182 L 20.400 5.482 20.218 5.174 C 19.873 4.591,19.557 4.251,19.041 3.906 L 18.821 3.760 16.841 3.761 L 14.860 3.762 14.663 3.863 M5.063 13.463 C 4.542 13.731,4.019 14.287,3.705 14.909 L 3.600 15.117 3.600 16.806 L 3.600 18.495 3.810 18.874 C 4.152 19.491,4.653 19.966,5.309 20.295 L 5.517 20.400 7.210 20.400 L 8.902 20.400 9.216 20.221 C 9.900 19.831,10.358 19.357,10.695 18.691 L 10.800 18.483 10.800 16.782 L 10.800 15.082 10.618 14.774 C 10.273 14.191,9.957 13.851,9.441 13.506 L 9.221 13.360 7.241 13.361 L 5.260 13.362 5.063 13.463 M14.663 13.463 C 14.142 13.731,13.619 14.287,13.305 14.909 L 13.200 15.117 13.200 16.806 L 13.200 18.495 13.410 18.874 C 13.752 19.491,14.253 19.966,14.909 20.295 L 15.117 20.400 16.810 20.400 L 18.502 20.400 18.816 20.221 C 19.500 19.831,19.958 19.357,20.295 18.691 L 20.400 18.483 20.400 16.782 L 20.400 15.082 20.218 14.774 C 19.873 14.191,19.557 13.851,19.041 13.506 L 18.821 13.360 16.841 13.361 L 14.860 13.362 14.663 13.463 " fill="#373B4D" stroke="none" fill-rule="evenodd"></path></svg>