<svg width="24" height="24" viewBox="0 0 24 24" fill="none" xmlns="http://www.w3.org/2000/svg"><path d="M10.220 3.683 C 7.184 3.700,4.617 3.721,4.516 3.730 C 4.286 3.751,4.087 3.896,3.855 4.211 C 3.630 4.516,3.602 4.700,3.719 5.085 C 3.793 5.329,3.841 5.407,4.033 5.600 C 4.164 5.730,4.312 5.838,4.380 5.854 C 4.705 5.927,6.828 5.959,12.907 5.985 L 19.554 6.013 19.838 5.740 C 20.497 5.103,20.499 4.539,19.844 3.907 L 19.568 3.640 17.654 3.647 C 16.601 3.650,13.256 3.667,10.220 3.683 M10.220 8.483 C 7.184 8.500,4.617 8.521,4.516 8.530 C 4.286 8.551,4.087 8.696,3.855 9.011 C 3.630 9.316,3.602 9.500,3.719 9.885 C 3.793 10.129,3.841 10.207,4.033 10.400 C 4.164 10.530,4.312 10.638,4.380 10.654 C 4.705 10.727,6.828 10.759,12.907 10.785 L 19.554 10.813 19.838 10.540 C 20.497 9.903,20.499 9.339,19.844 8.707 L 19.568 8.440 17.654 8.447 C 16.601 8.450,13.256 8.467,10.220 8.483 M10.220 13.283 C 7.184 13.300,4.617 13.321,4.516 13.330 C 4.286 13.351,4.087 13.496,3.855 13.811 C 3.630 14.116,3.602 14.300,3.719 14.685 C 3.793 14.929,3.841 15.007,4.033 15.200 C 4.164 15.330,4.312 15.438,4.380 15.454 C 4.705 15.527,6.828 15.559,12.907 15.585 L 19.554 15.613 19.838 15.340 C 20.497 14.703,20.499 14.139,19.844 13.507 L 19.568 13.240 17.654 13.247 C 16.601 13.250,13.256 13.267,10.220 13.283 M10.220 18.083 C 7.184 18.100,4.617 18.121,4.516 18.130 C 4.286 18.151,4.087 18.296,3.855 18.611 C 3.630 18.916,3.602 19.100,3.719 19.485 C 3.793 19.729,3.841 19.807,4.033 20.000 C 4.164 20.130,4.312 20.238,4.380 20.254 C 4.703 20.326,6.821 20.359,12.907 20.385 L 19.554 20.413 19.838 20.140 C 20.497 19.503,20.499 18.939,19.844 18.307 L 19.568 18.040 17.654 18.047 C 16.601 18.050,13.256 18.067,10.220 18.083 " fill="#373B4D" stroke="none" fill-rule="evenodd"></path></svg>