<svg width="24" height="24" viewBox="0 0 24 24" fill="none" xmlns="http://www.w3.org/2000/svg"><path d="M5.360 3.813 C 4.947 3.906,4.434 4.264,4.060 4.720 C 3.816 5.018,3.763 5.143,3.719 5.530 C 3.654 6.097,3.628 7.818,3.674 8.459 C 3.731 9.238,3.811 9.417,4.337 9.942 C 4.755 10.359,5.000 10.538,5.296 10.642 C 5.640 10.763,6.464 10.815,7.580 10.786 C 9.069 10.747,9.237 10.696,9.874 10.096 C 10.427 9.574,10.588 9.353,10.662 9.015 C 10.744 8.639,10.812 6.598,10.765 5.958 C 10.731 5.500,10.718 5.450,10.560 5.130 C 10.321 4.648,9.868 4.197,9.378 3.954 L 9.026 3.780 7.303 3.772 C 6.049 3.766,5.520 3.777,5.360 3.813 M14.680 3.867 C 14.169 4.169,13.728 4.615,13.396 5.166 L 13.200 5.493 13.200 7.196 L 13.201 8.900 13.350 9.168 C 13.656 9.715,14.222 10.287,14.796 10.630 L 15.081 10.800 16.813 10.800 L 18.545 10.800 18.894 10.562 C 19.570 10.101,20.024 9.628,20.282 9.116 L 20.400 8.882 20.400 7.157 L 20.400 5.431 20.133 5.048 C 19.823 4.604,19.449 4.212,19.082 3.947 L 18.824 3.760 16.842 3.760 L 14.860 3.761 14.680 3.867 M5.080 13.467 C 4.569 13.769,4.128 14.215,3.796 14.766 L 3.600 15.093 3.600 16.796 L 3.601 18.500 3.750 18.768 C 4.056 19.315,4.622 19.887,5.196 20.230 L 5.481 20.400 7.213 20.400 L 8.945 20.400 9.294 20.162 C 9.970 19.701,10.424 19.228,10.682 18.716 L 10.800 18.482 10.800 16.757 L 10.800 15.031 10.533 14.648 C 10.223 14.204,9.849 13.812,9.482 13.547 L 9.224 13.360 7.242 13.360 L 5.260 13.361 5.080 13.467 M16.300 13.420 C 16.138 13.508,15.887 13.753,15.810 13.900 C 15.707 14.097,15.645 14.389,15.620 14.796 C 15.608 15.007,15.588 15.272,15.576 15.384 L 15.556 15.587 15.108 15.635 C 14.439 15.707,13.883 15.829,13.712 15.941 C 13.532 16.059,13.384 16.302,13.304 16.613 C 13.204 16.994,13.296 17.252,13.647 17.584 C 13.786 17.716,13.932 17.810,14.061 17.852 C 14.315 17.935,14.845 18.000,15.269 18.000 L 15.600 18.000 15.600 18.330 C 15.601 19.706,15.959 20.279,16.822 20.280 C 17.076 20.280,17.180 20.261,17.321 20.190 C 17.762 19.967,17.999 19.347,18.000 18.416 L 18.000 18.012 18.590 17.989 C 19.372 17.958,19.637 17.879,19.925 17.592 C 20.280 17.236,20.394 16.861,20.262 16.484 C 20.133 16.119,19.845 15.877,19.424 15.780 C 19.193 15.726,18.243 15.600,18.070 15.600 C 18.008 15.600,18.000 15.554,18.000 15.190 C 17.999 14.215,17.791 13.676,17.337 13.475 C 17.097 13.368,16.458 13.334,16.300 13.420 " fill="#373B4D" stroke="none" fill-rule="evenodd"></path></svg>