<svg width="24" height="24" viewBox="0 0 24 24" fill="none" xmlns="http://www.w3.org/2000/svg"><path d="M4.680 3.685 C 4.185 3.703,3.654 3.737,3.500 3.760 C 2.990 3.837,2.617 4.093,2.522 4.429 C 2.435 4.737,2.390 8.537,2.416 13.520 C 2.430 16.215,2.456 18.675,2.475 18.986 C 2.514 19.650,2.532 19.691,2.961 20.096 L 3.241 20.360 4.291 20.359 C 5.507 20.357,6.245 20.312,6.448 20.227 C 6.527 20.194,6.730 20.037,6.898 19.877 L 7.204 19.586 7.192 12.063 C 7.180 4.577,7.180 4.538,7.099 4.411 C 7.054 4.340,6.886 4.138,6.726 3.961 L 6.435 3.640 6.007 3.646 C 5.772 3.650,5.175 3.667,4.680 3.685 M11.511 3.762 C 10.260 3.802,10.254 3.803,9.843 4.184 L 9.600 4.409 9.600 11.978 L 9.600 19.547 9.746 19.734 C 9.827 19.838,10.019 20.030,10.174 20.161 L 10.456 20.400 12.025 20.400 L 13.593 20.400 13.897 20.070 C 14.120 19.827,14.217 19.687,14.263 19.540 C 14.360 19.234,14.395 16.774,14.398 10.159 L 14.400 4.418 14.049 4.069 L 13.698 3.720 13.059 3.726 C 12.708 3.730,12.011 3.746,11.511 3.762 M18.711 3.762 C 17.460 3.802,17.454 3.803,17.043 4.184 L 16.800 4.409 16.800 11.978 L 16.800 19.547 16.946 19.734 C 17.027 19.838,17.219 20.030,17.374 20.161 L 17.656 20.400 19.225 20.400 L 20.793 20.400 21.097 20.070 C 21.320 19.827,21.417 19.687,21.463 19.540 C 21.560 19.234,21.595 16.774,21.598 10.159 L 21.600 4.418 21.249 4.069 L 20.898 3.720 20.259 3.726 C 19.908 3.730,19.211 3.746,18.711 3.762 " fill="#373B4D" stroke="none" fill-rule="evenodd"></path></svg>