<svg width="24" height="24" viewBox="0 0 24 24" fill="none" xmlns="http://www.w3.org/2000/svg"><path d="M5.640 3.798 C 5.299 3.819,5.230 3.838,4.960 3.980 C 4.578 4.182,4.003 4.723,3.861 5.015 C 3.704 5.338,3.668 5.737,3.664 7.240 C 3.659 9.009,3.693 9.200,4.103 9.694 C 4.352 9.996,4.846 10.420,5.095 10.547 C 5.414 10.710,5.754 10.761,6.680 10.786 C 7.725 10.815,8.674 10.756,9.052 10.640 C 9.365 10.543,9.754 10.250,10.193 9.779 C 10.674 9.264,10.699 9.169,10.761 7.600 C 10.809 6.390,10.787 5.813,10.679 5.438 C 10.524 4.905,10.037 4.331,9.457 4.000 L 9.141 3.820 8.481 3.794 C 7.672 3.763,6.155 3.765,5.640 3.798 M14.554 3.953 C 14.150 4.217,13.756 4.622,13.453 5.085 L 13.200 5.471 13.200 7.177 L 13.200 8.883 13.296 9.071 C 13.548 9.569,14.129 10.188,14.697 10.564 L 15.054 10.800 16.797 10.800 L 18.540 10.800 18.860 10.583 C 19.514 10.139,20.003 9.639,20.260 9.154 L 20.400 8.888 20.400 7.161 L 20.400 5.433 20.190 5.127 C 19.932 4.750,19.426 4.214,19.084 3.954 L 18.828 3.760 16.839 3.760 L 14.850 3.760 14.554 3.953 M4.954 13.553 C 4.550 13.817,4.156 14.222,3.853 14.685 L 3.600 15.071 3.600 16.777 L 3.600 18.483 3.696 18.671 C 3.948 19.169,4.529 19.788,5.097 20.164 L 5.454 20.400 7.197 20.400 L 8.940 20.400 9.260 20.183 C 9.914 19.739,10.403 19.239,10.660 18.754 L 10.800 18.488 10.800 16.761 L 10.800 15.033 10.590 14.727 C 10.332 14.350,9.826 13.814,9.484 13.554 L 9.228 13.360 7.239 13.360 L 5.250 13.360 4.954 13.553 M16.411 13.397 C 16.253 13.437,16.037 13.596,15.902 13.774 C 15.714 14.020,15.657 14.286,15.578 15.285 L 15.554 15.590 15.127 15.637 C 14.525 15.704,13.928 15.831,13.751 15.930 C 13.390 16.133,13.172 16.785,13.336 17.177 C 13.414 17.362,13.658 17.624,13.871 17.748 C 14.125 17.898,14.424 17.958,15.050 17.987 L 15.600 18.012 15.600 18.396 C 15.601 19.345,15.828 19.951,16.262 20.161 C 16.494 20.273,16.957 20.313,17.185 20.240 C 17.701 20.074,17.948 19.555,17.989 18.550 L 18.011 18.000 18.357 18.000 C 18.838 18.000,19.340 17.931,19.568 17.833 C 19.830 17.720,20.171 17.348,20.261 17.077 C 20.394 16.678,20.226 16.218,19.860 15.975 C 19.628 15.822,19.350 15.751,18.620 15.661 C 18.334 15.626,18.078 15.589,18.050 15.580 C 18.015 15.568,18.000 15.448,18.000 15.171 C 17.999 14.200,17.736 13.589,17.259 13.452 C 17.039 13.389,16.566 13.359,16.411 13.397 " fill="#373B4D" stroke="none" fill-rule="evenodd"></path></svg>