<svg width="24" height="24" viewBox="0 0 24 24" fill="none" xmlns="http://www.w3.org/2000/svg"><path d="M3.400 3.635 C 3.021 3.698,2.698 3.935,2.532 4.272 L 2.420 4.500 2.420 12.000 L 2.420 19.500 2.513 19.688 C 2.631 19.927,2.873 20.169,3.112 20.287 C 3.298 20.379,3.313 20.380,4.800 20.380 C 6.287 20.380,6.302 20.379,6.488 20.287 C 6.727 20.169,6.969 19.927,7.087 19.688 L 7.180 19.500 7.180 12.000 C 7.180 4.966,7.176 4.490,7.111 4.346 C 6.994 4.089,6.815 3.899,6.560 3.763 L 6.317 3.633 4.948 3.619 C 4.196 3.611,3.499 3.618,3.400 3.635 M10.700 3.634 C 10.537 3.650,10.351 3.698,10.255 3.749 C 10.047 3.859,9.754 4.183,9.679 4.385 C 9.631 4.517,9.620 5.663,9.610 11.992 C 9.598 19.319,9.599 19.446,9.676 19.620 C 9.786 19.868,10.090 20.180,10.345 20.304 L 10.560 20.409 12.030 20.394 C 13.459 20.378,13.505 20.375,13.686 20.287 C 13.910 20.178,14.216 19.862,14.321 19.629 C 14.396 19.464,14.398 19.272,14.398 12.000 C 14.398 4.728,14.396 4.536,14.321 4.371 C 14.219 4.146,13.912 3.823,13.706 3.723 C 13.553 3.649,13.438 3.641,12.260 3.625 C 11.556 3.615,10.854 3.619,10.700 3.634 M17.900 3.634 C 17.737 3.650,17.551 3.698,17.455 3.749 C 17.247 3.859,16.954 4.183,16.879 4.385 C 16.831 4.517,16.820 5.663,16.810 11.992 C 16.798 19.319,16.799 19.446,16.876 19.620 C 16.986 19.868,17.290 20.180,17.545 20.304 L 17.760 20.409 19.230 20.394 C 20.659 20.378,20.705 20.375,20.886 20.287 C 21.110 20.178,21.416 19.862,21.521 19.629 C 21.596 19.464,21.598 19.272,21.598 12.000 C 21.598 4.728,21.596 4.536,21.521 4.371 C 21.419 4.146,21.112 3.823,20.906 3.723 C 20.753 3.649,20.638 3.641,19.460 3.625 C 18.756 3.615,18.054 3.619,17.900 3.634 " fill="#373B4D" stroke="none" fill-rule="evenodd"></path></svg>