<svg width="24" height="24" viewBox="0 0 24 24" fill="none" xmlns="http://www.w3.org/2000/svg"><path d="M5.460 3.725 C 5.064 3.782,4.748 3.965,4.335 4.376 C 3.945 4.765,3.803 4.994,3.691 5.411 C 3.635 5.623,3.625 5.882,3.626 7.140 C 3.627 8.772,3.649 8.999,3.844 9.395 C 4.068 9.849,4.696 10.433,5.188 10.644 C 5.487 10.772,6.151 10.812,7.560 10.789 C 8.949 10.766,9.075 10.748,9.466 10.517 C 9.768 10.338,10.390 9.717,10.532 9.451 C 10.731 9.079,10.759 8.832,10.787 7.199 C 10.810 5.822,10.806 5.680,10.741 5.479 C 10.582 4.996,10.431 4.751,10.060 4.375 C 9.660 3.970,9.342 3.786,8.930 3.718 C 8.646 3.672,5.789 3.677,5.460 3.725 M15.319 3.714 L 14.818 3.740 14.519 3.917 C 14.355 4.014,14.083 4.230,13.916 4.397 C 13.666 4.645,13.576 4.772,13.416 5.100 L 13.220 5.500 13.220 7.200 L 13.220 8.900 13.389 9.240 C 13.605 9.677,13.907 10.081,14.149 10.257 C 14.254 10.334,14.513 10.487,14.725 10.598 L 15.110 10.800 16.793 10.800 L 18.476 10.800 18.888 10.591 C 19.231 10.418,19.357 10.325,19.641 10.041 C 19.925 9.757,20.018 9.631,20.191 9.288 L 20.400 8.876 20.400 7.200 L 20.400 5.524 20.196 5.123 C 19.894 4.530,19.467 4.098,18.899 3.809 C 18.747 3.732,18.649 3.726,17.279 3.708 C 16.476 3.697,15.595 3.700,15.319 3.714 M5.719 13.314 L 5.218 13.340 4.919 13.517 C 4.755 13.614,4.483 13.830,4.316 13.997 C 4.066 14.245,3.976 14.372,3.816 14.700 L 3.620 15.100 3.620 16.800 L 3.620 18.500 3.789 18.840 C 4.005 19.277,4.307 19.681,4.549 19.857 C 4.654 19.934,4.913 20.087,5.125 20.198 L 5.510 20.400 7.193 20.400 L 8.876 20.400 9.288 20.191 C 9.631 20.018,9.757 19.925,10.041 19.641 C 10.325 19.357,10.418 19.231,10.591 18.888 L 10.800 18.476 10.800 16.800 L 10.800 15.124 10.596 14.723 C 10.294 14.130,9.867 13.698,9.299 13.409 C 9.147 13.332,9.049 13.326,7.679 13.308 C 6.876 13.297,5.995 13.300,5.719 13.314 M16.292 13.363 C 16.097 13.460,15.817 13.749,15.740 13.933 C 15.659 14.127,15.600 14.635,15.600 15.138 L 15.600 15.590 15.070 15.617 C 13.899 15.678,13.607 15.796,13.341 16.316 C 13.246 16.503,13.219 16.866,13.281 17.125 C 13.324 17.303,13.375 17.382,13.579 17.586 C 13.904 17.911,14.052 17.955,14.925 17.988 L 15.589 18.012 15.611 18.676 C 15.637 19.470,15.692 19.688,15.930 19.947 C 16.201 20.240,16.396 20.333,16.755 20.336 C 17.157 20.340,17.332 20.273,17.610 20.007 C 17.920 19.712,17.960 19.573,17.989 18.690 L 18.012 18.000 18.416 17.999 C 18.638 17.998,18.999 17.981,19.217 17.959 C 19.547 17.927,19.641 17.902,19.771 17.812 C 19.947 17.690,20.156 17.448,20.258 17.245 C 20.441 16.885,20.355 16.377,20.055 16.043 C 19.783 15.740,19.613 15.687,18.747 15.633 L 18.012 15.587 17.988 14.896 C 17.975 14.515,17.942 14.127,17.914 14.032 C 17.843 13.792,17.484 13.436,17.223 13.347 C 16.940 13.251,16.504 13.258,16.292 13.363 " fill="#373B4D" stroke="none" fill-rule="evenodd"></path></svg>