<svg width="24" height="24" viewBox="0 0 24 24" fill="none" xmlns="http://www.w3.org/2000/svg"><path d="M9.060 3.678 L 4.380 3.700 4.231 3.793 C 4.051 3.904,3.792 4.192,3.704 4.377 C 3.621 4.551,3.622 4.932,3.705 5.176 C 3.794 5.439,4.156 5.825,4.366 5.882 C 4.617 5.949,8.730 5.997,14.373 5.999 L 19.526 6.000 19.695 5.883 C 20.064 5.629,20.301 5.275,20.344 4.913 C 20.392 4.502,20.219 4.160,19.799 3.833 L 19.551 3.640 16.645 3.648 C 15.047 3.653,11.634 3.666,9.060 3.678 M9.060 8.478 L 4.380 8.500 4.231 8.593 C 4.051 8.704,3.792 8.992,3.704 9.177 C 3.621 9.351,3.622 9.732,3.705 9.976 C 3.794 10.239,4.156 10.625,4.366 10.682 C 4.617 10.749,8.730 10.797,14.373 10.799 L 19.526 10.800 19.695 10.683 C 20.064 10.429,20.301 10.075,20.344 9.713 C 20.392 9.302,20.219 8.960,19.799 8.633 L 19.551 8.440 16.645 8.448 C 15.047 8.453,11.634 8.466,9.060 8.478 M9.060 13.278 L 4.380 13.300 4.231 13.393 C 4.051 13.504,3.792 13.792,3.704 13.977 C 3.621 14.151,3.622 14.532,3.705 14.776 C 3.794 15.039,4.156 15.425,4.366 15.482 C 4.617 15.549,8.730 15.597,14.373 15.599 L 19.526 15.600 19.695 15.483 C 20.064 15.229,20.301 14.875,20.344 14.513 C 20.392 14.102,20.219 13.760,19.799 13.433 L 19.551 13.240 16.645 13.248 C 15.047 13.253,11.634 13.266,9.060 13.278 M9.060 18.078 L 4.380 18.100 4.231 18.193 C 4.051 18.304,3.792 18.592,3.704 18.777 C 3.621 18.951,3.622 19.332,3.705 19.576 C 3.794 19.839,4.156 20.225,4.366 20.282 C 4.617 20.349,8.730 20.397,14.373 20.399 L 19.526 20.400 19.695 20.283 C 20.064 20.029,20.301 19.675,20.344 19.313 C 20.392 18.902,20.219 18.560,19.799 18.233 L 19.551 18.040 16.645 18.048 C 15.047 18.053,11.634 18.066,9.060 18.078 " fill="#373B4D" stroke="none" fill-rule="evenodd"></path></svg>