<svg width="24" height="24" viewBox="0 0 24 24" fill="none" xmlns="http://www.w3.org/2000/svg"><path d="M4.372 3.683 C 3.360 3.718,3.111 3.757,2.887 3.919 C 2.614 4.117,2.512 4.287,2.473 4.612 C 2.453 4.770,2.427 7.393,2.415 10.440 C 2.393 15.995,2.431 19.385,2.518 19.614 C 2.570 19.752,2.965 20.172,3.150 20.286 C 3.283 20.368,3.317 20.370,4.815 20.353 C 6.584 20.334,6.413 20.373,6.915 19.867 L 7.209 19.569 7.193 12.054 C 7.177 4.888,7.173 4.533,7.103 4.390 C 7.063 4.307,6.887 4.105,6.712 3.940 L 6.393 3.640 5.827 3.646 C 5.515 3.650,4.860 3.666,4.372 3.683 M10.780 3.757 C 10.396 3.777,10.316 3.794,10.154 3.890 C 10.051 3.950,9.885 4.103,9.784 4.230 L 9.601 4.460 9.600 12.003 L 9.600 19.547 9.746 19.734 C 9.827 19.838,10.019 20.030,10.174 20.161 L 10.456 20.400 12.001 20.400 L 13.547 20.400 13.870 20.100 C 14.055 19.928,14.229 19.725,14.277 19.626 L 14.361 19.452 14.387 11.944 L 14.413 4.435 14.057 4.077 L 13.702 3.720 12.461 3.727 C 11.778 3.731,11.022 3.744,10.780 3.757 M17.980 3.757 C 17.596 3.777,17.516 3.794,17.354 3.890 C 17.251 3.950,17.085 4.103,16.984 4.230 L 16.801 4.460 16.800 12.003 L 16.800 19.547 16.946 19.734 C 17.027 19.838,17.219 20.030,17.374 20.161 L 17.656 20.400 19.201 20.400 L 20.747 20.400 21.070 20.100 C 21.255 19.928,21.429 19.725,21.477 19.626 L 21.561 19.452 21.587 11.944 L 21.613 4.435 21.257 4.077 L 20.902 3.720 19.661 3.727 C 18.978 3.731,18.222 3.744,17.980 3.757 " fill="#373B4D" stroke="none" fill-rule="evenodd"></path></svg>