<svg width="24" height="24" viewBox="0 0 24 24" fill="none" xmlns="http://www.w3.org/2000/svg"><path d="M4.300 3.680 C 3.412 3.711,3.205 3.736,3.000 3.841 C 2.821 3.933,2.578 4.185,2.519 4.340 C 2.434 4.559,2.404 6.472,2.404 11.560 C 2.403 16.958,2.441 19.492,2.524 19.647 C 2.616 19.820,2.800 20.023,3.008 20.182 L 3.215 20.340 4.778 20.340 C 6.165 20.340,6.353 20.333,6.460 20.273 C 6.526 20.236,6.722 20.062,6.895 19.887 L 7.210 19.569 7.193 12.034 C 7.179 5.820,7.167 4.482,7.122 4.400 C 7.040 4.248,6.852 4.041,6.606 3.830 L 6.383 3.640 5.742 3.647 C 5.389 3.650,4.740 3.666,4.300 3.680 M10.488 3.761 C 10.219 3.800,10.008 3.940,9.780 4.230 L 9.600 4.460 9.600 12.005 L 9.600 19.550 9.763 19.754 C 9.853 19.867,10.045 20.058,10.192 20.179 L 10.457 20.400 11.988 20.400 L 13.518 20.400 13.827 20.150 C 14.042 19.976,14.167 19.840,14.238 19.701 L 14.340 19.502 14.366 16.101 C 14.380 14.230,14.394 10.841,14.396 8.569 L 14.400 4.439 14.050 4.079 L 13.700 3.720 12.200 3.725 C 11.375 3.728,10.605 3.744,10.488 3.761 M17.688 3.761 C 17.419 3.800,17.208 3.940,16.980 4.230 L 16.800 4.460 16.800 12.005 L 16.800 19.550 16.963 19.754 C 17.053 19.867,17.245 20.058,17.392 20.179 L 17.657 20.400 19.188 20.400 L 20.718 20.400 21.027 20.150 C 21.242 19.976,21.367 19.840,21.438 19.701 L 21.540 19.502 21.566 16.101 C 21.580 14.230,21.594 10.841,21.596 8.569 L 21.600 4.439 21.250 4.079 L 20.900 3.720 19.400 3.725 C 18.575 3.728,17.805 3.744,17.688 3.761 " fill="#373B4D" stroke="none" fill-rule="evenodd"></path></svg>