<svg width="24" height="24" viewBox="0 0 24 24" fill="none" xmlns="http://www.w3.org/2000/svg"><path d="M9.797 3.678 L 4.373 3.700 4.199 3.820 C 3.983 3.970,3.691 4.359,3.656 4.546 C 3.587 4.916,3.731 5.335,4.031 5.635 C 4.192 5.796,4.268 5.840,4.444 5.877 C 4.792 5.948,8.851 5.998,14.416 5.999 L 19.533 6.000 19.744 5.837 C 19.978 5.656,20.106 5.504,20.235 5.250 C 20.480 4.770,20.330 4.284,19.802 3.845 L 19.556 3.640 17.388 3.648 C 16.196 3.652,12.779 3.666,9.797 3.678 M9.797 8.478 L 4.373 8.500 4.199 8.620 C 3.983 8.770,3.691 9.159,3.656 9.346 C 3.587 9.716,3.731 10.135,4.031 10.435 C 4.192 10.596,4.268 10.640,4.444 10.677 C 4.792 10.748,8.851 10.798,14.416 10.799 L 19.533 10.800 19.744 10.637 C 19.978 10.456,20.106 10.304,20.235 10.050 C 20.480 9.570,20.330 9.084,19.802 8.645 L 19.556 8.440 17.388 8.448 C 16.196 8.452,12.779 8.466,9.797 8.478 M9.797 13.278 L 4.373 13.300 4.199 13.420 C 3.983 13.570,3.691 13.959,3.656 14.146 C 3.587 14.516,3.731 14.935,4.031 15.235 C 4.192 15.396,4.268 15.440,4.444 15.477 C 4.792 15.548,8.851 15.598,14.416 15.599 L 19.533 15.600 19.744 15.437 C 19.978 15.256,20.106 15.104,20.235 14.850 C 20.480 14.370,20.330 13.884,19.802 13.445 L 19.556 13.240 17.388 13.248 C 16.196 13.252,12.779 13.266,9.797 13.278 M9.797 18.078 L 4.373 18.100 4.199 18.220 C 3.983 18.370,3.691 18.759,3.656 18.946 C 3.587 19.316,3.731 19.735,4.031 20.035 C 4.192 20.196,4.268 20.240,4.444 20.277 C 4.792 20.348,8.851 20.398,14.416 20.399 L 19.533 20.400 19.744 20.237 C 19.978 20.056,20.106 19.904,20.235 19.650 C 20.480 19.170,20.330 18.684,19.802 18.245 L 19.556 18.040 17.388 18.048 C 16.196 18.052,12.779 18.066,9.797 18.078 " fill="#373B4D" stroke="none" fill-rule="evenodd"></path></svg>