<svg width="24" height="24" viewBox="0 0 24 24" fill="none" xmlns="http://www.w3.org/2000/svg"><path d="M11.060 3.682 C 5.511 3.716,4.440 3.737,4.286 3.817 C 4.152 3.886,3.829 4.227,3.749 4.384 C 3.615 4.646,3.633 4.942,3.804 5.285 C 3.916 5.509,4.221 5.792,4.404 5.841 C 4.704 5.922,6.914 5.958,13.241 5.986 L 19.581 6.013 19.844 5.725 C 20.192 5.344,20.300 5.130,20.300 4.820 C 20.300 4.510,20.184 4.279,19.846 3.914 L 19.593 3.640 17.686 3.647 C 16.638 3.650,13.656 3.666,11.060 3.682 M11.060 8.482 C 5.511 8.516,4.440 8.537,4.286 8.617 C 4.152 8.686,3.829 9.027,3.749 9.184 C 3.615 9.446,3.633 9.742,3.804 10.085 C 3.916 10.309,4.221 10.592,4.404 10.641 C 4.704 10.722,6.914 10.758,13.241 10.786 L 19.581 10.813 19.844 10.525 C 20.192 10.144,20.300 9.930,20.300 9.620 C 20.300 9.310,20.184 9.079,19.846 8.714 L 19.593 8.440 17.686 8.447 C 16.638 8.450,13.656 8.466,11.060 8.482 M11.060 13.282 C 5.511 13.316,4.440 13.337,4.286 13.417 C 4.152 13.486,3.829 13.827,3.749 13.984 C 3.615 14.246,3.633 14.542,3.804 14.885 C 3.916 15.109,4.221 15.392,4.404 15.441 C 4.704 15.522,6.914 15.558,13.241 15.586 L 19.581 15.613 19.844 15.325 C 20.192 14.944,20.300 14.730,20.300 14.420 C 20.300 14.110,20.184 13.879,19.846 13.514 L 19.593 13.240 17.686 13.247 C 16.638 13.250,13.656 13.266,11.060 13.282 M11.060 18.082 C 8.464 18.098,5.900 18.122,5.363 18.136 C 4.418 18.160,4.380 18.164,4.216 18.260 C 4.017 18.377,3.782 18.682,3.695 18.937 C 3.624 19.145,3.661 19.407,3.798 19.677 C 3.918 19.910,4.205 20.177,4.402 20.236 C 4.697 20.324,6.519 20.355,13.181 20.385 L 19.582 20.413 19.844 20.125 C 20.192 19.744,20.300 19.530,20.300 19.220 C 20.300 18.910,20.184 18.679,19.846 18.314 L 19.593 18.040 17.686 18.047 C 16.638 18.050,13.656 18.066,11.060 18.082 " fill="#373B4D" stroke="none" fill-rule="evenodd"></path></svg>