<svg width="24" height="24" viewBox="0 0 24 24" fill="none" xmlns="http://www.w3.org/2000/svg"><path d="M5.780 3.747 C 5.090 3.807,4.830 3.931,4.306 4.449 C 3.674 5.075,3.666 5.105,3.664 7.160 C 3.661 9.148,3.668 9.187,4.111 9.731 C 4.357 10.034,4.831 10.434,5.116 10.578 C 5.219 10.630,5.410 10.694,5.542 10.719 C 5.892 10.787,7.353 10.814,8.180 10.768 C 9.223 10.709,9.325 10.664,10.052 9.945 C 10.517 9.485,10.612 9.338,10.679 8.966 C 10.735 8.656,10.797 7.423,10.797 6.620 C 10.798 5.847,10.749 5.486,10.606 5.182 C 10.359 4.658,9.818 4.113,9.330 3.895 C 9.209 3.841,8.971 3.784,8.770 3.761 C 8.452 3.724,6.164 3.714,5.780 3.747 M14.626 3.889 C 14.164 4.139,13.619 4.714,13.341 5.244 L 13.200 5.512 13.200 7.197 C 13.200 8.839,13.202 8.888,13.285 9.052 C 13.650 9.772,14.215 10.344,14.909 10.694 L 15.117 10.800 16.817 10.800 L 18.516 10.800 18.723 10.678 C 19.478 10.233,19.964 9.746,20.284 9.111 L 20.400 8.882 20.400 7.169 L 20.400 5.456 20.126 5.035 C 19.814 4.555,19.528 4.252,19.114 3.961 L 18.827 3.760 16.844 3.761 L 14.860 3.762 14.626 3.889 M5.026 13.489 C 4.564 13.739,4.019 14.314,3.741 14.844 L 3.600 15.112 3.600 16.797 C 3.600 18.439,3.602 18.488,3.685 18.652 C 4.050 19.372,4.615 19.944,5.309 20.294 L 5.517 20.400 7.217 20.400 L 8.916 20.400 9.123 20.278 C 9.878 19.833,10.364 19.346,10.684 18.711 L 10.800 18.482 10.800 16.769 L 10.800 15.056 10.526 14.635 C 10.214 14.155,9.928 13.852,9.514 13.561 L 9.227 13.360 7.244 13.361 L 5.260 13.362 5.026 13.489 M14.626 13.489 C 14.164 13.739,13.619 14.314,13.341 14.844 L 13.200 15.112 13.200 16.797 C 13.200 18.439,13.202 18.488,13.285 18.652 C 13.650 19.372,14.215 19.944,14.909 20.294 L 15.117 20.400 16.817 20.400 L 18.516 20.400 18.723 20.278 C 19.478 19.833,19.964 19.346,20.284 18.711 L 20.400 18.482 20.400 16.769 L 20.400 15.056 20.126 14.635 C 19.814 14.155,19.528 13.852,19.114 13.561 L 18.827 13.360 16.844 13.361 L 14.860 13.362 14.626 13.489 " fill="#373B4D" stroke="none" fill-rule="evenodd"></path></svg>