<svg width="24" height="24" viewBox="0 0 24 24" fill="none" xmlns="http://www.w3.org/2000/svg"><path d="M3.520 3.677 C 3.120 3.704,2.890 3.816,2.667 4.090 C 2.375 4.452,2.400 3.784,2.402 11.128 C 2.404 18.000,2.426 19.473,2.530 19.722 C 2.605 19.902,3.013 20.268,3.199 20.322 C 3.403 20.381,4.989 20.412,5.768 20.372 C 6.427 20.337,6.439 20.335,6.608 20.213 C 6.703 20.145,6.875 19.966,6.990 19.815 L 7.200 19.541 7.196 14.680 C 7.193 12.007,7.180 8.605,7.166 7.120 L 7.140 4.420 7.030 4.233 C 6.960 4.115,6.819 3.973,6.641 3.843 L 6.361 3.640 5.111 3.647 C 4.423 3.651,3.707 3.664,3.520 3.677 M10.344 3.743 C 10.107 3.830,9.928 3.985,9.753 4.255 L 9.595 4.500 9.608 12.020 C 9.618 18.388,9.629 19.555,9.676 19.639 C 9.763 19.791,10.120 20.156,10.314 20.289 L 10.488 20.409 11.994 20.394 L 13.500 20.379 13.686 20.270 C 13.789 20.210,13.972 20.051,14.093 19.917 C 14.309 19.678,14.314 19.667,14.344 19.367 C 14.361 19.198,14.376 15.775,14.377 11.760 L 14.380 4.460 14.292 4.320 C 14.199 4.171,13.884 3.855,13.721 3.746 C 13.633 3.687,13.447 3.680,12.061 3.683 C 10.811 3.685,10.469 3.697,10.344 3.743 M17.544 3.743 C 17.307 3.830,17.128 3.985,16.953 4.255 L 16.795 4.500 16.808 12.020 C 16.818 18.388,16.829 19.555,16.876 19.639 C 16.963 19.791,17.320 20.156,17.514 20.289 L 17.688 20.409 19.194 20.394 L 20.700 20.379 20.886 20.270 C 20.989 20.210,21.172 20.051,21.293 19.917 C 21.509 19.678,21.514 19.667,21.544 19.367 C 21.561 19.198,21.576 15.775,21.577 11.760 L 21.580 4.460 21.492 4.320 C 21.399 4.171,21.084 3.855,20.921 3.746 C 20.833 3.687,20.647 3.680,19.261 3.683 C 18.011 3.685,17.669 3.697,17.544 3.743 " fill="#373B4D" stroke="none" fill-rule="evenodd"></path></svg>