<svg width="24" height="24" viewBox="0 0 24 24" fill="none" xmlns="http://www.w3.org/2000/svg"><path d="M6.120 3.722 C 5.321 3.755,5.142 3.792,4.854 3.981 C 4.583 4.158,4.158 4.558,3.975 4.806 C 3.689 5.197,3.668 5.328,3.650 6.880 C 3.630 8.578,3.660 8.980,3.835 9.337 C 4.060 9.793,4.731 10.428,5.215 10.642 C 5.350 10.702,5.554 10.735,5.989 10.766 C 6.647 10.814,8.423 10.786,8.850 10.721 C 9.294 10.654,9.448 10.557,10.026 9.982 C 10.501 9.509,10.558 9.437,10.615 9.239 C 10.738 8.808,10.776 8.275,10.778 6.920 C 10.780 5.620,10.777 5.573,10.689 5.340 C 10.482 4.795,9.905 4.155,9.391 3.902 C 9.103 3.760,9.092 3.758,8.380 3.720 C 7.584 3.678,7.160 3.678,6.120 3.722 M14.657 3.859 C 14.184 4.095,13.649 4.649,13.361 5.202 L 13.196 5.520 13.208 7.214 L 13.220 8.908 13.371 9.205 C 13.704 9.861,14.132 10.289,14.806 10.640 L 15.112 10.800 16.806 10.799 L 18.500 10.799 18.794 10.638 C 19.471 10.270,19.947 9.779,20.294 9.091 L 20.400 8.883 20.400 7.191 L 20.400 5.499 20.190 5.125 C 19.930 4.662,19.531 4.224,19.127 3.959 L 18.824 3.760 16.840 3.760 L 14.856 3.760 14.657 3.859 M16.278 13.396 C 16.106 13.490,15.814 13.799,15.755 13.950 C 15.668 14.172,15.603 14.672,15.601 15.126 L 15.600 15.592 15.170 15.620 C 14.533 15.661,13.910 15.775,13.738 15.881 C 13.319 16.140,13.124 16.813,13.342 17.248 C 13.456 17.474,13.798 17.793,13.998 17.859 C 14.269 17.948,14.688 17.998,15.164 17.999 L 15.588 18.000 15.612 18.610 C 15.641 19.351,15.688 19.585,15.856 19.828 C 16.049 20.109,16.304 20.268,16.616 20.301 C 17.031 20.346,17.235 20.299,17.484 20.104 C 17.883 19.790,17.997 19.412,17.999 18.396 L 18.000 18.012 18.650 17.988 C 19.480 17.957,19.658 17.907,19.942 17.624 C 20.189 17.376,20.316 17.145,20.346 16.887 C 20.389 16.517,20.106 16.017,19.752 15.836 C 19.582 15.749,19.032 15.660,18.416 15.619 L 18.012 15.592 17.988 14.946 C 17.973 14.549,17.940 14.222,17.903 14.098 C 17.829 13.853,17.617 13.597,17.368 13.451 C 17.207 13.357,17.132 13.341,16.801 13.330 C 16.485 13.321,16.396 13.332,16.278 13.396 M5.057 13.459 C 4.584 13.695,4.049 14.249,3.761 14.802 L 3.596 15.120 3.608 16.814 L 3.620 18.508 3.771 18.805 C 4.104 19.461,4.532 19.889,5.206 20.240 L 5.512 20.400 7.206 20.399 L 8.900 20.399 9.194 20.238 C 9.871 19.870,10.347 19.379,10.694 18.691 L 10.800 18.483 10.800 16.791 L 10.800 15.099 10.590 14.725 C 10.330 14.262,9.931 13.824,9.527 13.559 L 9.224 13.360 7.240 13.360 L 5.256 13.360 5.057 13.459 " fill="#373B4D" stroke="none" fill-rule="evenodd"></path></svg>