<svg width="24" height="24" viewBox="0 0 24 24" fill="none" xmlns="http://www.w3.org/2000/svg"><path d="M5.760 3.641 C 5.182 3.686,4.775 3.877,4.325 4.316 C 4.054 4.579,3.834 4.930,3.717 5.285 C 3.621 5.578,3.620 5.593,3.620 7.200 C 3.620 8.967,3.625 9.015,3.869 9.498 C 4.002 9.762,4.638 10.398,4.902 10.531 C 5.385 10.775,5.433 10.780,7.200 10.780 C 8.967 10.780,9.015 10.775,9.498 10.531 C 9.762 10.398,10.398 9.762,10.531 9.498 C 10.775 9.015,10.780 8.967,10.780 7.200 C 10.780 5.593,10.779 5.578,10.683 5.285 C 10.457 4.599,9.842 3.967,9.180 3.740 C 9.070 3.702,8.791 3.656,8.560 3.638 C 8.059 3.598,6.295 3.600,5.760 3.641 M15.640 3.642 C 15.210 3.659,14.967 3.687,14.847 3.733 C 14.114 4.013,13.614 4.511,13.336 5.240 L 13.222 5.540 13.221 7.160 C 13.220 8.621,13.227 8.804,13.294 9.020 C 13.409 9.398,13.627 9.774,13.879 10.032 C 14.186 10.348,14.419 10.502,14.813 10.653 L 15.140 10.778 16.800 10.778 L 18.460 10.777 18.760 10.663 C 19.487 10.387,19.988 9.886,20.263 9.160 L 20.377 8.860 20.377 7.200 L 20.377 5.540 20.263 5.240 C 20.113 4.844,19.937 4.577,19.634 4.280 C 19.351 4.005,18.794 3.699,18.511 3.664 C 18.238 3.631,16.318 3.616,15.640 3.642 M6.040 13.242 C 5.610 13.259,5.367 13.287,5.247 13.333 C 4.514 13.613,4.014 14.111,3.736 14.840 L 3.622 15.140 3.621 16.760 C 3.620 18.221,3.627 18.404,3.694 18.620 C 3.809 18.998,4.027 19.374,4.279 19.632 C 4.587 19.948,4.819 20.102,5.213 20.252 L 5.540 20.377 7.200 20.377 L 8.860 20.377 9.160 20.263 C 9.887 19.987,10.388 19.486,10.663 18.760 L 10.777 18.460 10.777 16.800 L 10.778 15.140 10.664 14.840 C 10.513 14.444,10.337 14.176,10.034 13.880 C 9.751 13.605,9.194 13.299,8.911 13.264 C 8.638 13.231,6.718 13.216,6.040 13.242 M15.640 13.242 C 15.210 13.259,14.967 13.287,14.847 13.333 C 14.114 13.613,13.614 14.111,13.336 14.840 L 13.222 15.140 13.221 16.760 C 13.220 18.221,13.227 18.404,13.294 18.620 C 13.409 18.998,13.627 19.374,13.879 19.632 C 14.187 19.948,14.419 20.102,14.813 20.252 L 15.140 20.377 16.800 20.377 L 18.460 20.377 18.760 20.263 C 19.487 19.988,19.988 19.487,20.263 18.760 L 20.377 18.460 20.377 16.800 L 20.377 15.140 20.263 14.840 C 20.113 14.444,19.937 14.177,19.634 13.880 C 19.351 13.605,18.794 13.299,18.511 13.264 C 18.238 13.231,16.318 13.216,15.640 13.242 " fill="#373B4D" stroke="none" fill-rule="evenodd"></path></svg>