<svg width="24" height="24" viewBox="0 0 24 24" fill="none" xmlns="http://www.w3.org/2000/svg"><path d="M10.100 3.681 C 7.042 3.696,4.473 3.722,4.390 3.738 C 4.208 3.775,3.830 4.162,3.709 4.436 C 3.514 4.875,3.844 5.627,4.320 5.830 C 4.567 5.935,5.664 5.955,12.700 5.985 L 19.540 6.013 19.739 5.841 C 20.534 5.153,20.536 4.489,19.746 3.805 L 19.555 3.640 17.608 3.647 C 16.536 3.651,13.158 3.667,10.100 3.681 M10.100 8.481 C 7.042 8.496,4.473 8.522,4.390 8.538 C 4.208 8.575,3.830 8.962,3.709 9.236 C 3.514 9.675,3.844 10.427,4.320 10.630 C 4.567 10.735,5.664 10.755,12.700 10.785 L 19.540 10.813 19.739 10.641 C 20.534 9.953,20.536 9.289,19.746 8.605 L 19.555 8.440 17.608 8.447 C 16.536 8.451,13.158 8.467,10.100 8.481 M10.100 13.281 C 7.042 13.296,4.473 13.322,4.390 13.338 C 4.208 13.375,3.830 13.762,3.709 14.036 C 3.514 14.475,3.844 15.227,4.320 15.430 C 4.567 15.535,5.664 15.555,12.700 15.585 L 19.540 15.613 19.739 15.441 C 20.534 14.753,20.536 14.089,19.746 13.405 L 19.555 13.240 17.608 13.247 C 16.536 13.251,13.158 13.267,10.100 13.281 M10.100 18.081 C 7.042 18.096,4.473 18.122,4.390 18.138 C 4.208 18.175,3.830 18.562,3.709 18.836 C 3.514 19.275,3.844 20.027,4.320 20.230 C 4.564 20.335,5.673 20.355,12.720 20.384 L 19.540 20.413 19.739 20.241 C 20.534 19.553,20.536 18.889,19.746 18.205 L 19.555 18.040 17.608 18.047 C 16.536 18.051,13.158 18.067,10.100 18.081 " fill="#373B4D" stroke="none" fill-rule="evenodd"></path></svg>