<svg width="24" height="24" viewBox="0 0 24 24" fill="none" xmlns="http://www.w3.org/2000/svg"><path d="M5.697 3.760 C 5.497 3.780,5.231 3.834,5.105 3.882 C 4.652 4.051,3.919 4.755,3.779 5.155 C 3.644 5.540,3.605 8.363,3.726 9.000 C 3.781 9.294,3.912 9.509,4.254 9.870 C 4.619 10.255,4.989 10.535,5.270 10.640 C 5.595 10.762,6.431 10.814,7.580 10.786 C 9.177 10.746,9.256 10.719,10.023 9.948 C 10.456 9.513,10.560 9.385,10.614 9.222 C 10.722 8.901,10.772 8.176,10.776 6.900 C 10.780 5.826,10.772 5.673,10.703 5.445 C 10.487 4.727,9.677 3.945,9.000 3.802 C 8.723 3.743,6.197 3.711,5.697 3.760 M14.604 3.910 C 14.120 4.196,13.641 4.704,13.342 5.249 L 13.197 5.513 13.208 7.227 L 13.220 8.941 13.400 9.260 C 13.658 9.717,14.300 10.355,14.760 10.611 L 15.100 10.800 16.820 10.800 L 18.540 10.800 18.915 10.555 C 19.545 10.142,20.021 9.638,20.295 9.091 L 20.400 8.883 20.400 7.164 L 20.400 5.445 20.156 5.081 C 19.843 4.612,19.538 4.284,19.147 3.993 L 18.833 3.760 16.846 3.760 L 14.858 3.760 14.604 3.910 M5.004 13.510 C 4.520 13.796,4.041 14.304,3.742 14.849 L 3.597 15.113 3.608 16.827 L 3.620 18.541 3.800 18.860 C 4.058 19.317,4.700 19.955,5.160 20.211 L 5.500 20.400 7.220 20.400 L 8.940 20.400 9.315 20.155 C 9.945 19.742,10.421 19.238,10.695 18.691 L 10.800 18.483 10.800 16.764 L 10.800 15.045 10.556 14.681 C 10.243 14.212,9.938 13.884,9.547 13.593 L 9.233 13.360 7.246 13.360 L 5.258 13.360 5.004 13.510 M14.604 13.510 C 14.120 13.796,13.641 14.304,13.342 14.849 L 13.197 15.113 13.208 16.827 L 13.220 18.541 13.400 18.860 C 13.658 19.317,14.300 19.955,14.760 20.211 L 15.100 20.400 16.820 20.400 L 18.540 20.400 18.915 20.155 C 19.545 19.742,20.021 19.238,20.295 18.691 L 20.400 18.483 20.400 16.764 L 20.400 15.045 20.156 14.681 C 19.843 14.212,19.538 13.884,19.147 13.593 L 18.833 13.360 16.846 13.360 L 14.858 13.360 14.604 13.510 " fill="#373B4D" stroke="none" fill-rule="evenodd"></path></svg>