<svg width="24" height="24" viewBox="0 0 24 24" fill="none" xmlns="http://www.w3.org/2000/svg"><path d="M4.685 3.682 C 3.461 3.726,3.321 3.745,2.999 3.906 C 2.703 4.054,2.598 4.166,2.520 4.420 C 2.359 4.941,2.367 19.264,2.528 19.579 C 2.626 19.769,2.905 20.091,3.088 20.226 L 3.285 20.370 4.712 20.349 C 6.457 20.324,6.424 20.331,6.888 19.888 L 7.211 19.580 7.192 12.052 L 7.173 4.524 7.072 4.372 C 7.017 4.288,6.850 4.090,6.702 3.930 L 6.433 3.640 5.966 3.646 C 5.710 3.650,5.133 3.666,4.685 3.682 M11.360 3.761 C 10.887 3.776,10.423 3.810,10.329 3.836 C 10.210 3.869,10.073 3.964,9.879 4.147 L 9.600 4.410 9.600 11.978 L 9.600 19.547 9.746 19.734 C 9.827 19.838,10.019 20.030,10.174 20.161 L 10.456 20.400 12.025 20.400 L 13.595 20.400 13.887 20.079 C 14.361 19.559,14.322 19.762,14.362 17.610 C 14.381 16.582,14.397 13.193,14.398 10.081 L 14.400 4.422 14.051 4.071 L 13.702 3.720 12.961 3.727 C 12.553 3.730,11.833 3.746,11.360 3.761 M18.560 3.761 C 18.087 3.776,17.623 3.810,17.529 3.836 C 17.410 3.869,17.273 3.964,17.079 4.147 L 16.800 4.410 16.800 11.978 L 16.800 19.547 16.946 19.734 C 17.027 19.838,17.219 20.030,17.374 20.161 L 17.656 20.400 19.225 20.400 L 20.795 20.400 21.087 20.079 C 21.561 19.559,21.522 19.762,21.562 17.610 C 21.581 16.582,21.597 13.193,21.598 10.081 L 21.600 4.422 21.251 4.071 L 20.902 3.720 20.161 3.727 C 19.753 3.730,19.033 3.746,18.560 3.761 " fill="#373B4D" stroke="none" fill-rule="evenodd"></path></svg>