<svg width="24" height="24" viewBox="0 0 24 24" fill="none" xmlns="http://www.w3.org/2000/svg"><path d="M8.420 3.678 L 4.380 3.700 4.235 3.790 C 4.038 3.913,3.778 4.201,3.697 4.387 C 3.588 4.637,3.605 4.987,3.739 5.262 C 3.881 5.551,4.142 5.818,4.346 5.883 C 4.563 5.951,8.084 5.991,14.373 5.996 L 19.526 6.000 19.693 5.885 C 19.983 5.685,20.228 5.391,20.297 5.158 C 20.459 4.612,20.299 4.191,19.786 3.813 L 19.551 3.640 16.006 3.648 C 14.056 3.653,10.642 3.666,8.420 3.678 M8.420 8.478 L 4.380 8.500 4.235 8.590 C 4.038 8.713,3.778 9.001,3.697 9.187 C 3.588 9.437,3.605 9.787,3.739 10.062 C 3.881 10.351,4.142 10.618,4.346 10.683 C 4.563 10.751,8.084 10.791,14.373 10.796 L 19.526 10.800 19.693 10.685 C 19.983 10.485,20.228 10.191,20.297 9.958 C 20.459 9.412,20.299 8.991,19.786 8.613 L 19.551 8.440 16.006 8.448 C 14.056 8.453,10.642 8.466,8.420 8.478 M8.420 13.278 L 4.380 13.300 4.235 13.390 C 4.038 13.513,3.778 13.801,3.697 13.987 C 3.588 14.237,3.605 14.587,3.739 14.862 C 3.881 15.151,4.142 15.418,4.346 15.483 C 4.563 15.551,8.084 15.591,14.373 15.596 L 19.526 15.600 19.693 15.485 C 19.983 15.285,20.228 14.991,20.297 14.758 C 20.459 14.212,20.299 13.791,19.786 13.413 L 19.551 13.240 16.006 13.248 C 14.056 13.253,10.642 13.266,8.420 13.278 M8.420 18.078 L 4.380 18.100 4.235 18.190 C 4.038 18.313,3.778 18.601,3.697 18.787 C 3.588 19.037,3.605 19.387,3.739 19.662 C 3.881 19.951,4.142 20.218,4.346 20.283 C 4.563 20.351,8.084 20.391,14.373 20.396 L 19.526 20.400 19.693 20.285 C 19.983 20.085,20.228 19.791,20.297 19.558 C 20.459 19.012,20.299 18.591,19.786 18.213 L 19.551 18.040 16.006 18.048 C 14.056 18.053,10.642 18.066,8.420 18.078 " fill="#373B4D" stroke="none" fill-rule="evenodd"></path></svg>