<svg width="24" height="24" viewBox="0 0 24 24" fill="none" xmlns="http://www.w3.org/2000/svg"><path d="M5.760 3.641 C 5.182 3.686,4.775 3.877,4.325 4.316 C 4.054 4.579,3.834 4.930,3.717 5.285 C 3.621 5.578,3.620 5.593,3.620 7.200 C 3.620 8.967,3.625 9.015,3.869 9.498 C 4.002 9.762,4.638 10.398,4.902 10.531 C 5.385 10.775,5.433 10.780,7.200 10.780 C 8.967 10.780,9.015 10.775,9.498 10.531 C 9.762 10.398,10.398 9.762,10.531 9.498 C 10.775 9.015,10.780 8.967,10.780 7.200 C 10.780 5.593,10.779 5.578,10.683 5.285 C 10.457 4.599,9.842 3.967,9.180 3.740 C 9.070 3.702,8.791 3.656,8.560 3.638 C 8.059 3.598,6.295 3.600,5.760 3.641 M15.640 3.642 C 15.210 3.659,14.967 3.687,14.847 3.733 C 14.114 4.013,13.614 4.511,13.336 5.240 L 13.222 5.540 13.221 7.160 C 13.220 8.621,13.227 8.804,13.294 9.020 C 13.409 9.398,13.627 9.774,13.879 10.032 C 14.186 10.348,14.419 10.502,14.813 10.653 L 15.140 10.778 16.800 10.778 L 18.460 10.777 18.760 10.663 C 19.487 10.387,19.988 9.886,20.263 9.160 L 20.377 8.860 20.377 7.200 L 20.377 5.540 20.263 5.240 C 20.113 4.844,19.937 4.577,19.634 4.280 C 19.351 4.005,18.794 3.699,18.511 3.664 C 18.238 3.631,16.318 3.616,15.640 3.642 M6.040 13.242 C 5.610 13.259,5.367 13.287,5.247 13.333 C 4.514 13.613,4.014 14.111,3.736 14.840 L 3.622 15.140 3.621 16.760 C 3.620 18.221,3.627 18.404,3.694 18.620 C 3.809 18.998,4.027 19.374,4.279 19.632 C 4.587 19.948,4.819 20.102,5.213 20.252 L 5.540 20.377 7.200 20.377 L 8.860 20.377 9.160 20.263 C 9.887 19.987,10.388 19.486,10.663 18.760 L 10.777 18.460 10.777 16.800 L 10.778 15.140 10.664 14.840 C 10.513 14.444,10.337 14.176,10.034 13.880 C 9.751 13.605,9.194 13.299,8.911 13.264 C 8.638 13.231,6.718 13.216,6.040 13.242 M16.580 13.239 C 16.339 13.278,16.111 13.414,15.914 13.633 C 15.660 13.916,15.631 14.031,15.611 14.864 L 15.593 15.588 14.866 15.613 C 14.467 15.626,14.070 15.657,13.984 15.682 C 13.783 15.740,13.412 16.087,13.312 16.311 C 13.207 16.546,13.207 17.054,13.312 17.290 C 13.410 17.510,13.783 17.859,13.984 17.921 C 14.070 17.947,14.466 17.978,14.865 17.989 L 15.591 18.010 15.607 18.755 C 15.626 19.621,15.661 19.739,16.003 20.058 C 16.250 20.290,16.429 20.366,16.738 20.374 C 17.099 20.383,17.333 20.299,17.581 20.072 C 17.940 19.744,17.976 19.628,17.994 18.754 L 18.008 18.008 18.754 17.994 C 19.628 17.976,19.744 17.940,20.072 17.581 C 20.603 17.000,20.424 16.097,19.707 15.733 C 19.517 15.637,19.458 15.629,18.756 15.610 L 18.008 15.588 17.993 14.844 C 17.979 14.151,17.972 14.087,17.881 13.907 C 17.639 13.429,17.101 13.153,16.580 13.239 " fill="#373B4D" stroke="none" fill-rule="evenodd"></path></svg>