<svg width="24" height="24" viewBox="0 0 24 24" fill="none" xmlns="http://www.w3.org/2000/svg"><path d="M9.497 3.678 L 4.374 3.700 4.208 3.810 C 4.005 3.944,3.743 4.268,3.678 4.465 C 3.604 4.692,3.650 5.075,3.782 5.317 C 3.926 5.582,4.189 5.823,4.393 5.878 C 4.654 5.948,8.780 5.998,14.380 5.999 L 19.540 6.000 19.767 5.822 C 19.891 5.724,20.051 5.560,20.122 5.457 C 20.528 4.866,20.404 4.313,19.749 3.795 L 19.553 3.640 17.086 3.648 C 15.730 3.653,12.315 3.666,9.497 3.678 M9.497 8.478 L 4.374 8.500 4.208 8.610 C 4.005 8.744,3.743 9.068,3.678 9.265 C 3.604 9.492,3.650 9.875,3.782 10.117 C 3.926 10.382,4.189 10.623,4.393 10.678 C 4.654 10.748,8.780 10.798,14.380 10.799 L 19.540 10.800 19.767 10.622 C 19.891 10.524,20.051 10.360,20.122 10.257 C 20.528 9.666,20.404 9.113,19.749 8.595 L 19.553 8.440 17.086 8.448 C 15.730 8.453,12.315 8.466,9.497 8.478 M9.497 13.278 L 4.374 13.300 4.208 13.410 C 4.005 13.544,3.743 13.868,3.678 14.065 C 3.604 14.292,3.650 14.675,3.782 14.917 C 3.926 15.182,4.189 15.423,4.393 15.478 C 4.654 15.548,8.780 15.598,14.380 15.599 L 19.540 15.600 19.767 15.422 C 19.891 15.324,20.051 15.160,20.122 15.057 C 20.528 14.466,20.404 13.913,19.749 13.395 L 19.553 13.240 17.086 13.248 C 15.730 13.253,12.315 13.266,9.497 13.278 M9.497 18.078 L 4.374 18.100 4.208 18.210 C 4.005 18.344,3.743 18.668,3.678 18.865 C 3.604 19.092,3.650 19.475,3.782 19.717 C 3.926 19.982,4.189 20.223,4.393 20.278 C 4.654 20.348,8.780 20.398,14.380 20.399 L 19.540 20.400 19.767 20.222 C 19.891 20.124,20.051 19.960,20.122 19.857 C 20.528 19.266,20.404 18.713,19.749 18.195 L 19.553 18.040 17.086 18.048 C 15.730 18.053,12.315 18.066,9.497 18.078 " fill="#373B4D" stroke="none" fill-rule="evenodd"></path></svg>