<svg width="24" height="24" viewBox="0 0 24 24" fill="none" xmlns="http://www.w3.org/2000/svg"><path d="M3.940 3.680 C 3.123 3.712,3.011 3.745,2.713 4.052 C 2.403 4.369,2.429 3.827,2.410 10.440 C 2.391 16.817,2.427 19.501,2.532 19.705 C 2.617 19.868,3.010 20.231,3.190 20.311 C 3.322 20.370,3.517 20.377,4.787 20.375 C 6.533 20.373,6.456 20.390,6.899 19.907 L 7.199 19.580 7.195 13.900 C 7.193 10.776,7.180 7.364,7.166 6.317 L 7.140 4.414 7.030 4.248 C 6.970 4.157,6.800 3.982,6.652 3.861 L 6.384 3.640 5.522 3.646 C 5.048 3.650,4.336 3.665,3.940 3.680 M10.780 3.718 C 10.560 3.733,10.331 3.766,10.272 3.791 C 10.125 3.853,9.858 4.100,9.717 4.305 L 9.600 4.474 9.605 10.487 C 9.608 13.794,9.621 17.205,9.635 18.066 L 9.660 19.632 9.824 19.826 C 9.914 19.933,10.094 20.106,10.224 20.212 L 10.460 20.403 11.985 20.392 L 13.510 20.380 13.738 20.223 C 13.974 20.061,14.206 19.818,14.303 19.632 C 14.351 19.540,14.364 18.385,14.387 12.071 C 14.401 7.972,14.401 4.570,14.386 4.511 C 14.350 4.364,14.012 3.967,13.800 3.820 L 13.627 3.700 12.403 3.695 C 11.731 3.692,11.000 3.702,10.780 3.718 M17.980 3.718 C 17.760 3.733,17.531 3.766,17.472 3.791 C 17.325 3.853,17.058 4.100,16.917 4.305 L 16.800 4.474 16.805 10.487 C 16.808 13.794,16.821 17.205,16.835 18.066 L 16.860 19.632 17.024 19.826 C 17.114 19.933,17.294 20.106,17.424 20.212 L 17.660 20.403 19.185 20.392 L 20.710 20.380 20.938 20.223 C 21.174 20.061,21.406 19.818,21.503 19.632 C 21.551 19.540,21.564 18.385,21.587 12.071 C 21.601 7.972,21.601 4.570,21.586 4.511 C 21.550 4.364,21.212 3.967,21.000 3.820 L 20.827 3.700 19.603 3.695 C 18.931 3.692,18.200 3.702,17.980 3.718 " fill="#373B4D" stroke="none" fill-rule="evenodd"></path></svg>