<svg width="24" height="24" viewBox="0 0 24 24" fill="none" xmlns="http://www.w3.org/2000/svg"><path d="M4.100 3.682 C 3.197 3.714,3.053 3.748,2.783 3.986 C 2.478 4.255,2.472 4.280,2.436 5.499 C 2.419 6.093,2.404 8.929,2.404 11.800 C 2.403 16.661,2.437 19.265,2.505 19.600 C 2.539 19.770,2.973 20.216,3.194 20.308 C 3.315 20.359,3.574 20.369,4.744 20.366 C 5.687 20.365,6.214 20.348,6.345 20.316 C 6.511 20.275,6.588 20.219,6.870 19.928 L 7.200 19.587 7.200 14.204 C 7.200 11.243,7.188 7.833,7.173 6.627 L 7.147 4.434 7.030 4.257 C 6.965 4.159,6.793 3.981,6.647 3.860 L 6.383 3.640 5.641 3.647 C 5.234 3.650,4.540 3.666,4.100 3.682 M11.140 3.716 C 10.315 3.746,10.259 3.760,9.978 4.007 C 9.900 4.076,9.780 4.213,9.713 4.311 L 9.590 4.489 9.607 12.038 L 9.624 19.587 9.782 19.780 C 9.869 19.887,10.056 20.070,10.198 20.187 L 10.456 20.400 11.978 20.400 L 13.500 20.399 13.768 20.198 C 14.159 19.904,14.292 19.719,14.327 19.423 C 14.342 19.289,14.367 15.877,14.383 11.840 L 14.411 4.500 14.227 4.257 C 14.126 4.123,13.958 3.947,13.855 3.867 L 13.667 3.720 13.163 3.720 C 12.887 3.720,12.489 3.713,12.280 3.704 C 12.071 3.696,11.558 3.701,11.140 3.716 M18.340 3.716 C 17.515 3.746,17.459 3.760,17.178 4.007 C 17.100 4.076,16.980 4.213,16.913 4.311 L 16.790 4.489 16.807 12.038 L 16.824 19.587 16.982 19.780 C 17.069 19.887,17.256 20.070,17.398 20.187 L 17.656 20.400 19.178 20.400 L 20.700 20.399 20.968 20.198 C 21.359 19.904,21.492 19.719,21.527 19.423 C 21.542 19.289,21.567 15.877,21.583 11.840 L 21.611 4.500 21.427 4.257 C 21.326 4.123,21.158 3.947,21.055 3.867 L 20.867 3.720 20.363 3.720 C 20.087 3.720,19.689 3.713,19.480 3.704 C 19.271 3.696,18.758 3.701,18.340 3.716 " fill="#373B4D" stroke="none" fill-rule="evenodd"></path></svg>