<svg width="24" height="24" viewBox="0 0 24 24" fill="none" xmlns="http://www.w3.org/2000/svg"><path d="M5.960 3.681 C 5.338 3.709,5.199 3.743,4.805 3.969 C 4.501 4.142,4.049 4.605,3.890 4.905 C 3.637 5.385,3.623 5.501,3.621 7.120 C 3.620 8.733,3.647 9.019,3.837 9.393 C 4.073 9.856,4.594 10.359,5.078 10.593 C 5.344 10.721,5.425 10.740,5.818 10.766 C 6.389 10.803,8.013 10.803,8.586 10.765 C 8.992 10.739,9.060 10.723,9.346 10.582 C 9.753 10.382,10.364 9.791,10.554 9.413 C 10.754 9.014,10.780 8.749,10.779 7.080 L 10.779 5.580 10.670 5.284 C 10.610 5.121,10.507 4.904,10.441 4.801 C 10.325 4.621,9.932 4.210,9.714 4.042 C 9.525 3.897,9.114 3.725,8.904 3.704 C 8.559 3.669,6.573 3.654,5.960 3.681 M14.954 3.716 C 14.719 3.764,14.206 4.081,13.940 4.343 C 13.668 4.609,13.470 4.918,13.303 5.336 L 13.194 5.608 13.207 7.234 L 13.220 8.860 13.353 9.168 C 13.518 9.550,13.814 9.977,14.067 10.196 C 14.173 10.288,14.447 10.457,14.676 10.572 L 15.091 10.780 16.796 10.780 L 18.500 10.780 18.850 10.613 C 19.502 10.301,19.901 9.902,20.213 9.250 L 20.380 8.900 20.380 7.200 L 20.380 5.500 20.216 5.160 C 19.920 4.545,19.552 4.156,18.981 3.850 L 18.700 3.700 16.900 3.693 C 15.910 3.690,15.034 3.700,14.954 3.716 M16.489 13.277 C 16.226 13.343,15.890 13.625,15.753 13.894 C 15.660 14.076,15.602 14.564,15.601 15.165 L 15.600 15.590 15.030 15.617 C 13.982 15.668,13.724 15.750,13.461 16.113 C 13.280 16.362,13.223 16.580,13.252 16.919 C 13.281 17.263,13.333 17.364,13.628 17.645 C 13.921 17.925,14.053 17.959,14.950 17.989 L 15.600 18.011 15.600 18.508 C 15.600 19.044,15.653 19.487,15.745 19.705 C 15.815 19.874,16.082 20.138,16.298 20.253 C 16.535 20.379,17.070 20.376,17.312 20.248 C 17.514 20.140,17.770 19.894,17.860 19.720 C 17.943 19.560,17.999 19.059,18.000 18.476 L 18.000 18.013 18.710 17.987 C 19.101 17.973,19.492 17.941,19.580 17.917 C 19.816 17.852,20.206 17.442,20.299 17.163 C 20.480 16.619,20.221 16.012,19.702 15.761 C 19.542 15.683,19.408 15.664,18.763 15.628 L 18.010 15.585 17.989 14.883 C 17.977 14.496,17.948 14.119,17.924 14.043 C 17.825 13.726,17.489 13.408,17.162 13.321 C 16.936 13.262,16.631 13.242,16.489 13.277 M5.354 13.316 C 5.119 13.364,4.606 13.681,4.340 13.943 C 4.068 14.209,3.870 14.518,3.703 14.936 L 3.594 15.208 3.607 16.834 L 3.620 18.460 3.753 18.768 C 3.918 19.150,4.214 19.577,4.467 19.796 C 4.573 19.888,4.847 20.057,5.076 20.172 L 5.491 20.380 7.196 20.380 L 8.900 20.380 9.250 20.213 C 9.902 19.901,10.301 19.502,10.613 18.850 L 10.780 18.500 10.780 16.800 L 10.780 15.100 10.616 14.760 C 10.320 14.145,9.952 13.756,9.381 13.450 L 9.100 13.300 7.300 13.293 C 6.310 13.290,5.434 13.300,5.354 13.316 " fill="#373B4D" stroke="none" fill-rule="evenodd"></path></svg>