<svg width="24" height="24" viewBox="0 0 24 24" fill="none" xmlns="http://www.w3.org/2000/svg"><path d="M4.980 3.634 C 4.451 3.659,4.408 3.667,4.200 3.784 C 3.667 4.085,3.460 4.737,3.721 5.293 C 3.845 5.557,4.127 5.822,4.388 5.920 C 4.603 6.000,4.660 6.001,12.052 5.990 L 19.500 5.980 19.688 5.887 C 20.585 5.445,20.630 4.227,19.765 3.766 L 19.523 3.637 12.531 3.622 C 8.686 3.615,5.288 3.620,4.980 3.634 M4.980 8.434 C 4.451 8.459,4.408 8.467,4.200 8.584 C 3.667 8.885,3.460 9.537,3.721 10.093 C 3.845 10.357,4.127 10.622,4.388 10.720 C 4.603 10.800,4.660 10.801,12.052 10.790 L 19.500 10.780 19.688 10.687 C 20.585 10.245,20.630 9.027,19.765 8.566 L 19.523 8.437 12.531 8.422 C 8.686 8.415,5.288 8.420,4.980 8.434 M4.980 13.234 C 4.451 13.259,4.408 13.267,4.200 13.384 C 3.667 13.685,3.460 14.337,3.721 14.893 C 3.845 15.157,4.127 15.422,4.388 15.520 C 4.603 15.600,4.660 15.601,12.052 15.590 L 19.500 15.580 19.688 15.487 C 20.585 15.045,20.630 13.827,19.765 13.366 L 19.523 13.237 12.531 13.222 C 8.686 13.215,5.288 13.220,4.980 13.234 M4.980 18.034 C 4.451 18.059,4.408 18.067,4.200 18.184 C 3.667 18.485,3.460 19.137,3.721 19.693 C 3.845 19.957,4.127 20.222,4.388 20.320 C 4.603 20.400,4.660 20.401,12.052 20.390 L 19.500 20.380 19.688 20.287 C 20.585 19.845,20.630 18.627,19.765 18.166 L 19.523 18.037 12.531 18.022 C 8.686 18.015,5.288 18.020,4.980 18.034 " fill="#373B4D" stroke="none" fill-rule="evenodd"></path></svg>