<svg width="24" height="24" viewBox="0 0 24 24" fill="none" xmlns="http://www.w3.org/2000/svg"><path d="M5.697 3.760 C 5.497 3.780,5.231 3.834,5.105 3.882 C 4.652 4.051,3.919 4.755,3.779 5.155 C 3.644 5.540,3.605 8.363,3.726 9.000 C 3.781 9.294,3.912 9.509,4.254 9.870 C 4.619 10.255,4.989 10.535,5.270 10.640 C 5.595 10.762,6.431 10.814,7.580 10.786 C 9.177 10.746,9.256 10.719,10.023 9.948 C 10.456 9.513,10.560 9.385,10.614 9.222 C 10.722 8.901,10.772 8.176,10.776 6.900 C 10.780 5.826,10.772 5.673,10.703 5.445 C 10.487 4.727,9.677 3.945,9.000 3.802 C 8.723 3.743,6.197 3.711,5.697 3.760 M14.604 3.910 C 14.120 4.196,13.641 4.704,13.342 5.249 L 13.197 5.513 13.208 7.227 L 13.220 8.941 13.400 9.260 C 13.658 9.717,14.300 10.355,14.760 10.611 L 15.100 10.800 16.820 10.800 L 18.540 10.800 18.915 10.555 C 19.545 10.142,20.021 9.638,20.295 9.091 L 20.400 8.883 20.400 7.164 L 20.400 5.445 20.156 5.081 C 19.843 4.612,19.538 4.284,19.147 3.993 L 18.833 3.760 16.846 3.760 L 14.858 3.760 14.604 3.910 M5.004 13.510 C 4.520 13.796,4.041 14.304,3.742 14.849 L 3.597 15.113 3.608 16.827 L 3.620 18.541 3.800 18.860 C 4.058 19.317,4.700 19.955,5.160 20.211 L 5.500 20.400 7.220 20.400 L 8.940 20.400 9.315 20.155 C 9.945 19.742,10.421 19.238,10.695 18.691 L 10.800 18.483 10.800 16.764 L 10.800 15.045 10.556 14.681 C 10.243 14.212,9.938 13.884,9.547 13.593 L 9.233 13.360 7.246 13.360 L 5.258 13.360 5.004 13.510 M16.260 13.435 C 15.794 13.746,15.652 14.060,15.617 14.860 C 15.605 15.124,15.587 15.396,15.577 15.465 L 15.558 15.590 15.229 15.618 C 14.759 15.658,14.037 15.786,13.843 15.863 C 13.613 15.955,13.426 16.191,13.320 16.521 C 13.196 16.907,13.259 17.180,13.549 17.505 C 13.858 17.851,14.163 17.951,15.024 17.987 L 15.589 18.011 15.613 18.576 C 15.640 19.212,15.700 19.510,15.853 19.772 C 16.070 20.143,16.336 20.284,16.818 20.288 C 17.207 20.291,17.370 20.228,17.584 19.991 C 17.867 19.678,17.996 19.192,17.999 18.435 L 18.000 18.010 18.590 17.990 C 19.369 17.964,19.644 17.882,19.938 17.587 C 20.333 17.190,20.425 16.796,20.221 16.378 C 20.103 16.138,19.901 15.943,19.662 15.837 C 19.503 15.767,18.923 15.673,18.310 15.618 L 18.000 15.591 17.999 15.205 C 17.996 14.420,17.887 13.942,17.656 13.704 C 17.418 13.459,17.234 13.389,16.780 13.371 C 16.430 13.357,16.365 13.365,16.260 13.435 " fill="#373B4D" stroke="none" fill-rule="evenodd"></path></svg>