<svg width="24" height="24" viewBox="0 0 24 24" fill="none" xmlns="http://www.w3.org/2000/svg"><path d="M6.000 3.721 C 5.659 3.736,5.306 3.769,5.217 3.794 C 4.956 3.867,4.606 4.120,4.247 4.496 C 3.652 5.119,3.628 5.236,3.648 7.391 C 3.663 8.880,3.667 8.949,3.752 9.164 C 3.880 9.485,4.046 9.718,4.380 10.048 C 4.707 10.370,5.077 10.612,5.379 10.702 C 5.652 10.783,7.275 10.820,8.240 10.768 C 9.165 10.717,9.289 10.677,9.750 10.271 C 10.105 9.958,10.488 9.539,10.576 9.367 C 10.717 9.089,10.797 8.104,10.799 6.595 C 10.800 5.680,10.771 5.486,10.574 5.080 C 10.382 4.683,9.791 4.085,9.396 3.887 C 9.147 3.762,9.099 3.752,8.516 3.718 C 7.831 3.679,6.935 3.679,6.000 3.721 M14.954 3.753 C 14.489 3.809,13.739 4.477,13.390 5.146 L 13.200 5.510 13.200 7.196 C 13.200 9.096,13.168 8.878,13.535 9.499 C 13.846 10.026,14.213 10.345,14.909 10.695 L 15.117 10.800 16.800 10.800 L 18.482 10.800 18.731 10.675 C 19.408 10.336,19.932 9.812,20.275 9.131 L 20.400 8.882 20.399 7.191 L 20.399 5.500 20.229 5.191 C 19.882 4.556,19.566 4.214,19.026 3.887 L 18.806 3.754 16.993 3.740 C 15.996 3.732,15.078 3.738,14.954 3.753 M5.354 13.353 C 4.889 13.409,4.139 14.077,3.790 14.746 L 3.600 15.110 3.600 16.796 C 3.600 18.696,3.568 18.478,3.935 19.099 C 4.246 19.626,4.613 19.945,5.309 20.295 L 5.517 20.400 7.200 20.400 L 8.882 20.400 9.131 20.275 C 9.808 19.936,10.332 19.412,10.675 18.731 L 10.800 18.482 10.799 16.791 L 10.799 15.100 10.629 14.791 C 10.282 14.156,9.966 13.814,9.426 13.487 L 9.206 13.354 7.393 13.340 C 6.396 13.332,5.478 13.338,5.354 13.353 M14.954 13.353 C 14.489 13.409,13.739 14.077,13.390 14.746 L 13.200 15.110 13.200 16.796 C 13.200 18.696,13.168 18.478,13.535 19.099 C 13.846 19.626,14.213 19.945,14.909 20.295 L 15.117 20.400 16.800 20.400 L 18.482 20.400 18.731 20.275 C 19.408 19.936,19.932 19.412,20.275 18.731 L 20.400 18.482 20.399 16.791 L 20.399 15.100 20.229 14.791 C 19.882 14.156,19.566 13.814,19.026 13.487 L 18.806 13.354 16.993 13.340 C 15.996 13.332,15.078 13.338,14.954 13.353 " fill="#373B4D" stroke="none" fill-rule="evenodd"></path></svg>