<svg width="24" height="24" viewBox="0 0 24 24" fill="none" xmlns="http://www.w3.org/2000/svg"><path d="M17.120 4.185 C 16.172 4.465,15.454 4.901,14.779 5.606 C 14.384 6.019,14.119 6.388,13.897 6.836 C 13.724 7.184,13.383 8.132,13.407 8.198 C 13.414 8.218,13.579 8.173,13.773 8.097 C 14.201 7.932,14.562 7.868,14.811 7.914 C 15.193 7.986,15.507 8.267,15.644 8.660 C 15.719 8.876,15.707 9.631,15.623 9.965 C 15.497 10.464,14.566 12.183,13.986 12.988 C 13.475 13.698,13.073 14.080,12.837 14.080 C 12.593 14.080,12.345 13.638,12.006 12.597 C 11.625 11.431,11.413 10.507,11.063 8.500 C 10.719 6.522,10.547 5.851,10.215 5.187 C 9.954 4.666,9.532 4.282,9.126 4.196 C 8.839 4.135,8.198 4.200,7.880 4.322 C 7.280 4.553,6.328 5.138,5.600 5.722 C 5.172 6.066,3.665 7.521,3.232 8.009 L 2.994 8.278 3.294 8.669 C 3.458 8.884,3.638 9.102,3.693 9.153 C 3.807 9.260,3.776 9.271,4.308 8.952 C 4.489 8.844,4.736 8.720,4.857 8.678 C 5.096 8.594,5.490 8.575,5.660 8.640 C 5.882 8.724,6.155 9.502,7.564 14.060 C 8.738 17.856,8.872 18.218,9.302 18.732 C 10.188 19.792,11.221 20.212,12.083 19.862 C 12.413 19.728,13.114 19.256,13.660 18.801 C 17.230 15.825,19.884 12.021,20.717 8.685 C 20.894 7.978,20.960 7.474,20.960 6.832 C 20.960 5.843,20.785 5.371,20.205 4.799 C 19.814 4.413,19.442 4.193,19.063 4.124 C 18.932 4.100,18.518 4.081,18.143 4.082 C 17.534 4.084,17.423 4.095,17.120 4.185 " fill="#373B4D" stroke="none" fill-rule="evenodd"></path></svg>