<svg width="24" height="24" viewBox="0 0 24 24" fill="none" xmlns="http://www.w3.org/2000/svg"><path d="M16.940 4.242 C 16.490 4.396,15.926 4.690,15.516 4.985 C 14.901 5.428,14.265 6.143,13.955 6.740 C 13.743 7.148,13.355 8.200,13.417 8.200 C 13.427 8.200,13.576 8.156,13.748 8.102 C 14.172 7.969,14.572 7.905,14.791 7.935 C 15.149 7.984,15.489 8.274,15.624 8.646 C 15.675 8.784,15.683 8.919,15.665 9.302 C 15.653 9.568,15.622 9.880,15.597 9.996 C 15.572 10.112,15.386 10.534,15.184 10.934 C 14.417 12.445,13.540 13.701,13.050 13.988 C 12.902 14.075,12.862 14.082,12.767 14.043 C 12.460 13.916,12.031 12.873,11.647 11.320 C 11.480 10.645,11.287 9.698,10.999 8.140 C 10.910 7.656,10.791 7.053,10.735 6.800 C 10.417 5.372,9.986 4.595,9.346 4.297 C 9.094 4.179,8.639 4.166,8.168 4.264 C 7.562 4.389,6.291 5.141,5.417 5.892 C 4.900 6.338,3.556 7.639,3.226 8.015 L 2.993 8.280 3.124 8.450 C 3.492 8.928,3.694 9.159,3.761 9.180 C 3.810 9.196,4.018 9.110,4.348 8.940 C 4.724 8.746,4.929 8.665,5.120 8.636 C 5.600 8.561,5.751 8.654,5.956 9.150 C 6.135 9.584,6.871 11.833,7.635 14.280 C 8.745 17.835,8.909 18.265,9.355 18.778 C 10.190 19.741,11.232 20.174,12.006 19.882 C 12.985 19.513,15.166 17.606,16.831 15.662 C 18.760 13.410,20.189 10.824,20.735 8.597 C 20.902 7.912,20.937 7.616,20.939 6.860 C 20.940 6.215,20.930 6.109,20.846 5.840 C 20.795 5.675,20.691 5.438,20.616 5.314 C 20.410 4.973,19.861 4.475,19.492 4.292 L 19.185 4.140 18.242 4.129 L 17.300 4.119 16.940 4.242 " fill="#373B4D" stroke="none" fill-rule="evenodd"></path></svg>