<svg width="24" height="24" viewBox="0 0 24 24" fill="none" xmlns="http://www.w3.org/2000/svg"><path d="M17.580 4.081 C 17.014 4.135,16.022 4.560,15.431 5.003 C 14.837 5.448,14.256 6.128,13.919 6.773 C 13.735 7.124,13.367 8.180,13.412 8.225 C 13.424 8.237,13.581 8.181,13.762 8.099 C 14.523 7.756,15.125 7.836,15.481 8.328 C 15.674 8.595,15.735 8.870,15.706 9.344 C 15.670 9.930,15.626 10.088,15.324 10.705 C 14.614 12.155,13.694 13.536,13.186 13.918 C 12.804 14.205,12.655 14.143,12.370 13.580 C 12.173 13.191,11.807 12.055,11.565 11.080 C 11.449 10.612,11.248 9.598,11.099 8.720 C 10.799 6.960,10.698 6.483,10.498 5.886 C 10.277 5.224,10.102 4.898,9.802 4.596 C 9.440 4.232,9.211 4.146,8.660 4.170 C 8.386 4.181,8.178 4.215,8.000 4.276 C 7.288 4.522,6.317 5.119,5.440 5.850 C 4.927 6.277,3.753 7.422,3.267 7.969 L 2.993 8.277 3.360 8.758 C 3.570 9.033,3.756 9.240,3.794 9.240 C 3.830 9.240,3.968 9.167,4.100 9.078 C 4.480 8.821,4.852 8.646,5.107 8.605 C 5.331 8.569,5.611 8.593,5.714 8.656 C 5.892 8.766,6.330 10.042,7.536 13.960 C 8.719 17.804,8.812 18.067,9.175 18.575 C 9.413 18.909,10.007 19.465,10.323 19.651 C 10.858 19.965,11.428 20.070,11.883 19.936 C 12.551 19.740,13.651 18.905,15.190 17.426 C 17.005 15.681,18.645 13.505,19.640 11.520 C 20.500 9.805,20.976 8.141,20.974 6.860 C 20.973 6.165,20.901 5.827,20.653 5.348 C 20.376 4.813,19.699 4.267,19.140 4.128 C 18.918 4.072,17.966 4.043,17.580 4.081 " fill="#373B4D" stroke="none" fill-rule="evenodd"></path></svg>