<svg width="24" height="24" viewBox="0 0 24 24" fill="none" xmlns="http://www.w3.org/2000/svg"><path d="M17.391 4.118 C 16.563 4.270,15.566 4.830,14.860 5.538 C 14.398 6.003,14.106 6.409,13.861 6.931 C 13.672 7.331,13.380 8.154,13.414 8.188 C 13.426 8.199,13.603 8.151,13.808 8.081 C 14.275 7.921,14.779 7.878,15.013 7.978 C 15.242 8.076,15.500 8.335,15.600 8.569 C 15.682 8.760,15.688 8.822,15.671 9.339 C 15.648 9.993,15.616 10.099,15.165 10.987 C 14.546 12.207,13.806 13.320,13.305 13.790 C 12.867 14.199,12.706 14.168,12.415 13.622 C 12.002 12.847,11.543 11.162,11.161 9.020 C 10.875 7.417,10.715 6.634,10.574 6.140 C 10.250 5.005,9.725 4.322,9.083 4.201 C 8.797 4.146,8.181 4.218,7.844 4.344 C 7.353 4.530,6.457 5.069,5.760 5.600 C 5.288 5.960,3.782 7.396,3.234 8.009 L 2.994 8.278 3.184 8.529 C 3.552 9.015,3.724 9.200,3.810 9.200 C 3.855 9.200,4.030 9.120,4.196 9.022 C 4.708 8.722,4.933 8.636,5.250 8.615 C 5.620 8.590,5.704 8.635,5.868 8.941 C 6.034 9.250,6.613 10.993,7.516 13.901 C 8.772 17.951,8.889 18.257,9.392 18.828 C 10.224 19.772,11.233 20.181,12.003 19.885 C 13.073 19.474,15.440 17.366,17.084 15.360 C 19.062 12.948,20.350 10.488,20.823 8.226 C 20.960 7.568,20.999 6.571,20.906 6.080 C 20.813 5.591,20.622 5.230,20.268 4.872 C 19.912 4.515,19.616 4.308,19.300 4.196 C 19.096 4.124,18.948 4.109,18.320 4.098 C 17.913 4.090,17.495 4.099,17.391 4.118 " fill="#373B4D" stroke="none" fill-rule="evenodd"></path></svg>