<svg width="24" height="24" viewBox="0 0 24 24" fill="none" xmlns="http://www.w3.org/2000/svg"><path d="M17.660 4.042 C 17.004 4.144,16.189 4.472,15.576 4.880 C 15.135 5.174,14.396 5.933,14.126 6.371 C 13.805 6.891,13.535 7.577,13.427 8.150 L 13.402 8.279 13.613 8.160 C 14.160 7.852,14.706 7.785,15.101 7.979 C 15.359 8.105,15.530 8.299,15.648 8.600 C 15.771 8.914,15.770 9.538,15.647 9.975 C 15.485 10.545,14.579 12.202,13.958 13.063 C 13.632 13.515,13.199 13.972,13.015 14.060 C 12.823 14.151,12.704 14.112,12.555 13.909 C 12.284 13.542,12.011 12.799,11.646 11.436 C 11.393 10.489,11.313 10.100,11.118 8.863 C 10.896 7.459,10.813 7.009,10.678 6.472 C 10.133 4.312,9.293 3.725,7.689 4.384 C 6.496 4.875,4.942 6.117,3.453 7.769 L 2.994 8.278 3.385 8.791 L 3.777 9.304 4.072 9.093 C 4.555 8.746,4.923 8.583,5.257 8.568 C 5.641 8.551,5.764 8.629,5.928 8.991 C 6.123 9.421,6.658 11.072,7.480 13.780 C 8.499 17.135,8.755 17.906,8.975 18.280 C 9.340 18.899,9.935 19.486,10.459 19.741 C 11.145 20.077,11.722 20.082,12.361 19.760 C 13.130 19.371,15.182 17.545,16.467 16.105 C 18.842 13.445,20.339 10.707,20.863 8.067 C 21.158 6.578,20.950 5.467,20.241 4.759 C 19.947 4.464,19.496 4.212,19.060 4.098 C 18.769 4.022,17.989 3.990,17.660 4.042 " fill="#373B4D" stroke="none" fill-rule="evenodd"></path></svg>