<svg width="24" height="24" viewBox="0 0 24 24" fill="none" xmlns="http://www.w3.org/2000/svg"><path d="M17.420 4.083 C 16.580 4.287,15.724 4.716,15.159 5.216 C 14.506 5.794,14.046 6.414,13.748 7.120 C 13.629 7.400,13.400 8.142,13.400 8.248 C 13.400 8.263,13.537 8.206,13.704 8.120 C 14.048 7.945,14.298 7.880,14.636 7.880 C 15.126 7.880,15.560 8.232,15.683 8.731 C 15.755 9.024,15.710 9.803,15.604 10.100 C 15.388 10.701,14.514 12.274,13.986 13.011 C 13.453 13.755,13.012 14.155,12.785 14.098 C 12.501 14.026,12.162 13.271,11.745 11.780 C 11.436 10.675,11.360 10.316,11.080 8.620 C 10.817 7.032,10.710 6.517,10.515 5.920 C 10.149 4.797,9.715 4.285,9.022 4.157 C 8.181 4.002,6.803 4.674,5.260 5.994 C 4.806 6.382,3.768 7.409,3.305 7.928 L 2.994 8.276 3.356 8.755 C 3.555 9.018,3.736 9.245,3.758 9.259 C 3.780 9.272,3.929 9.195,4.089 9.087 C 4.546 8.779,4.723 8.688,4.999 8.617 C 5.280 8.545,5.555 8.561,5.704 8.659 C 5.925 8.804,6.217 9.652,7.621 14.240 C 8.679 17.700,8.794 18.024,9.135 18.518 C 9.745 19.405,10.671 20.000,11.440 20.000 C 12.166 20.000,12.908 19.524,14.623 17.959 C 18.123 14.764,20.478 10.899,20.939 7.595 C 21.182 5.849,20.610 4.678,19.260 4.159 C 19.047 4.077,18.939 4.065,18.300 4.055 C 17.904 4.049,17.508 4.061,17.420 4.083 " fill="#373B4D" stroke="none" fill-rule="evenodd"></path></svg>