<svg width="24" height="24" viewBox="0 0 24 24" fill="none" xmlns="http://www.w3.org/2000/svg"><path d="M8.940 3.083 C 7.753 3.146,7.116 3.294,6.300 3.700 C 5.743 3.976,5.429 4.194,4.960 4.628 C 4.630 4.933,4.137 5.510,3.932 5.830 C 3.465 6.559,3.181 7.441,3.080 8.474 C 3.027 9.021,3.027 14.979,3.080 15.526 C 3.253 17.294,3.917 18.517,5.360 19.726 C 6.044 20.299,6.986 20.707,8.001 20.867 C 8.419 20.934,8.773 20.940,12.000 20.940 C 15.999 20.940,16.032 20.938,16.937 20.637 C 17.768 20.360,18.215 20.099,18.900 19.489 C 19.544 18.915,20.090 18.224,20.381 17.614 C 20.570 17.218,20.783 16.493,20.857 15.995 C 20.970 15.236,21.012 13.712,20.985 11.360 C 20.959 8.984,20.923 8.285,20.798 7.672 C 20.575 6.574,20.029 5.582,19.197 4.760 C 18.549 4.120,17.791 3.661,16.877 3.356 C 16.254 3.148,16.016 3.132,12.680 3.081 C 9.807 3.037,9.829 3.037,8.940 3.083 M12.368 9.085 C 12.485 9.110,12.646 9.163,12.727 9.204 C 12.869 9.276,12.887 9.303,12.934 9.520 C 12.946 9.575,12.976 10.277,13.001 11.080 C 13.038 12.325,13.055 12.557,13.112 12.656 C 13.271 12.928,13.433 12.898,13.687 12.551 C 13.989 12.139,14.396 11.390,14.800 10.503 C 15.009 10.045,15.228 9.618,15.286 9.555 L 15.392 9.440 16.266 9.440 C 16.747 9.440,17.317 9.452,17.534 9.467 L 17.928 9.493 17.913 9.759 C 17.895 10.088,17.726 10.441,16.937 11.800 C 16.263 12.961,16.040 13.380,16.040 13.483 C 16.040 13.622,16.224 13.926,16.582 14.380 C 17.819 15.948,18.046 16.361,17.863 16.714 C 17.832 16.775,17.756 16.847,17.695 16.875 C 17.395 17.012,15.806 17.032,15.447 16.903 C 15.209 16.818,15.054 16.677,14.405 15.953 C 14.096 15.609,13.778 15.277,13.698 15.216 C 13.555 15.107,13.552 15.106,13.425 15.174 C 13.355 15.212,13.274 15.281,13.245 15.327 C 13.216 15.373,13.132 15.701,13.057 16.055 C 12.871 16.936,12.859 16.949,12.228 16.956 C 11.687 16.962,11.144 16.888,10.793 16.760 C 9.507 16.290,8.244 14.795,7.110 12.400 C 6.475 11.058,6.080 10.027,6.080 9.711 C 6.080 9.417,6.068 9.420,7.256 9.420 L 8.299 9.420 8.426 9.632 C 8.496 9.749,8.701 10.190,8.882 10.612 C 9.419 11.868,9.749 12.473,10.045 12.744 C 10.219 12.904,10.292 12.927,10.394 12.856 C 10.683 12.653,10.802 10.984,10.584 10.173 C 10.516 9.917,10.467 9.846,10.240 9.673 C 10.136 9.594,10.060 9.503,10.060 9.459 C 10.060 9.345,10.345 9.205,10.751 9.119 C 11.157 9.034,12.038 9.015,12.368 9.085 " fill="#373B4D" stroke="none" fill-rule="evenodd"></path></svg>