<svg width="24" height="24" viewBox="0 0 24 24" fill="none" xmlns="http://www.w3.org/2000/svg">
<path fill-rule="evenodd" clip-rule="evenodd" d="M3.45672 6.7039C3 7.80653 3 9.20435 3 12C3 14.7956 3 16.1935 3.45672 17.2961C4.06569 18.7663 5.23373 19.9343 6.7039 20.5433C7.80653 21 9.20435 21 12 21C14.7956 21 16.1935 21 17.2961 20.5433C18.7663 19.9343 19.9343 18.7663 20.5433 17.2961C21 16.1935 21 14.7956 21 12C21 9.20435 21 7.80653 20.5433 6.7039C19.9343 5.23373 18.7663 4.06569 17.2961 3.45672C16.1935 3 14.7956 3 12 3C9.20435 3 7.80653 3 6.7039 3.45672C5.23373 4.06569 4.06569 5.23373 3.45672 6.7039ZM16.0664 13.2974C15.9958 13.4973 16.0247 13.6945 16.154 13.8894C16.3188 14.095 16.5012 14.3041 16.6856 14.5154C17.2312 15.1408 17.7939 15.7859 17.9681 16.4177C18.0295 16.8119 17.7372 16.9587 17.4404 16.9587L15.8419 16.9878C15.7419 17.0122 15.6253 17 15.4924 16.9513C15.0316 16.7829 14.7307 16.3791 14.4272 15.9719C14.2325 15.7106 14.0367 15.4479 13.7969 15.245C13.6775 15.144 13.5333 15.075 13.3942 15.1573C13.0802 15.3406 13.0722 15.6934 13.0641 16.0507C13.058 16.3208 13.0519 16.5935 12.9134 16.7975C12.7307 17.0229 12.3762 16.9943 12.087 16.971C12.0059 16.9645 11.93 16.9583 11.8644 16.9583C8.87339 17.0776 6.92328 12.3135 6.03215 9.85571C5.92555 9.52362 6.09363 9.35878 6.39438 9.35878L8.10532 9.34425C8.28819 9.37973 8.46175 9.49992 8.52992 9.70957C8.78612 10.4059 9.71869 12.9176 10.297 12.9176C10.8753 12.9176 10.7306 10.3582 10.5343 9.87778C10.4302 9.71216 10.2533 9.6074 10.0035 9.56361C9.94942 9.55399 9.95987 9.49548 10.0348 9.38827C10.297 9.01323 11.9039 8.90233 12.6075 9.08864C12.7466 9.1295 12.8826 9.20206 12.9447 9.3627C13.0855 9.7292 13.0531 10.3462 13.0204 10.971C12.9799 11.7451 12.9387 12.5311 13.2255 12.8666C13.3362 12.8988 13.3968 12.9025 13.494 12.8154C14.2329 11.9876 14.737 10.6996 15.1489 9.64421C15.2019 9.48905 15.2865 9.41279 15.4173 9.37742C15.6448 9.37742 15.891 9.37855 16.1449 9.37972C16.6771 9.38216 17.2428 9.38476 17.7403 9.37742C18.5098 9.37742 17.3962 11.1313 16.6456 12.3135C16.3532 12.7741 16.1158 13.1479 16.0664 13.2974Z" fill="#373B4D"/>
</svg>
