<svg width="24" height="24" viewBox="0 0 24 24" fill="none" xmlns="http://www.w3.org/2000/svg"><path d="M8.860 3.082 C 7.780 3.134,7.064 3.301,6.300 3.680 C 5.694 3.980,5.258 4.309,4.697 4.887 C 3.674 5.944,3.208 6.994,3.075 8.541 C 3.010 9.303,3.010 14.690,3.076 15.459 C 3.208 17.016,3.674 18.058,4.718 19.134 C 5.480 19.919,6.153 20.355,7.039 20.639 C 7.970 20.937,8.448 20.969,12.000 20.969 C 15.551 20.968,16.079 20.933,16.963 20.637 C 17.874 20.332,18.431 19.975,19.203 19.203 C 20.047 18.359,20.469 17.651,20.721 16.659 C 20.882 16.025,20.914 15.749,20.964 14.540 C 21.015 13.335,20.986 9.621,20.919 8.600 C 20.827 7.199,20.410 6.145,19.545 5.124 C 19.214 4.733,18.745 4.315,18.320 4.033 C 17.681 3.609,16.770 3.248,16.120 3.161 C 15.955 3.138,14.551 3.102,13.000 3.081 C 9.956 3.038,9.764 3.038,8.860 3.082 M12.395 9.083 C 12.495 9.106,12.636 9.153,12.710 9.187 C 12.958 9.305,12.963 9.335,13.001 10.974 C 13.020 11.791,13.048 12.505,13.063 12.560 C 13.098 12.685,13.223 12.826,13.321 12.852 C 13.439 12.883,13.540 12.783,13.815 12.369 C 14.117 11.913,14.393 11.400,14.682 10.760 C 15.178 9.659,15.270 9.484,15.367 9.460 C 15.418 9.448,16.018 9.443,16.700 9.449 L 17.940 9.460 17.932 9.718 C 17.926 9.944,17.896 10.036,17.688 10.458 C 17.558 10.723,17.213 11.345,16.921 11.840 C 16.226 13.019,16.040 13.366,16.041 13.483 C 16.043 13.666,16.192 13.901,16.736 14.578 C 17.648 15.713,17.920 16.150,17.920 16.482 C 17.920 16.736,17.806 16.874,17.559 16.922 C 17.234 16.984,16.154 17.011,15.770 16.967 C 15.286 16.911,15.183 16.838,14.544 16.105 C 14.050 15.539,13.630 15.120,13.555 15.120 C 13.461 15.120,13.276 15.251,13.222 15.355 C 13.190 15.418,13.117 15.726,13.060 16.040 C 12.924 16.791,12.893 16.863,12.673 16.923 C 12.450 16.984,11.436 16.944,11.087 16.860 C 10.056 16.613,8.980 15.641,8.002 14.073 C 7.241 12.851,6.085 10.255,6.067 9.727 C 6.057 9.401,6.057 9.401,7.253 9.401 L 8.246 9.400 8.355 9.510 C 8.419 9.573,8.571 9.874,8.717 10.220 C 9.153 11.255,9.203 11.368,9.448 11.851 C 9.720 12.387,9.928 12.683,10.139 12.833 C 10.306 12.951,10.373 12.932,10.491 12.730 C 10.692 12.386,10.767 11.113,10.629 10.373 C 10.547 9.935,10.497 9.845,10.240 9.673 C 9.969 9.492,9.961 9.415,10.200 9.293 C 10.696 9.041,11.754 8.940,12.395 9.083 " fill="#373B4D" stroke="none" fill-rule="evenodd"></path></svg>