<svg width="24" height="24" viewBox="0 0 24 24" fill="none" xmlns="http://www.w3.org/2000/svg"><path d="M10.376 3.743 C 10.103 3.878,9.151 4.773,6.760 7.145 L 5.500 8.394 4.920 8.419 C 2.494 8.520,1.996 8.559,1.802 8.659 C 1.634 8.746,1.370 9.057,1.322 9.226 C 1.252 9.468,1.203 10.979,1.202 12.936 L 1.200 14.733 1.363 14.944 C 1.549 15.185,1.875 15.446,2.080 15.518 C 2.178 15.553,2.712 15.574,3.859 15.590 L 5.498 15.612 7.239 17.320 C 10.049 20.077,10.285 20.286,10.659 20.342 C 11.026 20.397,11.491 20.169,11.816 19.774 L 12.000 19.551 11.996 14.605 C 11.994 11.885,11.980 8.490,11.966 7.060 L 11.940 4.460 11.844 4.320 C 11.593 3.956,11.429 3.848,10.972 3.745 C 10.619 3.665,10.534 3.665,10.376 3.743 M20.080 8.555 C 19.775 8.655,19.453 8.909,18.570 9.746 L 18.001 10.286 17.370 9.693 C 16.204 8.597,16.148 8.562,15.580 8.562 C 15.155 8.562,14.967 8.630,14.766 8.860 C 14.577 9.074,14.480 9.325,14.480 9.593 C 14.481 10.019,14.679 10.309,15.707 11.390 L 16.286 12.000 15.685 12.630 C 14.634 13.731,14.455 14.006,14.489 14.475 C 14.512 14.791,14.587 14.952,14.822 15.180 C 15.061 15.412,15.247 15.494,15.584 15.512 C 15.812 15.525,15.898 15.512,16.024 15.447 C 16.215 15.347,16.764 14.879,17.471 14.212 L 18.002 13.711 18.451 14.146 C 18.983 14.660,19.454 15.077,19.778 15.322 L 20.014 15.500 20.382 15.500 C 20.744 15.500,20.754 15.497,20.975 15.345 C 21.381 15.065,21.552 14.705,21.511 14.214 C 21.496 14.033,21.463 13.963,21.270 13.711 C 21.147 13.551,20.747 13.100,20.381 12.709 L 19.715 11.998 20.254 11.429 C 20.975 10.667,21.353 10.216,21.449 10.005 C 21.512 9.867,21.525 9.765,21.514 9.519 C 21.501 9.245,21.485 9.187,21.374 9.035 C 21.305 8.939,21.151 8.792,21.031 8.707 C 20.831 8.566,20.788 8.552,20.497 8.538 C 20.322 8.529,20.135 8.537,20.080 8.555 " fill="#373B4D" stroke="none" fill-rule="evenodd"></path></svg>