<svg width="24" height="24" viewBox="0 0 24 24" fill="none" xmlns="http://www.w3.org/2000/svg"><path d="M17.940 3.340 C 17.689 3.474,17.498 3.654,17.387 3.860 C 17.320 3.985,17.301 4.089,17.301 4.340 C 17.301 4.744,17.327 4.793,17.987 5.667 C 18.675 6.580,19.069 7.190,19.414 7.880 C 19.923 8.898,20.196 9.900,20.287 11.086 C 20.349 11.883,20.283 13.385,20.162 13.947 C 19.822 15.529,19.215 16.747,17.962 18.360 C 17.377 19.114,17.307 19.251,17.306 19.640 C 17.306 20.125,17.508 20.445,17.968 20.687 C 18.204 20.811,18.631 20.814,18.860 20.693 C 19.612 20.293,20.769 18.794,21.541 17.220 C 22.468 15.328,22.808 13.716,22.739 11.540 C 22.699 10.271,22.571 9.508,22.215 8.420 C 21.639 6.661,20.664 4.985,19.581 3.896 C 19.097 3.408,18.861 3.277,18.427 3.250 C 18.174 3.235,18.117 3.245,17.940 3.340 M10.220 3.832 C 9.940 4.020,8.961 4.954,6.940 6.963 L 5.500 8.393 3.980 8.440 C 3.144 8.465,2.338 8.501,2.190 8.519 C 1.717 8.577,1.402 8.835,1.293 9.252 C 1.250 9.412,1.232 10.061,1.212 12.086 L 1.187 14.712 1.333 14.910 C 1.525 15.172,1.810 15.431,1.992 15.510 C 2.117 15.564,2.396 15.577,3.819 15.592 L 5.498 15.610 7.299 17.392 C 9.515 19.584,10.247 20.267,10.439 20.320 C 10.668 20.384,11.042 20.366,11.225 20.283 C 11.431 20.190,11.675 19.972,11.866 19.712 L 12.012 19.512 11.990 11.996 L 11.968 4.480 11.864 4.303 C 11.754 4.116,11.510 3.896,11.287 3.782 C 11.207 3.742,11.013 3.706,10.807 3.693 L 10.460 3.671 10.220 3.832 M14.540 6.716 C 14.166 6.890,13.905 7.319,13.905 7.760 C 13.906 8.073,13.945 8.157,14.459 8.940 C 15.068 9.868,15.269 10.242,15.385 10.660 C 15.484 11.019,15.532 11.973,15.483 12.603 C 15.412 13.506,15.302 13.770,14.478 15.020 C 13.891 15.909,13.821 16.106,13.937 16.536 C 13.996 16.752,14.051 16.849,14.215 17.028 C 14.472 17.310,14.593 17.360,15.011 17.360 C 15.455 17.360,15.652 17.262,16.054 16.841 C 16.927 15.928,17.479 14.848,17.825 13.380 C 17.933 12.925,17.939 12.851,17.939 11.960 C 17.940 11.023,17.940 11.018,17.807 10.503 C 17.616 9.767,17.473 9.377,17.158 8.740 C 16.739 7.891,16.110 7.080,15.676 6.828 C 15.356 6.643,14.814 6.589,14.540 6.716 " fill="#373B4D" stroke="none" fill-rule="evenodd"></path></svg>