<svg width="24" height="24" viewBox="0 0 24 24" fill="none" xmlns="http://www.w3.org/2000/svg"><path d="M10.100 3.930 C 9.710 4.243,8.751 5.164,6.900 7.004 L 5.500 8.395 4.100 8.439 C 2.268 8.497,2.013 8.522,1.747 8.672 C 1.504 8.809,1.341 9.043,1.281 9.340 C 1.258 9.453,1.229 10.670,1.214 12.126 L 1.187 14.712 1.336 14.915 C 1.521 15.167,1.815 15.431,2.000 15.512 C 2.116 15.562,2.433 15.576,3.819 15.592 L 5.499 15.611 7.239 17.332 C 9.263 19.333,10.155 20.170,10.383 20.281 C 10.580 20.377,10.919 20.385,11.161 20.299 C 11.382 20.222,11.641 20.009,11.847 19.736 L 12.010 19.520 11.992 12.010 C 11.976 4.904,11.971 4.493,11.904 4.365 C 11.805 4.178,11.514 3.903,11.310 3.805 C 11.198 3.752,11.017 3.715,10.780 3.698 L 10.420 3.673 10.100 3.930 M20.030 8.535 C 19.774 8.630,19.347 8.985,18.492 9.814 L 18.003 10.289 17.331 9.646 C 16.532 8.882,16.211 8.618,16.010 8.562 C 15.927 8.539,15.720 8.520,15.550 8.520 C 15.036 8.520,14.722 8.716,14.565 9.136 C 14.301 9.842,14.419 10.072,15.755 11.448 L 16.289 11.999 15.686 12.623 C 14.637 13.709,14.458 13.970,14.464 14.400 C 14.471 14.928,14.763 15.324,15.260 15.477 C 15.597 15.581,15.770 15.582,15.981 15.479 C 16.207 15.370,16.787 14.882,17.450 14.242 L 18.001 13.712 18.570 14.263 C 19.248 14.919,19.675 15.289,19.919 15.433 C 20.067 15.520,20.145 15.537,20.379 15.536 C 20.718 15.534,20.891 15.465,21.140 15.235 C 21.443 14.956,21.535 14.763,21.534 14.404 C 21.534 14.200,21.512 14.058,21.468 13.974 C 21.354 13.757,21.019 13.364,20.354 12.669 L 19.711 11.997 20.186 11.509 C 20.799 10.877,21.200 10.419,21.389 10.134 C 21.530 9.921,21.540 9.888,21.540 9.604 C 21.540 9.384,21.519 9.257,21.463 9.145 C 21.351 8.920,21.027 8.611,20.850 8.562 C 20.583 8.487,20.192 8.474,20.030 8.535 " fill="#373B4D" stroke="none" fill-rule="evenodd"></path></svg>