<svg width="24" height="24" viewBox="0 0 24 24" fill="none" xmlns="http://www.w3.org/2000/svg"><path d="M17.895 3.358 C 17.434 3.623,17.252 3.946,17.287 4.436 C 17.310 4.741,17.416 4.944,17.828 5.461 C 19.409 7.446,20.083 8.931,20.283 10.867 C 20.347 11.493,20.311 13.187,20.222 13.660 C 19.891 15.431,19.255 16.745,17.917 18.420 C 17.361 19.116,17.301 19.237,17.301 19.660 C 17.301 20.029,17.374 20.204,17.627 20.448 C 18.024 20.831,18.558 20.906,18.966 20.635 C 19.475 20.297,20.081 19.619,20.699 18.700 C 21.727 17.170,22.369 15.546,22.652 13.761 C 22.726 13.297,22.738 13.050,22.738 12.020 C 22.739 10.485,22.655 9.864,22.278 8.606 C 21.789 6.975,20.856 5.285,19.782 4.085 C 19.215 3.452,18.860 3.240,18.368 3.240 C 18.145 3.241,18.066 3.260,17.895 3.358 M10.174 3.853 C 9.888 4.064,8.977 4.940,7.000 6.901 L 5.500 8.390 3.880 8.436 C 2.989 8.461,2.170 8.500,2.060 8.521 C 1.682 8.596,1.345 8.923,1.276 9.283 C 1.251 9.411,1.225 10.565,1.213 12.109 L 1.191 14.717 1.333 14.909 C 1.539 15.188,1.797 15.426,1.980 15.506 C 2.122 15.568,2.329 15.578,3.819 15.592 L 5.497 15.608 7.399 17.491 C 9.314 19.387,10.116 20.150,10.339 20.286 C 10.477 20.370,10.919 20.388,11.167 20.319 C 11.339 20.271,11.657 19.997,11.858 19.723 L 12.000 19.529 11.996 14.535 C 11.993 11.788,11.980 8.387,11.966 6.977 L 11.940 4.414 11.833 4.252 C 11.684 4.027,11.399 3.804,11.175 3.737 C 11.072 3.705,10.857 3.680,10.698 3.680 C 10.420 3.680,10.400 3.687,10.174 3.853 M14.426 6.765 C 14.020 7.033,13.812 7.548,13.922 8.008 C 13.959 8.162,14.092 8.394,14.421 8.879 C 14.918 9.613,15.183 10.079,15.342 10.500 C 15.560 11.079,15.570 12.832,15.359 13.440 C 15.175 13.970,14.988 14.289,14.133 15.534 C 13.782 16.046,13.823 16.663,14.235 17.075 C 14.488 17.328,14.610 17.375,15.000 17.372 C 15.427 17.369,15.573 17.309,15.886 17.011 C 16.930 16.017,17.604 14.670,17.902 12.980 C 17.988 12.495,17.999 11.514,17.925 11.080 C 17.671 9.611,17.081 8.298,16.238 7.329 C 15.866 6.901,15.608 6.727,15.277 6.679 C 14.801 6.610,14.634 6.627,14.426 6.765 " fill="#373B4D" stroke="none" fill-rule="evenodd"></path></svg>