<svg width="24" height="24" viewBox="0 0 24 24" fill="none" xmlns="http://www.w3.org/2000/svg"><path d="M17.920 3.395 C 17.739 3.494,17.499 3.729,17.411 3.892 C 17.366 3.977,17.342 4.114,17.341 4.303 C 17.340 4.669,17.391 4.769,18.270 6.106 C 19.453 7.905,19.718 8.431,20.022 9.580 L 20.160 10.100 20.160 12.003 L 20.160 13.906 20.019 14.420 C 19.700 15.585,19.338 16.297,18.201 18.000 C 17.325 19.313,17.342 19.280,17.342 19.619 C 17.343 19.946,17.439 20.184,17.663 20.415 C 17.964 20.725,18.426 20.841,18.763 20.692 C 19.274 20.465,20.223 19.412,20.925 18.291 C 21.905 16.727,22.577 14.763,22.685 13.146 C 22.750 12.183,22.709 10.657,22.604 10.060 C 22.183 7.685,20.926 5.214,19.423 3.808 C 19.041 3.451,18.822 3.349,18.400 3.332 C 18.123 3.321,18.034 3.333,17.920 3.395 M10.174 3.896 C 9.821 4.163,8.751 5.177,7.036 6.872 L 5.492 8.397 4.216 8.459 C 2.565 8.538,2.021 8.588,1.818 8.677 C 1.643 8.754,1.434 8.988,1.340 9.213 C 1.255 9.416,1.201 10.911,1.200 13.023 L 1.200 14.786 1.516 15.093 C 1.689 15.262,1.900 15.429,1.983 15.464 C 2.202 15.555,2.924 15.597,4.293 15.599 L 5.485 15.600 7.333 17.407 C 9.383 19.413,9.988 19.978,10.313 20.194 C 10.507 20.322,10.562 20.340,10.777 20.339 C 11.100 20.338,11.427 20.164,11.763 19.814 L 12.010 19.556 11.993 12.038 L 11.976 4.519 11.814 4.290 C 11.553 3.920,11.142 3.722,10.634 3.720 C 10.428 3.720,10.387 3.736,10.174 3.896 M14.537 6.775 C 14.176 6.943,13.956 7.320,13.951 7.777 C 13.949 8.043,14.041 8.247,14.571 9.152 C 14.781 9.510,15.045 9.987,15.157 10.212 L 15.362 10.620 15.404 11.304 C 15.434 11.786,15.434 12.177,15.404 12.633 C 15.353 13.415,15.297 13.581,14.800 14.440 C 13.981 15.856,13.890 16.061,13.934 16.384 C 14.010 16.936,14.463 17.339,15.001 17.334 C 15.404 17.330,15.583 17.230,16.065 16.737 C 16.553 16.239,16.836 15.829,17.156 15.155 C 17.784 13.834,17.957 13.044,17.959 11.482 C 17.960 11.059,17.948 10.984,17.795 10.482 C 17.389 9.150,16.903 8.174,16.301 7.481 C 15.884 7.000,15.585 6.798,15.181 6.724 C 14.848 6.662,14.766 6.668,14.537 6.775 " fill="#373B4D" stroke="none" fill-rule="evenodd"></path></svg>