<svg width="24" height="24" viewBox="0 0 24 24" fill="none" xmlns="http://www.w3.org/2000/svg"><path d="M10.174 3.896 C 9.821 4.163,8.751 5.177,7.036 6.872 L 5.492 8.397 4.216 8.459 C 2.565 8.538,2.021 8.588,1.818 8.677 C 1.643 8.754,1.434 8.988,1.340 9.213 C 1.255 9.416,1.201 10.911,1.200 13.023 L 1.200 14.786 1.516 15.093 C 1.689 15.262,1.900 15.429,1.983 15.464 C 2.202 15.555,2.924 15.597,4.293 15.599 L 5.485 15.600 7.333 17.407 C 9.383 19.413,9.988 19.978,10.313 20.194 C 10.507 20.322,10.562 20.340,10.777 20.339 C 11.100 20.338,11.427 20.164,11.763 19.814 L 12.010 19.556 11.993 12.038 L 11.976 4.519 11.814 4.290 C 11.553 3.920,11.142 3.722,10.634 3.720 C 10.428 3.720,10.387 3.736,10.174 3.896 M15.198 8.612 C 14.839 8.714,14.611 8.971,14.517 9.382 C 14.397 9.900,14.619 10.251,15.934 11.628 L 16.288 11.999 15.749 12.569 C 15.084 13.274,14.884 13.501,14.722 13.738 C 14.359 14.264,14.417 14.797,14.882 15.217 C 15.089 15.404,15.253 15.474,15.559 15.506 C 15.971 15.549,16.202 15.394,17.419 14.256 L 18.000 13.713 18.470 14.162 C 18.935 14.607,19.545 15.144,19.866 15.392 C 20.007 15.501,20.065 15.520,20.254 15.520 C 20.376 15.520,20.567 15.501,20.677 15.477 C 21.057 15.395,21.456 14.917,21.507 14.482 C 21.559 14.046,21.435 13.853,20.356 12.689 L 19.716 11.999 20.305 11.369 C 21.345 10.257,21.477 10.070,21.510 9.657 C 21.535 9.348,21.479 9.175,21.278 8.947 C 21.038 8.674,20.775 8.560,20.391 8.560 C 19.905 8.560,19.696 8.696,18.589 9.733 L 17.998 10.286 17.400 9.726 C 16.676 9.046,16.365 8.785,16.156 8.678 C 15.953 8.575,15.451 8.540,15.198 8.612 " fill="#373B4D" stroke="none" fill-rule="evenodd"></path></svg>