<svg width="24" height="24" viewBox="0 0 24 24" fill="none" xmlns="http://www.w3.org/2000/svg"><path d="M10.280 3.830 C 9.924 4.061,8.830 5.094,6.640 7.267 L 5.500 8.398 4.280 8.459 C 2.891 8.529,2.176 8.586,1.930 8.647 C 1.745 8.693,1.486 8.915,1.382 9.117 C 1.267 9.338,1.237 9.918,1.213 12.353 L 1.189 14.766 1.405 14.986 C 1.741 15.329,1.950 15.466,2.220 15.521 C 2.370 15.551,3.028 15.577,3.977 15.590 L 5.495 15.610 7.297 17.371 C 9.239 19.268,9.979 19.961,10.310 20.188 C 10.495 20.316,10.548 20.333,10.757 20.331 C 11.086 20.328,11.363 20.192,11.714 19.860 L 12.000 19.590 12.000 12.072 L 12.000 4.554 11.884 4.387 C 11.600 3.979,11.233 3.767,10.750 3.733 C 10.480 3.714,10.447 3.721,10.280 3.830 M15.320 8.599 C 14.661 8.691,14.300 9.426,14.612 10.041 C 14.749 10.312,15.126 10.770,15.786 11.470 L 16.286 11.999 15.656 12.670 C 14.941 13.430,14.753 13.658,14.621 13.919 C 14.398 14.359,14.466 14.780,14.821 15.142 C 15.046 15.373,15.222 15.464,15.518 15.504 C 15.934 15.559,16.180 15.400,17.331 14.335 L 18.002 13.714 18.451 14.142 C 18.949 14.616,19.558 15.151,19.853 15.374 C 20.023 15.503,20.073 15.520,20.276 15.520 C 20.640 15.520,20.901 15.423,21.117 15.207 C 21.345 14.978,21.478 14.713,21.508 14.429 C 21.548 14.041,21.403 13.824,20.336 12.670 L 19.716 11.999 20.252 11.425 C 21.297 10.306,21.460 10.080,21.507 9.686 C 21.555 9.277,21.329 8.880,20.935 8.681 C 20.774 8.599,20.681 8.582,20.400 8.581 C 19.878 8.579,19.714 8.684,18.579 9.744 L 18.000 10.285 17.323 9.658 C 16.546 8.938,16.238 8.694,16.040 8.644 C 15.829 8.590,15.522 8.571,15.320 8.599 " fill="#373B4D" stroke="none" fill-rule="evenodd"></path></svg>