<svg width="24" height="24" viewBox="0 0 24 24" fill="none" xmlns="http://www.w3.org/2000/svg"><path d="M18.006 3.318 C 17.748 3.439,17.532 3.624,17.412 3.829 C 17.323 3.983,17.306 4.059,17.305 4.316 C 17.303 4.719,17.358 4.829,17.963 5.640 C 19.756 8.047,20.298 9.507,20.292 11.920 C 20.289 13.054,20.230 13.674,20.062 14.337 C 19.716 15.704,19.182 16.728,17.961 18.360 C 17.690 18.723,17.435 19.092,17.395 19.180 C 17.285 19.421,17.294 19.883,17.414 20.140 C 17.522 20.372,17.738 20.577,17.998 20.693 C 18.233 20.798,18.642 20.802,18.841 20.700 C 19.500 20.363,20.488 19.153,21.294 17.695 C 21.795 16.788,22.288 15.504,22.496 14.560 C 22.856 12.927,22.833 10.737,22.442 9.203 C 21.925 7.180,20.819 5.143,19.549 3.872 C 19.132 3.455,18.848 3.296,18.460 3.262 C 18.228 3.241,18.150 3.251,18.006 3.318 M10.100 3.930 C 9.710 4.243,8.751 5.164,6.900 7.004 L 5.500 8.395 4.100 8.439 C 2.268 8.497,2.013 8.522,1.747 8.672 C 1.504 8.809,1.341 9.043,1.281 9.340 C 1.258 9.453,1.229 10.670,1.214 12.126 L 1.187 14.712 1.336 14.915 C 1.521 15.167,1.815 15.431,2.000 15.512 C 2.116 15.562,2.433 15.576,3.819 15.592 L 5.499 15.611 7.239 17.332 C 9.263 19.333,10.155 20.170,10.383 20.281 C 10.580 20.377,10.919 20.385,11.161 20.299 C 11.382 20.222,11.641 20.009,11.847 19.736 L 12.010 19.520 11.992 12.010 C 11.976 4.904,11.971 4.493,11.904 4.365 C 11.805 4.178,11.514 3.903,11.310 3.805 C 11.198 3.752,11.017 3.715,10.780 3.698 L 10.420 3.673 10.100 3.930 M14.680 6.675 C 14.356 6.781,14.088 7.040,13.982 7.352 C 13.898 7.599,13.904 7.980,13.995 8.181 C 14.035 8.270,14.223 8.581,14.413 8.872 C 15.174 10.039,15.365 10.438,15.442 11.018 C 15.507 11.507,15.470 12.971,15.384 13.310 C 15.294 13.665,15.059 14.113,14.530 14.936 C 13.966 15.813,13.903 15.947,13.903 16.260 C 13.903 16.555,14.009 16.804,14.240 17.055 C 14.465 17.300,14.669 17.373,15.067 17.353 C 15.486 17.332,15.632 17.255,16.040 16.841 C 16.880 15.989,17.463 14.862,17.822 13.400 C 17.930 12.960,17.935 12.897,17.936 11.960 L 17.938 10.980 17.788 10.426 C 17.607 9.756,17.443 9.324,17.149 8.738 C 16.681 7.804,16.021 6.989,15.570 6.788 C 15.323 6.678,14.854 6.619,14.680 6.675 " fill="#373B4D" stroke="none" fill-rule="evenodd"></path></svg>