<svg width="24" height="24" viewBox="0 0 24 24" fill="none" xmlns="http://www.w3.org/2000/svg"><path d="M10.340 3.754 C 10.025 3.949,9.038 4.883,6.840 7.066 L 5.500 8.397 4.300 8.440 C 2.894 8.490,2.115 8.545,1.920 8.607 C 1.700 8.677,1.493 8.865,1.378 9.100 C 1.276 9.309,1.272 9.349,1.238 10.328 C 1.219 10.885,1.203 12.103,1.202 13.036 L 1.200 14.733 1.363 14.944 C 1.570 15.212,1.841 15.435,2.054 15.512 C 2.188 15.561,2.538 15.576,3.860 15.591 L 5.499 15.610 6.926 17.018 C 8.653 18.724,9.886 19.902,10.170 20.116 C 10.286 20.204,10.466 20.298,10.570 20.326 C 10.973 20.434,11.467 20.214,11.823 19.770 L 12.007 19.540 11.986 12.080 C 11.972 6.932,11.952 4.575,11.922 4.475 C 11.872 4.305,11.615 4.001,11.422 3.881 C 11.290 3.800,10.781 3.680,10.566 3.680 C 10.508 3.680,10.406 3.714,10.340 3.754 M15.262 8.562 C 14.968 8.612,14.765 8.775,14.604 9.090 C 14.497 9.299,14.467 9.408,14.465 9.589 C 14.460 10.000,14.672 10.310,15.685 11.370 L 16.286 12.001 15.700 12.610 C 14.686 13.664,14.480 13.964,14.480 14.381 C 14.480 14.741,14.550 14.913,14.799 15.164 C 14.961 15.327,15.080 15.407,15.240 15.461 C 15.515 15.554,15.817 15.556,16.000 15.467 C 16.186 15.377,16.732 14.913,17.430 14.253 L 18.001 13.713 18.550 14.242 C 19.213 14.879,19.813 15.390,19.989 15.465 C 20.160 15.538,20.607 15.535,20.788 15.459 C 21.004 15.369,21.265 15.139,21.386 14.933 C 21.511 14.720,21.560 14.263,21.483 14.029 C 21.427 13.860,21.037 13.397,20.273 12.590 L 19.713 12.001 20.275 11.410 C 20.923 10.729,21.371 10.199,21.465 10.003 C 21.553 9.820,21.547 9.329,21.456 9.152 C 21.337 8.922,20.988 8.617,20.786 8.566 C 20.549 8.506,20.177 8.510,19.996 8.575 C 19.746 8.664,19.230 9.097,18.353 9.953 L 18.007 10.292 17.331 9.653 C 16.590 8.952,16.283 8.694,16.100 8.619 C 15.935 8.552,15.501 8.523,15.262 8.562 " fill="#373B4D" stroke="none" fill-rule="evenodd"></path></svg>