<svg width="24" height="24" viewBox="0 0 24 24" fill="none" xmlns="http://www.w3.org/2000/svg"><path d="M10.174 3.853 C 9.888 4.064,8.977 4.940,7.000 6.901 L 5.500 8.390 3.880 8.436 C 2.989 8.461,2.170 8.500,2.060 8.521 C 1.682 8.596,1.345 8.923,1.276 9.283 C 1.251 9.411,1.225 10.565,1.213 12.109 L 1.191 14.717 1.333 14.909 C 1.539 15.188,1.797 15.426,1.980 15.506 C 2.122 15.568,2.329 15.578,3.819 15.592 L 5.497 15.608 7.399 17.491 C 9.314 19.387,10.116 20.150,10.339 20.286 C 10.477 20.370,10.919 20.388,11.167 20.319 C 11.339 20.271,11.657 19.997,11.858 19.723 L 12.000 19.529 11.996 14.535 C 11.993 11.788,11.980 8.387,11.966 6.977 L 11.940 4.414 11.833 4.252 C 11.684 4.027,11.399 3.804,11.175 3.737 C 11.072 3.705,10.857 3.680,10.698 3.680 C 10.420 3.680,10.400 3.687,10.174 3.853 M15.244 8.521 C 15.038 8.564,14.791 8.724,14.672 8.891 C 14.627 8.955,14.556 9.115,14.515 9.247 C 14.319 9.875,14.438 10.094,15.657 11.350 L 16.288 11.999 15.601 12.709 C 14.552 13.790,14.400 14.030,14.456 14.508 C 14.487 14.772,14.584 15.009,14.736 15.188 C 14.966 15.461,15.533 15.625,15.900 15.526 C 16.115 15.467,16.562 15.102,17.351 14.340 L 18.001 13.712 18.606 14.299 C 19.679 15.341,19.919 15.519,20.304 15.552 C 20.654 15.581,20.916 15.477,21.197 15.197 C 21.477 14.916,21.581 14.654,21.552 14.304 C 21.519 13.920,21.352 13.693,20.303 12.610 L 19.712 12.001 20.342 11.350 C 21.070 10.598,21.465 10.119,21.521 9.920 C 21.583 9.696,21.566 9.357,21.483 9.175 C 21.392 8.974,21.162 8.712,20.974 8.596 C 20.801 8.489,20.250 8.444,20.024 8.519 C 19.813 8.588,19.398 8.932,18.650 9.658 L 17.999 10.289 17.400 9.706 C 16.702 9.028,16.293 8.670,16.110 8.575 C 15.957 8.495,15.501 8.467,15.244 8.521 " fill="#373B4D" stroke="none" fill-rule="evenodd"></path></svg>