<svg width="24" height="24" viewBox="0 0 24 24" fill="none" xmlns="http://www.w3.org/2000/svg"><path d="M18.093 3.317 C 17.916 3.361,17.613 3.588,17.473 3.783 C 17.390 3.898,17.349 4.012,17.333 4.168 C 17.289 4.596,17.346 4.717,18.177 5.958 C 19.418 7.808,19.753 8.478,20.065 9.720 L 20.180 10.180 20.180 12.000 L 20.180 13.820 20.047 14.334 C 19.738 15.530,19.243 16.505,18.123 18.120 C 17.887 18.461,17.614 18.875,17.517 19.040 C 17.349 19.324,17.340 19.355,17.342 19.640 C 17.343 19.894,17.362 19.973,17.461 20.154 C 17.662 20.524,18.036 20.760,18.420 20.760 C 18.745 20.760,18.946 20.652,19.366 20.248 C 20.971 18.709,22.180 16.338,22.623 13.860 C 22.709 13.379,22.747 11.460,22.685 10.720 C 22.527 8.843,21.615 6.523,20.394 4.890 C 20.052 4.432,19.342 3.689,19.085 3.518 C 18.820 3.343,18.363 3.250,18.093 3.317 M10.380 3.745 C 10.066 3.917,9.012 4.908,6.700 7.204 L 5.500 8.396 4.120 8.459 C 2.668 8.525,2.065 8.574,1.851 8.644 C 1.688 8.697,1.371 9.054,1.320 9.242 C 1.253 9.488,1.201 11.114,1.201 12.969 L 1.200 14.759 1.467 15.042 C 1.887 15.486,1.983 15.529,2.656 15.565 C 2.966 15.581,3.730 15.596,4.354 15.597 L 5.489 15.600 7.194 17.273 C 9.894 19.920,10.242 20.234,10.574 20.324 C 10.919 20.417,11.333 20.255,11.698 19.885 C 11.827 19.755,11.950 19.616,11.972 19.577 C 11.999 19.529,12.005 16.990,11.990 12.010 L 11.967 4.514 11.826 4.301 C 11.646 4.031,11.464 3.892,11.171 3.800 C 10.808 3.687,10.522 3.667,10.380 3.745 M14.540 6.756 C 14.182 6.922,13.943 7.325,13.943 7.760 C 13.943 8.064,13.985 8.155,14.586 9.170 C 14.798 9.527,15.060 10.000,15.167 10.220 L 15.362 10.620 15.405 11.220 C 15.457 11.933,15.426 12.961,15.341 13.310 C 15.267 13.617,15.112 13.928,14.620 14.760 C 13.924 15.937,13.851 16.141,13.974 16.567 C 14.050 16.828,14.293 17.123,14.535 17.250 C 14.769 17.372,15.232 17.370,15.490 17.245 C 15.724 17.131,16.400 16.434,16.685 16.013 C 17.209 15.235,17.775 13.821,17.881 13.020 C 17.902 12.866,17.930 12.362,17.945 11.900 L 17.971 11.060 17.802 10.500 C 17.352 9.010,16.811 7.979,16.105 7.262 C 15.749 6.902,15.539 6.778,15.175 6.719 C 14.842 6.664,14.722 6.671,14.540 6.756 " fill="#373B4D" stroke="none" fill-rule="evenodd"></path></svg>