<svg width="24" height="24" viewBox="0 0 24 24" fill="none" xmlns="http://www.w3.org/2000/svg"><path d="M10.480 3.667 C 10.243 3.714,9.778 4.146,7.040 6.863 L 5.500 8.391 4.153 8.417 C 3.413 8.431,2.606 8.460,2.360 8.482 C 1.967 8.516,1.893 8.535,1.747 8.636 C 1.526 8.790,1.375 8.953,1.320 9.100 C 1.235 9.323,1.203 10.255,1.201 12.485 L 1.200 14.711 1.365 14.958 C 1.456 15.094,1.627 15.278,1.747 15.369 C 1.944 15.518,1.992 15.535,2.292 15.564 C 2.472 15.581,3.268 15.596,4.060 15.597 L 5.500 15.600 7.120 17.214 C 9.087 19.174,10.030 20.079,10.275 20.243 C 10.453 20.361,10.474 20.365,10.826 20.353 C 11.179 20.340,11.201 20.334,11.424 20.180 C 11.572 20.078,11.720 19.926,11.833 19.760 L 12.011 19.500 11.988 12.040 C 11.973 7.353,11.950 4.522,11.925 4.424 C 11.874 4.224,11.531 3.872,11.283 3.766 C 11.095 3.685,10.658 3.632,10.480 3.667 M20.160 8.481 C 19.867 8.515,19.578 8.744,18.533 9.774 L 18.005 10.294 17.333 9.640 C 16.501 8.831,16.189 8.571,15.981 8.515 C 15.891 8.490,15.674 8.480,15.491 8.491 C 15.232 8.507,15.124 8.533,14.983 8.616 C 14.675 8.797,14.498 9.097,14.455 9.510 C 14.405 9.994,14.529 10.188,15.583 11.274 L 16.289 12.001 15.649 12.657 C 14.530 13.804,14.415 13.977,14.451 14.460 C 14.478 14.821,14.595 15.074,14.831 15.281 C 15.112 15.528,15.551 15.623,15.930 15.518 C 16.136 15.461,16.543 15.125,17.330 14.362 L 18.001 13.712 18.630 14.323 C 19.824 15.480,19.976 15.582,20.457 15.551 C 20.793 15.529,20.946 15.458,21.202 15.202 C 21.458 14.946,21.529 14.793,21.551 14.457 C 21.582 13.976,21.480 13.824,20.322 12.630 L 19.712 12.000 20.362 11.330 C 21.090 10.580,21.410 10.202,21.499 9.988 C 21.570 9.818,21.578 9.447,21.516 9.224 C 21.468 9.049,21.133 8.670,20.941 8.570 C 20.797 8.496,20.410 8.451,20.160 8.481 " fill="#373B4D" stroke="none" fill-rule="evenodd"></path></svg>