<svg width="24" height="24" viewBox="0 0 24 24" fill="none" xmlns="http://www.w3.org/2000/svg"><path d="M10.380 3.745 C 10.066 3.917,9.012 4.908,6.700 7.204 L 5.500 8.396 4.120 8.459 C 2.668 8.525,2.065 8.574,1.851 8.644 C 1.688 8.697,1.371 9.054,1.320 9.242 C 1.253 9.488,1.201 11.114,1.201 12.969 L 1.200 14.759 1.467 15.042 C 1.887 15.486,1.983 15.529,2.656 15.565 C 2.966 15.581,3.730 15.596,4.354 15.597 L 5.489 15.600 7.194 17.273 C 9.894 19.920,10.242 20.234,10.574 20.324 C 10.919 20.417,11.333 20.255,11.698 19.885 C 11.827 19.755,11.950 19.616,11.972 19.577 C 11.999 19.529,12.005 16.990,11.990 12.010 L 11.967 4.514 11.826 4.301 C 11.646 4.031,11.464 3.892,11.171 3.800 C 10.808 3.687,10.522 3.667,10.380 3.745 M20.138 8.557 C 19.850 8.603,19.499 8.870,18.550 9.767 L 18.000 10.287 17.389 9.713 C 16.285 8.677,16.169 8.599,15.700 8.569 C 15.147 8.533,14.807 8.699,14.600 9.105 C 14.464 9.371,14.460 9.779,14.590 10.043 C 14.707 10.280,15.074 10.720,15.747 11.430 L 16.287 12.000 15.707 12.610 C 14.746 13.621,14.537 13.909,14.493 14.278 C 14.454 14.605,14.543 14.867,14.776 15.113 C 15.035 15.387,15.219 15.480,15.560 15.508 C 15.994 15.545,16.162 15.431,17.425 14.252 L 18.004 13.711 18.412 14.106 C 18.963 14.639,19.504 15.119,19.809 15.344 L 20.060 15.529 20.407 15.510 C 20.807 15.487,20.925 15.431,21.211 15.125 C 21.504 14.813,21.603 14.324,21.444 13.980 C 21.357 13.790,21.022 13.395,20.267 12.589 L 19.714 11.999 20.232 11.449 C 21.279 10.339,21.473 10.080,21.507 9.751 C 21.548 9.360,21.497 9.175,21.288 8.951 C 21.186 8.842,21.030 8.712,20.941 8.661 C 20.765 8.561,20.407 8.515,20.138 8.557 " fill="#373B4D" stroke="none" fill-rule="evenodd"></path></svg>