<svg width="24" height="24" viewBox="0 0 24 24" fill="none" xmlns="http://www.w3.org/2000/svg"><path d="M10.050 3.976 C 9.600 4.353,8.575 5.339,6.860 7.044 L 5.500 8.396 4.200 8.439 C 2.712 8.488,2.049 8.539,1.864 8.616 C 1.664 8.699,1.457 8.902,1.359 9.110 C 1.276 9.287,1.267 9.380,1.237 10.460 C 1.219 11.098,1.203 12.322,1.202 13.180 L 1.200 14.740 1.379 14.968 C 1.477 15.093,1.658 15.271,1.780 15.363 C 2.000 15.529,2.005 15.531,2.451 15.563 C 2.698 15.581,3.485 15.596,4.200 15.598 L 5.501 15.600 6.160 16.264 C 7.163 17.273,9.532 19.572,9.918 19.911 C 10.353 20.293,10.531 20.376,10.859 20.350 C 11.239 20.320,11.575 20.108,11.861 19.719 L 12.009 19.518 11.990 12.049 C 11.976 6.676,11.958 4.541,11.926 4.442 C 11.872 4.275,11.556 3.943,11.352 3.837 C 11.207 3.762,10.789 3.682,10.531 3.681 C 10.429 3.680,10.330 3.741,10.050 3.976 M15.220 8.555 C 14.865 8.649,14.638 8.886,14.514 9.291 C 14.338 9.868,14.499 10.147,15.757 11.450 L 16.288 12.000 15.738 12.570 C 14.678 13.667,14.468 13.968,14.471 14.381 C 14.476 14.865,14.683 15.197,15.109 15.408 C 15.426 15.563,15.766 15.587,16.000 15.470 C 16.203 15.368,16.735 14.917,17.411 14.275 L 18.001 13.713 18.571 14.263 C 19.197 14.868,19.773 15.363,19.966 15.463 C 20.137 15.552,20.628 15.548,20.820 15.457 C 21.035 15.355,21.343 15.060,21.437 14.866 C 21.540 14.652,21.553 14.140,21.460 13.959 C 21.367 13.779,20.972 13.322,20.312 12.629 L 19.711 11.998 20.166 11.529 C 20.744 10.933,21.212 10.399,21.392 10.129 C 21.513 9.947,21.533 9.884,21.536 9.669 C 21.538 9.532,21.526 9.353,21.508 9.272 C 21.468 9.083,21.119 8.694,20.900 8.595 C 20.693 8.500,20.131 8.492,19.944 8.581 C 19.734 8.681,19.298 9.047,18.630 9.685 L 18.000 10.286 17.370 9.687 C 16.238 8.611,16.158 8.557,15.662 8.537 C 15.485 8.529,15.286 8.537,15.220 8.555 " fill="#373B4D" stroke="none" fill-rule="evenodd"></path></svg>