<svg width="24" height="24" viewBox="0 0 24 24" fill="none" xmlns="http://www.w3.org/2000/svg"><path d="M10.556 3.640 C 10.455 3.657,10.315 3.701,10.246 3.737 C 10.177 3.773,9.080 4.834,7.810 6.095 L 5.500 8.389 3.795 8.409 L 2.090 8.430 1.843 8.561 C 1.585 8.699,1.406 8.888,1.289 9.146 C 1.226 9.287,1.220 9.523,1.220 12.000 L 1.220 14.700 1.313 14.888 C 1.431 15.127,1.673 15.369,1.912 15.487 C 2.098 15.579,2.115 15.580,3.800 15.591 L 5.500 15.603 7.540 17.634 C 10.117 20.200,10.182 20.261,10.470 20.345 C 11.039 20.510,11.612 20.242,11.893 19.679 L 12.000 19.464 11.999 12.002 C 11.998 4.658,11.997 4.537,11.919 4.366 C 11.786 4.073,11.614 3.892,11.348 3.764 C 11.070 3.632,10.828 3.594,10.556 3.640 M15.100 8.524 C 14.670 8.751,14.422 9.152,14.423 9.620 C 14.424 10.050,14.523 10.195,15.476 11.169 L 16.291 12.002 15.496 12.811 C 15.058 13.256,14.650 13.694,14.589 13.784 C 14.394 14.070,14.374 14.584,14.542 14.939 C 14.579 15.017,14.705 15.168,14.821 15.274 C 15.067 15.499,15.297 15.580,15.666 15.574 C 16.056 15.567,16.223 15.450,17.168 14.525 L 18.000 13.710 18.832 14.525 C 19.777 15.450,19.944 15.567,20.334 15.574 C 20.741 15.581,20.945 15.500,21.223 15.223 C 21.499 14.946,21.576 14.750,21.572 14.337 C 21.569 13.946,21.454 13.781,20.525 12.832 L 19.710 11.999 20.487 11.209 C 21.370 10.310,21.511 10.129,21.558 9.829 C 21.597 9.585,21.554 9.221,21.466 9.051 C 21.372 8.869,20.991 8.542,20.811 8.488 C 20.723 8.462,20.518 8.440,20.355 8.440 C 19.924 8.441,19.784 8.536,18.816 9.489 L 18.001 10.291 17.146 9.453 C 16.676 8.992,16.222 8.580,16.136 8.538 C 16.025 8.484,15.876 8.458,15.620 8.451 C 15.317 8.441,15.235 8.453,15.100 8.524 " fill="#373B4D" stroke="none" fill-rule="evenodd"></path></svg>