<svg width="24" height="24" viewBox="0 0 24 24" fill="none" xmlns="http://www.w3.org/2000/svg"><path d="M18.076 3.294 C 17.863 3.372,17.578 3.590,17.451 3.772 C 17.356 3.910,17.338 3.980,17.326 4.264 C 17.308 4.695,17.370 4.831,17.947 5.620 C 19.392 7.599,19.927 8.716,20.188 10.300 C 20.246 10.657,20.260 10.973,20.260 11.980 C 20.260 13.363,20.232 13.651,20.018 14.471 C 19.701 15.686,19.128 16.784,18.063 18.220 C 17.362 19.164,17.302 19.285,17.327 19.714 C 17.347 20.067,17.473 20.321,17.728 20.522 C 17.969 20.713,18.176 20.773,18.524 20.753 C 18.752 20.740,18.823 20.716,19.020 20.585 C 19.791 20.073,20.977 18.446,21.652 16.974 C 22.197 15.785,22.500 14.765,22.666 13.560 C 22.762 12.865,22.762 11.149,22.666 10.420 C 22.361 8.105,21.192 5.601,19.682 4.027 C 19.276 3.605,19.052 3.429,18.810 3.344 C 18.566 3.258,18.237 3.236,18.076 3.294 M10.050 3.976 C 9.600 4.353,8.575 5.339,6.860 7.044 L 5.500 8.396 4.200 8.439 C 2.712 8.488,2.049 8.539,1.864 8.616 C 1.664 8.699,1.457 8.902,1.359 9.110 C 1.276 9.287,1.267 9.380,1.237 10.460 C 1.219 11.098,1.203 12.322,1.202 13.180 L 1.200 14.740 1.379 14.968 C 1.477 15.093,1.658 15.271,1.780 15.363 C 2.000 15.529,2.005 15.531,2.451 15.563 C 2.698 15.581,3.485 15.596,4.200 15.598 L 5.501 15.600 6.160 16.264 C 7.163 17.273,9.532 19.572,9.918 19.911 C 10.353 20.293,10.531 20.376,10.859 20.350 C 11.239 20.320,11.575 20.108,11.861 19.719 L 12.009 19.518 11.990 12.049 C 11.976 6.676,11.958 4.541,11.926 4.442 C 11.872 4.275,11.556 3.943,11.352 3.837 C 11.207 3.762,10.789 3.682,10.531 3.681 C 10.429 3.680,10.330 3.741,10.050 3.976 M14.689 6.679 C 14.205 6.794,13.879 7.314,13.932 7.890 C 13.955 8.145,13.983 8.198,14.696 9.320 C 15.035 9.854,15.303 10.393,15.380 10.700 C 15.466 11.040,15.496 11.957,15.445 12.668 C 15.382 13.530,15.348 13.613,14.497 14.982 C 13.957 15.849,13.913 15.947,13.914 16.267 C 13.914 16.586,14.018 16.822,14.268 17.071 C 14.507 17.310,14.724 17.381,15.118 17.348 C 15.485 17.318,15.638 17.231,16.032 16.833 C 16.844 16.012,17.430 14.908,17.781 13.540 C 17.911 13.032,17.918 12.964,17.944 12.054 L 17.971 11.100 17.842 10.624 C 17.548 9.537,17.197 8.722,16.702 7.980 C 16.207 7.238,15.770 6.824,15.380 6.727 C 15.132 6.666,14.833 6.645,14.689 6.679 " fill="#373B4D" stroke="none" fill-rule="evenodd"></path></svg>