<svg width="24" height="24" viewBox="0 0 24 24" fill="none" xmlns="http://www.w3.org/2000/svg"><path d="M18.189 3.205 C 17.959 3.257,17.757 3.376,17.572 3.567 C 17.343 3.803,17.270 3.994,17.270 4.360 C 17.270 4.754,17.353 4.926,17.763 5.382 C 19.347 7.144,20.212 9.115,20.361 11.300 C 20.494 13.251,20.073 15.126,19.140 16.740 C 18.752 17.411,18.412 17.877,17.816 18.552 C 17.349 19.080,17.270 19.239,17.270 19.640 C 17.270 20.012,17.343 20.199,17.588 20.448 C 17.943 20.809,18.480 20.923,18.888 20.726 C 19.121 20.613,19.553 20.216,19.935 19.764 C 21.365 18.073,22.346 15.921,22.659 13.788 C 22.810 12.754,22.810 11.244,22.659 10.212 C 22.408 8.507,21.765 6.860,20.748 5.320 C 19.970 4.140,19.122 3.276,18.689 3.220 C 18.585 3.207,18.464 3.190,18.420 3.183 C 18.376 3.176,18.272 3.186,18.189 3.205 M10.556 3.640 C 10.455 3.657,10.315 3.701,10.246 3.737 C 10.177 3.773,9.080 4.834,7.810 6.095 L 5.500 8.389 3.795 8.409 L 2.090 8.430 1.843 8.561 C 1.585 8.699,1.406 8.888,1.289 9.146 C 1.226 9.287,1.220 9.523,1.220 12.000 L 1.220 14.700 1.313 14.888 C 1.431 15.127,1.673 15.369,1.912 15.487 C 2.098 15.579,2.115 15.580,3.800 15.591 L 5.500 15.603 7.540 17.634 C 10.117 20.200,10.182 20.261,10.470 20.345 C 11.039 20.510,11.612 20.242,11.893 19.679 L 12.000 19.464 11.999 12.002 C 11.998 4.658,11.997 4.537,11.919 4.366 C 11.786 4.073,11.614 3.892,11.348 3.764 C 11.070 3.632,10.828 3.594,10.556 3.640 M14.780 6.598 C 14.351 6.711,14.022 7.022,13.917 7.412 C 13.789 7.886,13.901 8.253,14.320 8.740 C 14.855 9.362,15.208 9.988,15.425 10.700 C 15.526 11.031,15.536 11.126,15.551 11.887 C 15.565 12.638,15.559 12.745,15.479 13.067 C 15.268 13.912,14.923 14.562,14.304 15.280 C 13.977 15.659,13.880 15.873,13.880 16.213 C 13.880 16.607,13.944 16.778,14.189 17.043 C 14.454 17.330,14.640 17.409,15.046 17.410 C 15.443 17.411,15.650 17.313,15.996 16.962 C 16.761 16.187,17.433 14.995,17.735 13.880 C 18.170 12.271,18.049 10.707,17.362 9.068 C 16.971 8.136,16.044 6.923,15.555 6.704 C 15.317 6.598,14.965 6.550,14.780 6.598 " fill="#373B4D" stroke="none" fill-rule="evenodd"></path></svg>