<svg width="24" height="24" viewBox="0 0 24 24" fill="none" xmlns="http://www.w3.org/2000/svg"><path d="M17.120 5.310 C 14.992 10.173,12.707 15.253,11.941 16.825 C 10.964 18.830,10.241 19.634,9.160 19.919 L 8.860 19.998 10.760 19.988 C 12.625 19.978,12.665 19.976,12.940 19.885 C 13.942 19.555,14.770 18.717,15.419 17.380 C 15.989 16.205,20.157 6.821,21.233 4.290 L 21.356 4.000 19.525 4.000 L 17.693 4.000 17.120 5.310 M3.100 4.250 C 3.153 4.365,4.313 6.998,5.680 10.100 C 7.046 13.202,8.190 15.766,8.222 15.799 C 8.273 15.850,8.287 15.850,8.341 15.796 C 8.407 15.730,10.032 11.925,10.065 11.760 C 10.079 11.687,9.620 10.632,8.367 7.860 L 6.651 4.060 4.827 4.050 L 3.004 4.039 3.100 4.250 " fill="#373B4D" stroke="none" fill-rule="evenodd"></path></svg>