<svg width="24" height="24" viewBox="0 0 24 24" fill="none" xmlns="http://www.w3.org/2000/svg"><path d="M17.519 4.390 C 15.716 8.525,13.218 14.090,12.191 16.260 C 11.442 17.842,10.997 18.569,10.423 19.144 C 10.019 19.549,9.835 19.670,9.327 19.864 L 8.980 19.996 10.460 19.996 C 11.274 19.995,12.151 19.981,12.408 19.963 C 12.842 19.934,12.902 19.920,13.216 19.769 C 13.804 19.487,14.318 19.047,14.768 18.440 C 15.264 17.771,15.542 17.184,18.368 10.820 C 20.419 6.203,21.280 4.217,21.280 4.102 C 21.280 4.043,20.189 4.000,18.674 4.000 L 17.689 4.000 17.519 4.390 M3.086 4.075 C 3.045 4.102,3.385 4.908,4.601 7.665 C 7.593 14.448,8.220 15.840,8.284 15.840 C 8.340 15.840,9.009 14.336,9.783 12.469 L 10.078 11.757 9.963 11.469 C 9.836 11.147,8.569 8.299,7.423 5.756 L 6.673 4.093 5.770 4.066 C 4.520 4.030,3.151 4.034,3.086 4.075 " fill="#373B4D" stroke="none" fill-rule="evenodd"></path></svg>