<svg width="24" height="24" viewBox="0 0 24 24" fill="none" xmlns="http://www.w3.org/2000/svg"><path d="M17.102 5.350 C 14.726 10.775,12.155 16.458,11.669 17.360 C 10.794 18.983,10.197 19.599,9.200 19.908 L 8.900 20.001 10.800 19.987 L 12.700 19.973 13.030 19.849 C 13.993 19.488,14.757 18.703,15.397 17.414 C 15.865 16.474,19.954 7.287,21.040 4.740 C 21.199 4.366,21.337 4.046,21.347 4.030 C 21.357 4.014,20.539 4.000,19.529 4.000 L 17.693 4.000 17.102 5.350 M3.187 4.450 C 3.287 4.676,4.071 6.453,4.929 8.400 C 7.795 14.905,8.217 15.840,8.281 15.840 C 8.305 15.840,8.395 15.689,8.481 15.504 C 8.689 15.054,9.639 12.831,9.881 12.229 L 10.075 11.748 10.011 11.584 C 9.860 11.194,9.193 9.690,8.053 7.166 C 7.381 5.678,6.796 4.377,6.753 4.276 L 6.674 4.092 5.987 4.066 C 5.609 4.052,4.784 4.040,4.152 4.040 L 3.005 4.040 3.187 4.450 " fill="#373B4D" stroke="none" fill-rule="evenodd"></path></svg>