<svg width="24" height="24" viewBox="0 0 24 24" fill="none" xmlns="http://www.w3.org/2000/svg"><path d="M17.241 5.028 C 15.072 9.992,12.510 15.666,11.818 17.040 C 11.080 18.507,10.475 19.288,9.787 19.664 C 9.673 19.726,9.436 19.827,9.260 19.888 L 8.940 20.000 10.840 19.987 C 12.944 19.972,12.783 19.991,13.374 19.694 C 13.926 19.417,14.512 18.859,14.944 18.199 C 15.337 17.600,15.772 16.663,18.289 11.000 C 20.449 6.139,21.338 4.085,21.300 4.047 C 21.285 4.032,20.468 4.015,19.483 4.008 L 17.692 3.996 17.241 5.028 M3.014 4.070 C 3.024 4.087,3.806 5.855,4.751 8.000 C 7.736 14.769,8.218 15.840,8.279 15.840 C 8.293 15.840,8.343 15.773,8.389 15.690 C 8.480 15.526,9.312 13.605,9.784 12.467 L 10.079 11.754 9.904 11.327 C 9.722 10.884,8.883 9.004,7.483 5.896 L 6.670 4.092 5.865 4.066 C 4.770 4.031,2.991 4.033,3.014 4.070 " fill="#373B4D" stroke="none" fill-rule="evenodd"></path></svg>