<svg width="24" height="24" viewBox="0 0 24 24" fill="none" xmlns="http://www.w3.org/2000/svg"><path d="M17.439 4.570 C 15.933 8.010,13.885 12.590,12.821 14.900 C 11.623 17.500,11.078 18.469,10.453 19.106 C 10.074 19.494,9.809 19.674,9.360 19.848 L 9.021 19.980 10.420 19.991 C 12.224 20.006,12.774 19.969,13.126 19.809 C 13.658 19.568,14.162 19.178,14.554 18.704 C 15.186 17.939,15.403 17.492,18.194 11.213 C 20.579 5.843,21.314 4.141,21.266 4.093 C 21.226 4.053,19.898 4.004,18.794 4.002 L 17.689 4.000 17.439 4.570 M3.168 4.068 C 3.095 4.082,3.082 4.104,3.102 4.173 C 3.180 4.438,4.818 8.186,6.888 12.836 C 7.877 15.057,8.211 15.777,8.269 15.813 C 8.331 15.851,8.774 14.880,9.625 12.845 L 10.083 11.751 9.815 11.125 C 9.554 10.516,8.144 7.351,7.164 5.176 L 6.675 4.093 5.688 4.066 C 4.634 4.038,3.320 4.039,3.168 4.068 " fill="#373B4D" stroke="none" fill-rule="evenodd"></path></svg>