<svg width="24" height="24" viewBox="0 0 24 24" fill="none" xmlns="http://www.w3.org/2000/svg"><path d="M15.895 3.080 C 15.631 3.213,14.921 3.846,10.846 7.577 C 9.475 8.833,8.341 9.864,8.326 9.870 C 8.312 9.875,7.805 9.510,7.200 9.057 C 5.301 7.638,4.780 7.280,4.610 7.280 C 4.528 7.280,3.556 8.244,3.299 8.580 C 3.031 8.931,2.992 9.027,3.059 9.182 C 3.120 9.324,4.033 10.221,5.173 11.259 L 6.007 12.018 5.852 12.159 C 4.002 13.846,3.072 14.752,3.032 14.907 C 2.992 15.058,3.139 15.290,3.587 15.780 C 4.076 16.314,4.453 16.673,4.578 16.719 C 4.743 16.781,4.895 16.683,6.680 15.362 C 7.351 14.866,7.993 14.392,8.106 14.309 L 8.312 14.159 11.506 17.066 C 15.936 21.097,15.818 20.997,16.131 20.999 C 16.406 21.001,17.247 20.636,19.266 19.637 C 20.708 18.924,20.747 18.898,20.938 18.526 C 21.002 18.400,21.005 17.993,20.987 12.146 C 20.974 8.277,20.952 5.801,20.927 5.640 C 20.891 5.410,20.868 5.364,20.729 5.240 C 20.529 5.063,19.749 4.644,18.200 3.885 C 16.403 3.003,16.192 2.929,15.895 3.080 M16.423 8.730 C 16.462 9.514,16.450 15.404,16.409 15.731 L 16.380 15.961 16.160 15.814 C 15.658 15.477,11.553 12.371,11.300 12.137 C 11.208 12.051,11.200 12.028,11.246 11.972 C 11.381 11.809,16.275 8.080,16.354 8.080 C 16.374 8.080,16.405 8.373,16.423 8.730 " fill="#373B4D" stroke="none" fill-rule="evenodd"></path></svg>