<svg width="24" height="24" viewBox="0 0 24 24" fill="none" xmlns="http://www.w3.org/2000/svg"><path d="M15.820 3.156 C 15.552 3.310,15.045 3.751,13.097 5.524 C 9.414 8.878,8.927 9.320,8.629 9.580 L 8.319 9.850 8.097 9.703 C 7.975 9.622,7.404 9.210,6.828 8.786 C 5.528 7.831,5.017 7.469,4.852 7.385 C 4.592 7.253,4.553 7.275,3.942 7.894 C 3.362 8.480,3.040 8.898,3.040 9.061 C 3.040 9.113,3.126 9.256,3.235 9.387 C 3.422 9.610,4.719 10.851,5.592 11.641 L 6.004 12.014 5.892 12.122 C 5.830 12.181,5.412 12.569,4.962 12.985 C 3.815 14.043,3.089 14.770,3.059 14.892 C 3.044 14.948,3.045 15.032,3.059 15.078 C 3.140 15.332,4.369 16.651,4.572 16.702 C 4.635 16.717,4.735 16.707,4.808 16.677 C 4.956 16.615,5.781 16.031,7.197 14.984 C 7.756 14.571,8.234 14.225,8.258 14.215 C 8.314 14.194,9.011 14.802,11.096 16.694 C 15.956 21.102,15.837 21.000,16.109 21.000 C 16.389 21.000,17.377 20.573,19.300 19.619 C 20.362 19.092,20.691 18.891,20.856 18.667 C 20.937 18.559,20.941 18.493,20.964 17.027 C 20.978 16.187,20.978 13.268,20.964 10.540 C 20.937 5.073,20.958 5.479,20.694 5.235 C 20.482 5.040,19.245 4.385,17.690 3.644 C 16.319 2.991,16.173 2.953,15.820 3.156 M16.375 8.210 C 16.410 8.342,16.405 15.920,16.370 15.920 C 16.300 15.920,15.961 15.675,14.176 14.338 C 12.285 12.922,11.316 12.170,11.257 12.076 C 11.215 12.007,11.406 11.843,12.660 10.865 C 14.428 9.487,16.249 8.120,16.318 8.120 C 16.336 8.120,16.362 8.160,16.375 8.210 " fill="#373B4D" stroke="none" fill-rule="evenodd"></path></svg>