<svg width="24" height="24" viewBox="0 0 24 24" fill="none" xmlns="http://www.w3.org/2000/svg"><path d="M15.763 3.178 C 15.408 3.417,14.731 4.025,10.163 8.200 C 9.189 9.091,8.362 9.825,8.326 9.831 C 8.290 9.837,7.972 9.628,7.620 9.368 C 5.309 7.659,4.985 7.430,4.728 7.323 C 4.607 7.273,4.595 7.278,4.375 7.466 C 4.049 7.744,3.339 8.504,3.177 8.747 C 2.939 9.106,2.944 9.117,3.690 9.856 C 4.048 10.210,4.714 10.841,5.172 11.258 L 6.003 12.015 5.892 12.122 C 5.830 12.180,5.420 12.559,4.980 12.963 C 4.540 13.367,3.924 13.952,3.610 14.264 C 2.969 14.902,2.955 14.931,3.153 15.242 C 3.301 15.474,3.961 16.203,4.285 16.492 C 4.438 16.629,4.577 16.720,4.632 16.720 C 4.822 16.720,5.024 16.585,6.920 15.187 C 7.635 14.660,8.240 14.213,8.265 14.193 C 8.295 14.170,9.300 15.059,11.247 16.829 C 15.828 20.995,15.834 21.000,16.099 21.000 C 16.368 21.000,16.909 20.777,18.540 19.993 C 20.410 19.095,20.739 18.899,20.913 18.582 C 20.975 18.469,20.980 17.998,20.974 12.300 C 20.970 8.912,20.955 5.992,20.940 5.811 C 20.906 5.395,20.836 5.287,20.443 5.050 C 19.784 4.651,17.015 3.284,16.528 3.116 C 16.191 3.000,16.005 3.015,15.763 3.178 M16.419 12.087 C 16.419 14.169,16.406 15.887,16.390 15.903 C 16.373 15.920,16.312 15.908,16.254 15.877 C 16.148 15.820,13.035 13.492,12.040 12.724 C 11.425 12.250,11.240 12.086,11.240 12.014 C 11.240 11.942,14.331 9.545,15.840 8.446 L 16.340 8.082 16.379 8.191 C 16.403 8.258,16.418 9.744,16.419 12.087 " fill="#373B4D" stroke="none" fill-rule="evenodd"></path></svg>