<svg width="24" height="24" viewBox="0 0 24 24" fill="none" xmlns="http://www.w3.org/2000/svg"><path d="M15.920 3.051 C 15.843 3.080,15.749 3.122,15.711 3.143 C 15.673 3.164,14.003 4.684,11.999 6.521 C 9.996 8.357,8.340 9.866,8.320 9.873 C 8.299 9.880,7.527 9.313,6.602 8.613 C 5.678 7.913,4.867 7.324,4.801 7.304 C 4.557 7.232,4.459 7.303,3.750 8.061 C 3.027 8.836,2.953 8.955,3.035 9.206 C 3.070 9.310,3.429 9.661,4.543 10.681 L 6.007 12.020 5.869 12.140 C 5.794 12.206,5.136 12.807,4.408 13.475 C 3.014 14.753,2.962 14.814,3.021 15.086 C 3.059 15.258,4.321 16.628,4.516 16.709 C 4.626 16.755,4.687 16.758,4.798 16.724 C 4.877 16.700,5.674 16.124,6.600 15.421 C 7.513 14.728,8.283 14.166,8.311 14.171 C 8.339 14.176,10.001 15.683,12.004 17.520 C 14.008 19.357,15.713 20.891,15.794 20.929 C 15.977 21.015,16.204 21.018,16.475 20.938 C 16.590 20.904,17.543 20.470,18.592 19.975 C 20.599 19.027,20.708 18.963,20.893 18.620 L 20.980 18.460 20.990 12.102 C 21.002 4.917,21.028 5.501,20.684 5.165 C 20.530 5.014,20.178 4.828,18.500 4.009 C 16.347 2.958,16.257 2.924,15.920 3.051 M16.470 14.032 L 16.460 16.071 13.809 14.065 C 12.351 12.962,11.157 12.042,11.155 12.020 C 11.152 11.998,12.345 11.076,13.805 9.971 L 16.460 7.963 16.470 9.978 C 16.476 11.087,16.476 12.911,16.470 14.032 " fill="#373B4D" stroke="none" fill-rule="evenodd"></path></svg>