<svg width="24" height="24" viewBox="0 0 24 24" fill="none" xmlns="http://www.w3.org/2000/svg"><path d="M15.857 3.076 C 15.703 3.146,14.662 4.077,11.760 6.740 C 11.111 7.335,10.071 8.286,9.449 8.854 L 8.317 9.885 8.109 9.733 C 7.994 9.650,7.405 9.212,6.800 8.760 C 4.599 7.114,4.707 7.174,4.400 7.415 C 4.301 7.492,4.039 7.750,3.818 7.988 C 3.039 8.824,2.934 8.996,3.057 9.234 C 3.121 9.358,3.766 9.975,5.172 11.257 L 6.003 12.015 5.912 12.102 C 5.861 12.150,5.280 12.683,4.620 13.287 C 2.990 14.778,2.912 14.871,3.055 15.136 C 3.224 15.450,4.411 16.694,4.583 16.737 C 4.652 16.754,4.745 16.736,4.854 16.682 C 4.945 16.638,5.686 16.104,6.500 15.496 C 7.314 14.888,8.055 14.339,8.146 14.276 L 8.312 14.162 8.986 14.770 C 9.357 15.104,10.488 16.135,11.500 17.061 C 13.508 18.897,15.404 20.612,15.666 20.826 C 15.880 21.002,16.143 21.041,16.446 20.942 C 17.019 20.754,20.406 19.125,20.651 18.919 C 20.735 18.849,20.847 18.704,20.901 18.597 L 21.000 18.403 20.999 12.391 C 20.999 6.588,20.982 5.619,20.877 5.388 C 20.781 5.179,20.441 4.980,18.740 4.139 C 16.384 2.974,16.217 2.912,15.857 3.076 M16.470 12.000 C 16.470 13.573,16.458 15.126,16.445 15.452 L 16.420 16.043 14.720 14.756 C 12.583 13.138,11.205 12.080,11.178 12.037 C 11.154 11.998,11.875 11.435,14.480 9.462 L 16.420 7.992 16.445 8.566 C 16.459 8.882,16.470 10.427,16.470 12.000 " fill="#373B4D" stroke="none" fill-rule="evenodd"></path></svg>