<svg width="24" height="24" viewBox="0 0 24 24" fill="none" xmlns="http://www.w3.org/2000/svg"><path d="M3.195 4.330 C 3.302 4.511,5.117 7.621,7.229 11.240 C 12.182 19.727,12.293 19.916,12.329 19.894 C 12.407 19.846,15.441 14.679,20.957 5.200 L 21.643 4.020 19.912 4.007 C 18.959 4.000,17.385 4.007,16.413 4.022 L 14.647 4.049 13.796 5.535 C 12.389 7.992,12.395 7.982,12.330 7.895 C 12.284 7.834,10.584 4.998,10.148 4.256 L 10.029 4.053 8.708 4.026 C 7.981 4.012,6.400 4.000,5.194 4.000 L 3.001 4.000 3.195 4.330 M7.558 7.491 C 8.728 9.487,11.501 14.205,12.165 15.329 C 12.239 15.455,12.311 15.559,12.324 15.559 C 12.364 15.560,13.892 12.980,17.482 6.853 L 18.540 5.046 18.860 5.020 C 19.036 5.006,19.345 5.000,19.548 5.007 L 19.915 5.020 16.848 10.280 C 13.767 15.562,12.878 17.073,12.508 17.653 L 12.309 17.966 11.969 17.393 C 11.555 16.693,5.632 6.539,5.147 5.697 C 4.956 5.365,4.800 5.073,4.800 5.047 C 4.800 5.013,4.980 5.000,5.450 5.001 L 6.100 5.001 7.558 7.491 " stroke="none" fill-rule="evenodd"></path></svg>