<svg width="24" height="24" viewBox="0 0 24 24" fill="none" xmlns="http://www.w3.org/2000/svg"><path d="M7.642 11.947 C 10.192 16.318,12.294 19.910,12.313 19.929 C 12.333 19.949,14.362 16.512,16.994 11.999 C 19.549 7.618,21.640 4.026,21.640 4.017 C 21.640 4.007,20.070 4.004,18.151 4.010 L 14.663 4.020 13.536 5.993 C 12.916 7.077,12.397 7.968,12.381 7.973 C 12.366 7.977,11.826 7.089,11.180 6.000 L 10.005 4.020 6.506 4.010 L 3.006 4.000 7.642 11.947 M9.196 10.281 C 10.899 13.186,12.305 15.571,12.322 15.581 C 12.339 15.592,13.748 13.219,15.453 10.310 L 18.555 5.020 19.242 5.009 L 19.929 4.998 19.853 5.129 C 19.810 5.201,18.105 8.128,16.062 11.633 C 13.105 16.706,12.338 17.994,12.300 17.953 C 12.245 17.892,4.760 5.057,4.760 5.023 C 4.760 5.010,5.062 5.000,5.430 5.000 L 6.100 5.000 9.196 10.281 " stroke="none" fill-rule="evenodd" fill="black"></path></svg>