<svg width="24" height="24" viewBox="0 0 24 24" fill="none" xmlns="http://www.w3.org/2000/svg"><path d="M10.260 3.197 C 8.725 3.555,7.580 4.098,6.420 5.017 C 4.725 6.361,3.616 8.183,3.180 10.340 C 2.806 12.197,2.996 13.608,3.935 15.915 L 4.201 16.570 3.817 17.995 C 3.336 19.780,3.039 20.932,3.055 20.948 C 3.066 20.959,5.667 20.308,7.137 19.927 L 7.734 19.772 8.072 19.930 C 8.480 20.121,9.626 20.503,10.340 20.687 L 10.860 20.820 12.020 20.819 C 13.076 20.818,13.218 20.810,13.600 20.727 C 15.588 20.296,16.999 19.533,18.380 18.143 C 19.619 16.896,20.431 15.366,20.866 13.460 C 20.928 13.187,20.939 12.966,20.936 11.960 C 20.933 10.626,20.906 10.429,20.596 9.458 C 20.056 7.767,19.285 6.557,17.987 5.366 C 16.823 4.297,15.442 3.580,13.880 3.233 C 13.539 3.157,13.349 3.147,12.040 3.135 C 10.727 3.124,10.548 3.130,10.260 3.197 M12.606 4.762 C 14.953 5.003,16.968 6.171,18.190 8.000 C 18.577 8.580,19.037 9.607,19.180 10.209 C 19.288 10.666,19.328 11.704,19.281 12.825 L 19.238 13.855 19.014 14.397 C 18.574 15.461,18.211 16.096,17.675 16.740 C 16.752 17.848,15.498 18.677,14.111 19.095 C 13.499 19.280,13.012 19.358,12.300 19.387 C 11.013 19.438,9.839 19.185,8.467 18.560 L 7.930 18.316 6.955 18.576 C 5.596 18.938,5.281 19.014,5.252 18.986 C 5.216 18.949,5.294 18.629,5.625 17.450 L 5.920 16.400 5.619 15.850 C 5.108 14.913,4.834 14.105,4.697 13.131 C 4.607 12.484,4.638 11.272,4.759 10.704 C 5.251 8.409,6.673 6.561,8.748 5.522 C 10.036 4.878,11.299 4.629,12.606 4.762 M8.620 8.195 C 8.369 8.310,8.095 8.637,7.894 9.062 C 7.365 10.178,7.675 11.441,8.859 13.000 C 9.264 13.534,10.632 14.903,11.068 15.213 C 11.475 15.501,12.078 15.816,12.680 16.054 C 13.814 16.503,14.784 16.613,15.431 16.367 C 15.697 16.266,16.078 16.000,16.271 15.780 C 16.485 15.537,16.660 15.068,16.658 14.740 C 16.655 14.281,16.443 14.037,15.744 13.689 C 14.919 13.279,14.426 13.115,14.193 13.173 C 14.141 13.186,13.907 13.418,13.662 13.698 C 13.422 13.974,13.194 14.209,13.156 14.221 C 12.904 14.301,12.016 13.839,11.350 13.281 C 10.702 12.739,9.959 11.826,9.897 11.497 C 9.867 11.337,9.931 11.209,10.260 10.779 C 10.542 10.409,10.586 10.284,10.518 10.034 C 10.441 9.745,10.165 9.084,9.935 8.633 C 9.680 8.135,9.656 8.120,9.124 8.121 C 8.877 8.122,8.735 8.142,8.620 8.195 " fill="#373B4D" stroke="none" fill-rule="evenodd"></path></svg>