<svg width="24" height="24" viewBox="0 0 24 24" fill="none" xmlns="http://www.w3.org/2000/svg"><path d="M10.600 3.116 C 9.083 3.381,7.777 3.947,6.546 4.875 C 5.124 5.945,4.060 7.429,3.485 9.140 C 2.722 11.408,2.867 13.648,3.922 15.886 C 4.082 16.224,4.210 16.527,4.208 16.560 C 4.207 16.593,3.952 17.538,3.643 18.660 C 3.334 19.782,3.070 20.761,3.055 20.836 L 3.028 20.971 3.170 20.945 C 3.248 20.930,4.304 20.659,5.517 20.342 L 7.723 19.766 8.063 19.926 C 9.211 20.464,10.570 20.823,11.627 20.869 C 14.318 20.984,16.922 19.868,18.724 17.825 C 21.124 15.107,21.668 11.395,20.135 8.200 C 19.823 7.550,19.612 7.202,19.178 6.620 C 17.960 4.988,16.168 3.776,14.270 3.302 C 13.440 3.094,13.234 3.071,12.100 3.057 C 11.189 3.045,10.954 3.054,10.600 3.116 M12.458 4.721 C 13.486 4.795,14.350 5.020,15.234 5.443 C 16.789 6.187,17.913 7.267,18.638 8.715 C 18.904 9.245,19.054 9.655,19.213 10.280 L 19.340 10.780 19.340 12.060 C 19.340 13.339,19.340 13.340,19.227 13.760 C 18.717 15.652,17.665 17.140,16.099 18.183 C 14.322 19.367,12.131 19.717,10.009 19.157 C 9.480 19.018,9.126 18.882,8.436 18.553 L 7.932 18.313 6.603 18.679 C 5.873 18.880,5.250 19.039,5.220 19.032 C 5.178 19.023,5.255 18.708,5.543 17.707 L 5.921 16.394 5.693 16.027 C 4.398 13.938,4.238 11.268,5.274 9.028 C 6.258 6.901,8.328 5.273,10.603 4.838 C 10.854 4.789,11.231 4.737,11.440 4.721 C 11.649 4.705,11.838 4.689,11.860 4.686 C 11.882 4.683,12.151 4.699,12.458 4.721 M8.695 8.108 C 8.454 8.155,7.983 8.736,7.798 9.212 C 7.410 10.213,7.650 11.293,8.550 12.600 C 9.281 13.661,10.339 14.746,11.216 15.333 C 11.788 15.716,12.615 16.084,13.520 16.358 C 14.020 16.509,14.658 16.560,15.097 16.483 C 15.494 16.414,15.888 16.201,16.202 15.885 C 16.431 15.654,16.476 15.582,16.555 15.330 C 16.697 14.875,16.708 14.646,16.599 14.372 C 16.549 14.244,16.471 14.100,16.428 14.051 C 16.291 13.899,15.232 13.385,14.623 13.175 C 14.184 13.024,14.161 13.031,13.907 13.390 C 13.787 13.560,13.585 13.824,13.459 13.975 L 13.230 14.250 13.008 14.227 C 12.852 14.211,12.664 14.143,12.378 13.999 C 11.568 13.592,10.673 12.801,10.170 12.048 C 9.909 11.658,9.820 11.447,9.855 11.305 C 9.868 11.254,10.013 11.062,10.178 10.877 C 10.603 10.399,10.620 10.355,10.515 10.014 C 10.316 9.367,9.861 8.337,9.705 8.181 C 9.609 8.085,9.583 8.080,9.192 8.085 C 8.965 8.088,8.742 8.098,8.695 8.108 " fill="#373B4D" stroke="none" fill-rule="evenodd"></path></svg>