<svg width="24" height="24" viewBox="0 0 24 24" fill="none" xmlns="http://www.w3.org/2000/svg"><path d="M10.700 3.108 C 10.387 3.151,9.621 3.342,9.185 3.487 C 7.322 4.102,5.580 5.433,4.512 7.057 C 3.491 8.608,2.945 10.504,3.013 12.260 C 3.060 13.456,3.284 14.353,3.917 15.875 L 4.205 16.567 3.879 17.774 C 3.162 20.430,3.033 20.927,3.056 20.950 C 3.070 20.963,4.125 20.703,5.402 20.372 L 7.724 19.771 8.156 19.964 C 8.978 20.330,10.102 20.671,10.940 20.807 C 11.414 20.884,12.720 20.872,13.240 20.786 C 14.958 20.503,16.420 19.859,17.656 18.841 C 18.018 18.544,18.731 17.822,19.022 17.460 C 19.967 16.281,20.650 14.743,20.904 13.220 C 20.985 12.735,20.996 11.353,20.923 10.840 C 20.738 9.538,20.194 8.117,19.470 7.040 C 18.832 6.092,17.891 5.152,16.960 4.531 C 15.815 3.768,14.435 3.244,13.246 3.122 C 12.858 3.083,10.965 3.072,10.700 3.108 M12.900 4.784 C 14.721 5.006,16.472 5.914,17.626 7.233 C 18.331 8.040,18.838 8.987,19.167 10.115 C 19.286 10.523,19.292 10.576,19.308 11.440 C 19.318 11.935,19.309 12.664,19.289 13.060 L 19.253 13.780 19.041 14.340 C 18.575 15.577,18.078 16.375,17.249 17.214 C 16.164 18.313,14.828 19.015,13.272 19.305 C 12.810 19.391,11.675 19.422,11.159 19.362 C 10.265 19.260,9.375 18.995,8.437 18.552 L 7.935 18.315 6.666 18.657 C 5.968 18.846,5.352 19.000,5.296 19.000 C 5.219 19.000,5.199 18.983,5.215 18.930 C 5.226 18.892,5.282 18.680,5.340 18.460 C 5.399 18.240,5.553 17.686,5.684 17.229 L 5.922 16.399 5.677 15.974 C 5.039 14.870,4.741 13.930,4.634 12.689 C 4.475 10.838,5.059 8.979,6.272 7.476 C 6.652 7.004,7.357 6.353,7.828 6.038 C 8.649 5.489,9.629 5.060,10.475 4.879 C 11.401 4.681,11.899 4.661,12.900 4.784 M8.759 8.114 C 8.396 8.192,7.966 8.738,7.743 9.407 C 7.657 9.662,7.640 9.788,7.640 10.151 C 7.640 10.709,7.730 11.070,8.022 11.676 C 8.428 12.521,8.994 13.274,9.919 14.202 C 10.960 15.246,11.575 15.646,12.911 16.147 C 13.494 16.366,13.786 16.438,14.260 16.480 C 15.079 16.552,15.453 16.456,16.026 16.025 C 16.251 15.856,16.325 15.770,16.445 15.537 C 16.528 15.375,16.612 15.133,16.640 14.974 C 16.683 14.733,16.681 14.665,16.624 14.468 C 16.518 14.102,16.385 13.987,15.660 13.635 C 14.967 13.298,14.321 13.062,14.200 13.100 C 14.158 13.113,13.924 13.375,13.680 13.682 C 13.181 14.309,13.193 14.302,12.783 14.161 C 11.845 13.838,10.638 12.819,10.063 11.862 C 9.882 11.561,9.828 11.377,9.888 11.264 C 9.913 11.218,10.058 11.028,10.210 10.843 C 10.530 10.454,10.576 10.358,10.542 10.146 C 10.480 9.754,9.863 8.345,9.680 8.180 C 9.622 8.127,9.517 8.107,9.251 8.097 C 9.058 8.090,8.836 8.098,8.759 8.114 " fill="#373B4D" stroke="none" fill-rule="evenodd"></path></svg>