<svg width="24" height="24" viewBox="0 0 24 24" fill="none" xmlns="http://www.w3.org/2000/svg"><path d="M10.920 3.081 C 10.217 3.148,9.136 3.451,8.376 3.795 C 5.620 5.039,3.732 7.422,3.163 10.372 C 2.807 12.221,3.038 13.901,3.922 15.886 C 4.075 16.230,4.200 16.535,4.200 16.563 C 4.200 16.592,3.939 17.572,3.620 18.741 C 3.301 19.909,3.040 20.887,3.040 20.913 C 3.040 20.939,3.063 20.960,3.091 20.960 C 3.119 20.960,4.174 20.692,5.435 20.364 L 7.727 19.768 8.098 19.940 C 8.894 20.309,9.967 20.643,10.800 20.780 C 12.406 21.045,14.298 20.747,15.868 19.983 C 16.795 19.532,17.600 18.961,18.300 18.261 C 19.093 17.466,19.625 16.723,20.103 15.740 C 20.517 14.888,20.755 14.137,20.908 13.195 C 21.015 12.542,21.003 11.252,20.884 10.580 C 20.376 7.699,18.592 5.279,16.012 3.969 C 15.192 3.552,14.132 3.215,13.360 3.124 C 12.894 3.069,11.335 3.042,10.920 3.081 M12.384 4.721 C 13.397 4.801,14.137 4.974,14.933 5.315 C 16.676 6.063,17.959 7.276,18.722 8.900 C 18.936 9.354,19.079 9.763,19.224 10.336 C 19.324 10.729,19.324 10.745,19.311 12.156 L 19.297 13.580 19.164 14.000 C 18.754 15.295,18.131 16.349,17.261 17.221 C 15.845 18.639,14.001 19.408,12.023 19.406 C 10.749 19.405,9.717 19.162,8.477 18.573 L 7.934 18.314 6.677 18.654 C 5.016 19.103,5.190 19.074,5.224 18.891 C 5.239 18.808,5.402 18.212,5.587 17.567 L 5.922 16.394 5.725 16.067 C 5.409 15.540,5.164 15.021,4.997 14.522 C 4.091 11.812,4.768 8.918,6.780 6.907 C 7.410 6.276,8.008 5.854,8.860 5.438 C 9.673 5.041,10.498 4.812,11.440 4.723 C 11.627 4.705,11.800 4.688,11.824 4.685 C 11.848 4.682,12.100 4.698,12.384 4.721 M8.740 8.109 C 8.388 8.160,7.838 8.931,7.677 9.600 C 7.607 9.894,7.615 10.477,7.694 10.808 C 7.951 11.881,8.796 13.136,10.131 14.424 C 10.976 15.239,11.551 15.611,12.629 16.039 C 13.561 16.410,13.909 16.491,14.580 16.496 C 15.068 16.499,15.171 16.488,15.380 16.409 C 15.691 16.293,16.126 15.995,16.307 15.774 C 16.476 15.568,16.633 15.160,16.665 14.845 C 16.693 14.567,16.568 14.197,16.388 14.029 C 16.162 13.818,14.702 13.156,14.330 13.097 C 14.151 13.068,14.184 13.036,13.593 13.797 C 13.432 14.004,13.269 14.192,13.232 14.215 C 13.049 14.328,12.336 14.034,11.712 13.588 C 10.857 12.976,10.045 12.045,9.876 11.483 C 9.822 11.302,9.834 11.281,10.288 10.750 C 10.625 10.355,10.630 10.291,10.379 9.619 C 10.055 8.752,9.769 8.195,9.610 8.123 C 9.520 8.082,8.988 8.073,8.740 8.109 " fill="#373B4D" stroke="none" fill-rule="evenodd"></path></svg>