<svg width="24" height="24" viewBox="0 0 24 24" fill="none" xmlns="http://www.w3.org/2000/svg"><path d="M11.140 3.042 C 7.861 3.379,4.988 5.489,3.719 8.493 C 2.690 10.931,2.775 13.592,3.958 15.970 L 4.232 16.520 3.618 18.749 C 3.281 19.975,3.008 20.982,3.013 20.987 C 3.018 20.991,4.081 20.718,5.375 20.379 L 7.728 19.763 7.916 19.858 C 8.538 20.173,9.711 20.578,10.400 20.714 C 11.158 20.865,11.499 20.892,12.300 20.867 C 13.648 20.824,14.732 20.554,15.940 19.962 C 16.908 19.487,17.654 18.943,18.443 18.134 C 20.622 15.903,21.489 12.724,20.722 9.778 C 20.479 8.842,20.057 7.898,19.525 7.097 C 18.061 4.892,15.881 3.488,13.320 3.101 C 12.807 3.024,11.629 2.992,11.140 3.042 M12.620 4.722 C 13.919 4.835,15.115 5.255,16.206 5.984 C 17.095 6.578,17.663 7.140,18.223 7.981 C 18.734 8.748,19.062 9.542,19.269 10.514 C 19.369 10.986,19.377 11.088,19.378 12.040 C 19.380 12.952,19.370 13.106,19.289 13.491 C 18.781 15.895,17.168 17.863,14.912 18.831 C 13.837 19.292,12.642 19.491,11.485 19.403 C 10.365 19.317,9.499 19.083,8.560 18.611 C 8.241 18.451,7.958 18.320,7.930 18.320 C 7.903 18.320,7.274 18.490,6.532 18.698 C 5.790 18.907,5.176 19.070,5.167 19.061 C 5.158 19.052,5.325 18.448,5.537 17.719 L 5.924 16.394 5.717 16.071 C 4.891 14.785,4.517 13.285,4.607 11.632 C 4.785 8.373,7.303 5.498,10.556 4.840 C 11.286 4.693,11.882 4.659,12.620 4.722 M8.580 8.154 C 8.384 8.273,8.066 8.650,7.911 8.945 C 7.548 9.637,7.518 10.449,7.823 11.267 C 8.145 12.129,8.914 13.226,9.880 14.203 C 10.930 15.265,11.740 15.768,13.167 16.246 C 13.429 16.333,13.764 16.431,13.912 16.462 C 14.271 16.538,14.961 16.536,15.262 16.458 C 15.745 16.333,16.329 15.892,16.481 15.538 C 16.648 15.149,16.735 14.599,16.647 14.498 C 16.628 14.477,16.592 14.384,16.566 14.291 C 16.539 14.199,16.469 14.075,16.409 14.018 C 16.270 13.884,15.055 13.309,14.589 13.156 C 14.197 13.028,14.124 13.038,14.025 13.231 C 13.977 13.323,13.591 13.827,13.321 14.150 C 13.200 14.295,12.942 14.273,12.536 14.083 C 11.455 13.576,10.410 12.603,9.926 11.652 C 9.779 11.364,9.804 11.269,10.112 10.946 C 10.261 10.789,10.433 10.585,10.494 10.494 C 10.598 10.339,10.602 10.317,10.559 10.154 C 10.420 9.632,9.879 8.355,9.727 8.190 C 9.627 8.082,9.616 8.080,9.163 8.080 C 8.785 8.080,8.678 8.094,8.580 8.154 " fill="#373B4D" stroke="none" fill-rule="evenodd"></path></svg>