<svg width="24" height="24" viewBox="0 0 24 24" fill="none" xmlns="http://www.w3.org/2000/svg"><path d="M10.680 3.118 C 10.326 3.165,9.545 3.366,9.038 3.542 C 7.096 4.214,5.262 5.731,4.233 7.519 C 3.391 8.981,2.940 10.752,3.015 12.300 C 3.073 13.511,3.290 14.352,3.966 15.993 L 4.202 16.567 3.744 18.273 C 3.156 20.459,3.035 20.929,3.055 20.948 C 3.069 20.963,5.311 20.401,7.059 19.945 L 7.738 19.768 7.895 19.848 C 8.525 20.169,9.874 20.603,10.810 20.786 C 11.267 20.875,12.702 20.873,13.260 20.782 C 15.486 20.420,17.257 19.440,18.788 17.724 C 19.730 16.669,20.524 15.054,20.846 13.540 C 20.932 13.137,20.940 13.004,20.940 11.960 C 20.940 10.719,20.926 10.598,20.674 9.700 C 20.339 8.503,19.782 7.399,19.041 6.460 C 18.683 6.007,17.848 5.191,17.396 4.852 C 16.234 3.980,14.908 3.394,13.600 3.175 C 13.198 3.108,11.076 3.067,10.680 3.118 M12.660 4.761 C 13.646 4.870,14.533 5.121,15.344 5.520 C 17.240 6.454,18.504 7.960,19.146 10.051 C 19.292 10.529,19.343 11.513,19.289 12.820 L 19.247 13.820 18.982 14.479 C 18.468 15.758,17.938 16.562,17.062 17.391 C 15.876 18.513,14.323 19.225,12.755 19.364 C 11.226 19.499,9.921 19.248,8.378 18.524 L 7.937 18.316 6.738 18.635 C 5.381 18.995,5.297 19.015,5.244 18.982 C 5.203 18.957,5.248 18.777,5.664 17.306 L 5.922 16.392 5.719 16.039 C 5.043 14.856,4.751 13.939,4.639 12.639 C 4.532 11.393,4.799 10.038,5.380 8.881 C 6.227 7.191,7.594 5.943,9.380 5.228 C 10.463 4.795,11.559 4.638,12.660 4.761 M8.856 8.117 C 8.504 8.158,8.184 8.456,7.922 8.986 C 7.697 9.441,7.660 9.614,7.662 10.200 C 7.664 10.701,7.674 10.767,7.794 11.120 C 8.123 12.081,8.806 13.073,9.893 14.166 C 10.706 14.983,11.177 15.347,11.878 15.699 C 13.391 16.459,14.734 16.695,15.514 16.339 C 15.835 16.192,16.228 15.885,16.361 15.678 C 16.496 15.468,16.622 15.126,16.661 14.865 C 16.701 14.600,16.593 14.273,16.402 14.082 C 16.127 13.807,14.668 13.146,14.327 13.142 C 14.153 13.140,14.141 13.148,13.891 13.440 C 13.750 13.605,13.530 13.855,13.402 13.996 C 13.183 14.236,13.160 14.251,13.030 14.229 C 12.774 14.188,12.287 13.957,11.851 13.670 C 11.123 13.191,10.164 12.163,9.937 11.618 C 9.833 11.370,9.861 11.286,10.179 10.883 C 10.554 10.407,10.586 10.333,10.528 10.081 C 10.417 9.602,9.816 8.276,9.667 8.184 C 9.563 8.119,9.140 8.084,8.856 8.117 " fill="#373B4D" stroke="none" fill-rule="evenodd"></path></svg>