<svg width="24" height="24" viewBox="0 0 24 24" fill="none" xmlns="http://www.w3.org/2000/svg"><path d="M10.320 3.798 C 9.588 3.834,9.171 3.897,8.340 4.101 C 6.206 4.622,4.058 5.670,2.280 7.058 C 1.925 7.335,1.093 8.134,0.846 8.434 C 0.722 8.586,0.701 8.643,0.687 8.864 C 0.668 9.166,0.748 9.451,0.926 9.709 C 1.245 10.173,1.843 10.280,2.361 9.965 C 2.492 9.885,2.973 9.541,3.430 9.200 C 4.637 8.299,5.282 7.884,6.099 7.481 C 7.284 6.897,8.174 6.583,9.278 6.358 C 10.169 6.177,10.628 6.149,12.376 6.171 C 13.925 6.191,13.946 6.192,14.520 6.312 C 16.029 6.626,16.904 6.932,18.040 7.543 C 18.830 7.967,19.246 8.243,20.520 9.186 C 21.581 9.971,21.926 10.160,22.300 10.160 C 22.503 10.160,22.915 9.928,23.068 9.727 C 23.339 9.372,23.389 8.853,23.185 8.505 C 22.909 8.035,21.786 7.045,20.720 6.333 C 18.766 5.029,16.277 4.065,14.329 3.859 C 13.671 3.790,11.261 3.753,10.320 3.798 M10.740 8.560 C 10.092 8.598,9.590 8.699,8.860 8.939 C 7.651 9.336,6.388 9.979,5.489 10.657 C 4.955 11.060,4.194 11.847,4.129 12.065 C 4.028 12.402,4.080 12.749,4.275 13.039 C 4.442 13.287,4.690 13.468,4.933 13.518 C 5.327 13.600,5.689 13.446,6.620 12.803 C 8.113 11.771,9.114 11.278,10.160 11.059 C 10.880 10.909,12.659 10.888,13.522 11.019 C 14.709 11.200,15.473 11.549,17.214 12.708 C 17.802 13.099,18.335 13.425,18.450 13.463 C 18.710 13.550,19.117 13.524,19.345 13.408 C 19.744 13.204,19.981 12.669,19.904 12.150 C 19.870 11.924,19.585 11.570,19.091 11.138 C 17.787 9.996,15.803 8.999,14.249 8.704 C 13.559 8.573,11.773 8.500,10.740 8.560 M11.220 13.307 C 9.834 13.480,8.023 14.501,7.577 15.361 C 7.417 15.669,7.414 16.022,7.569 16.286 C 7.820 16.712,8.243 16.947,8.696 16.910 C 8.975 16.888,9.128 16.818,9.826 16.396 C 10.879 15.758,11.137 15.689,12.299 15.736 L 12.979 15.764 13.399 15.988 C 13.631 16.111,14.054 16.348,14.340 16.513 C 14.986 16.888,15.201 16.973,15.444 16.950 C 15.980 16.900,16.560 16.337,16.560 15.869 C 16.560 15.673,16.409 15.284,16.264 15.107 C 15.814 14.558,14.647 13.818,13.840 13.569 C 13.233 13.382,11.781 13.237,11.220 13.307 M11.460 18.191 C 11.258 18.321,10.977 18.652,10.901 18.851 C 10.815 19.078,10.835 19.346,10.959 19.628 C 11.090 19.924,11.220 20.064,11.486 20.197 C 11.799 20.353,12.193 20.369,12.466 20.237 C 12.827 20.062,13.160 19.590,13.160 19.253 C 13.160 18.896,12.904 18.424,12.621 18.259 C 12.459 18.164,12.383 18.148,12.008 18.132 C 11.635 18.117,11.565 18.124,11.460 18.191 " fill="#373B4D" stroke="none" fill-rule="evenodd"></path></svg>