<svg width="24" height="24" viewBox="0 0 24 24" fill="none" xmlns="http://www.w3.org/2000/svg"><path d="M9.720 3.807 C 9.064 3.920,8.231 4.107,7.691 4.262 C 5.632 4.853,3.544 5.967,1.920 7.343 C 1.491 7.707,0.885 8.331,0.757 8.540 C 0.466 9.019,0.852 9.934,1.417 10.101 C 1.735 10.196,1.992 10.178,2.264 10.041 C 2.394 9.976,2.824 9.671,3.220 9.363 C 4.565 8.317,5.184 7.911,6.180 7.421 C 7.403 6.819,8.344 6.513,9.772 6.254 C 10.291 6.160,10.459 6.149,11.733 6.131 C 13.176 6.111,13.500 6.130,14.390 6.284 C 16.644 6.673,18.380 7.502,20.620 9.256 C 21.528 9.968,21.792 10.119,22.176 10.150 C 22.403 10.168,22.466 10.157,22.658 10.063 C 23.243 9.776,23.488 9.111,23.218 8.539 C 23.026 8.133,22.181 7.362,21.023 6.536 C 18.934 5.045,16.199 3.983,13.980 3.801 C 13.377 3.751,10.016 3.756,9.720 3.807 M10.180 8.582 C 8.771 8.846,7.139 9.522,5.879 10.364 C 5.088 10.893,4.236 11.716,4.116 12.066 C 3.982 12.462,4.111 12.951,4.428 13.243 C 4.957 13.731,5.430 13.662,6.400 12.957 C 8.031 11.772,9.002 11.289,10.298 11.022 C 11.000 10.877,12.810 10.877,13.666 11.022 C 14.804 11.214,15.930 11.765,17.530 12.913 C 18.279 13.450,18.451 13.535,18.780 13.532 C 19.270 13.527,19.580 13.361,19.778 12.997 C 19.877 12.816,19.899 12.723,19.913 12.431 C 19.927 12.129,19.918 12.064,19.845 11.939 C 19.441 11.255,18.000 10.180,16.540 9.476 C 15.603 9.024,14.782 8.763,13.840 8.618 C 13.226 8.523,10.631 8.498,10.180 8.582 M11.080 13.320 C 10.486 13.398,9.659 13.697,9.024 14.062 C 8.288 14.486,7.631 15.099,7.509 15.475 C 7.366 15.918,7.446 16.240,7.780 16.569 C 8.047 16.832,8.258 16.927,8.590 16.931 C 8.925 16.935,9.045 16.884,9.760 16.432 C 10.855 15.740,10.955 15.710,12.070 15.727 L 12.900 15.740 13.320 15.943 C 13.551 16.054,13.965 16.281,14.240 16.447 C 14.999 16.905,15.150 16.974,15.382 16.976 C 15.784 16.978,16.351 16.577,16.501 16.182 C 16.587 15.957,16.565 15.659,16.439 15.367 C 16.260 14.951,15.392 14.247,14.580 13.861 C 13.818 13.498,13.307 13.372,12.380 13.319 C 11.653 13.278,11.394 13.278,11.080 13.320 M11.563 18.125 C 11.375 18.181,10.987 18.585,10.899 18.816 C 10.759 19.183,10.904 19.748,11.210 20.024 C 11.456 20.247,11.692 20.338,12.020 20.338 C 12.357 20.338,12.558 20.246,12.837 19.966 C 13.112 19.690,13.175 19.529,13.148 19.172 C 13.135 18.994,13.092 18.808,13.041 18.701 C 12.944 18.502,12.693 18.258,12.506 18.180 C 12.334 18.109,11.732 18.074,11.563 18.125 " fill="#373B4D" stroke="none" fill-rule="evenodd"></path></svg>