<svg width="24" height="24" viewBox="0 0 24 24" fill="none" xmlns="http://www.w3.org/2000/svg"><path d="M9.860 3.842 C 7.322 4.057,3.808 5.655,1.758 7.528 C 0.839 8.367,0.654 8.631,0.691 9.049 C 0.754 9.734,1.345 10.244,1.936 10.121 C 2.213 10.063,2.419 9.937,3.400 9.221 C 4.649 8.309,5.209 7.960,6.220 7.460 C 7.470 6.842,8.114 6.616,9.440 6.329 L 9.940 6.221 11.940 6.221 C 14.172 6.220,14.196 6.222,15.293 6.498 C 16.742 6.863,17.895 7.380,19.180 8.241 C 19.400 8.388,19.967 8.787,20.440 9.126 C 21.441 9.843,21.702 10.007,21.993 10.102 C 22.177 10.162,22.237 10.165,22.424 10.123 C 22.985 9.997,23.414 9.339,23.281 8.806 C 23.207 8.508,23.076 8.328,22.594 7.857 C 20.878 6.184,18.366 4.805,15.860 4.161 C 15.075 3.959,14.481 3.877,13.520 3.839 C 12.455 3.797,10.370 3.799,9.860 3.842 M10.460 8.599 C 9.150 8.697,7.132 9.513,5.676 10.534 C 5.045 10.976,4.201 11.849,4.118 12.146 C 4.022 12.489,4.126 12.849,4.417 13.186 C 4.734 13.554,5.181 13.619,5.684 13.370 C 5.825 13.301,6.264 13.034,6.660 12.777 C 8.443 11.622,9.234 11.241,10.233 11.055 C 10.699 10.968,12.409 10.934,13.127 10.997 C 14.530 11.121,15.136 11.377,17.280 12.755 C 18.463 13.515,18.623 13.579,19.091 13.482 C 19.635 13.369,20.039 12.668,19.883 12.109 C 19.722 11.534,18.272 10.377,16.766 9.623 C 15.615 9.046,14.791 8.778,13.800 8.657 C 13.250 8.589,11.084 8.552,10.460 8.599 M11.054 13.343 C 9.770 13.559,8.227 14.428,7.651 15.261 C 7.514 15.459,7.431 15.803,7.474 15.994 C 7.554 16.351,7.824 16.662,8.200 16.829 C 8.282 16.866,8.456 16.892,8.620 16.893 C 8.941 16.895,9.021 16.861,10.002 16.296 C 10.323 16.112,10.692 15.924,10.822 15.879 C 11.146 15.767,11.691 15.721,12.393 15.747 L 12.980 15.768 13.843 16.243 C 14.983 16.870,15.119 16.931,15.384 16.929 C 15.788 16.925,16.269 16.609,16.461 16.220 C 16.648 15.842,16.501 15.359,16.065 14.920 C 15.627 14.477,14.572 13.829,13.955 13.623 C 13.594 13.503,12.861 13.381,12.148 13.322 C 11.533 13.272,11.472 13.273,11.054 13.343 M11.537 18.176 C 11.252 18.302,10.940 18.674,10.875 18.964 C 10.827 19.177,10.892 19.518,11.023 19.747 C 11.322 20.265,12.047 20.471,12.545 20.179 C 12.908 19.966,13.196 19.453,13.140 19.118 C 13.100 18.885,12.897 18.504,12.739 18.364 C 12.577 18.222,12.416 18.176,11.980 18.144 C 11.753 18.128,11.624 18.137,11.537 18.176 " fill="#373B4D" stroke="none" fill-rule="evenodd"></path></svg>