<svg width="24" height="24" viewBox="0 0 24 24" fill="none" xmlns="http://www.w3.org/2000/svg"><path d="M9.460 3.900 C 7.414 4.188,4.861 5.248,2.920 6.615 C 1.996 7.266,0.980 8.206,0.798 8.580 C 0.620 8.944,0.706 9.422,1.015 9.787 C 1.181 9.984,1.491 10.120,1.772 10.120 C 2.130 10.120,2.205 10.076,3.814 8.931 C 4.854 8.191,5.598 7.758,6.773 7.211 C 7.545 6.851,8.344 6.581,9.235 6.379 L 9.890 6.231 12.075 6.251 C 14.236 6.271,14.265 6.273,14.746 6.375 C 16.156 6.676,17.537 7.226,18.700 7.949 C 18.986 8.127,19.697 8.607,20.280 9.015 C 21.473 9.852,21.973 10.134,22.253 10.130 C 23.002 10.119,23.532 9.181,23.158 8.529 C 23.017 8.283,22.434 7.694,21.847 7.204 C 19.926 5.602,17.145 4.324,14.780 3.957 C 14.266 3.877,14.040 3.869,12.040 3.857 C 10.324 3.847,9.775 3.856,9.460 3.900 M10.280 8.639 C 9.168 8.725,7.298 9.472,5.940 10.372 C 5.288 10.804,4.371 11.664,4.196 12.009 C 4.153 12.092,4.108 12.236,4.096 12.330 C 4.046 12.697,4.385 13.249,4.777 13.438 C 5.139 13.614,5.426 13.530,6.302 12.994 C 7.839 12.052,8.172 11.856,8.615 11.633 C 9.658 11.109,10.281 10.989,11.960 10.987 C 14.173 10.984,14.706 11.156,17.093 12.638 C 18.377 13.436,18.507 13.500,18.835 13.499 C 19.274 13.498,19.606 13.267,19.801 12.828 C 19.921 12.557,19.937 12.359,19.861 12.098 C 19.801 11.890,19.750 11.821,19.387 11.460 C 17.994 10.074,15.525 8.836,13.853 8.683 C 13.288 8.632,10.769 8.600,10.280 8.639 M10.871 13.384 C 9.875 13.598,8.626 14.252,7.978 14.899 C 7.393 15.483,7.327 16.014,7.778 16.513 C 7.993 16.751,8.278 16.880,8.586 16.880 C 8.908 16.880,9.072 16.814,9.974 16.321 C 10.388 16.095,10.804 15.897,10.940 15.862 C 11.102 15.819,11.465 15.791,12.060 15.774 L 12.940 15.749 13.760 16.200 C 14.921 16.838,15.046 16.893,15.360 16.897 C 15.669 16.901,15.923 16.793,16.193 16.543 C 16.448 16.308,16.532 16.120,16.513 15.823 C 16.491 15.488,16.356 15.232,16.034 14.914 C 15.513 14.400,14.322 13.717,13.673 13.560 C 12.797 13.348,11.438 13.263,10.871 13.384 M11.379 18.273 C 11.013 18.548,10.821 18.956,10.887 19.321 C 10.962 19.732,11.153 19.987,11.540 20.192 C 11.805 20.332,12.218 20.341,12.462 20.212 C 12.807 20.030,13.125 19.560,13.134 19.220 C 13.139 19.022,12.965 18.631,12.788 18.445 C 12.604 18.251,12.452 18.201,11.969 18.175 L 11.540 18.152 11.379 18.273 " fill="#373B4D" stroke="none" fill-rule="evenodd"></path></svg>