<svg width="24" height="24" viewBox="0 0 24 24" fill="none" xmlns="http://www.w3.org/2000/svg"><path d="M10.100 3.838 C 7.232 3.999,3.261 5.892,1.166 8.099 C 0.791 8.494,0.660 8.761,0.695 9.059 C 0.766 9.665,1.233 10.136,1.758 10.131 C 2.121 10.128,2.188 10.090,3.600 9.079 C 4.723 8.275,5.198 7.984,6.200 7.485 C 7.482 6.847,8.031 6.648,9.300 6.363 L 9.847 6.240 11.874 6.240 C 13.004 6.240,14.045 6.258,14.225 6.281 C 14.980 6.375,16.351 6.776,17.200 7.150 C 18.148 7.567,18.836 7.985,20.340 9.056 C 21.540 9.911,21.947 10.141,22.255 10.138 C 22.788 10.133,23.290 9.593,23.294 9.020 C 23.297 8.649,23.183 8.457,22.643 7.919 C 21.674 6.955,20.532 6.147,19.100 5.414 C 17.368 4.527,15.709 4.011,14.180 3.883 C 13.536 3.829,10.799 3.799,10.100 3.838 M9.980 8.662 C 8.678 8.905,7.086 9.589,5.802 10.456 C 5.337 10.770,4.495 11.557,4.265 11.890 C 4.085 12.153,4.046 12.385,4.135 12.684 C 4.270 13.142,4.706 13.520,5.101 13.520 C 5.452 13.520,5.619 13.434,7.180 12.452 C 8.415 11.675,9.117 11.332,9.863 11.142 C 10.617 10.949,12.535 10.908,13.640 11.061 C 14.492 11.179,15.313 11.528,16.540 12.293 C 16.870 12.499,17.390 12.823,17.695 13.013 C 18.001 13.203,18.352 13.396,18.475 13.443 C 18.899 13.603,19.358 13.473,19.643 13.112 C 19.936 12.741,19.993 12.260,19.785 11.906 C 19.640 11.657,19.073 11.116,18.548 10.726 C 17.487 9.936,16.099 9.226,14.980 8.901 C 14.151 8.660,13.850 8.631,12.000 8.616 C 10.619 8.605,10.240 8.614,9.980 8.662 M11.181 13.323 C 10.267 13.463,9.195 13.926,8.402 14.523 C 7.430 15.256,7.217 15.922,7.768 16.504 C 8.046 16.798,8.229 16.880,8.613 16.880 C 8.951 16.880,8.981 16.867,10.220 16.184 C 10.921 15.797,10.945 15.791,12.023 15.770 L 12.946 15.752 13.843 16.244 C 14.901 16.826,15.111 16.918,15.380 16.919 C 15.763 16.921,16.288 16.578,16.461 16.213 C 16.563 15.998,16.548 15.688,16.423 15.415 C 16.210 14.950,15.498 14.381,14.499 13.877 C 14.080 13.666,13.896 13.597,13.559 13.527 C 12.711 13.352,11.610 13.257,11.181 13.323 M11.359 18.287 C 11.151 18.445,10.939 18.743,10.881 18.958 C 10.831 19.142,10.884 19.460,11.006 19.712 C 11.160 20.030,11.643 20.320,12.021 20.320 C 12.505 20.320,12.948 19.947,13.105 19.408 C 13.162 19.213,13.162 19.177,13.101 18.987 C 13.000 18.672,12.788 18.376,12.590 18.274 C 12.454 18.204,12.331 18.182,11.979 18.168 L 11.538 18.151 11.359 18.287 " fill="#373B4D" stroke="none" fill-rule="evenodd"></path></svg>