<svg width="24" height="24" viewBox="0 0 24 24" fill="none" xmlns="http://www.w3.org/2000/svg"><path d="M10.280 3.700 C 7.098 4.092,4.264 5.314,1.903 7.314 C 1.408 7.734,0.824 8.315,0.747 8.466 C 0.415 9.111,0.795 9.976,1.493 10.163 C 1.734 10.228,2.108 10.193,2.324 10.084 C 2.425 10.034,2.740 9.784,3.024 9.530 C 3.689 8.936,4.131 8.592,4.800 8.151 C 5.356 7.784,6.307 7.281,6.940 7.018 C 8.080 6.545,9.473 6.196,10.707 6.076 C 11.353 6.013,13.332 6.052,13.860 6.138 C 14.897 6.307,15.769 6.529,16.580 6.831 C 18.234 7.447,19.536 8.248,20.980 9.538 C 21.630 10.118,21.748 10.180,22.200 10.179 C 22.473 10.178,22.573 10.161,22.708 10.089 C 23.109 9.877,23.376 9.443,23.372 9.009 C 23.368 8.511,23.131 8.196,22.126 7.346 C 19.779 5.362,17.125 4.180,14.020 3.736 C 13.391 3.646,10.914 3.623,10.280 3.700 M11.300 8.427 C 8.760 8.611,6.298 9.696,4.553 11.401 C 4.139 11.805,4.038 11.996,4.035 12.378 C 4.031 12.891,4.255 13.263,4.701 13.482 C 4.862 13.561,4.961 13.580,5.220 13.580 C 5.617 13.580,5.798 13.490,6.286 13.052 C 7.613 11.862,9.120 11.142,10.799 10.898 C 11.163 10.845,11.455 10.835,12.219 10.850 C 13.072 10.866,13.236 10.880,13.680 10.977 C 15.201 11.307,16.527 11.989,17.714 13.052 C 18.202 13.490,18.383 13.580,18.780 13.580 C 19.160 13.580,19.400 13.482,19.663 13.219 C 19.867 13.016,19.960 12.755,19.960 12.392 C 19.960 11.936,19.833 11.731,19.209 11.175 C 17.923 10.030,16.394 9.202,14.786 8.780 C 13.837 8.530,13.345 8.470,11.920 8.426 C 11.689 8.419,11.410 8.419,11.300 8.427 M11.380 13.243 C 10.135 13.365,8.843 13.952,7.947 14.800 C 7.524 15.200,7.429 15.383,7.425 15.800 C 7.422 16.039,7.441 16.140,7.518 16.297 C 7.714 16.698,8.076 16.949,8.520 16.989 C 8.877 17.022,9.085 16.930,9.642 16.496 C 10.558 15.784,11.356 15.533,12.360 15.640 C 13.089 15.718,13.631 15.943,14.268 16.432 C 14.967 16.968,15.089 17.024,15.485 16.989 C 15.923 16.949,16.288 16.697,16.482 16.297 C 16.555 16.145,16.577 16.036,16.576 15.820 C 16.574 15.402,16.466 15.191,16.054 14.801 C 14.842 13.654,13.099 13.073,11.380 13.243 M11.740 18.035 C 11.378 18.129,11.054 18.393,10.907 18.714 C 10.784 18.982,10.787 19.432,10.913 19.688 C 11.031 19.927,11.273 20.169,11.512 20.287 C 11.795 20.427,12.222 20.418,12.529 20.268 C 13.262 19.907,13.421 18.938,12.842 18.358 C 12.582 18.098,12.073 17.949,11.740 18.035 " fill="#373B4D" stroke="none" fill-rule="evenodd"></path></svg>