<svg width="24" height="24" viewBox="0 0 24 24" fill="none" xmlns="http://www.w3.org/2000/svg"><path d="M10.140 3.745 C 8.900 3.931,8.115 4.109,7.169 4.418 C 4.925 5.152,2.706 6.484,1.212 7.994 C 0.756 8.455,0.619 8.703,0.651 9.012 C 0.699 9.471,0.953 9.891,1.288 10.064 C 1.462 10.154,1.905 10.184,2.104 10.119 C 2.334 10.044,2.583 9.873,3.340 9.274 C 4.548 8.317,5.127 7.937,6.190 7.405 C 7.511 6.744,8.866 6.347,10.460 6.152 C 10.997 6.086,12.980 6.086,13.520 6.152 C 14.624 6.286,15.479 6.477,16.365 6.785 C 17.850 7.301,19.107 8.034,20.680 9.300 C 21.549 10.000,21.762 10.122,22.161 10.151 C 22.510 10.176,22.671 10.119,22.935 9.878 C 23.341 9.507,23.448 9.018,23.227 8.542 C 23.011 8.075,21.889 7.096,20.560 6.213 C 18.983 5.166,16.942 4.315,15.160 3.961 C 14.275 3.785,13.855 3.755,12.020 3.741 C 11.052 3.733,10.206 3.735,10.140 3.745 M10.600 8.521 C 9.048 8.692,6.880 9.585,5.493 10.625 C 5.033 10.971,4.289 11.705,4.178 11.924 C 3.891 12.491,4.132 13.162,4.734 13.467 C 4.909 13.556,4.973 13.567,5.208 13.550 C 5.581 13.523,5.841 13.386,6.611 12.807 C 7.895 11.841,8.930 11.330,10.191 11.039 C 11.037 10.844,12.861 10.846,13.820 11.043 C 14.977 11.280,16.084 11.843,17.618 12.974 C 18.298 13.475,18.430 13.539,18.801 13.538 C 19.491 13.538,19.918 13.100,19.932 12.379 C 19.937 12.136,19.922 12.070,19.823 11.899 C 19.596 11.505,18.843 10.847,17.960 10.269 C 16.412 9.256,14.898 8.690,13.400 8.564 C 12.751 8.509,10.958 8.482,10.600 8.521 M10.823 13.358 C 9.736 13.595,8.676 14.147,7.948 14.856 C 7.604 15.190,7.487 15.400,7.451 15.742 C 7.417 16.074,7.497 16.293,7.744 16.546 C 8.025 16.833,8.258 16.938,8.620 16.938 C 8.942 16.938,9.012 16.907,9.700 16.468 C 10.372 16.039,10.554 15.939,10.880 15.820 C 11.166 15.715,11.216 15.710,11.940 15.705 C 12.467 15.702,12.755 15.717,12.880 15.754 C 13.154 15.835,13.865 16.203,14.411 16.546 C 15.004 16.919,15.239 17.017,15.458 16.982 C 15.844 16.920,16.245 16.646,16.444 16.306 C 16.553 16.119,16.563 16.074,16.549 15.820 C 16.526 15.419,16.421 15.214,16.056 14.860 C 15.495 14.315,14.712 13.849,13.906 13.579 C 13.293 13.374,12.885 13.314,11.980 13.296 C 11.296 13.283,11.128 13.292,10.823 13.358 M11.500 18.152 C 11.277 18.257,10.933 18.643,10.876 18.852 C 10.815 19.081,10.852 19.477,10.956 19.691 C 11.208 20.212,11.820 20.479,12.355 20.302 C 12.611 20.217,12.961 19.906,13.082 19.656 C 13.156 19.503,13.167 19.426,13.152 19.167 C 13.130 18.811,13.044 18.613,12.813 18.394 C 12.576 18.170,12.434 18.115,12.025 18.095 C 11.724 18.079,11.632 18.089,11.500 18.152 " fill="#373B4D" stroke="none" fill-rule="evenodd"></path></svg>