<svg width="24" height="24" viewBox="0 0 24 24" fill="none" xmlns="http://www.w3.org/2000/svg"><path d="M10.060 3.801 C 9.370 3.837,8.279 4.071,7.240 4.408 C 5.441 4.990,3.717 5.916,2.200 7.115 C 1.707 7.505,0.840 8.375,0.741 8.580 C 0.522 9.032,0.809 9.794,1.294 10.050 C 1.532 10.175,1.989 10.175,2.244 10.049 C 2.346 9.999,2.778 9.694,3.204 9.371 C 4.689 8.247,5.136 7.953,6.065 7.487 C 7.423 6.808,8.635 6.421,10.040 6.217 C 10.746 6.114,13.324 6.112,13.960 6.213 C 16.037 6.543,17.453 7.087,19.180 8.217 C 19.422 8.376,20.034 8.818,20.540 9.199 C 21.046 9.581,21.573 9.946,21.710 10.010 C 22.054 10.172,22.375 10.198,22.610 10.085 C 23.050 9.872,23.286 9.531,23.313 9.068 C 23.338 8.646,23.203 8.410,22.609 7.836 C 20.641 5.933,17.580 4.388,14.849 3.918 C 14.591 3.873,14.056 3.820,13.660 3.800 C 12.861 3.758,10.865 3.759,10.060 3.801 M10.560 8.563 C 9.173 8.646,6.923 9.572,5.480 10.654 C 4.982 11.028,4.282 11.728,4.165 11.970 C 3.978 12.357,4.078 12.881,4.400 13.203 C 4.666 13.470,4.810 13.537,5.120 13.539 C 5.472 13.540,5.790 13.383,6.640 12.787 C 7.877 11.919,8.738 11.458,9.602 11.201 C 10.256 11.007,10.625 10.956,11.560 10.931 C 14.025 10.867,15.065 11.204,17.401 12.826 C 18.303 13.452,18.388 13.495,18.747 13.514 C 19.147 13.534,19.382 13.450,19.613 13.203 C 19.895 12.902,20.010 12.334,19.863 11.980 C 19.781 11.785,19.177 11.172,18.724 10.825 C 17.344 9.767,15.722 8.993,14.271 8.701 C 13.526 8.551,11.822 8.487,10.560 8.563 M11.078 13.324 C 10.517 13.397,9.597 13.730,9.011 14.073 C 8.581 14.325,8.116 14.688,7.844 14.985 C 7.319 15.558,7.313 16.126,7.825 16.603 C 8.090 16.850,8.319 16.934,8.671 16.914 C 8.990 16.896,9.104 16.844,9.892 16.354 C 10.861 15.752,11.083 15.694,12.256 15.730 L 12.932 15.751 13.336 15.954 C 13.558 16.065,13.974 16.294,14.260 16.464 C 14.950 16.872,15.162 16.967,15.385 16.967 C 15.794 16.967,16.418 16.500,16.521 16.117 C 16.578 15.906,16.544 15.607,16.437 15.363 C 16.268 14.982,15.428 14.295,14.660 13.910 C 13.888 13.523,13.349 13.388,12.301 13.321 C 11.586 13.275,11.453 13.275,11.078 13.324 M11.376 18.243 C 11.038 18.509,10.841 18.842,10.840 19.146 C 10.840 19.370,10.991 19.775,11.140 19.949 C 11.442 20.302,12.023 20.437,12.442 20.252 C 12.671 20.151,12.991 19.831,13.092 19.603 C 13.257 19.230,13.087 18.622,12.738 18.336 C 12.525 18.162,12.371 18.122,11.896 18.121 C 11.549 18.120,11.524 18.126,11.376 18.243 " fill="#373B4D" stroke="none" fill-rule="evenodd"></path></svg>