<svg width="24" height="24" viewBox="0 0 24 24" fill="none" xmlns="http://www.w3.org/2000/svg"><path d="M10.343 3.722 C 7.818 4.004,5.431 4.877,3.278 6.306 C 2.083 7.100,0.791 8.279,0.681 8.676 C 0.619 8.896,0.632 9.093,0.725 9.378 C 0.887 9.870,1.289 10.175,1.776 10.175 C 2.133 10.175,2.373 10.047,3.084 9.474 C 4.245 8.539,4.731 8.197,5.580 7.717 C 7.704 6.516,10.025 5.978,12.626 6.086 C 15.075 6.187,17.227 6.878,19.220 8.206 C 19.787 8.583,20.142 8.854,21.217 9.730 C 21.616 10.055,21.791 10.132,22.178 10.151 C 22.472 10.166,22.519 10.158,22.720 10.052 C 23.154 9.823,23.425 9.271,23.328 8.810 C 23.303 8.689,23.226 8.503,23.158 8.397 C 22.821 7.872,21.281 6.622,20.085 5.904 C 18.049 4.680,15.684 3.884,13.720 3.762 C 12.847 3.707,10.703 3.682,10.343 3.722 M10.300 8.561 C 9.163 8.768,8.142 9.112,7.100 9.637 C 6.069 10.158,5.355 10.660,4.610 11.390 C 4.209 11.782,4.083 12.000,4.052 12.351 C 4.013 12.803,4.291 13.263,4.734 13.477 C 4.897 13.556,4.970 13.567,5.220 13.551 C 5.610 13.526,5.812 13.423,6.460 12.916 C 7.807 11.862,8.928 11.306,10.289 11.016 C 10.701 10.929,10.918 10.909,11.640 10.891 C 13.357 10.850,14.324 11.039,15.560 11.657 C 16.245 11.999,16.676 12.273,17.488 12.881 C 18.287 13.480,18.489 13.578,18.870 13.549 C 19.524 13.498,19.933 13.058,19.938 12.400 C 19.940 12.140,19.924 12.071,19.822 11.887 C 19.676 11.624,19.154 11.121,18.586 10.698 C 17.234 9.689,15.677 8.955,14.314 8.684 C 13.659 8.554,13.183 8.517,11.920 8.498 C 10.864 8.483,10.694 8.489,10.300 8.561 M11.247 13.282 C 10.039 13.433,8.788 14.030,7.933 14.862 C 7.563 15.222,7.485 15.368,7.452 15.759 C 7.423 16.103,7.477 16.264,7.708 16.521 C 8.040 16.890,8.532 17.045,8.936 16.908 C 9.037 16.873,9.367 16.685,9.670 16.488 C 10.409 16.009,10.539 15.937,10.884 15.813 C 11.141 15.720,11.257 15.704,11.760 15.690 C 12.648 15.665,12.886 15.708,13.460 15.996 C 13.724 16.128,14.138 16.365,14.380 16.523 C 15.008 16.931,15.202 17.016,15.445 16.987 C 15.847 16.939,16.296 16.620,16.480 16.252 C 16.558 16.096,16.568 16.028,16.549 15.782 C 16.518 15.371,16.443 15.228,16.061 14.856 C 15.243 14.057,14.065 13.490,12.920 13.343 C 12.296 13.263,11.601 13.237,11.247 13.282 M11.465 18.163 C 11.242 18.284,10.977 18.572,10.897 18.781 C 10.797 19.045,10.836 19.489,10.985 19.762 C 11.187 20.133,11.570 20.358,12.000 20.358 C 12.327 20.358,12.553 20.261,12.813 20.008 C 13.077 19.751,13.165 19.567,13.170 19.266 C 13.176 18.820,12.992 18.466,12.634 18.236 C 12.436 18.109,12.401 18.101,12.022 18.090 C 11.676 18.080,11.598 18.091,11.465 18.163 " fill="#373B4D" stroke="none" fill-rule="evenodd"></path></svg>