<svg width="24" height="24" viewBox="0 0 24 24" fill="none" xmlns="http://www.w3.org/2000/svg"><path d="M10.500 3.704 C 7.823 3.978,5.357 4.878,3.140 6.391 C 2.082 7.113,0.840 8.243,0.701 8.610 C 0.554 8.999,0.706 9.599,1.023 9.877 C 1.276 10.100,1.472 10.178,1.780 10.179 C 2.172 10.180,2.362 10.075,3.173 9.404 C 4.292 8.479,5.065 7.959,6.120 7.423 C 8.488 6.220,11.217 5.799,14.020 6.203 C 14.812 6.318,15.402 6.456,16.140 6.699 C 17.878 7.272,19.219 8.052,20.875 9.451 C 21.585 10.051,21.729 10.131,22.140 10.152 C 22.432 10.167,22.499 10.157,22.692 10.069 C 23.265 9.806,23.521 9.041,23.221 8.488 C 22.906 7.909,21.227 6.553,19.823 5.743 C 18.005 4.694,15.934 3.984,14.080 3.775 C 13.566 3.717,10.893 3.664,10.500 3.704 M10.834 8.480 C 9.004 8.707,7.142 9.427,5.693 10.466 C 5.257 10.778,4.556 11.400,4.320 11.684 C 3.831 12.271,4.015 13.127,4.702 13.463 C 4.892 13.556,4.956 13.567,5.229 13.553 C 5.631 13.534,5.784 13.456,6.433 12.940 C 7.083 12.422,7.367 12.223,7.857 11.942 C 8.917 11.332,10.006 10.987,11.212 10.879 C 11.794 10.827,12.983 10.878,13.586 10.981 C 14.871 11.201,16.226 11.871,17.618 12.975 C 18.197 13.434,18.381 13.531,18.705 13.553 C 19.368 13.596,19.869 13.179,19.947 12.520 C 20.002 12.056,19.796 11.697,19.165 11.156 C 17.646 9.853,15.734 8.909,14.040 8.625 C 13.325 8.505,11.349 8.415,10.834 8.480 M11.260 13.281 C 10.152 13.383,8.809 14.010,7.966 14.818 C 7.558 15.210,7.478 15.355,7.450 15.763 C 7.432 16.032,7.441 16.098,7.522 16.265 C 7.725 16.684,8.159 16.960,8.616 16.960 C 8.926 16.960,9.038 16.909,9.693 16.473 C 10.372 16.021,10.558 15.920,10.975 15.780 C 11.246 15.689,11.335 15.680,11.935 15.680 C 12.299 15.680,12.691 15.700,12.808 15.724 C 13.143 15.793,13.774 16.114,14.399 16.534 C 14.717 16.747,15.049 16.941,15.138 16.965 C 15.607 17.091,16.239 16.757,16.483 16.254 C 16.558 16.099,16.568 16.027,16.550 15.763 C 16.523 15.366,16.444 15.216,16.073 14.853 C 15.380 14.176,14.434 13.663,13.423 13.417 C 13.072 13.332,11.972 13.225,11.660 13.246 C 11.616 13.249,11.436 13.265,11.260 13.281 M11.656 18.075 C 11.359 18.152,10.979 18.514,10.881 18.813 C 10.812 19.025,10.844 19.501,10.941 19.700 C 11.128 20.087,11.564 20.376,11.960 20.376 C 12.314 20.376,12.576 20.264,12.840 20.000 C 13.106 19.734,13.177 19.567,13.179 19.200 C 13.181 18.746,12.895 18.319,12.469 18.141 C 12.296 18.069,11.828 18.031,11.656 18.075 " fill="#373B4D" stroke="none" fill-rule="evenodd"></path></svg>