<svg width="24" height="24" viewBox="0 0 24 24" fill="none" xmlns="http://www.w3.org/2000/svg"><path d="M9.880 3.827 C 7.507 4.070,4.663 5.262,2.432 6.947 C 1.908 7.343,0.868 8.357,0.762 8.575 C 0.548 9.018,0.794 9.738,1.250 9.998 C 1.520 10.153,1.745 10.182,2.031 10.099 C 2.289 10.024,2.454 9.918,3.420 9.205 C 4.622 8.318,5.275 7.904,6.180 7.459 C 7.196 6.959,7.884 6.699,8.760 6.485 C 9.944 6.195,10.118 6.179,12.060 6.185 C 13.880 6.190,14.008 6.200,14.900 6.399 C 16.735 6.809,18.082 7.428,19.742 8.623 C 20.060 8.853,20.580 9.228,20.899 9.457 C 21.767 10.082,22.096 10.222,22.460 10.120 C 23.142 9.929,23.498 9.156,23.194 8.528 C 23.020 8.169,21.883 7.142,20.920 6.474 C 18.806 5.009,16.080 3.977,13.960 3.839 C 13.422 3.804,10.196 3.795,9.880 3.827 M10.260 8.606 C 8.922 8.777,7.036 9.573,5.631 10.560 C 5.164 10.887,4.287 11.752,4.167 12.003 C 3.990 12.373,4.081 12.823,4.404 13.177 C 4.760 13.566,5.146 13.630,5.661 13.386 C 5.824 13.308,6.323 13.003,6.769 12.706 C 8.322 11.674,9.152 11.274,10.170 11.063 C 10.975 10.897,12.988 10.907,13.849 11.081 C 14.861 11.287,15.441 11.565,17.140 12.662 C 18.445 13.504,18.437 13.500,18.820 13.500 C 19.076 13.500,19.179 13.481,19.333 13.405 C 19.800 13.175,20.058 12.430,19.832 11.963 C 19.782 11.861,19.583 11.620,19.382 11.419 C 18.147 10.187,15.837 8.978,14.200 8.706 C 13.991 8.671,13.578 8.624,13.282 8.602 C 12.642 8.552,10.657 8.555,10.260 8.606 M11.141 13.325 C 10.372 13.437,9.473 13.797,8.680 14.310 C 7.989 14.757,7.575 15.220,7.478 15.654 C 7.314 16.386,8.154 17.091,8.923 16.866 C 9.042 16.831,9.415 16.641,9.751 16.442 C 10.468 16.018,10.595 15.951,10.853 15.864 C 11.203 15.746,11.590 15.714,12.309 15.742 L 12.998 15.770 13.789 16.209 C 15.065 16.919,15.105 16.937,15.380 16.937 C 15.969 16.936,16.608 16.314,16.548 15.801 C 16.509 15.476,16.345 15.174,16.055 14.894 C 15.580 14.435,14.557 13.814,13.922 13.601 C 13.595 13.491,12.867 13.372,12.202 13.321 C 11.597 13.275,11.480 13.275,11.141 13.325 M11.489 18.184 C 11.341 18.260,11.029 18.591,10.928 18.777 C 10.824 18.973,10.840 19.374,10.964 19.640 C 11.159 20.060,11.481 20.276,11.961 20.311 C 12.172 20.326,12.263 20.312,12.431 20.240 C 12.842 20.063,13.192 19.533,13.147 19.155 C 13.102 18.776,12.836 18.363,12.548 18.227 C 12.474 18.192,12.246 18.154,12.019 18.141 C 11.690 18.121,11.597 18.128,11.489 18.184 " fill="#373B4D" stroke="none" fill-rule="evenodd"></path></svg>