<svg width="24" height="24" viewBox="0 0 24 24" fill="none" xmlns="http://www.w3.org/2000/svg"><path d="M10.940 3.081 C 9.521 3.277,8.445 3.653,7.300 4.350 C 6.255 4.986,5.221 5.980,4.522 7.017 C 3.387 8.704,2.841 10.853,3.042 12.846 C 3.252 14.931,4.168 16.847,5.679 18.362 C 6.717 19.402,7.855 20.097,9.283 20.561 C 12.378 21.568,15.814 20.776,18.187 18.507 C 19.649 17.110,20.564 15.345,20.906 13.260 C 21.007 12.647,21.007 11.353,20.907 10.740 C 20.637 9.100,20.009 7.645,19.040 6.420 C 18.682 5.967,17.888 5.191,17.431 4.848 C 16.440 4.104,15.104 3.474,14.035 3.247 C 13.526 3.139,13.102 3.088,12.320 3.041 C 11.527 2.993,11.586 2.991,10.940 3.081 M13.380 5.160 C 14.241 5.342,15.177 5.728,15.860 6.183 C 17.367 7.188,18.484 8.840,18.838 10.587 C 18.992 11.348,18.983 12.746,18.819 13.526 C 18.453 15.267,17.227 16.977,15.638 17.964 C 13.931 19.024,11.771 19.276,9.833 18.639 C 8.004 18.039,6.563 16.771,5.720 15.022 C 5.312 14.174,5.138 13.556,5.075 12.720 C 4.962 11.240,5.142 10.175,5.705 9.000 C 6.732 6.853,8.769 5.375,11.107 5.079 C 11.597 5.018,12.929 5.065,13.380 5.160 M11.220 5.998 C 10.408 6.078,9.433 6.448,8.600 6.993 C 8.057 7.349,6.907 8.522,6.982 8.644 C 7.012 8.692,7.658 8.690,8.395 8.638 C 9.048 8.592,9.140 8.608,9.183 8.777 C 9.237 8.993,9.079 9.082,8.533 9.142 L 8.285 9.170 9.359 12.361 C 9.949 14.116,10.449 15.584,10.471 15.622 C 10.501 15.675,10.662 15.234,11.162 13.730 L 11.814 11.768 11.542 10.994 C 11.392 10.568,11.181 9.992,11.073 9.712 L 10.876 9.205 10.668 9.164 C 10.554 9.141,10.392 9.111,10.308 9.097 C 10.224 9.082,10.130 9.044,10.098 9.012 C 10.027 8.941,10.022 8.737,10.090 8.692 C 10.117 8.675,10.770 8.659,11.540 8.659 C 12.310 8.658,13.096 8.642,13.286 8.624 L 13.633 8.590 13.700 8.720 C 13.829 8.970,13.717 9.055,13.139 9.140 C 13.051 9.153,12.954 9.179,12.924 9.198 C 12.880 9.225,13.048 9.766,13.755 11.874 C 14.712 14.727,14.991 15.520,15.040 15.520 C 15.057 15.520,15.080 15.489,15.091 15.450 C 15.103 15.411,15.313 14.714,15.558 13.900 C 16.039 12.303,16.103 11.990,16.060 11.421 C 16.025 10.966,15.901 10.619,15.486 9.826 C 15.311 9.493,15.140 9.122,15.104 9.003 C 14.902 8.319,15.200 7.738,15.846 7.561 L 16.097 7.493 15.778 7.257 C 14.879 6.589,13.897 6.153,13.049 6.044 C 12.607 5.987,11.595 5.961,11.220 5.998 M17.346 9.228 C 17.332 9.242,17.320 9.444,17.320 9.678 C 17.320 10.162,17.266 10.662,17.173 11.040 C 17.137 11.183,16.857 12.029,16.550 12.920 C 15.454 16.101,15.113 17.119,15.127 17.161 C 15.163 17.270,16.074 16.500,16.581 15.932 C 16.961 15.507,17.141 15.246,17.382 14.774 C 18.210 13.151,18.283 11.412,17.597 9.657 C 17.437 9.247,17.396 9.177,17.346 9.228 M6.308 9.910 C 6.183 10.289,6.018 10.949,5.980 11.220 C 5.928 11.595,5.953 12.721,6.022 13.080 C 6.171 13.861,6.499 14.660,6.948 15.337 C 7.253 15.798,8.000 16.572,8.480 16.927 C 8.822 17.180,9.233 17.420,9.266 17.387 C 9.278 17.375,9.248 17.242,9.199 17.093 C 9.107 16.810,7.509 12.411,6.900 10.760 C 6.709 10.243,6.534 9.771,6.512 9.710 C 6.490 9.650,6.458 9.600,6.441 9.600 C 6.424 9.600,6.365 9.740,6.308 9.910 M11.881 13.230 C 11.356 14.712,10.712 16.594,10.539 17.153 C 10.377 17.675,10.357 17.774,10.405 17.820 C 10.435 17.850,10.595 17.902,10.760 17.935 C 11.765 18.140,12.439 18.120,13.567 17.855 L 13.993 17.755 13.882 17.427 C 13.692 16.872,12.278 12.990,12.199 12.810 C 12.158 12.717,12.117 12.640,12.107 12.640 C 12.098 12.640,11.996 12.905,11.881 13.230 " fill="#373B4D" stroke="none" fill-rule="evenodd"></path></svg>