<svg width="24" height="24" viewBox="0 0 24 24" fill="none" xmlns="http://www.w3.org/2000/svg"><path d="M10.968 3.083 C 9.781 3.265,9.002 3.497,8.100 3.938 C 7.097 4.427,6.399 4.929,5.611 5.726 C 4.765 6.580,4.258 7.321,3.785 8.391 C 2.745 10.745,2.751 13.289,3.802 15.650 C 4.455 17.116,5.737 18.624,7.082 19.505 C 9.031 20.782,11.477 21.266,13.720 20.817 C 17.475 20.065,20.340 17.034,20.905 13.216 C 20.984 12.679,20.995 11.326,20.924 10.840 C 20.852 10.352,20.594 9.369,20.409 8.880 C 19.913 7.571,19.341 6.692,18.324 5.676 C 17.475 4.828,16.789 4.349,15.690 3.835 C 14.630 3.340,13.817 3.153,12.233 3.041 C 11.523 2.991,11.575 2.990,10.968 3.083 M12.340 5.081 C 13.527 5.155,14.183 5.320,15.100 5.776 C 15.700 6.073,16.132 6.361,16.559 6.747 C 17.892 7.952,18.692 9.432,18.881 11.044 C 18.944 11.590,18.913 12.970,18.826 13.440 C 18.543 14.970,17.477 16.596,16.058 17.663 C 15.598 18.009,14.737 18.452,14.160 18.639 C 12.119 19.301,9.911 18.989,8.100 17.782 C 7.108 17.122,6.297 16.166,5.721 14.980 C 5.310 14.134,5.158 13.554,5.077 12.520 C 4.954 10.952,5.330 9.483,6.189 8.180 C 7.410 6.326,9.427 5.158,11.600 5.045 C 11.655 5.043,11.988 5.058,12.340 5.081 M11.020 6.039 C 10.307 6.129,9.137 6.608,8.530 7.056 C 7.899 7.523,7.000 8.438,7.000 8.612 C 7.000 8.691,7.017 8.692,8.060 8.664 L 9.120 8.636 9.160 8.741 C 9.241 8.954,9.096 9.054,8.589 9.133 L 8.289 9.180 9.360 12.354 C 9.949 14.099,10.449 15.545,10.471 15.567 C 10.498 15.594,10.540 15.530,10.599 15.374 C 10.768 14.922,11.800 11.829,11.800 11.774 C 11.800 11.720,11.250 10.174,11.005 9.540 L 10.882 9.219 10.511 9.131 C 10.131 9.040,10.040 8.979,10.040 8.818 C 10.040 8.743,10.069 8.728,10.250 8.706 C 10.365 8.692,10.820 8.680,11.260 8.679 C 11.700 8.677,12.411 8.660,12.840 8.641 C 13.701 8.601,13.720 8.605,13.720 8.847 C 13.720 8.983,13.603 9.052,13.255 9.120 C 13.121 9.147,12.988 9.182,12.960 9.200 C 12.889 9.244,13.094 9.919,13.921 12.360 C 14.792 14.928,15.001 15.520,15.042 15.520 C 15.077 15.520,15.122 15.378,15.534 13.980 C 16.052 12.223,16.106 11.943,16.042 11.380 C 15.992 10.937,15.897 10.675,15.456 9.756 L 15.080 8.973 15.080 8.625 C 15.080 8.362,15.099 8.240,15.156 8.128 C 15.297 7.852,15.562 7.652,15.937 7.540 L 16.094 7.493 15.861 7.321 C 15.318 6.920,14.487 6.466,13.925 6.264 C 13.763 6.206,13.475 6.133,13.285 6.102 C 12.884 6.037,11.371 5.994,11.020 6.039 M17.347 9.240 C 17.337 9.273,17.308 9.615,17.283 10.000 C 17.259 10.385,17.218 10.790,17.194 10.899 C 17.170 11.008,16.693 12.456,16.135 14.116 C 15.578 15.776,15.128 17.142,15.137 17.150 C 15.233 17.247,16.465 16.118,16.916 15.519 C 17.319 14.984,17.692 14.163,17.906 13.340 C 18.015 12.920,18.020 12.861,18.019 12.020 C 18.018 11.210,18.009 11.105,17.912 10.700 C 17.799 10.228,17.509 9.375,17.420 9.254 C 17.375 9.192,17.363 9.190,17.347 9.240 M6.260 10.090 C 5.988 10.951,5.949 11.232,5.973 12.180 C 5.991 12.911,6.007 13.070,6.096 13.406 C 6.389 14.517,6.930 15.452,7.759 16.281 C 8.302 16.823,9.192 17.470,9.255 17.368 C 9.286 17.319,8.661 15.559,7.200 11.580 C 6.434 9.495,6.491 9.640,6.442 9.640 C 6.421 9.640,6.339 9.842,6.260 10.090 M11.999 12.910 C 11.853 13.296,11.010 15.732,10.742 16.540 C 10.347 17.734,10.337 17.803,10.543 17.881 C 10.798 17.978,11.371 18.044,11.980 18.045 C 12.539 18.047,12.696 18.032,13.222 17.925 C 13.552 17.858,13.861 17.789,13.908 17.772 C 13.991 17.741,13.980 17.702,13.544 16.480 C 12.896 14.665,12.150 12.680,12.115 12.680 C 12.099 12.680,12.047 12.784,11.999 12.910 " fill="#373B4D" stroke="none" fill-rule="evenodd"></path></svg>