<svg width="24" height="24" viewBox="0 0 24 24" fill="none" xmlns="http://www.w3.org/2000/svg"><path d="M10.960 3.082 C 9.791 3.256,8.944 3.507,8.060 3.941 C 7.151 4.387,6.370 4.947,5.639 5.679 C 4.904 6.414,4.406 7.106,3.957 8.020 C 3.517 8.914,3.260 9.723,3.093 10.740 C 2.982 11.412,2.994 12.725,3.116 13.420 C 3.458 15.359,4.336 17.027,5.743 18.409 C 6.494 19.147,7.069 19.561,7.986 20.023 C 9.734 20.904,11.751 21.196,13.624 20.838 C 17.261 20.145,20.048 17.390,20.818 13.727 C 21.022 12.752,21.040 11.341,20.858 10.460 C 20.458 8.518,19.666 6.995,18.393 5.723 C 17.579 4.909,17.017 4.498,16.040 4.003 C 14.758 3.354,13.952 3.149,12.261 3.041 C 11.496 2.992,11.579 2.989,10.960 3.082 M12.466 5.080 C 13.509 5.138,14.228 5.329,15.180 5.804 C 15.820 6.123,16.324 6.488,16.861 7.020 C 18.104 8.252,18.811 9.745,18.919 11.372 C 18.965 12.055,18.919 13.012,18.816 13.518 C 18.482 15.158,17.316 16.836,15.813 17.841 C 14.074 19.004,11.816 19.300,9.813 18.626 C 7.986 18.012,6.630 16.822,5.747 15.056 C 5.300 14.162,5.112 13.418,5.058 12.340 C 4.980 10.779,5.355 9.416,6.221 8.116 C 7.432 6.296,9.514 5.117,11.640 5.046 C 11.717 5.044,12.089 5.059,12.466 5.080 M10.760 6.076 C 10.085 6.224,9.296 6.552,8.715 6.926 C 8.065 7.344,6.898 8.508,6.986 8.650 C 7.003 8.676,7.372 8.680,8.064 8.661 L 9.118 8.632 9.164 8.733 C 9.262 8.949,9.106 9.064,8.629 9.128 L 8.287 9.174 9.287 12.137 C 9.837 13.767,10.326 15.213,10.372 15.350 C 10.418 15.488,10.469 15.600,10.485 15.600 C 10.528 15.600,10.613 15.361,11.246 13.476 L 11.817 11.771 11.509 10.910 C 11.340 10.436,11.129 9.860,11.040 9.630 L 10.878 9.211 10.552 9.146 C 10.134 9.062,10.031 8.997,10.048 8.828 L 10.060 8.700 11.460 8.674 C 12.230 8.660,13.036 8.637,13.252 8.624 L 13.644 8.599 13.704 8.744 C 13.759 8.874,13.758 8.896,13.702 8.958 C 13.631 9.036,13.436 9.101,13.147 9.142 C 13.041 9.158,12.945 9.194,12.933 9.223 C 12.922 9.252,12.997 9.550,13.100 9.885 C 13.305 10.553,14.582 14.338,14.819 14.980 C 14.900 15.200,14.976 15.412,14.988 15.450 C 15.000 15.489,15.024 15.520,15.042 15.520 C 15.060 15.520,15.084 15.489,15.096 15.450 C 16.064 12.214,16.057 12.239,16.057 11.660 C 16.057 11.079,15.984 10.845,15.468 9.780 L 15.061 8.940 15.061 8.619 C 15.060 8.353,15.077 8.264,15.162 8.099 C 15.289 7.852,15.531 7.664,15.846 7.567 L 16.088 7.493 15.934 7.373 C 15.395 6.953,14.555 6.482,13.994 6.286 C 13.362 6.065,13.142 6.034,12.080 6.017 C 11.232 6.003,11.054 6.011,10.760 6.076 M17.343 9.247 C 17.334 9.276,17.317 9.561,17.305 9.880 C 17.293 10.199,17.254 10.610,17.219 10.793 C 17.184 10.976,16.894 11.894,16.574 12.833 C 15.987 14.555,15.120 17.130,15.120 17.149 C 15.120 17.197,15.248 17.133,15.431 16.995 C 16.009 16.559,16.730 15.821,17.066 15.322 C 17.293 14.985,17.596 14.340,17.759 13.847 C 17.975 13.194,18.053 12.701,18.051 12.000 C 18.049 11.170,17.914 10.493,17.576 9.611 C 17.435 9.242,17.374 9.148,17.343 9.247 M6.389 9.703 C 6.311 9.856,6.108 10.569,6.020 11.000 C 5.963 11.281,5.954 11.485,5.970 12.180 C 5.988 12.928,6.002 13.064,6.097 13.420 C 6.445 14.717,7.114 15.767,8.164 16.663 C 8.598 17.034,9.213 17.441,9.263 17.391 C 9.271 17.382,9.258 17.305,9.235 17.218 C 9.160 16.945,6.555 9.779,6.480 9.643 C 6.457 9.600,6.435 9.614,6.389 9.703 M12.026 12.830 C 11.891 13.190,11.088 15.502,10.806 16.340 C 10.470 17.342,10.359 17.734,10.395 17.792 C 10.479 17.927,11.226 18.054,11.960 18.056 C 12.556 18.059,12.828 18.024,13.568 17.853 L 13.996 17.754 13.782 17.147 C 13.229 15.572,12.173 12.717,12.127 12.671 C 12.110 12.654,12.065 12.726,12.026 12.830 " fill="#373B4D" stroke="none" fill-rule="evenodd"></path></svg>