<svg width="24" height="24" viewBox="0 0 24 24" fill="none" xmlns="http://www.w3.org/2000/svg"><path d="M11.100 3.063 C 9.829 3.256,9.005 3.504,8.044 3.983 C 6.965 4.520,6.287 5.020,5.461 5.888 C 4.742 6.644,4.278 7.320,3.876 8.200 C 3.275 9.514,3.023 10.635,3.023 12.000 C 3.023 13.269,3.243 14.333,3.748 15.517 C 4.477 17.223,5.956 18.884,7.548 19.784 C 10.693 21.563,14.485 21.336,17.345 19.198 C 17.797 18.860,18.528 18.164,18.906 17.713 C 19.686 16.779,20.331 15.537,20.661 14.333 C 20.920 13.388,20.940 13.217,20.939 11.940 C 20.939 10.871,20.932 10.750,20.848 10.400 C 20.335 8.265,19.674 7.030,18.320 5.680 C 17.541 4.903,16.965 4.482,16.040 4.012 C 14.821 3.393,13.966 3.177,12.202 3.041 C 11.564 2.992,11.561 2.992,11.100 3.063 M12.287 5.081 C 13.518 5.164,14.184 5.330,15.090 5.782 C 15.840 6.155,16.261 6.459,16.860 7.059 C 18.058 8.260,18.729 9.613,18.881 11.140 C 18.938 11.711,18.903 12.931,18.815 13.440 C 18.540 15.033,17.255 16.900,15.780 17.850 C 13.182 19.523,9.888 19.314,7.503 17.326 C 6.666 16.628,5.802 15.352,5.406 14.230 C 5.058 13.246,4.971 11.686,5.199 10.563 C 5.730 7.958,7.847 5.799,10.440 5.217 C 10.802 5.136,11.284 5.063,11.587 5.045 C 11.635 5.042,11.950 5.059,12.287 5.081 M10.620 6.115 C 10.183 6.234,9.577 6.470,9.160 6.684 C 8.665 6.937,8.176 7.308,7.644 7.835 C 7.187 8.286,6.973 8.564,7.022 8.643 C 7.044 8.679,7.314 8.687,8.096 8.676 L 9.140 8.660 9.152 8.811 C 9.164 8.950,9.154 8.967,9.024 9.021 C 8.947 9.053,8.757 9.101,8.602 9.128 C 8.435 9.156,8.320 9.196,8.320 9.224 C 8.320 9.269,9.642 13.201,10.205 14.830 C 10.343 15.232,10.471 15.560,10.487 15.560 C 10.542 15.560,10.591 15.427,11.201 13.604 L 11.808 11.792 11.719 11.526 C 11.587 11.131,11.147 9.907,11.004 9.536 L 10.879 9.213 10.555 9.139 C 10.192 9.056,10.029 8.955,10.048 8.825 C 10.065 8.706,10.211 8.694,12.054 8.663 C 13.699 8.635,13.720 8.637,13.720 8.819 C 13.720 8.955,13.602 9.033,13.277 9.113 C 12.923 9.200,12.916 9.215,13.041 9.668 C 13.222 10.327,14.869 15.184,14.990 15.420 L 15.052 15.539 15.109 15.380 C 15.140 15.292,15.308 14.736,15.483 14.144 C 16.044 12.249,16.113 11.908,16.042 11.375 C 15.983 10.938,15.872 10.633,15.430 9.703 L 15.071 8.946 15.087 8.574 C 15.102 8.239,15.116 8.184,15.223 8.031 C 15.366 7.827,15.660 7.620,15.912 7.546 L 16.095 7.493 15.778 7.269 C 15.038 6.746,14.066 6.268,13.480 6.140 C 13.255 6.091,12.894 6.070,12.040 6.057 C 11.009 6.041,10.873 6.046,10.620 6.115 M17.345 9.269 C 17.334 9.308,17.314 9.502,17.301 9.700 C 17.219 10.910,17.285 10.661,16.174 13.997 C 15.615 15.679,15.162 17.080,15.168 17.112 C 15.206 17.297,16.678 15.893,17.058 15.310 C 17.637 14.419,17.986 13.367,18.026 12.388 C 18.070 11.333,17.945 10.581,17.558 9.569 C 17.426 9.221,17.378 9.155,17.345 9.269 M6.383 9.755 C 6.276 9.961,6.047 10.810,5.996 11.186 C 5.937 11.628,5.975 12.917,6.058 13.260 C 6.413 14.737,7.291 16.026,8.609 17.005 C 8.975 17.276,9.183 17.390,9.229 17.344 C 9.246 17.327,9.172 17.059,9.066 16.747 C 8.619 15.441,6.529 9.717,6.480 9.665 C 6.462 9.646,6.418 9.687,6.383 9.755 M12.001 12.906 C 11.665 13.803,10.520 17.183,10.443 17.507 C 10.371 17.807,10.412 17.859,10.790 17.947 C 11.038 18.005,11.271 18.020,11.960 18.020 C 12.761 18.020,12.856 18.012,13.347 17.904 C 13.636 17.841,13.895 17.775,13.922 17.759 C 13.977 17.725,13.946 17.622,13.498 16.360 C 12.889 14.644,12.182 12.767,12.122 12.706 C 12.104 12.688,12.049 12.778,12.001 12.906 " fill="#373B4D" stroke="none" fill-rule="evenodd"></path></svg>