<svg width="24" height="24" viewBox="0 0 24 24" fill="none" xmlns="http://www.w3.org/2000/svg">
<path fill-rule="evenodd" clip-rule="evenodd" d="M12 21C16.9706 21 21 16.9706 21 12C21 7.02944 16.9706 3 12 3C7.02944 3 3 7.02944 3 12C3 16.9706 7.02944 21 12 21ZM9.35077 17.4654C7.32615 16.48 5.92615 14.4069 5.92615 12C5.92617 11.1482 6.10599 10.306 6.45385 9.52846L9.35077 17.4654ZM14.0192 17.7292C13.3838 17.95 12.7054 18.0738 12 18.0738C11.4023 18.0738 10.8262 17.9877 10.2877 17.8262L12.1077 12.5331L13.9762 17.6485L14.0192 17.7292ZM15.0315 15.6831L12.8346 9.15154C13.2062 9.13 13.5346 9.09231 13.5346 9.09231C13.8631 9.05462 13.82 8.57539 13.4915 8.59154C13.4915 8.59154 12.5115 8.67231 11.8762 8.67231C11.2785 8.67231 10.2769 8.59154 10.2769 8.59154C9.94846 8.57539 9.91077 9.07615 10.2392 9.09769C10.4505 9.12187 10.6623 9.13982 10.8746 9.15154L11.8223 11.7469L10.4923 15.7315L8.27385 9.15154C8.64538 9.13538 8.97385 9.09231 8.97385 9.09231C9.30231 9.05462 9.26462 8.57539 8.93077 8.59154C8.93077 8.59154 7.95077 8.67231 7.31538 8.67231L6.92769 8.66154C7.4802 7.82091 8.23303 7.13081 9.11843 6.65333C10.0038 6.17585 10.9941 5.92597 12 5.92615C13.5193 5.92362 14.9839 6.49257 16.1031 7.52H16.0277C15.4246 7.52 15.0046 8.03692 15.0046 8.59692C15.0046 9.05971 15.2537 9.46141 15.5411 9.92494C15.5613 9.95758 15.5818 9.99054 15.6023 10.0238C15.8285 10.4223 16.0977 10.9392 16.0977 11.6931C16.0977 12.1767 15.9269 12.7295 15.6965 13.4754C15.678 13.5352 15.6592 13.5962 15.64 13.6585L15.0315 15.6831ZM17.2646 15.0284C16.7345 15.9497 15.9719 16.7157 15.0531 17.25L16.9108 11.8869C17.2826 11.0034 17.427 10.0407 17.3308 9.08692C17.8046 9.95385 18.0738 10.9446 18.0738 12C18.0737 13.0629 17.7947 14.1071 17.2646 15.0284ZM7.05025 16.9497C8.36301 18.2625 10.1435 19 12 19C13.8565 19 15.637 18.2625 16.9497 16.9497C18.2625 15.637 19 13.8565 19 12C19 10.1435 18.2625 8.36301 16.9497 7.05025C15.637 5.7375 13.8565 5 12 5C10.1435 5 8.36301 5.7375 7.05025 7.05025C5.7375 8.36301 5 10.1435 5 12C5 13.8565 5.7375 15.637 7.05025 16.9497Z" fill="#373B4D"/>
</svg>
