<svg width="24" height="24" viewBox="0 0 24 24" fill="none" xmlns="http://www.w3.org/2000/svg"><path d="M11.340 3.024 C 10.026 3.160,9.091 3.415,8.060 3.918 C 5.287 5.272,3.420 7.913,3.059 10.992 C 2.666 14.352,4.239 17.669,7.120 19.560 C 7.929 20.090,9.126 20.589,10.092 20.797 C 14.142 21.669,18.255 19.669,20.083 15.940 C 21.302 13.453,21.302 10.547,20.083 8.060 C 19.190 6.237,17.762 4.810,15.944 3.923 C 15.066 3.494,14.269 3.244,13.320 3.101 C 12.911 3.039,11.662 2.991,11.340 3.024 M13.120 5.095 C 15.602 5.511,17.633 7.165,18.537 9.508 C 18.846 10.308,18.976 11.045,18.976 12.000 C 18.976 12.950,18.846 13.693,18.542 14.481 C 17.253 17.818,13.728 19.654,10.282 18.783 C 7.551 18.092,5.528 15.853,5.075 13.020 C 5.009 12.607,5.009 11.393,5.075 10.980 C 5.482 8.431,7.134 6.379,9.519 5.458 C 10.069 5.246,10.623 5.120,11.440 5.024 C 11.704 4.992,12.780 5.038,13.120 5.095 M11.400 5.958 C 10.061 6.101,8.799 6.681,7.828 7.601 C 7.473 7.937,6.960 8.552,6.960 8.642 C 6.960 8.693,7.486 8.690,8.348 8.635 L 9.055 8.590 9.128 8.679 C 9.167 8.729,9.200 8.809,9.200 8.858 C 9.200 9.017,9.077 9.080,8.675 9.125 C 8.469 9.148,8.296 9.171,8.291 9.175 C 8.287 9.180,8.738 10.533,9.295 12.182 C 9.852 13.831,10.349 15.306,10.400 15.460 L 10.493 15.740 11.147 13.780 C 11.506 12.702,11.800 11.791,11.800 11.755 C 11.800 11.704,11.056 9.617,10.901 9.233 C 10.881 9.183,10.803 9.159,10.607 9.140 C 10.195 9.101,10.122 9.080,10.057 8.981 C 9.983 8.868,10.017 8.695,10.126 8.637 C 10.178 8.609,10.465 8.611,11.040 8.645 C 11.703 8.683,12.059 8.683,12.748 8.643 L 13.618 8.593 13.689 8.681 C 13.728 8.729,13.760 8.809,13.760 8.858 C 13.760 9.019,13.636 9.081,13.238 9.122 C 13.033 9.144,12.861 9.166,12.855 9.172 C 12.849 9.178,13.333 10.635,13.931 12.411 C 14.528 14.186,15.028 15.626,15.042 15.609 C 15.081 15.563,15.990 12.485,16.041 12.225 C 16.181 11.518,16.038 10.788,15.616 10.060 C 15.230 9.392,15.121 9.171,15.057 8.922 C 14.887 8.258,15.236 7.666,15.871 7.539 L 16.091 7.496 15.835 7.294 C 14.742 6.433,13.550 5.989,12.208 5.943 C 11.929 5.933,11.565 5.940,11.400 5.958 M17.336 9.710 C 17.332 10.373,17.257 10.869,17.081 11.398 C 17.019 11.586,16.543 12.962,16.024 14.456 C 15.505 15.949,15.080 17.188,15.080 17.208 C 15.080 17.228,15.247 17.131,15.450 16.993 C 15.934 16.663,16.671 15.927,16.992 15.452 C 18.086 13.837,18.363 11.887,17.757 10.077 C 17.645 9.744,17.381 9.120,17.352 9.120 C 17.346 9.120,17.338 9.386,17.336 9.710 M6.397 9.664 C 5.606 11.673,5.820 13.698,7.012 15.458 C 7.474 16.141,8.422 16.989,9.116 17.338 C 9.306 17.434,9.329 17.438,9.311 17.374 C 9.281 17.260,6.475 9.582,6.458 9.564 C 6.449 9.556,6.422 9.601,6.397 9.664 M11.193 15.190 C 10.355 17.628,10.295 17.822,10.366 17.849 C 10.408 17.865,10.624 17.915,10.846 17.959 C 11.715 18.133,12.621 18.105,13.518 17.875 C 13.770 17.810,13.983 17.751,13.991 17.743 C 14.005 17.728,12.185 12.718,12.128 12.616 C 12.109 12.581,11.757 13.551,11.193 15.190 " fill="#373B4D" stroke="none" fill-rule="evenodd"></path></svg>