<svg width="24" height="24" viewBox="0 0 24 24" fill="none" xmlns="http://www.w3.org/2000/svg"><path d="M10.960 2.483 C 10.529 2.522,9.753 2.687,9.175 2.863 C 7.694 3.311,6.417 4.074,5.312 5.171 C 3.805 6.665,2.893 8.403,2.543 10.445 C 2.150 12.732,2.671 15.225,3.947 17.178 C 5.248 19.167,7.063 20.510,9.409 21.217 C 10.384 21.511,10.564 21.534,11.920 21.537 C 13.206 21.540,13.437 21.520,14.160 21.339 C 16.336 20.794,18.255 19.563,19.560 17.875 C 20.466 16.703,21.204 15.049,21.468 13.600 C 21.571 13.039,21.571 10.898,21.468 10.380 C 20.876 7.391,19.104 4.964,16.480 3.550 C 15.484 3.013,14.237 2.625,13.173 2.522 C 12.619 2.469,11.364 2.446,10.960 2.483 M10.106 8.563 C 10.287 8.650,10.703 9.021,11.490 9.796 L 12.000 10.299 12.490 9.816 C 13.203 9.115,13.721 8.642,13.859 8.567 C 13.949 8.519,14.088 8.502,14.400 8.501 C 14.788 8.500,14.834 8.508,15.009 8.611 C 15.463 8.878,15.686 9.597,15.456 10.051 C 15.345 10.268,15.001 10.670,14.341 11.351 L 13.711 12.001 14.333 12.639 C 15.408 13.742,15.539 13.931,15.537 14.380 C 15.535 15.058,15.038 15.580,14.400 15.576 C 13.966 15.573,13.782 15.444,12.669 14.361 L 12.000 13.711 11.359 14.334 C 10.537 15.136,10.144 15.469,9.964 15.519 C 9.750 15.579,9.399 15.568,9.187 15.496 C 8.954 15.417,8.689 15.164,8.562 14.900 C 8.436 14.638,8.423 14.172,8.536 13.960 C 8.663 13.720,9.025 13.298,9.669 12.638 L 10.289 12.001 9.579 11.271 C 8.840 10.509,8.565 10.167,8.480 9.904 C 8.424 9.730,8.448 9.358,8.527 9.174 C 8.668 8.847,8.950 8.567,9.225 8.479 C 9.400 8.423,9.916 8.472,10.106 8.563 " fill="#373B4D" stroke="none" fill-rule="evenodd"></path></svg>