<svg width="24" height="24" viewBox="0 0 24 24" fill="none" xmlns="http://www.w3.org/2000/svg"><path d="M10.800 2.560 C 9.246 2.685,7.471 3.441,6.040 4.585 C 5.599 4.937,4.771 5.770,4.440 6.194 C 3.480 7.422,2.855 8.853,2.533 10.560 C 2.444 11.034,2.431 12.733,2.513 13.300 C 2.652 14.269,3.083 15.571,3.565 16.480 C 3.987 17.275,4.415 17.854,5.100 18.555 C 6.022 19.499,6.625 19.943,7.760 20.518 C 9.182 21.237,10.130 21.486,11.668 21.544 C 12.869 21.589,13.772 21.467,14.800 21.121 C 16.055 20.698,17.043 20.168,18.000 19.405 C 19.520 18.193,20.455 16.796,21.163 14.680 C 21.468 13.769,21.494 13.558,21.497 12.000 C 21.500 10.529,21.486 10.391,21.255 9.591 C 20.689 7.634,19.633 5.982,18.143 4.724 C 16.822 3.609,14.953 2.773,13.400 2.604 C 12.865 2.546,11.301 2.519,10.800 2.560 M10.146 8.657 C 10.371 8.780,10.685 9.047,11.451 9.769 L 12.002 10.288 12.571 9.750 C 12.884 9.453,13.302 9.062,13.500 8.881 L 13.860 8.551 14.360 8.569 C 14.887 8.588,15.019 8.626,15.188 8.806 C 15.365 8.997,15.438 9.234,15.439 9.626 C 15.440 9.980,15.435 9.999,15.296 10.206 C 15.087 10.518,14.939 10.691,14.294 11.382 L 13.714 12.003 14.144 12.451 C 15.025 13.371,15.364 13.799,15.445 14.098 C 15.513 14.348,15.431 14.856,15.289 15.060 C 15.140 15.273,14.849 15.463,14.578 15.524 C 14.120 15.626,13.860 15.468,12.720 14.395 L 11.997 13.714 11.389 14.290 C 10.529 15.103,10.136 15.432,9.966 15.479 C 9.756 15.537,9.340 15.529,9.183 15.464 C 8.989 15.383,8.751 15.153,8.649 14.949 C 8.594 14.839,8.550 14.657,8.535 14.471 C 8.512 14.204,8.520 14.147,8.610 13.955 C 8.729 13.700,9.059 13.298,9.766 12.551 L 10.285 12.002 9.642 11.316 C 8.869 10.491,8.619 10.169,8.537 9.891 C 8.420 9.496,8.551 9.086,8.911 8.724 L 9.126 8.509 9.539 8.530 C 9.886 8.548,9.984 8.568,10.146 8.657 " fill="#373B4D" stroke="none" fill-rule="evenodd"></path></svg>