<svg width="24" height="24" viewBox="0 0 24 24" fill="none" xmlns="http://www.w3.org/2000/svg"><path d="M10.460 2.556 C 8.397 2.940,6.796 3.749,5.385 5.120 C 4.496 5.984,3.882 6.821,3.377 7.860 C 2.066 10.554,2.096 13.601,3.462 16.323 C 4.177 17.749,5.334 19.053,6.680 19.949 C 7.607 20.566,8.758 21.065,9.980 21.380 C 10.692 21.563,12.698 21.607,13.602 21.459 C 14.327 21.340,15.373 20.991,16.183 20.597 C 17.678 19.870,19.020 18.714,19.908 17.388 C 20.322 16.768,20.870 15.645,21.111 14.919 C 21.413 14.007,21.475 13.692,21.529 12.787 C 21.595 11.660,21.531 10.569,21.360 9.900 C 21.053 8.702,20.624 7.713,19.996 6.757 C 18.554 4.560,16.139 2.990,13.567 2.575 C 13.303 2.532,12.811 2.507,12.020 2.497 C 11.015 2.484,10.807 2.492,10.460 2.556 M9.968 8.521 C 10.189 8.583,10.464 8.808,11.273 9.586 L 12.006 10.292 12.473 9.834 C 13.142 9.178,13.569 8.783,13.763 8.642 C 13.929 8.522,13.941 8.520,14.400 8.520 C 14.854 8.520,14.873 8.523,15.030 8.637 C 15.356 8.874,15.525 9.206,15.530 9.620 C 15.531 9.752,15.505 9.923,15.472 10.000 C 15.382 10.210,14.997 10.668,14.320 11.371 L 13.712 12.001 14.319 12.625 C 15.370 13.705,15.520 13.924,15.520 14.371 C 15.520 14.759,15.407 15.029,15.143 15.270 C 14.905 15.488,14.716 15.560,14.384 15.560 C 13.965 15.560,13.751 15.411,12.670 14.362 L 12.000 13.712 11.370 14.322 C 10.244 15.414,10.044 15.557,9.648 15.559 C 9.302 15.561,9.099 15.489,8.873 15.286 C 8.584 15.027,8.481 14.787,8.480 14.378 C 8.480 14.092,8.493 14.035,8.594 13.876 C 8.755 13.621,9.134 13.189,9.755 12.550 L 10.290 12.000 9.735 11.430 C 9.063 10.740,8.724 10.350,8.573 10.093 C 8.474 9.924,8.461 9.863,8.465 9.598 C 8.470 9.360,8.493 9.253,8.572 9.098 C 8.670 8.906,8.877 8.681,9.079 8.546 C 9.194 8.469,9.726 8.454,9.968 8.521 " fill="#373B4D" stroke="none" fill-rule="evenodd"></path></svg>