<svg width="24" height="24" viewBox="0 0 24 24" fill="none" xmlns="http://www.w3.org/2000/svg"><path d="M10.380 2.584 C 9.146 2.805,7.814 3.332,6.818 3.994 C 5.607 4.798,4.441 6.012,3.731 7.210 C 3.095 8.282,2.595 9.799,2.477 11.017 C 2.416 11.644,2.450 13.022,2.538 13.500 C 2.834 15.098,3.464 16.562,4.384 17.783 C 4.692 18.193,5.413 18.941,5.860 19.314 C 6.955 20.230,8.796 21.132,10.113 21.398 C 10.966 21.570,12.647 21.601,13.520 21.460 C 14.869 21.242,16.569 20.504,17.751 19.625 C 18.512 19.058,19.458 18.066,19.930 17.340 C 20.536 16.406,21.175 14.903,21.408 13.860 C 21.477 13.553,21.492 13.309,21.509 12.193 C 21.531 10.702,21.515 10.522,21.278 9.660 C 20.383 6.398,18.040 3.934,14.858 2.907 C 14.259 2.714,13.727 2.612,13.060 2.562 C 12.253 2.502,10.772 2.514,10.380 2.584 M9.979 8.565 C 10.224 8.633,10.408 8.778,11.236 9.561 L 12.002 10.286 12.671 9.651 C 13.039 9.302,13.456 8.914,13.597 8.788 L 13.854 8.560 14.351 8.560 C 14.935 8.560,15.048 8.598,15.236 8.861 C 15.432 9.133,15.480 9.285,15.480 9.633 C 15.480 9.930,15.472 9.960,15.326 10.184 C 15.147 10.458,14.752 10.914,14.143 11.549 L 13.713 11.999 14.315 12.629 C 14.963 13.308,15.319 13.734,15.424 13.955 C 15.508 14.131,15.484 14.715,15.385 14.924 C 15.233 15.245,14.872 15.506,14.524 15.547 C 14.062 15.602,13.782 15.421,12.670 14.356 L 12.000 13.714 11.350 14.333 C 10.160 15.466,10.070 15.528,9.588 15.530 C 9.190 15.532,9.087 15.486,8.812 15.186 C 8.584 14.936,8.501 14.711,8.503 14.340 C 8.503 14.171,8.530 14.050,8.592 13.931 C 8.712 13.703,9.164 13.168,9.777 12.530 L 10.287 12.001 9.707 11.390 C 8.534 10.154,8.428 9.982,8.498 9.423 C 8.530 9.167,8.683 8.914,8.949 8.680 L 9.131 8.520 9.476 8.520 C 9.665 8.520,9.892 8.540,9.979 8.565 " fill="#373B4D" stroke="none" fill-rule="evenodd"></path></svg>