<svg width="24" height="24" viewBox="0 0 24 24" fill="none" xmlns="http://www.w3.org/2000/svg"><path d="M10.760 2.522 C 10.374 2.561,9.778 2.692,9.213 2.863 C 7.699 3.321,6.431 4.086,5.278 5.239 C 4.146 6.370,3.447 7.473,2.937 8.932 C 2.589 9.928,2.429 10.874,2.427 11.940 C 2.425 12.966,2.541 13.773,2.827 14.720 C 3.603 17.286,5.348 19.360,7.722 20.537 C 8.525 20.935,9.507 21.288,10.181 21.420 C 10.954 21.572,12.804 21.593,13.592 21.458 C 14.060 21.378,14.717 21.191,15.300 20.971 C 17.069 20.304,18.595 19.166,19.682 17.700 C 20.542 16.540,21.320 14.686,21.487 13.400 C 21.553 12.883,21.554 11.041,21.487 10.580 C 21.355 9.662,20.930 8.407,20.452 7.520 C 19.135 5.077,16.774 3.289,14.060 2.676 C 13.604 2.573,13.417 2.554,12.540 2.521 C 11.413 2.478,11.186 2.478,10.760 2.522 M10.213 8.650 C 10.438 8.800,10.869 9.189,11.567 9.874 L 11.994 10.292 12.707 9.609 C 13.099 9.233,13.526 8.839,13.656 8.733 L 13.892 8.540 14.400 8.540 L 14.907 8.540 15.085 8.685 C 15.486 9.014,15.638 9.619,15.427 10.049 C 15.310 10.288,14.907 10.762,14.197 11.496 L 13.711 11.999 14.322 12.630 C 14.960 13.289,15.298 13.684,15.425 13.920 C 15.536 14.128,15.528 14.680,15.410 14.905 C 15.193 15.318,14.903 15.520,14.482 15.551 C 14.001 15.585,13.772 15.432,12.600 14.293 L 12.001 13.711 11.390 14.302 C 10.659 15.011,10.248 15.367,10.048 15.466 C 9.941 15.519,9.811 15.540,9.580 15.540 C 9.303 15.540,9.235 15.525,9.073 15.430 C 8.823 15.283,8.611 15.027,8.539 14.784 C 8.463 14.527,8.464 14.147,8.541 13.983 C 8.642 13.770,9.075 13.256,9.700 12.609 L 10.289 11.999 9.754 11.449 C 9.134 10.811,8.755 10.379,8.594 10.124 C 8.493 9.964,8.480 9.909,8.481 9.622 C 8.482 9.389,8.503 9.252,8.560 9.127 C 8.651 8.927,9.035 8.535,9.169 8.506 C 9.219 8.495,9.427 8.491,9.630 8.497 C 9.978 8.508,10.013 8.517,10.213 8.650 " fill="#373B4D" stroke="none" fill-rule="evenodd"></path></svg>