<svg width="24" height="24" viewBox="0 0 24 24" fill="none" xmlns="http://www.w3.org/2000/svg"><path d="M10.780 2.522 C 9.848 2.624,8.586 3.017,7.649 3.498 C 6.239 4.220,4.873 5.459,3.942 6.860 C 3.237 7.919,2.668 9.464,2.501 10.772 C 2.431 11.317,2.420 12.576,2.481 13.081 C 2.696 14.862,3.457 16.662,4.570 18.020 C 4.877 18.396,5.581 19.099,5.937 19.386 C 6.938 20.194,8.256 20.876,9.552 21.258 C 10.154 21.435,10.437 21.479,11.293 21.528 C 12.395 21.591,13.323 21.535,14.020 21.363 C 15.488 21.001,16.913 20.310,18.020 19.422 C 18.626 18.936,19.442 18.067,19.832 17.491 C 20.332 16.753,20.800 15.791,21.123 14.839 C 21.420 13.961,21.478 13.657,21.519 12.742 C 21.551 12.020,21.517 10.595,21.463 10.380 C 21.451 10.336,21.387 10.078,21.320 9.807 C 20.774 7.596,19.537 5.736,17.700 4.361 C 16.366 3.362,14.633 2.668,13.220 2.565 C 12.385 2.504,11.143 2.483,10.780 2.522 M10.120 8.603 C 10.321 8.706,10.571 8.922,11.330 9.647 L 12.000 10.287 12.670 9.648 C 13.039 9.297,13.457 8.908,13.600 8.785 L 13.859 8.560 14.394 8.560 C 14.926 8.560,14.929 8.561,15.078 8.678 C 15.160 8.743,15.288 8.910,15.362 9.048 C 15.480 9.269,15.497 9.337,15.498 9.600 C 15.498 9.835,15.479 9.937,15.409 10.069 C 15.289 10.295,14.840 10.825,14.221 11.470 L 13.712 12.001 14.242 12.550 C 14.868 13.197,15.208 13.587,15.366 13.836 C 15.470 14.000,15.480 14.047,15.479 14.378 C 15.478 14.812,15.410 14.992,15.146 15.256 C 14.822 15.580,14.288 15.649,13.895 15.419 C 13.653 15.277,13.284 14.956,12.584 14.277 L 12.002 13.712 11.311 14.375 C 10.490 15.161,10.114 15.469,9.921 15.509 C 9.739 15.547,9.370 15.547,9.234 15.510 C 9.056 15.461,8.746 15.185,8.632 14.975 C 8.503 14.737,8.450 14.339,8.516 14.096 C 8.585 13.837,8.961 13.375,9.834 12.472 L 10.289 12.003 9.665 11.351 C 9.010 10.666,8.642 10.229,8.541 10.016 C 8.469 9.864,8.462 9.508,8.526 9.252 C 8.589 9.004,9.024 8.532,9.213 8.509 C 9.465 8.477,9.979 8.530,10.120 8.603 " fill="#373B4D" stroke="none" fill-rule="evenodd"></path></svg>