<svg width="24" height="24" viewBox="0 0 24 24" fill="none" xmlns="http://www.w3.org/2000/svg"><path d="M10.800 2.602 C 9.953 2.652,9.188 2.852,8.279 3.261 C 6.771 3.938,5.535 4.887,4.488 6.170 C 3.517 7.359,2.767 9.091,2.533 10.680 C 2.428 11.395,2.439 12.868,2.554 13.500 C 2.856 15.155,3.599 16.799,4.565 17.948 C 4.922 18.373,5.698 19.144,6.080 19.452 C 6.934 20.141,8.561 20.975,9.600 21.255 C 10.436 21.481,10.632 21.500,12.100 21.497 L 13.460 21.494 14.014 21.346 C 15.888 20.845,17.402 20.015,18.653 18.802 C 19.696 17.790,20.318 16.838,20.913 15.340 C 21.339 14.268,21.411 13.950,21.483 12.820 C 21.537 11.953,21.512 10.911,21.423 10.380 C 21.183 8.955,20.388 7.240,19.397 6.013 C 18.128 4.440,15.991 3.130,14.061 2.740 C 13.262 2.578,12.060 2.527,10.800 2.602 M9.692 8.561 C 10.160 8.629,10.326 8.741,11.351 9.686 L 12.002 10.287 12.551 9.771 C 13.363 9.008,13.836 8.603,13.947 8.575 C 14.103 8.535,14.884 8.636,15.040 8.716 C 15.223 8.808,15.345 9.033,15.400 9.379 C 15.497 9.987,15.389 10.181,14.296 11.370 L 13.716 12.001 14.264 12.590 C 14.973 13.353,15.214 13.654,15.345 13.939 C 15.440 14.148,15.448 14.200,15.425 14.473 C 15.410 14.652,15.365 14.847,15.315 14.951 C 15.149 15.293,14.590 15.607,14.269 15.538 C 13.948 15.469,13.589 15.199,12.629 14.303 L 11.998 13.715 11.418 14.258 C 10.662 14.964,10.256 15.309,10.068 15.406 C 9.985 15.448,9.801 15.494,9.659 15.507 C 9.311 15.540,9.098 15.456,8.864 15.196 C 8.627 14.933,8.544 14.680,8.569 14.295 C 8.585 14.041,8.607 13.972,8.733 13.783 C 8.915 13.508,9.249 13.115,9.831 12.491 L 10.287 12.002 9.737 11.411 C 9.090 10.716,8.736 10.282,8.635 10.060 C 8.544 9.860,8.535 9.378,8.618 9.178 C 8.685 9.018,9.014 8.577,9.090 8.547 C 9.172 8.514,9.402 8.519,9.692 8.561 " fill="#373B4D" stroke="none" fill-rule="evenodd"></path></svg>