<svg width="24" height="24" viewBox="0 0 24 24" fill="none" xmlns="http://www.w3.org/2000/svg"><path d="M10.289 2.625 C 9.884 2.688,9.108 2.900,8.687 3.064 C 7.846 3.390,6.714 4.042,6.040 4.589 C 5.622 4.928,4.580 5.998,4.311 6.365 C 3.488 7.486,2.931 8.746,2.599 10.240 C 2.430 11.002,2.402 12.647,2.544 13.480 C 2.754 14.707,3.342 16.217,3.993 17.200 C 4.677 18.233,5.842 19.378,6.866 20.023 C 7.315 20.306,8.462 20.870,8.970 21.057 C 9.925 21.410,10.747 21.536,12.080 21.534 C 12.901 21.533,13.134 21.519,13.520 21.448 C 15.715 21.046,17.863 19.828,19.258 18.196 C 20.031 17.291,20.567 16.333,21.060 14.972 C 21.389 14.066,21.440 13.808,21.485 12.820 C 21.527 11.881,21.505 10.799,21.433 10.340 C 21.294 9.444,20.679 7.897,20.099 6.980 C 19.148 5.480,17.896 4.341,16.320 3.543 C 15.235 2.994,14.306 2.706,13.286 2.602 C 12.677 2.540,10.743 2.555,10.289 2.625 M10.099 8.640 C 10.315 8.744,10.669 9.039,11.400 9.724 L 12.000 10.286 12.834 9.503 C 13.293 9.073,13.718 8.682,13.778 8.634 C 13.881 8.553,13.916 8.550,14.364 8.574 C 15.016 8.609,15.189 8.695,15.343 9.061 C 15.443 9.298,15.467 9.871,15.385 10.043 C 15.272 10.279,14.981 10.637,14.338 11.331 L 13.716 12.002 14.234 12.551 C 15.388 13.773,15.530 14.015,15.438 14.592 C 15.370 15.020,15.215 15.228,14.812 15.434 C 14.431 15.628,14.122 15.577,13.680 15.244 C 13.537 15.136,13.100 14.748,12.709 14.382 L 11.999 13.716 11.389 14.288 C 10.191 15.412,10.040 15.518,9.620 15.519 C 9.299 15.520,9.147 15.471,8.939 15.301 C 8.682 15.091,8.555 14.802,8.547 14.413 C 8.541 14.154,8.556 14.069,8.634 13.920 C 8.766 13.668,9.089 13.276,9.732 12.590 L 10.285 12.000 9.728 11.405 C 8.680 10.287,8.519 10.047,8.521 9.602 C 8.522 9.279,8.597 9.104,8.880 8.764 L 9.092 8.509 9.514 8.534 C 9.810 8.553,9.984 8.584,10.099 8.640 " fill="#373B4D" stroke="none" fill-rule="evenodd"></path></svg>