<svg width="24" height="24" viewBox="0 0 24 24" fill="none" xmlns="http://www.w3.org/2000/svg"><path d="M5.572 4.955 C 5.351 5.059,5.053 5.338,4.952 5.535 C 4.908 5.623,4.862 5.797,4.850 5.922 C 4.810 6.367,4.983 6.597,6.642 8.303 C 7.132 8.808,8.156 9.845,8.917 10.610 L 10.300 12.000 8.916 13.390 C 6.136 16.183,5.152 17.228,4.969 17.580 C 4.823 17.859,4.824 18.146,4.972 18.447 C 5.163 18.839,5.425 19.036,5.859 19.116 C 6.352 19.208,6.339 19.213,6.908 18.690 C 7.530 18.118,8.849 16.832,10.650 15.042 L 12.000 13.700 13.370 15.064 C 14.124 15.813,15.127 16.802,15.600 17.261 C 17.335 18.943,17.667 19.196,18.077 19.148 C 18.542 19.093,18.978 18.717,19.100 18.266 C 19.164 18.029,19.164 17.995,19.105 17.790 C 19.069 17.669,18.962 17.464,18.866 17.335 C 18.615 16.997,17.510 15.839,15.483 13.790 L 13.712 12.000 15.442 10.250 C 18.366 7.292,19.034 6.567,19.120 6.259 C 19.293 5.642,18.786 4.982,18.075 4.898 C 17.556 4.838,17.243 5.101,13.790 8.517 L 12.000 10.288 10.210 8.519 C 7.546 5.885,6.779 5.173,6.422 5.001 C 6.171 4.880,5.778 4.859,5.572 4.955 " fill="#373B4D" stroke="none" fill-rule="evenodd"></path></svg>