<svg width="10" height="10" viewBox="0 0 10 10" fill="none" xmlns="http://www.w3.org/2000/svg">
<path fill-rule="evenodd" clip-rule="evenodd" d="M0.434144 0.434388C0.746563 0.121968 1.2531 0.121968 1.56551 0.434388L4.99983 3.8687L8.43414 0.434388C8.74656 0.121968 9.2531 0.121968 9.56551 0.434388C9.87793 0.746807 9.87793 1.25334 9.56551 1.56576L6.1312 5.00007L9.56551 8.43439C9.87793 8.74681 9.87793 9.25334 9.56551 9.56576C9.2531 9.87818 8.74656 9.87818 8.43414 9.56576L4.99983 6.13145L1.56551 9.56576C1.2531 9.87818 0.746563 9.87818 0.434144 9.56576C0.121724 9.25334 0.121724 8.74681 0.434144 8.43439L3.86846 5.00007L0.434144 1.56576C0.121724 1.25334 0.121724 0.746807 0.434144 0.434388Z" fill="#616B7C"/>
</svg>
