<svg width="24" height="24" viewBox="0 0 24 24" fill="none" xmlns="http://www.w3.org/2000/svg"><path d="M5.628 4.975 C 5.159 5.150,4.876 5.533,4.870 6.000 C 4.864 6.470,4.920 6.535,8.354 10.030 L 10.289 12.000 8.578 13.730 C 5.988 16.348,5.127 17.282,4.955 17.660 C 4.819 17.957,4.895 18.382,5.140 18.703 C 5.321 18.941,5.974 19.199,6.253 19.143 C 6.505 19.093,6.823 18.798,10.109 15.568 L 11.999 13.711 13.950 15.626 C 17.000 18.617,17.412 18.992,17.764 19.097 C 18.108 19.200,18.482 19.074,18.779 18.757 C 19.106 18.407,19.204 18.002,19.043 17.660 C 18.863 17.275,17.977 16.314,15.403 13.710 L 13.713 12.001 15.650 10.030 C 18.251 7.385,18.922 6.665,19.059 6.377 C 19.149 6.186,19.138 5.797,19.035 5.578 C 18.818 5.118,18.164 4.814,17.716 4.966 C 17.299 5.108,16.279 6.042,13.272 9.034 L 12.005 10.295 10.192 8.516 C 7.260 5.638,6.830 5.239,6.461 5.051 C 6.217 4.927,5.848 4.893,5.628 4.975 " fill="#373B4D" stroke="none" fill-rule="evenodd"></path></svg>