<svg width="24" height="24" viewBox="0 0 24 24" fill="none" xmlns="http://www.w3.org/2000/svg"><path d="M5.760 4.835 C 5.525 4.884,5.198 5.088,5.055 5.275 C 4.815 5.589,4.747 5.967,4.861 6.352 C 4.941 6.619,5.021 6.704,7.956 9.648 L 10.297 11.997 7.698 14.608 C 6.269 16.045,5.050 17.294,4.989 17.384 C 4.925 17.478,4.858 17.653,4.832 17.794 C 4.647 18.785,5.796 19.568,6.617 19.011 C 6.707 18.950,7.954 17.732,9.390 16.303 L 12.000 13.707 14.610 16.303 C 16.046 17.732,17.293 18.950,17.383 19.011 C 18.031 19.450,18.984 19.043,19.166 18.250 C 19.229 17.973,19.164 17.610,19.011 17.384 C 18.950 17.294,17.731 16.045,16.302 14.608 L 13.704 11.997 16.045 9.648 C 18.979 6.704,19.059 6.619,19.139 6.352 C 19.305 5.791,19.078 5.239,18.568 4.968 C 18.354 4.853,18.294 4.840,17.992 4.840 C 17.451 4.840,17.640 4.678,14.331 7.976 L 12.002 10.297 9.491 7.797 C 8.110 6.422,6.881 5.215,6.760 5.114 C 6.464 4.867,6.098 4.765,5.760 4.835 " fill="#373B4D" stroke="none" fill-rule="evenodd"></path></svg>