<svg width="24" height="24" viewBox="0 0 24 24" fill="none" xmlns="http://www.w3.org/2000/svg"><path d="M5.700 4.888 C 5.510 4.957,5.165 5.199,5.059 5.337 C 4.829 5.639,4.767 6.100,4.916 6.392 C 5.076 6.706,5.930 7.608,8.775 10.467 L 10.294 11.995 8.360 13.947 C 6.328 15.999,5.333 17.040,5.079 17.377 C 4.820 17.722,4.781 18.071,4.959 18.450 C 5.172 18.902,5.507 19.117,6.049 19.148 L 6.380 19.166 6.805 18.786 C 7.339 18.309,8.680 17.005,10.547 15.146 L 11.995 13.706 13.927 15.620 C 15.957 17.630,17.046 18.671,17.380 18.921 C 17.638 19.113,17.836 19.176,18.105 19.148 C 18.493 19.108,18.848 18.852,19.047 18.469 C 19.182 18.209,19.172 17.805,19.024 17.534 C 18.872 17.255,17.982 16.311,15.663 13.970 L 13.712 12.000 15.642 10.050 C 17.698 7.973,18.841 6.778,19.023 6.515 C 19.258 6.177,19.184 5.595,18.864 5.267 C 18.622 5.018,18.409 4.918,18.063 4.891 C 17.822 4.873,17.750 4.883,17.609 4.955 C 17.226 5.151,16.294 6.024,13.513 8.793 L 12.005 10.294 10.073 8.380 C 7.286 5.621,6.614 5.007,6.284 4.923 C 6.021 4.856,5.821 4.844,5.700 4.888 " fill="#373B4D" stroke="none" fill-rule="evenodd"></path></svg>