<svg width="24" height="24" viewBox="0 0 24 24" fill="none" xmlns="http://www.w3.org/2000/svg"><path d="M5.488 5.000 C 5.159 5.192,4.974 5.401,4.897 5.664 C 4.797 6.007,4.833 6.271,5.014 6.534 C 5.234 6.854,6.210 7.880,8.358 10.050 L 10.288 12.001 8.457 13.850 C 6.312 16.017,5.241 17.142,5.058 17.420 C 4.800 17.810,4.787 18.114,5.008 18.529 C 5.222 18.930,5.525 19.105,6.080 19.146 L 6.380 19.169 6.820 18.772 C 7.375 18.271,8.819 16.866,10.607 15.086 L 11.995 13.706 13.827 15.520 C 16.010 17.681,17.137 18.750,17.451 18.961 C 17.589 19.053,17.754 19.126,17.860 19.142 C 18.401 19.223,19.002 18.786,19.118 18.227 C 19.182 17.921,19.115 17.657,18.903 17.370 C 18.647 17.024,17.619 15.947,15.563 13.870 L 13.711 12.000 15.483 10.210 C 17.894 7.773,18.939 6.667,19.061 6.422 C 19.242 6.060,19.159 5.604,18.853 5.277 C 18.627 5.035,18.414 4.931,18.073 4.897 C 17.848 4.874,17.780 4.883,17.632 4.954 C 17.253 5.138,16.475 5.858,13.838 8.469 L 11.995 10.294 10.547 8.855 C 7.762 6.086,6.844 5.222,6.465 5.016 C 6.316 4.935,6.194 4.903,5.983 4.891 C 5.724 4.877,5.682 4.886,5.488 5.000 " fill="#373B4D" stroke="none" fill-rule="evenodd"></path></svg>