<svg width="24" height="24" viewBox="0 0 24 24" fill="none" xmlns="http://www.w3.org/2000/svg"><path d="M5.490 4.979 C 4.866 5.294,4.642 5.921,4.950 6.493 C 5.073 6.723,5.806 7.486,8.535 10.227 L 10.294 11.994 8.021 14.287 C 5.553 16.777,5.026 17.335,4.914 17.580 C 4.740 17.965,4.862 18.507,5.197 18.832 C 5.441 19.069,5.608 19.136,6.001 19.153 L 6.342 19.167 6.595 18.977 C 6.901 18.747,8.004 17.680,10.287 15.406 L 11.995 13.706 14.207 15.900 C 16.610 18.282,17.324 18.960,17.552 19.075 C 18.128 19.367,18.938 18.989,19.119 18.343 C 19.189 18.094,19.156 17.739,19.041 17.502 C 18.934 17.282,18.308 16.628,15.465 13.773 L 13.706 12.006 15.959 9.733 C 18.426 7.244,19.009 6.629,19.106 6.407 C 19.143 6.324,19.172 6.146,19.174 6.000 C 19.177 5.683,19.074 5.444,18.827 5.196 C 18.617 4.984,18.393 4.884,18.063 4.853 C 17.544 4.805,17.419 4.910,14.216 8.090 L 12.001 10.290 9.750 8.058 C 6.630 4.964,6.547 4.892,6.020 4.851 C 5.804 4.835,5.751 4.847,5.490 4.979 " fill="#373B4D" stroke="none" fill-rule="evenodd"></path></svg>