<svg width="24" height="24" viewBox="0 0 24 24" fill="none" xmlns="http://www.w3.org/2000/svg"><path d="M5.654 4.976 C 5.327 5.081,5.032 5.365,4.926 5.676 C 4.901 5.751,4.880 5.914,4.880 6.038 C 4.880 6.478,5.030 6.649,8.535 10.214 L 10.289 11.999 8.638 13.670 C 6.824 15.505,5.614 16.778,5.243 17.240 C 4.852 17.728,4.797 18.046,5.023 18.510 C 5.136 18.741,5.337 18.905,5.668 19.035 C 5.972 19.155,6.208 19.179,6.353 19.104 C 6.636 18.957,7.276 18.354,10.255 15.425 L 12.000 13.710 13.730 15.407 C 17.405 19.011,17.531 19.120,18.011 19.120 C 18.421 19.120,18.821 18.826,19.029 18.371 C 19.143 18.122,19.142 17.881,19.024 17.633 C 18.851 17.270,17.847 16.184,15.322 13.630 L 13.711 12.000 15.528 10.150 C 18.449 7.174,18.906 6.683,19.050 6.363 C 19.212 6.003,19.070 5.469,18.747 5.223 C 18.356 4.924,17.881 4.857,17.548 5.053 C 17.080 5.328,16.119 6.217,13.650 8.658 L 11.999 10.289 10.375 8.695 C 7.391 5.765,6.769 5.190,6.420 5.037 C 6.194 4.938,5.855 4.911,5.654 4.976 " fill="#373B4D" stroke="none" fill-rule="evenodd"></path></svg>