<svg width="24" height="24" viewBox="0 0 24 24" fill="none" xmlns="http://www.w3.org/2000/svg"><path d="M5.535 4.957 C 4.909 5.274,4.663 5.853,4.916 6.418 C 5.020 6.651,5.670 7.340,8.118 9.810 L 10.288 12.000 8.137 14.170 C 5.724 16.606,5.042 17.329,4.922 17.584 C 4.755 17.940,4.851 18.430,5.153 18.766 C 5.403 19.044,5.585 19.127,6.000 19.151 L 6.342 19.170 6.641 18.932 C 6.994 18.652,8.215 17.469,10.407 15.286 L 11.994 13.706 14.127 15.820 C 16.533 18.204,17.335 18.961,17.578 19.079 C 17.694 19.135,17.826 19.160,18.009 19.160 C 18.847 19.160,19.415 18.256,19.040 17.520 C 18.918 17.282,18.310 16.640,15.919 14.227 L 13.706 11.994 15.327 10.367 C 17.442 8.243,18.742 6.903,18.957 6.624 C 19.115 6.419,19.133 6.374,19.151 6.120 C 19.179 5.731,19.110 5.520,18.875 5.262 C 18.630 4.994,18.362 4.873,18.001 4.865 C 17.768 4.861,17.712 4.875,17.514 4.995 C 17.153 5.214,16.458 5.866,14.164 8.143 L 12.001 10.289 9.850 8.158 C 6.747 5.081,6.546 4.907,6.040 4.858 C 5.802 4.836,5.759 4.844,5.535 4.957 " fill="#373B4D" stroke="none" fill-rule="evenodd"></path></svg>