<svg width="24" height="24" viewBox="0 0 24 24" fill="none" xmlns="http://www.w3.org/2000/svg"><path d="M5.574 4.940 C 5.283 5.086,5.025 5.326,4.918 5.549 C 4.795 5.807,4.793 6.158,4.912 6.404 C 5.034 6.655,5.846 7.516,8.238 9.930 L 10.288 12.000 8.237 14.070 C 5.854 16.476,5.078 17.301,4.939 17.578 C 4.758 17.940,4.843 18.398,5.160 18.766 C 5.382 19.024,5.606 19.124,6.021 19.150 L 6.357 19.171 6.703 18.877 C 7.125 18.519,8.481 17.204,10.487 15.207 L 11.994 13.706 14.027 15.720 C 16.440 18.111,17.307 18.926,17.578 19.061 C 17.811 19.178,18.050 19.188,18.359 19.096 C 18.670 19.004,19.009 18.659,19.102 18.340 C 19.183 18.059,19.165 17.798,19.045 17.551 C 18.922 17.296,18.202 16.532,15.802 14.110 L 13.712 12.000 15.742 9.950 C 18.239 7.429,18.986 6.637,19.091 6.403 C 19.154 6.262,19.166 6.168,19.151 5.934 C 19.128 5.577,18.996 5.336,18.705 5.116 C 18.468 4.937,18.287 4.880,17.955 4.880 C 17.726 4.880,17.674 4.896,17.471 5.030 C 17.098 5.276,16.296 6.032,14.087 8.221 L 11.994 10.294 10.407 8.714 C 7.572 5.891,6.792 5.159,6.406 4.964 C 6.326 4.923,6.152 4.877,6.020 4.863 C 5.810 4.839,5.754 4.849,5.574 4.940 " fill="#373B4D" stroke="none" fill-rule="evenodd"></path></svg>