<svg width="24" height="24" viewBox="0 0 24 24" fill="none" xmlns="http://www.w3.org/2000/svg"><path d="M18.251 4.038 C 17.504 4.056,17.310 4.073,17.263 4.120 C 17.171 4.212,15.732 7.634,14.555 10.559 C 14.023 11.882,14.004 11.940,14.085 11.970 C 14.131 11.987,14.963 11.996,15.933 11.990 L 17.698 11.980 19.285 8.148 C 20.158 6.041,20.901 4.246,20.936 4.158 L 20.999 4.000 20.090 4.007 C 19.589 4.011,18.762 4.025,18.251 4.038 M9.581 10.084 C 9.101 11.281,8.650 12.386,8.580 12.540 L 8.453 12.820 8.367 12.680 C 8.294 12.563,7.060 9.511,6.642 8.414 C 6.573 8.234,6.488 8.063,6.452 8.034 C 6.401 7.991,6.040 7.977,4.714 7.967 C 3.793 7.960,3.040 7.963,3.040 7.974 C 3.040 7.985,3.519 9.125,4.104 10.507 C 4.689 11.889,5.526 13.870,5.964 14.910 L 6.760 16.800 6.226 18.070 C 5.560 19.655,5.460 19.913,5.497 19.950 C 5.534 19.988,8.343 20.018,8.576 19.983 C 8.750 19.957,8.750 19.956,8.912 19.608 C 9.073 19.260,10.548 15.736,11.921 12.420 C 12.880 10.102,13.680 8.119,13.680 8.060 C 13.680 7.991,13.283 7.965,11.767 7.934 L 10.455 7.907 9.581 10.084 M14.420 12.835 C 14.046 12.933,13.557 13.265,13.311 13.590 C 13.110 13.855,12.968 14.177,12.896 14.531 C 12.842 14.793,12.842 14.856,12.897 15.122 C 13.076 15.987,13.721 16.671,14.512 16.836 C 15.584 17.059,16.682 16.327,16.943 15.215 C 17.019 14.891,17.002 14.522,16.896 14.203 C 16.732 13.711,16.180 13.143,15.652 12.923 C 15.463 12.844,15.339 12.824,14.980 12.815 C 14.738 12.809,14.486 12.818,14.420 12.835 " fill="#373B4D" stroke="none" fill-rule="evenodd"></path></svg>