<svg width="24" height="24" viewBox="0 0 24 24" fill="none" xmlns="http://www.w3.org/2000/svg"><path d="M17.262 4.037 C 17.229 4.090,13.995 11.847,13.971 11.930 C 13.952 11.997,14.052 12.000,15.822 11.990 L 17.693 11.980 19.285 8.140 C 20.162 6.028,20.906 4.232,20.939 4.150 L 20.999 4.000 19.142 4.000 C 18.051 4.000,17.275 4.015,17.262 4.037 M3.034 7.990 C 3.119 8.152,6.760 16.753,6.760 16.791 C 6.760 16.814,6.480 17.487,6.137 18.287 C 5.794 19.086,5.489 19.799,5.459 19.870 L 5.404 20.001 7.090 19.990 L 8.776 19.980 11.279 13.960 L 13.782 7.940 12.125 7.930 C 11.213 7.924,10.460 7.927,10.450 7.936 C 10.441 7.946,9.992 9.067,9.454 10.427 C 8.915 11.787,8.461 12.914,8.445 12.931 C 8.428 12.948,7.973 11.832,7.433 10.451 L 6.451 7.940 4.724 7.930 C 3.086 7.920,2.999 7.923,3.034 7.990 M14.388 12.820 C 13.592 13.039,12.991 13.725,12.872 14.551 C 12.781 15.189,13.013 15.849,13.490 16.307 C 13.908 16.709,14.377 16.896,14.960 16.893 C 16.291 16.887,17.271 15.604,16.937 14.306 C 16.753 13.594,16.168 13.006,15.458 12.821 C 15.176 12.748,14.653 12.747,14.388 12.820 " fill="#373B4D" stroke="none" fill-rule="evenodd"></path></svg>