<svg width="24" height="24" viewBox="0 0 24 24" fill="none" xmlns="http://www.w3.org/2000/svg"><path d="M17.988 4.038 C 17.417 4.056,17.269 4.072,17.239 4.120 C 17.126 4.298,14.488 10.664,14.097 11.703 L 14.002 11.957 14.131 11.980 C 14.202 11.993,15.033 11.998,15.978 11.991 L 17.696 11.980 19.282 8.154 C 20.154 6.050,20.898 4.254,20.934 4.164 L 20.999 4.000 19.850 4.008 C 19.217 4.012,18.380 4.026,17.988 4.038 M3.270 7.946 C 3.144 7.956,3.040 7.970,3.040 7.976 C 3.040 7.993,3.529 9.153,4.550 11.560 C 5.013 12.649,5.699 14.274,6.076 15.170 L 6.762 16.800 6.100 18.366 C 5.736 19.227,5.449 19.942,5.462 19.956 C 5.476 19.969,6.201 19.985,7.073 19.992 C 8.323 20.001,8.675 19.992,8.728 19.952 C 8.807 19.892,8.883 19.716,10.108 16.780 C 12.381 11.329,13.731 8.037,13.703 8.010 C 13.673 7.979,12.144 7.924,11.274 7.922 L 10.449 7.920 9.580 10.090 C 8.655 12.399,8.486 12.800,8.440 12.800 C 8.424 12.800,8.343 12.652,8.260 12.470 C 8.112 12.146,7.078 9.554,6.695 8.546 C 6.546 8.152,6.479 8.024,6.410 7.997 C 6.315 7.960,3.657 7.917,3.270 7.946 M14.580 12.803 C 13.894 12.905,13.216 13.492,12.984 14.182 C 12.849 14.587,12.828 14.827,12.898 15.168 C 13.034 15.825,13.492 16.420,14.069 16.690 C 15.062 17.155,16.283 16.713,16.769 15.714 C 17.174 14.884,17.037 14.071,16.384 13.416 C 15.874 12.905,15.270 12.700,14.580 12.803 " fill="#373B4D" stroke="none" fill-rule="evenodd"></path></svg>