<svg width="24" height="24" viewBox="0 0 24 24" fill="none" xmlns="http://www.w3.org/2000/svg"><path d="M18.400 4.041 C 17.839 4.056,17.351 4.081,17.317 4.096 C 17.282 4.111,17.221 4.190,17.181 4.272 C 16.842 4.973,14.481 10.673,14.141 11.611 C 14.079 11.782,14.042 11.935,14.058 11.951 C 14.074 11.967,14.899 11.980,15.893 11.980 L 17.699 11.980 19.307 8.100 C 20.192 5.966,20.934 4.171,20.956 4.110 L 20.996 4.000 20.208 4.007 C 19.775 4.011,18.961 4.026,18.400 4.041 M9.781 9.584 C 8.792 12.046,8.475 12.802,8.440 12.780 C 8.423 12.770,8.369 12.676,8.321 12.572 C 8.222 12.363,7.203 9.849,6.778 8.768 C 6.601 8.317,6.479 8.061,6.429 8.034 C 6.381 8.009,5.714 7.984,4.689 7.970 C 3.270 7.951,3.030 7.956,3.048 8.004 C 3.060 8.035,3.560 9.221,4.160 10.640 C 4.759 12.059,5.589 14.025,6.004 15.010 L 6.757 16.800 6.233 18.050 C 5.643 19.457,5.466 19.919,5.502 19.955 C 5.515 19.969,6.235 19.980,7.102 19.980 C 8.482 19.980,8.685 19.972,8.740 19.917 C 8.827 19.831,9.079 19.245,10.640 15.500 C 13.111 9.572,13.710 8.083,13.639 8.039 C 13.567 7.995,12.976 7.964,11.657 7.935 L 10.455 7.908 9.781 9.584 M14.495 12.840 C 14.029 12.908,13.336 13.448,13.108 13.920 C 12.948 14.249,12.833 14.744,12.864 14.960 C 12.967 15.660,13.413 16.324,13.987 16.630 C 14.587 16.950,15.152 16.959,15.780 16.658 C 16.802 16.170,17.268 14.962,16.806 14.000 C 16.662 13.701,16.136 13.176,15.810 13.006 C 15.477 12.832,14.978 12.769,14.495 12.840 " fill="#373B4D" stroke="none" fill-rule="evenodd"></path></svg>