<svg width="24" height="24" viewBox="0 0 24 24" fill="none" xmlns="http://www.w3.org/2000/svg"><path d="M17.714 4.030 C 17.441 4.038,17.274 4.060,17.249 4.091 C 17.154 4.209,13.991 11.880,14.014 11.938 C 14.035 11.994,14.231 12.000,15.866 11.990 L 17.695 11.980 19.287 8.140 C 20.163 6.028,20.906 4.232,20.939 4.150 L 20.999 4.000 19.570 4.008 C 18.783 4.013,17.948 4.023,17.714 4.030 M3.190 7.949 C 3.107 7.958,3.040 7.972,3.040 7.981 C 3.040 7.990,3.398 8.840,3.835 9.869 C 4.864 12.289,6.070 15.144,6.457 16.073 L 6.763 16.806 6.101 18.363 C 5.738 19.219,5.440 19.937,5.440 19.959 C 5.440 20.007,8.674 20.016,8.744 19.969 C 8.790 19.939,9.272 18.798,11.040 14.540 C 12.612 10.754,13.720 8.054,13.720 8.011 C 13.720 7.970,12.329 7.920,11.153 7.920 L 10.446 7.920 9.766 9.630 C 8.819 12.010,8.476 12.840,8.439 12.840 C 8.422 12.840,8.299 12.583,8.167 12.270 C 7.938 11.727,6.559 8.232,6.505 8.056 C 6.480 7.976,6.444 7.971,5.693 7.946 C 4.889 7.919,3.459 7.921,3.190 7.949 M14.524 12.805 C 13.983 12.895,13.355 13.375,13.099 13.895 C 12.899 14.300,12.817 14.734,12.875 15.081 C 12.974 15.685,13.279 16.177,13.765 16.518 C 14.089 16.746,14.328 16.831,14.741 16.866 C 15.381 16.921,15.921 16.727,16.365 16.284 C 17.201 15.447,17.211 14.219,16.387 13.396 C 15.873 12.881,15.252 12.684,14.524 12.805 " fill="#373B4D" stroke="none" fill-rule="evenodd"></path></svg>