<svg width="24" height="24" viewBox="0 0 24 24" fill="none" xmlns="http://www.w3.org/2000/svg"><path d="M17.415 4.029 C 17.268 4.042,17.244 4.060,17.190 4.192 C 17.157 4.273,16.429 6.023,15.572 8.080 C 14.714 10.137,14.001 11.851,13.988 11.890 C 13.970 11.940,13.988 11.965,14.051 11.981 C 14.100 11.993,14.939 11.997,15.917 11.991 L 17.693 11.980 19.284 8.145 C 20.159 6.035,20.903 4.240,20.937 4.155 L 20.999 4.000 19.290 4.007 C 18.349 4.011,17.506 4.021,17.415 4.029 M3.110 7.948 C 3.071 7.958,3.040 7.974,3.040 7.985 C 3.040 7.995,3.326 8.674,3.676 9.492 C 4.386 11.154,6.140 15.300,6.518 16.212 L 6.764 16.804 6.303 17.892 C 6.049 18.490,5.745 19.205,5.626 19.480 L 5.411 19.980 7.073 19.990 C 7.987 19.996,8.748 19.987,8.765 19.970 C 8.815 19.919,13.764 7.990,13.743 7.970 C 13.733 7.959,12.988 7.941,12.089 7.930 L 10.455 7.908 9.464 10.394 C 8.920 11.761,8.459 12.880,8.442 12.880 C 8.402 12.880,8.010 11.924,7.139 9.696 L 6.465 7.972 5.806 7.946 C 5.082 7.917,3.221 7.919,3.110 7.948 M14.502 12.803 C 14.175 12.857,13.737 13.100,13.462 13.380 C 13.168 13.678,12.980 14.037,12.891 14.470 C 12.741 15.204,13.063 15.999,13.707 16.486 C 14.065 16.756,14.336 16.849,14.825 16.871 C 15.443 16.898,15.929 16.724,16.336 16.330 C 17.020 15.666,17.185 14.739,16.772 13.880 C 16.625 13.574,16.171 13.132,15.840 12.971 C 15.450 12.782,14.980 12.723,14.502 12.803 " fill="#373B4D" stroke="none" fill-rule="evenodd"></path></svg>