<svg width="24" height="24" viewBox="0 0 24 24" fill="none" xmlns="http://www.w3.org/2000/svg"><path d="M7.119 6.499 C 6.611 6.662,6.293 7.258,6.455 7.745 C 6.563 8.069,6.682 8.184,9.423 10.609 L 10.947 11.957 10.973 13.308 C 10.988 14.052,11.000 15.412,11.000 16.330 L 11.000 18.000 12.000 18.000 L 13.000 18.000 13.000 16.307 C 13.000 15.375,13.012 14.016,13.026 13.285 L 13.053 11.957 14.236 10.910 C 17.024 8.444,17.535 7.953,17.583 7.700 C 17.707 7.038,17.091 6.367,16.441 6.456 C 16.141 6.498,15.881 6.700,13.820 8.499 C 12.443 9.701,12.043 10.040,11.999 10.040 C 11.961 10.040,11.300 9.477,9.576 7.977 C 8.591 7.119,8.076 6.694,7.873 6.568 C 7.691 6.455,7.352 6.425,7.119 6.499 " fill="#373B4D" stroke="none" fill-rule="evenodd"></path></svg>