<svg width="24" height="24" viewBox="0 0 24 24" fill="none" xmlns="http://www.w3.org/2000/svg"><path d="M16.303 6.502 C 16.084 6.584,15.674 6.901,14.704 7.738 C 12.611 9.545,12.030 10.040,12.003 10.040 C 11.987 10.040,11.165 9.345,10.177 8.497 C 8.202 6.800,7.927 6.579,7.720 6.520 C 7.369 6.421,7.026 6.497,6.773 6.731 C 6.379 7.094,6.308 7.567,6.586 7.969 C 6.735 8.184,7.598 8.986,9.443 10.626 L 10.947 11.962 10.973 13.791 C 10.988 14.797,11.000 16.155,11.000 16.810 L 11.000 18.000 12.000 18.000 L 13.000 18.000 13.000 16.727 C 13.000 16.026,13.012 14.668,13.027 13.707 L 13.053 11.962 14.623 10.562 C 16.662 8.744,17.188 8.254,17.403 7.975 C 17.569 7.761,17.580 7.731,17.578 7.503 C 17.573 6.852,16.860 6.292,16.303 6.502 " fill="#373B4D" stroke="none" fill-rule="evenodd"></path></svg>