<svg width="24" height="24" viewBox="0 0 24 24" fill="none" xmlns="http://www.w3.org/2000/svg"><path d="M7.089 6.490 C 7.016 6.513,6.874 6.605,6.773 6.695 C 6.400 7.023,6.295 7.511,6.510 7.920 C 6.603 8.098,6.948 8.419,8.800 10.056 L 10.980 11.983 10.990 14.992 L 11.001 18.000 12.000 18.000 L 12.999 18.000 13.010 14.992 L 13.020 11.984 15.200 10.056 C 17.615 7.921,17.601 7.935,17.599 7.485 C 17.596 6.734,16.803 6.219,16.140 6.537 C 16.008 6.600,15.272 7.222,13.984 8.356 C 12.908 9.304,12.015 10.080,12.000 10.080 C 11.984 10.080,11.091 9.304,10.016 8.356 C 8.729 7.222,7.992 6.600,7.860 6.537 C 7.643 6.432,7.328 6.413,7.089 6.490 " fill="#373B4D" stroke="none" fill-rule="evenodd"></path></svg>