<svg width="24" height="24" viewBox="0 0 24 24" fill="none" xmlns="http://www.w3.org/2000/svg"><path d="M16.313 6.496 C 16.033 6.596,15.759 6.816,13.820 8.500 C 12.418 9.717,12.036 10.040,11.996 10.040 C 11.970 10.040,11.480 9.622,9.180 7.639 C 7.843 6.486,7.810 6.465,7.364 6.486 C 7.098 6.499,7.036 6.517,6.871 6.632 C 6.530 6.868,6.352 7.306,6.441 7.688 C 6.486 7.885,6.529 7.939,7.035 8.441 C 7.335 8.739,8.338 9.652,9.263 10.470 L 10.947 11.959 10.973 13.549 C 10.988 14.424,11.000 15.784,11.000 16.570 L 11.000 18.000 12.000 18.000 L 13.000 18.000 13.000 16.510 C 13.000 15.691,13.012 14.332,13.027 13.490 L 13.053 11.960 14.756 10.444 C 17.402 8.090,17.600 7.888,17.600 7.540 C 17.600 7.098,17.254 6.627,16.839 6.503 C 16.584 6.428,16.507 6.427,16.313 6.496 " fill="#373B4D" stroke="none" fill-rule="evenodd"></path></svg>