<svg width="24" height="24" viewBox="0 0 24 24" fill="none" xmlns="http://www.w3.org/2000/svg"><path d="M7.110 6.497 C 6.807 6.605,6.570 6.847,6.459 7.162 C 6.375 7.402,6.386 7.629,6.495 7.863 C 6.608 8.104,6.838 8.321,9.265 10.468 L 10.947 11.956 10.974 13.104 C 10.988 13.736,11.000 15.096,11.000 16.127 L 11.000 18.000 12.000 18.000 L 13.000 18.000 13.000 16.090 C 13.000 15.040,13.012 13.680,13.027 13.069 L 13.053 11.957 14.914 10.309 C 17.002 8.460,17.454 8.032,17.540 7.825 C 17.745 7.336,17.406 6.660,16.878 6.503 C 16.626 6.428,16.534 6.425,16.298 6.485 C 16.083 6.539,15.696 6.856,13.545 8.740 C 12.716 9.466,12.021 10.060,12.000 10.060 C 11.979 10.060,11.284 9.466,10.455 8.740 C 8.304 6.856,7.917 6.539,7.702 6.485 C 7.472 6.427,7.296 6.431,7.110 6.497 " fill="#373B4D" stroke="none" fill-rule="evenodd"></path></svg>