<svg width="24" height="24" viewBox="0 0 24 24" fill="none" xmlns="http://www.w3.org/2000/svg"><path d="M3.000 12.000 L 3.000 21.000 12.000 21.000 L 21.000 21.000 21.000 12.000 L 21.000 3.000 12.000 3.000 L 3.000 3.000 3.000 12.000 M10.794 9.533 C 11.374 10.703,11.886 11.746,11.930 11.851 C 11.975 11.957,12.030 12.037,12.053 12.029 C 12.104 12.012,12.842 10.563,13.724 8.750 L 14.380 7.401 15.045 7.400 L 15.710 7.400 15.023 8.690 C 14.645 9.400,13.945 10.719,13.468 11.622 L 12.600 13.263 12.600 15.132 L 12.600 17.000 12.000 17.000 L 11.400 17.000 11.400 15.099 L 11.400 13.198 9.882 10.369 C 9.048 8.813,8.353 7.509,8.338 7.470 C 8.313 7.405,8.361 7.400,9.026 7.403 L 9.740 7.406 10.794 9.533 " fill="#373B4D" stroke="none" fill-rule="evenodd"></path></svg>