<svg width="24" height="24" viewBox="0 0 24 24" fill="none" xmlns="http://www.w3.org/2000/svg"><path d="M3.000 12.000 L 3.000 21.000 12.000 21.000 L 21.000 21.000 21.000 12.000 L 21.000 3.000 12.000 3.000 L 3.000 3.000 3.000 12.000 M9.662 7.423 C 9.723 7.439,10.028 8.016,10.882 9.724 L 12.020 12.003 12.107 11.895 C 12.253 11.713,12.871 10.517,13.644 8.921 L 14.380 7.400 14.980 7.401 C 15.310 7.401,15.600 7.414,15.625 7.431 C 15.654 7.450,15.274 8.204,14.512 9.640 C 13.876 10.839,13.185 12.146,12.978 12.544 L 12.600 13.268 12.600 15.134 L 12.600 17.000 12.000 17.000 L 11.400 17.000 11.400 15.095 L 11.400 13.189 9.973 10.525 C 8.228 7.266,8.346 7.495,8.378 7.443 C 8.406 7.398,9.506 7.381,9.662 7.423 " fill="#373B4D" stroke="none" fill-rule="evenodd"></path></svg>