<svg width="24" height="24" viewBox="0 0 24 24" fill="none" xmlns="http://www.w3.org/2000/svg"><path d="M3.000 12.000 L 3.000 21.000 12.000 21.000 L 21.000 21.000 21.000 12.000 L 21.000 3.000 12.000 3.000 L 3.000 3.000 3.000 12.000 M9.743 7.540 C 9.801 7.617,10.341 8.655,10.941 9.848 L 12.032 12.015 12.198 11.758 C 12.350 11.520,13.938 8.357,14.241 7.690 L 14.372 7.400 14.916 7.401 C 15.728 7.401,15.688 7.346,15.353 8.014 C 15.197 8.325,14.579 9.507,13.980 10.640 C 13.381 11.773,12.825 12.830,12.745 12.989 L 12.600 13.278 12.600 15.139 L 12.600 17.000 12.000 17.000 L 11.400 17.000 11.400 15.092 L 11.400 13.184 9.965 10.502 C 8.529 7.819,8.360 7.500,8.360 7.464 C 8.360 7.429,8.578 7.412,9.108 7.406 L 9.636 7.400 9.743 7.540 " fill="#373B4D" stroke="none" fill-rule="evenodd"></path></svg>