<svg width="24" height="24" viewBox="0 0 24 24" fill="none" xmlns="http://www.w3.org/2000/svg"><path d="M3.000 12.000 L 3.000 21.000 12.000 21.000 L 21.000 21.000 21.000 12.000 L 21.000 3.000 12.000 3.000 L 3.000 3.000 3.000 12.000 M9.750 7.450 C 9.772 7.478,10.281 8.499,10.881 9.720 C 11.481 10.941,11.993 11.963,12.019 11.992 C 12.077 12.055,12.653 10.964,13.687 8.830 L 14.380 7.400 15.034 7.400 C 15.605 7.400,15.686 7.408,15.665 7.461 C 15.652 7.495,15.176 8.399,14.606 9.471 C 14.036 10.543,13.352 11.835,13.085 12.341 L 12.600 13.263 12.600 15.131 L 12.600 17.000 12.000 17.000 L 11.400 17.000 11.400 15.098 L 11.400 13.195 10.015 10.608 C 9.254 9.184,8.561 7.892,8.476 7.736 C 8.391 7.580,8.333 7.440,8.347 7.426 C 8.362 7.412,8.674 7.400,9.042 7.400 C 9.529 7.400,9.721 7.414,9.750 7.450 " fill="#373B4D" stroke="none" fill-rule="evenodd"></path></svg>