<svg width="24" height="24" viewBox="0 0 24 24" fill="none" xmlns="http://www.w3.org/2000/svg"><path d="M8.860 5.043 C 6.360 5.101,4.733 5.199,4.248 5.323 C 3.558 5.499,2.911 6.010,2.628 6.600 C 2.185 7.526,2.043 8.671,2.011 11.557 C 1.975 14.776,2.139 16.407,2.597 17.383 C 2.794 17.803,2.973 18.030,3.297 18.271 C 4.084 18.855,4.854 18.943,10.000 19.042 C 12.900 19.098,16.598 19.028,18.737 18.878 C 19.683 18.812,20.071 18.705,20.567 18.375 C 20.940 18.127,21.182 17.844,21.385 17.419 C 21.861 16.419,22.026 14.813,21.989 11.535 C 21.968 9.689,21.909 8.669,21.778 7.920 C 21.693 7.434,21.460 6.733,21.288 6.441 C 20.984 5.927,20.371 5.481,19.752 5.323 C 18.810 5.083,13.294 4.941,8.860 5.043 M12.674 10.440 C 14.127 11.199,15.303 11.832,15.288 11.846 C 15.238 11.892,9.997 14.600,9.958 14.600 C 9.934 14.600,9.920 13.555,9.920 11.817 C 9.920 9.448,9.928 9.036,9.976 9.047 C 10.007 9.054,11.221 9.681,12.674 10.440 " fill="#373B4D" stroke="none" fill-rule="evenodd"></path></svg>