<svg width="24" height="24" viewBox="0 0 24 24" fill="none" xmlns="http://www.w3.org/2000/svg"><path d="M8.540 5.079 C 6.403 5.126,4.778 5.241,4.234 5.382 C 3.553 5.558,2.947 6.036,2.640 6.640 C 2.404 7.102,2.207 7.903,2.121 8.740 C 2.012 9.814,1.974 12.179,2.040 13.800 C 2.091 15.032,2.143 15.595,2.261 16.184 C 2.641 18.078,3.343 18.677,5.420 18.876 C 6.657 18.995,7.764 19.018,12.100 19.019 C 18.857 19.020,19.759 18.941,20.666 18.269 C 21.393 17.729,21.767 16.664,21.927 14.680 C 21.992 13.875,21.991 10.478,21.925 9.440 C 21.834 7.991,21.647 7.130,21.291 6.520 C 21.040 6.090,20.476 5.626,19.983 5.444 C 19.544 5.281,18.683 5.196,16.720 5.120 C 15.307 5.066,10.280 5.041,8.540 5.079 M11.120 9.650 C 13.172 10.702,15.083 11.727,15.157 11.816 C 15.196 11.863,15.136 11.911,14.812 12.091 C 14.115 12.479,12.892 13.117,11.440 13.851 L 10.020 14.569 9.996 13.914 C 9.963 13.036,9.955 9.324,9.986 9.209 C 10.004 9.138,10.029 9.123,10.095 9.143 C 10.142 9.157,10.603 9.385,11.120 9.650 " fill="#373B4D" stroke="none" fill-rule="evenodd"></path></svg>