<svg width="24" height="24" viewBox="0 0 24 24" fill="none" xmlns="http://www.w3.org/2000/svg"><path d="M9.940 5.027 C 8.053 5.050,5.641 5.152,4.780 5.245 C 4.037 5.325,3.513 5.564,3.039 6.039 C 2.538 6.542,2.254 7.370,2.122 8.720 C 2.008 9.883,1.966 12.717,2.041 14.220 C 2.150 16.404,2.488 17.600,3.152 18.152 C 3.990 18.849,4.692 18.941,9.920 19.042 C 13.710 19.116,18.557 18.982,19.600 18.775 C 20.217 18.653,20.823 18.272,21.157 17.797 C 21.766 16.929,21.999 15.397,21.999 12.260 C 21.999 10.980,21.944 9.337,21.880 8.683 C 21.798 7.857,21.618 7.132,21.351 6.568 C 21.119 6.076,20.525 5.589,19.904 5.380 C 19.374 5.202,17.807 5.104,14.520 5.040 C 12.651 5.004,11.999 5.003,9.940 5.027 M11.960 10.070 C 13.582 10.914,15.156 11.753,15.231 11.812 C 15.269 11.841,15.191 11.901,14.931 12.040 C 14.423 12.312,11.026 14.067,10.456 14.352 L 9.971 14.595 9.946 14.291 C 9.913 13.901,9.913 9.527,9.946 9.252 L 9.971 9.044 10.255 9.188 C 10.412 9.266,11.179 9.663,11.960 10.070 " fill="#373B4D" stroke="none" fill-rule="evenodd"></path></svg>