<svg width="24" height="24" viewBox="0 0 24 24" fill="none" xmlns="http://www.w3.org/2000/svg"><path d="M8.560 5.067 C 6.567 5.122,5.155 5.210,4.504 5.320 C 3.489 5.491,2.759 6.123,2.445 7.104 C 2.176 7.945,2.093 8.610,2.036 10.380 C 1.969 12.452,2.044 14.948,2.201 15.880 C 2.541 17.896,3.170 18.575,4.920 18.818 C 6.040 18.973,8.213 19.040,12.160 19.039 C 16.130 19.039,18.132 18.975,19.240 18.815 C 20.787 18.592,21.477 17.799,21.795 15.878 C 21.966 14.847,22.033 12.717,21.963 10.545 C 21.900 8.601,21.833 7.993,21.595 7.251 C 21.438 6.760,21.295 6.474,21.074 6.210 C 20.697 5.761,20.191 5.452,19.650 5.340 C 18.725 5.148,15.599 5.036,11.540 5.049 C 10.110 5.053,8.769 5.061,8.560 5.067 M12.340 10.278 C 13.825 11.054,15.030 11.703,15.140 11.787 C 15.219 11.846,15.219 11.848,15.126 11.913 C 14.882 12.085,11.015 14.093,10.360 14.388 L 9.980 14.559 9.969 11.910 C 9.963 10.452,9.968 9.220,9.980 9.170 C 10.001 9.083,10.018 9.089,10.551 9.355 C 10.853 9.507,11.658 9.922,12.340 10.278 " fill="#373B4D" stroke="none" fill-rule="evenodd"></path></svg>