<svg width="24" height="24" viewBox="0 0 24 24" fill="none" xmlns="http://www.w3.org/2000/svg"><path d="M9.600 5.040 C 6.022 5.117,4.465 5.229,3.946 5.448 C 3.420 5.670,2.944 6.079,2.687 6.529 C 2.444 6.953,2.258 7.638,2.141 8.541 C 1.971 9.852,1.981 14.404,2.157 15.606 C 2.511 18.031,3.171 18.685,5.460 18.878 C 8.247 19.114,16.130 19.113,18.720 18.878 C 19.598 18.798,20.071 18.676,20.456 18.431 C 21.238 17.933,21.604 17.189,21.840 15.620 C 21.965 14.786,22.017 12.636,21.962 10.560 C 21.911 8.643,21.832 7.957,21.573 7.162 C 21.395 6.617,21.252 6.370,20.925 6.041 C 20.420 5.534,19.951 5.336,19.040 5.243 C 17.470 5.084,12.532 4.978,9.600 5.040 M12.600 10.411 C 14.217 11.257,15.119 11.746,15.192 11.816 C 15.253 11.875,15.066 11.980,13.020 13.040 C 11.000 14.086,10.005 14.579,9.975 14.548 C 9.937 14.510,9.933 9.326,9.971 9.190 L 10.001 9.080 10.611 9.385 C 10.946 9.552,11.841 10.014,12.600 10.411 " fill="#373B4D" stroke="none" fill-rule="evenodd"></path></svg>