<svg width="24" height="24" viewBox="0 0 24 24" fill="none" xmlns="http://www.w3.org/2000/svg"><path d="M9.460 5.043 C 7.086 5.085,5.033 5.190,4.460 5.300 C 4.085 5.371,3.777 5.491,3.494 5.675 C 2.594 6.261,2.230 7.184,2.073 9.280 C 2.005 10.196,2.004 14.124,2.072 14.840 C 2.346 17.729,2.932 18.553,4.898 18.819 C 6.876 19.087,14.569 19.143,18.180 18.916 C 19.547 18.831,20.020 18.724,20.530 18.385 C 21.368 17.828,21.746 16.871,21.928 14.840 C 21.997 14.075,21.995 10.212,21.926 9.241 C 21.844 8.105,21.671 7.280,21.385 6.664 C 21.061 5.967,20.342 5.437,19.539 5.303 C 18.766 5.174,17.259 5.100,14.200 5.040 C 12.042 4.998,11.967 4.998,9.460 5.043 M11.676 9.926 C 14.241 11.261,15.240 11.799,15.240 11.841 C 15.240 11.881,14.691 12.175,12.680 13.212 C 10.267 14.457,10.010 14.583,9.972 14.545 C 9.931 14.504,9.903 10.121,9.940 9.530 C 9.957 9.256,9.985 9.080,10.010 9.080 C 10.034 9.080,10.784 9.461,11.676 9.926 " fill="#373B4D" stroke="none" fill-rule="evenodd"></path></svg>