<svg width="24" height="24" viewBox="0 0 24 24" fill="none" xmlns="http://www.w3.org/2000/svg"><path d="M9.060 2.427 C 8.095 2.508,6.884 2.876,6.086 3.332 C 3.449 4.836,2.031 7.758,2.501 10.722 C 2.938 13.478,4.973 15.763,7.663 16.519 C 9.645 17.076,11.776 16.748,13.556 15.611 L 13.773 15.473 16.236 17.929 C 19.222 20.905,19.757 21.420,19.950 21.504 C 20.195 21.610,20.617 21.597,20.880 21.474 C 21.293 21.281,21.493 21.006,21.567 20.531 C 21.620 20.192,21.577 20.045,21.330 19.713 C 21.227 19.574,19.868 18.180,18.310 16.616 L 15.477 13.771 15.686 13.436 C 16.491 12.140,16.895 10.508,16.766 9.070 C 16.550 6.657,15.310 4.659,13.260 3.421 C 12.049 2.689,10.449 2.310,9.060 2.427 M10.460 4.885 C 11.028 4.976,11.721 5.251,12.219 5.581 C 12.527 5.785,13.149 6.379,13.448 6.755 C 13.723 7.100,14.070 7.787,14.228 8.300 C 14.335 8.650,14.338 8.687,14.338 9.600 C 14.338 10.513,14.335 10.550,14.228 10.900 C 14.070 11.414,13.723 12.101,13.448 12.445 C 13.123 12.851,12.518 13.423,12.170 13.654 C 11.329 14.211,10.256 14.457,9.085 14.360 C 8.066 14.275,7.045 13.796,6.278 13.040 C 5.674 12.445,5.300 11.855,5.048 11.099 C 4.853 10.514,4.831 10.332,4.850 9.458 C 4.865 8.734,4.877 8.627,4.976 8.300 C 5.112 7.848,5.460 7.135,5.697 6.820 C 5.971 6.457,6.572 5.869,6.905 5.639 C 7.530 5.207,8.380 4.893,9.055 4.846 C 9.530 4.812,10.109 4.828,10.460 4.885 M9.360 6.036 C 8.999 6.111,8.691 6.348,8.533 6.671 C 8.423 6.893,8.420 6.923,8.406 7.644 L 8.393 8.388 7.640 8.410 L 6.888 8.431 6.640 8.563 C 5.924 8.945,5.793 9.851,6.368 10.443 C 6.652 10.736,6.793 10.775,7.646 10.793 L 8.392 10.808 8.407 11.554 C 8.426 12.408,8.464 12.548,8.758 12.834 C 9.019 13.087,9.246 13.180,9.600 13.180 C 9.954 13.180,10.181 13.087,10.442 12.834 C 10.736 12.548,10.774 12.408,10.793 11.554 L 10.808 10.808 11.554 10.793 C 12.407 10.775,12.548 10.736,12.832 10.443 C 13.407 9.851,13.276 8.945,12.560 8.563 L 12.312 8.431 11.560 8.410 L 10.808 8.388 10.794 7.644 C 10.780 6.924,10.776 6.893,10.668 6.672 C 10.606 6.546,10.498 6.395,10.428 6.335 C 10.150 6.100,9.682 5.969,9.360 6.036 " fill="#373B4D" stroke="none" fill-rule="evenodd"></path></svg>