<svg width="24" height="24" viewBox="0 0 24 24" fill="none" xmlns="http://www.w3.org/2000/svg"><path d="M8.612 2.523 C 7.782 2.603,6.468 3.115,5.560 3.712 C 5.089 4.021,3.975 5.135,3.665 5.607 C 3.218 6.286,2.803 7.217,2.615 7.957 C 2.468 8.537,2.413 9.383,2.474 10.153 C 2.530 10.869,2.591 11.221,2.747 11.713 C 2.907 12.220,3.508 13.395,3.814 13.800 C 4.174 14.275,5.183 15.252,5.600 15.528 C 7.449 16.753,9.728 17.083,11.735 16.419 C 12.333 16.221,13.044 15.914,13.440 15.682 L 13.780 15.483 15.500 17.194 C 19.536 21.208,19.926 21.558,20.364 21.560 C 20.567 21.560,20.861 21.464,21.044 21.337 C 21.360 21.118,21.601 20.563,21.540 20.197 C 21.523 20.102,21.443 19.945,21.339 19.807 C 21.072 19.451,19.856 18.184,17.570 15.878 L 15.486 13.775 15.649 13.498 C 16.434 12.160,16.895 10.363,16.765 9.154 C 16.611 7.722,16.156 6.474,15.406 5.424 C 14.948 4.785,14.149 4.032,13.448 3.581 C 12.775 3.148,11.660 2.696,11.040 2.603 C 10.719 2.555,9.471 2.478,9.140 2.486 C 9.030 2.489,8.792 2.505,8.612 2.523 M10.060 4.921 C 10.790 4.974,11.040 5.037,11.625 5.321 C 12.676 5.830,13.325 6.505,14.014 7.806 L 14.240 8.232 14.240 9.602 L 14.240 10.972 13.983 11.465 C 13.618 12.164,13.477 12.363,13.002 12.852 C 12.340 13.535,11.853 13.864,11.157 14.101 C 10.613 14.286,10.263 14.338,9.560 14.337 C 8.984 14.336,8.847 14.322,8.480 14.231 C 8.249 14.173,7.912 14.063,7.730 13.987 C 6.727 13.563,5.768 12.592,5.241 11.467 C 4.900 10.738,4.904 10.765,4.935 9.581 C 4.949 9.008,4.979 8.450,5.000 8.340 C 5.083 7.915,5.717 6.803,6.114 6.386 C 6.545 5.934,7.256 5.430,7.769 5.214 C 8.487 4.911,9.004 4.845,10.060 4.921 M9.163 6.126 C 8.969 6.183,8.540 6.622,8.483 6.822 C 8.459 6.909,8.427 7.296,8.413 7.683 L 8.388 8.386 7.724 8.431 C 6.838 8.493,6.688 8.535,6.418 8.802 C 6.170 9.047,6.031 9.335,6.031 9.604 C 6.031 9.974,6.350 10.471,6.693 10.636 C 6.900 10.735,7.402 10.800,7.969 10.800 L 8.400 10.800 8.400 11.210 C 8.401 11.717,8.463 12.282,8.538 12.462 C 8.617 12.650,8.940 12.954,9.180 13.066 C 9.447 13.191,9.753 13.191,10.020 13.066 C 10.260 12.954,10.583 12.650,10.662 12.462 C 10.737 12.282,10.799 11.717,10.800 11.210 L 10.800 10.800 11.230 10.799 C 12.059 10.796,12.473 10.707,12.740 10.472 C 13.118 10.139,13.258 9.529,13.049 9.131 C 12.770 8.603,12.503 8.498,11.230 8.418 L 10.800 8.390 10.799 7.965 C 10.798 7.731,10.782 7.372,10.762 7.166 C 10.732 6.857,10.706 6.764,10.614 6.631 C 10.472 6.426,10.190 6.211,10.004 6.164 C 9.766 6.104,9.309 6.083,9.163 6.126 " fill="#373B4D" stroke="none" fill-rule="evenodd"></path></svg>