<svg width="24" height="24" viewBox="0 0 24 24" fill="none" xmlns="http://www.w3.org/2000/svg"><path d="M10.940 3.081 C 9.439 3.289,8.293 3.706,7.118 4.472 C 4.900 5.918,3.537 8.041,3.092 10.740 C 2.994 11.339,2.995 12.762,3.094 13.338 C 3.378 14.983,4.083 16.529,5.112 17.760 C 6.215 19.081,7.557 19.987,9.236 20.544 C 12.346 21.576,15.799 20.790,18.187 18.507 C 19.649 17.110,20.564 15.345,20.906 13.260 C 21.007 12.647,21.007 11.353,20.907 10.740 C 20.637 9.100,20.009 7.645,19.040 6.420 C 18.682 5.967,17.888 5.191,17.431 4.848 C 16.440 4.104,15.104 3.474,14.035 3.247 C 13.526 3.139,13.102 3.088,12.320 3.041 C 11.527 2.993,11.586 2.991,10.940 3.081 M13.564 9.150 C 13.765 9.275,14.073 9.613,14.147 9.790 C 14.199 9.915,14.212 10.289,14.230 12.254 L 14.252 14.571 11.096 14.551 C 7.543 14.530,7.792 14.553,7.474 14.211 C 7.100 13.810,7.125 13.998,7.094 11.361 L 7.067 9.035 10.243 9.048 L 13.420 9.060 13.564 9.150 M17.380 11.827 C 17.380 13.260,17.367 14.447,17.351 14.463 C 17.314 14.500,17.046 14.336,15.930 13.592 L 15.040 12.999 15.040 11.800 L 15.040 10.601 16.170 9.846 C 17.133 9.202,17.306 9.100,17.340 9.155 C 17.366 9.197,17.380 10.159,17.380 11.827 " fill="#373B4D" stroke="none" fill-rule="evenodd"></path></svg>