<svg width="24" height="24" viewBox="0 0 24 24" fill="none" xmlns="http://www.w3.org/2000/svg"><path d="M8.660 2.522 C 7.821 2.604,6.487 3.111,5.640 3.670 C 5.027 4.074,3.989 5.109,3.609 5.694 C 3.355 6.085,2.910 7.028,2.747 7.520 C 2.486 8.311,2.393 9.237,2.477 10.220 C 2.563 11.221,2.712 11.752,3.162 12.664 C 3.654 13.659,4.058 14.181,4.978 15.009 C 5.487 15.467,5.816 15.693,6.403 15.987 C 7.817 16.694,9.494 16.924,10.992 16.617 C 11.693 16.473,12.828 16.036,13.460 15.669 L 13.780 15.482 15.480 17.173 C 19.310 20.983,19.871 21.494,20.279 21.549 C 20.700 21.605,21.196 21.305,21.402 20.868 C 21.573 20.507,21.590 20.282,21.466 20.028 C 21.292 19.675,20.254 18.577,16.995 15.300 L 15.484 13.780 15.702 13.400 C 16.254 12.438,16.652 11.182,16.766 10.038 C 16.804 9.651,16.801 9.490,16.747 9.038 C 16.532 7.263,15.840 5.760,14.724 4.644 C 13.968 3.889,13.290 3.422,12.396 3.043 C 11.490 2.659,11.183 2.593,9.960 2.520 C 9.233 2.476,9.128 2.477,8.660 2.522 M10.440 4.966 C 10.918 5.017,11.180 5.105,11.766 5.407 C 12.732 5.905,13.280 6.485,13.974 7.742 L 14.240 8.224 14.240 9.599 L 14.240 10.973 13.995 11.437 C 13.621 12.147,13.423 12.420,12.922 12.922 C 12.391 13.453,12.065 13.697,11.594 13.918 C 11.077 14.160,10.616 14.278,10.020 14.321 C 8.509 14.430,7.356 14.022,6.352 13.023 C 5.845 12.519,5.451 11.941,5.141 11.245 C 4.922 10.755,4.900 10.538,4.950 9.351 C 4.990 8.389,4.998 8.318,5.101 8.057 C 5.484 7.088,6.146 6.238,6.941 5.695 C 8.019 4.959,8.825 4.791,10.440 4.966 M8.935 6.275 C 8.828 6.361,8.681 6.513,8.609 6.613 C 8.493 6.775,8.474 6.840,8.440 7.188 C 8.419 7.403,8.402 7.762,8.401 7.985 L 8.400 8.390 7.970 8.418 C 6.859 8.488,6.638 8.552,6.340 8.893 C 6.029 9.248,5.963 9.654,6.153 10.044 C 6.431 10.619,6.864 10.800,7.957 10.800 L 8.388 10.800 8.413 11.430 C 8.426 11.777,8.463 12.168,8.495 12.300 C 8.547 12.512,8.584 12.568,8.811 12.784 C 9.343 13.289,9.857 13.289,10.389 12.784 C 10.616 12.568,10.653 12.512,10.705 12.300 C 10.737 12.168,10.774 11.779,10.787 11.435 L 10.812 10.811 11.436 10.789 C 12.426 10.755,12.752 10.610,13.006 10.093 C 13.185 9.730,13.189 9.398,13.019 9.086 C 12.763 8.615,12.464 8.506,11.190 8.417 L 10.800 8.390 10.800 7.945 C 10.799 6.938,10.696 6.602,10.307 6.335 C 10.056 6.162,9.894 6.120,9.475 6.120 C 9.135 6.120,9.128 6.122,8.935 6.275 " fill="#373B4D" stroke="none" fill-rule="evenodd"></path></svg>