<svg width="24" height="24" viewBox="0 0 24 24" fill="none" xmlns="http://www.w3.org/2000/svg"><path d="M11.078 3.060 C 9.848 3.209,8.988 3.464,7.940 3.990 C 6.536 4.696,5.282 5.821,4.430 7.140 C 3.356 8.803,2.844 10.925,3.042 12.886 C 3.360 16.032,5.407 18.895,8.246 20.166 C 9.610 20.777,10.903 21.039,12.300 20.988 C 16.060 20.851,19.315 18.422,20.516 14.858 C 21.158 12.953,21.159 11.050,20.521 9.160 C 20.065 7.807,19.417 6.743,18.443 5.746 C 17.703 4.988,17.012 4.478,16.080 4.002 C 14.842 3.370,13.865 3.114,12.395 3.040 C 11.507 2.995,11.624 2.994,11.078 3.060 M13.508 9.118 C 13.730 9.219,14.025 9.518,14.133 9.752 C 14.219 9.937,14.220 9.977,14.233 12.252 L 14.245 14.564 11.113 14.550 C 8.714 14.539,7.944 14.524,7.826 14.485 C 7.628 14.419,7.354 14.145,7.217 13.875 L 7.110 13.662 7.089 11.351 L 7.068 9.040 10.204 9.041 C 13.205 9.042,13.347 9.045,13.508 9.118 M17.380 9.690 C 17.414 10.412,17.392 14.462,17.354 14.500 C 17.339 14.514,16.813 14.182,16.184 13.763 L 15.040 12.999 15.040 11.800 L 15.040 10.601 16.170 9.843 C 16.792 9.426,17.312 9.084,17.326 9.083 C 17.340 9.081,17.364 9.355,17.380 9.690 " fill="#373B4D" stroke="none" fill-rule="evenodd"></path></svg>