<svg width="24" height="24" viewBox="0 0 24 24" fill="none" xmlns="http://www.w3.org/2000/svg"><path d="M10.957 3.081 C 9.003 3.366,7.554 4.011,6.096 5.244 C 4.638 6.478,3.611 8.253,3.181 10.280 C 2.961 11.317,2.961 12.818,3.180 13.780 C 3.731 16.195,5.123 18.237,7.100 19.531 C 8.579 20.499,10.633 21.068,12.339 20.984 C 16.542 20.777,19.949 17.860,20.818 13.727 C 21.022 12.752,21.040 11.341,20.858 10.460 C 20.458 8.518,19.666 6.995,18.393 5.723 C 17.579 4.909,17.017 4.498,16.040 4.003 C 14.758 3.354,13.952 3.149,12.261 3.041 C 11.502 2.992,11.585 2.990,10.957 3.081 M12.460 9.067 L 13.493 9.093 13.692 9.257 C 13.941 9.462,14.115 9.702,14.161 9.904 C 14.181 9.990,14.209 11.075,14.225 12.315 L 14.253 14.569 11.176 14.548 C 9.173 14.534,8.031 14.511,7.901 14.483 C 7.750 14.450,7.655 14.393,7.506 14.250 C 7.155 13.909,7.150 13.887,7.116 12.400 C 7.099 11.685,7.085 10.637,7.083 10.070 L 7.080 9.040 9.254 9.040 C 10.449 9.040,11.892 9.052,12.460 9.067 M17.360 11.819 C 17.360 14.334,17.356 14.476,17.290 14.451 C 17.170 14.407,16.750 14.141,15.879 13.560 L 15.040 12.999 15.040 11.798 L 15.040 10.597 16.125 9.879 C 16.722 9.483,17.244 9.160,17.285 9.160 C 17.357 9.160,17.360 9.250,17.360 11.819 " fill="#373B4D" stroke="none" fill-rule="evenodd"></path></svg>