<svg width="24" height="24" viewBox="0 0 24 24" fill="none" xmlns="http://www.w3.org/2000/svg"><path d="M8.685 2.525 C 7.797 2.628,6.347 3.189,5.573 3.728 C 4.973 4.147,4.098 5.016,3.681 5.608 C 3.303 6.143,2.831 7.206,2.635 7.960 C 2.436 8.725,2.410 10.194,2.580 11.020 C 2.731 11.752,3.185 12.813,3.664 13.554 C 3.973 14.032,5.161 15.220,5.645 15.534 C 6.555 16.126,7.566 16.512,8.660 16.685 C 9.119 16.758,10.210 16.748,10.716 16.667 C 11.433 16.552,12.728 16.078,13.478 15.656 L 13.775 15.488 16.138 17.819 C 19.246 20.885,19.697 21.301,20.100 21.485 C 20.412 21.628,20.764 21.540,21.096 21.237 C 21.512 20.856,21.646 20.362,21.432 19.998 C 21.192 19.589,20.247 18.584,17.430 15.738 L 15.488 13.776 15.669 13.458 C 16.197 12.531,16.639 11.154,16.765 10.045 C 16.908 8.785,16.312 6.727,15.461 5.541 C 14.968 4.854,14.160 4.071,13.512 3.652 C 13.098 3.384,12.247 2.973,11.791 2.822 C 11.322 2.665,10.777 2.580,9.864 2.521 C 9.159 2.476,9.107 2.476,8.685 2.525 M10.242 4.960 C 10.816 5.015,11.064 5.084,11.590 5.339 C 12.200 5.634,12.475 5.827,12.901 6.256 C 13.274 6.633,13.614 7.111,14.014 7.823 L 14.240 8.225 14.240 9.598 L 14.240 10.970 14.034 11.355 C 13.627 12.114,13.421 12.392,12.826 12.980 C 12.185 13.613,11.857 13.835,11.238 14.057 C 10.654 14.265,10.159 14.333,9.389 14.310 C 8.415 14.281,7.824 14.103,7.099 13.621 C 6.413 13.164,5.754 12.415,5.334 11.613 C 5.070 11.110,5.000 10.899,4.960 10.480 C 4.924 10.105,4.977 8.667,5.040 8.320 C 5.152 7.704,5.895 6.573,6.555 6.012 C 7.634 5.094,8.637 4.808,10.242 4.960 M9.092 6.182 C 9.022 6.218,8.867 6.350,8.748 6.475 C 8.478 6.759,8.441 6.898,8.411 7.765 L 8.389 8.391 8.024 8.417 C 6.965 8.495,6.668 8.575,6.387 8.856 C 6.052 9.190,5.971 9.609,6.158 10.031 C 6.395 10.568,6.940 10.799,7.970 10.800 L 8.400 10.800 8.400 11.171 C 8.400 11.560,8.457 12.120,8.522 12.364 C 8.611 12.701,9.233 13.160,9.600 13.160 C 9.967 13.160,10.589 12.701,10.678 12.364 C 10.743 12.120,10.800 11.560,10.800 11.171 L 10.800 10.800 11.150 10.800 C 11.644 10.799,12.162 10.733,12.416 10.638 C 12.774 10.504,13.029 10.155,13.139 9.649 C 13.210 9.320,12.898 8.806,12.531 8.649 C 12.331 8.563,11.744 8.464,11.155 8.418 L 10.809 8.391 10.789 7.766 C 10.758 6.812,10.621 6.494,10.138 6.257 C 9.854 6.118,9.295 6.078,9.092 6.182 " fill="#373B4D" stroke="none" fill-rule="evenodd"></path></svg>