<svg width="24" height="24" viewBox="0 0 24 24" fill="none" xmlns="http://www.w3.org/2000/svg"><path d="M10.980 3.080 C 9.826 3.255,9.013 3.497,8.100 3.937 C 6.970 4.482,5.893 5.308,5.128 6.219 C 3.645 7.985,2.863 10.398,3.035 12.681 C 3.093 13.448,3.190 13.928,3.447 14.709 C 4.252 17.157,6.047 19.187,8.270 20.162 C 9.718 20.797,11.280 21.082,12.654 20.962 C 16.590 20.618,19.753 17.937,20.720 14.127 C 20.910 13.376,20.969 12.875,20.971 11.980 C 20.974 11.064,20.935 10.739,20.721 9.900 C 20.277 8.163,19.577 6.928,18.324 5.676 C 17.475 4.828,16.789 4.349,15.690 3.835 C 14.630 3.340,13.817 3.153,12.233 3.041 C 11.523 2.991,11.573 2.990,10.980 3.080 M12.229 9.067 L 13.519 9.093 13.754 9.317 C 14.173 9.717,14.162 9.666,14.202 11.355 C 14.221 12.161,14.238 13.212,14.238 13.690 L 14.240 14.560 12.190 14.557 C 9.457 14.553,7.890 14.512,7.762 14.442 C 7.532 14.317,7.280 14.030,7.218 13.824 C 7.152 13.605,7.084 11.653,7.081 9.910 L 7.080 9.040 9.010 9.040 C 10.072 9.040,11.520 9.052,12.229 9.067 M17.339 9.410 C 17.375 9.752,17.347 14.386,17.310 14.423 C 17.266 14.467,17.166 14.408,16.052 13.671 L 15.040 13.003 15.040 11.802 L 15.040 10.601 15.590 10.233 C 16.286 9.767,17.244 9.160,17.283 9.160 C 17.300 9.160,17.325 9.273,17.339 9.410 " fill="#373B4D" stroke="none" fill-rule="evenodd"></path></svg>