<svg width="24" height="24" viewBox="0 0 24 24" fill="none" xmlns="http://www.w3.org/2000/svg"><path d="M8.597 2.558 C 7.738 2.668,6.415 3.192,5.573 3.756 C 5.166 4.028,4.253 4.911,3.821 5.450 C 3.362 6.024,2.779 7.322,2.578 8.220 C 2.519 8.485,2.507 8.729,2.507 9.640 C 2.507 10.693,2.511 10.756,2.609 11.120 C 2.821 11.912,3.252 12.903,3.628 13.468 C 4.031 14.072,4.988 15.051,5.614 15.497 C 6.437 16.084,7.851 16.602,8.858 16.686 C 9.478 16.737,10.528 16.704,10.934 16.620 C 11.495 16.504,12.438 16.156,13.289 15.751 L 13.798 15.508 15.729 17.407 C 18.983 20.607,19.596 21.184,19.980 21.404 C 20.340 21.611,20.768 21.536,21.102 21.208 C 21.443 20.872,21.602 20.366,21.460 20.067 C 21.306 19.740,20.427 18.794,17.742 16.060 C 16.705 15.004,15.781 14.057,15.688 13.956 L 15.520 13.771 15.774 13.236 C 16.269 12.194,16.607 11.142,16.721 10.294 C 16.795 9.745,16.752 8.885,16.624 8.340 C 16.392 7.354,15.959 6.313,15.475 5.580 C 15.197 5.158,14.221 4.185,13.720 3.831 C 13.090 3.385,12.082 2.900,11.460 2.744 C 10.842 2.588,9.197 2.481,8.597 2.558 M10.840 5.075 C 11.230 5.175,11.750 5.417,12.190 5.702 C 12.827 6.116,13.363 6.744,14.014 7.842 L 14.240 8.223 14.240 9.600 L 14.240 10.976 14.035 11.338 C 13.651 12.015,13.354 12.408,12.821 12.946 C 12.121 13.653,11.620 13.968,10.854 14.185 C 10.553 14.271,9.070 14.309,8.641 14.243 C 7.511 14.067,6.399 13.251,5.590 12.000 C 5.042 11.154,5.000 10.993,5.000 9.754 C 5.000 8.343,5.050 8.104,5.501 7.340 C 6.185 6.182,7.219 5.360,8.371 5.057 C 8.722 4.965,8.783 4.961,9.640 4.979 C 10.353 4.994,10.602 5.013,10.840 5.075 M9.266 6.165 C 9.069 6.210,8.792 6.409,8.659 6.602 C 8.493 6.840,8.442 7.086,8.414 7.764 L 8.388 8.394 8.084 8.420 C 6.913 8.521,6.537 8.652,6.261 9.054 C 6.107 9.278,6.100 9.301,6.101 9.594 C 6.103 9.964,6.188 10.152,6.461 10.393 C 6.761 10.656,7.312 10.799,8.030 10.800 L 8.400 10.800 8.400 11.171 C 8.400 12.299,8.600 12.730,9.271 13.049 C 9.472 13.145,9.551 13.163,9.670 13.141 C 9.981 13.082,10.423 12.772,10.583 12.499 C 10.711 12.279,10.799 11.752,10.800 11.196 L 10.800 10.812 11.330 10.787 C 12.468 10.734,12.848 10.522,13.076 9.811 C 13.154 9.569,13.160 9.510,13.119 9.374 C 13.056 9.161,12.834 8.864,12.647 8.740 C 12.473 8.625,11.966 8.515,11.250 8.438 L 10.800 8.390 10.799 7.965 C 10.797 7.463,10.725 7.020,10.598 6.723 C 10.528 6.560,10.463 6.482,10.327 6.396 C 10.009 6.194,9.564 6.097,9.266 6.165 " fill="#373B4D" stroke="none" fill-rule="evenodd"></path></svg>