<svg width="24" height="24" viewBox="0 0 24 24" fill="none" xmlns="http://www.w3.org/2000/svg"><path d="M8.720 2.481 C 7.962 2.584,7.030 2.880,6.320 3.242 C 4.493 4.173,3.179 5.825,2.616 7.900 C 2.399 8.701,2.401 10.455,2.619 11.295 C 3.330 14.022,5.451 16.055,8.177 16.623 C 8.837 16.760,9.859 16.796,10.544 16.705 C 11.575 16.568,12.569 16.210,13.539 15.626 L 13.774 15.484 16.233 17.926 C 19.033 20.706,19.743 21.378,19.997 21.491 C 20.226 21.593,20.662 21.572,20.905 21.448 C 21.457 21.165,21.737 20.374,21.447 19.918 C 21.268 19.637,20.388 18.717,17.849 16.156 L 15.485 13.773 15.628 13.536 C 16.411 12.241,16.871 10.568,16.783 9.340 C 16.641 7.358,15.843 5.605,14.550 4.432 C 13.847 3.794,13.509 3.555,12.840 3.220 C 12.154 2.876,11.571 2.681,10.780 2.533 C 10.403 2.462,9.099 2.429,8.720 2.481 M10.610 4.937 C 11.522 5.111,12.519 5.700,13.146 6.434 C 13.502 6.852,13.734 7.214,14.017 7.800 L 14.260 8.300 14.272 9.540 C 14.282 10.620,14.275 10.803,14.216 10.960 C 14.095 11.287,13.676 12.095,13.502 12.340 C 13.266 12.669,12.483 13.419,12.127 13.655 C 11.066 14.360,9.465 14.562,8.138 14.158 C 6.666 13.709,5.383 12.337,4.962 10.761 C 4.877 10.442,4.872 10.365,4.891 9.501 C 4.914 8.405,4.934 8.311,5.304 7.569 C 5.624 6.926,5.799 6.682,6.285 6.202 C 6.911 5.582,7.593 5.191,8.416 4.978 C 8.735 4.896,8.876 4.884,9.546 4.882 C 10.051 4.881,10.415 4.899,10.610 4.937 M8.974 6.218 C 8.727 6.384,8.533 6.610,8.476 6.800 C 8.452 6.877,8.423 7.269,8.411 7.670 L 8.389 8.400 8.105 8.401 C 7.521 8.404,6.852 8.472,6.715 8.542 C 6.380 8.714,6.149 8.999,6.058 9.355 C 6.001 9.577,6.001 9.623,6.058 9.843 C 6.163 10.254,6.451 10.584,6.816 10.711 C 6.921 10.747,7.234 10.775,7.684 10.789 L 8.388 10.812 8.413 11.549 C 8.443 12.399,8.479 12.526,8.775 12.813 C 9.271 13.295,9.929 13.295,10.425 12.813 C 10.721 12.525,10.757 12.400,10.787 11.543 L 10.813 10.800 11.276 10.800 C 12.258 10.799,12.608 10.704,12.877 10.364 C 13.287 9.847,13.274 9.234,12.846 8.806 C 12.547 8.507,12.439 8.475,11.577 8.428 L 10.810 8.386 10.792 7.657 C 10.775 6.963,10.769 6.918,10.664 6.705 C 10.534 6.438,10.281 6.216,10.015 6.137 C 9.912 6.105,9.681 6.080,9.503 6.080 C 9.200 6.080,9.166 6.089,8.974 6.218 " fill="#373B4D" stroke="none" fill-rule="evenodd"></path></svg>