<svg width="24" height="24" viewBox="0 0 24 24" fill="none" xmlns="http://www.w3.org/2000/svg"><path d="M11.340 3.024 C 10.026 3.160,9.091 3.415,8.060 3.918 C 5.286 5.272,3.420 7.912,3.059 10.992 C 2.666 14.352,4.239 17.669,7.120 19.560 C 7.929 20.090,9.126 20.589,10.092 20.797 C 14.142 21.669,18.255 19.669,20.083 15.940 C 21.302 13.453,21.302 10.547,20.083 8.060 C 19.190 6.237,17.762 4.810,15.944 3.923 C 15.066 3.494,14.269 3.244,13.320 3.101 C 12.911 3.039,11.662 2.991,11.340 3.024 M13.541 9.134 C 13.804 9.257,14.086 9.572,14.173 9.841 C 14.233 10.026,14.240 10.300,14.240 12.305 L 14.240 14.560 11.147 14.560 C 7.688 14.560,7.841 14.572,7.504 14.276 C 7.404 14.187,7.275 14.016,7.212 13.889 L 7.100 13.660 7.089 11.350 L 7.078 9.040 10.209 9.040 L 13.340 9.041 13.541 9.134 M17.391 13.180 L 17.380 14.560 16.210 13.780 L 15.040 13.000 15.040 11.800 L 15.040 10.600 16.210 9.820 L 17.380 9.040 17.391 10.420 C 17.396 11.179,17.396 12.421,17.391 13.180 " fill="#373B4D" stroke="none" fill-rule="evenodd"></path></svg>