<svg width="24" height="24" viewBox="0 0 24 24" fill="none" xmlns="http://www.w3.org/2000/svg"><path d="M8.219 2.576 C 7.607 2.721,7.269 2.829,6.783 3.035 C 4.800 3.876,3.311 5.562,2.682 7.679 C 2.475 8.376,2.400 9.319,2.476 10.270 C 2.530 10.946,2.595 11.280,2.780 11.821 C 3.706 14.535,6.093 16.452,8.880 16.722 C 9.526 16.785,10.375 16.751,10.938 16.640 C 11.767 16.477,12.805 16.073,13.540 15.626 L 13.780 15.480 15.640 17.334 C 18.992 20.674,19.776 21.413,20.076 21.514 C 20.407 21.626,20.849 21.527,21.132 21.279 C 21.461 20.989,21.628 20.486,21.521 20.105 C 21.437 19.802,20.741 19.062,17.213 15.520 L 15.480 13.780 15.624 13.542 C 16.460 12.154,16.904 10.422,16.763 9.100 C 16.554 7.150,15.755 5.509,14.440 4.334 C 13.632 3.612,12.926 3.191,11.940 2.841 C 11.135 2.555,10.848 2.512,9.680 2.496 C 8.676 2.482,8.599 2.486,8.219 2.576 M10.857 4.997 C 11.224 5.094,11.887 5.400,12.226 5.631 C 13.011 6.163,13.563 6.846,14.071 7.909 L 14.257 8.300 14.259 9.600 L 14.260 10.900 14.072 11.293 C 13.671 12.127,13.494 12.390,13.002 12.883 C 12.335 13.551,11.951 13.816,11.281 14.069 C 10.386 14.407,9.151 14.448,8.200 14.173 C 6.797 13.767,5.565 12.529,5.028 10.986 L 4.900 10.620 4.906 9.660 C 4.914 8.475,4.944 8.310,5.282 7.636 C 5.626 6.950,5.759 6.754,6.155 6.346 C 6.896 5.585,7.726 5.111,8.620 4.936 C 9.060 4.850,10.443 4.888,10.857 4.997 M9.063 6.163 C 8.836 6.287,8.530 6.617,8.481 6.791 C 8.457 6.873,8.427 7.269,8.413 7.670 L 8.387 8.400 8.104 8.400 C 7.736 8.400,6.984 8.471,6.784 8.525 C 6.679 8.553,6.551 8.643,6.397 8.797 C 6.201 8.993,6.153 9.071,6.079 9.314 L 5.992 9.600 6.074 9.870 C 6.209 10.312,6.484 10.608,6.864 10.718 C 6.950 10.743,7.328 10.774,7.704 10.788 L 8.388 10.812 8.412 11.496 C 8.441 12.355,8.483 12.507,8.769 12.788 C 9.045 13.060,9.266 13.158,9.600 13.158 C 9.934 13.158,10.155 13.060,10.431 12.788 C 10.715 12.509,10.757 12.357,10.788 11.490 L 10.812 10.800 11.316 10.800 C 12.230 10.799,12.644 10.677,12.896 10.334 C 13.147 9.991,13.223 9.601,13.111 9.225 C 13.044 8.997,12.636 8.583,12.420 8.523 C 12.332 8.499,11.934 8.458,11.535 8.433 L 10.809 8.387 10.793 7.664 C 10.775 6.853,10.737 6.713,10.457 6.425 C 10.224 6.186,10.039 6.114,9.603 6.095 C 9.267 6.080,9.201 6.088,9.063 6.163 " fill="#373B4D" stroke="none" fill-rule="evenodd"></path></svg>