<svg width="24" height="24" viewBox="0 0 24 24" fill="none" xmlns="http://www.w3.org/2000/svg"><path d="M8.580 2.504 C 8.536 2.515,8.356 2.551,8.180 2.584 C 7.746 2.666,7.019 2.913,6.559 3.133 C 5.307 3.732,4.363 4.544,3.618 5.660 C 2.349 7.563,2.074 9.904,2.868 12.040 C 3.456 13.622,4.481 14.864,5.941 15.761 C 7.024 16.428,8.649 16.852,9.867 16.787 C 11.004 16.726,12.631 16.216,13.513 15.642 L 13.766 15.478 16.193 17.885 C 18.653 20.325,19.618 21.251,19.891 21.432 C 20.008 21.509,20.110 21.537,20.340 21.551 C 20.604 21.568,20.663 21.558,20.858 21.463 C 21.077 21.356,21.348 21.091,21.474 20.860 C 21.520 20.775,21.539 20.639,21.540 20.397 C 21.540 20.090,21.528 20.037,21.431 19.889 C 21.246 19.609,20.426 18.755,17.908 16.216 L 15.485 13.773 15.626 13.538 C 16.082 12.781,16.460 11.838,16.667 10.940 C 16.749 10.587,16.780 9.385,16.723 8.784 C 16.651 8.009,16.452 7.333,16.034 6.443 C 15.166 4.590,13.305 3.127,11.160 2.612 C 10.778 2.520,10.647 2.510,9.700 2.498 C 9.128 2.491,8.624 2.493,8.580 2.504 M10.440 4.939 C 11.394 5.087,12.202 5.509,12.953 6.250 C 13.483 6.773,13.850 7.358,14.141 8.140 L 14.290 8.540 14.270 9.720 L 14.249 10.900 13.989 11.440 C 13.667 12.109,13.413 12.491,13.032 12.884 C 12.294 13.643,11.390 14.123,10.358 14.303 C 9.817 14.397,8.958 14.364,8.440 14.228 C 7.324 13.936,6.329 13.243,5.727 12.340 C 5.496 11.993,5.125 11.260,5.019 10.940 C 4.840 10.403,4.852 8.873,5.041 8.201 C 5.273 7.377,6.041 6.306,6.780 5.777 C 7.339 5.376,8.078 5.043,8.622 4.945 C 9.044 4.868,9.965 4.866,10.440 4.939 M7.380 8.515 C 6.795 8.537,6.681 8.551,6.561 8.622 C 6.244 8.808,6.010 9.302,6.051 9.699 C 6.094 10.111,6.443 10.595,6.759 10.680 C 7.039 10.755,8.054 10.799,9.520 10.799 C 11.183 10.798,12.294 10.749,12.489 10.667 C 12.645 10.601,13.022 10.211,13.084 10.052 C 13.161 9.854,13.142 9.320,13.051 9.119 C 12.940 8.875,12.651 8.603,12.455 8.559 C 12.262 8.515,8.305 8.481,7.380 8.515 " fill="#373B4D" stroke="none" fill-rule="evenodd"></path></svg>