<svg width="24" height="24" viewBox="0 0 24 24" fill="none" xmlns="http://www.w3.org/2000/svg"><path d="M8.676 2.523 C 7.828 2.613,6.446 3.136,5.654 3.668 C 5.061 4.066,4.217 4.881,3.727 5.531 C 3.458 5.887,2.964 6.898,2.765 7.500 C 2.529 8.215,2.464 8.646,2.464 9.520 C 2.463 10.323,2.516 10.816,2.663 11.386 C 2.844 12.085,3.377 13.181,3.848 13.820 C 4.125 14.196,5.021 15.080,5.463 15.413 C 5.891 15.736,6.772 16.184,7.360 16.377 C 8.282 16.680,9.300 16.807,10.170 16.727 C 10.461 16.700,10.835 16.650,11.000 16.616 C 11.664 16.477,12.861 16.016,13.462 15.668 L 13.775 15.486 15.897 17.589 C 17.065 18.746,18.323 19.978,18.694 20.328 C 19.997 21.555,20.209 21.675,20.737 21.478 C 21.253 21.285,21.651 20.613,21.516 20.162 C 21.412 19.816,20.630 18.968,17.471 15.778 L 15.488 13.776 15.702 13.398 C 16.258 12.419,16.691 11.006,16.782 9.878 C 16.848 9.044,16.525 7.569,16.055 6.563 C 15.680 5.760,15.246 5.166,14.533 4.480 C 13.917 3.887,13.482 3.581,12.740 3.217 C 11.712 2.714,11.275 2.606,9.934 2.523 C 9.181 2.476,9.119 2.476,8.676 2.523 M10.352 4.962 C 10.856 5.016,11.093 5.085,11.580 5.319 C 12.652 5.834,13.253 6.447,13.994 7.784 L 14.240 8.227 14.240 9.604 L 14.240 10.981 13.958 11.498 C 13.586 12.180,13.395 12.441,12.919 12.917 C 12.299 13.537,11.936 13.790,11.312 14.036 C 10.377 14.405,9.021 14.434,8.057 14.106 C 6.923 13.719,5.899 12.762,5.268 11.497 C 4.932 10.825,4.896 10.565,4.958 9.269 C 5.006 8.262,5.021 8.194,5.309 7.620 C 5.988 6.266,7.282 5.212,8.546 4.984 C 8.925 4.915,9.819 4.904,10.352 4.962 M9.051 6.199 C 8.889 6.298,8.611 6.582,8.538 6.724 C 8.463 6.868,8.401 7.437,8.400 7.970 L 8.400 8.400 8.290 8.401 C 8.049 8.402,7.207 8.482,7.000 8.523 C 6.615 8.600,6.335 8.818,6.145 9.189 C 5.981 9.510,6.039 9.926,6.296 10.280 C 6.557 10.639,7.051 10.796,7.930 10.799 L 8.400 10.800 8.400 11.136 C 8.400 11.611,8.473 12.260,8.546 12.444 C 8.678 12.774,9.246 13.159,9.600 13.159 C 9.954 13.159,10.522 12.774,10.654 12.444 C 10.727 12.261,10.800 11.611,10.800 11.142 L 10.800 10.812 11.410 10.788 C 12.342 10.750,12.668 10.632,12.918 10.243 C 12.984 10.140,13.068 9.940,13.105 9.798 C 13.167 9.559,13.168 9.524,13.108 9.320 C 13.017 9.011,12.838 8.784,12.588 8.662 C 12.365 8.553,11.860 8.465,11.190 8.419 L 10.800 8.393 10.800 7.906 C 10.799 6.990,10.675 6.596,10.309 6.346 C 10.066 6.180,9.849 6.122,9.460 6.121 C 9.251 6.121,9.147 6.140,9.051 6.199 " fill="#373B4D" stroke="none" fill-rule="evenodd"></path></svg>