<svg width="24" height="24" viewBox="0 0 24 24" fill="none" xmlns="http://www.w3.org/2000/svg"><path d="M8.539 2.522 C 7.630 2.641,6.284 3.191,5.440 3.789 C 4.952 4.135,4.095 4.992,3.749 5.480 C 3.240 6.198,2.758 7.279,2.578 8.103 C 2.463 8.633,2.419 9.500,2.473 10.190 C 2.527 10.897,2.592 11.248,2.765 11.777 C 2.931 12.285,3.429 13.269,3.749 13.720 C 4.100 14.215,4.990 15.105,5.480 15.449 C 7.114 16.600,9.247 17.031,11.140 16.593 C 11.874 16.423,12.927 16.000,13.537 15.628 L 13.773 15.484 16.077 17.769 C 18.512 20.186,19.522 21.149,19.870 21.389 C 20.144 21.578,20.431 21.608,20.760 21.484 C 21.074 21.366,21.256 21.200,21.408 20.889 C 21.517 20.668,21.540 20.576,21.540 20.356 C 21.540 20.114,21.527 20.070,21.389 19.871 C 21.154 19.530,20.163 18.491,17.729 16.037 L 15.485 13.773 15.626 13.539 C 16.228 12.539,16.636 11.319,16.762 10.140 C 16.816 9.634,16.790 9.142,16.675 8.500 C 16.296 6.397,15.253 4.786,13.513 3.617 C 12.915 3.215,12.002 2.817,11.260 2.636 C 10.775 2.517,9.109 2.447,8.539 2.522 M10.143 4.920 C 10.797 4.964,11.076 5.039,11.673 5.329 C 12.671 5.814,13.387 6.568,14.006 7.788 L 14.240 8.250 14.240 9.599 L 14.240 10.948 14.017 11.403 C 13.894 11.653,13.699 12.003,13.583 12.181 C 13.344 12.547,12.813 13.101,12.346 13.473 C 11.117 14.450,9.083 14.642,7.580 13.924 C 6.443 13.380,5.478 12.261,5.019 10.953 L 4.912 10.645 4.928 9.553 C 4.948 8.309,4.954 8.277,5.326 7.552 C 5.709 6.806,6.039 6.393,6.630 5.917 C 7.173 5.480,7.548 5.270,8.131 5.074 C 8.685 4.888,9.156 4.852,10.143 4.920 M9.100 6.154 C 8.897 6.252,8.582 6.575,8.501 6.770 C 8.457 6.878,8.432 7.129,8.413 7.654 L 8.388 8.388 7.874 8.414 C 7.221 8.447,6.829 8.503,6.670 8.585 C 6.602 8.620,6.459 8.738,6.353 8.847 C 6.100 9.107,5.969 9.495,6.041 9.765 C 6.150 10.169,6.387 10.488,6.696 10.647 C 6.874 10.739,7.370 10.797,7.984 10.799 L 8.388 10.800 8.412 11.470 C 8.443 12.349,8.489 12.505,8.802 12.806 C 9.303 13.287,9.897 13.287,10.398 12.806 C 10.709 12.507,10.755 12.350,10.788 11.475 L 10.812 10.810 11.456 10.790 C 12.431 10.759,12.746 10.630,12.999 10.156 C 13.234 9.714,13.207 9.288,12.920 8.925 C 12.620 8.546,12.437 8.490,11.255 8.418 L 10.811 8.390 10.789 7.685 C 10.776 7.297,10.745 6.908,10.720 6.820 C 10.656 6.605,10.265 6.220,10.054 6.165 C 9.969 6.143,9.756 6.114,9.580 6.101 C 9.313 6.081,9.233 6.090,9.100 6.154 " fill="#373B4D" stroke="none" fill-rule="evenodd"></path></svg>