<svg width="24" height="24" viewBox="0 0 24 24" fill="none" xmlns="http://www.w3.org/2000/svg"><path d="M8.420 2.559 C 7.678 2.642,6.424 3.151,5.596 3.707 C 4.048 4.744,3.043 6.217,2.582 8.121 C 2.457 8.638,2.412 9.550,2.475 10.300 C 2.588 11.641,3.258 13.193,4.186 14.259 C 4.560 14.690,5.221 15.276,5.658 15.565 C 6.834 16.342,8.617 16.862,9.846 16.787 C 10.922 16.722,12.834 16.113,13.582 15.599 L 13.769 15.470 15.395 17.088 C 17.481 19.166,18.838 20.487,19.429 21.020 C 19.956 21.493,20.158 21.590,20.525 21.547 C 20.771 21.518,20.900 21.449,21.170 21.202 C 21.482 20.917,21.531 20.795,21.514 20.342 C 21.500 19.985,21.495 19.966,21.355 19.796 C 21.083 19.465,19.533 17.860,17.526 15.834 C 16.423 14.720,15.520 13.790,15.520 13.768 C 15.520 13.745,15.594 13.599,15.684 13.442 C 16.052 12.804,16.578 11.427,16.681 10.830 C 16.751 10.431,16.711 8.420,16.627 8.100 C 16.135 6.207,15.096 4.692,13.620 3.712 C 12.896 3.231,11.697 2.714,11.057 2.606 C 10.748 2.554,8.781 2.519,8.420 2.559 M10.877 5.044 C 11.040 5.086,11.359 5.209,11.586 5.317 C 12.737 5.867,13.482 6.674,14.082 8.020 L 14.260 8.420 14.247 9.680 L 14.234 10.940 13.972 11.440 C 13.607 12.138,13.338 12.531,12.973 12.898 C 11.540 14.343,9.570 14.740,7.702 13.959 C 7.010 13.669,6.159 12.960,5.746 12.327 C 5.451 11.876,5.052 11.070,5.001 10.823 C 4.970 10.675,4.959 10.228,4.968 9.490 C 4.981 8.536,4.993 8.352,5.056 8.180 C 5.376 7.308,6.063 6.340,6.708 5.854 C 7.244 5.450,8.128 5.041,8.640 4.960 C 9.019 4.899,10.534 4.957,10.877 5.044 M6.775 8.589 C 6.422 8.621,6.069 9.125,6.065 9.599 C 6.063 10.003,6.333 10.443,6.692 10.617 C 6.866 10.701,6.994 10.724,7.480 10.758 C 8.179 10.808,10.167 10.810,11.385 10.762 C 12.374 10.724,12.489 10.696,12.793 10.422 C 13.029 10.208,13.120 9.994,13.120 9.652 C 13.120 9.197,12.966 8.880,12.639 8.664 L 12.482 8.560 9.711 8.567 C 8.187 8.571,6.866 8.581,6.775 8.589 " fill="#373B4D" stroke="none" fill-rule="evenodd"></path></svg>