<svg width="24" height="24" viewBox="0 0 24 24" fill="none" xmlns="http://www.w3.org/2000/svg"><path d="M11.340 3.028 C 9.141 3.325,7.551 4.009,6.043 5.304 C 3.840 7.198,2.665 10.394,3.102 13.309 C 3.250 14.292,3.666 15.462,4.199 16.393 C 5.737 19.077,8.190 20.639,11.380 20.965 C 12.317 21.060,13.676 20.890,14.720 20.546 C 17.922 19.491,20.142 16.966,20.844 13.580 C 20.949 13.074,20.997 11.397,20.923 10.872 C 20.801 10.020,20.427 8.811,20.039 8.020 C 19.627 7.180,19.112 6.478,18.340 5.702 C 17.551 4.910,16.976 4.488,16.040 4.012 C 14.821 3.393,13.966 3.177,12.202 3.041 C 11.662 3.000,11.561 2.998,11.340 3.028 M11.986 9.066 L 13.511 9.093 13.760 9.333 C 13.897 9.465,14.036 9.637,14.069 9.715 C 14.154 9.919,14.190 10.612,14.223 12.710 L 14.251 14.560 12.056 14.559 C 9.713 14.557,7.966 14.511,7.794 14.445 C 7.640 14.387,7.411 14.173,7.300 13.984 C 7.214 13.836,7.199 13.743,7.162 13.139 C 7.140 12.766,7.109 11.691,7.094 10.750 L 7.067 9.040 8.764 9.040 C 9.697 9.040,11.147 9.052,11.986 9.066 M17.334 11.825 C 17.331 13.244,17.319 14.414,17.308 14.425 C 17.271 14.462,17.038 14.321,16.030 13.656 L 15.040 13.003 15.040 11.802 L 15.040 10.602 15.410 10.353 C 16.413 9.677,17.258 9.162,17.298 9.202 C 17.327 9.231,17.338 10.079,17.334 11.825 " fill="#373B4D" stroke="none" fill-rule="evenodd"></path></svg>