<svg width="24" height="24" viewBox="0 0 24 24" fill="none" xmlns="http://www.w3.org/2000/svg"><path d="M8.220 2.619 C 7.261 2.844,6.123 3.343,5.433 3.840 C 5.016 4.140,3.925 5.255,3.669 5.642 C 3.194 6.362,2.687 7.580,2.556 8.320 C 2.521 8.516,2.502 8.973,2.501 9.640 C 2.500 10.499,2.512 10.710,2.575 10.980 C 2.761 11.774,3.201 12.823,3.615 13.458 C 4.029 14.092,5.102 15.170,5.737 15.588 C 6.347 15.991,7.466 16.440,8.320 16.626 C 8.816 16.734,10.474 16.733,10.939 16.625 C 11.593 16.473,12.429 16.163,13.249 15.771 L 13.798 15.508 15.889 17.566 C 19.144 20.769,19.698 21.286,20.071 21.462 C 20.255 21.550,20.558 21.542,20.777 21.445 C 21.290 21.219,21.651 20.505,21.469 20.079 C 21.328 19.750,20.187 18.527,17.287 15.594 C 16.315 14.612,15.520 13.798,15.520 13.785 C 15.520 13.772,15.645 13.504,15.797 13.190 C 16.575 11.585,16.906 10.040,16.724 8.860 C 16.652 8.392,16.457 7.643,16.294 7.204 C 16.064 6.586,15.593 5.696,15.319 5.360 C 14.529 4.391,13.659 3.680,12.707 3.223 C 11.808 2.792,11.435 2.687,10.431 2.582 C 9.547 2.489,8.716 2.503,8.220 2.619 M10.480 5.001 C 10.861 5.051,11.205 5.164,11.660 5.391 C 12.621 5.869,13.182 6.437,13.919 7.679 L 14.240 8.218 14.240 9.601 L 14.240 10.984 13.986 11.429 C 13.616 12.078,13.311 12.486,12.857 12.940 C 12.235 13.562,11.850 13.824,11.205 14.067 C 10.728 14.246,10.435 14.287,9.600 14.287 C 8.736 14.288,8.405 14.239,7.880 14.037 C 6.924 13.669,5.849 12.612,5.280 11.480 C 4.995 10.914,4.979 10.818,4.986 9.740 C 4.995 8.437,5.024 8.252,5.301 7.689 C 5.954 6.367,7.150 5.339,8.363 5.060 C 8.526 5.023,8.678 4.986,8.700 4.979 C 8.796 4.948,10.208 4.966,10.480 5.001 M9.185 6.176 C 8.865 6.295,8.558 6.645,8.476 6.986 C 8.456 7.071,8.428 7.422,8.414 7.766 L 8.388 8.393 8.064 8.420 C 7.464 8.469,6.915 8.558,6.747 8.633 C 6.509 8.739,6.333 8.900,6.198 9.136 C 6.103 9.302,6.081 9.385,6.083 9.580 C 6.087 9.864,6.136 10.012,6.306 10.253 C 6.551 10.599,7.159 10.796,7.990 10.799 L 8.400 10.800 8.401 11.190 C 8.403 11.624,8.453 12.079,8.528 12.333 C 8.637 12.705,9.304 13.194,9.640 13.149 C 10.026 13.097,10.576 12.662,10.673 12.333 C 10.747 12.078,10.797 11.623,10.799 11.190 L 10.800 10.800 11.130 10.800 C 11.584 10.800,12.139 10.727,12.385 10.635 C 12.739 10.502,12.960 10.229,13.099 9.748 C 13.162 9.533,13.162 9.506,13.098 9.313 C 13.020 9.078,12.774 8.789,12.562 8.682 C 12.396 8.598,11.883 8.501,11.250 8.435 L 10.800 8.387 10.800 8.043 C 10.799 7.202,10.664 6.652,10.407 6.440 C 10.106 6.191,9.498 6.060,9.185 6.176 " fill="#373B4D" stroke="none" fill-rule="evenodd"></path></svg>