<svg width="470" height="181" viewBox="0 0 470 181" fill="none" xmlns="http://www.w3.org/2000/svg">
<g clip-path="url(#clip0_1154_70205)">
<rect x="1" y="1" width="468" height="179" rx="16" fill="#14141F"/>
<g filter="url(#filter0_d_1154_70205)">
<rect x="54" y="52" width="440" height="78" rx="4" fill="#282A3B"/>
<path d="M54 56C54 53.7909 55.7909 52 58 52H126V130H58C55.7909 130 54 128.209 54 126V56Z" fill="#FF453A"/>
<path fill-rule="evenodd" clip-rule="evenodd" d="M99.6004 90.9999C99.6004 96.3018 95.3023 100.6 90.0004 100.6C84.6985 100.6 80.4004 96.3018 80.4004 90.9999C80.4004 85.698 84.6985 81.3999 90.0004 81.3999C95.3023 81.3999 99.6004 85.698 99.6004 90.9999ZM91.2004 95.7999C91.2004 96.4626 90.6631 96.9999 90.0004 96.9999C89.3376 96.9999 88.8004 96.4626 88.8004 95.7999C88.8004 95.1372 89.3376 94.5999 90.0004 94.5999C90.6631 94.5999 91.2004 95.1372 91.2004 95.7999ZM90.0004 84.9999C89.3376 84.9999 88.8004 85.5372 88.8004 86.1999V90.9999C88.8004 91.6626 89.3376 92.1999 90.0004 92.1999C90.6631 92.1999 91.2004 91.6626 91.2004 90.9999V86.1999C91.2004 85.5372 90.6631 84.9999 90.0004 84.9999Z" fill="white"/>
<path d="M152.102 78.9091C152.102 80.0062 151.897 80.9458 151.486 81.728C151.078 82.5069 150.521 83.1035 149.815 83.5178C149.113 83.9321 148.316 84.1392 147.424 84.1392C146.532 84.1392 145.734 83.9321 145.028 83.5178C144.325 83.1001 143.768 82.5019 143.357 81.723C142.95 80.9408 142.746 80.0028 142.746 78.9091C142.746 77.812 142.95 76.8741 143.357 76.0952C143.768 75.313 144.325 74.7147 145.028 74.3004C145.734 73.8861 146.532 73.679 147.424 73.679C148.316 73.679 149.113 73.8861 149.815 74.3004C150.521 74.7147 151.078 75.313 151.486 76.0952C151.897 76.8741 152.102 77.812 152.102 78.9091ZM150.248 78.9091C150.248 78.1368 150.127 77.4856 149.885 76.9553C149.646 76.4216 149.315 76.0189 148.891 75.7472C148.466 75.4721 147.978 75.3345 147.424 75.3345C146.871 75.3345 146.382 75.4721 145.957 75.7472C145.533 76.0189 145.2 76.4216 144.958 76.9553C144.719 77.4856 144.6 78.1368 144.6 78.9091C144.6 79.6813 144.719 80.3343 144.958 80.8679C145.2 81.3982 145.533 81.8009 145.957 82.076C146.382 82.3478 146.871 82.4837 147.424 82.4837C147.978 82.4837 148.466 82.3478 148.891 82.076C149.315 81.8009 149.646 81.3982 149.885 80.8679C150.127 80.3343 150.248 79.6813 150.248 78.9091ZM157.097 84.1491C156.352 84.1491 155.705 83.9851 155.159 83.657C154.612 83.3288 154.187 82.8698 153.886 82.2798C153.588 81.6899 153.438 81.0005 153.438 80.2116C153.438 79.4228 153.588 78.7318 153.886 78.1385C154.187 77.5452 154.612 77.0845 155.159 76.7564C155.705 76.4283 156.352 76.2642 157.097 76.2642C157.843 76.2642 158.49 76.4283 159.036 76.7564C159.583 77.0845 160.006 77.5452 160.304 78.1385C160.606 78.7318 160.757 79.4228 160.757 80.2116C160.757 81.0005 160.606 81.6899 160.304 82.2798C160.006 82.8698 159.583 83.3288 159.036 83.657C158.49 83.9851 157.843 84.1491 157.097 84.1491ZM157.107 82.7074C157.512 82.7074 157.85 82.5964 158.122 82.3743C158.393 82.1489 158.596 81.8473 158.728 81.4695C158.864 81.0916 158.932 80.6707 158.932 80.2067C158.932 79.7393 158.864 79.3168 158.728 78.9389C158.596 78.5578 158.393 78.2545 158.122 78.0291C157.85 77.8037 157.512 77.6911 157.107 77.6911C156.693 77.6911 156.348 77.8037 156.073 78.0291C155.802 78.2545 155.598 78.5578 155.462 78.9389C155.329 79.3168 155.263 79.7393 155.263 80.2067C155.263 80.6707 155.329 81.0916 155.462 81.4695C155.598 81.8473 155.802 82.1489 156.073 82.3743C156.348 82.5964 156.693 82.7074 157.107 82.7074ZM162.284 86.8636V76.3636H164.054V77.6264H164.158C164.251 77.4408 164.382 77.2436 164.551 77.0348C164.72 76.8227 164.949 76.642 165.237 76.4929C165.526 76.3404 165.893 76.2642 166.341 76.2642C166.931 76.2642 167.463 76.415 167.937 76.7166C168.414 77.0149 168.792 77.4574 169.07 78.044C169.352 78.6274 169.493 79.3433 169.493 80.1918C169.493 81.0303 169.355 81.7429 169.08 82.3295C168.805 82.9162 168.431 83.3636 167.957 83.6719C167.483 83.9801 166.946 84.1342 166.346 84.1342C165.908 84.1342 165.545 84.0613 165.257 83.9155C164.969 83.7696 164.737 83.594 164.561 83.3885C164.389 83.1797 164.254 82.9825 164.158 82.7969H164.084V86.8636H162.284ZM164.049 80.1818C164.049 80.6757 164.119 81.1082 164.258 81.4794C164.4 81.8506 164.604 82.1406 164.869 82.3494C165.138 82.5549 165.463 82.6577 165.844 82.6577C166.241 82.6577 166.575 82.5516 166.843 82.3395C167.112 82.1241 167.314 81.8307 167.45 81.4595C167.589 81.085 167.658 80.6591 167.658 80.1818C167.658 79.7079 167.59 79.2869 167.455 78.919C167.319 78.5511 167.116 78.2628 166.848 78.054C166.58 77.8452 166.245 77.7408 165.844 77.7408C165.459 77.7408 165.133 77.8419 164.864 78.044C164.596 78.2462 164.392 78.5296 164.253 78.8942C164.117 79.2588 164.049 79.688 164.049 80.1818ZM177.07 78.3821L175.429 78.5611C175.383 78.3954 175.301 78.2396 175.185 78.0938C175.073 77.9479 174.92 77.8303 174.728 77.7408C174.536 77.6513 174.3 77.6065 174.022 77.6065C173.647 77.6065 173.333 77.6877 173.077 77.8501C172.826 78.0125 172.701 78.223 172.705 78.4815C172.701 78.7036 172.782 78.8842 172.948 79.0234C173.117 79.1626 173.396 79.277 173.783 79.3665L175.086 79.6449C175.808 79.8007 176.345 80.0476 176.697 80.3857C177.051 80.7237 177.23 81.1662 177.234 81.7131C177.23 82.1937 177.089 82.6179 176.811 82.9858C176.536 83.3504 176.153 83.6354 175.663 83.8409C175.172 84.0464 174.609 84.1491 173.972 84.1491C173.038 84.1491 172.285 83.9536 171.715 83.5625C171.145 83.1681 170.805 82.6196 170.696 81.9169L172.451 81.7479C172.531 82.0926 172.7 82.3527 172.958 82.5284C173.217 82.7041 173.553 82.7919 173.967 82.7919C174.395 82.7919 174.738 82.7041 174.996 82.5284C175.258 82.3527 175.389 82.1357 175.389 81.8771C175.389 81.6584 175.305 81.4777 175.136 81.3352C174.97 81.1927 174.711 81.0833 174.36 81.0071L173.058 80.7337C172.325 80.5812 171.783 80.3243 171.432 79.9631C171.08 79.5985 170.906 79.1378 170.91 78.581C170.906 78.1103 171.034 77.7027 171.293 77.358C171.554 77.0099 171.917 76.7415 172.381 76.5526C172.849 76.3603 173.387 76.2642 173.997 76.2642C174.892 76.2642 175.596 76.4548 176.11 76.8359C176.627 77.2171 176.947 77.7325 177.07 78.3821ZM180.92 73.8182L180.756 81.0071H179.155L178.996 73.8182H180.92ZM179.956 84.1094C179.654 84.1094 179.395 84.0033 179.18 83.7912C178.968 83.5791 178.862 83.3205 178.862 83.0156C178.862 82.7173 178.968 82.4621 179.18 82.25C179.395 82.0379 179.654 81.9318 179.956 81.9318C180.251 81.9318 180.506 82.0379 180.721 82.25C180.94 82.4621 181.049 82.7173 181.049 83.0156C181.049 83.2178 180.998 83.4018 180.895 83.5675C180.796 83.7332 180.663 83.8658 180.498 83.9652C180.335 84.0613 180.154 84.1094 179.956 84.1094Z" fill="#FCFCFF"/>
<path d="M148.801 101.364C148.741 100.86 148.5 100.469 148.075 100.19C147.651 99.9119 147.131 99.7727 146.514 99.7727C146.063 99.7727 145.669 99.8456 145.331 99.9915C144.996 100.137 144.734 100.338 144.545 100.593C144.36 100.848 144.267 101.138 144.267 101.463C144.267 101.735 144.332 101.969 144.461 102.164C144.594 102.356 144.763 102.517 144.968 102.646C145.174 102.772 145.389 102.877 145.614 102.96C145.84 103.039 146.047 103.104 146.236 103.153L147.27 103.432C147.535 103.501 147.83 103.598 148.155 103.72C148.483 103.843 148.796 104.01 149.094 104.222C149.396 104.431 149.645 104.7 149.84 105.028C150.036 105.356 150.134 105.759 150.134 106.236C150.134 106.786 149.989 107.283 149.701 107.727C149.416 108.171 148.998 108.524 148.448 108.786C147.901 109.048 147.237 109.179 146.455 109.179C145.725 109.179 145.094 109.061 144.56 108.826C144.03 108.591 143.612 108.263 143.308 107.842C143.006 107.421 142.835 106.932 142.795 106.375H144.068C144.101 106.759 144.231 107.078 144.456 107.33C144.685 107.578 144.973 107.764 145.321 107.886C145.672 108.006 146.05 108.065 146.455 108.065C146.925 108.065 147.348 107.989 147.722 107.837C148.097 107.681 148.393 107.465 148.612 107.19C148.831 106.912 148.94 106.587 148.94 106.216C148.94 105.878 148.846 105.603 148.657 105.391C148.468 105.179 148.219 105.006 147.911 104.874C147.603 104.741 147.27 104.625 146.912 104.526L145.659 104.168C144.864 103.939 144.234 103.612 143.77 103.188C143.306 102.764 143.074 102.209 143.074 101.523C143.074 100.953 143.228 100.455 143.536 100.031C143.848 99.6037 144.265 99.2723 144.789 99.0369C145.316 98.7983 145.904 98.679 146.554 98.679C147.21 98.679 147.794 98.7966 148.304 99.032C148.814 99.264 149.219 99.5821 149.517 99.9865C149.819 100.391 149.978 100.85 149.994 101.364H148.801ZM155.104 109.159C154.414 109.159 153.81 108.995 153.289 108.667C152.772 108.339 152.368 107.88 152.076 107.29C151.788 106.7 151.644 106.01 151.644 105.222C151.644 104.426 151.788 103.732 152.076 103.138C152.368 102.545 152.772 102.085 153.289 101.756C153.81 101.428 154.414 101.264 155.104 101.264C155.793 101.264 156.396 101.428 156.914 101.756C157.434 102.085 157.838 102.545 158.127 103.138C158.418 103.732 158.564 104.426 158.564 105.222C158.564 106.01 158.418 106.7 158.127 107.29C157.838 107.88 157.434 108.339 156.914 108.667C156.396 108.995 155.793 109.159 155.104 109.159ZM155.104 108.105C155.628 108.105 156.058 107.971 156.396 107.702C156.735 107.434 156.985 107.081 157.147 106.643C157.31 106.206 157.391 105.732 157.391 105.222C157.391 104.711 157.31 104.236 157.147 103.795C156.985 103.354 156.735 102.998 156.396 102.726C156.058 102.454 155.628 102.318 155.104 102.318C154.58 102.318 154.149 102.454 153.811 102.726C153.473 102.998 153.223 103.354 153.061 103.795C152.898 104.236 152.817 104.711 152.817 105.222C152.817 105.732 152.898 106.206 153.061 106.643C153.223 107.081 153.473 107.434 153.811 107.702C154.149 107.971 154.58 108.105 155.104 108.105ZM160.355 109V101.364H161.489V102.557H161.588C161.747 102.149 162.004 101.833 162.359 101.607C162.713 101.379 163.139 101.264 163.636 101.264C164.14 101.264 164.559 101.379 164.894 101.607C165.232 101.833 165.496 102.149 165.685 102.557H165.764C165.96 102.162 166.253 101.849 166.644 101.617C167.035 101.382 167.504 101.264 168.051 101.264C168.734 101.264 169.292 101.478 169.727 101.906C170.161 102.33 170.378 102.991 170.378 103.889V109H169.205V103.889C169.205 103.326 169.05 102.923 168.742 102.681C168.434 102.439 168.071 102.318 167.653 102.318C167.116 102.318 166.701 102.481 166.406 102.805C166.111 103.127 165.963 103.535 165.963 104.028V109H164.77V103.77C164.77 103.336 164.629 102.986 164.347 102.721C164.066 102.452 163.703 102.318 163.259 102.318C162.954 102.318 162.669 102.399 162.403 102.562C162.142 102.724 161.929 102.95 161.767 103.238C161.608 103.523 161.528 103.853 161.528 104.227V109H160.355ZM175.725 109.159C174.989 109.159 174.354 108.997 173.821 108.672C173.29 108.344 172.881 107.886 172.593 107.3C172.308 106.71 172.165 106.024 172.165 105.241C172.165 104.459 172.308 103.77 172.593 103.173C172.881 102.573 173.282 102.106 173.796 101.771C174.313 101.433 174.916 101.264 175.605 101.264C176.003 101.264 176.396 101.33 176.784 101.463C177.172 101.596 177.525 101.811 177.843 102.109C178.161 102.404 178.414 102.795 178.603 103.283C178.792 103.77 178.887 104.37 178.887 105.082V105.58H173V104.565H177.694C177.694 104.134 177.607 103.75 177.435 103.412C177.266 103.074 177.024 102.807 176.709 102.612C176.398 102.416 176.03 102.318 175.605 102.318C175.138 102.318 174.734 102.434 174.392 102.666C174.054 102.895 173.794 103.193 173.612 103.561C173.43 103.929 173.338 104.323 173.338 104.744V105.42C173.338 105.997 173.438 106.486 173.637 106.887C173.839 107.285 174.119 107.588 174.477 107.797C174.835 108.002 175.251 108.105 175.725 108.105C176.033 108.105 176.311 108.062 176.56 107.976C176.812 107.886 177.029 107.754 177.211 107.578C177.394 107.399 177.534 107.177 177.634 106.912L178.767 107.23C178.648 107.615 178.448 107.953 178.166 108.244C177.884 108.533 177.536 108.758 177.122 108.92C176.708 109.08 176.242 109.159 175.725 109.159ZM183.993 101.364V102.358H180.035V101.364H183.993ZM181.189 99.5341H182.362V106.812C182.362 107.144 182.41 107.393 182.506 107.558C182.605 107.721 182.731 107.83 182.884 107.886C183.04 107.939 183.204 107.966 183.376 107.966C183.505 107.966 183.611 107.959 183.694 107.946C183.777 107.929 183.843 107.916 183.893 107.906L184.132 108.96C184.052 108.99 183.941 109.02 183.799 109.05C183.656 109.083 183.475 109.099 183.257 109.099C182.925 109.099 182.6 109.028 182.282 108.886C181.967 108.743 181.706 108.526 181.497 108.234C181.291 107.943 181.189 107.575 181.189 107.131V99.5341ZM187.095 104.406V109H185.922V98.8182H187.095V102.557H187.194C187.373 102.162 187.642 101.849 188 101.617C188.361 101.382 188.842 101.264 189.441 101.264C189.962 101.264 190.417 101.369 190.809 101.577C191.2 101.783 191.503 102.099 191.718 102.527C191.937 102.951 192.047 103.491 192.047 104.148V109H190.873V104.227C190.873 103.621 190.716 103.152 190.401 102.82C190.089 102.486 189.657 102.318 189.103 102.318C188.719 102.318 188.374 102.399 188.069 102.562C187.768 102.724 187.529 102.961 187.353 103.273C187.181 103.584 187.095 103.962 187.095 104.406ZM194.193 109V101.364H195.366V109H194.193ZM194.79 100.091C194.561 100.091 194.364 100.013 194.198 99.8572C194.036 99.7015 193.954 99.5142 193.954 99.2955C193.954 99.0767 194.036 98.8894 194.198 98.7337C194.364 98.5779 194.561 98.5 194.79 98.5C195.018 98.5 195.214 98.5779 195.376 98.7337C195.542 98.8894 195.625 99.0767 195.625 99.2955C195.625 99.5142 195.542 99.7015 195.376 99.8572C195.214 100.013 195.018 100.091 194.79 100.091ZM198.689 104.406V109H197.515V101.364H198.649V102.557H198.748C198.927 102.169 199.199 101.857 199.564 101.622C199.928 101.384 200.399 101.264 200.975 101.264C201.493 101.264 201.945 101.37 202.333 101.582C202.721 101.791 203.022 102.109 203.238 102.537C203.453 102.961 203.561 103.498 203.561 104.148V109H202.387V104.227C202.387 103.627 202.232 103.16 201.92 102.825C201.609 102.487 201.181 102.318 200.637 102.318C200.263 102.318 199.928 102.399 199.633 102.562C199.342 102.724 199.111 102.961 198.942 103.273C198.773 103.584 198.689 103.962 198.689 104.406ZM208.787 112.023C208.22 112.023 207.733 111.95 207.325 111.804C206.918 111.661 206.578 111.473 206.306 111.237C206.038 111.005 205.824 110.757 205.665 110.491L206.6 109.835C206.706 109.974 206.84 110.134 207.002 110.312C207.165 110.495 207.387 110.652 207.669 110.785C207.954 110.921 208.326 110.989 208.787 110.989C209.404 110.989 209.912 110.839 210.313 110.541C210.714 110.243 210.915 109.776 210.915 109.139V107.588H210.816C210.729 107.727 210.607 107.9 210.448 108.105C210.292 108.307 210.066 108.488 209.771 108.647C209.48 108.803 209.085 108.881 208.588 108.881C207.972 108.881 207.418 108.735 206.928 108.443C206.441 108.152 206.054 107.727 205.769 107.17C205.488 106.614 205.347 105.937 205.347 105.142C205.347 104.36 205.484 103.679 205.759 103.099C206.035 102.515 206.417 102.065 206.908 101.746C207.398 101.425 207.965 101.264 208.608 101.264C209.105 101.264 209.5 101.347 209.791 101.513C210.086 101.675 210.312 101.861 210.468 102.07C210.627 102.275 210.749 102.444 210.835 102.577H210.955V101.364H212.088V109.219C212.088 109.875 211.939 110.409 211.641 110.82C211.346 111.234 210.948 111.537 210.448 111.729C209.95 111.925 209.397 112.023 208.787 112.023ZM208.747 107.827C209.218 107.827 209.616 107.719 209.941 107.504C210.265 107.288 210.512 106.978 210.681 106.574C210.85 106.17 210.935 105.686 210.935 105.122C210.935 104.572 210.852 104.086 210.686 103.665C210.521 103.245 210.275 102.915 209.95 102.676C209.626 102.437 209.225 102.318 208.747 102.318C208.25 102.318 207.836 102.444 207.504 102.696C207.176 102.948 206.929 103.286 206.764 103.71C206.601 104.134 206.52 104.605 206.52 105.122C206.52 105.652 206.603 106.121 206.769 106.529C206.938 106.933 207.186 107.252 207.514 107.484C207.846 107.712 208.257 107.827 208.747 107.827ZM222.986 105.878V101.364H224.159V109H222.986V107.707H222.906C222.727 108.095 222.449 108.425 222.071 108.697C221.693 108.965 221.216 109.099 220.639 109.099C220.162 109.099 219.738 108.995 219.367 108.786C218.995 108.574 218.704 108.256 218.492 107.832C218.28 107.404 218.173 106.866 218.173 106.216V101.364H219.347V106.136C219.347 106.693 219.503 107.137 219.814 107.469C220.129 107.8 220.53 107.966 221.017 107.966C221.309 107.966 221.606 107.891 221.907 107.742C222.212 107.593 222.467 107.364 222.673 107.056C222.882 106.748 222.986 106.355 222.986 105.878ZM227.482 104.406V109H226.308V101.364H227.442V102.557H227.541C227.72 102.169 227.992 101.857 228.357 101.622C228.721 101.384 229.192 101.264 229.768 101.264C230.286 101.264 230.738 101.37 231.126 101.582C231.513 101.791 231.815 102.109 232.031 102.537C232.246 102.961 232.354 103.498 232.354 104.148V109H231.18V104.227C231.18 103.627 231.025 103.16 230.713 102.825C230.402 102.487 229.974 102.318 229.43 102.318C229.056 102.318 228.721 102.399 228.426 102.562C228.134 102.724 227.904 102.961 227.735 103.273C227.566 103.584 227.482 103.962 227.482 104.406ZM237.699 109.159C236.964 109.159 236.329 108.997 235.795 108.672C235.265 108.344 234.856 107.886 234.567 107.3C234.282 106.71 234.14 106.024 234.14 105.241C234.14 104.459 234.282 103.77 234.567 103.173C234.856 102.573 235.257 102.106 235.77 101.771C236.287 101.433 236.891 101.264 237.58 101.264C237.978 101.264 238.371 101.33 238.758 101.463C239.146 101.596 239.499 101.811 239.817 102.109C240.135 102.404 240.389 102.795 240.578 103.283C240.767 103.77 240.861 104.37 240.861 105.082V105.58H234.975V104.565H239.668C239.668 104.134 239.582 103.75 239.41 103.412C239.241 103.074 238.999 102.807 238.684 102.612C238.372 102.416 238.004 102.318 237.58 102.318C237.113 102.318 236.708 102.434 236.367 102.666C236.029 102.895 235.769 103.193 235.586 103.561C235.404 103.929 235.313 104.323 235.313 104.744V105.42C235.313 105.997 235.412 106.486 235.611 106.887C235.814 107.285 236.094 107.588 236.452 107.797C236.809 108.002 237.225 108.105 237.699 108.105C238.008 108.105 238.286 108.062 238.535 107.976C238.787 107.886 239.004 107.754 239.186 107.578C239.368 107.399 239.509 107.177 239.608 106.912L240.742 107.23C240.623 107.615 240.422 107.953 240.14 108.244C239.859 108.533 239.511 108.758 239.096 108.92C238.682 109.08 238.216 109.159 237.699 109.159ZM243.316 101.364L245.146 104.486L246.975 101.364H248.327L245.862 105.182L248.327 109H246.975L245.146 106.037L243.316 109H241.964L244.39 105.182L241.964 101.364H243.316ZM250.002 111.864V101.364H251.135V102.577H251.274C251.36 102.444 251.48 102.275 251.632 102.07C251.788 101.861 252.01 101.675 252.298 101.513C252.59 101.347 252.985 101.264 253.482 101.264C254.125 101.264 254.691 101.425 255.182 101.746C255.673 102.068 256.055 102.524 256.33 103.114C256.606 103.704 256.743 104.4 256.743 105.202C256.743 106.01 256.606 106.711 256.33 107.305C256.055 107.895 255.674 108.352 255.187 108.677C254.7 108.998 254.138 109.159 253.502 109.159C253.011 109.159 252.618 109.078 252.323 108.915C252.028 108.75 251.801 108.562 251.642 108.354C251.483 108.142 251.36 107.966 251.274 107.827H251.175V111.864H250.002ZM251.155 105.182C251.155 105.759 251.24 106.267 251.409 106.708C251.578 107.146 251.825 107.489 252.149 107.737C252.474 107.982 252.872 108.105 253.343 108.105C253.833 108.105 254.242 107.976 254.57 107.717C254.902 107.455 255.151 107.104 255.316 106.663C255.485 106.219 255.57 105.725 255.57 105.182C255.57 104.645 255.487 104.161 255.321 103.73C255.159 103.296 254.912 102.953 254.58 102.701C254.252 102.446 253.84 102.318 253.343 102.318C252.865 102.318 252.464 102.439 252.139 102.681C251.815 102.92 251.569 103.254 251.404 103.685C251.238 104.113 251.155 104.612 251.155 105.182ZM261.735 109.159C260.999 109.159 260.364 108.997 259.83 108.672C259.3 108.344 258.891 107.886 258.602 107.3C258.317 106.71 258.175 106.024 258.175 105.241C258.175 104.459 258.317 103.77 258.602 103.173C258.891 102.573 259.292 102.106 259.806 101.771C260.323 101.433 260.926 101.264 261.615 101.264C262.013 101.264 262.406 101.33 262.794 101.463C263.181 101.596 263.534 101.811 263.852 102.109C264.171 102.404 264.424 102.795 264.613 103.283C264.802 103.77 264.896 104.37 264.896 105.082V105.58H259.01V104.565H263.703C263.703 104.134 263.617 103.75 263.445 103.412C263.276 103.074 263.034 102.807 262.719 102.612C262.407 102.416 262.039 102.318 261.615 102.318C261.148 102.318 260.744 102.434 260.402 102.666C260.064 102.895 259.804 103.193 259.622 103.561C259.439 103.929 259.348 104.323 259.348 104.744V105.42C259.348 105.997 259.448 106.486 259.646 106.887C259.849 107.285 260.129 107.588 260.487 107.797C260.845 108.002 261.261 108.105 261.735 108.105C262.043 108.105 262.321 108.062 262.57 107.976C262.822 107.886 263.039 107.754 263.221 107.578C263.403 107.399 263.544 107.177 263.644 106.912L264.777 107.23C264.658 107.615 264.457 107.953 264.176 108.244C263.894 108.533 263.546 108.758 263.132 108.92C262.717 109.08 262.252 109.159 261.735 109.159ZM269.784 109.159C269.068 109.159 268.451 108.99 267.934 108.652C267.417 108.314 267.019 107.848 266.741 107.255C266.463 106.662 266.323 105.984 266.323 105.222C266.323 104.446 266.466 103.762 266.751 103.168C267.039 102.572 267.44 102.106 267.954 101.771C268.471 101.433 269.074 101.264 269.764 101.264C270.301 101.264 270.785 101.364 271.215 101.562C271.646 101.761 271.999 102.04 272.274 102.398C272.549 102.756 272.72 103.173 272.786 103.651H271.613C271.524 103.303 271.325 102.994 271.017 102.726C270.712 102.454 270.301 102.318 269.784 102.318C269.326 102.318 268.925 102.437 268.58 102.676C268.239 102.911 267.972 103.245 267.78 103.675C267.591 104.103 267.497 104.605 267.497 105.182C267.497 105.772 267.589 106.286 267.775 106.723C267.964 107.161 268.229 107.5 268.57 107.742C268.915 107.984 269.32 108.105 269.784 108.105C270.088 108.105 270.365 108.052 270.614 107.946C270.862 107.84 271.073 107.688 271.245 107.489C271.418 107.29 271.54 107.051 271.613 106.773H272.786C272.72 107.223 272.556 107.629 272.294 107.991C272.036 108.349 271.693 108.634 271.265 108.846C270.841 109.055 270.347 109.159 269.784 109.159ZM277.823 101.364V102.358H273.865V101.364H277.823ZM275.019 99.5341H276.192V106.812C276.192 107.144 276.24 107.393 276.336 107.558C276.436 107.721 276.561 107.83 276.714 107.886C276.87 107.939 277.034 107.966 277.206 107.966C277.335 107.966 277.441 107.959 277.524 107.946C277.607 107.929 277.673 107.916 277.723 107.906L277.962 108.96C277.882 108.99 277.771 109.02 277.629 109.05C277.486 109.083 277.306 109.099 277.087 109.099C276.755 109.099 276.431 109.028 276.112 108.886C275.798 108.743 275.536 108.526 275.327 108.234C275.121 107.943 275.019 107.575 275.019 107.131V99.5341ZM282.707 109.159C281.971 109.159 281.337 108.997 280.803 108.672C280.273 108.344 279.863 107.886 279.575 107.3C279.29 106.71 279.148 106.024 279.148 105.241C279.148 104.459 279.29 103.77 279.575 103.173C279.863 102.573 280.265 102.106 280.778 101.771C281.295 101.433 281.898 101.264 282.588 101.264C282.986 101.264 283.378 101.33 283.766 101.463C284.154 101.596 284.507 101.811 284.825 102.109C285.143 102.404 285.397 102.795 285.586 103.283C285.775 103.77 285.869 104.37 285.869 105.082V105.58H279.983V104.565H284.676C284.676 104.134 284.59 103.75 284.417 103.412C284.248 103.074 284.006 102.807 283.692 102.612C283.38 102.416 283.012 102.318 282.588 102.318C282.121 102.318 281.716 102.434 281.375 102.666C281.037 102.895 280.777 103.193 280.594 103.561C280.412 103.929 280.321 104.323 280.321 104.744V105.42C280.321 105.997 280.42 106.486 280.619 106.887C280.821 107.285 281.101 107.588 281.459 107.797C281.817 108.002 282.233 108.105 282.707 108.105C283.015 108.105 283.294 108.062 283.542 107.976C283.794 107.886 284.011 107.754 284.194 107.578C284.376 107.399 284.517 107.177 284.616 106.912L285.75 107.23C285.631 107.615 285.43 107.953 285.148 108.244C284.867 108.533 284.519 108.758 284.104 108.92C283.69 109.08 283.224 109.159 282.707 109.159ZM290.537 109.159C289.901 109.159 289.339 108.998 288.852 108.677C288.365 108.352 287.984 107.895 287.709 107.305C287.434 106.711 287.296 106.01 287.296 105.202C287.296 104.4 287.434 103.704 287.709 103.114C287.984 102.524 288.367 102.068 288.857 101.746C289.348 101.425 289.914 101.264 290.557 101.264C291.055 101.264 291.447 101.347 291.736 101.513C292.027 101.675 292.249 101.861 292.402 102.07C292.558 102.275 292.679 102.444 292.765 102.577H292.864V98.8182H294.037V109H292.904V107.827H292.765C292.679 107.966 292.556 108.142 292.397 108.354C292.238 108.562 292.011 108.75 291.716 108.915C291.421 109.078 291.028 109.159 290.537 109.159ZM290.697 108.105C291.167 108.105 291.565 107.982 291.89 107.737C292.215 107.489 292.461 107.146 292.631 106.708C292.8 106.267 292.884 105.759 292.884 105.182C292.884 104.612 292.801 104.113 292.635 103.685C292.47 103.254 292.224 102.92 291.9 102.681C291.575 102.439 291.174 102.318 290.697 102.318C290.199 102.318 289.785 102.446 289.454 102.701C289.126 102.953 288.879 103.296 288.713 103.73C288.55 104.161 288.469 104.645 288.469 105.182C288.469 105.725 288.552 106.219 288.718 106.663C288.887 107.104 289.135 107.455 289.464 107.717C289.795 107.976 290.206 108.105 290.697 108.105ZM301.46 104.406V109H300.287V98.8182H301.46V102.557H301.559C301.738 102.162 302.007 101.849 302.365 101.617C302.726 101.382 303.207 101.264 303.807 101.264C304.327 101.264 304.783 101.369 305.174 101.577C305.565 101.783 305.868 102.099 306.084 102.527C306.302 102.951 306.412 103.491 306.412 104.148V109H305.238V104.227C305.238 103.621 305.081 103.152 304.766 102.82C304.455 102.486 304.022 102.318 303.469 102.318C303.084 102.318 302.739 102.399 302.434 102.562C302.133 102.724 301.894 102.961 301.719 103.273C301.546 103.584 301.46 103.962 301.46 104.406ZM310.805 109.179C310.321 109.179 309.882 109.088 309.488 108.906C309.094 108.72 308.78 108.453 308.548 108.105C308.316 107.754 308.2 107.33 308.2 106.832C308.2 106.395 308.286 106.04 308.459 105.768C308.631 105.493 308.862 105.278 309.15 105.122C309.438 104.966 309.756 104.85 310.104 104.774C310.456 104.695 310.809 104.632 311.163 104.585C311.627 104.526 312.004 104.481 312.292 104.451C312.584 104.418 312.796 104.363 312.928 104.287C313.064 104.211 313.132 104.078 313.132 103.889V103.849C313.132 103.359 312.998 102.978 312.729 102.706C312.464 102.434 312.062 102.298 311.521 102.298C310.961 102.298 310.522 102.421 310.204 102.666C309.886 102.911 309.662 103.173 309.533 103.452L308.419 103.054C308.618 102.59 308.883 102.229 309.214 101.97C309.549 101.708 309.914 101.526 310.308 101.423C310.706 101.317 311.097 101.264 311.482 101.264C311.727 101.264 312.009 101.294 312.327 101.354C312.648 101.41 312.958 101.528 313.256 101.707C313.558 101.886 313.808 102.156 314.007 102.517C314.206 102.878 314.305 103.362 314.305 103.969V109H313.132V107.966H313.072C312.993 108.132 312.86 108.309 312.675 108.498C312.489 108.687 312.242 108.848 311.934 108.98C311.626 109.113 311.25 109.179 310.805 109.179ZM310.984 108.125C311.448 108.125 311.839 108.034 312.158 107.852C312.479 107.669 312.721 107.434 312.884 107.146C313.049 106.857 313.132 106.554 313.132 106.236V105.162C313.082 105.222 312.973 105.276 312.804 105.326C312.638 105.372 312.446 105.414 312.227 105.45C312.012 105.483 311.801 105.513 311.596 105.54C311.394 105.563 311.23 105.583 311.104 105.599C310.799 105.639 310.514 105.704 310.249 105.793C309.987 105.879 309.775 106.01 309.612 106.186C309.453 106.358 309.374 106.594 309.374 106.892C309.374 107.3 309.524 107.608 309.826 107.817C310.131 108.022 310.517 108.125 310.984 108.125ZM316.447 111.864V101.364H317.58V102.577H317.72C317.806 102.444 317.925 102.275 318.078 102.07C318.233 101.861 318.455 101.675 318.744 101.513C319.035 101.347 319.43 101.264 319.927 101.264C320.57 101.264 321.137 101.425 321.627 101.746C322.118 102.068 322.501 102.524 322.776 103.114C323.051 103.704 323.188 104.4 323.188 105.202C323.188 106.01 323.051 106.711 322.776 107.305C322.501 107.895 322.119 108.352 321.632 108.677C321.145 108.998 320.583 109.159 319.947 109.159C319.456 109.159 319.064 109.078 318.769 108.915C318.474 108.75 318.247 108.562 318.088 108.354C317.928 108.142 317.806 107.966 317.72 107.827H317.62V111.864H316.447ZM317.6 105.182C317.6 105.759 317.685 106.267 317.854 106.708C318.023 107.146 318.27 107.489 318.595 107.737C318.919 107.982 319.317 108.105 319.788 108.105C320.278 108.105 320.688 107.976 321.016 107.717C321.347 107.455 321.596 107.104 321.762 106.663C321.931 106.219 322.015 105.725 322.015 105.182C322.015 104.645 321.932 104.161 321.767 103.73C321.604 103.296 321.357 102.953 321.026 102.701C320.698 102.446 320.285 102.318 319.788 102.318C319.311 102.318 318.91 102.439 318.585 102.681C318.26 102.92 318.015 103.254 317.849 103.685C317.683 104.113 317.6 104.612 317.6 105.182ZM324.978 111.864V101.364H326.112V102.577H326.251C326.337 102.444 326.456 102.275 326.609 102.07C326.765 101.861 326.987 101.675 327.275 101.513C327.567 101.347 327.961 101.264 328.458 101.264C329.101 101.264 329.668 101.425 330.159 101.746C330.649 102.068 331.032 102.524 331.307 103.114C331.582 103.704 331.72 104.4 331.72 105.202C331.72 106.01 331.582 106.711 331.307 107.305C331.032 107.895 330.651 108.352 330.164 108.677C329.676 108.998 329.115 109.159 328.478 109.159C327.988 109.159 327.595 109.078 327.3 108.915C327.005 108.75 326.778 108.562 326.619 108.354C326.46 108.142 326.337 107.966 326.251 107.827H326.151V111.864H324.978ZM326.132 105.182C326.132 105.759 326.216 106.267 326.385 106.708C326.554 107.146 326.801 107.489 327.126 107.737C327.451 107.982 327.848 108.105 328.319 108.105C328.81 108.105 329.219 107.976 329.547 107.717C329.878 107.455 330.127 107.104 330.293 106.663C330.462 106.219 330.546 105.725 330.546 105.182C330.546 104.645 330.463 104.161 330.298 103.73C330.135 103.296 329.888 102.953 329.557 102.701C329.229 102.446 328.816 102.318 328.319 102.318C327.842 102.318 327.441 102.439 327.116 102.681C326.791 102.92 326.546 103.254 326.38 103.685C326.214 104.113 326.132 104.612 326.132 105.182ZM336.711 109.159C335.975 109.159 335.341 108.997 334.807 108.672C334.277 108.344 333.867 107.886 333.579 107.3C333.294 106.71 333.151 106.024 333.151 105.241C333.151 104.459 333.294 103.77 333.579 103.173C333.867 102.573 334.268 102.106 334.782 101.771C335.299 101.433 335.902 101.264 336.592 101.264C336.99 101.264 337.382 101.33 337.77 101.463C338.158 101.596 338.511 101.811 338.829 102.109C339.147 102.404 339.401 102.795 339.59 103.283C339.779 103.77 339.873 104.37 339.873 105.082V105.58H333.987V104.565H338.68C338.68 104.134 338.594 103.75 338.421 103.412C338.252 103.074 338.01 102.807 337.695 102.612C337.384 102.416 337.016 102.318 336.592 102.318C336.124 102.318 335.72 102.434 335.379 102.666C335.041 102.895 334.78 103.193 334.598 103.561C334.416 103.929 334.325 104.323 334.325 104.744V105.42C334.325 105.997 334.424 106.486 334.623 106.887C334.825 107.285 335.105 107.588 335.463 107.797C335.821 108.002 336.237 108.105 336.711 108.105C337.019 108.105 337.298 108.062 337.546 107.976C337.798 107.886 338.015 107.754 338.198 107.578C338.38 107.399 338.521 107.177 338.62 106.912L339.754 107.23C339.634 107.615 339.434 107.953 339.152 108.244C338.87 108.533 338.522 108.758 338.108 108.92C337.694 109.08 337.228 109.159 336.711 109.159ZM342.831 104.406V109H341.658V101.364H342.791V102.557H342.891C343.07 102.169 343.342 101.857 343.706 101.622C344.071 101.384 344.541 101.264 345.118 101.264C345.635 101.264 346.088 101.37 346.475 101.582C346.863 101.791 347.165 102.109 347.38 102.537C347.596 102.961 347.703 103.498 347.703 104.148V109H346.53V104.227C346.53 103.627 346.374 103.16 346.063 102.825C345.751 102.487 345.324 102.318 344.78 102.318C344.405 102.318 344.071 102.399 343.776 102.562C343.484 102.724 343.254 102.961 343.085 103.273C342.916 103.584 342.831 103.962 342.831 104.406ZM353.049 109.159C352.313 109.159 351.679 108.997 351.145 108.672C350.615 108.344 350.205 107.886 349.917 107.3C349.632 106.71 349.489 106.024 349.489 105.241C349.489 104.459 349.632 103.77 349.917 103.173C350.205 102.573 350.606 102.106 351.12 101.771C351.637 101.433 352.24 101.264 352.93 101.264C353.327 101.264 353.72 101.33 354.108 101.463C354.496 101.596 354.849 101.811 355.167 102.109C355.485 102.404 355.739 102.795 355.928 103.283C356.116 103.77 356.211 104.37 356.211 105.082V105.58H350.325V104.565H355.018C355.018 104.134 354.932 103.75 354.759 103.412C354.59 103.074 354.348 102.807 354.033 102.612C353.722 102.416 353.354 102.318 352.93 102.318C352.462 102.318 352.058 102.434 351.717 102.666C351.379 102.895 351.118 103.193 350.936 103.561C350.754 103.929 350.663 104.323 350.663 104.744V105.42C350.663 105.997 350.762 106.486 350.961 106.887C351.163 107.285 351.443 107.588 351.801 107.797C352.159 108.002 352.575 108.105 353.049 108.105C353.357 108.105 353.636 108.062 353.884 107.976C354.136 107.886 354.353 107.754 354.536 107.578C354.718 107.399 354.859 107.177 354.958 106.912L356.092 107.23C355.972 107.615 355.772 107.953 355.49 108.244C355.208 108.533 354.86 108.758 354.446 108.92C354.032 109.08 353.566 109.159 353.049 109.159ZM360.879 109.159C360.243 109.159 359.681 108.998 359.194 108.677C358.707 108.352 358.326 107.895 358.05 107.305C357.775 106.711 357.638 106.01 357.638 105.202C357.638 104.4 357.775 103.704 358.05 103.114C358.326 102.524 358.708 102.068 359.199 101.746C359.689 101.425 360.256 101.264 360.899 101.264C361.396 101.264 361.789 101.347 362.077 101.513C362.369 101.675 362.591 101.861 362.744 102.07C362.899 102.275 363.02 102.444 363.107 102.577H363.206V98.8182H364.379V109H363.246V107.827H363.107C363.02 107.966 362.898 108.142 362.739 108.354C362.58 108.562 362.353 108.75 362.058 108.915C361.763 109.078 361.37 109.159 360.879 109.159ZM361.038 108.105C361.509 108.105 361.907 107.982 362.232 107.737C362.556 107.489 362.803 107.146 362.972 106.708C363.141 106.267 363.226 105.759 363.226 105.182C363.226 104.612 363.143 104.113 362.977 103.685C362.812 103.254 362.566 102.92 362.241 102.681C361.917 102.439 361.516 102.318 361.038 102.318C360.541 102.318 360.127 102.446 359.795 102.701C359.467 102.953 359.22 103.296 359.055 103.73C358.892 104.161 358.811 104.645 358.811 105.182C358.811 105.725 358.894 106.219 359.06 106.663C359.229 107.104 359.477 107.455 359.805 107.717C360.137 107.976 360.548 108.105 361.038 108.105ZM367.546 109.08C367.301 109.08 367.09 108.992 366.915 108.816C366.739 108.64 366.651 108.43 366.651 108.185C366.651 107.939 366.739 107.729 366.915 107.553C367.09 107.378 367.301 107.29 367.546 107.29C367.791 107.29 368.002 107.378 368.178 107.553C368.353 107.729 368.441 107.939 368.441 108.185C368.441 108.347 368.4 108.496 368.317 108.632C368.237 108.768 368.129 108.877 367.994 108.96C367.861 109.04 367.712 109.08 367.546 109.08Z" fill="#FCFCFF"/>
<path d="M463 83L473 73M463 73L473 83" stroke="#C4C6D7" stroke-width="1.67" stroke-linecap="round" stroke-linejoin="round"/>
<rect x="54.5" y="52.5" width="439" height="77" rx="3.5" stroke="#373B4D"/>
</g>
</g>
<rect x="0.5" y="0.5" width="469" height="180" rx="16.5" stroke="#282A3B"/>
<defs>
<filter id="filter0_d_1154_70205" x="22" y="36" width="504" height="142" filterUnits="userSpaceOnUse" color-interpolation-filters="sRGB">
<feFlood flood-opacity="0" result="BackgroundImageFix"/>
<feColorMatrix in="SourceAlpha" type="matrix" values="0 0 0 0 0 0 0 0 0 0 0 0 0 0 0 0 0 0 127 0" result="hardAlpha"/>
<feOffset dy="16"/>
<feGaussianBlur stdDeviation="16"/>
<feColorMatrix type="matrix" values="0 0 0 0 0.215686 0 0 0 0 0.231373 0 0 0 0 0.301961 0 0 0 0.04 0"/>
<feBlend mode="normal" in2="BackgroundImageFix" result="effect1_dropShadow_1154_70205"/>
<feBlend mode="normal" in="SourceGraphic" in2="effect1_dropShadow_1154_70205" result="shape"/>
</filter>
<clipPath id="clip0_1154_70205">
<rect x="1" y="1" width="468" height="179" rx="16" fill="white"/>
</clipPath>
</defs>
</svg>
