<svg width="470" height="181" viewBox="0 0 470 181" fill="none" xmlns="http://www.w3.org/2000/svg">
<g clip-path="url(#clip0_1154_70193)">
<rect x="1" y="1" width="468" height="179" rx="16" fill="#14141F"/>
<g filter="url(#filter0_d_1154_70193)">
<rect x="54" y="46" width="440" height="90" rx="4" fill="#282A3B"/>
<path d="M54 50C54 47.7909 55.7909 46 58 46H126V136H58C55.7909 136 54 134.209 54 132V50Z" fill="#FF453A"/>
<path fill-rule="evenodd" clip-rule="evenodd" d="M99.6004 90.9999C99.6004 96.3018 95.3023 100.6 90.0004 100.6C84.6985 100.6 80.4004 96.3018 80.4004 90.9999C80.4004 85.698 84.6985 81.3999 90.0004 81.3999C95.3023 81.3999 99.6004 85.698 99.6004 90.9999ZM91.2004 95.7999C91.2004 96.4626 90.6631 96.9999 90.0004 96.9999C89.3376 96.9999 88.8004 96.4626 88.8004 95.7999C88.8004 95.1372 89.3376 94.5999 90.0004 94.5999C90.6631 94.5999 91.2004 95.1372 91.2004 95.7999ZM90.0004 84.9999C89.3376 84.9999 88.8004 85.5372 88.8004 86.1999V90.9999C88.8004 91.6626 89.3376 92.1999 90.0004 92.1999C90.6631 92.1999 91.2004 91.6626 91.2004 90.9999V86.1999C91.2004 85.5372 90.6631 84.9999 90.0004 84.9999Z" fill="white"/>
<path d="M142.676 68.9119V67.8182H150.312V68.9119H147.111V78H145.878V68.9119H142.676ZM153.23 73.4062V78H152.056V67.8182H153.23V71.5568H153.329C153.508 71.1624 153.776 70.8492 154.134 70.6172C154.496 70.3819 154.976 70.2642 155.576 70.2642C156.097 70.2642 156.552 70.3686 156.943 70.5774C157.334 70.7829 157.638 71.0994 157.853 71.527C158.072 71.9512 158.181 72.4915 158.181 73.1477V78H157.008V73.2273C157.008 72.6207 156.851 72.1518 156.536 71.8203C156.224 71.4856 155.792 71.3182 155.238 71.3182C154.854 71.3182 154.509 71.3994 154.204 71.5618C153.902 71.7242 153.664 71.9612 153.488 72.2727C153.316 72.5843 153.23 72.9621 153.23 73.4062ZM163.529 78.1591C162.794 78.1591 162.159 77.9967 161.625 77.6719C161.095 77.3438 160.686 76.8864 160.397 76.2997C160.112 75.7098 159.97 75.0237 159.97 74.2415C159.97 73.4593 160.112 72.7699 160.397 72.1733C160.686 71.5734 161.087 71.1061 161.6 70.7713C162.118 70.4332 162.721 70.2642 163.41 70.2642C163.808 70.2642 164.201 70.3305 164.588 70.4631C164.976 70.5956 165.329 70.8111 165.647 71.1094C165.966 71.4044 166.219 71.7955 166.408 72.2827C166.597 72.7699 166.691 73.3698 166.691 74.0824V74.5795H160.805V73.5653H165.498C165.498 73.1345 165.412 72.75 165.24 72.4119C165.071 72.0739 164.829 71.8071 164.514 71.6115C164.202 71.416 163.834 71.3182 163.41 71.3182C162.943 71.3182 162.538 71.4342 162.197 71.6662C161.859 71.8949 161.599 72.1932 161.417 72.5611C161.234 72.929 161.143 73.3234 161.143 73.7443V74.4205C161.143 74.9972 161.243 75.486 161.441 75.8871C161.644 76.2848 161.924 76.5881 162.282 76.7969C162.64 77.0024 163.056 77.1051 163.529 77.1051C163.838 77.1051 164.116 77.062 164.365 76.9759C164.617 76.8864 164.834 76.7538 165.016 76.5781C165.198 76.3991 165.339 76.1771 165.439 75.9119L166.572 76.2301C166.453 76.6146 166.252 76.9527 165.971 77.2443C165.689 77.5327 165.341 77.758 164.926 77.9205C164.512 78.0795 164.047 78.1591 163.529 78.1591ZM168.476 78V70.3636H169.61V71.517H169.689C169.828 71.1392 170.08 70.8326 170.445 70.5973C170.81 70.362 171.221 70.2443 171.678 70.2443C171.764 70.2443 171.872 70.246 172.001 70.2493C172.13 70.2526 172.228 70.2576 172.294 70.2642V71.4574C172.255 71.4474 172.163 71.4325 172.021 71.4126C171.882 71.3894 171.734 71.3778 171.578 71.3778C171.207 71.3778 170.876 71.4557 170.584 71.6115C170.296 71.764 170.067 71.9761 169.898 72.2479C169.732 72.5163 169.65 72.8229 169.65 73.1676V78H168.476ZM176.654 78.1591C175.919 78.1591 175.284 77.9967 174.75 77.6719C174.22 77.3438 173.811 76.8864 173.522 76.2997C173.237 75.7098 173.095 75.0237 173.095 74.2415C173.095 73.4593 173.237 72.7699 173.522 72.1733C173.811 71.5734 174.212 71.1061 174.725 70.7713C175.243 70.4332 175.846 70.2642 176.535 70.2642C176.933 70.2642 177.326 70.3305 177.713 70.4631C178.101 70.5956 178.454 70.8111 178.772 71.1094C179.091 71.4044 179.344 71.7955 179.533 72.2827C179.722 72.7699 179.816 73.3698 179.816 74.0824V74.5795H173.93V73.5653H178.623C178.623 73.1345 178.537 72.75 178.365 72.4119C178.196 72.0739 177.954 71.8071 177.639 71.6115C177.327 71.416 176.959 71.3182 176.535 71.3182C176.068 71.3182 175.663 71.4342 175.322 71.6662C174.984 71.8949 174.724 72.1932 174.542 72.5611C174.359 72.929 174.268 73.3234 174.268 73.7443V74.4205C174.268 74.9972 174.368 75.486 174.566 75.8871C174.769 76.2848 175.049 76.5881 175.407 76.7969C175.765 77.0024 176.181 77.1051 176.654 77.1051C176.963 77.1051 177.241 77.062 177.49 76.9759C177.742 76.8864 177.959 76.7538 178.141 76.5781C178.323 76.3991 178.464 76.1771 178.564 75.9119L179.697 76.2301C179.578 76.6146 179.377 76.9527 179.096 77.2443C178.814 77.5327 178.466 77.758 178.051 77.9205C177.637 78.0795 177.172 78.1591 176.654 78.1591ZM187.269 78L184.942 70.3636H186.175L187.826 76.2102H187.905L189.536 70.3636H190.789L192.4 76.1903H192.479L194.13 70.3636H195.363L193.036 78H191.882L190.212 72.1335H190.093L188.422 78H187.269ZM199.161 78.179C198.677 78.179 198.238 78.0878 197.843 77.9055C197.449 77.7199 197.136 77.4531 196.904 77.1051C196.672 76.7538 196.556 76.3295 196.556 75.8324C196.556 75.3949 196.642 75.0402 196.814 74.7685C196.987 74.4934 197.217 74.2779 197.505 74.1222C197.794 73.9664 198.112 73.8504 198.46 73.7741C198.811 73.6946 199.164 73.6316 199.519 73.5852C199.983 73.5256 200.359 73.4808 200.647 73.451C200.939 73.4179 201.151 73.3632 201.284 73.2869C201.42 73.2107 201.488 73.0781 201.488 72.8892V72.8494C201.488 72.3589 201.353 71.9777 201.085 71.706C200.82 71.4342 200.417 71.2983 199.877 71.2983C199.317 71.2983 198.877 71.4209 198.559 71.6662C198.241 71.9115 198.017 72.1733 197.888 72.4517L196.775 72.054C196.973 71.59 197.239 71.2287 197.57 70.9702C197.905 70.7083 198.269 70.526 198.664 70.4233C199.061 70.3172 199.453 70.2642 199.837 70.2642C200.082 70.2642 200.364 70.294 200.682 70.3537C201.004 70.41 201.314 70.5277 201.612 70.7067C201.913 70.8857 202.164 71.1558 202.363 71.517C202.561 71.8783 202.661 72.3622 202.661 72.9688V78H201.488V76.9659H201.428C201.348 77.1316 201.216 77.3089 201.03 77.4979C200.845 77.6868 200.598 77.8475 200.289 77.9801C199.981 78.1127 199.605 78.179 199.161 78.179ZM199.34 77.125C199.804 77.125 200.195 77.0339 200.513 76.8516C200.835 76.6693 201.077 76.4339 201.239 76.1456C201.405 75.8572 201.488 75.554 201.488 75.2358V74.1619C201.438 74.2216 201.328 74.2763 201.159 74.326C200.994 74.3724 200.801 74.4138 200.583 74.4503C200.367 74.4834 200.157 74.5133 199.951 74.5398C199.749 74.563 199.585 74.5829 199.459 74.5994C199.154 74.6392 198.869 74.7038 198.604 74.7933C198.342 74.8795 198.13 75.0104 197.968 75.1861C197.809 75.3584 197.729 75.5937 197.729 75.892C197.729 76.2997 197.88 76.608 198.181 76.8168C198.486 77.0223 198.873 77.125 199.34 77.125ZM210.211 72.0739L209.157 72.3722C209.091 72.1965 208.993 72.0258 208.864 71.8601C208.738 71.6911 208.566 71.5518 208.347 71.4425C208.128 71.3331 207.848 71.2784 207.507 71.2784C207.04 71.2784 206.65 71.3861 206.339 71.6016C206.03 71.8137 205.876 72.0838 205.876 72.4119C205.876 72.7036 205.982 72.9339 206.194 73.103C206.407 73.272 206.738 73.4129 207.189 73.5256L208.322 73.804C209.005 73.9697 209.514 74.2232 209.849 74.5646C210.183 74.9027 210.351 75.3385 210.351 75.8722C210.351 76.3097 210.225 76.7008 209.973 77.0455C209.724 77.3902 209.376 77.6619 208.929 77.8608C208.481 78.0597 207.961 78.1591 207.368 78.1591C206.589 78.1591 205.944 77.9901 205.434 77.652C204.923 77.3139 204.6 76.8201 204.464 76.1705L205.578 75.892C205.684 76.303 205.885 76.6113 206.18 76.8168C206.478 77.0223 206.867 77.125 207.348 77.125C207.895 77.125 208.329 77.009 208.65 76.777C208.975 76.5417 209.138 76.2599 209.138 75.9318C209.138 75.6667 209.045 75.4446 208.859 75.2656C208.674 75.0833 208.389 74.9474 208.004 74.858L206.731 74.5597C206.032 74.3939 205.518 74.1371 205.19 73.7891C204.865 73.4377 204.703 72.9986 204.703 72.4716C204.703 72.0407 204.824 71.6596 205.066 71.3281C205.311 70.9967 205.644 70.7365 206.065 70.5476C206.489 70.3587 206.97 70.2642 207.507 70.2642C208.263 70.2642 208.856 70.4299 209.287 70.7614C209.721 71.0928 210.029 71.5303 210.211 72.0739ZM218.301 78.179C217.818 78.179 217.378 78.0878 216.984 77.9055C216.59 77.7199 216.276 77.4531 216.044 77.1051C215.812 76.7538 215.696 76.3295 215.696 75.8324C215.696 75.3949 215.783 75.0402 215.955 74.7685C216.127 74.4934 216.358 74.2779 216.646 74.1222C216.934 73.9664 217.252 73.8504 217.6 73.7741C217.952 73.6946 218.305 73.6316 218.659 73.5852C219.123 73.5256 219.5 73.4808 219.788 73.451C220.08 73.4179 220.292 73.3632 220.424 73.2869C220.56 73.2107 220.628 73.0781 220.628 72.8892V72.8494C220.628 72.3589 220.494 71.9777 220.225 71.706C219.96 71.4342 219.558 71.2983 219.017 71.2983C218.457 71.2983 218.018 71.4209 217.7 71.6662C217.382 71.9115 217.158 72.1733 217.029 72.4517L215.915 72.054C216.114 71.59 216.379 71.2287 216.711 70.9702C217.045 70.7083 217.41 70.526 217.804 70.4233C218.202 70.3172 218.593 70.2642 218.978 70.2642C219.223 70.2642 219.505 70.294 219.823 70.3537C220.144 70.41 220.454 70.5277 220.752 70.7067C221.054 70.8857 221.304 71.1558 221.503 71.517C221.702 71.8783 221.801 72.3622 221.801 72.9688V78H220.628V76.9659H220.569C220.489 77.1316 220.356 77.3089 220.171 77.4979C219.985 77.6868 219.738 77.8475 219.43 77.9801C219.122 78.1127 218.746 78.179 218.301 78.179ZM218.48 77.125C218.944 77.125 219.336 77.0339 219.654 76.8516C219.975 76.6693 220.217 76.4339 220.38 76.1456C220.545 75.8572 220.628 75.554 220.628 75.2358V74.1619C220.578 74.2216 220.469 74.2763 220.3 74.326C220.134 74.3724 219.942 74.4138 219.723 74.4503C219.508 74.4834 219.297 74.5133 219.092 74.5398C218.89 74.563 218.726 74.5829 218.6 74.5994C218.295 74.6392 218.01 74.7038 217.745 74.7933C217.483 74.8795 217.271 75.0104 217.108 75.1861C216.949 75.3584 216.87 75.5937 216.87 75.892C216.87 76.2997 217.02 76.608 217.322 76.8168C217.627 77.0223 218.013 77.125 218.48 77.125ZM225.116 73.4062V78H223.943V70.3636H225.077V71.5568H225.176C225.355 71.169 225.627 70.8575 225.991 70.6222C226.356 70.3835 226.827 70.2642 227.403 70.2642C227.92 70.2642 228.373 70.3703 228.76 70.5824C229.148 70.7912 229.45 71.1094 229.665 71.5369C229.881 71.9612 229.988 72.4981 229.988 73.1477V78H228.815V73.2273C228.815 72.6274 228.659 72.16 228.348 71.8253C228.036 71.4872 227.609 71.3182 227.065 71.3182C226.691 71.3182 226.356 71.3994 226.061 71.5618C225.769 71.7242 225.539 71.9612 225.37 72.2727C225.201 72.5843 225.116 72.9621 225.116 73.4062ZM239.272 78.1591C238.536 78.1591 237.901 77.9967 237.368 77.6719C236.837 77.3438 236.428 76.8864 236.14 76.2997C235.855 75.7098 235.712 75.0237 235.712 74.2415C235.712 73.4593 235.855 72.7699 236.14 72.1733C236.428 71.5734 236.829 71.1061 237.343 70.7713C237.86 70.4332 238.463 70.2642 239.152 70.2642C239.55 70.2642 239.943 70.3305 240.331 70.4631C240.718 70.5956 241.071 70.8111 241.39 71.1094C241.708 71.4044 241.961 71.7955 242.15 72.2827C242.339 72.7699 242.434 73.3698 242.434 74.0824V74.5795H236.547V73.5653H241.24C241.24 73.1345 241.154 72.75 240.982 72.4119C240.813 72.0739 240.571 71.8071 240.256 71.6115C239.944 71.416 239.577 71.3182 239.152 71.3182C238.685 71.3182 238.281 71.4342 237.939 71.6662C237.601 71.8949 237.341 72.1932 237.159 72.5611C236.976 72.929 236.885 73.3234 236.885 73.7443V74.4205C236.885 74.9972 236.985 75.486 237.184 75.8871C237.386 76.2848 237.666 76.5881 238.024 76.7969C238.382 77.0024 238.798 77.1051 239.272 77.1051C239.58 77.1051 239.858 77.062 240.107 76.9759C240.359 76.8864 240.576 76.7538 240.758 76.5781C240.94 76.3991 241.081 76.1771 241.181 75.9119L242.314 76.2301C242.195 76.6146 241.994 76.9527 241.713 77.2443C241.431 77.5327 241.083 77.758 240.669 77.9205C240.254 78.0795 239.789 78.1591 239.272 78.1591ZM244.218 78V70.3636H245.352V71.517H245.431C245.571 71.1392 245.823 70.8326 246.187 70.5973C246.552 70.362 246.963 70.2443 247.42 70.2443C247.506 70.2443 247.614 70.246 247.743 70.2493C247.873 70.2526 247.97 70.2576 248.037 70.2642V71.4574C247.997 71.4474 247.906 71.4325 247.763 71.4126C247.624 71.3894 247.476 71.3778 247.321 71.3778C246.949 71.3778 246.618 71.4557 246.326 71.6115C246.038 71.764 245.809 71.9761 245.64 72.2479C245.475 72.5163 245.392 72.8229 245.392 73.1676V78H244.218ZM249.427 78V70.3636H250.561V71.517H250.64C250.78 71.1392 251.032 70.8326 251.396 70.5973C251.761 70.362 252.172 70.2443 252.629 70.2443C252.715 70.2443 252.823 70.246 252.952 70.2493C253.081 70.2526 253.179 70.2576 253.246 70.2642V71.4574C253.206 71.4474 253.115 71.4325 252.972 71.4126C252.833 71.3894 252.685 71.3778 252.53 71.3778C252.158 71.3778 251.827 71.4557 251.535 71.6115C251.247 71.764 251.018 71.9761 250.849 72.2479C250.684 72.5163 250.601 72.8229 250.601 73.1676V78H249.427ZM257.506 78.1591C256.817 78.1591 256.212 77.995 255.692 77.6669C255.175 77.3388 254.77 76.8797 254.479 76.2898C254.19 75.6998 254.046 75.0104 254.046 74.2216C254.046 73.4261 254.19 72.7318 254.479 72.1385C254.77 71.5452 255.175 71.0845 255.692 70.7564C256.212 70.4283 256.817 70.2642 257.506 70.2642C258.196 70.2642 258.799 70.4283 259.316 70.7564C259.836 71.0845 260.241 71.5452 260.529 72.1385C260.821 72.7318 260.966 73.4261 260.966 74.2216C260.966 75.0104 260.821 75.6998 260.529 76.2898C260.241 76.8797 259.836 77.3388 259.316 77.6669C258.799 77.995 258.196 78.1591 257.506 78.1591ZM257.506 77.1051C258.03 77.1051 258.461 76.9709 258.799 76.7024C259.137 76.4339 259.387 76.081 259.55 75.6435C259.712 75.206 259.793 74.732 259.793 74.2216C259.793 73.7112 259.712 73.2356 259.55 72.7947C259.387 72.3539 259.137 71.9976 258.799 71.7259C258.461 71.4541 258.03 71.3182 257.506 71.3182C256.983 71.3182 256.552 71.4541 256.214 71.7259C255.876 71.9976 255.625 72.3539 255.463 72.7947C255.3 73.2356 255.219 73.7112 255.219 74.2216C255.219 74.732 255.3 75.206 255.463 75.6435C255.625 76.081 255.876 76.4339 256.214 76.7024C256.552 76.9709 256.983 77.1051 257.506 77.1051ZM262.757 78V70.3636H263.891V71.517H263.971C264.11 71.1392 264.362 70.8326 264.726 70.5973C265.091 70.362 265.502 70.2443 265.959 70.2443C266.045 70.2443 266.153 70.246 266.282 70.2493C266.412 70.2526 266.509 70.2576 266.576 70.2642V71.4574C266.536 71.4474 266.445 71.4325 266.302 71.4126C266.163 71.3894 266.016 71.3778 265.86 71.3778C265.489 71.3778 265.157 71.4557 264.865 71.6115C264.577 71.764 264.348 71.9761 264.179 72.2479C264.014 72.5163 263.931 72.8229 263.931 73.1676V78H262.757ZM276.716 74.8778V70.3636H277.89V78H276.716V76.7074H276.637C276.458 77.0952 276.18 77.425 275.802 77.6967C275.424 77.9652 274.947 78.0994 274.37 78.0994C273.893 78.0994 273.468 77.995 273.097 77.7862C272.726 77.5741 272.434 77.2559 272.222 76.8317C272.01 76.4041 271.904 75.8655 271.904 75.2159V70.3636H273.077V75.1364C273.077 75.6932 273.233 76.1373 273.545 76.4688C273.859 76.8002 274.26 76.9659 274.748 76.9659C275.039 76.9659 275.336 76.8913 275.638 76.7422C275.943 76.593 276.198 76.3643 276.403 76.0561C276.612 75.7479 276.716 75.3551 276.716 74.8778ZM280.039 80.8636V70.3636H281.172V71.5767H281.311C281.398 71.4441 281.517 71.2751 281.669 71.0696C281.825 70.8608 282.047 70.6752 282.336 70.5128C282.627 70.3471 283.022 70.2642 283.519 70.2642C284.162 70.2642 284.729 70.425 285.219 70.7464C285.71 71.0679 286.092 71.5237 286.368 72.1136C286.643 72.7036 286.78 73.3996 286.78 74.2017C286.78 75.0104 286.643 75.7114 286.368 76.3047C286.092 76.8946 285.711 77.352 285.224 77.6768C284.737 77.9983 284.175 78.1591 283.539 78.1591C283.048 78.1591 282.655 78.0779 282.36 77.9155C282.065 77.7498 281.838 77.5625 281.679 77.3537C281.52 77.1416 281.398 76.9659 281.311 76.8267H281.212V80.8636H280.039ZM281.192 74.1818C281.192 74.7585 281.277 75.2673 281.446 75.7081C281.615 76.1456 281.862 76.4886 282.186 76.7372C282.511 76.9825 282.909 77.1051 283.38 77.1051C283.87 77.1051 284.279 76.9759 284.608 76.7173C284.939 76.4555 285.188 76.1042 285.353 75.6634C285.522 75.2192 285.607 74.7254 285.607 74.1818C285.607 73.6449 285.524 73.161 285.358 72.7301C285.196 72.2959 284.949 71.9529 284.618 71.701C284.289 71.4458 283.877 71.3182 283.38 71.3182C282.902 71.3182 282.501 71.4392 282.176 71.6811C281.852 71.9197 281.606 72.2545 281.441 72.6854C281.275 73.1129 281.192 73.6117 281.192 74.1818ZM291.453 78.1591C290.817 78.1591 290.255 77.9983 289.768 77.6768C289.281 77.352 288.9 76.8946 288.625 76.3047C288.35 75.7114 288.212 75.0104 288.212 74.2017C288.212 73.3996 288.35 72.7036 288.625 72.1136C288.9 71.5237 289.283 71.0679 289.773 70.7464C290.264 70.425 290.83 70.2642 291.473 70.2642C291.971 70.2642 292.363 70.3471 292.652 70.5128C292.943 70.6752 293.165 70.8608 293.318 71.0696C293.474 71.2751 293.595 71.4441 293.681 71.5767H293.78V67.8182H294.953V78H293.82V76.8267H293.681C293.595 76.9659 293.472 77.1416 293.313 77.3537C293.154 77.5625 292.927 77.7498 292.632 77.9155C292.337 78.0779 291.944 78.1591 291.453 78.1591ZM291.613 77.1051C292.083 77.1051 292.481 76.9825 292.806 76.7372C293.131 76.4886 293.377 76.1456 293.547 75.7081C293.716 75.2673 293.8 74.7585 293.8 74.1818C293.8 73.6117 293.717 73.1129 293.551 72.6854C293.386 72.2545 293.141 71.9197 292.816 71.6811C292.491 71.4392 292.09 71.3182 291.613 71.3182C291.115 71.3182 290.701 71.4458 290.37 71.701C290.042 71.9529 289.795 72.2959 289.629 72.7301C289.467 73.161 289.385 73.6449 289.385 74.1818C289.385 74.7254 289.468 75.2192 289.634 75.6634C289.803 76.1042 290.051 76.4555 290.38 76.7173C290.711 76.9759 291.122 77.1051 291.613 77.1051ZM299.512 78.179C299.029 78.179 298.589 78.0878 298.195 77.9055C297.801 77.7199 297.487 77.4531 297.255 77.1051C297.023 76.7538 296.907 76.3295 296.907 75.8324C296.907 75.3949 296.993 75.0402 297.166 74.7685C297.338 74.4934 297.569 74.2779 297.857 74.1222C298.145 73.9664 298.463 73.8504 298.811 73.7741C299.163 73.6946 299.516 73.6316 299.87 73.5852C300.334 73.5256 300.711 73.4808 300.999 73.451C301.291 73.4179 301.503 73.3632 301.635 73.2869C301.771 73.2107 301.839 73.0781 301.839 72.8892V72.8494C301.839 72.3589 301.705 71.9777 301.436 71.706C301.171 71.4342 300.769 71.2983 300.228 71.2983C299.668 71.2983 299.229 71.4209 298.911 71.6662C298.593 71.9115 298.369 72.1733 298.24 72.4517L297.126 72.054C297.325 71.59 297.59 71.2287 297.922 70.9702C298.256 70.7083 298.621 70.526 299.015 70.4233C299.413 70.3172 299.804 70.2642 300.189 70.2642C300.434 70.2642 300.716 70.294 301.034 70.3537C301.355 70.41 301.665 70.5277 301.963 70.7067C302.265 70.8857 302.515 71.1558 302.714 71.517C302.913 71.8783 303.012 72.3622 303.012 72.9688V78H301.839V76.9659H301.779C301.7 77.1316 301.567 77.3089 301.382 77.4979C301.196 77.6868 300.949 77.8475 300.641 77.9801C300.333 78.1127 299.957 78.179 299.512 78.179ZM299.691 77.125C300.155 77.125 300.547 77.0339 300.865 76.8516C301.186 76.6693 301.428 76.4339 301.591 76.1456C301.756 75.8572 301.839 75.554 301.839 75.2358V74.1619C301.789 74.2216 301.68 74.2763 301.511 74.326C301.345 74.3724 301.153 74.4138 300.934 74.4503C300.719 74.4834 300.508 74.5133 300.303 74.5398C300.101 74.563 299.937 74.5829 299.811 74.5994C299.506 74.6392 299.221 74.7038 298.956 74.7933C298.694 74.8795 298.482 75.0104 298.319 75.1861C298.16 75.3584 298.081 75.5937 298.081 75.892C298.081 76.2997 298.231 76.608 298.533 76.8168C298.838 77.0223 299.224 77.125 299.691 77.125ZM308.475 70.3636V71.358H304.518V70.3636H308.475ZM305.671 68.5341H306.844V75.8125C306.844 76.1439 306.892 76.3925 306.988 76.5582C307.088 76.7206 307.214 76.83 307.366 76.8864C307.522 76.9394 307.686 76.9659 307.858 76.9659C307.988 76.9659 308.094 76.9593 308.177 76.946C308.26 76.9295 308.326 76.9162 308.376 76.9062L308.614 77.9602C308.535 77.9901 308.424 78.0199 308.281 78.0497C308.139 78.0829 307.958 78.0994 307.739 78.0994C307.408 78.0994 307.083 78.0282 306.765 77.8857C306.45 77.7431 306.188 77.526 305.979 77.2344C305.774 76.9427 305.671 76.5748 305.671 76.1307V68.5341ZM310.24 78V70.3636H311.413V78H310.24ZM310.836 69.0909C310.608 69.0909 310.411 69.013 310.245 68.8572C310.082 68.7015 310.001 68.5142 310.001 68.2955C310.001 68.0767 310.082 67.8894 310.245 67.7337C310.411 67.5779 310.608 67.5 310.836 67.5C311.065 67.5 311.261 67.5779 311.423 67.7337C311.589 67.8894 311.672 68.0767 311.672 68.2955C311.672 68.5142 311.589 68.7015 311.423 68.8572C311.261 69.013 311.065 69.0909 310.836 69.0909ZM314.735 73.4062V78H313.562V70.3636H314.696V71.5568H314.795C314.974 71.169 315.246 70.8575 315.61 70.6222C315.975 70.3835 316.446 70.2642 317.022 70.2642C317.539 70.2642 317.992 70.3703 318.38 70.5824C318.767 70.7912 319.069 71.1094 319.284 71.5369C319.5 71.9612 319.608 72.4981 319.608 73.1477V78H318.434V73.2273C318.434 72.6274 318.279 72.16 317.967 71.8253C317.655 71.4872 317.228 71.3182 316.684 71.3182C316.31 71.3182 315.975 71.3994 315.68 71.5618C315.388 71.7242 315.158 71.9612 314.989 72.2727C314.82 72.5843 314.735 72.9621 314.735 73.4062ZM324.834 81.0227C324.267 81.0227 323.78 80.9498 323.372 80.804C322.965 80.6615 322.625 80.4725 322.353 80.2372C322.085 80.0052 321.871 79.7566 321.712 79.4915L322.646 78.8352C322.753 78.9744 322.887 79.1335 323.049 79.3125C323.212 79.4948 323.434 79.6522 323.715 79.7848C324 79.9207 324.373 79.9886 324.834 79.9886C325.45 79.9886 325.959 79.8395 326.36 79.5412C326.761 79.2429 326.962 78.7756 326.962 78.1392V76.5881H326.862C326.776 76.7273 326.654 76.8996 326.494 77.1051C326.339 77.3073 326.113 77.4879 325.818 77.647C325.527 77.8028 325.132 77.8807 324.635 77.8807C324.019 77.8807 323.465 77.7348 322.975 77.4432C322.487 77.1515 322.101 76.7273 321.816 76.1705C321.535 75.6136 321.394 74.9375 321.394 74.142C321.394 73.3598 321.531 72.6787 321.806 72.0987C322.081 71.5154 322.464 71.0646 322.955 70.7464C323.445 70.425 324.012 70.2642 324.655 70.2642C325.152 70.2642 325.547 70.3471 325.838 70.5128C326.133 70.6752 326.359 70.8608 326.514 71.0696C326.673 71.2751 326.796 71.4441 326.882 71.5767H327.002V70.3636H328.135V78.2188C328.135 78.875 327.986 79.4086 327.688 79.8196C327.393 80.2339 326.995 80.5372 326.494 80.7294C325.997 80.925 325.444 81.0227 324.834 81.0227ZM324.794 76.8267C325.265 76.8267 325.663 76.719 325.987 76.5036C326.312 76.2881 326.559 75.9782 326.728 75.5739C326.897 75.1695 326.982 74.6856 326.982 74.1222C326.982 73.572 326.899 73.0864 326.733 72.6655C326.567 72.2446 326.322 71.9148 325.997 71.6761C325.673 71.4375 325.271 71.3182 324.794 71.3182C324.297 71.3182 323.883 71.4441 323.551 71.696C323.223 71.9479 322.976 72.286 322.811 72.7102C322.648 73.1345 322.567 73.6051 322.567 74.1222C322.567 74.6525 322.65 75.1214 322.816 75.5291C322.985 75.9335 323.233 76.2517 323.561 76.4837C323.893 76.7124 324.304 76.8267 324.794 76.8267ZM334.379 67.8182H335.851L339.311 76.2699H339.431L342.891 67.8182H344.362V78H343.209V70.2642H343.11L339.928 78H338.814L335.632 70.2642H335.533V78H334.379V67.8182ZM349.877 78.1591C349.141 78.1591 348.507 77.9967 347.973 77.6719C347.443 77.3438 347.033 76.8864 346.745 76.2997C346.46 75.7098 346.317 75.0237 346.317 74.2415C346.317 73.4593 346.46 72.7699 346.745 72.1733C347.033 71.5734 347.434 71.1061 347.948 70.7713C348.465 70.4332 349.068 70.2642 349.758 70.2642C350.156 70.2642 350.548 70.3305 350.936 70.4631C351.324 70.5956 351.677 70.8111 351.995 71.1094C352.313 71.4044 352.567 71.7955 352.756 72.2827C352.945 72.7699 353.039 73.3698 353.039 74.0824V74.5795H347.153V73.5653H351.846C351.846 73.1345 351.76 72.75 351.587 72.4119C351.418 72.0739 351.176 71.8071 350.862 71.6115C350.55 71.416 350.182 71.3182 349.758 71.3182C349.29 71.3182 348.886 71.4342 348.545 71.6662C348.207 71.8949 347.946 72.1932 347.764 72.5611C347.582 72.929 347.491 73.3234 347.491 73.7443V74.4205C347.491 74.9972 347.59 75.486 347.789 75.8871C347.991 76.2848 348.271 76.5881 348.629 76.7969C348.987 77.0024 349.403 77.1051 349.877 77.1051C350.185 77.1051 350.464 77.062 350.712 76.9759C350.964 76.8864 351.181 76.7538 351.364 76.5781C351.546 76.3991 351.687 76.1771 351.786 75.9119L352.92 76.2301C352.8 76.6146 352.6 76.9527 352.318 77.2443C352.036 77.5327 351.688 77.758 351.274 77.9205C350.86 78.0795 350.394 78.1591 349.877 78.1591ZM357.707 78.1591C357.071 78.1591 356.509 77.9983 356.022 77.6768C355.535 77.352 355.154 76.8946 354.879 76.3047C354.603 75.7114 354.466 75.0104 354.466 74.2017C354.466 73.3996 354.603 72.7036 354.879 72.1136C355.154 71.5237 355.536 71.0679 356.027 70.7464C356.518 70.425 357.084 70.2642 357.727 70.2642C358.224 70.2642 358.617 70.3471 358.906 70.5128C359.197 70.6752 359.419 70.8608 359.572 71.0696C359.728 71.2751 359.848 71.4441 359.935 71.5767H360.034V67.8182H361.207V78H360.074V76.8267H359.935C359.848 76.9659 359.726 77.1416 359.567 77.3537C359.408 77.5625 359.181 77.7498 358.886 77.9155C358.591 78.0779 358.198 78.1591 357.707 78.1591ZM357.866 77.1051C358.337 77.1051 358.735 76.9825 359.06 76.7372C359.384 76.4886 359.631 76.1456 359.8 75.7081C359.969 75.2673 360.054 74.7585 360.054 74.1818C360.054 73.6117 359.971 73.1129 359.805 72.6854C359.64 72.2545 359.394 71.9197 359.07 71.6811C358.745 71.4392 358.344 71.3182 357.866 71.3182C357.369 71.3182 356.955 71.4458 356.624 71.701C356.295 71.9529 356.049 72.2959 355.883 72.7301C355.72 73.161 355.639 73.6449 355.639 74.1818C355.639 74.7254 355.722 75.2192 355.888 75.6634C356.057 76.1042 356.305 76.4555 356.634 76.7173C356.965 76.9759 357.376 77.1051 357.866 77.1051ZM363.519 78V70.3636H364.692V78H363.519ZM364.116 69.0909C363.887 69.0909 363.69 69.013 363.524 68.8572C363.362 68.7015 363.281 68.5142 363.281 68.2955C363.281 68.0767 363.362 67.8894 363.524 67.7337C363.69 67.5779 363.887 67.5 364.116 67.5C364.344 67.5 364.54 67.5779 364.702 67.7337C364.868 67.8894 364.951 68.0767 364.951 68.2955C364.951 68.5142 364.868 68.7015 364.702 68.8572C364.54 69.013 364.344 69.0909 364.116 69.0909ZM369.089 78.179C368.605 78.179 368.166 78.0878 367.771 77.9055C367.377 77.7199 367.064 77.4531 366.831 77.1051C366.599 76.7538 366.483 76.3295 366.483 75.8324C366.483 75.3949 366.57 75.0402 366.742 74.7685C366.914 74.4934 367.145 74.2779 367.433 74.1222C367.721 73.9664 368.04 73.8504 368.388 73.7741C368.739 73.6946 369.092 73.6316 369.447 73.5852C369.911 73.5256 370.287 73.4808 370.575 73.451C370.867 73.4179 371.079 73.3632 371.211 73.2869C371.347 73.2107 371.415 73.0781 371.415 72.8892V72.8494C371.415 72.3589 371.281 71.9777 371.013 71.706C370.747 71.4342 370.345 71.2983 369.805 71.2983C369.244 71.2983 368.805 71.4209 368.487 71.6662C368.169 71.9115 367.945 72.1733 367.816 72.4517L366.702 72.054C366.901 71.59 367.166 71.2287 367.498 70.9702C367.832 70.7083 368.197 70.526 368.591 70.4233C368.989 70.3172 369.38 70.2642 369.765 70.2642C370.01 70.2642 370.292 70.294 370.61 70.3537C370.931 70.41 371.241 70.5277 371.54 70.7067C371.841 70.8857 372.091 71.1558 372.29 71.517C372.489 71.8783 372.589 72.3622 372.589 72.9688V78H371.415V76.9659H371.356C371.276 77.1316 371.144 77.3089 370.958 77.4979C370.772 77.6868 370.525 77.8475 370.217 77.9801C369.909 78.1127 369.533 78.179 369.089 78.179ZM369.268 77.125C369.732 77.125 370.123 77.0339 370.441 76.8516C370.762 76.6693 371.004 76.4339 371.167 76.1456C371.332 75.8572 371.415 75.554 371.415 75.2358V74.1619C371.366 74.2216 371.256 74.2763 371.087 74.326C370.921 74.3724 370.729 74.4138 370.51 74.4503C370.295 74.4834 370.085 74.5133 369.879 74.5398C369.677 74.563 369.513 74.5829 369.387 74.5994C369.082 74.6392 368.797 74.7038 368.532 74.7933C368.27 74.8795 368.058 75.0104 367.895 75.1861C367.736 75.3584 367.657 75.5937 367.657 75.892C367.657 76.2997 367.808 76.608 368.109 76.8168C368.414 77.0223 368.8 77.125 369.268 77.125ZM378.827 78V67.8182H380V71.5767H380.099C380.186 71.4441 380.305 71.2751 380.457 71.0696C380.613 70.8608 380.835 70.6752 381.124 70.5128C381.415 70.3471 381.81 70.2642 382.307 70.2642C382.95 70.2642 383.517 70.425 384.007 70.7464C384.498 71.0679 384.88 71.5237 385.156 72.1136C385.431 72.7036 385.568 73.3996 385.568 74.2017C385.568 75.0104 385.431 75.7114 385.156 76.3047C384.88 76.8946 384.499 77.352 384.012 77.6768C383.525 77.9983 382.963 78.1591 382.327 78.1591C381.836 78.1591 381.443 78.0779 381.148 77.9155C380.853 77.7498 380.626 77.5625 380.467 77.3537C380.308 77.1416 380.186 76.9659 380.099 76.8267H379.96V78H378.827ZM379.98 74.1818C379.98 74.7585 380.065 75.2673 380.234 75.7081C380.403 76.1456 380.65 76.4886 380.974 76.7372C381.299 76.9825 381.697 77.1051 382.168 77.1051C382.658 77.1051 383.067 76.9759 383.396 76.7173C383.727 76.4555 383.976 76.1042 384.141 75.6634C384.31 75.2192 384.395 74.7254 384.395 74.1818C384.395 73.6449 384.312 73.161 384.146 72.7301C383.984 72.2959 383.737 71.9529 383.406 71.701C383.077 71.4458 382.665 71.3182 382.168 71.3182C381.69 71.3182 381.289 71.4392 380.964 71.6811C380.64 71.9197 380.394 72.2545 380.229 72.6854C380.063 73.1129 379.98 73.6117 379.98 74.1818ZM392.175 74.8778V70.3636H393.349V78H392.175V76.7074H392.096C391.917 77.0952 391.638 77.425 391.261 77.6967C390.883 77.9652 390.406 78.0994 389.829 78.0994C389.352 78.0994 388.927 77.995 388.556 77.7862C388.185 77.5741 387.893 77.2559 387.681 76.8317C387.469 76.4041 387.363 75.8655 387.363 75.2159V70.3636H388.536V75.1364C388.536 75.6932 388.692 76.1373 389.004 76.4688C389.318 76.8002 389.719 76.9659 390.207 76.9659C390.498 76.9659 390.795 76.8913 391.097 76.7422C391.402 76.593 391.657 76.3643 391.862 76.0561C392.071 75.7479 392.175 75.3551 392.175 74.8778ZM398.6 78.1591C397.884 78.1591 397.268 77.9901 396.751 77.652C396.233 77.3139 395.836 76.8482 395.557 76.255C395.279 75.6617 395.14 74.9839 395.14 74.2216C395.14 73.446 395.282 72.7616 395.567 72.1683C395.856 71.5717 396.257 71.1061 396.77 70.7713C397.287 70.4332 397.891 70.2642 398.58 70.2642C399.117 70.2642 399.601 70.3636 400.032 70.5625C400.463 70.7614 400.816 71.0398 401.091 71.3977C401.366 71.7557 401.537 72.1733 401.603 72.6506H400.43C400.34 72.3026 400.141 71.9943 399.833 71.7259C399.528 71.4541 399.117 71.3182 398.6 71.3182C398.143 71.3182 397.742 71.4375 397.397 71.6761C397.055 71.9115 396.789 72.2446 396.596 72.6754C396.407 73.103 396.313 73.6051 396.313 74.1818C396.313 74.7718 396.406 75.2855 396.591 75.723C396.78 76.1605 397.046 76.5002 397.387 76.7422C397.732 76.9841 398.136 77.1051 398.6 77.1051C398.905 77.1051 399.182 77.0521 399.43 76.946C399.679 76.84 399.889 76.6875 400.062 76.4886C400.234 76.2898 400.357 76.0511 400.43 75.7727H401.603C401.537 76.2235 401.372 76.6295 401.111 76.9908C400.852 77.3487 400.509 77.6338 400.081 77.8459C399.657 78.0547 399.163 78.1591 398.6 78.1591ZM404.412 75.2159L404.392 73.7642H404.631L407.971 70.3636H409.423L405.863 73.9631H405.764L404.412 75.2159ZM403.318 78V67.8182H404.491V78H403.318ZM408.17 78L405.187 74.2216L406.023 73.4062L409.662 78H408.17ZM413.82 78.1591C413.085 78.1591 412.45 77.9967 411.916 77.6719C411.386 77.3438 410.977 76.8864 410.688 76.2997C410.403 75.7098 410.261 75.0237 410.261 74.2415C410.261 73.4593 410.403 72.7699 410.688 72.1733C410.977 71.5734 411.378 71.1061 411.892 70.7713C412.409 70.4332 413.012 70.2642 413.701 70.2642C414.099 70.2642 414.492 70.3305 414.879 70.4631C415.267 70.5956 415.62 70.8111 415.938 71.1094C416.257 71.4044 416.51 71.7955 416.699 72.2827C416.888 72.7699 416.982 73.3698 416.982 74.0824V74.5795H411.096V73.5653H415.789C415.789 73.1345 415.703 72.75 415.531 72.4119C415.362 72.0739 415.12 71.8071 414.805 71.6115C414.493 71.416 414.125 71.3182 413.701 71.3182C413.234 71.3182 412.829 71.4342 412.488 71.6662C412.15 71.8949 411.89 72.1932 411.708 72.5611C411.525 72.929 411.434 73.3234 411.434 73.7443V74.4205C411.434 74.9972 411.534 75.486 411.732 75.8871C411.935 76.2848 412.215 76.5881 412.573 76.7969C412.931 77.0024 413.347 77.1051 413.82 77.1051C414.129 77.1051 414.407 77.062 414.656 76.9759C414.908 76.8864 415.125 76.7538 415.307 76.5781C415.489 76.3991 415.63 76.1771 415.73 75.9119L416.863 76.2301C416.744 76.6146 416.543 76.9527 416.262 77.2443C415.98 77.5327 415.632 77.758 415.218 77.9205C414.803 78.0795 414.338 78.1591 413.82 78.1591ZM422.088 70.3636V71.358H418.131V70.3636H422.088ZM419.284 68.5341H420.458V75.8125C420.458 76.1439 420.506 76.3925 420.602 76.5582C420.701 76.7206 420.827 76.83 420.98 76.8864C421.135 76.9394 421.299 76.9659 421.472 76.9659C421.601 76.9659 421.707 76.9593 421.79 76.946C421.873 76.9295 421.939 76.9162 421.989 76.9062L422.227 77.9602C422.148 77.9901 422.037 78.0199 421.894 78.0497C421.752 78.0829 421.571 78.0994 421.352 78.0994C421.021 78.0994 420.696 78.0282 420.378 77.8857C420.063 77.7431 419.801 77.526 419.593 77.2344C419.387 76.9427 419.284 76.5748 419.284 76.1307V68.5341Z" fill="#FCFCFF"/>
<path d="M142.557 106.364V104.818H150.68V106.364H147.533V115H145.704V106.364H142.557ZM151.374 115V107.364H153.119V108.636H153.199C153.338 108.196 153.576 107.856 153.914 107.617C154.256 107.375 154.645 107.254 155.083 107.254C155.182 107.254 155.293 107.259 155.416 107.269C155.542 107.276 155.646 107.287 155.729 107.304V108.96C155.653 108.933 155.532 108.91 155.366 108.89C155.204 108.867 155.046 108.855 154.894 108.855C154.566 108.855 154.271 108.926 154.009 109.069C153.75 109.208 153.547 109.402 153.397 109.651C153.248 109.899 153.174 110.186 153.174 110.511V115H151.374ZM158.276 117.864C158.03 117.864 157.803 117.844 157.595 117.804C157.389 117.768 157.225 117.724 157.102 117.675L157.52 116.273C157.782 116.349 158.016 116.385 158.221 116.382C158.427 116.379 158.607 116.314 158.763 116.188C158.922 116.066 159.056 115.86 159.166 115.572L159.32 115.159L156.551 107.364H158.46L160.22 113.131H160.299L162.064 107.364H163.978L160.921 115.925C160.778 116.329 160.589 116.675 160.354 116.964C160.119 117.255 159.83 117.478 159.489 117.63C159.151 117.786 158.746 117.864 158.276 117.864ZM170.894 115.154C170.41 115.154 169.974 115.068 169.586 114.896C169.202 114.72 168.897 114.461 168.671 114.12C168.449 113.779 168.338 113.358 168.338 112.857C168.338 112.426 168.418 112.07 168.577 111.788C168.736 111.507 168.953 111.281 169.228 111.112C169.503 110.943 169.813 110.816 170.158 110.729C170.506 110.64 170.865 110.575 171.237 110.536C171.684 110.489 172.047 110.448 172.325 110.411C172.604 110.371 172.806 110.312 172.932 110.232C173.061 110.149 173.126 110.022 173.126 109.849V109.82C173.126 109.445 173.015 109.155 172.793 108.95C172.571 108.744 172.251 108.641 171.833 108.641C171.392 108.641 171.043 108.737 170.784 108.93C170.529 109.122 170.357 109.349 170.267 109.611L168.587 109.372C168.719 108.908 168.938 108.52 169.243 108.209C169.548 107.894 169.921 107.659 170.362 107.503C170.802 107.344 171.29 107.264 171.823 107.264C172.191 107.264 172.557 107.307 172.922 107.393C173.287 107.48 173.62 107.622 173.921 107.821C174.223 108.017 174.465 108.283 174.647 108.621C174.833 108.96 174.926 109.382 174.926 109.889V115H173.195V113.951H173.136C173.026 114.163 172.872 114.362 172.673 114.548C172.478 114.73 172.231 114.877 171.933 114.99C171.638 115.099 171.291 115.154 170.894 115.154ZM171.361 113.832C171.722 113.832 172.035 113.76 172.301 113.618C172.566 113.472 172.77 113.28 172.912 113.041C173.058 112.803 173.131 112.542 173.131 112.261V111.361C173.075 111.407 172.978 111.45 172.843 111.49C172.71 111.53 172.561 111.565 172.395 111.594C172.229 111.624 172.065 111.651 171.903 111.674C171.74 111.697 171.6 111.717 171.48 111.734C171.212 111.77 170.972 111.83 170.759 111.913C170.547 111.996 170.38 112.112 170.257 112.261C170.135 112.406 170.073 112.595 170.073 112.827C170.073 113.159 170.194 113.409 170.436 113.578C170.678 113.747 170.986 113.832 171.361 113.832ZM180.056 118.023C179.41 118.023 178.855 117.935 178.391 117.759C177.927 117.587 177.554 117.355 177.272 117.063C176.99 116.772 176.795 116.448 176.686 116.094L178.306 115.701C178.379 115.85 178.485 115.998 178.624 116.143C178.764 116.293 178.951 116.415 179.186 116.511C179.425 116.611 179.725 116.661 180.086 116.661C180.597 116.661 181.019 116.536 181.354 116.288C181.689 116.042 181.856 115.638 181.856 115.075V113.628H181.767C181.674 113.813 181.538 114.004 181.359 114.2C181.183 114.395 180.95 114.559 180.658 114.692C180.369 114.824 180.007 114.891 179.569 114.891C178.982 114.891 178.45 114.753 177.973 114.478C177.499 114.2 177.121 113.785 176.84 113.235C176.561 112.682 176.422 111.989 176.422 111.157C176.422 110.318 176.561 109.611 176.84 109.034C177.121 108.454 177.501 108.015 177.978 107.717C178.455 107.415 178.987 107.264 179.574 107.264C180.021 107.264 180.389 107.34 180.678 107.493C180.969 107.642 181.201 107.823 181.374 108.035C181.546 108.244 181.677 108.441 181.767 108.626H181.866V107.364H183.641V115.124C183.641 115.777 183.485 116.317 183.173 116.745C182.862 117.173 182.436 117.492 181.896 117.705C181.356 117.917 180.742 118.023 180.056 118.023ZM180.071 113.479C180.452 113.479 180.777 113.386 181.046 113.2C181.314 113.015 181.518 112.748 181.657 112.4C181.796 112.052 181.866 111.634 181.866 111.147C181.866 110.666 181.796 110.246 181.657 109.884C181.521 109.523 181.319 109.243 181.051 109.044C180.785 108.842 180.459 108.741 180.071 108.741C179.67 108.741 179.335 108.845 179.067 109.054C178.798 109.263 178.596 109.549 178.46 109.914C178.325 110.275 178.257 110.686 178.257 111.147C178.257 111.614 178.325 112.024 178.46 112.375C178.6 112.723 178.803 112.995 179.072 113.19C179.344 113.383 179.677 113.479 180.071 113.479ZM187.683 115.154C187.199 115.154 186.763 115.068 186.375 114.896C185.991 114.72 185.686 114.461 185.46 114.12C185.238 113.779 185.127 113.358 185.127 112.857C185.127 112.426 185.207 112.07 185.366 111.788C185.525 111.507 185.742 111.281 186.017 111.112C186.292 110.943 186.602 110.816 186.947 110.729C187.295 110.64 187.655 110.575 188.026 110.536C188.473 110.489 188.836 110.448 189.115 110.411C189.393 110.371 189.595 110.312 189.721 110.232C189.85 110.149 189.915 110.022 189.915 109.849V109.82C189.915 109.445 189.804 109.155 189.582 108.95C189.36 108.744 189.04 108.641 188.622 108.641C188.182 108.641 187.832 108.737 187.573 108.93C187.318 109.122 187.146 109.349 187.056 109.611L185.376 109.372C185.508 108.908 185.727 108.52 186.032 108.209C186.337 107.894 186.71 107.659 187.151 107.503C187.592 107.344 188.079 107.264 188.612 107.264C188.98 107.264 189.347 107.307 189.711 107.393C190.076 107.48 190.409 107.622 190.71 107.821C191.012 108.017 191.254 108.283 191.436 108.621C191.622 108.96 191.715 109.382 191.715 109.889V115H189.985V113.951H189.925C189.816 114.163 189.661 114.362 189.463 114.548C189.267 114.73 189.02 114.877 188.722 114.99C188.427 115.099 188.08 115.154 187.683 115.154ZM188.15 113.832C188.511 113.832 188.825 113.76 189.09 113.618C189.355 113.472 189.559 113.28 189.701 113.041C189.847 112.803 189.92 112.542 189.92 112.261V111.361C189.864 111.407 189.767 111.45 189.632 111.49C189.499 111.53 189.35 111.565 189.184 111.594C189.018 111.624 188.854 111.651 188.692 111.674C188.53 111.697 188.389 111.717 188.269 111.734C188.001 111.77 187.761 111.83 187.548 111.913C187.336 111.996 187.169 112.112 187.046 112.261C186.924 112.406 186.862 112.595 186.862 112.827C186.862 113.159 186.983 113.409 187.225 113.578C187.467 113.747 187.776 113.832 188.15 113.832ZM193.524 115V107.364H195.324V115H193.524ZM194.429 106.28C194.144 106.28 193.899 106.185 193.693 105.996C193.488 105.804 193.385 105.574 193.385 105.305C193.385 105.034 193.488 104.803 193.693 104.614C193.899 104.422 194.144 104.326 194.429 104.326C194.718 104.326 194.963 104.422 195.165 104.614C195.37 104.803 195.473 105.034 195.473 105.305C195.473 105.574 195.37 105.804 195.165 105.996C194.963 106.185 194.718 106.28 194.429 106.28ZM198.974 110.526V115H197.175V107.364H198.895V108.661H198.984C199.16 108.234 199.44 107.894 199.825 107.642C200.212 107.39 200.691 107.264 201.261 107.264C201.788 107.264 202.247 107.377 202.638 107.602C203.033 107.828 203.338 108.154 203.553 108.582C203.772 109.009 203.88 109.528 203.876 110.138V115H202.077V110.416C202.077 109.906 201.944 109.506 201.679 109.218C201.417 108.93 201.054 108.786 200.59 108.786C200.275 108.786 199.995 108.855 199.75 108.994C199.508 109.13 199.317 109.327 199.178 109.586C199.042 109.844 198.974 110.158 198.974 110.526Z" fill="#F2F2F8"/>
<path d="M463 77L473 67M463 67L473 77" stroke="#C4C6D7" stroke-width="1.67" stroke-linecap="round" stroke-linejoin="round"/>
<rect x="54.5" y="46.5" width="439" height="89" rx="3.5" stroke="#373B4D"/>
</g>
</g>
<rect x="0.5" y="0.5" width="469" height="180" rx="16.5" stroke="#282A3B"/>
<defs>
<filter id="filter0_d_1154_70193" x="22" y="30" width="504" height="154" filterUnits="userSpaceOnUse" color-interpolation-filters="sRGB">
<feFlood flood-opacity="0" result="BackgroundImageFix"/>
<feColorMatrix in="SourceAlpha" type="matrix" values="0 0 0 0 0 0 0 0 0 0 0 0 0 0 0 0 0 0 127 0" result="hardAlpha"/>
<feOffset dy="16"/>
<feGaussianBlur stdDeviation="16"/>
<feColorMatrix type="matrix" values="0 0 0 0 0.215686 0 0 0 0 0.231373 0 0 0 0 0.301961 0 0 0 0.04 0"/>
<feBlend mode="normal" in2="BackgroundImageFix" result="effect1_dropShadow_1154_70193"/>
<feBlend mode="normal" in="SourceGraphic" in2="effect1_dropShadow_1154_70193" result="shape"/>
</filter>
<clipPath id="clip0_1154_70193">
<rect x="1" y="1" width="468" height="179" rx="16" fill="white"/>
</clipPath>
</defs>
</svg>
