<svg width="470" height="172" viewBox="0 0 470 172" fill="none" xmlns="http://www.w3.org/2000/svg">
<g clip-path="url(#clip0_1158_72713)">
<rect x="1" y="1" width="567" height="393" rx="16" fill="#FCFCFF"/>
<g clip-path="url(#clip1_1158_72713)">
<rect width="1725" height="1037" transform="translate(-359 -385)" fill="#14141F"/>
<rect x="25" y="78.1299" width="288" height="1" fill="#282A3B"/>
<path d="M25 41C25 32.1635 32.1634 25 41 25H313V78.2603H25V41Z" fill="#1B1B28"/>
<path d="M65.0028 46.9031V55.6304H63.7926L59.3565 49.2298H59.2756V55.6304H57.9588V46.9031H59.1776L63.6179 53.3122H63.6989V46.9031H65.0028ZM69.1009 55.6304H67.7031L70.8438 46.9031H72.3651L75.5057 55.6304H74.108L71.6406 48.4883H71.5725L69.1009 55.6304ZM69.3352 52.2128H73.8693V53.3207H69.3352V52.2128ZM78.206 46.9031H79.804L82.5824 53.6872H82.6847L85.4631 46.9031H87.0611V55.6304H85.8083V49.315H85.7273L83.1534 55.6176H82.1137L79.5398 49.3108H79.4588V55.6304H78.206V46.9031ZM90.4155 55.6304V46.9031H95.8871V48.0366H91.7323V50.6957H95.6016V51.825H91.7323V54.4968H95.9383V55.6304H90.4155Z" fill="#C4C6D7"/>
<rect x="25" y="158.05" width="288" height="1" fill="#282A3B"/>
<rect width="288" height="79.1011" transform="translate(25 79)" fill="#1B1B28"/>
<g clip-path="url(#clip2_1158_72713)">
<rect x="57" y="102.551" width="32" height="32" rx="16" fill="#A1C4FF"/>
<path d="M62.3045 122.551V113.824H65.5005C66.1199 113.824 66.6326 113.926 67.0389 114.13C67.4451 114.332 67.7491 114.606 67.9508 114.953C68.1525 115.297 68.2534 115.684 68.2534 116.116C68.2534 116.48 68.1866 116.787 68.0531 117.037C67.9196 117.284 67.7406 117.483 67.5162 117.633C67.2946 117.781 67.0502 117.889 66.7832 117.957V118.042C67.073 118.056 67.3556 118.15 67.6312 118.324C67.9096 118.494 68.1397 118.737 68.3216 119.052C68.5034 119.368 68.5943 119.751 68.5943 120.203C68.5943 120.649 68.4892 121.049 68.2789 121.404C68.0716 121.757 67.7505 122.037 67.3159 122.244C66.8812 122.449 66.3258 122.551 65.6497 122.551H62.3045ZM63.6213 121.422H65.5218C66.1525 121.422 66.6042 121.299 66.877 121.055C67.1497 120.811 67.286 120.505 67.286 120.139C67.286 119.863 67.2164 119.61 67.0772 119.38C66.938 119.15 66.7392 118.967 66.4806 118.831C66.225 118.694 65.921 118.626 65.5687 118.626H63.6213V121.422ZM63.6213 117.599H65.3855C65.6809 117.599 65.9466 117.542 66.1824 117.429C66.421 117.315 66.6099 117.156 66.7491 116.951C66.8912 116.744 66.9622 116.5 66.9622 116.218C66.9622 115.858 66.8358 115.555 66.5829 115.311C66.3301 115.066 65.9423 114.944 65.4196 114.944H63.6213V117.599ZM74.916 116.116C74.8706 115.713 74.6831 115.4 74.3535 115.179C74.024 114.954 73.6092 114.842 73.1092 114.842C72.7512 114.842 72.4416 114.899 72.1802 115.012C71.9189 115.123 71.7157 115.277 71.5708 115.473C71.4288 115.666 71.3578 115.886 71.3578 116.133C71.3578 116.341 71.4061 116.52 71.5027 116.67C71.6021 116.821 71.7314 116.947 71.8904 117.049C72.0524 117.149 72.2257 117.233 72.4103 117.301C72.595 117.366 72.7725 117.42 72.943 117.463L73.7953 117.684C74.0737 117.752 74.3592 117.845 74.6518 117.961C74.9444 118.078 75.2157 118.231 75.4657 118.422C75.7157 118.612 75.9174 118.848 76.0708 119.129C76.2271 119.41 76.3052 119.747 76.3052 120.139C76.3052 120.633 76.1774 121.072 75.9217 121.456C75.6689 121.839 75.301 122.142 74.818 122.363C74.3379 122.585 73.7569 122.696 73.0751 122.696C72.4217 122.696 71.8564 122.592 71.3791 122.385C70.9018 122.177 70.5282 121.883 70.2583 121.502C69.9885 121.119 69.8393 120.664 69.8109 120.139H71.1319C71.1575 120.454 71.2598 120.717 71.4387 120.927C71.6206 121.135 71.8521 121.289 72.1333 121.392C72.4174 121.491 72.7285 121.541 73.0666 121.541C73.4387 121.541 73.7697 121.483 74.0595 121.366C74.3521 121.247 74.5822 121.082 74.7498 120.872C74.9174 120.659 75.0012 120.41 75.0012 120.126C75.0012 119.868 74.9274 119.656 74.7797 119.491C74.6348 119.326 74.4373 119.19 74.1873 119.082C73.9402 118.974 73.6603 118.879 73.3478 118.797L72.3166 118.515C71.6177 118.325 71.0637 118.045 70.6547 117.676C70.2484 117.306 70.0453 116.818 70.0453 116.21C70.0453 115.707 70.1816 115.268 70.4544 114.893C70.7271 114.518 71.0964 114.227 71.5623 114.02C72.0282 113.809 72.5538 113.704 73.139 113.704C73.7299 113.704 74.2512 113.808 74.7029 114.015C75.1575 114.223 75.5154 114.508 75.7768 114.872C76.0382 115.233 76.1745 115.647 76.1859 116.116H74.916ZM77.8787 122.551V113.824H80.9895C81.6657 113.824 82.2267 113.94 82.6728 114.173C83.1216 114.406 83.4569 114.728 83.6784 115.14C83.9 115.549 84.0108 116.022 84.0108 116.559C84.0108 117.093 83.8986 117.564 83.6742 117.97C83.4526 118.373 83.1174 118.687 82.6685 118.912C82.2225 119.136 81.6614 119.248 80.9853 119.248H78.6287V118.115H80.8659C81.2921 118.115 81.6387 118.054 81.9057 117.931C82.1756 117.809 82.373 117.632 82.498 117.399C82.623 117.166 82.6855 116.886 82.6855 116.559C82.6855 116.23 82.6216 115.944 82.4938 115.703C82.3688 115.461 82.1713 115.277 81.9015 115.149C81.6344 115.018 81.2836 114.953 80.8489 114.953H79.1955V122.551H77.8787ZM82.187 118.613L84.3432 122.551H82.8432L80.7296 118.613H82.187Z" fill="#373B4D"/>
</g>
<path d="M102.233 124.051V113.869H105.793C106.502 113.869 107.087 113.992 107.548 114.237C108.008 114.479 108.351 114.805 108.577 115.216C108.802 115.624 108.915 116.076 108.915 116.574C108.915 117.011 108.837 117.372 108.681 117.657C108.529 117.942 108.326 118.168 108.075 118.333C107.826 118.499 107.556 118.622 107.264 118.701V118.801C107.576 118.821 107.889 118.93 108.204 119.129C108.519 119.328 108.782 119.613 108.994 119.984C109.206 120.355 109.312 120.809 109.312 121.346C109.312 121.857 109.196 122.316 108.964 122.723C108.732 123.131 108.366 123.454 107.866 123.693C107.365 123.931 106.714 124.051 105.912 124.051H102.233ZM103.466 122.957H105.912C106.717 122.957 107.289 122.801 107.627 122.49C107.969 122.175 108.139 121.794 108.139 121.346C108.139 121.002 108.051 120.683 107.876 120.392C107.7 120.097 107.45 119.861 107.125 119.686C106.8 119.507 106.416 119.417 105.972 119.417H103.466V122.957ZM103.466 118.343H105.753C106.124 118.343 106.459 118.27 106.757 118.125C107.059 117.979 107.297 117.773 107.473 117.508C107.652 117.243 107.741 116.931 107.741 116.574C107.741 116.126 107.586 115.747 107.274 115.435C106.963 115.12 106.469 114.963 105.793 114.963H103.466V118.343ZM111.179 124.051V116.414H112.313V117.568H112.392C112.532 117.19 112.783 116.883 113.148 116.648C113.513 116.413 113.924 116.295 114.381 116.295C114.467 116.295 114.575 116.297 114.704 116.3C114.833 116.303 114.931 116.308 114.998 116.315V117.508C114.958 117.498 114.867 117.483 114.724 117.463C114.585 117.44 114.437 117.429 114.282 117.429C113.91 117.429 113.579 117.507 113.287 117.662C112.999 117.815 112.77 118.027 112.601 118.299C112.435 118.567 112.353 118.874 112.353 119.218V124.051H111.179ZM119.258 124.21C118.569 124.21 117.964 124.046 117.444 123.718C116.926 123.39 116.522 122.931 116.23 122.341C115.942 121.751 115.798 121.061 115.798 120.272C115.798 119.477 115.942 118.783 116.23 118.189C116.522 117.596 116.926 117.135 117.444 116.807C117.964 116.479 118.569 116.315 119.258 116.315C119.948 116.315 120.551 116.479 121.068 116.807C121.588 117.135 121.993 117.596 122.281 118.189C122.573 118.783 122.718 119.477 122.718 120.272C122.718 121.061 122.573 121.751 122.281 122.341C121.993 122.931 121.588 123.39 121.068 123.718C120.551 124.046 119.948 124.21 119.258 124.21ZM119.258 123.156C119.782 123.156 120.213 123.022 120.551 122.753C120.889 122.485 121.139 122.132 121.301 121.694C121.464 121.257 121.545 120.783 121.545 120.272C121.545 119.762 121.464 119.286 121.301 118.846C121.139 118.405 120.889 118.048 120.551 117.777C120.213 117.505 119.782 117.369 119.258 117.369C118.734 117.369 118.304 117.505 117.966 117.777C117.627 118.048 117.377 118.405 117.215 118.846C117.052 119.286 116.971 119.762 116.971 120.272C116.971 120.783 117.052 121.257 117.215 121.694C117.377 122.132 117.627 122.485 117.966 122.753C118.304 123.022 118.734 123.156 119.258 123.156ZM127.612 124.21C126.922 124.21 126.317 124.046 125.797 123.718C125.28 123.39 124.876 122.931 124.584 122.341C124.296 121.751 124.151 121.061 124.151 120.272C124.151 119.477 124.296 118.783 124.584 118.189C124.876 117.596 125.28 117.135 125.797 116.807C126.317 116.479 126.922 116.315 127.612 116.315C128.301 116.315 128.904 116.479 129.421 116.807C129.942 117.135 130.346 117.596 130.634 118.189C130.926 118.783 131.072 119.477 131.072 120.272C131.072 121.061 130.926 121.751 130.634 122.341C130.346 122.931 129.942 123.39 129.421 123.718C128.904 124.046 128.301 124.21 127.612 124.21ZM127.612 123.156C128.135 123.156 128.566 123.022 128.904 122.753C129.242 122.485 129.493 122.132 129.655 121.694C129.817 121.257 129.899 120.783 129.899 120.272C129.899 119.762 129.817 119.286 129.655 118.846C129.493 118.405 129.242 118.048 128.904 117.777C128.566 117.505 128.135 117.369 127.612 117.369C127.088 117.369 126.657 117.505 126.319 117.777C125.981 118.048 125.731 118.405 125.568 118.846C125.406 119.286 125.325 119.762 125.325 120.272C125.325 120.783 125.406 121.257 125.568 121.694C125.731 122.132 125.981 122.485 126.319 122.753C126.657 123.022 127.088 123.156 127.612 123.156ZM133.957 121.267L133.937 119.815H134.175L137.516 116.414H138.968L135.408 120.014H135.309L133.957 121.267ZM132.863 124.051V113.869H134.036V124.051H132.863ZM137.715 124.051L134.732 120.272L135.567 119.457L139.207 124.051H137.715ZM141.651 113.869V124.051H140.478V113.869H141.651ZM144.556 126.914C144.357 126.914 144.18 126.898 144.024 126.865C143.868 126.835 143.761 126.805 143.701 126.775L143.999 125.741C144.284 125.814 144.536 125.841 144.755 125.821C144.974 125.801 145.168 125.703 145.337 125.527C145.509 125.355 145.666 125.075 145.809 124.687L146.028 124.091L143.204 116.414H144.477L146.585 122.5H146.664L148.772 116.414H150.045L146.803 125.164C146.657 125.559 146.477 125.885 146.261 126.144C146.046 126.406 145.796 126.6 145.511 126.725C145.229 126.851 144.911 126.914 144.556 126.914ZM152.767 119.457V124.051H151.593V116.414H152.727V117.608H152.826C153.005 117.22 153.277 116.908 153.642 116.673C154.006 116.434 154.477 116.315 155.054 116.315C155.571 116.315 156.023 116.421 156.411 116.633C156.799 116.842 157.1 117.16 157.316 117.588C157.531 118.012 157.639 118.549 157.639 119.199V124.051H156.466V119.278C156.466 118.678 156.31 118.211 155.998 117.876C155.687 117.538 155.259 117.369 154.716 117.369C154.341 117.369 154.006 117.45 153.711 117.613C153.42 117.775 153.189 118.012 153.02 118.324C152.851 118.635 152.767 119.013 152.767 119.457ZM169.448 116.414C169.388 115.911 169.146 115.52 168.722 115.241C168.298 114.963 167.777 114.824 167.161 114.824C166.71 114.824 166.316 114.896 165.977 115.042C165.643 115.188 165.381 115.389 165.192 115.644C165.006 115.899 164.914 116.189 164.914 116.514C164.914 116.786 164.978 117.019 165.107 117.215C165.24 117.407 165.409 117.568 165.615 117.697C165.82 117.823 166.035 117.927 166.261 118.01C166.486 118.09 166.693 118.154 166.882 118.204L167.916 118.483C168.182 118.552 168.477 118.648 168.801 118.771C169.129 118.894 169.443 119.061 169.741 119.273C170.043 119.482 170.291 119.75 170.487 120.078C170.682 120.407 170.78 120.809 170.78 121.287C170.78 121.837 170.636 122.334 170.347 122.778C170.062 123.222 169.645 123.575 169.095 123.837C168.548 124.099 167.883 124.23 167.101 124.23C166.372 124.23 165.74 124.112 165.207 123.877C164.677 123.641 164.259 123.313 163.954 122.892C163.652 122.471 163.482 121.983 163.442 121.426H164.715C164.748 121.81 164.877 122.128 165.102 122.38C165.331 122.629 165.619 122.815 165.968 122.937C166.319 123.056 166.697 123.116 167.101 123.116C167.572 123.116 167.994 123.04 168.369 122.887C168.743 122.732 169.04 122.516 169.259 122.241C169.477 121.963 169.587 121.638 169.587 121.267C169.587 120.929 169.492 120.654 169.303 120.441C169.115 120.229 168.866 120.057 168.558 119.924C168.249 119.792 167.916 119.676 167.558 119.576L166.306 119.218C165.51 118.99 164.88 118.663 164.416 118.239C163.952 117.815 163.72 117.26 163.72 116.574C163.72 116.003 163.874 115.506 164.183 115.082C164.494 114.654 164.912 114.323 165.436 114.088C165.963 113.849 166.551 113.73 167.2 113.73C167.857 113.73 168.44 113.847 168.95 114.083C169.461 114.315 169.865 114.633 170.164 115.037C170.465 115.442 170.624 115.901 170.641 116.414H169.448ZM172.648 124.051V116.414H173.821V124.051H172.648ZM173.245 115.142C173.016 115.142 172.819 115.064 172.653 114.908C172.491 114.752 172.409 114.565 172.409 114.346C172.409 114.127 172.491 113.94 172.653 113.784C172.819 113.629 173.016 113.551 173.245 113.551C173.473 113.551 173.669 113.629 173.831 113.784C173.997 113.94 174.08 114.127 174.08 114.346C174.08 114.565 173.997 114.752 173.831 114.908C173.669 115.064 173.473 115.142 173.245 115.142ZM175.97 124.051V116.414H177.104V117.608H177.203C177.362 117.2 177.619 116.883 177.974 116.658C178.329 116.429 178.754 116.315 179.252 116.315C179.755 116.315 180.175 116.429 180.509 116.658C180.847 116.883 181.111 117.2 181.3 117.608H181.379C181.575 117.213 181.868 116.9 182.259 116.668C182.651 116.433 183.119 116.315 183.666 116.315C184.349 116.315 184.908 116.529 185.342 116.956C185.776 117.381 185.993 118.042 185.993 118.94V124.051H184.82V118.94C184.82 118.377 184.666 117.974 184.357 117.732C184.049 117.49 183.686 117.369 183.269 117.369C182.732 117.369 182.316 117.531 182.021 117.856C181.726 118.178 181.578 118.585 181.578 119.079V124.051H180.385V118.821C180.385 118.386 180.244 118.037 179.963 117.772C179.681 117.503 179.318 117.369 178.874 117.369C178.569 117.369 178.284 117.45 178.019 117.613C177.757 117.775 177.545 118 177.382 118.289C177.223 118.574 177.144 118.904 177.144 119.278V124.051H175.97ZM188.138 124.051V116.414H189.272V117.608H189.371C189.53 117.2 189.787 116.883 190.142 116.658C190.497 116.429 190.922 116.315 191.42 116.315C191.923 116.315 192.343 116.429 192.677 116.658C193.015 116.883 193.279 117.2 193.468 117.608H193.547C193.743 117.213 194.036 116.9 194.427 116.668C194.818 116.433 195.287 116.315 195.834 116.315C196.517 116.315 197.076 116.529 197.51 116.956C197.944 117.381 198.161 118.042 198.161 118.94V124.051H196.988V118.94C196.988 118.377 196.834 117.974 196.525 117.732C196.217 117.49 195.854 117.369 195.437 117.369C194.9 117.369 194.484 117.531 194.189 117.856C193.894 118.178 193.746 118.585 193.746 119.079V124.051H192.553V118.821C192.553 118.386 192.412 118.037 192.131 117.772C191.849 117.503 191.486 117.369 191.042 117.369C190.737 117.369 190.452 117.45 190.187 117.613C189.925 117.775 189.713 118 189.55 118.289C189.391 118.574 189.312 118.904 189.312 119.278V124.051H188.138ZM203.409 124.21C202.719 124.21 202.114 124.046 201.594 123.718C201.077 123.39 200.673 122.931 200.381 122.341C200.093 121.751 199.948 121.061 199.948 120.272C199.948 119.477 200.093 118.783 200.381 118.189C200.673 117.596 201.077 117.135 201.594 116.807C202.114 116.479 202.719 116.315 203.409 116.315C204.098 116.315 204.701 116.479 205.218 116.807C205.739 117.135 206.143 117.596 206.431 118.189C206.723 118.783 206.869 119.477 206.869 120.272C206.869 121.061 206.723 121.751 206.431 122.341C206.143 122.931 205.739 123.39 205.218 123.718C204.701 124.046 204.098 124.21 203.409 124.21ZM203.409 123.156C203.932 123.156 204.363 123.022 204.701 122.753C205.039 122.485 205.289 122.132 205.452 121.694C205.614 121.257 205.695 120.783 205.695 120.272C205.695 119.762 205.614 119.286 205.452 118.846C205.289 118.405 205.039 118.048 204.701 117.777C204.363 117.505 203.932 117.369 203.409 117.369C202.885 117.369 202.454 117.505 202.116 117.777C201.778 118.048 201.528 118.405 201.365 118.846C201.203 119.286 201.122 119.762 201.122 120.272C201.122 120.783 201.203 121.257 201.365 121.694C201.528 122.132 201.778 122.485 202.116 122.753C202.454 123.022 202.885 123.156 203.409 123.156ZM209.833 119.457V124.051H208.66V116.414H209.793V117.608H209.893C210.072 117.22 210.344 116.908 210.708 116.673C211.073 116.434 211.543 116.315 212.12 116.315C212.637 116.315 213.089 116.421 213.477 116.633C213.865 116.842 214.167 117.16 214.382 117.588C214.598 118.012 214.705 118.549 214.705 119.199V124.051H213.532V119.278C213.532 118.678 213.376 118.211 213.065 117.876C212.753 117.538 212.326 117.369 211.782 117.369C211.407 117.369 211.073 117.45 210.778 117.613C210.486 117.775 210.256 118.012 210.087 118.324C209.918 118.635 209.833 119.013 209.833 119.457ZM222.258 118.125L221.204 118.423C221.138 118.247 221.04 118.077 220.911 117.911C220.785 117.742 220.613 117.603 220.394 117.493C220.175 117.384 219.895 117.329 219.554 117.329C219.086 117.329 218.697 117.437 218.385 117.652C218.077 117.864 217.923 118.135 217.923 118.463C217.923 118.754 218.029 118.985 218.241 119.154C218.453 119.323 218.785 119.464 219.236 119.576L220.369 119.855C221.052 120.02 221.561 120.274 221.895 120.615C222.23 120.953 222.398 121.389 222.398 121.923C222.398 122.36 222.272 122.752 222.02 123.096C221.771 123.441 221.423 123.713 220.976 123.912C220.528 124.11 220.008 124.21 219.415 124.21C218.636 124.21 217.991 124.041 217.481 123.703C216.97 123.365 216.647 122.871 216.511 122.221L217.625 121.943C217.731 122.354 217.931 122.662 218.226 122.868C218.525 123.073 218.914 123.176 219.395 123.176C219.942 123.176 220.376 123.06 220.697 122.828C221.022 122.592 221.184 122.311 221.184 121.983C221.184 121.717 221.092 121.495 220.906 121.316C220.72 121.134 220.435 120.998 220.051 120.909L218.778 120.61C218.079 120.445 217.565 120.188 217.237 119.84C216.912 119.489 216.75 119.049 216.75 118.522C216.75 118.092 216.871 117.71 217.113 117.379C217.358 117.047 217.691 116.787 218.112 116.598C218.536 116.409 219.017 116.315 219.554 116.315C220.309 116.315 220.903 116.481 221.334 116.812C221.768 117.144 222.076 117.581 222.258 118.125ZM228.26 124.051V113.869H231.701C232.496 113.869 233.149 114.005 233.659 114.277C234.17 114.545 234.548 114.915 234.793 115.385C235.038 115.856 235.161 116.391 235.161 116.991C235.161 117.591 235.038 118.123 234.793 118.587C234.548 119.051 234.172 119.416 233.664 119.681C233.157 119.943 232.509 120.074 231.721 120.074H228.936V118.96H231.681C232.224 118.96 232.662 118.88 232.993 118.721C233.328 118.562 233.57 118.337 233.719 118.045C233.872 117.75 233.948 117.399 233.948 116.991C233.948 116.583 233.872 116.227 233.719 115.922C233.567 115.617 233.323 115.382 232.988 115.216C232.654 115.047 232.211 114.963 231.661 114.963H229.493V124.051H228.26ZM233.053 119.477L235.559 124.051H234.127L231.661 119.477H233.053ZM240.077 124.21C239.387 124.21 238.782 124.046 238.262 123.718C237.745 123.39 237.34 122.931 237.049 122.341C236.76 121.751 236.616 121.061 236.616 120.272C236.616 119.477 236.76 118.783 237.049 118.189C237.34 117.596 237.745 117.135 238.262 116.807C238.782 116.479 239.387 116.315 240.077 116.315C240.766 116.315 241.369 116.479 241.886 116.807C242.407 117.135 242.811 117.596 243.099 118.189C243.391 118.783 243.537 119.477 243.537 120.272C243.537 121.061 243.391 121.751 243.099 122.341C242.811 122.931 242.407 123.39 241.886 123.718C241.369 124.046 240.766 124.21 240.077 124.21ZM240.077 123.156C240.6 123.156 241.031 123.022 241.369 122.753C241.707 122.485 241.957 122.132 242.12 121.694C242.282 121.257 242.363 120.783 242.363 120.272C242.363 119.762 242.282 119.286 242.12 118.846C241.957 118.405 241.707 118.048 241.369 117.777C241.031 117.505 240.6 117.369 240.077 117.369C239.553 117.369 239.122 117.505 238.784 117.777C238.446 118.048 238.196 118.405 238.033 118.846C237.871 119.286 237.79 119.762 237.79 120.272C237.79 120.783 237.871 121.257 238.033 121.694C238.196 122.132 238.446 122.485 238.784 122.753C239.122 123.022 239.553 123.156 240.077 123.156ZM245.487 124.051V113.869H246.66V117.627H246.76C246.846 117.495 246.965 117.326 247.118 117.12C247.273 116.912 247.495 116.726 247.784 116.564C248.075 116.398 248.47 116.315 248.967 116.315C249.61 116.315 250.177 116.476 250.667 116.797C251.158 117.119 251.541 117.574 251.816 118.164C252.091 118.754 252.228 119.45 252.228 120.252C252.228 121.061 252.091 121.762 251.816 122.355C251.541 122.945 251.159 123.403 250.672 123.728C250.185 124.049 249.623 124.21 248.987 124.21C248.496 124.21 248.104 124.129 247.809 123.966C247.514 123.801 247.287 123.613 247.127 123.404C246.968 123.192 246.846 123.017 246.76 122.877H246.62V124.051H245.487ZM246.64 120.233C246.64 120.809 246.725 121.318 246.894 121.759C247.063 122.196 247.31 122.539 247.635 122.788C247.959 123.033 248.357 123.156 248.828 123.156C249.318 123.156 249.728 123.027 250.056 122.768C250.387 122.506 250.636 122.155 250.801 121.714C250.971 121.27 251.055 120.776 251.055 120.233C251.055 119.696 250.972 119.212 250.806 118.781C250.644 118.347 250.397 118.004 250.066 117.752C249.738 117.497 249.325 117.369 248.828 117.369C248.35 117.369 247.949 117.49 247.625 117.732C247.3 117.971 247.055 118.305 246.889 118.736C246.723 119.164 246.64 119.663 246.64 120.233ZM257.225 124.21C256.489 124.21 255.854 124.047 255.321 123.723C254.79 123.395 254.381 122.937 254.093 122.35C253.808 121.761 253.665 121.074 253.665 120.292C253.665 119.51 253.808 118.821 254.093 118.224C254.381 117.624 254.782 117.157 255.296 116.822C255.813 116.484 256.416 116.315 257.105 116.315C257.503 116.315 257.896 116.381 258.284 116.514C258.672 116.646 259.025 116.862 259.343 117.16C259.661 117.455 259.914 117.846 260.103 118.333C260.292 118.821 260.387 119.421 260.387 120.133V120.63H254.5V119.616H259.194C259.194 119.185 259.107 118.801 258.935 118.463C258.766 118.125 258.524 117.858 258.209 117.662C257.898 117.467 257.53 117.369 257.105 117.369C256.638 117.369 256.234 117.485 255.892 117.717C255.554 117.946 255.294 118.244 255.112 118.612C254.93 118.98 254.838 119.374 254.838 119.795V120.471C254.838 121.048 254.938 121.537 255.137 121.938C255.339 122.336 255.619 122.639 255.977 122.848C256.335 123.053 256.751 123.156 257.225 123.156C257.533 123.156 257.811 123.113 258.06 123.027C258.312 122.937 258.529 122.805 258.711 122.629C258.894 122.45 259.034 122.228 259.134 121.963L260.267 122.281C260.148 122.665 259.948 123.003 259.666 123.295C259.384 123.583 259.036 123.809 258.622 123.971C258.208 124.13 257.742 124.21 257.225 124.21ZM262.172 124.051V116.414H263.305V117.568H263.385C263.524 117.19 263.776 116.883 264.14 116.648C264.505 116.413 264.916 116.295 265.373 116.295C265.459 116.295 265.567 116.297 265.696 116.3C265.826 116.303 265.923 116.308 265.99 116.315V117.508C265.95 117.498 265.859 117.483 265.716 117.463C265.577 117.44 265.43 117.429 265.274 117.429C264.903 117.429 264.571 117.507 264.279 117.662C263.991 117.815 263.762 118.027 263.593 118.299C263.428 118.567 263.345 118.874 263.345 119.218V124.051H262.172ZM271.18 116.414V117.409H267.223V116.414H271.18ZM268.376 114.585H269.549V121.863C269.549 122.195 269.597 122.443 269.694 122.609C269.793 122.771 269.919 122.881 270.071 122.937C270.227 122.99 270.391 123.017 270.564 123.017C270.693 123.017 270.799 123.01 270.882 122.997C270.965 122.98 271.031 122.967 271.081 122.957L271.319 124.011C271.24 124.041 271.129 124.071 270.986 124.1C270.844 124.134 270.663 124.15 270.444 124.15C270.113 124.15 269.788 124.079 269.47 123.936C269.155 123.794 268.893 123.577 268.684 123.285C268.479 122.993 268.376 122.626 268.376 122.181V114.585ZM278.217 118.125L277.163 118.423C277.097 118.247 276.999 118.077 276.87 117.911C276.744 117.742 276.572 117.603 276.353 117.493C276.134 117.384 275.854 117.329 275.513 117.329C275.045 117.329 274.656 117.437 274.344 117.652C274.036 117.864 273.882 118.135 273.882 118.463C273.882 118.754 273.988 118.985 274.2 119.154C274.412 119.323 274.744 119.464 275.195 119.576L276.328 119.855C277.011 120.02 277.52 120.274 277.854 120.615C278.189 120.953 278.357 121.389 278.357 121.923C278.357 122.36 278.231 122.752 277.979 123.096C277.73 123.441 277.382 123.713 276.935 123.912C276.487 124.11 275.967 124.21 275.374 124.21C274.595 124.21 273.95 124.041 273.44 123.703C272.929 123.365 272.606 122.871 272.47 122.221L273.584 121.943C273.69 122.354 273.89 122.662 274.185 122.868C274.484 123.073 274.873 123.176 275.354 123.176C275.901 123.176 276.335 123.06 276.656 122.828C276.981 122.592 277.143 122.311 277.143 121.983C277.143 121.717 277.051 121.495 276.865 121.316C276.679 121.134 276.394 120.998 276.01 120.909L274.737 120.61C274.038 120.445 273.524 120.188 273.196 119.84C272.871 119.489 272.709 119.049 272.709 118.522C272.709 118.092 272.83 117.71 273.072 117.379C273.317 117.047 273.65 116.787 274.071 116.598C274.495 116.409 274.976 116.315 275.513 116.315C276.268 116.315 276.862 116.481 277.293 116.812C277.727 117.144 278.035 117.581 278.217 118.125Z" fill="#C4C6D7"/>
<rect width="288" height="79.1011" transform="translate(25 159)" fill="#1B1B28"/>
<rect x="313" y="78.1299" width="288" height="1" fill="#282A3B"/>
<path d="M313 25H601V78.2603H313V25Z" fill="#1B1B28"/>
<path d="M345.959 55.6304V46.9031H351.43V48.0366H347.276V50.6957H351.145V51.825H347.276V54.4968H351.482V55.6304H345.959ZM354.629 46.9031H356.227L359.006 53.6872H359.108L361.886 46.9031H363.484V55.6304H362.232V49.315H362.151L359.577 55.6176H358.537L355.963 49.3108H355.882V55.6304H354.629V46.9031ZM367.576 55.6304H366.178L369.319 46.9031H370.84L373.981 55.6304H372.583L370.116 48.4883H370.048L367.576 55.6304ZM367.81 52.2128H372.344V53.3207H367.81V52.2128ZM377.998 46.9031V55.6304H376.681V46.9031H377.998ZM381.356 55.6304V46.9031H382.672V54.4968H386.627V55.6304H381.356Z" fill="#C4C6D7"/>
<rect x="313" y="158.05" width="288" height="1" fill="#282A3B"/>
<rect width="288" height="79.1011" transform="translate(313 79)" fill="#1B1B28"/>
<path d="M346.233 124.051V113.869H347.406V117.627H347.506C347.592 117.495 347.711 117.326 347.864 117.12C348.019 116.912 348.241 116.726 348.53 116.564C348.821 116.398 349.216 116.315 349.713 116.315C350.356 116.315 350.923 116.476 351.413 116.797C351.904 117.119 352.287 117.574 352.562 118.164C352.837 118.754 352.974 119.45 352.974 120.252C352.974 121.061 352.837 121.762 352.562 122.355C352.287 122.945 351.906 123.403 351.418 123.728C350.931 124.049 350.369 124.21 349.733 124.21C349.242 124.21 348.85 124.129 348.555 123.966C348.26 123.801 348.033 123.613 347.874 123.404C347.714 123.192 347.592 123.017 347.506 122.877H347.366V124.051H346.233ZM347.386 120.233C347.386 120.809 347.471 121.318 347.64 121.759C347.809 122.196 348.056 122.539 348.381 122.788C348.705 123.033 349.103 123.156 349.574 123.156C350.064 123.156 350.474 123.027 350.802 122.768C351.133 122.506 351.382 122.155 351.548 121.714C351.717 121.27 351.801 120.776 351.801 120.233C351.801 119.696 351.718 119.212 351.553 118.781C351.39 118.347 351.143 118.004 350.812 117.752C350.484 117.497 350.071 117.369 349.574 117.369C349.097 117.369 348.696 117.49 348.371 117.732C348.046 117.971 347.801 118.305 347.635 118.736C347.469 119.164 347.386 119.663 347.386 120.233ZM354.769 124.051V116.414H355.903V117.568H355.982C356.121 117.19 356.373 116.883 356.738 116.648C357.103 116.413 357.513 116.295 357.971 116.295C358.057 116.295 358.165 116.297 358.294 116.3C358.423 116.303 358.521 116.308 358.587 116.315V117.508C358.548 117.498 358.456 117.483 358.314 117.463C358.175 117.44 358.027 117.429 357.871 117.429C357.5 117.429 357.169 117.507 356.877 117.662C356.589 117.815 356.36 118.027 356.191 118.299C356.025 118.567 355.942 118.874 355.942 119.218V124.051H354.769ZM362.848 124.21C362.159 124.21 361.554 124.046 361.033 123.718C360.516 123.39 360.112 122.931 359.82 122.341C359.532 121.751 359.388 121.061 359.388 120.272C359.388 119.477 359.532 118.783 359.82 118.189C360.112 117.596 360.516 117.135 361.033 116.807C361.554 116.479 362.159 116.315 362.848 116.315C363.537 116.315 364.141 116.479 364.658 116.807C365.178 117.135 365.582 117.596 365.871 118.189C366.162 118.783 366.308 119.477 366.308 120.272C366.308 121.061 366.162 121.751 365.871 122.341C365.582 122.931 365.178 123.39 364.658 123.718C364.141 124.046 363.537 124.21 362.848 124.21ZM362.848 123.156C363.372 123.156 363.803 123.022 364.141 122.753C364.479 122.485 364.729 122.132 364.891 121.694C365.054 121.257 365.135 120.783 365.135 120.272C365.135 119.762 365.054 119.286 364.891 118.846C364.729 118.405 364.479 118.048 364.141 117.777C363.803 117.505 363.372 117.369 362.848 117.369C362.324 117.369 361.893 117.505 361.555 117.777C361.217 118.048 360.967 118.405 360.805 118.846C360.642 119.286 360.561 119.762 360.561 120.272C360.561 120.783 360.642 121.257 360.805 121.694C360.967 122.132 361.217 122.485 361.555 122.753C361.893 123.022 362.324 123.156 362.848 123.156ZM371.202 124.21C370.512 124.21 369.907 124.046 369.387 123.718C368.87 123.39 368.465 122.931 368.174 122.341C367.885 121.751 367.741 121.061 367.741 120.272C367.741 119.477 367.885 118.783 368.174 118.189C368.465 117.596 368.87 117.135 369.387 116.807C369.907 116.479 370.512 116.315 371.202 116.315C371.891 116.315 372.494 116.479 373.011 116.807C373.532 117.135 373.936 117.596 374.224 118.189C374.516 118.783 374.662 119.477 374.662 120.272C374.662 121.061 374.516 121.751 374.224 122.341C373.936 122.931 373.532 123.39 373.011 123.718C372.494 124.046 371.891 124.21 371.202 124.21ZM371.202 123.156C371.725 123.156 372.156 123.022 372.494 122.753C372.832 122.485 373.082 122.132 373.245 121.694C373.407 121.257 373.488 120.783 373.488 120.272C373.488 119.762 373.407 119.286 373.245 118.846C373.082 118.405 372.832 118.048 372.494 117.777C372.156 117.505 371.725 117.369 371.202 117.369C370.678 117.369 370.247 117.505 369.909 117.777C369.571 118.048 369.321 118.405 369.158 118.846C368.996 119.286 368.915 119.762 368.915 120.272C368.915 120.783 368.996 121.257 369.158 121.694C369.321 122.132 369.571 122.485 369.909 122.753C370.247 123.022 370.678 123.156 371.202 123.156ZM377.547 121.267L377.527 119.815H377.765L381.106 116.414H382.558L378.998 120.014H378.899L377.547 121.267ZM376.453 124.051V113.869H377.626V124.051H376.453ZM381.305 124.051L378.322 120.272L379.157 119.457L382.797 124.051H381.305ZM384.923 124.13C384.678 124.13 384.467 124.042 384.292 123.867C384.116 123.691 384.028 123.481 384.028 123.235C384.028 122.99 384.116 122.78 384.292 122.604C384.467 122.428 384.678 122.341 384.923 122.341C385.168 122.341 385.379 122.428 385.555 122.604C385.73 122.78 385.818 122.99 385.818 123.235C385.818 123.398 385.777 123.547 385.694 123.683C385.614 123.819 385.506 123.928 385.371 124.011C385.238 124.091 385.089 124.13 384.923 124.13ZM393.333 118.125L392.279 118.423C392.212 118.247 392.115 118.077 391.985 117.911C391.859 117.742 391.687 117.603 391.468 117.493C391.249 117.384 390.969 117.329 390.628 117.329C390.161 117.329 389.771 117.437 389.46 117.652C389.151 117.864 388.997 118.135 388.997 118.463C388.997 118.754 389.103 118.985 389.316 119.154C389.528 119.323 389.859 119.464 390.31 119.576L391.443 119.855C392.126 120.02 392.635 120.274 392.97 120.615C393.304 120.953 393.472 121.389 393.472 121.923C393.472 122.36 393.346 122.752 393.094 123.096C392.845 123.441 392.497 123.713 392.05 123.912C391.602 124.11 391.082 124.21 390.489 124.21C389.71 124.21 389.065 124.041 388.555 123.703C388.044 123.365 387.721 122.871 387.585 122.221L388.699 121.943C388.805 122.354 389.006 122.662 389.301 122.868C389.599 123.073 389.988 123.176 390.469 123.176C391.016 123.176 391.45 123.06 391.771 122.828C392.096 122.592 392.259 122.311 392.259 121.983C392.259 121.717 392.166 121.495 391.98 121.316C391.795 121.134 391.51 120.998 391.125 120.909L389.852 120.61C389.153 120.445 388.639 120.188 388.311 119.84C387.986 119.489 387.824 119.049 387.824 118.522C387.824 118.092 387.945 117.71 388.187 117.379C388.432 117.047 388.765 116.787 389.186 116.598C389.61 116.409 390.091 116.315 390.628 116.315C391.384 116.315 391.977 116.481 392.408 116.812C392.842 117.144 393.15 117.581 393.333 118.125ZM395.238 124.051V116.414H396.411V124.051H395.238ZM395.835 115.142C395.606 115.142 395.409 115.064 395.243 114.908C395.08 114.752 394.999 114.565 394.999 114.346C394.999 114.127 395.08 113.94 395.243 113.784C395.409 113.629 395.606 113.551 395.835 113.551C396.063 113.551 396.259 113.629 396.421 113.784C396.587 113.94 396.67 114.127 396.67 114.346C396.67 114.565 396.587 114.752 396.421 114.908C396.259 115.064 396.063 115.142 395.835 115.142ZM398.56 124.051V116.414H399.694V117.608H399.793C399.952 117.2 400.209 116.883 400.564 116.658C400.918 116.429 401.344 116.315 401.841 116.315C402.345 116.315 402.765 116.429 403.099 116.658C403.437 116.883 403.701 117.2 403.89 117.608H403.969C404.165 117.213 404.458 116.9 404.849 116.668C405.24 116.433 405.709 116.315 406.256 116.315C406.939 116.315 407.497 116.529 407.932 116.956C408.366 117.381 408.583 118.042 408.583 118.94V124.051H407.41V118.94C407.41 118.377 407.256 117.974 406.947 117.732C406.639 117.49 406.276 117.369 405.858 117.369C405.322 117.369 404.906 117.531 404.611 117.856C404.316 118.178 404.168 118.585 404.168 119.079V124.051H402.975V118.821C402.975 118.386 402.834 118.037 402.552 117.772C402.271 117.503 401.908 117.369 401.464 117.369C401.159 117.369 400.874 117.45 400.608 117.613C400.347 117.775 400.135 118 399.972 118.289C399.813 118.574 399.733 118.904 399.733 119.278V124.051H398.56ZM410.728 124.051V116.414H411.862V117.608H411.961C412.12 117.2 412.377 116.883 412.732 116.658C413.086 116.429 413.512 116.315 414.009 116.315C414.513 116.315 414.932 116.429 415.267 116.658C415.605 116.883 415.869 117.2 416.058 117.608H416.137C416.333 117.213 416.626 116.9 417.017 116.668C417.408 116.433 417.877 116.315 418.424 116.315C419.107 116.315 419.665 116.529 420.1 116.956C420.534 117.381 420.751 118.042 420.751 118.94V124.051H419.578V118.94C419.578 118.377 419.423 117.974 419.115 117.732C418.807 117.49 418.444 117.369 418.026 117.369C417.49 117.369 417.074 117.531 416.779 117.856C416.484 118.178 416.336 118.585 416.336 119.079V124.051H415.143V118.821C415.143 118.386 415.002 118.037 414.72 117.772C414.439 117.503 414.076 117.369 413.632 117.369C413.327 117.369 413.042 117.45 412.776 117.613C412.515 117.775 412.302 118 412.14 118.289C411.981 118.574 411.901 118.904 411.901 119.278V124.051H410.728ZM425.998 124.21C425.309 124.21 424.704 124.046 424.184 123.718C423.667 123.39 423.262 122.931 422.971 122.341C422.682 121.751 422.538 121.061 422.538 120.272C422.538 119.477 422.682 118.783 422.971 118.189C423.262 117.596 423.667 117.135 424.184 116.807C424.704 116.479 425.309 116.315 425.998 116.315C426.688 116.315 427.291 116.479 427.808 116.807C428.328 117.135 428.733 117.596 429.021 118.189C429.313 118.783 429.459 119.477 429.459 120.272C429.459 121.061 429.313 121.751 429.021 122.341C428.733 122.931 428.328 123.39 427.808 123.718C427.291 124.046 426.688 124.21 425.998 124.21ZM425.998 123.156C426.522 123.156 426.953 123.022 427.291 122.753C427.629 122.485 427.879 122.132 428.042 121.694C428.204 121.257 428.285 120.783 428.285 120.272C428.285 119.762 428.204 119.286 428.042 118.846C427.879 118.405 427.629 118.048 427.291 117.777C426.953 117.505 426.522 117.369 425.998 117.369C425.475 117.369 425.044 117.505 424.706 117.777C424.368 118.048 424.117 118.405 423.955 118.846C423.793 119.286 423.711 119.762 423.711 120.272C423.711 120.783 423.793 121.257 423.955 121.694C424.117 122.132 424.368 122.485 424.706 122.753C425.044 123.022 425.475 123.156 425.998 123.156ZM432.423 119.457V124.051H431.25V116.414H432.383V117.608H432.483C432.662 117.22 432.933 116.908 433.298 116.673C433.663 116.434 434.133 116.315 434.71 116.315C435.227 116.315 435.679 116.421 436.067 116.633C436.455 116.842 436.757 117.16 436.972 117.588C437.187 118.012 437.295 118.549 437.295 119.199V124.051H436.122V119.278C436.122 118.678 435.966 118.211 435.654 117.876C435.343 117.538 434.915 117.369 434.372 117.369C433.997 117.369 433.663 117.45 433.368 117.613C433.076 117.775 432.846 118.012 432.676 118.324C432.507 118.635 432.423 119.013 432.423 119.457ZM444.848 118.125L443.794 118.423C443.728 118.247 443.63 118.077 443.501 117.911C443.375 117.742 443.203 117.603 442.984 117.493C442.765 117.384 442.485 117.329 442.144 117.329C441.676 117.329 441.287 117.437 440.975 117.652C440.667 117.864 440.513 118.135 440.513 118.463C440.513 118.754 440.619 118.985 440.831 119.154C441.043 119.323 441.375 119.464 441.825 119.576L442.959 119.855C443.642 120.02 444.151 120.274 444.485 120.615C444.82 120.953 444.987 121.389 444.987 121.923C444.987 122.36 444.861 122.752 444.61 123.096C444.361 123.441 444.013 123.713 443.566 123.912C443.118 124.11 442.598 124.21 442.004 124.21C441.226 124.21 440.581 124.041 440.07 123.703C439.56 123.365 439.237 122.871 439.101 122.221L440.215 121.943C440.321 122.354 440.521 122.662 440.816 122.868C441.115 123.073 441.504 123.176 441.985 123.176C442.531 123.176 442.966 123.06 443.287 122.828C443.612 122.592 443.774 122.311 443.774 121.983C443.774 121.717 443.682 121.495 443.496 121.316C443.31 121.134 443.025 120.998 442.641 120.909L441.368 120.61C440.669 120.445 440.155 120.188 439.827 119.84C439.502 119.489 439.34 119.049 439.34 118.522C439.34 118.092 439.461 117.71 439.703 117.379C439.948 117.047 440.281 116.787 440.702 116.598C441.126 116.409 441.607 116.315 442.144 116.315C442.899 116.315 443.493 116.481 443.923 116.812C444.358 117.144 444.666 117.581 444.848 118.125ZM452.62 126.735C451.606 126.735 450.709 126.596 449.93 126.318C449.152 126.043 448.497 125.637 447.967 125.1C447.436 124.563 447.035 123.905 446.763 123.126C446.492 122.347 446.356 121.456 446.356 120.451C446.356 119.48 446.493 118.612 446.768 117.846C447.047 117.081 447.45 116.431 447.977 115.897C448.507 115.36 449.15 114.951 449.906 114.669C450.665 114.388 451.523 114.247 452.481 114.247C453.412 114.247 454.228 114.399 454.927 114.704C455.629 115.006 456.216 115.415 456.687 115.932C457.161 116.446 457.515 117.024 457.751 117.667C457.989 118.31 458.109 118.973 458.109 119.656C458.109 120.136 458.085 120.624 458.039 121.118C457.993 121.611 457.895 122.065 457.746 122.48C457.597 122.891 457.366 123.222 457.055 123.474C456.746 123.726 456.329 123.852 455.802 123.852C455.57 123.852 455.315 123.815 455.036 123.743C454.758 123.67 454.511 123.549 454.295 123.38C454.08 123.211 453.952 122.984 453.913 122.699H453.853C453.773 122.891 453.651 123.073 453.485 123.245C453.323 123.418 453.109 123.555 452.844 123.658C452.582 123.761 452.262 123.806 451.884 123.792C451.453 123.776 451.074 123.68 450.746 123.504C450.418 123.325 450.143 123.083 449.92 122.778C449.702 122.47 449.536 122.114 449.423 121.709C449.314 121.301 449.259 120.862 449.259 120.392C449.259 119.944 449.326 119.535 449.458 119.164C449.591 118.792 449.775 118.468 450.01 118.189C450.249 117.911 450.527 117.689 450.845 117.523C451.167 117.354 451.513 117.25 451.884 117.21C452.216 117.177 452.517 117.192 452.789 117.255C453.061 117.314 453.285 117.405 453.46 117.528C453.636 117.647 453.747 117.78 453.793 117.926H453.853V117.369H454.907V121.863C454.907 122.142 454.985 122.387 455.141 122.599C455.296 122.811 455.523 122.917 455.822 122.917C456.16 122.917 456.418 122.801 456.597 122.569C456.78 122.337 456.904 121.979 456.97 121.495C457.04 121.011 457.075 120.392 457.075 119.636C457.075 119.192 457.013 118.754 456.891 118.324C456.771 117.889 456.589 117.483 456.344 117.105C456.102 116.728 455.795 116.395 455.424 116.106C455.053 115.818 454.617 115.592 454.116 115.43C453.619 115.264 453.054 115.181 452.421 115.181C451.642 115.181 450.945 115.302 450.328 115.544C449.715 115.783 449.193 116.133 448.762 116.593C448.335 117.051 448.008 117.608 447.783 118.264C447.561 118.917 447.45 119.659 447.45 120.491C447.45 121.336 447.561 122.087 447.783 122.743C448.008 123.4 448.339 123.953 448.777 124.404C449.218 124.855 449.763 125.196 450.413 125.428C451.062 125.663 451.811 125.781 452.66 125.781C453.024 125.781 453.384 125.746 453.739 125.676C454.093 125.607 454.406 125.531 454.678 125.448C454.95 125.365 455.146 125.304 455.265 125.264L455.543 126.179C455.338 126.265 455.069 126.351 454.738 126.437C454.41 126.523 454.058 126.595 453.684 126.651C453.313 126.707 452.958 126.735 452.62 126.735ZM452.043 122.778C452.487 122.778 452.847 122.689 453.122 122.51C453.397 122.331 453.598 122.06 453.724 121.699C453.85 121.338 453.913 120.882 453.913 120.332C453.913 119.775 453.843 119.341 453.704 119.029C453.565 118.718 453.359 118.499 453.087 118.373C452.816 118.247 452.481 118.184 452.083 118.184C451.705 118.184 451.382 118.284 451.114 118.483C450.848 118.678 450.645 118.94 450.502 119.268C450.363 119.593 450.293 119.948 450.293 120.332C450.293 120.756 450.35 121.156 450.462 121.53C450.575 121.901 450.759 122.203 451.014 122.435C451.269 122.664 451.612 122.778 452.043 122.778ZM462.947 127.074C462.381 127.074 461.893 127.001 461.486 126.855C461.078 126.712 460.738 126.523 460.466 126.288C460.198 126.056 459.984 125.807 459.825 125.542L460.76 124.886C460.866 125.025 461 125.184 461.162 125.363C461.325 125.546 461.547 125.703 461.829 125.836C462.114 125.971 462.487 126.039 462.947 126.039C463.564 126.039 464.073 125.89 464.474 125.592C464.875 125.294 465.075 124.826 465.075 124.19V122.639H464.976C464.89 122.778 464.767 122.95 464.608 123.156C464.452 123.358 464.227 123.539 463.932 123.698C463.64 123.854 463.246 123.931 462.748 123.931C462.132 123.931 461.578 123.786 461.088 123.494C460.601 123.202 460.215 122.778 459.93 122.221C459.648 121.664 459.507 120.988 459.507 120.193C459.507 119.411 459.644 118.73 459.92 118.15C460.195 117.566 460.577 117.115 461.068 116.797C461.559 116.476 462.125 116.315 462.768 116.315C463.265 116.315 463.66 116.398 463.952 116.564C464.247 116.726 464.472 116.912 464.628 117.12C464.787 117.326 464.909 117.495 464.996 117.627H465.115V116.414H466.248V124.27C466.248 124.926 466.099 125.459 465.801 125.87C465.506 126.285 465.108 126.588 464.608 126.78C464.111 126.976 463.557 127.074 462.947 127.074ZM462.907 122.877C463.378 122.877 463.776 122.77 464.101 122.554C464.425 122.339 464.672 122.029 464.841 121.625C465.01 121.22 465.095 120.736 465.095 120.173C465.095 119.623 465.012 119.137 464.846 118.716C464.681 118.295 464.435 117.966 464.111 117.727C463.786 117.488 463.385 117.369 462.907 117.369C462.41 117.369 461.996 117.495 461.665 117.747C461.336 117.999 461.09 118.337 460.924 118.761C460.761 119.185 460.68 119.656 460.68 120.173C460.68 120.703 460.763 121.172 460.929 121.58C461.098 121.984 461.346 122.302 461.675 122.534C462.006 122.763 462.417 122.877 462.907 122.877ZM468.396 124.051V116.414H469.53V117.608H469.629C469.788 117.2 470.045 116.883 470.4 116.658C470.754 116.429 471.18 116.315 471.677 116.315C472.181 116.315 472.6 116.429 472.935 116.658C473.273 116.883 473.537 117.2 473.726 117.608H473.805C474.001 117.213 474.294 116.9 474.685 116.668C475.076 116.433 475.545 116.315 476.092 116.315C476.775 116.315 477.333 116.529 477.768 116.956C478.202 117.381 478.419 118.042 478.419 118.94V124.051H477.246V118.94C477.246 118.377 477.091 117.974 476.783 117.732C476.475 117.49 476.112 117.369 475.694 117.369C475.157 117.369 474.742 117.531 474.447 117.856C474.152 118.178 474.004 118.585 474.004 119.079V124.051H472.811V118.821C472.811 118.386 472.67 118.037 472.388 117.772C472.107 117.503 471.744 117.369 471.3 117.369C470.995 117.369 470.71 117.45 470.444 117.613C470.183 117.775 469.97 118 469.808 118.289C469.649 118.574 469.569 118.904 469.569 119.278V124.051H468.396ZM482.811 124.23C482.327 124.23 481.888 124.139 481.494 123.956C481.099 123.771 480.786 123.504 480.554 123.156C480.322 122.805 480.206 122.38 480.206 121.883C480.206 121.446 480.292 121.091 480.465 120.819C480.637 120.544 480.867 120.329 481.156 120.173C481.444 120.017 481.762 119.901 482.11 119.825C482.462 119.745 482.815 119.682 483.169 119.636C483.633 119.576 484.009 119.532 484.298 119.502C484.589 119.469 484.802 119.414 484.934 119.338C485.07 119.261 485.138 119.129 485.138 118.94V118.9C485.138 118.41 485.004 118.029 484.735 117.757C484.47 117.485 484.067 117.349 483.527 117.349C482.967 117.349 482.528 117.472 482.21 117.717C481.892 117.962 481.668 118.224 481.539 118.502L480.425 118.105C480.624 117.641 480.889 117.279 481.22 117.021C481.555 116.759 481.92 116.577 482.314 116.474C482.712 116.368 483.103 116.315 483.487 116.315C483.733 116.315 484.014 116.345 484.333 116.404C484.654 116.461 484.964 116.578 485.262 116.757C485.564 116.936 485.814 117.207 486.013 117.568C486.212 117.929 486.311 118.413 486.311 119.02V124.051H485.138V123.017H485.078C484.999 123.182 484.866 123.36 484.681 123.549C484.495 123.738 484.248 123.898 483.94 124.031C483.632 124.163 483.255 124.23 482.811 124.23ZM482.99 123.176C483.454 123.176 483.845 123.085 484.164 122.902C484.485 122.72 484.727 122.485 484.889 122.196C485.055 121.908 485.138 121.605 485.138 121.287V120.213C485.088 120.272 484.979 120.327 484.81 120.377C484.644 120.423 484.452 120.465 484.233 120.501C484.018 120.534 483.807 120.564 483.602 120.591C483.4 120.614 483.235 120.634 483.11 120.65C482.805 120.69 482.52 120.755 482.254 120.844C481.993 120.93 481.78 121.061 481.618 121.237C481.459 121.409 481.379 121.645 481.379 121.943C481.379 122.35 481.53 122.659 481.832 122.868C482.137 123.073 482.523 123.176 482.99 123.176ZM488.453 124.051V116.414H489.626V124.051H488.453ZM489.049 115.142C488.821 115.142 488.623 115.064 488.458 114.908C488.295 114.752 488.214 114.565 488.214 114.346C488.214 114.127 488.295 113.94 488.458 113.784C488.623 113.629 488.821 113.551 489.049 113.551C489.278 113.551 489.474 113.629 489.636 113.784C489.802 113.94 489.885 114.127 489.885 114.346C489.885 114.565 489.802 114.752 489.636 114.908C489.474 115.064 489.278 115.142 489.049 115.142ZM492.948 113.869V124.051H491.775V113.869H492.948ZM495.952 124.13C495.707 124.13 495.497 124.042 495.321 123.867C495.145 123.691 495.058 123.481 495.058 123.235C495.058 122.99 495.145 122.78 495.321 122.604C495.497 122.428 495.707 122.341 495.952 122.341C496.198 122.341 496.408 122.428 496.584 122.604C496.759 122.78 496.847 122.99 496.847 123.235C496.847 123.398 496.806 123.547 496.723 123.683C496.643 123.819 496.536 123.928 496.4 124.011C496.267 124.091 496.118 124.13 495.952 124.13ZM502.055 124.21C501.339 124.21 500.723 124.041 500.206 123.703C499.689 123.365 499.291 122.899 499.012 122.306C498.734 121.712 498.595 121.035 498.595 120.272C498.595 119.497 498.737 118.812 499.022 118.219C499.311 117.623 499.712 117.157 500.225 116.822C500.743 116.484 501.346 116.315 502.035 116.315C502.572 116.315 503.056 116.414 503.487 116.613C503.918 116.812 504.271 117.091 504.546 117.449C504.821 117.806 504.992 118.224 505.058 118.701H503.885C503.795 118.353 503.596 118.045 503.288 117.777C502.983 117.505 502.572 117.369 502.055 117.369C501.598 117.369 501.197 117.488 500.852 117.727C500.511 117.962 500.244 118.295 500.051 118.726C499.863 119.154 499.768 119.656 499.768 120.233C499.768 120.823 499.861 121.336 500.047 121.774C500.235 122.211 500.501 122.551 500.842 122.793C501.187 123.035 501.591 123.156 502.055 123.156C502.36 123.156 502.637 123.103 502.885 122.997C503.134 122.891 503.344 122.738 503.517 122.539C503.689 122.341 503.812 122.102 503.885 121.824H505.058C504.992 122.274 504.828 122.68 504.566 123.042C504.307 123.4 503.964 123.685 503.537 123.897C503.112 124.105 502.618 124.21 502.055 124.21ZM509.875 124.21C509.186 124.21 508.581 124.046 508.061 123.718C507.544 123.39 507.139 122.931 506.848 122.341C506.559 121.751 506.415 121.061 506.415 120.272C506.415 119.477 506.559 118.783 506.848 118.189C507.139 117.596 507.544 117.135 508.061 116.807C508.581 116.479 509.186 116.315 509.875 116.315C510.565 116.315 511.168 116.479 511.685 116.807C512.205 117.135 512.61 117.596 512.898 118.189C513.19 118.783 513.336 119.477 513.336 120.272C513.336 121.061 513.19 121.751 512.898 122.341C512.61 122.931 512.205 123.39 511.685 123.718C511.168 124.046 510.565 124.21 509.875 124.21ZM509.875 123.156C510.399 123.156 510.83 123.022 511.168 122.753C511.506 122.485 511.756 122.132 511.919 121.694C512.081 121.257 512.162 120.783 512.162 120.272C512.162 119.762 512.081 119.286 511.919 118.846C511.756 118.405 511.506 118.048 511.168 117.777C510.83 117.505 510.399 117.369 509.875 117.369C509.352 117.369 508.921 117.505 508.583 117.777C508.245 118.048 507.994 118.405 507.832 118.846C507.67 119.286 507.588 119.762 507.588 120.272C507.588 120.783 507.67 121.257 507.832 121.694C507.994 122.132 508.245 122.485 508.583 122.753C508.921 123.022 509.352 123.156 509.875 123.156ZM515.127 124.051V116.414H516.26V117.608H516.36C516.519 117.2 516.776 116.883 517.13 116.658C517.485 116.429 517.911 116.315 518.408 116.315C518.912 116.315 519.331 116.429 519.666 116.658C520.004 116.883 520.267 117.2 520.456 117.608H520.536C520.731 117.213 521.025 116.9 521.416 116.668C521.807 116.433 522.276 116.315 522.823 116.315C523.505 116.315 524.064 116.529 524.498 116.956C524.932 117.381 525.149 118.042 525.149 118.94V124.051H523.976V118.94C523.976 118.377 523.822 117.974 523.514 117.732C523.205 117.49 522.843 117.369 522.425 117.369C521.888 117.369 521.472 117.531 521.177 117.856C520.882 118.178 520.735 118.585 520.735 119.079V124.051H519.541V118.821C519.541 118.386 519.401 118.037 519.119 117.772C518.837 117.503 518.474 117.369 518.03 117.369C517.725 117.369 517.44 117.45 517.175 117.613C516.913 117.775 516.701 118 516.539 118.289C516.379 118.574 516.3 118.904 516.3 119.278V124.051H515.127Z" fill="#C4C6D7"/>
<rect width="288" height="79.1011" transform="translate(313 159)" fill="#1B1B28"/>
<rect x="24.5" y="24.5" width="1161" height="455" rx="16.5" stroke="#282A3B"/>
</g>
</g>
<rect x="0.5" y="0.5" width="469" height="171" rx="16.5" stroke="#282A3B"/>
<defs>
<clipPath id="clip0_1158_72713">
<rect x="1" y="1" width="468" height="170" rx="16" fill="white"/>
</clipPath>
<clipPath id="clip1_1158_72713">
<rect width="1725" height="1037" fill="white" transform="translate(-359 -385)"/>
</clipPath>
<clipPath id="clip2_1158_72713">
<rect x="57" y="102.551" width="32" height="32" rx="16" fill="white"/>
</clipPath>
</defs>
</svg>
