<svg width="470" height="172" viewBox="0 0 470 172" fill="none" xmlns="http://www.w3.org/2000/svg">
<g clip-path="url(#clip0_1107_58531)">
<rect x="1" y="1.00098" width="567" height="393" rx="16" fill="#FCFCFF"/>
<g clip-path="url(#clip1_1107_58531)">
<rect width="1725" height="1111" transform="translate(-1069 -269.999)" fill="#14141F"/>
<rect x="355.5" y="27.501" width="119" height="39" rx="3.5" fill="#DA1A5B"/>
<path fill-rule="evenodd" clip-rule="evenodd" d="M375 42.001C375.552 42.001 376 42.4487 376 43.001V46.001L379 46.001C379.552 46.001 380 46.4487 380 47.001C380 47.5533 379.552 48.001 379 48.001H376V51.001C376 51.5533 375.552 52.001 375 52.001C374.448 52.001 374 51.5533 374 51.001V48.001H371C370.448 48.001 370 47.5533 370 47.001C370 46.4487 370.448 46.001 371 46.001L374 46.001V43.001C374 42.4487 374.448 42.001 375 42.001Z" fill="#FCFCFF"/>
<path d="M398.719 45.7545H396.86C396.807 45.4496 396.709 45.1795 396.567 44.9442C396.424 44.7055 396.247 44.5033 396.035 44.3376C395.823 44.1719 395.581 44.0476 395.309 43.9648C395.04 43.8786 394.75 43.8355 394.439 43.8355C393.885 43.8355 393.395 43.9747 392.967 44.2531C392.54 44.5282 392.205 44.9326 391.963 45.4662C391.721 45.9965 391.6 46.6444 391.6 47.4101C391.6 48.189 391.721 48.8452 391.963 49.3788C392.208 49.9091 392.543 50.3102 392.967 50.5819C393.395 50.8504 393.884 50.9846 394.434 50.9846C394.739 50.9846 395.024 50.9449 395.289 50.8653C395.558 50.7825 395.798 50.6615 396.01 50.5024C396.225 50.3433 396.406 50.1478 396.552 49.9157C396.701 49.6837 396.804 49.4186 396.86 49.1203L398.719 49.1302C398.65 49.6141 398.499 50.0682 398.267 50.4925C398.038 50.9167 397.738 51.2912 397.367 51.616C396.996 51.9375 396.562 52.1894 396.065 52.3717C395.567 52.5507 395.016 52.6402 394.409 52.6402C393.514 52.6402 392.715 52.433 392.013 52.0187C391.31 51.6044 390.757 51.0062 390.352 50.224C389.948 49.4418 389.746 48.5038 389.746 47.4101C389.746 46.313 389.95 45.375 390.357 44.5961C390.765 43.814 391.32 43.2157 392.023 42.8014C392.725 42.3871 393.521 42.18 394.409 42.18C394.976 42.18 395.503 42.2595 395.99 42.4186C396.477 42.5777 396.911 42.8113 397.293 43.1196C397.674 43.4245 397.987 43.799 398.232 44.2432C398.481 44.684 398.643 45.1878 398.719 45.7545ZM400.329 52.501V44.8646H402.074V46.1373H402.154C402.293 45.6965 402.531 45.3568 402.869 45.1182C403.211 44.8762 403.6 44.7552 404.038 44.7552C404.137 44.7552 404.248 44.7602 404.371 44.7702C404.497 44.7768 404.601 44.7884 404.684 44.805V46.4605C404.608 46.434 404.487 46.4108 404.321 46.3909C404.159 46.3677 404.001 46.3561 403.849 46.3561C403.521 46.3561 403.226 46.4273 402.964 46.5699C402.705 46.7091 402.502 46.903 402.352 47.1515C402.203 47.4001 402.129 47.6868 402.129 48.0116V52.501H400.329ZM408.946 52.6501C408.18 52.6501 407.519 52.491 406.962 52.1729C406.409 51.8514 405.983 51.3973 405.685 50.8106C405.386 50.2207 405.237 49.5263 405.237 48.7275C405.237 47.942 405.386 47.2526 405.685 46.6594C405.986 46.0628 406.407 45.5988 406.947 45.2673C407.488 44.9326 408.122 44.7652 408.852 44.7652C409.322 44.7652 409.766 44.8414 410.184 44.9939C410.605 45.143 410.976 45.375 411.298 45.6899C411.622 46.0048 411.878 46.4058 412.063 46.893C412.249 47.3769 412.342 47.9536 412.342 48.6231V49.175H406.082V47.9619H410.616C410.613 47.6172 410.539 47.3106 410.393 47.0422C410.247 46.7704 410.043 46.5566 409.781 46.4008C409.523 46.2451 409.221 46.1672 408.876 46.1672C408.509 46.1672 408.185 46.2567 407.907 46.4356C407.629 46.6113 407.411 46.8433 407.256 47.1317C407.103 47.4167 407.025 47.7299 407.022 48.0713V49.1302C407.022 49.5744 407.103 49.9555 407.266 50.2737C407.428 50.5886 407.655 50.8305 407.947 50.9996C408.238 51.1653 408.58 51.2481 408.971 51.2481C409.233 51.2481 409.47 51.2117 409.682 51.1388C409.894 51.0625 410.078 50.9515 410.234 50.8057C410.389 50.6598 410.507 50.4792 410.587 50.2638L412.267 50.4527C412.161 50.8968 411.959 51.2846 411.661 51.616C411.366 51.9442 410.988 52.1994 410.527 52.3817C410.066 52.5606 409.539 52.6501 408.946 52.6501ZM416.062 52.6551C415.578 52.6551 415.142 52.5689 414.754 52.3966C414.37 52.2209 414.065 51.9624 413.839 51.621C413.617 51.2796 413.506 50.8587 413.506 50.3582C413.506 49.9273 413.586 49.5711 413.745 49.2893C413.904 49.0076 414.121 48.7822 414.396 48.6132C414.671 48.4442 414.981 48.3166 415.326 48.2304C415.674 48.1409 416.033 48.0763 416.405 48.0365C416.852 47.9901 417.215 47.9487 417.493 47.9122C417.772 47.8724 417.974 47.8128 418.1 47.7332C418.229 47.6504 418.294 47.5228 418.294 47.3504V47.3206C418.294 46.9461 418.183 46.656 417.961 46.4506C417.739 46.2451 417.419 46.1423 417.001 46.1423C416.56 46.1423 416.211 46.2384 415.952 46.4307C415.697 46.6229 415.525 46.8499 415.435 47.1118L413.755 46.8731C413.887 46.4091 414.106 46.0213 414.411 45.7098C414.716 45.3949 415.089 45.1596 415.53 45.0038C415.97 44.8447 416.458 44.7652 416.991 44.7652C417.359 44.7652 417.725 44.8083 418.09 44.8944C418.455 44.9806 418.788 45.1231 419.089 45.322C419.391 45.5175 419.633 45.7844 419.815 46.1224C420.001 46.4605 420.094 46.8831 420.094 47.3902V52.501H418.363V51.452H418.304C418.194 51.6641 418.04 51.863 417.841 52.0486C417.646 52.2309 417.399 52.3783 417.101 52.491C416.806 52.6004 416.459 52.6551 416.062 52.6551ZM416.529 51.3327C416.89 51.3327 417.203 51.2614 417.469 51.1189C417.734 50.973 417.938 50.7808 418.08 50.5422C418.226 50.3035 418.299 50.0434 418.299 49.7616V48.8618C418.242 48.9082 418.146 48.9513 418.01 48.991C417.878 49.0308 417.729 49.0656 417.563 49.0954C417.397 49.1253 417.233 49.1518 417.071 49.175C416.908 49.1982 416.768 49.2181 416.648 49.2346C416.38 49.2711 416.14 49.3308 415.927 49.4136C415.715 49.4965 415.548 49.6125 415.425 49.7616C415.303 49.9075 415.241 50.0964 415.241 50.3284C415.241 50.6598 415.362 50.9101 415.604 51.0791C415.846 51.2481 416.154 51.3327 416.529 51.3327ZM425.716 44.8646V46.2567H421.327V44.8646H425.716ZM422.41 43.0351H424.21V50.2041C424.21 50.4461 424.247 50.6317 424.319 50.7609C424.396 50.8869 424.495 50.973 424.618 51.0194C424.74 51.0658 424.876 51.089 425.025 51.089C425.138 51.089 425.241 51.0808 425.334 51.0642C425.43 51.0476 425.503 51.0327 425.552 51.0194L425.856 52.4264C425.76 52.4595 425.622 52.496 425.443 52.5358C425.267 52.5756 425.052 52.5988 424.797 52.6054C424.346 52.6186 423.94 52.5507 423.579 52.4015C423.217 52.2491 422.931 52.0138 422.719 51.6956C422.51 51.3774 422.407 50.9797 422.41 50.5024V43.0351ZM430.52 52.6501C429.755 52.6501 429.093 52.491 428.537 52.1729C427.983 51.8514 427.557 51.3973 427.259 50.8106C426.961 50.2207 426.811 49.5263 426.811 48.7275C426.811 47.942 426.961 47.2526 427.259 46.6594C427.56 46.0628 427.981 45.5988 428.522 45.2673C429.062 44.9326 429.697 44.7652 430.426 44.7652C430.896 44.7652 431.341 44.8414 431.758 44.9939C432.179 45.143 432.55 45.375 432.872 45.6899C433.197 46.0048 433.452 46.4058 433.637 46.893C433.823 47.3769 433.916 47.9536 433.916 48.6231V49.175H427.657V47.9619H432.191C432.187 47.6172 432.113 47.3106 431.967 47.0422C431.821 46.7704 431.617 46.5566 431.355 46.4008C431.097 46.2451 430.795 46.1672 430.451 46.1672C430.083 46.1672 429.76 46.2567 429.481 46.4356C429.203 46.6113 428.986 46.8433 428.83 47.1317C428.677 47.4167 428.6 47.7299 428.596 48.0713V49.1302C428.596 49.5744 428.677 49.9555 428.84 50.2737C429.002 50.5886 429.229 50.8305 429.521 50.9996C429.813 51.1653 430.154 51.2481 430.545 51.2481C430.807 51.2481 431.044 51.2117 431.256 51.1388C431.468 51.0625 431.652 50.9515 431.808 50.8057C431.964 50.6598 432.081 50.4792 432.161 50.2638L433.841 50.4527C433.735 50.8968 433.533 51.2846 433.235 51.616C432.94 51.9442 432.562 52.1994 432.101 52.3817C431.641 52.5606 431.114 52.6501 430.52 52.6501ZM442.779 44.8646V46.2567H438.265V44.8646H442.779ZM439.393 52.501V44.1437C439.393 43.63 439.499 43.2024 439.711 42.8611C439.927 42.5197 440.215 42.2645 440.577 42.0954C440.938 41.9264 441.339 41.8419 441.78 41.8419C442.091 41.8419 442.368 41.8667 442.61 41.9165C442.852 41.9662 443.031 42.0109 443.147 42.0507L442.789 43.4427C442.713 43.4195 442.617 43.3963 442.501 43.3731C442.385 43.3466 442.255 43.3334 442.113 43.3334C441.778 43.3334 441.541 43.4146 441.402 43.577C441.266 43.7361 441.198 43.9648 441.198 44.2631V52.501H439.393ZM444.188 52.501V44.8646H445.988V52.501H444.188ZM445.093 43.7808C444.808 43.7808 444.563 43.6863 444.357 43.4974C444.152 43.3052 444.049 43.0748 444.049 42.8064C444.049 42.5346 444.152 42.3042 444.357 42.1153C444.563 41.9231 444.808 41.827 445.093 41.827C445.382 41.827 445.627 41.9231 445.829 42.1153C446.035 42.3042 446.137 42.5346 446.137 42.8064C446.137 43.0748 446.035 43.3052 445.829 43.4974C445.627 43.6863 445.382 43.7808 445.093 43.7808ZM449.638 42.3192V52.501H447.839V42.3192H449.638ZM454.87 52.6501C454.104 52.6501 453.443 52.491 452.886 52.1729C452.333 51.8514 451.907 51.3973 451.608 50.8106C451.31 50.2207 451.161 49.5263 451.161 48.7275C451.161 47.942 451.31 47.2526 451.608 46.6594C451.91 46.0628 452.331 45.5988 452.871 45.2673C453.412 44.9326 454.046 44.7652 454.775 44.7652C455.246 44.7652 455.69 44.8414 456.108 44.9939C456.529 45.143 456.9 45.375 457.221 45.6899C457.546 46.0048 457.801 46.4058 457.987 46.893C458.173 47.3769 458.265 47.9536 458.265 48.6231V49.175H452.006V47.9619H456.54C456.537 47.6172 456.462 47.3106 456.317 47.0422C456.171 46.7704 455.967 46.5566 455.705 46.4008C455.447 46.2451 455.145 46.1672 454.8 46.1672C454.432 46.1672 454.109 46.2567 453.831 46.4356C453.552 46.6113 453.335 46.8433 453.18 47.1317C453.027 47.4167 452.949 47.7299 452.946 48.0713V49.1302C452.946 49.5744 453.027 49.9555 453.189 50.2737C453.352 50.5886 453.579 50.8305 453.871 50.9996C454.162 51.1653 454.504 51.2481 454.895 51.2481C455.157 51.2481 455.394 51.2117 455.606 51.1388C455.818 51.0625 456.002 50.9515 456.157 50.8057C456.313 50.6598 456.431 50.4792 456.51 50.2638L458.191 50.4527C458.085 50.8968 457.883 51.2846 457.584 51.616C457.289 51.9442 456.912 52.1994 456.451 52.3817C455.99 52.5606 455.463 52.6501 454.87 52.6501Z" fill="white"/>
<rect x="355.5" y="27.501" width="119" height="39" rx="3.5" stroke="#DA1A5B"/>
<g filter="url(#filter0_d_1107_58531)">
<rect x="-112.666" y="152.131" width="253.333" height="1" fill="#282A3B"/>
<path d="M-112.666 99.001H140.667V152.261H-112.666V99.001Z" fill="#1B1B28"/>
<rect width="253.333" height="79.1011" transform="translate(-112.666 153.001)" fill="#1B1B28"/>
<rect x="140.666" y="152.131" width="253.333" height="1" fill="#282A3B"/>
<path d="M140.666 99.001H393.999V152.261H140.666V99.001Z" fill="#1B1B28"/>
<path d="M180.873 123.742H179.544C179.493 123.458 179.398 123.208 179.258 122.992C179.119 122.776 178.949 122.593 178.747 122.442C178.545 122.292 178.319 122.178 178.069 122.102C177.822 122.025 177.559 121.986 177.281 121.986C176.778 121.986 176.328 122.113 175.93 122.366C175.535 122.619 175.223 122.989 174.993 123.478C174.765 123.967 174.652 124.563 174.652 125.268C174.652 125.978 174.765 126.577 174.993 127.066C175.223 127.555 175.537 127.924 175.934 128.174C176.332 128.424 176.78 128.549 177.277 128.549C177.552 128.549 177.814 128.512 178.061 128.438C178.311 128.361 178.537 128.249 178.738 128.102C178.94 127.954 179.111 127.773 179.25 127.56C179.392 127.344 179.49 127.097 179.544 126.819L180.873 126.823C180.802 127.252 180.665 127.647 180.46 128.008C180.258 128.366 179.998 128.675 179.68 128.937C179.365 129.195 179.004 129.396 178.598 129.538C178.192 129.68 177.748 129.751 177.268 129.751C176.513 129.751 175.839 129.572 175.248 129.214C174.657 128.853 174.192 128.337 173.851 127.667C173.513 126.996 173.344 126.197 173.344 125.268C173.344 124.336 173.514 123.536 173.855 122.869C174.196 122.198 174.662 121.684 175.253 121.326C175.844 120.965 176.515 120.785 177.268 120.785C177.731 120.785 178.163 120.852 178.564 120.985C178.967 121.116 179.329 121.309 179.65 121.565C179.971 121.817 180.237 122.127 180.447 122.494C180.657 122.857 180.8 123.273 180.873 123.742ZM183.889 129.631V120.904H187C187.676 120.904 188.237 121.021 188.683 121.254C189.132 121.486 189.467 121.809 189.689 122.221C189.91 122.63 190.021 123.103 190.021 123.64C190.021 124.174 189.909 124.644 189.684 125.05C189.463 125.454 189.128 125.768 188.679 125.992C188.233 126.217 187.672 126.329 186.996 126.329H184.639V125.195H186.876C187.302 125.195 187.649 125.134 187.916 125.012C188.186 124.89 188.383 124.712 188.508 124.479C188.633 124.246 188.696 123.967 188.696 123.64C188.696 123.31 188.632 123.025 188.504 122.783C188.379 122.542 188.182 122.357 187.912 122.229C187.645 122.099 187.294 122.033 186.859 122.033H185.206V129.631H183.889ZM188.197 125.694L190.354 129.631H188.854L186.74 125.694H188.197ZM193.063 129.631V120.904H198.535V122.038H194.38V124.697H198.249V125.826H194.38V128.498H198.586V129.631H193.063ZM202.471 129.631H201.073L204.214 120.904H205.735L208.876 129.631H207.478L205.011 122.489H204.943L202.471 129.631ZM202.705 126.214H207.24V127.322H202.705V126.214ZM210.115 122.038V120.904H216.869V122.038H214.146V129.631H212.833V122.038H210.115ZM219.801 129.631V120.904H225.273V122.038H221.118V124.697H224.987V125.826H221.118V128.498H225.324V129.631H219.801ZM231.297 129.631H228.472V120.904H231.387C232.242 120.904 232.976 121.079 233.59 121.428C234.203 121.775 234.674 122.273 235 122.924C235.33 123.572 235.495 124.349 235.495 125.255C235.495 126.164 235.328 126.945 234.996 127.599C234.666 128.252 234.189 128.755 233.564 129.107C232.939 129.457 232.184 129.631 231.297 129.631ZM229.789 128.481H231.225C231.889 128.481 232.442 128.356 232.882 128.106C233.323 127.853 233.652 127.488 233.871 127.011C234.09 126.53 234.199 125.945 234.199 125.255C234.199 124.57 234.09 123.989 233.871 123.512C233.655 123.035 233.333 122.673 232.904 122.425C232.475 122.178 231.942 122.055 231.306 122.055H229.789V128.481Z" fill="#C4C6D7"/>
<rect width="253.333" height="79.1011" transform="translate(140.666 153.001)" fill="#1B1B28"/>
<rect x="394" y="152.131" width="80" height="1" fill="#282A3B"/>
<path d="M394 99.001H458C466.837 99.001 474 106.164 474 115.001V152.261H394V99.001Z" fill="#1B1B28"/>
<rect width="80" height="79.1011" transform="translate(394 153.001)" fill="#1B1B28"/>
<rect x="-686.5" y="98.501" width="1161" height="455" rx="16.5" stroke="#282A3B"/>
</g>
</g>
</g>
<rect x="0.5" y="0.500977" width="469" height="171" rx="16.5" stroke="#282A3B"/>
<defs>
<filter id="filter0_d_1107_58531" x="-719" y="82.001" width="1226" height="520" filterUnits="userSpaceOnUse" color-interpolation-filters="sRGB">
<feFlood flood-opacity="0" result="BackgroundImageFix"/>
<feColorMatrix in="SourceAlpha" type="matrix" values="0 0 0 0 0 0 0 0 0 0 0 0 0 0 0 0 0 0 127 0" result="hardAlpha"/>
<feOffset dy="16"/>
<feGaussianBlur stdDeviation="16"/>
<feColorMatrix type="matrix" values="0 0 0 0 0.215686 0 0 0 0 0.231373 0 0 0 0 0.301961 0 0 0 0.02 0"/>
<feBlend mode="normal" in2="BackgroundImageFix" result="effect1_dropShadow_1107_58531"/>
<feBlend mode="normal" in="SourceGraphic" in2="effect1_dropShadow_1107_58531" result="shape"/>
</filter>
<clipPath id="clip0_1107_58531">
<rect x="1" y="1.00098" width="468" height="170" rx="16" fill="white"/>
</clipPath>
<clipPath id="clip1_1107_58531">
<rect width="1725" height="1111" fill="white" transform="translate(-1069 -269.999)"/>
</clipPath>
</defs>
</svg>
