<svg width="470" height="172" viewBox="0 0 470 172" fill="none" xmlns="http://www.w3.org/2000/svg">
<g clip-path="url(#clip0_1107_58558)">
<rect x="1" y="1.00098" width="567" height="393" rx="16" fill="#FCFCFF"/>
<g clip-path="url(#clip1_1107_58558)">
<rect width="1725" height="1111" transform="translate(-1069 -269.999)" fill="#14141F"/>
<rect x="204.5" y="27.501" width="270" height="39" rx="3.5" fill="#DA1A5B"/>
<path fill-rule="evenodd" clip-rule="evenodd" d="M218.752 39.2533C218.377 39.6283 218.166 40.137 218.166 40.6675V52.6675C218.166 53.1979 218.377 53.7066 218.752 54.0817C219.127 54.4568 219.636 54.6675 220.166 54.6675H228.166C228.696 54.6675 229.205 54.4568 229.58 54.0817C229.955 53.7066 230.166 53.1979 230.166 52.6675V45.3818H226.366C225.261 45.3818 224.366 44.4863 224.366 43.3818L226.366 43.3818H230.039C229.94 43.116 229.784 42.8719 229.58 42.6675L226.366 39.4535V43.3818H224.366V38.6675H220.166C219.636 38.6675 219.127 38.8782 218.752 39.2533Z" fill="white"/>
<path d="M247.719 45.7545H245.86C245.807 45.4496 245.709 45.1795 245.567 44.9442C245.424 44.7055 245.247 44.5033 245.035 44.3376C244.823 44.1719 244.581 44.0476 244.309 43.9648C244.04 43.8786 243.75 43.8355 243.439 43.8355C242.885 43.8355 242.395 43.9747 241.967 44.2531C241.54 44.5282 241.205 44.9326 240.963 45.4662C240.721 45.9965 240.6 46.6444 240.6 47.4101C240.6 48.189 240.721 48.8452 240.963 49.3788C241.208 49.9091 241.543 50.3102 241.967 50.5819C242.395 50.8504 242.884 50.9846 243.434 50.9846C243.739 50.9846 244.024 50.9449 244.289 50.8653C244.558 50.7825 244.798 50.6615 245.01 50.5024C245.225 50.3433 245.406 50.1478 245.552 49.9157C245.701 49.6837 245.804 49.4186 245.86 49.1203L247.719 49.1302C247.65 49.6141 247.499 50.0682 247.267 50.4925C247.038 50.9167 246.738 51.2912 246.367 51.616C245.996 51.9375 245.562 52.1894 245.065 52.3717C244.567 52.5507 244.016 52.6402 243.409 52.6402C242.514 52.6402 241.715 52.433 241.013 52.0187C240.31 51.6044 239.757 51.0062 239.352 50.224C238.948 49.4418 238.746 48.5038 238.746 47.4101C238.746 46.313 238.95 45.375 239.357 44.5961C239.765 43.814 240.32 43.2157 241.023 42.8014C241.725 42.3871 242.521 42.18 243.409 42.18C243.976 42.18 244.503 42.2595 244.99 42.4186C245.477 42.5777 245.911 42.8113 246.293 43.1196C246.674 43.4245 246.987 43.799 247.232 44.2432C247.481 44.684 247.643 45.1878 247.719 45.7545ZM249.329 52.501V44.8646H251.074V46.1373H251.154C251.293 45.6965 251.531 45.3568 251.869 45.1182C252.211 44.8762 252.6 44.7552 253.038 44.7552C253.137 44.7552 253.248 44.7602 253.371 44.7702C253.497 44.7768 253.601 44.7884 253.684 44.805V46.4605C253.608 46.434 253.487 46.4108 253.321 46.3909C253.159 46.3677 253.001 46.3561 252.849 46.3561C252.521 46.3561 252.226 46.4273 251.964 46.5699C251.705 46.7091 251.502 46.903 251.352 47.1515C251.203 47.4001 251.129 47.6868 251.129 48.0116V52.501H249.329ZM257.946 52.6501C257.18 52.6501 256.519 52.491 255.962 52.1729C255.409 51.8514 254.983 51.3973 254.685 50.8106C254.386 50.2207 254.237 49.5263 254.237 48.7275C254.237 47.942 254.386 47.2526 254.685 46.6594C254.986 46.0628 255.407 45.5988 255.947 45.2673C256.488 44.9326 257.122 44.7652 257.852 44.7652C258.322 44.7652 258.766 44.8414 259.184 44.9939C259.605 45.143 259.976 45.375 260.298 45.6899C260.622 46.0048 260.878 46.4058 261.063 46.893C261.249 47.3769 261.342 47.9536 261.342 48.6231V49.175H255.082V47.9619H259.616C259.613 47.6172 259.539 47.3106 259.393 47.0422C259.247 46.7704 259.043 46.5566 258.781 46.4008C258.523 46.2451 258.221 46.1672 257.876 46.1672C257.509 46.1672 257.185 46.2567 256.907 46.4356C256.629 46.6113 256.411 46.8433 256.256 47.1317C256.103 47.4167 256.025 47.7299 256.022 48.0713V49.1302C256.022 49.5744 256.103 49.9555 256.266 50.2737C256.428 50.5886 256.655 50.8305 256.947 50.9996C257.238 51.1653 257.58 51.2481 257.971 51.2481C258.233 51.2481 258.47 51.2117 258.682 51.1388C258.894 51.0625 259.078 50.9515 259.234 50.8057C259.389 50.6598 259.507 50.4792 259.587 50.2638L261.267 50.4527C261.161 50.8968 260.959 51.2846 260.661 51.616C260.366 51.9442 259.988 52.1994 259.527 52.3817C259.066 52.5606 258.539 52.6501 257.946 52.6501ZM265.062 52.6551C264.578 52.6551 264.142 52.5689 263.754 52.3966C263.37 52.2209 263.065 51.9624 262.839 51.621C262.617 51.2796 262.506 50.8587 262.506 50.3582C262.506 49.9273 262.586 49.5711 262.745 49.2893C262.904 49.0076 263.121 48.7822 263.396 48.6132C263.671 48.4442 263.981 48.3166 264.326 48.2304C264.674 48.1409 265.033 48.0763 265.405 48.0365C265.852 47.9901 266.215 47.9487 266.493 47.9122C266.772 47.8724 266.974 47.8128 267.1 47.7332C267.229 47.6504 267.294 47.5228 267.294 47.3504V47.3206C267.294 46.9461 267.183 46.656 266.961 46.4506C266.739 46.2451 266.419 46.1423 266.001 46.1423C265.56 46.1423 265.211 46.2384 264.952 46.4307C264.697 46.6229 264.525 46.8499 264.435 47.1118L262.755 46.8731C262.887 46.4091 263.106 46.0213 263.411 45.7098C263.716 45.3949 264.089 45.1596 264.53 45.0038C264.97 44.8447 265.458 44.7652 265.991 44.7652C266.359 44.7652 266.725 44.8083 267.09 44.8944C267.455 44.9806 267.788 45.1231 268.089 45.322C268.391 45.5175 268.633 45.7844 268.815 46.1224C269.001 46.4605 269.094 46.8831 269.094 47.3902V52.501H267.363V51.452H267.304C267.194 51.6641 267.04 51.863 266.841 52.0486C266.646 52.2309 266.399 52.3783 266.101 52.491C265.806 52.6004 265.459 52.6551 265.062 52.6551ZM265.529 51.3327C265.89 51.3327 266.203 51.2614 266.469 51.1189C266.734 50.973 266.938 50.7808 267.08 50.5422C267.226 50.3035 267.299 50.0434 267.299 49.7616V48.8618C267.242 48.9082 267.146 48.9513 267.01 48.991C266.878 49.0308 266.729 49.0656 266.563 49.0954C266.397 49.1253 266.233 49.1518 266.071 49.175C265.908 49.1982 265.768 49.2181 265.648 49.2346C265.38 49.2711 265.14 49.3308 264.927 49.4136C264.715 49.4965 264.548 49.6125 264.425 49.7616C264.303 49.9075 264.241 50.0964 264.241 50.3284C264.241 50.6598 264.362 50.9101 264.604 51.0791C264.846 51.2481 265.154 51.3327 265.529 51.3327ZM274.716 44.8646V46.2567H270.327V44.8646H274.716ZM271.41 43.0351H273.21V50.2041C273.21 50.4461 273.247 50.6317 273.319 50.7609C273.396 50.8869 273.495 50.973 273.618 51.0194C273.74 51.0658 273.876 51.089 274.025 51.089C274.138 51.089 274.241 51.0808 274.334 51.0642C274.43 51.0476 274.503 51.0327 274.552 51.0194L274.856 52.4264C274.76 52.4595 274.622 52.496 274.443 52.5358C274.267 52.5756 274.052 52.5988 273.797 52.6054C273.346 52.6186 272.94 52.5507 272.579 52.4015C272.217 52.2491 271.931 52.0138 271.719 51.6956C271.51 51.3774 271.407 50.9797 271.41 50.5024V43.0351ZM279.52 52.6501C278.755 52.6501 278.093 52.491 277.537 52.1729C276.983 51.8514 276.557 51.3973 276.259 50.8106C275.961 50.2207 275.811 49.5263 275.811 48.7275C275.811 47.942 275.961 47.2526 276.259 46.6594C276.56 46.0628 276.981 45.5988 277.522 45.2673C278.062 44.9326 278.697 44.7652 279.426 44.7652C279.896 44.7652 280.341 44.8414 280.758 44.9939C281.179 45.143 281.55 45.375 281.872 45.6899C282.197 46.0048 282.452 46.4058 282.637 46.893C282.823 47.3769 282.916 47.9536 282.916 48.6231V49.175H276.657V47.9619H281.191C281.187 47.6172 281.113 47.3106 280.967 47.0422C280.821 46.7704 280.617 46.5566 280.355 46.4008C280.097 46.2451 279.795 46.1672 279.451 46.1672C279.083 46.1672 278.76 46.2567 278.481 46.4356C278.203 46.6113 277.986 46.8433 277.83 47.1317C277.677 47.4167 277.6 47.7299 277.596 48.0713V49.1302C277.596 49.5744 277.677 49.9555 277.84 50.2737C278.002 50.5886 278.229 50.8305 278.521 50.9996C278.813 51.1653 279.154 51.2481 279.545 51.2481C279.807 51.2481 280.044 51.2117 280.256 51.1388C280.468 51.0625 280.652 50.9515 280.808 50.8057C280.964 50.6598 281.081 50.4792 281.161 50.2638L282.841 50.4527C282.735 50.8968 282.533 51.2846 282.235 51.616C281.94 51.9442 281.562 52.1994 281.101 52.3817C280.641 52.5606 280.114 52.6501 279.52 52.6501ZM290.108 52.6551C289.625 52.6551 289.189 52.5689 288.801 52.3966C288.416 52.2209 288.112 51.9624 287.886 51.621C287.664 51.2796 287.553 50.8587 287.553 50.3582C287.553 49.9273 287.633 49.5711 287.792 49.2893C287.951 49.0076 288.168 48.7822 288.443 48.6132C288.718 48.4442 289.028 48.3166 289.373 48.2304C289.721 48.1409 290.08 48.0763 290.452 48.0365C290.899 47.9901 291.262 47.9487 291.54 47.9122C291.819 47.8724 292.021 47.8128 292.147 47.7332C292.276 47.6504 292.341 47.5228 292.341 47.3504V47.3206C292.341 46.9461 292.23 46.656 292.008 46.4506C291.786 46.2451 291.466 46.1423 291.048 46.1423C290.607 46.1423 290.258 46.2384 289.999 46.4307C289.744 46.6229 289.572 46.8499 289.482 47.1118L287.802 46.8731C287.934 46.4091 288.153 46.0213 288.458 45.7098C288.763 45.3949 289.136 45.1596 289.577 45.0038C290.017 44.8447 290.505 44.7652 291.038 44.7652C291.406 44.7652 291.772 44.8083 292.137 44.8944C292.501 44.9806 292.835 45.1231 293.136 45.322C293.438 45.5175 293.68 45.7844 293.862 46.1224C294.048 46.4605 294.14 46.8831 294.14 47.3902V52.501H292.41V51.452H292.351C292.241 51.6641 292.087 51.863 291.888 52.0486C291.693 52.2309 291.446 52.3783 291.148 52.491C290.853 52.6004 290.506 52.6551 290.108 52.6551ZM290.576 51.3327C290.937 51.3327 291.25 51.2614 291.515 51.1189C291.781 50.973 291.984 50.7808 292.127 50.5422C292.273 50.3035 292.346 50.0434 292.346 49.7616V48.8618C292.289 48.9082 292.193 48.9513 292.057 48.991C291.925 49.0308 291.776 49.0656 291.61 49.0954C291.444 49.1253 291.28 49.1518 291.118 49.175C290.955 49.1982 290.814 49.2181 290.695 49.2346C290.427 49.2711 290.186 49.3308 289.974 49.4136C289.762 49.4965 289.595 49.6125 289.472 49.7616C289.349 49.9075 289.288 50.0964 289.288 50.3284C289.288 50.6598 289.409 50.9101 289.651 51.0791C289.893 51.2481 290.201 51.3327 290.576 51.3327ZM307.869 42.3192V52.501H306.229L301.431 45.5656H301.347V52.501H299.502V42.3192H301.153L305.945 49.2595H306.035V42.3192H307.869ZM313.18 52.6501C312.415 52.6501 311.754 52.491 311.197 52.1729C310.643 51.8514 310.217 51.3973 309.919 50.8106C309.621 50.2207 309.472 49.5263 309.472 48.7275C309.472 47.942 309.621 47.2526 309.919 46.6594C310.221 46.0628 310.642 45.5988 311.182 45.2673C311.722 44.9326 312.357 44.7652 313.086 44.7652C313.557 44.7652 314.001 44.8414 314.418 44.9939C314.839 45.143 315.21 45.375 315.532 45.6899C315.857 46.0048 316.112 46.4058 316.298 46.893C316.483 47.3769 316.576 47.9536 316.576 48.6231V49.175H310.317V47.9619H314.851C314.848 47.6172 314.773 47.3106 314.627 47.0422C314.481 46.7704 314.277 46.5566 314.016 46.4008C313.757 46.2451 313.455 46.1672 313.111 46.1672C312.743 46.1672 312.42 46.2567 312.141 46.4356C311.863 46.6113 311.646 46.8433 311.49 47.1317C311.338 47.4167 311.26 47.7299 311.256 48.0713V49.1302C311.256 49.5744 311.338 49.9555 311.5 50.2737C311.662 50.5886 311.889 50.8305 312.181 50.9996C312.473 51.1653 312.814 51.2481 313.205 51.2481C313.467 51.2481 313.704 51.2117 313.916 51.1388C314.128 51.0625 314.312 50.9515 314.468 50.8057C314.624 50.6598 314.741 50.4792 314.821 50.2638L316.501 50.4527C316.395 50.8968 316.193 51.2846 315.895 51.616C315.6 51.9442 315.222 52.1994 314.761 52.3817C314.301 52.5606 313.774 52.6501 313.18 52.6501ZM319.634 52.501L317.476 44.8646H319.31L320.653 50.2339H320.722L322.094 44.8646H323.909L325.281 50.2041H325.356L326.678 44.8646H328.518L326.355 52.501H324.481L323.049 47.3405H322.945L321.513 52.501H319.634ZM333.327 52.501V42.3192H339.849V43.8653H335.171V46.6295H339.402V48.1757H335.171V52.501H333.327ZM341.45 52.501V44.8646H343.25V52.501H341.45ZM342.355 43.7808C342.07 43.7808 341.825 43.6863 341.619 43.4974C341.414 43.3052 341.311 43.0748 341.311 42.8064C341.311 42.5346 341.414 42.3042 341.619 42.1153C341.825 41.9231 342.07 41.827 342.355 41.827C342.643 41.827 342.889 41.9231 343.091 42.1153C343.296 42.3042 343.399 42.5346 343.399 42.8064C343.399 43.0748 343.296 43.3052 343.091 43.4974C342.889 43.6863 342.643 43.7808 342.355 43.7808ZM346.9 42.3192V52.501H345.1V42.3192H346.9ZM352.132 52.6501C351.366 52.6501 350.705 52.491 350.148 52.1729C349.594 51.8514 349.169 51.3973 348.87 50.8106C348.572 50.2207 348.423 49.5263 348.423 48.7275C348.423 47.942 348.572 47.2526 348.87 46.6594C349.172 46.0628 349.593 45.5988 350.133 45.2673C350.673 44.9326 351.308 44.7652 352.037 44.7652C352.508 44.7652 352.952 44.8414 353.369 44.9939C353.79 45.143 354.162 45.375 354.483 45.6899C354.808 46.0048 355.063 46.4058 355.249 46.893C355.434 47.3769 355.527 47.9536 355.527 48.6231V49.175H349.268V47.9619H353.802C353.799 47.6172 353.724 47.3106 353.578 47.0422C353.432 46.7704 353.229 46.5566 352.967 46.4008C352.708 46.2451 352.407 46.1672 352.062 46.1672C351.694 46.1672 351.371 46.2567 351.093 46.4356C350.814 46.6113 350.597 46.8433 350.441 47.1317C350.289 47.4167 350.211 47.7299 350.208 48.0713V49.1302C350.208 49.5744 350.289 49.9555 350.451 50.2737C350.614 50.5886 350.841 50.8305 351.132 50.9996C351.424 51.1653 351.765 51.2481 352.156 51.2481C352.418 51.2481 352.655 51.2117 352.867 51.1388C353.079 51.0625 353.263 50.9515 353.419 50.8057C353.575 50.6598 353.693 50.4792 353.772 50.2638L355.453 50.4527C355.347 50.8968 355.144 51.2846 354.846 51.616C354.551 51.9442 354.173 52.1994 353.713 52.3817C353.252 52.5606 352.725 52.6501 352.132 52.6501ZM364.336 44.8646V46.2567H359.946V44.8646H364.336ZM361.029 43.0351H362.829V50.2041C362.829 50.4461 362.866 50.6317 362.939 50.7609C363.015 50.8869 363.114 50.973 363.237 51.0194C363.359 51.0658 363.495 51.089 363.645 51.089C363.757 51.089 363.86 51.0808 363.953 51.0642C364.049 51.0476 364.122 51.0327 364.172 51.0194L364.475 52.4264C364.379 52.4595 364.241 52.496 364.062 52.5358C363.886 52.5756 363.671 52.5988 363.416 52.6054C362.965 52.6186 362.559 52.5507 362.198 52.4015C361.837 52.2491 361.55 52.0138 361.338 51.6956C361.129 51.3774 361.026 50.9797 361.029 50.5024V43.0351ZM369.09 52.6501C368.344 52.6501 367.698 52.4861 367.151 52.1579C366.604 51.8298 366.18 51.3708 365.878 50.7808C365.58 50.1908 365.431 49.5015 365.431 48.7126C365.431 47.9238 365.58 47.2327 365.878 46.6395C366.18 46.0462 366.604 45.5855 367.151 45.2574C367.698 44.9292 368.344 44.7652 369.09 44.7652C369.835 44.7652 370.482 44.9292 371.029 45.2574C371.575 45.5855 371.998 46.0462 372.296 46.6395C372.598 47.2327 372.749 47.9238 372.749 48.7126C372.749 49.5015 372.598 50.1908 372.296 50.7808C371.998 51.3708 371.575 51.8298 371.029 52.1579C370.482 52.4861 369.835 52.6501 369.09 52.6501ZM369.1 51.2084C369.504 51.2084 369.842 51.0973 370.114 50.8753C370.386 50.6499 370.588 50.3483 370.72 49.9704C370.856 49.5926 370.924 49.1717 370.924 48.7077C370.924 48.2403 370.856 47.8177 370.72 47.4399C370.588 47.0587 370.386 46.7555 370.114 46.5301C369.842 46.3047 369.504 46.192 369.1 46.192C368.685 46.192 368.341 46.3047 368.066 46.5301C367.794 46.7555 367.59 47.0587 367.454 47.4399C367.321 47.8177 367.255 48.2403 367.255 48.7077C367.255 49.1717 367.321 49.5926 367.454 49.9704C367.59 50.3483 367.794 50.6499 368.066 50.8753C368.341 51.0973 368.685 51.2084 369.1 51.2084ZM377.132 42.3192H379.216L381.706 46.8234H381.806L384.297 42.3192H386.38L382.676 48.7027V52.501H380.836V48.7027L377.132 42.3192ZM389.515 52.6501C388.77 52.6501 388.123 52.4861 387.577 52.1579C387.03 51.8298 386.605 51.3708 386.304 50.7808C386.006 50.1908 385.856 49.5015 385.856 48.7126C385.856 47.9238 386.006 47.2327 386.304 46.6395C386.605 46.0462 387.03 45.5855 387.577 45.2574C388.123 44.9292 388.77 44.7652 389.515 44.7652C390.261 44.7652 390.907 44.9292 391.454 45.2574C392.001 45.5855 392.424 46.0462 392.722 46.6395C393.024 47.2327 393.175 47.9238 393.175 48.7126C393.175 49.5015 393.024 50.1908 392.722 50.7808C392.424 51.3708 392.001 51.8298 391.454 52.1579C390.907 52.4861 390.261 52.6501 389.515 52.6501ZM389.525 51.2084C389.93 51.2084 390.268 51.0973 390.54 50.8753C390.811 50.6499 391.014 50.3483 391.146 49.9704C391.282 49.5926 391.35 49.1717 391.35 48.7077C391.35 48.2403 391.282 47.8177 391.146 47.4399C391.014 47.0587 390.811 46.7555 390.54 46.5301C390.268 46.3047 389.93 46.192 389.525 46.192C389.111 46.192 388.766 46.3047 388.491 46.5301C388.22 46.7555 388.016 47.0587 387.88 47.4399C387.747 47.8177 387.681 48.2403 387.681 48.7077C387.681 49.1717 387.747 49.5926 387.88 49.9704C388.016 50.3483 388.22 50.6499 388.491 50.8753C388.766 51.0973 389.111 51.2084 389.525 51.2084ZM399.569 49.2893V44.8646H401.369V52.501H399.624V51.1437H399.544C399.372 51.5713 399.089 51.921 398.694 52.1927C398.303 52.4645 397.821 52.6004 397.248 52.6004C396.747 52.6004 396.305 52.4894 395.92 52.2673C395.539 52.0419 395.241 51.7155 395.025 51.2879C394.81 50.857 394.702 50.3367 394.702 49.7268V44.8646H396.502V49.4484C396.502 49.9323 396.634 50.3168 396.9 50.6018C397.165 50.8869 397.513 51.0294 397.944 51.0294C398.209 51.0294 398.466 50.9648 398.714 50.8355C398.963 50.7062 399.167 50.514 399.326 50.2588C399.488 50.0003 399.569 49.6771 399.569 49.2893ZM403.22 52.501V44.8646H404.965V46.1373H405.044C405.183 45.6965 405.422 45.3568 405.76 45.1182C406.102 44.8762 406.491 44.7552 406.928 44.7552C407.028 44.7552 407.139 44.7602 407.262 44.7702C407.387 44.7768 407.492 44.7884 407.575 44.805V46.4605C407.499 46.434 407.378 46.4108 407.212 46.3909C407.049 46.3677 406.892 46.3561 406.74 46.3561C406.411 46.3561 406.116 46.4273 405.855 46.5699C405.596 46.7091 405.392 46.903 405.243 47.1515C405.094 47.4001 405.019 47.6868 405.019 48.0116V52.501H403.22ZM412.323 52.501V42.3192H416.22C416.956 42.3192 417.568 42.4352 418.055 42.6672C418.545 42.8959 418.912 43.2091 419.154 43.6068C419.399 44.0045 419.521 44.4553 419.521 44.9591C419.521 45.3734 419.442 45.728 419.283 46.023C419.124 46.3147 418.91 46.5516 418.642 46.7339C418.373 46.9162 418.073 47.0471 417.742 47.1267V47.2261C418.103 47.246 418.449 47.357 418.781 47.5592C419.115 47.7581 419.389 48.0398 419.601 48.4044C419.813 48.769 419.919 49.2098 419.919 49.7268C419.919 50.2538 419.792 50.7278 419.536 51.1487C419.281 51.5663 418.897 51.8961 418.383 52.1381C417.869 52.38 417.223 52.501 416.444 52.501H412.323ZM414.167 50.9598H416.151C416.82 50.9598 417.302 50.8322 417.597 50.577C417.896 50.3184 418.045 49.987 418.045 49.5827C418.045 49.281 417.97 49.0093 417.821 48.7673C417.672 48.522 417.46 48.3298 417.185 48.1906C416.91 48.0481 416.582 47.9768 416.2 47.9768H414.167V50.9598ZM414.167 46.6494H415.992C416.31 46.6494 416.597 46.5914 416.852 46.4754C417.107 46.3561 417.307 46.1887 417.453 45.9733C417.602 45.7545 417.677 45.496 417.677 45.1977C417.677 44.8033 417.538 44.4785 417.259 44.2233C416.984 43.9681 416.575 43.8405 416.031 43.8405H414.167V46.6494ZM426.311 49.2893V44.8646H428.111V52.501H426.366V51.1437H426.287C426.114 51.5713 425.831 51.921 425.436 52.1927C425.045 52.4645 424.563 52.6004 423.99 52.6004C423.489 52.6004 423.047 52.4894 422.662 52.2673C422.281 52.0419 421.983 51.7155 421.767 51.2879C421.552 50.857 421.444 50.3367 421.444 49.7268V44.8646H423.244V49.4484C423.244 49.9323 423.377 50.3168 423.642 50.6018C423.907 50.8869 424.255 51.0294 424.686 51.0294C424.951 51.0294 425.208 50.9648 425.456 50.8355C425.705 50.7062 425.909 50.514 426.068 50.2588C426.23 50.0003 426.311 49.6771 426.311 49.2893ZM433.293 52.6501C432.53 52.6501 431.876 52.4827 431.329 52.148C430.785 51.8132 430.366 51.3509 430.071 50.7609C429.78 50.1676 429.634 49.4849 429.634 48.7126C429.634 47.9371 429.783 47.2526 430.081 46.6594C430.379 46.0628 430.8 45.5988 431.344 45.2673C431.891 44.9326 432.537 44.7652 433.283 44.7652C433.903 44.7652 434.451 44.8795 434.928 45.1082C435.409 45.3336 435.792 45.6534 436.077 46.0677C436.362 46.4787 436.524 46.9593 436.564 47.5095H434.844C434.774 47.1416 434.609 46.835 434.347 46.5898C434.088 46.3412 433.742 46.2169 433.308 46.2169C432.94 46.2169 432.617 46.3163 432.338 46.5152C432.06 46.7107 431.843 46.9925 431.687 47.3604C431.535 47.7282 431.458 48.1691 431.458 48.6828C431.458 49.2032 431.535 49.6506 431.687 50.0251C431.839 50.3963 432.053 50.683 432.328 50.8852C432.607 51.0841 432.933 51.1835 433.308 51.1835C433.573 51.1835 433.81 51.1338 434.019 51.0344C434.231 50.9316 434.408 50.7841 434.551 50.5919C434.693 50.3997 434.791 50.166 434.844 49.8909H436.564C436.521 50.4311 436.362 50.9101 436.087 51.3277C435.812 51.742 435.437 52.0668 434.963 52.3021C434.489 52.5341 433.932 52.6501 433.293 52.6501ZM439.683 50.1047L439.678 47.9321H439.966L442.71 44.8646H444.813L441.438 48.6231H441.065L439.683 50.1047ZM438.042 52.501V42.3192H439.842V52.501H438.042ZM442.835 52.501L440.349 49.0258L441.562 47.7581L444.987 52.501H442.835ZM449.079 52.6501C448.313 52.6501 447.652 52.491 447.095 52.1729C446.542 51.8514 446.116 51.3973 445.817 50.8106C445.519 50.2207 445.37 49.5263 445.37 48.7275C445.37 47.942 445.519 47.2526 445.817 46.6594C446.119 46.0628 446.54 45.5988 447.08 45.2673C447.621 44.9326 448.255 44.7652 448.984 44.7652C449.455 44.7652 449.899 44.8414 450.317 44.9939C450.738 45.143 451.109 45.375 451.43 45.6899C451.755 46.0048 452.01 46.4058 452.196 46.893C452.382 47.3769 452.474 47.9536 452.474 48.6231V49.175H446.215V47.9619H450.749C450.746 47.6172 450.671 47.3106 450.526 47.0422C450.38 46.7704 450.176 46.5566 449.914 46.4008C449.656 46.2451 449.354 46.1672 449.009 46.1672C448.641 46.1672 448.318 46.2567 448.04 46.4356C447.761 46.6113 447.544 46.8433 447.388 47.1317C447.236 47.4167 447.158 47.7299 447.155 48.0713V49.1302C447.155 49.5744 447.236 49.9555 447.398 50.2737C447.561 50.5886 447.788 50.8305 448.08 50.9996C448.371 51.1653 448.713 51.2481 449.104 51.2481C449.366 51.2481 449.603 51.2117 449.815 51.1388C450.027 51.0625 450.211 50.9515 450.366 50.8057C450.522 50.6598 450.64 50.4792 450.719 50.2638L452.4 50.4527C452.294 50.8968 452.092 51.2846 451.793 51.616C451.498 51.9442 451.121 52.1994 450.66 52.3817C450.199 52.5606 449.672 52.6501 449.079 52.6501ZM457.81 44.8646V46.2567H453.42V44.8646H457.81ZM454.504 43.0351H456.304V50.2041C456.304 50.4461 456.34 50.6317 456.413 50.7609C456.489 50.8869 456.589 50.973 456.711 51.0194C456.834 51.0658 456.97 51.089 457.119 51.089C457.232 51.089 457.335 51.0808 457.427 51.0642C457.523 51.0476 457.596 51.0327 457.646 51.0194L457.949 52.4264C457.853 52.4595 457.716 52.496 457.537 52.5358C457.361 52.5756 457.146 52.5988 456.89 52.6054C456.44 52.6186 456.034 52.5507 455.672 52.4015C455.311 52.2491 455.024 52.0138 454.812 51.6956C454.604 51.3774 454.501 50.9797 454.504 50.5024V43.0351Z" fill="white"/>
<rect x="204.5" y="27.501" width="270" height="39" rx="3.5" stroke="#C00D53"/>
<g filter="url(#filter0_d_1107_58558)">
<rect x="-112.666" y="152.131" width="253.333" height="1" fill="#282A3B"/>
<path d="M-112.666 99.001H140.667V152.261H-112.666V99.001Z" fill="#1B1B28"/>
<rect width="253.333" height="79.1011" transform="translate(-112.666 153.001)" fill="#1B1B28"/>
<rect x="140.666" y="152.131" width="253.333" height="1" fill="#282A3B"/>
<path d="M140.666 99.001H393.999V152.261H140.666V99.001Z" fill="#1B1B28"/>
<path d="M180.873 123.742H179.544C179.493 123.458 179.398 123.208 179.258 122.992C179.119 122.776 178.949 122.593 178.747 122.442C178.545 122.292 178.319 122.178 178.069 122.102C177.822 122.025 177.559 121.986 177.281 121.986C176.778 121.986 176.328 122.113 175.93 122.366C175.535 122.619 175.223 122.989 174.993 123.478C174.765 123.967 174.652 124.563 174.652 125.268C174.652 125.978 174.765 126.577 174.993 127.066C175.223 127.555 175.537 127.924 175.934 128.174C176.332 128.424 176.78 128.549 177.277 128.549C177.552 128.549 177.814 128.512 178.061 128.438C178.311 128.361 178.537 128.249 178.738 128.102C178.94 127.954 179.111 127.773 179.25 127.56C179.392 127.344 179.49 127.097 179.544 126.819L180.873 126.823C180.802 127.252 180.665 127.647 180.46 128.008C180.258 128.366 179.998 128.675 179.68 128.937C179.365 129.195 179.004 129.396 178.598 129.538C178.192 129.68 177.748 129.751 177.268 129.751C176.513 129.751 175.839 129.572 175.248 129.214C174.657 128.853 174.192 128.337 173.851 127.667C173.513 126.996 173.344 126.197 173.344 125.268C173.344 124.336 173.514 123.536 173.855 122.869C174.196 122.198 174.662 121.684 175.253 121.326C175.844 120.965 176.515 120.785 177.268 120.785C177.731 120.785 178.163 120.852 178.564 120.985C178.967 121.116 179.329 121.309 179.65 121.565C179.971 121.817 180.237 122.127 180.447 122.494C180.657 122.857 180.8 123.273 180.873 123.742ZM183.889 129.631V120.904H187C187.676 120.904 188.237 121.021 188.683 121.254C189.132 121.486 189.467 121.809 189.689 122.221C189.91 122.63 190.021 123.103 190.021 123.64C190.021 124.174 189.909 124.644 189.684 125.05C189.463 125.454 189.128 125.768 188.679 125.992C188.233 126.217 187.672 126.329 186.996 126.329H184.639V125.195H186.876C187.302 125.195 187.649 125.134 187.916 125.012C188.186 124.89 188.383 124.712 188.508 124.479C188.633 124.246 188.696 123.967 188.696 123.64C188.696 123.31 188.632 123.025 188.504 122.783C188.379 122.542 188.182 122.357 187.912 122.229C187.645 122.099 187.294 122.033 186.859 122.033H185.206V129.631H183.889ZM188.197 125.694L190.354 129.631H188.854L186.74 125.694H188.197ZM193.063 129.631V120.904H198.535V122.038H194.38V124.697H198.249V125.826H194.38V128.498H198.586V129.631H193.063ZM202.471 129.631H201.073L204.214 120.904H205.735L208.876 129.631H207.478L205.011 122.489H204.943L202.471 129.631ZM202.705 126.214H207.24V127.322H202.705V126.214ZM210.115 122.038V120.904H216.869V122.038H214.146V129.631H212.833V122.038H210.115ZM219.801 129.631V120.904H225.273V122.038H221.118V124.697H224.987V125.826H221.118V128.498H225.324V129.631H219.801ZM231.297 129.631H228.472V120.904H231.387C232.242 120.904 232.976 121.079 233.59 121.428C234.203 121.775 234.674 122.273 235 122.924C235.33 123.572 235.495 124.349 235.495 125.255C235.495 126.164 235.328 126.945 234.996 127.599C234.666 128.252 234.189 128.755 233.564 129.107C232.939 129.457 232.184 129.631 231.297 129.631ZM229.789 128.481H231.225C231.889 128.481 232.442 128.356 232.882 128.106C233.323 127.853 233.652 127.488 233.871 127.011C234.09 126.53 234.199 125.945 234.199 125.255C234.199 124.57 234.09 123.989 233.871 123.512C233.655 123.035 233.333 122.673 232.904 122.425C232.475 122.178 231.942 122.055 231.306 122.055H229.789V128.481Z" fill="#C4C6D7"/>
<rect width="253.333" height="79.1011" transform="translate(140.666 153.001)" fill="#1B1B28"/>
<rect x="394" y="152.131" width="80" height="1" fill="#282A3B"/>
<path d="M394 99.001H458C466.837 99.001 474 106.164 474 115.001V152.261H394V99.001Z" fill="#1B1B28"/>
<rect width="80" height="79.1011" transform="translate(394 153.001)" fill="#1B1B28"/>
<rect x="-686.5" y="98.501" width="1161" height="455" rx="16.5" stroke="#282A3B"/>
</g>
</g>
</g>
<rect x="0.5" y="0.500977" width="469" height="171" rx="16.5" stroke="#282A3B"/>
<defs>
<filter id="filter0_d_1107_58558" x="-719" y="82.001" width="1226" height="520" filterUnits="userSpaceOnUse" color-interpolation-filters="sRGB">
<feFlood flood-opacity="0" result="BackgroundImageFix"/>
<feColorMatrix in="SourceAlpha" type="matrix" values="0 0 0 0 0 0 0 0 0 0 0 0 0 0 0 0 0 0 127 0" result="hardAlpha"/>
<feOffset dy="16"/>
<feGaussianBlur stdDeviation="16"/>
<feColorMatrix type="matrix" values="0 0 0 0 0.215686 0 0 0 0 0.231373 0 0 0 0 0.301961 0 0 0 0.02 0"/>
<feBlend mode="normal" in2="BackgroundImageFix" result="effect1_dropShadow_1107_58558"/>
<feBlend mode="normal" in="SourceGraphic" in2="effect1_dropShadow_1107_58558" result="shape"/>
</filter>
<clipPath id="clip0_1107_58558">
<rect x="1" y="1.00098" width="468" height="170" rx="16" fill="white"/>
</clipPath>
<clipPath id="clip1_1107_58558">
<rect width="1725" height="1111" fill="white" transform="translate(-1069 -269.999)"/>
</clipPath>
</defs>
</svg>
