<svg width="482" height="395" viewBox="0 0 482 395" fill="none" xmlns="http://www.w3.org/2000/svg">
<g clip-path="url(#clip0_1158_86850)">
<rect x="1" y="1" width="392.5" height="392.5" rx="16" fill="#FCFCFF"/>
<g filter="url(#filter0_b_1158_86850)">
<rect x="68" y="259" width="326" height="90" fill="white" fill-opacity="0.7"/>
</g>
<g filter="url(#filter1_b_1158_86850)">
<rect x="68" y="68" width="326" height="78" fill="white" fill-opacity="0.7"/>
</g>
<g clip-path="url(#clip1_1158_86850)">
<rect width="1728" height="1117" transform="translate(-1163 -469)" fill="#14141F"/>
<g filter="url(#filter2_d_1158_86850)">
<rect x="-238.5" y="32.0503" width="271.75" height="1" fill="#282A3B"/>
<rect width="271.75" height="79.1011" transform="translate(-238.5 -47)" fill="#1B1B28"/>
<rect x="-238.5" y="112.05" width="271.75" height="1" fill="#282A3B"/>
<rect width="271.75" height="79.1011" transform="translate(-238.5 33)" fill="#1B1B28"/>
<rect x="-238.5" y="192.05" width="271.75" height="1" fill="#282A3B"/>
<rect width="271.75" height="79.1011" transform="translate(-238.5 113)" fill="#1B1B28"/>
<rect width="271.75" height="80" transform="translate(-238.5 193)" fill="#1B1B28"/>
<rect x="33.25" y="32.0503" width="271.75" height="1" fill="#282A3B"/>
<rect width="271.75" height="79.1011" transform="translate(33.25 -47)" fill="#1B1B28"/>
<rect x="33.25" y="112.05" width="271.75" height="1" fill="#282A3B"/>
<rect width="271.75" height="79.1011" transform="translate(33.25 33)" fill="#1B1B28"/>
<path d="M66.9006 78.0508H65.608L69.3466 67.869H70.6193L74.358 78.0508H73.0653L70.0227 69.4798H69.9432L66.9006 78.0508ZM67.3778 74.0735H72.5881V75.1673H67.3778V74.0735ZM81.5121 70.4144C81.4524 69.9106 81.2105 69.5195 80.7862 69.2411C80.362 68.9627 79.8416 68.8235 79.2251 68.8235C78.7744 68.8235 78.38 68.8964 78.0419 69.0423C77.7071 69.1881 77.4453 69.3886 77.2564 69.6438C77.0708 69.899 76.978 70.189 76.978 70.5138C76.978 70.7856 77.0426 71.0193 77.1719 71.2148C77.3045 71.4071 77.4735 71.5678 77.679 71.6971C77.8845 71.823 78.0999 71.9274 78.3253 72.0103C78.5507 72.0898 78.7578 72.1545 78.9467 72.2042L79.9808 72.4826C80.246 72.5522 80.541 72.6483 80.8658 72.771C81.1939 72.8936 81.5071 73.061 81.8054 73.2731C82.107 73.4819 82.3556 73.7504 82.5511 74.0785C82.7467 74.4066 82.8445 74.8093 82.8445 75.2866C82.8445 75.8368 82.7003 76.3339 82.4119 76.7781C82.1269 77.2222 81.7093 77.5752 81.1591 77.837C80.6122 78.0988 79.9477 78.2298 79.1655 78.2298C78.4363 78.2298 77.8049 78.1121 77.2713 77.8768C76.741 77.6415 76.3234 77.3133 76.0185 76.8924C75.7169 76.4715 75.5462 75.9826 75.5064 75.4258H76.7791C76.8123 75.8103 76.9415 76.1284 77.1669 76.3803C77.3956 76.6289 77.6839 76.8145 78.032 76.9371C78.3833 77.0565 78.7611 77.1161 79.1655 77.1161C79.6361 77.1161 80.0587 77.0399 80.4332 76.8874C80.8078 76.7317 81.1044 76.5162 81.3232 76.2411C81.5419 75.9627 81.6513 75.6379 81.6513 75.2667C81.6513 74.9286 81.5568 74.6535 81.3679 74.4414C81.179 74.2293 80.9304 74.0569 80.6222 73.9244C80.3139 73.7918 79.9808 73.6758 79.6229 73.5763L78.37 73.2184C77.5746 72.9897 76.9448 72.6632 76.4808 72.239C76.0168 71.8147 75.7848 71.2596 75.7848 70.5735C75.7848 70.0034 75.9389 69.5063 76.2472 69.082C76.5587 68.6545 76.9763 68.323 77.5 68.0877C78.027 67.8491 78.6153 67.7298 79.2649 67.7298C79.9212 67.7298 80.5045 67.8474 81.0149 68.0827C81.5253 68.3147 81.9297 68.6329 82.228 69.0373C82.5296 69.4416 82.6887 69.9007 82.7053 70.4144H81.5121ZM93.0648 71.0508H91.8319C91.7589 70.6961 91.6313 70.3846 91.449 70.1161C91.2701 69.8477 91.0513 69.6223 90.7928 69.44C90.5376 69.2544 90.2542 69.1152 89.9426 69.0224C89.6311 68.9296 89.3063 68.8832 88.9682 68.8832C88.3517 68.8832 87.7933 69.0389 87.2928 69.3505C86.7956 69.6621 86.3996 70.1211 86.1046 70.7276C85.8129 71.3342 85.6671 72.0782 85.6671 72.9599C85.6671 73.8415 85.8129 74.5856 86.1046 75.1921C86.3996 75.7987 86.7956 76.2577 87.2928 76.5692C87.7933 76.8808 88.3517 77.0366 88.9682 77.0366C89.3063 77.0366 89.6311 76.9902 89.9426 76.8974C90.2542 76.8046 90.5376 76.667 90.7928 76.4847C91.0513 76.2991 91.2701 76.0721 91.449 75.8036C91.6313 75.5318 91.7589 75.2203 91.8319 74.869H93.0648C92.972 75.3893 92.803 75.855 92.5577 76.266C92.3124 76.677 92.0075 77.0266 91.6429 77.315C91.2784 77.6 90.869 77.8171 90.415 77.9663C89.9642 78.1154 89.4819 78.19 88.9682 78.19C88.0998 78.19 87.3276 77.9779 86.6515 77.5536C85.9753 77.1294 85.4434 76.5262 85.0556 75.744C84.6678 74.9618 84.4739 74.0337 84.4739 72.9599C84.4739 71.886 84.6678 70.958 85.0556 70.1758C85.4434 69.3936 85.9753 68.7904 86.6515 68.3661C87.3276 67.9419 88.0998 67.7298 88.9682 67.7298C89.4819 67.7298 89.9642 67.8043 90.415 67.9535C90.869 68.1026 91.2784 68.3214 91.6429 68.6097C92.0075 68.8948 92.3124 69.2428 92.5577 69.6538C92.803 70.0614 92.972 70.5271 93.0648 71.0508Z" fill="#C4C6D7"/>
<rect x="33.25" y="192.05" width="271.75" height="1" fill="#282A3B"/>
<rect width="271.75" height="79.1011" transform="translate(33.25 113)" fill="#1B1B28"/>
<path d="M69.625 158.051H66.483V147.869H69.7642C70.7519 147.869 71.5971 148.073 72.2997 148.48C73.0024 148.885 73.541 149.467 73.9155 150.225C74.29 150.981 74.4773 151.886 74.4773 152.94C74.4773 154.001 74.2884 154.914 73.9105 155.679C73.5327 156.442 72.9825 157.028 72.2599 157.439C71.5374 157.847 70.6591 158.051 69.625 158.051ZM67.7159 156.957H69.5455C70.3873 156.957 71.085 156.795 71.6385 156.47C72.192 156.145 72.6046 155.683 72.8764 155.083C73.1482 154.483 73.2841 153.769 73.2841 152.94C73.2841 152.118 73.1499 151.41 72.8814 150.817C72.6129 150.221 72.2119 149.763 71.6783 149.445C71.1446 149.123 70.4801 148.963 69.6847 148.963H67.7159V156.957ZM76.5455 158.051V147.869H82.6903V148.963H77.7784V152.403H82.3722V153.497H77.7784V156.957H82.7699V158.051H76.5455ZM90.4808 150.414C90.4212 149.911 90.1792 149.52 89.755 149.241C89.3307 148.963 88.8104 148.824 88.1939 148.824C87.7431 148.824 87.3487 148.896 87.0107 149.042C86.6759 149.188 86.4141 149.389 86.2251 149.644C86.0395 149.899 85.9467 150.189 85.9467 150.514C85.9467 150.786 86.0114 151.019 86.1406 151.215C86.2732 151.407 86.4422 151.568 86.6477 151.697C86.8532 151.823 87.0687 151.927 87.294 152.01C87.5194 152.09 87.7266 152.154 87.9155 152.204L88.9496 152.483C89.2147 152.552 89.5097 152.648 89.8345 152.771C90.1626 152.894 90.4759 153.061 90.7741 153.273C91.0758 153.482 91.3243 153.75 91.5199 154.078C91.7154 154.407 91.8132 154.809 91.8132 155.287C91.8132 155.837 91.669 156.334 91.3807 156.778C91.0956 157.222 90.678 157.575 90.1278 157.837C89.581 158.099 88.9164 158.23 88.1342 158.23C87.4051 158.23 86.7737 158.112 86.2401 157.877C85.7098 157.641 85.2921 157.313 84.9872 156.892C84.6856 156.471 84.5149 155.983 84.4751 155.426H85.7479C85.781 155.81 85.9103 156.128 86.1357 156.38C86.3643 156.629 86.6527 156.815 87.0007 156.937C87.352 157.056 87.7299 157.116 88.1342 157.116C88.6049 157.116 89.0275 157.04 89.402 156.887C89.7765 156.732 90.0732 156.516 90.2919 156.241C90.5107 155.963 90.62 155.638 90.62 155.267C90.62 154.929 90.5256 154.654 90.3366 154.441C90.1477 154.229 89.8991 154.057 89.5909 153.924C89.2827 153.792 88.9496 153.676 88.5916 153.576L87.3388 153.218C86.5433 152.99 85.9136 152.663 85.4496 152.239C84.9856 151.815 84.7536 151.26 84.7536 150.574C84.7536 150.003 84.9077 149.506 85.2159 149.082C85.5275 148.654 85.9451 148.323 86.4688 148.088C86.9957 147.849 87.584 147.73 88.2337 147.73C88.8899 147.73 89.4732 147.847 89.9837 148.083C90.4941 148.315 90.8984 148.633 91.1967 149.037C91.4983 149.442 91.6574 149.901 91.674 150.414H90.4808ZM102.034 151.051H100.801C100.728 150.696 100.6 150.385 100.418 150.116C100.239 149.848 100.02 149.622 99.7615 149.44C99.5063 149.254 99.223 149.115 98.9114 149.022C98.5998 148.93 98.275 148.883 97.937 148.883C97.3205 148.883 96.762 149.039 96.2615 149.35C95.7644 149.662 95.3683 150.121 95.0733 150.728C94.7817 151.334 94.6358 152.078 94.6358 152.96C94.6358 153.842 94.7817 154.586 95.0733 155.192C95.3683 155.799 95.7644 156.258 96.2615 156.569C96.762 156.881 97.3205 157.037 97.937 157.037C98.275 157.037 98.5998 156.99 98.9114 156.897C99.223 156.805 99.5063 156.667 99.7615 156.485C100.02 156.299 100.239 156.072 100.418 155.804C100.6 155.532 100.728 155.22 100.801 154.869H102.034C101.941 155.389 101.772 155.855 101.526 156.266C101.281 156.677 100.976 157.027 100.612 157.315C100.247 157.6 99.8378 157.817 99.3837 157.966C98.9329 158.115 98.4507 158.19 97.937 158.19C97.0686 158.19 96.2963 157.978 95.6202 157.554C94.9441 157.129 94.4121 156.526 94.0243 155.744C93.6365 154.962 93.4426 154.034 93.4426 152.96C93.4426 151.886 93.6365 150.958 94.0243 150.176C94.4121 149.394 94.9441 148.79 95.6202 148.366C96.2963 147.942 97.0686 147.73 97.937 147.73C98.4507 147.73 98.9329 147.804 99.3837 147.953C99.8378 148.103 100.247 148.321 100.612 148.61C100.976 148.895 101.281 149.243 101.526 149.654C101.772 150.061 101.941 150.527 102.034 151.051Z" fill="#C4C6D7"/>
<rect width="271.75" height="80" transform="translate(33.25 193)" fill="#1B1B28"/>
<path d="M66.9006 238.5H65.608L69.3466 228.318H70.6193L74.358 238.5H73.0653L70.0227 229.929H69.9432L66.9006 238.5ZM67.3778 234.523H72.5881V235.616H67.3778V234.523ZM81.5121 230.864C81.4524 230.36 81.2105 229.969 80.7862 229.69C80.362 229.412 79.8416 229.273 79.2251 229.273C78.7744 229.273 78.38 229.346 78.0419 229.491C77.7071 229.637 77.4453 229.838 77.2564 230.093C77.0708 230.348 76.978 230.638 76.978 230.963C76.978 231.235 77.0426 231.469 77.1719 231.664C77.3045 231.856 77.4735 232.017 77.679 232.146C77.8845 232.272 78.0999 232.377 78.3253 232.46C78.5507 232.539 78.7578 232.604 78.9467 232.653L79.9808 232.932C80.246 233.001 80.541 233.098 80.8658 233.22C81.1939 233.343 81.5071 233.51 81.8054 233.722C82.107 233.931 82.3556 234.2 82.5511 234.528C82.7467 234.856 82.8445 235.259 82.8445 235.736C82.8445 236.286 82.7003 236.783 82.4119 237.227C82.1269 237.671 81.7093 238.024 81.1591 238.286C80.6122 238.548 79.9477 238.679 79.1655 238.679C78.4363 238.679 77.8049 238.561 77.2713 238.326C76.741 238.091 76.3234 237.763 76.0185 237.342C75.7169 236.921 75.5462 236.432 75.5064 235.875H76.7791C76.8123 236.259 76.9415 236.578 77.1669 236.83C77.3956 237.078 77.6839 237.264 78.032 237.386C78.3833 237.506 78.7611 237.565 79.1655 237.565C79.6361 237.565 80.0587 237.489 80.4332 237.337C80.8078 237.181 81.1044 236.965 81.3232 236.69C81.5419 236.412 81.6513 236.087 81.6513 235.716C81.6513 235.378 81.5568 235.103 81.3679 234.891C81.179 234.679 80.9304 234.506 80.6222 234.374C80.3139 234.241 79.9808 234.125 79.6229 234.026L78.37 233.668C77.5746 233.439 76.9448 233.112 76.4808 232.688C76.0168 232.264 75.7848 231.709 75.7848 231.023C75.7848 230.453 75.9389 229.955 76.2472 229.531C76.5587 229.104 76.9763 228.772 77.5 228.537C78.027 228.298 78.6153 228.179 79.2649 228.179C79.9212 228.179 80.5045 228.297 81.0149 228.532C81.5253 228.764 81.9297 229.082 82.228 229.487C82.5296 229.891 82.6887 230.35 82.7053 230.864H81.5121ZM93.0648 231.5H91.8319C91.7589 231.145 91.6313 230.834 91.449 230.565C91.2701 230.297 91.0513 230.071 90.7928 229.889C90.5376 229.704 90.2542 229.564 89.9426 229.472C89.6311 229.379 89.3063 229.332 88.9682 229.332C88.3517 229.332 87.7933 229.488 87.2928 229.8C86.7956 230.111 86.3996 230.57 86.1046 231.177C85.8129 231.783 85.6671 232.527 85.6671 233.409C85.6671 234.291 85.8129 235.035 86.1046 235.641C86.3996 236.248 86.7956 236.707 87.2928 237.018C87.7933 237.33 88.3517 237.486 88.9682 237.486C89.3063 237.486 89.6311 237.439 89.9426 237.347C90.2542 237.254 90.5376 237.116 90.7928 236.934C91.0513 236.748 91.2701 236.521 91.449 236.253C91.6313 235.981 91.7589 235.67 91.8319 235.318H93.0648C92.972 235.839 92.803 236.304 92.5577 236.715C92.3124 237.126 92.0075 237.476 91.6429 237.764C91.2784 238.049 90.869 238.266 90.415 238.415C89.9642 238.565 89.4819 238.639 88.9682 238.639C88.0998 238.639 87.3276 238.427 86.6515 238.003C85.9753 237.579 85.4434 236.975 85.0556 236.193C84.6678 235.411 84.4739 234.483 84.4739 233.409C84.4739 232.335 84.6678 231.407 85.0556 230.625C85.4434 229.843 85.9753 229.24 86.6515 228.815C87.3276 228.391 88.0998 228.179 88.9682 228.179C89.4819 228.179 89.9642 228.254 90.415 228.403C90.869 228.552 91.2784 228.771 91.6429 229.059C92.0075 229.344 92.3124 229.692 92.5577 230.103C92.803 230.511 92.972 230.976 93.0648 231.5ZM102.435 227.841L99.1538 240.031H98.0799L101.361 227.841H102.435ZM111.064 238.5H107.922V228.318H111.204C112.191 228.318 113.037 228.522 113.739 228.93C114.442 229.334 114.98 229.916 115.355 230.675C115.729 231.43 115.917 232.335 115.917 233.389C115.917 234.45 115.728 235.363 115.35 236.129C114.972 236.891 114.422 237.478 113.699 237.888C112.977 238.296 112.099 238.5 111.064 238.5ZM109.155 237.406H110.985C111.827 237.406 112.524 237.244 113.078 236.919C113.631 236.594 114.044 236.132 114.316 235.532C114.588 234.932 114.724 234.218 114.724 233.389C114.724 232.567 114.589 231.86 114.321 231.266C114.052 230.67 113.651 230.212 113.118 229.894C112.584 229.573 111.92 229.412 111.124 229.412H109.155V237.406ZM117.985 238.5V228.318H124.13V229.412H119.218V232.852H123.812V233.946H119.218V237.406H124.209V238.5H117.985ZM131.92 230.864C131.861 230.36 131.619 229.969 131.194 229.69C130.77 229.412 130.25 229.273 129.633 229.273C129.183 229.273 128.788 229.346 128.45 229.491C128.115 229.637 127.854 229.838 127.665 230.093C127.479 230.348 127.386 230.638 127.386 230.963C127.386 231.235 127.451 231.469 127.58 231.664C127.713 231.856 127.882 232.017 128.087 232.146C128.293 232.272 128.508 232.377 128.733 232.46C128.959 232.539 129.166 232.604 129.355 232.653L130.389 232.932C130.654 233.001 130.949 233.098 131.274 233.22C131.602 233.343 131.915 233.51 132.214 233.722C132.515 233.931 132.764 234.2 132.959 234.528C133.155 234.856 133.253 235.259 133.253 235.736C133.253 236.286 133.108 236.783 132.82 237.227C132.535 237.671 132.117 238.024 131.567 238.286C131.02 238.548 130.356 238.679 129.574 238.679C128.845 238.679 128.213 238.561 127.68 238.326C127.149 238.091 126.732 237.763 126.427 237.342C126.125 236.921 125.954 236.432 125.915 235.875H127.187C127.22 236.259 127.35 236.578 127.575 236.83C127.804 237.078 128.092 237.264 128.44 237.386C128.791 237.506 129.169 237.565 129.574 237.565C130.044 237.565 130.467 237.489 130.841 237.337C131.216 237.181 131.513 236.965 131.731 236.69C131.95 236.412 132.059 236.087 132.059 235.716C132.059 235.378 131.965 235.103 131.776 234.891C131.587 234.679 131.339 234.506 131.03 234.374C130.722 234.241 130.389 234.125 130.031 234.026L128.778 233.668C127.983 233.439 127.353 233.112 126.889 232.688C126.425 232.264 126.193 231.709 126.193 231.023C126.193 230.453 126.347 229.955 126.655 229.531C126.967 229.104 127.385 228.772 127.908 228.537C128.435 228.298 129.023 228.179 129.673 228.179C130.329 228.179 130.913 228.297 131.423 228.532C131.934 228.764 132.338 229.082 132.636 229.487C132.938 229.891 133.097 230.35 133.113 230.864H131.92ZM143.473 231.5H142.24C142.167 231.145 142.04 230.834 141.857 230.565C141.678 230.297 141.46 230.071 141.201 229.889C140.946 229.704 140.662 229.564 140.351 229.472C140.039 229.379 139.714 229.332 139.376 229.332C138.76 229.332 138.201 229.488 137.701 229.8C137.204 230.111 136.808 230.57 136.513 231.177C136.221 231.783 136.075 232.527 136.075 233.409C136.075 234.291 136.221 235.035 136.513 235.641C136.808 236.248 137.204 236.707 137.701 237.018C138.201 237.33 138.76 237.486 139.376 237.486C139.714 237.486 140.039 237.439 140.351 237.347C140.662 237.254 140.946 237.116 141.201 236.934C141.46 236.748 141.678 236.521 141.857 236.253C142.04 235.981 142.167 235.67 142.24 235.318H143.473C143.38 235.839 143.211 236.304 142.966 236.715C142.721 237.126 142.416 237.476 142.051 237.764C141.687 238.049 141.277 238.266 140.823 238.415C140.372 238.565 139.89 238.639 139.376 238.639C138.508 238.639 137.736 238.427 137.06 238.003C136.384 237.579 135.852 236.975 135.464 236.193C135.076 235.411 134.882 234.483 134.882 233.409C134.882 232.335 135.076 231.407 135.464 230.625C135.852 229.843 136.384 229.24 137.06 228.815C137.736 228.391 138.508 228.179 139.376 228.179C139.89 228.179 140.372 228.254 140.823 228.403C141.277 228.552 141.687 228.771 142.051 229.059C142.416 229.344 142.721 229.692 142.966 230.103C143.211 230.511 143.38 230.976 143.473 231.5Z" fill="#C4C6D7"/>
<rect x="305" y="32.0503" width="80" height="1" fill="#282A3B"/>
<rect width="80" height="79.1011" transform="translate(305 -47)" fill="#1B1B28"/>
<rect x="305" y="112.05" width="80" height="1" fill="#282A3B"/>
<rect width="80" height="79.1011" transform="translate(305 33)" fill="#1B1B28"/>
<path d="M340.2 72.5509C340.2 73.8764 339.126 74.9509 337.8 74.9509C336.475 74.9509 335.4 73.8764 335.4 72.5509C335.4 71.2254 336.475 70.1509 337.8 70.1509C339.126 70.1509 340.2 71.2254 340.2 72.5509Z" fill="#868EA3"/>
<path d="M347.4 72.5509C347.4 73.8764 346.326 74.9509 345 74.9509C343.675 74.9509 342.6 73.8764 342.6 72.5509C342.6 71.2254 343.675 70.1509 345 70.1509C346.326 70.1509 347.4 71.2254 347.4 72.5509Z" fill="#868EA3"/>
<path d="M352.2 74.9509C353.526 74.9509 354.6 73.8764 354.6 72.5509C354.6 71.2254 353.526 70.1509 352.2 70.1509C350.875 70.1509 349.8 71.2254 349.8 72.5509C349.8 73.8764 350.875 74.9509 352.2 74.9509Z" fill="#868EA3"/>
<rect x="305" y="192.05" width="80" height="1" fill="#282A3B"/>
<rect width="80" height="79.1011" transform="translate(305 113)" fill="#1B1B28"/>
<path d="M340.2 152.551C340.2 153.876 339.126 154.951 337.8 154.951C336.475 154.951 335.4 153.876 335.4 152.551C335.4 151.225 336.475 150.151 337.8 150.151C339.126 150.151 340.2 151.225 340.2 152.551Z" fill="#868EA3"/>
<path d="M347.4 152.551C347.4 153.876 346.326 154.951 345 154.951C343.675 154.951 342.6 153.876 342.6 152.551C342.6 151.225 343.675 150.151 345 150.151C346.326 150.151 347.4 151.225 347.4 152.551Z" fill="#868EA3"/>
<path d="M352.2 154.951C353.526 154.951 354.6 153.876 354.6 152.551C354.6 151.225 353.526 150.151 352.2 150.151C350.875 150.151 349.8 151.225 349.8 152.551C349.8 153.876 350.875 154.951 352.2 154.951Z" fill="#868EA3"/>
<path d="M305 193H385V257C385 265.837 377.837 273 369 273H305V193Z" fill="#1B1B28"/>
<path d="M340.2 233C340.2 234.326 339.126 235.4 337.8 235.4C336.475 235.4 335.4 234.326 335.4 233C335.4 231.675 336.475 230.6 337.8 230.6C339.126 230.6 340.2 231.675 340.2 233Z" fill="#868EA3"/>
<path d="M347.4 233C347.4 234.326 346.326 235.4 345 235.4C343.675 235.4 342.6 234.326 342.6 233C342.6 231.675 343.675 230.6 345 230.6C346.326 230.6 347.4 231.675 347.4 233Z" fill="#868EA3"/>
<path d="M352.2 235.4C353.526 235.4 354.6 234.326 354.6 233C354.6 231.675 353.526 230.6 352.2 230.6C350.875 230.6 349.8 231.675 349.8 233C349.8 234.326 350.875 235.4 352.2 235.4Z" fill="#868EA3"/>
<rect x="-782.5" y="-101.5" width="1168" height="375" rx="16.5" stroke="#373B4D"/>
</g>
<g filter="url(#filter3_d_1158_86850)">
<rect x="78.5" y="245.5" width="278" height="101" rx="7.5" fill="#14141F"/>
<rect x="90" y="257" width="255" height="37" rx="8" fill="#282A3B"/>
<path d="M111.824 275.909C111.824 276.983 111.63 277.911 111.242 278.693C110.854 279.475 110.322 280.079 109.646 280.503C108.97 280.927 108.198 281.139 107.33 281.139C106.461 281.139 105.689 280.927 105.013 280.503C104.337 280.079 103.805 279.475 103.417 278.693C103.029 277.911 102.835 276.983 102.835 275.909C102.835 274.835 103.029 273.907 103.417 273.125C103.805 272.343 104.337 271.74 105.013 271.315C105.689 270.891 106.461 270.679 107.33 270.679C108.198 270.679 108.97 270.891 109.646 271.315C110.322 271.74 110.854 272.343 111.242 273.125C111.63 273.907 111.824 274.835 111.824 275.909ZM110.631 275.909C110.631 275.027 110.483 274.283 110.188 273.677C109.897 273.07 109.5 272.611 109 272.3C108.503 271.988 107.946 271.832 107.33 271.832C106.713 271.832 106.155 271.988 105.654 272.3C105.157 272.611 104.761 273.07 104.466 273.677C104.174 274.283 104.028 275.027 104.028 275.909C104.028 276.791 104.174 277.535 104.466 278.141C104.761 278.748 105.157 279.207 105.654 279.518C106.155 279.83 106.713 279.986 107.33 279.986C107.946 279.986 108.503 279.83 109 279.518C109.5 279.207 109.897 278.748 110.188 278.141C110.483 277.535 110.631 276.791 110.631 275.909ZM119.982 273.364L117.158 281H115.965L113.141 273.364H114.414L116.522 279.449H116.602L118.71 273.364H119.982ZM124.459 281.159C123.723 281.159 123.089 280.997 122.555 280.672C122.025 280.344 121.615 279.886 121.327 279.3C121.042 278.71 120.9 278.024 120.9 277.241C120.9 276.459 121.042 275.77 121.327 275.173C121.615 274.573 122.016 274.106 122.53 273.771C123.047 273.433 123.65 273.264 124.34 273.264C124.738 273.264 125.13 273.33 125.518 273.463C125.906 273.596 126.259 273.811 126.577 274.109C126.895 274.404 127.149 274.795 127.338 275.283C127.527 275.77 127.621 276.37 127.621 277.082V277.58H121.735V276.565H126.428C126.428 276.134 126.342 275.75 126.169 275.412C126 275.074 125.758 274.807 125.444 274.612C125.132 274.416 124.764 274.318 124.34 274.318C123.873 274.318 123.468 274.434 123.127 274.666C122.789 274.895 122.529 275.193 122.346 275.561C122.164 275.929 122.073 276.323 122.073 276.744V277.42C122.073 277.997 122.172 278.486 122.371 278.887C122.573 279.285 122.853 279.588 123.211 279.797C123.569 280.002 123.985 280.105 124.459 280.105C124.767 280.105 125.046 280.062 125.294 279.976C125.546 279.886 125.763 279.754 125.946 279.578C126.128 279.399 126.269 279.177 126.368 278.912L127.502 279.23C127.382 279.615 127.182 279.953 126.9 280.244C126.618 280.533 126.27 280.758 125.856 280.92C125.442 281.08 124.976 281.159 124.459 281.159ZM129.406 281V273.364H130.539V274.517H130.619C130.758 274.139 131.01 273.833 131.375 273.597C131.739 273.362 132.15 273.244 132.608 273.244C132.694 273.244 132.801 273.246 132.931 273.249C133.06 273.253 133.158 273.258 133.224 273.264V274.457C133.184 274.447 133.093 274.433 132.951 274.413C132.811 274.389 132.664 274.378 132.508 274.378C132.137 274.378 131.806 274.456 131.514 274.612C131.225 274.764 130.997 274.976 130.828 275.248C130.662 275.516 130.579 275.823 130.579 276.168V281H129.406ZM141.092 273.364L138.268 281H137.075L134.251 273.364H135.523L137.631 279.449H137.711L139.819 273.364H141.092ZM142.64 281V273.364H143.814V281H142.64ZM143.237 272.091C143.008 272.091 142.811 272.013 142.645 271.857C142.483 271.701 142.402 271.514 142.402 271.295C142.402 271.077 142.483 270.889 142.645 270.734C142.811 270.578 143.008 270.5 143.237 270.5C143.466 270.5 143.661 270.578 143.824 270.734C143.989 270.889 144.072 271.077 144.072 271.295C144.072 271.514 143.989 271.701 143.824 271.857C143.661 272.013 143.466 272.091 143.237 272.091ZM149.164 281.159C148.428 281.159 147.794 280.997 147.26 280.672C146.73 280.344 146.32 279.886 146.032 279.3C145.747 278.71 145.605 278.024 145.605 277.241C145.605 276.459 145.747 275.77 146.032 275.173C146.32 274.573 146.722 274.106 147.235 273.771C147.752 273.433 148.356 273.264 149.045 273.264C149.443 273.264 149.835 273.33 150.223 273.463C150.611 273.596 150.964 273.811 151.282 274.109C151.6 274.404 151.854 274.795 152.043 275.283C152.232 275.77 152.326 276.37 152.326 277.082V277.58H146.44V276.565H151.133C151.133 276.134 151.047 275.75 150.874 275.412C150.705 275.074 150.463 274.807 150.149 274.612C149.837 274.416 149.469 274.318 149.045 274.318C148.578 274.318 148.173 274.434 147.832 274.666C147.494 274.895 147.234 275.193 147.051 275.561C146.869 275.929 146.778 276.323 146.778 276.744V277.42C146.778 277.997 146.877 278.486 147.076 278.887C147.278 279.285 147.558 279.588 147.916 279.797C148.274 280.002 148.69 280.105 149.164 280.105C149.472 280.105 149.751 280.062 149.999 279.976C150.251 279.886 150.468 279.754 150.651 279.578C150.833 279.399 150.974 279.177 151.073 278.912L152.207 279.23C152.088 279.615 151.887 279.953 151.605 280.244C151.324 280.533 150.976 280.758 150.561 280.92C150.147 281.08 149.681 281.159 149.164 281.159ZM155.841 281L153.514 273.364H154.747L156.398 279.21H156.477L158.108 273.364H159.361L160.972 279.19H161.051L162.702 273.364H163.935L161.608 281H160.455L158.784 275.134H158.665L156.994 281H155.841Z" fill="#C4C6D7"/>
<path d="M322.999 277.5C324.104 277.5 324.999 276.605 324.999 275.5C324.999 274.395 324.104 273.5 322.999 273.5C321.895 273.5 320.999 274.395 320.999 275.5C320.999 276.605 321.895 277.5 322.999 277.5Z" fill="#868EA3"/>
<path fill-rule="evenodd" clip-rule="evenodd" d="M313.457 275.5C314.731 271.443 318.522 268.5 322.999 268.5C327.477 268.5 331.267 271.443 332.541 275.5C331.267 279.557 327.477 282.5 322.999 282.5C318.522 282.5 314.731 279.557 313.457 275.5ZM326.999 275.5C326.999 277.709 325.208 279.5 322.999 279.5C320.79 279.5 318.999 277.709 318.999 275.5C318.999 273.291 320.79 271.5 322.999 271.5C325.208 271.5 326.999 273.291 326.999 275.5Z" fill="#868EA3"/>
<path d="M106.375 322H103.233V311.818H106.514C107.502 311.818 108.347 312.022 109.05 312.43C109.752 312.834 110.291 313.416 110.665 314.175C111.04 314.93 111.227 315.835 111.227 316.889C111.227 317.95 111.038 318.863 110.661 319.629C110.283 320.391 109.732 320.978 109.01 321.388C108.287 321.796 107.409 322 106.375 322ZM104.466 320.906H106.295C107.137 320.906 107.835 320.744 108.388 320.419C108.942 320.094 109.355 319.632 109.626 319.032C109.898 318.432 110.034 317.718 110.034 316.889C110.034 316.067 109.9 315.36 109.631 314.766C109.363 314.17 108.962 313.712 108.428 313.394C107.895 313.073 107.23 312.912 106.435 312.912H104.466V320.906ZM116.338 322.159C115.602 322.159 114.968 321.997 114.434 321.672C113.904 321.344 113.494 320.886 113.206 320.3C112.921 319.71 112.778 319.024 112.778 318.241C112.778 317.459 112.921 316.77 113.206 316.173C113.494 315.573 113.895 315.106 114.409 314.771C114.926 314.433 115.529 314.264 116.219 314.264C116.616 314.264 117.009 314.33 117.397 314.463C117.785 314.596 118.138 314.811 118.456 315.109C118.774 315.404 119.028 315.795 119.217 316.283C119.406 316.77 119.5 317.37 119.5 318.082V318.58H113.614V317.565H118.307C118.307 317.134 118.221 316.75 118.048 316.412C117.879 316.074 117.637 315.807 117.322 315.612C117.011 315.416 116.643 315.318 116.219 315.318C115.751 315.318 115.347 315.434 115.006 315.666C114.668 315.895 114.407 316.193 114.225 316.561C114.043 316.929 113.952 317.323 113.952 317.744V318.42C113.952 318.997 114.051 319.486 114.25 319.887C114.452 320.285 114.732 320.588 115.09 320.797C115.448 321.002 115.864 321.105 116.338 321.105C116.646 321.105 116.925 321.062 117.173 320.976C117.425 320.886 117.642 320.754 117.825 320.578C118.007 320.399 118.148 320.177 118.247 319.912L119.381 320.23C119.261 320.615 119.061 320.953 118.779 321.244C118.497 321.533 118.149 321.758 117.735 321.92C117.321 322.08 116.855 322.159 116.338 322.159ZM122.458 311.818V322H121.285V311.818H122.458ZM127.809 322.159C127.073 322.159 126.438 321.997 125.905 321.672C125.374 321.344 124.965 320.886 124.677 320.3C124.392 319.71 124.249 319.024 124.249 318.241C124.249 317.459 124.392 316.77 124.677 316.173C124.965 315.573 125.366 315.106 125.88 314.771C126.397 314.433 127 314.264 127.689 314.264C128.087 314.264 128.48 314.33 128.868 314.463C129.256 314.596 129.608 314.811 129.927 315.109C130.245 315.404 130.498 315.795 130.687 316.283C130.876 316.77 130.971 317.37 130.971 318.082V318.58H125.084V317.565H129.778C129.778 317.134 129.691 316.75 129.519 316.412C129.35 316.074 129.108 315.807 128.793 315.612C128.482 315.416 128.114 315.318 127.689 315.318C127.222 315.318 126.818 315.434 126.476 315.666C126.138 315.895 125.878 316.193 125.696 316.561C125.514 316.929 125.422 317.323 125.422 317.744V318.42C125.422 318.997 125.522 319.486 125.721 319.887C125.923 320.285 126.203 320.588 126.561 320.797C126.919 321.002 127.335 321.105 127.809 321.105C128.117 321.105 128.395 321.062 128.644 320.976C128.896 320.886 129.113 320.754 129.295 320.578C129.478 320.399 129.618 320.177 129.718 319.912L130.851 320.23C130.732 320.615 130.532 320.953 130.25 321.244C129.968 321.533 129.62 321.758 129.206 321.92C128.791 322.08 128.326 322.159 127.809 322.159ZM136.077 314.364V315.358H132.119V314.364H136.077ZM133.273 312.534H134.446V319.812C134.446 320.144 134.494 320.393 134.59 320.558C134.689 320.721 134.815 320.83 134.968 320.886C135.124 320.939 135.288 320.966 135.46 320.966C135.589 320.966 135.695 320.959 135.778 320.946C135.861 320.929 135.927 320.916 135.977 320.906L136.216 321.96C136.136 321.99 136.025 322.02 135.883 322.05C135.74 322.083 135.559 322.099 135.341 322.099C135.009 322.099 134.684 322.028 134.366 321.886C134.051 321.743 133.79 321.526 133.581 321.234C133.375 320.943 133.273 320.575 133.273 320.131V312.534ZM140.961 322.159C140.225 322.159 139.591 321.997 139.057 321.672C138.527 321.344 138.117 320.886 137.829 320.3C137.544 319.71 137.401 319.024 137.401 318.241C137.401 317.459 137.544 316.77 137.829 316.173C138.117 315.573 138.518 315.106 139.032 314.771C139.549 314.433 140.152 314.264 140.842 314.264C141.24 314.264 141.632 314.33 142.02 314.463C142.408 314.596 142.761 314.811 143.079 315.109C143.397 315.404 143.651 315.795 143.84 316.283C144.029 316.77 144.123 317.37 144.123 318.082V318.58H138.237V317.565H142.93C142.93 317.134 142.844 316.75 142.671 316.412C142.502 316.074 142.26 315.807 141.945 315.612C141.634 315.416 141.266 315.318 140.842 315.318C140.374 315.318 139.97 315.434 139.629 315.666C139.291 315.895 139.03 316.193 138.848 316.561C138.666 316.929 138.575 317.323 138.575 317.744V318.42C138.575 318.997 138.674 319.486 138.873 319.887C139.075 320.285 139.355 320.588 139.713 320.797C140.071 321.002 140.487 321.105 140.961 321.105C141.269 321.105 141.548 321.062 141.796 320.976C142.048 320.886 142.265 320.754 142.448 320.578C142.63 320.399 142.771 320.177 142.87 319.912L144.004 320.23C143.884 320.615 143.684 320.953 143.402 321.244C143.12 321.533 142.772 321.758 142.358 321.92C141.944 322.08 141.478 322.159 140.961 322.159Z" fill="#C4C6D7"/>
<path fill-rule="evenodd" clip-rule="evenodd" d="M322 308.5C321.621 308.5 321.275 308.714 321.106 309.053L320.382 310.5H317C316.448 310.5 316 310.948 316 311.5C316 312.052 316.448 312.5 317 312.5L317 322.5C317 323.605 317.895 324.5 319 324.5H327C328.105 324.5 329 323.605 329 322.5V312.5C329.552 312.5 330 312.052 330 311.5C330 310.948 329.552 310.5 329 310.5H325.618L324.894 309.053C324.725 308.714 324.379 308.5 324 308.5H322ZM320 314.5C320 313.948 320.448 313.5 321 313.5C321.552 313.5 322 313.948 322 314.5V320.5C322 321.052 321.552 321.5 321 321.5C320.448 321.5 320 321.052 320 320.5V314.5ZM325 313.5C324.448 313.5 324 313.948 324 314.5V320.5C324 321.052 324.448 321.5 325 321.5C325.552 321.5 326 321.052 326 320.5V314.5C326 313.948 325.552 313.5 325 313.5Z" fill="#868EA3"/>
<rect x="78.5" y="245.5" width="278" height="101" rx="7.5" stroke="#282A3B"/>
</g>
</g>
</g>
<rect x="0.5" y="0.5" width="481" height="393.5" rx="16.5" stroke="#282A3B"/>
<defs>
<filter id="filter0_b_1158_86850" x="60" y="251" width="342" height="106" filterUnits="userSpaceOnUse" color-interpolation-filters="sRGB">
<feFlood flood-opacity="0" result="BackgroundImageFix"/>
<feGaussianBlur in="BackgroundImageFix" stdDeviation="4"/>
<feComposite in2="SourceAlpha" operator="in" result="effect1_backgroundBlur_1158_86850"/>
<feBlend mode="normal" in="SourceGraphic" in2="effect1_backgroundBlur_1158_86850" result="shape"/>
</filter>
<filter id="filter1_b_1158_86850" x="60" y="60" width="342" height="94" filterUnits="userSpaceOnUse" color-interpolation-filters="sRGB">
<feFlood flood-opacity="0" result="BackgroundImageFix"/>
<feGaussianBlur in="BackgroundImageFix" stdDeviation="4"/>
<feComposite in2="SourceAlpha" operator="in" result="effect1_backgroundBlur_1158_86850"/>
<feBlend mode="normal" in="SourceGraphic" in2="effect1_backgroundBlur_1158_86850" result="shape"/>
</filter>
<filter id="filter2_d_1158_86850" x="-815" y="-118" width="1233" height="440" filterUnits="userSpaceOnUse" color-interpolation-filters="sRGB">
<feFlood flood-opacity="0" result="BackgroundImageFix"/>
<feColorMatrix in="SourceAlpha" type="matrix" values="0 0 0 0 0 0 0 0 0 0 0 0 0 0 0 0 0 0 127 0" result="hardAlpha"/>
<feOffset dy="16"/>
<feGaussianBlur stdDeviation="16"/>
<feColorMatrix type="matrix" values="0 0 0 0 0.215686 0 0 0 0 0.231373 0 0 0 0 0.301961 0 0 0 0.02 0"/>
<feBlend mode="normal" in2="BackgroundImageFix" result="effect1_dropShadow_1158_86850"/>
<feBlend mode="normal" in="SourceGraphic" in2="effect1_dropShadow_1158_86850" result="shape"/>
</filter>
<filter id="filter3_d_1158_86850" x="46" y="229" width="343" height="166" filterUnits="userSpaceOnUse" color-interpolation-filters="sRGB">
<feFlood flood-opacity="0" result="BackgroundImageFix"/>
<feColorMatrix in="SourceAlpha" type="matrix" values="0 0 0 0 0 0 0 0 0 0 0 0 0 0 0 0 0 0 127 0" result="hardAlpha"/>
<feOffset dy="16"/>
<feGaussianBlur stdDeviation="16"/>
<feColorMatrix type="matrix" values="0 0 0 0 0.215686 0 0 0 0 0.231373 0 0 0 0 0.301961 0 0 0 0.04 0"/>
<feBlend mode="normal" in2="BackgroundImageFix" result="effect1_dropShadow_1158_86850"/>
<feBlend mode="normal" in="SourceGraphic" in2="effect1_dropShadow_1158_86850" result="shape"/>
</filter>
<clipPath id="clip0_1158_86850">
<rect x="1" y="1" width="480" height="392.5" rx="16" fill="white"/>
</clipPath>
<clipPath id="clip1_1158_86850">
<rect width="1728" height="1117" fill="white" transform="translate(-1163 -469)"/>
</clipPath>
</defs>
</svg>
