<svg width="994" height="352" viewBox="0 0 994 352" fill="none" xmlns="http://www.w3.org/2000/svg">
<rect x="0.5" y="0.5" width="993" height="351" rx="16.5" fill="#14141F"/>
<g filter="url(#filter0_d_1158_79541)">
<rect x="276" y="55" width="442" height="242" rx="16" fill="#1B1B28"/>
<rect x="308" y="87" width="40" height="40" rx="20" fill="#F38500"/>
<path fill-rule="evenodd" clip-rule="evenodd" d="M326.258 100.099C327.023 98.7398 328.98 98.7398 329.744 100.099L335.325 110.02C336.075 111.353 335.111 113 333.581 113H322.421C320.891 113 319.928 111.353 320.678 110.02L326.258 100.099ZM329.001 110C329.001 110.553 328.553 111 328.001 111C327.449 111 327.001 110.553 327.001 110C327.001 109.448 327.449 109 328.001 109C328.553 109 329.001 109.448 329.001 110ZM328.001 102C327.449 102 327.001 102.448 327.001 103V106C327.001 106.553 327.449 107 328.001 107C328.553 107 329.001 106.553 329.001 106V103C329.001 102.448 328.553 102 328.001 102Z" fill="white"/>
<path d="M370.04 100.1C371.52 100.1 372.813 100.387 373.92 100.96C375.04 101.52 375.9 102.333 376.5 103.4C377.113 104.453 377.42 105.687 377.42 107.1C377.42 108.513 377.113 109.74 376.5 110.78C375.9 111.82 375.04 112.62 373.92 113.18C372.813 113.727 371.52 114 370.04 114H365.5V100.1H370.04ZM370.04 112.14C371.667 112.14 372.913 111.7 373.78 110.82C374.647 109.94 375.08 108.7 375.08 107.1C375.08 105.487 374.647 104.227 373.78 103.32C372.913 102.413 371.667 101.96 370.04 101.96H367.78V112.14H370.04ZM389.78 108.22C389.78 108.633 389.753 109.007 389.7 109.34H381.28C381.346 110.22 381.673 110.927 382.26 111.46C382.846 111.993 383.566 112.26 384.42 112.26C385.646 112.26 386.513 111.747 387.02 110.72H389.48C389.146 111.733 388.54 112.567 387.66 113.22C386.793 113.86 385.713 114.18 384.42 114.18C383.366 114.18 382.42 113.947 381.58 113.48C380.753 113 380.1 112.333 379.62 111.48C379.153 110.613 378.92 109.613 378.92 108.48C378.92 107.347 379.146 106.353 379.6 105.5C380.066 104.633 380.713 103.967 381.54 103.5C382.38 103.033 383.34 102.8 384.42 102.8C385.46 102.8 386.386 103.027 387.2 103.48C388.013 103.933 388.646 104.573 389.1 105.4C389.553 106.213 389.78 107.153 389.78 108.22ZM387.4 107.5C387.386 106.66 387.086 105.987 386.5 105.48C385.913 104.973 385.186 104.72 384.32 104.72C383.533 104.72 382.86 104.973 382.3 105.48C381.74 105.973 381.406 106.647 381.3 107.5H387.4ZM394.303 99.2V114H392.023V99.2H394.303ZM407.397 108.22C407.397 108.633 407.37 109.007 407.317 109.34H398.897C398.964 110.22 399.29 110.927 399.877 111.46C400.464 111.993 401.184 112.26 402.037 112.26C403.264 112.26 404.13 111.747 404.637 110.72H407.097C406.764 111.733 406.157 112.567 405.277 113.22C404.41 113.86 403.33 114.18 402.037 114.18C400.984 114.18 400.037 113.947 399.197 113.48C398.37 113 397.717 112.333 397.237 111.48C396.77 110.613 396.537 109.613 396.537 108.48C396.537 107.347 396.764 106.353 397.217 105.5C397.684 104.633 398.33 103.967 399.157 103.5C399.997 103.033 400.957 102.8 402.037 102.8C403.077 102.8 404.004 103.027 404.817 103.48C405.63 103.933 406.264 104.573 406.717 105.4C407.17 106.213 407.397 107.153 407.397 108.22ZM405.017 107.5C405.004 106.66 404.704 105.987 404.117 105.48C403.53 104.973 402.804 104.72 401.937 104.72C401.15 104.72 400.477 104.973 399.917 105.48C399.357 105.973 399.024 106.647 398.917 107.5H405.017ZM412.301 104.84V110.94C412.301 111.353 412.394 111.653 412.581 111.84C412.781 112.013 413.114 112.1 413.581 112.1H414.981V114H413.181C412.154 114 411.367 113.76 410.821 113.28C410.274 112.8 410.001 112.02 410.001 110.94V104.84H408.701V102.98H410.001V100.24H412.301V102.98H414.981V104.84H412.301ZM427.182 108.22C427.182 108.633 427.155 109.007 427.102 109.34H418.682C418.749 110.22 419.075 110.927 419.662 111.46C420.249 111.993 420.969 112.26 421.822 112.26C423.049 112.26 423.915 111.747 424.422 110.72H426.882C426.549 111.733 425.942 112.567 425.062 113.22C424.195 113.86 423.115 114.18 421.822 114.18C420.769 114.18 419.822 113.947 418.982 113.48C418.155 113 417.502 112.333 417.022 111.48C416.555 110.613 416.322 109.613 416.322 108.48C416.322 107.347 416.549 106.353 417.002 105.5C417.469 104.633 418.115 103.967 418.942 103.5C419.782 103.033 420.742 102.8 421.822 102.8C422.862 102.8 423.789 103.027 424.602 103.48C425.415 103.933 426.049 104.573 426.502 105.4C426.955 106.213 427.182 107.153 427.182 108.22ZM424.802 107.5C424.789 106.66 424.489 105.987 423.902 105.48C423.315 104.973 422.589 104.72 421.722 104.72C420.935 104.72 420.262 104.973 419.702 105.48C419.142 105.973 418.809 106.647 418.702 107.5H424.802ZM442.801 100.1V101.96H436.901V106.06H441.501V107.92H436.901V114H434.621V100.1H442.801ZM446.074 101.52C445.661 101.52 445.314 101.38 445.034 101.1C444.754 100.82 444.614 100.473 444.614 100.06C444.614 99.6467 444.754 99.3 445.034 99.02C445.314 98.74 445.661 98.6 446.074 98.6C446.474 98.6 446.814 98.74 447.094 99.02C447.374 99.3 447.514 99.6467 447.514 100.06C447.514 100.473 447.374 100.82 447.094 101.1C446.814 101.38 446.474 101.52 446.074 101.52ZM447.194 102.98V114H444.914V102.98H447.194ZM452.468 99.2V114H450.188V99.2H452.468ZM465.561 108.22C465.561 108.633 465.534 109.007 465.481 109.34H457.061C457.128 110.22 457.454 110.927 458.041 111.46C458.628 111.993 459.348 112.26 460.201 112.26C461.428 112.26 462.294 111.747 462.801 110.72H465.261C464.928 111.733 464.321 112.567 463.441 113.22C462.574 113.86 461.494 114.18 460.201 114.18C459.148 114.18 458.201 113.947 457.361 113.48C456.534 113 455.881 112.333 455.401 111.48C454.934 110.613 454.701 109.613 454.701 108.48C454.701 107.347 454.928 106.353 455.381 105.5C455.848 104.633 456.494 103.967 457.321 103.5C458.161 103.033 459.121 102.8 460.201 102.8C461.241 102.8 462.168 103.027 462.981 103.48C463.794 103.933 464.428 104.573 464.881 105.4C465.334 106.213 465.561 107.153 465.561 108.22ZM463.181 107.5C463.168 106.66 462.868 105.987 462.281 105.48C461.694 104.973 460.968 104.72 460.101 104.72C459.314 104.72 458.641 104.973 458.081 105.48C457.521 105.973 457.188 106.647 457.081 107.5H463.181Z" fill="#E8E9F0"/>
<path fill-rule="evenodd" clip-rule="evenodd" d="M667.152 100.151C667.621 99.6826 668.381 99.6826 668.849 100.151L674.001 105.303L679.152 100.151C679.621 99.6826 680.381 99.6826 680.849 100.151C681.318 100.62 681.318 101.38 680.849 101.848L675.698 107L680.849 112.151C681.318 112.62 681.318 113.38 680.849 113.848C680.381 114.317 679.621 114.317 679.152 113.848L674.001 108.697L668.849 113.848C668.381 114.317 667.621 114.317 667.152 113.848C666.684 113.38 666.684 112.62 667.152 112.151L672.304 107L667.152 101.848C666.684 101.38 666.684 100.62 667.152 100.151Z" fill="#C4C6D7"/>
<path d="M309.651 167H308.358L312.097 156.818H313.369L317.108 167H315.815L312.773 158.429H312.693L309.651 167ZM310.128 163.023H315.338V164.116H310.128V163.023ZM318.535 167V159.364H319.668V160.517H319.748C319.887 160.139 320.139 159.833 320.504 159.597C320.868 159.362 321.279 159.244 321.737 159.244C321.823 159.244 321.93 159.246 322.06 159.249C322.189 159.253 322.287 159.258 322.353 159.264V160.457C322.313 160.447 322.222 160.433 322.08 160.413C321.94 160.389 321.793 160.378 321.637 160.378C321.266 160.378 320.934 160.456 320.643 160.612C320.354 160.764 320.126 160.976 319.957 161.248C319.791 161.516 319.708 161.823 319.708 162.168V167H318.535ZM326.713 167.159C325.977 167.159 325.343 166.997 324.809 166.672C324.279 166.344 323.869 165.886 323.581 165.3C323.296 164.71 323.153 164.024 323.153 163.241C323.153 162.459 323.296 161.77 323.581 161.173C323.869 160.573 324.27 160.106 324.784 159.771C325.301 159.433 325.904 159.264 326.594 159.264C326.991 159.264 327.384 159.33 327.772 159.463C328.16 159.596 328.513 159.811 328.831 160.109C329.149 160.404 329.403 160.795 329.592 161.283C329.781 161.77 329.875 162.37 329.875 163.082V163.58H323.989V162.565H328.682C328.682 162.134 328.596 161.75 328.423 161.412C328.254 161.074 328.012 160.807 327.697 160.612C327.386 160.416 327.018 160.318 326.594 160.318C326.126 160.318 325.722 160.434 325.381 160.666C325.043 160.895 324.782 161.193 324.6 161.561C324.418 161.929 324.327 162.323 324.327 162.744V163.42C324.327 163.997 324.426 164.486 324.625 164.887C324.827 165.285 325.107 165.588 325.465 165.797C325.823 166.002 326.239 166.105 326.713 166.105C327.021 166.105 327.3 166.062 327.548 165.976C327.8 165.886 328.017 165.754 328.2 165.578C328.382 165.399 328.523 165.177 328.622 164.912L329.756 165.23C329.636 165.615 329.436 165.953 329.154 166.244C328.872 166.533 328.524 166.758 328.11 166.92C327.696 167.08 327.23 167.159 326.713 167.159ZM336.353 169.864C336.154 169.864 335.977 169.847 335.821 169.814C335.665 169.784 335.558 169.754 335.498 169.724L335.796 168.69C336.081 168.763 336.333 168.79 336.552 168.77C336.771 168.75 336.964 168.652 337.134 168.477C337.306 168.304 337.463 168.024 337.606 167.636L337.825 167.04L335.001 159.364H336.273L338.381 165.449H338.461L340.569 159.364H341.842L338.6 168.114C338.454 168.508 338.274 168.835 338.058 169.093C337.843 169.355 337.593 169.549 337.308 169.675C337.026 169.801 336.708 169.864 336.353 169.864ZM346.219 167.159C345.53 167.159 344.925 166.995 344.404 166.667C343.887 166.339 343.483 165.88 343.191 165.29C342.903 164.7 342.759 164.01 342.759 163.222C342.759 162.426 342.903 161.732 343.191 161.138C343.483 160.545 343.887 160.085 344.404 159.756C344.925 159.428 345.53 159.264 346.219 159.264C346.908 159.264 347.512 159.428 348.029 159.756C348.549 160.085 348.953 160.545 349.242 161.138C349.533 161.732 349.679 162.426 349.679 163.222C349.679 164.01 349.533 164.7 349.242 165.29C348.953 165.88 348.549 166.339 348.029 166.667C347.512 166.995 346.908 167.159 346.219 167.159ZM346.219 166.105C346.743 166.105 347.174 165.971 347.512 165.702C347.85 165.434 348.1 165.081 348.262 164.643C348.425 164.206 348.506 163.732 348.506 163.222C348.506 162.711 348.425 162.236 348.262 161.795C348.1 161.354 347.85 160.998 347.512 160.726C347.174 160.454 346.743 160.318 346.219 160.318C345.695 160.318 345.265 160.454 344.926 160.726C344.588 160.998 344.338 161.354 344.176 161.795C344.013 162.236 343.932 162.711 343.932 163.222C343.932 163.732 344.013 164.206 344.176 164.643C344.338 165.081 344.588 165.434 344.926 165.702C345.265 165.971 345.695 166.105 346.219 166.105ZM356.283 163.878V159.364H357.456V167H356.283V165.707H356.203C356.024 166.095 355.746 166.425 355.368 166.697C354.99 166.965 354.513 167.099 353.936 167.099C353.459 167.099 353.035 166.995 352.664 166.786C352.292 166.574 352.001 166.256 351.789 165.832C351.576 165.404 351.47 164.866 351.47 164.216V159.364H352.644V164.136C352.644 164.693 352.799 165.137 353.111 165.469C353.426 165.8 353.827 165.966 354.314 165.966C354.606 165.966 354.902 165.891 355.204 165.742C355.509 165.593 355.764 165.364 355.97 165.056C356.178 164.748 356.283 164.355 356.283 163.878ZM368.952 161.074L367.898 161.372C367.831 161.196 367.734 161.026 367.604 160.86C367.478 160.691 367.306 160.552 367.087 160.442C366.869 160.333 366.589 160.278 366.247 160.278C365.78 160.278 365.39 160.386 365.079 160.602C364.771 160.814 364.616 161.084 364.616 161.412C364.616 161.704 364.723 161.934 364.935 162.103C365.147 162.272 365.478 162.413 365.929 162.526L367.062 162.804C367.745 162.97 368.254 163.223 368.589 163.565C368.924 163.903 369.091 164.339 369.091 164.872C369.091 165.31 368.965 165.701 368.713 166.045C368.464 166.39 368.116 166.662 367.669 166.861C367.222 167.06 366.701 167.159 366.108 167.159C365.329 167.159 364.684 166.99 364.174 166.652C363.664 166.314 363.34 165.82 363.205 165.17L364.318 164.892C364.424 165.303 364.625 165.611 364.92 165.817C365.218 166.022 365.607 166.125 366.088 166.125C366.635 166.125 367.069 166.009 367.391 165.777C367.715 165.542 367.878 165.26 367.878 164.932C367.878 164.667 367.785 164.445 367.599 164.266C367.414 164.083 367.129 163.947 366.744 163.858L365.472 163.56C364.772 163.394 364.259 163.137 363.93 162.789C363.606 162.438 363.443 161.999 363.443 161.472C363.443 161.041 363.564 160.66 363.806 160.328C364.051 159.997 364.384 159.737 364.805 159.548C365.23 159.359 365.71 159.264 366.247 159.264C367.003 159.264 367.596 159.43 368.027 159.761C368.461 160.093 368.769 160.53 368.952 161.074ZM375.67 163.878V159.364H376.843V167H375.67V165.707H375.59C375.411 166.095 375.133 166.425 374.755 166.697C374.377 166.965 373.9 167.099 373.323 167.099C372.846 167.099 372.421 166.995 372.05 166.786C371.679 166.574 371.387 166.256 371.175 165.832C370.963 165.404 370.857 164.866 370.857 164.216V159.364H372.03V164.136C372.03 164.693 372.186 165.137 372.498 165.469C372.813 165.8 373.214 165.966 373.701 165.966C373.992 165.966 374.289 165.891 374.591 165.742C374.896 165.593 375.151 165.364 375.356 165.056C375.565 164.748 375.67 164.355 375.67 163.878ZM378.992 167V159.364H380.125V160.517H380.205C380.344 160.139 380.596 159.833 380.961 159.597C381.325 159.362 381.736 159.244 382.194 159.244C382.28 159.244 382.387 159.246 382.517 159.249C382.646 159.253 382.744 159.258 382.81 159.264V160.457C382.77 160.447 382.679 160.433 382.537 160.413C382.397 160.389 382.25 160.378 382.094 160.378C381.723 160.378 381.391 160.456 381.1 160.612C380.811 160.764 380.583 160.976 380.414 161.248C380.248 161.516 380.165 161.823 380.165 162.168V167H378.992ZM387.17 167.159C386.434 167.159 385.8 166.997 385.266 166.672C384.736 166.344 384.326 165.886 384.038 165.3C383.753 164.71 383.61 164.024 383.61 163.241C383.61 162.459 383.753 161.77 384.038 161.173C384.326 160.573 384.727 160.106 385.241 159.771C385.758 159.433 386.361 159.264 387.051 159.264C387.449 159.264 387.841 159.33 388.229 159.463C388.617 159.596 388.97 159.811 389.288 160.109C389.606 160.404 389.86 160.795 390.049 161.283C390.238 161.77 390.332 162.37 390.332 163.082V163.58H384.446V162.565H389.139C389.139 162.134 389.053 161.75 388.88 161.412C388.711 161.074 388.469 160.807 388.154 160.612C387.843 160.416 387.475 160.318 387.051 160.318C386.583 160.318 386.179 160.434 385.838 160.666C385.5 160.895 385.239 161.193 385.057 161.561C384.875 161.929 384.784 162.323 384.784 162.744V163.42C384.784 163.997 384.883 164.486 385.082 164.887C385.284 165.285 385.564 165.588 385.922 165.797C386.28 166.002 386.696 166.105 387.17 166.105C387.478 166.105 387.757 166.062 388.005 165.976C388.257 165.886 388.474 165.754 388.657 165.578C388.839 165.399 388.98 165.177 389.079 164.912L390.213 165.23C390.093 165.615 389.893 165.953 389.611 166.244C389.329 166.533 388.981 166.758 388.567 166.92C388.153 167.08 387.687 167.159 387.17 167.159ZM396.81 169.864C396.611 169.864 396.434 169.847 396.278 169.814C396.122 169.784 396.015 169.754 395.955 169.724L396.253 168.69C396.538 168.763 396.79 168.79 397.009 168.77C397.228 168.75 397.422 168.652 397.591 168.477C397.763 168.304 397.92 168.024 398.063 167.636L398.282 167.04L395.458 159.364H396.73L398.838 165.449H398.918L401.026 159.364H402.299L399.057 168.114C398.911 168.508 398.731 168.835 398.515 169.093C398.3 169.355 398.05 169.549 397.765 169.675C397.483 169.801 397.165 169.864 396.81 169.864ZM406.676 167.159C405.987 167.159 405.382 166.995 404.862 166.667C404.344 166.339 403.94 165.88 403.648 165.29C403.36 164.7 403.216 164.01 403.216 163.222C403.216 162.426 403.36 161.732 403.648 161.138C403.94 160.545 404.344 160.085 404.862 159.756C405.382 159.428 405.987 159.264 406.676 159.264C407.366 159.264 407.969 159.428 408.486 159.756C409.006 160.085 409.411 160.545 409.699 161.138C409.991 161.732 410.136 162.426 410.136 163.222C410.136 164.01 409.991 164.7 409.699 165.29C409.411 165.88 409.006 166.339 408.486 166.667C407.969 166.995 407.366 167.159 406.676 167.159ZM406.676 166.105C407.2 166.105 407.631 165.971 407.969 165.702C408.307 165.434 408.557 165.081 408.719 164.643C408.882 164.206 408.963 163.732 408.963 163.222C408.963 162.711 408.882 162.236 408.719 161.795C408.557 161.354 408.307 160.998 407.969 160.726C407.631 160.454 407.2 160.318 406.676 160.318C406.152 160.318 405.722 160.454 405.384 160.726C405.045 160.998 404.795 161.354 404.633 161.795C404.47 162.236 404.389 162.711 404.389 163.222C404.389 163.732 404.47 164.206 404.633 164.643C404.795 165.081 405.045 165.434 405.384 165.702C405.722 165.971 406.152 166.105 406.676 166.105ZM416.74 163.878V159.364H417.913V167H416.74V165.707H416.66C416.481 166.095 416.203 166.425 415.825 166.697C415.447 166.965 414.97 167.099 414.393 167.099C413.916 167.099 413.492 166.995 413.121 166.786C412.749 166.574 412.458 166.256 412.246 165.832C412.033 165.404 411.927 164.866 411.927 164.216V159.364H413.101V164.136C413.101 164.693 413.256 165.137 413.568 165.469C413.883 165.8 414.284 165.966 414.771 165.966C415.063 165.966 415.359 165.891 415.661 165.742C415.966 165.593 416.221 165.364 416.427 165.056C416.635 164.748 416.74 164.355 416.74 163.878ZM425.73 167L423.403 159.364H424.636L426.287 165.21H426.366L427.997 159.364H429.25L430.86 165.19H430.94L432.591 159.364H433.824L431.497 167H430.343L428.673 161.134H428.554L426.883 167H425.73ZM437.622 167.179C437.138 167.179 436.699 167.088 436.304 166.906C435.91 166.72 435.597 166.453 435.365 166.105C435.133 165.754 435.017 165.33 435.017 164.832C435.017 164.395 435.103 164.04 435.275 163.768C435.448 163.493 435.678 163.278 435.966 163.122C436.255 162.966 436.573 162.85 436.921 162.774C437.272 162.695 437.625 162.632 437.98 162.585C438.444 162.526 438.82 162.481 439.108 162.451C439.4 162.418 439.612 162.363 439.745 162.287C439.881 162.211 439.949 162.078 439.949 161.889V161.849C439.949 161.359 439.814 160.978 439.546 160.706C439.281 160.434 438.878 160.298 438.338 160.298C437.778 160.298 437.338 160.421 437.02 160.666C436.702 160.911 436.478 161.173 436.349 161.452L435.235 161.054C435.434 160.59 435.699 160.229 436.031 159.97C436.366 159.708 436.73 159.526 437.125 159.423C437.522 159.317 437.913 159.264 438.298 159.264C438.543 159.264 438.825 159.294 439.143 159.354C439.465 159.41 439.775 159.528 440.073 159.707C440.374 159.886 440.625 160.156 440.824 160.517C441.022 160.878 441.122 161.362 441.122 161.969V167H439.949V165.966H439.889C439.809 166.132 439.677 166.309 439.491 166.498C439.306 166.687 439.059 166.848 438.75 166.98C438.442 167.113 438.066 167.179 437.622 167.179ZM437.801 166.125C438.265 166.125 438.656 166.034 438.974 165.852C439.296 165.669 439.538 165.434 439.7 165.146C439.866 164.857 439.949 164.554 439.949 164.236V163.162C439.899 163.222 439.789 163.276 439.62 163.326C439.455 163.372 439.262 163.414 439.044 163.45C438.828 163.483 438.618 163.513 438.412 163.54C438.21 163.563 438.046 163.583 437.92 163.599C437.615 163.639 437.33 163.704 437.065 163.793C436.803 163.879 436.591 164.01 436.429 164.186C436.27 164.358 436.19 164.594 436.19 164.892C436.19 165.3 436.341 165.608 436.642 165.817C436.947 166.022 437.333 166.125 437.801 166.125ZM444.437 162.406V167H443.263V159.364H444.397V160.557H444.496C444.675 160.169 444.947 159.857 445.312 159.622C445.676 159.384 446.147 159.264 446.724 159.264C447.241 159.264 447.693 159.37 448.081 159.582C448.469 159.791 448.77 160.109 448.986 160.537C449.201 160.961 449.309 161.498 449.309 162.148V167H448.135V162.227C448.135 161.627 447.98 161.16 447.668 160.825C447.357 160.487 446.929 160.318 446.385 160.318C446.011 160.318 445.676 160.399 445.381 160.562C445.09 160.724 444.859 160.961 444.69 161.273C444.521 161.584 444.437 161.962 444.437 162.406ZM454.774 159.364V160.358H450.816V159.364H454.774ZM451.97 157.534H453.143V164.812C453.143 165.144 453.191 165.393 453.287 165.558C453.387 165.721 453.513 165.83 453.665 165.886C453.821 165.939 453.985 165.966 454.157 165.966C454.287 165.966 454.393 165.959 454.475 165.946C454.558 165.929 454.625 165.916 454.674 165.906L454.913 166.96C454.833 166.99 454.722 167.02 454.58 167.05C454.437 167.083 454.257 167.099 454.038 167.099C453.707 167.099 453.382 167.028 453.064 166.886C452.749 166.743 452.487 166.526 452.278 166.234C452.073 165.943 451.97 165.575 451.97 165.131V157.534ZM463.797 159.364V160.358H459.84V159.364H463.797ZM460.993 157.534H462.167V164.812C462.167 165.144 462.215 165.393 462.311 165.558C462.41 165.721 462.536 165.83 462.689 165.886C462.844 165.939 463.008 165.966 463.181 165.966C463.31 165.966 463.416 165.959 463.499 165.946C463.582 165.929 463.648 165.916 463.698 165.906L463.936 166.96C463.857 166.99 463.746 167.02 463.603 167.05C463.461 167.083 463.28 167.099 463.061 167.099C462.73 167.099 462.405 167.028 462.087 166.886C461.772 166.743 461.51 166.526 461.301 166.234C461.096 165.943 460.993 165.575 460.993 165.131V157.534ZM468.582 167.159C467.893 167.159 467.288 166.995 466.768 166.667C466.251 166.339 465.846 165.88 465.555 165.29C465.266 164.7 465.122 164.01 465.122 163.222C465.122 162.426 465.266 161.732 465.555 161.138C465.846 160.545 466.251 160.085 466.768 159.756C467.288 159.428 467.893 159.264 468.582 159.264C469.272 159.264 469.875 159.428 470.392 159.756C470.912 160.085 471.317 160.545 471.605 161.138C471.897 161.732 472.043 162.426 472.043 163.222C472.043 164.01 471.897 164.7 471.605 165.29C471.317 165.88 470.912 166.339 470.392 166.667C469.875 166.995 469.272 167.159 468.582 167.159ZM468.582 166.105C469.106 166.105 469.537 165.971 469.875 165.702C470.213 165.434 470.463 165.081 470.626 164.643C470.788 164.206 470.869 163.732 470.869 163.222C470.869 162.711 470.788 162.236 470.626 161.795C470.463 161.354 470.213 160.998 469.875 160.726C469.537 160.454 469.106 160.318 468.582 160.318C468.059 160.318 467.628 160.454 467.29 160.726C466.952 160.998 466.701 161.354 466.539 161.795C466.377 162.236 466.295 162.711 466.295 163.222C466.295 163.732 466.377 164.206 466.539 164.643C466.701 165.081 466.952 165.434 467.29 165.702C467.628 165.971 468.059 166.105 468.582 166.105ZM480.655 167.159C480.018 167.159 479.456 166.998 478.969 166.677C478.482 166.352 478.101 165.895 477.826 165.305C477.551 164.711 477.413 164.01 477.413 163.202C477.413 162.4 477.551 161.704 477.826 161.114C478.101 160.524 478.484 160.068 478.974 159.746C479.465 159.425 480.032 159.264 480.675 159.264C481.172 159.264 481.564 159.347 481.853 159.513C482.144 159.675 482.367 159.861 482.519 160.07C482.675 160.275 482.796 160.444 482.882 160.577H482.981V156.818H484.155V167H483.021V165.827H482.882C482.796 165.966 482.673 166.142 482.514 166.354C482.355 166.562 482.128 166.75 481.833 166.915C481.538 167.078 481.145 167.159 480.655 167.159ZM480.814 166.105C481.284 166.105 481.682 165.982 482.007 165.737C482.332 165.489 482.579 165.146 482.748 164.708C482.917 164.267 483.001 163.759 483.001 163.182C483.001 162.612 482.918 162.113 482.753 161.685C482.587 161.254 482.342 160.92 482.017 160.681C481.692 160.439 481.291 160.318 480.814 160.318C480.317 160.318 479.902 160.446 479.571 160.701C479.243 160.953 478.996 161.296 478.83 161.73C478.668 162.161 478.586 162.645 478.586 163.182C478.586 163.725 478.669 164.219 478.835 164.663C479.004 165.104 479.253 165.455 479.581 165.717C479.912 165.976 480.323 166.105 480.814 166.105ZM489.668 167.159C488.932 167.159 488.298 166.997 487.764 166.672C487.234 166.344 486.824 165.886 486.536 165.3C486.251 164.71 486.108 164.024 486.108 163.241C486.108 162.459 486.251 161.77 486.536 161.173C486.824 160.573 487.225 160.106 487.739 159.771C488.256 159.433 488.859 159.264 489.549 159.264C489.947 159.264 490.339 159.33 490.727 159.463C491.115 159.596 491.468 159.811 491.786 160.109C492.104 160.404 492.358 160.795 492.547 161.283C492.736 161.77 492.83 162.37 492.83 163.082V163.58H486.944V162.565H491.637C491.637 162.134 491.551 161.75 491.378 161.412C491.209 161.074 490.967 160.807 490.653 160.612C490.341 160.416 489.973 160.318 489.549 160.318C489.081 160.318 488.677 160.434 488.336 160.666C487.998 160.895 487.738 161.193 487.555 161.561C487.373 161.929 487.282 162.323 487.282 162.744V163.42C487.282 163.997 487.381 164.486 487.58 164.887C487.782 165.285 488.062 165.588 488.42 165.797C488.778 166.002 489.194 166.105 489.668 166.105C489.976 166.105 490.255 166.062 490.503 165.976C490.755 165.886 490.972 165.754 491.155 165.578C491.337 165.399 491.478 165.177 491.577 164.912L492.711 165.23C492.591 165.615 492.391 165.953 492.109 166.244C491.827 166.533 491.479 166.758 491.065 166.92C490.651 167.08 490.185 167.159 489.668 167.159ZM495.788 156.818V167H494.615V156.818H495.788ZM501.139 167.159C500.403 167.159 499.768 166.997 499.235 166.672C498.704 166.344 498.295 165.886 498.007 165.3C497.722 164.71 497.579 164.024 497.579 163.241C497.579 162.459 497.722 161.77 498.007 161.173C498.295 160.573 498.696 160.106 499.21 159.771C499.727 159.433 500.33 159.264 501.02 159.264C501.417 159.264 501.81 159.33 502.198 159.463C502.586 159.596 502.939 159.811 503.257 160.109C503.575 160.404 503.828 160.795 504.017 161.283C504.206 161.77 504.301 162.37 504.301 163.082V163.58H498.414V162.565H503.108C503.108 162.134 503.021 161.75 502.849 161.412C502.68 161.074 502.438 160.807 502.123 160.612C501.812 160.416 501.444 160.318 501.02 160.318C500.552 160.318 500.148 160.434 499.806 160.666C499.468 160.895 499.208 161.193 499.026 161.561C498.844 161.929 498.752 162.323 498.752 162.744V163.42C498.752 163.997 498.852 164.486 499.051 164.887C499.253 165.285 499.533 165.588 499.891 165.797C500.249 166.002 500.665 166.105 501.139 166.105C501.447 166.105 501.725 166.062 501.974 165.976C502.226 165.886 502.443 165.754 502.625 165.578C502.808 165.399 502.949 165.177 503.048 164.912L504.181 165.23C504.062 165.615 503.862 165.953 503.58 166.244C503.298 166.533 502.95 166.758 502.536 166.92C502.122 167.08 501.656 167.159 501.139 167.159ZM509.407 159.364V160.358H505.449V159.364H509.407ZM506.603 157.534H507.776V164.812C507.776 165.144 507.824 165.393 507.92 165.558C508.02 165.721 508.145 165.83 508.298 165.886C508.454 165.939 508.618 165.966 508.79 165.966C508.919 165.966 509.025 165.959 509.108 165.946C509.191 165.929 509.257 165.916 509.307 165.906L509.546 166.96C509.466 166.99 509.355 167.02 509.213 167.05C509.07 167.083 508.89 167.099 508.671 167.099C508.339 167.099 508.015 167.028 507.696 166.886C507.382 166.743 507.12 166.526 506.911 166.234C506.705 165.943 506.603 165.575 506.603 165.131V157.534ZM514.291 167.159C513.555 167.159 512.921 166.997 512.387 166.672C511.857 166.344 511.447 165.886 511.159 165.3C510.874 164.71 510.732 164.024 510.732 163.241C510.732 162.459 510.874 161.77 511.159 161.173C511.447 160.573 511.848 160.106 512.362 159.771C512.879 159.433 513.482 159.264 514.172 159.264C514.57 159.264 514.962 159.33 515.35 159.463C515.738 159.596 516.091 159.811 516.409 160.109C516.727 160.404 516.981 160.795 517.17 161.283C517.359 161.77 517.453 162.37 517.453 163.082V163.58H511.567V162.565H516.26C516.26 162.134 516.174 161.75 516.001 161.412C515.832 161.074 515.59 160.807 515.276 160.612C514.964 160.416 514.596 160.318 514.172 160.318C513.705 160.318 513.3 160.434 512.959 160.666C512.621 160.895 512.361 161.193 512.178 161.561C511.996 161.929 511.905 162.323 511.905 162.744V163.42C511.905 163.997 512.004 164.486 512.203 164.887C512.405 165.285 512.685 165.588 513.043 165.797C513.401 166.002 513.817 166.105 514.291 166.105C514.599 166.105 514.878 166.062 515.126 165.976C515.378 165.886 515.595 165.754 515.778 165.578C515.96 165.399 516.101 165.177 516.2 164.912L517.334 165.23C517.214 165.615 517.014 165.953 516.732 166.244C516.451 166.533 516.103 166.758 515.688 166.92C515.274 167.08 514.808 167.159 514.291 167.159ZM526.576 159.364V160.358H522.46V159.364H526.576ZM523.692 167V158.31C523.692 157.872 523.795 157.508 524.001 157.216C524.206 156.924 524.473 156.705 524.801 156.56C525.129 156.414 525.476 156.341 525.84 156.341C526.129 156.341 526.364 156.364 526.546 156.411C526.728 156.457 526.864 156.5 526.954 156.54L526.616 157.554C526.556 157.534 526.473 157.509 526.367 157.479C526.264 157.45 526.129 157.435 525.96 157.435C525.572 157.435 525.292 157.532 525.119 157.728C524.95 157.924 524.866 158.21 524.866 158.588V167H523.692ZM528.22 167V159.364H529.394V167H528.22ZM528.817 158.091C528.588 158.091 528.391 158.013 528.225 157.857C528.063 157.701 527.982 157.514 527.982 157.295C527.982 157.077 528.063 156.889 528.225 156.734C528.391 156.578 528.588 156.5 528.817 156.5C529.046 156.5 529.241 156.578 529.404 156.734C529.569 156.889 529.652 157.077 529.652 157.295C529.652 157.514 529.569 157.701 529.404 157.857C529.241 158.013 529.046 158.091 528.817 158.091ZM532.716 156.818V167H531.543V156.818H532.716ZM538.067 167.159C537.331 167.159 536.696 166.997 536.162 166.672C535.632 166.344 535.223 165.886 534.934 165.3C534.649 164.71 534.507 164.024 534.507 163.241C534.507 162.459 534.649 161.77 534.934 161.173C535.223 160.573 535.624 160.106 536.138 159.771C536.655 159.433 537.258 159.264 537.947 159.264C538.345 159.264 538.738 159.33 539.126 159.463C539.513 159.596 539.866 159.811 540.184 160.109C540.503 160.404 540.756 160.795 540.945 161.283C541.134 161.77 541.229 162.37 541.229 163.082V163.58H535.342V162.565H540.035C540.035 162.134 539.949 161.75 539.777 161.412C539.608 161.074 539.366 160.807 539.051 160.612C538.739 160.416 538.372 160.318 537.947 160.318C537.48 160.318 537.076 160.434 536.734 160.666C536.396 160.895 536.136 161.193 535.954 161.561C535.771 161.929 535.68 162.323 535.68 162.744V163.42C535.68 163.997 535.78 164.486 535.979 164.887C536.181 165.285 536.461 165.588 536.819 165.797C537.177 166.002 537.593 166.105 538.067 166.105C538.375 166.105 538.653 166.062 538.902 165.976C539.154 165.886 539.371 165.754 539.553 165.578C539.735 165.399 539.876 165.177 539.976 164.912L541.109 165.23C540.99 165.615 540.789 165.953 540.508 166.244C540.226 166.533 539.878 166.758 539.464 166.92C539.049 167.08 538.584 167.159 538.067 167.159ZM544.187 162.406V167H543.013V159.364H544.147V160.557H544.246C544.425 160.169 544.697 159.857 545.062 159.622C545.426 159.384 545.897 159.264 546.474 159.264C546.991 159.264 547.443 159.37 547.831 159.582C548.219 159.791 548.52 160.109 548.736 160.537C548.951 160.961 549.059 161.498 549.059 162.148V167H547.885V162.227C547.885 161.627 547.73 161.16 547.418 160.825C547.107 160.487 546.679 160.318 546.135 160.318C545.761 160.318 545.426 160.399 545.131 160.562C544.84 160.724 544.609 160.961 544.44 161.273C544.271 161.584 544.187 161.962 544.187 162.406ZM553.45 167.179C552.966 167.179 552.527 167.088 552.132 166.906C551.738 166.72 551.425 166.453 551.193 166.105C550.961 165.754 550.845 165.33 550.845 164.832C550.845 164.395 550.931 164.04 551.103 163.768C551.276 163.493 551.506 163.278 551.794 163.122C552.083 162.966 552.401 162.85 552.749 162.774C553.1 162.695 553.453 162.632 553.808 162.585C554.272 162.526 554.648 162.481 554.936 162.451C555.228 162.418 555.44 162.363 555.573 162.287C555.709 162.211 555.777 162.078 555.777 161.889V161.849C555.777 161.359 555.642 160.978 555.374 160.706C555.109 160.434 554.706 160.298 554.166 160.298C553.606 160.298 553.167 160.421 552.848 160.666C552.53 160.911 552.306 161.173 552.177 161.452L551.064 161.054C551.262 160.59 551.528 160.229 551.859 159.97C552.194 159.708 552.558 159.526 552.953 159.423C553.35 159.317 553.742 159.264 554.126 159.264C554.371 159.264 554.653 159.294 554.971 159.354C555.293 159.41 555.603 159.528 555.901 159.707C556.203 159.886 556.453 160.156 556.652 160.517C556.85 160.878 556.95 161.362 556.95 161.969V167H555.777V165.966H555.717C555.637 166.132 555.505 166.309 555.319 166.498C555.134 166.687 554.887 166.848 554.578 166.98C554.27 167.113 553.894 167.179 553.45 167.179ZM553.629 166.125C554.093 166.125 554.484 166.034 554.802 165.852C555.124 165.669 555.366 165.434 555.528 165.146C555.694 164.857 555.777 164.554 555.777 164.236V163.162C555.727 163.222 555.618 163.276 555.449 163.326C555.283 163.372 555.091 163.414 554.872 163.45C554.656 163.483 554.446 163.513 554.24 163.54C554.038 163.563 553.874 163.583 553.748 163.599C553.443 163.639 553.158 163.704 552.893 163.793C552.631 163.879 552.419 164.01 552.257 164.186C552.098 164.358 552.018 164.594 552.018 164.892C552.018 165.3 552.169 165.608 552.471 165.817C552.775 166.022 553.162 166.125 553.629 166.125ZM559.091 167V159.364H560.225V160.557H560.324C560.483 160.149 560.74 159.833 561.095 159.607C561.45 159.379 561.876 159.264 562.373 159.264C562.876 159.264 563.296 159.379 563.631 159.607C563.969 159.833 564.232 160.149 564.421 160.557H564.501C564.696 160.162 564.989 159.849 565.381 159.617C565.772 159.382 566.241 159.264 566.787 159.264C567.47 159.264 568.029 159.478 568.463 159.906C568.897 160.33 569.114 160.991 569.114 161.889V167H567.941V161.889C567.941 161.326 567.787 160.923 567.479 160.681C567.17 160.439 566.807 160.318 566.39 160.318C565.853 160.318 565.437 160.481 565.142 160.805C564.847 161.127 564.699 161.535 564.699 162.028V167H563.506V161.77C563.506 161.336 563.365 160.986 563.084 160.721C562.802 160.452 562.439 160.318 561.995 160.318C561.69 160.318 561.405 160.399 561.14 160.562C560.878 160.724 560.666 160.95 560.503 161.238C560.344 161.523 560.265 161.853 560.265 162.227V167H559.091ZM574.461 167.159C573.725 167.159 573.091 166.997 572.557 166.672C572.027 166.344 571.617 165.886 571.329 165.3C571.044 164.71 570.901 164.024 570.901 163.241C570.901 162.459 571.044 161.77 571.329 161.173C571.617 160.573 572.018 160.106 572.532 159.771C573.049 159.433 573.652 159.264 574.342 159.264C574.74 159.264 575.132 159.33 575.52 159.463C575.908 159.596 576.261 159.811 576.579 160.109C576.897 160.404 577.151 160.795 577.34 161.283C577.529 161.77 577.623 162.37 577.623 163.082V163.58H571.737V162.565H576.43C576.43 162.134 576.344 161.75 576.171 161.412C576.002 161.074 575.76 160.807 575.445 160.612C575.134 160.416 574.766 160.318 574.342 160.318C573.874 160.318 573.47 160.434 573.129 160.666C572.791 160.895 572.53 161.193 572.348 161.561C572.166 161.929 572.075 162.323 572.075 162.744V163.42C572.075 163.997 572.174 164.486 572.373 164.887C572.575 165.285 572.855 165.588 573.213 165.797C573.571 166.002 573.987 166.105 574.461 166.105C574.769 166.105 575.048 166.062 575.296 165.976C575.548 165.886 575.765 165.754 575.948 165.578C576.13 165.399 576.271 165.177 576.37 164.912L577.504 165.23C577.384 165.615 577.184 165.953 576.902 166.244C576.62 166.533 576.272 166.758 575.858 166.92C575.444 167.08 574.978 167.159 574.461 167.159ZM580.263 167.08C580.018 167.08 579.807 166.992 579.632 166.816C579.456 166.64 579.368 166.43 579.368 166.185C579.368 165.939 579.456 165.729 579.632 165.553C579.807 165.378 580.018 165.29 580.263 165.29C580.508 165.29 580.719 165.378 580.894 165.553C581.07 165.729 581.158 165.939 581.158 166.185C581.158 166.347 581.116 166.496 581.034 166.632C580.954 166.768 580.846 166.877 580.71 166.96C580.578 167.04 580.429 167.08 580.263 167.08ZM583.263 169.864V159.364H584.397V160.577H584.536C584.622 160.444 584.742 160.275 584.894 160.07C585.05 159.861 585.272 159.675 585.56 159.513C585.852 159.347 586.246 159.264 586.743 159.264C587.386 159.264 587.953 159.425 588.444 159.746C588.934 160.068 589.317 160.524 589.592 161.114C589.867 161.704 590.005 162.4 590.005 163.202C590.005 164.01 589.867 164.711 589.592 165.305C589.317 165.895 588.936 166.352 588.449 166.677C587.961 166.998 587.4 167.159 586.763 167.159C586.273 167.159 585.88 167.078 585.585 166.915C585.29 166.75 585.063 166.562 584.904 166.354C584.745 166.142 584.622 165.966 584.536 165.827H584.437V169.864H583.263ZM584.417 163.182C584.417 163.759 584.501 164.267 584.67 164.708C584.839 165.146 585.086 165.489 585.411 165.737C585.736 165.982 586.134 166.105 586.604 166.105C587.095 166.105 587.504 165.976 587.832 165.717C588.164 165.455 588.412 165.104 588.578 164.663C588.747 164.219 588.831 163.725 588.831 163.182C588.831 162.645 588.749 162.161 588.583 161.73C588.421 161.296 588.174 160.953 587.842 160.701C587.514 160.446 587.101 160.318 586.604 160.318C586.127 160.318 585.726 160.439 585.401 160.681C585.076 160.92 584.831 161.254 584.665 161.685C584.5 162.113 584.417 162.612 584.417 163.182ZM592.968 162.406V167H591.795V159.364H592.928V160.557H593.028C593.206 160.169 593.478 159.857 593.843 159.622C594.207 159.384 594.678 159.264 595.255 159.264C595.772 159.264 596.224 159.37 596.612 159.582C597 159.791 597.301 160.109 597.517 160.537C597.732 160.961 597.84 161.498 597.84 162.148V167H596.667V162.227C596.667 161.627 596.511 161.16 596.199 160.825C595.888 160.487 595.46 160.318 594.917 160.318C594.542 160.318 594.207 160.399 593.912 160.562C593.621 160.724 593.39 160.961 593.221 161.273C593.052 161.584 592.968 161.962 592.968 162.406ZM603.066 170.023C602.5 170.023 602.012 169.95 601.605 169.804C601.197 169.661 600.857 169.473 600.586 169.237C600.317 169.005 600.103 168.757 599.944 168.491L600.879 167.835C600.985 167.974 601.119 168.134 601.282 168.312C601.444 168.495 601.666 168.652 601.948 168.785C602.233 168.921 602.606 168.989 603.066 168.989C603.683 168.989 604.192 168.839 604.593 168.541C604.994 168.243 605.194 167.776 605.194 167.139V165.588H605.095C605.009 165.727 604.886 165.9 604.727 166.105C604.571 166.307 604.346 166.488 604.051 166.647C603.759 166.803 603.365 166.881 602.868 166.881C602.251 166.881 601.698 166.735 601.207 166.443C600.72 166.152 600.334 165.727 600.049 165.17C599.767 164.614 599.626 163.937 599.626 163.142C599.626 162.36 599.764 161.679 600.039 161.099C600.314 160.515 600.697 160.065 601.187 159.746C601.678 159.425 602.244 159.264 602.887 159.264C603.385 159.264 603.779 159.347 604.071 159.513C604.366 159.675 604.591 159.861 604.747 160.07C604.906 160.275 605.029 160.444 605.115 160.577H605.234V159.364H606.368V167.219C606.368 167.875 606.218 168.409 605.92 168.82C605.625 169.234 605.227 169.537 604.727 169.729C604.23 169.925 603.676 170.023 603.066 170.023ZM603.027 165.827C603.497 165.827 603.895 165.719 604.22 165.504C604.545 165.288 604.792 164.978 604.961 164.574C605.13 164.17 605.214 163.686 605.214 163.122C605.214 162.572 605.131 162.086 604.966 161.665C604.8 161.245 604.555 160.915 604.23 160.676C603.905 160.437 603.504 160.318 603.027 160.318C602.529 160.318 602.115 160.444 601.784 160.696C601.456 160.948 601.209 161.286 601.043 161.71C600.881 162.134 600.799 162.605 600.799 163.122C600.799 163.652 600.882 164.121 601.048 164.529C601.217 164.933 601.466 165.252 601.794 165.484C602.125 165.712 602.536 165.827 603.027 165.827ZM615.853 159.364V160.358H611.737V159.364H615.853ZM612.97 167V158.31C612.97 157.872 613.073 157.508 613.278 157.216C613.484 156.924 613.75 156.705 614.078 156.56C614.407 156.414 614.753 156.341 615.118 156.341C615.406 156.341 615.641 156.364 615.824 156.411C616.006 156.457 616.142 156.5 616.231 156.54L615.893 157.554C615.833 157.534 615.751 157.509 615.645 157.479C615.542 157.45 615.406 157.435 615.237 157.435C614.849 157.435 614.569 157.532 614.397 157.728C614.228 157.924 614.143 158.21 614.143 158.588V167H612.97ZM617.498 167V159.364H618.631V160.517H618.711C618.85 160.139 619.102 159.833 619.466 159.597C619.831 159.362 620.242 159.244 620.699 159.244C620.786 159.244 620.893 159.246 621.023 159.249C621.152 159.253 621.25 159.258 621.316 159.264V160.457C621.276 160.447 621.185 160.433 621.042 160.413C620.903 160.389 620.756 160.378 620.6 160.378C620.229 160.378 619.897 160.456 619.606 160.612C619.317 160.764 619.089 160.976 618.92 161.248C618.754 161.516 618.671 161.823 618.671 162.168V167H617.498ZM625.577 167.159C624.887 167.159 624.282 166.995 623.762 166.667C623.245 166.339 622.84 165.88 622.549 165.29C622.26 164.7 622.116 164.01 622.116 163.222C622.116 162.426 622.26 161.732 622.549 161.138C622.84 160.545 623.245 160.085 623.762 159.756C624.282 159.428 624.887 159.264 625.577 159.264C626.266 159.264 626.869 159.428 627.386 159.756C627.907 160.085 628.311 160.545 628.599 161.138C628.891 161.732 629.037 162.426 629.037 163.222C629.037 164.01 628.891 164.7 628.599 165.29C628.311 165.88 627.907 166.339 627.386 166.667C626.869 166.995 626.266 167.159 625.577 167.159ZM625.577 166.105C626.1 166.105 626.531 165.971 626.869 165.702C627.207 165.434 627.457 165.081 627.62 164.643C627.782 164.206 627.863 163.732 627.863 163.222C627.863 162.711 627.782 162.236 627.62 161.795C627.457 161.354 627.207 160.998 626.869 160.726C626.531 160.454 626.1 160.318 625.577 160.318C625.053 160.318 624.622 160.454 624.284 160.726C623.946 160.998 623.696 161.354 623.533 161.795C623.371 162.236 623.29 162.711 623.29 163.222C623.29 163.732 623.371 164.206 623.533 164.643C623.696 165.081 623.946 165.434 624.284 165.702C624.622 165.971 625.053 166.105 625.577 166.105ZM630.828 167V159.364H631.961V160.557H632.061C632.22 160.149 632.477 159.833 632.831 159.607C633.186 159.379 633.612 159.264 634.109 159.264C634.613 159.264 635.032 159.379 635.367 159.607C635.705 159.833 635.968 160.149 636.157 160.557H636.237C636.432 160.162 636.726 159.849 637.117 159.617C637.508 159.382 637.977 159.264 638.524 159.264C639.207 159.264 639.765 159.478 640.199 159.906C640.633 160.33 640.85 160.991 640.85 161.889V167H639.677V161.889C639.677 161.326 639.523 160.923 639.215 160.681C638.907 160.439 638.544 160.318 638.126 160.318C637.589 160.318 637.173 160.481 636.878 160.805C636.583 161.127 636.436 161.535 636.436 162.028V167H635.243V161.77C635.243 161.336 635.102 160.986 634.82 160.721C634.538 160.452 634.175 160.318 633.731 160.318C633.426 160.318 633.141 160.399 632.876 160.562C632.614 160.724 632.402 160.95 632.24 161.238C632.081 161.523 632.001 161.853 632.001 162.227V167H630.828ZM646.536 160V159.105C646.536 158.833 646.584 158.545 646.68 158.24C646.779 157.932 646.922 157.635 647.107 157.35C647.296 157.062 647.523 156.812 647.788 156.599L648.425 157.116C648.216 157.415 648.034 157.726 647.878 158.051C647.725 158.373 647.649 158.717 647.649 159.085V160H646.536ZM649.722 167V159.364H650.856V160.557H650.955C651.114 160.149 651.371 159.833 651.726 159.607C652.08 159.379 652.506 159.264 653.004 159.264C653.507 159.264 653.927 159.379 654.261 159.607C654.599 159.833 654.863 160.149 655.052 160.557H655.131C655.327 160.162 655.62 159.849 656.011 159.617C656.402 159.382 656.871 159.264 657.418 159.264C658.101 159.264 658.66 159.478 659.094 159.906C659.528 160.33 659.745 160.991 659.745 161.889V167H658.572V161.889C658.572 161.326 658.418 160.923 658.109 160.681C657.801 160.439 657.438 160.318 657.021 160.318C656.484 160.318 656.068 160.481 655.773 160.805C655.478 161.127 655.33 161.535 655.33 162.028V167H654.137V161.77C654.137 161.336 653.996 160.986 653.714 160.721C653.433 160.452 653.07 160.318 652.626 160.318C652.321 160.318 652.036 160.399 651.771 160.562C651.509 160.724 651.297 160.95 651.134 161.238C650.975 161.523 650.896 161.853 650.896 162.227V167H649.722ZM662.373 169.864C662.174 169.864 661.996 169.847 661.841 169.814C661.685 169.784 661.577 169.754 661.517 169.724L661.816 168.69C662.101 168.763 662.353 168.79 662.571 168.77C662.79 168.75 662.984 168.652 663.153 168.477C663.325 168.304 663.483 168.024 663.625 167.636L663.844 167.04L661.02 159.364H662.293L664.401 165.449H664.48L666.588 159.364H667.861L664.62 168.114C664.474 168.508 664.293 168.835 664.078 169.093C663.862 169.355 663.612 169.549 663.327 169.675C663.045 169.801 662.727 169.864 662.373 169.864ZM312.474 180.364V181.358H308.358V180.364H312.474ZM309.591 188V179.31C309.591 178.872 309.694 178.508 309.899 178.216C310.105 177.924 310.371 177.705 310.7 177.56C311.028 177.414 311.374 177.341 311.739 177.341C312.027 177.341 312.262 177.364 312.445 177.411C312.627 177.457 312.763 177.5 312.852 177.54L312.514 178.554C312.455 178.534 312.372 178.509 312.266 178.479C312.163 178.45 312.027 178.435 311.858 178.435C311.47 178.435 311.19 178.532 311.018 178.728C310.849 178.924 310.764 179.21 310.764 179.588V188H309.591ZM314.119 188V180.364H315.292V188H314.119ZM314.715 179.091C314.487 179.091 314.289 179.013 314.124 178.857C313.961 178.701 313.88 178.514 313.88 178.295C313.88 178.077 313.961 177.889 314.124 177.734C314.289 177.578 314.487 177.5 314.715 177.5C314.944 177.5 315.14 177.578 315.302 177.734C315.468 177.889 315.551 178.077 315.551 178.295C315.551 178.514 315.468 178.701 315.302 178.857C315.14 179.013 314.944 179.091 314.715 179.091ZM317.441 188V180.364H318.575V181.517H318.654C318.793 181.139 319.045 180.833 319.41 180.597C319.774 180.362 320.185 180.244 320.643 180.244C320.729 180.244 320.837 180.246 320.966 180.249C321.095 180.253 321.193 180.258 321.259 180.264V181.457C321.219 181.447 321.128 181.433 320.986 181.413C320.847 181.389 320.699 181.378 320.543 181.378C320.172 181.378 319.841 181.456 319.549 181.612C319.261 181.764 319.032 181.976 318.863 182.248C318.697 182.516 318.614 182.823 318.614 183.168V188H317.441ZM328.059 182.074L327.005 182.372C326.939 182.196 326.841 182.026 326.712 181.86C326.586 181.691 326.414 181.552 326.195 181.442C325.976 181.333 325.696 181.278 325.355 181.278C324.887 181.278 324.498 181.386 324.186 181.602C323.878 181.814 323.724 182.084 323.724 182.412C323.724 182.704 323.83 182.934 324.042 183.103C324.254 183.272 324.586 183.413 325.036 183.526L326.17 183.804C326.853 183.97 327.361 184.223 327.696 184.565C328.031 184.903 328.198 185.339 328.198 185.872C328.198 186.31 328.072 186.701 327.82 187.045C327.572 187.39 327.224 187.662 326.776 187.861C326.329 188.06 325.809 188.159 325.215 188.159C324.436 188.159 323.792 187.99 323.281 187.652C322.771 187.314 322.448 186.82 322.312 186.17L323.426 185.892C323.532 186.303 323.732 186.611 324.027 186.817C324.325 187.022 324.715 187.125 325.195 187.125C325.742 187.125 326.177 187.009 326.498 186.777C326.823 186.542 326.985 186.26 326.985 185.932C326.985 185.667 326.892 185.445 326.707 185.266C326.521 185.083 326.236 184.947 325.852 184.858L324.579 184.56C323.88 184.394 323.366 184.137 323.038 183.789C322.713 183.438 322.551 182.999 322.551 182.472C322.551 182.041 322.672 181.66 322.914 181.328C323.159 180.997 323.492 180.737 323.913 180.548C324.337 180.359 324.818 180.264 325.355 180.264C326.11 180.264 326.704 180.43 327.134 180.761C327.569 181.093 327.877 181.53 328.059 182.074ZM333.286 180.364V181.358H329.328V180.364H333.286ZM330.482 178.534H331.655V185.812C331.655 186.144 331.703 186.393 331.799 186.558C331.898 186.721 332.024 186.83 332.177 186.886C332.333 186.939 332.497 186.966 332.669 186.966C332.798 186.966 332.904 186.959 332.987 186.946C333.07 186.929 333.136 186.916 333.186 186.906L333.425 187.96C333.345 187.99 333.234 188.02 333.092 188.05C332.949 188.083 332.768 188.099 332.55 188.099C332.218 188.099 331.893 188.028 331.575 187.886C331.26 187.743 330.999 187.526 330.79 187.234C330.584 186.943 330.482 186.575 330.482 186.131V178.534ZM339.147 188V177.818H340.32V181.577H340.42C340.506 181.444 340.625 181.275 340.778 181.07C340.933 180.861 341.156 180.675 341.444 180.513C341.736 180.347 342.13 180.264 342.627 180.264C343.27 180.264 343.837 180.425 344.327 180.746C344.818 181.068 345.201 181.524 345.476 182.114C345.751 182.704 345.888 183.4 345.888 184.202C345.888 185.01 345.751 185.711 345.476 186.305C345.201 186.895 344.82 187.352 344.332 187.677C343.845 187.998 343.283 188.159 342.647 188.159C342.156 188.159 341.764 188.078 341.469 187.915C341.174 187.75 340.947 187.562 340.788 187.354C340.629 187.142 340.506 186.966 340.42 186.827H340.281V188H339.147ZM340.3 184.182C340.3 184.759 340.385 185.267 340.554 185.708C340.723 186.146 340.97 186.489 341.295 186.737C341.62 186.982 342.017 187.105 342.488 187.105C342.978 187.105 343.388 186.976 343.716 186.717C344.047 186.455 344.296 186.104 344.462 185.663C344.631 185.219 344.715 184.725 344.715 184.182C344.715 183.645 344.632 183.161 344.467 182.73C344.304 182.296 344.057 181.953 343.726 181.701C343.398 181.446 342.985 181.318 342.488 181.318C342.011 181.318 341.61 181.439 341.285 181.681C340.96 181.92 340.715 182.254 340.549 182.685C340.383 183.113 340.3 183.612 340.3 184.182ZM352.496 184.878V180.364H353.669V188H352.496V186.707H352.416C352.237 187.095 351.959 187.425 351.581 187.697C351.203 187.965 350.726 188.099 350.149 188.099C349.672 188.099 349.248 187.995 348.876 187.786C348.505 187.574 348.214 187.256 348.001 186.832C347.789 186.404 347.683 185.866 347.683 185.216V180.364H348.857V185.136C348.857 185.693 349.012 186.137 349.324 186.469C349.639 186.8 350.04 186.966 350.527 186.966C350.819 186.966 351.115 186.891 351.417 186.742C351.722 186.593 351.977 186.364 352.183 186.056C352.391 185.748 352.496 185.355 352.496 184.878ZM358.92 188.159C358.204 188.159 357.588 187.99 357.071 187.652C356.554 187.314 356.156 186.848 355.878 186.255C355.599 185.662 355.46 184.984 355.46 184.222C355.46 183.446 355.603 182.762 355.888 182.168C356.176 181.572 356.577 181.106 357.091 180.771C357.608 180.433 358.211 180.264 358.9 180.264C359.437 180.264 359.921 180.364 360.352 180.562C360.783 180.761 361.136 181.04 361.411 181.398C361.686 181.756 361.857 182.173 361.923 182.651H360.75C360.66 182.303 360.461 181.994 360.153 181.726C359.848 181.454 359.437 181.318 358.92 181.318C358.463 181.318 358.062 181.437 357.717 181.676C357.376 181.911 357.109 182.245 356.917 182.675C356.728 183.103 356.633 183.605 356.633 184.182C356.633 184.772 356.726 185.286 356.912 185.723C357.101 186.161 357.366 186.5 357.707 186.742C358.052 186.984 358.456 187.105 358.92 187.105C359.225 187.105 359.502 187.052 359.751 186.946C359.999 186.84 360.21 186.688 360.382 186.489C360.554 186.29 360.677 186.051 360.75 185.773H361.923C361.857 186.223 361.693 186.629 361.431 186.991C361.172 187.349 360.829 187.634 360.402 187.846C359.978 188.055 359.484 188.159 358.92 188.159ZM364.732 185.216L364.712 183.764H364.951L368.292 180.364H369.743L366.184 183.963H366.084L364.732 185.216ZM363.638 188V177.818H364.812V188H363.638ZM368.491 188L365.508 184.222L366.343 183.406L369.982 188H368.491ZM374.141 188.159C373.405 188.159 372.77 187.997 372.237 187.672C371.706 187.344 371.297 186.886 371.009 186.3C370.724 185.71 370.581 185.024 370.581 184.241C370.581 183.459 370.724 182.77 371.009 182.173C371.297 181.573 371.698 181.106 372.212 180.771C372.729 180.433 373.332 180.264 374.021 180.264C374.419 180.264 374.812 180.33 375.2 180.463C375.588 180.596 375.941 180.811 376.259 181.109C376.577 181.404 376.83 181.795 377.019 182.283C377.208 182.77 377.303 183.37 377.303 184.082V184.58H371.416V183.565H376.11C376.11 183.134 376.023 182.75 375.851 182.412C375.682 182.074 375.44 181.807 375.125 181.612C374.814 181.416 374.446 181.318 374.021 181.318C373.554 181.318 373.15 181.434 372.808 181.666C372.47 181.895 372.21 182.193 372.028 182.561C371.846 182.929 371.754 183.323 371.754 183.744V184.42C371.754 184.997 371.854 185.486 372.053 185.887C372.255 186.285 372.535 186.588 372.893 186.797C373.251 187.002 373.667 187.105 374.141 187.105C374.449 187.105 374.727 187.062 374.976 186.976C375.228 186.886 375.445 186.754 375.627 186.578C375.81 186.399 375.95 186.177 376.05 185.912L377.183 186.23C377.064 186.615 376.864 186.953 376.582 187.244C376.3 187.533 375.952 187.758 375.538 187.92C375.124 188.08 374.658 188.159 374.141 188.159ZM382.409 180.364V181.358H378.451V180.364H382.409ZM379.605 178.534H380.778V185.812C380.778 186.144 380.826 186.393 380.922 186.558C381.021 186.721 381.147 186.83 381.3 186.886C381.456 186.939 381.62 186.966 381.792 186.966C381.921 186.966 382.027 186.959 382.11 186.946C382.193 186.929 382.259 186.916 382.309 186.906L382.548 187.96C382.468 187.99 382.357 188.02 382.215 188.05C382.072 188.083 381.892 188.099 381.673 188.099C381.341 188.099 381.017 188.028 380.698 187.886C380.383 187.743 380.122 187.526 379.913 187.234C379.707 186.943 379.605 186.575 379.605 186.131V178.534ZM385.604 177.818V178.713C385.604 178.985 385.554 179.275 385.455 179.583C385.359 179.888 385.216 180.185 385.027 180.473C384.842 180.758 384.616 181.007 384.351 181.219L383.715 180.702C383.924 180.403 384.104 180.094 384.257 179.772C384.413 179.447 384.49 179.101 384.49 178.733V177.818H385.604ZM388.685 185.136V185.077C388.692 184.444 388.758 183.94 388.884 183.565C389.01 183.191 389.189 182.888 389.421 182.656C389.653 182.424 389.931 182.21 390.256 182.014C390.452 181.895 390.627 181.754 390.783 181.592C390.939 181.426 391.062 181.235 391.151 181.02C391.244 180.804 391.29 180.566 391.29 180.304C391.29 179.979 391.214 179.697 391.062 179.459C390.909 179.22 390.705 179.036 390.45 178.907C390.195 178.778 389.912 178.713 389.6 178.713C389.328 178.713 389.066 178.769 388.814 178.882C388.563 178.995 388.352 179.172 388.183 179.414C388.014 179.656 387.916 179.973 387.89 180.364H386.637C386.663 179.8 386.809 179.318 387.074 178.917C387.343 178.516 387.696 178.209 388.133 177.997C388.574 177.785 389.063 177.679 389.6 177.679C390.183 177.679 390.69 177.795 391.121 178.027C391.555 178.259 391.89 178.577 392.126 178.982C392.364 179.386 392.483 179.847 392.483 180.364C392.483 180.728 392.427 181.058 392.314 181.353C392.205 181.648 392.046 181.911 391.837 182.143C391.632 182.375 391.383 182.581 391.091 182.76C390.8 182.942 390.566 183.134 390.39 183.337C390.215 183.536 390.087 183.772 390.008 184.048C389.928 184.323 389.885 184.666 389.878 185.077V185.136H388.685ZM389.322 188.08C389.076 188.08 388.866 187.992 388.69 187.816C388.515 187.64 388.427 187.43 388.427 187.185C388.427 186.939 388.515 186.729 388.69 186.553C388.866 186.378 389.076 186.29 389.322 186.29C389.567 186.29 389.777 186.378 389.953 186.553C390.129 186.729 390.216 186.939 390.216 187.185C390.216 187.347 390.175 187.496 390.092 187.632C390.013 187.768 389.905 187.877 389.769 187.96C389.636 188.04 389.487 188.08 389.322 188.08Z" fill="#E8E9F0"/>
<path d="M539.719 243.754H537.86C537.807 243.449 537.709 243.179 537.567 242.943C537.424 242.705 537.247 242.502 537.035 242.337C536.823 242.171 536.581 242.047 536.309 241.964C536.04 241.878 535.75 241.835 535.439 241.835C534.885 241.835 534.395 241.974 533.967 242.252C533.54 242.527 533.205 242.932 532.963 243.465C532.721 243.996 532.6 244.643 532.6 245.409C532.6 246.188 532.721 246.844 532.963 247.378C533.208 247.908 533.543 248.309 533.967 248.581C534.395 248.849 534.884 248.984 535.434 248.984C535.739 248.984 536.024 248.944 536.289 248.864C536.558 248.781 536.798 248.661 537.01 248.501C537.225 248.342 537.406 248.147 537.552 247.915C537.701 247.683 537.804 247.418 537.86 247.119L539.719 247.129C539.65 247.613 539.499 248.067 539.267 248.491C539.038 248.916 538.738 249.29 538.367 249.615C537.996 249.937 537.562 250.188 537.065 250.371C536.567 250.55 536.016 250.639 535.409 250.639C534.514 250.639 533.715 250.432 533.013 250.018C532.31 249.603 531.757 249.005 531.352 248.223C530.948 247.441 530.746 246.503 530.746 245.409C530.746 244.312 530.95 243.374 531.357 242.595C531.765 241.813 532.32 241.215 533.023 240.8C533.725 240.386 534.521 240.179 535.409 240.179C535.976 240.179 536.503 240.259 536.99 240.418C537.477 240.577 537.911 240.81 538.293 241.119C538.674 241.424 538.987 241.798 539.232 242.242C539.481 242.683 539.643 243.187 539.719 243.754ZM543.526 250.654C543.043 250.654 542.607 250.568 542.219 250.396C541.834 250.22 541.53 249.961 541.304 249.62C541.082 249.279 540.971 248.858 540.971 248.357C540.971 247.926 541.051 247.57 541.21 247.288C541.369 247.007 541.586 246.781 541.861 246.612C542.136 246.443 542.446 246.316 542.791 246.229C543.139 246.14 543.498 246.075 543.869 246.036C544.317 245.989 544.68 245.948 544.958 245.911C545.237 245.871 545.439 245.812 545.565 245.732C545.694 245.649 545.759 245.522 545.759 245.349V245.32C545.759 244.945 545.648 244.655 545.426 244.45C545.204 244.244 544.884 244.141 544.466 244.141C544.025 244.141 543.676 244.237 543.417 244.43C543.162 244.622 542.99 244.849 542.9 245.111L541.22 244.872C541.352 244.408 541.571 244.02 541.876 243.709C542.181 243.394 542.554 243.159 542.994 243.003C543.435 242.844 543.923 242.764 544.456 242.764C544.824 242.764 545.19 242.807 545.555 242.893C545.919 242.98 546.253 243.122 546.554 243.321C546.856 243.517 547.098 243.783 547.28 244.121C547.466 244.46 547.558 244.882 547.558 245.389V250.5H545.828V249.451H545.769C545.659 249.663 545.505 249.862 545.306 250.048C545.111 250.23 544.864 250.377 544.566 250.49C544.271 250.599 543.924 250.654 543.526 250.654ZM543.994 249.332C544.355 249.332 544.668 249.26 544.933 249.118C545.199 248.972 545.402 248.78 545.545 248.541C545.691 248.303 545.764 248.042 545.764 247.761V246.861C545.707 246.907 545.611 246.95 545.475 246.99C545.343 247.03 545.194 247.065 545.028 247.094C544.862 247.124 544.698 247.151 544.536 247.174C544.373 247.197 544.232 247.217 544.113 247.234C543.845 247.27 543.604 247.33 543.392 247.413C543.18 247.496 543.013 247.612 542.89 247.761C542.767 247.906 542.706 248.095 542.706 248.327C542.706 248.659 542.827 248.909 543.069 249.078C543.311 249.247 543.619 249.332 543.994 249.332ZM551.168 246.026V250.5H549.368V242.864H551.088V244.161H551.178C551.353 243.734 551.633 243.394 552.018 243.142C552.406 242.89 552.885 242.764 553.455 242.764C553.982 242.764 554.441 242.877 554.832 243.102C555.226 243.328 555.531 243.654 555.747 244.082C555.965 244.509 556.073 245.028 556.07 245.638V250.5H554.27V245.916C554.27 245.406 554.137 245.006 553.872 244.718C553.61 244.43 553.248 244.286 552.784 244.286C552.469 244.286 552.189 244.355 551.943 244.494C551.701 244.63 551.511 244.827 551.372 245.086C551.236 245.344 551.168 245.658 551.168 246.026ZM561.23 250.649C560.468 250.649 559.813 250.482 559.267 250.147C558.723 249.812 558.304 249.35 558.009 248.76C557.717 248.167 557.571 247.484 557.571 246.712C557.571 245.936 557.72 245.252 558.019 244.658C558.317 244.062 558.738 243.598 559.281 243.266C559.828 242.932 560.475 242.764 561.22 242.764C561.84 242.764 562.389 242.879 562.866 243.107C563.347 243.333 563.729 243.652 564.014 244.067C564.299 244.478 564.462 244.958 564.502 245.509H562.781C562.712 245.141 562.546 244.834 562.284 244.589C562.026 244.34 561.679 244.216 561.245 244.216C560.877 244.216 560.554 244.315 560.276 244.514C559.997 244.71 559.78 244.991 559.624 245.359C559.472 245.727 559.396 246.168 559.396 246.682C559.396 247.202 559.472 247.65 559.624 248.024C559.777 248.395 559.991 248.682 560.266 248.884C560.544 249.083 560.871 249.183 561.245 249.183C561.51 249.183 561.747 249.133 561.956 249.033C562.168 248.931 562.346 248.783 562.488 248.591C562.631 248.399 562.728 248.165 562.781 247.89H564.502C564.459 248.43 564.299 248.909 564.024 249.327C563.749 249.741 563.375 250.066 562.901 250.301C562.427 250.533 561.87 250.649 561.23 250.649ZM569.36 250.649C568.594 250.649 567.933 250.49 567.376 250.172C566.823 249.85 566.397 249.396 566.099 248.81C565.8 248.22 565.651 247.525 565.651 246.727C565.651 245.941 565.8 245.252 566.099 244.658C566.4 244.062 566.821 243.598 567.362 243.266C567.902 242.932 568.536 242.764 569.266 242.764C569.736 242.764 570.18 242.84 570.598 242.993C571.019 243.142 571.39 243.374 571.712 243.689C572.036 244.004 572.292 244.405 572.477 244.892C572.663 245.376 572.756 245.953 572.756 246.622V247.174H566.496V245.961H571.031C571.027 245.616 570.953 245.31 570.807 245.041C570.661 244.769 570.457 244.556 570.195 244.4C569.937 244.244 569.635 244.166 569.29 244.166C568.923 244.166 568.599 244.256 568.321 244.435C568.043 244.61 567.826 244.842 567.67 245.131C567.517 245.416 567.439 245.729 567.436 246.07V247.129C567.436 247.573 567.517 247.955 567.68 248.273C567.842 248.588 568.069 248.83 568.361 248.999C568.652 249.164 568.994 249.247 569.385 249.247C569.647 249.247 569.884 249.211 570.096 249.138C570.308 249.062 570.492 248.951 570.648 248.805C570.804 248.659 570.921 248.478 571.001 248.263L572.681 248.452C572.575 248.896 572.373 249.284 572.075 249.615C571.78 249.943 571.402 250.198 570.941 250.381C570.48 250.56 569.953 250.649 569.36 250.649ZM576.078 240.318V250.5H574.278V240.318H576.078Z" fill="white"/>
<rect x="610.5" y="225.5" width="75" height="39" rx="3.5" fill="#1B1B28"/>
<path d="M630.455 250.5H627.004V240.318H630.524C631.535 240.318 632.403 240.522 633.129 240.93C633.858 241.334 634.419 241.916 634.81 242.675C635.201 243.434 635.396 244.342 635.396 245.399C635.396 246.46 635.199 247.371 634.805 248.134C634.414 248.896 633.848 249.481 633.109 249.888C632.374 250.296 631.489 250.5 630.455 250.5ZM628.849 248.904H630.365C631.074 248.904 631.666 248.775 632.14 248.516C632.614 248.254 632.97 247.865 633.209 247.348C633.447 246.828 633.567 246.178 633.567 245.399C633.567 244.62 633.447 243.974 633.209 243.46C632.97 242.943 632.617 242.557 632.15 242.302C631.686 242.043 631.109 241.914 630.42 241.914H628.849V248.904ZM640.45 250.649C639.684 250.649 639.023 250.49 638.466 250.172C637.913 249.85 637.487 249.396 637.189 248.81C636.89 248.22 636.741 247.525 636.741 246.727C636.741 245.941 636.89 245.252 637.189 244.658C637.49 244.062 637.911 243.598 638.451 243.266C638.992 242.932 639.626 242.764 640.355 242.764C640.826 242.764 641.27 242.84 641.688 242.993C642.109 243.142 642.48 243.374 642.801 243.689C643.126 244.004 643.382 244.405 643.567 244.892C643.753 245.376 643.846 245.953 643.846 246.622V247.174H637.586V245.961H642.12C642.117 245.616 642.042 245.31 641.897 245.041C641.751 244.769 641.547 244.556 641.285 244.4C641.027 244.244 640.725 244.166 640.38 244.166C640.012 244.166 639.689 244.256 639.411 244.435C639.132 244.61 638.915 244.842 638.76 245.131C638.607 245.416 638.529 245.729 638.526 246.07V247.129C638.526 247.573 638.607 247.955 638.77 248.273C638.932 248.588 639.159 248.83 639.451 248.999C639.742 249.164 640.084 249.247 640.475 249.247C640.737 249.247 640.974 249.211 641.186 249.138C641.398 249.062 641.582 248.951 641.738 248.805C641.893 248.659 642.011 248.478 642.091 248.263L643.771 248.452C643.665 248.896 643.463 249.284 643.164 249.615C642.869 249.943 642.492 250.198 642.031 250.381C641.57 250.56 641.043 250.649 640.45 250.649ZM647.168 240.318V250.5H645.368V240.318H647.168ZM652.399 250.649C651.634 250.649 650.972 250.49 650.415 250.172C649.862 249.85 649.436 249.396 649.138 248.81C648.839 248.22 648.69 247.525 648.69 246.727C648.69 245.941 648.839 245.252 649.138 244.658C649.439 244.062 649.86 243.598 650.401 243.266C650.941 242.932 651.576 242.764 652.305 242.764C652.775 242.764 653.219 242.84 653.637 242.993C654.058 243.142 654.429 243.374 654.751 243.689C655.076 244.004 655.331 244.405 655.516 244.892C655.702 245.376 655.795 245.953 655.795 246.622V247.174H649.536V245.961H654.07C654.066 245.616 653.992 245.31 653.846 245.041C653.7 244.769 653.496 244.556 653.234 244.4C652.976 244.244 652.674 244.166 652.33 244.166C651.962 244.166 651.638 244.256 651.36 244.435C651.082 244.61 650.865 244.842 650.709 245.131C650.556 245.416 650.478 245.729 650.475 246.07V247.129C650.475 247.573 650.556 247.955 650.719 248.273C650.881 248.588 651.108 248.83 651.4 248.999C651.692 249.164 652.033 249.247 652.424 249.247C652.686 249.247 652.923 249.211 653.135 249.138C653.347 249.062 653.531 248.951 653.687 248.805C653.843 248.659 653.96 248.478 654.04 248.263L655.72 248.452C655.614 248.896 655.412 249.284 655.114 249.615C654.819 249.943 654.441 250.198 653.98 250.381C653.519 250.56 652.992 250.649 652.399 250.649ZM661.131 242.864V244.256H656.741V242.864H661.131ZM657.824 241.034H659.624V248.203C659.624 248.445 659.661 248.631 659.733 248.76C659.81 248.886 659.909 248.972 660.032 249.018C660.154 249.065 660.29 249.088 660.439 249.088C660.552 249.088 660.655 249.08 660.748 249.063C660.844 249.047 660.917 249.032 660.966 249.018L661.27 250.425C661.174 250.459 661.036 250.495 660.857 250.535C660.681 250.575 660.466 250.598 660.211 250.604C659.76 250.618 659.354 250.55 658.993 250.401C658.631 250.248 658.345 250.013 658.133 249.695C657.924 249.376 657.821 248.979 657.824 248.501V241.034ZM665.934 250.649C665.169 250.649 664.507 250.49 663.951 250.172C663.397 249.85 662.971 249.396 662.673 248.81C662.375 248.22 662.225 247.525 662.225 246.727C662.225 245.941 662.375 245.252 662.673 244.658C662.975 244.062 663.395 243.598 663.936 243.266C664.476 242.932 665.111 242.764 665.84 242.764C666.31 242.764 666.755 242.84 667.172 242.993C667.593 243.142 667.964 243.374 668.286 243.689C668.611 244.004 668.866 244.405 669.051 244.892C669.237 245.376 669.33 245.953 669.33 246.622V247.174H663.071V245.961H667.605C667.601 245.616 667.527 245.31 667.381 245.041C667.235 244.769 667.031 244.556 666.77 244.4C666.511 244.244 666.209 244.166 665.865 244.166C665.497 244.166 665.174 244.256 664.895 244.435C664.617 244.61 664.4 244.842 664.244 245.131C664.092 245.416 664.014 245.729 664.01 246.07V247.129C664.01 247.573 664.092 247.955 664.254 248.273C664.416 248.588 664.643 248.83 664.935 248.999C665.227 249.164 665.568 249.247 665.959 249.247C666.221 249.247 666.458 249.211 666.67 249.138C666.882 249.062 667.066 248.951 667.222 248.805C667.378 248.659 667.495 248.478 667.575 248.263L669.255 248.452C669.149 248.896 668.947 249.284 668.649 249.615C668.354 249.943 667.976 250.198 667.515 250.381C667.055 250.56 666.528 250.649 665.934 250.649Z" fill="white"/>
<rect x="610.5" y="225.5" width="75" height="39" rx="3.5" stroke="#373B4D"/>
<rect x="276.5" y="55.5" width="441" height="241" rx="15.5" stroke="#282A3B"/>
</g>
<rect x="0.5" y="0.5" width="993" height="351" rx="16.5" stroke="#282A3B"/>
<defs>
<filter id="filter0_d_1158_79541" x="244" y="39" width="506" height="306" filterUnits="userSpaceOnUse" color-interpolation-filters="sRGB">
<feFlood flood-opacity="0" result="BackgroundImageFix"/>
<feColorMatrix in="SourceAlpha" type="matrix" values="0 0 0 0 0 0 0 0 0 0 0 0 0 0 0 0 0 0 127 0" result="hardAlpha"/>
<feOffset dy="16"/>
<feGaussianBlur stdDeviation="16"/>
<feColorMatrix type="matrix" values="0 0 0 0 0.215686 0 0 0 0 0.231373 0 0 0 0 0.301961 0 0 0 0.04 0"/>
<feBlend mode="normal" in2="BackgroundImageFix" result="effect1_dropShadow_1158_79541"/>
<feBlend mode="normal" in="SourceGraphic" in2="effect1_dropShadow_1158_79541" result="shape"/>
</filter>
</defs>
</svg>
