<svg width="490" height="395" viewBox="0 0 490 395" fill="none" xmlns="http://www.w3.org/2000/svg">
<g clip-path="url(#clip0_1971_86820)">
<rect x="1" y="1" width="392.5" height="392.5" rx="16" fill="#D9D9D9"/>
<g clip-path="url(#clip1_1971_86820)">
<rect width="1728" height="1719" transform="translate(-1238 -151)" fill="#14141F"/>
<rect x="-1038" y="-151" width="1528" height="250" fill="#171723"/>
<rect x="-1037.5" y="-150.5" width="1527" height="249" stroke="#E8E9F0" stroke-opacity="0.5"/>
<g filter="url(#filter0_d_1971_86820)">
<rect x="-262" y="66" width="572" height="340" rx="16" fill="#1B1B28" stroke="#282A3B"/>
<line x1="-184" y1="194.247" x2="279" y2="194.247" stroke="#4F5769" stroke-width="0.5"/>
<line x1="-184" y1="229.517" x2="279" y2="229.517" stroke="#4F5769" stroke-width="0.5"/>
<line x1="-184" y1="265.714" x2="279" y2="265.714" stroke="#4F5769" stroke-width="0.5"/>
<line x1="-184" y1="300.984" x2="279" y2="300.984" stroke="#4F5769" stroke-width="0.5"/>
<line x1="-184" y1="336.253" x2="279" y2="336.253" stroke="#4F5769" stroke-width="0.5"/>
<path d="M-183.5 337C-178.5 330.5 -171.5 327.5 -161.741 296.884C-157.264 282.842 -145.113 233.103 -127.079 229.565C-93.9321 223.062 -77.8459 265.517 -51.0356 265.517C-29.0999 265.517 -20.1422 255.24 -2.68045 239.025C14.7812 222.81 25.5758 233.129 31.2905 236.077C37.0052 239.025 64.9439 263.348 83.6756 216.545C98.6609 179.102 125.36 192.959 137.648 203.278C150.624 212.122 182.317 275.133 203.906 264.519C225.495 253.905 264.839 239.025 278 277.501" stroke="#F02E65"/>
</g>
<path d="M243.136 360.273V369H242.079V361.381H242.028L239.897 362.795V361.722L242.079 360.273H243.136ZM248.543 369.119C248.185 369.114 247.827 369.045 247.469 368.915C247.112 368.784 246.785 368.564 246.489 368.254C246.194 367.942 245.957 367.52 245.778 366.989C245.599 366.455 245.509 365.784 245.509 364.977C245.509 364.205 245.582 363.52 245.727 362.923C245.871 362.324 246.082 361.82 246.357 361.411C246.633 360.999 246.965 360.686 247.354 360.473C247.746 360.26 248.188 360.153 248.68 360.153C249.168 360.153 249.603 360.251 249.984 360.447C250.367 360.641 250.68 360.911 250.921 361.257C251.163 361.604 251.319 362.003 251.39 362.455H250.35C250.254 362.062 250.066 361.737 249.788 361.479C249.509 361.22 249.14 361.091 248.68 361.091C248.004 361.091 247.471 361.385 247.082 361.973C246.695 362.561 246.501 363.386 246.498 364.449H246.566C246.725 364.207 246.914 364.001 247.133 363.831C247.354 363.658 247.599 363.524 247.866 363.43C248.133 363.337 248.415 363.29 248.714 363.29C249.214 363.29 249.671 363.415 250.086 363.665C250.501 363.912 250.833 364.254 251.083 364.692C251.333 365.126 251.458 365.625 251.458 366.188C251.458 366.727 251.337 367.222 251.096 367.67C250.854 368.116 250.515 368.472 250.077 368.736C249.643 368.997 249.131 369.125 248.543 369.119ZM248.543 368.182C248.901 368.182 249.222 368.092 249.506 367.913C249.793 367.734 250.019 367.494 250.184 367.193C250.352 366.892 250.435 366.557 250.435 366.188C250.435 365.827 250.354 365.499 250.192 365.203C250.033 364.905 249.813 364.668 249.532 364.491C249.254 364.315 248.935 364.227 248.577 364.227C248.308 364.227 248.056 364.281 247.823 364.389C247.59 364.494 247.386 364.639 247.21 364.824C247.036 365.009 246.9 365.22 246.8 365.459C246.701 365.695 246.651 365.943 246.651 366.205C246.651 366.551 246.732 366.875 246.894 367.176C247.059 367.477 247.283 367.72 247.567 367.905C247.854 368.089 248.18 368.182 248.543 368.182ZM257.02 369H255.912L259.117 360.273H260.208L263.412 369H262.304L259.696 361.653H259.628L257.02 369ZM257.429 365.591H261.895V366.528H257.429V365.591ZM268.76 366.324V362.455H269.766V369H268.76V367.892H268.692C268.539 368.224 268.3 368.507 267.976 368.74C267.652 368.97 267.243 369.085 266.749 369.085C266.34 369.085 265.976 368.996 265.658 368.817C265.34 368.635 265.09 368.362 264.908 367.999C264.726 367.632 264.635 367.17 264.635 366.614V362.455H265.641V366.545C265.641 367.023 265.775 367.403 266.042 367.688C266.311 367.972 266.655 368.114 267.073 368.114C267.323 368.114 267.577 368.05 267.836 367.922C268.097 367.794 268.316 367.598 268.492 367.334C268.671 367.07 268.76 366.733 268.76 366.324ZM274.25 371.591C273.764 371.591 273.347 371.528 272.997 371.403C272.648 371.281 272.357 371.119 272.124 370.918C271.893 370.719 271.71 370.506 271.574 370.278L272.375 369.716C272.466 369.835 272.581 369.972 272.72 370.125C272.859 370.281 273.05 370.416 273.291 370.53C273.536 370.646 273.855 370.705 274.25 370.705C274.778 370.705 275.214 370.577 275.558 370.321C275.902 370.065 276.074 369.665 276.074 369.119V367.79H275.989C275.915 367.909 275.81 368.057 275.673 368.233C275.54 368.406 275.347 368.561 275.094 368.697C274.844 368.831 274.506 368.898 274.08 368.898C273.551 368.898 273.077 368.773 272.656 368.523C272.239 368.273 271.908 367.909 271.663 367.432C271.422 366.955 271.301 366.375 271.301 365.693C271.301 365.023 271.419 364.439 271.655 363.942C271.891 363.442 272.219 363.055 272.639 362.783C273.06 362.507 273.545 362.369 274.097 362.369C274.523 362.369 274.861 362.44 275.111 362.582C275.364 362.722 275.557 362.881 275.69 363.06C275.827 363.236 275.932 363.381 276.006 363.494H276.108V362.455H277.08V369.188C277.08 369.75 276.952 370.207 276.696 370.56C276.443 370.915 276.102 371.175 275.673 371.339C275.247 371.507 274.773 371.591 274.25 371.591ZM274.216 367.994C274.619 367.994 274.96 367.902 275.239 367.717C275.517 367.533 275.729 367.267 275.874 366.92C276.018 366.574 276.091 366.159 276.091 365.676C276.091 365.205 276.02 364.788 275.878 364.428C275.736 364.067 275.526 363.784 275.247 363.58C274.969 363.375 274.625 363.273 274.216 363.273C273.79 363.273 273.435 363.381 273.151 363.597C272.869 363.812 272.658 364.102 272.516 364.466C272.376 364.83 272.307 365.233 272.307 365.676C272.307 366.131 272.378 366.533 272.52 366.882C272.665 367.229 272.878 367.501 273.159 367.7C273.443 367.896 273.795 367.994 274.216 367.994Z" fill="#868EA3"/>
<path d="M239.815 119.639C239.158 119.639 238.573 119.527 238.06 119.301C237.549 119.076 237.143 118.763 236.842 118.362C236.543 117.957 236.381 117.488 236.354 116.955H237.607C237.634 117.283 237.746 117.566 237.945 117.805C238.144 118.04 238.404 118.222 238.726 118.352C239.047 118.481 239.404 118.545 239.795 118.545C240.232 118.545 240.62 118.469 240.958 118.317C241.296 118.164 241.561 117.952 241.754 117.68C241.946 117.409 242.042 117.094 242.042 116.736C242.042 116.361 241.949 116.031 241.763 115.746C241.578 115.458 241.306 115.233 240.948 115.07C240.59 114.908 240.153 114.827 239.636 114.827H238.82V113.733H239.636C240.04 113.733 240.395 113.66 240.7 113.514C241.008 113.368 241.248 113.163 241.42 112.898C241.596 112.633 241.684 112.321 241.684 111.963C241.684 111.618 241.608 111.318 241.455 111.063C241.303 110.808 241.087 110.609 240.809 110.467C240.534 110.324 240.209 110.253 239.835 110.253C239.483 110.253 239.152 110.317 238.84 110.447C238.532 110.573 238.28 110.757 238.085 110.999C237.889 111.237 237.783 111.526 237.766 111.864H236.573C236.593 111.33 236.754 110.863 237.055 110.462C237.357 110.057 237.751 109.742 238.239 109.517C238.729 109.292 239.268 109.179 239.854 109.179C240.484 109.179 241.024 109.307 241.475 109.562C241.926 109.814 242.272 110.147 242.514 110.561C242.756 110.975 242.877 111.423 242.877 111.903C242.877 112.477 242.726 112.966 242.425 113.37C242.126 113.774 241.72 114.054 241.207 114.21V114.29C241.85 114.396 242.352 114.669 242.713 115.11C243.074 115.548 243.255 116.089 243.255 116.736C243.255 117.289 243.104 117.786 242.803 118.227C242.504 118.665 242.097 119.009 241.58 119.261C241.063 119.513 240.474 119.639 239.815 119.639ZM248.609 119.639C247.86 119.639 247.222 119.435 246.695 119.028C246.168 118.617 245.766 118.022 245.487 117.243C245.209 116.461 245.07 115.516 245.07 114.409C245.07 113.309 245.209 112.369 245.487 111.59C245.769 110.808 246.173 110.211 246.7 109.8C247.231 109.386 247.867 109.179 248.609 109.179C249.352 109.179 249.987 109.386 250.513 109.8C251.044 110.211 251.448 110.808 251.727 111.59C252.008 112.369 252.149 113.309 252.149 114.409C252.149 115.516 252.01 116.461 251.732 117.243C251.453 118.022 251.05 118.617 250.523 119.028C249.996 119.435 249.358 119.639 248.609 119.639ZM248.609 118.545C249.352 118.545 249.929 118.187 250.339 117.472C250.75 116.756 250.956 115.735 250.956 114.409C250.956 113.527 250.862 112.777 250.673 112.157C250.487 111.537 250.219 111.065 249.867 110.74C249.519 110.415 249.1 110.253 248.609 110.253C247.874 110.253 247.299 110.616 246.884 111.342C246.47 112.064 246.263 113.087 246.263 114.409C246.263 115.291 246.356 116.04 246.541 116.656C246.727 117.273 246.994 117.742 247.342 118.063C247.693 118.385 248.116 118.545 248.609 118.545ZM256.942 119.659C256.305 119.659 255.744 119.498 255.256 119.177C254.769 118.852 254.388 118.395 254.113 117.805C253.838 117.211 253.7 116.51 253.7 115.702C253.7 114.9 253.838 114.204 254.113 113.614C254.388 113.024 254.771 112.568 255.261 112.246C255.752 111.925 256.319 111.764 256.962 111.764C257.459 111.764 257.852 111.847 258.14 112.013C258.432 112.175 258.654 112.361 258.806 112.57C258.962 112.775 259.083 112.944 259.169 113.077H259.268V109.318H260.442V119.5H259.308V118.327H259.169C259.083 118.466 258.96 118.642 258.801 118.854C258.642 119.062 258.415 119.25 258.12 119.415C257.825 119.578 257.432 119.659 256.942 119.659ZM257.101 118.605C257.571 118.605 257.969 118.482 258.294 118.237C258.619 117.989 258.866 117.646 259.035 117.208C259.204 116.767 259.288 116.259 259.288 115.682C259.288 115.112 259.205 114.613 259.04 114.185C258.874 113.754 258.629 113.42 258.304 113.181C257.979 112.939 257.578 112.818 257.101 112.818C256.604 112.818 256.189 112.946 255.858 113.201C255.53 113.453 255.283 113.796 255.117 114.23C254.955 114.661 254.874 115.145 254.874 115.682C254.874 116.225 254.956 116.719 255.122 117.163C255.291 117.604 255.54 117.955 255.868 118.217C256.199 118.476 256.61 118.605 257.101 118.605Z" fill="#868EA3"/>
<path fill-rule="evenodd" clip-rule="evenodd" d="M270.234 111.834C270.547 111.522 271.053 111.522 271.366 111.834L274 114.469L276.634 111.834C276.947 111.522 277.453 111.522 277.766 111.834C278.078 112.147 278.078 112.653 277.766 112.966L274.566 116.166C274.253 116.478 273.747 116.478 273.434 116.166L270.234 112.966C269.922 112.653 269.922 112.147 270.234 111.834Z" fill="#868EA3"/>
<rect x="-1237.5" y="-150.5" width="1727" height="63" fill="white"/>
<g filter="url(#filter1_d_1971_86820)">
<mask id="path-18-inside-1_1971_86820" fill="white">
<path d="M250 -87H490V301C490 305.418 486.418 309 482 309H258C253.582 309 250 305.418 250 301V-87Z"/>
</mask>
<path d="M250 -87H490V301C490 305.418 486.418 309 482 309H258C253.582 309 250 305.418 250 301V-87Z" fill="#14141F" shape-rendering="crispEdges"/>
<g filter="url(#filter2_d_1971_86820)">
<line x1="250" y1="25.5" x2="490" y2="25.5" stroke="#282A3B"/>
<path d="M287.307 57.3182V67.5H286.114L280.565 59.5057H280.466V67.5H279.233V57.3182H280.426L285.994 65.3324H286.094V57.3182H287.307ZM292.817 67.6591C292.081 67.6591 291.446 67.4967 290.912 67.1719C290.382 66.8438 289.973 66.3864 289.684 65.7997C289.399 65.2098 289.257 64.5237 289.257 63.7415C289.257 62.9593 289.399 62.2699 289.684 61.6733C289.973 61.0734 290.374 60.6061 290.888 60.2713C291.405 59.9332 292.008 59.7642 292.697 59.7642C293.095 59.7642 293.488 59.8305 293.876 59.9631C294.263 60.0956 294.616 60.3111 294.934 60.6094C295.253 60.9044 295.506 61.2955 295.695 61.7827C295.884 62.2699 295.979 62.8698 295.979 63.5824V64.0795H290.092V63.0653H294.785C294.785 62.6345 294.699 62.25 294.527 61.9119C294.358 61.5739 294.116 61.3071 293.801 61.1115C293.489 60.916 293.122 60.8182 292.697 60.8182C292.23 60.8182 291.826 60.9342 291.484 61.1662C291.146 61.3949 290.886 61.6932 290.704 62.0611C290.521 62.429 290.43 62.8234 290.43 63.2443V63.9205C290.43 64.4972 290.53 64.986 290.729 65.3871C290.931 65.7848 291.211 66.0881 291.569 66.2969C291.927 66.5024 292.343 66.6051 292.817 66.6051C293.125 66.6051 293.403 66.562 293.652 66.4759C293.904 66.3864 294.121 66.2538 294.303 66.0781C294.485 65.8991 294.626 65.6771 294.726 65.4119L295.859 65.7301C295.74 66.1146 295.539 66.4527 295.258 66.7443C294.976 67.0327 294.628 67.258 294.214 67.4205C293.799 67.5795 293.334 67.6591 292.817 67.6591ZM299.493 67.5L297.167 59.8636H298.4L300.05 65.7102H300.13L301.76 59.8636H303.013L304.624 65.6903H304.704L306.354 59.8636H307.587L305.26 67.5H304.107L302.437 61.6335H302.317L300.647 67.5H299.493ZM316.178 67.6591C315.489 67.6591 314.884 67.495 314.363 67.1669C313.846 66.8388 313.442 66.3797 313.15 65.7898C312.862 65.1998 312.718 64.5104 312.718 63.7216C312.718 62.9261 312.862 62.2318 313.15 61.6385C313.442 61.0452 313.846 60.5845 314.363 60.2564C314.884 59.9283 315.489 59.7642 316.178 59.7642C316.867 59.7642 317.471 59.9283 317.988 60.2564C318.508 60.5845 318.912 61.0452 319.201 61.6385C319.492 62.2318 319.638 62.9261 319.638 63.7216C319.638 64.5104 319.492 65.1998 319.201 65.7898C318.912 66.3797 318.508 66.8388 317.988 67.1669C317.471 67.495 316.867 67.6591 316.178 67.6591ZM316.178 66.6051C316.702 66.6051 317.133 66.4709 317.471 66.2024C317.809 65.9339 318.059 65.581 318.221 65.1435C318.384 64.706 318.465 64.232 318.465 63.7216C318.465 63.2112 318.384 62.7356 318.221 62.2947C318.059 61.8539 317.809 61.4976 317.471 61.2259C317.133 60.9541 316.702 60.8182 316.178 60.8182C315.654 60.8182 315.224 60.9541 314.885 61.2259C314.547 61.4976 314.297 61.8539 314.135 62.2947C313.972 62.7356 313.891 63.2112 313.891 63.7216C313.891 64.232 313.972 64.706 314.135 65.1435C314.297 65.581 314.547 65.9339 314.885 66.2024C315.224 66.4709 315.654 66.6051 316.178 66.6051ZM321.429 67.5V59.8636H322.563V61.017H322.642C322.782 60.6392 323.033 60.3326 323.398 60.0973C323.763 59.862 324.174 59.7443 324.631 59.7443C324.717 59.7443 324.825 59.746 324.954 59.7493C325.083 59.7526 325.181 59.7576 325.248 59.7642V60.9574C325.208 60.9474 325.117 60.9325 324.974 60.9126C324.835 60.8894 324.687 60.8778 324.532 60.8778C324.16 60.8778 323.829 60.9557 323.537 61.1115C323.249 61.264 323.02 61.4761 322.851 61.7479C322.685 62.0163 322.603 62.3229 322.603 62.6676V67.5H321.429ZM329.488 70.5227C328.922 70.5227 328.434 70.4498 328.027 70.304C327.619 70.1615 327.279 69.9725 327.007 69.7372C326.739 69.5052 326.525 69.2566 326.366 68.9915L327.301 68.3352C327.407 68.4744 327.541 68.6335 327.703 68.8125C327.866 68.9948 328.088 69.1522 328.37 69.2848C328.655 69.4207 329.028 69.4886 329.488 69.4886C330.105 69.4886 330.614 69.3395 331.015 69.0412C331.416 68.7429 331.616 68.2756 331.616 67.6392V66.0881H331.517C331.431 66.2273 331.308 66.3996 331.149 66.6051C330.993 66.8073 330.768 66.9879 330.473 67.147C330.181 67.3028 329.787 67.3807 329.289 67.3807C328.673 67.3807 328.119 67.2348 327.629 66.9432C327.142 66.6515 326.756 66.2273 326.471 65.6705C326.189 65.1136 326.048 64.4375 326.048 63.642C326.048 62.8598 326.185 62.1787 326.461 61.5987C326.736 61.0154 327.118 60.5646 327.609 60.2464C328.1 59.925 328.666 59.7642 329.309 59.7642C329.806 59.7642 330.201 59.8471 330.493 60.0128C330.788 60.1752 331.013 60.3608 331.169 60.5696C331.328 60.7751 331.45 60.9441 331.537 61.0767H331.656V59.8636H332.789V67.7188C332.789 68.375 332.64 68.9086 332.342 69.3196C332.047 69.7339 331.649 70.0372 331.149 70.2294C330.652 70.425 330.098 70.5227 329.488 70.5227ZM329.449 66.3267C329.919 66.3267 330.317 66.219 330.642 66.0036C330.967 65.7881 331.213 65.4782 331.382 65.0739C331.551 64.6695 331.636 64.1856 331.636 63.6222C331.636 63.072 331.553 62.5864 331.387 62.1655C331.222 61.7446 330.976 61.4148 330.652 61.1761C330.327 60.9375 329.926 60.8182 329.449 60.8182C328.951 60.8182 328.537 60.9441 328.206 61.196C327.877 61.4479 327.631 61.786 327.465 62.2102C327.302 62.6345 327.221 63.1051 327.221 63.6222C327.221 64.1525 327.304 64.6214 327.47 65.0291C327.639 65.4335 327.887 65.7517 328.216 65.9837C328.547 66.2124 328.958 66.3267 329.449 66.3267ZM337.184 67.679C336.7 67.679 336.261 67.5878 335.867 67.4055C335.472 67.2199 335.159 66.9531 334.927 66.6051C334.695 66.2538 334.579 65.8295 334.579 65.3324C334.579 64.8949 334.665 64.5402 334.838 64.2685C335.01 63.9934 335.24 63.7779 335.529 63.6222C335.817 63.4664 336.135 63.3504 336.483 63.2741C336.835 63.1946 337.188 63.1316 337.542 63.0852C338.006 63.0256 338.382 62.9808 338.671 62.951C338.962 62.9179 339.175 62.8632 339.307 62.7869C339.443 62.7107 339.511 62.5781 339.511 62.3892V62.3494C339.511 61.8589 339.377 61.4777 339.108 61.206C338.843 60.9342 338.44 60.7983 337.9 60.7983C337.34 60.7983 336.901 60.9209 336.583 61.1662C336.265 61.4115 336.041 61.6733 335.912 61.9517L334.798 61.554C334.997 61.09 335.262 60.7287 335.593 60.4702C335.928 60.2083 336.293 60.026 336.687 59.9233C337.085 59.8172 337.476 59.7642 337.86 59.7642C338.106 59.7642 338.387 59.794 338.706 59.8537C339.027 59.91 339.337 60.0277 339.635 60.2067C339.937 60.3857 340.187 60.6558 340.386 61.017C340.585 61.3783 340.684 61.8622 340.684 62.4688V67.5H339.511V66.4659H339.451C339.372 66.6316 339.239 66.8089 339.054 66.9979C338.868 67.1868 338.621 67.3475 338.313 67.4801C338.005 67.6127 337.628 67.679 337.184 67.679ZM337.363 66.625C337.827 66.625 338.218 66.5339 338.537 66.3516C338.858 66.1693 339.1 65.9339 339.262 65.6456C339.428 65.3572 339.511 65.054 339.511 64.7358V63.6619C339.461 63.7216 339.352 63.7763 339.183 63.826C339.017 63.8724 338.825 63.9138 338.606 63.9503C338.391 63.9834 338.18 64.0133 337.975 64.0398C337.773 64.063 337.609 64.0829 337.483 64.0994C337.178 64.1392 336.893 64.2038 336.627 64.2933C336.366 64.3795 336.154 64.5104 335.991 64.6861C335.832 64.8584 335.752 65.0937 335.752 65.392C335.752 65.7997 335.903 66.108 336.205 66.3168C336.51 66.5223 336.896 66.625 337.363 66.625ZM343.999 62.9062V67.5H342.826V59.8636H343.959V61.0568H344.059C344.238 60.669 344.51 60.3575 344.874 60.1222C345.239 59.8835 345.709 59.7642 346.286 59.7642C346.803 59.7642 347.256 59.8703 347.643 60.0824C348.031 60.2912 348.333 60.6094 348.548 61.0369C348.764 61.4612 348.871 61.9981 348.871 62.6477V67.5H347.698V62.7273C347.698 62.1274 347.542 61.66 347.231 61.3253C346.919 60.9872 346.492 60.8182 345.948 60.8182C345.573 60.8182 345.239 60.8994 344.944 61.0618C344.652 61.2242 344.422 61.4612 344.253 61.7727C344.084 62.0843 343.999 62.4621 343.999 62.9062ZM351.015 67.5V59.8636H352.189V67.5H351.015ZM351.612 58.5909C351.383 58.5909 351.186 58.513 351.02 58.3572C350.858 58.2015 350.777 58.0142 350.777 57.7955C350.777 57.5767 350.858 57.3894 351.02 57.2337C351.186 57.0779 351.383 57 351.612 57C351.841 57 352.036 57.0779 352.199 57.2337C352.364 57.3894 352.447 57.5767 352.447 57.7955C352.447 58.0142 352.364 58.2015 352.199 58.3572C352.036 58.513 351.841 58.5909 351.612 58.5909ZM359.747 61.5739L358.693 61.8722C358.626 61.6965 358.529 61.5258 358.399 61.3601C358.273 61.1911 358.101 61.0518 357.882 60.9425C357.664 60.8331 357.383 60.7784 357.042 60.7784C356.575 60.7784 356.185 60.8861 355.874 61.1016C355.566 61.3137 355.411 61.5838 355.411 61.9119C355.411 62.2036 355.517 62.4339 355.73 62.603C355.942 62.772 356.273 62.9129 356.724 63.0256L357.857 63.304C358.54 63.4697 359.049 63.7232 359.384 64.0646C359.718 64.4027 359.886 64.8385 359.886 65.3722C359.886 65.8097 359.76 66.2008 359.508 66.5455C359.259 66.8902 358.911 67.1619 358.464 67.3608C358.017 67.5597 357.496 67.6591 356.903 67.6591C356.124 67.6591 355.479 67.4901 354.969 67.152C354.459 66.8139 354.135 66.3201 353.999 65.6705L355.113 65.392C355.219 65.803 355.42 66.1113 355.715 66.3168C356.013 66.5223 356.402 66.625 356.883 66.625C357.43 66.625 357.864 66.509 358.186 66.277C358.51 66.0417 358.673 65.7599 358.673 65.4318C358.673 65.1667 358.58 64.9446 358.394 64.7656C358.209 64.5833 357.924 64.4474 357.539 64.358L356.267 64.0597C355.567 63.8939 355.053 63.6371 354.725 63.2891C354.401 62.9377 354.238 62.4986 354.238 61.9716C354.238 61.5407 354.359 61.1596 354.601 60.8281C354.846 60.4967 355.179 60.2365 355.6 60.0476C356.025 59.8587 356.505 59.7642 357.042 59.7642C357.798 59.7642 358.391 59.9299 358.822 60.2614C359.256 60.5928 359.564 61.0303 359.747 61.5739ZM363.899 67.679C363.415 67.679 362.976 67.5878 362.582 67.4055C362.187 67.2199 361.874 66.9531 361.642 66.6051C361.41 66.2538 361.294 65.8295 361.294 65.3324C361.294 64.8949 361.38 64.5402 361.553 64.2685C361.725 63.9934 361.955 63.7779 362.244 63.6222C362.532 63.4664 362.85 63.3504 363.198 63.2741C363.549 63.1946 363.902 63.1316 364.257 63.0852C364.721 63.0256 365.097 62.9808 365.386 62.951C365.677 62.9179 365.889 62.8632 366.022 62.7869C366.158 62.7107 366.226 62.5781 366.226 62.3892V62.3494C366.226 61.8589 366.092 61.4777 365.823 61.206C365.558 60.9342 365.155 60.7983 364.615 60.7983C364.055 60.7983 363.616 60.9209 363.298 61.1662C362.979 61.4115 362.756 61.6733 362.626 61.9517L361.513 61.554C361.712 61.09 361.977 60.7287 362.308 60.4702C362.643 60.2083 363.008 60.026 363.402 59.9233C363.8 59.8172 364.191 59.7642 364.575 59.7642C364.821 59.7642 365.102 59.794 365.42 59.8537C365.742 59.91 366.052 60.0277 366.35 60.2067C366.652 60.3857 366.902 60.6558 367.101 61.017C367.3 61.3783 367.399 61.8622 367.399 62.4688V67.5H366.226V66.4659H366.166C366.087 66.6316 365.954 66.8089 365.768 66.9979C365.583 67.1868 365.336 67.3475 365.028 67.4801C364.719 67.6127 364.343 67.679 363.899 67.679ZM364.078 66.625C364.542 66.625 364.933 66.5339 365.251 66.3516C365.573 66.1693 365.815 65.9339 365.977 65.6456C366.143 65.3572 366.226 65.054 366.226 64.7358V63.6619C366.176 63.7216 366.067 63.7763 365.898 63.826C365.732 63.8724 365.54 63.9138 365.321 63.9503C365.106 63.9834 364.895 64.0133 364.69 64.0398C364.487 64.063 364.323 64.0829 364.197 64.0994C363.893 64.1392 363.607 64.2038 363.342 64.2933C363.08 64.3795 362.868 64.5104 362.706 64.6861C362.547 64.8584 362.467 65.0937 362.467 65.392C362.467 65.7997 362.618 66.108 362.92 66.3168C363.225 66.5223 363.611 66.625 364.078 66.625ZM372.862 59.8636V60.858H368.904V59.8636H372.862ZM370.058 58.0341H371.231V65.3125C371.231 65.6439 371.279 65.8925 371.375 66.0582C371.475 66.2206 371.601 66.33 371.753 66.3864C371.909 66.4394 372.073 66.4659 372.245 66.4659C372.374 66.4659 372.481 66.4593 372.563 66.446C372.646 66.4295 372.713 66.4162 372.762 66.4062L373.001 67.4602C372.921 67.4901 372.81 67.5199 372.668 67.5497C372.525 67.5829 372.345 67.5994 372.126 67.5994C371.794 67.5994 371.47 67.5282 371.151 67.3857C370.837 67.2431 370.575 67.026 370.366 66.7344C370.16 66.4427 370.058 66.0748 370.058 65.6307V58.0341ZM374.627 67.5V59.8636H375.8V67.5H374.627ZM375.223 58.5909C374.994 58.5909 374.797 58.513 374.632 58.3572C374.469 58.2015 374.388 58.0142 374.388 57.7955C374.388 57.5767 374.469 57.3894 374.632 57.2337C374.797 57.0779 374.994 57 375.223 57C375.452 57 375.647 57.0779 375.81 57.2337C375.976 57.3894 376.058 57.5767 376.058 57.7955C376.058 58.0142 375.976 58.2015 375.81 58.3572C375.647 58.513 375.452 58.5909 375.223 58.5909ZM381.051 67.6591C380.362 67.6591 379.757 67.495 379.237 67.1669C378.719 66.8388 378.315 66.3797 378.023 65.7898C377.735 65.1998 377.591 64.5104 377.591 63.7216C377.591 62.9261 377.735 62.2318 378.023 61.6385C378.315 61.0452 378.719 60.5845 379.237 60.2564C379.757 59.9283 380.362 59.7642 381.051 59.7642C381.741 59.7642 382.344 59.9283 382.861 60.2564C383.381 60.5845 383.786 61.0452 384.074 61.6385C384.366 62.2318 384.511 62.9261 384.511 63.7216C384.511 64.5104 384.366 65.1998 384.074 65.7898C383.786 66.3797 383.381 66.8388 382.861 67.1669C382.344 67.495 381.741 67.6591 381.051 67.6591ZM381.051 66.6051C381.575 66.6051 382.006 66.4709 382.344 66.2024C382.682 65.9339 382.932 65.581 383.094 65.1435C383.257 64.706 383.338 64.232 383.338 63.7216C383.338 63.2112 383.257 62.7356 383.094 62.2947C382.932 61.8539 382.682 61.4976 382.344 61.2259C382.006 60.9541 381.575 60.8182 381.051 60.8182C380.527 60.8182 380.097 60.9541 379.759 61.2259C379.42 61.4976 379.17 61.8539 379.008 62.2947C378.845 62.7356 378.764 63.2112 378.764 63.7216C378.764 64.232 378.845 64.706 379.008 65.1435C379.17 65.581 379.42 65.9339 379.759 66.2024C380.097 66.4709 380.527 66.6051 381.051 66.6051ZM387.476 62.9062V67.5H386.302V59.8636H387.436V61.0568H387.535C387.714 60.669 387.986 60.3575 388.351 60.1222C388.715 59.8835 389.186 59.7642 389.763 59.7642C390.28 59.7642 390.732 59.8703 391.12 60.0824C391.508 60.2912 391.809 60.6094 392.025 61.0369C392.24 61.4612 392.348 61.9981 392.348 62.6477V67.5H391.175V62.7273C391.175 62.1274 391.019 61.66 390.707 61.3253C390.396 60.9872 389.968 60.8182 389.425 60.8182C389.05 60.8182 388.715 60.8994 388.42 61.0618C388.129 61.2242 387.898 61.4612 387.729 61.7727C387.56 62.0843 387.476 62.4621 387.476 62.9062Z" fill="#C4C6D7"/>
<path fill-rule="evenodd" clip-rule="evenodd" d="M461 56C461.663 56 462.2 56.5373 462.2 57.2V60.8L465.8 60.8C466.463 60.8 467 61.3373 467 62C467 62.6627 466.463 63.2 465.8 63.2H462.2V66.8C462.2 67.4627 461.663 68 461 68C460.337 68 459.8 67.4627 459.8 66.8V63.2H456.2C455.537 63.2 455 62.6627 455 62C455 61.3373 455.537 60.8 456.2 60.8L459.8 60.8V57.2C459.8 56.5373 460.337 56 461 56Z" fill="#C4C6D7"/>
<path d="M278.358 105.818H279.77L282.594 110.571H282.713L285.537 105.818H286.949L283.27 111.804V116H282.037V111.804L278.358 105.818ZM290.407 116.159C289.717 116.159 289.112 115.995 288.592 115.667C288.075 115.339 287.671 114.88 287.379 114.29C287.091 113.7 286.946 113.01 286.946 112.222C286.946 111.426 287.091 110.732 287.379 110.138C287.671 109.545 288.075 109.085 288.592 108.756C289.112 108.428 289.717 108.264 290.407 108.264C291.096 108.264 291.699 108.428 292.216 108.756C292.737 109.085 293.141 109.545 293.429 110.138C293.721 110.732 293.867 111.426 293.867 112.222C293.867 113.01 293.721 113.7 293.429 114.29C293.141 114.88 292.737 115.339 292.216 115.667C291.699 115.995 291.096 116.159 290.407 116.159ZM290.407 115.105C290.93 115.105 291.361 114.971 291.699 114.702C292.037 114.434 292.288 114.081 292.45 113.643C292.612 113.206 292.694 112.732 292.694 112.222C292.694 111.711 292.612 111.236 292.45 110.795C292.288 110.354 292.037 109.998 291.699 109.726C291.361 109.454 290.93 109.318 290.407 109.318C289.883 109.318 289.452 109.454 289.114 109.726C288.776 109.998 288.526 110.354 288.363 110.795C288.201 111.236 288.12 111.711 288.12 112.222C288.12 112.732 288.201 113.206 288.363 113.643C288.526 114.081 288.776 114.434 289.114 114.702C289.452 114.971 289.883 115.105 290.407 115.105ZM300.47 112.878V108.364H301.644V116H300.47V114.707H300.391C300.212 115.095 299.933 115.425 299.556 115.697C299.178 115.965 298.7 116.099 298.124 116.099C297.646 116.099 297.222 115.995 296.851 115.786C296.48 115.574 296.188 115.256 295.976 114.832C295.764 114.404 295.658 113.866 295.658 113.216V108.364H296.831V113.136C296.831 113.693 296.987 114.137 297.298 114.469C297.613 114.8 298.014 114.966 298.502 114.966C298.793 114.966 299.09 114.891 299.392 114.742C299.696 114.593 299.952 114.364 300.157 114.056C300.366 113.748 300.47 113.355 300.47 112.878ZM303.793 116V108.364H304.926V109.517H305.006C305.145 109.139 305.397 108.833 305.761 108.597C306.126 108.362 306.537 108.244 306.994 108.244C307.08 108.244 307.188 108.246 307.317 108.249C307.447 108.253 307.545 108.258 307.611 108.264V109.457C307.571 109.447 307.48 109.433 307.337 109.413C307.198 109.389 307.051 109.378 306.895 109.378C306.524 109.378 306.192 109.456 305.901 109.612C305.612 109.764 305.384 109.976 305.214 110.248C305.049 110.516 304.966 110.823 304.966 111.168V116H303.793ZM313.516 116H312.223L315.962 105.818H317.235L320.973 116H319.681L316.638 107.429H316.558L313.516 116ZM313.993 112.023H319.203V113.116H313.993V112.023ZM325.502 116.159C324.786 116.159 324.17 115.99 323.653 115.652C323.136 115.314 322.738 114.848 322.46 114.255C322.181 113.662 322.042 112.984 322.042 112.222C322.042 111.446 322.185 110.762 322.47 110.168C322.758 109.572 323.159 109.106 323.673 108.771C324.19 108.433 324.793 108.264 325.482 108.264C326.019 108.264 326.503 108.364 326.934 108.562C327.365 108.761 327.718 109.04 327.993 109.398C328.268 109.756 328.439 110.173 328.505 110.651H327.332C327.242 110.303 327.044 109.994 326.735 109.726C326.43 109.454 326.019 109.318 325.502 109.318C325.045 109.318 324.644 109.437 324.299 109.676C323.958 109.911 323.691 110.245 323.499 110.675C323.31 111.103 323.215 111.605 323.215 112.182C323.215 112.772 323.308 113.286 323.494 113.723C323.683 114.161 323.948 114.5 324.289 114.742C324.634 114.984 325.038 115.105 325.502 115.105C325.807 115.105 326.084 115.052 326.333 114.946C326.581 114.84 326.792 114.688 326.964 114.489C327.136 114.29 327.259 114.051 327.332 113.773H328.505C328.439 114.223 328.275 114.629 328.013 114.991C327.754 115.349 327.411 115.634 326.984 115.846C326.56 116.055 326.066 116.159 325.502 116.159ZM333.323 116.159C332.607 116.159 331.99 115.99 331.473 115.652C330.956 115.314 330.558 114.848 330.28 114.255C330.002 113.662 329.862 112.984 329.862 112.222C329.862 111.446 330.005 110.762 330.29 110.168C330.578 109.572 330.979 109.106 331.493 108.771C332.01 108.433 332.613 108.264 333.303 108.264C333.84 108.264 334.324 108.364 334.754 108.562C335.185 108.761 335.538 109.04 335.813 109.398C336.088 109.756 336.259 110.173 336.325 110.651H335.152C335.063 110.303 334.864 109.994 334.556 109.726C334.251 109.454 333.84 109.318 333.323 109.318C332.865 109.318 332.464 109.437 332.119 109.676C331.778 109.911 331.511 110.245 331.319 110.675C331.13 111.103 331.036 111.605 331.036 112.182C331.036 112.772 331.128 113.286 331.314 113.723C331.503 114.161 331.768 114.5 332.11 114.742C332.454 114.984 332.859 115.105 333.323 115.105C333.628 115.105 333.904 115.052 334.153 114.946C334.401 114.84 334.612 114.688 334.784 114.489C334.957 114.29 335.079 114.051 335.152 113.773H336.325C336.259 114.223 336.095 114.629 335.833 114.991C335.575 115.349 335.232 115.634 334.804 115.846C334.38 116.055 333.886 116.159 333.323 116.159ZM341.143 116.159C340.454 116.159 339.849 115.995 339.328 115.667C338.811 115.339 338.407 114.88 338.115 114.29C337.827 113.7 337.683 113.01 337.683 112.222C337.683 111.426 337.827 110.732 338.115 110.138C338.407 109.545 338.811 109.085 339.328 108.756C339.849 108.428 340.454 108.264 341.143 108.264C341.832 108.264 342.436 108.428 342.953 108.756C343.473 109.085 343.877 109.545 344.166 110.138C344.457 110.732 344.603 111.426 344.603 112.222C344.603 113.01 344.457 113.7 344.166 114.29C343.877 114.88 343.473 115.339 342.953 115.667C342.436 115.995 341.832 116.159 341.143 116.159ZM341.143 115.105C341.667 115.105 342.097 114.971 342.436 114.702C342.774 114.434 343.024 114.081 343.186 113.643C343.349 113.206 343.43 112.732 343.43 112.222C343.43 111.711 343.349 111.236 343.186 110.795C343.024 110.354 342.774 109.998 342.436 109.726C342.097 109.454 341.667 109.318 341.143 109.318C340.619 109.318 340.188 109.454 339.85 109.726C339.512 109.998 339.262 110.354 339.1 110.795C338.937 111.236 338.856 111.711 338.856 112.222C338.856 112.732 338.937 113.206 339.1 113.643C339.262 114.081 339.512 114.434 339.85 114.702C340.188 114.971 340.619 115.105 341.143 115.105ZM351.207 112.878V108.364H352.38V116H351.207V114.707H351.127C350.948 115.095 350.67 115.425 350.292 115.697C349.914 115.965 349.437 116.099 348.86 116.099C348.383 116.099 347.959 115.995 347.587 115.786C347.216 115.574 346.924 115.256 346.712 114.832C346.5 114.404 346.394 113.866 346.394 113.216V108.364H347.567V113.136C347.567 113.693 347.723 114.137 348.035 114.469C348.35 114.8 348.751 114.966 349.238 114.966C349.53 114.966 349.826 114.891 350.128 114.742C350.433 114.593 350.688 114.364 350.893 114.056C351.102 113.748 351.207 113.355 351.207 112.878ZM355.702 111.406V116H354.529V108.364H355.662V109.557H355.762C355.941 109.169 356.213 108.857 356.577 108.622C356.942 108.384 357.412 108.264 357.989 108.264C358.506 108.264 358.959 108.37 359.346 108.582C359.734 108.791 360.036 109.109 360.251 109.537C360.467 109.961 360.574 110.498 360.574 111.148V116H359.401V111.227C359.401 110.627 359.245 110.16 358.934 109.825C358.622 109.487 358.195 109.318 357.651 109.318C357.277 109.318 356.942 109.399 356.647 109.562C356.355 109.724 356.125 109.961 355.956 110.273C355.787 110.584 355.702 110.962 355.702 111.406ZM366.039 108.364V109.358H362.082V108.364H366.039ZM363.235 106.534H364.409V113.812C364.409 114.144 364.457 114.393 364.553 114.558C364.652 114.721 364.778 114.83 364.931 114.886C365.087 114.939 365.251 114.966 365.423 114.966C365.552 114.966 365.658 114.959 365.741 114.946C365.824 114.929 365.89 114.916 365.94 114.906L366.179 115.96C366.099 115.99 365.988 116.02 365.846 116.05C365.703 116.083 365.522 116.099 365.304 116.099C364.972 116.099 364.647 116.028 364.329 115.886C364.014 115.743 363.752 115.526 363.544 115.234C363.338 114.943 363.235 114.575 363.235 114.131V106.534Z" fill="#C4C6D7"/>
<path d="M284.801 155.364C284.741 154.86 284.5 154.469 284.075 154.19C283.651 153.912 283.131 153.773 282.514 153.773C282.063 153.773 281.669 153.846 281.331 153.991C280.996 154.137 280.734 154.338 280.545 154.593C280.36 154.848 280.267 155.138 280.267 155.463C280.267 155.735 280.332 155.969 280.461 156.164C280.594 156.356 280.763 156.517 280.968 156.646C281.174 156.772 281.389 156.877 281.614 156.96C281.84 157.039 282.047 157.104 282.236 157.153L283.27 157.432C283.535 157.501 283.83 157.598 284.155 157.72C284.483 157.843 284.796 158.01 285.094 158.222C285.396 158.431 285.645 158.7 285.84 159.028C286.036 159.356 286.134 159.759 286.134 160.236C286.134 160.786 285.989 161.283 285.701 161.727C285.416 162.171 284.998 162.524 284.448 162.786C283.901 163.048 283.237 163.179 282.455 163.179C281.725 163.179 281.094 163.061 280.56 162.826C280.03 162.591 279.612 162.263 279.308 161.842C279.006 161.421 278.835 160.932 278.795 160.375H280.068C280.101 160.759 280.231 161.078 280.456 161.33C280.685 161.578 280.973 161.764 281.321 161.886C281.672 162.006 282.05 162.065 282.455 162.065C282.925 162.065 283.348 161.989 283.722 161.837C284.097 161.681 284.393 161.465 284.612 161.19C284.831 160.912 284.94 160.587 284.94 160.216C284.94 159.878 284.846 159.603 284.657 159.391C284.468 159.179 284.219 159.006 283.911 158.874C283.603 158.741 283.27 158.625 282.912 158.526L281.659 158.168C280.864 157.939 280.234 157.612 279.77 157.188C279.306 156.764 279.074 156.209 279.074 155.523C279.074 154.953 279.228 154.455 279.536 154.031C279.848 153.604 280.265 153.272 280.789 153.037C281.316 152.798 281.904 152.679 282.554 152.679C283.21 152.679 283.794 152.797 284.304 153.032C284.814 153.264 285.219 153.582 285.517 153.987C285.819 154.391 285.978 154.85 285.994 155.364H284.801ZM288.002 163V155.364H289.175V163H288.002ZM288.598 154.091C288.369 154.091 288.172 154.013 288.007 153.857C287.844 153.701 287.763 153.514 287.763 153.295C287.763 153.077 287.844 152.889 288.007 152.734C288.172 152.578 288.369 152.5 288.598 152.5C288.827 152.5 289.022 152.578 289.185 152.734C289.351 152.889 289.433 153.077 289.433 153.295C289.433 153.514 289.351 153.701 289.185 153.857C289.022 154.013 288.827 154.091 288.598 154.091ZM294.406 166.023C293.839 166.023 293.352 165.95 292.945 165.804C292.537 165.661 292.197 165.473 291.925 165.237C291.657 165.005 291.443 164.757 291.284 164.491L292.219 163.835C292.325 163.974 292.459 164.134 292.621 164.312C292.784 164.495 293.006 164.652 293.288 164.785C293.573 164.921 293.946 164.989 294.406 164.989C295.023 164.989 295.531 164.839 295.933 164.541C296.334 164.243 296.534 163.776 296.534 163.139V161.588H296.435C296.348 161.727 296.226 161.9 296.067 162.105C295.911 162.307 295.686 162.488 295.391 162.647C295.099 162.803 294.705 162.881 294.207 162.881C293.591 162.881 293.037 162.735 292.547 162.443C292.06 162.152 291.674 161.727 291.388 161.17C291.107 160.614 290.966 159.937 290.966 159.142C290.966 158.36 291.103 157.679 291.379 157.099C291.654 156.515 292.036 156.065 292.527 155.746C293.018 155.425 293.584 155.264 294.227 155.264C294.724 155.264 295.119 155.347 295.411 155.513C295.705 155.675 295.931 155.861 296.087 156.07C296.246 156.275 296.368 156.444 296.455 156.577H296.574V155.364H297.707V163.219C297.707 163.875 297.558 164.409 297.26 164.82C296.965 165.234 296.567 165.537 296.067 165.729C295.57 165.925 295.016 166.023 294.406 166.023ZM294.366 161.827C294.837 161.827 295.235 161.719 295.56 161.504C295.884 161.288 296.131 160.978 296.3 160.574C296.469 160.17 296.554 159.686 296.554 159.122C296.554 158.572 296.471 158.086 296.305 157.665C296.14 157.245 295.894 156.915 295.57 156.676C295.245 156.437 294.844 156.318 294.366 156.318C293.869 156.318 293.455 156.444 293.124 156.696C292.795 156.948 292.549 157.286 292.383 157.71C292.22 158.134 292.139 158.605 292.139 159.122C292.139 159.652 292.222 160.121 292.388 160.529C292.557 160.933 292.805 161.252 293.134 161.484C293.465 161.712 293.876 161.827 294.366 161.827ZM301.028 158.406V163H299.855V155.364H300.989V156.557H301.088C301.267 156.169 301.539 155.857 301.903 155.622C302.268 155.384 302.739 155.264 303.315 155.264C303.832 155.264 304.285 155.37 304.673 155.582C305.06 155.791 305.362 156.109 305.577 156.537C305.793 156.961 305.901 157.498 305.901 158.148V163H304.727V158.227C304.727 157.627 304.571 157.16 304.26 156.825C303.948 156.487 303.521 156.318 302.977 156.318C302.603 156.318 302.268 156.399 301.973 156.562C301.681 156.724 301.451 156.961 301.282 157.273C301.113 157.584 301.028 157.962 301.028 158.406ZM320.732 157.909C320.732 158.983 320.538 159.911 320.15 160.693C319.763 161.475 319.231 162.079 318.555 162.503C317.878 162.927 317.106 163.139 316.238 163.139C315.369 163.139 314.597 162.927 313.921 162.503C313.245 162.079 312.713 161.475 312.325 160.693C311.937 159.911 311.743 158.983 311.743 157.909C311.743 156.835 311.937 155.907 312.325 155.125C312.713 154.343 313.245 153.74 313.921 153.315C314.597 152.891 315.369 152.679 316.238 152.679C317.106 152.679 317.878 152.891 318.555 153.315C319.231 153.74 319.763 154.343 320.15 155.125C320.538 155.907 320.732 156.835 320.732 157.909ZM319.539 157.909C319.539 157.027 319.391 156.283 319.096 155.677C318.805 155.07 318.409 154.611 317.908 154.3C317.411 153.988 316.854 153.832 316.238 153.832C315.621 153.832 315.063 153.988 314.562 154.3C314.065 154.611 313.669 155.07 313.374 155.677C313.082 156.283 312.937 157.027 312.937 157.909C312.937 158.791 313.082 159.535 313.374 160.141C313.669 160.748 314.065 161.207 314.562 161.518C315.063 161.83 315.621 161.986 316.238 161.986C316.854 161.986 317.411 161.83 317.908 161.518C318.409 161.207 318.805 160.748 319.096 160.141C319.391 159.535 319.539 158.791 319.539 157.909ZM327.459 159.878V155.364H328.632V163H327.459V161.707H327.379C327.2 162.095 326.922 162.425 326.544 162.697C326.166 162.965 325.689 163.099 325.112 163.099C324.635 163.099 324.211 162.995 323.839 162.786C323.468 162.574 323.176 162.256 322.964 161.832C322.752 161.404 322.646 160.866 322.646 160.216V155.364H323.819V160.136C323.819 160.693 323.975 161.137 324.287 161.469C324.602 161.8 325.003 161.966 325.49 161.966C325.782 161.966 326.078 161.891 326.38 161.742C326.685 161.593 326.94 161.364 327.145 161.056C327.354 160.748 327.459 160.355 327.459 159.878ZM334.102 155.364V156.358H330.145V155.364H334.102ZM331.298 153.534H332.471V160.812C332.471 161.144 332.519 161.393 332.615 161.558C332.715 161.721 332.841 161.83 332.993 161.886C333.149 161.939 333.313 161.966 333.485 161.966C333.615 161.966 333.721 161.959 333.804 161.946C333.886 161.929 333.953 161.916 334.002 161.906L334.241 162.96C334.162 162.99 334.051 163.02 333.908 163.05C333.766 163.083 333.585 163.099 333.366 163.099C333.035 163.099 332.71 163.028 332.392 162.886C332.077 162.743 331.815 162.526 331.606 162.234C331.401 161.943 331.298 161.575 331.298 161.131V153.534Z" fill="#C4C6D7"/>
<path d="M456 150.5C455.448 150.5 455 150.948 455 151.5V163.5C455 164.052 455.448 164.5 456 164.5C456.552 164.5 457 164.052 457 163.5V151.5C457 150.948 456.552 150.5 456 150.5Z" fill="#C4C6D7"/>
<path d="M466.293 159.793C465.902 160.183 465.902 160.817 466.293 161.207C466.683 161.598 467.317 161.598 467.707 161.207L470.707 158.207C470.895 158.02 471 157.765 471 157.5C471 157.235 470.895 156.98 470.707 156.793L467.707 153.793C467.317 153.402 466.683 153.402 466.293 153.793C465.902 154.183 465.902 154.817 466.293 155.207L467.586 156.5L460 156.5C459.448 156.5 459 156.948 459 157.5C459 158.052 459.448 158.5 460 158.5H467.586L466.293 159.793Z" fill="#C4C6D7"/>
<line x1="250" y1="191.5" x2="489" y2="191.5" stroke="#282A3B"/>
<mask id="mask0_1971_86820" style="mask-type:alpha" maskUnits="userSpaceOnUse" x="262" y="208" width="64" height="56">
<rect x="262.506" y="208" width="63.33" height="55.255" rx="8" fill="#F2F2F8"/>
</mask>
<g mask="url(#mask0_1971_86820)">
<rect x="262.506" y="208" width="63.33" height="55.255" rx="8" fill="#F2F2F8"/>
<rect x="277.746" y="215.755" width="48.7701" height="50.4081" rx="4" fill="#FCFCFF"/>
<path d="M287.29 236.51H286.182L289.386 227.783H290.477L293.682 236.51H292.574L289.966 229.164H289.898L287.29 236.51ZM287.699 233.101H292.165V234.039H287.699V233.101ZM296.831 236.664C296.416 236.664 296.04 236.586 295.702 236.429C295.364 236.27 295.095 236.042 294.896 235.743C294.697 235.442 294.598 235.078 294.598 234.652C294.598 234.277 294.672 233.973 294.82 233.74C294.967 233.505 295.165 233.32 295.412 233.186C295.659 233.053 295.932 232.953 296.23 232.888C296.531 232.82 296.834 232.766 297.138 232.726C297.536 232.675 297.858 232.637 298.105 232.611C298.355 232.583 298.537 232.536 298.651 232.47C298.767 232.405 298.825 232.292 298.825 232.13V232.095C298.825 231.675 298.71 231.348 298.48 231.115C298.253 230.882 297.908 230.766 297.445 230.766C296.964 230.766 296.588 230.871 296.315 231.081C296.043 231.292 295.851 231.516 295.74 231.755L294.786 231.414C294.956 231.016 295.183 230.706 295.467 230.485C295.754 230.26 296.067 230.104 296.405 230.016C296.746 229.925 297.081 229.88 297.411 229.88C297.621 229.88 297.862 229.905 298.135 229.956C298.411 230.005 298.676 230.105 298.932 230.259C299.19 230.412 299.405 230.644 299.575 230.953C299.746 231.263 299.831 231.678 299.831 232.198V236.51H298.825V235.624H298.774C298.706 235.766 298.592 235.918 298.433 236.08C298.274 236.242 298.063 236.38 297.798 236.493C297.534 236.607 297.212 236.664 296.831 236.664ZM296.984 235.76C297.382 235.76 297.717 235.682 297.99 235.526C298.266 235.37 298.473 235.168 298.612 234.921C298.754 234.674 298.825 234.414 298.825 234.141V233.22C298.783 233.272 298.689 233.318 298.544 233.361C298.402 233.401 298.237 233.436 298.05 233.468C297.865 233.496 297.685 233.522 297.509 233.544C297.335 233.564 297.195 233.581 297.087 233.595C296.825 233.63 296.581 233.685 296.354 233.762C296.129 233.836 295.947 233.948 295.808 234.098C295.672 234.246 295.604 234.448 295.604 234.703C295.604 235.053 295.733 235.317 295.991 235.496C296.253 235.672 296.584 235.76 296.984 235.76Z" fill="#373B4D"/>
</g>
<rect x="286.67" y="275.755" width="15" height="15" rx="3.5" fill="white" stroke="#C4C6D7"/>
<mask id="mask1_1971_86820" style="mask-type:alpha" maskUnits="userSpaceOnUse" x="337" y="208" width="65" height="57">
<rect x="337.836" y="208" width="63.33" height="57" rx="8" fill="#373B4D"/>
</mask>
<g mask="url(#mask1_1971_86820)">
<rect x="337.836" y="208" width="65.3621" height="57" rx="8" fill="#373B4D"/>
<rect x="354.094" y="216" width="48.7701" height="52" rx="4" fill="#616B7C"/>
<path d="M363.637 237H362.529L365.734 228.273H366.825L370.029 237H368.922L366.314 229.653H366.245L363.637 237ZM364.047 233.591H368.512V234.528H364.047V233.591ZM373.179 237.153C372.764 237.153 372.387 237.075 372.049 236.919C371.711 236.76 371.443 236.531 371.244 236.233C371.045 235.932 370.946 235.568 370.946 235.142C370.946 234.767 371.02 234.463 371.167 234.23C371.315 233.994 371.512 233.81 371.76 233.676C372.007 233.543 372.279 233.443 372.578 233.378C372.879 233.31 373.181 233.256 373.485 233.216C373.883 233.165 374.206 233.126 374.453 233.101C374.703 233.072 374.885 233.026 374.998 232.96C375.115 232.895 375.173 232.781 375.173 232.619V232.585C375.173 232.165 375.058 231.838 374.828 231.605C374.6 231.372 374.255 231.256 373.792 231.256C373.312 231.256 372.936 231.361 372.663 231.571C372.39 231.781 372.199 232.006 372.088 232.244L371.133 231.903C371.304 231.506 371.531 231.196 371.815 230.974C372.102 230.75 372.414 230.594 372.752 230.506C373.093 230.415 373.429 230.369 373.758 230.369C373.968 230.369 374.21 230.395 374.483 230.446C374.758 230.494 375.024 230.595 375.279 230.749C375.538 230.902 375.752 231.134 375.923 231.443C376.093 231.753 376.179 232.168 376.179 232.688V237H375.173V236.114H375.122C375.054 236.256 374.94 236.408 374.781 236.57C374.622 236.732 374.41 236.869 374.146 236.983C373.882 237.097 373.559 237.153 373.179 237.153ZM373.332 236.25C373.73 236.25 374.065 236.172 374.338 236.016C374.613 235.859 374.821 235.658 374.96 235.411C375.102 235.163 375.173 234.903 375.173 234.631V233.71C375.13 233.761 375.037 233.808 374.892 233.851C374.75 233.891 374.585 233.926 374.397 233.957C374.213 233.986 374.032 234.011 373.856 234.034C373.683 234.054 373.542 234.071 373.434 234.085C373.173 234.119 372.929 234.175 372.701 234.251C372.477 234.325 372.295 234.437 372.156 234.588C372.02 234.736 371.951 234.937 371.951 235.193C371.951 235.543 372.081 235.807 372.339 235.986C372.6 236.162 372.931 236.25 373.332 236.25Z" fill="#FCFCFF"/>
</g>
<rect x="362" y="277.5" width="15" height="15" rx="3.5" fill="white" stroke="#C4C6D7"/>
<rect x="413.164" y="208" width="63.33" height="57" rx="8" fill="#373B4D"/>
<mask id="mask2_1971_86820" style="mask-type:alpha" maskUnits="userSpaceOnUse" x="413" y="208" width="64" height="57">
<rect x="413.164" y="208" width="63.33" height="57" rx="8" fill="#373B4D"/>
</mask>
<g mask="url(#mask2_1971_86820)">
<rect x="413.164" y="208" width="65.3621" height="57" rx="8" fill="#373B4D"/>
<rect x="417.227" y="217" width="32.5134" height="52" rx="4" fill="#616B7C"/>
<path d="M426.77 238H425.662L428.867 229.273H429.958L433.162 238H432.054L429.446 230.653H429.378L426.77 238ZM427.179 234.591H431.645V235.528H427.179V234.591ZM436.311 238.153C435.897 238.153 435.52 238.075 435.182 237.919C434.844 237.76 434.576 237.531 434.377 237.233C434.178 236.932 434.078 236.568 434.078 236.142C434.078 235.767 434.152 235.463 434.3 235.23C434.448 234.994 434.645 234.81 434.892 234.676C435.14 234.543 435.412 234.443 435.711 234.378C436.012 234.31 436.314 234.256 436.618 234.216C437.016 234.165 437.338 234.126 437.586 234.101C437.836 234.072 438.017 234.026 438.131 233.96C438.248 233.895 438.306 233.781 438.306 233.619V233.585C438.306 233.165 438.191 232.838 437.961 232.605C437.733 232.372 437.388 232.256 436.925 232.256C436.445 232.256 436.069 232.361 435.796 232.571C435.523 232.781 435.331 233.006 435.221 233.244L434.266 232.903C434.436 232.506 434.664 232.196 434.948 231.974C435.235 231.75 435.547 231.594 435.885 231.506C436.226 231.415 436.561 231.369 436.891 231.369C437.101 231.369 437.343 231.395 437.615 231.446C437.891 231.494 438.157 231.595 438.412 231.749C438.671 231.902 438.885 232.134 439.056 232.443C439.226 232.753 439.311 233.168 439.311 233.688V238H438.306V237.114H438.255C438.186 237.256 438.073 237.408 437.914 237.57C437.755 237.732 437.543 237.869 437.279 237.983C437.015 238.097 436.692 238.153 436.311 238.153ZM436.465 237.25C436.863 237.25 437.198 237.172 437.471 237.016C437.746 236.859 437.953 236.658 438.093 236.411C438.235 236.163 438.306 235.903 438.306 235.631V234.71C438.263 234.761 438.169 234.808 438.025 234.851C437.882 234.891 437.718 234.926 437.53 234.957C437.346 234.986 437.165 235.011 436.989 235.034C436.816 235.054 436.675 235.071 436.567 235.085C436.306 235.119 436.061 235.175 435.834 235.251C435.61 235.325 435.428 235.437 435.289 235.588C435.152 235.736 435.084 235.937 435.084 236.193C435.084 236.543 435.213 236.807 435.472 236.986C435.733 237.162 436.064 237.25 436.465 237.25Z" fill="#FCFCFF"/>
<rect x="445.676" y="208" width="31.4974" height="57" fill="#F2F2F8"/>
<rect x="449.742" y="217" width="28.4492" height="52" rx="4" fill="#FCFCFF"/>
<path d="M459.286 238H458.178L461.382 229.273H462.473L465.678 238H464.57L461.962 230.653H461.894L459.286 238ZM459.695 234.591H464.161V235.528H459.695V234.591ZM468.827 238.153C468.412 238.153 468.036 238.075 467.698 237.919C467.36 237.76 467.091 237.531 466.892 237.233C466.694 236.932 466.594 236.568 466.594 236.142C466.594 235.767 466.668 235.463 466.816 235.23C466.963 234.994 467.161 234.81 467.408 234.676C467.655 234.543 467.928 234.443 468.226 234.378C468.527 234.31 468.83 234.256 469.134 234.216C469.532 234.165 469.854 234.126 470.101 234.101C470.351 234.072 470.533 234.026 470.647 233.96C470.763 233.895 470.821 233.781 470.821 233.619V233.585C470.821 233.165 470.706 232.838 470.476 232.605C470.249 232.372 469.904 232.256 469.441 232.256C468.961 232.256 468.584 232.361 468.311 232.571C468.039 232.781 467.847 233.006 467.736 233.244L466.782 232.903C466.952 232.506 467.179 232.196 467.463 231.974C467.75 231.75 468.063 231.594 468.401 231.506C468.742 231.415 469.077 231.369 469.407 231.369C469.617 231.369 469.858 231.395 470.131 231.446C470.407 231.494 470.672 231.595 470.928 231.749C471.186 231.902 471.401 232.134 471.571 232.443C471.742 232.753 471.827 233.168 471.827 233.688V238H470.821V237.114H470.77C470.702 237.256 470.588 237.408 470.429 237.57C470.27 237.732 470.059 237.869 469.794 237.983C469.53 238.097 469.208 238.153 468.827 238.153ZM468.98 237.25C469.378 237.25 469.713 237.172 469.986 237.016C470.262 236.859 470.469 236.658 470.608 236.411C470.75 236.163 470.821 235.903 470.821 235.631V234.71C470.779 234.761 470.685 234.808 470.54 234.851C470.398 234.891 470.233 234.926 470.046 234.957C469.861 234.986 469.681 235.011 469.505 235.034C469.331 235.054 469.191 235.071 469.083 235.085C468.821 235.119 468.577 235.175 468.35 235.251C468.125 235.325 467.944 235.437 467.804 235.588C467.668 235.736 467.6 235.937 467.6 236.193C467.6 236.543 467.729 236.807 467.988 236.986C468.249 237.162 468.58 237.25 468.98 237.25Z" fill="#4F5769"/>
</g>
<rect x="436.828" y="277" width="16" height="16" rx="4" fill="#00A7C3"/>
<rect x="437.328" y="277.5" width="15" height="15" rx="3.5" fill="#00A7C3" stroke="#00A7C3"/>
<path fill-rule="evenodd" clip-rule="evenodd" d="M450.192 281.234C450.505 281.547 450.505 282.053 450.192 282.366L443.792 288.766C443.48 289.078 442.973 289.078 442.661 288.766L439.461 285.566C439.148 285.253 439.148 284.747 439.461 284.434C439.773 284.122 440.28 284.122 440.592 284.434L443.227 287.069L449.061 281.234C449.373 280.922 449.88 280.922 450.192 281.234Z" fill="white"/>
</g>
<path d="M250 -87H490H250ZM491 301C491 305.971 486.971 310 482 310H258C253.029 310 249 305.971 249 301H251C251 304.866 254.134 308 258 308H482C485.866 308 489 304.866 489 301H491ZM258 310C253.029 310 249 305.971 249 301V-87H251V301C251 304.866 254.134 308 258 308V310ZM491 -87V301C491 305.971 486.971 310 482 310V308C485.866 308 489 304.866 489 301V-87H491Z" fill="#282A3B" mask="url(#path-18-inside-1_1971_86820)"/>
</g>
<rect x="-1237.5" y="-150.5" width="1727" height="63" stroke="#F2F2F8"/>
</g>
</g>
<rect x="0.5" y="0.5" width="489" height="393.5" rx="16.5" stroke="#282A3B"/>
<defs>
<filter id="filter0_d_1971_86820" x="-294.5" y="49.5" width="637.393" height="405" filterUnits="userSpaceOnUse" color-interpolation-filters="sRGB">
<feFlood flood-opacity="0" result="BackgroundImageFix"/>
<feColorMatrix in="SourceAlpha" type="matrix" values="0 0 0 0 0 0 0 0 0 0 0 0 0 0 0 0 0 0 127 0" result="hardAlpha"/>
<feOffset dy="16"/>
<feGaussianBlur stdDeviation="16"/>
<feColorMatrix type="matrix" values="0 0 0 0 0.215686 0 0 0 0 0.231373 0 0 0 0 0.301961 0 0 0 0.02 0"/>
<feBlend mode="normal" in2="BackgroundImageFix" result="effect1_dropShadow_1971_86820"/>
<feBlend mode="normal" in="SourceGraphic" in2="effect1_dropShadow_1971_86820" result="shape"/>
</filter>
<filter id="filter1_d_1971_86820" x="218" y="-103" width="304" height="460" filterUnits="userSpaceOnUse" color-interpolation-filters="sRGB">
<feFlood flood-opacity="0" result="BackgroundImageFix"/>
<feColorMatrix in="SourceAlpha" type="matrix" values="0 0 0 0 0 0 0 0 0 0 0 0 0 0 0 0 0 0 127 0" result="hardAlpha"/>
<feOffset dy="16"/>
<feGaussianBlur stdDeviation="16"/>
<feComposite in2="hardAlpha" operator="out"/>
<feColorMatrix type="matrix" values="0 0 0 0 0.0784314 0 0 0 0 0.0784314 0 0 0 0 0.121569 0 0 0 1 0"/>
<feBlend mode="normal" in2="BackgroundImageFix" result="effect1_dropShadow_1971_86820"/>
<feBlend mode="normal" in="SourceGraphic" in2="effect1_dropShadow_1971_86820" result="shape"/>
</filter>
<filter id="filter2_d_1971_86820" x="218" y="-103" width="304" height="460" filterUnits="userSpaceOnUse" color-interpolation-filters="sRGB">
<feFlood flood-opacity="0" result="BackgroundImageFix"/>
<feColorMatrix in="SourceAlpha" type="matrix" values="0 0 0 0 0 0 0 0 0 0 0 0 0 0 0 0 0 0 127 0" result="hardAlpha"/>
<feOffset dy="16"/>
<feGaussianBlur stdDeviation="16"/>
<feColorMatrix type="matrix" values="0 0 0 0 0.215686 0 0 0 0 0.231373 0 0 0 0 0.301961 0 0 0 0.04 0"/>
<feBlend mode="normal" in2="BackgroundImageFix" result="effect1_dropShadow_1971_86820"/>
<feBlend mode="normal" in="SourceGraphic" in2="effect1_dropShadow_1971_86820" result="shape"/>
</filter>
<clipPath id="clip0_1971_86820">
<rect x="1" y="1" width="488" height="392.5" rx="16" fill="white"/>
</clipPath>
<clipPath id="clip1_1971_86820">
<rect width="1728" height="1719" fill="white" transform="translate(-1238 -151)"/>
</clipPath>
</defs>
</svg>
