<svg width="490" height="395" viewBox="0 0 490 395" fill="none" xmlns="http://www.w3.org/2000/svg">
<g clip-path="url(#clip0_1971_86488)">
<rect x="1" y="1" width="392.5" height="392.5" rx="16" fill="#D9D9D9"/>
<g clip-path="url(#clip1_1971_86488)">
<rect width="1728" height="1719" transform="translate(-1238 -153)" fill="#14141F"/>
<rect x="-1038" y="-153" width="1528" height="250" fill="#171723"/>
<rect x="-1037.5" y="-152.5" width="1527" height="249" stroke="#E8E9F0" stroke-opacity="0.5"/>
<g filter="url(#filter0_d_1971_86488)">
<g filter="url(#filter1_d_1971_86488)">
<rect x="-262" y="64" width="572" height="340" rx="16" fill="#1B1B28"/>
<rect x="-262" y="64" width="572" height="340" rx="16" stroke="#282A3B"/>
</g>
<line x1="-184" y1="192.247" x2="279" y2="192.247" stroke="#4F5769" stroke-width="0.5"/>
<line x1="-184" y1="227.517" x2="279" y2="227.517" stroke="#4F5769" stroke-width="0.5"/>
<line x1="-184" y1="263.714" x2="279" y2="263.714" stroke="#4F5769" stroke-width="0.5"/>
<line x1="-184" y1="298.984" x2="279" y2="298.984" stroke="#4F5769" stroke-width="0.5"/>
<line x1="-184" y1="334.253" x2="279" y2="334.253" stroke="#4F5769" stroke-width="0.5"/>
<g filter="url(#filter2_d_1971_86488)">
<path d="M-183.5 335C-178.5 328.5 -171.5 325.5 -161.741 294.884C-157.264 280.842 -145.113 231.103 -127.079 227.565C-93.9321 221.062 -77.8459 263.517 -51.0356 263.517C-29.0999 263.517 -20.1422 253.24 -2.68045 237.025C14.7812 220.81 25.5758 231.129 31.2905 234.077C37.0052 237.025 64.9439 261.348 83.6756 214.545C98.6609 177.102 125.36 190.959 137.648 201.278C150.624 210.122 182.317 273.133 203.906 262.519C225.495 251.905 264.839 237.025 278 275.501" stroke="#F02E65"/>
</g>
</g>
<path d="M243.136 358.273V367H242.079V359.381H242.028L239.897 360.795V359.722L242.079 358.273H243.136ZM248.543 367.119C248.185 367.114 247.827 367.045 247.469 366.915C247.112 366.784 246.785 366.564 246.489 366.254C246.194 365.942 245.957 365.52 245.778 364.989C245.599 364.455 245.509 363.784 245.509 362.977C245.509 362.205 245.582 361.52 245.727 360.923C245.871 360.324 246.082 359.82 246.357 359.411C246.633 358.999 246.965 358.686 247.354 358.473C247.746 358.26 248.188 358.153 248.68 358.153C249.168 358.153 249.603 358.251 249.984 358.447C250.367 358.641 250.68 358.911 250.921 359.257C251.163 359.604 251.319 360.003 251.39 360.455H250.35C250.254 360.062 250.066 359.737 249.788 359.479C249.509 359.22 249.14 359.091 248.68 359.091C248.004 359.091 247.471 359.385 247.082 359.973C246.695 360.561 246.501 361.386 246.498 362.449H246.566C246.725 362.207 246.914 362.001 247.133 361.831C247.354 361.658 247.599 361.524 247.866 361.43C248.133 361.337 248.415 361.29 248.714 361.29C249.214 361.29 249.671 361.415 250.086 361.665C250.501 361.912 250.833 362.254 251.083 362.692C251.333 363.126 251.458 363.625 251.458 364.188C251.458 364.727 251.337 365.222 251.096 365.67C250.854 366.116 250.515 366.472 250.077 366.736C249.643 366.997 249.131 367.125 248.543 367.119ZM248.543 366.182C248.901 366.182 249.222 366.092 249.506 365.913C249.793 365.734 250.019 365.494 250.184 365.193C250.352 364.892 250.435 364.557 250.435 364.188C250.435 363.827 250.354 363.499 250.192 363.203C250.033 362.905 249.813 362.668 249.532 362.491C249.254 362.315 248.935 362.227 248.577 362.227C248.308 362.227 248.056 362.281 247.823 362.389C247.59 362.494 247.386 362.639 247.21 362.824C247.036 363.009 246.9 363.22 246.8 363.459C246.701 363.695 246.651 363.943 246.651 364.205C246.651 364.551 246.732 364.875 246.894 365.176C247.059 365.477 247.283 365.72 247.567 365.905C247.854 366.089 248.18 366.182 248.543 366.182ZM257.02 367H255.912L259.117 358.273H260.208L263.412 367H262.304L259.696 359.653H259.628L257.02 367ZM257.429 363.591H261.895V364.528H257.429V363.591ZM268.76 364.324V360.455H269.766V367H268.76V365.892H268.692C268.539 366.224 268.3 366.507 267.976 366.74C267.652 366.97 267.243 367.085 266.749 367.085C266.34 367.085 265.976 366.996 265.658 366.817C265.34 366.635 265.09 366.362 264.908 365.999C264.726 365.632 264.635 365.17 264.635 364.614V360.455H265.641V364.545C265.641 365.023 265.775 365.403 266.042 365.688C266.311 365.972 266.655 366.114 267.073 366.114C267.323 366.114 267.577 366.05 267.836 365.922C268.097 365.794 268.316 365.598 268.492 365.334C268.671 365.07 268.76 364.733 268.76 364.324ZM274.25 369.591C273.764 369.591 273.347 369.528 272.997 369.403C272.648 369.281 272.357 369.119 272.124 368.918C271.893 368.719 271.71 368.506 271.574 368.278L272.375 367.716C272.466 367.835 272.581 367.972 272.72 368.125C272.859 368.281 273.05 368.416 273.291 368.53C273.536 368.646 273.855 368.705 274.25 368.705C274.778 368.705 275.214 368.577 275.558 368.321C275.902 368.065 276.074 367.665 276.074 367.119V365.79H275.989C275.915 365.909 275.81 366.057 275.673 366.233C275.54 366.406 275.347 366.561 275.094 366.697C274.844 366.831 274.506 366.898 274.08 366.898C273.551 366.898 273.077 366.773 272.656 366.523C272.239 366.273 271.908 365.909 271.663 365.432C271.422 364.955 271.301 364.375 271.301 363.693C271.301 363.023 271.419 362.439 271.655 361.942C271.891 361.442 272.219 361.055 272.639 360.783C273.06 360.507 273.545 360.369 274.097 360.369C274.523 360.369 274.861 360.44 275.111 360.582C275.364 360.722 275.557 360.881 275.69 361.06C275.827 361.236 275.932 361.381 276.006 361.494H276.108V360.455H277.08V367.188C277.08 367.75 276.952 368.207 276.696 368.56C276.443 368.915 276.102 369.175 275.673 369.339C275.247 369.507 274.773 369.591 274.25 369.591ZM274.216 365.994C274.619 365.994 274.96 365.902 275.239 365.717C275.517 365.533 275.729 365.267 275.874 364.92C276.018 364.574 276.091 364.159 276.091 363.676C276.091 363.205 276.02 362.788 275.878 362.428C275.736 362.067 275.526 361.784 275.247 361.58C274.969 361.375 274.625 361.273 274.216 361.273C273.79 361.273 273.435 361.381 273.151 361.597C272.869 361.812 272.658 362.102 272.516 362.466C272.376 362.83 272.307 363.233 272.307 363.676C272.307 364.131 272.378 364.533 272.52 364.882C272.665 365.229 272.878 365.501 273.159 365.7C273.443 365.896 273.795 365.994 274.216 365.994Z" fill="#868EA3"/>
<path d="M239.815 117.639C239.158 117.639 238.573 117.527 238.06 117.301C237.549 117.076 237.143 116.763 236.842 116.362C236.543 115.957 236.381 115.488 236.354 114.955H237.607C237.634 115.283 237.746 115.566 237.945 115.805C238.144 116.04 238.404 116.222 238.726 116.352C239.047 116.481 239.404 116.545 239.795 116.545C240.232 116.545 240.62 116.469 240.958 116.317C241.296 116.164 241.561 115.952 241.754 115.68C241.946 115.409 242.042 115.094 242.042 114.736C242.042 114.361 241.949 114.031 241.763 113.746C241.578 113.458 241.306 113.233 240.948 113.07C240.59 112.908 240.153 112.827 239.636 112.827H238.82V111.733H239.636C240.04 111.733 240.395 111.66 240.7 111.514C241.008 111.368 241.248 111.163 241.42 110.898C241.596 110.633 241.684 110.321 241.684 109.963C241.684 109.618 241.608 109.318 241.455 109.063C241.303 108.808 241.087 108.609 240.809 108.467C240.534 108.324 240.209 108.253 239.835 108.253C239.483 108.253 239.152 108.317 238.84 108.447C238.532 108.573 238.28 108.757 238.085 108.999C237.889 109.237 237.783 109.526 237.766 109.864H236.573C236.593 109.33 236.754 108.863 237.055 108.462C237.357 108.057 237.751 107.742 238.239 107.517C238.729 107.292 239.268 107.179 239.854 107.179C240.484 107.179 241.024 107.307 241.475 107.562C241.926 107.814 242.272 108.147 242.514 108.561C242.756 108.975 242.877 109.423 242.877 109.903C242.877 110.477 242.726 110.966 242.425 111.37C242.126 111.774 241.72 112.054 241.207 112.21V112.29C241.85 112.396 242.352 112.669 242.713 113.11C243.074 113.548 243.255 114.089 243.255 114.736C243.255 115.289 243.104 115.786 242.803 116.227C242.504 116.665 242.097 117.009 241.58 117.261C241.063 117.513 240.474 117.639 239.815 117.639ZM248.609 117.639C247.86 117.639 247.222 117.435 246.695 117.028C246.168 116.617 245.766 116.022 245.487 115.243C245.209 114.461 245.07 113.516 245.07 112.409C245.07 111.309 245.209 110.369 245.487 109.59C245.769 108.808 246.173 108.211 246.7 107.8C247.231 107.386 247.867 107.179 248.609 107.179C249.352 107.179 249.987 107.386 250.513 107.8C251.044 108.211 251.448 108.808 251.727 109.59C252.008 110.369 252.149 111.309 252.149 112.409C252.149 113.516 252.01 114.461 251.732 115.243C251.453 116.022 251.05 116.617 250.523 117.028C249.996 117.435 249.358 117.639 248.609 117.639ZM248.609 116.545C249.352 116.545 249.929 116.187 250.339 115.472C250.75 114.756 250.956 113.735 250.956 112.409C250.956 111.527 250.862 110.777 250.673 110.157C250.487 109.537 250.219 109.065 249.867 108.74C249.519 108.415 249.1 108.253 248.609 108.253C247.874 108.253 247.299 108.616 246.884 109.342C246.47 110.064 246.263 111.087 246.263 112.409C246.263 113.291 246.356 114.04 246.541 114.656C246.727 115.273 246.994 115.742 247.342 116.063C247.693 116.385 248.116 116.545 248.609 116.545ZM256.942 117.659C256.305 117.659 255.744 117.498 255.256 117.177C254.769 116.852 254.388 116.395 254.113 115.805C253.838 115.211 253.7 114.51 253.7 113.702C253.7 112.9 253.838 112.204 254.113 111.614C254.388 111.024 254.771 110.568 255.261 110.246C255.752 109.925 256.319 109.764 256.962 109.764C257.459 109.764 257.852 109.847 258.14 110.013C258.432 110.175 258.654 110.361 258.806 110.57C258.962 110.775 259.083 110.944 259.169 111.077H259.268V107.318H260.442V117.5H259.308V116.327H259.169C259.083 116.466 258.96 116.642 258.801 116.854C258.642 117.062 258.415 117.25 258.12 117.415C257.825 117.578 257.432 117.659 256.942 117.659ZM257.101 116.605C257.571 116.605 257.969 116.482 258.294 116.237C258.619 115.989 258.866 115.646 259.035 115.208C259.204 114.767 259.288 114.259 259.288 113.682C259.288 113.112 259.205 112.613 259.04 112.185C258.874 111.754 258.629 111.42 258.304 111.181C257.979 110.939 257.578 110.818 257.101 110.818C256.604 110.818 256.189 110.946 255.858 111.201C255.53 111.453 255.283 111.796 255.117 112.23C254.955 112.661 254.874 113.145 254.874 113.682C254.874 114.225 254.956 114.719 255.122 115.163C255.291 115.604 255.54 115.955 255.868 116.217C256.199 116.476 256.61 116.605 257.101 116.605Z" fill="#868EA3"/>
<path fill-rule="evenodd" clip-rule="evenodd" d="M270.234 109.834C270.547 109.522 271.053 109.522 271.366 109.834L274 112.469L276.634 109.834C276.947 109.522 277.453 109.522 277.766 109.834C278.078 110.147 278.078 110.653 277.766 110.966L274.566 114.166C274.253 114.478 273.747 114.478 273.434 114.166L270.234 110.966C269.922 110.653 269.922 110.147 270.234 109.834Z" fill="#868EA3"/>
<rect x="-1237.5" y="-152.5" width="1727" height="63" fill="white"/>
<g filter="url(#filter3_d_1971_86488)">
<mask id="path-18-inside-1_1971_86488" fill="white">
<path d="M250 -89H490V299C490 303.418 486.418 307 482 307H258C253.582 307 250 303.418 250 299V-89Z"/>
</mask>
<path d="M250 -89H490V299C490 303.418 486.418 307 482 307H258C253.582 307 250 303.418 250 299V-89Z" fill="#14141F" shape-rendering="crispEdges"/>
<g filter="url(#filter4_d_1971_86488)">
<line x1="250" y1="23.5" x2="490" y2="23.5" stroke="#282A3B"/>
<path d="M287.307 55.3182V65.5H286.114L280.565 57.5057H280.466V65.5H279.233V55.3182H280.426L285.994 63.3324H286.094V55.3182H287.307ZM292.817 65.6591C292.081 65.6591 291.446 65.4967 290.912 65.1719C290.382 64.8438 289.973 64.3864 289.684 63.7997C289.399 63.2098 289.257 62.5237 289.257 61.7415C289.257 60.9593 289.399 60.2699 289.684 59.6733C289.973 59.0734 290.374 58.6061 290.888 58.2713C291.405 57.9332 292.008 57.7642 292.697 57.7642C293.095 57.7642 293.488 57.8305 293.876 57.9631C294.263 58.0956 294.616 58.3111 294.934 58.6094C295.253 58.9044 295.506 59.2955 295.695 59.7827C295.884 60.2699 295.979 60.8698 295.979 61.5824V62.0795H290.092V61.0653H294.785C294.785 60.6345 294.699 60.25 294.527 59.9119C294.358 59.5739 294.116 59.3071 293.801 59.1115C293.489 58.916 293.122 58.8182 292.697 58.8182C292.23 58.8182 291.826 58.9342 291.484 59.1662C291.146 59.3949 290.886 59.6932 290.704 60.0611C290.521 60.429 290.43 60.8234 290.43 61.2443V61.9205C290.43 62.4972 290.53 62.986 290.729 63.3871C290.931 63.7848 291.211 64.0881 291.569 64.2969C291.927 64.5024 292.343 64.6051 292.817 64.6051C293.125 64.6051 293.403 64.562 293.652 64.4759C293.904 64.3864 294.121 64.2538 294.303 64.0781C294.485 63.8991 294.626 63.6771 294.726 63.4119L295.859 63.7301C295.74 64.1146 295.539 64.4527 295.258 64.7443C294.976 65.0327 294.628 65.258 294.214 65.4205C293.799 65.5795 293.334 65.6591 292.817 65.6591ZM299.493 65.5L297.167 57.8636H298.4L300.05 63.7102H300.13L301.76 57.8636H303.013L304.624 63.6903H304.704L306.354 57.8636H307.587L305.26 65.5H304.107L302.437 59.6335H302.317L300.647 65.5H299.493ZM316.178 65.6591C315.489 65.6591 314.884 65.495 314.363 65.1669C313.846 64.8388 313.442 64.3797 313.15 63.7898C312.862 63.1998 312.718 62.5104 312.718 61.7216C312.718 60.9261 312.862 60.2318 313.15 59.6385C313.442 59.0452 313.846 58.5845 314.363 58.2564C314.884 57.9283 315.489 57.7642 316.178 57.7642C316.867 57.7642 317.471 57.9283 317.988 58.2564C318.508 58.5845 318.912 59.0452 319.201 59.6385C319.492 60.2318 319.638 60.9261 319.638 61.7216C319.638 62.5104 319.492 63.1998 319.201 63.7898C318.912 64.3797 318.508 64.8388 317.988 65.1669C317.471 65.495 316.867 65.6591 316.178 65.6591ZM316.178 64.6051C316.702 64.6051 317.133 64.4709 317.471 64.2024C317.809 63.9339 318.059 63.581 318.221 63.1435C318.384 62.706 318.465 62.232 318.465 61.7216C318.465 61.2112 318.384 60.7356 318.221 60.2947C318.059 59.8539 317.809 59.4976 317.471 59.2259C317.133 58.9541 316.702 58.8182 316.178 58.8182C315.654 58.8182 315.224 58.9541 314.885 59.2259C314.547 59.4976 314.297 59.8539 314.135 60.2947C313.972 60.7356 313.891 61.2112 313.891 61.7216C313.891 62.232 313.972 62.706 314.135 63.1435C314.297 63.581 314.547 63.9339 314.885 64.2024C315.224 64.4709 315.654 64.6051 316.178 64.6051ZM321.429 65.5V57.8636H322.563V59.017H322.642C322.782 58.6392 323.033 58.3326 323.398 58.0973C323.763 57.862 324.174 57.7443 324.631 57.7443C324.717 57.7443 324.825 57.746 324.954 57.7493C325.083 57.7526 325.181 57.7576 325.248 57.7642V58.9574C325.208 58.9474 325.117 58.9325 324.974 58.9126C324.835 58.8894 324.687 58.8778 324.532 58.8778C324.16 58.8778 323.829 58.9557 323.537 59.1115C323.249 59.264 323.02 59.4761 322.851 59.7479C322.685 60.0163 322.603 60.3229 322.603 60.6676V65.5H321.429ZM329.488 68.5227C328.922 68.5227 328.434 68.4498 328.027 68.304C327.619 68.1615 327.279 67.9725 327.007 67.7372C326.739 67.5052 326.525 67.2566 326.366 66.9915L327.301 66.3352C327.407 66.4744 327.541 66.6335 327.703 66.8125C327.866 66.9948 328.088 67.1522 328.37 67.2848C328.655 67.4207 329.028 67.4886 329.488 67.4886C330.105 67.4886 330.614 67.3395 331.015 67.0412C331.416 66.7429 331.616 66.2756 331.616 65.6392V64.0881H331.517C331.431 64.2273 331.308 64.3996 331.149 64.6051C330.993 64.8073 330.768 64.9879 330.473 65.147C330.181 65.3028 329.787 65.3807 329.289 65.3807C328.673 65.3807 328.119 65.2348 327.629 64.9432C327.142 64.6515 326.756 64.2273 326.471 63.6705C326.189 63.1136 326.048 62.4375 326.048 61.642C326.048 60.8598 326.185 60.1787 326.461 59.5987C326.736 59.0154 327.118 58.5646 327.609 58.2464C328.1 57.925 328.666 57.7642 329.309 57.7642C329.806 57.7642 330.201 57.8471 330.493 58.0128C330.788 58.1752 331.013 58.3608 331.169 58.5696C331.328 58.7751 331.45 58.9441 331.537 59.0767H331.656V57.8636H332.789V65.7188C332.789 66.375 332.64 66.9086 332.342 67.3196C332.047 67.7339 331.649 68.0372 331.149 68.2294C330.652 68.425 330.098 68.5227 329.488 68.5227ZM329.449 64.3267C329.919 64.3267 330.317 64.219 330.642 64.0036C330.967 63.7881 331.213 63.4782 331.382 63.0739C331.551 62.6695 331.636 62.1856 331.636 61.6222C331.636 61.072 331.553 60.5864 331.387 60.1655C331.222 59.7446 330.976 59.4148 330.652 59.1761C330.327 58.9375 329.926 58.8182 329.449 58.8182C328.951 58.8182 328.537 58.9441 328.206 59.196C327.877 59.4479 327.631 59.786 327.465 60.2102C327.302 60.6345 327.221 61.1051 327.221 61.6222C327.221 62.1525 327.304 62.6214 327.47 63.0291C327.639 63.4335 327.887 63.7517 328.216 63.9837C328.547 64.2124 328.958 64.3267 329.449 64.3267ZM337.184 65.679C336.7 65.679 336.261 65.5878 335.867 65.4055C335.472 65.2199 335.159 64.9531 334.927 64.6051C334.695 64.2538 334.579 63.8295 334.579 63.3324C334.579 62.8949 334.665 62.5402 334.838 62.2685C335.01 61.9934 335.24 61.7779 335.529 61.6222C335.817 61.4664 336.135 61.3504 336.483 61.2741C336.835 61.1946 337.188 61.1316 337.542 61.0852C338.006 61.0256 338.382 60.9808 338.671 60.951C338.962 60.9179 339.175 60.8632 339.307 60.7869C339.443 60.7107 339.511 60.5781 339.511 60.3892V60.3494C339.511 59.8589 339.377 59.4777 339.108 59.206C338.843 58.9342 338.44 58.7983 337.9 58.7983C337.34 58.7983 336.901 58.9209 336.583 59.1662C336.265 59.4115 336.041 59.6733 335.912 59.9517L334.798 59.554C334.997 59.09 335.262 58.7287 335.593 58.4702C335.928 58.2083 336.293 58.026 336.687 57.9233C337.085 57.8172 337.476 57.7642 337.86 57.7642C338.106 57.7642 338.387 57.794 338.706 57.8537C339.027 57.91 339.337 58.0277 339.635 58.2067C339.937 58.3857 340.187 58.6558 340.386 59.017C340.585 59.3783 340.684 59.8622 340.684 60.4688V65.5H339.511V64.4659H339.451C339.372 64.6316 339.239 64.8089 339.054 64.9979C338.868 65.1868 338.621 65.3475 338.313 65.4801C338.005 65.6127 337.628 65.679 337.184 65.679ZM337.363 64.625C337.827 64.625 338.218 64.5339 338.537 64.3516C338.858 64.1693 339.1 63.9339 339.262 63.6456C339.428 63.3572 339.511 63.054 339.511 62.7358V61.6619C339.461 61.7216 339.352 61.7763 339.183 61.826C339.017 61.8724 338.825 61.9138 338.606 61.9503C338.391 61.9834 338.18 62.0133 337.975 62.0398C337.773 62.063 337.609 62.0829 337.483 62.0994C337.178 62.1392 336.893 62.2038 336.627 62.2933C336.366 62.3795 336.154 62.5104 335.991 62.6861C335.832 62.8584 335.752 63.0937 335.752 63.392C335.752 63.7997 335.903 64.108 336.205 64.3168C336.51 64.5223 336.896 64.625 337.363 64.625ZM343.999 60.9062V65.5H342.826V57.8636H343.959V59.0568H344.059C344.238 58.669 344.51 58.3575 344.874 58.1222C345.239 57.8835 345.709 57.7642 346.286 57.7642C346.803 57.7642 347.256 57.8703 347.643 58.0824C348.031 58.2912 348.333 58.6094 348.548 59.0369C348.764 59.4612 348.871 59.9981 348.871 60.6477V65.5H347.698V60.7273C347.698 60.1274 347.542 59.66 347.231 59.3253C346.919 58.9872 346.492 58.8182 345.948 58.8182C345.573 58.8182 345.239 58.8994 344.944 59.0618C344.652 59.2242 344.422 59.4612 344.253 59.7727C344.084 60.0843 343.999 60.4621 343.999 60.9062ZM351.015 65.5V57.8636H352.189V65.5H351.015ZM351.612 56.5909C351.383 56.5909 351.186 56.513 351.02 56.3572C350.858 56.2015 350.777 56.0142 350.777 55.7955C350.777 55.5767 350.858 55.3894 351.02 55.2337C351.186 55.0779 351.383 55 351.612 55C351.841 55 352.036 55.0779 352.199 55.2337C352.364 55.3894 352.447 55.5767 352.447 55.7955C352.447 56.0142 352.364 56.2015 352.199 56.3572C352.036 56.513 351.841 56.5909 351.612 56.5909ZM359.747 59.5739L358.693 59.8722C358.626 59.6965 358.529 59.5258 358.399 59.3601C358.273 59.1911 358.101 59.0518 357.882 58.9425C357.664 58.8331 357.383 58.7784 357.042 58.7784C356.575 58.7784 356.185 58.8861 355.874 59.1016C355.566 59.3137 355.411 59.5838 355.411 59.9119C355.411 60.2036 355.517 60.4339 355.73 60.603C355.942 60.772 356.273 60.9129 356.724 61.0256L357.857 61.304C358.54 61.4697 359.049 61.7232 359.384 62.0646C359.718 62.4027 359.886 62.8385 359.886 63.3722C359.886 63.8097 359.76 64.2008 359.508 64.5455C359.259 64.8902 358.911 65.1619 358.464 65.3608C358.017 65.5597 357.496 65.6591 356.903 65.6591C356.124 65.6591 355.479 65.4901 354.969 65.152C354.459 64.8139 354.135 64.3201 353.999 63.6705L355.113 63.392C355.219 63.803 355.42 64.1113 355.715 64.3168C356.013 64.5223 356.402 64.625 356.883 64.625C357.43 64.625 357.864 64.509 358.186 64.277C358.51 64.0417 358.673 63.7599 358.673 63.4318C358.673 63.1667 358.58 62.9446 358.394 62.7656C358.209 62.5833 357.924 62.4474 357.539 62.358L356.267 62.0597C355.567 61.8939 355.053 61.6371 354.725 61.2891C354.401 60.9377 354.238 60.4986 354.238 59.9716C354.238 59.5407 354.359 59.1596 354.601 58.8281C354.846 58.4967 355.179 58.2365 355.6 58.0476C356.025 57.8587 356.505 57.7642 357.042 57.7642C357.798 57.7642 358.391 57.9299 358.822 58.2614C359.256 58.5928 359.564 59.0303 359.747 59.5739ZM363.899 65.679C363.415 65.679 362.976 65.5878 362.582 65.4055C362.187 65.2199 361.874 64.9531 361.642 64.6051C361.41 64.2538 361.294 63.8295 361.294 63.3324C361.294 62.8949 361.38 62.5402 361.553 62.2685C361.725 61.9934 361.955 61.7779 362.244 61.6222C362.532 61.4664 362.85 61.3504 363.198 61.2741C363.549 61.1946 363.902 61.1316 364.257 61.0852C364.721 61.0256 365.097 60.9808 365.386 60.951C365.677 60.9179 365.889 60.8632 366.022 60.7869C366.158 60.7107 366.226 60.5781 366.226 60.3892V60.3494C366.226 59.8589 366.092 59.4777 365.823 59.206C365.558 58.9342 365.155 58.7983 364.615 58.7983C364.055 58.7983 363.616 58.9209 363.298 59.1662C362.979 59.4115 362.756 59.6733 362.626 59.9517L361.513 59.554C361.712 59.09 361.977 58.7287 362.308 58.4702C362.643 58.2083 363.008 58.026 363.402 57.9233C363.8 57.8172 364.191 57.7642 364.575 57.7642C364.821 57.7642 365.102 57.794 365.42 57.8537C365.742 57.91 366.052 58.0277 366.35 58.2067C366.652 58.3857 366.902 58.6558 367.101 59.017C367.3 59.3783 367.399 59.8622 367.399 60.4688V65.5H366.226V64.4659H366.166C366.087 64.6316 365.954 64.8089 365.768 64.9979C365.583 65.1868 365.336 65.3475 365.028 65.4801C364.719 65.6127 364.343 65.679 363.899 65.679ZM364.078 64.625C364.542 64.625 364.933 64.5339 365.251 64.3516C365.573 64.1693 365.815 63.9339 365.977 63.6456C366.143 63.3572 366.226 63.054 366.226 62.7358V61.6619C366.176 61.7216 366.067 61.7763 365.898 61.826C365.732 61.8724 365.54 61.9138 365.321 61.9503C365.106 61.9834 364.895 62.0133 364.69 62.0398C364.487 62.063 364.323 62.0829 364.197 62.0994C363.893 62.1392 363.607 62.2038 363.342 62.2933C363.08 62.3795 362.868 62.5104 362.706 62.6861C362.547 62.8584 362.467 63.0937 362.467 63.392C362.467 63.7997 362.618 64.108 362.92 64.3168C363.225 64.5223 363.611 64.625 364.078 64.625ZM372.862 57.8636V58.858H368.904V57.8636H372.862ZM370.058 56.0341H371.231V63.3125C371.231 63.6439 371.279 63.8925 371.375 64.0582C371.475 64.2206 371.601 64.33 371.753 64.3864C371.909 64.4394 372.073 64.4659 372.245 64.4659C372.374 64.4659 372.481 64.4593 372.563 64.446C372.646 64.4295 372.713 64.4162 372.762 64.4062L373.001 65.4602C372.921 65.4901 372.81 65.5199 372.668 65.5497C372.525 65.5829 372.345 65.5994 372.126 65.5994C371.794 65.5994 371.47 65.5282 371.151 65.3857C370.837 65.2431 370.575 65.026 370.366 64.7344C370.16 64.4427 370.058 64.0748 370.058 63.6307V56.0341ZM374.627 65.5V57.8636H375.8V65.5H374.627ZM375.223 56.5909C374.994 56.5909 374.797 56.513 374.632 56.3572C374.469 56.2015 374.388 56.0142 374.388 55.7955C374.388 55.5767 374.469 55.3894 374.632 55.2337C374.797 55.0779 374.994 55 375.223 55C375.452 55 375.647 55.0779 375.81 55.2337C375.976 55.3894 376.058 55.5767 376.058 55.7955C376.058 56.0142 375.976 56.2015 375.81 56.3572C375.647 56.513 375.452 56.5909 375.223 56.5909ZM381.051 65.6591C380.362 65.6591 379.757 65.495 379.237 65.1669C378.719 64.8388 378.315 64.3797 378.023 63.7898C377.735 63.1998 377.591 62.5104 377.591 61.7216C377.591 60.9261 377.735 60.2318 378.023 59.6385C378.315 59.0452 378.719 58.5845 379.237 58.2564C379.757 57.9283 380.362 57.7642 381.051 57.7642C381.741 57.7642 382.344 57.9283 382.861 58.2564C383.381 58.5845 383.786 59.0452 384.074 59.6385C384.366 60.2318 384.511 60.9261 384.511 61.7216C384.511 62.5104 384.366 63.1998 384.074 63.7898C383.786 64.3797 383.381 64.8388 382.861 65.1669C382.344 65.495 381.741 65.6591 381.051 65.6591ZM381.051 64.6051C381.575 64.6051 382.006 64.4709 382.344 64.2024C382.682 63.9339 382.932 63.581 383.094 63.1435C383.257 62.706 383.338 62.232 383.338 61.7216C383.338 61.2112 383.257 60.7356 383.094 60.2947C382.932 59.8539 382.682 59.4976 382.344 59.2259C382.006 58.9541 381.575 58.8182 381.051 58.8182C380.527 58.8182 380.097 58.9541 379.759 59.2259C379.42 59.4976 379.17 59.8539 379.008 60.2947C378.845 60.7356 378.764 61.2112 378.764 61.7216C378.764 62.232 378.845 62.706 379.008 63.1435C379.17 63.581 379.42 63.9339 379.759 64.2024C380.097 64.4709 380.527 64.6051 381.051 64.6051ZM387.476 60.9062V65.5H386.302V57.8636H387.436V59.0568H387.535C387.714 58.669 387.986 58.3575 388.351 58.1222C388.715 57.8835 389.186 57.7642 389.763 57.7642C390.28 57.7642 390.732 57.8703 391.12 58.0824C391.508 58.2912 391.809 58.6094 392.025 59.0369C392.24 59.4612 392.348 59.9981 392.348 60.6477V65.5H391.175V60.7273C391.175 60.1274 391.019 59.66 390.707 59.3253C390.396 58.9872 389.968 58.8182 389.425 58.8182C389.05 58.8182 388.715 58.8994 388.42 59.0618C388.129 59.2242 387.898 59.4612 387.729 59.7727C387.56 60.0843 387.476 60.4621 387.476 60.9062Z" fill="#C4C6D7"/>
<path fill-rule="evenodd" clip-rule="evenodd" d="M461 54C461.663 54 462.2 54.5373 462.2 55.2V58.8L465.8 58.8C466.463 58.8 467 59.3373 467 60C467 60.6627 466.463 61.2 465.8 61.2H462.2V64.8C462.2 65.4627 461.663 66 461 66C460.337 66 459.8 65.4627 459.8 64.8V61.2H456.2C455.537 61.2 455 60.6627 455 60C455 59.3373 455.537 58.8 456.2 58.8L459.8 58.8V55.2C459.8 54.5373 460.337 54 461 54Z" fill="#C4C6D7"/>
<path d="M278.358 103.818H279.77L282.594 108.571H282.713L285.537 103.818H286.949L283.27 109.804V114H282.037V109.804L278.358 103.818ZM290.407 114.159C289.717 114.159 289.112 113.995 288.592 113.667C288.075 113.339 287.671 112.88 287.379 112.29C287.091 111.7 286.946 111.01 286.946 110.222C286.946 109.426 287.091 108.732 287.379 108.138C287.671 107.545 288.075 107.085 288.592 106.756C289.112 106.428 289.717 106.264 290.407 106.264C291.096 106.264 291.699 106.428 292.216 106.756C292.737 107.085 293.141 107.545 293.429 108.138C293.721 108.732 293.867 109.426 293.867 110.222C293.867 111.01 293.721 111.7 293.429 112.29C293.141 112.88 292.737 113.339 292.216 113.667C291.699 113.995 291.096 114.159 290.407 114.159ZM290.407 113.105C290.93 113.105 291.361 112.971 291.699 112.702C292.037 112.434 292.288 112.081 292.45 111.643C292.612 111.206 292.694 110.732 292.694 110.222C292.694 109.711 292.612 109.236 292.45 108.795C292.288 108.354 292.037 107.998 291.699 107.726C291.361 107.454 290.93 107.318 290.407 107.318C289.883 107.318 289.452 107.454 289.114 107.726C288.776 107.998 288.526 108.354 288.363 108.795C288.201 109.236 288.12 109.711 288.12 110.222C288.12 110.732 288.201 111.206 288.363 111.643C288.526 112.081 288.776 112.434 289.114 112.702C289.452 112.971 289.883 113.105 290.407 113.105ZM300.47 110.878V106.364H301.644V114H300.47V112.707H300.391C300.212 113.095 299.933 113.425 299.556 113.697C299.178 113.965 298.7 114.099 298.124 114.099C297.646 114.099 297.222 113.995 296.851 113.786C296.48 113.574 296.188 113.256 295.976 112.832C295.764 112.404 295.658 111.866 295.658 111.216V106.364H296.831V111.136C296.831 111.693 296.987 112.137 297.298 112.469C297.613 112.8 298.014 112.966 298.502 112.966C298.793 112.966 299.09 112.891 299.392 112.742C299.696 112.593 299.952 112.364 300.157 112.056C300.366 111.748 300.47 111.355 300.47 110.878ZM303.793 114V106.364H304.926V107.517H305.006C305.145 107.139 305.397 106.833 305.761 106.597C306.126 106.362 306.537 106.244 306.994 106.244C307.08 106.244 307.188 106.246 307.317 106.249C307.447 106.253 307.545 106.258 307.611 106.264V107.457C307.571 107.447 307.48 107.433 307.337 107.413C307.198 107.389 307.051 107.378 306.895 107.378C306.524 107.378 306.192 107.456 305.901 107.612C305.612 107.764 305.384 107.976 305.214 108.248C305.049 108.516 304.966 108.823 304.966 109.168V114H303.793ZM313.516 114H312.223L315.962 103.818H317.235L320.973 114H319.681L316.638 105.429H316.558L313.516 114ZM313.993 110.023H319.203V111.116H313.993V110.023ZM325.502 114.159C324.786 114.159 324.17 113.99 323.653 113.652C323.136 113.314 322.738 112.848 322.46 112.255C322.181 111.662 322.042 110.984 322.042 110.222C322.042 109.446 322.185 108.762 322.47 108.168C322.758 107.572 323.159 107.106 323.673 106.771C324.19 106.433 324.793 106.264 325.482 106.264C326.019 106.264 326.503 106.364 326.934 106.562C327.365 106.761 327.718 107.04 327.993 107.398C328.268 107.756 328.439 108.173 328.505 108.651H327.332C327.242 108.303 327.044 107.994 326.735 107.726C326.43 107.454 326.019 107.318 325.502 107.318C325.045 107.318 324.644 107.437 324.299 107.676C323.958 107.911 323.691 108.245 323.499 108.675C323.31 109.103 323.215 109.605 323.215 110.182C323.215 110.772 323.308 111.286 323.494 111.723C323.683 112.161 323.948 112.5 324.289 112.742C324.634 112.984 325.038 113.105 325.502 113.105C325.807 113.105 326.084 113.052 326.333 112.946C326.581 112.84 326.792 112.688 326.964 112.489C327.136 112.29 327.259 112.051 327.332 111.773H328.505C328.439 112.223 328.275 112.629 328.013 112.991C327.754 113.349 327.411 113.634 326.984 113.846C326.56 114.055 326.066 114.159 325.502 114.159ZM333.323 114.159C332.607 114.159 331.99 113.99 331.473 113.652C330.956 113.314 330.558 112.848 330.28 112.255C330.002 111.662 329.862 110.984 329.862 110.222C329.862 109.446 330.005 108.762 330.29 108.168C330.578 107.572 330.979 107.106 331.493 106.771C332.01 106.433 332.613 106.264 333.303 106.264C333.84 106.264 334.324 106.364 334.754 106.562C335.185 106.761 335.538 107.04 335.813 107.398C336.088 107.756 336.259 108.173 336.325 108.651H335.152C335.063 108.303 334.864 107.994 334.556 107.726C334.251 107.454 333.84 107.318 333.323 107.318C332.865 107.318 332.464 107.437 332.119 107.676C331.778 107.911 331.511 108.245 331.319 108.675C331.13 109.103 331.036 109.605 331.036 110.182C331.036 110.772 331.128 111.286 331.314 111.723C331.503 112.161 331.768 112.5 332.11 112.742C332.454 112.984 332.859 113.105 333.323 113.105C333.628 113.105 333.904 113.052 334.153 112.946C334.401 112.84 334.612 112.688 334.784 112.489C334.957 112.29 335.079 112.051 335.152 111.773H336.325C336.259 112.223 336.095 112.629 335.833 112.991C335.575 113.349 335.232 113.634 334.804 113.846C334.38 114.055 333.886 114.159 333.323 114.159ZM341.143 114.159C340.454 114.159 339.849 113.995 339.328 113.667C338.811 113.339 338.407 112.88 338.115 112.29C337.827 111.7 337.683 111.01 337.683 110.222C337.683 109.426 337.827 108.732 338.115 108.138C338.407 107.545 338.811 107.085 339.328 106.756C339.849 106.428 340.454 106.264 341.143 106.264C341.832 106.264 342.436 106.428 342.953 106.756C343.473 107.085 343.877 107.545 344.166 108.138C344.457 108.732 344.603 109.426 344.603 110.222C344.603 111.01 344.457 111.7 344.166 112.29C343.877 112.88 343.473 113.339 342.953 113.667C342.436 113.995 341.832 114.159 341.143 114.159ZM341.143 113.105C341.667 113.105 342.097 112.971 342.436 112.702C342.774 112.434 343.024 112.081 343.186 111.643C343.349 111.206 343.43 110.732 343.43 110.222C343.43 109.711 343.349 109.236 343.186 108.795C343.024 108.354 342.774 107.998 342.436 107.726C342.097 107.454 341.667 107.318 341.143 107.318C340.619 107.318 340.188 107.454 339.85 107.726C339.512 107.998 339.262 108.354 339.1 108.795C338.937 109.236 338.856 109.711 338.856 110.222C338.856 110.732 338.937 111.206 339.1 111.643C339.262 112.081 339.512 112.434 339.85 112.702C340.188 112.971 340.619 113.105 341.143 113.105ZM351.207 110.878V106.364H352.38V114H351.207V112.707H351.127C350.948 113.095 350.67 113.425 350.292 113.697C349.914 113.965 349.437 114.099 348.86 114.099C348.383 114.099 347.959 113.995 347.587 113.786C347.216 113.574 346.924 113.256 346.712 112.832C346.5 112.404 346.394 111.866 346.394 111.216V106.364H347.567V111.136C347.567 111.693 347.723 112.137 348.035 112.469C348.35 112.8 348.751 112.966 349.238 112.966C349.53 112.966 349.826 112.891 350.128 112.742C350.433 112.593 350.688 112.364 350.893 112.056C351.102 111.748 351.207 111.355 351.207 110.878ZM355.702 109.406V114H354.529V106.364H355.662V107.557H355.762C355.941 107.169 356.213 106.857 356.577 106.622C356.942 106.384 357.412 106.264 357.989 106.264C358.506 106.264 358.959 106.37 359.346 106.582C359.734 106.791 360.036 107.109 360.251 107.537C360.467 107.961 360.574 108.498 360.574 109.148V114H359.401V109.227C359.401 108.627 359.245 108.16 358.934 107.825C358.622 107.487 358.195 107.318 357.651 107.318C357.277 107.318 356.942 107.399 356.647 107.562C356.355 107.724 356.125 107.961 355.956 108.273C355.787 108.584 355.702 108.962 355.702 109.406ZM366.039 106.364V107.358H362.082V106.364H366.039ZM363.235 104.534H364.409V111.812C364.409 112.144 364.457 112.393 364.553 112.558C364.652 112.721 364.778 112.83 364.931 112.886C365.087 112.939 365.251 112.966 365.423 112.966C365.552 112.966 365.658 112.959 365.741 112.946C365.824 112.929 365.89 112.916 365.94 112.906L366.179 113.96C366.099 113.99 365.988 114.02 365.846 114.05C365.703 114.083 365.522 114.099 365.304 114.099C364.972 114.099 364.647 114.028 364.329 113.886C364.014 113.743 363.752 113.526 363.544 113.234C363.338 112.943 363.235 112.575 363.235 112.131V104.534Z" fill="#C4C6D7"/>
<path d="M284.801 153.364C284.741 152.86 284.5 152.469 284.075 152.19C283.651 151.912 283.131 151.773 282.514 151.773C282.063 151.773 281.669 151.846 281.331 151.991C280.996 152.137 280.734 152.338 280.545 152.593C280.36 152.848 280.267 153.138 280.267 153.463C280.267 153.735 280.332 153.969 280.461 154.164C280.594 154.356 280.763 154.517 280.968 154.646C281.174 154.772 281.389 154.877 281.614 154.96C281.84 155.039 282.047 155.104 282.236 155.153L283.27 155.432C283.535 155.501 283.83 155.598 284.155 155.72C284.483 155.843 284.796 156.01 285.094 156.222C285.396 156.431 285.645 156.7 285.84 157.028C286.036 157.356 286.134 157.759 286.134 158.236C286.134 158.786 285.989 159.283 285.701 159.727C285.416 160.171 284.998 160.524 284.448 160.786C283.901 161.048 283.237 161.179 282.455 161.179C281.725 161.179 281.094 161.061 280.56 160.826C280.03 160.591 279.612 160.263 279.308 159.842C279.006 159.421 278.835 158.932 278.795 158.375H280.068C280.101 158.759 280.231 159.078 280.456 159.33C280.685 159.578 280.973 159.764 281.321 159.886C281.672 160.006 282.05 160.065 282.455 160.065C282.925 160.065 283.348 159.989 283.722 159.837C284.097 159.681 284.393 159.465 284.612 159.19C284.831 158.912 284.94 158.587 284.94 158.216C284.94 157.878 284.846 157.603 284.657 157.391C284.468 157.179 284.219 157.006 283.911 156.874C283.603 156.741 283.27 156.625 282.912 156.526L281.659 156.168C280.864 155.939 280.234 155.612 279.77 155.188C279.306 154.764 279.074 154.209 279.074 153.523C279.074 152.953 279.228 152.455 279.536 152.031C279.848 151.604 280.265 151.272 280.789 151.037C281.316 150.798 281.904 150.679 282.554 150.679C283.21 150.679 283.794 150.797 284.304 151.032C284.814 151.264 285.219 151.582 285.517 151.987C285.819 152.391 285.978 152.85 285.994 153.364H284.801ZM288.002 161V153.364H289.175V161H288.002ZM288.598 152.091C288.369 152.091 288.172 152.013 288.007 151.857C287.844 151.701 287.763 151.514 287.763 151.295C287.763 151.077 287.844 150.889 288.007 150.734C288.172 150.578 288.369 150.5 288.598 150.5C288.827 150.5 289.022 150.578 289.185 150.734C289.351 150.889 289.433 151.077 289.433 151.295C289.433 151.514 289.351 151.701 289.185 151.857C289.022 152.013 288.827 152.091 288.598 152.091ZM294.406 164.023C293.839 164.023 293.352 163.95 292.945 163.804C292.537 163.661 292.197 163.473 291.925 163.237C291.657 163.005 291.443 162.757 291.284 162.491L292.219 161.835C292.325 161.974 292.459 162.134 292.621 162.312C292.784 162.495 293.006 162.652 293.288 162.785C293.573 162.921 293.946 162.989 294.406 162.989C295.023 162.989 295.531 162.839 295.933 162.541C296.334 162.243 296.534 161.776 296.534 161.139V159.588H296.435C296.348 159.727 296.226 159.9 296.067 160.105C295.911 160.307 295.686 160.488 295.391 160.647C295.099 160.803 294.705 160.881 294.207 160.881C293.591 160.881 293.037 160.735 292.547 160.443C292.06 160.152 291.674 159.727 291.388 159.17C291.107 158.614 290.966 157.937 290.966 157.142C290.966 156.36 291.103 155.679 291.379 155.099C291.654 154.515 292.036 154.065 292.527 153.746C293.018 153.425 293.584 153.264 294.227 153.264C294.724 153.264 295.119 153.347 295.411 153.513C295.705 153.675 295.931 153.861 296.087 154.07C296.246 154.275 296.368 154.444 296.455 154.577H296.574V153.364H297.707V161.219C297.707 161.875 297.558 162.409 297.26 162.82C296.965 163.234 296.567 163.537 296.067 163.729C295.57 163.925 295.016 164.023 294.406 164.023ZM294.366 159.827C294.837 159.827 295.235 159.719 295.56 159.504C295.884 159.288 296.131 158.978 296.3 158.574C296.469 158.17 296.554 157.686 296.554 157.122C296.554 156.572 296.471 156.086 296.305 155.665C296.14 155.245 295.894 154.915 295.57 154.676C295.245 154.437 294.844 154.318 294.366 154.318C293.869 154.318 293.455 154.444 293.124 154.696C292.795 154.948 292.549 155.286 292.383 155.71C292.22 156.134 292.139 156.605 292.139 157.122C292.139 157.652 292.222 158.121 292.388 158.529C292.557 158.933 292.805 159.252 293.134 159.484C293.465 159.712 293.876 159.827 294.366 159.827ZM301.028 156.406V161H299.855V153.364H300.989V154.557H301.088C301.267 154.169 301.539 153.857 301.903 153.622C302.268 153.384 302.739 153.264 303.315 153.264C303.832 153.264 304.285 153.37 304.673 153.582C305.06 153.791 305.362 154.109 305.577 154.537C305.793 154.961 305.901 155.498 305.901 156.148V161H304.727V156.227C304.727 155.627 304.571 155.16 304.26 154.825C303.948 154.487 303.521 154.318 302.977 154.318C302.603 154.318 302.268 154.399 301.973 154.562C301.681 154.724 301.451 154.961 301.282 155.273C301.113 155.584 301.028 155.962 301.028 156.406ZM320.732 155.909C320.732 156.983 320.538 157.911 320.15 158.693C319.763 159.475 319.231 160.079 318.555 160.503C317.878 160.927 317.106 161.139 316.238 161.139C315.369 161.139 314.597 160.927 313.921 160.503C313.245 160.079 312.713 159.475 312.325 158.693C311.937 157.911 311.743 156.983 311.743 155.909C311.743 154.835 311.937 153.907 312.325 153.125C312.713 152.343 313.245 151.74 313.921 151.315C314.597 150.891 315.369 150.679 316.238 150.679C317.106 150.679 317.878 150.891 318.555 151.315C319.231 151.74 319.763 152.343 320.15 153.125C320.538 153.907 320.732 154.835 320.732 155.909ZM319.539 155.909C319.539 155.027 319.391 154.283 319.096 153.677C318.805 153.07 318.409 152.611 317.908 152.3C317.411 151.988 316.854 151.832 316.238 151.832C315.621 151.832 315.063 151.988 314.562 152.3C314.065 152.611 313.669 153.07 313.374 153.677C313.082 154.283 312.937 155.027 312.937 155.909C312.937 156.791 313.082 157.535 313.374 158.141C313.669 158.748 314.065 159.207 314.562 159.518C315.063 159.83 315.621 159.986 316.238 159.986C316.854 159.986 317.411 159.83 317.908 159.518C318.409 159.207 318.805 158.748 319.096 158.141C319.391 157.535 319.539 156.791 319.539 155.909ZM327.459 157.878V153.364H328.632V161H327.459V159.707H327.379C327.2 160.095 326.922 160.425 326.544 160.697C326.166 160.965 325.689 161.099 325.112 161.099C324.635 161.099 324.211 160.995 323.839 160.786C323.468 160.574 323.176 160.256 322.964 159.832C322.752 159.404 322.646 158.866 322.646 158.216V153.364H323.819V158.136C323.819 158.693 323.975 159.137 324.287 159.469C324.602 159.8 325.003 159.966 325.49 159.966C325.782 159.966 326.078 159.891 326.38 159.742C326.685 159.593 326.94 159.364 327.145 159.056C327.354 158.748 327.459 158.355 327.459 157.878ZM334.102 153.364V154.358H330.145V153.364H334.102ZM331.298 151.534H332.471V158.812C332.471 159.144 332.519 159.393 332.615 159.558C332.715 159.721 332.841 159.83 332.993 159.886C333.149 159.939 333.313 159.966 333.485 159.966C333.615 159.966 333.721 159.959 333.804 159.946C333.886 159.929 333.953 159.916 334.002 159.906L334.241 160.96C334.162 160.99 334.051 161.02 333.908 161.05C333.766 161.083 333.585 161.099 333.366 161.099C333.035 161.099 332.71 161.028 332.392 160.886C332.077 160.743 331.815 160.526 331.606 160.234C331.401 159.943 331.298 159.575 331.298 159.131V151.534Z" fill="#C4C6D7"/>
<path d="M456 148.5C455.448 148.5 455 148.948 455 149.5V161.5C455 162.052 455.448 162.5 456 162.5C456.552 162.5 457 162.052 457 161.5V149.5C457 148.948 456.552 148.5 456 148.5Z" fill="#C4C6D7"/>
<path d="M466.293 157.793C465.902 158.183 465.902 158.817 466.293 159.207C466.683 159.598 467.317 159.598 467.707 159.207L470.707 156.207C470.895 156.02 471 155.765 471 155.5C471 155.235 470.895 154.98 470.707 154.793L467.707 151.793C467.317 151.402 466.683 151.402 466.293 151.793C465.902 152.183 465.902 152.817 466.293 153.207L467.586 154.5L460 154.5C459.448 154.5 459 154.948 459 155.5C459 156.052 459.448 156.5 460 156.5H467.586L466.293 157.793Z" fill="#C4C6D7"/>
<line x1="250" y1="189.5" x2="489" y2="189.5" stroke="#282A3B"/>
<mask id="mask0_1971_86488" style="mask-type:alpha" maskUnits="userSpaceOnUse" x="262" y="206" width="64" height="56">
<rect x="262.506" y="206" width="63.33" height="55.255" rx="8" fill="#F2F2F8"/>
</mask>
<g mask="url(#mask0_1971_86488)">
<rect x="262.506" y="206" width="63.33" height="55.255" rx="8" fill="#F2F2F8"/>
<rect x="277.746" y="213.755" width="48.7701" height="50.4081" rx="4" fill="#FCFCFF"/>
<path d="M287.29 234.51H286.182L289.386 225.783H290.477L293.682 234.51H292.574L289.966 227.164H289.898L287.29 234.51ZM287.699 231.101H292.165V232.039H287.699V231.101ZM296.831 234.664C296.416 234.664 296.04 234.586 295.702 234.429C295.364 234.27 295.095 234.042 294.896 233.743C294.697 233.442 294.598 233.078 294.598 232.652C294.598 232.277 294.672 231.973 294.82 231.74C294.967 231.505 295.165 231.32 295.412 231.186C295.659 231.053 295.932 230.953 296.23 230.888C296.531 230.82 296.834 230.766 297.138 230.726C297.536 230.675 297.858 230.637 298.105 230.611C298.355 230.583 298.537 230.536 298.651 230.47C298.767 230.405 298.825 230.292 298.825 230.13V230.095C298.825 229.675 298.71 229.348 298.48 229.115C298.253 228.882 297.908 228.766 297.445 228.766C296.964 228.766 296.588 228.871 296.315 229.081C296.043 229.292 295.851 229.516 295.74 229.755L294.786 229.414C294.956 229.016 295.183 228.706 295.467 228.485C295.754 228.26 296.067 228.104 296.405 228.016C296.746 227.925 297.081 227.88 297.411 227.88C297.621 227.88 297.862 227.905 298.135 227.956C298.411 228.005 298.676 228.105 298.932 228.259C299.19 228.412 299.405 228.644 299.575 228.953C299.746 229.263 299.831 229.678 299.831 230.198V234.51H298.825V233.624H298.774C298.706 233.766 298.592 233.918 298.433 234.08C298.274 234.242 298.063 234.38 297.798 234.493C297.534 234.607 297.212 234.664 296.831 234.664ZM296.984 233.76C297.382 233.76 297.717 233.682 297.99 233.526C298.266 233.37 298.473 233.168 298.612 232.921C298.754 232.674 298.825 232.414 298.825 232.141V231.22C298.783 231.272 298.689 231.318 298.544 231.361C298.402 231.401 298.237 231.436 298.05 231.468C297.865 231.496 297.685 231.522 297.509 231.544C297.335 231.564 297.195 231.581 297.087 231.595C296.825 231.63 296.581 231.685 296.354 231.762C296.129 231.836 295.947 231.948 295.808 232.098C295.672 232.246 295.604 232.448 295.604 232.703C295.604 233.053 295.733 233.317 295.991 233.496C296.253 233.672 296.584 233.76 296.984 233.76Z" fill="#373B4D"/>
</g>
<circle cx="294.17" cy="281.255" r="7.5" fill="white" stroke="#C4C6D7"/>
<mask id="mask1_1971_86488" style="mask-type:alpha" maskUnits="userSpaceOnUse" x="337" y="206" width="65" height="57">
<rect x="337.836" y="206" width="63.33" height="57" rx="8" fill="#373B4D"/>
</mask>
<g mask="url(#mask1_1971_86488)">
<rect x="337.836" y="206" width="65.3621" height="57" rx="8" fill="#373B4D"/>
<rect x="354.092" y="214" width="48.7701" height="52" rx="4" fill="#616B7C"/>
<path d="M363.635 235H362.528L365.732 226.273H366.823L370.028 235H368.92L366.312 227.653H366.243L363.635 235ZM364.045 231.591H368.51V232.528H364.045V231.591ZM373.177 235.153C372.762 235.153 372.385 235.075 372.047 234.919C371.709 234.76 371.441 234.531 371.242 234.233C371.043 233.932 370.944 233.568 370.944 233.142C370.944 232.767 371.018 232.463 371.165 232.23C371.313 231.994 371.51 231.81 371.758 231.676C372.005 231.543 372.278 231.443 372.576 231.378C372.877 231.31 373.18 231.256 373.483 231.216C373.881 231.165 374.204 231.126 374.451 231.101C374.701 231.072 374.883 231.026 374.996 230.96C375.113 230.895 375.171 230.781 375.171 230.619V230.585C375.171 230.165 375.056 229.838 374.826 229.605C374.599 229.372 374.253 229.256 373.79 229.256C373.31 229.256 372.934 229.361 372.661 229.571C372.388 229.781 372.197 230.006 372.086 230.244L371.131 229.903C371.302 229.506 371.529 229.196 371.813 228.974C372.1 228.75 372.412 228.594 372.751 228.506C373.091 228.415 373.427 228.369 373.756 228.369C373.966 228.369 374.208 228.395 374.481 228.446C374.756 228.494 375.022 228.595 375.278 228.749C375.536 228.902 375.751 229.134 375.921 229.443C376.091 229.753 376.177 230.168 376.177 230.688V235H375.171V234.114H375.12C375.052 234.256 374.938 234.408 374.779 234.57C374.62 234.732 374.408 234.869 374.144 234.983C373.88 235.097 373.557 235.153 373.177 235.153ZM373.33 234.25C373.728 234.25 374.063 234.172 374.336 234.016C374.611 233.859 374.819 233.658 374.958 233.411C375.1 233.163 375.171 232.903 375.171 232.631V231.71C375.128 231.761 375.035 231.808 374.89 231.851C374.748 231.891 374.583 231.926 374.395 231.957C374.211 231.986 374.03 232.011 373.854 232.034C373.681 232.054 373.54 232.071 373.432 232.085C373.171 232.119 372.927 232.175 372.699 232.251C372.475 232.325 372.293 232.437 372.154 232.588C372.018 232.736 371.949 232.937 371.949 233.193C371.949 233.543 372.079 233.807 372.337 233.986C372.599 234.162 372.93 234.25 373.33 234.25Z" fill="#FCFCFF"/>
</g>
<circle cx="369.5" cy="283" r="7.5" fill="white" stroke="#C4C6D7"/>
<rect x="413.164" y="206" width="63.33" height="57" rx="8" fill="#373B4D"/>
<mask id="mask2_1971_86488" style="mask-type:alpha" maskUnits="userSpaceOnUse" x="413" y="206" width="64" height="57">
<rect x="413.164" y="206" width="63.33" height="57" rx="8" fill="#373B4D"/>
</mask>
<g mask="url(#mask2_1971_86488)">
<rect x="413.164" y="206" width="65.3621" height="57" rx="8" fill="#373B4D"/>
<rect x="417.229" y="215" width="32.5134" height="52" rx="4" fill="#616B7C"/>
<path d="M426.772 236H425.664L428.869 227.273H429.96L433.164 236H432.056L429.448 228.653H429.38L426.772 236ZM427.181 232.591H431.647V233.528H427.181V232.591ZM436.313 236.153C435.899 236.153 435.522 236.075 435.184 235.919C434.846 235.76 434.578 235.531 434.379 235.233C434.18 234.932 434.08 234.568 434.08 234.142C434.08 233.767 434.154 233.463 434.302 233.23C434.45 232.994 434.647 232.81 434.894 232.676C435.142 232.543 435.414 232.443 435.713 232.378C436.014 232.31 436.316 232.256 436.62 232.216C437.018 232.165 437.34 232.126 437.588 232.101C437.838 232.072 438.019 232.026 438.133 231.96C438.249 231.895 438.308 231.781 438.308 231.619V231.585C438.308 231.165 438.193 230.838 437.963 230.605C437.735 230.372 437.39 230.256 436.927 230.256C436.447 230.256 436.07 230.361 435.798 230.571C435.525 230.781 435.333 231.006 435.222 231.244L434.268 230.903C434.438 230.506 434.666 230.196 434.95 229.974C435.237 229.75 435.549 229.594 435.887 229.506C436.228 229.415 436.563 229.369 436.893 229.369C437.103 229.369 437.345 229.395 437.617 229.446C437.893 229.494 438.159 229.595 438.414 229.749C438.673 229.902 438.887 230.134 439.058 230.443C439.228 230.753 439.313 231.168 439.313 231.688V236H438.308V235.114H438.257C438.188 235.256 438.075 235.408 437.916 235.57C437.757 235.732 437.545 235.869 437.281 235.983C437.017 236.097 436.694 236.153 436.313 236.153ZM436.467 235.25C436.865 235.25 437.2 235.172 437.472 235.016C437.748 234.859 437.955 234.658 438.095 234.411C438.237 234.163 438.308 233.903 438.308 233.631V232.71C438.265 232.761 438.171 232.808 438.026 232.851C437.884 232.891 437.72 232.926 437.532 232.957C437.347 232.986 437.167 233.011 436.991 233.034C436.818 233.054 436.677 233.071 436.569 233.085C436.308 233.119 436.063 233.175 435.836 233.251C435.612 233.325 435.43 233.437 435.291 233.588C435.154 233.736 435.086 233.937 435.086 234.193C435.086 234.543 435.215 234.807 435.474 234.986C435.735 235.162 436.066 235.25 436.467 235.25Z" fill="#FCFCFF"/>
<rect x="445.678" y="206" width="31.4974" height="57" fill="#F2F2F8"/>
<rect x="449.742" y="215" width="28.4492" height="52" rx="4" fill="#FCFCFF"/>
<path d="M459.284 236H458.176L461.381 227.273H462.471L465.676 236H464.568L461.96 228.653H461.892L459.284 236ZM459.693 232.591H464.159V233.528H459.693V232.591ZM468.825 236.153C468.41 236.153 468.034 236.075 467.696 235.919C467.358 235.76 467.089 235.531 466.89 235.233C466.692 234.932 466.592 234.568 466.592 234.142C466.592 233.767 466.666 233.463 466.814 233.23C466.961 232.994 467.159 232.81 467.406 232.676C467.653 232.543 467.926 232.443 468.224 232.378C468.525 232.31 468.828 232.256 469.132 232.216C469.53 232.165 469.852 232.126 470.099 232.101C470.349 232.072 470.531 232.026 470.645 231.96C470.761 231.895 470.819 231.781 470.819 231.619V231.585C470.819 231.165 470.704 230.838 470.474 230.605C470.247 230.372 469.902 230.256 469.439 230.256C468.959 230.256 468.582 230.361 468.309 230.571C468.037 230.781 467.845 231.006 467.734 231.244L466.78 230.903C466.95 230.506 467.177 230.196 467.461 229.974C467.748 229.75 468.061 229.594 468.399 229.506C468.74 229.415 469.075 229.369 469.405 229.369C469.615 229.369 469.856 229.395 470.129 229.446C470.405 229.494 470.67 229.595 470.926 229.749C471.184 229.902 471.399 230.134 471.569 230.443C471.74 230.753 471.825 231.168 471.825 231.688V236H470.819V235.114H470.768C470.7 235.256 470.586 235.408 470.427 235.57C470.268 235.732 470.057 235.869 469.792 235.983C469.528 236.097 469.206 236.153 468.825 236.153ZM468.979 235.25C469.376 235.25 469.711 235.172 469.984 235.016C470.26 234.859 470.467 234.658 470.606 234.411C470.748 234.163 470.819 233.903 470.819 233.631V232.71C470.777 232.761 470.683 232.808 470.538 232.851C470.396 232.891 470.231 232.926 470.044 232.957C469.859 232.986 469.679 233.011 469.503 233.034C469.329 233.054 469.189 233.071 469.081 233.085C468.819 233.119 468.575 233.175 468.348 233.251C468.123 233.325 467.942 233.437 467.802 233.588C467.666 233.736 467.598 233.937 467.598 234.193C467.598 234.543 467.727 234.807 467.986 234.986C468.247 235.162 468.578 235.25 468.979 235.25Z" fill="#4F5769"/>
</g>
<circle cx="444.828" cy="283" r="5.5" fill="white" stroke="#00A7C3" stroke-width="5"/>
</g>
<path d="M250 -89H490H250ZM491 299C491 303.971 486.971 308 482 308H258C253.029 308 249 303.971 249 299H251C251 302.866 254.134 306 258 306H482C485.866 306 489 302.866 489 299H491ZM258 308C253.029 308 249 303.971 249 299V-89H251V299C251 302.866 254.134 306 258 306V308ZM491 -89V299C491 303.971 486.971 308 482 308V306C485.866 306 489 302.866 489 299V-89H491Z" fill="#282A3B" mask="url(#path-18-inside-1_1971_86488)"/>
</g>
<rect x="-1237.5" y="-152.5" width="1727" height="63" stroke="#F2F2F8"/>
</g>
</g>
<rect x="0.5" y="0.5" width="489" height="393.5" rx="16.5" stroke="#282A3B"/>
<defs>
<filter id="filter0_d_1971_86488" x="-294.5" y="47.5" width="637.393" height="405" filterUnits="userSpaceOnUse" color-interpolation-filters="sRGB">
<feFlood flood-opacity="0" result="BackgroundImageFix"/>
<feColorMatrix in="SourceAlpha" type="matrix" values="0 0 0 0 0 0 0 0 0 0 0 0 0 0 0 0 0 0 127 0" result="hardAlpha"/>
<feOffset dy="16"/>
<feGaussianBlur stdDeviation="16"/>
<feColorMatrix type="matrix" values="0 0 0 0 0.215686 0 0 0 0 0.231373 0 0 0 0 0.301961 0 0 0 0.02 0"/>
<feBlend mode="normal" in2="BackgroundImageFix" result="effect1_dropShadow_1971_86488"/>
<feBlend mode="normal" in="SourceGraphic" in2="effect1_dropShadow_1971_86488" result="shape"/>
</filter>
<filter id="filter1_d_1971_86488" x="-294.5" y="47.5" width="637" height="405" filterUnits="userSpaceOnUse" color-interpolation-filters="sRGB">
<feFlood flood-opacity="0" result="BackgroundImageFix"/>
<feColorMatrix in="SourceAlpha" type="matrix" values="0 0 0 0 0 0 0 0 0 0 0 0 0 0 0 0 0 0 127 0" result="hardAlpha"/>
<feOffset dy="16"/>
<feGaussianBlur stdDeviation="16"/>
<feColorMatrix type="matrix" values="0 0 0 0 0.215686 0 0 0 0 0.231373 0 0 0 0 0.301961 0 0 0 0.02 0"/>
<feBlend mode="normal" in2="BackgroundImageFix" result="effect1_dropShadow_1971_86488"/>
<feBlend mode="normal" in="SourceGraphic" in2="effect1_dropShadow_1971_86488" result="shape"/>
</filter>
<filter id="filter2_d_1971_86488" x="-221.896" y="166.5" width="538.369" height="221.805" filterUnits="userSpaceOnUse" color-interpolation-filters="sRGB">
<feFlood flood-opacity="0" result="BackgroundImageFix"/>
<feColorMatrix in="SourceAlpha" type="matrix" values="0 0 0 0 0 0 0 0 0 0 0 0 0 0 0 0 0 0 127 0" result="hardAlpha"/>
<feOffset dy="15"/>
<feGaussianBlur stdDeviation="19"/>
<feComposite in2="hardAlpha" operator="out"/>
<feColorMatrix type="matrix" values="0 0 0 0 0.941176 0 0 0 0 0.180392 0 0 0 0 0.396078 0 0 0 1 0"/>
<feBlend mode="normal" in2="BackgroundImageFix" result="effect1_dropShadow_1971_86488"/>
<feBlend mode="normal" in="SourceGraphic" in2="effect1_dropShadow_1971_86488" result="shape"/>
</filter>
<filter id="filter3_d_1971_86488" x="218" y="-105" width="304" height="460" filterUnits="userSpaceOnUse" color-interpolation-filters="sRGB">
<feFlood flood-opacity="0" result="BackgroundImageFix"/>
<feColorMatrix in="SourceAlpha" type="matrix" values="0 0 0 0 0 0 0 0 0 0 0 0 0 0 0 0 0 0 127 0" result="hardAlpha"/>
<feOffset dy="16"/>
<feGaussianBlur stdDeviation="16"/>
<feComposite in2="hardAlpha" operator="out"/>
<feColorMatrix type="matrix" values="0 0 0 0 0.0784314 0 0 0 0 0.0784314 0 0 0 0 0.121569 0 0 0 1 0"/>
<feBlend mode="normal" in2="BackgroundImageFix" result="effect1_dropShadow_1971_86488"/>
<feBlend mode="normal" in="SourceGraphic" in2="effect1_dropShadow_1971_86488" result="shape"/>
</filter>
<filter id="filter4_d_1971_86488" x="218" y="-105" width="304" height="460" filterUnits="userSpaceOnUse" color-interpolation-filters="sRGB">
<feFlood flood-opacity="0" result="BackgroundImageFix"/>
<feColorMatrix in="SourceAlpha" type="matrix" values="0 0 0 0 0 0 0 0 0 0 0 0 0 0 0 0 0 0 127 0" result="hardAlpha"/>
<feOffset dy="16"/>
<feGaussianBlur stdDeviation="16"/>
<feColorMatrix type="matrix" values="0 0 0 0 0.215686 0 0 0 0 0.231373 0 0 0 0 0.301961 0 0 0 0.04 0"/>
<feBlend mode="normal" in2="BackgroundImageFix" result="effect1_dropShadow_1971_86488"/>
<feBlend mode="normal" in="SourceGraphic" in2="effect1_dropShadow_1971_86488" result="shape"/>
</filter>
<clipPath id="clip0_1971_86488">
<rect x="1" y="1" width="488" height="392.5" rx="16" fill="white"/>
</clipPath>
<clipPath id="clip1_1971_86488">
<rect width="1728" height="1719" fill="white" transform="translate(-1238 -153)"/>
</clipPath>
</defs>
</svg>
