<svg width="994" height="320" viewBox="0 0 994 320" fill="none" xmlns="http://www.w3.org/2000/svg">
<g clip-path="url(#clip0_1211_79277)">
<rect x="1" y="1" width="992" height="318" rx="16" fill="#FCFCFF"/>
<g clip-path="url(#clip1_1211_79277)">
<rect width="1725" height="1037" transform="translate(-328 -163)" fill="#14141F"/>
<rect x="-326.5" y="-162.5" width="1727" height="249" fill="#171723" stroke="#282A3B"/>
<g filter="url(#filter0_d_1211_79277)">
<rect x="933" y="-75" width="440" height="72" rx="4" fill="white"/>
<rect x="933.5" y="-74.5" width="439" height="71" rx="3.5" stroke="#F2F2F8"/>
</g>
<path d="M72.5708 65V54.8182H78.676V55.9119H73.8038V59.3523H78.2186V60.446H73.8038V65H72.5708ZM80.6286 65V57.3636H81.8018V65H80.6286ZM81.2251 56.0909C80.9964 56.0909 80.7992 56.013 80.6335 55.8572C80.4711 55.7015 80.3899 55.5142 80.3899 55.2955C80.3899 55.0767 80.4711 54.8894 80.6335 54.7337C80.7992 54.5779 80.9964 54.5 81.2251 54.5C81.4538 54.5 81.6494 54.5779 81.8118 54.7337C81.9775 54.8894 82.0604 55.0767 82.0604 55.2955C82.0604 55.5142 81.9775 55.7015 81.8118 55.8572C81.6494 56.013 81.4538 56.0909 81.2251 56.0909ZM85.1241 54.8182V65H83.9508V54.8182H85.1241ZM90.4748 65.1591C89.739 65.1591 89.1043 64.9967 88.5707 64.6719C88.0404 64.3438 87.631 63.8864 87.3427 63.2997C87.0576 62.7098 86.9151 62.0237 86.9151 61.2415C86.9151 60.4593 87.0576 59.7699 87.3427 59.1733C87.631 58.5734 88.0321 58.1061 88.5458 57.7713C89.0629 57.4332 89.6661 57.2642 90.3555 57.2642C90.7532 57.2642 91.146 57.3305 91.5337 57.4631C91.9215 57.5956 92.2745 57.8111 92.5927 58.1094C92.9109 58.4044 93.1644 58.7955 93.3533 59.2827C93.5423 59.7699 93.6367 60.3698 93.6367 61.0824V61.5795H87.7504V60.5653H92.4435C92.4435 60.1345 92.3574 59.75 92.185 59.4119C92.016 59.0739 91.774 58.8071 91.4592 58.6115C91.1476 58.416 90.7797 58.3182 90.3555 58.3182C89.8881 58.3182 89.4838 58.4342 89.1424 58.6662C88.8043 58.8949 88.5442 59.1932 88.3619 59.5611C88.1796 59.929 88.0884 60.3234 88.0884 60.7443V61.4205C88.0884 61.9972 88.1879 62.486 88.3867 62.8871C88.5889 63.2848 88.869 63.5881 89.2269 63.7969C89.5849 64.0024 90.0008 64.1051 90.4748 64.1051C90.783 64.1051 91.0614 64.062 91.31 63.9759C91.5619 63.8864 91.779 63.7538 91.9613 63.5781C92.1436 63.3991 92.2844 63.1771 92.3839 62.9119L93.5174 63.2301C93.3981 63.6146 93.1976 63.9527 92.9158 64.2443C92.6341 64.5327 92.2861 64.758 91.8718 64.9205C91.4575 65.0795 90.9918 65.1591 90.4748 65.1591ZM100.831 59.0739L99.7766 59.3722C99.7103 59.1965 99.6126 59.0258 99.4833 58.8601C99.3574 58.6911 99.185 58.5518 98.9663 58.4425C98.7475 58.3331 98.4674 58.2784 98.1261 58.2784C97.6587 58.2784 97.2693 58.3861 96.9577 58.6016C96.6495 58.8137 96.4954 59.0838 96.4954 59.4119C96.4954 59.7036 96.6014 59.9339 96.8136 60.103C97.0257 60.272 97.3571 60.4129 97.8079 60.5256L98.9414 60.804C99.6242 60.9697 100.133 61.2232 100.468 61.5646C100.802 61.9027 100.97 62.3385 100.97 62.8722C100.97 63.3097 100.844 63.7008 100.592 64.0455C100.343 64.3902 99.9954 64.6619 99.5479 64.8608C99.1005 65.0597 98.5801 65.1591 97.9869 65.1591C97.208 65.1591 96.5633 64.9901 96.0529 64.652C95.5425 64.3139 95.2193 63.8201 95.0835 63.1705L96.1971 62.892C96.3031 63.303 96.5037 63.6113 96.7987 63.8168C97.0969 64.0223 97.4864 64.125 97.967 64.125C98.5138 64.125 98.948 64.009 99.2695 63.777C99.5943 63.5417 99.7567 63.2599 99.7567 62.9318C99.7567 62.6667 99.6639 62.4446 99.4783 62.2656C99.2927 62.0833 99.0077 61.9474 98.6232 61.858L97.3505 61.5597C96.6512 61.3939 96.1374 61.1371 95.8093 60.7891C95.4845 60.4377 95.3221 59.9986 95.3221 59.4716C95.3221 59.0407 95.4431 58.6596 95.685 58.3281C95.9303 57.9967 96.2634 57.7365 96.6843 57.5476C97.1085 57.3587 97.5891 57.2642 98.1261 57.2642C98.8817 57.2642 99.475 57.4299 99.9059 57.7614C100.34 58.0928 100.648 58.5303 100.831 59.0739Z" fill="#C4C6D7"/>
<path d="M158.285 54.8182H159.518V61.5597C159.518 62.2557 159.354 62.8771 159.026 63.424C158.701 63.9676 158.242 64.3968 157.649 64.7116C157.055 65.0232 156.359 65.179 155.56 65.179C154.762 65.179 154.066 65.0232 153.472 64.7116C152.879 64.3968 152.418 63.9676 152.09 63.424C151.765 62.8771 151.603 62.2557 151.603 61.5597V54.8182H152.836V61.4602C152.836 61.9574 152.945 62.3999 153.164 62.7876C153.383 63.1721 153.694 63.4754 154.099 63.6974C154.506 63.9162 154.994 64.0256 155.56 64.0256C156.127 64.0256 156.614 63.9162 157.022 63.6974C157.43 63.4754 157.741 63.1721 157.957 62.7876C158.176 62.3999 158.285 61.9574 158.285 61.4602V54.8182ZM167.23 59.0739L166.176 59.3722C166.11 59.1965 166.012 59.0258 165.883 58.8601C165.757 58.6911 165.584 58.5518 165.366 58.4425C165.147 58.3331 164.867 58.2784 164.525 58.2784C164.058 58.2784 163.669 58.3861 163.357 58.6016C163.049 58.8137 162.895 59.0838 162.895 59.4119C162.895 59.7036 163.001 59.9339 163.213 60.103C163.425 60.272 163.757 60.4129 164.207 60.5256L165.341 60.804C166.024 60.9697 166.532 61.2232 166.867 61.5646C167.202 61.9027 167.369 62.3385 167.369 62.8722C167.369 63.3097 167.243 63.7008 166.991 64.0455C166.743 64.3902 166.395 64.6619 165.947 64.8608C165.5 65.0597 164.98 65.1591 164.386 65.1591C163.607 65.1591 162.963 64.9901 162.452 64.652C161.942 64.3139 161.619 63.8201 161.483 63.1705L162.597 62.892C162.703 63.303 162.903 63.6113 163.198 63.8168C163.496 64.0223 163.886 64.125 164.366 64.125C164.913 64.125 165.347 64.009 165.669 63.777C165.994 63.5417 166.156 63.2599 166.156 62.9318C166.156 62.6667 166.063 62.4446 165.878 62.2656C165.692 62.0833 165.407 61.9474 165.023 61.858L163.75 61.5597C163.051 61.3939 162.537 61.1371 162.209 60.7891C161.884 60.4377 161.722 59.9986 161.722 59.4716C161.722 59.0407 161.842 58.6596 162.084 58.3281C162.33 57.9967 162.663 57.7365 163.084 57.5476C163.508 57.3587 163.989 57.2642 164.525 57.2642C165.281 57.2642 165.874 57.4299 166.305 57.7614C166.739 58.0928 167.048 58.5303 167.23 59.0739ZM171.383 65.179C170.899 65.179 170.459 65.0878 170.065 64.9055C169.671 64.7199 169.357 64.4531 169.125 64.1051C168.893 63.7538 168.777 63.3295 168.777 62.8324C168.777 62.3949 168.864 62.0402 169.036 61.7685C169.208 61.4934 169.439 61.2779 169.727 61.1222C170.015 60.9664 170.334 60.8504 170.682 60.7741C171.033 60.6946 171.386 60.6316 171.741 60.5852C172.205 60.5256 172.581 60.4808 172.869 60.451C173.161 60.4179 173.373 60.3632 173.505 60.2869C173.641 60.2107 173.709 60.0781 173.709 59.8892V59.8494C173.709 59.3589 173.575 58.9777 173.307 58.706C173.041 58.4342 172.639 58.2983 172.098 58.2983C171.538 58.2983 171.099 58.4209 170.781 58.6662C170.463 58.9115 170.239 59.1733 170.11 59.4517L168.996 59.054C169.195 58.59 169.46 58.2287 169.792 57.9702C170.126 57.7083 170.491 57.526 170.885 57.4233C171.283 57.3172 171.674 57.2642 172.059 57.2642C172.304 57.2642 172.586 57.294 172.904 57.3537C173.225 57.41 173.535 57.5277 173.834 57.7067C174.135 57.8857 174.385 58.1558 174.584 58.517C174.783 58.8783 174.883 59.3622 174.883 59.9688V65H173.709V63.9659H173.65C173.57 64.1316 173.437 64.3089 173.252 64.4979C173.066 64.6868 172.819 64.8475 172.511 64.9801C172.203 65.1127 171.827 65.179 171.383 65.179ZM171.562 64.125C172.026 64.125 172.417 64.0339 172.735 63.8516C173.056 63.6693 173.298 63.4339 173.461 63.1456C173.626 62.8572 173.709 62.554 173.709 62.2358V61.1619C173.66 61.2216 173.55 61.2763 173.381 61.326C173.215 61.3724 173.023 61.4138 172.804 61.4503C172.589 61.4834 172.379 61.5133 172.173 61.5398C171.971 61.563 171.807 61.5829 171.681 61.5994C171.376 61.6392 171.091 61.7038 170.826 61.7933C170.564 61.8795 170.352 62.0104 170.189 62.1861C170.03 62.3584 169.951 62.5937 169.951 62.892C169.951 63.2997 170.102 63.608 170.403 63.8168C170.708 64.0223 171.094 64.125 171.562 64.125ZM180.106 68.0227C179.54 68.0227 179.052 67.9498 178.645 67.804C178.237 67.6615 177.897 67.4725 177.626 67.2372C177.357 67.0052 177.143 66.7566 176.984 66.4915L177.919 65.8352C178.025 65.9744 178.159 66.1335 178.322 66.3125C178.484 66.4948 178.706 66.6522 178.988 66.7848C179.273 66.9207 179.646 66.9886 180.106 66.9886C180.723 66.9886 181.232 66.8395 181.633 66.5412C182.034 66.2429 182.234 65.7756 182.234 65.1392V63.5881H182.135C182.049 63.7273 181.926 63.8996 181.767 64.1051C181.611 64.3073 181.386 64.4879 181.091 64.647C180.799 64.8028 180.405 64.8807 179.908 64.8807C179.291 64.8807 178.738 64.7348 178.247 64.4432C177.76 64.1515 177.374 63.7273 177.089 63.1705C176.807 62.6136 176.666 61.9375 176.666 61.142C176.666 60.3598 176.804 59.6787 177.079 59.0987C177.354 58.5154 177.737 58.0646 178.227 57.7464C178.718 57.425 179.284 57.2642 179.927 57.2642C180.425 57.2642 180.819 57.3471 181.111 57.5128C181.406 57.6752 181.631 57.8608 181.787 58.0696C181.946 58.2751 182.069 58.4441 182.155 58.5767H182.274V57.3636H183.408V65.2188C183.408 65.875 183.258 66.4086 182.96 66.8196C182.665 67.2339 182.267 67.5372 181.767 67.7294C181.27 67.925 180.716 68.0227 180.106 68.0227ZM180.067 63.8267C180.537 63.8267 180.935 63.719 181.26 63.5036C181.585 63.2881 181.832 62.9782 182.001 62.5739C182.17 62.1695 182.254 61.6856 182.254 61.1222C182.254 60.572 182.171 60.0864 182.006 59.6655C181.84 59.2446 181.595 58.9148 181.27 58.6761C180.945 58.4375 180.544 58.3182 180.067 58.3182C179.57 58.3182 179.155 58.4441 178.824 58.696C178.496 58.9479 178.249 59.286 178.083 59.7102C177.921 60.1345 177.839 60.6051 177.839 61.1222C177.839 61.6525 177.922 62.1214 178.088 62.5291C178.257 62.9335 178.506 63.2517 178.834 63.4837C179.165 63.7124 179.576 63.8267 180.067 63.8267ZM188.757 65.1591C188.021 65.1591 187.387 64.9967 186.853 64.6719C186.323 64.3438 185.913 63.8864 185.625 63.2997C185.34 62.7098 185.197 62.0237 185.197 61.2415C185.197 60.4593 185.34 59.7699 185.625 59.1733C185.913 58.5734 186.314 58.1061 186.828 57.7713C187.345 57.4332 187.948 57.2642 188.638 57.2642C189.035 57.2642 189.428 57.3305 189.816 57.4631C190.204 57.5956 190.557 57.8111 190.875 58.1094C191.193 58.4044 191.447 58.7955 191.636 59.2827C191.824 59.7699 191.919 60.3698 191.919 61.0824V61.5795H186.033V60.5653H190.726C190.726 60.1345 190.64 59.75 190.467 59.4119C190.298 59.0739 190.056 58.8071 189.741 58.6115C189.43 58.416 189.062 58.3182 188.638 58.3182C188.17 58.3182 187.766 58.4342 187.425 58.6662C187.087 58.8949 186.826 59.1932 186.644 59.5611C186.462 59.929 186.371 60.3234 186.371 60.7443V61.4205C186.371 61.9972 186.47 62.486 186.669 62.8871C186.871 63.2848 187.151 63.5881 187.509 63.7969C187.867 64.0024 188.283 64.1051 188.757 64.1051C189.065 64.1051 189.344 64.062 189.592 63.9759C189.844 63.8864 190.061 63.7538 190.244 63.5781C190.426 63.3991 190.567 63.1771 190.666 62.9119L191.8 63.2301C191.68 63.6146 191.48 63.9527 191.198 64.2443C190.916 64.5327 190.568 64.758 190.154 64.9205C189.74 65.0795 189.274 65.1591 188.757 65.1591Z" fill="#C4C6D7"/>
<path d="M247.998 57.3636C247.939 56.8598 247.697 56.4688 247.273 56.1903C246.848 55.9119 246.328 55.7727 245.711 55.7727C245.261 55.7727 244.866 55.8456 244.528 55.9915C244.193 56.1373 243.932 56.3378 243.743 56.593C243.557 56.8482 243.464 57.1383 243.464 57.4631C243.464 57.7348 243.529 57.9685 243.658 58.1641C243.791 58.3563 243.96 58.517 244.165 58.6463C244.371 58.7723 244.586 58.8767 244.812 58.9595C245.037 59.0391 245.244 59.1037 245.433 59.1534L246.467 59.4318C246.732 59.5014 247.027 59.5975 247.352 59.7202C247.68 59.8428 247.993 60.0102 248.292 60.2223C248.593 60.4311 248.842 60.6996 249.037 61.0277C249.233 61.3558 249.331 61.7585 249.331 62.2358C249.331 62.786 249.187 63.2831 248.898 63.7273C248.613 64.1714 248.196 64.5244 247.645 64.7862C247.099 65.0481 246.434 65.179 245.652 65.179C244.923 65.179 244.291 65.0613 243.758 64.826C243.227 64.5907 242.81 64.2625 242.505 63.8416C242.203 63.4207 242.032 62.9318 241.993 62.375H243.265C243.299 62.7595 243.428 63.0777 243.653 63.3295C243.882 63.5781 244.17 63.7637 244.518 63.8864C244.87 64.0057 245.247 64.0653 245.652 64.0653C246.122 64.0653 246.545 63.9891 246.92 63.8366C247.294 63.6809 247.591 63.4654 247.809 63.1903C248.028 62.9119 248.138 62.5871 248.138 62.2159C248.138 61.8778 248.043 61.6027 247.854 61.3906C247.665 61.1785 247.417 61.0062 247.108 60.8736C246.8 60.741 246.467 60.625 246.109 60.5256L244.856 60.1676C244.061 59.9389 243.431 59.6125 242.967 59.1882C242.503 58.764 242.271 58.2088 242.271 57.5227C242.271 56.9527 242.425 56.4555 242.733 56.0312C243.045 55.6037 243.463 55.2723 243.986 55.0369C244.513 54.7983 245.102 54.679 245.751 54.679C246.407 54.679 246.991 54.7966 247.501 55.032C248.012 55.264 248.416 55.5821 248.714 55.9865C249.016 56.3909 249.175 56.8499 249.192 57.3636H247.998ZM254.401 65.1591C253.665 65.1591 253.03 64.9967 252.496 64.6719C251.966 64.3438 251.557 63.8864 251.268 63.2997C250.983 62.7098 250.841 62.0237 250.841 61.2415C250.841 60.4593 250.983 59.7699 251.268 59.1733C251.557 58.5734 251.958 58.1061 252.472 57.7713C252.989 57.4332 253.592 57.2642 254.281 57.2642C254.679 57.2642 255.072 57.3305 255.46 57.4631C255.847 57.5956 256.2 57.8111 256.518 58.1094C256.837 58.4044 257.09 58.7955 257.279 59.2827C257.468 59.7699 257.562 60.3698 257.562 61.0824V61.5795H251.676V60.5653H256.369C256.369 60.1345 256.283 59.75 256.111 59.4119C255.942 59.0739 255.7 58.8071 255.385 58.6115C255.073 58.416 254.705 58.3182 254.281 58.3182C253.814 58.3182 253.41 58.4342 253.068 58.6662C252.73 58.8949 252.47 59.1932 252.288 59.5611C252.105 59.929 252.014 60.3234 252.014 60.7443V61.4205C252.014 61.9972 252.114 62.486 252.312 62.8871C252.515 63.2848 252.795 63.5881 253.153 63.7969C253.511 64.0024 253.927 64.1051 254.401 64.1051C254.709 64.1051 254.987 64.062 255.236 63.9759C255.488 63.8864 255.705 63.7538 255.887 63.5781C256.069 63.3991 256.21 63.1771 256.31 62.9119L257.443 63.2301C257.324 63.6146 257.123 63.9527 256.842 64.2443C256.56 64.5327 256.212 64.758 255.798 64.9205C255.383 65.0795 254.918 65.1591 254.401 65.1591ZM262.668 57.3636V58.358H258.711V57.3636H262.668ZM259.864 55.5341H261.038V62.8125C261.038 63.1439 261.086 63.3925 261.182 63.5582C261.281 63.7206 261.407 63.83 261.56 63.8864C261.715 63.9394 261.879 63.9659 262.052 63.9659C262.181 63.9659 262.287 63.9593 262.37 63.946C262.453 63.9295 262.519 63.9162 262.569 63.9062L262.808 64.9602C262.728 64.9901 262.617 65.0199 262.474 65.0497C262.332 65.0829 262.151 65.0994 261.933 65.0994C261.601 65.0994 261.276 65.0282 260.958 64.8857C260.643 64.7431 260.381 64.526 260.173 64.2344C259.967 63.9427 259.864 63.5748 259.864 63.1307V55.5341ZM267.754 57.3636V58.358H263.797V57.3636H267.754ZM264.95 55.5341H266.124V62.8125C266.124 63.1439 266.172 63.3925 266.268 63.5582C266.367 63.7206 266.493 63.83 266.646 63.8864C266.801 63.9394 266.965 63.9659 267.138 63.9659C267.267 63.9659 267.373 63.9593 267.456 63.946C267.539 63.9295 267.605 63.9162 267.655 63.9062L267.893 64.9602C267.814 64.9901 267.703 65.0199 267.56 65.0497C267.418 65.0829 267.237 65.0994 267.018 65.0994C266.687 65.0994 266.362 65.0282 266.044 64.8857C265.729 64.7431 265.467 64.526 265.259 64.2344C265.053 63.9427 264.95 63.5748 264.95 63.1307V55.5341ZM269.519 65V57.3636H270.692V65H269.519ZM270.116 56.0909C269.887 56.0909 269.69 56.013 269.524 55.8572C269.362 55.7015 269.281 55.5142 269.281 55.2955C269.281 55.0767 269.362 54.8894 269.524 54.7337C269.69 54.5779 269.887 54.5 270.116 54.5C270.344 54.5 270.54 54.5779 270.702 54.7337C270.868 54.8894 270.951 55.0767 270.951 55.2955C270.951 55.5142 270.868 55.7015 270.702 55.8572C270.54 56.013 270.344 56.0909 270.116 56.0909ZM274.015 60.4062V65H272.841V57.3636H273.975V58.5568H274.074C274.253 58.169 274.525 57.8575 274.89 57.6222C275.254 57.3835 275.725 57.2642 276.302 57.2642C276.819 57.2642 277.271 57.3703 277.659 57.5824C278.047 57.7912 278.348 58.1094 278.564 58.5369C278.779 58.9612 278.887 59.4981 278.887 60.1477V65H277.714V60.2273C277.714 59.6274 277.558 59.16 277.246 58.8253C276.935 58.4872 276.507 58.3182 275.964 58.3182C275.589 58.3182 275.254 58.3994 274.959 58.5618C274.668 58.7242 274.437 58.9612 274.268 59.2727C274.099 59.5843 274.015 59.9621 274.015 60.4062ZM284.113 68.0227C283.547 68.0227 283.059 67.9498 282.652 67.804C282.244 67.6615 281.904 67.4725 281.632 67.2372C281.364 67.0052 281.15 66.7566 280.991 66.4915L281.926 65.8352C282.032 65.9744 282.166 66.1335 282.328 66.3125C282.491 66.4948 282.713 66.6522 282.995 66.7848C283.28 66.9207 283.653 66.9886 284.113 66.9886C284.73 66.9886 285.239 66.8395 285.64 66.5412C286.041 66.2429 286.241 65.7756 286.241 65.1392V63.5881H286.142C286.056 63.7273 285.933 63.8996 285.774 64.1051C285.618 64.3073 285.393 64.4879 285.098 64.647C284.806 64.8028 284.412 64.8807 283.914 64.8807C283.298 64.8807 282.744 64.7348 282.254 64.4432C281.767 64.1515 281.381 63.7273 281.096 63.1705C280.814 62.6136 280.673 61.9375 280.673 61.142C280.673 60.3598 280.81 59.6787 281.086 59.0987C281.361 58.5154 281.743 58.0646 282.234 57.7464C282.725 57.425 283.291 57.2642 283.934 57.2642C284.431 57.2642 284.826 57.3471 285.118 57.5128C285.413 57.6752 285.638 57.8608 285.794 58.0696C285.953 58.2751 286.075 58.4441 286.162 58.5767H286.281V57.3636H287.414V65.2188C287.414 65.875 287.265 66.4086 286.967 66.8196C286.672 67.2339 286.274 67.5372 285.774 67.7294C285.277 67.925 284.723 68.0227 284.113 68.0227ZM284.074 63.8267C284.544 63.8267 284.942 63.719 285.267 63.5036C285.592 63.2881 285.838 62.9782 286.007 62.5739C286.176 62.1695 286.261 61.6856 286.261 61.1222C286.261 60.572 286.178 60.0864 286.012 59.6655C285.847 59.2446 285.601 58.9148 285.277 58.6761C284.952 58.4375 284.551 58.3182 284.074 58.3182C283.576 58.3182 283.162 58.4441 282.831 58.696C282.502 58.9479 282.256 59.286 282.09 59.7102C281.927 60.1345 281.846 60.6051 281.846 61.1222C281.846 61.6525 281.929 62.1214 282.095 62.5291C282.264 62.9335 282.512 63.2517 282.841 63.4837C283.172 63.7124 283.583 63.8267 284.074 63.8267ZM294.971 59.0739L293.917 59.3722C293.851 59.1965 293.753 59.0258 293.624 58.8601C293.498 58.6911 293.326 58.5518 293.107 58.4425C292.888 58.3331 292.608 58.2784 292.267 58.2784C291.799 58.2784 291.41 58.3861 291.098 58.6016C290.79 58.8137 290.636 59.0838 290.636 59.4119C290.636 59.7036 290.742 59.9339 290.954 60.103C291.166 60.272 291.498 60.4129 291.949 60.5256L293.082 60.804C293.765 60.9697 294.274 61.2232 294.608 61.5646C294.943 61.9027 295.11 62.3385 295.11 62.8722C295.11 63.3097 294.984 63.7008 294.733 64.0455C294.484 64.3902 294.136 64.6619 293.689 64.8608C293.241 65.0597 292.721 65.1591 292.127 65.1591C291.349 65.1591 290.704 64.9901 290.194 64.652C289.683 64.3139 289.36 63.8201 289.224 63.1705L290.338 62.892C290.444 63.303 290.644 63.6113 290.939 63.8168C291.238 64.0223 291.627 64.125 292.108 64.125C292.654 64.125 293.089 64.009 293.41 63.777C293.735 63.5417 293.897 63.2599 293.897 62.9318C293.897 62.6667 293.805 62.4446 293.619 62.2656C293.433 62.0833 293.148 61.9474 292.764 61.858L291.491 61.5597C290.792 61.3939 290.278 61.1371 289.95 60.7891C289.625 60.4377 289.463 59.9986 289.463 59.4716C289.463 59.0407 289.584 58.6596 289.826 58.3281C290.071 57.9967 290.404 57.7365 290.825 57.5476C291.249 57.3587 291.73 57.2642 292.267 57.2642C293.022 57.2642 293.616 57.4299 294.047 57.7614C294.481 58.0928 294.789 58.5303 294.971 59.0739Z" fill="#DA1A5B"/>
<rect x="225" y="85" width="87" height="2" fill="#DA1A5B"/>
<g filter="url(#filter1_d_1211_79277)">
<rect x="55" y="133" width="1161" height="259" rx="16" fill="#1B1B28"/>
<path d="M101.526 172.49V185H99.474V176.432L95.658 185H94.236L90.402 176.432V185H88.35V172.49H90.564L94.956 182.3L99.33 172.49H101.526ZM113.313 179.798C113.313 180.17 113.289 180.506 113.241 180.806H105.663C105.723 181.598 106.017 182.234 106.545 182.714C107.073 183.194 107.721 183.434 108.489 183.434C109.593 183.434 110.373 182.972 110.829 182.048H113.043C112.743 182.96 112.197 183.71 111.405 184.298C110.625 184.874 109.653 185.162 108.489 185.162C107.541 185.162 106.689 184.952 105.933 184.532C105.189 184.1 104.601 183.5 104.169 182.732C103.749 181.952 103.539 181.052 103.539 180.032C103.539 179.012 103.743 178.118 104.151 177.35C104.571 176.57 105.153 175.97 105.897 175.55C106.653 175.13 107.517 174.92 108.489 174.92C109.425 174.92 110.259 175.124 110.991 175.532C111.723 175.94 112.293 176.516 112.701 177.26C113.109 177.992 113.313 178.838 113.313 179.798ZM111.171 179.15C111.159 178.394 110.889 177.788 110.361 177.332C109.833 176.876 109.179 176.648 108.399 176.648C107.691 176.648 107.085 176.876 106.581 177.332C106.077 177.776 105.777 178.382 105.681 179.15H111.171ZM114.648 179.996C114.648 179 114.852 178.118 115.26 177.35C115.68 176.582 116.244 175.988 116.952 175.568C117.672 175.136 118.47 174.92 119.346 174.92C119.994 174.92 120.63 175.064 121.254 175.352C121.89 175.628 122.394 176 122.766 176.468V171.68H124.836V185H122.766V183.506C122.43 183.986 121.962 184.382 121.362 184.694C120.774 185.006 120.096 185.162 119.328 185.162C118.464 185.162 117.672 184.946 116.952 184.514C116.244 184.07 115.68 183.458 115.26 182.678C114.852 181.886 114.648 180.992 114.648 179.996ZM122.766 180.032C122.766 179.348 122.622 178.754 122.334 178.25C122.058 177.746 121.692 177.362 121.236 177.098C120.78 176.834 120.288 176.702 119.76 176.702C119.232 176.702 118.74 176.834 118.284 177.098C117.828 177.35 117.456 177.728 117.168 178.232C116.892 178.724 116.754 179.312 116.754 179.996C116.754 180.68 116.892 181.28 117.168 181.796C117.456 182.312 117.828 182.708 118.284 182.984C118.752 183.248 119.244 183.38 119.76 183.38C120.288 183.38 120.78 183.248 121.236 182.984C121.692 182.72 122.058 182.336 122.334 181.832C122.622 181.316 122.766 180.716 122.766 180.032ZM128.576 173.768C128.204 173.768 127.892 173.642 127.64 173.39C127.388 173.138 127.262 172.826 127.262 172.454C127.262 172.082 127.388 171.77 127.64 171.518C127.892 171.266 128.204 171.14 128.576 171.14C128.936 171.14 129.242 171.266 129.494 171.518C129.746 171.77 129.872 172.082 129.872 172.454C129.872 172.826 129.746 173.138 129.494 173.39C129.242 173.642 128.936 173.768 128.576 173.768ZM129.584 175.082V185H127.532V175.082H129.584ZM131.594 179.996C131.594 179 131.798 178.118 132.206 177.35C132.626 176.582 133.19 175.988 133.898 175.568C134.618 175.136 135.41 174.92 136.274 174.92C137.054 174.92 137.732 175.076 138.308 175.388C138.896 175.688 139.364 176.066 139.712 176.522V175.082H141.782V185H139.712V183.524C139.364 183.992 138.89 184.382 138.29 184.694C137.69 185.006 137.006 185.162 136.238 185.162C135.386 185.162 134.606 184.946 133.898 184.514C133.19 184.07 132.626 183.458 132.206 182.678C131.798 181.886 131.594 180.992 131.594 179.996ZM139.712 180.032C139.712 179.348 139.568 178.754 139.28 178.25C139.004 177.746 138.638 177.362 138.182 177.098C137.726 176.834 137.234 176.702 136.706 176.702C136.178 176.702 135.686 176.834 135.23 177.098C134.774 177.35 134.402 177.728 134.114 178.232C133.838 178.724 133.7 179.312 133.7 179.996C133.7 180.68 133.838 181.28 134.114 181.796C134.402 182.312 134.774 182.708 135.23 182.984C135.698 183.248 136.19 183.38 136.706 183.38C137.234 183.38 137.726 183.248 138.182 182.984C138.638 182.72 139.004 182.336 139.28 181.832C139.568 181.316 139.712 180.716 139.712 180.032Z" fill="#FCFCFF"/>
<rect x="562" y="166" width="36" height="20" rx="10" fill="#00A7C3"/>
<g filter="url(#filter2_d_1211_79277)">
<circle cx="588" cy="176" r="8" fill="white"/>
</g>
<path d="M607.004 181V170.818H613.626V172.364H608.849V175.129H613.283V176.675H608.849V179.454H613.666V181H607.004ZM617.228 176.526V181H615.429V173.364H617.149V174.661H617.238C617.414 174.234 617.694 173.894 618.078 173.642C618.466 173.39 618.945 173.264 619.515 173.264C620.042 173.264 620.501 173.377 620.892 173.602C621.287 173.828 621.592 174.154 621.807 174.582C622.026 175.009 622.134 175.528 622.13 176.138V181H620.331V176.416C620.331 175.906 620.198 175.506 619.933 175.218C619.671 174.93 619.308 174.786 618.844 174.786C618.529 174.786 618.249 174.855 618.004 174.994C617.762 175.13 617.571 175.327 617.432 175.586C617.296 175.844 617.228 176.158 617.228 176.526ZM626.157 181.154C625.673 181.154 625.238 181.068 624.85 180.896C624.465 180.72 624.16 180.461 623.935 180.12C623.713 179.779 623.602 179.358 623.602 178.857C623.602 178.426 623.681 178.07 623.841 177.788C624 177.507 624.217 177.281 624.492 177.112C624.767 176.943 625.077 176.816 625.422 176.729C625.77 176.64 626.129 176.575 626.5 176.536C626.948 176.489 627.311 176.448 627.589 176.411C627.868 176.371 628.07 176.312 628.196 176.232C628.325 176.149 628.39 176.022 628.39 175.849V175.82C628.39 175.445 628.279 175.155 628.056 174.95C627.834 174.744 627.515 174.641 627.097 174.641C626.656 174.641 626.306 174.737 626.048 174.93C625.793 175.122 625.62 175.349 625.531 175.611L623.85 175.372C623.983 174.908 624.202 174.52 624.507 174.209C624.812 173.894 625.185 173.659 625.625 173.503C626.066 173.344 626.553 173.264 627.087 173.264C627.455 173.264 627.821 173.307 628.186 173.393C628.55 173.48 628.883 173.622 629.185 173.821C629.487 174.017 629.729 174.283 629.911 174.621C630.096 174.96 630.189 175.382 630.189 175.889V181H628.459V179.951H628.4C628.29 180.163 628.136 180.362 627.937 180.548C627.742 180.73 627.495 180.877 627.196 180.99C626.901 181.099 626.555 181.154 626.157 181.154ZM626.625 179.832C626.986 179.832 627.299 179.76 627.564 179.618C627.829 179.472 628.033 179.28 628.176 179.041C628.322 178.803 628.395 178.542 628.395 178.261V177.361C628.338 177.407 628.242 177.45 628.106 177.49C627.974 177.53 627.824 177.565 627.659 177.594C627.493 177.624 627.329 177.651 627.167 177.674C627.004 177.697 626.863 177.717 626.744 177.734C626.475 177.77 626.235 177.83 626.023 177.913C625.811 177.996 625.644 178.112 625.521 178.261C625.398 178.406 625.337 178.595 625.337 178.827C625.337 179.159 625.458 179.409 625.7 179.578C625.942 179.747 626.25 179.832 626.625 179.832ZM632.078 181V170.818H633.878V174.626H633.953C634.046 174.441 634.176 174.244 634.346 174.035C634.515 173.823 634.743 173.642 635.032 173.493C635.32 173.34 635.688 173.264 636.135 173.264C636.725 173.264 637.257 173.415 637.731 173.717C638.208 174.015 638.586 174.457 638.865 175.044C639.146 175.627 639.287 176.343 639.287 177.192C639.287 178.03 639.15 178.743 638.875 179.33C638.6 179.916 638.225 180.364 637.751 180.672C637.277 180.98 636.74 181.134 636.14 181.134C635.703 181.134 635.34 181.061 635.051 180.915C634.763 180.77 634.531 180.594 634.355 180.388C634.183 180.18 634.049 179.982 633.953 179.797H633.848V181H632.078ZM633.843 177.182C633.843 177.676 633.913 178.108 634.052 178.479C634.195 178.851 634.399 179.141 634.664 179.349C634.932 179.555 635.257 179.658 635.638 179.658C636.036 179.658 636.369 179.552 636.637 179.339C636.906 179.124 637.108 178.831 637.244 178.46C637.383 178.085 637.453 177.659 637.453 177.182C637.453 176.708 637.385 176.287 637.249 175.919C637.113 175.551 636.911 175.263 636.642 175.054C636.374 174.845 636.039 174.741 635.638 174.741C635.254 174.741 634.927 174.842 634.659 175.044C634.39 175.246 634.186 175.53 634.047 175.894C633.911 176.259 633.843 176.688 633.843 177.182ZM642.617 170.818V181H640.817V170.818H642.617ZM647.848 181.149C647.083 181.149 646.422 180.99 645.865 180.672C645.311 180.35 644.885 179.896 644.587 179.31C644.289 178.72 644.14 178.025 644.14 177.227C644.14 176.441 644.289 175.752 644.587 175.158C644.889 174.562 645.31 174.098 645.85 173.766C646.39 173.432 647.025 173.264 647.754 173.264C648.225 173.264 648.669 173.34 649.086 173.493C649.507 173.642 649.878 173.874 650.2 174.189C650.525 174.504 650.78 174.905 650.966 175.392C651.151 175.876 651.244 176.453 651.244 177.122V177.674H644.985V176.461H649.519C649.516 176.116 649.441 175.81 649.295 175.541C649.149 175.269 648.945 175.056 648.684 174.9C648.425 174.744 648.123 174.666 647.779 174.666C647.411 174.666 647.088 174.756 646.809 174.935C646.531 175.11 646.314 175.342 646.158 175.631C646.006 175.916 645.928 176.229 645.924 176.57V177.629C645.924 178.073 646.006 178.455 646.168 178.773C646.33 179.088 646.557 179.33 646.849 179.499C647.141 179.664 647.482 179.747 647.873 179.747C648.135 179.747 648.372 179.711 648.584 179.638C648.796 179.562 648.98 179.451 649.136 179.305C649.292 179.159 649.409 178.978 649.489 178.763L651.169 178.952C651.063 179.396 650.861 179.784 650.563 180.115C650.268 180.443 649.89 180.698 649.429 180.881C648.969 181.06 648.442 181.149 647.848 181.149ZM655.6 181.134C655 181.134 654.463 180.98 653.99 180.672C653.516 180.364 653.141 179.916 652.866 179.33C652.591 178.743 652.453 178.03 652.453 177.192C652.453 176.343 652.593 175.627 652.871 175.044C653.153 174.457 653.532 174.015 654.009 173.717C654.487 173.415 655.019 173.264 655.605 173.264C656.053 173.264 656.421 173.34 656.709 173.493C656.997 173.642 657.226 173.823 657.395 174.035C657.564 174.244 657.695 174.441 657.788 174.626H657.862V170.818H659.667V181H657.897V179.797H657.788C657.695 179.982 657.561 180.18 657.385 180.388C657.209 180.594 656.977 180.77 656.689 180.915C656.401 181.061 656.038 181.134 655.6 181.134ZM656.102 179.658C656.484 179.658 656.808 179.555 657.077 179.349C657.345 179.141 657.549 178.851 657.688 178.479C657.828 178.108 657.897 177.676 657.897 177.182C657.897 176.688 657.828 176.259 657.688 175.894C657.552 175.53 657.35 175.246 657.082 175.044C656.817 174.842 656.49 174.741 656.102 174.741C655.701 174.741 655.367 174.845 655.098 175.054C654.83 175.263 654.628 175.551 654.492 175.919C654.356 176.287 654.288 176.708 654.288 177.182C654.288 177.659 654.356 178.085 654.492 178.46C654.631 178.831 654.835 179.124 655.103 179.339C655.375 179.552 655.708 179.658 656.102 179.658Z" fill="#F2F2F8"/>
<path d="M571.426 219H570.193C570.12 218.645 569.993 218.334 569.81 218.065C569.631 217.797 569.413 217.571 569.154 217.389C568.899 217.204 568.616 217.064 568.304 216.972C567.992 216.879 567.668 216.832 567.33 216.832C566.713 216.832 566.155 216.988 565.654 217.3C565.157 217.611 564.761 218.07 564.466 218.677C564.174 219.283 564.028 220.027 564.028 220.909C564.028 221.791 564.174 222.535 564.466 223.141C564.761 223.748 565.157 224.207 565.654 224.518C566.155 224.83 566.713 224.986 567.33 224.986C567.668 224.986 567.992 224.939 568.304 224.847C568.616 224.754 568.899 224.616 569.154 224.434C569.413 224.248 569.631 224.021 569.81 223.753C569.993 223.481 570.12 223.17 570.193 222.818H571.426C571.333 223.339 571.164 223.804 570.919 224.215C570.674 224.626 570.369 224.976 570.004 225.264C569.64 225.549 569.23 225.766 568.776 225.915C568.326 226.065 567.843 226.139 567.33 226.139C566.461 226.139 565.689 225.927 565.013 225.503C564.337 225.079 563.805 224.475 563.417 223.693C563.029 222.911 562.835 221.983 562.835 220.909C562.835 219.835 563.029 218.907 563.417 218.125C563.805 217.343 564.337 216.74 565.013 216.315C565.689 215.891 566.461 215.679 567.33 215.679C567.843 215.679 568.326 215.754 568.776 215.903C569.23 216.052 569.64 216.271 570.004 216.559C570.369 216.844 570.674 217.192 570.919 217.603C571.164 218.011 571.333 218.476 571.426 219ZM573.259 226V218.364H574.393V219.517H574.472C574.612 219.139 574.864 218.833 575.228 218.597C575.593 218.362 576.004 218.244 576.461 218.244C576.547 218.244 576.655 218.246 576.784 218.249C576.914 218.253 577.011 218.258 577.078 218.264V219.457C577.038 219.447 576.947 219.433 576.804 219.413C576.665 219.389 576.517 219.378 576.362 219.378C575.99 219.378 575.659 219.456 575.367 219.612C575.079 219.764 574.85 219.976 574.681 220.248C574.516 220.516 574.433 220.823 574.433 221.168V226H573.259ZM581.438 226.159C580.702 226.159 580.067 225.997 579.534 225.672C579.003 225.344 578.594 224.886 578.306 224.3C578.021 223.71 577.878 223.024 577.878 222.241C577.878 221.459 578.021 220.77 578.306 220.173C578.594 219.573 578.995 219.106 579.509 218.771C580.026 218.433 580.629 218.264 581.318 218.264C581.716 218.264 582.109 218.33 582.497 218.463C582.884 218.596 583.237 218.811 583.556 219.109C583.874 219.404 584.127 219.795 584.316 220.283C584.505 220.77 584.6 221.37 584.6 222.082V222.58H578.713V221.565H583.406C583.406 221.134 583.32 220.75 583.148 220.412C582.979 220.074 582.737 219.807 582.422 219.612C582.11 219.416 581.743 219.318 581.318 219.318C580.851 219.318 580.447 219.434 580.105 219.666C579.767 219.895 579.507 220.193 579.325 220.561C579.142 220.929 579.051 221.323 579.051 221.744V222.42C579.051 222.997 579.151 223.486 579.35 223.887C579.552 224.285 579.832 224.588 580.19 224.797C580.548 225.002 580.964 225.105 581.438 225.105C581.746 225.105 582.024 225.062 582.273 224.976C582.525 224.886 582.742 224.754 582.924 224.578C583.106 224.399 583.247 224.177 583.347 223.912L584.48 224.23C584.361 224.615 584.16 224.953 583.879 225.244C583.597 225.533 583.249 225.758 582.835 225.92C582.42 226.08 581.955 226.159 581.438 226.159ZM588.632 226.179C588.148 226.179 587.709 226.088 587.314 225.906C586.92 225.72 586.606 225.453 586.374 225.105C586.142 224.754 586.026 224.33 586.026 223.832C586.026 223.395 586.113 223.04 586.285 222.768C586.457 222.493 586.688 222.278 586.976 222.122C587.264 221.966 587.583 221.85 587.931 221.774C588.282 221.695 588.635 221.632 588.99 221.585C589.454 221.526 589.83 221.481 590.118 221.451C590.41 221.418 590.622 221.363 590.754 221.287C590.89 221.211 590.958 221.078 590.958 220.889V220.849C590.958 220.359 590.824 219.978 590.556 219.706C590.29 219.434 589.888 219.298 589.347 219.298C588.787 219.298 588.348 219.421 588.03 219.666C587.712 219.911 587.488 220.173 587.359 220.452L586.245 220.054C586.444 219.59 586.709 219.229 587.041 218.97C587.375 218.708 587.74 218.526 588.134 218.423C588.532 218.317 588.923 218.264 589.308 218.264C589.553 218.264 589.835 218.294 590.153 218.354C590.474 218.41 590.784 218.528 591.083 218.707C591.384 218.886 591.634 219.156 591.833 219.517C592.032 219.878 592.132 220.362 592.132 220.969V226H590.958V224.966H590.899C590.819 225.132 590.686 225.309 590.501 225.498C590.315 225.687 590.068 225.848 589.76 225.98C589.452 226.113 589.076 226.179 588.632 226.179ZM588.811 225.125C589.275 225.125 589.666 225.034 589.984 224.852C590.305 224.669 590.547 224.434 590.71 224.146C590.875 223.857 590.958 223.554 590.958 223.236V222.162C590.909 222.222 590.799 222.276 590.63 222.326C590.464 222.372 590.272 222.414 590.053 222.45C589.838 222.483 589.628 222.513 589.422 222.54C589.22 222.563 589.056 222.583 588.93 222.599C588.625 222.639 588.34 222.704 588.075 222.793C587.813 222.879 587.601 223.01 587.438 223.186C587.279 223.358 587.2 223.594 587.2 223.892C587.2 224.3 587.351 224.608 587.652 224.817C587.957 225.022 588.343 225.125 588.811 225.125ZM597.594 218.364V219.358H593.637V218.364H597.594ZM594.79 216.534H595.963V223.812C595.963 224.144 596.011 224.393 596.108 224.558C596.207 224.721 596.333 224.83 596.485 224.886C596.641 224.939 596.805 224.966 596.978 224.966C597.107 224.966 597.213 224.959 597.296 224.946C597.379 224.929 597.445 224.916 597.495 224.906L597.733 225.96C597.654 225.99 597.543 226.02 597.4 226.05C597.258 226.083 597.077 226.099 596.858 226.099C596.527 226.099 596.202 226.028 595.884 225.886C595.569 225.743 595.307 225.526 595.098 225.234C594.893 224.943 594.79 224.575 594.79 224.131V216.534ZM602.479 226.159C601.743 226.159 601.108 225.997 600.575 225.672C600.044 225.344 599.635 224.886 599.347 224.3C599.062 223.71 598.919 223.024 598.919 222.241C598.919 221.459 599.062 220.77 599.347 220.173C599.635 219.573 600.036 219.106 600.55 218.771C601.067 218.433 601.67 218.264 602.359 218.264C602.757 218.264 603.15 218.33 603.538 218.463C603.925 218.596 604.278 218.811 604.597 219.109C604.915 219.404 605.168 219.795 605.357 220.283C605.546 220.77 605.641 221.37 605.641 222.082V222.58H599.754V221.565H604.447C604.447 221.134 604.361 220.75 604.189 220.412C604.02 220.074 603.778 219.807 603.463 219.612C603.152 219.416 602.784 219.318 602.359 219.318C601.892 219.318 601.488 219.434 601.146 219.666C600.808 219.895 600.548 220.193 600.366 220.561C600.183 220.929 600.092 221.323 600.092 221.744V222.42C600.092 222.997 600.192 223.486 600.391 223.887C600.593 224.285 600.873 224.588 601.231 224.797C601.589 225.002 602.005 225.105 602.479 225.105C602.787 225.105 603.065 225.062 603.314 224.976C603.566 224.886 603.783 224.754 603.965 224.578C604.147 224.399 604.288 224.177 604.388 223.912L605.521 224.23C605.402 224.615 605.201 224.953 604.92 225.244C604.638 225.533 604.29 225.758 603.876 225.92C603.461 226.08 602.996 226.159 602.479 226.159ZM610.309 226.159C609.673 226.159 609.111 225.998 608.624 225.677C608.136 225.352 607.755 224.895 607.48 224.305C607.205 223.711 607.067 223.01 607.067 222.202C607.067 221.4 607.205 220.704 607.48 220.114C607.755 219.524 608.138 219.068 608.629 218.746C609.119 218.425 609.686 218.264 610.329 218.264C610.826 218.264 611.219 218.347 611.507 218.513C611.799 218.675 612.021 218.861 612.173 219.07C612.329 219.275 612.45 219.444 612.536 219.577H612.636V215.818H613.809V226H612.675V224.827H612.536C612.45 224.966 612.327 225.142 612.168 225.354C612.009 225.562 611.782 225.75 611.487 225.915C611.192 226.078 610.799 226.159 610.309 226.159ZM610.468 225.105C610.939 225.105 611.336 224.982 611.661 224.737C611.986 224.489 612.233 224.146 612.402 223.708C612.571 223.267 612.656 222.759 612.656 222.182C612.656 221.612 612.573 221.113 612.407 220.685C612.241 220.254 611.996 219.92 611.671 219.681C611.346 219.439 610.945 219.318 610.468 219.318C609.971 219.318 609.557 219.446 609.225 219.701C608.897 219.953 608.65 220.296 608.484 220.73C608.322 221.161 608.241 221.645 608.241 222.182C608.241 222.725 608.324 223.219 608.489 223.663C608.658 224.104 608.907 224.455 609.235 224.717C609.567 224.976 609.978 225.105 610.468 225.105ZM616.976 226.08C616.731 226.08 616.52 225.992 616.344 225.816C616.169 225.64 616.081 225.43 616.081 225.185C616.081 224.939 616.169 224.729 616.344 224.553C616.52 224.378 616.731 224.29 616.976 224.29C617.221 224.29 617.432 224.378 617.607 224.553C617.783 224.729 617.871 224.939 617.871 225.185C617.871 225.347 617.829 225.496 617.746 225.632C617.667 225.768 617.559 225.877 617.423 225.96C617.291 226.04 617.142 226.08 616.976 226.08ZM616.976 220.412C616.731 220.412 616.52 220.324 616.344 220.148C616.169 219.973 616.081 219.762 616.081 219.517C616.081 219.272 616.169 219.061 616.344 218.886C616.52 218.71 616.731 218.622 616.976 218.622C617.221 218.622 617.432 218.71 617.607 218.886C617.783 219.061 617.871 219.272 617.871 219.517C617.871 219.679 617.829 219.829 617.746 219.964C617.667 220.1 617.559 220.21 617.423 220.293C617.291 220.372 617.142 220.412 616.976 220.412ZM627.135 215.679C627.553 215.682 627.971 215.762 628.388 215.918C628.806 216.073 629.187 216.332 629.532 216.693C629.876 217.051 630.153 217.54 630.362 218.16C630.571 218.78 630.675 219.557 630.675 220.491C630.675 221.396 630.589 222.2 630.417 222.903C630.248 223.602 630.002 224.192 629.681 224.673C629.363 225.153 628.975 225.518 628.517 225.766C628.063 226.015 627.55 226.139 626.976 226.139C626.406 226.139 625.897 226.027 625.45 225.801C625.006 225.572 624.641 225.256 624.356 224.852C624.074 224.444 623.894 223.972 623.814 223.435H625.027C625.137 223.902 625.354 224.288 625.679 224.593C626.007 224.895 626.439 225.045 626.976 225.045C627.762 225.045 628.382 224.702 628.836 224.016C629.293 223.33 629.522 222.361 629.522 221.108H629.442C629.257 221.386 629.036 221.627 628.781 221.829C628.526 222.031 628.242 222.187 627.931 222.296C627.619 222.406 627.288 222.46 626.936 222.46C626.353 222.46 625.818 222.316 625.331 222.028C624.847 221.736 624.459 221.337 624.167 220.83C623.879 220.319 623.735 219.736 623.735 219.08C623.735 218.456 623.874 217.886 624.152 217.369C624.434 216.849 624.828 216.435 625.336 216.126C625.846 215.818 626.446 215.669 627.135 215.679ZM627.135 216.773C626.718 216.773 626.342 216.877 626.007 217.086C625.675 217.291 625.412 217.57 625.216 217.921C625.024 218.269 624.928 218.655 624.928 219.08C624.928 219.504 625.021 219.89 625.206 220.238C625.395 220.583 625.652 220.858 625.977 221.063C626.305 221.265 626.678 221.366 627.096 221.366C627.41 221.366 627.704 221.305 627.975 221.183C628.247 221.057 628.484 220.886 628.686 220.67C628.892 220.452 629.053 220.205 629.169 219.93C629.285 219.651 629.343 219.361 629.343 219.06C629.343 218.662 629.247 218.289 629.054 217.941C628.865 217.593 628.604 217.311 628.269 217.096C627.937 216.88 627.56 216.773 627.135 216.773ZM637.164 226H635.872L639.61 215.818H640.883L644.622 226H643.329L640.286 217.429H640.207L637.164 226ZM637.642 222.023H642.852V223.116H637.642V222.023ZM646.048 228.864V218.364H647.182V219.577H647.321C647.407 219.444 647.527 219.275 647.679 219.07C647.835 218.861 648.057 218.675 648.345 218.513C648.637 218.347 649.031 218.264 649.529 218.264C650.172 218.264 650.738 218.425 651.229 218.746C651.719 219.068 652.102 219.524 652.377 220.114C652.652 220.704 652.79 221.4 652.79 222.202C652.79 223.01 652.652 223.711 652.377 224.305C652.102 224.895 651.721 225.352 651.234 225.677C650.747 225.998 650.185 226.159 649.548 226.159C649.058 226.159 648.665 226.078 648.37 225.915C648.075 225.75 647.848 225.562 647.689 225.354C647.53 225.142 647.407 224.966 647.321 224.827H647.222V228.864H646.048ZM647.202 222.182C647.202 222.759 647.286 223.267 647.455 223.708C647.624 224.146 647.871 224.489 648.196 224.737C648.521 224.982 648.919 225.105 649.389 225.105C649.88 225.105 650.289 224.976 650.617 224.717C650.949 224.455 651.197 224.104 651.363 223.663C651.532 223.219 651.617 222.725 651.617 222.182C651.617 221.645 651.534 221.161 651.368 220.73C651.206 220.296 650.959 219.953 650.627 219.701C650.299 219.446 649.887 219.318 649.389 219.318C648.912 219.318 648.511 219.439 648.186 219.681C647.861 219.92 647.616 220.254 647.45 220.685C647.285 221.113 647.202 221.612 647.202 222.182ZM654.58 226V218.364H655.713V219.517H655.793C655.932 219.139 656.184 218.833 656.548 218.597C656.913 218.362 657.324 218.244 657.781 218.244C657.868 218.244 657.975 218.246 658.105 218.249C658.234 218.253 658.332 218.258 658.398 218.264V219.457C658.358 219.447 658.267 219.433 658.124 219.413C657.985 219.389 657.838 219.378 657.682 219.378C657.311 219.378 656.979 219.456 656.688 219.612C656.399 219.764 656.171 219.976 656.002 220.248C655.836 220.516 655.753 220.823 655.753 221.168V226H654.58ZM659.789 226V218.364H660.962V226H659.789ZM660.385 217.091C660.157 217.091 659.959 217.013 659.794 216.857C659.631 216.701 659.55 216.514 659.55 216.295C659.55 216.077 659.631 215.889 659.794 215.734C659.959 215.578 660.157 215.5 660.385 215.5C660.614 215.5 660.81 215.578 660.972 215.734C661.138 215.889 661.221 216.077 661.221 216.295C661.221 216.514 661.138 216.701 660.972 216.857C660.81 217.013 660.614 217.091 660.385 217.091ZM664.284 215.818V226H663.111V215.818H664.284ZM670.351 226V225.105L673.712 221.426C674.106 220.995 674.431 220.621 674.686 220.303C674.941 219.981 675.13 219.679 675.253 219.398C675.379 219.113 675.442 218.814 675.442 218.503C675.442 218.145 675.356 217.835 675.183 217.573C675.014 217.311 674.782 217.109 674.487 216.967C674.192 216.824 673.861 216.753 673.493 216.753C673.102 216.753 672.76 216.834 672.469 216.996C672.18 217.156 671.957 217.379 671.798 217.668C671.642 217.956 671.564 218.294 671.564 218.682H670.391C670.391 218.085 670.528 217.562 670.803 217.111C671.078 216.66 671.453 216.309 671.927 216.057C672.404 215.805 672.939 215.679 673.533 215.679C674.129 215.679 674.658 215.805 675.119 216.057C675.579 216.309 675.941 216.648 676.202 217.076C676.464 217.504 676.595 217.979 676.595 218.503C676.595 218.877 676.527 219.244 676.391 219.602C676.259 219.956 676.027 220.352 675.695 220.79C675.367 221.224 674.911 221.754 674.328 222.381L672.041 224.827V224.906H676.774V226H670.351ZM682.148 226.139C681.399 226.139 680.761 225.935 680.234 225.528C679.707 225.117 679.305 224.522 679.026 223.743C678.748 222.961 678.609 222.016 678.609 220.909C678.609 219.809 678.748 218.869 679.026 218.09C679.308 217.308 679.712 216.711 680.239 216.3C680.77 215.886 681.406 215.679 682.148 215.679C682.891 215.679 683.526 215.886 684.053 216.3C684.583 216.711 684.987 217.308 685.266 218.09C685.547 218.869 685.688 219.809 685.688 220.909C685.688 222.016 685.549 222.961 685.271 223.743C684.992 224.522 684.589 225.117 684.062 225.528C683.536 225.935 682.897 226.139 682.148 226.139ZM682.148 225.045C682.891 225.045 683.468 224.687 683.879 223.972C684.29 223.256 684.495 222.235 684.495 220.909C684.495 220.027 684.401 219.277 684.212 218.657C684.026 218.037 683.758 217.565 683.406 217.24C683.058 216.915 682.639 216.753 682.148 216.753C681.413 216.753 680.838 217.116 680.423 217.842C680.009 218.564 679.802 219.587 679.802 220.909C679.802 221.791 679.895 222.54 680.08 223.156C680.266 223.773 680.533 224.242 680.881 224.563C681.232 224.885 681.655 225.045 682.148 225.045ZM687.577 226V225.105L690.938 221.426C691.333 220.995 691.657 220.621 691.913 220.303C692.168 219.981 692.357 219.679 692.479 219.398C692.605 219.113 692.668 218.814 692.668 218.503C692.668 218.145 692.582 217.835 692.41 217.573C692.241 217.311 692.009 217.109 691.714 216.967C691.419 216.824 691.087 216.753 690.719 216.753C690.328 216.753 689.987 216.834 689.695 216.996C689.407 217.156 689.183 217.379 689.024 217.668C688.868 217.956 688.79 218.294 688.79 218.682H687.617C687.617 218.085 687.755 217.562 688.03 217.111C688.305 216.66 688.679 216.309 689.153 216.057C689.631 215.805 690.166 215.679 690.759 215.679C691.356 215.679 691.884 215.805 692.345 216.057C692.806 216.309 693.167 216.648 693.429 217.076C693.691 217.504 693.822 217.979 693.822 218.503C693.822 218.877 693.754 219.244 693.618 219.602C693.485 219.956 693.253 220.352 692.922 220.79C692.594 221.224 692.138 221.754 691.555 222.381L689.268 224.827V224.906H694.001V226H687.577ZM696.054 226V225.105L699.415 221.426C699.809 220.995 700.134 220.621 700.389 220.303C700.644 219.981 700.833 219.679 700.956 219.398C701.082 219.113 701.145 218.814 701.145 218.503C701.145 218.145 701.059 217.835 700.886 217.573C700.717 217.311 700.485 217.109 700.19 216.967C699.895 216.824 699.564 216.753 699.196 216.753C698.805 216.753 698.464 216.834 698.172 216.996C697.884 217.156 697.66 217.379 697.501 217.668C697.345 217.956 697.267 218.294 697.267 218.682H696.094C696.094 218.085 696.231 217.562 696.506 217.111C696.781 216.66 697.156 216.309 697.63 216.057C698.107 215.805 698.643 215.679 699.236 215.679C699.832 215.679 700.361 215.805 700.822 216.057C701.282 216.309 701.644 216.648 701.906 217.076C702.167 217.504 702.298 217.979 702.298 218.503C702.298 218.877 702.23 219.244 702.094 219.602C701.962 219.956 701.73 220.352 701.398 220.79C701.07 221.224 700.615 221.754 700.031 222.381L697.744 224.827V224.906H702.477V226H696.054ZM712.048 215.818V226H710.815V217.111H710.755L708.269 218.761V217.509L710.815 215.818H712.048ZM714.976 226V225.105L718.337 221.426C718.731 220.995 719.056 220.621 719.311 220.303C719.566 219.981 719.755 219.679 719.878 219.398C720.004 219.113 720.067 218.814 720.067 218.503C720.067 218.145 719.981 217.835 719.808 217.573C719.639 217.311 719.407 217.109 719.112 216.967C718.817 216.824 718.486 216.753 718.118 216.753C717.727 216.753 717.385 216.834 717.094 216.996C716.805 217.156 716.582 217.379 716.423 217.668C716.267 217.956 716.189 218.294 716.189 218.682H715.016C715.016 218.085 715.153 217.562 715.428 217.111C715.703 216.66 716.078 216.309 716.552 216.057C717.029 215.805 717.564 215.679 718.158 215.679C718.754 215.679 719.283 215.805 719.744 216.057C720.204 216.309 720.566 216.648 720.827 217.076C721.089 217.504 721.22 217.979 721.22 218.503C721.22 218.877 721.152 219.244 721.016 219.602C720.884 219.956 720.652 220.352 720.32 220.79C719.992 221.224 719.536 221.754 718.953 222.381L716.666 224.827V224.906H721.399V226H714.976ZM724.327 224.697C724.082 224.697 723.872 224.61 723.696 224.434C723.52 224.258 723.433 224.048 723.433 223.803C723.433 223.557 723.52 223.347 723.696 223.171C723.872 222.996 724.082 222.908 724.327 222.908C724.573 222.908 724.783 222.996 724.959 223.171C725.134 223.347 725.222 223.557 725.222 223.803C725.222 223.965 725.181 224.114 725.098 224.25C725.018 224.386 724.911 224.495 724.775 224.578C724.642 224.658 724.493 224.697 724.327 224.697ZM724.327 219.547C724.082 219.547 723.872 219.459 723.696 219.283C723.52 219.108 723.433 218.897 723.433 218.652C723.433 218.407 723.52 218.196 723.696 218.021C723.872 217.845 724.082 217.757 724.327 217.757C724.573 217.757 724.783 217.845 724.959 218.021C725.134 218.196 725.222 218.407 725.222 218.652C725.222 218.814 725.181 218.964 725.098 219.099C725.018 219.235 724.911 219.345 724.775 219.428C724.642 219.507 724.493 219.547 724.327 219.547ZM730.748 226.139C730.092 226.139 729.507 226.027 728.993 225.801C728.483 225.576 728.077 225.263 727.775 224.862C727.477 224.457 727.315 223.988 727.288 223.455H728.541C728.567 223.783 728.68 224.066 728.879 224.305C729.078 224.54 729.338 224.722 729.659 224.852C729.981 224.981 730.337 225.045 730.728 225.045C731.166 225.045 731.554 224.969 731.892 224.817C732.23 224.664 732.495 224.452 732.687 224.18C732.879 223.909 732.975 223.594 732.975 223.236C732.975 222.861 732.883 222.531 732.697 222.246C732.511 221.958 732.24 221.733 731.882 221.57C731.524 221.408 731.086 221.327 730.569 221.327H729.754V220.233H730.569C730.974 220.233 731.328 220.16 731.633 220.014C731.941 219.868 732.182 219.663 732.354 219.398C732.53 219.133 732.618 218.821 732.618 218.463C732.618 218.118 732.541 217.818 732.389 217.563C732.236 217.308 732.021 217.109 731.743 216.967C731.467 216.824 731.143 216.753 730.768 216.753C730.417 216.753 730.085 216.817 729.774 216.947C729.466 217.073 729.214 217.257 729.018 217.499C728.823 217.737 728.717 218.026 728.7 218.364H727.507C727.527 217.83 727.687 217.363 727.989 216.962C728.291 216.557 728.685 216.242 729.172 216.017C729.663 215.792 730.201 215.679 730.788 215.679C731.418 215.679 731.958 215.807 732.409 216.062C732.859 216.314 733.206 216.647 733.448 217.061C733.69 217.475 733.811 217.923 733.811 218.403C733.811 218.977 733.66 219.466 733.358 219.87C733.06 220.274 732.654 220.554 732.14 220.71V220.79C732.783 220.896 733.285 221.169 733.647 221.61C734.008 222.048 734.189 222.589 734.189 223.236C734.189 223.789 734.038 224.286 733.736 224.727C733.438 225.165 733.03 225.509 732.513 225.761C731.996 226.013 731.408 226.139 730.748 226.139ZM735.983 223.912V222.898L740.458 215.818H741.194V217.389H740.696L737.316 222.739V222.818H743.341V223.912H735.983ZM740.776 226V223.604V223.131V215.818H741.949V226H740.776ZM749.738 226H748.446L752.184 215.818H753.457L757.196 226H755.903L752.861 217.429H752.781L749.738 226ZM750.216 222.023H755.426V223.116H750.216V222.023ZM758.782 215.818H760.253L763.714 224.27H763.833L767.293 215.818H768.765V226H767.611V218.264H767.512L764.33 226H763.216L760.035 218.264H759.935V226H758.782V215.818Z" fill="#C4C6D7"/>
<path d="M563.233 251V240.818H564.466V249.906H569.199V251H563.233ZM573.196 251.179C572.712 251.179 572.273 251.088 571.879 250.906C571.484 250.72 571.171 250.453 570.939 250.105C570.707 249.754 570.591 249.33 570.591 248.832C570.591 248.395 570.677 248.04 570.849 247.768C571.022 247.493 571.252 247.278 571.54 247.122C571.829 246.966 572.147 246.85 572.495 246.774C572.846 246.695 573.199 246.632 573.554 246.585C574.018 246.526 574.394 246.481 574.683 246.451C574.974 246.418 575.186 246.363 575.319 246.287C575.455 246.211 575.523 246.078 575.523 245.889V245.849C575.523 245.359 575.388 244.978 575.12 244.706C574.855 244.434 574.452 244.298 573.912 244.298C573.352 244.298 572.913 244.421 572.594 244.666C572.276 244.911 572.053 245.173 571.923 245.452L570.81 245.054C571.009 244.59 571.274 244.229 571.605 243.97C571.94 243.708 572.304 243.526 572.699 243.423C573.097 243.317 573.488 243.264 573.872 243.264C574.117 243.264 574.399 243.294 574.717 243.354C575.039 243.41 575.349 243.528 575.647 243.707C575.949 243.886 576.199 244.156 576.398 244.517C576.597 244.878 576.696 245.362 576.696 245.969V251H575.523V249.966H575.463C575.384 250.132 575.251 250.309 575.065 250.498C574.88 250.687 574.633 250.848 574.325 250.98C574.016 251.113 573.64 251.179 573.196 251.179ZM573.375 250.125C573.839 250.125 574.23 250.034 574.548 249.852C574.87 249.669 575.112 249.434 575.274 249.146C575.44 248.857 575.523 248.554 575.523 248.236V247.162C575.473 247.222 575.364 247.276 575.195 247.326C575.029 247.372 574.837 247.414 574.618 247.45C574.402 247.483 574.192 247.513 573.987 247.54C573.784 247.563 573.62 247.583 573.494 247.599C573.189 247.639 572.904 247.704 572.639 247.793C572.377 247.879 572.165 248.01 572.003 248.186C571.844 248.358 571.764 248.594 571.764 248.892C571.764 249.3 571.915 249.608 572.217 249.817C572.522 250.022 572.908 250.125 573.375 250.125ZM584.247 245.074L583.193 245.372C583.126 245.196 583.029 245.026 582.899 244.86C582.773 244.691 582.601 244.552 582.382 244.442C582.164 244.333 581.883 244.278 581.542 244.278C581.075 244.278 580.685 244.386 580.374 244.602C580.066 244.814 579.911 245.084 579.911 245.412C579.911 245.704 580.017 245.934 580.23 246.103C580.442 246.272 580.773 246.413 581.224 246.526L582.357 246.804C583.04 246.97 583.549 247.223 583.884 247.565C584.218 247.903 584.386 248.339 584.386 248.872C584.386 249.31 584.26 249.701 584.008 250.045C583.759 250.39 583.411 250.662 582.964 250.861C582.517 251.06 581.996 251.159 581.403 251.159C580.624 251.159 579.979 250.99 579.469 250.652C578.959 250.314 578.635 249.82 578.499 249.17L579.613 248.892C579.719 249.303 579.92 249.611 580.215 249.817C580.513 250.022 580.902 250.125 581.383 250.125C581.93 250.125 582.364 250.009 582.686 249.777C583.01 249.542 583.173 249.26 583.173 248.932C583.173 248.667 583.08 248.445 582.894 248.266C582.709 248.083 582.424 247.947 582.039 247.858L580.767 247.56C580.067 247.394 579.553 247.137 579.225 246.789C578.901 246.438 578.738 245.999 578.738 245.472C578.738 245.041 578.859 244.66 579.101 244.328C579.346 243.997 579.679 243.737 580.1 243.548C580.525 243.359 581.005 243.264 581.542 243.264C582.298 243.264 582.891 243.43 583.322 243.761C583.756 244.093 584.064 244.53 584.247 245.074ZM589.473 243.364V244.358H585.516V243.364H589.473ZM586.669 241.534H587.842V248.812C587.842 249.144 587.89 249.393 587.987 249.558C588.086 249.721 588.212 249.83 588.364 249.886C588.52 249.939 588.684 249.966 588.857 249.966C588.986 249.966 589.092 249.959 589.175 249.946C589.258 249.929 589.324 249.916 589.374 249.906L589.612 250.96C589.533 250.99 589.422 251.02 589.279 251.05C589.137 251.083 588.956 251.099 588.737 251.099C588.406 251.099 588.081 251.028 587.763 250.886C587.448 250.743 587.186 250.526 586.977 250.234C586.772 249.943 586.669 249.575 586.669 249.131V241.534ZM602.016 240.818H603.249V247.56C603.249 248.256 603.085 248.877 602.757 249.424C602.432 249.968 601.973 250.397 601.38 250.712C600.787 251.023 600.091 251.179 599.292 251.179C598.493 251.179 597.797 251.023 597.204 250.712C596.611 250.397 596.15 249.968 595.822 249.424C595.497 248.877 595.335 248.256 595.335 247.56V240.818H596.567V247.46C596.567 247.957 596.677 248.4 596.896 248.788C597.114 249.172 597.426 249.475 597.83 249.697C598.238 249.916 598.725 250.026 599.292 250.026C599.859 250.026 600.346 249.916 600.754 249.697C601.161 249.475 601.473 249.172 601.688 248.788C601.907 248.4 602.016 247.957 602.016 247.46V240.818ZM605.552 253.864V243.364H606.686V244.577H606.825C606.911 244.444 607.031 244.275 607.183 244.07C607.339 243.861 607.561 243.675 607.849 243.513C608.141 243.347 608.535 243.264 609.032 243.264C609.675 243.264 610.242 243.425 610.733 243.746C611.223 244.068 611.606 244.524 611.881 245.114C612.156 245.704 612.294 246.4 612.294 247.202C612.294 248.01 612.156 248.711 611.881 249.305C611.606 249.895 611.225 250.352 610.738 250.677C610.251 250.998 609.689 251.159 609.052 251.159C608.562 251.159 608.169 251.078 607.874 250.915C607.579 250.75 607.352 250.562 607.193 250.354C607.034 250.142 606.911 249.966 606.825 249.827H606.726V253.864H605.552ZM606.706 247.182C606.706 247.759 606.79 248.267 606.959 248.708C607.128 249.146 607.375 249.489 607.7 249.737C608.025 249.982 608.423 250.105 608.893 250.105C609.384 250.105 609.793 249.976 610.121 249.717C610.453 249.455 610.701 249.104 610.867 248.663C611.036 248.219 611.121 247.725 611.121 247.182C611.121 246.645 611.038 246.161 610.872 245.73C610.71 245.296 610.463 244.953 610.131 244.701C609.803 244.446 609.39 244.318 608.893 244.318C608.416 244.318 608.015 244.439 607.69 244.681C607.365 244.92 607.12 245.254 606.954 245.685C606.789 246.113 606.706 246.612 606.706 247.182ZM616.967 251.159C616.331 251.159 615.769 250.998 615.282 250.677C614.795 250.352 614.413 249.895 614.138 249.305C613.863 248.711 613.726 248.01 613.726 247.202C613.726 246.4 613.863 245.704 614.138 245.114C614.413 244.524 614.796 244.068 615.287 243.746C615.777 243.425 616.344 243.264 616.987 243.264C617.484 243.264 617.877 243.347 618.165 243.513C618.457 243.675 618.679 243.861 618.831 244.07C618.987 244.275 619.108 244.444 619.194 244.577H619.294V240.818H620.467V251H619.334V249.827H619.194C619.108 249.966 618.986 250.142 618.827 250.354C618.667 250.562 618.44 250.75 618.145 250.915C617.85 251.078 617.458 251.159 616.967 251.159ZM617.126 250.105C617.597 250.105 617.995 249.982 618.319 249.737C618.644 249.489 618.891 249.146 619.06 248.708C619.229 248.267 619.314 247.759 619.314 247.182C619.314 246.612 619.231 246.113 619.065 245.685C618.899 245.254 618.654 244.92 618.329 244.681C618.005 244.439 617.604 244.318 617.126 244.318C616.629 244.318 616.215 244.446 615.883 244.701C615.555 244.953 615.308 245.296 615.143 245.73C614.98 246.161 614.899 246.645 614.899 247.182C614.899 247.725 614.982 248.219 615.148 248.663C615.317 249.104 615.565 249.455 615.893 249.717C616.225 249.976 616.636 250.105 617.126 250.105ZM625.026 251.179C624.542 251.179 624.103 251.088 623.709 250.906C623.314 250.72 623.001 250.453 622.769 250.105C622.537 249.754 622.421 249.33 622.421 248.832C622.421 248.395 622.507 248.04 622.68 247.768C622.852 247.493 623.082 247.278 623.371 247.122C623.659 246.966 623.977 246.85 624.325 246.774C624.676 246.695 625.029 246.632 625.384 246.585C625.848 246.526 626.224 246.481 626.513 246.451C626.804 246.418 627.016 246.363 627.149 246.287C627.285 246.211 627.353 246.078 627.353 245.889V245.849C627.353 245.359 627.219 244.978 626.95 244.706C626.685 244.434 626.282 244.298 625.742 244.298C625.182 244.298 624.743 244.421 624.425 244.666C624.106 244.911 623.883 245.173 623.753 245.452L622.64 245.054C622.839 244.59 623.104 244.229 623.435 243.97C623.77 243.708 624.135 243.526 624.529 243.423C624.927 243.317 625.318 243.264 625.702 243.264C625.948 243.264 626.229 243.294 626.547 243.354C626.869 243.41 627.179 243.528 627.477 243.707C627.779 243.886 628.029 244.156 628.228 244.517C628.427 244.878 628.526 245.362 628.526 245.969V251H627.353V249.966H627.293C627.214 250.132 627.081 250.309 626.895 250.498C626.71 250.687 626.463 250.848 626.155 250.98C625.846 251.113 625.47 251.179 625.026 251.179ZM625.205 250.125C625.669 250.125 626.06 250.034 626.378 249.852C626.7 249.669 626.942 249.434 627.104 249.146C627.27 248.857 627.353 248.554 627.353 248.236V247.162C627.303 247.222 627.194 247.276 627.025 247.326C626.859 247.372 626.667 247.414 626.448 247.45C626.233 247.483 626.022 247.513 625.817 247.54C625.614 247.563 625.45 247.583 625.324 247.599C625.019 247.639 624.734 247.704 624.469 247.793C624.207 247.879 623.995 248.01 623.833 248.186C623.674 248.358 623.594 248.594 623.594 248.892C623.594 249.3 623.745 249.608 624.047 249.817C624.352 250.022 624.738 250.125 625.205 250.125ZM633.989 243.364V244.358H630.031V243.364H633.989ZM631.185 241.534H632.358V248.812C632.358 249.144 632.406 249.393 632.502 249.558C632.602 249.721 632.728 249.83 632.88 249.886C633.036 249.939 633.2 249.966 633.372 249.966C633.501 249.966 633.607 249.959 633.69 249.946C633.773 249.929 633.839 249.916 633.889 249.906L634.128 250.96C634.048 250.99 633.937 251.02 633.795 251.05C633.652 251.083 633.472 251.099 633.253 251.099C632.921 251.099 632.597 251.028 632.278 250.886C631.964 250.743 631.702 250.526 631.493 250.234C631.287 249.943 631.185 249.575 631.185 249.131V241.534ZM638.873 251.159C638.137 251.159 637.503 250.997 636.969 250.672C636.439 250.344 636.029 249.886 635.741 249.3C635.456 248.71 635.314 248.024 635.314 247.241C635.314 246.459 635.456 245.77 635.741 245.173C636.029 244.573 636.431 244.106 636.944 243.771C637.461 243.433 638.065 243.264 638.754 243.264C639.152 243.264 639.544 243.33 639.932 243.463C640.32 243.596 640.673 243.811 640.991 244.109C641.309 244.404 641.563 244.795 641.752 245.283C641.941 245.77 642.035 246.37 642.035 247.082V247.58H636.149V246.565H640.842C640.842 246.134 640.756 245.75 640.583 245.412C640.414 245.074 640.172 244.807 639.858 244.612C639.546 244.416 639.178 244.318 638.754 244.318C638.287 244.318 637.882 244.434 637.541 244.666C637.203 244.895 636.943 245.193 636.76 245.561C636.578 245.929 636.487 246.323 636.487 246.744V247.42C636.487 247.997 636.586 248.486 636.785 248.887C636.987 249.285 637.267 249.588 637.625 249.797C637.983 250.002 638.399 250.105 638.873 250.105C639.181 250.105 639.46 250.062 639.708 249.976C639.96 249.886 640.177 249.754 640.36 249.578C640.542 249.399 640.683 249.177 640.782 248.912L641.916 249.23C641.797 249.615 641.596 249.953 641.314 250.244C641.033 250.533 640.685 250.758 640.27 250.92C639.856 251.08 639.39 251.159 638.873 251.159ZM646.703 251.159C646.067 251.159 645.505 250.998 645.018 250.677C644.531 250.352 644.15 249.895 643.875 249.305C643.6 248.711 643.462 248.01 643.462 247.202C643.462 246.4 643.6 245.704 643.875 245.114C644.15 244.524 644.533 244.068 645.023 243.746C645.514 243.425 646.08 243.264 646.723 243.264C647.221 243.264 647.613 243.347 647.902 243.513C648.193 243.675 648.415 243.861 648.568 244.07C648.724 244.275 648.845 244.444 648.931 244.577H649.03V240.818H650.203V251H649.07V249.827H648.931C648.845 249.966 648.722 250.142 648.563 250.354C648.404 250.562 648.177 250.75 647.882 250.915C647.587 251.078 647.194 251.159 646.703 251.159ZM646.863 250.105C647.333 250.105 647.731 249.982 648.056 249.737C648.381 249.489 648.627 249.146 648.797 248.708C648.966 248.267 649.05 247.759 649.05 247.182C649.05 246.612 648.967 246.113 648.801 245.685C648.636 245.254 648.391 244.92 648.066 244.681C647.741 244.439 647.34 244.318 646.863 244.318C646.365 244.318 645.951 244.446 645.62 244.701C645.292 244.953 645.045 245.296 644.879 245.73C644.717 246.161 644.635 246.645 644.635 247.182C644.635 247.725 644.718 248.219 644.884 248.663C645.053 249.104 645.301 249.455 645.63 249.717C645.961 249.976 646.372 250.105 646.863 250.105ZM653.37 251.08C653.125 251.08 652.915 250.992 652.739 250.816C652.563 250.64 652.475 250.43 652.475 250.185C652.475 249.939 652.563 249.729 652.739 249.553C652.915 249.378 653.125 249.29 653.37 249.29C653.616 249.29 653.826 249.378 654.002 249.553C654.177 249.729 654.265 249.939 654.265 250.185C654.265 250.347 654.224 250.496 654.141 250.632C654.061 250.768 653.954 250.877 653.818 250.96C653.685 251.04 653.536 251.08 653.37 251.08ZM653.37 245.412C653.125 245.412 652.915 245.324 652.739 245.148C652.563 244.973 652.475 244.762 652.475 244.517C652.475 244.272 652.563 244.061 652.739 243.886C652.915 243.71 653.125 243.622 653.37 243.622C653.616 243.622 653.826 243.71 654.002 243.886C654.177 244.061 654.265 244.272 654.265 244.517C654.265 244.679 654.224 244.829 654.141 244.964C654.061 245.1 653.954 245.21 653.818 245.293C653.685 245.372 653.536 245.412 653.37 245.412ZM663.868 240.818V251H662.635V242.111H662.575L660.089 243.761V242.509L662.635 240.818H663.868ZM670.376 240.818V251H669.143V242.111H669.083L666.597 243.761V242.509L669.143 240.818H670.376ZM677.42 240.818H678.892L682.352 249.27H682.472L685.932 240.818H687.403V251H686.25V243.264H686.151L682.969 251H681.855L678.673 243.264H678.574V251H677.42V240.818ZM691.964 251.179C691.48 251.179 691.041 251.088 690.646 250.906C690.252 250.72 689.939 250.453 689.706 250.105C689.474 249.754 689.358 249.33 689.358 248.832C689.358 248.395 689.445 248.04 689.617 247.768C689.789 247.493 690.02 247.278 690.308 247.122C690.596 246.966 690.915 246.85 691.263 246.774C691.614 246.695 691.967 246.632 692.322 246.585C692.786 246.526 693.162 246.481 693.45 246.451C693.742 246.418 693.954 246.363 694.086 246.287C694.222 246.211 694.29 246.078 694.29 245.889V245.849C694.29 245.359 694.156 244.978 693.888 244.706C693.622 244.434 693.22 244.298 692.68 244.298C692.119 244.298 691.68 244.421 691.362 244.666C691.044 244.911 690.82 245.173 690.691 245.452L689.577 245.054C689.776 244.59 690.041 244.229 690.373 243.97C690.707 243.708 691.072 243.526 691.466 243.423C691.864 243.317 692.255 243.264 692.64 243.264C692.885 243.264 693.167 243.294 693.485 243.354C693.806 243.41 694.116 243.528 694.415 243.707C694.716 243.886 694.966 244.156 695.165 244.517C695.364 244.878 695.464 245.362 695.464 245.969V251H694.29V249.966H694.231C694.151 250.132 694.019 250.309 693.833 250.498C693.647 250.687 693.4 250.848 693.092 250.98C692.784 251.113 692.408 251.179 691.964 251.179ZM692.143 250.125C692.607 250.125 692.998 250.034 693.316 249.852C693.637 249.669 693.879 249.434 694.042 249.146C694.207 248.857 694.29 248.554 694.29 248.236V247.162C694.241 247.222 694.131 247.276 693.962 247.326C693.796 247.372 693.604 247.414 693.385 247.45C693.17 247.483 692.96 247.513 692.754 247.54C692.552 247.563 692.388 247.583 692.262 247.599C691.957 247.639 691.672 247.704 691.407 247.793C691.145 247.879 690.933 248.01 690.77 248.186C690.611 248.358 690.532 248.594 690.532 248.892C690.532 249.3 690.683 249.608 690.984 249.817C691.289 250.022 691.675 250.125 692.143 250.125ZM698.087 253.864C697.888 253.864 697.711 253.847 697.555 253.814C697.4 253.784 697.292 253.754 697.232 253.724L697.531 252.69C697.816 252.763 698.067 252.79 698.286 252.77C698.505 252.75 698.699 252.652 698.868 252.477C699.04 252.304 699.198 252.024 699.34 251.636L699.559 251.04L696.735 243.364H698.008L700.116 249.449H700.195L702.303 243.364H703.576L700.335 252.114C700.189 252.508 700.008 252.835 699.793 253.093C699.577 253.355 699.327 253.549 699.042 253.675C698.76 253.801 698.442 253.864 698.087 253.864ZM709.042 251V250.105L712.403 246.426C712.797 245.995 713.122 245.621 713.377 245.303C713.633 244.981 713.822 244.679 713.944 244.398C714.07 244.113 714.133 243.814 714.133 243.503C714.133 243.145 714.047 242.835 713.875 242.573C713.706 242.311 713.474 242.109 713.179 241.967C712.884 241.824 712.552 241.753 712.184 241.753C711.793 241.753 711.452 241.834 711.16 241.996C710.872 242.156 710.648 242.379 710.489 242.668C710.333 242.956 710.255 243.294 710.255 243.682H709.082C709.082 243.085 709.22 242.562 709.495 242.111C709.77 241.66 710.144 241.309 710.618 241.057C711.096 240.805 711.631 240.679 712.224 240.679C712.821 240.679 713.349 240.805 713.81 241.057C714.271 241.309 714.632 241.648 714.894 242.076C715.156 242.504 715.287 242.979 715.287 243.503C715.287 243.877 715.219 244.244 715.083 244.602C714.95 244.956 714.718 245.352 714.387 245.79C714.059 246.224 713.603 246.754 713.02 247.381L710.733 249.827V249.906H715.466V251H709.042ZM720.84 251.139C720.091 251.139 719.453 250.935 718.926 250.528C718.399 250.117 717.996 249.522 717.718 248.743C717.439 247.961 717.3 247.016 717.3 245.909C717.3 244.809 717.439 243.869 717.718 243.09C717.999 242.308 718.404 241.711 718.931 241.3C719.461 240.886 720.097 240.679 720.84 240.679C721.582 240.679 722.217 240.886 722.744 241.3C723.274 241.711 723.679 242.308 723.957 243.09C724.239 243.869 724.38 244.809 724.38 245.909C724.38 247.016 724.24 247.961 723.962 248.743C723.684 249.522 723.281 250.117 722.754 250.528C722.227 250.935 721.589 251.139 720.84 251.139ZM720.84 250.045C721.582 250.045 722.159 249.687 722.57 248.972C722.981 248.256 723.186 247.235 723.186 245.909C723.186 245.027 723.092 244.277 722.903 243.657C722.717 243.037 722.449 242.565 722.098 242.24C721.75 241.915 721.33 241.753 720.84 241.753C720.104 241.753 719.529 242.116 719.115 242.842C718.7 243.564 718.493 244.587 718.493 245.909C718.493 246.791 718.586 247.54 718.772 248.156C718.957 248.773 719.224 249.242 719.572 249.563C719.923 249.885 720.346 250.045 720.84 250.045ZM726.269 251V250.105L729.63 246.426C730.024 245.995 730.349 245.621 730.604 245.303C730.859 244.981 731.048 244.679 731.171 244.398C731.297 244.113 731.36 243.814 731.36 243.503C731.36 243.145 731.274 242.835 731.101 242.573C730.932 242.311 730.7 242.109 730.405 241.967C730.11 241.824 729.779 241.753 729.411 241.753C729.02 241.753 728.678 241.834 728.387 241.996C728.098 242.156 727.875 242.379 727.716 242.668C727.56 242.956 727.482 243.294 727.482 243.682H726.309C726.309 243.085 726.446 242.562 726.721 242.111C726.996 241.66 727.371 241.309 727.845 241.057C728.322 240.805 728.857 240.679 729.451 240.679C730.047 240.679 730.576 240.805 731.037 241.057C731.497 241.309 731.859 241.648 732.12 242.076C732.382 242.504 732.513 242.979 732.513 243.503C732.513 243.877 732.445 244.244 732.309 244.602C732.177 244.956 731.945 245.352 731.613 245.79C731.285 246.224 730.829 246.754 730.246 247.381L727.959 249.827V249.906H732.692V251H726.269ZM734.745 251V250.105L738.106 246.426C738.501 245.995 738.825 245.621 739.081 245.303C739.336 244.981 739.525 244.679 739.647 244.398C739.773 244.113 739.836 243.814 739.836 243.503C739.836 243.145 739.75 242.835 739.578 242.573C739.409 242.311 739.177 242.109 738.882 241.967C738.587 241.824 738.255 241.753 737.887 241.753C737.496 241.753 737.155 241.834 736.863 241.996C736.575 242.156 736.351 242.379 736.192 242.668C736.036 242.956 735.958 243.294 735.958 243.682H734.785C734.785 243.085 734.923 242.562 735.198 242.111C735.473 241.66 735.847 241.309 736.321 241.057C736.799 240.805 737.334 240.679 737.927 240.679C738.524 240.679 739.052 240.805 739.513 241.057C739.974 241.309 740.335 241.648 740.597 242.076C740.859 242.504 740.99 242.979 740.99 243.503C740.99 243.877 740.922 244.244 740.786 244.602C740.653 244.956 740.421 245.352 740.09 245.79C739.762 246.224 739.306 246.754 738.723 247.381L736.436 249.827V249.906H741.169V251H734.745ZM750.48 251.139C749.731 251.139 749.093 250.935 748.566 250.528C748.039 250.117 747.637 249.522 747.358 248.743C747.08 247.961 746.941 247.016 746.941 245.909C746.941 244.809 747.08 243.869 747.358 243.09C747.64 242.308 748.044 241.711 748.571 241.3C749.102 240.886 749.738 240.679 750.48 240.679C751.223 240.679 751.858 240.886 752.385 241.3C752.915 241.711 753.319 242.308 753.598 243.09C753.879 243.869 754.02 244.809 754.02 245.909C754.02 247.016 753.881 247.961 753.603 248.743C753.324 249.522 752.922 250.117 752.395 250.528C751.868 250.935 751.23 251.139 750.48 251.139ZM750.48 250.045C751.223 250.045 751.8 249.687 752.211 248.972C752.622 248.256 752.827 247.235 752.827 245.909C752.827 245.027 752.733 244.277 752.544 243.657C752.358 243.037 752.09 242.565 751.738 242.24C751.39 241.915 750.971 241.753 750.48 241.753C749.745 241.753 749.17 242.116 748.755 242.842C748.341 243.564 748.134 244.587 748.134 245.909C748.134 246.791 748.227 247.54 748.412 248.156C748.598 248.773 748.865 249.242 749.213 249.563C749.564 249.885 749.987 250.045 750.48 250.045ZM759.489 240.818V251H758.256V242.111H758.196L755.711 243.761V242.509L758.256 240.818H759.489ZM763.292 249.697C763.047 249.697 762.837 249.61 762.661 249.434C762.485 249.258 762.397 249.048 762.397 248.803C762.397 248.557 762.485 248.347 762.661 248.171C762.837 247.996 763.047 247.908 763.292 247.908C763.538 247.908 763.748 247.996 763.924 248.171C764.099 248.347 764.187 248.557 764.187 248.803C764.187 248.965 764.146 249.114 764.063 249.25C763.983 249.386 763.876 249.495 763.74 249.578C763.607 249.658 763.458 249.697 763.292 249.697ZM763.292 244.547C763.047 244.547 762.837 244.459 762.661 244.283C762.485 244.108 762.397 243.897 762.397 243.652C762.397 243.407 762.485 243.196 762.661 243.021C762.837 242.845 763.047 242.757 763.292 242.757C763.538 242.757 763.748 242.845 763.924 243.021C764.099 243.196 764.187 243.407 764.187 243.652C764.187 243.814 764.146 243.964 764.063 244.099C763.983 244.235 763.876 244.345 763.74 244.428C763.607 244.507 763.458 244.547 763.292 244.547ZM766.273 251V250.105L769.634 246.426C770.028 245.995 770.353 245.621 770.608 245.303C770.863 244.981 771.052 244.679 771.175 244.398C771.301 244.113 771.364 243.814 771.364 243.503C771.364 243.145 771.277 242.835 771.105 242.573C770.936 242.311 770.704 242.109 770.409 241.967C770.114 241.824 769.783 241.753 769.415 241.753C769.024 241.753 768.682 241.834 768.391 241.996C768.102 242.156 767.879 242.379 767.719 242.668C767.564 242.956 767.486 243.294 767.486 243.682H766.312C766.312 243.085 766.45 242.562 766.725 242.111C767 241.66 767.375 241.309 767.849 241.057C768.326 240.805 768.861 240.679 769.455 240.679C770.051 240.679 770.58 240.805 771.04 241.057C771.501 241.309 771.862 241.648 772.124 242.076C772.386 242.504 772.517 242.979 772.517 243.503C772.517 243.877 772.449 244.244 772.313 244.602C772.181 244.956 771.949 245.352 771.617 245.79C771.289 246.224 770.833 246.754 770.25 247.381L767.963 249.827V249.906H772.696V251H766.273ZM778.19 251.139C777.533 251.139 776.948 251.027 776.435 250.801C775.924 250.576 775.518 250.263 775.217 249.862C774.918 249.457 774.756 248.988 774.729 248.455H775.982C776.009 248.783 776.121 249.066 776.32 249.305C776.519 249.54 776.779 249.722 777.101 249.852C777.422 249.981 777.779 250.045 778.17 250.045C778.607 250.045 778.995 249.969 779.333 249.817C779.671 249.664 779.936 249.452 780.129 249.18C780.321 248.909 780.417 248.594 780.417 248.236C780.417 247.861 780.324 247.531 780.138 247.246C779.953 246.958 779.681 246.733 779.323 246.57C778.965 246.408 778.528 246.327 778.011 246.327H777.195V245.233H778.011C778.415 245.233 778.77 245.16 779.075 245.014C779.383 244.868 779.623 244.663 779.795 244.398C779.971 244.133 780.059 243.821 780.059 243.463C780.059 243.118 779.983 242.818 779.83 242.563C779.678 242.308 779.462 242.109 779.184 241.967C778.909 241.824 778.584 241.753 778.21 241.753C777.858 241.753 777.527 241.817 777.215 241.947C776.907 242.073 776.655 242.257 776.46 242.499C776.264 242.737 776.158 243.026 776.141 243.364H774.948C774.968 242.83 775.129 242.363 775.43 241.962C775.732 241.557 776.126 241.242 776.614 241.017C777.104 240.792 777.643 240.679 778.229 240.679C778.859 240.679 779.399 240.807 779.85 241.062C780.301 241.314 780.647 241.647 780.889 242.061C781.131 242.475 781.252 242.923 781.252 243.403C781.252 243.977 781.101 244.466 780.8 244.87C780.501 245.274 780.095 245.554 779.582 245.71V245.79C780.225 245.896 780.727 246.169 781.088 246.61C781.449 247.048 781.63 247.589 781.63 248.236C781.63 248.789 781.479 249.286 781.178 249.727C780.879 250.165 780.472 250.509 779.955 250.761C779.438 251.013 778.849 251.139 778.19 251.139ZM787.78 251V240.818H791.22C792.019 240.818 792.672 240.962 793.179 241.251C793.689 241.536 794.067 241.922 794.312 242.409C794.558 242.896 794.68 243.44 794.68 244.04C794.68 244.64 794.558 245.185 794.312 245.675C794.071 246.166 793.696 246.557 793.189 246.849C792.682 247.137 792.032 247.281 791.24 247.281H788.774V246.188H791.2C791.747 246.188 792.186 246.093 792.518 245.904C792.849 245.715 793.089 245.46 793.239 245.138C793.391 244.814 793.467 244.447 793.467 244.04C793.467 243.632 793.391 243.268 793.239 242.946C793.089 242.625 792.848 242.373 792.513 242.19C792.178 242.005 791.734 241.912 791.18 241.912H789.013V251H787.78ZM796.667 240.818H798.138L801.598 249.27H801.718L805.178 240.818H806.65V251H805.496V243.264H805.397L802.215 251H801.101L797.919 243.264H797.82V251H796.667V240.818Z" fill="#C4C6D7"/>
<line x1="55" y1="287.5" x2="1216" y2="287.5" stroke="#282A3B"/>
<rect x="55.5" y="133.5" width="1160" height="258" rx="15.5" stroke="#282A3B"/>
</g>
</g>
</g>
<rect x="0.5" y="0.5" width="993" height="319" rx="16.5" stroke="#282A3B"/>
<defs>
<filter id="filter0_d_1211_79277" x="901" y="-91" width="504" height="136" filterUnits="userSpaceOnUse" color-interpolation-filters="sRGB">
<feFlood flood-opacity="0" result="BackgroundImageFix"/>
<feColorMatrix in="SourceAlpha" type="matrix" values="0 0 0 0 0 0 0 0 0 0 0 0 0 0 0 0 0 0 127 0" result="hardAlpha"/>
<feOffset dy="16"/>
<feGaussianBlur stdDeviation="16"/>
<feColorMatrix type="matrix" values="0 0 0 0 0.215686 0 0 0 0 0.231373 0 0 0 0 0.301961 0 0 0 0.04 0"/>
<feBlend mode="normal" in2="BackgroundImageFix" result="effect1_dropShadow_1211_79277"/>
<feBlend mode="normal" in="SourceGraphic" in2="effect1_dropShadow_1211_79277" result="shape"/>
</filter>
<filter id="filter1_d_1211_79277" x="23" y="117" width="1225" height="323" filterUnits="userSpaceOnUse" color-interpolation-filters="sRGB">
<feFlood flood-opacity="0" result="BackgroundImageFix"/>
<feColorMatrix in="SourceAlpha" type="matrix" values="0 0 0 0 0 0 0 0 0 0 0 0 0 0 0 0 0 0 127 0" result="hardAlpha"/>
<feOffset dy="16"/>
<feGaussianBlur stdDeviation="16"/>
<feColorMatrix type="matrix" values="0 0 0 0 0.215686 0 0 0 0 0.231373 0 0 0 0 0.301961 0 0 0 0.04 0"/>
<feBlend mode="normal" in2="BackgroundImageFix" result="effect1_dropShadow_1211_79277"/>
<feBlend mode="normal" in="SourceGraphic" in2="effect1_dropShadow_1211_79277" result="shape"/>
</filter>
<filter id="filter2_d_1211_79277" x="548" y="152" width="80" height="80" filterUnits="userSpaceOnUse" color-interpolation-filters="sRGB">
<feFlood flood-opacity="0" result="BackgroundImageFix"/>
<feColorMatrix in="SourceAlpha" type="matrix" values="0 0 0 0 0 0 0 0 0 0 0 0 0 0 0 0 0 0 127 0" result="hardAlpha"/>
<feOffset dy="16"/>
<feGaussianBlur stdDeviation="16"/>
<feColorMatrix type="matrix" values="0 0 0 0 0.215686 0 0 0 0 0.231373 0 0 0 0 0.301961 0 0 0 0.02 0"/>
<feBlend mode="normal" in2="BackgroundImageFix" result="effect1_dropShadow_1211_79277"/>
<feBlend mode="normal" in="SourceGraphic" in2="effect1_dropShadow_1211_79277" result="shape"/>
</filter>
<clipPath id="clip0_1211_79277">
<rect x="1" y="1" width="992" height="318" rx="16" fill="white"/>
</clipPath>
<clipPath id="clip1_1211_79277">
<rect width="1725" height="1037" fill="white" transform="translate(-328 -163)"/>
</clipPath>
</defs>
</svg>
