<svg width="994" height="276" viewBox="0 0 994 276" fill="none" xmlns="http://www.w3.org/2000/svg">
<rect x="0.5" y="0.5" width="993" height="275" rx="16.5" fill="#14141F"/>
<rect x="194" y="41" width="606" height="82" rx="4" fill="#14141F"/>
<path d="M234.983 74.8182V85H233.751V74.8182H234.983ZM240.618 77.3636V78.358H236.66V77.3636H240.618ZM237.814 75.5341H238.987V82.8125C238.987 83.1439 239.035 83.3925 239.131 83.5582C239.23 83.7206 239.356 83.83 239.509 83.8864C239.665 83.9394 239.829 83.9659 240.001 83.9659C240.13 83.9659 240.236 83.9593 240.319 83.946C240.402 83.9295 240.468 83.9162 240.518 83.9062L240.757 84.9602C240.677 84.9901 240.566 85.0199 240.424 85.0497C240.281 85.0829 240.1 85.0994 239.882 85.0994C239.55 85.0994 239.225 85.0282 238.907 84.8857C238.592 84.7431 238.331 84.526 238.122 84.2344C237.916 83.9427 237.814 83.5748 237.814 83.1307V75.5341ZM245.502 85.1591C244.766 85.1591 244.132 84.9967 243.598 84.6719C243.068 84.3438 242.658 83.8864 242.37 83.2997C242.085 82.7098 241.942 82.0237 241.942 81.2415C241.942 80.4593 242.085 79.7699 242.37 79.1733C242.658 78.5734 243.059 78.1061 243.573 77.7713C244.09 77.4332 244.693 77.2642 245.383 77.2642C245.781 77.2642 246.173 77.3305 246.561 77.4631C246.949 77.5956 247.302 77.8111 247.62 78.1094C247.938 78.4044 248.192 78.7955 248.381 79.2827C248.57 79.7699 248.664 80.3698 248.664 81.0824V81.5795H242.778V80.5653H247.471C247.471 80.1345 247.385 79.75 247.212 79.4119C247.043 79.0739 246.801 78.8071 246.487 78.6115C246.175 78.416 245.807 78.3182 245.383 78.3182C244.915 78.3182 244.511 78.4342 244.17 78.6662C243.832 78.8949 243.571 79.1932 243.389 79.5611C243.207 79.929 243.116 80.3234 243.116 80.7443V81.4205C243.116 81.9972 243.215 82.486 243.414 82.8871C243.616 83.2848 243.896 83.5881 244.254 83.7969C244.612 84.0024 245.028 84.1051 245.502 84.1051C245.81 84.1051 246.089 84.062 246.337 83.9759C246.589 83.8864 246.806 83.7538 246.989 83.5781C247.171 83.3991 247.312 83.1771 247.411 82.9119L248.545 83.2301C248.425 83.6146 248.225 83.9527 247.943 84.2443C247.661 84.5327 247.313 84.758 246.899 84.9205C246.485 85.0795 246.019 85.1591 245.502 85.1591ZM250.449 85V77.3636H251.582V78.5568H251.682C251.841 78.1491 252.098 77.8326 252.452 77.6072C252.807 77.3786 253.233 77.2642 253.73 77.2642C254.234 77.2642 254.653 77.3786 254.988 77.6072C255.326 77.8326 255.589 78.1491 255.778 78.5568H255.858C256.054 78.1624 256.347 77.8492 256.738 77.6172C257.129 77.3819 257.598 77.2642 258.145 77.2642C258.828 77.2642 259.386 77.478 259.82 77.9055C260.254 78.3298 260.472 78.991 260.472 79.8892V85H259.298V79.8892C259.298 79.3258 259.144 78.9231 258.836 78.6811C258.528 78.4392 258.165 78.3182 257.747 78.3182C257.21 78.3182 256.794 78.4806 256.499 78.8054C256.204 79.1269 256.057 79.5346 256.057 80.0284V85H254.864V79.7699C254.864 79.3357 254.723 78.986 254.441 78.7209C254.159 78.4524 253.796 78.3182 253.352 78.3182C253.047 78.3182 252.762 78.3994 252.497 78.5618C252.235 78.7242 252.023 78.9496 251.861 79.2379C251.702 79.523 251.622 79.8527 251.622 80.2273V85H250.449ZM275.304 79.9091C275.304 80.983 275.11 81.911 274.723 82.6932C274.335 83.4754 273.803 84.0786 273.127 84.5028C272.451 84.9271 271.678 85.1392 270.81 85.1392C269.942 85.1392 269.169 84.9271 268.493 84.5028C267.817 84.0786 267.285 83.4754 266.897 82.6932C266.51 81.911 266.316 80.983 266.316 79.9091C266.316 78.8352 266.51 77.9072 266.897 77.125C267.285 76.3428 267.817 75.7396 268.493 75.3153C269.169 74.8911 269.942 74.679 270.81 74.679C271.678 74.679 272.451 74.8911 273.127 75.3153C273.803 75.7396 274.335 76.3428 274.723 77.125C275.11 77.9072 275.304 78.8352 275.304 79.9091ZM274.111 79.9091C274.111 79.0275 273.964 78.2834 273.669 77.6768C273.377 77.0703 272.981 76.6113 272.48 76.2997C271.983 75.9882 271.426 75.8324 270.81 75.8324C270.194 75.8324 269.635 75.9882 269.135 76.2997C268.637 76.6113 268.241 77.0703 267.946 77.6768C267.655 78.2834 267.509 79.0275 267.509 79.9091C267.509 80.7907 267.655 81.5348 267.946 82.1413C268.241 82.7479 268.637 83.2069 269.135 83.5185C269.635 83.83 270.194 83.9858 270.81 83.9858C271.426 83.9858 271.983 83.83 272.48 83.5185C272.981 83.2069 273.377 82.7479 273.669 82.1413C273.964 81.5348 274.111 80.7907 274.111 79.9091ZM278.392 80.4062V85H277.218V77.3636H278.352V78.5568H278.451C278.63 78.169 278.902 77.8575 279.267 77.6222C279.631 77.3835 280.102 77.2642 280.679 77.2642C281.196 77.2642 281.648 77.3703 282.036 77.5824C282.424 77.7912 282.725 78.1094 282.941 78.5369C283.156 78.9612 283.264 79.4981 283.264 80.1477V85H282.091V80.2273C282.091 79.6274 281.935 79.16 281.623 78.8253C281.312 78.4872 280.884 78.3182 280.341 78.3182C279.966 78.3182 279.631 78.3994 279.336 78.5618C279.045 78.7242 278.814 78.9612 278.645 79.2727C278.476 79.5843 278.392 79.9621 278.392 80.4062ZM288.61 85.1591C287.874 85.1591 287.239 84.9967 286.705 84.6719C286.175 84.3438 285.766 83.8864 285.477 83.2997C285.192 82.7098 285.05 82.0237 285.05 81.2415C285.05 80.4593 285.192 79.7699 285.477 79.1733C285.766 78.5734 286.167 78.1061 286.681 77.7713C287.198 77.4332 287.801 77.2642 288.49 77.2642C288.888 77.2642 289.281 77.3305 289.669 77.4631C290.056 77.5956 290.409 77.8111 290.727 78.1094C291.046 78.4044 291.299 78.7955 291.488 79.2827C291.677 79.7699 291.771 80.3698 291.771 81.0824V81.5795H285.885V80.5653H290.578C290.578 80.1345 290.492 79.75 290.32 79.4119C290.151 79.0739 289.909 78.8071 289.594 78.6115C289.282 78.416 288.914 78.3182 288.49 78.3182C288.023 78.3182 287.619 78.4342 287.277 78.6662C286.939 78.8949 286.679 79.1932 286.497 79.5611C286.314 79.929 286.223 80.3234 286.223 80.7443V81.4205C286.223 81.9972 286.323 82.486 286.521 82.8871C286.724 83.2848 287.004 83.5881 287.362 83.7969C287.72 84.0024 288.136 84.1051 288.61 84.1051C288.918 84.1051 289.196 84.062 289.445 83.9759C289.697 83.8864 289.914 83.7538 290.096 83.5781C290.278 83.3991 290.419 83.1771 290.519 82.9119L291.652 83.2301C291.533 83.6146 291.332 83.9527 291.051 84.2443C290.769 84.5327 290.421 84.758 290.007 84.9205C289.592 85.0795 289.127 85.1591 288.61 85.1591Z" fill="#DA1A5B"/>
<rect x="216.5" y="105" width="92" height="2" fill="#DA1A5B"/>
<path d="M343.196 75.8182V86H341.963V75.8182H343.196ZM348.83 78.3636V79.358H344.873V78.3636H348.83ZM346.026 76.5341H347.2V83.8125C347.2 84.1439 347.248 84.3925 347.344 84.5582C347.443 84.7206 347.569 84.83 347.722 84.8864C347.878 84.9394 348.042 84.9659 348.214 84.9659C348.343 84.9659 348.449 84.9593 348.532 84.946C348.615 84.9295 348.681 84.9162 348.731 84.9062L348.97 85.9602C348.89 85.9901 348.779 86.0199 348.637 86.0497C348.494 86.0829 348.313 86.0994 348.095 86.0994C347.763 86.0994 347.438 86.0282 347.12 85.8857C346.805 85.7431 346.544 85.526 346.335 85.2344C346.129 84.9427 346.026 84.5748 346.026 84.1307V76.5341ZM353.715 86.1591C352.979 86.1591 352.345 85.9967 351.811 85.6719C351.281 85.3438 350.871 84.8864 350.583 84.2997C350.298 83.7098 350.155 83.0237 350.155 82.2415C350.155 81.4593 350.298 80.7699 350.583 80.1733C350.871 79.5734 351.272 79.1061 351.786 78.7713C352.303 78.4332 352.906 78.2642 353.596 78.2642C353.993 78.2642 354.386 78.3305 354.774 78.4631C355.162 78.5956 355.515 78.8111 355.833 79.1094C356.151 79.4044 356.405 79.7955 356.594 80.2827C356.782 80.7699 356.877 81.3698 356.877 82.0824V82.5795H350.991V81.5653H355.684C355.684 81.1345 355.598 80.75 355.425 80.4119C355.256 80.0739 355.014 79.8071 354.699 79.6115C354.388 79.416 354.02 79.3182 353.596 79.3182C353.128 79.3182 352.724 79.4342 352.383 79.6662C352.045 79.8949 351.784 80.1932 351.602 80.5611C351.42 80.929 351.329 81.3234 351.329 81.7443V82.4205C351.329 82.9972 351.428 83.486 351.627 83.8871C351.829 84.2848 352.109 84.5881 352.467 84.7969C352.825 85.0024 353.241 85.1051 353.715 85.1051C354.023 85.1051 354.302 85.062 354.55 84.9759C354.802 84.8864 355.019 84.7538 355.202 84.5781C355.384 84.3991 355.525 84.1771 355.624 83.9119L356.758 84.2301C356.638 84.6146 356.438 84.9527 356.156 85.2443C355.874 85.5327 355.526 85.758 355.112 85.9205C354.698 86.0795 354.232 86.1591 353.715 86.1591ZM358.662 86V78.3636H359.795V79.5568H359.895C360.054 79.1491 360.311 78.8326 360.665 78.6072C361.02 78.3786 361.446 78.2642 361.943 78.2642C362.447 78.2642 362.866 78.3786 363.201 78.6072C363.539 78.8326 363.802 79.1491 363.991 79.5568H364.071C364.266 79.1624 364.56 78.8492 364.951 78.6172C365.342 78.3819 365.811 78.2642 366.358 78.2642C367.041 78.2642 367.599 78.478 368.033 78.9055C368.467 79.3298 368.684 79.991 368.684 80.8892V86H367.511V80.8892C367.511 80.3258 367.357 79.9231 367.049 79.6811C366.741 79.4392 366.378 79.3182 365.96 79.3182C365.423 79.3182 365.007 79.4806 364.712 79.8054C364.417 80.1269 364.27 80.5346 364.27 81.0284V86H363.077V80.7699C363.077 80.3357 362.936 79.986 362.654 79.7209C362.372 79.4524 362.009 79.3182 361.565 79.3182C361.26 79.3182 360.975 79.3994 360.71 79.5618C360.448 79.7242 360.236 79.9496 360.074 80.2379C359.915 80.523 359.835 80.8527 359.835 81.2273V86H358.662ZM374.369 76.9119V75.8182H382.006V76.9119H378.804V86H377.571V76.9119H374.369ZM384.605 86L382.278 78.3636H383.511L385.162 84.2102H385.241L386.872 78.3636H388.125L389.735 84.1903H389.815L391.466 78.3636H392.699L390.372 86H389.218L387.548 80.1335H387.429L385.758 86H384.605ZM397.092 86.1591C396.403 86.1591 395.798 85.995 395.278 85.6669C394.76 85.3388 394.356 84.8797 394.064 84.2898C393.776 83.6998 393.632 83.0104 393.632 82.2216C393.632 81.4261 393.776 80.7318 394.064 80.1385C394.356 79.5452 394.76 79.0845 395.278 78.7564C395.798 78.4283 396.403 78.2642 397.092 78.2642C397.782 78.2642 398.385 78.4283 398.902 78.7564C399.422 79.0845 399.827 79.5452 400.115 80.1385C400.407 80.7318 400.552 81.4261 400.552 82.2216C400.552 83.0104 400.407 83.6998 400.115 84.2898C399.827 84.8797 399.422 85.3388 398.902 85.6669C398.385 85.995 397.782 86.1591 397.092 86.1591ZM397.092 85.1051C397.616 85.1051 398.047 84.9709 398.385 84.7024C398.723 84.4339 398.973 84.081 399.135 83.6435C399.298 83.206 399.379 82.732 399.379 82.2216C399.379 81.7112 399.298 81.2356 399.135 80.7947C398.973 80.3539 398.723 79.9976 398.385 79.7259C398.047 79.4541 397.616 79.3182 397.092 79.3182C396.568 79.3182 396.138 79.4541 395.8 79.7259C395.461 79.9976 395.211 80.3539 395.049 80.7947C394.886 81.2356 394.805 81.7112 394.805 82.2216C394.805 82.732 394.886 83.206 395.049 83.6435C395.211 84.081 395.461 84.4339 395.8 84.7024C396.138 84.9709 396.568 85.1051 397.092 85.1051Z" fill="#C4C6D7"/>
<path d="M452.221 75.8182V86H450.988V75.8182H452.221ZM457.855 78.3636V79.358H453.897V78.3636H457.855ZM455.051 76.5341H456.224V83.8125C456.224 84.1439 456.272 84.3925 456.368 84.5582C456.468 84.7206 456.594 84.83 456.746 84.8864C456.902 84.9394 457.066 84.9659 457.238 84.9659C457.368 84.9659 457.474 84.9593 457.557 84.946C457.639 84.9295 457.706 84.9162 457.755 84.9062L457.994 85.9602C457.915 85.9901 457.803 86.0199 457.661 86.0497C457.518 86.0829 457.338 86.0994 457.119 86.0994C456.788 86.0994 456.463 86.0282 456.145 85.8857C455.83 85.7431 455.568 85.526 455.359 85.2344C455.154 84.9427 455.051 84.5748 455.051 84.1307V76.5341ZM462.739 86.1591C462.004 86.1591 461.369 85.9967 460.835 85.6719C460.305 85.3438 459.896 84.8864 459.607 84.2997C459.322 83.7098 459.18 83.0237 459.18 82.2415C459.18 81.4593 459.322 80.7699 459.607 80.1733C459.896 79.5734 460.297 79.1061 460.81 78.7713C461.328 78.4332 461.931 78.2642 462.62 78.2642C463.018 78.2642 463.411 78.3305 463.798 78.4631C464.186 78.5956 464.539 78.8111 464.857 79.1094C465.176 79.4044 465.429 79.7955 465.618 80.2827C465.807 80.7699 465.901 81.3698 465.901 82.0824V82.5795H460.015V81.5653H464.708C464.708 81.1345 464.622 80.75 464.45 80.4119C464.281 80.0739 464.039 79.8071 463.724 79.6115C463.412 79.416 463.044 79.3182 462.62 79.3182C462.153 79.3182 461.748 79.4342 461.407 79.6662C461.069 79.8949 460.809 80.1932 460.627 80.5611C460.444 80.929 460.353 81.3234 460.353 81.7443V82.4205C460.353 82.9972 460.453 83.486 460.651 83.8871C460.854 84.2848 461.134 84.5881 461.492 84.7969C461.85 85.0024 462.265 85.1051 462.739 85.1051C463.048 85.1051 463.326 85.062 463.575 84.9759C463.827 84.8864 464.044 84.7538 464.226 84.5781C464.408 84.3991 464.549 84.1771 464.649 83.9119L465.782 84.2301C465.663 84.6146 465.462 84.9527 465.18 85.2443C464.899 85.5327 464.551 85.758 464.136 85.9205C463.722 86.0795 463.256 86.1591 462.739 86.1591ZM467.686 86V78.3636H468.82V79.5568H468.919C469.078 79.1491 469.335 78.8326 469.69 78.6072C470.044 78.3786 470.47 78.2642 470.967 78.2642C471.471 78.2642 471.89 78.3786 472.225 78.6072C472.563 78.8326 472.827 79.1491 473.016 79.5568H473.095C473.291 79.1624 473.584 78.8492 473.975 78.6172C474.366 78.3819 474.835 78.2642 475.382 78.2642C476.065 78.2642 476.623 78.478 477.058 78.9055C477.492 79.3298 477.709 79.991 477.709 80.8892V86H476.536V80.8892C476.536 80.3258 476.381 79.9231 476.073 79.6811C475.765 79.4392 475.402 79.3182 474.984 79.3182C474.448 79.3182 474.032 79.4806 473.737 79.8054C473.442 80.1269 473.294 80.5346 473.294 81.0284V86H472.101V80.7699C472.101 80.3357 471.96 79.986 471.678 79.7209C471.397 79.4524 471.034 79.3182 470.59 79.3182C470.285 79.3182 470 79.3994 469.734 79.5618C469.473 79.7242 469.261 79.9496 469.098 80.2379C468.939 80.523 468.859 80.8527 468.859 81.2273V86H467.686ZM483.394 76.9119V75.8182H491.03V76.9119H487.829V86H486.596V76.9119H483.394ZM493.947 81.4062V86H492.774V75.8182H493.947V79.5568H494.047C494.226 79.1624 494.494 78.8492 494.852 78.6172C495.213 78.3819 495.694 78.2642 496.294 78.2642C496.814 78.2642 497.27 78.3686 497.661 78.5774C498.052 78.7829 498.355 79.0994 498.571 79.527C498.79 79.9512 498.899 80.4915 498.899 81.1477V86H497.726V81.2273C497.726 80.6207 497.568 80.1518 497.253 79.8203C496.942 79.4856 496.509 79.3182 495.956 79.3182C495.571 79.3182 495.227 79.3994 494.922 79.5618C494.62 79.7242 494.382 79.9612 494.206 80.2727C494.034 80.5843 493.947 80.9621 493.947 81.4062ZM501.046 86V78.3636H502.179V79.517H502.259C502.398 79.1392 502.65 78.8326 503.014 78.5973C503.379 78.362 503.79 78.2443 504.247 78.2443C504.333 78.2443 504.441 78.246 504.57 78.2493C504.7 78.2526 504.797 78.2576 504.864 78.2642V79.4574C504.824 79.4474 504.733 79.4325 504.59 79.4126C504.451 79.3894 504.304 79.3778 504.148 79.3778C503.777 79.3778 503.445 79.4557 503.153 79.6115C502.865 79.764 502.636 79.9761 502.467 80.2479C502.302 80.5163 502.219 80.8229 502.219 81.1676V86H501.046ZM509.224 86.1591C508.488 86.1591 507.853 85.9967 507.32 85.6719C506.789 85.3438 506.38 84.8864 506.092 84.2997C505.807 83.7098 505.664 83.0237 505.664 82.2415C505.664 81.4593 505.807 80.7699 506.092 80.1733C506.38 79.5734 506.781 79.1061 507.295 78.7713C507.812 78.4332 508.415 78.2642 509.104 78.2642C509.502 78.2642 509.895 78.3305 510.283 78.4631C510.671 78.5956 511.024 78.8111 511.342 79.1094C511.66 79.4044 511.913 79.7955 512.102 80.2827C512.291 80.7699 512.386 81.3698 512.386 82.0824V82.5795H506.499V81.5653H511.193C511.193 81.1345 511.106 80.75 510.934 80.4119C510.765 80.0739 510.523 79.8071 510.208 79.6115C509.897 79.416 509.529 79.3182 509.104 79.3182C508.637 79.3182 508.233 79.4342 507.891 79.6662C507.553 79.8949 507.293 80.1932 507.111 80.5611C506.929 80.929 506.837 81.3234 506.837 81.7443V82.4205C506.837 82.9972 506.937 83.486 507.136 83.8871C507.338 84.2848 507.618 84.5881 507.976 84.7969C508.334 85.0024 508.75 85.1051 509.224 85.1051C509.532 85.1051 509.81 85.062 510.059 84.9759C510.311 84.8864 510.528 84.7538 510.71 84.5781C510.893 84.3991 511.033 84.1771 511.133 83.9119L512.266 84.2301C512.147 84.6146 511.947 84.9527 511.665 85.2443C511.383 85.5327 511.035 85.758 510.621 85.9205C510.207 86.0795 509.741 86.1591 509.224 86.1591ZM517.372 86.1591C516.636 86.1591 516.002 85.9967 515.468 85.6719C514.938 85.3438 514.528 84.8864 514.24 84.2997C513.955 83.7098 513.813 83.0237 513.813 82.2415C513.813 81.4593 513.955 80.7699 514.24 80.1733C514.528 79.5734 514.93 79.1061 515.443 78.7713C515.96 78.4332 516.564 78.2642 517.253 78.2642C517.651 78.2642 518.043 78.3305 518.431 78.4631C518.819 78.5956 519.172 78.8111 519.49 79.1094C519.808 79.4044 520.062 79.7955 520.251 80.2827C520.44 80.7699 520.534 81.3698 520.534 82.0824V82.5795H514.648V81.5653H519.341C519.341 81.1345 519.255 80.75 519.082 80.4119C518.913 80.0739 518.671 79.8071 518.357 79.6115C518.045 79.416 517.677 79.3182 517.253 79.3182C516.786 79.3182 516.381 79.4342 516.04 79.6662C515.702 79.8949 515.442 80.1932 515.259 80.5611C515.077 80.929 514.986 81.3234 514.986 81.7443V82.4205C514.986 82.9972 515.085 83.486 515.284 83.8871C515.486 84.2848 515.766 84.5881 516.124 84.7969C516.482 85.0024 516.898 85.1051 517.372 85.1051C517.68 85.1051 517.959 85.062 518.207 84.9759C518.459 84.8864 518.676 84.7538 518.859 84.5781C519.041 84.3991 519.182 84.1771 519.281 83.9119L520.415 84.2301C520.296 84.6146 520.095 84.9527 519.813 85.2443C519.532 85.5327 519.184 85.758 518.769 85.9205C518.355 86.0795 517.889 86.1591 517.372 86.1591Z" fill="#C4C6D7"/>
<path d="M572.308 75.8182V86H571.075V75.8182H572.308ZM577.942 78.3636V79.358H573.984V78.3636H577.942ZM575.138 76.5341H576.311V83.8125C576.311 84.1439 576.359 84.3925 576.455 84.5582C576.555 84.7206 576.681 84.83 576.833 84.8864C576.989 84.9394 577.153 84.9659 577.325 84.9659C577.455 84.9659 577.561 84.9593 577.643 84.946C577.726 84.9295 577.793 84.9162 577.842 84.9062L578.081 85.9602C578.001 85.9901 577.89 86.0199 577.748 86.0497C577.605 86.0829 577.425 86.0994 577.206 86.0994C576.875 86.0994 576.55 86.0282 576.232 85.8857C575.917 85.7431 575.655 85.526 575.446 85.2344C575.241 84.9427 575.138 84.5748 575.138 84.1307V76.5341ZM582.826 86.1591C582.091 86.1591 581.456 85.9967 580.922 85.6719C580.392 85.3438 579.983 84.8864 579.694 84.2997C579.409 83.7098 579.267 83.0237 579.267 82.2415C579.267 81.4593 579.409 80.7699 579.694 80.1733C579.983 79.5734 580.384 79.1061 580.897 78.7713C581.414 78.4332 582.018 78.2642 582.707 78.2642C583.105 78.2642 583.498 78.3305 583.885 78.4631C584.273 78.5956 584.626 78.8111 584.944 79.1094C585.262 79.4044 585.516 79.7955 585.705 80.2827C585.894 80.7699 585.988 81.3698 585.988 82.0824V82.5795H580.102V81.5653H584.795C584.795 81.1345 584.709 80.75 584.537 80.4119C584.368 80.0739 584.126 79.8071 583.811 79.6115C583.499 79.416 583.131 79.3182 582.707 79.3182C582.24 79.3182 581.835 79.4342 581.494 79.6662C581.156 79.8949 580.896 80.1932 580.713 80.5611C580.531 80.929 580.44 81.3234 580.44 81.7443V82.4205C580.44 82.9972 580.539 83.486 580.738 83.8871C580.94 84.2848 581.221 84.5881 581.578 84.7969C581.936 85.0024 582.352 85.1051 582.826 85.1051C583.135 85.1051 583.413 85.062 583.662 84.9759C583.913 84.8864 584.131 84.7538 584.313 84.5781C584.495 84.3991 584.636 84.1771 584.735 83.9119L585.869 84.2301C585.75 84.6146 585.549 84.9527 585.267 85.2443C584.986 85.5327 584.638 85.758 584.223 85.9205C583.809 86.0795 583.343 86.1591 582.826 86.1591ZM587.773 86V78.3636H588.907V79.5568H589.006C589.165 79.1491 589.422 78.8326 589.777 78.6072C590.131 78.3786 590.557 78.2642 591.054 78.2642C591.558 78.2642 591.977 78.3786 592.312 78.6072C592.65 78.8326 592.914 79.1491 593.103 79.5568H593.182C593.378 79.1624 593.671 78.8492 594.062 78.6172C594.453 78.3819 594.922 78.2642 595.469 78.2642C596.152 78.2642 596.71 78.478 597.145 78.9055C597.579 79.3298 597.796 79.991 597.796 80.8892V86H596.623V80.8892C596.623 80.3258 596.468 79.9231 596.16 79.6811C595.852 79.4392 595.489 79.3182 595.071 79.3182C594.534 79.3182 594.118 79.4806 593.824 79.8054C593.529 80.1269 593.381 80.5346 593.381 81.0284V86H592.188V80.7699C592.188 80.3357 592.047 79.986 591.765 79.7209C591.484 79.4524 591.121 79.3182 590.676 79.3182C590.372 79.3182 590.087 79.3994 589.821 79.5618C589.56 79.7242 589.347 79.9496 589.185 80.2379C589.026 80.523 588.946 80.8527 588.946 81.2273V86H587.773ZM604.038 86V75.8182H610.143V76.9119H605.271V80.3523H609.685V81.446H605.271V86H604.038ZM614.637 86.1591C613.948 86.1591 613.343 85.995 612.822 85.6669C612.305 85.3388 611.901 84.8797 611.609 84.2898C611.321 83.6998 611.177 83.0104 611.177 82.2216C611.177 81.4261 611.321 80.7318 611.609 80.1385C611.901 79.5452 612.305 79.0845 612.822 78.7564C613.343 78.4283 613.948 78.2642 614.637 78.2642C615.326 78.2642 615.93 78.4283 616.447 78.7564C616.967 79.0845 617.371 79.5452 617.66 80.1385C617.951 80.7318 618.097 81.4261 618.097 82.2216C618.097 83.0104 617.951 83.6998 617.66 84.2898C617.371 84.8797 616.967 85.3388 616.447 85.6669C615.93 85.995 615.326 86.1591 614.637 86.1591ZM614.637 85.1051C615.161 85.1051 615.592 84.9709 615.93 84.7024C616.268 84.4339 616.518 84.081 616.68 83.6435C616.843 83.206 616.924 82.732 616.924 82.2216C616.924 81.7112 616.843 81.2356 616.68 80.7947C616.518 80.3539 616.268 79.9976 615.93 79.7259C615.592 79.4541 615.161 79.3182 614.637 79.3182C614.113 79.3182 613.683 79.4541 613.344 79.7259C613.006 79.9976 612.756 80.3539 612.594 80.7947C612.431 81.2356 612.35 81.7112 612.35 82.2216C612.35 82.732 612.431 83.206 612.594 83.6435C612.756 84.081 613.006 84.4339 613.344 84.7024C613.683 84.9709 614.113 85.1051 614.637 85.1051ZM624.701 82.8778V78.3636H625.874V86H624.701V84.7074H624.621C624.442 85.0952 624.164 85.425 623.786 85.6967C623.408 85.9652 622.931 86.0994 622.354 86.0994C621.877 86.0994 621.453 85.995 621.081 85.7862C620.71 85.5741 620.419 85.2559 620.206 84.8317C619.994 84.4041 619.888 83.8655 619.888 83.2159V78.3636H621.062V83.1364C621.062 83.6932 621.217 84.1373 621.529 84.4688C621.844 84.8002 622.245 84.9659 622.732 84.9659C623.024 84.9659 623.32 84.8913 623.622 84.7422C623.927 84.593 624.182 84.3643 624.388 84.0561C624.596 83.7479 624.701 83.3551 624.701 82.8778ZM628.023 86V78.3636H629.157V79.517H629.236C629.375 79.1392 629.627 78.8326 629.992 78.5973C630.356 78.362 630.767 78.2443 631.225 78.2443C631.311 78.2443 631.419 78.246 631.548 78.2493C631.677 78.2526 631.775 78.2576 631.841 78.2642V79.4574C631.801 79.4474 631.71 79.4325 631.568 79.4126C631.429 79.3894 631.281 79.3778 631.125 79.3778C630.754 79.3778 630.423 79.4557 630.131 79.6115C629.843 79.764 629.614 79.9761 629.445 80.2479C629.279 80.5163 629.196 80.8229 629.196 81.1676V86H628.023Z" fill="#C4C6D7"/>
<path d="M683.381 75.8182V86H682.148V75.8182H683.381ZM689.015 78.3636V79.358H685.058V78.3636H689.015ZM686.211 76.5341H687.384V83.8125C687.384 84.1439 687.432 84.3925 687.528 84.5582C687.628 84.7206 687.754 84.83 687.906 84.8864C688.062 84.9394 688.226 84.9659 688.399 84.9659C688.528 84.9659 688.634 84.9593 688.717 84.946C688.8 84.9295 688.866 84.9162 688.916 84.9062L689.154 85.9602C689.075 85.9901 688.964 86.0199 688.821 86.0497C688.679 86.0829 688.498 86.0994 688.279 86.0994C687.948 86.0994 687.623 86.0282 687.305 85.8857C686.99 85.7431 686.728 85.526 686.519 85.2344C686.314 84.9427 686.211 84.5748 686.211 84.1307V76.5341ZM693.9 86.1591C693.164 86.1591 692.529 85.9967 691.995 85.6719C691.465 85.3438 691.056 84.8864 690.767 84.2997C690.482 83.7098 690.34 83.0237 690.34 82.2415C690.34 81.4593 690.482 80.7699 690.767 80.1733C691.056 79.5734 691.457 79.1061 691.971 78.7713C692.488 78.4332 693.091 78.2642 693.78 78.2642C694.178 78.2642 694.571 78.3305 694.959 78.4631C695.346 78.5956 695.699 78.8111 696.017 79.1094C696.336 79.4044 696.589 79.7955 696.778 80.2827C696.967 80.7699 697.062 81.3698 697.062 82.0824V82.5795H691.175V81.5653H695.868C695.868 81.1345 695.782 80.75 695.61 80.4119C695.441 80.0739 695.199 79.8071 694.884 79.6115C694.572 79.416 694.205 79.3182 693.78 79.3182C693.313 79.3182 692.909 79.4342 692.567 79.6662C692.229 79.8949 691.969 80.1932 691.787 80.5611C691.604 80.929 691.513 81.3234 691.513 81.7443V82.4205C691.513 82.9972 691.613 83.486 691.812 83.8871C692.014 84.2848 692.294 84.5881 692.652 84.7969C693.01 85.0024 693.426 85.1051 693.9 85.1051C694.208 85.1051 694.486 85.062 694.735 84.9759C694.987 84.8864 695.204 84.7538 695.386 84.5781C695.568 84.3991 695.709 84.1771 695.809 83.9119L696.942 84.2301C696.823 84.6146 696.622 84.9527 696.341 85.2443C696.059 85.5327 695.711 85.758 695.297 85.9205C694.882 86.0795 694.417 86.1591 693.9 86.1591ZM698.846 86V78.3636H699.98V79.5568H700.079C700.238 79.1491 700.495 78.8326 700.85 78.6072C701.205 78.3786 701.63 78.2642 702.128 78.2642C702.631 78.2642 703.051 78.3786 703.385 78.6072C703.723 78.8326 703.987 79.1491 704.176 79.5568H704.255C704.451 79.1624 704.744 78.8492 705.135 78.6172C705.526 78.3819 705.995 78.2642 706.542 78.2642C707.225 78.2642 707.784 78.478 708.218 78.9055C708.652 79.3298 708.869 79.991 708.869 80.8892V86H707.696V80.8892C707.696 80.3258 707.542 79.9231 707.233 79.6811C706.925 79.4392 706.562 79.3182 706.145 79.3182C705.608 79.3182 705.192 79.4806 704.897 79.8054C704.602 80.1269 704.454 80.5346 704.454 81.0284V86H703.261V80.7699C703.261 80.3357 703.12 79.986 702.839 79.7209C702.557 79.4524 702.194 79.3182 701.75 79.3182C701.445 79.3182 701.16 79.3994 700.895 79.5618C700.633 79.7242 700.421 79.9496 700.258 80.2379C700.099 80.523 700.02 80.8527 700.02 81.2273V86H698.846ZM715.111 86V75.8182H721.216V76.9119H716.344V80.3523H720.759V81.446H716.344V86H715.111ZM723.169 86V78.3636H724.342V86H723.169ZM723.765 77.0909C723.536 77.0909 723.339 77.013 723.174 76.8572C723.011 76.7015 722.93 76.5142 722.93 76.2955C722.93 76.0767 723.011 75.8894 723.174 75.7337C723.339 75.5779 723.536 75.5 723.765 75.5C723.994 75.5 724.189 75.5779 724.352 75.7337C724.518 75.8894 724.6 76.0767 724.6 76.2955C724.6 76.5142 724.518 76.7015 724.352 76.8572C724.189 77.013 723.994 77.0909 723.765 77.0909ZM732.735 78.3636L729.911 86H728.718L725.894 78.3636H727.167L729.275 84.4489H729.354L731.462 78.3636H732.735ZM737.212 86.1591C736.476 86.1591 735.842 85.9967 735.308 85.6719C734.778 85.3438 734.368 84.8864 734.08 84.2997C733.795 83.7098 733.652 83.0237 733.652 82.2415C733.652 81.4593 733.795 80.7699 734.08 80.1733C734.368 79.5734 734.769 79.1061 735.283 78.7713C735.8 78.4332 736.403 78.2642 737.093 78.2642C737.491 78.2642 737.883 78.3305 738.271 78.4631C738.659 78.5956 739.012 78.8111 739.33 79.1094C739.648 79.4044 739.902 79.7955 740.091 80.2827C740.28 80.7699 740.374 81.3698 740.374 82.0824V82.5795H734.488V81.5653H739.181C739.181 81.1345 739.095 80.75 738.922 80.4119C738.753 80.0739 738.511 79.8071 738.196 79.6115C737.885 79.416 737.517 79.3182 737.093 79.3182C736.625 79.3182 736.221 79.4342 735.88 79.6662C735.542 79.8949 735.281 80.1932 735.099 80.5611C734.917 80.929 734.826 81.3234 734.826 81.7443V82.4205C734.826 82.9972 734.925 83.486 735.124 83.8871C735.326 84.2848 735.606 84.5881 735.964 84.7969C736.322 85.0024 736.738 85.1051 737.212 85.1051C737.52 85.1051 737.799 85.062 738.047 84.9759C738.299 84.8864 738.516 84.7538 738.699 84.5781C738.881 84.3991 739.022 84.1771 739.121 83.9119L740.255 84.2301C740.135 84.6146 739.935 84.9527 739.653 85.2443C739.371 85.5327 739.023 85.758 738.609 85.9205C738.195 86.0795 737.729 86.1591 737.212 86.1591Z" fill="#C4C6D7"/>
<path fill-rule="evenodd" clip-rule="evenodd" d="M764.793 86.7071C764.402 86.3166 764.402 85.6834 764.793 85.2929L768.086 82L764.793 78.7071C764.402 78.3166 764.402 77.6834 764.793 77.2929C765.183 76.9024 765.817 76.9024 766.207 77.2929L770.207 81.2929C770.598 81.6834 770.598 82.3166 770.207 82.7071L766.207 86.7071C765.817 87.0976 765.183 87.0976 764.793 86.7071Z" fill="#C4C6D7"/>
<rect x="669.5" y="64" width="73" height="36" fill="url(#paint0_linear_1211_80512)"/>
<rect x="194" y="155" width="606" height="80" rx="4" fill="#14141F"/>
<path fill-rule="evenodd" clip-rule="evenodd" d="M222.707 199.707C223.098 199.317 223.098 198.683 222.707 198.293L219.414 195L222.707 191.707C223.098 191.317 223.098 190.683 222.707 190.293C222.317 189.902 221.683 189.902 221.293 190.293L217.293 194.293C216.902 194.683 216.902 195.317 217.293 195.707L221.293 199.707C221.683 200.098 222.317 200.098 222.707 199.707Z" fill="#C4C6D7"/>
<path d="M248.696 188.818V199H247.463V188.818H248.696ZM254.33 191.364V192.358H250.373V191.364H254.33ZM251.526 189.534H252.7V196.812C252.7 197.144 252.748 197.393 252.844 197.558C252.943 197.721 253.069 197.83 253.222 197.886C253.378 197.939 253.542 197.966 253.714 197.966C253.843 197.966 253.949 197.959 254.032 197.946C254.115 197.929 254.181 197.916 254.231 197.906L254.47 198.96C254.39 198.99 254.279 199.02 254.137 199.05C253.994 199.083 253.813 199.099 253.595 199.099C253.263 199.099 252.938 199.028 252.62 198.886C252.305 198.743 252.044 198.526 251.835 198.234C251.629 197.943 251.526 197.575 251.526 197.131V189.534ZM259.215 199.159C258.479 199.159 257.845 198.997 257.311 198.672C256.781 198.344 256.371 197.886 256.083 197.3C255.798 196.71 255.655 196.024 255.655 195.241C255.655 194.459 255.798 193.77 256.083 193.173C256.371 192.573 256.772 192.106 257.286 191.771C257.803 191.433 258.406 191.264 259.096 191.264C259.493 191.264 259.886 191.33 260.274 191.463C260.662 191.596 261.015 191.811 261.333 192.109C261.651 192.404 261.905 192.795 262.094 193.283C262.282 193.77 262.377 194.37 262.377 195.082V195.58H256.491V194.565H261.184C261.184 194.134 261.098 193.75 260.925 193.412C260.756 193.074 260.514 192.807 260.199 192.612C259.888 192.416 259.52 192.318 259.096 192.318C258.628 192.318 258.224 192.434 257.883 192.666C257.545 192.895 257.284 193.193 257.102 193.561C256.92 193.929 256.829 194.323 256.829 194.744V195.42C256.829 195.997 256.928 196.486 257.127 196.887C257.329 197.285 257.609 197.588 257.967 197.797C258.325 198.002 258.741 198.105 259.215 198.105C259.523 198.105 259.802 198.062 260.05 197.976C260.302 197.886 260.519 197.754 260.702 197.578C260.884 197.399 261.025 197.177 261.124 196.912L262.258 197.23C262.138 197.615 261.938 197.953 261.656 198.244C261.374 198.533 261.026 198.758 260.612 198.92C260.198 199.08 259.732 199.159 259.215 199.159ZM264.162 199V191.364H265.295V192.557H265.395C265.554 192.149 265.811 191.833 266.165 191.607C266.52 191.379 266.946 191.264 267.443 191.264C267.947 191.264 268.366 191.379 268.701 191.607C269.039 191.833 269.302 192.149 269.491 192.557H269.571C269.766 192.162 270.06 191.849 270.451 191.617C270.842 191.382 271.311 191.264 271.858 191.264C272.541 191.264 273.099 191.478 273.533 191.906C273.967 192.33 274.184 192.991 274.184 193.889V199H273.011V193.889C273.011 193.326 272.857 192.923 272.549 192.681C272.241 192.439 271.878 192.318 271.46 192.318C270.923 192.318 270.507 192.481 270.212 192.805C269.917 193.127 269.77 193.535 269.77 194.028V199H268.577V193.77C268.577 193.336 268.436 192.986 268.154 192.721C267.872 192.452 267.509 192.318 267.065 192.318C266.76 192.318 266.475 192.399 266.21 192.562C265.948 192.724 265.736 192.95 265.574 193.238C265.415 193.523 265.335 193.853 265.335 194.227V199H264.162ZM279.869 189.912V188.818H287.506V189.912H284.304V199H283.071V189.912H279.869ZM290.105 199L287.778 191.364H289.011L290.662 197.21H290.741L292.372 191.364H293.625L295.235 197.19H295.315L296.966 191.364H298.199L295.872 199H294.718L293.048 193.134H292.929L291.258 199H290.105ZM302.592 199.159C301.903 199.159 301.298 198.995 300.778 198.667C300.26 198.339 299.856 197.88 299.564 197.29C299.276 196.7 299.132 196.01 299.132 195.222C299.132 194.426 299.276 193.732 299.564 193.138C299.856 192.545 300.26 192.085 300.778 191.756C301.298 191.428 301.903 191.264 302.592 191.264C303.282 191.264 303.885 191.428 304.402 191.756C304.922 192.085 305.327 192.545 305.615 193.138C305.907 193.732 306.052 194.426 306.052 195.222C306.052 196.01 305.907 196.7 305.615 197.29C305.327 197.88 304.922 198.339 304.402 198.667C303.885 198.995 303.282 199.159 302.592 199.159ZM302.592 198.105C303.116 198.105 303.547 197.971 303.885 197.702C304.223 197.434 304.473 197.081 304.635 196.643C304.798 196.206 304.879 195.732 304.879 195.222C304.879 194.711 304.798 194.236 304.635 193.795C304.473 193.354 304.223 192.998 303.885 192.726C303.547 192.454 303.116 192.318 302.592 192.318C302.068 192.318 301.638 192.454 301.3 192.726C300.961 192.998 300.711 193.354 300.549 193.795C300.386 194.236 300.305 194.711 300.305 195.222C300.305 195.732 300.386 196.206 300.549 196.643C300.711 197.081 300.961 197.434 301.3 197.702C301.638 197.971 302.068 198.105 302.592 198.105Z" fill="#C4C6D7"/>
<path d="M357.721 188.818V199H356.488V188.818H357.721ZM363.355 191.364V192.358H359.397V191.364H363.355ZM360.551 189.534H361.724V196.812C361.724 197.144 361.772 197.393 361.868 197.558C361.968 197.721 362.094 197.83 362.246 197.886C362.402 197.939 362.566 197.966 362.738 197.966C362.868 197.966 362.974 197.959 363.057 197.946C363.139 197.929 363.206 197.916 363.255 197.906L363.494 198.96C363.415 198.99 363.303 199.02 363.161 199.05C363.018 199.083 362.838 199.099 362.619 199.099C362.288 199.099 361.963 199.028 361.645 198.886C361.33 198.743 361.068 198.526 360.859 198.234C360.654 197.943 360.551 197.575 360.551 197.131V189.534ZM368.239 199.159C367.504 199.159 366.869 198.997 366.335 198.672C365.805 198.344 365.396 197.886 365.107 197.3C364.822 196.71 364.68 196.024 364.68 195.241C364.68 194.459 364.822 193.77 365.107 193.173C365.396 192.573 365.797 192.106 366.31 191.771C366.828 191.433 367.431 191.264 368.12 191.264C368.518 191.264 368.911 191.33 369.298 191.463C369.686 191.596 370.039 191.811 370.357 192.109C370.676 192.404 370.929 192.795 371.118 193.283C371.307 193.77 371.401 194.37 371.401 195.082V195.58H365.515V194.565H370.208C370.208 194.134 370.122 193.75 369.95 193.412C369.781 193.074 369.539 192.807 369.224 192.612C368.912 192.416 368.544 192.318 368.12 192.318C367.653 192.318 367.248 192.434 366.907 192.666C366.569 192.895 366.309 193.193 366.127 193.561C365.944 193.929 365.853 194.323 365.853 194.744V195.42C365.853 195.997 365.953 196.486 366.151 196.887C366.354 197.285 366.634 197.588 366.992 197.797C367.35 198.002 367.765 198.105 368.239 198.105C368.548 198.105 368.826 198.062 369.075 197.976C369.327 197.886 369.544 197.754 369.726 197.578C369.908 197.399 370.049 197.177 370.149 196.912L371.282 197.23C371.163 197.615 370.962 197.953 370.68 198.244C370.399 198.533 370.051 198.758 369.636 198.92C369.222 199.08 368.756 199.159 368.239 199.159ZM373.186 199V191.364H374.32V192.557H374.419C374.578 192.149 374.835 191.833 375.19 191.607C375.544 191.379 375.97 191.264 376.467 191.264C376.971 191.264 377.39 191.379 377.725 191.607C378.063 191.833 378.327 192.149 378.516 192.557H378.595C378.791 192.162 379.084 191.849 379.475 191.617C379.866 191.382 380.335 191.264 380.882 191.264C381.565 191.264 382.123 191.478 382.558 191.906C382.992 192.33 383.209 192.991 383.209 193.889V199H382.036V193.889C382.036 193.326 381.881 192.923 381.573 192.681C381.265 192.439 380.902 192.318 380.484 192.318C379.948 192.318 379.532 192.481 379.237 192.805C378.942 193.127 378.794 193.535 378.794 194.028V199H377.601V193.77C377.601 193.336 377.46 192.986 377.178 192.721C376.897 192.452 376.534 192.318 376.09 192.318C375.785 192.318 375.5 192.399 375.234 192.562C374.973 192.724 374.761 192.95 374.598 193.238C374.439 193.523 374.359 193.853 374.359 194.227V199H373.186ZM388.894 189.912V188.818H396.53V189.912H393.329V199H392.096V189.912H388.894ZM399.447 194.406V199H398.274V188.818H399.447V192.557H399.547C399.726 192.162 399.994 191.849 400.352 191.617C400.713 191.382 401.194 191.264 401.794 191.264C402.314 191.264 402.77 191.369 403.161 191.577C403.552 191.783 403.855 192.099 404.071 192.527C404.29 192.951 404.399 193.491 404.399 194.148V199H403.226V194.227C403.226 193.621 403.068 193.152 402.753 192.82C402.442 192.486 402.009 192.318 401.456 192.318C401.071 192.318 400.727 192.399 400.422 192.562C400.12 192.724 399.882 192.961 399.706 193.273C399.534 193.584 399.447 193.962 399.447 194.406ZM406.546 199V191.364H407.679V192.517H407.759C407.898 192.139 408.15 191.833 408.514 191.597C408.879 191.362 409.29 191.244 409.747 191.244C409.833 191.244 409.941 191.246 410.07 191.249C410.2 191.253 410.297 191.258 410.364 191.264V192.457C410.324 192.447 410.233 192.433 410.09 192.413C409.951 192.389 409.804 192.378 409.648 192.378C409.277 192.378 408.945 192.456 408.653 192.612C408.365 192.764 408.136 192.976 407.967 193.248C407.802 193.516 407.719 193.823 407.719 194.168V199H406.546ZM414.724 199.159C413.988 199.159 413.353 198.997 412.82 198.672C412.289 198.344 411.88 197.886 411.592 197.3C411.307 196.71 411.164 196.024 411.164 195.241C411.164 194.459 411.307 193.77 411.592 193.173C411.88 192.573 412.281 192.106 412.795 191.771C413.312 191.433 413.915 191.264 414.604 191.264C415.002 191.264 415.395 191.33 415.783 191.463C416.171 191.596 416.524 191.811 416.842 192.109C417.16 192.404 417.413 192.795 417.602 193.283C417.791 193.77 417.886 194.37 417.886 195.082V195.58H411.999V194.565H416.693C416.693 194.134 416.606 193.75 416.434 193.412C416.265 193.074 416.023 192.807 415.708 192.612C415.397 192.416 415.029 192.318 414.604 192.318C414.137 192.318 413.733 192.434 413.391 192.666C413.053 192.895 412.793 193.193 412.611 193.561C412.429 193.929 412.337 194.323 412.337 194.744V195.42C412.337 195.997 412.437 196.486 412.636 196.887C412.838 197.285 413.118 197.588 413.476 197.797C413.834 198.002 414.25 198.105 414.724 198.105C415.032 198.105 415.31 198.062 415.559 197.976C415.811 197.886 416.028 197.754 416.21 197.578C416.393 197.399 416.533 197.177 416.633 196.912L417.766 197.23C417.647 197.615 417.447 197.953 417.165 198.244C416.883 198.533 416.535 198.758 416.121 198.92C415.707 199.08 415.241 199.159 414.724 199.159ZM422.872 199.159C422.136 199.159 421.502 198.997 420.968 198.672C420.438 198.344 420.028 197.886 419.74 197.3C419.455 196.71 419.313 196.024 419.313 195.241C419.313 194.459 419.455 193.77 419.74 193.173C420.028 192.573 420.43 192.106 420.943 191.771C421.46 191.433 422.064 191.264 422.753 191.264C423.151 191.264 423.543 191.33 423.931 191.463C424.319 191.596 424.672 191.811 424.99 192.109C425.308 192.404 425.562 192.795 425.751 193.283C425.94 193.77 426.034 194.37 426.034 195.082V195.58H420.148V194.565H424.841C424.841 194.134 424.755 193.75 424.582 193.412C424.413 193.074 424.171 192.807 423.857 192.612C423.545 192.416 423.177 192.318 422.753 192.318C422.286 192.318 421.881 192.434 421.54 192.666C421.202 192.895 420.942 193.193 420.759 193.561C420.577 193.929 420.486 194.323 420.486 194.744V195.42C420.486 195.997 420.585 196.486 420.784 196.887C420.986 197.285 421.266 197.588 421.624 197.797C421.982 198.002 422.398 198.105 422.872 198.105C423.18 198.105 423.459 198.062 423.707 197.976C423.959 197.886 424.176 197.754 424.359 197.578C424.541 197.399 424.682 197.177 424.781 196.912L425.915 197.23C425.796 197.615 425.595 197.953 425.313 198.244C425.032 198.533 424.684 198.758 424.269 198.92C423.855 199.08 423.389 199.159 422.872 199.159Z" fill="#C4C6D7"/>
<path d="M477.808 188.818V199H476.575V188.818H477.808ZM483.442 191.364V192.358H479.484V191.364H483.442ZM480.638 189.534H481.811V196.812C481.811 197.144 481.859 197.393 481.955 197.558C482.055 197.721 482.181 197.83 482.333 197.886C482.489 197.939 482.653 197.966 482.825 197.966C482.955 197.966 483.061 197.959 483.143 197.946C483.226 197.929 483.293 197.916 483.342 197.906L483.581 198.96C483.501 198.99 483.39 199.02 483.248 199.05C483.105 199.083 482.925 199.099 482.706 199.099C482.375 199.099 482.05 199.028 481.732 198.886C481.417 198.743 481.155 198.526 480.946 198.234C480.741 197.943 480.638 197.575 480.638 197.131V189.534ZM488.326 199.159C487.591 199.159 486.956 198.997 486.422 198.672C485.892 198.344 485.483 197.886 485.194 197.3C484.909 196.71 484.767 196.024 484.767 195.241C484.767 194.459 484.909 193.77 485.194 193.173C485.483 192.573 485.884 192.106 486.397 191.771C486.914 191.433 487.518 191.264 488.207 191.264C488.605 191.264 488.998 191.33 489.385 191.463C489.773 191.596 490.126 191.811 490.444 192.109C490.762 192.404 491.016 192.795 491.205 193.283C491.394 193.77 491.488 194.37 491.488 195.082V195.58H485.602V194.565H490.295C490.295 194.134 490.209 193.75 490.037 193.412C489.868 193.074 489.626 192.807 489.311 192.612C488.999 192.416 488.631 192.318 488.207 192.318C487.74 192.318 487.335 192.434 486.994 192.666C486.656 192.895 486.396 193.193 486.213 193.561C486.031 193.929 485.94 194.323 485.94 194.744V195.42C485.94 195.997 486.039 196.486 486.238 196.887C486.44 197.285 486.721 197.588 487.078 197.797C487.436 198.002 487.852 198.105 488.326 198.105C488.635 198.105 488.913 198.062 489.162 197.976C489.413 197.886 489.631 197.754 489.813 197.578C489.995 197.399 490.136 197.177 490.235 196.912L491.369 197.23C491.25 197.615 491.049 197.953 490.767 198.244C490.486 198.533 490.138 198.758 489.723 198.92C489.309 199.08 488.843 199.159 488.326 199.159ZM493.273 199V191.364H494.407V192.557H494.506C494.665 192.149 494.922 191.833 495.277 191.607C495.631 191.379 496.057 191.264 496.554 191.264C497.058 191.264 497.477 191.379 497.812 191.607C498.15 191.833 498.414 192.149 498.603 192.557H498.682C498.878 192.162 499.171 191.849 499.562 191.617C499.953 191.382 500.422 191.264 500.969 191.264C501.652 191.264 502.21 191.478 502.645 191.906C503.079 192.33 503.296 192.991 503.296 193.889V199H502.123V193.889C502.123 193.326 501.968 192.923 501.66 192.681C501.352 192.439 500.989 192.318 500.571 192.318C500.034 192.318 499.618 192.481 499.324 192.805C499.029 193.127 498.881 193.535 498.881 194.028V199H497.688V193.77C497.688 193.336 497.547 192.986 497.265 192.721C496.984 192.452 496.621 192.318 496.176 192.318C495.872 192.318 495.587 192.399 495.321 192.562C495.06 192.724 494.847 192.95 494.685 193.238C494.526 193.523 494.446 193.853 494.446 194.227V199H493.273ZM509.538 199V188.818H515.643V189.912H510.771V193.352H515.185V194.446H510.771V199H509.538ZM520.137 199.159C519.448 199.159 518.843 198.995 518.322 198.667C517.805 198.339 517.401 197.88 517.109 197.29C516.821 196.7 516.677 196.01 516.677 195.222C516.677 194.426 516.821 193.732 517.109 193.138C517.401 192.545 517.805 192.085 518.322 191.756C518.843 191.428 519.448 191.264 520.137 191.264C520.826 191.264 521.43 191.428 521.947 191.756C522.467 192.085 522.871 192.545 523.16 193.138C523.451 193.732 523.597 194.426 523.597 195.222C523.597 196.01 523.451 196.7 523.16 197.29C522.871 197.88 522.467 198.339 521.947 198.667C521.43 198.995 520.826 199.159 520.137 199.159ZM520.137 198.105C520.661 198.105 521.092 197.971 521.43 197.702C521.768 197.434 522.018 197.081 522.18 196.643C522.343 196.206 522.424 195.732 522.424 195.222C522.424 194.711 522.343 194.236 522.18 193.795C522.018 193.354 521.768 192.998 521.43 192.726C521.092 192.454 520.661 192.318 520.137 192.318C519.613 192.318 519.183 192.454 518.844 192.726C518.506 192.998 518.256 193.354 518.094 193.795C517.931 194.236 517.85 194.711 517.85 195.222C517.85 195.732 517.931 196.206 518.094 196.643C518.256 197.081 518.506 197.434 518.844 197.702C519.183 197.971 519.613 198.105 520.137 198.105ZM530.201 195.878V191.364H531.374V199H530.201V197.707H530.121C529.942 198.095 529.664 198.425 529.286 198.697C528.908 198.965 528.431 199.099 527.854 199.099C527.377 199.099 526.953 198.995 526.581 198.786C526.21 198.574 525.919 198.256 525.706 197.832C525.494 197.404 525.388 196.866 525.388 196.216V191.364H526.562V196.136C526.562 196.693 526.717 197.137 527.029 197.469C527.344 197.8 527.745 197.966 528.232 197.966C528.524 197.966 528.82 197.891 529.122 197.742C529.427 197.593 529.682 197.364 529.888 197.056C530.096 196.748 530.201 196.355 530.201 195.878ZM533.523 199V191.364H534.657V192.517H534.736C534.875 192.139 535.127 191.833 535.492 191.597C535.856 191.362 536.267 191.244 536.725 191.244C536.811 191.244 536.919 191.246 537.048 191.249C537.177 191.253 537.275 191.258 537.341 191.264V192.457C537.301 192.447 537.21 192.433 537.068 192.413C536.929 192.389 536.781 192.378 536.625 192.378C536.254 192.378 535.923 192.456 535.631 192.612C535.343 192.764 535.114 192.976 534.945 193.248C534.779 193.516 534.696 193.823 534.696 194.168V199H533.523Z" fill="#C4C6D7"/>
<path d="M588.881 188.818V199H587.648V188.818H588.881ZM594.515 191.364V192.358H590.558V191.364H594.515ZM591.711 189.534H592.884V196.812C592.884 197.144 592.932 197.393 593.028 197.558C593.128 197.721 593.254 197.83 593.406 197.886C593.562 197.939 593.726 197.966 593.899 197.966C594.028 197.966 594.134 197.959 594.217 197.946C594.3 197.929 594.366 197.916 594.416 197.906L594.654 198.96C594.575 198.99 594.464 199.02 594.321 199.05C594.179 199.083 593.998 199.099 593.779 199.099C593.448 199.099 593.123 199.028 592.805 198.886C592.49 198.743 592.228 198.526 592.019 198.234C591.814 197.943 591.711 197.575 591.711 197.131V189.534ZM599.4 199.159C598.664 199.159 598.029 198.997 597.495 198.672C596.965 198.344 596.556 197.886 596.267 197.3C595.982 196.71 595.84 196.024 595.84 195.241C595.84 194.459 595.982 193.77 596.267 193.173C596.556 192.573 596.957 192.106 597.471 191.771C597.988 191.433 598.591 191.264 599.28 191.264C599.678 191.264 600.071 191.33 600.459 191.463C600.846 191.596 601.199 191.811 601.517 192.109C601.836 192.404 602.089 192.795 602.278 193.283C602.467 193.77 602.562 194.37 602.562 195.082V195.58H596.675V194.565H601.368C601.368 194.134 601.282 193.75 601.11 193.412C600.941 193.074 600.699 192.807 600.384 192.612C600.072 192.416 599.705 192.318 599.28 192.318C598.813 192.318 598.409 192.434 598.067 192.666C597.729 192.895 597.469 193.193 597.287 193.561C597.104 193.929 597.013 194.323 597.013 194.744V195.42C597.013 195.997 597.113 196.486 597.312 196.887C597.514 197.285 597.794 197.588 598.152 197.797C598.51 198.002 598.926 198.105 599.4 198.105C599.708 198.105 599.986 198.062 600.235 197.976C600.487 197.886 600.704 197.754 600.886 197.578C601.068 197.399 601.209 197.177 601.309 196.912L602.442 197.23C602.323 197.615 602.122 197.953 601.841 198.244C601.559 198.533 601.211 198.758 600.797 198.92C600.382 199.08 599.917 199.159 599.4 199.159ZM604.346 199V191.364H605.48V192.557H605.579C605.738 192.149 605.995 191.833 606.35 191.607C606.705 191.379 607.13 191.264 607.628 191.264C608.131 191.264 608.551 191.379 608.885 191.607C609.223 191.833 609.487 192.149 609.676 192.557H609.755C609.951 192.162 610.244 191.849 610.635 191.617C611.026 191.382 611.495 191.264 612.042 191.264C612.725 191.264 613.284 191.478 613.718 191.906C614.152 192.33 614.369 192.991 614.369 193.889V199H613.196V193.889C613.196 193.326 613.042 192.923 612.733 192.681C612.425 192.439 612.062 192.318 611.645 192.318C611.108 192.318 610.692 192.481 610.397 192.805C610.102 193.127 609.954 193.535 609.954 194.028V199H608.761V193.77C608.761 193.336 608.62 192.986 608.339 192.721C608.057 192.452 607.694 192.318 607.25 192.318C606.945 192.318 606.66 192.399 606.395 192.562C606.133 192.724 605.921 192.95 605.758 193.238C605.599 193.523 605.52 193.853 605.52 194.227V199H604.346ZM620.611 199V188.818H626.716V189.912H621.844V193.352H626.259V194.446H621.844V199H620.611ZM628.669 199V191.364H629.842V199H628.669ZM629.265 190.091C629.036 190.091 628.839 190.013 628.674 189.857C628.511 189.701 628.43 189.514 628.43 189.295C628.43 189.077 628.511 188.889 628.674 188.734C628.839 188.578 629.036 188.5 629.265 188.5C629.494 188.5 629.689 188.578 629.852 188.734C630.018 188.889 630.1 189.077 630.1 189.295C630.1 189.514 630.018 189.701 629.852 189.857C629.689 190.013 629.494 190.091 629.265 190.091ZM638.235 191.364L635.411 199H634.218L631.394 191.364H632.667L634.775 197.449H634.854L636.962 191.364H638.235ZM642.712 199.159C641.976 199.159 641.342 198.997 640.808 198.672C640.278 198.344 639.868 197.886 639.58 197.3C639.295 196.71 639.152 196.024 639.152 195.241C639.152 194.459 639.295 193.77 639.58 193.173C639.868 192.573 640.269 192.106 640.783 191.771C641.3 191.433 641.903 191.264 642.593 191.264C642.991 191.264 643.383 191.33 643.771 191.463C644.159 191.596 644.512 191.811 644.83 192.109C645.148 192.404 645.402 192.795 645.591 193.283C645.78 193.77 645.874 194.37 645.874 195.082V195.58H639.988V194.565H644.681C644.681 194.134 644.595 193.75 644.422 193.412C644.253 193.074 644.011 192.807 643.696 192.612C643.385 192.416 643.017 192.318 642.593 192.318C642.125 192.318 641.721 192.434 641.38 192.666C641.042 192.895 640.781 193.193 640.599 193.561C640.417 193.929 640.326 194.323 640.326 194.744V195.42C640.326 195.997 640.425 196.486 640.624 196.887C640.826 197.285 641.106 197.588 641.464 197.797C641.822 198.002 642.238 198.105 642.712 198.105C643.02 198.105 643.299 198.062 643.547 197.976C643.799 197.886 644.016 197.754 644.199 197.578C644.381 197.399 644.522 197.177 644.621 196.912L645.755 197.23C645.635 197.615 645.435 197.953 645.153 198.244C644.871 198.533 644.523 198.758 644.109 198.92C643.695 199.08 643.229 199.159 642.712 199.159Z" fill="#C4C6D7"/>
<path d="M697.579 188.818V199H696.346V188.818H697.579ZM703.213 191.364V192.358H699.256V191.364H703.213ZM700.409 189.534H701.583V196.812C701.583 197.144 701.631 197.393 701.727 197.558C701.826 197.721 701.952 197.83 702.105 197.886C702.26 197.939 702.424 197.966 702.597 197.966C702.726 197.966 702.832 197.959 702.915 197.946C702.998 197.929 703.064 197.916 703.114 197.906L703.352 198.96C703.273 198.99 703.162 199.02 703.019 199.05C702.877 199.083 702.696 199.099 702.477 199.099C702.146 199.099 701.821 199.028 701.503 198.886C701.188 198.743 700.926 198.526 700.718 198.234C700.512 197.943 700.409 197.575 700.409 197.131V189.534ZM708.098 199.159C707.362 199.159 706.727 198.997 706.194 198.672C705.663 198.344 705.254 197.886 704.966 197.3C704.681 196.71 704.538 196.024 704.538 195.241C704.538 194.459 704.681 193.77 704.966 193.173C705.254 192.573 705.655 192.106 706.169 191.771C706.686 191.433 707.289 191.264 707.979 191.264C708.376 191.264 708.769 191.33 709.157 191.463C709.545 191.596 709.898 191.811 710.216 192.109C710.534 192.404 710.787 192.795 710.976 193.283C711.165 193.77 711.26 194.37 711.26 195.082V195.58H705.373V194.565H710.067C710.067 194.134 709.98 193.75 709.808 193.412C709.639 193.074 709.397 192.807 709.082 192.612C708.771 192.416 708.403 192.318 707.979 192.318C707.511 192.318 707.107 192.434 706.765 192.666C706.427 192.895 706.167 193.193 705.985 193.561C705.803 193.929 705.711 194.323 705.711 194.744V195.42C705.711 195.997 705.811 196.486 706.01 196.887C706.212 197.285 706.492 197.588 706.85 197.797C707.208 198.002 707.624 198.105 708.098 198.105C708.406 198.105 708.684 198.062 708.933 197.976C709.185 197.886 709.402 197.754 709.584 197.578C709.767 197.399 709.907 197.177 710.007 196.912L711.14 197.23C711.021 197.615 710.821 197.953 710.539 198.244C710.257 198.533 709.909 198.758 709.495 198.92C709.081 199.08 708.615 199.159 708.098 199.159ZM713.045 199V191.364H714.178V192.557H714.278C714.437 192.149 714.693 191.833 715.048 191.607C715.403 191.379 715.829 191.264 716.326 191.264C716.83 191.264 717.249 191.379 717.584 191.607C717.922 191.833 718.185 192.149 718.374 192.557H718.454C718.649 192.162 718.943 191.849 719.334 191.617C719.725 191.382 720.194 191.264 720.741 191.264C721.423 191.264 721.982 191.478 722.416 191.906C722.85 192.33 723.067 192.991 723.067 193.889V199H721.894V193.889C721.894 193.326 721.74 192.923 721.432 192.681C721.123 192.439 720.76 192.318 720.343 192.318C719.806 192.318 719.39 192.481 719.095 192.805C718.8 193.127 718.653 193.535 718.653 194.028V199H717.459V193.77C717.459 193.336 717.318 192.986 717.037 192.721C716.755 192.452 716.392 192.318 715.948 192.318C715.643 192.318 715.358 192.399 715.093 192.562C714.831 192.724 714.619 192.95 714.456 193.238C714.297 193.523 714.218 193.853 714.218 194.227V199H713.045ZM734.877 191.364C734.818 190.86 734.576 190.469 734.151 190.19C733.727 189.912 733.207 189.773 732.59 189.773C732.14 189.773 731.745 189.846 731.407 189.991C731.072 190.137 730.811 190.338 730.622 190.593C730.436 190.848 730.343 191.138 730.343 191.463C730.343 191.735 730.408 191.969 730.537 192.164C730.67 192.356 730.839 192.517 731.044 192.646C731.25 192.772 731.465 192.877 731.691 192.96C731.916 193.039 732.123 193.104 732.312 193.153L733.346 193.432C733.611 193.501 733.906 193.598 734.231 193.72C734.559 193.843 734.872 194.01 735.171 194.222C735.472 194.431 735.721 194.7 735.916 195.028C736.112 195.356 736.21 195.759 736.21 196.236C736.21 196.786 736.066 197.283 735.777 197.727C735.492 198.171 735.075 198.524 734.524 198.786C733.977 199.048 733.313 199.179 732.531 199.179C731.802 199.179 731.17 199.061 730.637 198.826C730.106 198.591 729.689 198.263 729.384 197.842C729.082 197.421 728.911 196.932 728.872 196.375H730.144C730.177 196.759 730.307 197.078 730.532 197.33C730.761 197.578 731.049 197.764 731.397 197.886C731.749 198.006 732.126 198.065 732.531 198.065C733.001 198.065 733.424 197.989 733.798 197.837C734.173 197.681 734.47 197.465 734.688 197.19C734.907 196.912 735.017 196.587 735.017 196.216C735.017 195.878 734.922 195.603 734.733 195.391C734.544 195.179 734.296 195.006 733.987 194.874C733.679 194.741 733.346 194.625 732.988 194.526L731.735 194.168C730.94 193.939 730.31 193.612 729.846 193.188C729.382 192.764 729.15 192.209 729.15 191.523C729.15 190.953 729.304 190.455 729.612 190.031C729.924 189.604 730.342 189.272 730.865 189.037C731.392 188.798 731.981 188.679 732.63 188.679C733.286 188.679 733.87 188.797 734.38 189.032C734.891 189.264 735.295 189.582 735.593 189.987C735.895 190.391 736.054 190.85 736.07 191.364H734.877ZM738.078 199V191.364H739.251V199H738.078ZM738.674 190.091C738.446 190.091 738.248 190.013 738.083 189.857C737.92 189.701 737.839 189.514 737.839 189.295C737.839 189.077 737.92 188.889 738.083 188.734C738.248 188.578 738.446 188.5 738.674 188.5C738.903 188.5 739.099 188.578 739.261 188.734C739.427 188.889 739.51 189.077 739.51 189.295C739.51 189.514 739.427 189.701 739.261 189.857C739.099 190.013 738.903 190.091 738.674 190.091ZM742.275 191.364L744.105 194.486L745.934 191.364H747.286L744.82 195.182L747.286 199H745.934L744.105 196.037L742.275 199H740.923L743.349 195.182L740.923 191.364H742.275Z" fill="#C4C6D7"/>
<path fill-rule="evenodd" clip-rule="evenodd" d="M771.293 199.707C770.902 199.317 770.902 198.683 771.293 198.293L774.586 195L771.293 191.707C770.902 191.317 770.902 190.683 771.293 190.293C771.683 189.902 772.317 189.902 772.707 190.293L776.707 194.293C777.098 194.683 777.098 195.317 776.707 195.707L772.707 199.707C772.317 200.098 771.683 200.098 771.293 199.707Z" fill="#4F5769"/>
<rect x="0.5" y="0.5" width="993" height="275" rx="16.5" stroke="#282A3B"/>
<defs>
<linearGradient id="paint0_linear_1211_80512" x1="755.5" y1="82" x2="429" y2="75.5" gradientUnits="userSpaceOnUse">
<stop stop-color="#14141F"/>
<stop offset="0.560656" stop-color="#14141F" stop-opacity="0"/>
</linearGradient>
</defs>
</svg>
