<svg width="482" height="181" viewBox="0 0 482 181" fill="none" xmlns="http://www.w3.org/2000/svg">
<g clip-path="url(#clip0_1188_81516)">
<rect x="1" y="1" width="480" height="179" rx="16" fill="#1B1B28"/>
<rect x="-161.5" y="0.0500488" width="200" height="1" fill="#282A3B"/>
<rect x="38.5" y="0.0500488" width="180" height="1" fill="#282A3B"/>
<rect x="218.5" y="0.0500488" width="180" height="1" fill="#282A3B"/>
<rect x="398.5" y="0.0500488" width="200" height="1" fill="#282A3B"/>
<rect x="-161.5" y="80.0498" width="200" height="1" fill="#282A3B"/>
<rect width="200" height="79.1011" transform="translate(-161.5 0.999512)" fill="#1B1B28"/>
<rect x="38.5" y="80.0498" width="180" height="1" fill="#282A3B"/>
<rect width="180" height="79.1011" transform="translate(38.5 0.999512)" fill="#1B1B28"/>
<rect x="70.5" y="24.05" width="104" height="33" rx="16.5" fill="#282A3B"/>
<path d="M89.0552 40.1239L88.0012 40.4222C87.935 40.2465 87.8372 40.0759 87.7079 39.9101C87.582 39.7411 87.4096 39.6019 87.1909 39.4925C86.9721 39.3831 86.6921 39.3285 86.3507 39.3285C85.8833 39.3285 85.4939 39.4362 85.1824 39.6516C84.8741 39.8637 84.72 40.1339 84.72 40.462C84.72 40.7536 84.8261 40.984 85.0382 41.153C85.2503 41.3221 85.5817 41.4629 86.0325 41.5756L87.166 41.854C87.8488 42.0197 88.3575 42.2733 88.6923 42.6147C89.027 42.9527 89.1944 43.3886 89.1944 43.9222C89.1944 44.3597 89.0685 44.7508 88.8166 45.0955C88.568 45.4402 88.22 45.712 87.7725 45.9108C87.3251 46.1097 86.8047 46.2091 86.2115 46.2091C85.4326 46.2091 84.7879 46.0401 84.2775 45.702C83.7671 45.364 83.444 44.8701 83.3081 44.2205L84.4217 43.9421C84.5278 44.3531 84.7283 44.6613 85.0233 44.8668C85.3216 45.0723 85.711 45.175 86.1916 45.175C86.7385 45.175 87.1726 45.059 87.4941 44.827C87.819 44.5917 87.9814 44.31 87.9814 43.9819C87.9814 43.7167 87.8886 43.4947 87.7029 43.3157C87.5173 43.1334 87.2323 42.9975 86.8478 42.908L85.5751 42.6097C84.8758 42.444 84.362 42.1871 84.0339 41.8391C83.7091 41.4878 83.5467 41.0486 83.5467 40.5216C83.5467 40.0908 83.6677 39.7096 83.9096 39.3782C84.1549 39.0467 84.488 38.7866 84.9089 38.5976C85.3332 38.4087 85.8137 38.3143 86.3507 38.3143C87.1064 38.3143 87.6996 38.48 88.1305 38.8114C88.5647 39.1429 88.8729 39.5804 89.0552 40.1239ZM94.0629 46.2091C93.3469 46.2091 92.7305 46.0401 92.2134 45.702C91.6964 45.364 91.2987 44.8983 91.0202 44.305C90.7418 43.7117 90.6026 43.034 90.6026 42.2716C90.6026 41.4961 90.7451 40.8116 91.0302 40.2184C91.3185 39.6218 91.7196 39.1561 92.2333 38.8214C92.7504 38.4833 93.3536 38.3143 94.043 38.3143C94.5799 38.3143 95.0638 38.4137 95.4947 38.6125C95.9255 38.8114 96.2785 39.0898 96.5536 39.4478C96.8287 39.8057 96.9994 40.2233 97.0657 40.7006H95.8924C95.8029 40.3526 95.604 40.0444 95.2958 39.7759C94.9909 39.5041 94.5799 39.3682 94.0629 39.3682C93.6055 39.3682 93.2044 39.4875 92.8597 39.7262C92.5183 39.9615 92.2515 40.2946 92.0593 40.7255C91.8704 41.153 91.7759 41.6552 91.7759 42.2319C91.7759 42.8218 91.8687 43.3356 92.0543 43.7731C92.2433 44.2106 92.5084 44.5503 92.8498 44.7922C93.1945 45.0342 93.5988 45.1552 94.0629 45.1552C94.3678 45.1552 94.6445 45.1021 94.8931 44.9961C95.1417 44.89 95.3522 44.7375 95.5245 44.5387C95.6969 44.3398 95.8195 44.1012 95.8924 43.8228H97.0657C96.9994 44.2735 96.8353 44.6795 96.5735 45.0408C96.315 45.3988 95.9719 45.6838 95.5444 45.8959C95.1201 46.1047 94.6263 46.2091 94.0629 46.2091ZM99.9542 41.4563V46.05H98.7809V35.8682H99.9542V39.6069H100.054C100.233 39.2125 100.501 38.8992 100.859 38.6672C101.22 38.4319 101.701 38.3143 102.301 38.3143C102.821 38.3143 103.277 38.4187 103.668 38.6275C104.059 38.833 104.362 39.1495 104.578 39.577C104.797 40.0013 104.906 40.5415 104.906 41.1978V46.05H103.733V41.2773C103.733 40.6708 103.575 40.2018 103.26 39.8704C102.949 39.5356 102.516 39.3682 101.963 39.3682C101.578 39.3682 101.234 39.4494 100.929 39.6118C100.627 39.7742 100.388 40.0112 100.213 40.3228C100.04 40.6343 99.9542 41.0122 99.9542 41.4563ZM110.254 46.2091C109.518 46.2091 108.884 46.0467 108.35 45.7219C107.82 45.3938 107.41 44.9364 107.122 44.3498C106.837 43.7598 106.694 43.0737 106.694 42.2915C106.694 41.5093 106.837 40.8199 107.122 40.2233C107.41 39.6234 107.811 39.1561 108.325 38.8214C108.842 38.4833 109.445 38.3143 110.135 38.3143C110.532 38.3143 110.925 38.3805 111.313 38.5131C111.701 38.6457 112.054 38.8611 112.372 39.1594C112.69 39.4544 112.944 39.8455 113.133 40.3327C113.322 40.8199 113.416 41.4198 113.416 42.1324V42.6296H107.53V41.6154H112.223C112.223 41.1845 112.137 40.8 111.964 40.462C111.795 40.1239 111.553 39.8571 111.238 39.6616C110.927 39.466 110.559 39.3682 110.135 39.3682C109.667 39.3682 109.263 39.4842 108.922 39.7162C108.584 39.9449 108.323 40.2432 108.141 40.6111C107.959 40.979 107.868 41.3734 107.868 41.7944V42.4705C107.868 43.0472 107.967 43.5361 108.166 43.9371C108.368 44.3348 108.648 44.6381 109.006 44.8469C109.364 45.0524 109.78 45.1552 110.254 45.1552C110.562 45.1552 110.841 45.1121 111.089 45.0259C111.341 44.9364 111.558 44.8038 111.741 44.6282C111.923 44.4492 112.064 44.2271 112.163 43.962L113.297 44.2802C113.177 44.6646 112.977 45.0027 112.695 45.2944C112.413 45.5827 112.065 45.8081 111.651 45.9705C111.237 46.1296 110.771 46.2091 110.254 46.2091ZM118.084 46.2091C117.448 46.2091 116.886 46.0484 116.399 45.7269C115.912 45.4021 115.531 44.9447 115.256 44.3547C114.98 43.7615 114.843 43.0605 114.843 42.2518C114.843 41.4497 114.98 40.7536 115.256 40.1637C115.531 39.5737 115.913 39.118 116.404 38.7965C116.894 38.475 117.461 38.3143 118.104 38.3143C118.601 38.3143 118.994 38.3971 119.282 38.5628C119.574 38.7252 119.796 38.9108 119.949 39.1197C120.104 39.3251 120.225 39.4942 120.312 39.6268H120.411V35.8682H121.584V46.05H120.451V44.8768H120.312C120.225 45.016 120.103 45.1916 119.944 45.4037C119.785 45.6125 119.558 45.7998 119.263 45.9655C118.968 46.1279 118.575 46.2091 118.084 46.2091ZM118.243 45.1552C118.714 45.1552 119.112 45.0325 119.437 44.7873C119.761 44.5387 120.008 44.1956 120.177 43.7581C120.346 43.3173 120.431 42.8086 120.431 42.2319C120.431 41.6618 120.348 41.163 120.182 40.7354C120.017 40.3045 119.771 39.9698 119.447 39.7312C119.122 39.4892 118.721 39.3682 118.243 39.3682C117.746 39.3682 117.332 39.4958 117.001 39.751C116.672 40.0029 116.425 40.346 116.26 40.7802C116.097 41.211 116.016 41.6949 116.016 42.2319C116.016 42.7754 116.099 43.2693 116.265 43.7134C116.434 44.1542 116.682 44.5055 117.01 44.7674C117.342 45.0259 117.753 45.1552 118.243 45.1552ZM128.709 42.9279V38.4137H129.882V46.05H128.709V44.7574H128.629C128.45 45.1452 128.172 45.475 127.794 45.7468C127.416 46.0152 126.939 46.1495 126.362 46.1495C125.885 46.1495 125.461 46.0451 125.089 45.8363C124.718 45.6241 124.426 45.306 124.214 44.8817C124.002 44.4542 123.896 43.9156 123.896 43.266V38.4137H125.069V43.1864C125.069 43.7432 125.225 44.1874 125.537 44.5188C125.852 44.8502 126.253 45.016 126.74 45.016C127.032 45.016 127.328 44.9414 127.63 44.7922C127.935 44.6431 128.19 44.4144 128.395 44.1062C128.604 43.7979 128.709 43.4052 128.709 42.9279ZM133.204 35.8682V46.05H132.031V35.8682H133.204ZM138.555 46.2091C137.819 46.2091 137.184 46.0467 136.651 45.7219C136.12 45.3938 135.711 44.9364 135.423 44.3498C135.138 43.7598 134.995 43.0737 134.995 42.2915C134.995 41.5093 135.138 40.8199 135.423 40.2233C135.711 39.6234 136.112 39.1561 136.626 38.8214C137.143 38.4833 137.746 38.3143 138.436 38.3143C138.833 38.3143 139.226 38.3805 139.614 38.5131C140.002 38.6457 140.355 38.8611 140.673 39.1594C140.991 39.4544 141.244 39.8455 141.433 40.3327C141.622 40.8199 141.717 41.4198 141.717 42.1324V42.6296H135.83V41.6154H140.524C140.524 41.1845 140.437 40.8 140.265 40.462C140.096 40.1239 139.854 39.8571 139.539 39.6616C139.228 39.466 138.86 39.3682 138.436 39.3682C137.968 39.3682 137.564 39.4842 137.222 39.7162C136.884 39.9449 136.624 40.2432 136.442 40.6111C136.26 40.979 136.169 41.3734 136.169 41.7944V42.4705C136.169 43.0472 136.268 43.5361 136.467 43.9371C136.669 44.3348 136.949 44.6381 137.307 44.8469C137.665 45.0524 138.081 45.1552 138.555 45.1552C138.863 45.1552 139.142 45.1121 139.39 45.0259C139.642 44.9364 139.859 44.8038 140.041 44.6282C140.224 44.4492 140.365 44.2271 140.464 43.962L141.597 44.2802C141.478 44.6646 141.278 45.0027 140.996 45.2944C140.714 45.5827 140.366 45.8081 139.952 45.9705C139.538 46.1296 139.072 46.2091 138.555 46.2091Z" fill="#C4C6D7"/>
<path d="M152.235 35.0827C152.517 34.7582 152.864 34.498 153.255 34.3198C153.646 34.1417 154.071 34.0496 154.5 34.0501C155.405 34.0501 156.215 34.4501 156.765 35.0827C157.193 35.0521 157.623 35.1141 158.026 35.2645C158.428 35.4148 158.793 35.65 159.097 35.9541C159.401 36.2574 159.636 36.6226 159.786 37.0249C159.936 37.4271 159.998 37.857 159.968 38.2854C160.292 38.5668 160.552 38.9146 160.731 39.3054C160.909 39.6961 161 40.1206 161 40.55C161 40.9795 160.908 41.404 160.73 41.7948C160.552 42.1856 160.292 42.5334 159.967 42.8147C159.998 43.2431 159.936 43.673 159.785 44.0752C159.635 44.4775 159.4 44.8427 159.096 45.146C158.793 45.45 158.427 45.6851 158.025 45.8354C157.623 45.9858 157.193 46.0478 156.765 46.0174C156.483 46.3419 156.136 46.6021 155.745 46.7803C155.354 46.9584 154.929 47.0505 154.5 47.05C154.071 47.0505 153.646 46.9584 153.255 46.7803C152.864 46.6021 152.517 46.3419 152.235 46.0174C151.807 46.0481 151.377 45.9862 150.975 45.836C150.572 45.6857 150.207 45.4507 149.903 45.1467C149.599 44.8433 149.364 44.478 149.214 44.0756C149.063 43.6732 149.001 43.2432 149.032 42.8147C148.708 42.5333 148.448 42.1855 148.269 41.7947C148.091 41.404 148 40.9795 148 40.55C148 39.6454 148.4 38.8347 149.033 38.2854C149.002 37.857 149.064 37.4271 149.215 37.0249C149.365 36.6226 149.6 36.2574 149.904 35.9541C150.207 35.6501 150.573 35.4149 150.975 35.2646C151.377 35.1143 151.807 35.0522 152.235 35.0827ZM156.907 39.3407C156.947 39.2874 156.976 39.2267 156.992 39.162C157.008 39.0974 157.011 39.0301 157.001 38.9643C156.991 38.8984 156.968 38.8353 156.933 38.7785C156.898 38.7218 156.852 38.6726 156.798 38.6338C156.743 38.5951 156.682 38.5675 156.617 38.5529C156.552 38.5382 156.485 38.5367 156.419 38.5484C156.353 38.5601 156.291 38.5848 156.235 38.621C156.179 38.6572 156.131 38.7043 156.093 38.7594L153.936 41.7794L152.853 40.6967C152.759 40.6084 152.633 40.5603 152.504 40.5626C152.374 40.5649 152.251 40.6174 152.159 40.709C152.067 40.8006 152.015 40.9242 152.013 41.0537C152.01 41.1832 152.058 41.3086 152.147 41.4034L153.647 42.9034C153.698 42.9547 153.76 42.9942 153.828 43.0191C153.896 43.0441 153.969 43.054 154.041 43.048C154.113 43.042 154.184 43.0204 154.247 42.9846C154.31 42.9488 154.364 42.8997 154.407 42.8407L156.907 39.3407Z" fill="#C4C6D7"/>
<rect x="218.5" y="80.0498" width="180" height="1" fill="#282A3B"/>
<rect width="180" height="79.1011" transform="translate(218.5 0.999512)" fill="#1B1B28"/>
<path d="M259.926 39.05H258.693C258.62 38.6954 258.493 38.3839 258.31 38.1154C258.131 37.8469 257.913 37.6215 257.654 37.4393C257.399 37.2536 257.116 37.1144 256.804 37.0216C256.492 36.9288 256.168 36.8824 255.83 36.8824C255.213 36.8824 254.655 37.0382 254.154 37.3498C253.657 37.6613 253.261 38.1204 252.966 38.7269C252.674 39.3334 252.528 40.0775 252.528 40.9591C252.528 41.8408 252.674 42.5848 252.966 43.1914C253.261 43.7979 253.657 44.257 254.154 44.5685C254.655 44.8801 255.213 45.0358 255.83 45.0358C256.168 45.0358 256.492 44.9894 256.804 44.8966C257.116 44.8038 257.399 44.6663 257.654 44.484C257.913 44.2984 258.131 44.0714 258.31 43.8029C258.493 43.5311 258.62 43.2196 258.693 42.8682H259.926C259.833 43.3886 259.664 43.8543 259.419 44.2652C259.174 44.6762 258.869 45.0259 258.504 45.3143C258.14 45.5993 257.73 45.8164 257.276 45.9655C256.826 46.1147 256.343 46.1893 255.83 46.1893C254.961 46.1893 254.189 45.9771 253.513 45.5529C252.837 45.1286 252.305 44.5254 251.917 43.7432C251.529 42.961 251.335 42.033 251.335 40.9591C251.335 39.8853 251.529 38.9572 251.917 38.175C252.305 37.3929 252.837 36.7896 253.513 36.3654C254.189 35.9411 254.961 35.729 255.83 35.729C256.343 35.729 256.826 35.8036 257.276 35.9527C257.73 36.1019 258.14 36.3206 258.504 36.609C258.869 36.894 259.174 37.242 259.419 37.653C259.664 38.0607 259.833 38.5264 259.926 39.05ZM261.919 46.05V35.8682H263.151V44.9563H267.884V46.05H261.919ZM271.026 35.8682V46.05H269.794V35.8682H271.026Z" fill="#C4C6D7"/>
<rect x="398.5" y="80.0498" width="200" height="1" fill="#282A3B"/>
<rect width="200" height="79.1011" transform="translate(398.5 0.999512)" fill="#1B1B28"/>
<path d="M434.875 46.1893C434.126 46.1893 433.488 45.9854 432.961 45.5777C432.434 45.1668 432.031 44.5718 431.753 43.7929C431.474 43.0107 431.335 42.0661 431.335 40.9591C431.335 39.8588 431.474 38.9191 431.753 38.1402C432.035 37.3581 432.439 36.7615 432.966 36.3505C433.496 35.9362 434.133 35.729 434.875 35.729C435.617 35.729 436.252 35.9362 436.779 36.3505C437.309 36.7615 437.714 37.3581 437.992 38.1402C438.274 38.9191 438.415 39.8588 438.415 40.9591C438.415 42.0661 438.276 43.0107 437.997 43.7929C437.719 44.5718 437.316 45.1668 436.789 45.5777C436.262 45.9854 435.624 46.1893 434.875 46.1893ZM434.875 45.0955C435.617 45.0955 436.194 44.7375 436.605 44.0216C437.016 43.3057 437.222 42.2849 437.222 40.9591C437.222 40.0775 437.127 39.3268 436.938 38.707C436.753 38.0872 436.484 37.6149 436.133 37.2901C435.785 36.9653 435.366 36.8029 434.875 36.8029C434.139 36.8029 433.564 37.1658 433.15 37.8917C432.736 38.6142 432.528 39.6367 432.528 40.9591C432.528 41.8408 432.621 42.5898 432.807 43.2063C432.992 43.8228 433.259 44.2918 433.607 44.6133C433.959 44.9348 434.381 45.0955 434.875 45.0955ZM443.884 35.8682V46.05H442.651V37.1608H442.591L440.105 38.8114V37.5586L442.651 35.8682H443.884ZM447.687 44.7475C447.442 44.7475 447.231 44.6597 447.055 44.484C446.88 44.3083 446.792 44.0979 446.792 43.8526C446.792 43.6073 446.88 43.3969 447.055 43.2212C447.231 43.0456 447.442 42.9577 447.687 42.9577C447.932 42.9577 448.143 43.0456 448.318 43.2212C448.494 43.3969 448.582 43.6073 448.582 43.8526C448.582 44.015 448.54 44.1642 448.457 44.3C448.378 44.4359 448.27 44.5453 448.134 44.6282C448.002 44.7077 447.853 44.7475 447.687 44.7475ZM447.687 39.5969C447.442 39.5969 447.231 39.5091 447.055 39.3334C446.88 39.1578 446.792 38.9473 446.792 38.702C446.792 38.4568 446.88 38.2463 447.055 38.0706C447.231 37.895 447.442 37.8072 447.687 37.8072C447.932 37.8072 448.143 37.895 448.318 38.0706C448.494 38.2463 448.582 38.4568 448.582 38.702C448.582 38.8644 448.54 39.0136 448.457 39.1495C448.378 39.2854 448.27 39.3947 448.134 39.4776C448.002 39.5572 447.853 39.5969 447.687 39.5969ZM453.988 46.1893C453.239 46.1893 452.601 45.9854 452.074 45.5777C451.547 45.1668 451.145 44.5718 450.866 43.7929C450.588 43.0107 450.449 42.0661 450.449 40.9591C450.449 39.8588 450.588 38.9191 450.866 38.1402C451.148 37.3581 451.552 36.7615 452.079 36.3505C452.609 35.9362 453.246 35.729 453.988 35.729C454.731 35.729 455.365 35.9362 455.892 36.3505C456.423 36.7615 456.827 37.3581 457.105 38.1402C457.387 38.9191 457.528 39.8588 457.528 40.9591C457.528 42.0661 457.389 43.0107 457.11 43.7929C456.832 44.5718 456.429 45.1668 455.902 45.5777C455.375 45.9854 454.737 46.1893 453.988 46.1893ZM453.988 45.0955C454.731 45.0955 455.307 44.7375 455.718 44.0216C456.129 43.3057 456.335 42.2849 456.335 40.9591C456.335 40.0775 456.24 39.3268 456.051 38.707C455.866 38.0872 455.597 37.6149 455.246 37.2901C454.898 36.9653 454.479 36.8029 453.988 36.8029C453.252 36.8029 452.677 37.1658 452.263 37.8917C451.849 38.6142 451.642 39.6367 451.642 40.9591C451.642 41.8408 451.734 42.5898 451.92 43.2063C452.106 43.8228 452.373 44.2918 452.721 44.6133C453.072 44.9348 453.494 45.0955 453.988 45.0955ZM462.599 46.1893C462.016 46.1893 461.49 46.0732 461.023 45.8412C460.556 45.6092 460.181 45.2911 459.9 44.8867C459.618 44.4823 459.464 44.0216 459.437 43.5046H460.63C460.677 43.9653 460.886 44.3465 461.257 44.6481C461.631 44.9464 462.079 45.0955 462.599 45.0955C463.017 45.0955 463.388 44.9977 463.713 44.8022C464.041 44.6066 464.298 44.3382 464.483 43.9968C464.672 43.6521 464.767 43.2626 464.767 42.8285C464.767 42.3843 464.669 41.9883 464.473 41.6402C464.281 41.2889 464.016 41.0122 463.678 40.81C463.34 40.6078 462.954 40.5051 462.52 40.5018C462.208 40.4984 461.888 40.5465 461.56 40.6459C461.232 40.742 460.962 40.8663 460.75 41.0188L459.596 40.8796L460.213 35.8682H465.502V36.962H461.247L460.889 39.9648H460.949C461.157 39.7991 461.419 39.6616 461.734 39.5522C462.049 39.4428 462.377 39.3881 462.718 39.3881C463.342 39.3881 463.897 39.5373 464.384 39.8356C464.874 40.1305 465.259 40.5349 465.537 41.0486C465.819 41.5624 465.96 42.149 465.96 42.8086C465.96 43.4582 465.814 44.0382 465.522 44.5486C465.234 45.0557 464.836 45.4568 464.329 45.7518C463.822 46.0434 463.245 46.1893 462.599 46.1893ZM467.955 46.05V38.4137H469.088V39.6069H469.188C469.347 39.1992 469.604 38.8827 469.958 38.6573C470.313 38.4286 470.739 38.3143 471.236 38.3143C471.74 38.3143 472.159 38.4286 472.494 38.6573C472.832 38.8827 473.095 39.1992 473.284 39.6069H473.364C473.559 39.2125 473.853 38.8992 474.244 38.6672C474.635 38.4319 475.104 38.3143 475.651 38.3143C476.334 38.3143 476.892 38.528 477.326 38.9556C477.76 39.3798 477.977 40.0411 477.977 40.9393V46.05H476.804V40.9393C476.804 40.3758 476.65 39.9731 476.342 39.7312C476.034 39.4892 475.671 39.3682 475.253 39.3682C474.716 39.3682 474.3 39.5306 474.005 39.8554C473.71 40.1769 473.563 40.5846 473.563 41.0785V46.05H472.369V40.8199C472.369 40.3857 472.229 40.0361 471.947 39.7709C471.665 39.5025 471.302 39.3682 470.858 39.3682C470.553 39.3682 470.268 39.4494 470.003 39.6118C469.741 39.7742 469.529 39.9996 469.367 40.288C469.208 40.573 469.128 40.9028 469.128 41.2773V46.05H467.955Z" fill="#C4C6D7"/>
<rect x="-161.5" y="160.05" width="200" height="1" fill="#282A3B"/>
<rect width="200" height="79.1011" transform="translate(-161.5 80.9995)" fill="#1B1B28"/>
<rect x="38.5" y="160.05" width="180" height="1" fill="#282A3B"/>
<rect width="180" height="79.1011" transform="translate(38.5 80.9995)" fill="#1B1B28"/>
<rect x="70.5" y="104.05" width="81" height="33" rx="16.5" fill="#282A3B"/>
<path d="M88.2353 115.083C88.5166 114.758 88.8645 114.498 89.2552 114.32C89.646 114.142 90.0705 114.05 90.5 114.05C91.4047 114.05 92.2153 114.45 92.7647 115.083C93.1931 115.052 93.6232 115.114 94.0255 115.265C94.4279 115.415 94.7932 115.65 95.0967 115.954C95.4006 116.258 95.6357 116.623 95.7861 117.025C95.9364 117.427 95.9985 117.857 95.968 118.286C96.2924 118.567 96.5525 118.915 96.7305 119.306C96.9086 119.696 97.0005 120.121 97 120.55C97.0004 120.98 96.9084 121.404 96.7302 121.795C96.552 122.186 96.2919 122.534 95.9673 122.815C95.9978 123.243 95.9357 123.673 95.7854 124.075C95.6351 124.478 95.3999 124.843 95.096 125.146C94.7926 125.45 94.4274 125.685 94.0252 125.836C93.6229 125.986 93.193 126.048 92.7647 126.018C92.4834 126.342 92.1355 126.602 91.7448 126.781C91.354 126.959 90.9295 127.051 90.5 127.05C90.0705 127.051 89.646 126.959 89.2552 126.781C88.8645 126.602 88.5166 126.342 88.2353 126.018C87.8069 126.048 87.3769 125.986 86.9745 125.836C86.5722 125.686 86.2068 125.451 85.9033 125.147C85.5993 124.844 85.3641 124.478 85.2138 124.076C85.0635 123.673 85.0015 123.243 85.032 122.815C84.7076 122.534 84.4476 122.186 84.2695 121.795C84.0914 121.404 83.9995 120.98 84 120.55C84 119.646 84.4 118.835 85.0327 118.286C85.0022 117.857 85.0642 117.427 85.2145 117.025C85.3649 116.623 85.6 116.258 85.904 115.954C86.2074 115.65 86.5726 115.415 86.9748 115.265C87.3771 115.114 87.807 115.052 88.2353 115.083ZM92.9067 119.341C92.9467 119.288 92.9756 119.227 92.9918 119.162C93.008 119.098 93.0111 119.03 93.0009 118.965C92.9907 118.899 92.9675 118.836 92.9326 118.779C92.8976 118.722 92.8517 118.673 92.7975 118.634C92.7433 118.595 92.6819 118.568 92.6169 118.553C92.5519 118.538 92.4846 118.537 92.419 118.549C92.3534 118.56 92.2908 118.585 92.2349 118.621C92.1789 118.657 92.1308 118.705 92.0933 118.76L89.936 121.78L88.8533 120.697C88.7586 120.609 88.6332 120.561 88.5037 120.563C88.3741 120.565 88.2505 120.618 88.1589 120.709C88.0673 120.801 88.0148 120.924 88.0126 121.054C88.0103 121.183 88.0583 121.309 88.1467 121.404L89.6467 122.904C89.698 122.955 89.7599 122.994 89.828 123.019C89.8961 123.044 89.9689 123.054 90.0412 123.048C90.1135 123.042 90.1836 123.021 90.2468 122.985C90.3099 122.949 90.3644 122.9 90.4067 122.841L92.9067 119.341Z" fill="#C4C6D7"/>
<path d="M106.846 126.209C106.11 126.209 105.475 126.047 104.942 125.722C104.411 125.394 104.002 124.937 103.714 124.35C103.429 123.76 103.286 123.074 103.286 122.292C103.286 121.51 103.429 120.82 103.714 120.224C104.002 119.624 104.403 119.156 104.917 118.822C105.434 118.484 106.037 118.314 106.727 118.314C107.124 118.314 107.517 118.381 107.905 118.513C108.293 118.646 108.646 118.861 108.964 119.16C109.282 119.455 109.536 119.846 109.724 120.333C109.913 120.82 110.008 121.42 110.008 122.133V122.63H104.121V121.616H108.815C108.815 121.185 108.728 120.8 108.556 120.462C108.387 120.124 108.145 119.857 107.83 119.662C107.519 119.466 107.151 119.368 106.727 119.368C106.259 119.368 105.855 119.484 105.513 119.716C105.175 119.945 104.915 120.243 104.733 120.611C104.551 120.979 104.46 121.374 104.46 121.795V122.471C104.46 123.047 104.559 123.536 104.758 123.937C104.96 124.335 105.24 124.638 105.598 124.847C105.956 125.053 106.372 125.155 106.846 125.155C107.154 125.155 107.433 125.112 107.681 125.026C107.933 124.937 108.15 124.804 108.332 124.628C108.515 124.449 108.656 124.227 108.755 123.962L109.888 124.28C109.769 124.665 109.569 125.003 109.287 125.295C109.005 125.583 108.657 125.808 108.243 125.971C107.829 126.13 107.363 126.209 106.846 126.209ZM117.805 118.414L114.981 126.05H113.787L110.964 118.414H112.236L114.344 124.499H114.424L116.532 118.414H117.805ZM122.281 126.209C121.546 126.209 120.911 126.047 120.377 125.722C119.847 125.394 119.438 124.937 119.149 124.35C118.864 123.76 118.722 123.074 118.722 122.292C118.722 121.51 118.864 120.82 119.149 120.224C119.438 119.624 119.839 119.156 120.352 118.822C120.869 118.484 121.473 118.314 122.162 118.314C122.56 118.314 122.953 118.381 123.34 118.513C123.728 118.646 124.081 118.861 124.399 119.16C124.718 119.455 124.971 119.846 125.16 120.333C125.349 120.82 125.443 121.42 125.443 122.133V122.63H119.557V121.616H124.25C124.25 121.185 124.164 120.8 123.992 120.462C123.823 120.124 123.581 119.857 123.266 119.662C122.954 119.466 122.586 119.368 122.162 119.368C121.695 119.368 121.29 119.484 120.949 119.716C120.611 119.945 120.351 120.243 120.169 120.611C119.986 120.979 119.895 121.374 119.895 121.795V122.471C119.895 123.047 119.994 123.536 120.193 123.937C120.396 124.335 120.676 124.638 121.034 124.847C121.392 125.053 121.807 125.155 122.281 125.155C122.59 125.155 122.868 125.112 123.117 125.026C123.369 124.937 123.586 124.804 123.768 124.628C123.95 124.449 124.091 124.227 124.191 123.962L125.324 124.28C125.205 124.665 125.004 125.003 124.722 125.295C124.441 125.583 124.093 125.808 123.678 125.971C123.264 126.13 122.798 126.209 122.281 126.209ZM128.401 121.457V126.05H127.228V118.414H128.362V119.607H128.461C128.64 119.219 128.912 118.908 129.276 118.672C129.641 118.434 130.112 118.314 130.688 118.314C131.205 118.314 131.658 118.421 132.046 118.633C132.433 118.841 132.735 119.16 132.95 119.587C133.166 120.011 133.274 120.548 133.274 121.198V126.05H132.1V121.278C132.1 120.678 131.945 120.21 131.633 119.876C131.321 119.538 130.894 119.368 130.35 119.368C129.976 119.368 129.641 119.45 129.346 119.612C129.054 119.774 128.824 120.011 128.655 120.323C128.486 120.635 128.401 121.012 128.401 121.457ZM138.739 118.414V119.408H134.781V118.414H138.739ZM135.935 116.584H137.108V123.863C137.108 124.194 137.156 124.443 137.252 124.609C137.352 124.771 137.478 124.88 137.63 124.937C137.786 124.99 137.95 125.016 138.122 125.016C138.251 125.016 138.357 125.01 138.44 124.996C138.523 124.98 138.589 124.966 138.639 124.957L138.878 126.011C138.798 126.04 138.687 126.07 138.545 126.1C138.402 126.133 138.222 126.15 138.003 126.15C137.671 126.15 137.347 126.078 137.028 125.936C136.714 125.793 136.452 125.576 136.243 125.285C136.037 124.993 135.935 124.625 135.935 124.181V116.584Z" fill="#C4C6D7"/>
<rect x="218.5" y="160.05" width="180" height="1" fill="#282A3B"/>
<rect width="180" height="79.1011" transform="translate(218.5 80.9995)" fill="#1B1B28"/>
<path d="M259.926 119.05H258.693C258.62 118.696 258.493 118.384 258.31 118.116C258.131 117.847 257.913 117.622 257.654 117.439C257.399 117.254 257.116 117.115 256.804 117.022C256.492 116.929 256.168 116.883 255.83 116.883C255.213 116.883 254.655 117.038 254.154 117.35C253.657 117.662 253.261 118.121 252.966 118.727C252.674 119.334 252.528 120.078 252.528 120.959C252.528 121.841 252.674 122.585 252.966 123.192C253.261 123.798 253.657 124.257 254.154 124.569C254.655 124.88 255.213 125.036 255.83 125.036C256.168 125.036 256.492 124.99 256.804 124.897C257.116 124.804 257.399 124.667 257.654 124.484C257.913 124.299 258.131 124.072 258.31 123.803C258.493 123.531 258.62 123.22 258.693 122.868H259.926C259.833 123.389 259.664 123.855 259.419 124.265C259.174 124.676 258.869 125.026 258.504 125.314C258.14 125.6 257.73 125.817 257.276 125.966C256.826 126.115 256.343 126.189 255.83 126.189C254.961 126.189 254.189 125.977 253.513 125.553C252.837 125.129 252.305 124.526 251.917 123.743C251.529 122.961 251.335 122.033 251.335 120.959C251.335 119.886 251.529 118.957 251.917 118.175C252.305 117.393 252.837 116.79 253.513 116.366C254.189 115.941 254.961 115.729 255.83 115.729C256.343 115.729 256.826 115.804 257.276 115.953C257.73 116.102 258.14 116.321 258.504 116.609C258.869 116.894 259.174 117.242 259.419 117.653C259.664 118.061 259.833 118.527 259.926 119.05ZM261.919 126.05V115.868H263.151V124.957H267.884V126.05H261.919ZM271.026 115.868V126.05H269.794V115.868H271.026Z" fill="#C4C6D7"/>
<rect x="398.5" y="160.05" width="200" height="1" fill="#282A3B"/>
<rect width="200" height="79.1011" transform="translate(398.5 80.9995)" fill="#1B1B28"/>
<path d="M434.875 126.189C434.126 126.189 433.488 125.986 432.961 125.578C432.434 125.167 432.031 124.572 431.753 123.793C431.474 123.011 431.335 122.066 431.335 120.959C431.335 119.859 431.474 118.919 431.753 118.14C432.035 117.358 432.439 116.762 432.966 116.351C433.496 115.936 434.133 115.729 434.875 115.729C435.617 115.729 436.252 115.936 436.779 116.351C437.309 116.762 437.714 117.358 437.992 118.14C438.274 118.919 438.415 119.859 438.415 120.959C438.415 122.066 438.276 123.011 437.997 123.793C437.719 124.572 437.316 125.167 436.789 125.578C436.262 125.986 435.624 126.189 434.875 126.189ZM434.875 125.096C435.617 125.096 436.194 124.738 436.605 124.022C437.016 123.306 437.222 122.285 437.222 120.959C437.222 120.078 437.127 119.327 436.938 118.707C436.753 118.087 436.484 117.615 436.133 117.29C435.785 116.966 435.366 116.803 434.875 116.803C434.139 116.803 433.564 117.166 433.15 117.892C432.736 118.614 432.528 119.637 432.528 120.959C432.528 121.841 432.621 122.59 432.807 123.207C432.992 123.823 433.259 124.292 433.607 124.614C433.959 124.935 434.381 125.096 434.875 125.096ZM443.884 115.868V126.05H442.651V117.161H442.591L440.105 118.812V117.559L442.651 115.868H443.884ZM447.687 124.748C447.442 124.748 447.231 124.66 447.055 124.484C446.88 124.309 446.792 124.098 446.792 123.853C446.792 123.608 446.88 123.397 447.055 123.221C447.231 123.046 447.442 122.958 447.687 122.958C447.932 122.958 448.143 123.046 448.318 123.221C448.494 123.397 448.582 123.608 448.582 123.853C448.582 124.015 448.54 124.164 448.457 124.3C448.378 124.436 448.27 124.546 448.134 124.628C448.002 124.708 447.853 124.748 447.687 124.748ZM447.687 119.597C447.442 119.597 447.231 119.509 447.055 119.334C446.88 119.158 446.792 118.948 446.792 118.702C446.792 118.457 446.88 118.247 447.055 118.071C447.231 117.895 447.442 117.807 447.687 117.807C447.932 117.807 448.143 117.895 448.318 118.071C448.494 118.247 448.582 118.457 448.582 118.702C448.582 118.865 448.54 119.014 448.457 119.15C448.378 119.286 448.27 119.395 448.134 119.478C448.002 119.557 447.853 119.597 447.687 119.597ZM454.108 126.189C453.451 126.189 452.866 126.077 452.353 125.851C451.842 125.626 451.436 125.313 451.135 124.912C450.836 124.507 450.674 124.038 450.647 123.505H451.9C451.927 123.833 452.039 124.116 452.238 124.355C452.437 124.59 452.697 124.773 453.019 124.902C453.34 125.031 453.697 125.096 454.088 125.096C454.525 125.096 454.913 125.02 455.251 124.867C455.589 124.715 455.854 124.502 456.047 124.231C456.239 123.959 456.335 123.644 456.335 123.286C456.335 122.912 456.242 122.582 456.056 122.297C455.871 122.008 455.599 121.783 455.241 121.621C454.883 121.458 454.446 121.377 453.929 121.377H453.113V120.283H453.929C454.333 120.283 454.688 120.21 454.993 120.064C455.301 119.919 455.541 119.713 455.713 119.448C455.889 119.183 455.977 118.871 455.977 118.513C455.977 118.169 455.901 117.869 455.748 117.614C455.596 117.358 455.38 117.159 455.102 117.017C454.827 116.874 454.502 116.803 454.127 116.803C453.776 116.803 453.445 116.868 453.133 116.997C452.825 117.123 452.573 117.307 452.377 117.549C452.182 117.788 452.076 118.076 452.059 118.414H450.866C450.886 117.88 451.047 117.413 451.348 117.012C451.65 116.608 452.044 116.293 452.532 116.067C453.022 115.842 453.561 115.729 454.147 115.729C454.777 115.729 455.317 115.857 455.768 116.112C456.219 116.364 456.565 116.697 456.807 117.111C457.049 117.526 457.17 117.973 457.17 118.454C457.17 119.027 457.019 119.516 456.718 119.92C456.419 120.325 456.013 120.605 455.5 120.761V120.84C456.143 120.946 456.645 121.22 457.006 121.66C457.367 122.098 457.548 122.64 457.548 123.286C457.548 123.84 457.397 124.337 457.096 124.778C456.797 125.215 456.39 125.56 455.873 125.812C455.355 126.064 454.767 126.189 454.108 126.189ZM462.902 126.189C462.153 126.189 461.515 125.986 460.988 125.578C460.461 125.167 460.059 124.572 459.78 123.793C459.502 123.011 459.363 122.066 459.363 120.959C459.363 119.859 459.502 118.919 459.78 118.14C460.062 117.358 460.466 116.762 460.993 116.351C461.524 115.936 462.16 115.729 462.902 115.729C463.645 115.729 464.279 115.936 464.806 116.351C465.337 116.762 465.741 117.358 466.02 118.14C466.301 118.919 466.442 119.859 466.442 120.959C466.442 122.066 466.303 123.011 466.025 123.793C465.746 124.572 465.343 125.167 464.816 125.578C464.289 125.986 463.651 126.189 462.902 126.189ZM462.902 125.096C463.645 125.096 464.221 124.738 464.632 124.022C465.043 123.306 465.249 122.285 465.249 120.959C465.249 120.078 465.154 119.327 464.966 118.707C464.78 118.087 464.511 117.615 464.16 117.29C463.812 116.966 463.393 116.803 462.902 116.803C462.167 116.803 461.592 117.166 461.177 117.892C460.763 118.614 460.556 119.637 460.556 120.959C460.556 121.841 460.649 122.59 460.834 123.207C461.02 123.823 461.287 124.292 461.635 124.614C461.986 124.935 462.408 125.096 462.902 125.096ZM468.351 126.05V118.414H469.485V119.607H469.584C469.743 119.199 470 118.883 470.355 118.658C470.709 118.429 471.135 118.314 471.632 118.314C472.136 118.314 472.556 118.429 472.89 118.658C473.228 118.883 473.492 119.199 473.681 119.607H473.76C473.956 119.213 474.249 118.899 474.64 118.667C475.031 118.432 475.5 118.314 476.047 118.314C476.73 118.314 477.288 118.528 477.723 118.956C478.157 119.38 478.374 120.041 478.374 120.939V126.05H477.201V120.939C477.201 120.376 477.047 119.973 476.738 119.731C476.43 119.489 476.067 119.368 475.65 119.368C475.113 119.368 474.697 119.531 474.402 119.856C474.107 120.177 473.959 120.585 473.959 121.079V126.05H472.766V120.82C472.766 120.386 472.625 120.036 472.343 119.771C472.062 119.503 471.699 119.368 471.255 119.368C470.95 119.368 470.665 119.45 470.4 119.612C470.138 119.774 469.926 120 469.763 120.288C469.604 120.573 469.525 120.903 469.525 121.278V126.05H468.351Z" fill="#C4C6D7"/>
<rect width="200" height="79.1011" transform="translate(-161.5 161)" fill="#1B1B28"/>
<rect width="180" height="79.1011" transform="translate(38.5 161)" fill="#1B1B28"/>
<rect width="180" height="79.1011" transform="translate(218.5 161)" fill="#1B1B28"/>
<path d="M398.5 161H598.5V224.101C598.5 232.937 591.337 240.101 582.5 240.101H398.5V161Z" fill="#1B1B28"/>
</g>
<rect x="0.5" y="0.5" width="481" height="180" rx="16.5" stroke="#282A3B"/>
<defs>
<clipPath id="clip0_1188_81516">
<rect x="1" y="1" width="480" height="179" rx="16" fill="white"/>
</clipPath>
</defs>
</svg>
