<svg width="482" height="181" viewBox="0 0 482 181" fill="none" xmlns="http://www.w3.org/2000/svg">
<g clip-path="url(#clip0_1188_81504)">
<rect x="1" y="1" width="480" height="179" rx="16" fill="#1B1B28"/>
<rect x="-140" y="6.12964" width="200" height="1" fill="#282A3B"/>
<path d="M-140 -47.0005H60V6.25978H-140V-47.0005Z" fill="#1B1B28"/>
<rect x="60" y="6.12964" width="180" height="1" fill="#282A3B"/>
<path d="M60 -47.0005H240V6.25978H60V-47.0005Z" fill="#1B1B28"/>
<rect x="240" y="6.12964" width="180" height="1" fill="#282A3B"/>
<path d="M240 -47.0005H420V6.25978H240V-47.0005Z" fill="#1B1B28"/>
<rect x="420" y="6.12964" width="200" height="1" fill="#282A3B"/>
<path d="M420 -47.0005H604C612.837 -47.0005 620 -39.837 620 -31.0005V6.25978H420V-47.0005Z" fill="#1B1B28"/>
<rect x="-140" y="86.0498" width="200" height="1" fill="#282A3B"/>
<rect width="200" height="79.1011" transform="translate(-140 6.99951)" fill="#1B1B28"/>
<rect x="60" y="86.0498" width="180" height="1" fill="#282A3B"/>
<rect width="180" height="79.1011" transform="translate(60 6.99951)" fill="#1B1B28"/>
<rect x="92" y="30.05" width="51" height="33" rx="16.5" fill="#282A3B"/>
<path d="M106.26 47.4563V52.05H105.087V41.8682H106.26V45.6069H106.359C106.538 45.2125 106.807 44.8992 107.165 44.6672C107.526 44.4319 108.007 44.3143 108.606 44.3143C109.127 44.3143 109.583 44.4187 109.974 44.6275C110.365 44.833 110.668 45.1495 110.883 45.577C111.102 46.0013 111.212 46.5415 111.212 47.1978V52.05H110.038V47.2773C110.038 46.6708 109.881 46.2018 109.566 45.8704C109.254 45.5356 108.822 45.3682 108.268 45.3682C107.884 45.3682 107.539 45.4494 107.234 45.6118C106.933 45.7742 106.694 46.0112 106.518 46.3228C106.346 46.6343 106.26 47.0122 106.26 47.4563ZM116.679 44.4137V45.408H112.722V44.4137H116.679ZM113.875 42.5841H115.048V49.8625C115.048 50.194 115.096 50.4426 115.193 50.6083C115.292 50.7707 115.418 50.8801 115.57 50.9364C115.726 50.9894 115.89 51.016 116.063 51.016C116.192 51.016 116.298 51.0093 116.381 50.9961C116.464 50.9795 116.53 50.9662 116.58 50.9563L116.818 52.0103C116.739 52.0401 116.628 52.0699 116.485 52.0998C116.343 52.1329 116.162 52.1495 115.943 52.1495C115.612 52.1495 115.287 52.0782 114.969 51.9357C114.654 51.7932 114.392 51.5761 114.183 51.2844C113.978 50.9928 113.875 50.6249 113.875 50.1807V42.5841ZM121.765 44.4137V45.408H117.808V44.4137H121.765ZM118.961 42.5841H120.134V49.8625C120.134 50.194 120.182 50.4426 120.278 50.6083C120.378 50.7707 120.504 50.8801 120.656 50.9364C120.812 50.9894 120.976 51.016 121.149 51.016C121.278 51.016 121.384 51.0093 121.467 50.9961C121.55 50.9795 121.616 50.9662 121.666 50.9563L121.904 52.0103C121.825 52.0401 121.714 52.0699 121.571 52.0998C121.429 52.1329 121.248 52.1495 121.029 52.1495C120.698 52.1495 120.373 52.0782 120.055 51.9357C119.74 51.7932 119.478 51.5761 119.269 51.2844C119.064 50.9928 118.961 50.6249 118.961 50.1807V42.5841ZM123.53 54.9137V44.4137H124.663V45.6268H124.803C124.889 45.4942 125.008 45.3251 125.161 45.1197C125.316 44.9108 125.538 44.7252 125.827 44.5628C126.118 44.3971 126.513 44.3143 127.01 44.3143C127.653 44.3143 128.22 44.475 128.71 44.7965C129.201 45.118 129.584 45.5737 129.859 46.1637C130.134 46.7536 130.271 47.4497 130.271 48.2518C130.271 49.0605 130.134 49.7615 129.859 50.3547C129.584 50.9447 129.203 51.4021 128.715 51.7269C128.228 52.0484 127.666 52.2091 127.03 52.2091C126.539 52.2091 126.147 52.1279 125.852 51.9655C125.557 51.7998 125.33 51.6125 125.171 51.4037C125.011 51.1916 124.889 51.016 124.803 50.8768H124.703V54.9137H123.53ZM124.683 48.2319C124.683 48.8086 124.768 49.3173 124.937 49.7581C125.106 50.1956 125.353 50.5387 125.678 50.7873C126.002 51.0325 126.4 51.1552 126.871 51.1552C127.361 51.1552 127.771 51.0259 128.099 50.7674C128.43 50.5055 128.679 50.1542 128.845 49.7134C129.014 49.2693 129.098 48.7754 129.098 48.2319C129.098 47.6949 129.015 47.211 128.85 46.7802C128.687 46.346 128.44 46.0029 128.109 45.751C127.781 45.4958 127.368 45.3682 126.871 45.3682C126.394 45.3682 125.993 45.4892 125.668 45.7312C125.343 45.9698 125.098 46.3045 124.932 46.7354C124.766 47.163 124.683 47.6618 124.683 48.2319Z" fill="#C4C6D7"/>
<rect x="240" y="86.0498" width="180" height="1" fill="#282A3B"/>
<rect width="180" height="79.1011" transform="translate(240 6.99951)" fill="#1B1B28"/>
<path d="M273.233 41.8682H274.705L278.165 50.3199H278.284L281.744 41.8682H283.216V52.05H282.062V44.3143H281.963L278.781 52.05H277.668L274.486 44.3143H274.386V52.05H273.233V41.8682ZM287.776 52.229C287.292 52.229 286.853 52.1379 286.459 51.9556C286.064 51.77 285.751 51.5032 285.519 51.1552C285.287 50.8038 285.171 50.3796 285.171 49.8824C285.171 49.4449 285.257 49.0903 285.43 48.8185C285.602 48.5434 285.832 48.328 286.121 48.1722C286.409 48.0164 286.727 47.9004 287.075 47.8242C287.426 47.7447 287.779 47.6817 288.134 47.6353C288.598 47.5756 288.974 47.5309 289.263 47.501C289.554 47.4679 289.766 47.4132 289.899 47.337C290.035 47.2607 290.103 47.1282 290.103 46.9393V46.8995C290.103 46.409 289.969 46.0278 289.7 45.756C289.435 45.4842 289.032 45.3483 288.492 45.3483C287.932 45.3483 287.493 45.471 287.175 45.7162C286.856 45.9615 286.633 46.2233 286.503 46.5018L285.39 46.104C285.589 45.64 285.854 45.2787 286.185 45.0202C286.52 44.7584 286.885 44.5761 287.279 44.4733C287.677 44.3673 288.068 44.3143 288.452 44.3143C288.698 44.3143 288.979 44.3441 289.297 44.4037C289.619 44.4601 289.929 44.5777 290.227 44.7567C290.529 44.9357 290.779 45.2058 290.978 45.5671C291.177 45.9284 291.276 46.4123 291.276 47.0188V52.05H290.103V51.016H290.043C289.964 51.1817 289.831 51.359 289.645 51.5479C289.46 51.7368 289.213 51.8976 288.905 52.0302C288.596 52.1627 288.22 52.229 287.776 52.229ZM287.955 51.175C288.419 51.175 288.81 51.0839 289.128 50.9016C289.45 50.7193 289.692 50.484 289.854 50.1956C290.02 49.9073 290.103 49.604 290.103 49.2858V48.212C290.053 48.2716 289.944 48.3263 289.775 48.376C289.609 48.4224 289.417 48.4639 289.198 48.5003C288.983 48.5335 288.772 48.5633 288.567 48.5898C288.364 48.613 288.2 48.6329 288.074 48.6495C287.769 48.6893 287.484 48.7539 287.219 48.8434C286.957 48.9295 286.745 49.0605 286.583 49.2361C286.424 49.4085 286.344 49.6438 286.344 49.9421C286.344 50.3498 286.495 50.658 286.797 50.8668C287.102 51.0723 287.488 51.175 287.955 51.175ZM294.591 47.4563V52.05H293.418V44.4137H294.551V45.6069H294.651C294.83 45.2191 295.101 44.9075 295.466 44.6722C295.83 44.4336 296.301 44.3143 296.878 44.3143C297.395 44.3143 297.847 44.4203 298.235 44.6324C298.623 44.8412 298.924 45.1594 299.14 45.587C299.355 46.0112 299.463 46.5482 299.463 47.1978V52.05H298.29V47.2773C298.29 46.6774 298.134 46.2101 297.822 45.8753C297.511 45.5373 297.083 45.3682 296.54 45.3682C296.165 45.3682 295.83 45.4494 295.536 45.6118C295.244 45.7742 295.013 46.0112 294.844 46.3228C294.675 46.6343 294.591 47.0122 294.591 47.4563ZM306.42 48.9279V44.4137H307.593V52.05H306.42V50.7574H306.34C306.161 51.1452 305.883 51.475 305.505 51.7468C305.127 52.0152 304.65 52.1495 304.073 52.1495C303.596 52.1495 303.171 52.0451 302.8 51.8363C302.429 51.6241 302.137 51.306 301.925 50.8817C301.713 50.4542 301.607 49.9156 301.607 49.266V44.4137H302.78V49.1864C302.78 49.7432 302.936 50.1874 303.248 50.5188C303.563 50.8502 303.964 51.016 304.451 51.016C304.742 51.016 305.039 50.9414 305.341 50.7922C305.646 50.6431 305.901 50.4144 306.106 50.1062C306.315 49.7979 306.42 49.4052 306.42 48.9279ZM311.989 52.229C311.505 52.229 311.066 52.1379 310.672 51.9556C310.277 51.77 309.964 51.5032 309.732 51.1552C309.5 50.8038 309.384 50.3796 309.384 49.8824C309.384 49.4449 309.47 49.0903 309.642 48.8185C309.815 48.5434 310.045 48.328 310.333 48.1722C310.622 48.0164 310.94 47.9004 311.288 47.8242C311.639 47.7447 311.992 47.6817 312.347 47.6353C312.811 47.5756 313.187 47.5309 313.475 47.501C313.767 47.4679 313.979 47.4132 314.112 47.337C314.248 47.2607 314.316 47.1282 314.316 46.9393V46.8995C314.316 46.409 314.181 46.0278 313.913 45.756C313.648 45.4842 313.245 45.3483 312.705 45.3483C312.145 45.3483 311.706 45.471 311.387 45.7162C311.069 45.9615 310.846 46.2233 310.716 46.5018L309.603 46.104C309.801 45.64 310.067 45.2787 310.398 45.0202C310.733 44.7584 311.097 44.5761 311.492 44.4733C311.89 44.3673 312.281 44.3143 312.665 44.3143C312.91 44.3143 313.192 44.3441 313.51 44.4037C313.832 44.4601 314.142 44.5777 314.44 44.7567C314.742 44.9357 314.992 45.2058 315.191 45.5671C315.39 45.9284 315.489 46.4123 315.489 47.0188V52.05H314.316V51.016H314.256C314.176 51.1817 314.044 51.359 313.858 51.5479C313.673 51.7368 313.426 51.8976 313.118 52.0302C312.809 52.1627 312.433 52.229 311.989 52.229ZM312.168 51.175C312.632 51.175 313.023 51.0839 313.341 50.9016C313.663 50.7193 313.905 50.484 314.067 50.1956C314.233 49.9073 314.316 49.604 314.316 49.2858V48.212C314.266 48.2716 314.157 48.3263 313.988 48.376C313.822 48.4224 313.63 48.4639 313.411 48.5003C313.195 48.5335 312.985 48.5633 312.779 48.5898C312.577 48.613 312.413 48.6329 312.287 48.6495C311.982 48.6893 311.697 48.7539 311.432 48.8434C311.17 48.9295 310.958 49.0605 310.796 49.2361C310.637 49.4085 310.557 49.6438 310.557 49.9421C310.557 50.3498 310.708 50.658 311.01 50.8668C311.315 51.0723 311.701 51.175 312.168 51.175ZM318.804 41.8682V52.05H317.631V41.8682H318.804Z" fill="#C4C6D7"/>
<rect x="420" y="86.0498" width="200" height="1" fill="#282A3B"/>
<rect width="200" height="79.1011" transform="translate(420 6.99951)" fill="#1B1B28"/>
<path d="M456.375 52.1893C455.626 52.1893 454.988 51.9854 454.461 51.5777C453.934 51.1668 453.531 50.5718 453.253 49.7929C452.974 49.0107 452.835 48.0661 452.835 46.9591C452.835 45.8588 452.974 44.9191 453.253 44.1402C453.535 43.3581 453.939 42.7615 454.466 42.3505C454.996 41.9362 455.633 41.729 456.375 41.729C457.117 41.729 457.752 41.9362 458.279 42.3505C458.809 42.7615 459.214 43.3581 459.492 44.1402C459.774 44.9191 459.915 45.8588 459.915 46.9591C459.915 48.0661 459.776 49.0107 459.497 49.7929C459.219 50.5718 458.816 51.1668 458.289 51.5777C457.762 51.9854 457.124 52.1893 456.375 52.1893ZM456.375 51.0955C457.117 51.0955 457.694 50.7375 458.105 50.0216C458.516 49.3057 458.722 48.2849 458.722 46.9591C458.722 46.0775 458.627 45.3268 458.438 44.707C458.253 44.0872 457.984 43.6149 457.633 43.2901C457.285 42.9653 456.866 42.8029 456.375 42.8029C455.639 42.8029 455.064 43.1658 454.65 43.8917C454.236 44.6142 454.028 45.6367 454.028 46.9591C454.028 47.8408 454.121 48.5898 454.307 49.2063C454.492 49.8228 454.759 50.2918 455.107 50.6133C455.459 50.9348 455.881 51.0955 456.375 51.0955ZM465.125 52.1893C464.376 52.1893 463.738 51.9854 463.211 51.5777C462.684 51.1668 462.281 50.5718 462.003 49.7929C461.724 49.0107 461.585 48.0661 461.585 46.9591C461.585 45.8588 461.724 44.9191 462.003 44.1402C462.285 43.3581 462.689 42.7615 463.216 42.3505C463.746 41.9362 464.383 41.729 465.125 41.729C465.867 41.729 466.502 41.9362 467.029 42.3505C467.559 42.7615 467.964 43.3581 468.242 44.1402C468.524 44.9191 468.665 45.8588 468.665 46.9591C468.665 48.0661 468.526 49.0107 468.247 49.7929C467.969 50.5718 467.566 51.1668 467.039 51.5777C466.512 51.9854 465.874 52.1893 465.125 52.1893ZM465.125 51.0955C465.867 51.0955 466.444 50.7375 466.855 50.0216C467.266 49.3057 467.472 48.2849 467.472 46.9591C467.472 46.0775 467.377 45.3268 467.188 44.707C467.003 44.0872 466.734 43.6149 466.383 43.2901C466.035 42.9653 465.616 42.8029 465.125 42.8029C464.389 42.8029 463.814 43.1658 463.4 43.8917C462.986 44.6142 462.778 45.6367 462.778 46.9591C462.778 47.8408 462.871 48.5898 463.057 49.2063C463.242 49.8228 463.509 50.2918 463.857 50.6133C464.209 50.9348 464.631 51.0955 465.125 51.0955ZM471.429 50.7475C471.184 50.7475 470.973 50.6597 470.798 50.484C470.622 50.3083 470.534 50.0979 470.534 49.8526C470.534 49.6073 470.622 49.3969 470.798 49.2212C470.973 49.0456 471.184 48.9577 471.429 48.9577C471.674 48.9577 471.885 49.0456 472.06 49.2212C472.236 49.3969 472.324 49.6073 472.324 49.8526C472.324 50.015 472.282 50.1642 472.2 50.3C472.12 50.4359 472.012 50.5453 471.876 50.6282C471.744 50.7077 471.595 50.7475 471.429 50.7475ZM471.429 45.5969C471.184 45.5969 470.973 45.5091 470.798 45.3334C470.622 45.1578 470.534 44.9473 470.534 44.702C470.534 44.4568 470.622 44.2463 470.798 44.0706C470.973 43.895 471.184 43.8072 471.429 43.8072C471.674 43.8072 471.885 43.895 472.06 44.0706C472.236 44.2463 472.324 44.4568 472.324 44.702C472.324 44.8644 472.282 45.0136 472.2 45.1495C472.12 45.2854 472.012 45.3947 471.876 45.4776C471.744 45.5572 471.595 45.5969 471.429 45.5969ZM477.73 52.1893C476.981 52.1893 476.343 51.9854 475.816 51.5777C475.289 51.1668 474.887 50.5718 474.608 49.7929C474.33 49.0107 474.191 48.0661 474.191 46.9591C474.191 45.8588 474.33 44.9191 474.608 44.1402C474.89 43.3581 475.294 42.7615 475.821 42.3505C476.352 41.9362 476.988 41.729 477.73 41.729C478.473 41.729 479.108 41.9362 479.635 42.3505C480.165 42.7615 480.569 43.3581 480.848 44.1402C481.129 44.9191 481.27 45.8588 481.27 46.9591C481.27 48.0661 481.131 49.0107 480.853 49.7929C480.574 50.5718 480.172 51.1668 479.645 51.5777C479.118 51.9854 478.48 52.1893 477.73 52.1893ZM477.73 51.0955C478.473 51.0955 479.05 50.7375 479.461 50.0216C479.872 49.3057 480.077 48.2849 480.077 46.9591C480.077 46.0775 479.983 45.3268 479.794 44.707C479.608 44.0872 479.34 43.6149 478.988 43.2901C478.64 42.9653 478.221 42.8029 477.73 42.8029C476.995 42.8029 476.42 43.1658 476.005 43.8917C475.591 44.6142 475.384 45.6367 475.384 46.9591C475.384 47.8408 475.477 48.5898 475.662 49.2063C475.848 49.8228 476.115 50.2918 476.463 50.6133C476.814 50.9348 477.237 51.0955 477.73 51.0955ZM486.739 41.8682V52.05H485.506V43.1608H485.446L482.961 44.8114V43.5586L485.506 41.8682H486.739ZM495.096 46.1239L494.042 46.4222C493.976 46.2465 493.878 46.0759 493.749 45.9101C493.623 45.7411 493.451 45.6019 493.232 45.4925C493.013 45.3831 492.733 45.3285 492.392 45.3285C491.924 45.3285 491.535 45.4362 491.223 45.6516C490.915 45.8637 490.761 46.1339 490.761 46.462C490.761 46.7536 490.867 46.984 491.079 47.153C491.291 47.3221 491.623 47.4629 492.074 47.5756L493.207 47.854C493.89 48.0197 494.399 48.2733 494.733 48.6147C495.068 48.9527 495.235 49.3886 495.235 49.9222C495.235 50.3597 495.109 50.7508 494.858 51.0955C494.609 51.4402 494.261 51.712 493.814 51.9108C493.366 52.1097 492.846 52.2091 492.252 52.2091C491.474 52.2091 490.829 52.0401 490.319 51.702C489.808 51.364 489.485 50.8701 489.349 50.2205L490.463 49.9421C490.569 50.3531 490.769 50.6613 491.064 50.8668C491.363 51.0723 491.752 51.175 492.233 51.175C492.779 51.175 493.214 51.059 493.535 50.827C493.86 50.5917 494.022 50.31 494.022 49.9819C494.022 49.7167 493.93 49.4947 493.744 49.3157C493.558 49.1334 493.273 48.9975 492.889 48.908L491.616 48.6097C490.917 48.444 490.403 48.1871 490.075 47.8391C489.75 47.4878 489.588 47.0486 489.588 46.5216C489.588 46.0908 489.709 45.7096 489.951 45.3782C490.196 45.0467 490.529 44.7866 490.95 44.5976C491.374 44.4087 491.855 44.3143 492.392 44.3143C493.147 44.3143 493.741 44.48 494.172 44.8114C494.606 45.1429 494.914 45.5804 495.096 46.1239Z" fill="#C4C6D7"/>
<rect x="-140" y="166.05" width="200" height="1" fill="#282A3B"/>
<rect width="200" height="79.1011" transform="translate(-140 86.9995)" fill="#1B1B28"/>
<rect x="60" y="166.05" width="180" height="1" fill="#282A3B"/>
<rect width="180" height="79.1011" transform="translate(60 86.9995)" fill="#1B1B28"/>
<rect x="92" y="110.05" width="84" height="33" rx="16.5" fill="#282A3B"/>
<path d="M110.555 126.124L109.501 126.422C109.435 126.247 109.337 126.076 109.208 125.91C109.082 125.741 108.91 125.602 108.691 125.493C108.472 125.383 108.192 125.329 107.851 125.329C107.383 125.329 106.994 125.436 106.682 125.652C106.374 125.864 106.22 126.134 106.22 126.462C106.22 126.754 106.326 126.984 106.538 127.153C106.75 127.322 107.082 127.463 107.532 127.576L108.666 127.854C109.349 128.02 109.858 128.274 110.192 128.615C110.527 128.953 110.694 129.389 110.694 129.922C110.694 130.36 110.568 130.751 110.317 131.096C110.068 131.44 109.72 131.712 109.273 131.911C108.825 132.11 108.305 132.209 107.711 132.209C106.933 132.209 106.288 132.04 105.778 131.702C105.267 131.364 104.944 130.87 104.808 130.221L105.922 129.942C106.028 130.353 106.228 130.662 106.523 130.867C106.822 131.073 107.211 131.175 107.692 131.175C108.238 131.175 108.673 131.059 108.994 130.827C109.319 130.592 109.481 130.31 109.481 129.982C109.481 129.717 109.389 129.495 109.203 129.316C109.017 129.134 108.732 128.998 108.348 128.908L107.075 128.61C106.376 128.444 105.862 128.187 105.534 127.839C105.209 127.488 105.047 127.049 105.047 126.522C105.047 126.091 105.168 125.71 105.41 125.378C105.655 125.047 105.988 124.787 106.409 124.598C106.833 124.409 107.314 124.314 107.851 124.314C108.606 124.314 109.2 124.48 109.631 124.812C110.065 125.143 110.373 125.581 110.555 126.124ZM115.563 132.209C114.847 132.209 114.23 132.04 113.713 131.702C113.196 131.364 112.799 130.899 112.52 130.305C112.242 129.712 112.103 129.034 112.103 128.272C112.103 127.496 112.245 126.812 112.53 126.219C112.819 125.622 113.22 125.156 113.733 124.822C114.25 124.484 114.854 124.314 115.543 124.314C116.08 124.314 116.564 124.414 116.995 124.613C117.426 124.812 117.779 125.09 118.054 125.448C118.329 125.806 118.499 126.224 118.566 126.701H117.392C117.303 126.353 117.104 126.045 116.796 125.776C116.491 125.504 116.08 125.368 115.563 125.368C115.105 125.368 114.704 125.488 114.36 125.726C114.018 125.962 113.752 126.295 113.559 126.726C113.37 127.153 113.276 127.655 113.276 128.232C113.276 128.822 113.369 129.336 113.554 129.773C113.743 130.211 114.008 130.551 114.35 130.792C114.694 131.034 115.099 131.155 115.563 131.155C115.868 131.155 116.145 131.102 116.393 130.996C116.642 130.89 116.852 130.738 117.025 130.539C117.197 130.34 117.319 130.101 117.392 129.823H118.566C118.499 130.274 118.335 130.68 118.074 131.041C117.815 131.399 117.472 131.684 117.044 131.896C116.62 132.105 116.126 132.209 115.563 132.209ZM121.454 127.457V132.05H120.281V121.868H121.454V125.607H121.554C121.733 125.213 122.001 124.899 122.359 124.667C122.72 124.432 123.201 124.314 123.801 124.314C124.321 124.314 124.777 124.419 125.168 124.628C125.559 124.833 125.862 125.15 126.078 125.577C126.297 126.002 126.406 126.542 126.406 127.198V132.05H125.233V127.278C125.233 126.671 125.075 126.202 124.76 125.871C124.449 125.536 124.016 125.368 123.463 125.368C123.078 125.368 122.734 125.45 122.429 125.612C122.127 125.774 121.888 126.011 121.713 126.323C121.54 126.635 121.454 127.012 121.454 127.457ZM131.754 132.209C131.018 132.209 130.384 132.047 129.85 131.722C129.32 131.394 128.91 130.937 128.622 130.35C128.337 129.76 128.194 129.074 128.194 128.292C128.194 127.51 128.337 126.82 128.622 126.224C128.91 125.624 129.311 125.156 129.825 124.822C130.342 124.484 130.945 124.314 131.635 124.314C132.032 124.314 132.425 124.381 132.813 124.513C133.201 124.646 133.554 124.861 133.872 125.16C134.19 125.455 134.444 125.846 134.633 126.333C134.822 126.82 134.916 127.42 134.916 128.133V128.63H129.03V127.616H133.723C133.723 127.185 133.637 126.8 133.464 126.462C133.295 126.124 133.053 125.857 132.738 125.662C132.427 125.466 132.059 125.368 131.635 125.368C131.167 125.368 130.763 125.484 130.422 125.716C130.084 125.945 129.823 126.243 129.641 126.611C129.459 126.979 129.368 127.374 129.368 127.795V128.471C129.368 129.047 129.467 129.536 129.666 129.937C129.868 130.335 130.148 130.638 130.506 130.847C130.864 131.053 131.28 131.155 131.754 131.155C132.062 131.155 132.341 131.112 132.589 131.026C132.841 130.937 133.058 130.804 133.241 130.628C133.423 130.449 133.564 130.227 133.663 129.962L134.797 130.28C134.677 130.665 134.477 131.003 134.195 131.295C133.913 131.583 133.565 131.808 133.151 131.971C132.737 132.13 132.271 132.209 131.754 132.209ZM139.584 132.209C138.948 132.209 138.386 132.049 137.899 131.727C137.412 131.402 137.031 130.945 136.756 130.355C136.48 129.762 136.343 129.061 136.343 128.252C136.343 127.45 136.48 126.754 136.756 126.164C137.031 125.574 137.413 125.118 137.904 124.797C138.394 124.475 138.961 124.314 139.604 124.314C140.101 124.314 140.494 124.397 140.782 124.563C141.074 124.725 141.296 124.911 141.449 125.12C141.604 125.325 141.725 125.494 141.812 125.627H141.911V121.868H143.084V132.05H141.951V130.877H141.812C141.725 131.016 141.603 131.192 141.444 131.404C141.285 131.613 141.058 131.8 140.763 131.966C140.468 132.128 140.075 132.209 139.584 132.209ZM139.743 131.155C140.214 131.155 140.612 131.033 140.937 130.788C141.261 130.539 141.508 130.196 141.677 129.758C141.846 129.318 141.931 128.809 141.931 128.232C141.931 127.662 141.848 127.163 141.682 126.736C141.517 126.305 141.271 125.97 140.947 125.731C140.622 125.489 140.221 125.368 139.743 125.368C139.246 125.368 138.832 125.496 138.501 125.751C138.172 126.003 137.925 126.346 137.76 126.78C137.597 127.211 137.516 127.695 137.516 128.232C137.516 128.776 137.599 129.27 137.765 129.714C137.934 130.154 138.182 130.506 138.51 130.768C138.842 131.026 139.253 131.155 139.743 131.155ZM150.209 128.928V124.414H151.382V132.05H150.209V130.758H150.129C149.95 131.145 149.672 131.475 149.294 131.747C148.916 132.015 148.439 132.15 147.862 132.15C147.385 132.15 146.961 132.045 146.589 131.837C146.218 131.624 145.926 131.306 145.714 130.882C145.502 130.454 145.396 129.916 145.396 129.266V124.414H146.569V129.187C146.569 129.743 146.725 130.188 147.037 130.519C147.352 130.85 147.753 131.016 148.24 131.016C148.532 131.016 148.828 130.942 149.13 130.792C149.435 130.643 149.69 130.415 149.895 130.106C150.104 129.798 150.209 129.405 150.209 128.928ZM154.704 121.868V132.05H153.531V121.868H154.704ZM160.055 132.209C159.319 132.209 158.684 132.047 158.151 131.722C157.62 131.394 157.211 130.937 156.923 130.35C156.638 129.76 156.495 129.074 156.495 128.292C156.495 127.51 156.638 126.82 156.923 126.224C157.211 125.624 157.612 125.156 158.126 124.822C158.643 124.484 159.246 124.314 159.936 124.314C160.333 124.314 160.726 124.381 161.114 124.513C161.502 124.646 161.855 124.861 162.173 125.16C162.491 125.455 162.744 125.846 162.933 126.333C163.122 126.82 163.217 127.42 163.217 128.133V128.63H157.33V127.616H162.024C162.024 127.185 161.937 126.8 161.765 126.462C161.596 126.124 161.354 125.857 161.039 125.662C160.728 125.466 160.36 125.368 159.936 125.368C159.468 125.368 159.064 125.484 158.722 125.716C158.384 125.945 158.124 126.243 157.942 126.611C157.76 126.979 157.669 127.374 157.669 127.795V128.471C157.669 129.047 157.768 129.536 157.967 129.937C158.169 130.335 158.449 130.638 158.807 130.847C159.165 131.053 159.581 131.155 160.055 131.155C160.363 131.155 160.642 131.112 160.89 131.026C161.142 130.937 161.359 130.804 161.541 130.628C161.724 130.449 161.865 130.227 161.964 129.962L163.097 130.28C162.978 130.665 162.778 131.003 162.496 131.295C162.214 131.583 161.866 131.808 161.452 131.971C161.038 132.13 160.572 132.209 160.055 132.209Z" fill="#C4C6D7"/>
<rect x="240" y="166.05" width="180" height="1" fill="#282A3B"/>
<rect width="180" height="79.1011" transform="translate(240 86.9995)" fill="#1B1B28"/>
<path d="M281.426 125.05H280.193C280.12 124.696 279.993 124.384 279.81 124.116C279.631 123.847 279.413 123.622 279.154 123.439C278.899 123.254 278.616 123.115 278.304 123.022C277.992 122.929 277.668 122.883 277.33 122.883C276.713 122.883 276.155 123.038 275.654 123.35C275.157 123.662 274.761 124.121 274.466 124.727C274.174 125.334 274.028 126.078 274.028 126.959C274.028 127.841 274.174 128.585 274.466 129.192C274.761 129.798 275.157 130.257 275.654 130.569C276.155 130.88 276.713 131.036 277.33 131.036C277.668 131.036 277.992 130.99 278.304 130.897C278.616 130.804 278.899 130.667 279.154 130.484C279.413 130.299 279.631 130.072 279.81 129.803C279.993 129.531 280.12 129.22 280.193 128.868H281.426C281.333 129.389 281.164 129.855 280.919 130.265C280.674 130.676 280.369 131.026 280.004 131.314C279.64 131.6 279.23 131.817 278.776 131.966C278.326 132.115 277.843 132.189 277.33 132.189C276.461 132.189 275.689 131.977 275.013 131.553C274.337 131.129 273.805 130.526 273.417 129.743C273.029 128.961 272.835 128.033 272.835 126.959C272.835 125.886 273.029 124.957 273.417 124.175C273.805 123.393 274.337 122.79 275.013 122.366C275.689 121.941 276.461 121.729 277.33 121.729C277.843 121.729 278.326 121.804 278.776 121.953C279.23 122.102 279.64 122.321 280.004 122.609C280.369 122.894 280.674 123.242 280.919 123.653C281.164 124.061 281.333 124.527 281.426 125.05ZM283.419 132.05V121.868H284.651V130.957H289.384V132.05H283.419ZM292.526 121.868V132.05H291.294V121.868H292.526Z" fill="#C4C6D7"/>
<rect x="420" y="166.05" width="200" height="1" fill="#282A3B"/>
<rect width="200" height="79.1011" transform="translate(420 86.9995)" fill="#1B1B28"/>
<path d="M456.375 132.189C455.626 132.189 454.988 131.986 454.461 131.578C453.934 131.167 453.531 130.572 453.253 129.793C452.974 129.011 452.835 128.066 452.835 126.959C452.835 125.859 452.974 124.919 453.253 124.14C453.535 123.358 453.939 122.762 454.466 122.351C454.996 121.936 455.633 121.729 456.375 121.729C457.117 121.729 457.752 121.936 458.279 122.351C458.809 122.762 459.214 123.358 459.492 124.14C459.774 124.919 459.915 125.859 459.915 126.959C459.915 128.066 459.776 129.011 459.497 129.793C459.219 130.572 458.816 131.167 458.289 131.578C457.762 131.986 457.124 132.189 456.375 132.189ZM456.375 131.096C457.117 131.096 457.694 130.738 458.105 130.022C458.516 129.306 458.722 128.285 458.722 126.959C458.722 126.078 458.627 125.327 458.438 124.707C458.253 124.087 457.984 123.615 457.633 123.29C457.285 122.966 456.866 122.803 456.375 122.803C455.639 122.803 455.064 123.166 454.65 123.892C454.236 124.614 454.028 125.637 454.028 126.959C454.028 127.841 454.121 128.59 454.307 129.207C454.492 129.823 454.759 130.292 455.107 130.614C455.459 130.935 455.881 131.096 456.375 131.096ZM465.384 121.868V132.05H464.151V123.161H464.091L461.605 124.812V123.559L464.151 121.868H465.384ZM469.187 130.748C468.942 130.748 468.731 130.66 468.555 130.484C468.38 130.309 468.292 130.098 468.292 129.853C468.292 129.608 468.38 129.397 468.555 129.221C468.731 129.046 468.942 128.958 469.187 128.958C469.432 128.958 469.643 129.046 469.818 129.221C469.994 129.397 470.082 129.608 470.082 129.853C470.082 130.015 470.04 130.164 469.957 130.3C469.878 130.436 469.77 130.546 469.634 130.628C469.502 130.708 469.353 130.748 469.187 130.748ZM469.187 125.597C468.942 125.597 468.731 125.509 468.555 125.334C468.38 125.158 468.292 124.948 468.292 124.702C468.292 124.457 468.38 124.247 468.555 124.071C468.731 123.895 468.942 123.807 469.187 123.807C469.432 123.807 469.643 123.895 469.818 124.071C469.994 124.247 470.082 124.457 470.082 124.702C470.082 124.865 470.04 125.014 469.957 125.15C469.878 125.286 469.77 125.395 469.634 125.478C469.502 125.557 469.353 125.597 469.187 125.597ZM475.488 132.189C474.739 132.189 474.101 131.986 473.574 131.578C473.047 131.167 472.645 130.572 472.366 129.793C472.088 129.011 471.949 128.066 471.949 126.959C471.949 125.859 472.088 124.919 472.366 124.14C472.648 123.358 473.052 122.762 473.579 122.351C474.109 121.936 474.746 121.729 475.488 121.729C476.231 121.729 476.865 121.936 477.392 122.351C477.923 122.762 478.327 123.358 478.605 124.14C478.887 124.919 479.028 125.859 479.028 126.959C479.028 128.066 478.889 129.011 478.61 129.793C478.332 130.572 477.929 131.167 477.402 131.578C476.875 131.986 476.237 132.189 475.488 132.189ZM475.488 131.096C476.231 131.096 476.807 130.738 477.218 130.022C477.629 129.306 477.835 128.285 477.835 126.959C477.835 126.078 477.74 125.327 477.551 124.707C477.366 124.087 477.097 123.615 476.746 123.29C476.398 122.966 475.979 122.803 475.488 122.803C474.752 122.803 474.177 123.166 473.763 123.892C473.349 124.614 473.142 125.637 473.142 126.959C473.142 127.841 473.234 128.59 473.42 129.207C473.606 129.823 473.873 130.292 474.221 130.614C474.572 130.935 474.994 131.096 475.488 131.096ZM484.099 132.189C483.516 132.189 482.99 132.073 482.523 131.841C482.056 131.609 481.681 131.291 481.4 130.887C481.118 130.483 480.964 130.022 480.937 129.505H482.13C482.177 129.966 482.386 130.347 482.757 130.648C483.131 130.947 483.579 131.096 484.099 131.096C484.517 131.096 484.888 130.998 485.213 130.802C485.541 130.607 485.798 130.338 485.983 129.997C486.172 129.652 486.267 129.263 486.267 128.829C486.267 128.385 486.169 127.989 485.973 127.64C485.781 127.289 485.516 127.012 485.178 126.81C484.84 126.608 484.454 126.505 484.02 126.502C483.708 126.499 483.388 126.547 483.06 126.646C482.732 126.742 482.462 126.867 482.25 127.019L481.096 126.88L481.713 121.868H487.002V122.962H482.747L482.389 125.965H482.449C482.657 125.799 482.919 125.662 483.234 125.552C483.549 125.443 483.877 125.388 484.218 125.388C484.842 125.388 485.397 125.538 485.884 125.836C486.374 126.131 486.759 126.535 487.037 127.049C487.319 127.563 487.46 128.149 487.46 128.809C487.46 129.458 487.314 130.038 487.022 130.549C486.734 131.056 486.336 131.457 485.829 131.752C485.322 132.044 484.745 132.189 484.099 132.189ZM489.455 132.05V124.414H490.588V125.607H490.688C490.847 125.199 491.104 124.883 491.458 124.658C491.813 124.429 492.239 124.314 492.736 124.314C493.24 124.314 493.659 124.429 493.994 124.658C494.332 124.883 494.595 125.199 494.784 125.607H494.864C495.059 125.213 495.353 124.899 495.744 124.667C496.135 124.432 496.604 124.314 497.151 124.314C497.834 124.314 498.392 124.528 498.826 124.956C499.26 125.38 499.477 126.041 499.477 126.939V132.05H498.304V126.939C498.304 126.376 498.15 125.973 497.842 125.731C497.534 125.489 497.171 125.368 496.753 125.368C496.216 125.368 495.8 125.531 495.505 125.856C495.21 126.177 495.063 126.585 495.063 127.079V132.05H493.869V126.82C493.869 126.386 493.729 126.036 493.447 125.771C493.165 125.503 492.802 125.368 492.358 125.368C492.053 125.368 491.768 125.45 491.503 125.612C491.241 125.774 491.029 126 490.867 126.288C490.708 126.573 490.628 126.903 490.628 127.278V132.05H489.455Z" fill="#C4C6D7"/>
<rect width="200" height="79.1011" transform="translate(-140 167)" fill="#1B1B28"/>
<rect width="180" height="79.1011" transform="translate(60 167)" fill="#1B1B28"/>
<rect width="180" height="79.1011" transform="translate(240 167)" fill="#1B1B28"/>
<rect width="200" height="79.1011" transform="translate(420 167)" fill="#1B1B28"/>
</g>
<rect x="0.5" y="0.5" width="481" height="180" rx="16.5" stroke="#282A3B"/>
<defs>
<clipPath id="clip0_1188_81504">
<rect x="1" y="1" width="480" height="179" rx="16" fill="white"/>
</clipPath>
</defs>
</svg>
