<svg width="64" height="57" viewBox="0 0 64 57" fill="none" xmlns="http://www.w3.org/2000/svg">
<mask id="mask0_1669_15379" style="mask-type:alpha" maskUnits="userSpaceOnUse" x="0" y="0" width="64" height="57">
<rect width="63.33" height="57" rx="8" fill="#373B4D"/>
</mask>
<g mask="url(#mask0_1669_15379)">
<rect width="65.3621" height="57" rx="8" fill="#373B4D"/>
<rect x="16.2567" y="8" width="48.7701" height="52" rx="4" fill="#616B7C"/>
<path d="M25.7998 29H24.6919L27.8964 20.2727H28.9873L32.1919 29H31.0839L28.476 21.6534H28.4078L25.7998 29ZM26.2089 25.5909H30.6748V26.5284H26.2089V25.5909ZM35.341 29.1534C34.9263 29.1534 34.5498 29.0753 34.2118 28.919C33.8737 28.7599 33.6052 28.5312 33.4064 28.233C33.2075 27.9318 33.1081 27.5682 33.1081 27.142C33.1081 26.767 33.1819 26.4631 33.3297 26.2301C33.4774 25.9943 33.6748 25.8097 33.922 25.6761C34.1692 25.5426 34.4419 25.4432 34.7402 25.3778C35.0413 25.3097 35.3439 25.2557 35.6479 25.2159C36.0456 25.1648 36.368 25.1264 36.6152 25.1009C36.8652 25.0724 37.047 25.0256 37.1606 24.9602C37.2771 24.8949 37.3354 24.7812 37.3354 24.6193V24.5852C37.3354 24.1648 37.2203 23.8381 36.9902 23.6051C36.7629 23.3722 36.4177 23.2557 35.9547 23.2557C35.4746 23.2557 35.0981 23.3608 34.8254 23.571C34.5527 23.7812 34.3609 24.0057 34.2501 24.2443L33.2956 23.9034C33.466 23.5057 33.6933 23.196 33.9774 22.9744C34.2643 22.75 34.5768 22.5937 34.9149 22.5057C35.2558 22.4148 35.591 22.3693 35.9206 22.3693C36.1308 22.3693 36.3723 22.3949 36.645 22.446C36.9206 22.4943 37.1862 22.5952 37.4419 22.7486C37.7004 22.902 37.9149 23.1335 38.0854 23.4432C38.2558 23.7528 38.341 24.1676 38.341 24.6875V29H37.3354V28.1136H37.2842C37.216 28.2557 37.1024 28.4077 36.9433 28.5696C36.7842 28.7315 36.5726 28.8693 36.3084 28.983C36.0442 29.0966 35.7217 29.1534 35.341 29.1534ZM35.4944 28.25C35.8922 28.25 36.2274 28.1719 36.5001 28.0156C36.7757 27.8594 36.9831 27.6577 37.1223 27.4105C37.2643 27.1634 37.3354 26.9034 37.3354 26.6307V25.7102C37.2927 25.7614 37.199 25.8082 37.0541 25.8509C36.9121 25.8906 36.7473 25.9261 36.5598 25.9574C36.3751 25.9858 36.1947 26.0114 36.0186 26.0341C35.8453 26.054 35.7047 26.071 35.5967 26.0852C35.3354 26.1193 35.091 26.1747 34.8638 26.2514C34.6393 26.3253 34.4575 26.4375 34.3183 26.5881C34.1819 26.7358 34.1138 26.9375 34.1138 27.1932C34.1138 27.5426 34.243 27.8068 34.5015 27.9858C34.7629 28.1619 35.0939 28.25 35.4944 28.25Z" fill="#FCFCFF"/>
</g>
</svg>
