<svg width="66" height="57" viewBox="0 0 66 57" fill="none" xmlns="http://www.w3.org/2000/svg">
<mask id="mask0_1669_15365" style="mask-type:alpha" maskUnits="userSpaceOnUse" x="0" y="0" width="66" height="57">
<rect width="65.33" height="57" rx="8" fill="#F2F2F8"/>
</mask>
<g mask="url(#mask0_1669_15365)">
<rect width="65.33" height="57" rx="8" fill="#F2F2F8"/>
<rect x="15.722" y="8" width="50.3103" height="52" rx="4" fill="#FCFCFF"/>
<path d="M25.5218 29H24.4138L27.6184 20.2727H28.7093L31.9138 29H30.8059L28.1979 21.6534H28.1297L25.5218 29ZM25.9309 25.5909H30.3968V26.5284H25.9309V25.5909ZM35.063 29.1534C34.6482 29.1534 34.2718 29.0753 33.9337 28.919C33.5956 28.7599 33.3272 28.5312 33.1283 28.233C32.9294 27.9318 32.83 27.5682 32.83 27.142C32.83 26.767 32.9039 26.4631 33.0516 26.2301C33.1993 25.9943 33.3968 25.8097 33.6439 25.6761C33.8911 25.5426 34.1638 25.4432 34.4621 25.3778C34.7632 25.3097 35.0658 25.2557 35.3698 25.2159C35.7675 25.1648 36.0899 25.1264 36.3371 25.1009C36.5871 25.0724 36.7689 25.0256 36.8826 24.9602C36.999 24.8949 37.0573 24.7812 37.0573 24.6193V24.5852C37.0573 24.1648 36.9422 23.8381 36.7121 23.6051C36.4848 23.3722 36.1397 23.2557 35.6766 23.2557C35.1965 23.2557 34.8201 23.3608 34.5473 23.571C34.2746 23.7812 34.0828 24.0057 33.9721 24.2443L33.0175 23.9034C33.188 23.5057 33.4152 23.196 33.6993 22.9744C33.9863 22.75 34.2988 22.5937 34.6368 22.5057C34.9777 22.4148 35.313 22.3693 35.6425 22.3693C35.8527 22.3693 36.0942 22.3949 36.3669 22.446C36.6425 22.4943 36.9081 22.5952 37.1638 22.7486C37.4223 22.902 37.6368 23.1335 37.8073 23.4432C37.9777 23.7528 38.063 24.1676 38.063 24.6875V29H37.0573V28.1136H37.0061C36.938 28.2557 36.8243 28.4077 36.6652 28.5696C36.5061 28.7315 36.2945 28.8693 36.0303 28.983C35.7661 29.0966 35.4436 29.1534 35.063 29.1534ZM35.2164 28.25C35.6141 28.25 35.9493 28.1719 36.2221 28.0156C36.4976 27.8594 36.705 27.6577 36.8442 27.4105C36.9863 27.1634 37.0573 26.9034 37.0573 26.6307V25.7102C37.0147 25.7614 36.9209 25.8082 36.776 25.8509C36.634 25.8906 36.4692 25.9261 36.2817 25.9574C36.0971 25.9858 35.9167 26.0114 35.7405 26.0341C35.5672 26.054 35.4266 26.071 35.3186 26.0852C35.0573 26.1193 34.813 26.1747 34.5857 26.2514C34.3613 26.3253 34.1794 26.4375 34.0402 26.5881C33.9039 26.7358 33.8357 26.9375 33.8357 27.1932C33.8357 27.5426 33.9649 27.8068 34.2235 27.9858C34.4848 28.1619 34.8158 28.25 35.2164 28.25Z" fill="#373B4D"/>
</g>
</svg>
