<svg width="24" height="24" viewBox="0 0 24 24" fill="none" xmlns="http://www.w3.org/2000/svg">
<path d="M5 18L2.48343 14.7154C2.18488 14.3157 2 13.7511 2 13.1992C2 12.9438 2.11036 12.5442 2.19355 12.3156L4.51644 6L5 18Z" stroke="#373B4D" stroke-linecap="square" stroke-linejoin="round"/>
<path d="M17 6L13.68 3.48343C13.3903 3.26283 12.7867 3 12.2762 3C11.8367 3 11.406 3.06698 11.1276 3.19355L5 5.51644L17 6Z" stroke="#373B4D" stroke-linecap="square" stroke-linejoin="round"/>
<path d="M10.2998 22H18V18.7864L12.2555 17L7 18.7864L10.2998 22Z" stroke="#373B4D" stroke-linecap="square" stroke-linejoin="round"/>
<path d="M5 16.636C5 17.6895 5.13227 17.9478 5.65614 18.4746L6.18139 19H18L12.2227 12.4346L5 6V16.636Z" stroke="#373B4D" stroke-linecap="square" stroke-linejoin="round"/>
<path d="M15.1591 6H5L17.5716 19H21V10.8587L16.9358 6.65614C16.3654 6.06458 15.8589 6 15.1591 6Z" stroke="#373B4D" stroke-linecap="square" stroke-linejoin="round"/>
</svg>
