<svg width="24" height="24" viewBox="0 0 24 24" fill="none" xmlns="http://www.w3.org/2000/svg">
<path d="M9.5 6.75C9.5 7.91599 8.77434 8.9125 7.75 9.31253L7.75 14.6875C8.54592 14.9983 9.16152 15.6692 9.39648 16.5H13.25C14.9069 16.5 16.25 15.1569 16.25 13.5V9.31253C15.2257 8.9125 14.5 7.91599 14.5 6.75C14.5 5.23122 15.7312 4 17.25 4C18.7688 4 20 5.23122 20 6.75C20 7.91599 19.2743 8.9125 18.25 9.31253V13.5C18.25 16.2614 16.0114 18.5 13.25 18.5H9.20015C8.74497 19.3904 7.81867 20 6.75 20C5.23122 20 4 18.7688 4 17.25C4 16.084 4.72566 15.0875 5.75 14.6875L5.75 9.31253C4.72566 8.9125 4 7.91599 4 6.75C4 5.23122 5.23122 4 6.75 4C8.26878 4 9.5 5.23122 9.5 6.75Z" fill="#373B4D"/>
</svg>
