<svg width="24" height="24" viewBox="0 0 24 24" fill="none" xmlns="http://www.w3.org/2000/svg">
<path fill-rule="evenodd" clip-rule="evenodd" d="M11.9691 7.14032C10.9048 7.14032 10.2461 7.44749 10.2461 8.24152V8.24268C10.2461 9.11251 11.3672 9.49465 12.7567 9.96832C15.0217 10.7404 18 11.7556 18 15.5222C18 19.184 15.0937 21.2734 10.8776 21.2734C8.9684 21.2643 7.08099 20.8656 5.33029 20.1015V15.2457C7.03072 16.1731 9.19857 16.8697 10.877 16.8697C12.0153 16.8697 12.8242 16.5753 12.8242 15.6259C12.8242 14.6639 11.6133 14.2269 10.1513 13.6992C7.92457 12.8954 5.11536 11.8814 5.11536 8.48204C5.11536 4.88285 7.86677 2.7274 11.9691 2.7274C13.696 2.7081 15.4104 3.02397 17.0178 3.65762V8.45074C15.4589 7.62712 13.7305 7.17849 11.9691 7.14032Z" fill="#373B4D"/>
</svg>
