<svg width="24" height="24" viewBox="0 0 24 24" fill="none" xmlns="http://www.w3.org/2000/svg">
<circle cx="12" cy="12" r="9" fill="#373B4D"/>
<path d="M5.92615 12C5.92615 14.4069 7.32615 16.48 9.35077 17.4654L6.45385 9.52846C6.10599 10.306 5.92617 11.1482 5.92615 12ZM12 18.0738C12.7054 18.0738 13.3838 17.95 14.0192 17.7292L13.9762 17.6485L12.1077 12.5331L10.2877 17.8262C10.8262 17.9877 11.4023 18.0738 12 18.0738ZM12.8346 9.15154L15.0315 15.6831L15.64 13.6585C15.8985 12.8185 16.0977 12.2154 16.0977 11.6931C16.0977 10.9392 15.8285 10.4223 15.6023 10.0238C15.29 9.51769 15.0046 9.09231 15.0046 8.59692C15.0046 8.03692 15.4246 7.52 16.0277 7.52H16.1031C14.9839 6.49257 13.5193 5.92362 12 5.92615C10.9941 5.92597 10.0038 6.17585 9.11843 6.65333C8.23303 7.13081 7.4802 7.82091 6.92769 8.66154L7.31538 8.67231C7.95077 8.67231 8.93077 8.59154 8.93077 8.59154C9.26462 8.57538 9.30231 9.05462 8.97385 9.09231C8.97385 9.09231 8.64538 9.13538 8.27385 9.15154L10.4923 15.7315L11.8223 11.7469L10.8746 9.15154C10.6623 9.13982 10.4505 9.12187 10.2392 9.09769C9.91077 9.07615 9.94846 8.57538 10.2769 8.59154C10.2769 8.59154 11.2785 8.67231 11.8762 8.67231C12.5115 8.67231 13.4915 8.59154 13.4915 8.59154C13.82 8.57538 13.8631 9.05462 13.5346 9.09231C13.5346 9.09231 13.2062 9.13 12.8346 9.15154ZM15.0531 17.25C15.9719 16.7157 16.7345 15.9497 17.2646 15.0284C17.7947 14.1071 18.0737 13.0629 18.0738 12C18.0738 10.9446 17.8046 9.95385 17.3308 9.08692C17.427 10.0407 17.2826 11.0034 16.9108 11.8869L15.0531 17.25ZM12 19C10.1435 19 8.36301 18.2625 7.05025 16.9497C5.7375 15.637 5 13.8565 5 12C5 10.1435 5.7375 8.36301 7.05025 7.05025C8.36301 5.7375 10.1435 5 12 5C13.8565 5 15.637 5.7375 16.9497 7.05025C18.2625 8.36301 19 10.1435 19 12C19 13.8565 18.2625 15.637 16.9497 16.9497C15.637 18.2625 13.8565 19 12 19Z" fill="white"/>
</svg>
