<svg width="24" height="24" viewBox="0 0 24 24" fill="none" xmlns="http://www.w3.org/2000/svg">
<path d="M8.7421 5.22213C8.84188 4.92647 9.11914 4.72742 9.43118 4.72742H13.9999L9.25784 18.7782C9.15805 19.0739 8.88079 19.2729 8.56876 19.2729H5.013C4.51544 19.2729 4.1648 18.7844 4.32391 18.3131L8.7421 5.22213Z" fill="#C4C6D7"/>
<path d="M16.0459 14.1819H8.84548C8.54294 14.1819 8.39687 14.5525 8.61804 14.7589L13.2448 19.0772C13.3795 19.2029 13.5568 19.2728 13.741 19.2728H17.818L16.0459 14.1819Z" fill="#C4C6D7"/>
<path d="M15.2579 5.222C15.1582 4.92635 14.8809 4.72729 14.5688 4.72729H9.45459H9.47792C9.78996 4.72729 10.0672 4.92635 10.167 5.222L14.5852 18.313C14.7443 18.7843 14.3936 19.2728 13.8961 19.2728H13.8182H18.987C19.4846 19.2728 19.8352 18.7843 19.6761 18.313L15.2579 5.222Z" fill="#C4C6D7"/>
</svg>
