<svg width="24" height="24" viewBox="0 0 24 24" fill="none" xmlns="http://www.w3.org/2000/svg">
<g clip-path="url(#clip0_12405_3859)">
<path d="M18.9952 8.7915C18.9592 8.75325 18.921 8.715 18.8827 8.679C18.8445 8.643 18.8085 8.6025 18.7702 8.5665C18.732 8.5305 18.696 8.49 18.6577 8.454C18.6195 8.418 18.5835 8.3775 18.5452 8.3415C18.507 8.3055 18.471 8.265 18.4327 8.229C18.3945 8.193 18.3585 8.1525 18.3202 8.1165C18.282 8.0805 18.246 8.04 18.2077 8.004C19.3238 9.10081 19.9631 10.5929 19.9875 12.1575C19.9875 15.8858 16.203 18.9188 11.55 18.9188C8.94448 18.9188 6.61348 17.967 5.06323 16.4753L5.17573 16.5878L5.28823 16.7003L5.40073 16.8128L5.51323 16.9253L5.62573 17.0378L5.73823 17.1503L5.85073 17.2628C7.39873 18.8175 9.78148 19.8188 12.45 19.8188C17.103 19.8188 20.8875 16.7858 20.8875 13.0688C20.8875 11.4803 20.2035 9.975 18.9952 8.7915Z" fill="#C4C6D7"/>
<path fill-rule="evenodd" clip-rule="evenodd" d="M10.9022 5.36925C10.9053 5.90052 10.7938 6.42622 10.5751 6.91044C10.3565 7.39466 10.036 7.826 9.6354 8.175C9.5724 8.23125 9.6219 8.33925 9.7029 8.30775C10.4612 8.013 11.4849 7.131 11.0529 5.35125C11.0349 5.25 10.9022 5.277 10.9022 5.36925ZM11.4129 5.36925C11.6882 5.81844 11.8631 6.32186 11.9256 6.84499C11.9882 7.36811 11.9368 7.89857 11.7752 8.4C11.7482 8.47875 11.8449 8.54625 11.8989 8.481C12.3917 7.851 12.8214 6.6 11.5344 5.25C11.4692 5.1915 11.3679 5.2815 11.4129 5.36025V5.36925ZM12.0339 5.331C12.465 5.63622 12.8257 6.03035 13.0916 6.4868C13.3574 6.94325 13.5223 7.45141 13.5752 7.977C13.5729 7.99594 13.578 8.01503 13.5894 8.03031C13.6008 8.04559 13.6177 8.05589 13.6365 8.05907C13.6553 8.06226 13.6746 8.05808 13.6904 8.04741C13.7062 8.03673 13.7173 8.02038 13.7214 8.00175C13.9284 7.2165 13.8114 5.87775 12.1082 5.1825C12.0182 5.1465 11.9597 5.268 12.0339 5.322V5.331ZM7.8804 7.671C8.39324 7.51779 8.86806 7.25829 9.27394 6.90939C9.67983 6.56049 10.0077 6.13002 10.2362 5.646C10.2767 5.565 10.4049 5.5965 10.3847 5.6865C9.9954 7.4865 8.69265 7.86225 7.88265 7.81275C7.79715 7.815 7.7994 7.69575 7.8804 7.671Z" fill="#C4C6D7"/>
<path d="M11.55 18.9187C6.89705 18.9187 3.11255 15.8857 3.11255 12.1575C3.11255 9.9075 4.50305 7.80825 6.8318 6.5505C7.5068 6.1905 8.08505 5.82825 8.6003 5.511C8.8838 5.3355 9.15155 5.17125 9.4103 5.01825C10.2 4.55025 10.875 4.2375 11.55 4.2375C12.225 4.2375 12.8145 4.5075 13.5525 4.944C13.7775 5.07225 14.0025 5.21175 14.2433 5.36475C14.8035 5.71125 15.4358 6.10275 16.2683 6.5505C18.597 7.80825 19.9875 9.90525 19.9875 12.1575C19.9875 15.8857 16.203 18.9187 11.55 18.9187ZM11.55 4.8C11.0055 4.8 10.425 5.08125 9.6938 5.50425C9.43955 5.65275 9.1763 5.817 8.8973 5.988C8.37305 6.312 7.7723 6.67875 7.0973 7.0455C4.9553 8.20425 3.67505 10.1145 3.67505 12.1575C3.67505 15.5752 7.20755 18.3562 11.55 18.3562C15.8925 18.3562 19.425 15.5752 19.425 12.1575C19.425 10.1145 18.1448 8.20425 16.0005 7.05C15.15 6.6 14.4863 6.177 13.9485 5.844C13.7033 5.69325 13.4783 5.55375 13.2735 5.43C12.5918 5.025 12.0945 4.8 11.55 4.8Z" fill="#C4C6D7"/>
<path fill-rule="evenodd" clip-rule="evenodd" d="M12.7155 14.6243C12.917 14.3872 13.0616 14.1053 13.1362 13.8C13.1394 13.7757 13.137 13.751 13.1293 13.7277C13.1215 13.7045 13.1086 13.6833 13.0915 13.6657C13.0744 13.6482 13.0535 13.6348 13.0305 13.6265C13.0074 13.6181 12.9828 13.6152 12.9584 13.6178H10.1819C10.1574 13.6148 10.1325 13.6175 10.1091 13.6256C10.0858 13.6338 10.0646 13.6472 10.0472 13.6648C10.0299 13.6824 10.0167 13.7037 10.0089 13.7271C10.001 13.7506 9.99864 13.7755 10.0019 13.8C10.0855 14.15 10.2613 14.47 10.5094 14.7274C10.6312 14.5467 10.794 14.3972 10.9846 14.2912C11.1806 14.1822 11.4001 14.1225 11.6243 14.1172C11.8338 14.1241 12.0396 14.1737 12.2293 14.2631C12.4138 14.3501 12.579 14.4729 12.7155 14.6243Z" fill="#C4C6D7"/>
<path fill-rule="evenodd" clip-rule="evenodd" d="M10.5689 14.9678C10.8424 15.2263 11.1952 15.3849 11.5702 15.4178C11.9443 15.3844 12.2963 15.2259 12.5692 14.9678C12.9174 14.6732 13.1626 14.2751 13.2689 13.8315C13.277 13.7922 13.2761 13.7515 13.2664 13.7126C13.2567 13.6736 13.2383 13.6374 13.2127 13.6065C13.1815 13.5696 13.1425 13.5402 13.0985 13.5204C13.0545 13.5005 13.0067 13.4907 12.9584 13.4918H10.1819C10.1336 13.4902 10.0856 13.4998 10.0415 13.5197C9.99742 13.5396 9.95849 13.5693 9.92765 13.6065C9.90176 13.6373 9.88307 13.6735 9.87295 13.7124C9.86282 13.7513 9.86153 13.792 9.86915 13.8315C9.97546 14.2751 10.2206 14.6732 10.5689 14.9678ZM10.1347 13.773C10.1369 13.7685 10.1459 13.7528 10.1819 13.7528L12.9584 13.7573C12.967 13.7562 12.9758 13.7575 12.9838 13.761C12.9917 13.7646 12.9985 13.7703 13.0034 13.7775C12.9417 14.0279 12.8293 14.2613 12.6746 14.464C12.3886 14.1927 12.0114 14.0114 11.6173 14.0048C11.4061 14.0066 11.1979 14.0552 11.0077 14.147C10.8196 14.2377 10.6537 14.3686 10.5216 14.5303C10.3369 14.3121 10.2039 14.0532 10.1347 13.773ZM10.6636 14.6803C10.6709 14.687 10.6784 14.6935 10.6858 14.7C10.7974 14.5558 10.9402 14.4388 11.1035 14.3578C11.2668 14.2767 11.4463 14.2337 11.6286 14.232C11.9641 14.2419 12.2837 14.4035 12.5254 14.6365C12.4829 14.6799 12.4382 14.7214 12.3914 14.7608C12.168 14.9774 11.8793 15.1142 11.5702 15.15C11.2602 15.1138 10.9712 14.9753 10.7489 14.7563C10.7196 14.7318 10.6912 14.7064 10.6636 14.6803Z" fill="#C4C6D7"/>
<path d="M14.9745 13.9395C15.7014 13.9395 16.2907 13.593 16.2907 13.1655C16.2907 12.738 15.7014 12.3915 14.9745 12.3915C14.2475 12.3915 13.6582 12.738 13.6582 13.1655C13.6582 13.593 14.2475 13.9395 14.9745 13.9395Z" fill="#868EA3"/>
<path d="M8.1796 13.9396C7.45265 13.9396 6.86335 13.5931 6.86335 13.1656C6.86335 12.7381 7.45265 12.3916 8.1796 12.3916C8.90654 12.3916 9.49585 12.7381 9.49585 13.1656C9.49585 13.5931 8.90654 13.9396 8.1796 13.9396Z" fill="#868EA3"/>
<path fill-rule="evenodd" clip-rule="evenodd" d="M9.4718 12.6472C9.26763 12.7831 9.02772 12.8554 8.78242 12.855C8.45401 12.8544 8.13925 12.7235 7.90724 12.4911C7.67523 12.2587 7.54492 11.9437 7.54492 11.6153C7.54492 11.37 7.61769 11.1302 7.75401 10.9263C7.89034 10.7223 8.0841 10.5634 8.31076 10.4697C8.53743 10.3759 8.78681 10.3515 9.02736 10.3995C9.26791 10.4475 9.48881 10.5658 9.6621 10.7394C9.8354 10.913 9.95329 11.1341 10.0009 11.3748C10.0485 11.6154 10.0236 11.8648 9.9294 12.0912C9.83523 12.3177 9.67597 12.5112 9.4718 12.6472ZM15.0469 12.6505C14.8418 12.7856 14.6012 12.8568 14.3557 12.855C14.0282 12.8532 13.7149 12.7217 13.4842 12.4894C13.2535 12.257 13.1243 11.9427 13.1249 11.6153C13.1249 11.3697 13.1979 11.1296 13.3345 10.9256C13.4711 10.7215 13.6653 10.5626 13.8923 10.469C14.1194 10.3755 14.3691 10.3515 14.6099 10.4C14.8506 10.4486 15.0715 10.5676 15.2445 10.7418C15.4175 10.9161 15.5349 11.1379 15.5817 11.379C15.6285 11.62 15.6027 11.8696 15.5074 12.096C15.4122 12.3223 15.2519 12.5153 15.0469 12.6505ZM8.65939 11.6166C8.5825 11.6675 8.49223 11.6944 8.40002 11.694C8.27689 11.6934 8.159 11.644 8.07214 11.5568C7.98528 11.4695 7.93652 11.3513 7.93652 11.2282C7.93652 11.136 7.9639 11.0459 8.01518 10.9692C8.06645 10.8926 8.13933 10.8329 8.22456 10.7977C8.3098 10.7625 8.40356 10.7534 8.49397 10.7716C8.58437 10.7897 8.66736 10.8343 8.7324 10.8997C8.79745 10.965 8.84163 11.0482 8.85935 11.1387C8.87706 11.2292 8.86752 11.3229 8.83192 11.408C8.79632 11.4931 8.73628 11.5657 8.65939 11.6166ZM14.2326 11.6166C14.1558 11.6675 14.0655 11.6944 13.9733 11.694H13.9688C13.8464 11.6922 13.7297 11.6423 13.6438 11.5552C13.5579 11.468 13.5098 11.3506 13.5098 11.2282C13.5098 11.136 13.5371 11.0459 13.5884 10.9692C13.6397 10.8926 13.7126 10.8329 13.7978 10.7977C13.883 10.7625 13.9768 10.7534 14.0672 10.7716C14.1576 10.7897 14.2406 10.8343 14.3057 10.8997C14.3707 10.965 14.4149 11.0482 14.4326 11.1387C14.4503 11.2292 14.4408 11.3229 14.4052 11.408C14.3696 11.4931 14.3095 11.5657 14.2326 11.6166Z" fill="#C4C6D7"/>
</g>
<defs>
<clipPath id="clip0_12405_3859">
<rect width="18" height="15.75" fill="white" transform="translate(3 4.125)"/>
</clipPath>
</defs>
</svg>
