<svg width="24" height="24" viewBox="0 0 24 24" fill="none" xmlns="http://www.w3.org/2000/svg">
<path fill-rule="evenodd" clip-rule="evenodd" d="M4.33474 21H19.6653V20.9972C20.0187 20.9953 20.3571 20.8541 20.607 20.6042C20.8569 20.3543 20.9981 20.0159 21 19.6624V4.33193C20.9985 3.97865 20.8573 3.64031 20.6073 3.39076C20.3572 3.14122 20.0185 3.00074 19.6653 3H4.33474C3.98097 3.00074 3.64191 3.14161 3.39176 3.39176C3.1416 3.64191 3.00074 3.98098 3 4.33474V19.6653C3.00074 20.019 3.1416 20.3581 3.39176 20.6082C3.64191 20.8584 3.98097 20.9993 4.33474 21ZM17.5898 19.1128V4.78455L14.5561 5.3927V9.84361C13.7566 9.05261 12.6807 8.60592 11.4225 8.60592C8.82949 8.60592 6.40698 10.9845 6.40698 13.9269C6.40698 16.8692 8.67084 19.2152 11.4225 19.2152C12.6807 19.2152 13.7566 18.7921 14.5561 18.0158V19.1128H17.5898ZM13.918 15.6821C13.4385 16.1616 12.7883 16.4312 12.1102 16.4318C11.4321 16.4312 10.7819 16.1616 10.3024 15.6821C9.82293 15.2026 9.55329 14.5524 9.55269 13.8743C9.55321 13.1961 9.82282 12.5459 10.3023 12.0663C10.7818 11.5868 11.4321 11.3171 12.1102 11.3165C12.7884 11.3171 13.4386 11.5868 13.9181 12.0663C14.3976 12.5459 14.6672 13.1961 14.6677 13.8743C14.6671 14.5524 14.3975 15.2026 13.918 15.6821Z" fill="#C4C6D7"/>
</svg>
