<svg width="24" height="24" viewBox="0 0 24 24" fill="none" xmlns="http://www.w3.org/2000/svg">
<path fill-rule="evenodd" clip-rule="evenodd" d="M15.9885 6.12325L14.7744 6.12322L14.7534 6.12328L5.93564 6.12329L18.0383 18.6163L21 18.6163V10.9534L16.4243 6.39434C16.2792 6.24386 16.1385 6.16423 15.9885 6.12325ZM15.256 5.31774C15.2924 5.31528 15.3297 5.31285 15.3676 5.31068L13.5118 3.40774C13.396 3.32412 13.2091 3.22287 12.989 3.14103C12.755 3.05404 12.5127 2.99998 12.3081 2.99998C11.8787 2.99998 11.4951 3.06688 11.2769 3.16511L6.71678 5.34247L14.7534 5.34246C14.8969 5.34246 15.0357 5.33289 15.1859 5.32254L15.256 5.31774ZM17.4863 19.1652L5.38352 6.69561V17.2933L9.69362 22L17.4863 22V19.1652ZM2.17146 12.4595C2.08984 12.689 1.99998 13.0382 1.99998 13.2279C1.99998 13.6493 2.2466 14.0396 2.55634 14.4563L4.6027 16.5026V7.43579L2.17146 12.4595Z" fill="#C4C6D7"/>
</svg>
