<svg width="24" height="24" viewBox="0 0 24 24" fill="none" xmlns="http://www.w3.org/2000/svg">
<path d="M19.4286 15.6964C19.3583 16.1284 18.8762 20.1161 18.8058 21C14.0697 20.8273 9.97075 20.8095 4 21V19.9756C5.82644 19.6159 6.43594 19.6532 6.45092 18.5592C6.52296 15.6533 6.5925 8.74984 6.45092 5.62163C6.40956 4.47817 5.96356 4.54629 4 4.17528V3.15071C6.96862 3.24546 14.283 3.49423 18.5848 3C18.4442 4.53684 18.2735 8.08257 18.2735 8.08257H17.3394C16.8953 6.3616 16.5857 4.44643 15.1396 4.44643H9.63513C9.2233 4.44643 9.20317 4.58708 9.20317 4.83818V11.4175C11.5335 11.4375 12.759 11.317 12.759 11.317C13.9551 11.2787 13.8662 10.9754 14.3963 8.69531H15.4308C15.2538 12.7675 15.2737 11.1795 15.3605 15.1339H14.326C13.9581 13.5233 13.9617 12.6813 12.7388 12.663C12.7388 12.663 11.875 12.5826 9.20313 12.5826V18.1674C9.20313 19.2121 9.77574 19.7042 10.981 19.7042H14.567C17.1238 19.7042 17.2415 18.7 18.5347 15.6964H19.4286V15.6964Z" fill="#C4C6D7"/>
</svg>
