<svg width="24" height="24" viewBox="0 0 24 24" fill="none" xmlns="http://www.w3.org/2000/svg">
<path d="M19.7097 10.367C20.1181 9.14134 19.9774 7.79865 19.3244 6.68377C18.3423 4.97377 16.3679 4.09402 14.4396 4.50802C13.5818 3.54165 12.3494 2.99209 11.0573 2.99996C9.08632 2.99546 7.33751 4.26446 6.73113 6.13984C5.46495 6.39915 4.37201 7.19171 3.73245 8.31502C2.74301 10.0205 2.96857 12.1704 4.29045 13.6329C3.88207 14.8586 4.0227 16.2013 4.67576 17.3161C5.65788 19.0261 7.63226 19.9059 9.56051 19.4919C10.4178 20.4583 11.6508 21.0078 12.9428 20.9994C14.9149 21.0045 16.6643 19.7343 17.2707 17.8573C18.5369 17.598 19.6298 16.8054 20.2694 15.6821C21.2577 13.9766 21.0316 11.8284 19.7103 10.3659L19.7097 10.367ZM12.9439 19.8232C12.1548 19.8243 11.3903 19.5481 10.7845 19.0425C10.8121 19.0278 10.8599 19.0014 10.8908 18.9823L14.4751 16.9123C14.6584 16.8082 14.7709 16.613 14.7698 16.4021V11.3491L16.2846 12.2238C16.3009 12.2317 16.3116 12.2475 16.3139 12.2655V16.4499C16.3116 18.3106 14.8047 19.8193 12.9439 19.8232ZM5.6967 16.7278C5.30126 16.0449 5.15895 15.2445 5.29451 14.4676C5.32095 14.4834 5.36763 14.5121 5.40082 14.5312L8.98507 16.6012C9.16676 16.7075 9.39176 16.7075 9.57401 16.6012L13.9497 14.0745V15.8238C13.9508 15.8418 13.9424 15.8593 13.9283 15.8705L10.3053 17.9625C8.69145 18.8917 6.63045 18.3393 5.69726 16.7278H5.6967ZM4.75338 8.90396C5.14713 8.21996 5.7687 7.69684 6.50895 7.42515C6.50895 7.45609 6.50726 7.51065 6.50726 7.5489V11.6895C6.50613 11.8998 6.61863 12.095 6.80145 12.1991L11.1771 14.7253L9.66232 15.6C9.64713 15.6101 9.62801 15.6118 9.61113 15.6045L5.98751 13.5108C4.37707 12.5782 3.8247 10.5178 4.75282 8.90452L4.75338 8.90396ZM17.1993 11.8003L12.8236 9.27352L14.3384 8.3994C14.3536 8.38927 14.3727 8.38759 14.3896 8.3949L18.0132 10.4868C19.6264 11.4189 20.1794 13.4827 19.2473 15.096C18.853 15.7788 18.232 16.302 17.4923 16.5742V12.3099C17.494 12.0995 17.3821 11.9049 17.1998 11.8003H17.1993ZM18.7068 9.53115C18.6803 9.51484 18.6336 9.48671 18.6004 9.46759L15.0162 7.39759C14.8345 7.29127 14.6095 7.29127 14.4273 7.39759L10.0516 9.92434V8.17496C10.0504 8.15696 10.0589 8.13952 10.0729 8.12827L13.696 6.03802C15.3098 5.10709 17.3731 5.66115 18.3034 7.27552C18.6966 7.95727 18.8389 8.75546 18.7056 9.53115H18.7068ZM9.22807 12.6491L7.7127 11.7744C7.69638 11.7665 7.6857 11.7508 7.68345 11.7328V7.54834C7.68457 5.68534 9.19601 4.17559 11.059 4.17671C11.8471 4.17671 12.6098 4.45346 13.2156 4.95746C13.1881 4.97209 13.1408 4.99852 13.1093 5.01765L9.52507 7.08765C9.3417 7.19171 9.2292 7.38634 9.23032 7.59727L9.22807 12.648V12.6491ZM10.051 10.875L12.0001 9.7494L13.9491 10.8744V13.125L12.0001 14.25L10.051 13.125V10.875Z" fill="#C4C6D7"/>
</svg>
