<svg width="24" height="24" viewBox="0 0 24 24" fill="none" xmlns="http://www.w3.org/2000/svg">
<path d="M9.039 6.92844C8.0418 8.10292 7.3983 9.84079 7.3533 11.7884V12.2114C7.3992 14.1598 8.0427 15.895 9.0381 17.0713C10.3287 18.7471 12.2475 19.8108 14.3931 19.8108C15.6773 19.8079 16.9318 19.4239 17.9976 18.7075C16.241 20.2863 13.9314 21.1064 11.5725 20.9889C9.26213 20.8795 7.08262 19.8846 5.48637 18.2108C3.89012 16.537 2.99972 14.3128 3 11.9999C3 7.02834 7.0302 3 12 3H12.0333C14.2355 3.00591 16.3587 3.82145 17.9985 5.29136C16.9312 4.57592 15.6762 4.19203 14.3913 4.18798C12.2475 4.18798 10.3287 5.25266 9.0363 6.92844H9.0381H9.039ZM21 11.9999C21.0016 13.2666 20.735 14.5193 20.2177 15.6755C19.7003 16.8318 18.944 17.8654 17.9985 18.7084C15.69 19.8333 13.539 19.0467 12.8262 18.5554C15.0942 18.0568 16.8069 15.3154 16.8069 11.9999C16.8069 8.68341 15.0942 5.94295 12.8262 5.44526C13.5381 4.95477 15.69 4.16728 17.9985 5.29136C18.9441 6.13424 19.7005 7.16784 20.2178 8.32411C20.7352 9.48039 21.0017 10.7331 21 11.9999Z" fill="#C4C6D7"/>
</svg>
