<svg width="24" height="24" viewBox="0 0 24 24" fill="none" xmlns="http://www.w3.org/2000/svg">
<path d="M17.7358 5.3661C14.61 2.22373 9.5308 2.21103 6.38892 5.32991L6.35205 5.36679C3.21517 8.52223 3.21617 13.6553 6.35392 16.8096L11.2005 21.6812C11.301 21.7825 11.4203 21.8628 11.5518 21.9175C11.6832 21.9722 11.8241 22.0002 11.9664 22C12.2434 22 12.5213 21.8941 12.7327 21.6812C13.1553 21.2558 13.1553 20.566 12.7327 20.1408L7.88542 15.2687C5.59942 12.9709 5.59211 9.23497 7.86417 6.92742L7.8863 6.90562C10.1799 4.60115 13.9112 4.60184 16.2034 6.90637C18.0857 8.79883 18.3558 12.0374 16.8306 14.4405C16.5089 14.9472 16.6571 15.6207 17.1611 15.9442C17.6662 16.2686 18.3352 16.119 18.6567 15.6125C20.7497 12.3153 20.3623 8.00648 17.7358 5.3661M15.7962 17.0594C16.2191 17.4848 16.2196 18.1747 15.7962 18.5995C15.696 18.701 15.5768 18.7815 15.4454 18.8363C15.3141 18.8912 15.1732 18.9193 15.031 18.9191C14.8885 18.9193 14.7474 18.8912 14.6158 18.8365C14.4842 18.7817 14.3646 18.7014 14.2639 18.6001L9.41749 13.7284C7.96967 12.2724 7.96967 9.90284 9.41749 8.44652C10.119 7.74189 11.0517 7.35344 12.0437 7.35344H12.0448C13.0367 7.35344 13.9694 7.74239 14.6705 8.44815C15.1447 8.92448 15.4817 9.52099 15.6458 10.1744C15.81 10.8277 15.7951 11.5136 15.6027 12.1592C15.4305 12.7356 14.8281 13.0637 14.2545 12.8912C13.6811 12.7194 13.3547 12.1124 13.5256 11.5356C13.6061 11.2666 13.6126 10.9806 13.5443 10.7081C13.4761 10.4357 13.3357 10.1869 13.1381 9.98823C12.8457 9.69398 12.4577 9.53205 12.0443 9.53186H12.0437C11.6302 9.53186 11.2422 9.6936 10.9497 9.98716C10.3463 10.5938 10.3463 11.5811 10.9497 12.1878L15.7962 17.0594" fill="#C4C6D7"/>
</svg>
