<svg width="24" height="24" viewBox="0 0 24 24" fill="none" xmlns="http://www.w3.org/2000/svg">
<path fill-rule="evenodd" clip-rule="evenodd" d="M12 3C7.02846 3 3 7.02846 3 12C3 16.9715 7.02846 21 12 21C16.9715 21 21 16.9715 21 12C21 7.02846 16.9715 3 12 3ZM13.3985 4.24771L13.6739 4.30317L13.3444 5.95782L13.069 5.90267L13.3985 4.24771ZM10.6015 19.7493L10.3261 19.6938L10.6556 18.0392L10.931 18.0943L10.6015 19.7493ZM14.1509 4.42211L14.4197 4.50415L14.1745 5.31204L13.9058 5.23L14.1509 4.42211ZM9.84906 19.5769L9.58032 19.4948L9.82546 18.6869L10.0942 18.769L9.84906 19.5769ZM15.1445 4.7775L14.4984 6.33681L14.2386 6.22886L14.8844 4.66956L15.1445 4.77753V4.7775ZM8.85782 19.2215L9.50357 17.6625L9.76336 17.7705L9.11761 19.3295L8.85782 19.2215V19.2215ZM15.588 4.98816L15.8351 5.12068L15.4381 5.86448L15.1906 5.73158L15.588 4.98816ZM8.41201 19.0112L8.16485 18.8783L8.56315 18.1349L8.81065 18.2674L8.41201 19.0112ZM19.0125 8.4117L18.2694 8.80967L18.1368 8.56217L18.8793 8.1642C18.7995 8.02075 18.7151 7.87993 18.6262 7.74199L17.2237 8.68043L17.0695 8.44525L18.4723 7.50681C18.378 7.37293 18.28 7.24372 18.1777 7.11317L17.5276 7.64766L17.3486 7.42941L17.9986 6.89492C17.8927 6.77134 17.7804 6.65175 17.6678 6.53284L17.2276 6.97299L13.1251 13.1255L6.97232 17.2284L6.52949 17.6685C6.64874 17.7811 6.76934 17.8934 6.89492 17.999L7.42941 17.3489L7.64766 17.528L7.11317 18.1781C7.24038 18.2794 7.37293 18.3751 7.50681 18.4694L8.43859 17.0666L8.67377 17.2207L7.73535 18.6232C8.72293 19.26 9.85769 19.6816 11.0822 19.8224L11.1632 18.9823L11.4442 19.0102L11.3632 19.8503C11.5283 19.8649 11.6904 19.8716 11.8558 19.8752V18.1874H12.1372V19.8752C12.3026 19.8716 12.4681 19.8639 12.6302 19.8503L12.5461 19.0102L12.8272 18.9823L12.9112 19.8224C13.0763 19.8031 13.2381 19.7782 13.4002 19.7493L13.071 18.0963L13.3467 18.0412L13.6756 19.6949C13.837 19.66 13.9945 19.6188 14.1519 19.5739L13.9064 18.7667L14.1752 18.6847L14.4207 19.4926L14.1579 19.5729C14.4054 19.5025 14.6466 19.4198 14.8834 19.3271L14.2386 17.7705L14.4984 17.6625L15.1435 19.2195C15.294 19.1544 15.4402 19.0843 15.5856 19.0099L15.188 18.2674L15.4355 18.1349L15.8335 18.878C15.9776 18.7979 16.1201 18.7155 16.258 18.6262L15.3196 17.2237L15.5547 17.0696L16.4932 18.4724C16.6271 18.378 16.7563 18.2801 16.8868 18.1777L16.3523 17.5276L16.5706 17.3486L17.1051 18.002C17.2273 17.8964 17.3482 17.7841 17.4672 17.6712L16.2759 16.4799L16.4759 16.2796L17.6675 17.4712C17.7801 17.3516 17.8924 17.2327 17.9983 17.1054L17.3482 16.5709L17.5273 16.3527L18.1774 16.8872L18.1781 16.8869C18.2794 16.7563 18.3784 16.6271 18.4694 16.4999L17.0666 15.5614L17.2207 15.3262L18.6232 16.2646C18.8524 15.9095 19.0514 15.5338 19.2221 15.1432L17.6632 14.4977L17.7711 14.238L19.3304 14.8837C19.5749 14.2629 19.7433 13.6052 19.8224 12.9179L18.9823 12.8368L19.0102 12.5558L19.8503 12.6368C19.8649 12.4717 19.8715 12.3096 19.8752 12.1442L18.1874 12.1439V11.8628H19.8752C19.8715 11.6974 19.8639 11.532 19.8503 11.3699L19.0102 11.4539L18.9823 11.1729L19.8224 11.0888C19.7155 10.155 19.4411 9.24818 19.0125 8.4117H19.0125ZM4.99277 15.588L5.73521 15.1904L5.86777 15.4379L5.12498 15.8358C5.20402 15.98 5.28642 16.1205 5.37577 16.258L6.77862 15.3196L6.93376 15.5548L5.53091 16.4932V16.4922C5.62524 16.6261 5.71991 16.7589 5.82226 16.8858L6.47234 16.3514L6.65138 16.5696L6.0013 17.1041C6.10725 17.2267 6.21955 17.3473 6.33217 17.4665L6.77232 17.0264L10.8748 10.8736L17.0276 6.77103L17.4774 6.33087C17.3578 6.21826 17.2389 6.10598 17.1117 6.00001L16.5772 6.65012L16.3589 6.47107L16.8935 5.82094C16.7679 5.71997 16.6337 5.62429 16.4998 5.52962L15.5614 6.93244L15.3262 6.77733L16.2646 5.37448C15.277 4.73801 14.1423 4.31614 12.9178 4.1756L12.8367 5.01569L12.5557 4.98748L12.6368 4.14739C12.4717 4.1331 12.3096 4.12612 12.1441 4.12281V5.81031H11.8618V4.12281C11.6963 4.12612 11.5309 4.13377 11.3688 4.14739L11.4532 4.98748L11.1721 5.01572L11.0878 4.17562C9.86497 4.31614 8.72892 4.73469 7.74128 5.3715L8.67973 6.77432L8.44455 6.92946L7.5061 5.52664C7.37223 5.62229 7.24268 5.72028 7.11247 5.8226L7.64662 6.47271L7.4287 6.65175L6.89422 5.99832C6.7703 6.1043 6.65105 6.21657 6.5318 6.32918L7.72337 7.52042L7.52306 7.72073L6.33149 6.52949C6.21888 6.64874 6.1066 6.76934 6.00097 6.89492L6.65105 7.42941L6.472 7.64766L5.82189 7.11317C5.72059 7.24038 5.62491 7.37293 5.53057 7.50681L6.93674 8.43859L6.7816 8.6738L5.37876 7.73535C5.28817 7.87589 5.2022 8.01936 5.12099 8.16552L5.86442 8.56183L5.73156 8.81065L4.98844 8.41333C4.91442 8.55856 4.84485 8.70601 4.77983 8.85548L6.3388 9.5016L6.23083 9.76136L4.6722 9.11561C4.61173 9.26839 4.55694 9.42386 4.50578 9.58133L5.31199 9.82647L5.22995 10.0952L4.42504 9.85072C4.38054 10.0075 4.34201 10.166 4.3068 10.3268L5.95678 10.6556L5.90129 10.931L4.25131 10.6025C4.22206 10.7606 4.19849 10.9214 4.17956 11.0822L5.01999 11.1632L4.99176 11.4442L4.15166 11.3632C4.13704 11.5283 4.1304 11.6904 4.12708 11.8558L5.81458 11.8562V12.1372H4.12708C4.1304 12.3026 4.13805 12.4681 4.15166 12.6302L4.99176 12.5461L5.01999 12.8272L4.17956 12.9112C4.19849 13.0753 4.22408 13.2367 4.25232 13.3975L5.90264 13.069L5.95777 13.3443L4.3068 13.6732C4.34168 13.835 4.38352 13.9938 4.42802 14.1516L5.23093 13.9077L5.313 14.1765L4.50877 14.4207C4.55915 14.5767 4.61443 14.7312 4.67453 14.8837L6.22883 14.24L6.33681 14.4997L4.78183 15.1438C4.84694 15.295 4.91801 15.4421 4.99277 15.588ZM19.2214 8.85785L19.3294 9.11761L17.7704 9.76339L17.6625 9.50362L19.2214 8.85785ZM19.5759 9.8501L18.768 10.0956L18.6859 9.82684L19.4938 9.58136L19.5759 9.8501ZM19.7493 10.6015L18.0943 10.931L18.0392 10.6557L19.6938 10.3261L19.7493 10.6015ZM19.6951 13.6739L18.0405 13.3444L18.0956 13.069L19.7506 13.3985L19.6951 13.6739V13.6739ZM19.4938 14.4197L18.6859 14.1745L18.768 13.9058L19.5759 14.151L19.4938 14.4197ZM4.68187 9.09072L4.77888 8.85785C4.7454 8.93499 4.71306 9.01262 4.68187 9.09072ZM18.8773 15.8351L18.1322 15.4382L18.2647 15.1907L19.0098 15.588L18.8773 15.8351ZM8.16122 5.12074L8.40872 4.98818L8.80733 5.73164L8.55983 5.8645L8.16122 5.12074ZM9.11761 4.67161L9.76336 6.23092L9.5036 6.33886L8.85785 4.77989L9.11761 4.67161ZM9.84908 4.42214L10.0942 5.23003L9.82549 5.31207L9.58032 4.50418L9.84908 4.42214ZM10.6028 4.25007L10.9323 5.90469L10.6569 5.96018L10.3274 4.3052L10.6028 4.25007H10.6028ZM19.847 11.3118L19.829 11.1251C19.8327 11.1878 19.8393 11.2473 19.847 11.3118ZM18.6162 7.72511L18.489 7.5351C18.5305 7.59788 18.573 7.66099 18.6162 7.72511ZM18.1279 7.05343L18.0502 6.95873C18.0781 6.99029 18.103 7.02185 18.1279 7.05343ZM17.0376 5.94657L16.9433 5.86883C16.9782 5.89673 17.0064 5.92132 17.0376 5.94657ZM16.465 5.50973L16.2749 5.38385C16.3377 5.42702 16.4022 5.46822 16.465 5.50973ZM12.875 4.17464L12.685 4.15672C12.7477 4.16038 12.8122 4.16702 12.875 4.17467V4.17464ZM11.3117 4.15307L11.1217 4.17101C11.1845 4.16736 11.2472 4.16072 11.3117 4.15307ZM7.72503 5.38382L7.53502 5.50973C7.59782 5.46687 7.66093 5.4257 7.72503 5.38385V5.38382ZM7.05335 5.87215L6.96233 5.94657C6.99355 5.92199 7.02179 5.89707 7.05335 5.87215ZM5.94649 6.96239L5.86875 7.05675C5.89668 7.02519 5.92126 6.99364 5.94649 6.96239ZM5.50968 7.5351L5.38376 7.72511C5.42696 7.66231 5.46814 7.5992 5.50968 7.5351ZM4.17461 11.125L4.1567 11.315C4.16035 11.2522 4.16699 11.1891 4.17461 11.125ZM4.15304 12.6896L4.17098 12.8796C4.16733 12.8169 4.16066 12.7528 4.15304 12.6896ZM5.38379 16.2716L5.50971 16.4616C5.46684 16.4022 5.42564 16.3391 5.38379 16.2716ZM5.94652 17.0377C5.92193 17.0064 5.89702 16.9782 5.87212 16.9467L5.94652 17.0377ZM6.96236 18.0535L7.05337 18.1279C7.02182 18.1033 6.99358 18.0787 6.96236 18.0535ZM7.53504 18.4867L7.72506 18.6139C7.66228 18.5757 7.59917 18.5328 7.53504 18.4867ZM11.125 19.8254L11.315 19.8433C11.2522 19.8397 11.1891 19.833 11.125 19.8254V19.8254ZM12.6896 19.847L12.8763 19.829C12.8135 19.8327 12.7537 19.8393 12.6896 19.847H12.6896ZM16.2749 18.6162L16.465 18.489C16.4022 18.5305 16.3377 18.573 16.2749 18.6162ZM16.9466 18.1279L17.0413 18.0502C17.0097 18.0781 16.9782 18.103 16.9466 18.1279ZM17.5622 17.5755L17.5755 17.5622L17.5622 17.5755ZM18.0535 17.0377L18.1312 16.9433C18.1033 16.9749 18.0787 17.0064 18.0535 17.0377ZM19.847 12.685C19.8403 12.7478 19.8367 12.8122 19.829 12.875L19.847 12.685ZM18.6162 16.2749C18.5744 16.3377 18.5318 16.4022 18.489 16.465L18.6162 16.2749Z" fill="#C4C6D7"/>
</svg>
