<svg width="24" height="24" viewBox="0 0 24 24" fill="none" xmlns="http://www.w3.org/2000/svg">
<path d="M14.37 16.2599C13.3247 16.2599 12.4799 15.4151 12.4799 14.3697C12.4799 13.3244 13.3247 12.4796 14.37 12.4796H19.1098C20.1551 12.4796 21 13.3244 21 14.3697C21 15.4151 20.1551 16.2599 19.1098 16.2599H14.37Z" fill="#C4C6D7"/>
<path d="M14.37 17.205C15.4154 17.205 16.2602 18.0499 16.2602 19.0952C16.2602 20.1405 15.4154 20.9854 14.37 20.9854C13.3247 20.9854 12.4799 20.1405 12.4799 19.0952V17.205H14.37Z" fill="#C4C6D7"/>
<path d="M16.2602 9.62993C16.2602 10.6753 15.4154 11.5201 14.37 11.5201C13.3247 11.5201 12.4799 10.6753 12.4799 9.62993V4.89017C12.4799 3.84485 13.3247 3 14.37 3C15.4154 3 16.2602 3.84485 16.2602 4.89017V9.62993Z" fill="#C4C6D7"/>
<path d="M17.2045 9.62992C17.2045 8.5846 18.0493 7.73975 19.0946 7.73975C20.14 7.73975 20.9848 8.5846 20.9848 9.62992C20.9848 10.6752 20.14 11.5201 19.0946 11.5201H17.2045V9.62992Z" fill="#C4C6D7"/>
<path d="M9.62993 7.73975C10.6753 7.73975 11.5201 8.5846 11.5201 9.62992C11.5201 10.6752 10.6753 11.5201 9.62993 11.5201H4.89017C3.84485 11.5201 3 10.6752 3 9.62992C3 8.5846 3.84485 7.73975 4.89017 7.73975H9.62993Z" fill="#C4C6D7"/>
<path d="M9.62943 6.78035C8.58411 6.78035 7.73926 5.9355 7.73926 4.89017C7.73926 3.84485 8.58411 3 9.62943 3C10.6748 3 11.5196 3.84485 11.5196 4.89017V6.78035H9.62943Z" fill="#C4C6D7"/>
<path d="M7.73926 14.3697C7.73926 13.3244 8.58411 12.4796 9.62943 12.4796C10.6748 12.4796 11.5196 13.3244 11.5196 14.3697V19.0952C11.5196 20.1405 10.6748 20.9853 9.62943 20.9853C8.58411 20.9853 7.73926 20.1405 7.73926 19.0952V14.3697Z" fill="#C4C6D7"/>
<path d="M6.795 14.3697C6.795 15.4151 5.95015 16.2599 4.90482 16.2599C3.8595 16.2599 3.01465 15.4151 3.01465 14.3697C3.01465 13.3244 3.8595 12.4796 4.90482 12.4796H6.795V14.3697Z" fill="#C4C6D7"/>
</svg>
