<svg width="24" height="24" viewBox="0 0 24 24" fill="none" xmlns="http://www.w3.org/2000/svg">
<path fill-rule="evenodd" clip-rule="evenodd" d="M11.9691 7.14038C10.9048 7.14038 10.2461 7.44755 10.2461 8.24158V8.24274C10.2461 9.11257 11.3672 9.49471 12.7567 9.96838C15.0217 10.7404 18 11.7557 18 15.5223C18 19.184 15.0937 21.2734 10.8776 21.2734C8.9684 21.2644 7.08099 20.8656 5.33029 20.1015V15.2458C7.03072 16.1731 9.19857 16.8698 10.877 16.8698C12.0153 16.8698 12.8242 16.5754 12.8242 15.626C12.8242 14.664 11.6133 14.2269 10.1513 13.6992C7.92457 12.8955 5.11536 11.8815 5.11536 8.4821C5.11536 4.88291 7.86677 2.72746 11.9691 2.72746C13.696 2.70816 15.4104 3.02404 17.0178 3.65768V8.45081C15.4589 7.62718 13.7305 7.17855 11.9691 7.14038Z" fill="#C4C6D7"/>
</svg>
