<svg width="24" height="24" viewBox="0 0 24 24" fill="none" xmlns="http://www.w3.org/2000/svg">
<path d="M7.15692 12.7904H18.7462C18.6065 15.7164 17.2459 18.3647 15.0978 20.3231L7.39512 13.0163L7.15692 12.7904Z" fill="#1B1B28" stroke="#C4C6D7"/>
<path d="M15.069 3.72733L15.098 3.69798C17.2499 5.79633 18.6164 8.6408 18.7478 11.7903H18.7425H18.722H18.7015H18.681H18.6606H18.6401H18.6197H18.5992H18.5788H18.5584H18.538H18.5176H18.4972H18.4768H18.4564H18.436H18.4156H18.3953H18.3749H18.3545H18.3342H18.3138H18.2935H18.2732H18.2528H18.2325H18.2122H18.1919H18.1715H18.1512H18.1309H18.1106H18.0903H18.07H18.0497H18.0294H18.0091H17.9888H17.9685H17.9482H17.9279H17.9077H17.8874H17.8671H17.8468H17.8265H17.8062H17.7859H17.7657H17.7454H17.7251H17.7048H17.6845H17.6642H17.6439H17.6236H17.6033H17.583H17.5627H17.5424H17.5221H17.5018H17.4815H17.4612H17.4408H17.4205H17.4002H17.3799H17.3595H17.3392H17.3188H17.2985H17.2781H17.2578H17.2374H17.217H17.1966H17.1762H17.1558H17.1354H17.115H17.0946H17.0742H17.0538H17.0333H17.0129H16.9924H16.972H16.9515H16.931H16.9105H16.89H16.8695H16.849H16.8285H16.8079H16.7874H16.7668H16.7462H16.7257H16.7051H16.6845H16.6638H16.6432H16.6226H16.6019H16.5813H16.5606H16.5399H16.5192H16.4985H16.4778H16.457H16.4363H16.4155H16.3947H16.3739H16.3531H16.3323H16.3114H16.2906H16.2697H16.2488H16.2279H16.207H16.186H16.1651H16.1441H16.1231H16.1021H16.0811H16.0601H16.039H16.0179H15.9968H15.9757H15.9546H15.9335H15.9123H15.8911H15.8699H15.8487H15.8274H15.8062H15.7849H15.7636H15.7423H15.7209H15.6995H15.6781H15.6567H15.6353H15.6139H15.5924H15.5709H15.5494H15.5278H15.5063H15.4847H15.4631H15.4414H15.4198H15.3981H15.3764H15.3546H15.3329H15.3111H15.2893H15.2675H15.2456H15.2237H15.2018H15.1799H15.1579H15.136H15.1139H15.0919H15.0698H15.0478H15.0256H15.0035H14.9813H14.9591H14.9369H14.9146H14.8923H14.87H14.8477H14.8253H14.8029H14.7805H14.758H14.7355H14.713H14.6904H14.6678H14.6452H14.6226H14.5999H14.5772H14.5545H14.5317H14.5089H14.486H14.4632H14.4403H14.4173H14.3944H14.3714H14.3483H14.3253H14.3022H14.279H14.2559H14.2327H14.2094H14.1861H14.1628H14.1395H14.1161H14.0927H14.0692H14.0457H14.0222H13.9987H13.9751H13.9514H13.9278H13.904H13.8803H13.8565H13.8327H13.8088H13.7849H13.761H13.737H13.713H13.6889H13.6648H13.6407H13.6165H13.5923H13.5681H13.5438H13.5194H13.4951H13.4706H13.4462H13.4217H13.3971H13.3726H13.3479H13.3233H13.2986H13.2738H13.249H13.2242H13.1993H13.1744H13.1494H13.1244H13.0993H13.0742H13.0491H13.0239H12.9986H12.9734H12.948H12.9227H12.8972H12.8718H12.8463H12.8207H12.7951H12.7694H12.7437H12.718H12.6922H12.6664H12.6405H12.6145H12.5886H12.5625H12.5364H12.5103H12.4841H12.4579H12.4316H12.4053H12.3789H12.3525H12.326H12.2995H12.2729H12.2463H12.2196H12.1929H12.1661H12.1392H12.1123H12.0854H12.0584H12.0314H12.0043H11.9771H11.9499H11.9227H11.8953H11.868H11.8406H11.8131H11.7856H11.758H11.7303H11.7026H11.6749H11.6471H11.6192H11.5913H11.5633H11.5353H11.5072H11.4791H11.4509H11.4226H11.3943H11.366H11.3375H11.3091H11.2805H11.2519H11.2232H11.1945H11.1658H11.1369H11.108H11.0791H11.0501H11.021H10.9918H10.9626H10.9334H10.9041H10.8747H10.8453H10.8158H10.7862H10.7566H10.7269H10.6971H10.6673H10.6375H10.6075H10.5775H10.5475H10.5173H10.4871H10.4569H10.4266H10.3962H10.3657H10.3352H10.3047H10.274H10.2433H10.2125H10.1817H10.1508H10.1198H10.0888H10.0577H10.0265H9.99529H9.96398H9.93261H9.90118H9.86967H9.8381H9.80646H9.77475H9.74297H9.71112H9.6792H9.64722H9.61516H9.58304H9.55084H9.51858H9.48625H9.45384H9.42136H9.38882H9.3562H9.32351H9.29075H9.25792H9.22502H9.19204H9.15899H9.12587H9.09268H9.05941H9.02607H8.99266H8.95917H8.92561H8.89198H8.85827H8.82449H8.79063H8.7567H8.7227H8.68861H8.65446H8.62023H8.58592H8.55153H8.51707H8.48254H8.44792H8.41323H8.37847H8.34362H8.3087H8.2737H8.23862H8.20347H8.16823H8.13292H8.09753H8.06206H8.02652H7.99089H7.95518H7.91939H7.88353H7.84758H7.81155H7.77545H7.73926H7.70299H7.66664H7.63021H7.5937H7.5571H7.52042H7.48367H7.44682H7.4099H7.37289H7.33581H7.29863H7.26138H7.22404H7.18662H7.14911H7.11152H7.10044L7.11317 11.7774L7.20462 11.6849L7.22845 11.6608L7.25269 11.6363L7.30237 11.586L7.32782 11.5603L7.35368 11.5341L7.40664 11.4805L7.43375 11.4531L7.44746 11.4392L7.46128 11.4252L7.47521 11.4111L7.48924 11.3969L7.50338 11.3826L7.51763 11.3682L7.54645 11.339L7.57571 11.3094L7.59051 11.2944L7.60541 11.2794L7.62043 11.2642L7.63556 11.2489L7.6508 11.2334L7.66615 11.2179L7.68161 11.2023L7.69719 11.1865L7.71288 11.1706L7.72868 11.1546L7.7446 11.1385L7.76063 11.1223L7.77678 11.106L7.79304 11.0895L7.80942 11.0729L7.82591 11.0563L7.84252 11.0394L7.85925 11.0225L7.8761 11.0055L7.89306 10.9883L8.03305 10.8467L8.05109 10.8284L8.06926 10.81L8.08754 10.7915L8.10595 10.7729L8.18082 10.6971L8.19985 10.6779L8.219 10.6585L8.25769 10.6194L8.29688 10.5797L8.31666 10.5597L8.33658 10.5395L8.41751 10.4576L8.50053 10.3736L8.58564 10.2875L8.60725 10.2657L8.62899 10.2437L8.65087 10.2215L8.67288 10.1992L8.69503 10.1768L8.71731 10.1543L8.73973 10.1316L8.76228 10.1088L8.78497 10.0858L8.80779 10.0627L8.83075 10.0395L8.85385 10.0161L9.04365 9.82408L9.14193 9.72464L9.16685 9.69942L9.19192 9.67405L9.21713 9.64854L9.24249 9.62289L9.45057 9.41234L9.66811 9.19222L9.72399 9.13567L9.78049 9.07851L9.89531 8.96232L9.95365 8.9033L9.98305 8.87355L10.0126 8.84364L10.0423 8.81358L10.0722 8.78335L10.1324 8.72243L10.1627 8.69173L10.1932 8.66087L10.2239 8.62985L10.2547 8.59867L10.2857 8.56733L10.3168 8.53583L10.3796 8.47233L10.507 8.34339L10.5393 8.31074L10.5717 8.27793L10.637 8.21182L10.905 7.94067L10.9392 7.90601L10.9737 7.87119L11.043 7.80104L11.0779 7.7657L11.113 7.7302L11.1483 7.69452L11.1837 7.65867L11.2193 7.62265L11.2551 7.58645L11.291 7.55008L11.3271 7.51354L11.3634 7.47682L11.3999 7.43993L11.4365 7.40286L11.4733 7.36562L11.5103 7.3282L11.5474 7.29061L11.5848 7.25283L11.6223 7.21488L11.66 7.17675L11.6978 7.13845L11.7359 7.09996L11.7741 7.0613L11.8125 7.02246L11.851 6.98343L11.9287 6.90485L11.9678 6.86528L12.0071 6.82553L12.0862 6.7455L12.126 6.7052L12.166 6.66473L12.2465 6.58322L12.2871 6.54219L12.3278 6.50098L12.4098 6.418L12.4511 6.37623L12.4926 6.33427L12.5342 6.29213L12.5761 6.24979L12.7453 6.07859L12.831 5.99185L12.8741 5.9482L12.9175 5.90435L12.961 5.86032L13.0047 5.81609L13.0927 5.72706L13.137 5.68226L13.1814 5.63726L13.2261 5.59207L13.2709 5.54669L13.316 5.50111L13.3612 5.45534L13.4066 5.40937L13.4523 5.3632L13.4981 5.31684L13.5441 5.27029L13.5903 5.22353L13.6367 5.17658L13.6833 5.12943L13.7301 5.08209L13.8243 4.9868L13.9192 4.89071L13.967 4.84237L14.015 4.79382L14.0632 4.74508L14.1115 4.69613L14.2089 4.59763L14.2578 4.54808L14.307 4.49832L14.3564 4.44836L14.406 4.3982L14.4557 4.34783L14.5057 4.29726L14.5559 4.24648L14.6063 4.1955L14.6569 4.14431L14.7077 4.09291L14.7587 4.04131L14.8099 3.9895L14.8613 3.93748L14.9129 3.88526L14.9647 3.83282L15.0168 3.78018L15.069 3.72733Z" fill="#1B1B28" stroke="#C4C6D7"/>
<path d="M21.0807 12C21.0807 13.3016 20.9005 14.5584 20.5651 15.7451L7.69694 12.2583L20.5699 8.27182C20.9023 9.45357 21.0807 10.7046 21.0807 12Z" fill="#1B1B28" stroke="#C4C6D7"/>
<rect x="3" y="6.48389" width="10.4516" height="10.4516" rx="2" fill="#C4C6D7"/>
<path d="M8.09601 11.1242L6.72715 8.80646H5.32251L7.55025 12.5473V14.6129H8.89227V12.5473L11.129 8.80646H9.71537L8.34652 11.1242H8.09601Z" fill="#14141F"/>
</svg>
