<svg width="526" height="120" viewBox="0 0 526 120" fill="none" xmlns="http://www.w3.org/2000/svg">
<path d="M97.28 44.96C98.72 42.4533 100.853 40.3733 103.68 38.72C106.56 37.0133 109.893 36.16 113.68 36.16C117.573 36.16 121.093 37.0933 124.24 38.96C127.44 40.8267 129.947 43.4667 131.76 46.88C133.573 50.24 134.48 54.16 134.48 58.64C134.48 63.0667 133.573 67.0133 131.76 70.48C129.947 73.9467 127.44 76.64 124.24 78.56C121.093 80.48 117.573 81.44 113.68 81.44C109.947 81.44 106.64 80.6133 103.76 78.96C100.933 77.2533 98.773 75.1467 97.28 72.64V101.52H90V36.88H97.28V44.96ZM127.04 58.64C127.04 55.3333 126.373 52.4533 125.04 50C123.707 47.5467 121.893 45.68 119.6 44.4C117.36 43.12 114.88 42.48 112.16 42.48C109.493 42.48 107.013 43.1467 104.72 44.48C102.48 45.76 100.667 47.6533 99.28 50.16C97.947 52.6133 97.28 55.4667 97.28 58.72C97.28 62.0267 97.947 64.9333 99.28 67.44C100.667 69.8933 102.48 71.7867 104.72 73.12C107.013 74.4 109.493 75.04 112.16 75.04C114.88 75.04 117.36 74.4 119.6 73.12C121.893 71.7867 123.707 69.8933 125.04 67.44C126.373 64.9333 127.04 62 127.04 58.64ZM147.823 29.76C146.436 29.76 145.263 29.28 144.303 28.32C143.343 27.36 142.863 26.1867 142.863 24.8C142.863 23.4133 143.343 22.24 144.303 21.28C145.263 20.32 146.436 19.84 147.823 19.84C149.156 19.84 150.276 20.32 151.183 21.28C152.143 22.24 152.623 23.4133 152.623 24.8C152.623 26.1867 152.143 27.36 151.183 28.32C150.276 29.28 149.156 29.76 147.823 29.76ZM151.343 36.88V80.72H144.063V36.88H151.343ZM185.11 36.08C190.443 36.08 194.763 37.7067 198.07 40.96C201.377 44.16 203.03 48.8 203.03 54.88V80.72H195.83V55.92C195.83 51.5467 194.737 48.2133 192.55 45.92C190.363 43.5733 187.377 42.4 183.59 42.4C179.75 42.4 176.683 43.6 174.39 46C172.15 48.4 171.03 51.8933 171.03 56.48V80.72H163.75V36.88H171.03V43.12C172.47 40.88 174.417 39.1467 176.87 37.92C179.377 36.6933 182.123 36.08 185.11 36.08ZM239.402 80.72L222.202 61.36V80.72H214.922V21.52H222.202V56.32L239.082 36.88H249.242L228.602 58.72L249.322 80.72H239.402ZM252.574 58.4C252.574 53.92 253.454 49.9467 255.214 46.48C257.027 43.0133 259.48 40.3467 262.574 38.48C265.667 36.6133 269.107 35.68 272.894 35.68C275.774 35.68 278.52 36.32 281.134 37.6C283.747 38.8267 285.827 40.48 287.374 42.56V21.52H298.734V80.72H287.374V74.16C285.987 76.3467 284.04 78.1067 281.534 79.44C279.027 80.7733 276.12 81.44 272.814 81.44C269.08 81.44 265.667 80.48 262.574 78.56C259.48 76.64 257.027 73.9467 255.214 70.48C253.454 66.96 252.574 62.9333 252.574 58.4ZM287.454 58.56C287.454 55.84 286.92 53.52 285.854 51.6C284.787 49.6267 283.347 48.1333 281.534 47.12C279.72 46.0533 277.774 45.52 275.694 45.52C273.614 45.52 271.694 46.0267 269.934 47.04C268.174 48.0533 266.734 49.5467 265.614 51.52C264.547 53.44 264.014 55.7333 264.014 58.4C264.014 61.0667 264.547 63.4133 265.614 65.44C266.734 67.4133 268.174 68.9333 269.934 70C271.747 71.0667 273.667 71.6 275.694 71.6C277.774 71.6 279.72 71.0933 281.534 70.08C283.347 69.0133 284.787 67.52 285.854 65.6C286.92 63.6267 287.454 61.28 287.454 58.56ZM350.873 57.6C350.873 59.2 350.766 60.64 350.553 61.92H318.153C318.419 65.12 319.539 67.6267 321.513 69.44C323.486 71.2533 325.913 72.16 328.793 72.16C332.953 72.16 335.913 70.3733 337.673 66.8H349.753C348.473 71.0667 346.019 74.5867 342.393 77.36C338.766 80.08 334.313 81.44 329.033 81.44C324.766 81.44 320.926 80.5067 317.513 78.64C314.153 76.72 311.513 74.0267 309.593 70.56C307.726 67.0933 306.792 63.0933 306.792 58.56C306.792 53.9733 307.726 49.9467 309.593 46.48C311.459 43.0133 314.073 40.3467 317.433 38.48C320.793 36.6133 324.659 35.68 329.033 35.68C333.246 35.68 337.006 36.5867 340.313 38.4C343.673 40.2133 346.259 42.8 348.073 46.16C349.939 49.4667 350.873 53.28 350.873 57.6ZM339.273 54.4C339.219 51.52 338.179 49.2267 336.153 47.52C334.126 45.76 331.646 44.88 328.713 44.88C325.939 44.88 323.593 45.7333 321.673 47.44C319.806 49.0933 318.659 51.4133 318.233 54.4H339.273ZM376.008 81.44C372.381 81.44 369.128 80.8 366.248 79.52C363.368 78.1867 361.074 76.4 359.368 74.16C357.714 71.92 356.808 69.44 356.648 66.72H367.928C368.141 68.4267 368.968 69.84 370.408 70.96C371.901 72.08 373.741 72.64 375.928 72.64C378.061 72.64 379.714 72.2133 380.888 71.36C382.114 70.5067 382.728 69.4133 382.728 68.08C382.728 66.64 381.981 65.5733 380.488 64.88C379.048 64.1333 376.728 63.3333 373.528 62.48C370.221 61.68 367.501 60.8533 365.368 60C363.288 59.1467 361.474 57.84 359.928 56.08C358.434 54.32 357.688 51.9467 357.688 48.96C357.688 46.5067 358.381 44.2667 359.768 42.24C361.208 40.2133 363.234 38.6133 365.848 37.44C368.514 36.2667 371.634 35.68 375.208 35.68C380.488 35.68 384.701 37.0133 387.848 39.68C390.994 42.2933 392.728 45.84 393.048 50.32H382.328C382.168 48.56 381.421 47.1733 380.088 46.16C378.808 45.0933 377.074 44.56 374.888 44.56C372.861 44.56 371.288 44.9333 370.168 45.68C369.101 46.4267 368.568 47.4667 368.568 48.8C368.568 50.2933 369.314 51.44 370.808 52.24C372.301 52.9867 374.621 53.76 377.768 54.56C380.968 55.36 383.608 56.1867 385.688 57.04C387.768 57.8933 389.554 59.2267 391.048 61.04C392.594 62.8 393.394 65.1467 393.448 68.08C393.448 70.64 392.728 72.9333 391.288 74.96C389.901 76.9867 387.874 78.5867 385.208 79.76C382.594 80.88 379.528 81.44 376.008 81.44ZM408.321 31.12C406.348 31.12 404.695 30.5067 403.361 29.28C402.081 28 401.441 26.4267 401.441 24.56C401.441 22.6933 402.081 21.1467 403.361 19.92C404.695 18.64 406.348 18 408.321 18C410.295 18 411.921 18.64 413.201 19.92C414.535 21.1467 415.201 22.6933 415.201 24.56C415.201 26.4267 414.535 28 413.201 29.28C411.921 30.5067 410.295 31.12 408.321 31.12ZM413.841 36.4V80.72H402.641V36.4H413.841ZM442.267 35.68C445.574 35.68 448.48 36.3467 450.987 37.68C453.494 38.96 455.467 40.64 456.907 42.72V36.4H468.187V81.04C468.187 85.1467 467.36 88.8 465.707 92C464.054 95.253 461.574 97.813 458.267 99.68C454.96 101.6 450.96 102.56 446.267 102.56C439.974 102.56 434.8 101.093 430.747 98.16C426.747 95.227 424.48 91.2267 423.947 86.16H435.067C435.654 88.1867 436.907 89.7867 438.827 90.96C440.8 92.1867 443.174 92.8 445.947 92.8C449.2 92.8 451.84 91.8133 453.867 89.84C455.894 87.92 456.907 84.9867 456.907 81.04V74.16C455.467 76.24 453.467 77.9733 450.907 79.36C448.4 80.7467 445.52 81.44 442.267 81.44C438.534 81.44 435.12 80.48 432.027 78.56C428.934 76.64 426.48 73.9467 424.667 70.48C422.907 66.96 422.027 62.9333 422.027 58.4C422.027 53.92 422.907 49.9467 424.667 46.48C426.48 43.0133 428.907 40.3467 431.947 38.48C435.04 36.6133 438.48 35.68 442.267 35.68ZM456.907 58.56C456.907 55.84 456.374 53.52 455.307 51.6C454.24 49.6267 452.8 48.1333 450.987 47.12C449.174 46.0533 447.227 45.52 445.147 45.52C443.067 45.52 441.147 46.0267 439.387 47.04C437.627 48.0533 436.187 49.5467 435.067 51.52C434 53.44 433.467 55.7333 433.467 58.4C433.467 61.0667 434 63.4133 435.067 65.44C436.187 67.4133 437.627 68.9333 439.387 70C441.2 71.0667 443.12 71.6 445.147 71.6C447.227 71.6 449.174 71.0933 450.987 70.08C452.8 69.0133 454.24 67.52 455.307 65.6C456.374 63.6267 456.907 61.28 456.907 58.56ZM503.686 35.76C508.966 35.76 513.232 37.44 516.486 40.8C519.739 44.1067 521.366 48.7467 521.366 54.72V80.72H510.166V56.24C510.166 52.72 509.286 50.0267 507.526 48.16C505.766 46.24 503.366 45.28 500.326 45.28C497.232 45.28 494.779 46.24 492.966 48.16C491.206 50.0267 490.326 52.72 490.326 56.24V80.72H479.126V36.4H490.326V41.92C491.819 40 493.712 38.5067 496.006 37.44C498.352 36.32 500.912 35.76 503.686 35.76Z" fill="#FD366E"/>
<g clip-path="url(#clip0_1_11)">
<path d="M82.0898 76.9813V93.9743H38.9098C26.3298 93.9743 15.3457 87.1403 9.46927 76.9813C6.87068 72.4907 5.34139 67.4619 5 62.2849L5 57.6894C5.15462 55.3296 5.55744 52.9927 6.2018 50.7173C10.2353 36.4526 23.3517 26 38.9105 26C54.4686 26 67.5836 36.4526 71.6171 50.718H53.1537C50.1229 46.0683 44.8772 42.9938 38.9112 42.9938C32.9445 42.9938 27.6981 46.0676 24.6673 50.718C23.7327 52.1471 23.021 53.71 22.5565 55.3531C22.1308 56.8611 21.9158 58.4206 21.9174 59.9875C21.9174 64.8585 23.9658 69.2494 27.2499 72.3462C30.3994 75.3285 34.5737 76.9877 38.9112 76.9813H82.0898Z" fill="#FD366E"/>
<path d="M82.0899 55.3531V72.3461H50.5711C52.2576 70.7602 53.6009 68.8453 54.5182 66.7198C55.4355 64.5942 55.9072 62.3032 55.9043 59.9882C55.9043 58.3812 55.6815 56.8269 55.2645 55.3531H82.0899Z" fill="#FD366E"/>
</g>
<defs>
<clipPath id="clip0_1_11">
<rect width="77.7143" height="68" fill="white" transform="translate(5 26)"/>
</clipPath>
</defs>
</svg>
