<svg width="559" height="120" viewBox="0 0 559 120" fill="none" xmlns="http://www.w3.org/2000/svg">
<path d="M129.44 52.24C130.88 49.7333 133.013 47.6533 135.84 46C138.72 44.2933 142.053 43.44 145.84 43.44C149.733 43.44 153.253 44.3733 156.4 46.24C159.6 48.1067 162.107 50.7467 163.92 54.16C165.733 57.52 166.64 61.44 166.64 65.92C166.64 70.3467 165.733 74.2933 163.92 77.76C162.107 81.2267 159.6 83.92 156.4 85.84C153.253 87.76 149.733 88.72 145.84 88.72C142.107 88.72 138.8 87.8933 135.92 86.24C133.093 84.5333 130.933 82.4267 129.44 79.92V108.8H122.16V44.16H129.44V52.24ZM159.2 65.92C159.2 62.6133 158.533 59.7333 157.2 57.28C155.867 54.8267 154.053 52.96 151.76 51.68C149.52 50.4 147.04 49.76 144.32 49.76C141.653 49.76 139.173 50.4267 136.88 51.76C134.64 53.04 132.827 54.9333 131.44 57.44C130.107 59.8933 129.44 62.7467 129.44 66C129.44 69.3067 130.107 72.2133 131.44 74.72C132.827 77.1733 134.64 79.0667 136.88 80.4C139.173 81.68 141.653 82.32 144.32 82.32C147.04 82.32 149.52 81.68 151.76 80.4C154.053 79.0667 155.867 77.1733 157.2 74.72C158.533 72.2133 159.2 69.28 159.2 65.92ZM179.983 37.04C178.596 37.04 177.423 36.56 176.463 35.6C175.503 34.64 175.023 33.4667 175.023 32.08C175.023 30.6933 175.503 29.52 176.463 28.56C177.423 27.6 178.596 27.12 179.983 27.12C181.316 27.12 182.436 27.6 183.343 28.56C184.303 29.52 184.783 30.6933 184.783 32.08C184.783 33.4667 184.303 34.64 183.343 35.6C182.436 36.56 181.316 37.04 179.983 37.04ZM183.503 44.16V88H176.223V44.16H183.503ZM217.27 43.36C222.603 43.36 226.923 44.9867 230.23 48.24C233.537 51.44 235.19 56.08 235.19 62.16V88H227.99V63.2C227.99 58.8267 226.897 55.4933 224.71 53.2C222.523 50.8533 219.537 49.68 215.75 49.68C211.91 49.68 208.843 50.88 206.55 53.28C204.31 55.68 203.19 59.1733 203.19 63.76V88H195.91V44.16H203.19V50.4C204.63 48.16 206.577 46.4267 209.03 45.2C211.537 43.9733 214.283 43.36 217.27 43.36ZM271.562 88L254.362 68.64V88H247.082V28.8H254.362V63.6L271.242 44.16H281.402L260.762 66L281.482 88H271.562ZM284.734 65.68C284.734 61.2 285.614 57.2267 287.374 53.76C289.187 50.2933 291.64 47.6267 294.734 45.76C297.827 43.8933 301.267 42.96 305.054 42.96C307.934 42.96 310.68 43.6 313.294 44.88C315.907 46.1067 317.987 47.76 319.534 49.84V28.8H330.894V88H319.534V81.44C318.147 83.6267 316.2 85.3867 313.694 86.72C311.187 88.0533 308.28 88.72 304.974 88.72C301.24 88.72 297.827 87.76 294.734 85.84C291.64 83.92 289.187 81.2267 287.374 77.76C285.614 74.24 284.734 70.2133 284.734 65.68ZM319.614 65.84C319.614 63.12 319.08 60.8 318.014 58.88C316.947 56.9067 315.507 55.4133 313.694 54.4C311.88 53.3333 309.934 52.8 307.854 52.8C305.774 52.8 303.854 53.3067 302.094 54.32C300.334 55.3333 298.894 56.8267 297.774 58.8C296.707 60.72 296.174 63.0133 296.174 65.68C296.174 68.3467 296.707 70.6933 297.774 72.72C298.894 74.6933 300.334 76.2133 302.094 77.28C303.907 78.3467 305.827 78.88 307.854 78.88C309.934 78.88 311.88 78.3733 313.694 77.36C315.507 76.2933 316.947 74.8 318.014 72.88C319.08 70.9067 319.614 68.56 319.614 65.84ZM383.033 64.88C383.033 66.48 382.926 67.92 382.713 69.2H350.313C350.579 72.4 351.699 74.9067 353.673 76.72C355.646 78.5333 358.073 79.44 360.953 79.44C365.113 79.44 368.073 77.6533 369.833 74.08H381.913C380.633 78.3467 378.179 81.8667 374.553 84.64C370.926 87.36 366.473 88.72 361.193 88.72C356.926 88.72 353.086 87.7867 349.673 85.92C346.313 84 343.673 81.3067 341.753 77.84C339.886 74.3733 338.952 70.3733 338.952 65.84C338.952 61.2533 339.886 57.2267 341.753 53.76C343.619 50.2933 346.233 47.6267 349.593 45.76C352.953 43.8933 356.819 42.96 361.193 42.96C365.406 42.96 369.166 43.8667 372.473 45.68C375.833 47.4933 378.419 50.08 380.233 53.44C382.099 56.7467 383.033 60.56 383.033 64.88ZM371.433 61.68C371.379 58.8 370.339 56.5067 368.313 54.8C366.286 53.04 363.806 52.16 360.873 52.16C358.099 52.16 355.753 53.0133 353.833 54.72C351.966 56.3733 350.819 58.6933 350.393 61.68H371.433ZM408.168 88.72C404.541 88.72 401.288 88.08 398.408 86.8C395.528 85.4667 393.234 83.68 391.528 81.44C389.874 79.2 388.968 76.72 388.808 74H400.088C400.301 75.7067 401.128 77.12 402.568 78.24C404.061 79.36 405.901 79.92 408.088 79.92C410.221 79.92 411.874 79.4933 413.048 78.64C414.274 77.7867 414.888 76.6933 414.888 75.36C414.888 73.92 414.141 72.8533 412.648 72.16C411.208 71.4133 408.888 70.6133 405.688 69.76C402.381 68.96 399.661 68.1333 397.528 67.28C395.448 66.4267 393.634 65.12 392.088 63.36C390.594 61.6 389.848 59.2267 389.848 56.24C389.848 53.7867 390.541 51.5467 391.928 49.52C393.368 47.4933 395.394 45.8933 398.008 44.72C400.674 43.5467 403.794 42.96 407.368 42.96C412.648 42.96 416.861 44.2933 420.008 46.96C423.154 49.5733 424.888 53.12 425.208 57.6H414.488C414.328 55.84 413.581 54.4533 412.248 53.44C410.968 52.3733 409.234 51.84 407.048 51.84C405.021 51.84 403.448 52.2133 402.328 52.96C401.261 53.7067 400.728 54.7467 400.728 56.08C400.728 57.5733 401.474 58.72 402.968 59.52C404.461 60.2667 406.781 61.04 409.928 61.84C413.128 62.64 415.768 63.4667 417.848 64.32C419.928 65.1733 421.714 66.5067 423.208 68.32C424.754 70.08 425.554 72.4267 425.608 75.36C425.608 77.92 424.888 80.2133 423.448 82.24C422.061 84.2667 420.034 85.8667 417.368 87.04C414.754 88.16 411.688 88.72 408.168 88.72ZM440.481 38.4C438.508 38.4 436.855 37.7867 435.521 36.56C434.241 35.28 433.601 33.7067 433.601 31.84C433.601 29.9733 434.241 28.4267 435.521 27.2C436.855 25.92 438.508 25.28 440.481 25.28C442.455 25.28 444.081 25.92 445.361 27.2C446.695 28.4267 447.361 29.9733 447.361 31.84C447.361 33.7067 446.695 35.28 445.361 36.56C444.081 37.7867 442.455 38.4 440.481 38.4ZM446.001 43.68V88H434.801V43.68H446.001ZM474.427 42.96C477.734 42.96 480.64 43.6267 483.147 44.96C485.654 46.24 487.627 47.92 489.067 50V43.68H500.347V88.32C500.347 92.4267 499.52 96.08 497.867 99.28C496.214 102.533 493.734 105.093 490.427 106.96C487.12 108.88 483.12 109.84 478.427 109.84C472.134 109.84 466.96 108.373 462.907 105.44C458.907 102.507 456.64 98.5067 456.107 93.44H467.227C467.814 95.4667 469.067 97.0667 470.987 98.24C472.96 99.4667 475.334 100.08 478.107 100.08C481.36 100.08 484 99.0933 486.027 97.12C488.054 95.2 489.067 92.2667 489.067 88.32V81.44C487.627 83.52 485.627 85.2533 483.067 86.64C480.56 88.0267 477.68 88.72 474.427 88.72C470.694 88.72 467.28 87.76 464.187 85.84C461.094 83.92 458.64 81.2267 456.827 77.76C455.067 74.24 454.187 70.2133 454.187 65.68C454.187 61.2 455.067 57.2267 456.827 53.76C458.64 50.2933 461.067 47.6267 464.107 45.76C467.2 43.8933 470.64 42.96 474.427 42.96ZM489.067 65.84C489.067 63.12 488.534 60.8 487.467 58.88C486.4 56.9067 484.96 55.4133 483.147 54.4C481.334 53.3333 479.387 52.8 477.307 52.8C475.227 52.8 473.307 53.3067 471.547 54.32C469.787 55.3333 468.347 56.8267 467.227 58.8C466.16 60.72 465.627 63.0133 465.627 65.68C465.627 68.3467 466.16 70.6933 467.227 72.72C468.347 74.6933 469.787 76.2133 471.547 77.28C473.36 78.3467 475.28 78.88 477.307 78.88C479.387 78.88 481.334 78.3733 483.147 77.36C484.96 76.2933 486.4 74.8 487.467 72.88C488.534 70.9067 489.067 68.56 489.067 65.84ZM535.846 43.04C541.126 43.04 545.392 44.72 548.646 48.08C551.899 51.3867 553.526 56.0267 553.526 62V88H542.326V63.52C542.326 60 541.446 57.3067 539.686 55.44C537.926 53.52 535.526 52.56 532.486 52.56C529.392 52.56 526.939 53.52 525.126 55.44C523.366 57.3067 522.486 60 522.486 63.52V88H511.286V43.68H522.486V49.2C523.979 47.28 525.872 45.7867 528.166 44.72C530.512 43.6 533.072 43.04 535.846 43.04Z" fill="#F02E65"/>
<path d="M103 70.3532C103 89.2962 87.6426 104.653 68.6972 104.653C59.8977 104.653 51.8724 101.339 45.7999 95.8931C55.5277 91.5139 62.2998 81.7367 62.2998 70.378C62.2998 59.0045 55.5108 49.2174 45.7627 44.8464C51.8404 39.3806 59.8797 36.054 68.6972 36.054C87.6426 36.054 103 51.4102 103 70.3532Z" fill="#F02E65"/>
<path d="M54.9848 42.9751C33.9179 27.0561 3.51592 39.9092 0.261953 66.1117C-1.25016 78.2894 3.85864 90.3469 13.6591 97.7318C34.7377 113.637 65.1308 100.761 68.3668 74.5563C69.8683 62.3941 64.7671 50.3559 54.9848 42.9748V42.9751ZM51.1694 48.0294C68.3569 60.9975 65.0585 87.7056 45.2326 96.1044C36.0325 100.002 25.4505 98.6961 17.4742 92.6772C0.287787 79.7087 3.5855 53.0006 23.411 44.6021C32.6115 40.7048 43.1935 42.0108 51.1694 48.0294Z" fill="#F02E65"/>
<path d="M35.2408 58.4862C35.2001 58.5872 34.6749 60.6469 34.111 63.0908C33.5244 65.5339 32.5955 69.391 32.0712 71.6723C31.061 75.8524 30.4551 78.5987 30.4551 78.9617C30.4551 79.0623 31.0816 79.1439 31.848 79.1439H33.2423L33.8675 76.3567C34.2316 74.8429 35.04 71.3691 35.6855 68.6432C36.332 65.9173 37.1187 62.6054 37.4221 61.2721C37.7249 59.9394 38.028 58.7291 38.0886 58.5872C38.1493 58.4056 37.8055 58.3457 36.7553 58.3457C35.9676 58.3457 35.2807 58.4056 35.2408 58.4862ZM24.3967 67.2293L22.5391 69.2491L23.085 69.8953C23.3871 70.2583 24.2162 71.1673 24.9223 71.9151L26.215 73.287H29.8905L28.1532 71.4094C27.2035 70.4009 26.4161 69.4306 26.4161 69.3101C26.4161 69.1685 27.1432 68.2605 28.0326 67.2906C28.9206 66.302 29.6477 65.4526 29.6477 65.352C29.6477 65.2708 28.8806 65.2105 27.952 65.2105H26.2756L24.3967 67.2293ZM38.5319 65.3317C38.5319 65.3927 38.8757 65.7754 39.2994 66.1997C40.8755 67.7749 41.9857 69.1082 41.9247 69.3696C41.8851 69.5122 41.117 70.4605 40.1884 71.4497L38.5127 73.287H40.3902L42.2681 73.2674L43.9838 71.3891C44.9341 70.3399 45.7012 69.4099 45.7012 69.2894C45.7012 69.1888 44.8935 68.2395 43.8832 67.1697L42.0673 65.2105H40.3093C39.3197 65.2105 38.5319 65.2708 38.5319 65.3317Z" fill="#F02E65"/>
</svg>
