<?xml version="1.0" encoding="utf-8"?>
<svg width="1000" height="1000" viewBox="0 0 1000 1000" xmlns="http://www.w3.org/2000/svg"><path d="M192.8 335.2C184.2 339.8 172.8 351.4 168.3 360.2A33.1 33.1 0 0 0 168.3 390.1C173.5 400.6 474.4 701.5 484.9 706.7A33.6 33.6 0 0 0 515.1 706.7C525.6 701.5 826.5 400.6 831.7 390.1 839 375.4 835.3 360.2 820.9 345.8 806.7 331.6 790.8 327.8 776.2 335.2 771.5 337.5 725.4 382.3 634.6 473L500 607.5 365.4 473C274.6 382.3 228.5 337.5 223.8 335.2A36.8 36.8 0 0 0 192.7 335.2"/></svg>