<?xml version="1.0" encoding="utf-8"?>
<svg width="1291" height="1291" viewBox="0 0 1291 1291" xmlns="http://www.w3.org/2000/svg">
<path d="M1006.7 168.6C940.3 138.1 869 115.6 794.5 102.8 793.2 102.5 791.8 103.2 791.1 104.4 781.9 120.7 771.8 142 764.7 158.7 684.6 146.7 604.9 146.7 526.4 158.7 519.3 141.6 508.7 120.7 499.5 104.4 498.8 103.2 497.5 102.6 496.1 102.8 421.7 115.6 350.4 138.1 284 168.6 283.4 168.8 282.9 169.3 282.6 169.8 147.4 371.7 110.4 568.6 128.6 763.1 128.6 764.1 129.2 765 129.9 765.5 219.1 831 305.4 870.8 390.2 897.1 391.6 897.5 393 897 393.9 895.9 413.9 868.5 431.8 839.7 447.1 809.3 448 807.5 447.2 805.4 445.3 804.7 417 794 390 780.9 364 766 361.9 764.8 361.8 761.8 363.7 760.4 369.1 756.3 374.6 752.1 379.8 747.8 380.8 747 382.1 746.8 383.2 747.3 553.8 825.2 738.5 825.2 907.1 747.3 908.2 746.8 909.5 746.9 910.5 747.7 915.7 752 921.1 756.3 926.7 760.4 928.5 761.8 928.4 764.8 926.4 766 900.4 781.1 873.4 794 845 804.7 843.2 805.4 842.3 807.5 843.2 809.3 858.9 839.6 876.8 868.5 896.5 895.9 897.3 897 898.8 897.5 900.1 897.1 985.3 870.8 1071.7 831 1160.8 765.5 1161.6 765 1162.1 764.1 1162.2 763.2 1183.9 538.3 1125.8 343 1008 169.8 1007.8 169.3 1007.3 168.8 1006.7 168.6ZM472.6 644.7C421.2 644.7 378.9 597.5 378.9 539.6 378.9 481.7 420.4 434.6 472.6 434.6 525.2 434.6 567.1 482.1 566.3 539.6 566.3 597.5 524.8 644.7 472.6 644.7ZM819 644.7C767.6 644.7 725.3 597.5 725.3 539.6 725.3 481.7 766.8 434.6 819 434.6 871.6 434.6 913.5 482.1 912.6 539.6 912.6 597.5 871.6 644.7 819 644.7Z"/>
</svg>