<svg width="20" height="20" viewBox="0 0 20 20" fill="none" xmlns="http://www.w3.org/2000/svg">
<path fill-rule="evenodd" clip-rule="evenodd" d="M4.58579 2.58579C4.21071 2.96086 4 3.46957 4 4V16C4 16.5304 4.21071 17.0391 4.58579 17.4142C4.96086 17.7893 5.46957 18 6 18H14C14.5304 18 15.0391 17.7893 15.4142 17.4142C15.7893 17.0391 16 16.5304 16 16V8.71429H12.2C11.0954 8.71429 10.2 7.81885 10.2 6.71428V2H6C5.46957 2 4.96086 2.21071 4.58579 2.58579ZM12.2 2.786V6.71428L15.8734 6.71429C15.7741 6.44856 15.6185 6.20442 15.414 6L12.2 2.786Z" fill="#9CA3AF"/>
</svg>
