<svg width="20" height="20" viewBox="0 0 20 20" fill="none" xmlns="http://www.w3.org/2000/svg">
<path fill-rule="evenodd" clip-rule="evenodd" d="M4 3C3.46957 3 2.96086 3.21071 2.58579 3.58579C2.21071 3.96086 2 4.46957 2 5V15C2 15.5304 2.21071 16.0391 2.58579 16.4142C2.96086 16.7893 3.46957 17 4 17H16C16.5304 17 17.0391 16.7893 17.4142 16.4142C17.7893 16.0391 18 15.5304 18 15V5C18 4.46957 17.7893 3.96086 17.4142 3.58579C17.0391 3.21071 16.5304 3 16 3H4ZM7 5H13V9H7V5ZM15 13V15H16V13H15ZM13 11H7V15H13V11ZM15 11H16V9H15V11ZM16 7V5H15V7H16ZM5 5V7H4V5H5ZM5 9H4V11H5V9ZM4 13H5V15H4V13Z" fill="#9CA3AF"/>
</svg>
