<?xml version="1.0" encoding="utf-8"?>
<svg width="1000" height="1000" viewBox="0 0 1000 1000" xmlns="http://www.w3.org/2000/svg"><path d="M381.7 825.7L279.7 825.7 313.1 625 202.7 625 202.7 533.6 327.9 533.6 347.8 409.3 240.4 409.3 240.4 316.8 363.3 316.8 397.6 113.3 498.5 113.3 465.2 316.8 541.3 316.8 574.6 113.3 676.5 113.3 642.2 316.8 757.6 316.8 757.6 409.3 626.3 409.3 605.9 533.6 720.3 533.6 720.3 625 591.5 625 558.2 825.7 457.3 825.7 490.6 625 415 625 381.7 825.7ZM449.8 409.3L429.4 533.6 505 533.6 525.3 409.3 449.8 409.3Z"/></svg>