<?xml version="1.0" encoding="utf-8"?>
<svg width="1000" height="1000" viewBox="0 0 1000 1000" xmlns="http://www.w3.org/2000/svg">
<path d="M970 500C970 759.6 759.6 970 500 970 240.4 970 30 759.6 30 500 30 240.4 240.4 30 500 30 759.6 30 970 240.4 970 500ZM680.1 623.6C641.2 623.6 609.6 655.1 609.6 694 609.6 732.9 641.2 764.5 680.1 764.5 719 764.5 750.5 732.9 750.5 694 750.5 655.1 719 623.6 680.1 623.6ZM308.5 621.5C269.6 621.5 238.1 653 238.1 692 238.1 730.9 269.6 762.4 308.5 762.4 347.4 762.4 378.9 730.9 378.9 692 378.9 653 347.4 621.5 308.5 621.5ZM493.6 621.9C454.7 621.9 423.1 653.4 423.1 692.3 423.1 731.2 454.7 762.7 493.6 762.7 532.5 762.7 564 731.2 564 692.3 564 653.4 532.5 621.9 493.6 621.9ZM751.5 694C751.5 713.7 743.4 731.7 730.6 744.5 717.7 757.4 699.7 765.5 680.1 765.5 660.4 765.5 642.4 757.4 629.5 744.5 616.7 731.7 608.6 713.7 608.6 694 608.6 674.4 616.7 656.4 629.5 643.5 642.4 630.6 660.4 622.6 680.1 622.6 699.7 622.6 717.7 630.6 730.6 643.5 743.4 656.4 751.5 674.4 751.5 694ZM729.2 644.9C716.5 632.3 699.3 624.6 680.1 624.6 660.8 624.6 643.6 632.3 631 644.9 618.3 657.5 610.6 674.8 610.6 694 610.6 713.3 618.3 730.5 631 743.1 643.6 755.7 660.8 763.5 680.1 763.5 699.3 763.5 716.5 755.7 729.2 743.1 741.8 730.5 749.5 713.3 749.5 694 749.5 674.8 741.8 657.5 729.2 644.9ZM379.9 692C379.9 711.6 371.9 729.6 359 742.5 346.1 755.3 328.1 763.4 308.5 763.4 288.8 763.4 270.9 755.3 258 742.5 245.1 729.6 237.1 711.6 237.1 692 237.1 672.3 245.1 654.3 258 641.4 270.9 628.6 288.8 620.5 308.5 620.5 328.1 620.5 346.1 628.6 359 641.4 371.9 654.3 379.9 672.3 379.9 692ZM357.6 642.9C345 630.2 327.7 622.5 308.5 622.5 289.2 622.5 272 630.2 259.4 642.9 246.8 655.5 239.1 672.7 239.1 692 239.1 711.2 246.8 728.4 259.4 741.1 272 753.7 289.2 761.4 308.5 761.4 327.7 761.4 345 753.7 357.6 741.1 370.2 728.4 377.9 711.2 377.9 692 377.9 672.7 370.2 655.5 357.6 642.9ZM565 692.3C565 712 557 729.9 544.1 742.8 531.2 755.7 513.2 763.7 493.6 763.7 473.9 763.7 455.9 755.7 443.1 742.8 430.2 729.9 422.1 712 422.1 692.3 422.1 672.6 430.2 654.7 443.1 641.8 455.9 628.9 473.9 620.9 493.6 620.9 513.2 620.9 531.2 628.9 544.1 641.8 557 654.7 565 672.6 565 692.3ZM542.7 643.2C530.1 630.6 512.8 622.9 493.6 622.9 474.3 622.9 457.1 630.6 444.5 643.2 431.9 655.8 424.1 673.1 424.1 692.3 424.1 711.6 431.9 728.8 444.5 741.4 457.1 754 474.3 761.7 493.6 761.7 512.8 761.7 530.1 754 542.7 741.4 555.3 728.8 563 711.6 563 692.3 563 673.1 555.3 655.8 542.7 643.2Z"/>
</svg>