<svg width="24" height="24" viewBox="0 0 24 24" fill="none" xmlns="http://www.w3.org/2000/svg">
<path fill-rule="evenodd" clip-rule="evenodd" d="M4.8001 2.40002C5.11836 2.40002 5.42358 2.52645 5.64863 2.7515C5.87367 2.97654 6.0001 3.28176 6.0001 3.60002V6.12122C6.99855 5.10275 8.23981 4.35519 9.60699 3.94896C10.9742 3.54274 12.4222 3.49121 13.8148 3.79923C15.2074 4.10725 16.4987 4.76469 17.567 5.70962C18.6353 6.65455 19.4455 7.85587 19.9213 9.20042C19.979 9.35013 20.0061 9.5099 20.001 9.67027C19.9959 9.83064 19.9587 9.98836 19.8916 10.1341C19.8245 10.2798 19.7288 10.4106 19.6103 10.5188C19.4917 10.6269 19.3527 10.7101 19.2014 10.7636C19.0501 10.817 18.8896 10.8396 18.7295 10.83C18.5693 10.8203 18.4127 10.7786 18.2689 10.7074C18.1252 10.6362 17.9971 10.5368 17.8924 10.4153C17.7877 10.2937 17.7084 10.1524 17.6593 9.99962C17.2971 8.9758 16.6638 8.06944 15.8271 7.37712C14.9904 6.68479 13.9815 6.23245 12.908 6.06828C11.8344 5.90412 10.7365 6.03429 9.73109 6.44491C8.7257 6.85554 7.85055 7.53125 7.1989 8.40002H10.8001C11.1184 8.40002 11.4236 8.52645 11.6486 8.7515C11.8737 8.97654 12.0001 9.28176 12.0001 9.60002C12.0001 9.91828 11.8737 10.2235 11.6486 10.4486C11.4236 10.6736 11.1184 10.8 10.8001 10.8H4.8001C4.48184 10.8 4.17661 10.6736 3.95157 10.4486C3.72653 10.2235 3.6001 9.91828 3.6001 9.60002V3.60002C3.6001 3.28176 3.72653 2.97654 3.95157 2.7515C4.17661 2.52645 4.48184 2.40002 4.8001 2.40002ZM4.8097 13.2684C4.9583 13.2159 5.11579 13.1932 5.27316 13.2016C5.43054 13.21 5.58473 13.2493 5.72691 13.3173C5.8691 13.3852 5.99651 13.4806 6.10186 13.5978C6.2072 13.715 6.28843 13.8518 6.3409 14.0004C6.70313 15.0242 7.33635 15.9306 8.17308 16.6229C9.00981 17.3153 10.0187 17.7676 11.0922 17.9318C12.1658 18.0959 13.2637 17.9658 14.2691 17.5551C15.2745 17.1445 16.1496 16.4688 16.8013 15.6H13.2001C12.8818 15.6 12.5766 15.4736 12.3516 15.2486C12.1265 15.0235 12.0001 14.7183 12.0001 14.4C12.0001 14.0818 12.1265 13.7765 12.3516 13.5515C12.5766 13.3265 12.8818 13.2 13.2001 13.2H19.2001C19.5184 13.2 19.8236 13.3265 20.0486 13.5515C20.2737 13.7765 20.4001 14.0818 20.4001 14.4V20.4C20.4001 20.7183 20.2737 21.0235 20.0486 21.2486C19.8236 21.4736 19.5184 21.6 19.2001 21.6C18.8818 21.6 18.5766 21.4736 18.3516 21.2486C18.1265 21.0235 18.0001 20.7183 18.0001 20.4V17.8788C17.0016 18.8973 15.7604 19.6449 14.3932 20.0511C13.026 20.4573 11.578 20.5088 10.1854 20.2008C8.79277 19.8928 7.5015 19.2354 6.43319 18.2904C5.36487 17.3455 4.55467 16.1442 4.0789 14.7996C4.02641 14.651 4.00371 14.4935 4.01209 14.3362C4.02047 14.1788 4.05977 14.0246 4.12774 13.8824C4.19572 13.7402 4.29104 13.6128 4.40825 13.5075C4.52547 13.4021 4.66229 13.3209 4.8109 13.2684H4.8097Z" fill="#9CA3AF"/>
</svg>
