<?xml version="1.0" encoding="utf-8"?>
<svg width="1000" height="1000" viewBox="0 0 1000 1000" xmlns="http://www.w3.org/2000/svg"><path d="M234.4 210.2C225.8 214.7 214.4 226.4 209.9 235.2A33.1 33.1 0 0 0 210 265.1C212.6 270.3 247.6 306.5 327.2 386.2L440.8 500 327.2 613.8C247.6 693.5 212.6 729.7 210 734.9 202.6 749.6 206.3 764.7 220.8 779.2 235.3 793.7 250.4 797.4 265.1 790 270.3 787.4 306.5 752.4 386.2 672.8L500 559.2 613.8 672.8C693.5 752.4 729.7 787.4 734.9 790 749.6 797.4 764.7 793.7 779.2 779.2 793.7 764.7 797.4 749.6 790 734.9 787.4 729.7 752.4 693.5 672.8 613.7L559.2 500 672.8 386.2C752.4 306.5 787.4 270.3 790 265.1 797.4 250.4 793.7 235.2 779.2 220.8 765 206.6 749.2 202.8 734.5 210.2 729.8 212.5 689.9 251.2 613.7 327.2L500 440.8 386.2 327.2C310.1 251.2 270.2 212.5 265.5 210.2A36.8 36.8 0 0 0 234.4 210.2"/></svg>