<svg width="64" height="57" viewBox="0 0 64 57" fill="none" xmlns="http://www.w3.org/2000/svg">
<rect width="63.33" height="57" rx="8" fill="#373B4D"/>
<mask id="mask0_1669_15370" style="mask-type:alpha" maskUnits="userSpaceOnUse" x="0" y="0" width="64" height="57">
<rect width="63.33" height="57" rx="8" fill="#373B4D"/>
</mask>
<g mask="url(#mask0_1669_15370)">
<rect width="65.3621" height="57" rx="8" fill="#373B4D"/>
<rect x="4.06415" y="9" width="32.5134" height="52" rx="4" fill="#616B7C"/>
<path d="M13.6073 30H12.4993L15.7039 21.2727H16.7948L19.9993 30H18.8914L16.2834 22.6534H16.2152L13.6073 30ZM14.0164 26.5909H18.4823V27.5284H14.0164V26.5909ZM23.1485 30.1534C22.7337 30.1534 22.3573 30.0753 22.0192 29.919C21.6811 29.7599 21.4127 29.5312 21.2138 29.233C21.0149 28.9318 20.9155 28.5682 20.9155 28.142C20.9155 27.767 20.9894 27.4631 21.1371 27.2301C21.2848 26.9943 21.4823 26.8097 21.7294 26.6761C21.9766 26.5426 22.2493 26.4432 22.5476 26.3778C22.8488 26.3097 23.1513 26.2557 23.4553 26.2159C23.853 26.1648 24.1755 26.1264 24.4226 26.1009C24.6726 26.0724 24.8544 26.0256 24.9681 25.9602C25.0846 25.8949 25.1428 25.7812 25.1428 25.6193V25.5852C25.1428 25.1648 25.0277 24.8381 24.7976 24.6051C24.5703 24.3722 24.2252 24.2557 23.7621 24.2557C23.282 24.2557 22.9056 24.3608 22.6328 24.571C22.3601 24.7812 22.1684 25.0057 22.0576 25.2443L21.103 24.9034C21.2735 24.5057 21.5007 24.196 21.7848 23.9744C22.0718 23.75 22.3843 23.5937 22.7223 23.5057C23.0632 23.4148 23.3985 23.3693 23.728 23.3693C23.9382 23.3693 24.1797 23.3949 24.4524 23.446C24.728 23.4943 24.9936 23.5952 25.2493 23.7486C25.5078 23.902 25.7223 24.1335 25.8928 24.4432C26.0632 24.7528 26.1485 25.1676 26.1485 25.6875V30H25.1428V29.1136H25.0917C25.0235 29.2557 24.9098 29.4077 24.7507 29.5696C24.5917 29.7315 24.38 29.8693 24.1158 29.983C23.8516 30.0966 23.5292 30.1534 23.1485 30.1534ZM23.3019 29.25C23.6996 29.25 24.0348 29.1719 24.3076 29.0156C24.5831 28.8594 24.7905 28.6577 24.9297 28.4105C25.0718 28.1634 25.1428 27.9034 25.1428 27.6307V26.7102C25.1002 26.7614 25.0064 26.8082 24.8615 26.8509C24.7195 26.8906 24.5547 26.9261 24.3672 26.9574C24.1826 26.9858 24.0022 27.0114 23.826 27.0341C23.6527 27.054 23.5121 27.071 23.4042 27.0852C23.1428 27.1193 22.8985 27.1747 22.6712 27.2514C22.4468 27.3253 22.2649 27.4375 22.1257 27.5881C21.9894 27.7358 21.9212 27.9375 21.9212 28.1932C21.9212 28.5426 22.0505 28.8068 22.309 28.9858C22.5703 29.1619 22.9013 29.25 23.3019 29.25Z" fill="#FCFCFF"/>
<rect x="32.5134" width="31.4974" height="57" fill="#F2F2F8"/>
<rect x="36.5776" y="9" width="28.4492" height="52" rx="4" fill="#FCFCFF"/>
<path d="M46.1207 30H45.0128L48.2173 21.2727H49.3082L52.5128 30H51.4048L48.7968 22.6534H48.7287L46.1207 30ZM46.5298 26.5909H50.9957V27.5284H46.5298V26.5909ZM55.6619 30.1534C55.2471 30.1534 54.8707 30.0753 54.5326 29.919C54.1946 29.7599 53.9261 29.5312 53.7272 29.233C53.5284 28.9318 53.4289 28.5682 53.4289 28.142C53.4289 27.767 53.5028 27.4631 53.6505 27.2301C53.7983 26.9943 53.9957 26.8097 54.2429 26.6761C54.49 26.5426 54.7628 26.4432 55.061 26.3778C55.3622 26.3097 55.6647 26.2557 55.9687 26.2159C56.3664 26.1648 56.6889 26.1264 56.936 26.1009C57.186 26.0724 57.3679 26.0256 57.4815 25.9602C57.598 25.8949 57.6562 25.7812 57.6562 25.6193V25.5852C57.6562 25.1648 57.5412 24.8381 57.311 24.6051C57.0838 24.3722 56.7386 24.2557 56.2755 24.2557C55.7954 24.2557 55.419 24.3608 55.1463 24.571C54.8735 24.7812 54.6818 25.0057 54.571 25.2443L53.6164 24.9034C53.7869 24.5057 54.0142 24.196 54.2983 23.9744C54.5852 23.75 54.8977 23.5937 55.2358 23.5057C55.5767 23.4148 55.9119 23.3693 56.2414 23.3693C56.4517 23.3693 56.6931 23.3949 56.9659 23.446C57.2414 23.4943 57.5071 23.5952 57.7628 23.7486C58.0213 23.902 58.2358 24.1335 58.4062 24.4432C58.5767 24.7528 58.6619 25.1676 58.6619 25.6875V30H57.6562V29.1136H57.6051C57.5369 29.2557 57.4233 29.4077 57.2642 29.5696C57.1051 29.7315 56.8934 29.8693 56.6292 29.983C56.365 30.0966 56.0426 30.1534 55.6619 30.1534ZM55.8153 29.25C56.213 29.25 56.5483 29.1719 56.821 29.0156C57.0966 28.8594 57.3039 28.6577 57.4431 28.4105C57.5852 28.1634 57.6562 27.9034 57.6562 27.6307V26.7102C57.6136 26.7614 57.5199 26.8082 57.375 26.8509C57.2329 26.8906 57.0681 26.9261 56.8806 26.9574C56.696 26.9858 56.5156 27.0114 56.3395 27.0341C56.1662 27.054 56.0255 27.071 55.9176 27.0852C55.6562 27.1193 55.4119 27.1747 55.1846 27.2514C54.9602 27.3253 54.7784 27.4375 54.6392 27.5881C54.5028 27.7358 54.4346 27.9375 54.4346 28.1932C54.4346 28.5426 54.5639 28.8068 54.8224 28.9858C55.0838 29.1619 55.4147 29.25 55.8153 29.25Z" fill="#4F5769"/>
</g>
</svg>
