<svg width="64" height="58" viewBox="0 0 64 58" fill="none" xmlns="http://www.w3.org/2000/svg">
<rect y="0.996094" width="63.33" height="57" rx="8" fill="#373B4D"/>
<mask id="mask0_1850_13010" style="mask-type:alpha" maskUnits="userSpaceOnUse" x="0" y="0" width="64" height="58">
<rect y="0.996094" width="63.33" height="57" rx="8" fill="#373B4D"/>
</mask>
<g mask="url(#mask0_1850_13010)">
<rect y="0.996094" width="65.3621" height="57" rx="8" fill="#373B4D"/>
<rect x="4.06396" y="9.99609" width="32.5134" height="52" rx="4" fill="#616B7C"/>
<path d="M13.6072 30.9961H12.4992L15.7037 22.2688H16.7947L19.9992 30.9961H18.8912L16.2833 23.6495H16.2151L13.6072 30.9961ZM14.0162 27.587H18.4822V28.5245H14.0162V27.587ZM23.1483 31.1495C22.7336 31.1495 22.3572 31.0714 22.0191 30.9151C21.681 30.756 21.4126 30.5273 21.2137 30.229C21.0148 29.9279 20.9154 29.5643 20.9154 29.1381C20.9154 28.7631 20.9893 28.4592 21.137 28.2262C21.2847 27.9904 21.4822 27.8058 21.7293 27.6722C21.9765 27.5387 22.2492 27.4393 22.5475 27.3739C22.8486 27.3058 23.1512 27.2518 23.4552 27.212C23.8529 27.1609 24.1753 27.1225 24.4225 27.0969C24.6725 27.0685 24.8543 27.0217 24.968 26.9563C25.0844 26.891 25.1427 26.7773 25.1427 26.6154V26.5813C25.1427 26.1609 25.0276 25.8342 24.7975 25.6012C24.5702 25.3683 24.2251 25.2518 23.762 25.2518C23.2819 25.2518 22.9055 25.3569 22.6327 25.5671C22.36 25.7773 22.1682 26.0018 22.0574 26.2404L21.1029 25.8995C21.2733 25.5018 21.5006 25.1921 21.7847 24.9705C22.0716 24.7461 22.3841 24.5898 22.7222 24.5018C23.0631 24.4109 23.3983 24.3654 23.7279 24.3654C23.9381 24.3654 24.1796 24.391 24.4523 24.4421C24.7279 24.4904 24.9935 24.5913 25.2492 24.7447C25.5077 24.8981 25.7222 25.1296 25.8927 25.4393C26.0631 25.7489 26.1483 26.1637 26.1483 26.6836V30.9961H25.1427V30.1097H25.0915C25.0233 30.2518 24.9097 30.4038 24.7506 30.5657C24.5915 30.7276 24.3799 30.8654 24.1157 30.979C23.8515 31.0927 23.529 31.1495 23.1483 31.1495ZM23.3018 30.2461C23.6995 30.2461 24.0347 30.168 24.3074 30.0117C24.583 29.8555 24.7904 29.6538 24.9296 29.4066C25.0716 29.1594 25.1427 28.8995 25.1427 28.6268V27.7063C25.1001 27.7575 25.0063 27.8043 24.8614 27.8469C24.7194 27.8867 24.5546 27.9222 24.3671 27.9535C24.1824 27.9819 24.002 28.0075 23.8259 28.0302C23.6526 28.0501 23.512 28.0671 23.404 28.0813C23.1427 28.1154 22.8983 28.1708 22.6711 28.2475C22.4466 28.3214 22.2648 28.4336 22.1256 28.5842C21.9893 28.7319 21.9211 28.9336 21.9211 29.1893C21.9211 29.5387 22.0503 29.8029 22.3089 29.9819C22.5702 30.158 22.9012 30.2461 23.3018 30.2461Z" fill="#FCFCFF"/>
<rect x="32.5132" y="0.996094" width="31.4974" height="57" fill="#F2F2F8"/>
<rect x="36.5776" y="9.99609" width="28.4492" height="52" rx="4" fill="#FCFCFF"/>
<path d="M46.1208 30.9961H45.0129L48.2174 22.2688H49.3083L52.5129 30.9961H51.4049L48.797 23.6495H48.7288L46.1208 30.9961ZM46.5299 27.587H50.9958V28.5245H46.5299V27.587ZM55.662 31.1495C55.2472 31.1495 54.8708 31.0714 54.5328 30.9151C54.1947 30.756 53.9262 30.5273 53.7274 30.229C53.5285 29.9279 53.4291 29.5643 53.4291 29.1381C53.4291 28.7631 53.5029 28.4592 53.6507 28.2262C53.7984 27.9904 53.9958 27.8058 54.243 27.6722C54.4901 27.5387 54.7629 27.4393 55.0612 27.3739C55.3623 27.3058 55.6649 27.2518 55.9688 27.212C56.3666 27.1609 56.689 27.1225 56.9362 27.0969C57.1862 27.0685 57.368 27.0217 57.4816 26.9563C57.5981 26.891 57.6563 26.7773 57.6563 26.6154V26.5813C57.6563 26.1609 57.5413 25.8342 57.3112 25.6012C57.0839 25.3683 56.7387 25.2518 56.2757 25.2518C55.7955 25.2518 55.4191 25.3569 55.1464 25.5671C54.8737 25.7773 54.6819 26.0018 54.5711 26.2404L53.6166 25.8995C53.787 25.5018 54.0143 25.1921 54.2984 24.9705C54.5853 24.7461 54.8978 24.5898 55.2359 24.5018C55.5768 24.4109 55.912 24.3654 56.2416 24.3654C56.4518 24.3654 56.6933 24.391 56.966 24.4421C57.2416 24.4904 57.5072 24.5913 57.7629 24.7447C58.0214 24.8981 58.2359 25.1296 58.4063 25.4393C58.5768 25.7489 58.662 26.1637 58.662 26.6836V30.9961H57.6563V30.1097H57.6052C57.537 30.2518 57.4234 30.4038 57.2643 30.5657C57.1052 30.7276 56.8936 30.8654 56.6294 30.979C56.3651 31.0927 56.0427 31.1495 55.662 31.1495ZM55.8154 30.2461C56.2132 30.2461 56.5484 30.168 56.8211 30.0117C57.0967 29.8555 57.3041 29.6538 57.4433 29.4066C57.5853 29.1594 57.6563 28.8995 57.6563 28.6268V27.7063C57.6137 27.7575 57.52 27.8043 57.3751 27.8469C57.233 27.8867 57.0683 27.9222 56.8808 27.9535C56.6961 27.9819 56.5157 28.0075 56.3396 28.0302C56.1663 28.0501 56.0257 28.0671 55.9177 28.0813C55.6563 28.1154 55.412 28.1708 55.1847 28.2475C54.9603 28.3214 54.7785 28.4336 54.6393 28.5842C54.5029 28.7319 54.4347 28.9336 54.4347 29.1893C54.4347 29.5387 54.564 29.8029 54.8225 29.9819C55.0839 30.158 55.4149 30.2461 55.8154 30.2461Z" fill="#4F5769"/>
</g>
</svg>
