<svg width="488" height="228" viewBox="0 0 488 228" fill="none" xmlns="http://www.w3.org/2000/svg">
<path d="M171.394 56.7933C160.182 47.9098 127.793 56.2089 113 61.4689L131.102 34H241.467L273 61.4689C263.657 63.6118 251.394 72.7271 226.869 77.2489C204.679 81.34 185.409 67.8978 171.394 56.7933Z" fill="#C4C6D7" fill-opacity="0.13"/>
<path d="M40.0475 153.736L135.943 34.4054L242.387 34.4055L332.001 114.085L442.796 119.466L370.5 211.5L221.5 211.5L141.477 154.833L40.0475 153.736Z" fill="url(#paint0_linear_1222_51737)"/>
<g filter="url(#filter0_d_1222_51737)">
<ellipse rx="18.3575" ry="24.1091" transform="matrix(0.977376 0.227267 -0.161319 0.994776 270.127 54.9545)" fill="url(#paint1_linear_1222_51737)"/>
</g>
<path d="M147 153.205L242.667 34L329 111.133L242.667 228L147 153.205Z" fill="url(#paint2_linear_1222_51737)"/>
<ellipse rx="16.5001" ry="24.1091" transform="matrix(0.977376 0.227267 -0.161319 0.994776 272.486 54.4047)" fill="url(#paint3_linear_1222_51737)"/>
<path d="M63.0568 125.511C63.0568 125.511 49.1262 142.944 41 153.985L143.158 155.147L225 215C157.669 161.539 166.375 137.133 147.801 128.416C129.227 119.7 117.038 138.876 96.142 128.416C86.0616 123.37 85.694 98.1989 63.0568 125.511Z" fill="#EFF0F5"/>
<path d="M367.752 141.835C362.658 131.501 369.874 120.306 374.119 116L443 119.523L397.273 180C397.466 176.868 397.157 169.079 394.378 162.972C390.905 155.339 374.119 154.752 367.752 141.835Z" fill="#C4C6D7" fill-opacity="0.1"/>
<path fill-rule="evenodd" clip-rule="evenodd" d="M148 104.003C147.986 103.998 150.322 102.495 150.332 102.498L151.505 94C151.948 94.1269 152.499 94.2856 153.121 94.4717C159.922 96.505 167.034 99.3468 171.529 104.84V104.84C175.347 109.506 177.929 114.378 180.069 118.758C180.591 119.827 181.078 120.845 181.544 121.82C183.075 125.02 184.383 127.756 186.006 130.338C188 133.508 190.242 137.195 193.374 139.125C196.539 141.075 201.026 142.676 207.858 143.336C223.325 144.828 232.712 135.733 244.238 125.73L244.547 125.462C255.694 115.786 268.97 104.263 290.41 106.617C304.876 108.205 314.416 114.054 320.731 121.693C326.842 129.083 329.522 137.684 331.284 143.876C332.033 146.507 332.647 149.728 333.245 152.865C333.419 153.782 333.593 154.691 333.767 155.577C334.588 159.728 335.528 163.883 336.947 167.77C339.74 175.415 344.096 181.351 352.472 183.784C368.23 188.363 407.668 160.82 414 158.071L402.965 171.872C397.158 178.867 368.471 201.785 348.919 196.104C335.225 192.125 328.547 182.029 324.951 172.185C323.177 167.327 322.084 162.372 321.235 158.071C321.006 156.916 320.8 155.834 320.606 154.818C320.037 151.841 319.576 149.429 318.999 147.4C317.277 141.35 315.169 133.881 310.9 128.718C306.836 123.803 300.404 119.45 289.02 118.2C273.489 116.495 264.076 125.468 252.595 135.432C252.398 135.603 252.2 135.775 252.002 135.947C240.958 145.538 227.785 156.978 206.635 154.936C198.366 154.138 191.892 152.095 186.69 148.89C181.455 145.664 177.926 141.517 175.201 137.182C173.144 133.91 171.41 130.279 169.826 126.96C169.407 126.082 168.999 125.226 168.597 124.405C166.581 120.277 164.517 116.477 161.656 112.981C159.35 110.163 157.007 107.908 155.015 106.315C154.019 105.519 153.157 104.925 152.476 104.519C151.873 104.159 148.064 104.029 148 104.003Z" fill="#C4C6D7" fill-opacity="0.24"/>
<g opacity="0.8">
<g filter="url(#filter1_d_1222_51737)">
<path d="M147.182 102.781C148.121 103.947 151.084 105.048 151.378 104.951C151.574 105.048 152.141 105.067 152.846 104.368C153.727 103.493 164.888 84.5439 169.294 75.2151C173.699 65.8862 173.112 61.8048 172.525 56.5574C171.937 51.3099 166.357 44.6048 161.951 43.4386C157.545 42.2725 168.115 59.5501 157.835 67.7128C147.555 75.8756 132.874 66.1777 133.755 71.4252C134.636 76.6727 146.007 101.323 147.182 102.781Z" fill="#F02E65"/>
</g>
<path fill-rule="evenodd" clip-rule="evenodd" d="M147.826 103.175C147.532 103.272 146.71 103.175 145.77 102.009C144.595 100.551 131.084 74.8969 130.203 69.6494C129.322 64.4019 127.632 54.2977 136.972 45.074C143.943 38.1893 153.993 40.4967 158.399 41.6628C162.805 42.8289 168.385 49.534 168.973 54.7815C168.986 54.902 169 55.0219 169.013 55.1412C169.584 60.2192 170.046 64.3246 165.742 73.4392C161.336 82.7681 150.175 101.717 149.294 102.592C148.589 103.292 148.021 103.272 147.826 103.175ZM148.07 71.2639C153.463 71.2639 157.835 66.2954 157.835 60.1665C157.835 54.0376 153.463 49.0691 148.07 49.0691C142.676 49.0691 138.304 54.0376 138.304 60.1665C138.304 66.2954 142.676 71.2639 148.07 71.2639Z" fill="url(#paint4_linear_1222_51737)"/>
<path d="M139.191 65.0493C141.128 70.3761 145.406 71.2639 148.069 71.2639C144.074 68.1566 143.009 65.8483 142.298 63.7176C141.707 61.9421 141.423 60.1019 142.299 55.7275C142.743 53.508 145.258 49.661 146.737 49.0691C145.405 49.2171 141.855 50.2232 140.079 53.0642C137.86 56.6153 137.415 60.1665 139.191 65.0493Z" fill="#F02E65"/>
</g>
<path fill-rule="evenodd" clip-rule="evenodd" d="M267.074 64.8294L265.992 54.5305L269.216 54.1662L273.777 68.9301L270.885 70.2596L267.074 64.8294Z" fill="url(#paint5_linear_1222_51737)"/>
<path fill-rule="evenodd" clip-rule="evenodd" d="M265.946 54.4743L268.757 53.1819L271.686 53.9154L278.325 58.0626L275.506 59.3588L266.577 60.2284L265.946 54.4743Z" fill="url(#paint6_linear_1222_51737)"/>
<path fill-rule="evenodd" clip-rule="evenodd" d="M265.048 45.572L265.648 51.3854L279.55 50.0316L282.354 48.7428L275.71 44.5598L267.872 44.2734L265.048 45.572Z" fill="url(#paint7_linear_1222_51737)"/>
<path fill-rule="evenodd" clip-rule="evenodd" d="M269.927 63.5175L268.845 53.2186L272.069 52.8543L273.738 68.9478L269.927 63.5175Z" fill="#C4C6D7"/>
<path fill-rule="evenodd" clip-rule="evenodd" d="M268.803 53.1628L274.542 52.6038L278.362 58.0473L269.433 58.9168L268.803 53.1628Z" fill="#C5C7D8"/>
<path fill-rule="evenodd" clip-rule="evenodd" d="M267.903 44.26L268.504 50.0734L282.406 48.7196L278.566 43.2479L267.903 44.26Z" fill="#C5C7D8"/>
<g filter="url(#filter2_d_1222_51737)">
<ellipse cx="77.5" cy="98" rx="19.5" ry="22" fill="#E1E2EB"/>
</g>
<ellipse cx="73.5" cy="97.5" rx="19.5" ry="21.5" fill="#F7F7FD"/>
<ellipse cx="267.5" cy="178.5" rx="18.5" ry="20.5" fill="url(#paint8_linear_1222_51737)"/>
<g filter="url(#filter3_d_1222_51737)">
<ellipse cx="272.5" cy="178.5" rx="17.5" ry="20.5" fill="url(#paint9_linear_1222_51737)"/>
</g>
<path fill-rule="evenodd" clip-rule="evenodd" d="M273.758 184.679L270.891 185.426L271.266 188.535C271.346 189.203 270.901 189.877 270.27 190.041C269.64 190.205 269.063 189.797 268.983 189.129L268.608 186.021L268.551 186.035C267.767 186.24 267.054 185.723 266.952 184.878L266.004 177.018C265.998 176.971 265.996 176.924 265.994 176.877L276.359 174.178C276.368 174.222 276.375 174.269 276.381 174.315L277.329 182.175C277.43 183.02 276.881 183.866 276.097 184.07L276.042 184.085L276.416 187.194C276.497 187.862 276.051 188.536 275.421 188.7C274.79 188.865 274.214 188.456 274.133 187.788L273.758 184.679ZM265.525 178.968C265.445 178.301 264.868 177.892 264.238 178.056C263.607 178.221 263.162 178.895 263.242 179.563L263.868 184.751C263.948 185.419 264.525 185.827 265.155 185.663C265.785 185.499 266.231 184.824 266.151 184.156L265.525 178.968ZM279.571 175.31C279.49 174.642 278.914 174.234 278.283 174.398C277.653 174.562 277.207 175.237 277.288 175.905L277.913 181.093C277.994 181.76 278.57 182.169 279.201 182.004C279.831 181.84 280.277 181.166 280.196 180.498L279.571 175.31ZM269.979 170.506C267.457 171.432 265.707 173.93 265.966 176.352L276.262 173.671C275.939 171.265 273.712 169.803 271.127 170.208L269.979 170.506Z" fill="url(#paint10_linear_1222_51737)"/>
<path d="M268.35 173.247C268.392 173.584 268.161 173.927 267.835 174.013C267.509 174.099 267.211 173.895 267.17 173.558L267.169 173.555C267.128 173.217 267.358 172.874 267.684 172.788C268.01 172.703 268.308 172.906 268.35 173.244L268.35 173.247ZM272.759 172.099C272.801 172.436 272.57 172.779 272.244 172.865C271.918 172.951 271.62 172.747 271.578 172.41L271.578 172.406C271.536 172.069 271.767 171.726 272.093 171.64C272.419 171.554 272.717 171.758 272.759 172.095L272.759 172.099Z" fill="white"/>
<path fill-rule="evenodd" clip-rule="evenodd" d="M273.519 183.592L270.651 184.339L271.026 187.448C271.107 188.116 270.661 188.79 270.03 188.954C269.4 189.119 268.824 188.71 268.743 188.043L268.368 184.933L268.312 184.948C267.528 185.152 266.814 184.636 266.712 183.791L265.764 175.931C265.759 175.884 265.756 175.837 265.755 175.79L276.119 173.09C276.128 173.135 276.136 173.181 276.141 173.228L277.089 181.088C277.191 181.933 276.641 182.779 275.857 182.983L275.802 182.997L276.177 186.107C276.257 186.775 275.811 187.449 275.181 187.613C274.55 187.777 273.974 187.369 273.894 186.701L273.519 183.592ZM265.286 177.881C265.205 177.214 264.629 176.805 263.998 176.969C263.368 177.134 262.922 177.808 263.002 178.476L263.628 183.664C263.708 184.332 264.285 184.74 264.915 184.576C265.546 184.412 265.992 183.737 265.911 183.069L265.286 177.881ZM279.331 174.223C279.251 173.555 278.674 173.147 278.044 173.311C277.413 173.475 276.967 174.15 277.048 174.818L277.673 180.006C277.754 180.673 278.33 181.082 278.961 180.917C279.591 180.753 280.037 180.079 279.957 179.411L279.331 174.223ZM269.739 169.419C267.218 170.345 265.467 172.843 265.726 175.265L276.022 172.584C275.699 170.178 273.472 168.716 270.887 169.121L269.739 169.419Z" fill="url(#paint11_linear_1222_51737)"/>
<path d="M265.533 170.275L267.004 172.171ZM275.036 167.8L274.098 170.323Z" fill="#C4C6D7"/>
<path d="M265.533 170.275L267.004 172.171M275.036 167.8L274.098 170.323" stroke="#C4C6D7" stroke-linecap="round" stroke-linejoin="round"/>
<path d="M269.079 172.161C269.12 172.498 268.89 172.841 268.563 172.927C268.237 173.013 267.939 172.809 267.898 172.472L267.897 172.469C267.856 172.131 268.086 171.788 268.412 171.703C268.738 171.617 269.037 171.82 269.078 172.158L269.079 172.161ZM273.487 171.013C273.529 171.35 273.298 171.693 272.972 171.779C272.646 171.865 272.348 171.661 272.306 171.324L272.306 171.32C272.264 170.983 272.495 170.64 272.821 170.554C273.147 170.468 273.445 170.672 273.487 171.009L273.487 171.013Z" fill="white"/>
<g filter="url(#filter4_f_1222_51737)">
<path d="M67.4072 91.5471L69.9685 92.0566L66.8949 95.577L69.9685 100.418L67.4804 99.9235L64.4067 95.1804L67.4072 91.5471Z" fill="#A3A8BD" fill-opacity="0.44"/>
</g>
<g filter="url(#filter5_f_1222_51737)">
<path d="M82.0445 94.3595L79.4831 93.85L82.5567 98.5931L79.4831 102.212L81.9713 102.707L85.0449 99.1864L82.0445 94.3595Z" fill="#A3A8BD" fill-opacity="0.44"/>
</g>
<g filter="url(#filter6_f_1222_51737)">
<path d="M75.8245 86.2358L77.7272 86.6143L73.9218 107.106L72.019 106.728L75.8245 86.2358Z" fill="#A3A8BD" fill-opacity="0.44"/>
</g>
<path fill-rule="evenodd" clip-rule="evenodd" d="M69.0677 92.4324L66.5063 91.9229L63.5059 95.5561L66.5795 100.299L67.2373 100.43L65.2628 100.627L67.6778 101.108L69.0673 100.794L69.0677 100.794L69.0676 100.794L69.0683 100.794L69.0674 100.794L65.994 95.9527L69.0677 92.4324Z" fill="url(#paint12_linear_1222_51737)"/>
<path fill-rule="evenodd" clip-rule="evenodd" d="M78.5831 94.2256L81.1444 94.735L84.1449 99.562L81.0712 103.082L78.5831 102.587L81.6567 98.9686L78.5831 94.2256ZM77.2632 102.916L79.7514 103.411L81.0686 103.083L80.1173 102.893L77.2632 102.916Z" fill="url(#paint13_linear_1222_51737)"/>
<path fill-rule="evenodd" clip-rule="evenodd" d="M76.8273 86.9894L74.9245 86.6109L71.1191 107.103L73.0218 107.481L76.8273 86.9894ZM69.8005 107.432L71.7764 107.234L73.0205 107.482L71.7764 107.825L69.8005 107.432Z" fill="url(#paint14_linear_1222_51737)"/>
<path d="M65.1899 92.2505L67.7513 92.76L64.6776 96.2803L67.7513 101.122L65.2631 100.627L62.1895 95.8838L65.1899 92.2505Z" fill="url(#paint15_linear_1222_51737)"/>
<path d="M79.8257 95.0633L77.2644 94.5538L80.338 99.2969L77.2644 102.916L79.7525 103.411L82.8262 99.8902L79.8257 95.0633Z" fill="url(#paint16_linear_1222_51737)"/>
<path d="M73.6055 86.9401L75.5082 87.3185L71.7028 107.81L69.8 107.432L73.6055 86.9401Z" fill="url(#paint17_linear_1222_51737)"/>
<path d="M66.5084 91.9224L65.1912 92.2506L67.7525 92.7601L69.0698 92.4319L66.5084 91.9224Z" fill="url(#paint18_linear_1222_51737)"/>
<path d="M74.9235 86.6119L73.6062 86.9401L75.5089 87.3186L76.8262 86.9904L74.9235 86.6119Z" fill="url(#paint19_linear_1222_51737)"/>
<path d="M78.5802 94.2263L77.2629 94.5545L79.8243 95.064L81.1416 94.7357L78.5802 94.2263Z" fill="url(#paint20_linear_1222_51737)"/>
<g filter="url(#filter7_d_1222_51737)">
<ellipse rx="27.6597" ry="29.6713" transform="matrix(0.348485 -0.937314 0.945449 0.32577 420.92 144.619)" fill="#E5E6EF"/>
</g>
<ellipse rx="27.6597" ry="29.6713" transform="matrix(0.348485 -0.937314 0.945449 0.32577 422.308 139.816)" fill="url(#paint21_linear_1222_51737)"/>
<path d="M412.966 147.301L404.914 123.115L429.339 130.452L438.124 156.837L412.966 147.301Z" fill="#DCDEE9"/>
<path d="M412.985 147.743L404.779 123.333L429.015 130.507L419.078 139.103L412.985 147.743Z" fill="#F02E65" fill-opacity="0.5"/>
<path d="M412.985 147.743L404.779 123.333L419.078 139.103L412.985 147.743Z" fill="#F02E65" fill-opacity="0.5"/>
<path d="M412.982 147.744L438.211 157.078L418.875 138.981L412.982 147.744Z" fill="#C4C6D7"/>
<defs>
<filter id="filter0_d_1222_51737" x="247.764" y="30.6072" width="44.7256" height="56.6947" filterUnits="userSpaceOnUse" color-interpolation-filters="sRGB">
<feFlood flood-opacity="0" result="BackgroundImageFix"/>
<feColorMatrix in="SourceAlpha" type="matrix" values="0 0 0 0 0 0 0 0 0 0 0 0 0 0 0 0 0 0 127 0" result="hardAlpha"/>
<feOffset dy="4"/>
<feGaussianBlur stdDeviation="2"/>
<feComposite in2="hardAlpha" operator="out"/>
<feColorMatrix type="matrix" values="0 0 0 0 0 0 0 0 0 0 0 0 0 0 0 0 0 0 0.05 0"/>
<feBlend mode="normal" in2="BackgroundImageFix" result="effect1_dropShadow_1222_51737"/>
<feBlend mode="normal" in="SourceGraphic" in2="effect1_dropShadow_1222_51737" result="shape"/>
</filter>
<filter id="filter1_d_1222_51737" x="97.7173" y="21.3824" width="93.2104" height="115.618" filterUnits="userSpaceOnUse" color-interpolation-filters="sRGB">
<feFlood flood-opacity="0" result="BackgroundImageFix"/>
<feColorMatrix in="SourceAlpha" type="matrix" values="0 0 0 0 0 0 0 0 0 0 0 0 0 0 0 0 0 0 127 0" result="hardAlpha"/>
<feOffset dx="-9" dy="5"/>
<feGaussianBlur stdDeviation="13.5"/>
<feComposite in2="hardAlpha" operator="out"/>
<feColorMatrix type="matrix" values="0 0 0 0 0 0 0 0 0 0 0 0 0 0 0 0 0 0 0.14 0"/>
<feBlend mode="normal" in2="BackgroundImageFix" result="effect1_dropShadow_1222_51737"/>
<feBlend mode="normal" in="SourceGraphic" in2="effect1_dropShadow_1222_51737" result="shape"/>
</filter>
<filter id="filter2_d_1222_51737" x="51" y="65" width="69" height="74" filterUnits="userSpaceOnUse" color-interpolation-filters="sRGB">
<feFlood flood-opacity="0" result="BackgroundImageFix"/>
<feColorMatrix in="SourceAlpha" type="matrix" values="0 0 0 0 0 0 0 0 0 0 0 0 0 0 0 0 0 0 127 0" result="hardAlpha"/>
<feOffset dx="8" dy="4"/>
<feGaussianBlur stdDeviation="7.5"/>
<feComposite in2="hardAlpha" operator="out"/>
<feColorMatrix type="matrix" values="0 0 0 0 0 0 0 0 0 0 0 0 0 0 0 0 0 0 0.05 0"/>
<feBlend mode="normal" in2="BackgroundImageFix" result="effect1_dropShadow_1222_51737"/>
<feBlend mode="normal" in="SourceGraphic" in2="effect1_dropShadow_1222_51737" result="shape"/>
</filter>
<filter id="filter3_d_1222_51737" x="254" y="155" width="49" height="55" filterUnits="userSpaceOnUse" color-interpolation-filters="sRGB">
<feFlood flood-opacity="0" result="BackgroundImageFix"/>
<feColorMatrix in="SourceAlpha" type="matrix" values="0 0 0 0 0 0 0 0 0 0 0 0 0 0 0 0 0 0 127 0" result="hardAlpha"/>
<feOffset dx="6" dy="4"/>
<feGaussianBlur stdDeviation="3.5"/>
<feComposite in2="hardAlpha" operator="out"/>
<feColorMatrix type="matrix" values="0 0 0 0 0 0 0 0 0 0 0 0 0 0 0 0 0 0 0.05 0"/>
<feBlend mode="normal" in2="BackgroundImageFix" result="effect1_dropShadow_1222_51737"/>
<feBlend mode="normal" in="SourceGraphic" in2="effect1_dropShadow_1222_51737" result="shape"/>
</filter>
<filter id="filter4_f_1222_51737" x="52.4067" y="79.5471" width="29.5618" height="32.8713" filterUnits="userSpaceOnUse" color-interpolation-filters="sRGB">
<feFlood flood-opacity="0" result="BackgroundImageFix"/>
<feBlend mode="normal" in="SourceGraphic" in2="BackgroundImageFix" result="shape"/>
<feGaussianBlur stdDeviation="6" result="effect1_foregroundBlur_1222_51737"/>
</filter>
<filter id="filter5_f_1222_51737" x="67.4832" y="81.85" width="29.5618" height="32.8567" filterUnits="userSpaceOnUse" color-interpolation-filters="sRGB">
<feFlood flood-opacity="0" result="BackgroundImageFix"/>
<feBlend mode="normal" in="SourceGraphic" in2="BackgroundImageFix" result="shape"/>
<feGaussianBlur stdDeviation="6" result="effect1_foregroundBlur_1222_51737"/>
</filter>
<filter id="filter6_f_1222_51737" x="60.019" y="74.2358" width="29.7083" height="44.8704" filterUnits="userSpaceOnUse" color-interpolation-filters="sRGB">
<feFlood flood-opacity="0" result="BackgroundImageFix"/>
<feBlend mode="normal" in="SourceGraphic" in2="BackgroundImageFix" result="shape"/>
<feGaussianBlur stdDeviation="6" result="effect1_foregroundBlur_1222_51737"/>
</filter>
<filter id="filter7_d_1222_51737" x="366.25" y="95.9429" width="109.341" height="105.353" filterUnits="userSpaceOnUse" color-interpolation-filters="sRGB">
<feFlood flood-opacity="0" result="BackgroundImageFix"/>
<feColorMatrix in="SourceAlpha" type="matrix" values="0 0 0 0 0 0 0 0 0 0 0 0 0 0 0 0 0 0 127 0" result="hardAlpha"/>
<feOffset dy="4"/>
<feGaussianBlur stdDeviation="12.5"/>
<feComposite in2="hardAlpha" operator="out"/>
<feColorMatrix type="matrix" values="0 0 0 0 0 0 0 0 0 0 0 0 0 0 0 0 0 0 0.05 0"/>
<feBlend mode="normal" in2="BackgroundImageFix" result="effect1_dropShadow_1222_51737"/>
<feBlend mode="normal" in="SourceGraphic" in2="effect1_dropShadow_1222_51737" result="shape"/>
</filter>
<linearGradient id="paint0_linear_1222_51737" x1="259.839" y1="37.6538" x2="225.197" y2="223.765" gradientUnits="userSpaceOnUse">
<stop stop-color="#F2F2F8"/>
<stop offset="1" stop-color="#F2F2F8" stop-opacity="0.5"/>
</linearGradient>
<linearGradient id="paint1_linear_1222_51737" x1="18.3575" y1="0" x2="18.3575" y2="48.2182" gradientUnits="userSpaceOnUse">
<stop stop-color="#D5D7E3"/>
<stop offset="1" stop-color="#DADBE6"/>
</linearGradient>
<linearGradient id="paint2_linear_1222_51737" x1="529.667" y1="-99.2289" x2="237.442" y2="227.501" gradientUnits="userSpaceOnUse">
<stop stop-color="#C4C6D7"/>
<stop offset="1" stop-color="#C4C6D7" stop-opacity="0"/>
</linearGradient>
<linearGradient id="paint3_linear_1222_51737" x1="-31.4299" y1="-5.38633" x2="39.5002" y2="43.8833" gradientUnits="userSpaceOnUse">
<stop stop-color="#E6E7F0"/>
<stop offset="1" stop-color="#FAFAFF"/>
</linearGradient>
<linearGradient id="paint4_linear_1222_51737" x1="221.312" y1="155.16" x2="120.5" y2="48.5" gradientUnits="userSpaceOnUse">
<stop stop-color="#F02E65"/>
<stop offset="1" stop-color="#F291AE"/>
</linearGradient>
<linearGradient id="paint5_linear_1222_51737" x1="270.941" y1="56.624" x2="264.492" y2="61.1498" gradientUnits="userSpaceOnUse">
<stop stop-color="#E8E8F1"/>
<stop offset="1" stop-color="#C4C6D7"/>
</linearGradient>
<linearGradient id="paint6_linear_1222_51737" x1="271.897" y1="54.2161" x2="265.505" y2="58.7016" gradientUnits="userSpaceOnUse">
<stop stop-color="#E8E8F1"/>
<stop offset="1" stop-color="#C4C6D7"/>
</linearGradient>
<linearGradient id="paint7_linear_1222_51737" x1="274.47" y1="42.7932" x2="264.519" y2="49.7768" gradientUnits="userSpaceOnUse">
<stop stop-color="#E8E8F1"/>
<stop offset="1" stop-color="#C4C6D7"/>
</linearGradient>
<linearGradient id="paint8_linear_1222_51737" x1="257.064" y1="125.386" x2="267.138" y2="199.049" gradientUnits="userSpaceOnUse">
<stop stop-color="#D5D7E3"/>
<stop offset="1" stop-color="#ECEEF8"/>
</linearGradient>
<linearGradient id="paint9_linear_1222_51737" x1="246.071" y1="103.333" x2="306.236" y2="234.307" gradientUnits="userSpaceOnUse">
<stop stop-color="#E6E7F0"/>
<stop offset="1" stop-color="white"/>
</linearGradient>
<linearGradient id="paint10_linear_1222_51737" x1="278.863" y1="175.843" x2="263.115" y2="173.852" gradientUnits="userSpaceOnUse">
<stop stop-color="#E8E8F1"/>
<stop offset="1" stop-color="#C4C6D7"/>
</linearGradient>
<linearGradient id="paint11_linear_1222_51737" x1="270.313" y1="169.27" x2="286.189" y2="196.194" gradientUnits="userSpaceOnUse">
<stop stop-color="#C4C6D7"/>
<stop offset="1" stop-color="#C4C6D7"/>
</linearGradient>
<linearGradient id="paint12_linear_1222_51737" x1="67.1515" y1="91.482" x2="63.8956" y2="99.9066" gradientUnits="userSpaceOnUse">
<stop stop-color="#A3A8BD"/>
<stop offset="1" stop-color="#C4C6D7"/>
</linearGradient>
<linearGradient id="paint13_linear_1222_51737" x1="82.9136" y1="93.0999" x2="71.6028" y2="105.575" gradientUnits="userSpaceOnUse">
<stop stop-color="#C4C6D7"/>
<stop offset="1" stop-color="#A3A8BD"/>
</linearGradient>
<linearGradient id="paint14_linear_1222_51737" x1="75.1913" y1="86.331" x2="58.7035" y2="117.934" gradientUnits="userSpaceOnUse">
<stop stop-color="#C4C6D7"/>
<stop offset="1" stop-color="#A3A8BD"/>
</linearGradient>
<linearGradient id="paint15_linear_1222_51737" x1="66.5397" y1="93.7887" x2="62.6602" y2="92.2084" gradientUnits="userSpaceOnUse">
<stop stop-color="#C4C6D7"/>
<stop offset="1" stop-color="white"/>
</linearGradient>
<linearGradient id="paint16_linear_1222_51737" x1="84.6942" y1="100.159" x2="70.4795" y2="89.8272" gradientUnits="userSpaceOnUse">
<stop stop-color="#A3A8BD"/>
<stop offset="1" stop-color="white"/>
</linearGradient>
<linearGradient id="paint17_linear_1222_51737" x1="78.4439" y1="91.685" x2="68.8149" y2="87.7267" gradientUnits="userSpaceOnUse">
<stop stop-color="#C4C6D7"/>
<stop offset="1" stop-color="white"/>
</linearGradient>
<linearGradient id="paint18_linear_1222_51737" x1="65.5591" y1="91.5635" x2="68.2476" y2="94.8915" gradientUnits="userSpaceOnUse">
<stop stop-color="#A3A8BD"/>
<stop offset="1" stop-color="white"/>
</linearGradient>
<linearGradient id="paint19_linear_1222_51737" x1="74.0315" y1="86.3762" x2="75.8471" y2="88.7631" gradientUnits="userSpaceOnUse">
<stop stop-color="#A3A8BD"/>
<stop offset="1" stop-color="white"/>
</linearGradient>
<linearGradient id="paint20_linear_1222_51737" x1="77.9713" y1="94.2621" x2="80.7249" y2="96.9439" gradientUnits="userSpaceOnUse">
<stop stop-color="#A3A8BD"/>
<stop offset="1" stop-color="white"/>
</linearGradient>
<linearGradient id="paint21_linear_1222_51737" x1="40.1848" y1="62.7015" x2="-35.0325" y2="-78.0777" gradientUnits="userSpaceOnUse">
<stop stop-color="#F3F3FA"/>
<stop offset="1" stop-color="white"/>
</linearGradient>
</defs>
</svg>
