<svg width="488" height="218" viewBox="0 0 488 218" fill="none" xmlns="http://www.w3.org/2000/svg">
<path d="M36.3156 151.736L132.211 32.4054L238.655 32.4055L328.269 112.085L439.064 117.466L366.768 209.5L217.768 209.5L137.745 152.833L36.3156 151.736Z" fill="url(#paint0_linear_1222_52023)"/>
<path d="M143.268 151.205L238.935 32L325.268 109.133L250.784 209.5H238.5H218.5L143.268 151.205Z" fill="url(#paint1_linear_1222_52023)"/>
<path d="M167.662 54.7933C156.451 45.9098 125.793 54.24 111 59.5L132.5 32H237.735L269.268 59.4689C259.925 61.6118 247.662 70.7271 223.137 75.2489C200.947 79.34 181.677 65.8978 167.662 54.7933Z" fill="#1F202E" fill-opacity="0.25"/>
<g filter="url(#filter0_d_1222_52023)">
<ellipse rx="18.3575" ry="24.1091" transform="matrix(0.977376 0.227267 -0.161319 0.994776 266.395 52.9545)" fill="url(#paint2_linear_1222_52023)"/>
</g>
<ellipse rx="16.5001" ry="24.1091" transform="matrix(0.977376 0.227267 -0.161319 0.994776 268.754 52.4047)" fill="url(#paint3_linear_1222_52023)"/>
<g filter="url(#filter1_d_1222_52023)">
<path d="M59.3249 123.511C59.3249 123.511 45.3942 140.944 37.2681 151.985L139.426 153.147L218.768 210C151.437 156.539 162.643 135.133 144.069 126.416C125.495 117.7 113.306 136.876 92.41 126.416C82.3297 121.37 81.9621 96.1989 59.3249 123.511Z" fill="#14141F" fill-opacity="0.24" shape-rendering="crispEdges"/>
</g>
<path d="M364.02 139.835C358.926 129.501 366.142 118.306 370.387 114L439.268 117.523L393.541 178C393.734 174.868 393.425 167.079 390.646 160.972C387.174 153.339 370.387 152.752 364.02 139.835Z" fill="#20202F" fill-opacity="0.26"/>
<path fill-rule="evenodd" clip-rule="evenodd" d="M144.268 102.003C144.254 101.998 146.59 100.495 146.6 100.498L147.773 92C148.216 92.1269 148.767 92.2856 149.389 92.4717C156.19 94.505 163.302 97.3468 167.797 102.84V102.84C171.615 107.506 174.197 112.378 176.337 116.758C176.859 117.827 177.346 118.845 177.813 119.82C179.343 123.02 180.651 125.756 182.274 128.338C184.268 131.508 186.51 135.195 189.642 137.125C192.807 139.075 197.294 140.676 204.126 141.336C219.593 142.828 228.98 133.733 240.506 123.73L240.815 123.462C251.962 113.786 265.238 102.263 286.678 104.617C301.145 106.205 310.684 112.054 317 119.693C323.11 127.083 325.79 135.684 327.552 141.876C328.301 144.507 328.915 147.728 329.513 150.865C329.687 151.782 329.861 152.691 330.036 153.577C330.856 157.728 331.796 161.883 333.215 165.77C336.008 173.415 340.364 179.351 348.74 181.784C364.498 186.363 403.936 158.82 410.268 156.071L399.234 169.872C393.426 176.867 364.739 199.785 345.187 194.104C331.493 190.125 324.815 180.029 321.219 170.185C319.445 165.327 318.352 160.372 317.503 156.071C317.275 154.916 317.068 153.834 316.874 152.818C316.305 149.841 315.845 147.429 315.267 145.4C313.545 139.35 311.437 131.881 307.168 126.718C303.104 121.803 296.672 117.45 285.288 116.2C269.757 114.495 260.344 123.468 248.863 133.432C248.666 133.603 248.468 133.775 248.27 133.947C237.226 143.538 224.053 154.978 202.903 152.936C194.634 152.138 188.16 150.095 182.958 146.89C177.723 143.664 174.194 139.517 171.469 135.182C169.412 131.91 167.679 128.279 166.094 124.96C165.675 124.082 165.267 123.226 164.865 122.405C162.849 118.277 160.785 114.477 157.924 110.981C155.618 108.163 153.275 105.908 151.283 104.315C150.287 103.519 149.425 102.925 148.745 102.519C148.141 102.159 144.332 102.029 144.268 102.003Z" fill="#14141F" fill-opacity="0.26"/>
<g opacity="0.8">
<g filter="url(#filter2_d_1222_52023)">
<path d="M143.45 100.781C144.389 101.947 147.352 103.048 147.646 102.951C147.842 103.048 148.409 103.067 149.114 102.368C149.995 101.493 161.156 82.5439 165.562 73.2151C169.968 63.8862 169.38 59.8048 168.793 54.5574C168.205 49.3099 162.625 42.6048 158.219 41.4386C153.813 40.2725 164.383 57.5501 154.103 65.7128C143.823 73.8756 129.142 64.1777 130.023 69.4252C130.904 74.6727 142.275 99.323 143.45 100.781Z" fill="#C00D53"/>
</g>
<path fill-rule="evenodd" clip-rule="evenodd" d="M144.094 101.175C143.8 101.272 142.978 101.175 142.038 100.009C140.863 98.5512 127.352 72.8969 126.471 67.6494C125.59 62.4019 123.9 52.2977 133.24 43.074C140.211 36.1893 150.261 38.4967 154.667 39.6628C159.073 40.8289 164.653 47.534 165.241 52.7815C165.254 52.902 165.268 53.0219 165.281 53.1412C165.852 58.2192 166.314 62.3246 162.01 71.4392C157.604 80.7681 146.443 99.7174 145.562 100.592C144.857 101.292 144.289 101.272 144.094 101.175ZM144.338 69.2639C149.731 69.2639 154.103 64.2954 154.103 58.1665C154.103 52.0376 149.731 47.0691 144.338 47.0691C138.944 47.0691 134.572 52.0376 134.572 58.1665C134.572 64.2954 138.944 69.2639 144.338 69.2639Z" fill="url(#paint4_linear_1222_52023)"/>
<path d="M135.459 63.0493C137.396 68.3761 141.674 69.2639 144.337 69.2639C140.342 66.1566 139.277 63.8483 138.566 61.7176C137.974 59.9421 137.691 58.1019 138.566 53.7275C139.01 51.508 141.525 47.661 143.005 47.0691C141.673 47.2171 138.123 48.2232 136.347 51.0642C134.127 54.6153 133.683 58.1665 135.459 63.0493Z" fill="#C00D53"/>
</g>
<path fill-rule="evenodd" clip-rule="evenodd" d="M263.342 62.8294L262.26 52.5305L265.484 52.1662L270.045 66.9301L267.153 68.2596L263.342 62.8294Z" fill="url(#paint5_linear_1222_52023)"/>
<path fill-rule="evenodd" clip-rule="evenodd" d="M262.214 52.4743L265.025 51.1819L267.953 51.9154L274.593 56.0626L271.773 57.3588L262.844 58.2284L262.214 52.4743Z" fill="#252736"/>
<path fill-rule="evenodd" clip-rule="evenodd" d="M261.316 43.572L261.916 49.3854L275.818 48.0316L278.622 46.7428L271.978 42.5598L264.141 42.2734L261.316 43.572Z" fill="url(#paint6_linear_1222_52023)"/>
<path fill-rule="evenodd" clip-rule="evenodd" d="M266.195 61.5175L265.113 51.2186L268.337 50.8543L270.006 66.9478L266.195 61.5175Z" fill="#6B7284"/>
<path fill-rule="evenodd" clip-rule="evenodd" d="M265.071 51.1628L270.81 50.6038L274.63 56.0473L265.701 56.9168L265.071 51.1628Z" fill="#6A7183"/>
<path fill-rule="evenodd" clip-rule="evenodd" d="M264.171 42.26L264.772 48.0734L278.674 46.7196L274.834 41.2479L264.171 42.26Z" fill="url(#paint7_linear_1222_52023)"/>
<g filter="url(#filter3_d_1222_52023)">
<ellipse cx="73.7681" cy="96" rx="19.5" ry="22" fill="#232634"/>
</g>
<ellipse cx="69.7681" cy="95.5" rx="19.5" ry="21.5" fill="url(#paint8_linear_1222_52023)"/>
<ellipse cx="265.768" cy="176.5" rx="18.5" ry="20.5" fill="url(#paint9_linear_1222_52023)"/>
<g filter="url(#filter4_d_1222_52023)">
<ellipse cx="268.768" cy="176.5" rx="17.5" ry="20.5" fill="url(#paint10_linear_1222_52023)"/>
</g>
<path fill-rule="evenodd" clip-rule="evenodd" d="M270.026 182.679L267.159 183.426L267.534 186.535C267.615 187.203 267.169 187.877 266.538 188.041C265.908 188.205 265.331 187.797 265.251 187.129L264.876 184.021L264.82 184.035C264.035 184.24 263.322 183.723 263.22 182.878L262.272 175.018C262.267 174.971 262.264 174.924 262.262 174.877L272.627 172.178C272.636 172.222 272.643 172.269 272.649 172.315L273.597 180.175C273.699 181.02 273.149 181.866 272.365 182.07L272.31 182.085L272.684 185.194C272.765 185.862 272.319 186.536 271.689 186.7C271.058 186.865 270.482 186.456 270.401 185.788L270.026 182.679ZM261.793 176.968C261.713 176.301 261.137 175.892 260.506 176.056C259.876 176.221 259.43 176.895 259.51 177.563L260.136 182.751C260.216 183.419 260.793 183.827 261.423 183.663C262.054 183.499 262.499 182.824 262.419 182.156L261.793 176.968ZM275.839 173.31C275.758 172.642 275.182 172.234 274.552 172.398C273.921 172.562 273.475 173.237 273.556 173.905L274.181 179.093C274.262 179.76 274.838 180.169 275.469 180.004C276.099 179.84 276.545 179.166 276.464 178.498L275.839 173.31ZM266.247 168.506C263.725 169.432 261.975 171.93 262.234 174.352L272.53 171.671C272.207 169.265 269.98 167.803 267.395 168.208L266.247 168.506Z" fill="url(#paint11_linear_1222_52023)"/>
<path d="M264.618 171.247C264.66 171.584 264.429 171.927 264.103 172.013C263.777 172.099 263.479 171.895 263.438 171.558L263.437 171.555C263.396 171.217 263.626 170.874 263.952 170.788C264.278 170.703 264.576 170.906 264.618 171.244L264.618 171.247ZM269.027 170.099C269.069 170.436 268.838 170.779 268.512 170.865C268.186 170.951 267.888 170.747 267.846 170.41L267.846 170.406C267.804 170.069 268.035 169.726 268.361 169.64C268.687 169.554 268.985 169.758 269.027 170.095L269.027 170.099Z" fill="white"/>
<path fill-rule="evenodd" clip-rule="evenodd" d="M269.786 181.592L266.919 182.339L267.294 185.448C267.374 186.116 266.928 186.79 266.298 186.954C265.668 187.119 265.091 186.71 265.011 186.043L264.636 182.933L264.579 182.948C263.795 183.152 263.081 182.636 262.98 181.791L262.032 173.931C262.026 173.884 262.024 173.837 262.022 173.79L272.387 171.09C272.396 171.135 272.403 171.181 272.409 171.228L273.356 179.088C273.458 179.933 272.909 180.779 272.125 180.983L272.069 180.997L272.444 184.107C272.525 184.775 272.079 185.449 271.448 185.613C270.818 185.777 270.242 185.369 270.161 184.701L269.786 181.592ZM261.553 175.881C261.473 175.214 260.896 174.805 260.266 174.969C259.635 175.134 259.189 175.808 259.27 176.476L259.896 181.664C259.976 182.332 260.552 182.74 261.183 182.576C261.813 182.412 262.259 181.737 262.179 181.069L261.553 175.881ZM275.599 172.223C275.518 171.555 274.942 171.147 274.311 171.311C273.681 171.475 273.235 172.15 273.316 172.818L273.941 178.006C274.021 178.673 274.598 179.082 275.228 178.917C275.859 178.753 276.305 178.079 276.224 177.411L275.599 172.223ZM266.007 167.419C263.485 168.345 261.735 170.843 261.994 173.265L272.29 170.584C271.967 168.178 269.739 166.716 267.154 167.121L266.007 167.419Z" fill="url(#paint12_linear_1222_52023)"/>
<path d="M261.802 168.275L263.272 170.171ZM271.304 165.8L270.366 168.323Z" fill="#72798A"/>
<path fill-rule="evenodd" clip-rule="evenodd" d="M261.538 167.936C261.781 167.767 262.096 167.783 262.241 167.97L263.712 169.866C263.857 170.053 263.778 170.342 263.535 170.51C263.292 170.678 262.978 170.663 262.833 170.475L261.362 168.58C261.217 168.392 261.296 168.104 261.538 167.936ZM271.471 165.349C271.739 165.384 271.88 165.615 271.788 165.864L270.85 168.387C270.757 168.637 270.465 168.81 270.198 168.775C269.931 168.739 269.789 168.508 269.882 168.259L270.82 165.736C270.912 165.486 271.204 165.313 271.471 165.349Z" fill="#737A8B"/>
<path d="M265.347 170.161C265.389 170.498 265.158 170.841 264.832 170.927C264.506 171.013 264.208 170.809 264.166 170.472L264.166 170.469C264.124 170.131 264.355 169.788 264.681 169.702C265.007 169.617 265.305 169.82 265.346 170.158L265.347 170.161ZM269.756 169.013C269.797 169.35 269.567 169.693 269.241 169.779C268.914 169.865 268.616 169.661 268.575 169.324L268.574 169.32C268.533 168.983 268.763 168.64 269.089 168.554C269.415 168.468 269.714 168.672 269.755 169.009L269.756 169.013Z" fill="#212331"/>
<g filter="url(#filter5_f_1222_52023)">
<path d="M63.6753 89.5471L66.2366 90.0566L63.163 93.577L66.2366 98.4184L63.7484 97.9235L60.6748 93.1804L63.6753 89.5471Z" fill="#A3A8BD" fill-opacity="0.44"/>
</g>
<g filter="url(#filter6_f_1222_52023)">
<path d="M78.3125 92.3595L75.7512 91.85L78.8248 96.5931L75.7512 100.212L78.2394 100.707L81.313 97.1864L78.3125 92.3595Z" fill="#A3A8BD" fill-opacity="0.44"/>
</g>
<g filter="url(#filter7_f_1222_52023)">
<path d="M72.0926 84.2358L73.9953 84.6143L70.1898 105.106L68.2871 104.728L72.0926 84.2358Z" fill="#A3A8BD" fill-opacity="0.44"/>
</g>
<path fill-rule="evenodd" clip-rule="evenodd" d="M65.3357 90.4324L62.7744 89.9229L59.7739 93.5561L62.8476 98.2992L63.5054 98.4301L61.5309 98.6272L63.9459 99.1075L65.3353 98.7941L65.3357 98.7942L65.3356 98.794L65.3363 98.7939L65.3354 98.7937L62.2621 93.9527L65.3357 90.4324Z" fill="url(#paint13_linear_1222_52023)"/>
<path fill-rule="evenodd" clip-rule="evenodd" d="M74.8511 92.2256L77.4125 92.735L80.4129 97.562L77.3393 101.082L74.8511 100.587L77.9248 96.9686L74.8511 92.2256ZM73.5312 100.916L76.0194 101.411L77.3367 101.083L76.3853 100.893L73.5312 100.916Z" fill="url(#paint14_linear_1222_52023)"/>
<path fill-rule="evenodd" clip-rule="evenodd" d="M73.0951 84.9894L71.1924 84.6109L67.3869 105.103L69.2896 105.481L73.0951 84.9894ZM66.0684 105.432L68.0443 105.234L69.2884 105.482L68.0443 105.825L66.0684 105.432Z" fill="url(#paint15_linear_1222_52023)"/>
<path d="M61.458 90.2505L64.0193 90.76L60.9457 94.2803L64.0193 99.1218L61.5312 98.6269L58.4575 93.8838L61.458 90.2505Z" fill="url(#paint16_linear_1222_52023)"/>
<path d="M76.0938 93.0633L73.5324 92.5538L76.6061 97.2969L73.5324 100.916L76.0206 101.411L79.0942 97.8902L76.0938 93.0633Z" fill="url(#paint17_linear_1222_52023)"/>
<path d="M69.8738 84.9401L71.7765 85.3185L67.9711 105.81L66.0684 105.432L69.8738 84.9401Z" fill="url(#paint18_linear_1222_52023)"/>
<path d="M62.7763 89.9224L61.459 90.2506L64.0203 90.7601L65.3376 90.4319L62.7763 89.9224Z" fill="url(#paint19_linear_1222_52023)"/>
<path d="M71.1918 84.6119L69.8745 84.9401L71.7772 85.3186L73.0945 84.9904L71.1918 84.6119Z" fill="url(#paint20_linear_1222_52023)"/>
<path d="M74.8485 92.2263L73.5312 92.5545L76.0926 93.064L77.4099 92.7357L74.8485 92.2263Z" fill="url(#paint21_linear_1222_52023)"/>
<g filter="url(#filter8_d_1222_52023)">
<ellipse rx="27.6597" ry="29.6713" transform="matrix(0.348485 -0.937314 0.945449 0.32577 417.188 142.619)" fill="#252736"/>
</g>
<ellipse rx="27.6597" ry="29.6713" transform="matrix(0.348485 -0.937314 0.945449 0.32577 418.576 137.816)" fill="url(#paint22_linear_1222_52023)"/>
<path d="M409.235 145.301L401.768 121.5L425.607 128.452L434.392 154.837L409.235 145.301Z" fill="#878E9F"/>
<path d="M409.253 145.743L401.268 121L425.283 128.507L415.346 137.103L409.253 145.743Z" fill="#C4295C"/>
<path d="M409.253 145.743L401.268 121L415.346 137.103L409.253 145.743Z" fill="#A2144F"/>
<path d="M409.25 145.744L434.479 155.078L415.143 136.981L409.25 145.744Z" fill="#616B7C"/>
<defs>
<filter id="filter0_d_1222_52023" x="244.033" y="28.6072" width="44.7251" height="56.6947" filterUnits="userSpaceOnUse" color-interpolation-filters="sRGB">
<feFlood flood-opacity="0" result="BackgroundImageFix"/>
<feColorMatrix in="SourceAlpha" type="matrix" values="0 0 0 0 0 0 0 0 0 0 0 0 0 0 0 0 0 0 127 0" result="hardAlpha"/>
<feOffset dy="4"/>
<feGaussianBlur stdDeviation="2"/>
<feComposite in2="hardAlpha" operator="out"/>
<feColorMatrix type="matrix" values="0 0 0 0 0 0 0 0 0 0 0 0 0 0 0 0 0 0 0.05 0"/>
<feBlend mode="normal" in2="BackgroundImageFix" result="effect1_dropShadow_1222_52023"/>
<feBlend mode="normal" in="SourceGraphic" in2="effect1_dropShadow_1222_52023" result="shape"/>
</filter>
<filter id="filter1_d_1222_52023" x="33.2681" y="111" width="189.5" height="107" filterUnits="userSpaceOnUse" color-interpolation-filters="sRGB">
<feFlood flood-opacity="0" result="BackgroundImageFix"/>
<feColorMatrix in="SourceAlpha" type="matrix" values="0 0 0 0 0 0 0 0 0 0 0 0 0 0 0 0 0 0 127 0" result="hardAlpha"/>
<feOffset dy="4"/>
<feGaussianBlur stdDeviation="2"/>
<feComposite in2="hardAlpha" operator="out"/>
<feColorMatrix type="matrix" values="0 0 0 0 0 0 0 0 0 0 0 0 0 0 0 0 0 0 0.25 0"/>
<feBlend mode="normal" in2="BackgroundImageFix" result="effect1_dropShadow_1222_52023"/>
<feBlend mode="normal" in="SourceGraphic" in2="effect1_dropShadow_1222_52023" result="shape"/>
</filter>
<filter id="filter2_d_1222_52023" x="93.9854" y="19.3824" width="93.2104" height="115.618" filterUnits="userSpaceOnUse" color-interpolation-filters="sRGB">
<feFlood flood-opacity="0" result="BackgroundImageFix"/>
<feColorMatrix in="SourceAlpha" type="matrix" values="0 0 0 0 0 0 0 0 0 0 0 0 0 0 0 0 0 0 127 0" result="hardAlpha"/>
<feOffset dx="-9" dy="5"/>
<feGaussianBlur stdDeviation="13.5"/>
<feComposite in2="hardAlpha" operator="out"/>
<feColorMatrix type="matrix" values="0 0 0 0 0 0 0 0 0 0 0 0 0 0 0 0 0 0 0.14 0"/>
<feBlend mode="normal" in2="BackgroundImageFix" result="effect1_dropShadow_1222_52023"/>
<feBlend mode="normal" in="SourceGraphic" in2="effect1_dropShadow_1222_52023" result="shape"/>
</filter>
<filter id="filter3_d_1222_52023" x="47.2681" y="63" width="69" height="74" filterUnits="userSpaceOnUse" color-interpolation-filters="sRGB">
<feFlood flood-opacity="0" result="BackgroundImageFix"/>
<feColorMatrix in="SourceAlpha" type="matrix" values="0 0 0 0 0 0 0 0 0 0 0 0 0 0 0 0 0 0 127 0" result="hardAlpha"/>
<feOffset dx="8" dy="4"/>
<feGaussianBlur stdDeviation="7.5"/>
<feComposite in2="hardAlpha" operator="out"/>
<feColorMatrix type="matrix" values="0 0 0 0 0 0 0 0 0 0 0 0 0 0 0 0 0 0 0.05 0"/>
<feBlend mode="normal" in2="BackgroundImageFix" result="effect1_dropShadow_1222_52023"/>
<feBlend mode="normal" in="SourceGraphic" in2="effect1_dropShadow_1222_52023" result="shape"/>
</filter>
<filter id="filter4_d_1222_52023" x="250.268" y="153" width="49" height="55" filterUnits="userSpaceOnUse" color-interpolation-filters="sRGB">
<feFlood flood-opacity="0" result="BackgroundImageFix"/>
<feColorMatrix in="SourceAlpha" type="matrix" values="0 0 0 0 0 0 0 0 0 0 0 0 0 0 0 0 0 0 127 0" result="hardAlpha"/>
<feOffset dx="6" dy="4"/>
<feGaussianBlur stdDeviation="3.5"/>
<feComposite in2="hardAlpha" operator="out"/>
<feColorMatrix type="matrix" values="0 0 0 0 0 0 0 0 0 0 0 0 0 0 0 0 0 0 0.05 0"/>
<feBlend mode="normal" in2="BackgroundImageFix" result="effect1_dropShadow_1222_52023"/>
<feBlend mode="normal" in="SourceGraphic" in2="effect1_dropShadow_1222_52023" result="shape"/>
</filter>
<filter id="filter5_f_1222_52023" x="48.6748" y="77.5471" width="29.562" height="32.8713" filterUnits="userSpaceOnUse" color-interpolation-filters="sRGB">
<feFlood flood-opacity="0" result="BackgroundImageFix"/>
<feBlend mode="normal" in="SourceGraphic" in2="BackgroundImageFix" result="shape"/>
<feGaussianBlur stdDeviation="6" result="effect1_foregroundBlur_1222_52023"/>
</filter>
<filter id="filter6_f_1222_52023" x="63.751" y="79.85" width="29.562" height="32.8567" filterUnits="userSpaceOnUse" color-interpolation-filters="sRGB">
<feFlood flood-opacity="0" result="BackgroundImageFix"/>
<feBlend mode="normal" in="SourceGraphic" in2="BackgroundImageFix" result="shape"/>
<feGaussianBlur stdDeviation="6" result="effect1_foregroundBlur_1222_52023"/>
</filter>
<filter id="filter7_f_1222_52023" x="56.2871" y="72.2358" width="29.708" height="44.8704" filterUnits="userSpaceOnUse" color-interpolation-filters="sRGB">
<feFlood flood-opacity="0" result="BackgroundImageFix"/>
<feBlend mode="normal" in="SourceGraphic" in2="BackgroundImageFix" result="shape"/>
<feGaussianBlur stdDeviation="6" result="effect1_foregroundBlur_1222_52023"/>
</filter>
<filter id="filter8_d_1222_52023" x="362.518" y="93.9429" width="109.341" height="105.353" filterUnits="userSpaceOnUse" color-interpolation-filters="sRGB">
<feFlood flood-opacity="0" result="BackgroundImageFix"/>
<feColorMatrix in="SourceAlpha" type="matrix" values="0 0 0 0 0 0 0 0 0 0 0 0 0 0 0 0 0 0 127 0" result="hardAlpha"/>
<feOffset dy="4"/>
<feGaussianBlur stdDeviation="12.5"/>
<feComposite in2="hardAlpha" operator="out"/>
<feColorMatrix type="matrix" values="0 0 0 0 0 0 0 0 0 0 0 0 0 0 0 0 0 0 0.05 0"/>
<feBlend mode="normal" in2="BackgroundImageFix" result="effect1_dropShadow_1222_52023"/>
<feBlend mode="normal" in="SourceGraphic" in2="effect1_dropShadow_1222_52023" result="shape"/>
</filter>
<linearGradient id="paint0_linear_1222_52023" x1="298.268" y1="72" x2="192.5" y2="281" gradientUnits="userSpaceOnUse">
<stop stop-color="#4F5769"/>
<stop offset="1" stop-color="#282A3B"/>
</linearGradient>
<linearGradient id="paint1_linear_1222_52023" x1="525.935" y1="-101.229" x2="233.71" y2="225.501" gradientUnits="userSpaceOnUse">
<stop stop-color="#373B4D"/>
<stop offset="1" stop-color="#35394C"/>
</linearGradient>
<linearGradient id="paint2_linear_1222_52023" x1="18.3575" y1="0" x2="18.3575" y2="48.2182" gradientUnits="userSpaceOnUse">
<stop stop-color="#252736"/>
<stop offset="1" stop-color="#212432"/>
</linearGradient>
<linearGradient id="paint3_linear_1222_52023" x1="30.7594" y1="-1.16833" x2="44.1446" y2="50.3452" gradientUnits="userSpaceOnUse">
<stop stop-color="#464C5B"/>
<stop offset="1" stop-color="#3E4453"/>
</linearGradient>
<linearGradient id="paint4_linear_1222_52023" x1="217.58" y1="153.16" x2="116.768" y2="46.5" gradientUnits="userSpaceOnUse">
<stop stop-color="#DA1A5B"/>
<stop offset="1" stop-color="#F02E65"/>
</linearGradient>
<linearGradient id="paint5_linear_1222_52023" x1="267.209" y1="54.624" x2="260.759" y2="59.1498" gradientUnits="userSpaceOnUse">
<stop stop-color="#242735"/>
<stop offset="1" stop-color="#252736"/>
</linearGradient>
<linearGradient id="paint6_linear_1222_52023" x1="270.739" y1="40.7932" x2="260.787" y2="47.7768" gradientUnits="userSpaceOnUse">
<stop stop-color="#222534"/>
<stop offset="1" stop-color="#252736"/>
</linearGradient>
<linearGradient id="paint7_linear_1222_52023" x1="273.594" y1="39.4811" x2="263.643" y2="46.4647" gradientUnits="userSpaceOnUse">
<stop stop-color="#6D7486"/>
<stop offset="1" stop-color="#61697B"/>
</linearGradient>
<linearGradient id="paint8_linear_1222_52023" x1="112.768" y1="74" x2="69.7681" y2="117" gradientUnits="userSpaceOnUse">
<stop stop-color="#535A6A"/>
<stop offset="1" stop-color="#353947"/>
</linearGradient>
<linearGradient id="paint9_linear_1222_52023" x1="250.268" y1="156" x2="265.566" y2="197.075" gradientUnits="userSpaceOnUse">
<stop stop-color="#252736"/>
<stop offset="1" stop-color="#202230"/>
</linearGradient>
<linearGradient id="paint10_linear_1222_52023" x1="262.268" y1="148" x2="302.066" y2="232.499" gradientUnits="userSpaceOnUse">
<stop stop-color="#555C6D"/>
<stop offset="1" stop-color="#343947"/>
</linearGradient>
<linearGradient id="paint11_linear_1222_52023" x1="275.131" y1="173.843" x2="259.383" y2="171.852" gradientUnits="userSpaceOnUse">
<stop stop-color="#2F3342"/>
<stop offset="1" stop-color="#252736"/>
</linearGradient>
<linearGradient id="paint12_linear_1222_52023" x1="262.268" y1="168.5" x2="276.559" y2="182.69" gradientUnits="userSpaceOnUse">
<stop stop-color="#878E9F"/>
<stop offset="1" stop-color="#61687A"/>
</linearGradient>
<linearGradient id="paint13_linear_1222_52023" x1="63.7681" y1="80.5" x2="57.8125" y2="113.809" gradientUnits="userSpaceOnUse">
<stop stop-color="#2E3141"/>
<stop offset="1" stop-color="#282A3B"/>
</linearGradient>
<linearGradient id="paint14_linear_1222_52023" x1="79.1817" y1="91.0999" x2="67.8709" y2="103.575" gradientUnits="userSpaceOnUse">
<stop stop-color="#353A48"/>
<stop offset="1" stop-color="#232634"/>
</linearGradient>
<linearGradient id="paint15_linear_1222_52023" x1="71.4591" y1="84.331" x2="54.9713" y2="115.934" gradientUnits="userSpaceOnUse">
<stop stop-color="#2B2E3F"/>
<stop offset="1" stop-color="#282A3B"/>
</linearGradient>
<linearGradient id="paint16_linear_1222_52023" x1="62.8078" y1="91.7887" x2="58.9283" y2="90.2084" gradientUnits="userSpaceOnUse">
<stop stop-color="#686F82"/>
<stop offset="1" stop-color="#5C6476"/>
</linearGradient>
<linearGradient id="paint17_linear_1222_52023" x1="80.9623" y1="98.159" x2="79.1026" y2="94.5424" gradientUnits="userSpaceOnUse">
<stop stop-color="#5C6476"/>
<stop offset="1" stop-color="#7B8295"/>
</linearGradient>
<linearGradient id="paint18_linear_1222_52023" x1="79.7681" y1="83.5" x2="60.1783" y2="83.1406" gradientUnits="userSpaceOnUse">
<stop offset="0.230229" stop-color="#7B8195"/>
<stop offset="1" stop-color="#4F5769"/>
</linearGradient>
<linearGradient id="paint19_linear_1222_52023" x1="61.8269" y1="89.5635" x2="64.5154" y2="92.8915" gradientUnits="userSpaceOnUse">
<stop stop-color="#A3A8BD"/>
<stop offset="1" stop-color="#282A3B"/>
</linearGradient>
<linearGradient id="paint20_linear_1222_52023" x1="68.2681" y1="84.5" x2="71.9621" y2="87.3652" gradientUnits="userSpaceOnUse">
<stop stop-color="#A3A8BD"/>
<stop offset="1" stop-color="#5A6274"/>
</linearGradient>
<linearGradient id="paint21_linear_1222_52023" x1="69.7681" y1="92" x2="75.8961" y2="96.7414" gradientUnits="userSpaceOnUse">
<stop stop-color="#A3A8BD"/>
<stop offset="1" stop-color="#6D7487"/>
</linearGradient>
<linearGradient id="paint22_linear_1222_52023" x1="-3.75986" y1="47.2723" x2="64.3961" y2="-4.08875" gradientUnits="userSpaceOnUse">
<stop stop-color="#404756"/>
<stop offset="1" stop-color="#6C7285"/>
</linearGradient>
</defs>
</svg>
