<svg width="549" height="173" viewBox="0 0 549 173" fill="none" xmlns="http://www.w3.org/2000/svg">
<g clip-path="url(#clip0_73_45060)">
<rect x="1" y="1.00195" width="567" height="393" rx="16" fill="#FCFCFF"/>
<g clip-path="url(#clip1_73_45060)">
<rect width="1725" height="1037" transform="translate(-359 -384.998)" fill="#FCFCFF"/>
<rect x="25" y="78.1323" width="288" height="1" fill="#F2F2F8"/>
<path d="M25 41.0024C25 32.1659 32.1634 25.0024 41 25.0024H313V78.2627H25V41.0024Z" fill="white"/>
<path d="M65.0028 46.9055V55.6328H63.7926L59.3565 49.2322H59.2756V55.6328H57.9588V46.9055H59.1776L63.6179 53.3146H63.6989V46.9055H65.0028ZM69.1009 55.6328H67.7031L70.8438 46.9055H72.3651L75.5057 55.6328H74.108L71.6406 48.4908H71.5725L69.1009 55.6328ZM69.3352 52.2152H73.8693V53.3232H69.3352V52.2152ZM78.206 46.9055H79.804L82.5824 53.6896H82.6847L85.4631 46.9055H87.0611V55.6328H85.8083V49.3175H85.7273L83.1534 55.62H82.1137L79.5398 49.3132H79.4588V55.6328H78.206V46.9055ZM90.4155 55.6328V46.9055H95.8871V48.0391H91.7323V50.6982H95.6016V51.8274H91.7323V54.4993H95.9383V55.6328H90.4155Z" fill="#616B7C"/>
<rect x="25" y="158.053" width="288" height="1" fill="#F2F2F8"/>
<rect width="288" height="79.1011" transform="translate(25 79.0024)" fill="white"/>
<g clip-path="url(#clip2_73_45060)">
<rect x="57" y="102.553" width="32" height="32" rx="16" fill="#A1C4FF"/>
<path d="M62.3045 122.553V113.826H65.5005C66.1199 113.826 66.6326 113.928 67.0389 114.133C67.4451 114.334 67.7491 114.609 67.9508 114.955C68.1525 115.299 68.2534 115.687 68.2534 116.119C68.2534 116.482 68.1866 116.789 68.0531 117.039C67.9196 117.286 67.7406 117.485 67.5162 117.636C67.2946 117.783 67.0502 117.891 66.7832 117.959V118.045C67.073 118.059 67.3556 118.153 67.6312 118.326C67.9096 118.496 68.1397 118.739 68.3216 119.055C68.5034 119.37 68.5943 119.754 68.5943 120.205C68.5943 120.651 68.4892 121.052 68.2789 121.407C68.0716 121.759 67.7505 122.039 67.3159 122.246C66.8812 122.451 66.3258 122.553 65.6497 122.553H62.3045ZM63.6213 121.424H65.5218C66.1525 121.424 66.6042 121.302 66.877 121.057C67.1497 120.813 67.286 120.508 67.286 120.141C67.286 119.866 67.2164 119.613 67.0772 119.383C66.938 119.153 66.7392 118.969 66.4806 118.833C66.225 118.697 65.921 118.629 65.5687 118.629H63.6213V121.424ZM63.6213 117.602H65.3855C65.6809 117.602 65.9466 117.545 66.1824 117.431C66.421 117.317 66.6099 117.158 66.7491 116.954C66.8912 116.746 66.9622 116.502 66.9622 116.221C66.9622 115.86 66.8358 115.557 66.5829 115.313C66.3301 115.069 65.9423 114.947 65.4196 114.947H63.6213V117.602ZM74.916 116.119C74.8706 115.715 74.6831 115.403 74.3535 115.181C74.024 114.957 73.6092 114.844 73.1092 114.844C72.7512 114.844 72.4416 114.901 72.1802 115.015C71.9189 115.126 71.7157 115.279 71.5708 115.475C71.4288 115.668 71.3578 115.888 71.3578 116.136C71.3578 116.343 71.4061 116.522 71.5027 116.673C71.6021 116.823 71.7314 116.95 71.8904 117.052C72.0524 117.151 72.2257 117.235 72.4103 117.303C72.595 117.369 72.7725 117.423 72.943 117.465L73.7953 117.687C74.0737 117.755 74.3592 117.847 74.6518 117.964C74.9444 118.08 75.2157 118.234 75.4657 118.424C75.7157 118.614 75.9174 118.85 76.0708 119.131C76.2271 119.413 76.3052 119.749 76.3052 120.141C76.3052 120.636 76.1774 121.075 75.9217 121.458C75.6689 121.842 75.301 122.144 74.818 122.366C74.3379 122.587 73.7569 122.698 73.0751 122.698C72.4217 122.698 71.8564 122.594 71.3791 122.387C70.9018 122.18 70.5282 121.886 70.2583 121.505C69.9885 121.121 69.8393 120.667 69.8109 120.141H71.1319C71.1575 120.457 71.2598 120.719 71.4387 120.93C71.6206 121.137 71.8521 121.292 72.1333 121.394C72.4174 121.494 72.7285 121.543 73.0666 121.543C73.4387 121.543 73.7697 121.485 74.0595 121.369C74.3521 121.249 74.5822 121.084 74.7498 120.874C74.9174 120.661 75.0012 120.413 75.0012 120.129C75.0012 119.87 74.9274 119.658 74.7797 119.494C74.6348 119.329 74.4373 119.192 74.1873 119.084C73.9402 118.977 73.6603 118.881 73.3478 118.799L72.3166 118.518C71.6177 118.327 71.0637 118.048 70.6547 117.678C70.2484 117.309 70.0453 116.82 70.0453 116.212C70.0453 115.709 70.1816 115.271 70.4544 114.896C70.7271 114.521 71.0964 114.229 71.5623 114.022C72.0282 113.812 72.5538 113.707 73.139 113.707C73.7299 113.707 74.2512 113.81 74.7029 114.018C75.1575 114.225 75.5154 114.511 75.7768 114.874C76.0382 115.235 76.1745 115.65 76.1859 116.119H74.916ZM77.8787 122.553V113.826H80.9895C81.6657 113.826 82.2267 113.942 82.6728 114.175C83.1216 114.408 83.4569 114.731 83.6784 115.143C83.9 115.552 84.0108 116.025 84.0108 116.562C84.0108 117.096 83.8986 117.566 83.6742 117.972C83.4526 118.376 83.1174 118.69 82.6685 118.914C82.2225 119.138 81.6614 119.251 80.9853 119.251H78.6287V118.117H80.8659C81.2921 118.117 81.6387 118.056 81.9057 117.934C82.1756 117.812 82.373 117.634 82.498 117.401C82.623 117.168 82.6855 116.888 82.6855 116.562C82.6855 116.232 82.6216 115.947 82.4938 115.705C82.3688 115.464 82.1713 115.279 81.9015 115.151C81.6344 115.021 81.2836 114.955 80.8489 114.955H79.1955V122.553H77.8787ZM82.187 118.616L84.3432 122.553H82.8432L80.7296 118.616H82.187Z" fill="white"/>
</g>
<path d="M102.233 124.053V113.871H105.793C106.502 113.871 107.087 113.994 107.548 114.239C108.008 114.481 108.351 114.808 108.577 115.219C108.802 115.626 108.915 116.079 108.915 116.576C108.915 117.013 108.837 117.375 108.681 117.66C108.529 117.945 108.326 118.17 108.075 118.336C107.826 118.502 107.556 118.624 107.264 118.704V118.803C107.576 118.823 107.889 118.932 108.204 119.131C108.519 119.33 108.782 119.615 108.994 119.986C109.206 120.358 109.312 120.812 109.312 121.349C109.312 121.859 109.196 122.318 108.964 122.726C108.732 123.133 108.366 123.457 107.866 123.695C107.365 123.934 106.714 124.053 105.912 124.053H102.233ZM103.466 122.959H105.912C106.717 122.959 107.289 122.804 107.627 122.492C107.969 122.177 108.139 121.796 108.139 121.349C108.139 121.004 108.051 120.686 107.876 120.394C107.7 120.099 107.45 119.864 107.125 119.688C106.8 119.509 106.416 119.42 105.972 119.42H103.466V122.959ZM103.466 118.346H105.753C106.124 118.346 106.459 118.273 106.757 118.127C107.059 117.981 107.297 117.776 107.473 117.511C107.652 117.245 107.741 116.934 107.741 116.576C107.741 116.129 107.586 115.749 107.274 115.437C106.963 115.123 106.469 114.965 105.793 114.965H103.466V118.346ZM111.179 124.053V116.417H112.313V117.57H112.392C112.532 117.192 112.783 116.886 113.148 116.651C113.513 116.415 113.924 116.298 114.381 116.298C114.467 116.298 114.575 116.299 114.704 116.303C114.833 116.306 114.931 116.311 114.998 116.317V117.511C114.958 117.501 114.867 117.486 114.724 117.466C114.585 117.443 114.437 117.431 114.282 117.431C113.91 117.431 113.579 117.509 113.287 117.665C112.999 117.817 112.77 118.029 112.601 118.301C112.435 118.57 112.353 118.876 112.353 119.221V124.053H111.179ZM119.258 124.212C118.569 124.212 117.964 124.048 117.444 123.72C116.926 123.392 116.522 122.933 116.23 122.343C115.942 121.753 115.798 121.064 115.798 120.275C115.798 119.479 115.942 118.785 116.23 118.192C116.522 117.598 116.926 117.138 117.444 116.81C117.964 116.481 118.569 116.317 119.258 116.317C119.948 116.317 120.551 116.481 121.068 116.81C121.588 117.138 121.993 117.598 122.281 118.192C122.573 118.785 122.718 119.479 122.718 120.275C122.718 121.064 122.573 121.753 122.281 122.343C121.993 122.933 121.588 123.392 121.068 123.72C120.551 124.048 119.948 124.212 119.258 124.212ZM119.258 123.158C119.782 123.158 120.213 123.024 120.551 122.756C120.889 122.487 121.139 122.134 121.301 121.697C121.464 121.259 121.545 120.785 121.545 120.275C121.545 119.764 121.464 119.289 121.301 118.848C121.139 118.407 120.889 118.051 120.551 117.779C120.213 117.507 119.782 117.371 119.258 117.371C118.734 117.371 118.304 117.507 117.966 117.779C117.627 118.051 117.377 118.407 117.215 118.848C117.052 119.289 116.971 119.764 116.971 120.275C116.971 120.785 117.052 121.259 117.215 121.697C117.377 122.134 117.627 122.487 117.966 122.756C118.304 123.024 118.734 123.158 119.258 123.158ZM127.612 124.212C126.922 124.212 126.317 124.048 125.797 123.72C125.28 123.392 124.876 122.933 124.584 122.343C124.296 121.753 124.151 121.064 124.151 120.275C124.151 119.479 124.296 118.785 124.584 118.192C124.876 117.598 125.28 117.138 125.797 116.81C126.317 116.481 126.922 116.317 127.612 116.317C128.301 116.317 128.904 116.481 129.421 116.81C129.942 117.138 130.346 117.598 130.634 118.192C130.926 118.785 131.072 119.479 131.072 120.275C131.072 121.064 130.926 121.753 130.634 122.343C130.346 122.933 129.942 123.392 129.421 123.72C128.904 124.048 128.301 124.212 127.612 124.212ZM127.612 123.158C128.135 123.158 128.566 123.024 128.904 122.756C129.242 122.487 129.493 122.134 129.655 121.697C129.817 121.259 129.899 120.785 129.899 120.275C129.899 119.764 129.817 119.289 129.655 118.848C129.493 118.407 129.242 118.051 128.904 117.779C128.566 117.507 128.135 117.371 127.612 117.371C127.088 117.371 126.657 117.507 126.319 117.779C125.981 118.051 125.731 118.407 125.568 118.848C125.406 119.289 125.325 119.764 125.325 120.275C125.325 120.785 125.406 121.259 125.568 121.697C125.731 122.134 125.981 122.487 126.319 122.756C126.657 123.024 127.088 123.158 127.612 123.158ZM133.957 121.269L133.937 119.817H134.175L137.516 116.417H138.968L135.408 120.016H135.309L133.957 121.269ZM132.863 124.053V113.871H134.036V124.053H132.863ZM137.715 124.053L134.732 120.275L135.567 119.459L139.207 124.053H137.715ZM141.651 113.871V124.053H140.478V113.871H141.651ZM144.556 126.917C144.357 126.917 144.18 126.9 144.024 126.867C143.868 126.837 143.761 126.807 143.701 126.778L143.999 125.744C144.284 125.816 144.536 125.843 144.755 125.823C144.974 125.803 145.168 125.705 145.337 125.53C145.509 125.357 145.666 125.077 145.809 124.69L146.028 124.093L143.204 116.417H144.477L146.585 122.502H146.664L148.772 116.417H150.045L146.803 125.167C146.657 125.561 146.477 125.888 146.261 126.146C146.046 126.408 145.796 126.602 145.511 126.728C145.229 126.854 144.911 126.917 144.556 126.917ZM152.767 119.459V124.053H151.593V116.417H152.727V117.61H152.826C153.005 117.222 153.277 116.911 153.642 116.675C154.006 116.437 154.477 116.317 155.054 116.317C155.571 116.317 156.023 116.423 156.411 116.636C156.799 116.844 157.1 117.163 157.316 117.59C157.531 118.014 157.639 118.551 157.639 119.201V124.053H156.466V119.28C156.466 118.681 156.31 118.213 155.998 117.879C155.687 117.54 155.259 117.371 154.716 117.371C154.341 117.371 154.006 117.453 153.711 117.615C153.42 117.777 153.189 118.014 153.02 118.326C152.851 118.638 152.767 119.015 152.767 119.459ZM169.448 116.417C169.388 115.913 169.146 115.522 168.722 115.244C168.298 114.965 167.777 114.826 167.161 114.826C166.71 114.826 166.316 114.899 165.977 115.045C165.643 115.191 165.381 115.391 165.192 115.646C165.006 115.901 164.914 116.191 164.914 116.516C164.914 116.788 164.978 117.022 165.107 117.217C165.24 117.41 165.409 117.57 165.615 117.7C165.82 117.825 166.035 117.93 166.261 118.013C166.486 118.092 166.693 118.157 166.882 118.207L167.916 118.485C168.182 118.555 168.477 118.651 168.801 118.773C169.129 118.896 169.443 119.063 169.741 119.276C170.043 119.484 170.291 119.753 170.487 120.081C170.682 120.409 170.78 120.812 170.78 121.289C170.78 121.839 170.636 122.336 170.347 122.78C170.062 123.225 169.645 123.578 169.095 123.839C168.548 124.101 167.883 124.232 167.101 124.232C166.372 124.232 165.74 124.115 165.207 123.879C164.677 123.644 164.259 123.316 163.954 122.895C163.652 122.474 163.482 121.985 163.442 121.428H164.715C164.748 121.813 164.877 122.131 165.102 122.383C165.331 122.631 165.619 122.817 165.968 122.94C166.319 123.059 166.697 123.119 167.101 123.119C167.572 123.119 167.994 123.042 168.369 122.89C168.743 122.734 169.04 122.519 169.259 122.244C169.477 121.965 169.587 121.64 169.587 121.269C169.587 120.931 169.492 120.656 169.303 120.444C169.115 120.232 168.866 120.059 168.558 119.927C168.249 119.794 167.916 119.678 167.558 119.579L166.306 119.221C165.51 118.992 164.88 118.666 164.416 118.241C163.952 117.817 163.72 117.262 163.72 116.576C163.72 116.006 163.874 115.509 164.183 115.084C164.494 114.657 164.912 114.325 165.436 114.09C165.963 113.852 166.551 113.732 167.2 113.732C167.857 113.732 168.44 113.85 168.95 114.085C169.461 114.317 169.865 114.635 170.164 115.04C170.465 115.444 170.624 115.903 170.641 116.417H169.448ZM172.648 124.053V116.417H173.821V124.053H172.648ZM173.245 115.144C173.016 115.144 172.819 115.066 172.653 114.91C172.491 114.755 172.409 114.567 172.409 114.349C172.409 114.13 172.491 113.943 172.653 113.787C172.819 113.631 173.016 113.553 173.245 113.553C173.473 113.553 173.669 113.631 173.831 113.787C173.997 113.943 174.08 114.13 174.08 114.349C174.08 114.567 173.997 114.755 173.831 114.91C173.669 115.066 173.473 115.144 173.245 115.144ZM175.97 124.053V116.417H177.104V117.61H177.203C177.362 117.202 177.619 116.886 177.974 116.66C178.329 116.432 178.754 116.317 179.252 116.317C179.755 116.317 180.175 116.432 180.509 116.66C180.847 116.886 181.111 117.202 181.3 117.61H181.379C181.575 117.216 181.868 116.902 182.259 116.67C182.651 116.435 183.119 116.317 183.666 116.317C184.349 116.317 184.908 116.531 185.342 116.959C185.776 117.383 185.993 118.044 185.993 118.942V124.053H184.82V118.942C184.82 118.379 184.666 117.976 184.357 117.734C184.049 117.492 183.686 117.371 183.269 117.371C182.732 117.371 182.316 117.534 182.021 117.859C181.726 118.18 181.578 118.588 181.578 119.082V124.053H180.385V118.823C180.385 118.389 180.244 118.039 179.963 117.774C179.681 117.506 179.318 117.371 178.874 117.371C178.569 117.371 178.284 117.453 178.019 117.615C177.757 117.777 177.545 118.003 177.382 118.291C177.223 118.576 177.144 118.906 177.144 119.28V124.053H175.97ZM188.138 124.053V116.417H189.272V117.61H189.371C189.53 117.202 189.787 116.886 190.142 116.66C190.497 116.432 190.922 116.317 191.42 116.317C191.923 116.317 192.343 116.432 192.677 116.66C193.015 116.886 193.279 117.202 193.468 117.61H193.547C193.743 117.216 194.036 116.902 194.427 116.67C194.818 116.435 195.287 116.317 195.834 116.317C196.517 116.317 197.076 116.531 197.51 116.959C197.944 117.383 198.161 118.044 198.161 118.942V124.053H196.988V118.942C196.988 118.379 196.834 117.976 196.525 117.734C196.217 117.492 195.854 117.371 195.437 117.371C194.9 117.371 194.484 117.534 194.189 117.859C193.894 118.18 193.746 118.588 193.746 119.082V124.053H192.553V118.823C192.553 118.389 192.412 118.039 192.131 117.774C191.849 117.506 191.486 117.371 191.042 117.371C190.737 117.371 190.452 117.453 190.187 117.615C189.925 117.777 189.713 118.003 189.55 118.291C189.391 118.576 189.312 118.906 189.312 119.28V124.053H188.138ZM203.409 124.212C202.719 124.212 202.114 124.048 201.594 123.72C201.077 123.392 200.673 122.933 200.381 122.343C200.093 121.753 199.948 121.064 199.948 120.275C199.948 119.479 200.093 118.785 200.381 118.192C200.673 117.598 201.077 117.138 201.594 116.81C202.114 116.481 202.719 116.317 203.409 116.317C204.098 116.317 204.701 116.481 205.218 116.81C205.739 117.138 206.143 117.598 206.431 118.192C206.723 118.785 206.869 119.479 206.869 120.275C206.869 121.064 206.723 121.753 206.431 122.343C206.143 122.933 205.739 123.392 205.218 123.72C204.701 124.048 204.098 124.212 203.409 124.212ZM203.409 123.158C203.932 123.158 204.363 123.024 204.701 122.756C205.039 122.487 205.289 122.134 205.452 121.697C205.614 121.259 205.695 120.785 205.695 120.275C205.695 119.764 205.614 119.289 205.452 118.848C205.289 118.407 205.039 118.051 204.701 117.779C204.363 117.507 203.932 117.371 203.409 117.371C202.885 117.371 202.454 117.507 202.116 117.779C201.778 118.051 201.528 118.407 201.365 118.848C201.203 119.289 201.122 119.764 201.122 120.275C201.122 120.785 201.203 121.259 201.365 121.697C201.528 122.134 201.778 122.487 202.116 122.756C202.454 123.024 202.885 123.158 203.409 123.158ZM209.833 119.459V124.053H208.66V116.417H209.793V117.61H209.893C210.072 117.222 210.344 116.911 210.708 116.675C211.073 116.437 211.543 116.317 212.12 116.317C212.637 116.317 213.089 116.423 213.477 116.636C213.865 116.844 214.167 117.163 214.382 117.59C214.598 118.014 214.705 118.551 214.705 119.201V124.053H213.532V119.28C213.532 118.681 213.376 118.213 213.065 117.879C212.753 117.54 212.326 117.371 211.782 117.371C211.407 117.371 211.073 117.453 210.778 117.615C210.486 117.777 210.256 118.014 210.087 118.326C209.918 118.638 209.833 119.015 209.833 119.459ZM222.258 118.127L221.204 118.425C221.138 118.25 221.04 118.079 220.911 117.913C220.785 117.744 220.613 117.605 220.394 117.496C220.175 117.386 219.895 117.332 219.554 117.332C219.086 117.332 218.697 117.439 218.385 117.655C218.077 117.867 217.923 118.137 217.923 118.465C217.923 118.757 218.029 118.987 218.241 119.156C218.453 119.325 218.785 119.466 219.236 119.579L220.369 119.857C221.052 120.023 221.561 120.276 221.895 120.618C222.23 120.956 222.398 121.392 222.398 121.925C222.398 122.363 222.272 122.754 222.02 123.099C221.771 123.443 221.423 123.715 220.976 123.914C220.528 124.113 220.008 124.212 219.415 124.212C218.636 124.212 217.991 124.043 217.481 123.705C216.97 123.367 216.647 122.873 216.511 122.224L217.625 121.945C217.731 122.356 217.931 122.664 218.226 122.87C218.525 123.075 218.914 123.178 219.395 123.178C219.942 123.178 220.376 123.062 220.697 122.83C221.022 122.595 221.184 122.313 221.184 121.985C221.184 121.72 221.092 121.498 220.906 121.319C220.72 121.137 220.435 121.001 220.051 120.911L218.778 120.613C218.079 120.447 217.565 120.19 217.237 119.842C216.912 119.491 216.75 119.052 216.75 118.525C216.75 118.094 216.871 117.713 217.113 117.381C217.358 117.05 217.691 116.79 218.112 116.601C218.536 116.412 219.017 116.317 219.554 116.317C220.309 116.317 220.903 116.483 221.334 116.815C221.768 117.146 222.076 117.584 222.258 118.127ZM228.26 124.053V113.871H231.701C232.496 113.871 233.149 114.007 233.659 114.279C234.17 114.548 234.548 114.917 234.793 115.388C235.038 115.858 235.161 116.394 235.161 116.994C235.161 117.593 235.038 118.125 234.793 118.589C234.548 119.053 234.172 119.418 233.664 119.683C233.157 119.945 232.509 120.076 231.721 120.076H228.936V118.962H231.681C232.224 118.962 232.662 118.883 232.993 118.724C233.328 118.565 233.57 118.339 233.719 118.048C233.872 117.753 233.948 117.401 233.948 116.994C233.948 116.586 233.872 116.23 233.719 115.925C233.567 115.62 233.323 115.384 232.988 115.219C232.654 115.05 232.211 114.965 231.661 114.965H229.493V124.053H228.26ZM233.053 119.479L235.559 124.053H234.127L231.661 119.479H233.053ZM240.077 124.212C239.387 124.212 238.782 124.048 238.262 123.72C237.745 123.392 237.34 122.933 237.049 122.343C236.76 121.753 236.616 121.064 236.616 120.275C236.616 119.479 236.76 118.785 237.049 118.192C237.34 117.598 237.745 117.138 238.262 116.81C238.782 116.481 239.387 116.317 240.077 116.317C240.766 116.317 241.369 116.481 241.886 116.81C242.407 117.138 242.811 117.598 243.099 118.192C243.391 118.785 243.537 119.479 243.537 120.275C243.537 121.064 243.391 121.753 243.099 122.343C242.811 122.933 242.407 123.392 241.886 123.72C241.369 124.048 240.766 124.212 240.077 124.212ZM240.077 123.158C240.6 123.158 241.031 123.024 241.369 122.756C241.707 122.487 241.957 122.134 242.12 121.697C242.282 121.259 242.363 120.785 242.363 120.275C242.363 119.764 242.282 119.289 242.12 118.848C241.957 118.407 241.707 118.051 241.369 117.779C241.031 117.507 240.6 117.371 240.077 117.371C239.553 117.371 239.122 117.507 238.784 117.779C238.446 118.051 238.196 118.407 238.033 118.848C237.871 119.289 237.79 119.764 237.79 120.275C237.79 120.785 237.871 121.259 238.033 121.697C238.196 122.134 238.446 122.487 238.784 122.756C239.122 123.024 239.553 123.158 240.077 123.158ZM245.487 124.053V113.871H246.66V117.63H246.76C246.846 117.497 246.965 117.328 247.118 117.123C247.273 116.914 247.495 116.728 247.784 116.566C248.075 116.4 248.47 116.317 248.967 116.317C249.61 116.317 250.177 116.478 250.667 116.8C251.158 117.121 251.541 117.577 251.816 118.167C252.091 118.757 252.228 119.453 252.228 120.255C252.228 121.064 252.091 121.765 251.816 122.358C251.541 122.948 251.159 123.405 250.672 123.73C250.185 124.052 249.623 124.212 248.987 124.212C248.496 124.212 248.104 124.131 247.809 123.969C247.514 123.803 247.287 123.616 247.127 123.407C246.968 123.195 246.846 123.019 246.76 122.88H246.62V124.053H245.487ZM246.64 120.235C246.64 120.812 246.725 121.321 246.894 121.761C247.063 122.199 247.31 122.542 247.635 122.79C247.959 123.036 248.357 123.158 248.828 123.158C249.318 123.158 249.728 123.029 250.056 122.771C250.387 122.509 250.636 122.157 250.801 121.717C250.971 121.272 251.055 120.779 251.055 120.235C251.055 119.698 250.972 119.214 250.806 118.783C250.644 118.349 250.397 118.006 250.066 117.754C249.738 117.499 249.325 117.371 248.828 117.371C248.35 117.371 247.949 117.492 247.625 117.734C247.3 117.973 247.055 118.308 246.889 118.739C246.723 119.166 246.64 119.665 246.64 120.235ZM257.225 124.212C256.489 124.212 255.854 124.05 255.321 123.725C254.79 123.397 254.381 122.94 254.093 122.353C253.808 121.763 253.665 121.077 253.665 120.295C253.665 119.513 253.808 118.823 254.093 118.227C254.381 117.627 254.782 117.159 255.296 116.825C255.813 116.486 256.416 116.317 257.105 116.317C257.503 116.317 257.896 116.384 258.284 116.516C258.672 116.649 259.025 116.864 259.343 117.163C259.661 117.458 259.914 117.849 260.103 118.336C260.292 118.823 260.387 119.423 260.387 120.136V120.633H254.5V119.619H259.194C259.194 119.188 259.107 118.803 258.935 118.465C258.766 118.127 258.524 117.86 258.209 117.665C257.898 117.469 257.53 117.371 257.105 117.371C256.638 117.371 256.234 117.487 255.892 117.719C255.554 117.948 255.294 118.246 255.112 118.614C254.93 118.982 254.838 119.377 254.838 119.798V120.474C254.838 121.05 254.938 121.539 255.137 121.94C255.339 122.338 255.619 122.641 255.977 122.85C256.335 123.056 256.751 123.158 257.225 123.158C257.533 123.158 257.811 123.115 258.06 123.029C258.312 122.94 258.529 122.807 258.711 122.631C258.894 122.452 259.034 122.23 259.134 121.965L260.267 122.283C260.148 122.668 259.948 123.006 259.666 123.298C259.384 123.586 259.036 123.811 258.622 123.974C258.208 124.133 257.742 124.212 257.225 124.212ZM262.172 124.053V116.417H263.305V117.57H263.385C263.524 117.192 263.776 116.886 264.14 116.651C264.505 116.415 264.916 116.298 265.373 116.298C265.459 116.298 265.567 116.299 265.696 116.303C265.826 116.306 265.923 116.311 265.99 116.317V117.511C265.95 117.501 265.859 117.486 265.716 117.466C265.577 117.443 265.43 117.431 265.274 117.431C264.903 117.431 264.571 117.509 264.279 117.665C263.991 117.817 263.762 118.029 263.593 118.301C263.428 118.57 263.345 118.876 263.345 119.221V124.053H262.172ZM271.18 116.417V117.411H267.223V116.417H271.18ZM268.376 114.587H269.549V121.866C269.549 122.197 269.597 122.446 269.694 122.611C269.793 122.774 269.919 122.883 270.071 122.94C270.227 122.993 270.391 123.019 270.564 123.019C270.693 123.019 270.799 123.013 270.882 122.999C270.965 122.983 271.031 122.969 271.081 122.959L271.319 124.013C271.24 124.043 271.129 124.073 270.986 124.103C270.844 124.136 270.663 124.153 270.444 124.153C270.113 124.153 269.788 124.081 269.47 123.939C269.155 123.796 268.893 123.579 268.684 123.288C268.479 122.996 268.376 122.628 268.376 122.184V114.587ZM278.217 118.127L277.163 118.425C277.097 118.25 276.999 118.079 276.87 117.913C276.744 117.744 276.572 117.605 276.353 117.496C276.134 117.386 275.854 117.332 275.513 117.332C275.045 117.332 274.656 117.439 274.344 117.655C274.036 117.867 273.882 118.137 273.882 118.465C273.882 118.757 273.988 118.987 274.2 119.156C274.412 119.325 274.744 119.466 275.195 119.579L276.328 119.857C277.011 120.023 277.52 120.276 277.854 120.618C278.189 120.956 278.357 121.392 278.357 121.925C278.357 122.363 278.231 122.754 277.979 123.099C277.73 123.443 277.382 123.715 276.935 123.914C276.487 124.113 275.967 124.212 275.374 124.212C274.595 124.212 273.95 124.043 273.44 123.705C272.929 123.367 272.606 122.873 272.47 122.224L273.584 121.945C273.69 122.356 273.89 122.664 274.185 122.87C274.484 123.075 274.873 123.178 275.354 123.178C275.901 123.178 276.335 123.062 276.656 122.83C276.981 122.595 277.143 122.313 277.143 121.985C277.143 121.72 277.051 121.498 276.865 121.319C276.679 121.137 276.394 121.001 276.01 120.911L274.737 120.613C274.038 120.447 273.524 120.19 273.196 119.842C272.871 119.491 272.709 119.052 272.709 118.525C272.709 118.094 272.83 117.713 273.072 117.381C273.317 117.05 273.65 116.79 274.071 116.601C274.495 116.412 274.976 116.317 275.513 116.317C276.268 116.317 276.862 116.483 277.293 116.815C277.727 117.146 278.035 117.584 278.217 118.127Z" fill="#616B7C"/>
<rect width="288" height="79.1011" transform="translate(25 159.002)" fill="white"/>
<rect x="313" y="78.1323" width="288" height="1" fill="#F2F2F8"/>
<path d="M313 25.0024H601V78.2627H313V25.0024Z" fill="white"/>
<path d="M345.959 55.6328V46.9055H351.43V48.0391H347.276V50.6982H351.145V51.8274H347.276V54.4993H351.482V55.6328H345.959ZM354.629 46.9055H356.227L359.006 53.6896H359.108L361.886 46.9055H363.484V55.6328H362.232V49.3175H362.151L359.577 55.62H358.537L355.963 49.3132H355.882V55.6328H354.629V46.9055ZM367.576 55.6328H366.178L369.319 46.9055H370.84L373.981 55.6328H372.583L370.116 48.4908H370.048L367.576 55.6328ZM367.81 52.2152H372.344V53.3232H367.81V52.2152ZM377.998 46.9055V55.6328H376.681V46.9055H377.998ZM381.356 55.6328V46.9055H382.672V54.4993H386.627V55.6328H381.356Z" fill="#616B7C"/>
<rect x="313" y="158.053" width="288" height="1" fill="#F2F2F8"/>
<rect width="288" height="79.1011" transform="translate(313 79.0024)" fill="white"/>
<path d="M346.233 124.053V113.871H347.406V117.63H347.506C347.592 117.497 347.711 117.328 347.864 117.123C348.019 116.914 348.241 116.728 348.53 116.566C348.821 116.4 349.216 116.317 349.713 116.317C350.356 116.317 350.923 116.478 351.413 116.8C351.904 117.121 352.287 117.577 352.562 118.167C352.837 118.757 352.974 119.453 352.974 120.255C352.974 121.064 352.837 121.765 352.562 122.358C352.287 122.948 351.906 123.405 351.418 123.73C350.931 124.052 350.369 124.212 349.733 124.212C349.242 124.212 348.85 124.131 348.555 123.969C348.26 123.803 348.033 123.616 347.874 123.407C347.714 123.195 347.592 123.019 347.506 122.88H347.366V124.053H346.233ZM347.386 120.235C347.386 120.812 347.471 121.321 347.64 121.761C347.809 122.199 348.056 122.542 348.381 122.79C348.705 123.036 349.103 123.158 349.574 123.158C350.064 123.158 350.474 123.029 350.802 122.771C351.133 122.509 351.382 122.157 351.548 121.717C351.717 121.272 351.801 120.779 351.801 120.235C351.801 119.698 351.718 119.214 351.553 118.783C351.39 118.349 351.143 118.006 350.812 117.754C350.484 117.499 350.071 117.371 349.574 117.371C349.097 117.371 348.696 117.492 348.371 117.734C348.046 117.973 347.801 118.308 347.635 118.739C347.469 119.166 347.386 119.665 347.386 120.235ZM354.769 124.053V116.417H355.903V117.57H355.982C356.121 117.192 356.373 116.886 356.738 116.651C357.103 116.415 357.513 116.298 357.971 116.298C358.057 116.298 358.165 116.299 358.294 116.303C358.423 116.306 358.521 116.311 358.587 116.317V117.511C358.548 117.501 358.456 117.486 358.314 117.466C358.175 117.443 358.027 117.431 357.871 117.431C357.5 117.431 357.169 117.509 356.877 117.665C356.589 117.817 356.36 118.029 356.191 118.301C356.025 118.57 355.942 118.876 355.942 119.221V124.053H354.769ZM362.848 124.212C362.159 124.212 361.554 124.048 361.033 123.72C360.516 123.392 360.112 122.933 359.82 122.343C359.532 121.753 359.388 121.064 359.388 120.275C359.388 119.479 359.532 118.785 359.82 118.192C360.112 117.598 360.516 117.138 361.033 116.81C361.554 116.481 362.159 116.317 362.848 116.317C363.537 116.317 364.141 116.481 364.658 116.81C365.178 117.138 365.582 117.598 365.871 118.192C366.162 118.785 366.308 119.479 366.308 120.275C366.308 121.064 366.162 121.753 365.871 122.343C365.582 122.933 365.178 123.392 364.658 123.72C364.141 124.048 363.537 124.212 362.848 124.212ZM362.848 123.158C363.372 123.158 363.803 123.024 364.141 122.756C364.479 122.487 364.729 122.134 364.891 121.697C365.054 121.259 365.135 120.785 365.135 120.275C365.135 119.764 365.054 119.289 364.891 118.848C364.729 118.407 364.479 118.051 364.141 117.779C363.803 117.507 363.372 117.371 362.848 117.371C362.324 117.371 361.893 117.507 361.555 117.779C361.217 118.051 360.967 118.407 360.805 118.848C360.642 119.289 360.561 119.764 360.561 120.275C360.561 120.785 360.642 121.259 360.805 121.697C360.967 122.134 361.217 122.487 361.555 122.756C361.893 123.024 362.324 123.158 362.848 123.158ZM371.202 124.212C370.512 124.212 369.907 124.048 369.387 123.72C368.87 123.392 368.465 122.933 368.174 122.343C367.885 121.753 367.741 121.064 367.741 120.275C367.741 119.479 367.885 118.785 368.174 118.192C368.465 117.598 368.87 117.138 369.387 116.81C369.907 116.481 370.512 116.317 371.202 116.317C371.891 116.317 372.494 116.481 373.011 116.81C373.532 117.138 373.936 117.598 374.224 118.192C374.516 118.785 374.662 119.479 374.662 120.275C374.662 121.064 374.516 121.753 374.224 122.343C373.936 122.933 373.532 123.392 373.011 123.72C372.494 124.048 371.891 124.212 371.202 124.212ZM371.202 123.158C371.725 123.158 372.156 123.024 372.494 122.756C372.832 122.487 373.082 122.134 373.245 121.697C373.407 121.259 373.488 120.785 373.488 120.275C373.488 119.764 373.407 119.289 373.245 118.848C373.082 118.407 372.832 118.051 372.494 117.779C372.156 117.507 371.725 117.371 371.202 117.371C370.678 117.371 370.247 117.507 369.909 117.779C369.571 118.051 369.321 118.407 369.158 118.848C368.996 119.289 368.915 119.764 368.915 120.275C368.915 120.785 368.996 121.259 369.158 121.697C369.321 122.134 369.571 122.487 369.909 122.756C370.247 123.024 370.678 123.158 371.202 123.158ZM377.547 121.269L377.527 119.817H377.765L381.106 116.417H382.558L378.998 120.016H378.899L377.547 121.269ZM376.453 124.053V113.871H377.626V124.053H376.453ZM381.305 124.053L378.322 120.275L379.157 119.459L382.797 124.053H381.305ZM384.923 124.133C384.678 124.133 384.467 124.045 384.292 123.869C384.116 123.694 384.028 123.483 384.028 123.238C384.028 122.993 384.116 122.782 384.292 122.606C384.467 122.431 384.678 122.343 384.923 122.343C385.168 122.343 385.379 122.431 385.555 122.606C385.73 122.782 385.818 122.993 385.818 123.238C385.818 123.4 385.777 123.549 385.694 123.685C385.614 123.821 385.506 123.931 385.371 124.013C385.238 124.093 385.089 124.133 384.923 124.133ZM393.333 118.127L392.279 118.425C392.212 118.25 392.115 118.079 391.985 117.913C391.859 117.744 391.687 117.605 391.468 117.496C391.249 117.386 390.969 117.332 390.628 117.332C390.161 117.332 389.771 117.439 389.46 117.655C389.151 117.867 388.997 118.137 388.997 118.465C388.997 118.757 389.103 118.987 389.316 119.156C389.528 119.325 389.859 119.466 390.31 119.579L391.443 119.857C392.126 120.023 392.635 120.276 392.97 120.618C393.304 120.956 393.472 121.392 393.472 121.925C393.472 122.363 393.346 122.754 393.094 123.099C392.845 123.443 392.497 123.715 392.05 123.914C391.602 124.113 391.082 124.212 390.489 124.212C389.71 124.212 389.065 124.043 388.555 123.705C388.044 123.367 387.721 122.873 387.585 122.224L388.699 121.945C388.805 122.356 389.006 122.664 389.301 122.87C389.599 123.075 389.988 123.178 390.469 123.178C391.016 123.178 391.45 123.062 391.771 122.83C392.096 122.595 392.259 122.313 392.259 121.985C392.259 121.72 392.166 121.498 391.98 121.319C391.795 121.137 391.51 121.001 391.125 120.911L389.852 120.613C389.153 120.447 388.639 120.19 388.311 119.842C387.986 119.491 387.824 119.052 387.824 118.525C387.824 118.094 387.945 117.713 388.187 117.381C388.432 117.05 388.765 116.79 389.186 116.601C389.61 116.412 390.091 116.317 390.628 116.317C391.384 116.317 391.977 116.483 392.408 116.815C392.842 117.146 393.15 117.584 393.333 118.127ZM395.238 124.053V116.417H396.411V124.053H395.238ZM395.835 115.144C395.606 115.144 395.409 115.066 395.243 114.91C395.08 114.755 394.999 114.567 394.999 114.349C394.999 114.13 395.08 113.943 395.243 113.787C395.409 113.631 395.606 113.553 395.835 113.553C396.063 113.553 396.259 113.631 396.421 113.787C396.587 113.943 396.67 114.13 396.67 114.349C396.67 114.567 396.587 114.755 396.421 114.91C396.259 115.066 396.063 115.144 395.835 115.144ZM398.56 124.053V116.417H399.694V117.61H399.793C399.952 117.202 400.209 116.886 400.564 116.66C400.918 116.432 401.344 116.317 401.841 116.317C402.345 116.317 402.765 116.432 403.099 116.66C403.437 116.886 403.701 117.202 403.89 117.61H403.969C404.165 117.216 404.458 116.902 404.849 116.67C405.24 116.435 405.709 116.317 406.256 116.317C406.939 116.317 407.497 116.531 407.932 116.959C408.366 117.383 408.583 118.044 408.583 118.942V124.053H407.41V118.942C407.41 118.379 407.256 117.976 406.947 117.734C406.639 117.492 406.276 117.371 405.858 117.371C405.322 117.371 404.906 117.534 404.611 117.859C404.316 118.18 404.168 118.588 404.168 119.082V124.053H402.975V118.823C402.975 118.389 402.834 118.039 402.552 117.774C402.271 117.506 401.908 117.371 401.464 117.371C401.159 117.371 400.874 117.453 400.608 117.615C400.347 117.777 400.135 118.003 399.972 118.291C399.813 118.576 399.733 118.906 399.733 119.28V124.053H398.56ZM410.728 124.053V116.417H411.862V117.61H411.961C412.12 117.202 412.377 116.886 412.732 116.66C413.086 116.432 413.512 116.317 414.009 116.317C414.513 116.317 414.932 116.432 415.267 116.66C415.605 116.886 415.869 117.202 416.058 117.61H416.137C416.333 117.216 416.626 116.902 417.017 116.67C417.408 116.435 417.877 116.317 418.424 116.317C419.107 116.317 419.665 116.531 420.1 116.959C420.534 117.383 420.751 118.044 420.751 118.942V124.053H419.578V118.942C419.578 118.379 419.423 117.976 419.115 117.734C418.807 117.492 418.444 117.371 418.026 117.371C417.49 117.371 417.074 117.534 416.779 117.859C416.484 118.18 416.336 118.588 416.336 119.082V124.053H415.143V118.823C415.143 118.389 415.002 118.039 414.72 117.774C414.439 117.506 414.076 117.371 413.632 117.371C413.327 117.371 413.042 117.453 412.776 117.615C412.515 117.777 412.302 118.003 412.14 118.291C411.981 118.576 411.901 118.906 411.901 119.28V124.053H410.728ZM425.998 124.212C425.309 124.212 424.704 124.048 424.184 123.72C423.667 123.392 423.262 122.933 422.971 122.343C422.682 121.753 422.538 121.064 422.538 120.275C422.538 119.479 422.682 118.785 422.971 118.192C423.262 117.598 423.667 117.138 424.184 116.81C424.704 116.481 425.309 116.317 425.998 116.317C426.688 116.317 427.291 116.481 427.808 116.81C428.328 117.138 428.733 117.598 429.021 118.192C429.313 118.785 429.459 119.479 429.459 120.275C429.459 121.064 429.313 121.753 429.021 122.343C428.733 122.933 428.328 123.392 427.808 123.72C427.291 124.048 426.688 124.212 425.998 124.212ZM425.998 123.158C426.522 123.158 426.953 123.024 427.291 122.756C427.629 122.487 427.879 122.134 428.042 121.697C428.204 121.259 428.285 120.785 428.285 120.275C428.285 119.764 428.204 119.289 428.042 118.848C427.879 118.407 427.629 118.051 427.291 117.779C426.953 117.507 426.522 117.371 425.998 117.371C425.475 117.371 425.044 117.507 424.706 117.779C424.368 118.051 424.117 118.407 423.955 118.848C423.793 119.289 423.711 119.764 423.711 120.275C423.711 120.785 423.793 121.259 423.955 121.697C424.117 122.134 424.368 122.487 424.706 122.756C425.044 123.024 425.475 123.158 425.998 123.158ZM432.423 119.459V124.053H431.25V116.417H432.383V117.61H432.483C432.662 117.222 432.933 116.911 433.298 116.675C433.663 116.437 434.133 116.317 434.71 116.317C435.227 116.317 435.679 116.423 436.067 116.636C436.455 116.844 436.757 117.163 436.972 117.59C437.187 118.014 437.295 118.551 437.295 119.201V124.053H436.122V119.28C436.122 118.681 435.966 118.213 435.654 117.879C435.343 117.54 434.915 117.371 434.372 117.371C433.997 117.371 433.663 117.453 433.368 117.615C433.076 117.777 432.846 118.014 432.676 118.326C432.507 118.638 432.423 119.015 432.423 119.459ZM444.848 118.127L443.794 118.425C443.728 118.25 443.63 118.079 443.501 117.913C443.375 117.744 443.203 117.605 442.984 117.496C442.765 117.386 442.485 117.332 442.144 117.332C441.676 117.332 441.287 117.439 440.975 117.655C440.667 117.867 440.513 118.137 440.513 118.465C440.513 118.757 440.619 118.987 440.831 119.156C441.043 119.325 441.375 119.466 441.825 119.579L442.959 119.857C443.642 120.023 444.151 120.276 444.485 120.618C444.82 120.956 444.987 121.392 444.987 121.925C444.987 122.363 444.861 122.754 444.61 123.099C444.361 123.443 444.013 123.715 443.566 123.914C443.118 124.113 442.598 124.212 442.004 124.212C441.226 124.212 440.581 124.043 440.07 123.705C439.56 123.367 439.237 122.873 439.101 122.224L440.215 121.945C440.321 122.356 440.521 122.664 440.816 122.87C441.115 123.075 441.504 123.178 441.985 123.178C442.531 123.178 442.966 123.062 443.287 122.83C443.612 122.595 443.774 122.313 443.774 121.985C443.774 121.72 443.682 121.498 443.496 121.319C443.31 121.137 443.025 121.001 442.641 120.911L441.368 120.613C440.669 120.447 440.155 120.19 439.827 119.842C439.502 119.491 439.34 119.052 439.34 118.525C439.34 118.094 439.461 117.713 439.703 117.381C439.948 117.05 440.281 116.79 440.702 116.601C441.126 116.412 441.607 116.317 442.144 116.317C442.899 116.317 443.493 116.483 443.923 116.815C444.358 117.146 444.666 117.584 444.848 118.127ZM452.62 126.738C451.606 126.738 450.709 126.599 449.93 126.32C449.152 126.045 448.497 125.639 447.967 125.102C447.436 124.565 447.035 123.907 446.763 123.129C446.492 122.35 446.356 121.458 446.356 120.454C446.356 119.483 446.493 118.614 446.768 117.849C447.047 117.083 447.45 116.433 447.977 115.9C448.507 115.363 449.15 114.954 449.906 114.672C450.665 114.39 451.523 114.249 452.481 114.249C453.412 114.249 454.228 114.402 454.927 114.707C455.629 115.008 456.216 115.418 456.687 115.935C457.161 116.448 457.515 117.027 457.751 117.67C457.989 118.313 458.109 118.976 458.109 119.658C458.109 120.139 458.085 120.626 458.039 121.12C457.993 121.614 457.895 122.068 457.746 122.482C457.597 122.893 457.366 123.225 457.055 123.477C456.746 123.728 456.329 123.854 455.802 123.854C455.57 123.854 455.315 123.818 455.036 123.745C454.758 123.672 454.511 123.551 454.295 123.382C454.08 123.213 453.952 122.986 453.913 122.701H453.853C453.773 122.893 453.651 123.075 453.485 123.248C453.323 123.42 453.109 123.558 452.844 123.66C452.582 123.763 452.262 123.808 451.884 123.795C451.453 123.778 451.074 123.682 450.746 123.506C450.418 123.327 450.143 123.085 449.92 122.78C449.702 122.472 449.536 122.116 449.423 121.712C449.314 121.304 449.259 120.865 449.259 120.394C449.259 119.947 449.326 119.537 449.458 119.166C449.591 118.795 449.775 118.47 450.01 118.192C450.249 117.913 450.527 117.691 450.845 117.526C451.167 117.356 451.513 117.252 451.884 117.212C452.216 117.179 452.517 117.194 452.789 117.257C453.061 117.317 453.285 117.408 453.46 117.53C453.636 117.65 453.747 117.782 453.793 117.928H453.853V117.371H454.907V121.866C454.907 122.144 454.985 122.389 455.141 122.602C455.296 122.814 455.523 122.92 455.822 122.92C456.16 122.92 456.418 122.804 456.597 122.572C456.78 122.34 456.904 121.982 456.97 121.498C457.04 121.014 457.075 120.394 457.075 119.638C457.075 119.194 457.013 118.757 456.891 118.326C456.771 117.892 456.589 117.486 456.344 117.108C456.102 116.73 455.795 116.397 455.424 116.109C455.053 115.82 454.617 115.595 454.116 115.432C453.619 115.267 453.054 115.184 452.421 115.184C451.642 115.184 450.945 115.305 450.328 115.547C449.715 115.785 449.193 116.135 448.762 116.596C448.335 117.053 448.008 117.61 447.783 118.266C447.561 118.919 447.45 119.662 447.45 120.494C447.45 121.339 447.561 122.089 447.783 122.746C448.008 123.402 448.339 123.955 448.777 124.406C449.218 124.857 449.763 125.198 450.413 125.43C451.062 125.666 451.811 125.783 452.66 125.783C453.024 125.783 453.384 125.749 453.739 125.679C454.093 125.609 454.406 125.533 454.678 125.45C454.95 125.367 455.146 125.306 455.265 125.266L455.543 126.181C455.338 126.267 455.069 126.353 454.738 126.44C454.41 126.526 454.058 126.597 453.684 126.653C453.313 126.71 452.958 126.738 452.62 126.738ZM452.043 122.78C452.487 122.78 452.847 122.691 453.122 122.512C453.397 122.333 453.598 122.063 453.724 121.702C453.85 121.34 453.913 120.885 453.913 120.334C453.913 119.778 453.843 119.343 453.704 119.032C453.565 118.72 453.359 118.502 453.087 118.376C452.816 118.25 452.481 118.187 452.083 118.187C451.705 118.187 451.382 118.286 451.114 118.485C450.848 118.681 450.645 118.942 450.502 119.271C450.363 119.595 450.293 119.95 450.293 120.334C450.293 120.759 450.35 121.158 450.462 121.533C450.575 121.904 450.759 122.205 451.014 122.437C451.269 122.666 451.612 122.78 452.043 122.78ZM462.947 127.076C462.381 127.076 461.893 127.003 461.486 126.857C461.078 126.715 460.738 126.526 460.466 126.29C460.198 126.058 459.984 125.81 459.825 125.545L460.76 124.888C460.866 125.028 461 125.187 461.162 125.366C461.325 125.548 461.547 125.705 461.829 125.838C462.114 125.974 462.487 126.042 462.947 126.042C463.564 126.042 464.073 125.893 464.474 125.594C464.875 125.296 465.075 124.829 465.075 124.192V122.641H464.976C464.89 122.78 464.767 122.953 464.608 123.158C464.452 123.361 464.227 123.541 463.932 123.7C463.64 123.856 463.246 123.934 462.748 123.934C462.132 123.934 461.578 123.788 461.088 123.496C460.601 123.205 460.215 122.78 459.93 122.224C459.648 121.667 459.507 120.991 459.507 120.195C459.507 119.413 459.644 118.732 459.92 118.152C460.195 117.569 460.577 117.118 461.068 116.8C461.559 116.478 462.125 116.317 462.768 116.317C463.265 116.317 463.66 116.4 463.952 116.566C464.247 116.728 464.472 116.914 464.628 117.123C464.787 117.328 464.909 117.497 464.996 117.63H465.115V116.417H466.248V124.272C466.248 124.928 466.099 125.462 465.801 125.873C465.506 126.287 465.108 126.59 464.608 126.783C464.111 126.978 463.557 127.076 462.947 127.076ZM462.907 122.88C463.378 122.88 463.776 122.772 464.101 122.557C464.425 122.341 464.672 122.031 464.841 121.627C465.01 121.223 465.095 120.739 465.095 120.175C465.095 119.625 465.012 119.14 464.846 118.719C464.681 118.298 464.435 117.968 464.111 117.729C463.786 117.491 463.385 117.371 462.907 117.371C462.41 117.371 461.996 117.497 461.665 117.749C461.336 118.001 461.09 118.339 460.924 118.763C460.761 119.188 460.68 119.658 460.68 120.175C460.68 120.706 460.763 121.175 460.929 121.582C461.098 121.987 461.346 122.305 461.675 122.537C462.006 122.766 462.417 122.88 462.907 122.88ZM468.396 124.053V116.417H469.53V117.61H469.629C469.788 117.202 470.045 116.886 470.4 116.66C470.754 116.432 471.18 116.317 471.677 116.317C472.181 116.317 472.6 116.432 472.935 116.66C473.273 116.886 473.537 117.202 473.726 117.61H473.805C474.001 117.216 474.294 116.902 474.685 116.67C475.076 116.435 475.545 116.317 476.092 116.317C476.775 116.317 477.333 116.531 477.768 116.959C478.202 117.383 478.419 118.044 478.419 118.942V124.053H477.246V118.942C477.246 118.379 477.091 117.976 476.783 117.734C476.475 117.492 476.112 117.371 475.694 117.371C475.157 117.371 474.742 117.534 474.447 117.859C474.152 118.18 474.004 118.588 474.004 119.082V124.053H472.811V118.823C472.811 118.389 472.67 118.039 472.388 117.774C472.107 117.506 471.744 117.371 471.3 117.371C470.995 117.371 470.71 117.453 470.444 117.615C470.183 117.777 469.97 118.003 469.808 118.291C469.649 118.576 469.569 118.906 469.569 119.28V124.053H468.396ZM482.811 124.232C482.327 124.232 481.888 124.141 481.494 123.959C481.099 123.773 480.786 123.506 480.554 123.158C480.322 122.807 480.206 122.383 480.206 121.886C480.206 121.448 480.292 121.093 480.465 120.822C480.637 120.547 480.867 120.331 481.156 120.175C481.444 120.02 481.762 119.904 482.11 119.827C482.462 119.748 482.815 119.685 483.169 119.638C483.633 119.579 484.009 119.534 484.298 119.504C484.589 119.471 484.802 119.416 484.934 119.34C485.07 119.264 485.138 119.131 485.138 118.942V118.903C485.138 118.412 485.004 118.031 484.735 117.759C484.47 117.487 484.067 117.352 483.527 117.352C482.967 117.352 482.528 117.474 482.21 117.719C481.892 117.965 481.668 118.227 481.539 118.505L480.425 118.107C480.624 117.643 480.889 117.282 481.22 117.023C481.555 116.762 481.92 116.579 482.314 116.477C482.712 116.37 483.103 116.317 483.487 116.317C483.733 116.317 484.014 116.347 484.333 116.407C484.654 116.463 484.964 116.581 485.262 116.76C485.564 116.939 485.814 117.209 486.013 117.57C486.212 117.932 486.311 118.415 486.311 119.022V124.053H485.138V123.019H485.078C484.999 123.185 484.866 123.362 484.681 123.551C484.495 123.74 484.248 123.901 483.94 124.033C483.632 124.166 483.255 124.232 482.811 124.232ZM482.99 123.178C483.454 123.178 483.845 123.087 484.164 122.905C484.485 122.722 484.727 122.487 484.889 122.199C485.055 121.91 485.138 121.607 485.138 121.289V120.215C485.088 120.275 484.979 120.33 484.81 120.379C484.644 120.426 484.452 120.467 484.233 120.504C484.018 120.537 483.807 120.566 483.602 120.593C483.4 120.616 483.235 120.636 483.11 120.653C482.805 120.692 482.52 120.757 482.254 120.847C481.993 120.933 481.78 121.064 481.618 121.239C481.459 121.412 481.379 121.647 481.379 121.945C481.379 122.353 481.53 122.661 481.832 122.87C482.137 123.075 482.523 123.178 482.99 123.178ZM488.453 124.053V116.417H489.626V124.053H488.453ZM489.049 115.144C488.821 115.144 488.623 115.066 488.458 114.91C488.295 114.755 488.214 114.567 488.214 114.349C488.214 114.13 488.295 113.943 488.458 113.787C488.623 113.631 488.821 113.553 489.049 113.553C489.278 113.553 489.474 113.631 489.636 113.787C489.802 113.943 489.885 114.13 489.885 114.349C489.885 114.567 489.802 114.755 489.636 114.91C489.474 115.066 489.278 115.144 489.049 115.144ZM492.948 113.871V124.053H491.775V113.871H492.948ZM495.952 124.133C495.707 124.133 495.497 124.045 495.321 123.869C495.145 123.694 495.058 123.483 495.058 123.238C495.058 122.993 495.145 122.782 495.321 122.606C495.497 122.431 495.707 122.343 495.952 122.343C496.198 122.343 496.408 122.431 496.584 122.606C496.759 122.782 496.847 122.993 496.847 123.238C496.847 123.4 496.806 123.549 496.723 123.685C496.643 123.821 496.536 123.931 496.4 124.013C496.267 124.093 496.118 124.133 495.952 124.133ZM502.055 124.212C501.339 124.212 500.723 124.043 500.206 123.705C499.689 123.367 499.291 122.901 499.012 122.308C498.734 121.715 498.595 121.037 498.595 120.275C498.595 119.499 498.737 118.815 499.022 118.222C499.311 117.625 499.712 117.159 500.225 116.825C500.743 116.486 501.346 116.317 502.035 116.317C502.572 116.317 503.056 116.417 503.487 116.616C503.918 116.815 504.271 117.093 504.546 117.451C504.821 117.809 504.992 118.227 505.058 118.704H503.885C503.795 118.356 503.596 118.048 503.288 117.779C502.983 117.507 502.572 117.371 502.055 117.371C501.598 117.371 501.197 117.491 500.852 117.729C500.511 117.965 500.244 118.298 500.051 118.729C499.863 119.156 499.768 119.658 499.768 120.235C499.768 120.825 499.861 121.339 500.047 121.776C500.235 122.214 500.501 122.553 500.842 122.795C501.187 123.037 501.591 123.158 502.055 123.158C502.36 123.158 502.637 123.105 502.885 122.999C503.134 122.893 503.344 122.741 503.517 122.542C503.689 122.343 503.812 122.104 503.885 121.826H505.058C504.992 122.277 504.828 122.683 504.566 123.044C504.307 123.402 503.964 123.687 503.537 123.899C503.112 124.108 502.618 124.212 502.055 124.212ZM509.875 124.212C509.186 124.212 508.581 124.048 508.061 123.72C507.544 123.392 507.139 122.933 506.848 122.343C506.559 121.753 506.415 121.064 506.415 120.275C506.415 119.479 506.559 118.785 506.848 118.192C507.139 117.598 507.544 117.138 508.061 116.81C508.581 116.481 509.186 116.317 509.875 116.317C510.565 116.317 511.168 116.481 511.685 116.81C512.205 117.138 512.61 117.598 512.898 118.192C513.19 118.785 513.336 119.479 513.336 120.275C513.336 121.064 513.19 121.753 512.898 122.343C512.61 122.933 512.205 123.392 511.685 123.72C511.168 124.048 510.565 124.212 509.875 124.212ZM509.875 123.158C510.399 123.158 510.83 123.024 511.168 122.756C511.506 122.487 511.756 122.134 511.919 121.697C512.081 121.259 512.162 120.785 512.162 120.275C512.162 119.764 512.081 119.289 511.919 118.848C511.756 118.407 511.506 118.051 511.168 117.779C510.83 117.507 510.399 117.371 509.875 117.371C509.352 117.371 508.921 117.507 508.583 117.779C508.245 118.051 507.994 118.407 507.832 118.848C507.67 119.289 507.588 119.764 507.588 120.275C507.588 120.785 507.67 121.259 507.832 121.697C507.994 122.134 508.245 122.487 508.583 122.756C508.921 123.024 509.352 123.158 509.875 123.158ZM515.127 124.053V116.417H516.26V117.61H516.36C516.519 117.202 516.776 116.886 517.13 116.66C517.485 116.432 517.911 116.317 518.408 116.317C518.912 116.317 519.331 116.432 519.666 116.66C520.004 116.886 520.267 117.202 520.456 117.61H520.536C520.731 117.216 521.025 116.902 521.416 116.67C521.807 116.435 522.276 116.317 522.823 116.317C523.505 116.317 524.064 116.531 524.498 116.959C524.932 117.383 525.149 118.044 525.149 118.942V124.053H523.976V118.942C523.976 118.379 523.822 117.976 523.514 117.734C523.205 117.492 522.843 117.371 522.425 117.371C521.888 117.371 521.472 117.534 521.177 117.859C520.882 118.18 520.735 118.588 520.735 119.082V124.053H519.541V118.823C519.541 118.389 519.401 118.039 519.119 117.774C518.837 117.506 518.474 117.371 518.03 117.371C517.725 117.371 517.44 117.453 517.175 117.615C516.913 117.777 516.701 118.003 516.539 118.291C516.379 118.576 516.3 118.906 516.3 119.28V124.053H515.127Z" fill="#616B7C"/>
<rect width="288" height="79.1011" transform="translate(313 159.002)" fill="white"/>
<rect x="24.5" y="24.5024" width="1161" height="455" rx="16.5" stroke="#F2F2F8"/>
</g>
</g>
<rect x="0.5" y="0.502441" width="548" height="171" rx="16.5" stroke="#F2F2F8"/>
<defs>
<clipPath id="clip0_73_45060">
<rect x="1" y="1.00244" width="547" height="170" rx="16" fill="white"/>
</clipPath>
<clipPath id="clip1_73_45060">
<rect width="1725" height="1037" fill="white" transform="translate(-359 -384.998)"/>
</clipPath>
<clipPath id="clip2_73_45060">
<rect x="57" y="102.553" width="32" height="32" rx="16" fill="white"/>
</clipPath>
</defs>
</svg>
