<svg width="549" height="172" viewBox="0 0 549 172" fill="none" xmlns="http://www.w3.org/2000/svg">
<g clip-path="url(#clip0_74_46630)">
<rect x="1" y="1.00024" width="567" height="393" rx="16" fill="#FCFCFF"/>
<g clip-path="url(#clip1_74_46630)">
<rect width="1725" height="1111" transform="translate(-1069 -270)" fill="#FCFCFF"/>
<rect x="355.5" y="27.5005" width="119" height="39" rx="3.5" fill="#DA1A5B"/>
<path fill-rule="evenodd" clip-rule="evenodd" d="M375 42.0005C375.552 42.0005 376 42.4482 376 43.0005V46.0005L379 46.0005C379.552 46.0005 380 46.4482 380 47.0005C380 47.5528 379.552 48.0005 379 48.0005H376V51.0005C376 51.5528 375.552 52.0005 375 52.0005C374.448 52.0005 374 51.5528 374 51.0005V48.0005H371C370.448 48.0005 370 47.5528 370 47.0005C370 46.4482 370.448 46.0005 371 46.0005L374 46.0005V43.0005C374 42.4482 374.448 42.0005 375 42.0005Z" fill="#FCFCFF"/>
<path d="M398.719 45.754H396.86C396.807 45.4491 396.709 45.179 396.567 44.9437C396.424 44.705 396.247 44.5029 396.035 44.3371C395.823 44.1714 395.581 44.0471 395.309 43.9643C395.04 43.8781 394.75 43.835 394.439 43.835C393.885 43.835 393.395 43.9742 392.967 44.2526C392.54 44.5277 392.205 44.9321 391.963 45.4657C391.721 45.996 391.6 46.644 391.6 47.4096C391.6 48.1885 391.721 48.8447 391.963 49.3783C392.208 49.9086 392.543 50.3097 392.967 50.5815C393.395 50.8499 393.884 50.9842 394.434 50.9842C394.739 50.9842 395.024 50.9444 395.289 50.8648C395.558 50.782 395.798 50.661 396.01 50.5019C396.225 50.3428 396.406 50.1473 396.552 49.9153C396.701 49.6833 396.804 49.4181 396.86 49.1198L398.719 49.1297C398.65 49.6137 398.499 50.0677 398.267 50.492C398.038 50.9162 397.738 51.2907 397.367 51.6155C396.996 51.937 396.562 52.1889 396.065 52.3712C395.567 52.5502 395.016 52.6397 394.409 52.6397C393.514 52.6397 392.715 52.4325 392.013 52.0182C391.31 51.6039 390.757 51.0057 390.352 50.2235C389.948 49.4413 389.746 48.5033 389.746 47.4096C389.746 46.3125 389.95 45.3745 390.357 44.5957C390.765 43.8135 391.32 43.2152 392.023 42.8009C392.725 42.3866 393.521 42.1795 394.409 42.1795C394.976 42.1795 395.503 42.259 395.99 42.4181C396.477 42.5772 396.911 42.8109 397.293 43.1191C397.674 43.424 397.987 43.7985 398.232 44.2427C398.481 44.6835 398.643 45.1873 398.719 45.754ZM400.329 52.5005V44.8641H402.074V46.1369H402.154C402.293 45.696 402.531 45.3563 402.869 45.1177C403.211 44.8757 403.6 44.7547 404.038 44.7547C404.137 44.7547 404.248 44.7597 404.371 44.7697C404.497 44.7763 404.601 44.7879 404.684 44.8045V46.46C404.608 46.4335 404.487 46.4103 404.321 46.3904C404.159 46.3672 404.001 46.3556 403.849 46.3556C403.521 46.3556 403.226 46.4269 402.964 46.5694C402.705 46.7086 402.502 46.9025 402.352 47.1511C402.203 47.3996 402.129 47.6863 402.129 48.0111V52.5005H400.329ZM408.946 52.6496C408.18 52.6496 407.519 52.4905 406.962 52.1724C406.409 51.8509 405.983 51.3968 405.685 50.8101C405.386 50.2202 405.237 49.5258 405.237 48.7271C405.237 47.9415 405.386 47.2521 405.685 46.6589C405.986 46.0623 406.407 45.5983 406.947 45.2668C407.488 44.9321 408.122 44.7647 408.852 44.7647C409.322 44.7647 409.766 44.8409 410.184 44.9934C410.605 45.1425 410.976 45.3745 411.298 45.6894C411.622 46.0043 411.878 46.4053 412.063 46.8925C412.249 47.3764 412.342 47.9531 412.342 48.6226V49.1745H406.082V47.9614H410.616C410.613 47.6167 410.539 47.3101 410.393 47.0417C410.247 46.7699 410.043 46.5561 409.781 46.4003C409.523 46.2446 409.221 46.1667 408.876 46.1667C408.509 46.1667 408.185 46.2562 407.907 46.4351C407.629 46.6108 407.411 46.8428 407.256 47.1312C407.103 47.4162 407.025 47.7294 407.022 48.0708V49.1297C407.022 49.5739 407.103 49.955 407.266 50.2732C407.428 50.5881 407.655 50.83 407.947 50.9991C408.238 51.1648 408.58 51.2476 408.971 51.2476C409.233 51.2476 409.47 51.2112 409.682 51.1383C409.894 51.062 410.078 50.951 410.234 50.8052C410.389 50.6593 410.507 50.4787 410.587 50.2633L412.267 50.4522C412.161 50.8963 411.959 51.2841 411.661 51.6155C411.366 51.9437 410.988 52.1989 410.527 52.3812C410.066 52.5601 409.539 52.6496 408.946 52.6496ZM416.062 52.6546C415.578 52.6546 415.142 52.5684 414.754 52.3961C414.37 52.2204 414.065 51.9619 413.839 51.6205C413.617 51.2791 413.506 50.8582 413.506 50.3577C413.506 49.9269 413.586 49.5706 413.745 49.2888C413.904 49.0071 414.121 48.7817 414.396 48.6127C414.671 48.4437 414.981 48.3161 415.326 48.2299C415.674 48.1404 416.033 48.0758 416.405 48.036C416.852 47.9896 417.215 47.9482 417.493 47.9117C417.772 47.8719 417.974 47.8123 418.1 47.7327C418.229 47.6499 418.294 47.5223 418.294 47.3499V47.3201C418.294 46.9456 418.183 46.6556 417.961 46.4501C417.739 46.2446 417.419 46.1418 417.001 46.1418C416.56 46.1418 416.211 46.2379 415.952 46.4302C415.697 46.6224 415.525 46.8494 415.435 47.1113L413.755 46.8726C413.887 46.4086 414.106 46.0208 414.411 45.7093C414.716 45.3944 415.089 45.1591 415.53 45.0033C415.97 44.8442 416.458 44.7647 416.991 44.7647C417.359 44.7647 417.725 44.8078 418.09 44.894C418.455 44.9801 418.788 45.1226 419.089 45.3215C419.391 45.5171 419.633 45.7839 419.815 46.1219C420.001 46.46 420.094 46.8826 420.094 47.3897V52.5005H418.363V51.4515H418.304C418.194 51.6636 418.04 51.8625 417.841 52.0481C417.646 52.2304 417.399 52.3779 417.101 52.4905C416.806 52.5999 416.459 52.6546 416.062 52.6546ZM416.529 51.3322C416.89 51.3322 417.203 51.2609 417.469 51.1184C417.734 50.9726 417.938 50.7803 418.08 50.5417C418.226 50.303 418.299 50.0429 418.299 49.7611V48.8613C418.242 48.9077 418.146 48.9508 418.01 48.9905C417.878 49.0303 417.729 49.0651 417.563 49.0949C417.397 49.1248 417.233 49.1513 417.071 49.1745C416.908 49.1977 416.768 49.2176 416.648 49.2342C416.38 49.2706 416.14 49.3303 415.927 49.4131C415.715 49.496 415.548 49.612 415.425 49.7611C415.303 49.907 415.241 50.0959 415.241 50.3279C415.241 50.6593 415.362 50.9096 415.604 51.0786C415.846 51.2476 416.154 51.3322 416.529 51.3322ZM425.716 44.8641V46.2562H421.327V44.8641H425.716ZM422.41 43.0346H424.21V50.2036C424.21 50.4456 424.247 50.6312 424.319 50.7604C424.396 50.8864 424.495 50.9726 424.618 51.019C424.74 51.0654 424.876 51.0886 425.025 51.0886C425.138 51.0886 425.241 51.0803 425.334 51.0637C425.43 51.0471 425.503 51.0322 425.552 51.019L425.856 52.4259C425.76 52.4591 425.622 52.4955 425.443 52.5353C425.267 52.5751 425.052 52.5983 424.797 52.6049C424.346 52.6181 423.94 52.5502 423.579 52.4011C423.217 52.2486 422.931 52.0133 422.719 51.6951C422.51 51.3769 422.407 50.9792 422.41 50.5019V43.0346ZM430.52 52.6496C429.755 52.6496 429.093 52.4905 428.537 52.1724C427.983 51.8509 427.557 51.3968 427.259 50.8101C426.961 50.2202 426.811 49.5258 426.811 48.7271C426.811 47.9415 426.961 47.2521 427.259 46.6589C427.56 46.0623 427.981 45.5983 428.522 45.2668C429.062 44.9321 429.697 44.7647 430.426 44.7647C430.896 44.7647 431.341 44.8409 431.758 44.9934C432.179 45.1425 432.55 45.3745 432.872 45.6894C433.197 46.0043 433.452 46.4053 433.637 46.8925C433.823 47.3764 433.916 47.9531 433.916 48.6226V49.1745H427.657V47.9614H432.191C432.187 47.6167 432.113 47.3101 431.967 47.0417C431.821 46.7699 431.617 46.5561 431.355 46.4003C431.097 46.2446 430.795 46.1667 430.451 46.1667C430.083 46.1667 429.76 46.2562 429.481 46.4351C429.203 46.6108 428.986 46.8428 428.83 47.1312C428.677 47.4162 428.6 47.7294 428.596 48.0708V49.1297C428.596 49.5739 428.677 49.955 428.84 50.2732C429.002 50.5881 429.229 50.83 429.521 50.9991C429.813 51.1648 430.154 51.2476 430.545 51.2476C430.807 51.2476 431.044 51.2112 431.256 51.1383C431.468 51.062 431.652 50.951 431.808 50.8052C431.964 50.6593 432.081 50.4787 432.161 50.2633L433.841 50.4522C433.735 50.8963 433.533 51.2841 433.235 51.6155C432.94 51.9437 432.562 52.1989 432.101 52.3812C431.641 52.5601 431.114 52.6496 430.52 52.6496ZM442.779 44.8641V46.2562H438.265V44.8641H442.779ZM439.393 52.5005V44.1432C439.393 43.6295 439.499 43.202 439.711 42.8606C439.927 42.5192 440.215 42.264 440.577 42.0949C440.938 41.9259 441.339 41.8414 441.78 41.8414C442.091 41.8414 442.368 41.8663 442.61 41.916C442.852 41.9657 443.031 42.0104 443.147 42.0502L442.789 43.4422C442.713 43.419 442.617 43.3958 442.501 43.3726C442.385 43.3461 442.255 43.3329 442.113 43.3329C441.778 43.3329 441.541 43.4141 441.402 43.5765C441.266 43.7356 441.198 43.9643 441.198 44.2626V52.5005H439.393ZM444.188 52.5005V44.8641H445.988V52.5005H444.188ZM445.093 43.7803C444.808 43.7803 444.563 43.6859 444.357 43.4969C444.152 43.3047 444.049 43.0744 444.049 42.8059C444.049 42.5341 444.152 42.3038 444.357 42.1148C444.563 41.9226 444.808 41.8265 445.093 41.8265C445.382 41.8265 445.627 41.9226 445.829 42.1148C446.035 42.3038 446.137 42.5341 446.137 42.8059C446.137 43.0744 446.035 43.3047 445.829 43.4969C445.627 43.6859 445.382 43.7803 445.093 43.7803ZM449.638 42.3187V52.5005H447.839V42.3187H449.638ZM454.87 52.6496C454.104 52.6496 453.443 52.4905 452.886 52.1724C452.333 51.8509 451.907 51.3968 451.608 50.8101C451.31 50.2202 451.161 49.5258 451.161 48.7271C451.161 47.9415 451.31 47.2521 451.608 46.6589C451.91 46.0623 452.331 45.5983 452.871 45.2668C453.412 44.9321 454.046 44.7647 454.775 44.7647C455.246 44.7647 455.69 44.8409 456.108 44.9934C456.529 45.1425 456.9 45.3745 457.221 45.6894C457.546 46.0043 457.801 46.4053 457.987 46.8925C458.173 47.3764 458.265 47.9531 458.265 48.6226V49.1745H452.006V47.9614H456.54C456.537 47.6167 456.462 47.3101 456.317 47.0417C456.171 46.7699 455.967 46.5561 455.705 46.4003C455.447 46.2446 455.145 46.1667 454.8 46.1667C454.432 46.1667 454.109 46.2562 453.831 46.4351C453.552 46.6108 453.335 46.8428 453.18 47.1312C453.027 47.4162 452.949 47.7294 452.946 48.0708V49.1297C452.946 49.5739 453.027 49.955 453.189 50.2732C453.352 50.5881 453.579 50.83 453.871 50.9991C454.162 51.1648 454.504 51.2476 454.895 51.2476C455.157 51.2476 455.394 51.2112 455.606 51.1383C455.818 51.062 456.002 50.951 456.157 50.8052C456.313 50.6593 456.431 50.4787 456.51 50.2633L458.191 50.4522C458.085 50.8963 457.883 51.2841 457.584 51.6155C457.289 51.9437 456.912 52.1989 456.451 52.3812C455.99 52.5601 455.463 52.6496 454.87 52.6496Z" fill="white"/>
<rect x="355.5" y="27.5005" width="119" height="39" rx="3.5" stroke="#C00D53"/>
<g filter="url(#filter0_d_74_46630)">
<rect x="-112.667" y="152.131" width="253.333" height="1" fill="#F2F2F8"/>
<path d="M-112.667 99.0005H140.667V152.261H-112.667V99.0005Z" fill="white"/>
<rect width="253.333" height="79.1011" transform="translate(-112.667 153)" fill="white"/>
<rect x="140.667" y="152.131" width="253.333" height="1" fill="#F2F2F8"/>
<path d="M140.667 99.0005H394V152.261H140.667V99.0005Z" fill="white"/>
<path d="M180.874 123.741H179.544C179.493 123.457 179.398 123.207 179.259 122.991C179.12 122.776 178.949 122.592 178.748 122.442C178.546 122.291 178.32 122.177 178.07 122.101C177.823 122.024 177.56 121.986 177.282 121.986C176.779 121.986 176.329 122.112 175.931 122.365C175.536 122.618 175.223 122.989 174.993 123.477C174.766 123.966 174.652 124.562 174.652 125.267C174.652 125.977 174.766 126.577 174.993 127.065C175.223 127.554 175.537 127.923 175.935 128.173C176.333 128.423 176.78 128.548 177.277 128.548C177.553 128.548 177.814 128.511 178.062 128.437C178.312 128.361 178.537 128.249 178.739 128.101C178.941 127.953 179.111 127.773 179.25 127.56C179.392 127.344 179.49 127.097 179.544 126.818L180.874 126.822C180.803 127.251 180.665 127.646 180.461 128.007C180.259 128.365 179.999 128.675 179.681 128.936C179.365 129.195 179.005 129.395 178.598 129.537C178.192 129.679 177.749 129.75 177.269 129.75C176.513 129.75 175.84 129.571 175.249 129.213C174.658 128.852 174.192 128.337 173.851 127.666C173.513 126.996 173.344 126.196 173.344 125.267C173.344 124.335 173.515 123.535 173.856 122.868C174.196 122.197 174.662 121.683 175.253 121.325C175.844 120.964 176.516 120.784 177.269 120.784C177.732 120.784 178.164 120.851 178.564 120.984C178.968 121.115 179.33 121.308 179.651 121.564C179.972 121.817 180.238 122.126 180.448 122.493C180.658 122.856 180.8 123.273 180.874 123.741ZM183.89 129.631V120.903H187C187.677 120.903 188.238 121.02 188.684 121.253C189.133 121.486 189.468 121.808 189.689 122.22C189.911 122.629 190.022 123.102 190.022 123.639C190.022 124.173 189.91 124.643 189.685 125.05C189.464 125.453 189.128 125.767 188.679 125.991C188.233 126.216 187.672 126.328 186.996 126.328H184.64V125.195H186.877C187.303 125.195 187.65 125.133 187.917 125.011C188.187 124.889 188.384 124.712 188.509 124.479C188.634 124.246 188.696 123.966 188.696 123.639C188.696 123.31 188.633 123.024 188.505 122.783C188.38 122.541 188.182 122.356 187.912 122.229C187.645 122.098 187.294 122.033 186.86 122.033H185.206V129.631H183.89ZM188.198 125.693L190.354 129.631H188.854L186.741 125.693H188.198ZM193.064 129.631V120.903H198.536V122.037H194.381V124.696H198.25V125.825H194.381V128.497H198.587V129.631H193.064ZM202.472 129.631H201.074L204.215 120.903H205.736L208.877 129.631H207.479L205.011 122.489H204.943L202.472 129.631ZM202.706 126.213H207.24V127.321H202.706V126.213ZM210.115 122.037V120.903H216.869V122.037H214.146V129.631H212.834V122.037H210.115ZM219.802 129.631V120.903H225.274V122.037H221.119V124.696H224.988V125.825H221.119V128.497H225.325V129.631H219.802ZM231.298 129.631H228.472V120.903H231.387C232.242 120.903 232.977 121.078 233.59 121.427C234.204 121.774 234.674 122.273 235.001 122.923C235.33 123.571 235.495 124.348 235.495 125.254C235.495 126.163 235.329 126.945 234.997 127.598C234.667 128.251 234.19 128.754 233.565 129.106C232.94 129.456 232.184 129.631 231.298 129.631ZM229.789 128.48H231.225C231.89 128.48 232.443 128.355 232.883 128.105C233.323 127.852 233.653 127.487 233.872 127.01C234.09 126.53 234.2 125.945 234.2 125.254C234.2 124.57 234.09 123.989 233.872 123.511C233.656 123.034 233.333 122.672 232.904 122.425C232.475 122.177 231.943 122.054 231.306 122.054H229.789V128.48Z" fill="#616B7C"/>
<rect width="253.333" height="79.1011" transform="translate(140.667 153)" fill="white"/>
<rect x="394" y="152.131" width="80" height="1" fill="#F2F2F8"/>
<path d="M394 99.0005H458C466.837 99.0005 474 106.164 474 115V152.261H394V99.0005Z" fill="white"/>
<rect width="80" height="79.1011" transform="translate(394 153)" fill="white"/>
<rect x="-686.5" y="98.5005" width="1161" height="455" rx="16.5" stroke="#F2F2F8"/>
</g>
</g>
</g>
<rect x="0.5" y="0.500488" width="548" height="171" rx="16.5" stroke="#F2F2F8"/>
<defs>
<filter id="filter0_d_74_46630" x="-719" y="82.0005" width="1226" height="520" filterUnits="userSpaceOnUse" color-interpolation-filters="sRGB">
<feFlood flood-opacity="0" result="BackgroundImageFix"/>
<feColorMatrix in="SourceAlpha" type="matrix" values="0 0 0 0 0 0 0 0 0 0 0 0 0 0 0 0 0 0 127 0" result="hardAlpha"/>
<feOffset dy="16"/>
<feGaussianBlur stdDeviation="16"/>
<feColorMatrix type="matrix" values="0 0 0 0 0.215686 0 0 0 0 0.231373 0 0 0 0 0.301961 0 0 0 0.02 0"/>
<feBlend mode="normal" in2="BackgroundImageFix" result="effect1_dropShadow_74_46630"/>
<feBlend mode="normal" in="SourceGraphic" in2="effect1_dropShadow_74_46630" result="shape"/>
</filter>
<clipPath id="clip0_74_46630">
<rect x="1" y="1.00049" width="547" height="170" rx="16" fill="white"/>
</clipPath>
<clipPath id="clip1_74_46630">
<rect width="1725" height="1111" fill="white" transform="translate(-1069 -270)"/>
</clipPath>
</defs>
</svg>