<svg width="554" height="395" viewBox="0 0 554 395" fill="none" xmlns="http://www.w3.org/2000/svg">
<g clip-path="url(#clip0_245_56294)">
<rect x="1" y="1" width="552" height="393" rx="16" fill="#FCFCFF"/>
<rect x="42.5" y="60.5" width="606" height="429" rx="16.5" fill="white"/>
<rect width="605" height="260" transform="translate(43 93)" fill="white"/>
<path d="M75.888 110.624C75.888 108.992 76.264 107.528 77.016 106.232C77.784 104.936 78.816 103.928 80.112 103.208C81.424 102.472 82.856 102.104 84.408 102.104C86.184 102.104 87.76 102.544 89.136 103.424C90.528 104.288 91.536 105.52 92.16 107.12H88.872C88.44 106.24 87.84 105.584 87.072 105.152C86.304 104.72 85.416 104.504 84.408 104.504C83.304 104.504 82.32 104.752 81.456 105.248C80.592 105.744 79.912 106.456 79.416 107.384C78.936 108.312 78.696 109.392 78.696 110.624C78.696 111.856 78.936 112.936 79.416 113.864C79.912 114.792 80.592 115.512 81.456 116.024C82.32 116.52 83.304 116.768 84.408 116.768C85.416 116.768 86.304 116.552 87.072 116.12C87.84 115.688 88.44 115.032 88.872 114.152H92.16C91.536 115.752 90.528 116.984 89.136 117.848C87.76 118.712 86.184 119.144 84.408 119.144C82.84 119.144 81.408 118.784 80.112 118.064C78.816 117.328 77.784 116.312 77.016 115.016C76.264 113.72 75.888 112.256 75.888 110.624ZM98.0985 107.696C98.4985 107.024 99.0265 106.504 99.6825 106.136C100.355 105.752 101.147 105.56 102.059 105.56V108.392H101.363C100.291 108.392 99.4745 108.664 98.9145 109.208C98.3705 109.752 98.0985 110.696 98.0985 112.04V119H95.3625V105.776H98.0985V107.696ZM116.693 112.064C116.693 112.56 116.661 113.008 116.597 113.408H106.493C106.573 114.464 106.965 115.312 107.669 115.952C108.373 116.592 109.237 116.912 110.261 116.912C111.733 116.912 112.773 116.296 113.381 115.064H116.333C115.933 116.28 115.205 117.28 114.149 118.064C113.109 118.832 111.813 119.216 110.261 119.216C108.997 119.216 107.861 118.936 106.853 118.376C105.861 117.8 105.077 117 104.501 115.976C103.941 114.936 103.661 113.736 103.661 112.376C103.661 111.016 103.933 109.824 104.477 108.8C105.037 107.76 105.813 106.96 106.805 106.4C107.813 105.84 108.965 105.56 110.261 105.56C111.509 105.56 112.621 105.832 113.597 106.376C114.573 106.92 115.333 107.688 115.877 108.68C116.421 109.656 116.693 110.784 116.693 112.064ZM113.837 111.2C113.821 110.192 113.461 109.384 112.757 108.776C112.053 108.168 111.181 107.864 110.141 107.864C109.197 107.864 108.389 108.168 107.717 108.776C107.045 109.368 106.645 110.176 106.517 111.2H113.837ZM118.474 112.328C118.474 111 118.746 109.824 119.29 108.8C119.85 107.776 120.602 106.984 121.546 106.424C122.506 105.848 123.562 105.56 124.714 105.56C125.754 105.56 126.658 105.768 127.426 106.184C128.21 106.584 128.834 107.088 129.298 107.696V105.776H132.058V119H129.298V117.032C128.834 117.656 128.202 118.176 127.402 118.592C126.602 119.008 125.69 119.216 124.666 119.216C123.53 119.216 122.49 118.928 121.546 118.352C120.602 117.76 119.85 116.944 119.29 115.904C118.746 114.848 118.474 113.656 118.474 112.328ZM129.298 112.376C129.298 111.464 129.106 110.672 128.722 110C128.354 109.328 127.866 108.816 127.258 108.464C126.65 108.112 125.994 107.936 125.29 107.936C124.586 107.936 123.93 108.112 123.322 108.464C122.714 108.8 122.218 109.304 121.834 109.976C121.466 110.632 121.282 111.416 121.282 112.328C121.282 113.24 121.466 114.04 121.834 114.728C122.218 115.416 122.714 115.944 123.322 116.312C123.946 116.664 124.602 116.84 125.29 116.84C125.994 116.84 126.65 116.664 127.258 116.312C127.866 115.96 128.354 115.448 128.722 114.776C129.106 114.088 129.298 113.288 129.298 112.376ZM138.844 108.008V115.328C138.844 115.824 138.956 116.184 139.18 116.408C139.42 116.616 139.82 116.72 140.38 116.72H142.06V119H139.9C138.668 119 137.724 118.712 137.068 118.136C136.412 117.56 136.084 116.624 136.084 115.328V108.008H134.524V105.776H136.084V102.488H138.844V105.776H142.06V108.008H138.844ZM156.701 112.064C156.701 112.56 156.669 113.008 156.605 113.408H146.501C146.581 114.464 146.973 115.312 147.677 115.952C148.381 116.592 149.245 116.912 150.269 116.912C151.741 116.912 152.781 116.296 153.389 115.064H156.341C155.941 116.28 155.213 117.28 154.157 118.064C153.117 118.832 151.821 119.216 150.269 119.216C149.005 119.216 147.869 118.936 146.861 118.376C145.869 117.8 145.085 117 144.509 115.976C143.949 114.936 143.669 113.736 143.669 112.376C143.669 111.016 143.941 109.824 144.485 108.8C145.045 107.76 145.821 106.96 146.813 106.4C147.821 105.84 148.973 105.56 150.269 105.56C151.517 105.56 152.629 105.832 153.605 106.376C154.581 106.92 155.341 107.688 155.885 108.68C156.429 109.656 156.701 110.784 156.701 112.064ZM153.845 111.2C153.829 110.192 153.469 109.384 152.765 108.776C152.061 108.168 151.189 107.864 150.149 107.864C149.205 107.864 148.397 108.168 147.725 108.776C147.053 109.368 146.653 110.176 146.525 111.2H153.845ZM175.684 115.592H168.7L167.5 119H164.644L170.62 102.296H173.788L179.764 119H176.884L175.684 115.592ZM174.916 113.36L172.204 105.608L169.468 113.36H174.916ZM185.555 108.008V115.328C185.555 115.824 185.667 116.184 185.891 116.408C186.131 116.616 186.531 116.72 187.091 116.72H188.771V119H186.611C185.379 119 184.435 118.712 183.779 118.136C183.123 117.56 182.795 116.624 182.795 115.328V108.008H181.235V105.776H182.795V102.488H185.555V105.776H188.771V108.008H185.555ZM194.484 108.008V115.328C194.484 115.824 194.596 116.184 194.82 116.408C195.06 116.616 195.46 116.72 196.02 116.72H197.7V119H195.54C194.308 119 193.364 118.712 192.708 118.136C192.052 117.56 191.724 116.624 191.724 115.328V108.008H190.164V105.776H191.724V102.488H194.484V105.776H197.7V108.008H194.484ZM202.958 107.696C203.358 107.024 203.886 106.504 204.542 106.136C205.214 105.752 206.006 105.56 206.918 105.56V108.392H206.222C205.15 108.392 204.334 108.664 203.774 109.208C203.23 109.752 202.958 110.696 202.958 112.04V119H200.222V105.776H202.958V107.696ZM210.825 104.024C210.329 104.024 209.913 103.856 209.577 103.52C209.241 103.184 209.073 102.768 209.073 102.272C209.073 101.776 209.241 101.36 209.577 101.024C209.913 100.688 210.329 100.52 210.825 100.52C211.305 100.52 211.713 100.688 212.049 101.024C212.385 101.36 212.553 101.776 212.553 102.272C212.553 102.768 212.385 103.184 212.049 103.52C211.713 103.856 211.305 104.024 210.825 104.024ZM212.169 105.776V119H209.433V105.776H212.169ZM218.497 107.744C218.961 107.104 219.593 106.584 220.393 106.184C221.209 105.768 222.113 105.56 223.105 105.56C224.273 105.56 225.329 105.84 226.273 106.4C227.217 106.96 227.961 107.76 228.505 108.8C229.049 109.824 229.321 111 229.321 112.328C229.321 113.656 229.049 114.848 228.505 115.904C227.961 116.944 227.209 117.76 226.249 118.352C225.305 118.928 224.257 119.216 223.105 119.216C222.081 119.216 221.169 119.016 220.369 118.616C219.585 118.216 218.961 117.704 218.497 117.08V119H215.761V101.24H218.497V107.744ZM226.537 112.328C226.537 111.416 226.345 110.632 225.961 109.976C225.593 109.304 225.097 108.8 224.473 108.464C223.865 108.112 223.209 107.936 222.505 107.936C221.817 107.936 221.161 108.112 220.537 108.464C219.929 108.816 219.433 109.328 219.049 110C218.681 110.672 218.497 111.464 218.497 112.376C218.497 113.288 218.681 114.088 219.049 114.776C219.433 115.448 219.929 115.96 220.537 116.312C221.161 116.664 221.817 116.84 222.505 116.84C223.209 116.84 223.865 116.664 224.473 116.312C225.097 115.944 225.593 115.416 225.961 114.728C226.345 114.04 226.537 113.24 226.537 112.328ZM244.003 105.776V119H241.267V117.44C240.835 117.984 240.267 118.416 239.563 118.736C238.875 119.04 238.139 119.192 237.355 119.192C236.315 119.192 235.379 118.976 234.547 118.544C233.731 118.112 233.083 117.472 232.603 116.624C232.139 115.776 231.907 114.752 231.907 113.552V105.776H234.619V113.144C234.619 114.328 234.915 115.24 235.507 115.88C236.099 116.504 236.907 116.816 237.931 116.816C238.955 116.816 239.763 116.504 240.355 115.88C240.963 115.24 241.267 114.328 241.267 113.144V105.776H244.003ZM250.805 108.008V115.328C250.805 115.824 250.917 116.184 251.141 116.408C251.381 116.616 251.781 116.72 252.341 116.72H254.021V119H251.861C250.629 119 249.685 118.712 249.029 118.136C248.373 117.56 248.045 116.624 248.045 115.328V108.008H246.485V105.776H248.045V102.488H250.805V105.776H254.021V108.008H250.805ZM268.662 112.064C268.662 112.56 268.63 113.008 268.566 113.408H258.462C258.542 114.464 258.934 115.312 259.638 115.952C260.342 116.592 261.206 116.912 262.23 116.912C263.702 116.912 264.742 116.296 265.35 115.064H268.302C267.902 116.28 267.174 117.28 266.118 118.064C265.078 118.832 263.782 119.216 262.23 119.216C260.966 119.216 259.83 118.936 258.822 118.376C257.83 117.8 257.046 117 256.47 115.976C255.91 114.936 255.63 113.736 255.63 112.376C255.63 111.016 255.902 109.824 256.446 108.8C257.006 107.76 257.782 106.96 258.774 106.4C259.782 105.84 260.934 105.56 262.23 105.56C263.478 105.56 264.59 105.832 265.566 106.376C266.542 106.92 267.302 107.688 267.846 108.68C268.39 109.656 268.662 110.784 268.662 112.064ZM265.806 111.2C265.79 110.192 265.43 109.384 264.726 108.776C264.022 108.168 263.15 107.864 262.11 107.864C261.166 107.864 260.358 108.168 259.686 108.776C259.014 109.368 258.614 110.176 258.486 111.2H265.806Z" fill="#373B4D"/>
<path d="M76.6506 169H75.358L79.0966 158.818H80.3693L84.108 169H82.8153L79.7727 160.429H79.6932L76.6506 169ZM77.1278 165.023H82.3381V166.116H77.1278V165.023ZM88.3773 161.364V162.358H84.4199V161.364H88.3773ZM85.5733 159.534H86.7466V166.812C86.7466 167.144 86.7947 167.393 86.8908 167.558C86.9902 167.721 87.1162 167.83 87.2686 167.886C87.4244 167.939 87.5885 167.966 87.7608 167.966C87.8901 167.966 87.9962 167.959 88.079 167.946C88.1619 167.929 88.2282 167.916 88.2779 167.906L88.5165 168.96C88.437 168.99 88.3259 169.02 88.1834 169.05C88.0409 169.083 87.8603 169.099 87.6415 169.099C87.3101 169.099 86.9853 169.028 86.6671 168.886C86.3522 168.743 86.0904 168.526 85.8816 168.234C85.6761 167.943 85.5733 167.575 85.5733 167.131V159.534ZM93.4632 161.364V162.358H89.5059V161.364H93.4632ZM90.6593 159.534H91.8326V166.812C91.8326 167.144 91.8806 167.393 91.9767 167.558C92.0762 167.721 92.2021 167.83 92.3546 167.886C92.5104 167.939 92.6744 167.966 92.8468 167.966C92.976 167.966 93.0821 167.959 93.165 167.946C93.2478 167.929 93.3141 167.916 93.3638 167.906L93.6025 168.96C93.5229 168.99 93.4119 169.02 93.2694 169.05C93.1268 169.083 92.9462 169.099 92.7275 169.099C92.396 169.099 92.0712 169.028 91.753 168.886C91.4382 168.743 91.1763 168.526 90.9675 168.234C90.762 167.943 90.6593 167.575 90.6593 167.131V159.534ZM95.2282 169V161.364H96.3617V162.517H96.4412C96.5804 162.139 96.8323 161.833 97.1969 161.597C97.5615 161.362 97.9725 161.244 98.4299 161.244C98.516 161.244 98.6238 161.246 98.753 161.249C98.8823 161.253 98.9801 161.258 99.0463 161.264V162.457C99.0066 162.447 98.9154 162.433 98.7729 162.413C98.6337 162.389 98.4862 162.378 98.3304 162.378C97.9592 162.378 97.6278 162.456 97.3361 162.612C97.0478 162.764 96.8191 162.976 96.65 163.248C96.4843 163.516 96.4015 163.823 96.4015 164.168V169H95.2282ZM100.437 169V161.364H101.61V169H100.437ZM101.034 160.091C100.805 160.091 100.608 160.013 100.442 159.857C100.28 159.701 100.199 159.514 100.199 159.295C100.199 159.077 100.28 158.889 100.442 158.734C100.608 158.578 100.805 158.5 101.034 158.5C101.262 158.5 101.458 158.578 101.62 158.734C101.786 158.889 101.869 159.077 101.869 159.295C101.869 159.514 101.786 159.701 101.62 159.857C101.458 160.013 101.262 160.091 101.034 160.091ZM103.919 169V158.818H105.092V162.577H105.191C105.277 162.444 105.397 162.275 105.549 162.07C105.705 161.861 105.927 161.675 106.215 161.513C106.507 161.347 106.901 161.264 107.399 161.264C108.042 161.264 108.608 161.425 109.099 161.746C109.589 162.068 109.972 162.524 110.247 163.114C110.522 163.704 110.66 164.4 110.66 165.202C110.66 166.01 110.522 166.711 110.247 167.305C109.972 167.895 109.591 168.352 109.104 168.677C108.617 168.998 108.055 169.159 107.419 169.159C106.928 169.159 106.535 169.078 106.24 168.915C105.945 168.75 105.718 168.562 105.559 168.354C105.4 168.142 105.277 167.966 105.191 167.827H105.052V169H103.919ZM105.072 165.182C105.072 165.759 105.156 166.267 105.325 166.708C105.494 167.146 105.741 167.489 106.066 167.737C106.391 167.982 106.789 168.105 107.259 168.105C107.75 168.105 108.159 167.976 108.487 167.717C108.819 167.455 109.067 167.104 109.233 166.663C109.402 166.219 109.487 165.725 109.487 165.182C109.487 164.645 109.404 164.161 109.238 163.73C109.076 163.296 108.829 162.953 108.497 162.701C108.169 162.446 107.757 162.318 107.259 162.318C106.782 162.318 106.381 162.439 106.056 162.681C105.731 162.92 105.486 163.254 105.32 163.685C105.155 164.113 105.072 164.612 105.072 165.182ZM117.267 165.878V161.364H118.441V169H117.267V167.707H117.188C117.009 168.095 116.73 168.425 116.352 168.697C115.975 168.965 115.497 169.099 114.921 169.099C114.443 169.099 114.019 168.995 113.648 168.786C113.277 168.574 112.985 168.256 112.773 167.832C112.561 167.404 112.455 166.866 112.455 166.216V161.364H113.628V166.136C113.628 166.693 113.784 167.137 114.095 167.469C114.41 167.8 114.811 167.966 115.298 167.966C115.59 167.966 115.887 167.891 116.188 167.742C116.493 167.593 116.749 167.364 116.954 167.056C117.163 166.748 117.267 166.355 117.267 165.878ZM123.911 161.364V162.358H119.953V161.364H123.911ZM121.107 159.534H122.28V166.812C122.28 167.144 122.328 167.393 122.424 167.558C122.523 167.721 122.649 167.83 122.802 167.886C122.958 167.939 123.122 167.966 123.294 167.966C123.423 167.966 123.529 167.959 123.612 167.946C123.695 167.929 123.761 167.916 123.811 167.906L124.05 168.96C123.97 168.99 123.859 169.02 123.717 169.05C123.574 169.083 123.393 169.099 123.175 169.099C122.843 169.099 122.518 169.028 122.2 168.886C121.885 168.743 121.624 168.526 121.415 168.234C121.209 167.943 121.107 167.575 121.107 167.131V159.534ZM128.795 169.159C128.059 169.159 127.425 168.997 126.891 168.672C126.361 168.344 125.951 167.886 125.663 167.3C125.378 166.71 125.235 166.024 125.235 165.241C125.235 164.459 125.378 163.77 125.663 163.173C125.951 162.573 126.352 162.106 126.866 161.771C127.383 161.433 127.986 161.264 128.676 161.264C129.074 161.264 129.466 161.33 129.854 161.463C130.242 161.596 130.595 161.811 130.913 162.109C131.231 162.404 131.485 162.795 131.674 163.283C131.863 163.77 131.957 164.37 131.957 165.082V165.58H126.071V164.565H130.764C130.764 164.134 130.678 163.75 130.505 163.412C130.336 163.074 130.094 162.807 129.779 162.612C129.468 162.416 129.1 162.318 128.676 162.318C128.208 162.318 127.804 162.434 127.463 162.666C127.125 162.895 126.864 163.193 126.682 163.561C126.5 163.929 126.409 164.323 126.409 164.744V165.42C126.409 165.997 126.508 166.486 126.707 166.887C126.909 167.285 127.189 167.588 127.547 167.797C127.905 168.002 128.321 168.105 128.795 168.105C129.103 168.105 129.382 168.062 129.63 167.976C129.882 167.886 130.099 167.754 130.282 167.578C130.464 167.399 130.605 167.177 130.704 166.912L131.838 167.23C131.718 167.615 131.518 167.953 131.236 168.244C130.954 168.533 130.606 168.758 130.192 168.92C129.778 169.08 129.312 169.159 128.795 169.159ZM139.071 158.818V169H137.838V158.818H139.071ZM144.686 169H141.544V158.818H144.825C145.812 158.818 146.658 159.022 147.36 159.43C148.063 159.834 148.602 160.416 148.976 161.175C149.351 161.93 149.538 162.835 149.538 163.889C149.538 164.95 149.349 165.863 148.971 166.629C148.593 167.391 148.043 167.978 147.32 168.388C146.598 168.796 145.72 169 144.686 169ZM142.776 167.906H144.606C145.448 167.906 146.146 167.744 146.699 167.419C147.253 167.094 147.665 166.632 147.937 166.032C148.209 165.432 148.345 164.718 148.345 163.889C148.345 163.067 148.21 162.36 147.942 161.766C147.673 161.17 147.272 160.712 146.739 160.394C146.205 160.073 145.541 159.912 144.745 159.912H142.776V167.906Z" fill="#373B4D"/>
<rect x="75.5" y="178.5" width="540" height="39" rx="3.5" fill="white"/>
<path d="M92.233 203.5V193.318H98.3778V194.412H93.4659V197.852H98.0597V198.946H93.4659V202.406H98.4574V203.5H92.233ZM101.614 198.906V203.5H100.441V195.864H101.575V197.057H101.674C101.853 196.669 102.125 196.357 102.489 196.122C102.854 195.884 103.325 195.764 103.901 195.764C104.418 195.764 104.871 195.87 105.259 196.082C105.646 196.291 105.948 196.609 106.163 197.037C106.379 197.461 106.487 197.998 106.487 198.648V203.5H105.313V198.727C105.313 198.127 105.157 197.66 104.846 197.325C104.534 196.987 104.107 196.818 103.563 196.818C103.189 196.818 102.854 196.899 102.559 197.062C102.267 197.224 102.037 197.461 101.868 197.773C101.699 198.084 101.614 198.462 101.614 198.906ZM111.952 195.864V196.858H107.994V195.864H111.952ZM109.148 194.034H110.321V201.312C110.321 201.644 110.369 201.893 110.465 202.058C110.564 202.221 110.69 202.33 110.843 202.386C110.999 202.439 111.163 202.466 111.335 202.466C111.464 202.466 111.57 202.459 111.653 202.446C111.736 202.429 111.802 202.416 111.852 202.406L112.091 203.46C112.011 203.49 111.9 203.52 111.758 203.55C111.615 203.583 111.434 203.599 111.216 203.599C110.884 203.599 110.559 203.528 110.241 203.386C109.926 203.243 109.665 203.026 109.456 202.734C109.25 202.443 109.148 202.075 109.148 201.631V194.034ZM116.836 203.659C116.1 203.659 115.466 203.497 114.932 203.172C114.402 202.844 113.992 202.386 113.704 201.8C113.419 201.21 113.276 200.524 113.276 199.741C113.276 198.959 113.419 198.27 113.704 197.673C113.992 197.073 114.393 196.606 114.907 196.271C115.424 195.933 116.027 195.764 116.717 195.764C117.115 195.764 117.507 195.83 117.895 195.963C118.283 196.096 118.636 196.311 118.954 196.609C119.272 196.904 119.526 197.295 119.715 197.783C119.904 198.27 119.998 198.87 119.998 199.582V200.08H114.112V199.065H118.805C118.805 198.634 118.719 198.25 118.546 197.912C118.377 197.574 118.135 197.307 117.82 197.112C117.509 196.916 117.141 196.818 116.717 196.818C116.249 196.818 115.845 196.934 115.504 197.166C115.166 197.395 114.905 197.693 114.723 198.061C114.541 198.429 114.45 198.823 114.45 199.244V199.92C114.45 200.497 114.549 200.986 114.748 201.387C114.95 201.785 115.23 202.088 115.588 202.297C115.946 202.502 116.362 202.605 116.836 202.605C117.144 202.605 117.423 202.562 117.671 202.476C117.923 202.386 118.14 202.254 118.323 202.078C118.505 201.899 118.646 201.677 118.745 201.412L119.879 201.73C119.759 202.115 119.559 202.453 119.277 202.744C118.995 203.033 118.647 203.258 118.233 203.42C117.819 203.58 117.353 203.659 116.836 203.659ZM121.783 203.5V195.864H122.916V197.017H122.996C123.135 196.639 123.387 196.333 123.752 196.097C124.116 195.862 124.527 195.744 124.985 195.744C125.071 195.744 125.178 195.746 125.308 195.749C125.437 195.753 125.535 195.758 125.601 195.764V196.957C125.561 196.947 125.47 196.933 125.328 196.913C125.188 196.889 125.041 196.878 124.885 196.878C124.514 196.878 124.182 196.956 123.891 197.112C123.602 197.264 123.374 197.476 123.205 197.748C123.039 198.016 122.956 198.323 122.956 198.668V203.5H121.783ZM132.321 193.318V203.5H131.088V193.318H132.321ZM137.936 203.5H134.794V193.318H138.075C139.062 193.318 139.908 193.522 140.61 193.93C141.313 194.334 141.852 194.916 142.226 195.675C142.601 196.43 142.788 197.335 142.788 198.389C142.788 199.45 142.599 200.363 142.221 201.129C141.843 201.891 141.293 202.478 140.57 202.888C139.848 203.296 138.97 203.5 137.936 203.5ZM136.026 202.406H137.856C138.698 202.406 139.396 202.244 139.949 201.919C140.503 201.594 140.915 201.132 141.187 200.532C141.459 199.932 141.595 199.218 141.595 198.389C141.595 197.567 141.46 196.86 141.192 196.266C140.923 195.67 140.522 195.212 139.989 194.894C139.455 194.573 138.791 194.412 137.995 194.412H136.026V202.406Z" fill="#C4C6D7"/>
<rect x="75.5" y="178.5" width="540" height="39" rx="3.5" stroke="#E8E9F0"/>
<path fill-rule="evenodd" clip-rule="evenodd" d="M89.4003 243C89.4003 246.535 86.535 249.4 83.0003 249.4C79.4657 249.4 76.6003 246.535 76.6003 243C76.6003 239.465 79.4657 236.6 83.0003 236.6C86.535 236.6 89.4003 239.465 89.4003 243ZM83.8003 239.8C83.8003 240.242 83.4422 240.6 83.0003 240.6C82.5585 240.6 82.2003 240.242 82.2003 239.8C82.2003 239.358 82.5585 239 83.0003 239C83.4422 239 83.8003 239.358 83.8003 239.8ZM82.2003 242.2C81.7585 242.2 81.4003 242.558 81.4003 243C81.4003 243.442 81.7585 243.8 82.2003 243.8V246.2C82.2003 246.642 82.5585 247 83.0003 247H83.8003C84.2422 247 84.6003 246.642 84.6003 246.2C84.6003 245.758 84.2422 245.4 83.8003 245.4V243C83.8003 242.558 83.4422 242.2 83.0003 242.2H82.2003Z" fill="#C4C6D7"/>
<path d="M94.6506 238H93.358L97.0966 227.818H98.3693L102.108 238H100.815L97.7727 229.429H97.6932L94.6506 238ZM95.1278 234.023H100.338V235.116H95.1278V234.023ZM104.708 227.818V238H103.535V227.818H104.708ZM108.03 227.818V238H106.857V227.818H108.03ZM113.282 238.159C112.592 238.159 111.987 237.995 111.467 237.667C110.95 237.339 110.546 236.88 110.254 236.29C109.966 235.7 109.821 235.01 109.821 234.222C109.821 233.426 109.966 232.732 110.254 232.138C110.546 231.545 110.95 231.085 111.467 230.756C111.987 230.428 112.592 230.264 113.282 230.264C113.971 230.264 114.574 230.428 115.091 230.756C115.612 231.085 116.016 231.545 116.304 232.138C116.596 232.732 116.742 233.426 116.742 234.222C116.742 235.01 116.596 235.7 116.304 236.29C116.016 236.88 115.612 237.339 115.091 237.667C114.574 237.995 113.971 238.159 113.282 238.159ZM113.282 237.105C113.805 237.105 114.236 236.971 114.574 236.702C114.912 236.434 115.163 236.081 115.325 235.643C115.487 235.206 115.569 234.732 115.569 234.222C115.569 233.711 115.487 233.236 115.325 232.795C115.163 232.354 114.912 231.998 114.574 231.726C114.236 231.454 113.805 231.318 113.282 231.318C112.758 231.318 112.327 231.454 111.989 231.726C111.651 231.998 111.401 232.354 111.238 232.795C111.076 233.236 110.995 233.711 110.995 234.222C110.995 234.732 111.076 235.206 111.238 235.643C111.401 236.081 111.651 236.434 111.989 236.702C112.327 236.971 112.758 237.105 113.282 237.105ZM120.003 238L117.676 230.364H118.909L120.56 236.21H120.64L122.27 230.364H123.523L125.134 236.19H125.213L126.864 230.364H128.097L125.77 238H124.617L122.946 232.134H122.827L121.157 238H120.003ZM132.59 238.159C131.854 238.159 131.22 237.997 130.686 237.672C130.156 237.344 129.746 236.886 129.458 236.3C129.173 235.71 129.03 235.024 129.03 234.241C129.03 233.459 129.173 232.77 129.458 232.173C129.746 231.573 130.147 231.106 130.661 230.771C131.178 230.433 131.781 230.264 132.471 230.264C132.868 230.264 133.261 230.33 133.649 230.463C134.037 230.596 134.39 230.811 134.708 231.109C135.026 231.404 135.28 231.795 135.469 232.283C135.657 232.77 135.752 233.37 135.752 234.082V234.58H129.866V233.565H134.559C134.559 233.134 134.473 232.75 134.3 232.412C134.131 232.074 133.889 231.807 133.574 231.612C133.263 231.416 132.895 231.318 132.471 231.318C132.003 231.318 131.599 231.434 131.258 231.666C130.92 231.895 130.659 232.193 130.477 232.561C130.295 232.929 130.204 233.323 130.204 233.744V234.42C130.204 234.997 130.303 235.486 130.502 235.887C130.704 236.285 130.984 236.588 131.342 236.797C131.7 237.002 132.116 237.105 132.59 237.105C132.898 237.105 133.177 237.062 133.425 236.976C133.677 236.886 133.894 236.754 134.077 236.578C134.259 236.399 134.4 236.177 134.499 235.912L135.633 236.23C135.513 236.615 135.313 236.953 135.031 237.244C134.749 237.533 134.401 237.758 133.987 237.92C133.573 238.08 133.107 238.159 132.59 238.159ZM140.42 238.159C139.784 238.159 139.222 237.998 138.735 237.677C138.248 237.352 137.867 236.895 137.591 236.305C137.316 235.711 137.179 235.01 137.179 234.202C137.179 233.4 137.316 232.704 137.591 232.114C137.867 231.524 138.249 231.068 138.74 230.746C139.23 230.425 139.797 230.264 140.44 230.264C140.937 230.264 141.33 230.347 141.618 230.513C141.91 230.675 142.132 230.861 142.285 231.07C142.44 231.275 142.561 231.444 142.648 231.577H142.747V227.818H143.92V238H142.787V236.827H142.648C142.561 236.966 142.439 237.142 142.28 237.354C142.121 237.562 141.894 237.75 141.599 237.915C141.304 238.078 140.911 238.159 140.42 238.159ZM140.579 237.105C141.05 237.105 141.448 236.982 141.773 236.737C142.097 236.489 142.344 236.146 142.513 235.708C142.682 235.267 142.767 234.759 142.767 234.182C142.767 233.612 142.684 233.113 142.518 232.685C142.353 232.254 142.107 231.92 141.782 231.681C141.458 231.439 141.057 231.318 140.579 231.318C140.082 231.318 139.668 231.446 139.336 231.701C139.008 231.953 138.761 232.296 138.596 232.73C138.433 233.161 138.352 233.645 138.352 234.182C138.352 234.725 138.435 235.219 138.601 235.663C138.77 236.104 139.018 236.455 139.346 236.717C139.678 236.976 140.089 237.105 140.579 237.105ZM153.272 238.159C152.556 238.159 151.939 237.99 151.422 237.652C150.905 237.314 150.508 236.848 150.229 236.255C149.951 235.662 149.812 234.984 149.812 234.222C149.812 233.446 149.954 232.762 150.239 232.168C150.528 231.572 150.929 231.106 151.442 230.771C151.959 230.433 152.563 230.264 153.252 230.264C153.789 230.264 154.273 230.364 154.704 230.562C155.135 230.761 155.488 231.04 155.763 231.398C156.038 231.756 156.208 232.173 156.275 232.651H155.101C155.012 232.303 154.813 231.994 154.505 231.726C154.2 231.454 153.789 231.318 153.272 231.318C152.814 231.318 152.413 231.437 152.069 231.676C151.727 231.911 151.461 232.245 151.268 232.675C151.079 233.103 150.985 233.605 150.985 234.182C150.985 234.772 151.078 235.286 151.263 235.723C151.452 236.161 151.717 236.5 152.059 236.742C152.403 236.984 152.808 237.105 153.272 237.105C153.577 237.105 153.854 237.052 154.102 236.946C154.351 236.84 154.561 236.688 154.733 236.489C154.906 236.29 155.028 236.051 155.101 235.773H156.275C156.208 236.223 156.044 236.629 155.782 236.991C155.524 237.349 155.181 237.634 154.753 237.846C154.329 238.055 153.835 238.159 153.272 238.159ZM159.163 233.406V238H157.99V227.818H159.163V231.557H159.263C159.442 231.162 159.71 230.849 160.068 230.617C160.429 230.382 160.91 230.264 161.51 230.264C162.03 230.264 162.486 230.369 162.877 230.577C163.268 230.783 163.571 231.099 163.787 231.527C164.006 231.951 164.115 232.491 164.115 233.148V238H162.942V233.227C162.942 232.621 162.784 232.152 162.469 231.82C162.158 231.486 161.725 231.318 161.172 231.318C160.787 231.318 160.443 231.399 160.138 231.562C159.836 231.724 159.597 231.961 159.422 232.273C159.249 232.584 159.163 232.962 159.163 233.406ZM168.509 238.179C168.025 238.179 167.585 238.088 167.191 237.906C166.797 237.72 166.483 237.453 166.251 237.105C166.019 236.754 165.903 236.33 165.903 235.832C165.903 235.395 165.99 235.04 166.162 234.768C166.334 234.493 166.565 234.278 166.853 234.122C167.141 233.966 167.46 233.85 167.808 233.774C168.159 233.695 168.512 233.632 168.866 233.585C169.33 233.526 169.707 233.481 169.995 233.451C170.287 233.418 170.499 233.363 170.631 233.287C170.767 233.211 170.835 233.078 170.835 232.889V232.849C170.835 232.359 170.701 231.978 170.433 231.706C170.167 231.434 169.765 231.298 169.224 231.298C168.664 231.298 168.225 231.421 167.907 231.666C167.589 231.911 167.365 232.173 167.236 232.452L166.122 232.054C166.321 231.59 166.586 231.229 166.918 230.97C167.252 230.708 167.617 230.526 168.011 230.423C168.409 230.317 168.8 230.264 169.185 230.264C169.43 230.264 169.712 230.294 170.03 230.354C170.351 230.41 170.661 230.528 170.96 230.707C171.261 230.886 171.511 231.156 171.71 231.517C171.909 231.878 172.009 232.362 172.009 232.969V238H170.835V236.966H170.776C170.696 237.132 170.563 237.309 170.378 237.498C170.192 237.687 169.945 237.848 169.637 237.98C169.329 238.113 168.953 238.179 168.509 238.179ZM168.688 237.125C169.152 237.125 169.543 237.034 169.861 236.852C170.182 236.669 170.424 236.434 170.587 236.146C170.752 235.857 170.835 235.554 170.835 235.236V234.162C170.786 234.222 170.676 234.276 170.507 234.326C170.341 234.372 170.149 234.414 169.93 234.45C169.715 234.483 169.504 234.513 169.299 234.54C169.097 234.563 168.933 234.583 168.807 234.599C168.502 234.639 168.217 234.704 167.952 234.793C167.69 234.879 167.478 235.01 167.315 235.186C167.156 235.358 167.077 235.594 167.077 235.892C167.077 236.3 167.228 236.608 167.529 236.817C167.834 237.022 168.22 237.125 168.688 237.125ZM174.15 238V230.364H175.284V231.517H175.363C175.502 231.139 175.754 230.833 176.119 230.597C176.483 230.362 176.894 230.244 177.352 230.244C177.438 230.244 177.546 230.246 177.675 230.249C177.804 230.253 177.902 230.258 177.968 230.264V231.457C177.928 231.447 177.837 231.433 177.695 231.413C177.556 231.389 177.408 231.378 177.252 231.378C176.881 231.378 176.55 231.456 176.258 231.612C175.97 231.764 175.741 231.976 175.572 232.248C175.406 232.516 175.323 232.823 175.323 233.168V238H174.15ZM181.606 238.179C181.122 238.179 180.683 238.088 180.289 237.906C179.894 237.72 179.581 237.453 179.349 237.105C179.117 236.754 179.001 236.33 179.001 235.832C179.001 235.395 179.087 235.04 179.26 234.768C179.432 234.493 179.662 234.278 179.951 234.122C180.239 233.966 180.557 233.85 180.905 233.774C181.257 233.695 181.609 233.632 181.964 233.585C182.428 233.526 182.804 233.481 183.093 233.451C183.384 233.418 183.596 233.363 183.729 233.287C183.865 233.211 183.933 233.078 183.933 232.889V232.849C183.933 232.359 183.799 231.978 183.53 231.706C183.265 231.434 182.862 231.298 182.322 231.298C181.762 231.298 181.323 231.421 181.005 231.666C180.686 231.911 180.463 232.173 180.333 232.452L179.22 232.054C179.419 231.59 179.684 231.229 180.015 230.97C180.35 230.708 180.715 230.526 181.109 230.423C181.507 230.317 181.898 230.264 182.282 230.264C182.528 230.264 182.809 230.294 183.127 230.354C183.449 230.41 183.759 230.528 184.057 230.707C184.359 230.886 184.609 231.156 184.808 231.517C185.007 231.878 185.106 232.362 185.106 232.969V238H183.933V236.966H183.873C183.794 237.132 183.661 237.309 183.475 237.498C183.29 237.687 183.043 237.848 182.735 237.98C182.426 238.113 182.05 238.179 181.606 238.179ZM181.785 237.125C182.249 237.125 182.64 237.034 182.958 236.852C183.28 236.669 183.522 236.434 183.684 236.146C183.85 235.857 183.933 235.554 183.933 235.236V234.162C183.883 234.222 183.774 234.276 183.605 234.326C183.439 234.372 183.247 234.414 183.028 234.45C182.813 234.483 182.602 234.513 182.397 234.54C182.194 234.563 182.03 234.583 181.904 234.599C181.6 234.639 181.315 234.704 181.049 234.793C180.788 234.879 180.575 235.01 180.413 235.186C180.254 235.358 180.174 235.594 180.174 235.892C180.174 236.3 180.325 236.608 180.627 236.817C180.932 237.022 181.318 237.125 181.785 237.125ZM190.35 238.159C189.634 238.159 189.018 237.99 188.501 237.652C187.983 237.314 187.586 236.848 187.307 236.255C187.029 235.662 186.89 234.984 186.89 234.222C186.89 233.446 187.032 232.762 187.317 232.168C187.606 231.572 188.007 231.106 188.52 230.771C189.037 230.433 189.641 230.264 190.33 230.264C190.867 230.264 191.351 230.364 191.782 230.562C192.213 230.761 192.566 231.04 192.841 231.398C193.116 231.756 193.287 232.173 193.353 232.651H192.18C192.09 232.303 191.891 231.994 191.583 231.726C191.278 231.454 190.867 231.318 190.35 231.318C189.893 231.318 189.492 231.437 189.147 231.676C188.805 231.911 188.539 232.245 188.346 232.675C188.157 233.103 188.063 233.605 188.063 234.182C188.063 234.772 188.156 235.286 188.341 235.723C188.53 236.161 188.796 236.5 189.137 236.742C189.482 236.984 189.886 237.105 190.35 237.105C190.655 237.105 190.932 237.052 191.18 236.946C191.429 236.84 191.639 236.688 191.812 236.489C191.984 236.29 192.107 236.051 192.18 235.773H193.353C193.287 236.223 193.122 236.629 192.861 236.991C192.602 237.349 192.259 237.634 191.831 237.846C191.407 238.055 190.913 238.159 190.35 238.159ZM198.389 230.364V231.358H194.432V230.364H198.389ZM195.585 228.534H196.758V235.812C196.758 236.144 196.806 236.393 196.903 236.558C197.002 236.721 197.128 236.83 197.28 236.886C197.436 236.939 197.6 236.966 197.773 236.966C197.902 236.966 198.008 236.959 198.091 236.946C198.174 236.929 198.24 236.916 198.29 236.906L198.528 237.96C198.449 237.99 198.338 238.02 198.195 238.05C198.053 238.083 197.872 238.099 197.653 238.099C197.322 238.099 196.997 238.028 196.679 237.886C196.364 237.743 196.102 237.526 195.893 237.234C195.688 236.943 195.585 236.575 195.585 236.131V228.534ZM203.274 238.159C202.538 238.159 201.903 237.997 201.369 237.672C200.839 237.344 200.43 236.886 200.142 236.3C199.856 235.71 199.714 235.024 199.714 234.241C199.714 233.459 199.856 232.77 200.142 232.173C200.43 231.573 200.831 231.106 201.345 230.771C201.862 230.433 202.465 230.264 203.154 230.264C203.552 230.264 203.945 230.33 204.333 230.463C204.72 230.596 205.073 230.811 205.392 231.109C205.71 231.404 205.963 231.795 206.152 232.283C206.341 232.77 206.436 233.37 206.436 234.082V234.58H200.549V233.565H205.242C205.242 233.134 205.156 232.75 204.984 232.412C204.815 232.074 204.573 231.807 204.258 231.612C203.946 231.416 203.579 231.318 203.154 231.318C202.687 231.318 202.283 231.434 201.941 231.666C201.603 231.895 201.343 232.193 201.161 232.561C200.978 232.929 200.887 233.323 200.887 233.744V234.42C200.887 234.997 200.987 235.486 201.186 235.887C201.388 236.285 201.668 236.588 202.026 236.797C202.384 237.002 202.8 237.105 203.274 237.105C203.582 237.105 203.86 237.062 204.109 236.976C204.361 236.886 204.578 236.754 204.76 236.578C204.942 236.399 205.083 236.177 205.183 235.912L206.316 236.23C206.197 236.615 205.996 236.953 205.715 237.244C205.433 237.533 205.085 237.758 204.671 237.92C204.256 238.08 203.791 238.159 203.274 238.159ZM208.22 238V230.364H209.354V231.517H209.433C209.573 231.139 209.825 230.833 210.189 230.597C210.554 230.362 210.965 230.244 211.422 230.244C211.508 230.244 211.616 230.246 211.745 230.249C211.874 230.253 211.972 230.258 212.039 230.264V231.457C211.999 231.447 211.908 231.433 211.765 231.413C211.626 231.389 211.478 231.378 211.323 231.378C210.951 231.378 210.62 231.456 210.328 231.612C210.04 231.764 209.811 231.976 209.642 232.248C209.477 232.516 209.394 232.823 209.394 233.168V238H208.22ZM218.838 232.074L217.784 232.372C217.718 232.196 217.62 232.026 217.491 231.86C217.365 231.691 217.193 231.552 216.974 231.442C216.755 231.333 216.475 231.278 216.134 231.278C215.667 231.278 215.277 231.386 214.966 231.602C214.657 231.814 214.503 232.084 214.503 232.412C214.503 232.704 214.609 232.934 214.821 233.103C215.033 233.272 215.365 233.413 215.816 233.526L216.949 233.804C217.632 233.97 218.141 234.223 218.475 234.565C218.81 234.903 218.978 235.339 218.978 235.872C218.978 236.31 218.852 236.701 218.6 237.045C218.351 237.39 218.003 237.662 217.556 237.861C217.108 238.06 216.588 238.159 215.995 238.159C215.216 238.159 214.571 237.99 214.061 237.652C213.55 237.314 213.227 236.82 213.091 236.17L214.205 235.892C214.311 236.303 214.511 236.611 214.806 236.817C215.105 237.022 215.494 237.125 215.975 237.125C216.522 237.125 216.956 237.009 217.277 236.777C217.602 236.542 217.765 236.26 217.765 235.932C217.765 235.667 217.672 235.445 217.486 235.266C217.301 235.083 217.016 234.947 216.631 234.858L215.358 234.56C214.659 234.394 214.145 234.137 213.817 233.789C213.492 233.438 213.33 232.999 213.33 232.472C213.33 232.041 213.451 231.66 213.693 231.328C213.938 230.997 214.271 230.737 214.692 230.548C215.116 230.359 215.597 230.264 216.134 230.264C216.89 230.264 217.483 230.43 217.914 230.761C218.348 231.093 218.656 231.53 218.838 232.074ZM221.599 238.08C221.354 238.08 221.143 237.992 220.968 237.816C220.792 237.64 220.704 237.43 220.704 237.185C220.704 236.939 220.792 236.729 220.968 236.553C221.143 236.378 221.354 236.29 221.599 236.29C221.844 236.29 222.055 236.378 222.23 236.553C222.406 236.729 222.494 236.939 222.494 237.185C222.494 237.347 222.452 237.496 222.369 237.632C222.29 237.768 222.182 237.877 222.046 237.96C221.914 238.04 221.765 238.08 221.599 238.08ZM221.599 232.412C221.354 232.412 221.143 232.324 220.968 232.148C220.792 231.973 220.704 231.762 220.704 231.517C220.704 231.272 220.792 231.061 220.968 230.886C221.143 230.71 221.354 230.622 221.599 230.622C221.844 230.622 222.055 230.71 222.23 230.886C222.406 231.061 222.494 231.272 222.494 231.517C222.494 231.679 222.452 231.829 222.369 231.964C222.29 232.1 222.182 232.21 222.046 232.293C221.914 232.372 221.765 232.412 221.599 232.412ZM230.784 238.179C230.3 238.179 229.861 238.088 229.466 237.906C229.072 237.72 228.759 237.453 228.527 237.105C228.295 236.754 228.179 236.33 228.179 235.832C228.179 235.395 228.265 235.04 228.437 234.768C228.61 234.493 228.84 234.278 229.128 234.122C229.417 233.966 229.735 233.85 230.083 233.774C230.434 233.695 230.787 233.632 231.142 233.585C231.606 233.526 231.982 233.481 232.27 233.451C232.562 233.418 232.774 233.363 232.907 233.287C233.043 233.211 233.111 233.078 233.111 232.889V232.849C233.111 232.359 232.976 231.978 232.708 231.706C232.443 231.434 232.04 231.298 231.5 231.298C230.94 231.298 230.501 231.421 230.182 231.666C229.864 231.911 229.64 232.173 229.511 232.452L228.398 232.054C228.596 231.59 228.862 231.229 229.193 230.97C229.528 230.708 229.892 230.526 230.287 230.423C230.684 230.317 231.076 230.264 231.46 230.264C231.705 230.264 231.987 230.294 232.305 230.354C232.627 230.41 232.937 230.528 233.235 230.707C233.537 230.886 233.787 231.156 233.986 231.517C234.184 231.878 234.284 232.362 234.284 232.969V238H233.111V236.966H233.051C232.971 237.132 232.839 237.309 232.653 237.498C232.468 237.687 232.221 237.848 231.912 237.98C231.604 238.113 231.228 238.179 230.784 238.179ZM230.963 237.125C231.427 237.125 231.818 237.034 232.136 236.852C232.458 236.669 232.7 236.434 232.862 236.146C233.028 235.857 233.111 235.554 233.111 235.236V234.162C233.061 234.222 232.952 234.276 232.782 234.326C232.617 234.372 232.425 234.414 232.206 234.45C231.99 234.483 231.78 234.513 231.574 234.54C231.372 234.563 231.208 234.583 231.082 234.599C230.777 234.639 230.492 234.704 230.227 234.793C229.965 234.879 229.753 235.01 229.591 235.186C229.432 235.358 229.352 235.594 229.352 235.892C229.352 236.3 229.503 236.608 229.805 236.817C230.109 237.022 230.496 237.125 230.963 237.125ZM237.599 227.818V238H236.425V227.818H237.599ZM239.748 240.864V230.364H240.881V231.577H241.02C241.107 231.444 241.226 231.275 241.378 231.07C241.534 230.861 241.756 230.675 242.045 230.513C242.336 230.347 242.731 230.264 243.228 230.264C243.871 230.264 244.438 230.425 244.928 230.746C245.419 231.068 245.801 231.524 246.077 232.114C246.352 232.704 246.489 233.4 246.489 234.202C246.489 235.01 246.352 235.711 246.077 236.305C245.801 236.895 245.42 237.352 244.933 237.677C244.446 237.998 243.884 238.159 243.248 238.159C242.757 238.159 242.364 238.078 242.069 237.915C241.774 237.75 241.547 237.562 241.388 237.354C241.229 237.142 241.107 236.966 241.02 236.827H240.921V240.864H239.748ZM240.901 234.182C240.901 234.759 240.986 235.267 241.155 235.708C241.324 236.146 241.571 236.489 241.895 236.737C242.22 236.982 242.618 237.105 243.089 237.105C243.579 237.105 243.988 236.976 244.317 236.717C244.648 236.455 244.897 236.104 245.062 235.663C245.231 235.219 245.316 234.725 245.316 234.182C245.316 233.645 245.233 233.161 245.067 232.73C244.905 232.296 244.658 231.953 244.327 231.701C243.998 231.446 243.586 231.318 243.089 231.318C242.611 231.318 242.21 231.439 241.885 231.681C241.561 231.92 241.315 232.254 241.15 232.685C240.984 233.113 240.901 233.612 240.901 234.182ZM249.452 233.406V238H248.279V227.818H249.452V231.557H249.552C249.731 231.162 249.999 230.849 250.357 230.617C250.718 230.382 251.199 230.264 251.799 230.264C252.319 230.264 252.775 230.369 253.166 230.577C253.557 230.783 253.86 231.099 254.076 231.527C254.295 231.951 254.404 232.491 254.404 233.148V238H253.231V233.227C253.231 232.621 253.073 232.152 252.758 231.82C252.447 231.486 252.014 231.318 251.461 231.318C251.076 231.318 250.732 231.399 250.427 231.562C250.125 231.724 249.886 231.961 249.711 232.273C249.538 232.584 249.452 232.962 249.452 233.406ZM258.798 238.179C258.314 238.179 257.875 238.088 257.48 237.906C257.086 237.72 256.772 237.453 256.54 237.105C256.308 236.754 256.192 236.33 256.192 235.832C256.192 235.395 256.279 235.04 256.451 234.768C256.623 234.493 256.854 234.278 257.142 234.122C257.43 233.966 257.749 233.85 258.097 233.774C258.448 233.695 258.801 233.632 259.156 233.585C259.62 233.526 259.996 233.481 260.284 233.451C260.576 233.418 260.788 233.363 260.92 233.287C261.056 233.211 261.124 233.078 261.124 232.889V232.849C261.124 232.359 260.99 231.978 260.722 231.706C260.456 231.434 260.054 231.298 259.513 231.298C258.953 231.298 258.514 231.421 258.196 231.666C257.878 231.911 257.654 232.173 257.525 232.452L256.411 232.054C256.61 231.59 256.875 231.229 257.207 230.97C257.541 230.708 257.906 230.526 258.3 230.423C258.698 230.317 259.089 230.264 259.474 230.264C259.719 230.264 260.001 230.294 260.319 230.354C260.64 230.41 260.95 230.528 261.249 230.707C261.55 230.886 261.8 231.156 261.999 231.517C262.198 231.878 262.298 232.362 262.298 232.969V238H261.124V236.966H261.065C260.985 237.132 260.853 237.309 260.667 237.498C260.481 237.687 260.234 237.848 259.926 237.98C259.618 238.113 259.242 238.179 258.798 238.179ZM258.977 237.125C259.441 237.125 259.832 237.034 260.15 236.852C260.471 236.669 260.713 236.434 260.876 236.146C261.041 235.857 261.124 235.554 261.124 235.236V234.162C261.075 234.222 260.965 234.276 260.796 234.326C260.63 234.372 260.438 234.414 260.219 234.45C260.004 234.483 259.794 234.513 259.588 234.54C259.386 234.563 259.222 234.583 259.096 234.599C258.791 234.639 258.506 234.704 258.241 234.793C257.979 234.879 257.767 235.01 257.604 235.186C257.445 235.358 257.366 235.594 257.366 235.892C257.366 236.3 257.517 236.608 257.818 236.817C258.123 237.022 258.509 237.125 258.977 237.125ZM265.612 233.406V238H264.439V230.364H265.573V231.557H265.672C265.851 231.169 266.123 230.857 266.487 230.622C266.852 230.384 267.323 230.264 267.899 230.264C268.416 230.264 268.869 230.37 269.257 230.582C269.644 230.791 269.946 231.109 270.161 231.537C270.377 231.961 270.485 232.498 270.485 233.148V238H269.311V233.227C269.311 232.627 269.155 232.16 268.844 231.825C268.532 231.487 268.105 231.318 267.561 231.318C267.187 231.318 266.852 231.399 266.557 231.562C266.265 231.724 266.035 231.961 265.866 232.273C265.697 232.584 265.612 232.962 265.612 233.406ZM277.441 234.878V230.364H278.614V238H277.441V236.707H277.362C277.183 237.095 276.904 237.425 276.526 237.697C276.148 237.965 275.671 238.099 275.094 238.099C274.617 238.099 274.193 237.995 273.822 237.786C273.451 237.574 273.159 237.256 272.947 236.832C272.735 236.404 272.629 235.866 272.629 235.216V230.364H273.802V235.136C273.802 235.693 273.958 236.137 274.269 236.469C274.584 236.8 274.985 236.966 275.472 236.966C275.764 236.966 276.061 236.891 276.362 236.742C276.667 236.593 276.922 236.364 277.128 236.056C277.337 235.748 277.441 235.355 277.441 234.878ZM280.763 238V230.364H281.897V231.557H281.996C282.155 231.149 282.412 230.833 282.767 230.607C283.122 230.379 283.547 230.264 284.045 230.264C284.548 230.264 284.968 230.379 285.302 230.607C285.64 230.833 285.904 231.149 286.093 231.557H286.172C286.368 231.162 286.661 230.849 287.052 230.617C287.443 230.382 287.912 230.264 288.459 230.264C289.142 230.264 289.701 230.478 290.135 230.906C290.569 231.33 290.786 231.991 290.786 232.889V238H289.613V232.889C289.613 232.326 289.459 231.923 289.15 231.681C288.842 231.439 288.479 231.318 288.062 231.318C287.525 231.318 287.109 231.481 286.814 231.805C286.519 232.127 286.371 232.535 286.371 233.028V238H285.178V232.77C285.178 232.336 285.037 231.986 284.756 231.721C284.474 231.452 284.111 231.318 283.667 231.318C283.362 231.318 283.077 231.399 282.812 231.562C282.55 231.724 282.338 231.95 282.175 232.238C282.016 232.523 281.937 232.853 281.937 233.227V238H280.763ZM296.133 238.159C295.397 238.159 294.762 237.997 294.229 237.672C293.699 237.344 293.289 236.886 293.001 236.3C292.716 235.71 292.573 235.024 292.573 234.241C292.573 233.459 292.716 232.77 293.001 232.173C293.289 231.573 293.69 231.106 294.204 230.771C294.721 230.433 295.324 230.264 296.014 230.264C296.411 230.264 296.804 230.33 297.192 230.463C297.58 230.596 297.933 230.811 298.251 231.109C298.569 231.404 298.823 231.795 299.012 232.283C299.2 232.77 299.295 233.37 299.295 234.082V234.58H293.409V233.565H298.102C298.102 233.134 298.016 232.75 297.843 232.412C297.674 232.074 297.432 231.807 297.117 231.612C296.806 231.416 296.438 231.318 296.014 231.318C295.546 231.318 295.142 231.434 294.801 231.666C294.463 231.895 294.202 232.193 294.02 232.561C293.838 232.929 293.747 233.323 293.747 233.744V234.42C293.747 234.997 293.846 235.486 294.045 235.887C294.247 236.285 294.527 236.588 294.885 236.797C295.243 237.002 295.659 237.105 296.133 237.105C296.441 237.105 296.72 237.062 296.968 236.976C297.22 236.886 297.437 236.754 297.619 236.578C297.802 236.399 297.943 236.177 298.042 235.912L299.176 236.23C299.056 236.615 298.856 236.953 298.574 237.244C298.292 237.533 297.944 237.758 297.53 237.92C297.116 238.08 296.65 238.159 296.133 238.159ZM301.08 238V230.364H302.213V231.517H302.293C302.432 231.139 302.684 230.833 303.048 230.597C303.413 230.362 303.824 230.244 304.281 230.244C304.368 230.244 304.475 230.246 304.605 230.249C304.734 230.253 304.832 230.258 304.898 230.264V231.457C304.858 231.447 304.767 231.433 304.624 231.413C304.485 231.389 304.338 231.378 304.182 231.378C303.811 231.378 303.479 231.456 303.188 231.612C302.899 231.764 302.671 231.976 302.502 232.248C302.336 232.516 302.253 232.823 302.253 233.168V238H301.08ZM306.289 238V230.364H307.462V238H306.289ZM306.885 229.091C306.657 229.091 306.459 229.013 306.294 228.857C306.131 228.701 306.05 228.514 306.05 228.295C306.05 228.077 306.131 227.889 306.294 227.734C306.459 227.578 306.657 227.5 306.885 227.5C307.114 227.5 307.31 227.578 307.472 227.734C307.638 227.889 307.721 228.077 307.721 228.295C307.721 228.514 307.638 228.701 307.472 228.857C307.31 229.013 307.114 229.091 306.885 229.091ZM312.713 238.159C311.997 238.159 311.381 237.99 310.864 237.652C310.347 237.314 309.949 236.848 309.671 236.255C309.392 235.662 309.253 234.984 309.253 234.222C309.253 233.446 309.396 232.762 309.681 232.168C309.969 231.572 310.37 231.106 310.884 230.771C311.401 230.433 312.004 230.264 312.693 230.264C313.23 230.264 313.714 230.364 314.145 230.562C314.576 230.761 314.929 231.04 315.204 231.398C315.479 231.756 315.65 232.173 315.716 232.651H314.543C314.453 232.303 314.254 231.994 313.946 231.726C313.641 231.454 313.23 231.318 312.713 231.318C312.256 231.318 311.855 231.437 311.51 231.676C311.169 231.911 310.902 232.245 310.71 232.675C310.521 233.103 310.426 233.605 310.426 234.182C310.426 234.772 310.519 235.286 310.705 235.723C310.894 236.161 311.159 236.5 311.5 236.742C311.845 236.984 312.249 237.105 312.713 237.105C313.018 237.105 313.295 237.052 313.544 236.946C313.792 236.84 314.003 236.688 314.175 236.489C314.347 236.29 314.47 236.051 314.543 235.773H315.716C315.65 236.223 315.486 236.629 315.224 236.991C314.965 237.349 314.622 237.634 314.195 237.846C313.771 238.055 313.277 238.159 312.713 238.159ZM319.181 236.608L319.102 237.145C319.045 237.523 318.959 237.927 318.843 238.358C318.731 238.789 318.613 239.195 318.49 239.576C318.368 239.957 318.267 240.26 318.187 240.486H317.292C317.335 240.274 317.392 239.994 317.461 239.646C317.531 239.298 317.6 238.908 317.67 238.477C317.743 238.05 317.802 237.612 317.849 237.165L317.909 236.608H319.181ZM326.466 233.406V238H325.293V227.818H326.466V231.557H326.565C326.744 231.162 327.013 230.849 327.371 230.617C327.732 230.382 328.213 230.264 328.812 230.264C329.333 230.264 329.789 230.369 330.18 230.577C330.571 230.783 330.874 231.099 331.089 231.527C331.308 231.951 331.418 232.491 331.418 233.148V238H330.244V233.227C330.244 232.621 330.087 232.152 329.772 231.82C329.46 231.486 329.028 231.318 328.474 231.318C328.09 231.318 327.745 231.399 327.44 231.562C327.139 231.724 326.9 231.961 326.724 232.273C326.552 232.584 326.466 232.962 326.466 233.406ZM334.046 240.864C333.847 240.864 333.67 240.847 333.514 240.814C333.359 240.784 333.251 240.754 333.191 240.724L333.49 239.69C333.775 239.763 334.026 239.79 334.245 239.77C334.464 239.75 334.658 239.652 334.827 239.477C334.999 239.304 335.157 239.024 335.299 238.636L335.518 238.04L332.694 230.364H333.967L336.075 236.449H336.154L338.262 230.364H339.535L336.294 239.114C336.148 239.508 335.967 239.835 335.752 240.093C335.536 240.355 335.286 240.549 335.001 240.675C334.719 240.801 334.401 240.864 334.046 240.864ZM341.084 240.864V230.364H342.217V231.577H342.356C342.443 231.444 342.562 231.275 342.714 231.07C342.87 230.861 343.092 230.675 343.381 230.513C343.672 230.347 344.067 230.264 344.564 230.264C345.207 230.264 345.773 230.425 346.264 230.746C346.755 231.068 347.137 231.524 347.412 232.114C347.688 232.704 347.825 233.4 347.825 234.202C347.825 235.01 347.688 235.711 347.412 236.305C347.137 236.895 346.756 237.352 346.269 237.677C345.782 237.998 345.22 238.159 344.584 238.159C344.093 238.159 343.7 238.078 343.405 237.915C343.11 237.75 342.883 237.562 342.724 237.354C342.565 237.142 342.443 236.966 342.356 236.827H342.257V240.864H341.084ZM342.237 234.182C342.237 234.759 342.322 235.267 342.491 235.708C342.66 236.146 342.907 236.489 343.231 236.737C343.556 236.982 343.954 237.105 344.425 237.105C344.915 237.105 345.324 236.976 345.653 236.717C345.984 236.455 346.233 236.104 346.398 235.663C346.567 235.219 346.652 234.725 346.652 234.182C346.652 233.645 346.569 233.161 346.403 232.73C346.241 232.296 345.994 231.953 345.662 231.701C345.334 231.446 344.922 231.318 344.425 231.318C343.947 231.318 343.546 231.439 343.221 231.681C342.897 231.92 342.651 232.254 342.486 232.685C342.32 233.113 342.237 233.612 342.237 234.182ZM350.788 233.406V238H349.615V227.818H350.788V231.557H350.888C351.067 231.162 351.335 230.849 351.693 230.617C352.054 230.382 352.535 230.264 353.135 230.264C353.655 230.264 354.111 230.369 354.502 230.577C354.893 230.783 355.196 231.099 355.412 231.527C355.631 231.951 355.74 232.491 355.74 233.148V238H354.567V233.227C354.567 232.621 354.409 232.152 354.094 231.82C353.783 231.486 353.35 231.318 352.797 231.318C352.412 231.318 352.068 231.399 351.763 231.562C351.461 231.724 351.222 231.961 351.047 232.273C350.874 232.584 350.788 232.962 350.788 233.406ZM361.088 238.159C360.352 238.159 359.718 237.997 359.184 237.672C358.654 237.344 358.244 236.886 357.956 236.3C357.671 235.71 357.528 235.024 357.528 234.241C357.528 233.459 357.671 232.77 357.956 232.173C358.244 231.573 358.645 231.106 359.159 230.771C359.676 230.433 360.279 230.264 360.969 230.264C361.366 230.264 361.759 230.33 362.147 230.463C362.535 230.596 362.888 230.811 363.206 231.109C363.524 231.404 363.778 231.795 363.967 232.283C364.156 232.77 364.25 233.37 364.25 234.082V234.58H358.364V233.565H363.057C363.057 233.134 362.971 232.75 362.798 232.412C362.629 232.074 362.387 231.807 362.072 231.612C361.761 231.416 361.393 231.318 360.969 231.318C360.501 231.318 360.097 231.434 359.756 231.666C359.418 231.895 359.157 232.193 358.975 232.561C358.793 232.929 358.702 233.323 358.702 233.744V234.42C358.702 234.997 358.801 235.486 359 235.887C359.202 236.285 359.482 236.588 359.84 236.797C360.198 237.002 360.614 237.105 361.088 237.105C361.396 237.105 361.675 237.062 361.923 236.976C362.175 236.886 362.392 236.754 362.575 236.578C362.757 236.399 362.898 236.177 362.997 235.912L364.131 236.23C364.011 236.615 363.811 236.953 363.529 237.244C363.247 237.533 362.899 237.758 362.485 237.92C362.071 238.08 361.605 238.159 361.088 238.159ZM367.208 233.406V238H366.035V230.364H367.168V231.557H367.268C367.447 231.169 367.719 230.857 368.083 230.622C368.448 230.384 368.918 230.264 369.495 230.264C370.012 230.264 370.464 230.37 370.852 230.582C371.24 230.791 371.542 231.109 371.757 231.537C371.973 231.961 372.08 232.498 372.08 233.148V238H370.907V233.227C370.907 232.627 370.751 232.16 370.44 231.825C370.128 231.487 369.701 231.318 369.157 231.318C368.782 231.318 368.448 231.399 368.153 231.562C367.861 231.724 367.631 231.961 367.462 232.273C367.293 232.584 367.208 232.962 367.208 233.406ZM375.974 236.608L375.895 237.145C375.838 237.523 375.752 237.927 375.636 238.358C375.523 238.789 375.406 239.195 375.283 239.576C375.161 239.957 375.059 240.26 374.98 240.486H374.085C374.128 240.274 374.184 239.994 374.254 239.646C374.324 239.298 374.393 238.908 374.463 238.477C374.536 238.05 374.595 237.612 374.642 237.165L374.702 236.608H375.974ZM383.259 233.406V238H382.086V230.364H383.219V231.557H383.319C383.498 231.169 383.769 230.857 384.134 230.622C384.498 230.384 384.969 230.264 385.546 230.264C386.063 230.264 386.515 230.37 386.903 230.582C387.291 230.791 387.592 231.109 387.808 231.537C388.023 231.961 388.131 232.498 388.131 233.148V238H386.958V233.227C386.958 232.627 386.802 232.16 386.49 231.825C386.179 231.487 385.751 231.318 385.208 231.318C384.833 231.318 384.498 231.399 384.203 231.562C383.912 231.724 383.681 231.961 383.512 232.273C383.343 232.584 383.259 232.962 383.259 233.406ZM393.377 238.159C392.688 238.159 392.083 237.995 391.563 237.667C391.046 237.339 390.641 236.88 390.35 236.29C390.061 235.7 389.917 235.01 389.917 234.222C389.917 233.426 390.061 232.732 390.35 232.138C390.641 231.545 391.046 231.085 391.563 230.756C392.083 230.428 392.688 230.264 393.377 230.264C394.067 230.264 394.67 230.428 395.187 230.756C395.707 231.085 396.112 231.545 396.4 232.138C396.692 232.732 396.838 233.426 396.838 234.222C396.838 235.01 396.692 235.7 396.4 236.29C396.112 236.88 395.707 237.339 395.187 237.667C394.67 237.995 394.067 238.159 393.377 238.159ZM393.377 237.105C393.901 237.105 394.332 236.971 394.67 236.702C395.008 236.434 395.258 236.081 395.421 235.643C395.583 235.206 395.664 234.732 395.664 234.222C395.664 233.711 395.583 233.236 395.421 232.795C395.258 232.354 395.008 231.998 394.67 231.726C394.332 231.454 393.901 231.318 393.377 231.318C392.854 231.318 392.423 231.454 392.085 231.726C391.747 231.998 391.496 232.354 391.334 232.795C391.172 233.236 391.09 233.711 391.09 234.222C391.09 234.732 391.172 235.206 391.334 235.643C391.496 236.081 391.747 236.434 392.085 236.702C392.423 236.971 392.854 237.105 393.377 237.105ZM399.802 233.406V238H398.629V230.364H399.762V231.557H399.862C400.04 231.169 400.312 230.857 400.677 230.622C401.041 230.384 401.512 230.264 402.089 230.264C402.606 230.264 403.058 230.37 403.446 230.582C403.834 230.791 404.135 231.109 404.351 231.537C404.566 231.961 404.674 232.498 404.674 233.148V238H403.501V233.227C403.501 232.627 403.345 232.16 403.033 231.825C402.722 231.487 402.294 231.318 401.751 231.318C401.376 231.318 401.041 231.399 400.746 231.562C400.455 231.724 400.224 231.961 400.055 232.273C399.886 232.584 399.802 232.962 399.802 233.406ZM411.193 233.088V234.182H406.738V233.088H411.193ZM95.2472 248.818V259H94.0739V248.818H95.2472ZM100.598 259.159C99.862 259.159 99.2273 258.997 98.6937 258.672C98.1634 258.344 97.7541 257.886 97.4657 257.3C97.1807 256.71 97.0382 256.024 97.0382 255.241C97.0382 254.459 97.1807 253.77 97.4657 253.173C97.7541 252.573 98.1551 252.106 98.6689 251.771C99.1859 251.433 99.7891 251.264 100.479 251.264C100.876 251.264 101.269 251.33 101.657 251.463C102.045 251.596 102.398 251.811 102.716 252.109C103.034 252.404 103.287 252.795 103.476 253.283C103.665 253.77 103.76 254.37 103.76 255.082V255.58H97.8734V254.565H102.567C102.567 254.134 102.48 253.75 102.308 253.412C102.139 253.074 101.897 252.807 101.582 252.612C101.271 252.416 100.903 252.318 100.479 252.318C100.011 252.318 99.6068 252.434 99.2654 252.666C98.9274 252.895 98.6672 253.193 98.4849 253.561C98.3026 253.929 98.2115 254.323 98.2115 254.744V255.42C98.2115 255.997 98.3109 256.486 98.5098 256.887C98.7119 257.285 98.992 257.588 99.35 257.797C99.7079 258.002 100.124 258.105 100.598 258.105C100.906 258.105 101.184 258.062 101.433 257.976C101.685 257.886 101.902 257.754 102.084 257.578C102.267 257.399 102.407 257.177 102.507 256.912L103.64 257.23C103.521 257.615 103.321 257.953 103.039 258.244C102.757 258.533 102.409 258.758 101.995 258.92C101.581 259.08 101.115 259.159 100.598 259.159ZM107.792 259.179C107.308 259.179 106.869 259.088 106.474 258.906C106.08 258.72 105.767 258.453 105.535 258.105C105.303 257.754 105.187 257.33 105.187 256.832C105.187 256.395 105.273 256.04 105.445 255.768C105.617 255.493 105.848 255.278 106.136 255.122C106.425 254.966 106.743 254.85 107.091 254.774C107.442 254.695 107.795 254.632 108.15 254.585C108.614 254.526 108.99 254.481 109.278 254.451C109.57 254.418 109.782 254.363 109.915 254.287C110.05 254.211 110.118 254.078 110.118 253.889V253.849C110.118 253.359 109.984 252.978 109.716 252.706C109.451 252.434 109.048 252.298 108.508 252.298C107.948 252.298 107.508 252.421 107.19 252.666C106.872 252.911 106.648 253.173 106.519 253.452L105.405 253.054C105.604 252.59 105.869 252.229 106.201 251.97C106.536 251.708 106.9 251.526 107.295 251.423C107.692 251.317 108.083 251.264 108.468 251.264C108.713 251.264 108.995 251.294 109.313 251.354C109.635 251.41 109.944 251.528 110.243 251.707C110.544 251.886 110.795 252.156 110.993 252.517C111.192 252.878 111.292 253.362 111.292 253.969V259H110.118V257.966H110.059C109.979 258.132 109.847 258.309 109.661 258.498C109.475 258.687 109.229 258.848 108.92 258.98C108.612 259.113 108.236 259.179 107.792 259.179ZM107.971 258.125C108.435 258.125 108.826 258.034 109.144 257.852C109.465 257.669 109.707 257.434 109.87 257.146C110.036 256.857 110.118 256.554 110.118 256.236V255.162C110.069 255.222 109.959 255.276 109.79 255.326C109.625 255.372 109.432 255.414 109.214 255.45C108.998 255.483 108.788 255.513 108.582 255.54C108.38 255.563 108.216 255.583 108.09 255.599C107.785 255.639 107.5 255.704 107.235 255.793C106.973 255.879 106.761 256.01 106.599 256.186C106.439 256.358 106.36 256.594 106.36 256.892C106.36 257.3 106.511 257.608 106.812 257.817C107.117 258.022 107.503 258.125 107.971 258.125ZM116.317 259.159C115.68 259.159 115.119 258.998 114.631 258.677C114.144 258.352 113.763 257.895 113.488 257.305C113.213 256.711 113.075 256.01 113.075 255.202C113.075 254.4 113.213 253.704 113.488 253.114C113.763 252.524 114.146 252.068 114.636 251.746C115.127 251.425 115.694 251.264 116.337 251.264C116.834 251.264 117.227 251.347 117.515 251.513C117.807 251.675 118.029 251.861 118.181 252.07C118.337 252.275 118.458 252.444 118.544 252.577H118.643V248.818H119.817V259H118.683V257.827H118.544C118.458 257.966 118.335 258.142 118.176 258.354C118.017 258.562 117.79 258.75 117.495 258.915C117.2 259.078 116.807 259.159 116.317 259.159ZM116.476 258.105C116.946 258.105 117.344 257.982 117.669 257.737C117.994 257.489 118.241 257.146 118.41 256.708C118.579 256.267 118.663 255.759 118.663 255.182C118.663 254.612 118.58 254.113 118.415 253.685C118.249 253.254 118.004 252.92 117.679 252.681C117.354 252.439 116.953 252.318 116.476 252.318C115.979 252.318 115.564 252.446 115.233 252.701C114.905 252.953 114.658 253.296 114.492 253.73C114.33 254.161 114.249 254.645 114.249 255.182C114.249 255.725 114.331 256.219 114.497 256.663C114.666 257.104 114.915 257.455 115.243 257.717C115.574 257.976 115.985 258.105 116.476 258.105ZM122.129 259V251.364H123.302V259H122.129ZM122.725 250.091C122.496 250.091 122.299 250.013 122.134 249.857C121.971 249.701 121.89 249.514 121.89 249.295C121.89 249.077 121.971 248.889 122.134 248.734C122.299 248.578 122.496 248.5 122.725 248.5C122.954 248.5 123.149 248.578 123.312 248.734C123.478 248.889 123.56 249.077 123.56 249.295C123.56 249.514 123.478 249.701 123.312 249.857C123.149 250.013 122.954 250.091 122.725 250.091ZM126.624 254.406V259H125.451V251.364H126.584V252.557H126.684C126.863 252.169 127.135 251.857 127.499 251.622C127.864 251.384 128.334 251.264 128.911 251.264C129.428 251.264 129.881 251.37 130.268 251.582C130.656 251.791 130.958 252.109 131.173 252.537C131.389 252.961 131.496 253.498 131.496 254.148V259H130.323V254.227C130.323 253.627 130.167 253.16 129.856 252.825C129.544 252.487 129.117 252.318 128.573 252.318C128.198 252.318 127.864 252.399 127.569 252.562C127.277 252.724 127.047 252.961 126.878 253.273C126.709 253.584 126.624 253.962 126.624 254.406ZM136.723 262.023C136.156 262.023 135.669 261.95 135.261 261.804C134.853 261.661 134.514 261.473 134.242 261.237C133.973 261.005 133.76 260.757 133.6 260.491L134.535 259.835C134.641 259.974 134.775 260.134 134.938 260.312C135.1 260.495 135.322 260.652 135.604 260.785C135.889 260.921 136.262 260.989 136.723 260.989C137.339 260.989 137.848 260.839 138.249 260.541C138.65 260.243 138.85 259.776 138.85 259.139V257.588H138.751C138.665 257.727 138.542 257.9 138.383 258.105C138.227 258.307 138.002 258.488 137.707 258.647C137.415 258.803 137.021 258.881 136.524 258.881C135.907 258.881 135.354 258.735 134.863 258.443C134.376 258.152 133.99 257.727 133.705 257.17C133.423 256.614 133.282 255.937 133.282 255.142C133.282 254.36 133.42 253.679 133.695 253.099C133.97 252.515 134.353 252.065 134.843 251.746C135.334 251.425 135.901 251.264 136.544 251.264C137.041 251.264 137.435 251.347 137.727 251.513C138.022 251.675 138.247 251.861 138.403 252.07C138.562 252.275 138.685 252.444 138.771 252.577H138.89V251.364H140.024V259.219C140.024 259.875 139.875 260.409 139.576 260.82C139.281 261.234 138.884 261.537 138.383 261.729C137.886 261.925 137.333 262.023 136.723 262.023ZM136.683 257.827C137.154 257.827 137.551 257.719 137.876 257.504C138.201 257.288 138.448 256.978 138.617 256.574C138.786 256.17 138.87 255.686 138.87 255.122C138.87 254.572 138.788 254.086 138.622 253.665C138.456 253.245 138.211 252.915 137.886 252.676C137.561 252.437 137.16 252.318 136.683 252.318C136.186 252.318 135.771 252.444 135.44 252.696C135.112 252.948 134.865 253.286 134.699 253.71C134.537 254.134 134.456 254.605 134.456 255.122C134.456 255.652 134.538 256.121 134.704 256.529C134.873 256.933 135.122 257.252 135.45 257.484C135.781 257.712 136.192 257.827 136.683 257.827ZM150.922 255.878V251.364H152.095V259H150.922V257.707H150.842C150.663 258.095 150.385 258.425 150.007 258.697C149.629 258.965 149.152 259.099 148.575 259.099C148.098 259.099 147.673 258.995 147.302 258.786C146.931 258.574 146.639 258.256 146.427 257.832C146.215 257.404 146.109 256.866 146.109 256.216V251.364H147.282V256.136C147.282 256.693 147.438 257.137 147.75 257.469C148.065 257.8 148.466 257.966 148.953 257.966C149.244 257.966 149.541 257.891 149.843 257.742C150.148 257.593 150.403 257.364 150.608 257.056C150.817 256.748 150.922 256.355 150.922 255.878ZM155.417 254.406V259H154.244V251.364H155.377V252.557H155.477C155.656 252.169 155.927 251.857 156.292 251.622C156.657 251.384 157.127 251.264 157.704 251.264C158.221 251.264 158.673 251.37 159.061 251.582C159.449 251.791 159.751 252.109 159.966 252.537C160.182 252.961 160.289 253.498 160.289 254.148V259H159.116V254.227C159.116 253.627 158.96 253.16 158.649 252.825C158.337 252.487 157.91 252.318 157.366 252.318C156.991 252.318 156.657 252.399 156.362 252.562C156.07 252.724 155.84 252.961 155.671 253.273C155.502 253.584 155.417 253.962 155.417 254.406ZM165.317 259.159C164.68 259.159 164.119 258.998 163.631 258.677C163.144 258.352 162.763 257.895 162.488 257.305C162.213 256.711 162.075 256.01 162.075 255.202C162.075 254.4 162.213 253.704 162.488 253.114C162.763 252.524 163.146 252.068 163.636 251.746C164.127 251.425 164.694 251.264 165.337 251.264C165.834 251.264 166.227 251.347 166.515 251.513C166.807 251.675 167.029 251.861 167.181 252.07C167.337 252.275 167.458 252.444 167.544 252.577H167.643V248.818H168.817V259H167.683V257.827H167.544C167.458 257.966 167.335 258.142 167.176 258.354C167.017 258.562 166.79 258.75 166.495 258.915C166.2 259.078 165.807 259.159 165.317 259.159ZM165.476 258.105C165.946 258.105 166.344 257.982 166.669 257.737C166.994 257.489 167.241 257.146 167.41 256.708C167.579 256.267 167.663 255.759 167.663 255.182C167.663 254.612 167.58 254.113 167.415 253.685C167.249 253.254 167.004 252.92 166.679 252.681C166.354 252.439 165.953 252.318 165.476 252.318C164.979 252.318 164.564 252.446 164.233 252.701C163.905 252.953 163.658 253.296 163.492 253.73C163.33 254.161 163.249 254.645 163.249 255.182C163.249 255.725 163.331 256.219 163.497 256.663C163.666 257.104 163.915 257.455 164.243 257.717C164.574 257.976 164.985 258.105 165.476 258.105ZM174.33 259.159C173.594 259.159 172.96 258.997 172.426 258.672C171.896 258.344 171.487 257.886 171.198 257.3C170.913 256.71 170.771 256.024 170.771 255.241C170.771 254.459 170.913 253.77 171.198 253.173C171.487 252.573 171.888 252.106 172.401 251.771C172.918 251.433 173.522 251.264 174.211 251.264C174.609 251.264 175.001 251.33 175.389 251.463C175.777 251.596 176.13 251.811 176.448 252.109C176.766 252.404 177.02 252.795 177.209 253.283C177.398 253.77 177.492 254.37 177.492 255.082V255.58H171.606V254.565H176.299C176.299 254.134 176.213 253.75 176.04 253.412C175.871 253.074 175.629 252.807 175.315 252.612C175.003 252.416 174.635 252.318 174.211 252.318C173.744 252.318 173.339 252.434 172.998 252.666C172.66 252.895 172.4 253.193 172.217 253.561C172.035 253.929 171.944 254.323 171.944 254.744V255.42C171.944 255.997 172.043 256.486 172.242 256.887C172.444 257.285 172.724 257.588 173.082 257.797C173.44 258.002 173.856 258.105 174.33 258.105C174.638 258.105 174.917 258.062 175.165 257.976C175.417 257.886 175.634 257.754 175.817 257.578C175.999 257.399 176.14 257.177 176.239 256.912L177.373 257.23C177.254 257.615 177.053 257.953 176.771 258.244C176.49 258.533 176.142 258.758 175.727 258.92C175.313 259.08 174.847 259.159 174.33 259.159ZM179.277 259V251.364H180.411V252.517H180.49C180.629 252.139 180.881 251.833 181.246 251.597C181.61 251.362 182.021 251.244 182.479 251.244C182.565 251.244 182.673 251.246 182.802 251.249C182.931 251.253 183.029 251.258 183.095 251.264V252.457C183.055 252.447 182.964 252.433 182.822 252.413C182.683 252.389 182.535 252.378 182.379 252.378C182.008 252.378 181.677 252.456 181.385 252.612C181.097 252.764 180.868 252.976 180.699 253.248C180.533 253.516 180.45 253.823 180.45 254.168V259H179.277ZM189.895 253.074L188.841 253.372C188.775 253.196 188.677 253.026 188.548 252.86C188.422 252.691 188.249 252.552 188.031 252.442C187.812 252.333 187.532 252.278 187.191 252.278C186.723 252.278 186.334 252.386 186.022 252.602C185.714 252.814 185.56 253.084 185.56 253.412C185.56 253.704 185.666 253.934 185.878 254.103C186.09 254.272 186.422 254.413 186.872 254.526L188.006 254.804C188.689 254.97 189.197 255.223 189.532 255.565C189.867 255.903 190.034 256.339 190.034 256.872C190.034 257.31 189.908 257.701 189.656 258.045C189.408 258.39 189.06 258.662 188.612 258.861C188.165 259.06 187.645 259.159 187.051 259.159C186.272 259.159 185.628 258.99 185.117 258.652C184.607 258.314 184.284 257.82 184.148 257.17L185.262 256.892C185.368 257.303 185.568 257.611 185.863 257.817C186.161 258.022 186.551 258.125 187.031 258.125C187.578 258.125 188.012 258.009 188.334 257.777C188.659 257.542 188.821 257.26 188.821 256.932C188.821 256.667 188.728 256.445 188.543 256.266C188.357 256.083 188.072 255.947 187.688 255.858L186.415 255.56C185.716 255.394 185.202 255.137 184.874 254.789C184.549 254.438 184.387 253.999 184.387 253.472C184.387 253.041 184.508 252.66 184.749 252.328C184.995 251.997 185.328 251.737 185.749 251.548C186.173 251.359 186.654 251.264 187.191 251.264C187.946 251.264 188.539 251.43 188.97 251.761C189.405 252.093 189.713 252.53 189.895 253.074ZM194.903 259.159C194.187 259.159 193.57 258.99 193.053 258.652C192.536 258.314 192.138 257.848 191.86 257.255C191.582 256.662 191.442 255.984 191.442 255.222C191.442 254.446 191.585 253.762 191.87 253.168C192.158 252.572 192.559 252.106 193.073 251.771C193.59 251.433 194.193 251.264 194.883 251.264C195.42 251.264 195.904 251.364 196.335 251.562C196.765 251.761 197.118 252.04 197.393 252.398C197.669 252.756 197.839 253.173 197.906 253.651H196.732C196.643 253.303 196.444 252.994 196.136 252.726C195.831 252.454 195.42 252.318 194.903 252.318C194.445 252.318 194.044 252.437 193.7 252.676C193.358 252.911 193.091 253.245 192.899 253.675C192.71 254.103 192.616 254.605 192.616 255.182C192.616 255.772 192.709 256.286 192.894 256.723C193.083 257.161 193.348 257.5 193.69 257.742C194.034 257.984 194.439 258.105 194.903 258.105C195.208 258.105 195.484 258.052 195.733 257.946C195.982 257.84 196.192 257.688 196.364 257.489C196.537 257.29 196.659 257.051 196.732 256.773H197.906C197.839 257.223 197.675 257.629 197.413 257.991C197.155 258.349 196.812 258.634 196.384 258.846C195.96 259.055 195.466 259.159 194.903 259.159ZM202.723 259.159C202.034 259.159 201.429 258.995 200.908 258.667C200.391 258.339 199.987 257.88 199.695 257.29C199.407 256.7 199.263 256.01 199.263 255.222C199.263 254.426 199.407 253.732 199.695 253.138C199.987 252.545 200.391 252.085 200.908 251.756C201.429 251.428 202.034 251.264 202.723 251.264C203.412 251.264 204.016 251.428 204.533 251.756C205.053 252.085 205.457 252.545 205.746 253.138C206.037 253.732 206.183 254.426 206.183 255.222C206.183 256.01 206.037 256.7 205.746 257.29C205.457 257.88 205.053 258.339 204.533 258.667C204.016 258.995 203.412 259.159 202.723 259.159ZM202.723 258.105C203.247 258.105 203.678 257.971 204.016 257.702C204.354 257.434 204.604 257.081 204.766 256.643C204.929 256.206 205.01 255.732 205.01 255.222C205.01 254.711 204.929 254.236 204.766 253.795C204.604 253.354 204.354 252.998 204.016 252.726C203.678 252.454 203.247 252.318 202.723 252.318C202.199 252.318 201.768 252.454 201.43 252.726C201.092 252.998 200.842 253.354 200.68 253.795C200.517 254.236 200.436 254.711 200.436 255.222C200.436 255.732 200.517 256.206 200.68 256.643C200.842 257.081 201.092 257.434 201.43 257.702C201.768 257.971 202.199 258.105 202.723 258.105ZM207.974 259V251.364H209.108V252.517H209.187C209.327 252.139 209.578 251.833 209.943 251.597C210.308 251.362 210.719 251.244 211.176 251.244C211.262 251.244 211.37 251.246 211.499 251.249C211.628 251.253 211.726 251.258 211.792 251.264V252.457C211.753 252.447 211.662 252.433 211.519 252.413C211.38 252.389 211.232 252.378 211.077 252.378C210.705 252.378 210.374 252.456 210.082 252.612C209.794 252.764 209.565 252.976 209.396 253.248C209.23 253.516 209.148 253.823 209.148 254.168V259H207.974ZM216.153 259.159C215.417 259.159 214.782 258.997 214.248 258.672C213.718 258.344 213.309 257.886 213.02 257.3C212.735 256.71 212.593 256.024 212.593 255.241C212.593 254.459 212.735 253.77 213.02 253.173C213.309 252.573 213.71 252.106 214.224 251.771C214.741 251.433 215.344 251.264 216.033 251.264C216.431 251.264 216.824 251.33 217.211 251.463C217.599 251.596 217.952 251.811 218.27 252.109C218.589 252.404 218.842 252.795 219.031 253.283C219.22 253.77 219.314 254.37 219.314 255.082V255.58H213.428V254.565H218.121C218.121 254.134 218.035 253.75 217.863 253.412C217.694 253.074 217.452 252.807 217.137 252.612C216.825 252.416 216.457 252.318 216.033 252.318C215.566 252.318 215.162 252.434 214.82 252.666C214.482 252.895 214.222 253.193 214.04 253.561C213.857 253.929 213.766 254.323 213.766 254.744V255.42C213.766 255.997 213.866 256.486 214.064 256.887C214.267 257.285 214.547 257.588 214.905 257.797C215.263 258.002 215.679 258.105 216.153 258.105C216.461 258.105 216.739 258.062 216.988 257.976C217.24 257.886 217.457 257.754 217.639 257.578C217.821 257.399 217.962 257.177 218.062 256.912L219.195 257.23C219.076 257.615 218.875 257.953 218.594 258.244C218.312 258.533 217.964 258.758 217.55 258.92C217.135 259.08 216.67 259.159 216.153 259.159ZM222.849 257.608L222.77 258.145C222.713 258.523 222.627 258.927 222.511 259.358C222.398 259.789 222.281 260.195 222.158 260.576C222.036 260.957 221.934 261.26 221.855 261.486H220.96C221.003 261.274 221.059 260.994 221.129 260.646C221.199 260.298 221.268 259.908 221.338 259.477C221.411 259.05 221.47 258.612 221.517 258.165L221.577 257.608H222.849ZM228.961 261.864V251.364H230.094V252.577H230.233C230.319 252.444 230.439 252.275 230.591 252.07C230.747 251.861 230.969 251.675 231.257 251.513C231.549 251.347 231.944 251.264 232.441 251.264C233.084 251.264 233.65 251.425 234.141 251.746C234.632 252.068 235.014 252.524 235.289 253.114C235.565 253.704 235.702 254.4 235.702 255.202C235.702 256.01 235.565 256.711 235.289 257.305C235.014 257.895 234.633 258.352 234.146 258.677C233.659 258.998 233.097 259.159 232.461 259.159C231.97 259.159 231.577 259.078 231.282 258.915C230.987 258.75 230.76 258.562 230.601 258.354C230.442 258.142 230.319 257.966 230.233 257.827H230.134V261.864H228.961ZM230.114 255.182C230.114 255.759 230.199 256.267 230.368 256.708C230.537 257.146 230.783 257.489 231.108 257.737C231.433 257.982 231.831 258.105 232.301 258.105C232.792 258.105 233.201 257.976 233.529 257.717C233.861 257.455 234.109 257.104 234.275 256.663C234.444 256.219 234.529 255.725 234.529 255.182C234.529 254.645 234.446 254.161 234.28 253.73C234.118 253.296 233.871 252.953 233.539 252.701C233.211 252.446 232.799 252.318 232.301 252.318C231.824 252.318 231.423 252.439 231.098 252.681C230.774 252.92 230.528 253.254 230.363 253.685C230.197 254.113 230.114 254.612 230.114 255.182ZM240.694 259.159C239.958 259.159 239.323 258.997 238.789 258.672C238.259 258.344 237.85 257.886 237.561 257.3C237.276 256.71 237.134 256.024 237.134 255.241C237.134 254.459 237.276 253.77 237.561 253.173C237.85 252.573 238.251 252.106 238.765 251.771C239.282 251.433 239.885 251.264 240.574 251.264C240.972 251.264 241.365 251.33 241.752 251.463C242.14 251.596 242.493 251.811 242.811 252.109C243.13 252.404 243.383 252.795 243.572 253.283C243.761 253.77 243.855 254.37 243.855 255.082V255.58H237.969V254.565H242.662C242.662 254.134 242.576 253.75 242.404 253.412C242.235 253.074 241.993 252.807 241.678 252.612C241.366 252.416 240.998 252.318 240.574 252.318C240.107 252.318 239.703 252.434 239.361 252.666C239.023 252.895 238.763 253.193 238.581 253.561C238.398 253.929 238.307 254.323 238.307 254.744V255.42C238.307 255.997 238.407 256.486 238.605 256.887C238.808 257.285 239.088 257.588 239.446 257.797C239.804 258.002 240.22 258.105 240.694 258.105C241.002 258.105 241.28 258.062 241.529 257.976C241.781 257.886 241.998 257.754 242.18 257.578C242.362 257.399 242.503 257.177 242.603 256.912L243.736 257.23C243.617 257.615 243.416 257.953 243.135 258.244C242.853 258.533 242.505 258.758 242.091 258.92C241.676 259.08 241.211 259.159 240.694 259.159ZM245.64 259V251.364H246.774V252.517H246.853C246.993 252.139 247.244 251.833 247.609 251.597C247.974 251.362 248.385 251.244 248.842 251.244C248.928 251.244 249.036 251.246 249.165 251.249C249.294 251.253 249.392 251.258 249.458 251.264V252.457C249.419 252.447 249.328 252.433 249.185 252.413C249.046 252.389 248.898 252.378 248.743 252.378C248.371 252.378 248.04 252.456 247.748 252.612C247.46 252.764 247.231 252.976 247.062 253.248C246.896 253.516 246.814 253.823 246.814 254.168V259H245.64ZM250.849 259V251.364H252.023V259H250.849ZM251.446 250.091C251.217 250.091 251.02 250.013 250.854 249.857C250.692 249.701 250.611 249.514 250.611 249.295C250.611 249.077 250.692 248.889 250.854 248.734C251.02 248.578 251.217 248.5 251.446 248.5C251.675 248.5 251.87 248.578 252.032 248.734C252.198 248.889 252.281 249.077 252.281 249.295C252.281 249.514 252.198 249.701 252.032 249.857C251.87 250.013 251.675 250.091 251.446 250.091ZM257.274 259.159C256.584 259.159 255.98 258.995 255.459 258.667C254.942 258.339 254.538 257.88 254.246 257.29C253.958 256.7 253.814 256.01 253.814 255.222C253.814 254.426 253.958 253.732 254.246 253.138C254.538 252.545 254.942 252.085 255.459 251.756C255.98 251.428 256.584 251.264 257.274 251.264C257.963 251.264 258.566 251.428 259.083 251.756C259.604 252.085 260.008 252.545 260.297 253.138C260.588 253.732 260.734 254.426 260.734 255.222C260.734 256.01 260.588 256.7 260.297 257.29C260.008 257.88 259.604 258.339 259.083 258.667C258.566 258.995 257.963 259.159 257.274 259.159ZM257.274 258.105C257.797 258.105 258.228 257.971 258.566 257.702C258.904 257.434 259.155 257.081 259.317 256.643C259.48 256.206 259.561 255.732 259.561 255.222C259.561 254.711 259.48 254.236 259.317 253.795C259.155 253.354 258.904 252.998 258.566 252.726C258.228 252.454 257.797 252.318 257.274 252.318C256.75 252.318 256.319 252.454 255.981 252.726C255.643 252.998 255.393 253.354 255.23 253.795C255.068 254.236 254.987 254.711 254.987 255.222C254.987 255.732 255.068 256.206 255.23 256.643C255.393 257.081 255.643 257.434 255.981 257.702C256.319 257.971 256.75 258.105 257.274 258.105ZM265.409 259.159C264.772 259.159 264.21 258.998 263.723 258.677C263.236 258.352 262.855 257.895 262.58 257.305C262.305 256.711 262.167 256.01 262.167 255.202C262.167 254.4 262.305 253.704 262.58 253.114C262.855 252.524 263.238 252.068 263.728 251.746C264.219 251.425 264.785 251.264 265.428 251.264C265.926 251.264 266.318 251.347 266.607 251.513C266.898 251.675 267.12 251.861 267.273 252.07C267.429 252.275 267.55 252.444 267.636 252.577H267.735V248.818H268.909V259H267.775V257.827H267.636C267.55 257.966 267.427 258.142 267.268 258.354C267.109 258.562 266.882 258.75 266.587 258.915C266.292 259.078 265.899 259.159 265.409 259.159ZM265.568 258.105C266.038 258.105 266.436 257.982 266.761 257.737C267.086 257.489 267.333 257.146 267.502 256.708C267.671 256.267 267.755 255.759 267.755 255.182C267.755 254.612 267.672 254.113 267.507 253.685C267.341 253.254 267.096 252.92 266.771 252.681C266.446 252.439 266.045 252.318 265.568 252.318C265.07 252.318 264.656 252.446 264.325 252.701C263.997 252.953 263.75 253.296 263.584 253.73C263.422 254.161 263.34 254.645 263.34 255.182C263.34 255.725 263.423 256.219 263.589 256.663C263.758 257.104 264.007 257.455 264.335 257.717C264.666 257.976 265.077 258.105 265.568 258.105Z" fill="#616B7C"/>
<path d="M76.6506 304H75.358L79.0966 293.818H80.3693L84.108 304H82.8153L79.7727 295.429H79.6932L76.6506 304ZM77.1278 300.023H82.3381V301.116H77.1278V300.023ZM88.3773 296.364V297.358H84.4199V296.364H88.3773ZM85.5733 294.534H86.7466V301.812C86.7466 302.144 86.7947 302.393 86.8908 302.558C86.9902 302.721 87.1162 302.83 87.2686 302.886C87.4244 302.939 87.5885 302.966 87.7608 302.966C87.8901 302.966 87.9962 302.959 88.079 302.946C88.1619 302.929 88.2282 302.916 88.2779 302.906L88.5165 303.96C88.437 303.99 88.3259 304.02 88.1834 304.05C88.0409 304.083 87.8603 304.099 87.6415 304.099C87.3101 304.099 86.9853 304.028 86.6671 303.886C86.3522 303.743 86.0904 303.526 85.8816 303.234C85.6761 302.943 85.5733 302.575 85.5733 302.131V294.534ZM93.4632 296.364V297.358H89.5059V296.364H93.4632ZM90.6593 294.534H91.8326V301.812C91.8326 302.144 91.8806 302.393 91.9767 302.558C92.0762 302.721 92.2021 302.83 92.3546 302.886C92.5104 302.939 92.6744 302.966 92.8468 302.966C92.976 302.966 93.0821 302.959 93.165 302.946C93.2478 302.929 93.3141 302.916 93.3638 302.906L93.6025 303.96C93.5229 303.99 93.4119 304.02 93.2694 304.05C93.1268 304.083 92.9462 304.099 92.7275 304.099C92.396 304.099 92.0712 304.028 91.753 303.886C91.4382 303.743 91.1763 303.526 90.9675 303.234C90.762 302.943 90.6593 302.575 90.6593 302.131V294.534ZM95.2282 304V296.364H96.3617V297.517H96.4412C96.5804 297.139 96.8323 296.833 97.1969 296.597C97.5615 296.362 97.9725 296.244 98.4299 296.244C98.516 296.244 98.6238 296.246 98.753 296.249C98.8823 296.253 98.9801 296.258 99.0463 296.264V297.457C99.0066 297.447 98.9154 297.433 98.7729 297.413C98.6337 297.389 98.4862 297.378 98.3304 297.378C97.9592 297.378 97.6278 297.456 97.3361 297.612C97.0478 297.764 96.8191 297.976 96.65 298.248C96.4843 298.516 96.4015 298.823 96.4015 299.168V304H95.2282ZM100.437 304V296.364H101.61V304H100.437ZM101.034 295.091C100.805 295.091 100.608 295.013 100.442 294.857C100.28 294.701 100.199 294.514 100.199 294.295C100.199 294.077 100.28 293.889 100.442 293.734C100.608 293.578 100.805 293.5 101.034 293.5C101.262 293.5 101.458 293.578 101.62 293.734C101.786 293.889 101.869 294.077 101.869 294.295C101.869 294.514 101.786 294.701 101.62 294.857C101.458 295.013 101.262 295.091 101.034 295.091ZM103.919 304V293.818H105.092V297.577H105.191C105.277 297.444 105.397 297.275 105.549 297.07C105.705 296.861 105.927 296.675 106.215 296.513C106.507 296.347 106.901 296.264 107.399 296.264C108.042 296.264 108.608 296.425 109.099 296.746C109.589 297.068 109.972 297.524 110.247 298.114C110.522 298.704 110.66 299.4 110.66 300.202C110.66 301.01 110.522 301.711 110.247 302.305C109.972 302.895 109.591 303.352 109.104 303.677C108.617 303.998 108.055 304.159 107.419 304.159C106.928 304.159 106.535 304.078 106.24 303.915C105.945 303.75 105.718 303.562 105.559 303.354C105.4 303.142 105.277 302.966 105.191 302.827H105.052V304H103.919ZM105.072 300.182C105.072 300.759 105.156 301.267 105.325 301.708C105.494 302.146 105.741 302.489 106.066 302.737C106.391 302.982 106.789 303.105 107.259 303.105C107.75 303.105 108.159 302.976 108.487 302.717C108.819 302.455 109.067 302.104 109.233 301.663C109.402 301.219 109.487 300.725 109.487 300.182C109.487 299.645 109.404 299.161 109.238 298.73C109.076 298.296 108.829 297.953 108.497 297.701C108.169 297.446 107.757 297.318 107.259 297.318C106.782 297.318 106.381 297.439 106.056 297.681C105.731 297.92 105.486 298.254 105.32 298.685C105.155 299.113 105.072 299.612 105.072 300.182ZM117.267 300.878V296.364H118.441V304H117.267V302.707H117.188C117.009 303.095 116.73 303.425 116.352 303.697C115.975 303.965 115.497 304.099 114.921 304.099C114.443 304.099 114.019 303.995 113.648 303.786C113.277 303.574 112.985 303.256 112.773 302.832C112.561 302.404 112.455 301.866 112.455 301.216V296.364H113.628V301.136C113.628 301.693 113.784 302.137 114.095 302.469C114.41 302.8 114.811 302.966 115.298 302.966C115.59 302.966 115.887 302.891 116.188 302.742C116.493 302.593 116.749 302.364 116.954 302.056C117.163 301.748 117.267 301.355 117.267 300.878ZM123.911 296.364V297.358H119.953V296.364H123.911ZM121.107 294.534H122.28V301.812C122.28 302.144 122.328 302.393 122.424 302.558C122.523 302.721 122.649 302.83 122.802 302.886C122.958 302.939 123.122 302.966 123.294 302.966C123.423 302.966 123.529 302.959 123.612 302.946C123.695 302.929 123.761 302.916 123.811 302.906L124.05 303.96C123.97 303.99 123.859 304.02 123.717 304.05C123.574 304.083 123.393 304.099 123.175 304.099C122.843 304.099 122.518 304.028 122.2 303.886C121.885 303.743 121.624 303.526 121.415 303.234C121.209 302.943 121.107 302.575 121.107 302.131V294.534ZM128.795 304.159C128.059 304.159 127.425 303.997 126.891 303.672C126.361 303.344 125.951 302.886 125.663 302.3C125.378 301.71 125.235 301.024 125.235 300.241C125.235 299.459 125.378 298.77 125.663 298.173C125.951 297.573 126.352 297.106 126.866 296.771C127.383 296.433 127.986 296.264 128.676 296.264C129.074 296.264 129.466 296.33 129.854 296.463C130.242 296.596 130.595 296.811 130.913 297.109C131.231 297.404 131.485 297.795 131.674 298.283C131.863 298.77 131.957 299.37 131.957 300.082V300.58H126.071V299.565H130.764C130.764 299.134 130.678 298.75 130.505 298.412C130.336 298.074 130.094 297.807 129.779 297.612C129.468 297.416 129.1 297.318 128.676 297.318C128.208 297.318 127.804 297.434 127.463 297.666C127.125 297.895 126.864 298.193 126.682 298.561C126.5 298.929 126.409 299.323 126.409 299.744V300.42C126.409 300.997 126.508 301.486 126.707 301.887C126.909 302.285 127.189 302.588 127.547 302.797C127.905 303.002 128.321 303.105 128.795 303.105C129.103 303.105 129.382 303.062 129.63 302.976C129.882 302.886 130.099 302.754 130.282 302.578C130.464 302.399 130.605 302.177 130.704 301.912L131.838 302.23C131.718 302.615 131.518 302.953 131.236 303.244C130.954 303.533 130.606 303.758 130.192 303.92C129.778 304.08 129.312 304.159 128.795 304.159ZM141 296.364V297.358H137.043V296.364H141ZM138.196 294.534H139.37V301.812C139.37 302.144 139.418 302.393 139.514 302.558C139.613 302.721 139.739 302.83 139.892 302.886C140.047 302.939 140.212 302.966 140.384 302.966C140.513 302.966 140.619 302.959 140.702 302.946C140.785 302.929 140.851 302.916 140.901 302.906L141.14 303.96C141.06 303.99 140.949 304.02 140.806 304.05C140.664 304.083 140.483 304.099 140.265 304.099C139.933 304.099 139.608 304.028 139.29 303.886C138.975 303.743 138.713 303.526 138.505 303.234C138.299 302.943 138.196 302.575 138.196 302.131V294.534ZM143.521 306.864C143.322 306.864 143.145 306.847 142.989 306.814C142.833 306.784 142.725 306.754 142.666 306.724L142.964 305.69C143.249 305.763 143.501 305.79 143.72 305.77C143.939 305.75 144.132 305.652 144.301 305.477C144.474 305.304 144.631 305.024 144.774 304.636L144.993 304.04L142.169 296.364H143.441L145.549 302.449H145.629L147.737 296.364H149.01L145.768 305.114C145.622 305.508 145.442 305.835 145.226 306.093C145.011 306.355 144.761 306.549 144.475 306.675C144.194 306.801 143.876 306.864 143.521 306.864ZM150.558 306.864V296.364H151.692V297.577H151.831C151.917 297.444 152.036 297.275 152.189 297.07C152.345 296.861 152.567 296.675 152.855 296.513C153.147 296.347 153.541 296.264 154.038 296.264C154.681 296.264 155.248 296.425 155.739 296.746C156.229 297.068 156.612 297.524 156.887 298.114C157.162 298.704 157.3 299.4 157.3 300.202C157.3 301.01 157.162 301.711 156.887 302.305C156.612 302.895 156.231 303.352 155.744 303.677C155.256 303.998 154.695 304.159 154.058 304.159C153.568 304.159 153.175 304.078 152.88 303.915C152.585 303.75 152.358 303.562 152.199 303.354C152.04 303.142 151.917 302.966 151.831 302.827H151.732V306.864H150.558ZM151.712 300.182C151.712 300.759 151.796 301.267 151.965 301.708C152.134 302.146 152.381 302.489 152.706 302.737C153.031 302.982 153.429 303.105 153.899 303.105C154.39 303.105 154.799 302.976 155.127 302.717C155.459 302.455 155.707 302.104 155.873 301.663C156.042 301.219 156.126 300.725 156.126 300.182C156.126 299.645 156.044 299.161 155.878 298.73C155.715 298.296 155.469 297.953 155.137 297.701C154.809 297.446 154.396 297.318 153.899 297.318C153.422 297.318 153.021 297.439 152.696 297.681C152.371 297.92 152.126 298.254 151.96 298.685C151.795 299.113 151.712 299.612 151.712 300.182ZM162.291 304.159C161.555 304.159 160.921 303.997 160.387 303.672C159.857 303.344 159.447 302.886 159.159 302.3C158.874 301.71 158.732 301.024 158.732 300.241C158.732 299.459 158.874 298.77 159.159 298.173C159.447 297.573 159.848 297.106 160.362 296.771C160.879 296.433 161.482 296.264 162.172 296.264C162.57 296.264 162.962 296.33 163.35 296.463C163.738 296.596 164.091 296.811 164.409 297.109C164.727 297.404 164.981 297.795 165.17 298.283C165.359 298.77 165.453 299.37 165.453 300.082V300.58H159.567V299.565H164.26C164.26 299.134 164.174 298.75 164.001 298.412C163.832 298.074 163.59 297.807 163.276 297.612C162.964 297.416 162.596 297.318 162.172 297.318C161.705 297.318 161.3 297.434 160.959 297.666C160.621 297.895 160.361 298.193 160.178 298.561C159.996 298.929 159.905 299.323 159.905 299.744V300.42C159.905 300.997 160.004 301.486 160.203 301.887C160.405 302.285 160.685 302.588 161.043 302.797C161.401 303.002 161.817 303.105 162.291 303.105C162.599 303.105 162.878 303.062 163.126 302.976C163.378 302.886 163.595 302.754 163.778 302.578C163.96 302.399 164.101 302.177 164.2 301.912L165.334 302.23C165.214 302.615 165.014 302.953 164.732 303.244C164.451 303.533 164.103 303.758 163.688 303.92C163.274 304.08 162.808 304.159 162.291 304.159Z" fill="#373B4D"/>
<rect x="75.5" y="313.5" width="540" height="39" rx="3.5" fill="white"/>
<path d="M97.8011 330.864C97.7415 330.36 97.4995 329.969 97.0753 329.69C96.651 329.412 96.1307 329.273 95.5142 329.273C95.0634 329.273 94.669 329.346 94.331 329.491C93.9962 329.637 93.7344 329.838 93.5455 330.093C93.3598 330.348 93.267 330.638 93.267 330.963C93.267 331.235 93.3317 331.469 93.4609 331.664C93.5935 331.856 93.7625 332.017 93.968 332.146C94.1735 332.272 94.389 332.377 94.6143 332.46C94.8397 332.539 95.0469 332.604 95.2358 332.653L96.2699 332.932C96.535 333.001 96.83 333.098 97.1548 333.22C97.483 333.343 97.7962 333.51 98.0945 333.722C98.3961 333.931 98.6446 334.2 98.8402 334.528C99.0357 334.856 99.1335 335.259 99.1335 335.736C99.1335 336.286 98.9893 336.783 98.701 337.227C98.416 337.671 97.9983 338.024 97.4482 338.286C96.9013 338.548 96.2367 338.679 95.4545 338.679C94.7254 338.679 94.094 338.561 93.5604 338.326C93.0301 338.091 92.6125 337.763 92.3075 337.342C92.0059 336.921 91.8352 336.432 91.7955 335.875H93.0682C93.1013 336.259 93.2306 336.578 93.456 336.83C93.6847 337.078 93.973 337.264 94.321 337.386C94.6723 337.506 95.0502 337.565 95.4545 337.565C95.9252 337.565 96.3478 337.489 96.7223 337.337C97.0968 337.181 97.3935 336.965 97.6122 336.69C97.831 336.412 97.9403 336.087 97.9403 335.716C97.9403 335.378 97.8459 335.103 97.657 334.891C97.468 334.679 97.2195 334.506 96.9112 334.374C96.603 334.241 96.2699 334.125 95.9119 334.026L94.6591 333.668C93.8636 333.439 93.2339 333.112 92.7699 332.688C92.3059 332.264 92.0739 331.709 92.0739 331.023C92.0739 330.453 92.228 329.955 92.5362 329.531C92.8478 329.104 93.2654 328.772 93.7891 328.537C94.3161 328.298 94.9044 328.179 95.554 328.179C96.2102 328.179 96.7936 328.297 97.304 328.532C97.8144 328.764 98.2188 329.082 98.517 329.487C98.8187 329.891 98.9777 330.35 98.9943 330.864H97.8011ZM104.203 338.659C103.468 338.659 102.833 338.497 102.299 338.172C101.769 337.844 101.36 337.386 101.071 336.8C100.786 336.21 100.644 335.524 100.644 334.741C100.644 333.959 100.786 333.27 101.071 332.673C101.36 332.073 101.761 331.606 102.274 331.271C102.791 330.933 103.395 330.764 104.084 330.764C104.482 330.764 104.874 330.83 105.262 330.963C105.65 331.096 106.003 331.311 106.321 331.609C106.639 331.904 106.893 332.295 107.082 332.783C107.271 333.27 107.365 333.87 107.365 334.582V335.08H101.479V334.065H106.172C106.172 333.634 106.086 333.25 105.914 332.912C105.744 332.574 105.503 332.307 105.188 332.112C104.876 331.916 104.508 331.818 104.084 331.818C103.617 331.818 103.212 331.934 102.871 332.166C102.533 332.395 102.273 332.693 102.09 333.061C101.908 333.429 101.817 333.823 101.817 334.244V334.92C101.817 335.497 101.916 335.986 102.115 336.387C102.317 336.785 102.597 337.088 102.955 337.297C103.313 337.502 103.729 337.605 104.203 337.605C104.512 337.605 104.79 337.562 105.039 337.476C105.29 337.386 105.508 337.254 105.69 337.078C105.872 336.899 106.013 336.677 106.112 336.412L107.246 336.73C107.127 337.115 106.926 337.453 106.644 337.744C106.363 338.033 106.015 338.258 105.6 338.42C105.186 338.58 104.72 338.659 104.203 338.659ZM110.323 328.318V338.5H109.15V328.318H110.323ZM115.674 338.659C114.938 338.659 114.304 338.497 113.77 338.172C113.24 337.844 112.83 337.386 112.542 336.8C112.257 336.21 112.114 335.524 112.114 334.741C112.114 333.959 112.257 333.27 112.542 332.673C112.83 332.073 113.231 331.606 113.745 331.271C114.262 330.933 114.865 330.764 115.555 330.764C115.952 330.764 116.345 330.83 116.733 330.963C117.121 331.096 117.474 331.311 117.792 331.609C118.11 331.904 118.364 332.295 118.553 332.783C118.741 333.27 118.836 333.87 118.836 334.582V335.08H112.95V334.065H117.643C117.643 333.634 117.557 333.25 117.384 332.912C117.215 332.574 116.973 332.307 116.658 332.112C116.347 331.916 115.979 331.818 115.555 331.818C115.087 331.818 114.683 331.934 114.342 332.166C114.004 332.395 113.743 332.693 113.561 333.061C113.379 333.429 113.288 333.823 113.288 334.244V334.92C113.288 335.497 113.387 335.986 113.586 336.387C113.788 336.785 114.068 337.088 114.426 337.297C114.784 337.502 115.2 337.605 115.674 337.605C115.982 337.605 116.261 337.562 116.509 337.476C116.761 337.386 116.978 337.254 117.161 337.078C117.343 336.899 117.484 336.677 117.583 336.412L118.717 336.73C118.597 337.115 118.397 337.453 118.115 337.744C117.833 338.033 117.485 338.258 117.071 338.42C116.657 338.58 116.191 338.659 115.674 338.659ZM123.723 338.659C123.007 338.659 122.391 338.49 121.874 338.152C121.357 337.814 120.959 337.348 120.68 336.755C120.402 336.162 120.263 335.484 120.263 334.722C120.263 333.946 120.405 333.262 120.69 332.668C120.979 332.072 121.38 331.606 121.893 331.271C122.411 330.933 123.014 330.764 123.703 330.764C124.24 330.764 124.724 330.864 125.155 331.062C125.586 331.261 125.939 331.54 126.214 331.898C126.489 332.256 126.66 332.673 126.726 333.151H125.553C125.463 332.803 125.264 332.494 124.956 332.226C124.651 331.954 124.24 331.818 123.723 331.818C123.266 331.818 122.865 331.937 122.52 332.176C122.179 332.411 121.912 332.745 121.719 333.175C121.531 333.603 121.436 334.105 121.436 334.682C121.436 335.272 121.529 335.786 121.714 336.223C121.903 336.661 122.169 337 122.51 337.242C122.855 337.484 123.259 337.605 123.723 337.605C124.028 337.605 124.305 337.552 124.553 337.446C124.802 337.34 125.012 337.188 125.185 336.989C125.357 336.79 125.48 336.551 125.553 336.273H126.726C126.66 336.723 126.496 337.129 126.234 337.491C125.975 337.849 125.632 338.134 125.205 338.346C124.78 338.555 124.286 338.659 123.723 338.659ZM131.762 330.864V331.858H127.805V330.864H131.762ZM128.958 329.034H130.131V336.312C130.131 336.644 130.179 336.893 130.276 337.058C130.375 337.221 130.501 337.33 130.653 337.386C130.809 337.439 130.973 337.466 131.146 337.466C131.275 337.466 131.381 337.459 131.464 337.446C131.547 337.429 131.613 337.416 131.663 337.406L131.901 338.46C131.822 338.49 131.711 338.52 131.568 338.55C131.426 338.583 131.245 338.599 131.026 338.599C130.695 338.599 130.37 338.528 130.052 338.386C129.737 338.243 129.475 338.026 129.266 337.734C129.061 337.443 128.958 337.075 128.958 336.631V329.034ZM140.786 330.864V331.858H136.828V330.864H140.786ZM137.982 329.034H139.155V336.312C139.155 336.644 139.203 336.893 139.299 337.058C139.398 337.221 139.524 337.33 139.677 337.386C139.833 337.439 139.997 337.466 140.169 337.466C140.298 337.466 140.404 337.459 140.487 337.446C140.57 337.429 140.636 337.416 140.686 337.406L140.925 338.46C140.845 338.49 140.734 338.52 140.592 338.55C140.449 338.583 140.268 338.599 140.05 338.599C139.718 338.599 139.393 338.528 139.075 338.386C138.76 338.243 138.499 338.026 138.29 337.734C138.084 337.443 137.982 337.075 137.982 336.631V329.034ZM143.306 341.364C143.107 341.364 142.93 341.347 142.774 341.314C142.618 341.284 142.511 341.254 142.451 341.224L142.749 340.19C143.034 340.263 143.286 340.29 143.505 340.27C143.724 340.25 143.918 340.152 144.087 339.977C144.259 339.804 144.416 339.524 144.559 339.136L144.778 338.54L141.954 330.864H143.227L145.335 336.949H145.414L147.522 330.864H148.795L145.553 339.614C145.407 340.008 145.227 340.335 145.011 340.593C144.796 340.855 144.546 341.049 144.261 341.175C143.979 341.301 143.661 341.364 143.306 341.364ZM150.343 341.364V330.864H151.477V332.077H151.616C151.702 331.944 151.822 331.775 151.974 331.57C152.13 331.361 152.352 331.175 152.64 331.013C152.932 330.847 153.326 330.764 153.824 330.764C154.467 330.764 155.033 330.925 155.524 331.246C156.014 331.568 156.397 332.024 156.672 332.614C156.947 333.204 157.085 333.9 157.085 334.702C157.085 335.51 156.947 336.211 156.672 336.805C156.397 337.395 156.016 337.852 155.529 338.177C155.042 338.498 154.48 338.659 153.843 338.659C153.353 338.659 152.96 338.578 152.665 338.415C152.37 338.25 152.143 338.062 151.984 337.854C151.825 337.642 151.702 337.466 151.616 337.327H151.517V341.364H150.343ZM151.497 334.682C151.497 335.259 151.581 335.767 151.75 336.208C151.919 336.646 152.166 336.989 152.491 337.237C152.816 337.482 153.214 337.605 153.684 337.605C154.175 337.605 154.584 337.476 154.912 337.217C155.244 336.955 155.492 336.604 155.658 336.163C155.827 335.719 155.912 335.225 155.912 334.682C155.912 334.145 155.829 333.661 155.663 333.23C155.501 332.796 155.254 332.453 154.922 332.201C154.594 331.946 154.181 331.818 153.684 331.818C153.207 331.818 152.806 331.939 152.481 332.181C152.156 332.42 151.911 332.754 151.745 333.185C151.58 333.613 151.497 334.112 151.497 334.682ZM162.076 338.659C161.341 338.659 160.706 338.497 160.172 338.172C159.642 337.844 159.233 337.386 158.944 336.8C158.659 336.21 158.517 335.524 158.517 334.741C158.517 333.959 158.659 333.27 158.944 332.673C159.233 332.073 159.634 331.606 160.147 331.271C160.664 330.933 161.268 330.764 161.957 330.764C162.355 330.764 162.748 330.83 163.135 330.963C163.523 331.096 163.876 331.311 164.194 331.609C164.512 331.904 164.766 332.295 164.955 332.783C165.144 333.27 165.238 333.87 165.238 334.582V335.08H159.352V334.065H164.045C164.045 333.634 163.959 333.25 163.787 332.912C163.618 332.574 163.376 332.307 163.061 332.112C162.749 331.916 162.381 331.818 161.957 331.818C161.49 331.818 161.085 331.934 160.744 332.166C160.406 332.395 160.146 332.693 159.963 333.061C159.781 333.429 159.69 333.823 159.69 334.244V334.92C159.69 335.497 159.789 335.986 159.988 336.387C160.19 336.785 160.471 337.088 160.828 337.297C161.186 337.502 161.602 337.605 162.076 337.605C162.385 337.605 162.663 337.562 162.912 337.476C163.163 337.386 163.381 337.254 163.563 337.078C163.745 336.899 163.886 336.677 163.985 336.412L165.119 336.73C165 337.115 164.799 337.453 164.517 337.744C164.236 338.033 163.888 338.258 163.473 338.42C163.059 338.58 162.593 338.659 162.076 338.659Z" fill="#616B7C"/>
<rect x="75.5" y="313.5" width="540" height="39" rx="3.5" stroke="#E8E9F0"/>
<rect width="605" height="104" transform="translate(43 353)" fill="white"/>
<line x1="43" y1="384.5" x2="648" y2="384.5" stroke="#F2F2F8"/>
<rect x="42.5" y="60.5" width="606" height="429" rx="16.5" stroke="#F2F2F8"/>
<g filter="url(#filter0_b_245_56294)">
<rect x="68" y="277" width="485" height="72" fill="white" fill-opacity="0.7"/>
</g>
<g filter="url(#filter1_b_245_56294)">
<rect x="68" y="68" width="485" height="78" fill="white" fill-opacity="0.7"/>
</g>
</g>
<rect x="0.5" y="0.5" width="553" height="393.5" rx="16.5" stroke="#F2F2F8"/>
<defs>
<filter id="filter0_b_245_56294" x="60" y="269" width="501" height="88" filterUnits="userSpaceOnUse" color-interpolation-filters="sRGB">
<feFlood flood-opacity="0" result="BackgroundImageFix"/>
<feGaussianBlur in="BackgroundImageFix" stdDeviation="4"/>
<feComposite in2="SourceAlpha" operator="in" result="effect1_backgroundBlur_245_56294"/>
<feBlend mode="normal" in="SourceGraphic" in2="effect1_backgroundBlur_245_56294" result="shape"/>
</filter>
<filter id="filter1_b_245_56294" x="60" y="60" width="501" height="94" filterUnits="userSpaceOnUse" color-interpolation-filters="sRGB">
<feFlood flood-opacity="0" result="BackgroundImageFix"/>
<feGaussianBlur in="BackgroundImageFix" stdDeviation="4"/>
<feComposite in2="SourceAlpha" operator="in" result="effect1_backgroundBlur_245_56294"/>
<feBlend mode="normal" in="SourceGraphic" in2="effect1_backgroundBlur_245_56294" result="shape"/>
</filter>
<clipPath id="clip0_245_56294">
<rect x="1" y="1" width="552" height="392.5" rx="16" fill="white"/>
</clipPath>
</defs>
</svg>
