<svg width="554" height="395" viewBox="0 0 554 395" fill="none" xmlns="http://www.w3.org/2000/svg">
<g clip-path="url(#clip0_245_56281)">
<rect x="1" y="1" width="553" height="393" rx="16" fill="#FCFCFF"/>
<rect x="43.5" y="61.5" width="604" height="410" rx="15.5" fill="white"/>
<path d="M75.888 110.624C75.888 108.992 76.264 107.528 77.016 106.232C77.784 104.936 78.816 103.928 80.112 103.208C81.424 102.472 82.856 102.104 84.408 102.104C86.184 102.104 87.76 102.544 89.136 103.424C90.528 104.288 91.536 105.52 92.16 107.12H88.872C88.44 106.24 87.84 105.584 87.072 105.152C86.304 104.72 85.416 104.504 84.408 104.504C83.304 104.504 82.32 104.752 81.456 105.248C80.592 105.744 79.912 106.456 79.416 107.384C78.936 108.312 78.696 109.392 78.696 110.624C78.696 111.856 78.936 112.936 79.416 113.864C79.912 114.792 80.592 115.512 81.456 116.024C82.32 116.52 83.304 116.768 84.408 116.768C85.416 116.768 86.304 116.552 87.072 116.12C87.84 115.688 88.44 115.032 88.872 114.152H92.16C91.536 115.752 90.528 116.984 89.136 117.848C87.76 118.712 86.184 119.144 84.408 119.144C82.84 119.144 81.408 118.784 80.112 118.064C78.816 117.328 77.784 116.312 77.016 115.016C76.264 113.72 75.888 112.256 75.888 110.624ZM98.0985 107.696C98.4985 107.024 99.0265 106.504 99.6825 106.136C100.355 105.752 101.147 105.56 102.059 105.56V108.392H101.363C100.291 108.392 99.4745 108.664 98.9145 109.208C98.3705 109.752 98.0985 110.696 98.0985 112.04V119H95.3625V105.776H98.0985V107.696ZM116.693 112.064C116.693 112.56 116.661 113.008 116.597 113.408H106.493C106.573 114.464 106.965 115.312 107.669 115.952C108.373 116.592 109.237 116.912 110.261 116.912C111.733 116.912 112.773 116.296 113.381 115.064H116.333C115.933 116.28 115.205 117.28 114.149 118.064C113.109 118.832 111.813 119.216 110.261 119.216C108.997 119.216 107.861 118.936 106.853 118.376C105.861 117.8 105.077 117 104.501 115.976C103.941 114.936 103.661 113.736 103.661 112.376C103.661 111.016 103.933 109.824 104.477 108.8C105.037 107.76 105.813 106.96 106.805 106.4C107.813 105.84 108.965 105.56 110.261 105.56C111.509 105.56 112.621 105.832 113.597 106.376C114.573 106.92 115.333 107.688 115.877 108.68C116.421 109.656 116.693 110.784 116.693 112.064ZM113.837 111.2C113.821 110.192 113.461 109.384 112.757 108.776C112.053 108.168 111.181 107.864 110.141 107.864C109.197 107.864 108.389 108.168 107.717 108.776C107.045 109.368 106.645 110.176 106.517 111.2H113.837ZM118.474 112.328C118.474 111 118.746 109.824 119.29 108.8C119.85 107.776 120.602 106.984 121.546 106.424C122.506 105.848 123.562 105.56 124.714 105.56C125.754 105.56 126.658 105.768 127.426 106.184C128.21 106.584 128.834 107.088 129.298 107.696V105.776H132.058V119H129.298V117.032C128.834 117.656 128.202 118.176 127.402 118.592C126.602 119.008 125.69 119.216 124.666 119.216C123.53 119.216 122.49 118.928 121.546 118.352C120.602 117.76 119.85 116.944 119.29 115.904C118.746 114.848 118.474 113.656 118.474 112.328ZM129.298 112.376C129.298 111.464 129.106 110.672 128.722 110C128.354 109.328 127.866 108.816 127.258 108.464C126.65 108.112 125.994 107.936 125.29 107.936C124.586 107.936 123.93 108.112 123.322 108.464C122.714 108.8 122.218 109.304 121.834 109.976C121.466 110.632 121.282 111.416 121.282 112.328C121.282 113.24 121.466 114.04 121.834 114.728C122.218 115.416 122.714 115.944 123.322 116.312C123.946 116.664 124.602 116.84 125.29 116.84C125.994 116.84 126.65 116.664 127.258 116.312C127.866 115.96 128.354 115.448 128.722 114.776C129.106 114.088 129.298 113.288 129.298 112.376ZM138.844 108.008V115.328C138.844 115.824 138.956 116.184 139.18 116.408C139.42 116.616 139.82 116.72 140.38 116.72H142.06V119H139.9C138.668 119 137.724 118.712 137.068 118.136C136.412 117.56 136.084 116.624 136.084 115.328V108.008H134.524V105.776H136.084V102.488H138.844V105.776H142.06V108.008H138.844ZM156.701 112.064C156.701 112.56 156.669 113.008 156.605 113.408H146.501C146.581 114.464 146.973 115.312 147.677 115.952C148.381 116.592 149.245 116.912 150.269 116.912C151.741 116.912 152.781 116.296 153.389 115.064H156.341C155.941 116.28 155.213 117.28 154.157 118.064C153.117 118.832 151.821 119.216 150.269 119.216C149.005 119.216 147.869 118.936 146.861 118.376C145.869 117.8 145.085 117 144.509 115.976C143.949 114.936 143.669 113.736 143.669 112.376C143.669 111.016 143.941 109.824 144.485 108.8C145.045 107.76 145.821 106.96 146.813 106.4C147.821 105.84 148.973 105.56 150.269 105.56C151.517 105.56 152.629 105.832 153.605 106.376C154.581 106.92 155.341 107.688 155.885 108.68C156.429 109.656 156.701 110.784 156.701 112.064ZM153.845 111.2C153.829 110.192 153.469 109.384 152.765 108.776C152.061 108.168 151.189 107.864 150.149 107.864C149.205 107.864 148.397 108.168 147.725 108.776C147.053 109.368 146.653 110.176 146.525 111.2H153.845ZM175.684 115.592H168.7L167.5 119H164.644L170.62 102.296H173.788L179.764 119H176.884L175.684 115.592ZM174.916 113.36L172.204 105.608L169.468 113.36H174.916ZM185.555 108.008V115.328C185.555 115.824 185.667 116.184 185.891 116.408C186.131 116.616 186.531 116.72 187.091 116.72H188.771V119H186.611C185.379 119 184.435 118.712 183.779 118.136C183.123 117.56 182.795 116.624 182.795 115.328V108.008H181.235V105.776H182.795V102.488H185.555V105.776H188.771V108.008H185.555ZM194.484 108.008V115.328C194.484 115.824 194.596 116.184 194.82 116.408C195.06 116.616 195.46 116.72 196.02 116.72H197.7V119H195.54C194.308 119 193.364 118.712 192.708 118.136C192.052 117.56 191.724 116.624 191.724 115.328V108.008H190.164V105.776H191.724V102.488H194.484V105.776H197.7V108.008H194.484ZM202.958 107.696C203.358 107.024 203.886 106.504 204.542 106.136C205.214 105.752 206.006 105.56 206.918 105.56V108.392H206.222C205.15 108.392 204.334 108.664 203.774 109.208C203.23 109.752 202.958 110.696 202.958 112.04V119H200.222V105.776H202.958V107.696ZM210.825 104.024C210.329 104.024 209.913 103.856 209.577 103.52C209.241 103.184 209.073 102.768 209.073 102.272C209.073 101.776 209.241 101.36 209.577 101.024C209.913 100.688 210.329 100.52 210.825 100.52C211.305 100.52 211.713 100.688 212.049 101.024C212.385 101.36 212.553 101.776 212.553 102.272C212.553 102.768 212.385 103.184 212.049 103.52C211.713 103.856 211.305 104.024 210.825 104.024ZM212.169 105.776V119H209.433V105.776H212.169ZM218.497 107.744C218.961 107.104 219.593 106.584 220.393 106.184C221.209 105.768 222.113 105.56 223.105 105.56C224.273 105.56 225.329 105.84 226.273 106.4C227.217 106.96 227.961 107.76 228.505 108.8C229.049 109.824 229.321 111 229.321 112.328C229.321 113.656 229.049 114.848 228.505 115.904C227.961 116.944 227.209 117.76 226.249 118.352C225.305 118.928 224.257 119.216 223.105 119.216C222.081 119.216 221.169 119.016 220.369 118.616C219.585 118.216 218.961 117.704 218.497 117.08V119H215.761V101.24H218.497V107.744ZM226.537 112.328C226.537 111.416 226.345 110.632 225.961 109.976C225.593 109.304 225.097 108.8 224.473 108.464C223.865 108.112 223.209 107.936 222.505 107.936C221.817 107.936 221.161 108.112 220.537 108.464C219.929 108.816 219.433 109.328 219.049 110C218.681 110.672 218.497 111.464 218.497 112.376C218.497 113.288 218.681 114.088 219.049 114.776C219.433 115.448 219.929 115.96 220.537 116.312C221.161 116.664 221.817 116.84 222.505 116.84C223.209 116.84 223.865 116.664 224.473 116.312C225.097 115.944 225.593 115.416 225.961 114.728C226.345 114.04 226.537 113.24 226.537 112.328ZM244.003 105.776V119H241.267V117.44C240.835 117.984 240.267 118.416 239.563 118.736C238.875 119.04 238.139 119.192 237.355 119.192C236.315 119.192 235.379 118.976 234.547 118.544C233.731 118.112 233.083 117.472 232.603 116.624C232.139 115.776 231.907 114.752 231.907 113.552V105.776H234.619V113.144C234.619 114.328 234.915 115.24 235.507 115.88C236.099 116.504 236.907 116.816 237.931 116.816C238.955 116.816 239.763 116.504 240.355 115.88C240.963 115.24 241.267 114.328 241.267 113.144V105.776H244.003ZM250.805 108.008V115.328C250.805 115.824 250.917 116.184 251.141 116.408C251.381 116.616 251.781 116.72 252.341 116.72H254.021V119H251.861C250.629 119 249.685 118.712 249.029 118.136C248.373 117.56 248.045 116.624 248.045 115.328V108.008H246.485V105.776H248.045V102.488H250.805V105.776H254.021V108.008H250.805ZM268.662 112.064C268.662 112.56 268.63 113.008 268.566 113.408H258.462C258.542 114.464 258.934 115.312 259.638 115.952C260.342 116.592 261.206 116.912 262.23 116.912C263.702 116.912 264.742 116.296 265.35 115.064H268.302C267.902 116.28 267.174 117.28 266.118 118.064C265.078 118.832 263.782 119.216 262.23 119.216C260.966 119.216 259.83 118.936 258.822 118.376C257.83 117.8 257.046 117 256.47 115.976C255.91 114.936 255.63 113.736 255.63 112.376C255.63 111.016 255.902 109.824 256.446 108.8C257.006 107.76 257.782 106.96 258.774 106.4C259.782 105.84 260.934 105.56 262.23 105.56C263.478 105.56 264.59 105.832 265.566 106.376C266.542 106.92 267.302 107.688 267.846 108.68C268.39 109.656 268.662 110.784 268.662 112.064ZM265.806 111.2C265.79 110.192 265.43 109.384 264.726 108.776C264.022 108.168 263.15 107.864 262.11 107.864C261.166 107.864 260.358 108.168 259.686 108.776C259.014 109.368 258.614 110.176 258.486 111.2H265.806Z" fill="#373B4D"/>
<path d="M76.6506 169H75.358L79.0966 158.818H80.3693L84.108 169H82.8153L79.7727 160.429H79.6932L76.6506 169ZM77.1278 165.023H82.3381V166.116H77.1278V165.023ZM88.3773 161.364V162.358H84.4199V161.364H88.3773ZM85.5733 159.534H86.7466V166.812C86.7466 167.144 86.7947 167.393 86.8908 167.558C86.9902 167.721 87.1162 167.83 87.2686 167.886C87.4244 167.939 87.5885 167.966 87.7608 167.966C87.8901 167.966 87.9962 167.959 88.079 167.946C88.1619 167.929 88.2282 167.916 88.2779 167.906L88.5165 168.96C88.437 168.99 88.3259 169.02 88.1834 169.05C88.0409 169.083 87.8603 169.099 87.6415 169.099C87.3101 169.099 86.9853 169.028 86.6671 168.886C86.3522 168.743 86.0904 168.526 85.8816 168.234C85.6761 167.943 85.5733 167.575 85.5733 167.131V159.534ZM93.4632 161.364V162.358H89.5059V161.364H93.4632ZM90.6593 159.534H91.8326V166.812C91.8326 167.144 91.8806 167.393 91.9767 167.558C92.0762 167.721 92.2021 167.83 92.3546 167.886C92.5104 167.939 92.6744 167.966 92.8468 167.966C92.976 167.966 93.0821 167.959 93.165 167.946C93.2478 167.929 93.3141 167.916 93.3638 167.906L93.6025 168.96C93.5229 168.99 93.4119 169.02 93.2694 169.05C93.1268 169.083 92.9462 169.099 92.7275 169.099C92.396 169.099 92.0712 169.028 91.753 168.886C91.4382 168.743 91.1763 168.526 90.9675 168.234C90.762 167.943 90.6593 167.575 90.6593 167.131V159.534ZM95.2282 169V161.364H96.3617V162.517H96.4412C96.5804 162.139 96.8323 161.833 97.1969 161.597C97.5615 161.362 97.9725 161.244 98.4299 161.244C98.516 161.244 98.6238 161.246 98.753 161.249C98.8823 161.253 98.9801 161.258 99.0463 161.264V162.457C99.0066 162.447 98.9154 162.433 98.7729 162.413C98.6337 162.389 98.4862 162.378 98.3304 162.378C97.9592 162.378 97.6278 162.456 97.3361 162.612C97.0478 162.764 96.8191 162.976 96.65 163.248C96.4843 163.516 96.4015 163.823 96.4015 164.168V169H95.2282ZM100.437 169V161.364H101.61V169H100.437ZM101.034 160.091C100.805 160.091 100.608 160.013 100.442 159.857C100.28 159.701 100.199 159.514 100.199 159.295C100.199 159.077 100.28 158.889 100.442 158.734C100.608 158.578 100.805 158.5 101.034 158.5C101.262 158.5 101.458 158.578 101.62 158.734C101.786 158.889 101.869 159.077 101.869 159.295C101.869 159.514 101.786 159.701 101.62 159.857C101.458 160.013 101.262 160.091 101.034 160.091ZM103.919 169V158.818H105.092V162.577H105.191C105.277 162.444 105.397 162.275 105.549 162.07C105.705 161.861 105.927 161.675 106.215 161.513C106.507 161.347 106.901 161.264 107.399 161.264C108.042 161.264 108.608 161.425 109.099 161.746C109.589 162.068 109.972 162.524 110.247 163.114C110.522 163.704 110.66 164.4 110.66 165.202C110.66 166.01 110.522 166.711 110.247 167.305C109.972 167.895 109.591 168.352 109.104 168.677C108.617 168.998 108.055 169.159 107.419 169.159C106.928 169.159 106.535 169.078 106.24 168.915C105.945 168.75 105.718 168.562 105.559 168.354C105.4 168.142 105.277 167.966 105.191 167.827H105.052V169H103.919ZM105.072 165.182C105.072 165.759 105.156 166.267 105.325 166.708C105.494 167.146 105.741 167.489 106.066 167.737C106.391 167.982 106.789 168.105 107.259 168.105C107.75 168.105 108.159 167.976 108.487 167.717C108.819 167.455 109.067 167.104 109.233 166.663C109.402 166.219 109.487 165.725 109.487 165.182C109.487 164.645 109.404 164.161 109.238 163.73C109.076 163.296 108.829 162.953 108.497 162.701C108.169 162.446 107.757 162.318 107.259 162.318C106.782 162.318 106.381 162.439 106.056 162.681C105.731 162.92 105.486 163.254 105.32 163.685C105.155 164.113 105.072 164.612 105.072 165.182ZM117.267 165.878V161.364H118.441V169H117.267V167.707H117.188C117.009 168.095 116.73 168.425 116.352 168.697C115.975 168.965 115.497 169.099 114.921 169.099C114.443 169.099 114.019 168.995 113.648 168.786C113.277 168.574 112.985 168.256 112.773 167.832C112.561 167.404 112.455 166.866 112.455 166.216V161.364H113.628V166.136C113.628 166.693 113.784 167.137 114.095 167.469C114.41 167.8 114.811 167.966 115.298 167.966C115.59 167.966 115.887 167.891 116.188 167.742C116.493 167.593 116.749 167.364 116.954 167.056C117.163 166.748 117.267 166.355 117.267 165.878ZM123.911 161.364V162.358H119.953V161.364H123.911ZM121.107 159.534H122.28V166.812C122.28 167.144 122.328 167.393 122.424 167.558C122.523 167.721 122.649 167.83 122.802 167.886C122.958 167.939 123.122 167.966 123.294 167.966C123.423 167.966 123.529 167.959 123.612 167.946C123.695 167.929 123.761 167.916 123.811 167.906L124.05 168.96C123.97 168.99 123.859 169.02 123.717 169.05C123.574 169.083 123.393 169.099 123.175 169.099C122.843 169.099 122.518 169.028 122.2 168.886C121.885 168.743 121.624 168.526 121.415 168.234C121.209 167.943 121.107 167.575 121.107 167.131V159.534ZM128.795 169.159C128.059 169.159 127.425 168.997 126.891 168.672C126.361 168.344 125.951 167.886 125.663 167.3C125.378 166.71 125.235 166.024 125.235 165.241C125.235 164.459 125.378 163.77 125.663 163.173C125.951 162.573 126.352 162.106 126.866 161.771C127.383 161.433 127.986 161.264 128.676 161.264C129.074 161.264 129.466 161.33 129.854 161.463C130.242 161.596 130.595 161.811 130.913 162.109C131.231 162.404 131.485 162.795 131.674 163.283C131.863 163.77 131.957 164.37 131.957 165.082V165.58H126.071V164.565H130.764C130.764 164.134 130.678 163.75 130.505 163.412C130.336 163.074 130.094 162.807 129.779 162.612C129.468 162.416 129.1 162.318 128.676 162.318C128.208 162.318 127.804 162.434 127.463 162.666C127.125 162.895 126.864 163.193 126.682 163.561C126.5 163.929 126.409 164.323 126.409 164.744V165.42C126.409 165.997 126.508 166.486 126.707 166.887C126.909 167.285 127.189 167.588 127.547 167.797C127.905 168.002 128.321 168.105 128.795 168.105C129.103 168.105 129.382 168.062 129.63 167.976C129.882 167.886 130.099 167.754 130.282 167.578C130.464 167.399 130.605 167.177 130.704 166.912L131.838 167.23C131.718 167.615 131.518 167.953 131.236 168.244C130.954 168.533 130.606 168.758 130.192 168.92C129.778 169.08 129.312 169.159 128.795 169.159ZM139.071 158.818V169H137.838V158.818H139.071ZM144.686 169H141.544V158.818H144.825C145.812 158.818 146.658 159.022 147.36 159.43C148.063 159.834 148.602 160.416 148.976 161.175C149.351 161.93 149.538 162.835 149.538 163.889C149.538 164.95 149.349 165.863 148.971 166.629C148.593 167.391 148.043 167.978 147.32 168.388C146.598 168.796 145.72 169 144.686 169ZM142.776 167.906H144.606C145.448 167.906 146.146 167.744 146.699 167.419C147.253 167.094 147.665 166.632 147.937 166.032C148.209 165.432 148.345 164.718 148.345 163.889C148.345 163.067 148.21 162.36 147.942 161.766C147.673 161.17 147.272 160.712 146.739 160.394C146.205 160.073 145.541 159.912 144.745 159.912H142.776V167.906Z" fill="#373B4D"/>
<g filter="url(#filter0_dd_245_56281)">
<rect x="75" y="178" width="541" height="40" rx="4" fill="white"/>
<rect x="75.5" y="178.5" width="540" height="39" rx="3.5" stroke="#E8E9F0"/>
</g>
<path fill-rule="evenodd" clip-rule="evenodd" d="M83.2571 229.599C84.0217 228.24 85.9788 228.24 86.7434 229.599L92.3237 239.519C93.0736 240.853 92.1102 242.5 90.5805 242.5H79.4199C77.8903 242.5 76.9268 240.853 77.6768 239.519L83.2571 229.599ZM86.0001 239.5C86.0001 240.052 85.5524 240.5 85.0001 240.5C84.4478 240.5 84.0001 240.052 84.0001 239.5C84.0001 238.948 84.4478 238.5 85.0001 238.5C85.5524 238.5 86.0001 238.948 86.0001 239.5ZM85.0001 231.5C84.4478 231.5 84.0001 231.948 84.0001 232.5V235.5C84.0001 236.052 84.4478 236.5 85.0001 236.5C85.5524 236.5 86.0001 236.052 86.0001 235.5V232.5C86.0001 231.948 85.5524 231.5 85.0001 231.5Z" fill="#B34700"/>
<path d="M99.6761 232.912V231.818H107.312V232.912H104.111V242H102.878V232.912H99.6761ZM110.23 237.406V242H109.056V231.818H110.23V235.557H110.329C110.508 235.162 110.776 234.849 111.134 234.617C111.496 234.382 111.976 234.264 112.576 234.264C113.097 234.264 113.552 234.369 113.943 234.577C114.334 234.783 114.638 235.099 114.853 235.527C115.072 235.951 115.181 236.491 115.181 237.148V242H114.008V237.227C114.008 236.621 113.851 236.152 113.536 235.82C113.224 235.486 112.792 235.318 112.238 235.318C111.854 235.318 111.509 235.399 111.204 235.562C110.902 235.724 110.664 235.961 110.488 236.273C110.316 236.584 110.23 236.962 110.23 237.406ZM117.328 242V234.364H118.501V242H117.328ZM117.924 233.091C117.696 233.091 117.498 233.013 117.333 232.857C117.17 232.701 117.089 232.514 117.089 232.295C117.089 232.077 117.17 231.889 117.333 231.734C117.498 231.578 117.696 231.5 117.924 231.5C118.153 231.5 118.349 231.578 118.511 231.734C118.677 231.889 118.76 232.077 118.76 232.295C118.76 232.514 118.677 232.701 118.511 232.857C118.349 233.013 118.153 233.091 117.924 233.091ZM126.059 236.074L125.005 236.372C124.939 236.196 124.841 236.026 124.712 235.86C124.586 235.691 124.414 235.552 124.195 235.442C123.976 235.333 123.696 235.278 123.355 235.278C122.887 235.278 122.498 235.386 122.186 235.602C121.878 235.814 121.724 236.084 121.724 236.412C121.724 236.704 121.83 236.934 122.042 237.103C122.254 237.272 122.586 237.413 123.036 237.526L124.17 237.804C124.853 237.97 125.361 238.223 125.696 238.565C126.031 238.903 126.198 239.339 126.198 239.872C126.198 240.31 126.072 240.701 125.82 241.045C125.572 241.39 125.224 241.662 124.776 241.861C124.329 242.06 123.809 242.159 123.215 242.159C122.436 242.159 121.792 241.99 121.281 241.652C120.771 241.314 120.448 240.82 120.312 240.17L121.426 239.892C121.532 240.303 121.732 240.611 122.027 240.817C122.325 241.022 122.715 241.125 123.195 241.125C123.742 241.125 124.177 241.009 124.498 240.777C124.823 240.542 124.985 240.26 124.985 239.932C124.985 239.667 124.892 239.445 124.707 239.266C124.521 239.083 124.236 238.947 123.852 238.858L122.579 238.56C121.88 238.394 121.366 238.137 121.038 237.789C120.713 237.438 120.551 236.999 120.551 236.472C120.551 236.041 120.672 235.66 120.914 235.328C121.159 234.997 121.492 234.737 121.913 234.548C122.337 234.359 122.818 234.264 123.355 234.264C124.11 234.264 124.704 234.43 125.134 234.761C125.569 235.093 125.877 235.53 126.059 236.074ZM135.303 234.364V235.358H131.186V234.364H135.303ZM132.419 242V233.31C132.419 232.872 132.522 232.508 132.727 232.216C132.933 231.924 133.2 231.705 133.528 231.56C133.856 231.414 134.202 231.341 134.567 231.341C134.855 231.341 135.09 231.364 135.273 231.411C135.455 231.457 135.591 231.5 135.68 231.54L135.342 232.554C135.283 232.534 135.2 232.509 135.094 232.479C134.991 232.45 134.855 232.435 134.686 232.435C134.298 232.435 134.018 232.532 133.846 232.728C133.677 232.924 133.592 233.21 133.592 233.588V242H132.419ZM136.947 242V234.364H138.12V242H136.947ZM137.544 233.091C137.315 233.091 137.118 233.013 136.952 232.857C136.789 232.701 136.708 232.514 136.708 232.295C136.708 232.077 136.789 231.889 136.952 231.734C137.118 231.578 137.315 231.5 137.544 231.5C137.772 231.5 137.968 231.578 138.13 231.734C138.296 231.889 138.379 232.077 138.379 232.295C138.379 232.514 138.296 232.701 138.13 232.857C137.968 233.013 137.772 233.091 137.544 233.091ZM143.471 242.159C142.735 242.159 142.1 241.997 141.567 241.672C141.036 241.344 140.627 240.886 140.339 240.3C140.054 239.71 139.911 239.024 139.911 238.241C139.911 237.459 140.054 236.77 140.339 236.173C140.627 235.573 141.028 235.106 141.542 234.771C142.059 234.433 142.662 234.264 143.352 234.264C143.749 234.264 144.142 234.33 144.53 234.463C144.918 234.596 145.271 234.811 145.589 235.109C145.907 235.404 146.161 235.795 146.349 236.283C146.538 236.77 146.633 237.37 146.633 238.082V238.58H140.746V237.565H145.44C145.44 237.134 145.353 236.75 145.181 236.412C145.012 236.074 144.77 235.807 144.455 235.612C144.144 235.416 143.776 235.318 143.352 235.318C142.884 235.318 142.48 235.434 142.138 235.666C141.8 235.895 141.54 236.193 141.358 236.561C141.176 236.929 141.085 237.323 141.085 237.744V238.42C141.085 238.997 141.184 239.486 141.383 239.887C141.585 240.285 141.865 240.588 142.223 240.797C142.581 241.002 142.997 241.105 143.471 241.105C143.779 241.105 144.058 241.062 144.306 240.976C144.558 240.886 144.775 240.754 144.957 240.578C145.14 240.399 145.281 240.177 145.38 239.912L146.513 240.23C146.394 240.615 146.194 240.953 145.912 241.244C145.63 241.533 145.282 241.758 144.868 241.92C144.454 242.08 143.988 242.159 143.471 242.159ZM149.591 231.818V242H148.418V231.818H149.591ZM154.623 242.159C153.987 242.159 153.425 241.998 152.938 241.677C152.451 241.352 152.07 240.895 151.795 240.305C151.519 239.711 151.382 239.01 151.382 238.202C151.382 237.4 151.519 236.704 151.795 236.114C152.07 235.524 152.452 235.068 152.943 234.746C153.434 234.425 154 234.264 154.643 234.264C155.14 234.264 155.533 234.347 155.822 234.513C156.113 234.675 156.335 234.861 156.488 235.07C156.644 235.275 156.765 235.444 156.851 235.577H156.95V231.818H158.123V242H156.99V240.827H156.851C156.765 240.966 156.642 241.142 156.483 241.354C156.324 241.562 156.097 241.75 155.802 241.915C155.507 242.078 155.114 242.159 154.623 242.159ZM154.782 241.105C155.253 241.105 155.651 240.982 155.976 240.737C156.3 240.489 156.547 240.146 156.716 239.708C156.885 239.267 156.97 238.759 156.97 238.182C156.97 237.612 156.887 237.113 156.721 236.685C156.556 236.254 156.31 235.92 155.986 235.681C155.661 235.439 155.26 235.318 154.782 235.318C154.285 235.318 153.871 235.446 153.54 235.701C153.211 235.953 152.965 236.296 152.799 236.73C152.636 237.161 152.555 237.645 152.555 238.182C152.555 238.725 152.638 239.219 152.804 239.663C152.973 240.104 153.221 240.455 153.55 240.717C153.881 240.976 154.292 241.105 154.782 241.105ZM164.373 242V234.364H165.546V242H164.373ZM164.969 233.091C164.741 233.091 164.543 233.013 164.378 232.857C164.215 232.701 164.134 232.514 164.134 232.295C164.134 232.077 164.215 231.889 164.378 231.734C164.543 231.578 164.741 231.5 164.969 231.5C165.198 231.5 165.394 231.578 165.556 231.734C165.722 231.889 165.805 232.077 165.805 232.295C165.805 232.514 165.722 232.701 165.556 232.857C165.394 233.013 165.198 233.091 164.969 233.091ZM173.104 236.074L172.05 236.372C171.984 236.196 171.886 236.026 171.757 235.86C171.631 235.691 171.458 235.552 171.24 235.442C171.021 235.333 170.741 235.278 170.4 235.278C169.932 235.278 169.543 235.386 169.231 235.602C168.923 235.814 168.769 236.084 168.769 236.412C168.769 236.704 168.875 236.934 169.087 237.103C169.299 237.272 169.631 237.413 170.081 237.526L171.215 237.804C171.898 237.97 172.406 238.223 172.741 238.565C173.076 238.903 173.243 239.339 173.243 239.872C173.243 240.31 173.117 240.701 172.865 241.045C172.617 241.39 172.269 241.662 171.821 241.861C171.374 242.06 170.854 242.159 170.26 242.159C169.481 242.159 168.837 241.99 168.326 241.652C167.816 241.314 167.493 240.82 167.357 240.17L168.471 239.892C168.577 240.303 168.777 240.611 169.072 240.817C169.37 241.022 169.76 241.125 170.24 241.125C170.787 241.125 171.221 241.009 171.543 240.777C171.868 240.542 172.03 240.26 172.03 239.932C172.03 239.667 171.937 239.445 171.752 239.266C171.566 239.083 171.281 238.947 170.897 238.858L169.624 238.56C168.925 238.394 168.411 238.137 168.083 237.789C167.758 237.438 167.596 236.999 167.596 236.472C167.596 236.041 167.717 235.66 167.958 235.328C168.204 234.997 168.537 234.737 168.958 234.548C169.382 234.359 169.863 234.264 170.4 234.264C171.155 234.264 171.748 234.43 172.179 234.761C172.614 235.093 172.922 235.53 173.104 236.074ZM178.947 242V234.364H180.08V235.517H180.16C180.299 235.139 180.551 234.833 180.916 234.597C181.28 234.362 181.691 234.244 182.149 234.244C182.235 234.244 182.343 234.246 182.472 234.249C182.601 234.253 182.699 234.258 182.765 234.264V235.457C182.725 235.447 182.634 235.433 182.492 235.413C182.352 235.389 182.205 235.378 182.049 235.378C181.678 235.378 181.347 235.456 181.055 235.612C180.767 235.764 180.538 235.976 180.369 236.248C180.203 236.516 180.12 236.823 180.12 237.168V242H178.947ZM187.125 242.159C186.389 242.159 185.755 241.997 185.221 241.672C184.691 241.344 184.281 240.886 183.993 240.3C183.708 239.71 183.566 239.024 183.566 238.241C183.566 237.459 183.708 236.77 183.993 236.173C184.281 235.573 184.682 235.106 185.196 234.771C185.713 234.433 186.316 234.264 187.006 234.264C187.404 234.264 187.796 234.33 188.184 234.463C188.572 234.596 188.925 234.811 189.243 235.109C189.561 235.404 189.815 235.795 190.004 236.283C190.193 236.77 190.287 237.37 190.287 238.082V238.58H184.401V237.565H189.094C189.094 237.134 189.008 236.75 188.835 236.412C188.666 236.074 188.424 235.807 188.11 235.612C187.798 235.416 187.43 235.318 187.006 235.318C186.539 235.318 186.134 235.434 185.793 235.666C185.455 235.895 185.195 236.193 185.012 236.561C184.83 236.929 184.739 237.323 184.739 237.744V238.42C184.739 238.997 184.838 239.486 185.037 239.887C185.239 240.285 185.519 240.588 185.877 240.797C186.235 241.002 186.651 241.105 187.125 241.105C187.433 241.105 187.712 241.062 187.96 240.976C188.212 240.886 188.429 240.754 188.612 240.578C188.794 240.399 188.935 240.177 189.034 239.912L190.168 240.23C190.048 240.615 189.848 240.953 189.566 241.244C189.285 241.533 188.936 241.758 188.522 241.92C188.108 242.08 187.642 242.159 187.125 242.159ZM197.282 244.864V240.827H197.183C197.097 240.966 196.974 241.142 196.815 241.354C196.656 241.562 196.429 241.75 196.134 241.915C195.839 242.078 195.446 242.159 194.955 242.159C194.319 242.159 193.757 241.998 193.27 241.677C192.783 241.352 192.402 240.895 192.127 240.305C191.852 239.711 191.714 239.01 191.714 238.202C191.714 237.4 191.852 236.704 192.127 236.114C192.402 235.524 192.785 235.068 193.275 234.746C193.766 234.425 194.332 234.264 194.975 234.264C195.472 234.264 195.865 234.347 196.154 234.513C196.445 234.675 196.667 234.861 196.82 235.07C196.976 235.275 197.097 235.444 197.183 235.577H197.322V234.364H198.455V244.864H197.282ZM195.115 241.105C195.585 241.105 195.983 240.982 196.308 240.737C196.633 240.489 196.879 240.146 197.048 239.708C197.218 239.267 197.302 238.759 197.302 238.182C197.302 237.612 197.219 237.113 197.053 236.685C196.888 236.254 196.642 235.92 196.318 235.681C195.993 235.439 195.592 235.318 195.115 235.318C194.617 235.318 194.203 235.446 193.872 235.701C193.544 235.953 193.297 236.296 193.131 236.73C192.968 237.161 192.887 237.645 192.887 238.182C192.887 238.725 192.97 239.219 193.136 239.663C193.305 240.104 193.553 240.455 193.882 240.717C194.213 240.976 194.624 241.105 195.115 241.105ZM205.416 238.878V234.364H206.589V242H205.416V240.707H205.336C205.157 241.095 204.879 241.425 204.501 241.697C204.123 241.965 203.646 242.099 203.069 242.099C202.592 242.099 202.168 241.995 201.796 241.786C201.425 241.574 201.133 241.256 200.921 240.832C200.709 240.404 200.603 239.866 200.603 239.216V234.364H201.776V239.136C201.776 239.693 201.932 240.137 202.244 240.469C202.559 240.8 202.96 240.966 203.447 240.966C203.739 240.966 204.035 240.891 204.337 240.742C204.642 240.593 204.897 240.364 205.102 240.056C205.311 239.748 205.416 239.355 205.416 238.878ZM208.738 242V234.364H209.911V242H208.738ZM209.335 233.091C209.106 233.091 208.909 233.013 208.743 232.857C208.58 232.701 208.499 232.514 208.499 232.295C208.499 232.077 208.58 231.889 208.743 231.734C208.909 231.578 209.106 231.5 209.335 231.5C209.563 231.5 209.759 231.578 209.921 231.734C210.087 231.889 210.17 232.077 210.17 232.295C210.17 232.514 210.087 232.701 209.921 232.857C209.759 233.013 209.563 233.091 209.335 233.091ZM212.06 242V234.364H213.194V235.517H213.273C213.412 235.139 213.664 234.833 214.029 234.597C214.394 234.362 214.805 234.244 215.262 234.244C215.348 234.244 215.456 234.246 215.585 234.249C215.714 234.253 215.812 234.258 215.878 234.264V235.457C215.839 235.447 215.747 235.433 215.605 235.413C215.466 235.389 215.318 235.378 215.162 235.378C214.791 235.378 214.46 235.456 214.168 235.612C213.88 235.764 213.651 235.976 213.482 236.248C213.316 236.516 213.233 236.823 213.233 237.168V242H212.06ZM220.238 242.159C219.503 242.159 218.868 241.997 218.334 241.672C217.804 241.344 217.395 240.886 217.106 240.3C216.821 239.71 216.679 239.024 216.679 238.241C216.679 237.459 216.821 236.77 217.106 236.173C217.395 235.573 217.796 235.106 218.309 234.771C218.827 234.433 219.43 234.264 220.119 234.264C220.517 234.264 220.91 234.33 221.297 234.463C221.685 234.596 222.038 234.811 222.356 235.109C222.675 235.404 222.928 235.795 223.117 236.283C223.306 236.77 223.4 237.37 223.4 238.082V238.58H217.514V237.565H222.207C222.207 237.134 222.121 236.75 221.949 236.412C221.78 236.074 221.538 235.807 221.223 235.612C220.911 235.416 220.543 235.318 220.119 235.318C219.652 235.318 219.247 235.434 218.906 235.666C218.568 235.895 218.308 236.193 218.126 236.561C217.943 236.929 217.852 237.323 217.852 237.744V238.42C217.852 238.997 217.952 239.486 218.15 239.887C218.353 240.285 218.633 240.588 218.991 240.797C219.349 241.002 219.765 241.105 220.238 241.105C220.547 241.105 220.825 241.062 221.074 240.976C221.326 240.886 221.543 240.754 221.725 240.578C221.907 240.399 222.048 240.177 222.148 239.912L223.281 240.23C223.162 240.615 222.961 240.953 222.68 241.244C222.398 241.533 222.05 241.758 221.635 241.92C221.221 242.08 220.756 242.159 220.238 242.159ZM228.069 242.159C227.432 242.159 226.871 241.998 226.383 241.677C225.896 241.352 225.515 240.895 225.24 240.305C224.965 239.711 224.827 239.01 224.827 238.202C224.827 237.4 224.965 236.704 225.24 236.114C225.515 235.524 225.898 235.068 226.388 234.746C226.879 234.425 227.446 234.264 228.089 234.264C228.586 234.264 228.979 234.347 229.267 234.513C229.559 234.675 229.781 234.861 229.933 235.07C230.089 235.275 230.21 235.444 230.296 235.577H230.395V231.818H231.569V242H230.435V240.827H230.296C230.21 240.966 230.087 241.142 229.928 241.354C229.769 241.562 229.542 241.75 229.247 241.915C228.952 242.078 228.559 242.159 228.069 242.159ZM228.228 241.105C228.698 241.105 229.096 240.982 229.421 240.737C229.746 240.489 229.993 240.146 230.162 239.708C230.331 239.267 230.415 238.759 230.415 238.182C230.415 237.612 230.332 237.113 230.167 236.685C230.001 236.254 229.756 235.92 229.431 235.681C229.106 235.439 228.705 235.318 228.228 235.318C227.731 235.318 227.316 235.446 226.985 235.701C226.657 235.953 226.41 236.296 226.244 236.73C226.082 237.161 226.001 237.645 226.001 238.182C226.001 238.725 226.083 239.219 226.249 239.663C226.418 240.104 226.667 240.455 226.995 240.717C227.326 240.976 227.737 241.105 228.228 241.105Z" fill="#B34700"/>
<path d="M76.6506 287H75.358L79.0966 276.818H80.3693L84.108 287H82.8153L79.7727 278.429H79.6932L76.6506 287ZM77.1278 283.023H82.3381V284.116H77.1278V283.023ZM88.3773 279.364V280.358H84.4199V279.364H88.3773ZM85.5733 277.534H86.7466V284.812C86.7466 285.144 86.7947 285.393 86.8908 285.558C86.9902 285.721 87.1162 285.83 87.2686 285.886C87.4244 285.939 87.5885 285.966 87.7608 285.966C87.8901 285.966 87.9962 285.959 88.079 285.946C88.1619 285.929 88.2282 285.916 88.2779 285.906L88.5165 286.96C88.437 286.99 88.3259 287.02 88.1834 287.05C88.0409 287.083 87.8603 287.099 87.6415 287.099C87.3101 287.099 86.9853 287.028 86.6671 286.886C86.3522 286.743 86.0904 286.526 85.8816 286.234C85.6761 285.943 85.5733 285.575 85.5733 285.131V277.534ZM93.4632 279.364V280.358H89.5059V279.364H93.4632ZM90.6593 277.534H91.8326V284.812C91.8326 285.144 91.8806 285.393 91.9767 285.558C92.0762 285.721 92.2021 285.83 92.3546 285.886C92.5104 285.939 92.6744 285.966 92.8468 285.966C92.976 285.966 93.0821 285.959 93.165 285.946C93.2478 285.929 93.3141 285.916 93.3638 285.906L93.6025 286.96C93.5229 286.99 93.4119 287.02 93.2694 287.05C93.1268 287.083 92.9462 287.099 92.7275 287.099C92.396 287.099 92.0712 287.028 91.753 286.886C91.4382 286.743 91.1763 286.526 90.9675 286.234C90.762 285.943 90.6593 285.575 90.6593 285.131V277.534ZM95.2282 287V279.364H96.3617V280.517H96.4412C96.5804 280.139 96.8323 279.833 97.1969 279.597C97.5615 279.362 97.9725 279.244 98.4299 279.244C98.516 279.244 98.6238 279.246 98.753 279.249C98.8823 279.253 98.9801 279.258 99.0463 279.264V280.457C99.0066 280.447 98.9154 280.433 98.7729 280.413C98.6337 280.389 98.4862 280.378 98.3304 280.378C97.9592 280.378 97.6278 280.456 97.3361 280.612C97.0478 280.764 96.8191 280.976 96.65 281.248C96.4843 281.516 96.4015 281.823 96.4015 282.168V287H95.2282ZM100.437 287V279.364H101.61V287H100.437ZM101.034 278.091C100.805 278.091 100.608 278.013 100.442 277.857C100.28 277.701 100.199 277.514 100.199 277.295C100.199 277.077 100.28 276.889 100.442 276.734C100.608 276.578 100.805 276.5 101.034 276.5C101.262 276.5 101.458 276.578 101.62 276.734C101.786 276.889 101.869 277.077 101.869 277.295C101.869 277.514 101.786 277.701 101.62 277.857C101.458 278.013 101.262 278.091 101.034 278.091ZM103.919 287V276.818H105.092V280.577H105.191C105.277 280.444 105.397 280.275 105.549 280.07C105.705 279.861 105.927 279.675 106.215 279.513C106.507 279.347 106.901 279.264 107.399 279.264C108.042 279.264 108.608 279.425 109.099 279.746C109.589 280.068 109.972 280.524 110.247 281.114C110.522 281.704 110.66 282.4 110.66 283.202C110.66 284.01 110.522 284.711 110.247 285.305C109.972 285.895 109.591 286.352 109.104 286.677C108.617 286.998 108.055 287.159 107.419 287.159C106.928 287.159 106.535 287.078 106.24 286.915C105.945 286.75 105.718 286.562 105.559 286.354C105.4 286.142 105.277 285.966 105.191 285.827H105.052V287H103.919ZM105.072 283.182C105.072 283.759 105.156 284.267 105.325 284.708C105.494 285.146 105.741 285.489 106.066 285.737C106.391 285.982 106.789 286.105 107.259 286.105C107.75 286.105 108.159 285.976 108.487 285.717C108.819 285.455 109.067 285.104 109.233 284.663C109.402 284.219 109.487 283.725 109.487 283.182C109.487 282.645 109.404 282.161 109.238 281.73C109.076 281.296 108.829 280.953 108.497 280.701C108.169 280.446 107.757 280.318 107.259 280.318C106.782 280.318 106.381 280.439 106.056 280.681C105.731 280.92 105.486 281.254 105.32 281.685C105.155 282.113 105.072 282.612 105.072 283.182ZM117.267 283.878V279.364H118.441V287H117.267V285.707H117.188C117.009 286.095 116.73 286.425 116.352 286.697C115.975 286.965 115.497 287.099 114.921 287.099C114.443 287.099 114.019 286.995 113.648 286.786C113.277 286.574 112.985 286.256 112.773 285.832C112.561 285.404 112.455 284.866 112.455 284.216V279.364H113.628V284.136C113.628 284.693 113.784 285.137 114.095 285.469C114.41 285.8 114.811 285.966 115.298 285.966C115.59 285.966 115.887 285.891 116.188 285.742C116.493 285.593 116.749 285.364 116.954 285.056C117.163 284.748 117.267 284.355 117.267 283.878ZM123.911 279.364V280.358H119.953V279.364H123.911ZM121.107 277.534H122.28V284.812C122.28 285.144 122.328 285.393 122.424 285.558C122.523 285.721 122.649 285.83 122.802 285.886C122.958 285.939 123.122 285.966 123.294 285.966C123.423 285.966 123.529 285.959 123.612 285.946C123.695 285.929 123.761 285.916 123.811 285.906L124.05 286.96C123.97 286.99 123.859 287.02 123.717 287.05C123.574 287.083 123.393 287.099 123.175 287.099C122.843 287.099 122.518 287.028 122.2 286.886C121.885 286.743 121.624 286.526 121.415 286.234C121.209 285.943 121.107 285.575 121.107 285.131V277.534ZM128.795 287.159C128.059 287.159 127.425 286.997 126.891 286.672C126.361 286.344 125.951 285.886 125.663 285.3C125.378 284.71 125.235 284.024 125.235 283.241C125.235 282.459 125.378 281.77 125.663 281.173C125.951 280.573 126.352 280.106 126.866 279.771C127.383 279.433 127.986 279.264 128.676 279.264C129.074 279.264 129.466 279.33 129.854 279.463C130.242 279.596 130.595 279.811 130.913 280.109C131.231 280.404 131.485 280.795 131.674 281.283C131.863 281.77 131.957 282.37 131.957 283.082V283.58H126.071V282.565H130.764C130.764 282.134 130.678 281.75 130.505 281.412C130.336 281.074 130.094 280.807 129.779 280.612C129.468 280.416 129.1 280.318 128.676 280.318C128.208 280.318 127.804 280.434 127.463 280.666C127.125 280.895 126.864 281.193 126.682 281.561C126.5 281.929 126.409 282.323 126.409 282.744V283.42C126.409 283.997 126.508 284.486 126.707 284.887C126.909 285.285 127.189 285.588 127.547 285.797C127.905 286.002 128.321 286.105 128.795 286.105C129.103 286.105 129.382 286.062 129.63 285.976C129.882 285.886 130.099 285.754 130.282 285.578C130.464 285.399 130.605 285.177 130.704 284.912L131.838 285.23C131.718 285.615 131.518 285.953 131.236 286.244C130.954 286.533 130.606 286.758 130.192 286.92C129.778 287.08 129.312 287.159 128.795 287.159ZM141 279.364V280.358H137.043V279.364H141ZM138.196 277.534H139.37V284.812C139.37 285.144 139.418 285.393 139.514 285.558C139.613 285.721 139.739 285.83 139.892 285.886C140.047 285.939 140.212 285.966 140.384 285.966C140.513 285.966 140.619 285.959 140.702 285.946C140.785 285.929 140.851 285.916 140.901 285.906L141.14 286.96C141.06 286.99 140.949 287.02 140.806 287.05C140.664 287.083 140.483 287.099 140.265 287.099C139.933 287.099 139.608 287.028 139.29 286.886C138.975 286.743 138.713 286.526 138.505 286.234C138.299 285.943 138.196 285.575 138.196 285.131V277.534ZM143.521 289.864C143.322 289.864 143.145 289.847 142.989 289.814C142.833 289.784 142.725 289.754 142.666 289.724L142.964 288.69C143.249 288.763 143.501 288.79 143.72 288.77C143.939 288.75 144.132 288.652 144.301 288.477C144.474 288.304 144.631 288.024 144.774 287.636L144.993 287.04L142.169 279.364H143.441L145.549 285.449H145.629L147.737 279.364H149.01L145.768 288.114C145.622 288.508 145.442 288.835 145.226 289.093C145.011 289.355 144.761 289.549 144.475 289.675C144.194 289.801 143.876 289.864 143.521 289.864ZM150.558 289.864V279.364H151.692V280.577H151.831C151.917 280.444 152.036 280.275 152.189 280.07C152.345 279.861 152.567 279.675 152.855 279.513C153.147 279.347 153.541 279.264 154.038 279.264C154.681 279.264 155.248 279.425 155.739 279.746C156.229 280.068 156.612 280.524 156.887 281.114C157.162 281.704 157.3 282.4 157.3 283.202C157.3 284.01 157.162 284.711 156.887 285.305C156.612 285.895 156.231 286.352 155.744 286.677C155.256 286.998 154.695 287.159 154.058 287.159C153.568 287.159 153.175 287.078 152.88 286.915C152.585 286.75 152.358 286.562 152.199 286.354C152.04 286.142 151.917 285.966 151.831 285.827H151.732V289.864H150.558ZM151.712 283.182C151.712 283.759 151.796 284.267 151.965 284.708C152.134 285.146 152.381 285.489 152.706 285.737C153.031 285.982 153.429 286.105 153.899 286.105C154.39 286.105 154.799 285.976 155.127 285.717C155.459 285.455 155.707 285.104 155.873 284.663C156.042 284.219 156.126 283.725 156.126 283.182C156.126 282.645 156.044 282.161 155.878 281.73C155.715 281.296 155.469 280.953 155.137 280.701C154.809 280.446 154.396 280.318 153.899 280.318C153.422 280.318 153.021 280.439 152.696 280.681C152.371 280.92 152.126 281.254 151.96 281.685C151.795 282.113 151.712 282.612 151.712 283.182ZM162.291 287.159C161.555 287.159 160.921 286.997 160.387 286.672C159.857 286.344 159.447 285.886 159.159 285.3C158.874 284.71 158.732 284.024 158.732 283.241C158.732 282.459 158.874 281.77 159.159 281.173C159.447 280.573 159.848 280.106 160.362 279.771C160.879 279.433 161.482 279.264 162.172 279.264C162.57 279.264 162.962 279.33 163.35 279.463C163.738 279.596 164.091 279.811 164.409 280.109C164.727 280.404 164.981 280.795 165.17 281.283C165.359 281.77 165.453 282.37 165.453 283.082V283.58H159.567V282.565H164.26C164.26 282.134 164.174 281.75 164.001 281.412C163.832 281.074 163.59 280.807 163.276 280.612C162.964 280.416 162.596 280.318 162.172 280.318C161.705 280.318 161.3 280.434 160.959 280.666C160.621 280.895 160.361 281.193 160.178 281.561C159.996 281.929 159.905 282.323 159.905 282.744V283.42C159.905 283.997 160.004 284.486 160.203 284.887C160.405 285.285 160.685 285.588 161.043 285.797C161.401 286.002 161.817 286.105 162.291 286.105C162.599 286.105 162.878 286.062 163.126 285.976C163.378 285.886 163.595 285.754 163.778 285.578C163.96 285.399 164.101 285.177 164.2 284.912L165.334 285.23C165.214 285.615 165.014 285.953 164.732 286.244C164.451 286.533 164.103 286.758 163.688 286.92C163.274 287.08 162.808 287.159 162.291 287.159Z" fill="#373B4D"/>
<rect x="75.5" y="296.5" width="540" height="39" rx="3.5" fill="white"/>
<path d="M97.8011 313.864C97.7415 313.36 97.4995 312.969 97.0753 312.69C96.651 312.412 96.1307 312.273 95.5142 312.273C95.0634 312.273 94.669 312.346 94.331 312.491C93.9962 312.637 93.7344 312.838 93.5455 313.093C93.3598 313.348 93.267 313.638 93.267 313.963C93.267 314.235 93.3317 314.469 93.4609 314.664C93.5935 314.856 93.7625 315.017 93.968 315.146C94.1735 315.272 94.389 315.377 94.6143 315.46C94.8397 315.539 95.0469 315.604 95.2358 315.653L96.2699 315.932C96.535 316.001 96.83 316.098 97.1548 316.22C97.483 316.343 97.7962 316.51 98.0945 316.722C98.3961 316.931 98.6446 317.2 98.8402 317.528C99.0357 317.856 99.1335 318.259 99.1335 318.736C99.1335 319.286 98.9893 319.783 98.701 320.227C98.416 320.671 97.9983 321.024 97.4482 321.286C96.9013 321.548 96.2367 321.679 95.4545 321.679C94.7254 321.679 94.094 321.561 93.5604 321.326C93.0301 321.091 92.6125 320.763 92.3075 320.342C92.0059 319.921 91.8352 319.432 91.7955 318.875H93.0682C93.1013 319.259 93.2306 319.578 93.456 319.83C93.6847 320.078 93.973 320.264 94.321 320.386C94.6723 320.506 95.0502 320.565 95.4545 320.565C95.9252 320.565 96.3478 320.489 96.7223 320.337C97.0968 320.181 97.3935 319.965 97.6122 319.69C97.831 319.412 97.9403 319.087 97.9403 318.716C97.9403 318.378 97.8459 318.103 97.657 317.891C97.468 317.679 97.2195 317.506 96.9112 317.374C96.603 317.241 96.2699 317.125 95.9119 317.026L94.6591 316.668C93.8636 316.439 93.2339 316.112 92.7699 315.688C92.3059 315.264 92.0739 314.709 92.0739 314.023C92.0739 313.453 92.228 312.955 92.5362 312.531C92.8478 312.104 93.2654 311.772 93.7891 311.537C94.3161 311.298 94.9044 311.179 95.554 311.179C96.2102 311.179 96.7936 311.297 97.304 311.532C97.8144 311.764 98.2188 312.082 98.517 312.487C98.8187 312.891 98.9777 313.35 98.9943 313.864H97.8011ZM104.203 321.659C103.468 321.659 102.833 321.497 102.299 321.172C101.769 320.844 101.36 320.386 101.071 319.8C100.786 319.21 100.644 318.524 100.644 317.741C100.644 316.959 100.786 316.27 101.071 315.673C101.36 315.073 101.761 314.606 102.274 314.271C102.791 313.933 103.395 313.764 104.084 313.764C104.482 313.764 104.874 313.83 105.262 313.963C105.65 314.096 106.003 314.311 106.321 314.609C106.639 314.904 106.893 315.295 107.082 315.783C107.271 316.27 107.365 316.87 107.365 317.582V318.08H101.479V317.065H106.172C106.172 316.634 106.086 316.25 105.914 315.912C105.744 315.574 105.503 315.307 105.188 315.112C104.876 314.916 104.508 314.818 104.084 314.818C103.617 314.818 103.212 314.934 102.871 315.166C102.533 315.395 102.273 315.693 102.09 316.061C101.908 316.429 101.817 316.823 101.817 317.244V317.92C101.817 318.497 101.916 318.986 102.115 319.387C102.317 319.785 102.597 320.088 102.955 320.297C103.313 320.502 103.729 320.605 104.203 320.605C104.512 320.605 104.79 320.562 105.039 320.476C105.29 320.386 105.508 320.254 105.69 320.078C105.872 319.899 106.013 319.677 106.112 319.412L107.246 319.73C107.127 320.115 106.926 320.453 106.644 320.744C106.363 321.033 106.015 321.258 105.6 321.42C105.186 321.58 104.72 321.659 104.203 321.659ZM110.323 311.318V321.5H109.15V311.318H110.323ZM115.674 321.659C114.938 321.659 114.304 321.497 113.77 321.172C113.24 320.844 112.83 320.386 112.542 319.8C112.257 319.21 112.114 318.524 112.114 317.741C112.114 316.959 112.257 316.27 112.542 315.673C112.83 315.073 113.231 314.606 113.745 314.271C114.262 313.933 114.865 313.764 115.555 313.764C115.952 313.764 116.345 313.83 116.733 313.963C117.121 314.096 117.474 314.311 117.792 314.609C118.11 314.904 118.364 315.295 118.553 315.783C118.741 316.27 118.836 316.87 118.836 317.582V318.08H112.95V317.065H117.643C117.643 316.634 117.557 316.25 117.384 315.912C117.215 315.574 116.973 315.307 116.658 315.112C116.347 314.916 115.979 314.818 115.555 314.818C115.087 314.818 114.683 314.934 114.342 315.166C114.004 315.395 113.743 315.693 113.561 316.061C113.379 316.429 113.288 316.823 113.288 317.244V317.92C113.288 318.497 113.387 318.986 113.586 319.387C113.788 319.785 114.068 320.088 114.426 320.297C114.784 320.502 115.2 320.605 115.674 320.605C115.982 320.605 116.261 320.562 116.509 320.476C116.761 320.386 116.978 320.254 117.161 320.078C117.343 319.899 117.484 319.677 117.583 319.412L118.717 319.73C118.597 320.115 118.397 320.453 118.115 320.744C117.833 321.033 117.485 321.258 117.071 321.42C116.657 321.58 116.191 321.659 115.674 321.659ZM123.723 321.659C123.007 321.659 122.391 321.49 121.874 321.152C121.357 320.814 120.959 320.348 120.68 319.755C120.402 319.162 120.263 318.484 120.263 317.722C120.263 316.946 120.405 316.262 120.69 315.668C120.979 315.072 121.38 314.606 121.893 314.271C122.411 313.933 123.014 313.764 123.703 313.764C124.24 313.764 124.724 313.864 125.155 314.062C125.586 314.261 125.939 314.54 126.214 314.898C126.489 315.256 126.66 315.673 126.726 316.151H125.553C125.463 315.803 125.264 315.494 124.956 315.226C124.651 314.954 124.24 314.818 123.723 314.818C123.266 314.818 122.865 314.937 122.52 315.176C122.179 315.411 121.912 315.745 121.719 316.175C121.531 316.603 121.436 317.105 121.436 317.682C121.436 318.272 121.529 318.786 121.714 319.223C121.903 319.661 122.169 320 122.51 320.242C122.855 320.484 123.259 320.605 123.723 320.605C124.028 320.605 124.305 320.552 124.553 320.446C124.802 320.34 125.012 320.188 125.185 319.989C125.357 319.79 125.48 319.551 125.553 319.273H126.726C126.66 319.723 126.496 320.129 126.234 320.491C125.975 320.849 125.632 321.134 125.205 321.346C124.78 321.555 124.286 321.659 123.723 321.659ZM131.762 313.864V314.858H127.805V313.864H131.762ZM128.958 312.034H130.131V319.312C130.131 319.644 130.179 319.893 130.276 320.058C130.375 320.221 130.501 320.33 130.653 320.386C130.809 320.439 130.973 320.466 131.146 320.466C131.275 320.466 131.381 320.459 131.464 320.446C131.547 320.429 131.613 320.416 131.663 320.406L131.901 321.46C131.822 321.49 131.711 321.52 131.568 321.55C131.426 321.583 131.245 321.599 131.026 321.599C130.695 321.599 130.37 321.528 130.052 321.386C129.737 321.243 129.475 321.026 129.266 320.734C129.061 320.443 128.958 320.075 128.958 319.631V312.034ZM140.786 313.864V314.858H136.828V313.864H140.786ZM137.982 312.034H139.155V319.312C139.155 319.644 139.203 319.893 139.299 320.058C139.398 320.221 139.524 320.33 139.677 320.386C139.833 320.439 139.997 320.466 140.169 320.466C140.298 320.466 140.404 320.459 140.487 320.446C140.57 320.429 140.636 320.416 140.686 320.406L140.925 321.46C140.845 321.49 140.734 321.52 140.592 321.55C140.449 321.583 140.268 321.599 140.05 321.599C139.718 321.599 139.393 321.528 139.075 321.386C138.76 321.243 138.499 321.026 138.29 320.734C138.084 320.443 137.982 320.075 137.982 319.631V312.034ZM143.306 324.364C143.107 324.364 142.93 324.347 142.774 324.314C142.618 324.284 142.511 324.254 142.451 324.224L142.749 323.19C143.034 323.263 143.286 323.29 143.505 323.27C143.724 323.25 143.918 323.152 144.087 322.977C144.259 322.804 144.416 322.524 144.559 322.136L144.778 321.54L141.954 313.864H143.227L145.335 319.949H145.414L147.522 313.864H148.795L145.553 322.614C145.407 323.008 145.227 323.335 145.011 323.593C144.796 323.855 144.546 324.049 144.261 324.175C143.979 324.301 143.661 324.364 143.306 324.364ZM150.343 324.364V313.864H151.477V315.077H151.616C151.702 314.944 151.822 314.775 151.974 314.57C152.13 314.361 152.352 314.175 152.64 314.013C152.932 313.847 153.326 313.764 153.824 313.764C154.467 313.764 155.033 313.925 155.524 314.246C156.014 314.568 156.397 315.024 156.672 315.614C156.947 316.204 157.085 316.9 157.085 317.702C157.085 318.51 156.947 319.211 156.672 319.805C156.397 320.395 156.016 320.852 155.529 321.177C155.042 321.498 154.48 321.659 153.843 321.659C153.353 321.659 152.96 321.578 152.665 321.415C152.37 321.25 152.143 321.062 151.984 320.854C151.825 320.642 151.702 320.466 151.616 320.327H151.517V324.364H150.343ZM151.497 317.682C151.497 318.259 151.581 318.767 151.75 319.208C151.919 319.646 152.166 319.989 152.491 320.237C152.816 320.482 153.214 320.605 153.684 320.605C154.175 320.605 154.584 320.476 154.912 320.217C155.244 319.955 155.492 319.604 155.658 319.163C155.827 318.719 155.912 318.225 155.912 317.682C155.912 317.145 155.829 316.661 155.663 316.23C155.501 315.796 155.254 315.453 154.922 315.201C154.594 314.946 154.181 314.818 153.684 314.818C153.207 314.818 152.806 314.939 152.481 315.181C152.156 315.42 151.911 315.754 151.745 316.185C151.58 316.613 151.497 317.112 151.497 317.682ZM162.076 321.659C161.341 321.659 160.706 321.497 160.172 321.172C159.642 320.844 159.233 320.386 158.944 319.8C158.659 319.21 158.517 318.524 158.517 317.741C158.517 316.959 158.659 316.27 158.944 315.673C159.233 315.073 159.634 314.606 160.147 314.271C160.664 313.933 161.268 313.764 161.957 313.764C162.355 313.764 162.748 313.83 163.135 313.963C163.523 314.096 163.876 314.311 164.194 314.609C164.512 314.904 164.766 315.295 164.955 315.783C165.144 316.27 165.238 316.87 165.238 317.582V318.08H159.352V317.065H164.045C164.045 316.634 163.959 316.25 163.787 315.912C163.618 315.574 163.376 315.307 163.061 315.112C162.749 314.916 162.381 314.818 161.957 314.818C161.49 314.818 161.085 314.934 160.744 315.166C160.406 315.395 160.146 315.693 159.963 316.061C159.781 316.429 159.69 316.823 159.69 317.244V317.92C159.69 318.497 159.789 318.986 159.988 319.387C160.19 319.785 160.471 320.088 160.828 320.297C161.186 320.502 161.602 320.605 162.076 320.605C162.385 320.605 162.663 320.562 162.912 320.476C163.163 320.386 163.381 320.254 163.563 320.078C163.745 319.899 163.886 319.677 163.985 319.412L165.119 319.73C165 320.115 164.799 320.453 164.517 320.744C164.236 321.033 163.888 321.258 163.473 321.42C163.059 321.58 162.593 321.659 162.076 321.659Z" fill="#616B7C"/>
<rect x="75.5" y="296.5" width="540" height="39" rx="3.5" stroke="#E8E9F0"/>
<line x1="43" y1="367.5" x2="648" y2="367.5" stroke="#F2F2F8"/>
<rect x="43.5" y="61.5" width="604" height="410" rx="15.5" stroke="#F2F2F8"/>
<g filter="url(#filter1_b_245_56281)">
<rect x="68" y="259" width="485" height="90" fill="white" fill-opacity="0.7"/>
</g>
<g filter="url(#filter2_b_245_56281)">
<rect x="68" y="68" width="485" height="78" fill="white" fill-opacity="0.7"/>
</g>
</g>
<rect x="0.5" y="0.5" width="553" height="393.5" rx="16.5" stroke="#F2F2F8"/>
<defs>
<filter id="filter0_dd_245_56281" x="71" y="174" width="549" height="48" filterUnits="userSpaceOnUse" color-interpolation-filters="sRGB">
<feFlood flood-opacity="0" result="BackgroundImageFix"/>
<feColorMatrix in="SourceAlpha" type="matrix" values="0 0 0 0 0 0 0 0 0 0 0 0 0 0 0 0 0 0 127 0" result="hardAlpha"/>
<feMorphology radius="4" operator="dilate" in="SourceAlpha" result="effect1_dropShadow_245_56281"/>
<feOffset/>
<feComposite in2="hardAlpha" operator="out"/>
<feColorMatrix type="matrix" values="0 0 0 0 0.952941 0 0 0 0 0.521569 0 0 0 0 0 0 0 0 0.25 0"/>
<feBlend mode="normal" in2="BackgroundImageFix" result="effect1_dropShadow_245_56281"/>
<feColorMatrix in="SourceAlpha" type="matrix" values="0 0 0 0 0 0 0 0 0 0 0 0 0 0 0 0 0 0 127 0" result="hardAlpha"/>
<feMorphology radius="1" operator="dilate" in="SourceAlpha" result="effect2_dropShadow_245_56281"/>
<feOffset/>
<feComposite in2="hardAlpha" operator="out"/>
<feColorMatrix type="matrix" values="0 0 0 0 0.952941 0 0 0 0 0.521569 0 0 0 0 0 0 0 0 1 0"/>
<feBlend mode="normal" in2="effect1_dropShadow_245_56281" result="effect2_dropShadow_245_56281"/>
<feBlend mode="normal" in="SourceGraphic" in2="effect2_dropShadow_245_56281" result="shape"/>
</filter>
<filter id="filter1_b_245_56281" x="60" y="251" width="501" height="106" filterUnits="userSpaceOnUse" color-interpolation-filters="sRGB">
<feFlood flood-opacity="0" result="BackgroundImageFix"/>
<feGaussianBlur in="BackgroundImageFix" stdDeviation="4"/>
<feComposite in2="SourceAlpha" operator="in" result="effect1_backgroundBlur_245_56281"/>
<feBlend mode="normal" in="SourceGraphic" in2="effect1_backgroundBlur_245_56281" result="shape"/>
</filter>
<filter id="filter2_b_245_56281" x="60" y="60" width="501" height="94" filterUnits="userSpaceOnUse" color-interpolation-filters="sRGB">
<feFlood flood-opacity="0" result="BackgroundImageFix"/>
<feGaussianBlur in="BackgroundImageFix" stdDeviation="4"/>
<feComposite in2="SourceAlpha" operator="in" result="effect1_backgroundBlur_245_56281"/>
<feBlend mode="normal" in="SourceGraphic" in2="effect1_backgroundBlur_245_56281" result="shape"/>
</filter>
<clipPath id="clip0_245_56281">
<rect x="1" y="1" width="552" height="392.5" rx="16" fill="white"/>
</clipPath>
</defs>
</svg>
