<svg width="20" height="20" viewBox="0 0 20 20" fill="none" xmlns="http://www.w3.org/2000/svg">
<path d="M6 2.5C6 2.36739 5.94732 2.24021 5.85355 2.14645C5.75979 2.05268 5.63261 2 5.5 2C5.36739 2 5.24021 2.05268 5.14645 2.14645C5.05268 2.24021 5 2.36739 5 2.5V4.5C5 4.89782 5.15804 5.27936 5.43934 5.56066C5.72064 5.84196 6.10218 6 6.5 6H6.71L5.25 9.08C5.07564 9.44815 4.99387 9.85332 5.01183 10.2603C5.02978 10.6672 5.1469 11.0636 5.353 11.415L8.816 17.322C8.93717 17.5284 9.11017 17.6995 9.31785 17.8184C9.52554 17.9373 9.76069 17.9998 10 17.9998C10.2393 17.9998 10.4745 17.9373 10.6821 17.8184C10.8898 17.6995 11.0628 17.5284 11.184 17.322L14.647 11.415C14.8529 11.0636 14.9699 10.6671 14.9877 10.2602C15.0054 9.8532 14.9235 9.44807 14.749 9.08L13.29 6H13.5C13.8978 6 14.2794 5.84196 14.5607 5.56066C14.842 5.27936 15 4.89782 15 4.5V2.5C15 2.36739 14.9473 2.24021 14.8536 2.14645C14.7598 2.05268 14.6326 2 14.5 2C14.3674 2 14.2402 2.05268 14.1464 2.14645C14.0527 2.24021 14 2.36739 14 2.5V4.5C14 4.63261 13.9473 4.75979 13.8536 4.85355C13.7598 4.94732 13.6326 5 13.5 5H6.5C6.36739 5 6.24021 4.94732 6.14645 4.85355C6.05268 4.75979 6 4.63261 6 4.5V2.5ZM12.184 6L13.846 9.509C13.9504 9.72977 13.9993 9.9727 13.9885 10.2167C13.9777 10.4607 13.9075 10.6983 13.784 10.909L10.5 16.511V10.866C10.6906 10.7559 10.8396 10.586 10.9239 10.3827C11.0081 10.1793 11.0229 9.95379 10.9659 9.74116C10.909 9.52852 10.7834 9.34063 10.6088 9.20662C10.4341 9.07261 10.2201 8.99997 10 8.99997C9.77987 8.99997 9.56588 9.07261 9.39124 9.20662C9.21659 9.34063 9.09105 9.52852 9.03407 9.74116C8.9771 9.95379 8.99188 10.1793 9.07612 10.3827C9.16036 10.586 9.30936 10.7559 9.5 10.866V16.511L6.216 10.91C6.09248 10.6993 6.02226 10.4617 6.01146 10.2177C6.00065 9.9737 6.04958 9.73077 6.154 9.51L7.816 6H12.184V6Z" fill="black"/>
</svg>
