<svg width="24" height="24" viewBox="0 0 24 24" fill="none" xmlns="http://www.w3.org/2000/svg">
<path d="M6.36397 11.6656L11.6673 2.82672L15.2028 7.77646L17.6777 13.0798L16.2635 17.3224L14.1421 18.7366L14.4957 21.9186H11.6673H9.54595L9.1924 18.7366L6.71752 15.5546L6.36397 11.6656Z" fill="white"/>
<path fill-rule="evenodd" clip-rule="evenodd" d="M11.7869 2L12.2126 2.63865L15.5376 7.62607C17.7167 10.4993 18.0703 13.0343 17.5446 15.0562C17.061 16.9161 15.8512 18.2718 14.7967 19.0163L14.7967 22.0834L14.7967 22.5834L14.2967 22.5834L9.29652 22.5834L8.79652 22.5834L8.79652 22.0834L8.79652 18.9869C6.60258 17.1518 5.87774 15.0784 5.91456 13.2052C5.95157 11.3224 6.75573 9.68824 7.49908 8.73795L11.3748 2.64757L11.7869 2ZM8.32941 9.29578L11.2966 4.633L11.2966 11.9818C11.0733 12.0566 10.8634 12.1829 10.6855 12.3608C10.0718 12.9745 10.0718 13.9694 10.6855 14.5831C11.2992 15.1968 12.2941 15.1968 12.9078 14.5831C13.5215 13.9694 13.5215 12.9745 12.9078 12.3608C12.7299 12.1829 12.52 12.0566 12.2966 11.9818L12.2966 4.56742L14.714 8.19354L14.7226 8.20641L14.732 8.21873C16.7668 10.8962 17.0133 13.1254 16.5768 14.8045C16.1332 16.5105 14.9626 17.7335 14.0283 18.3281L13.7967 18.4755L13.7967 18.7499L13.7967 21.5834L9.79652 21.5834L9.79652 18.7499V18.5096L9.60886 18.3595C7.50468 16.6761 6.88278 14.8318 6.91437 13.2248C6.94654 11.5886 7.65885 10.1493 8.30002 9.33716L8.31576 9.31722L8.32941 9.29578Z" fill="#14141F"/>
</svg>
