<svg width="27" height="25" viewBox="0 0 27 25" fill="none" xmlns="http://www.w3.org/2000/svg">
<path d="M13.4339 14.6222C14.7149 14.6222 15.7535 13.5583 15.7535 12.246C15.7535 10.9336 14.7149 9.86975 13.4339 9.86975C12.1528 9.86975 11.1143 10.9336 11.1143 12.246C11.1143 13.5583 12.1528 14.6222 13.4339 14.6222Z" fill="#00D8FF"/>
<path fill-rule="evenodd" clip-rule="evenodd" d="M13.4338 7.41467C16.5481 7.41467 19.4413 7.87246 21.6228 8.64178C24.2511 9.56873 25.8671 10.9737 25.8671 12.246C25.8671 13.5718 24.1545 15.0644 21.332 16.0224C19.1981 16.7466 16.3901 17.1247 13.4338 17.1247C10.4027 17.1247 7.53245 16.7698 5.37454 16.0144C2.64439 15.0585 1 13.5465 1 12.246C1 10.9841 2.54295 9.5899 5.13434 8.66437C7.32392 7.88236 10.2885 7.41467 13.4333 7.41467H13.4338Z" stroke="#00D8FF" stroke-width="1.66272"/>
<path fill-rule="evenodd" clip-rule="evenodd" d="M9.32834 9.84434C10.8842 7.08063 12.7166 4.7419 14.457 3.19038C16.5539 1.32104 18.5494 0.588955 19.6252 1.22446C20.7464 1.88678 21.153 4.15234 20.553 7.13553C20.0999 9.391 19.0164 12.0716 17.5395 14.6951C16.0252 17.3849 14.2913 19.7547 12.5746 21.2919C10.4024 23.2371 8.30224 23.941 7.20248 23.2913C6.13531 22.6613 5.72722 20.5952 6.23916 17.8332C6.67171 15.4995 7.75724 12.635 9.32783 9.84429L9.32834 9.84434Z" stroke="#00D8FF" stroke-width="1.66272"/>
<path fill-rule="evenodd" clip-rule="evenodd" d="M9.33257 14.7021C7.77228 11.9416 6.70997 9.14675 6.26655 6.82734C5.73278 4.03275 6.11017 1.89608 7.18501 1.25872C8.30507 0.594464 10.4242 1.36501 12.6475 3.38734C14.3285 4.91631 16.0547 7.21626 17.5359 9.8373C19.0545 12.5245 20.1927 15.247 20.6355 17.5381C21.1958 20.4375 20.7423 22.6529 19.6436 23.3045C18.5775 23.9367 16.6266 23.2673 14.5463 21.4335C12.7887 19.8842 10.9083 17.4902 9.33257 14.7021V14.7021Z" stroke="#00D8FF" stroke-width="1.66272"/>
</svg>
