<svg width="23" height="28" viewBox="0 0 23 28" fill="none" xmlns="http://www.w3.org/2000/svg">
<path d="M21.0535 3.65968C18.5442 -0.0164713 13.5879 -1.1061 10.0049 1.23125L3.71217 5.33684C3.28836 5.6096 2.89357 5.92625 2.53425 6.28207C2.17467 6.63797 1.85231 7.03131 1.57238 7.4557C1.2922 7.8798 1.05584 8.33259 0.867095 8.80677C0.678683 9.28104 0.53864 9.77418 0.449731 10.2782C0.375257 10.7008 0.334889 11.129 0.329037 11.5585C0.323509 11.9884 0.352531 12.4173 0.416103 12.8421C0.479675 13.2668 0.577336 13.6853 0.708626 14.0935C0.839455 14.5017 1.00299 14.8977 1.19785 15.2785C1.06334 15.4866 0.93988 15.7018 0.827017 15.9231C0.713693 16.1445 0.611886 16.3714 0.521595 16.6031C0.430844 16.8349 0.35207 17.0713 0.284813 17.3115C0.217556 17.5512 0.162276 17.7947 0.118973 18.0406C0.0296037 18.5554 -0.00955291 19.0788 0.00196374 19.6016C0.0139411 20.125 0.0765917 20.6455 0.188994 21.1556C0.301858 21.6662 0.463551 22.1636 0.672694 22.6412C0.881836 23.1188 1.13705 23.5737 1.43418 23.9993C3.94343 27.6755 8.89973 28.7647 12.4828 26.4278L18.776 22.3392C19.1989 22.0659 19.5932 21.7493 19.952 21.393C20.3114 21.0367 20.6338 20.6436 20.9139 20.2194C21.1935 19.7951 21.4299 19.3426 21.6192 18.8683C21.8081 18.3945 21.9481 17.9018 22.0379 17.3978C22.1868 16.5512 22.1977 15.6852 22.0702 14.8349C22.0062 14.4107 21.9085 13.9926 21.7772 13.5844C21.6464 13.1766 21.4824 12.7802 21.2875 12.4003C21.4216 12.1918 21.5455 11.9766 21.6583 11.7552C21.7717 11.5339 21.8735 11.3069 21.9642 11.0752C22.055 10.8435 22.1342 10.6071 22.2019 10.3669C22.2692 10.1272 22.3249 9.88367 22.3687 9.63827C22.4579 9.12315 22.4969 8.60023 22.4852 8.0772C22.4733 7.55386 22.4106 7.03335 22.2978 6.52322C22.1852 6.01281 22.0234 5.51517 21.8145 5.03765C21.6055 4.56017 21.3506 4.10521 21.0535 3.6795" fill="#FF3E00"/>
<path d="M9.38964 24.3551C8.39903 24.6183 7.35343 24.564 6.39392 24.1993C5.91685 24.0184 5.4696 23.7638 5.06767 23.4443C4.66567 23.125 4.31352 22.7449 4.02333 22.3169C3.8446 22.0607 3.69166 21.7874 3.56589 21.5005C3.44013 21.2131 3.34293 20.9139 3.27521 20.6072C3.20796 20.3005 3.17018 19.9876 3.16327 19.6728C3.15636 19.3585 3.18032 19.0442 3.23421 18.7347C3.24343 18.6842 3.2531 18.6337 3.2637 18.5837C3.27429 18.5336 3.28627 18.4836 3.29871 18.4341C3.31114 18.3845 3.3245 18.335 3.33878 18.2859C3.35307 18.2368 3.36827 18.1877 3.38393 18.1391L3.50232 17.7687L3.82571 18.0155C4.0109 18.1542 4.20207 18.2845 4.39832 18.4067C4.5941 18.5289 4.79541 18.6422 5.00087 18.7469C5.20633 18.8517 5.41593 18.9475 5.62968 19.0339C5.84297 19.1207 6.05994 19.1981 6.27968 19.2656L6.52061 19.3373L6.49896 19.5846C6.49343 19.6681 6.49481 19.7526 6.5031 19.8361C6.51139 19.9196 6.52706 20.0027 6.54963 20.0834C6.57174 20.1645 6.60076 20.2434 6.6367 20.3189C6.67217 20.3948 6.71409 20.467 6.762 20.5355C6.84952 20.6643 6.95594 20.7785 7.07709 20.8748C7.19825 20.9706 7.33276 21.047 7.47649 21.1017C7.62022 21.156 7.77132 21.1876 7.92426 21.1957C8.0772 21.2037 8.2306 21.1876 8.37894 21.148C8.41256 21.139 8.44665 21.1282 8.47982 21.1164C8.51299 21.1041 8.5457 21.0909 8.57794 21.0767C8.61019 21.0621 8.64198 21.0465 8.6733 21.0295C8.70463 21.0126 8.73503 20.9946 8.76497 20.9753L15.048 16.8692C15.2023 16.7699 15.3346 16.6386 15.4363 16.4837C15.487 16.4063 15.5299 16.3242 15.5639 16.2378C15.598 16.1514 15.6234 16.0618 15.639 15.9702C15.6877 15.6881 15.652 15.3974 15.5368 15.1364C15.4985 15.0495 15.452 14.9674 15.3981 14.8905C15.3106 14.7617 15.2042 14.6475 15.083 14.5512C14.8393 14.3579 14.5436 14.2459 14.2358 14.2303C14.0829 14.2223 13.9295 14.2383 13.7812 14.2775C13.7471 14.2869 13.7135 14.2973 13.6803 14.3096C13.6467 14.3214 13.6139 14.3346 13.5817 14.3492C13.5495 14.3634 13.5177 14.3794 13.4863 14.396C13.4555 14.4129 13.4251 14.4313 13.3951 14.4507L10.9822 16.0193C10.7852 16.1473 10.579 16.2598 10.3653 16.3558C10.2585 16.4034 10.1502 16.4473 10.0401 16.487C9.93 16.5266 9.81852 16.5615 9.70565 16.5927C9.21412 16.7225 8.70601 16.7753 8.19881 16.7484C7.69162 16.722 7.1918 16.6163 6.71547 16.4355C6.23958 16.2545 5.79332 16.0003 5.39197 15.6819C4.99047 15.3634 4.63877 14.9841 4.34903 14.5569C3.99228 14.0432 3.73905 13.4618 3.60413 12.8467C3.53687 12.5399 3.50002 12.2271 3.49311 11.9128C3.48666 11.5985 3.51061 11.2842 3.56497 10.9746C3.67143 10.3655 3.90098 9.78586 4.23893 9.27293C4.40733 9.01723 4.60124 8.78015 4.81752 8.56554C5.03404 8.35082 5.27174 8.1597 5.52649 7.99501L11.8293 3.88942C11.927 3.82524 12.0274 3.76531 12.1297 3.70962C12.2319 3.65346 12.3365 3.60155 12.4425 3.55342C12.5489 3.50529 12.6567 3.4614 12.7659 3.42223C12.8755 3.38259 12.9865 3.3472 13.0985 3.31605C13.5905 3.18533 14.0995 3.13201 14.6076 3.15843C15.1157 3.18486 15.6165 3.2901 16.0933 3.47131C16.57 3.65252 17.0174 3.90735 17.4191 4.22683C17.8208 4.54584 18.1727 4.9262 18.4625 5.35422C18.8208 5.86716 19.0755 6.44829 19.2115 7.06346C19.2792 7.3702 19.317 7.68355 19.3239 7.99784C19.3313 8.31232 19.3078 8.62677 19.2539 8.93646C19.2442 8.98743 19.2341 9.03792 19.223 9.08842C19.2124 9.13891 19.2005 9.18893 19.188 9.23895C19.1756 9.28898 19.1622 9.339 19.1484 9.38855C19.1341 9.4381 19.1194 9.48765 19.1042 9.53673L18.9835 9.90717L18.6624 9.66037C18.4768 9.52071 18.2854 9.38924 18.0889 9.26632C17.8922 9.14316 17.6904 9.02895 17.4845 8.92325C17.2783 8.81779 17.0679 8.72128 16.8538 8.63397C16.6396 8.54667 16.4217 8.4688 16.2015 8.40037L15.9601 8.32865L15.9818 8.08184C15.9887 7.99737 15.9882 7.9129 15.9809 7.82842C15.9735 7.74417 15.9587 7.66078 15.9366 7.57926C15.915 7.49762 15.8864 7.41834 15.8509 7.34189C15.8155 7.26544 15.774 7.19229 15.7261 7.12292C15.6379 6.9965 15.5317 6.88435 15.411 6.79023C15.29 6.69637 15.1558 6.62175 15.013 6.5689C14.8705 6.51589 14.7209 6.48549 14.5694 6.47877C14.4174 6.47169 14.2658 6.48821 14.1188 6.52785C14.0847 6.53682 14.0511 6.54767 14.018 6.55947C13.9848 6.57126 13.9516 6.58448 13.9194 6.59911C13.8871 6.61374 13.8553 6.62931 13.8245 6.6463C13.7931 6.66329 13.7627 6.68122 13.7328 6.70057L7.43779 10.7991C7.2842 10.8988 7.15231 11.0299 7.05037 11.1842C6.99971 11.2611 6.9568 11.3432 6.92231 11.4291C6.88822 11.5154 6.86288 11.6046 6.84676 11.6962C6.83064 11.7896 6.82419 11.8845 6.82649 11.9798C6.82925 12.0746 6.84077 12.169 6.8615 12.262C6.88226 12.3545 6.91173 12.4448 6.94949 12.5314C6.98772 12.6183 7.03379 12.7009 7.08769 12.7783C7.17475 12.9057 7.28025 13.0189 7.40048 13.1143C7.52071 13.2096 7.65431 13.286 7.79711 13.3403C7.93946 13.3946 8.08918 13.4267 8.24074 13.4352C8.39276 13.4436 8.54478 13.429 8.69265 13.3908C8.72628 13.3814 8.75991 13.3705 8.79354 13.3587C8.8267 13.3464 8.85941 13.3332 8.89166 13.3186C8.9239 13.3044 8.95569 13.2889 8.98701 13.2719C9.01788 13.2549 9.04874 13.2369 9.07869 13.2181L11.4912 11.6513C11.5898 11.5872 11.6907 11.5263 11.7939 11.4697C11.8966 11.413 12.0016 11.3606 12.109 11.3125C12.2158 11.2644 12.3245 11.2205 12.4351 11.1809C12.5452 11.1417 12.6571 11.1063 12.77 11.0761C13.2625 10.9449 13.771 10.8911 14.2792 10.9171C14.787 10.9434 15.2879 11.0487 15.7648 11.2295C16.2417 11.4104 16.6888 11.6651 17.0906 11.9845C17.4928 12.3035 17.8442 12.6839 18.134 13.1114C18.3127 13.3677 18.4661 13.6409 18.5919 13.9278C18.7177 14.2152 18.8153 14.5139 18.883 14.8211C18.9508 15.1279 18.9885 15.4408 18.9955 15.755C19.0028 16.0698 18.9793 16.3841 18.9254 16.6937C18.8725 16.9975 18.7886 17.2949 18.6753 17.5809C18.5619 17.8667 18.4199 18.1396 18.2515 18.3954C18.0833 18.6511 17.8894 18.8885 17.6729 19.1032C17.4564 19.3179 17.2187 19.5091 16.9639 19.6733L10.6684 23.7793C10.5699 23.8435 10.469 23.9039 10.3658 23.9601C10.2626 24.0162 10.1576 24.0686 10.0507 24.1168C9.94336 24.1649 9.83464 24.2088 9.72454 24.2489C9.61444 24.2885 9.5025 24.3239 9.38964 24.3551Z" fill="white"/>
</svg>
