<svg width="1138" height="276" viewBox="0 0 1138 276" fill="none" xmlns="http://www.w3.org/2000/svg">
<rect x="0.5" y="0.500244" width="1137" height="275" rx="16.5" fill="#FCFCFF"/>
<rect x="266" y="41.0002" width="606" height="82" rx="4" fill="white"/>
<path d="M306.983 74.8184V85.0002H305.751V74.8184H306.983ZM312.618 77.3639V78.3582H308.66V77.3639H312.618ZM309.814 75.5343H310.987V82.8127C310.987 83.1442 311.035 83.3928 311.131 83.5585C311.23 83.7209 311.356 83.8303 311.509 83.8866C311.665 83.9396 311.829 83.9662 312.001 83.9662C312.13 83.9662 312.236 83.9595 312.319 83.9463C312.402 83.9297 312.468 83.9164 312.518 83.9065L312.757 84.9605C312.677 84.9903 312.566 85.0201 312.424 85.05C312.281 85.0831 312.1 85.0997 311.882 85.0997C311.55 85.0997 311.225 85.0284 310.907 84.8859C310.592 84.7434 310.331 84.5263 310.122 84.2346C309.916 83.943 309.814 83.5751 309.814 83.1309V75.5343ZM317.502 85.1593C316.766 85.1593 316.132 84.9969 315.598 84.6721C315.068 84.344 314.658 83.8866 314.37 83.3C314.085 82.71 313.942 82.0239 313.942 81.2417C313.942 80.4595 314.085 79.7701 314.37 79.1735C314.658 78.5736 315.059 78.1063 315.573 77.7716C316.09 77.4335 316.693 77.2644 317.383 77.2644C317.781 77.2644 318.173 77.3307 318.561 77.4633C318.949 77.5959 319.302 77.8113 319.62 78.1096C319.938 78.4046 320.192 78.7957 320.381 79.2829C320.57 79.7701 320.664 80.37 320.664 81.0826V81.5798H314.778V80.5656H319.471C319.471 80.1347 319.385 79.7502 319.212 79.4122C319.043 79.0741 318.801 78.8073 318.487 78.6117C318.175 78.4162 317.807 78.3184 317.383 78.3184C316.915 78.3184 316.511 78.4344 316.17 78.6664C315.832 78.8951 315.571 79.1934 315.389 79.5613C315.207 79.9292 315.116 80.3236 315.116 80.7446V81.4207C315.116 81.9974 315.215 82.4863 315.414 82.8873C315.616 83.285 315.896 83.5883 316.254 83.7971C316.612 84.0026 317.028 84.1054 317.502 84.1054C317.81 84.1054 318.089 84.0623 318.337 83.9761C318.589 83.8866 318.806 83.754 318.989 83.5784C319.171 83.3994 319.312 83.1773 319.411 82.9122L320.545 83.2304C320.425 83.6148 320.225 83.9529 319.943 84.2446C319.661 84.5329 319.313 84.7583 318.899 84.9207C318.485 85.0798 318.019 85.1593 317.502 85.1593ZM322.449 85.0002V77.3639H323.582V78.5571H323.682C323.841 78.1494 324.098 77.8329 324.452 77.6075C324.807 77.3788 325.233 77.2644 325.73 77.2644C326.234 77.2644 326.653 77.3788 326.988 77.6075C327.326 77.8329 327.589 78.1494 327.778 78.5571H327.858C328.054 78.1626 328.347 77.8494 328.738 77.6174C329.129 77.3821 329.598 77.2644 330.145 77.2644C330.828 77.2644 331.386 77.4782 331.82 77.9058C332.254 78.33 332.472 78.9912 332.472 79.8894V85.0002H331.298V79.8894C331.298 79.326 331.144 78.9233 330.836 78.6814C330.528 78.4394 330.165 78.3184 329.747 78.3184C329.21 78.3184 328.794 78.4808 328.499 78.8056C328.204 79.1271 328.057 79.5348 328.057 80.0287V85.0002H326.864V79.7701C326.864 79.3359 326.723 78.9863 326.441 78.7211C326.159 78.4527 325.796 78.3184 325.352 78.3184C325.047 78.3184 324.762 78.3996 324.497 78.562C324.235 78.7244 324.023 78.9498 323.861 79.2382C323.702 79.5232 323.622 79.853 323.622 80.2275V85.0002H322.449ZM347.304 79.9093C347.304 80.9832 347.11 81.9112 346.723 82.6934C346.335 83.4756 345.803 84.0788 345.127 84.5031C344.451 84.9273 343.678 85.1394 342.81 85.1394C341.942 85.1394 341.169 84.9273 340.493 84.5031C339.817 84.0788 339.285 83.4756 338.897 82.6934C338.51 81.9112 338.316 80.9832 338.316 79.9093C338.316 78.8355 338.51 77.9074 338.897 77.1252C339.285 76.343 339.817 75.7398 340.493 75.3156C341.169 74.8913 341.942 74.6792 342.81 74.6792C343.678 74.6792 344.451 74.8913 345.127 75.3156C345.803 75.7398 346.335 76.343 346.723 77.1252C347.11 77.9074 347.304 78.8355 347.304 79.9093ZM346.111 79.9093C346.111 79.0277 345.964 78.2836 345.669 77.6771C345.377 77.0706 344.981 76.6115 344.48 76.3C343.983 75.9884 343.426 75.8326 342.81 75.8326C342.194 75.8326 341.635 75.9884 341.135 76.3C340.637 76.6115 340.241 77.0706 339.946 77.6771C339.655 78.2836 339.509 79.0277 339.509 79.9093C339.509 80.791 339.655 81.535 339.946 82.1416C340.241 82.7481 340.637 83.2072 341.135 83.5187C341.635 83.8303 342.194 83.986 342.81 83.986C343.426 83.986 343.983 83.8303 344.48 83.5187C344.981 83.2072 345.377 82.7481 345.669 82.1416C345.964 81.535 346.111 80.791 346.111 79.9093ZM350.392 80.4065V85.0002H349.218V77.3639H350.352V78.5571H350.451C350.63 78.1693 350.902 77.8577 351.267 77.6224C351.631 77.3838 352.102 77.2644 352.679 77.2644C353.196 77.2644 353.648 77.3705 354.036 77.5826C354.424 77.7914 354.725 78.1096 354.941 78.5372C355.156 78.9614 355.264 79.4984 355.264 80.148V85.0002H354.091V80.2275C354.091 79.6276 353.935 79.1603 353.623 78.8255C353.312 78.4875 352.884 78.3184 352.341 78.3184C351.966 78.3184 351.631 78.3996 351.336 78.562C351.045 78.7244 350.814 78.9614 350.645 79.273C350.476 79.5845 350.392 79.9624 350.392 80.4065ZM360.61 85.1593C359.874 85.1593 359.239 84.9969 358.705 84.6721C358.175 84.344 357.766 83.8866 357.477 83.3C357.192 82.71 357.05 82.0239 357.05 81.2417C357.05 80.4595 357.192 79.7701 357.477 79.1735C357.766 78.5736 358.167 78.1063 358.681 77.7716C359.198 77.4335 359.801 77.2644 360.49 77.2644C360.888 77.2644 361.281 77.3307 361.669 77.4633C362.056 77.5959 362.409 77.8113 362.727 78.1096C363.046 78.4046 363.299 78.7957 363.488 79.2829C363.677 79.7701 363.771 80.37 363.771 81.0826V81.5798H357.885V80.5656H362.578C362.578 80.1347 362.492 79.7502 362.32 79.4122C362.151 79.0741 361.909 78.8073 361.594 78.6117C361.282 78.4162 360.914 78.3184 360.49 78.3184C360.023 78.3184 359.619 78.4344 359.277 78.6664C358.939 78.8951 358.679 79.1934 358.497 79.5613C358.314 79.9292 358.223 80.3236 358.223 80.7446V81.4207C358.223 81.9974 358.323 82.4863 358.521 82.8873C358.724 83.285 359.004 83.5883 359.362 83.7971C359.72 84.0026 360.136 84.1054 360.61 84.1054C360.918 84.1054 361.196 84.0623 361.445 83.9761C361.697 83.8866 361.914 83.754 362.096 83.5784C362.278 83.3994 362.419 83.1773 362.519 82.9122L363.652 83.2304C363.533 83.6148 363.332 83.9529 363.051 84.2446C362.769 84.5329 362.421 84.7583 362.007 84.9207C361.592 85.0798 361.127 85.1593 360.61 85.1593Z" fill="#DA1A5B"/>
<rect x="288.5" y="105" width="92" height="2" fill="#DA1A5B"/>
<path d="M415.196 75.8184V86.0002H413.963V75.8184H415.196ZM420.83 78.3639V79.3582H416.873V78.3639H420.83ZM418.026 76.5343H419.2V83.8127C419.2 84.1442 419.248 84.3928 419.344 84.5585C419.443 84.7209 419.569 84.8303 419.722 84.8866C419.878 84.9396 420.042 84.9662 420.214 84.9662C420.343 84.9662 420.449 84.9595 420.532 84.9463C420.615 84.9297 420.681 84.9164 420.731 84.9065L420.97 85.9605C420.89 85.9903 420.779 86.0201 420.637 86.05C420.494 86.0831 420.313 86.0997 420.095 86.0997C419.763 86.0997 419.438 86.0284 419.12 85.8859C418.805 85.7434 418.544 85.5263 418.335 85.2346C418.129 84.943 418.026 84.5751 418.026 84.1309V76.5343ZM425.715 86.1593C424.979 86.1593 424.345 85.9969 423.811 85.6721C423.281 85.344 422.871 84.8866 422.583 84.3C422.298 83.71 422.155 83.0239 422.155 82.2417C422.155 81.4595 422.298 80.7701 422.583 80.1735C422.871 79.5736 423.272 79.1063 423.786 78.7716C424.303 78.4335 424.906 78.2644 425.596 78.2644C425.993 78.2644 426.386 78.3307 426.774 78.4633C427.162 78.5959 427.515 78.8113 427.833 79.1096C428.151 79.4046 428.405 79.7957 428.594 80.2829C428.782 80.7701 428.877 81.37 428.877 82.0826V82.5798H422.991V81.5656H427.684C427.684 81.1347 427.598 80.7502 427.425 80.4122C427.256 80.0741 427.014 79.8073 426.699 79.6117C426.388 79.4162 426.02 79.3184 425.596 79.3184C425.128 79.3184 424.724 79.4344 424.383 79.6664C424.045 79.8951 423.784 80.1934 423.602 80.5613C423.42 80.9292 423.329 81.3236 423.329 81.7446V82.4207C423.329 82.9974 423.428 83.4863 423.627 83.8873C423.829 84.285 424.109 84.5883 424.467 84.7971C424.825 85.0026 425.241 85.1054 425.715 85.1054C426.023 85.1054 426.302 85.0623 426.55 84.9761C426.802 84.8866 427.019 84.754 427.202 84.5784C427.384 84.3994 427.525 84.1773 427.624 83.9122L428.758 84.2304C428.638 84.6148 428.438 84.9529 428.156 85.2446C427.874 85.5329 427.526 85.7583 427.112 85.9207C426.698 86.0798 426.232 86.1593 425.715 86.1593ZM430.662 86.0002V78.3639H431.795V79.5571H431.895C432.054 79.1494 432.311 78.8329 432.665 78.6075C433.02 78.3788 433.446 78.2644 433.943 78.2644C434.447 78.2644 434.866 78.3788 435.201 78.6075C435.539 78.8329 435.802 79.1494 435.991 79.5571H436.071C436.266 79.1626 436.56 78.8494 436.951 78.6174C437.342 78.3821 437.811 78.2644 438.358 78.2644C439.041 78.2644 439.599 78.4782 440.033 78.9058C440.467 79.33 440.684 79.9912 440.684 80.8894V86.0002H439.511V80.8894C439.511 80.326 439.357 79.9233 439.049 79.6814C438.741 79.4394 438.378 79.3184 437.96 79.3184C437.423 79.3184 437.007 79.4808 436.712 79.8056C436.417 80.1271 436.27 80.5348 436.27 81.0287V86.0002H435.077V80.7701C435.077 80.3359 434.936 79.9863 434.654 79.7211C434.372 79.4527 434.009 79.3184 433.565 79.3184C433.26 79.3184 432.975 79.3996 432.71 79.562C432.448 79.7244 432.236 79.9498 432.074 80.2382C431.915 80.5232 431.835 80.853 431.835 81.2275V86.0002H430.662ZM446.369 76.9122V75.8184H454.006V76.9122H450.804V86.0002H449.571V76.9122H446.369ZM456.605 86.0002L454.278 78.3639H455.511L457.162 84.2105H457.241L458.872 78.3639H460.125L461.735 84.1906H461.815L463.466 78.3639H464.699L462.372 86.0002H461.218L459.548 80.1338H459.429L457.758 86.0002H456.605ZM469.092 86.1593C468.403 86.1593 467.798 85.9953 467.278 85.6671C466.76 85.339 466.356 84.88 466.064 84.29C465.776 83.7001 465.632 83.0107 465.632 82.2218C465.632 81.4264 465.776 80.732 466.064 80.1387C466.356 79.5455 466.76 79.0848 467.278 78.7566C467.798 78.4285 468.403 78.2644 469.092 78.2644C469.782 78.2644 470.385 78.4285 470.902 78.7566C471.422 79.0848 471.827 79.5455 472.115 80.1387C472.407 80.732 472.552 81.4264 472.552 82.2218C472.552 83.0107 472.407 83.7001 472.115 84.29C471.827 84.88 471.422 85.339 470.902 85.6671C470.385 85.9953 469.782 86.1593 469.092 86.1593ZM469.092 85.1054C469.616 85.1054 470.047 84.9711 470.385 84.7027C470.723 84.4342 470.973 84.0812 471.135 83.6437C471.298 83.2062 471.379 82.7323 471.379 82.2218C471.379 81.7114 471.298 81.2358 471.135 80.795C470.973 80.3542 470.723 79.9979 470.385 79.7261C470.047 79.4543 469.616 79.3184 469.092 79.3184C468.568 79.3184 468.138 79.4543 467.8 79.7261C467.461 79.9979 467.211 80.3542 467.049 80.795C466.886 81.2358 466.805 81.7114 466.805 82.2218C466.805 82.7323 466.886 83.2062 467.049 83.6437C467.211 84.0812 467.461 84.4342 467.8 84.7027C468.138 84.9711 468.568 85.1054 469.092 85.1054Z" fill="#616B7C"/>
<path d="M524.221 75.8184V86.0002H522.988V75.8184H524.221ZM529.855 78.3639V79.3582H525.897V78.3639H529.855ZM527.051 76.5343H528.224V83.8127C528.224 84.1442 528.272 84.3928 528.368 84.5585C528.468 84.7209 528.594 84.8303 528.746 84.8866C528.902 84.9396 529.066 84.9662 529.238 84.9662C529.368 84.9662 529.474 84.9595 529.557 84.9463C529.639 84.9297 529.706 84.9164 529.755 84.9065L529.994 85.9605C529.915 85.9903 529.803 86.0201 529.661 86.05C529.518 86.0831 529.338 86.0997 529.119 86.0997C528.788 86.0997 528.463 86.0284 528.145 85.8859C527.83 85.7434 527.568 85.5263 527.359 85.2346C527.154 84.943 527.051 84.5751 527.051 84.1309V76.5343ZM534.739 86.1593C534.004 86.1593 533.369 85.9969 532.835 85.6721C532.305 85.344 531.896 84.8866 531.607 84.3C531.322 83.71 531.18 83.0239 531.18 82.2417C531.18 81.4595 531.322 80.7701 531.607 80.1735C531.896 79.5736 532.297 79.1063 532.81 78.7716C533.328 78.4335 533.931 78.2644 534.62 78.2644C535.018 78.2644 535.411 78.3307 535.798 78.4633C536.186 78.5959 536.539 78.8113 536.857 79.1096C537.176 79.4046 537.429 79.7957 537.618 80.2829C537.807 80.7701 537.901 81.37 537.901 82.0826V82.5798H532.015V81.5656H536.708C536.708 81.1347 536.622 80.7502 536.45 80.4122C536.281 80.0741 536.039 79.8073 535.724 79.6117C535.412 79.4162 535.044 79.3184 534.62 79.3184C534.153 79.3184 533.748 79.4344 533.407 79.6664C533.069 79.8951 532.809 80.1934 532.627 80.5613C532.444 80.9292 532.353 81.3236 532.353 81.7446V82.4207C532.353 82.9974 532.453 83.4863 532.651 83.8873C532.854 84.285 533.134 84.5883 533.492 84.7971C533.85 85.0026 534.265 85.1054 534.739 85.1054C535.048 85.1054 535.326 85.0623 535.575 84.9761C535.827 84.8866 536.044 84.754 536.226 84.5784C536.408 84.3994 536.549 84.1773 536.649 83.9122L537.782 84.2304C537.663 84.6148 537.462 84.9529 537.18 85.2446C536.899 85.5329 536.551 85.7583 536.136 85.9207C535.722 86.0798 535.256 86.1593 534.739 86.1593ZM539.686 86.0002V78.3639H540.82V79.5571H540.919C541.078 79.1494 541.335 78.8329 541.69 78.6075C542.044 78.3788 542.47 78.2644 542.967 78.2644C543.471 78.2644 543.89 78.3788 544.225 78.6075C544.563 78.8329 544.827 79.1494 545.016 79.5571H545.095C545.291 79.1626 545.584 78.8494 545.975 78.6174C546.366 78.3821 546.835 78.2644 547.382 78.2644C548.065 78.2644 548.623 78.4782 549.058 78.9058C549.492 79.33 549.709 79.9912 549.709 80.8894V86.0002H548.536V80.8894C548.536 80.326 548.381 79.9233 548.073 79.6814C547.765 79.4394 547.402 79.3184 546.984 79.3184C546.448 79.3184 546.032 79.4808 545.737 79.8056C545.442 80.1271 545.294 80.5348 545.294 81.0287V86.0002H544.101V80.7701C544.101 80.3359 543.96 79.9863 543.678 79.7211C543.397 79.4527 543.034 79.3184 542.59 79.3184C542.285 79.3184 542 79.3996 541.734 79.562C541.473 79.7244 541.261 79.9498 541.098 80.2382C540.939 80.5232 540.859 80.853 540.859 81.2275V86.0002H539.686ZM555.394 76.9122V75.8184H563.03V76.9122H559.829V86.0002H558.596V76.9122H555.394ZM565.947 81.4065V86.0002H564.774V75.8184H565.947V79.5571H566.047C566.226 79.1626 566.494 78.8494 566.852 78.6174C567.213 78.3821 567.694 78.2644 568.294 78.2644C568.814 78.2644 569.27 78.3689 569.661 78.5777C570.052 78.7832 570.355 79.0997 570.571 79.5272C570.79 79.9515 570.899 80.4917 570.899 81.148V86.0002H569.726V81.2275C569.726 80.621 569.568 80.152 569.253 79.8206C568.942 79.4858 568.509 79.3184 567.956 79.3184C567.571 79.3184 567.227 79.3996 566.922 79.562C566.62 79.7244 566.382 79.9614 566.206 80.273C566.034 80.5845 565.947 80.9624 565.947 81.4065ZM573.046 86.0002V78.3639H574.179V79.5173H574.259C574.398 79.1394 574.65 78.8329 575.014 78.5975C575.379 78.3622 575.79 78.2446 576.247 78.2446C576.333 78.2446 576.441 78.2462 576.57 78.2495C576.7 78.2528 576.797 78.2578 576.864 78.2644V79.4576C576.824 79.4477 576.733 79.4328 576.59 79.4129C576.451 79.3897 576.304 79.3781 576.148 79.3781C575.777 79.3781 575.445 79.456 575.153 79.6117C574.865 79.7642 574.636 79.9763 574.467 80.2481C574.302 80.5166 574.219 80.8232 574.219 81.1679V86.0002H573.046ZM581.224 86.1593C580.488 86.1593 579.853 85.9969 579.32 85.6721C578.789 85.344 578.38 84.8866 578.092 84.3C577.807 83.71 577.664 83.0239 577.664 82.2417C577.664 81.4595 577.807 80.7701 578.092 80.1735C578.38 79.5736 578.781 79.1063 579.295 78.7716C579.812 78.4335 580.415 78.2644 581.104 78.2644C581.502 78.2644 581.895 78.3307 582.283 78.4633C582.671 78.5959 583.024 78.8113 583.342 79.1096C583.66 79.4046 583.913 79.7957 584.102 80.2829C584.291 80.7701 584.386 81.37 584.386 82.0826V82.5798H578.499V81.5656H583.193C583.193 81.1347 583.106 80.7502 582.934 80.4122C582.765 80.0741 582.523 79.8073 582.208 79.6117C581.897 79.4162 581.529 79.3184 581.104 79.3184C580.637 79.3184 580.233 79.4344 579.891 79.6664C579.553 79.8951 579.293 80.1934 579.111 80.5613C578.929 80.9292 578.837 81.3236 578.837 81.7446V82.4207C578.837 82.9974 578.937 83.4863 579.136 83.8873C579.338 84.285 579.618 84.5883 579.976 84.7971C580.334 85.0026 580.75 85.1054 581.224 85.1054C581.532 85.1054 581.81 85.0623 582.059 84.9761C582.311 84.8866 582.528 84.754 582.71 84.5784C582.893 84.3994 583.033 84.1773 583.133 83.9122L584.266 84.2304C584.147 84.6148 583.947 84.9529 583.665 85.2446C583.383 85.5329 583.035 85.7583 582.621 85.9207C582.207 86.0798 581.741 86.1593 581.224 86.1593ZM589.372 86.1593C588.636 86.1593 588.002 85.9969 587.468 85.6721C586.938 85.344 586.528 84.8866 586.24 84.3C585.955 83.71 585.813 83.0239 585.813 82.2417C585.813 81.4595 585.955 80.7701 586.24 80.1735C586.528 79.5736 586.93 79.1063 587.443 78.7716C587.96 78.4335 588.564 78.2644 589.253 78.2644C589.651 78.2644 590.043 78.3307 590.431 78.4633C590.819 78.5959 591.172 78.8113 591.49 79.1096C591.808 79.4046 592.062 79.7957 592.251 80.2829C592.44 80.7701 592.534 81.37 592.534 82.0826V82.5798H586.648V81.5656H591.341C591.341 81.1347 591.255 80.7502 591.082 80.4122C590.913 80.0741 590.671 79.8073 590.357 79.6117C590.045 79.4162 589.677 79.3184 589.253 79.3184C588.786 79.3184 588.381 79.4344 588.04 79.6664C587.702 79.8951 587.442 80.1934 587.259 80.5613C587.077 80.9292 586.986 81.3236 586.986 81.7446V82.4207C586.986 82.9974 587.085 83.4863 587.284 83.8873C587.486 84.285 587.766 84.5883 588.124 84.7971C588.482 85.0026 588.898 85.1054 589.372 85.1054C589.68 85.1054 589.959 85.0623 590.207 84.9761C590.459 84.8866 590.676 84.754 590.859 84.5784C591.041 84.3994 591.182 84.1773 591.281 83.9122L592.415 84.2304C592.296 84.6148 592.095 84.9529 591.813 85.2446C591.532 85.5329 591.184 85.7583 590.769 85.9207C590.355 86.0798 589.889 86.1593 589.372 86.1593Z" fill="#616B7C"/>
<path d="M644.308 75.8184V86.0002H643.075V75.8184H644.308ZM649.942 78.3639V79.3582H645.984V78.3639H649.942ZM647.138 76.5343H648.311V83.8127C648.311 84.1442 648.359 84.3928 648.455 84.5585C648.555 84.7209 648.681 84.8303 648.833 84.8866C648.989 84.9396 649.153 84.9662 649.325 84.9662C649.455 84.9662 649.561 84.9595 649.643 84.9463C649.726 84.9297 649.793 84.9164 649.842 84.9065L650.081 85.9605C650.001 85.9903 649.89 86.0201 649.748 86.05C649.605 86.0831 649.425 86.0997 649.206 86.0997C648.875 86.0997 648.55 86.0284 648.232 85.8859C647.917 85.7434 647.655 85.5263 647.446 85.2346C647.241 84.943 647.138 84.5751 647.138 84.1309V76.5343ZM654.826 86.1593C654.091 86.1593 653.456 85.9969 652.922 85.6721C652.392 85.344 651.983 84.8866 651.694 84.3C651.409 83.71 651.267 83.0239 651.267 82.2417C651.267 81.4595 651.409 80.7701 651.694 80.1735C651.983 79.5736 652.384 79.1063 652.897 78.7716C653.414 78.4335 654.018 78.2644 654.707 78.2644C655.105 78.2644 655.498 78.3307 655.885 78.4633C656.273 78.5959 656.626 78.8113 656.944 79.1096C657.262 79.4046 657.516 79.7957 657.705 80.2829C657.894 80.7701 657.988 81.37 657.988 82.0826V82.5798H652.102V81.5656H656.795C656.795 81.1347 656.709 80.7502 656.537 80.4122C656.368 80.0741 656.126 79.8073 655.811 79.6117C655.499 79.4162 655.131 79.3184 654.707 79.3184C654.24 79.3184 653.835 79.4344 653.494 79.6664C653.156 79.8951 652.896 80.1934 652.713 80.5613C652.531 80.9292 652.44 81.3236 652.44 81.7446V82.4207C652.44 82.9974 652.539 83.4863 652.738 83.8873C652.94 84.285 653.221 84.5883 653.578 84.7971C653.936 85.0026 654.352 85.1054 654.826 85.1054C655.135 85.1054 655.413 85.0623 655.662 84.9761C655.913 84.8866 656.131 84.754 656.313 84.5784C656.495 84.3994 656.636 84.1773 656.735 83.9122L657.869 84.2304C657.75 84.6148 657.549 84.9529 657.267 85.2446C656.986 85.5329 656.638 85.7583 656.223 85.9207C655.809 86.0798 655.343 86.1593 654.826 86.1593ZM659.773 86.0002V78.3639H660.907V79.5571H661.006C661.165 79.1494 661.422 78.8329 661.777 78.6075C662.131 78.3788 662.557 78.2644 663.054 78.2644C663.558 78.2644 663.977 78.3788 664.312 78.6075C664.65 78.8329 664.914 79.1494 665.103 79.5571H665.182C665.378 79.1626 665.671 78.8494 666.062 78.6174C666.453 78.3821 666.922 78.2644 667.469 78.2644C668.152 78.2644 668.71 78.4782 669.145 78.9058C669.579 79.33 669.796 79.9912 669.796 80.8894V86.0002H668.623V80.8894C668.623 80.326 668.468 79.9233 668.16 79.6814C667.852 79.4394 667.489 79.3184 667.071 79.3184C666.534 79.3184 666.118 79.4808 665.824 79.8056C665.529 80.1271 665.381 80.5348 665.381 81.0287V86.0002H664.188V80.7701C664.188 80.3359 664.047 79.9863 663.765 79.7211C663.484 79.4527 663.121 79.3184 662.676 79.3184C662.372 79.3184 662.087 79.3996 661.821 79.562C661.56 79.7244 661.347 79.9498 661.185 80.2382C661.026 80.5232 660.946 80.853 660.946 81.2275V86.0002H659.773ZM676.038 86.0002V75.8184H682.143V76.9122H677.271V80.3525H681.685V81.4463H677.271V86.0002H676.038ZM686.637 86.1593C685.948 86.1593 685.343 85.9953 684.822 85.6671C684.305 85.339 683.901 84.88 683.609 84.29C683.321 83.7001 683.177 83.0107 683.177 82.2218C683.177 81.4264 683.321 80.732 683.609 80.1387C683.901 79.5455 684.305 79.0848 684.822 78.7566C685.343 78.4285 685.948 78.2644 686.637 78.2644C687.326 78.2644 687.93 78.4285 688.447 78.7566C688.967 79.0848 689.371 79.5455 689.66 80.1387C689.951 80.732 690.097 81.4264 690.097 82.2218C690.097 83.0107 689.951 83.7001 689.66 84.29C689.371 84.88 688.967 85.339 688.447 85.6671C687.93 85.9953 687.326 86.1593 686.637 86.1593ZM686.637 85.1054C687.161 85.1054 687.592 84.9711 687.93 84.7027C688.268 84.4342 688.518 84.0812 688.68 83.6437C688.843 83.2062 688.924 82.7323 688.924 82.2218C688.924 81.7114 688.843 81.2358 688.68 80.795C688.518 80.3542 688.268 79.9979 687.93 79.7261C687.592 79.4543 687.161 79.3184 686.637 79.3184C686.113 79.3184 685.683 79.4543 685.344 79.7261C685.006 79.9979 684.756 80.3542 684.594 80.795C684.431 81.2358 684.35 81.7114 684.35 82.2218C684.35 82.7323 684.431 83.2062 684.594 83.6437C684.756 84.0812 685.006 84.4342 685.344 84.7027C685.683 84.9711 686.113 85.1054 686.637 85.1054ZM696.701 82.8781V78.3639H697.874V86.0002H696.701V84.7076H696.621C696.442 85.0954 696.164 85.4252 695.786 85.697C695.408 85.9654 694.931 86.0997 694.354 86.0997C693.877 86.0997 693.453 85.9953 693.081 85.7865C692.71 85.5743 692.419 85.2562 692.206 84.8319C691.994 84.4044 691.888 83.8658 691.888 83.2162V78.3639H693.062V83.1366C693.062 83.6934 693.217 84.1376 693.529 84.469C693.844 84.8004 694.245 84.9662 694.732 84.9662C695.024 84.9662 695.32 84.8916 695.622 84.7424C695.927 84.5933 696.182 84.3646 696.388 84.0564C696.596 83.7481 696.701 83.3554 696.701 82.8781ZM700.023 86.0002V78.3639H701.157V79.5173H701.236C701.375 79.1394 701.627 78.8329 701.992 78.5975C702.356 78.3622 702.767 78.2446 703.225 78.2446C703.311 78.2446 703.419 78.2462 703.548 78.2495C703.677 78.2528 703.775 78.2578 703.841 78.2644V79.4576C703.801 79.4477 703.71 79.4328 703.568 79.4129C703.429 79.3897 703.281 79.3781 703.125 79.3781C702.754 79.3781 702.423 79.456 702.131 79.6117C701.843 79.7642 701.614 79.9763 701.445 80.2481C701.279 80.5166 701.196 80.8232 701.196 81.1679V86.0002H700.023Z" fill="#616B7C"/>
<path d="M755.381 75.8184V86.0002H754.148V75.8184H755.381ZM761.015 78.3639V79.3582H757.058V78.3639H761.015ZM758.211 76.5343H759.384V83.8127C759.384 84.1442 759.432 84.3928 759.528 84.5585C759.628 84.7209 759.754 84.8303 759.906 84.8866C760.062 84.9396 760.226 84.9662 760.399 84.9662C760.528 84.9662 760.634 84.9595 760.717 84.9463C760.8 84.9297 760.866 84.9164 760.916 84.9065L761.154 85.9605C761.075 85.9903 760.964 86.0201 760.821 86.05C760.679 86.0831 760.498 86.0997 760.279 86.0997C759.948 86.0997 759.623 86.0284 759.305 85.8859C758.99 85.7434 758.728 85.5263 758.519 85.2346C758.314 84.943 758.211 84.5751 758.211 84.1309V76.5343ZM765.9 86.1593C765.164 86.1593 764.529 85.9969 763.995 85.6721C763.465 85.344 763.056 84.8866 762.767 84.3C762.482 83.71 762.34 83.0239 762.34 82.2417C762.34 81.4595 762.482 80.7701 762.767 80.1735C763.056 79.5736 763.457 79.1063 763.971 78.7716C764.488 78.4335 765.091 78.2644 765.78 78.2644C766.178 78.2644 766.571 78.3307 766.959 78.4633C767.346 78.5959 767.699 78.8113 768.017 79.1096C768.336 79.4046 768.589 79.7957 768.778 80.2829C768.967 80.7701 769.062 81.37 769.062 82.0826V82.5798H763.175V81.5656H767.868C767.868 81.1347 767.782 80.7502 767.61 80.4122C767.441 80.0741 767.199 79.8073 766.884 79.6117C766.572 79.4162 766.205 79.3184 765.78 79.3184C765.313 79.3184 764.909 79.4344 764.567 79.6664C764.229 79.8951 763.969 80.1934 763.787 80.5613C763.604 80.9292 763.513 81.3236 763.513 81.7446V82.4207C763.513 82.9974 763.613 83.4863 763.812 83.8873C764.014 84.285 764.294 84.5883 764.652 84.7971C765.01 85.0026 765.426 85.1054 765.9 85.1054C766.208 85.1054 766.486 85.0623 766.735 84.9761C766.987 84.8866 767.204 84.754 767.386 84.5784C767.568 84.3994 767.709 84.1773 767.809 83.9122L768.942 84.2304C768.823 84.6148 768.622 84.9529 768.341 85.2446C768.059 85.5329 767.711 85.7583 767.297 85.9207C766.882 86.0798 766.417 86.1593 765.9 86.1593ZM770.846 86.0002V78.3639H771.98V79.5571H772.079C772.238 79.1494 772.495 78.8329 772.85 78.6075C773.205 78.3788 773.63 78.2644 774.128 78.2644C774.631 78.2644 775.051 78.3788 775.385 78.6075C775.723 78.8329 775.987 79.1494 776.176 79.5571H776.255C776.451 79.1626 776.744 78.8494 777.135 78.6174C777.526 78.3821 777.995 78.2644 778.542 78.2644C779.225 78.2644 779.784 78.4782 780.218 78.9058C780.652 79.33 780.869 79.9912 780.869 80.8894V86.0002H779.696V80.8894C779.696 80.326 779.542 79.9233 779.233 79.6814C778.925 79.4394 778.562 79.3184 778.145 79.3184C777.608 79.3184 777.192 79.4808 776.897 79.8056C776.602 80.1271 776.454 80.5348 776.454 81.0287V86.0002H775.261V80.7701C775.261 80.3359 775.12 79.9863 774.839 79.7211C774.557 79.4527 774.194 79.3184 773.75 79.3184C773.445 79.3184 773.16 79.3996 772.895 79.562C772.633 79.7244 772.421 79.9498 772.258 80.2382C772.099 80.5232 772.02 80.853 772.02 81.2275V86.0002H770.846ZM787.111 86.0002V75.8184H793.216V76.9122H788.344V80.3525H792.759V81.4463H788.344V86.0002H787.111ZM795.169 86.0002V78.3639H796.342V86.0002H795.169ZM795.765 77.0912C795.536 77.0912 795.339 77.0133 795.174 76.8575C795.011 76.7017 794.93 76.5144 794.93 76.2957C794.93 76.0769 795.011 75.8897 795.174 75.7339C795.339 75.5781 795.536 75.5002 795.765 75.5002C795.994 75.5002 796.189 75.5781 796.352 75.7339C796.518 75.8897 796.6 76.0769 796.6 76.2957C796.6 76.5144 796.518 76.7017 796.352 76.8575C796.189 77.0133 795.994 77.0912 795.765 77.0912ZM804.735 78.3639L801.911 86.0002H800.718L797.894 78.3639H799.167L801.275 84.4491H801.354L803.462 78.3639H804.735ZM809.212 86.1593C808.476 86.1593 807.842 85.9969 807.308 85.6721C806.778 85.344 806.368 84.8866 806.08 84.3C805.795 83.71 805.652 83.0239 805.652 82.2417C805.652 81.4595 805.795 80.7701 806.08 80.1735C806.368 79.5736 806.769 79.1063 807.283 78.7716C807.8 78.4335 808.403 78.2644 809.093 78.2644C809.491 78.2644 809.883 78.3307 810.271 78.4633C810.659 78.5959 811.012 78.8113 811.33 79.1096C811.648 79.4046 811.902 79.7957 812.091 80.2829C812.28 80.7701 812.374 81.37 812.374 82.0826V82.5798H806.488V81.5656H811.181C811.181 81.1347 811.095 80.7502 810.922 80.4122C810.753 80.0741 810.511 79.8073 810.196 79.6117C809.885 79.4162 809.517 79.3184 809.093 79.3184C808.625 79.3184 808.221 79.4344 807.88 79.6664C807.542 79.8951 807.281 80.1934 807.099 80.5613C806.917 80.9292 806.826 81.3236 806.826 81.7446V82.4207C806.826 82.9974 806.925 83.4863 807.124 83.8873C807.326 84.285 807.606 84.5883 807.964 84.7971C808.322 85.0026 808.738 85.1054 809.212 85.1054C809.52 85.1054 809.799 85.0623 810.047 84.9761C810.299 84.8866 810.516 84.754 810.699 84.5784C810.881 84.3994 811.022 84.1773 811.121 83.9122L812.255 84.2304C812.135 84.6148 811.935 84.9529 811.653 85.2446C811.371 85.5329 811.023 85.7583 810.609 85.9207C810.195 86.0798 809.729 86.1593 809.212 86.1593Z" fill="#616B7C"/>
<path fill-rule="evenodd" clip-rule="evenodd" d="M836.793 86.7074C836.402 86.3168 836.402 85.6837 836.793 85.2931L840.086 82.0002L836.793 78.7074C836.402 78.3168 836.402 77.6837 836.793 77.2931C837.183 76.9026 837.817 76.9026 838.207 77.2931L842.207 81.2931C842.598 81.6837 842.598 82.3168 842.207 82.7074L838.207 86.7074C837.817 87.0979 837.183 87.0979 836.793 86.7074Z" fill="#616B7C"/>
<rect x="741.5" y="64.0002" width="73" height="36" fill="url(#paint0_linear_65_46947)"/>
<rect x="266" y="155" width="606" height="80" rx="4" fill="white"/>
<path fill-rule="evenodd" clip-rule="evenodd" d="M294.707 199.707C295.098 199.317 295.098 198.684 294.707 198.293L291.414 195L294.707 191.707C295.098 191.317 295.098 190.684 294.707 190.293C294.317 189.903 293.683 189.903 293.293 190.293L289.293 194.293C288.902 194.684 288.902 195.317 289.293 195.707L293.293 199.707C293.683 200.098 294.317 200.098 294.707 199.707Z" fill="#616B7C"/>
<path d="M320.696 188.818V199H319.463V188.818H320.696ZM326.33 191.364V192.358H322.373V191.364H326.33ZM323.526 189.534H324.7V196.813C324.7 197.144 324.748 197.393 324.844 197.558C324.943 197.721 325.069 197.83 325.222 197.887C325.378 197.94 325.542 197.966 325.714 197.966C325.843 197.966 325.949 197.96 326.032 197.946C326.115 197.93 326.181 197.916 326.231 197.906L326.47 198.96C326.39 198.99 326.279 199.02 326.137 199.05C325.994 199.083 325.813 199.1 325.595 199.1C325.263 199.1 324.938 199.028 324.62 198.886C324.305 198.743 324.044 198.526 323.835 198.235C323.629 197.943 323.526 197.575 323.526 197.131V189.534ZM331.215 199.159C330.479 199.159 329.845 198.997 329.311 198.672C328.781 198.344 328.371 197.887 328.083 197.3C327.798 196.71 327.655 196.024 327.655 195.242C327.655 194.46 327.798 193.77 328.083 193.174C328.371 192.574 328.772 192.106 329.286 191.772C329.803 191.433 330.406 191.264 331.096 191.264C331.493 191.264 331.886 191.331 332.274 191.463C332.662 191.596 333.015 191.811 333.333 192.11C333.651 192.405 333.905 192.796 334.094 193.283C334.282 193.77 334.377 194.37 334.377 195.083V195.58H328.491V194.566H333.184C333.184 194.135 333.098 193.75 332.925 193.412C332.756 193.074 332.514 192.807 332.199 192.612C331.888 192.416 331.52 192.318 331.096 192.318C330.628 192.318 330.224 192.434 329.883 192.666C329.545 192.895 329.284 193.193 329.102 193.561C328.92 193.929 328.829 194.324 328.829 194.745V195.421C328.829 195.997 328.928 196.486 329.127 196.887C329.329 197.285 329.609 197.588 329.967 197.797C330.325 198.003 330.741 198.105 331.215 198.105C331.523 198.105 331.802 198.062 332.05 197.976C332.302 197.887 332.519 197.754 332.702 197.578C332.884 197.399 333.025 197.177 333.124 196.912L334.258 197.23C334.138 197.615 333.938 197.953 333.656 198.245C333.374 198.533 333.026 198.758 332.612 198.921C332.198 199.08 331.732 199.159 331.215 199.159ZM336.162 199V191.364H337.295V192.557H337.395C337.554 192.149 337.811 191.833 338.165 191.607C338.52 191.379 338.946 191.264 339.443 191.264C339.947 191.264 340.366 191.379 340.701 191.607C341.039 191.833 341.302 192.149 341.491 192.557H341.571C341.766 192.163 342.06 191.849 342.451 191.617C342.842 191.382 343.311 191.264 343.858 191.264C344.541 191.264 345.099 191.478 345.533 191.906C345.967 192.33 346.184 192.991 346.184 193.889V199H345.011V193.889C345.011 193.326 344.857 192.923 344.549 192.681C344.241 192.439 343.878 192.318 343.46 192.318C342.923 192.318 342.507 192.481 342.212 192.806C341.917 193.127 341.77 193.535 341.77 194.029V199H340.577V193.77C340.577 193.336 340.436 192.986 340.154 192.721C339.872 192.453 339.509 192.318 339.065 192.318C338.76 192.318 338.475 192.4 338.21 192.562C337.948 192.724 337.736 192.95 337.574 193.238C337.415 193.523 337.335 193.853 337.335 194.228V199H336.162ZM351.869 189.912V188.818H359.506V189.912H356.304V199H355.071V189.912H351.869ZM362.105 199L359.778 191.364H361.011L362.662 197.21H362.741L364.372 191.364H365.625L367.235 197.191H367.315L368.966 191.364H370.199L367.872 199H366.718L365.048 193.134H364.929L363.258 199H362.105ZM374.592 199.159C373.903 199.159 373.298 198.995 372.778 198.667C372.26 198.339 371.856 197.88 371.564 197.29C371.276 196.7 371.132 196.011 371.132 195.222C371.132 194.426 371.276 193.732 371.564 193.139C371.856 192.545 372.26 192.085 372.778 191.757C373.298 191.429 373.903 191.264 374.592 191.264C375.282 191.264 375.885 191.429 376.402 191.757C376.922 192.085 377.327 192.545 377.615 193.139C377.907 193.732 378.052 194.426 378.052 195.222C378.052 196.011 377.907 196.7 377.615 197.29C377.327 197.88 376.922 198.339 376.402 198.667C375.885 198.995 375.282 199.159 374.592 199.159ZM374.592 198.105C375.116 198.105 375.547 197.971 375.885 197.703C376.223 197.434 376.473 197.081 376.635 196.644C376.798 196.206 376.879 195.732 376.879 195.222C376.879 194.711 376.798 194.236 376.635 193.795C376.473 193.354 376.223 192.998 375.885 192.726C375.547 192.454 375.116 192.318 374.592 192.318C374.068 192.318 373.638 192.454 373.3 192.726C372.961 192.998 372.711 193.354 372.549 193.795C372.386 194.236 372.305 194.711 372.305 195.222C372.305 195.732 372.386 196.206 372.549 196.644C372.711 197.081 372.961 197.434 373.3 197.703C373.638 197.971 374.068 198.105 374.592 198.105Z" fill="#616B7C"/>
<path d="M429.721 188.818V199H428.488V188.818H429.721ZM435.355 191.364V192.358H431.397V191.364H435.355ZM432.551 189.534H433.724V196.813C433.724 197.144 433.772 197.393 433.868 197.558C433.968 197.721 434.094 197.83 434.246 197.887C434.402 197.94 434.566 197.966 434.738 197.966C434.868 197.966 434.974 197.96 435.057 197.946C435.139 197.93 435.206 197.916 435.255 197.906L435.494 198.96C435.415 198.99 435.303 199.02 435.161 199.05C435.018 199.083 434.838 199.1 434.619 199.1C434.288 199.1 433.963 199.028 433.645 198.886C433.33 198.743 433.068 198.526 432.859 198.235C432.654 197.943 432.551 197.575 432.551 197.131V189.534ZM440.239 199.159C439.504 199.159 438.869 198.997 438.335 198.672C437.805 198.344 437.396 197.887 437.107 197.3C436.822 196.71 436.68 196.024 436.68 195.242C436.68 194.46 436.822 193.77 437.107 193.174C437.396 192.574 437.797 192.106 438.31 191.772C438.828 191.433 439.431 191.264 440.12 191.264C440.518 191.264 440.911 191.331 441.298 191.463C441.686 191.596 442.039 191.811 442.357 192.11C442.676 192.405 442.929 192.796 443.118 193.283C443.307 193.77 443.401 194.37 443.401 195.083V195.58H437.515V194.566H442.208C442.208 194.135 442.122 193.75 441.95 193.412C441.781 193.074 441.539 192.807 441.224 192.612C440.912 192.416 440.544 192.318 440.12 192.318C439.653 192.318 439.248 192.434 438.907 192.666C438.569 192.895 438.309 193.193 438.127 193.561C437.944 193.929 437.853 194.324 437.853 194.745V195.421C437.853 195.997 437.953 196.486 438.151 196.887C438.354 197.285 438.634 197.588 438.992 197.797C439.35 198.003 439.765 198.105 440.239 198.105C440.548 198.105 440.826 198.062 441.075 197.976C441.327 197.887 441.544 197.754 441.726 197.578C441.908 197.399 442.049 197.177 442.149 196.912L443.282 197.23C443.163 197.615 442.962 197.953 442.68 198.245C442.399 198.533 442.051 198.758 441.636 198.921C441.222 199.08 440.756 199.159 440.239 199.159ZM445.186 199V191.364H446.32V192.557H446.419C446.578 192.149 446.835 191.833 447.19 191.607C447.544 191.379 447.97 191.264 448.467 191.264C448.971 191.264 449.39 191.379 449.725 191.607C450.063 191.833 450.327 192.149 450.516 192.557H450.595C450.791 192.163 451.084 191.849 451.475 191.617C451.866 191.382 452.335 191.264 452.882 191.264C453.565 191.264 454.123 191.478 454.558 191.906C454.992 192.33 455.209 192.991 455.209 193.889V199H454.036V193.889C454.036 193.326 453.881 192.923 453.573 192.681C453.265 192.439 452.902 192.318 452.484 192.318C451.948 192.318 451.532 192.481 451.237 192.806C450.942 193.127 450.794 193.535 450.794 194.029V199H449.601V193.77C449.601 193.336 449.46 192.986 449.178 192.721C448.897 192.453 448.534 192.318 448.09 192.318C447.785 192.318 447.5 192.4 447.234 192.562C446.973 192.724 446.761 192.95 446.598 193.238C446.439 193.523 446.359 193.853 446.359 194.228V199H445.186ZM460.894 189.912V188.818H468.53V189.912H465.329V199H464.096V189.912H460.894ZM471.447 194.406V199H470.274V188.818H471.447V192.557H471.547C471.726 192.163 471.994 191.849 472.352 191.617C472.713 191.382 473.194 191.264 473.794 191.264C474.314 191.264 474.77 191.369 475.161 191.578C475.552 191.783 475.855 192.1 476.071 192.527C476.29 192.951 476.399 193.492 476.399 194.148V199H475.226V194.228C475.226 193.621 475.068 193.152 474.753 192.821C474.442 192.486 474.009 192.318 473.456 192.318C473.071 192.318 472.727 192.4 472.422 192.562C472.12 192.724 471.882 192.961 471.706 193.273C471.534 193.585 471.447 193.962 471.447 194.406ZM478.546 199V191.364H479.679V192.517H479.759C479.898 192.139 480.15 191.833 480.514 191.598C480.879 191.362 481.29 191.245 481.747 191.245C481.833 191.245 481.941 191.246 482.07 191.25C482.2 191.253 482.297 191.258 482.364 191.264V192.458C482.324 192.448 482.233 192.433 482.09 192.413C481.951 192.39 481.804 192.378 481.648 192.378C481.277 192.378 480.945 192.456 480.653 192.612C480.365 192.764 480.136 192.976 479.967 193.248C479.802 193.517 479.719 193.823 479.719 194.168V199H478.546ZM486.724 199.159C485.988 199.159 485.353 198.997 484.82 198.672C484.289 198.344 483.88 197.887 483.592 197.3C483.307 196.71 483.164 196.024 483.164 195.242C483.164 194.46 483.307 193.77 483.592 193.174C483.88 192.574 484.281 192.106 484.795 191.772C485.312 191.433 485.915 191.264 486.604 191.264C487.002 191.264 487.395 191.331 487.783 191.463C488.171 191.596 488.524 191.811 488.842 192.11C489.16 192.405 489.413 192.796 489.602 193.283C489.791 193.77 489.886 194.37 489.886 195.083V195.58H483.999V194.566H488.693C488.693 194.135 488.606 193.75 488.434 193.412C488.265 193.074 488.023 192.807 487.708 192.612C487.397 192.416 487.029 192.318 486.604 192.318C486.137 192.318 485.733 192.434 485.391 192.666C485.053 192.895 484.793 193.193 484.611 193.561C484.429 193.929 484.337 194.324 484.337 194.745V195.421C484.337 195.997 484.437 196.486 484.636 196.887C484.838 197.285 485.118 197.588 485.476 197.797C485.834 198.003 486.25 198.105 486.724 198.105C487.032 198.105 487.31 198.062 487.559 197.976C487.811 197.887 488.028 197.754 488.21 197.578C488.393 197.399 488.533 197.177 488.633 196.912L489.766 197.23C489.647 197.615 489.447 197.953 489.165 198.245C488.883 198.533 488.535 198.758 488.121 198.921C487.707 199.08 487.241 199.159 486.724 199.159ZM494.872 199.159C494.136 199.159 493.502 198.997 492.968 198.672C492.438 198.344 492.028 197.887 491.74 197.3C491.455 196.71 491.313 196.024 491.313 195.242C491.313 194.46 491.455 193.77 491.74 193.174C492.028 192.574 492.43 192.106 492.943 191.772C493.46 191.433 494.064 191.264 494.753 191.264C495.151 191.264 495.543 191.331 495.931 191.463C496.319 191.596 496.672 191.811 496.99 192.11C497.308 192.405 497.562 192.796 497.751 193.283C497.94 193.77 498.034 194.37 498.034 195.083V195.58H492.148V194.566H496.841C496.841 194.135 496.755 193.75 496.582 193.412C496.413 193.074 496.171 192.807 495.857 192.612C495.545 192.416 495.177 192.318 494.753 192.318C494.286 192.318 493.881 192.434 493.54 192.666C493.202 192.895 492.942 193.193 492.759 193.561C492.577 193.929 492.486 194.324 492.486 194.745V195.421C492.486 195.997 492.585 196.486 492.784 196.887C492.986 197.285 493.266 197.588 493.624 197.797C493.982 198.003 494.398 198.105 494.872 198.105C495.18 198.105 495.459 198.062 495.707 197.976C495.959 197.887 496.176 197.754 496.359 197.578C496.541 197.399 496.682 197.177 496.781 196.912L497.915 197.23C497.796 197.615 497.595 197.953 497.313 198.245C497.032 198.533 496.684 198.758 496.269 198.921C495.855 199.08 495.389 199.159 494.872 199.159Z" fill="#616B7C"/>
<path d="M549.808 188.818V199H548.575V188.818H549.808ZM555.442 191.364V192.358H551.484V191.364H555.442ZM552.638 189.534H553.811V196.813C553.811 197.144 553.859 197.393 553.955 197.558C554.055 197.721 554.181 197.83 554.333 197.887C554.489 197.94 554.653 197.966 554.825 197.966C554.955 197.966 555.061 197.96 555.143 197.946C555.226 197.93 555.293 197.916 555.342 197.906L555.581 198.96C555.501 198.99 555.39 199.02 555.248 199.05C555.105 199.083 554.925 199.1 554.706 199.1C554.375 199.1 554.05 199.028 553.732 198.886C553.417 198.743 553.155 198.526 552.946 198.235C552.741 197.943 552.638 197.575 552.638 197.131V189.534ZM560.326 199.159C559.591 199.159 558.956 198.997 558.422 198.672C557.892 198.344 557.483 197.887 557.194 197.3C556.909 196.71 556.767 196.024 556.767 195.242C556.767 194.46 556.909 193.77 557.194 193.174C557.483 192.574 557.884 192.106 558.397 191.772C558.914 191.433 559.518 191.264 560.207 191.264C560.605 191.264 560.998 191.331 561.385 191.463C561.773 191.596 562.126 191.811 562.444 192.11C562.762 192.405 563.016 192.796 563.205 193.283C563.394 193.77 563.488 194.37 563.488 195.083V195.58H557.602V194.566H562.295C562.295 194.135 562.209 193.75 562.037 193.412C561.868 193.074 561.626 192.807 561.311 192.612C560.999 192.416 560.631 192.318 560.207 192.318C559.74 192.318 559.335 192.434 558.994 192.666C558.656 192.895 558.396 193.193 558.213 193.561C558.031 193.929 557.94 194.324 557.94 194.745V195.421C557.94 195.997 558.039 196.486 558.238 196.887C558.44 197.285 558.721 197.588 559.078 197.797C559.436 198.003 559.852 198.105 560.326 198.105C560.635 198.105 560.913 198.062 561.162 197.976C561.413 197.887 561.631 197.754 561.813 197.578C561.995 197.399 562.136 197.177 562.235 196.912L563.369 197.23C563.25 197.615 563.049 197.953 562.767 198.245C562.486 198.533 562.138 198.758 561.723 198.921C561.309 199.08 560.843 199.159 560.326 199.159ZM565.273 199V191.364H566.407V192.557H566.506C566.665 192.149 566.922 191.833 567.277 191.607C567.631 191.379 568.057 191.264 568.554 191.264C569.058 191.264 569.477 191.379 569.812 191.607C570.15 191.833 570.414 192.149 570.603 192.557H570.682C570.878 192.163 571.171 191.849 571.562 191.617C571.953 191.382 572.422 191.264 572.969 191.264C573.652 191.264 574.21 191.478 574.645 191.906C575.079 192.33 575.296 192.991 575.296 193.889V199H574.123V193.889C574.123 193.326 573.968 192.923 573.66 192.681C573.352 192.439 572.989 192.318 572.571 192.318C572.034 192.318 571.618 192.481 571.324 192.806C571.029 193.127 570.881 193.535 570.881 194.029V199H569.688V193.77C569.688 193.336 569.547 192.986 569.265 192.721C568.984 192.453 568.621 192.318 568.176 192.318C567.872 192.318 567.587 192.4 567.321 192.562C567.06 192.724 566.847 192.95 566.685 193.238C566.526 193.523 566.446 193.853 566.446 194.228V199H565.273ZM581.538 199V188.818H587.643V189.912H582.771V193.353H587.185V194.446H582.771V199H581.538ZM592.137 199.159C591.448 199.159 590.843 198.995 590.322 198.667C589.805 198.339 589.401 197.88 589.109 197.29C588.821 196.7 588.677 196.011 588.677 195.222C588.677 194.426 588.821 193.732 589.109 193.139C589.401 192.545 589.805 192.085 590.322 191.757C590.843 191.429 591.448 191.264 592.137 191.264C592.826 191.264 593.43 191.429 593.947 191.757C594.467 192.085 594.871 192.545 595.16 193.139C595.451 193.732 595.597 194.426 595.597 195.222C595.597 196.011 595.451 196.7 595.16 197.29C594.871 197.88 594.467 198.339 593.947 198.667C593.43 198.995 592.826 199.159 592.137 199.159ZM592.137 198.105C592.661 198.105 593.092 197.971 593.43 197.703C593.768 197.434 594.018 197.081 594.18 196.644C594.343 196.206 594.424 195.732 594.424 195.222C594.424 194.711 594.343 194.236 594.18 193.795C594.018 193.354 593.768 192.998 593.43 192.726C593.092 192.454 592.661 192.318 592.137 192.318C591.613 192.318 591.183 192.454 590.844 192.726C590.506 192.998 590.256 193.354 590.094 193.795C589.931 194.236 589.85 194.711 589.85 195.222C589.85 195.732 589.931 196.206 590.094 196.644C590.256 197.081 590.506 197.434 590.844 197.703C591.183 197.971 591.613 198.105 592.137 198.105ZM602.201 195.878V191.364H603.374V199H602.201V197.708H602.121C601.942 198.095 601.664 198.425 601.286 198.697C600.908 198.965 600.431 199.1 599.854 199.1C599.377 199.1 598.953 198.995 598.581 198.786C598.21 198.574 597.919 198.256 597.706 197.832C597.494 197.404 597.388 196.866 597.388 196.216V191.364H598.562V196.137C598.562 196.693 598.717 197.138 599.029 197.469C599.344 197.8 599.745 197.966 600.232 197.966C600.524 197.966 600.82 197.892 601.122 197.742C601.427 197.593 601.682 197.365 601.888 197.056C602.096 196.748 602.201 196.355 602.201 195.878ZM605.523 199V191.364H606.657V192.517H606.736C606.875 192.139 607.127 191.833 607.492 191.598C607.856 191.362 608.267 191.245 608.725 191.245C608.811 191.245 608.919 191.246 609.048 191.25C609.177 191.253 609.275 191.258 609.341 191.264V192.458C609.301 192.448 609.21 192.433 609.068 192.413C608.929 192.39 608.781 192.378 608.625 192.378C608.254 192.378 607.923 192.456 607.631 192.612C607.343 192.764 607.114 192.976 606.945 193.248C606.779 193.517 606.696 193.823 606.696 194.168V199H605.523Z" fill="#616B7C"/>
<path d="M660.881 188.818V199H659.648V188.818H660.881ZM666.515 191.364V192.358H662.558V191.364H666.515ZM663.711 189.534H664.884V196.813C664.884 197.144 664.932 197.393 665.028 197.558C665.128 197.721 665.254 197.83 665.406 197.887C665.562 197.94 665.726 197.966 665.899 197.966C666.028 197.966 666.134 197.96 666.217 197.946C666.3 197.93 666.366 197.916 666.416 197.906L666.654 198.96C666.575 198.99 666.464 199.02 666.321 199.05C666.179 199.083 665.998 199.1 665.779 199.1C665.448 199.1 665.123 199.028 664.805 198.886C664.49 198.743 664.228 198.526 664.019 198.235C663.814 197.943 663.711 197.575 663.711 197.131V189.534ZM671.4 199.159C670.664 199.159 670.029 198.997 669.495 198.672C668.965 198.344 668.556 197.887 668.267 197.3C667.982 196.71 667.84 196.024 667.84 195.242C667.84 194.46 667.982 193.77 668.267 193.174C668.556 192.574 668.957 192.106 669.471 191.772C669.988 191.433 670.591 191.264 671.28 191.264C671.678 191.264 672.071 191.331 672.459 191.463C672.846 191.596 673.199 191.811 673.517 192.11C673.836 192.405 674.089 192.796 674.278 193.283C674.467 193.77 674.562 194.37 674.562 195.083V195.58H668.675V194.566H673.368C673.368 194.135 673.282 193.75 673.11 193.412C672.941 193.074 672.699 192.807 672.384 192.612C672.072 192.416 671.705 192.318 671.28 192.318C670.813 192.318 670.409 192.434 670.067 192.666C669.729 192.895 669.469 193.193 669.287 193.561C669.104 193.929 669.013 194.324 669.013 194.745V195.421C669.013 195.997 669.113 196.486 669.312 196.887C669.514 197.285 669.794 197.588 670.152 197.797C670.51 198.003 670.926 198.105 671.4 198.105C671.708 198.105 671.986 198.062 672.235 197.976C672.487 197.887 672.704 197.754 672.886 197.578C673.068 197.399 673.209 197.177 673.309 196.912L674.442 197.23C674.323 197.615 674.122 197.953 673.841 198.245C673.559 198.533 673.211 198.758 672.797 198.921C672.382 199.08 671.917 199.159 671.4 199.159ZM676.346 199V191.364H677.48V192.557H677.579C677.738 192.149 677.995 191.833 678.35 191.607C678.705 191.379 679.13 191.264 679.628 191.264C680.131 191.264 680.551 191.379 680.885 191.607C681.223 191.833 681.487 192.149 681.676 192.557H681.755C681.951 192.163 682.244 191.849 682.635 191.617C683.026 191.382 683.495 191.264 684.042 191.264C684.725 191.264 685.284 191.478 685.718 191.906C686.152 192.33 686.369 192.991 686.369 193.889V199H685.196V193.889C685.196 193.326 685.042 192.923 684.733 192.681C684.425 192.439 684.062 192.318 683.645 192.318C683.108 192.318 682.692 192.481 682.397 192.806C682.102 193.127 681.954 193.535 681.954 194.029V199H680.761V193.77C680.761 193.336 680.62 192.986 680.339 192.721C680.057 192.453 679.694 192.318 679.25 192.318C678.945 192.318 678.66 192.4 678.395 192.562C678.133 192.724 677.921 192.95 677.758 193.238C677.599 193.523 677.52 193.853 677.52 194.228V199H676.346ZM692.611 199V188.818H698.716V189.912H693.844V193.353H698.259V194.446H693.844V199H692.611ZM700.669 199V191.364H701.842V199H700.669ZM701.265 190.091C701.036 190.091 700.839 190.013 700.674 189.857C700.511 189.702 700.43 189.514 700.43 189.296C700.43 189.077 700.511 188.89 700.674 188.734C700.839 188.578 701.036 188.5 701.265 188.5C701.494 188.5 701.689 188.578 701.852 188.734C702.018 188.89 702.1 189.077 702.1 189.296C702.1 189.514 702.018 189.702 701.852 189.857C701.689 190.013 701.494 190.091 701.265 190.091ZM710.235 191.364L707.411 199H706.218L703.394 191.364H704.667L706.775 197.449H706.854L708.962 191.364H710.235ZM714.712 199.159C713.976 199.159 713.342 198.997 712.808 198.672C712.278 198.344 711.868 197.887 711.58 197.3C711.295 196.71 711.152 196.024 711.152 195.242C711.152 194.46 711.295 193.77 711.58 193.174C711.868 192.574 712.269 192.106 712.783 191.772C713.3 191.433 713.903 191.264 714.593 191.264C714.991 191.264 715.383 191.331 715.771 191.463C716.159 191.596 716.512 191.811 716.83 192.11C717.148 192.405 717.402 192.796 717.591 193.283C717.78 193.77 717.874 194.37 717.874 195.083V195.58H711.988V194.566H716.681C716.681 194.135 716.595 193.75 716.422 193.412C716.253 193.074 716.011 192.807 715.696 192.612C715.385 192.416 715.017 192.318 714.593 192.318C714.125 192.318 713.721 192.434 713.38 192.666C713.042 192.895 712.781 193.193 712.599 193.561C712.417 193.929 712.326 194.324 712.326 194.745V195.421C712.326 195.997 712.425 196.486 712.624 196.887C712.826 197.285 713.106 197.588 713.464 197.797C713.822 198.003 714.238 198.105 714.712 198.105C715.02 198.105 715.299 198.062 715.547 197.976C715.799 197.887 716.016 197.754 716.199 197.578C716.381 197.399 716.522 197.177 716.621 196.912L717.755 197.23C717.635 197.615 717.435 197.953 717.153 198.245C716.871 198.533 716.523 198.758 716.109 198.921C715.695 199.08 715.229 199.159 714.712 199.159Z" fill="#616B7C"/>
<path d="M769.579 188.818V199H768.346V188.818H769.579ZM775.213 191.364V192.358H771.256V191.364H775.213ZM772.409 189.534H773.583V196.813C773.583 197.144 773.631 197.393 773.727 197.558C773.826 197.721 773.952 197.83 774.105 197.887C774.26 197.94 774.424 197.966 774.597 197.966C774.726 197.966 774.832 197.96 774.915 197.946C774.998 197.93 775.064 197.916 775.114 197.906L775.352 198.96C775.273 198.99 775.162 199.02 775.019 199.05C774.877 199.083 774.696 199.1 774.477 199.1C774.146 199.1 773.821 199.028 773.503 198.886C773.188 198.743 772.926 198.526 772.718 198.235C772.512 197.943 772.409 197.575 772.409 197.131V189.534ZM780.098 199.159C779.362 199.159 778.727 198.997 778.194 198.672C777.663 198.344 777.254 197.887 776.966 197.3C776.681 196.71 776.538 196.024 776.538 195.242C776.538 194.46 776.681 193.77 776.966 193.174C777.254 192.574 777.655 192.106 778.169 191.772C778.686 191.433 779.289 191.264 779.979 191.264C780.376 191.264 780.769 191.331 781.157 191.463C781.545 191.596 781.898 191.811 782.216 192.11C782.534 192.405 782.787 192.796 782.976 193.283C783.165 193.77 783.26 194.37 783.26 195.083V195.58H777.373V194.566H782.067C782.067 194.135 781.98 193.75 781.808 193.412C781.639 193.074 781.397 192.807 781.082 192.612C780.771 192.416 780.403 192.318 779.979 192.318C779.511 192.318 779.107 192.434 778.765 192.666C778.427 192.895 778.167 193.193 777.985 193.561C777.803 193.929 777.711 194.324 777.711 194.745V195.421C777.711 195.997 777.811 196.486 778.01 196.887C778.212 197.285 778.492 197.588 778.85 197.797C779.208 198.003 779.624 198.105 780.098 198.105C780.406 198.105 780.684 198.062 780.933 197.976C781.185 197.887 781.402 197.754 781.584 197.578C781.767 197.399 781.907 197.177 782.007 196.912L783.14 197.23C783.021 197.615 782.821 197.953 782.539 198.245C782.257 198.533 781.909 198.758 781.495 198.921C781.081 199.08 780.615 199.159 780.098 199.159ZM785.045 199V191.364H786.178V192.557H786.278C786.437 192.149 786.693 191.833 787.048 191.607C787.403 191.379 787.829 191.264 788.326 191.264C788.83 191.264 789.249 191.379 789.584 191.607C789.922 191.833 790.185 192.149 790.374 192.557H790.454C790.649 192.163 790.943 191.849 791.334 191.617C791.725 191.382 792.194 191.264 792.741 191.264C793.423 191.264 793.982 191.478 794.416 191.906C794.85 192.33 795.067 192.991 795.067 193.889V199H793.894V193.889C793.894 193.326 793.74 192.923 793.432 192.681C793.123 192.439 792.76 192.318 792.343 192.318C791.806 192.318 791.39 192.481 791.095 192.806C790.8 193.127 790.653 193.535 790.653 194.029V199H789.459V193.77C789.459 193.336 789.318 192.986 789.037 192.721C788.755 192.453 788.392 192.318 787.948 192.318C787.643 192.318 787.358 192.4 787.093 192.562C786.831 192.724 786.619 192.95 786.456 193.238C786.297 193.523 786.218 193.853 786.218 194.228V199H785.045ZM806.877 191.364C806.818 190.86 806.576 190.469 806.151 190.191C805.727 189.912 805.207 189.773 804.59 189.773C804.14 189.773 803.745 189.846 803.407 189.992C803.072 190.138 802.811 190.338 802.622 190.593C802.436 190.848 802.343 191.139 802.343 191.463C802.343 191.735 802.408 191.969 802.537 192.164C802.67 192.357 802.839 192.517 803.044 192.647C803.25 192.772 803.465 192.877 803.691 192.96C803.916 193.039 804.123 193.104 804.312 193.154L805.346 193.432C805.611 193.502 805.906 193.598 806.231 193.72C806.559 193.843 806.872 194.01 807.171 194.223C807.472 194.431 807.721 194.7 807.916 195.028C808.112 195.356 808.21 195.759 808.21 196.236C808.21 196.786 808.066 197.283 807.777 197.728C807.492 198.172 807.075 198.525 806.524 198.786C805.977 199.048 805.313 199.179 804.531 199.179C803.802 199.179 803.17 199.062 802.637 198.826C802.106 198.591 801.689 198.263 801.384 197.842C801.082 197.421 800.911 196.932 800.872 196.375H802.144C802.177 196.76 802.307 197.078 802.532 197.33C802.761 197.578 803.049 197.764 803.397 197.887C803.749 198.006 804.126 198.066 804.531 198.066C805.001 198.066 805.424 197.989 805.798 197.837C806.173 197.681 806.47 197.466 806.688 197.191C806.907 196.912 807.017 196.587 807.017 196.216C807.017 195.878 806.922 195.603 806.733 195.391C806.544 195.179 806.296 195.006 805.987 194.874C805.679 194.741 805.346 194.625 804.988 194.526L803.735 194.168C802.94 193.939 802.31 193.613 801.846 193.188C801.382 192.764 801.15 192.209 801.15 191.523C801.15 190.953 801.304 190.456 801.612 190.031C801.924 189.604 802.342 189.272 802.865 189.037C803.392 188.799 803.981 188.679 804.63 188.679C805.286 188.679 805.87 188.797 806.38 189.032C806.891 189.264 807.295 189.582 807.593 189.987C807.895 190.391 808.054 190.85 808.07 191.364H806.877ZM810.078 199V191.364H811.251V199H810.078ZM810.674 190.091C810.446 190.091 810.248 190.013 810.083 189.857C809.92 189.702 809.839 189.514 809.839 189.296C809.839 189.077 809.92 188.89 810.083 188.734C810.248 188.578 810.446 188.5 810.674 188.5C810.903 188.5 811.099 188.578 811.261 188.734C811.427 188.89 811.51 189.077 811.51 189.296C811.51 189.514 811.427 189.702 811.261 189.857C811.099 190.013 810.903 190.091 810.674 190.091ZM814.275 191.364L816.105 194.486L817.934 191.364H819.286L816.82 195.182L819.286 199H817.934L816.105 196.037L814.275 199H812.923L815.349 195.182L812.923 191.364H814.275Z" fill="#616B7C"/>
<path fill-rule="evenodd" clip-rule="evenodd" d="M843.293 199.707C842.902 199.317 842.902 198.684 843.293 198.293L846.586 195L843.293 191.707C842.902 191.317 842.902 190.684 843.293 190.293C843.683 189.903 844.317 189.903 844.707 190.293L848.707 194.293C849.098 194.684 849.098 195.317 848.707 195.707L844.707 199.707C844.317 200.098 843.683 200.098 843.293 199.707Z" fill="#C4C6D7"/>
<rect x="0.5" y="0.500244" width="1137" height="275" rx="16.5" stroke="#F2F2F8"/>
<defs>
<linearGradient id="paint0_linear_65_46947" x1="827.5" y1="82.0002" x2="501" y2="75.5002" gradientUnits="userSpaceOnUse">
<stop stop-color="white"/>
<stop offset="1" stop-color="white" stop-opacity="0"/>
</linearGradient>
</defs>
</svg>
