<svg width="24" height="24" viewBox="0 0 24 24" fill="none" xmlns="http://www.w3.org/2000/svg">
<path fill-rule="evenodd" clip-rule="evenodd" d="M9.52112 2.64632C10.2547 2.23463 11.1001 2 12 2C12.8999 2 13.7453 2.23463 14.4789 2.64632L15.0156 2.10702C15.1576 1.96433 15.3878 1.96433 15.5299 2.10702C15.6719 2.24971 15.6719 2.48106 15.5299 2.62375L15.099 3.05666C16.3102 3.99177 17.0909 5.46197 17.0909 7.11538H6.90909C6.90909 5.46197 7.68978 3.99177 8.90098 3.05666L8.47014 2.62375C8.32813 2.48106 8.32813 2.24971 8.47014 2.10702C8.61215 1.96433 8.84239 1.96433 8.9844 2.10702L9.52112 2.64632ZM10.5455 4.92308C10.5455 5.32667 10.2198 5.65385 9.81818 5.65385C9.41652 5.65385 9.09091 5.32667 9.09091 4.92308C9.09091 4.51948 9.41652 4.19231 9.81818 4.19231C10.2198 4.19231 10.5455 4.51948 10.5455 4.92308ZM14.1818 5.65385C14.5835 5.65385 14.9091 5.32667 14.9091 4.92308C14.9091 4.51948 14.5835 4.19231 14.1818 4.19231C13.7802 4.19231 13.4545 4.51948 13.4545 4.92308C13.4545 5.32667 13.7802 5.65385 14.1818 5.65385Z" fill="#87C527"/>
<path d="M4 8.94231C4 8.33692 4.48842 7.84615 5.09091 7.84615C5.6934 7.84615 6.18182 8.33692 6.18182 8.94231V13.3269C6.18182 13.9323 5.6934 14.4231 5.09091 14.4231C4.48842 14.4231 4 13.9323 4 13.3269V8.94231Z" fill="#87C527"/>
<path d="M9.09091 17.3462V19.9038C9.09091 20.5092 9.57933 21 10.1818 21C10.7843 21 11.2727 20.5092 11.2727 19.9038V17.3462H12.7273V19.9038C12.7273 20.5092 13.2157 21 13.8182 21C14.4207 21 14.9091 20.5092 14.9091 19.9038V17.3462H15.6364C16.4397 17.3462 17.0909 16.6918 17.0909 15.8846V7.84615H6.90909V15.8846C6.90909 16.6918 7.56031 17.3462 8.36364 17.3462H9.09091Z" fill="#87C527"/>
<path d="M17.8182 8.94231C17.8182 8.33692 18.3066 7.84615 18.9091 7.84615C19.5116 7.84615 20 8.33692 20 8.94231V13.3269C20 13.9323 19.5116 14.4231 18.9091 14.4231C18.3066 14.4231 17.8182 13.9323 17.8182 13.3269V8.94231Z" fill="#87C527"/>
</svg>
