<svg width="24" height="24" viewBox="0 0 24 24" fill="none" xmlns="http://www.w3.org/2000/svg">
<path d="M8.7421 5.22213C8.84188 4.92647 9.11914 4.72742 9.43118 4.72742H13.9999L9.25784 18.7782C9.15805 19.0739 8.88079 19.2729 8.56876 19.2729H5.013C4.51544 19.2729 4.1648 18.7844 4.32391 18.3131L8.7421 5.22213Z" fill="url(#paint0_linear_11171_107415)"/>
<path d="M16.0459 14.1819H8.84548C8.54294 14.1819 8.39687 14.5525 8.61804 14.7589L13.2448 19.0772C13.3795 19.2029 13.5568 19.2728 13.741 19.2728H17.818L16.0459 14.1819Z" fill="#0078D4"/>
<path d="M9.43118 4.72742C9.11914 4.72742 8.84188 4.92647 8.7421 5.22213L4.32391 18.3131C4.1648 18.7844 4.51544 19.2729 5.013 19.2729H8.56876C8.88079 19.2729 9.15805 19.0739 9.25784 18.7782L10.1362 16.1756L13.2448 19.0771C13.3795 19.2028 13.5568 19.2727 13.7411 19.2727H17.8181L16.0459 14.1818H10.8091L13.9999 4.72742H9.43118Z" fill="url(#paint1_linear_11171_107415)"/>
<path d="M15.2579 5.222C15.1582 4.92635 14.8809 4.72729 14.5688 4.72729H9.45459H9.47792C9.78996 4.72729 10.0672 4.92635 10.167 5.222L14.5852 18.313C14.7443 18.7843 14.3936 19.2728 13.8961 19.2728H13.8182H18.987C19.4846 19.2728 19.8352 18.7843 19.6761 18.313L15.2579 5.222Z" fill="url(#paint2_linear_11171_107415)"/>
<defs>
<linearGradient id="paint0_linear_11171_107415" x1="9.40005" y1="5.23088" x2="4.6561" y2="19.2457" gradientUnits="userSpaceOnUse">
<stop stop-color="#114A8B"/>
<stop offset="1" stop-color="#0669BC"/>
</linearGradient>
<linearGradient id="paint1_linear_11171_107415" x1="13.1912" y1="14.1835" x2="12.0951" y2="14.5541" gradientUnits="userSpaceOnUse">
<stop stop-opacity="0.3"/>
<stop offset="0.0711768" stop-opacity="0.2"/>
<stop offset="0.321031" stop-opacity="0.1"/>
<stop offset="0.623053" stop-opacity="0.05"/>
<stop offset="1" stop-opacity="0"/>
</linearGradient>
<linearGradient id="paint2_linear_11171_107415" x1="12.4077" y1="5.23079" x2="17.615" y2="19.1045" gradientUnits="userSpaceOnUse">
<stop stop-color="#3CCBF4"/>
<stop offset="1" stop-color="#2892DF"/>
</linearGradient>
</defs>
</svg>
