<svg width="24" height="24" viewBox="0 0 24 24" fill="none" xmlns="http://www.w3.org/2000/svg">
<circle cx="12" cy="12" r="9" fill="#105DFB"/>
<path fill-rule="evenodd" clip-rule="evenodd" d="M6 15.8534V8H9.64481C10.8155 8 11.7646 8.94533 11.7646 10.1115C11.7646 10.8525 11.5358 11.3115 10.6971 11.7824C11.7008 12.2379 11.9795 12.8693 11.9795 13.7499C11.9795 14.9412 10.917 15.8534 9.72105 15.8534H6ZM7.54233 9.3V11.1885H9.34746C9.34746 11.1885 10.2248 11.1885 10.2248 10.2442C10.2248 9.3 9.34746 9.3 9.34746 9.3H7.54233ZM7.54233 14.5234V12.4843H9.47856C9.79118 12.4843 10.4467 12.645 10.4467 13.6093C10.4467 14.3245 9.80126 14.5167 9.47856 14.5234H7.54233Z" fill="white"/>
<path fill-rule="evenodd" clip-rule="evenodd" d="M15.2772 10.1639C14.1679 10.1639 12.5241 10.9574 12.5241 13.0669C12.5241 14.3513 13.23 16 15.3478 16C17.042 16 17.8218 14.7611 18 14.1417H16.4066C16.326 14.4229 16.0133 14.7343 15.3478 14.7343C14.3796 14.7343 14.0368 13.9106 13.9864 13.4988H18V13.0669C18 10.9574 16.3865 10.1639 15.2772 10.1639ZM15.2772 11.3693C14.3736 11.3693 14.0401 12.1126 13.9864 12.4843H16.4066C16.4066 12.1126 16.1807 11.3693 15.2772 11.3693Z" fill="white"/>
<path d="M13.351 8.44618V9.42054H17.1529V8.44618H13.351Z" fill="white"/>
</svg>
