<svg width="25" height="24" viewBox="0 0 25 24" fill="none" xmlns="http://www.w3.org/2000/svg">
<g clip-path="url(#clip0_12350_7409)">
<path d="M19.5741 8.79153C19.5381 8.75328 19.4998 8.71503 19.4616 8.67903C19.4233 8.64303 19.3873 8.60253 19.3491 8.56653C19.3108 8.53053 19.2748 8.49003 19.2366 8.45403C19.1983 8.41803 19.1623 8.37753 19.1241 8.34153C19.0858 8.30553 19.0498 8.26503 19.0116 8.22903C18.9733 8.19303 18.9373 8.15253 18.8991 8.11653C18.8608 8.08053 18.8248 8.04003 18.7866 8.00403C19.9026 9.10084 20.542 10.5929 20.5663 12.1575C20.5663 15.8858 16.7818 18.9188 12.1288 18.9188C9.52334 18.9188 7.19234 17.967 5.64209 16.4753L5.75459 16.5878L5.86709 16.7003L5.97959 16.8128L6.09209 16.9253L6.20459 17.0378L6.31709 17.1503L6.42959 17.2628C7.97759 18.8175 10.3603 19.8188 13.0288 19.8188C17.6818 19.8188 21.4663 16.7858 21.4663 13.0688C21.4663 11.4803 20.7823 9.97503 19.5741 8.79153Z" fill="black"/>
<path d="M20.0039 12.1575C20.0039 15.5797 16.4782 18.354 12.1289 18.354C7.77966 18.354 4.25391 15.5797 4.25391 12.1575C4.25391 10.0357 5.60391 8.16149 7.67841 7.04999C9.75291 5.93849 11.0444 4.79999 12.1289 4.79999C13.2134 4.79999 14.1404 5.72924 16.5794 7.04999C18.6539 8.16149 20.0039 10.0357 20.0039 12.1575Z" fill="#FBF0DF"/>
<path d="M20.0038 12.1575C20.0027 11.7179 19.9422 11.2804 19.8238 10.857C19.2096 18.3495 10.0701 18.7095 6.47681 16.4685C8.09209 17.7205 10.0854 18.3854 12.1288 18.354C16.4713 18.354 20.0038 15.5752 20.0038 12.1575Z" fill="#F6DECE"/>
<path d="M9.09816 6.63824C10.1039 6.03524 11.4404 4.90349 12.7544 4.90124C12.5523 4.8359 12.3413 4.80176 12.1289 4.79999C11.5844 4.79999 11.0039 5.08124 10.2727 5.50424C10.0184 5.65274 9.75516 5.81699 9.47616 5.98799C8.95191 6.31199 8.35116 6.67874 7.67616 7.04549C5.53416 8.20424 4.25391 10.1145 4.25391 12.1575C4.25391 12.2475 4.25391 12.3375 4.25391 12.4252C5.61741 7.60799 8.09466 7.24124 9.09816 6.63824Z" fill="#FFFEFC"/>
<path fill-rule="evenodd" clip-rule="evenodd" d="M11.481 5.36921C11.4842 5.90048 11.3726 6.42618 11.154 6.9104C10.9354 7.39462 10.6148 7.82596 10.2143 8.17496C10.1513 8.23121 10.2008 8.33921 10.2818 8.30771C11.04 8.01296 12.0638 7.13096 11.6318 5.35121C11.6138 5.24996 11.481 5.27696 11.481 5.36921ZM11.9918 5.36921C12.2671 5.81841 12.442 6.32182 12.5045 6.84495C12.567 7.36807 12.5157 7.89853 12.354 8.39996C12.327 8.47871 12.4238 8.54621 12.4778 8.48096C12.9705 7.85096 13.4003 6.59996 12.1133 5.24996C12.048 5.19146 11.9468 5.28146 11.9918 5.36021V5.36921ZM12.6128 5.33096C13.0439 5.63618 13.4046 6.03031 13.6704 6.48676C13.9363 6.94321 14.1012 7.45137 14.154 7.97696C14.1517 7.9959 14.1568 8.01499 14.1683 8.03027C14.1797 8.04555 14.1965 8.05585 14.2153 8.05904C14.2341 8.06222 14.2535 8.05804 14.2693 8.04737C14.2851 8.03669 14.2962 8.02034 14.3003 8.00171C14.5073 7.21646 14.3903 5.87771 12.687 5.18246C12.597 5.14646 12.5385 5.26796 12.6128 5.32196V5.33096ZM8.45926 7.67096C8.9721 7.51775 9.44691 7.25825 9.8528 6.90935C10.2587 6.56045 10.5865 6.12998 10.815 5.64596C10.8555 5.56496 10.9838 5.59646 10.9635 5.68646C10.5743 7.48646 9.27151 7.86221 8.46151 7.81271C8.37601 7.81496 8.37826 7.69571 8.45926 7.67096Z" fill="#CCBEA7"/>
<path d="M12.1289 18.9187C7.47591 18.9187 3.69141 15.8857 3.69141 12.1575C3.69141 9.90749 5.08191 7.80824 7.41066 6.55049C8.08566 6.19049 8.66391 5.82824 9.17916 5.51099C9.46266 5.33549 9.73041 5.17124 9.98916 5.01824C10.7789 4.55024 11.4539 4.23749 12.1289 4.23749C12.8039 4.23749 13.3934 4.50749 14.1314 4.94399C14.3564 5.07224 14.5814 5.21174 14.8222 5.36474C15.3824 5.71124 16.0147 6.10274 16.8472 6.55049C19.1759 7.80824 20.5664 9.90524 20.5664 12.1575C20.5664 15.8857 16.7819 18.9187 12.1289 18.9187ZM12.1289 4.79999C11.5844 4.79999 11.0039 5.08124 10.2727 5.50424C10.0184 5.65274 9.75516 5.81699 9.47616 5.98799C8.95191 6.31199 8.35116 6.67874 7.67616 7.04549C5.53416 8.20424 4.25391 10.1145 4.25391 12.1575C4.25391 15.5752 7.78641 18.3562 12.1289 18.3562C16.4714 18.3562 20.0039 15.5752 20.0039 12.1575C20.0039 10.1145 18.7237 8.20424 16.5794 7.04999C15.7289 6.59999 15.0652 6.17699 14.5274 5.84399C14.2822 5.69324 14.0572 5.55374 13.8524 5.42999C13.1707 5.02499 12.6734 4.79999 12.1289 4.79999Z" fill="black"/>
<path d="M13.715 13.8C13.6139 14.214 13.3839 14.5851 13.058 14.8597C12.8134 15.0969 12.4967 15.2457 12.158 15.2827C11.8092 15.2516 11.4814 15.1024 11.2288 14.8597C10.9063 14.5838 10.6794 14.2128 10.5808 13.8C10.5775 13.7755 10.5799 13.7506 10.5877 13.7271C10.5956 13.7037 10.6087 13.6823 10.6261 13.6647C10.6435 13.6471 10.6646 13.6338 10.688 13.6256C10.7113 13.6175 10.7362 13.6148 10.7608 13.6177H13.5373C13.5616 13.6152 13.5863 13.6181 13.6093 13.6264C13.6324 13.6347 13.6533 13.6482 13.6704 13.6657C13.6875 13.6833 13.7004 13.7045 13.7081 13.7277C13.7159 13.751 13.7182 13.7757 13.715 13.8Z" fill="#B71422"/>
<path d="M11.2289 14.8777C11.481 15.1205 11.8076 15.2711 12.1559 15.3052C12.5034 15.2707 12.8291 15.1201 13.0806 14.8777C13.1611 14.8028 13.2362 14.7223 13.3056 14.637C13.167 14.4798 12.9977 14.3525 12.8081 14.2631C12.6185 14.1738 12.4126 14.1241 12.2031 14.1172C11.979 14.1226 11.7594 14.1823 11.5635 14.2912C11.3675 14.4002 11.2009 14.5551 11.0781 14.7427C11.1299 14.79 11.1749 14.835 11.2289 14.8777Z" fill="#FF6164"/>
<path d="M11.2649 14.7C11.3765 14.5558 11.5193 14.4388 11.6826 14.3577C11.8459 14.2767 12.0254 14.2337 12.2077 14.232C12.5446 14.2419 12.8657 14.3776 13.1077 14.6123C13.1594 14.556 13.2089 14.4975 13.2562 14.439C12.9699 14.1664 12.5917 14.0114 12.1964 14.0048C11.9852 14.0066 11.777 14.0551 11.5868 14.1469C11.3966 14.2388 11.229 14.3715 11.0962 14.5358C11.1494 14.5936 11.2057 14.6484 11.2649 14.7Z" fill="black"/>
<path d="M12.149 15.4177C11.7741 15.3849 11.4212 15.2263 11.1478 14.9677C10.7995 14.6732 10.5543 14.2751 10.448 13.8315C10.4404 13.792 10.4417 13.7513 10.4518 13.7124C10.4619 13.6734 10.4806 13.6373 10.5065 13.6065C10.5373 13.5692 10.5763 13.5396 10.6203 13.5197C10.6644 13.4998 10.7124 13.4902 10.7608 13.4917H13.5373C13.5855 13.4907 13.6334 13.5005 13.6774 13.5203C13.7214 13.5402 13.7604 13.5696 13.7915 13.6065C13.8172 13.6374 13.8355 13.6736 13.8453 13.7126C13.855 13.7515 13.8559 13.7922 13.8478 13.8315C13.7414 14.2751 13.4963 14.6732 13.148 14.9677C12.8751 15.2258 12.5232 15.3844 12.149 15.4177ZM10.7608 13.7527C10.7248 13.7527 10.7158 13.7685 10.7135 13.773C10.8086 14.1577 11.0238 14.502 11.3278 14.7562C11.5501 14.9752 11.8391 15.1138 12.149 15.15C12.4582 15.1142 12.7468 14.9774 12.9703 14.7607C13.2733 14.5061 13.4876 14.1618 13.5823 13.7775C13.5774 13.7703 13.5706 13.7646 13.5626 13.761C13.5547 13.7574 13.5459 13.7561 13.5373 13.7572L10.7608 13.7527Z" fill="black"/>
<path d="M15.5533 13.9395C16.2803 13.9395 16.8696 13.5929 16.8696 13.1655C16.8696 12.738 16.2803 12.3915 15.5533 12.3915C14.8264 12.3915 14.2371 12.738 14.2371 13.1655C14.2371 13.5929 14.8264 13.9395 15.5533 13.9395Z" fill="#FEBBD0"/>
<path d="M8.74252 13.9395C9.46946 13.9395 10.0588 13.5929 10.0588 13.1655C10.0588 12.738 9.46946 12.3915 8.74252 12.3915C8.01557 12.3915 7.42627 12.738 7.42627 13.1655C7.42627 13.5929 8.01557 13.9395 8.74252 13.9395Z" fill="#FEBBD0"/>
<path fill-rule="evenodd" clip-rule="evenodd" d="M9.36128 12.855C9.60657 12.8554 9.84649 12.7831 10.0507 12.6471C10.2548 12.5112 10.4141 12.3177 10.5083 12.0912C10.6024 11.8647 10.6273 11.6154 10.5797 11.3748C10.5321 11.1341 10.4143 10.913 10.241 10.7394C10.0677 10.5658 9.84677 10.4475 9.60622 10.3995C9.36567 10.3515 9.11628 10.3759 8.88962 10.4696C8.66295 10.5634 8.4692 10.7223 8.33287 10.9262C8.19655 11.1302 8.12378 11.3699 8.12378 11.6152C8.12378 11.9436 8.25409 12.2586 8.4861 12.4911C8.71811 12.7235 9.03287 12.8544 9.36128 12.855ZM14.9345 12.855C15.1801 12.8568 15.4207 12.7856 15.6257 12.6504C15.8308 12.5153 15.9911 12.3223 16.0863 12.0959C16.1815 11.8696 16.2074 11.62 16.1605 11.3789C16.1137 11.1379 15.9964 10.9161 15.8234 10.7418C15.6503 10.5675 15.4295 10.4486 15.1887 10.4C14.948 10.3514 14.6983 10.3755 14.4712 10.469C14.2441 10.5626 14.05 10.7215 13.9134 10.9255C13.7767 11.1296 13.7038 11.3697 13.7038 11.6152C13.7032 11.9427 13.8324 12.257 14.063 12.4894C14.2937 12.7217 14.6071 12.8532 14.9345 12.855Z" fill="black"/>
<path fill-rule="evenodd" clip-rule="evenodd" d="M8.97888 11.694C9.07109 11.6945 9.16136 11.6675 9.23825 11.6166C9.31514 11.5657 9.37518 11.4931 9.41078 11.4081C9.44638 11.323 9.45592 11.2293 9.4382 11.1388C9.42049 11.0483 9.37631 10.9651 9.31126 10.8997C9.24622 10.8344 9.16323 10.7898 9.07282 10.7716C8.98242 10.7535 8.88866 10.7626 8.80342 10.7977C8.71818 10.8329 8.64531 10.8926 8.59403 10.9693C8.54276 11.0459 8.51538 11.136 8.51538 11.2283C8.51538 11.3514 8.56414 11.4695 8.651 11.5568C8.73786 11.6441 8.85575 11.6934 8.97888 11.694ZM14.5521 11.694C14.6443 11.6945 14.7346 11.6675 14.8115 11.6166C14.8884 11.5657 14.9484 11.4931 14.984 11.4081C15.0196 11.323 15.0292 11.2293 15.0115 11.1388C14.9937 11.0483 14.9496 10.9651 14.8845 10.8997C14.8195 10.8344 14.7365 10.7898 14.6461 10.7716C14.5557 10.7535 14.4619 10.7626 14.3767 10.7977C14.2914 10.8329 14.2186 10.8926 14.1673 10.9693C14.116 11.0459 14.0886 11.136 14.0886 11.2283C14.0886 11.3506 14.1368 11.4681 14.2227 11.5552C14.3085 11.6424 14.4253 11.6922 14.5476 11.694H14.5521Z" fill="white"/>
</g>
<defs>
<clipPath id="clip0_12350_7409">
<rect width="18" height="15.75" fill="white" transform="translate(3.57886 4.125)"/>
</clipPath>
</defs>
</svg>
