<svg width="24" height="24" viewBox="0 0 24 24" fill="none" xmlns="http://www.w3.org/2000/svg">
<path d="M21 12C21 16.9698 16.9698 21 12 21C7.0302 21 3 16.9698 3 12C3 7.0302 7.0302 3 12 3C16.9698 3 21 7.0302 21 12Z" fill="#4CAF50"/>
<path d="M12 3V12L15.6 13.8L11.6206 21C11.7633 21 11.8573 21 12 21C16.9738 21 21 16.9739 21 12C21 7.02615 16.9738 3 12 3Z" fill="#FFC107"/>
<path d="M21 12C21 16.9698 16.9698 21 12 21C7.0302 21 3 16.9698 3 12C3 7.0302 7.0302 3 12 3C16.9698 3 21 7.0302 21 12Z" fill="#4CAF50"/>
<path d="M12 3V12L15.6 13.8L11.6206 21C11.7633 21 11.8573 21 12 21C16.9738 21 21 16.9739 21 12C21 7.02615 16.9738 3 12 3Z" fill="#FFC107"/>
<path d="M20.028 7.95H12V13.8L10.65 13.35L4.42196 7.167H4.41296C6.00596 4.6605 8.80946 3 12 3C15.51 3 18.5475 5.016 20.028 7.95Z" fill="#F44336"/>
<path d="M4.42114 7.16882L8.40049 13.8567L10.65 13.35L4.42114 7.16882Z" fill="#DD2C00"/>
<path d="M11.6206 21L15.6409 13.7734L13.8 12.45L11.6206 21Z" fill="#558B2F"/>
<path d="M20.0392 7.94995H12L11.2894 10.011L20.0392 7.94995Z" fill="#F9A825"/>
<path d="M16.05 12C16.05 14.236 14.236 16.05 12 16.05C9.7639 16.05 7.94995 14.236 7.94995 12C7.94995 9.7639 9.7639 7.94995 12 7.94995C14.236 7.94995 16.05 9.7639 16.05 12Z" fill="white"/>
<path d="M15.15 12C15.15 13.7401 13.7401 15.15 12 15.15C10.2598 15.15 8.84998 13.7401 8.84998 12C8.84998 10.2598 10.2598 8.84998 12 8.84998C13.7401 8.84998 15.15 10.2598 15.15 12Z" fill="#2196F3"/>
</svg>
