<svg width="24" height="24" viewBox="0 0 24 24" fill="none" xmlns="http://www.w3.org/2000/svg">
<path d="M20.5466 17C20.686 16.7584 20.7727 16.4863 20.7727 16.2419V7.75807C20.7727 7.51367 20.6862 7.24156 20.5466 7L11.8864 12L20.5466 17Z" fill="#00599C"/>
<path d="M12.6559 21.8167L20.0031 17.5748C20.2147 17.4526 20.4071 17.2416 20.5465 17L11.8863 12L3.22607 17C3.36553 17.2416 3.55795 17.4527 3.76954 17.5748L11.1167 21.8167C11.54 22.0611 12.2326 22.0611 12.6559 21.8167Z" fill="#004482"/>
<path d="M20.5466 6.99999C20.4071 6.75838 20.2147 6.54737 20.0031 6.42517L12.6559 2.1833C12.2327 1.9389 11.54 1.9389 11.1168 2.1833L3.76957 6.42517C3.34628 6.66951 3 7.26937 3 7.75812V16.2419C3 16.4863 3.0866 16.7585 3.22611 17L11.8863 12L20.5466 6.99999Z" fill="#659AD2"/>
<path d="M11.8864 17.9242C8.61976 17.9242 5.96216 15.2666 5.96216 12C5.96216 8.73334 8.61976 6.07574 11.8864 6.07574C13.9943 6.07574 15.9601 7.21006 17.0167 9.036L14.4529 10.5196C13.924 9.60566 12.9406 9.03786 11.8864 9.03786C10.253 9.03786 8.92427 10.3666 8.92427 12C8.92427 13.6333 10.253 14.9621 11.8864 14.9621C12.9407 14.9621 13.9241 14.3943 14.453 13.4802L17.0169 14.9637C15.9603 16.7898 13.9944 17.9242 11.8864 17.9242Z" fill="white"/>
<path d="M17.8106 11.671H17.1523V11.0128H16.4941V11.671H15.8358V12.3292H16.4941V12.9875H17.1523V12.3292H17.8106V11.671Z" fill="white"/>
<path d="M20.2791 11.671H19.6208V11.0128H18.9626V11.671H18.3043V12.3292H18.9626V12.9875H19.6208V12.3292H20.2791V11.671Z" fill="white"/>
</svg>
