<svg width="24" height="24" viewBox="0 0 24 24" fill="none" xmlns="http://www.w3.org/2000/svg">
<path d="M19.6653 21H4.33474C3.98097 20.9993 3.64191 20.8584 3.39176 20.6082C3.1416 20.3581 3.00074 20.019 3 19.6653V4.33474C3.00074 3.98098 3.1416 3.64191 3.39176 3.39176C3.64191 3.14161 3.98097 3.00074 4.33474 3H19.6653C20.0185 3.00074 20.3572 3.14122 20.6073 3.39076C20.8573 3.64031 20.9985 3.97865 21 4.33193V19.6624C20.9982 20.0159 20.8569 20.3543 20.607 20.6042C20.3571 20.8541 20.0187 20.9953 19.6653 20.9972V21Z" fill="#2A62AA"/>
<path d="M17.5898 4.78455V19.1128H14.5561V18.0158C13.7566 18.7921 12.6807 19.2152 11.4225 19.2152C8.67084 19.2152 6.40698 16.8692 6.40698 13.9269C6.40698 10.9845 8.82949 8.60592 11.4225 8.60592C12.6807 8.60592 13.7566 9.05261 14.5561 9.84361V5.3927L17.5898 4.78455ZM12.1102 16.4318C12.7883 16.4312 13.4385 16.1616 13.918 15.6821C14.3975 15.2026 14.6671 14.5524 14.6677 13.8743C14.6672 13.1961 14.3976 12.5459 13.9181 12.0663C13.4386 11.5868 12.7884 11.3171 12.1102 11.3165C11.4321 11.3171 10.7818 11.5868 10.3023 12.0663C9.82282 12.5459 9.55321 13.1961 9.55269 13.8743C9.55329 14.5524 9.82293 15.2026 10.3024 15.6821C10.7819 16.1616 11.4321 16.4312 12.1102 16.4318V16.4318Z" fill="white"/>
</svg>
