<svg width="24" height="24" viewBox="0 0 24 24" fill="none" xmlns="http://www.w3.org/2000/svg">
    <path style=" stroke:none;fill-rule:evenodd;fill:rgb(0%,0%,0%);fill-opacity:1;" d="M 15.660156 14.671875 C 17.6875 14.773438 19.804688 13.863281 20.460938 12.050781 C 21.117188 10.242188 20.863281 8.453125 18.507812 7.378906 C 16.148438 6.304688 15.0625 5.027344 13.15625 4.257812 C 11.914062 3.753906 10.527344 4.054688 9.109375 4.839844 C 5.28125 6.953125 1.847656 13.640625 3.429688 19.832031 C 3.453125 19.917969 3.414062 20.007812 3.339844 20.050781 C 3.261719 20.089844 3.164062 20.074219 3.105469 20.011719 C 0.972656 17.660156 -0.226562 14.472656 0.0351562 11.058594 C 0.539062 4.472656 6.292969 -0.46875 12.882812 0.0351562 C 19.46875 0.539062 24.410156 6.296875 23.90625 12.882812 C 23.695312 15.648438 22.558594 18.125 20.820312 20.027344 C 19.492188 21.394531 17.800781 22 16.386719 21.976562 C 15.363281 21.957031 14.363281 21.550781 13.667969 20.953125 C 12.679688 20.101562 12.28125 19.128906 12.144531 18.042969 C 12.109375 17.773438 12.128906 17.035156 12.269531 16.527344 C 12.375 16.148438 12.640625 15.414062 13.03125 15.09375 C 12.574219 14.898438 11.992188 14.472656 11.804688 14.269531 C 11.761719 14.21875 11.765625 14.136719 11.808594 14.085938 C 11.847656 14.03125 11.917969 14.007812 11.984375 14.03125 C 12.375 14.164062 12.847656 14.296875 13.351562 14.382812 C 14.011719 14.492188 14.832031 14.632812 15.660156 14.671875 Z M 15.660156 14.671875 "/>
    <path style=" stroke:none;fill-rule:evenodd;fill:rgb(0%,0%,0%);fill-opacity:1;" d="M 11.539062 5.09375 C 12.183594 5.042969 12.746094 5.59375 12.84375 6.324219 C 12.972656 7.300781 12.617188 8.3125 11.4375 8.335938 C 10.429688 8.355469 10.125 7.339844 10.191406 6.722656 C 10.257812 6.109375 10.765625 5.152344 11.539062 5.09375 Z M 11.539062 5.09375 "/></svg>
