<svg width="21" height="9" viewBox="0 0 21 9" fill="none" xmlns="http://www.w3.org/2000/svg">
<path d="M1.5367 6.77066C1.44246 6.76892 1.35244 6.789 1.27079 6.82299L1.27077 6.82297L1.26809 6.82415C1.18619 6.86013 1.11066 6.91165 1.04778 6.97763C0.984416 7.04106 0.933719 7.11661 0.900246 7.20081L0.900241 7.2008L0.899816 7.2019C0.867868 7.28413 0.850324 7.37148 0.850116 7.46019M1.5367 6.77066C1.62683 6.77086 1.71694 6.78819 1.80221 6.82566C1.88344 6.86135 1.95839 6.91232 2.02096 6.97752C2.08783 7.04102 2.13744 7.11653 2.17282 7.19799L2.17349 7.19953L2.17348 7.19954C2.20882 7.28349 2.22627 7.37286 2.22627 7.4633C2.22627 7.55374 2.20882 7.64311 2.17348 7.72707C2.13908 7.80877 2.08878 7.88483 2.02167 7.94834C1.95873 8.01224 1.88363 8.06296 1.80079 8.09756L1.74298 7.95915L1.80079 8.09756C1.7175 8.13234 1.62807 8.15013 1.5378 8.1499M1.5367 6.77066C1.53724 6.77067 1.53778 6.77068 1.53832 6.7707L1.53515 6.92066V6.77066C1.53567 6.77066 1.53619 6.77066 1.5367 6.77066ZM1.5378 8.1499C1.44662 8.15149 1.35607 8.13418 1.27193 8.09904C1.1879 8.06394 1.11207 8.01181 1.0493 7.94594C0.985862 7.88244 0.935939 7.80764 0.901383 7.72555C0.866254 7.6421 0.848375 7.55224 0.850116 7.46019M1.5378 8.1499C1.53715 8.1499 1.5365 8.1499 1.53585 8.14989L1.53667 7.99989L1.53973 8.14986C1.53908 8.14988 1.53844 8.14989 1.5378 8.1499ZM0.850116 7.46019C0.850126 7.45965 0.850137 7.45912 0.850148 7.45858L1.00011 7.46179H0.850114C0.850114 7.46126 0.850115 7.46072 0.850116 7.46019ZM4.46673 7.90618V2.91575C4.46994 2.80356 4.47033 2.69143 4.46804 2.57937L7.96337 7.9876L8.0077 8.05618H8.08935H9.08495H9.23495V7.90618V1V0.85H9.08495H8.27631H8.12631V1V5.85487C8.12306 6.00128 8.12426 6.14793 8.12979 6.29447L4.68624 0.919087L4.64198 0.85H4.55993H3.5081H3.3581V1V7.90618V8.05618H3.5081H4.31673H4.46673V7.90618ZM14.7176 7.14829L14.7185 6.99739H14.5676H11.86V4.90464H14.2104H14.3604V4.75464V4.02608V3.87608H14.2104H11.86V1.88158H14.3928H14.5428V1.73158V1V0.85H14.3928H10.8816H10.7316V1V7.90618V8.05618H10.8816H14.563H14.7121L14.713 7.90708L14.7176 7.14829ZM15.1862 0.85H15.0362V1V1.73158V1.88158H15.1862H17.0274V7.90618V8.05618H17.1774H17.986H18.136V7.90618V1.88158H20H20.15V1.73158V1V0.85H20H15.1862Z" fill="#512BD4" stroke="#512BD4" stroke-width="0.3"/>
</svg>
