<svg width="24" height="24" viewBox="0 0 24 24" fill="none" xmlns="http://www.w3.org/2000/svg">
<path fill-rule="evenodd" clip-rule="evenodd" d="M21 12C21 16.9706 16.9706 21 12 21C7.02944 21 3 16.9706 3 12C3 7.02944 7.02944 3 12 3C16.9706 3 21 7.02944 21 12ZM15.1654 19.037C14.1996 19.4722 13.1281 19.7143 12 19.7143C10.1377 19.7143 8.42951 19.0544 7.09654 17.9556C8.48321 15.6287 10.7135 13.8645 13.3648 13.0839C14.1263 14.9945 14.7317 16.9841 15.1654 19.037ZM16.3385 18.3796C15.9112 16.4583 15.3384 14.5919 14.6322 12.7925C15.2201 12.6941 15.8239 12.6429 16.4397 12.6429C17.5521 12.6429 18.6244 12.8098 19.6336 13.1196C19.3162 15.3031 18.084 17.1902 16.3385 18.3796ZM19.7118 11.8028C18.6702 11.5123 17.5726 11.3571 16.4397 11.3571C15.65 11.3571 14.8779 11.4325 14.1302 11.5763C13.9352 11.1262 13.7317 10.6807 13.5199 10.2398C15.203 9.49277 16.7584 8.51045 18.1443 7.33472C19.0924 8.58155 19.6697 10.1257 19.7118 11.8028ZM17.2834 6.37894C15.9823 7.47803 14.5224 8.39457 12.9429 9.08918C12.1091 7.49476 11.1654 5.967 10.1218 4.51596C10.723 4.36557 11.3522 4.28571 12 4.28571C14.0444 4.28571 15.903 5.08094 17.2834 6.37894ZM8.85163 4.95532C6.58698 5.96897 4.90033 8.04257 4.42271 10.5451C4.86157 10.5774 5.30494 10.5938 5.75224 10.5938C7.85305 10.5938 9.86897 10.2316 11.7412 9.56624C10.8908 7.95459 9.92393 6.41388 8.85163 4.95532ZM4.28768 11.8243C4.28637 11.8827 4.28571 11.9413 4.28571 12C4.28571 13.9235 4.98967 15.6825 6.15399 17.0335C7.68774 14.6031 10.0599 12.7534 12.8648 11.8914C12.6916 11.4981 12.5117 11.1084 12.3253 10.7224C10.2751 11.471 8.0612 11.8795 5.75224 11.8795C5.2596 11.8795 4.77118 11.8609 4.28768 11.8243Z" fill="#E84C88"/>
</svg>
