<svg width="24" height="24" viewBox="0 0 24 24" fill="none" xmlns="http://www.w3.org/2000/svg">
<path d="M20.6185 9.33929C20.2208 8.38252 19.4142 7.34949 18.7826 7.02293C19.233 7.89514 19.5457 8.83184 19.7094 9.79973L19.7111 9.81507C18.6764 7.23662 16.9225 6.19533 15.4892 3.93092C15.4167 3.8164 15.3442 3.70164 15.2736 3.58051C15.2332 3.51133 15.2009 3.44899 15.1728 3.39161C15.1134 3.27652 15.0676 3.15488 15.0363 3.02917C15.0364 3.02337 15.0343 3.01775 15.0304 3.0134C15.0266 3.00904 15.0213 3.00625 15.0155 3.00555C15.0099 3.00401 15.0039 3.00401 14.9983 3.00555C14.9971 3.00555 14.9952 3.00768 14.9938 3.00815C14.9924 3.00862 14.9893 3.01075 14.9872 3.01169L14.9907 3.00555C12.6921 4.35145 11.9117 6.84254 11.8409 8.08926C10.9226 8.15222 10.0446 8.49049 9.32146 9.05996C9.24604 8.99608 9.16721 8.93633 9.08533 8.88098C8.87683 8.15111 8.86795 7.37867 9.0596 6.64419C8.21543 7.05311 7.46534 7.63282 6.85681 8.34663H6.85256C6.48988 7.8869 6.51538 6.371 6.53616 6.05436C6.42887 6.09748 6.32645 6.15186 6.23062 6.21658C5.91045 6.44508 5.61113 6.70149 5.33619 6.98279C5.02288 7.30045 4.73672 7.64379 4.48072 8.00921V8.01063V8.00898C3.89243 8.84287 3.47512 9.78502 3.25289 10.781L3.24061 10.8415C3.22337 10.922 3.16127 11.3253 3.15065 11.4129C3.15065 11.4198 3.14923 11.4261 3.14852 11.433C3.06842 11.8493 3.01878 12.271 3 12.6946V12.7418C3.00404 15.0318 3.86647 17.2372 5.41703 18.9224C6.96759 20.6077 9.0936 21.6504 11.3754 21.8447C13.6572 22.0391 15.9289 21.3709 17.7421 19.9722C19.5553 18.5734 20.7783 16.5457 21.1696 14.2893C21.1849 14.1713 21.1974 14.0544 21.2111 13.9352C21.3996 12.3772 21.1956 10.7968 20.6175 9.33787L20.6185 9.33929ZM10.0709 16.5032C10.1136 16.5238 10.1538 16.546 10.1977 16.5656L10.2041 16.5696C10.1597 16.5483 10.1153 16.5262 10.0709 16.5032ZM19.7113 9.81767V9.80893L19.7129 9.81862L19.7113 9.81767Z" fill="url(#paint0_linear_4475_59607)"/>
<path d="M20.6184 9.3393C20.2208 8.38254 19.4142 7.34951 18.7826 7.02295C19.233 7.89516 19.5456 8.83186 19.7093 9.79974V9.80848L19.711 9.81816C20.4165 11.8368 20.3145 14.05 19.4262 15.9951C18.3774 18.2456 15.8395 20.5523 11.8656 20.4389C7.57291 20.3173 3.79024 17.1309 3.08424 12.9586C2.95555 12.3005 3.08424 11.9669 3.14893 11.4321C3.06068 11.8475 3.01144 12.2702 3.00183 12.6948V12.7421C3.00588 15.0321 3.8683 17.2374 5.41886 18.9227C6.96942 20.6079 9.09543 21.6506 11.3772 21.845C13.659 22.0393 15.9307 21.3712 17.7439 19.9724C19.5572 18.5737 20.7801 16.546 21.1714 14.2896C21.1868 14.1715 21.1993 14.0547 21.213 13.9354C21.4015 12.3775 21.1974 10.7971 20.6194 9.33812L20.6184 9.3393Z" fill="url(#paint1_radial_4475_59607)"/>
<path d="M20.6184 9.3393C20.2208 8.38254 19.4142 7.34951 18.7826 7.02295C19.233 7.89516 19.5456 8.83186 19.7093 9.79974V9.80848L19.711 9.81816C20.4165 11.8368 20.3145 14.05 19.4262 15.9951C18.3774 18.2456 15.8395 20.5523 11.8656 20.4389C7.57291 20.3173 3.79024 17.1309 3.08424 12.9586C2.95555 12.3005 3.08424 11.9669 3.14893 11.4321C3.06068 11.8475 3.01144 12.2702 3.00183 12.6948V12.7421C3.00588 15.0321 3.8683 17.2374 5.41886 18.9227C6.96942 20.6079 9.09543 21.6506 11.3772 21.845C13.659 22.0393 15.9307 21.3712 17.7439 19.9724C19.5572 18.5737 20.7801 16.546 21.1714 14.2896C21.1868 14.1715 21.1993 14.0547 21.213 13.9354C21.4015 12.3775 21.1974 10.7971 20.6194 9.33812L20.6184 9.3393Z" fill="url(#paint2_radial_4475_59607)"/>
<path d="M16.1699 10.4137C16.1898 10.4276 16.2082 10.4415 16.2268 10.4554C15.997 10.0478 15.7108 9.67463 15.3768 9.34686C12.5315 6.50159 14.6314 3.17935 14.9853 3.00935L14.9889 3.00415C12.6902 4.35005 11.9098 6.84113 11.839 8.08785C11.9457 8.08053 12.0515 8.07156 12.1606 8.07156C12.9761 8.07314 13.7767 8.29063 14.4809 8.70192C15.1851 9.11322 15.7679 9.70365 16.1699 10.4132V10.4137Z" fill="url(#paint3_radial_4475_59607)"/>
<path d="M12.1653 10.9829C12.1502 11.2105 11.346 11.9956 11.0648 11.9956C8.4627 11.9956 8.04004 13.5699 8.04004 13.5699C8.15527 14.8954 9.07898 15.9877 10.1956 16.5639C10.2466 16.5903 10.2983 16.6142 10.35 16.6376C10.4396 16.6772 10.5292 16.7139 10.6187 16.7476C11.0019 16.8832 11.4033 16.9606 11.8095 16.9773C16.3714 17.1913 17.2545 11.5229 13.9627 9.87715C14.7392 9.77611 15.5255 9.96704 16.1692 10.4129C15.7672 9.70337 15.1844 9.11294 14.4802 8.70165C13.776 8.29036 12.9754 8.07287 12.1599 8.07129C12.0513 8.07129 11.945 8.08026 11.8383 8.08758C10.92 8.15054 10.042 8.48882 9.31887 9.05828C9.45842 9.17634 9.61592 9.33407 9.94767 9.6611C10.5687 10.2729 12.1613 10.9066 12.1649 10.981L12.1653 10.9829Z" fill="url(#paint4_radial_4475_59607)"/>
<path d="M12.1653 10.9829C12.1502 11.2105 11.346 11.9956 11.0648 11.9956C8.4627 11.9956 8.04004 13.5699 8.04004 13.5699C8.15527 14.8954 9.07898 15.9877 10.1956 16.5639C10.2466 16.5903 10.2983 16.6142 10.35 16.6376C10.4396 16.6772 10.5292 16.7139 10.6187 16.7476C11.0019 16.8832 11.4033 16.9606 11.8095 16.9773C16.3714 17.1913 17.2545 11.5229 13.9627 9.87715C14.7392 9.77611 15.5255 9.96704 16.1692 10.4129C15.7672 9.70337 15.1844 9.11294 14.4802 8.70165C13.776 8.29036 12.9754 8.07287 12.1599 8.07129C12.0513 8.07129 11.945 8.08026 11.8383 8.08758C10.92 8.15054 10.042 8.48882 9.31887 9.05828C9.45842 9.17634 9.61592 9.33407 9.94767 9.6611C10.5687 10.2729 12.1613 10.9066 12.1649 10.981L12.1653 10.9829Z" fill="url(#paint5_radial_4475_59607)"/>
<path d="M8.89265 8.75618C8.96679 8.8034 9.02795 8.84449 9.08155 8.88156C8.87305 8.15169 8.86416 7.37925 9.05581 6.64478C8.21164 7.05369 7.46155 7.6334 6.85303 8.34721C6.89765 8.34603 8.22513 8.32219 8.89265 8.75618Z" fill="url(#paint6_radial_4475_59607)"/>
<path d="M3.08267 12.9592C3.78891 17.1315 7.57135 20.3192 11.864 20.4396C15.838 20.552 18.3763 18.2451 19.4247 15.9958C20.3129 14.0506 20.4149 11.8374 19.7094 9.81882V9.81008C19.7094 9.80323 19.708 9.79922 19.7094 9.80135L19.7111 9.81669C20.0357 11.9364 18.9576 13.989 17.2719 15.3797L17.2667 15.3915C13.9823 18.0668 10.8395 17.0052 10.2043 16.5721C10.1599 16.5509 10.1156 16.5288 10.0712 16.5058C8.15646 15.5906 7.36521 13.8471 7.53522 12.35C7.08071 12.3568 6.63401 12.2315 6.24924 11.9895C5.86447 11.7475 5.55815 11.399 5.36738 10.9864C5.87004 10.6785 6.44317 10.5045 7.03217 10.4808C7.62116 10.4572 8.2064 10.5847 8.73212 10.8514C9.81575 11.3433 11.0488 11.3917 12.1677 10.9864C12.1642 10.9121 10.5715 10.2781 9.95051 9.66652C9.61876 9.33949 9.46127 9.182 9.32172 9.0637C9.2463 8.99982 9.16748 8.94007 9.0856 8.88472C9.03129 8.84765 8.97013 8.80751 8.8967 8.75934C8.22918 8.32535 6.9017 8.3492 6.85779 8.35038H6.85354C6.49085 7.89065 6.51635 6.37474 6.53713 6.05811C6.42984 6.10123 6.32742 6.1556 6.23159 6.22032C5.91142 6.44883 5.6121 6.70523 5.33716 6.98654C5.02273 7.3033 4.73538 7.64585 4.47815 8.0106V8.01201V8.01036C3.88986 8.84425 3.47255 9.7864 3.25032 10.7824C3.24583 10.8011 2.92069 12.2225 3.08102 12.9597L3.08267 12.9592Z" fill="url(#paint7_radial_4475_59607)"/>
<path d="M15.3766 9.34646C15.7107 9.6746 15.9969 10.0482 16.2267 10.4562C16.2769 10.4943 16.3239 10.532 16.3638 10.5686C18.4386 12.4812 17.3515 15.1848 17.2705 15.3761C18.956 13.9874 20.0332 11.9334 19.7097 9.81304C18.6745 7.23223 16.9187 6.19093 15.4878 3.92652C15.4153 3.812 15.3428 3.69725 15.2722 3.57612C15.2319 3.50693 15.1995 3.4446 15.1714 3.38722C15.112 3.27212 15.0662 3.15048 15.0349 3.02477C15.035 3.01897 15.0329 3.01336 15.0291 3.009C15.0252 3.00465 15.0199 3.00186 15.0142 3.00116C15.0085 2.99961 15.0026 2.99961 14.9969 3.00116C14.9957 3.00116 14.9939 3.00329 14.9924 3.00376C14.991 3.00423 14.988 3.00636 14.9858 3.0073C14.6319 3.17518 12.5325 6.49954 15.3778 9.34245L15.3766 9.34646Z" fill="url(#paint8_radial_4475_59607)"/>
<path d="M16.3635 10.5695C16.3236 10.5329 16.2766 10.4951 16.2264 10.4571C16.2077 10.4432 16.1893 10.4293 16.1694 10.4153C15.5257 9.96946 14.7394 9.77853 13.9629 9.87957C17.2544 11.5253 16.3713 17.1923 11.8097 16.9798C11.4035 16.9631 11.0022 16.8856 10.6189 16.75C10.5294 16.7165 10.4398 16.6798 10.3502 16.64C10.2985 16.6164 10.2468 16.5927 10.1958 16.5663L10.2022 16.5703C10.8383 17.0045 13.9801 18.0654 17.2646 15.3897L17.2698 15.3779C17.3517 15.1866 18.4388 12.483 16.3631 10.5705L16.3635 10.5695Z" fill="url(#paint9_radial_4475_59607)"/>
<path d="M8.04026 13.5683C8.04026 13.5683 8.46268 11.994 11.065 11.994C11.3462 11.994 12.1511 11.2089 12.1655 10.9813C11.0466 11.3866 9.8136 11.3381 8.72997 10.8462C8.20425 10.5796 7.61901 10.452 7.03002 10.4757C6.44102 10.4993 5.86789 10.6734 5.36523 10.9813C5.556 11.3939 5.86232 11.7423 6.24709 11.9843C6.63186 12.2264 7.07856 12.3516 7.53307 12.3449C7.36353 13.8412 8.15454 15.5845 10.069 16.5007C10.1118 16.5212 10.1519 16.5434 10.1958 16.563C9.07825 15.9857 8.15549 14.8938 8.04026 13.569V13.5683Z" fill="url(#paint10_radial_4475_59607)"/>
<path d="M20.6184 9.33929C20.2207 8.38252 19.4141 7.34949 18.7825 7.02293C19.2329 7.89514 19.5456 8.83184 19.7093 9.79973L19.7109 9.81507C18.6763 7.23662 16.9223 6.19533 15.4891 3.93092C15.4166 3.8164 15.3441 3.70164 15.2735 3.58051C15.2331 3.51133 15.2008 3.44899 15.1727 3.39161C15.1133 3.27652 15.0674 3.15488 15.0362 3.02917C15.0362 3.02337 15.0342 3.01775 15.0303 3.0134C15.0265 3.00904 15.0212 3.00625 15.0154 3.00555C15.0098 3.00401 15.0038 3.00401 14.9982 3.00555C14.997 3.00555 14.9951 3.00768 14.9937 3.00815C14.9923 3.00862 14.9892 3.01075 14.9871 3.01169L14.9906 3.00555C12.692 4.35145 11.9116 6.84254 11.8408 8.08926C11.9475 8.08194 12.0533 8.07297 12.1624 8.07297C12.9779 8.07454 13.7785 8.29204 14.4827 8.70333C15.1869 9.11462 15.7697 9.70505 16.1717 10.4146C15.528 9.96872 14.7417 9.77779 13.9652 9.87883C17.2567 11.5246 16.3736 17.1915 11.812 16.979C11.4058 16.9623 11.0044 16.8849 10.6212 16.7493C10.5316 16.7157 10.4421 16.6791 10.3525 16.6392C10.3008 16.6156 10.2491 16.592 10.1981 16.5656L10.2044 16.5696C10.1601 16.5483 10.1157 16.5262 10.0713 16.5032C10.114 16.5238 10.1542 16.546 10.1981 16.5656C9.0805 15.988 8.15774 14.8962 8.04251 13.5715C8.04251 13.5715 8.46493 11.9973 11.0672 11.9973C11.3485 11.9973 12.1534 11.2122 12.1678 10.9846C12.1643 10.9102 10.5716 10.2762 9.95061 9.66466C9.61886 9.33764 9.46137 9.18014 9.32182 9.06184C9.2464 8.99796 9.16758 8.93822 9.0857 8.88286C8.8772 8.15299 8.86831 7.38056 9.05996 6.64608C8.21579 7.055 7.46571 7.63471 6.85718 8.34852H6.85293C6.49025 7.88879 6.51575 6.37289 6.53653 6.05625C6.42923 6.09937 6.32681 6.15375 6.23099 6.21847C5.91081 6.44697 5.6115 6.70338 5.33656 6.98468C5.02324 7.30234 4.73709 7.64568 4.48109 8.0111V8.01252V8.01087C3.8928 8.84476 3.47549 9.78691 3.25325 10.7829L3.24097 10.8434C3.22374 10.9239 3.14653 11.3329 3.13543 11.4207C3.0648 11.8429 3.0197 12.2689 3.00037 12.6965V12.7437C3.00441 15.0337 3.86684 17.239 5.41739 18.9243C6.96795 20.6095 9.09396 21.6523 11.3757 21.8466C13.6575 22.0409 15.9293 21.3728 17.7425 19.974C19.5557 18.5753 20.7787 16.5476 21.1699 14.2912C21.1853 14.1732 21.1978 14.0563 21.2115 13.9371C21.4 12.3791 21.1959 10.7987 20.6179 9.33976L20.6184 9.33929ZM19.7105 9.80941L19.7121 9.81909L19.7105 9.80941Z" fill="url(#paint11_linear_4475_59607)"/>
<defs>
<linearGradient id="paint0_linear_4475_59607" x1="19.4072" y1="5.92872" x2="4.21438" y2="20.5872" gradientUnits="userSpaceOnUse">
<stop offset="0.048" stop-color="#FFF44F"/>
<stop offset="0.111" stop-color="#FFE847"/>
<stop offset="0.225" stop-color="#FFC830"/>
<stop offset="0.368" stop-color="#FF980E"/>
<stop offset="0.401" stop-color="#FF8B16"/>
<stop offset="0.462" stop-color="#FF672A"/>
<stop offset="0.534" stop-color="#FF3647"/>
<stop offset="0.705" stop-color="#E31587"/>
</linearGradient>
<radialGradient id="paint1_radial_4475_59607" cx="0" cy="0" r="1" gradientUnits="userSpaceOnUse" gradientTransform="translate(18.8192 5.12925) scale(19.0786)">
<stop offset="0.129" stop-color="#FFBD4F"/>
<stop offset="0.186" stop-color="#FFAC31"/>
<stop offset="0.247" stop-color="#FF9D17"/>
<stop offset="0.283" stop-color="#FF980E"/>
<stop offset="0.403" stop-color="#FF563B"/>
<stop offset="0.467" stop-color="#FF3750"/>
<stop offset="0.71" stop-color="#F5156C"/>
<stop offset="0.782" stop-color="#EB0878"/>
<stop offset="0.86" stop-color="#E50080"/>
</radialGradient>
<radialGradient id="paint2_radial_4475_59607" cx="0" cy="0" r="1" gradientUnits="userSpaceOnUse" gradientTransform="translate(11.7355 12.9213) scale(19.0786)">
<stop offset="0.3" stop-color="#960E18"/>
<stop offset="0.351" stop-color="#B11927" stop-opacity="0.74"/>
<stop offset="0.435" stop-color="#DB293D" stop-opacity="0.343"/>
<stop offset="0.497" stop-color="#F5334B" stop-opacity="0.094"/>
<stop offset="0.53" stop-color="#FF3750" stop-opacity="0"/>
</radialGradient>
<radialGradient id="paint3_radial_4475_59607" cx="0" cy="0" r="1" gradientUnits="userSpaceOnUse" gradientTransform="translate(14.0968 0.879053) scale(13.8202)">
<stop offset="0.132" stop-color="#FFF44F"/>
<stop offset="0.252" stop-color="#FFDC3E"/>
<stop offset="0.506" stop-color="#FF9D12"/>
<stop offset="0.526" stop-color="#FF980E"/>
</radialGradient>
<radialGradient id="paint4_radial_4475_59607" cx="0" cy="0" r="1" gradientUnits="userSpaceOnUse" gradientTransform="translate(9.61049 17.88) scale(9.08361)">
<stop offset="0.353" stop-color="#3A8EE6"/>
<stop offset="0.472" stop-color="#5C79F0"/>
<stop offset="0.669" stop-color="#9059FF"/>
<stop offset="1" stop-color="#C139E6"/>
</radialGradient>
<radialGradient id="paint5_radial_4475_59607" cx="0" cy="0" r="1" gradientUnits="userSpaceOnUse" gradientTransform="translate(12.6583 11.2837) rotate(-13.5916) scale(4.81691 5.6394)">
<stop offset="0.206" stop-color="#9059FF" stop-opacity="0"/>
<stop offset="0.278" stop-color="#8C4FF3" stop-opacity="0.064"/>
<stop offset="0.747" stop-color="#7716A8" stop-opacity="0.45"/>
<stop offset="0.975" stop-color="#6E008B" stop-opacity="0.6"/>
</radialGradient>
<radialGradient id="paint6_radial_4475_59607" cx="0" cy="0" r="1" gradientUnits="userSpaceOnUse" gradientTransform="translate(11.4994 4.42098) scale(6.53585 6.53585)">
<stop stop-color="#FFE226"/>
<stop offset="0.121" stop-color="#FFDB27"/>
<stop offset="0.295" stop-color="#FFC82A"/>
<stop offset="0.502" stop-color="#FFA930"/>
<stop offset="0.732" stop-color="#FF7E37"/>
<stop offset="0.792" stop-color="#FF7139"/>
</radialGradient>
<radialGradient id="paint7_radial_4475_59607" cx="0" cy="0" r="1" gradientUnits="userSpaceOnUse" gradientTransform="translate(16.6942 0.170877) scale(27.886 27.886)">
<stop offset="0.113" stop-color="#FFF44F"/>
<stop offset="0.456" stop-color="#FF980E"/>
<stop offset="0.622" stop-color="#FF5634"/>
<stop offset="0.716" stop-color="#FF3647"/>
<stop offset="0.904" stop-color="#E31587"/>
</radialGradient>
<radialGradient id="paint8_radial_4475_59607" cx="0" cy="0" r="1" gradientUnits="userSpaceOnUse" gradientTransform="translate(14.3764 1.71689) rotate(83.976) scale(20.4353 13.4115)">
<stop stop-color="#FFF44F"/>
<stop offset="0.06" stop-color="#FFE847"/>
<stop offset="0.168" stop-color="#FFC830"/>
<stop offset="0.304" stop-color="#FF980E"/>
<stop offset="0.356" stop-color="#FF8B16"/>
<stop offset="0.455" stop-color="#FF672A"/>
<stop offset="0.57" stop-color="#FF3647"/>
<stop offset="0.737" stop-color="#E31587"/>
</radialGradient>
<radialGradient id="paint9_radial_4475_59607" cx="0" cy="0" r="1" gradientUnits="userSpaceOnUse" gradientTransform="translate(11.4994 6.78212) scale(17.4069)">
<stop offset="0.137" stop-color="#FFF44F"/>
<stop offset="0.48" stop-color="#FF980E"/>
<stop offset="0.592" stop-color="#FF5634"/>
<stop offset="0.655" stop-color="#FF3647"/>
<stop offset="0.904" stop-color="#E31587"/>
</radialGradient>
<radialGradient id="paint10_radial_4475_59607" cx="0" cy="0" r="1" gradientUnits="userSpaceOnUse" gradientTransform="translate(15.9858 7.7266) scale(19.0527)">
<stop offset="0.094" stop-color="#FFF44F"/>
<stop offset="0.231" stop-color="#FFE141"/>
<stop offset="0.509" stop-color="#FFAF1E"/>
<stop offset="0.626" stop-color="#FF980E"/>
</radialGradient>
<linearGradient id="paint11_linear_4475_59607" x1="19.2229" y1="5.8508" x2="6.29757" y2="18.7785" gradientUnits="userSpaceOnUse">
<stop offset="0.167" stop-color="#FFF44F" stop-opacity="0.8"/>
<stop offset="0.266" stop-color="#FFF44F" stop-opacity="0.634"/>
<stop offset="0.489" stop-color="#FFF44F" stop-opacity="0.217"/>
<stop offset="0.6" stop-color="#FFF44F" stop-opacity="0"/>
</linearGradient>
</defs>
</svg>
