<svg width="24" height="24" viewBox="0 0 24 24" fill="none" xmlns="http://www.w3.org/2000/svg">
<rect x="3" y="3" width="18" height="18" rx="6" fill="url(#paint0_radial_504_11780)"/>
<rect x="3" y="3" width="18" height="18" rx="6" fill="url(#paint1_radial_504_11780)"/>
<rect x="3" y="3" width="18" height="18" rx="6" fill="url(#paint2_radial_504_11780)"/>
<path d="M16.2 8.7C16.2 9.19706 15.7971 9.6 15.3 9.6C14.8029 9.6 14.4 9.19706 14.4 8.7C14.4 8.20294 14.8029 7.8 15.3 7.8C15.7971 7.8 16.2 8.20294 16.2 8.7Z" fill="white"/>
<path fill-rule="evenodd" clip-rule="evenodd" d="M12 15C13.6569 15 15 13.6569 15 12C15 10.3431 13.6569 9 12 9C10.3431 9 9 10.3431 9 12C9 13.6569 10.3431 15 12 15ZM12 13.8C12.9941 13.8 13.8 12.9941 13.8 12C13.8 11.0059 12.9941 10.2 12 10.2C11.0059 10.2 10.2 11.0059 10.2 12C10.2 12.9941 11.0059 13.8 12 13.8Z" fill="white"/>
<path fill-rule="evenodd" clip-rule="evenodd" d="M6 11.76C6 9.74381 6 8.73572 6.39238 7.96563C6.73752 7.28825 7.28825 6.73752 7.96563 6.39238C8.73572 6 9.74381 6 11.76 6H12.24C14.2562 6 15.2643 6 16.0344 6.39238C16.7117 6.73752 17.2625 7.28825 17.6076 7.96563C18 8.73572 18 9.74381 18 11.76V12.24C18 14.2562 18 15.2643 17.6076 16.0344C17.2625 16.7117 16.7117 17.2625 16.0344 17.6076C15.2643 18 14.2562 18 12.24 18H11.76C9.74381 18 8.73572 18 7.96563 17.6076C7.28825 17.2625 6.73752 16.7117 6.39238 16.0344C6 15.2643 6 14.2562 6 12.24V11.76ZM11.76 7.2H12.24C13.2679 7.2 13.9666 7.20093 14.5068 7.24506C15.0329 7.28805 15.3019 7.36596 15.4896 7.46158C15.9412 7.69168 16.3083 8.05883 16.5384 8.51042C16.634 8.6981 16.712 8.96715 16.7549 9.49325C16.7991 10.0334 16.8 10.7321 16.8 11.76V12.24C16.8 13.2679 16.7991 13.9666 16.7549 14.5068C16.712 15.0329 16.634 15.3019 16.5384 15.4896C16.3083 15.9412 15.9412 16.3083 15.4896 16.5384C15.3019 16.634 15.0329 16.712 14.5068 16.7549C13.9666 16.7991 13.2679 16.8 12.24 16.8H11.76C10.7321 16.8 10.0334 16.7991 9.49325 16.7549C8.96715 16.712 8.6981 16.634 8.51042 16.5384C8.05883 16.3083 7.69168 15.9412 7.46158 15.4896C7.36596 15.3019 7.28805 15.0329 7.24506 14.5068C7.20093 13.9666 7.2 13.2679 7.2 12.24V11.76C7.2 10.7321 7.20093 10.0334 7.24506 9.49325C7.28805 8.96715 7.36596 8.6981 7.46158 8.51042C7.69168 8.05883 8.05883 7.69168 8.51042 7.46158C8.6981 7.36596 8.96715 7.28805 9.49325 7.24506C10.0334 7.20093 10.7321 7.2 11.76 7.2Z" fill="white"/>
<defs>
<radialGradient id="paint0_radial_504_11780" cx="0" cy="0" r="1" gradientUnits="userSpaceOnUse" gradientTransform="translate(9.42857 16.5) rotate(-55.3758) scale(16.4055)">
<stop stop-color="#B13589"/>
<stop offset="0.79309" stop-color="#C62F94"/>
<stop offset="1" stop-color="#8A3AC8"/>
</radialGradient>
<radialGradient id="paint1_radial_504_11780" cx="0" cy="0" r="1" gradientUnits="userSpaceOnUse" gradientTransform="translate(2.03572 3.64286) rotate(-8.1301) scale(25.0013 5.34751)">
<stop offset="0.156701" stop-color="#406ADC"/>
<stop offset="0.467799" stop-color="#6A45BE"/>
<stop offset="1" stop-color="#6A45BE" stop-opacity="0"/>
</radialGradient>
<radialGradient id="paint2_radial_504_11780" cx="0" cy="0" r="1" gradientUnits="userSpaceOnUse" gradientTransform="translate(8.78571 21.6429) rotate(-65.1363) scale(14.5249)">
<stop stop-color="#E0E8B7"/>
<stop offset="0.444662" stop-color="#FB8A2E"/>
<stop offset="0.71474" stop-color="#E2425C"/>
<stop offset="1" stop-color="#E2425C" stop-opacity="0"/>
</radialGradient>
</defs>
</svg>
