<svg width="24" height="24" viewBox="0 0 24 24" fill="none" xmlns="http://www.w3.org/2000/svg">
<path d="M19.7097 10.3671C20.1181 9.1414 19.9774 7.79871 19.3244 6.68384C18.3423 4.97383 16.3679 4.09408 14.4396 4.50808C13.5818 3.54171 12.3494 2.99215 11.0573 3.00002C9.08632 2.99552 7.33751 4.26452 6.73113 6.1399C5.46495 6.39921 4.37201 7.19177 3.73245 8.31508C2.74301 10.0206 2.96857 12.1705 4.29045 13.633C3.88207 14.8586 4.0227 16.2013 4.67576 17.3162C5.65788 19.0262 7.63226 19.906 9.56051 19.492C10.4178 20.4583 11.6508 21.0079 12.9428 20.9995C14.9149 21.0045 16.6643 19.7344 17.2707 17.8573C18.5369 17.598 19.6298 16.8055 20.2694 15.6821C21.2577 13.9766 21.0316 11.8285 19.7103 10.366L19.7097 10.3671ZM12.9439 19.8233C12.1548 19.8244 11.3903 19.5482 10.7845 19.0425C10.8121 19.0279 10.8599 19.0015 10.8908 18.9823L14.4751 16.9123C14.6584 16.8083 14.7709 16.6131 14.7698 16.4021V11.3492L16.2846 12.2239C16.3009 12.2318 16.3116 12.2475 16.3139 12.2655V16.45C16.3116 18.3107 14.8047 19.8193 12.9439 19.8233ZM5.6967 16.7278C5.30126 16.045 5.15895 15.2445 5.29451 14.4677C5.32095 14.4835 5.36763 14.5121 5.40082 14.5313L8.98507 16.6013C9.16676 16.7076 9.39176 16.7076 9.57401 16.6013L13.9497 14.0745V15.8239C13.9508 15.8419 13.9424 15.8593 13.9283 15.8706L10.3053 17.9625C8.69145 18.8918 6.63045 18.3394 5.69726 16.7278H5.6967ZM4.75338 8.90402C5.14713 8.22002 5.7687 7.6969 6.50895 7.42521C6.50895 7.45615 6.50726 7.51071 6.50726 7.54896V11.6895C6.50613 11.8999 6.61863 12.0951 6.80145 12.1991L11.1771 14.7253L9.66232 15.6C9.64713 15.6101 9.62801 15.6118 9.61113 15.6045L5.98751 13.5109C4.37707 12.5783 3.8247 10.5178 4.75282 8.90458L4.75338 8.90402ZM17.1993 11.8003L12.8236 9.27358L14.3384 8.39946C14.3536 8.38933 14.3727 8.38765 14.3896 8.39496L18.0132 10.4869C19.6264 11.419 20.1794 13.4828 19.2473 15.096C18.853 15.7789 18.232 16.302 17.4923 16.5743V12.31C17.494 12.0996 17.3821 11.905 17.1998 11.8003H17.1993ZM18.7068 9.53121C18.6803 9.5149 18.6336 9.48677 18.6004 9.46765L15.0162 7.39765C14.8345 7.29134 14.6095 7.29134 14.4273 7.39765L10.0516 9.9244V8.17502C10.0504 8.15702 10.0589 8.13959 10.0729 8.12833L13.696 6.03808C15.3098 5.10715 17.3731 5.66121 18.3034 7.27559C18.6966 7.95733 18.8389 8.75552 18.7056 9.53121H18.7068ZM9.22807 12.6491L7.7127 11.7745C7.69638 11.7666 7.6857 11.7508 7.68345 11.7328V7.5484C7.68457 5.6854 9.19601 4.17565 11.059 4.17677C11.8471 4.17677 12.6098 4.45352 13.2156 4.95752C13.1881 4.97215 13.1408 4.99858 13.1093 5.01771L9.52507 7.08771C9.3417 7.19177 9.2292 7.3864 9.23032 7.59734L9.22807 12.648V12.6491ZM10.051 10.875L12.0001 9.74946L13.9491 10.8745V13.125L12.0001 14.25L10.051 13.125V10.875Z" fill="black"/>
</svg>
