<svg width="24" height="24" viewBox="0 0 24 24" fill="none" xmlns="http://www.w3.org/2000/svg">
<path d="M12.2051 2.58969C7.1213 2.58969 3 6.71099 3 11.7948C3 16.7315 6.88651 20.7606 11.7667 20.9892C11.9124 20.9961 12.0582 21 12.2053 21C14.562 21 16.7114 20.1138 18.34 18.6574C17.2609 19.373 15.9994 19.7848 14.6512 19.7848C12.4591 19.7848 10.4958 18.6973 9.17542 16.9823C8.15755 15.7808 7.49829 14.0047 7.45338 12.0115V11.578C7.49826 9.58484 8.15752 7.8084 9.17516 6.60718C10.4958 4.89225 12.459 3.80476 14.651 3.80476C15.9995 3.80476 17.2612 4.2165 18.3404 4.93255C16.7198 3.48281 14.5834 2.59844 12.2398 2.58974C12.2281 2.58974 12.2166 2.58928 12.2049 2.58928L12.2051 2.58969Z" fill="url(#paint0_linear_4475_59675)"/>
<path d="M9.17529 6.6077C10.02 5.61045 11.111 5.00909 12.3029 5.00909C14.9828 5.00909 17.1549 8.04738 17.1549 11.7952C17.1549 15.5431 14.9826 18.5814 12.3029 18.5814C11.111 18.5814 10.02 17.9803 9.17552 16.983C10.4959 18.6979 12.459 19.7854 14.6513 19.7854C15.9996 19.7854 17.2611 19.3737 18.3401 18.6581C20.2242 16.9725 21.4106 14.5225 21.4106 11.7953C21.4106 9.06843 20.2244 6.61858 18.3407 4.93317C17.2615 4.21711 15.9997 3.80537 14.6513 3.80537C12.4592 3.80537 10.496 4.89287 9.17555 6.6078" fill="url(#paint1_linear_4475_59675)"/>
<defs>
<linearGradient id="paint0_linear_4475_59675" x1="10.6704" y1="2.88975" x2="10.6704" y2="20.7324" gradientUnits="userSpaceOnUse">
<stop stop-color="#FF1B2D"/>
<stop offset="0.3" stop-color="#FF1B2D"/>
<stop offset="0.614" stop-color="#FF1B2D"/>
<stop offset="1" stop-color="#A70014"/>
</linearGradient>
<linearGradient id="paint1_linear_4475_59675" x1="15.2928" y1="3.94157" x2="15.2928" y2="19.7224" gradientUnits="userSpaceOnUse">
<stop stop-color="#9C0000"/>
<stop offset="0.7" stop-color="#FF4B4B"/>
<stop offset="1" stop-color="#FF4B4B"/>
</linearGradient>
</defs>
</svg>
