<svg width="24" height="24" viewBox="0 0 24 24" fill="none" xmlns="http://www.w3.org/2000/svg">
<path d="M21 12C21 14.2367 20.1692 16.3937 18.6688 18.0525C17.1683 19.7113 15.1053 20.7536 12.8798 20.9773V3.01959C15.1058 3.24335 17.1693 4.28615 18.6698 5.94558C20.1703 7.60502 21.0007 9.76274 21 12ZM3 12.9054V20.9804H11.0765C10.8677 18.9096 9.94966 16.9746 8.47783 15.503C7.006 14.0315 5.07083 13.1138 3 12.9054ZM3 11.0945H11.0765V3.02261C9.00609 3.23088 7.07128 4.14811 5.59951 5.61905C4.12774 7.09 3.20943 9.02429 3 11.0945Z" fill="#451735"/>
</svg>
