<svg width="24" height="24" viewBox="0 0 24 24" fill="none" xmlns="http://www.w3.org/2000/svg">
<circle cx="12" cy="12" r="9" fill="white"/>
<path d="M12 21C16.9706 21 21 16.9706 21 12C21 7.02944 16.9706 3 12 3C7.02944 3 3 7.02944 3 12C3 15.6515 5.17459 18.7951 8.29938 20.2064C8.30358 20.109 8.30829 20.0198 8.31234 19.9432C8.31785 19.8388 8.32212 19.7581 8.32212 19.7127C8.32212 19.4423 8.50601 18.101 8.50601 18.101L9.63101 13.482C9.45793 13.2007 9.32813 12.6058 9.32813 12.1514C9.32813 10.0529 10.4964 9.59855 11.2103 9.59855C12.119 9.59855 12.3245 10.5829 12.3245 11.3077C12.3245 11.691 12.1257 12.2911 11.921 12.9086C11.7041 13.5631 11.4808 14.2371 11.4808 14.6935C11.4808 15.5805 12.357 16.024 12.9627 16.024C14.5637 16.024 16.0349 14.012 16.0349 12C16.0349 9.98797 15.0938 7.55408 12.0108 7.55408C8.92789 7.55408 7.54327 9.90144 7.54327 11.6971C7.54327 12.9086 7.9976 13.7957 8.22476 13.9471C8.28967 14.0048 8.4 14.1829 8.32212 14.4339C8.24423 14.6848 8.10217 15.2452 8.04087 15.494C8.03366 15.5517 7.96515 15.6498 7.7488 15.5805C7.47837 15.494 5.75842 14.4123 5.75842 11.6971C5.75842 8.98196 7.88942 5.82331 12.0108 5.82331C16.1322 5.82331 18.2416 8.59254 18.2416 12C18.2416 15.4074 15.4832 17.5817 13.3846 17.5817C11.7058 17.5817 11.0481 16.8317 10.9291 16.4567L10.2909 18.8906C10.1402 19.2944 9.85904 20.0201 9.51238 20.6518C10.3024 20.8785 11.137 21 12 21Z" fill="#BB0F23"/>
</svg>
