<svg width="24" height="24" viewBox="0 0 24 24" fill="none" xmlns="http://www.w3.org/2000/svg">
<path fill-rule="evenodd" clip-rule="evenodd" d="M16.9453 14.8806L6.66846 21L19.9751 20.0945L21 6.63953L16.9453 14.8806Z" fill="url(#paint0_linear_504_11953)"/>
<path fill-rule="evenodd" clip-rule="evenodd" d="M19.9968 20.0853L18.8531 12.1694L15.7378 16.2946L19.9968 20.0853Z" fill="url(#paint1_linear_504_11953)"/>
<path fill-rule="evenodd" clip-rule="evenodd" d="M20.0125 20.0854L11.6335 19.4258L6.71313 20.9828L20.0125 20.0854Z" fill="url(#paint2_linear_504_11953)"/>
<path fill-rule="evenodd" clip-rule="evenodd" d="M6.72481 20.9846L8.81798 14.1082L4.21191 15.0958L6.72481 20.9846Z" fill="url(#paint3_linear_504_11953)"/>
<path fill-rule="evenodd" clip-rule="evenodd" d="M20.5629 8.85878L15.3527 4.59155L13.9019 9.29516L20.5629 8.85878Z" fill="url(#paint4_linear_504_11953)"/>
<path fill-rule="evenodd" clip-rule="evenodd" d="M18.1265 3.07014L15.0622 4.76829L13.1289 3.04736L18.1265 3.07014Z" fill="url(#paint5_linear_504_11953)"/>
<path fill-rule="evenodd" clip-rule="evenodd" d="M3 17.4024L4.2837 15.0547L3.24529 12.2578L3 17.4024Z" fill="url(#paint6_linear_504_11953)"/>
<path fill-rule="evenodd" clip-rule="evenodd" d="M3.17627 12.1694L4.22104 15.1412L8.76078 14.1199L13.9437 9.28961L15.4064 4.63073L13.1033 3L9.18769 4.46948C7.95404 5.6201 5.56016 7.89675 5.47385 7.93957C5.38845 7.9833 3.89307 10.8175 3.17627 12.1694Z" fill="white"/>
<path d="M8.79175 14.091L13.9438 9.28957L13.9461 9.28223L15.7372 16.3173L8.79175 14.091Z" fill="url(#paint7_linear_504_11953)"/>
<path fill-rule="evenodd" clip-rule="evenodd" d="M6.84488 6.83093C9.51858 4.17256 12.9654 2.60196 14.2882 3.94025C15.6101 5.27854 14.2082 8.5309 11.5345 11.1884C8.86083 13.8458 5.45671 15.503 4.13485 14.1647C2.81208 12.8273 4.17119 9.48838 6.84488 6.83093Z" fill="url(#paint8_linear_504_11953)"/>
<path fill-rule="evenodd" clip-rule="evenodd" d="M6.72485 20.9818L8.80167 14.0835L15.699 16.3055C13.2051 18.6505 10.4315 20.6328 6.72485 20.9818Z" fill="url(#paint9_linear_504_11953)"/>
<path fill-rule="evenodd" clip-rule="evenodd" d="M13.9529 9.27606L15.7235 16.3092C17.8067 14.1127 19.6764 11.7513 20.5921 8.83057L13.9529 9.27606Z" fill="url(#paint10_linear_504_11953)"/>
<path fill-rule="evenodd" clip-rule="evenodd" d="M20.574 8.86614C21.2826 6.72159 21.4462 3.64506 18.1046 3.07385L15.3628 4.59253L20.574 8.86614Z" fill="url(#paint11_linear_504_11953)"/>
<path fill-rule="evenodd" clip-rule="evenodd" d="M3 17.3713C3.09812 20.9108 5.64463 20.9635 6.72937 20.9946L4.22374 15.1266L3 17.3713Z" fill="#9E1209"/>
<path fill-rule="evenodd" clip-rule="evenodd" d="M13.9626 9.28695C15.5634 10.2736 18.7896 12.2551 18.855 12.2915C18.9566 12.3489 20.2459 10.1114 20.5384 8.84692L13.9626 9.28695Z" fill="url(#paint12_radial_504_11953)"/>
<path fill-rule="evenodd" clip-rule="evenodd" d="M8.79883 14.0835L11.5752 19.4549C13.2168 18.5621 14.5024 17.4743 15.6798 16.3091L8.79883 14.0835Z" fill="url(#paint13_radial_504_11953)"/>
<path fill-rule="evenodd" clip-rule="evenodd" d="M4.21271 15.134L3.81934 19.8312C4.56158 20.8479 5.58272 20.9363 6.65384 20.857C5.87889 18.9229 4.33082 15.0556 4.21271 15.134Z" fill="url(#paint14_linear_504_11953)"/>
<path fill-rule="evenodd" clip-rule="evenodd" d="M15.3464 4.60423L20.8619 5.38042C20.5676 4.12959 19.6636 3.32242 18.1228 3.07007L15.3464 4.60423Z" fill="url(#paint15_linear_504_11953)"/>
<defs>
<linearGradient id="paint0_linear_504_11953" x1="18.8145" y1="22.637" x2="15.0012" y2="15.9231" gradientUnits="userSpaceOnUse">
<stop stop-color="#FB7655"/>
<stop offset="0.41" stop-color="#E42B1E"/>
<stop offset="0.99" stop-color="#990000"/>
<stop offset="1" stop-color="#990000"/>
</linearGradient>
<linearGradient id="paint1_linear_504_11953" x1="20.706" y1="16.9894" x2="15.8037" y2="13.7089" gradientUnits="userSpaceOnUse">
<stop stop-color="#871101"/>
<stop offset="0.99" stop-color="#911209"/>
<stop offset="1" stop-color="#911209"/>
</linearGradient>
<linearGradient id="paint2_linear_504_11953" x1="16.7906" y1="22.8408" x2="11.8885" y2="19.5603" gradientUnits="userSpaceOnUse">
<stop stop-color="#871101"/>
<stop offset="0.99" stop-color="#911209"/>
<stop offset="1" stop-color="#911209"/>
</linearGradient>
<linearGradient id="paint3_linear_504_11953" x1="6.51552" y1="14.6056" x2="7.2783" y2="19.5492" gradientUnits="userSpaceOnUse">
<stop stop-color="white"/>
<stop offset="0.23" stop-color="#E57252"/>
<stop offset="0.46" stop-color="#DE3B20"/>
<stop offset="0.99" stop-color="#A60003"/>
<stop offset="1" stop-color="#A60003"/>
</linearGradient>
<linearGradient id="paint4_linear_504_11953" x1="16.3641" y1="5.32502" x2="17.2054" y2="8.94031" gradientUnits="userSpaceOnUse">
<stop stop-color="white"/>
<stop offset="0.18" stop-color="#E46342"/>
<stop offset="0.4" stop-color="#C82410"/>
<stop offset="0.99" stop-color="#A80D00"/>
<stop offset="1" stop-color="#A80D00"/>
</linearGradient>
<linearGradient id="paint5_linear_504_11953" x1="13.809" y1="4.05145" x2="17.4191" y2="2.25143" gradientUnits="userSpaceOnUse">
<stop stop-color="white"/>
<stop offset="0.54" stop-color="#C81F11"/>
<stop offset="0.99" stop-color="#BF0905"/>
<stop offset="1" stop-color="#BF0905"/>
</linearGradient>
<linearGradient id="paint6_linear_504_11953" x1="3.35461" y1="13.3451" x2="3.65305" y2="16.3247" gradientUnits="userSpaceOnUse">
<stop stop-color="white"/>
<stop offset="0.31" stop-color="#DE4024"/>
<stop offset="0.99" stop-color="#BF190B"/>
<stop offset="1" stop-color="#BF190B"/>
</linearGradient>
<linearGradient id="paint7_linear_504_11953" x1="11.7337" y1="9.98892" x2="12.0148" y2="15.0347" gradientUnits="userSpaceOnUse">
<stop stop-color="white"/>
<stop offset="0.23" stop-color="#E4714E"/>
<stop offset="0.56" stop-color="#BE1A0D"/>
<stop offset="0.99" stop-color="#A80D00"/>
<stop offset="1" stop-color="#A80D00"/>
</linearGradient>
<linearGradient id="paint8_linear_504_11953" x1="1.31436" y1="17.1305" x2="15.3061" y2="2.78302" gradientUnits="userSpaceOnUse">
<stop stop-color="#BD0012"/>
<stop offset="0.07" stop-color="white"/>
<stop offset="0.17" stop-color="white"/>
<stop offset="0.27" stop-color="#C82F1C"/>
<stop offset="0.33" stop-color="#820C01"/>
<stop offset="0.46" stop-color="#A31601"/>
<stop offset="0.72" stop-color="#B31301"/>
<stop offset="0.99" stop-color="#E82609"/>
<stop offset="1" stop-color="#E82609"/>
</linearGradient>
<linearGradient id="paint9_linear_504_11953" x1="12.0009" y1="18.5815" x2="7.79715" y2="17.5469" gradientUnits="userSpaceOnUse">
<stop stop-color="#8C0C01"/>
<stop offset="0.54" stop-color="#990C00"/>
<stop offset="0.99" stop-color="#A80D0E"/>
<stop offset="1" stop-color="#A80D0E"/>
</linearGradient>
<linearGradient id="paint10_linear_504_11953" x1="19.2191" y1="13.5237" x2="15.4765" y2="10.1787" gradientUnits="userSpaceOnUse">
<stop stop-color="#7E110B"/>
<stop offset="0.99" stop-color="#9E0C00"/>
<stop offset="1" stop-color="#9E0C00"/>
</linearGradient>
<linearGradient id="paint11_linear_504_11953" x1="20.5907" y1="7.36723" x2="18.7255" y2="5.3788" gradientUnits="userSpaceOnUse">
<stop stop-color="#79130D"/>
<stop offset="0.99" stop-color="#9E120B"/>
<stop offset="1" stop-color="#9E120B"/>
</linearGradient>
<radialGradient id="paint12_radial_504_11953" cx="0" cy="0" r="1" gradientUnits="userSpaceOnUse" gradientTransform="translate(16.0669 10.2324) scale(4.57496 4.58769)">
<stop stop-color="#A80D00"/>
<stop offset="0.99" stop-color="#7E0E08"/>
<stop offset="1" stop-color="#7E0E08"/>
</radialGradient>
<radialGradient id="paint13_radial_504_11953" cx="0" cy="0" r="1" gradientUnits="userSpaceOnUse" gradientTransform="translate(9.73115 16.2782) scale(6.0818 6.09873)">
<stop stop-color="#A30C00"/>
<stop offset="0.99" stop-color="#800E08"/>
<stop offset="1" stop-color="#800E08"/>
</radialGradient>
<linearGradient id="paint14_linear_504_11953" x1="5.42282" y1="20.9778" x2="3.89957" y2="15.8243" gradientUnits="userSpaceOnUse">
<stop stop-color="#8B2114"/>
<stop offset="0.43" stop-color="#9E100A"/>
<stop offset="0.99" stop-color="#B3100C"/>
<stop offset="1" stop-color="#B3100C"/>
</linearGradient>
<linearGradient id="paint15_linear_504_11953" x1="17.0491" y1="3.89253" x2="20.4497" y2="5.38946" gradientUnits="userSpaceOnUse">
<stop stop-color="#B31000"/>
<stop offset="0.44" stop-color="#910F08"/>
<stop offset="0.99" stop-color="#791C12"/>
<stop offset="1" stop-color="#791C12"/>
</linearGradient>
</defs>
</svg>
