<svg width="24" height="24" viewBox="0 0 24 24" fill="none" xmlns="http://www.w3.org/2000/svg">
<path fill-rule="evenodd" clip-rule="evenodd" d="M12.8537 7.41375C11.7894 7.41375 11.1307 7.72093 11.1307 8.51495V8.51611C11.1307 9.38594 12.2518 9.76808 13.6414 10.2418C15.9063 11.0138 18.8846 12.029 18.8846 15.7956C18.8846 19.4574 15.9784 21.5468 11.7623 21.5468C9.85304 21.5377 7.96563 21.139 6.21494 20.3749V15.5192C7.91536 16.4465 10.0832 17.1432 11.7617 17.1432C12.8999 17.1432 13.7088 16.8487 13.7088 15.8994C13.7088 14.9374 12.4979 14.5003 11.036 13.9726C8.80922 13.1688 6 12.1549 6 8.75548C6 5.15629 8.75142 3.00083 12.8537 3.00083C14.5806 2.98154 16.295 3.29741 17.9024 3.93106V8.72418C16.3436 7.90056 14.6151 7.45193 12.8537 7.41375Z" fill="#6772E5"/>
</svg>
