<svg width="24" height="24" viewBox="0 0 24 24" fill="none" xmlns="http://www.w3.org/2000/svg">
<path d="M8.27767 20C5.96696 20 3.81298 19.3455 2 18.2161C3.53928 18.3131 6.25576 18.0808 7.94541 16.5112C5.40363 16.3976 4.25733 14.499 4.10781 13.6876C4.32378 13.7688 5.35379 13.8661 5.93524 13.6389C3.01136 12.9249 2.56281 10.426 2.66248 9.66329C3.21071 10.0365 4.14104 10.1663 4.50652 10.1339C1.78199 8.23529 2.76216 5.37931 3.24394 4.76268C5.19916 7.40081 8.12943 8.88248 11.7546 8.9649C11.6862 8.67294 11.6501 8.36899 11.6501 8.0568C11.6501 5.81629 13.5096 4 15.8034 4C17.0018 4 18.0817 4.49583 18.8398 5.28893C19.6406 5.10616 20.8459 4.67831 21.4352 4.30832C21.1382 5.34686 20.2135 6.21321 19.6542 6.53431C19.6589 6.54524 19.6497 6.52334 19.6542 6.53431C20.1455 6.46194 21.4748 6.21313 22 5.86613C21.7403 6.44957 20.76 7.41964 19.9555 7.96273C20.1052 14.3917 15.0546 20 8.27767 20Z" fill="#47ACDF"/>
</svg>
