<svg width="24" height="24" viewBox="0 0 24 24" fill="none" xmlns="http://www.w3.org/2000/svg">
<rect x="3" y="3" width="18" height="18" rx="6" fill="#2789F6"/>
<path d="M16.154 13.8894C16.0247 13.6945 15.9958 13.4973 16.0664 13.2974C16.2427 12.7642 18.8096 9.37742 17.7403 9.37742C17.0055 9.38827 16.1217 9.37742 15.4173 9.37742C15.2865 9.41279 15.2019 9.48905 15.1489 9.64421C14.737 10.6996 14.2329 11.9876 13.494 12.8154C13.3968 12.9025 13.3362 12.8988 13.2255 12.8666C12.7073 12.2604 13.2599 10.1834 12.9447 9.3627C12.8826 9.20206 12.7466 9.1295 12.6075 9.08864C11.9039 8.90233 10.297 9.01323 10.0348 9.38827C9.95987 9.49548 9.94942 9.55399 10.0035 9.56361C10.2533 9.6074 10.4302 9.71216 10.5343 9.87778C10.7306 10.3582 10.8753 12.9176 10.297 12.9176C9.71869 12.9176 8.78612 10.4059 8.52992 9.70957C8.46175 9.49992 8.28819 9.37973 8.10532 9.34425L6.39438 9.35878C6.09363 9.35878 5.92555 9.52362 6.03215 9.85571C6.92328 12.3135 8.87339 17.0776 11.8644 16.9583C12.164 16.9583 12.6794 17.0861 12.9134 16.7975C13.235 16.3235 12.8428 15.4792 13.3942 15.1573C13.5333 15.075 13.6775 15.144 13.7969 15.245C14.4103 15.764 14.736 16.6748 15.4924 16.9513C15.6253 17 15.7419 17.0122 15.8419 16.9878L17.4404 16.9587C17.7372 16.9587 18.0295 16.8119 17.9681 16.4177C17.7351 15.5723 16.8065 14.7033 16.154 13.8894Z" fill="white"/>
</svg>
