<svg width="24" height="24" viewBox="0 0 24 24" fill="none" xmlns="http://www.w3.org/2000/svg">
<path d="M2.17465 7.75878C2.26645 6.37363 3.40282 5.2881 4.81748 5.21941C6.86599 5.11995 9.79391 5 12 5C14.2061 5 17.134 5.11995 19.1825 5.21941C20.5972 5.2881 21.7335 6.37363 21.8254 7.75878C21.9133 9.08585 22 10.7188 22 12C22 13.2812 21.9133 14.9142 21.8254 16.2412C21.7335 17.6264 20.5972 18.7119 19.1825 18.7806C17.134 18.88 14.2061 19 12 19C9.79391 19 6.86599 18.88 4.81748 18.7806C3.40282 18.7119 2.26645 17.6264 2.17465 16.2412C2.08669 14.9142 2 13.2812 2 12C2 10.7188 2.08669 9.08585 2.17465 7.75878Z" fill="#FC0D1B"/>
<path d="M10 9V15L16 12L10 9Z" fill="white"/>
</svg>
