<svg width="24" height="24" viewBox="0 0 24 24" fill="none" xmlns="http://www.w3.org/2000/svg">
<path d="M11.9999 2.9939C7.08155 2.9939 3.07187 6.95966 3.00095 11.8614C2.92895 16.8399 6.96779 20.9647 11.9466 20.9935C13.4841 21.0025 14.9652 20.6263 16.2803 19.9117C16.4084 19.8423 16.4282 19.6659 16.3191 19.569L15.4771 18.8224C15.3061 18.6705 15.0624 18.6276 14.8518 18.7173C13.9338 19.1079 12.9362 19.3073 11.9084 19.2947C7.88543 19.2454 4.63499 15.8981 4.69907 11.8751C4.76243 7.90322 8.01323 4.6913 11.9999 4.6913H19.3017V17.6704L15.1589 13.9894C15.0249 13.8702 14.8194 13.8936 14.7114 14.0365C14.0465 14.9171 12.9632 15.4647 11.7601 15.3815C10.0911 15.2663 8.73899 13.9228 8.61371 12.2545C8.46431 10.2645 10.0411 8.59766 12.0002 8.59766C13.7718 8.59766 15.2309 9.96134 15.3831 11.694C15.3968 11.8481 15.4663 11.9921 15.5822 12.0947L16.6611 13.0512C16.7835 13.1596 16.9779 13.0933 17.0078 12.9324C17.0856 12.5166 17.1129 12.0828 17.0823 11.6382C16.9085 9.10418 14.8561 7.06586 12.321 6.90962C9.41471 6.73034 6.98471 9.0041 6.90767 11.8542C6.83243 14.6316 9.10799 17.026 11.8857 17.0872C13.0453 17.1127 14.1203 16.7481 14.9889 16.1163L20.4019 20.9147C20.6341 21.1203 21.0002 20.9557 21.0002 20.6454V3.33554C20.9999 3.1469 20.8469 2.9939 20.6582 2.9939H11.9999Z" fill="#373B4D"/>
</svg>
