<svg width="24" height="24" viewBox="0 0 24 24" fill="none" xmlns="http://www.w3.org/2000/svg">
<circle cx="12" cy="12" r="9" fill="#373B4D"/>
<path d="M13.6364 6H12.3636V7.29412H13.6364V6Z" fill="white"/>
<path d="M8.54545 7.94117H9.81818V9.23529H8.54545V7.94117Z" fill="white"/>
<path d="M6.00098 12.4327C6.10973 14.31 7.20926 17 11.0909 17C15.4182 17 17.3485 13.7647 17.7727 12.1471C18.303 12.1471 19.4909 11.8235 20 10.5294C19.6818 10.2059 18.4091 10.2059 17.7727 10.5294C17.7727 10.0118 17.4545 8.91176 16.8182 8.58823C16.3939 9.0196 15.7364 10.1412 16.5 11.1765C16.1818 11.8235 15.3334 11.8235 14.9091 11.8235H6.60003C6.26309 11.8235 5.98117 12.0907 6.00098 12.4327Z" fill="white"/>
<path d="M7.90909 9.88235H6.63636V11.1765H7.90909V9.88235Z" fill="white"/>
<path d="M8.54545 9.88235H9.81818V11.1765H8.54545V9.88235Z" fill="white"/>
<path d="M11.7273 9.88235H10.4545V11.1765H11.7273V9.88235Z" fill="white"/>
<path d="M12.3636 9.88235H13.6364V11.1765H12.3636V9.88235Z" fill="white"/>
<path d="M15.5455 9.88235H14.2727V11.1765H15.5455V9.88235Z" fill="white"/>
<path d="M11.7273 7.94117H10.4545V9.23529H11.7273V7.94117Z" fill="white"/>
<path d="M12.3636 7.94117H13.6364V9.23529H12.3636V7.94117Z" fill="white"/>
</svg>
