<svg width="24" height="24" viewBox="0 0 24 24" fill="none" xmlns="http://www.w3.org/2000/svg">
<path d="M2.6302 10.083C2.58813 10.083 2.57762 10.063 2.59865 10.033L2.81952 9.76321C2.84056 9.73323 2.89314 9.71324 2.93521 9.71324H6.69C6.73207 9.71324 6.74259 9.74322 6.72155 9.7732L6.54276 10.033C6.52172 10.063 6.46913 10.093 6.43758 10.093L2.6302 10.083Z" fill="#414146"/>
<path d="M1.04207 11.0023C1 11.0023 0.989482 10.9823 1.01052 10.9524L1.23139 10.6825C1.25242 10.6526 1.30501 10.6326 1.34708 10.6326H6.14311C6.18518 10.6326 6.20622 10.6626 6.1957 10.6925L6.11156 10.9324C6.10104 10.9723 6.05897 10.9923 6.0169 10.9923L1.04207 11.0023Z" fill="#414146"/>
<path d="M3.58732 11.9217C3.54525 11.9217 3.53473 11.8917 3.55577 11.8617L3.70301 11.6119C3.72405 11.5819 3.76612 11.5519 3.80819 11.5519H5.91171C5.95378 11.5519 5.97482 11.5819 5.97482 11.6219L5.95378 11.8617C5.95378 11.9017 5.91171 11.9317 5.88016 11.9317L3.58732 11.9217Z" fill="#414146"/>
<path d="M14.5046 9.90307C13.842 10.063 13.3897 10.1829 12.7377 10.3428C12.5799 10.3827 12.5694 10.3927 12.4326 10.2428C12.2749 10.073 12.1592 9.96303 11.9383 9.8631C11.2757 9.55331 10.6341 9.64325 10.0346 10.013C9.31943 10.4527 8.95132 11.1022 8.96183 11.9117C8.97235 12.7111 9.55082 13.3707 10.3817 13.4806C11.0969 13.5705 11.6964 13.3307 12.1697 12.8211C12.2644 12.7111 12.3485 12.5912 12.4537 12.4513C12.075 12.4513 11.6018 12.4513 10.4238 12.4513C10.2029 12.4513 10.1503 12.3214 10.2239 12.1515C10.3607 11.8417 10.6131 11.3221 10.7603 11.0623C10.7919 11.0023 10.8655 10.9024 11.0233 10.9024C11.5597 10.9024 13.537 10.9024 14.8517 10.9024C14.8307 11.1722 14.8307 11.442 14.7886 11.7118C14.6729 12.4313 14.3889 13.0909 13.9261 13.6705C13.1689 14.6198 12.1802 15.2094 10.9286 15.3693C9.8979 15.4992 8.9408 15.3094 8.09939 14.7098C7.32108 14.1501 6.87935 13.4107 6.76365 12.4913C6.62692 11.402 6.96349 10.4227 7.65765 9.5633C8.4044 8.63394 9.39305 8.04435 10.6026 7.83449C11.5912 7.66461 12.5378 7.77453 13.3897 8.32415C13.9472 8.67391 14.3468 9.15358 14.6098 9.73319C14.6729 9.82312 14.6308 9.87309 14.5046 9.90307Z" fill="#414146"/>
<path d="M17.9859 15.4293C17.0288 15.4093 16.1559 15.1495 15.4196 14.5499C14.7991 14.0403 14.4099 13.3907 14.2837 12.6213C14.0944 11.492 14.4205 10.4927 15.1357 9.60333C15.9034 8.64399 16.829 8.14433 18.0806 7.93448C19.1534 7.7546 20.1631 7.85453 21.0781 8.44413C21.909 8.98376 22.4244 9.71326 22.5611 10.6726C22.7399 12.0217 22.3297 13.1209 21.3516 14.0603C20.6574 14.7298 19.8055 15.1495 18.8273 15.3394C18.5434 15.3894 18.2594 15.3993 17.9859 15.4293ZM20.4891 11.3921C20.4786 11.2622 20.4786 11.1623 20.4576 11.0623C20.2683 10.073 19.3112 9.51339 18.312 9.73324C17.3338 9.9431 16.7028 10.5327 16.4714 11.472C16.2821 12.2515 16.6818 13.041 17.439 13.3607C18.0175 13.6006 18.596 13.5706 19.1534 13.3008C19.9843 12.8911 20.4365 12.2515 20.4891 11.3921Z" fill="#414146"/>
</svg>
