<svg width="24" height="24" viewBox="0 0 24 24" fill="none" xmlns="http://www.w3.org/2000/svg">
<path d="M7.4209 17.8316L11.116 8.37756C11.6367 7.04531 12.9208 6.16846 14.3512 6.16846H16.5789L12.8839 15.6225C12.3632 16.9548 11.079 17.8316 9.6486 17.8316H7.4209Z" fill="#373B4D"/>
<path d="M2.26294 17.8316L5.958 8.37757C6.47871 7.0453 7.76287 6.16846 9.19328 6.16846H11.421L7.72591 15.6225C7.2052 16.9548 5.92104 17.8316 4.49063 17.8316H2.26294Z" fill="#373B4D"/>
<path d="M12.5789 17.8316L16.2739 8.37757C16.7946 7.0453 18.0787 6.16846 19.5091 6.16846H21.7369L18.0418 15.6225C17.521 16.9548 16.237 17.8316 14.8065 17.8316H12.5789Z" fill="#373B4D"/>
</svg>
