<svg width="24" height="24" viewBox="0 0 24 24" fill="none" xmlns="http://www.w3.org/2000/svg">
<path d="M11.9999 2.99387C7.08155 2.99387 3.07187 6.95963 3.00095 11.8614C2.92895 16.8398 6.96779 20.9647 11.9466 20.9935C13.4841 21.0025 14.9652 20.6263 16.2803 19.9117C16.4084 19.8422 16.4282 19.6658 16.3191 19.569L15.4771 18.8223C15.3061 18.6704 15.0624 18.6276 14.8518 18.7172C13.9338 19.1078 12.9362 19.3073 11.9084 19.2947C7.88543 19.2453 4.63499 15.8981 4.69907 11.8751C4.76243 7.90319 8.01323 4.69127 11.9999 4.69127H19.3017V17.6703L15.1589 13.9893C15.0249 13.8702 14.8194 13.8936 14.7114 14.0365C14.0465 14.9171 12.9632 15.4646 11.7601 15.3815C10.0911 15.2663 8.73899 13.9227 8.61371 12.2545C8.46431 10.2644 10.0411 8.59763 12.0002 8.59763C13.7718 8.59763 15.2309 9.96131 15.3831 11.694C15.3968 11.8481 15.4663 11.9921 15.5822 12.0947L16.6611 13.0512C16.7835 13.1595 16.9779 13.0933 17.0078 12.9324C17.0856 12.5166 17.1129 12.0828 17.0823 11.6382C16.9085 9.10415 14.8561 7.06583 12.321 6.90959C9.41471 6.73031 6.98471 9.00407 6.90767 11.8542C6.83243 14.6316 9.10799 17.0259 11.8857 17.0871C13.0453 17.1127 14.1203 16.748 14.9889 16.1162L20.4019 20.9147C20.6341 21.1202 21.0002 20.9557 21.0002 20.6454V3.33551C20.9999 3.14687 20.8469 2.99387 20.6582 2.99387H11.9999Z" fill="#003DFF"/>
</svg>
