<svg width="24" height="24" viewBox="0 0 24 24" fill="none" xmlns="http://www.w3.org/2000/svg">
<path fill-rule="evenodd" clip-rule="evenodd" d="M12.0007 17.1897C12.8841 17.7024 13.9104 17.9959 15.0053 17.9959C18.3161 17.9959 21 15.312 21 12.0012C21 8.6904 18.3161 6.00653 15.0053 6.00653C13.9106 6.00653 12.8844 6.29998 12.0011 6.81246C11.5328 6.54095 11.0288 6.33356 10.5027 6.19681C9.74038 5.99869 8.94658 5.95272 8.16656 6.06152C7.38649 6.17032 6.63555 6.43177 5.9566 6.83091C5.27765 7.23006 4.684 7.75909 4.20959 8.38776C3.73518 9.01643 3.38929 9.73241 3.19171 10.4948C2.99413 11.2572 2.94871 12.0511 3.05806 12.831C3.16742 13.611 3.42939 14.3618 3.82901 15.0404C4.22864 15.7191 4.75808 16.3124 5.38709 16.7864C6.65618 17.744 8.25375 18.1584 9.8283 17.9382C10.6015 17.83 11.3379 17.5733 12.0007 17.1897ZM10.9991 7.54163L10.9973 7.5432C11.9695 7.97914 12.7732 8.72338 13.2841 9.65146C13.5662 10.166 13.756 10.7319 13.8389 11.3242C14.0184 12.6081 13.6806 13.9107 12.8997 14.9455C12.1189 15.9803 10.9589 16.6625 9.67496 16.8421C8.39111 17.0216 7.08847 16.6838 6.05369 15.9029C5.0189 15.1221 4.33669 13.9621 4.15714 12.6782C3.9776 11.3943 4.31542 10.0917 5.0963 9.05691C5.87718 8.02211 7.03717 7.3399 8.32102 7.16036C9.23908 7.03197 10.1667 7.16812 10.9991 7.54163ZM8.96109 10.7319C9.05981 10.3049 9.15144 9.94486 9.15864 9.92714C9.16556 9.91314 9.28566 9.90262 9.42336 9.90262C9.60679 9.90262 9.66692 9.91314 9.65629 9.94486C9.6456 9.96961 9.59267 10.1812 9.53985 10.4141C9.493 10.6199 9.38023 11.0954 9.27671 11.5319C9.26303 11.5896 9.24951 11.6466 9.23632 11.7022C9.18521 11.9179 9.1283 12.1604 9.07541 12.3857C9.01147 12.6581 8.95341 12.9054 8.91857 13.0502L8.80933 13.5373H8.56571C8.43172 13.5373 8.32226 13.523 8.32226 13.5055C8.32226 13.442 8.42812 12.9621 8.60475 12.2316C8.68573 11.879 8.82204 11.3111 8.92333 10.8892C8.93659 10.834 8.94924 10.7813 8.96109 10.7319ZM6.93885 11.8081L7.26352 11.4552L7.59186 11.1023H7.88475C8.04703 11.1023 8.18113 11.1129 8.18113 11.127C8.18113 11.1446 8.05406 11.2931 7.89887 11.4659C7.74356 11.6353 7.61644 11.794 7.61644 11.8187C7.61644 11.8399 7.75408 12.0093 7.92007 12.1856L8.22349 12.5138H7.58122L7.35538 12.2739C7.23186 12.1433 7.08701 11.9844 7.03425 11.921L6.93885 11.8081ZM9.86779 11.2752C9.79382 11.2011 9.7338 11.1342 9.7338 11.1234C9.7338 11.1129 9.87139 11.1023 10.0443 11.1023H10.3515L10.669 11.4448C10.8455 11.6317 10.9866 11.7976 10.9866 11.8151C10.9866 11.8363 10.8526 11.9988 10.6866 12.1822L10.3867 12.5103L10.0585 12.5138H9.73048L10.0233 12.1927C10.1855 12.0198 10.3197 11.854 10.3267 11.8292C10.3373 11.7835 10.1432 11.5505 9.86779 11.2752Z" fill="#F02E65"/>
</svg>
