<svg width="24" height="24" viewBox="0 0 24 24" fill="none" xmlns="http://www.w3.org/2000/svg">
<g clip-path="url(#clip0_12364_42606)">
<path d="M18.9952 8.7915C18.9592 8.75325 18.921 8.715 18.8827 8.679C18.8445 8.643 18.8085 8.6025 18.7702 8.5665C18.732 8.5305 18.696 8.49 18.6577 8.454C18.6195 8.418 18.5835 8.3775 18.5452 8.3415C18.507 8.3055 18.471 8.265 18.4327 8.229C18.3945 8.193 18.3585 8.1525 18.3202 8.1165C18.282 8.0805 18.246 8.04 18.2077 8.004C19.3238 9.10081 19.9631 10.5929 19.9875 12.1575C19.9875 15.8857 16.203 18.9187 11.55 18.9187C8.94448 18.9187 6.61348 17.967 5.06323 16.4752L5.17573 16.5877L5.28823 16.7002L5.40073 16.8127L5.51323 16.9252L5.62573 17.0377L5.73823 17.1502L5.85073 17.2627C7.39873 18.8175 9.78148 19.8187 12.45 19.8187C17.103 19.8187 20.8875 16.7857 20.8875 13.0687C20.8875 11.4802 20.2035 9.975 18.9952 8.7915Z" fill="white"/>
<path d="M19.425 12.1575C19.425 15.5797 15.8993 18.354 11.55 18.354C7.2008 18.354 3.67505 15.5797 3.67505 12.1575C3.67505 10.0357 5.02505 8.16149 7.09955 7.04999C9.17405 5.93849 10.4655 4.79999 11.55 4.79999C12.6345 4.79999 13.5615 5.72924 16.0005 7.04999C18.075 8.16149 19.425 10.0357 19.425 12.1575Z" fill="#FBF0DF"/>
<path d="M19.4249 12.1575C19.4239 11.7179 19.3633 11.2804 19.2449 10.857C18.6307 18.3495 9.4912 18.7095 5.89795 16.4685C7.51323 17.7205 9.50652 18.3854 11.5499 18.354C15.8924 18.354 19.4249 15.5752 19.4249 12.1575Z" fill="#F6DECE"/>
<path d="M8.5193 6.63824C9.52505 6.03524 10.8615 4.90349 12.1755 4.90124C11.9734 4.8359 11.7625 4.80176 11.55 4.79999C11.0055 4.79999 10.425 5.08124 9.6938 5.50424C9.43955 5.65274 9.1763 5.81699 8.8973 5.98799C8.37305 6.31199 7.7723 6.67874 7.0973 7.04549C4.9553 8.20424 3.67505 10.1145 3.67505 12.1575C3.67505 12.2475 3.67505 12.3375 3.67505 12.4252C5.03855 7.60799 7.5158 7.24124 8.5193 6.63824Z" fill="#FFFEFC"/>
<path fill-rule="evenodd" clip-rule="evenodd" d="M10.9022 5.36924C10.9053 5.90052 10.7938 6.42621 10.5751 6.91043C10.3565 7.39465 10.036 7.82599 9.6354 8.17499C9.5724 8.23124 9.6219 8.33924 9.7029 8.30774C10.4612 8.01299 11.4849 7.13099 11.0529 5.35124C11.0349 5.24999 10.9022 5.27699 10.9022 5.36924ZM11.4129 5.36924C11.6882 5.81844 11.8631 6.32185 11.9256 6.84498C11.9882 7.3681 11.9368 7.89856 11.7752 8.39999C11.7482 8.47874 11.8449 8.54624 11.8989 8.48099C12.3917 7.85099 12.8214 6.59999 11.5344 5.24999C11.4692 5.19149 11.3679 5.28149 11.4129 5.36024V5.36924ZM12.0339 5.33099C12.465 5.63622 12.8257 6.03034 13.0916 6.48679C13.3574 6.94324 13.5223 7.4514 13.5752 7.97699C13.5729 7.99593 13.578 8.01502 13.5894 8.0303C13.6008 8.04558 13.6177 8.05588 13.6365 8.05907C13.6553 8.06225 13.6746 8.05807 13.6904 8.0474C13.7062 8.03673 13.7173 8.02038 13.7214 8.00174C13.9284 7.21649 13.8114 5.87774 12.1082 5.18249C12.0182 5.14649 11.9597 5.26799 12.0339 5.32199V5.33099ZM7.8804 7.67099C8.39324 7.51778 8.86806 7.25828 9.27394 6.90938C9.67983 6.56048 10.0077 6.13001 10.2362 5.64599C10.2767 5.56499 10.4049 5.59649 10.3847 5.68649C9.9954 7.48649 8.69265 7.86224 7.88265 7.81274C7.79715 7.81499 7.7994 7.69574 7.8804 7.67099Z" fill="#CCBEA7"/>
<path d="M11.55 18.9187C6.89705 18.9187 3.11255 15.8857 3.11255 12.1575C3.11255 9.90749 4.50305 7.80824 6.8318 6.55049C7.5068 6.19049 8.08505 5.82824 8.6003 5.51099C8.8838 5.33549 9.15155 5.17124 9.4103 5.01824C10.2 4.55024 10.875 4.23749 11.55 4.23749C12.225 4.23749 12.8145 4.50749 13.5525 4.94399C13.7775 5.07224 14.0025 5.21174 14.2433 5.36474C14.8035 5.71124 15.4358 6.10274 16.2683 6.55049C18.597 7.80824 19.9875 9.90524 19.9875 12.1575C19.9875 15.8857 16.203 18.9187 11.55 18.9187ZM11.55 4.79999C11.0055 4.79999 10.425 5.08124 9.6938 5.50424C9.43955 5.65274 9.1763 5.81699 8.8973 5.98799C8.37305 6.31199 7.7723 6.67874 7.0973 7.04549C4.9553 8.20424 3.67505 10.1145 3.67505 12.1575C3.67505 15.5752 7.20755 18.3562 11.55 18.3562C15.8925 18.3562 19.425 15.5752 19.425 12.1575C19.425 10.1145 18.1448 8.20424 16.0005 7.04999C15.15 6.59999 14.4863 6.17699 13.9485 5.84399C13.7033 5.69324 13.4783 5.55374 13.2735 5.42999C12.5918 5.02499 12.0945 4.79999 11.55 4.79999Z" fill="white"/>
<path d="M13.1362 13.8C13.0351 14.214 12.805 14.5851 12.4792 14.8598C12.2345 15.0969 11.9178 15.2458 11.5792 15.2828C11.2303 15.2516 10.9025 15.1024 10.6499 14.8598C10.3274 14.5838 10.1006 14.2129 10.0019 13.8C9.99864 13.7755 10.001 13.7506 10.0089 13.7271C10.0167 13.7037 10.0299 13.6824 10.0472 13.6648C10.0646 13.6472 10.0858 13.6338 10.1091 13.6257C10.1325 13.6175 10.1574 13.6148 10.1819 13.6178H12.9584C12.9828 13.6152 13.0074 13.6182 13.0305 13.6265C13.0535 13.6348 13.0744 13.6482 13.0915 13.6658C13.1086 13.6833 13.1215 13.7045 13.1293 13.7278C13.137 13.751 13.1394 13.7757 13.1362 13.8Z" fill="#B71422"/>
<path d="M10.65 14.8777C10.9021 15.1205 11.2287 15.2711 11.577 15.3052C11.9245 15.2707 12.2503 15.1201 12.5018 14.8777C12.5822 14.8028 12.6574 14.7223 12.7268 14.637C12.5882 14.4798 12.4189 14.3525 12.2293 14.2631C12.0396 14.1738 11.8338 14.1241 11.6243 14.1172C11.4001 14.1226 11.1806 14.1823 10.9846 14.2912C10.7886 14.4002 10.6221 14.5551 10.4993 14.7427C10.551 14.79 10.596 14.835 10.65 14.8777Z" fill="#FF6164"/>
<path d="M10.6861 14.7C10.7976 14.5558 10.9404 14.4388 11.1037 14.3577C11.267 14.2767 11.4465 14.2337 11.6288 14.232C11.9658 14.2419 12.2868 14.3776 12.5288 14.6123C12.5806 14.556 12.6301 14.4975 12.6773 14.439C12.3911 14.1664 12.0128 14.0114 11.6176 14.0048C11.4064 14.0066 11.1982 14.0551 11.0079 14.1469C10.8177 14.2388 10.6502 14.3715 10.5173 14.5358C10.5705 14.5936 10.6269 14.6484 10.6861 14.7Z" fill="black"/>
<path d="M11.5702 15.4178C11.1952 15.3849 10.8424 15.2263 10.5689 14.9678C10.2206 14.6732 9.97546 14.2751 9.86915 13.8315C9.86153 13.792 9.86282 13.7513 9.87295 13.7124C9.88307 13.6735 9.90176 13.6373 9.92765 13.6065C9.95849 13.5693 9.99742 13.5396 10.0415 13.5197C10.0856 13.4998 10.1336 13.4903 10.1819 13.4918H12.9584C13.0067 13.4907 13.0545 13.5005 13.0985 13.5204C13.1425 13.5402 13.1815 13.5697 13.2127 13.6065C13.2383 13.6374 13.2567 13.6737 13.2664 13.7126C13.2761 13.7516 13.277 13.7922 13.2689 13.8315C13.1626 14.2751 12.9174 14.6732 12.5692 14.9678C12.2963 15.2259 11.9443 15.3844 11.5702 15.4178ZM10.1819 13.7528C10.1459 13.7528 10.1369 13.7685 10.1347 13.773C10.2298 14.1577 10.4449 14.5021 10.7489 14.7563C10.9712 14.9753 11.2602 15.1138 11.5702 15.15C11.8793 15.1142 12.168 14.9774 12.3914 14.7608C12.6944 14.5061 12.9088 14.1618 13.0034 13.7775C12.9985 13.7703 12.9917 13.7646 12.9838 13.761C12.9758 13.7575 12.967 13.7562 12.9584 13.7573L10.1819 13.7528Z" fill="black"/>
<path d="M14.9745 13.9395C15.7014 13.9395 16.2907 13.5929 16.2907 13.1655C16.2907 12.738 15.7014 12.3915 14.9745 12.3915C14.2475 12.3915 13.6582 12.738 13.6582 13.1655C13.6582 13.5929 14.2475 13.9395 14.9745 13.9395Z" fill="#FEBBD0"/>
<path d="M8.16366 13.9395C8.89061 13.9395 9.47991 13.5929 9.47991 13.1655C9.47991 12.738 8.89061 12.3915 8.16366 12.3915C7.43672 12.3915 6.84741 12.738 6.84741 13.1655C6.84741 13.5929 7.43672 13.9395 8.16366 13.9395Z" fill="#FEBBD0"/>
<path fill-rule="evenodd" clip-rule="evenodd" d="M8.78242 12.855C9.02772 12.8554 9.26763 12.7831 9.4718 12.6471C9.67597 12.5112 9.83523 12.3177 9.9294 12.0912C10.0236 11.8647 10.0485 11.6154 10.0009 11.3748C9.95329 11.1341 9.8354 10.913 9.6621 10.7394C9.48881 10.5658 9.26791 10.4475 9.02736 10.3995C8.78681 10.3515 8.53743 10.3759 8.31076 10.4696C8.0841 10.5634 7.89034 10.7223 7.75401 10.9262C7.61769 11.1302 7.54492 11.3699 7.54492 11.6152C7.54492 11.9436 7.67523 12.2586 7.90724 12.4911C8.13925 12.7235 8.45401 12.8544 8.78242 12.855ZM14.3557 12.855C14.6012 12.8568 14.8418 12.7856 15.0469 12.6504C15.2519 12.5153 15.4122 12.3223 15.5074 12.0959C15.6027 11.8696 15.6285 11.62 15.5817 11.3789C15.5349 11.1379 15.4175 10.9161 15.2445 10.7418C15.0715 10.5675 14.8506 10.4486 14.6099 10.4C14.3691 10.3514 14.1194 10.3755 13.8923 10.469C13.6653 10.5626 13.4711 10.7215 13.3345 10.9255C13.1979 11.1296 13.1249 11.3697 13.1249 11.6152C13.1243 11.9427 13.2535 12.257 13.4842 12.4894C13.7149 12.7217 14.0282 12.8532 14.3557 12.855Z" fill="black"/>
<path fill-rule="evenodd" clip-rule="evenodd" d="M8.40002 11.694C8.49223 11.6944 8.5825 11.6675 8.65939 11.6166C8.73628 11.5657 8.79632 11.4931 8.83192 11.408C8.86752 11.323 8.87706 11.2292 8.85935 11.1387C8.84163 11.0483 8.79745 10.9651 8.7324 10.8997C8.66736 10.8343 8.58437 10.7898 8.49397 10.7716C8.40356 10.7534 8.3098 10.7625 8.22456 10.7977C8.13933 10.8329 8.06645 10.8926 8.01518 10.9692C7.9639 11.0459 7.93652 11.136 7.93652 11.2282C7.93652 11.3514 7.98528 11.4695 8.07214 11.5568C8.159 11.644 8.27689 11.6934 8.40002 11.694ZM13.9733 11.694C14.0655 11.6944 14.1558 11.6675 14.2326 11.6166C14.3095 11.5657 14.3696 11.4931 14.4052 11.408C14.4408 11.323 14.4503 11.2292 14.4326 11.1387C14.4149 11.0483 14.3707 10.9651 14.3057 10.8997C14.2406 10.8343 14.1576 10.7898 14.0672 10.7716C13.9768 10.7534 13.883 10.7625 13.7978 10.7977C13.7126 10.8329 13.6397 10.8926 13.5884 10.9692C13.5371 11.0459 13.5098 11.136 13.5098 11.2282C13.5098 11.3506 13.5579 11.468 13.6438 11.5552C13.7297 11.6424 13.8464 11.6922 13.9688 11.694H13.9733Z" fill="white"/>
</g>
<defs>
<clipPath id="clip0_12364_42606">
<rect width="18" height="15.75" fill="white" transform="translate(3 4.125)"/>
</clipPath>
</defs>
</svg>
