<svg width="24" height="24" viewBox="0 0 24 24" fill="none" xmlns="http://www.w3.org/2000/svg">
    <path style=" stroke:none;fill-rule:evenodd;fill:rgb(100%,100%,100%);fill-opacity:1;" d="M 12.53125 0.0117188 C 19.128906 0.320312 24.238281 5.929688 23.933594 12.53125 C 23.625 19.128906 18.015625 24.238281 11.417969 23.933594 C 4.816406 23.625 -0.292969 18.015625 0.0117188 11.417969 C 0.320312 4.816406 5.929688 -0.292969 12.53125 0.0117188 Z M 15.328125 14.429688 C 14.574219 14.390625 13.828125 14.265625 13.226562 14.164062 C 12.769531 14.089844 12.339844 13.96875 11.984375 13.847656 C 11.925781 13.828125 11.859375 13.847656 11.824219 13.894531 C 11.785156 13.945312 11.78125 14.015625 11.824219 14.0625 C 11.988281 14.246094 12.523438 14.636719 12.933594 14.8125 C 12.582031 15.105469 12.339844 15.773438 12.246094 16.117188 C 12.117188 16.578125 12.097656 17.25 12.128906 17.496094 C 12.253906 18.480469 12.617188 19.367188 13.515625 20.140625 C 14.144531 20.683594 15.058594 21.054688 15.988281 21.070312 C 17.273438 21.09375 18.8125 20.539062 20.019531 19.300781 C 21.597656 17.570312 22.632812 15.316406 22.824219 12.800781 C 23.28125 6.8125 18.789062 1.578125 12.800781 1.121094 C 6.8125 0.664062 1.578125 5.15625 1.121094 11.144531 C 0.882812 14.246094 1.972656 17.144531 3.910156 19.285156 C 3.964844 19.34375 4.054688 19.355469 4.121094 19.320312 C 4.191406 19.28125 4.226562 19.199219 4.207031 19.121094 C 2.769531 13.492188 5.886719 7.414062 9.371094 5.488281 C 10.660156 4.773438 11.921875 4.503906 13.050781 4.960938 C 14.78125 5.660156 15.773438 6.820312 17.917969 7.796875 C 20.058594 8.773438 20.289062 10.402344 19.695312 12.046875 C 19.097656 13.691406 17.171875 14.519531 15.328125 14.429688 Z M 11.578125 5.71875 C 10.875 5.773438 10.414062 6.644531 10.355469 7.203125 C 10.292969 7.761719 10.570312 8.683594 11.488281 8.667969 C 12.558594 8.644531 12.882812 7.726562 12.765625 6.839844 C 12.679688 6.171875 12.164062 5.671875 11.578125 5.71875 Z M 11.578125 5.71875 "/></svg>
