<svg width="24" height="25" viewBox="0 0 24 25" fill="none" xmlns="http://www.w3.org/2000/svg">
<path d="M2.94886 11.7839C2.90957 11.7839 2.89975 11.7645 2.91939 11.7355L3.12568 11.4742C3.14533 11.4452 3.19444 11.4258 3.23374 11.4258H6.74061C6.7799 11.4258 6.78973 11.4549 6.77008 11.4839L6.60309 11.7355C6.58344 11.7645 6.53432 11.7936 6.50486 11.7936L2.94886 11.7839Z" fill="#00ACD7"/>
<path d="M1.46556 12.6742C1.42627 12.6742 1.41645 12.6549 1.43609 12.6258L1.64238 12.3645C1.66203 12.3355 1.71114 12.3161 1.75043 12.3161H6.22981C6.2691 12.3161 6.28874 12.3452 6.27892 12.3742L6.20034 12.6065C6.19051 12.6452 6.15122 12.6645 6.11193 12.6645L1.46556 12.6742Z" fill="#00ACD7"/>
<path d="M3.84277 13.5645C3.80348 13.5645 3.79366 13.5355 3.8133 13.5065L3.95083 13.2645C3.97047 13.2355 4.00977 13.2065 4.04906 13.2065H6.0137C6.05299 13.2065 6.07264 13.2355 6.07264 13.2742L6.05299 13.5065C6.05299 13.5452 6.0137 13.5742 5.98423 13.5742L3.84277 13.5645Z" fill="#00ACD7"/>
<path d="M14.0392 11.6097C13.4204 11.7645 12.998 11.8807 12.3889 12.0355C12.2416 12.0742 12.2318 12.0839 12.1041 11.9387C11.9567 11.7742 11.8487 11.6678 11.6424 11.571C11.0235 11.271 10.4243 11.3581 9.86438 11.7161C9.19641 12.1419 8.8526 12.771 8.86242 13.5549C8.87224 14.329 9.41252 14.9678 10.1885 15.0742C10.8565 15.1613 11.4164 14.929 11.8585 14.4355C11.9469 14.329 12.0255 14.2129 12.1237 14.0774C11.7701 14.0774 11.328 14.0774 10.2278 14.0774C10.0216 14.0774 9.97244 13.9516 10.0412 13.7871C10.1689 13.4871 10.4047 12.9839 10.5422 12.7323C10.5717 12.6742 10.6404 12.5774 10.7878 12.5774C11.2887 12.5774 13.1355 12.5774 14.3634 12.5774C14.3438 12.8387 14.3438 13.1 14.3045 13.3613C14.1964 14.0581 13.9312 14.6968 13.499 15.2581C12.7917 16.1774 11.8683 16.7484 10.6994 16.9032C9.73668 17.029 8.84277 16.8452 8.05692 16.2645C7.33 15.7226 6.91743 15.0065 6.80937 14.1161C6.68167 13.0613 6.99601 12.1129 7.64434 11.2807C8.34179 10.3807 9.26517 9.80969 10.3948 9.60646C11.3182 9.44195 12.2023 9.5484 12.998 10.0807C13.5186 10.4194 13.8919 10.8839 14.1375 11.4452C14.1964 11.5323 14.1571 11.5807 14.0392 11.6097Z" fill="#00ACD7"/>
<path d="M17.2907 16.9613C16.3968 16.9419 15.5815 16.6903 14.8939 16.1097C14.3143 15.6161 13.9508 14.9871 13.8329 14.2419C13.6561 13.1484 13.9607 12.1807 14.6286 11.3194C15.3457 10.3903 16.2102 9.90646 17.3791 9.70324C18.3811 9.52905 19.3241 9.62582 20.1787 10.1968C20.9548 10.7194 21.4361 11.4258 21.5638 12.3549C21.7308 13.6613 21.3477 14.7258 20.4341 15.6355C19.7858 16.2839 18.9901 16.6903 18.0766 16.8742C17.8113 16.9226 17.5461 16.9323 17.2907 16.9613ZM19.6286 13.0516C19.6188 12.9258 19.6188 12.829 19.5992 12.7323C19.4223 11.7742 18.5284 11.2323 17.5952 11.4452C16.6817 11.6484 16.0923 12.2194 15.8762 13.129C15.6994 13.8839 16.0726 14.6484 16.7799 14.9581C17.3202 15.1903 17.8605 15.1613 18.3811 14.9C19.1571 14.5032 19.5795 13.8839 19.6286 13.0516Z" fill="#00ACD7"/>
</svg>
