<svg width="24" height="24" viewBox="0 0 24 24" fill="none" xmlns="http://www.w3.org/2000/svg">
<path d="M19.2717 16.4131C19.03 16.5387 18.7808 16.6493 18.5254 16.744C17.7168 17.045 16.8605 17.1977 15.9977 17.1947C12.6673 17.1947 9.76639 14.9063 9.76639 11.9632C9.77072 11.5691 9.87998 11.1833 10.0829 10.8454C10.2859 10.5076 10.5752 10.2299 10.9211 10.041C7.90757 10.1678 7.13306 13.308 7.13306 15.1457C7.13306 20.3561 11.928 20.8771 12.963 20.8771C13.5192 20.8771 14.3571 20.7152 14.8641 20.5532L14.9556 20.5251C16.8957 19.8546 18.5496 18.5434 19.6449 16.8074C19.6767 16.7547 19.6904 16.6929 19.6838 16.6317C19.6772 16.5704 19.6507 16.513 19.6083 16.4683C19.566 16.4235 19.5101 16.3939 19.4493 16.384C19.3885 16.374 19.3262 16.3842 19.2717 16.4131Z" fill="url(#paint0_linear_4475_59727)"/>
<path opacity="0.35" d="M19.2717 16.4131C19.03 16.5387 18.7808 16.6493 18.5254 16.744C17.7168 17.045 16.8605 17.1977 15.9977 17.1947C12.6673 17.1947 9.76639 14.9063 9.76639 11.9632C9.77072 11.5691 9.87998 11.1833 10.0829 10.8454C10.2859 10.5076 10.5752 10.2299 10.9211 10.041C7.90757 10.1678 7.13306 13.308 7.13306 15.1457C7.13306 20.3561 11.928 20.8771 12.963 20.8771C13.5192 20.8771 14.3571 20.7152 14.8641 20.5532L14.9556 20.5251C16.8957 19.8546 18.5496 18.5434 19.6449 16.8074C19.6767 16.7547 19.6904 16.6929 19.6838 16.6317C19.6772 16.5704 19.6507 16.513 19.6083 16.4683C19.566 16.4235 19.5101 16.3939 19.4493 16.384C19.3885 16.374 19.3262 16.3842 19.2717 16.4131Z" fill="url(#paint1_radial_4475_59727)"/>
<path d="M10.4424 19.9899C9.81565 19.6007 9.27239 19.0909 8.84408 18.4902C8.35497 17.8207 8.01829 17.0523 7.85767 16.2389C7.69705 15.4255 7.71638 14.5869 7.91431 13.7817C8.11224 12.9766 8.48397 12.2245 9.00341 11.5783C9.52285 10.9321 10.1774 10.4074 10.9212 10.041C11.1465 9.93538 11.5197 9.75232 12.0196 9.75936C12.3713 9.76208 12.7177 9.84612 13.0316 10.0049C13.3455 10.1637 13.6185 10.3929 13.8291 10.6747C14.1124 11.0557 14.2677 11.5166 14.2727 11.9914C14.2727 11.9773 15.9977 6.38672 8.63989 6.38672C5.54889 6.38672 3.00709 9.31577 3.00709 11.8928C2.99479 13.2541 3.28583 14.601 3.85905 15.8357C4.79781 17.8347 6.43784 19.4194 8.46783 20.289C10.4978 21.1586 12.7764 21.2527 14.8712 20.5532C14.1373 20.785 13.3618 20.8547 12.5984 20.7574C11.835 20.6602 11.1018 20.3983 10.4494 19.9899H10.4424Z" fill="url(#paint2_linear_4475_59727)"/>
<path opacity="0.41" d="M10.4424 19.9899C9.81565 19.6007 9.27239 19.0909 8.84408 18.4902C8.35497 17.8207 8.01829 17.0523 7.85767 16.2389C7.69705 15.4255 7.71638 14.5869 7.91431 13.7817C8.11224 12.9766 8.48397 12.2245 9.00341 11.5783C9.52285 10.9321 10.1774 10.4074 10.9212 10.041C11.1465 9.93538 11.5197 9.75232 12.0196 9.75936C12.3713 9.76208 12.7177 9.84612 13.0316 10.0049C13.3455 10.1637 13.6185 10.3929 13.8291 10.6747C14.1124 11.0557 14.2677 11.5166 14.2727 11.9914C14.2727 11.9773 15.9977 6.38672 8.63989 6.38672C5.54889 6.38672 3.00709 9.31577 3.00709 11.8928C2.99479 13.2541 3.28583 14.601 3.85905 15.8357C4.79781 17.8347 6.43784 19.4194 8.46783 20.289C10.4978 21.1586 12.7764 21.2527 14.8712 20.5532C14.1373 20.785 13.3618 20.8547 12.5984 20.7574C11.835 20.6602 11.1018 20.3983 10.4494 19.9899H10.4424Z" fill="url(#paint3_radial_4475_59727)"/>
<path d="M13.7305 13.477C13.6671 13.5474 13.4911 13.653 13.4911 13.8713C13.4911 14.0544 13.6108 14.2374 13.8291 14.3853C14.8359 15.0894 16.744 14.9908 16.7511 14.9908C17.5017 14.9903 18.2384 14.7885 18.8845 14.4064C19.5349 14.026 20.0747 13.4821 20.4501 12.8288C20.8256 12.1754 21.0237 11.4353 21.025 10.6817C21.0461 9.10455 20.4617 8.05544 20.2293 7.59073C18.7296 4.67576 15.5119 3 12.0125 3C9.64402 2.99977 7.37066 3.93188 5.68409 5.59473C3.99752 7.25758 3.03331 9.51751 3 11.8857C3.0352 9.31578 5.59109 7.23868 8.6328 7.23868C8.87923 7.23868 10.2874 7.2598 11.59 7.94278C12.5051 8.39753 13.263 9.11611 13.7657 10.0058C14.1952 10.7521 14.2726 11.7027 14.2726 12.0829C14.2726 12.4631 14.0825 13.0193 13.7234 13.484L13.7305 13.477Z" fill="url(#paint4_radial_4475_59727)"/>
<path d="M13.7305 13.477C13.6671 13.5474 13.4911 13.653 13.4911 13.8713C13.4911 14.0544 13.6108 14.2374 13.8291 14.3853C14.8359 15.0894 16.744 14.9908 16.7511 14.9908C17.5017 14.9903 18.2384 14.7885 18.8845 14.4064C19.5349 14.026 20.0747 13.4821 20.4501 12.8288C20.8256 12.1754 21.0237 11.4353 21.025 10.6817C21.0461 9.10455 20.4617 8.05544 20.2293 7.59073C18.7296 4.67576 15.5119 3 12.0125 3C9.64402 2.99977 7.37066 3.93188 5.68409 5.59473C3.99752 7.25758 3.03331 9.51751 3 11.8857C3.0352 9.31578 5.59109 7.23868 8.6328 7.23868C8.87923 7.23868 10.2874 7.2598 11.59 7.94278C12.5051 8.39753 13.263 9.11611 13.7657 10.0058C14.1952 10.7521 14.2726 11.7027 14.2726 12.0829C14.2726 12.4631 14.0825 13.0193 13.7234 13.484L13.7305 13.477Z" fill="url(#paint5_radial_4475_59727)"/>
<defs>
<linearGradient id="paint0_linear_4475_59727" x1="7.13306" y1="15.4626" x2="19.6942" y2="15.4626" gradientUnits="userSpaceOnUse">
<stop stop-color="#0C59A4"/>
<stop offset="1" stop-color="#114A8B"/>
</linearGradient>
<radialGradient id="paint1_radial_4475_59727" cx="0" cy="0" r="1" gradientUnits="userSpaceOnUse" gradientTransform="translate(14.0684 15.5573) scale(6.71711 6.38126)">
<stop offset="0.7" stop-opacity="0"/>
<stop offset="0.9" stop-opacity="0.5"/>
<stop offset="1"/>
</radialGradient>
<linearGradient id="paint2_linear_4475_59727" x1="13.7517" y1="10.0128" x2="5.91502" y2="18.5536" gradientUnits="userSpaceOnUse">
<stop stop-color="#1B9DE2"/>
<stop offset="0.2" stop-color="#1595DF"/>
<stop offset="0.7" stop-color="#0680D7"/>
<stop offset="1" stop-color="#0078D4"/>
</linearGradient>
<radialGradient id="paint3_radial_4475_59727" cx="0" cy="0" r="1" gradientUnits="userSpaceOnUse" gradientTransform="translate(7.96782 17.0071) rotate(-81.3844) scale(10.0958 8.1564)">
<stop offset="0.8" stop-opacity="0"/>
<stop offset="0.9" stop-opacity="0.5"/>
<stop offset="1"/>
</radialGradient>
<radialGradient id="paint4_radial_4475_59727" cx="0" cy="0" r="1" gradientUnits="userSpaceOnUse" gradientTransform="translate(4.82291 6.33152) rotate(92.2906) scale(14.2624 30.3759)">
<stop stop-color="#35C1F1"/>
<stop offset="0.1" stop-color="#34C1ED"/>
<stop offset="0.2" stop-color="#2FC2DF"/>
<stop offset="0.3" stop-color="#2BC3D2"/>
<stop offset="0.7" stop-color="#36C752"/>
</radialGradient>
<radialGradient id="paint5_radial_4475_59727" cx="0" cy="0" r="1" gradientUnits="userSpaceOnUse" gradientTransform="translate(19.9026 8.44269) rotate(73.7398) scale(6.85089 5.57115)">
<stop stop-color="#66EB6E"/>
<stop offset="1" stop-color="#66EB6E" stop-opacity="0"/>
</radialGradient>
</defs>
</svg>
