<svg width="24" height="24" viewBox="0 0 24 24" fill="none" xmlns="http://www.w3.org/2000/svg">
<path d="M9.01079 4.25413V6.72391C9.01079 6.96547 8.91277 7.18949 8.75698 7.30672L5.42955 9.81159C5.32276 9.89206 5.32276 10.0671 5.42955 10.1476L8.76219 12.6576C8.91625 12.7732 9.01079 12.992 9.01079 13.23V15.5947C9.01079 16.0043 8.68346 15.9519 8.41913 15.7523L3.19951 11.8227C3.07699 11.73 3 11.5549 3 11.3659V8.58979C3 8.40252 3.07525 8.231 3.19603 8.13994L8.55565 4.10537C8.76045 3.95131 9.01079 3.93898 9.01079 4.25413Z" fill="#29ADEB"/>
<path d="M20.7961 8.14014L15.4364 4.1055C15.3734 4.05823 15.3314 4.03894 15.2439 4.03894H13.756C13.42 4.03894 13.0734 4.31907 12.9841 4.66387L9.03178 19.8238C8.94783 20.1477 9.13509 20.412 9.45016 20.412H11.295C11.6101 20.412 11.9357 20.1494 12.0197 19.8238L12.2472 18.9504L13.2152 15.2361L13.9748 12.32L15.2089 7.5835C15.2403 7.46446 15.3787 7.41371 15.4749 7.48723L18.5608 9.80998C18.6711 9.89393 18.6711 10.062 18.5608 10.146L15.2298 12.6578C15.0758 12.7733 14.9813 12.9921 14.9813 13.2302V15.5949C14.9813 16.0045 15.3086 15.952 15.573 15.7525L20.7925 11.8229C20.915 11.7301 20.9921 11.5551 20.9921 11.3661V8.58984C20.9921 8.40258 20.9168 8.23113 20.7961 8.14014Z" fill="white"/>
</svg>
