<svg width="24" height="24" viewBox="0 0 24 24" fill="none" xmlns="http://www.w3.org/2000/svg">
<path d="M12 3C7.03594 3 3 7.03594 3 12C3 16.9641 7.03594 21 12 21C16.9641 21 21 16.9641 21 12C21 7.03594 16.9641 3 12 3Z" fill="#FC471E"/>
<path fill-rule="evenodd" clip-rule="evenodd" d="M14.6795 7.23557C14.6711 7.28755 14.6667 7.34088 14.6667 7.39522C14.6667 7.94397 15.1144 8.38882 15.6667 8.38882C16.219 8.38882 16.6667 7.94397 16.6667 7.39522C16.6667 6.84648 16.219 6.40163 15.6667 6.40163C15.4206 6.40163 15.1952 6.48995 15.021 6.63644L12.4241 6L11.4855 9.73035C10.2369 9.81199 9.11399 10.1877 8.26687 10.7549C8.02635 10.5205 7.69683 10.376 7.33333 10.376C6.59695 10.376 6 10.9691 6 11.7008C6 12.21 6.28911 12.6521 6.71312 12.8739C6.68248 13.0319 6.66667 13.1931 6.66667 13.3568C6.66667 15.3689 9.05448 17 12 17C14.9455 17 17.3333 15.3689 17.3333 13.3568C17.3333 13.1931 17.3175 13.0319 17.2869 12.8739C17.7109 12.6521 18 12.21 18 11.7008C18 10.9691 17.403 10.376 16.6667 10.376C16.3032 10.376 15.9737 10.5205 15.7331 10.7549C14.8102 10.137 13.5599 9.74629 12.1764 9.71557L12.9092 6.80328L14.6795 7.23557ZM9.66667 13.688C10.219 13.688 10.6667 13.2432 10.6667 12.6944C10.6667 12.1457 10.219 11.7008 9.66667 11.7008C9.11438 11.7008 8.66667 12.1457 8.66667 12.6944C8.66667 13.2432 9.11438 13.688 9.66667 13.688ZM14.3333 13.688C14.8856 13.688 15.3333 13.2432 15.3333 12.6944C15.3333 12.1457 14.8856 11.7008 14.3333 11.7008C13.781 11.7008 13.3333 12.1457 13.3333 12.6944C13.3333 13.2432 13.781 13.688 14.3333 13.688ZM9.85157 14.7372C9.69839 14.6358 9.49143 14.6769 9.38932 14.8291C9.2872 14.9813 9.32859 15.1869 9.48177 15.2884C10.2072 15.7689 11.1036 16.0091 12 16.0091C12.8964 16.0091 13.7928 15.7689 14.5182 15.2884C14.6714 15.1869 14.7128 14.9813 14.6107 14.8291C14.5086 14.6769 14.3016 14.6358 14.1484 14.7372C13.535 15.1436 12.7675 15.3467 12 15.3467C11.5448 15.3467 11.0897 15.2753 10.6667 15.1324C10.3764 15.0343 10.1012 14.9026 9.85157 14.7372Z" fill="white"/>
</svg>
