<svg width="24" height="24" viewBox="0 0 24 24" fill="none" xmlns="http://www.w3.org/2000/svg">
<g clip-path="url(#clip0_4475_59705)">
<g opacity="0.53" filter="url(#filter0_f_4475_59705)">
<path d="M20.6716 12.7379C20.6716 13.8343 20.4473 14.92 20.0116 15.933C19.5758 16.946 18.9371 17.8664 18.132 18.6417C17.3268 19.417 16.371 20.032 15.319 20.4516C14.267 20.8712 13.1395 21.0872 12.0009 21.0872C10.8622 21.0872 9.73473 20.8712 8.68276 20.4516C7.63078 20.032 6.67493 19.417 5.86979 18.6417C5.06464 17.8664 4.42596 16.946 3.99022 15.933C3.55447 14.92 3.3302 13.8343 3.3302 12.7379C3.3302 10.5235 4.24372 8.39981 5.86979 6.83401C7.49585 5.26821 9.70128 4.38855 12.0009 4.38855C13.1395 4.38855 14.267 4.60451 15.319 5.0241C16.371 5.4437 17.3268 6.0587 18.132 6.83401C18.9371 7.60931 19.5758 8.52973 20.0116 9.54272C20.4473 10.5557 20.6716 11.6414 20.6716 12.7379Z" fill="black" fill-opacity="0.5"/>
</g>
<path d="M21.0018 12.0009C21.0018 13.1829 20.769 14.3533 20.3166 15.4454C19.8643 16.5374 19.2013 17.5297 18.3655 18.3655C17.5297 19.2013 16.5374 19.8643 15.4454 20.3166C14.3533 20.769 13.1829 21.0018 12.0009 21.0018C9.6137 21.0018 7.32429 20.0535 5.6363 18.3655C3.9483 16.6775 3 14.3881 3 12.0009C3 9.6137 3.9483 7.32429 5.6363 5.6363C7.32429 3.94831 9.6137 3 12.0009 3C13.1829 3 14.3533 3.23282 15.4454 3.68515C16.5374 4.13749 17.5297 4.80049 18.3655 5.6363C19.2013 6.47211 19.8643 7.46436 20.3166 8.5564C20.769 9.64843 21.0018 10.8189 21.0018 12.0009Z" fill="url(#paint0_linear_4475_59705)" stroke="#CDCDCD" stroke-width="0.351543" stroke-linecap="round" stroke-linejoin="round"/>
<path d="M20.2964 12.0009C20.2964 14.201 19.4224 16.311 17.8666 17.8668C16.3109 19.4225 14.2009 20.2965 12.0008 20.2965C9.80066 20.2965 7.69064 19.4225 6.13492 17.8668C4.5792 16.311 3.7052 14.201 3.7052 12.0009C3.7052 9.80078 4.5792 7.69077 6.13492 6.13504C7.69064 4.57932 9.80066 3.70532 12.0008 3.70532C14.2009 3.70532 16.3109 4.57932 17.8666 6.13504C19.4224 7.69077 20.2964 9.80078 20.2964 12.0009Z" fill="url(#paint1_radial_4475_59705)"/>
<path d="M12.0009 4.13794C11.9339 4.13794 11.8799 4.19188 11.8799 4.25888V5.65396C11.8799 5.72096 11.9339 5.7749 12.0009 5.7749C12.0679 5.7749 12.1218 5.72096 12.1218 5.65396V4.25888C12.1218 4.19188 12.0679 4.13794 12.0009 4.13794ZM11.2097 4.18795C11.2016 4.18709 11.1934 4.18709 11.1851 4.18805C11.1184 4.195 11.0704 4.25425 11.0773 4.32089L11.1383 4.90453C11.1452 4.97117 11.2045 5.01923 11.2711 5.01227C11.3378 5.00532 11.3858 4.94607 11.3789 4.87942L11.318 4.29579C11.3119 4.23748 11.2657 4.19339 11.2096 4.18795H11.2097ZM12.7976 4.18852C12.7416 4.19392 12.6954 4.238 12.6893 4.29631L12.6279 4.8799C12.6209 4.94654 12.6689 5.00584 12.7356 5.01285C12.8022 5.01986 12.8615 4.97185 12.8685 4.90521L12.9299 4.32158C12.9369 4.25494 12.8888 4.19568 12.8222 4.18868C12.8138 4.18781 12.8057 4.18781 12.7976 4.18853V4.18852ZM10.3969 4.30581C10.3888 4.30587 10.3806 4.30667 10.3724 4.3084C10.3069 4.32228 10.2653 4.38624 10.2792 4.45179L10.5681 5.81658C10.582 5.88214 10.6459 5.92374 10.7115 5.90987C10.777 5.89599 10.8186 5.83208 10.8047 5.76653L10.5158 4.40168C10.5037 4.34432 10.4532 4.3053 10.3969 4.30574L10.3969 4.30581ZM13.6104 4.30696C13.554 4.30639 13.5036 4.34545 13.4914 4.4028L13.2015 5.76743C13.1875 5.83298 13.2291 5.89695 13.2946 5.91088C13.3602 5.92481 13.4242 5.88324 13.4381 5.8177L13.728 4.45306C13.7419 4.38752 13.7003 4.32354 13.6348 4.30962C13.6266 4.3079 13.6184 4.30703 13.6104 4.30703L13.6104 4.30696ZM9.62118 4.52452C9.60552 4.52309 9.58935 4.52481 9.57341 4.5301C9.50969 4.55082 9.47504 4.61874 9.49575 4.68247L9.67709 5.24058C9.6978 5.30431 9.76578 5.33896 9.82951 5.31825C9.89324 5.29753 9.92784 5.22956 9.90713 5.16583L9.72579 4.60772C9.71027 4.55993 9.66815 4.52851 9.62118 4.52451V4.52452ZM14.3817 4.52481C14.3347 4.52881 14.2926 4.56022 14.2771 4.60801L14.0956 5.16608C14.0749 5.2298 14.1095 5.29778 14.1732 5.3185C14.237 5.33921 14.305 5.30459 14.3257 5.24088L14.5071 4.68276C14.5278 4.61904 14.4932 4.55106 14.4295 4.53034C14.4136 4.52517 14.3973 4.52348 14.3817 4.5248V4.52481ZM8.85412 4.80523C8.8384 4.80551 8.8225 4.80896 8.80719 4.81577C8.746 4.84298 8.71859 4.91416 8.7458 4.97539L9.31243 6.2502C9.33964 6.31142 9.41082 6.3388 9.47205 6.31158C9.53324 6.28437 9.56071 6.21319 9.53349 6.15196L8.96681 4.87716C8.94641 4.83123 8.90125 4.80431 8.85412 4.80523ZM15.1574 4.8095C15.1103 4.80864 15.0651 4.83539 15.0446 4.88128L14.4763 6.1553C14.449 6.21649 14.4762 6.28773 14.5374 6.31503C14.5986 6.34233 14.6699 6.31504 14.6972 6.25385L15.2655 4.97983C15.2928 4.91864 15.2655 4.8474 15.2043 4.8201C15.189 4.81329 15.1731 4.80985 15.1574 4.8095V4.8095ZM8.14212 5.18195C8.1189 5.18022 8.09498 5.18539 8.07322 5.19798C8.01519 5.23148 7.99545 5.30516 8.02895 5.36319L8.32236 5.8714C8.35587 5.92943 8.42955 5.94917 8.48758 5.91566C8.54561 5.88216 8.56534 5.80848 8.53184 5.75045L8.23843 5.24225C8.21748 5.20598 8.18083 5.18466 8.14212 5.18195V5.18195ZM15.8596 5.18195C15.8209 5.18453 15.7843 5.20597 15.7634 5.24224L15.4699 5.75044C15.4364 5.80847 15.4562 5.88215 15.5142 5.91565C15.5723 5.94916 15.6459 5.92942 15.6794 5.87139L15.9729 5.36318C16.0064 5.30515 15.9866 5.23147 15.9286 5.19797C15.9068 5.18541 15.8829 5.18033 15.8596 5.18194V5.18195ZM7.45074 5.61316C7.42747 5.61402 7.40417 5.62149 7.38383 5.63623C7.32959 5.67558 7.3176 5.75091 7.35696 5.80515L8.17612 6.93437C8.21546 6.98861 8.29085 7.0006 8.34508 6.96127C8.39932 6.92192 8.41131 6.84659 8.37195 6.79235L7.55274 5.66313C7.52815 5.62923 7.48951 5.61185 7.45074 5.61317V5.61316ZM16.5597 5.61931C16.5209 5.61787 16.4823 5.63526 16.4576 5.66911L15.6369 6.79723C15.5975 6.85141 15.6094 6.92678 15.6636 6.9662C15.7178 7.00562 15.7931 6.99376 15.8325 6.93959L16.6532 5.81147C16.6926 5.75728 16.6807 5.68192 16.6266 5.6425C16.6062 5.62773 16.5829 5.62014 16.5597 5.61931ZM6.83276 6.13143C6.80189 6.12971 6.77038 6.14002 6.74548 6.16244C6.69568 6.20727 6.69168 6.28344 6.73652 6.33324L7.12916 6.76941C7.17399 6.81921 7.25015 6.82322 7.29995 6.77837C7.34976 6.73354 7.35377 6.65733 7.30892 6.60753L6.91634 6.1714C6.89392 6.14649 6.86364 6.13304 6.83276 6.13142V6.13143ZM17.1699 6.1323C17.139 6.13402 17.1087 6.14738 17.0863 6.17228L16.6937 6.60835C16.6488 6.65815 16.6528 6.73436 16.7026 6.7792C16.7524 6.82403 16.8286 6.82001 16.8734 6.77023L17.2661 6.33416C17.3109 6.28436 17.3069 6.20815 17.2571 6.16332C17.2322 6.1409 17.2008 6.13069 17.1699 6.13231L17.1699 6.1323ZM6.24046 6.70038C6.20959 6.7021 6.17935 6.71546 6.15694 6.74036C6.11211 6.79016 6.11612 6.86633 6.16591 6.91116L7.20273 7.84452C7.25254 7.88936 7.3287 7.88535 7.37352 7.83556C7.41836 7.78576 7.4144 7.70959 7.36459 7.66476L6.32771 6.7314C6.3028 6.70898 6.27131 6.69877 6.24043 6.70039L6.24046 6.70038ZM17.7651 6.70445C17.7342 6.70273 17.7026 6.71302 17.6777 6.73541L16.6403 7.66805C16.5904 7.71284 16.5863 7.78901 16.6311 7.83885C16.6759 7.88868 16.7522 7.89272 16.802 7.84793L17.8395 6.91529C17.8893 6.87049 17.8934 6.79432 17.8486 6.74449C17.8262 6.71958 17.7959 6.7061 17.7651 6.70445H17.7651ZM5.74791 7.33372C5.70913 7.33228 5.67048 7.34975 5.64586 7.38362C5.60648 7.43783 5.61842 7.51315 5.67264 7.55253L6.14739 7.89747C6.2016 7.93685 6.27692 7.92496 6.3163 7.87074C6.35569 7.81653 6.34377 7.74116 6.28958 7.70178L5.81483 7.35685C5.79452 7.34208 5.77118 7.33455 5.74791 7.33371L5.74791 7.33372ZM18.2571 7.33811C18.2339 7.33898 18.2106 7.34642 18.1902 7.36119L17.7153 7.70581C17.661 7.74516 17.649 7.82054 17.6884 7.87478C17.7277 7.92901 17.803 7.94095 17.8573 7.90161L18.3323 7.55699C18.3865 7.51765 18.3985 7.44231 18.3591 7.38808C18.3345 7.35418 18.2959 7.3368 18.2571 7.33812V7.33811ZM5.28762 8.00929C5.24892 8.01188 5.21231 8.03331 5.19137 8.06958C5.15786 8.12761 5.1776 8.20129 5.23563 8.23479L6.44377 8.93232C6.5018 8.96583 6.57548 8.94609 6.60899 8.88806C6.64249 8.83003 6.62275 8.75635 6.56472 8.72285L5.35657 8.02531C5.33482 8.01275 5.31084 8.00767 5.28762 8.00928V8.00929ZM18.7141 8.00929C18.6909 8.00757 18.6669 8.01274 18.6452 8.02532L17.437 8.72286C17.379 8.75636 17.3593 8.83004 17.3928 8.88807C17.4263 8.9461 17.5 8.96584 17.558 8.93233L18.7662 8.2348C18.8242 8.2013 18.8439 8.12762 18.8104 8.06959C18.7895 8.03332 18.7528 8.01201 18.7141 8.0093V8.00929ZM4.9396 8.72937C4.89247 8.72822 4.84727 8.75521 4.8268 8.80109C4.7995 8.86229 4.82679 8.93353 4.88798 8.96082L5.42396 9.1999C5.48516 9.22719 5.5564 9.19991 5.58369 9.13872C5.61099 9.07752 5.58365 9.00629 5.52246 8.97899L4.98654 8.73992C4.97125 8.73308 4.95531 8.72969 4.9396 8.72937ZM19.0645 8.73434C19.0488 8.73463 19.0328 8.73808 19.0175 8.74489L18.4814 8.98354C18.4202 9.01081 18.3928 9.082 18.4201 9.14322C18.4474 9.20443 18.5186 9.23181 18.5798 9.20456L19.1159 8.96585C19.1771 8.93861 19.2045 8.86738 19.1772 8.80617C19.1568 8.76026 19.1116 8.73341 19.0645 8.73434ZM4.62944 9.48199C4.58247 9.48593 4.54035 9.51731 4.52479 9.56509C4.50404 9.6288 4.53857 9.69681 4.60229 9.71757L5.92873 10.1498C5.99243 10.1705 6.06044 10.136 6.0812 10.0723C6.10195 10.0085 6.06741 9.94054 6.00368 9.91979L4.67726 9.48757C4.66134 9.48237 4.6451 9.48068 4.62944 9.482V9.48199ZM19.3741 9.48717C19.3584 9.48573 19.3423 9.48745 19.3263 9.49274L17.9996 9.92401C17.9359 9.94472 17.9013 10.0127 17.922 10.0764C17.9427 10.1402 18.0107 10.1748 18.0744 10.154L19.4011 9.72278C19.4648 9.70206 19.4995 9.63408 19.4788 9.57036C19.4632 9.52257 19.4211 9.49114 19.3741 9.48716V9.48717ZM4.4362 10.272C4.37986 10.2715 4.32932 10.3106 4.31713 10.3679C4.3032 10.4335 4.34478 10.4974 4.41031 10.5114L4.98434 10.6334C5.04988 10.6473 5.11385 10.6057 5.12778 10.5402C5.14172 10.4746 5.10015 10.4107 5.03461 10.3967L4.46063 10.2747C4.45244 10.273 4.44425 10.2722 4.4362 10.2722V10.272ZM19.5658 10.2732C19.5578 10.2732 19.5496 10.2743 19.5415 10.2758L18.9674 10.3977C18.9019 10.4116 18.8603 10.4756 18.8742 10.5411C18.8882 10.6066 18.9521 10.6482 19.0177 10.6343L19.5917 10.5124C19.6572 10.4985 19.6988 10.4345 19.6849 10.3689C19.6727 10.3116 19.6222 10.2726 19.5658 10.2731L19.5658 10.2732ZM4.28994 11.0667C4.23385 11.0721 4.18768 11.1161 4.18152 11.1744C4.17448 11.241 4.22242 11.3004 4.28905 11.3074L5.6764 11.4541C5.74303 11.4611 5.80236 11.4131 5.8094 11.3465C5.81644 11.2799 5.76845 11.2205 5.70182 11.2135L4.31447 11.0668C4.30614 11.066 4.29796 11.066 4.28994 11.0667V11.0667ZM19.7131 11.0771C19.7051 11.0763 19.6969 11.0763 19.6885 11.0772L18.301 11.222C18.2344 11.229 18.1863 11.2882 18.1933 11.3549C18.2002 11.4215 18.2595 11.4696 18.3261 11.4626L19.7136 11.3178C19.7803 11.3109 19.8283 11.2516 19.8214 11.185C19.8153 11.1267 19.7692 11.0826 19.7131 11.0771L19.7131 11.0771ZM4.26645 11.8802C4.19944 11.8802 4.14551 11.9341 4.14551 12.0011C4.14551 12.0681 4.19944 12.1221 4.26645 12.1221H4.85328C4.92028 12.1221 4.97427 12.0681 4.97427 12.0011C4.97427 11.9341 4.92028 11.8802 4.85328 11.8802H4.26645ZM19.1485 11.8802C19.0815 11.8802 19.0275 11.9341 19.0275 12.0011C19.0275 12.0681 19.0815 12.1221 19.1485 12.1221H19.7353C19.8023 12.1221 19.8563 12.0681 19.8563 12.0011C19.8563 11.9341 19.8023 11.8802 19.7353 11.8802H19.1485ZM5.7002 12.5395C5.69219 12.5386 5.68399 12.5386 5.67566 12.5396L4.28811 12.6844C4.22146 12.6913 4.17342 12.7506 4.18037 12.8172C4.18733 12.8839 4.24657 12.9319 4.31321 12.925L5.70077 12.7802C5.76742 12.7732 5.81546 12.714 5.80851 12.6473C5.80242 12.589 5.75628 12.5449 5.70019 12.5395H5.7002ZM18.3008 12.5481C18.2447 12.5534 18.1986 12.5974 18.1924 12.6557C18.1854 12.7224 18.2333 12.7817 18.2999 12.7887L19.6873 12.9354C19.7539 12.9425 19.8132 12.8945 19.8203 12.8278C19.8273 12.7612 19.7793 12.7019 19.7127 12.6948L18.3254 12.5482C18.3171 12.5473 18.3088 12.5473 18.3008 12.5481L18.3008 12.5481ZM5.00856 13.3651C5.00052 13.3652 4.99233 13.366 4.98414 13.3677L4.41011 13.4897C4.34456 13.5036 4.30301 13.5676 4.31693 13.6331C4.33087 13.6986 4.39483 13.7402 4.46038 13.7263L5.03441 13.6044C5.09995 13.5905 5.1415 13.5265 5.12758 13.4609C5.1154 13.4036 5.06492 13.3646 5.00857 13.3651L5.00856 13.3651ZM18.993 13.3663C18.9367 13.3657 18.8862 13.4048 18.874 13.4621C18.8601 13.5277 18.9016 13.5916 18.9672 13.6056L19.5412 13.7275C19.6067 13.7415 19.6707 13.7 19.6846 13.6344C19.6986 13.5689 19.657 13.5049 19.5915 13.4909L19.0175 13.3689C19.0093 13.3672 19.0011 13.3664 18.993 13.3664L18.993 13.3663ZM5.97519 13.8426C5.95953 13.8412 5.94335 13.8429 5.92742 13.8482L4.60068 14.2795C4.53695 14.3002 4.50234 14.3682 4.52306 14.4319C4.54378 14.4956 4.61175 14.5302 4.67548 14.5095L6.00218 14.0783C6.0659 14.0575 6.10056 13.9896 6.07984 13.9258C6.0643 13.878 6.02216 13.8466 5.97519 13.8426V13.8426ZM18.0253 13.8469C17.9783 13.8509 17.9362 13.8822 17.9206 13.93C17.8999 13.9937 17.9344 14.0617 17.9981 14.0825L19.3246 14.5147C19.3883 14.5355 19.4563 14.5009 19.477 14.4372C19.4978 14.3735 19.4632 14.3055 19.3995 14.2847L18.0731 13.8525C18.0572 13.8473 18.0409 13.8456 18.0253 13.8469V13.8469ZM5.46891 14.7872C5.45319 14.7875 5.43728 14.7909 5.42198 14.7977L4.88584 15.0364C4.82463 15.0637 4.79731 15.1349 4.82456 15.1961C4.85183 15.2573 4.92303 15.2846 4.98424 15.2574L5.52037 15.0187C5.58158 14.9915 5.60891 14.9203 5.58166 14.8591C5.56123 14.8132 5.51604 14.7863 5.46891 14.7872V14.7872ZM18.5309 14.7918C18.4838 14.7907 18.4386 14.8177 18.4181 14.8636C18.3908 14.9248 18.4181 14.996 18.4793 15.0233L19.0152 15.2624C19.0764 15.2897 19.1477 15.2624 19.175 15.2012C19.2023 15.14 19.175 15.0688 19.1138 15.0415L18.5779 14.8024C18.5626 14.7955 18.5466 14.7922 18.5309 14.7918V14.7918ZM6.51273 15.0539C6.48952 15.0522 6.46554 15.0574 6.44377 15.07L5.23563 15.7675C5.1776 15.801 5.15786 15.8747 5.19137 15.9327C5.22487 15.9907 5.29854 16.0105 5.35657 15.977L6.56472 15.2795C6.62275 15.246 6.64249 15.1723 6.60899 15.1142C6.58804 15.078 6.55143 15.0566 6.51273 15.0539V15.0539ZM17.4891 15.0539C17.4504 15.0565 17.4137 15.078 17.3928 15.1142C17.3593 15.1722 17.379 15.246 17.437 15.2795L18.6452 15.977C18.7032 16.0105 18.7769 15.9907 18.8104 15.9327C18.8439 15.8747 18.8242 15.801 18.7662 15.7675L17.558 15.07C17.5362 15.0574 17.5123 15.0523 17.4891 15.0539V15.0539ZM6.21138 16.0776C6.18811 16.0784 6.16481 16.0859 6.14447 16.1007L5.6695 16.4453C5.61527 16.4846 5.60327 16.56 5.64261 16.6142C5.68196 16.6685 5.7573 16.6804 5.81153 16.6411L6.28654 16.2965C6.34078 16.2571 6.35277 16.1818 6.31343 16.1276C6.28884 16.0937 6.25016 16.0762 6.21138 16.0775V16.0776ZM17.7875 16.0816C17.7487 16.0802 17.7101 16.0977 17.6855 16.1315C17.6461 16.1857 17.658 16.2611 17.7122 16.3005L18.187 16.6454C18.2412 16.6848 18.3165 16.6729 18.3559 16.6187C18.3953 16.5644 18.3834 16.4891 18.3292 16.4497L17.8544 16.1048C17.8341 16.09 17.8108 16.0824 17.7875 16.0816L17.7875 16.0816ZM7.2871 16.1234C7.25623 16.1217 7.22474 16.132 7.19982 16.1543L6.16232 17.087C6.11249 17.1318 6.10844 17.2079 6.15324 17.2578C6.19803 17.3076 6.2742 17.3117 6.32404 17.2669L7.36154 16.3342C7.41137 16.2894 7.41542 16.2133 7.37062 16.1634C7.34824 16.1385 7.31797 16.125 7.2871 16.1234ZM16.7118 16.1267C16.6809 16.1284 16.6506 16.1418 16.6282 16.1667C16.5834 16.2165 16.5874 16.2927 16.6372 16.3375L17.674 17.2709C17.7238 17.3157 17.8 17.3117 17.8449 17.2619C17.8897 17.2121 17.8857 17.1359 17.8359 17.0911L16.799 16.1577C16.7741 16.1353 16.7427 16.1251 16.7118 16.1267V16.1267ZM8.27136 17.0128C8.23259 17.0113 8.1939 17.0287 8.16926 17.0625L7.34859 18.1907C7.30917 18.2449 7.32104 18.3202 7.3752 18.3596C7.42938 18.3991 7.50475 18.3872 7.54417 18.333L8.36484 17.2049C8.40426 17.1507 8.3924 17.0753 8.33824 17.0359C8.31792 17.0211 8.29463 17.0136 8.27136 17.0128ZM15.7237 17.0178C15.7004 17.0187 15.6771 17.0261 15.6567 17.0409C15.6025 17.0802 15.5905 17.1556 15.6298 17.2098L16.449 18.339C16.4883 18.3933 16.5637 18.4052 16.6179 18.3659C16.6722 18.3266 16.6841 18.2512 16.6448 18.197L15.8257 17.0678C15.8011 17.0339 15.7624 17.0165 15.7237 17.0178V17.0178ZM7.21193 17.192C7.18106 17.1938 7.15078 17.2071 7.12837 17.232L6.73572 17.6681C6.69088 17.7179 6.69485 17.7941 6.74466 17.839C6.79445 17.8838 6.87062 17.8798 6.91545 17.83L7.30814 17.3939C7.35299 17.3441 7.34897 17.2679 7.29918 17.223C7.27427 17.2006 7.24283 17.1904 7.21195 17.192L7.21193 17.192ZM16.7891 17.1926C16.7582 17.1909 16.7268 17.2012 16.7019 17.2236C16.6521 17.2685 16.6481 17.3446 16.6929 17.3944L17.0855 17.8306C17.1303 17.8804 17.2065 17.8844 17.2563 17.8396C17.3061 17.7947 17.3101 17.7185 17.2652 17.6687L16.8726 17.2326C16.8502 17.2077 16.8199 17.1942 16.7891 17.1926L16.7891 17.1926ZM9.4174 17.6764C9.37027 17.6753 9.32512 17.7022 9.30465 17.7481L8.73625 19.0221C8.70896 19.0833 8.73624 19.1546 8.79743 19.1819C8.85862 19.2092 8.92986 19.1819 8.95716 19.1207L9.52555 17.8467C9.55285 17.7855 9.52557 17.7142 9.46437 17.6869C9.44909 17.6801 9.43311 17.6767 9.4174 17.6764ZM14.5767 17.6799C14.561 17.6802 14.545 17.6836 14.5297 17.6904C14.4685 17.7176 14.4411 17.7888 14.4683 17.85L15.0349 19.1248C15.0622 19.186 15.1334 19.2134 15.1946 19.1862C15.2558 19.159 15.2832 19.0878 15.256 19.0266L14.6894 17.7518C14.669 17.7059 14.6238 17.679 14.5767 17.6799ZM8.41862 18.0703C8.37992 18.0729 8.3433 18.0943 8.32236 18.1306L8.02895 18.6388C7.99545 18.6968 8.01519 18.7705 8.07322 18.804C8.13124 18.8375 8.20493 18.8178 8.23843 18.7597L8.53184 18.2515C8.56534 18.1935 8.54561 18.1198 8.48758 18.0863C8.46583 18.0738 8.44184 18.0687 8.41862 18.0703V18.0703ZM15.5831 18.0703C15.5599 18.0686 15.536 18.0738 15.5142 18.0863C15.4562 18.1198 15.4365 18.1935 15.47 18.2515L15.7634 18.7598C15.7969 18.8178 15.8706 18.8375 15.9286 18.804C15.9866 18.7705 16.0064 18.6968 15.9729 18.6388L15.6794 18.1306C15.6585 18.0943 15.6218 18.073 15.5831 18.0703V18.0703ZM10.6827 18.0885C10.6264 18.0879 10.5759 18.127 10.5637 18.1844L10.2738 19.549C10.2599 19.6145 10.3015 19.6785 10.367 19.6924C10.4325 19.7064 10.4965 19.6648 10.5104 19.5993L10.8004 18.2346C10.8143 18.1691 10.7727 18.1051 10.7072 18.0912C10.699 18.0895 10.6908 18.0886 10.6828 18.0886L10.6827 18.0885ZM13.3147 18.0894C13.3067 18.0894 13.2986 18.0902 13.2904 18.092C13.2248 18.1058 13.1832 18.1698 13.1971 18.2353L13.486 19.6002C13.4999 19.6657 13.5638 19.7073 13.6294 19.6934C13.6949 19.6796 13.7365 19.6156 13.7227 19.55L13.4337 18.1853C13.4215 18.1279 13.3711 18.0889 13.3147 18.0893L13.3147 18.0894ZM12.0009 18.227C11.9339 18.227 11.8799 18.281 11.8799 18.348V19.743C11.8799 19.8101 11.9339 19.864 12.0009 19.864C12.0679 19.864 12.1218 19.8101 12.1218 19.743V18.348C12.1218 18.281 12.0679 18.227 12.0009 18.227ZM9.78075 18.6778C9.73378 18.6818 9.69163 18.7132 9.6761 18.761L9.4947 19.3191C9.47399 19.3829 9.50861 19.4508 9.57233 19.4716C9.63605 19.4923 9.70403 19.4576 9.72475 19.3939L9.90614 18.8358C9.92685 18.7721 9.89223 18.7041 9.82852 18.6834C9.8126 18.6782 9.79641 18.6765 9.78075 18.6778V18.6778ZM14.2201 18.6781C14.2044 18.6767 14.1882 18.6784 14.1723 18.6837C14.1086 18.7044 14.0739 18.7724 14.0946 18.8361L14.276 19.3942C14.2967 19.4579 14.3647 19.4925 14.4284 19.4718C14.4921 19.4511 14.5268 19.3832 14.5061 19.3194L14.3247 18.7613C14.3091 18.7135 14.267 18.6821 14.2201 18.6781V18.6781ZM11.2417 18.989C11.1856 18.9944 11.1394 19.0384 11.1333 19.0967L11.0719 19.6803C11.0649 19.747 11.1129 19.8062 11.1796 19.8132C11.2462 19.8202 11.3055 19.7722 11.3125 19.7056L11.3739 19.122C11.3809 19.0554 11.3329 18.9961 11.2662 18.9891C11.2579 18.9882 11.2497 18.9882 11.2417 18.989L11.2417 18.989ZM12.7552 18.9895C12.7472 18.9887 12.7389 18.9887 12.7306 18.9896C12.664 18.9966 12.6159 19.0558 12.6229 19.1225L12.6838 19.7062C12.6908 19.7728 12.75 19.8208 12.8167 19.8139C12.8833 19.8069 12.9314 19.7476 12.9244 19.681L12.8635 19.0974C12.8574 19.0391 12.8113 18.995 12.7552 18.9895L12.7552 18.9895Z" fill="#F4F2F3"/>
<g opacity="0.409" filter="url(#filter1_f_4475_59705)">
<path d="M17.6697 7.16309L11.0525 11.0077L6.86865 17.5943L12.9893 13.0608L17.6697 7.16309Z" fill="black"/>
</g>
<path d="M12.9491 12.9939L11.0524 11.0077L17.7807 6.48153L12.9491 12.9939Z" fill="#FF5150"/>
<path d="M12.9492 12.994L11.0525 11.0077L6.22085 17.5201L12.9492 12.994Z" fill="#F1F1F1"/>
<path opacity="0.243" d="M6.22095 17.5201L12.9493 12.994L17.7809 6.48157L6.22095 17.5201Z" fill="black"/>
</g>
<defs>
<filter id="filter0_f_4475_59705" x="-0.6698" y="0.38855" width="25.3414" height="24.6986" filterUnits="userSpaceOnUse" color-interpolation-filters="sRGB">
<feFlood flood-opacity="0" result="BackgroundImageFix"/>
<feBlend mode="normal" in="SourceGraphic" in2="BackgroundImageFix" result="shape"/>
<feGaussianBlur stdDeviation="2" result="effect1_foregroundBlur_4475_59705"/>
</filter>
<filter id="filter1_f_4475_59705" x="4.3238" y="4.61823" width="15.8907" height="15.5209" filterUnits="userSpaceOnUse" color-interpolation-filters="sRGB">
<feFlood flood-opacity="0" result="BackgroundImageFix"/>
<feBlend mode="normal" in="SourceGraphic" in2="BackgroundImageFix" result="shape"/>
<feGaussianBlur stdDeviation="1.27243" result="effect1_foregroundBlur_4475_59705"/>
</filter>
<linearGradient id="paint0_linear_4475_59705" x1="12.0009" y1="21.0018" x2="12.0009" y2="3" gradientUnits="userSpaceOnUse">
<stop stop-color="#BDBDBD"/>
<stop offset="1" stop-color="white"/>
</linearGradient>
<radialGradient id="paint1_radial_4475_59705" cx="0" cy="0" r="1" gradientUnits="userSpaceOnUse" gradientTransform="translate(12.0385 10.7914) scale(9.00093 9.00092)">
<stop stop-color="#06C2E7"/>
<stop offset="0.25" stop-color="#0DB8EC"/>
<stop offset="0.5" stop-color="#12AEF1"/>
<stop offset="0.75" stop-color="#1F86F9"/>
<stop offset="1" stop-color="#107DDD"/>
</radialGradient>
<clipPath id="clip0_4475_59705">
<rect width="24" height="24" fill="white"/>
</clipPath>
</defs>
</svg>
