<svg width="24" height="24" viewBox="0 0 24 24" fill="none" xmlns="http://www.w3.org/2000/svg">
<circle cx="12" cy="12" r="9" fill="#1ED760"/>
<path d="M15.7038 15.7486C15.5527 16.0017 15.2305 16.0725 14.9787 15.9207C12.9947 14.7062 10.5072 14.433 7.56646 15.1009C7.28448 15.1616 7.00249 14.9896 6.94206 14.7062C6.88164 14.4228 7.05284 14.1395 7.33483 14.0787C10.5475 13.3399 13.3069 13.6537 15.5225 15.02C15.7743 15.1718 15.8549 15.4956 15.7038 15.7486ZM16.731 13.4411C16.5397 13.7549 16.1368 13.846 15.8246 13.6638C13.5587 12.257 10.1043 11.8522 7.42547 12.672C7.07299 12.7732 6.71043 12.5809 6.60972 12.2368C6.50901 11.8826 6.70036 11.5182 7.05284 11.417C10.1144 10.4859 13.9212 10.9312 16.5296 12.5404C16.8217 12.7226 16.9224 13.1274 16.731 13.4411ZM16.8217 11.0325C14.1025 9.41316 9.62094 9.26136 7.02263 10.0508C6.60972 10.1823 6.1666 9.94955 6.03568 9.52449C5.90476 9.10955 6.14646 8.66424 6.55937 8.53268C9.54037 7.62183 14.4953 7.804 17.6173 9.66618C17.9899 9.88883 18.1108 10.3746 17.8892 10.7491C17.6777 11.1337 17.1943 11.2652 16.8217 11.0325Z" fill="white"/>
</svg>
