<svg width="24" height="24" viewBox="0 0 24 24" fill="none" xmlns="http://www.w3.org/2000/svg">
<path d="M12 3C7.03594 3 3 7.03594 3 12C3 16.9641 7.03594 21 12 21C16.9641 21 21 16.9641 21 12C21 7.03594 16.9641 3 12 3Z" fill="#021B33"/>
<path d="M10.8636 6C10.8636 7.88652 8.63636 9.33333 8 9.33333V11.3333H9.90909V15.3333C9.90909 16.8061 11.0487 18 12.4545 18H15V15.305C14.7487 15.305 13.7591 15.305 13.0904 15.305C12.739 15.305 12.4545 15.0065 12.4545 14.6383V11.3333H15V8.66667H12.4545V6H10.8636Z" fill="white"/>
</svg>
