<svg width="600" height="400" viewBox="0 0 600 400" fill="none" xmlns="http://www.w3.org/2000/svg">
<g clip-path="url(#clip0_129_12217)">
<path d="M10 173.533L153.942 258L306 171.379L162.912 77L10 173.533Z" fill="url(#paint0_linear_129_12217)"/>
<path d="M218 243.774L362.531 325L420 292.164L278.471 201L218 243.774Z" fill="url(#paint1_linear_129_12217)"/>
<path d="M153 257.818V138.165C153 134.18 155.145 130.498 158.623 128.512L302.704 46.2306C303.854 45.5738 305.289 46.3982 305.289 47.7157V170.646L390.326 221.35C392.527 222.663 392.565 225.818 390.395 227.182L253.165 313.469C252.078 314.152 250.698 314.178 249.586 313.536L153 257.818Z" fill="url(#paint2_linear_129_12217)"/>
<path d="M250.687 307L158 253.842L304.754 170L388 219.268L380.276 224.886L352.384 243.47L250.687 307Z" fill="url(#paint3_linear_129_12217)"/>
<path d="M234.034 288.505L186 259.6L310.973 188L353.332 213.152C355.549 214.469 355.558 217.646 353.347 218.974L237.602 288.506C236.505 289.165 235.13 289.164 234.034 288.505Z" fill="url(#paint4_linear_129_12217)"/>
<path d="M158 255V139.683C158 136.258 159.832 133.1 162.793 131.421L302.453 52.2238C303.592 51.5777 305 52.4078 305 53.7259V170.554L158 255Z" fill="url(#paint5_linear_129_12217)"/>
<path d="M173 213.589V150.081C173 148.241 173.997 146.543 175.61 145.636L279.437 87.2241C280.581 86.5803 282 87.4004 282 88.7056V155.341C282 156.561 281.343 157.687 280.278 158.294L178.144 216.542C175.855 217.847 173 216.208 173 213.589Z" fill="url(#paint6_linear_129_12217)"/>
<path fill-rule="evenodd" clip-rule="evenodd" d="M335 185.747L183.431 274L183 273.253L334.569 185L335 185.747Z" fill="url(#paint7_radial_129_12217)" fill-opacity="0.2"/>
<path fill-rule="evenodd" clip-rule="evenodd" d="M344 192.747L191.434 281L191 280.253L343.566 192L344 192.747Z" fill="url(#paint8_radial_129_12217)" fill-opacity="0.2"/>
<path fill-rule="evenodd" clip-rule="evenodd" d="M352 197.738L200.431 285L200 284.262L351.569 197L352 197.738Z" fill="url(#paint9_radial_129_12217)" fill-opacity="0.2"/>
<path fill-rule="evenodd" clip-rule="evenodd" d="M359 203.747L209.426 292L209 291.253L358.574 203L359 203.747Z" fill="url(#paint10_radial_129_12217)" fill-opacity="0.2"/>
<path fill-rule="evenodd" clip-rule="evenodd" d="M250.594 279L202 252.763L202.406 252L251 278.237L250.594 279Z" fill="url(#paint11_radial_129_12217)" fill-opacity="0.2"/>
<path fill-rule="evenodd" clip-rule="evenodd" d="M263.588 271L215 245.74L215.412 245L264 270.26L263.588 271Z" fill="url(#paint12_radial_129_12217)" fill-opacity="0.2"/>
<path fill-rule="evenodd" clip-rule="evenodd" d="M339.594 228L291 201.763L291.406 201L340 227.237L339.594 228Z" fill="url(#paint13_radial_129_12217)" fill-opacity="0.2"/>
<path fill-rule="evenodd" clip-rule="evenodd" d="M352.596 220L305 193.769L305.404 193L353 219.231L352.596 220Z" fill="url(#paint14_radial_129_12217)" fill-opacity="0.2"/>
<path fill-rule="evenodd" clip-rule="evenodd" d="M266.6 258L229 237.746L229.4 237L267 257.254L266.6 258Z" fill="url(#paint15_radial_129_12217)" fill-opacity="0.2"/>
<path fill-rule="evenodd" clip-rule="evenodd" d="M279.59 250L241 230.711L241.41 230L280 249.289L279.59 250Z" fill="url(#paint16_radial_129_12217)" fill-opacity="0.2"/>
<path fill-rule="evenodd" clip-rule="evenodd" d="M290.6 244L253 222.782L253.4 222L291 243.218L290.6 244Z" fill="url(#paint17_radial_129_12217)" fill-opacity="0.2"/>
<path fill-rule="evenodd" clip-rule="evenodd" d="M303.568 237L263 215.782L263.432 215L304 236.218L303.568 237Z" fill="url(#paint18_radial_129_12217)" fill-opacity="0.2"/>
<path fill-rule="evenodd" clip-rule="evenodd" d="M315.6 230L278 208.782L278.4 208L316 229.218L315.6 230Z" fill="url(#paint19_radial_129_12217)" fill-opacity="0.2"/>
<path fill-rule="evenodd" clip-rule="evenodd" d="M465.141 239.16V179H466V239.16C466 241.786 464.578 244.208 462.28 245.496L370.422 297L370 296.255L461.859 244.75C463.886 243.614 465.141 241.477 465.141 239.16Z" fill="url(#paint20_radial_129_12217)" fill-opacity="0.6"/>
<path d="M187 263.552V260.534L236.798 288.552L357 217V220.448L236.798 292L187 263.552Z" fill="url(#paint21_linear_129_12217)"/>
<path d="M361 217.238C361 216.001 361.668 214.86 362.749 214.252L422.877 180.447C425.167 179.159 428 180.81 428 183.432V284.922C428 287.369 426.692 289.631 424.567 290.856L366.155 324.535C363.865 325.856 361 324.207 361 321.568V217.238Z" fill="url(#paint22_linear_129_12217)"/>
<path d="M364 220.038C363.989 218.787 364.662 217.629 365.758 217.012L420.407 186.227C421.565 185.575 423 186.405 423 187.725V282.259C423 283.479 422.351 284.607 421.292 285.227L367.442 316.758C366.291 317.433 364.836 316.616 364.825 315.29L364 220.038Z" fill="url(#paint23_linear_129_12217)"/>
<path d="M373 253.14V225.174C373 224.549 373.338 223.973 373.883 223.671L412.733 202.108C413.302 201.792 414 202.206 414 202.86V229.713C414 230.325 413.676 230.891 413.15 231.198L374.283 253.883C373.714 254.215 373 253.802 373 253.14Z" fill="url(#paint24_linear_129_12217)"/>
<path d="M373 268V263.339L414 240V244.349L373 268Z" fill="url(#paint25_linear_129_12217)"/>
<path d="M373 275.168V272.547C373 272.254 373.167 271.982 373.439 271.832L405.649 254.117C406.246 253.789 407 254.188 407 254.832V257.163C407 257.455 406.836 257.725 406.567 257.875L374.356 275.88C373.76 276.213 373 275.814 373 275.168Z" fill="url(#paint26_linear_129_12217)"/>
<path fill-rule="evenodd" clip-rule="evenodd" d="M350.379 64L431 106.214L430.621 107L350 64.7858L350.379 64Z" fill="url(#paint27_radial_129_12217)" fill-opacity="0.6"/>
<path d="M438 82.4701C438 79.8793 440.758 78.2046 443.08 79.3855L477.101 96.6878C478.267 97.2806 479 98.4718 479 99.7725V191.53C479 194.128 476.227 195.802 473.905 194.607L439.884 177.091C438.726 176.496 438 175.309 438 174.015V82.4701Z" fill="url(#paint28_linear_129_12217)"/>
<path fill-rule="evenodd" clip-rule="evenodd" d="M447.249 86.3945L439 82V168.114C439 169.373 439.674 170.533 440.761 171.146L469.904 187.557C472.19 188.844 475 187.172 475 184.525V103.272C475 101.984 474.295 100.802 473.168 100.202L467.554 97.2114L467.633 98.8586C467.665 99.5272 466.968 99.9788 466.381 99.67L447.843 89.9166C447.573 89.7742 447.397 89.4971 447.382 89.1888L447.249 86.3945Z" fill="url(#paint29_linear_129_12217)"/>
<path d="M470 140.151V112.523C470 111.881 469.637 111.293 469.062 111.006L443.228 98.0907C442.664 97.8086 442 98.2187 442 98.8491V125.406C442 126.029 442.341 126.601 442.889 126.898L468.747 140.896C469.313 141.203 470 140.793 470 140.151Z" fill="url(#paint30_linear_129_12217)"/>
<path d="M470 154V149.193L442 133V137.485L470 154Z" fill="url(#paint31_linear_129_12217)"/>
<path fill-rule="evenodd" clip-rule="evenodd" d="M282.856 95V291.68C282.856 296.714 288.341 299.806 292.619 297.186L342.554 266.594L343 267.328L293.065 297.92C288.216 300.89 282 297.385 282 291.68V95H282.856Z" fill="url(#paint32_radial_129_12217)" fill-opacity="0.6"/>
<path d="M183.58 201.297C185.281 197.918 183.58 189.262 188.318 182.586C189.31 181.187 194.053 190.383 193.895 187.113C193.737 183.844 197.334 174.219 200.342 172.5C201.688 171.731 202.061 175.939 202.491 175.939C202.491 175.939 204.234 158.747 208.078 158.747C208.508 158.747 208.508 163.474 208.938 163.475C209.368 163.475 211.517 154.449 214.525 154.449C214.955 154.449 218.199 161.765 219.683 162.615C222.049 156.701 225.38 162.814 226.356 163.449L226.56 163.475C232.577 157.811 236.445 169.062 236.445 169.062L183.58 201.297Z" fill="url(#paint33_linear_129_12217)"/>
<mask id="mask0_129_12217" style="mask-type:alpha" maskUnits="userSpaceOnUse" x="193" y="71" width="108" height="132">
<path d="M193 199.536V135.051C193 133.183 193.988 131.46 195.586 130.538L298.46 71.2275C299.594 70.5739 301 71.4066 301 72.7318V140.393C301 141.631 300.349 142.774 299.294 143.391L198.097 202.535C195.829 203.86 193 202.196 193 199.536Z" fill="white"/>
</mask>
<g mask="url(#mask0_129_12217)">
<path d="M247.131 126.667L250.131 125V162.5L247.131 165V126.667Z" fill="url(#paint34_linear_129_12217)"/>
<path d="M252.131 139.655L255.131 138V159.517L252.131 162V139.655Z" fill="url(#paint35_linear_129_12217)"/>
<path d="M262.131 132.724L265.131 131V153.414L262.131 156V132.724Z" fill="url(#paint36_linear_129_12217)"/>
<path d="M267.131 128.793L270.131 127V150.31L267.131 153V128.793Z" fill="url(#paint37_linear_129_12217)"/>
<path d="M272.131 136.966L275.131 136V148.552L272.131 150V136.966Z" fill="url(#paint38_linear_129_12217)"/>
<path d="M257 126.744L260 125V156.385L257 159V126.744Z" fill="url(#paint39_linear_129_12217)"/>
</g>
<path d="M181 152.019L212 135V139.981L181 157V152.019Z" fill="url(#paint40_linear_129_12217)"/>
<path fill-rule="evenodd" clip-rule="evenodd" d="M122.675 167.304L11 98.7355L11.4477 98L123.123 166.569C127.824 169.455 127.765 176.334 123.014 179.138L59.7078 216.503C55.4736 219.002 55.4731 225.151 59.7069 227.651L307.585 374.008C309.56 375.174 312.002 375.198 314 374.071L439.269 303.399C441.548 302.113 444.337 302.15 446.581 303.495L638 418.26L637.56 419L446.142 304.236C444.161 303.048 441.7 303.016 439.69 304.15L314.42 374.823C312.156 376.1 309.388 376.072 307.15 374.751L59.2719 228.394C54.4737 225.561 54.4742 218.592 59.273 215.759L122.579 178.395C126.771 175.921 126.824 169.851 122.675 167.304Z" fill="url(#paint41_radial_129_12217)"/>
<path d="M282 196.401L299 186V206.498L282 217V196.401Z" fill="url(#paint42_linear_129_12217)"/>
<path d="M282 196.401L265 186V206.498L282 217V196.401Z" fill="url(#paint43_linear_129_12217)"/>
<path d="M265 186L281.854 176L299 186L282 196.5L265 186Z" fill="url(#paint44_linear_129_12217)"/>
<path d="M296.501 41.9936L317 29.8677V53.7664L296.501 66.01V41.9936Z" fill="url(#paint45_linear_129_12217)"/>
<path d="M296.501 41.9936L276.003 29.8677V53.7664L296.501 66.01V41.9936Z" fill="url(#paint46_linear_129_12217)"/>
<path d="M276 29.9017L296.322 18L316.997 29.9017L296.322 42.2747L276 29.9017Z" fill="url(#paint47_linear_129_12217)"/>
<path d="M343.042 77.4135L351.085 72.6561V82.0323L343.042 86.8359V77.4135Z" fill="url(#paint48_linear_129_12217)"/>
<path d="M343.042 77.4135L335 72.6561V82.0323L343.042 86.8359V77.4135Z" fill="url(#paint49_linear_129_12217)"/>
<path d="M335 72.6695L342.974 68.0001L351.085 72.6695L342.974 77.5239L335 72.6695Z" fill="url(#paint50_linear_129_12217)"/>
<path d="M407.741 32.6788L411.166 30.653V34.6457L407.741 36.6913V32.6788Z" fill="url(#paint51_linear_129_12217)"/>
<path d="M407.741 32.6788L404.316 30.653V34.6457L407.741 36.6913V32.6788Z" fill="url(#paint52_linear_129_12217)"/>
<path d="M404.316 30.6586L407.712 28.6702L411.166 30.6586L407.712 32.7258L404.316 30.6586Z" fill="url(#paint53_linear_129_12217)"/>
</g>
<defs>
<linearGradient id="paint0_linear_129_12217" x1="219.72" y1="247.226" x2="126.879" y2="179.065" gradientUnits="userSpaceOnUse">
<stop stop-color="#F02E65"/>
<stop offset="1" stop-color="#F02E65" stop-opacity="0"/>
</linearGradient>
<linearGradient id="paint1_linear_129_12217" x1="433.724" y1="331.913" x2="347.918" y2="267.283" gradientUnits="userSpaceOnUse">
<stop stop-color="#F02E65"/>
<stop offset="1" stop-color="#F02E65" stop-opacity="0"/>
</linearGradient>
<linearGradient id="paint2_linear_129_12217" x1="-344.968" y1="220.356" x2="699.378" y2="354.525" gradientUnits="userSpaceOnUse">
<stop stop-color="#3E435A"/>
<stop offset="1" stop-color="#3C4158"/>
</linearGradient>
<linearGradient id="paint3_linear_129_12217" x1="383" y1="158" x2="52.5" y2="299.5" gradientUnits="userSpaceOnUse">
<stop stop-color="#1B1B28"/>
<stop offset="1" stop-color="#282A3B" stop-opacity="0"/>
</linearGradient>
<linearGradient id="paint4_linear_129_12217" x1="294.5" y1="238" x2="201" y2="327.5" gradientUnits="userSpaceOnUse">
<stop stop-color="#373B4D"/>
<stop offset="1" stop-color="#373B4D" stop-opacity="0"/>
</linearGradient>
<linearGradient id="paint5_linear_129_12217" x1="424.5" y1="65.5" x2="17.3698" y2="339.823" gradientUnits="userSpaceOnUse">
<stop stop-color="#1B1B28"/>
<stop offset="1" stop-color="#373B4D"/>
</linearGradient>
<linearGradient id="paint6_linear_129_12217" x1="170.425" y1="205.425" x2="383.489" y2="101.071" gradientUnits="userSpaceOnUse">
<stop stop-color="#373B4D"/>
<stop offset="1" stop-color="#2C3041"/>
</linearGradient>
<radialGradient id="paint7_radial_129_12217" cx="0" cy="0" r="1" gradientUnits="userSpaceOnUse" gradientTransform="translate(259 229.5) rotate(90) scale(44.1266 75.7844)">
<stop stop-color="#F7F7F7"/>
<stop offset="1" stop-color="#F7F7F7" stop-opacity="0"/>
</radialGradient>
<radialGradient id="paint8_radial_129_12217" cx="0" cy="0" r="1" gradientUnits="userSpaceOnUse" gradientTransform="translate(267.5 236.5) rotate(90) scale(44.1266 76.283)">
<stop stop-color="#F7F7F7"/>
<stop offset="1" stop-color="#F7F7F7" stop-opacity="0"/>
</radialGradient>
<radialGradient id="paint9_radial_129_12217" cx="0" cy="0" r="1" gradientUnits="userSpaceOnUse" gradientTransform="translate(276 241) rotate(90) scale(43.6308 75.7844)">
<stop stop-color="#F7F7F7"/>
<stop offset="1" stop-color="#F7F7F7" stop-opacity="0"/>
</radialGradient>
<radialGradient id="paint10_radial_129_12217" cx="0" cy="0" r="1" gradientUnits="userSpaceOnUse" gradientTransform="translate(284 247.5) rotate(90) scale(44.1266 74.7872)">
<stop stop-color="#F7F7F7"/>
<stop offset="1" stop-color="#F7F7F7" stop-opacity="0"/>
</radialGradient>
<radialGradient id="paint11_radial_129_12217" cx="0" cy="0" r="1" gradientUnits="userSpaceOnUse" gradientTransform="translate(226.5 265.5) rotate(90) scale(13.1183 24.2972)">
<stop stop-color="#F7F7F7"/>
<stop offset="1" stop-color="#F7F7F7" stop-opacity="0"/>
</radialGradient>
<radialGradient id="paint12_radial_129_12217" cx="0" cy="0" r="1" gradientUnits="userSpaceOnUse" gradientTransform="translate(239.5 258) rotate(90) scale(12.63 24.2939)">
<stop stop-color="#F7F7F7"/>
<stop offset="1" stop-color="#F7F7F7" stop-opacity="0"/>
</radialGradient>
<radialGradient id="paint13_radial_129_12217" cx="0" cy="0" r="1" gradientUnits="userSpaceOnUse" gradientTransform="translate(315.5 214.5) rotate(90) scale(13.1183 24.2972)">
<stop stop-color="#F7F7F7"/>
<stop offset="1" stop-color="#F7F7F7" stop-opacity="0"/>
</radialGradient>
<radialGradient id="paint14_radial_129_12217" cx="0" cy="0" r="1" gradientUnits="userSpaceOnUse" gradientTransform="translate(329 206.5) rotate(90) scale(13.1157 23.7981)">
<stop stop-color="#F7F7F7"/>
<stop offset="1" stop-color="#F7F7F7" stop-opacity="0"/>
</radialGradient>
<radialGradient id="paint15_radial_129_12217" cx="0" cy="0" r="1" gradientUnits="userSpaceOnUse" gradientTransform="translate(248 247.5) rotate(90) scale(10.1268 18.8)">
<stop stop-color="#F7F7F7"/>
<stop offset="1" stop-color="#F7F7F7" stop-opacity="0"/>
</radialGradient>
<radialGradient id="paint16_radial_129_12217" cx="0" cy="0" r="1" gradientUnits="userSpaceOnUse" gradientTransform="translate(260.5 240) rotate(90) scale(9.64456 19.2948)">
<stop stop-color="#F7F7F7"/>
<stop offset="1" stop-color="#F7F7F7" stop-opacity="0"/>
</radialGradient>
<radialGradient id="paint17_radial_129_12217" cx="0" cy="0" r="1" gradientUnits="userSpaceOnUse" gradientTransform="translate(272 233) rotate(90) scale(10.609 18.8)">
<stop stop-color="#F7F7F7"/>
<stop offset="1" stop-color="#F7F7F7" stop-opacity="0"/>
</radialGradient>
<radialGradient id="paint18_radial_129_12217" cx="0" cy="0" r="1" gradientUnits="userSpaceOnUse" gradientTransform="translate(283.5 226) rotate(90) scale(10.609 20.2842)">
<stop stop-color="#F7F7F7"/>
<stop offset="1" stop-color="#F7F7F7" stop-opacity="0"/>
</radialGradient>
<radialGradient id="paint19_radial_129_12217" cx="0" cy="0" r="1" gradientUnits="userSpaceOnUse" gradientTransform="translate(297 219) rotate(90) scale(10.609 18.8)">
<stop stop-color="#F7F7F7"/>
<stop offset="1" stop-color="#F7F7F7" stop-opacity="0"/>
</radialGradient>
<radialGradient id="paint20_radial_129_12217" cx="0" cy="0" r="1" gradientUnits="userSpaceOnUse" gradientTransform="translate(473.302 237.6) rotate(145.202) scale(50.2171 40.4795)">
<stop stop-color="#F02E65"/>
<stop offset="1" stop-color="#F02E65" stop-opacity="0"/>
</radialGradient>
<linearGradient id="paint21_linear_129_12217" x1="193.5" y1="347.5" x2="668.828" y2="138.887" gradientUnits="userSpaceOnUse">
<stop stop-color="#282A3B"/>
<stop offset="1" stop-color="#2E3453"/>
</linearGradient>
<linearGradient id="paint22_linear_129_12217" x1="412.538" y1="138.582" x2="397.582" y2="333.082" gradientUnits="userSpaceOnUse">
<stop stop-color="#292D44"/>
<stop offset="1" stop-color="#373B4D"/>
</linearGradient>
<linearGradient id="paint23_linear_129_12217" x1="412.585" y1="126.195" x2="421.125" y2="332.925" gradientUnits="userSpaceOnUse">
<stop stop-color="#25283C"/>
<stop offset="1" stop-color="#282A3B"/>
</linearGradient>
<linearGradient id="paint24_linear_129_12217" x1="373" y1="236.174" x2="431.929" y2="221.119" gradientUnits="userSpaceOnUse">
<stop stop-color="#34384A"/>
<stop offset="1" stop-color="#454B5D"/>
</linearGradient>
<linearGradient id="paint25_linear_129_12217" x1="373" y1="240" x2="435.332" y2="266.182" gradientUnits="userSpaceOnUse">
<stop stop-color="#373B4D"/>
<stop offset="1" stop-color="#333A56"/>
</linearGradient>
<linearGradient id="paint26_linear_129_12217" x1="365.395" y1="276.638" x2="438.324" y2="274.214" gradientUnits="userSpaceOnUse">
<stop stop-color="#373B4D"/>
<stop offset="1" stop-color="#373B4D"/>
</linearGradient>
<radialGradient id="paint27_radial_129_12217" cx="0" cy="0" r="1" gradientUnits="userSpaceOnUse" gradientTransform="translate(395.354 82.4219) rotate(90) scale(24.1852 46.1891)">
<stop stop-color="#F02E65"/>
<stop offset="1" stop-color="#F02E65" stop-opacity="0"/>
</radialGradient>
<linearGradient id="paint28_linear_129_12217" x1="506.043" y1="-487.649" x2="460.435" y2="247.086" gradientUnits="userSpaceOnUse">
<stop stop-color="#2D3147"/>
<stop offset="1" stop-color="#34384B"/>
</linearGradient>
<linearGradient id="paint29_linear_129_12217" x1="391" y1="-559.887" x2="466.038" y2="267.468" gradientUnits="userSpaceOnUse">
<stop stop-color="#282A3B"/>
<stop offset="1" stop-color="#282A3B"/>
</linearGradient>
<linearGradient id="paint30_linear_129_12217" x1="484.424" y1="133.942" x2="432.5" y2="133.847" gradientUnits="userSpaceOnUse">
<stop stop-color="#4F5769"/>
<stop offset="1" stop-color="#373B4D"/>
</linearGradient>
<linearGradient id="paint31_linear_129_12217" x1="470" y1="125.125" x2="407.406" y2="150.451" gradientUnits="userSpaceOnUse">
<stop stop-color="#373B4D"/>
<stop offset="1" stop-color="#383F5E"/>
</linearGradient>
<radialGradient id="paint32_radial_129_12217" cx="0" cy="0" r="1" gradientUnits="userSpaceOnUse" gradientTransform="translate(228.927 264.381) rotate(-41.8532) scale(239.041 92.135)">
<stop stop-color="#F02E65"/>
<stop offset="1" stop-color="#F02E65" stop-opacity="0"/>
</radialGradient>
<linearGradient id="paint33_linear_129_12217" x1="198.756" y1="161.95" x2="211.336" y2="187.777" gradientUnits="userSpaceOnUse">
<stop stop-color="#4F5769"/>
<stop offset="1" stop-color="#373B4D"/>
</linearGradient>
<linearGradient id="paint34_linear_129_12217" x1="248.631" y1="125" x2="248.631" y2="165" gradientUnits="userSpaceOnUse">
<stop stop-color="#4A5163"/>
<stop offset="1" stop-color="#3F4456"/>
</linearGradient>
<linearGradient id="paint35_linear_129_12217" x1="253.631" y1="138" x2="253.631" y2="162" gradientUnits="userSpaceOnUse">
<stop stop-color="#4A5163"/>
<stop offset="1" stop-color="#3F4456"/>
</linearGradient>
<linearGradient id="paint36_linear_129_12217" x1="263.631" y1="131" x2="263.631" y2="156" gradientUnits="userSpaceOnUse">
<stop stop-color="#4A5163"/>
<stop offset="1" stop-color="#3F4456"/>
</linearGradient>
<linearGradient id="paint37_linear_129_12217" x1="268.631" y1="127" x2="268.631" y2="153" gradientUnits="userSpaceOnUse">
<stop stop-color="#4A5163"/>
<stop offset="1" stop-color="#3F4456"/>
</linearGradient>
<linearGradient id="paint38_linear_129_12217" x1="273.631" y1="136" x2="273.631" y2="150" gradientUnits="userSpaceOnUse">
<stop stop-color="#4A5163"/>
<stop offset="1" stop-color="#3F4456"/>
</linearGradient>
<linearGradient id="paint39_linear_129_12217" x1="258.5" y1="125" x2="258.5" y2="159" gradientUnits="userSpaceOnUse">
<stop stop-color="#4A5163"/>
<stop offset="1" stop-color="#3F4456"/>
</linearGradient>
<linearGradient id="paint40_linear_129_12217" x1="163.347" y1="162.396" x2="216.261" y2="156.595" gradientUnits="userSpaceOnUse">
<stop stop-color="#F02E65"/>
<stop offset="1" stop-color="#F02E65" stop-opacity="0"/>
</linearGradient>
<radialGradient id="paint41_radial_129_12217" cx="0" cy="0" r="1" gradientUnits="userSpaceOnUse" gradientTransform="translate(201.766 312.594) rotate(29.046) scale(310.731 612.014)">
<stop stop-color="#F02E65"/>
<stop offset="1" stop-color="#F02E65" stop-opacity="0"/>
</radialGradient>
<linearGradient id="paint42_linear_129_12217" x1="339.926" y1="175.17" x2="289.175" y2="215.325" gradientUnits="userSpaceOnUse">
<stop stop-color="#F02E65"/>
<stop offset="1" stop-color="#F02E65" stop-opacity="0.53"/>
</linearGradient>
<linearGradient id="paint43_linear_129_12217" x1="251.463" y1="186.24" x2="270.436" y2="227.113" gradientUnits="userSpaceOnUse">
<stop stop-color="#F02E65"/>
<stop offset="1" stop-color="#F02E65" stop-opacity="0.16"/>
</linearGradient>
<linearGradient id="paint44_linear_129_12217" x1="267.519" y1="186.008" x2="308.759" y2="186.008" gradientUnits="userSpaceOnUse">
<stop stop-color="#F02E65"/>
<stop offset="1" stop-color="#F02E65" stop-opacity="0.49"/>
</linearGradient>
<linearGradient id="paint45_linear_129_12217" x1="366.349" y1="17.2409" x2="306.751" y2="66.01" gradientUnits="userSpaceOnUse">
<stop stop-color="#AC2D5A"/>
<stop offset="1" stop-color="#97325D"/>
</linearGradient>
<linearGradient id="paint46_linear_129_12217" x1="259.68" y1="30.1474" x2="281.317" y2="78.3572" gradientUnits="userSpaceOnUse">
<stop stop-color="#F02E65"/>
<stop offset="1" stop-color="#7C335B"/>
</linearGradient>
<linearGradient id="paint47_linear_129_12217" x1="279.037" y1="30.1473" x2="328.765" y2="30.1473" gradientUnits="userSpaceOnUse">
<stop stop-color="#DD2E62"/>
<stop offset="1" stop-color="#B62D5C"/>
</linearGradient>
<linearGradient id="paint48_linear_129_12217" x1="370.446" y1="67.7021" x2="347.064" y2="86.8359" gradientUnits="userSpaceOnUse">
<stop stop-color="#A12D59"/>
<stop offset="1" stop-color="#A1315E"/>
</linearGradient>
<linearGradient id="paint49_linear_129_12217" x1="328.596" y1="72.7658" x2="337.085" y2="91.6801" gradientUnits="userSpaceOnUse">
<stop stop-color="#B32E5C"/>
<stop offset="1" stop-color="#79335A"/>
</linearGradient>
<linearGradient id="paint50_linear_129_12217" x1="336.192" y1="72.7659" x2="355.702" y2="72.7659" gradientUnits="userSpaceOnUse">
<stop stop-color="#F02E65"/>
<stop offset="1" stop-color="#BE2D5D"/>
</linearGradient>
<linearGradient id="paint51_linear_129_12217" x1="419.411" y1="28.5434" x2="409.454" y2="36.6913" gradientUnits="userSpaceOnUse">
<stop stop-color="#A3315E"/>
<stop offset="1" stop-color="#96325D"/>
</linearGradient>
<linearGradient id="paint52_linear_129_12217" x1="401.589" y1="30.6997" x2="405.204" y2="38.7541" gradientUnits="userSpaceOnUse">
<stop stop-color="#9D2D58"/>
<stop offset="1" stop-color="#6F3359"/>
</linearGradient>
<linearGradient id="paint53_linear_129_12217" x1="404.824" y1="30.6997" x2="413.132" y2="30.6997" gradientUnits="userSpaceOnUse">
<stop stop-color="#C42E5E"/>
<stop offset="1" stop-color="#AF2D5B"/>
</linearGradient>
<clipPath id="clip0_129_12217">
<rect width="600" height="400" fill="white"/>
</clipPath>
</defs>
</svg>
