<svg width="215" height="124" fill="none" xmlns="http://www.w3.org/2000/svg"><g filter="url(#a)"><path d="M51.026 21.99a4 4 0 0 1 3.403-4.564l34.588-4.814a4 4 0 0 1 2.921.739l7.84 5.765a4 4 0 0 1 1.595 2.684l7.504 55.25a4 4 0 0 1-3.404 4.498l-40.516 5.724a4 4 0 0 1-4.514-3.36L51.026 21.99Z" fill="#F2F2F8"/></g><path d="m58.15 24.141 33.152-4.913a4 4 0 0 1 4.554 3.45l2.793 21.857-36.765 5.194L58.15 24.14Z" fill="url(#b)"/><path d="m65.493 28.327 3.68-.479 2.246 16.538-3.68.479-2.246-16.538Z" fill="url(#c)"/><path d="m72.528 33.64 3.681-.48 1.428 10.468-3.68.479-1.429-10.468Z" fill="url(#d)"/><path d="m78.564 30.806 3.68-.479 1.549 12.512-3.681.48-1.548-12.513Z" fill="url(#e)"/><path d="m85.37 35.755 3.681-.479.927 6.636-3.68.479-.927-6.636Z" fill="url(#f)"/><path d="m91.512 22.285-.826-9.242a.3.3 0 0 1 .475-.27l9.742 7.052a.3.3 0 0 1-.115.536l-9.276 1.924Z" fill="#B2B4C7"/><path d="m103.045 103.943 41.094 9.28h-96.86L0 103.943h103.045Z" fill="url(#g)"/><path fill-rule="evenodd" clip-rule="evenodd" d="M73.15 63.943c-.859-.667-1.897-1.03-2.906-1.018l-28.67.362c-2.41.03-3.909 2.14-3.19 4.492l1.546 5.055 11.613 37.133c.611 1.954 2.565 3.391 4.57 3.362l86.464-1.274c1.976-.029 3.404-1.477 3.36-3.407l-.747-32.656c-.054-2.387-2.303-4.506-4.749-4.474l-55.021.72c-1.01.014-2.049-.35-2.907-1.017l-9.364-7.278Z" fill="#171723"/><path d="m103 25.07-2.784 37.117-9.279-1.238L87.225 56l3.826-23.721a6 6 0 0 1 5.924-5.045h4.788L103 25.07Z" fill="url(#h)" fill-opacity=".6"/><g filter="url(#i)"><path d="M96.556 27.967a4 4 0 0 1 4.356-3.61l40.677 3.81a4 4 0 0 1 3.61 4.356l-5.715 61.019a4 4 0 0 1-4.356 3.61l-40.678-3.81a4 4 0 0 1-3.61-4.356l5.716-61.019Z" fill="#F2F2F8"/></g><rect x="103.418" y="31.546" width="35.88" height="1.856" rx=".928" transform="rotate(4.021 103.418 31.546)" fill="#C4C6D7"/><rect x="102.822" y="36.514" width="17.965" height="1.856" rx=".928" transform="rotate(4.021 102.822 36.514)" fill="#C4C6D7"/><path d="M143.015 56 94 54l-.5 6.021h49.515v-4.02Z" fill="url(#j)" fill-opacity=".5"/><path d="M81.31 47.386a2.475 2.475 0 0 0-1.969-.974H49.49a2.475 2.475 0 0 0-2.475 2.474l4.95 61.862a2.475 2.475 0 0 0 2.474 2.475h90.318a2.475 2.475 0 0 0 2.475-2.475l4.949-48.252a2.475 2.475 0 0 0-2.475-2.475H92.163c-.773 0-1.5-.36-1.968-.974l-8.885-11.66Z" fill="url(#k)"/><circle cx="99.288" cy="106.727" fill="url(#l)" r="15.156"/><path fill-rule="evenodd" clip-rule="evenodd" d="M99.597 101.84c.411 0 .743.332.743.742v3.712h3.712a.742.742 0 1 1 0 1.485h-3.712v3.711a.743.743 0 1 1-1.485 0v-3.711h-3.712a.743.743 0 0 1 0-1.485h3.712v-3.712c0-.41.333-.742.742-.742Z" fill="#282A3B"/><defs><linearGradient id="b" x1="58.768" y1="-2.15" x2="49.207" y2="60.822" gradientUnits="userSpaceOnUse"><stop offset=".151" stop-color="#171723" stop-opacity=".04"/><stop offset="1" stop-color="#171723"/></linearGradient><linearGradient id="c" x1="67.379" y1="28.082" x2="69.533" y2="44.632" gradientUnits="userSpaceOnUse"><stop stop-color="#fff"/><stop offset="1" stop-color="#fff" stop-opacity=".31"/></linearGradient><linearGradient id="d" x1="74.401" y1="33.396" x2="75.764" y2="43.871" gradientUnits="userSpaceOnUse"><stop stop-color="#fff"/><stop offset="1" stop-color="#fff" stop-opacity=".31"/></linearGradient><linearGradient id="e" x1="80.365" y1="30.572" x2="81.992" y2="43.074" gradientUnits="userSpaceOnUse"><stop stop-color="#fff"/><stop offset="1" stop-color="#fff" stop-opacity=".31"/></linearGradient><linearGradient id="f" x1="87.242" y1="35.512" x2="88.107" y2="42.155" gradientUnits="userSpaceOnUse"><stop stop-color="#fff"/><stop offset="1" stop-color="#fff" stop-opacity=".31"/></linearGradient><linearGradient id="g" x1="121.559" y1="121.574" x2="32.145" y2="91.339" gradientUnits="userSpaceOnUse"><stop stop-color="#14141F"/><stop offset=".992" stop-color="#14141F" stop-opacity=".1"/></linearGradient><linearGradient id="h" x1="87.225" y1="55.691" x2="93.102" y2="15.79" gradientUnits="userSpaceOnUse"><stop stop-color="#1F202E"/><stop offset="1" stop-color="#A3A8BD" stop-opacity="0"/></linearGradient><linearGradient id="j" x1="132.648" y1="-55.334" x2="112.306" y2="61.155" gradientUnits="userSpaceOnUse"><stop stop-color="#1F202E"/><stop offset="1" stop-color="#1F202E" stop-opacity=".37"/></linearGradient><linearGradient id="k" x1="4.949" y1="4.964" x2="152.181" y2="128.997" gradientUnits="userSpaceOnUse"><stop offset=".214" stop-color="#14141F"/><stop offset="1" stop-color="#33364A"/></linearGradient><linearGradient id="l" x1="78.255" y1="96.829" x2="103.619" y2="126.832" gradientUnits="userSpaceOnUse"><stop stop-color="#3B4251"/><stop offset="1" stop-color="#778397"/></linearGradient><filter id="a" x="27.98" y="1.573" width="89.934" height="106.739" filterUnits="userSpaceOnUse" color-interpolation-filters="sRGB"><feFlood flood-opacity="0" result="BackgroundImageFix"/><feColorMatrix in="SourceAlpha" values="0 0 0 0 0 0 0 0 0 0 0 0 0 0 0 0 0 0 127 0" result="hardAlpha"/><feOffset dx="-7" dy="5"/><feGaussianBlur stdDeviation="8"/><feComposite in2="hardAlpha" operator="out"/><feColorMatrix values="0 0 0 0 0.380392 0 0 0 0 0.419608 0 0 0 0 0.486275 0 0 0 0.52 0"/><feBlend in2="BackgroundImageFix" result="effect1_dropShadow_5475_63865"/><feBlend in="SourceGraphic" in2="effect1_dropShadow_5475_63865" result="shape"/></filter><filter id="i" x="78.823" y=".34" width="104.393" height="122.829" filterUnits="userSpaceOnUse" color-interpolation-filters="sRGB"><feFlood flood-opacity="0" result="BackgroundImageFix"/><feColorMatrix in="SourceAlpha" values="0 0 0 0 0 0 0 0 0 0 0 0 0 0 0 0 0 0 127 0" result="hardAlpha"/><feOffset dx="13" dy="1"/><feGaussianBlur stdDeviation="12.5"/><feComposite in2="hardAlpha" operator="out"/><feColorMatrix values="0 0 0 0 0.380392 0 0 0 0 0.419608 0 0 0 0 0.486275 0 0 0 0.2 0"/><feBlend in2="BackgroundImageFix" result="effect1_dropShadow_5475_63865"/><feColorMatrix in="SourceAlpha" values="0 0 0 0 0 0 0 0 0 0 0 0 0 0 0 0 0 0 127 0" result="hardAlpha"/><feOffset dx="5" dy="3"/><feGaussianBlur stdDeviation="7.5"/><feComposite in2="hardAlpha" operator="out"/><feColorMatrix values="0 0 0 0 0.380392 0 0 0 0 0.419608 0 0 0 0 0.486275 0 0 0 0.2 0"/><feBlend in2="effect1_dropShadow_5475_63865" result="effect2_dropShadow_5475_63865"/><feBlend in="SourceGraphic" in2="effect2_dropShadow_5475_63865" result="shape"/></filter></defs></svg>