<svg width="137" height="104" viewBox="0 0 137 104" fill="none" xmlns="http://www.w3.org/2000/svg">
<path d="M136.513 40.7345L101.284 74.4414L46.1477 48.4025L56.8002 22.9648L136.513 40.7345Z" fill="url(#paint0_linear_3068_176802)"/>
<path d="M101.616 74.1208L105.014 32.6887C105.248 29.8314 103.428 27.2058 100.67 26.4215L42.1456 9.78102C42.0256 9.74689 41.9014 9.72956 41.7766 9.72951C41.071 9.72926 40.4846 10.2725 40.431 10.9761L39.6111 21.7334L37.4456 22.1666L36.5833 33.45L38.9669 37.2483L38.1059 52.2206L16.5175 71.9867C15.4434 72.9702 15.7485 74.7364 17.0907 75.3044L77.0185 100.665C78.6806 101.368 80.6068 100.872 81.7208 99.4539L101.616 74.1208Z" fill="url(#paint1_linear_3068_176802)"/>
<path d="M79.1044 99.2621L100.147 73.2988L38.1565 51.9419L16.2592 71.6636C15.7135 72.1552 15.867 73.0483 16.5457 73.3304L20.982 75.1746L27.7437 77.771L52.3452 88.4441L79.1044 99.2621Z" fill="url(#paint2_linear_3068_176802)"/>
<path d="M80.6388 93.2084L92.9221 77.7477L36.7975 56.8785L24.5493 68.4971C23.499 69.4935 23.824 71.2422 25.1624 71.7966L78.3087 93.8111C79.1333 94.1527 80.084 93.9068 80.6388 93.2084Z" fill="white"/>
<path d="M100.11 73.3121L103.132 32.9141C103.345 30.0677 101.523 27.4635 98.7752 26.6871L43.3718 11.0321C42.1313 10.6816 40.889 11.5785 40.8317 12.8661L39.0941 51.92L100.11 73.3121Z" fill="url(#paint3_linear_3068_176802)"/>
<path d="M98.6717 73.0241L101.063 32.8057C101.174 30.9516 99.993 29.2643 98.2131 28.7322L43.8235 12.4705C42.5902 12.1018 41.3357 12.9768 41.2561 14.2613L40.9486 19.2232L38.5188 22.0522L36.1497 24.1127L36.1531 33.877L39.2951 39.0857L38.1629 51.9207L98.6717 73.0241Z" fill="url(#paint4_linear_3068_176802)"/>
<path d="M91.2604 83.1336L34.3847 60.5532" stroke="url(#paint5_radial_3068_176802)"/>
<path d="M88.7006 86.3296L31.817 62.884" stroke="url(#paint6_radial_3068_176802)"/>
<path d="M87.0095 90.0951L28.6878 66.662" stroke="url(#paint7_radial_3068_176802)"/>
<path d="M84.1542 92.4284L26.4077 68.9903" stroke="url(#paint8_radial_3068_176802)"/>
<path d="M82.542 73.9685L70.0296 88.793" stroke="url(#paint9_radial_3068_176802)"/>
<path d="M79.3567 71.6907L66.8444 86.5151" stroke="url(#paint10_radial_3068_176802)"/>
<path d="M74.7334 69.426L62.2211 84.2505" stroke="url(#paint11_radial_3068_176802)"/>
<path d="M70.4005 67.4473L57.8882 82.2717" stroke="url(#paint12_radial_3068_176802)"/>
<path d="M65.4979 66.0503L52.9856 80.8748" stroke="url(#paint13_radial_3068_176802)"/>
<path d="M61.7375 63.7778L49.2251 78.6023" stroke="url(#paint14_radial_3068_176802)"/>
<path d="M57.1218 62.3787L44.6095 77.2031" stroke="url(#paint15_radial_3068_176802)"/>
<path d="M50.208 61.2888L43.9518 68.701L37.6956 76.1133" stroke="url(#paint16_radial_3068_176802)"/>
<path d="M44.4259 58.1694L38.1698 65.5817L31.9136 72.9939" stroke="url(#paint17_radial_3068_176802)"/>
<path d="M92.8665 79.3714L92.8661 77.7446L82.0766 90.5497C80.3945 92.5461 77.6137 93.2242 75.1997 92.2268L23.139 70.7172L23.0755 71.9814L76.1308 93.8536C78.143 94.6831 80.4597 94.1163 81.8602 92.4519L92.8665 79.3714Z" fill="url(#paint18_linear_3068_176802)"/>
<path d="M49.8824 14.6843C50.2192 15.0552 50.1904 15.6291 49.818 15.9639L49.1322 16.5805C48.7536 16.9209 48.1662 16.8714 47.8494 16.4724V16.4724C47.5682 16.1181 47.5997 15.6089 47.9225 15.2923L48.5808 14.6465C48.9466 14.2876 49.5376 14.3048 49.8824 14.6843V14.6843Z" fill="url(#paint19_linear_3068_176802)" fill-opacity="0.4"/>
<g filter="url(#filter0_d_3068_176802)">
<mask id="path-22-inside-1_3068_176802" fill="white">
<ellipse cx="13.8389" cy="19.739" rx="13.8389" ry="19.739" transform="matrix(0.828191 -0.631673 0.550835 0.782226 25.6035 27.9402)"/>
</mask>
<path d="M42.8352 38.5307C43.8508 39.973 43.8381 40.9602 43.8435 40.7391C43.8473 40.5794 43.89 39.7912 44.4281 38.5937C45.0022 37.3161 46.0792 35.7426 47.794 34.4347L69.8273 65.7238C79.869 58.0648 83.4008 46.9106 83.6173 38.0121C83.8356 29.0388 80.9521 20.349 75.9628 13.2638L42.8352 38.5307ZM47.794 34.4347C49.5087 33.1269 51.2748 32.5319 52.6183 32.3469C53.8775 32.1736 54.6126 32.3686 54.7601 32.4128C54.9643 32.4741 54.0559 32.1894 53.0403 30.7471L19.9126 56.014C24.902 63.0992 31.9957 68.5778 40.2834 71.0635C48.5019 73.5285 59.7856 73.3827 69.8273 65.7238L47.794 34.4347ZM53.0403 30.7471C52.0246 29.3048 52.0373 28.3176 52.032 28.5387C52.0281 28.6984 51.9854 29.4866 51.4473 30.6841C50.8733 31.9617 49.7962 33.5352 48.0815 34.843L26.0481 3.554C16.0064 11.2129 12.4746 22.3672 12.2581 31.2657C12.0398 40.239 14.9233 48.9288 19.9126 56.014L53.0403 30.7471ZM48.0815 34.843C46.3667 36.1509 44.6006 36.7459 43.2572 36.9309C41.9979 37.1042 41.2629 36.9092 41.1154 36.865C40.9111 36.8037 41.8195 37.0884 42.8352 38.5307L75.9628 13.2638C70.9735 6.17857 63.8797 0.699959 55.5921 -1.78576C47.3736 -4.25074 36.0898 -4.10495 26.0481 3.554L48.0815 34.843Z" fill="url(#paint20_linear_3068_176802)" mask="url(#path-22-inside-1_3068_176802)"/>
<ellipse cx="9.7349" cy="15.1561" rx="9.7349" ry="15.1561" transform="matrix(0.838117 -0.617359 0.535661 0.793546 30.6551 29.4973)" fill="#F6F6FD"/>
<rect width="6.95184" height="4.57159" transform="matrix(0.903906 0.336117 -0.415961 0.946968 62.9481 41.8289)" fill="url(#paint21_linear_3068_176802)"/>
<rect width="20.0045" height="5.88911" transform="matrix(0.903871 0.336195 -0.415864 0.947004 68.1625 42.9465)" fill="url(#paint22_linear_3068_176802)"/>
<ellipse cx="0.977524" cy="2.23937" rx="0.977524" ry="2.23937" transform="matrix(0.916585 0.306221 -0.38763 0.956901 61.9079 41.5112)" fill="url(#paint23_linear_3068_176802)"/>
<ellipse cx="1.25896" cy="2.88409" rx="1.25896" ry="2.88409" transform="matrix(0.916585 0.306221 -0.38763 0.956901 66.8229 42.5374)" fill="url(#paint24_linear_3068_176802)"/>
<ellipse cx="1.65319" cy="2.87086" rx="1.65319" ry="2.87086" transform="matrix(0.916579 0.306235 -0.387612 0.956907 84.5344 49.197)" fill="url(#paint25_linear_3068_176802)"/>
<g style="mix-blend-mode:lighten" opacity="0.79">
<path d="M41.1692 36.8147C39.5564 37.1601 37.9648 34.401 39.5053 33.771C40.7823 33.2488 41.4509 34.3802 42.2357 35.2137C42.9413 35.9632 42.7263 36.4811 41.1692 36.8147Z" fill="white"/>
<path d="M44.3847 42.9268C42.5648 41.6186 40.2308 38.3777 41.3644 38.3312C43.8796 38.2282 45.2023 37.6327 46.5413 40.8089C46.944 41.7643 49.0271 43.9462 48.765 44.606C48.5028 45.2658 45.8015 43.9451 44.3847 42.9268Z" fill="white"/>
</g>
</g>
<defs>
<filter id="filter0_d_3068_176802" x="0.139542" y="0.892578" width="118.677" height="102.356" filterUnits="userSpaceOnUse" color-interpolation-filters="sRGB">
<feFlood flood-opacity="0" result="BackgroundImageFix"/>
<feColorMatrix in="SourceAlpha" type="matrix" values="0 0 0 0 0 0 0 0 0 0 0 0 0 0 0 0 0 0 127 0" result="hardAlpha"/>
<feOffset dy="16"/>
<feGaussianBlur stdDeviation="16"/>
<feColorMatrix type="matrix" values="0 0 0 0 0.215686 0 0 0 0 0.231373 0 0 0 0 0.301961 0 0 0 0.02 0"/>
<feBlend mode="normal" in2="BackgroundImageFix" result="effect1_dropShadow_3068_176802"/>
<feBlend mode="normal" in="SourceGraphic" in2="effect1_dropShadow_3068_176802" result="shape"/>
</filter>
<linearGradient id="paint0_linear_3068_176802" x1="74.3988" y1="84.2301" x2="112.017" y2="54.361" gradientUnits="userSpaceOnUse">
<stop stop-color="#798196"/>
<stop offset="1" stop-color="white" stop-opacity="0"/>
</linearGradient>
<linearGradient id="paint1_linear_3068_176802" x1="118.394" y1="98.5029" x2="-99.1997" y2="105.357" gradientUnits="userSpaceOnUse">
<stop stop-color="#C4C6D7"/>
<stop offset="0.34172" stop-color="#E8E8F1"/>
<stop offset="1" stop-color="#FCFCFF"/>
</linearGradient>
<linearGradient id="paint2_linear_3068_176802" x1="18.4563" y1="31.6503" x2="164.377" y2="253.001" gradientUnits="userSpaceOnUse">
<stop stop-color="#FAFAFF"/>
<stop offset="1" stop-color="#FAFAFF" stop-opacity="0"/>
</linearGradient>
<linearGradient id="paint3_linear_3068_176802" x1="95.5929" y1="53.1885" x2="-14.2896" y2="53.2497" gradientUnits="userSpaceOnUse">
<stop stop-color="#E8E8F1"/>
<stop offset="1" stop-color="#FCFCFF"/>
</linearGradient>
<linearGradient id="paint4_linear_3068_176802" x1="-15.1944" y1="-40.3971" x2="75.6636" y2="50.8006" gradientUnits="userSpaceOnUse">
<stop stop-color="#E8E8F1"/>
<stop offset="1" stop-color="#FCFCFF"/>
</linearGradient>
<radialGradient id="paint5_radial_3068_176802" cx="0" cy="0" r="1" gradientUnits="userSpaceOnUse" gradientTransform="translate(62.8225 71.8434) rotate(89.4576) scale(11.5441 28.3297)">
<stop stop-color="#E8E9F0"/>
<stop offset="1" stop-color="#F7F7F7" stop-opacity="0"/>
</radialGradient>
<radialGradient id="paint6_radial_3068_176802" cx="0" cy="0" r="1" gradientUnits="userSpaceOnUse" gradientTransform="translate(60.2588 74.6068) rotate(89.4576) scale(11.9767 28.3295)">
<stop stop-color="#E8E9F0"/>
<stop offset="1" stop-color="#F7F7F7" stop-opacity="0"/>
</radialGradient>
<radialGradient id="paint7_radial_3068_176802" cx="0" cy="0" r="1" gradientUnits="userSpaceOnUse" gradientTransform="translate(57.8487 78.3785) rotate(89.4576) scale(11.9769 29.0487)">
<stop stop-color="#E8E9F0"/>
<stop offset="1" stop-color="#F7F7F7" stop-opacity="0"/>
</radialGradient>
<radialGradient id="paint8_radial_3068_176802" cx="0" cy="0" r="1" gradientUnits="userSpaceOnUse" gradientTransform="translate(55.281 80.7094) rotate(89.4576) scale(11.9768 28.761)">
<stop stop-color="#E8E9F0"/>
<stop offset="1" stop-color="#F7F7F7" stop-opacity="0"/>
</radialGradient>
<radialGradient id="paint9_radial_3068_176802" cx="0" cy="0" r="1" gradientUnits="userSpaceOnUse" gradientTransform="translate(76.2858 81.3807) rotate(89.4575) scale(7.35599 6.32608)">
<stop stop-color="#E8E9F0"/>
<stop offset="1" stop-color="#F7F7F7" stop-opacity="0"/>
</radialGradient>
<radialGradient id="paint10_radial_3068_176802" cx="0" cy="0" r="1" gradientUnits="userSpaceOnUse" gradientTransform="translate(73.1006 79.1029) rotate(89.4575) scale(7.35599 6.32608)">
<stop stop-color="#E8E9F0"/>
<stop offset="1" stop-color="#F7F7F7" stop-opacity="0"/>
</radialGradient>
<radialGradient id="paint11_radial_3068_176802" cx="0" cy="0" r="1" gradientUnits="userSpaceOnUse" gradientTransform="translate(68.4773 76.8383) rotate(89.4575) scale(7.35599 6.32608)">
<stop stop-color="#E8E9F0"/>
<stop offset="1" stop-color="#F7F7F7" stop-opacity="0"/>
</radialGradient>
<radialGradient id="paint12_radial_3068_176802" cx="0" cy="0" r="1" gradientUnits="userSpaceOnUse" gradientTransform="translate(64.1444 74.8595) rotate(89.4575) scale(7.35599 6.32608)">
<stop stop-color="#E8E9F0"/>
<stop offset="1" stop-color="#F7F7F7" stop-opacity="0"/>
</radialGradient>
<radialGradient id="paint13_radial_3068_176802" cx="0" cy="0" r="1" gradientUnits="userSpaceOnUse" gradientTransform="translate(59.2418 73.4625) rotate(89.4575) scale(7.35599 6.32608)">
<stop stop-color="#E8E9F0"/>
<stop offset="1" stop-color="#F7F7F7" stop-opacity="0"/>
</radialGradient>
<radialGradient id="paint14_radial_3068_176802" cx="0" cy="0" r="1" gradientUnits="userSpaceOnUse" gradientTransform="translate(55.4813 71.1901) rotate(89.4575) scale(7.35599 6.32608)">
<stop stop-color="#E8E9F0"/>
<stop offset="1" stop-color="#F7F7F7" stop-opacity="0"/>
</radialGradient>
<radialGradient id="paint15_radial_3068_176802" cx="0" cy="0" r="1" gradientUnits="userSpaceOnUse" gradientTransform="translate(50.8656 69.7909) rotate(89.4575) scale(7.35599 6.32608)">
<stop stop-color="#E8E9F0"/>
<stop offset="1" stop-color="#F7F7F7" stop-opacity="0"/>
</radialGradient>
<radialGradient id="paint16_radial_3068_176802" cx="0" cy="0" r="1" gradientUnits="userSpaceOnUse" gradientTransform="translate(43.9518 68.701) rotate(89.4575) scale(7.35599 6.32608)">
<stop stop-color="#E8E9F0"/>
<stop offset="1" stop-color="#F7F7F7" stop-opacity="0"/>
</radialGradient>
<radialGradient id="paint17_radial_3068_176802" cx="0" cy="0" r="1" gradientUnits="userSpaceOnUse" gradientTransform="translate(38.1698 65.5817) rotate(89.4575) scale(7.35599 6.32608)">
<stop stop-color="#E8E9F0"/>
<stop offset="1" stop-color="#F7F7F7" stop-opacity="0"/>
</radialGradient>
<linearGradient id="paint18_linear_3068_176802" x1="79.0403" y1="98.6852" x2="1.32591" y2="50.0102" gradientUnits="userSpaceOnUse">
<stop stop-color="#C4C6D7"/>
<stop offset="0.441811" stop-color="#E8E8F1"/>
<stop offset="1" stop-color="#EBEBEB" stop-opacity="0"/>
</linearGradient>
<linearGradient id="paint19_linear_3068_176802" x1="47.6445" y1="13.2974" x2="49.7872" y2="17.0737" gradientUnits="userSpaceOnUse">
<stop stop-color="#E6ECEF"/>
<stop offset="1" stop-color="#E6ECEF" stop-opacity="0"/>
<stop offset="1" stop-color="#EAF4FA" stop-opacity="0"/>
</linearGradient>
<linearGradient id="paint20_linear_3068_176802" x1="76.8677" y1="38.9736" x2="36.5861" y2="48.5842" gradientUnits="userSpaceOnUse">
<stop stop-color="#B6B9D0"/>
<stop offset="1" stop-color="#E9E9F1"/>
</linearGradient>
<linearGradient id="paint21_linear_3068_176802" x1="3.47592" y1="0" x2="3.47592" y2="4.57159" gradientUnits="userSpaceOnUse">
<stop stop-color="#FEFEFE"/>
<stop offset="1" stop-color="#E5E6EF"/>
</linearGradient>
<linearGradient id="paint22_linear_3068_176802" x1="10.0022" y1="0" x2="10.0022" y2="5.88911" gradientUnits="userSpaceOnUse">
<stop stop-color="#EDEDF6"/>
<stop offset="1" stop-color="#C9CBDD"/>
</linearGradient>
<linearGradient id="paint23_linear_3068_176802" x1="0.977524" y1="0" x2="0.977524" y2="4.47874" gradientUnits="userSpaceOnUse">
<stop stop-color="#FEFEFE"/>
<stop offset="1" stop-color="#E5E6EF"/>
</linearGradient>
<linearGradient id="paint24_linear_3068_176802" x1="1.25896" y1="0" x2="1.25896" y2="5.76819" gradientUnits="userSpaceOnUse">
<stop stop-color="#EDEDF6"/>
<stop offset="1" stop-color="#D9D9E6"/>
</linearGradient>
<linearGradient id="paint25_linear_3068_176802" x1="1.65319" y1="0" x2="1.65319" y2="5.74172" gradientUnits="userSpaceOnUse">
<stop stop-color="#C9CBDB"/>
<stop offset="1" stop-color="#DCDCE8"/>
</linearGradient>
</defs>
</svg>
