<svg width="154" height="120" viewBox="0 0 154 120" fill="none" xmlns="http://www.w3.org/2000/svg">
<path d="M153.716 46.0989L112.718 85.2453L48.5747 55.0282L60.9762 25.49L153.716 46.0989Z" fill="url(#paint0_linear_3088_28356)"/>
<path d="M113.09 84.8538L117.124 35.9613C117.36 33.103 115.54 30.4775 112.781 29.6953L43.9362 10.1814C43.7968 10.1419 43.6526 10.1219 43.5077 10.1219C42.6867 10.1219 42.004 10.7541 41.9412 11.5728L40.9834 24.059L38.4642 24.5629L37.4565 37.6629L40.2276 42.0716L39.2199 59.4544L13.73 82.7484C12.6535 83.7322 12.9579 85.5003 14.3015 86.0674L84.9288 115.877C86.589 116.577 88.5129 116.081 89.6274 114.665L113.09 84.8538Z" fill="url(#paint1_linear_3088_28356)"/>
<path d="M86.904 114.051L111.396 83.8912L39.2827 59.115L13.6091 82.197C13.0622 82.6887 13.2153 83.5827 13.8947 83.8644L19.2917 86.1022L27.1574 89.1146L55.7755 101.499L86.904 114.051Z" fill="url(#paint2_linear_3088_28356)"/>
<path d="M88.5385 107.213L102.989 89.0604L37.6993 64.8475L23.0845 78.6863C22.032 79.683 22.3562 81.4335 23.696 81.987L86.21 107.816C87.0338 108.157 87.9834 107.911 88.5385 107.213Z" fill="#373B4D"/>
<path d="M111.338 83.9262L114.929 36.2372C115.143 33.3897 113.321 30.7857 110.572 30.0115L44.9633 11.5306C43.723 11.1813 42.4809 12.0787 42.423 13.3659L40.3674 59.1151L111.338 83.9262Z" fill="url(#paint3_linear_3088_28356)"/>
<path d="M109.664 83.5914L112.493 36.3876C112.605 34.5328 111.424 32.8457 109.643 32.3149L45.4892 13.1923C44.2562 12.8247 43.002 13.7002 42.9218 14.9843L42.5367 21.1511L39.7089 24.4366L36.9521 26.8299L36.9521 38.1665L40.605 44.2126L39.2827 59.1148L109.664 83.5914Z" fill="url(#paint4_linear_3088_28356)"/>
<path d="M101.063 95.3053L34.8803 69.1366" stroke="url(#paint5_radial_3088_28356)" stroke-opacity="0.2"/>
<path d="M98.0842 99.0145L31.8924 71.8416" stroke="url(#paint6_radial_3088_28356)" stroke-opacity="0.2"/>
<path d="M96.1165 103.384L28.2512 76.2269" stroke="url(#paint7_radial_3088_28356)" stroke-opacity="0.2"/>
<path d="M92.7939 106.093L25.598 78.9293" stroke="url(#paint8_radial_3088_28356)" stroke-opacity="0.2"/>
<path d="M90.9227 84.6873L76.3531 101.893" stroke="url(#paint9_radial_3088_28356)" stroke-opacity="0.2"/>
<path d="M87.2163 82.0437L72.6467 99.2491" stroke="url(#paint10_radial_3088_28356)" stroke-opacity="0.2"/>
<path d="M81.8365 79.4153L67.2669 96.6206" stroke="url(#paint11_radial_3088_28356)" stroke-opacity="0.2"/>
<path d="M76.7945 77.1187L62.2249 94.324" stroke="url(#paint12_radial_3088_28356)" stroke-opacity="0.2"/>
<path d="M71.0897 75.4976L56.5201 92.7029" stroke="url(#paint13_radial_3088_28356)" stroke-opacity="0.2"/>
<path d="M66.7139 72.8601L52.1443 90.0655" stroke="url(#paint14_radial_3088_28356)" stroke-opacity="0.2"/>
<path d="M61.3429 71.2361L46.7733 88.4414" stroke="url(#paint15_radial_3088_28356)" stroke-opacity="0.2"/>
<path d="M53.2978 69.9712L46.013 78.5739L38.7282 87.1765" stroke="url(#paint16_radial_3088_28356)" stroke-opacity="0.2"/>
<path d="M46.5695 66.3508L39.2847 74.9535L31.9999 83.5562" stroke="url(#paint17_radial_3088_28356)" stroke-opacity="0.2"/>
<path d="M102.93 90.9449L102.93 89.0555L89.9095 104.479C88.227 106.472 85.4497 107.15 83.0383 106.156L21.8005 80.9141L21.7263 82.3823L84.01 107.998C86.02 108.825 88.3338 108.259 89.7346 106.597L102.93 90.9449Z" fill="url(#paint18_linear_3088_28356)"/>
<g filter="url(#filter0_d_3088_28356)">
<mask id="path-21-inside-1_3088_28356" fill="white">
<ellipse cx="16.0887" cy="22.9301" rx="16.0887" ry="22.9301" transform="matrix(0.828969 -0.630255 0.551759 0.781761 24.6622 31.2556)"/>
</mask>
<path d="M47.4087 41.5066C48.9104 43.6343 49.1298 45.3999 49.1179 45.8852C49.1132 46.0788 49.085 45.6274 49.4898 44.729C49.9306 43.7508 50.8117 42.4392 52.2678 41.3321L74.3382 72.6026C84.8984 64.5737 88.7038 52.8077 88.9381 43.2087C89.1742 33.5361 86.0532 24.0689 80.5675 16.2964L47.4087 41.5066ZM52.2678 41.3321C53.7239 40.2251 55.1945 39.7487 56.226 39.6075C57.1735 39.4778 57.5796 39.6419 57.4003 39.5882C56.951 39.4535 55.3952 38.704 53.8935 36.5764L20.7347 61.7866C26.2205 69.559 33.9762 75.5025 42.933 78.1859C51.8216 80.8488 63.7779 80.6314 74.3382 72.6026L52.2678 41.3321ZM53.8935 36.5764C52.3918 34.4487 52.1724 32.6831 52.1843 32.1978C52.189 32.0042 52.2172 32.4556 51.8124 33.354C51.3716 34.3322 50.4905 35.6438 49.0344 36.7509L26.964 5.48042C16.4038 13.5093 12.5984 25.2753 12.3641 34.8743C12.128 44.5469 15.249 54.0141 20.7347 61.7866L53.8935 36.5764ZM49.0344 36.7509C47.5783 37.8579 46.1077 38.3343 45.0762 38.4755C44.1287 38.6052 43.7226 38.4411 43.9019 38.4948C44.3512 38.6294 45.907 39.3789 47.4087 41.5066L80.5675 16.2964C75.0817 8.52395 67.326 2.58044 58.3692 -0.102875C49.4806 -2.76579 37.5243 -2.54843 26.964 5.48042L49.0344 36.7509Z" fill="url(#paint19_linear_3088_28356)" mask="url(#path-21-inside-1_3088_28356)"/>
<ellipse cx="11.318" cy="17.6053" rx="11.318" ry="17.6053" transform="matrix(0.838869 -0.615929 0.536587 0.793098 30.5404 33.0662)" fill="#1E1F2B"/>
<rect width="8.08596" height="5.30641" transform="matrix(0.904282 0.33568 -0.417015 0.94641 68.1178 47.3865)" fill="url(#paint20_linear_3088_28356)"/>
<rect width="23.2673" height="6.83415" transform="matrix(0.904282 0.33568 -0.417015 0.94641 74.1856 48.6836)" fill="url(#paint21_linear_3088_28356)"/>
<ellipse cx="1.13709" cy="2.5998" rx="1.13709" ry="2.5998" transform="matrix(0.916879 0.305924 -0.388537 0.956443 66.9074 47.0178)" fill="url(#paint22_linear_3088_28356)"/>
<ellipse cx="1.46446" cy="3.34829" rx="1.46446" ry="3.34829" transform="matrix(0.916879 0.305924 -0.388537 0.956443 72.6267 48.2087)" fill="url(#paint23_linear_3088_28356)"/>
<ellipse cx="1.92304" cy="3.33279" rx="1.92304" ry="3.33279" transform="matrix(0.916879 0.305924 -0.388537 0.956443 93.2364 55.938)" fill="url(#paint24_linear_3088_28356)"/>
<g style="mix-blend-mode:lighten" opacity="0.79">
<path d="M42.7751 41.5648C40.8983 41.965 39.0463 38.7612 40.8388 38.0307C42.3248 37.4252 43.1028 38.7389 44.016 39.707C44.8371 40.5774 44.587 41.1785 42.7751 41.5648Z" fill="#868EA3"/>
<path d="M46.5167 48.6618C44.3989 47.1422 41.6831 43.3788 43.0021 43.3255C45.929 43.2072 47.468 42.5166 49.0262 46.2045C49.4948 47.3137 51.9187 49.8477 51.6137 50.6135C51.3087 51.3793 48.1653 49.8448 46.5167 48.6618Z" fill="#868EA3"/>
</g>
</g>
<defs>
<filter id="filter0_d_3088_28356" x="0.267769" y="2.44287" width="127.625" height="108.519" filterUnits="userSpaceOnUse" color-interpolation-filters="sRGB">
<feFlood flood-opacity="0" result="BackgroundImageFix"/>
<feColorMatrix in="SourceAlpha" type="matrix" values="0 0 0 0 0 0 0 0 0 0 0 0 0 0 0 0 0 0 127 0" result="hardAlpha"/>
<feOffset dy="16"/>
<feGaussianBlur stdDeviation="16"/>
<feColorMatrix type="matrix" values="0 0 0 0 0.215686 0 0 0 0 0.231373 0 0 0 0 0.301961 0 0 0 0.02 0"/>
<feBlend mode="normal" in2="BackgroundImageFix" result="effect1_dropShadow_3088_28356"/>
<feBlend mode="normal" in="SourceGraphic" in2="effect1_dropShadow_3088_28356" result="shape"/>
</filter>
<linearGradient id="paint0_linear_3088_28356" x1="88.6448" y1="95.0314" x2="125.808" y2="53.1184" gradientUnits="userSpaceOnUse">
<stop stop-color="#2D3041" stop-opacity="0.29"/>
<stop offset="1" stop-color="white" stop-opacity="0"/>
</linearGradient>
<linearGradient id="paint1_linear_3088_28356" x1="118.464" y1="58.5727" x2="-120.529" y2="121.054" gradientUnits="userSpaceOnUse">
<stop stop-color="#333749"/>
<stop offset="1" stop-color="#3C4158"/>
</linearGradient>
<linearGradient id="paint2_linear_3088_28356" x1="16.374" y1="35.493" x2="185.893" y2="292.803" gradientUnits="userSpaceOnUse">
<stop stop-color="#282A3B"/>
<stop offset="1" stop-color="#14141F"/>
</linearGradient>
<linearGradient id="paint3_linear_3088_28356" x1="106.144" y1="60.5218" x2="-20.8606" y2="60.4941" gradientUnits="userSpaceOnUse">
<stop stop-color="#1B1B28" stop-opacity="0.6"/>
<stop offset="1" stop-color="#4F5769"/>
</linearGradient>
<linearGradient id="paint4_linear_3088_28356" x1="-22.7528" y1="-47.9893" x2="82.6516" y2="58.0647" gradientUnits="userSpaceOnUse">
<stop stop-color="#373B4D"/>
<stop offset="1" stop-color="#171723" stop-opacity="0.82"/>
</linearGradient>
<radialGradient id="paint5_radial_3088_28356" cx="0" cy="0" r="1" gradientUnits="userSpaceOnUse" gradientTransform="translate(67.9716 82.2209) rotate(89.4723) scale(13.3886 32.9694)">
<stop stop-color="#E8E9F0"/>
<stop offset="1" stop-color="#F7F7F7" stop-opacity="0"/>
</radialGradient>
<radialGradient id="paint6_radial_3088_28356" cx="0" cy="0" r="1" gradientUnits="userSpaceOnUse" gradientTransform="translate(64.9883 85.4281) rotate(89.4723) scale(13.8907 32.9694)">
<stop stop-color="#E8E9F0"/>
<stop offset="1" stop-color="#F7F7F7" stop-opacity="0"/>
</radialGradient>
<radialGradient id="paint7_radial_3088_28356" cx="0" cy="0" r="1" gradientUnits="userSpaceOnUse" gradientTransform="translate(62.1838 89.8057) rotate(89.4723) scale(13.8907 33.8062)">
<stop stop-color="#E8E9F0"/>
<stop offset="1" stop-color="#F7F7F7" stop-opacity="0"/>
</radialGradient>
<radialGradient id="paint8_radial_3088_28356" cx="0" cy="0" r="1" gradientUnits="userSpaceOnUse" gradientTransform="translate(59.196 92.5111) rotate(89.4723) scale(13.8907 33.4715)">
<stop stop-color="#E8E9F0"/>
<stop offset="1" stop-color="#F7F7F7" stop-opacity="0"/>
</radialGradient>
<radialGradient id="paint9_radial_3088_28356" cx="0" cy="0" r="1" gradientUnits="userSpaceOnUse" gradientTransform="translate(83.6379 93.2899) rotate(89.4723) scale(8.53522 7.36372)">
<stop stop-color="#E8E9F0"/>
<stop offset="1" stop-color="#F7F7F7" stop-opacity="0"/>
</radialGradient>
<radialGradient id="paint10_radial_3088_28356" cx="0" cy="0" r="1" gradientUnits="userSpaceOnUse" gradientTransform="translate(79.9315 90.6464) rotate(89.4723) scale(8.53522 7.36372)">
<stop stop-color="#E8E9F0"/>
<stop offset="1" stop-color="#F7F7F7" stop-opacity="0"/>
</radialGradient>
<radialGradient id="paint11_radial_3088_28356" cx="0" cy="0" r="1" gradientUnits="userSpaceOnUse" gradientTransform="translate(74.5517 88.018) rotate(89.4723) scale(8.53522 7.36372)">
<stop stop-color="#E8E9F0"/>
<stop offset="1" stop-color="#F7F7F7" stop-opacity="0"/>
</radialGradient>
<radialGradient id="paint12_radial_3088_28356" cx="0" cy="0" r="1" gradientUnits="userSpaceOnUse" gradientTransform="translate(69.5097 85.7213) rotate(89.4723) scale(8.53522 7.36372)">
<stop stop-color="#E8E9F0"/>
<stop offset="1" stop-color="#F7F7F7" stop-opacity="0"/>
</radialGradient>
<radialGradient id="paint13_radial_3088_28356" cx="0" cy="0" r="1" gradientUnits="userSpaceOnUse" gradientTransform="translate(63.8049 84.1002) rotate(89.4723) scale(8.53522 7.36372)">
<stop stop-color="#E8E9F0"/>
<stop offset="1" stop-color="#F7F7F7" stop-opacity="0"/>
</radialGradient>
<radialGradient id="paint14_radial_3088_28356" cx="0" cy="0" r="1" gradientUnits="userSpaceOnUse" gradientTransform="translate(59.4291 81.4628) rotate(89.4723) scale(8.53522 7.36372)">
<stop stop-color="#E8E9F0"/>
<stop offset="1" stop-color="#F7F7F7" stop-opacity="0"/>
</radialGradient>
<radialGradient id="paint15_radial_3088_28356" cx="0" cy="0" r="1" gradientUnits="userSpaceOnUse" gradientTransform="translate(54.0581 79.8388) rotate(89.4723) scale(8.53522 7.36372)">
<stop stop-color="#E8E9F0"/>
<stop offset="1" stop-color="#F7F7F7" stop-opacity="0"/>
</radialGradient>
<radialGradient id="paint16_radial_3088_28356" cx="0" cy="0" r="1" gradientUnits="userSpaceOnUse" gradientTransform="translate(46.013 78.5739) rotate(89.4723) scale(8.53522 7.36372)">
<stop stop-color="#E8E9F0"/>
<stop offset="1" stop-color="#F7F7F7" stop-opacity="0"/>
</radialGradient>
<radialGradient id="paint17_radial_3088_28356" cx="0" cy="0" r="1" gradientUnits="userSpaceOnUse" gradientTransform="translate(39.2847 74.9535) rotate(89.4723) scale(8.53522 7.36372)">
<stop stop-color="#E8E9F0"/>
<stop offset="1" stop-color="#F7F7F7" stop-opacity="0"/>
</radialGradient>
<linearGradient id="paint18_linear_3088_28356" x1="86.8372" y1="113.38" x2="-3.46713" y2="56.7005" gradientUnits="userSpaceOnUse">
<stop stop-color="#4F5469"/>
<stop offset="0.732668" stop-color="#4F5469" stop-opacity="0"/>
</linearGradient>
<linearGradient id="paint19_linear_3088_28356" x1="84.3152" y1="44.087" x2="37.4589" y2="55.2934" gradientUnits="userSpaceOnUse">
<stop stop-color="#14141F"/>
<stop offset="1" stop-color="#4F5769"/>
</linearGradient>
<linearGradient id="paint20_linear_3088_28356" x1="4.04298" y1="0" x2="4.04298" y2="5.30641" gradientUnits="userSpaceOnUse">
<stop stop-color="#757D91"/>
<stop offset="1" stop-color="#2D3142"/>
</linearGradient>
<linearGradient id="paint21_linear_3088_28356" x1="11.6336" y1="0" x2="11.6336" y2="6.83415" gradientUnits="userSpaceOnUse">
<stop stop-color="#4F5769"/>
<stop offset="1" stop-color="#14141F"/>
</linearGradient>
<linearGradient id="paint22_linear_3088_28356" x1="1.13709" y1="0" x2="1.13709" y2="5.1996" gradientUnits="userSpaceOnUse">
<stop stop-color="#757D91"/>
<stop offset="1" stop-color="#2D3142"/>
</linearGradient>
<linearGradient id="paint23_linear_3088_28356" x1="1.46446" y1="0" x2="1.46446" y2="6.69659" gradientUnits="userSpaceOnUse">
<stop stop-color="#4F5769"/>
<stop offset="1" stop-color="#171723"/>
</linearGradient>
<linearGradient id="paint24_linear_3088_28356" x1="1.92304" y1="0" x2="1.92304" y2="6.66557" gradientUnits="userSpaceOnUse">
<stop stop-color="#4F5769"/>
<stop offset="1" stop-color="#171723" stop-opacity="0.92"/>
</linearGradient>
</defs>
</svg>
