<svg width="806" height="128" viewBox="0 0 806 128" fill="none" xmlns="http://www.w3.org/2000/svg">
<g clip-path="url(#clip0_1_13)">
<g filter="url(#filter0_b_1_13)">
<path d="M161.193 100V9.13092H196.113C205.2 9.13092 212.469 11.6839 217.921 16.7899C223.46 21.8093 226.229 28.5596 226.229 37.0407C226.229 45.5218 223.46 52.3154 217.921 57.4213C212.469 62.5273 205.2 65.0803 196.113 65.0803H172.487V100H161.193ZM195.204 19.516H172.487V54.6953H195.074C201.046 54.6953 205.805 53.0943 209.354 49.8922C212.902 46.6901 214.676 42.4063 214.676 37.0407C214.676 31.6751 212.902 27.4346 209.354 24.319C205.892 21.117 201.175 19.516 195.204 19.516ZM244.241 20.6843C242.943 21.9824 241.298 22.6315 239.308 22.6315C237.317 22.6315 235.673 21.9824 234.375 20.6843C233.077 19.3861 232.428 17.7418 232.428 15.7514C232.428 13.7609 233.077 12.1166 234.375 10.8185C235.673 9.52036 237.317 8.8713 239.308 8.8713C241.298 8.8713 242.943 9.52036 244.241 10.8185C245.539 12.1166 246.188 13.7609 246.188 15.7514C246.188 17.7418 245.539 19.3861 244.241 20.6843ZM233.856 100V33.7954H244.5V100H233.856ZM288.68 33.0165C296.729 33.0165 303.176 35.4397 308.023 40.286C312.955 45.1324 315.422 52.7481 315.422 63.1331V100H304.777V63.7822C304.777 56.9454 303.219 51.7528 300.104 48.2046C297.075 44.5699 292.661 42.7525 286.863 42.7525C280.632 42.7525 275.742 44.916 272.194 49.2431C268.646 53.5702 266.872 59.4551 266.872 66.8977V100H256.227V33.7954H265.444L266.872 42.7525C271.891 36.2618 279.161 33.0165 288.68 33.0165ZM326.138 100V9.13092H336.782V68.9747L370.014 33.7954H383.125L357.293 61.1859L384.943 100H372.091L350.153 68.8449L336.782 82.6051V100H326.138ZM451.337 100H422.259V9.13092H451.337C465.443 9.13092 476.564 13.2849 484.699 21.593C492.921 29.8145 497.031 40.8053 497.031 54.5655C497.031 68.2391 492.921 79.2299 484.699 87.538C476.564 95.846 465.443 100 451.337 100ZM433.553 19.516V89.615H451.337C462.155 89.615 470.549 86.4562 476.521 80.1386C482.492 73.8211 485.478 65.2967 485.478 54.5655C485.478 43.7477 482.492 35.2233 476.521 28.9923C470.636 22.6747 462.241 19.516 451.337 19.516H433.553ZM537.344 100.779C527.478 100.779 519.517 97.6634 513.459 91.4323C507.487 85.2013 504.502 77.0231 504.502 66.8977C504.502 56.8588 507.401 48.7239 513.199 42.4929C518.997 36.1753 526.57 33.0165 535.916 33.0165C545.349 33.0165 552.879 35.8291 558.504 41.4544C564.129 46.993 567.071 54.652 567.331 64.4312C567.331 65.3832 567.244 66.8977 567.071 68.9747H515.665V69.8834C515.839 76.2875 517.786 81.48 521.507 85.4609C525.315 89.3553 530.334 91.3025 536.565 91.3025C541.325 91.3025 545.349 90.1342 548.638 87.7976C552.013 85.3744 554.263 82.0425 555.388 77.802H566.163C564.865 84.5523 561.619 90.0909 556.427 94.418C551.234 98.6586 544.873 100.779 537.344 100.779ZM516.315 60.1474H555.907C555.388 54.5222 553.355 50.1518 549.806 47.0363C546.258 43.9208 541.671 42.363 536.046 42.363C531.027 42.363 526.613 44.0073 522.805 47.2959C518.997 50.5845 516.834 54.8684 516.315 60.1474ZM573.642 78.1914H584.546C584.72 82.1724 586.45 85.4177 589.739 87.9274C593.028 90.4371 597.398 91.692 602.85 91.692C607.523 91.692 611.331 90.7833 614.274 88.9659C617.303 87.062 618.817 84.5955 618.817 81.5666C618.817 79.9223 618.471 78.5376 617.779 77.4125C617.173 76.2875 616.48 75.4221 615.702 74.8163C615.009 74.1239 613.711 73.5614 611.807 73.1287C609.903 72.6095 608.432 72.3066 607.394 72.22C606.355 72.0469 604.451 71.7873 601.682 71.4411C597.441 70.9219 593.936 70.3594 591.167 69.7536C588.398 69.0612 585.672 68.066 582.989 66.7679C580.306 65.3832 578.315 63.5658 577.017 61.3157C575.719 58.9791 575.07 56.1665 575.07 52.8779C575.07 46.9065 577.493 42.1034 582.34 38.4687C587.273 34.7473 593.504 32.93 601.033 33.0165C608.821 33.1031 615.139 34.9637 619.985 38.5985C624.832 42.1467 627.515 47.2527 628.034 53.9164H617.13C616.697 50.4547 615.009 47.6421 612.067 45.4786C609.211 43.2285 605.533 42.1034 601.033 42.1034C596.359 42.1034 592.595 43.0121 589.739 44.8295C586.97 46.6469 585.585 49.07 585.585 52.099C585.585 53.8299 585.931 55.2578 586.623 56.3828C587.402 57.5079 588.657 58.4166 590.388 59.1089C592.205 59.7147 593.85 60.1907 595.321 60.5369C596.879 60.7965 599.172 61.0994 602.201 61.4455C605.663 61.8783 608.562 62.311 610.899 62.7437C613.235 63.1764 615.658 63.8687 618.168 64.8207C620.678 65.7726 622.668 66.8977 624.139 68.1958C625.697 69.494 626.952 71.2248 627.904 73.3883C628.856 75.4653 629.332 77.9318 629.332 80.7877C629.332 86.8456 626.779 91.692 621.673 95.3267C616.654 98.9615 610.379 100.779 602.85 100.779C594.109 100.779 587.056 98.7884 581.691 94.8075C576.412 90.8266 573.729 85.2879 573.642 78.1914ZM648.677 20.6843C647.379 21.9824 645.735 22.6315 643.744 22.6315C641.754 22.6315 640.109 21.9824 638.811 20.6843C637.513 19.3861 636.864 17.7418 636.864 15.7514C636.864 13.7609 637.513 12.1166 638.811 10.8185C640.109 9.52036 641.754 8.8713 643.744 8.8713C645.735 8.8713 647.379 9.52036 648.677 10.8185C649.975 12.1166 650.624 13.7609 650.624 15.7514C650.624 17.7418 649.975 19.3861 648.677 20.6843ZM638.292 100V33.7954H648.937V100H638.292ZM712.848 45.2189L714.276 33.7954H723.493V96.7547C723.493 116.746 712.545 126.741 690.65 126.741C682.083 126.741 675.073 124.794 669.621 120.9C664.255 117.005 661.139 111.467 660.274 104.284H671.178C672.044 108.438 674.251 111.64 677.799 113.89C681.347 116.14 685.89 117.265 691.429 117.265C705.709 117.265 712.848 110.298 712.848 96.3652V88.5765C708.089 96.7114 700.516 100.779 690.131 100.779C680.785 100.779 673.126 97.7932 667.154 91.8218C661.269 85.7638 658.327 77.4558 658.327 66.8977C658.327 56.8588 661.313 48.7239 667.284 42.4929C673.255 36.1753 680.871 33.0165 690.131 33.0165C700.689 33.0165 708.262 37.084 712.848 45.2189ZM691.17 91.3025C697.66 91.3025 702.896 89.0524 706.877 84.5523C710.944 80.0521 712.978 74.2538 712.978 67.1573C712.978 59.8878 710.944 53.9597 706.877 49.3729C702.896 44.7862 697.66 42.4929 691.17 42.4929C684.592 42.4929 679.27 44.7862 675.203 49.3729C671.222 53.8731 669.231 59.7147 669.231 66.8977C669.231 74.0807 671.222 79.9655 675.203 84.5523C679.27 89.0524 684.592 91.3025 691.17 91.3025ZM767.591 33.0165C775.639 33.0165 782.087 35.4397 786.933 40.286C791.866 45.1324 794.332 52.7481 794.332 63.1331V100H783.688V63.7822C783.688 56.9454 782.13 51.7528 779.014 48.2046C775.985 44.5699 771.572 42.7525 765.773 42.7525C759.542 42.7525 754.653 44.916 751.105 49.2431C747.556 53.5702 745.782 59.4551 745.782 66.8977V100H735.138V33.7954H744.354L745.782 42.7525C750.802 36.2618 758.071 33.0165 767.591 33.0165Z" fill="#EDEDF0"/>
</g>
<path d="M120 79.1129V105.484H52.7855C33.2032 105.484 16.105 94.8779 6.95711 79.1129C5.62725 76.821 4.46332 74.4165 3.48697 71.9208C1.57034 67.0302 0.365531 61.7824 0 56.3068V49.177C0.0793587 47.9568 0.204409 46.7461 0.367936 45.5498C0.702204 43.0949 1.20721 40.6928 1.87094 38.3578C8.14989 16.2205 28.5667 0 52.7855 0C77.0043 0 97.4188 16.2205 103.698 38.3578H74.9579C70.2396 31.1417 62.0729 26.371 52.7855 26.371C43.4982 26.371 35.3314 31.1417 30.6132 38.3578C29.1751 40.5513 28.0593 42.9703 27.3282 45.5498C26.6789 47.8369 26.3326 50.2487 26.3326 52.7419C26.3326 60.3008 29.5214 67.1141 34.634 71.9208C39.3715 76.3823 45.7587 79.1129 52.7855 79.1129H120Z" fill="#FD366E"/>
<path d="M120 45.5499V71.9208H70.9371C76.0497 67.1141 79.2385 60.3008 79.2385 52.742C79.2385 50.2487 78.8922 47.8369 78.2429 45.5499H120Z" fill="#FD366E"/>
</g>
<defs>
<filter id="filter0_b_1_13" x="141.961" y="-10.3602" width="671.602" height="156.333" filterUnits="userSpaceOnUse" color-interpolation-filters="sRGB">
<feFlood flood-opacity="0" result="BackgroundImageFix"/>
<feGaussianBlur in="BackgroundImageFix" stdDeviation="9.61577"/>
<feComposite in2="SourceAlpha" operator="in" result="effect1_backgroundBlur_1_13"/>
<feBlend mode="normal" in="SourceGraphic" in2="effect1_backgroundBlur_1_13" result="shape"/>
</filter>
<clipPath id="clip0_1_13">
<rect width="806" height="128" fill="white"/>
</clipPath>
</defs>
</svg>
