<svg width="140" height="30" viewBox="0 0 140 30" fill="none" xmlns="http://www.w3.org/2000/svg">
<path d="M24.6702 16.2282C24.6702 20.7653 20.9919 24.4435 16.4541 24.4435C14.3465 24.4435 12.4243 23.6498 10.9698 22.3454C13.2998 21.2965 14.9218 18.9547 14.9218 16.2341C14.9218 13.51 13.2958 11.1658 10.9609 10.1189C12.4167 8.80973 14.3422 8.01294 16.4541 8.01294C20.9919 8.01294 24.6702 11.691 24.6702 16.2282Z" fill="#F02E65"/>
<path d="M13.1698 9.67066C8.1239 5.85779 0.84212 8.93631 0.0627421 15.2122C-0.299433 18.129 0.924208 21.017 3.27158 22.7858C8.32025 26.5953 15.5999 23.5114 16.375 17.2349C16.7346 14.3218 15.5128 11.4385 13.1698 9.67058V9.67066ZM12.2559 10.8812C16.3726 13.9873 15.5826 20.3843 10.8339 22.396C8.63037 23.3296 6.0958 23.0167 4.18535 21.5751C0.0689296 18.469 0.858785 12.0719 5.60732 10.0604C7.81098 9.12687 10.3455 9.43968 12.2559 10.8812Z" fill="#F02E65"/>
<path d="M8.44071 13.3857C8.43097 13.4099 8.30516 13.9032 8.17011 14.4886C8.02961 15.0737 7.80711 15.9976 7.68154 16.544C7.43957 17.5452 7.29445 18.203 7.29445 18.2899C7.29445 18.314 7.44452 18.3336 7.62808 18.3336H7.96204L8.11178 17.666C8.19898 17.3034 8.39261 16.4714 8.54722 15.8185C8.70207 15.1656 8.8905 14.3723 8.96318 14.053C9.0357 13.7338 9.1083 13.4439 9.12282 13.4099C9.13734 13.3664 9.055 13.3521 8.80346 13.3521C8.61478 13.3521 8.45028 13.3664 8.44071 13.3857ZM5.84336 15.4798L5.39844 15.9636L5.5292 16.1184C5.60155 16.2053 5.80013 16.423 5.96926 16.6021L6.27888 16.9307H7.15924L6.74311 16.481C6.51565 16.2395 6.32706 16.0071 6.32706 15.9782C6.32706 15.9443 6.50122 15.7268 6.71423 15.4945C6.92692 15.2577 7.10107 15.0543 7.10107 15.0302C7.10107 15.0107 6.91735 14.9963 6.69493 14.9963H6.2934L5.84336 15.4798ZM9.22899 15.0253C9.22899 15.0399 9.31133 15.1316 9.41281 15.2332C9.79033 15.6105 10.0562 15.9298 10.0416 15.9925C10.0321 16.0266 9.84816 16.2537 9.62574 16.4907L9.22437 16.9307H9.67408L10.1239 16.926L10.5348 16.4762C10.7624 16.2249 10.9462 16.0021 10.9462 15.9732C10.9462 15.9492 10.7527 15.7218 10.5107 15.4655L10.0758 14.9963H9.65469C9.41767 14.9963 9.22899 15.0107 9.22899 15.0253Z" fill="#F02E65"/>
<path d="M32.0299 13.06C32.3899 12.4333 32.9233 11.9133 33.6299 11.5C34.3499 11.0733 35.1833 10.86 36.1299 10.86C37.1033 10.86 37.9833 11.0933 38.7699 11.56C39.5699 12.0267 40.1966 12.6867 40.6499 13.54C41.1033 14.38 41.3299 15.36 41.3299 16.48C41.3299 17.5867 41.1033 18.5733 40.6499 19.44C40.1966 20.3067 39.5699 20.98 38.7699 21.46C37.9833 21.94 37.1033 22.18 36.1299 22.18C35.1966 22.18 34.3699 21.9733 33.6499 21.56C32.9433 21.1333 32.4033 20.6067 32.0299 19.98V27.2H30.2099V11.04H32.0299V13.06ZM39.4699 16.48C39.4699 15.6533 39.3033 14.9333 38.9699 14.32C38.6366 13.7067 38.1833 13.24 37.6099 12.92C37.0499 12.6 36.4299 12.44 35.7499 12.44C35.0833 12.44 34.4633 12.6067 33.8899 12.94C33.3299 13.26 32.8766 13.7333 32.5299 14.36C32.1966 14.9733 32.0299 15.6867 32.0299 16.5C32.0299 17.3267 32.1966 18.0533 32.5299 18.68C32.8766 19.2933 33.3299 19.7667 33.8899 20.1C34.4633 20.42 35.0833 20.58 35.7499 20.58C36.4299 20.58 37.0499 20.42 37.6099 20.1C38.1833 19.7667 38.6366 19.2933 38.9699 18.68C39.3033 18.0533 39.4699 17.32 39.4699 16.48ZM44.6655 9.26C44.3189 9.26 44.0255 9.14 43.7855 8.9C43.5455 8.66 43.4255 8.36667 43.4255 8.02C43.4255 7.67333 43.5455 7.38 43.7855 7.14C44.0255 6.9 44.3189 6.78 44.6655 6.78C44.9989 6.78 45.2789 6.9 45.5055 7.14C45.7455 7.38 45.8655 7.67333 45.8655 8.02C45.8655 8.36667 45.7455 8.66 45.5055 8.9C45.2789 9.14 44.9989 9.26 44.6655 9.26ZM45.5455 11.04V22H43.7255V11.04H45.5455ZM53.9874 10.84C55.3208 10.84 56.4008 11.2467 57.2274 12.06C58.0541 12.86 58.4674 14.02 58.4674 15.54V22H56.6674V15.8C56.6674 14.7067 56.3941 13.8733 55.8474 13.3C55.3008 12.7133 54.5541 12.42 53.6074 12.42C52.6474 12.42 51.8808 12.72 51.3074 13.32C50.7474 13.92 50.4674 14.7933 50.4674 15.94V22H48.6474V11.04H50.4674V12.6C50.8274 12.04 51.3141 11.6067 51.9274 11.3C52.5541 10.9933 53.2408 10.84 53.9874 10.84ZM67.5604 22L63.2604 17.16V22H61.4404V7.2H63.2604V15.9L67.4804 11.04H70.0204L64.8604 16.5L70.0404 22H67.5604ZM70.8534 16.42C70.8534 15.3 71.0734 14.3067 71.5134 13.44C71.9667 12.5733 72.58 11.9067 73.3534 11.44C74.1267 10.9733 74.9867 10.74 75.9334 10.74C76.6534 10.74 77.34 10.9 77.9934 11.22C78.6467 11.5267 79.1667 11.94 79.5534 12.46V7.2H82.3934V22H79.5534V20.36C79.2067 20.9067 78.72 21.3467 78.0934 21.68C77.4667 22.0133 76.74 22.18 75.9134 22.18C74.98 22.18 74.1267 21.94 73.3534 21.46C72.58 20.98 71.9667 20.3067 71.5134 19.44C71.0734 18.56 70.8534 17.5533 70.8534 16.42ZM79.5734 16.46C79.5734 15.78 79.44 15.2 79.1734 14.72C78.9067 14.2267 78.5467 13.8533 78.0934 13.6C77.64 13.3333 77.1534 13.2 76.6334 13.2C76.1134 13.2 75.6334 13.3267 75.1934 13.58C74.7534 13.8333 74.3934 14.2067 74.1134 14.7C73.8467 15.18 73.7134 15.7533 73.7134 16.42C73.7134 17.0867 73.8467 17.6733 74.1134 18.18C74.3934 18.6733 74.7534 19.0533 75.1934 19.32C75.6467 19.5867 76.1267 19.72 76.6334 19.72C77.1534 19.72 77.64 19.5933 78.0934 19.34C78.5467 19.0733 78.9067 18.7 79.1734 18.22C79.44 17.7267 79.5734 17.14 79.5734 16.46ZM95.428 16.22C95.428 16.62 95.4014 16.98 95.348 17.3H87.248C87.3147 18.1 87.5947 18.7267 88.088 19.18C88.5814 19.6333 89.188 19.86 89.908 19.86C90.948 19.86 91.688 19.4133 92.128 18.52H95.148C94.828 19.5867 94.2147 20.4667 93.308 21.16C92.4014 21.84 91.288 22.18 89.968 22.18C88.9014 22.18 87.9414 21.9467 87.088 21.48C86.248 21 85.588 20.3267 85.108 19.46C84.6414 18.5933 84.408 17.5933 84.408 16.46C84.408 15.3133 84.6414 14.3067 85.108 13.44C85.5747 12.5733 86.228 11.9067 87.068 11.44C87.908 10.9733 88.8747 10.74 89.968 10.74C91.0214 10.74 91.9614 10.9667 92.788 11.42C93.628 11.8733 94.2747 12.52 94.728 13.36C95.1947 14.1867 95.428 15.14 95.428 16.22ZM92.528 15.42C92.5147 14.7 92.2547 14.1267 91.748 13.7C91.2414 13.26 90.6214 13.04 89.888 13.04C89.1947 13.04 88.608 13.2533 88.128 13.68C87.6614 14.0933 87.3747 14.6733 87.268 15.42H92.528ZM101.712 22.18C100.805 22.18 99.9918 22.02 99.2718 21.7C98.5518 21.3667 97.9785 20.92 97.5518 20.36C97.1385 19.8 96.9118 19.18 96.8718 18.5H99.6918C99.7451 18.9267 99.9518 19.28 100.312 19.56C100.685 19.84 101.145 19.98 101.692 19.98C102.225 19.98 102.638 19.8733 102.932 19.66C103.238 19.4467 103.392 19.1733 103.392 18.84C103.392 18.48 103.205 18.2133 102.832 18.04C102.472 17.8533 101.892 17.6533 101.092 17.44C100.265 17.24 99.5851 17.0333 99.0518 16.82C98.5318 16.6067 98.0785 16.28 97.6918 15.84C97.3185 15.4 97.1318 14.8067 97.1318 14.06C97.1318 13.4467 97.3051 12.8867 97.6518 12.38C98.0118 11.8733 98.5185 11.4733 99.1718 11.18C99.8385 10.8867 100.618 10.74 101.512 10.74C102.832 10.74 103.885 11.0733 104.672 11.74C105.458 12.3933 105.892 13.28 105.972 14.4H103.292C103.252 13.96 103.065 13.6133 102.732 13.36C102.412 13.0933 101.978 12.96 101.432 12.96C100.925 12.96 100.532 13.0533 100.252 13.24C99.9851 13.4267 99.8518 13.6867 99.8518 14.02C99.8518 14.3933 100.038 14.68 100.412 14.88C100.785 15.0667 101.365 15.26 102.152 15.46C102.952 15.66 103.612 15.8667 104.132 16.08C104.652 16.2933 105.098 16.6267 105.472 17.08C105.858 17.52 106.058 18.1067 106.072 18.84C106.072 19.48 105.892 20.0533 105.532 20.56C105.185 21.0667 104.678 21.4667 104.012 21.76C103.358 22.04 102.592 22.18 101.712 22.18ZM109.79 9.6C109.297 9.6 108.884 9.44667 108.55 9.14C108.23 8.82 108.07 8.42667 108.07 7.96C108.07 7.49333 108.23 7.10667 108.55 6.8C108.884 6.48 109.297 6.32 109.79 6.32C110.284 6.32 110.69 6.48 111.01 6.8C111.344 7.10667 111.51 7.49333 111.51 7.96C111.51 8.42667 111.344 8.82 111.01 9.14C110.69 9.44667 110.284 9.6 109.79 9.6ZM111.17 10.92V22H108.37V10.92H111.17ZM118.277 10.74C119.103 10.74 119.83 10.9067 120.457 11.24C121.083 11.56 121.577 11.98 121.937 12.5V10.92H124.757V22.08C124.757 23.1067 124.55 24.02 124.137 24.82C123.723 25.6333 123.103 26.2733 122.277 26.74C121.45 27.22 120.45 27.46 119.277 27.46C117.703 27.46 116.41 27.0933 115.397 26.36C114.397 25.6267 113.83 24.6267 113.697 23.36H116.477C116.623 23.8667 116.937 24.2667 117.417 24.56C117.91 24.8667 118.503 25.02 119.197 25.02C120.01 25.02 120.67 24.7733 121.177 24.28C121.683 23.8 121.937 23.0667 121.937 22.08V20.36C121.577 20.88 121.077 21.3133 120.437 21.66C119.81 22.0067 119.09 22.18 118.277 22.18C117.343 22.18 116.49 21.94 115.717 21.46C114.943 20.98 114.33 20.3067 113.877 19.44C113.437 18.56 113.217 17.5533 113.217 16.42C113.217 15.3 113.437 14.3067 113.877 13.44C114.33 12.5733 114.937 11.9067 115.697 11.44C116.47 10.9733 117.33 10.74 118.277 10.74ZM121.937 16.46C121.937 15.78 121.803 15.2 121.537 14.72C121.27 14.2267 120.91 13.8533 120.457 13.6C120.003 13.3333 119.517 13.2 118.997 13.2C118.477 13.2 117.997 13.3267 117.557 13.58C117.117 13.8333 116.757 14.2067 116.477 14.7C116.21 15.18 116.077 15.7533 116.077 16.42C116.077 17.0867 116.21 17.6733 116.477 18.18C116.757 18.6733 117.117 19.0533 117.557 19.32C118.01 19.5867 118.49 19.72 118.997 19.72C119.517 19.72 120.003 19.5933 120.457 19.34C120.91 19.0733 121.27 18.7 121.537 18.22C121.803 17.7267 121.937 17.14 121.937 16.46ZM133.631 10.76C134.951 10.76 136.018 11.18 136.831 12.02C137.645 12.8467 138.051 14.0067 138.051 15.5V22H135.251V15.88C135.251 15 135.031 14.3267 134.591 13.86C134.151 13.38 133.551 13.14 132.791 13.14C132.018 13.14 131.405 13.38 130.951 13.86C130.511 14.3267 130.291 15 130.291 15.88V22H127.491V10.92H130.291V12.3C130.665 11.82 131.138 11.4467 131.711 11.18C132.298 10.9 132.938 10.76 133.631 10.76Z" fill="#F02E65"/>
</svg>
