<svg width="806" height="132" viewBox="0 0 806 132" fill="none" xmlns="http://www.w3.org/2000/svg">
<g clip-path="url(#clip0_1_8)">
<g filter="url(#filter0_b_1_8)">
<path d="M165.193 100V9.13092H200.113C209.2 9.13092 216.469 11.6839 221.921 16.7899C227.46 21.8093 230.229 28.5596 230.229 37.0407C230.229 45.5218 227.46 52.3154 221.921 57.4213C216.469 62.5273 209.2 65.0803 200.113 65.0803H176.487V100H165.193ZM199.204 19.516H176.487V54.6953H199.074C205.046 54.6953 209.805 53.0943 213.354 49.8922C216.902 46.6901 218.676 42.4063 218.676 37.0407C218.676 31.6751 216.902 27.4346 213.354 24.319C209.892 21.117 205.175 19.516 199.204 19.516ZM248.241 20.6843C246.943 21.9824 245.298 22.6315 243.308 22.6315C241.317 22.6315 239.673 21.9824 238.375 20.6843C237.077 19.3861 236.428 17.7418 236.428 15.7514C236.428 13.7609 237.077 12.1166 238.375 10.8185C239.673 9.52036 241.317 8.8713 243.308 8.8713C245.298 8.8713 246.943 9.52036 248.241 10.8185C249.539 12.1166 250.188 13.7609 250.188 15.7514C250.188 17.7418 249.539 19.3861 248.241 20.6843ZM237.856 100V33.7954H248.5V100H237.856ZM292.68 33.0165C300.729 33.0165 307.176 35.4397 312.023 40.286C316.955 45.1324 319.422 52.7481 319.422 63.1331V100H308.777V63.7822C308.777 56.9454 307.219 51.7528 304.104 48.2046C301.075 44.5699 296.661 42.7525 290.863 42.7525C284.632 42.7525 279.742 44.916 276.194 49.2431C272.646 53.5702 270.872 59.4551 270.872 66.8977V100H260.227V33.7954H269.444L270.872 42.7525C275.891 36.2618 283.161 33.0165 292.68 33.0165ZM330.138 100V9.13092H340.782V68.9747L374.014 33.7954H387.125L361.293 61.1859L388.943 100H376.091L354.153 68.8449L340.782 82.6051V100H330.138ZM455.337 100H426.259V9.13092H455.337C469.443 9.13092 480.564 13.2849 488.699 21.593C496.921 29.8145 501.031 40.8053 501.031 54.5655C501.031 68.2391 496.921 79.2299 488.699 87.538C480.564 95.846 469.443 100 455.337 100ZM437.553 19.516V89.615H455.337C466.155 89.615 474.549 86.4562 480.521 80.1386C486.492 73.8211 489.478 65.2967 489.478 54.5655C489.478 43.7477 486.492 35.2233 480.521 28.9923C474.636 22.6747 466.241 19.516 455.337 19.516H437.553ZM541.344 100.779C531.478 100.779 523.517 97.6634 517.459 91.4323C511.487 85.2013 508.502 77.0231 508.502 66.8977C508.502 56.8588 511.401 48.7239 517.199 42.4929C522.997 36.1753 530.57 33.0165 539.916 33.0165C549.349 33.0165 556.879 35.8291 562.504 41.4544C568.129 46.993 571.071 54.652 571.331 64.4312C571.331 65.3832 571.244 66.8977 571.071 68.9747H519.665V69.8834C519.839 76.2875 521.786 81.48 525.507 85.4609C529.315 89.3553 534.334 91.3025 540.565 91.3025C545.325 91.3025 549.349 90.1342 552.638 87.7976C556.013 85.3744 558.263 82.0425 559.388 77.802H570.163C568.865 84.5523 565.619 90.0909 560.427 94.418C555.234 98.6586 548.873 100.779 541.344 100.779ZM520.315 60.1474H559.907C559.388 54.5222 557.355 50.1518 553.806 47.0363C550.258 43.9208 545.671 42.363 540.046 42.363C535.027 42.363 530.613 44.0073 526.805 47.2959C522.997 50.5845 520.834 54.8684 520.315 60.1474ZM577.642 78.1914H588.546C588.72 82.1724 590.45 85.4177 593.739 87.9274C597.028 90.4371 601.398 91.692 606.85 91.692C611.523 91.692 615.331 90.7833 618.274 88.9659C621.303 87.062 622.817 84.5955 622.817 81.5666C622.817 79.9223 622.471 78.5376 621.779 77.4125C621.173 76.2875 620.48 75.4221 619.702 74.8163C619.009 74.1239 617.711 73.5614 615.807 73.1287C613.903 72.6095 612.432 72.3066 611.394 72.22C610.355 72.0469 608.451 71.7873 605.682 71.4411C601.441 70.9219 597.936 70.3594 595.167 69.7536C592.398 69.0612 589.672 68.066 586.989 66.7679C584.306 65.3832 582.315 63.5658 581.017 61.3157C579.719 58.9791 579.07 56.1665 579.07 52.8779C579.07 46.9065 581.493 42.1034 586.34 38.4687C591.273 34.7473 597.504 32.93 605.033 33.0165C612.821 33.1031 619.139 34.9637 623.985 38.5985C628.832 42.1467 631.515 47.2527 632.034 53.9164H621.13C620.697 50.4547 619.009 47.6421 616.067 45.4786C613.211 43.2285 609.533 42.1034 605.033 42.1034C600.359 42.1034 596.595 43.0121 593.739 44.8295C590.97 46.6469 589.585 49.07 589.585 52.099C589.585 53.8299 589.931 55.2578 590.623 56.3828C591.402 57.5079 592.657 58.4166 594.388 59.1089C596.205 59.7147 597.85 60.1907 599.321 60.5369C600.879 60.7965 603.172 61.0994 606.201 61.4455C609.663 61.8783 612.562 62.311 614.899 62.7437C617.235 63.1764 619.658 63.8687 622.168 64.8207C624.678 65.7726 626.668 66.8977 628.139 68.1958C629.697 69.494 630.952 71.2248 631.904 73.3883C632.856 75.4653 633.332 77.9318 633.332 80.7877C633.332 86.8456 630.779 91.692 625.673 95.3267C620.654 98.9615 614.379 100.779 606.85 100.779C598.109 100.779 591.056 98.7884 585.691 94.8075C580.412 90.8266 577.729 85.2879 577.642 78.1914ZM652.677 20.6843C651.379 21.9824 649.735 22.6315 647.744 22.6315C645.754 22.6315 644.109 21.9824 642.811 20.6843C641.513 19.3861 640.864 17.7418 640.864 15.7514C640.864 13.7609 641.513 12.1166 642.811 10.8185C644.109 9.52036 645.754 8.8713 647.744 8.8713C649.735 8.8713 651.379 9.52036 652.677 10.8185C653.975 12.1166 654.624 13.7609 654.624 15.7514C654.624 17.7418 653.975 19.3861 652.677 20.6843ZM642.292 100V33.7954H652.937V100H642.292ZM716.848 45.2189L718.276 33.7954H727.493V96.7547C727.493 116.746 716.545 126.741 694.65 126.741C686.083 126.741 679.073 124.794 673.621 120.9C668.255 117.005 665.139 111.467 664.274 104.284H675.178C676.044 108.438 678.251 111.64 681.799 113.89C685.347 116.14 689.89 117.265 695.429 117.265C709.709 117.265 716.848 110.298 716.848 96.3652V88.5765C712.089 96.7114 704.516 100.779 694.131 100.779C684.785 100.779 677.126 97.7932 671.154 91.8218C665.269 85.7638 662.327 77.4558 662.327 66.8977C662.327 56.8588 665.313 48.7239 671.284 42.4929C677.255 36.1753 684.871 33.0165 694.131 33.0165C704.689 33.0165 712.262 37.084 716.848 45.2189ZM695.17 91.3025C701.66 91.3025 706.896 89.0524 710.877 84.5523C714.944 80.0521 716.978 74.2538 716.978 67.1573C716.978 59.8878 714.944 53.9597 710.877 49.3729C706.896 44.7862 701.66 42.4929 695.17 42.4929C688.592 42.4929 683.27 44.7862 679.203 49.3729C675.222 53.8731 673.231 59.7147 673.231 66.8977C673.231 74.0807 675.222 79.9655 679.203 84.5523C683.27 89.0524 688.592 91.3025 695.17 91.3025ZM771.591 33.0165C779.639 33.0165 786.087 35.4397 790.933 40.286C795.866 45.1324 798.332 52.7481 798.332 63.1331V100H787.688V63.7822C787.688 56.9454 786.13 51.7528 783.014 48.2046C779.985 44.5699 775.572 42.7525 769.773 42.7525C763.542 42.7525 758.653 44.916 755.105 49.2431C751.556 53.5702 749.782 59.4551 749.782 66.8977V100H739.138V33.7954H748.354L749.782 42.7525C754.802 36.2618 762.071 33.0165 771.591 33.0165Z" fill="#19191D"/>
</g>
<path d="M120 79.1129V105.484H52.7855C33.2032 105.484 16.105 94.8779 6.95711 79.1129C5.62725 76.821 4.46332 74.4165 3.48697 71.9208C1.57034 67.0302 0.365531 61.7824 0 56.3068V49.177C0.0793587 47.9568 0.204409 46.7461 0.367936 45.5498C0.702204 43.0949 1.20721 40.6928 1.87094 38.3578C8.14989 16.2205 28.5667 0 52.7855 0C77.0043 0 97.4188 16.2205 103.698 38.3578H74.9579C70.2396 31.1417 62.0729 26.371 52.7855 26.371C43.4982 26.371 35.3314 31.1417 30.6132 38.3578C29.1751 40.5513 28.0593 42.9703 27.3282 45.5498C26.6789 47.8369 26.3326 50.2487 26.3326 52.7419C26.3326 60.3008 29.5214 67.1141 34.634 71.9208C39.3715 76.3823 45.7587 79.1129 52.7855 79.1129H120Z" fill="#FD366E"/>
<path d="M120 45.5499V71.9208H70.9371C76.0497 67.1141 79.2385 60.3008 79.2385 52.742C79.2385 50.2487 78.8922 47.8369 78.2429 45.5499H120Z" fill="#FD366E"/>
</g>
<defs>
<filter id="filter0_b_1_8" x="145.961" y="-10.3602" width="671.602" height="156.333" filterUnits="userSpaceOnUse" color-interpolation-filters="sRGB">
<feFlood flood-opacity="0" result="BackgroundImageFix"/>
<feGaussianBlur in="BackgroundImageFix" stdDeviation="9.61577"/>
<feComposite in2="SourceAlpha" operator="in" result="effect1_backgroundBlur_1_8"/>
<feBlend mode="normal" in="SourceGraphic" in2="effect1_backgroundBlur_1_8" result="shape"/>
</filter>
<clipPath id="clip0_1_8">
<rect width="806" height="132" fill="white"/>
</clipPath>
</defs>
</svg>
