<svg width="91" height="30" viewBox="0 0 91 30" fill="none" xmlns="http://www.w3.org/2000/svg">
<path d="M24.6702 16.2282C24.6702 20.7653 20.9919 24.4435 16.4541 24.4435C14.3465 24.4435 12.4243 23.6498 10.9698 22.3454C13.2998 21.2965 14.9218 18.9547 14.9218 16.2341C14.9218 13.51 13.2958 11.1658 10.9609 10.1189C12.4167 8.80973 14.3422 8.01294 16.4541 8.01294C20.9919 8.01294 24.6702 11.691 24.6702 16.2282Z" fill="#fff"/>
<path d="M13.1698 9.67066C8.1239 5.85779 0.84212 8.93631 0.0627421 15.2122C-0.299433 18.129 0.924208 21.017 3.27158 22.7858C8.32025 26.5953 15.5999 23.5114 16.375 17.2349C16.7346 14.3218 15.5128 11.4385 13.1698 9.67058V9.67066ZM12.2559 10.8812C16.3726 13.9873 15.5826 20.3843 10.8339 22.396C8.63037 23.3296 6.0958 23.0167 4.18535 21.5751C0.0689296 18.469 0.858785 12.0719 5.60732 10.0604C7.81098 9.12687 10.3455 9.43968 12.2559 10.8812Z" fill="#fff"/>
<path d="M8.44071 13.3858C8.43097 13.41 8.30516 13.9034 8.17011 14.4887C8.02961 15.0739 7.80711 15.9977 7.68154 16.5441C7.43957 17.5453 7.29445 18.2031 7.29445 18.29C7.29445 18.3141 7.44452 18.3337 7.62808 18.3337H7.96204L8.11178 17.6661C8.19898 17.3035 8.39261 16.4715 8.54722 15.8186C8.70207 15.1657 8.8905 14.3725 8.96318 14.0531C9.0357 13.7339 9.1083 13.444 9.12282 13.41C9.13734 13.3665 9.055 13.3522 8.80346 13.3522C8.61478 13.3522 8.45028 13.3665 8.44071 13.3858ZM5.84336 15.4799L5.39844 15.9637L5.5292 16.1185C5.60155 16.2054 5.80013 16.4232 5.96926 16.6023L6.27888 16.9309H7.15924L6.74311 16.4812C6.51565 16.2396 6.32706 16.0072 6.32706 15.9783C6.32706 15.9444 6.50122 15.7269 6.71423 15.4946C6.92692 15.2578 7.10107 15.0544 7.10107 15.0303C7.10107 15.0108 6.91735 14.9964 6.69493 14.9964H6.2934L5.84336 15.4799ZM9.22899 15.0254C9.22899 15.04 9.31133 15.1317 9.41281 15.2333C9.79033 15.6106 10.0562 15.93 10.0416 15.9926C10.0321 16.0267 9.84816 16.2539 9.62574 16.4908L9.22437 16.9309H9.67408L10.1239 16.9262L10.5348 16.4763C10.7624 16.225 10.9462 16.0022 10.9462 15.9734C10.9462 15.9493 10.7527 15.7219 10.5107 15.4657L10.0758 14.9964H9.65469C9.41767 14.9964 9.22899 15.0108 9.22899 15.0254Z" fill="#fff"/>
<path d="M32.0299 13.06C32.3899 12.4333 32.9233 11.9133 33.6299 11.5C34.3499 11.0733 35.1833 10.86 36.1299 10.86C37.1033 10.86 37.9833 11.0933 38.7699 11.56C39.5699 12.0267 40.1966 12.6867 40.6499 13.54C41.1033 14.38 41.3299 15.36 41.3299 16.48C41.3299 17.5867 41.1033 18.5733 40.6499 19.44C40.1966 20.3067 39.5699 20.98 38.7699 21.46C37.9833 21.94 37.1033 22.18 36.1299 22.18C35.1966 22.18 34.3699 21.9733 33.6499 21.56C32.9433 21.1333 32.4033 20.6067 32.0299 19.98V27.2H30.2099V11.04H32.0299V13.06ZM39.4699 16.48C39.4699 15.6533 39.3033 14.9333 38.9699 14.32C38.6366 13.7067 38.1833 13.24 37.6099 12.92C37.0499 12.6 36.4299 12.44 35.7499 12.44C35.0833 12.44 34.4633 12.6067 33.8899 12.94C33.3299 13.26 32.8766 13.7333 32.5299 14.36C32.1966 14.9733 32.0299 15.6867 32.0299 16.5C32.0299 17.3267 32.1966 18.0533 32.5299 18.68C32.8766 19.2933 33.3299 19.7667 33.8899 20.1C34.4633 20.42 35.0833 20.58 35.7499 20.58C36.4299 20.58 37.0499 20.42 37.6099 20.1C38.1833 19.7667 38.6366 19.2933 38.9699 18.68C39.3033 18.0533 39.4699 17.32 39.4699 16.48ZM44.6655 9.26C44.3189 9.26 44.0255 9.14 43.7855 8.9C43.5455 8.66 43.4255 8.36667 43.4255 8.02C43.4255 7.67333 43.5455 7.38 43.7855 7.14C44.0255 6.9 44.3189 6.78 44.6655 6.78C44.9989 6.78 45.2789 6.9 45.5055 7.14C45.7455 7.38 45.8655 7.67333 45.8655 8.02C45.8655 8.36667 45.7455 8.66 45.5055 8.9C45.2789 9.14 44.9989 9.26 44.6655 9.26ZM45.5455 11.04V22H43.7255V11.04H45.5455ZM53.9874 10.84C55.3208 10.84 56.4008 11.2467 57.2274 12.06C58.0541 12.86 58.4674 14.02 58.4674 15.54V22H56.6674V15.8C56.6674 14.7067 56.3941 13.8733 55.8474 13.3C55.3008 12.7133 54.5541 12.42 53.6074 12.42C52.6474 12.42 51.8808 12.72 51.3074 13.32C50.7474 13.92 50.4674 14.7933 50.4674 15.94V22H48.6474V11.04H50.4674V12.6C50.8274 12.04 51.3141 11.6067 51.9274 11.3C52.5541 10.9933 53.2408 10.84 53.9874 10.84ZM67.5604 22L63.2604 17.16V22H61.4404V7.2H63.2604V15.9L67.4804 11.04H70.0204L64.8604 16.5L70.0404 22H67.5604ZM74.3334 8.04V16.68C74.3334 17.6267 74.58 18.3533 75.0734 18.86C75.5667 19.3533 76.26 19.6 77.1534 19.6C78.06 19.6 78.76 19.3533 79.2534 18.86C79.7467 18.3533 79.9934 17.6267 79.9934 16.68V8.04H82.8134V16.66C82.8134 17.8467 82.5534 18.8533 82.0334 19.68C81.5267 20.4933 80.84 21.1067 79.9734 21.52C79.12 21.9333 78.1667 22.14 77.1134 22.14C76.0734 22.14 75.1267 21.9333 74.2734 21.52C73.4334 21.1067 72.7667 20.4933 72.2734 19.68C71.78 18.8533 71.5334 17.8467 71.5334 16.66V8.04H74.3334ZM88.3187 8.04V22H85.5187V8.04H88.3187Z" fill="#fff"/>
</svg>
