<svg width="40" height="30" viewBox="0 0 40 30" fill="none" xmlns="http://www.w3.org/2000/svg">
<g clip-path="url(#clip0_377_115447)">
<path d="M9.38318 0H30.6117V30H9.38324L9.38318 0Z" fill="white"/>
<path d="M-1.22815 0H9.38316V30H-1.22815V0ZM30.6117 0H41.223V30H30.6176L30.6117 0ZM12.5648 14.4961L11.7328 14.7774L15.5707 18.1465C15.8637 19.0078 15.4711 19.2598 15.2191 19.7168L19.3793 19.1894L19.2797 23.3789L20.1469 23.3554L19.9535 19.1953L24.1254 19.6934C23.8675 19.1484 23.639 18.8613 23.8734 17.9941L27.7055 14.8007L27.0375 14.5547C26.4867 14.1328 27.2719 12.5215 27.389 11.5019C27.389 11.5019 25.1566 12.2695 25.0101 11.8652L24.4359 10.7696L22.4027 13.0078C22.18 13.0606 22.0863 12.9726 22.0336 12.7851L22.9711 8.10938L21.4828 8.94725C21.3597 9.00588 21.2367 8.959 21.1547 8.8125L19.7191 5.94137L18.2425 8.92387C18.1312 9.02931 18.0199 9.041 17.9262 8.97075L16.5082 8.17387L17.3637 12.8086C17.2934 12.9961 17.1293 13.0429 16.9418 12.9434L14.9906 10.7344C14.7387 11.1446 14.5687 11.8066 14.2289 11.959C13.8949 12.0996 12.764 11.6777 12.0082 11.5137C12.266 12.4453 13.0746 13.9922 12.5648 14.5019V14.4961Z" fill="#D52B1E"/>
</g>
<defs>
<clipPath id="clip0_377_115447">
<rect width="40" height="30" rx="2" fill="white"/>
</clipPath>
</defs>
</svg>
