<svg width="40" height="30" viewBox="0 0 40 30" fill="none" xmlns="http://www.w3.org/2000/svg">
<g clip-path="url(#clip0_377_115445)">
<path d="M0 0H40V10H0V0Z" fill="#FF9933"/>
<path d="M0 10H40V20H0V10Z" fill="white"/>
<path d="M0 20H40V30H0V20Z" fill="#128807"/>
<path d="M20 19C22.2091 19 24 17.2091 24 15C24 12.7909 22.2091 11 20 11C17.7909 11 16 12.7909 16 15C16 17.2091 17.7909 19 20 19Z" fill="#000088"/>
<path d="M20 18.5C21.933 18.5 23.5 16.933 23.5 15C23.5 13.067 21.933 11.5 20 11.5C18.067 11.5 16.5 13.067 16.5 15C16.5 16.933 18.067 18.5 20 18.5Z" fill="white"/>
<path d="M19.9999 15.6998C20.3865 15.6998 20.6999 15.3864 20.6999 14.9998C20.6999 14.6132 20.3865 14.2998 19.9999 14.2998C19.6133 14.2998 19.2999 14.6132 19.2999 14.9998C19.2999 15.3864 19.6133 15.6998 19.9999 15.6998Z" fill="#000088"/>
<path d="M23.4464 15.6373C23.545 15.6502 23.6354 15.5808 23.6484 15.4823C23.6613 15.3837 23.592 15.2933 23.4934 15.2803C23.3948 15.2674 23.3044 15.3367 23.2914 15.4353C23.2785 15.5339 23.3479 15.6243 23.4464 15.6373Z" fill="#000088"/>
<path d="M19.9999 18.5004L20.1199 16.4004L19.9999 15.4004L19.8799 16.4004L19.9999 18.5004Z" fill="#000088"/>
<path d="M23.1643 16.5069C23.2561 16.545 23.3614 16.5014 23.3995 16.4095C23.4375 16.3177 23.3939 16.2124 23.302 16.1744C23.2102 16.1363 23.1049 16.1799 23.0669 16.2718C23.0288 16.3636 23.0724 16.4689 23.1643 16.5069Z" fill="#000088"/>
<path d="M19.0941 18.3809L19.7535 16.3835L19.8964 15.3865L19.5217 16.3214L19.0941 18.3809Z" fill="#000088"/>
<path d="M22.6664 17.2751C22.7453 17.3356 22.8583 17.3207 22.9188 17.2418C22.9793 17.163 22.9645 17.05 22.8856 16.9895C22.8067 16.9289 22.6937 16.9438 22.6332 17.0227C22.5727 17.1016 22.5876 17.2145 22.6664 17.2751Z" fill="#000088"/>
<path d="M18.25 18.0318L19.4039 16.2731L19.8 15.3471L19.196 16.1531L18.25 18.0318Z" fill="#000088"/>
<path d="M21.9868 17.8873C22.0473 17.9662 22.1603 17.9811 22.2392 17.9206C22.3181 17.8601 22.3329 17.7471 22.2724 17.6682C22.2119 17.5893 22.0989 17.5744 22.02 17.635C21.9412 17.6955 21.9263 17.8085 21.9868 17.8873Z" fill="#000088"/>
<path d="M17.525 17.4751L19.0948 16.0751L19.7171 15.2831L18.9251 15.9053L17.525 17.4751Z" fill="#000088"/>
<path d="M21.1718 18.3021C21.2099 18.394 21.3152 18.4376 21.407 18.3995C21.4989 18.3615 21.5425 18.2562 21.5044 18.1643C21.4664 18.0725 21.3611 18.0289 21.2692 18.0669C21.1774 18.105 21.1338 18.2103 21.1718 18.3021Z" fill="#000088"/>
<path d="M16.9688 16.7496L18.8475 15.8035L19.6535 15.1996L18.7275 15.5957L16.9688 16.7496Z" fill="#000088"/>
<path d="M20.277 18.494C20.29 18.5926 20.3804 18.6619 20.479 18.649C20.5776 18.636 20.6469 18.5456 20.634 18.447C20.621 18.3485 20.5306 18.2791 20.432 18.292C20.3335 18.305 20.2641 18.3954 20.277 18.494Z" fill="#000088"/>
<path d="M16.6192 15.9056L18.6787 15.4779L19.6136 15.1032L18.6166 15.2461L16.6192 15.9056Z" fill="#000088"/>
<path d="M19.3634 18.4449C19.3504 18.5435 19.4198 18.6339 19.5183 18.6469C19.6169 18.6599 19.7073 18.5905 19.7203 18.4919C19.7333 18.3934 19.6639 18.303 19.5653 18.29C19.4668 18.277 19.3763 18.3464 19.3634 18.4449Z" fill="#000088"/>
<path d="M16.5 14.9989L18.6 15.1189L19.6 14.9989L18.6 14.8789L16.5 14.9989Z" fill="#000088"/>
<path d="M18.4931 18.1643C18.455 18.2561 18.4986 18.3614 18.5905 18.3995C18.6823 18.4375 18.7876 18.3939 18.8256 18.302C18.8637 18.2102 18.8201 18.1049 18.7282 18.0669C18.6364 18.0288 18.5311 18.0724 18.4931 18.1643Z" fill="#000088"/>
<path d="M16.6192 14.0938L18.6166 14.7533L19.6136 14.8962L18.6787 14.5215L16.6192 14.0938Z" fill="#000088"/>
<path d="M17.7253 17.6658C17.6648 17.7447 17.6797 17.8577 17.7585 17.9182C17.8374 17.9787 17.9504 17.9639 18.0109 17.885C18.0714 17.8061 18.0565 17.6931 17.9777 17.6326C17.8988 17.5721 17.7858 17.587 17.7253 17.6658Z" fill="#000088"/>
<path d="M16.9688 13.2492L18.7275 14.4032L19.6535 14.7992L18.8475 14.1953L16.9688 13.2492Z" fill="#000088"/>
<path d="M17.1127 16.9871C17.0338 17.0476 17.0189 17.1606 17.0794 17.2394C17.1399 17.3183 17.2529 17.3332 17.3318 17.2727C17.4107 17.2121 17.4256 17.0992 17.365 17.0203C17.3045 16.9414 17.1915 16.9265 17.1127 16.9871Z" fill="#000088"/>
<path d="M17.525 12.5256L18.9251 14.0954L19.717 14.7177L19.0948 13.9257L17.525 12.5256Z" fill="#000088"/>
<path d="M16.6968 16.1709C16.6049 16.2089 16.5613 16.3142 16.5994 16.406C16.6374 16.4979 16.7427 16.5415 16.8346 16.5035C16.9264 16.4654 16.97 16.3601 16.932 16.2683C16.8939 16.1764 16.7886 16.1328 16.6968 16.1709Z" fill="#000088"/>
<path d="M18.2499 11.9671L19.196 13.8458L19.7999 14.6518L19.4038 13.7258L18.2499 11.9671Z" fill="#000088"/>
<path d="M16.5061 15.2759C16.4076 15.2889 16.3382 15.3793 16.3512 15.4779C16.3641 15.5765 16.4545 15.6458 16.5531 15.6329C16.6517 15.6199 16.721 15.5295 16.7081 15.4309C16.6951 15.3324 16.6047 15.263 16.5061 15.2759Z" fill="#000088"/>
<path d="M19.0941 11.6187L19.5217 13.6782L19.8964 14.6131L19.7535 13.6161L19.0941 11.6187Z" fill="#000088"/>
<path d="M16.5535 14.3627C16.4549 14.3498 16.3645 14.4192 16.3515 14.5177C16.3385 14.6163 16.4079 14.7067 16.5065 14.7197C16.605 14.7326 16.6955 14.6633 16.7084 14.5647C16.7214 14.4661 16.652 14.3757 16.5535 14.3627Z" fill="#000088"/>
<path d="M20 11.4996L19.88 13.5996L20 14.5996L20.12 13.5996L20 11.4996Z" fill="#000088"/>
<path d="M16.8356 13.4931C16.7438 13.455 16.6385 13.4986 16.6004 13.5905C16.5624 13.6823 16.606 13.7876 16.6978 13.8256C16.7897 13.8637 16.895 13.8201 16.933 13.7282C16.9711 13.6364 16.9274 13.5311 16.8356 13.4931Z" fill="#000088"/>
<path d="M20.9058 11.6191L20.2464 13.6165L20.1034 14.6135L20.4782 13.6786L20.9058 11.6191Z" fill="#000088"/>
<path d="M17.3334 12.7249C17.2546 12.6644 17.1416 12.6793 17.081 12.7582C17.0205 12.837 17.0354 12.95 17.1143 13.0105C17.1931 13.0711 17.3061 13.0562 17.3667 12.9773C17.4272 12.8984 17.4123 12.7855 17.3334 12.7249Z" fill="#000088"/>
<path d="M21.7499 11.9682L20.596 13.7269L20.1999 14.6529L20.8038 13.8469L21.7499 11.9682Z" fill="#000088"/>
<path d="M18.0131 12.1127C17.9525 12.0338 17.8396 12.0189 17.7607 12.0794C17.6818 12.1399 17.6669 12.2529 17.7275 12.3318C17.788 12.4107 17.901 12.4256 17.9798 12.365C18.0587 12.3045 18.0736 12.1915 18.0131 12.1127Z" fill="#000088"/>
<path d="M22.4749 12.5249L20.9051 13.9249L20.2828 14.7169L21.0748 14.0947L22.4749 12.5249Z" fill="#000088"/>
<path d="M18.828 11.6969C18.79 11.6051 18.6847 11.5615 18.5929 11.5995C18.501 11.6375 18.4574 11.7428 18.4954 11.8347C18.5335 11.9265 18.6388 11.9701 18.7306 11.9321C18.8225 11.8941 18.8661 11.7888 18.828 11.6969Z" fill="#000088"/>
<path d="M23.0311 13.2494L21.1524 14.1955L20.3464 14.7994L21.2724 14.4033L23.0311 13.2494Z" fill="#000088"/>
<path d="M19.7228 11.505C19.7099 11.4065 19.6194 11.3371 19.5209 11.3501C19.4223 11.363 19.3529 11.4534 19.3659 11.552C19.3789 11.6506 19.4693 11.7199 19.5679 11.707C19.6664 11.694 19.7358 11.6036 19.7228 11.505Z" fill="#000088"/>
<path d="M23.3807 14.0935L21.3212 14.5211L20.3863 14.8958L21.3833 14.7529L23.3807 14.0935Z" fill="#000088"/>
<path d="M20.6365 11.5541C20.6495 11.4555 20.5801 11.3651 20.4816 11.3521C20.383 11.3391 20.2926 11.4085 20.2796 11.5071C20.2666 11.6056 20.336 11.6961 20.4346 11.709C20.5331 11.722 20.6235 11.6526 20.6365 11.5541Z" fill="#000088"/>
<path d="M23.4999 15.0001L21.3999 14.8801L20.3999 15.0001L21.3999 15.1201L23.4999 15.0001Z" fill="#000088"/>
<path d="M21.5068 11.8347C21.5449 11.7429 21.5013 11.6376 21.4094 11.5996C21.3176 11.5615 21.2123 11.6051 21.1742 11.697C21.1362 11.7888 21.1798 11.8941 21.2716 11.9322C21.3635 11.9702 21.4688 11.9266 21.5068 11.8347Z" fill="#000088"/>
<path d="M23.3807 15.9052L21.3833 15.2457L20.3863 15.1028L21.3212 15.4776L23.3807 15.9052Z" fill="#000088"/>
<path d="M22.2746 12.3332C22.3351 12.2543 22.3202 12.1413 22.2414 12.0808C22.1625 12.0203 22.0495 12.0352 21.989 12.114C21.9285 12.1929 21.9433 12.3059 22.0222 12.3664C22.1011 12.4269 22.2141 12.4121 22.2746 12.3332Z" fill="#000088"/>
<path d="M23.0311 16.7498L21.2724 15.5959L20.3464 15.1998L21.1524 15.8037L23.0311 16.7498Z" fill="#000088"/>
<path d="M22.8872 13.012C22.9661 12.9514 22.981 12.8385 22.9205 12.7596C22.8599 12.6807 22.7469 12.6658 22.6681 12.7264C22.5892 12.7869 22.5743 12.8999 22.6348 12.9787C22.6954 13.0576 22.8084 13.0725 22.8872 13.012Z" fill="#000088"/>
<path d="M22.4749 17.4734L21.0748 15.9036L20.2829 15.2814L20.9051 16.0733L22.4749 17.4734Z" fill="#000088"/>
<path d="M23.3031 13.8282C23.3949 13.7901 23.4385 13.6848 23.4005 13.593C23.3625 13.5011 23.2572 13.4575 23.1653 13.4956C23.0735 13.5336 23.0299 13.6389 23.0679 13.7308C23.1059 13.8226 23.2112 13.8662 23.3031 13.8282Z" fill="#000088"/>
<path d="M21.75 18.0319L20.8039 16.1533L20.2 15.3472L20.5961 16.2733L21.75 18.0319Z" fill="#000088"/>
<path d="M23.4938 14.7231C23.5923 14.7101 23.6617 14.6197 23.6487 14.5211C23.6357 14.4226 23.5453 14.3532 23.4468 14.3662C23.3482 14.3791 23.2788 14.4695 23.2918 14.5681C23.3048 14.6667 23.3952 14.736 23.4938 14.7231Z" fill="#000088"/>
<path d="M20.9058 18.3803L20.4782 16.3208L20.1035 15.3859L20.2464 16.3829L20.9058 18.3803Z" fill="#000088"/>
</g>
<defs>
<clipPath id="clip0_377_115445">
<rect width="40" height="30" rx="2" fill="white"/>
</clipPath>
</defs>
</svg>
