<svg width="155" height="120" viewBox="0 0 155 120" fill="none" xmlns="http://www.w3.org/2000/svg">
<path d="M154.22 46.0988L113.222 85.2453L49.0783 55.0281L61.4798 25.4899L154.22 46.0988Z" fill="url(#paint0_linear_5537_63807)"/>
<path d="M113.594 84.8538L117.628 35.9613C117.864 33.103 116.044 30.4775 113.285 29.6953L44.4398 10.1814C44.3005 10.1419 44.1563 10.1219 44.0114 10.1219C43.1903 10.1219 42.5077 10.7541 42.4449 11.5728L41.4871 24.059L38.9678 24.5629L37.9601 37.6629L40.7313 42.0716L39.7236 59.4544L14.2337 82.7484C13.1571 83.7322 13.4616 85.5003 14.8052 86.0674L85.4324 115.877C87.0927 116.577 89.0165 116.081 90.1311 114.665L113.594 84.8538Z" fill="url(#paint1_linear_5537_63807)"/>
<path d="M87.4077 114.051L111.9 83.8911L39.7864 59.115L14.1128 82.197C13.5659 82.6887 13.719 83.5827 14.3983 83.8644L19.7953 86.1021L27.6611 89.1146L56.2792 101.499L87.4077 114.051Z" fill="url(#paint2_linear_5537_63807)"/>
<path d="M89.0423 107.214L103.493 89.0605L38.2031 64.8476L23.5884 78.6865C22.5358 79.6831 22.8601 81.4336 24.1998 81.9871L86.7139 107.816C87.5376 108.157 88.4872 107.911 89.0423 107.214Z" fill="white"/>
<path d="M111.842 83.926L115.432 36.2371C115.647 33.3896 113.824 30.7856 111.076 30.0113L45.467 11.5305C44.2268 11.1811 42.9846 12.0786 42.9268 13.3658L40.8712 59.115L111.842 83.926Z" fill="url(#paint3_linear_5537_63807)"/>
<path d="M110.168 83.5915L112.997 36.3877C113.108 34.5329 111.928 32.8458 110.147 32.315L45.993 13.1924C44.76 12.8249 43.5057 13.7003 43.4256 14.9844L43.0405 21.1512L40.2127 24.4367L37.4559 26.83L37.4558 38.1666L41.1088 44.2128L39.7865 59.1149L110.168 83.5915Z" fill="url(#paint4_linear_5537_63807)"/>
<path d="M101.567 95.3054L35.3841 69.1367" stroke="url(#paint5_radial_5537_63807)"/>
<path d="M98.5881 99.0146L32.3963 71.8418" stroke="url(#paint6_radial_5537_63807)"/>
<path d="M96.6204 103.384L28.755 76.2269" stroke="url(#paint7_radial_5537_63807)"/>
<path d="M93.2976 106.093L26.1017 78.9292" stroke="url(#paint8_radial_5537_63807)"/>
<path d="M91.4265 84.6873L76.8569 101.893" stroke="url(#paint9_radial_5537_63807)"/>
<path d="M87.72 82.0438L73.1504 99.2491" stroke="url(#paint10_radial_5537_63807)"/>
<path d="M82.3403 79.4153L67.7707 96.6206" stroke="url(#paint11_radial_5537_63807)"/>
<path d="M77.2983 77.1187L62.7287 94.3241" stroke="url(#paint12_radial_5537_63807)"/>
<path d="M71.5935 75.4976L57.0239 92.7029" stroke="url(#paint13_radial_5537_63807)"/>
<path d="M67.2178 72.86L52.6482 90.0654" stroke="url(#paint14_radial_5537_63807)"/>
<path d="M61.8467 71.2361L47.2771 88.4414" stroke="url(#paint15_radial_5537_63807)"/>
<path d="M53.8015 69.9712L46.5167 78.5739L39.2319 87.1765" stroke="url(#paint16_radial_5537_63807)"/>
<path d="M47.0732 66.351L39.7884 74.9537L32.5036 83.5564" stroke="url(#paint17_radial_5537_63807)"/>
<path d="M103.434 90.9447L103.434 89.0553L90.4132 104.479C88.7307 106.472 85.9535 107.149 83.5421 106.155L22.3043 80.9139L22.2301 82.3821L84.5138 107.998C86.5238 108.825 88.8375 108.258 90.2384 106.597L103.434 90.9447Z" fill="url(#paint18_linear_5537_63807)"/>
<path d="M53.4162 15.8797C53.8086 16.3108 53.7748 16.979 53.341 17.3682L52.5427 18.0844C52.1028 18.4791 51.4214 18.4218 51.0535 17.9593C50.7259 17.5475 50.7627 16.9546 51.1388 16.5865L51.9052 15.8362C52.3303 15.4202 53.0158 15.4399 53.4162 15.8797Z" fill="url(#paint19_linear_5537_63807)" fill-opacity="0.4"/>
<g filter="url(#filter0_d_5537_63807)">
<mask id="path-22-inside-1_5537_63807" fill="white">
<ellipse rx="16.0887" ry="22.9301" transform="matrix(0.828969 -0.630255 0.551759 0.781761 51.1549 39.0415)"/>
</mask>
<path d="M47.9125 41.5066C49.4142 43.6343 49.6336 45.3999 49.6217 45.8852C49.617 46.0788 49.5888 45.6274 49.9936 44.729C50.4344 43.7508 51.3155 42.4392 52.7716 41.3321L74.842 72.6026C85.4022 64.5737 89.2076 52.8077 89.4419 43.2087C89.678 33.5361 86.557 24.0689 81.0713 16.2964L47.9125 41.5066ZM52.7716 41.3321C54.2277 40.2251 55.6983 39.7487 56.7298 39.6075C57.6773 39.4778 58.0834 39.6419 57.9041 39.5882C57.4548 39.4535 55.899 38.704 54.3973 36.5764L21.2385 61.7866C26.7243 69.559 34.48 75.5025 43.4368 78.1859C52.3254 80.8488 64.2817 80.6314 74.842 72.6026L52.7716 41.3321ZM54.3973 36.5764C52.8956 34.4487 52.6762 32.6831 52.6881 32.1978C52.6928 32.0042 52.721 32.4556 52.3162 33.354C51.8754 34.3322 50.9943 35.6438 49.5382 36.7509L27.4678 5.48042C16.9076 13.5093 13.1022 25.2753 12.8679 34.8743C12.6318 44.5469 15.7528 54.0141 21.2385 61.7866L54.3973 36.5764ZM49.5382 36.7509C48.0821 37.8579 46.6115 38.3343 45.58 38.4755C44.6325 38.6052 44.2264 38.4411 44.4057 38.4948C44.855 38.6294 46.4108 39.3789 47.9125 41.5066L81.0713 16.2964C75.5855 8.52395 67.8298 2.58044 58.873 -0.102875C49.9844 -2.76579 38.0281 -2.54843 27.4678 5.48042L49.5382 36.7509Z" fill="url(#paint20_linear_5537_63807)" mask="url(#path-22-inside-1_5537_63807)"/>
<ellipse rx="11.318" ry="17.6053" transform="matrix(0.838869 -0.615929 0.536587 0.793098 49.9853 40.0579)" fill="#F6F6FD"/>
<rect width="8.08596" height="5.30641" transform="matrix(0.904282 0.33568 -0.417015 0.94641 68.6216 47.3864)" fill="url(#paint21_linear_5537_63807)"/>
<rect width="23.2673" height="6.83415" transform="matrix(0.904282 0.33568 -0.417015 0.94641 74.6892 48.6837)" fill="url(#paint22_linear_5537_63807)"/>
<ellipse rx="1.13709" ry="2.5998" transform="matrix(0.916879 0.305924 -0.388537 0.956443 67.4436 49.8522)" fill="url(#paint23_linear_5537_63807)"/>
<ellipse rx="1.46446" ry="3.34829" transform="matrix(0.916879 0.305924 -0.388537 0.956443 73.1722 51.8592)" fill="url(#paint24_linear_5537_63807)"/>
<ellipse rx="1.92304" ry="3.33279" transform="matrix(0.916879 0.305924 -0.388537 0.956443 94.2083 59.7138)" fill="url(#paint25_linear_5537_63807)"/>
<g style="mix-blend-mode:lighten" opacity="0.79">
<path d="M43.2789 41.5649C41.4022 41.9651 39.5501 38.7612 41.3426 38.0308C42.8286 37.4253 43.6067 38.739 44.5198 39.707C45.3409 40.5774 45.0908 41.1785 43.2789 41.5649Z" fill="white"/>
<path d="M47.0206 48.6619C44.9028 47.1423 42.1869 43.3788 43.5059 43.3255C46.4328 43.2073 47.9719 42.5167 49.53 46.2045C49.9987 47.3138 52.4226 49.8478 52.1175 50.6136C51.8125 51.3794 48.6692 49.8448 47.0206 48.6619Z" fill="white"/>
</g>
</g>
<defs>
<filter id="filter0_d_5537_63807" x="0.771484" y="2.44287" width="127.625" height="108.519" filterUnits="userSpaceOnUse" color-interpolation-filters="sRGB">
<feFlood flood-opacity="0" result="BackgroundImageFix"/>
<feColorMatrix in="SourceAlpha" type="matrix" values="0 0 0 0 0 0 0 0 0 0 0 0 0 0 0 0 0 0 127 0" result="hardAlpha"/>
<feOffset dy="16"/>
<feGaussianBlur stdDeviation="16"/>
<feColorMatrix type="matrix" values="0 0 0 0 0.215686 0 0 0 0 0.231373 0 0 0 0 0.301961 0 0 0 0.02 0"/>
<feBlend mode="normal" in2="BackgroundImageFix" result="effect1_dropShadow_5537_63807"/>
<feBlend mode="normal" in="SourceGraphic" in2="effect1_dropShadow_5537_63807" result="shape"/>
</filter>
<linearGradient id="paint0_linear_5537_63807" x1="81.9381" y1="96.6185" x2="125.649" y2="61.8435" gradientUnits="userSpaceOnUse">
<stop stop-color="#798196"/>
<stop offset="1" stop-color="white" stop-opacity="0"/>
</linearGradient>
<linearGradient id="paint1_linear_5537_63807" x1="133.101" y1="113.154" x2="-120.025" y2="121.054" gradientUnits="userSpaceOnUse">
<stop stop-color="#C4C6D7"/>
<stop offset="0.34172" stop-color="#E8E8F1"/>
<stop offset="1" stop-color="#FCFCFF"/>
</linearGradient>
<linearGradient id="paint2_linear_5537_63807" x1="16.8746" y1="35.5586" x2="186.189" y2="292.793" gradientUnits="userSpaceOnUse">
<stop stop-color="#FAFAFF"/>
<stop offset="1" stop-color="#FAFAFF" stop-opacity="0"/>
</linearGradient>
<linearGradient id="paint3_linear_5537_63807" x1="106.595" y1="60.5643" x2="-21.2299" y2="60.5906" gradientUnits="userSpaceOnUse">
<stop stop-color="#E8E8F1"/>
<stop offset="1" stop-color="#FCFCFF"/>
</linearGradient>
<linearGradient id="paint4_linear_5537_63807" x1="-22.2467" y1="-48.0461" x2="83.2037" y2="58.0059" gradientUnits="userSpaceOnUse">
<stop stop-color="#E8E8F1"/>
<stop offset="1" stop-color="#FCFCFF"/>
</linearGradient>
<radialGradient id="paint5_radial_5537_63807" cx="0" cy="0" r="1" gradientUnits="userSpaceOnUse" gradientTransform="translate(68.4754 82.2211) rotate(89.4723) scale(13.3886 32.9694)">
<stop stop-color="#E8E9F0"/>
<stop offset="1" stop-color="#F7F7F7" stop-opacity="0"/>
</radialGradient>
<radialGradient id="paint6_radial_5537_63807" cx="0" cy="0" r="1" gradientUnits="userSpaceOnUse" gradientTransform="translate(65.4922 85.4282) rotate(89.4723) scale(13.8907 32.9694)">
<stop stop-color="#E8E9F0"/>
<stop offset="1" stop-color="#F7F7F7" stop-opacity="0"/>
</radialGradient>
<radialGradient id="paint7_radial_5537_63807" cx="0" cy="0" r="1" gradientUnits="userSpaceOnUse" gradientTransform="translate(62.6877 89.8057) rotate(89.4723) scale(13.8907 33.8062)">
<stop stop-color="#E8E9F0"/>
<stop offset="1" stop-color="#F7F7F7" stop-opacity="0"/>
</radialGradient>
<radialGradient id="paint8_radial_5537_63807" cx="0" cy="0" r="1" gradientUnits="userSpaceOnUse" gradientTransform="translate(59.6996 92.511) rotate(89.4723) scale(13.8907 33.4715)">
<stop stop-color="#E8E9F0"/>
<stop offset="1" stop-color="#F7F7F7" stop-opacity="0"/>
</radialGradient>
<radialGradient id="paint9_radial_5537_63807" cx="0" cy="0" r="1" gradientUnits="userSpaceOnUse" gradientTransform="translate(84.1417 93.2899) rotate(89.4723) scale(8.53522 7.36372)">
<stop stop-color="#E8E9F0"/>
<stop offset="1" stop-color="#F7F7F7" stop-opacity="0"/>
</radialGradient>
<radialGradient id="paint10_radial_5537_63807" cx="0" cy="0" r="1" gradientUnits="userSpaceOnUse" gradientTransform="translate(80.4352 90.6464) rotate(89.4723) scale(8.53522 7.36372)">
<stop stop-color="#E8E9F0"/>
<stop offset="1" stop-color="#F7F7F7" stop-opacity="0"/>
</radialGradient>
<radialGradient id="paint11_radial_5537_63807" cx="0" cy="0" r="1" gradientUnits="userSpaceOnUse" gradientTransform="translate(75.0555 88.018) rotate(89.4723) scale(8.53522 7.36372)">
<stop stop-color="#E8E9F0"/>
<stop offset="1" stop-color="#F7F7F7" stop-opacity="0"/>
</radialGradient>
<radialGradient id="paint12_radial_5537_63807" cx="0" cy="0" r="1" gradientUnits="userSpaceOnUse" gradientTransform="translate(70.0135 85.7214) rotate(89.4723) scale(8.53522 7.36372)">
<stop stop-color="#E8E9F0"/>
<stop offset="1" stop-color="#F7F7F7" stop-opacity="0"/>
</radialGradient>
<radialGradient id="paint13_radial_5537_63807" cx="0" cy="0" r="1" gradientUnits="userSpaceOnUse" gradientTransform="translate(64.3087 84.1002) rotate(89.4723) scale(8.53522 7.36372)">
<stop stop-color="#E8E9F0"/>
<stop offset="1" stop-color="#F7F7F7" stop-opacity="0"/>
</radialGradient>
<radialGradient id="paint14_radial_5537_63807" cx="0" cy="0" r="1" gradientUnits="userSpaceOnUse" gradientTransform="translate(59.933 81.4627) rotate(89.4723) scale(8.53522 7.36372)">
<stop stop-color="#E8E9F0"/>
<stop offset="1" stop-color="#F7F7F7" stop-opacity="0"/>
</radialGradient>
<radialGradient id="paint15_radial_5537_63807" cx="0" cy="0" r="1" gradientUnits="userSpaceOnUse" gradientTransform="translate(54.5619 79.8388) rotate(89.4723) scale(8.53522 7.36372)">
<stop stop-color="#E8E9F0"/>
<stop offset="1" stop-color="#F7F7F7" stop-opacity="0"/>
</radialGradient>
<radialGradient id="paint16_radial_5537_63807" cx="0" cy="0" r="1" gradientUnits="userSpaceOnUse" gradientTransform="translate(46.5167 78.5739) rotate(89.4723) scale(8.53522 7.36372)">
<stop stop-color="#E8E9F0"/>
<stop offset="1" stop-color="#F7F7F7" stop-opacity="0"/>
</radialGradient>
<radialGradient id="paint17_radial_5537_63807" cx="0" cy="0" r="1" gradientUnits="userSpaceOnUse" gradientTransform="translate(39.7884 74.9537) rotate(89.4723) scale(8.53522 7.36372)">
<stop stop-color="#E8E9F0"/>
<stop offset="1" stop-color="#F7F7F7" stop-opacity="0"/>
</radialGradient>
<linearGradient id="paint18_linear_5537_63807" x1="87.3409" y1="113.38" x2="-2.96338" y2="56.7003" gradientUnits="userSpaceOnUse">
<stop stop-color="#C4C6D7"/>
<stop offset="0.441811" stop-color="#E8E8F1"/>
<stop offset="1" stop-color="#EBEBEB" stop-opacity="0"/>
</linearGradient>
<linearGradient id="paint19_linear_5537_63807" x1="50.8155" y1="14.2697" x2="53.3043" y2="18.6575" gradientUnits="userSpaceOnUse">
<stop stop-color="#E6ECEF"/>
<stop offset="1" stop-color="#E6ECEF" stop-opacity="0"/>
<stop offset="1" stop-color="#EAF4FA" stop-opacity="0"/>
</linearGradient>
<linearGradient id="paint20_linear_5537_63807" x1="84.819" y1="44.087" x2="37.9627" y2="55.2934" gradientUnits="userSpaceOnUse">
<stop stop-color="#B6B9D0"/>
<stop offset="1" stop-color="#E9E9F1"/>
</linearGradient>
<linearGradient id="paint21_linear_5537_63807" x1="4.04298" y1="0" x2="4.04298" y2="5.30641" gradientUnits="userSpaceOnUse">
<stop stop-color="#FEFEFE"/>
<stop offset="1" stop-color="#E5E6EF"/>
</linearGradient>
<linearGradient id="paint22_linear_5537_63807" x1="11.6336" y1="0" x2="11.6336" y2="6.83415" gradientUnits="userSpaceOnUse">
<stop stop-color="#EDEDF6"/>
<stop offset="1" stop-color="#C9CBDD"/>
</linearGradient>
<linearGradient id="paint23_linear_5537_63807" x1="1.13709" y1="0" x2="1.13709" y2="5.1996" gradientUnits="userSpaceOnUse">
<stop stop-color="#FEFEFE"/>
<stop offset="1" stop-color="#E5E6EF"/>
</linearGradient>
<linearGradient id="paint24_linear_5537_63807" x1="1.46446" y1="0" x2="1.46446" y2="6.69659" gradientUnits="userSpaceOnUse">
<stop stop-color="#EDEDF6"/>
<stop offset="1" stop-color="#D9D9E6"/>
</linearGradient>
<linearGradient id="paint25_linear_5537_63807" x1="1.92304" y1="0" x2="1.92304" y2="6.66557" gradientUnits="userSpaceOnUse">
<stop stop-color="#C9CBDB"/>
<stop offset="1" stop-color="#DCDCE8"/>
</linearGradient>
</defs>
</svg>
