<svg width="184" height="124" viewBox="0 0 184 124" fill="none" xmlns="http://www.w3.org/2000/svg">
<g filter="url(#filter0_d_5475_63866)">
<path d="M51.0264 21.9891C50.6914 19.7856 52.222 17.7332 54.4295 17.4259L89.0171 12.6117C90.0499 12.4679 91.098 12.7332 91.938 13.3509L99.7787 19.1159C100.652 19.7578 101.227 20.7264 101.373 21.8002L108.877 77.0492C109.174 79.23 107.652 81.2404 105.473 81.5483L64.9566 87.2722C62.7855 87.5789 60.7722 86.0806 60.4425 83.9129L51.0264 21.9891Z" fill="#F2F2F8"/>
</g>
<path d="M58.1498 24.1412L91.3021 19.2275C93.5185 18.8991 95.5723 20.4549 95.8563 22.6773L98.6493 44.535L61.8841 49.7289L58.1498 24.1412Z" fill="url(#paint0_linear_5475_63866)"/>
<path d="M65.4927 28.3272L69.1734 27.8483L71.4195 44.3861L67.7388 44.865L65.4927 28.3272Z" fill="url(#paint1_linear_5475_63866)"/>
<path d="M72.5283 33.6393L76.209 33.1604L77.6374 43.6278L73.9567 44.1068L72.5283 33.6393Z" fill="url(#paint2_linear_5475_63866)"/>
<path d="M78.5642 30.8065L82.2449 30.3275L83.7927 42.8395L80.112 43.3185L78.5642 30.8065Z" fill="url(#paint3_linear_5475_63866)"/>
<path d="M85.3708 35.7553L89.0515 35.2764L89.9783 41.9116L86.2976 42.3905L85.3708 35.7553Z" fill="url(#paint4_linear_5475_63866)"/>
<path d="M91.5117 22.2854L90.6865 13.0431C90.6636 12.7869 90.9528 12.6226 91.1612 12.7734L100.903 19.8246C101.114 19.9775 101.043 20.3085 100.788 20.3614L91.5117 22.2854Z" fill="#B2B4C7"/>
<path d="M103.045 103.943L144.139 113.223L47.2796 113.223L3.05176e-05 103.943L103.045 103.943Z" fill="url(#paint5_linear_5475_63866)"/>
<path fill-rule="evenodd" clip-rule="evenodd" d="M73.1492 63.943C72.2911 63.276 71.2533 62.9125 70.244 62.9252L41.5747 63.2871C39.1633 63.3176 37.6651 65.427 38.3843 67.7788L39.9302 72.8341C39.9302 72.8341 39.9302 72.8341 39.9302 72.8341C39.9302 72.8341 39.9302 72.8341 39.9302 72.8341L51.5432 109.967C52.1542 111.921 54.108 113.358 56.1126 113.329L142.577 112.055C144.553 112.026 145.981 110.578 145.937 108.648L145.19 75.9918C145.136 73.6047 142.887 71.4863 140.441 71.5183L85.4197 72.2386C84.4098 72.2518 83.3713 71.8882 82.5126 71.2208L73.1492 63.943Z" fill="#171723"/>
<path d="M103 25.0692L100.216 62.1865L90.9371 60.9492L87.2253 56.0003L91.0514 32.279C91.5203 29.3716 94.0299 27.2344 96.9748 27.2344H101.763L103 25.0692Z" fill="url(#paint6_linear_5475_63866)" fill-opacity="0.6"/>
<g filter="url(#filter1_dd_5475_63866)">
<path d="M96.5559 27.9673C96.762 25.7678 98.712 24.1517 100.912 24.3578L141.589 28.1677C143.789 28.3737 145.405 30.3238 145.199 32.5233L139.484 93.5417C139.278 95.7412 137.328 97.3573 135.128 97.1513L94.4504 93.3414C92.2509 93.1354 90.6349 91.1853 90.8409 88.9858L96.5559 27.9673Z" fill="#F2F2F8"/>
</g>
<rect x="103.418" y="31.5463" width="35.88" height="1.85586" rx="0.927931" transform="rotate(4.02099 103.418 31.5463)" fill="#C4C6D7"/>
<rect x="102.822" y="36.5137" width="17.9652" height="1.85586" rx="0.927931" transform="rotate(4.02099 102.822 36.5137)" fill="#C4C6D7"/>
<path d="M143.015 56.0002L94.0002 53.9999L93.5002 60.0212H143.015V56.0002Z" fill="url(#paint7_linear_5475_63866)" fill-opacity="0.5"/>
<path d="M81.3095 47.3863C80.8414 46.7721 80.1135 46.4116 79.3413 46.4116H49.4896C48.123 46.4116 47.0151 47.5195 47.0151 48.8861L51.9641 110.748C51.9641 112.115 53.072 113.223 54.4386 113.223H144.757C146.124 113.223 147.232 112.115 147.232 110.748L152.181 62.4958C152.181 61.1291 151.073 60.0213 149.706 60.0213H92.1627C91.3904 60.0213 90.6625 59.6608 90.1945 59.0465L81.3095 47.3863Z" fill="url(#paint8_linear_5475_63866)"/>
<ellipse cx="99.2885" cy="106.727" rx="15.1562" ry="15.1562" fill="url(#paint9_linear_5475_63866)"/>
<path fill-rule="evenodd" clip-rule="evenodd" d="M99.5975 101.84C100.008 101.84 100.34 102.172 100.34 102.582V106.294H104.052C104.462 106.294 104.794 106.626 104.794 107.036C104.794 107.446 104.462 107.779 104.052 107.779H100.34V111.49C100.34 111.9 100.008 112.233 99.5975 112.233C99.1876 112.233 98.8552 111.9 98.8552 111.49V107.779H95.1435C94.7335 107.779 94.4011 107.446 94.4011 107.036C94.4011 106.626 94.7335 106.294 95.1435 106.294L98.8552 106.294V102.582C98.8552 102.172 99.1876 101.84 99.5975 101.84Z" fill="#282A3B"/>
<defs>
<filter id="filter0_d_5475_63866" x="27.9805" y="1.57349" width="89.9336" height="106.739" filterUnits="userSpaceOnUse" color-interpolation-filters="sRGB">
<feFlood flood-opacity="0" result="BackgroundImageFix"/>
<feColorMatrix in="SourceAlpha" type="matrix" values="0 0 0 0 0 0 0 0 0 0 0 0 0 0 0 0 0 0 127 0" result="hardAlpha"/>
<feOffset dx="-7" dy="5"/>
<feGaussianBlur stdDeviation="8"/>
<feComposite in2="hardAlpha" operator="out"/>
<feColorMatrix type="matrix" values="0 0 0 0 0.380392 0 0 0 0 0.419608 0 0 0 0 0.486275 0 0 0 0.52 0"/>
<feBlend mode="normal" in2="BackgroundImageFix" result="effect1_dropShadow_5475_63866"/>
<feBlend mode="normal" in="SourceGraphic" in2="effect1_dropShadow_5475_63866" result="shape"/>
</filter>
<filter id="filter1_dd_5475_63866" x="78.8232" y="0.340027" width="104.393" height="122.829" filterUnits="userSpaceOnUse" color-interpolation-filters="sRGB">
<feFlood flood-opacity="0" result="BackgroundImageFix"/>
<feColorMatrix in="SourceAlpha" type="matrix" values="0 0 0 0 0 0 0 0 0 0 0 0 0 0 0 0 0 0 127 0" result="hardAlpha"/>
<feOffset dx="13" dy="1"/>
<feGaussianBlur stdDeviation="12.5"/>
<feComposite in2="hardAlpha" operator="out"/>
<feColorMatrix type="matrix" values="0 0 0 0 0.380392 0 0 0 0 0.419608 0 0 0 0 0.486275 0 0 0 0.2 0"/>
<feBlend mode="normal" in2="BackgroundImageFix" result="effect1_dropShadow_5475_63866"/>
<feColorMatrix in="SourceAlpha" type="matrix" values="0 0 0 0 0 0 0 0 0 0 0 0 0 0 0 0 0 0 127 0" result="hardAlpha"/>
<feOffset dx="5" dy="3"/>
<feGaussianBlur stdDeviation="7.5"/>
<feComposite in2="hardAlpha" operator="out"/>
<feColorMatrix type="matrix" values="0 0 0 0 0.380392 0 0 0 0 0.419608 0 0 0 0 0.486275 0 0 0 0.2 0"/>
<feBlend mode="normal" in2="effect1_dropShadow_5475_63866" result="effect2_dropShadow_5475_63866"/>
<feBlend mode="normal" in="SourceGraphic" in2="effect2_dropShadow_5475_63866" result="shape"/>
</filter>
<linearGradient id="paint0_linear_5475_63866" x1="58.7683" y1="-2.15013" x2="49.2067" y2="60.822" gradientUnits="userSpaceOnUse">
<stop offset="0.151042" stop-color="#171723" stop-opacity="0.04"/>
<stop offset="1" stop-color="#171723"/>
</linearGradient>
<linearGradient id="paint1_linear_5475_63866" x1="67.3793" y1="28.0817" x2="69.5329" y2="44.6316" gradientUnits="userSpaceOnUse">
<stop stop-color="white"/>
<stop offset="1" stop-color="white" stop-opacity="0.31"/>
</linearGradient>
<linearGradient id="paint2_linear_5475_63866" x1="74.4013" y1="33.3956" x2="75.7644" y2="43.8715" gradientUnits="userSpaceOnUse">
<stop stop-color="white"/>
<stop offset="1" stop-color="white" stop-opacity="0.31"/>
</linearGradient>
<linearGradient id="paint3_linear_5475_63866" x1="80.365" y1="30.5722" x2="81.9918" y2="43.0738" gradientUnits="userSpaceOnUse">
<stop stop-color="white"/>
<stop offset="1" stop-color="white" stop-opacity="0.31"/>
</linearGradient>
<linearGradient id="paint4_linear_5475_63866" x1="87.2423" y1="35.5118" x2="88.1068" y2="42.1551" gradientUnits="userSpaceOnUse">
<stop stop-color="white"/>
<stop offset="1" stop-color="white" stop-opacity="0.31"/>
</linearGradient>
<linearGradient id="paint5_linear_5475_63866" x1="121.559" y1="121.574" x2="32.1448" y2="91.3389" gradientUnits="userSpaceOnUse">
<stop stop-color="#14141F"/>
<stop offset="0.992328" stop-color="#14141F" stop-opacity="0.1"/>
</linearGradient>
<linearGradient id="paint6_linear_5475_63866" x1="87.2253" y1="55.6909" x2="93.1022" y2="15.7899" gradientUnits="userSpaceOnUse">
<stop stop-color="#1F202E"/>
<stop offset="1" stop-color="#A3A8BD" stop-opacity="0"/>
</linearGradient>
<linearGradient id="paint7_linear_5475_63866" x1="132.648" y1="-55.3343" x2="112.306" y2="61.1549" gradientUnits="userSpaceOnUse">
<stop stop-color="#1F202E"/>
<stop offset="1" stop-color="#1F202E" stop-opacity="0.37"/>
</linearGradient>
<linearGradient id="paint8_linear_5475_63866" x1="4.94892" y1="4.96403" x2="152.181" y2="128.997" gradientUnits="userSpaceOnUse">
<stop offset="0.213542" stop-color="#14141F"/>
<stop offset="1" stop-color="#33364A"/>
</linearGradient>
<linearGradient id="paint9_linear_5475_63866" x1="78.2554" y1="96.8292" x2="103.619" y2="126.832" gradientUnits="userSpaceOnUse">
<stop stop-color="#3B4251"/>
<stop offset="1" stop-color="#778397"/>
</linearGradient>
</defs>
</svg>
