<svg width="155" height="120" viewBox="0 0 155 120" fill="none" xmlns="http://www.w3.org/2000/svg">
<path d="M154.216 46.0988L113.218 85.2453L49.0747 55.0281L61.4762 25.4899L154.216 46.0988Z" fill="url(#paint0_linear_5925_60554)"/>
<path d="M113.59 84.8538L117.624 35.9613C117.86 33.103 116.04 30.4775 113.281 29.6953L44.4362 10.1814C44.2968 10.1419 44.1526 10.1219 44.0077 10.1219C43.1866 10.1219 42.504 10.7541 42.4412 11.5728L41.4834 24.059L38.9642 24.5629L37.9565 37.6629L40.7276 42.0716L39.7199 59.4544L14.23 82.7484C13.1535 83.7322 13.4579 85.5003 14.8015 86.0674L85.4288 115.877C87.089 116.577 89.0129 116.081 90.1274 114.665L113.59 84.8538Z" fill="url(#paint1_linear_5925_60554)"/>
<path d="M87.404 114.051L111.896 83.8911L39.7827 59.115L14.1091 82.197C13.5622 82.6887 13.7153 83.5827 14.3947 83.8644L19.7917 86.1021L27.6575 89.1146L56.2755 101.499L87.404 114.051Z" fill="url(#paint2_linear_5925_60554)"/>
<path d="M89.0384 107.214L103.489 89.0605L38.1992 64.8476L23.5845 78.6865C22.5319 79.6831 22.8562 81.4336 24.1959 81.9871L86.7099 107.816C87.5337 108.157 88.4833 107.911 89.0384 107.214Z" fill="#373B4D"/>
<path d="M111.838 83.926L115.428 36.2371C115.643 33.3896 113.821 30.7856 111.072 30.0113L45.4632 11.5305C44.223 11.1811 42.9808 12.0786 42.923 13.3658L40.8674 59.115L111.838 83.926Z" fill="url(#paint3_linear_5925_60554)"/>
<path d="M110.164 83.5915L112.993 36.3877C113.105 34.5329 111.924 32.8458 110.143 32.315L45.9892 13.1924C44.7562 12.8249 43.502 13.7003 43.4218 14.9844L43.0367 21.1512L40.2089 24.4367L37.4521 26.83L37.4521 38.1666L41.105 44.2128L39.7827 59.1149L110.164 83.5915Z" fill="url(#paint4_linear_5925_60554)"/>
<path d="M101.563 95.3054L35.3803 69.1367" stroke="url(#paint5_radial_5925_60554)" stroke-opacity="0.2"/>
<path d="M98.5842 99.0146L32.3924 71.8418" stroke="url(#paint6_radial_5925_60554)" stroke-opacity="0.2"/>
<path d="M96.6164 103.384L28.7511 76.2269" stroke="url(#paint7_radial_5925_60554)" stroke-opacity="0.2"/>
<path d="M93.2939 106.093L26.098 78.9292" stroke="url(#paint8_radial_5925_60554)" stroke-opacity="0.2"/>
<path d="M91.4227 84.6873L76.8531 101.893" stroke="url(#paint9_radial_5925_60554)" stroke-opacity="0.2"/>
<path d="M87.7163 82.0438L73.1467 99.2491" stroke="url(#paint10_radial_5925_60554)" stroke-opacity="0.2"/>
<path d="M82.3364 79.4153L67.7668 96.6206" stroke="url(#paint11_radial_5925_60554)" stroke-opacity="0.2"/>
<path d="M77.2946 77.1187L62.725 94.3241" stroke="url(#paint12_radial_5925_60554)" stroke-opacity="0.2"/>
<path d="M71.5897 75.4976L57.0201 92.7029" stroke="url(#paint13_radial_5925_60554)" stroke-opacity="0.2"/>
<path d="M67.2139 72.86L52.6443 90.0654" stroke="url(#paint14_radial_5925_60554)" stroke-opacity="0.2"/>
<path d="M61.8429 71.2361L47.2733 88.4414" stroke="url(#paint15_radial_5925_60554)" stroke-opacity="0.2"/>
<path d="M53.7977 69.9712L46.5129 78.5739L39.2281 87.1765" stroke="url(#paint16_radial_5925_60554)" stroke-opacity="0.2"/>
<path d="M47.0696 66.351L39.7848 74.9537L32.5 83.5564" stroke="url(#paint17_radial_5925_60554)" stroke-opacity="0.2"/>
<path d="M103.431 90.9447L103.431 89.0553L90.4096 104.479C88.7271 106.472 85.9498 107.149 83.5384 106.155L22.3006 80.9139L22.2264 82.3821L84.5101 107.998C86.5201 108.825 88.8339 108.258 90.2347 106.597L103.431 90.9447Z" fill="url(#paint18_linear_5925_60554)"/>
<g filter="url(#filter0_d_5925_60554)">
<mask id="path-21-inside-1_5925_60554" fill="white">
<ellipse rx="16.0887" ry="22.9301" transform="matrix(0.828969 -0.630255 0.551759 0.781761 51.1511 39.0415)"/>
</mask>
<path d="M47.9087 41.5066C49.4104 43.6343 49.6298 45.3999 49.6179 45.8852C49.6132 46.0788 49.585 45.6274 49.9898 44.729C50.4306 43.7508 51.3117 42.4392 52.7678 41.3321L74.8382 72.6026C85.3984 64.5737 89.2038 52.8077 89.4381 43.2087C89.6742 33.5361 86.5532 24.0689 81.0675 16.2964L47.9087 41.5066ZM52.7678 41.3321C54.2239 40.2251 55.6945 39.7487 56.726 39.6075C57.6735 39.4778 58.0796 39.6419 57.9003 39.5882C57.451 39.4535 55.8952 38.704 54.3935 36.5764L21.2347 61.7866C26.7205 69.559 34.4762 75.5025 43.433 78.1859C52.3216 80.8488 64.2779 80.6314 74.8382 72.6026L52.7678 41.3321ZM54.3935 36.5764C52.8918 34.4487 52.6724 32.6831 52.6843 32.1978C52.689 32.0042 52.7172 32.4556 52.3124 33.354C51.8716 34.3322 50.9905 35.6438 49.5344 36.7509L27.464 5.48042C16.9038 13.5093 13.0984 25.2753 12.8641 34.8743C12.628 44.5469 15.749 54.0141 21.2347 61.7866L54.3935 36.5764ZM49.5344 36.7509C48.0783 37.8579 46.6077 38.3343 45.5762 38.4755C44.6287 38.6052 44.2226 38.4411 44.4019 38.4948C44.8512 38.6294 46.407 39.3789 47.9087 41.5066L81.0675 16.2964C75.5817 8.52395 67.826 2.58044 58.8692 -0.102875C49.9806 -2.76579 38.0243 -2.54843 27.464 5.48042L49.5344 36.7509Z" fill="url(#paint19_linear_5925_60554)" mask="url(#path-21-inside-1_5925_60554)"/>
<ellipse rx="11.318" ry="17.6053" transform="matrix(0.838869 -0.615929 0.536587 0.793098 49.9816 40.0579)" fill="#1E1F2B"/>
<rect width="8.08596" height="5.30641" transform="matrix(0.904282 0.33568 -0.417015 0.94641 68.6179 47.3864)" fill="url(#paint20_linear_5925_60554)"/>
<rect width="23.2673" height="6.83415" transform="matrix(0.904282 0.33568 -0.417015 0.94641 74.6855 48.6837)" fill="url(#paint21_linear_5925_60554)"/>
<ellipse rx="1.13709" ry="2.5998" transform="matrix(0.916879 0.305924 -0.388537 0.956443 67.4398 49.8522)" fill="url(#paint22_linear_5925_60554)"/>
<ellipse rx="1.46446" ry="3.34829" transform="matrix(0.916879 0.305924 -0.388537 0.956443 73.1685 51.8592)" fill="url(#paint23_linear_5925_60554)"/>
<ellipse rx="1.92304" ry="3.33279" transform="matrix(0.916879 0.305924 -0.388537 0.956443 94.2047 59.7138)" fill="url(#paint24_linear_5925_60554)"/>
<g style="mix-blend-mode:lighten" opacity="0.79">
<path d="M43.2751 41.5649C41.3984 41.9651 39.5463 38.7612 41.3388 38.0308C42.8248 37.4253 43.6029 38.739 44.5161 39.707C45.3371 40.5774 45.087 41.1785 43.2751 41.5649Z" fill="#868EA3"/>
<path d="M47.0168 48.6619C44.899 47.1423 42.1831 43.3788 43.5021 43.3255C46.429 43.2073 47.9681 42.5167 49.5262 46.2045C49.9949 47.3138 52.4188 49.8478 52.1138 50.6136C51.8087 51.3794 48.6654 49.8448 47.0168 48.6619Z" fill="#868EA3"/>
</g>
</g>
<defs>
<filter id="filter0_d_5925_60554" x="0.767822" y="2.44287" width="127.625" height="108.519" filterUnits="userSpaceOnUse" color-interpolation-filters="sRGB">
<feFlood flood-opacity="0" result="BackgroundImageFix"/>
<feColorMatrix in="SourceAlpha" type="matrix" values="0 0 0 0 0 0 0 0 0 0 0 0 0 0 0 0 0 0 127 0" result="hardAlpha"/>
<feOffset dy="16"/>
<feGaussianBlur stdDeviation="16"/>
<feColorMatrix type="matrix" values="0 0 0 0 0.215686 0 0 0 0 0.231373 0 0 0 0 0.301961 0 0 0 0.02 0"/>
<feBlend mode="normal" in2="BackgroundImageFix" result="effect1_dropShadow_5925_60554"/>
<feBlend mode="normal" in="SourceGraphic" in2="effect1_dropShadow_5925_60554" result="shape"/>
</filter>
<linearGradient id="paint0_linear_5925_60554" x1="89.1448" y1="95.0313" x2="126.308" y2="53.1184" gradientUnits="userSpaceOnUse">
<stop stop-color="#2D3041" stop-opacity="0.29"/>
<stop offset="1" stop-color="white" stop-opacity="0"/>
</linearGradient>
<linearGradient id="paint1_linear_5925_60554" x1="118.964" y1="58.5727" x2="-120.029" y2="121.054" gradientUnits="userSpaceOnUse">
<stop stop-color="#333749"/>
<stop offset="1" stop-color="#3C4158"/>
</linearGradient>
<linearGradient id="paint2_linear_5925_60554" x1="16.8741" y1="35.493" x2="186.393" y2="292.803" gradientUnits="userSpaceOnUse">
<stop stop-color="#282A3B"/>
<stop offset="1" stop-color="#14141F"/>
</linearGradient>
<linearGradient id="paint3_linear_5925_60554" x1="106.644" y1="60.5217" x2="-20.3606" y2="60.4939" gradientUnits="userSpaceOnUse">
<stop stop-color="#1B1B28" stop-opacity="0.6"/>
<stop offset="1" stop-color="#4F5769"/>
</linearGradient>
<linearGradient id="paint4_linear_5925_60554" x1="-22.2528" y1="-47.9892" x2="83.1516" y2="58.0649" gradientUnits="userSpaceOnUse">
<stop stop-color="#373B4D"/>
<stop offset="1" stop-color="#171723" stop-opacity="0.82"/>
</linearGradient>
<radialGradient id="paint5_radial_5925_60554" cx="0" cy="0" r="1" gradientUnits="userSpaceOnUse" gradientTransform="translate(68.4716 82.2211) rotate(89.4723) scale(13.3886 32.9694)">
<stop stop-color="#E8E9F0"/>
<stop offset="1" stop-color="#F7F7F7" stop-opacity="0"/>
</radialGradient>
<radialGradient id="paint6_radial_5925_60554" cx="0" cy="0" r="1" gradientUnits="userSpaceOnUse" gradientTransform="translate(65.4883 85.4282) rotate(89.4723) scale(13.8907 32.9694)">
<stop stop-color="#E8E9F0"/>
<stop offset="1" stop-color="#F7F7F7" stop-opacity="0"/>
</radialGradient>
<radialGradient id="paint7_radial_5925_60554" cx="0" cy="0" r="1" gradientUnits="userSpaceOnUse" gradientTransform="translate(62.6838 89.8057) rotate(89.4723) scale(13.8907 33.8062)">
<stop stop-color="#E8E9F0"/>
<stop offset="1" stop-color="#F7F7F7" stop-opacity="0"/>
</radialGradient>
<radialGradient id="paint8_radial_5925_60554" cx="0" cy="0" r="1" gradientUnits="userSpaceOnUse" gradientTransform="translate(59.696 92.511) rotate(89.4723) scale(13.8907 33.4715)">
<stop stop-color="#E8E9F0"/>
<stop offset="1" stop-color="#F7F7F7" stop-opacity="0"/>
</radialGradient>
<radialGradient id="paint9_radial_5925_60554" cx="0" cy="0" r="1" gradientUnits="userSpaceOnUse" gradientTransform="translate(84.1379 93.2899) rotate(89.4723) scale(8.53522 7.36372)">
<stop stop-color="#E8E9F0"/>
<stop offset="1" stop-color="#F7F7F7" stop-opacity="0"/>
</radialGradient>
<radialGradient id="paint10_radial_5925_60554" cx="0" cy="0" r="1" gradientUnits="userSpaceOnUse" gradientTransform="translate(80.4315 90.6464) rotate(89.4723) scale(8.53522 7.36372)">
<stop stop-color="#E8E9F0"/>
<stop offset="1" stop-color="#F7F7F7" stop-opacity="0"/>
</radialGradient>
<radialGradient id="paint11_radial_5925_60554" cx="0" cy="0" r="1" gradientUnits="userSpaceOnUse" gradientTransform="translate(75.0516 88.018) rotate(89.4723) scale(8.53522 7.36372)">
<stop stop-color="#E8E9F0"/>
<stop offset="1" stop-color="#F7F7F7" stop-opacity="0"/>
</radialGradient>
<radialGradient id="paint12_radial_5925_60554" cx="0" cy="0" r="1" gradientUnits="userSpaceOnUse" gradientTransform="translate(70.0098 85.7214) rotate(89.4723) scale(8.53522 7.36372)">
<stop stop-color="#E8E9F0"/>
<stop offset="1" stop-color="#F7F7F7" stop-opacity="0"/>
</radialGradient>
<radialGradient id="paint13_radial_5925_60554" cx="0" cy="0" r="1" gradientUnits="userSpaceOnUse" gradientTransform="translate(64.3049 84.1002) rotate(89.4723) scale(8.53522 7.36372)">
<stop stop-color="#E8E9F0"/>
<stop offset="1" stop-color="#F7F7F7" stop-opacity="0"/>
</radialGradient>
<radialGradient id="paint14_radial_5925_60554" cx="0" cy="0" r="1" gradientUnits="userSpaceOnUse" gradientTransform="translate(59.9291 81.4627) rotate(89.4723) scale(8.53522 7.36372)">
<stop stop-color="#E8E9F0"/>
<stop offset="1" stop-color="#F7F7F7" stop-opacity="0"/>
</radialGradient>
<radialGradient id="paint15_radial_5925_60554" cx="0" cy="0" r="1" gradientUnits="userSpaceOnUse" gradientTransform="translate(54.5581 79.8388) rotate(89.4723) scale(8.53522 7.36372)">
<stop stop-color="#E8E9F0"/>
<stop offset="1" stop-color="#F7F7F7" stop-opacity="0"/>
</radialGradient>
<radialGradient id="paint16_radial_5925_60554" cx="0" cy="0" r="1" gradientUnits="userSpaceOnUse" gradientTransform="translate(46.5129 78.5739) rotate(89.4723) scale(8.53522 7.36372)">
<stop stop-color="#E8E9F0"/>
<stop offset="1" stop-color="#F7F7F7" stop-opacity="0"/>
</radialGradient>
<radialGradient id="paint17_radial_5925_60554" cx="0" cy="0" r="1" gradientUnits="userSpaceOnUse" gradientTransform="translate(39.7848 74.9537) rotate(89.4723) scale(8.53522 7.36372)">
<stop stop-color="#E8E9F0"/>
<stop offset="1" stop-color="#F7F7F7" stop-opacity="0"/>
</radialGradient>
<linearGradient id="paint18_linear_5925_60554" x1="87.3373" y1="113.38" x2="-2.96704" y2="56.7003" gradientUnits="userSpaceOnUse">
<stop stop-color="#4F5469"/>
<stop offset="0.732668" stop-color="#4F5469" stop-opacity="0"/>
</linearGradient>
<linearGradient id="paint19_linear_5925_60554" x1="84.8152" y1="44.087" x2="37.9589" y2="55.2934" gradientUnits="userSpaceOnUse">
<stop stop-color="#14141F"/>
<stop offset="1" stop-color="#4F5769"/>
</linearGradient>
<linearGradient id="paint20_linear_5925_60554" x1="4.04298" y1="0" x2="4.04298" y2="5.30641" gradientUnits="userSpaceOnUse">
<stop stop-color="#757D91"/>
<stop offset="1" stop-color="#2D3142"/>
</linearGradient>
<linearGradient id="paint21_linear_5925_60554" x1="11.6336" y1="0" x2="11.6336" y2="6.83415" gradientUnits="userSpaceOnUse">
<stop stop-color="#4F5769"/>
<stop offset="1" stop-color="#14141F"/>
</linearGradient>
<linearGradient id="paint22_linear_5925_60554" x1="1.13709" y1="0" x2="1.13709" y2="5.1996" gradientUnits="userSpaceOnUse">
<stop stop-color="#757D91"/>
<stop offset="1" stop-color="#2D3142"/>
</linearGradient>
<linearGradient id="paint23_linear_5925_60554" x1="1.46446" y1="0" x2="1.46446" y2="6.69659" gradientUnits="userSpaceOnUse">
<stop stop-color="#4F5769"/>
<stop offset="1" stop-color="#171723"/>
</linearGradient>
<linearGradient id="paint24_linear_5925_60554" x1="1.92304" y1="0" x2="1.92304" y2="6.66557" gradientUnits="userSpaceOnUse">
<stop stop-color="#4F5769"/>
<stop offset="1" stop-color="#171723" stop-opacity="0.92"/>
</linearGradient>
</defs>
</svg>
