<svg width="470" height="181" viewBox="0 0 470 181" fill="none" xmlns="http://www.w3.org/2000/svg">
<g clip-path="url(#clip0_1154_68735)">
<rect x="1" y="1.00098" width="468" height="179" rx="16" fill="#FCFCFF"/>
<g filter="url(#filter0_d_1154_68735)">
<rect x="54" y="52.001" width="440" height="78" rx="4" fill="white"/>
<path d="M54 56.001C54 53.7918 55.7909 52.001 58 52.001H126V130.001H58C55.7909 130.001 54 128.21 54 126.001V56.001Z" fill="#FF453A"/>
<path fill-rule="evenodd" clip-rule="evenodd" d="M99.6004 91.0009C99.6004 96.3028 95.3023 100.601 90.0004 100.601C84.6985 100.601 80.4004 96.3028 80.4004 91.0009C80.4004 85.6989 84.6985 81.4009 90.0004 81.4009C95.3023 81.4009 99.6004 85.6989 99.6004 91.0009ZM91.2004 95.8009C91.2004 96.4636 90.6631 97.0009 90.0004 97.0009C89.3376 97.0009 88.8004 96.4636 88.8004 95.8009C88.8004 95.1381 89.3376 94.6009 90.0004 94.6009C90.6631 94.6009 91.2004 95.1381 91.2004 95.8009ZM90.0004 85.0009C89.3376 85.0009 88.8004 85.5381 88.8004 86.2009V91.0009C88.8004 91.6636 89.3376 92.2009 90.0004 92.2009C90.6631 92.2009 91.2004 91.6636 91.2004 91.0009V86.2009C91.2004 85.5381 90.6631 85.0009 90.0004 85.0009Z" fill="white"/>
<path d="M152.102 78.9101C152.102 80.0071 151.897 80.9468 151.486 81.729C151.078 82.5078 150.521 83.1044 149.815 83.5187C149.113 83.933 148.316 84.1402 147.424 84.1402C146.532 84.1402 145.734 83.933 145.028 83.5187C144.325 83.1011 143.768 82.5029 143.357 81.724C142.95 80.9418 142.746 80.0038 142.746 78.9101C142.746 77.813 142.95 76.875 143.357 76.0961C143.768 75.314 144.325 74.7157 145.028 74.3014C145.734 73.8871 146.532 73.68 147.424 73.68C148.316 73.68 149.113 73.8871 149.815 74.3014C150.521 74.7157 151.078 75.314 151.486 76.0961C151.897 76.875 152.102 77.813 152.102 78.9101ZM150.248 78.9101C150.248 78.1378 150.127 77.4865 149.885 76.9562C149.646 76.4226 149.315 76.0199 148.891 75.7481C148.466 75.473 147.978 75.3355 147.424 75.3355C146.871 75.3355 146.382 75.473 145.957 75.7481C145.533 76.0199 145.2 76.4226 144.958 76.9562C144.719 77.4865 144.6 78.1378 144.6 78.9101C144.6 79.6823 144.719 80.3353 144.958 80.8689C145.2 81.3992 145.533 81.8019 145.957 82.077C146.382 82.3488 146.871 82.4846 147.424 82.4846C147.978 82.4846 148.466 82.3488 148.891 82.077C149.315 81.8019 149.646 81.3992 149.885 80.8689C150.127 80.3353 150.248 79.6823 150.248 78.9101ZM157.097 84.1501C156.352 84.1501 155.705 83.9861 155.159 83.6579C154.612 83.3298 154.187 82.8708 153.886 82.2808C153.588 81.6908 153.438 81.0015 153.438 80.2126C153.438 79.4238 153.588 78.7327 153.886 78.1395C154.187 77.5462 154.612 77.0855 155.159 76.7574C155.705 76.4292 156.352 76.2652 157.097 76.2652C157.843 76.2652 158.49 76.4292 159.036 76.7574C159.583 77.0855 160.006 77.5462 160.304 78.1395C160.606 78.7327 160.757 79.4238 160.757 80.2126C160.757 81.0015 160.606 81.6908 160.304 82.2808C160.006 82.8708 159.583 83.3298 159.036 83.6579C158.49 83.9861 157.843 84.1501 157.097 84.1501ZM157.107 82.7084C157.512 82.7084 157.85 82.5973 158.122 82.3753C158.393 82.1499 158.596 81.8483 158.728 81.4704C158.864 81.0926 158.932 80.6717 158.932 80.2077C158.932 79.7403 158.864 79.3177 158.728 78.9399C158.596 78.5587 158.393 78.2555 158.122 78.0301C157.85 77.8047 157.512 77.692 157.107 77.692C156.693 77.692 156.348 77.8047 156.073 78.0301C155.802 78.2555 155.598 78.5587 155.462 78.9399C155.329 79.3177 155.263 79.7403 155.263 80.2077C155.263 80.6717 155.329 81.0926 155.462 81.4704C155.598 81.8483 155.802 82.1499 156.073 82.3753C156.348 82.5973 156.693 82.7084 157.107 82.7084ZM162.284 86.8646V76.3646H164.054V77.6274H164.158C164.251 77.4418 164.382 77.2446 164.551 77.0358C164.72 76.8237 164.949 76.643 165.237 76.4939C165.526 76.3414 165.893 76.2652 166.341 76.2652C166.931 76.2652 167.463 76.416 167.937 76.7176C168.414 77.0159 168.792 77.4584 169.07 78.045C169.352 78.6283 169.493 79.3443 169.493 80.1927C169.493 81.0313 169.355 81.7439 169.08 82.3305C168.805 82.9172 168.431 83.3646 167.957 83.6729C167.483 83.9811 166.946 84.1352 166.346 84.1352C165.908 84.1352 165.545 84.0623 165.257 83.9165C164.969 83.7706 164.737 83.595 164.561 83.3895C164.389 83.1807 164.254 82.9835 164.158 82.7979H164.084V86.8646H162.284ZM164.049 80.1828C164.049 80.6766 164.119 81.1092 164.258 81.4804C164.4 81.8516 164.604 82.1416 164.869 82.3504C165.138 82.5559 165.463 82.6586 165.844 82.6586C166.241 82.6586 166.575 82.5526 166.843 82.3405C167.112 82.125 167.314 81.8317 167.45 81.4605C167.589 81.086 167.658 80.6601 167.658 80.1828C167.658 79.7088 167.59 79.2879 167.455 78.92C167.319 78.5521 167.116 78.2638 166.848 78.055C166.58 77.8461 166.245 77.7417 165.844 77.7417C165.459 77.7417 165.133 77.8428 164.864 78.045C164.596 78.2472 164.392 78.5306 164.253 78.8952C164.117 79.2597 164.049 79.6889 164.049 80.1828ZM177.07 78.3831L175.429 78.5621C175.383 78.3963 175.301 78.2406 175.185 78.0947C175.073 77.9489 174.92 77.8312 174.728 77.7417C174.536 77.6523 174.3 77.6075 174.022 77.6075C173.647 77.6075 173.333 77.6887 173.077 77.8511C172.826 78.0135 172.701 78.224 172.705 78.4825C172.701 78.7046 172.782 78.8852 172.948 79.0244C173.117 79.1636 173.396 79.278 173.783 79.3675L175.086 79.6459C175.808 79.8016 176.345 80.0486 176.697 80.3866C177.051 80.7247 177.23 81.1672 177.234 81.714C177.23 82.1946 177.089 82.6189 176.811 82.9868C176.536 83.3514 176.153 83.6364 175.663 83.8419C175.172 84.0474 174.609 84.1501 173.972 84.1501C173.038 84.1501 172.285 83.9546 171.715 83.5635C171.145 83.1691 170.805 82.6205 170.696 81.9179L172.451 81.7488C172.531 82.0935 172.7 82.3537 172.958 82.5294C173.217 82.705 173.553 82.7929 173.967 82.7929C174.395 82.7929 174.738 82.705 174.996 82.5294C175.258 82.3537 175.389 82.1366 175.389 81.8781C175.389 81.6594 175.305 81.4787 175.136 81.3362C174.97 81.1937 174.711 81.0843 174.36 81.0081L173.058 80.7346C172.325 80.5822 171.783 80.3253 171.432 79.964C171.08 79.5995 170.906 79.1388 170.91 78.5819C170.906 78.1113 171.034 77.7036 171.293 77.3589C171.554 77.0109 171.917 76.7425 172.381 76.5535C172.849 76.3613 173.387 76.2652 173.997 76.2652C174.892 76.2652 175.596 76.4558 176.11 76.8369C176.627 77.2181 176.947 77.7335 177.07 78.3831ZM180.92 73.8192L180.756 81.0081H179.155L178.996 73.8192H180.92ZM179.956 84.1104C179.654 84.1104 179.395 84.0043 179.18 83.7922C178.968 83.58 178.862 83.3215 178.862 83.0166C178.862 82.7183 178.968 82.4631 179.18 82.251C179.395 82.0389 179.654 81.9328 179.956 81.9328C180.251 81.9328 180.506 82.0389 180.721 82.251C180.94 82.4631 181.049 82.7183 181.049 83.0166C181.049 83.2188 180.998 83.4027 180.895 83.5684C180.796 83.7342 180.663 83.8667 180.498 83.9662C180.335 84.0623 180.154 84.1104 179.956 84.1104Z" fill="#4F5769"/>
<path d="M148.801 101.365C148.741 100.861 148.5 100.47 148.075 100.191C147.651 99.9129 147.131 99.7737 146.514 99.7737C146.063 99.7737 145.669 99.8466 145.331 99.9925C144.996 100.138 144.734 100.339 144.545 100.594C144.36 100.849 144.267 101.139 144.267 101.464C144.267 101.736 144.332 101.969 144.461 102.165C144.594 102.357 144.763 102.518 144.968 102.647C145.174 102.773 145.389 102.878 145.614 102.96C145.84 103.04 146.047 103.105 146.236 103.154L147.27 103.433C147.535 103.502 147.83 103.599 148.155 103.721C148.483 103.844 148.796 104.011 149.094 104.223C149.396 104.432 149.645 104.701 149.84 105.029C150.036 105.357 150.134 105.759 150.134 106.237C150.134 106.787 149.989 107.284 149.701 107.728C149.416 108.172 148.998 108.525 148.448 108.787C147.901 109.049 147.237 109.18 146.455 109.18C145.725 109.18 145.094 109.062 144.56 108.827C144.03 108.592 143.612 108.264 143.308 107.843C143.006 107.422 142.835 106.933 142.795 106.376H144.068C144.101 106.76 144.231 107.079 144.456 107.331C144.685 107.579 144.973 107.765 145.321 107.887C145.672 108.007 146.05 108.066 146.455 108.066C146.925 108.066 147.348 107.99 147.722 107.838C148.097 107.682 148.393 107.466 148.612 107.191C148.831 106.913 148.94 106.588 148.94 106.217C148.94 105.879 148.846 105.604 148.657 105.392C148.468 105.179 148.219 105.007 147.911 104.875C147.603 104.742 147.27 104.626 146.912 104.527L145.659 104.169C144.864 103.94 144.234 103.613 143.77 103.189C143.306 102.765 143.074 102.21 143.074 101.524C143.074 100.954 143.228 100.456 143.536 100.032C143.848 99.6047 144.265 99.2732 144.789 99.0379C145.316 98.7993 145.904 98.68 146.554 98.68C147.21 98.68 147.794 98.7976 148.304 99.0329C148.814 99.2649 149.219 99.5831 149.517 99.9875C149.819 100.392 149.978 100.851 149.994 101.365H148.801ZM155.104 109.16C154.414 109.16 153.81 108.996 153.289 108.668C152.772 108.34 152.368 107.881 152.076 107.291C151.788 106.701 151.644 106.011 151.644 105.223C151.644 104.427 151.788 103.733 152.076 103.139C152.368 102.546 152.772 102.085 153.289 101.757C153.81 101.429 154.414 101.265 155.104 101.265C155.793 101.265 156.396 101.429 156.914 101.757C157.434 102.085 157.838 102.546 158.127 103.139C158.418 103.733 158.564 104.427 158.564 105.223C158.564 106.011 158.418 106.701 158.127 107.291C157.838 107.881 157.434 108.34 156.914 108.668C156.396 108.996 155.793 109.16 155.104 109.16ZM155.104 108.106C155.628 108.106 156.058 107.972 156.396 107.703C156.735 107.435 156.985 107.082 157.147 106.644C157.31 106.207 157.391 105.733 157.391 105.223C157.391 104.712 157.31 104.237 157.147 103.796C156.985 103.355 156.735 102.999 156.396 102.727C156.058 102.455 155.628 102.319 155.104 102.319C154.58 102.319 154.149 102.455 153.811 102.727C153.473 102.999 153.223 103.355 153.061 103.796C152.898 104.237 152.817 104.712 152.817 105.223C152.817 105.733 152.898 106.207 153.061 106.644C153.223 107.082 153.473 107.435 153.811 107.703C154.149 107.972 154.58 108.106 155.104 108.106ZM160.355 109.001V101.365H161.489V102.558H161.588C161.747 102.15 162.004 101.834 162.359 101.608C162.713 101.38 163.139 101.265 163.636 101.265C164.14 101.265 164.559 101.38 164.894 101.608C165.232 101.834 165.496 102.15 165.685 102.558H165.764C165.96 102.163 166.253 101.85 166.644 101.618C167.035 101.383 167.504 101.265 168.051 101.265C168.734 101.265 169.292 101.479 169.727 101.907C170.161 102.331 170.378 102.992 170.378 103.89V109.001H169.205V103.89C169.205 103.327 169.05 102.924 168.742 102.682C168.434 102.44 168.071 102.319 167.653 102.319C167.116 102.319 166.701 102.482 166.406 102.806C166.111 103.128 165.963 103.536 165.963 104.029V109.001H164.77V103.771C164.77 103.337 164.629 102.987 164.347 102.722C164.066 102.453 163.703 102.319 163.259 102.319C162.954 102.319 162.669 102.4 162.403 102.563C162.142 102.725 161.929 102.951 161.767 103.239C161.608 103.524 161.528 103.854 161.528 104.228V109.001H160.355ZM175.725 109.16C174.989 109.16 174.354 108.998 173.821 108.673C173.29 108.345 172.881 107.887 172.593 107.301C172.308 106.711 172.165 106.025 172.165 105.242C172.165 104.46 172.308 103.771 172.593 103.174C172.881 102.574 173.282 102.107 173.796 101.772C174.313 101.434 174.916 101.265 175.605 101.265C176.003 101.265 176.396 101.331 176.784 101.464C177.172 101.597 177.525 101.812 177.843 102.11C178.161 102.405 178.414 102.796 178.603 103.284C178.792 103.771 178.887 104.371 178.887 105.083V105.581H173V104.566H177.694C177.694 104.135 177.607 103.751 177.435 103.413C177.266 103.075 177.024 102.808 176.709 102.612C176.398 102.417 176.03 102.319 175.605 102.319C175.138 102.319 174.734 102.435 174.392 102.667C174.054 102.896 173.794 103.194 173.612 103.562C173.43 103.93 173.338 104.324 173.338 104.745V105.421C173.338 105.998 173.438 106.487 173.637 106.888C173.839 107.286 174.119 107.589 174.477 107.798C174.835 108.003 175.251 108.106 175.725 108.106C176.033 108.106 176.311 108.063 176.56 107.977C176.812 107.887 177.029 107.755 177.211 107.579C177.394 107.4 177.534 107.178 177.634 106.913L178.767 107.231C178.648 107.616 178.448 107.954 178.166 108.245C177.884 108.534 177.536 108.759 177.122 108.921C176.708 109.081 176.242 109.16 175.725 109.16ZM183.993 101.365V102.359H180.035V101.365H183.993ZM181.189 99.5351H182.362V106.813C182.362 107.145 182.41 107.393 182.506 107.559C182.605 107.722 182.731 107.831 182.884 107.887C183.04 107.94 183.204 107.967 183.376 107.967C183.505 107.967 183.611 107.96 183.694 107.947C183.777 107.93 183.843 107.917 183.893 107.907L184.132 108.961C184.052 108.991 183.941 109.021 183.799 109.051C183.656 109.084 183.475 109.1 183.257 109.1C182.925 109.1 182.6 109.029 182.282 108.887C181.967 108.744 181.706 108.527 181.497 108.235C181.291 107.944 181.189 107.576 181.189 107.132V99.5351ZM187.095 104.407V109.001H185.922V98.8192H187.095V102.558H187.194C187.373 102.163 187.642 101.85 188 101.618C188.361 101.383 188.842 101.265 189.441 101.265C189.962 101.265 190.417 101.37 190.809 101.578C191.2 101.784 191.503 102.1 191.718 102.528C191.937 102.952 192.047 103.492 192.047 104.149V109.001H190.873V104.228C190.873 103.622 190.716 103.153 190.401 102.821C190.089 102.487 189.657 102.319 189.103 102.319C188.719 102.319 188.374 102.4 188.069 102.563C187.768 102.725 187.529 102.962 187.353 103.274C187.181 103.585 187.095 103.963 187.095 104.407ZM194.193 109.001V101.365H195.366V109.001H194.193ZM194.79 100.092C194.561 100.092 194.364 100.014 194.198 99.8582C194.036 99.7024 193.954 99.5152 193.954 99.2964C193.954 99.0777 194.036 98.8904 194.198 98.7346C194.364 98.5789 194.561 98.501 194.79 98.501C195.018 98.501 195.214 98.5789 195.376 98.7346C195.542 98.8904 195.625 99.0777 195.625 99.2964C195.625 99.5152 195.542 99.7024 195.376 99.8582C195.214 100.014 195.018 100.092 194.79 100.092ZM198.689 104.407V109.001H197.515V101.365H198.649V102.558H198.748C198.927 102.17 199.199 101.858 199.564 101.623C199.928 101.384 200.399 101.265 200.975 101.265C201.493 101.265 201.945 101.371 202.333 101.583C202.721 101.792 203.022 102.11 203.238 102.538C203.453 102.962 203.561 103.499 203.561 104.149V109.001H202.387V104.228C202.387 103.628 202.232 103.161 201.92 102.826C201.609 102.488 201.181 102.319 200.637 102.319C200.263 102.319 199.928 102.4 199.633 102.563C199.342 102.725 199.111 102.962 198.942 103.274C198.773 103.585 198.689 103.963 198.689 104.407ZM208.787 112.024C208.22 112.024 207.733 111.951 207.325 111.805C206.918 111.662 206.578 111.474 206.306 111.238C206.038 111.006 205.824 110.758 205.665 110.492L206.6 109.836C206.706 109.975 206.84 110.134 207.002 110.313C207.165 110.496 207.387 110.653 207.669 110.786C207.954 110.922 208.326 110.99 208.787 110.99C209.404 110.99 209.912 110.84 210.313 110.542C210.714 110.244 210.915 109.777 210.915 109.14V107.589H210.816C210.729 107.728 210.607 107.901 210.448 108.106C210.292 108.308 210.066 108.489 209.771 108.648C209.48 108.804 209.085 108.882 208.588 108.882C207.972 108.882 207.418 108.736 206.928 108.444C206.441 108.152 206.054 107.728 205.769 107.171C205.488 106.615 205.347 105.938 205.347 105.143C205.347 104.361 205.484 103.68 205.759 103.1C206.035 102.516 206.417 102.066 206.908 101.747C207.398 101.426 207.965 101.265 208.608 101.265C209.105 101.265 209.5 101.348 209.791 101.514C210.086 101.676 210.312 101.862 210.468 102.071C210.627 102.276 210.749 102.445 210.835 102.578H210.955V101.365H212.088V109.22C212.088 109.876 211.939 110.41 211.641 110.821C211.346 111.235 210.948 111.538 210.448 111.73C209.95 111.926 209.397 112.024 208.787 112.024ZM208.747 107.828C209.218 107.828 209.616 107.72 209.941 107.505C210.265 107.289 210.512 106.979 210.681 106.575C210.85 106.17 210.935 105.687 210.935 105.123C210.935 104.573 210.852 104.087 210.686 103.666C210.521 103.246 210.275 102.916 209.95 102.677C209.626 102.438 209.225 102.319 208.747 102.319C208.25 102.319 207.836 102.445 207.504 102.697C207.176 102.949 206.929 103.287 206.764 103.711C206.601 104.135 206.52 104.606 206.52 105.123C206.52 105.653 206.603 106.122 206.769 106.53C206.938 106.934 207.186 107.253 207.514 107.485C207.846 107.713 208.257 107.828 208.747 107.828ZM222.986 105.879V101.365H224.159V109.001H222.986V107.708H222.906C222.727 108.096 222.449 108.426 222.071 108.698C221.693 108.966 221.216 109.1 220.639 109.1C220.162 109.1 219.738 108.996 219.367 108.787C218.995 108.575 218.704 108.257 218.492 107.833C218.28 107.405 218.173 106.867 218.173 106.217V101.365H219.347V106.137C219.347 106.694 219.503 107.138 219.814 107.47C220.129 107.801 220.53 107.967 221.017 107.967C221.309 107.967 221.606 107.892 221.907 107.743C222.212 107.594 222.467 107.365 222.673 107.057C222.882 106.749 222.986 106.356 222.986 105.879ZM227.482 104.407V109.001H226.308V101.365H227.442V102.558H227.541C227.72 102.17 227.992 101.858 228.357 101.623C228.721 101.384 229.192 101.265 229.768 101.265C230.286 101.265 230.738 101.371 231.126 101.583C231.513 101.792 231.815 102.11 232.031 102.538C232.246 102.962 232.354 103.499 232.354 104.149V109.001H231.18V104.228C231.18 103.628 231.025 103.161 230.713 102.826C230.402 102.488 229.974 102.319 229.43 102.319C229.056 102.319 228.721 102.4 228.426 102.563C228.134 102.725 227.904 102.962 227.735 103.274C227.566 103.585 227.482 103.963 227.482 104.407ZM237.699 109.16C236.964 109.16 236.329 108.998 235.795 108.673C235.265 108.345 234.856 107.887 234.567 107.301C234.282 106.711 234.14 106.025 234.14 105.242C234.14 104.46 234.282 103.771 234.567 103.174C234.856 102.574 235.257 102.107 235.77 101.772C236.287 101.434 236.891 101.265 237.58 101.265C237.978 101.265 238.371 101.331 238.758 101.464C239.146 101.597 239.499 101.812 239.817 102.11C240.135 102.405 240.389 102.796 240.578 103.284C240.767 103.771 240.861 104.371 240.861 105.083V105.581H234.975V104.566H239.668C239.668 104.135 239.582 103.751 239.41 103.413C239.241 103.075 238.999 102.808 238.684 102.612C238.372 102.417 238.004 102.319 237.58 102.319C237.113 102.319 236.708 102.435 236.367 102.667C236.029 102.896 235.769 103.194 235.586 103.562C235.404 103.93 235.313 104.324 235.313 104.745V105.421C235.313 105.998 235.412 106.487 235.611 106.888C235.814 107.286 236.094 107.589 236.452 107.798C236.809 108.003 237.225 108.106 237.699 108.106C238.008 108.106 238.286 108.063 238.535 107.977C238.787 107.887 239.004 107.755 239.186 107.579C239.368 107.4 239.509 107.178 239.608 106.913L240.742 107.231C240.623 107.616 240.422 107.954 240.14 108.245C239.859 108.534 239.511 108.759 239.096 108.921C238.682 109.081 238.216 109.16 237.699 109.16ZM243.316 101.365L245.146 104.487L246.975 101.365H248.327L245.862 105.183L248.327 109.001H246.975L245.146 106.038L243.316 109.001H241.964L244.39 105.183L241.964 101.365H243.316ZM250.002 111.865V101.365H251.135V102.578H251.274C251.36 102.445 251.48 102.276 251.632 102.071C251.788 101.862 252.01 101.676 252.298 101.514C252.59 101.348 252.985 101.265 253.482 101.265C254.125 101.265 254.691 101.426 255.182 101.747C255.673 102.069 256.055 102.525 256.33 103.115C256.606 103.705 256.743 104.401 256.743 105.203C256.743 106.011 256.606 106.712 256.33 107.306C256.055 107.896 255.674 108.353 255.187 108.678C254.7 108.999 254.138 109.16 253.502 109.16C253.011 109.16 252.618 109.079 252.323 108.916C252.028 108.751 251.801 108.563 251.642 108.355C251.483 108.143 251.36 107.967 251.274 107.828H251.175V111.865H250.002ZM251.155 105.183C251.155 105.759 251.24 106.268 251.409 106.709C251.578 107.147 251.825 107.49 252.149 107.738C252.474 107.983 252.872 108.106 253.343 108.106C253.833 108.106 254.242 107.977 254.57 107.718C254.902 107.456 255.151 107.105 255.316 106.664C255.485 106.22 255.57 105.726 255.57 105.183C255.57 104.646 255.487 104.162 255.321 103.731C255.159 103.297 254.912 102.954 254.58 102.702C254.252 102.447 253.84 102.319 253.343 102.319C252.865 102.319 252.464 102.44 252.139 102.682C251.815 102.921 251.569 103.255 251.404 103.686C251.238 104.114 251.155 104.613 251.155 105.183ZM261.735 109.16C260.999 109.16 260.364 108.998 259.83 108.673C259.3 108.345 258.891 107.887 258.602 107.301C258.317 106.711 258.175 106.025 258.175 105.242C258.175 104.46 258.317 103.771 258.602 103.174C258.891 102.574 259.292 102.107 259.806 101.772C260.323 101.434 260.926 101.265 261.615 101.265C262.013 101.265 262.406 101.331 262.794 101.464C263.181 101.597 263.534 101.812 263.852 102.11C264.171 102.405 264.424 102.796 264.613 103.284C264.802 103.771 264.896 104.371 264.896 105.083V105.581H259.01V104.566H263.703C263.703 104.135 263.617 103.751 263.445 103.413C263.276 103.075 263.034 102.808 262.719 102.612C262.407 102.417 262.039 102.319 261.615 102.319C261.148 102.319 260.744 102.435 260.402 102.667C260.064 102.896 259.804 103.194 259.622 103.562C259.439 103.93 259.348 104.324 259.348 104.745V105.421C259.348 105.998 259.448 106.487 259.646 106.888C259.849 107.286 260.129 107.589 260.487 107.798C260.845 108.003 261.261 108.106 261.735 108.106C262.043 108.106 262.321 108.063 262.57 107.977C262.822 107.887 263.039 107.755 263.221 107.579C263.403 107.4 263.544 107.178 263.644 106.913L264.777 107.231C264.658 107.616 264.457 107.954 264.176 108.245C263.894 108.534 263.546 108.759 263.132 108.921C262.717 109.081 262.252 109.16 261.735 109.16ZM269.784 109.16C269.068 109.16 268.451 108.991 267.934 108.653C267.417 108.315 267.019 107.849 266.741 107.256C266.463 106.663 266.323 105.985 266.323 105.223C266.323 104.447 266.466 103.763 266.751 103.169C267.039 102.573 267.44 102.107 267.954 101.772C268.471 101.434 269.074 101.265 269.764 101.265C270.301 101.265 270.785 101.365 271.215 101.563C271.646 101.762 271.999 102.041 272.274 102.399C272.549 102.757 272.72 103.174 272.786 103.652H271.613C271.524 103.304 271.325 102.995 271.017 102.727C270.712 102.455 270.301 102.319 269.784 102.319C269.326 102.319 268.925 102.438 268.58 102.677C268.239 102.912 267.972 103.246 267.78 103.676C267.591 104.104 267.497 104.606 267.497 105.183C267.497 105.773 267.589 106.286 267.775 106.724C267.964 107.161 268.229 107.501 268.57 107.743C268.915 107.985 269.32 108.106 269.784 108.106C270.088 108.106 270.365 108.053 270.614 107.947C270.862 107.841 271.073 107.688 271.245 107.49C271.418 107.291 271.54 107.052 271.613 106.774H272.786C272.72 107.224 272.556 107.63 272.294 107.992C272.036 108.35 271.693 108.635 271.265 108.847C270.841 109.056 270.347 109.16 269.784 109.16ZM277.823 101.365V102.359H273.865V101.365H277.823ZM275.019 99.5351H276.192V106.813C276.192 107.145 276.24 107.393 276.336 107.559C276.436 107.722 276.561 107.831 276.714 107.887C276.87 107.94 277.034 107.967 277.206 107.967C277.335 107.967 277.441 107.96 277.524 107.947C277.607 107.93 277.673 107.917 277.723 107.907L277.962 108.961C277.882 108.991 277.771 109.021 277.629 109.051C277.486 109.084 277.306 109.1 277.087 109.1C276.755 109.1 276.431 109.029 276.112 108.887C275.798 108.744 275.536 108.527 275.327 108.235C275.121 107.944 275.019 107.576 275.019 107.132V99.5351ZM282.707 109.16C281.971 109.16 281.337 108.998 280.803 108.673C280.273 108.345 279.863 107.887 279.575 107.301C279.29 106.711 279.148 106.025 279.148 105.242C279.148 104.46 279.29 103.771 279.575 103.174C279.863 102.574 280.265 102.107 280.778 101.772C281.295 101.434 281.898 101.265 282.588 101.265C282.986 101.265 283.378 101.331 283.766 101.464C284.154 101.597 284.507 101.812 284.825 102.11C285.143 102.405 285.397 102.796 285.586 103.284C285.775 103.771 285.869 104.371 285.869 105.083V105.581H279.983V104.566H284.676C284.676 104.135 284.59 103.751 284.417 103.413C284.248 103.075 284.006 102.808 283.692 102.612C283.38 102.417 283.012 102.319 282.588 102.319C282.121 102.319 281.716 102.435 281.375 102.667C281.037 102.896 280.777 103.194 280.594 103.562C280.412 103.93 280.321 104.324 280.321 104.745V105.421C280.321 105.998 280.42 106.487 280.619 106.888C280.821 107.286 281.101 107.589 281.459 107.798C281.817 108.003 282.233 108.106 282.707 108.106C283.015 108.106 283.294 108.063 283.542 107.977C283.794 107.887 284.011 107.755 284.194 107.579C284.376 107.4 284.517 107.178 284.616 106.913L285.75 107.231C285.631 107.616 285.43 107.954 285.148 108.245C284.867 108.534 284.519 108.759 284.104 108.921C283.69 109.081 283.224 109.16 282.707 109.16ZM290.537 109.16C289.901 109.16 289.339 108.999 288.852 108.678C288.365 108.353 287.984 107.896 287.709 107.306C287.434 106.712 287.296 106.011 287.296 105.203C287.296 104.401 287.434 103.705 287.709 103.115C287.984 102.525 288.367 102.069 288.857 101.747C289.348 101.426 289.914 101.265 290.557 101.265C291.055 101.265 291.447 101.348 291.736 101.514C292.027 101.676 292.249 101.862 292.402 102.071C292.558 102.276 292.679 102.445 292.765 102.578H292.864V98.8192H294.037V109.001H292.904V107.828H292.765C292.679 107.967 292.556 108.143 292.397 108.355C292.238 108.563 292.011 108.751 291.716 108.916C291.421 109.079 291.028 109.16 290.537 109.16ZM290.697 108.106C291.167 108.106 291.565 107.983 291.89 107.738C292.215 107.49 292.461 107.147 292.631 106.709C292.8 106.268 292.884 105.759 292.884 105.183C292.884 104.613 292.801 104.114 292.635 103.686C292.47 103.255 292.224 102.921 291.9 102.682C291.575 102.44 291.174 102.319 290.697 102.319C290.199 102.319 289.785 102.447 289.454 102.702C289.126 102.954 288.879 103.297 288.713 103.731C288.55 104.162 288.469 104.646 288.469 105.183C288.469 105.726 288.552 106.22 288.718 106.664C288.887 107.105 289.135 107.456 289.464 107.718C289.795 107.977 290.206 108.106 290.697 108.106ZM301.46 104.407V109.001H300.287V98.8192H301.46V102.558H301.559C301.738 102.163 302.007 101.85 302.365 101.618C302.726 101.383 303.207 101.265 303.807 101.265C304.327 101.265 304.783 101.37 305.174 101.578C305.565 101.784 305.868 102.1 306.084 102.528C306.302 102.952 306.412 103.492 306.412 104.149V109.001H305.238V104.228C305.238 103.622 305.081 103.153 304.766 102.821C304.455 102.487 304.022 102.319 303.469 102.319C303.084 102.319 302.739 102.4 302.434 102.563C302.133 102.725 301.894 102.962 301.719 103.274C301.546 103.585 301.46 103.963 301.46 104.407ZM310.805 109.18C310.321 109.18 309.882 109.089 309.488 108.907C309.094 108.721 308.78 108.454 308.548 108.106C308.316 107.755 308.2 107.331 308.2 106.833C308.2 106.396 308.286 106.041 308.459 105.769C308.631 105.494 308.862 105.279 309.15 105.123C309.438 104.967 309.756 104.851 310.104 104.775C310.456 104.696 310.809 104.633 311.163 104.586C311.627 104.527 312.004 104.482 312.292 104.452C312.584 104.419 312.796 104.364 312.928 104.288C313.064 104.212 313.132 104.079 313.132 103.89V103.85C313.132 103.36 312.998 102.979 312.729 102.707C312.464 102.435 312.062 102.299 311.521 102.299C310.961 102.299 310.522 102.422 310.204 102.667C309.886 102.912 309.662 103.174 309.533 103.453L308.419 103.055C308.618 102.591 308.883 102.23 309.214 101.971C309.549 101.709 309.914 101.527 310.308 101.424C310.706 101.318 311.097 101.265 311.482 101.265C311.727 101.265 312.009 101.295 312.327 101.355C312.648 101.411 312.958 101.529 313.256 101.708C313.558 101.887 313.808 102.157 314.007 102.518C314.206 102.879 314.305 103.363 314.305 103.97V109.001H313.132V107.967H313.072C312.993 108.133 312.86 108.31 312.675 108.499C312.489 108.688 312.242 108.849 311.934 108.981C311.626 109.114 311.25 109.18 310.805 109.18ZM310.984 108.126C311.448 108.126 311.839 108.035 312.158 107.853C312.479 107.67 312.721 107.435 312.884 107.147C313.049 106.858 313.132 106.555 313.132 106.237V105.163C313.082 105.223 312.973 105.277 312.804 105.327C312.638 105.373 312.446 105.415 312.227 105.451C312.012 105.484 311.801 105.514 311.596 105.541C311.394 105.564 311.23 105.584 311.104 105.6C310.799 105.64 310.514 105.705 310.249 105.794C309.987 105.88 309.775 106.011 309.612 106.187C309.453 106.359 309.374 106.595 309.374 106.893C309.374 107.301 309.524 107.609 309.826 107.818C310.131 108.023 310.517 108.126 310.984 108.126ZM316.447 111.865V101.365H317.58V102.578H317.72C317.806 102.445 317.925 102.276 318.078 102.071C318.233 101.862 318.455 101.676 318.744 101.514C319.035 101.348 319.43 101.265 319.927 101.265C320.57 101.265 321.137 101.426 321.627 101.747C322.118 102.069 322.501 102.525 322.776 103.115C323.051 103.705 323.188 104.401 323.188 105.203C323.188 106.011 323.051 106.712 322.776 107.306C322.501 107.896 322.119 108.353 321.632 108.678C321.145 108.999 320.583 109.16 319.947 109.16C319.456 109.16 319.064 109.079 318.769 108.916C318.474 108.751 318.247 108.563 318.088 108.355C317.928 108.143 317.806 107.967 317.72 107.828H317.62V111.865H316.447ZM317.6 105.183C317.6 105.759 317.685 106.268 317.854 106.709C318.023 107.147 318.27 107.49 318.595 107.738C318.919 107.983 319.317 108.106 319.788 108.106C320.278 108.106 320.688 107.977 321.016 107.718C321.347 107.456 321.596 107.105 321.762 106.664C321.931 106.22 322.015 105.726 322.015 105.183C322.015 104.646 321.932 104.162 321.767 103.731C321.604 103.297 321.357 102.954 321.026 102.702C320.698 102.447 320.285 102.319 319.788 102.319C319.311 102.319 318.91 102.44 318.585 102.682C318.26 102.921 318.015 103.255 317.849 103.686C317.683 104.114 317.6 104.613 317.6 105.183ZM324.978 111.865V101.365H326.112V102.578H326.251C326.337 102.445 326.456 102.276 326.609 102.071C326.765 101.862 326.987 101.676 327.275 101.514C327.567 101.348 327.961 101.265 328.458 101.265C329.101 101.265 329.668 101.426 330.159 101.747C330.649 102.069 331.032 102.525 331.307 103.115C331.582 103.705 331.72 104.401 331.72 105.203C331.72 106.011 331.582 106.712 331.307 107.306C331.032 107.896 330.651 108.353 330.164 108.678C329.676 108.999 329.115 109.16 328.478 109.16C327.988 109.16 327.595 109.079 327.3 108.916C327.005 108.751 326.778 108.563 326.619 108.355C326.46 108.143 326.337 107.967 326.251 107.828H326.151V111.865H324.978ZM326.132 105.183C326.132 105.759 326.216 106.268 326.385 106.709C326.554 107.147 326.801 107.49 327.126 107.738C327.451 107.983 327.848 108.106 328.319 108.106C328.81 108.106 329.219 107.977 329.547 107.718C329.878 107.456 330.127 107.105 330.293 106.664C330.462 106.22 330.546 105.726 330.546 105.183C330.546 104.646 330.463 104.162 330.298 103.731C330.135 103.297 329.888 102.954 329.557 102.702C329.229 102.447 328.816 102.319 328.319 102.319C327.842 102.319 327.441 102.44 327.116 102.682C326.791 102.921 326.546 103.255 326.38 103.686C326.214 104.114 326.132 104.613 326.132 105.183ZM336.711 109.16C335.975 109.16 335.341 108.998 334.807 108.673C334.277 108.345 333.867 107.887 333.579 107.301C333.294 106.711 333.151 106.025 333.151 105.242C333.151 104.46 333.294 103.771 333.579 103.174C333.867 102.574 334.268 102.107 334.782 101.772C335.299 101.434 335.902 101.265 336.592 101.265C336.99 101.265 337.382 101.331 337.77 101.464C338.158 101.597 338.511 101.812 338.829 102.11C339.147 102.405 339.401 102.796 339.59 103.284C339.779 103.771 339.873 104.371 339.873 105.083V105.581H333.987V104.566H338.68C338.68 104.135 338.594 103.751 338.421 103.413C338.252 103.075 338.01 102.808 337.695 102.612C337.384 102.417 337.016 102.319 336.592 102.319C336.124 102.319 335.72 102.435 335.379 102.667C335.041 102.896 334.78 103.194 334.598 103.562C334.416 103.93 334.325 104.324 334.325 104.745V105.421C334.325 105.998 334.424 106.487 334.623 106.888C334.825 107.286 335.105 107.589 335.463 107.798C335.821 108.003 336.237 108.106 336.711 108.106C337.019 108.106 337.298 108.063 337.546 107.977C337.798 107.887 338.015 107.755 338.198 107.579C338.38 107.4 338.521 107.178 338.62 106.913L339.754 107.231C339.634 107.616 339.434 107.954 339.152 108.245C338.87 108.534 338.522 108.759 338.108 108.921C337.694 109.081 337.228 109.16 336.711 109.16ZM342.831 104.407V109.001H341.658V101.365H342.791V102.558H342.891C343.07 102.17 343.342 101.858 343.706 101.623C344.071 101.384 344.541 101.265 345.118 101.265C345.635 101.265 346.088 101.371 346.475 101.583C346.863 101.792 347.165 102.11 347.38 102.538C347.596 102.962 347.703 103.499 347.703 104.149V109.001H346.53V104.228C346.53 103.628 346.374 103.161 346.063 102.826C345.751 102.488 345.324 102.319 344.78 102.319C344.405 102.319 344.071 102.4 343.776 102.563C343.484 102.725 343.254 102.962 343.085 103.274C342.916 103.585 342.831 103.963 342.831 104.407ZM353.049 109.16C352.313 109.16 351.679 108.998 351.145 108.673C350.615 108.345 350.205 107.887 349.917 107.301C349.632 106.711 349.489 106.025 349.489 105.242C349.489 104.46 349.632 103.771 349.917 103.174C350.205 102.574 350.606 102.107 351.12 101.772C351.637 101.434 352.24 101.265 352.93 101.265C353.327 101.265 353.72 101.331 354.108 101.464C354.496 101.597 354.849 101.812 355.167 102.11C355.485 102.405 355.739 102.796 355.928 103.284C356.116 103.771 356.211 104.371 356.211 105.083V105.581H350.325V104.566H355.018C355.018 104.135 354.932 103.751 354.759 103.413C354.59 103.075 354.348 102.808 354.033 102.612C353.722 102.417 353.354 102.319 352.93 102.319C352.462 102.319 352.058 102.435 351.717 102.667C351.379 102.896 351.118 103.194 350.936 103.562C350.754 103.93 350.663 104.324 350.663 104.745V105.421C350.663 105.998 350.762 106.487 350.961 106.888C351.163 107.286 351.443 107.589 351.801 107.798C352.159 108.003 352.575 108.106 353.049 108.106C353.357 108.106 353.636 108.063 353.884 107.977C354.136 107.887 354.353 107.755 354.536 107.579C354.718 107.4 354.859 107.178 354.958 106.913L356.092 107.231C355.972 107.616 355.772 107.954 355.49 108.245C355.208 108.534 354.86 108.759 354.446 108.921C354.032 109.081 353.566 109.16 353.049 109.16ZM360.879 109.16C360.243 109.16 359.681 108.999 359.194 108.678C358.707 108.353 358.326 107.896 358.05 107.306C357.775 106.712 357.638 106.011 357.638 105.203C357.638 104.401 357.775 103.705 358.05 103.115C358.326 102.525 358.708 102.069 359.199 101.747C359.689 101.426 360.256 101.265 360.899 101.265C361.396 101.265 361.789 101.348 362.077 101.514C362.369 101.676 362.591 101.862 362.744 102.071C362.899 102.276 363.02 102.445 363.107 102.578H363.206V98.8192H364.379V109.001H363.246V107.828H363.107C363.02 107.967 362.898 108.143 362.739 108.355C362.58 108.563 362.353 108.751 362.058 108.916C361.763 109.079 361.37 109.16 360.879 109.16ZM361.038 108.106C361.509 108.106 361.907 107.983 362.232 107.738C362.556 107.49 362.803 107.147 362.972 106.709C363.141 106.268 363.226 105.759 363.226 105.183C363.226 104.613 363.143 104.114 362.977 103.686C362.812 103.255 362.566 102.921 362.241 102.682C361.917 102.44 361.516 102.319 361.038 102.319C360.541 102.319 360.127 102.447 359.795 102.702C359.467 102.954 359.22 103.297 359.055 103.731C358.892 104.162 358.811 104.646 358.811 105.183C358.811 105.726 358.894 106.22 359.06 106.664C359.229 107.105 359.477 107.456 359.805 107.718C360.137 107.977 360.548 108.106 361.038 108.106ZM367.546 109.081C367.301 109.081 367.09 108.993 366.915 108.817C366.739 108.641 366.651 108.431 366.651 108.186C366.651 107.94 366.739 107.73 366.915 107.554C367.09 107.379 367.301 107.291 367.546 107.291C367.791 107.291 368.002 107.379 368.178 107.554C368.353 107.73 368.441 107.94 368.441 108.186C368.441 108.348 368.4 108.497 368.317 108.633C368.237 108.769 368.129 108.878 367.994 108.961C367.861 109.041 367.712 109.081 367.546 109.081Z" fill="#4F5769"/>
<path d="M463 83.001L473 73.001M463 73.001L473 83.001" stroke="#616B7C" stroke-width="1.67" stroke-linecap="round" stroke-linejoin="round"/>
<rect x="54.5" y="52.501" width="439" height="77" rx="3.5" stroke="#F2F2F8"/>
</g>
</g>
<rect x="0.5" y="0.500977" width="469" height="180" rx="16.5" stroke="#F2F2F8"/>
<defs>
<filter id="filter0_d_1154_68735" x="22" y="36.001" width="504" height="142" filterUnits="userSpaceOnUse" color-interpolation-filters="sRGB">
<feFlood flood-opacity="0" result="BackgroundImageFix"/>
<feColorMatrix in="SourceAlpha" type="matrix" values="0 0 0 0 0 0 0 0 0 0 0 0 0 0 0 0 0 0 127 0" result="hardAlpha"/>
<feOffset dy="16"/>
<feGaussianBlur stdDeviation="16"/>
<feColorMatrix type="matrix" values="0 0 0 0 0.215686 0 0 0 0 0.231373 0 0 0 0 0.301961 0 0 0 0.04 0"/>
<feBlend mode="normal" in2="BackgroundImageFix" result="effect1_dropShadow_1154_68735"/>
<feBlend mode="normal" in="SourceGraphic" in2="effect1_dropShadow_1154_68735" result="shape"/>
</filter>
<clipPath id="clip0_1154_68735">
<rect x="1" y="1.00098" width="468" height="179" rx="16" fill="white"/>
</clipPath>
</defs>
</svg>
