<svg width="470" height="181" viewBox="0 0 470 181" fill="none" xmlns="http://www.w3.org/2000/svg">
<g clip-path="url(#clip0_1154_68723)">
<rect x="1" y="1.00098" width="468" height="179" rx="16" fill="#FCFCFF"/>
<g filter="url(#filter0_d_1154_68723)">
<rect x="54" y="46.001" width="440" height="90" rx="4" fill="white"/>
<path d="M54 50.001C54 47.7918 55.7909 46.001 58 46.001H126V136.001H58C55.7909 136.001 54 134.21 54 132.001V50.001Z" fill="#FF453A"/>
<path fill-rule="evenodd" clip-rule="evenodd" d="M99.6004 91.0009C99.6004 96.3028 95.3023 100.601 90.0004 100.601C84.6985 100.601 80.4004 96.3028 80.4004 91.0009C80.4004 85.6989 84.6985 81.4009 90.0004 81.4009C95.3023 81.4009 99.6004 85.6989 99.6004 91.0009ZM91.2004 95.8009C91.2004 96.4636 90.6631 97.0009 90.0004 97.0009C89.3376 97.0009 88.8004 96.4636 88.8004 95.8009C88.8004 95.1381 89.3376 94.6009 90.0004 94.6009C90.6631 94.6009 91.2004 95.1381 91.2004 95.8009ZM90.0004 85.0009C89.3376 85.0009 88.8004 85.5381 88.8004 86.2009V91.0009C88.8004 91.6636 89.3376 92.2009 90.0004 92.2009C90.6631 92.2009 91.2004 91.6636 91.2004 91.0009V86.2009C91.2004 85.5381 90.6631 85.0009 90.0004 85.0009Z" fill="white"/>
<path d="M142.676 68.9129V67.8192H150.312V68.9129H147.111V78.001H145.878V68.9129H142.676ZM153.23 73.4072V78.001H152.056V67.8192H153.23V71.5578H153.329C153.508 71.1634 153.776 70.8502 154.134 70.6182C154.496 70.3828 154.976 70.2652 155.576 70.2652C156.097 70.2652 156.552 70.3696 156.943 70.5784C157.334 70.7839 157.638 71.1004 157.853 71.528C158.072 71.9522 158.181 72.4925 158.181 73.1487V78.001H157.008V73.2282C157.008 72.6217 156.851 72.1527 156.536 71.8213C156.224 71.4865 155.792 71.3192 155.238 71.3192C154.854 71.3192 154.509 71.4004 154.204 71.5628C153.902 71.7252 153.664 71.9622 153.488 72.2737C153.316 72.5853 153.23 72.9631 153.23 73.4072ZM163.529 78.1601C162.794 78.1601 162.159 77.9977 161.625 77.6729C161.095 77.3447 160.686 76.8873 160.397 76.3007C160.112 75.7107 159.97 75.0247 159.97 74.2425C159.97 73.4603 160.112 72.7709 160.397 72.1743C160.686 71.5744 161.087 71.107 161.6 70.7723C162.118 70.4342 162.721 70.2652 163.41 70.2652C163.808 70.2652 164.201 70.3315 164.588 70.464C164.976 70.5966 165.329 70.8121 165.647 71.1104C165.966 71.4053 166.219 71.7964 166.408 72.2836C166.597 72.7709 166.691 73.3708 166.691 74.0834V74.5805H160.805V73.5663H165.498C165.498 73.1354 165.412 72.751 165.24 72.4129C165.071 72.0748 164.829 71.808 164.514 71.6125C164.202 71.4169 163.834 71.3192 163.41 71.3192C162.943 71.3192 162.538 71.4352 162.197 71.6672C161.859 71.8959 161.599 72.1942 161.417 72.5621C161.234 72.93 161.143 73.3244 161.143 73.7453V74.4214C161.143 74.9981 161.243 75.487 161.441 75.8881C161.644 76.2858 161.924 76.589 162.282 76.7979C162.64 77.0033 163.056 77.1061 163.529 77.1061C163.838 77.1061 164.116 77.063 164.365 76.9768C164.617 76.8873 164.834 76.7548 165.016 76.5791C165.198 76.4001 165.339 76.1781 165.439 75.9129L166.572 76.2311C166.453 76.6156 166.252 76.9536 165.971 77.2453C165.689 77.5336 165.341 77.759 164.926 77.9214C164.512 78.0805 164.047 78.1601 163.529 78.1601ZM168.476 78.001V70.3646H169.61V71.518H169.689C169.828 71.1402 170.08 70.8336 170.445 70.5983C170.81 70.363 171.221 70.2453 171.678 70.2453C171.764 70.2453 171.872 70.247 172.001 70.2503C172.13 70.2536 172.228 70.2586 172.294 70.2652V71.4584C172.255 71.4484 172.163 71.4335 172.021 71.4136C171.882 71.3904 171.734 71.3788 171.578 71.3788C171.207 71.3788 170.876 71.4567 170.584 71.6125C170.296 71.7649 170.067 71.9771 169.898 72.2488C169.732 72.5173 169.65 72.8239 169.65 73.1686V78.001H168.476ZM176.654 78.1601C175.919 78.1601 175.284 77.9977 174.75 77.6729C174.22 77.3447 173.811 76.8873 173.522 76.3007C173.237 75.7107 173.095 75.0247 173.095 74.2425C173.095 73.4603 173.237 72.7709 173.522 72.1743C173.811 71.5744 174.212 71.107 174.725 70.7723C175.243 70.4342 175.846 70.2652 176.535 70.2652C176.933 70.2652 177.326 70.3315 177.713 70.464C178.101 70.5966 178.454 70.8121 178.772 71.1104C179.091 71.4053 179.344 71.7964 179.533 72.2836C179.722 72.7709 179.816 73.3708 179.816 74.0834V74.5805H173.93V73.5663H178.623C178.623 73.1354 178.537 72.751 178.365 72.4129C178.196 72.0748 177.954 71.808 177.639 71.6125C177.327 71.4169 176.959 71.3192 176.535 71.3192C176.068 71.3192 175.663 71.4352 175.322 71.6672C174.984 71.8959 174.724 72.1942 174.542 72.5621C174.359 72.93 174.268 73.3244 174.268 73.7453V74.4214C174.268 74.9981 174.368 75.487 174.566 75.8881C174.769 76.2858 175.049 76.589 175.407 76.7979C175.765 77.0033 176.181 77.1061 176.654 77.1061C176.963 77.1061 177.241 77.063 177.49 76.9768C177.742 76.8873 177.959 76.7548 178.141 76.5791C178.323 76.4001 178.464 76.1781 178.564 75.9129L179.697 76.2311C179.578 76.6156 179.377 76.9536 179.096 77.2453C178.814 77.5336 178.466 77.759 178.051 77.9214C177.637 78.0805 177.172 78.1601 176.654 78.1601ZM187.269 78.001L184.942 70.3646H186.175L187.826 76.2112H187.905L189.536 70.3646H190.789L192.4 76.1913H192.479L194.13 70.3646H195.363L193.036 78.001H191.882L190.212 72.1345H190.093L188.422 78.001H187.269ZM199.161 78.18C198.677 78.18 198.238 78.0888 197.843 77.9065C197.449 77.7209 197.136 77.4541 196.904 77.1061C196.672 76.7548 196.556 76.3305 196.556 75.8334C196.556 75.3959 196.642 75.0412 196.814 74.7694C196.987 74.4943 197.217 74.2789 197.505 74.1231C197.794 73.9674 198.112 73.8514 198.46 73.7751C198.811 73.6956 199.164 73.6326 199.519 73.5862C199.983 73.5265 200.359 73.4818 200.647 73.452C200.939 73.4188 201.151 73.3641 201.284 73.2879C201.42 73.2117 201.488 73.0791 201.488 72.8902V72.8504C201.488 72.3599 201.353 71.9787 201.085 71.7069C200.82 71.4352 200.417 71.2993 199.877 71.2993C199.317 71.2993 198.877 71.4219 198.559 71.6672C198.241 71.9124 198.017 72.1743 197.888 72.4527L196.775 72.055C196.973 71.5909 197.239 71.2297 197.57 70.9711C197.905 70.7093 198.269 70.527 198.664 70.4243C199.061 70.3182 199.453 70.2652 199.837 70.2652C200.082 70.2652 200.364 70.295 200.682 70.3547C201.004 70.411 201.314 70.5287 201.612 70.7077C201.913 70.8866 202.164 71.1568 202.363 71.518C202.561 71.8793 202.661 72.3632 202.661 72.9697V78.001H201.488V76.9669H201.428C201.348 77.1326 201.216 77.3099 201.03 77.4988C200.845 77.6878 200.598 77.8485 200.289 77.9811C199.981 78.1137 199.605 78.18 199.161 78.18ZM199.34 77.126C199.804 77.126 200.195 77.0348 200.513 76.8525C200.835 76.6702 201.077 76.4349 201.239 76.1466C201.405 75.8582 201.488 75.555 201.488 75.2368V74.1629C201.438 74.2226 201.328 74.2773 201.159 74.327C200.994 74.3734 200.801 74.4148 200.583 74.4513C200.367 74.4844 200.157 74.5142 199.951 74.5407C199.749 74.564 199.585 74.5838 199.459 74.6004C199.154 74.6402 198.869 74.7048 198.604 74.7943C198.342 74.8805 198.13 75.0114 197.968 75.1871C197.809 75.3594 197.729 75.5947 197.729 75.893C197.729 76.3007 197.88 76.6089 198.181 76.8177C198.486 77.0232 198.873 77.126 199.34 77.126ZM210.211 72.0748L209.157 72.3731C209.091 72.1975 208.993 72.0268 208.864 71.8611C208.738 71.692 208.566 71.5528 208.347 71.4434C208.128 71.3341 207.848 71.2794 207.507 71.2794C207.04 71.2794 206.65 71.3871 206.339 71.6025C206.03 71.8147 205.876 72.0848 205.876 72.4129C205.876 72.7046 205.982 72.9349 206.194 73.104C206.407 73.273 206.738 73.4139 207.189 73.5265L208.322 73.805C209.005 73.9707 209.514 74.2242 209.849 74.5656C210.183 74.9037 210.351 75.3395 210.351 75.8731C210.351 76.3106 210.225 76.7017 209.973 77.0464C209.724 77.3911 209.376 77.6629 208.929 77.8618C208.481 78.0606 207.961 78.1601 207.368 78.1601C206.589 78.1601 205.944 77.991 205.434 77.653C204.923 77.3149 204.6 76.8211 204.464 76.1714L205.578 75.893C205.684 76.304 205.885 76.6122 206.18 76.8177C206.478 77.0232 206.867 77.126 207.348 77.126C207.895 77.126 208.329 77.01 208.65 76.778C208.975 76.5426 209.138 76.2609 209.138 75.9328C209.138 75.6676 209.045 75.4456 208.859 75.2666C208.674 75.0843 208.389 74.9484 208.004 74.8589L206.731 74.5606C206.032 74.3949 205.518 74.1381 205.19 73.79C204.865 73.4387 204.703 72.9996 204.703 72.4726C204.703 72.0417 204.824 71.6605 205.066 71.3291C205.311 70.9977 205.644 70.7375 206.065 70.5486C206.489 70.3596 206.97 70.2652 207.507 70.2652C208.263 70.2652 208.856 70.4309 209.287 70.7623C209.721 71.0938 210.029 71.5313 210.211 72.0748ZM218.301 78.18C217.818 78.18 217.378 78.0888 216.984 77.9065C216.59 77.7209 216.276 77.4541 216.044 77.1061C215.812 76.7548 215.696 76.3305 215.696 75.8334C215.696 75.3959 215.783 75.0412 215.955 74.7694C216.127 74.4943 216.358 74.2789 216.646 74.1231C216.934 73.9674 217.252 73.8514 217.6 73.7751C217.952 73.6956 218.305 73.6326 218.659 73.5862C219.123 73.5265 219.5 73.4818 219.788 73.452C220.08 73.4188 220.292 73.3641 220.424 73.2879C220.56 73.2117 220.628 73.0791 220.628 72.8902V72.8504C220.628 72.3599 220.494 71.9787 220.225 71.7069C219.96 71.4352 219.558 71.2993 219.017 71.2993C218.457 71.2993 218.018 71.4219 217.7 71.6672C217.382 71.9124 217.158 72.1743 217.029 72.4527L215.915 72.055C216.114 71.5909 216.379 71.2297 216.711 70.9711C217.045 70.7093 217.41 70.527 217.804 70.4243C218.202 70.3182 218.593 70.2652 218.978 70.2652C219.223 70.2652 219.505 70.295 219.823 70.3547C220.144 70.411 220.454 70.5287 220.752 70.7077C221.054 70.8866 221.304 71.1568 221.503 71.518C221.702 71.8793 221.801 72.3632 221.801 72.9697V78.001H220.628V76.9669H220.569C220.489 77.1326 220.356 77.3099 220.171 77.4988C219.985 77.6878 219.738 77.8485 219.43 77.9811C219.122 78.1137 218.746 78.18 218.301 78.18ZM218.48 77.126C218.944 77.126 219.336 77.0348 219.654 76.8525C219.975 76.6702 220.217 76.4349 220.38 76.1466C220.545 75.8582 220.628 75.555 220.628 75.2368V74.1629C220.578 74.2226 220.469 74.2773 220.3 74.327C220.134 74.3734 219.942 74.4148 219.723 74.4513C219.508 74.4844 219.297 74.5142 219.092 74.5407C218.89 74.564 218.726 74.5838 218.6 74.6004C218.295 74.6402 218.01 74.7048 217.745 74.7943C217.483 74.8805 217.271 75.0114 217.108 75.1871C216.949 75.3594 216.87 75.5947 216.87 75.893C216.87 76.3007 217.02 76.6089 217.322 76.8177C217.627 77.0232 218.013 77.126 218.48 77.126ZM225.116 73.4072V78.001H223.943V70.3646H225.077V71.5578H225.176C225.355 71.17 225.627 70.8585 225.991 70.6231C226.356 70.3845 226.827 70.2652 227.403 70.2652C227.92 70.2652 228.373 70.3712 228.76 70.5834C229.148 70.7922 229.45 71.1104 229.665 71.5379C229.881 71.9622 229.988 72.4991 229.988 73.1487V78.001H228.815V73.2282C228.815 72.6283 228.659 72.161 228.348 71.8263C228.036 71.4882 227.609 71.3192 227.065 71.3192C226.691 71.3192 226.356 71.4004 226.061 71.5628C225.769 71.7252 225.539 71.9622 225.37 72.2737C225.201 72.5853 225.116 72.9631 225.116 73.4072ZM239.272 78.1601C238.536 78.1601 237.901 77.9977 237.368 77.6729C236.837 77.3447 236.428 76.8873 236.14 76.3007C235.855 75.7107 235.712 75.0247 235.712 74.2425C235.712 73.4603 235.855 72.7709 236.14 72.1743C236.428 71.5744 236.829 71.107 237.343 70.7723C237.86 70.4342 238.463 70.2652 239.152 70.2652C239.55 70.2652 239.943 70.3315 240.331 70.464C240.718 70.5966 241.071 70.8121 241.39 71.1104C241.708 71.4053 241.961 71.7964 242.15 72.2836C242.339 72.7709 242.434 73.3708 242.434 74.0834V74.5805H236.547V73.5663H241.24C241.24 73.1354 241.154 72.751 240.982 72.4129C240.813 72.0748 240.571 71.808 240.256 71.6125C239.944 71.4169 239.577 71.3192 239.152 71.3192C238.685 71.3192 238.281 71.4352 237.939 71.6672C237.601 71.8959 237.341 72.1942 237.159 72.5621C236.976 72.93 236.885 73.3244 236.885 73.7453V74.4214C236.885 74.9981 236.985 75.487 237.184 75.8881C237.386 76.2858 237.666 76.589 238.024 76.7979C238.382 77.0033 238.798 77.1061 239.272 77.1061C239.58 77.1061 239.858 77.063 240.107 76.9768C240.359 76.8873 240.576 76.7548 240.758 76.5791C240.94 76.4001 241.081 76.1781 241.181 75.9129L242.314 76.2311C242.195 76.6156 241.994 76.9536 241.713 77.2453C241.431 77.5336 241.083 77.759 240.669 77.9214C240.254 78.0805 239.789 78.1601 239.272 78.1601ZM244.218 78.001V70.3646H245.352V71.518H245.431C245.571 71.1402 245.823 70.8336 246.187 70.5983C246.552 70.363 246.963 70.2453 247.42 70.2453C247.506 70.2453 247.614 70.247 247.743 70.2503C247.873 70.2536 247.97 70.2586 248.037 70.2652V71.4584C247.997 71.4484 247.906 71.4335 247.763 71.4136C247.624 71.3904 247.476 71.3788 247.321 71.3788C246.949 71.3788 246.618 71.4567 246.326 71.6125C246.038 71.7649 245.809 71.9771 245.64 72.2488C245.475 72.5173 245.392 72.8239 245.392 73.1686V78.001H244.218ZM249.427 78.001V70.3646H250.561V71.518H250.64C250.78 71.1402 251.032 70.8336 251.396 70.5983C251.761 70.363 252.172 70.2453 252.629 70.2453C252.715 70.2453 252.823 70.247 252.952 70.2503C253.081 70.2536 253.179 70.2586 253.246 70.2652V71.4584C253.206 71.4484 253.115 71.4335 252.972 71.4136C252.833 71.3904 252.685 71.3788 252.53 71.3788C252.158 71.3788 251.827 71.4567 251.535 71.6125C251.247 71.7649 251.018 71.9771 250.849 72.2488C250.684 72.5173 250.601 72.8239 250.601 73.1686V78.001H249.427ZM257.506 78.1601C256.817 78.1601 256.212 77.996 255.692 77.6679C255.175 77.3398 254.77 76.8807 254.479 76.2907C254.19 75.7008 254.046 75.0114 254.046 74.2226C254.046 73.4271 254.19 72.7327 254.479 72.1395C254.77 71.5462 255.175 71.0855 255.692 70.7574C256.212 70.4292 256.817 70.2652 257.506 70.2652C258.196 70.2652 258.799 70.4292 259.316 70.7574C259.836 71.0855 260.241 71.5462 260.529 72.1395C260.821 72.7327 260.966 73.4271 260.966 74.2226C260.966 75.0114 260.821 75.7008 260.529 76.2907C260.241 76.8807 259.836 77.3398 259.316 77.6679C258.799 77.996 258.196 78.1601 257.506 78.1601ZM257.506 77.1061C258.03 77.1061 258.461 76.9719 258.799 76.7034C259.137 76.4349 259.387 76.0819 259.55 75.6444C259.712 75.2069 259.793 74.733 259.793 74.2226C259.793 73.7122 259.712 73.2365 259.55 72.7957C259.387 72.3549 259.137 71.9986 258.799 71.7268C258.461 71.455 258.03 71.3192 257.506 71.3192C256.983 71.3192 256.552 71.455 256.214 71.7268C255.876 71.9986 255.625 72.3549 255.463 72.7957C255.3 73.2365 255.219 73.7122 255.219 74.2226C255.219 74.733 255.3 75.2069 255.463 75.6444C255.625 76.0819 255.876 76.4349 256.214 76.7034C256.552 76.9719 256.983 77.1061 257.506 77.1061ZM262.757 78.001V70.3646H263.891V71.518H263.971C264.11 71.1402 264.362 70.8336 264.726 70.5983C265.091 70.363 265.502 70.2453 265.959 70.2453C266.045 70.2453 266.153 70.247 266.282 70.2503C266.412 70.2536 266.509 70.2586 266.576 70.2652V71.4584C266.536 71.4484 266.445 71.4335 266.302 71.4136C266.163 71.3904 266.016 71.3788 265.86 71.3788C265.489 71.3788 265.157 71.4567 264.865 71.6125C264.577 71.7649 264.348 71.9771 264.179 72.2488C264.014 72.5173 263.931 72.8239 263.931 73.1686V78.001H262.757ZM276.716 74.8788V70.3646H277.89V78.001H276.716V76.7084H276.637C276.458 77.0961 276.18 77.4259 275.802 77.6977C275.424 77.9662 274.947 78.1004 274.37 78.1004C273.893 78.1004 273.468 77.996 273.097 77.7872C272.726 77.5751 272.434 77.2569 272.222 76.8327C272.01 76.4051 271.904 75.8665 271.904 75.2169V70.3646H273.077V75.1373C273.077 75.6942 273.233 76.1383 273.545 76.4697C273.859 76.8012 274.26 76.9669 274.748 76.9669C275.039 76.9669 275.336 76.8923 275.638 76.7432C275.943 76.594 276.198 76.3653 276.403 76.0571C276.612 75.7488 276.716 75.3561 276.716 74.8788ZM280.039 80.8646V70.3646H281.172V71.5777H281.311C281.398 71.4451 281.517 71.2761 281.669 71.0706C281.825 70.8618 282.047 70.6762 282.336 70.5138C282.627 70.348 283.022 70.2652 283.519 70.2652C284.162 70.2652 284.729 70.4259 285.219 70.7474C285.71 71.0689 286.092 71.5247 286.368 72.1146C286.643 72.7046 286.78 73.4006 286.78 74.2027C286.78 75.0114 286.643 75.7124 286.368 76.3057C286.092 76.8956 285.711 77.353 285.224 77.6778C284.737 77.9993 284.175 78.1601 283.539 78.1601C283.048 78.1601 282.655 78.0789 282.36 77.9165C282.065 77.7507 281.838 77.5635 281.679 77.3547C281.52 77.1425 281.398 76.9669 281.311 76.8277H281.212V80.8646H280.039ZM281.192 74.1828C281.192 74.7595 281.277 75.2683 281.446 75.7091C281.615 76.1466 281.862 76.4896 282.186 76.7382C282.511 76.9835 282.909 77.1061 283.38 77.1061C283.87 77.1061 284.279 76.9768 284.608 76.7183C284.939 76.4565 285.188 76.1051 285.353 75.6643C285.522 75.2202 285.607 74.7264 285.607 74.1828C285.607 73.6459 285.524 73.162 285.358 72.7311C285.196 72.2969 284.949 71.9539 284.618 71.702C284.289 71.4468 283.877 71.3192 283.38 71.3192C282.902 71.3192 282.501 71.4401 282.176 71.6821C281.852 71.9207 281.606 72.2555 281.441 72.6863C281.275 73.1139 281.192 73.6127 281.192 74.1828ZM291.453 78.1601C290.817 78.1601 290.255 77.9993 289.768 77.6778C289.281 77.353 288.9 76.8956 288.625 76.3057C288.35 75.7124 288.212 75.0114 288.212 74.2027C288.212 73.4006 288.35 72.7046 288.625 72.1146C288.9 71.5247 289.283 71.0689 289.773 70.7474C290.264 70.4259 290.83 70.2652 291.473 70.2652C291.971 70.2652 292.363 70.348 292.652 70.5138C292.943 70.6762 293.165 70.8618 293.318 71.0706C293.474 71.2761 293.595 71.4451 293.681 71.5777H293.78V67.8192H294.953V78.001H293.82V76.8277H293.681C293.595 76.9669 293.472 77.1425 293.313 77.3547C293.154 77.5635 292.927 77.7507 292.632 77.9165C292.337 78.0789 291.944 78.1601 291.453 78.1601ZM291.613 77.1061C292.083 77.1061 292.481 76.9835 292.806 76.7382C293.131 76.4896 293.377 76.1466 293.547 75.7091C293.716 75.2683 293.8 74.7595 293.8 74.1828C293.8 73.6127 293.717 73.1139 293.551 72.6863C293.386 72.2555 293.141 71.9207 292.816 71.6821C292.491 71.4401 292.09 71.3192 291.613 71.3192C291.115 71.3192 290.701 71.4468 290.37 71.702C290.042 71.9539 289.795 72.2969 289.629 72.7311C289.467 73.162 289.385 73.6459 289.385 74.1828C289.385 74.7264 289.468 75.2202 289.634 75.6643C289.803 76.1051 290.051 76.4565 290.38 76.7183C290.711 76.9768 291.122 77.1061 291.613 77.1061ZM299.512 78.18C299.029 78.18 298.589 78.0888 298.195 77.9065C297.801 77.7209 297.487 77.4541 297.255 77.1061C297.023 76.7548 296.907 76.3305 296.907 75.8334C296.907 75.3959 296.993 75.0412 297.166 74.7694C297.338 74.4943 297.569 74.2789 297.857 74.1231C298.145 73.9674 298.463 73.8514 298.811 73.7751C299.163 73.6956 299.516 73.6326 299.87 73.5862C300.334 73.5265 300.711 73.4818 300.999 73.452C301.291 73.4188 301.503 73.3641 301.635 73.2879C301.771 73.2117 301.839 73.0791 301.839 72.8902V72.8504C301.839 72.3599 301.705 71.9787 301.436 71.7069C301.171 71.4352 300.769 71.2993 300.228 71.2993C299.668 71.2993 299.229 71.4219 298.911 71.6672C298.593 71.9124 298.369 72.1743 298.24 72.4527L297.126 72.055C297.325 71.5909 297.59 71.2297 297.922 70.9711C298.256 70.7093 298.621 70.527 299.015 70.4243C299.413 70.3182 299.804 70.2652 300.189 70.2652C300.434 70.2652 300.716 70.295 301.034 70.3547C301.355 70.411 301.665 70.5287 301.963 70.7077C302.265 70.8866 302.515 71.1568 302.714 71.518C302.913 71.8793 303.012 72.3632 303.012 72.9697V78.001H301.839V76.9669H301.779C301.7 77.1326 301.567 77.3099 301.382 77.4988C301.196 77.6878 300.949 77.8485 300.641 77.9811C300.333 78.1137 299.957 78.18 299.512 78.18ZM299.691 77.126C300.155 77.126 300.547 77.0348 300.865 76.8525C301.186 76.6702 301.428 76.4349 301.591 76.1466C301.756 75.8582 301.839 75.555 301.839 75.2368V74.1629C301.789 74.2226 301.68 74.2773 301.511 74.327C301.345 74.3734 301.153 74.4148 300.934 74.4513C300.719 74.4844 300.508 74.5142 300.303 74.5407C300.101 74.564 299.937 74.5838 299.811 74.6004C299.506 74.6402 299.221 74.7048 298.956 74.7943C298.694 74.8805 298.482 75.0114 298.319 75.1871C298.16 75.3594 298.081 75.5947 298.081 75.893C298.081 76.3007 298.231 76.6089 298.533 76.8177C298.838 77.0232 299.224 77.126 299.691 77.126ZM308.475 70.3646V71.3589H304.518V70.3646H308.475ZM305.671 68.5351H306.844V75.8135C306.844 76.1449 306.892 76.3935 306.988 76.5592C307.088 76.7216 307.214 76.831 307.366 76.8873C307.522 76.9404 307.686 76.9669 307.858 76.9669C307.988 76.9669 308.094 76.9603 308.177 76.947C308.26 76.9304 308.326 76.9172 308.376 76.9072L308.614 77.9612C308.535 77.991 308.424 78.0209 308.281 78.0507C308.139 78.0838 307.958 78.1004 307.739 78.1004C307.408 78.1004 307.083 78.0291 306.765 77.8866C306.45 77.7441 306.188 77.527 305.979 77.2354C305.774 76.9437 305.671 76.5758 305.671 76.1317V68.5351ZM310.24 78.001V70.3646H311.413V78.001H310.24ZM310.836 69.0919C310.608 69.0919 310.411 69.014 310.245 68.8582C310.082 68.7024 310.001 68.5152 310.001 68.2964C310.001 68.0777 310.082 67.8904 310.245 67.7346C310.411 67.5789 310.608 67.501 310.836 67.501C311.065 67.501 311.261 67.5789 311.423 67.7346C311.589 67.8904 311.672 68.0777 311.672 68.2964C311.672 68.5152 311.589 68.7024 311.423 68.8582C311.261 69.014 311.065 69.0919 310.836 69.0919ZM314.735 73.4072V78.001H313.562V70.3646H314.696V71.5578H314.795C314.974 71.17 315.246 70.8585 315.61 70.6231C315.975 70.3845 316.446 70.2652 317.022 70.2652C317.539 70.2652 317.992 70.3712 318.38 70.5834C318.767 70.7922 319.069 71.1104 319.284 71.5379C319.5 71.9622 319.608 72.4991 319.608 73.1487V78.001H318.434V73.2282C318.434 72.6283 318.279 72.161 317.967 71.8263C317.655 71.4882 317.228 71.3192 316.684 71.3192C316.31 71.3192 315.975 71.4004 315.68 71.5628C315.388 71.7252 315.158 71.9622 314.989 72.2737C314.82 72.5853 314.735 72.9631 314.735 73.4072ZM324.834 81.0237C324.267 81.0237 323.78 80.9508 323.372 80.805C322.965 80.6624 322.625 80.4735 322.353 80.2382C322.085 80.0062 321.871 79.7576 321.712 79.4925L322.646 78.8362C322.753 78.9754 322.887 79.1345 323.049 79.3135C323.212 79.4958 323.434 79.6532 323.715 79.7858C324 79.9217 324.373 79.9896 324.834 79.9896C325.45 79.9896 325.959 79.8405 326.36 79.5422C326.761 79.2439 326.962 78.7765 326.962 78.1402V76.589H326.862C326.776 76.7282 326.654 76.9006 326.494 77.1061C326.339 77.3083 326.113 77.4889 325.818 77.648C325.527 77.8038 325.132 77.8817 324.635 77.8817C324.019 77.8817 323.465 77.7358 322.975 77.4442C322.487 77.1525 322.101 76.7282 321.816 76.1714C321.535 75.6146 321.394 74.9385 321.394 74.143C321.394 73.3608 321.531 72.6797 321.806 72.0997C322.081 71.5164 322.464 71.0656 322.955 70.7474C323.445 70.4259 324.012 70.2652 324.655 70.2652C325.152 70.2652 325.547 70.348 325.838 70.5138C326.133 70.6762 326.359 70.8618 326.514 71.0706C326.673 71.2761 326.796 71.4451 326.882 71.5777H327.002V70.3646H328.135V78.2197C328.135 78.876 327.986 79.4096 327.688 79.8206C327.393 80.2349 326.995 80.5381 326.494 80.7304C325.997 80.9259 325.444 81.0237 324.834 81.0237ZM324.794 76.8277C325.265 76.8277 325.663 76.72 325.987 76.5045C326.312 76.2891 326.559 75.9792 326.728 75.5748C326.897 75.1705 326.982 74.6866 326.982 74.1231C326.982 73.5729 326.899 73.0874 326.733 72.6665C326.567 72.2455 326.322 71.9157 325.997 71.6771C325.673 71.4385 325.271 71.3192 324.794 71.3192C324.297 71.3192 323.883 71.4451 323.551 71.697C323.223 71.9489 322.976 72.287 322.811 72.7112C322.648 73.1354 322.567 73.6061 322.567 74.1231C322.567 74.6534 322.65 75.1224 322.816 75.5301C322.985 75.9345 323.233 76.2526 323.561 76.4846C323.893 76.7133 324.304 76.8277 324.794 76.8277ZM334.379 67.8192H335.851L339.311 76.2709H339.431L342.891 67.8192H344.362V78.001H343.209V70.2652H343.11L339.928 78.001H338.814L335.632 70.2652H335.533V78.001H334.379V67.8192ZM349.877 78.1601C349.141 78.1601 348.507 77.9977 347.973 77.6729C347.443 77.3447 347.033 76.8873 346.745 76.3007C346.46 75.7107 346.317 75.0247 346.317 74.2425C346.317 73.4603 346.46 72.7709 346.745 72.1743C347.033 71.5744 347.434 71.107 347.948 70.7723C348.465 70.4342 349.068 70.2652 349.758 70.2652C350.156 70.2652 350.548 70.3315 350.936 70.464C351.324 70.5966 351.677 70.8121 351.995 71.1104C352.313 71.4053 352.567 71.7964 352.756 72.2836C352.945 72.7709 353.039 73.3708 353.039 74.0834V74.5805H347.153V73.5663H351.846C351.846 73.1354 351.76 72.751 351.587 72.4129C351.418 72.0748 351.176 71.808 350.862 71.6125C350.55 71.4169 350.182 71.3192 349.758 71.3192C349.29 71.3192 348.886 71.4352 348.545 71.6672C348.207 71.8959 347.946 72.1942 347.764 72.5621C347.582 72.93 347.491 73.3244 347.491 73.7453V74.4214C347.491 74.9981 347.59 75.487 347.789 75.8881C347.991 76.2858 348.271 76.589 348.629 76.7979C348.987 77.0033 349.403 77.1061 349.877 77.1061C350.185 77.1061 350.464 77.063 350.712 76.9768C350.964 76.8873 351.181 76.7548 351.364 76.5791C351.546 76.4001 351.687 76.1781 351.786 75.9129L352.92 76.2311C352.8 76.6156 352.6 76.9536 352.318 77.2453C352.036 77.5336 351.688 77.759 351.274 77.9214C350.86 78.0805 350.394 78.1601 349.877 78.1601ZM357.707 78.1601C357.071 78.1601 356.509 77.9993 356.022 77.6778C355.535 77.353 355.154 76.8956 354.879 76.3057C354.603 75.7124 354.466 75.0114 354.466 74.2027C354.466 73.4006 354.603 72.7046 354.879 72.1146C355.154 71.5247 355.536 71.0689 356.027 70.7474C356.518 70.4259 357.084 70.2652 357.727 70.2652C358.224 70.2652 358.617 70.348 358.906 70.5138C359.197 70.6762 359.419 70.8618 359.572 71.0706C359.728 71.2761 359.848 71.4451 359.935 71.5777H360.034V67.8192H361.207V78.001H360.074V76.8277H359.935C359.848 76.9669 359.726 77.1425 359.567 77.3547C359.408 77.5635 359.181 77.7507 358.886 77.9165C358.591 78.0789 358.198 78.1601 357.707 78.1601ZM357.866 77.1061C358.337 77.1061 358.735 76.9835 359.06 76.7382C359.384 76.4896 359.631 76.1466 359.8 75.7091C359.969 75.2683 360.054 74.7595 360.054 74.1828C360.054 73.6127 359.971 73.1139 359.805 72.6863C359.64 72.2555 359.394 71.9207 359.07 71.6821C358.745 71.4401 358.344 71.3192 357.866 71.3192C357.369 71.3192 356.955 71.4468 356.624 71.702C356.295 71.9539 356.049 72.2969 355.883 72.7311C355.72 73.162 355.639 73.6459 355.639 74.1828C355.639 74.7264 355.722 75.2202 355.888 75.6643C356.057 76.1051 356.305 76.4565 356.634 76.7183C356.965 76.9768 357.376 77.1061 357.866 77.1061ZM363.519 78.001V70.3646H364.692V78.001H363.519ZM364.116 69.0919C363.887 69.0919 363.69 69.014 363.524 68.8582C363.362 68.7024 363.281 68.5152 363.281 68.2964C363.281 68.0777 363.362 67.8904 363.524 67.7346C363.69 67.5789 363.887 67.501 364.116 67.501C364.344 67.501 364.54 67.5789 364.702 67.7346C364.868 67.8904 364.951 68.0777 364.951 68.2964C364.951 68.5152 364.868 68.7024 364.702 68.8582C364.54 69.014 364.344 69.0919 364.116 69.0919ZM369.089 78.18C368.605 78.18 368.166 78.0888 367.771 77.9065C367.377 77.7209 367.064 77.4541 366.831 77.1061C366.599 76.7548 366.483 76.3305 366.483 75.8334C366.483 75.3959 366.57 75.0412 366.742 74.7694C366.914 74.4943 367.145 74.2789 367.433 74.1231C367.721 73.9674 368.04 73.8514 368.388 73.7751C368.739 73.6956 369.092 73.6326 369.447 73.5862C369.911 73.5265 370.287 73.4818 370.575 73.452C370.867 73.4188 371.079 73.3641 371.211 73.2879C371.347 73.2117 371.415 73.0791 371.415 72.8902V72.8504C371.415 72.3599 371.281 71.9787 371.013 71.7069C370.747 71.4352 370.345 71.2993 369.805 71.2993C369.244 71.2993 368.805 71.4219 368.487 71.6672C368.169 71.9124 367.945 72.1743 367.816 72.4527L366.702 72.055C366.901 71.5909 367.166 71.2297 367.498 70.9711C367.832 70.7093 368.197 70.527 368.591 70.4243C368.989 70.3182 369.38 70.2652 369.765 70.2652C370.01 70.2652 370.292 70.295 370.61 70.3547C370.931 70.411 371.241 70.5287 371.54 70.7077C371.841 70.8866 372.091 71.1568 372.29 71.518C372.489 71.8793 372.589 72.3632 372.589 72.9697V78.001H371.415V76.9669H371.356C371.276 77.1326 371.144 77.3099 370.958 77.4988C370.772 77.6878 370.525 77.8485 370.217 77.9811C369.909 78.1137 369.533 78.18 369.089 78.18ZM369.268 77.126C369.732 77.126 370.123 77.0348 370.441 76.8525C370.762 76.6702 371.004 76.4349 371.167 76.1466C371.332 75.8582 371.415 75.555 371.415 75.2368V74.1629C371.366 74.2226 371.256 74.2773 371.087 74.327C370.921 74.3734 370.729 74.4148 370.51 74.4513C370.295 74.4844 370.085 74.5142 369.879 74.5407C369.677 74.564 369.513 74.5838 369.387 74.6004C369.082 74.6402 368.797 74.7048 368.532 74.7943C368.27 74.8805 368.058 75.0114 367.895 75.1871C367.736 75.3594 367.657 75.5947 367.657 75.893C367.657 76.3007 367.808 76.6089 368.109 76.8177C368.414 77.0232 368.8 77.126 369.268 77.126ZM378.827 78.001V67.8192H380V71.5777H380.099C380.186 71.4451 380.305 71.2761 380.457 71.0706C380.613 70.8618 380.835 70.6762 381.124 70.5138C381.415 70.348 381.81 70.2652 382.307 70.2652C382.95 70.2652 383.517 70.4259 384.007 70.7474C384.498 71.0689 384.88 71.5247 385.156 72.1146C385.431 72.7046 385.568 73.4006 385.568 74.2027C385.568 75.0114 385.431 75.7124 385.156 76.3057C384.88 76.8956 384.499 77.353 384.012 77.6778C383.525 77.9993 382.963 78.1601 382.327 78.1601C381.836 78.1601 381.443 78.0789 381.148 77.9165C380.853 77.7507 380.626 77.5635 380.467 77.3547C380.308 77.1425 380.186 76.9669 380.099 76.8277H379.96V78.001H378.827ZM379.98 74.1828C379.98 74.7595 380.065 75.2683 380.234 75.7091C380.403 76.1466 380.65 76.4896 380.974 76.7382C381.299 76.9835 381.697 77.1061 382.168 77.1061C382.658 77.1061 383.067 76.9768 383.396 76.7183C383.727 76.4565 383.976 76.1051 384.141 75.6643C384.31 75.2202 384.395 74.7264 384.395 74.1828C384.395 73.6459 384.312 73.162 384.146 72.7311C383.984 72.2969 383.737 71.9539 383.406 71.702C383.077 71.4468 382.665 71.3192 382.168 71.3192C381.69 71.3192 381.289 71.4401 380.964 71.6821C380.64 71.9207 380.394 72.2555 380.229 72.6863C380.063 73.1139 379.98 73.6127 379.98 74.1828ZM392.175 74.8788V70.3646H393.349V78.001H392.175V76.7084H392.096C391.917 77.0961 391.638 77.4259 391.261 77.6977C390.883 77.9662 390.406 78.1004 389.829 78.1004C389.352 78.1004 388.927 77.996 388.556 77.7872C388.185 77.5751 387.893 77.2569 387.681 76.8327C387.469 76.4051 387.363 75.8665 387.363 75.2169V70.3646H388.536V75.1373C388.536 75.6942 388.692 76.1383 389.004 76.4697C389.318 76.8012 389.719 76.9669 390.207 76.9669C390.498 76.9669 390.795 76.8923 391.097 76.7432C391.402 76.594 391.657 76.3653 391.862 76.0571C392.071 75.7488 392.175 75.3561 392.175 74.8788ZM398.6 78.1601C397.884 78.1601 397.268 77.991 396.751 77.653C396.233 77.3149 395.836 76.8492 395.557 76.2559C395.279 75.6627 395.14 74.9849 395.14 74.2226C395.14 73.447 395.282 72.7626 395.567 72.1693C395.856 71.5727 396.257 71.107 396.77 70.7723C397.287 70.4342 397.891 70.2652 398.58 70.2652C399.117 70.2652 399.601 70.3646 400.032 70.5635C400.463 70.7623 400.816 71.0407 401.091 71.3987C401.366 71.7567 401.537 72.1743 401.603 72.6515H400.43C400.34 72.3035 400.141 71.9953 399.833 71.7268C399.528 71.455 399.117 71.3192 398.6 71.3192C398.143 71.3192 397.742 71.4385 397.397 71.6771C397.055 71.9124 396.789 72.2455 396.596 72.6764C396.407 73.104 396.313 73.6061 396.313 74.1828C396.313 74.7728 396.406 75.2865 396.591 75.724C396.78 76.1615 397.046 76.5012 397.387 76.7432C397.732 76.9851 398.136 77.1061 398.6 77.1061C398.905 77.1061 399.182 77.0531 399.43 76.947C399.679 76.8409 399.889 76.6885 400.062 76.4896C400.234 76.2907 400.357 76.0521 400.43 75.7737H401.603C401.537 76.2245 401.372 76.6305 401.111 76.9917C400.852 77.3497 400.509 77.6347 400.081 77.8469C399.657 78.0557 399.163 78.1601 398.6 78.1601ZM404.412 75.2169L404.392 73.7652H404.631L407.971 70.3646H409.423L405.863 73.964H405.764L404.412 75.2169ZM403.318 78.001V67.8192H404.491V78.001H403.318ZM408.17 78.001L405.187 74.2226L406.023 73.4072L409.662 78.001H408.17ZM413.82 78.1601C413.085 78.1601 412.45 77.9977 411.916 77.6729C411.386 77.3447 410.977 76.8873 410.688 76.3007C410.403 75.7107 410.261 75.0247 410.261 74.2425C410.261 73.4603 410.403 72.7709 410.688 72.1743C410.977 71.5744 411.378 71.107 411.892 70.7723C412.409 70.4342 413.012 70.2652 413.701 70.2652C414.099 70.2652 414.492 70.3315 414.879 70.464C415.267 70.5966 415.62 70.8121 415.938 71.1104C416.257 71.4053 416.51 71.7964 416.699 72.2836C416.888 72.7709 416.982 73.3708 416.982 74.0834V74.5805H411.096V73.5663H415.789C415.789 73.1354 415.703 72.751 415.531 72.4129C415.362 72.0748 415.12 71.808 414.805 71.6125C414.493 71.4169 414.125 71.3192 413.701 71.3192C413.234 71.3192 412.829 71.4352 412.488 71.6672C412.15 71.8959 411.89 72.1942 411.708 72.5621C411.525 72.93 411.434 73.3244 411.434 73.7453V74.4214C411.434 74.9981 411.534 75.487 411.732 75.8881C411.935 76.2858 412.215 76.589 412.573 76.7979C412.931 77.0033 413.347 77.1061 413.82 77.1061C414.129 77.1061 414.407 77.063 414.656 76.9768C414.908 76.8873 415.125 76.7548 415.307 76.5791C415.489 76.4001 415.63 76.1781 415.73 75.9129L416.863 76.2311C416.744 76.6156 416.543 76.9536 416.262 77.2453C415.98 77.5336 415.632 77.759 415.218 77.9214C414.803 78.0805 414.338 78.1601 413.82 78.1601ZM422.088 70.3646V71.3589H418.131V70.3646H422.088ZM419.284 68.5351H420.458V75.8135C420.458 76.1449 420.506 76.3935 420.602 76.5592C420.701 76.7216 420.827 76.831 420.98 76.8873C421.135 76.9404 421.299 76.9669 421.472 76.9669C421.601 76.9669 421.707 76.9603 421.79 76.947C421.873 76.9304 421.939 76.9172 421.989 76.9072L422.227 77.9612C422.148 77.991 422.037 78.0209 421.894 78.0507C421.752 78.0838 421.571 78.1004 421.352 78.1004C421.021 78.1004 420.696 78.0291 420.378 77.8866C420.063 77.7441 419.801 77.527 419.593 77.2354C419.387 76.9437 419.284 76.5758 419.284 76.1317V68.5351Z" fill="#4F5769"/>
<path d="M142.557 106.365V104.819H150.68V106.365H147.533V115.001H145.704V106.365H142.557ZM151.374 115.001V107.365H153.119V108.637H153.199C153.338 108.197 153.576 107.857 153.914 107.618C154.256 107.376 154.645 107.255 155.083 107.255C155.182 107.255 155.293 107.26 155.416 107.27C155.542 107.277 155.646 107.288 155.729 107.305V108.96C155.653 108.934 155.532 108.911 155.366 108.891C155.204 108.868 155.046 108.856 154.894 108.856C154.566 108.856 154.271 108.927 154.009 109.07C153.75 109.209 153.547 109.403 153.397 109.652C153.248 109.9 153.174 110.187 153.174 110.512V115.001H151.374ZM158.276 117.865C158.03 117.865 157.803 117.845 157.595 117.805C157.389 117.768 157.225 117.725 157.102 117.676L157.52 116.274C157.782 116.35 158.016 116.386 158.221 116.383C158.427 116.38 158.607 116.315 158.763 116.189C158.922 116.067 159.056 115.861 159.166 115.573L159.32 115.16L156.551 107.365H158.46L160.22 113.132H160.299L162.064 107.365H163.978L160.921 115.926C160.778 116.33 160.589 116.676 160.354 116.965C160.119 117.256 159.83 117.478 159.489 117.631C159.151 117.787 158.746 117.865 158.276 117.865ZM170.894 115.155C170.41 115.155 169.974 115.069 169.586 114.897C169.202 114.721 168.897 114.462 168.671 114.121C168.449 113.78 168.338 113.359 168.338 112.858C168.338 112.427 168.418 112.071 168.577 111.789C168.736 111.508 168.953 111.282 169.228 111.113C169.503 110.944 169.813 110.817 170.158 110.73C170.506 110.641 170.865 110.576 171.237 110.536C171.684 110.49 172.047 110.449 172.325 110.412C172.604 110.372 172.806 110.313 172.932 110.233C173.061 110.15 173.126 110.023 173.126 109.85V109.821C173.126 109.446 173.015 109.156 172.793 108.951C172.571 108.745 172.251 108.642 171.833 108.642C171.392 108.642 171.043 108.738 170.784 108.931C170.529 109.123 170.357 109.35 170.267 109.612L168.587 109.373C168.719 108.909 168.938 108.521 169.243 108.21C169.548 107.895 169.921 107.66 170.362 107.504C170.802 107.345 171.29 107.265 171.823 107.265C172.191 107.265 172.557 107.308 172.922 107.394C173.287 107.481 173.62 107.623 173.921 107.822C174.223 108.018 174.465 108.284 174.647 108.622C174.833 108.96 174.926 109.383 174.926 109.89V115.001H173.195V113.952H173.136C173.026 114.164 172.872 114.363 172.673 114.549C172.478 114.731 172.231 114.878 171.933 114.991C171.638 115.1 171.291 115.155 170.894 115.155ZM171.361 113.833C171.722 113.833 172.035 113.761 172.301 113.619C172.566 113.473 172.77 113.281 172.912 113.042C173.058 112.804 173.131 112.543 173.131 112.262V111.362C173.075 111.408 172.978 111.451 172.843 111.491C172.71 111.531 172.561 111.566 172.395 111.595C172.229 111.625 172.065 111.652 171.903 111.675C171.74 111.698 171.6 111.718 171.48 111.735C171.212 111.771 170.972 111.831 170.759 111.914C170.547 111.996 170.38 112.112 170.257 112.262C170.135 112.407 170.073 112.596 170.073 112.828C170.073 113.16 170.194 113.41 170.436 113.579C170.678 113.748 170.986 113.833 171.361 113.833ZM180.056 118.024C179.41 118.024 178.855 117.936 178.391 117.76C177.927 117.588 177.554 117.356 177.272 117.064C176.99 116.773 176.795 116.449 176.686 116.095L178.306 115.702C178.379 115.851 178.485 115.999 178.624 116.144C178.764 116.294 178.951 116.416 179.186 116.512C179.425 116.612 179.725 116.661 180.086 116.661C180.597 116.661 181.019 116.537 181.354 116.289C181.689 116.043 181.856 115.639 181.856 115.076V113.629H181.767C181.674 113.814 181.538 114.005 181.359 114.201C181.183 114.396 180.95 114.56 180.658 114.693C180.369 114.825 180.007 114.892 179.569 114.892C178.982 114.892 178.45 114.754 177.973 114.479C177.499 114.201 177.121 113.786 176.84 113.236C176.561 112.683 176.422 111.99 176.422 111.158C176.422 110.319 176.561 109.612 176.84 109.035C177.121 108.455 177.501 108.016 177.978 107.718C178.455 107.416 178.987 107.265 179.574 107.265C180.021 107.265 180.389 107.341 180.678 107.494C180.969 107.643 181.201 107.824 181.374 108.036C181.546 108.245 181.677 108.442 181.767 108.627H181.866V107.365H183.641V115.125C183.641 115.778 183.485 116.318 183.173 116.746C182.862 117.174 182.436 117.493 181.896 117.706C181.356 117.918 180.742 118.024 180.056 118.024ZM180.071 113.48C180.452 113.48 180.777 113.387 181.046 113.201C181.314 113.016 181.518 112.749 181.657 112.401C181.796 112.053 181.866 111.635 181.866 111.148C181.866 110.667 181.796 110.246 181.657 109.885C181.521 109.524 181.319 109.244 181.051 109.045C180.785 108.843 180.459 108.742 180.071 108.742C179.67 108.742 179.335 108.846 179.067 109.055C178.798 109.264 178.596 109.55 178.46 109.915C178.325 110.276 178.257 110.687 178.257 111.148C178.257 111.615 178.325 112.025 178.46 112.376C178.6 112.724 178.803 112.996 179.072 113.191C179.344 113.384 179.677 113.48 180.071 113.48ZM187.683 115.155C187.199 115.155 186.763 115.069 186.375 114.897C185.991 114.721 185.686 114.462 185.46 114.121C185.238 113.78 185.127 113.359 185.127 112.858C185.127 112.427 185.207 112.071 185.366 111.789C185.525 111.508 185.742 111.282 186.017 111.113C186.292 110.944 186.602 110.817 186.947 110.73C187.295 110.641 187.655 110.576 188.026 110.536C188.473 110.49 188.836 110.449 189.115 110.412C189.393 110.372 189.595 110.313 189.721 110.233C189.85 110.15 189.915 110.023 189.915 109.85V109.821C189.915 109.446 189.804 109.156 189.582 108.951C189.36 108.745 189.04 108.642 188.622 108.642C188.182 108.642 187.832 108.738 187.573 108.931C187.318 109.123 187.146 109.35 187.056 109.612L185.376 109.373C185.508 108.909 185.727 108.521 186.032 108.21C186.337 107.895 186.71 107.66 187.151 107.504C187.592 107.345 188.079 107.265 188.612 107.265C188.98 107.265 189.347 107.308 189.711 107.394C190.076 107.481 190.409 107.623 190.71 107.822C191.012 108.018 191.254 108.284 191.436 108.622C191.622 108.96 191.715 109.383 191.715 109.89V115.001H189.985V113.952H189.925C189.816 114.164 189.661 114.363 189.463 114.549C189.267 114.731 189.02 114.878 188.722 114.991C188.427 115.1 188.08 115.155 187.683 115.155ZM188.15 113.833C188.511 113.833 188.825 113.761 189.09 113.619C189.355 113.473 189.559 113.281 189.701 113.042C189.847 112.804 189.92 112.543 189.92 112.262V111.362C189.864 111.408 189.767 111.451 189.632 111.491C189.499 111.531 189.35 111.566 189.184 111.595C189.018 111.625 188.854 111.652 188.692 111.675C188.53 111.698 188.389 111.718 188.269 111.735C188.001 111.771 187.761 111.831 187.548 111.914C187.336 111.996 187.169 112.112 187.046 112.262C186.924 112.407 186.862 112.596 186.862 112.828C186.862 113.16 186.983 113.41 187.225 113.579C187.467 113.748 187.776 113.833 188.15 113.833ZM193.524 115.001V107.365H195.324V115.001H193.524ZM194.429 106.281C194.144 106.281 193.899 106.186 193.693 105.997C193.488 105.805 193.385 105.575 193.385 105.306C193.385 105.035 193.488 104.804 193.693 104.615C193.899 104.423 194.144 104.327 194.429 104.327C194.718 104.327 194.963 104.423 195.165 104.615C195.37 104.804 195.473 105.035 195.473 105.306C195.473 105.575 195.37 105.805 195.165 105.997C194.963 106.186 194.718 106.281 194.429 106.281ZM198.974 110.527V115.001H197.175V107.365H198.895V108.662H198.984C199.16 108.235 199.44 107.895 199.825 107.643C200.212 107.391 200.691 107.265 201.261 107.265C201.788 107.265 202.247 107.378 202.638 107.603C203.033 107.829 203.338 108.155 203.553 108.583C203.772 109.01 203.88 109.529 203.876 110.139V115.001H202.077V110.417C202.077 109.907 201.944 109.507 201.679 109.219C201.417 108.931 201.054 108.786 200.59 108.786C200.275 108.786 199.995 108.856 199.75 108.995C199.508 109.131 199.317 109.328 199.178 109.587C199.042 109.845 198.974 110.159 198.974 110.527Z" fill="#616B7C"/>
<path d="M463 77.001L473 67.001M463 67.001L473 77.001" stroke="#616B7C" stroke-width="1.67" stroke-linecap="round" stroke-linejoin="round"/>
<rect x="54.5" y="46.501" width="439" height="89" rx="3.5" stroke="#F2F2F8"/>
</g>
</g>
<rect x="0.5" y="0.500977" width="469" height="180" rx="16.5" stroke="#F2F2F8"/>
<defs>
<filter id="filter0_d_1154_68723" x="22" y="30.001" width="504" height="154" filterUnits="userSpaceOnUse" color-interpolation-filters="sRGB">
<feFlood flood-opacity="0" result="BackgroundImageFix"/>
<feColorMatrix in="SourceAlpha" type="matrix" values="0 0 0 0 0 0 0 0 0 0 0 0 0 0 0 0 0 0 127 0" result="hardAlpha"/>
<feOffset dy="16"/>
<feGaussianBlur stdDeviation="16"/>
<feColorMatrix type="matrix" values="0 0 0 0 0.215686 0 0 0 0 0.231373 0 0 0 0 0.301961 0 0 0 0.04 0"/>
<feBlend mode="normal" in2="BackgroundImageFix" result="effect1_dropShadow_1154_68723"/>
<feBlend mode="normal" in="SourceGraphic" in2="effect1_dropShadow_1154_68723" result="shape"/>
</filter>
<clipPath id="clip0_1154_68723">
<rect x="1" y="1.00098" width="468" height="179" rx="16" fill="white"/>
</clipPath>
</defs>
</svg>
