<svg width="470" height="173" viewBox="0 0 470 173" fill="none" xmlns="http://www.w3.org/2000/svg">
<g clip-path="url(#clip0_1158_70533)">
<rect x="1" y="1.00195" width="567" height="393" rx="16" fill="#FCFCFF"/>
<g clip-path="url(#clip1_1158_70533)">
<rect width="1725" height="1037" transform="translate(-359 -384.998)" fill="#FCFCFF"/>
<rect x="25" y="78.1318" width="288" height="1" fill="#F2F2F8"/>
<path d="M25 41.002C25 32.1654 32.1634 25.002 41 25.002H313V78.2622H25V41.002Z" fill="white"/>
<path d="M65.0028 46.9051V55.6323H63.7926L59.3565 49.2318H59.2756V55.6323H57.9588V46.9051H59.1776L63.6179 53.3141H63.6989V46.9051H65.0028ZM69.1009 55.6323H67.7031L70.8438 46.9051H72.3651L75.5057 55.6323H74.108L71.6406 48.4903H71.5725L69.1009 55.6323ZM69.3352 52.2147H73.8693V53.3227H69.3352V52.2147ZM78.206 46.9051H79.804L82.5824 53.6891H82.6847L85.4631 46.9051H87.0611V55.6323H85.8083V49.317H85.7273L83.1534 55.6195H82.1137L79.5398 49.3127H79.4588V55.6323H78.206V46.9051ZM90.4155 55.6323V46.9051H95.8871V48.0386H91.7323V50.6977H95.6016V51.8269H91.7323V54.4988H95.9383V55.6323H90.4155Z" fill="#616B7C"/>
<rect x="25" y="158.052" width="288" height="1" fill="#F2F2F8"/>
<rect width="288" height="79.1011" transform="translate(25 79.002)" fill="white"/>
<g clip-path="url(#clip2_1158_70533)">
<rect x="57" y="102.553" width="32" height="32" rx="16" fill="#A1C4FF"/>
<path d="M62.3045 122.553V113.825H65.5005C66.1199 113.825 66.6326 113.928 67.0389 114.132C67.4451 114.334 67.7491 114.608 67.9508 114.955C68.1525 115.298 68.2534 115.686 68.2534 116.118C68.2534 116.482 68.1866 116.789 68.0531 117.039C67.9196 117.286 67.7406 117.485 67.5162 117.635C67.2946 117.783 67.0502 117.891 66.7832 117.959V118.044C67.073 118.058 67.3556 118.152 67.6312 118.325C67.9096 118.496 68.1397 118.739 68.3216 119.054C68.5034 119.369 68.5943 119.753 68.5943 120.205C68.5943 120.651 68.4892 121.051 68.2789 121.406C68.0716 121.759 67.7505 122.039 67.3159 122.246C66.8812 122.45 66.3258 122.553 65.6497 122.553H62.3045ZM63.6213 121.423H65.5218C66.1525 121.423 66.6042 121.301 66.877 121.057C67.1497 120.813 67.286 120.507 67.286 120.141C67.286 119.865 67.2164 119.612 67.0772 119.382C66.938 119.152 66.7392 118.969 66.4806 118.833C66.225 118.696 65.921 118.628 65.5687 118.628H63.6213V121.423ZM63.6213 117.601H65.3855C65.6809 117.601 65.9466 117.544 66.1824 117.431C66.421 117.317 66.6099 117.158 66.7491 116.953C66.8912 116.746 66.9622 116.502 66.9622 116.22C66.9622 115.86 66.8358 115.557 66.5829 115.313C66.3301 115.068 65.9423 114.946 65.4196 114.946H63.6213V117.601ZM74.916 116.118C74.8706 115.715 74.6831 115.402 74.3535 115.181C74.024 114.956 73.6092 114.844 73.1092 114.844C72.7512 114.844 72.4416 114.901 72.1802 115.014C71.9189 115.125 71.7157 115.279 71.5708 115.475C71.4288 115.668 71.3578 115.888 71.3578 116.135C71.3578 116.343 71.4061 116.521 71.5027 116.672C71.6021 116.823 71.7314 116.949 71.8904 117.051C72.0524 117.151 72.2257 117.235 72.4103 117.303C72.595 117.368 72.7725 117.422 72.943 117.465L73.7953 117.686C74.0737 117.754 74.3592 117.847 74.6518 117.963C74.9444 118.08 75.2157 118.233 75.4657 118.423C75.7157 118.614 75.9174 118.85 76.0708 119.131C76.2271 119.412 76.3052 119.749 76.3052 120.141C76.3052 120.635 76.1774 121.074 75.9217 121.458C75.6689 121.841 75.301 122.144 74.818 122.365C74.3379 122.587 73.7569 122.698 73.0751 122.698C72.4217 122.698 71.8564 122.594 71.3791 122.387C70.9018 122.179 70.5282 121.885 70.2583 121.504C69.9885 121.121 69.8393 120.666 69.8109 120.141H71.1319C71.1575 120.456 71.2598 120.719 71.4387 120.929C71.6206 121.137 71.8521 121.291 72.1333 121.394C72.4174 121.493 72.7285 121.543 73.0666 121.543C73.4387 121.543 73.7697 121.485 74.0595 121.368C74.3521 121.249 74.5822 121.084 74.7498 120.874C74.9174 120.661 75.0012 120.412 75.0012 120.128C75.0012 119.869 74.9274 119.658 74.7797 119.493C74.6348 119.328 74.4373 119.192 74.1873 119.084C73.9402 118.976 73.6603 118.881 73.3478 118.798L72.3166 118.517C71.6177 118.327 71.0637 118.047 70.6547 117.678C70.2484 117.308 70.0453 116.82 70.0453 116.212C70.0453 115.709 70.1816 115.27 70.4544 114.895C70.7271 114.52 71.0964 114.229 71.5623 114.021C72.0282 113.811 72.5538 113.706 73.139 113.706C73.7299 113.706 74.2512 113.81 74.7029 114.017C75.1575 114.225 75.5154 114.51 75.7768 114.874C76.0382 115.235 76.1745 115.649 76.1859 116.118H74.916ZM77.8787 122.553V113.825H80.9895C81.6657 113.825 82.2267 113.942 82.6728 114.175C83.1216 114.408 83.4569 114.73 83.6784 115.142C83.9 115.551 84.0108 116.024 84.0108 116.561C84.0108 117.095 83.8986 117.566 83.6742 117.972C83.4526 118.375 83.1174 118.689 82.6685 118.914C82.2225 119.138 81.6614 119.25 80.9853 119.25H78.6287V118.117H80.8659C81.2921 118.117 81.6387 118.056 81.9057 117.933C82.1756 117.811 82.373 117.634 82.498 117.401C82.623 117.168 82.6855 116.888 82.6855 116.561C82.6855 116.232 82.6216 115.946 82.4938 115.705C82.3688 115.463 82.1713 115.279 81.9015 115.151C81.6344 115.02 81.2836 114.955 80.8489 114.955H79.1955V122.553H77.8787ZM82.187 118.615L84.3432 122.553H82.8432L80.7296 118.615H82.187Z" fill="white"/>
</g>
<path d="M102.233 124.053V113.871H105.793C106.502 113.871 107.087 113.994 107.548 114.239C108.008 114.481 108.351 114.807 108.577 115.218C108.802 115.626 108.915 116.078 108.915 116.575C108.915 117.013 108.837 117.374 108.681 117.659C108.529 117.944 108.326 118.17 108.075 118.335C107.826 118.501 107.556 118.624 107.264 118.703V118.803C107.576 118.823 107.889 118.932 108.204 119.131C108.519 119.33 108.782 119.615 108.994 119.986C109.206 120.357 109.312 120.811 109.312 121.348C109.312 121.859 109.196 122.318 108.964 122.725C108.732 123.133 108.366 123.456 107.866 123.695C107.365 123.933 106.714 124.053 105.912 124.053H102.233ZM103.466 122.959H105.912C106.717 122.959 107.289 122.803 107.627 122.492C107.969 122.177 108.139 121.796 108.139 121.348C108.139 121.003 108.051 120.685 107.876 120.394C107.7 120.099 107.45 119.863 107.125 119.688C106.8 119.509 106.416 119.419 105.972 119.419H103.466V122.959ZM103.466 118.345H105.753C106.124 118.345 106.459 118.272 106.757 118.127C107.059 117.981 107.297 117.775 107.473 117.51C107.652 117.245 107.741 116.933 107.741 116.575C107.741 116.128 107.586 115.749 107.274 115.437C106.963 115.122 106.469 114.965 105.793 114.965H103.466V118.345ZM111.179 124.053V116.416H112.313V117.57H112.392C112.532 117.192 112.783 116.885 113.148 116.65C113.513 116.415 113.924 116.297 114.381 116.297C114.467 116.297 114.575 116.299 114.704 116.302C114.833 116.305 114.931 116.31 114.998 116.317V117.51C114.958 117.5 114.867 117.485 114.724 117.465C114.585 117.442 114.437 117.431 114.282 117.431C113.91 117.431 113.579 117.508 113.287 117.664C112.999 117.817 112.77 118.029 112.601 118.301C112.435 118.569 112.353 118.876 112.353 119.22V124.053H111.179ZM119.258 124.212C118.569 124.212 117.964 124.048 117.444 123.72C116.926 123.392 116.522 122.932 116.23 122.343C115.942 121.753 115.798 121.063 115.798 120.274C115.798 119.479 115.942 118.785 116.23 118.191C116.522 117.598 116.926 117.137 117.444 116.809C117.964 116.481 118.569 116.317 119.258 116.317C119.948 116.317 120.551 116.481 121.068 116.809C121.588 117.137 121.993 117.598 122.281 118.191C122.573 118.785 122.718 119.479 122.718 120.274C122.718 121.063 122.573 121.753 122.281 122.343C121.993 122.932 121.588 123.392 121.068 123.72C120.551 124.048 119.948 124.212 119.258 124.212ZM119.258 123.158C119.782 123.158 120.213 123.024 120.551 122.755C120.889 122.487 121.139 122.134 121.301 121.696C121.464 121.259 121.545 120.785 121.545 120.274C121.545 119.764 121.464 119.288 121.301 118.847C121.139 118.407 120.889 118.05 120.551 117.779C120.213 117.507 119.782 117.371 119.258 117.371C118.734 117.371 118.304 117.507 117.966 117.779C117.627 118.05 117.377 118.407 117.215 118.847C117.052 119.288 116.971 119.764 116.971 120.274C116.971 120.785 117.052 121.259 117.215 121.696C117.377 122.134 117.627 122.487 117.966 122.755C118.304 123.024 118.734 123.158 119.258 123.158ZM127.612 124.212C126.922 124.212 126.317 124.048 125.797 123.72C125.28 123.392 124.876 122.932 124.584 122.343C124.296 121.753 124.151 121.063 124.151 120.274C124.151 119.479 124.296 118.785 124.584 118.191C124.876 117.598 125.28 117.137 125.797 116.809C126.317 116.481 126.922 116.317 127.612 116.317C128.301 116.317 128.904 116.481 129.421 116.809C129.942 117.137 130.346 117.598 130.634 118.191C130.926 118.785 131.072 119.479 131.072 120.274C131.072 121.063 130.926 121.753 130.634 122.343C130.346 122.932 129.942 123.392 129.421 123.72C128.904 124.048 128.301 124.212 127.612 124.212ZM127.612 123.158C128.135 123.158 128.566 123.024 128.904 122.755C129.242 122.487 129.493 122.134 129.655 121.696C129.817 121.259 129.899 120.785 129.899 120.274C129.899 119.764 129.817 119.288 129.655 118.847C129.493 118.407 129.242 118.05 128.904 117.779C128.566 117.507 128.135 117.371 127.612 117.371C127.088 117.371 126.657 117.507 126.319 117.779C125.981 118.05 125.731 118.407 125.568 118.847C125.406 119.288 125.325 119.764 125.325 120.274C125.325 120.785 125.406 121.259 125.568 121.696C125.731 122.134 125.981 122.487 126.319 122.755C126.657 123.024 127.088 123.158 127.612 123.158ZM133.957 121.269L133.937 119.817H134.175L137.516 116.416H138.968L135.408 120.016H135.309L133.957 121.269ZM132.863 124.053V113.871H134.036V124.053H132.863ZM137.715 124.053L134.732 120.274L135.567 119.459L139.207 124.053H137.715ZM141.651 113.871V124.053H140.478V113.871H141.651ZM144.556 126.916C144.357 126.916 144.18 126.9 144.024 126.867C143.868 126.837 143.761 126.807 143.701 126.777L143.999 125.743C144.284 125.816 144.536 125.843 144.755 125.823C144.974 125.803 145.168 125.705 145.337 125.529C145.509 125.357 145.666 125.077 145.809 124.689L146.028 124.093L143.204 116.416H144.477L146.585 122.502H146.664L148.772 116.416H150.045L146.803 125.166C146.657 125.561 146.477 125.887 146.261 126.146C146.046 126.408 145.796 126.602 145.511 126.727C145.229 126.853 144.911 126.916 144.556 126.916ZM152.767 119.459V124.053H151.593V116.416H152.727V117.61H152.826C153.005 117.222 153.277 116.91 153.642 116.675C154.006 116.436 154.477 116.317 155.054 116.317C155.571 116.317 156.023 116.423 156.411 116.635C156.799 116.844 157.1 117.162 157.316 117.59C157.531 118.014 157.639 118.551 157.639 119.2V124.053H156.466V119.28C156.466 118.68 156.31 118.213 155.998 117.878C155.687 117.54 155.259 117.371 154.716 117.371C154.341 117.371 154.006 117.452 153.711 117.615C153.42 117.777 153.189 118.014 153.02 118.325C152.851 118.637 152.767 119.015 152.767 119.459ZM169.448 116.416C169.388 115.913 169.146 115.521 168.722 115.243C168.298 114.965 167.777 114.825 167.161 114.825C166.71 114.825 166.316 114.898 165.977 115.044C165.643 115.19 165.381 115.391 165.192 115.646C165.006 115.901 164.914 116.191 164.914 116.516C164.914 116.788 164.978 117.021 165.107 117.217C165.24 117.409 165.409 117.57 165.615 117.699C165.82 117.825 166.035 117.929 166.261 118.012C166.486 118.092 166.693 118.156 166.882 118.206L167.916 118.485C168.182 118.554 168.477 118.65 168.801 118.773C169.129 118.896 169.443 119.063 169.741 119.275C170.043 119.484 170.291 119.752 170.487 120.08C170.682 120.409 170.78 120.811 170.78 121.289C170.78 121.839 170.636 122.336 170.347 122.78C170.062 123.224 169.645 123.577 169.095 123.839C168.548 124.101 167.883 124.232 167.101 124.232C166.372 124.232 165.74 124.114 165.207 123.879C164.677 123.643 164.259 123.315 163.954 122.894C163.652 122.473 163.482 121.985 163.442 121.428H164.715C164.748 121.812 164.877 122.13 165.102 122.382C165.331 122.631 165.619 122.816 165.968 122.939C166.319 123.058 166.697 123.118 167.101 123.118C167.572 123.118 167.994 123.042 168.369 122.889C168.743 122.734 169.04 122.518 169.259 122.243C169.477 121.965 169.587 121.64 169.587 121.269C169.587 120.931 169.492 120.655 169.303 120.443C169.115 120.231 168.866 120.059 168.558 119.926C168.249 119.794 167.916 119.678 167.558 119.578L166.306 119.22C165.51 118.992 164.88 118.665 164.416 118.241C163.952 117.817 163.72 117.262 163.72 116.575C163.72 116.005 163.874 115.508 164.183 115.084C164.494 114.656 164.912 114.325 165.436 114.09C165.963 113.851 166.551 113.732 167.2 113.732C167.857 113.732 168.44 113.849 168.95 114.085C169.461 114.317 169.865 114.635 170.164 115.039C170.465 115.444 170.624 115.903 170.641 116.416H169.448ZM172.648 124.053V116.416H173.821V124.053H172.648ZM173.245 115.144C173.016 115.144 172.819 115.066 172.653 114.91C172.491 114.754 172.409 114.567 172.409 114.348C172.409 114.129 172.491 113.942 172.653 113.786C172.819 113.631 173.016 113.553 173.245 113.553C173.473 113.553 173.669 113.631 173.831 113.786C173.997 113.942 174.08 114.129 174.08 114.348C174.08 114.567 173.997 114.754 173.831 114.91C173.669 115.066 173.473 115.144 173.245 115.144ZM175.97 124.053V116.416H177.104V117.61H177.203C177.362 117.202 177.619 116.885 177.974 116.66C178.329 116.431 178.754 116.317 179.252 116.317C179.755 116.317 180.175 116.431 180.509 116.66C180.847 116.885 181.111 117.202 181.3 117.61H181.379C181.575 117.215 181.868 116.902 182.259 116.67C182.651 116.435 183.119 116.317 183.666 116.317C184.349 116.317 184.908 116.531 185.342 116.958C185.776 117.383 185.993 118.044 185.993 118.942V124.053H184.82V118.942C184.82 118.378 184.666 117.976 184.357 117.734C184.049 117.492 183.686 117.371 183.269 117.371C182.732 117.371 182.316 117.533 182.021 117.858C181.726 118.18 181.578 118.587 181.578 119.081V124.053H180.385V118.823C180.385 118.388 180.244 118.039 179.963 117.774C179.681 117.505 179.318 117.371 178.874 117.371C178.569 117.371 178.284 117.452 178.019 117.615C177.757 117.777 177.545 118.002 177.382 118.291C177.223 118.576 177.144 118.905 177.144 119.28V124.053H175.97ZM188.138 124.053V116.416H189.272V117.61H189.371C189.53 117.202 189.787 116.885 190.142 116.66C190.497 116.431 190.922 116.317 191.42 116.317C191.923 116.317 192.343 116.431 192.677 116.66C193.015 116.885 193.279 117.202 193.468 117.61H193.547C193.743 117.215 194.036 116.902 194.427 116.67C194.818 116.435 195.287 116.317 195.834 116.317C196.517 116.317 197.076 116.531 197.51 116.958C197.944 117.383 198.161 118.044 198.161 118.942V124.053H196.988V118.942C196.988 118.378 196.834 117.976 196.525 117.734C196.217 117.492 195.854 117.371 195.437 117.371C194.9 117.371 194.484 117.533 194.189 117.858C193.894 118.18 193.746 118.587 193.746 119.081V124.053H192.553V118.823C192.553 118.388 192.412 118.039 192.131 117.774C191.849 117.505 191.486 117.371 191.042 117.371C190.737 117.371 190.452 117.452 190.187 117.615C189.925 117.777 189.713 118.002 189.55 118.291C189.391 118.576 189.312 118.905 189.312 119.28V124.053H188.138ZM203.409 124.212C202.719 124.212 202.114 124.048 201.594 123.72C201.077 123.392 200.673 122.932 200.381 122.343C200.093 121.753 199.948 121.063 199.948 120.274C199.948 119.479 200.093 118.785 200.381 118.191C200.673 117.598 201.077 117.137 201.594 116.809C202.114 116.481 202.719 116.317 203.409 116.317C204.098 116.317 204.701 116.481 205.218 116.809C205.739 117.137 206.143 117.598 206.431 118.191C206.723 118.785 206.869 119.479 206.869 120.274C206.869 121.063 206.723 121.753 206.431 122.343C206.143 122.932 205.739 123.392 205.218 123.72C204.701 124.048 204.098 124.212 203.409 124.212ZM203.409 123.158C203.932 123.158 204.363 123.024 204.701 122.755C205.039 122.487 205.289 122.134 205.452 121.696C205.614 121.259 205.695 120.785 205.695 120.274C205.695 119.764 205.614 119.288 205.452 118.847C205.289 118.407 205.039 118.05 204.701 117.779C204.363 117.507 203.932 117.371 203.409 117.371C202.885 117.371 202.454 117.507 202.116 117.779C201.778 118.05 201.528 118.407 201.365 118.847C201.203 119.288 201.122 119.764 201.122 120.274C201.122 120.785 201.203 121.259 201.365 121.696C201.528 122.134 201.778 122.487 202.116 122.755C202.454 123.024 202.885 123.158 203.409 123.158ZM209.833 119.459V124.053H208.66V116.416H209.793V117.61H209.893C210.072 117.222 210.344 116.91 210.708 116.675C211.073 116.436 211.543 116.317 212.12 116.317C212.637 116.317 213.089 116.423 213.477 116.635C213.865 116.844 214.167 117.162 214.382 117.59C214.598 118.014 214.705 118.551 214.705 119.2V124.053H213.532V119.28C213.532 118.68 213.376 118.213 213.065 117.878C212.753 117.54 212.326 117.371 211.782 117.371C211.407 117.371 211.073 117.452 210.778 117.615C210.486 117.777 210.256 118.014 210.087 118.325C209.918 118.637 209.833 119.015 209.833 119.459ZM222.258 118.127L221.204 118.425C221.138 118.249 221.04 118.079 220.911 117.913C220.785 117.744 220.613 117.605 220.394 117.495C220.175 117.386 219.895 117.331 219.554 117.331C219.086 117.331 218.697 117.439 218.385 117.654C218.077 117.866 217.923 118.137 217.923 118.465C217.923 118.756 218.029 118.987 218.241 119.156C218.453 119.325 218.785 119.466 219.236 119.578L220.369 119.857C221.052 120.022 221.561 120.276 221.895 120.617C222.23 120.955 222.398 121.391 222.398 121.925C222.398 122.362 222.272 122.753 222.02 123.098C221.771 123.443 221.423 123.715 220.976 123.914C220.528 124.112 220.008 124.212 219.415 124.212C218.636 124.212 217.991 124.043 217.481 123.705C216.97 123.367 216.647 122.873 216.511 122.223L217.625 121.945C217.731 122.356 217.931 122.664 218.226 122.869C218.525 123.075 218.914 123.178 219.395 123.178C219.942 123.178 220.376 123.062 220.697 122.83C221.022 122.594 221.184 122.313 221.184 121.985C221.184 121.719 221.092 121.497 220.906 121.318C220.72 121.136 220.435 121 220.051 120.911L218.778 120.612C218.079 120.447 217.565 120.19 217.237 119.842C216.912 119.49 216.75 119.051 216.75 118.524C216.75 118.093 216.871 117.712 217.113 117.381C217.358 117.049 217.691 116.789 218.112 116.6C218.536 116.411 219.017 116.317 219.554 116.317C220.309 116.317 220.903 116.483 221.334 116.814C221.768 117.146 222.076 117.583 222.258 118.127ZM228.26 124.053V113.871H231.701C232.496 113.871 233.149 114.007 233.659 114.279C234.17 114.547 234.548 114.917 234.793 115.387C235.038 115.858 235.161 116.393 235.161 116.993C235.161 117.593 235.038 118.125 234.793 118.589C234.548 119.053 234.172 119.418 233.664 119.683C233.157 119.945 232.509 120.075 231.721 120.075H228.936V118.962H231.681C232.224 118.962 232.662 118.882 232.993 118.723C233.328 118.564 233.57 118.339 233.719 118.047C233.872 117.752 233.948 117.401 233.948 116.993C233.948 116.585 233.872 116.229 233.719 115.924C233.567 115.619 233.323 115.384 232.988 115.218C232.654 115.049 232.211 114.965 231.661 114.965H229.493V124.053H228.26ZM233.053 119.479L235.559 124.053H234.127L231.661 119.479H233.053ZM240.077 124.212C239.387 124.212 238.782 124.048 238.262 123.72C237.745 123.392 237.34 122.932 237.049 122.343C236.76 121.753 236.616 121.063 236.616 120.274C236.616 119.479 236.76 118.785 237.049 118.191C237.34 117.598 237.745 117.137 238.262 116.809C238.782 116.481 239.387 116.317 240.077 116.317C240.766 116.317 241.369 116.481 241.886 116.809C242.407 117.137 242.811 117.598 243.099 118.191C243.391 118.785 243.537 119.479 243.537 120.274C243.537 121.063 243.391 121.753 243.099 122.343C242.811 122.932 242.407 123.392 241.886 123.72C241.369 124.048 240.766 124.212 240.077 124.212ZM240.077 123.158C240.6 123.158 241.031 123.024 241.369 122.755C241.707 122.487 241.957 122.134 242.12 121.696C242.282 121.259 242.363 120.785 242.363 120.274C242.363 119.764 242.282 119.288 242.12 118.847C241.957 118.407 241.707 118.05 241.369 117.779C241.031 117.507 240.6 117.371 240.077 117.371C239.553 117.371 239.122 117.507 238.784 117.779C238.446 118.05 238.196 118.407 238.033 118.847C237.871 119.288 237.79 119.764 237.79 120.274C237.79 120.785 237.871 121.259 238.033 121.696C238.196 122.134 238.446 122.487 238.784 122.755C239.122 123.024 239.553 123.158 240.077 123.158ZM245.487 124.053V113.871H246.66V117.629H246.76C246.846 117.497 246.965 117.328 247.118 117.122C247.273 116.914 247.495 116.728 247.784 116.566C248.075 116.4 248.47 116.317 248.967 116.317C249.61 116.317 250.177 116.478 250.667 116.799C251.158 117.121 251.541 117.576 251.816 118.166C252.091 118.756 252.228 119.452 252.228 120.254C252.228 121.063 252.091 121.764 251.816 122.357C251.541 122.947 251.159 123.405 250.672 123.73C250.185 124.051 249.623 124.212 248.987 124.212C248.496 124.212 248.104 124.131 247.809 123.968C247.514 123.802 247.287 123.615 247.127 123.406C246.968 123.194 246.846 123.019 246.76 122.879H246.62V124.053H245.487ZM246.64 120.235C246.64 120.811 246.725 121.32 246.894 121.761C247.063 122.198 247.31 122.541 247.635 122.79C247.959 123.035 248.357 123.158 248.828 123.158C249.318 123.158 249.728 123.029 250.056 122.77C250.387 122.508 250.636 122.157 250.801 121.716C250.971 121.272 251.055 120.778 251.055 120.235C251.055 119.698 250.972 119.214 250.806 118.783C250.644 118.349 250.397 118.006 250.066 117.754C249.738 117.499 249.325 117.371 248.828 117.371C248.35 117.371 247.949 117.492 247.625 117.734C247.3 117.972 247.055 118.307 246.889 118.738C246.723 119.166 246.64 119.664 246.64 120.235ZM257.225 124.212C256.489 124.212 255.854 124.049 255.321 123.725C254.79 123.396 254.381 122.939 254.093 122.352C253.808 121.762 253.665 121.076 253.665 120.294C253.665 119.512 253.808 118.823 254.093 118.226C254.381 117.626 254.782 117.159 255.296 116.824C255.813 116.486 256.416 116.317 257.105 116.317C257.503 116.317 257.896 116.383 258.284 116.516C258.672 116.648 259.025 116.864 259.343 117.162C259.661 117.457 259.914 117.848 260.103 118.335C260.292 118.823 260.387 119.423 260.387 120.135V120.632H254.5V119.618H259.194C259.194 119.187 259.107 118.803 258.935 118.465C258.766 118.127 258.524 117.86 258.209 117.664C257.898 117.469 257.53 117.371 257.105 117.371C256.638 117.371 256.234 117.487 255.892 117.719C255.554 117.948 255.294 118.246 255.112 118.614C254.93 118.982 254.838 119.376 254.838 119.797V120.473C254.838 121.05 254.938 121.539 255.137 121.94C255.339 122.338 255.619 122.641 255.977 122.85C256.335 123.055 256.751 123.158 257.225 123.158C257.533 123.158 257.811 123.115 258.06 123.029C258.312 122.939 258.529 122.807 258.711 122.631C258.894 122.452 259.034 122.23 259.134 121.965L260.267 122.283C260.148 122.667 259.948 123.005 259.666 123.297C259.384 123.585 259.036 123.811 258.622 123.973C258.208 124.132 257.742 124.212 257.225 124.212ZM262.172 124.053V116.416H263.305V117.57H263.385C263.524 117.192 263.776 116.885 264.14 116.65C264.505 116.415 264.916 116.297 265.373 116.297C265.459 116.297 265.567 116.299 265.696 116.302C265.826 116.305 265.923 116.31 265.99 116.317V117.51C265.95 117.5 265.859 117.485 265.716 117.465C265.577 117.442 265.43 117.431 265.274 117.431C264.903 117.431 264.571 117.508 264.279 117.664C263.991 117.817 263.762 118.029 263.593 118.301C263.428 118.569 263.345 118.876 263.345 119.22V124.053H262.172ZM271.18 116.416V117.411H267.223V116.416H271.18ZM268.376 114.587H269.549V121.865C269.549 122.197 269.597 122.445 269.694 122.611C269.793 122.773 269.919 122.883 270.071 122.939C270.227 122.992 270.391 123.019 270.564 123.019C270.693 123.019 270.799 123.012 270.882 122.999C270.965 122.982 271.031 122.969 271.081 122.959L271.319 124.013C271.24 124.043 271.129 124.073 270.986 124.102C270.844 124.136 270.663 124.152 270.444 124.152C270.113 124.152 269.788 124.081 269.47 123.938C269.155 123.796 268.893 123.579 268.684 123.287C268.479 122.995 268.376 122.628 268.376 122.183V114.587ZM278.217 118.127L277.163 118.425C277.097 118.249 276.999 118.079 276.87 117.913C276.744 117.744 276.572 117.605 276.353 117.495C276.134 117.386 275.854 117.331 275.513 117.331C275.045 117.331 274.656 117.439 274.344 117.654C274.036 117.866 273.882 118.137 273.882 118.465C273.882 118.756 273.988 118.987 274.2 119.156C274.412 119.325 274.744 119.466 275.195 119.578L276.328 119.857C277.011 120.022 277.52 120.276 277.854 120.617C278.189 120.955 278.357 121.391 278.357 121.925C278.357 122.362 278.231 122.753 277.979 123.098C277.73 123.443 277.382 123.715 276.935 123.914C276.487 124.112 275.967 124.212 275.374 124.212C274.595 124.212 273.95 124.043 273.44 123.705C272.929 123.367 272.606 122.873 272.47 122.223L273.584 121.945C273.69 122.356 273.89 122.664 274.185 122.869C274.484 123.075 274.873 123.178 275.354 123.178C275.901 123.178 276.335 123.062 276.656 122.83C276.981 122.594 277.143 122.313 277.143 121.985C277.143 121.719 277.051 121.497 276.865 121.318C276.679 121.136 276.394 121 276.01 120.911L274.737 120.612C274.038 120.447 273.524 120.19 273.196 119.842C272.871 119.49 272.709 119.051 272.709 118.524C272.709 118.093 272.83 117.712 273.072 117.381C273.317 117.049 273.65 116.789 274.071 116.6C274.495 116.411 274.976 116.317 275.513 116.317C276.268 116.317 276.862 116.483 277.293 116.814C277.727 117.146 278.035 117.583 278.217 118.127Z" fill="#616B7C"/>
<rect width="288" height="79.1011" transform="translate(25 159.002)" fill="white"/>
<rect x="313" y="78.1318" width="288" height="1" fill="#F2F2F8"/>
<path d="M313 25.002H601V78.2622H313V25.002Z" fill="white"/>
<path d="M345.959 55.6323V46.9051H351.43V48.0386H347.276V50.6977H351.145V51.8269H347.276V54.4988H351.482V55.6323H345.959ZM354.629 46.9051H356.227L359.006 53.6891H359.108L361.886 46.9051H363.484V55.6323H362.232V49.317H362.151L359.577 55.6195H358.537L355.963 49.3127H355.882V55.6323H354.629V46.9051ZM367.576 55.6323H366.178L369.319 46.9051H370.84L373.981 55.6323H372.583L370.116 48.4903H370.048L367.576 55.6323ZM367.81 52.2147H372.344V53.3227H367.81V52.2147ZM377.998 46.9051V55.6323H376.681V46.9051H377.998ZM381.356 55.6323V46.9051H382.672V54.4988H386.627V55.6323H381.356Z" fill="#616B7C"/>
<rect x="313" y="158.052" width="288" height="1" fill="#F2F2F8"/>
<rect width="288" height="79.1011" transform="translate(313 79.002)" fill="white"/>
<path d="M346.233 124.053V113.871H347.406V117.629H347.506C347.592 117.497 347.711 117.328 347.864 117.122C348.019 116.914 348.241 116.728 348.53 116.566C348.821 116.4 349.216 116.317 349.713 116.317C350.356 116.317 350.923 116.478 351.413 116.799C351.904 117.121 352.287 117.576 352.562 118.166C352.837 118.756 352.974 119.452 352.974 120.254C352.974 121.063 352.837 121.764 352.562 122.357C352.287 122.947 351.906 123.405 351.418 123.73C350.931 124.051 350.369 124.212 349.733 124.212C349.242 124.212 348.85 124.131 348.555 123.968C348.26 123.802 348.033 123.615 347.874 123.406C347.714 123.194 347.592 123.019 347.506 122.879H347.366V124.053H346.233ZM347.386 120.235C347.386 120.811 347.471 121.32 347.64 121.761C347.809 122.198 348.056 122.541 348.381 122.79C348.705 123.035 349.103 123.158 349.574 123.158C350.064 123.158 350.474 123.029 350.802 122.77C351.133 122.508 351.382 122.157 351.548 121.716C351.717 121.272 351.801 120.778 351.801 120.235C351.801 119.698 351.718 119.214 351.553 118.783C351.39 118.349 351.143 118.006 350.812 117.754C350.484 117.499 350.071 117.371 349.574 117.371C349.097 117.371 348.696 117.492 348.371 117.734C348.046 117.972 347.801 118.307 347.635 118.738C347.469 119.166 347.386 119.664 347.386 120.235ZM354.769 124.053V116.416H355.903V117.57H355.982C356.121 117.192 356.373 116.885 356.738 116.65C357.103 116.415 357.513 116.297 357.971 116.297C358.057 116.297 358.165 116.299 358.294 116.302C358.423 116.305 358.521 116.31 358.587 116.317V117.51C358.548 117.5 358.456 117.485 358.314 117.465C358.175 117.442 358.027 117.431 357.871 117.431C357.5 117.431 357.169 117.508 356.877 117.664C356.589 117.817 356.36 118.029 356.191 118.301C356.025 118.569 355.942 118.876 355.942 119.22V124.053H354.769ZM362.848 124.212C362.159 124.212 361.554 124.048 361.033 123.72C360.516 123.392 360.112 122.932 359.82 122.343C359.532 121.753 359.388 121.063 359.388 120.274C359.388 119.479 359.532 118.785 359.82 118.191C360.112 117.598 360.516 117.137 361.033 116.809C361.554 116.481 362.159 116.317 362.848 116.317C363.537 116.317 364.141 116.481 364.658 116.809C365.178 117.137 365.582 117.598 365.871 118.191C366.162 118.785 366.308 119.479 366.308 120.274C366.308 121.063 366.162 121.753 365.871 122.343C365.582 122.932 365.178 123.392 364.658 123.72C364.141 124.048 363.537 124.212 362.848 124.212ZM362.848 123.158C363.372 123.158 363.803 123.024 364.141 122.755C364.479 122.487 364.729 122.134 364.891 121.696C365.054 121.259 365.135 120.785 365.135 120.274C365.135 119.764 365.054 119.288 364.891 118.847C364.729 118.407 364.479 118.05 364.141 117.779C363.803 117.507 363.372 117.371 362.848 117.371C362.324 117.371 361.893 117.507 361.555 117.779C361.217 118.05 360.967 118.407 360.805 118.847C360.642 119.288 360.561 119.764 360.561 120.274C360.561 120.785 360.642 121.259 360.805 121.696C360.967 122.134 361.217 122.487 361.555 122.755C361.893 123.024 362.324 123.158 362.848 123.158ZM371.202 124.212C370.512 124.212 369.907 124.048 369.387 123.72C368.87 123.392 368.465 122.932 368.174 122.343C367.885 121.753 367.741 121.063 367.741 120.274C367.741 119.479 367.885 118.785 368.174 118.191C368.465 117.598 368.87 117.137 369.387 116.809C369.907 116.481 370.512 116.317 371.202 116.317C371.891 116.317 372.494 116.481 373.011 116.809C373.532 117.137 373.936 117.598 374.224 118.191C374.516 118.785 374.662 119.479 374.662 120.274C374.662 121.063 374.516 121.753 374.224 122.343C373.936 122.932 373.532 123.392 373.011 123.72C372.494 124.048 371.891 124.212 371.202 124.212ZM371.202 123.158C371.725 123.158 372.156 123.024 372.494 122.755C372.832 122.487 373.082 122.134 373.245 121.696C373.407 121.259 373.488 120.785 373.488 120.274C373.488 119.764 373.407 119.288 373.245 118.847C373.082 118.407 372.832 118.05 372.494 117.779C372.156 117.507 371.725 117.371 371.202 117.371C370.678 117.371 370.247 117.507 369.909 117.779C369.571 118.05 369.321 118.407 369.158 118.847C368.996 119.288 368.915 119.764 368.915 120.274C368.915 120.785 368.996 121.259 369.158 121.696C369.321 122.134 369.571 122.487 369.909 122.755C370.247 123.024 370.678 123.158 371.202 123.158ZM377.547 121.269L377.527 119.817H377.765L381.106 116.416H382.558L378.998 120.016H378.899L377.547 121.269ZM376.453 124.053V113.871H377.626V124.053H376.453ZM381.305 124.053L378.322 120.274L379.157 119.459L382.797 124.053H381.305ZM384.923 124.132C384.678 124.132 384.467 124.044 384.292 123.869C384.116 123.693 384.028 123.483 384.028 123.237C384.028 122.992 384.116 122.782 384.292 122.606C384.467 122.43 384.678 122.343 384.923 122.343C385.168 122.343 385.379 122.43 385.555 122.606C385.73 122.782 385.818 122.992 385.818 123.237C385.818 123.4 385.777 123.549 385.694 123.685C385.614 123.821 385.506 123.93 385.371 124.013C385.238 124.093 385.089 124.132 384.923 124.132ZM393.333 118.127L392.279 118.425C392.212 118.249 392.115 118.079 391.985 117.913C391.859 117.744 391.687 117.605 391.468 117.495C391.249 117.386 390.969 117.331 390.628 117.331C390.161 117.331 389.771 117.439 389.46 117.654C389.151 117.866 388.997 118.137 388.997 118.465C388.997 118.756 389.103 118.987 389.316 119.156C389.528 119.325 389.859 119.466 390.31 119.578L391.443 119.857C392.126 120.022 392.635 120.276 392.97 120.617C393.304 120.955 393.472 121.391 393.472 121.925C393.472 122.362 393.346 122.753 393.094 123.098C392.845 123.443 392.497 123.715 392.05 123.914C391.602 124.112 391.082 124.212 390.489 124.212C389.71 124.212 389.065 124.043 388.555 123.705C388.044 123.367 387.721 122.873 387.585 122.223L388.699 121.945C388.805 122.356 389.006 122.664 389.301 122.869C389.599 123.075 389.988 123.178 390.469 123.178C391.016 123.178 391.45 123.062 391.771 122.83C392.096 122.594 392.259 122.313 392.259 121.985C392.259 121.719 392.166 121.497 391.98 121.318C391.795 121.136 391.51 121 391.125 120.911L389.852 120.612C389.153 120.447 388.639 120.19 388.311 119.842C387.986 119.49 387.824 119.051 387.824 118.524C387.824 118.093 387.945 117.712 388.187 117.381C388.432 117.049 388.765 116.789 389.186 116.6C389.61 116.411 390.091 116.317 390.628 116.317C391.384 116.317 391.977 116.483 392.408 116.814C392.842 117.146 393.15 117.583 393.333 118.127ZM395.238 124.053V116.416H396.411V124.053H395.238ZM395.835 115.144C395.606 115.144 395.409 115.066 395.243 114.91C395.08 114.754 394.999 114.567 394.999 114.348C394.999 114.129 395.08 113.942 395.243 113.786C395.409 113.631 395.606 113.553 395.835 113.553C396.063 113.553 396.259 113.631 396.421 113.786C396.587 113.942 396.67 114.129 396.67 114.348C396.67 114.567 396.587 114.754 396.421 114.91C396.259 115.066 396.063 115.144 395.835 115.144ZM398.56 124.053V116.416H399.694V117.61H399.793C399.952 117.202 400.209 116.885 400.564 116.66C400.918 116.431 401.344 116.317 401.841 116.317C402.345 116.317 402.765 116.431 403.099 116.66C403.437 116.885 403.701 117.202 403.89 117.61H403.969C404.165 117.215 404.458 116.902 404.849 116.67C405.24 116.435 405.709 116.317 406.256 116.317C406.939 116.317 407.497 116.531 407.932 116.958C408.366 117.383 408.583 118.044 408.583 118.942V124.053H407.41V118.942C407.41 118.378 407.256 117.976 406.947 117.734C406.639 117.492 406.276 117.371 405.858 117.371C405.322 117.371 404.906 117.533 404.611 117.858C404.316 118.18 404.168 118.587 404.168 119.081V124.053H402.975V118.823C402.975 118.388 402.834 118.039 402.552 117.774C402.271 117.505 401.908 117.371 401.464 117.371C401.159 117.371 400.874 117.452 400.608 117.615C400.347 117.777 400.135 118.002 399.972 118.291C399.813 118.576 399.733 118.905 399.733 119.28V124.053H398.56ZM410.728 124.053V116.416H411.862V117.61H411.961C412.12 117.202 412.377 116.885 412.732 116.66C413.086 116.431 413.512 116.317 414.009 116.317C414.513 116.317 414.932 116.431 415.267 116.66C415.605 116.885 415.869 117.202 416.058 117.61H416.137C416.333 117.215 416.626 116.902 417.017 116.67C417.408 116.435 417.877 116.317 418.424 116.317C419.107 116.317 419.665 116.531 420.1 116.958C420.534 117.383 420.751 118.044 420.751 118.942V124.053H419.578V118.942C419.578 118.378 419.423 117.976 419.115 117.734C418.807 117.492 418.444 117.371 418.026 117.371C417.49 117.371 417.074 117.533 416.779 117.858C416.484 118.18 416.336 118.587 416.336 119.081V124.053H415.143V118.823C415.143 118.388 415.002 118.039 414.72 117.774C414.439 117.505 414.076 117.371 413.632 117.371C413.327 117.371 413.042 117.452 412.776 117.615C412.515 117.777 412.302 118.002 412.14 118.291C411.981 118.576 411.901 118.905 411.901 119.28V124.053H410.728ZM425.998 124.212C425.309 124.212 424.704 124.048 424.184 123.72C423.667 123.392 423.262 122.932 422.971 122.343C422.682 121.753 422.538 121.063 422.538 120.274C422.538 119.479 422.682 118.785 422.971 118.191C423.262 117.598 423.667 117.137 424.184 116.809C424.704 116.481 425.309 116.317 425.998 116.317C426.688 116.317 427.291 116.481 427.808 116.809C428.328 117.137 428.733 117.598 429.021 118.191C429.313 118.785 429.459 119.479 429.459 120.274C429.459 121.063 429.313 121.753 429.021 122.343C428.733 122.932 428.328 123.392 427.808 123.72C427.291 124.048 426.688 124.212 425.998 124.212ZM425.998 123.158C426.522 123.158 426.953 123.024 427.291 122.755C427.629 122.487 427.879 122.134 428.042 121.696C428.204 121.259 428.285 120.785 428.285 120.274C428.285 119.764 428.204 119.288 428.042 118.847C427.879 118.407 427.629 118.05 427.291 117.779C426.953 117.507 426.522 117.371 425.998 117.371C425.475 117.371 425.044 117.507 424.706 117.779C424.368 118.05 424.117 118.407 423.955 118.847C423.793 119.288 423.711 119.764 423.711 120.274C423.711 120.785 423.793 121.259 423.955 121.696C424.117 122.134 424.368 122.487 424.706 122.755C425.044 123.024 425.475 123.158 425.998 123.158ZM432.423 119.459V124.053H431.25V116.416H432.383V117.61H432.483C432.662 117.222 432.933 116.91 433.298 116.675C433.663 116.436 434.133 116.317 434.71 116.317C435.227 116.317 435.679 116.423 436.067 116.635C436.455 116.844 436.757 117.162 436.972 117.59C437.187 118.014 437.295 118.551 437.295 119.2V124.053H436.122V119.28C436.122 118.68 435.966 118.213 435.654 117.878C435.343 117.54 434.915 117.371 434.372 117.371C433.997 117.371 433.663 117.452 433.368 117.615C433.076 117.777 432.846 118.014 432.676 118.325C432.507 118.637 432.423 119.015 432.423 119.459ZM444.848 118.127L443.794 118.425C443.728 118.249 443.63 118.079 443.501 117.913C443.375 117.744 443.203 117.605 442.984 117.495C442.765 117.386 442.485 117.331 442.144 117.331C441.676 117.331 441.287 117.439 440.975 117.654C440.667 117.866 440.513 118.137 440.513 118.465C440.513 118.756 440.619 118.987 440.831 119.156C441.043 119.325 441.375 119.466 441.825 119.578L442.959 119.857C443.642 120.022 444.151 120.276 444.485 120.617C444.82 120.955 444.987 121.391 444.987 121.925C444.987 122.362 444.861 122.753 444.61 123.098C444.361 123.443 444.013 123.715 443.566 123.914C443.118 124.112 442.598 124.212 442.004 124.212C441.226 124.212 440.581 124.043 440.07 123.705C439.56 123.367 439.237 122.873 439.101 122.223L440.215 121.945C440.321 122.356 440.521 122.664 440.816 122.869C441.115 123.075 441.504 123.178 441.985 123.178C442.531 123.178 442.966 123.062 443.287 122.83C443.612 122.594 443.774 122.313 443.774 121.985C443.774 121.719 443.682 121.497 443.496 121.318C443.31 121.136 443.025 121 442.641 120.911L441.368 120.612C440.669 120.447 440.155 120.19 439.827 119.842C439.502 119.49 439.34 119.051 439.34 118.524C439.34 118.093 439.461 117.712 439.703 117.381C439.948 117.049 440.281 116.789 440.702 116.6C441.126 116.411 441.607 116.317 442.144 116.317C442.899 116.317 443.493 116.483 443.923 116.814C444.358 117.146 444.666 117.583 444.848 118.127ZM452.62 126.737C451.606 126.737 450.709 126.598 449.93 126.32C449.152 126.045 448.497 125.639 447.967 125.102C447.436 124.565 447.035 123.907 446.763 123.128C446.492 122.349 446.356 121.458 446.356 120.453C446.356 119.482 446.493 118.614 446.768 117.848C447.047 117.083 447.45 116.433 447.977 115.899C448.507 115.362 449.15 114.953 449.906 114.671C450.665 114.39 451.523 114.249 452.481 114.249C453.412 114.249 454.228 114.401 454.927 114.706C455.629 115.008 456.216 115.417 456.687 115.934C457.161 116.448 457.515 117.026 457.751 117.669C457.989 118.312 458.109 118.975 458.109 119.658C458.109 120.138 458.085 120.626 458.039 121.119C457.993 121.613 457.895 122.067 457.746 122.482C457.597 122.893 457.366 123.224 457.055 123.476C456.746 123.728 456.329 123.854 455.802 123.854C455.57 123.854 455.315 123.817 455.036 123.744C454.758 123.672 454.511 123.551 454.295 123.382C454.08 123.213 453.952 122.985 453.913 122.7H453.853C453.773 122.893 453.651 123.075 453.485 123.247C453.323 123.42 453.109 123.557 452.844 123.66C452.582 123.763 452.262 123.807 451.884 123.794C451.453 123.778 451.074 123.682 450.746 123.506C450.418 123.327 450.143 123.085 449.92 122.78C449.702 122.472 449.536 122.115 449.423 121.711C449.314 121.303 449.259 120.864 449.259 120.394C449.259 119.946 449.326 119.537 449.458 119.166C449.591 118.794 449.775 118.47 450.01 118.191C450.249 117.913 450.527 117.691 450.845 117.525C451.167 117.356 451.513 117.252 451.884 117.212C452.216 117.179 452.517 117.194 452.789 117.257C453.061 117.316 453.285 117.407 453.46 117.53C453.636 117.649 453.747 117.782 453.793 117.928H453.853V117.371H454.907V121.865C454.907 122.144 454.985 122.389 455.141 122.601C455.296 122.813 455.523 122.919 455.822 122.919C456.16 122.919 456.418 122.803 456.597 122.571C456.78 122.339 456.904 121.981 456.97 121.497C457.04 121.013 457.075 120.394 457.075 119.638C457.075 119.194 457.013 118.756 456.891 118.325C456.771 117.891 456.589 117.485 456.344 117.107C456.102 116.73 455.795 116.396 455.424 116.108C455.053 115.82 454.617 115.594 454.116 115.432C453.619 115.266 453.054 115.183 452.421 115.183C451.642 115.183 450.945 115.304 450.328 115.546C449.715 115.785 449.193 116.135 448.762 116.595C448.335 117.053 448.008 117.61 447.783 118.266C447.561 118.919 447.45 119.661 447.45 120.493C447.45 121.338 447.561 122.089 447.783 122.745C448.008 123.401 448.339 123.955 448.777 124.406C449.218 124.856 449.763 125.198 450.413 125.43C451.062 125.665 451.811 125.783 452.66 125.783C453.024 125.783 453.384 125.748 453.739 125.678C454.093 125.609 454.406 125.533 454.678 125.45C454.95 125.367 455.146 125.306 455.265 125.266L455.543 126.181C455.338 126.267 455.069 126.353 454.738 126.439C454.41 126.525 454.058 126.597 453.684 126.653C453.313 126.709 452.958 126.737 452.62 126.737ZM452.043 122.78C452.487 122.78 452.847 122.691 453.122 122.512C453.397 122.333 453.598 122.062 453.724 121.701C453.85 121.34 453.913 120.884 453.913 120.334C453.913 119.777 453.843 119.343 453.704 119.031C453.565 118.72 453.359 118.501 453.087 118.375C452.816 118.249 452.481 118.186 452.083 118.186C451.705 118.186 451.382 118.286 451.114 118.485C450.848 118.68 450.645 118.942 450.502 119.27C450.363 119.595 450.293 119.95 450.293 120.334C450.293 120.758 450.35 121.158 450.462 121.532C450.575 121.903 450.759 122.205 451.014 122.437C451.269 122.666 451.612 122.78 452.043 122.78ZM462.947 127.075C462.381 127.075 461.893 127.003 461.486 126.857C461.078 126.714 460.738 126.525 460.466 126.29C460.198 126.058 459.984 125.809 459.825 125.544L460.76 124.888C460.866 125.027 461 125.186 461.162 125.365C461.325 125.548 461.547 125.705 461.829 125.838C462.114 125.973 462.487 126.041 462.947 126.041C463.564 126.041 464.073 125.892 464.474 125.594C464.875 125.296 465.075 124.828 465.075 124.192V122.641H464.976C464.89 122.78 464.767 122.952 464.608 123.158C464.452 123.36 464.227 123.541 463.932 123.7C463.64 123.856 463.246 123.933 462.748 123.933C462.132 123.933 461.578 123.788 461.088 123.496C460.601 123.204 460.215 122.78 459.93 122.223C459.648 121.666 459.507 120.99 459.507 120.195C459.507 119.413 459.644 118.731 459.92 118.151C460.195 117.568 460.577 117.117 461.068 116.799C461.559 116.478 462.125 116.317 462.768 116.317C463.265 116.317 463.66 116.4 463.952 116.566C464.247 116.728 464.472 116.914 464.628 117.122C464.787 117.328 464.909 117.497 464.996 117.629H465.115V116.416H466.248V124.271C466.248 124.928 466.099 125.461 465.801 125.872C465.506 126.287 465.108 126.59 464.608 126.782C464.111 126.978 463.557 127.075 462.947 127.075ZM462.907 122.879C463.378 122.879 463.776 122.772 464.101 122.556C464.425 122.341 464.672 122.031 464.841 121.627C465.01 121.222 465.095 120.738 465.095 120.175C465.095 119.625 465.012 119.139 464.846 118.718C464.681 118.297 464.435 117.968 464.111 117.729C463.786 117.49 463.385 117.371 462.907 117.371C462.41 117.371 461.996 117.497 461.665 117.749C461.336 118.001 461.09 118.339 460.924 118.763C460.761 119.187 460.68 119.658 460.68 120.175C460.68 120.705 460.763 121.174 460.929 121.582C461.098 121.986 461.346 122.304 461.675 122.536C462.006 122.765 462.417 122.879 462.907 122.879ZM468.396 124.053V116.416H469.53V117.61H469.629C469.788 117.202 470.045 116.885 470.4 116.66C470.754 116.431 471.18 116.317 471.677 116.317C472.181 116.317 472.6 116.431 472.935 116.66C473.273 116.885 473.537 117.202 473.726 117.61H473.805C474.001 117.215 474.294 116.902 474.685 116.67C475.076 116.435 475.545 116.317 476.092 116.317C476.775 116.317 477.333 116.531 477.768 116.958C478.202 117.383 478.419 118.044 478.419 118.942V124.053H477.246V118.942C477.246 118.378 477.091 117.976 476.783 117.734C476.475 117.492 476.112 117.371 475.694 117.371C475.157 117.371 474.742 117.533 474.447 117.858C474.152 118.18 474.004 118.587 474.004 119.081V124.053H472.811V118.823C472.811 118.388 472.67 118.039 472.388 117.774C472.107 117.505 471.744 117.371 471.3 117.371C470.995 117.371 470.71 117.452 470.444 117.615C470.183 117.777 469.97 118.002 469.808 118.291C469.649 118.576 469.569 118.905 469.569 119.28V124.053H468.396ZM482.811 124.232C482.327 124.232 481.888 124.141 481.494 123.958C481.099 123.773 480.786 123.506 480.554 123.158C480.322 122.807 480.206 122.382 480.206 121.885C480.206 121.448 480.292 121.093 480.465 120.821C480.637 120.546 480.867 120.331 481.156 120.175C481.444 120.019 481.762 119.903 482.11 119.827C482.462 119.747 482.815 119.684 483.169 119.638C483.633 119.578 484.009 119.534 484.298 119.504C484.589 119.471 484.802 119.416 484.934 119.34C485.07 119.263 485.138 119.131 485.138 118.942V118.902C485.138 118.412 485.004 118.03 484.735 117.759C484.47 117.487 484.067 117.351 483.527 117.351C482.967 117.351 482.528 117.474 482.21 117.719C481.892 117.964 481.668 118.226 481.539 118.504L480.425 118.107C480.624 117.643 480.889 117.281 481.22 117.023C481.555 116.761 481.92 116.579 482.314 116.476C482.712 116.37 483.103 116.317 483.487 116.317C483.733 116.317 484.014 116.347 484.333 116.406C484.654 116.463 484.964 116.58 485.262 116.759C485.564 116.938 485.814 117.209 486.013 117.57C486.212 117.931 486.311 118.415 486.311 119.021V124.053H485.138V123.019H485.078C484.999 123.184 484.866 123.362 484.681 123.551C484.495 123.74 484.248 123.9 483.94 124.033C483.632 124.165 483.255 124.232 482.811 124.232ZM482.99 123.178C483.454 123.178 483.845 123.087 484.164 122.904C484.485 122.722 484.727 122.487 484.889 122.198C485.055 121.91 485.138 121.607 485.138 121.289V120.215C485.088 120.274 484.979 120.329 484.81 120.379C484.644 120.425 484.452 120.467 484.233 120.503C484.018 120.536 483.807 120.566 483.602 120.593C483.4 120.616 483.235 120.636 483.11 120.652C482.805 120.692 482.52 120.757 482.254 120.846C481.993 120.932 481.78 121.063 481.618 121.239C481.459 121.411 481.379 121.646 481.379 121.945C481.379 122.352 481.53 122.661 481.832 122.869C482.137 123.075 482.523 123.178 482.99 123.178ZM488.453 124.053V116.416H489.626V124.053H488.453ZM489.049 115.144C488.821 115.144 488.623 115.066 488.458 114.91C488.295 114.754 488.214 114.567 488.214 114.348C488.214 114.129 488.295 113.942 488.458 113.786C488.623 113.631 488.821 113.553 489.049 113.553C489.278 113.553 489.474 113.631 489.636 113.786C489.802 113.942 489.885 114.129 489.885 114.348C489.885 114.567 489.802 114.754 489.636 114.91C489.474 115.066 489.278 115.144 489.049 115.144ZM492.948 113.871V124.053H491.775V113.871H492.948ZM495.952 124.132C495.707 124.132 495.497 124.044 495.321 123.869C495.145 123.693 495.058 123.483 495.058 123.237C495.058 122.992 495.145 122.782 495.321 122.606C495.497 122.43 495.707 122.343 495.952 122.343C496.198 122.343 496.408 122.43 496.584 122.606C496.759 122.782 496.847 122.992 496.847 123.237C496.847 123.4 496.806 123.549 496.723 123.685C496.643 123.821 496.536 123.93 496.4 124.013C496.267 124.093 496.118 124.132 495.952 124.132ZM502.055 124.212C501.339 124.212 500.723 124.043 500.206 123.705C499.689 123.367 499.291 122.901 499.012 122.308C498.734 121.714 498.595 121.037 498.595 120.274C498.595 119.499 498.737 118.814 499.022 118.221C499.311 117.624 499.712 117.159 500.225 116.824C500.743 116.486 501.346 116.317 502.035 116.317C502.572 116.317 503.056 116.416 503.487 116.615C503.918 116.814 504.271 117.093 504.546 117.45C504.821 117.808 504.992 118.226 505.058 118.703H503.885C503.795 118.355 503.596 118.047 503.288 117.779C502.983 117.507 502.572 117.371 502.055 117.371C501.598 117.371 501.197 117.49 500.852 117.729C500.511 117.964 500.244 118.297 500.051 118.728C499.863 119.156 499.768 119.658 499.768 120.235C499.768 120.825 499.861 121.338 500.047 121.776C500.235 122.213 500.501 122.553 500.842 122.795C501.187 123.037 501.591 123.158 502.055 123.158C502.36 123.158 502.637 123.105 502.885 122.999C503.134 122.893 503.344 122.74 503.517 122.541C503.689 122.343 503.812 122.104 503.885 121.825H505.058C504.992 122.276 504.828 122.682 504.566 123.044C504.307 123.401 503.964 123.686 503.537 123.899C503.112 124.107 502.618 124.212 502.055 124.212ZM509.875 124.212C509.186 124.212 508.581 124.048 508.061 123.72C507.544 123.392 507.139 122.932 506.848 122.343C506.559 121.753 506.415 121.063 506.415 120.274C506.415 119.479 506.559 118.785 506.848 118.191C507.139 117.598 507.544 117.137 508.061 116.809C508.581 116.481 509.186 116.317 509.875 116.317C510.565 116.317 511.168 116.481 511.685 116.809C512.205 117.137 512.61 117.598 512.898 118.191C513.19 118.785 513.336 119.479 513.336 120.274C513.336 121.063 513.19 121.753 512.898 122.343C512.61 122.932 512.205 123.392 511.685 123.72C511.168 124.048 510.565 124.212 509.875 124.212ZM509.875 123.158C510.399 123.158 510.83 123.024 511.168 122.755C511.506 122.487 511.756 122.134 511.919 121.696C512.081 121.259 512.162 120.785 512.162 120.274C512.162 119.764 512.081 119.288 511.919 118.847C511.756 118.407 511.506 118.05 511.168 117.779C510.83 117.507 510.399 117.371 509.875 117.371C509.352 117.371 508.921 117.507 508.583 117.779C508.245 118.05 507.994 118.407 507.832 118.847C507.67 119.288 507.588 119.764 507.588 120.274C507.588 120.785 507.67 121.259 507.832 121.696C507.994 122.134 508.245 122.487 508.583 122.755C508.921 123.024 509.352 123.158 509.875 123.158ZM515.127 124.053V116.416H516.26V117.61H516.36C516.519 117.202 516.776 116.885 517.13 116.66C517.485 116.431 517.911 116.317 518.408 116.317C518.912 116.317 519.331 116.431 519.666 116.66C520.004 116.885 520.267 117.202 520.456 117.61H520.536C520.731 117.215 521.025 116.902 521.416 116.67C521.807 116.435 522.276 116.317 522.823 116.317C523.505 116.317 524.064 116.531 524.498 116.958C524.932 117.383 525.149 118.044 525.149 118.942V124.053H523.976V118.942C523.976 118.378 523.822 117.976 523.514 117.734C523.205 117.492 522.843 117.371 522.425 117.371C521.888 117.371 521.472 117.533 521.177 117.858C520.882 118.18 520.735 118.587 520.735 119.081V124.053H519.541V118.823C519.541 118.388 519.401 118.039 519.119 117.774C518.837 117.505 518.474 117.371 518.03 117.371C517.725 117.371 517.44 117.452 517.175 117.615C516.913 117.777 516.701 118.002 516.539 118.291C516.379 118.576 516.3 118.905 516.3 119.28V124.053H515.127Z" fill="#616B7C"/>
<rect width="288" height="79.1011" transform="translate(313 159.002)" fill="white"/>
<rect x="24.5" y="24.502" width="1161" height="455" rx="16.5" stroke="#F2F2F8"/>
</g>
</g>
<rect x="0.5" y="0.501953" width="469" height="171" rx="16.5" stroke="#F2F2F8"/>
<defs>
<clipPath id="clip0_1158_70533">
<rect x="1" y="1.00195" width="468" height="170" rx="16" fill="white"/>
</clipPath>
<clipPath id="clip1_1158_70533">
<rect width="1725" height="1037" fill="white" transform="translate(-359 -384.998)"/>
</clipPath>
<clipPath id="clip2_1158_70533">
<rect x="57" y="102.553" width="32" height="32" rx="16" fill="white"/>
</clipPath>
</defs>
</svg>
