<svg width="482" height="346" viewBox="0 0 482 346" fill="none" xmlns="http://www.w3.org/2000/svg">
<g clip-path="url(#clip0_1457_82048)">
<rect x="1" y="1" width="480" height="344" rx="16" fill="#FCFCFF"/>
<g clip-path="url(#clip1_1457_82048)">
<rect width="1728" height="1024" transform="translate(-1195 -226)" fill="#FCFCFF"/>
<rect x="-995" y="-226" width="1528" height="250" fill="white"/>
<rect x="-994.5" y="-225.5" width="1527" height="249" stroke="#E8E9F0" stroke-opacity="0.5"/>
<g filter="url(#filter0_d_1457_82048)">
<g filter="url(#filter1_d_1457_82048)">
<rect x="-219" y="-9" width="572" height="340" rx="16" fill="white"/>
<rect x="-219" y="-9" width="572" height="340" rx="16" stroke="#F2F2F8"/>
</g>
<line x1="-141" y1="119.247" x2="322" y2="119.247" stroke="#E8E9F0" stroke-width="0.5"/>
<line x1="-141" y1="154.517" x2="322" y2="154.517" stroke="#E8E9F0" stroke-width="0.5"/>
<line x1="-141" y1="190.714" x2="322" y2="190.714" stroke="#E8E9F0" stroke-width="0.5"/>
<line x1="-141" y1="225.984" x2="322" y2="225.984" stroke="#E8E9F0" stroke-width="0.5"/>
<line x1="-141" y1="261.253" x2="322" y2="261.253" stroke="#E8E9F0" stroke-width="0.5"/>
<g filter="url(#filter2_d_1457_82048)">
<path d="M-140.5 262C-135.5 255.5 -128.5 252.5 -118.741 221.884C-114.264 207.842 -102.113 158.103 -84.0794 154.565C-50.9321 148.062 -34.8459 190.517 -8.0356 190.517C13.9001 190.517 22.8578 180.24 40.3195 164.025C57.7812 147.81 68.5758 158.129 74.2905 161.077C80.0052 164.025 107.944 188.348 126.676 141.545C141.661 104.102 168.36 117.959 180.648 128.278C193.624 137.122 225.317 200.133 246.906 189.519C268.495 178.905 307.839 164.025 321 202.501" stroke="#F02E65"/>
</g>
</g>
<path d="M286.136 285.273V294H285.079V286.381H285.028L282.897 287.795V286.722L285.079 285.273H286.136ZM291.543 294.119C291.185 294.114 290.827 294.045 290.469 293.915C290.112 293.784 289.785 293.564 289.489 293.254C289.194 292.942 288.957 292.52 288.778 291.989C288.599 291.455 288.509 290.784 288.509 289.977C288.509 289.205 288.582 288.52 288.727 287.923C288.871 287.324 289.082 286.82 289.357 286.411C289.633 285.999 289.965 285.686 290.354 285.473C290.746 285.26 291.188 285.153 291.68 285.153C292.168 285.153 292.603 285.251 292.984 285.447C293.367 285.641 293.68 285.911 293.921 286.257C294.163 286.604 294.319 287.003 294.39 287.455H293.35C293.254 287.062 293.066 286.737 292.788 286.479C292.509 286.22 292.14 286.091 291.68 286.091C291.004 286.091 290.471 286.385 290.082 286.973C289.695 287.561 289.501 288.386 289.498 289.449H289.566C289.725 289.207 289.914 289.001 290.133 288.831C290.354 288.658 290.599 288.524 290.866 288.43C291.133 288.337 291.415 288.29 291.714 288.29C292.214 288.29 292.671 288.415 293.086 288.665C293.501 288.912 293.833 289.254 294.083 289.692C294.333 290.126 294.458 290.625 294.458 291.188C294.458 291.727 294.337 292.222 294.096 292.67C293.854 293.116 293.515 293.472 293.077 293.736C292.643 293.997 292.131 294.125 291.543 294.119ZM291.543 293.182C291.901 293.182 292.222 293.092 292.506 292.913C292.793 292.734 293.019 292.494 293.184 292.193C293.352 291.892 293.435 291.557 293.435 291.188C293.435 290.827 293.354 290.499 293.192 290.203C293.033 289.905 292.813 289.668 292.532 289.491C292.254 289.315 291.935 289.227 291.577 289.227C291.308 289.227 291.056 289.281 290.823 289.389C290.59 289.494 290.386 289.639 290.21 289.824C290.036 290.009 289.9 290.22 289.8 290.459C289.701 290.695 289.651 290.943 289.651 291.205C289.651 291.551 289.732 291.875 289.894 292.176C290.059 292.477 290.283 292.72 290.567 292.905C290.854 293.089 291.18 293.182 291.543 293.182ZM300.02 294H298.912L302.117 285.273H303.208L306.412 294H305.304L302.696 286.653H302.628L300.02 294ZM300.429 290.591H304.895V291.528H300.429V290.591ZM311.76 291.324V287.455H312.766V294H311.76V292.892H311.692C311.539 293.224 311.3 293.507 310.976 293.74C310.652 293.97 310.243 294.085 309.749 294.085C309.34 294.085 308.976 293.996 308.658 293.817C308.34 293.635 308.09 293.362 307.908 292.999C307.726 292.632 307.635 292.17 307.635 291.614V287.455H308.641V291.545C308.641 292.023 308.775 292.403 309.042 292.688C309.311 292.972 309.655 293.114 310.073 293.114C310.323 293.114 310.577 293.05 310.836 292.922C311.097 292.794 311.316 292.598 311.492 292.334C311.671 292.07 311.76 291.733 311.76 291.324ZM317.25 296.591C316.764 296.591 316.347 296.528 315.997 296.403C315.648 296.281 315.357 296.119 315.124 295.918C314.893 295.719 314.71 295.506 314.574 295.278L315.375 294.716C315.466 294.835 315.581 294.972 315.72 295.125C315.859 295.281 316.05 295.416 316.291 295.53C316.536 295.646 316.855 295.705 317.25 295.705C317.778 295.705 318.214 295.577 318.558 295.321C318.902 295.065 319.074 294.665 319.074 294.119V292.79H318.989C318.915 292.909 318.81 293.057 318.673 293.233C318.54 293.406 318.347 293.561 318.094 293.697C317.844 293.831 317.506 293.898 317.08 293.898C316.551 293.898 316.077 293.773 315.656 293.523C315.239 293.273 314.908 292.909 314.663 292.432C314.422 291.955 314.301 291.375 314.301 290.693C314.301 290.023 314.419 289.439 314.655 288.942C314.891 288.442 315.219 288.055 315.639 287.783C316.06 287.507 316.545 287.369 317.097 287.369C317.523 287.369 317.861 287.44 318.111 287.582C318.364 287.722 318.557 287.881 318.69 288.06C318.827 288.236 318.932 288.381 319.006 288.494H319.108V287.455H320.08V294.188C320.08 294.75 319.952 295.207 319.696 295.56C319.443 295.915 319.102 296.175 318.673 296.339C318.247 296.507 317.773 296.591 317.25 296.591ZM317.216 292.994C317.619 292.994 317.96 292.902 318.239 292.717C318.517 292.533 318.729 292.267 318.874 291.92C319.018 291.574 319.091 291.159 319.091 290.676C319.091 290.205 319.02 289.788 318.878 289.428C318.736 289.067 318.526 288.784 318.247 288.58C317.969 288.375 317.625 288.273 317.216 288.273C316.79 288.273 316.435 288.381 316.151 288.597C315.869 288.812 315.658 289.102 315.516 289.466C315.376 289.83 315.307 290.233 315.307 290.676C315.307 291.131 315.378 291.533 315.52 291.882C315.665 292.229 315.878 292.501 316.159 292.7C316.443 292.896 316.795 292.994 317.216 292.994Z" fill="#868EA3"/>
<path d="M282.815 44.6392C282.158 44.6392 281.573 44.5265 281.06 44.3011C280.549 44.0758 280.143 43.7625 279.842 43.3615C279.543 42.9571 279.381 42.4882 279.354 41.9545H280.607C280.634 42.2827 280.746 42.5661 280.945 42.8047C281.144 43.04 281.404 43.2223 281.726 43.3516C282.047 43.4808 282.404 43.5455 282.795 43.5455C283.232 43.5455 283.62 43.4692 283.958 43.3168C284.296 43.1643 284.561 42.9522 284.754 42.6804C284.946 42.4086 285.042 42.0938 285.042 41.7358C285.042 41.3613 284.949 41.0315 284.763 40.7464C284.578 40.4581 284.306 40.2327 283.948 40.0703C283.59 39.9079 283.153 39.8267 282.636 39.8267H281.82V38.733H282.636C283.04 38.733 283.395 38.66 283.7 38.5142C284.008 38.3684 284.248 38.1629 284.42 37.8977C284.596 37.6326 284.684 37.321 284.684 36.9631C284.684 36.6184 284.608 36.3184 284.455 36.0632C284.303 35.808 284.087 35.6091 283.809 35.4666C283.534 35.3241 283.209 35.2528 282.835 35.2528C282.483 35.2528 282.152 35.3175 281.84 35.4467C281.532 35.5727 281.28 35.7566 281.085 35.9986C280.889 36.2372 280.783 36.5256 280.766 36.8636H279.573C279.593 36.33 279.754 35.8627 280.055 35.4616C280.357 35.0573 280.751 34.7424 281.239 34.517C281.729 34.2917 282.268 34.179 282.854 34.179C283.484 34.179 284.024 34.3066 284.475 34.5618C284.926 34.8137 285.272 35.1468 285.514 35.5611C285.756 35.9754 285.877 36.4228 285.877 36.9034C285.877 37.4768 285.726 37.9657 285.425 38.37C285.126 38.7744 284.72 39.0545 284.207 39.2102V39.2898C284.85 39.3958 285.352 39.6693 285.713 40.1101C286.074 40.5476 286.255 41.0895 286.255 41.7358C286.255 42.2893 286.104 42.7865 285.803 43.2273C285.504 43.6648 285.097 44.0095 284.58 44.2614C284.063 44.5133 283.474 44.6392 282.815 44.6392ZM291.609 44.6392C290.86 44.6392 290.222 44.4354 289.695 44.0277C289.168 43.6167 288.766 43.0218 288.487 42.2429C288.209 41.4607 288.07 40.5161 288.07 39.4091C288.07 38.3087 288.209 37.3691 288.487 36.5902C288.769 35.808 289.173 35.2114 289.7 34.8004C290.231 34.3861 290.867 34.179 291.609 34.179C292.352 34.179 292.987 34.3861 293.513 34.8004C294.044 35.2114 294.448 35.808 294.727 36.5902C295.008 37.3691 295.149 38.3087 295.149 39.4091C295.149 40.5161 295.01 41.4607 294.732 42.2429C294.453 43.0218 294.05 43.6167 293.523 44.0277C292.996 44.4354 292.358 44.6392 291.609 44.6392ZM291.609 43.5455C292.352 43.5455 292.929 43.1875 293.339 42.4716C293.75 41.7557 293.956 40.7348 293.956 39.4091C293.956 38.5275 293.862 37.7768 293.673 37.157C293.487 36.5372 293.219 36.0649 292.867 35.7401C292.519 35.4152 292.1 35.2528 291.609 35.2528C290.874 35.2528 290.299 35.6158 289.884 36.3416C289.47 37.0642 289.263 38.0866 289.263 39.4091C289.263 40.2907 289.356 41.0398 289.541 41.6562C289.727 42.2727 289.994 42.7417 290.342 43.0632C290.693 43.3847 291.116 43.5455 291.609 43.5455ZM299.942 44.6591C299.305 44.6591 298.744 44.4983 298.256 44.1768C297.769 43.852 297.388 43.3946 297.113 42.8047C296.838 42.2114 296.7 41.5104 296.7 40.7017C296.7 39.8996 296.838 39.2036 297.113 38.6136C297.388 38.0237 297.771 37.5679 298.261 37.2464C298.752 36.925 299.319 36.7642 299.962 36.7642C300.459 36.7642 300.852 36.8471 301.14 37.0128C301.432 37.1752 301.654 37.3608 301.806 37.5696C301.962 37.7751 302.083 37.9441 302.169 38.0767H302.268V34.3182H303.442V44.5H302.308V43.3267H302.169C302.083 43.4659 301.96 43.6416 301.801 43.8537C301.642 44.0625 301.415 44.2498 301.12 44.4155C300.825 44.5779 300.432 44.6591 299.942 44.6591ZM300.101 43.6051C300.571 43.6051 300.969 43.4825 301.294 43.2372C301.619 42.9886 301.866 42.6456 302.035 42.2081C302.204 41.7673 302.288 41.2585 302.288 40.6818C302.288 40.1117 302.205 39.6129 302.04 39.1854C301.874 38.7545 301.629 38.4197 301.304 38.1811C300.979 37.9392 300.578 37.8182 300.101 37.8182C299.604 37.8182 299.189 37.9458 298.858 38.201C298.53 38.4529 298.283 38.7959 298.117 39.2301C297.955 39.661 297.874 40.1449 297.874 40.6818C297.874 41.2254 297.956 41.7192 298.122 42.1634C298.291 42.6042 298.54 42.9555 298.868 43.2173C299.199 43.4759 299.61 43.6051 300.101 43.6051Z" fill="#868EA3"/>
<path fill-rule="evenodd" clip-rule="evenodd" d="M313.234 36.8344C313.547 36.522 314.053 36.522 314.366 36.8344L317 39.4687L319.634 36.8344C319.947 36.522 320.453 36.522 320.766 36.8344C321.078 37.1468 321.078 37.6534 320.766 37.9658L317.566 41.1658C317.253 41.4782 316.747 41.4782 316.434 41.1658L313.234 37.9658C312.922 37.6534 312.922 37.1468 313.234 36.8344Z" fill="#868EA3"/>
<g filter="url(#filter3_d_1457_82048)">
<rect x="-21" y="355" width="374" height="340" rx="16" fill="white"/>
<rect x="-21" y="355" width="374" height="340" rx="16" stroke="#F2F2F8"/>
</g>
<rect x="293.5" y="266.5" width="59" height="64" rx="15.5" stroke="#FF453A" stroke-dasharray="6 6"/>
<path d="M277 274C277 269.582 280.582 266 285 266H344C348.418 266 352 269.582 352 274V314C352 322.837 344.837 330 336 330H285C280.582 330 277 326.418 277 322V274Z" fill="white"/>
</g>
</g>
<rect x="0.5" y="0.5" width="481" height="345" rx="16.5" stroke="#F2F2F8"/>
<defs>
<filter id="filter0_d_1457_82048" x="-251.5" y="-25.5" width="637.393" height="405" filterUnits="userSpaceOnUse" color-interpolation-filters="sRGB">
<feFlood flood-opacity="0" result="BackgroundImageFix"/>
<feColorMatrix in="SourceAlpha" type="matrix" values="0 0 0 0 0 0 0 0 0 0 0 0 0 0 0 0 0 0 127 0" result="hardAlpha"/>
<feOffset dy="16"/>
<feGaussianBlur stdDeviation="16"/>
<feColorMatrix type="matrix" values="0 0 0 0 0.215686 0 0 0 0 0.231373 0 0 0 0 0.301961 0 0 0 0.02 0"/>
<feBlend mode="normal" in2="BackgroundImageFix" result="effect1_dropShadow_1457_82048"/>
<feBlend mode="normal" in="SourceGraphic" in2="effect1_dropShadow_1457_82048" result="shape"/>
</filter>
<filter id="filter1_d_1457_82048" x="-251.5" y="-25.5" width="637" height="405" filterUnits="userSpaceOnUse" color-interpolation-filters="sRGB">
<feFlood flood-opacity="0" result="BackgroundImageFix"/>
<feColorMatrix in="SourceAlpha" type="matrix" values="0 0 0 0 0 0 0 0 0 0 0 0 0 0 0 0 0 0 127 0" result="hardAlpha"/>
<feOffset dy="16"/>
<feGaussianBlur stdDeviation="16"/>
<feColorMatrix type="matrix" values="0 0 0 0 0.215686 0 0 0 0 0.231373 0 0 0 0 0.301961 0 0 0 0.02 0"/>
<feBlend mode="normal" in2="BackgroundImageFix" result="effect1_dropShadow_1457_82048"/>
<feBlend mode="normal" in="SourceGraphic" in2="effect1_dropShadow_1457_82048" result="shape"/>
</filter>
<filter id="filter2_d_1457_82048" x="-178.896" y="93.5" width="538.37" height="221.805" filterUnits="userSpaceOnUse" color-interpolation-filters="sRGB">
<feFlood flood-opacity="0" result="BackgroundImageFix"/>
<feColorMatrix in="SourceAlpha" type="matrix" values="0 0 0 0 0 0 0 0 0 0 0 0 0 0 0 0 0 0 127 0" result="hardAlpha"/>
<feOffset dy="15"/>
<feGaussianBlur stdDeviation="19"/>
<feComposite in2="hardAlpha" operator="out"/>
<feColorMatrix type="matrix" values="0 0 0 0 0.941176 0 0 0 0 0.180392 0 0 0 0 0.396078 0 0 0 1 0"/>
<feBlend mode="normal" in2="BackgroundImageFix" result="effect1_dropShadow_1457_82048"/>
<feBlend mode="normal" in="SourceGraphic" in2="effect1_dropShadow_1457_82048" result="shape"/>
</filter>
<filter id="filter3_d_1457_82048" x="-53.5" y="338.5" width="439" height="405" filterUnits="userSpaceOnUse" color-interpolation-filters="sRGB">
<feFlood flood-opacity="0" result="BackgroundImageFix"/>
<feColorMatrix in="SourceAlpha" type="matrix" values="0 0 0 0 0 0 0 0 0 0 0 0 0 0 0 0 0 0 127 0" result="hardAlpha"/>
<feOffset dy="16"/>
<feGaussianBlur stdDeviation="16"/>
<feColorMatrix type="matrix" values="0 0 0 0 0.215686 0 0 0 0 0.231373 0 0 0 0 0.301961 0 0 0 0.02 0"/>
<feBlend mode="normal" in2="BackgroundImageFix" result="effect1_dropShadow_1457_82048"/>
<feBlend mode="normal" in="SourceGraphic" in2="effect1_dropShadow_1457_82048" result="shape"/>
</filter>
<clipPath id="clip0_1457_82048">
<rect x="1" y="1" width="480" height="344" rx="16" fill="white"/>
</clipPath>
<clipPath id="clip1_1457_82048">
<rect width="1728" height="1024" fill="white" transform="translate(-1195 -226)"/>
</clipPath>
</defs>
</svg>
