<svg width="470" height="173" viewBox="0 0 470 173" fill="none" xmlns="http://www.w3.org/2000/svg">
<g clip-path="url(#clip0_1107_56813)">
<rect x="1" y="1.00098" width="567" height="393" rx="16" fill="#FCFCFF"/>
<g clip-path="url(#clip1_1107_56813)">
<rect width="1725" height="1111" transform="translate(-1069 -269.999)" fill="#FCFCFF"/>
<rect x="355.5" y="27.5012" width="119" height="39" rx="3.5" fill="#DA1A5B"/>
<path fill-rule="evenodd" clip-rule="evenodd" d="M375 42.0012C375.552 42.0012 376 42.4489 376 43.0012V46.0012L379 46.0012C379.552 46.0012 380 46.4489 380 47.0012C380 47.5535 379.552 48.0012 379 48.0012H376V51.0012C376 51.5535 375.552 52.0012 375 52.0012C374.448 52.0012 374 51.5535 374 51.0012V48.0012H371C370.448 48.0012 370 47.5535 370 47.0012C370 46.4489 370.448 46.0012 371 46.0012L374 46.0012V43.0012C374 42.4489 374.448 42.0012 375 42.0012Z" fill="#FCFCFF"/>
<path d="M398.719 45.7548H396.86C396.807 45.4498 396.709 45.1797 396.567 44.9444C396.424 44.7058 396.247 44.5036 396.035 44.3379C395.823 44.1721 395.581 44.0479 395.309 43.965C395.04 43.8788 394.75 43.8357 394.439 43.8357C393.885 43.8357 393.395 43.9749 392.967 44.2534C392.54 44.5284 392.205 44.9328 391.963 45.4664C391.721 45.9967 391.6 46.6447 391.6 47.4103C391.6 48.1892 391.721 48.8454 391.963 49.3791C392.208 49.9094 392.543 50.3104 392.967 50.5822C393.395 50.8507 393.884 50.9849 394.434 50.9849C394.739 50.9849 395.024 50.9451 395.289 50.8656C395.558 50.7827 395.798 50.6617 396.01 50.5026C396.225 50.3436 396.406 50.148 396.552 49.916C396.701 49.684 396.804 49.4188 396.86 49.1205L398.719 49.1305C398.65 49.6144 398.499 50.0685 398.267 50.4927C398.038 50.9169 397.738 51.2915 397.367 51.6163C396.996 51.9378 396.562 52.1897 396.065 52.372C395.567 52.5509 395.016 52.6404 394.409 52.6404C393.514 52.6404 392.715 52.4333 392.013 52.019C391.31 51.6047 390.757 51.0064 390.352 50.2242C389.948 49.442 389.746 48.5041 389.746 47.4103C389.746 46.3132 389.95 45.3753 390.357 44.5964C390.765 43.8142 391.32 43.2159 392.023 42.8016C392.725 42.3873 393.521 42.1802 394.409 42.1802C394.976 42.1802 395.503 42.2597 395.99 42.4188C396.477 42.5779 396.911 42.8116 397.293 43.1198C397.674 43.4248 397.987 43.7993 398.232 44.2434C398.481 44.6842 398.643 45.188 398.719 45.7548ZM400.329 52.5012V44.8649H402.074V46.1376H402.154C402.293 45.6968 402.531 45.357 402.869 45.1184C403.211 44.8765 403.6 44.7555 404.038 44.7555C404.137 44.7555 404.248 44.7605 404.371 44.7704C404.497 44.777 404.601 44.7886 404.684 44.8052V46.4607C404.608 46.4342 404.487 46.411 404.321 46.3911C404.159 46.3679 404.001 46.3563 403.849 46.3563C403.521 46.3563 403.226 46.4276 402.964 46.5701C402.705 46.7093 402.502 46.9032 402.352 47.1518C402.203 47.4004 402.129 47.6871 402.129 48.0119V52.5012H400.329ZM408.946 52.6504C408.18 52.6504 407.519 52.4913 406.962 52.1731C406.409 51.8516 405.983 51.3975 405.685 50.8109C405.386 50.2209 405.237 49.5266 405.237 48.7278C405.237 47.9423 405.386 47.2529 405.685 46.6596C405.986 46.063 406.407 45.599 406.947 45.2676C407.488 44.9328 408.122 44.7654 408.852 44.7654C409.322 44.7654 409.766 44.8417 410.184 44.9941C410.605 45.1433 410.976 45.3753 411.298 45.6901C411.622 46.005 411.878 46.4061 412.063 46.8933C412.249 47.3772 412.342 47.9539 412.342 48.6234V49.1752H406.082V47.9622H410.616C410.613 47.6175 410.539 47.3109 410.393 47.0424C410.247 46.7706 410.043 46.5569 409.781 46.4011C409.523 46.2453 409.221 46.1674 408.876 46.1674C408.509 46.1674 408.185 46.2569 407.907 46.4359C407.629 46.6115 407.411 46.8436 407.256 47.1319C407.103 47.4169 407.025 47.7302 407.022 48.0715V49.1305C407.022 49.5746 407.103 49.9558 407.266 50.2739C407.428 50.5888 407.655 50.8308 407.947 50.9998C408.238 51.1655 408.58 51.2484 408.971 51.2484C409.233 51.2484 409.47 51.2119 409.682 51.139C409.894 51.0628 410.078 50.9517 410.234 50.8059C410.389 50.6601 410.507 50.4794 410.587 50.264L412.267 50.4529C412.161 50.8971 411.959 51.2848 411.661 51.6163C411.366 51.9444 410.988 52.1996 410.527 52.3819C410.066 52.5609 409.539 52.6504 408.946 52.6504ZM416.062 52.6553C415.578 52.6553 415.142 52.5692 414.754 52.3968C414.37 52.2212 414.065 51.9626 413.839 51.6212C413.617 51.2799 413.506 50.8589 413.506 50.3585C413.506 49.9276 413.586 49.5713 413.745 49.2896C413.904 49.0078 414.121 48.7825 414.396 48.6134C414.671 48.4444 414.981 48.3168 415.326 48.2306C415.674 48.1411 416.033 48.0765 416.405 48.0367C416.852 47.9903 417.215 47.9489 417.493 47.9124C417.772 47.8727 417.974 47.813 418.1 47.7335C418.229 47.6506 418.294 47.523 418.294 47.3507V47.3208C418.294 46.9463 418.183 46.6563 417.961 46.4508C417.739 46.2453 417.419 46.1426 417.001 46.1426C416.56 46.1426 416.211 46.2387 415.952 46.4309C415.697 46.6231 415.525 46.8502 415.435 47.112L413.755 46.8734C413.887 46.4094 414.106 46.0216 414.411 45.71C414.716 45.3952 415.089 45.1598 415.53 45.0041C415.97 44.845 416.458 44.7654 416.991 44.7654C417.359 44.7654 417.725 44.8085 418.09 44.8947C418.455 44.9809 418.788 45.1234 419.089 45.3222C419.391 45.5178 419.633 45.7846 419.815 46.1227C420.001 46.4607 420.094 46.8833 420.094 47.3904V52.5012H418.363V51.4522H418.304C418.194 51.6643 418.04 51.8632 417.841 52.0488C417.646 52.2311 417.399 52.3786 417.101 52.4913C416.806 52.6007 416.459 52.6553 416.062 52.6553ZM416.529 51.3329C416.89 51.3329 417.203 51.2616 417.469 51.1191C417.734 50.9733 417.938 50.7811 418.08 50.5424C418.226 50.3038 418.299 50.0436 418.299 49.7619V48.862C418.242 48.9084 418.146 48.9515 418.01 48.9913C417.878 49.0311 417.729 49.0659 417.563 49.0957C417.397 49.1255 417.233 49.152 417.071 49.1752C416.908 49.1984 416.768 49.2183 416.648 49.2349C416.38 49.2713 416.14 49.331 415.927 49.4139C415.715 49.4967 415.548 49.6127 415.425 49.7619C415.303 49.9077 415.241 50.0966 415.241 50.3286C415.241 50.6601 415.362 50.9103 415.604 51.0793C415.846 51.2484 416.154 51.3329 416.529 51.3329ZM425.716 44.8649V46.2569H421.327V44.8649H425.716ZM422.41 43.0353H424.21V50.2043C424.21 50.4463 424.247 50.6319 424.319 50.7612C424.396 50.8871 424.495 50.9733 424.618 51.0197C424.74 51.0661 424.876 51.0893 425.025 51.0893C425.138 51.0893 425.241 51.081 425.334 51.0644C425.43 51.0479 425.503 51.0329 425.552 51.0197L425.856 52.4266C425.76 52.4598 425.622 52.4962 425.443 52.536C425.267 52.5758 425.052 52.599 424.797 52.6056C424.346 52.6189 423.94 52.5509 423.579 52.4018C423.217 52.2493 422.931 52.014 422.719 51.6958C422.51 51.3776 422.407 50.9799 422.41 50.5026V43.0353ZM430.52 52.6504C429.755 52.6504 429.093 52.4913 428.537 52.1731C427.983 51.8516 427.557 51.3975 427.259 50.8109C426.961 50.2209 426.811 49.5266 426.811 48.7278C426.811 47.9423 426.961 47.2529 427.259 46.6596C427.56 46.063 427.981 45.599 428.522 45.2676C429.062 44.9328 429.697 44.7654 430.426 44.7654C430.896 44.7654 431.341 44.8417 431.758 44.9941C432.179 45.1433 432.55 45.3753 432.872 45.6901C433.197 46.005 433.452 46.4061 433.637 46.8933C433.823 47.3772 433.916 47.9539 433.916 48.6234V49.1752H427.657V47.9622H432.191C432.187 47.6175 432.113 47.3109 431.967 47.0424C431.821 46.7706 431.617 46.5569 431.355 46.4011C431.097 46.2453 430.795 46.1674 430.451 46.1674C430.083 46.1674 429.76 46.2569 429.481 46.4359C429.203 46.6115 428.986 46.8436 428.83 47.1319C428.677 47.4169 428.6 47.7302 428.596 48.0715V49.1305C428.596 49.5746 428.677 49.9558 428.84 50.2739C429.002 50.5888 429.229 50.8308 429.521 50.9998C429.813 51.1655 430.154 51.2484 430.545 51.2484C430.807 51.2484 431.044 51.2119 431.256 51.139C431.468 51.0628 431.652 50.9517 431.808 50.8059C431.964 50.6601 432.081 50.4794 432.161 50.264L433.841 50.4529C433.735 50.8971 433.533 51.2848 433.235 51.6163C432.94 51.9444 432.562 52.1996 432.101 52.3819C431.641 52.5609 431.114 52.6504 430.52 52.6504ZM442.779 44.8649V46.2569H438.265V44.8649H442.779ZM439.393 52.5012V44.144C439.393 43.6302 439.499 43.2027 439.711 42.8613C439.927 42.5199 440.215 42.2647 440.577 42.0957C440.938 41.9266 441.339 41.8421 441.78 41.8421C442.091 41.8421 442.368 41.867 442.61 41.9167C442.852 41.9664 443.031 42.0112 443.147 42.0509L442.789 43.443C442.713 43.4198 442.617 43.3966 442.501 43.3734C442.385 43.3469 442.255 43.3336 442.113 43.3336C441.778 43.3336 441.541 43.4148 441.402 43.5772C441.266 43.7363 441.198 43.965 441.198 44.2633V52.5012H439.393ZM444.188 52.5012V44.8649H445.988V52.5012H444.188ZM445.093 43.7811C444.808 43.7811 444.563 43.6866 444.357 43.4977C444.152 43.3054 444.049 43.0751 444.049 42.8066C444.049 42.5348 444.152 42.3045 444.357 42.1156C444.563 41.9233 444.808 41.8272 445.093 41.8272C445.382 41.8272 445.627 41.9233 445.829 42.1156C446.035 42.3045 446.137 42.5348 446.137 42.8066C446.137 43.0751 446.035 43.3054 445.829 43.4977C445.627 43.6866 445.382 43.7811 445.093 43.7811ZM449.638 42.3194V52.5012H447.839V42.3194H449.638ZM454.87 52.6504C454.104 52.6504 453.443 52.4913 452.886 52.1731C452.333 51.8516 451.907 51.3975 451.608 50.8109C451.31 50.2209 451.161 49.5266 451.161 48.7278C451.161 47.9423 451.31 47.2529 451.608 46.6596C451.91 46.063 452.331 45.599 452.871 45.2676C453.412 44.9328 454.046 44.7654 454.775 44.7654C455.246 44.7654 455.69 44.8417 456.108 44.9941C456.529 45.1433 456.9 45.3753 457.221 45.6901C457.546 46.005 457.801 46.4061 457.987 46.8933C458.173 47.3772 458.265 47.9539 458.265 48.6234V49.1752H452.006V47.9622H456.54C456.537 47.6175 456.462 47.3109 456.317 47.0424C456.171 46.7706 455.967 46.5569 455.705 46.4011C455.447 46.2453 455.145 46.1674 454.8 46.1674C454.432 46.1674 454.109 46.2569 453.831 46.4359C453.552 46.6115 453.335 46.8436 453.18 47.1319C453.027 47.4169 452.949 47.7302 452.946 48.0715V49.1305C452.946 49.5746 453.027 49.9558 453.189 50.2739C453.352 50.5888 453.579 50.8308 453.871 50.9998C454.162 51.1655 454.504 51.2484 454.895 51.2484C455.157 51.2484 455.394 51.2119 455.606 51.139C455.818 51.0628 456.002 50.9517 456.157 50.8059C456.313 50.6601 456.431 50.4794 456.51 50.264L458.191 50.4529C458.085 50.8971 457.883 51.2848 457.584 51.6163C457.289 51.9444 456.912 52.1996 456.451 52.3819C455.99 52.5609 455.463 52.6504 454.87 52.6504Z" fill="white"/>
<rect x="355.5" y="27.5012" width="119" height="39" rx="3.5" stroke="#C00D53"/>
<g filter="url(#filter0_d_1107_56813)">
<rect x="-112.666" y="152.131" width="253.333" height="1" fill="#F2F2F8"/>
<path d="M-112.666 99.0012H140.667V152.261H-112.666V99.0012Z" fill="white"/>
<rect width="253.333" height="79.1011" transform="translate(-112.666 153.001)" fill="white"/>
<rect x="140.666" y="152.131" width="253.333" height="1" fill="#F2F2F8"/>
<path d="M140.666 99.0012H393.999V152.261H140.666V99.0012Z" fill="white"/>
<path d="M180.873 123.742H179.544C179.493 123.458 179.398 123.208 179.258 122.992C179.119 122.776 178.949 122.593 178.747 122.442C178.545 122.292 178.319 122.178 178.069 122.102C177.822 122.025 177.559 121.986 177.281 121.986C176.778 121.986 176.328 122.113 175.93 122.366C175.535 122.619 175.223 122.989 174.993 123.478C174.765 123.967 174.652 124.563 174.652 125.268C174.652 125.978 174.765 126.577 174.993 127.066C175.223 127.555 175.537 127.924 175.934 128.174C176.332 128.424 176.78 128.549 177.277 128.549C177.552 128.549 177.814 128.512 178.061 128.438C178.311 128.361 178.537 128.249 178.738 128.102C178.94 127.954 179.111 127.773 179.25 127.56C179.392 127.344 179.49 127.097 179.544 126.819L180.873 126.823C180.802 127.252 180.665 127.647 180.46 128.008C180.258 128.366 179.998 128.675 179.68 128.937C179.365 129.195 179.004 129.396 178.598 129.538C178.192 129.68 177.748 129.751 177.268 129.751C176.513 129.751 175.839 129.572 175.248 129.214C174.657 128.853 174.192 128.337 173.851 127.667C173.513 126.996 173.344 126.197 173.344 125.268C173.344 124.336 173.514 123.536 173.855 122.869C174.196 122.198 174.662 121.684 175.253 121.326C175.844 120.965 176.515 120.785 177.268 120.785C177.731 120.785 178.163 120.852 178.564 120.985C178.967 121.116 179.329 121.309 179.65 121.565C179.971 121.817 180.237 122.127 180.447 122.494C180.657 122.857 180.8 123.273 180.873 123.742ZM183.889 129.631V120.904H187C187.676 120.904 188.237 121.021 188.683 121.254C189.132 121.486 189.467 121.809 189.689 122.221C189.91 122.63 190.021 123.103 190.021 123.64C190.021 124.174 189.909 124.644 189.684 125.05C189.463 125.454 189.128 125.768 188.679 125.992C188.233 126.217 187.672 126.329 186.996 126.329H184.639V125.195H186.876C187.302 125.195 187.649 125.134 187.916 125.012C188.186 124.89 188.383 124.712 188.508 124.479C188.633 124.246 188.696 123.967 188.696 123.64C188.696 123.31 188.632 123.025 188.504 122.783C188.379 122.542 188.182 122.357 187.912 122.229C187.645 122.099 187.294 122.033 186.859 122.033H185.206V129.631H183.889ZM188.197 125.694L190.354 129.631H188.854L186.74 125.694H188.197ZM193.063 129.631V120.904H198.535V122.038H194.38V124.697H198.249V125.826H194.38V128.498H198.586V129.631H193.063ZM202.471 129.631H201.073L204.214 120.904H205.735L208.876 129.631H207.478L205.011 122.489H204.943L202.471 129.631ZM202.705 126.214H207.24V127.322H202.705V126.214ZM210.115 122.038V120.904H216.869V122.038H214.146V129.631H212.833V122.038H210.115ZM219.801 129.631V120.904H225.273V122.038H221.118V124.697H224.987V125.826H221.118V128.498H225.324V129.631H219.801ZM231.297 129.631H228.472V120.904H231.387C232.242 120.904 232.976 121.079 233.59 121.428C234.203 121.775 234.674 122.273 235 122.924C235.33 123.572 235.495 124.349 235.495 125.255C235.495 126.164 235.328 126.945 234.996 127.599C234.666 128.252 234.189 128.755 233.564 129.107C232.939 129.457 232.184 129.631 231.297 129.631ZM229.789 128.481H231.225C231.889 128.481 232.442 128.356 232.882 128.106C233.323 127.853 233.652 127.488 233.871 127.011C234.09 126.53 234.199 125.945 234.199 125.255C234.199 124.57 234.09 123.989 233.871 123.512C233.655 123.035 233.333 122.673 232.904 122.425C232.475 122.178 231.942 122.055 231.306 122.055H229.789V128.481Z" fill="#616B7C"/>
<rect width="253.333" height="79.1011" transform="translate(140.666 153.001)" fill="white"/>
<rect x="394" y="152.131" width="80" height="1" fill="#F2F2F8"/>
<path d="M394 99.0012H458C466.837 99.0012 474 106.165 474 115.001V152.261H394V99.0012Z" fill="white"/>
<rect width="80" height="79.1011" transform="translate(394 153.001)" fill="white"/>
<rect x="-686.5" y="98.5012" width="1161" height="455" rx="16.5" stroke="#F2F2F8"/>
</g>
</g>
</g>
<rect x="0.5" y="0.501221" width="469" height="171" rx="16.5" stroke="#F2F2F8"/>
<defs>
<filter id="filter0_d_1107_56813" x="-719" y="82.0012" width="1226" height="520" filterUnits="userSpaceOnUse" color-interpolation-filters="sRGB">
<feFlood flood-opacity="0" result="BackgroundImageFix"/>
<feColorMatrix in="SourceAlpha" type="matrix" values="0 0 0 0 0 0 0 0 0 0 0 0 0 0 0 0 0 0 127 0" result="hardAlpha"/>
<feOffset dy="16"/>
<feGaussianBlur stdDeviation="16"/>
<feColorMatrix type="matrix" values="0 0 0 0 0.215686 0 0 0 0 0.231373 0 0 0 0 0.301961 0 0 0 0.02 0"/>
<feBlend mode="normal" in2="BackgroundImageFix" result="effect1_dropShadow_1107_56813"/>
<feBlend mode="normal" in="SourceGraphic" in2="effect1_dropShadow_1107_56813" result="shape"/>
</filter>
<clipPath id="clip0_1107_56813">
<rect x="1" y="1.00122" width="468" height="170" rx="16" fill="white"/>
</clipPath>
<clipPath id="clip1_1107_56813">
<rect width="1725" height="1111" fill="white" transform="translate(-1069 -269.999)"/>
</clipPath>
</defs>
</svg>
