<svg width="470" height="173" viewBox="0 0 470 173" fill="none" xmlns="http://www.w3.org/2000/svg">
<g clip-path="url(#clip0_1107_56840)">
<rect x="1" y="1.00098" width="567" height="393" rx="16" fill="#FCFCFF"/>
<g clip-path="url(#clip1_1107_56840)">
<rect width="1725" height="1111" transform="translate(-1069 -269.999)" fill="#FCFCFF"/>
<rect x="204.5" y="27.5012" width="270" height="39" rx="3.5" fill="#DA1A5B"/>
<path fill-rule="evenodd" clip-rule="evenodd" d="M218.752 39.2538C218.377 39.6288 218.166 40.1375 218.166 40.668V52.668C218.166 53.1984 218.377 53.7071 218.752 54.0822C219.127 54.4573 219.636 54.668 220.166 54.668H228.166C228.696 54.668 229.205 54.4573 229.58 54.0822C229.955 53.7071 230.166 53.1984 230.166 52.668V45.3823H226.366C225.261 45.3823 224.366 44.4868 224.366 43.3823L226.366 43.3823H230.039C229.94 43.1165 229.784 42.8724 229.58 42.668L226.366 39.454V43.3823H224.366V38.668H220.166C219.636 38.668 219.127 38.8787 218.752 39.2538Z" fill="white"/>
<path d="M247.719 45.7548H245.86C245.807 45.4498 245.709 45.1797 245.567 44.9444C245.424 44.7058 245.247 44.5036 245.035 44.3379C244.823 44.1721 244.581 44.0479 244.309 43.965C244.04 43.8788 243.75 43.8357 243.439 43.8357C242.885 43.8357 242.395 43.9749 241.967 44.2534C241.54 44.5284 241.205 44.9328 240.963 45.4664C240.721 45.9967 240.6 46.6447 240.6 47.4103C240.6 48.1892 240.721 48.8454 240.963 49.3791C241.208 49.9094 241.543 50.3104 241.967 50.5822C242.395 50.8507 242.884 50.9849 243.434 50.9849C243.739 50.9849 244.024 50.9451 244.289 50.8656C244.558 50.7827 244.798 50.6617 245.01 50.5026C245.225 50.3436 245.406 50.148 245.552 49.916C245.701 49.684 245.804 49.4188 245.86 49.1205L247.719 49.1305C247.65 49.6144 247.499 50.0685 247.267 50.4927C247.038 50.9169 246.738 51.2915 246.367 51.6163C245.996 51.9378 245.562 52.1897 245.065 52.372C244.567 52.5509 244.016 52.6404 243.409 52.6404C242.514 52.6404 241.715 52.4333 241.013 52.019C240.31 51.6047 239.757 51.0064 239.352 50.2242C238.948 49.442 238.746 48.5041 238.746 47.4103C238.746 46.3132 238.95 45.3753 239.357 44.5964C239.765 43.8142 240.32 43.2159 241.023 42.8016C241.725 42.3873 242.521 42.1802 243.409 42.1802C243.976 42.1802 244.503 42.2597 244.99 42.4188C245.477 42.5779 245.911 42.8116 246.293 43.1198C246.674 43.4248 246.987 43.7993 247.232 44.2434C247.481 44.6842 247.643 45.188 247.719 45.7548ZM249.329 52.5012V44.8649H251.074V46.1376H251.154C251.293 45.6968 251.531 45.357 251.869 45.1184C252.211 44.8765 252.6 44.7555 253.038 44.7555C253.137 44.7555 253.248 44.7605 253.371 44.7704C253.497 44.777 253.601 44.7886 253.684 44.8052V46.4607C253.608 46.4342 253.487 46.411 253.321 46.3911C253.159 46.3679 253.001 46.3563 252.849 46.3563C252.521 46.3563 252.226 46.4276 251.964 46.5701C251.705 46.7093 251.502 46.9032 251.352 47.1518C251.203 47.4004 251.129 47.6871 251.129 48.0119V52.5012H249.329ZM257.946 52.6504C257.18 52.6504 256.519 52.4913 255.962 52.1731C255.409 51.8516 254.983 51.3975 254.685 50.8109C254.386 50.2209 254.237 49.5266 254.237 48.7278C254.237 47.9423 254.386 47.2529 254.685 46.6596C254.986 46.063 255.407 45.599 255.947 45.2676C256.488 44.9328 257.122 44.7654 257.852 44.7654C258.322 44.7654 258.766 44.8417 259.184 44.9941C259.605 45.1433 259.976 45.3753 260.298 45.6901C260.622 46.005 260.878 46.4061 261.063 46.8933C261.249 47.3772 261.342 47.9539 261.342 48.6234V49.1752H255.082V47.9622H259.616C259.613 47.6175 259.539 47.3109 259.393 47.0424C259.247 46.7706 259.043 46.5569 258.781 46.4011C258.523 46.2453 258.221 46.1674 257.876 46.1674C257.509 46.1674 257.185 46.2569 256.907 46.4359C256.629 46.6115 256.411 46.8436 256.256 47.1319C256.103 47.4169 256.025 47.7302 256.022 48.0715V49.1305C256.022 49.5746 256.103 49.9558 256.266 50.2739C256.428 50.5888 256.655 50.8308 256.947 50.9998C257.238 51.1655 257.58 51.2484 257.971 51.2484C258.233 51.2484 258.47 51.2119 258.682 51.139C258.894 51.0628 259.078 50.9517 259.234 50.8059C259.389 50.6601 259.507 50.4794 259.587 50.264L261.267 50.4529C261.161 50.8971 260.959 51.2848 260.661 51.6163C260.366 51.9444 259.988 52.1996 259.527 52.3819C259.066 52.5609 258.539 52.6504 257.946 52.6504ZM265.062 52.6553C264.578 52.6553 264.142 52.5692 263.754 52.3968C263.37 52.2212 263.065 51.9626 262.839 51.6212C262.617 51.2799 262.506 50.8589 262.506 50.3585C262.506 49.9276 262.586 49.5713 262.745 49.2896C262.904 49.0078 263.121 48.7825 263.396 48.6134C263.671 48.4444 263.981 48.3168 264.326 48.2306C264.674 48.1411 265.033 48.0765 265.405 48.0367C265.852 47.9903 266.215 47.9489 266.493 47.9124C266.772 47.8727 266.974 47.813 267.1 47.7335C267.229 47.6506 267.294 47.523 267.294 47.3507V47.3208C267.294 46.9463 267.183 46.6563 266.961 46.4508C266.739 46.2453 266.419 46.1426 266.001 46.1426C265.56 46.1426 265.211 46.2387 264.952 46.4309C264.697 46.6231 264.525 46.8502 264.435 47.112L262.755 46.8734C262.887 46.4094 263.106 46.0216 263.411 45.71C263.716 45.3952 264.089 45.1598 264.53 45.0041C264.97 44.845 265.458 44.7654 265.991 44.7654C266.359 44.7654 266.725 44.8085 267.09 44.8947C267.455 44.9809 267.788 45.1234 268.089 45.3222C268.391 45.5178 268.633 45.7846 268.815 46.1227C269.001 46.4607 269.094 46.8833 269.094 47.3904V52.5012H267.363V51.4522H267.304C267.194 51.6643 267.04 51.8632 266.841 52.0488C266.646 52.2311 266.399 52.3786 266.101 52.4913C265.806 52.6007 265.459 52.6553 265.062 52.6553ZM265.529 51.3329C265.89 51.3329 266.203 51.2616 266.469 51.1191C266.734 50.9733 266.938 50.7811 267.08 50.5424C267.226 50.3038 267.299 50.0436 267.299 49.7619V48.862C267.242 48.9084 267.146 48.9515 267.01 48.9913C266.878 49.0311 266.729 49.0659 266.563 49.0957C266.397 49.1255 266.233 49.152 266.071 49.1752C265.908 49.1984 265.768 49.2183 265.648 49.2349C265.38 49.2713 265.14 49.331 264.927 49.4139C264.715 49.4967 264.548 49.6127 264.425 49.7619C264.303 49.9077 264.241 50.0966 264.241 50.3286C264.241 50.6601 264.362 50.9103 264.604 51.0793C264.846 51.2484 265.154 51.3329 265.529 51.3329ZM274.716 44.8649V46.2569H270.327V44.8649H274.716ZM271.41 43.0353H273.21V50.2043C273.21 50.4463 273.247 50.6319 273.319 50.7612C273.396 50.8871 273.495 50.9733 273.618 51.0197C273.74 51.0661 273.876 51.0893 274.025 51.0893C274.138 51.0893 274.241 51.081 274.334 51.0644C274.43 51.0479 274.503 51.0329 274.552 51.0197L274.856 52.4266C274.76 52.4598 274.622 52.4962 274.443 52.536C274.267 52.5758 274.052 52.599 273.797 52.6056C273.346 52.6189 272.94 52.5509 272.579 52.4018C272.217 52.2493 271.931 52.014 271.719 51.6958C271.51 51.3776 271.407 50.9799 271.41 50.5026V43.0353ZM279.52 52.6504C278.755 52.6504 278.093 52.4913 277.537 52.1731C276.983 51.8516 276.557 51.3975 276.259 50.8109C275.961 50.2209 275.811 49.5266 275.811 48.7278C275.811 47.9423 275.961 47.2529 276.259 46.6596C276.56 46.063 276.981 45.599 277.522 45.2676C278.062 44.9328 278.697 44.7654 279.426 44.7654C279.896 44.7654 280.341 44.8417 280.758 44.9941C281.179 45.1433 281.55 45.3753 281.872 45.6901C282.197 46.005 282.452 46.4061 282.637 46.8933C282.823 47.3772 282.916 47.9539 282.916 48.6234V49.1752H276.657V47.9622H281.191C281.187 47.6175 281.113 47.3109 280.967 47.0424C280.821 46.7706 280.617 46.5569 280.355 46.4011C280.097 46.2453 279.795 46.1674 279.451 46.1674C279.083 46.1674 278.76 46.2569 278.481 46.4359C278.203 46.6115 277.986 46.8436 277.83 47.1319C277.677 47.4169 277.6 47.7302 277.596 48.0715V49.1305C277.596 49.5746 277.677 49.9558 277.84 50.2739C278.002 50.5888 278.229 50.8308 278.521 50.9998C278.813 51.1655 279.154 51.2484 279.545 51.2484C279.807 51.2484 280.044 51.2119 280.256 51.139C280.468 51.0628 280.652 50.9517 280.808 50.8059C280.964 50.6601 281.081 50.4794 281.161 50.264L282.841 50.4529C282.735 50.8971 282.533 51.2848 282.235 51.6163C281.94 51.9444 281.562 52.1996 281.101 52.3819C280.641 52.5609 280.114 52.6504 279.52 52.6504ZM290.108 52.6553C289.625 52.6553 289.189 52.5692 288.801 52.3968C288.416 52.2212 288.112 51.9626 287.886 51.6212C287.664 51.2799 287.553 50.8589 287.553 50.3585C287.553 49.9276 287.633 49.5713 287.792 49.2896C287.951 49.0078 288.168 48.7825 288.443 48.6134C288.718 48.4444 289.028 48.3168 289.373 48.2306C289.721 48.1411 290.08 48.0765 290.452 48.0367C290.899 47.9903 291.262 47.9489 291.54 47.9124C291.819 47.8727 292.021 47.813 292.147 47.7335C292.276 47.6506 292.341 47.523 292.341 47.3507V47.3208C292.341 46.9463 292.23 46.6563 292.008 46.4508C291.786 46.2453 291.466 46.1426 291.048 46.1426C290.607 46.1426 290.258 46.2387 289.999 46.4309C289.744 46.6231 289.572 46.8502 289.482 47.112L287.802 46.8734C287.934 46.4094 288.153 46.0216 288.458 45.71C288.763 45.3952 289.136 45.1598 289.577 45.0041C290.017 44.845 290.505 44.7654 291.038 44.7654C291.406 44.7654 291.772 44.8085 292.137 44.8947C292.501 44.9809 292.835 45.1234 293.136 45.3222C293.438 45.5178 293.68 45.7846 293.862 46.1227C294.048 46.4607 294.14 46.8833 294.14 47.3904V52.5012H292.41V51.4522H292.351C292.241 51.6643 292.087 51.8632 291.888 52.0488C291.693 52.2311 291.446 52.3786 291.148 52.4913C290.853 52.6007 290.506 52.6553 290.108 52.6553ZM290.576 51.3329C290.937 51.3329 291.25 51.2616 291.515 51.1191C291.781 50.9733 291.984 50.7811 292.127 50.5424C292.273 50.3038 292.346 50.0436 292.346 49.7619V48.862C292.289 48.9084 292.193 48.9515 292.057 48.9913C291.925 49.0311 291.776 49.0659 291.61 49.0957C291.444 49.1255 291.28 49.152 291.118 49.1752C290.955 49.1984 290.814 49.2183 290.695 49.2349C290.427 49.2713 290.186 49.331 289.974 49.4139C289.762 49.4967 289.595 49.6127 289.472 49.7619C289.349 49.9077 289.288 50.0966 289.288 50.3286C289.288 50.6601 289.409 50.9103 289.651 51.0793C289.893 51.2484 290.201 51.3329 290.576 51.3329ZM307.869 42.3194V52.5012H306.229L301.431 45.5659H301.347V52.5012H299.502V42.3194H301.153L305.945 49.2597H306.035V42.3194H307.869ZM313.18 52.6504C312.415 52.6504 311.754 52.4913 311.197 52.1731C310.643 51.8516 310.217 51.3975 309.919 50.8109C309.621 50.2209 309.472 49.5266 309.472 48.7278C309.472 47.9423 309.621 47.2529 309.919 46.6596C310.221 46.063 310.642 45.599 311.182 45.2676C311.722 44.9328 312.357 44.7654 313.086 44.7654C313.557 44.7654 314.001 44.8417 314.418 44.9941C314.839 45.1433 315.21 45.3753 315.532 45.6901C315.857 46.005 316.112 46.4061 316.298 46.8933C316.483 47.3772 316.576 47.9539 316.576 48.6234V49.1752H310.317V47.9622H314.851C314.848 47.6175 314.773 47.3109 314.627 47.0424C314.481 46.7706 314.277 46.5569 314.016 46.4011C313.757 46.2453 313.455 46.1674 313.111 46.1674C312.743 46.1674 312.42 46.2569 312.141 46.4359C311.863 46.6115 311.646 46.8436 311.49 47.1319C311.338 47.4169 311.26 47.7302 311.256 48.0715V49.1305C311.256 49.5746 311.338 49.9558 311.5 50.2739C311.662 50.5888 311.889 50.8308 312.181 50.9998C312.473 51.1655 312.814 51.2484 313.205 51.2484C313.467 51.2484 313.704 51.2119 313.916 51.139C314.128 51.0628 314.312 50.9517 314.468 50.8059C314.624 50.6601 314.741 50.4794 314.821 50.264L316.501 50.4529C316.395 50.8971 316.193 51.2848 315.895 51.6163C315.6 51.9444 315.222 52.1996 314.761 52.3819C314.301 52.5609 313.774 52.6504 313.18 52.6504ZM319.634 52.5012L317.476 44.8649H319.31L320.653 50.2342H320.722L322.094 44.8649H323.909L325.281 50.2043H325.356L326.678 44.8649H328.518L326.355 52.5012H324.481L323.049 47.3407H322.945L321.513 52.5012H319.634ZM333.327 52.5012V42.3194H339.849V43.8656H335.171V46.6298H339.402V48.1759H335.171V52.5012H333.327ZM341.45 52.5012V44.8649H343.25V52.5012H341.45ZM342.355 43.7811C342.07 43.7811 341.825 43.6866 341.619 43.4977C341.414 43.3054 341.311 43.0751 341.311 42.8066C341.311 42.5348 341.414 42.3045 341.619 42.1156C341.825 41.9233 342.07 41.8272 342.355 41.8272C342.643 41.8272 342.889 41.9233 343.091 42.1156C343.296 42.3045 343.399 42.5348 343.399 42.8066C343.399 43.0751 343.296 43.3054 343.091 43.4977C342.889 43.6866 342.643 43.7811 342.355 43.7811ZM346.9 42.3194V52.5012H345.1V42.3194H346.9ZM352.132 52.6504C351.366 52.6504 350.705 52.4913 350.148 52.1731C349.594 51.8516 349.169 51.3975 348.87 50.8109C348.572 50.2209 348.423 49.5266 348.423 48.7278C348.423 47.9423 348.572 47.2529 348.87 46.6596C349.172 46.063 349.593 45.599 350.133 45.2676C350.673 44.9328 351.308 44.7654 352.037 44.7654C352.508 44.7654 352.952 44.8417 353.369 44.9941C353.79 45.1433 354.162 45.3753 354.483 45.6901C354.808 46.005 355.063 46.4061 355.249 46.8933C355.434 47.3772 355.527 47.9539 355.527 48.6234V49.1752H349.268V47.9622H353.802C353.799 47.6175 353.724 47.3109 353.578 47.0424C353.432 46.7706 353.229 46.5569 352.967 46.4011C352.708 46.2453 352.407 46.1674 352.062 46.1674C351.694 46.1674 351.371 46.2569 351.093 46.4359C350.814 46.6115 350.597 46.8436 350.441 47.1319C350.289 47.4169 350.211 47.7302 350.208 48.0715V49.1305C350.208 49.5746 350.289 49.9558 350.451 50.2739C350.614 50.5888 350.841 50.8308 351.132 50.9998C351.424 51.1655 351.765 51.2484 352.156 51.2484C352.418 51.2484 352.655 51.2119 352.867 51.139C353.079 51.0628 353.263 50.9517 353.419 50.8059C353.575 50.6601 353.693 50.4794 353.772 50.264L355.453 50.4529C355.347 50.8971 355.144 51.2848 354.846 51.6163C354.551 51.9444 354.173 52.1996 353.713 52.3819C353.252 52.5609 352.725 52.6504 352.132 52.6504ZM364.336 44.8649V46.2569H359.946V44.8649H364.336ZM361.029 43.0353H362.829V50.2043C362.829 50.4463 362.866 50.6319 362.939 50.7612C363.015 50.8871 363.114 50.9733 363.237 51.0197C363.359 51.0661 363.495 51.0893 363.645 51.0893C363.757 51.0893 363.86 51.081 363.953 51.0644C364.049 51.0479 364.122 51.0329 364.172 51.0197L364.475 52.4266C364.379 52.4598 364.241 52.4962 364.062 52.536C363.886 52.5758 363.671 52.599 363.416 52.6056C362.965 52.6189 362.559 52.5509 362.198 52.4018C361.837 52.2493 361.55 52.014 361.338 51.6958C361.129 51.3776 361.026 50.9799 361.029 50.5026V43.0353ZM369.09 52.6504C368.344 52.6504 367.698 52.4863 367.151 52.1582C366.604 51.8301 366.18 51.371 365.878 50.7811C365.58 50.1911 365.431 49.5017 365.431 48.7129C365.431 47.924 365.58 47.233 365.878 46.6397C366.18 46.0464 366.604 45.5857 367.151 45.2576C367.698 44.9295 368.344 44.7654 369.09 44.7654C369.835 44.7654 370.482 44.9295 371.029 45.2576C371.575 45.5857 371.998 46.0464 372.296 46.6397C372.598 47.233 372.749 47.924 372.749 48.7129C372.749 49.5017 372.598 50.1911 372.296 50.7811C371.998 51.371 371.575 51.8301 371.029 52.1582C370.482 52.4863 369.835 52.6504 369.09 52.6504ZM369.1 51.2086C369.504 51.2086 369.842 51.0976 370.114 50.8755C370.386 50.6501 370.588 50.3485 370.72 49.9707C370.856 49.5928 370.924 49.1719 370.924 48.7079C370.924 48.2406 370.856 47.818 370.72 47.4401C370.588 47.059 370.386 46.7557 370.114 46.5303C369.842 46.305 369.504 46.1923 369.1 46.1923C368.685 46.1923 368.341 46.305 368.066 46.5303C367.794 46.7557 367.59 47.059 367.454 47.4401C367.321 47.818 367.255 48.2406 367.255 48.7079C367.255 49.1719 367.321 49.5928 367.454 49.9707C367.59 50.3485 367.794 50.6501 368.066 50.8755C368.341 51.0976 368.685 51.2086 369.1 51.2086ZM377.132 42.3194H379.216L381.706 46.8237H381.806L384.297 42.3194H386.38L382.676 48.7029V52.5012H380.836V48.7029L377.132 42.3194ZM389.515 52.6504C388.77 52.6504 388.123 52.4863 387.577 52.1582C387.03 51.8301 386.605 51.371 386.304 50.7811C386.006 50.1911 385.856 49.5017 385.856 48.7129C385.856 47.924 386.006 47.233 386.304 46.6397C386.605 46.0464 387.03 45.5857 387.577 45.2576C388.123 44.9295 388.77 44.7654 389.515 44.7654C390.261 44.7654 390.907 44.9295 391.454 45.2576C392.001 45.5857 392.424 46.0464 392.722 46.6397C393.024 47.233 393.175 47.924 393.175 48.7129C393.175 49.5017 393.024 50.1911 392.722 50.7811C392.424 51.371 392.001 51.8301 391.454 52.1582C390.907 52.4863 390.261 52.6504 389.515 52.6504ZM389.525 51.2086C389.93 51.2086 390.268 51.0976 390.54 50.8755C390.811 50.6501 391.014 50.3485 391.146 49.9707C391.282 49.5928 391.35 49.1719 391.35 48.7079C391.35 48.2406 391.282 47.818 391.146 47.4401C391.014 47.059 390.811 46.7557 390.54 46.5303C390.268 46.305 389.93 46.1923 389.525 46.1923C389.111 46.1923 388.766 46.305 388.491 46.5303C388.22 46.7557 388.016 47.059 387.88 47.4401C387.747 47.818 387.681 48.2406 387.681 48.7079C387.681 49.1719 387.747 49.5928 387.88 49.9707C388.016 50.3485 388.22 50.6501 388.491 50.8755C388.766 51.0976 389.111 51.2086 389.525 51.2086ZM399.569 49.2896V44.8649H401.369V52.5012H399.624V51.144H399.544C399.372 51.5715 399.089 51.9212 398.694 52.193C398.303 52.4648 397.821 52.6007 397.248 52.6007C396.747 52.6007 396.305 52.4896 395.92 52.2676C395.539 52.0422 395.241 51.7157 395.025 51.2882C394.81 50.8573 394.702 50.3369 394.702 49.7271V44.8649H396.502V49.4487C396.502 49.9326 396.634 50.317 396.9 50.6021C397.165 50.8871 397.513 51.0296 397.944 51.0296C398.209 51.0296 398.466 50.965 398.714 50.8357C398.963 50.7065 399.167 50.5142 399.326 50.259C399.488 50.0005 399.569 49.6774 399.569 49.2896ZM403.22 52.5012V44.8649H404.965V46.1376H405.044C405.183 45.6968 405.422 45.357 405.76 45.1184C406.102 44.8765 406.491 44.7555 406.928 44.7555C407.028 44.7555 407.139 44.7605 407.262 44.7704C407.387 44.777 407.492 44.7886 407.575 44.8052V46.4607C407.499 46.4342 407.378 46.411 407.212 46.3911C407.049 46.3679 406.892 46.3563 406.74 46.3563C406.411 46.3563 406.116 46.4276 405.855 46.5701C405.596 46.7093 405.392 46.9032 405.243 47.1518C405.094 47.4004 405.019 47.6871 405.019 48.0119V52.5012H403.22ZM412.323 52.5012V42.3194H416.22C416.956 42.3194 417.568 42.4354 418.055 42.6674C418.545 42.8961 418.912 43.2093 419.154 43.607C419.399 44.0048 419.521 44.4555 419.521 44.9593C419.521 45.3736 419.442 45.7283 419.283 46.0232C419.124 46.3149 418.91 46.5519 418.642 46.7342C418.373 46.9165 418.073 47.0474 417.742 47.1269V47.2264C418.103 47.2462 418.449 47.3573 418.781 47.5595C419.115 47.7583 419.389 48.04 419.601 48.4046C419.813 48.7692 419.919 49.21 419.919 49.7271C419.919 50.2541 419.792 50.728 419.536 51.1489C419.281 51.5666 418.897 51.8963 418.383 52.1383C417.869 52.3802 417.223 52.5012 416.444 52.5012H412.323ZM414.167 50.96H416.151C416.82 50.96 417.302 50.8324 417.597 50.5772C417.896 50.3187 418.045 49.9873 418.045 49.5829C418.045 49.2813 417.97 49.0095 417.821 48.7676C417.672 48.5223 417.46 48.3301 417.185 48.1909C416.91 48.0483 416.582 47.9771 416.2 47.9771H414.167V50.96ZM414.167 46.6497H415.992C416.31 46.6497 416.597 46.5917 416.852 46.4757C417.107 46.3563 417.307 46.189 417.453 45.9735C417.602 45.7548 417.677 45.4962 417.677 45.198C417.677 44.8035 417.538 44.4787 417.259 44.2235C416.984 43.9683 416.575 43.8407 416.031 43.8407H414.167V46.6497ZM426.311 49.2896V44.8649H428.111V52.5012H426.366V51.144H426.287C426.114 51.5715 425.831 51.9212 425.436 52.193C425.045 52.4648 424.563 52.6007 423.99 52.6007C423.489 52.6007 423.047 52.4896 422.662 52.2676C422.281 52.0422 421.983 51.7157 421.767 51.2882C421.552 50.8573 421.444 50.3369 421.444 49.7271V44.8649H423.244V49.4487C423.244 49.9326 423.377 50.317 423.642 50.6021C423.907 50.8871 424.255 51.0296 424.686 51.0296C424.951 51.0296 425.208 50.965 425.456 50.8357C425.705 50.7065 425.909 50.5142 426.068 50.259C426.23 50.0005 426.311 49.6774 426.311 49.2896ZM433.293 52.6504C432.53 52.6504 431.876 52.483 431.329 52.1482C430.785 51.8135 430.366 51.3511 430.071 50.7612C429.78 50.1679 429.634 49.4851 429.634 48.7129C429.634 47.9373 429.783 47.2529 430.081 46.6596C430.379 46.063 430.8 45.599 431.344 45.2676C431.891 44.9328 432.537 44.7654 433.283 44.7654C433.903 44.7654 434.451 44.8798 434.928 45.1085C435.409 45.3338 435.792 45.6537 436.077 46.068C436.362 46.479 436.524 46.9596 436.564 47.5097H434.844C434.774 47.1418 434.609 46.8353 434.347 46.59C434.088 46.3414 433.742 46.2171 433.308 46.2171C432.94 46.2171 432.617 46.3166 432.338 46.5154C432.06 46.711 431.843 46.9927 431.687 47.3606C431.535 47.7285 431.458 48.1693 431.458 48.683C431.458 49.2034 431.535 49.6508 431.687 50.0254C431.839 50.3966 432.053 50.6833 432.328 50.8855C432.607 51.0843 432.933 51.1837 433.308 51.1837C433.573 51.1837 433.81 51.134 434.019 51.0346C434.231 50.9319 434.408 50.7844 434.551 50.5921C434.693 50.3999 434.791 50.1662 434.844 49.8911H436.564C436.521 50.4314 436.362 50.9103 436.087 51.3279C435.812 51.7422 435.437 52.067 434.963 52.3024C434.489 52.5344 433.932 52.6504 433.293 52.6504ZM439.683 50.1049L439.678 47.9323H439.966L442.71 44.8649H444.813L441.438 48.6234H441.065L439.683 50.1049ZM438.042 52.5012V42.3194H439.842V52.5012H438.042ZM442.835 52.5012L440.349 49.0261L441.562 47.7583L444.987 52.5012H442.835ZM449.079 52.6504C448.313 52.6504 447.652 52.4913 447.095 52.1731C446.542 51.8516 446.116 51.3975 445.817 50.8109C445.519 50.2209 445.37 49.5266 445.37 48.7278C445.37 47.9423 445.519 47.2529 445.817 46.6596C446.119 46.063 446.54 45.599 447.08 45.2676C447.621 44.9328 448.255 44.7654 448.984 44.7654C449.455 44.7654 449.899 44.8417 450.317 44.9941C450.738 45.1433 451.109 45.3753 451.43 45.6901C451.755 46.005 452.01 46.4061 452.196 46.8933C452.382 47.3772 452.474 47.9539 452.474 48.6234V49.1752H446.215V47.9622H450.749C450.746 47.6175 450.671 47.3109 450.526 47.0424C450.38 46.7706 450.176 46.5569 449.914 46.4011C449.656 46.2453 449.354 46.1674 449.009 46.1674C448.641 46.1674 448.318 46.2569 448.04 46.4359C447.761 46.6115 447.544 46.8436 447.388 47.1319C447.236 47.4169 447.158 47.7302 447.155 48.0715V49.1305C447.155 49.5746 447.236 49.9558 447.398 50.2739C447.561 50.5888 447.788 50.8308 448.08 50.9998C448.371 51.1655 448.713 51.2484 449.104 51.2484C449.366 51.2484 449.603 51.2119 449.815 51.139C450.027 51.0628 450.211 50.9517 450.366 50.8059C450.522 50.6601 450.64 50.4794 450.719 50.264L452.4 50.4529C452.294 50.8971 452.092 51.2848 451.793 51.6163C451.498 51.9444 451.121 52.1996 450.66 52.3819C450.199 52.5609 449.672 52.6504 449.079 52.6504ZM457.81 44.8649V46.2569H453.42V44.8649H457.81ZM454.504 43.0353H456.304V50.2043C456.304 50.4463 456.34 50.6319 456.413 50.7612C456.489 50.8871 456.589 50.9733 456.711 51.0197C456.834 51.0661 456.97 51.0893 457.119 51.0893C457.232 51.0893 457.335 51.081 457.427 51.0644C457.523 51.0479 457.596 51.0329 457.646 51.0197L457.949 52.4266C457.853 52.4598 457.716 52.4962 457.537 52.536C457.361 52.5758 457.146 52.599 456.89 52.6056C456.44 52.6189 456.034 52.5509 455.672 52.4018C455.311 52.2493 455.024 52.014 454.812 51.6958C454.604 51.3776 454.501 50.9799 454.504 50.5026V43.0353Z" fill="white"/>
<rect x="204.5" y="27.5012" width="270" height="39" rx="3.5" stroke="#C00D53"/>
<g filter="url(#filter0_d_1107_56840)">
<rect x="-112.666" y="152.131" width="253.333" height="1" fill="#F2F2F8"/>
<path d="M-112.666 99.0012H140.667V152.261H-112.666V99.0012Z" fill="white"/>
<rect width="253.333" height="79.1011" transform="translate(-112.666 153.001)" fill="white"/>
<rect x="140.666" y="152.131" width="253.333" height="1" fill="#F2F2F8"/>
<path d="M140.666 99.0012H393.999V152.261H140.666V99.0012Z" fill="white"/>
<path d="M180.873 123.742H179.544C179.493 123.458 179.398 123.208 179.258 122.992C179.119 122.776 178.949 122.593 178.747 122.442C178.545 122.292 178.319 122.178 178.069 122.102C177.822 122.025 177.559 121.986 177.281 121.986C176.778 121.986 176.328 122.113 175.93 122.366C175.535 122.619 175.223 122.989 174.993 123.478C174.765 123.967 174.652 124.563 174.652 125.268C174.652 125.978 174.765 126.577 174.993 127.066C175.223 127.555 175.537 127.924 175.934 128.174C176.332 128.424 176.78 128.549 177.277 128.549C177.552 128.549 177.814 128.512 178.061 128.438C178.311 128.361 178.537 128.249 178.738 128.102C178.94 127.954 179.111 127.773 179.25 127.56C179.392 127.344 179.49 127.097 179.544 126.819L180.873 126.823C180.802 127.252 180.665 127.647 180.46 128.008C180.258 128.366 179.998 128.675 179.68 128.937C179.365 129.195 179.004 129.396 178.598 129.538C178.192 129.68 177.748 129.751 177.268 129.751C176.513 129.751 175.839 129.572 175.248 129.214C174.657 128.853 174.192 128.337 173.851 127.667C173.513 126.996 173.344 126.197 173.344 125.268C173.344 124.336 173.514 123.536 173.855 122.869C174.196 122.198 174.662 121.684 175.253 121.326C175.844 120.965 176.515 120.785 177.268 120.785C177.731 120.785 178.163 120.852 178.564 120.985C178.967 121.116 179.329 121.309 179.65 121.565C179.971 121.817 180.237 122.127 180.447 122.494C180.657 122.857 180.8 123.273 180.873 123.742ZM183.889 129.631V120.904H187C187.676 120.904 188.237 121.021 188.683 121.254C189.132 121.486 189.467 121.809 189.689 122.221C189.91 122.63 190.021 123.103 190.021 123.64C190.021 124.174 189.909 124.644 189.684 125.05C189.463 125.454 189.128 125.768 188.679 125.992C188.233 126.217 187.672 126.329 186.996 126.329H184.639V125.195H186.876C187.302 125.195 187.649 125.134 187.916 125.012C188.186 124.89 188.383 124.712 188.508 124.479C188.633 124.246 188.696 123.967 188.696 123.64C188.696 123.31 188.632 123.025 188.504 122.783C188.379 122.542 188.182 122.357 187.912 122.229C187.645 122.099 187.294 122.033 186.859 122.033H185.206V129.631H183.889ZM188.197 125.694L190.354 129.631H188.854L186.74 125.694H188.197ZM193.063 129.631V120.904H198.535V122.038H194.38V124.697H198.249V125.826H194.38V128.498H198.586V129.631H193.063ZM202.471 129.631H201.073L204.214 120.904H205.735L208.876 129.631H207.478L205.011 122.489H204.943L202.471 129.631ZM202.705 126.214H207.24V127.322H202.705V126.214ZM210.115 122.038V120.904H216.869V122.038H214.146V129.631H212.833V122.038H210.115ZM219.801 129.631V120.904H225.273V122.038H221.118V124.697H224.987V125.826H221.118V128.498H225.324V129.631H219.801ZM231.297 129.631H228.472V120.904H231.387C232.242 120.904 232.976 121.079 233.59 121.428C234.203 121.775 234.674 122.273 235 122.924C235.33 123.572 235.495 124.349 235.495 125.255C235.495 126.164 235.328 126.945 234.996 127.599C234.666 128.252 234.189 128.755 233.564 129.107C232.939 129.457 232.184 129.631 231.297 129.631ZM229.789 128.481H231.225C231.889 128.481 232.442 128.356 232.882 128.106C233.323 127.853 233.652 127.488 233.871 127.011C234.09 126.53 234.199 125.945 234.199 125.255C234.199 124.57 234.09 123.989 233.871 123.512C233.655 123.035 233.333 122.673 232.904 122.425C232.475 122.178 231.942 122.055 231.306 122.055H229.789V128.481Z" fill="#616B7C"/>
<rect width="253.333" height="79.1011" transform="translate(140.666 153.001)" fill="white"/>
<rect x="394" y="152.131" width="80" height="1" fill="#F2F2F8"/>
<path d="M394 99.0012H458C466.837 99.0012 474 106.165 474 115.001V152.261H394V99.0012Z" fill="white"/>
<rect width="80" height="79.1011" transform="translate(394 153.001)" fill="white"/>
<rect x="-686.5" y="98.5012" width="1161" height="455" rx="16.5" stroke="#F2F2F8"/>
</g>
</g>
</g>
<rect x="0.5" y="0.501221" width="469" height="171" rx="16.5" stroke="#F2F2F8"/>
<defs>
<filter id="filter0_d_1107_56840" x="-719" y="82.0012" width="1226" height="520" filterUnits="userSpaceOnUse" color-interpolation-filters="sRGB">
<feFlood flood-opacity="0" result="BackgroundImageFix"/>
<feColorMatrix in="SourceAlpha" type="matrix" values="0 0 0 0 0 0 0 0 0 0 0 0 0 0 0 0 0 0 127 0" result="hardAlpha"/>
<feOffset dy="16"/>
<feGaussianBlur stdDeviation="16"/>
<feColorMatrix type="matrix" values="0 0 0 0 0.215686 0 0 0 0 0.231373 0 0 0 0 0.301961 0 0 0 0.02 0"/>
<feBlend mode="normal" in2="BackgroundImageFix" result="effect1_dropShadow_1107_56840"/>
<feBlend mode="normal" in="SourceGraphic" in2="effect1_dropShadow_1107_56840" result="shape"/>
</filter>
<clipPath id="clip0_1107_56840">
<rect x="1" y="1.00122" width="468" height="170" rx="16" fill="white"/>
</clipPath>
<clipPath id="clip1_1107_56840">
<rect width="1725" height="1111" fill="white" transform="translate(-1069 -269.999)"/>
</clipPath>
</defs>
</svg>
