<svg width="482" height="395" viewBox="0 0 482 395" fill="none" xmlns="http://www.w3.org/2000/svg">
<g clip-path="url(#clip0_1192_78742)">
<rect x="1" y="1.49805" width="392.5" height="392.5" rx="16" fill="#FCFCFF"/>
<g filter="url(#filter0_b_1192_78742)">
<rect x="68" y="259.498" width="326" height="90" fill="white" fill-opacity="0.7"/>
</g>
<g filter="url(#filter1_b_1192_78742)">
<rect x="68" y="68.498" width="326" height="78" fill="white" fill-opacity="0.7"/>
</g>
<g clip-path="url(#clip1_1192_78742)">
<rect width="1728" height="1117" transform="translate(-1163 -468.502)" fill="#FCFCFF"/>
<g filter="url(#filter2_d_1192_78742)">
<rect x="-238.5" y="32.5486" width="271.75" height="1" fill="#F2F2F8"/>
<rect width="271.75" height="79.1011" transform="translate(-238.5 -46.502)" fill="white"/>
<rect x="-238.5" y="112.549" width="271.75" height="1" fill="#F2F2F8"/>
<rect width="271.75" height="79.1011" transform="translate(-238.5 33.498)" fill="white"/>
<rect x="-238.5" y="192.549" width="271.75" height="1" fill="#F2F2F8"/>
<rect width="271.75" height="79.1011" transform="translate(-238.5 113.498)" fill="white"/>
<rect width="271.75" height="80" transform="translate(-238.5 193.498)" fill="white"/>
<rect x="33.25" y="32.5486" width="271.75" height="1" fill="#F2F2F8"/>
<rect width="271.75" height="79.1011" transform="translate(33.25 -46.502)" fill="white"/>
<rect x="33.25" y="112.549" width="271.75" height="1" fill="#F2F2F8"/>
<rect width="271.75" height="79.1011" transform="translate(33.25 33.498)" fill="white"/>
<path d="M66.9006 78.5486H65.608L69.3466 68.3668H70.6193L74.358 78.5486H73.0653L70.0227 69.9776H69.9432L66.9006 78.5486ZM67.3778 74.5713H72.5881V75.6651H67.3778V74.5713ZM81.5121 70.9122C81.4524 70.4084 81.2105 70.0173 80.7862 69.7389C80.362 69.4605 79.8416 69.3213 79.2251 69.3213C78.7744 69.3213 78.38 69.3942 78.0419 69.5401C77.7071 69.6859 77.4453 69.8864 77.2564 70.1416C77.0708 70.3968 76.978 70.6868 76.978 71.0117C76.978 71.2834 77.0426 71.5171 77.1719 71.7126C77.3045 71.9049 77.4735 72.0656 77.679 72.1949C77.8845 72.3208 78.0999 72.4252 78.3253 72.5081C78.5507 72.5876 78.7578 72.6523 78.9467 72.702L79.9808 72.9804C80.246 73.05 80.541 73.1461 80.8658 73.2688C81.1939 73.3914 81.5071 73.5588 81.8054 73.7709C82.107 73.9797 82.3556 74.2482 82.5511 74.5763C82.7467 74.9044 82.8445 75.3071 82.8445 75.7844C82.8445 76.3346 82.7003 76.8317 82.4119 77.2759C82.1269 77.72 81.7093 78.073 81.1591 78.3348C80.6122 78.5966 79.9477 78.7276 79.1655 78.7276C78.4363 78.7276 77.8049 78.6099 77.2713 78.3746C76.741 78.1393 76.3234 77.8111 76.0185 77.3902C75.7169 76.9693 75.5462 76.4804 75.5064 75.9236H76.7791C76.8123 76.3081 76.9415 76.6262 77.1669 76.8781C77.3956 77.1267 77.6839 77.3123 78.032 77.4349C78.3833 77.5543 78.7611 77.6139 79.1655 77.6139C79.6361 77.6139 80.0587 77.5377 80.4332 77.3852C80.8078 77.2295 81.1044 77.014 81.3232 76.7389C81.5419 76.4605 81.6513 76.1357 81.6513 75.7645C81.6513 75.4264 81.5568 75.1513 81.3679 74.9392C81.179 74.7271 80.9304 74.5547 80.6222 74.4222C80.3139 74.2896 79.9808 74.1736 79.6229 74.0742L78.37 73.7162C77.5746 73.4875 76.9448 73.161 76.4808 72.7368C76.0168 72.3126 75.7848 71.7574 75.7848 71.0713C75.7848 70.5012 75.9389 70.0041 76.2472 69.5798C76.5587 69.1523 76.9763 68.8208 77.5 68.5855C78.027 68.3469 78.6153 68.2276 79.2649 68.2276C79.9212 68.2276 80.5045 68.3452 81.0149 68.5805C81.5253 68.8126 81.9297 69.1307 82.228 69.5351C82.5296 69.9394 82.6887 70.3985 82.7053 70.9122H81.5121ZM93.0648 71.5486H91.8319C91.7589 71.1939 91.6313 70.8824 91.449 70.6139C91.2701 70.3455 91.0513 70.1201 90.7928 69.9378C90.5376 69.7522 90.2542 69.613 89.9426 69.5202C89.6311 69.4274 89.3063 69.381 88.9682 69.381C88.3517 69.381 87.7933 69.5367 87.2928 69.8483C86.7956 70.1599 86.3996 70.6189 86.1046 71.2254C85.8129 71.832 85.6671 72.576 85.6671 73.4577C85.6671 74.3393 85.8129 75.0834 86.1046 75.6899C86.3996 76.2965 86.7956 76.7555 87.2928 77.067C87.7933 77.3786 88.3517 77.5344 88.9682 77.5344C89.3063 77.5344 89.6311 77.488 89.9426 77.3952C90.2542 77.3024 90.5376 77.1648 90.7928 76.9825C91.0513 76.7969 91.2701 76.5699 91.449 76.3014C91.6313 76.0296 91.7589 75.7181 91.8319 75.3668H93.0648C92.972 75.8871 92.803 76.3528 92.5577 76.7638C92.3124 77.1748 92.0075 77.5244 91.6429 77.8128C91.2784 78.0978 90.869 78.3149 90.415 78.4641C89.9642 78.6132 89.4819 78.6878 88.9682 78.6878C88.0998 78.6878 87.3276 78.4757 86.6515 78.0514C85.9753 77.6272 85.4434 77.024 85.0556 76.2418C84.6678 75.4596 84.4739 74.5315 84.4739 73.4577C84.4739 72.3838 84.6678 71.4558 85.0556 70.6736C85.4434 69.8914 85.9753 69.2882 86.6515 68.8639C87.3276 68.4397 88.0998 68.2276 88.9682 68.2276C89.4819 68.2276 89.9642 68.3021 90.415 68.4513C90.869 68.6004 91.2784 68.8192 91.6429 69.1075C92.0075 69.3926 92.3124 69.7406 92.5577 70.1516C92.803 70.5592 92.972 71.0249 93.0648 71.5486Z" fill="#616B7C"/>
<rect x="33.25" y="192.549" width="271.75" height="1" fill="#F2F2F8"/>
<rect width="271.75" height="79.1011" transform="translate(33.25 113.498)" fill="white"/>
<path d="M69.625 158.549H66.483V148.367H69.7642C70.7519 148.367 71.5971 148.571 72.2997 148.978C73.0024 149.383 73.541 149.964 73.9155 150.723C74.29 151.479 74.4773 152.384 74.4773 153.438C74.4773 154.498 74.2884 155.412 73.9105 156.177C73.5327 156.939 72.9825 157.526 72.2599 157.937C71.5374 158.345 70.6591 158.549 69.625 158.549ZM67.7159 157.455H69.5455C70.3873 157.455 71.085 157.292 71.6385 156.968C72.192 156.643 72.6046 156.18 72.8764 155.581C73.1482 154.981 73.2841 154.266 73.2841 153.438C73.2841 152.616 73.1499 151.908 72.8814 151.315C72.6129 150.718 72.2119 150.261 71.6783 149.943C71.1446 149.621 70.4801 149.461 69.6847 149.461H67.7159V157.455ZM76.5455 158.549V148.367H82.6903V149.461H77.7784V152.901H82.3722V153.995H77.7784V157.455H82.7699V158.549H76.5455ZM90.4808 150.912C90.4212 150.408 90.1792 150.017 89.755 149.739C89.3307 149.461 88.8104 149.321 88.1939 149.321C87.7431 149.321 87.3487 149.394 87.0107 149.54C86.6759 149.686 86.4141 149.886 86.2251 150.142C86.0395 150.397 85.9467 150.687 85.9467 151.012C85.9467 151.283 86.0114 151.517 86.1406 151.713C86.2732 151.905 86.4422 152.066 86.6477 152.195C86.8532 152.321 87.0687 152.425 87.294 152.508C87.5194 152.588 87.7266 152.652 87.9155 152.702L88.9496 152.98C89.2147 153.05 89.5097 153.146 89.8345 153.269C90.1626 153.391 90.4759 153.559 90.7741 153.771C91.0758 153.98 91.3243 154.248 91.5199 154.576C91.7154 154.904 91.8132 155.307 91.8132 155.784C91.8132 156.335 91.669 156.832 91.3807 157.276C91.0956 157.72 90.678 158.073 90.1278 158.335C89.581 158.597 88.9164 158.728 88.1342 158.728C87.4051 158.728 86.7737 158.61 86.2401 158.375C85.7098 158.139 85.2921 157.811 84.9872 157.39C84.6856 156.969 84.5149 156.48 84.4751 155.924H85.7479C85.781 156.308 85.9103 156.626 86.1357 156.878C86.3643 157.127 86.6527 157.312 87.0007 157.435C87.352 157.554 87.7299 157.614 88.1342 157.614C88.6049 157.614 89.0275 157.538 89.402 157.385C89.7765 157.229 90.0732 157.014 90.2919 156.739C90.5107 156.461 90.62 156.136 90.62 155.764C90.62 155.426 90.5256 155.151 90.3366 154.939C90.1477 154.727 89.8991 154.555 89.5909 154.422C89.2827 154.29 88.9496 154.174 88.5916 154.074L87.3388 153.716C86.5433 153.488 85.9136 153.161 85.4496 152.737C84.9856 152.313 84.7536 151.757 84.7536 151.071C84.7536 150.501 84.9077 150.004 85.2159 149.58C85.5275 149.152 85.9451 148.821 86.4688 148.586C86.9957 148.347 87.584 148.228 88.2337 148.228C88.8899 148.228 89.4732 148.345 89.9837 148.581C90.4941 148.813 90.8984 149.131 91.1967 149.535C91.4983 149.939 91.6574 150.398 91.674 150.912H90.4808ZM102.034 151.549H100.801C100.728 151.194 100.6 150.882 100.418 150.614C100.239 150.345 100.02 150.12 99.7615 149.938C99.5063 149.752 99.223 149.613 98.9114 149.52C98.5998 149.427 98.275 149.381 97.937 149.381C97.3205 149.381 96.762 149.537 96.2615 149.848C95.7644 150.16 95.3683 150.619 95.0733 151.225C94.7817 151.832 94.6358 152.576 94.6358 153.458C94.6358 154.339 94.7817 155.083 95.0733 155.69C95.3683 156.296 95.7644 156.755 96.2615 157.067C96.762 157.379 97.3205 157.534 97.937 157.534C98.275 157.534 98.5998 157.488 98.9114 157.395C99.223 157.302 99.5063 157.165 99.7615 156.983C100.02 156.797 100.239 156.57 100.418 156.301C100.6 156.03 100.728 155.718 100.801 155.367H102.034C101.941 155.887 101.772 156.353 101.526 156.764C101.281 157.175 100.976 157.524 100.612 157.813C100.247 158.098 99.8378 158.315 99.3837 158.464C98.9329 158.613 98.4507 158.688 97.937 158.688C97.0686 158.688 96.2963 158.476 95.6202 158.051C94.9441 157.627 94.4121 157.024 94.0243 156.242C93.6365 155.46 93.4426 154.532 93.4426 153.458C93.4426 152.384 93.6365 151.456 94.0243 150.674C94.4121 149.891 94.9441 149.288 95.6202 148.864C96.2963 148.44 97.0686 148.228 97.937 148.228C98.4507 148.228 98.9329 148.302 99.3837 148.451C99.8378 148.6 100.247 148.819 100.612 149.108C100.976 149.393 101.281 149.741 101.526 150.152C101.772 150.559 101.941 151.025 102.034 151.549Z" fill="#616B7C"/>
<rect width="271.75" height="80" transform="translate(33.25 193.498)" fill="white"/>
<path d="M66.9006 238.998H65.608L69.3466 228.816H70.6193L74.358 238.998H73.0653L70.0227 230.427H69.9432L66.9006 238.998ZM67.3778 235.021H72.5881V236.115H67.3778V235.021ZM81.5121 231.362C81.4524 230.858 81.2105 230.467 80.7862 230.188C80.362 229.91 79.8416 229.771 79.2251 229.771C78.7744 229.771 78.38 229.844 78.0419 229.99C77.7071 230.135 77.4453 230.336 77.2564 230.591C77.0708 230.846 76.978 231.136 76.978 231.461C76.978 231.733 77.0426 231.967 77.1719 232.162C77.3045 232.354 77.4735 232.515 77.679 232.644C77.8845 232.77 78.0999 232.875 78.3253 232.958C78.5507 233.037 78.7578 233.102 78.9467 233.151L79.9808 233.43C80.246 233.499 80.541 233.596 80.8658 233.718C81.1939 233.841 81.5071 234.008 81.8054 234.22C82.107 234.429 82.3556 234.698 82.5511 235.026C82.7467 235.354 82.8445 235.757 82.8445 236.234C82.8445 236.784 82.7003 237.281 82.4119 237.725C82.1269 238.169 81.7093 238.522 81.1591 238.784C80.6122 239.046 79.9477 239.177 79.1655 239.177C78.4363 239.177 77.8049 239.059 77.2713 238.824C76.741 238.589 76.3234 238.261 76.0185 237.84C75.7169 237.419 75.5462 236.93 75.5064 236.373H76.7791C76.8123 236.758 76.9415 237.076 77.1669 237.328C77.3956 237.576 77.6839 237.762 78.032 237.884C78.3833 238.004 78.7611 238.063 79.1655 238.063C79.6361 238.063 80.0587 237.987 80.4332 237.835C80.8078 237.679 81.1044 237.463 81.3232 237.188C81.5419 236.91 81.6513 236.585 81.6513 236.214C81.6513 235.876 81.5568 235.601 81.3679 235.389C81.179 235.177 80.9304 235.004 80.6222 234.872C80.3139 234.739 79.9808 234.623 79.6229 234.524L78.37 234.166C77.5746 233.937 76.9448 233.61 76.4808 233.186C76.0168 232.762 75.7848 232.207 75.7848 231.521C75.7848 230.951 75.9389 230.454 76.2472 230.029C76.5587 229.602 76.9763 229.27 77.5 229.035C78.027 228.796 78.6153 228.677 79.2649 228.677C79.9212 228.677 80.5045 228.795 81.0149 229.03C81.5253 229.262 81.9297 229.58 82.228 229.985C82.5296 230.389 82.6887 230.848 82.7053 231.362H81.5121ZM93.0648 231.998H91.8319C91.7589 231.643 91.6313 231.332 91.449 231.063C91.2701 230.795 91.0513 230.57 90.7928 230.387C90.5376 230.202 90.2542 230.062 89.9426 229.97C89.6311 229.877 89.3063 229.83 88.9682 229.83C88.3517 229.83 87.7933 229.986 87.2928 230.298C86.7956 230.609 86.3996 231.068 86.1046 231.675C85.8129 232.281 85.6671 233.026 85.6671 233.907C85.6671 234.789 85.8129 235.533 86.1046 236.139C86.3996 236.746 86.7956 237.205 87.2928 237.517C87.7933 237.828 88.3517 237.984 88.9682 237.984C89.3063 237.984 89.6311 237.937 89.9426 237.845C90.2542 237.752 90.5376 237.614 90.7928 237.432C91.0513 237.246 91.2701 237.019 91.449 236.751C91.6313 236.479 91.7589 236.168 91.8319 235.816H93.0648C92.972 236.337 92.803 236.802 92.5577 237.213C92.3124 237.624 92.0075 237.974 91.6429 238.262C91.2784 238.547 90.869 238.764 90.415 238.914C89.9642 239.063 89.4819 239.137 88.9682 239.137C88.0998 239.137 87.3276 238.925 86.6515 238.501C85.9753 238.077 85.4434 237.473 85.0556 236.691C84.6678 235.909 84.4739 234.981 84.4739 233.907C84.4739 232.833 84.6678 231.905 85.0556 231.123C85.4434 230.341 85.9753 229.738 86.6515 229.313C87.3276 228.889 88.0998 228.677 88.9682 228.677C89.4819 228.677 89.9642 228.752 90.415 228.901C90.869 229.05 91.2784 229.269 91.6429 229.557C92.0075 229.842 92.3124 230.19 92.5577 230.601C92.803 231.009 92.972 231.474 93.0648 231.998ZM102.435 228.339L99.1538 240.529H98.0799L101.361 228.339H102.435ZM111.064 238.998H107.922V228.816H111.204C112.191 228.816 113.037 229.02 113.739 229.428C114.442 229.832 114.98 230.414 115.355 231.173C115.729 231.928 115.917 232.833 115.917 233.887C115.917 234.948 115.728 235.861 115.35 236.627C114.972 237.389 114.422 237.976 113.699 238.387C112.977 238.794 112.099 238.998 111.064 238.998ZM109.155 237.904H110.985C111.827 237.904 112.524 237.742 113.078 237.417C113.631 237.092 114.044 236.63 114.316 236.03C114.588 235.43 114.724 234.716 114.724 233.887C114.724 233.065 114.589 232.358 114.321 231.764C114.052 231.168 113.651 230.71 113.118 230.392C112.584 230.071 111.92 229.91 111.124 229.91H109.155V237.904ZM117.985 238.998V228.816H124.13V229.91H119.218V233.35H123.812V234.444H119.218V237.904H124.209V238.998H117.985ZM131.92 231.362C131.861 230.858 131.619 230.467 131.194 230.188C130.77 229.91 130.25 229.771 129.633 229.771C129.183 229.771 128.788 229.844 128.45 229.99C128.115 230.135 127.854 230.336 127.665 230.591C127.479 230.846 127.386 231.136 127.386 231.461C127.386 231.733 127.451 231.967 127.58 232.162C127.713 232.354 127.882 232.515 128.087 232.644C128.293 232.77 128.508 232.875 128.733 232.958C128.959 233.037 129.166 233.102 129.355 233.151L130.389 233.43C130.654 233.499 130.949 233.596 131.274 233.718C131.602 233.841 131.915 234.008 132.214 234.22C132.515 234.429 132.764 234.698 132.959 235.026C133.155 235.354 133.253 235.757 133.253 236.234C133.253 236.784 133.108 237.281 132.82 237.725C132.535 238.169 132.117 238.522 131.567 238.784C131.02 239.046 130.356 239.177 129.574 239.177C128.845 239.177 128.213 239.059 127.68 238.824C127.149 238.589 126.732 238.261 126.427 237.84C126.125 237.419 125.954 236.93 125.915 236.373H127.187C127.22 236.758 127.35 237.076 127.575 237.328C127.804 237.576 128.092 237.762 128.44 237.884C128.791 238.004 129.169 238.063 129.574 238.063C130.044 238.063 130.467 237.987 130.841 237.835C131.216 237.679 131.513 237.463 131.731 237.188C131.95 236.91 132.059 236.585 132.059 236.214C132.059 235.876 131.965 235.601 131.776 235.389C131.587 235.177 131.339 235.004 131.03 234.872C130.722 234.739 130.389 234.623 130.031 234.524L128.778 234.166C127.983 233.937 127.353 233.61 126.889 233.186C126.425 232.762 126.193 232.207 126.193 231.521C126.193 230.951 126.347 230.454 126.655 230.029C126.967 229.602 127.385 229.27 127.908 229.035C128.435 228.796 129.023 228.677 129.673 228.677C130.329 228.677 130.913 228.795 131.423 229.03C131.934 229.262 132.338 229.58 132.636 229.985C132.938 230.389 133.097 230.848 133.113 231.362H131.92ZM143.473 231.998H142.24C142.167 231.643 142.04 231.332 141.857 231.063C141.678 230.795 141.46 230.57 141.201 230.387C140.946 230.202 140.662 230.062 140.351 229.97C140.039 229.877 139.714 229.83 139.376 229.83C138.76 229.83 138.201 229.986 137.701 230.298C137.204 230.609 136.808 231.068 136.513 231.675C136.221 232.281 136.075 233.026 136.075 233.907C136.075 234.789 136.221 235.533 136.513 236.139C136.808 236.746 137.204 237.205 137.701 237.517C138.201 237.828 138.76 237.984 139.376 237.984C139.714 237.984 140.039 237.937 140.351 237.845C140.662 237.752 140.946 237.614 141.201 237.432C141.46 237.246 141.678 237.019 141.857 236.751C142.04 236.479 142.167 236.168 142.24 235.816H143.473C143.38 236.337 143.211 236.802 142.966 237.213C142.721 237.624 142.416 237.974 142.051 238.262C141.687 238.547 141.277 238.764 140.823 238.914C140.372 239.063 139.89 239.137 139.376 239.137C138.508 239.137 137.736 238.925 137.06 238.501C136.384 238.077 135.852 237.473 135.464 236.691C135.076 235.909 134.882 234.981 134.882 233.907C134.882 232.833 135.076 231.905 135.464 231.123C135.852 230.341 136.384 229.738 137.06 229.313C137.736 228.889 138.508 228.677 139.376 228.677C139.89 228.677 140.372 228.752 140.823 228.901C141.277 229.05 141.687 229.269 142.051 229.557C142.416 229.842 142.721 230.19 142.966 230.601C143.211 231.009 143.38 231.474 143.473 231.998Z" fill="#616B7C"/>
<rect x="305" y="32.5486" width="80" height="1" fill="#F2F2F8"/>
<rect width="80" height="79.1011" transform="translate(305 -46.502)" fill="white"/>
<rect x="305" y="112.549" width="80" height="1" fill="#F2F2F8"/>
<rect width="80" height="79.1011" transform="translate(305 33.498)" fill="white"/>
<path d="M340.2 73.0484C340.2 74.3739 339.126 75.4484 337.8 75.4484C336.475 75.4484 335.4 74.3739 335.4 73.0484C335.4 71.723 336.475 70.6484 337.8 70.6484C339.126 70.6484 340.2 71.723 340.2 73.0484Z" fill="#868EA3"/>
<path d="M347.4 73.0484C347.4 74.3739 346.326 75.4484 345 75.4484C343.675 75.4484 342.6 74.3739 342.6 73.0484C342.6 71.723 343.675 70.6484 345 70.6484C346.326 70.6484 347.4 71.723 347.4 73.0484Z" fill="#868EA3"/>
<path d="M352.2 75.4484C353.526 75.4484 354.6 74.3739 354.6 73.0484C354.6 71.723 353.526 70.6484 352.2 70.6484C350.875 70.6484 349.8 71.723 349.8 73.0484C349.8 74.3739 350.875 75.4484 352.2 75.4484Z" fill="#868EA3"/>
<rect x="305" y="192.549" width="80" height="1" fill="#F2F2F8"/>
<rect width="80" height="79.1011" transform="translate(305 113.498)" fill="white"/>
<path d="M340.2 153.048C340.2 154.374 339.126 155.448 337.8 155.448C336.475 155.448 335.4 154.374 335.4 153.048C335.4 151.723 336.475 150.648 337.8 150.648C339.126 150.648 340.2 151.723 340.2 153.048Z" fill="#868EA3"/>
<path d="M347.4 153.048C347.4 154.374 346.326 155.448 345 155.448C343.675 155.448 342.6 154.374 342.6 153.048C342.6 151.723 343.675 150.648 345 150.648C346.326 150.648 347.4 151.723 347.4 153.048Z" fill="#868EA3"/>
<path d="M352.2 155.448C353.526 155.448 354.6 154.374 354.6 153.048C354.6 151.723 353.526 150.648 352.2 150.648C350.875 150.648 349.8 151.723 349.8 153.048C349.8 154.374 350.875 155.448 352.2 155.448Z" fill="#868EA3"/>
<path d="M305 193.498H385V257.498C385 266.335 377.837 273.498 369 273.498H305V193.498Z" fill="white"/>
<path d="M340.2 233.498C340.2 234.824 339.126 235.898 337.8 235.898C336.475 235.898 335.4 234.824 335.4 233.498C335.4 232.173 336.475 231.098 337.8 231.098C339.126 231.098 340.2 232.173 340.2 233.498Z" fill="#868EA3"/>
<path d="M347.4 233.498C347.4 234.824 346.326 235.898 345 235.898C343.675 235.898 342.6 234.824 342.6 233.498C342.6 232.173 343.675 231.098 345 231.098C346.326 231.098 347.4 232.173 347.4 233.498Z" fill="#868EA3"/>
<path d="M352.2 235.898C353.526 235.898 354.6 234.824 354.6 233.498C354.6 232.173 353.526 231.098 352.2 231.098C350.875 231.098 349.8 232.173 349.8 233.498C349.8 234.824 350.875 235.898 352.2 235.898Z" fill="#868EA3"/>
<rect x="-782.5" y="-101.002" width="1168" height="375" rx="16.5" stroke="#F2F2F8"/>
</g>
<g filter="url(#filter3_d_1192_78742)">
<rect x="78.5" y="245.998" width="278" height="101" rx="7.5" fill="white"/>
<rect x="90" y="257.498" width="255" height="37" rx="8" fill="#F2F2F8"/>
<path d="M111.824 276.407C111.824 277.481 111.63 278.409 111.242 279.191C110.854 279.973 110.322 280.577 109.646 281.001C108.97 281.425 108.198 281.637 107.33 281.637C106.461 281.637 105.689 281.425 105.013 281.001C104.337 280.577 103.805 279.973 103.417 279.191C103.029 278.409 102.835 277.481 102.835 276.407C102.835 275.333 103.029 274.405 103.417 273.623C103.805 272.841 104.337 272.238 105.013 271.813C105.689 271.389 106.461 271.177 107.33 271.177C108.198 271.177 108.97 271.389 109.646 271.813C110.322 272.238 110.854 272.841 111.242 273.623C111.63 274.405 111.824 275.333 111.824 276.407ZM110.631 276.407C110.631 275.526 110.483 274.781 110.188 274.175C109.897 273.568 109.5 273.109 109 272.798C108.503 272.486 107.946 272.33 107.33 272.33C106.713 272.33 106.155 272.486 105.654 272.798C105.157 273.109 104.761 273.568 104.466 274.175C104.174 274.781 104.028 275.526 104.028 276.407C104.028 277.289 104.174 278.033 104.466 278.639C104.761 279.246 105.157 279.705 105.654 280.017C106.155 280.328 106.713 280.484 107.33 280.484C107.946 280.484 108.503 280.328 109 280.017C109.5 279.705 109.897 279.246 110.188 278.639C110.483 278.033 110.631 277.289 110.631 276.407ZM119.982 273.862L117.158 281.498H115.965L113.141 273.862H114.414L116.522 279.947H116.602L118.71 273.862H119.982ZM124.459 281.657C123.723 281.657 123.089 281.495 122.555 281.17C122.025 280.842 121.615 280.384 121.327 279.798C121.042 279.208 120.9 278.522 120.9 277.74C120.9 276.957 121.042 276.268 121.327 275.671C121.615 275.071 122.016 274.604 122.53 274.269C123.047 273.931 123.65 273.762 124.34 273.762C124.738 273.762 125.13 273.829 125.518 273.961C125.906 274.094 126.259 274.309 126.577 274.607C126.895 274.902 127.149 275.294 127.338 275.781C127.527 276.268 127.621 276.868 127.621 277.58V278.078H121.735V277.063H126.428C126.428 276.633 126.342 276.248 126.169 275.91C126 275.572 125.758 275.305 125.444 275.11C125.132 274.914 124.764 274.816 124.34 274.816C123.873 274.816 123.468 274.932 123.127 275.164C122.789 275.393 122.529 275.691 122.346 276.059C122.164 276.427 122.073 276.821 122.073 277.242V277.919C122.073 278.495 122.172 278.984 122.371 279.385C122.573 279.783 122.853 280.086 123.211 280.295C123.569 280.5 123.985 280.603 124.459 280.603C124.767 280.603 125.046 280.56 125.294 280.474C125.546 280.384 125.763 280.252 125.946 280.076C126.128 279.897 126.269 279.675 126.368 279.41L127.502 279.728C127.382 280.113 127.182 280.451 126.9 280.742C126.618 281.031 126.27 281.256 125.856 281.419C125.442 281.578 124.976 281.657 124.459 281.657ZM129.406 281.498V273.862H130.539V275.015H130.619C130.758 274.637 131.01 274.331 131.375 274.095C131.739 273.86 132.15 273.742 132.608 273.742C132.694 273.742 132.801 273.744 132.931 273.747C133.06 273.751 133.158 273.756 133.224 273.762V274.955C133.184 274.945 133.093 274.931 132.951 274.911C132.811 274.887 132.664 274.876 132.508 274.876C132.137 274.876 131.806 274.954 131.514 275.11C131.225 275.262 130.997 275.474 130.828 275.746C130.662 276.014 130.579 276.321 130.579 276.666V281.498H129.406ZM141.092 273.862L138.268 281.498H137.075L134.251 273.862H135.523L137.631 279.947H137.711L139.819 273.862H141.092ZM142.64 281.498V273.862H143.814V281.498H142.64ZM143.237 272.589C143.008 272.589 142.811 272.511 142.645 272.355C142.483 272.2 142.402 272.012 142.402 271.794C142.402 271.575 142.483 271.387 142.645 271.232C142.811 271.076 143.008 270.998 143.237 270.998C143.466 270.998 143.661 271.076 143.824 271.232C143.989 271.387 144.072 271.575 144.072 271.794C144.072 272.012 143.989 272.2 143.824 272.355C143.661 272.511 143.466 272.589 143.237 272.589ZM149.164 281.657C148.428 281.657 147.794 281.495 147.26 281.17C146.73 280.842 146.32 280.384 146.032 279.798C145.747 279.208 145.605 278.522 145.605 277.74C145.605 276.957 145.747 276.268 146.032 275.671C146.32 275.071 146.722 274.604 147.235 274.269C147.752 273.931 148.356 273.762 149.045 273.762C149.443 273.762 149.835 273.829 150.223 273.961C150.611 274.094 150.964 274.309 151.282 274.607C151.6 274.902 151.854 275.294 152.043 275.781C152.232 276.268 152.326 276.868 152.326 277.58V278.078H146.44V277.063H151.133C151.133 276.633 151.047 276.248 150.874 275.91C150.705 275.572 150.463 275.305 150.149 275.11C149.837 274.914 149.469 274.816 149.045 274.816C148.578 274.816 148.173 274.932 147.832 275.164C147.494 275.393 147.234 275.691 147.051 276.059C146.869 276.427 146.778 276.821 146.778 277.242V277.919C146.778 278.495 146.877 278.984 147.076 279.385C147.278 279.783 147.558 280.086 147.916 280.295C148.274 280.5 148.69 280.603 149.164 280.603C149.472 280.603 149.751 280.56 149.999 280.474C150.251 280.384 150.468 280.252 150.651 280.076C150.833 279.897 150.974 279.675 151.073 279.41L152.207 279.728C152.088 280.113 151.887 280.451 151.605 280.742C151.324 281.031 150.976 281.256 150.561 281.419C150.147 281.578 149.681 281.657 149.164 281.657ZM155.841 281.498L153.514 273.862H154.747L156.398 279.708H156.477L158.108 273.862H159.361L160.972 279.688H161.051L162.702 273.862H163.935L161.608 281.498H160.455L158.784 275.632H158.665L156.994 281.498H155.841Z" fill="#616B7C"/>
<path d="M322.999 277.998C324.104 277.998 324.999 277.103 324.999 275.998C324.999 274.893 324.104 273.998 322.999 273.998C321.895 273.998 320.999 274.893 320.999 275.998C320.999 277.103 321.895 277.998 322.999 277.998Z" fill="#A3A8BD"/>
<path fill-rule="evenodd" clip-rule="evenodd" d="M313.457 275.998C314.731 271.941 318.522 268.998 322.999 268.998C327.477 268.998 331.267 271.941 332.541 275.998C331.267 280.055 327.477 282.998 322.999 282.998C318.522 282.998 314.731 280.055 313.457 275.998ZM326.999 275.998C326.999 278.207 325.208 279.998 322.999 279.998C320.79 279.998 318.999 278.207 318.999 275.998C318.999 273.789 320.79 271.998 322.999 271.998C325.208 271.998 326.999 273.789 326.999 275.998Z" fill="#A3A8BD"/>
<path d="M106.375 322.498H103.233V312.316H106.514C107.502 312.316 108.347 312.52 109.05 312.928C109.752 313.332 110.291 313.914 110.665 314.673C111.04 315.428 111.227 316.333 111.227 317.387C111.227 318.448 111.038 319.361 110.661 320.127C110.283 320.889 109.732 321.476 109.01 321.887C108.287 322.294 107.409 322.498 106.375 322.498ZM104.466 321.404H106.295C107.137 321.404 107.835 321.242 108.388 320.917C108.942 320.592 109.355 320.13 109.626 319.53C109.898 318.93 110.034 318.216 110.034 317.387C110.034 316.565 109.9 315.858 109.631 315.264C109.363 314.668 108.962 314.21 108.428 313.892C107.895 313.571 107.23 313.41 106.435 313.41H104.466V321.404ZM116.338 322.657C115.602 322.657 114.968 322.495 114.434 322.17C113.904 321.842 113.494 321.384 113.206 320.798C112.921 320.208 112.778 319.522 112.778 318.74C112.778 317.957 112.921 317.268 113.206 316.671C113.494 316.071 113.895 315.604 114.409 315.269C114.926 314.931 115.529 314.762 116.219 314.762C116.616 314.762 117.009 314.829 117.397 314.961C117.785 315.094 118.138 315.309 118.456 315.607C118.774 315.902 119.028 316.294 119.217 316.781C119.406 317.268 119.5 317.868 119.5 318.58V319.078H113.614V318.063H118.307C118.307 317.633 118.221 317.248 118.048 316.91C117.879 316.572 117.637 316.305 117.322 316.11C117.011 315.914 116.643 315.816 116.219 315.816C115.751 315.816 115.347 315.932 115.006 316.164C114.668 316.393 114.407 316.691 114.225 317.059C114.043 317.427 113.952 317.821 113.952 318.242V318.919C113.952 319.495 114.051 319.984 114.25 320.385C114.452 320.783 114.732 321.086 115.09 321.295C115.448 321.5 115.864 321.603 116.338 321.603C116.646 321.603 116.925 321.56 117.173 321.474C117.425 321.384 117.642 321.252 117.825 321.076C118.007 320.897 118.148 320.675 118.247 320.41L119.381 320.728C119.261 321.113 119.061 321.451 118.779 321.742C118.497 322.031 118.149 322.256 117.735 322.419C117.321 322.578 116.855 322.657 116.338 322.657ZM122.458 312.316V322.498H121.285V312.316H122.458ZM127.809 322.657C127.073 322.657 126.438 322.495 125.905 322.17C125.374 321.842 124.965 321.384 124.677 320.798C124.392 320.208 124.249 319.522 124.249 318.74C124.249 317.957 124.392 317.268 124.677 316.671C124.965 316.071 125.366 315.604 125.88 315.269C126.397 314.931 127 314.762 127.689 314.762C128.087 314.762 128.48 314.829 128.868 314.961C129.256 315.094 129.608 315.309 129.927 315.607C130.245 315.902 130.498 316.294 130.687 316.781C130.876 317.268 130.971 317.868 130.971 318.58V319.078H125.084V318.063H129.778C129.778 317.633 129.691 317.248 129.519 316.91C129.35 316.572 129.108 316.305 128.793 316.11C128.482 315.914 128.114 315.816 127.689 315.816C127.222 315.816 126.818 315.932 126.476 316.164C126.138 316.393 125.878 316.691 125.696 317.059C125.514 317.427 125.422 317.821 125.422 318.242V318.919C125.422 319.495 125.522 319.984 125.721 320.385C125.923 320.783 126.203 321.086 126.561 321.295C126.919 321.5 127.335 321.603 127.809 321.603C128.117 321.603 128.395 321.56 128.644 321.474C128.896 321.384 129.113 321.252 129.295 321.076C129.478 320.897 129.618 320.675 129.718 320.41L130.851 320.728C130.732 321.113 130.532 321.451 130.25 321.742C129.968 322.031 129.62 322.256 129.206 322.419C128.791 322.578 128.326 322.657 127.809 322.657ZM136.077 314.862V315.856H132.119V314.862H136.077ZM133.273 313.032H134.446V320.311C134.446 320.642 134.494 320.891 134.59 321.056C134.689 321.219 134.815 321.328 134.968 321.384C135.124 321.437 135.288 321.464 135.46 321.464C135.589 321.464 135.695 321.457 135.778 321.444C135.861 321.427 135.927 321.414 135.977 321.404L136.216 322.458C136.136 322.488 136.025 322.518 135.883 322.548C135.74 322.581 135.559 322.597 135.341 322.597C135.009 322.597 134.684 322.526 134.366 322.384C134.051 322.241 133.79 322.024 133.581 321.732C133.375 321.441 133.273 321.073 133.273 320.629V313.032ZM140.961 322.657C140.225 322.657 139.591 322.495 139.057 322.17C138.527 321.842 138.117 321.384 137.829 320.798C137.544 320.208 137.401 319.522 137.401 318.74C137.401 317.957 137.544 317.268 137.829 316.671C138.117 316.071 138.518 315.604 139.032 315.269C139.549 314.931 140.152 314.762 140.842 314.762C141.24 314.762 141.632 314.829 142.02 314.961C142.408 315.094 142.761 315.309 143.079 315.607C143.397 315.902 143.651 316.294 143.84 316.781C144.029 317.268 144.123 317.868 144.123 318.58V319.078H138.237V318.063H142.93C142.93 317.633 142.844 317.248 142.671 316.91C142.502 316.572 142.26 316.305 141.945 316.11C141.634 315.914 141.266 315.816 140.842 315.816C140.374 315.816 139.97 315.932 139.629 316.164C139.291 316.393 139.03 316.691 138.848 317.059C138.666 317.427 138.575 317.821 138.575 318.242V318.919C138.575 319.495 138.674 319.984 138.873 320.385C139.075 320.783 139.355 321.086 139.713 321.295C140.071 321.5 140.487 321.603 140.961 321.603C141.269 321.603 141.548 321.56 141.796 321.474C142.048 321.384 142.265 321.252 142.448 321.076C142.63 320.897 142.771 320.675 142.87 320.41L144.004 320.728C143.884 321.113 143.684 321.451 143.402 321.742C143.12 322.031 142.772 322.256 142.358 322.419C141.944 322.578 141.478 322.657 140.961 322.657Z" fill="#616B7C"/>
<path fill-rule="evenodd" clip-rule="evenodd" d="M322 308.998C321.621 308.998 321.275 309.212 321.106 309.551L320.382 310.998H317C316.448 310.998 316 311.446 316 311.998C316 312.55 316.448 312.998 317 312.998L317 322.998C317 324.103 317.895 324.998 319 324.998H327C328.105 324.998 329 324.103 329 322.998V312.998C329.552 312.998 330 312.55 330 311.998C330 311.446 329.552 310.998 329 310.998H325.618L324.894 309.551C324.725 309.212 324.379 308.998 324 308.998H322ZM320 314.998C320 314.446 320.448 313.998 321 313.998C321.552 313.998 322 314.446 322 314.998V320.998C322 321.55 321.552 321.998 321 321.998C320.448 321.998 320 321.55 320 320.998V314.998ZM325 313.998C324.448 313.998 324 314.446 324 314.998V320.998C324 321.55 324.448 321.998 325 321.998C325.552 321.998 326 321.55 326 320.998V314.998C326 314.446 325.552 313.998 325 313.998Z" fill="#C4C6D7"/>
<rect x="78.5" y="245.998" width="278" height="101" rx="7.5" stroke="#F2F2F8"/>
</g>
</g>
</g>
<rect x="0.5" y="0.998047" width="481" height="393.5" rx="16.5" stroke="#F2F2F8"/>
<defs>
<filter id="filter0_b_1192_78742" x="60" y="251.498" width="342" height="106" filterUnits="userSpaceOnUse" color-interpolation-filters="sRGB">
<feFlood flood-opacity="0" result="BackgroundImageFix"/>
<feGaussianBlur in="BackgroundImageFix" stdDeviation="4"/>
<feComposite in2="SourceAlpha" operator="in" result="effect1_backgroundBlur_1192_78742"/>
<feBlend mode="normal" in="SourceGraphic" in2="effect1_backgroundBlur_1192_78742" result="shape"/>
</filter>
<filter id="filter1_b_1192_78742" x="60" y="60.498" width="342" height="94" filterUnits="userSpaceOnUse" color-interpolation-filters="sRGB">
<feFlood flood-opacity="0" result="BackgroundImageFix"/>
<feGaussianBlur in="BackgroundImageFix" stdDeviation="4"/>
<feComposite in2="SourceAlpha" operator="in" result="effect1_backgroundBlur_1192_78742"/>
<feBlend mode="normal" in="SourceGraphic" in2="effect1_backgroundBlur_1192_78742" result="shape"/>
</filter>
<filter id="filter2_d_1192_78742" x="-815" y="-117.502" width="1233" height="440" filterUnits="userSpaceOnUse" color-interpolation-filters="sRGB">
<feFlood flood-opacity="0" result="BackgroundImageFix"/>
<feColorMatrix in="SourceAlpha" type="matrix" values="0 0 0 0 0 0 0 0 0 0 0 0 0 0 0 0 0 0 127 0" result="hardAlpha"/>
<feOffset dy="16"/>
<feGaussianBlur stdDeviation="16"/>
<feColorMatrix type="matrix" values="0 0 0 0 0.215686 0 0 0 0 0.231373 0 0 0 0 0.301961 0 0 0 0.02 0"/>
<feBlend mode="normal" in2="BackgroundImageFix" result="effect1_dropShadow_1192_78742"/>
<feBlend mode="normal" in="SourceGraphic" in2="effect1_dropShadow_1192_78742" result="shape"/>
</filter>
<filter id="filter3_d_1192_78742" x="46" y="229.498" width="343" height="166" filterUnits="userSpaceOnUse" color-interpolation-filters="sRGB">
<feFlood flood-opacity="0" result="BackgroundImageFix"/>
<feColorMatrix in="SourceAlpha" type="matrix" values="0 0 0 0 0 0 0 0 0 0 0 0 0 0 0 0 0 0 127 0" result="hardAlpha"/>
<feOffset dy="16"/>
<feGaussianBlur stdDeviation="16"/>
<feColorMatrix type="matrix" values="0 0 0 0 0.215686 0 0 0 0 0.231373 0 0 0 0 0.301961 0 0 0 0.04 0"/>
<feBlend mode="normal" in2="BackgroundImageFix" result="effect1_dropShadow_1192_78742"/>
<feBlend mode="normal" in="SourceGraphic" in2="effect1_dropShadow_1192_78742" result="shape"/>
</filter>
<clipPath id="clip0_1192_78742">
<rect x="1" y="1.49805" width="480" height="392.5" rx="16" fill="white"/>
</clipPath>
<clipPath id="clip1_1192_78742">
<rect width="1728" height="1117" fill="white" transform="translate(-1163 -468.502)"/>
</clipPath>
</defs>
</svg>
