<svg width="490" height="395" viewBox="0 0 490 395" fill="none" xmlns="http://www.w3.org/2000/svg">
<g clip-path="url(#clip0_1108_65672)">
<rect x="1" y="1.00024" width="392.5" height="392.5" rx="16" fill="#D9D9D9"/>
<g clip-path="url(#clip1_1108_65672)">
<rect width="1728" height="1719" transform="translate(-1166 -151)" fill="#FCFCFF"/>
<rect x="-966" y="-151" width="1528" height="250" fill="white"/>
<rect x="-965.5" y="-150.5" width="1527" height="249" stroke="#E8E9F0" stroke-opacity="0.5"/>
<rect x="-779" y="28.0002" width="1157" height="22" fill="url(#paint0_linear_1108_65672)"/>
<g filter="url(#filter0_d_1108_65672)">
<rect x="-190" y="66.0002" width="572" height="340" rx="16" fill="white" stroke="#F2F2F8"/>
<line x1="-112" y1="194.247" x2="351" y2="194.247" stroke="#E8E9F0" stroke-width="0.5"/>
<line x1="-112" y1="229.517" x2="351" y2="229.517" stroke="#E8E9F0" stroke-width="0.5"/>
<line x1="-112" y1="265.714" x2="351" y2="265.714" stroke="#E8E9F0" stroke-width="0.5"/>
<line x1="-112" y1="300.984" x2="351" y2="300.984" stroke="#E8E9F0" stroke-width="0.5"/>
<line x1="-112" y1="336.253" x2="351" y2="336.253" stroke="#E8E9F0" stroke-width="0.5"/>
<path d="M-111.5 337C-106.5 330.5 -99.4999 327.5 -89.7405 296.884C-85.2643 282.842 -73.1124 233.103 -55.0793 229.565C-21.932 223.062 -5.84578 265.517 20.9645 265.517C42.9002 265.517 51.858 255.24 69.3197 239.025C86.7814 222.81 97.5759 233.129 103.291 236.077C109.005 239.025 136.944 263.348 155.676 216.545C170.661 179.102 197.36 192.959 209.648 203.278C222.624 212.122 254.317 275.133 275.906 264.519C297.495 253.905 336.839 239.025 350 277.501" stroke="#F02E65"/>
</g>
<path d="M315.136 360.273V369H314.079V361.381H314.028L311.897 362.795V361.722L314.079 360.273H315.136ZM320.543 369.119C320.185 369.114 319.827 369.045 319.469 368.915C319.112 368.784 318.785 368.564 318.489 368.254C318.194 367.942 317.957 367.52 317.778 366.989C317.599 366.455 317.509 365.784 317.509 364.977C317.509 364.205 317.582 363.52 317.727 362.923C317.871 362.324 318.082 361.82 318.357 361.411C318.633 360.999 318.965 360.686 319.354 360.473C319.746 360.26 320.188 360.153 320.68 360.153C321.168 360.153 321.603 360.251 321.984 360.447C322.367 360.641 322.68 360.911 322.921 361.257C323.163 361.604 323.319 362.003 323.39 362.455H322.35C322.254 362.062 322.066 361.737 321.788 361.479C321.509 361.22 321.14 361.091 320.68 361.091C320.004 361.091 319.471 361.385 319.082 361.973C318.695 362.561 318.501 363.386 318.498 364.449H318.566C318.725 364.207 318.914 364.001 319.133 363.831C319.354 363.658 319.599 363.524 319.866 363.43C320.133 363.337 320.415 363.29 320.714 363.29C321.214 363.29 321.671 363.415 322.086 363.665C322.501 363.912 322.833 364.254 323.083 364.692C323.333 365.126 323.458 365.625 323.458 366.188C323.458 366.727 323.337 367.222 323.096 367.67C322.854 368.116 322.515 368.472 322.077 368.736C321.643 368.997 321.131 369.125 320.543 369.119ZM320.543 368.182C320.901 368.182 321.222 368.092 321.506 367.913C321.793 367.734 322.019 367.494 322.184 367.193C322.352 366.892 322.435 366.557 322.435 366.188C322.435 365.827 322.354 365.499 322.192 365.203C322.033 364.905 321.813 364.668 321.532 364.491C321.254 364.315 320.935 364.227 320.577 364.227C320.308 364.227 320.056 364.281 319.823 364.389C319.59 364.494 319.386 364.639 319.21 364.824C319.036 365.009 318.9 365.22 318.8 365.459C318.701 365.695 318.651 365.943 318.651 366.205C318.651 366.551 318.732 366.875 318.894 367.176C319.059 367.477 319.283 367.72 319.567 367.905C319.854 368.089 320.18 368.182 320.543 368.182ZM329.02 369H327.912L331.117 360.273H332.208L335.412 369H334.304L331.696 361.653H331.628L329.02 369ZM329.429 365.591H333.895V366.528H329.429V365.591ZM340.76 366.324V362.455H341.766V369H340.76V367.892H340.692C340.539 368.224 340.3 368.507 339.976 368.74C339.652 368.97 339.243 369.085 338.749 369.085C338.34 369.085 337.976 368.996 337.658 368.817C337.34 368.635 337.09 368.362 336.908 367.999C336.726 367.632 336.635 367.17 336.635 366.614V362.455H337.641V366.545C337.641 367.023 337.775 367.403 338.042 367.688C338.311 367.972 338.655 368.114 339.073 368.114C339.323 368.114 339.577 368.05 339.836 367.922C340.097 367.794 340.316 367.598 340.492 367.334C340.671 367.07 340.76 366.733 340.76 366.324ZM346.25 371.591C345.764 371.591 345.347 371.528 344.997 371.403C344.648 371.281 344.357 371.119 344.124 370.918C343.893 370.719 343.71 370.506 343.574 370.278L344.375 369.716C344.466 369.835 344.581 369.972 344.72 370.125C344.859 370.281 345.05 370.416 345.291 370.53C345.536 370.646 345.855 370.705 346.25 370.705C346.778 370.705 347.214 370.577 347.558 370.321C347.902 370.065 348.074 369.665 348.074 369.119V367.79H347.989C347.915 367.909 347.81 368.057 347.673 368.233C347.54 368.406 347.347 368.561 347.094 368.697C346.844 368.831 346.506 368.898 346.08 368.898C345.551 368.898 345.077 368.773 344.656 368.523C344.239 368.273 343.908 367.909 343.663 367.432C343.422 366.955 343.301 366.375 343.301 365.693C343.301 365.023 343.419 364.439 343.655 363.942C343.891 363.442 344.219 363.055 344.639 362.783C345.06 362.507 345.545 362.369 346.097 362.369C346.523 362.369 346.861 362.44 347.111 362.582C347.364 362.722 347.557 362.881 347.69 363.06C347.827 363.236 347.932 363.381 348.006 363.494H348.108V362.455H349.08V369.188C349.08 369.75 348.952 370.207 348.696 370.56C348.443 370.915 348.102 371.175 347.673 371.339C347.247 371.507 346.773 371.591 346.25 371.591ZM346.216 367.994C346.619 367.994 346.96 367.902 347.239 367.717C347.517 367.533 347.729 367.267 347.874 366.92C348.018 366.574 348.091 366.159 348.091 365.676C348.091 365.205 348.02 364.788 347.878 364.428C347.736 364.067 347.526 363.784 347.247 363.58C346.969 363.375 346.625 363.273 346.216 363.273C345.79 363.273 345.435 363.381 345.151 363.597C344.869 363.812 344.658 364.102 344.516 364.466C344.376 364.83 344.307 365.233 344.307 365.676C344.307 366.131 344.378 366.533 344.52 366.882C344.665 367.229 344.878 367.501 345.159 367.7C345.443 367.896 345.795 367.994 346.216 367.994Z" fill="#868EA3"/>
<path d="M311.815 119.639C311.158 119.639 310.573 119.527 310.06 119.301C309.549 119.076 309.143 118.763 308.842 118.362C308.543 117.957 308.381 117.488 308.354 116.955H309.607C309.634 117.283 309.746 117.566 309.945 117.805C310.144 118.04 310.404 118.222 310.726 118.352C311.047 118.481 311.404 118.545 311.795 118.545C312.232 118.545 312.62 118.469 312.958 118.317C313.296 118.164 313.561 117.952 313.754 117.68C313.946 117.409 314.042 117.094 314.042 116.736C314.042 116.361 313.949 116.031 313.763 115.746C313.578 115.458 313.306 115.233 312.948 115.07C312.59 114.908 312.153 114.827 311.636 114.827H310.82V113.733H311.636C312.04 113.733 312.395 113.66 312.7 113.514C313.008 113.368 313.248 113.163 313.42 112.898C313.596 112.633 313.684 112.321 313.684 111.963C313.684 111.618 313.608 111.318 313.455 111.063C313.303 110.808 313.087 110.609 312.809 110.467C312.534 110.324 312.209 110.253 311.835 110.253C311.483 110.253 311.152 110.317 310.84 110.447C310.532 110.573 310.28 110.757 310.085 110.999C309.889 111.237 309.783 111.526 309.766 111.864H308.573C308.593 111.33 308.754 110.863 309.055 110.462C309.357 110.057 309.751 109.742 310.239 109.517C310.729 109.292 311.268 109.179 311.854 109.179C312.484 109.179 313.024 109.307 313.475 109.562C313.926 109.814 314.272 110.147 314.514 110.561C314.756 110.975 314.877 111.423 314.877 111.903C314.877 112.477 314.726 112.966 314.425 113.37C314.126 113.774 313.72 114.054 313.207 114.21V114.29C313.85 114.396 314.352 114.669 314.713 115.11C315.074 115.548 315.255 116.089 315.255 116.736C315.255 117.289 315.104 117.786 314.803 118.227C314.504 118.665 314.097 119.009 313.58 119.261C313.063 119.513 312.474 119.639 311.815 119.639ZM320.609 119.639C319.86 119.639 319.222 119.435 318.695 119.028C318.168 118.617 317.766 118.022 317.487 117.243C317.209 116.461 317.07 115.516 317.07 114.409C317.07 113.309 317.209 112.369 317.487 111.59C317.769 110.808 318.173 110.211 318.7 109.8C319.231 109.386 319.867 109.179 320.609 109.179C321.352 109.179 321.987 109.386 322.513 109.8C323.044 110.211 323.448 110.808 323.727 111.59C324.008 112.369 324.149 113.309 324.149 114.409C324.149 115.516 324.01 116.461 323.732 117.243C323.453 118.022 323.05 118.617 322.523 119.028C321.996 119.435 321.358 119.639 320.609 119.639ZM320.609 118.545C321.352 118.545 321.929 118.187 322.339 117.472C322.75 116.756 322.956 115.735 322.956 114.409C322.956 113.527 322.862 112.777 322.673 112.157C322.487 111.537 322.219 111.065 321.867 110.74C321.519 110.415 321.1 110.253 320.609 110.253C319.874 110.253 319.299 110.616 318.884 111.342C318.47 112.064 318.263 113.087 318.263 114.409C318.263 115.291 318.356 116.04 318.541 116.656C318.727 117.273 318.994 117.742 319.342 118.063C319.693 118.385 320.116 118.545 320.609 118.545ZM328.942 119.659C328.305 119.659 327.744 119.498 327.256 119.177C326.769 118.852 326.388 118.395 326.113 117.805C325.838 117.211 325.7 116.51 325.7 115.702C325.7 114.9 325.838 114.204 326.113 113.614C326.388 113.024 326.771 112.568 327.261 112.246C327.752 111.925 328.319 111.764 328.962 111.764C329.459 111.764 329.852 111.847 330.14 112.013C330.432 112.175 330.654 112.361 330.806 112.57C330.962 112.775 331.083 112.944 331.169 113.077H331.268V109.318H332.442V119.5H331.308V118.327H331.169C331.083 118.466 330.96 118.642 330.801 118.854C330.642 119.062 330.415 119.25 330.12 119.415C329.825 119.578 329.432 119.659 328.942 119.659ZM329.101 118.605C329.571 118.605 329.969 118.482 330.294 118.237C330.619 117.989 330.866 117.646 331.035 117.208C331.204 116.767 331.288 116.259 331.288 115.682C331.288 115.112 331.205 114.613 331.04 114.185C330.874 113.754 330.629 113.42 330.304 113.181C329.979 112.939 329.578 112.818 329.101 112.818C328.604 112.818 328.189 112.946 327.858 113.201C327.53 113.453 327.283 113.796 327.117 114.23C326.955 114.661 326.874 115.145 326.874 115.682C326.874 116.225 326.956 116.719 327.122 117.163C327.291 117.604 327.54 117.955 327.868 118.217C328.199 118.476 328.61 118.605 329.101 118.605Z" fill="#868EA3"/>
<path fill-rule="evenodd" clip-rule="evenodd" d="M342.234 111.834C342.547 111.522 343.053 111.522 343.366 111.834L346 114.469L348.634 111.834C348.947 111.522 349.453 111.522 349.766 111.834C350.078 112.147 350.078 112.653 349.766 112.966L346.566 116.166C346.253 116.478 345.747 116.478 345.434 116.166L342.234 112.966C341.922 112.653 341.922 112.147 342.234 111.834Z" fill="#868EA3"/>
<rect x="-1165.5" y="-150.5" width="1727" height="63" fill="white"/>
<mask id="path-19-inside-1_1108_65672" fill="white">
<path d="M322 -86.9998H562V301C562 305.419 558.418 309 554 309H330C325.582 309 322 305.419 322 301V-86.9998Z"/>
</mask>
<path d="M322 -86.9998H562V301C562 305.419 558.418 309 554 309H330C325.582 309 322 305.419 322 301V-86.9998Z" fill="white"/>
<g filter="url(#filter1_d_1108_65672)">
<line x1="322" y1="25.5002" x2="562" y2="25.5002" stroke="#F2F2F8"/>
<path d="M359.307 57.3184V67.5002H358.114L352.565 59.5059H352.466V67.5002H351.233V57.3184H352.426L357.994 65.3326H358.094V57.3184H359.307ZM364.817 67.6593C364.081 67.6593 363.446 67.4969 362.912 67.1721C362.382 66.844 361.973 66.3866 361.684 65.8C361.399 65.21 361.257 64.5239 361.257 63.7417C361.257 62.9595 361.399 62.2701 361.684 61.6735C361.973 61.0736 362.374 60.6063 362.888 60.2716C363.405 59.9335 364.008 59.7644 364.697 59.7644C365.095 59.7644 365.488 59.8307 365.876 59.9633C366.263 60.0959 366.616 60.3113 366.934 60.6096C367.253 60.9046 367.506 61.2957 367.695 61.7829C367.884 62.2701 367.979 62.87 367.979 63.5826V64.0798H362.092V63.0656H366.785C366.785 62.6347 366.699 62.2502 366.527 61.9122C366.358 61.5741 366.116 61.3073 365.801 61.1117C365.489 60.9162 365.122 60.8184 364.697 60.8184C364.23 60.8184 363.826 60.9344 363.484 61.1664C363.146 61.3951 362.886 61.6934 362.704 62.0613C362.521 62.4292 362.43 62.8236 362.43 63.2446V63.9207C362.43 64.4974 362.53 64.9863 362.729 65.3873C362.931 65.785 363.211 66.0883 363.569 66.2971C363.927 66.5026 364.343 66.6054 364.817 66.6054C365.125 66.6054 365.403 66.5623 365.652 66.4761C365.904 66.3866 366.121 66.254 366.303 66.0784C366.485 65.8994 366.626 65.6773 366.726 65.4122L367.859 65.7304C367.74 66.1148 367.539 66.4529 367.258 66.7446C366.976 67.0329 366.628 67.2583 366.214 67.4207C365.799 67.5798 365.334 67.6593 364.817 67.6593ZM371.493 67.5002L369.167 59.8639H370.4L372.05 65.7105H372.13L373.76 59.8639H375.013L376.624 65.6906H376.704L378.354 59.8639H379.587L377.26 67.5002H376.107L374.437 61.6338H374.317L372.647 67.5002H371.493ZM388.178 67.6593C387.489 67.6593 386.884 67.4953 386.363 67.1671C385.846 66.839 385.442 66.38 385.15 65.79C384.862 65.2001 384.718 64.5107 384.718 63.7218C384.718 62.9264 384.862 62.232 385.15 61.6387C385.442 61.0455 385.846 60.5848 386.363 60.2566C386.884 59.9285 387.489 59.7644 388.178 59.7644C388.867 59.7644 389.471 59.9285 389.988 60.2566C390.508 60.5848 390.912 61.0455 391.201 61.6387C391.492 62.232 391.638 62.9264 391.638 63.7218C391.638 64.5107 391.492 65.2001 391.201 65.79C390.912 66.38 390.508 66.839 389.988 67.1671C389.471 67.4953 388.867 67.6593 388.178 67.6593ZM388.178 66.6054C388.702 66.6054 389.133 66.4711 389.471 66.2027C389.809 65.9342 390.059 65.5812 390.221 65.1437C390.384 64.7062 390.465 64.2323 390.465 63.7218C390.465 63.2114 390.384 62.7358 390.221 62.295C390.059 61.8542 389.809 61.4979 389.471 61.2261C389.133 60.9543 388.702 60.8184 388.178 60.8184C387.654 60.8184 387.224 60.9543 386.885 61.2261C386.547 61.4979 386.297 61.8542 386.135 62.295C385.972 62.7358 385.891 63.2114 385.891 63.7218C385.891 64.2323 385.972 64.7062 386.135 65.1437C386.297 65.5812 386.547 65.9342 386.885 66.2027C387.224 66.4711 387.654 66.6054 388.178 66.6054ZM393.429 67.5002V59.8639H394.563V61.0173H394.642C394.782 60.6394 395.033 60.3329 395.398 60.0975C395.763 59.8622 396.174 59.7446 396.631 59.7446C396.717 59.7446 396.825 59.7462 396.954 59.7495C397.083 59.7528 397.181 59.7578 397.248 59.7644V60.9576C397.208 60.9477 397.117 60.9328 396.974 60.9129C396.835 60.8897 396.687 60.8781 396.532 60.8781C396.16 60.8781 395.829 60.956 395.537 61.1117C395.249 61.2642 395.02 61.4763 394.851 61.7481C394.685 62.0166 394.603 62.3232 394.603 62.6679V67.5002H393.429ZM401.488 70.523C400.922 70.523 400.434 70.4501 400.027 70.3042C399.619 70.1617 399.279 69.9728 399.007 69.7375C398.739 69.5055 398.525 69.2569 398.366 68.9917L399.301 68.3355C399.407 68.4747 399.541 68.6338 399.703 68.8127C399.866 68.995 400.088 69.1525 400.37 69.285C400.655 69.4209 401.028 69.4889 401.488 69.4889C402.105 69.4889 402.614 69.3397 403.015 69.0414C403.416 68.7431 403.616 68.2758 403.616 67.6394V66.0883H403.517C403.431 66.2275 403.308 66.3999 403.149 66.6054C402.993 66.8075 402.768 66.9882 402.473 67.1473C402.181 67.303 401.787 67.3809 401.289 67.3809C400.673 67.3809 400.119 67.2351 399.629 66.9434C399.142 66.6518 398.756 66.2275 398.471 65.6707C398.189 65.1139 398.048 64.4377 398.048 63.6423C398.048 62.8601 398.185 62.179 398.461 61.599C398.736 61.0156 399.118 60.5649 399.609 60.2467C400.1 59.9252 400.666 59.7644 401.309 59.7644C401.806 59.7644 402.201 59.8473 402.493 60.013C402.788 60.1754 403.013 60.361 403.169 60.5698C403.328 60.7753 403.45 60.9444 403.537 61.0769H403.656V59.8639H404.789V67.719C404.789 68.3752 404.64 68.9089 404.342 69.3198C404.047 69.7341 403.649 70.0374 403.149 70.2296C402.652 70.4252 402.098 70.523 401.488 70.523ZM401.449 66.3269C401.919 66.3269 402.317 66.2192 402.642 66.0038C402.967 65.7884 403.213 65.4785 403.382 65.0741C403.551 64.6698 403.636 64.1859 403.636 63.6224C403.636 63.0722 403.553 62.5867 403.387 62.1657C403.222 61.7448 402.976 61.415 402.652 61.1764C402.327 60.9377 401.926 60.8184 401.449 60.8184C400.951 60.8184 400.537 60.9444 400.206 61.1963C399.877 61.4482 399.631 61.7862 399.465 62.2105C399.302 62.6347 399.221 63.1054 399.221 63.6224C399.221 64.1527 399.304 64.6217 399.47 65.0294C399.639 65.4337 399.887 65.7519 400.216 65.9839C400.547 66.2126 400.958 66.3269 401.449 66.3269ZM409.184 67.6792C408.7 67.6792 408.261 67.5881 407.867 67.4058C407.472 67.2202 407.159 66.9534 406.927 66.6054C406.695 66.254 406.579 65.8298 406.579 65.3326C406.579 64.8951 406.665 64.5405 406.838 64.2687C407.01 63.9936 407.24 63.7782 407.529 63.6224C407.817 63.4666 408.135 63.3506 408.483 63.2744C408.835 63.1948 409.188 63.1319 409.542 63.0855C410.006 63.0258 410.382 62.9811 410.671 62.9512C410.962 62.9181 411.175 62.8634 411.307 62.7872C411.443 62.7109 411.511 62.5784 411.511 62.3894V62.3497C411.511 61.8591 411.377 61.478 411.108 61.2062C410.843 60.9344 410.44 60.7985 409.9 60.7985C409.34 60.7985 408.901 60.9212 408.583 61.1664C408.265 61.4117 408.041 61.6735 407.912 61.9519L406.798 61.5542C406.997 61.0902 407.262 60.7289 407.593 60.4704C407.928 60.2086 408.293 60.0263 408.687 59.9235C409.085 59.8175 409.476 59.7644 409.86 59.7644C410.106 59.7644 410.387 59.7943 410.706 59.8539C411.027 59.9103 411.337 60.0279 411.635 60.2069C411.937 60.3859 412.187 60.656 412.386 61.0173C412.585 61.3786 412.684 61.8625 412.684 62.469V67.5002H411.511V66.4662H411.451C411.372 66.6319 411.239 66.8092 411.054 66.9981C410.868 67.187 410.621 67.3478 410.313 67.4804C410.005 67.6129 409.628 67.6792 409.184 67.6792ZM409.363 66.6252C409.827 66.6252 410.218 66.5341 410.537 66.3518C410.858 66.1695 411.1 65.9342 411.262 65.6458C411.428 65.3575 411.511 65.0542 411.511 64.736V63.6622C411.461 63.7218 411.352 63.7765 411.183 63.8262C411.017 63.8726 410.825 63.9141 410.606 63.9505C410.391 63.9837 410.18 64.0135 409.975 64.04C409.773 64.0632 409.609 64.0831 409.483 64.0997C409.178 64.1394 408.893 64.2041 408.627 64.2936C408.366 64.3797 408.154 64.5107 407.991 64.6863C407.832 64.8587 407.752 65.094 407.752 65.3923C407.752 65.8 407.903 66.1082 408.205 66.317C408.51 66.5225 408.896 66.6252 409.363 66.6252ZM415.999 62.9065V67.5002H414.826V59.8639H415.959V61.0571H416.059C416.238 60.6693 416.51 60.3577 416.874 60.1224C417.239 59.8838 417.709 59.7644 418.286 59.7644C418.803 59.7644 419.256 59.8705 419.643 60.0826C420.031 60.2914 420.333 60.6096 420.548 61.0372C420.764 61.4614 420.871 61.9984 420.871 62.648V67.5002H419.698V62.7275C419.698 62.1276 419.542 61.6603 419.231 61.3255C418.919 60.9875 418.492 60.8184 417.948 60.8184C417.573 60.8184 417.239 60.8996 416.944 61.062C416.652 61.2244 416.422 61.4614 416.253 61.773C416.084 62.0845 415.999 62.4624 415.999 62.9065ZM423.015 67.5002V59.8639H424.189V67.5002H423.015ZM423.612 58.5912C423.383 58.5912 423.186 58.5133 423.02 58.3575C422.858 58.2017 422.777 58.0144 422.777 57.7957C422.777 57.5769 422.858 57.3897 423.02 57.2339C423.186 57.0781 423.383 57.0002 423.612 57.0002C423.841 57.0002 424.036 57.0781 424.199 57.2339C424.364 57.3897 424.447 57.5769 424.447 57.7957C424.447 58.0144 424.364 58.2017 424.199 58.3575C424.036 58.5133 423.841 58.5912 423.612 58.5912ZM431.747 61.5741L430.693 61.8724C430.626 61.6967 430.529 61.526 430.399 61.3603C430.273 61.1913 430.101 61.0521 429.882 60.9427C429.664 60.8333 429.383 60.7787 429.042 60.7787C428.575 60.7787 428.185 60.8864 427.874 61.1018C427.566 61.3139 427.411 61.5841 427.411 61.9122C427.411 62.2038 427.517 62.4342 427.73 62.6032C427.942 62.7723 428.273 62.9131 428.724 63.0258L429.857 63.3042C430.54 63.4699 431.049 63.7235 431.384 64.0649C431.718 64.4029 431.886 64.8388 431.886 65.3724C431.886 65.8099 431.76 66.201 431.508 66.5457C431.259 66.8904 430.911 67.1622 430.464 67.361C430.017 67.5599 429.496 67.6593 428.903 67.6593C428.124 67.6593 427.479 67.4903 426.969 67.1522C426.459 66.8142 426.135 66.3203 425.999 65.6707L427.113 65.3923C427.219 65.8033 427.42 66.1115 427.715 66.317C428.013 66.5225 428.402 66.6252 428.883 66.6252C429.43 66.6252 429.864 66.5092 430.186 66.2772C430.51 66.0419 430.673 65.7602 430.673 65.4321C430.673 65.1669 430.58 64.9448 430.394 64.7659C430.209 64.5836 429.924 64.4477 429.539 64.3582L428.267 64.0599C427.567 63.8942 427.053 63.6373 426.725 63.2893C426.401 62.938 426.238 62.4988 426.238 61.9718C426.238 61.541 426.359 61.1598 426.601 60.8284C426.846 60.4969 427.179 60.2367 427.6 60.0478C428.025 59.8589 428.505 59.7644 429.042 59.7644C429.798 59.7644 430.391 59.9302 430.822 60.2616C431.256 60.593 431.564 61.0305 431.747 61.5741ZM435.899 67.6792C435.415 67.6792 434.976 67.5881 434.582 67.4058C434.187 67.2202 433.874 66.9534 433.642 66.6054C433.41 66.254 433.294 65.8298 433.294 65.3326C433.294 64.8951 433.38 64.5405 433.553 64.2687C433.725 63.9936 433.955 63.7782 434.244 63.6224C434.532 63.4666 434.85 63.3506 435.198 63.2744C435.549 63.1948 435.902 63.1319 436.257 63.0855C436.721 63.0258 437.097 62.9811 437.386 62.9512C437.677 62.9181 437.889 62.8634 438.022 62.7872C438.158 62.7109 438.226 62.5784 438.226 62.3894V62.3497C438.226 61.8591 438.092 61.478 437.823 61.2062C437.558 60.9344 437.155 60.7985 436.615 60.7985C436.055 60.7985 435.616 60.9212 435.298 61.1664C434.979 61.4117 434.756 61.6735 434.626 61.9519L433.513 61.5542C433.712 61.0902 433.977 60.7289 434.308 60.4704C434.643 60.2086 435.008 60.0263 435.402 59.9235C435.8 59.8175 436.191 59.7644 436.575 59.7644C436.821 59.7644 437.102 59.7943 437.42 59.8539C437.742 59.9103 438.052 60.0279 438.35 60.2069C438.652 60.3859 438.902 60.656 439.101 61.0173C439.3 61.3786 439.399 61.8625 439.399 62.469V67.5002H438.226V66.4662H438.166C438.087 66.6319 437.954 66.8092 437.768 66.9981C437.583 67.187 437.336 67.3478 437.028 67.4804C436.719 67.6129 436.343 67.6792 435.899 67.6792ZM436.078 66.6252C436.542 66.6252 436.933 66.5341 437.251 66.3518C437.573 66.1695 437.815 65.9342 437.977 65.6458C438.143 65.3575 438.226 65.0542 438.226 64.736V63.6622C438.176 63.7218 438.067 63.7765 437.898 63.8262C437.732 63.8726 437.54 63.9141 437.321 63.9505C437.106 63.9837 436.895 64.0135 436.69 64.04C436.487 64.0632 436.323 64.0831 436.197 64.0997C435.893 64.1394 435.607 64.2041 435.342 64.2936C435.08 64.3797 434.868 64.5107 434.706 64.6863C434.547 64.8587 434.467 65.094 434.467 65.3923C434.467 65.8 434.618 66.1082 434.92 66.317C435.225 66.5225 435.611 66.6252 436.078 66.6252ZM444.862 59.8639V60.8582H440.904V59.8639H444.862ZM442.058 58.0343H443.231V65.3127C443.231 65.6442 443.279 65.8928 443.375 66.0585C443.475 66.2209 443.601 66.3303 443.753 66.3866C443.909 66.4396 444.073 66.4662 444.245 66.4662C444.374 66.4662 444.481 66.4595 444.563 66.4463C444.646 66.4297 444.713 66.4164 444.762 66.4065L445.001 67.4605C444.921 67.4903 444.81 67.5201 444.668 67.55C444.525 67.5831 444.345 67.5997 444.126 67.5997C443.794 67.5997 443.47 67.5284 443.151 67.3859C442.837 67.2434 442.575 67.0263 442.366 66.7346C442.16 66.443 442.058 66.0751 442.058 65.6309V58.0343ZM446.627 67.5002V59.8639H447.8V67.5002H446.627ZM447.223 58.5912C446.994 58.5912 446.797 58.5133 446.632 58.3575C446.469 58.2017 446.388 58.0144 446.388 57.7957C446.388 57.5769 446.469 57.3897 446.632 57.2339C446.797 57.0781 446.994 57.0002 447.223 57.0002C447.452 57.0002 447.647 57.0781 447.81 57.2339C447.976 57.3897 448.058 57.5769 448.058 57.7957C448.058 58.0144 447.976 58.2017 447.81 58.3575C447.647 58.5133 447.452 58.5912 447.223 58.5912ZM453.051 67.6593C452.362 67.6593 451.757 67.4953 451.237 67.1671C450.719 66.839 450.315 66.38 450.023 65.79C449.735 65.2001 449.591 64.5107 449.591 63.7218C449.591 62.9264 449.735 62.232 450.023 61.6387C450.315 61.0455 450.719 60.5848 451.237 60.2566C451.757 59.9285 452.362 59.7644 453.051 59.7644C453.741 59.7644 454.344 59.9285 454.861 60.2566C455.381 60.5848 455.786 61.0455 456.074 61.6387C456.366 62.232 456.511 62.9264 456.511 63.7218C456.511 64.5107 456.366 65.2001 456.074 65.79C455.786 66.38 455.381 66.839 454.861 67.1671C454.344 67.4953 453.741 67.6593 453.051 67.6593ZM453.051 66.6054C453.575 66.6054 454.006 66.4711 454.344 66.2027C454.682 65.9342 454.932 65.5812 455.094 65.1437C455.257 64.7062 455.338 64.2323 455.338 63.7218C455.338 63.2114 455.257 62.7358 455.094 62.295C454.932 61.8542 454.682 61.4979 454.344 61.2261C454.006 60.9543 453.575 60.8184 453.051 60.8184C452.527 60.8184 452.097 60.9543 451.759 61.2261C451.42 61.4979 451.17 61.8542 451.008 62.295C450.845 62.7358 450.764 63.2114 450.764 63.7218C450.764 64.2323 450.845 64.7062 451.008 65.1437C451.17 65.5812 451.42 65.9342 451.759 66.2027C452.097 66.4711 452.527 66.6054 453.051 66.6054ZM459.476 62.9065V67.5002H458.302V59.8639H459.436V61.0571H459.535C459.714 60.6693 459.986 60.3577 460.351 60.1224C460.715 59.8838 461.186 59.7644 461.763 59.7644C462.28 59.7644 462.732 59.8705 463.12 60.0826C463.508 60.2914 463.809 60.6096 464.025 61.0372C464.24 61.4614 464.348 61.9984 464.348 62.648V67.5002H463.175V62.7275C463.175 62.1276 463.019 61.6603 462.707 61.3255C462.396 60.9875 461.968 60.8184 461.425 60.8184C461.05 60.8184 460.715 60.8996 460.42 61.062C460.129 61.2244 459.898 61.4614 459.729 61.773C459.56 62.0845 459.476 62.4624 459.476 62.9065Z" fill="#616B7C"/>
<path d="M350.358 105.818H351.77L354.594 110.571H354.713L357.537 105.818H358.949L355.27 111.804V116H354.037V111.804L350.358 105.818ZM362.407 116.159C361.717 116.159 361.112 115.995 360.592 115.667C360.075 115.339 359.671 114.88 359.379 114.29C359.091 113.7 358.946 113.01 358.946 112.222C358.946 111.426 359.091 110.732 359.379 110.138C359.671 109.545 360.075 109.085 360.592 108.756C361.112 108.428 361.717 108.264 362.407 108.264C363.096 108.264 363.699 108.428 364.216 108.756C364.737 109.085 365.141 109.545 365.429 110.138C365.721 110.732 365.867 111.426 365.867 112.222C365.867 113.01 365.721 113.7 365.429 114.29C365.141 114.88 364.737 115.339 364.216 115.667C363.699 115.995 363.096 116.159 362.407 116.159ZM362.407 115.105C362.93 115.105 363.361 114.971 363.699 114.702C364.037 114.434 364.288 114.081 364.45 113.643C364.612 113.206 364.694 112.732 364.694 112.222C364.694 111.711 364.612 111.236 364.45 110.795C364.288 110.354 364.037 109.998 363.699 109.726C363.361 109.454 362.93 109.318 362.407 109.318C361.883 109.318 361.452 109.454 361.114 109.726C360.776 109.998 360.526 110.354 360.363 110.795C360.201 111.236 360.12 111.711 360.12 112.222C360.12 112.732 360.201 113.206 360.363 113.643C360.526 114.081 360.776 114.434 361.114 114.702C361.452 114.971 361.883 115.105 362.407 115.105ZM372.47 112.878V108.364H373.644V116H372.47V114.707H372.391C372.212 115.095 371.933 115.425 371.556 115.697C371.178 115.965 370.7 116.099 370.124 116.099C369.646 116.099 369.222 115.995 368.851 115.786C368.48 115.574 368.188 115.256 367.976 114.832C367.764 114.404 367.658 113.866 367.658 113.216V108.364H368.831V113.136C368.831 113.693 368.987 114.137 369.298 114.469C369.613 114.8 370.014 114.966 370.502 114.966C370.793 114.966 371.09 114.891 371.392 114.742C371.696 114.593 371.952 114.364 372.157 114.056C372.366 113.748 372.47 113.355 372.47 112.878ZM375.793 116V108.364H376.926V109.517H377.006C377.145 109.139 377.397 108.833 377.761 108.597C378.126 108.362 378.537 108.244 378.994 108.244C379.08 108.244 379.188 108.246 379.317 108.249C379.447 108.253 379.545 108.258 379.611 108.264V109.457C379.571 109.447 379.48 109.433 379.337 109.413C379.198 109.389 379.051 109.378 378.895 109.378C378.524 109.378 378.192 109.456 377.901 109.612C377.612 109.764 377.384 109.976 377.214 110.248C377.049 110.516 376.966 110.823 376.966 111.168V116H375.793ZM385.516 116H384.223L387.962 105.818H389.235L392.973 116H391.681L388.638 107.429H388.558L385.516 116ZM385.993 112.023H391.203V113.116H385.993V112.023ZM397.502 116.159C396.786 116.159 396.17 115.99 395.653 115.652C395.136 115.314 394.738 114.848 394.46 114.255C394.181 113.662 394.042 112.984 394.042 112.222C394.042 111.446 394.185 110.762 394.47 110.168C394.758 109.572 395.159 109.106 395.673 108.771C396.19 108.433 396.793 108.264 397.482 108.264C398.019 108.264 398.503 108.364 398.934 108.562C399.365 108.761 399.718 109.04 399.993 109.398C400.268 109.756 400.439 110.173 400.505 110.651H399.332C399.242 110.303 399.044 109.994 398.735 109.726C398.43 109.454 398.019 109.318 397.502 109.318C397.045 109.318 396.644 109.437 396.299 109.676C395.958 109.911 395.691 110.245 395.499 110.675C395.31 111.103 395.215 111.605 395.215 112.182C395.215 112.772 395.308 113.286 395.494 113.723C395.683 114.161 395.948 114.5 396.289 114.742C396.634 114.984 397.038 115.105 397.502 115.105C397.807 115.105 398.084 115.052 398.333 114.946C398.581 114.84 398.792 114.688 398.964 114.489C399.136 114.29 399.259 114.051 399.332 113.773H400.505C400.439 114.223 400.275 114.629 400.013 114.991C399.754 115.349 399.411 115.634 398.984 115.846C398.56 116.055 398.066 116.159 397.502 116.159ZM405.323 116.159C404.607 116.159 403.99 115.99 403.473 115.652C402.956 115.314 402.558 114.848 402.28 114.255C402.002 113.662 401.862 112.984 401.862 112.222C401.862 111.446 402.005 110.762 402.29 110.168C402.578 109.572 402.979 109.106 403.493 108.771C404.01 108.433 404.613 108.264 405.303 108.264C405.84 108.264 406.324 108.364 406.754 108.562C407.185 108.761 407.538 109.04 407.813 109.398C408.088 109.756 408.259 110.173 408.325 110.651H407.152C407.063 110.303 406.864 109.994 406.556 109.726C406.251 109.454 405.84 109.318 405.323 109.318C404.865 109.318 404.464 109.437 404.119 109.676C403.778 109.911 403.511 110.245 403.319 110.675C403.13 111.103 403.036 111.605 403.036 112.182C403.036 112.772 403.128 113.286 403.314 113.723C403.503 114.161 403.768 114.5 404.11 114.742C404.454 114.984 404.859 115.105 405.323 115.105C405.628 115.105 405.904 115.052 406.153 114.946C406.401 114.84 406.612 114.688 406.784 114.489C406.957 114.29 407.079 114.051 407.152 113.773H408.325C408.259 114.223 408.095 114.629 407.833 114.991C407.575 115.349 407.232 115.634 406.804 115.846C406.38 116.055 405.886 116.159 405.323 116.159ZM413.143 116.159C412.454 116.159 411.849 115.995 411.328 115.667C410.811 115.339 410.407 114.88 410.115 114.29C409.827 113.7 409.683 113.01 409.683 112.222C409.683 111.426 409.827 110.732 410.115 110.138C410.407 109.545 410.811 109.085 411.328 108.756C411.849 108.428 412.454 108.264 413.143 108.264C413.832 108.264 414.436 108.428 414.953 108.756C415.473 109.085 415.877 109.545 416.166 110.138C416.457 110.732 416.603 111.426 416.603 112.222C416.603 113.01 416.457 113.7 416.166 114.29C415.877 114.88 415.473 115.339 414.953 115.667C414.436 115.995 413.832 116.159 413.143 116.159ZM413.143 115.105C413.667 115.105 414.097 114.971 414.436 114.702C414.774 114.434 415.024 114.081 415.186 113.643C415.349 113.206 415.43 112.732 415.43 112.222C415.43 111.711 415.349 111.236 415.186 110.795C415.024 110.354 414.774 109.998 414.436 109.726C414.097 109.454 413.667 109.318 413.143 109.318C412.619 109.318 412.188 109.454 411.85 109.726C411.512 109.998 411.262 110.354 411.1 110.795C410.937 111.236 410.856 111.711 410.856 112.222C410.856 112.732 410.937 113.206 411.1 113.643C411.262 114.081 411.512 114.434 411.85 114.702C412.188 114.971 412.619 115.105 413.143 115.105ZM423.207 112.878V108.364H424.38V116H423.207V114.707H423.127C422.948 115.095 422.67 115.425 422.292 115.697C421.914 115.965 421.437 116.099 420.86 116.099C420.383 116.099 419.959 115.995 419.587 115.786C419.216 115.574 418.924 115.256 418.712 114.832C418.5 114.404 418.394 113.866 418.394 113.216V108.364H419.567V113.136C419.567 113.693 419.723 114.137 420.035 114.469C420.35 114.8 420.751 114.966 421.238 114.966C421.53 114.966 421.826 114.891 422.128 114.742C422.433 114.593 422.688 114.364 422.893 114.056C423.102 113.748 423.207 113.355 423.207 112.878ZM427.702 111.406V116H426.529V108.364H427.662V109.557H427.762C427.941 109.169 428.213 108.857 428.577 108.622C428.942 108.384 429.412 108.264 429.989 108.264C430.506 108.264 430.959 108.37 431.346 108.582C431.734 108.791 432.036 109.109 432.251 109.537C432.467 109.961 432.574 110.498 432.574 111.148V116H431.401V111.227C431.401 110.627 431.245 110.16 430.934 109.825C430.622 109.487 430.195 109.318 429.651 109.318C429.277 109.318 428.942 109.399 428.647 109.562C428.355 109.724 428.125 109.961 427.956 110.273C427.787 110.584 427.702 110.962 427.702 111.406ZM438.039 108.364V109.358H434.082V108.364H438.039ZM435.235 106.534H436.409V113.812C436.409 114.144 436.457 114.393 436.553 114.558C436.652 114.721 436.778 114.83 436.931 114.886C437.087 114.939 437.251 114.966 437.423 114.966C437.552 114.966 437.658 114.959 437.741 114.946C437.824 114.929 437.89 114.916 437.94 114.906L438.179 115.96C438.099 115.99 437.988 116.02 437.846 116.05C437.703 116.083 437.522 116.099 437.304 116.099C436.972 116.099 436.647 116.028 436.329 115.886C436.014 115.743 435.752 115.526 435.544 115.234C435.338 114.943 435.235 114.575 435.235 114.131V106.534Z" fill="#616B7C"/>
<path d="M356.801 155.364C356.741 154.86 356.5 154.469 356.075 154.19C355.651 153.912 355.131 153.773 354.514 153.773C354.063 153.773 353.669 153.846 353.331 153.991C352.996 154.137 352.734 154.338 352.545 154.593C352.36 154.848 352.267 155.138 352.267 155.463C352.267 155.735 352.332 155.969 352.461 156.164C352.594 156.356 352.763 156.517 352.968 156.646C353.174 156.772 353.389 156.877 353.614 156.96C353.84 157.039 354.047 157.104 354.236 157.153L355.27 157.432C355.535 157.501 355.83 157.598 356.155 157.72C356.483 157.843 356.796 158.01 357.094 158.222C357.396 158.431 357.645 158.7 357.84 159.028C358.036 159.356 358.134 159.759 358.134 160.236C358.134 160.786 357.989 161.283 357.701 161.727C357.416 162.171 356.998 162.524 356.448 162.786C355.901 163.048 355.237 163.179 354.455 163.179C353.725 163.179 353.094 163.061 352.56 162.826C352.03 162.591 351.612 162.263 351.308 161.842C351.006 161.421 350.835 160.932 350.795 160.375H352.068C352.101 160.759 352.231 161.078 352.456 161.33C352.685 161.578 352.973 161.764 353.321 161.886C353.672 162.006 354.05 162.065 354.455 162.065C354.925 162.065 355.348 161.989 355.722 161.837C356.097 161.681 356.393 161.465 356.612 161.19C356.831 160.912 356.94 160.587 356.94 160.216C356.94 159.878 356.846 159.603 356.657 159.391C356.468 159.179 356.219 159.006 355.911 158.874C355.603 158.741 355.27 158.625 354.912 158.526L353.659 158.168C352.864 157.939 352.234 157.612 351.77 157.188C351.306 156.764 351.074 156.209 351.074 155.523C351.074 154.953 351.228 154.455 351.536 154.031C351.848 153.604 352.265 153.272 352.789 153.037C353.316 152.798 353.904 152.679 354.554 152.679C355.21 152.679 355.794 152.797 356.304 153.032C356.814 153.264 357.219 153.582 357.517 153.987C357.819 154.391 357.978 154.85 357.994 155.364H356.801ZM360.002 163V155.364H361.175V163H360.002ZM360.598 154.091C360.369 154.091 360.172 154.013 360.007 153.857C359.844 153.701 359.763 153.514 359.763 153.295C359.763 153.077 359.844 152.889 360.007 152.734C360.172 152.578 360.369 152.5 360.598 152.5C360.827 152.5 361.022 152.578 361.185 152.734C361.351 152.889 361.433 153.077 361.433 153.295C361.433 153.514 361.351 153.701 361.185 153.857C361.022 154.013 360.827 154.091 360.598 154.091ZM366.406 166.023C365.839 166.023 365.352 165.95 364.945 165.804C364.537 165.661 364.197 165.473 363.925 165.237C363.657 165.005 363.443 164.757 363.284 164.491L364.219 163.835C364.325 163.974 364.459 164.134 364.621 164.312C364.784 164.495 365.006 164.652 365.288 164.785C365.573 164.921 365.946 164.989 366.406 164.989C367.023 164.989 367.531 164.839 367.933 164.541C368.334 164.243 368.534 163.776 368.534 163.139V161.588H368.435C368.348 161.727 368.226 161.9 368.067 162.105C367.911 162.307 367.686 162.488 367.391 162.647C367.099 162.803 366.705 162.881 366.207 162.881C365.591 162.881 365.037 162.735 364.547 162.443C364.06 162.152 363.674 161.727 363.388 161.17C363.107 160.614 362.966 159.937 362.966 159.142C362.966 158.36 363.103 157.679 363.379 157.099C363.654 156.515 364.036 156.065 364.527 155.746C365.018 155.425 365.584 155.264 366.227 155.264C366.724 155.264 367.119 155.347 367.411 155.513C367.705 155.675 367.931 155.861 368.087 156.07C368.246 156.275 368.368 156.444 368.455 156.577H368.574V155.364H369.707V163.219C369.707 163.875 369.558 164.409 369.26 164.82C368.965 165.234 368.567 165.537 368.067 165.729C367.57 165.925 367.016 166.023 366.406 166.023ZM366.366 161.827C366.837 161.827 367.235 161.719 367.56 161.504C367.884 161.288 368.131 160.978 368.3 160.574C368.469 160.17 368.554 159.686 368.554 159.122C368.554 158.572 368.471 158.086 368.305 157.665C368.14 157.245 367.894 156.915 367.57 156.676C367.245 156.437 366.844 156.318 366.366 156.318C365.869 156.318 365.455 156.444 365.124 156.696C364.795 156.948 364.549 157.286 364.383 157.71C364.22 158.134 364.139 158.605 364.139 159.122C364.139 159.652 364.222 160.121 364.388 160.529C364.557 160.933 364.805 161.252 365.134 161.484C365.465 161.712 365.876 161.827 366.366 161.827ZM373.028 158.406V163H371.855V155.364H372.989V156.557H373.088C373.267 156.169 373.539 155.857 373.903 155.622C374.268 155.384 374.739 155.264 375.315 155.264C375.832 155.264 376.285 155.37 376.673 155.582C377.06 155.791 377.362 156.109 377.577 156.537C377.793 156.961 377.901 157.498 377.901 158.148V163H376.727V158.227C376.727 157.627 376.571 157.16 376.26 156.825C375.948 156.487 375.521 156.318 374.977 156.318C374.603 156.318 374.268 156.399 373.973 156.562C373.681 156.724 373.451 156.961 373.282 157.273C373.113 157.584 373.028 157.962 373.028 158.406ZM392.732 157.909C392.732 158.983 392.538 159.911 392.15 160.693C391.763 161.475 391.231 162.079 390.555 162.503C389.878 162.927 389.106 163.139 388.238 163.139C387.369 163.139 386.597 162.927 385.921 162.503C385.245 162.079 384.713 161.475 384.325 160.693C383.937 159.911 383.743 158.983 383.743 157.909C383.743 156.835 383.937 155.907 384.325 155.125C384.713 154.343 385.245 153.74 385.921 153.315C386.597 152.891 387.369 152.679 388.238 152.679C389.106 152.679 389.878 152.891 390.555 153.315C391.231 153.74 391.763 154.343 392.15 155.125C392.538 155.907 392.732 156.835 392.732 157.909ZM391.539 157.909C391.539 157.027 391.391 156.283 391.096 155.677C390.805 155.07 390.409 154.611 389.908 154.3C389.411 153.988 388.854 153.832 388.238 153.832C387.621 153.832 387.063 153.988 386.562 154.3C386.065 154.611 385.669 155.07 385.374 155.677C385.082 156.283 384.937 157.027 384.937 157.909C384.937 158.791 385.082 159.535 385.374 160.141C385.669 160.748 386.065 161.207 386.562 161.518C387.063 161.83 387.621 161.986 388.238 161.986C388.854 161.986 389.411 161.83 389.908 161.518C390.409 161.207 390.805 160.748 391.096 160.141C391.391 159.535 391.539 158.791 391.539 157.909ZM399.459 159.878V155.364H400.632V163H399.459V161.707H399.379C399.2 162.095 398.922 162.425 398.544 162.697C398.166 162.965 397.689 163.099 397.112 163.099C396.635 163.099 396.211 162.995 395.839 162.786C395.468 162.574 395.176 162.256 394.964 161.832C394.752 161.404 394.646 160.866 394.646 160.216V155.364H395.819V160.136C395.819 160.693 395.975 161.137 396.287 161.469C396.602 161.8 397.003 161.966 397.49 161.966C397.782 161.966 398.078 161.891 398.38 161.742C398.685 161.593 398.94 161.364 399.145 161.056C399.354 160.748 399.459 160.355 399.459 159.878ZM406.102 155.364V156.358H402.145V155.364H406.102ZM403.298 153.534H404.471V160.812C404.471 161.144 404.519 161.393 404.615 161.558C404.715 161.721 404.841 161.83 404.993 161.886C405.149 161.939 405.313 161.966 405.485 161.966C405.615 161.966 405.721 161.959 405.804 161.946C405.886 161.929 405.953 161.916 406.002 161.906L406.241 162.96C406.162 162.99 406.051 163.02 405.908 163.05C405.766 163.083 405.585 163.099 405.366 163.099C405.035 163.099 404.71 163.028 404.392 162.886C404.077 162.743 403.815 162.526 403.606 162.234C403.401 161.943 403.298 161.575 403.298 161.131V153.534Z" fill="#616B7C"/>
<line x1="322" y1="191.5" x2="561" y2="191.5" stroke="#F2F2F8"/>
<mask id="mask0_1108_65672" style="mask-type:alpha" maskUnits="userSpaceOnUse" x="334" y="208" width="64" height="56">
<rect x="334.505" y="208" width="63.33" height="55.255" rx="8" fill="#F2F2F8"/>
</mask>
<g mask="url(#mask0_1108_65672)">
<rect x="334.505" y="208" width="63.33" height="55.255" rx="8" fill="#F2F2F8"/>
<rect x="349.746" y="215.755" width="48.7701" height="50.4081" rx="4" fill="#FCFCFF"/>
<path d="M359.289 236.51H358.181L361.385 227.783H362.476L365.681 236.51H364.573L361.965 229.164H361.897L359.289 236.51ZM359.698 233.101H364.164V234.039H359.698V233.101ZM368.83 236.664C368.415 236.664 368.039 236.586 367.7 236.429C367.362 236.27 367.094 236.042 366.895 235.743C366.696 235.442 366.597 235.078 366.597 234.652C366.597 234.277 366.671 233.973 366.818 233.74C366.966 233.505 367.164 233.32 367.411 233.186C367.658 233.053 367.931 232.953 368.229 232.888C368.53 232.82 368.833 232.766 369.137 232.726C369.534 232.675 369.857 232.637 370.104 232.611C370.354 232.583 370.536 232.536 370.649 232.47C370.766 232.405 370.824 232.292 370.824 232.13V232.095C370.824 231.675 370.709 231.348 370.479 231.115C370.252 230.882 369.906 230.766 369.443 230.766C368.963 230.766 368.587 230.871 368.314 231.081C368.041 231.292 367.85 231.516 367.739 231.755L366.784 231.414C366.955 231.016 367.182 230.706 367.466 230.485C367.753 230.26 368.066 230.104 368.404 230.016C368.745 229.925 369.08 229.88 369.409 229.88C369.62 229.88 369.861 229.905 370.134 229.956C370.409 230.005 370.675 230.105 370.931 230.259C371.189 230.412 371.404 230.644 371.574 230.953C371.745 231.263 371.83 231.678 371.83 232.198V236.51H370.824V235.624H370.773C370.705 235.766 370.591 235.918 370.432 236.08C370.273 236.242 370.061 236.38 369.797 236.493C369.533 236.607 369.21 236.664 368.83 236.664ZM368.983 235.76C369.381 235.76 369.716 235.682 369.989 235.526C370.264 235.37 370.472 235.168 370.611 234.921C370.753 234.674 370.824 234.414 370.824 234.141V233.22C370.781 233.272 370.688 233.318 370.543 233.361C370.401 233.401 370.236 233.436 370.048 233.468C369.864 233.496 369.683 233.522 369.507 233.544C369.334 233.564 369.193 233.581 369.085 233.595C368.824 233.63 368.58 233.685 368.352 233.762C368.128 233.836 367.946 233.948 367.807 234.098C367.671 234.246 367.602 234.448 367.602 234.703C367.602 235.053 367.732 235.317 367.99 235.496C368.252 235.672 368.583 235.76 368.983 235.76Z" fill="#373B4D"/>
</g>
<circle cx="366.17" cy="283.255" r="7.5" fill="white" stroke="#C4C6D7"/>
<mask id="mask1_1108_65672" style="mask-type:alpha" maskUnits="userSpaceOnUse" x="409" y="208" width="65" height="57">
<rect x="409.835" y="208" width="63.33" height="57" rx="8" fill="#373B4D"/>
</mask>
<g mask="url(#mask1_1108_65672)">
<rect x="409.835" y="208" width="65.3621" height="57" rx="8" fill="#373B4D"/>
<rect x="426.092" y="216" width="48.7701" height="52" rx="4" fill="#616B7C"/>
<path d="M435.635 237H434.527L437.731 228.273H438.822L442.027 237H440.919L438.311 229.653H438.243L435.635 237ZM436.044 233.591H440.51V234.528H436.044V233.591ZM445.176 237.153C444.761 237.153 444.385 237.075 444.047 236.919C443.709 236.76 443.44 236.531 443.241 236.233C443.042 235.932 442.943 235.568 442.943 235.142C442.943 234.767 443.017 234.463 443.165 234.23C443.312 233.994 443.51 233.81 443.757 233.676C444.004 233.543 444.277 233.443 444.575 233.378C444.876 233.31 445.179 233.256 445.483 233.216C445.88 233.165 446.203 233.126 446.45 233.101C446.7 233.072 446.882 233.026 446.996 232.96C447.112 232.895 447.17 232.781 447.17 232.619V232.585C447.17 232.165 447.055 231.838 446.825 231.605C446.598 231.372 446.253 231.256 445.79 231.256C445.309 231.256 444.933 231.361 444.66 231.571C444.388 231.781 444.196 232.006 444.085 232.244L443.13 231.903C443.301 231.506 443.528 231.196 443.812 230.974C444.099 230.75 444.412 230.594 444.75 230.506C445.091 230.415 445.426 230.369 445.755 230.369C445.966 230.369 446.207 230.395 446.48 230.446C446.755 230.494 447.021 230.595 447.277 230.749C447.535 230.902 447.75 231.134 447.92 231.443C448.091 231.753 448.176 232.168 448.176 232.688V237H447.17V236.114H447.119C447.051 236.256 446.937 236.408 446.778 236.57C446.619 236.732 446.407 236.869 446.143 236.983C445.879 237.097 445.557 237.153 445.176 237.153ZM445.329 236.25C445.727 236.25 446.062 236.172 446.335 236.016C446.611 235.859 446.818 235.658 446.957 235.411C447.099 235.163 447.17 234.903 447.17 234.631V233.71C447.128 233.761 447.034 233.808 446.889 233.851C446.747 233.891 446.582 233.926 446.395 233.957C446.21 233.986 446.03 234.011 445.853 234.034C445.68 234.054 445.54 234.071 445.432 234.085C445.17 234.119 444.926 234.175 444.699 234.251C444.474 234.325 444.292 234.437 444.153 234.588C444.017 234.736 443.949 234.937 443.949 235.193C443.949 235.543 444.078 235.807 444.336 235.986C444.598 236.162 444.929 236.25 445.329 236.25Z" fill="#FCFCFF"/>
</g>
<circle cx="441.5" cy="285" r="7.5" fill="white" stroke="#C4C6D7"/>
<rect x="485.165" y="208" width="63.33" height="57" rx="8" fill="#373B4D"/>
<mask id="mask2_1108_65672" style="mask-type:alpha" maskUnits="userSpaceOnUse" x="485" y="208" width="64" height="57">
<rect x="485.165" y="208" width="63.33" height="57" rx="8" fill="#373B4D"/>
</mask>
<g mask="url(#mask2_1108_65672)">
<rect x="485.165" y="208" width="65.3621" height="57" rx="8" fill="#373B4D"/>
</g>
</g>
<path d="M322 -86.9998H562H322ZM563 301C563 305.971 558.971 310 554 310H330C325.029 310 321 305.971 321 301H323C323 304.866 326.134 308 330 308H554C557.866 308 561 304.866 561 301H563ZM330 310C325.029 310 321 305.971 321 301V-86.9998H323V301C323 304.866 326.134 308 330 308V310ZM563 -86.9998V301C563 305.971 558.971 310 554 310V308C557.866 308 561 304.866 561 301V-86.9998H563Z" fill="#F2F2F8" mask="url(#path-19-inside-1_1108_65672)"/>
<rect x="-1165.5" y="-150.5" width="1727" height="63" stroke="#F2F2F8"/>
</g>
</g>
<rect x="0.5" y="0.500244" width="489" height="393.5" rx="16.5" stroke="#F2F2F8"/>
<defs>
<filter id="filter0_d_1108_65672" x="-222.5" y="49.5002" width="637.392" height="405" filterUnits="userSpaceOnUse" color-interpolation-filters="sRGB">
<feFlood flood-opacity="0" result="BackgroundImageFix"/>
<feColorMatrix in="SourceAlpha" type="matrix" values="0 0 0 0 0 0 0 0 0 0 0 0 0 0 0 0 0 0 127 0" result="hardAlpha"/>
<feOffset dy="16"/>
<feGaussianBlur stdDeviation="16"/>
<feColorMatrix type="matrix" values="0 0 0 0 0.215686 0 0 0 0 0.231373 0 0 0 0 0.301961 0 0 0 0.02 0"/>
<feBlend mode="normal" in2="BackgroundImageFix" result="effect1_dropShadow_1108_65672"/>
<feBlend mode="normal" in="SourceGraphic" in2="effect1_dropShadow_1108_65672" result="shape"/>
</filter>
<filter id="filter1_d_1108_65672" x="290" y="-103" width="304" height="460" filterUnits="userSpaceOnUse" color-interpolation-filters="sRGB">
<feFlood flood-opacity="0" result="BackgroundImageFix"/>
<feColorMatrix in="SourceAlpha" type="matrix" values="0 0 0 0 0 0 0 0 0 0 0 0 0 0 0 0 0 0 127 0" result="hardAlpha"/>
<feOffset dy="16"/>
<feGaussianBlur stdDeviation="16"/>
<feColorMatrix type="matrix" values="0 0 0 0 0.215686 0 0 0 0 0.231373 0 0 0 0 0.301961 0 0 0 0.04 0"/>
<feBlend mode="normal" in2="BackgroundImageFix" result="effect1_dropShadow_1108_65672"/>
<feBlend mode="normal" in="SourceGraphic" in2="effect1_dropShadow_1108_65672" result="shape"/>
</filter>
<linearGradient id="paint0_linear_1108_65672" x1="-199.907" y1="47.2651" x2="-199.907" y2="14.5624" gradientUnits="userSpaceOnUse">
<stop stop-color="white"/>
<stop offset="0.401042" stop-color="white" stop-opacity="0.760417"/>
<stop offset="1" stop-color="white" stop-opacity="0"/>
</linearGradient>
<clipPath id="clip0_1108_65672">
<rect x="1" y="1.00024" width="488" height="392.5" rx="16" fill="white"/>
</clipPath>
<clipPath id="clip1_1108_65672">
<rect width="1728" height="1719" fill="white" transform="translate(-1166 -151)"/>
</clipPath>
</defs>
</svg>
