<svg width="994" height="352" viewBox="0 0 994 352" fill="none" xmlns="http://www.w3.org/2000/svg">
<rect x="0.5" y="0.500977" width="993" height="351" rx="16.5" fill="#FCFCFF"/>
<rect x="0.5" y="0.500977" width="993" height="351" rx="16.5" fill="#14141F" fill-opacity="0.3"/>
<g filter="url(#filter0_d_1158_78996)">
<rect x="276" y="55.001" width="442" height="242" rx="16" fill="white"/>
<rect x="308" y="87.001" width="40" height="40" rx="20" fill="#F38500"/>
<path fill-rule="evenodd" clip-rule="evenodd" d="M326.258 100.1C327.023 98.7405 328.98 98.7405 329.744 100.1L335.325 110.02C336.075 111.354 335.111 113.001 333.581 113.001H322.421C320.891 113.001 319.928 111.354 320.678 110.02L326.258 100.1ZM329.001 110.001C329.001 110.553 328.553 111.001 328.001 111.001C327.449 111.001 327.001 110.553 327.001 110.001C327.001 109.449 327.449 109.001 328.001 109.001C328.553 109.001 329.001 109.449 329.001 110.001ZM328.001 102.001C327.449 102.001 327.001 102.449 327.001 103.001V106.001C327.001 106.553 327.449 107.001 328.001 107.001C328.553 107.001 329.001 106.553 329.001 106.001V103.001C329.001 102.449 328.553 102.001 328.001 102.001Z" fill="white"/>
<path d="M370.04 100.101C371.52 100.101 372.813 100.388 373.92 100.961C375.04 101.521 375.9 102.334 376.5 103.401C377.113 104.454 377.42 105.688 377.42 107.101C377.42 108.514 377.113 109.741 376.5 110.781C375.9 111.821 375.04 112.621 373.92 113.181C372.813 113.728 371.52 114.001 370.04 114.001H365.5V100.101H370.04ZM370.04 112.141C371.667 112.141 372.913 111.701 373.78 110.821C374.647 109.941 375.08 108.701 375.08 107.101C375.08 105.488 374.647 104.228 373.78 103.321C372.913 102.414 371.667 101.961 370.04 101.961H367.78V112.141H370.04ZM389.78 108.221C389.78 108.634 389.753 109.008 389.7 109.341H381.28C381.346 110.221 381.673 110.928 382.26 111.461C382.846 111.994 383.566 112.261 384.42 112.261C385.646 112.261 386.513 111.748 387.02 110.721H389.48C389.146 111.734 388.54 112.568 387.66 113.221C386.793 113.861 385.713 114.181 384.42 114.181C383.366 114.181 382.42 113.948 381.58 113.481C380.753 113.001 380.1 112.334 379.62 111.481C379.153 110.614 378.92 109.614 378.92 108.481C378.92 107.348 379.146 106.354 379.6 105.501C380.066 104.634 380.713 103.968 381.54 103.501C382.38 103.034 383.34 102.801 384.42 102.801C385.46 102.801 386.386 103.028 387.2 103.481C388.013 103.934 388.646 104.574 389.1 105.401C389.553 106.214 389.78 107.154 389.78 108.221ZM387.4 107.501C387.386 106.661 387.086 105.988 386.5 105.481C385.913 104.974 385.186 104.721 384.32 104.721C383.533 104.721 382.86 104.974 382.3 105.481C381.74 105.974 381.406 106.648 381.3 107.501H387.4ZM394.303 99.201V114.001H392.023V99.201H394.303ZM407.397 108.221C407.397 108.634 407.37 109.008 407.317 109.341H398.897C398.964 110.221 399.29 110.928 399.877 111.461C400.464 111.994 401.184 112.261 402.037 112.261C403.264 112.261 404.13 111.748 404.637 110.721H407.097C406.764 111.734 406.157 112.568 405.277 113.221C404.41 113.861 403.33 114.181 402.037 114.181C400.984 114.181 400.037 113.948 399.197 113.481C398.37 113.001 397.717 112.334 397.237 111.481C396.77 110.614 396.537 109.614 396.537 108.481C396.537 107.348 396.764 106.354 397.217 105.501C397.684 104.634 398.33 103.968 399.157 103.501C399.997 103.034 400.957 102.801 402.037 102.801C403.077 102.801 404.004 103.028 404.817 103.481C405.63 103.934 406.264 104.574 406.717 105.401C407.17 106.214 407.397 107.154 407.397 108.221ZM405.017 107.501C405.004 106.661 404.704 105.988 404.117 105.481C403.53 104.974 402.804 104.721 401.937 104.721C401.15 104.721 400.477 104.974 399.917 105.481C399.357 105.974 399.024 106.648 398.917 107.501H405.017ZM412.301 104.841V110.941C412.301 111.354 412.394 111.654 412.581 111.841C412.781 112.014 413.114 112.101 413.581 112.101H414.981V114.001H413.181C412.154 114.001 411.367 113.761 410.821 113.281C410.274 112.801 410.001 112.021 410.001 110.941V104.841H408.701V102.981H410.001V100.241H412.301V102.981H414.981V104.841H412.301ZM427.182 108.221C427.182 108.634 427.155 109.008 427.102 109.341H418.682C418.749 110.221 419.075 110.928 419.662 111.461C420.249 111.994 420.969 112.261 421.822 112.261C423.049 112.261 423.915 111.748 424.422 110.721H426.882C426.549 111.734 425.942 112.568 425.062 113.221C424.195 113.861 423.115 114.181 421.822 114.181C420.769 114.181 419.822 113.948 418.982 113.481C418.155 113.001 417.502 112.334 417.022 111.481C416.555 110.614 416.322 109.614 416.322 108.481C416.322 107.348 416.549 106.354 417.002 105.501C417.469 104.634 418.115 103.968 418.942 103.501C419.782 103.034 420.742 102.801 421.822 102.801C422.862 102.801 423.789 103.028 424.602 103.481C425.415 103.934 426.049 104.574 426.502 105.401C426.955 106.214 427.182 107.154 427.182 108.221ZM424.802 107.501C424.789 106.661 424.489 105.988 423.902 105.481C423.315 104.974 422.589 104.721 421.722 104.721C420.935 104.721 420.262 104.974 419.702 105.481C419.142 105.974 418.809 106.648 418.702 107.501H424.802ZM442.801 100.101V101.961H436.901V106.061H441.501V107.921H436.901V114.001H434.621V100.101H442.801ZM446.074 101.521C445.661 101.521 445.314 101.381 445.034 101.101C444.754 100.821 444.614 100.474 444.614 100.061C444.614 99.6476 444.754 99.301 445.034 99.021C445.314 98.741 445.661 98.601 446.074 98.601C446.474 98.601 446.814 98.741 447.094 99.021C447.374 99.301 447.514 99.6476 447.514 100.061C447.514 100.474 447.374 100.821 447.094 101.101C446.814 101.381 446.474 101.521 446.074 101.521ZM447.194 102.981V114.001H444.914V102.981H447.194ZM452.468 99.201V114.001H450.188V99.201H452.468ZM465.561 108.221C465.561 108.634 465.534 109.008 465.481 109.341H457.061C457.128 110.221 457.454 110.928 458.041 111.461C458.628 111.994 459.348 112.261 460.201 112.261C461.428 112.261 462.294 111.748 462.801 110.721H465.261C464.928 111.734 464.321 112.568 463.441 113.221C462.574 113.861 461.494 114.181 460.201 114.181C459.148 114.181 458.201 113.948 457.361 113.481C456.534 113.001 455.881 112.334 455.401 111.481C454.934 110.614 454.701 109.614 454.701 108.481C454.701 107.348 454.928 106.354 455.381 105.501C455.848 104.634 456.494 103.968 457.321 103.501C458.161 103.034 459.121 102.801 460.201 102.801C461.241 102.801 462.168 103.028 462.981 103.481C463.794 103.934 464.428 104.574 464.881 105.401C465.334 106.214 465.561 107.154 465.561 108.221ZM463.181 107.501C463.168 106.661 462.868 105.988 462.281 105.481C461.694 104.974 460.968 104.721 460.101 104.721C459.314 104.721 458.641 104.974 458.081 105.481C457.521 105.974 457.188 106.648 457.081 107.501H463.181Z" fill="#373B4D"/>
<path fill-rule="evenodd" clip-rule="evenodd" d="M667.152 100.152C667.621 99.6839 668.381 99.6839 668.849 100.152L674.001 105.304L679.152 100.152C679.621 99.6839 680.381 99.6839 680.849 100.152C681.318 100.621 681.318 101.381 680.849 101.85L675.698 107.001L680.849 112.152C681.318 112.621 681.318 113.381 680.849 113.85C680.381 114.318 679.621 114.318 679.152 113.85L674.001 108.698L668.849 113.85C668.381 114.318 667.621 114.318 667.152 113.85C666.684 113.381 666.684 112.621 667.152 112.152L672.304 107.001L667.152 101.85C666.684 101.381 666.684 100.621 667.152 100.152Z" fill="#616B7C"/>
<path d="M309.651 167.001H308.358L312.097 156.819H313.369L317.108 167.001H315.815L312.773 158.43H312.693L309.651 167.001ZM310.128 163.024H315.338V164.117H310.128V163.024ZM318.535 167.001V159.365H319.668V160.518H319.748C319.887 160.14 320.139 159.834 320.504 159.598C320.868 159.363 321.279 159.245 321.737 159.245C321.823 159.245 321.93 159.247 322.06 159.25C322.189 159.254 322.287 159.259 322.353 159.265V160.458C322.313 160.448 322.222 160.434 322.08 160.414C321.94 160.39 321.793 160.379 321.637 160.379C321.266 160.379 320.934 160.457 320.643 160.612C320.354 160.765 320.126 160.977 319.957 161.249C319.791 161.517 319.708 161.824 319.708 162.169V167.001H318.535ZM326.713 167.16C325.977 167.16 325.343 166.998 324.809 166.673C324.279 166.345 323.869 165.887 323.581 165.301C323.296 164.711 323.153 164.025 323.153 163.242C323.153 162.46 323.296 161.771 323.581 161.174C323.869 160.574 324.27 160.107 324.784 159.772C325.301 159.434 325.904 159.265 326.594 159.265C326.991 159.265 327.384 159.331 327.772 159.464C328.16 159.597 328.513 159.812 328.831 160.11C329.149 160.405 329.403 160.796 329.592 161.284C329.781 161.771 329.875 162.371 329.875 163.083V163.581H323.989V162.566H328.682C328.682 162.135 328.596 161.751 328.423 161.413C328.254 161.075 328.012 160.808 327.697 160.612C327.386 160.417 327.018 160.319 326.594 160.319C326.126 160.319 325.722 160.435 325.381 160.667C325.043 160.896 324.782 161.194 324.6 161.562C324.418 161.93 324.327 162.324 324.327 162.745V163.421C324.327 163.998 324.426 164.487 324.625 164.888C324.827 165.286 325.107 165.589 325.465 165.798C325.823 166.003 326.239 166.106 326.713 166.106C327.021 166.106 327.3 166.063 327.548 165.977C327.8 165.887 328.017 165.755 328.2 165.579C328.382 165.4 328.523 165.178 328.622 164.913L329.756 165.231C329.636 165.616 329.436 165.954 329.154 166.245C328.872 166.534 328.524 166.759 328.11 166.921C327.696 167.081 327.23 167.16 326.713 167.16ZM336.353 169.865C336.154 169.865 335.977 169.848 335.821 169.815C335.665 169.785 335.558 169.755 335.498 169.725L335.796 168.691C336.081 168.764 336.333 168.791 336.552 168.771C336.771 168.751 336.964 168.653 337.134 168.478C337.306 168.305 337.463 168.025 337.606 167.637L337.825 167.041L335.001 159.365H336.273L338.381 165.45H338.461L340.569 159.365H341.842L338.6 168.115C338.454 168.509 338.274 168.835 338.058 169.094C337.843 169.356 337.593 169.55 337.308 169.676C337.026 169.802 336.708 169.865 336.353 169.865ZM346.219 167.16C345.53 167.16 344.925 166.996 344.404 166.668C343.887 166.34 343.483 165.881 343.191 165.291C342.903 164.701 342.759 164.011 342.759 163.223C342.759 162.427 342.903 161.733 343.191 161.139C343.483 160.546 343.887 160.085 344.404 159.757C344.925 159.429 345.53 159.265 346.219 159.265C346.908 159.265 347.512 159.429 348.029 159.757C348.549 160.085 348.953 160.546 349.242 161.139C349.533 161.733 349.679 162.427 349.679 163.223C349.679 164.011 349.533 164.701 349.242 165.291C348.953 165.881 348.549 166.34 348.029 166.668C347.512 166.996 346.908 167.16 346.219 167.16ZM346.219 166.106C346.743 166.106 347.174 165.972 347.512 165.703C347.85 165.435 348.1 165.082 348.262 164.644C348.425 164.207 348.506 163.733 348.506 163.223C348.506 162.712 348.425 162.237 348.262 161.796C348.1 161.355 347.85 160.999 347.512 160.727C347.174 160.455 346.743 160.319 346.219 160.319C345.695 160.319 345.265 160.455 344.926 160.727C344.588 160.999 344.338 161.355 344.176 161.796C344.013 162.237 343.932 162.712 343.932 163.223C343.932 163.733 344.013 164.207 344.176 164.644C344.338 165.082 344.588 165.435 344.926 165.703C345.265 165.972 345.695 166.106 346.219 166.106ZM356.283 163.879V159.365H357.456V167.001H356.283V165.708H356.203C356.024 166.096 355.746 166.426 355.368 166.698C354.99 166.966 354.513 167.1 353.936 167.1C353.459 167.1 353.035 166.996 352.664 166.787C352.292 166.575 352.001 166.257 351.789 165.833C351.576 165.405 351.47 164.867 351.47 164.217V159.365H352.644V164.137C352.644 164.694 352.799 165.138 353.111 165.47C353.426 165.801 353.827 165.967 354.314 165.967C354.606 165.967 354.902 165.892 355.204 165.743C355.509 165.594 355.764 165.365 355.97 165.057C356.178 164.749 356.283 164.356 356.283 163.879ZM368.952 161.075L367.898 161.373C367.831 161.197 367.734 161.027 367.604 160.861C367.478 160.692 367.306 160.553 367.087 160.443C366.869 160.334 366.589 160.279 366.247 160.279C365.78 160.279 365.39 160.387 365.079 160.603C364.771 160.815 364.616 161.085 364.616 161.413C364.616 161.705 364.723 161.935 364.935 162.104C365.147 162.273 365.478 162.414 365.929 162.527L367.062 162.805C367.745 162.971 368.254 163.224 368.589 163.566C368.924 163.904 369.091 164.34 369.091 164.873C369.091 165.311 368.965 165.702 368.713 166.046C368.464 166.391 368.116 166.663 367.669 166.862C367.222 167.061 366.701 167.16 366.108 167.16C365.329 167.16 364.684 166.991 364.174 166.653C363.664 166.315 363.34 165.821 363.205 165.171L364.318 164.893C364.424 165.304 364.625 165.612 364.92 165.818C365.218 166.023 365.607 166.126 366.088 166.126C366.635 166.126 367.069 166.01 367.391 165.778C367.715 165.543 367.878 165.261 367.878 164.933C367.878 164.668 367.785 164.446 367.599 164.267C367.414 164.084 367.129 163.948 366.744 163.859L365.472 163.561C364.772 163.395 364.259 163.138 363.93 162.79C363.606 162.439 363.443 162 363.443 161.473C363.443 161.042 363.564 160.661 363.806 160.329C364.051 159.998 364.384 159.737 364.805 159.549C365.23 159.36 365.71 159.265 366.247 159.265C367.003 159.265 367.596 159.431 368.027 159.762C368.461 160.094 368.769 160.531 368.952 161.075ZM375.67 163.879V159.365H376.843V167.001H375.67V165.708H375.59C375.411 166.096 375.133 166.426 374.755 166.698C374.377 166.966 373.9 167.1 373.323 167.1C372.846 167.1 372.421 166.996 372.05 166.787C371.679 166.575 371.387 166.257 371.175 165.833C370.963 165.405 370.857 164.867 370.857 164.217V159.365H372.03V164.137C372.03 164.694 372.186 165.138 372.498 165.47C372.813 165.801 373.214 165.967 373.701 165.967C373.992 165.967 374.289 165.892 374.591 165.743C374.896 165.594 375.151 165.365 375.356 165.057C375.565 164.749 375.67 164.356 375.67 163.879ZM378.992 167.001V159.365H380.125V160.518H380.205C380.344 160.14 380.596 159.834 380.961 159.598C381.325 159.363 381.736 159.245 382.194 159.245C382.28 159.245 382.387 159.247 382.517 159.25C382.646 159.254 382.744 159.259 382.81 159.265V160.458C382.77 160.448 382.679 160.434 382.537 160.414C382.397 160.39 382.25 160.379 382.094 160.379C381.723 160.379 381.391 160.457 381.1 160.612C380.811 160.765 380.583 160.977 380.414 161.249C380.248 161.517 380.165 161.824 380.165 162.169V167.001H378.992ZM387.17 167.16C386.434 167.16 385.8 166.998 385.266 166.673C384.736 166.345 384.326 165.887 384.038 165.301C383.753 164.711 383.61 164.025 383.61 163.242C383.61 162.46 383.753 161.771 384.038 161.174C384.326 160.574 384.727 160.107 385.241 159.772C385.758 159.434 386.361 159.265 387.051 159.265C387.449 159.265 387.841 159.331 388.229 159.464C388.617 159.597 388.97 159.812 389.288 160.11C389.606 160.405 389.86 160.796 390.049 161.284C390.238 161.771 390.332 162.371 390.332 163.083V163.581H384.446V162.566H389.139C389.139 162.135 389.053 161.751 388.88 161.413C388.711 161.075 388.469 160.808 388.154 160.612C387.843 160.417 387.475 160.319 387.051 160.319C386.583 160.319 386.179 160.435 385.838 160.667C385.5 160.896 385.239 161.194 385.057 161.562C384.875 161.93 384.784 162.324 384.784 162.745V163.421C384.784 163.998 384.883 164.487 385.082 164.888C385.284 165.286 385.564 165.589 385.922 165.798C386.28 166.003 386.696 166.106 387.17 166.106C387.478 166.106 387.757 166.063 388.005 165.977C388.257 165.887 388.474 165.755 388.657 165.579C388.839 165.4 388.98 165.178 389.079 164.913L390.213 165.231C390.093 165.616 389.893 165.954 389.611 166.245C389.329 166.534 388.981 166.759 388.567 166.921C388.153 167.081 387.687 167.16 387.17 167.16ZM396.81 169.865C396.611 169.865 396.434 169.848 396.278 169.815C396.122 169.785 396.015 169.755 395.955 169.725L396.253 168.691C396.538 168.764 396.79 168.791 397.009 168.771C397.228 168.751 397.422 168.653 397.591 168.478C397.763 168.305 397.92 168.025 398.063 167.637L398.282 167.041L395.458 159.365H396.73L398.838 165.45H398.918L401.026 159.365H402.299L399.057 168.115C398.911 168.509 398.731 168.835 398.515 169.094C398.3 169.356 398.05 169.55 397.765 169.676C397.483 169.802 397.165 169.865 396.81 169.865ZM406.676 167.16C405.987 167.16 405.382 166.996 404.862 166.668C404.344 166.34 403.94 165.881 403.648 165.291C403.36 164.701 403.216 164.011 403.216 163.223C403.216 162.427 403.36 161.733 403.648 161.139C403.94 160.546 404.344 160.085 404.862 159.757C405.382 159.429 405.987 159.265 406.676 159.265C407.366 159.265 407.969 159.429 408.486 159.757C409.006 160.085 409.411 160.546 409.699 161.139C409.991 161.733 410.136 162.427 410.136 163.223C410.136 164.011 409.991 164.701 409.699 165.291C409.411 165.881 409.006 166.34 408.486 166.668C407.969 166.996 407.366 167.16 406.676 167.16ZM406.676 166.106C407.2 166.106 407.631 165.972 407.969 165.703C408.307 165.435 408.557 165.082 408.719 164.644C408.882 164.207 408.963 163.733 408.963 163.223C408.963 162.712 408.882 162.237 408.719 161.796C408.557 161.355 408.307 160.999 407.969 160.727C407.631 160.455 407.2 160.319 406.676 160.319C406.152 160.319 405.722 160.455 405.384 160.727C405.045 160.999 404.795 161.355 404.633 161.796C404.47 162.237 404.389 162.712 404.389 163.223C404.389 163.733 404.47 164.207 404.633 164.644C404.795 165.082 405.045 165.435 405.384 165.703C405.722 165.972 406.152 166.106 406.676 166.106ZM416.74 163.879V159.365H417.913V167.001H416.74V165.708H416.66C416.481 166.096 416.203 166.426 415.825 166.698C415.447 166.966 414.97 167.1 414.393 167.1C413.916 167.1 413.492 166.996 413.121 166.787C412.749 166.575 412.458 166.257 412.246 165.833C412.033 165.405 411.927 164.867 411.927 164.217V159.365H413.101V164.137C413.101 164.694 413.256 165.138 413.568 165.47C413.883 165.801 414.284 165.967 414.771 165.967C415.063 165.967 415.359 165.892 415.661 165.743C415.966 165.594 416.221 165.365 416.427 165.057C416.635 164.749 416.74 164.356 416.74 163.879ZM425.73 167.001L423.403 159.365H424.636L426.287 165.211H426.366L427.997 159.365H429.25L430.86 165.191H430.94L432.591 159.365H433.824L431.497 167.001H430.343L428.673 161.134H428.554L426.883 167.001H425.73ZM437.622 167.18C437.138 167.18 436.699 167.089 436.304 166.907C435.91 166.721 435.597 166.454 435.365 166.106C435.133 165.755 435.017 165.331 435.017 164.833C435.017 164.396 435.103 164.041 435.275 163.769C435.448 163.494 435.678 163.279 435.966 163.123C436.255 162.967 436.573 162.851 436.921 162.775C437.272 162.696 437.625 162.633 437.98 162.586C438.444 162.527 438.82 162.482 439.108 162.452C439.4 162.419 439.612 162.364 439.745 162.288C439.881 162.212 439.949 162.079 439.949 161.89V161.85C439.949 161.36 439.814 160.979 439.546 160.707C439.281 160.435 438.878 160.299 438.338 160.299C437.778 160.299 437.338 160.422 437.02 160.667C436.702 160.912 436.478 161.174 436.349 161.453L435.235 161.055C435.434 160.591 435.699 160.23 436.031 159.971C436.366 159.709 436.73 159.527 437.125 159.424C437.522 159.318 437.913 159.265 438.298 159.265C438.543 159.265 438.825 159.295 439.143 159.355C439.465 159.411 439.775 159.529 440.073 159.708C440.374 159.887 440.625 160.157 440.824 160.518C441.022 160.879 441.122 161.363 441.122 161.97V167.001H439.949V165.967H439.889C439.809 166.133 439.677 166.31 439.491 166.499C439.306 166.688 439.059 166.849 438.75 166.981C438.442 167.114 438.066 167.18 437.622 167.18ZM437.801 166.126C438.265 166.126 438.656 166.035 438.974 165.853C439.296 165.67 439.538 165.435 439.7 165.147C439.866 164.858 439.949 164.555 439.949 164.237V163.163C439.899 163.223 439.789 163.277 439.62 163.327C439.455 163.373 439.262 163.415 439.044 163.451C438.828 163.484 438.618 163.514 438.412 163.541C438.21 163.564 438.046 163.584 437.92 163.6C437.615 163.64 437.33 163.705 437.065 163.794C436.803 163.88 436.591 164.011 436.429 164.187C436.27 164.359 436.19 164.595 436.19 164.893C436.19 165.301 436.341 165.609 436.642 165.818C436.947 166.023 437.333 166.126 437.801 166.126ZM444.437 162.407V167.001H443.263V159.365H444.397V160.558H444.496C444.675 160.17 444.947 159.858 445.312 159.623C445.676 159.384 446.147 159.265 446.724 159.265C447.241 159.265 447.693 159.371 448.081 159.583C448.469 159.792 448.77 160.11 448.986 160.538C449.201 160.962 449.309 161.499 449.309 162.149V167.001H448.135V162.228C448.135 161.628 447.98 161.161 447.668 160.826C447.357 160.488 446.929 160.319 446.385 160.319C446.011 160.319 445.676 160.4 445.381 160.563C445.09 160.725 444.859 160.962 444.69 161.274C444.521 161.585 444.437 161.963 444.437 162.407ZM454.774 159.365V160.359H450.816V159.365H454.774ZM451.97 157.535H453.143V164.813C453.143 165.145 453.191 165.393 453.287 165.559C453.387 165.722 453.513 165.831 453.665 165.887C453.821 165.94 453.985 165.967 454.157 165.967C454.287 165.967 454.393 165.96 454.475 165.947C454.558 165.93 454.625 165.917 454.674 165.907L454.913 166.961C454.833 166.991 454.722 167.021 454.58 167.051C454.437 167.084 454.257 167.1 454.038 167.1C453.707 167.1 453.382 167.029 453.064 166.887C452.749 166.744 452.487 166.527 452.278 166.235C452.073 165.944 451.97 165.576 451.97 165.132V157.535ZM463.797 159.365V160.359H459.84V159.365H463.797ZM460.993 157.535H462.167V164.813C462.167 165.145 462.215 165.393 462.311 165.559C462.41 165.722 462.536 165.831 462.689 165.887C462.844 165.94 463.008 165.967 463.181 165.967C463.31 165.967 463.416 165.96 463.499 165.947C463.582 165.93 463.648 165.917 463.698 165.907L463.936 166.961C463.857 166.991 463.746 167.021 463.603 167.051C463.461 167.084 463.28 167.1 463.061 167.1C462.73 167.1 462.405 167.029 462.087 166.887C461.772 166.744 461.51 166.527 461.301 166.235C461.096 165.944 460.993 165.576 460.993 165.132V157.535ZM468.582 167.16C467.893 167.16 467.288 166.996 466.768 166.668C466.251 166.34 465.846 165.881 465.555 165.291C465.266 164.701 465.122 164.011 465.122 163.223C465.122 162.427 465.266 161.733 465.555 161.139C465.846 160.546 466.251 160.085 466.768 159.757C467.288 159.429 467.893 159.265 468.582 159.265C469.272 159.265 469.875 159.429 470.392 159.757C470.912 160.085 471.317 160.546 471.605 161.139C471.897 161.733 472.043 162.427 472.043 163.223C472.043 164.011 471.897 164.701 471.605 165.291C471.317 165.881 470.912 166.34 470.392 166.668C469.875 166.996 469.272 167.16 468.582 167.16ZM468.582 166.106C469.106 166.106 469.537 165.972 469.875 165.703C470.213 165.435 470.463 165.082 470.626 164.644C470.788 164.207 470.869 163.733 470.869 163.223C470.869 162.712 470.788 162.237 470.626 161.796C470.463 161.355 470.213 160.999 469.875 160.727C469.537 160.455 469.106 160.319 468.582 160.319C468.059 160.319 467.628 160.455 467.29 160.727C466.952 160.999 466.701 161.355 466.539 161.796C466.377 162.237 466.295 162.712 466.295 163.223C466.295 163.733 466.377 164.207 466.539 164.644C466.701 165.082 466.952 165.435 467.29 165.703C467.628 165.972 468.059 166.106 468.582 166.106ZM480.655 167.16C480.018 167.16 479.456 166.999 478.969 166.678C478.482 166.353 478.101 165.896 477.826 165.306C477.551 164.712 477.413 164.011 477.413 163.203C477.413 162.401 477.551 161.705 477.826 161.115C478.101 160.525 478.484 160.069 478.974 159.747C479.465 159.426 480.032 159.265 480.675 159.265C481.172 159.265 481.564 159.348 481.853 159.514C482.144 159.676 482.367 159.862 482.519 160.071C482.675 160.276 482.796 160.445 482.882 160.578H482.981V156.819H484.155V167.001H483.021V165.828H482.882C482.796 165.967 482.673 166.143 482.514 166.355C482.355 166.563 482.128 166.751 481.833 166.916C481.538 167.079 481.145 167.16 480.655 167.16ZM480.814 166.106C481.284 166.106 481.682 165.983 482.007 165.738C482.332 165.49 482.579 165.147 482.748 164.709C482.917 164.268 483.001 163.759 483.001 163.183C483.001 162.613 482.918 162.114 482.753 161.686C482.587 161.255 482.342 160.921 482.017 160.682C481.692 160.44 481.291 160.319 480.814 160.319C480.317 160.319 479.902 160.447 479.571 160.702C479.243 160.954 478.996 161.297 478.83 161.731C478.668 162.162 478.586 162.646 478.586 163.183C478.586 163.726 478.669 164.22 478.835 164.664C479.004 165.105 479.253 165.456 479.581 165.718C479.912 165.977 480.323 166.106 480.814 166.106ZM489.668 167.16C488.932 167.16 488.298 166.998 487.764 166.673C487.234 166.345 486.824 165.887 486.536 165.301C486.251 164.711 486.108 164.025 486.108 163.242C486.108 162.46 486.251 161.771 486.536 161.174C486.824 160.574 487.225 160.107 487.739 159.772C488.256 159.434 488.859 159.265 489.549 159.265C489.947 159.265 490.339 159.331 490.727 159.464C491.115 159.597 491.468 159.812 491.786 160.11C492.104 160.405 492.358 160.796 492.547 161.284C492.736 161.771 492.83 162.371 492.83 163.083V163.581H486.944V162.566H491.637C491.637 162.135 491.551 161.751 491.378 161.413C491.209 161.075 490.967 160.808 490.653 160.612C490.341 160.417 489.973 160.319 489.549 160.319C489.081 160.319 488.677 160.435 488.336 160.667C487.998 160.896 487.738 161.194 487.555 161.562C487.373 161.93 487.282 162.324 487.282 162.745V163.421C487.282 163.998 487.381 164.487 487.58 164.888C487.782 165.286 488.062 165.589 488.42 165.798C488.778 166.003 489.194 166.106 489.668 166.106C489.976 166.106 490.255 166.063 490.503 165.977C490.755 165.887 490.972 165.755 491.155 165.579C491.337 165.4 491.478 165.178 491.577 164.913L492.711 165.231C492.591 165.616 492.391 165.954 492.109 166.245C491.827 166.534 491.479 166.759 491.065 166.921C490.651 167.081 490.185 167.16 489.668 167.16ZM495.788 156.819V167.001H494.615V156.819H495.788ZM501.139 167.16C500.403 167.16 499.768 166.998 499.235 166.673C498.704 166.345 498.295 165.887 498.007 165.301C497.722 164.711 497.579 164.025 497.579 163.242C497.579 162.46 497.722 161.771 498.007 161.174C498.295 160.574 498.696 160.107 499.21 159.772C499.727 159.434 500.33 159.265 501.02 159.265C501.417 159.265 501.81 159.331 502.198 159.464C502.586 159.597 502.939 159.812 503.257 160.11C503.575 160.405 503.828 160.796 504.017 161.284C504.206 161.771 504.301 162.371 504.301 163.083V163.581H498.414V162.566H503.108C503.108 162.135 503.021 161.751 502.849 161.413C502.68 161.075 502.438 160.808 502.123 160.612C501.812 160.417 501.444 160.319 501.02 160.319C500.552 160.319 500.148 160.435 499.806 160.667C499.468 160.896 499.208 161.194 499.026 161.562C498.844 161.93 498.752 162.324 498.752 162.745V163.421C498.752 163.998 498.852 164.487 499.051 164.888C499.253 165.286 499.533 165.589 499.891 165.798C500.249 166.003 500.665 166.106 501.139 166.106C501.447 166.106 501.725 166.063 501.974 165.977C502.226 165.887 502.443 165.755 502.625 165.579C502.808 165.4 502.949 165.178 503.048 164.913L504.181 165.231C504.062 165.616 503.862 165.954 503.58 166.245C503.298 166.534 502.95 166.759 502.536 166.921C502.122 167.081 501.656 167.16 501.139 167.16ZM509.407 159.365V160.359H505.449V159.365H509.407ZM506.603 157.535H507.776V164.813C507.776 165.145 507.824 165.393 507.92 165.559C508.02 165.722 508.145 165.831 508.298 165.887C508.454 165.94 508.618 165.967 508.79 165.967C508.919 165.967 509.025 165.96 509.108 165.947C509.191 165.93 509.257 165.917 509.307 165.907L509.546 166.961C509.466 166.991 509.355 167.021 509.213 167.051C509.07 167.084 508.89 167.1 508.671 167.1C508.339 167.1 508.015 167.029 507.696 166.887C507.382 166.744 507.12 166.527 506.911 166.235C506.705 165.944 506.603 165.576 506.603 165.132V157.535ZM514.291 167.16C513.555 167.16 512.921 166.998 512.387 166.673C511.857 166.345 511.447 165.887 511.159 165.301C510.874 164.711 510.732 164.025 510.732 163.242C510.732 162.46 510.874 161.771 511.159 161.174C511.447 160.574 511.848 160.107 512.362 159.772C512.879 159.434 513.482 159.265 514.172 159.265C514.57 159.265 514.962 159.331 515.35 159.464C515.738 159.597 516.091 159.812 516.409 160.11C516.727 160.405 516.981 160.796 517.17 161.284C517.359 161.771 517.453 162.371 517.453 163.083V163.581H511.567V162.566H516.26C516.26 162.135 516.174 161.751 516.001 161.413C515.832 161.075 515.59 160.808 515.276 160.612C514.964 160.417 514.596 160.319 514.172 160.319C513.705 160.319 513.3 160.435 512.959 160.667C512.621 160.896 512.361 161.194 512.178 161.562C511.996 161.93 511.905 162.324 511.905 162.745V163.421C511.905 163.998 512.004 164.487 512.203 164.888C512.405 165.286 512.685 165.589 513.043 165.798C513.401 166.003 513.817 166.106 514.291 166.106C514.599 166.106 514.878 166.063 515.126 165.977C515.378 165.887 515.595 165.755 515.778 165.579C515.96 165.4 516.101 165.178 516.2 164.913L517.334 165.231C517.214 165.616 517.014 165.954 516.732 166.245C516.451 166.534 516.103 166.759 515.688 166.921C515.274 167.081 514.808 167.16 514.291 167.16ZM526.576 159.365V160.359H522.46V159.365H526.576ZM523.692 167.001V158.311C523.692 157.873 523.795 157.509 524.001 157.217C524.206 156.925 524.473 156.706 524.801 156.561C525.129 156.415 525.476 156.342 525.84 156.342C526.129 156.342 526.364 156.365 526.546 156.411C526.728 156.458 526.864 156.501 526.954 156.541L526.616 157.555C526.556 157.535 526.473 157.51 526.367 157.48C526.264 157.451 526.129 157.436 525.96 157.436C525.572 157.436 525.292 157.533 525.119 157.729C524.95 157.925 524.866 158.211 524.866 158.589V167.001H523.692ZM528.22 167.001V159.365H529.394V167.001H528.22ZM528.817 158.092C528.588 158.092 528.391 158.014 528.225 157.858C528.063 157.702 527.982 157.515 527.982 157.296C527.982 157.078 528.063 156.89 528.225 156.735C528.391 156.579 528.588 156.501 528.817 156.501C529.046 156.501 529.241 156.579 529.404 156.735C529.569 156.89 529.652 157.078 529.652 157.296C529.652 157.515 529.569 157.702 529.404 157.858C529.241 158.014 529.046 158.092 528.817 158.092ZM532.716 156.819V167.001H531.543V156.819H532.716ZM538.067 167.16C537.331 167.16 536.696 166.998 536.162 166.673C535.632 166.345 535.223 165.887 534.934 165.301C534.649 164.711 534.507 164.025 534.507 163.242C534.507 162.46 534.649 161.771 534.934 161.174C535.223 160.574 535.624 160.107 536.138 159.772C536.655 159.434 537.258 159.265 537.947 159.265C538.345 159.265 538.738 159.331 539.126 159.464C539.513 159.597 539.866 159.812 540.184 160.11C540.503 160.405 540.756 160.796 540.945 161.284C541.134 161.771 541.229 162.371 541.229 163.083V163.581H535.342V162.566H540.035C540.035 162.135 539.949 161.751 539.777 161.413C539.608 161.075 539.366 160.808 539.051 160.612C538.739 160.417 538.372 160.319 537.947 160.319C537.48 160.319 537.076 160.435 536.734 160.667C536.396 160.896 536.136 161.194 535.954 161.562C535.771 161.93 535.68 162.324 535.68 162.745V163.421C535.68 163.998 535.78 164.487 535.979 164.888C536.181 165.286 536.461 165.589 536.819 165.798C537.177 166.003 537.593 166.106 538.067 166.106C538.375 166.106 538.653 166.063 538.902 165.977C539.154 165.887 539.371 165.755 539.553 165.579C539.735 165.4 539.876 165.178 539.976 164.913L541.109 165.231C540.99 165.616 540.789 165.954 540.508 166.245C540.226 166.534 539.878 166.759 539.464 166.921C539.049 167.081 538.584 167.16 538.067 167.16ZM544.187 162.407V167.001H543.013V159.365H544.147V160.558H544.246C544.425 160.17 544.697 159.858 545.062 159.623C545.426 159.384 545.897 159.265 546.474 159.265C546.991 159.265 547.443 159.371 547.831 159.583C548.219 159.792 548.52 160.11 548.736 160.538C548.951 160.962 549.059 161.499 549.059 162.149V167.001H547.885V162.228C547.885 161.628 547.73 161.161 547.418 160.826C547.107 160.488 546.679 160.319 546.135 160.319C545.761 160.319 545.426 160.4 545.131 160.563C544.84 160.725 544.609 160.962 544.44 161.274C544.271 161.585 544.187 161.963 544.187 162.407ZM553.45 167.18C552.966 167.18 552.527 167.089 552.132 166.907C551.738 166.721 551.425 166.454 551.193 166.106C550.961 165.755 550.845 165.331 550.845 164.833C550.845 164.396 550.931 164.041 551.103 163.769C551.276 163.494 551.506 163.279 551.794 163.123C552.083 162.967 552.401 162.851 552.749 162.775C553.1 162.696 553.453 162.633 553.808 162.586C554.272 162.527 554.648 162.482 554.936 162.452C555.228 162.419 555.44 162.364 555.573 162.288C555.709 162.212 555.777 162.079 555.777 161.89V161.85C555.777 161.36 555.642 160.979 555.374 160.707C555.109 160.435 554.706 160.299 554.166 160.299C553.606 160.299 553.167 160.422 552.848 160.667C552.53 160.912 552.306 161.174 552.177 161.453L551.064 161.055C551.262 160.591 551.528 160.23 551.859 159.971C552.194 159.709 552.558 159.527 552.953 159.424C553.35 159.318 553.742 159.265 554.126 159.265C554.371 159.265 554.653 159.295 554.971 159.355C555.293 159.411 555.603 159.529 555.901 159.708C556.203 159.887 556.453 160.157 556.652 160.518C556.85 160.879 556.95 161.363 556.95 161.97V167.001H555.777V165.967H555.717C555.637 166.133 555.505 166.31 555.319 166.499C555.134 166.688 554.887 166.849 554.578 166.981C554.27 167.114 553.894 167.18 553.45 167.18ZM553.629 166.126C554.093 166.126 554.484 166.035 554.802 165.853C555.124 165.67 555.366 165.435 555.528 165.147C555.694 164.858 555.777 164.555 555.777 164.237V163.163C555.727 163.223 555.618 163.277 555.449 163.327C555.283 163.373 555.091 163.415 554.872 163.451C554.656 163.484 554.446 163.514 554.24 163.541C554.038 163.564 553.874 163.584 553.748 163.6C553.443 163.64 553.158 163.705 552.893 163.794C552.631 163.88 552.419 164.011 552.257 164.187C552.098 164.359 552.018 164.595 552.018 164.893C552.018 165.301 552.169 165.609 552.471 165.818C552.775 166.023 553.162 166.126 553.629 166.126ZM559.091 167.001V159.365H560.225V160.558H560.324C560.483 160.15 560.74 159.834 561.095 159.608C561.45 159.38 561.876 159.265 562.373 159.265C562.876 159.265 563.296 159.38 563.631 159.608C563.969 159.834 564.232 160.15 564.421 160.558H564.501C564.696 160.163 564.989 159.85 565.381 159.618C565.772 159.383 566.241 159.265 566.787 159.265C567.47 159.265 568.029 159.479 568.463 159.907C568.897 160.331 569.114 160.992 569.114 161.89V167.001H567.941V161.89C567.941 161.327 567.787 160.924 567.479 160.682C567.17 160.44 566.807 160.319 566.39 160.319C565.853 160.319 565.437 160.482 565.142 160.806C564.847 161.128 564.699 161.536 564.699 162.029V167.001H563.506V161.771C563.506 161.337 563.365 160.987 563.084 160.722C562.802 160.453 562.439 160.319 561.995 160.319C561.69 160.319 561.405 160.4 561.14 160.563C560.878 160.725 560.666 160.951 560.503 161.239C560.344 161.524 560.265 161.854 560.265 162.228V167.001H559.091ZM574.461 167.16C573.725 167.16 573.091 166.998 572.557 166.673C572.027 166.345 571.617 165.887 571.329 165.301C571.044 164.711 570.901 164.025 570.901 163.242C570.901 162.46 571.044 161.771 571.329 161.174C571.617 160.574 572.018 160.107 572.532 159.772C573.049 159.434 573.652 159.265 574.342 159.265C574.74 159.265 575.132 159.331 575.52 159.464C575.908 159.597 576.261 159.812 576.579 160.11C576.897 160.405 577.151 160.796 577.34 161.284C577.529 161.771 577.623 162.371 577.623 163.083V163.581H571.737V162.566H576.43C576.43 162.135 576.344 161.751 576.171 161.413C576.002 161.075 575.76 160.808 575.445 160.612C575.134 160.417 574.766 160.319 574.342 160.319C573.874 160.319 573.47 160.435 573.129 160.667C572.791 160.896 572.53 161.194 572.348 161.562C572.166 161.93 572.075 162.324 572.075 162.745V163.421C572.075 163.998 572.174 164.487 572.373 164.888C572.575 165.286 572.855 165.589 573.213 165.798C573.571 166.003 573.987 166.106 574.461 166.106C574.769 166.106 575.048 166.063 575.296 165.977C575.548 165.887 575.765 165.755 575.948 165.579C576.13 165.4 576.271 165.178 576.37 164.913L577.504 165.231C577.384 165.616 577.184 165.954 576.902 166.245C576.62 166.534 576.272 166.759 575.858 166.921C575.444 167.081 574.978 167.16 574.461 167.16ZM580.263 167.081C580.018 167.081 579.807 166.993 579.632 166.817C579.456 166.641 579.368 166.431 579.368 166.186C579.368 165.94 579.456 165.73 579.632 165.554C579.807 165.379 580.018 165.291 580.263 165.291C580.508 165.291 580.719 165.379 580.894 165.554C581.07 165.73 581.158 165.94 581.158 166.186C581.158 166.348 581.116 166.497 581.034 166.633C580.954 166.769 580.846 166.878 580.71 166.961C580.578 167.041 580.429 167.081 580.263 167.081ZM583.263 169.865V159.365H584.397V160.578H584.536C584.622 160.445 584.742 160.276 584.894 160.071C585.05 159.862 585.272 159.676 585.56 159.514C585.852 159.348 586.246 159.265 586.743 159.265C587.386 159.265 587.953 159.426 588.444 159.747C588.934 160.069 589.317 160.525 589.592 161.115C589.867 161.705 590.005 162.401 590.005 163.203C590.005 164.011 589.867 164.712 589.592 165.306C589.317 165.896 588.936 166.353 588.449 166.678C587.961 166.999 587.4 167.16 586.763 167.16C586.273 167.16 585.88 167.079 585.585 166.916C585.29 166.751 585.063 166.563 584.904 166.355C584.745 166.143 584.622 165.967 584.536 165.828H584.437V169.865H583.263ZM584.417 163.183C584.417 163.759 584.501 164.268 584.67 164.709C584.839 165.147 585.086 165.49 585.411 165.738C585.736 165.983 586.134 166.106 586.604 166.106C587.095 166.106 587.504 165.977 587.832 165.718C588.164 165.456 588.412 165.105 588.578 164.664C588.747 164.22 588.831 163.726 588.831 163.183C588.831 162.646 588.749 162.162 588.583 161.731C588.421 161.297 588.174 160.954 587.842 160.702C587.514 160.447 587.101 160.319 586.604 160.319C586.127 160.319 585.726 160.44 585.401 160.682C585.076 160.921 584.831 161.255 584.665 161.686C584.5 162.114 584.417 162.613 584.417 163.183ZM592.968 162.407V167.001H591.795V159.365H592.928V160.558H593.028C593.206 160.17 593.478 159.858 593.843 159.623C594.207 159.384 594.678 159.265 595.255 159.265C595.772 159.265 596.224 159.371 596.612 159.583C597 159.792 597.301 160.11 597.517 160.538C597.732 160.962 597.84 161.499 597.84 162.149V167.001H596.667V162.228C596.667 161.628 596.511 161.161 596.199 160.826C595.888 160.488 595.46 160.319 594.917 160.319C594.542 160.319 594.207 160.4 593.912 160.563C593.621 160.725 593.39 160.962 593.221 161.274C593.052 161.585 592.968 161.963 592.968 162.407ZM603.066 170.024C602.5 170.024 602.012 169.951 601.605 169.805C601.197 169.662 600.857 169.474 600.586 169.238C600.317 169.006 600.103 168.758 599.944 168.492L600.879 167.836C600.985 167.975 601.119 168.134 601.282 168.313C601.444 168.496 601.666 168.653 601.948 168.786C602.233 168.922 602.606 168.99 603.066 168.99C603.683 168.99 604.192 168.84 604.593 168.542C604.994 168.244 605.194 167.777 605.194 167.14V165.589H605.095C605.009 165.728 604.886 165.901 604.727 166.106C604.571 166.308 604.346 166.489 604.051 166.648C603.759 166.804 603.365 166.882 602.868 166.882C602.251 166.882 601.698 166.736 601.207 166.444C600.72 166.152 600.334 165.728 600.049 165.171C599.767 164.615 599.626 163.938 599.626 163.143C599.626 162.361 599.764 161.68 600.039 161.1C600.314 160.516 600.697 160.066 601.187 159.747C601.678 159.426 602.244 159.265 602.887 159.265C603.385 159.265 603.779 159.348 604.071 159.514C604.366 159.676 604.591 159.862 604.747 160.071C604.906 160.276 605.029 160.445 605.115 160.578H605.234V159.365H606.368V167.22C606.368 167.876 606.218 168.41 605.92 168.821C605.625 169.235 605.227 169.538 604.727 169.73C604.23 169.926 603.676 170.024 603.066 170.024ZM603.027 165.828C603.497 165.828 603.895 165.72 604.22 165.505C604.545 165.289 604.792 164.979 604.961 164.575C605.13 164.17 605.214 163.687 605.214 163.123C605.214 162.573 605.131 162.087 604.966 161.666C604.8 161.246 604.555 160.916 604.23 160.677C603.905 160.438 603.504 160.319 603.027 160.319C602.529 160.319 602.115 160.445 601.784 160.697C601.456 160.949 601.209 161.287 601.043 161.711C600.881 162.135 600.799 162.606 600.799 163.123C600.799 163.653 600.882 164.122 601.048 164.53C601.217 164.934 601.466 165.253 601.794 165.485C602.125 165.713 602.536 165.828 603.027 165.828ZM615.853 159.365V160.359H611.737V159.365H615.853ZM612.97 167.001V158.311C612.97 157.873 613.073 157.509 613.278 157.217C613.484 156.925 613.75 156.706 614.078 156.561C614.407 156.415 614.753 156.342 615.118 156.342C615.406 156.342 615.641 156.365 615.824 156.411C616.006 156.458 616.142 156.501 616.231 156.541L615.893 157.555C615.833 157.535 615.751 157.51 615.645 157.48C615.542 157.451 615.406 157.436 615.237 157.436C614.849 157.436 614.569 157.533 614.397 157.729C614.228 157.925 614.143 158.211 614.143 158.589V167.001H612.97ZM617.498 167.001V159.365H618.631V160.518H618.711C618.85 160.14 619.102 159.834 619.466 159.598C619.831 159.363 620.242 159.245 620.699 159.245C620.786 159.245 620.893 159.247 621.023 159.25C621.152 159.254 621.25 159.259 621.316 159.265V160.458C621.276 160.448 621.185 160.434 621.042 160.414C620.903 160.39 620.756 160.379 620.6 160.379C620.229 160.379 619.897 160.457 619.606 160.612C619.317 160.765 619.089 160.977 618.92 161.249C618.754 161.517 618.671 161.824 618.671 162.169V167.001H617.498ZM625.577 167.16C624.887 167.16 624.282 166.996 623.762 166.668C623.245 166.34 622.84 165.881 622.549 165.291C622.26 164.701 622.116 164.011 622.116 163.223C622.116 162.427 622.26 161.733 622.549 161.139C622.84 160.546 623.245 160.085 623.762 159.757C624.282 159.429 624.887 159.265 625.577 159.265C626.266 159.265 626.869 159.429 627.386 159.757C627.907 160.085 628.311 160.546 628.599 161.139C628.891 161.733 629.037 162.427 629.037 163.223C629.037 164.011 628.891 164.701 628.599 165.291C628.311 165.881 627.907 166.34 627.386 166.668C626.869 166.996 626.266 167.16 625.577 167.16ZM625.577 166.106C626.1 166.106 626.531 165.972 626.869 165.703C627.207 165.435 627.457 165.082 627.62 164.644C627.782 164.207 627.863 163.733 627.863 163.223C627.863 162.712 627.782 162.237 627.62 161.796C627.457 161.355 627.207 160.999 626.869 160.727C626.531 160.455 626.1 160.319 625.577 160.319C625.053 160.319 624.622 160.455 624.284 160.727C623.946 160.999 623.696 161.355 623.533 161.796C623.371 162.237 623.29 162.712 623.29 163.223C623.29 163.733 623.371 164.207 623.533 164.644C623.696 165.082 623.946 165.435 624.284 165.703C624.622 165.972 625.053 166.106 625.577 166.106ZM630.828 167.001V159.365H631.961V160.558H632.061C632.22 160.15 632.477 159.834 632.831 159.608C633.186 159.38 633.612 159.265 634.109 159.265C634.613 159.265 635.032 159.38 635.367 159.608C635.705 159.834 635.968 160.15 636.157 160.558H636.237C636.432 160.163 636.726 159.85 637.117 159.618C637.508 159.383 637.977 159.265 638.524 159.265C639.207 159.265 639.765 159.479 640.199 159.907C640.633 160.331 640.85 160.992 640.85 161.89V167.001H639.677V161.89C639.677 161.327 639.523 160.924 639.215 160.682C638.907 160.44 638.544 160.319 638.126 160.319C637.589 160.319 637.173 160.482 636.878 160.806C636.583 161.128 636.436 161.536 636.436 162.029V167.001H635.243V161.771C635.243 161.337 635.102 160.987 634.82 160.722C634.538 160.453 634.175 160.319 633.731 160.319C633.426 160.319 633.141 160.4 632.876 160.563C632.614 160.725 632.402 160.951 632.24 161.239C632.081 161.524 632.001 161.854 632.001 162.228V167.001H630.828ZM646.536 160.001V159.106C646.536 158.834 646.584 158.546 646.68 158.241C646.779 157.933 646.922 157.636 647.107 157.351C647.296 157.063 647.523 156.813 647.788 156.6L648.425 157.117C648.216 157.416 648.034 157.727 647.878 158.052C647.725 158.374 647.649 158.718 647.649 159.086V160.001H646.536ZM649.722 167.001V159.365H650.856V160.558H650.955C651.114 160.15 651.371 159.834 651.726 159.608C652.08 159.38 652.506 159.265 653.004 159.265C653.507 159.265 653.927 159.38 654.261 159.608C654.599 159.834 654.863 160.15 655.052 160.558H655.131C655.327 160.163 655.62 159.85 656.011 159.618C656.402 159.383 656.871 159.265 657.418 159.265C658.101 159.265 658.66 159.479 659.094 159.907C659.528 160.331 659.745 160.992 659.745 161.89V167.001H658.572V161.89C658.572 161.327 658.418 160.924 658.109 160.682C657.801 160.44 657.438 160.319 657.021 160.319C656.484 160.319 656.068 160.482 655.773 160.806C655.478 161.128 655.33 161.536 655.33 162.029V167.001H654.137V161.771C654.137 161.337 653.996 160.987 653.714 160.722C653.433 160.453 653.07 160.319 652.626 160.319C652.321 160.319 652.036 160.4 651.771 160.563C651.509 160.725 651.297 160.951 651.134 161.239C650.975 161.524 650.896 161.854 650.896 162.228V167.001H649.722ZM662.373 169.865C662.174 169.865 661.996 169.848 661.841 169.815C661.685 169.785 661.577 169.755 661.517 169.725L661.816 168.691C662.101 168.764 662.353 168.791 662.571 168.771C662.79 168.751 662.984 168.653 663.153 168.478C663.325 168.305 663.483 168.025 663.625 167.637L663.844 167.041L661.02 159.365H662.293L664.401 165.45H664.48L666.588 159.365H667.861L664.62 168.115C664.474 168.509 664.293 168.835 664.078 169.094C663.862 169.356 663.612 169.55 663.327 169.676C663.045 169.802 662.727 169.865 662.373 169.865ZM312.474 180.365V181.359H308.358V180.365H312.474ZM309.591 188.001V179.311C309.591 178.873 309.694 178.509 309.899 178.217C310.105 177.925 310.371 177.706 310.7 177.561C311.028 177.415 311.374 177.342 311.739 177.342C312.027 177.342 312.262 177.365 312.445 177.411C312.627 177.458 312.763 177.501 312.852 177.541L312.514 178.555C312.455 178.535 312.372 178.51 312.266 178.48C312.163 178.451 312.027 178.436 311.858 178.436C311.47 178.436 311.19 178.533 311.018 178.729C310.849 178.925 310.764 179.211 310.764 179.589V188.001H309.591ZM314.119 188.001V180.365H315.292V188.001H314.119ZM314.715 179.092C314.487 179.092 314.289 179.014 314.124 178.858C313.961 178.702 313.88 178.515 313.88 178.296C313.88 178.078 313.961 177.89 314.124 177.735C314.289 177.579 314.487 177.501 314.715 177.501C314.944 177.501 315.14 177.579 315.302 177.735C315.468 177.89 315.551 178.078 315.551 178.296C315.551 178.515 315.468 178.702 315.302 178.858C315.14 179.014 314.944 179.092 314.715 179.092ZM317.441 188.001V180.365H318.575V181.518H318.654C318.793 181.14 319.045 180.834 319.41 180.598C319.774 180.363 320.185 180.245 320.643 180.245C320.729 180.245 320.837 180.247 320.966 180.25C321.095 180.254 321.193 180.259 321.259 180.265V181.458C321.219 181.448 321.128 181.434 320.986 181.414C320.847 181.39 320.699 181.379 320.543 181.379C320.172 181.379 319.841 181.457 319.549 181.612C319.261 181.765 319.032 181.977 318.863 182.249C318.697 182.517 318.614 182.824 318.614 183.169V188.001H317.441ZM328.059 182.075L327.005 182.373C326.939 182.197 326.841 182.027 326.712 181.861C326.586 181.692 326.414 181.553 326.195 181.443C325.976 181.334 325.696 181.279 325.355 181.279C324.887 181.279 324.498 181.387 324.186 181.603C323.878 181.815 323.724 182.085 323.724 182.413C323.724 182.705 323.83 182.935 324.042 183.104C324.254 183.273 324.586 183.414 325.036 183.527L326.17 183.805C326.853 183.971 327.361 184.224 327.696 184.566C328.031 184.904 328.198 185.34 328.198 185.873C328.198 186.311 328.072 186.702 327.82 187.046C327.572 187.391 327.224 187.663 326.776 187.862C326.329 188.061 325.809 188.16 325.215 188.16C324.436 188.16 323.792 187.991 323.281 187.653C322.771 187.315 322.448 186.821 322.312 186.171L323.426 185.893C323.532 186.304 323.732 186.612 324.027 186.818C324.325 187.023 324.715 187.126 325.195 187.126C325.742 187.126 326.177 187.01 326.498 186.778C326.823 186.543 326.985 186.261 326.985 185.933C326.985 185.668 326.892 185.446 326.707 185.267C326.521 185.084 326.236 184.948 325.852 184.859L324.579 184.561C323.88 184.395 323.366 184.138 323.038 183.79C322.713 183.439 322.551 183 322.551 182.473C322.551 182.042 322.672 181.661 322.914 181.329C323.159 180.998 323.492 180.737 323.913 180.549C324.337 180.36 324.818 180.265 325.355 180.265C326.11 180.265 326.704 180.431 327.134 180.762C327.569 181.094 327.877 181.531 328.059 182.075ZM333.286 180.365V181.359H329.328V180.365H333.286ZM330.482 178.535H331.655V185.813C331.655 186.145 331.703 186.393 331.799 186.559C331.898 186.722 332.024 186.831 332.177 186.887C332.333 186.94 332.497 186.967 332.669 186.967C332.798 186.967 332.904 186.96 332.987 186.947C333.07 186.93 333.136 186.917 333.186 186.907L333.425 187.961C333.345 187.991 333.234 188.021 333.092 188.051C332.949 188.084 332.768 188.1 332.55 188.1C332.218 188.1 331.893 188.029 331.575 187.887C331.26 187.744 330.999 187.527 330.79 187.235C330.584 186.944 330.482 186.576 330.482 186.132V178.535ZM339.147 188.001V177.819H340.32V181.578H340.42C340.506 181.445 340.625 181.276 340.778 181.071C340.933 180.862 341.156 180.676 341.444 180.514C341.736 180.348 342.13 180.265 342.627 180.265C343.27 180.265 343.837 180.426 344.327 180.747C344.818 181.069 345.201 181.525 345.476 182.115C345.751 182.705 345.888 183.401 345.888 184.203C345.888 185.011 345.751 185.712 345.476 186.306C345.201 186.896 344.82 187.353 344.332 187.678C343.845 187.999 343.283 188.16 342.647 188.16C342.156 188.16 341.764 188.079 341.469 187.916C341.174 187.751 340.947 187.563 340.788 187.355C340.629 187.143 340.506 186.967 340.42 186.828H340.281V188.001H339.147ZM340.3 184.183C340.3 184.759 340.385 185.268 340.554 185.709C340.723 186.147 340.97 186.49 341.295 186.738C341.62 186.983 342.017 187.106 342.488 187.106C342.978 187.106 343.388 186.977 343.716 186.718C344.047 186.456 344.296 186.105 344.462 185.664C344.631 185.22 344.715 184.726 344.715 184.183C344.715 183.646 344.632 183.162 344.467 182.731C344.304 182.297 344.057 181.954 343.726 181.702C343.398 181.447 342.985 181.319 342.488 181.319C342.011 181.319 341.61 181.44 341.285 181.682C340.96 181.921 340.715 182.255 340.549 182.686C340.383 183.114 340.3 183.613 340.3 184.183ZM352.496 184.879V180.365H353.669V188.001H352.496V186.708H352.416C352.237 187.096 351.959 187.426 351.581 187.698C351.203 187.966 350.726 188.1 350.149 188.1C349.672 188.1 349.248 187.996 348.876 187.787C348.505 187.575 348.214 187.257 348.001 186.833C347.789 186.405 347.683 185.867 347.683 185.217V180.365H348.857V185.137C348.857 185.694 349.012 186.138 349.324 186.47C349.639 186.801 350.04 186.967 350.527 186.967C350.819 186.967 351.115 186.892 351.417 186.743C351.722 186.594 351.977 186.365 352.183 186.057C352.391 185.749 352.496 185.356 352.496 184.879ZM358.92 188.16C358.204 188.16 357.588 187.991 357.071 187.653C356.554 187.315 356.156 186.849 355.878 186.256C355.599 185.663 355.46 184.985 355.46 184.223C355.46 183.447 355.603 182.763 355.888 182.169C356.176 181.573 356.577 181.107 357.091 180.772C357.608 180.434 358.211 180.265 358.9 180.265C359.437 180.265 359.921 180.365 360.352 180.563C360.783 180.762 361.136 181.041 361.411 181.399C361.686 181.757 361.857 182.174 361.923 182.652H360.75C360.66 182.304 360.461 181.995 360.153 181.727C359.848 181.455 359.437 181.319 358.92 181.319C358.463 181.319 358.062 181.438 357.717 181.677C357.376 181.912 357.109 182.246 356.917 182.676C356.728 183.104 356.633 183.606 356.633 184.183C356.633 184.773 356.726 185.286 356.912 185.724C357.101 186.161 357.366 186.501 357.707 186.743C358.052 186.985 358.456 187.106 358.92 187.106C359.225 187.106 359.502 187.053 359.751 186.947C359.999 186.841 360.21 186.688 360.382 186.49C360.554 186.291 360.677 186.052 360.75 185.774H361.923C361.857 186.224 361.693 186.63 361.431 186.992C361.172 187.35 360.829 187.635 360.402 187.847C359.978 188.056 359.484 188.16 358.92 188.16ZM364.732 185.217L364.712 183.765H364.951L368.292 180.365H369.743L366.184 183.964H366.084L364.732 185.217ZM363.638 188.001V177.819H364.812V188.001H363.638ZM368.491 188.001L365.508 184.223L366.343 183.407L369.982 188.001H368.491ZM374.141 188.16C373.405 188.16 372.77 187.998 372.237 187.673C371.706 187.345 371.297 186.887 371.009 186.301C370.724 185.711 370.581 185.025 370.581 184.242C370.581 183.46 370.724 182.771 371.009 182.174C371.297 181.574 371.698 181.107 372.212 180.772C372.729 180.434 373.332 180.265 374.021 180.265C374.419 180.265 374.812 180.331 375.2 180.464C375.588 180.597 375.941 180.812 376.259 181.11C376.577 181.405 376.83 181.796 377.019 182.284C377.208 182.771 377.303 183.371 377.303 184.083V184.581H371.416V183.566H376.11C376.11 183.135 376.023 182.751 375.851 182.413C375.682 182.075 375.44 181.808 375.125 181.612C374.814 181.417 374.446 181.319 374.021 181.319C373.554 181.319 373.15 181.435 372.808 181.667C372.47 181.896 372.21 182.194 372.028 182.562C371.846 182.93 371.754 183.324 371.754 183.745V184.421C371.754 184.998 371.854 185.487 372.053 185.888C372.255 186.286 372.535 186.589 372.893 186.798C373.251 187.003 373.667 187.106 374.141 187.106C374.449 187.106 374.727 187.063 374.976 186.977C375.228 186.887 375.445 186.755 375.627 186.579C375.81 186.4 375.95 186.178 376.05 185.913L377.183 186.231C377.064 186.616 376.864 186.954 376.582 187.245C376.3 187.534 375.952 187.759 375.538 187.921C375.124 188.081 374.658 188.16 374.141 188.16ZM382.409 180.365V181.359H378.451V180.365H382.409ZM379.605 178.535H380.778V185.813C380.778 186.145 380.826 186.393 380.922 186.559C381.021 186.722 381.147 186.831 381.3 186.887C381.456 186.94 381.62 186.967 381.792 186.967C381.921 186.967 382.027 186.96 382.11 186.947C382.193 186.93 382.259 186.917 382.309 186.907L382.548 187.961C382.468 187.991 382.357 188.021 382.215 188.051C382.072 188.084 381.892 188.1 381.673 188.1C381.341 188.1 381.017 188.029 380.698 187.887C380.383 187.744 380.122 187.527 379.913 187.235C379.707 186.944 379.605 186.576 379.605 186.132V178.535ZM385.604 177.819V178.714C385.604 178.986 385.554 179.276 385.455 179.584C385.359 179.889 385.216 180.186 385.027 180.474C384.842 180.759 384.616 181.008 384.351 181.22L383.715 180.703C383.924 180.404 384.104 180.094 384.257 179.773C384.413 179.448 384.49 179.102 384.49 178.734V177.819H385.604ZM388.685 185.137V185.078C388.692 184.445 388.758 183.941 388.884 183.566C389.01 183.192 389.189 182.889 389.421 182.657C389.653 182.425 389.931 182.211 390.256 182.015C390.452 181.896 390.627 181.755 390.783 181.593C390.939 181.427 391.062 181.236 391.151 181.021C391.244 180.805 391.29 180.567 391.29 180.305C391.29 179.98 391.214 179.698 391.062 179.46C390.909 179.221 390.705 179.037 390.45 178.908C390.195 178.779 389.912 178.714 389.6 178.714C389.328 178.714 389.066 178.77 388.814 178.883C388.563 178.996 388.352 179.173 388.183 179.415C388.014 179.657 387.916 179.974 387.89 180.365H386.637C386.663 179.801 386.809 179.319 387.074 178.918C387.343 178.517 387.696 178.21 388.133 177.998C388.574 177.786 389.063 177.68 389.6 177.68C390.183 177.68 390.69 177.796 391.121 178.028C391.555 178.26 391.89 178.578 392.126 178.983C392.364 179.387 392.483 179.848 392.483 180.365C392.483 180.729 392.427 181.059 392.314 181.354C392.205 181.649 392.046 181.912 391.837 182.144C391.632 182.376 391.383 182.582 391.091 182.761C390.8 182.943 390.566 183.135 390.39 183.338C390.215 183.536 390.087 183.773 390.008 184.049C389.928 184.324 389.885 184.667 389.878 185.078V185.137H388.685ZM389.322 188.081C389.076 188.081 388.866 187.993 388.69 187.817C388.515 187.641 388.427 187.431 388.427 187.186C388.427 186.94 388.515 186.73 388.69 186.554C388.866 186.379 389.076 186.291 389.322 186.291C389.567 186.291 389.777 186.379 389.953 186.554C390.129 186.73 390.216 186.94 390.216 187.186C390.216 187.348 390.175 187.497 390.092 187.633C390.013 187.769 389.905 187.878 389.769 187.961C389.636 188.041 389.487 188.081 389.322 188.081Z" fill="#616B7C"/>
<path d="M539.719 243.755H537.86C537.807 243.45 537.709 243.179 537.567 242.944C537.424 242.706 537.247 242.503 537.035 242.338C536.823 242.172 536.581 242.048 536.309 241.965C536.04 241.879 535.75 241.835 535.439 241.835C534.885 241.835 534.395 241.975 533.967 242.253C533.54 242.528 533.205 242.933 532.963 243.466C532.721 243.996 532.6 244.644 532.6 245.41C532.6 246.189 532.721 246.845 532.963 247.379C533.208 247.909 533.543 248.31 533.967 248.582C534.395 248.85 534.884 248.985 535.434 248.985C535.739 248.985 536.024 248.945 536.289 248.865C536.558 248.782 536.798 248.661 537.01 248.502C537.225 248.343 537.406 248.148 537.552 247.916C537.701 247.684 537.804 247.419 537.86 247.12L539.719 247.13C539.65 247.614 539.499 248.068 539.267 248.492C539.038 248.917 538.738 249.291 538.367 249.616C537.996 249.938 537.562 250.189 537.065 250.372C536.567 250.551 536.016 250.64 535.409 250.64C534.514 250.64 533.715 250.433 533.013 250.019C532.31 249.604 531.757 249.006 531.352 248.224C530.948 247.442 530.746 246.504 530.746 245.41C530.746 244.313 530.95 243.375 531.357 242.596C531.765 241.814 532.32 241.216 533.023 240.801C533.725 240.387 534.521 240.18 535.409 240.18C535.976 240.18 536.503 240.259 536.99 240.419C537.477 240.578 537.911 240.811 538.293 241.12C538.674 241.425 538.987 241.799 539.232 242.243C539.481 242.684 539.643 243.188 539.719 243.755ZM543.526 250.655C543.043 250.655 542.607 250.569 542.219 250.397C541.834 250.221 541.53 249.962 541.304 249.621C541.082 249.28 540.971 248.859 540.971 248.358C540.971 247.927 541.051 247.571 541.21 247.289C541.369 247.008 541.586 246.782 541.861 246.613C542.136 246.444 542.446 246.317 542.791 246.23C543.139 246.141 543.498 246.076 543.869 246.036C544.317 245.99 544.68 245.949 544.958 245.912C545.237 245.872 545.439 245.813 545.565 245.733C545.694 245.65 545.759 245.523 545.759 245.35V245.321C545.759 244.946 545.648 244.656 545.426 244.451C545.204 244.245 544.884 244.142 544.466 244.142C544.025 244.142 543.676 244.238 543.417 244.431C543.162 244.623 542.99 244.85 542.9 245.112L541.22 244.873C541.352 244.409 541.571 244.021 541.876 243.71C542.181 243.395 542.554 243.16 542.994 243.004C543.435 242.845 543.923 242.765 544.456 242.765C544.824 242.765 545.19 242.808 545.555 242.894C545.919 242.981 546.253 243.123 546.554 243.322C546.856 243.518 547.098 243.784 547.28 244.122C547.466 244.46 547.558 244.883 547.558 245.39V250.501H545.828V249.452H545.769C545.659 249.664 545.505 249.863 545.306 250.049C545.111 250.231 544.864 250.378 544.566 250.491C544.271 250.6 543.924 250.655 543.526 250.655ZM543.994 249.333C544.355 249.333 544.668 249.261 544.933 249.119C545.199 248.973 545.402 248.781 545.545 248.542C545.691 248.304 545.764 248.043 545.764 247.762V246.862C545.707 246.908 545.611 246.951 545.475 246.991C545.343 247.031 545.194 247.066 545.028 247.095C544.862 247.125 544.698 247.152 544.536 247.175C544.373 247.198 544.232 247.218 544.113 247.235C543.845 247.271 543.604 247.331 543.392 247.414C543.18 247.496 543.013 247.612 542.89 247.762C542.767 247.907 542.706 248.096 542.706 248.328C542.706 248.66 542.827 248.91 543.069 249.079C543.311 249.248 543.619 249.333 543.994 249.333ZM551.168 246.027V250.501H549.368V242.865H551.088V244.162H551.178C551.353 243.735 551.633 243.395 552.018 243.143C552.406 242.891 552.885 242.765 553.455 242.765C553.982 242.765 554.441 242.878 554.832 243.103C555.226 243.329 555.531 243.655 555.747 244.083C555.965 244.51 556.073 245.029 556.07 245.639V250.501H554.27V245.917C554.27 245.407 554.137 245.007 553.872 244.719C553.61 244.431 553.248 244.286 552.784 244.286C552.469 244.286 552.189 244.356 551.943 244.495C551.701 244.631 551.511 244.828 551.372 245.087C551.236 245.345 551.168 245.659 551.168 246.027ZM561.23 250.65C560.468 250.65 559.813 250.483 559.267 250.148C558.723 249.813 558.304 249.351 558.009 248.761C557.717 248.168 557.571 247.485 557.571 246.713C557.571 245.937 557.72 245.253 558.019 244.659C558.317 244.063 558.738 243.599 559.281 243.267C559.828 242.933 560.475 242.765 561.22 242.765C561.84 242.765 562.389 242.88 562.866 243.108C563.347 243.334 563.729 243.653 564.014 244.068C564.299 244.479 564.462 244.959 564.502 245.509H562.781C562.712 245.142 562.546 244.835 562.284 244.59C562.026 244.341 561.679 244.217 561.245 244.217C560.877 244.217 560.554 244.316 560.276 244.515C559.997 244.711 559.78 244.992 559.624 245.36C559.472 245.728 559.396 246.169 559.396 246.683C559.396 247.203 559.472 247.651 559.624 248.025C559.777 248.396 559.991 248.683 560.266 248.885C560.544 249.084 560.871 249.184 561.245 249.184C561.51 249.184 561.747 249.134 561.956 249.034C562.168 248.932 562.346 248.784 562.488 248.592C562.631 248.4 562.728 248.166 562.781 247.891H564.502C564.459 248.431 564.299 248.91 564.024 249.328C563.749 249.742 563.375 250.067 562.901 250.302C562.427 250.534 561.87 250.65 561.23 250.65ZM569.36 250.65C568.594 250.65 567.933 250.491 567.376 250.173C566.823 249.851 566.397 249.397 566.099 248.811C565.8 248.221 565.651 247.526 565.651 246.728C565.651 245.942 565.8 245.253 566.099 244.659C566.4 244.063 566.821 243.599 567.362 243.267C567.902 242.933 568.536 242.765 569.266 242.765C569.736 242.765 570.18 242.841 570.598 242.994C571.019 243.143 571.39 243.375 571.712 243.69C572.036 244.005 572.292 244.406 572.477 244.893C572.663 245.377 572.756 245.954 572.756 246.623V247.175H566.496V245.962H571.031C571.027 245.617 570.953 245.311 570.807 245.042C570.661 244.77 570.457 244.557 570.195 244.401C569.937 244.245 569.635 244.167 569.29 244.167C568.923 244.167 568.599 244.257 568.321 244.436C568.043 244.611 567.826 244.843 567.67 245.132C567.517 245.417 567.439 245.73 567.436 246.071V247.13C567.436 247.574 567.517 247.956 567.68 248.274C567.842 248.589 568.069 248.831 568.361 249C568.652 249.165 568.994 249.248 569.385 249.248C569.647 249.248 569.884 249.212 570.096 249.139C570.308 249.063 570.492 248.951 570.648 248.806C570.804 248.66 570.921 248.479 571.001 248.264L572.681 248.453C572.575 248.897 572.373 249.285 572.075 249.616C571.78 249.944 571.402 250.199 570.941 250.382C570.48 250.561 569.953 250.65 569.36 250.65ZM576.078 240.319V250.501H574.278V240.319H576.078Z" fill="#616B7C"/>
<rect x="610.5" y="225.501" width="75" height="39" rx="3.5" fill="#FCFCFF"/>
<path d="M630.455 250.501H627.004V240.319H630.524C631.535 240.319 632.403 240.523 633.129 240.931C633.858 241.335 634.419 241.917 634.81 242.676C635.201 243.435 635.396 244.343 635.396 245.4C635.396 246.461 635.199 247.372 634.805 248.134C634.414 248.897 633.848 249.482 633.109 249.889C632.374 250.297 631.489 250.501 630.455 250.501ZM628.849 248.905H630.365C631.074 248.905 631.666 248.776 632.14 248.517C632.614 248.255 632.97 247.866 633.209 247.349C633.447 246.829 633.567 246.179 633.567 245.4C633.567 244.621 633.447 243.975 633.209 243.461C632.97 242.944 632.617 242.558 632.15 242.303C631.686 242.044 631.109 241.915 630.42 241.915H628.849V248.905ZM640.45 250.65C639.684 250.65 639.023 250.491 638.466 250.173C637.913 249.851 637.487 249.397 637.189 248.811C636.89 248.221 636.741 247.526 636.741 246.728C636.741 245.942 636.89 245.253 637.189 244.659C637.49 244.063 637.911 243.599 638.451 243.267C638.992 242.933 639.626 242.765 640.355 242.765C640.826 242.765 641.27 242.841 641.688 242.994C642.109 243.143 642.48 243.375 642.801 243.69C643.126 244.005 643.382 244.406 643.567 244.893C643.753 245.377 643.846 245.954 643.846 246.623V247.175H637.586V245.962H642.12C642.117 245.617 642.042 245.311 641.897 245.042C641.751 244.77 641.547 244.557 641.285 244.401C641.027 244.245 640.725 244.167 640.38 244.167C640.012 244.167 639.689 244.257 639.411 244.436C639.132 244.611 638.915 244.843 638.76 245.132C638.607 245.417 638.529 245.73 638.526 246.071V247.13C638.526 247.574 638.607 247.956 638.77 248.274C638.932 248.589 639.159 248.831 639.451 249C639.742 249.165 640.084 249.248 640.475 249.248C640.737 249.248 640.974 249.212 641.186 249.139C641.398 249.063 641.582 248.951 641.738 248.806C641.893 248.66 642.011 248.479 642.091 248.264L643.771 248.453C643.665 248.897 643.463 249.285 643.164 249.616C642.869 249.944 642.492 250.199 642.031 250.382C641.57 250.561 641.043 250.65 640.45 250.65ZM647.168 240.319V250.501H645.368V240.319H647.168ZM652.399 250.65C651.634 250.65 650.972 250.491 650.415 250.173C649.862 249.851 649.436 249.397 649.138 248.811C648.839 248.221 648.69 247.526 648.69 246.728C648.69 245.942 648.839 245.253 649.138 244.659C649.439 244.063 649.86 243.599 650.401 243.267C650.941 242.933 651.576 242.765 652.305 242.765C652.775 242.765 653.219 242.841 653.637 242.994C654.058 243.143 654.429 243.375 654.751 243.69C655.076 244.005 655.331 244.406 655.516 244.893C655.702 245.377 655.795 245.954 655.795 246.623V247.175H649.536V245.962H654.07C654.066 245.617 653.992 245.311 653.846 245.042C653.7 244.77 653.496 244.557 653.234 244.401C652.976 244.245 652.674 244.167 652.33 244.167C651.962 244.167 651.638 244.257 651.36 244.436C651.082 244.611 650.865 244.843 650.709 245.132C650.556 245.417 650.478 245.73 650.475 246.071V247.13C650.475 247.574 650.556 247.956 650.719 248.274C650.881 248.589 651.108 248.831 651.4 249C651.692 249.165 652.033 249.248 652.424 249.248C652.686 249.248 652.923 249.212 653.135 249.139C653.347 249.063 653.531 248.951 653.687 248.806C653.843 248.66 653.96 248.479 654.04 248.264L655.72 248.453C655.614 248.897 655.412 249.285 655.114 249.616C654.819 249.944 654.441 250.199 653.98 250.382C653.519 250.561 652.992 250.65 652.399 250.65ZM661.131 242.865V244.257H656.741V242.865H661.131ZM657.824 241.035H659.624V248.204C659.624 248.446 659.661 248.632 659.733 248.761C659.81 248.887 659.909 248.973 660.032 249.019C660.154 249.066 660.29 249.089 660.439 249.089C660.552 249.089 660.655 249.081 660.748 249.064C660.844 249.048 660.917 249.033 660.966 249.019L661.27 250.426C661.174 250.46 661.036 250.496 660.857 250.536C660.681 250.576 660.466 250.599 660.211 250.605C659.76 250.619 659.354 250.551 658.993 250.402C658.631 250.249 658.345 250.014 658.133 249.696C657.924 249.377 657.821 248.98 657.824 248.502V241.035ZM665.934 250.65C665.169 250.65 664.507 250.491 663.951 250.173C663.397 249.851 662.971 249.397 662.673 248.811C662.375 248.221 662.225 247.526 662.225 246.728C662.225 245.942 662.375 245.253 662.673 244.659C662.975 244.063 663.395 243.599 663.936 243.267C664.476 242.933 665.111 242.765 665.84 242.765C666.31 242.765 666.755 242.841 667.172 242.994C667.593 243.143 667.964 243.375 668.286 243.69C668.611 244.005 668.866 244.406 669.051 244.893C669.237 245.377 669.33 245.954 669.33 246.623V247.175H663.071V245.962H667.605C667.601 245.617 667.527 245.311 667.381 245.042C667.235 244.77 667.031 244.557 666.77 244.401C666.511 244.245 666.209 244.167 665.865 244.167C665.497 244.167 665.174 244.257 664.895 244.436C664.617 244.611 664.4 244.843 664.244 245.132C664.092 245.417 664.014 245.73 664.01 246.071V247.13C664.01 247.574 664.092 247.956 664.254 248.274C664.416 248.589 664.643 248.831 664.935 249C665.227 249.165 665.568 249.248 665.959 249.248C666.221 249.248 666.458 249.212 666.67 249.139C666.882 249.063 667.066 248.951 667.222 248.806C667.378 248.66 667.495 248.479 667.575 248.264L669.255 248.453C669.149 248.897 668.947 249.285 668.649 249.616C668.354 249.944 667.976 250.199 667.515 250.382C667.055 250.561 666.528 250.65 665.934 250.65Z" fill="#616B7C"/>
<rect x="610.5" y="225.501" width="75" height="39" rx="3.5" stroke="#E8E9F0"/>
<rect x="276.5" y="55.501" width="441" height="241" rx="15.5" stroke="#F2F2F8"/>
</g>
<rect x="0.5" y="0.500977" width="993" height="351" rx="16.5" stroke="#F2F2F8"/>
<defs>
<filter id="filter0_d_1158_78996" x="244" y="39.001" width="506" height="306" filterUnits="userSpaceOnUse" color-interpolation-filters="sRGB">
<feFlood flood-opacity="0" result="BackgroundImageFix"/>
<feColorMatrix in="SourceAlpha" type="matrix" values="0 0 0 0 0 0 0 0 0 0 0 0 0 0 0 0 0 0 127 0" result="hardAlpha"/>
<feOffset dy="16"/>
<feGaussianBlur stdDeviation="16"/>
<feColorMatrix type="matrix" values="0 0 0 0 0.215686 0 0 0 0 0.231373 0 0 0 0 0.301961 0 0 0 0.04 0"/>
<feBlend mode="normal" in2="BackgroundImageFix" result="effect1_dropShadow_1158_78996"/>
<feBlend mode="normal" in="SourceGraphic" in2="effect1_dropShadow_1158_78996" result="shape"/>
</filter>
</defs>
</svg>
