<svg width="482" height="395" viewBox="0 0 482 395" fill="none" xmlns="http://www.w3.org/2000/svg">
<g clip-path="url(#clip0_1231_80891)">
<rect x="1" y="1" width="392.5" height="392.5" rx="16" fill="#FCFCFF"/>
<g filter="url(#filter0_b_1231_80891)">
<rect x="68" y="259" width="326" height="90" fill="white" fill-opacity="0.7"/>
</g>
<g filter="url(#filter1_b_1231_80891)">
<rect x="68" y="68" width="326" height="78" fill="white" fill-opacity="0.7"/>
</g>
<g clip-path="url(#clip1_1231_80891)">
<rect width="1725" height="1111" transform="translate(-1023 -520)" fill="#FCFCFF"/>
<g filter="url(#filter2_d_1231_80891)">
<rect x="-66.6667" y="62.0503" width="253.333" height="1" fill="#F2F2F8"/>
<rect width="253.333" height="79.1011" transform="translate(-66.6667 -17.0002)" fill="white"/>
<path d="M-30.0332 17.8685V28.0503H-31.2661V19.1611H-31.3258L-33.8116 20.8117V19.5588L-31.2661 17.8685H-30.0332ZM-26.7867 28.0503L-22.2327 19.0418V18.9622H-27.4827V17.8685H-20.96V19.0219L-25.4941 28.0503H-26.7867ZM-19.9819 28.1299C-20.2271 28.1299 -20.4376 28.042 -20.6132 27.8664C-20.7889 27.6907 -20.8767 27.4802 -20.8767 27.235C-20.8767 26.9897 -20.7889 26.7792 -20.6132 26.6036C-20.4376 26.4279 -20.2271 26.3401 -19.9819 26.3401C-19.7366 26.3401 -19.5261 26.4279 -19.3505 26.6036C-19.1748 26.7792 -19.087 26.9897 -19.087 27.235C-19.087 27.3974 -19.1284 27.5465 -19.2113 27.6824C-19.2908 27.8183 -19.3985 27.9277 -19.5344 28.0105C-19.667 28.0901 -19.8161 28.1299 -19.9819 28.1299ZM-16.8883 28.0503L-12.3343 19.0418V18.9622H-17.5843V17.8685H-11.0616V19.0219L-15.5957 28.0503H-16.8883ZM-5.09194 28.0503V17.8685H-3.85898V22.9196H-3.73966L0.834201 17.8685H2.445L-1.83057 22.4622L2.445 28.0503H0.953519L-2.58625 23.3174L-3.85898 24.7492V28.0503H-5.09194ZM4.04088 28.0503V17.8685H7.60054C8.30982 17.8685 8.89481 17.9911 9.35551 18.2364C9.81621 18.4783 10.1592 18.8048 10.3846 19.2158C10.61 19.6235 10.7227 20.0759 10.7227 20.573C10.7227 21.0105 10.6448 21.3718 10.489 21.6568C10.3366 21.9419 10.1344 22.1673 9.8825 22.333C9.63392 22.4987 9.36379 22.6213 9.07213 22.7009V22.8003C9.38368 22.8202 9.69689 22.9296 10.0118 23.1284C10.3266 23.3273 10.5901 23.6123 10.8022 23.9836C11.0144 24.3548 11.1204 24.8088 11.1204 25.3458C11.1204 25.8562 11.0044 26.3152 10.7724 26.7229C10.5404 27.1306 10.1742 27.4537 9.67369 27.6924C9.17322 27.931 8.52194 28.0503 7.71985 28.0503H4.04088ZM5.27383 26.9566H7.71985C8.52525 26.9566 9.09699 26.8008 9.43505 26.4892C9.77644 26.1744 9.94713 25.7932 9.94713 25.3458C9.94713 25.0011 9.8593 24.6829 9.68363 24.3912C9.50797 24.0962 9.25773 23.8609 8.93292 23.6853C8.60811 23.5063 8.22364 23.4168 7.77951 23.4168H5.27383V26.9566ZM5.27383 22.3429H7.56076C7.93198 22.3429 8.26673 22.27 8.56502 22.1242C8.86663 21.9783 9.10527 21.7729 9.28093 21.5077C9.45991 21.2426 9.5494 20.931 9.5494 20.573C9.5494 20.1256 9.39362 19.7461 9.08207 19.4345C8.77052 19.1197 8.27667 18.9622 7.60054 18.9622H5.27383V22.3429Z" fill="#616B7C"/>
<rect x="-66.6667" y="142.05" width="253.333" height="1" fill="#F2F2F8"/>
<rect width="253.333" height="79.1011" transform="translate(-66.6667 62.9998)" fill="white"/>
<path d="M-30.0332 97.8685V108.05H-31.2661V99.1611H-31.3258L-33.8116 100.812V99.5588L-31.2661 97.8685H-30.0332ZM-23.7839 108.19C-24.5329 108.19 -25.1709 107.986 -25.6979 107.578C-26.2249 107.167 -26.6276 106.572 -26.906 105.793C-27.1844 105.011 -27.3236 104.066 -27.3236 102.959C-27.3236 101.859 -27.1844 100.919 -26.906 100.141C-26.6243 99.3583 -26.22 98.7617 -25.693 98.3507C-25.1627 97.9364 -24.5263 97.7293 -23.7839 97.7293C-23.0415 97.7293 -22.4067 97.9364 -21.8798 98.3507C-21.3495 98.7617 -20.9451 99.3583 -20.6667 100.141C-20.385 100.919 -20.2441 101.859 -20.2441 102.959C-20.2441 104.066 -20.3833 105.011 -20.6617 105.793C-20.9401 106.572 -21.3428 107.167 -21.8698 107.578C-22.3968 107.986 -23.0348 108.19 -23.7839 108.19ZM-23.7839 107.096C-23.0415 107.096 -22.4647 106.738 -22.0538 106.022C-21.6428 105.306 -21.4373 104.285 -21.4373 102.959C-21.4373 102.078 -21.5317 101.327 -21.7207 100.707C-21.9063 100.087 -22.1747 99.6152 -22.5261 99.2904C-22.8741 98.9656 -23.2933 98.8032 -23.7839 98.8032C-24.5197 98.8032 -25.0947 99.1661 -25.509 99.8919C-25.9233 100.614 -26.1305 101.637 -26.1305 102.959C-26.1305 103.841 -26.0377 104.59 -25.8521 105.207C-25.6665 105.823 -25.3996 106.292 -25.0516 106.614C-24.7003 106.935 -24.2777 107.096 -23.7839 107.096ZM-15.0339 108.19C-15.7829 108.19 -16.4209 107.986 -16.9479 107.578C-17.4749 107.167 -17.8776 106.572 -18.156 105.793C-18.4344 105.011 -18.5736 104.066 -18.5736 102.959C-18.5736 101.859 -18.4344 100.919 -18.156 100.141C-17.8743 99.3583 -17.47 98.7617 -16.943 98.3507C-16.4127 97.9364 -15.7763 97.7293 -15.0339 97.7293C-14.2915 97.7293 -13.6567 97.9364 -13.1298 98.3507C-12.5995 98.7617 -12.1951 99.3583 -11.9167 100.141C-11.635 100.919 -11.4941 101.859 -11.4941 102.959C-11.4941 104.066 -11.6333 105.011 -11.9117 105.793C-12.1901 106.572 -12.5928 107.167 -13.1198 107.578C-13.6468 107.986 -14.2848 108.19 -15.0339 108.19ZM-15.0339 107.096C-14.2915 107.096 -13.7147 106.738 -13.3038 106.022C-12.8928 105.306 -12.6873 104.285 -12.6873 102.959C-12.6873 102.078 -12.7817 101.327 -12.9707 100.707C-13.1563 100.087 -13.4247 99.6152 -13.7761 99.2904C-14.1241 98.9656 -14.5433 98.8032 -15.0339 98.8032C-15.7697 98.8032 -16.3447 99.1661 -16.759 99.8919C-17.1733 100.614 -17.3805 101.637 -17.3805 102.959C-17.3805 103.841 -17.2877 104.59 -17.1021 105.207C-16.9165 105.823 -16.6496 106.292 -16.3016 106.614C-15.9503 106.935 -15.5277 107.096 -15.0339 107.096ZM-9.08537 108.13C-9.33063 108.13 -9.5411 108.042 -9.71676 107.866C-9.89242 107.691 -9.98025 107.48 -9.98025 107.235C-9.98025 106.99 -9.89242 106.779 -9.71676 106.604C-9.5411 106.428 -9.33063 106.34 -9.08537 106.34C-8.8401 106.34 -8.62964 106.428 -8.45397 106.604C-8.27831 106.779 -8.19048 106.99 -8.19048 107.235C-8.19048 107.397 -8.23191 107.547 -8.31477 107.682C-8.39431 107.818 -8.50203 107.928 -8.63792 108.011C-8.7705 108.09 -8.91965 108.13 -9.08537 108.13ZM-3.04737 108.19C-3.70362 108.19 -4.28861 108.077 -4.80234 107.851C-5.31276 107.626 -5.71877 107.313 -6.02038 106.912C-6.31868 106.507 -6.48108 106.038 -6.5076 105.505H-5.25476C-5.22824 105.833 -5.11555 106.116 -4.91669 106.355C-4.71782 106.59 -4.45764 106.773 -4.13615 106.902C-3.81465 107.031 -3.45835 107.096 -3.06726 107.096C-2.62976 107.096 -2.24197 107.02 -1.9039 106.867C-1.56583 106.715 -1.30068 106.502 -1.10845 106.231C-0.916213 105.959 -0.820096 105.644 -0.820096 105.286C-0.820096 104.912 -0.912899 104.582 -1.09851 104.297C-1.28411 104.008 -1.55589 103.783 -1.91385 103.621C-2.2718 103.458 -2.7093 103.377 -3.22635 103.377H-4.04169V102.283H-3.22635C-2.82199 102.283 -2.46735 102.21 -2.16243 102.065C-1.85419 101.919 -1.61389 101.713 -1.44154 101.448C-1.26588 101.183 -1.17805 100.871 -1.17805 100.513C-1.17805 100.169 -1.25428 99.8687 -1.40674 99.6135C-1.55921 99.3583 -1.77464 99.1595 -2.05305 99.0169C-2.32815 98.8744 -2.65296 98.8032 -3.02748 98.8032C-3.37881 98.8032 -3.71025 98.8678 -4.0218 98.997C-4.33004 99.123 -4.58193 99.3069 -4.77748 99.5489C-4.97303 99.7875 -5.07909 100.076 -5.09566 100.414H-6.28885C-6.26896 99.8803 -6.10821 99.413 -5.8066 99.012C-5.50499 98.6076 -5.11058 98.2927 -4.62336 98.0674C-4.13283 97.842 -3.59424 97.7293 -3.0076 97.7293C-2.37786 97.7293 -1.83761 97.8569 -1.38686 98.1121C-0.9361 98.364 -0.589746 98.6971 -0.347795 99.1114C-0.105844 99.5257 0.0151315 99.9731 0.0151315 100.454C0.0151315 101.027 -0.135674 101.516 -0.437284 101.92C-0.735579 102.325 -1.14159 102.605 -1.65532 102.761V102.84C-1.01233 102.946 -0.5102 103.22 -0.148931 103.66C0.212338 104.098 0.392972 104.64 0.392972 105.286C0.392972 105.84 0.242167 106.337 -0.0594422 106.778C-0.357738 107.215 -0.765408 107.56 -1.28245 107.812C-1.7995 108.064 -2.3878 108.19 -3.04737 108.19ZM6.54283 97.8685H8.01442L11.4746 106.32H11.594L15.0542 97.8685H16.5258V108.05H15.3724V100.315H15.2729L12.0911 108.05H10.9775L7.79567 100.315H7.69624V108.05H6.54283V97.8685ZM18.9979 108.05V97.8685H22.5576C23.2668 97.8685 23.8518 97.9911 24.3125 98.2364C24.7732 98.4783 25.1163 98.8048 25.3417 99.2158C25.567 99.6235 25.6797 100.076 25.6797 100.573C25.6797 101.011 25.6018 101.372 25.4461 101.657C25.2936 101.942 25.0914 102.167 24.8395 102.333C24.5909 102.499 24.3208 102.621 24.0292 102.701V102.8C24.3407 102.82 24.6539 102.93 24.9688 103.128C25.2837 103.327 25.5472 103.612 25.7593 103.984C25.9714 104.355 26.0775 104.809 26.0775 105.346C26.0775 105.856 25.9614 106.315 25.7294 106.723C25.4974 107.131 25.1312 107.454 24.6307 107.692C24.1302 107.931 23.479 108.05 22.6769 108.05H18.9979ZM20.2309 106.957H22.6769C23.4823 106.957 24.054 106.801 24.3921 106.489C24.7335 106.174 24.9042 105.793 24.9042 105.346C24.9042 105.001 24.8163 104.683 24.6407 104.391C24.465 104.096 24.2148 103.861 23.89 103.685C23.5651 103.506 23.1807 103.417 22.7365 103.417H20.2309V106.957ZM20.2309 102.343H22.5178C22.889 102.343 23.2238 102.27 23.5221 102.124C23.8237 101.978 24.0623 101.773 24.238 101.508C24.4169 101.243 24.5064 100.931 24.5064 100.573C24.5064 100.126 24.3507 99.7461 24.0391 99.4345C23.7275 99.1197 23.2337 98.9622 22.5576 98.9622H20.2309V102.343Z" fill="#616B7C"/>
<rect x="-66.6667" y="222.05" width="253.333" height="1" fill="#F2F2F8"/>
<rect width="253.333" height="79.1011" transform="translate(-66.6667 143)" fill="white"/>
<path d="M-33.6127 188.05V187.155L-30.2519 183.476C-29.8575 183.046 -29.5327 182.671 -29.2775 182.353C-29.0223 182.031 -28.8334 181.73 -28.7107 181.448C-28.5848 181.163 -28.5218 180.865 -28.5218 180.553C-28.5218 180.195 -28.608 179.885 -28.7803 179.623C-28.9494 179.362 -29.1814 179.159 -29.4763 179.017C-29.7713 178.874 -30.1028 178.803 -30.4707 178.803C-30.8618 178.803 -31.2031 178.884 -31.4948 179.047C-31.7832 179.206 -32.0069 179.43 -32.166 179.718C-32.3218 180.006 -32.3996 180.344 -32.3996 180.732H-33.5729C-33.5729 180.136 -33.4354 179.612 -33.1603 179.161C-32.8852 178.71 -32.5107 178.359 -32.0367 178.107C-31.5594 177.855 -31.0242 177.729 -30.4309 177.729C-29.8343 177.729 -29.3057 177.855 -28.845 178.107C-28.3843 178.359 -28.023 178.699 -27.7611 179.126C-27.4993 179.554 -27.3684 180.029 -27.3684 180.553C-27.3684 180.928 -27.4363 181.294 -27.5722 181.652C-27.7048 182.007 -27.9368 182.403 -28.2682 182.84C-28.5964 183.274 -29.0521 183.805 -29.6354 184.431L-31.9224 186.877V186.957H-27.1894V188.05H-33.6127ZM-24.818 188.05L-20.264 179.042V178.962H-25.514V177.868H-18.9913V179.022L-23.5254 188.05H-24.818ZM-18.0131 188.13C-18.2584 188.13 -18.4688 188.042 -18.6445 187.866C-18.8202 187.691 -18.908 187.48 -18.908 187.235C-18.908 186.99 -18.8202 186.779 -18.6445 186.604C-18.4688 186.428 -18.2584 186.34 -18.0131 186.34C-17.7678 186.34 -17.5574 186.428 -17.3817 186.604C-17.206 186.779 -17.1182 186.99 -17.1182 187.235C-17.1182 187.397 -17.1596 187.547 -17.2425 187.682C-17.322 187.818 -17.4298 187.928 -17.5657 188.011C-17.6982 188.09 -17.8474 188.13 -18.0131 188.13ZM-12.0671 188.19C-12.8161 188.19 -13.4542 187.986 -13.9811 187.578C-14.5081 187.167 -14.9108 186.572 -15.1892 185.793C-15.4676 185.011 -15.6069 184.066 -15.6069 182.959C-15.6069 181.859 -15.4676 180.919 -15.1892 180.141C-14.9075 179.358 -14.5032 178.762 -13.9762 178.351C-13.4459 177.936 -12.8095 177.729 -12.0671 177.729C-11.3247 177.729 -10.6899 177.936 -10.163 178.351C-9.63265 178.762 -9.2283 179.358 -8.94989 180.141C-8.66817 180.919 -8.5273 181.859 -8.5273 182.959C-8.5273 184.066 -8.66651 185.011 -8.94492 185.793C-9.22333 186.572 -9.62603 187.167 -10.153 187.578C-10.68 187.986 -11.318 188.19 -12.0671 188.19ZM-12.0671 187.096C-11.3247 187.096 -10.7479 186.738 -10.337 186.022C-9.92598 185.306 -9.72049 184.285 -9.72049 182.959C-9.72049 182.078 -9.81495 181.327 -10.0039 180.707C-10.1895 180.087 -10.4579 179.615 -10.8093 179.29C-11.1573 178.966 -11.5765 178.803 -12.0671 178.803C-12.8029 178.803 -13.3779 179.166 -13.7922 179.892C-14.2065 180.614 -14.4137 181.637 -14.4137 182.959C-14.4137 183.841 -14.3209 184.59 -14.1353 185.207C-13.9497 185.823 -13.6828 186.292 -13.3348 186.614C-12.9835 186.935 -12.5609 187.096 -12.0671 187.096ZM-2.52162 177.868H-1.05003L2.4102 186.32H2.52951L5.98974 177.868H7.46133V188.05H6.30792V180.315H6.20849L3.02667 188.05H1.91304L-1.26878 180.315H-1.36821V188.05H-2.52162V177.868ZM9.93346 188.05V177.868H13.4931C14.2024 177.868 14.7874 177.991 15.2481 178.236C15.7088 178.478 16.0518 178.805 16.2772 179.216C16.5026 179.623 16.6153 180.076 16.6153 180.573C16.6153 181.011 16.5374 181.372 16.3816 181.657C16.2291 181.942 16.027 182.167 15.7751 182.333C15.5265 182.499 15.2564 182.621 14.9647 182.701V182.8C15.2763 182.82 15.5895 182.93 15.9043 183.128C16.2192 183.327 16.4827 183.612 16.6948 183.984C16.9069 184.355 17.013 184.809 17.013 185.346C17.013 185.856 16.897 186.315 16.665 186.723C16.433 187.131 16.0667 187.454 15.5663 187.692C15.0658 187.931 14.4145 188.05 13.6124 188.05H9.93346ZM11.1664 186.957H13.6124C14.4178 186.957 14.9896 186.801 15.3276 186.489C15.669 186.174 15.8397 185.793 15.8397 185.346C15.8397 185.001 15.7519 184.683 15.5762 184.391C15.4005 184.096 15.1503 183.861 14.8255 183.685C14.5007 183.506 14.1162 183.417 13.6721 183.417H11.1664V186.957ZM11.1664 182.343H13.4533C13.8246 182.343 14.1593 182.27 14.4576 182.124C14.7592 181.978 14.9978 181.773 15.1735 181.508C15.3525 181.243 15.442 180.931 15.442 180.573C15.442 180.126 15.2862 179.746 14.9746 179.435C14.6631 179.12 14.1693 178.962 13.4931 178.962H11.1664V182.343Z" fill="#616B7C"/>
<rect width="253.333" height="80" transform="translate(-66.6667 223)" fill="white"/>
<path d="M-33.6127 268.5V267.605L-30.2519 263.926C-29.8575 263.495 -29.5327 263.12 -29.2775 262.802C-29.0223 262.481 -28.8334 262.179 -28.7107 261.897C-28.5848 261.612 -28.5218 261.314 -28.5218 261.003C-28.5218 260.645 -28.608 260.335 -28.7803 260.073C-28.9494 259.811 -29.1814 259.609 -29.4763 259.466C-29.7713 259.324 -30.1028 259.253 -30.4707 259.253C-30.8618 259.253 -31.2031 259.334 -31.4948 259.496C-31.7832 259.655 -32.0069 259.879 -32.166 260.167C-32.3218 260.456 -32.3996 260.794 -32.3996 261.182H-33.5729C-33.5729 260.585 -33.4354 260.061 -33.1603 259.611C-32.8852 259.16 -32.5107 258.808 -32.0367 258.557C-31.5594 258.305 -31.0242 258.179 -30.4309 258.179C-29.8343 258.179 -29.3057 258.305 -28.845 258.557C-28.3843 258.808 -28.023 259.148 -27.7611 259.576C-27.4993 260.003 -27.3684 260.479 -27.3684 261.003C-27.3684 261.377 -27.4363 261.743 -27.5722 262.101C-27.7048 262.456 -27.9368 262.852 -28.2682 263.29C-28.5964 263.724 -29.0521 264.254 -29.6354 264.88L-31.9224 267.326V267.406H-27.1894V268.5H-33.6127ZM-25.1361 268.5V267.605L-21.7754 263.926C-21.3809 263.495 -21.0561 263.12 -20.8009 262.802C-20.5457 262.481 -20.3568 262.179 -20.2342 261.897C-20.1082 261.612 -20.0452 261.314 -20.0452 261.003C-20.0452 260.645 -20.1314 260.335 -20.3038 260.073C-20.4728 259.811 -20.7048 259.609 -20.9998 259.466C-21.2948 259.324 -21.6262 259.253 -21.9941 259.253C-22.3852 259.253 -22.7266 259.334 -23.0182 259.496C-23.3066 259.655 -23.5303 259.879 -23.6894 260.167C-23.8452 260.456 -23.9231 260.794 -23.9231 261.182H-25.0964C-25.0964 260.585 -24.9588 260.061 -24.6837 259.611C-24.4086 259.16 -24.0341 258.808 -23.5602 258.557C-23.0829 258.305 -22.5476 258.179 -21.9543 258.179C-21.3577 258.179 -20.8291 258.305 -20.3684 258.557C-19.9077 258.808 -19.5464 259.148 -19.2846 259.576C-19.0227 260.003 -18.8918 260.479 -18.8918 261.003C-18.8918 261.377 -18.9598 261.743 -19.0957 262.101C-19.2282 262.456 -19.4602 262.852 -19.7917 263.29C-20.1198 263.724 -20.5755 264.254 -21.1589 264.88L-23.4458 267.326V267.406H-18.7129V268.5H-25.1361ZM-15.7846 268.579C-16.0298 268.579 -16.2403 268.491 -16.416 268.316C-16.5916 268.14 -16.6795 267.93 -16.6795 267.684C-16.6795 267.439 -16.5916 267.229 -16.416 267.053C-16.2403 266.877 -16.0298 266.79 -15.7846 266.79C-15.5393 266.79 -15.3289 266.877 -15.1532 267.053C-14.9775 267.229 -14.8897 267.439 -14.8897 267.684C-14.8897 267.847 -14.9311 267.996 -15.014 268.132C-15.0935 268.268 -15.2013 268.377 -15.3371 268.46C-15.4697 268.54 -15.6189 268.579 -15.7846 268.579ZM-9.65834 258.179C-9.24073 258.182 -8.82311 258.262 -8.4055 258.417C-7.98789 258.573 -7.60673 258.832 -7.26203 259.193C-6.91734 259.551 -6.64059 260.04 -6.43178 260.66C-6.22297 261.279 -6.11857 262.057 -6.11857 262.991C-6.11857 263.896 -6.20474 264.7 -6.37709 265.402C-6.54613 266.102 -6.79139 266.692 -7.11289 267.172C-7.43107 267.653 -7.81885 268.018 -8.27624 268.266C-8.73031 268.515 -9.24404 268.639 -9.81743 268.639C-10.3875 268.639 -10.8963 268.526 -11.3437 268.301C-11.7878 268.072 -12.1524 267.756 -12.4375 267.351C-12.7192 266.944 -12.8998 266.471 -12.9794 265.934H-11.7663C-11.6569 266.402 -11.4398 266.788 -11.115 267.093C-10.7869 267.394 -10.3544 267.545 -9.81743 267.545C-9.03192 267.545 -8.41213 267.202 -7.95806 266.516C-7.50067 265.83 -7.27198 264.861 -7.27198 263.608H-7.35152C-7.53713 263.886 -7.75754 264.126 -8.01275 264.329C-8.26795 264.531 -8.55133 264.687 -8.86289 264.796C-9.17444 264.905 -9.50588 264.96 -9.85721 264.96C-10.4405 264.96 -10.9758 264.816 -11.463 264.527C-11.9469 264.236 -12.3347 263.836 -12.6264 263.329C-12.9147 262.819 -13.0589 262.236 -13.0589 261.579C-13.0589 260.956 -12.9197 260.386 -12.6413 259.869C-12.3596 259.349 -11.9652 258.934 -11.4581 258.626C-10.9476 258.318 -10.3477 258.169 -9.65834 258.179ZM-9.65834 259.272C-10.076 259.272 -10.4521 259.377 -10.7869 259.586C-11.1183 259.791 -11.3818 260.07 -11.5774 260.421C-11.7696 260.769 -11.8657 261.155 -11.8657 261.579C-11.8657 262.004 -11.7729 262.39 -11.5873 262.738C-11.3984 263.082 -11.1415 263.357 -10.8167 263.563C-10.4886 263.765 -10.1157 263.866 -9.69811 263.866C-9.38325 263.866 -9.08992 263.805 -8.81814 263.682C-8.54636 263.556 -8.30938 263.386 -8.10721 263.17C-7.90171 262.951 -7.74096 262.705 -7.62496 262.429C-7.50896 262.151 -7.45096 261.861 -7.45096 261.559C-7.45096 261.162 -7.54707 260.789 -7.73931 260.441C-7.92823 260.093 -8.19007 259.811 -8.52482 259.596C-8.85626 259.38 -9.2341 259.272 -9.65834 259.272ZM-0.0470136 258.318H1.42458L4.8848 266.77H5.00412L8.46435 258.318H9.93594V268.5H8.78253V260.764H8.6831L5.50128 268.5H4.38765L1.20583 260.764H1.1064V268.5H-0.0470136V258.318ZM12.4081 268.5V258.318H15.9677C16.677 258.318 17.262 258.441 17.7227 258.686C18.1834 258.928 18.5264 259.254 18.7518 259.665C18.9772 260.073 19.0899 260.525 19.0899 261.022C19.0899 261.46 19.012 261.821 18.8562 262.106C18.7038 262.391 18.5016 262.617 18.2497 262.782C18.0011 262.948 17.731 263.071 17.4393 263.15V263.25C17.7509 263.27 18.0641 263.379 18.3789 263.578C18.6938 263.777 18.9573 264.062 19.1694 264.433C19.3815 264.804 19.4876 265.258 19.4876 265.795C19.4876 266.306 19.3716 266.765 19.1396 267.172C18.9076 267.58 18.5414 267.903 18.0409 268.142C17.5404 268.38 16.8891 268.5 16.087 268.5H12.4081ZM13.641 267.406H16.087C16.8924 267.406 17.4642 267.25 17.8022 266.939C18.1436 266.624 18.3143 266.243 18.3143 265.795C18.3143 265.451 18.2265 265.132 18.0508 264.841C17.8752 264.546 17.6249 264.31 17.3001 264.135C16.9753 263.956 16.5908 263.866 16.1467 263.866H13.641V267.406ZM13.641 262.792H15.928C16.2992 262.792 16.6339 262.719 16.9322 262.574C17.2338 262.428 17.4725 262.222 17.6481 261.957C17.8271 261.692 17.9166 261.38 17.9166 261.022C17.9166 260.575 17.7608 260.196 17.4493 259.884C17.1377 259.569 16.6439 259.412 15.9677 259.412H13.641V262.792Z" fill="#616B7C"/>
<rect x="186.667" y="62.0503" width="253.333" height="1" fill="#F2F2F8"/>
<rect width="253.333" height="79.1011" transform="translate(186.667 -17.0002)" fill="white"/>
<path d="M219.9 17.8685H221.371L224.831 26.3202H224.951L228.411 17.8685H229.883V28.0503H228.729V20.3145H228.63L225.448 28.0503H224.334L221.152 20.3145H221.053V28.0503H219.9V17.8685ZM234.443 28.2293C233.959 28.2293 233.52 28.1381 233.125 27.9559C232.731 27.7702 232.418 27.5034 232.186 27.1554C231.954 26.8041 231.838 26.3799 231.838 25.8827C231.838 25.4452 231.924 25.0906 232.096 24.8188C232.268 24.5437 232.499 24.3283 232.787 24.1725C233.076 24.0167 233.394 23.9007 233.742 23.8245C234.093 23.7449 234.446 23.6819 234.801 23.6355C235.265 23.5759 235.641 23.5311 235.929 23.5013C236.221 23.4682 236.433 23.4135 236.566 23.3372C236.701 23.261 236.769 23.1284 236.769 22.9395V22.8997C236.769 22.4092 236.635 22.0281 236.367 21.7563C236.102 21.4845 235.699 21.3486 235.159 21.3486C234.599 21.3486 234.159 21.4712 233.841 21.7165C233.523 21.9618 233.299 22.2236 233.17 22.502L232.056 22.1043C232.255 21.6403 232.52 21.279 232.852 21.0205C233.187 20.7586 233.551 20.5764 233.946 20.4736C234.343 20.3676 234.734 20.3145 235.119 20.3145C235.364 20.3145 235.646 20.3443 235.964 20.404C236.286 20.4604 236.595 20.578 236.894 20.757C237.195 20.936 237.446 21.2061 237.644 21.5674C237.843 21.9286 237.943 22.4125 237.943 23.0191V28.0503H236.769V27.0162H236.71C236.63 27.1819 236.498 27.3593 236.312 27.5482C236.126 27.7371 235.88 27.8979 235.571 28.0304C235.263 28.163 234.887 28.2293 234.443 28.2293ZM234.622 27.1753C235.086 27.1753 235.477 27.0842 235.795 26.9019C236.116 26.7196 236.358 26.4843 236.521 26.1959C236.687 25.9076 236.769 25.6043 236.769 25.2861V24.2122C236.72 24.2719 236.61 24.3266 236.441 24.3763C236.276 24.4227 236.083 24.4641 235.865 24.5006C235.649 24.5337 235.439 24.5636 235.233 24.5901C235.031 24.6133 234.867 24.6332 234.741 24.6497C234.436 24.6895 234.151 24.7542 233.886 24.8436C233.624 24.9298 233.412 25.0607 233.25 25.2364C233.09 25.4087 233.011 25.6441 233.011 25.9424C233.011 26.35 233.162 26.6583 233.463 26.8671C233.768 27.0726 234.154 27.1753 234.622 27.1753ZM240.566 30.914C240.368 30.914 240.19 30.8974 240.035 30.8642C239.879 30.8344 239.771 30.8046 239.711 30.7747L240.01 29.7407C240.295 29.8136 240.547 29.8401 240.765 29.8202C240.984 29.8003 241.178 29.7025 241.347 29.5269C241.519 29.3545 241.677 29.0745 241.819 28.6867L242.038 28.0901L239.214 20.414H240.487L242.595 26.4992H242.674L244.782 20.414H246.055L242.814 29.164C242.668 29.5584 242.487 29.8848 242.272 30.1434C242.056 30.4052 241.806 30.5991 241.521 30.725C241.239 30.851 240.921 30.914 240.566 30.914ZM255.101 17.8685V28.0503H253.868V19.1611H253.808L251.323 20.8117V19.5588L253.868 17.8685H255.101ZM258.029 28.0503V27.1554L261.39 23.4765C261.784 23.0456 262.109 22.6711 262.364 22.3529C262.62 22.0314 262.809 21.7298 262.931 21.448C263.057 21.163 263.12 20.8647 263.12 20.5532C263.12 20.1952 263.034 19.8853 262.862 19.6235C262.693 19.3616 262.461 19.1595 262.166 19.0169C261.871 18.8744 261.539 18.8032 261.171 18.8032C260.78 18.8032 260.439 18.8844 260.147 19.0468C259.859 19.2059 259.635 19.4296 259.476 19.7179C259.32 20.0063 259.242 20.3443 259.242 20.7321H258.069C258.069 20.1355 258.207 19.6119 258.482 19.1611C258.757 18.7104 259.131 18.359 259.605 18.1071C260.082 17.8552 260.618 17.7293 261.211 17.7293C261.808 17.7293 262.336 17.8552 262.797 18.1071C263.258 18.359 263.619 18.6988 263.881 19.1263C264.143 19.5539 264.274 20.0295 264.274 20.5532C264.274 20.9277 264.206 21.2939 264.07 21.6519C263.937 22.0065 263.705 22.4026 263.374 22.8401C263.046 23.2743 262.59 23.8046 262.006 24.431L259.72 26.877V26.9566H264.452V28.0503H258.029ZM270.443 28.0503V27.1554L273.804 23.4765C274.198 23.0456 274.523 22.6711 274.778 22.3529C275.034 22.0314 275.223 21.7298 275.345 21.448C275.471 21.163 275.534 20.8647 275.534 20.5532C275.534 20.1952 275.448 19.8853 275.276 19.6235C275.107 19.3616 274.875 19.1595 274.58 19.0169C274.285 18.8744 273.953 18.8032 273.585 18.8032C273.194 18.8032 272.853 18.8844 272.561 19.0468C272.273 19.2059 272.049 19.4296 271.89 19.7179C271.734 20.0063 271.656 20.3443 271.656 20.7321H270.483C270.483 20.1355 270.621 19.6119 270.896 19.1611C271.171 18.7104 271.545 18.359 272.019 18.1071C272.497 17.8552 273.032 17.7293 273.625 17.7293C274.222 17.7293 274.75 17.8552 275.211 18.1071C275.672 18.359 276.033 18.6988 276.295 19.1263C276.557 19.5539 276.688 20.0295 276.688 20.5532C276.688 20.9277 276.62 21.2939 276.484 21.6519C276.351 22.0065 276.119 22.4026 275.788 22.8401C275.46 23.2743 275.004 23.8046 274.421 24.431L272.134 26.877V26.9566H276.867V28.0503H270.443ZM282.241 28.1895C281.492 28.1895 280.854 27.9857 280.327 27.578C279.8 27.167 279.397 26.5721 279.119 25.7932C278.84 25.011 278.701 24.0664 278.701 22.9594C278.701 21.859 278.84 20.9194 279.119 20.1405C279.4 19.3583 279.805 18.7617 280.332 18.3507C280.862 17.9364 281.498 17.7293 282.241 17.7293C282.983 17.7293 283.618 17.9364 284.145 18.3507C284.675 18.7617 285.08 19.3583 285.358 20.1405C285.64 20.9194 285.781 21.859 285.781 22.9594C285.781 24.0664 285.641 25.011 285.363 25.7932C285.085 26.5721 284.682 27.167 284.155 27.578C283.628 27.9857 282.99 28.1895 282.241 28.1895ZM282.241 27.0958C282.983 27.0958 283.56 26.7378 283.971 26.0219C284.382 25.306 284.587 24.2852 284.587 22.9594C284.587 22.0778 284.493 21.3271 284.304 20.7073C284.118 20.0875 283.85 19.6152 283.499 19.2904C283.151 18.9656 282.731 18.8032 282.241 18.8032C281.505 18.8032 280.93 19.1661 280.516 19.8919C280.101 20.6145 279.894 21.637 279.894 22.9594C279.894 23.841 279.987 24.5901 280.173 25.2066C280.358 25.823 280.625 26.292 280.973 26.6135C281.324 26.935 281.747 27.0958 282.241 27.0958ZM287.67 28.0503V27.1554L291.031 23.4765C291.425 23.0456 291.75 22.6711 292.005 22.3529C292.26 22.0314 292.449 21.7298 292.572 21.448C292.698 21.163 292.761 20.8647 292.761 20.5532C292.761 20.1952 292.675 19.8853 292.502 19.6235C292.333 19.3616 292.101 19.1595 291.806 19.0169C291.511 18.8744 291.18 18.8032 290.812 18.8032C290.421 18.8032 290.079 18.8844 289.788 19.0468C289.499 19.2059 289.276 19.4296 289.117 19.7179C288.961 20.0063 288.883 20.3443 288.883 20.7321H287.71C287.71 20.1355 287.847 19.6119 288.122 19.1611C288.397 18.7104 288.772 18.359 289.246 18.1071C289.723 17.8552 290.258 17.7293 290.852 17.7293C291.448 17.7293 291.977 17.8552 292.438 18.1071C292.898 18.359 293.26 18.6988 293.521 19.1263C293.783 19.5539 293.914 20.0295 293.914 20.5532C293.914 20.9277 293.846 21.2939 293.71 21.6519C293.578 22.0065 293.346 22.4026 293.014 22.8401C292.686 23.2743 292.23 23.8046 291.647 24.431L289.36 26.877V26.9566H294.093V28.0503H287.67ZM296.146 28.0503V27.1554L299.507 23.4765C299.902 23.0456 300.226 22.6711 300.482 22.3529C300.737 22.0314 300.926 21.7298 301.048 21.448C301.174 21.163 301.237 20.8647 301.237 20.5532C301.237 20.1952 301.151 19.8853 300.979 19.6235C300.81 19.3616 300.578 19.1595 300.283 19.0169C299.988 18.8744 299.656 18.8032 299.288 18.8032C298.897 18.8032 298.556 18.8844 298.264 19.0468C297.976 19.2059 297.752 19.4296 297.593 19.7179C297.437 20.0063 297.359 20.3443 297.359 20.7321H296.186C296.186 20.1355 296.324 19.6119 296.599 19.1611C296.874 18.7104 297.248 18.359 297.722 18.1071C298.2 17.8552 298.735 17.7293 299.328 17.7293C299.925 17.7293 300.453 17.8552 300.914 18.1071C301.375 18.359 301.736 18.6988 301.998 19.1263C302.26 19.5539 302.391 20.0295 302.391 20.5532C302.391 20.9277 302.323 21.2939 302.187 21.6519C302.054 22.0065 301.822 22.4026 301.491 22.8401C301.163 23.2743 300.707 23.8046 300.124 24.431L297.837 26.877V26.9566H302.57V28.0503H296.146ZM306.393 26.6583L306.313 27.1952C306.257 27.573 306.171 27.9774 306.055 28.4083C305.942 28.8391 305.824 29.2452 305.702 29.6263C305.579 30.0075 305.478 30.3107 305.399 30.5361H304.504C304.547 30.324 304.603 30.0439 304.673 29.6959C304.742 29.3479 304.812 28.9585 304.881 28.5276C304.954 28.1 305.014 27.6625 305.06 27.2151L305.12 26.6583H306.393ZM316.064 17.8685V28.0503H314.831V19.1611H314.771L312.285 20.8117V19.5588L314.831 17.8685H316.064ZM322.234 17.7293C322.651 17.7326 323.069 17.8122 323.486 17.9679C323.904 18.1237 324.285 18.3822 324.63 18.7435C324.975 19.1015 325.251 19.5903 325.46 20.2101C325.669 20.8299 325.773 21.6071 325.773 22.5418C325.773 23.4466 325.687 24.2504 325.515 24.953C325.346 25.6524 325.101 26.2423 324.779 26.7229C324.461 27.2035 324.073 27.5681 323.616 27.8167C323.162 28.0652 322.648 28.1895 322.074 28.1895C321.504 28.1895 320.996 28.0768 320.548 27.8515C320.104 27.6228 319.739 27.3062 319.454 26.9019C319.173 26.4942 318.992 26.0219 318.913 25.485H320.126C320.235 25.9523 320.452 26.3384 320.777 26.6434C321.105 26.945 321.538 27.0958 322.074 27.0958C322.86 27.0958 323.48 26.7527 323.934 26.0667C324.391 25.3806 324.62 24.4111 324.62 23.1583H324.54C324.355 23.4367 324.134 23.677 323.879 23.8792C323.624 24.0813 323.341 24.2371 323.029 24.3465C322.717 24.4559 322.386 24.5105 322.035 24.5105C321.451 24.5105 320.916 24.3664 320.429 24.078C319.945 23.7863 319.557 23.387 319.266 22.8799C318.977 22.3694 318.833 21.7861 318.833 21.1299C318.833 20.5068 318.972 19.9367 319.251 19.4196C319.532 18.8993 319.927 18.485 320.434 18.1767C320.944 17.8685 321.544 17.7193 322.234 17.7293ZM322.234 18.823C321.816 18.823 321.44 18.9274 321.105 19.1363C320.774 19.3417 320.51 19.6202 320.315 19.9715C320.122 20.3195 320.026 20.7056 320.026 21.1299C320.026 21.5541 320.119 21.9402 320.305 22.2882C320.494 22.6329 320.75 22.908 321.075 23.1135C321.403 23.3157 321.776 23.4168 322.194 23.4168C322.509 23.4168 322.802 23.3555 323.074 23.2328C323.346 23.1069 323.583 22.9362 323.785 22.7208C323.99 22.502 324.151 22.2551 324.267 21.98C324.383 21.7016 324.441 21.4116 324.441 21.11C324.441 20.7122 324.345 20.3394 324.153 19.9914C323.964 19.6434 323.702 19.3616 323.367 19.1462C323.036 18.9308 322.658 18.823 322.234 18.823ZM328.603 26.7478C328.358 26.7478 328.148 26.6599 327.972 26.4843C327.796 26.3086 327.709 26.0981 327.709 25.8529C327.709 25.6076 327.796 25.3971 327.972 25.2215C328.148 25.0458 328.358 24.958 328.603 24.958C328.849 24.958 329.059 25.0458 329.235 25.2215C329.41 25.3971 329.498 25.6076 329.498 25.8529C329.498 26.0153 329.457 26.1644 329.374 26.3003C329.294 26.4362 329.187 26.5456 329.051 26.6284C328.918 26.708 328.769 26.7478 328.603 26.7478ZM328.603 21.5972C328.358 21.5972 328.148 21.5094 327.972 21.3337C327.796 21.158 327.709 20.9476 327.709 20.7023C327.709 20.457 327.796 20.2466 327.972 20.0709C328.148 19.8952 328.358 19.8074 328.603 19.8074C328.849 19.8074 329.059 19.8952 329.235 20.0709C329.41 20.2466 329.498 20.457 329.498 20.7023C329.498 20.8647 329.457 21.0139 329.374 21.1497C329.294 21.2856 329.187 21.395 329.051 21.4779C328.918 21.5574 328.769 21.5972 328.603 21.5972ZM334.766 28.1895C334.182 28.1895 333.657 28.0735 333.19 27.8415C332.722 27.6095 332.348 27.2913 332.066 26.887C331.784 26.4826 331.63 26.0219 331.604 25.5049H332.797C332.843 25.9656 333.052 26.3467 333.423 26.6483C333.798 26.9466 334.245 27.0958 334.766 27.0958C335.183 27.0958 335.555 26.998 335.879 26.8024C336.207 26.6069 336.464 26.3384 336.65 25.997C336.839 25.6524 336.933 25.2629 336.933 24.8287C336.933 24.3846 336.836 23.9885 336.64 23.6405C336.448 23.2892 336.183 23.0124 335.845 22.8103C335.506 22.6081 335.12 22.5053 334.686 22.502C334.375 22.4987 334.055 22.5468 333.727 22.6462C333.399 22.7423 333.128 22.8666 332.916 23.0191L331.763 22.8799L332.379 17.8685H337.669V18.9622H333.413L333.055 21.9651H333.115C333.324 21.7994 333.586 21.6618 333.901 21.5524C334.216 21.4431 334.544 21.3884 334.885 21.3884C335.508 21.3884 336.063 21.5375 336.551 21.8358C337.041 22.1308 337.426 22.5352 337.704 23.0489C337.986 23.5626 338.126 24.1493 338.126 24.8088C338.126 25.4585 337.981 26.0385 337.689 26.5489C337.401 27.056 337.003 27.457 336.496 27.752C335.989 28.0437 335.412 28.1895 334.766 28.1895ZM343.283 28.1895C342.7 28.1895 342.175 28.0735 341.707 27.8415C341.24 27.6095 340.865 27.2913 340.584 26.887C340.302 26.4826 340.148 26.0219 340.121 25.5049H341.315C341.361 25.9656 341.57 26.3467 341.941 26.6483C342.315 26.9466 342.763 27.0958 343.283 27.0958C343.701 27.0958 344.072 26.998 344.397 26.8024C344.725 26.6069 344.982 26.3384 345.168 25.997C345.356 25.6524 345.451 25.2629 345.451 24.8287C345.451 24.3846 345.353 23.9885 345.158 23.6405C344.965 23.2892 344.7 23.0124 344.362 22.8103C344.024 22.6081 343.638 22.5053 343.204 22.502C342.892 22.4987 342.572 22.5468 342.244 22.6462C341.916 22.7423 341.646 22.8666 341.434 23.0191L340.28 22.8799L340.897 17.8685H346.187V18.9622H341.931L341.573 21.9651H341.633C341.842 21.7994 342.103 21.6618 342.418 21.5524C342.733 21.4431 343.061 21.3884 343.403 21.3884C344.026 21.3884 344.581 21.5375 345.068 21.8358C345.559 22.1308 345.943 22.5352 346.221 23.0489C346.503 23.5626 346.644 24.1493 346.644 24.8088C346.644 25.4585 346.498 26.0385 346.207 26.5489C345.918 27.056 345.52 27.457 345.013 27.752C344.506 28.0437 343.93 28.1895 343.283 28.1895Z" fill="#616B7C"/>
<rect x="186.667" y="142.05" width="253.333" height="1" fill="#F2F2F8"/>
<rect width="253.333" height="79.1011" transform="translate(186.667 62.9998)" fill="white"/>
<path d="M220.317 108.05H219.025L222.763 97.8685H224.036L227.775 108.05H226.482L223.439 99.4793H223.36L220.317 108.05ZM220.794 104.073H226.005V105.167H220.794V104.073ZM229.201 110.914V100.414H230.335V101.627H230.474C230.56 101.494 230.68 101.325 230.832 101.12C230.988 100.911 231.21 100.726 231.498 100.563C231.79 100.397 232.184 100.315 232.682 100.315C233.325 100.315 233.891 100.475 234.382 100.797C234.872 101.118 235.255 101.574 235.53 102.164C235.805 102.754 235.943 103.45 235.943 104.252C235.943 105.061 235.805 105.762 235.53 106.355C235.255 106.945 234.874 107.402 234.387 107.727C233.9 108.049 233.338 108.209 232.701 108.209C232.211 108.209 231.818 108.128 231.523 107.966C231.228 107.8 231.001 107.613 230.842 107.404C230.683 107.192 230.56 107.016 230.474 106.877H230.375V110.914H229.201ZM230.355 104.232C230.355 104.809 230.439 105.318 230.608 105.758C230.777 106.196 231.024 106.539 231.349 106.788C231.674 107.033 232.072 107.155 232.542 107.155C233.033 107.155 233.442 107.026 233.77 106.768C234.102 106.506 234.35 106.154 234.516 105.714C234.685 105.27 234.77 104.776 234.77 104.232C234.77 103.695 234.687 103.211 234.521 102.78C234.359 102.346 234.112 102.003 233.78 101.751C233.452 101.496 233.039 101.368 232.542 101.368C232.065 101.368 231.664 101.489 231.339 101.731C231.014 101.97 230.769 102.305 230.603 102.736C230.438 103.163 230.355 103.662 230.355 104.232ZM237.733 108.05V100.414H238.866V101.567H238.946C239.085 101.19 239.337 100.883 239.701 100.648C240.066 100.412 240.477 100.295 240.934 100.295C241.021 100.295 241.128 100.296 241.258 100.3C241.387 100.303 241.485 100.308 241.551 100.315V101.508C241.511 101.498 241.42 101.483 241.277 101.463C241.138 101.44 240.991 101.428 240.835 101.428C240.464 101.428 240.132 101.506 239.841 101.662C239.552 101.814 239.324 102.026 239.155 102.298C238.989 102.567 238.906 102.873 238.906 103.218V108.05H237.733ZM250.439 97.8685V108.05H249.206V99.1611H249.146L246.66 100.812V99.5588L249.206 97.8685H250.439ZM256.688 108.19C255.939 108.19 255.301 107.986 254.774 107.578C254.247 107.167 253.844 106.572 253.566 105.793C253.288 105.011 253.148 104.066 253.148 102.959C253.148 101.859 253.288 100.919 253.566 100.141C253.848 99.3583 254.252 98.7617 254.779 98.3507C255.309 97.9364 255.946 97.7293 256.688 97.7293C257.431 97.7293 258.065 97.9364 258.592 98.3507C259.123 98.7617 259.527 99.3583 259.805 100.141C260.087 100.919 260.228 101.859 260.228 102.959C260.228 104.066 260.089 105.011 259.81 105.793C259.532 106.572 259.129 107.167 258.602 107.578C258.075 107.986 257.437 108.19 256.688 108.19ZM256.688 107.096C257.431 107.096 258.007 106.738 258.418 106.022C258.829 105.306 259.035 104.285 259.035 102.959C259.035 102.078 258.94 101.327 258.751 100.707C258.566 100.087 258.297 99.6152 257.946 99.2904C257.598 98.9656 257.179 98.8032 256.688 98.8032C255.952 98.8032 255.377 99.1661 254.963 99.8919C254.549 100.614 254.342 101.637 254.342 102.959C254.342 103.841 254.434 104.59 254.62 105.207C254.806 105.823 255.072 106.292 255.42 106.614C255.772 106.935 256.194 107.096 256.688 107.096ZM266.055 108.05V107.155L269.415 103.476C269.81 103.046 270.135 102.671 270.39 102.353C270.645 102.031 270.834 101.73 270.957 101.448C271.083 101.163 271.145 100.865 271.145 100.553C271.145 100.195 271.059 99.8853 270.887 99.6235C270.718 99.3616 270.486 99.1595 270.191 99.0169C269.896 98.8744 269.565 98.8032 269.197 98.8032C268.806 98.8032 268.464 98.8844 268.172 99.0468C267.884 99.2059 267.66 99.4296 267.501 99.7179C267.346 100.006 267.268 100.344 267.268 100.732H266.094C266.094 100.136 266.232 99.6119 266.507 99.1611C266.782 98.7104 267.157 98.359 267.631 98.1071C268.108 97.8552 268.643 97.7293 269.236 97.7293C269.833 97.7293 270.362 97.8552 270.822 98.1071C271.283 98.359 271.644 98.6988 271.906 99.1263C272.168 99.5539 272.299 100.029 272.299 100.553C272.299 100.928 272.231 101.294 272.095 101.652C271.962 102.007 271.73 102.403 271.399 102.84C271.071 103.274 270.615 103.805 270.032 104.431L267.745 106.877V106.957H272.478V108.05H266.055ZM277.852 108.19C277.103 108.19 276.465 107.986 275.938 107.578C275.411 107.167 275.008 106.572 274.73 105.793C274.452 105.011 274.312 104.066 274.312 102.959C274.312 101.859 274.452 100.919 274.73 100.141C275.012 99.3583 275.416 98.7617 275.943 98.3507C276.473 97.9364 277.11 97.7293 277.852 97.7293C278.595 97.7293 279.229 97.9364 279.756 98.3507C280.287 98.7617 280.691 99.3583 280.969 100.141C281.251 100.919 281.392 101.859 281.392 102.959C281.392 104.066 281.253 105.011 280.974 105.793C280.696 106.572 280.293 107.167 279.766 107.578C279.239 107.986 278.601 108.19 277.852 108.19ZM277.852 107.096C278.595 107.096 279.171 106.738 279.582 106.022C279.993 105.306 280.199 104.285 280.199 102.959C280.199 102.078 280.104 101.327 279.915 100.707C279.73 100.087 279.461 99.6152 279.11 99.2904C278.762 98.9656 278.343 98.8032 277.852 98.8032C277.116 98.8032 276.541 99.1661 276.127 99.8919C275.713 100.614 275.506 101.637 275.506 102.959C275.506 103.841 275.598 104.59 275.784 105.207C275.97 105.823 276.236 106.292 276.584 106.614C276.936 106.935 277.358 107.096 277.852 107.096ZM283.281 108.05V107.155L286.642 103.476C287.036 103.046 287.361 102.671 287.616 102.353C287.872 102.031 288.061 101.73 288.183 101.448C288.309 101.163 288.372 100.865 288.372 100.553C288.372 100.195 288.286 99.8853 288.114 99.6235C287.945 99.3616 287.712 99.1595 287.418 99.0169C287.123 98.8744 286.791 98.8032 286.423 98.8032C286.032 98.8032 285.691 98.8844 285.399 99.0468C285.111 99.2059 284.887 99.4296 284.728 99.7179C284.572 100.006 284.494 100.344 284.494 100.732H283.321C283.321 100.136 283.458 99.6119 283.734 99.1611C284.009 98.7104 284.383 98.359 284.857 98.1071C285.334 97.8552 285.87 97.7293 286.463 97.7293C287.06 97.7293 287.588 97.8552 288.049 98.1071C288.51 98.359 288.871 98.6988 289.133 99.1263C289.395 99.5539 289.525 100.029 289.525 100.553C289.525 100.928 289.458 101.294 289.322 101.652C289.189 102.007 288.957 102.403 288.626 102.84C288.297 103.274 287.842 103.805 287.258 104.431L284.971 106.877V106.957H289.704V108.05H283.281ZM291.758 108.05V107.155L295.119 103.476C295.513 103.046 295.838 102.671 296.093 102.353C296.348 102.031 296.537 101.73 296.66 101.448C296.786 101.163 296.849 100.865 296.849 100.553C296.849 100.195 296.762 99.8853 296.59 99.6235C296.421 99.3616 296.189 99.1595 295.894 99.0169C295.599 98.8744 295.268 98.8032 294.9 98.8032C294.509 98.8032 294.167 98.8844 293.876 99.0468C293.587 99.2059 293.364 99.4296 293.204 99.7179C293.049 100.006 292.971 100.344 292.971 100.732H291.797C291.797 100.136 291.935 99.6119 292.21 99.1611C292.485 98.7104 292.86 98.359 293.334 98.1071C293.811 97.8552 294.346 97.7293 294.94 97.7293C295.536 97.7293 296.065 97.8552 296.525 98.1071C296.986 98.359 297.347 98.6988 297.609 99.1263C297.871 99.5539 298.002 100.029 298.002 100.553C298.002 100.928 297.934 101.294 297.798 101.652C297.666 102.007 297.434 102.403 297.102 102.84C296.774 103.274 296.318 103.805 295.735 104.431L293.448 106.877V106.957H298.181V108.05H291.758ZM302.004 106.658L301.925 107.195C301.868 107.573 301.782 107.977 301.666 108.408C301.553 108.839 301.436 109.245 301.313 109.626C301.19 110.007 301.089 110.311 301.01 110.536H300.115C300.158 110.324 300.214 110.044 300.284 109.696C300.354 109.348 300.423 108.958 300.493 108.528C300.566 108.1 300.625 107.663 300.672 107.215L300.731 106.658H302.004ZM311.675 97.8685V108.05H310.442V99.1611H310.383L307.897 100.812V99.5588L310.442 97.8685H311.675ZM317.845 97.7293C318.263 97.7326 318.68 97.8122 319.098 97.9679C319.515 98.1237 319.897 98.3822 320.241 98.7435C320.586 99.1015 320.863 99.5903 321.071 100.21C321.28 100.83 321.385 101.607 321.385 102.542C321.385 103.447 321.298 104.25 321.126 104.953C320.957 105.652 320.712 106.242 320.39 106.723C320.072 107.203 319.684 107.568 319.227 107.817C318.773 108.065 318.259 108.19 317.686 108.19C317.116 108.19 316.607 108.077 316.16 107.851C315.715 107.623 315.351 107.306 315.066 106.902C314.784 106.494 314.603 106.022 314.524 105.485H315.737C315.846 105.952 316.063 106.338 316.388 106.643C316.716 106.945 317.149 107.096 317.686 107.096C318.471 107.096 319.091 106.753 319.545 106.067C320.003 105.381 320.231 104.411 320.231 103.158H320.152C319.966 103.437 319.746 103.677 319.49 103.879C319.235 104.081 318.952 104.237 318.64 104.346C318.329 104.456 317.997 104.511 317.646 104.511C317.063 104.511 316.527 104.366 316.04 104.078C315.556 103.786 315.169 103.387 314.877 102.88C314.589 102.369 314.444 101.786 314.444 101.13C314.444 100.507 314.584 99.9367 314.862 99.4196C315.144 98.8993 315.538 98.485 316.045 98.1767C316.556 97.8685 317.155 97.7193 317.845 97.7293ZM317.845 98.823C317.427 98.823 317.051 98.9274 316.716 99.1363C316.385 99.3417 316.121 99.6202 315.926 99.9715C315.734 100.319 315.638 100.706 315.638 101.13C315.638 101.554 315.73 101.94 315.916 102.288C316.105 102.633 316.362 102.908 316.687 103.114C317.015 103.316 317.388 103.417 317.805 103.417C318.12 103.417 318.413 103.355 318.685 103.233C318.957 103.107 319.194 102.936 319.396 102.721C319.602 102.502 319.762 102.255 319.878 101.98C319.994 101.702 320.052 101.412 320.052 101.11C320.052 100.712 319.956 100.339 319.764 99.9914C319.575 99.6434 319.313 99.3616 318.978 99.1462C318.647 98.9308 318.269 98.823 317.845 98.823ZM324.215 106.748C323.969 106.748 323.759 106.66 323.583 106.484C323.408 106.309 323.32 106.098 323.32 105.853C323.32 105.608 323.408 105.397 323.583 105.221C323.759 105.046 323.969 104.958 324.215 104.958C324.46 104.958 324.67 105.046 324.846 105.221C325.022 105.397 325.11 105.608 325.11 105.853C325.11 106.015 325.068 106.164 324.985 106.3C324.906 106.436 324.798 106.546 324.662 106.628C324.53 106.708 324.38 106.748 324.215 106.748ZM324.215 101.597C323.969 101.597 323.759 101.509 323.583 101.334C323.408 101.158 323.32 100.948 323.32 100.702C323.32 100.457 323.408 100.247 323.583 100.071C323.759 99.8952 323.969 99.8074 324.215 99.8074C324.46 99.8074 324.67 99.8952 324.846 100.071C325.022 100.247 325.11 100.457 325.11 100.702C325.11 100.865 325.068 101.014 324.985 101.15C324.906 101.286 324.798 101.395 324.662 101.478C324.53 101.557 324.38 101.597 324.215 101.597ZM330.377 108.19C329.794 108.19 329.268 108.074 328.801 107.842C328.334 107.61 327.959 107.291 327.677 106.887C327.396 106.483 327.242 106.022 327.215 105.505H328.408C328.455 105.966 328.663 106.347 329.035 106.648C329.409 106.947 329.857 107.096 330.377 107.096C330.795 107.096 331.166 106.998 331.491 106.802C331.819 106.607 332.076 106.338 332.261 105.997C332.45 105.652 332.545 105.263 332.545 104.829C332.545 104.385 332.447 103.989 332.251 103.641C332.059 103.289 331.794 103.012 331.456 102.81C331.118 102.608 330.732 102.505 330.297 102.502C329.986 102.499 329.666 102.547 329.338 102.646C329.01 102.742 328.74 102.867 328.528 103.019L327.374 102.88L327.991 97.8685H333.28V98.9622H329.025L328.667 101.965H328.726C328.935 101.799 329.197 101.662 329.512 101.552C329.827 101.443 330.155 101.388 330.496 101.388C331.119 101.388 331.675 101.538 332.162 101.836C332.652 102.131 333.037 102.535 333.315 103.049C333.597 103.563 333.738 104.149 333.738 104.809C333.738 105.458 333.592 106.038 333.3 106.549C333.012 107.056 332.614 107.457 332.107 107.752C331.6 108.044 331.023 108.19 330.377 108.19ZM338.895 108.19C338.311 108.19 337.786 108.074 337.319 107.842C336.851 107.61 336.477 107.291 336.195 106.887C335.913 106.483 335.759 106.022 335.733 105.505H336.926C336.972 105.966 337.181 106.347 337.552 106.648C337.927 106.947 338.374 107.096 338.895 107.096C339.312 107.096 339.683 106.998 340.008 106.802C340.336 106.607 340.593 106.338 340.779 105.997C340.968 105.652 341.062 105.263 341.062 104.829C341.062 104.385 340.964 103.989 340.769 103.641C340.577 103.289 340.312 103.012 339.973 102.81C339.635 102.608 339.249 102.505 338.815 102.502C338.504 102.499 338.184 102.547 337.856 102.646C337.527 102.742 337.257 102.867 337.045 103.019L335.892 102.88L336.508 97.8685H341.798V98.9622H337.542L337.184 101.965H337.244C337.453 101.799 337.715 101.662 338.03 101.552C338.344 101.443 338.673 101.388 339.014 101.388C339.637 101.388 340.192 101.538 340.679 101.836C341.17 102.131 341.554 102.535 341.833 103.049C342.115 103.563 342.255 104.149 342.255 104.809C342.255 105.458 342.11 106.038 341.818 106.549C341.53 107.056 341.132 107.457 340.625 107.752C340.118 108.044 339.541 108.19 338.895 108.19Z" fill="#616B7C"/>
<rect x="186.667" y="222.05" width="253.333" height="1" fill="#F2F2F8"/>
<rect width="253.333" height="79.1011" transform="translate(186.667 143)" fill="white"/>
<path d="M220.317 188.05H219.025L222.763 177.868H224.036L227.775 188.05H226.482L223.439 179.479H223.36L220.317 188.05ZM220.794 184.073H226.005V185.167H220.794V184.073ZM234.014 184.928V180.414H235.187V188.05H234.014V186.758H233.934C233.755 187.145 233.477 187.475 233.099 187.747C232.721 188.016 232.244 188.15 231.667 188.15C231.19 188.15 230.766 188.045 230.395 187.837C230.023 187.624 229.732 187.306 229.52 186.882C229.307 186.454 229.201 185.916 229.201 185.266V180.414H230.375V185.187C230.375 185.743 230.53 186.188 230.842 186.519C231.157 186.851 231.558 187.016 232.045 187.016C232.337 187.016 232.633 186.942 232.935 186.793C233.24 186.643 233.495 186.415 233.701 186.106C233.91 185.798 234.014 185.405 234.014 184.928ZM240.419 191.073C239.852 191.073 239.365 191 238.957 190.854C238.549 190.712 238.21 190.523 237.938 190.288C237.669 190.056 237.456 189.807 237.296 189.542L238.231 188.886C238.337 189.025 238.471 189.184 238.634 189.363C238.796 189.545 239.018 189.703 239.3 189.835C239.585 189.971 239.958 190.039 240.419 190.039C241.035 190.039 241.544 189.89 241.945 189.592C242.346 189.293 242.546 188.826 242.546 188.19V186.638H242.447C242.361 186.778 242.238 186.95 242.079 187.155C241.923 187.358 241.698 187.538 241.403 187.697C241.111 187.853 240.717 187.931 240.22 187.931C239.603 187.931 239.05 187.785 238.559 187.493C238.072 187.202 237.686 186.778 237.401 186.221C237.119 185.664 236.978 184.988 236.978 184.192C236.978 183.41 237.116 182.729 237.391 182.149C237.666 181.566 238.049 181.115 238.539 180.797C239.03 180.475 239.597 180.315 240.24 180.315C240.737 180.315 241.131 180.397 241.423 180.563C241.718 180.726 241.943 180.911 242.099 181.12C242.258 181.325 242.381 181.494 242.467 181.627H242.586V180.414H243.72V188.269C243.72 188.925 243.571 189.459 243.272 189.87C242.977 190.284 242.58 190.587 242.079 190.78C241.582 190.975 241.028 191.073 240.419 191.073ZM240.379 186.877C240.849 186.877 241.247 186.769 241.572 186.554C241.897 186.338 242.144 186.029 242.313 185.624C242.482 185.22 242.566 184.736 242.566 184.172C242.566 183.622 242.483 183.137 242.318 182.716C242.152 182.295 241.907 181.965 241.582 181.726C241.257 181.488 240.856 181.368 240.379 181.368C239.882 181.368 239.467 181.494 239.136 181.746C238.808 181.998 238.561 182.336 238.395 182.761C238.233 183.185 238.152 183.655 238.152 184.172C238.152 184.703 238.234 185.172 238.4 185.579C238.569 185.984 238.818 186.302 239.146 186.534C239.477 186.763 239.888 186.877 240.379 186.877ZM253.225 188.19C252.569 188.19 251.984 188.077 251.47 187.851C250.96 187.626 250.554 187.313 250.252 186.912C249.954 186.507 249.792 186.038 249.765 185.505H251.018C251.045 185.833 251.157 186.116 251.356 186.355C251.555 186.59 251.815 186.773 252.137 186.902C252.458 187.031 252.814 187.096 253.206 187.096C253.643 187.096 254.031 187.02 254.369 186.867C254.707 186.715 254.972 186.502 255.164 186.231C255.357 185.959 255.453 185.644 255.453 185.286C255.453 184.912 255.36 184.582 255.174 184.297C254.989 184.008 254.717 183.783 254.359 183.621C254.001 183.458 253.563 183.377 253.046 183.377H252.231V182.283H253.046C253.451 182.283 253.805 182.21 254.11 182.065C254.419 181.919 254.659 181.713 254.831 181.448C255.007 181.183 255.095 180.871 255.095 180.513C255.095 180.169 255.018 179.869 254.866 179.614C254.714 179.358 254.498 179.159 254.22 179.017C253.945 178.874 253.62 178.803 253.245 178.803C252.894 178.803 252.563 178.868 252.251 178.997C251.943 179.123 251.691 179.307 251.495 179.549C251.3 179.788 251.194 180.076 251.177 180.414H249.984C250.004 179.88 250.165 179.413 250.466 179.012C250.768 178.608 251.162 178.293 251.649 178.067C252.14 177.842 252.679 177.729 253.265 177.729C253.895 177.729 254.435 177.857 254.886 178.112C255.337 178.364 255.683 178.697 255.925 179.111C256.167 179.526 256.288 179.973 256.288 180.454C256.288 181.027 256.137 181.516 255.835 181.92C255.537 182.325 255.131 182.605 254.617 182.761V182.84C255.26 182.946 255.763 183.22 256.124 183.66C256.485 184.098 256.666 184.64 256.666 185.286C256.666 185.84 256.515 186.337 256.213 186.778C255.915 187.215 255.507 187.56 254.99 187.812C254.473 188.064 253.885 188.19 253.225 188.19ZM262.279 177.868V188.05H261.046V179.161H260.986L258.5 180.812V179.559L261.046 177.868H262.279ZM269.144 188.05V187.155L272.505 183.476C272.9 183.046 273.224 182.671 273.48 182.353C273.735 182.031 273.924 181.73 274.046 181.448C274.172 181.163 274.235 180.865 274.235 180.553C274.235 180.195 274.149 179.885 273.977 179.623C273.808 179.362 273.576 179.159 273.281 179.017C272.986 178.874 272.654 178.803 272.286 178.803C271.895 178.803 271.554 178.884 271.262 179.047C270.974 179.206 270.75 179.43 270.591 179.718C270.435 180.006 270.357 180.344 270.357 180.732H269.184C269.184 180.136 269.322 179.612 269.597 179.161C269.872 178.71 270.246 178.359 270.72 178.107C271.198 177.855 271.733 177.729 272.326 177.729C272.923 177.729 273.451 177.855 273.912 178.107C274.373 178.359 274.734 178.699 274.996 179.126C275.258 179.554 275.389 180.029 275.389 180.553C275.389 180.928 275.321 181.294 275.185 181.652C275.052 182.007 274.82 182.403 274.489 182.84C274.161 183.274 273.705 183.805 273.122 184.431L270.835 186.877V186.957H275.568V188.05H269.144ZM280.942 188.19C280.193 188.19 279.555 187.986 279.028 187.578C278.501 187.167 278.098 186.572 277.82 185.793C277.541 185.011 277.402 184.066 277.402 182.959C277.402 181.859 277.541 180.919 277.82 180.141C278.102 179.358 278.506 178.762 279.033 178.351C279.563 177.936 280.2 177.729 280.942 177.729C281.684 177.729 282.319 177.936 282.846 178.351C283.376 178.762 283.781 179.358 284.059 180.141C284.341 180.919 284.482 181.859 284.482 182.959C284.482 184.066 284.343 185.011 284.064 185.793C283.786 186.572 283.383 187.167 282.856 187.578C282.329 187.986 281.691 188.19 280.942 188.19ZM280.942 187.096C281.684 187.096 282.261 186.738 282.672 186.022C283.083 185.306 283.289 184.285 283.289 182.959C283.289 182.078 283.194 181.327 283.005 180.707C282.82 180.087 282.551 179.615 282.2 179.29C281.852 178.966 281.433 178.803 280.942 178.803C280.206 178.803 279.631 179.166 279.217 179.892C278.803 180.614 278.595 181.637 278.595 182.959C278.595 183.841 278.688 184.59 278.874 185.207C279.059 185.823 279.326 186.292 279.674 186.614C280.026 186.935 280.448 187.096 280.942 187.096ZM286.371 188.05V187.155L289.732 183.476C290.126 183.046 290.451 182.671 290.706 182.353C290.961 182.031 291.15 181.73 291.273 181.448C291.399 181.163 291.462 180.865 291.462 180.553C291.462 180.195 291.376 179.885 291.203 179.623C291.034 179.362 290.802 179.159 290.507 179.017C290.212 178.874 289.881 178.803 289.513 178.803C289.122 178.803 288.781 178.884 288.489 179.047C288.201 179.206 287.977 179.43 287.818 179.718C287.662 180.006 287.584 180.344 287.584 180.732H286.411C286.411 180.136 286.548 179.612 286.823 179.161C287.099 178.71 287.473 178.359 287.947 178.107C288.424 177.855 288.96 177.729 289.553 177.729C290.149 177.729 290.678 177.855 291.139 178.107C291.599 178.359 291.961 178.699 292.223 179.126C292.484 179.554 292.615 180.029 292.615 180.553C292.615 180.928 292.547 181.294 292.411 181.652C292.279 182.007 292.047 182.403 291.715 182.84C291.387 183.274 290.932 183.805 290.348 184.431L288.061 186.877V186.957H292.794V188.05H286.371ZM294.848 188.05V187.155L298.208 183.476C298.603 183.046 298.928 182.671 299.183 182.353C299.438 182.031 299.627 181.73 299.75 181.448C299.875 181.163 299.938 180.865 299.938 180.553C299.938 180.195 299.852 179.885 299.68 179.623C299.511 179.362 299.279 179.159 298.984 179.017C298.689 178.874 298.357 178.803 297.99 178.803C297.599 178.803 297.257 178.884 296.965 179.047C296.677 179.206 296.453 179.43 296.294 179.718C296.139 180.006 296.061 180.344 296.061 180.732H294.887C294.887 180.136 295.025 179.612 295.3 179.161C295.575 178.71 295.95 178.359 296.424 178.107C296.901 177.855 297.436 177.729 298.029 177.729C298.626 177.729 299.155 177.855 299.615 178.107C300.076 178.359 300.437 178.699 300.699 179.126C300.961 179.554 301.092 180.029 301.092 180.553C301.092 180.928 301.024 181.294 300.888 181.652C300.755 182.007 300.523 182.403 300.192 182.84C299.864 183.274 299.408 183.805 298.825 184.431L296.538 186.877V186.957H301.271V188.05H294.848ZM305.094 186.658L305.014 187.195C304.958 187.573 304.872 187.977 304.756 188.408C304.643 188.839 304.526 189.245 304.403 189.626C304.28 190.007 304.179 190.311 304.1 190.536H303.205C303.248 190.324 303.304 190.044 303.374 189.696C303.443 189.348 303.513 188.958 303.583 188.528C303.656 188.1 303.715 187.663 303.762 187.215L303.821 186.658H305.094ZM314.765 177.868V188.05H313.532V179.161H313.472L310.987 180.812V179.559L313.532 177.868H314.765ZM320.935 177.729C321.352 177.733 321.77 177.812 322.188 177.968C322.605 178.124 322.986 178.382 323.331 178.743C323.676 179.101 323.952 179.59 324.161 180.21C324.37 180.83 324.475 181.607 324.475 182.542C324.475 183.447 324.388 184.25 324.216 184.953C324.047 185.652 323.802 186.242 323.48 186.723C323.162 187.203 322.774 187.568 322.317 187.817C321.863 188.065 321.349 188.19 320.776 188.19C320.206 188.19 319.697 188.077 319.249 187.851C318.805 187.623 318.441 187.306 318.156 186.902C317.874 186.494 317.693 186.022 317.614 185.485H318.827C318.936 185.952 319.153 186.338 319.478 186.643C319.806 186.945 320.239 187.096 320.776 187.096C321.561 187.096 322.181 186.753 322.635 186.067C323.092 185.381 323.321 184.411 323.321 183.158H323.242C323.056 183.437 322.836 183.677 322.58 183.879C322.325 184.081 322.042 184.237 321.73 184.346C321.419 184.456 321.087 184.511 320.736 184.511C320.153 184.511 319.617 184.366 319.13 184.078C318.646 183.786 318.258 183.387 317.967 182.88C317.678 182.369 317.534 181.786 317.534 181.13C317.534 180.507 317.673 179.937 317.952 179.42C318.234 178.899 318.628 178.485 319.135 178.177C319.645 177.868 320.245 177.719 320.935 177.729ZM320.935 178.823C320.517 178.823 320.141 178.927 319.806 179.136C319.475 179.342 319.211 179.62 319.016 179.971C318.823 180.319 318.727 180.706 318.727 181.13C318.727 181.554 318.82 181.94 319.006 182.288C319.195 182.633 319.452 182.908 319.776 183.114C320.104 183.316 320.477 183.417 320.895 183.417C321.21 183.417 321.503 183.355 321.775 183.233C322.047 183.107 322.284 182.936 322.486 182.721C322.691 182.502 322.852 182.255 322.968 181.98C323.084 181.702 323.142 181.412 323.142 181.11C323.142 180.712 323.046 180.339 322.854 179.991C322.665 179.643 322.403 179.362 322.068 179.146C321.737 178.931 321.359 178.823 320.935 178.823ZM327.305 186.748C327.059 186.748 326.849 186.66 326.673 186.484C326.498 186.309 326.41 186.098 326.41 185.853C326.41 185.608 326.498 185.397 326.673 185.221C326.849 185.046 327.059 184.958 327.305 184.958C327.55 184.958 327.76 185.046 327.936 185.221C328.112 185.397 328.199 185.608 328.199 185.853C328.199 186.015 328.158 186.164 328.075 186.3C327.996 186.436 327.888 186.546 327.752 186.628C327.619 186.708 327.47 186.748 327.305 186.748ZM327.305 181.597C327.059 181.597 326.849 181.509 326.673 181.334C326.498 181.158 326.41 180.948 326.41 180.702C326.41 180.457 326.498 180.247 326.673 180.071C326.849 179.895 327.059 179.807 327.305 179.807C327.55 179.807 327.76 179.895 327.936 180.071C328.112 180.247 328.199 180.457 328.199 180.702C328.199 180.865 328.158 181.014 328.075 181.15C327.996 181.286 327.888 181.395 327.752 181.478C327.619 181.557 327.47 181.597 327.305 181.597ZM333.467 188.19C332.884 188.19 332.358 188.074 331.891 187.842C331.424 187.61 331.049 187.291 330.767 186.887C330.486 186.483 330.331 186.022 330.305 185.505H331.498C331.545 185.966 331.753 186.347 332.125 186.648C332.499 186.947 332.947 187.096 333.467 187.096C333.884 187.096 334.256 186.998 334.581 186.802C334.909 186.607 335.166 186.338 335.351 185.997C335.54 185.652 335.634 185.263 335.634 184.829C335.634 184.385 335.537 183.989 335.341 183.641C335.149 183.289 334.884 183.012 334.546 182.81C334.208 182.608 333.822 182.505 333.387 182.502C333.076 182.499 332.756 182.547 332.428 182.646C332.1 182.742 331.83 182.867 331.617 183.019L330.464 182.88L331.081 177.868H336.37V178.962H332.115L331.757 181.965H331.816C332.025 181.799 332.287 181.662 332.602 181.552C332.917 181.443 333.245 181.388 333.586 181.388C334.209 181.388 334.764 181.538 335.252 181.836C335.742 182.131 336.127 182.535 336.405 183.049C336.687 183.563 336.828 184.149 336.828 184.809C336.828 185.458 336.682 186.038 336.39 186.549C336.102 187.056 335.704 187.457 335.197 187.752C334.69 188.044 334.113 188.19 333.467 188.19ZM341.984 188.19C341.401 188.19 340.876 188.074 340.408 187.842C339.941 187.61 339.567 187.291 339.285 186.887C339.003 186.483 338.849 186.022 338.823 185.505H340.016C340.062 185.966 340.271 186.347 340.642 186.648C341.017 186.947 341.464 187.096 341.984 187.096C342.402 187.096 342.773 186.998 343.098 186.802C343.426 186.607 343.683 186.338 343.869 185.997C344.058 185.652 344.152 185.263 344.152 184.829C344.152 184.385 344.054 183.989 343.859 183.641C343.667 183.289 343.401 183.012 343.063 182.81C342.725 182.608 342.339 182.505 341.905 182.502C341.593 182.499 341.274 182.547 340.945 182.646C340.617 182.742 340.347 182.867 340.135 183.019L338.982 182.88L339.598 177.868H344.888V178.962H340.632L340.274 181.965H340.334C340.543 181.799 340.805 181.662 341.119 181.552C341.434 181.443 341.762 181.388 342.104 181.388C342.727 181.388 343.282 181.538 343.769 181.836C344.26 182.131 344.644 182.535 344.923 183.049C345.204 183.563 345.345 184.149 345.345 184.809C345.345 185.458 345.199 186.038 344.908 186.549C344.619 187.056 344.222 187.457 343.715 187.752C343.207 188.044 342.631 188.19 341.984 188.19Z" fill="#616B7C"/>
<rect width="253.333" height="80" transform="translate(186.667 223)" fill="white"/>
<path d="M220.317 268.5H219.025L222.763 258.318H224.036L227.775 268.5H226.482L223.439 259.929H223.36L220.317 268.5ZM220.794 264.522H226.005V265.616H220.794V264.522ZM229.201 271.363V260.863H230.335V262.076H230.474C230.56 261.944 230.68 261.775 230.832 261.569C230.988 261.361 231.21 261.175 231.498 261.013C231.79 260.847 232.184 260.764 232.682 260.764C233.325 260.764 233.891 260.925 234.382 261.246C234.872 261.568 235.255 262.023 235.53 262.613C235.805 263.203 235.943 263.899 235.943 264.701C235.943 265.51 235.805 266.211 235.53 266.804C235.255 267.394 234.874 267.852 234.387 268.177C233.9 268.498 233.338 268.659 232.701 268.659C232.211 268.659 231.818 268.578 231.523 268.415C231.228 268.25 231.001 268.062 230.842 267.853C230.683 267.641 230.56 267.466 230.474 267.326H230.375V271.363H229.201ZM230.355 264.682C230.355 265.258 230.439 265.767 230.608 266.208C230.777 266.645 231.024 266.988 231.349 267.237C231.674 267.482 232.072 267.605 232.542 267.605C233.033 267.605 233.442 267.476 233.77 267.217C234.102 266.955 234.35 266.604 234.516 266.163C234.685 265.719 234.77 265.225 234.77 264.682C234.77 264.145 234.687 263.661 234.521 263.23C234.359 262.796 234.112 262.453 233.78 262.201C233.452 261.946 233.039 261.818 232.542 261.818C232.065 261.818 231.664 261.939 231.339 262.181C231.014 262.42 230.769 262.754 230.603 263.185C230.438 263.613 230.355 264.111 230.355 264.682ZM237.733 268.5V260.863H238.866V262.017H238.946C239.085 261.639 239.337 261.332 239.701 261.097C240.066 260.862 240.477 260.744 240.934 260.744C241.021 260.744 241.128 260.746 241.258 260.749C241.387 260.752 241.485 260.757 241.551 260.764V261.957C241.511 261.947 241.42 261.932 241.277 261.912C241.138 261.889 240.991 261.878 240.835 261.878C240.464 261.878 240.132 261.955 239.841 262.111C239.552 262.264 239.324 262.476 239.155 262.748C238.989 263.016 238.906 263.323 238.906 263.667V268.5H237.733ZM250.041 268.639C249.458 268.639 248.932 268.523 248.465 268.291C247.998 268.059 247.623 267.741 247.342 267.336C247.06 266.932 246.906 266.471 246.879 265.954H248.072C248.119 266.415 248.328 266.796 248.699 267.098C249.073 267.396 249.521 267.545 250.041 267.545C250.459 267.545 250.83 267.447 251.155 267.252C251.483 267.056 251.74 266.788 251.925 266.446C252.114 266.102 252.209 265.712 252.209 265.278C252.209 264.834 252.111 264.438 251.915 264.09C251.723 263.739 251.458 263.462 251.12 263.26C250.782 263.058 250.396 262.955 249.962 262.951C249.65 262.948 249.33 262.996 249.002 263.096C248.674 263.192 248.404 263.316 248.192 263.469L247.038 263.329L247.655 258.318H252.945V259.412H248.689L248.331 262.415H248.391C248.599 262.249 248.861 262.111 249.176 262.002C249.491 261.893 249.819 261.838 250.16 261.838C250.784 261.838 251.339 261.987 251.826 262.285C252.316 262.58 252.701 262.985 252.979 263.498C253.261 264.012 253.402 264.599 253.402 265.258C253.402 265.908 253.256 266.488 252.964 266.998C252.676 267.505 252.278 267.906 251.771 268.201C251.264 268.493 250.687 268.639 250.041 268.639ZM259.314 268.5V267.605L262.675 263.926C263.07 263.495 263.394 263.12 263.65 262.802C263.905 262.481 264.094 262.179 264.216 261.897C264.342 261.612 264.405 261.314 264.405 261.003C264.405 260.645 264.319 260.335 264.147 260.073C263.978 259.811 263.746 259.609 263.451 259.466C263.156 259.324 262.824 259.253 262.456 259.253C262.065 259.253 261.724 259.334 261.432 259.496C261.144 259.655 260.92 259.879 260.761 260.167C260.605 260.456 260.527 260.794 260.527 261.182H259.354C259.354 260.585 259.492 260.061 259.767 259.611C260.042 259.16 260.416 258.808 260.89 258.557C261.368 258.305 261.903 258.179 262.496 258.179C263.093 258.179 263.621 258.305 264.082 258.557C264.543 258.808 264.904 259.148 265.166 259.576C265.428 260.003 265.559 260.479 265.559 261.003C265.559 261.377 265.491 261.743 265.355 262.101C265.222 262.456 264.99 262.852 264.659 263.29C264.331 263.724 263.875 264.254 263.292 264.88L261.005 267.326V267.406H265.738V268.5H259.314ZM271.112 268.639C270.363 268.639 269.725 268.435 269.198 268.027C268.671 267.616 268.268 267.022 267.99 266.243C267.711 265.46 267.572 264.516 267.572 263.409C267.572 262.308 267.711 261.369 267.99 260.59C268.272 259.808 268.676 259.211 269.203 258.8C269.733 258.386 270.37 258.179 271.112 258.179C271.854 258.179 272.489 258.386 273.016 258.8C273.546 259.211 273.951 259.808 274.229 260.59C274.511 261.369 274.652 262.308 274.652 263.409C274.652 264.516 274.513 265.46 274.234 266.243C273.956 267.022 273.553 267.616 273.026 268.027C272.499 268.435 271.861 268.639 271.112 268.639ZM271.112 267.545C271.854 267.545 272.431 267.187 272.842 266.471C273.253 265.755 273.459 264.735 273.459 263.409C273.459 262.527 273.364 261.777 273.175 261.157C272.99 260.537 272.721 260.065 272.37 259.74C272.022 259.415 271.602 259.253 271.112 259.253C270.376 259.253 269.801 259.616 269.387 260.341C268.972 261.064 268.765 262.086 268.765 263.409C268.765 264.29 268.858 265.04 269.044 265.656C269.229 266.272 269.496 266.741 269.844 267.063C270.196 267.384 270.618 267.545 271.112 267.545ZM276.541 268.5V267.605L279.902 263.926C280.296 263.495 280.621 263.12 280.876 262.802C281.131 262.481 281.32 262.179 281.443 261.897C281.569 261.612 281.632 261.314 281.632 261.003C281.632 260.645 281.546 260.335 281.373 260.073C281.204 259.811 280.972 259.609 280.677 259.466C280.382 259.324 280.051 259.253 279.683 259.253C279.292 259.253 278.95 259.334 278.659 259.496C278.37 259.655 278.147 259.879 277.988 260.167C277.832 260.456 277.754 260.794 277.754 261.182H276.581C276.581 260.585 276.718 260.061 276.993 259.611C277.268 259.16 277.643 258.808 278.117 258.557C278.594 258.305 279.129 258.179 279.723 258.179C280.319 258.179 280.848 258.305 281.309 258.557C281.769 258.808 282.131 259.148 282.392 259.576C282.654 260.003 282.785 260.479 282.785 261.003C282.785 261.377 282.717 261.743 282.581 262.101C282.449 262.456 282.217 262.852 281.885 263.29C281.557 263.724 281.102 264.254 280.518 264.88L278.231 267.326V267.406H282.964V268.5H276.541ZM285.017 268.5V267.605L288.378 263.926C288.773 263.495 289.097 263.12 289.353 262.802C289.608 262.481 289.797 262.179 289.919 261.897C290.045 261.612 290.108 261.314 290.108 261.003C290.108 260.645 290.022 260.335 289.85 260.073C289.681 259.811 289.449 259.609 289.154 259.466C288.859 259.324 288.527 259.253 288.16 259.253C287.768 259.253 287.427 259.334 287.135 259.496C286.847 259.655 286.623 259.879 286.464 260.167C286.308 260.456 286.231 260.794 286.231 261.182H285.057C285.057 260.585 285.195 260.061 285.47 259.611C285.745 259.16 286.12 258.808 286.593 258.557C287.071 258.305 287.606 258.179 288.199 258.179C288.796 258.179 289.325 258.305 289.785 258.557C290.246 258.808 290.607 259.148 290.869 259.576C291.131 260.003 291.262 260.479 291.262 261.003C291.262 261.377 291.194 261.743 291.058 262.101C290.925 262.456 290.693 262.852 290.362 263.29C290.034 263.724 289.578 264.254 288.995 264.88L286.708 267.326V267.406H291.441V268.5H285.017ZM295.264 267.108L295.184 267.645C295.128 268.022 295.042 268.427 294.926 268.858C294.813 269.289 294.696 269.695 294.573 270.076C294.45 270.457 294.349 270.76 294.27 270.986H293.375C293.418 270.773 293.474 270.493 293.544 270.145C293.613 269.797 293.683 269.408 293.753 268.977C293.825 268.549 293.885 268.112 293.932 267.665L293.991 267.108H295.264ZM304.935 258.318V268.5H303.702V259.611H303.642L301.157 261.261V260.008L303.702 258.318H304.935ZM311.105 258.179C311.522 258.182 311.94 258.262 312.357 258.417C312.775 258.573 313.156 258.832 313.501 259.193C313.846 259.551 314.122 260.04 314.331 260.66C314.54 261.279 314.644 262.057 314.644 262.991C314.644 263.896 314.558 264.7 314.386 265.402C314.217 266.102 313.972 266.692 313.65 267.172C313.332 267.653 312.944 268.018 312.487 268.266C312.033 268.515 311.519 268.639 310.946 268.639C310.375 268.639 309.867 268.526 309.419 268.301C308.975 268.072 308.611 267.756 308.326 267.351C308.044 266.944 307.863 266.471 307.784 265.934H308.997C309.106 266.402 309.323 266.788 309.648 267.093C309.976 267.394 310.409 267.545 310.946 267.545C311.731 267.545 312.351 267.202 312.805 266.516C313.262 265.83 313.491 264.861 313.491 263.608H313.411C313.226 263.886 313.005 264.126 312.75 264.329C312.495 264.531 312.212 264.687 311.9 264.796C311.589 264.905 311.257 264.96 310.906 264.96C310.322 264.96 309.787 264.816 309.3 264.527C308.816 264.236 308.428 263.836 308.137 263.329C307.848 262.819 307.704 262.236 307.704 261.579C307.704 260.956 307.843 260.386 308.122 259.869C308.403 259.349 308.798 258.934 309.305 258.626C309.815 258.318 310.415 258.169 311.105 258.179ZM311.105 259.272C310.687 259.272 310.311 259.377 309.976 259.586C309.645 259.791 309.381 260.07 309.186 260.421C308.993 260.769 308.897 261.155 308.897 261.579C308.897 262.004 308.99 262.39 309.176 262.738C309.365 263.082 309.621 263.357 309.946 263.563C310.274 263.765 310.647 263.866 311.065 263.866C311.38 263.866 311.673 263.805 311.945 263.682C312.217 263.556 312.454 263.386 312.656 263.17C312.861 262.951 313.022 262.705 313.138 262.429C313.254 262.151 313.312 261.861 313.312 261.559C313.312 261.162 313.216 260.789 313.024 260.441C312.835 260.093 312.573 259.811 312.238 259.596C311.907 259.38 311.529 259.272 311.105 259.272ZM317.475 267.197C317.229 267.197 317.019 267.109 316.843 266.934C316.667 266.758 316.58 266.548 316.58 266.302C316.58 266.057 316.667 265.847 316.843 265.671C317.019 265.495 317.229 265.407 317.475 265.407C317.72 265.407 317.93 265.495 318.106 265.671C318.282 265.847 318.369 266.057 318.369 266.302C318.369 266.465 318.328 266.614 318.245 266.75C318.166 266.886 318.058 266.995 317.922 267.078C317.789 267.157 317.64 267.197 317.475 267.197ZM317.475 262.047C317.229 262.047 317.019 261.959 316.843 261.783C316.667 261.607 316.58 261.397 316.58 261.152C316.58 260.906 316.667 260.696 316.843 260.52C317.019 260.345 317.229 260.257 317.475 260.257C317.72 260.257 317.93 260.345 318.106 260.52C318.282 260.696 318.369 260.906 318.369 261.152C318.369 261.314 318.328 261.463 318.245 261.599C318.166 261.735 318.058 261.844 317.922 261.927C317.789 262.007 317.64 262.047 317.475 262.047ZM323.637 268.639C323.053 268.639 322.528 268.523 322.061 268.291C321.593 268.059 321.219 267.741 320.937 267.336C320.655 266.932 320.501 266.471 320.475 265.954H321.668C321.714 266.415 321.923 266.796 322.294 267.098C322.669 267.396 323.116 267.545 323.637 267.545C324.054 267.545 324.426 267.447 324.75 267.252C325.079 267.056 325.335 266.788 325.521 266.446C325.71 266.102 325.804 265.712 325.804 265.278C325.804 264.834 325.707 264.438 325.511 264.09C325.319 263.739 325.054 263.462 324.716 263.26C324.378 263.058 323.991 262.955 323.557 262.951C323.246 262.948 322.926 262.996 322.598 263.096C322.27 263.192 321.999 263.316 321.787 263.469L320.634 263.329L321.25 258.318H326.54V259.412H322.285L321.927 262.415H321.986C322.195 262.249 322.457 262.111 322.772 262.002C323.087 261.893 323.415 261.838 323.756 261.838C324.379 261.838 324.934 261.987 325.422 262.285C325.912 262.58 326.297 262.985 326.575 263.498C326.857 264.012 326.998 264.599 326.998 265.258C326.998 265.908 326.852 266.488 326.56 266.998C326.272 267.505 325.874 267.906 325.367 268.201C324.86 268.493 324.283 268.639 323.637 268.639ZM332.154 268.639C331.571 268.639 331.046 268.523 330.578 268.291C330.111 268.059 329.737 267.741 329.455 267.336C329.173 266.932 329.019 266.471 328.992 265.954H330.186C330.232 266.415 330.441 266.796 330.812 267.098C331.187 267.396 331.634 267.545 332.154 267.545C332.572 267.545 332.943 267.447 333.268 267.252C333.596 267.056 333.853 266.788 334.039 266.446C334.228 266.102 334.322 265.712 334.322 265.278C334.322 264.834 334.224 264.438 334.029 264.09C333.836 263.739 333.571 263.462 333.233 263.26C332.895 263.058 332.509 262.955 332.075 262.951C331.763 262.948 331.443 262.996 331.115 263.096C330.787 263.192 330.517 263.316 330.305 263.469L329.152 263.329L329.768 258.318H335.058V259.412H330.802L330.444 262.415H330.504C330.713 262.249 330.974 262.111 331.289 262.002C331.604 261.893 331.932 261.838 332.274 261.838C332.897 261.838 333.452 261.987 333.939 262.285C334.43 262.58 334.814 262.985 335.093 263.498C335.374 264.012 335.515 264.599 335.515 265.258C335.515 265.908 335.369 266.488 335.078 266.998C334.789 267.505 334.392 267.906 333.884 268.201C333.377 268.493 332.801 268.639 332.154 268.639Z" fill="#616B7C"/>
<rect x="440" y="62.0503" width="80" height="1" fill="#F2F2F8"/>
<rect width="80" height="79.1011" transform="translate(440 -17.0002)" fill="white"/>
<path d="M475.2 22.5503C475.2 23.8758 474.126 24.9503 472.8 24.9503C471.475 24.9503 470.4 23.8758 470.4 22.5503C470.4 21.2248 471.475 20.1503 472.8 20.1503C474.126 20.1503 475.2 21.2248 475.2 22.5503Z" fill="#C4C6D7"/>
<path d="M482.4 22.5503C482.4 23.8758 481.326 24.9503 480 24.9503C478.675 24.9503 477.6 23.8758 477.6 22.5503C477.6 21.2248 478.675 20.1503 480 20.1503C481.326 20.1503 482.4 21.2248 482.4 22.5503Z" fill="#C4C6D7"/>
<path d="M487.2 24.9503C488.526 24.9503 489.6 23.8758 489.6 22.5503C489.6 21.2248 488.526 20.1503 487.2 20.1503C485.875 20.1503 484.8 21.2248 484.8 22.5503C484.8 23.8758 485.875 24.9503 487.2 24.9503Z" fill="#C4C6D7"/>
<rect x="440" y="142.05" width="80" height="1" fill="#F2F2F8"/>
<rect width="80" height="79.1011" transform="translate(440 62.9998)" fill="white"/>
<path d="M475.2 102.55C475.2 103.876 474.126 104.95 472.8 104.95C471.475 104.95 470.4 103.876 470.4 102.55C470.4 101.225 471.475 100.15 472.8 100.15C474.126 100.15 475.2 101.225 475.2 102.55Z" fill="#C4C6D7"/>
<path d="M482.4 102.55C482.4 103.876 481.326 104.95 480 104.95C478.675 104.95 477.6 103.876 477.6 102.55C477.6 101.225 478.675 100.15 480 100.15C481.326 100.15 482.4 101.225 482.4 102.55Z" fill="#C4C6D7"/>
<path d="M487.2 104.95C488.526 104.95 489.6 103.876 489.6 102.55C489.6 101.225 488.526 100.15 487.2 100.15C485.875 100.15 484.8 101.225 484.8 102.55C484.8 103.876 485.875 104.95 487.2 104.95Z" fill="#C4C6D7"/>
<rect x="440" y="222.05" width="80" height="1" fill="#F2F2F8"/>
<rect width="80" height="79.1011" transform="translate(440 143)" fill="white"/>
<path d="M475.2 182.55C475.2 183.876 474.126 184.95 472.8 184.95C471.475 184.95 470.4 183.876 470.4 182.55C470.4 181.225 471.475 180.15 472.8 180.15C474.126 180.15 475.2 181.225 475.2 182.55Z" fill="#C4C6D7"/>
<path d="M482.4 182.55C482.4 183.876 481.326 184.95 480 184.95C478.675 184.95 477.6 183.876 477.6 182.55C477.6 181.225 478.675 180.15 480 180.15C481.326 180.15 482.4 181.225 482.4 182.55Z" fill="#C4C6D7"/>
<path d="M487.2 184.95C488.526 184.95 489.6 183.876 489.6 182.55C489.6 181.225 488.526 180.15 487.2 180.15C485.875 180.15 484.8 181.225 484.8 182.55C484.8 183.876 485.875 184.95 487.2 184.95Z" fill="#C4C6D7"/>
<path d="M440 223H520V287C520 295.836 512.837 303 504 303H440V223Z" fill="white"/>
<path d="M475.2 263C475.2 264.325 474.126 265.4 472.8 265.4C471.475 265.4 470.4 264.325 470.4 263C470.4 261.674 471.475 260.6 472.8 260.6C474.126 260.6 475.2 261.674 475.2 263Z" fill="#C4C6D7"/>
<path d="M482.4 263C482.4 264.325 481.326 265.4 480 265.4C478.675 265.4 477.6 264.325 477.6 263C477.6 261.674 478.675 260.6 480 260.6C481.326 260.6 482.4 261.674 482.4 263Z" fill="#C4C6D7"/>
<path d="M487.2 265.4C488.526 265.4 489.6 264.325 489.6 263C489.6 261.674 488.526 260.6 487.2 260.6C485.875 260.6 484.8 261.674 484.8 263C484.8 264.325 485.875 265.4 487.2 265.4Z" fill="#C4C6D7"/>
<rect x="-640.5" y="-151.5" width="1161" height="455" rx="16.5" stroke="#F2F2F8"/>
</g>
<path fill-rule="evenodd" clip-rule="evenodd" d="M65.2489 341.851C65.7175 342.32 65.7175 343.08 65.2489 343.548L61.2974 347.5L65.2489 351.451C65.7175 351.92 65.7175 352.68 65.2489 353.148C64.7803 353.617 64.0205 353.617 63.5519 353.148L58.7519 348.348C58.2832 347.88 58.2832 347.12 58.7519 346.651L63.5519 341.851C64.0205 341.383 64.7803 341.383 65.2489 341.851Z" fill="#C4C6D7"/>
<path d="M79.0043 353V342.818H82.8224C83.6046 342.818 84.2609 342.964 84.7912 343.255C85.3248 343.547 85.7275 343.948 85.9993 344.459C86.2744 344.966 86.4119 345.542 86.4119 346.189C86.4119 346.842 86.2744 347.422 85.9993 347.929C85.7242 348.436 85.3182 348.835 84.7812 349.127C84.2443 349.415 83.5831 349.559 82.7976 349.559H80.267V348.043H82.549C83.0064 348.043 83.3809 347.964 83.6726 347.804C83.9643 347.645 84.1797 347.427 84.3189 347.148C84.4614 346.87 84.5327 346.55 84.5327 346.189C84.5327 345.827 84.4614 345.509 84.3189 345.234C84.1797 344.959 83.9626 344.745 83.6676 344.593C83.3759 344.437 82.9998 344.359 82.5391 344.359H80.8487V353H79.0043ZM87.9345 353V345.363H89.6795V346.636H89.7591C89.8983 346.195 90.1369 345.856 90.475 345.617C90.8163 345.375 91.2058 345.254 91.6433 345.254C91.7427 345.254 91.8538 345.259 91.9764 345.269C92.1023 345.276 92.2067 345.287 92.2896 345.304V346.959C92.2134 346.933 92.0924 346.91 91.9267 346.89C91.7643 346.866 91.6068 346.855 91.4544 346.855C91.1262 346.855 90.8313 346.926 90.5694 347.069C90.3109 347.208 90.1071 347.402 89.9579 347.65C89.8088 347.899 89.7342 348.186 89.7342 348.51V353H87.9345ZM96.5515 353.149C95.7859 353.149 95.1246 352.99 94.5678 352.672C94.0143 352.35 93.5884 351.896 93.2901 351.309C92.9918 350.719 92.8427 350.025 92.8427 349.226C92.8427 348.441 92.9918 347.751 93.2901 347.158C93.5917 346.562 94.0127 346.098 94.5529 345.766C95.0932 345.431 95.7279 345.264 96.457 345.264C96.9277 345.264 97.3718 345.34 97.7894 345.493C98.2103 345.642 98.5816 345.874 98.9031 346.189C99.2279 346.504 99.4831 346.905 99.6687 347.392C99.8543 347.876 99.9471 348.452 99.9471 349.122V349.674H93.6879V348.461H98.2219C98.2186 348.116 98.1441 347.809 97.9982 347.541C97.8524 347.269 97.6486 347.055 97.3867 346.9C97.1282 346.744 96.8266 346.666 96.4819 346.666C96.114 346.666 95.7908 346.755 95.5124 346.934C95.234 347.11 95.0169 347.342 94.8612 347.63C94.7087 347.915 94.6308 348.229 94.6275 348.57V349.629C94.6275 350.073 94.7087 350.454 94.8711 350.772C95.0335 351.087 95.2605 351.329 95.5522 351.498C95.8439 351.664 96.1853 351.747 96.5763 351.747C96.8382 351.747 97.0752 351.71 97.2873 351.638C97.4994 351.561 97.6834 351.45 97.8391 351.304C97.9949 351.159 98.1126 350.978 98.1921 350.763L99.8725 350.951C99.7665 351.396 99.5643 351.783 99.266 352.115C98.971 352.443 98.5932 352.698 98.1325 352.88C97.6718 353.059 97.1448 353.149 96.5515 353.149ZM108.072 345.363L105.352 353H103.364L100.644 345.363H102.563L104.318 351.036H104.398L106.158 345.363H108.072Z" fill="#C4C6D7"/>
<rect x="129" y="331" width="33" height="33" rx="4" fill="#F2F2F8"/>
<path d="M147.046 342.818V353H145.202V344.613H145.142L142.761 346.134V344.444L145.291 342.818H147.046Z" fill="#4F5769"/>
<path d="M183.905 353V351.667L187.44 348.202C187.778 347.861 188.059 347.558 188.285 347.292C188.51 347.027 188.679 346.77 188.792 346.522C188.905 346.273 188.961 346.008 188.961 345.726C188.961 345.405 188.888 345.13 188.742 344.901C188.596 344.669 188.396 344.49 188.141 344.364C187.885 344.238 187.595 344.175 187.271 344.175C186.936 344.175 186.643 344.245 186.391 344.384C186.139 344.52 185.943 344.714 185.804 344.966C185.668 345.218 185.6 345.518 185.6 345.866H183.845C183.845 345.219 183.993 344.657 184.288 344.18C184.583 343.703 184.989 343.333 185.506 343.071C186.026 342.81 186.623 342.679 187.295 342.679C187.978 342.679 188.578 342.806 189.095 343.062C189.612 343.317 190.013 343.666 190.298 344.111C190.587 344.555 190.731 345.062 190.731 345.632C190.731 346.013 190.658 346.388 190.512 346.755C190.366 347.123 190.109 347.531 189.741 347.978C189.377 348.426 188.865 348.968 188.205 349.604L186.45 351.389V351.459H190.885V353H183.905Z" fill="#4F5769"/>
<path d="M230.559 353.139C229.843 353.139 229.207 353.016 228.65 352.771C228.096 352.526 227.659 352.184 227.337 351.747C227.016 351.309 226.845 350.804 226.825 350.231H228.695C228.711 350.506 228.802 350.746 228.968 350.951C229.134 351.154 229.354 351.311 229.629 351.424C229.904 351.536 230.213 351.593 230.554 351.593C230.919 351.593 231.242 351.53 231.523 351.404C231.805 351.275 232.026 351.096 232.185 350.867C232.344 350.638 232.422 350.375 232.418 350.076C232.422 349.768 232.342 349.496 232.18 349.261C232.017 349.026 231.782 348.842 231.474 348.709C231.169 348.577 230.801 348.51 230.37 348.51H229.47V347.089H230.37C230.725 347.089 231.035 347.027 231.3 346.905C231.568 346.782 231.779 346.61 231.931 346.388C232.084 346.162 232.158 345.902 232.155 345.607C232.158 345.319 232.094 345.068 231.961 344.856C231.832 344.641 231.648 344.473 231.409 344.354C231.174 344.235 230.897 344.175 230.579 344.175C230.267 344.175 229.979 344.232 229.714 344.344C229.449 344.457 229.235 344.618 229.072 344.826C228.91 345.032 228.824 345.277 228.814 345.562H227.039C227.052 344.992 227.216 344.492 227.531 344.061C227.849 343.627 228.274 343.289 228.804 343.047C229.334 342.801 229.929 342.679 230.589 342.679C231.268 342.679 231.858 342.806 232.359 343.062C232.862 343.313 233.252 343.653 233.527 344.081C233.802 344.508 233.94 344.981 233.94 345.498C233.943 346.071 233.774 346.552 233.433 346.939C233.094 347.327 232.65 347.581 232.1 347.7V347.78C232.816 347.879 233.365 348.144 233.746 348.575C234.13 349.003 234.321 349.535 234.317 350.171C234.317 350.741 234.155 351.251 233.83 351.702C233.509 352.15 233.065 352.501 232.498 352.756C231.934 353.011 231.288 353.139 230.559 353.139Z" fill="#4F5769"/>
<path d="M270.721 351.111V349.644L275.041 342.818H276.264V344.906H275.518L272.61 349.515V349.594H278.641V351.111H270.721ZM275.578 353V350.663L275.598 350.007V342.818H277.338V353H275.578Z" fill="#4F5769"/>
<path d="M318.445 353.139C317.782 353.139 317.188 353.015 316.665 352.766C316.141 352.514 315.725 352.17 315.417 351.732C315.112 351.295 314.95 350.794 314.93 350.231H316.719C316.753 350.648 316.933 350.99 317.261 351.255C317.589 351.517 317.984 351.647 318.445 351.647C318.806 351.647 319.127 351.565 319.409 351.399C319.691 351.233 319.913 351.003 320.075 350.708C320.238 350.413 320.317 350.076 320.314 349.699C320.317 349.314 320.236 348.973 320.07 348.674C319.905 348.376 319.678 348.143 319.389 347.973C319.101 347.801 318.769 347.715 318.395 347.715C318.09 347.712 317.79 347.768 317.495 347.884C317.2 348 316.966 348.152 316.794 348.341L315.129 348.068L315.661 342.818H321.567V344.359H317.187L316.893 347.059H316.953C317.142 346.837 317.409 346.653 317.754 346.507C318.098 346.358 318.476 346.283 318.887 346.283C319.504 346.283 320.054 346.429 320.538 346.721C321.022 347.009 321.403 347.407 321.681 347.914C321.96 348.421 322.099 349.001 322.099 349.654C322.099 350.327 321.943 350.927 321.631 351.454C321.323 351.977 320.894 352.39 320.344 352.692C319.797 352.99 319.164 353.139 318.445 353.139Z" fill="#4F5769"/>
<path d="M359.033 353.109C358.732 353.109 358.473 353.003 358.258 352.791C358.042 352.579 357.936 352.32 357.94 352.015C357.936 351.717 358.042 351.462 358.258 351.25C358.473 351.038 358.732 350.932 359.033 350.932C359.325 350.932 359.579 351.038 359.794 351.25C360.013 351.462 360.124 351.717 360.127 352.015C360.124 352.218 360.071 352.402 359.968 352.567C359.869 352.733 359.736 352.866 359.57 352.965C359.408 353.061 359.229 353.109 359.033 353.109ZM363.094 353.109C362.792 353.109 362.534 353.003 362.318 352.791C362.103 352.579 361.997 352.32 362 352.015C361.997 351.717 362.103 351.462 362.318 351.25C362.534 351.038 362.792 350.932 363.094 350.932C363.386 350.932 363.639 351.038 363.855 351.25C364.073 351.462 364.184 351.717 364.188 352.015C364.184 352.218 364.131 352.402 364.029 352.567C363.929 352.733 363.797 352.866 363.631 352.965C363.468 353.061 363.289 353.109 363.094 353.109ZM367.154 353.109C366.853 353.109 366.594 353.003 366.379 352.791C366.163 352.579 366.057 352.32 366.061 352.015C366.057 351.717 366.163 351.462 366.379 351.25C366.594 351.038 366.853 350.932 367.154 350.932C367.446 350.932 367.7 351.038 367.915 351.25C368.134 351.462 368.245 351.717 368.248 352.015C368.245 352.218 368.192 352.402 368.089 352.567C367.99 352.733 367.857 352.866 367.691 352.965C367.529 353.061 367.35 353.109 367.154 353.109Z" fill="#4F5769"/>
<path d="M409.046 342.818V353H407.202V344.613H407.142L404.761 346.134V344.444L407.291 342.818H409.046ZM415.36 353.139C414.873 353.136 414.397 353.051 413.933 352.885C413.469 352.716 413.052 352.443 412.68 352.065C412.309 351.684 412.014 351.178 411.795 350.549C411.577 349.916 411.469 349.132 411.472 348.197C411.472 347.326 411.565 346.548 411.751 345.866C411.936 345.183 412.203 344.606 412.551 344.135C412.899 343.661 413.318 343.3 413.809 343.052C414.303 342.803 414.855 342.679 415.464 342.679C416.104 342.679 416.671 342.805 417.165 343.057C417.662 343.308 418.063 343.653 418.368 344.091C418.673 344.525 418.862 345.015 418.935 345.562H417.12C417.027 345.171 416.837 344.86 416.548 344.628C416.263 344.392 415.902 344.275 415.464 344.275C414.759 344.275 414.215 344.581 413.834 345.194C413.456 345.808 413.265 346.649 413.262 347.72H413.332C413.494 347.428 413.705 347.178 413.963 346.969C414.222 346.76 414.513 346.6 414.838 346.487C415.166 346.371 415.513 346.313 415.877 346.313C416.474 346.313 417.009 346.455 417.483 346.741C417.96 347.026 418.338 347.418 418.616 347.919C418.895 348.416 419.032 348.986 419.029 349.629C419.032 350.299 418.88 350.9 418.572 351.434C418.263 351.964 417.834 352.382 417.284 352.687C416.734 352.991 416.093 353.142 415.36 353.139ZM415.35 351.647C415.711 351.647 416.035 351.56 416.32 351.384C416.605 351.208 416.83 350.971 416.996 350.673C417.161 350.375 417.243 350.04 417.239 349.669C417.243 349.304 417.163 348.974 417.001 348.679C416.842 348.384 416.621 348.151 416.339 347.978C416.058 347.806 415.736 347.72 415.375 347.72C415.107 347.72 414.856 347.771 414.624 347.874C414.392 347.977 414.19 348.119 414.018 348.302C413.845 348.481 413.71 348.689 413.61 348.928C413.514 349.163 413.464 349.415 413.461 349.684C413.464 350.038 413.547 350.365 413.71 350.663C413.872 350.961 414.096 351.2 414.381 351.379C414.666 351.558 414.989 351.647 415.35 351.647Z" fill="#4F5769"/>
<path d="M462.371 342.818V353H460.731L455.933 346.064H455.849V353H454.004V342.818H455.655L460.447 349.758H460.537V342.818H462.371ZM467.682 353.149C466.917 353.149 466.256 352.99 465.699 352.672C465.145 352.35 464.719 351.896 464.421 351.309C464.123 350.719 463.974 350.025 463.974 349.226C463.974 348.441 464.123 347.751 464.421 347.158C464.723 346.562 465.144 346.098 465.684 345.766C466.224 345.431 466.859 345.264 467.588 345.264C468.059 345.264 468.503 345.34 468.92 345.493C469.341 345.642 469.712 345.874 470.034 346.189C470.359 346.504 470.614 346.905 470.8 347.392C470.985 347.876 471.078 348.452 471.078 349.122V349.674H464.819V348.461H469.353C469.349 348.116 469.275 347.809 469.129 347.541C468.983 347.269 468.779 347.055 468.518 346.9C468.259 346.744 467.957 346.666 467.613 346.666C467.245 346.666 466.922 346.755 466.643 346.934C466.365 347.11 466.148 347.342 465.992 347.63C465.84 347.915 465.762 348.229 465.758 348.57V349.629C465.758 350.073 465.84 350.454 466.002 350.772C466.164 351.087 466.391 351.329 466.683 351.498C466.975 351.664 467.316 351.747 467.707 351.747C467.969 351.747 468.206 351.71 468.418 351.638C468.63 351.561 468.814 351.45 468.97 351.304C469.126 351.159 469.243 350.978 469.323 350.763L471.003 350.951C470.897 351.396 470.695 351.783 470.397 352.115C470.102 352.443 469.724 352.698 469.263 352.88C468.803 353.059 468.276 353.149 467.682 353.149ZM473.908 345.363L475.449 348.182L477.015 345.363H478.919L476.618 349.182L478.959 353H477.065L475.449 350.25L473.848 353H471.939L474.266 349.182L471.999 345.363H473.908ZM484.125 345.363V346.755H479.735V345.363H484.125ZM480.819 343.534H482.618V350.703C482.618 350.945 482.655 351.13 482.728 351.26C482.804 351.386 482.903 351.472 483.026 351.518C483.149 351.565 483.284 351.588 483.434 351.588C483.546 351.588 483.649 351.58 483.742 351.563C483.838 351.546 483.911 351.531 483.961 351.518L484.264 352.925C484.168 352.958 484.03 352.995 483.851 353.035C483.676 353.074 483.46 353.098 483.205 353.104C482.754 353.117 482.348 353.049 481.987 352.9C481.626 352.748 481.339 352.513 481.127 352.194C480.918 351.876 480.815 351.478 480.819 351.001V343.534Z" fill="#4F5769"/>
</g>
</g>
<rect x="0.5" y="0.5" width="481" height="393.5" rx="16.5" stroke="#F2F2F8"/>
<defs>
<filter id="filter0_b_1231_80891" x="60" y="251" width="342" height="106" filterUnits="userSpaceOnUse" color-interpolation-filters="sRGB">
<feFlood flood-opacity="0" result="BackgroundImageFix"/>
<feGaussianBlur in="BackgroundImageFix" stdDeviation="4"/>
<feComposite in2="SourceAlpha" operator="in" result="effect1_backgroundBlur_1231_80891"/>
<feBlend mode="normal" in="SourceGraphic" in2="effect1_backgroundBlur_1231_80891" result="shape"/>
</filter>
<filter id="filter1_b_1231_80891" x="60" y="60" width="342" height="94" filterUnits="userSpaceOnUse" color-interpolation-filters="sRGB">
<feFlood flood-opacity="0" result="BackgroundImageFix"/>
<feGaussianBlur in="BackgroundImageFix" stdDeviation="4"/>
<feComposite in2="SourceAlpha" operator="in" result="effect1_backgroundBlur_1231_80891"/>
<feBlend mode="normal" in="SourceGraphic" in2="effect1_backgroundBlur_1231_80891" result="shape"/>
</filter>
<filter id="filter2_d_1231_80891" x="-673" y="-168" width="1226" height="520" filterUnits="userSpaceOnUse" color-interpolation-filters="sRGB">
<feFlood flood-opacity="0" result="BackgroundImageFix"/>
<feColorMatrix in="SourceAlpha" type="matrix" values="0 0 0 0 0 0 0 0 0 0 0 0 0 0 0 0 0 0 127 0" result="hardAlpha"/>
<feOffset dy="16"/>
<feGaussianBlur stdDeviation="16"/>
<feColorMatrix type="matrix" values="0 0 0 0 0.215686 0 0 0 0 0.231373 0 0 0 0 0.301961 0 0 0 0.02 0"/>
<feBlend mode="normal" in2="BackgroundImageFix" result="effect1_dropShadow_1231_80891"/>
<feBlend mode="normal" in="SourceGraphic" in2="effect1_dropShadow_1231_80891" result="shape"/>
</filter>
<clipPath id="clip0_1231_80891">
<rect x="1" y="1" width="480" height="392.5" rx="16" fill="white"/>
</clipPath>
<clipPath id="clip1_1231_80891">
<rect width="1725" height="1111" fill="white" transform="translate(-1023 -520)"/>
</clipPath>
</defs>
</svg>
