<svg width="490" height="395" viewBox="0 0 490 395" fill="none" xmlns="http://www.w3.org/2000/svg">
<g clip-path="url(#clip0_1971_85386)">
<rect x="1" y="1.00049" width="392.5" height="392.5" rx="16" fill="#D9D9D9"/>
<g clip-path="url(#clip1_1971_85386)">
<rect width="1728" height="1719" transform="translate(-1238 -153)" fill="#FCFCFF"/>
<rect x="-1038" y="-153" width="1528" height="250" fill="white"/>
<rect x="-1037.5" y="-152.5" width="1527" height="249" stroke="#E8E9F0" stroke-opacity="0.5"/>
<rect x="-851" y="26.0005" width="1157" height="22" fill="url(#paint0_linear_1971_85386)"/>
<g filter="url(#filter0_d_1971_85386)">
<g filter="url(#filter1_d_1971_85386)">
<rect x="-262" y="64.0005" width="572" height="340" rx="16" fill="white"/>
<rect x="-262" y="64.0005" width="572" height="340" rx="16" stroke="#F2F2F8"/>
</g>
<line x1="-184" y1="192.248" x2="279" y2="192.248" stroke="#E8E9F0" stroke-width="0.5"/>
<line x1="-184" y1="227.517" x2="279" y2="227.517" stroke="#E8E9F0" stroke-width="0.5"/>
<line x1="-184" y1="263.715" x2="279" y2="263.715" stroke="#E8E9F0" stroke-width="0.5"/>
<line x1="-184" y1="298.984" x2="279" y2="298.984" stroke="#E8E9F0" stroke-width="0.5"/>
<line x1="-184" y1="334.254" x2="279" y2="334.254" stroke="#E8E9F0" stroke-width="0.5"/>
<g filter="url(#filter2_d_1971_85386)">
<path d="M-183.5 335C-178.5 328.5 -171.5 325.5 -161.741 294.885C-157.264 280.842 -145.113 231.103 -127.079 227.565C-93.9321 221.062 -77.8459 263.518 -51.0356 263.518C-29.0999 263.518 -20.1422 253.241 -2.68045 237.025C14.7812 220.81 25.5758 231.129 31.2905 234.077C37.0052 237.025 64.9439 261.348 83.6756 214.545C98.6609 177.103 125.36 190.959 137.648 201.278C150.624 210.123 182.317 273.133 203.906 262.519C225.495 251.906 264.839 237.025 278 275.502" stroke="#F02E65"/>
</g>
</g>
<path d="M243.136 358.273V367H242.079V359.381H242.028L239.897 360.796V359.722L242.079 358.273H243.136ZM248.543 367.12C248.185 367.114 247.827 367.046 247.469 366.915C247.112 366.785 246.785 366.564 246.489 366.255C246.194 365.942 245.957 365.52 245.778 364.989C245.599 364.455 245.509 363.785 245.509 362.978C245.509 362.205 245.582 361.52 245.727 360.924C245.871 360.324 246.082 359.82 246.357 359.411C246.633 358.999 246.965 358.687 247.354 358.473C247.746 358.26 248.188 358.154 248.68 358.154C249.168 358.154 249.603 358.252 249.984 358.448C250.367 358.641 250.68 358.911 250.921 359.258C251.163 359.604 251.319 360.003 251.39 360.455H250.35C250.254 360.063 250.066 359.738 249.788 359.479C249.509 359.221 249.14 359.091 248.68 359.091C248.004 359.091 247.471 359.385 247.082 359.973C246.695 360.562 246.501 361.387 246.498 362.449H246.566C246.725 362.208 246.914 362.002 247.133 361.831C247.354 361.658 247.599 361.525 247.866 361.431C248.133 361.337 248.415 361.29 248.714 361.29C249.214 361.29 249.671 361.415 250.086 361.665C250.501 361.912 250.833 362.255 251.083 362.692C251.333 363.127 251.458 363.625 251.458 364.188C251.458 364.728 251.337 365.222 251.096 365.671C250.854 366.117 250.515 366.472 250.077 366.736C249.643 366.998 249.131 367.125 248.543 367.12ZM248.543 366.182C248.901 366.182 249.222 366.093 249.506 365.914C249.793 365.735 250.019 365.495 250.184 365.194C250.352 364.893 250.435 364.557 250.435 364.188C250.435 363.827 250.354 363.499 250.192 363.204C250.033 362.905 249.813 362.668 249.532 362.492C249.254 362.316 248.935 362.228 248.577 362.228C248.308 362.228 248.056 362.282 247.823 362.39C247.59 362.495 247.386 362.64 247.21 362.824C247.036 363.009 246.9 363.221 246.8 363.459C246.701 363.695 246.651 363.944 246.651 364.205C246.651 364.552 246.732 364.875 246.894 365.177C247.059 365.478 247.283 365.721 247.567 365.905C247.854 366.09 248.18 366.182 248.543 366.182ZM257.02 367H255.912L259.117 358.273H260.208L263.412 367H262.304L259.696 359.654H259.628L257.02 367ZM257.429 363.591H261.895V364.529H257.429V363.591ZM268.76 364.324V360.455H269.766V367H268.76V365.893H268.692C268.539 366.225 268.3 366.508 267.976 366.741C267.652 366.971 267.243 367.086 266.749 367.086C266.34 367.086 265.976 366.996 265.658 366.817C265.34 366.635 265.09 366.363 264.908 365.999C264.726 365.633 264.635 365.171 264.635 364.614V360.455H265.641V364.546C265.641 365.023 265.775 365.404 266.042 365.688C266.311 365.972 266.655 366.114 267.073 366.114C267.323 366.114 267.577 366.05 267.836 365.922C268.097 365.795 268.316 365.598 268.492 365.334C268.671 365.07 268.76 364.733 268.76 364.324ZM274.25 369.591C273.764 369.591 273.347 369.529 272.997 369.404C272.648 369.282 272.357 369.12 272.124 368.918C271.893 368.719 271.71 368.506 271.574 368.279L272.375 367.716C272.466 367.836 272.581 367.972 272.72 368.125C272.859 368.282 273.05 368.417 273.291 368.53C273.536 368.647 273.855 368.705 274.25 368.705C274.778 368.705 275.214 368.577 275.558 368.322C275.902 368.066 276.074 367.665 276.074 367.12V365.79H275.989C275.915 365.91 275.81 366.057 275.673 366.233C275.54 366.407 275.347 366.562 275.094 366.698C274.844 366.831 274.506 366.898 274.08 366.898C273.551 366.898 273.077 366.773 272.656 366.523C272.239 366.273 271.908 365.91 271.663 365.432C271.422 364.955 271.301 364.375 271.301 363.694C271.301 363.023 271.419 362.439 271.655 361.942C271.891 361.442 272.219 361.056 272.639 360.783C273.06 360.508 273.545 360.37 274.097 360.37C274.523 360.37 274.861 360.441 275.111 360.583C275.364 360.722 275.557 360.881 275.69 361.06C275.827 361.236 275.932 361.381 276.006 361.495H276.108V360.455H277.08V367.188C277.08 367.75 276.952 368.208 276.696 368.56C276.443 368.915 276.102 369.175 275.673 369.34C275.247 369.508 274.773 369.591 274.25 369.591ZM274.216 365.995C274.619 365.995 274.96 365.902 275.239 365.718C275.517 365.533 275.729 365.268 275.874 364.921C276.018 364.574 276.091 364.16 276.091 363.677C276.091 363.205 276.02 362.789 275.878 362.428C275.736 362.067 275.526 361.785 275.247 361.58C274.969 361.375 274.625 361.273 274.216 361.273C273.79 361.273 273.435 361.381 273.151 361.597C272.869 361.813 272.658 362.103 272.516 362.466C272.376 362.83 272.307 363.233 272.307 363.677C272.307 364.131 272.378 364.533 272.52 364.883C272.665 365.229 272.878 365.502 273.159 365.701C273.443 365.897 273.795 365.995 274.216 365.995Z" fill="#868EA3"/>
<path d="M239.815 117.64C239.158 117.64 238.573 117.527 238.06 117.302C237.549 117.076 237.143 116.763 236.842 116.362C236.543 115.958 236.381 115.489 236.354 114.955H237.607C237.634 115.283 237.746 115.567 237.945 115.805C238.144 116.04 238.404 116.223 238.726 116.352C239.047 116.481 239.404 116.546 239.795 116.546C240.232 116.546 240.62 116.47 240.958 116.317C241.296 116.165 241.561 115.953 241.754 115.681C241.946 115.409 242.042 115.094 242.042 114.736C242.042 114.362 241.949 114.032 241.763 113.747C241.578 113.459 241.306 113.233 240.948 113.071C240.59 112.908 240.153 112.827 239.636 112.827H238.82V111.733H239.636C240.04 111.733 240.395 111.661 240.7 111.515C241.008 111.369 241.248 111.163 241.42 110.898C241.596 110.633 241.684 110.322 241.684 109.964C241.684 109.619 241.608 109.319 241.455 109.064C241.303 108.808 241.087 108.61 240.809 108.467C240.534 108.325 240.209 108.253 239.835 108.253C239.483 108.253 239.152 108.318 238.84 108.447C238.532 108.573 238.28 108.757 238.085 108.999C237.889 109.238 237.783 109.526 237.766 109.864H236.573C236.593 109.331 236.754 108.863 237.055 108.462C237.357 108.058 237.751 107.743 238.239 107.518C238.729 107.292 239.268 107.179 239.854 107.179C240.484 107.179 241.024 107.307 241.475 107.562C241.926 107.814 242.272 108.147 242.514 108.562C242.756 108.976 242.877 109.423 242.877 109.904C242.877 110.477 242.726 110.966 242.425 111.371C242.126 111.775 241.72 112.055 241.207 112.211V112.29C241.85 112.396 242.352 112.67 242.713 113.111C243.074 113.548 243.255 114.09 243.255 114.736C243.255 115.29 243.104 115.787 242.803 116.228C242.504 116.665 242.097 117.01 241.58 117.262C241.063 117.514 240.474 117.64 239.815 117.64ZM248.609 117.64C247.86 117.64 247.222 117.436 246.695 117.028C246.168 116.617 245.766 116.022 245.487 115.243C245.209 114.461 245.07 113.517 245.07 112.41C245.07 111.309 245.209 110.37 245.487 109.591C245.769 108.808 246.173 108.212 246.7 107.801C247.231 107.387 247.867 107.179 248.609 107.179C249.352 107.179 249.987 107.387 250.513 107.801C251.044 108.212 251.448 108.808 251.727 109.591C252.008 110.37 252.149 111.309 252.149 112.41C252.149 113.517 252.01 114.461 251.732 115.243C251.453 116.022 251.05 116.617 250.523 117.028C249.996 117.436 249.358 117.64 248.609 117.64ZM248.609 116.546C249.352 116.546 249.929 116.188 250.339 115.472C250.75 114.756 250.956 113.735 250.956 112.41C250.956 111.528 250.862 110.777 250.673 110.157C250.487 109.538 250.219 109.065 249.867 108.741C249.519 108.416 249.1 108.253 248.609 108.253C247.874 108.253 247.299 108.616 246.884 109.342C246.47 110.065 246.263 111.087 246.263 112.41C246.263 113.291 246.356 114.04 246.541 114.657C246.727 115.273 246.994 115.742 247.342 116.064C247.693 116.385 248.116 116.546 248.609 116.546ZM256.942 117.66C256.305 117.66 255.744 117.499 255.256 117.177C254.769 116.853 254.388 116.395 254.113 115.805C253.838 115.212 253.7 114.511 253.7 113.702C253.7 112.9 253.838 112.204 254.113 111.614C254.388 111.024 254.771 110.568 255.261 110.247C255.752 109.925 256.319 109.765 256.962 109.765C257.459 109.765 257.852 109.848 258.14 110.013C258.432 110.176 258.654 110.361 258.806 110.57C258.962 110.776 259.083 110.945 259.169 111.077H259.268V107.319H260.442V117.5H259.308V116.327H259.169C259.083 116.466 258.96 116.642 258.801 116.854C258.642 117.063 258.415 117.25 258.12 117.416C257.825 117.578 257.432 117.66 256.942 117.66ZM257.101 116.606C257.571 116.606 257.969 116.483 258.294 116.238C258.619 115.989 258.866 115.646 259.035 115.209C259.204 114.768 259.288 114.259 259.288 113.682C259.288 113.112 259.205 112.613 259.04 112.186C258.874 111.755 258.629 111.42 258.304 111.182C257.979 110.94 257.578 110.819 257.101 110.819C256.604 110.819 256.189 110.946 255.858 111.201C255.53 111.453 255.283 111.796 255.117 112.231C254.955 112.661 254.874 113.145 254.874 113.682C254.874 114.226 254.956 114.72 255.122 115.164C255.291 115.605 255.54 115.956 255.868 116.218C256.199 116.476 256.61 116.606 257.101 116.606Z" fill="#868EA3"/>
<path fill-rule="evenodd" clip-rule="evenodd" d="M270.234 109.835C270.547 109.522 271.053 109.522 271.366 109.835L274 112.469L276.634 109.835C276.947 109.522 277.453 109.522 277.766 109.835C278.078 110.147 278.078 110.654 277.766 110.966L274.566 114.166C274.253 114.479 273.747 114.479 273.434 114.166L270.234 110.966C269.922 110.654 269.922 110.147 270.234 109.835Z" fill="#868EA3"/>
<rect x="-1237.5" y="-152.5" width="1727" height="63" fill="white"/>
<g filter="url(#filter3_d_1971_85386)">
<mask id="path-19-inside-1_1971_85386" fill="white">
<path d="M250 -88.9995H490V299C490 303.419 486.418 307 482 307H258C253.582 307 250 303.419 250 299V-88.9995Z"/>
</mask>
<path d="M250 -88.9995H490V299C490 303.419 486.418 307 482 307H258C253.582 307 250 303.419 250 299V-88.9995Z" fill="white"/>
<g filter="url(#filter4_d_1971_85386)">
<line x1="250" y1="23.5005" x2="490" y2="23.5005" stroke="#F2F2F8"/>
<path d="M287.307 55.3187V65.5005H286.114L280.565 57.5062H280.466V65.5005H279.233V55.3187H280.426L285.994 63.3329H286.094V55.3187H287.307ZM292.817 65.6596C292.081 65.6596 291.446 65.4972 290.912 65.1724C290.382 64.8442 289.973 64.3869 289.684 63.8002C289.399 63.2102 289.257 62.5242 289.257 61.742C289.257 60.9598 289.399 60.2704 289.684 59.6738C289.973 59.0739 290.374 58.6065 290.888 58.2718C291.405 57.9337 292.008 57.7647 292.697 57.7647C293.095 57.7647 293.488 57.831 293.876 57.9636C294.263 58.0961 294.616 58.3116 294.934 58.6099C295.253 58.9048 295.506 59.2959 295.695 59.7832C295.884 60.2704 295.979 60.8703 295.979 61.5829V62.08H290.092V61.0658H294.785C294.785 60.635 294.699 60.2505 294.527 59.9124C294.358 59.5744 294.116 59.3075 293.801 59.112C293.489 58.9164 293.122 58.8187 292.697 58.8187C292.23 58.8187 291.826 58.9347 291.484 59.1667C291.146 59.3954 290.886 59.6937 290.704 60.0616C290.521 60.4295 290.43 60.8239 290.43 61.2448V61.9209C290.43 62.4976 290.53 62.9865 290.729 63.3876C290.931 63.7853 291.211 64.0886 291.569 64.2974C291.927 64.5029 292.343 64.6056 292.817 64.6056C293.125 64.6056 293.403 64.5625 293.652 64.4763C293.904 64.3869 294.121 64.2543 294.303 64.0786C294.485 63.8996 294.626 63.6776 294.726 63.4124L295.859 63.7306C295.74 64.1151 295.539 64.4531 295.258 64.7448C294.976 65.0332 294.628 65.2585 294.214 65.4209C293.799 65.58 293.334 65.6596 292.817 65.6596ZM299.493 65.5005L297.167 57.8641H298.4L300.05 63.7107H300.13L301.76 57.8641H303.013L304.624 63.6908H304.704L306.354 57.8641H307.587L305.26 65.5005H304.107L302.437 59.634H302.317L300.647 65.5005H299.493ZM316.178 65.6596C315.489 65.6596 314.884 65.4955 314.363 65.1674C313.846 64.8393 313.442 64.3802 313.15 63.7903C312.862 63.2003 312.718 62.5109 312.718 61.7221C312.718 60.9266 312.862 60.2323 313.15 59.639C313.442 59.0457 313.846 58.585 314.363 58.2569C314.884 57.9288 315.489 57.7647 316.178 57.7647C316.867 57.7647 317.471 57.9288 317.988 58.2569C318.508 58.585 318.912 59.0457 319.201 59.639C319.492 60.2323 319.638 60.9266 319.638 61.7221C319.638 62.5109 319.492 63.2003 319.201 63.7903C318.912 64.3802 318.508 64.8393 317.988 65.1674C317.471 65.4955 316.867 65.6596 316.178 65.6596ZM316.178 64.6056C316.702 64.6056 317.133 64.4714 317.471 64.2029C317.809 63.9344 318.059 63.5815 318.221 63.144C318.384 62.7065 318.465 62.2325 318.465 61.7221C318.465 61.2117 318.384 60.736 318.221 60.2952C318.059 59.8544 317.809 59.4981 317.471 59.2263C317.133 58.9546 316.702 58.8187 316.178 58.8187C315.654 58.8187 315.224 58.9546 314.885 59.2263C314.547 59.4981 314.297 59.8544 314.135 60.2952C313.972 60.736 313.891 61.2117 313.891 61.7221C313.891 62.2325 313.972 62.7065 314.135 63.144C314.297 63.5815 314.547 63.9344 314.885 64.2029C315.224 64.4714 315.654 64.6056 316.178 64.6056ZM321.429 65.5005V57.8641H322.563V59.0175H322.642C322.782 58.6397 323.033 58.3331 323.398 58.0978C323.763 57.8625 324.174 57.7448 324.631 57.7448C324.717 57.7448 324.825 57.7465 324.954 57.7498C325.083 57.7531 325.181 57.7581 325.248 57.7647V58.9579C325.208 58.9479 325.117 58.933 324.974 58.9131C324.835 58.8899 324.687 58.8783 324.532 58.8783C324.16 58.8783 323.829 58.9562 323.537 59.112C323.249 59.2645 323.02 59.4766 322.851 59.7484C322.685 60.0168 322.603 60.3234 322.603 60.6681V65.5005H321.429ZM329.488 68.5232C328.922 68.5232 328.434 68.4503 328.027 68.3045C327.619 68.1619 327.279 67.973 327.007 67.7377C326.739 67.5057 326.525 67.2571 326.366 66.992L327.301 66.3357C327.407 66.4749 327.541 66.634 327.703 66.813C327.866 66.9953 328.088 67.1527 328.37 67.2853C328.655 67.4212 329.028 67.4891 329.488 67.4891C330.105 67.4891 330.614 67.34 331.015 67.0417C331.416 66.7434 331.616 66.2761 331.616 65.6397V64.0886H331.517C331.431 64.2278 331.308 64.4001 331.149 64.6056C330.993 64.8078 330.768 64.9884 330.473 65.1475C330.181 65.3033 329.787 65.3812 329.289 65.3812C328.673 65.3812 328.119 65.2353 327.629 64.9437C327.142 64.652 326.756 64.2278 326.471 63.6709C326.189 63.1141 326.048 62.438 326.048 61.6425C326.048 60.8603 326.185 60.1792 326.461 59.5992C326.736 59.0159 327.118 58.5651 327.609 58.2469C328.1 57.9254 328.666 57.7647 329.309 57.7647C329.806 57.7647 330.201 57.8476 330.493 58.0133C330.788 58.1757 331.013 58.3613 331.169 58.5701C331.328 58.7756 331.45 58.9446 331.537 59.0772H331.656V57.8641H332.789V65.7192C332.789 66.3755 332.64 66.9091 332.342 67.3201C332.047 67.7344 331.649 68.0377 331.149 68.2299C330.652 68.4254 330.098 68.5232 329.488 68.5232ZM329.449 64.3272C329.919 64.3272 330.317 64.2195 330.642 64.004C330.967 63.7886 331.213 63.4787 331.382 63.0744C331.551 62.67 331.636 62.1861 331.636 61.6226C331.636 61.0725 331.553 60.5869 331.387 60.166C331.222 59.745 330.976 59.4153 330.652 59.1766C330.327 58.938 329.926 58.8187 329.449 58.8187C328.951 58.8187 328.537 58.9446 328.206 59.1965C327.877 59.4484 327.631 59.7865 327.465 60.2107C327.302 60.635 327.221 61.1056 327.221 61.6226C327.221 62.153 327.304 62.6219 327.47 63.0296C327.639 63.434 327.887 63.7521 328.216 63.9842C328.547 64.2128 328.958 64.3272 329.449 64.3272ZM337.184 65.6795C336.7 65.6795 336.261 65.5883 335.867 65.406C335.472 65.2204 335.159 64.9536 334.927 64.6056C334.695 64.2543 334.579 63.83 334.579 63.3329C334.579 62.8954 334.665 62.5407 334.838 62.269C335.01 61.9939 335.24 61.7784 335.529 61.6226C335.817 61.4669 336.135 61.3509 336.483 61.2746C336.835 61.1951 337.188 61.1321 337.542 61.0857C338.006 61.0261 338.382 60.9813 338.671 60.9515C338.962 60.9183 339.175 60.8637 339.307 60.7874C339.443 60.7112 339.511 60.5786 339.511 60.3897V60.3499C339.511 59.8594 339.377 59.4782 339.108 59.2065C338.843 58.9347 338.44 58.7988 337.9 58.7988C337.34 58.7988 336.901 58.9214 336.583 59.1667C336.265 59.4119 336.041 59.6738 335.912 59.9522L334.798 59.5545C334.997 59.0905 335.262 58.7292 335.593 58.4707C335.928 58.2088 336.293 58.0265 336.687 57.9238C337.085 57.8177 337.476 57.7647 337.86 57.7647C338.106 57.7647 338.387 57.7945 338.706 57.8542C339.027 57.9105 339.337 58.0282 339.635 58.2072C339.937 58.3861 340.187 58.6563 340.386 59.0175C340.585 59.3788 340.684 59.8627 340.684 60.4692V65.5005H339.511V64.4664H339.451C339.372 64.6321 339.239 64.8094 339.054 64.9984C338.868 65.1873 338.621 65.348 338.313 65.4806C338.005 65.6132 337.628 65.6795 337.184 65.6795ZM337.363 64.6255C337.827 64.6255 338.218 64.5343 338.537 64.3521C338.858 64.1698 339.1 63.9344 339.262 63.6461C339.428 63.3577 339.511 63.0545 339.511 62.7363V61.6624C339.461 61.7221 339.352 61.7768 339.183 61.8265C339.017 61.8729 338.825 61.9143 338.606 61.9508C338.391 61.9839 338.18 62.0137 337.975 62.0403C337.773 62.0635 337.609 62.0833 337.483 62.0999C337.178 62.1397 336.893 62.2043 336.627 62.2938C336.366 62.38 336.154 62.5109 335.991 62.6866C335.832 62.8589 335.752 63.0942 335.752 63.3925C335.752 63.8002 335.903 64.1084 336.205 64.3172C336.51 64.5227 336.896 64.6255 337.363 64.6255ZM343.999 60.9067V65.5005H342.826V57.8641H343.959V59.0573H344.059C344.238 58.6695 344.51 58.358 344.874 58.1226C345.239 57.884 345.709 57.7647 346.286 57.7647C346.803 57.7647 347.256 57.8708 347.643 58.0829C348.031 58.2917 348.333 58.6099 348.548 59.0374C348.764 59.4617 348.871 59.9986 348.871 60.6482V65.5005H347.698V60.7278C347.698 60.1279 347.542 59.6605 347.231 59.3258C346.919 58.9877 346.492 58.8187 345.948 58.8187C345.573 58.8187 345.239 58.8999 344.944 59.0623C344.652 59.2247 344.422 59.4617 344.253 59.7732C344.084 60.0848 343.999 60.4626 343.999 60.9067ZM351.015 65.5005V57.8641H352.189V65.5005H351.015ZM351.612 56.5914C351.383 56.5914 351.186 56.5135 351.02 56.3577C350.858 56.202 350.777 56.0147 350.777 55.7959C350.777 55.5772 350.858 55.3899 351.02 55.2342C351.186 55.0784 351.383 55.0005 351.612 55.0005C351.841 55.0005 352.036 55.0784 352.199 55.2342C352.364 55.3899 352.447 55.5772 352.447 55.7959C352.447 56.0147 352.364 56.202 352.199 56.3577C352.036 56.5135 351.841 56.5914 351.612 56.5914ZM359.747 59.5744L358.693 59.8726C358.626 59.697 358.529 59.5263 358.399 59.3606C358.273 59.1915 358.101 59.0523 357.882 58.943C357.664 58.8336 357.383 58.7789 357.042 58.7789C356.575 58.7789 356.185 58.8866 355.874 59.1021C355.566 59.3142 355.411 59.5843 355.411 59.9124C355.411 60.2041 355.517 60.4344 355.73 60.6035C355.942 60.7725 356.273 60.9134 356.724 61.0261L357.857 61.3045C358.54 61.4702 359.049 61.7237 359.384 62.0651C359.718 62.4032 359.886 62.839 359.886 63.3726C359.886 63.8101 359.76 64.2012 359.508 64.5459C359.259 64.8906 358.911 65.1624 358.464 65.3613C358.017 65.5601 357.496 65.6596 356.903 65.6596C356.124 65.6596 355.479 65.4905 354.969 65.1525C354.459 64.8144 354.135 64.3206 353.999 63.6709L355.113 63.3925C355.219 63.8035 355.42 64.1118 355.715 64.3172C356.013 64.5227 356.402 64.6255 356.883 64.6255C357.43 64.6255 357.864 64.5095 358.186 64.2775C358.51 64.0422 358.673 63.7604 358.673 63.4323C358.673 63.1672 358.58 62.9451 358.394 62.7661C358.209 62.5838 357.924 62.4479 357.539 62.3584L356.267 62.0601C355.567 61.8944 355.053 61.6376 354.725 61.2896C354.401 60.9382 354.238 60.4991 354.238 59.9721C354.238 59.5412 354.359 59.1601 354.601 58.8286C354.846 58.4972 355.179 58.237 355.6 58.0481C356.025 57.8592 356.505 57.7647 357.042 57.7647C357.798 57.7647 358.391 57.9304 358.822 58.2619C359.256 58.5933 359.564 59.0308 359.747 59.5744ZM363.899 65.6795C363.415 65.6795 362.976 65.5883 362.582 65.406C362.187 65.2204 361.874 64.9536 361.642 64.6056C361.41 64.2543 361.294 63.83 361.294 63.3329C361.294 62.8954 361.38 62.5407 361.553 62.269C361.725 61.9939 361.955 61.7784 362.244 61.6226C362.532 61.4669 362.85 61.3509 363.198 61.2746C363.549 61.1951 363.902 61.1321 364.257 61.0857C364.721 61.0261 365.097 60.9813 365.386 60.9515C365.677 60.9183 365.889 60.8637 366.022 60.7874C366.158 60.7112 366.226 60.5786 366.226 60.3897V60.3499C366.226 59.8594 366.092 59.4782 365.823 59.2065C365.558 58.9347 365.155 58.7988 364.615 58.7988C364.055 58.7988 363.616 58.9214 363.298 59.1667C362.979 59.4119 362.756 59.6738 362.626 59.9522L361.513 59.5545C361.712 59.0905 361.977 58.7292 362.308 58.4707C362.643 58.2088 363.008 58.0265 363.402 57.9238C363.8 57.8177 364.191 57.7647 364.575 57.7647C364.821 57.7647 365.102 57.7945 365.42 57.8542C365.742 57.9105 366.052 58.0282 366.35 58.2072C366.652 58.3861 366.902 58.6563 367.101 59.0175C367.3 59.3788 367.399 59.8627 367.399 60.4692V65.5005H366.226V64.4664H366.166C366.087 64.6321 365.954 64.8094 365.768 64.9984C365.583 65.1873 365.336 65.348 365.028 65.4806C364.719 65.6132 364.343 65.6795 363.899 65.6795ZM364.078 64.6255C364.542 64.6255 364.933 64.5343 365.251 64.3521C365.573 64.1698 365.815 63.9344 365.977 63.6461C366.143 63.3577 366.226 63.0545 366.226 62.7363V61.6624C366.176 61.7221 366.067 61.7768 365.898 61.8265C365.732 61.8729 365.54 61.9143 365.321 61.9508C365.106 61.9839 364.895 62.0137 364.69 62.0403C364.487 62.0635 364.323 62.0833 364.197 62.0999C363.893 62.1397 363.607 62.2043 363.342 62.2938C363.08 62.38 362.868 62.5109 362.706 62.6866C362.547 62.8589 362.467 63.0942 362.467 63.3925C362.467 63.8002 362.618 64.1084 362.92 64.3172C363.225 64.5227 363.611 64.6255 364.078 64.6255ZM372.862 57.8641V58.8584H368.904V57.8641H372.862ZM370.058 56.0346H371.231V63.313C371.231 63.6444 371.279 63.893 371.375 64.0587C371.475 64.2211 371.601 64.3305 371.753 64.3869C371.909 64.4399 372.073 64.4664 372.245 64.4664C372.374 64.4664 372.481 64.4598 372.563 64.4465C372.646 64.4299 372.713 64.4167 372.762 64.4067L373.001 65.4607C372.921 65.4905 372.81 65.5204 372.668 65.5502C372.525 65.5833 372.345 65.5999 372.126 65.5999C371.794 65.5999 371.47 65.5287 371.151 65.3861C370.837 65.2436 370.575 65.0265 370.366 64.7349C370.16 64.4432 370.058 64.0753 370.058 63.6312V56.0346ZM374.627 65.5005V57.8641H375.8V65.5005H374.627ZM375.223 56.5914C374.994 56.5914 374.797 56.5135 374.632 56.3577C374.469 56.202 374.388 56.0147 374.388 55.7959C374.388 55.5772 374.469 55.3899 374.632 55.2342C374.797 55.0784 374.994 55.0005 375.223 55.0005C375.452 55.0005 375.647 55.0784 375.81 55.2342C375.976 55.3899 376.058 55.5772 376.058 55.7959C376.058 56.0147 375.976 56.202 375.81 56.3577C375.647 56.5135 375.452 56.5914 375.223 56.5914ZM381.051 65.6596C380.362 65.6596 379.757 65.4955 379.237 65.1674C378.719 64.8393 378.315 64.3802 378.023 63.7903C377.735 63.2003 377.591 62.5109 377.591 61.7221C377.591 60.9266 377.735 60.2323 378.023 59.639C378.315 59.0457 378.719 58.585 379.237 58.2569C379.757 57.9288 380.362 57.7647 381.051 57.7647C381.741 57.7647 382.344 57.9288 382.861 58.2569C383.381 58.585 383.786 59.0457 384.074 59.639C384.366 60.2323 384.511 60.9266 384.511 61.7221C384.511 62.5109 384.366 63.2003 384.074 63.7903C383.786 64.3802 383.381 64.8393 382.861 65.1674C382.344 65.4955 381.741 65.6596 381.051 65.6596ZM381.051 64.6056C381.575 64.6056 382.006 64.4714 382.344 64.2029C382.682 63.9344 382.932 63.5815 383.094 63.144C383.257 62.7065 383.338 62.2325 383.338 61.7221C383.338 61.2117 383.257 60.736 383.094 60.2952C382.932 59.8544 382.682 59.4981 382.344 59.2263C382.006 58.9546 381.575 58.8187 381.051 58.8187C380.527 58.8187 380.097 58.9546 379.759 59.2263C379.42 59.4981 379.17 59.8544 379.008 60.2952C378.845 60.736 378.764 61.2117 378.764 61.7221C378.764 62.2325 378.845 62.7065 379.008 63.144C379.17 63.5815 379.42 63.9344 379.759 64.2029C380.097 64.4714 380.527 64.6056 381.051 64.6056ZM387.476 60.9067V65.5005H386.302V57.8641H387.436V59.0573H387.535C387.714 58.6695 387.986 58.358 388.351 58.1226C388.715 57.884 389.186 57.7647 389.763 57.7647C390.28 57.7647 390.732 57.8708 391.12 58.0829C391.508 58.2917 391.809 58.6099 392.025 59.0374C392.24 59.4617 392.348 59.9986 392.348 60.6482V65.5005H391.175V60.7278C391.175 60.1279 391.019 59.6605 390.707 59.3258C390.396 58.9877 389.968 58.8187 389.425 58.8187C389.05 58.8187 388.715 58.8999 388.42 59.0623C388.129 59.2247 387.898 59.4617 387.729 59.7732C387.56 60.0848 387.476 60.4626 387.476 60.9067Z" fill="#616B7C"/>
<path fill-rule="evenodd" clip-rule="evenodd" d="M461 54.0005C461.663 54.0005 462.2 54.5377 462.2 55.2005V58.8005L465.8 58.8005C466.463 58.8005 467 59.3377 467 60.0005C467 60.6632 466.463 61.2005 465.8 61.2005H462.2V64.8005C462.2 65.4632 461.663 66.0005 461 66.0005C460.337 66.0005 459.8 65.4632 459.8 64.8005V61.2005H456.2C455.537 61.2005 455 60.6632 455 60.0005C455 59.3377 455.537 58.8005 456.2 58.8005L459.8 58.8005V55.2005C459.8 54.5377 460.337 54.0005 461 54.0005Z" fill="#C4C6D7"/>
<path d="M278.358 103.819H279.77L282.594 108.572H282.713L285.537 103.819H286.949L283.27 109.804V114H282.037V109.804L278.358 103.819ZM290.407 114.16C289.717 114.16 289.112 113.996 288.592 113.667C288.075 113.339 287.671 112.88 287.379 112.29C287.091 111.7 286.946 111.011 286.946 110.222C286.946 109.427 287.091 108.732 287.379 108.139C287.671 107.546 288.075 107.085 288.592 106.757C289.112 106.429 289.717 106.265 290.407 106.265C291.096 106.265 291.699 106.429 292.216 106.757C292.737 107.085 293.141 107.546 293.429 108.139C293.721 108.732 293.867 109.427 293.867 110.222C293.867 111.011 293.721 111.7 293.429 112.29C293.141 112.88 292.737 113.339 292.216 113.667C291.699 113.996 291.096 114.16 290.407 114.16ZM290.407 113.106C290.93 113.106 291.361 112.971 291.699 112.703C292.037 112.434 292.288 112.081 292.45 111.644C292.612 111.206 292.694 110.732 292.694 110.222C292.694 109.712 292.612 109.236 292.45 108.795C292.288 108.354 292.037 107.998 291.699 107.726C291.361 107.455 290.93 107.319 290.407 107.319C289.883 107.319 289.452 107.455 289.114 107.726C288.776 107.998 288.526 108.354 288.363 108.795C288.201 109.236 288.12 109.712 288.12 110.222C288.12 110.732 288.201 111.206 288.363 111.644C288.526 112.081 288.776 112.434 289.114 112.703C289.452 112.971 289.883 113.106 290.407 113.106ZM300.47 110.878V106.364H301.644V114H300.47V112.708H300.391C300.212 113.096 299.933 113.425 299.556 113.697C299.178 113.966 298.7 114.1 298.124 114.1C297.646 114.1 297.222 113.996 296.851 113.787C296.48 113.575 296.188 113.256 295.976 112.832C295.764 112.405 295.658 111.866 295.658 111.216V106.364H296.831V111.137C296.831 111.694 296.987 112.138 297.298 112.469C297.613 112.801 298.014 112.966 298.502 112.966C298.793 112.966 299.09 112.892 299.392 112.743C299.696 112.594 299.952 112.365 300.157 112.057C300.366 111.748 300.47 111.356 300.47 110.878ZM303.793 114V106.364H304.926V107.518H305.006C305.145 107.14 305.397 106.833 305.761 106.598C306.126 106.362 306.537 106.245 306.994 106.245C307.08 106.245 307.188 106.246 307.317 106.25C307.447 106.253 307.545 106.258 307.611 106.265V107.458C307.571 107.448 307.48 107.433 307.337 107.413C307.198 107.39 307.051 107.378 306.895 107.378C306.524 107.378 306.192 107.456 305.901 107.612C305.612 107.764 305.384 107.977 305.214 108.248C305.049 108.517 304.966 108.823 304.966 109.168V114H303.793ZM313.516 114H312.223L315.962 103.819H317.235L320.973 114H319.681L316.638 105.429H316.558L313.516 114ZM313.993 110.023H319.203V111.117H313.993V110.023ZM325.502 114.16C324.786 114.16 324.17 113.991 323.653 113.652C323.136 113.314 322.738 112.849 322.46 112.255C322.181 111.662 322.042 110.984 322.042 110.222C322.042 109.447 322.185 108.762 322.47 108.169C322.758 107.572 323.159 107.107 323.673 106.772C324.19 106.434 324.793 106.265 325.482 106.265C326.019 106.265 326.503 106.364 326.934 106.563C327.365 106.762 327.718 107.04 327.993 107.398C328.268 107.756 328.439 108.174 328.505 108.651H327.332C327.242 108.303 327.044 107.995 326.735 107.726C326.43 107.455 326.019 107.319 325.502 107.319C325.045 107.319 324.644 107.438 324.299 107.677C323.958 107.912 323.691 108.245 323.499 108.676C323.31 109.103 323.215 109.606 323.215 110.182C323.215 110.772 323.308 111.286 323.494 111.723C323.683 112.161 323.948 112.501 324.289 112.743C324.634 112.985 325.038 113.106 325.502 113.106C325.807 113.106 326.084 113.053 326.333 112.947C326.581 112.84 326.792 112.688 326.964 112.489C327.136 112.29 327.259 112.052 327.332 111.773H328.505C328.439 112.224 328.275 112.63 328.013 112.991C327.754 113.349 327.411 113.634 326.984 113.846C326.56 114.055 326.066 114.16 325.502 114.16ZM333.323 114.16C332.607 114.16 331.99 113.991 331.473 113.652C330.956 113.314 330.558 112.849 330.28 112.255C330.002 111.662 329.862 110.984 329.862 110.222C329.862 109.447 330.005 108.762 330.29 108.169C330.578 107.572 330.979 107.107 331.493 106.772C332.01 106.434 332.613 106.265 333.303 106.265C333.84 106.265 334.324 106.364 334.754 106.563C335.185 106.762 335.538 107.04 335.813 107.398C336.088 107.756 336.259 108.174 336.325 108.651H335.152C335.063 108.303 334.864 107.995 334.556 107.726C334.251 107.455 333.84 107.319 333.323 107.319C332.865 107.319 332.464 107.438 332.119 107.677C331.778 107.912 331.511 108.245 331.319 108.676C331.13 109.103 331.036 109.606 331.036 110.182C331.036 110.772 331.128 111.286 331.314 111.723C331.503 112.161 331.768 112.501 332.11 112.743C332.454 112.985 332.859 113.106 333.323 113.106C333.628 113.106 333.904 113.053 334.153 112.947C334.401 112.84 334.612 112.688 334.784 112.489C334.957 112.29 335.079 112.052 335.152 111.773H336.325C336.259 112.224 336.095 112.63 335.833 112.991C335.575 113.349 335.232 113.634 334.804 113.846C334.38 114.055 333.886 114.16 333.323 114.16ZM341.143 114.16C340.454 114.16 339.849 113.996 339.328 113.667C338.811 113.339 338.407 112.88 338.115 112.29C337.827 111.7 337.683 111.011 337.683 110.222C337.683 109.427 337.827 108.732 338.115 108.139C338.407 107.546 338.811 107.085 339.328 106.757C339.849 106.429 340.454 106.265 341.143 106.265C341.832 106.265 342.436 106.429 342.953 106.757C343.473 107.085 343.877 107.546 344.166 108.139C344.457 108.732 344.603 109.427 344.603 110.222C344.603 111.011 344.457 111.7 344.166 112.29C343.877 112.88 343.473 113.339 342.953 113.667C342.436 113.996 341.832 114.16 341.143 114.16ZM341.143 113.106C341.667 113.106 342.097 112.971 342.436 112.703C342.774 112.434 343.024 112.081 343.186 111.644C343.349 111.206 343.43 110.732 343.43 110.222C343.43 109.712 343.349 109.236 343.186 108.795C343.024 108.354 342.774 107.998 342.436 107.726C342.097 107.455 341.667 107.319 341.143 107.319C340.619 107.319 340.188 107.455 339.85 107.726C339.512 107.998 339.262 108.354 339.1 108.795C338.937 109.236 338.856 109.712 338.856 110.222C338.856 110.732 338.937 111.206 339.1 111.644C339.262 112.081 339.512 112.434 339.85 112.703C340.188 112.971 340.619 113.106 341.143 113.106ZM351.207 110.878V106.364H352.38V114H351.207V112.708H351.127C350.948 113.096 350.67 113.425 350.292 113.697C349.914 113.966 349.437 114.1 348.86 114.1C348.383 114.1 347.959 113.996 347.587 113.787C347.216 113.575 346.924 113.256 346.712 112.832C346.5 112.405 346.394 111.866 346.394 111.216V106.364H347.567V111.137C347.567 111.694 347.723 112.138 348.035 112.469C348.35 112.801 348.751 112.966 349.238 112.966C349.53 112.966 349.826 112.892 350.128 112.743C350.433 112.594 350.688 112.365 350.893 112.057C351.102 111.748 351.207 111.356 351.207 110.878ZM355.702 109.407V114H354.529V106.364H355.662V107.557H355.762C355.941 107.17 356.213 106.858 356.577 106.623C356.942 106.384 357.412 106.265 357.989 106.265C358.506 106.265 358.959 106.371 359.346 106.583C359.734 106.792 360.036 107.11 360.251 107.537C360.467 107.962 360.574 108.499 360.574 109.148V114H359.401V109.228C359.401 108.628 359.245 108.161 358.934 107.826C358.622 107.488 358.195 107.319 357.651 107.319C357.277 107.319 356.942 107.4 356.647 107.562C356.355 107.725 356.125 107.962 355.956 108.273C355.787 108.585 355.702 108.963 355.702 109.407ZM366.039 106.364V107.358H362.082V106.364H366.039ZM363.235 104.535H364.409V111.813C364.409 112.144 364.457 112.393 364.553 112.559C364.652 112.721 364.778 112.831 364.931 112.887C365.087 112.94 365.251 112.966 365.423 112.966C365.552 112.966 365.658 112.96 365.741 112.947C365.824 112.93 365.89 112.917 365.94 112.907L366.179 113.961C366.099 113.991 365.988 114.02 365.846 114.05C365.703 114.083 365.522 114.1 365.304 114.1C364.972 114.1 364.647 114.029 364.329 113.886C364.014 113.744 363.752 113.527 363.544 113.235C363.338 112.943 363.235 112.575 363.235 112.131V104.535Z" fill="#616B7C"/>
<path d="M284.801 153.364C284.741 152.86 284.5 152.469 284.075 152.191C283.651 151.912 283.131 151.773 282.514 151.773C282.063 151.773 281.669 151.846 281.331 151.992C280.996 152.138 280.734 152.338 280.545 152.594C280.36 152.849 280.267 153.139 280.267 153.464C280.267 153.735 280.332 153.969 280.461 154.165C280.594 154.357 280.763 154.518 280.968 154.647C281.174 154.773 281.389 154.877 281.614 154.96C281.84 155.04 282.047 155.104 282.236 155.154L283.27 155.432C283.535 155.502 283.83 155.598 284.155 155.721C284.483 155.843 284.796 156.011 285.094 156.223C285.396 156.432 285.645 156.7 285.84 157.028C286.036 157.356 286.134 157.759 286.134 158.236C286.134 158.786 285.989 159.284 285.701 159.728C285.416 160.172 284.998 160.525 284.448 160.787C283.901 161.049 283.237 161.179 282.455 161.179C281.725 161.179 281.094 161.062 280.56 160.826C280.03 160.591 279.612 160.263 279.308 159.842C279.006 159.421 278.835 158.932 278.795 158.375H280.068C280.101 158.76 280.231 159.078 280.456 159.33C280.685 159.579 280.973 159.764 281.321 159.887C281.672 160.006 282.05 160.066 282.455 160.066C282.925 160.066 283.348 159.99 283.722 159.837C284.097 159.681 284.393 159.466 284.612 159.191C284.831 158.912 284.94 158.588 284.94 158.216C284.94 157.878 284.846 157.603 284.657 157.391C284.468 157.179 284.219 157.007 283.911 156.874C283.603 156.741 283.27 156.625 282.912 156.526L281.659 156.168C280.864 155.939 280.234 155.613 279.77 155.189C279.306 154.764 279.074 154.209 279.074 153.523C279.074 152.953 279.228 152.456 279.536 152.032C279.848 151.604 280.265 151.273 280.789 151.037C281.316 150.799 281.904 150.679 282.554 150.679C283.21 150.679 283.794 150.797 284.304 151.032C284.814 151.264 285.219 151.583 285.517 151.987C285.819 152.391 285.978 152.85 285.994 153.364H284.801ZM288.002 161V153.364H289.175V161H288.002ZM288.598 152.091C288.369 152.091 288.172 152.014 288.007 151.858C287.844 151.702 287.763 151.515 287.763 151.296C287.763 151.077 287.844 150.89 288.007 150.734C288.172 150.578 288.369 150.5 288.598 150.5C288.827 150.5 289.022 150.578 289.185 150.734C289.351 150.89 289.433 151.077 289.433 151.296C289.433 151.515 289.351 151.702 289.185 151.858C289.022 152.014 288.827 152.091 288.598 152.091ZM294.406 164.023C293.839 164.023 293.352 163.95 292.945 163.804C292.537 163.662 292.197 163.473 291.925 163.238C291.657 163.006 291.443 162.757 291.284 162.492L292.219 161.836C292.325 161.975 292.459 162.134 292.621 162.313C292.784 162.495 293.006 162.653 293.288 162.785C293.573 162.921 293.946 162.989 294.406 162.989C295.023 162.989 295.531 162.84 295.933 162.542C296.334 162.243 296.534 161.776 296.534 161.14V159.589H296.435C296.348 159.728 296.226 159.9 296.067 160.106C295.911 160.308 295.686 160.488 295.391 160.648C295.099 160.803 294.705 160.881 294.207 160.881C293.591 160.881 293.037 160.735 292.547 160.444C292.06 160.152 291.674 159.728 291.388 159.171C291.107 158.614 290.966 157.938 290.966 157.143C290.966 156.36 291.103 155.679 291.379 155.099C291.654 154.516 292.036 154.065 292.527 153.747C293.018 153.425 293.584 153.265 294.227 153.265C294.724 153.265 295.119 153.348 295.411 153.513C295.705 153.676 295.931 153.861 296.087 154.07C296.246 154.276 296.368 154.445 296.455 154.577H296.574V153.364H297.707V161.219C297.707 161.875 297.558 162.409 297.26 162.82C296.965 163.234 296.567 163.538 296.067 163.73C295.57 163.925 295.016 164.023 294.406 164.023ZM294.366 159.827C294.837 159.827 295.235 159.719 295.56 159.504C295.884 159.289 296.131 158.979 296.3 158.574C296.469 158.17 296.554 157.686 296.554 157.123C296.554 156.572 296.471 156.087 296.305 155.666C296.14 155.245 295.894 154.915 295.57 154.677C295.245 154.438 294.844 154.319 294.366 154.319C293.869 154.319 293.455 154.445 293.124 154.697C292.795 154.948 292.549 155.286 292.383 155.711C292.22 156.135 292.139 156.606 292.139 157.123C292.139 157.653 292.222 158.122 292.388 158.53C292.557 158.934 292.805 159.252 293.134 159.484C293.465 159.713 293.876 159.827 294.366 159.827ZM301.028 156.407V161H299.855V153.364H300.989V154.557H301.088C301.267 154.17 301.539 153.858 301.903 153.623C302.268 153.384 302.739 153.265 303.315 153.265C303.832 153.265 304.285 153.371 304.673 153.583C305.06 153.792 305.362 154.11 305.577 154.537C305.793 154.962 305.901 155.499 305.901 156.148V161H304.727V156.228C304.727 155.628 304.571 155.161 304.26 154.826C303.948 154.488 303.521 154.319 302.977 154.319C302.603 154.319 302.268 154.4 301.973 154.562C301.681 154.725 301.451 154.962 301.282 155.273C301.113 155.585 301.028 155.963 301.028 156.407ZM320.732 155.91C320.732 156.983 320.538 157.911 320.15 158.694C319.763 159.476 319.231 160.079 318.555 160.503C317.878 160.928 317.106 161.14 316.238 161.14C315.369 161.14 314.597 160.928 313.921 160.503C313.245 160.079 312.713 159.476 312.325 158.694C311.937 157.911 311.743 156.983 311.743 155.91C311.743 154.836 311.937 153.908 312.325 153.125C312.713 152.343 313.245 151.74 313.921 151.316C314.597 150.892 315.369 150.679 316.238 150.679C317.106 150.679 317.878 150.892 318.555 151.316C319.231 151.74 319.763 152.343 320.15 153.125C320.538 153.908 320.732 154.836 320.732 155.91ZM319.539 155.91C319.539 155.028 319.391 154.284 319.096 153.677C318.805 153.071 318.409 152.612 317.908 152.3C317.411 151.989 316.854 151.833 316.238 151.833C315.621 151.833 315.063 151.989 314.562 152.3C314.065 152.612 313.669 153.071 313.374 153.677C313.082 154.284 312.937 155.028 312.937 155.91C312.937 156.791 313.082 157.535 313.374 158.142C313.669 158.748 314.065 159.207 314.562 159.519C315.063 159.831 315.621 159.986 316.238 159.986C316.854 159.986 317.411 159.831 317.908 159.519C318.409 159.207 318.805 158.748 319.096 158.142C319.391 157.535 319.539 156.791 319.539 155.91ZM327.459 157.878V153.364H328.632V161H327.459V159.708H327.379C327.2 160.096 326.922 160.425 326.544 160.697C326.166 160.966 325.689 161.1 325.112 161.1C324.635 161.1 324.211 160.996 323.839 160.787C323.468 160.575 323.176 160.256 322.964 159.832C322.752 159.405 322.646 158.866 322.646 158.216V153.364H323.819V158.137C323.819 158.694 323.975 159.138 324.287 159.469C324.602 159.801 325.003 159.966 325.49 159.966C325.782 159.966 326.078 159.892 326.38 159.743C326.685 159.594 326.94 159.365 327.145 159.057C327.354 158.748 327.459 158.356 327.459 157.878ZM334.102 153.364V154.358H330.145V153.364H334.102ZM331.298 151.535H332.471V158.813C332.471 159.144 332.519 159.393 332.615 159.559C332.715 159.721 332.841 159.831 332.993 159.887C333.149 159.94 333.313 159.966 333.485 159.966C333.615 159.966 333.721 159.96 333.804 159.947C333.886 159.93 333.953 159.917 334.002 159.907L334.241 160.961C334.162 160.991 334.051 161.02 333.908 161.05C333.766 161.083 333.585 161.1 333.366 161.1C333.035 161.1 332.71 161.029 332.392 160.886C332.077 160.744 331.815 160.527 331.606 160.235C331.401 159.943 331.298 159.575 331.298 159.131V151.535Z" fill="#616B7C"/>
<path d="M456 148.5C455.448 148.5 455 148.948 455 149.5V161.5C455 162.053 455.448 162.5 456 162.5C456.552 162.5 457 162.053 457 161.5V149.5C457 148.948 456.552 148.5 456 148.5Z" fill="#C4C6D7"/>
<path d="M466.293 157.793C465.902 158.184 465.902 158.817 466.293 159.208C466.683 159.598 467.317 159.598 467.707 159.208L470.707 156.208C470.895 156.02 471 155.766 471 155.5C471 155.235 470.895 154.981 470.707 154.793L467.707 151.793C467.317 151.403 466.683 151.403 466.293 151.793C465.902 152.184 465.902 152.817 466.293 153.208L467.586 154.5L460 154.5C459.448 154.5 459 154.948 459 155.5C459 156.053 459.448 156.5 460 156.5H467.586L466.293 157.793Z" fill="#C4C6D7"/>
<line x1="250" y1="189.5" x2="489" y2="189.5" stroke="#F2F2F8"/>
<mask id="mask0_1971_85386" style="mask-type:alpha" maskUnits="userSpaceOnUse" x="262" y="206" width="64" height="56">
<rect x="262.506" y="206" width="63.33" height="55.255" rx="8" fill="#F2F2F8"/>
</mask>
<g mask="url(#mask0_1971_85386)">
<rect x="262.506" y="206" width="63.33" height="55.255" rx="8" fill="#F2F2F8"/>
<rect x="277.746" y="213.756" width="48.7701" height="50.4081" rx="4" fill="#FCFCFF"/>
<path d="M287.29 234.511H286.182L289.386 225.783H290.477L293.682 234.511H292.574L289.966 227.164H289.898L287.29 234.511ZM287.699 231.102H292.165V232.039H287.699V231.102ZM296.831 234.664C296.416 234.664 296.04 234.586 295.702 234.43C295.364 234.271 295.095 234.042 294.896 233.744C294.697 233.443 294.598 233.079 294.598 232.653C294.598 232.278 294.672 231.974 294.82 231.741C294.967 231.505 295.165 231.32 295.412 231.187C295.659 231.053 295.932 230.954 296.23 230.889C296.531 230.82 296.834 230.766 297.138 230.727C297.536 230.676 297.858 230.637 298.105 230.612C298.355 230.583 298.537 230.536 298.651 230.471C298.767 230.406 298.825 230.292 298.825 230.13V230.096C298.825 229.676 298.71 229.349 298.48 229.116C298.253 228.883 297.908 228.766 297.445 228.766C296.964 228.766 296.588 228.872 296.315 229.082C296.043 229.292 295.851 229.516 295.74 229.755L294.786 229.414C294.956 229.016 295.183 228.707 295.467 228.485C295.754 228.261 296.067 228.104 296.405 228.016C296.746 227.926 297.081 227.88 297.411 227.88C297.621 227.88 297.862 227.906 298.135 227.957C298.411 228.005 298.676 228.106 298.932 228.259C299.19 228.413 299.405 228.644 299.575 228.954C299.746 229.264 299.831 229.678 299.831 230.198V234.511H298.825V233.624H298.774C298.706 233.766 298.592 233.918 298.433 234.08C298.274 234.242 298.063 234.38 297.798 234.494C297.534 234.607 297.212 234.664 296.831 234.664ZM296.984 233.761C297.382 233.761 297.717 233.683 297.99 233.526C298.266 233.37 298.473 233.168 298.612 232.921C298.754 232.674 298.825 232.414 298.825 232.141V231.221C298.783 231.272 298.689 231.319 298.544 231.362C298.402 231.401 298.237 231.437 298.05 231.468C297.865 231.497 297.685 231.522 297.509 231.545C297.335 231.565 297.195 231.582 297.087 231.596C296.825 231.63 296.581 231.685 296.354 231.762C296.129 231.836 295.947 231.948 295.808 232.099C295.672 232.247 295.604 232.448 295.604 232.704C295.604 233.053 295.733 233.318 295.991 233.497C296.253 233.673 296.584 233.761 296.984 233.761Z" fill="#373B4D"/>
</g>
<circle cx="294.17" cy="281.256" r="7.5" fill="white" stroke="#C4C6D7"/>
<mask id="mask1_1971_85386" style="mask-type:alpha" maskUnits="userSpaceOnUse" x="337" y="206" width="65" height="58">
<rect x="337.836" y="206" width="63.33" height="57" rx="8" fill="#373B4D"/>
</mask>
<g mask="url(#mask1_1971_85386)">
<rect x="337.836" y="206" width="65.3621" height="57" rx="8" fill="#373B4D"/>
<rect x="354.092" y="214" width="48.7701" height="52" rx="4" fill="#616B7C"/>
<path d="M363.635 235H362.528L365.732 226.273H366.823L370.028 235H368.92L366.312 227.654H366.243L363.635 235ZM364.045 231.591H368.51V232.529H364.045V231.591ZM373.177 235.154C372.762 235.154 372.385 235.076 372.047 234.92C371.709 234.76 371.441 234.532 371.242 234.233C371.043 233.932 370.944 233.569 370.944 233.143C370.944 232.768 371.018 232.464 371.165 232.231C371.313 231.995 371.51 231.81 371.758 231.677C372.005 231.543 372.278 231.444 372.576 231.378C372.877 231.31 373.18 231.256 373.483 231.216C373.881 231.165 374.204 231.127 374.451 231.101C374.701 231.073 374.883 231.026 374.996 230.961C375.113 230.895 375.171 230.782 375.171 230.62V230.586C375.171 230.165 375.056 229.839 374.826 229.606C374.599 229.373 374.253 229.256 373.79 229.256C373.31 229.256 372.934 229.361 372.661 229.572C372.388 229.782 372.197 230.006 372.086 230.245L371.131 229.904C371.302 229.506 371.529 229.197 371.813 228.975C372.1 228.75 372.412 228.594 372.751 228.506C373.091 228.415 373.427 228.37 373.756 228.37C373.966 228.37 374.208 228.395 374.481 228.447C374.756 228.495 375.022 228.596 375.278 228.749C375.536 228.902 375.751 229.134 375.921 229.444C376.091 229.753 376.177 230.168 376.177 230.688V235H375.171V234.114H375.12C375.052 234.256 374.938 234.408 374.779 234.57C374.62 234.732 374.408 234.87 374.144 234.983C373.88 235.097 373.557 235.154 373.177 235.154ZM373.33 234.25C373.728 234.25 374.063 234.172 374.336 234.016C374.611 233.86 374.819 233.658 374.958 233.411C375.1 233.164 375.171 232.904 375.171 232.631V231.711C375.128 231.762 375.035 231.809 374.89 231.851C374.748 231.891 374.583 231.927 374.395 231.958C374.211 231.986 374.03 232.012 373.854 232.035C373.681 232.054 373.54 232.072 373.432 232.086C373.171 232.12 372.927 232.175 372.699 232.252C372.475 232.326 372.293 232.438 372.154 232.589C372.018 232.736 371.949 232.938 371.949 233.194C371.949 233.543 372.079 233.807 372.337 233.986C372.599 234.162 372.93 234.25 373.33 234.25Z" fill="#FCFCFF"/>
</g>
<circle cx="369.5" cy="283" r="7.5" fill="white" stroke="#C4C6D7"/>
<rect x="413.164" y="206" width="63.33" height="57" rx="8" fill="#373B4D"/>
<mask id="mask2_1971_85386" style="mask-type:alpha" maskUnits="userSpaceOnUse" x="413" y="206" width="64" height="58">
<rect x="413.164" y="206" width="63.33" height="57" rx="8" fill="#373B4D"/>
</mask>
<g mask="url(#mask2_1971_85386)">
<rect x="413.164" y="206" width="65.3621" height="57" rx="8" fill="#373B4D"/>
<rect x="417.229" y="215" width="32.5134" height="52" rx="4" fill="#616B7C"/>
<path d="M426.772 236H425.664L428.869 227.273H429.96L433.164 236H432.056L429.448 228.654H429.38L426.772 236ZM427.181 232.591H431.647V233.529H427.181V232.591ZM436.313 236.154C435.899 236.154 435.522 236.076 435.184 235.92C434.846 235.76 434.578 235.532 434.379 235.233C434.18 234.932 434.08 234.569 434.08 234.143C434.08 233.768 434.154 233.464 434.302 233.231C434.45 232.995 434.647 232.81 434.894 232.677C435.142 232.543 435.414 232.444 435.713 232.378C436.014 232.31 436.316 232.256 436.62 232.216C437.018 232.165 437.34 232.127 437.588 232.101C437.838 232.073 438.019 232.026 438.133 231.961C438.249 231.895 438.308 231.782 438.308 231.62V231.586C438.308 231.165 438.193 230.839 437.963 230.606C437.735 230.373 437.39 230.256 436.927 230.256C436.447 230.256 436.07 230.361 435.798 230.572C435.525 230.782 435.333 231.006 435.222 231.245L434.268 230.904C434.438 230.506 434.666 230.197 434.95 229.975C435.237 229.75 435.549 229.594 435.887 229.506C436.228 229.415 436.563 229.37 436.893 229.37C437.103 229.37 437.345 229.395 437.617 229.447C437.893 229.495 438.159 229.596 438.414 229.749C438.673 229.902 438.887 230.134 439.058 230.444C439.228 230.753 439.313 231.168 439.313 231.688V236H438.308V235.114H438.257C438.188 235.256 438.075 235.408 437.916 235.57C437.757 235.732 437.545 235.87 437.281 235.983C437.017 236.097 436.694 236.154 436.313 236.154ZM436.467 235.25C436.865 235.25 437.2 235.172 437.472 235.016C437.748 234.86 437.955 234.658 438.095 234.411C438.237 234.164 438.308 233.904 438.308 233.631V232.711C438.265 232.762 438.171 232.809 438.026 232.851C437.884 232.891 437.72 232.927 437.532 232.958C437.347 232.986 437.167 233.012 436.991 233.035C436.818 233.054 436.677 233.072 436.569 233.086C436.308 233.12 436.063 233.175 435.836 233.252C435.612 233.326 435.43 233.438 435.291 233.589C435.154 233.736 435.086 233.938 435.086 234.194C435.086 234.543 435.215 234.807 435.474 234.986C435.735 235.162 436.066 235.25 436.467 235.25Z" fill="#FCFCFF"/>
<rect x="445.678" y="206" width="31.4974" height="57" fill="#F2F2F8"/>
<rect x="449.742" y="215" width="28.4492" height="52" rx="4" fill="#FCFCFF"/>
<path d="M459.284 236H458.176L461.381 227.273H462.471L465.676 236H464.568L461.96 228.654H461.892L459.284 236ZM459.693 232.591H464.159V233.529H459.693V232.591ZM468.825 236.154C468.41 236.154 468.034 236.076 467.696 235.92C467.358 235.76 467.089 235.532 466.89 235.233C466.692 234.932 466.592 234.569 466.592 234.143C466.592 233.768 466.666 233.464 466.814 233.231C466.961 232.995 467.159 232.81 467.406 232.677C467.653 232.543 467.926 232.444 468.224 232.378C468.525 232.31 468.828 232.256 469.132 232.216C469.53 232.165 469.852 232.127 470.099 232.101C470.349 232.073 470.531 232.026 470.645 231.961C470.761 231.895 470.819 231.782 470.819 231.62V231.586C470.819 231.165 470.704 230.839 470.474 230.606C470.247 230.373 469.902 230.256 469.439 230.256C468.959 230.256 468.582 230.361 468.309 230.572C468.037 230.782 467.845 231.006 467.734 231.245L466.78 230.904C466.95 230.506 467.177 230.197 467.461 229.975C467.748 229.75 468.061 229.594 468.399 229.506C468.74 229.415 469.075 229.37 469.405 229.37C469.615 229.37 469.856 229.395 470.129 229.447C470.405 229.495 470.67 229.596 470.926 229.749C471.184 229.902 471.399 230.134 471.569 230.444C471.74 230.753 471.825 231.168 471.825 231.688V236H470.819V235.114H470.768C470.7 235.256 470.586 235.408 470.427 235.57C470.268 235.732 470.057 235.87 469.792 235.983C469.528 236.097 469.206 236.154 468.825 236.154ZM468.979 235.25C469.376 235.25 469.711 235.172 469.984 235.016C470.26 234.86 470.467 234.658 470.606 234.411C470.748 234.164 470.819 233.904 470.819 233.631V232.711C470.777 232.762 470.683 232.809 470.538 232.851C470.396 232.891 470.231 232.927 470.044 232.958C469.859 232.986 469.679 233.012 469.503 233.035C469.329 233.054 469.189 233.072 469.081 233.086C468.819 233.12 468.575 233.175 468.348 233.252C468.123 233.326 467.942 233.438 467.802 233.589C467.666 233.736 467.598 233.938 467.598 234.194C467.598 234.543 467.727 234.807 467.986 234.986C468.247 235.162 468.578 235.25 468.979 235.25Z" fill="#4F5769"/>
</g>
<circle cx="444.828" cy="283" r="5.5" fill="white" stroke="#00A7C3" stroke-width="5"/>
</g>
<path d="M250 -88.9995H490H250ZM491 299C491 303.971 486.971 308 482 308H258C253.029 308 249 303.971 249 299H251C251 302.866 254.134 306 258 306H482C485.866 306 489 302.866 489 299H491ZM258 308C253.029 308 249 303.971 249 299V-88.9995H251V299C251 302.866 254.134 306 258 306V308ZM491 -88.9995V299C491 303.971 486.971 308 482 308V306C485.866 306 489 302.866 489 299V-88.9995H491Z" fill="#F2F2F8" mask="url(#path-19-inside-1_1971_85386)"/>
</g>
<rect x="-1237.5" y="-152.5" width="1727" height="63" stroke="#F2F2F8"/>
</g>
</g>
<rect x="0.5" y="0.500488" width="489" height="393.5" rx="16.5" stroke="#F2F2F8"/>
<defs>
<filter id="filter0_d_1971_85386" x="-294.5" y="47.5005" width="637.393" height="405" filterUnits="userSpaceOnUse" color-interpolation-filters="sRGB">
<feFlood flood-opacity="0" result="BackgroundImageFix"/>
<feColorMatrix in="SourceAlpha" type="matrix" values="0 0 0 0 0 0 0 0 0 0 0 0 0 0 0 0 0 0 127 0" result="hardAlpha"/>
<feOffset dy="16"/>
<feGaussianBlur stdDeviation="16"/>
<feColorMatrix type="matrix" values="0 0 0 0 0.215686 0 0 0 0 0.231373 0 0 0 0 0.301961 0 0 0 0.02 0"/>
<feBlend mode="normal" in2="BackgroundImageFix" result="effect1_dropShadow_1971_85386"/>
<feBlend mode="normal" in="SourceGraphic" in2="effect1_dropShadow_1971_85386" result="shape"/>
</filter>
<filter id="filter1_d_1971_85386" x="-294.5" y="47.5005" width="637" height="405" filterUnits="userSpaceOnUse" color-interpolation-filters="sRGB">
<feFlood flood-opacity="0" result="BackgroundImageFix"/>
<feColorMatrix in="SourceAlpha" type="matrix" values="0 0 0 0 0 0 0 0 0 0 0 0 0 0 0 0 0 0 127 0" result="hardAlpha"/>
<feOffset dy="16"/>
<feGaussianBlur stdDeviation="16"/>
<feColorMatrix type="matrix" values="0 0 0 0 0.215686 0 0 0 0 0.231373 0 0 0 0 0.301961 0 0 0 0.02 0"/>
<feBlend mode="normal" in2="BackgroundImageFix" result="effect1_dropShadow_1971_85386"/>
<feBlend mode="normal" in="SourceGraphic" in2="effect1_dropShadow_1971_85386" result="shape"/>
</filter>
<filter id="filter2_d_1971_85386" x="-221.896" y="166.5" width="538.369" height="221.805" filterUnits="userSpaceOnUse" color-interpolation-filters="sRGB">
<feFlood flood-opacity="0" result="BackgroundImageFix"/>
<feColorMatrix in="SourceAlpha" type="matrix" values="0 0 0 0 0 0 0 0 0 0 0 0 0 0 0 0 0 0 127 0" result="hardAlpha"/>
<feOffset dy="15"/>
<feGaussianBlur stdDeviation="19"/>
<feComposite in2="hardAlpha" operator="out"/>
<feColorMatrix type="matrix" values="0 0 0 0 0.941176 0 0 0 0 0.180392 0 0 0 0 0.396078 0 0 0 1 0"/>
<feBlend mode="normal" in2="BackgroundImageFix" result="effect1_dropShadow_1971_85386"/>
<feBlend mode="normal" in="SourceGraphic" in2="effect1_dropShadow_1971_85386" result="shape"/>
</filter>
<filter id="filter3_d_1971_85386" x="218" y="-105" width="304" height="460" filterUnits="userSpaceOnUse" color-interpolation-filters="sRGB">
<feFlood flood-opacity="0" result="BackgroundImageFix"/>
<feColorMatrix in="SourceAlpha" type="matrix" values="0 0 0 0 0 0 0 0 0 0 0 0 0 0 0 0 0 0 127 0" result="hardAlpha"/>
<feOffset dy="16"/>
<feGaussianBlur stdDeviation="16"/>
<feColorMatrix type="matrix" values="0 0 0 0 0.215686 0 0 0 0 0.231373 0 0 0 0 0.301961 0 0 0 0.04 0"/>
<feBlend mode="normal" in2="BackgroundImageFix" result="effect1_dropShadow_1971_85386"/>
<feBlend mode="normal" in="SourceGraphic" in2="effect1_dropShadow_1971_85386" result="shape"/>
</filter>
<filter id="filter4_d_1971_85386" x="218" y="-105" width="304" height="460" filterUnits="userSpaceOnUse" color-interpolation-filters="sRGB">
<feFlood flood-opacity="0" result="BackgroundImageFix"/>
<feColorMatrix in="SourceAlpha" type="matrix" values="0 0 0 0 0 0 0 0 0 0 0 0 0 0 0 0 0 0 127 0" result="hardAlpha"/>
<feOffset dy="16"/>
<feGaussianBlur stdDeviation="16"/>
<feColorMatrix type="matrix" values="0 0 0 0 0.215686 0 0 0 0 0.231373 0 0 0 0 0.301961 0 0 0 0.04 0"/>
<feBlend mode="normal" in2="BackgroundImageFix" result="effect1_dropShadow_1971_85386"/>
<feBlend mode="normal" in="SourceGraphic" in2="effect1_dropShadow_1971_85386" result="shape"/>
</filter>
<linearGradient id="paint0_linear_1971_85386" x1="-271.907" y1="45.2654" x2="-271.907" y2="12.5627" gradientUnits="userSpaceOnUse">
<stop stop-color="white"/>
<stop offset="0.401042" stop-color="white" stop-opacity="0.760417"/>
<stop offset="1" stop-color="white" stop-opacity="0"/>
</linearGradient>
<clipPath id="clip0_1971_85386">
<rect x="1" y="1.00049" width="488" height="392.5" rx="16" fill="white"/>
</clipPath>
<clipPath id="clip1_1971_85386">
<rect width="1728" height="1719" fill="white" transform="translate(-1238 -153)"/>
</clipPath>
</defs>
</svg>
