<svg width="490" height="395" viewBox="0 0 490 395" fill="none" xmlns="http://www.w3.org/2000/svg">
<g clip-path="url(#clip0_1971_85718)">
<rect x="1" y="1.00049" width="392.5" height="392.5" rx="16" fill="#D9D9D9"/>
<g clip-path="url(#clip1_1971_85718)">
<rect width="1728" height="1719" transform="translate(-1238 -151)" fill="#FCFCFF"/>
<rect x="-1038" y="-151" width="1528" height="250" fill="white"/>
<rect x="-1037.5" y="-150.5" width="1527" height="249" stroke="#E8E9F0" stroke-opacity="0.5"/>
<rect x="-851" y="28.0005" width="1157" height="22" fill="url(#paint0_linear_1971_85718)"/>
<g filter="url(#filter0_d_1971_85718)">
<rect x="-262" y="66.0005" width="572" height="340" rx="16" fill="white" stroke="#F2F2F8"/>
<line x1="-184" y1="194.248" x2="279" y2="194.248" stroke="#E8E9F0" stroke-width="0.5"/>
<line x1="-184" y1="229.517" x2="279" y2="229.517" stroke="#E8E9F0" stroke-width="0.5"/>
<line x1="-184" y1="265.715" x2="279" y2="265.715" stroke="#E8E9F0" stroke-width="0.5"/>
<line x1="-184" y1="300.984" x2="279" y2="300.984" stroke="#E8E9F0" stroke-width="0.5"/>
<line x1="-184" y1="336.254" x2="279" y2="336.254" stroke="#E8E9F0" stroke-width="0.5"/>
<path d="M-183.5 337C-178.5 330.5 -171.5 327.5 -161.741 296.885C-157.264 282.842 -145.113 233.103 -127.079 229.565C-93.9321 223.062 -77.8459 265.518 -51.0356 265.518C-29.0999 265.518 -20.1422 255.241 -2.68045 239.025C14.7812 222.81 25.5758 233.129 31.2905 236.077C37.0052 239.025 64.9439 263.348 83.6756 216.545C98.6609 179.103 125.36 192.959 137.648 203.278C150.624 212.123 182.317 275.133 203.906 264.519C225.495 253.906 264.839 239.025 278 277.502" stroke="#F02E65"/>
</g>
<path d="M243.136 360.273V369H242.079V361.381H242.028L239.897 362.796V361.722L242.079 360.273H243.136ZM248.543 369.12C248.185 369.114 247.827 369.046 247.469 368.915C247.112 368.785 246.785 368.564 246.489 368.255C246.194 367.942 245.957 367.52 245.778 366.989C245.599 366.455 245.509 365.785 245.509 364.978C245.509 364.205 245.582 363.52 245.727 362.924C245.871 362.324 246.082 361.82 246.357 361.411C246.633 360.999 246.965 360.687 247.354 360.473C247.746 360.26 248.188 360.154 248.68 360.154C249.168 360.154 249.603 360.252 249.984 360.448C250.367 360.641 250.68 360.911 250.921 361.258C251.163 361.604 251.319 362.003 251.39 362.455H250.35C250.254 362.063 250.066 361.738 249.788 361.479C249.509 361.221 249.14 361.091 248.68 361.091C248.004 361.091 247.471 361.385 247.082 361.973C246.695 362.562 246.501 363.387 246.498 364.449H246.566C246.725 364.208 246.914 364.002 247.133 363.831C247.354 363.658 247.599 363.525 247.866 363.431C248.133 363.337 248.415 363.29 248.714 363.29C249.214 363.29 249.671 363.415 250.086 363.665C250.501 363.912 250.833 364.255 251.083 364.692C251.333 365.127 251.458 365.625 251.458 366.188C251.458 366.728 251.337 367.222 251.096 367.671C250.854 368.117 250.515 368.472 250.077 368.736C249.643 368.998 249.131 369.125 248.543 369.12ZM248.543 368.182C248.901 368.182 249.222 368.093 249.506 367.914C249.793 367.735 250.019 367.495 250.184 367.194C250.352 366.893 250.435 366.557 250.435 366.188C250.435 365.827 250.354 365.499 250.192 365.204C250.033 364.905 249.813 364.668 249.532 364.492C249.254 364.316 248.935 364.228 248.577 364.228C248.308 364.228 248.056 364.282 247.823 364.39C247.59 364.495 247.386 364.64 247.21 364.824C247.036 365.009 246.9 365.221 246.8 365.459C246.701 365.695 246.651 365.944 246.651 366.205C246.651 366.552 246.732 366.875 246.894 367.177C247.059 367.478 247.283 367.721 247.567 367.905C247.854 368.09 248.18 368.182 248.543 368.182ZM257.02 369H255.912L259.117 360.273H260.208L263.412 369H262.304L259.696 361.654H259.628L257.02 369ZM257.429 365.591H261.895V366.529H257.429V365.591ZM268.76 366.324V362.455H269.766V369H268.76V367.893H268.692C268.539 368.225 268.3 368.508 267.976 368.741C267.652 368.971 267.243 369.086 266.749 369.086C266.34 369.086 265.976 368.996 265.658 368.817C265.34 368.635 265.09 368.363 264.908 367.999C264.726 367.633 264.635 367.171 264.635 366.614V362.455H265.641V366.546C265.641 367.023 265.775 367.404 266.042 367.688C266.311 367.972 266.655 368.114 267.073 368.114C267.323 368.114 267.577 368.05 267.836 367.922C268.097 367.795 268.316 367.598 268.492 367.334C268.671 367.07 268.76 366.733 268.76 366.324ZM274.25 371.591C273.764 371.591 273.347 371.529 272.997 371.404C272.648 371.282 272.357 371.12 272.124 370.918C271.893 370.719 271.71 370.506 271.574 370.279L272.375 369.716C272.466 369.836 272.581 369.972 272.72 370.125C272.859 370.282 273.05 370.417 273.291 370.53C273.536 370.647 273.855 370.705 274.25 370.705C274.778 370.705 275.214 370.577 275.558 370.322C275.902 370.066 276.074 369.665 276.074 369.12V367.79H275.989C275.915 367.91 275.81 368.057 275.673 368.233C275.54 368.407 275.347 368.562 275.094 368.698C274.844 368.831 274.506 368.898 274.08 368.898C273.551 368.898 273.077 368.773 272.656 368.523C272.239 368.273 271.908 367.91 271.663 367.432C271.422 366.955 271.301 366.375 271.301 365.694C271.301 365.023 271.419 364.439 271.655 363.942C271.891 363.442 272.219 363.056 272.639 362.783C273.06 362.508 273.545 362.37 274.097 362.37C274.523 362.37 274.861 362.441 275.111 362.583C275.364 362.722 275.557 362.881 275.69 363.06C275.827 363.236 275.932 363.381 276.006 363.495H276.108V362.455H277.08V369.188C277.08 369.75 276.952 370.208 276.696 370.56C276.443 370.915 276.102 371.175 275.673 371.34C275.247 371.508 274.773 371.591 274.25 371.591ZM274.216 367.995C274.619 367.995 274.96 367.902 275.239 367.718C275.517 367.533 275.729 367.268 275.874 366.921C276.018 366.574 276.091 366.16 276.091 365.677C276.091 365.205 276.02 364.789 275.878 364.428C275.736 364.067 275.526 363.785 275.247 363.58C274.969 363.375 274.625 363.273 274.216 363.273C273.79 363.273 273.435 363.381 273.151 363.597C272.869 363.813 272.658 364.103 272.516 364.466C272.376 364.83 272.307 365.233 272.307 365.677C272.307 366.131 272.378 366.533 272.52 366.883C272.665 367.229 272.878 367.502 273.159 367.701C273.443 367.897 273.795 367.995 274.216 367.995Z" fill="#868EA3"/>
<path d="M239.815 119.64C239.158 119.64 238.573 119.527 238.06 119.302C237.549 119.076 237.143 118.763 236.842 118.362C236.543 117.958 236.381 117.489 236.354 116.955H237.607C237.634 117.283 237.746 117.567 237.945 117.805C238.144 118.04 238.404 118.223 238.726 118.352C239.047 118.481 239.404 118.546 239.795 118.546C240.232 118.546 240.62 118.47 240.958 118.317C241.296 118.165 241.561 117.953 241.754 117.681C241.946 117.409 242.042 117.094 242.042 116.736C242.042 116.362 241.949 116.032 241.763 115.747C241.578 115.459 241.306 115.233 240.948 115.071C240.59 114.908 240.153 114.827 239.636 114.827H238.82V113.733H239.636C240.04 113.733 240.395 113.661 240.7 113.515C241.008 113.369 241.248 113.163 241.42 112.898C241.596 112.633 241.684 112.322 241.684 111.964C241.684 111.619 241.608 111.319 241.455 111.064C241.303 110.808 241.087 110.61 240.809 110.467C240.534 110.325 240.209 110.253 239.835 110.253C239.483 110.253 239.152 110.318 238.84 110.447C238.532 110.573 238.28 110.757 238.085 110.999C237.889 111.238 237.783 111.526 237.766 111.864H236.573C236.593 111.331 236.754 110.863 237.055 110.462C237.357 110.058 237.751 109.743 238.239 109.518C238.729 109.292 239.268 109.179 239.854 109.179C240.484 109.179 241.024 109.307 241.475 109.562C241.926 109.814 242.272 110.147 242.514 110.562C242.756 110.976 242.877 111.423 242.877 111.904C242.877 112.477 242.726 112.966 242.425 113.371C242.126 113.775 241.72 114.055 241.207 114.211V114.29C241.85 114.396 242.352 114.67 242.713 115.111C243.074 115.548 243.255 116.09 243.255 116.736C243.255 117.29 243.104 117.787 242.803 118.228C242.504 118.665 242.097 119.01 241.58 119.262C241.063 119.514 240.474 119.64 239.815 119.64ZM248.609 119.64C247.86 119.64 247.222 119.436 246.695 119.028C246.168 118.617 245.766 118.022 245.487 117.243C245.209 116.461 245.07 115.517 245.07 114.41C245.07 113.309 245.209 112.37 245.487 111.591C245.769 110.808 246.173 110.212 246.7 109.801C247.231 109.387 247.867 109.179 248.609 109.179C249.352 109.179 249.987 109.387 250.513 109.801C251.044 110.212 251.448 110.808 251.727 111.591C252.008 112.37 252.149 113.309 252.149 114.41C252.149 115.517 252.01 116.461 251.732 117.243C251.453 118.022 251.05 118.617 250.523 119.028C249.996 119.436 249.358 119.64 248.609 119.64ZM248.609 118.546C249.352 118.546 249.929 118.188 250.339 117.472C250.75 116.756 250.956 115.735 250.956 114.41C250.956 113.528 250.862 112.777 250.673 112.157C250.487 111.538 250.219 111.065 249.867 110.741C249.519 110.416 249.1 110.253 248.609 110.253C247.874 110.253 247.299 110.616 246.884 111.342C246.47 112.065 246.263 113.087 246.263 114.41C246.263 115.291 246.356 116.04 246.541 116.657C246.727 117.273 246.994 117.742 247.342 118.064C247.693 118.385 248.116 118.546 248.609 118.546ZM256.942 119.66C256.305 119.66 255.744 119.499 255.256 119.177C254.769 118.853 254.388 118.395 254.113 117.805C253.838 117.212 253.7 116.511 253.7 115.702C253.7 114.9 253.838 114.204 254.113 113.614C254.388 113.024 254.771 112.568 255.261 112.247C255.752 111.925 256.319 111.765 256.962 111.765C257.459 111.765 257.852 111.848 258.14 112.013C258.432 112.176 258.654 112.361 258.806 112.57C258.962 112.776 259.083 112.945 259.169 113.077H259.268V109.319H260.442V119.5H259.308V118.327H259.169C259.083 118.466 258.96 118.642 258.801 118.854C258.642 119.063 258.415 119.25 258.12 119.416C257.825 119.578 257.432 119.66 256.942 119.66ZM257.101 118.606C257.571 118.606 257.969 118.483 258.294 118.238C258.619 117.989 258.866 117.646 259.035 117.209C259.204 116.768 259.288 116.259 259.288 115.682C259.288 115.112 259.205 114.613 259.04 114.186C258.874 113.755 258.629 113.42 258.304 113.182C257.979 112.94 257.578 112.819 257.101 112.819C256.604 112.819 256.189 112.946 255.858 113.201C255.53 113.453 255.283 113.796 255.117 114.231C254.955 114.661 254.874 115.145 254.874 115.682C254.874 116.226 254.956 116.72 255.122 117.164C255.291 117.605 255.54 117.956 255.868 118.218C256.199 118.476 256.61 118.606 257.101 118.606Z" fill="#868EA3"/>
<path fill-rule="evenodd" clip-rule="evenodd" d="M270.234 111.835C270.547 111.522 271.053 111.522 271.366 111.835L274 114.469L276.634 111.835C276.947 111.522 277.453 111.522 277.766 111.835C278.078 112.147 278.078 112.654 277.766 112.966L274.566 116.166C274.253 116.479 273.747 116.479 273.434 116.166L270.234 112.966C269.922 112.654 269.922 112.147 270.234 111.835Z" fill="#868EA3"/>
<rect x="-1237.5" y="-150.5" width="1727" height="63" fill="white"/>
<g filter="url(#filter1_d_1971_85718)">
<mask id="path-19-inside-1_1971_85718" fill="white">
<path d="M250 -86.9995H490V301C490 305.419 486.418 309 482 309H258C253.582 309 250 305.419 250 301V-86.9995Z"/>
</mask>
<path d="M250 -86.9995H490V301C490 305.419 486.418 309 482 309H258C253.582 309 250 305.419 250 301V-86.9995Z" fill="white"/>
<g filter="url(#filter2_d_1971_85718)">
<line x1="250" y1="25.5005" x2="490" y2="25.5005" stroke="#F2F2F8"/>
<path d="M287.307 57.3187V67.5005H286.114L280.565 59.5062H280.466V67.5005H279.233V57.3187H280.426L285.994 65.3329H286.094V57.3187H287.307ZM292.817 67.6596C292.081 67.6596 291.446 67.4972 290.912 67.1724C290.382 66.8442 289.973 66.3869 289.684 65.8002C289.399 65.2102 289.257 64.5242 289.257 63.742C289.257 62.9598 289.399 62.2704 289.684 61.6738C289.973 61.0739 290.374 60.6065 290.888 60.2718C291.405 59.9337 292.008 59.7647 292.697 59.7647C293.095 59.7647 293.488 59.831 293.876 59.9636C294.263 60.0961 294.616 60.3116 294.934 60.6099C295.253 60.9048 295.506 61.2959 295.695 61.7832C295.884 62.2704 295.979 62.8703 295.979 63.5829V64.08H290.092V63.0658H294.785C294.785 62.635 294.699 62.2505 294.527 61.9124C294.358 61.5744 294.116 61.3075 293.801 61.112C293.489 60.9164 293.122 60.8187 292.697 60.8187C292.23 60.8187 291.826 60.9347 291.484 61.1667C291.146 61.3954 290.886 61.6937 290.704 62.0616C290.521 62.4295 290.43 62.8239 290.43 63.2448V63.9209C290.43 64.4976 290.53 64.9865 290.729 65.3876C290.931 65.7853 291.211 66.0886 291.569 66.2974C291.927 66.5029 292.343 66.6056 292.817 66.6056C293.125 66.6056 293.403 66.5625 293.652 66.4763C293.904 66.3869 294.121 66.2543 294.303 66.0786C294.485 65.8996 294.626 65.6776 294.726 65.4124L295.859 65.7306C295.74 66.1151 295.539 66.4531 295.258 66.7448C294.976 67.0332 294.628 67.2585 294.214 67.4209C293.799 67.58 293.334 67.6596 292.817 67.6596ZM299.493 67.5005L297.167 59.8641H298.4L300.05 65.7107H300.13L301.76 59.8641H303.013L304.624 65.6908H304.704L306.354 59.8641H307.587L305.26 67.5005H304.107L302.437 61.634H302.317L300.647 67.5005H299.493ZM316.178 67.6596C315.489 67.6596 314.884 67.4955 314.363 67.1674C313.846 66.8393 313.442 66.3802 313.15 65.7903C312.862 65.2003 312.718 64.5109 312.718 63.7221C312.718 62.9266 312.862 62.2323 313.15 61.639C313.442 61.0457 313.846 60.585 314.363 60.2569C314.884 59.9288 315.489 59.7647 316.178 59.7647C316.867 59.7647 317.471 59.9288 317.988 60.2569C318.508 60.585 318.912 61.0457 319.201 61.639C319.492 62.2323 319.638 62.9266 319.638 63.7221C319.638 64.5109 319.492 65.2003 319.201 65.7903C318.912 66.3802 318.508 66.8393 317.988 67.1674C317.471 67.4955 316.867 67.6596 316.178 67.6596ZM316.178 66.6056C316.702 66.6056 317.133 66.4714 317.471 66.2029C317.809 65.9344 318.059 65.5815 318.221 65.144C318.384 64.7065 318.465 64.2325 318.465 63.7221C318.465 63.2117 318.384 62.736 318.221 62.2952C318.059 61.8544 317.809 61.4981 317.471 61.2263C317.133 60.9546 316.702 60.8187 316.178 60.8187C315.654 60.8187 315.224 60.9546 314.885 61.2263C314.547 61.4981 314.297 61.8544 314.135 62.2952C313.972 62.736 313.891 63.2117 313.891 63.7221C313.891 64.2325 313.972 64.7065 314.135 65.144C314.297 65.5815 314.547 65.9344 314.885 66.2029C315.224 66.4714 315.654 66.6056 316.178 66.6056ZM321.429 67.5005V59.8641H322.563V61.0175H322.642C322.782 60.6397 323.033 60.3331 323.398 60.0978C323.763 59.8625 324.174 59.7448 324.631 59.7448C324.717 59.7448 324.825 59.7465 324.954 59.7498C325.083 59.7531 325.181 59.7581 325.248 59.7647V60.9579C325.208 60.9479 325.117 60.933 324.974 60.9131C324.835 60.8899 324.687 60.8783 324.532 60.8783C324.16 60.8783 323.829 60.9562 323.537 61.112C323.249 61.2645 323.02 61.4766 322.851 61.7484C322.685 62.0168 322.603 62.3234 322.603 62.6681V67.5005H321.429ZM329.488 70.5232C328.922 70.5232 328.434 70.4503 328.027 70.3045C327.619 70.1619 327.279 69.973 327.007 69.7377C326.739 69.5057 326.525 69.2571 326.366 68.992L327.301 68.3357C327.407 68.4749 327.541 68.634 327.703 68.813C327.866 68.9953 328.088 69.1527 328.37 69.2853C328.655 69.4212 329.028 69.4891 329.488 69.4891C330.105 69.4891 330.614 69.34 331.015 69.0417C331.416 68.7434 331.616 68.2761 331.616 67.6397V66.0886H331.517C331.431 66.2278 331.308 66.4001 331.149 66.6056C330.993 66.8078 330.768 66.9884 330.473 67.1475C330.181 67.3033 329.787 67.3812 329.289 67.3812C328.673 67.3812 328.119 67.2353 327.629 66.9437C327.142 66.652 326.756 66.2278 326.471 65.6709C326.189 65.1141 326.048 64.438 326.048 63.6425C326.048 62.8603 326.185 62.1792 326.461 61.5992C326.736 61.0159 327.118 60.5651 327.609 60.2469C328.1 59.9254 328.666 59.7647 329.309 59.7647C329.806 59.7647 330.201 59.8476 330.493 60.0133C330.788 60.1757 331.013 60.3613 331.169 60.5701C331.328 60.7756 331.45 60.9446 331.537 61.0772H331.656V59.8641H332.789V67.7192C332.789 68.3755 332.64 68.9091 332.342 69.3201C332.047 69.7344 331.649 70.0377 331.149 70.2299C330.652 70.4254 330.098 70.5232 329.488 70.5232ZM329.449 66.3272C329.919 66.3272 330.317 66.2195 330.642 66.004C330.967 65.7886 331.213 65.4787 331.382 65.0744C331.551 64.67 331.636 64.1861 331.636 63.6226C331.636 63.0725 331.553 62.5869 331.387 62.166C331.222 61.745 330.976 61.4153 330.652 61.1766C330.327 60.938 329.926 60.8187 329.449 60.8187C328.951 60.8187 328.537 60.9446 328.206 61.1965C327.877 61.4484 327.631 61.7865 327.465 62.2107C327.302 62.635 327.221 63.1056 327.221 63.6226C327.221 64.153 327.304 64.6219 327.47 65.0296C327.639 65.434 327.887 65.7521 328.216 65.9842C328.547 66.2128 328.958 66.3272 329.449 66.3272ZM337.184 67.6795C336.7 67.6795 336.261 67.5883 335.867 67.406C335.472 67.2204 335.159 66.9536 334.927 66.6056C334.695 66.2543 334.579 65.83 334.579 65.3329C334.579 64.8954 334.665 64.5407 334.838 64.269C335.01 63.9939 335.24 63.7784 335.529 63.6226C335.817 63.4669 336.135 63.3509 336.483 63.2746C336.835 63.1951 337.188 63.1321 337.542 63.0857C338.006 63.0261 338.382 62.9813 338.671 62.9515C338.962 62.9183 339.175 62.8637 339.307 62.7874C339.443 62.7112 339.511 62.5786 339.511 62.3897V62.3499C339.511 61.8594 339.377 61.4782 339.108 61.2065C338.843 60.9347 338.44 60.7988 337.9 60.7988C337.34 60.7988 336.901 60.9214 336.583 61.1667C336.265 61.4119 336.041 61.6738 335.912 61.9522L334.798 61.5545C334.997 61.0905 335.262 60.7292 335.593 60.4707C335.928 60.2088 336.293 60.0265 336.687 59.9238C337.085 59.8177 337.476 59.7647 337.86 59.7647C338.106 59.7647 338.387 59.7945 338.706 59.8542C339.027 59.9105 339.337 60.0282 339.635 60.2072C339.937 60.3861 340.187 60.6563 340.386 61.0175C340.585 61.3788 340.684 61.8627 340.684 62.4692V67.5005H339.511V66.4664H339.451C339.372 66.6321 339.239 66.8094 339.054 66.9984C338.868 67.1873 338.621 67.348 338.313 67.4806C338.005 67.6132 337.628 67.6795 337.184 67.6795ZM337.363 66.6255C337.827 66.6255 338.218 66.5343 338.537 66.3521C338.858 66.1698 339.1 65.9344 339.262 65.6461C339.428 65.3577 339.511 65.0545 339.511 64.7363V63.6624C339.461 63.7221 339.352 63.7768 339.183 63.8265C339.017 63.8729 338.825 63.9143 338.606 63.9508C338.391 63.9839 338.18 64.0137 337.975 64.0403C337.773 64.0635 337.609 64.0833 337.483 64.0999C337.178 64.1397 336.893 64.2043 336.627 64.2938C336.366 64.38 336.154 64.5109 335.991 64.6866C335.832 64.8589 335.752 65.0942 335.752 65.3925C335.752 65.8002 335.903 66.1084 336.205 66.3172C336.51 66.5227 336.896 66.6255 337.363 66.6255ZM343.999 62.9067V67.5005H342.826V59.8641H343.959V61.0573H344.059C344.238 60.6695 344.51 60.358 344.874 60.1226C345.239 59.884 345.709 59.7647 346.286 59.7647C346.803 59.7647 347.256 59.8708 347.643 60.0829C348.031 60.2917 348.333 60.6099 348.548 61.0374C348.764 61.4617 348.871 61.9986 348.871 62.6482V67.5005H347.698V62.7278C347.698 62.1279 347.542 61.6605 347.231 61.3258C346.919 60.9877 346.492 60.8187 345.948 60.8187C345.573 60.8187 345.239 60.8999 344.944 61.0623C344.652 61.2247 344.422 61.4617 344.253 61.7732C344.084 62.0848 343.999 62.4626 343.999 62.9067ZM351.015 67.5005V59.8641H352.189V67.5005H351.015ZM351.612 58.5914C351.383 58.5914 351.186 58.5135 351.02 58.3577C350.858 58.202 350.777 58.0147 350.777 57.7959C350.777 57.5772 350.858 57.3899 351.02 57.2342C351.186 57.0784 351.383 57.0005 351.612 57.0005C351.841 57.0005 352.036 57.0784 352.199 57.2342C352.364 57.3899 352.447 57.5772 352.447 57.7959C352.447 58.0147 352.364 58.202 352.199 58.3577C352.036 58.5135 351.841 58.5914 351.612 58.5914ZM359.747 61.5744L358.693 61.8726C358.626 61.697 358.529 61.5263 358.399 61.3606C358.273 61.1915 358.101 61.0523 357.882 60.943C357.664 60.8336 357.383 60.7789 357.042 60.7789C356.575 60.7789 356.185 60.8866 355.874 61.1021C355.566 61.3142 355.411 61.5843 355.411 61.9124C355.411 62.2041 355.517 62.4344 355.73 62.6035C355.942 62.7725 356.273 62.9134 356.724 63.0261L357.857 63.3045C358.54 63.4702 359.049 63.7237 359.384 64.0651C359.718 64.4032 359.886 64.839 359.886 65.3726C359.886 65.8101 359.76 66.2012 359.508 66.5459C359.259 66.8906 358.911 67.1624 358.464 67.3613C358.017 67.5601 357.496 67.6596 356.903 67.6596C356.124 67.6596 355.479 67.4905 354.969 67.1525C354.459 66.8144 354.135 66.3206 353.999 65.6709L355.113 65.3925C355.219 65.8035 355.42 66.1118 355.715 66.3172C356.013 66.5227 356.402 66.6255 356.883 66.6255C357.43 66.6255 357.864 66.5095 358.186 66.2775C358.51 66.0422 358.673 65.7604 358.673 65.4323C358.673 65.1672 358.58 64.9451 358.394 64.7661C358.209 64.5838 357.924 64.4479 357.539 64.3584L356.267 64.0601C355.567 63.8944 355.053 63.6376 354.725 63.2896C354.401 62.9382 354.238 62.4991 354.238 61.9721C354.238 61.5412 354.359 61.1601 354.601 60.8286C354.846 60.4972 355.179 60.237 355.6 60.0481C356.025 59.8592 356.505 59.7647 357.042 59.7647C357.798 59.7647 358.391 59.9304 358.822 60.2619C359.256 60.5933 359.564 61.0308 359.747 61.5744ZM363.899 67.6795C363.415 67.6795 362.976 67.5883 362.582 67.406C362.187 67.2204 361.874 66.9536 361.642 66.6056C361.41 66.2543 361.294 65.83 361.294 65.3329C361.294 64.8954 361.38 64.5407 361.553 64.269C361.725 63.9939 361.955 63.7784 362.244 63.6226C362.532 63.4669 362.85 63.3509 363.198 63.2746C363.549 63.1951 363.902 63.1321 364.257 63.0857C364.721 63.0261 365.097 62.9813 365.386 62.9515C365.677 62.9183 365.889 62.8637 366.022 62.7874C366.158 62.7112 366.226 62.5786 366.226 62.3897V62.3499C366.226 61.8594 366.092 61.4782 365.823 61.2065C365.558 60.9347 365.155 60.7988 364.615 60.7988C364.055 60.7988 363.616 60.9214 363.298 61.1667C362.979 61.4119 362.756 61.6738 362.626 61.9522L361.513 61.5545C361.712 61.0905 361.977 60.7292 362.308 60.4707C362.643 60.2088 363.008 60.0265 363.402 59.9238C363.8 59.8177 364.191 59.7647 364.575 59.7647C364.821 59.7647 365.102 59.7945 365.42 59.8542C365.742 59.9105 366.052 60.0282 366.35 60.2072C366.652 60.3861 366.902 60.6563 367.101 61.0175C367.3 61.3788 367.399 61.8627 367.399 62.4692V67.5005H366.226V66.4664H366.166C366.087 66.6321 365.954 66.8094 365.768 66.9984C365.583 67.1873 365.336 67.348 365.028 67.4806C364.719 67.6132 364.343 67.6795 363.899 67.6795ZM364.078 66.6255C364.542 66.6255 364.933 66.5343 365.251 66.3521C365.573 66.1698 365.815 65.9344 365.977 65.6461C366.143 65.3577 366.226 65.0545 366.226 64.7363V63.6624C366.176 63.7221 366.067 63.7768 365.898 63.8265C365.732 63.8729 365.54 63.9143 365.321 63.9508C365.106 63.9839 364.895 64.0137 364.69 64.0403C364.487 64.0635 364.323 64.0833 364.197 64.0999C363.893 64.1397 363.607 64.2043 363.342 64.2938C363.08 64.38 362.868 64.5109 362.706 64.6866C362.547 64.8589 362.467 65.0942 362.467 65.3925C362.467 65.8002 362.618 66.1084 362.92 66.3172C363.225 66.5227 363.611 66.6255 364.078 66.6255ZM372.862 59.8641V60.8584H368.904V59.8641H372.862ZM370.058 58.0346H371.231V65.313C371.231 65.6444 371.279 65.893 371.375 66.0587C371.475 66.2211 371.601 66.3305 371.753 66.3869C371.909 66.4399 372.073 66.4664 372.245 66.4664C372.374 66.4664 372.481 66.4598 372.563 66.4465C372.646 66.4299 372.713 66.4167 372.762 66.4067L373.001 67.4607C372.921 67.4905 372.81 67.5204 372.668 67.5502C372.525 67.5833 372.345 67.5999 372.126 67.5999C371.794 67.5999 371.47 67.5287 371.151 67.3861C370.837 67.2436 370.575 67.0265 370.366 66.7349C370.16 66.4432 370.058 66.0753 370.058 65.6312V58.0346ZM374.627 67.5005V59.8641H375.8V67.5005H374.627ZM375.223 58.5914C374.994 58.5914 374.797 58.5135 374.632 58.3577C374.469 58.202 374.388 58.0147 374.388 57.7959C374.388 57.5772 374.469 57.3899 374.632 57.2342C374.797 57.0784 374.994 57.0005 375.223 57.0005C375.452 57.0005 375.647 57.0784 375.81 57.2342C375.976 57.3899 376.058 57.5772 376.058 57.7959C376.058 58.0147 375.976 58.202 375.81 58.3577C375.647 58.5135 375.452 58.5914 375.223 58.5914ZM381.051 67.6596C380.362 67.6596 379.757 67.4955 379.237 67.1674C378.719 66.8393 378.315 66.3802 378.023 65.7903C377.735 65.2003 377.591 64.5109 377.591 63.7221C377.591 62.9266 377.735 62.2323 378.023 61.639C378.315 61.0457 378.719 60.585 379.237 60.2569C379.757 59.9288 380.362 59.7647 381.051 59.7647C381.741 59.7647 382.344 59.9288 382.861 60.2569C383.381 60.585 383.786 61.0457 384.074 61.639C384.366 62.2323 384.511 62.9266 384.511 63.7221C384.511 64.5109 384.366 65.2003 384.074 65.7903C383.786 66.3802 383.381 66.8393 382.861 67.1674C382.344 67.4955 381.741 67.6596 381.051 67.6596ZM381.051 66.6056C381.575 66.6056 382.006 66.4714 382.344 66.2029C382.682 65.9344 382.932 65.5815 383.094 65.144C383.257 64.7065 383.338 64.2325 383.338 63.7221C383.338 63.2117 383.257 62.736 383.094 62.2952C382.932 61.8544 382.682 61.4981 382.344 61.2263C382.006 60.9546 381.575 60.8187 381.051 60.8187C380.527 60.8187 380.097 60.9546 379.759 61.2263C379.42 61.4981 379.17 61.8544 379.008 62.2952C378.845 62.736 378.764 63.2117 378.764 63.7221C378.764 64.2325 378.845 64.7065 379.008 65.144C379.17 65.5815 379.42 65.9344 379.759 66.2029C380.097 66.4714 380.527 66.6056 381.051 66.6056ZM387.476 62.9067V67.5005H386.302V59.8641H387.436V61.0573H387.535C387.714 60.6695 387.986 60.358 388.351 60.1226C388.715 59.884 389.186 59.7647 389.763 59.7647C390.28 59.7647 390.732 59.8708 391.12 60.0829C391.508 60.2917 391.809 60.6099 392.025 61.0374C392.24 61.4617 392.348 61.9986 392.348 62.6482V67.5005H391.175V62.7278C391.175 62.1279 391.019 61.6605 390.707 61.3258C390.396 60.9877 389.968 60.8187 389.425 60.8187C389.05 60.8187 388.715 60.8999 388.42 61.0623C388.129 61.2247 387.898 61.4617 387.729 61.7732C387.56 62.0848 387.476 62.4626 387.476 62.9067Z" fill="#616B7C"/>
<path fill-rule="evenodd" clip-rule="evenodd" d="M461 56.0005C461.663 56.0005 462.2 56.5377 462.2 57.2005V60.8005L465.8 60.8005C466.463 60.8005 467 61.3377 467 62.0005C467 62.6632 466.463 63.2005 465.8 63.2005H462.2V66.8005C462.2 67.4632 461.663 68.0005 461 68.0005C460.337 68.0005 459.8 67.4632 459.8 66.8005V63.2005H456.2C455.537 63.2005 455 62.6632 455 62.0005C455 61.3377 455.537 60.8005 456.2 60.8005L459.8 60.8005V57.2005C459.8 56.5377 460.337 56.0005 461 56.0005Z" fill="#C4C6D7"/>
<path d="M278.358 105.819H279.77L282.594 110.572H282.713L285.537 105.819H286.949L283.27 111.804V116H282.037V111.804L278.358 105.819ZM290.407 116.16C289.717 116.16 289.112 115.996 288.592 115.667C288.075 115.339 287.671 114.88 287.379 114.29C287.091 113.7 286.946 113.011 286.946 112.222C286.946 111.427 287.091 110.732 287.379 110.139C287.671 109.546 288.075 109.085 288.592 108.757C289.112 108.429 289.717 108.265 290.407 108.265C291.096 108.265 291.699 108.429 292.216 108.757C292.737 109.085 293.141 109.546 293.429 110.139C293.721 110.732 293.867 111.427 293.867 112.222C293.867 113.011 293.721 113.7 293.429 114.29C293.141 114.88 292.737 115.339 292.216 115.667C291.699 115.996 291.096 116.16 290.407 116.16ZM290.407 115.106C290.93 115.106 291.361 114.971 291.699 114.703C292.037 114.434 292.288 114.081 292.45 113.644C292.612 113.206 292.694 112.732 292.694 112.222C292.694 111.712 292.612 111.236 292.45 110.795C292.288 110.354 292.037 109.998 291.699 109.726C291.361 109.455 290.93 109.319 290.407 109.319C289.883 109.319 289.452 109.455 289.114 109.726C288.776 109.998 288.526 110.354 288.363 110.795C288.201 111.236 288.12 111.712 288.12 112.222C288.12 112.732 288.201 113.206 288.363 113.644C288.526 114.081 288.776 114.434 289.114 114.703C289.452 114.971 289.883 115.106 290.407 115.106ZM300.47 112.878V108.364H301.644V116H300.47V114.708H300.391C300.212 115.096 299.933 115.425 299.556 115.697C299.178 115.966 298.7 116.1 298.124 116.1C297.646 116.1 297.222 115.996 296.851 115.787C296.48 115.575 296.188 115.256 295.976 114.832C295.764 114.405 295.658 113.866 295.658 113.216V108.364H296.831V113.137C296.831 113.694 296.987 114.138 297.298 114.469C297.613 114.801 298.014 114.966 298.502 114.966C298.793 114.966 299.09 114.892 299.392 114.743C299.696 114.594 299.952 114.365 300.157 114.057C300.366 113.748 300.47 113.356 300.47 112.878ZM303.793 116V108.364H304.926V109.518H305.006C305.145 109.14 305.397 108.833 305.761 108.598C306.126 108.362 306.537 108.245 306.994 108.245C307.08 108.245 307.188 108.246 307.317 108.25C307.447 108.253 307.545 108.258 307.611 108.265V109.458C307.571 109.448 307.48 109.433 307.337 109.413C307.198 109.39 307.051 109.378 306.895 109.378C306.524 109.378 306.192 109.456 305.901 109.612C305.612 109.764 305.384 109.977 305.214 110.248C305.049 110.517 304.966 110.823 304.966 111.168V116H303.793ZM313.516 116H312.223L315.962 105.819H317.235L320.973 116H319.681L316.638 107.429H316.558L313.516 116ZM313.993 112.023H319.203V113.117H313.993V112.023ZM325.502 116.16C324.786 116.16 324.17 115.991 323.653 115.652C323.136 115.314 322.738 114.849 322.46 114.255C322.181 113.662 322.042 112.984 322.042 112.222C322.042 111.447 322.185 110.762 322.47 110.169C322.758 109.572 323.159 109.107 323.673 108.772C324.19 108.434 324.793 108.265 325.482 108.265C326.019 108.265 326.503 108.364 326.934 108.563C327.365 108.762 327.718 109.04 327.993 109.398C328.268 109.756 328.439 110.174 328.505 110.651H327.332C327.242 110.303 327.044 109.995 326.735 109.726C326.43 109.455 326.019 109.319 325.502 109.319C325.045 109.319 324.644 109.438 324.299 109.677C323.958 109.912 323.691 110.245 323.499 110.676C323.31 111.103 323.215 111.606 323.215 112.182C323.215 112.772 323.308 113.286 323.494 113.723C323.683 114.161 323.948 114.501 324.289 114.743C324.634 114.985 325.038 115.106 325.502 115.106C325.807 115.106 326.084 115.053 326.333 114.947C326.581 114.84 326.792 114.688 326.964 114.489C327.136 114.29 327.259 114.052 327.332 113.773H328.505C328.439 114.224 328.275 114.63 328.013 114.991C327.754 115.349 327.411 115.634 326.984 115.846C326.56 116.055 326.066 116.16 325.502 116.16ZM333.323 116.16C332.607 116.16 331.99 115.991 331.473 115.652C330.956 115.314 330.558 114.849 330.28 114.255C330.002 113.662 329.862 112.984 329.862 112.222C329.862 111.447 330.005 110.762 330.29 110.169C330.578 109.572 330.979 109.107 331.493 108.772C332.01 108.434 332.613 108.265 333.303 108.265C333.84 108.265 334.324 108.364 334.754 108.563C335.185 108.762 335.538 109.04 335.813 109.398C336.088 109.756 336.259 110.174 336.325 110.651H335.152C335.063 110.303 334.864 109.995 334.556 109.726C334.251 109.455 333.84 109.319 333.323 109.319C332.865 109.319 332.464 109.438 332.119 109.677C331.778 109.912 331.511 110.245 331.319 110.676C331.13 111.103 331.036 111.606 331.036 112.182C331.036 112.772 331.128 113.286 331.314 113.723C331.503 114.161 331.768 114.501 332.11 114.743C332.454 114.985 332.859 115.106 333.323 115.106C333.628 115.106 333.904 115.053 334.153 114.947C334.401 114.84 334.612 114.688 334.784 114.489C334.957 114.29 335.079 114.052 335.152 113.773H336.325C336.259 114.224 336.095 114.63 335.833 114.991C335.575 115.349 335.232 115.634 334.804 115.846C334.38 116.055 333.886 116.16 333.323 116.16ZM341.143 116.16C340.454 116.16 339.849 115.996 339.328 115.667C338.811 115.339 338.407 114.88 338.115 114.29C337.827 113.7 337.683 113.011 337.683 112.222C337.683 111.427 337.827 110.732 338.115 110.139C338.407 109.546 338.811 109.085 339.328 108.757C339.849 108.429 340.454 108.265 341.143 108.265C341.832 108.265 342.436 108.429 342.953 108.757C343.473 109.085 343.877 109.546 344.166 110.139C344.457 110.732 344.603 111.427 344.603 112.222C344.603 113.011 344.457 113.7 344.166 114.29C343.877 114.88 343.473 115.339 342.953 115.667C342.436 115.996 341.832 116.16 341.143 116.16ZM341.143 115.106C341.667 115.106 342.097 114.971 342.436 114.703C342.774 114.434 343.024 114.081 343.186 113.644C343.349 113.206 343.43 112.732 343.43 112.222C343.43 111.712 343.349 111.236 343.186 110.795C343.024 110.354 342.774 109.998 342.436 109.726C342.097 109.455 341.667 109.319 341.143 109.319C340.619 109.319 340.188 109.455 339.85 109.726C339.512 109.998 339.262 110.354 339.1 110.795C338.937 111.236 338.856 111.712 338.856 112.222C338.856 112.732 338.937 113.206 339.1 113.644C339.262 114.081 339.512 114.434 339.85 114.703C340.188 114.971 340.619 115.106 341.143 115.106ZM351.207 112.878V108.364H352.38V116H351.207V114.708H351.127C350.948 115.096 350.67 115.425 350.292 115.697C349.914 115.966 349.437 116.1 348.86 116.1C348.383 116.1 347.959 115.996 347.587 115.787C347.216 115.575 346.924 115.256 346.712 114.832C346.5 114.405 346.394 113.866 346.394 113.216V108.364H347.567V113.137C347.567 113.694 347.723 114.138 348.035 114.469C348.35 114.801 348.751 114.966 349.238 114.966C349.53 114.966 349.826 114.892 350.128 114.743C350.433 114.594 350.688 114.365 350.893 114.057C351.102 113.748 351.207 113.356 351.207 112.878ZM355.702 111.407V116H354.529V108.364H355.662V109.557H355.762C355.941 109.17 356.213 108.858 356.577 108.623C356.942 108.384 357.412 108.265 357.989 108.265C358.506 108.265 358.959 108.371 359.346 108.583C359.734 108.792 360.036 109.11 360.251 109.537C360.467 109.962 360.574 110.499 360.574 111.148V116H359.401V111.228C359.401 110.628 359.245 110.161 358.934 109.826C358.622 109.488 358.195 109.319 357.651 109.319C357.277 109.319 356.942 109.4 356.647 109.562C356.355 109.725 356.125 109.962 355.956 110.273C355.787 110.585 355.702 110.963 355.702 111.407ZM366.039 108.364V109.358H362.082V108.364H366.039ZM363.235 106.535H364.409V113.813C364.409 114.144 364.457 114.393 364.553 114.559C364.652 114.721 364.778 114.831 364.931 114.887C365.087 114.94 365.251 114.966 365.423 114.966C365.552 114.966 365.658 114.96 365.741 114.947C365.824 114.93 365.89 114.917 365.94 114.907L366.179 115.961C366.099 115.991 365.988 116.02 365.846 116.05C365.703 116.083 365.522 116.1 365.304 116.1C364.972 116.1 364.647 116.029 364.329 115.886C364.014 115.744 363.752 115.527 363.544 115.235C363.338 114.943 363.235 114.575 363.235 114.131V106.535Z" fill="#616B7C"/>
<path d="M284.801 155.364C284.741 154.86 284.5 154.469 284.075 154.191C283.651 153.912 283.131 153.773 282.514 153.773C282.063 153.773 281.669 153.846 281.331 153.992C280.996 154.138 280.734 154.338 280.545 154.594C280.36 154.849 280.267 155.139 280.267 155.464C280.267 155.735 280.332 155.969 280.461 156.165C280.594 156.357 280.763 156.518 280.968 156.647C281.174 156.773 281.389 156.877 281.614 156.96C281.84 157.04 282.047 157.104 282.236 157.154L283.27 157.432C283.535 157.502 283.83 157.598 284.155 157.721C284.483 157.843 284.796 158.011 285.094 158.223C285.396 158.432 285.645 158.7 285.84 159.028C286.036 159.356 286.134 159.759 286.134 160.236C286.134 160.786 285.989 161.284 285.701 161.728C285.416 162.172 284.998 162.525 284.448 162.787C283.901 163.049 283.237 163.179 282.455 163.179C281.725 163.179 281.094 163.062 280.56 162.826C280.03 162.591 279.612 162.263 279.308 161.842C279.006 161.421 278.835 160.932 278.795 160.375H280.068C280.101 160.76 280.231 161.078 280.456 161.33C280.685 161.579 280.973 161.764 281.321 161.887C281.672 162.006 282.05 162.066 282.455 162.066C282.925 162.066 283.348 161.99 283.722 161.837C284.097 161.681 284.393 161.466 284.612 161.191C284.831 160.912 284.94 160.588 284.94 160.216C284.94 159.878 284.846 159.603 284.657 159.391C284.468 159.179 284.219 159.007 283.911 158.874C283.603 158.741 283.27 158.625 282.912 158.526L281.659 158.168C280.864 157.939 280.234 157.613 279.77 157.189C279.306 156.764 279.074 156.209 279.074 155.523C279.074 154.953 279.228 154.456 279.536 154.032C279.848 153.604 280.265 153.273 280.789 153.037C281.316 152.799 281.904 152.679 282.554 152.679C283.21 152.679 283.794 152.797 284.304 153.032C284.814 153.264 285.219 153.583 285.517 153.987C285.819 154.391 285.978 154.85 285.994 155.364H284.801ZM288.002 163V155.364H289.175V163H288.002ZM288.598 154.091C288.369 154.091 288.172 154.014 288.007 153.858C287.844 153.702 287.763 153.515 287.763 153.296C287.763 153.077 287.844 152.89 288.007 152.734C288.172 152.578 288.369 152.5 288.598 152.5C288.827 152.5 289.022 152.578 289.185 152.734C289.351 152.89 289.433 153.077 289.433 153.296C289.433 153.515 289.351 153.702 289.185 153.858C289.022 154.014 288.827 154.091 288.598 154.091ZM294.406 166.023C293.839 166.023 293.352 165.95 292.945 165.804C292.537 165.662 292.197 165.473 291.925 165.238C291.657 165.006 291.443 164.757 291.284 164.492L292.219 163.836C292.325 163.975 292.459 164.134 292.621 164.313C292.784 164.495 293.006 164.653 293.288 164.785C293.573 164.921 293.946 164.989 294.406 164.989C295.023 164.989 295.531 164.84 295.933 164.542C296.334 164.243 296.534 163.776 296.534 163.14V161.589H296.435C296.348 161.728 296.226 161.9 296.067 162.106C295.911 162.308 295.686 162.488 295.391 162.648C295.099 162.803 294.705 162.881 294.207 162.881C293.591 162.881 293.037 162.735 292.547 162.444C292.06 162.152 291.674 161.728 291.388 161.171C291.107 160.614 290.966 159.938 290.966 159.143C290.966 158.36 291.103 157.679 291.379 157.099C291.654 156.516 292.036 156.065 292.527 155.747C293.018 155.425 293.584 155.265 294.227 155.265C294.724 155.265 295.119 155.348 295.411 155.513C295.705 155.676 295.931 155.861 296.087 156.07C296.246 156.276 296.368 156.445 296.455 156.577H296.574V155.364H297.707V163.219C297.707 163.875 297.558 164.409 297.26 164.82C296.965 165.234 296.567 165.538 296.067 165.73C295.57 165.925 295.016 166.023 294.406 166.023ZM294.366 161.827C294.837 161.827 295.235 161.719 295.56 161.504C295.884 161.289 296.131 160.979 296.3 160.574C296.469 160.17 296.554 159.686 296.554 159.123C296.554 158.572 296.471 158.087 296.305 157.666C296.14 157.245 295.894 156.915 295.57 156.677C295.245 156.438 294.844 156.319 294.366 156.319C293.869 156.319 293.455 156.445 293.124 156.697C292.795 156.948 292.549 157.286 292.383 157.711C292.22 158.135 292.139 158.606 292.139 159.123C292.139 159.653 292.222 160.122 292.388 160.53C292.557 160.934 292.805 161.252 293.134 161.484C293.465 161.713 293.876 161.827 294.366 161.827ZM301.028 158.407V163H299.855V155.364H300.989V156.557H301.088C301.267 156.17 301.539 155.858 301.903 155.623C302.268 155.384 302.739 155.265 303.315 155.265C303.832 155.265 304.285 155.371 304.673 155.583C305.06 155.792 305.362 156.11 305.577 156.537C305.793 156.962 305.901 157.499 305.901 158.148V163H304.727V158.228C304.727 157.628 304.571 157.161 304.26 156.826C303.948 156.488 303.521 156.319 302.977 156.319C302.603 156.319 302.268 156.4 301.973 156.562C301.681 156.725 301.451 156.962 301.282 157.273C301.113 157.585 301.028 157.963 301.028 158.407ZM320.732 157.91C320.732 158.983 320.538 159.911 320.15 160.694C319.763 161.476 319.231 162.079 318.555 162.503C317.878 162.928 317.106 163.14 316.238 163.14C315.369 163.14 314.597 162.928 313.921 162.503C313.245 162.079 312.713 161.476 312.325 160.694C311.937 159.911 311.743 158.983 311.743 157.91C311.743 156.836 311.937 155.908 312.325 155.125C312.713 154.343 313.245 153.74 313.921 153.316C314.597 152.892 315.369 152.679 316.238 152.679C317.106 152.679 317.878 152.892 318.555 153.316C319.231 153.74 319.763 154.343 320.15 155.125C320.538 155.908 320.732 156.836 320.732 157.91ZM319.539 157.91C319.539 157.028 319.391 156.284 319.096 155.677C318.805 155.071 318.409 154.612 317.908 154.3C317.411 153.989 316.854 153.833 316.238 153.833C315.621 153.833 315.063 153.989 314.562 154.3C314.065 154.612 313.669 155.071 313.374 155.677C313.082 156.284 312.937 157.028 312.937 157.91C312.937 158.791 313.082 159.535 313.374 160.142C313.669 160.748 314.065 161.207 314.562 161.519C315.063 161.831 315.621 161.986 316.238 161.986C316.854 161.986 317.411 161.831 317.908 161.519C318.409 161.207 318.805 160.748 319.096 160.142C319.391 159.535 319.539 158.791 319.539 157.91ZM327.459 159.878V155.364H328.632V163H327.459V161.708H327.379C327.2 162.096 326.922 162.425 326.544 162.697C326.166 162.966 325.689 163.1 325.112 163.1C324.635 163.1 324.211 162.996 323.839 162.787C323.468 162.575 323.176 162.256 322.964 161.832C322.752 161.405 322.646 160.866 322.646 160.216V155.364H323.819V160.137C323.819 160.694 323.975 161.138 324.287 161.469C324.602 161.801 325.003 161.966 325.49 161.966C325.782 161.966 326.078 161.892 326.38 161.743C326.685 161.594 326.94 161.365 327.145 161.057C327.354 160.748 327.459 160.356 327.459 159.878ZM334.102 155.364V156.358H330.145V155.364H334.102ZM331.298 153.535H332.471V160.813C332.471 161.144 332.519 161.393 332.615 161.559C332.715 161.721 332.841 161.831 332.993 161.887C333.149 161.94 333.313 161.966 333.485 161.966C333.615 161.966 333.721 161.96 333.804 161.947C333.886 161.93 333.953 161.917 334.002 161.907L334.241 162.961C334.162 162.991 334.051 163.02 333.908 163.05C333.766 163.083 333.585 163.1 333.366 163.1C333.035 163.1 332.71 163.029 332.392 162.886C332.077 162.744 331.815 162.527 331.606 162.235C331.401 161.943 331.298 161.575 331.298 161.131V153.535Z" fill="#616B7C"/>
<path d="M456 150.5C455.448 150.5 455 150.948 455 151.5V163.5C455 164.053 455.448 164.5 456 164.5C456.552 164.5 457 164.053 457 163.5V151.5C457 150.948 456.552 150.5 456 150.5Z" fill="#C4C6D7"/>
<path d="M466.293 159.793C465.902 160.184 465.902 160.817 466.293 161.208C466.683 161.598 467.317 161.598 467.707 161.208L470.707 158.208C470.895 158.02 471 157.766 471 157.5C471 157.235 470.895 156.981 470.707 156.793L467.707 153.793C467.317 153.403 466.683 153.403 466.293 153.793C465.902 154.184 465.902 154.817 466.293 155.208L467.586 156.5L460 156.5C459.448 156.5 459 156.948 459 157.5C459 158.053 459.448 158.5 460 158.5H467.586L466.293 159.793Z" fill="#C4C6D7"/>
<line x1="250" y1="191.5" x2="489" y2="191.5" stroke="#F2F2F8"/>
<mask id="mask0_1971_85718" style="mask-type:alpha" maskUnits="userSpaceOnUse" x="262" y="208" width="64" height="56">
<rect x="262.506" y="208" width="63.33" height="55.255" rx="8" fill="#F2F2F8"/>
</mask>
<g mask="url(#mask0_1971_85718)">
<rect x="262.506" y="208" width="63.33" height="55.255" rx="8" fill="#F2F2F8"/>
<rect x="277.746" y="215.756" width="48.7701" height="50.4081" rx="4" fill="#FCFCFF"/>
<path d="M287.29 236.511H286.182L289.386 227.783H290.477L293.682 236.511H292.574L289.966 229.164H289.898L287.29 236.511ZM287.699 233.102H292.165V234.039H287.699V233.102ZM296.831 236.664C296.416 236.664 296.04 236.586 295.702 236.43C295.364 236.271 295.095 236.042 294.896 235.744C294.697 235.443 294.598 235.079 294.598 234.653C294.598 234.278 294.672 233.974 294.82 233.741C294.967 233.505 295.165 233.32 295.412 233.187C295.659 233.053 295.932 232.954 296.23 232.889C296.531 232.82 296.834 232.766 297.138 232.727C297.536 232.676 297.858 232.637 298.105 232.612C298.355 232.583 298.537 232.536 298.651 232.471C298.767 232.406 298.825 232.292 298.825 232.13V232.096C298.825 231.676 298.71 231.349 298.48 231.116C298.253 230.883 297.908 230.766 297.445 230.766C296.964 230.766 296.588 230.872 296.315 231.082C296.043 231.292 295.851 231.516 295.74 231.755L294.786 231.414C294.956 231.016 295.183 230.707 295.467 230.485C295.754 230.261 296.067 230.104 296.405 230.016C296.746 229.926 297.081 229.88 297.411 229.88C297.621 229.88 297.862 229.906 298.135 229.957C298.411 230.005 298.676 230.106 298.932 230.259C299.19 230.413 299.405 230.644 299.575 230.954C299.746 231.264 299.831 231.678 299.831 232.198V236.511H298.825V235.624H298.774C298.706 235.766 298.592 235.918 298.433 236.08C298.274 236.242 298.063 236.38 297.798 236.494C297.534 236.607 297.212 236.664 296.831 236.664ZM296.984 235.761C297.382 235.761 297.717 235.683 297.99 235.526C298.266 235.37 298.473 235.168 298.612 234.921C298.754 234.674 298.825 234.414 298.825 234.141V233.221C298.783 233.272 298.689 233.319 298.544 233.362C298.402 233.401 298.237 233.437 298.05 233.468C297.865 233.497 297.685 233.522 297.509 233.545C297.335 233.565 297.195 233.582 297.087 233.596C296.825 233.63 296.581 233.685 296.354 233.762C296.129 233.836 295.947 233.948 295.808 234.099C295.672 234.247 295.604 234.448 295.604 234.704C295.604 235.053 295.733 235.318 295.991 235.497C296.253 235.673 296.584 235.761 296.984 235.761Z" fill="#373B4D"/>
</g>
<rect x="286.67" y="275.756" width="15" height="15" rx="3.5" fill="white" stroke="#C4C6D7"/>
<mask id="mask1_1971_85718" style="mask-type:alpha" maskUnits="userSpaceOnUse" x="337" y="208" width="65" height="58">
<rect x="337.836" y="208" width="63.33" height="57" rx="8" fill="#373B4D"/>
</mask>
<g mask="url(#mask1_1971_85718)">
<rect x="337.836" y="208" width="65.3621" height="57" rx="8" fill="#373B4D"/>
<rect x="354.094" y="216" width="48.7701" height="52" rx="4" fill="#616B7C"/>
<path d="M363.637 237H362.529L365.734 228.273H366.825L370.029 237H368.922L366.314 229.654H366.245L363.637 237ZM364.047 233.591H368.512V234.529H364.047V233.591ZM373.179 237.154C372.764 237.154 372.387 237.076 372.049 236.92C371.711 236.76 371.443 236.532 371.244 236.233C371.045 235.932 370.946 235.569 370.946 235.143C370.946 234.768 371.02 234.464 371.167 234.231C371.315 233.995 371.512 233.81 371.76 233.677C372.007 233.543 372.279 233.444 372.578 233.378C372.879 233.31 373.181 233.256 373.485 233.216C373.883 233.165 374.206 233.127 374.453 233.101C374.703 233.073 374.885 233.026 374.998 232.961C375.115 232.895 375.173 232.782 375.173 232.62V232.586C375.173 232.165 375.058 231.839 374.828 231.606C374.6 231.373 374.255 231.256 373.792 231.256C373.312 231.256 372.936 231.361 372.663 231.572C372.39 231.782 372.199 232.006 372.088 232.245L371.133 231.904C371.304 231.506 371.531 231.197 371.815 230.975C372.102 230.75 372.414 230.594 372.752 230.506C373.093 230.415 373.429 230.37 373.758 230.37C373.968 230.37 374.21 230.395 374.483 230.447C374.758 230.495 375.024 230.596 375.279 230.749C375.538 230.902 375.752 231.134 375.923 231.444C376.093 231.753 376.179 232.168 376.179 232.688V237H375.173V236.114H375.122C375.054 236.256 374.94 236.408 374.781 236.57C374.622 236.732 374.41 236.87 374.146 236.983C373.882 237.097 373.559 237.154 373.179 237.154ZM373.332 236.25C373.73 236.25 374.065 236.172 374.338 236.016C374.613 235.86 374.821 235.658 374.96 235.411C375.102 235.164 375.173 234.904 375.173 234.631V233.711C375.13 233.762 375.037 233.809 374.892 233.851C374.75 233.891 374.585 233.927 374.397 233.958C374.213 233.986 374.032 234.012 373.856 234.035C373.683 234.054 373.542 234.072 373.434 234.086C373.173 234.12 372.929 234.175 372.701 234.252C372.477 234.326 372.295 234.438 372.156 234.589C372.02 234.736 371.951 234.938 371.951 235.194C371.951 235.543 372.081 235.807 372.339 235.986C372.6 236.162 372.931 236.25 373.332 236.25Z" fill="#FCFCFF"/>
</g>
<rect x="362" y="277.5" width="15" height="15" rx="3.5" fill="white" stroke="#C4C6D7"/>
<rect x="413.164" y="208" width="63.33" height="57" rx="8" fill="#373B4D"/>
<mask id="mask2_1971_85718" style="mask-type:alpha" maskUnits="userSpaceOnUse" x="413" y="208" width="64" height="58">
<rect x="413.164" y="208" width="63.33" height="57" rx="8" fill="#373B4D"/>
</mask>
<g mask="url(#mask2_1971_85718)">
<rect x="413.164" y="208" width="65.3621" height="57" rx="8" fill="#373B4D"/>
<rect x="417.227" y="217" width="32.5134" height="52" rx="4" fill="#616B7C"/>
<path d="M426.77 238H425.662L428.867 229.273H429.958L433.162 238H432.054L429.446 230.654H429.378L426.77 238ZM427.179 234.591H431.645V235.529H427.179V234.591ZM436.311 238.154C435.897 238.154 435.52 238.076 435.182 237.92C434.844 237.76 434.576 237.532 434.377 237.233C434.178 236.932 434.078 236.569 434.078 236.143C434.078 235.768 434.152 235.464 434.3 235.231C434.448 234.995 434.645 234.81 434.892 234.677C435.14 234.543 435.412 234.444 435.711 234.378C436.012 234.31 436.314 234.256 436.618 234.216C437.016 234.165 437.338 234.127 437.586 234.101C437.836 234.073 438.017 234.026 438.131 233.961C438.248 233.895 438.306 233.782 438.306 233.62V233.586C438.306 233.165 438.191 232.839 437.961 232.606C437.733 232.373 437.388 232.256 436.925 232.256C436.445 232.256 436.069 232.361 435.796 232.572C435.523 232.782 435.331 233.006 435.221 233.245L434.266 232.904C434.436 232.506 434.664 232.197 434.948 231.975C435.235 231.75 435.547 231.594 435.885 231.506C436.226 231.415 436.561 231.37 436.891 231.37C437.101 231.37 437.343 231.395 437.615 231.447C437.891 231.495 438.157 231.596 438.412 231.749C438.671 231.902 438.885 232.134 439.056 232.444C439.226 232.753 439.311 233.168 439.311 233.688V238H438.306V237.114H438.255C438.186 237.256 438.073 237.408 437.914 237.57C437.755 237.732 437.543 237.87 437.279 237.983C437.015 238.097 436.692 238.154 436.311 238.154ZM436.465 237.25C436.863 237.25 437.198 237.172 437.471 237.016C437.746 236.86 437.953 236.658 438.093 236.411C438.235 236.164 438.306 235.904 438.306 235.631V234.711C438.263 234.762 438.169 234.809 438.025 234.851C437.882 234.891 437.718 234.927 437.53 234.958C437.346 234.986 437.165 235.012 436.989 235.035C436.816 235.054 436.675 235.072 436.567 235.086C436.306 235.12 436.061 235.175 435.834 235.252C435.61 235.326 435.428 235.438 435.289 235.589C435.152 235.736 435.084 235.938 435.084 236.194C435.084 236.543 435.213 236.807 435.472 236.986C435.733 237.162 436.064 237.25 436.465 237.25Z" fill="#FCFCFF"/>
<rect x="445.676" y="208" width="31.4974" height="57" fill="#F2F2F8"/>
<rect x="449.742" y="217" width="28.4492" height="52" rx="4" fill="#FCFCFF"/>
<path d="M459.286 238H458.178L461.382 229.273H462.473L465.678 238H464.57L461.962 230.654H461.894L459.286 238ZM459.695 234.591H464.161V235.529H459.695V234.591ZM468.827 238.154C468.412 238.154 468.036 238.076 467.698 237.92C467.36 237.76 467.091 237.532 466.892 237.233C466.694 236.932 466.594 236.569 466.594 236.143C466.594 235.768 466.668 235.464 466.816 235.231C466.963 234.995 467.161 234.81 467.408 234.677C467.655 234.543 467.928 234.444 468.226 234.378C468.527 234.31 468.83 234.256 469.134 234.216C469.532 234.165 469.854 234.127 470.101 234.101C470.351 234.073 470.533 234.026 470.647 233.961C470.763 233.895 470.821 233.782 470.821 233.62V233.586C470.821 233.165 470.706 232.839 470.476 232.606C470.249 232.373 469.904 232.256 469.441 232.256C468.961 232.256 468.584 232.361 468.311 232.572C468.039 232.782 467.847 233.006 467.736 233.245L466.782 232.904C466.952 232.506 467.179 232.197 467.463 231.975C467.75 231.75 468.063 231.594 468.401 231.506C468.742 231.415 469.077 231.37 469.407 231.37C469.617 231.37 469.858 231.395 470.131 231.447C470.407 231.495 470.672 231.596 470.928 231.749C471.186 231.902 471.401 232.134 471.571 232.444C471.742 232.753 471.827 233.168 471.827 233.688V238H470.821V237.114H470.77C470.702 237.256 470.588 237.408 470.429 237.57C470.27 237.732 470.059 237.87 469.794 237.983C469.53 238.097 469.208 238.154 468.827 238.154ZM468.98 237.25C469.378 237.25 469.713 237.172 469.986 237.016C470.262 236.86 470.469 236.658 470.608 236.411C470.75 236.164 470.821 235.904 470.821 235.631V234.711C470.779 234.762 470.685 234.809 470.54 234.851C470.398 234.891 470.233 234.927 470.046 234.958C469.861 234.986 469.681 235.012 469.505 235.035C469.331 235.054 469.191 235.072 469.083 235.086C468.821 235.12 468.577 235.175 468.35 235.252C468.125 235.326 467.944 235.438 467.804 235.589C467.668 235.736 467.6 235.938 467.6 236.194C467.6 236.543 467.729 236.807 467.988 236.986C468.249 237.162 468.58 237.25 468.98 237.25Z" fill="#4F5769"/>
</g>
<rect x="436.828" y="277" width="16" height="16" rx="4" fill="#00A7C3"/>
<rect x="437.328" y="277.5" width="15" height="15" rx="3.5" fill="#00A7C3" stroke="#00A7C3"/>
<path fill-rule="evenodd" clip-rule="evenodd" d="M450.192 281.235C450.505 281.547 450.505 282.054 450.192 282.366L443.792 288.766C443.48 289.079 442.973 289.079 442.661 288.766L439.461 285.566C439.148 285.254 439.148 284.747 439.461 284.435C439.773 284.122 440.28 284.122 440.592 284.435L443.227 287.069L449.061 281.235C449.373 280.922 449.88 280.922 450.192 281.235Z" fill="white"/>
</g>
<path d="M250 -86.9995H490H250ZM491 301C491 305.971 486.971 310 482 310H258C253.029 310 249 305.971 249 301H251C251 304.866 254.134 308 258 308H482C485.866 308 489 304.866 489 301H491ZM258 310C253.029 310 249 305.971 249 301V-86.9995H251V301C251 304.866 254.134 308 258 308V310ZM491 -86.9995V301C491 305.971 486.971 310 482 310V308C485.866 308 489 304.866 489 301V-86.9995H491Z" fill="#F2F2F8" mask="url(#path-19-inside-1_1971_85718)"/>
</g>
<rect x="-1237.5" y="-150.5" width="1727" height="63" stroke="#F2F2F8"/>
</g>
</g>
<rect x="0.5" y="0.500488" width="489" height="393.5" rx="16.5" stroke="#F2F2F8"/>
<defs>
<filter id="filter0_d_1971_85718" x="-294.5" y="49.5005" width="637.391" height="405" filterUnits="userSpaceOnUse" color-interpolation-filters="sRGB">
<feFlood flood-opacity="0" result="BackgroundImageFix"/>
<feColorMatrix in="SourceAlpha" type="matrix" values="0 0 0 0 0 0 0 0 0 0 0 0 0 0 0 0 0 0 127 0" result="hardAlpha"/>
<feOffset dy="16"/>
<feGaussianBlur stdDeviation="16"/>
<feColorMatrix type="matrix" values="0 0 0 0 0.215686 0 0 0 0 0.231373 0 0 0 0 0.301961 0 0 0 0.02 0"/>
<feBlend mode="normal" in2="BackgroundImageFix" result="effect1_dropShadow_1971_85718"/>
<feBlend mode="normal" in="SourceGraphic" in2="effect1_dropShadow_1971_85718" result="shape"/>
</filter>
<filter id="filter1_d_1971_85718" x="218" y="-103" width="304" height="460" filterUnits="userSpaceOnUse" color-interpolation-filters="sRGB">
<feFlood flood-opacity="0" result="BackgroundImageFix"/>
<feColorMatrix in="SourceAlpha" type="matrix" values="0 0 0 0 0 0 0 0 0 0 0 0 0 0 0 0 0 0 127 0" result="hardAlpha"/>
<feOffset dy="16"/>
<feGaussianBlur stdDeviation="16"/>
<feColorMatrix type="matrix" values="0 0 0 0 0.215686 0 0 0 0 0.231373 0 0 0 0 0.301961 0 0 0 0.04 0"/>
<feBlend mode="normal" in2="BackgroundImageFix" result="effect1_dropShadow_1971_85718"/>
<feBlend mode="normal" in="SourceGraphic" in2="effect1_dropShadow_1971_85718" result="shape"/>
</filter>
<filter id="filter2_d_1971_85718" x="218" y="-103" width="304" height="460" filterUnits="userSpaceOnUse" color-interpolation-filters="sRGB">
<feFlood flood-opacity="0" result="BackgroundImageFix"/>
<feColorMatrix in="SourceAlpha" type="matrix" values="0 0 0 0 0 0 0 0 0 0 0 0 0 0 0 0 0 0 127 0" result="hardAlpha"/>
<feOffset dy="16"/>
<feGaussianBlur stdDeviation="16"/>
<feColorMatrix type="matrix" values="0 0 0 0 0.215686 0 0 0 0 0.231373 0 0 0 0 0.301961 0 0 0 0.04 0"/>
<feBlend mode="normal" in2="BackgroundImageFix" result="effect1_dropShadow_1971_85718"/>
<feBlend mode="normal" in="SourceGraphic" in2="effect1_dropShadow_1971_85718" result="shape"/>
</filter>
<linearGradient id="paint0_linear_1971_85718" x1="-271.907" y1="47.2654" x2="-271.907" y2="14.5627" gradientUnits="userSpaceOnUse">
<stop stop-color="white"/>
<stop offset="0.401042" stop-color="white" stop-opacity="0.760417"/>
<stop offset="1" stop-color="white" stop-opacity="0"/>
</linearGradient>
<clipPath id="clip0_1971_85718">
<rect x="1" y="1.00049" width="488" height="392.5" rx="16" fill="white"/>
</clipPath>
<clipPath id="clip1_1971_85718">
<rect width="1728" height="1719" fill="white" transform="translate(-1238 -151)"/>
</clipPath>
</defs>
</svg>
