<svg width="994" height="276" viewBox="0 0 994 276" fill="none" xmlns="http://www.w3.org/2000/svg">
<rect x="0.5" y="0.500488" width="993" height="275" rx="16.5" fill="#FCFCFF"/>
<rect x="194" y="41.0005" width="606" height="82" rx="4" fill="white"/>
<path d="M234.983 74.8187V85.0005H233.751V74.8187H234.983ZM240.618 77.3641V78.3584H236.66V77.3641H240.618ZM237.814 75.5346H238.987V82.813C238.987 83.1444 239.035 83.393 239.131 83.5587C239.23 83.7211 239.356 83.8305 239.509 83.8869C239.665 83.9399 239.829 83.9664 240.001 83.9664C240.13 83.9664 240.236 83.9598 240.319 83.9465C240.402 83.9299 240.468 83.9167 240.518 83.9067L240.757 84.9607C240.677 84.9905 240.566 85.0204 240.424 85.0502C240.281 85.0833 240.1 85.0999 239.882 85.0999C239.55 85.0999 239.225 85.0287 238.907 84.8861C238.592 84.7436 238.331 84.5265 238.122 84.2349C237.916 83.9432 237.814 83.5753 237.814 83.1312V75.5346ZM245.502 85.1596C244.766 85.1596 244.132 84.9972 243.598 84.6724C243.068 84.3442 242.658 83.8869 242.37 83.3002C242.085 82.7102 241.942 82.0242 241.942 81.242C241.942 80.4598 242.085 79.7704 242.37 79.1738C242.658 78.5739 243.059 78.1065 243.573 77.7718C244.09 77.4337 244.693 77.2647 245.383 77.2647C245.781 77.2647 246.173 77.331 246.561 77.4636C246.949 77.5961 247.302 77.8116 247.62 78.1099C247.938 78.4048 248.192 78.7959 248.381 79.2832C248.57 79.7704 248.664 80.3703 248.664 81.0829V81.58H242.778V80.5658H247.471C247.471 80.135 247.385 79.7505 247.212 79.4124C247.043 79.0744 246.801 78.8075 246.487 78.612C246.175 78.4164 245.807 78.3187 245.383 78.3187C244.915 78.3187 244.511 78.4347 244.17 78.6667C243.832 78.8954 243.571 79.1937 243.389 79.5616C243.207 79.9295 243.116 80.3239 243.116 80.7448V81.4209C243.116 81.9976 243.215 82.4865 243.414 82.8876C243.616 83.2853 243.896 83.5886 244.254 83.7974C244.612 84.0029 245.028 84.1056 245.502 84.1056C245.81 84.1056 246.089 84.0625 246.337 83.9763C246.589 83.8869 246.806 83.7543 246.989 83.5786C247.171 83.3996 247.312 83.1776 247.411 82.9124L248.545 83.2306C248.425 83.6151 248.225 83.9531 247.943 84.2448C247.661 84.5332 247.313 84.7585 246.899 84.9209C246.485 85.08 246.019 85.1596 245.502 85.1596ZM250.449 85.0005V77.3641H251.582V78.5573H251.682C251.841 78.1496 252.098 77.8331 252.452 77.6077C252.807 77.379 253.233 77.2647 253.73 77.2647C254.234 77.2647 254.653 77.379 254.988 77.6077C255.326 77.8331 255.589 78.1496 255.778 78.5573H255.858C256.054 78.1629 256.347 77.8497 256.738 77.6177C257.129 77.3824 257.598 77.2647 258.145 77.2647C258.828 77.2647 259.386 77.4785 259.82 77.906C260.254 78.3303 260.472 78.9915 260.472 79.8897V85.0005H259.298V79.8897C259.298 79.3262 259.144 78.9235 258.836 78.6816C258.528 78.4396 258.165 78.3187 257.747 78.3187C257.21 78.3187 256.794 78.4811 256.499 78.8059C256.204 79.1274 256.057 79.5351 256.057 80.0289V85.0005H254.864V79.7704C254.864 79.3362 254.723 78.9865 254.441 78.7214C254.159 78.4529 253.796 78.3187 253.352 78.3187C253.047 78.3187 252.762 78.3999 252.497 78.5623C252.235 78.7247 252.023 78.9501 251.861 79.2384C251.702 79.5235 251.622 79.8532 251.622 80.2278V85.0005H250.449ZM275.304 79.9096C275.304 80.9834 275.11 81.9115 274.723 82.6937C274.335 83.4759 273.803 84.0791 273.127 84.5033C272.451 84.9276 271.678 85.1397 270.81 85.1397C269.942 85.1397 269.169 84.9276 268.493 84.5033C267.817 84.0791 267.285 83.4759 266.897 82.6937C266.51 81.9115 266.316 80.9834 266.316 79.9096C266.316 78.8357 266.51 77.9077 266.897 77.1255C267.285 76.3433 267.817 75.7401 268.493 75.3158C269.169 74.8916 269.942 74.6795 270.81 74.6795C271.678 74.6795 272.451 74.8916 273.127 75.3158C273.803 75.7401 274.335 76.3433 274.723 77.1255C275.11 77.9077 275.304 78.8357 275.304 79.9096ZM274.111 79.9096C274.111 79.028 273.964 78.2839 273.669 77.6773C273.377 77.0708 272.981 76.6118 272.48 76.3002C271.983 75.9887 271.426 75.8329 270.81 75.8329C270.194 75.8329 269.635 75.9887 269.135 76.3002C268.637 76.6118 268.241 77.0708 267.946 77.6773C267.655 78.2839 267.509 79.028 267.509 79.9096C267.509 80.7912 267.655 81.5353 267.946 82.1418C268.241 82.7484 268.637 83.2074 269.135 83.519C269.635 83.8305 270.194 83.9863 270.81 83.9863C271.426 83.9863 271.983 83.8305 272.48 83.519C272.981 83.2074 273.377 82.7484 273.669 82.1418C273.964 81.5353 274.111 80.7912 274.111 79.9096ZM278.392 80.4067V85.0005H277.218V77.3641H278.352V78.5573H278.451C278.63 78.1695 278.902 77.858 279.267 77.6226C279.631 77.384 280.102 77.2647 280.679 77.2647C281.196 77.2647 281.648 77.3708 282.036 77.5829C282.424 77.7917 282.725 78.1099 282.941 78.5374C283.156 78.9617 283.264 79.4986 283.264 80.1482V85.0005H282.091V80.2278C282.091 79.6279 281.935 79.1605 281.623 78.8258C281.312 78.4877 280.884 78.3187 280.341 78.3187C279.966 78.3187 279.631 78.3999 279.336 78.5623C279.045 78.7247 278.814 78.9617 278.645 79.2732C278.476 79.5848 278.392 79.9626 278.392 80.4067ZM288.61 85.1596C287.874 85.1596 287.239 84.9972 286.705 84.6724C286.175 84.3442 285.766 83.8869 285.477 83.3002C285.192 82.7102 285.05 82.0242 285.05 81.242C285.05 80.4598 285.192 79.7704 285.477 79.1738C285.766 78.5739 286.167 78.1065 286.681 77.7718C287.198 77.4337 287.801 77.2647 288.49 77.2647C288.888 77.2647 289.281 77.331 289.669 77.4636C290.056 77.5961 290.409 77.8116 290.727 78.1099C291.046 78.4048 291.299 78.7959 291.488 79.2832C291.677 79.7704 291.771 80.3703 291.771 81.0829V81.58H285.885V80.5658H290.578C290.578 80.135 290.492 79.7505 290.32 79.4124C290.151 79.0744 289.909 78.8075 289.594 78.612C289.282 78.4164 288.914 78.3187 288.49 78.3187C288.023 78.3187 287.619 78.4347 287.277 78.6667C286.939 78.8954 286.679 79.1937 286.497 79.5616C286.314 79.9295 286.223 80.3239 286.223 80.7448V81.4209C286.223 81.9976 286.323 82.4865 286.521 82.8876C286.724 83.2853 287.004 83.5886 287.362 83.7974C287.72 84.0029 288.136 84.1056 288.61 84.1056C288.918 84.1056 289.196 84.0625 289.445 83.9763C289.697 83.8869 289.914 83.7543 290.096 83.5786C290.278 83.3996 290.419 83.1776 290.519 82.9124L291.652 83.2306C291.533 83.6151 291.332 83.9531 291.051 84.2448C290.769 84.5332 290.421 84.7585 290.007 84.9209C289.592 85.08 289.127 85.1596 288.61 85.1596Z" fill="#DA1A5B"/>
<rect x="216.5" y="105" width="92" height="2" fill="#DA1A5B"/>
<path d="M343.196 75.8187V86.0005H341.963V75.8187H343.196ZM348.83 78.3641V79.3584H344.873V78.3641H348.83ZM346.026 76.5346H347.2V83.813C347.2 84.1444 347.248 84.393 347.344 84.5587C347.443 84.7211 347.569 84.8305 347.722 84.8869C347.878 84.9399 348.042 84.9664 348.214 84.9664C348.343 84.9664 348.449 84.9598 348.532 84.9465C348.615 84.9299 348.681 84.9167 348.731 84.9067L348.97 85.9607C348.89 85.9905 348.779 86.0204 348.637 86.0502C348.494 86.0833 348.313 86.0999 348.095 86.0999C347.763 86.0999 347.438 86.0287 347.12 85.8861C346.805 85.7436 346.544 85.5265 346.335 85.2349C346.129 84.9432 346.026 84.5753 346.026 84.1312V76.5346ZM353.715 86.1596C352.979 86.1596 352.345 85.9972 351.811 85.6724C351.281 85.3442 350.871 84.8869 350.583 84.3002C350.298 83.7102 350.155 83.0242 350.155 82.242C350.155 81.4598 350.298 80.7704 350.583 80.1738C350.871 79.5739 351.272 79.1065 351.786 78.7718C352.303 78.4337 352.906 78.2647 353.596 78.2647C353.993 78.2647 354.386 78.331 354.774 78.4636C355.162 78.5961 355.515 78.8116 355.833 79.1099C356.151 79.4048 356.405 79.7959 356.594 80.2832C356.782 80.7704 356.877 81.3703 356.877 82.0829V82.58H350.991V81.5658H355.684C355.684 81.135 355.598 80.7505 355.425 80.4124C355.256 80.0744 355.014 79.8075 354.699 79.612C354.388 79.4164 354.02 79.3187 353.596 79.3187C353.128 79.3187 352.724 79.4347 352.383 79.6667C352.045 79.8954 351.784 80.1937 351.602 80.5616C351.42 80.9295 351.329 81.3239 351.329 81.7448V82.4209C351.329 82.9976 351.428 83.4865 351.627 83.8876C351.829 84.2853 352.109 84.5886 352.467 84.7974C352.825 85.0029 353.241 85.1056 353.715 85.1056C354.023 85.1056 354.302 85.0625 354.55 84.9763C354.802 84.8869 355.019 84.7543 355.202 84.5786C355.384 84.3996 355.525 84.1776 355.624 83.9124L356.758 84.2306C356.638 84.6151 356.438 84.9531 356.156 85.2448C355.874 85.5332 355.526 85.7585 355.112 85.9209C354.698 86.08 354.232 86.1596 353.715 86.1596ZM358.662 86.0005V78.3641H359.795V79.5573H359.895C360.054 79.1496 360.311 78.8331 360.665 78.6077C361.02 78.379 361.446 78.2647 361.943 78.2647C362.447 78.2647 362.866 78.379 363.201 78.6077C363.539 78.8331 363.802 79.1496 363.991 79.5573H364.071C364.266 79.1629 364.56 78.8497 364.951 78.6177C365.342 78.3824 365.811 78.2647 366.358 78.2647C367.041 78.2647 367.599 78.4785 368.033 78.906C368.467 79.3303 368.684 79.9915 368.684 80.8897V86.0005H367.511V80.8897C367.511 80.3262 367.357 79.9235 367.049 79.6816C366.741 79.4396 366.378 79.3187 365.96 79.3187C365.423 79.3187 365.007 79.4811 364.712 79.8059C364.417 80.1274 364.27 80.5351 364.27 81.0289V86.0005H363.077V80.7704C363.077 80.3362 362.936 79.9865 362.654 79.7214C362.372 79.4529 362.009 79.3187 361.565 79.3187C361.26 79.3187 360.975 79.3999 360.71 79.5623C360.448 79.7247 360.236 79.9501 360.074 80.2384C359.915 80.5235 359.835 80.8532 359.835 81.2278V86.0005H358.662ZM374.369 76.9124V75.8187H382.006V76.9124H378.804V86.0005H377.571V76.9124H374.369ZM384.605 86.0005L382.278 78.3641H383.511L385.162 84.2107H385.241L386.872 78.3641H388.125L389.735 84.1908H389.815L391.466 78.3641H392.699L390.372 86.0005H389.218L387.548 80.134H387.429L385.758 86.0005H384.605ZM397.092 86.1596C396.403 86.1596 395.798 85.9955 395.278 85.6674C394.76 85.3393 394.356 84.8802 394.064 84.2903C393.776 83.7003 393.632 83.0109 393.632 82.2221C393.632 81.4266 393.776 80.7323 394.064 80.139C394.356 79.5457 394.76 79.085 395.278 78.7569C395.798 78.4288 396.403 78.2647 397.092 78.2647C397.782 78.2647 398.385 78.4288 398.902 78.7569C399.422 79.085 399.827 79.5457 400.115 80.139C400.407 80.7323 400.552 81.4266 400.552 82.2221C400.552 83.0109 400.407 83.7003 400.115 84.2903C399.827 84.8802 399.422 85.3393 398.902 85.6674C398.385 85.9955 397.782 86.1596 397.092 86.1596ZM397.092 85.1056C397.616 85.1056 398.047 84.9714 398.385 84.7029C398.723 84.4344 398.973 84.0815 399.135 83.644C399.298 83.2065 399.379 82.7325 399.379 82.2221C399.379 81.7117 399.298 81.236 399.135 80.7952C398.973 80.3544 398.723 79.9981 398.385 79.7263C398.047 79.4546 397.616 79.3187 397.092 79.3187C396.568 79.3187 396.138 79.4546 395.8 79.7263C395.461 79.9981 395.211 80.3544 395.049 80.7952C394.886 81.236 394.805 81.7117 394.805 82.2221C394.805 82.7325 394.886 83.2065 395.049 83.644C395.211 84.0815 395.461 84.4344 395.8 84.7029C396.138 84.9714 396.568 85.1056 397.092 85.1056Z" fill="#616B7C"/>
<path d="M452.221 75.8187V86.0005H450.988V75.8187H452.221ZM457.855 78.3641V79.3584H453.897V78.3641H457.855ZM455.051 76.5346H456.224V83.813C456.224 84.1444 456.272 84.393 456.368 84.5587C456.468 84.7211 456.594 84.8305 456.746 84.8869C456.902 84.9399 457.066 84.9664 457.238 84.9664C457.368 84.9664 457.474 84.9598 457.557 84.9465C457.639 84.9299 457.706 84.9167 457.755 84.9067L457.994 85.9607C457.915 85.9905 457.803 86.0204 457.661 86.0502C457.518 86.0833 457.338 86.0999 457.119 86.0999C456.788 86.0999 456.463 86.0287 456.145 85.8861C455.83 85.7436 455.568 85.5265 455.359 85.2349C455.154 84.9432 455.051 84.5753 455.051 84.1312V76.5346ZM462.739 86.1596C462.004 86.1596 461.369 85.9972 460.835 85.6724C460.305 85.3442 459.896 84.8869 459.607 84.3002C459.322 83.7102 459.18 83.0242 459.18 82.242C459.18 81.4598 459.322 80.7704 459.607 80.1738C459.896 79.5739 460.297 79.1065 460.81 78.7718C461.328 78.4337 461.931 78.2647 462.62 78.2647C463.018 78.2647 463.411 78.331 463.798 78.4636C464.186 78.5961 464.539 78.8116 464.857 79.1099C465.176 79.4048 465.429 79.7959 465.618 80.2832C465.807 80.7704 465.901 81.3703 465.901 82.0829V82.58H460.015V81.5658H464.708C464.708 81.135 464.622 80.7505 464.45 80.4124C464.281 80.0744 464.039 79.8075 463.724 79.612C463.412 79.4164 463.044 79.3187 462.62 79.3187C462.153 79.3187 461.748 79.4347 461.407 79.6667C461.069 79.8954 460.809 80.1937 460.627 80.5616C460.444 80.9295 460.353 81.3239 460.353 81.7448V82.4209C460.353 82.9976 460.453 83.4865 460.651 83.8876C460.854 84.2853 461.134 84.5886 461.492 84.7974C461.85 85.0029 462.265 85.1056 462.739 85.1056C463.048 85.1056 463.326 85.0625 463.575 84.9763C463.827 84.8869 464.044 84.7543 464.226 84.5786C464.408 84.3996 464.549 84.1776 464.649 83.9124L465.782 84.2306C465.663 84.6151 465.462 84.9531 465.18 85.2448C464.899 85.5332 464.551 85.7585 464.136 85.9209C463.722 86.08 463.256 86.1596 462.739 86.1596ZM467.686 86.0005V78.3641H468.82V79.5573H468.919C469.078 79.1496 469.335 78.8331 469.69 78.6077C470.044 78.379 470.47 78.2647 470.967 78.2647C471.471 78.2647 471.89 78.379 472.225 78.6077C472.563 78.8331 472.827 79.1496 473.016 79.5573H473.095C473.291 79.1629 473.584 78.8497 473.975 78.6177C474.366 78.3824 474.835 78.2647 475.382 78.2647C476.065 78.2647 476.623 78.4785 477.058 78.906C477.492 79.3303 477.709 79.9915 477.709 80.8897V86.0005H476.536V80.8897C476.536 80.3262 476.381 79.9235 476.073 79.6816C475.765 79.4396 475.402 79.3187 474.984 79.3187C474.448 79.3187 474.032 79.4811 473.737 79.8059C473.442 80.1274 473.294 80.5351 473.294 81.0289V86.0005H472.101V80.7704C472.101 80.3362 471.96 79.9865 471.678 79.7214C471.397 79.4529 471.034 79.3187 470.59 79.3187C470.285 79.3187 470 79.3999 469.734 79.5623C469.473 79.7247 469.261 79.9501 469.098 80.2384C468.939 80.5235 468.859 80.8532 468.859 81.2278V86.0005H467.686ZM483.394 76.9124V75.8187H491.03V76.9124H487.829V86.0005H486.596V76.9124H483.394ZM493.947 81.4067V86.0005H492.774V75.8187H493.947V79.5573H494.047C494.226 79.1629 494.494 78.8497 494.852 78.6177C495.213 78.3824 495.694 78.2647 496.294 78.2647C496.814 78.2647 497.27 78.3691 497.661 78.5779C498.052 78.7834 498.355 79.0999 498.571 79.5275C498.79 79.9517 498.899 80.492 498.899 81.1482V86.0005H497.726V81.2278C497.726 80.6212 497.568 80.1522 497.253 79.8208C496.942 79.486 496.509 79.3187 495.956 79.3187C495.571 79.3187 495.227 79.3999 494.922 79.5623C494.62 79.7247 494.382 79.9617 494.206 80.2732C494.034 80.5848 493.947 80.9626 493.947 81.4067ZM501.046 86.0005V78.3641H502.179V79.5175H502.259C502.398 79.1397 502.65 78.8331 503.014 78.5978C503.379 78.3625 503.79 78.2448 504.247 78.2448C504.333 78.2448 504.441 78.2465 504.57 78.2498C504.7 78.2531 504.797 78.2581 504.864 78.2647V79.4579C504.824 79.4479 504.733 79.433 504.59 79.4131C504.451 79.3899 504.304 79.3783 504.148 79.3783C503.777 79.3783 503.445 79.4562 503.153 79.612C502.865 79.7645 502.636 79.9766 502.467 80.2484C502.302 80.5168 502.219 80.8234 502.219 81.1681V86.0005H501.046ZM509.224 86.1596C508.488 86.1596 507.853 85.9972 507.32 85.6724C506.789 85.3442 506.38 84.8869 506.092 84.3002C505.807 83.7102 505.664 83.0242 505.664 82.242C505.664 81.4598 505.807 80.7704 506.092 80.1738C506.38 79.5739 506.781 79.1065 507.295 78.7718C507.812 78.4337 508.415 78.2647 509.104 78.2647C509.502 78.2647 509.895 78.331 510.283 78.4636C510.671 78.5961 511.024 78.8116 511.342 79.1099C511.66 79.4048 511.913 79.7959 512.102 80.2832C512.291 80.7704 512.386 81.3703 512.386 82.0829V82.58H506.499V81.5658H511.193C511.193 81.135 511.106 80.7505 510.934 80.4124C510.765 80.0744 510.523 79.8075 510.208 79.612C509.897 79.4164 509.529 79.3187 509.104 79.3187C508.637 79.3187 508.233 79.4347 507.891 79.6667C507.553 79.8954 507.293 80.1937 507.111 80.5616C506.929 80.9295 506.837 81.3239 506.837 81.7448V82.4209C506.837 82.9976 506.937 83.4865 507.136 83.8876C507.338 84.2853 507.618 84.5886 507.976 84.7974C508.334 85.0029 508.75 85.1056 509.224 85.1056C509.532 85.1056 509.81 85.0625 510.059 84.9763C510.311 84.8869 510.528 84.7543 510.71 84.5786C510.893 84.3996 511.033 84.1776 511.133 83.9124L512.266 84.2306C512.147 84.6151 511.947 84.9531 511.665 85.2448C511.383 85.5332 511.035 85.7585 510.621 85.9209C510.207 86.08 509.741 86.1596 509.224 86.1596ZM517.372 86.1596C516.636 86.1596 516.002 85.9972 515.468 85.6724C514.938 85.3442 514.528 84.8869 514.24 84.3002C513.955 83.7102 513.813 83.0242 513.813 82.242C513.813 81.4598 513.955 80.7704 514.24 80.1738C514.528 79.5739 514.93 79.1065 515.443 78.7718C515.96 78.4337 516.564 78.2647 517.253 78.2647C517.651 78.2647 518.043 78.331 518.431 78.4636C518.819 78.5961 519.172 78.8116 519.49 79.1099C519.808 79.4048 520.062 79.7959 520.251 80.2832C520.44 80.7704 520.534 81.3703 520.534 82.0829V82.58H514.648V81.5658H519.341C519.341 81.135 519.255 80.7505 519.082 80.4124C518.913 80.0744 518.671 79.8075 518.357 79.612C518.045 79.4164 517.677 79.3187 517.253 79.3187C516.786 79.3187 516.381 79.4347 516.04 79.6667C515.702 79.8954 515.442 80.1937 515.259 80.5616C515.077 80.9295 514.986 81.3239 514.986 81.7448V82.4209C514.986 82.9976 515.085 83.4865 515.284 83.8876C515.486 84.2853 515.766 84.5886 516.124 84.7974C516.482 85.0029 516.898 85.1056 517.372 85.1056C517.68 85.1056 517.959 85.0625 518.207 84.9763C518.459 84.8869 518.676 84.7543 518.859 84.5786C519.041 84.3996 519.182 84.1776 519.281 83.9124L520.415 84.2306C520.296 84.6151 520.095 84.9531 519.813 85.2448C519.532 85.5332 519.184 85.7585 518.769 85.9209C518.355 86.08 517.889 86.1596 517.372 86.1596Z" fill="#616B7C"/>
<path d="M572.308 75.8187V86.0005H571.075V75.8187H572.308ZM577.942 78.3641V79.3584H573.984V78.3641H577.942ZM575.138 76.5346H576.311V83.813C576.311 84.1444 576.359 84.393 576.455 84.5587C576.555 84.7211 576.681 84.8305 576.833 84.8869C576.989 84.9399 577.153 84.9664 577.325 84.9664C577.455 84.9664 577.561 84.9598 577.643 84.9465C577.726 84.9299 577.793 84.9167 577.842 84.9067L578.081 85.9607C578.001 85.9905 577.89 86.0204 577.748 86.0502C577.605 86.0833 577.425 86.0999 577.206 86.0999C576.875 86.0999 576.55 86.0287 576.232 85.8861C575.917 85.7436 575.655 85.5265 575.446 85.2349C575.241 84.9432 575.138 84.5753 575.138 84.1312V76.5346ZM582.826 86.1596C582.091 86.1596 581.456 85.9972 580.922 85.6724C580.392 85.3442 579.983 84.8869 579.694 84.3002C579.409 83.7102 579.267 83.0242 579.267 82.242C579.267 81.4598 579.409 80.7704 579.694 80.1738C579.983 79.5739 580.384 79.1065 580.897 78.7718C581.414 78.4337 582.018 78.2647 582.707 78.2647C583.105 78.2647 583.498 78.331 583.885 78.4636C584.273 78.5961 584.626 78.8116 584.944 79.1099C585.262 79.4048 585.516 79.7959 585.705 80.2832C585.894 80.7704 585.988 81.3703 585.988 82.0829V82.58H580.102V81.5658H584.795C584.795 81.135 584.709 80.7505 584.537 80.4124C584.368 80.0744 584.126 79.8075 583.811 79.612C583.499 79.4164 583.131 79.3187 582.707 79.3187C582.24 79.3187 581.835 79.4347 581.494 79.6667C581.156 79.8954 580.896 80.1937 580.713 80.5616C580.531 80.9295 580.44 81.3239 580.44 81.7448V82.4209C580.44 82.9976 580.539 83.4865 580.738 83.8876C580.94 84.2853 581.221 84.5886 581.578 84.7974C581.936 85.0029 582.352 85.1056 582.826 85.1056C583.135 85.1056 583.413 85.0625 583.662 84.9763C583.913 84.8869 584.131 84.7543 584.313 84.5786C584.495 84.3996 584.636 84.1776 584.735 83.9124L585.869 84.2306C585.75 84.6151 585.549 84.9531 585.267 85.2448C584.986 85.5332 584.638 85.7585 584.223 85.9209C583.809 86.08 583.343 86.1596 582.826 86.1596ZM587.773 86.0005V78.3641H588.907V79.5573H589.006C589.165 79.1496 589.422 78.8331 589.777 78.6077C590.131 78.379 590.557 78.2647 591.054 78.2647C591.558 78.2647 591.977 78.379 592.312 78.6077C592.65 78.8331 592.914 79.1496 593.103 79.5573H593.182C593.378 79.1629 593.671 78.8497 594.062 78.6177C594.453 78.3824 594.922 78.2647 595.469 78.2647C596.152 78.2647 596.71 78.4785 597.145 78.906C597.579 79.3303 597.796 79.9915 597.796 80.8897V86.0005H596.623V80.8897C596.623 80.3262 596.468 79.9235 596.16 79.6816C595.852 79.4396 595.489 79.3187 595.071 79.3187C594.534 79.3187 594.118 79.4811 593.824 79.8059C593.529 80.1274 593.381 80.5351 593.381 81.0289V86.0005H592.188V80.7704C592.188 80.3362 592.047 79.9865 591.765 79.7214C591.484 79.4529 591.121 79.3187 590.676 79.3187C590.372 79.3187 590.087 79.3999 589.821 79.5623C589.56 79.7247 589.347 79.9501 589.185 80.2384C589.026 80.5235 588.946 80.8532 588.946 81.2278V86.0005H587.773ZM604.038 86.0005V75.8187H610.143V76.9124H605.271V80.3528H609.685V81.4465H605.271V86.0005H604.038ZM614.637 86.1596C613.948 86.1596 613.343 85.9955 612.822 85.6674C612.305 85.3393 611.901 84.8802 611.609 84.2903C611.321 83.7003 611.177 83.0109 611.177 82.2221C611.177 81.4266 611.321 80.7323 611.609 80.139C611.901 79.5457 612.305 79.085 612.822 78.7569C613.343 78.4288 613.948 78.2647 614.637 78.2647C615.326 78.2647 615.93 78.4288 616.447 78.7569C616.967 79.085 617.371 79.5457 617.66 80.139C617.951 80.7323 618.097 81.4266 618.097 82.2221C618.097 83.0109 617.951 83.7003 617.66 84.2903C617.371 84.8802 616.967 85.3393 616.447 85.6674C615.93 85.9955 615.326 86.1596 614.637 86.1596ZM614.637 85.1056C615.161 85.1056 615.592 84.9714 615.93 84.7029C616.268 84.4344 616.518 84.0815 616.68 83.644C616.843 83.2065 616.924 82.7325 616.924 82.2221C616.924 81.7117 616.843 81.236 616.68 80.7952C616.518 80.3544 616.268 79.9981 615.93 79.7263C615.592 79.4546 615.161 79.3187 614.637 79.3187C614.113 79.3187 613.683 79.4546 613.344 79.7263C613.006 79.9981 612.756 80.3544 612.594 80.7952C612.431 81.236 612.35 81.7117 612.35 82.2221C612.35 82.7325 612.431 83.2065 612.594 83.644C612.756 84.0815 613.006 84.4344 613.344 84.7029C613.683 84.9714 614.113 85.1056 614.637 85.1056ZM624.701 82.8783V78.3641H625.874V86.0005H624.701V84.7079H624.621C624.442 85.0957 624.164 85.4254 623.786 85.6972C623.408 85.9657 622.931 86.0999 622.354 86.0999C621.877 86.0999 621.453 85.9955 621.081 85.7867C620.71 85.5746 620.419 85.2564 620.206 84.8322C619.994 84.4046 619.888 83.866 619.888 83.2164V78.3641H621.062V83.1369C621.062 83.6937 621.217 84.1378 621.529 84.4692C621.844 84.8007 622.245 84.9664 622.732 84.9664C623.024 84.9664 623.32 84.8918 623.622 84.7427C623.927 84.5935 624.182 84.3648 624.388 84.0566C624.596 83.7484 624.701 83.3556 624.701 82.8783ZM628.023 86.0005V78.3641H629.157V79.5175H629.236C629.375 79.1397 629.627 78.8331 629.992 78.5978C630.356 78.3625 630.767 78.2448 631.225 78.2448C631.311 78.2448 631.419 78.2465 631.548 78.2498C631.677 78.2531 631.775 78.2581 631.841 78.2647V79.4579C631.801 79.4479 631.71 79.433 631.568 79.4131C631.429 79.3899 631.281 79.3783 631.125 79.3783C630.754 79.3783 630.423 79.4562 630.131 79.612C629.843 79.7645 629.614 79.9766 629.445 80.2484C629.279 80.5168 629.196 80.8234 629.196 81.1681V86.0005H628.023Z" fill="#616B7C"/>
<path d="M683.381 75.8187V86.0005H682.148V75.8187H683.381ZM689.015 78.3641V79.3584H685.058V78.3641H689.015ZM686.211 76.5346H687.384V83.813C687.384 84.1444 687.432 84.393 687.528 84.5587C687.628 84.7211 687.754 84.8305 687.906 84.8869C688.062 84.9399 688.226 84.9664 688.399 84.9664C688.528 84.9664 688.634 84.9598 688.717 84.9465C688.8 84.9299 688.866 84.9167 688.916 84.9067L689.154 85.9607C689.075 85.9905 688.964 86.0204 688.821 86.0502C688.679 86.0833 688.498 86.0999 688.279 86.0999C687.948 86.0999 687.623 86.0287 687.305 85.8861C686.99 85.7436 686.728 85.5265 686.519 85.2349C686.314 84.9432 686.211 84.5753 686.211 84.1312V76.5346ZM693.9 86.1596C693.164 86.1596 692.529 85.9972 691.995 85.6724C691.465 85.3442 691.056 84.8869 690.767 84.3002C690.482 83.7102 690.34 83.0242 690.34 82.242C690.34 81.4598 690.482 80.7704 690.767 80.1738C691.056 79.5739 691.457 79.1065 691.971 78.7718C692.488 78.4337 693.091 78.2647 693.78 78.2647C694.178 78.2647 694.571 78.331 694.959 78.4636C695.346 78.5961 695.699 78.8116 696.017 79.1099C696.336 79.4048 696.589 79.7959 696.778 80.2832C696.967 80.7704 697.062 81.3703 697.062 82.0829V82.58H691.175V81.5658H695.868C695.868 81.135 695.782 80.7505 695.61 80.4124C695.441 80.0744 695.199 79.8075 694.884 79.612C694.572 79.4164 694.205 79.3187 693.78 79.3187C693.313 79.3187 692.909 79.4347 692.567 79.6667C692.229 79.8954 691.969 80.1937 691.787 80.5616C691.604 80.9295 691.513 81.3239 691.513 81.7448V82.4209C691.513 82.9976 691.613 83.4865 691.812 83.8876C692.014 84.2853 692.294 84.5886 692.652 84.7974C693.01 85.0029 693.426 85.1056 693.9 85.1056C694.208 85.1056 694.486 85.0625 694.735 84.9763C694.987 84.8869 695.204 84.7543 695.386 84.5786C695.568 84.3996 695.709 84.1776 695.809 83.9124L696.942 84.2306C696.823 84.6151 696.622 84.9531 696.341 85.2448C696.059 85.5332 695.711 85.7585 695.297 85.9209C694.882 86.08 694.417 86.1596 693.9 86.1596ZM698.846 86.0005V78.3641H699.98V79.5573H700.079C700.238 79.1496 700.495 78.8331 700.85 78.6077C701.205 78.379 701.63 78.2647 702.128 78.2647C702.631 78.2647 703.051 78.379 703.385 78.6077C703.723 78.8331 703.987 79.1496 704.176 79.5573H704.255C704.451 79.1629 704.744 78.8497 705.135 78.6177C705.526 78.3824 705.995 78.2647 706.542 78.2647C707.225 78.2647 707.784 78.4785 708.218 78.906C708.652 79.3303 708.869 79.9915 708.869 80.8897V86.0005H707.696V80.8897C707.696 80.3262 707.542 79.9235 707.233 79.6816C706.925 79.4396 706.562 79.3187 706.145 79.3187C705.608 79.3187 705.192 79.4811 704.897 79.8059C704.602 80.1274 704.454 80.5351 704.454 81.0289V86.0005H703.261V80.7704C703.261 80.3362 703.12 79.9865 702.839 79.7214C702.557 79.4529 702.194 79.3187 701.75 79.3187C701.445 79.3187 701.16 79.3999 700.895 79.5623C700.633 79.7247 700.421 79.9501 700.258 80.2384C700.099 80.5235 700.02 80.8532 700.02 81.2278V86.0005H698.846ZM715.111 86.0005V75.8187H721.216V76.9124H716.344V80.3528H720.759V81.4465H716.344V86.0005H715.111ZM723.169 86.0005V78.3641H724.342V86.0005H723.169ZM723.765 77.0914C723.536 77.0914 723.339 77.0135 723.174 76.8577C723.011 76.702 722.93 76.5147 722.93 76.2959C722.93 76.0772 723.011 75.8899 723.174 75.7342C723.339 75.5784 723.536 75.5005 723.765 75.5005C723.994 75.5005 724.189 75.5784 724.352 75.7342C724.518 75.8899 724.6 76.0772 724.6 76.2959C724.6 76.5147 724.518 76.702 724.352 76.8577C724.189 77.0135 723.994 77.0914 723.765 77.0914ZM732.735 78.3641L729.911 86.0005H728.718L725.894 78.3641H727.167L729.275 84.4494H729.354L731.462 78.3641H732.735ZM737.212 86.1596C736.476 86.1596 735.842 85.9972 735.308 85.6724C734.778 85.3442 734.368 84.8869 734.08 84.3002C733.795 83.7102 733.652 83.0242 733.652 82.242C733.652 81.4598 733.795 80.7704 734.08 80.1738C734.368 79.5739 734.769 79.1065 735.283 78.7718C735.8 78.4337 736.403 78.2647 737.093 78.2647C737.491 78.2647 737.883 78.331 738.271 78.4636C738.659 78.5961 739.012 78.8116 739.33 79.1099C739.648 79.4048 739.902 79.7959 740.091 80.2832C740.28 80.7704 740.374 81.3703 740.374 82.0829V82.58H734.488V81.5658H739.181C739.181 81.135 739.095 80.7505 738.922 80.4124C738.753 80.0744 738.511 79.8075 738.196 79.612C737.885 79.4164 737.517 79.3187 737.093 79.3187C736.625 79.3187 736.221 79.4347 735.88 79.6667C735.542 79.8954 735.281 80.1937 735.099 80.5616C734.917 80.9295 734.826 81.3239 734.826 81.7448V82.4209C734.826 82.9976 734.925 83.4865 735.124 83.8876C735.326 84.2853 735.606 84.5886 735.964 84.7974C736.322 85.0029 736.738 85.1056 737.212 85.1056C737.52 85.1056 737.799 85.0625 738.047 84.9763C738.299 84.8869 738.516 84.7543 738.699 84.5786C738.881 84.3996 739.022 84.1776 739.121 83.9124L740.255 84.2306C740.135 84.6151 739.935 84.9531 739.653 85.2448C739.371 85.5332 739.023 85.7585 738.609 85.9209C738.195 86.08 737.729 86.1596 737.212 86.1596Z" fill="#616B7C"/>
<path fill-rule="evenodd" clip-rule="evenodd" d="M764.793 86.7076C764.402 86.3171 764.402 85.6839 764.793 85.2934L768.086 82.0005L764.793 78.7076C764.402 78.3171 764.402 77.6839 764.793 77.2934C765.183 76.9029 765.817 76.9029 766.207 77.2934L770.207 81.2934C770.598 81.6839 770.598 82.3171 770.207 82.7076L766.207 86.7076C765.817 87.0981 765.183 87.0981 764.793 86.7076Z" fill="#616B7C"/>
<rect x="669.5" y="64.0005" width="73" height="36" fill="url(#paint0_linear_1158_81530)"/>
<rect x="194" y="155" width="606" height="80" rx="4" fill="white"/>
<path fill-rule="evenodd" clip-rule="evenodd" d="M222.707 199.708C223.098 199.317 223.098 198.684 222.707 198.293L219.414 195L222.707 191.708C223.098 191.317 223.098 190.684 222.707 190.293C222.317 189.903 221.683 189.903 221.293 190.293L217.293 194.293C216.902 194.684 216.902 195.317 217.293 195.708L221.293 199.708C221.683 200.098 222.317 200.098 222.707 199.708Z" fill="#616B7C"/>
<path d="M248.696 188.819V199H247.463V188.819H248.696ZM254.33 191.364V192.358H250.373V191.364H254.33ZM251.526 189.535H252.7V196.813C252.7 197.144 252.748 197.393 252.844 197.559C252.943 197.721 253.069 197.831 253.222 197.887C253.378 197.94 253.542 197.966 253.714 197.966C253.843 197.966 253.949 197.96 254.032 197.947C254.115 197.93 254.181 197.917 254.231 197.907L254.47 198.961C254.39 198.991 254.279 199.02 254.137 199.05C253.994 199.083 253.813 199.1 253.595 199.1C253.263 199.1 252.938 199.029 252.62 198.886C252.305 198.744 252.044 198.527 251.835 198.235C251.629 197.943 251.526 197.575 251.526 197.131V189.535ZM259.215 199.16C258.479 199.16 257.845 198.997 257.311 198.672C256.781 198.344 256.371 197.887 256.083 197.3C255.798 196.71 255.655 196.024 255.655 195.242C255.655 194.46 255.798 193.77 256.083 193.174C256.371 192.574 256.772 192.107 257.286 191.772C257.803 191.434 258.406 191.265 259.096 191.265C259.493 191.265 259.886 191.331 260.274 191.464C260.662 191.596 261.015 191.812 261.333 192.11C261.651 192.405 261.905 192.796 262.094 193.283C262.282 193.77 262.377 194.37 262.377 195.083V195.58H256.491V194.566H261.184C261.184 194.135 261.098 193.75 260.925 193.412C260.756 193.074 260.514 192.808 260.199 192.612C259.888 192.416 259.52 192.319 259.096 192.319C258.628 192.319 258.224 192.435 257.883 192.667C257.545 192.895 257.284 193.194 257.102 193.562C256.92 193.929 256.829 194.324 256.829 194.745V195.421C256.829 195.998 256.928 196.487 257.127 196.888C257.329 197.285 257.609 197.589 257.967 197.797C258.325 198.003 258.741 198.106 259.215 198.106C259.523 198.106 259.802 198.063 260.05 197.976C260.302 197.887 260.519 197.754 260.702 197.579C260.884 197.4 261.025 197.178 261.124 196.912L262.258 197.231C262.138 197.615 261.938 197.953 261.656 198.245C261.374 198.533 261.026 198.759 260.612 198.921C260.198 199.08 259.732 199.16 259.215 199.16ZM264.162 199V191.364H265.295V192.557H265.395C265.554 192.15 265.811 191.833 266.165 191.608C266.52 191.379 266.946 191.265 267.443 191.265C267.947 191.265 268.366 191.379 268.701 191.608C269.039 191.833 269.302 192.15 269.491 192.557H269.571C269.766 192.163 270.06 191.85 270.451 191.618C270.842 191.382 271.311 191.265 271.858 191.265C272.541 191.265 273.099 191.478 273.533 191.906C273.967 192.33 274.184 192.991 274.184 193.89V199H273.011V193.89C273.011 193.326 272.857 192.924 272.549 192.682C272.241 192.44 271.878 192.319 271.46 192.319C270.923 192.319 270.507 192.481 270.212 192.806C269.917 193.127 269.77 193.535 269.77 194.029V199H268.577V193.77C268.577 193.336 268.436 192.987 268.154 192.721C267.872 192.453 267.509 192.319 267.065 192.319C266.76 192.319 266.475 192.4 266.21 192.562C265.948 192.725 265.736 192.95 265.574 193.238C265.415 193.523 265.335 193.853 265.335 194.228V199H264.162ZM279.869 189.912V188.819H287.506V189.912H284.304V199H283.071V189.912H279.869ZM290.105 199L287.778 191.364H289.011L290.662 197.211H290.741L292.372 191.364H293.625L295.235 197.191H295.315L296.966 191.364H298.199L295.872 199H294.718L293.048 193.134H292.929L291.258 199H290.105ZM302.592 199.16C301.903 199.16 301.298 198.996 300.778 198.667C300.26 198.339 299.856 197.88 299.564 197.29C299.276 196.7 299.132 196.011 299.132 195.222C299.132 194.427 299.276 193.732 299.564 193.139C299.856 192.546 300.26 192.085 300.778 191.757C301.298 191.429 301.903 191.265 302.592 191.265C303.282 191.265 303.885 191.429 304.402 191.757C304.922 192.085 305.327 192.546 305.615 193.139C305.907 193.732 306.052 194.427 306.052 195.222C306.052 196.011 305.907 196.7 305.615 197.29C305.327 197.88 304.922 198.339 304.402 198.667C303.885 198.996 303.282 199.16 302.592 199.16ZM302.592 198.106C303.116 198.106 303.547 197.971 303.885 197.703C304.223 197.434 304.473 197.081 304.635 196.644C304.798 196.206 304.879 195.732 304.879 195.222C304.879 194.712 304.798 194.236 304.635 193.795C304.473 193.354 304.223 192.998 303.885 192.726C303.547 192.455 303.116 192.319 302.592 192.319C302.068 192.319 301.638 192.455 301.3 192.726C300.961 192.998 300.711 193.354 300.549 193.795C300.386 194.236 300.305 194.712 300.305 195.222C300.305 195.732 300.386 196.206 300.549 196.644C300.711 197.081 300.961 197.434 301.3 197.703C301.638 197.971 302.068 198.106 302.592 198.106Z" fill="#616B7C"/>
<path d="M357.721 188.819V199H356.488V188.819H357.721ZM363.355 191.364V192.358H359.397V191.364H363.355ZM360.551 189.535H361.724V196.813C361.724 197.144 361.772 197.393 361.868 197.559C361.968 197.721 362.094 197.831 362.246 197.887C362.402 197.94 362.566 197.966 362.738 197.966C362.868 197.966 362.974 197.96 363.057 197.947C363.139 197.93 363.206 197.917 363.255 197.907L363.494 198.961C363.415 198.991 363.303 199.02 363.161 199.05C363.018 199.083 362.838 199.1 362.619 199.1C362.288 199.1 361.963 199.029 361.645 198.886C361.33 198.744 361.068 198.527 360.859 198.235C360.654 197.943 360.551 197.575 360.551 197.131V189.535ZM368.239 199.16C367.504 199.16 366.869 198.997 366.335 198.672C365.805 198.344 365.396 197.887 365.107 197.3C364.822 196.71 364.68 196.024 364.68 195.242C364.68 194.46 364.822 193.77 365.107 193.174C365.396 192.574 365.797 192.107 366.31 191.772C366.828 191.434 367.431 191.265 368.12 191.265C368.518 191.265 368.911 191.331 369.298 191.464C369.686 191.596 370.039 191.812 370.357 192.11C370.676 192.405 370.929 192.796 371.118 193.283C371.307 193.77 371.401 194.37 371.401 195.083V195.58H365.515V194.566H370.208C370.208 194.135 370.122 193.75 369.95 193.412C369.781 193.074 369.539 192.808 369.224 192.612C368.912 192.416 368.544 192.319 368.12 192.319C367.653 192.319 367.248 192.435 366.907 192.667C366.569 192.895 366.309 193.194 366.127 193.562C365.944 193.929 365.853 194.324 365.853 194.745V195.421C365.853 195.998 365.953 196.487 366.151 196.888C366.354 197.285 366.634 197.589 366.992 197.797C367.35 198.003 367.765 198.106 368.239 198.106C368.548 198.106 368.826 198.063 369.075 197.976C369.327 197.887 369.544 197.754 369.726 197.579C369.908 197.4 370.049 197.178 370.149 196.912L371.282 197.231C371.163 197.615 370.962 197.953 370.68 198.245C370.399 198.533 370.051 198.759 369.636 198.921C369.222 199.08 368.756 199.16 368.239 199.16ZM373.186 199V191.364H374.32V192.557H374.419C374.578 192.15 374.835 191.833 375.19 191.608C375.544 191.379 375.97 191.265 376.467 191.265C376.971 191.265 377.39 191.379 377.725 191.608C378.063 191.833 378.327 192.15 378.516 192.557H378.595C378.791 192.163 379.084 191.85 379.475 191.618C379.866 191.382 380.335 191.265 380.882 191.265C381.565 191.265 382.123 191.478 382.558 191.906C382.992 192.33 383.209 192.991 383.209 193.89V199H382.036V193.89C382.036 193.326 381.881 192.924 381.573 192.682C381.265 192.44 380.902 192.319 380.484 192.319C379.948 192.319 379.532 192.481 379.237 192.806C378.942 193.127 378.794 193.535 378.794 194.029V199H377.601V193.77C377.601 193.336 377.46 192.987 377.178 192.721C376.897 192.453 376.534 192.319 376.09 192.319C375.785 192.319 375.5 192.4 375.234 192.562C374.973 192.725 374.761 192.95 374.598 193.238C374.439 193.523 374.359 193.853 374.359 194.228V199H373.186ZM388.894 189.912V188.819H396.53V189.912H393.329V199H392.096V189.912H388.894ZM399.447 194.407V199H398.274V188.819H399.447V192.557H399.547C399.726 192.163 399.994 191.85 400.352 191.618C400.713 191.382 401.194 191.265 401.794 191.265C402.314 191.265 402.77 191.369 403.161 191.578C403.552 191.783 403.855 192.1 404.071 192.527C404.29 192.952 404.399 193.492 404.399 194.148V199H403.226V194.228C403.226 193.621 403.068 193.152 402.753 192.821C402.442 192.486 402.009 192.319 401.456 192.319C401.071 192.319 400.727 192.4 400.422 192.562C400.12 192.725 399.882 192.962 399.706 193.273C399.534 193.585 399.447 193.963 399.447 194.407ZM406.546 199V191.364H407.679V192.518H407.759C407.898 192.14 408.15 191.833 408.514 191.598C408.879 191.362 409.29 191.245 409.747 191.245C409.833 191.245 409.941 191.246 410.07 191.25C410.2 191.253 410.297 191.258 410.364 191.265V192.458C410.324 192.448 410.233 192.433 410.09 192.413C409.951 192.39 409.804 192.378 409.648 192.378C409.277 192.378 408.945 192.456 408.653 192.612C408.365 192.764 408.136 192.977 407.967 193.248C407.802 193.517 407.719 193.823 407.719 194.168V199H406.546ZM414.724 199.16C413.988 199.16 413.353 198.997 412.82 198.672C412.289 198.344 411.88 197.887 411.592 197.3C411.307 196.71 411.164 196.024 411.164 195.242C411.164 194.46 411.307 193.77 411.592 193.174C411.88 192.574 412.281 192.107 412.795 191.772C413.312 191.434 413.915 191.265 414.604 191.265C415.002 191.265 415.395 191.331 415.783 191.464C416.171 191.596 416.524 191.812 416.842 192.11C417.16 192.405 417.413 192.796 417.602 193.283C417.791 193.77 417.886 194.37 417.886 195.083V195.58H411.999V194.566H416.693C416.693 194.135 416.606 193.75 416.434 193.412C416.265 193.074 416.023 192.808 415.708 192.612C415.397 192.416 415.029 192.319 414.604 192.319C414.137 192.319 413.733 192.435 413.391 192.667C413.053 192.895 412.793 193.194 412.611 193.562C412.429 193.929 412.337 194.324 412.337 194.745V195.421C412.337 195.998 412.437 196.487 412.636 196.888C412.838 197.285 413.118 197.589 413.476 197.797C413.834 198.003 414.25 198.106 414.724 198.106C415.032 198.106 415.31 198.063 415.559 197.976C415.811 197.887 416.028 197.754 416.21 197.579C416.393 197.4 416.533 197.178 416.633 196.912L417.766 197.231C417.647 197.615 417.447 197.953 417.165 198.245C416.883 198.533 416.535 198.759 416.121 198.921C415.707 199.08 415.241 199.16 414.724 199.16ZM422.872 199.16C422.136 199.16 421.502 198.997 420.968 198.672C420.438 198.344 420.028 197.887 419.74 197.3C419.455 196.71 419.313 196.024 419.313 195.242C419.313 194.46 419.455 193.77 419.74 193.174C420.028 192.574 420.43 192.107 420.943 191.772C421.46 191.434 422.064 191.265 422.753 191.265C423.151 191.265 423.543 191.331 423.931 191.464C424.319 191.596 424.672 191.812 424.99 192.11C425.308 192.405 425.562 192.796 425.751 193.283C425.94 193.77 426.034 194.37 426.034 195.083V195.58H420.148V194.566H424.841C424.841 194.135 424.755 193.75 424.582 193.412C424.413 193.074 424.171 192.808 423.857 192.612C423.545 192.416 423.177 192.319 422.753 192.319C422.286 192.319 421.881 192.435 421.54 192.667C421.202 192.895 420.942 193.194 420.759 193.562C420.577 193.929 420.486 194.324 420.486 194.745V195.421C420.486 195.998 420.585 196.487 420.784 196.888C420.986 197.285 421.266 197.589 421.624 197.797C421.982 198.003 422.398 198.106 422.872 198.106C423.18 198.106 423.459 198.063 423.707 197.976C423.959 197.887 424.176 197.754 424.359 197.579C424.541 197.4 424.682 197.178 424.781 196.912L425.915 197.231C425.796 197.615 425.595 197.953 425.313 198.245C425.032 198.533 424.684 198.759 424.269 198.921C423.855 199.08 423.389 199.16 422.872 199.16Z" fill="#616B7C"/>
<path d="M477.808 188.819V199H476.575V188.819H477.808ZM483.442 191.364V192.358H479.484V191.364H483.442ZM480.638 189.535H481.811V196.813C481.811 197.144 481.859 197.393 481.955 197.559C482.055 197.721 482.181 197.831 482.333 197.887C482.489 197.94 482.653 197.966 482.825 197.966C482.955 197.966 483.061 197.96 483.143 197.947C483.226 197.93 483.293 197.917 483.342 197.907L483.581 198.961C483.501 198.991 483.39 199.02 483.248 199.05C483.105 199.083 482.925 199.1 482.706 199.1C482.375 199.1 482.05 199.029 481.732 198.886C481.417 198.744 481.155 198.527 480.946 198.235C480.741 197.943 480.638 197.575 480.638 197.131V189.535ZM488.326 199.16C487.591 199.16 486.956 198.997 486.422 198.672C485.892 198.344 485.483 197.887 485.194 197.3C484.909 196.71 484.767 196.024 484.767 195.242C484.767 194.46 484.909 193.77 485.194 193.174C485.483 192.574 485.884 192.107 486.397 191.772C486.914 191.434 487.518 191.265 488.207 191.265C488.605 191.265 488.998 191.331 489.385 191.464C489.773 191.596 490.126 191.812 490.444 192.11C490.762 192.405 491.016 192.796 491.205 193.283C491.394 193.77 491.488 194.37 491.488 195.083V195.58H485.602V194.566H490.295C490.295 194.135 490.209 193.75 490.037 193.412C489.868 193.074 489.626 192.808 489.311 192.612C488.999 192.416 488.631 192.319 488.207 192.319C487.74 192.319 487.335 192.435 486.994 192.667C486.656 192.895 486.396 193.194 486.213 193.562C486.031 193.929 485.94 194.324 485.94 194.745V195.421C485.94 195.998 486.039 196.487 486.238 196.888C486.44 197.285 486.721 197.589 487.078 197.797C487.436 198.003 487.852 198.106 488.326 198.106C488.635 198.106 488.913 198.063 489.162 197.976C489.413 197.887 489.631 197.754 489.813 197.579C489.995 197.4 490.136 197.178 490.235 196.912L491.369 197.231C491.25 197.615 491.049 197.953 490.767 198.245C490.486 198.533 490.138 198.759 489.723 198.921C489.309 199.08 488.843 199.16 488.326 199.16ZM493.273 199V191.364H494.407V192.557H494.506C494.665 192.15 494.922 191.833 495.277 191.608C495.631 191.379 496.057 191.265 496.554 191.265C497.058 191.265 497.477 191.379 497.812 191.608C498.15 191.833 498.414 192.15 498.603 192.557H498.682C498.878 192.163 499.171 191.85 499.562 191.618C499.953 191.382 500.422 191.265 500.969 191.265C501.652 191.265 502.21 191.478 502.645 191.906C503.079 192.33 503.296 192.991 503.296 193.89V199H502.123V193.89C502.123 193.326 501.968 192.924 501.66 192.682C501.352 192.44 500.989 192.319 500.571 192.319C500.034 192.319 499.618 192.481 499.324 192.806C499.029 193.127 498.881 193.535 498.881 194.029V199H497.688V193.77C497.688 193.336 497.547 192.987 497.265 192.721C496.984 192.453 496.621 192.319 496.176 192.319C495.872 192.319 495.587 192.4 495.321 192.562C495.06 192.725 494.847 192.95 494.685 193.238C494.526 193.523 494.446 193.853 494.446 194.228V199H493.273ZM509.538 199V188.819H515.643V189.912H510.771V193.353H515.185V194.447H510.771V199H509.538ZM520.137 199.16C519.448 199.16 518.843 198.996 518.322 198.667C517.805 198.339 517.401 197.88 517.109 197.29C516.821 196.7 516.677 196.011 516.677 195.222C516.677 194.427 516.821 193.732 517.109 193.139C517.401 192.546 517.805 192.085 518.322 191.757C518.843 191.429 519.448 191.265 520.137 191.265C520.826 191.265 521.43 191.429 521.947 191.757C522.467 192.085 522.871 192.546 523.16 193.139C523.451 193.732 523.597 194.427 523.597 195.222C523.597 196.011 523.451 196.7 523.16 197.29C522.871 197.88 522.467 198.339 521.947 198.667C521.43 198.996 520.826 199.16 520.137 199.16ZM520.137 198.106C520.661 198.106 521.092 197.971 521.43 197.703C521.768 197.434 522.018 197.081 522.18 196.644C522.343 196.206 522.424 195.732 522.424 195.222C522.424 194.712 522.343 194.236 522.18 193.795C522.018 193.354 521.768 192.998 521.43 192.726C521.092 192.455 520.661 192.319 520.137 192.319C519.613 192.319 519.183 192.455 518.844 192.726C518.506 192.998 518.256 193.354 518.094 193.795C517.931 194.236 517.85 194.712 517.85 195.222C517.85 195.732 517.931 196.206 518.094 196.644C518.256 197.081 518.506 197.434 518.844 197.703C519.183 197.971 519.613 198.106 520.137 198.106ZM530.201 195.878V191.364H531.374V199H530.201V197.708H530.121C529.942 198.096 529.664 198.425 529.286 198.697C528.908 198.966 528.431 199.1 527.854 199.1C527.377 199.1 526.953 198.996 526.581 198.787C526.21 198.575 525.919 198.256 525.706 197.832C525.494 197.405 525.388 196.866 525.388 196.216V191.364H526.562V196.137C526.562 196.694 526.717 197.138 527.029 197.469C527.344 197.801 527.745 197.966 528.232 197.966C528.524 197.966 528.82 197.892 529.122 197.743C529.427 197.594 529.682 197.365 529.888 197.057C530.096 196.748 530.201 196.356 530.201 195.878ZM533.523 199V191.364H534.657V192.518H534.736C534.875 192.14 535.127 191.833 535.492 191.598C535.856 191.362 536.267 191.245 536.725 191.245C536.811 191.245 536.919 191.246 537.048 191.25C537.177 191.253 537.275 191.258 537.341 191.265V192.458C537.301 192.448 537.21 192.433 537.068 192.413C536.929 192.39 536.781 192.378 536.625 192.378C536.254 192.378 535.923 192.456 535.631 192.612C535.343 192.764 535.114 192.977 534.945 193.248C534.779 193.517 534.696 193.823 534.696 194.168V199H533.523Z" fill="#616B7C"/>
<path d="M588.881 188.819V199H587.648V188.819H588.881ZM594.515 191.364V192.358H590.558V191.364H594.515ZM591.711 189.535H592.884V196.813C592.884 197.144 592.932 197.393 593.028 197.559C593.128 197.721 593.254 197.831 593.406 197.887C593.562 197.94 593.726 197.966 593.899 197.966C594.028 197.966 594.134 197.96 594.217 197.947C594.3 197.93 594.366 197.917 594.416 197.907L594.654 198.961C594.575 198.991 594.464 199.02 594.321 199.05C594.179 199.083 593.998 199.1 593.779 199.1C593.448 199.1 593.123 199.029 592.805 198.886C592.49 198.744 592.228 198.527 592.019 198.235C591.814 197.943 591.711 197.575 591.711 197.131V189.535ZM599.4 199.16C598.664 199.16 598.029 198.997 597.495 198.672C596.965 198.344 596.556 197.887 596.267 197.3C595.982 196.71 595.84 196.024 595.84 195.242C595.84 194.46 595.982 193.77 596.267 193.174C596.556 192.574 596.957 192.107 597.471 191.772C597.988 191.434 598.591 191.265 599.28 191.265C599.678 191.265 600.071 191.331 600.459 191.464C600.846 191.596 601.199 191.812 601.517 192.11C601.836 192.405 602.089 192.796 602.278 193.283C602.467 193.77 602.562 194.37 602.562 195.083V195.58H596.675V194.566H601.368C601.368 194.135 601.282 193.75 601.11 193.412C600.941 193.074 600.699 192.808 600.384 192.612C600.072 192.416 599.705 192.319 599.28 192.319C598.813 192.319 598.409 192.435 598.067 192.667C597.729 192.895 597.469 193.194 597.287 193.562C597.104 193.929 597.013 194.324 597.013 194.745V195.421C597.013 195.998 597.113 196.487 597.312 196.888C597.514 197.285 597.794 197.589 598.152 197.797C598.51 198.003 598.926 198.106 599.4 198.106C599.708 198.106 599.986 198.063 600.235 197.976C600.487 197.887 600.704 197.754 600.886 197.579C601.068 197.4 601.209 197.178 601.309 196.912L602.442 197.231C602.323 197.615 602.122 197.953 601.841 198.245C601.559 198.533 601.211 198.759 600.797 198.921C600.382 199.08 599.917 199.16 599.4 199.16ZM604.346 199V191.364H605.48V192.557H605.579C605.738 192.15 605.995 191.833 606.35 191.608C606.705 191.379 607.13 191.265 607.628 191.265C608.131 191.265 608.551 191.379 608.885 191.608C609.223 191.833 609.487 192.15 609.676 192.557H609.755C609.951 192.163 610.244 191.85 610.635 191.618C611.026 191.382 611.495 191.265 612.042 191.265C612.725 191.265 613.284 191.478 613.718 191.906C614.152 192.33 614.369 192.991 614.369 193.89V199H613.196V193.89C613.196 193.326 613.042 192.924 612.733 192.682C612.425 192.44 612.062 192.319 611.645 192.319C611.108 192.319 610.692 192.481 610.397 192.806C610.102 193.127 609.954 193.535 609.954 194.029V199H608.761V193.77C608.761 193.336 608.62 192.987 608.339 192.721C608.057 192.453 607.694 192.319 607.25 192.319C606.945 192.319 606.66 192.4 606.395 192.562C606.133 192.725 605.921 192.95 605.758 193.238C605.599 193.523 605.52 193.853 605.52 194.228V199H604.346ZM620.611 199V188.819H626.716V189.912H621.844V193.353H626.259V194.447H621.844V199H620.611ZM628.669 199V191.364H629.842V199H628.669ZM629.265 190.091C629.036 190.091 628.839 190.014 628.674 189.858C628.511 189.702 628.43 189.515 628.43 189.296C628.43 189.077 628.511 188.89 628.674 188.734C628.839 188.578 629.036 188.5 629.265 188.5C629.494 188.5 629.689 188.578 629.852 188.734C630.018 188.89 630.1 189.077 630.1 189.296C630.1 189.515 630.018 189.702 629.852 189.858C629.689 190.014 629.494 190.091 629.265 190.091ZM638.235 191.364L635.411 199H634.218L631.394 191.364H632.667L634.775 197.449H634.854L636.962 191.364H638.235ZM642.712 199.16C641.976 199.16 641.342 198.997 640.808 198.672C640.278 198.344 639.868 197.887 639.58 197.3C639.295 196.71 639.152 196.024 639.152 195.242C639.152 194.46 639.295 193.77 639.58 193.174C639.868 192.574 640.269 192.107 640.783 191.772C641.3 191.434 641.903 191.265 642.593 191.265C642.991 191.265 643.383 191.331 643.771 191.464C644.159 191.596 644.512 191.812 644.83 192.11C645.148 192.405 645.402 192.796 645.591 193.283C645.78 193.77 645.874 194.37 645.874 195.083V195.58H639.988V194.566H644.681C644.681 194.135 644.595 193.75 644.422 193.412C644.253 193.074 644.011 192.808 643.696 192.612C643.385 192.416 643.017 192.319 642.593 192.319C642.125 192.319 641.721 192.435 641.38 192.667C641.042 192.895 640.781 193.194 640.599 193.562C640.417 193.929 640.326 194.324 640.326 194.745V195.421C640.326 195.998 640.425 196.487 640.624 196.888C640.826 197.285 641.106 197.589 641.464 197.797C641.822 198.003 642.238 198.106 642.712 198.106C643.02 198.106 643.299 198.063 643.547 197.976C643.799 197.887 644.016 197.754 644.199 197.579C644.381 197.4 644.522 197.178 644.621 196.912L645.755 197.231C645.635 197.615 645.435 197.953 645.153 198.245C644.871 198.533 644.523 198.759 644.109 198.921C643.695 199.08 643.229 199.16 642.712 199.16Z" fill="#616B7C"/>
<path d="M697.579 188.819V199H696.346V188.819H697.579ZM703.213 191.364V192.358H699.256V191.364H703.213ZM700.409 189.535H701.583V196.813C701.583 197.144 701.631 197.393 701.727 197.559C701.826 197.721 701.952 197.831 702.105 197.887C702.26 197.94 702.424 197.966 702.597 197.966C702.726 197.966 702.832 197.96 702.915 197.947C702.998 197.93 703.064 197.917 703.114 197.907L703.352 198.961C703.273 198.991 703.162 199.02 703.019 199.05C702.877 199.083 702.696 199.1 702.477 199.1C702.146 199.1 701.821 199.029 701.503 198.886C701.188 198.744 700.926 198.527 700.718 198.235C700.512 197.943 700.409 197.575 700.409 197.131V189.535ZM708.098 199.16C707.362 199.16 706.727 198.997 706.194 198.672C705.663 198.344 705.254 197.887 704.966 197.3C704.681 196.71 704.538 196.024 704.538 195.242C704.538 194.46 704.681 193.77 704.966 193.174C705.254 192.574 705.655 192.107 706.169 191.772C706.686 191.434 707.289 191.265 707.979 191.265C708.376 191.265 708.769 191.331 709.157 191.464C709.545 191.596 709.898 191.812 710.216 192.11C710.534 192.405 710.787 192.796 710.976 193.283C711.165 193.77 711.26 194.37 711.26 195.083V195.58H705.373V194.566H710.067C710.067 194.135 709.98 193.75 709.808 193.412C709.639 193.074 709.397 192.808 709.082 192.612C708.771 192.416 708.403 192.319 707.979 192.319C707.511 192.319 707.107 192.435 706.765 192.667C706.427 192.895 706.167 193.194 705.985 193.562C705.803 193.929 705.711 194.324 705.711 194.745V195.421C705.711 195.998 705.811 196.487 706.01 196.888C706.212 197.285 706.492 197.589 706.85 197.797C707.208 198.003 707.624 198.106 708.098 198.106C708.406 198.106 708.684 198.063 708.933 197.976C709.185 197.887 709.402 197.754 709.584 197.579C709.767 197.4 709.907 197.178 710.007 196.912L711.14 197.231C711.021 197.615 710.821 197.953 710.539 198.245C710.257 198.533 709.909 198.759 709.495 198.921C709.081 199.08 708.615 199.16 708.098 199.16ZM713.045 199V191.364H714.178V192.557H714.278C714.437 192.15 714.693 191.833 715.048 191.608C715.403 191.379 715.829 191.265 716.326 191.265C716.83 191.265 717.249 191.379 717.584 191.608C717.922 191.833 718.185 192.15 718.374 192.557H718.454C718.649 192.163 718.943 191.85 719.334 191.618C719.725 191.382 720.194 191.265 720.741 191.265C721.423 191.265 721.982 191.478 722.416 191.906C722.85 192.33 723.067 192.991 723.067 193.89V199H721.894V193.89C721.894 193.326 721.74 192.924 721.432 192.682C721.123 192.44 720.76 192.319 720.343 192.319C719.806 192.319 719.39 192.481 719.095 192.806C718.8 193.127 718.653 193.535 718.653 194.029V199H717.459V193.77C717.459 193.336 717.318 192.987 717.037 192.721C716.755 192.453 716.392 192.319 715.948 192.319C715.643 192.319 715.358 192.4 715.093 192.562C714.831 192.725 714.619 192.95 714.456 193.238C714.297 193.523 714.218 193.853 714.218 194.228V199H713.045ZM734.877 191.364C734.818 190.86 734.576 190.469 734.151 190.191C733.727 189.912 733.207 189.773 732.59 189.773C732.14 189.773 731.745 189.846 731.407 189.992C731.072 190.138 730.811 190.338 730.622 190.594C730.436 190.849 730.343 191.139 730.343 191.464C730.343 191.735 730.408 191.969 730.537 192.165C730.67 192.357 730.839 192.518 731.044 192.647C731.25 192.773 731.465 192.877 731.691 192.96C731.916 193.04 732.123 193.104 732.312 193.154L733.346 193.432C733.611 193.502 733.906 193.598 734.231 193.721C734.559 193.843 734.872 194.011 735.171 194.223C735.472 194.432 735.721 194.7 735.916 195.028C736.112 195.356 736.21 195.759 736.21 196.236C736.21 196.786 736.066 197.284 735.777 197.728C735.492 198.172 735.075 198.525 734.524 198.787C733.977 199.049 733.313 199.179 732.531 199.179C731.802 199.179 731.17 199.062 730.637 198.826C730.106 198.591 729.689 198.263 729.384 197.842C729.082 197.421 728.911 196.932 728.872 196.375H730.144C730.177 196.76 730.307 197.078 730.532 197.33C730.761 197.579 731.049 197.764 731.397 197.887C731.749 198.006 732.126 198.066 732.531 198.066C733.001 198.066 733.424 197.99 733.798 197.837C734.173 197.681 734.47 197.466 734.688 197.191C734.907 196.912 735.017 196.588 735.017 196.216C735.017 195.878 734.922 195.603 734.733 195.391C734.544 195.179 734.296 195.007 733.987 194.874C733.679 194.741 733.346 194.625 732.988 194.526L731.735 194.168C730.94 193.939 730.31 193.613 729.846 193.189C729.382 192.764 729.15 192.209 729.15 191.523C729.15 190.953 729.304 190.456 729.612 190.032C729.924 189.604 730.342 189.273 730.865 189.037C731.392 188.799 731.981 188.679 732.63 188.679C733.286 188.679 733.87 188.797 734.38 189.032C734.891 189.264 735.295 189.583 735.593 189.987C735.895 190.391 736.054 190.85 736.07 191.364H734.877ZM738.078 199V191.364H739.251V199H738.078ZM738.674 190.091C738.446 190.091 738.248 190.014 738.083 189.858C737.92 189.702 737.839 189.515 737.839 189.296C737.839 189.077 737.92 188.89 738.083 188.734C738.248 188.578 738.446 188.5 738.674 188.5C738.903 188.5 739.099 188.578 739.261 188.734C739.427 188.89 739.51 189.077 739.51 189.296C739.51 189.515 739.427 189.702 739.261 189.858C739.099 190.014 738.903 190.091 738.674 190.091ZM742.275 191.364L744.105 194.486L745.934 191.364H747.286L744.82 195.182L747.286 199H745.934L744.105 196.037L742.275 199H740.923L743.349 195.182L740.923 191.364H742.275Z" fill="#616B7C"/>
<path fill-rule="evenodd" clip-rule="evenodd" d="M771.293 199.708C770.902 199.317 770.902 198.684 771.293 198.293L774.586 195L771.293 191.708C770.902 191.317 770.902 190.684 771.293 190.293C771.683 189.903 772.317 189.903 772.707 190.293L776.707 194.293C777.098 194.684 777.098 195.317 776.707 195.708L772.707 199.708C772.317 200.098 771.683 200.098 771.293 199.708Z" fill="#C4C6D7"/>
<rect x="0.5" y="0.500488" width="993" height="275" rx="16.5" stroke="#F2F2F8"/>
<defs>
<linearGradient id="paint0_linear_1158_81530" x1="755.5" y1="82.0005" x2="429" y2="75.5005" gradientUnits="userSpaceOnUse">
<stop stop-color="white"/>
<stop offset="1" stop-color="white" stop-opacity="0"/>
</linearGradient>
</defs>
</svg>
