<svg width="994" height="320" viewBox="0 0 994 320" fill="none" xmlns="http://www.w3.org/2000/svg">
<g clip-path="url(#clip0_1158_81501)">
<rect x="1" y="1.00049" width="992" height="318" rx="16" fill="#FCFCFF"/>
<g clip-path="url(#clip1_1158_81501)">
<rect width="1725" height="1037" transform="translate(-328 -163)" fill="#FCFCFF"/>
<rect x="-326.5" y="-162.5" width="1727" height="249" fill="white" stroke="white"/>
<g filter="url(#filter0_d_1158_81501)">
<rect x="933" y="-74.9995" width="440" height="72" rx="4" fill="white"/>
<rect x="933.5" y="-74.4995" width="439" height="71" rx="3.5" stroke="#F2F2F8"/>
</g>
<path d="M72.5708 65.0005V54.8187H78.676V55.9124H73.8038V59.3528H78.2186V60.4465H73.8038V65.0005H72.5708ZM80.6286 65.0005V57.3641H81.8018V65.0005H80.6286ZM81.2251 56.0914C80.9964 56.0914 80.7992 56.0135 80.6335 55.8577C80.4711 55.702 80.3899 55.5147 80.3899 55.2959C80.3899 55.0772 80.4711 54.8899 80.6335 54.7342C80.7992 54.5784 80.9964 54.5005 81.2251 54.5005C81.4538 54.5005 81.6494 54.5784 81.8118 54.7342C81.9775 54.8899 82.0604 55.0772 82.0604 55.2959C82.0604 55.5147 81.9775 55.702 81.8118 55.8577C81.6494 56.0135 81.4538 56.0914 81.2251 56.0914ZM85.1241 54.8187V65.0005H83.9508V54.8187H85.1241ZM90.4748 65.1596C89.739 65.1596 89.1043 64.9972 88.5707 64.6724C88.0404 64.3442 87.631 63.8869 87.3427 63.3002C87.0576 62.7102 86.9151 62.0242 86.9151 61.242C86.9151 60.4598 87.0576 59.7704 87.3427 59.1738C87.631 58.5739 88.0321 58.1065 88.5458 57.7718C89.0629 57.4337 89.6661 57.2647 90.3555 57.2647C90.7532 57.2647 91.146 57.331 91.5337 57.4636C91.9215 57.5961 92.2745 57.8116 92.5927 58.1099C92.9109 58.4048 93.1644 58.7959 93.3533 59.2832C93.5423 59.7704 93.6367 60.3703 93.6367 61.0829V61.58H87.7504V60.5658H92.4435C92.4435 60.135 92.3574 59.7505 92.185 59.4124C92.016 59.0744 91.774 58.8075 91.4592 58.612C91.1476 58.4164 90.7797 58.3187 90.3555 58.3187C89.8881 58.3187 89.4838 58.4347 89.1424 58.6667C88.8043 58.8954 88.5442 59.1937 88.3619 59.5616C88.1796 59.9295 88.0884 60.3239 88.0884 60.7448V61.4209C88.0884 61.9976 88.1879 62.4865 88.3867 62.8876C88.5889 63.2853 88.869 63.5886 89.2269 63.7974C89.5849 64.0029 90.0008 64.1056 90.4748 64.1056C90.783 64.1056 91.0614 64.0625 91.31 63.9763C91.5619 63.8869 91.779 63.7543 91.9613 63.5786C92.1436 63.3996 92.2844 63.1776 92.3839 62.9124L93.5174 63.2306C93.3981 63.6151 93.1976 63.9531 92.9158 64.2448C92.6341 64.5332 92.2861 64.7585 91.8718 64.9209C91.4575 65.08 90.9918 65.1596 90.4748 65.1596ZM100.831 59.0744L99.7766 59.3726C99.7103 59.197 99.6126 59.0263 99.4833 58.8606C99.3574 58.6915 99.185 58.5523 98.9663 58.443C98.7475 58.3336 98.4674 58.2789 98.1261 58.2789C97.6587 58.2789 97.2693 58.3866 96.9577 58.6021C96.6495 58.8142 96.4954 59.0843 96.4954 59.4124C96.4954 59.7041 96.6014 59.9344 96.8136 60.1035C97.0257 60.2725 97.3571 60.4134 97.8079 60.5261L98.9414 60.8045C99.6242 60.9702 100.133 61.2237 100.468 61.5651C100.802 61.9032 100.97 62.339 100.97 62.8726C100.97 63.3101 100.844 63.7012 100.592 64.0459C100.343 64.3906 99.9954 64.6624 99.5479 64.8613C99.1005 65.0601 98.5801 65.1596 97.9869 65.1596C97.208 65.1596 96.5633 64.9905 96.0529 64.6525C95.5425 64.3144 95.2193 63.8206 95.0835 63.1709L96.1971 62.8925C96.3031 63.3035 96.5037 63.6118 96.7987 63.8172C97.0969 64.0227 97.4864 64.1255 97.967 64.1255C98.5138 64.1255 98.948 64.0095 99.2695 63.7775C99.5943 63.5422 99.7567 63.2604 99.7567 62.9323C99.7567 62.6672 99.6639 62.4451 99.4783 62.2661C99.2927 62.0838 99.0077 61.9479 98.6232 61.8584L97.3505 61.5601C96.6512 61.3944 96.1374 61.1376 95.8093 60.7896C95.4845 60.4382 95.3221 59.9991 95.3221 59.4721C95.3221 59.0412 95.4431 58.6601 95.685 58.3286C95.9303 57.9972 96.2634 57.737 96.6843 57.5481C97.1085 57.3592 97.5891 57.2647 98.1261 57.2647C98.8817 57.2647 99.475 57.4304 99.9059 57.7619C100.34 58.0933 100.648 58.5308 100.831 59.0744Z" fill="#616B7C"/>
<path d="M158.285 54.8187H159.518V61.5601C159.518 62.2562 159.354 62.8776 159.026 63.4245C158.701 63.9681 158.242 64.3973 157.649 64.7121C157.055 65.0237 156.359 65.1795 155.56 65.1795C154.762 65.1795 154.066 65.0237 153.472 64.7121C152.879 64.3973 152.418 63.9681 152.09 63.4245C151.765 62.8776 151.603 62.2562 151.603 61.5601V54.8187H152.836V61.4607C152.836 61.9579 152.945 62.4003 153.164 62.7881C153.383 63.1726 153.694 63.4759 154.099 63.6979C154.506 63.9167 154.994 64.0261 155.56 64.0261C156.127 64.0261 156.614 63.9167 157.022 63.6979C157.43 63.4759 157.741 63.1726 157.957 62.7881C158.176 62.4003 158.285 61.9579 158.285 61.4607V54.8187ZM167.23 59.0744L166.176 59.3726C166.11 59.197 166.012 59.0263 165.883 58.8606C165.757 58.6915 165.584 58.5523 165.366 58.443C165.147 58.3336 164.867 58.2789 164.525 58.2789C164.058 58.2789 163.669 58.3866 163.357 58.6021C163.049 58.8142 162.895 59.0843 162.895 59.4124C162.895 59.7041 163.001 59.9344 163.213 60.1035C163.425 60.2725 163.757 60.4134 164.207 60.5261L165.341 60.8045C166.024 60.9702 166.532 61.2237 166.867 61.5651C167.202 61.9032 167.369 62.339 167.369 62.8726C167.369 63.3101 167.243 63.7012 166.991 64.0459C166.743 64.3906 166.395 64.6624 165.947 64.8613C165.5 65.0601 164.98 65.1596 164.386 65.1596C163.607 65.1596 162.963 64.9905 162.452 64.6525C161.942 64.3144 161.619 63.8206 161.483 63.1709L162.597 62.8925C162.703 63.3035 162.903 63.6118 163.198 63.8172C163.496 64.0227 163.886 64.1255 164.366 64.1255C164.913 64.1255 165.347 64.0095 165.669 63.7775C165.994 63.5422 166.156 63.2604 166.156 62.9323C166.156 62.6672 166.063 62.4451 165.878 62.2661C165.692 62.0838 165.407 61.9479 165.023 61.8584L163.75 61.5601C163.051 61.3944 162.537 61.1376 162.209 60.7896C161.884 60.4382 161.722 59.9991 161.722 59.4721C161.722 59.0412 161.842 58.6601 162.084 58.3286C162.33 57.9972 162.663 57.737 163.084 57.5481C163.508 57.3592 163.989 57.2647 164.525 57.2647C165.281 57.2647 165.874 57.4304 166.305 57.7619C166.739 58.0933 167.048 58.5308 167.23 59.0744ZM171.383 65.1795C170.899 65.1795 170.459 65.0883 170.065 64.906C169.671 64.7204 169.357 64.4536 169.125 64.1056C168.893 63.7543 168.777 63.33 168.777 62.8329C168.777 62.3954 168.864 62.0407 169.036 61.769C169.208 61.4939 169.439 61.2784 169.727 61.1226C170.015 60.9669 170.334 60.8509 170.682 60.7746C171.033 60.6951 171.386 60.6321 171.741 60.5857C172.205 60.5261 172.581 60.4813 172.869 60.4515C173.161 60.4183 173.373 60.3637 173.505 60.2874C173.641 60.2112 173.709 60.0786 173.709 59.8897V59.8499C173.709 59.3594 173.575 58.9782 173.307 58.7065C173.041 58.4347 172.639 58.2988 172.098 58.2988C171.538 58.2988 171.099 58.4214 170.781 58.6667C170.463 58.9119 170.239 59.1738 170.11 59.4522L168.996 59.0545C169.195 58.5905 169.46 58.2292 169.792 57.9707C170.126 57.7088 170.491 57.5265 170.885 57.4238C171.283 57.3177 171.674 57.2647 172.059 57.2647C172.304 57.2647 172.586 57.2945 172.904 57.3542C173.225 57.4105 173.535 57.5282 173.834 57.7072C174.135 57.8861 174.385 58.1563 174.584 58.5175C174.783 58.8788 174.883 59.3627 174.883 59.9692V65.0005H173.709V63.9664H173.65C173.57 64.1321 173.437 64.3094 173.252 64.4984C173.066 64.6873 172.819 64.848 172.511 64.9806C172.203 65.1132 171.827 65.1795 171.383 65.1795ZM171.562 64.1255C172.026 64.1255 172.417 64.0343 172.735 63.8521C173.056 63.6698 173.298 63.4344 173.461 63.1461C173.626 62.8577 173.709 62.5545 173.709 62.2363V61.1624C173.66 61.2221 173.55 61.2768 173.381 61.3265C173.215 61.3729 173.023 61.4143 172.804 61.4508C172.589 61.4839 172.379 61.5137 172.173 61.5403C171.971 61.5635 171.807 61.5833 171.681 61.5999C171.376 61.6397 171.091 61.7043 170.826 61.7938C170.564 61.88 170.352 62.0109 170.189 62.1866C170.03 62.3589 169.951 62.5942 169.951 62.8925C169.951 63.3002 170.102 63.6084 170.403 63.8172C170.708 64.0227 171.094 64.1255 171.562 64.1255ZM180.106 68.0232C179.54 68.0232 179.052 67.9503 178.645 67.8045C178.237 67.6619 177.897 67.473 177.626 67.2377C177.357 67.0057 177.143 66.7571 176.984 66.492L177.919 65.8357C178.025 65.9749 178.159 66.134 178.322 66.313C178.484 66.4953 178.706 66.6527 178.988 66.7853C179.273 66.9212 179.646 66.9891 180.106 66.9891C180.723 66.9891 181.232 66.84 181.633 66.5417C182.034 66.2434 182.234 65.7761 182.234 65.1397V63.5886H182.135C182.049 63.7278 181.926 63.9001 181.767 64.1056C181.611 64.3078 181.386 64.4884 181.091 64.6475C180.799 64.8033 180.405 64.8812 179.908 64.8812C179.291 64.8812 178.738 64.7353 178.247 64.4437C177.76 64.152 177.374 63.7278 177.089 63.1709C176.807 62.6141 176.666 61.938 176.666 61.1425C176.666 60.3603 176.804 59.6792 177.079 59.0992C177.354 58.5159 177.737 58.0651 178.227 57.7469C178.718 57.4254 179.284 57.2647 179.927 57.2647C180.425 57.2647 180.819 57.3476 181.111 57.5133C181.406 57.6757 181.631 57.8613 181.787 58.0701C181.946 58.2756 182.069 58.4446 182.155 58.5772H182.274V57.3641H183.408V65.2192C183.408 65.8755 183.258 66.4091 182.96 66.8201C182.665 67.2344 182.267 67.5377 181.767 67.7299C181.27 67.9254 180.716 68.0232 180.106 68.0232ZM180.067 63.8272C180.537 63.8272 180.935 63.7195 181.26 63.504C181.585 63.2886 181.832 62.9787 182.001 62.5744C182.17 62.17 182.254 61.6861 182.254 61.1226C182.254 60.5725 182.171 60.0869 182.006 59.666C181.84 59.245 181.595 58.9153 181.27 58.6766C180.945 58.438 180.544 58.3187 180.067 58.3187C179.57 58.3187 179.155 58.4446 178.824 58.6965C178.496 58.9484 178.249 59.2865 178.083 59.7107C177.921 60.135 177.839 60.6056 177.839 61.1226C177.839 61.653 177.922 62.1219 178.088 62.5296C178.257 62.934 178.506 63.2521 178.834 63.4842C179.165 63.7128 179.576 63.8272 180.067 63.8272ZM188.757 65.1596C188.021 65.1596 187.387 64.9972 186.853 64.6724C186.323 64.3442 185.913 63.8869 185.625 63.3002C185.34 62.7102 185.197 62.0242 185.197 61.242C185.197 60.4598 185.34 59.7704 185.625 59.1738C185.913 58.5739 186.314 58.1065 186.828 57.7718C187.345 57.4337 187.948 57.2647 188.638 57.2647C189.035 57.2647 189.428 57.331 189.816 57.4636C190.204 57.5961 190.557 57.8116 190.875 58.1099C191.193 58.4048 191.447 58.7959 191.636 59.2832C191.824 59.7704 191.919 60.3703 191.919 61.0829V61.58H186.033V60.5658H190.726C190.726 60.135 190.64 59.7505 190.467 59.4124C190.298 59.0744 190.056 58.8075 189.741 58.612C189.43 58.4164 189.062 58.3187 188.638 58.3187C188.17 58.3187 187.766 58.4347 187.425 58.6667C187.087 58.8954 186.826 59.1937 186.644 59.5616C186.462 59.9295 186.371 60.3239 186.371 60.7448V61.4209C186.371 61.9976 186.47 62.4865 186.669 62.8876C186.871 63.2853 187.151 63.5886 187.509 63.7974C187.867 64.0029 188.283 64.1056 188.757 64.1056C189.065 64.1056 189.344 64.0625 189.592 63.9763C189.844 63.8869 190.061 63.7543 190.244 63.5786C190.426 63.3996 190.567 63.1776 190.666 62.9124L191.8 63.2306C191.68 63.6151 191.48 63.9531 191.198 64.2448C190.916 64.5332 190.568 64.7585 190.154 64.9209C189.74 65.08 189.274 65.1596 188.757 65.1596Z" fill="#616B7C"/>
<path d="M247.998 57.3641C247.939 56.8603 247.697 56.4692 247.273 56.1908C246.848 55.9124 246.328 55.7732 245.711 55.7732C245.261 55.7732 244.866 55.8461 244.528 55.992C244.193 56.1378 243.932 56.3383 243.743 56.5935C243.557 56.8487 243.464 57.1387 243.464 57.4636C243.464 57.7353 243.529 57.969 243.658 58.1646C243.791 58.3568 243.96 58.5175 244.165 58.6468C244.371 58.7727 244.586 58.8771 244.812 58.96C245.037 59.0396 245.244 59.1042 245.433 59.1539L246.467 59.4323C246.732 59.5019 247.027 59.598 247.352 59.7207C247.68 59.8433 247.993 60.0107 248.292 60.2228C248.593 60.4316 248.842 60.7001 249.037 61.0282C249.233 61.3563 249.331 61.759 249.331 62.2363C249.331 62.7865 249.187 63.2836 248.898 63.7278C248.613 64.1719 248.196 64.5249 247.645 64.7867C247.099 65.0485 246.434 65.1795 245.652 65.1795C244.923 65.1795 244.291 65.0618 243.758 64.8265C243.227 64.5912 242.81 64.263 242.505 63.8421C242.203 63.4212 242.032 62.9323 241.993 62.3755H243.265C243.299 62.76 243.428 63.0781 243.653 63.33C243.882 63.5786 244.17 63.7642 244.518 63.8869C244.87 64.0062 245.247 64.0658 245.652 64.0658C246.122 64.0658 246.545 63.9896 246.92 63.8371C247.294 63.6814 247.591 63.4659 247.809 63.1908C248.028 62.9124 248.138 62.5876 248.138 62.2164C248.138 61.8783 248.043 61.6032 247.854 61.3911C247.665 61.179 247.417 61.0066 247.108 60.8741C246.8 60.7415 246.467 60.6255 246.109 60.5261L244.856 60.1681C244.061 59.9394 243.431 59.6129 242.967 59.1887C242.503 58.7645 242.271 58.2093 242.271 57.5232C242.271 56.9531 242.425 56.456 242.733 56.0317C243.045 55.6042 243.463 55.2727 243.986 55.0374C244.513 54.7988 245.102 54.6795 245.751 54.6795C246.407 54.6795 246.991 54.7971 247.501 55.0324C248.012 55.2645 248.416 55.5826 248.714 55.987C249.016 56.3913 249.175 56.8504 249.192 57.3641H247.998ZM254.401 65.1596C253.665 65.1596 253.03 64.9972 252.496 64.6724C251.966 64.3442 251.557 63.8869 251.268 63.3002C250.983 62.7102 250.841 62.0242 250.841 61.242C250.841 60.4598 250.983 59.7704 251.268 59.1738C251.557 58.5739 251.958 58.1065 252.472 57.7718C252.989 57.4337 253.592 57.2647 254.281 57.2647C254.679 57.2647 255.072 57.331 255.46 57.4636C255.847 57.5961 256.2 57.8116 256.518 58.1099C256.837 58.4048 257.09 58.7959 257.279 59.2832C257.468 59.7704 257.562 60.3703 257.562 61.0829V61.58H251.676V60.5658H256.369C256.369 60.135 256.283 59.7505 256.111 59.4124C255.942 59.0744 255.7 58.8075 255.385 58.612C255.073 58.4164 254.705 58.3187 254.281 58.3187C253.814 58.3187 253.41 58.4347 253.068 58.6667C252.73 58.8954 252.47 59.1937 252.288 59.5616C252.105 59.9295 252.014 60.3239 252.014 60.7448V61.4209C252.014 61.9976 252.114 62.4865 252.312 62.8876C252.515 63.2853 252.795 63.5886 253.153 63.7974C253.511 64.0029 253.927 64.1056 254.401 64.1056C254.709 64.1056 254.987 64.0625 255.236 63.9763C255.488 63.8869 255.705 63.7543 255.887 63.5786C256.069 63.3996 256.21 63.1776 256.31 62.9124L257.443 63.2306C257.324 63.6151 257.123 63.9531 256.842 64.2448C256.56 64.5332 256.212 64.7585 255.798 64.9209C255.383 65.08 254.918 65.1596 254.401 65.1596ZM262.668 57.3641V58.3584H258.711V57.3641H262.668ZM259.864 55.5346H261.038V62.813C261.038 63.1444 261.086 63.393 261.182 63.5587C261.281 63.7211 261.407 63.8305 261.56 63.8869C261.715 63.9399 261.879 63.9664 262.052 63.9664C262.181 63.9664 262.287 63.9598 262.37 63.9465C262.453 63.9299 262.519 63.9167 262.569 63.9067L262.808 64.9607C262.728 64.9905 262.617 65.0204 262.474 65.0502C262.332 65.0833 262.151 65.0999 261.933 65.0999C261.601 65.0999 261.276 65.0287 260.958 64.8861C260.643 64.7436 260.381 64.5265 260.173 64.2349C259.967 63.9432 259.864 63.5753 259.864 63.1312V55.5346ZM267.754 57.3641V58.3584H263.797V57.3641H267.754ZM264.95 55.5346H266.124V62.813C266.124 63.1444 266.172 63.393 266.268 63.5587C266.367 63.7211 266.493 63.8305 266.646 63.8869C266.801 63.9399 266.965 63.9664 267.138 63.9664C267.267 63.9664 267.373 63.9598 267.456 63.9465C267.539 63.9299 267.605 63.9167 267.655 63.9067L267.893 64.9607C267.814 64.9905 267.703 65.0204 267.56 65.0502C267.418 65.0833 267.237 65.0999 267.018 65.0999C266.687 65.0999 266.362 65.0287 266.044 64.8861C265.729 64.7436 265.467 64.5265 265.259 64.2349C265.053 63.9432 264.95 63.5753 264.95 63.1312V55.5346ZM269.519 65.0005V57.3641H270.692V65.0005H269.519ZM270.116 56.0914C269.887 56.0914 269.69 56.0135 269.524 55.8577C269.362 55.702 269.281 55.5147 269.281 55.2959C269.281 55.0772 269.362 54.8899 269.524 54.7342C269.69 54.5784 269.887 54.5005 270.116 54.5005C270.344 54.5005 270.54 54.5784 270.702 54.7342C270.868 54.8899 270.951 55.0772 270.951 55.2959C270.951 55.5147 270.868 55.702 270.702 55.8577C270.54 56.0135 270.344 56.0914 270.116 56.0914ZM274.015 60.4067V65.0005H272.841V57.3641H273.975V58.5573H274.074C274.253 58.1695 274.525 57.858 274.89 57.6226C275.254 57.384 275.725 57.2647 276.302 57.2647C276.819 57.2647 277.271 57.3708 277.659 57.5829C278.047 57.7917 278.348 58.1099 278.564 58.5374C278.779 58.9617 278.887 59.4986 278.887 60.1482V65.0005H277.714V60.2278C277.714 59.6279 277.558 59.1605 277.246 58.8258C276.935 58.4877 276.507 58.3187 275.964 58.3187C275.589 58.3187 275.254 58.3999 274.959 58.5623C274.668 58.7247 274.437 58.9617 274.268 59.2732C274.099 59.5848 274.015 59.9626 274.015 60.4067ZM284.113 68.0232C283.547 68.0232 283.059 67.9503 282.652 67.8045C282.244 67.6619 281.904 67.473 281.632 67.2377C281.364 67.0057 281.15 66.7571 280.991 66.492L281.926 65.8357C282.032 65.9749 282.166 66.134 282.328 66.313C282.491 66.4953 282.713 66.6527 282.995 66.7853C283.28 66.9212 283.653 66.9891 284.113 66.9891C284.73 66.9891 285.239 66.84 285.64 66.5417C286.041 66.2434 286.241 65.7761 286.241 65.1397V63.5886H286.142C286.056 63.7278 285.933 63.9001 285.774 64.1056C285.618 64.3078 285.393 64.4884 285.098 64.6475C284.806 64.8033 284.412 64.8812 283.914 64.8812C283.298 64.8812 282.744 64.7353 282.254 64.4437C281.767 64.152 281.381 63.7278 281.096 63.1709C280.814 62.6141 280.673 61.938 280.673 61.1425C280.673 60.3603 280.81 59.6792 281.086 59.0992C281.361 58.5159 281.743 58.0651 282.234 57.7469C282.725 57.4254 283.291 57.2647 283.934 57.2647C284.431 57.2647 284.826 57.3476 285.118 57.5133C285.413 57.6757 285.638 57.8613 285.794 58.0701C285.953 58.2756 286.075 58.4446 286.162 58.5772H286.281V57.3641H287.414V65.2192C287.414 65.8755 287.265 66.4091 286.967 66.8201C286.672 67.2344 286.274 67.5377 285.774 67.7299C285.277 67.9254 284.723 68.0232 284.113 68.0232ZM284.074 63.8272C284.544 63.8272 284.942 63.7195 285.267 63.504C285.592 63.2886 285.838 62.9787 286.007 62.5744C286.176 62.17 286.261 61.6861 286.261 61.1226C286.261 60.5725 286.178 60.0869 286.012 59.666C285.847 59.245 285.601 58.9153 285.277 58.6766C284.952 58.438 284.551 58.3187 284.074 58.3187C283.576 58.3187 283.162 58.4446 282.831 58.6965C282.502 58.9484 282.256 59.2865 282.09 59.7107C281.927 60.135 281.846 60.6056 281.846 61.1226C281.846 61.653 281.929 62.1219 282.095 62.5296C282.264 62.934 282.512 63.2521 282.841 63.4842C283.172 63.7128 283.583 63.8272 284.074 63.8272ZM294.971 59.0744L293.917 59.3726C293.851 59.197 293.753 59.0263 293.624 58.8606C293.498 58.6915 293.326 58.5523 293.107 58.443C292.888 58.3336 292.608 58.2789 292.267 58.2789C291.799 58.2789 291.41 58.3866 291.098 58.6021C290.79 58.8142 290.636 59.0843 290.636 59.4124C290.636 59.7041 290.742 59.9344 290.954 60.1035C291.166 60.2725 291.498 60.4134 291.949 60.5261L293.082 60.8045C293.765 60.9702 294.274 61.2237 294.608 61.5651C294.943 61.9032 295.11 62.339 295.11 62.8726C295.11 63.3101 294.984 63.7012 294.733 64.0459C294.484 64.3906 294.136 64.6624 293.689 64.8613C293.241 65.0601 292.721 65.1596 292.127 65.1596C291.349 65.1596 290.704 64.9905 290.194 64.6525C289.683 64.3144 289.36 63.8206 289.224 63.1709L290.338 62.8925C290.444 63.3035 290.644 63.6118 290.939 63.8172C291.238 64.0227 291.627 64.1255 292.108 64.1255C292.654 64.1255 293.089 64.0095 293.41 63.7775C293.735 63.5422 293.897 63.2604 293.897 62.9323C293.897 62.6672 293.805 62.4451 293.619 62.2661C293.433 62.0838 293.148 61.9479 292.764 61.8584L291.491 61.5601C290.792 61.3944 290.278 61.1376 289.95 60.7896C289.625 60.4382 289.463 59.9991 289.463 59.4721C289.463 59.0412 289.584 58.6601 289.826 58.3286C290.071 57.9972 290.404 57.737 290.825 57.5481C291.249 57.3592 291.73 57.2647 292.267 57.2647C293.022 57.2647 293.616 57.4304 294.047 57.7619C294.481 58.0933 294.789 58.5308 294.971 59.0744Z" fill="#DA1A5B"/>
<rect x="225" y="85.0005" width="87" height="2" fill="#DA1A5B"/>
<g filter="url(#filter1_d_1158_81501)">
<rect x="55" y="133" width="1161" height="259" rx="16" fill="white"/>
<path d="M101.526 172.49V185H99.474V176.432L95.658 185H94.236L90.402 176.432V185H88.35V172.49H90.564L94.956 182.3L99.33 172.49H101.526ZM113.313 179.798C113.313 180.17 113.289 180.506 113.241 180.806H105.663C105.723 181.598 106.017 182.234 106.545 182.714C107.073 183.194 107.721 183.434 108.489 183.434C109.593 183.434 110.373 182.972 110.829 182.048H113.043C112.743 182.96 112.197 183.71 111.405 184.298C110.625 184.874 109.653 185.162 108.489 185.162C107.541 185.162 106.689 184.952 105.933 184.532C105.189 184.1 104.601 183.5 104.169 182.732C103.749 181.952 103.539 181.052 103.539 180.032C103.539 179.012 103.743 178.118 104.151 177.35C104.571 176.57 105.153 175.97 105.897 175.55C106.653 175.13 107.517 174.92 108.489 174.92C109.425 174.92 110.259 175.124 110.991 175.532C111.723 175.94 112.293 176.516 112.701 177.26C113.109 177.992 113.313 178.838 113.313 179.798ZM111.171 179.15C111.159 178.394 110.889 177.788 110.361 177.332C109.833 176.876 109.179 176.648 108.399 176.648C107.691 176.648 107.085 176.876 106.581 177.332C106.077 177.776 105.777 178.382 105.681 179.15H111.171ZM114.648 179.996C114.648 179 114.852 178.118 115.26 177.35C115.68 176.582 116.244 175.988 116.952 175.568C117.672 175.136 118.47 174.92 119.346 174.92C119.994 174.92 120.63 175.064 121.254 175.352C121.89 175.628 122.394 176 122.766 176.468V171.68H124.836V185H122.766V183.506C122.43 183.986 121.962 184.382 121.362 184.694C120.774 185.006 120.096 185.162 119.328 185.162C118.464 185.162 117.672 184.946 116.952 184.514C116.244 184.07 115.68 183.458 115.26 182.678C114.852 181.886 114.648 180.992 114.648 179.996ZM122.766 180.032C122.766 179.348 122.622 178.754 122.334 178.25C122.058 177.746 121.692 177.362 121.236 177.098C120.78 176.834 120.288 176.702 119.76 176.702C119.232 176.702 118.74 176.834 118.284 177.098C117.828 177.35 117.456 177.728 117.168 178.232C116.892 178.724 116.754 179.312 116.754 179.996C116.754 180.68 116.892 181.28 117.168 181.796C117.456 182.312 117.828 182.708 118.284 182.984C118.752 183.248 119.244 183.38 119.76 183.38C120.288 183.38 120.78 183.248 121.236 182.984C121.692 182.72 122.058 182.336 122.334 181.832C122.622 181.316 122.766 180.716 122.766 180.032ZM128.576 173.768C128.204 173.768 127.892 173.642 127.64 173.39C127.388 173.138 127.262 172.826 127.262 172.454C127.262 172.082 127.388 171.77 127.64 171.518C127.892 171.266 128.204 171.14 128.576 171.14C128.936 171.14 129.242 171.266 129.494 171.518C129.746 171.77 129.872 172.082 129.872 172.454C129.872 172.826 129.746 173.138 129.494 173.39C129.242 173.642 128.936 173.768 128.576 173.768ZM129.584 175.082V185H127.532V175.082H129.584ZM131.594 179.996C131.594 179 131.798 178.118 132.206 177.35C132.626 176.582 133.19 175.988 133.898 175.568C134.618 175.136 135.41 174.92 136.274 174.92C137.054 174.92 137.732 175.076 138.308 175.388C138.896 175.688 139.364 176.066 139.712 176.522V175.082H141.782V185H139.712V183.524C139.364 183.992 138.89 184.382 138.29 184.694C137.69 185.006 137.006 185.162 136.238 185.162C135.386 185.162 134.606 184.946 133.898 184.514C133.19 184.07 132.626 183.458 132.206 182.678C131.798 181.886 131.594 180.992 131.594 179.996ZM139.712 180.032C139.712 179.348 139.568 178.754 139.28 178.25C139.004 177.746 138.638 177.362 138.182 177.098C137.726 176.834 137.234 176.702 136.706 176.702C136.178 176.702 135.686 176.834 135.23 177.098C134.774 177.35 134.402 177.728 134.114 178.232C133.838 178.724 133.7 179.312 133.7 179.996C133.7 180.68 133.838 181.28 134.114 181.796C134.402 182.312 134.774 182.708 135.23 182.984C135.698 183.248 136.19 183.38 136.706 183.38C137.234 183.38 137.726 183.248 138.182 182.984C138.638 182.72 139.004 182.336 139.28 181.832C139.568 181.316 139.712 180.716 139.712 180.032Z" fill="#373B4D"/>
<rect x="562" y="166" width="36" height="20" rx="10" fill="#00A7C3"/>
<g filter="url(#filter2_d_1158_81501)">
<circle cx="588" cy="176" r="8" fill="white"/>
</g>
<path d="M607.004 181V170.819H613.626V172.365H608.849V175.129H613.283V176.675H608.849V179.454H613.666V181H607.004ZM617.228 176.526V181H615.429V173.364H617.149V174.662H617.238C617.414 174.234 617.694 173.894 618.078 173.643C618.466 173.391 618.945 173.265 619.515 173.265C620.042 173.265 620.501 173.377 620.892 173.603C621.287 173.828 621.592 174.155 621.807 174.582C622.026 175.01 622.134 175.528 622.13 176.138V181H620.331V176.417C620.331 175.906 620.198 175.507 619.933 175.219C619.671 174.93 619.308 174.786 618.844 174.786C618.529 174.786 618.249 174.856 618.004 174.995C617.762 175.131 617.571 175.328 617.432 175.586C617.296 175.845 617.228 176.158 617.228 176.526ZM626.157 181.155C625.673 181.155 625.238 181.068 624.85 180.896C624.465 180.72 624.16 180.462 623.935 180.121C623.713 179.779 623.602 179.358 623.602 178.858C623.602 178.427 623.681 178.071 623.841 177.789C624 177.507 624.217 177.282 624.492 177.113C624.767 176.944 625.077 176.816 625.422 176.73C625.77 176.64 626.129 176.576 626.5 176.536C626.948 176.49 627.311 176.448 627.589 176.412C627.868 176.372 628.07 176.312 628.196 176.233C628.325 176.15 628.39 176.022 628.39 175.85V175.82C628.39 175.446 628.279 175.156 628.056 174.95C627.834 174.745 627.515 174.642 627.097 174.642C626.656 174.642 626.306 174.738 626.048 174.93C625.793 175.122 625.62 175.349 625.531 175.611L623.85 175.373C623.983 174.909 624.202 174.521 624.507 174.209C624.812 173.894 625.185 173.659 625.625 173.503C626.066 173.344 626.553 173.265 627.087 173.265C627.455 173.265 627.821 173.308 628.186 173.394C628.55 173.48 628.883 173.623 629.185 173.822C629.487 174.017 629.729 174.284 629.911 174.622C630.096 174.96 630.189 175.383 630.189 175.89V181H628.459V179.951H628.4C628.29 180.164 628.136 180.362 627.937 180.548C627.742 180.73 627.495 180.878 627.196 180.991C626.901 181.1 626.555 181.155 626.157 181.155ZM626.625 179.832C626.986 179.832 627.299 179.761 627.564 179.618C627.829 179.473 628.033 179.28 628.176 179.042C628.322 178.803 628.395 178.543 628.395 178.261V177.361C628.338 177.408 628.242 177.451 628.106 177.491C627.974 177.53 627.824 177.565 627.659 177.595C627.493 177.625 627.329 177.651 627.167 177.674C627.004 177.698 626.863 177.718 626.744 177.734C626.475 177.771 626.235 177.83 626.023 177.913C625.811 177.996 625.644 178.112 625.521 178.261C625.398 178.407 625.337 178.596 625.337 178.828C625.337 179.159 625.458 179.41 625.7 179.579C625.942 179.748 626.25 179.832 626.625 179.832ZM632.078 181V170.819H633.878V174.627H633.953C634.046 174.441 634.176 174.244 634.346 174.035C634.515 173.823 634.743 173.643 635.032 173.493C635.32 173.341 635.688 173.265 636.135 173.265C636.725 173.265 637.257 173.415 637.731 173.717C638.208 174.015 638.586 174.458 638.865 175.045C639.146 175.628 639.287 176.344 639.287 177.192C639.287 178.031 639.15 178.743 638.875 179.33C638.6 179.917 638.225 180.364 637.751 180.672C637.277 180.981 636.74 181.135 636.14 181.135C635.703 181.135 635.34 181.062 635.051 180.916C634.763 180.77 634.531 180.594 634.355 180.389C634.183 180.18 634.049 179.983 633.953 179.797H633.848V181H632.078ZM633.843 177.182C633.843 177.676 633.913 178.109 634.052 178.48C634.195 178.851 634.399 179.141 634.664 179.35C634.932 179.555 635.257 179.658 635.638 179.658C636.036 179.658 636.369 179.552 636.637 179.34C636.906 179.125 637.108 178.831 637.244 178.46C637.383 178.085 637.453 177.66 637.453 177.182C637.453 176.708 637.385 176.287 637.249 175.92C637.113 175.552 636.911 175.263 636.642 175.054C636.374 174.846 636.039 174.741 635.638 174.741C635.254 174.741 634.927 174.842 634.659 175.045C634.39 175.247 634.186 175.53 634.047 175.895C633.911 176.259 633.843 176.688 633.843 177.182ZM642.617 170.819V181H640.817V170.819H642.617ZM647.848 181.15C647.083 181.15 646.422 180.991 645.865 180.672C645.311 180.351 644.885 179.897 644.587 179.31C644.289 178.72 644.14 178.026 644.14 177.227C644.14 176.442 644.289 175.752 644.587 175.159C644.889 174.562 645.31 174.098 645.85 173.767C646.39 173.432 647.025 173.265 647.754 173.265C648.225 173.265 648.669 173.341 649.086 173.493C649.507 173.643 649.878 173.875 650.2 174.189C650.525 174.504 650.78 174.905 650.966 175.393C651.151 175.876 651.244 176.453 651.244 177.123V177.674H644.985V176.461H649.519C649.516 176.117 649.441 175.81 649.295 175.542C649.149 175.27 648.945 175.056 648.684 174.9C648.425 174.745 648.123 174.667 647.779 174.667C647.411 174.667 647.088 174.756 646.809 174.935C646.531 175.111 646.314 175.343 646.158 175.631C646.006 175.916 645.928 176.229 645.924 176.571V177.63C645.924 178.074 646.006 178.455 646.168 178.773C646.33 179.088 646.557 179.33 646.849 179.499C647.141 179.665 647.482 179.748 647.873 179.748C648.135 179.748 648.372 179.711 648.584 179.638C648.796 179.562 648.98 179.451 649.136 179.305C649.292 179.159 649.409 178.979 649.489 178.763L651.169 178.952C651.063 179.396 650.861 179.784 650.563 180.116C650.268 180.444 649.89 180.699 649.429 180.881C648.969 181.06 648.442 181.15 647.848 181.15ZM655.6 181.135C655 181.135 654.463 180.981 653.99 180.672C653.516 180.364 653.141 179.917 652.866 179.33C652.591 178.743 652.453 178.031 652.453 177.192C652.453 176.344 652.593 175.628 652.871 175.045C653.153 174.458 653.532 174.015 654.009 173.717C654.487 173.415 655.019 173.265 655.605 173.265C656.053 173.265 656.421 173.341 656.709 173.493C656.997 173.643 657.226 173.823 657.395 174.035C657.564 174.244 657.695 174.441 657.788 174.627H657.862V170.819H659.667V181H657.897V179.797H657.788C657.695 179.983 657.561 180.18 657.385 180.389C657.209 180.594 656.977 180.77 656.689 180.916C656.401 181.062 656.038 181.135 655.6 181.135ZM656.102 179.658C656.484 179.658 656.808 179.555 657.077 179.35C657.345 179.141 657.549 178.851 657.688 178.48C657.828 178.109 657.897 177.676 657.897 177.182C657.897 176.688 657.828 176.259 657.688 175.895C657.552 175.53 657.35 175.247 657.082 175.045C656.817 174.842 656.49 174.741 656.102 174.741C655.701 174.741 655.367 174.846 655.098 175.054C654.83 175.263 654.628 175.552 654.492 175.92C654.356 176.287 654.288 176.708 654.288 177.182C654.288 177.66 654.356 178.085 654.492 178.46C654.631 178.831 654.835 179.125 655.103 179.34C655.375 179.552 655.708 179.658 656.102 179.658Z" fill="#4F5769"/>
<path d="M571.426 219H570.193C570.12 218.646 569.993 218.334 569.81 218.066C569.631 217.797 569.413 217.572 569.154 217.39C568.899 217.204 568.616 217.065 568.304 216.972C567.992 216.879 567.668 216.833 567.33 216.833C566.713 216.833 566.155 216.989 565.654 217.3C565.157 217.612 564.761 218.071 564.466 218.677C564.174 219.284 564.028 220.028 564.028 220.91C564.028 221.791 564.174 222.535 564.466 223.142C564.761 223.748 565.157 224.207 565.654 224.519C566.155 224.831 566.713 224.986 567.33 224.986C567.668 224.986 567.992 224.94 568.304 224.847C568.616 224.754 568.899 224.617 569.154 224.434C569.413 224.249 569.631 224.022 569.81 223.753C569.993 223.482 570.12 223.17 570.193 222.819H571.426C571.333 223.339 571.164 223.805 570.919 224.216C570.674 224.627 570.369 224.976 570.004 225.265C569.64 225.55 569.23 225.767 568.776 225.916C568.326 226.065 567.843 226.14 567.33 226.14C566.461 226.14 565.689 225.928 565.013 225.503C564.337 225.079 563.805 224.476 563.417 223.694C563.029 222.911 562.835 221.983 562.835 220.91C562.835 219.836 563.029 218.908 563.417 218.125C563.805 217.343 564.337 216.74 565.013 216.316C565.689 215.892 566.461 215.679 567.33 215.679C567.843 215.679 568.326 215.754 568.776 215.903C569.23 216.052 569.64 216.271 570.004 216.559C570.369 216.844 570.674 217.192 570.919 217.603C571.164 218.011 571.333 218.477 571.426 219ZM573.259 226V218.364H574.393V219.518H574.472C574.612 219.14 574.864 218.833 575.228 218.598C575.593 218.362 576.004 218.245 576.461 218.245C576.547 218.245 576.655 218.246 576.784 218.25C576.914 218.253 577.011 218.258 577.078 218.265V219.458C577.038 219.448 576.947 219.433 576.804 219.413C576.665 219.39 576.517 219.378 576.362 219.378C575.99 219.378 575.659 219.456 575.367 219.612C575.079 219.764 574.85 219.977 574.681 220.248C574.516 220.517 574.433 220.823 574.433 221.168V226H573.259ZM581.438 226.16C580.702 226.16 580.067 225.997 579.534 225.672C579.003 225.344 578.594 224.887 578.306 224.3C578.021 223.71 577.878 223.024 577.878 222.242C577.878 221.46 578.021 220.77 578.306 220.174C578.594 219.574 578.995 219.107 579.509 218.772C580.026 218.434 580.629 218.265 581.318 218.265C581.716 218.265 582.109 218.331 582.497 218.464C582.884 218.596 583.237 218.812 583.556 219.11C583.874 219.405 584.127 219.796 584.316 220.283C584.505 220.77 584.6 221.37 584.6 222.083V222.58H578.713V221.566H583.406C583.406 221.135 583.32 220.75 583.148 220.412C582.979 220.074 582.737 219.808 582.422 219.612C582.11 219.416 581.743 219.319 581.318 219.319C580.851 219.319 580.447 219.435 580.105 219.667C579.767 219.895 579.507 220.194 579.325 220.562C579.142 220.929 579.051 221.324 579.051 221.745V222.421C579.051 222.998 579.151 223.487 579.35 223.888C579.552 224.285 579.832 224.589 580.19 224.797C580.548 225.003 580.964 225.106 581.438 225.106C581.746 225.106 582.024 225.063 582.273 224.976C582.525 224.887 582.742 224.754 582.924 224.579C583.106 224.4 583.247 224.178 583.347 223.912L584.48 224.231C584.361 224.615 584.16 224.953 583.879 225.245C583.597 225.533 583.249 225.759 582.835 225.921C582.42 226.08 581.955 226.16 581.438 226.16ZM588.632 226.179C588.148 226.179 587.709 226.088 587.314 225.906C586.92 225.72 586.606 225.454 586.374 225.106C586.142 224.754 586.026 224.33 586.026 223.833C586.026 223.395 586.113 223.041 586.285 222.769C586.457 222.494 586.688 222.278 586.976 222.123C587.264 221.967 587.583 221.851 587.931 221.775C588.282 221.695 588.635 221.632 588.99 221.586C589.454 221.526 589.83 221.481 590.118 221.451C590.41 221.418 590.622 221.364 590.754 221.287C590.89 221.211 590.958 221.079 590.958 220.89V220.85C590.958 220.359 590.824 219.978 590.556 219.706C590.29 219.435 589.888 219.299 589.347 219.299C588.787 219.299 588.348 219.421 588.03 219.667C587.712 219.912 587.488 220.174 587.359 220.452L586.245 220.054C586.444 219.59 586.709 219.229 587.041 218.971C587.375 218.709 587.74 218.527 588.134 218.424C588.532 218.318 588.923 218.265 589.308 218.265C589.553 218.265 589.835 218.295 590.153 218.354C590.474 218.411 590.784 218.528 591.083 218.707C591.384 218.886 591.634 219.156 591.833 219.518C592.032 219.879 592.132 220.363 592.132 220.969V226H590.958V224.966H590.899C590.819 225.132 590.686 225.309 590.501 225.498C590.315 225.687 590.068 225.848 589.76 225.981C589.452 226.113 589.076 226.179 588.632 226.179ZM588.811 225.125C589.275 225.125 589.666 225.034 589.984 224.852C590.305 224.67 590.547 224.434 590.71 224.146C590.875 223.858 590.958 223.554 590.958 223.236V222.162C590.909 222.222 590.799 222.277 590.63 222.326C590.464 222.373 590.272 222.414 590.053 222.451C589.838 222.484 589.628 222.514 589.422 222.54C589.22 222.563 589.056 222.583 588.93 222.6C588.625 222.64 588.34 222.704 588.075 222.794C587.813 222.88 587.601 223.011 587.438 223.187C587.279 223.359 587.2 223.594 587.2 223.893C587.2 224.3 587.351 224.608 587.652 224.817C587.957 225.023 588.343 225.125 588.811 225.125ZM597.594 218.364V219.358H593.637V218.364H597.594ZM594.79 216.535H595.963V223.813C595.963 224.144 596.011 224.393 596.108 224.559C596.207 224.721 596.333 224.831 596.485 224.887C596.641 224.94 596.805 224.966 596.978 224.966C597.107 224.966 597.213 224.96 597.296 224.947C597.379 224.93 597.445 224.917 597.495 224.907L597.733 225.961C597.654 225.991 597.543 226.02 597.4 226.05C597.258 226.083 597.077 226.1 596.858 226.1C596.527 226.1 596.202 226.029 595.884 225.886C595.569 225.744 595.307 225.527 595.098 225.235C594.893 224.943 594.79 224.575 594.79 224.131V216.535ZM602.479 226.16C601.743 226.16 601.108 225.997 600.575 225.672C600.044 225.344 599.635 224.887 599.347 224.3C599.062 223.71 598.919 223.024 598.919 222.242C598.919 221.46 599.062 220.77 599.347 220.174C599.635 219.574 600.036 219.107 600.55 218.772C601.067 218.434 601.67 218.265 602.359 218.265C602.757 218.265 603.15 218.331 603.538 218.464C603.925 218.596 604.278 218.812 604.597 219.11C604.915 219.405 605.168 219.796 605.357 220.283C605.546 220.77 605.641 221.37 605.641 222.083V222.58H599.754V221.566H604.447C604.447 221.135 604.361 220.75 604.189 220.412C604.02 220.074 603.778 219.808 603.463 219.612C603.152 219.416 602.784 219.319 602.359 219.319C601.892 219.319 601.488 219.435 601.146 219.667C600.808 219.895 600.548 220.194 600.366 220.562C600.183 220.929 600.092 221.324 600.092 221.745V222.421C600.092 222.998 600.192 223.487 600.391 223.888C600.593 224.285 600.873 224.589 601.231 224.797C601.589 225.003 602.005 225.106 602.479 225.106C602.787 225.106 603.065 225.063 603.314 224.976C603.566 224.887 603.783 224.754 603.965 224.579C604.147 224.4 604.288 224.178 604.388 223.912L605.521 224.231C605.402 224.615 605.201 224.953 604.92 225.245C604.638 225.533 604.29 225.759 603.876 225.921C603.461 226.08 602.996 226.16 602.479 226.16ZM610.309 226.16C609.673 226.16 609.111 225.999 608.624 225.677C608.136 225.353 607.755 224.895 607.48 224.305C607.205 223.712 607.067 223.011 607.067 222.202C607.067 221.4 607.205 220.704 607.48 220.114C607.755 219.524 608.138 219.068 608.629 218.747C609.119 218.425 609.686 218.265 610.329 218.265C610.826 218.265 611.219 218.348 611.507 218.513C611.799 218.676 612.021 218.861 612.173 219.07C612.329 219.276 612.45 219.445 612.536 219.577H612.636V215.819H613.809V226H612.675V224.827H612.536C612.45 224.966 612.327 225.142 612.168 225.354C612.009 225.563 611.782 225.75 611.487 225.916C611.192 226.078 610.799 226.16 610.309 226.16ZM610.468 225.106C610.939 225.106 611.336 224.983 611.661 224.738C611.986 224.489 612.233 224.146 612.402 223.709C612.571 223.268 612.656 222.759 612.656 222.182C612.656 221.612 612.573 221.113 612.407 220.686C612.241 220.255 611.996 219.92 611.671 219.682C611.346 219.44 610.945 219.319 610.468 219.319C609.971 219.319 609.557 219.446 609.225 219.701C608.897 219.953 608.65 220.296 608.484 220.731C608.322 221.161 608.241 221.645 608.241 222.182C608.241 222.726 608.324 223.22 608.489 223.664C608.658 224.105 608.907 224.456 609.235 224.718C609.567 224.976 609.978 225.106 610.468 225.106ZM616.976 226.08C616.731 226.08 616.52 225.992 616.344 225.817C616.169 225.641 616.081 225.43 616.081 225.185C616.081 224.94 616.169 224.729 616.344 224.554C616.52 224.378 616.731 224.29 616.976 224.29C617.221 224.29 617.432 224.378 617.607 224.554C617.783 224.729 617.871 224.94 617.871 225.185C617.871 225.348 617.829 225.497 617.746 225.633C617.667 225.768 617.559 225.878 617.423 225.961C617.291 226.04 617.142 226.08 616.976 226.08ZM616.976 220.412C616.731 220.412 616.52 220.325 616.344 220.149C616.169 219.973 616.081 219.763 616.081 219.518C616.081 219.272 616.169 219.062 616.344 218.886C616.52 218.71 616.731 218.623 616.976 218.623C617.221 218.623 617.432 218.71 617.607 218.886C617.783 219.062 617.871 219.272 617.871 219.518C617.871 219.68 617.829 219.829 617.746 219.965C617.667 220.101 617.559 220.21 617.423 220.293C617.291 220.373 617.142 220.412 616.976 220.412ZM627.135 215.679C627.553 215.683 627.971 215.762 628.388 215.918C628.806 216.074 629.187 216.332 629.532 216.694C629.876 217.052 630.153 217.54 630.362 218.16C630.571 218.78 630.675 219.557 630.675 220.492C630.675 221.397 630.589 222.201 630.417 222.903C630.248 223.603 630.002 224.192 629.681 224.673C629.363 225.154 628.975 225.518 628.517 225.767C628.063 226.015 627.55 226.14 626.976 226.14C626.406 226.14 625.897 226.027 625.45 225.802C625.006 225.573 624.641 225.256 624.356 224.852C624.074 224.444 623.894 223.972 623.814 223.435H625.027C625.137 223.902 625.354 224.289 625.679 224.594C626.007 224.895 626.439 225.046 626.976 225.046C627.762 225.046 628.382 224.703 628.836 224.017C629.293 223.331 629.522 222.361 629.522 221.108H629.442C629.257 221.387 629.036 221.627 628.781 221.829C628.526 222.032 628.242 222.187 627.931 222.297C627.619 222.406 627.288 222.461 626.936 222.461C626.353 222.461 625.818 222.317 625.331 222.028C624.847 221.737 624.459 221.337 624.167 220.83C623.879 220.32 623.735 219.736 623.735 219.08C623.735 218.457 623.874 217.887 624.152 217.37C624.434 216.849 624.828 216.435 625.336 216.127C625.846 215.819 626.446 215.67 627.135 215.679ZM627.135 216.773C626.718 216.773 626.342 216.878 626.007 217.086C625.675 217.292 625.412 217.57 625.216 217.922C625.024 218.27 624.928 218.656 624.928 219.08C624.928 219.504 625.021 219.89 625.206 220.238C625.395 220.583 625.652 220.858 625.977 221.064C626.305 221.266 626.678 221.367 627.096 221.367C627.41 221.367 627.704 221.306 627.975 221.183C628.247 221.057 628.484 220.886 628.686 220.671C628.892 220.452 629.053 220.205 629.169 219.93C629.285 219.652 629.343 219.362 629.343 219.06C629.343 218.662 629.247 218.29 629.054 217.942C628.865 217.594 628.604 217.312 628.269 217.096C627.937 216.881 627.56 216.773 627.135 216.773ZM637.164 226H635.872L639.61 215.819H640.883L644.622 226H643.329L640.286 217.429H640.207L637.164 226ZM637.642 222.023H642.852V223.117H637.642V222.023ZM646.048 228.864V218.364H647.182V219.577H647.321C647.407 219.445 647.527 219.276 647.679 219.07C647.835 218.861 648.057 218.676 648.345 218.513C648.637 218.348 649.031 218.265 649.529 218.265C650.172 218.265 650.738 218.425 651.229 218.747C651.719 219.068 652.102 219.524 652.377 220.114C652.652 220.704 652.79 221.4 652.79 222.202C652.79 223.011 652.652 223.712 652.377 224.305C652.102 224.895 651.721 225.353 651.234 225.677C650.747 225.999 650.185 226.16 649.548 226.16C649.058 226.16 648.665 226.078 648.37 225.916C648.075 225.75 647.848 225.563 647.689 225.354C647.53 225.142 647.407 224.966 647.321 224.827H647.222V228.864H646.048ZM647.202 222.182C647.202 222.759 647.286 223.268 647.455 223.709C647.624 224.146 647.871 224.489 648.196 224.738C648.521 224.983 648.919 225.106 649.389 225.106C649.88 225.106 650.289 224.976 650.617 224.718C650.949 224.456 651.197 224.105 651.363 223.664C651.532 223.22 651.617 222.726 651.617 222.182C651.617 221.645 651.534 221.161 651.368 220.731C651.206 220.296 650.959 219.953 650.627 219.701C650.299 219.446 649.887 219.319 649.389 219.319C648.912 219.319 648.511 219.44 648.186 219.682C647.861 219.92 647.616 220.255 647.45 220.686C647.285 221.113 647.202 221.612 647.202 222.182ZM654.58 226V218.364H655.713V219.518H655.793C655.932 219.14 656.184 218.833 656.548 218.598C656.913 218.362 657.324 218.245 657.781 218.245C657.868 218.245 657.975 218.246 658.105 218.25C658.234 218.253 658.332 218.258 658.398 218.265V219.458C658.358 219.448 658.267 219.433 658.124 219.413C657.985 219.39 657.838 219.378 657.682 219.378C657.311 219.378 656.979 219.456 656.688 219.612C656.399 219.764 656.171 219.977 656.002 220.248C655.836 220.517 655.753 220.823 655.753 221.168V226H654.58ZM659.789 226V218.364H660.962V226H659.789ZM660.385 217.091C660.157 217.091 659.959 217.014 659.794 216.858C659.631 216.702 659.55 216.515 659.55 216.296C659.55 216.077 659.631 215.89 659.794 215.734C659.959 215.578 660.157 215.5 660.385 215.5C660.614 215.5 660.81 215.578 660.972 215.734C661.138 215.89 661.221 216.077 661.221 216.296C661.221 216.515 661.138 216.702 660.972 216.858C660.81 217.014 660.614 217.091 660.385 217.091ZM664.284 215.819V226H663.111V215.819H664.284ZM670.351 226V225.106L673.712 221.427C674.106 220.996 674.431 220.621 674.686 220.303C674.941 219.982 675.13 219.68 675.253 219.398C675.379 219.113 675.442 218.815 675.442 218.503C675.442 218.145 675.356 217.835 675.183 217.574C675.014 217.312 674.782 217.11 674.487 216.967C674.192 216.825 673.861 216.753 673.493 216.753C673.102 216.753 672.76 216.835 672.469 216.997C672.18 217.156 671.957 217.38 671.798 217.668C671.642 217.956 671.564 218.295 671.564 218.682H670.391C670.391 218.086 670.528 217.562 670.803 217.111C671.078 216.661 671.453 216.309 671.927 216.057C672.404 215.805 672.939 215.679 673.533 215.679C674.129 215.679 674.658 215.805 675.119 216.057C675.579 216.309 675.941 216.649 676.202 217.076C676.464 217.504 676.595 217.98 676.595 218.503C676.595 218.878 676.527 219.244 676.391 219.602C676.259 219.957 676.027 220.353 675.695 220.79C675.367 221.224 674.911 221.755 674.328 222.381L672.041 224.827V224.907H676.774V226H670.351ZM682.148 226.14C681.399 226.14 680.761 225.936 680.234 225.528C679.707 225.117 679.305 224.522 679.026 223.743C678.748 222.961 678.609 222.017 678.609 220.91C678.609 219.809 678.748 218.87 679.026 218.091C679.308 217.308 679.712 216.712 680.239 216.301C680.77 215.887 681.406 215.679 682.148 215.679C682.891 215.679 683.526 215.887 684.053 216.301C684.583 216.712 684.987 217.308 685.266 218.091C685.547 218.87 685.688 219.809 685.688 220.91C685.688 222.017 685.549 222.961 685.271 223.743C684.992 224.522 684.589 225.117 684.062 225.528C683.536 225.936 682.897 226.14 682.148 226.14ZM682.148 225.046C682.891 225.046 683.468 224.688 683.879 223.972C684.29 223.256 684.495 222.235 684.495 220.91C684.495 220.028 684.401 219.277 684.212 218.657C684.026 218.038 683.758 217.565 683.406 217.241C683.058 216.916 682.639 216.753 682.148 216.753C681.413 216.753 680.838 217.116 680.423 217.842C680.009 218.565 679.802 219.587 679.802 220.91C679.802 221.791 679.895 222.54 680.08 223.157C680.266 223.773 680.533 224.242 680.881 224.564C681.232 224.885 681.655 225.046 682.148 225.046ZM687.577 226V225.106L690.938 221.427C691.333 220.996 691.657 220.621 691.913 220.303C692.168 219.982 692.357 219.68 692.479 219.398C692.605 219.113 692.668 218.815 692.668 218.503C692.668 218.145 692.582 217.835 692.41 217.574C692.241 217.312 692.009 217.11 691.714 216.967C691.419 216.825 691.087 216.753 690.719 216.753C690.328 216.753 689.987 216.835 689.695 216.997C689.407 217.156 689.183 217.38 689.024 217.668C688.868 217.956 688.79 218.295 688.79 218.682H687.617C687.617 218.086 687.755 217.562 688.03 217.111C688.305 216.661 688.679 216.309 689.153 216.057C689.631 215.805 690.166 215.679 690.759 215.679C691.356 215.679 691.884 215.805 692.345 216.057C692.806 216.309 693.167 216.649 693.429 217.076C693.691 217.504 693.822 217.98 693.822 218.503C693.822 218.878 693.754 219.244 693.618 219.602C693.485 219.957 693.253 220.353 692.922 220.79C692.594 221.224 692.138 221.755 691.555 222.381L689.268 224.827V224.907H694.001V226H687.577ZM696.054 226V225.106L699.415 221.427C699.809 220.996 700.134 220.621 700.389 220.303C700.644 219.982 700.833 219.68 700.956 219.398C701.082 219.113 701.145 218.815 701.145 218.503C701.145 218.145 701.059 217.835 700.886 217.574C700.717 217.312 700.485 217.11 700.19 216.967C699.895 216.825 699.564 216.753 699.196 216.753C698.805 216.753 698.464 216.835 698.172 216.997C697.884 217.156 697.66 217.38 697.501 217.668C697.345 217.956 697.267 218.295 697.267 218.682H696.094C696.094 218.086 696.231 217.562 696.506 217.111C696.781 216.661 697.156 216.309 697.63 216.057C698.107 215.805 698.643 215.679 699.236 215.679C699.832 215.679 700.361 215.805 700.822 216.057C701.282 216.309 701.644 216.649 701.906 217.076C702.167 217.504 702.298 217.98 702.298 218.503C702.298 218.878 702.23 219.244 702.094 219.602C701.962 219.957 701.73 220.353 701.398 220.79C701.07 221.224 700.615 221.755 700.031 222.381L697.744 224.827V224.907H702.477V226H696.054ZM712.048 215.819V226H710.815V217.111H710.755L708.269 218.762V217.509L710.815 215.819H712.048ZM714.976 226V225.106L718.337 221.427C718.731 220.996 719.056 220.621 719.311 220.303C719.566 219.982 719.755 219.68 719.878 219.398C720.004 219.113 720.067 218.815 720.067 218.503C720.067 218.145 719.981 217.835 719.808 217.574C719.639 217.312 719.407 217.11 719.112 216.967C718.817 216.825 718.486 216.753 718.118 216.753C717.727 216.753 717.385 216.835 717.094 216.997C716.805 217.156 716.582 217.38 716.423 217.668C716.267 217.956 716.189 218.295 716.189 218.682H715.016C715.016 218.086 715.153 217.562 715.428 217.111C715.703 216.661 716.078 216.309 716.552 216.057C717.029 215.805 717.564 215.679 718.158 215.679C718.754 215.679 719.283 215.805 719.744 216.057C720.204 216.309 720.566 216.649 720.827 217.076C721.089 217.504 721.22 217.98 721.22 218.503C721.22 218.878 721.152 219.244 721.016 219.602C720.884 219.957 720.652 220.353 720.32 220.79C719.992 221.224 719.536 221.755 718.953 222.381L716.666 224.827V224.907H721.399V226H714.976ZM724.327 224.698C724.082 224.698 723.872 224.61 723.696 224.434C723.52 224.259 723.433 224.048 723.433 223.803C723.433 223.558 723.52 223.347 723.696 223.172C723.872 222.996 724.082 222.908 724.327 222.908C724.573 222.908 724.783 222.996 724.959 223.172C725.134 223.347 725.222 223.558 725.222 223.803C725.222 223.965 725.181 224.115 725.098 224.25C725.018 224.386 724.911 224.496 724.775 224.579C724.642 224.658 724.493 224.698 724.327 224.698ZM724.327 219.547C724.082 219.547 723.872 219.46 723.696 219.284C723.52 219.108 723.433 218.898 723.433 218.652C723.433 218.407 723.52 218.197 723.696 218.021C723.872 217.845 724.082 217.758 724.327 217.758C724.573 217.758 724.783 217.845 724.959 218.021C725.134 218.197 725.222 218.407 725.222 218.652C725.222 218.815 725.181 218.964 725.098 219.1C725.018 219.236 724.911 219.345 724.775 219.428C724.642 219.508 724.493 219.547 724.327 219.547ZM730.748 226.14C730.092 226.14 729.507 226.027 728.993 225.802C728.483 225.576 728.077 225.263 727.775 224.862C727.477 224.458 727.315 223.989 727.288 223.455H728.541C728.567 223.783 728.68 224.067 728.879 224.305C729.078 224.54 729.338 224.723 729.659 224.852C729.981 224.981 730.337 225.046 730.728 225.046C731.166 225.046 731.554 224.97 731.892 224.817C732.23 224.665 732.495 224.453 732.687 224.181C732.879 223.909 732.975 223.594 732.975 223.236C732.975 222.862 732.883 222.532 732.697 222.247C732.511 221.959 732.24 221.733 731.882 221.571C731.524 221.408 731.086 221.327 730.569 221.327H729.754V220.233H730.569C730.974 220.233 731.328 220.161 731.633 220.015C731.941 219.869 732.182 219.663 732.354 219.398C732.53 219.133 732.618 218.822 732.618 218.464C732.618 218.119 732.541 217.819 732.389 217.564C732.236 217.308 732.021 217.11 731.743 216.967C731.467 216.825 731.143 216.753 730.768 216.753C730.417 216.753 730.085 216.818 729.774 216.947C729.466 217.073 729.214 217.257 729.018 217.499C728.823 217.738 728.717 218.026 728.7 218.364H727.507C727.527 217.831 727.687 217.363 727.989 216.962C728.291 216.558 728.685 216.243 729.172 216.018C729.663 215.792 730.201 215.679 730.788 215.679C731.418 215.679 731.958 215.807 732.409 216.062C732.859 216.314 733.206 216.647 733.448 217.062C733.69 217.476 733.811 217.923 733.811 218.404C733.811 218.977 733.66 219.466 733.358 219.871C733.06 220.275 732.654 220.555 732.14 220.711V220.79C732.783 220.896 733.285 221.17 733.647 221.611C734.008 222.048 734.189 222.59 734.189 223.236C734.189 223.79 734.038 224.287 733.736 224.728C733.438 225.165 733.03 225.51 732.513 225.762C731.996 226.014 731.408 226.14 730.748 226.14ZM735.983 223.912V222.898L740.458 215.819H741.194V217.39H740.696L737.316 222.739V222.819H743.341V223.912H735.983ZM740.776 226V223.604V223.132V215.819H741.949V226H740.776ZM749.738 226H748.446L752.184 215.819H753.457L757.196 226H755.903L752.861 217.429H752.781L749.738 226ZM750.216 222.023H755.426V223.117H750.216V222.023ZM758.782 215.819H760.253L763.714 224.27H763.833L767.293 215.819H768.765V226H767.611V218.265H767.512L764.33 226H763.216L760.035 218.265H759.935V226H758.782V215.819Z" fill="#616B7C"/>
<path d="M563.233 251V240.819H564.466V249.907H569.199V251H563.233ZM573.196 251.179C572.712 251.179 572.273 251.088 571.879 250.906C571.484 250.72 571.171 250.454 570.939 250.106C570.707 249.754 570.591 249.33 570.591 248.833C570.591 248.395 570.677 248.041 570.849 247.769C571.022 247.494 571.252 247.278 571.54 247.123C571.829 246.967 572.147 246.851 572.495 246.775C572.846 246.695 573.199 246.632 573.554 246.586C574.018 246.526 574.394 246.481 574.683 246.451C574.974 246.418 575.186 246.364 575.319 246.287C575.455 246.211 575.523 246.079 575.523 245.89V245.85C575.523 245.359 575.388 244.978 575.12 244.706C574.855 244.435 574.452 244.299 573.912 244.299C573.352 244.299 572.913 244.421 572.594 244.667C572.276 244.912 572.053 245.174 571.923 245.452L570.81 245.054C571.009 244.59 571.274 244.229 571.605 243.971C571.94 243.709 572.304 243.527 572.699 243.424C573.097 243.318 573.488 243.265 573.872 243.265C574.117 243.265 574.399 243.295 574.717 243.354C575.039 243.411 575.349 243.528 575.647 243.707C575.949 243.886 576.199 244.156 576.398 244.518C576.597 244.879 576.696 245.363 576.696 245.969V251H575.523V249.966H575.463C575.384 250.132 575.251 250.309 575.065 250.498C574.88 250.687 574.633 250.848 574.325 250.981C574.016 251.113 573.64 251.179 573.196 251.179ZM573.375 250.125C573.839 250.125 574.23 250.034 574.548 249.852C574.87 249.67 575.112 249.434 575.274 249.146C575.44 248.858 575.523 248.554 575.523 248.236V247.162C575.473 247.222 575.364 247.277 575.195 247.326C575.029 247.373 574.837 247.414 574.618 247.451C574.402 247.484 574.192 247.514 573.987 247.54C573.784 247.563 573.62 247.583 573.494 247.6C573.189 247.64 572.904 247.704 572.639 247.794C572.377 247.88 572.165 248.011 572.003 248.187C571.844 248.359 571.764 248.594 571.764 248.893C571.764 249.3 571.915 249.608 572.217 249.817C572.522 250.023 572.908 250.125 573.375 250.125ZM584.247 245.074L583.193 245.373C583.126 245.197 583.029 245.026 582.899 244.861C582.773 244.692 582.601 244.552 582.382 244.443C582.164 244.334 581.883 244.279 581.542 244.279C581.075 244.279 580.685 244.387 580.374 244.602C580.066 244.814 579.911 245.084 579.911 245.412C579.911 245.704 580.017 245.934 580.23 246.103C580.442 246.273 580.773 246.413 581.224 246.526L582.357 246.804C583.04 246.97 583.549 247.224 583.884 247.565C584.218 247.903 584.386 248.339 584.386 248.873C584.386 249.31 584.26 249.701 584.008 250.046C583.759 250.391 583.411 250.662 582.964 250.861C582.517 251.06 581.996 251.16 581.403 251.16C580.624 251.16 579.979 250.991 579.469 250.652C578.959 250.314 578.635 249.821 578.499 249.171L579.613 248.893C579.719 249.304 579.92 249.612 580.215 249.817C580.513 250.023 580.902 250.125 581.383 250.125C581.93 250.125 582.364 250.009 582.686 249.777C583.01 249.542 583.173 249.26 583.173 248.932C583.173 248.667 583.08 248.445 582.894 248.266C582.709 248.084 582.424 247.948 582.039 247.858L580.767 247.56C580.067 247.394 579.553 247.138 579.225 246.79C578.901 246.438 578.738 245.999 578.738 245.472C578.738 245.041 578.859 244.66 579.101 244.329C579.346 243.997 579.679 243.737 580.1 243.548C580.525 243.359 581.005 243.265 581.542 243.265C582.298 243.265 582.891 243.43 583.322 243.762C583.756 244.093 584.064 244.531 584.247 245.074ZM589.473 243.364V244.358H585.516V243.364H589.473ZM586.669 241.535H587.842V248.813C587.842 249.144 587.89 249.393 587.987 249.559C588.086 249.721 588.212 249.831 588.364 249.887C588.52 249.94 588.684 249.966 588.857 249.966C588.986 249.966 589.092 249.96 589.175 249.947C589.258 249.93 589.324 249.917 589.374 249.907L589.612 250.961C589.533 250.991 589.422 251.02 589.279 251.05C589.137 251.083 588.956 251.1 588.737 251.1C588.406 251.1 588.081 251.029 587.763 250.886C587.448 250.744 587.186 250.527 586.977 250.235C586.772 249.943 586.669 249.575 586.669 249.131V241.535ZM602.016 240.819H603.249V247.56C603.249 248.256 603.085 248.878 602.757 249.424C602.432 249.968 601.973 250.397 601.38 250.712C600.787 251.024 600.091 251.179 599.292 251.179C598.493 251.179 597.797 251.024 597.204 250.712C596.611 250.397 596.15 249.968 595.822 249.424C595.497 248.878 595.335 248.256 595.335 247.56V240.819H596.567V247.461C596.567 247.958 596.677 248.4 596.896 248.788C597.114 249.173 597.426 249.476 597.83 249.698C598.238 249.917 598.725 250.026 599.292 250.026C599.859 250.026 600.346 249.917 600.754 249.698C601.161 249.476 601.473 249.173 601.688 248.788C601.907 248.4 602.016 247.958 602.016 247.461V240.819ZM605.552 253.864V243.364H606.686V244.577H606.825C606.911 244.445 607.031 244.276 607.183 244.07C607.339 243.861 607.561 243.676 607.849 243.513C608.141 243.348 608.535 243.265 609.032 243.265C609.675 243.265 610.242 243.425 610.733 243.747C611.223 244.068 611.606 244.524 611.881 245.114C612.156 245.704 612.294 246.4 612.294 247.202C612.294 248.011 612.156 248.712 611.881 249.305C611.606 249.895 611.225 250.353 610.738 250.677C610.251 250.999 609.689 251.16 609.052 251.16C608.562 251.16 608.169 251.078 607.874 250.916C607.579 250.75 607.352 250.563 607.193 250.354C607.034 250.142 606.911 249.966 606.825 249.827H606.726V253.864H605.552ZM606.706 247.182C606.706 247.759 606.79 248.268 606.959 248.709C607.128 249.146 607.375 249.489 607.7 249.738C608.025 249.983 608.423 250.106 608.893 250.106C609.384 250.106 609.793 249.976 610.121 249.718C610.453 249.456 610.701 249.105 610.867 248.664C611.036 248.22 611.121 247.726 611.121 247.182C611.121 246.645 611.038 246.161 610.872 245.731C610.71 245.296 610.463 244.953 610.131 244.701C609.803 244.446 609.39 244.319 608.893 244.319C608.416 244.319 608.015 244.44 607.69 244.682C607.365 244.92 607.12 245.255 606.954 245.686C606.789 246.113 606.706 246.612 606.706 247.182ZM616.967 251.16C616.331 251.16 615.769 250.999 615.282 250.677C614.795 250.353 614.413 249.895 614.138 249.305C613.863 248.712 613.726 248.011 613.726 247.202C613.726 246.4 613.863 245.704 614.138 245.114C614.413 244.524 614.796 244.068 615.287 243.747C615.777 243.425 616.344 243.265 616.987 243.265C617.484 243.265 617.877 243.348 618.165 243.513C618.457 243.676 618.679 243.861 618.831 244.07C618.987 244.276 619.108 244.445 619.194 244.577H619.294V240.819H620.467V251H619.334V249.827H619.194C619.108 249.966 618.986 250.142 618.827 250.354C618.667 250.563 618.44 250.75 618.145 250.916C617.85 251.078 617.458 251.16 616.967 251.16ZM617.126 250.106C617.597 250.106 617.995 249.983 618.319 249.738C618.644 249.489 618.891 249.146 619.06 248.709C619.229 248.268 619.314 247.759 619.314 247.182C619.314 246.612 619.231 246.113 619.065 245.686C618.899 245.255 618.654 244.92 618.329 244.682C618.005 244.44 617.604 244.319 617.126 244.319C616.629 244.319 616.215 244.446 615.883 244.701C615.555 244.953 615.308 245.296 615.143 245.731C614.98 246.161 614.899 246.645 614.899 247.182C614.899 247.726 614.982 248.22 615.148 248.664C615.317 249.105 615.565 249.456 615.893 249.718C616.225 249.976 616.636 250.106 617.126 250.106ZM625.026 251.179C624.542 251.179 624.103 251.088 623.709 250.906C623.314 250.72 623.001 250.454 622.769 250.106C622.537 249.754 622.421 249.33 622.421 248.833C622.421 248.395 622.507 248.041 622.68 247.769C622.852 247.494 623.082 247.278 623.371 247.123C623.659 246.967 623.977 246.851 624.325 246.775C624.676 246.695 625.029 246.632 625.384 246.586C625.848 246.526 626.224 246.481 626.513 246.451C626.804 246.418 627.016 246.364 627.149 246.287C627.285 246.211 627.353 246.079 627.353 245.89V245.85C627.353 245.359 627.219 244.978 626.95 244.706C626.685 244.435 626.282 244.299 625.742 244.299C625.182 244.299 624.743 244.421 624.425 244.667C624.106 244.912 623.883 245.174 623.753 245.452L622.64 245.054C622.839 244.59 623.104 244.229 623.435 243.971C623.77 243.709 624.135 243.527 624.529 243.424C624.927 243.318 625.318 243.265 625.702 243.265C625.948 243.265 626.229 243.295 626.547 243.354C626.869 243.411 627.179 243.528 627.477 243.707C627.779 243.886 628.029 244.156 628.228 244.518C628.427 244.879 628.526 245.363 628.526 245.969V251H627.353V249.966H627.293C627.214 250.132 627.081 250.309 626.895 250.498C626.71 250.687 626.463 250.848 626.155 250.981C625.846 251.113 625.47 251.179 625.026 251.179ZM625.205 250.125C625.669 250.125 626.06 250.034 626.378 249.852C626.7 249.67 626.942 249.434 627.104 249.146C627.27 248.858 627.353 248.554 627.353 248.236V247.162C627.303 247.222 627.194 247.277 627.025 247.326C626.859 247.373 626.667 247.414 626.448 247.451C626.233 247.484 626.022 247.514 625.817 247.54C625.614 247.563 625.45 247.583 625.324 247.6C625.019 247.64 624.734 247.704 624.469 247.794C624.207 247.88 623.995 248.011 623.833 248.187C623.674 248.359 623.594 248.594 623.594 248.893C623.594 249.3 623.745 249.608 624.047 249.817C624.352 250.023 624.738 250.125 625.205 250.125ZM633.989 243.364V244.358H630.031V243.364H633.989ZM631.185 241.535H632.358V248.813C632.358 249.144 632.406 249.393 632.502 249.559C632.602 249.721 632.728 249.831 632.88 249.887C633.036 249.94 633.2 249.966 633.372 249.966C633.501 249.966 633.607 249.96 633.69 249.947C633.773 249.93 633.839 249.917 633.889 249.907L634.128 250.961C634.048 250.991 633.937 251.02 633.795 251.05C633.652 251.083 633.472 251.1 633.253 251.1C632.921 251.1 632.597 251.029 632.278 250.886C631.964 250.744 631.702 250.527 631.493 250.235C631.287 249.943 631.185 249.575 631.185 249.131V241.535ZM638.873 251.16C638.137 251.16 637.503 250.997 636.969 250.672C636.439 250.344 636.029 249.887 635.741 249.3C635.456 248.71 635.314 248.024 635.314 247.242C635.314 246.46 635.456 245.77 635.741 245.174C636.029 244.574 636.431 244.107 636.944 243.772C637.461 243.434 638.065 243.265 638.754 243.265C639.152 243.265 639.544 243.331 639.932 243.464C640.32 243.596 640.673 243.812 640.991 244.11C641.309 244.405 641.563 244.796 641.752 245.283C641.941 245.77 642.035 246.37 642.035 247.083V247.58H636.149V246.566H640.842C640.842 246.135 640.756 245.75 640.583 245.412C640.414 245.074 640.172 244.808 639.858 244.612C639.546 244.416 639.178 244.319 638.754 244.319C638.287 244.319 637.882 244.435 637.541 244.667C637.203 244.895 636.943 245.194 636.76 245.562C636.578 245.929 636.487 246.324 636.487 246.745V247.421C636.487 247.998 636.586 248.487 636.785 248.888C636.987 249.285 637.267 249.589 637.625 249.797C637.983 250.003 638.399 250.106 638.873 250.106C639.181 250.106 639.46 250.063 639.708 249.976C639.96 249.887 640.177 249.754 640.36 249.579C640.542 249.4 640.683 249.178 640.782 248.912L641.916 249.231C641.797 249.615 641.596 249.953 641.314 250.245C641.033 250.533 640.685 250.759 640.27 250.921C639.856 251.08 639.39 251.16 638.873 251.16ZM646.703 251.16C646.067 251.16 645.505 250.999 645.018 250.677C644.531 250.353 644.15 249.895 643.875 249.305C643.6 248.712 643.462 248.011 643.462 247.202C643.462 246.4 643.6 245.704 643.875 245.114C644.15 244.524 644.533 244.068 645.023 243.747C645.514 243.425 646.08 243.265 646.723 243.265C647.221 243.265 647.613 243.348 647.902 243.513C648.193 243.676 648.415 243.861 648.568 244.07C648.724 244.276 648.845 244.445 648.931 244.577H649.03V240.819H650.203V251H649.07V249.827H648.931C648.845 249.966 648.722 250.142 648.563 250.354C648.404 250.563 648.177 250.75 647.882 250.916C647.587 251.078 647.194 251.16 646.703 251.16ZM646.863 250.106C647.333 250.106 647.731 249.983 648.056 249.738C648.381 249.489 648.627 249.146 648.797 248.709C648.966 248.268 649.05 247.759 649.05 247.182C649.05 246.612 648.967 246.113 648.801 245.686C648.636 245.255 648.391 244.92 648.066 244.682C647.741 244.44 647.34 244.319 646.863 244.319C646.365 244.319 645.951 244.446 645.62 244.701C645.292 244.953 645.045 245.296 644.879 245.731C644.717 246.161 644.635 246.645 644.635 247.182C644.635 247.726 644.718 248.22 644.884 248.664C645.053 249.105 645.301 249.456 645.63 249.718C645.961 249.976 646.372 250.106 646.863 250.106ZM653.37 251.08C653.125 251.08 652.915 250.992 652.739 250.817C652.563 250.641 652.475 250.43 652.475 250.185C652.475 249.94 652.563 249.729 652.739 249.554C652.915 249.378 653.125 249.29 653.37 249.29C653.616 249.29 653.826 249.378 654.002 249.554C654.177 249.729 654.265 249.94 654.265 250.185C654.265 250.348 654.224 250.497 654.141 250.633C654.061 250.768 653.954 250.878 653.818 250.961C653.685 251.04 653.536 251.08 653.37 251.08ZM653.37 245.412C653.125 245.412 652.915 245.325 652.739 245.149C652.563 244.973 652.475 244.763 652.475 244.518C652.475 244.272 652.563 244.062 652.739 243.886C652.915 243.71 653.125 243.623 653.37 243.623C653.616 243.623 653.826 243.71 654.002 243.886C654.177 244.062 654.265 244.272 654.265 244.518C654.265 244.68 654.224 244.829 654.141 244.965C654.061 245.101 653.954 245.21 653.818 245.293C653.685 245.373 653.536 245.412 653.37 245.412ZM663.868 240.819V251H662.635V242.111H662.575L660.089 243.762V242.509L662.635 240.819H663.868ZM670.376 240.819V251H669.143V242.111H669.083L666.597 243.762V242.509L669.143 240.819H670.376ZM677.42 240.819H678.892L682.352 249.27H682.472L685.932 240.819H687.403V251H686.25V243.265H686.151L682.969 251H681.855L678.673 243.265H678.574V251H677.42V240.819ZM691.964 251.179C691.48 251.179 691.041 251.088 690.646 250.906C690.252 250.72 689.939 250.454 689.706 250.106C689.474 249.754 689.358 249.33 689.358 248.833C689.358 248.395 689.445 248.041 689.617 247.769C689.789 247.494 690.02 247.278 690.308 247.123C690.596 246.967 690.915 246.851 691.263 246.775C691.614 246.695 691.967 246.632 692.322 246.586C692.786 246.526 693.162 246.481 693.45 246.451C693.742 246.418 693.954 246.364 694.086 246.287C694.222 246.211 694.29 246.079 694.29 245.89V245.85C694.29 245.359 694.156 244.978 693.888 244.706C693.622 244.435 693.22 244.299 692.68 244.299C692.119 244.299 691.68 244.421 691.362 244.667C691.044 244.912 690.82 245.174 690.691 245.452L689.577 245.054C689.776 244.59 690.041 244.229 690.373 243.971C690.707 243.709 691.072 243.527 691.466 243.424C691.864 243.318 692.255 243.265 692.64 243.265C692.885 243.265 693.167 243.295 693.485 243.354C693.806 243.411 694.116 243.528 694.415 243.707C694.716 243.886 694.966 244.156 695.165 244.518C695.364 244.879 695.464 245.363 695.464 245.969V251H694.29V249.966H694.231C694.151 250.132 694.019 250.309 693.833 250.498C693.647 250.687 693.4 250.848 693.092 250.981C692.784 251.113 692.408 251.179 691.964 251.179ZM692.143 250.125C692.607 250.125 692.998 250.034 693.316 249.852C693.637 249.67 693.879 249.434 694.042 249.146C694.207 248.858 694.29 248.554 694.29 248.236V247.162C694.241 247.222 694.131 247.277 693.962 247.326C693.796 247.373 693.604 247.414 693.385 247.451C693.17 247.484 692.96 247.514 692.754 247.54C692.552 247.563 692.388 247.583 692.262 247.6C691.957 247.64 691.672 247.704 691.407 247.794C691.145 247.88 690.933 248.011 690.77 248.187C690.611 248.359 690.532 248.594 690.532 248.893C690.532 249.3 690.683 249.608 690.984 249.817C691.289 250.023 691.675 250.125 692.143 250.125ZM698.087 253.864C697.888 253.864 697.711 253.848 697.555 253.814C697.4 253.785 697.292 253.755 697.232 253.725L697.531 252.691C697.816 252.764 698.067 252.79 698.286 252.77C698.505 252.75 698.699 252.653 698.868 252.477C699.04 252.305 699.198 252.025 699.34 251.637L699.559 251.04L696.735 243.364H698.008L700.116 249.449H700.195L702.303 243.364H703.576L700.335 252.114C700.189 252.509 700.008 252.835 699.793 253.094C699.577 253.355 699.327 253.549 699.042 253.675C698.76 253.801 698.442 253.864 698.087 253.864ZM709.042 251V250.106L712.403 246.427C712.797 245.996 713.122 245.621 713.377 245.303C713.633 244.982 713.822 244.68 713.944 244.398C714.07 244.113 714.133 243.815 714.133 243.503C714.133 243.145 714.047 242.835 713.875 242.574C713.706 242.312 713.474 242.11 713.179 241.967C712.884 241.825 712.552 241.753 712.184 241.753C711.793 241.753 711.452 241.835 711.16 241.997C710.872 242.156 710.648 242.38 710.489 242.668C710.333 242.956 710.255 243.295 710.255 243.682H709.082C709.082 243.086 709.22 242.562 709.495 242.111C709.77 241.661 710.144 241.309 710.618 241.057C711.096 240.805 711.631 240.679 712.224 240.679C712.821 240.679 713.349 240.805 713.81 241.057C714.271 241.309 714.632 241.649 714.894 242.076C715.156 242.504 715.287 242.98 715.287 243.503C715.287 243.878 715.219 244.244 715.083 244.602C714.95 244.957 714.718 245.353 714.387 245.79C714.059 246.224 713.603 246.755 713.02 247.381L710.733 249.827V249.907H715.466V251H709.042ZM720.84 251.14C720.091 251.14 719.453 250.936 718.926 250.528C718.399 250.117 717.996 249.522 717.718 248.743C717.439 247.961 717.3 247.017 717.3 245.91C717.3 244.809 717.439 243.87 717.718 243.091C717.999 242.308 718.404 241.712 718.931 241.301C719.461 240.887 720.097 240.679 720.84 240.679C721.582 240.679 722.217 240.887 722.744 241.301C723.274 241.712 723.679 242.308 723.957 243.091C724.239 243.87 724.38 244.809 724.38 245.91C724.38 247.017 724.24 247.961 723.962 248.743C723.684 249.522 723.281 250.117 722.754 250.528C722.227 250.936 721.589 251.14 720.84 251.14ZM720.84 250.046C721.582 250.046 722.159 249.688 722.57 248.972C722.981 248.256 723.186 247.235 723.186 245.91C723.186 245.028 723.092 244.277 722.903 243.657C722.717 243.038 722.449 242.565 722.098 242.241C721.75 241.916 721.33 241.753 720.84 241.753C720.104 241.753 719.529 242.116 719.115 242.842C718.7 243.565 718.493 244.587 718.493 245.91C718.493 246.791 718.586 247.54 718.772 248.157C718.957 248.773 719.224 249.242 719.572 249.564C719.923 249.885 720.346 250.046 720.84 250.046ZM726.269 251V250.106L729.63 246.427C730.024 245.996 730.349 245.621 730.604 245.303C730.859 244.982 731.048 244.68 731.171 244.398C731.297 244.113 731.36 243.815 731.36 243.503C731.36 243.145 731.274 242.835 731.101 242.574C730.932 242.312 730.7 242.11 730.405 241.967C730.11 241.825 729.779 241.753 729.411 241.753C729.02 241.753 728.678 241.835 728.387 241.997C728.098 242.156 727.875 242.38 727.716 242.668C727.56 242.956 727.482 243.295 727.482 243.682H726.309C726.309 243.086 726.446 242.562 726.721 242.111C726.996 241.661 727.371 241.309 727.845 241.057C728.322 240.805 728.857 240.679 729.451 240.679C730.047 240.679 730.576 240.805 731.037 241.057C731.497 241.309 731.859 241.649 732.12 242.076C732.382 242.504 732.513 242.98 732.513 243.503C732.513 243.878 732.445 244.244 732.309 244.602C732.177 244.957 731.945 245.353 731.613 245.79C731.285 246.224 730.829 246.755 730.246 247.381L727.959 249.827V249.907H732.692V251H726.269ZM734.745 251V250.106L738.106 246.427C738.501 245.996 738.825 245.621 739.081 245.303C739.336 244.982 739.525 244.68 739.647 244.398C739.773 244.113 739.836 243.815 739.836 243.503C739.836 243.145 739.75 242.835 739.578 242.574C739.409 242.312 739.177 242.11 738.882 241.967C738.587 241.825 738.255 241.753 737.887 241.753C737.496 241.753 737.155 241.835 736.863 241.997C736.575 242.156 736.351 242.38 736.192 242.668C736.036 242.956 735.958 243.295 735.958 243.682H734.785C734.785 243.086 734.923 242.562 735.198 242.111C735.473 241.661 735.847 241.309 736.321 241.057C736.799 240.805 737.334 240.679 737.927 240.679C738.524 240.679 739.052 240.805 739.513 241.057C739.974 241.309 740.335 241.649 740.597 242.076C740.859 242.504 740.99 242.98 740.99 243.503C740.99 243.878 740.922 244.244 740.786 244.602C740.653 244.957 740.421 245.353 740.09 245.79C739.762 246.224 739.306 246.755 738.723 247.381L736.436 249.827V249.907H741.169V251H734.745ZM750.48 251.14C749.731 251.14 749.093 250.936 748.566 250.528C748.039 250.117 747.637 249.522 747.358 248.743C747.08 247.961 746.941 247.017 746.941 245.91C746.941 244.809 747.08 243.87 747.358 243.091C747.64 242.308 748.044 241.712 748.571 241.301C749.102 240.887 749.738 240.679 750.48 240.679C751.223 240.679 751.858 240.887 752.385 241.301C752.915 241.712 753.319 242.308 753.598 243.091C753.879 243.87 754.02 244.809 754.02 245.91C754.02 247.017 753.881 247.961 753.603 248.743C753.324 249.522 752.922 250.117 752.395 250.528C751.868 250.936 751.23 251.14 750.48 251.14ZM750.48 250.046C751.223 250.046 751.8 249.688 752.211 248.972C752.622 248.256 752.827 247.235 752.827 245.91C752.827 245.028 752.733 244.277 752.544 243.657C752.358 243.038 752.09 242.565 751.738 242.241C751.39 241.916 750.971 241.753 750.48 241.753C749.745 241.753 749.17 242.116 748.755 242.842C748.341 243.565 748.134 244.587 748.134 245.91C748.134 246.791 748.227 247.54 748.412 248.157C748.598 248.773 748.865 249.242 749.213 249.564C749.564 249.885 749.987 250.046 750.48 250.046ZM759.489 240.819V251H758.256V242.111H758.196L755.711 243.762V242.509L758.256 240.819H759.489ZM763.292 249.698C763.047 249.698 762.837 249.61 762.661 249.434C762.485 249.259 762.397 249.048 762.397 248.803C762.397 248.558 762.485 248.347 762.661 248.172C762.837 247.996 763.047 247.908 763.292 247.908C763.538 247.908 763.748 247.996 763.924 248.172C764.099 248.347 764.187 248.558 764.187 248.803C764.187 248.965 764.146 249.115 764.063 249.25C763.983 249.386 763.876 249.496 763.74 249.579C763.607 249.658 763.458 249.698 763.292 249.698ZM763.292 244.547C763.047 244.547 762.837 244.46 762.661 244.284C762.485 244.108 762.397 243.898 762.397 243.652C762.397 243.407 762.485 243.197 762.661 243.021C762.837 242.845 763.047 242.758 763.292 242.758C763.538 242.758 763.748 242.845 763.924 243.021C764.099 243.197 764.187 243.407 764.187 243.652C764.187 243.815 764.146 243.964 764.063 244.1C763.983 244.236 763.876 244.345 763.74 244.428C763.607 244.508 763.458 244.547 763.292 244.547ZM766.273 251V250.106L769.634 246.427C770.028 245.996 770.353 245.621 770.608 245.303C770.863 244.982 771.052 244.68 771.175 244.398C771.301 244.113 771.364 243.815 771.364 243.503C771.364 243.145 771.277 242.835 771.105 242.574C770.936 242.312 770.704 242.11 770.409 241.967C770.114 241.825 769.783 241.753 769.415 241.753C769.024 241.753 768.682 241.835 768.391 241.997C768.102 242.156 767.879 242.38 767.719 242.668C767.564 242.956 767.486 243.295 767.486 243.682H766.312C766.312 243.086 766.45 242.562 766.725 242.111C767 241.661 767.375 241.309 767.849 241.057C768.326 240.805 768.861 240.679 769.455 240.679C770.051 240.679 770.58 240.805 771.04 241.057C771.501 241.309 771.862 241.649 772.124 242.076C772.386 242.504 772.517 242.98 772.517 243.503C772.517 243.878 772.449 244.244 772.313 244.602C772.181 244.957 771.949 245.353 771.617 245.79C771.289 246.224 770.833 246.755 770.25 247.381L767.963 249.827V249.907H772.696V251H766.273ZM778.19 251.14C777.533 251.14 776.948 251.027 776.435 250.802C775.924 250.576 775.518 250.263 775.217 249.862C774.918 249.458 774.756 248.989 774.729 248.455H775.982C776.009 248.783 776.121 249.067 776.32 249.305C776.519 249.54 776.779 249.723 777.101 249.852C777.422 249.981 777.779 250.046 778.17 250.046C778.607 250.046 778.995 249.97 779.333 249.817C779.671 249.665 779.936 249.453 780.129 249.181C780.321 248.909 780.417 248.594 780.417 248.236C780.417 247.862 780.324 247.532 780.138 247.247C779.953 246.959 779.681 246.733 779.323 246.571C778.965 246.408 778.528 246.327 778.011 246.327H777.195V245.233H778.011C778.415 245.233 778.77 245.161 779.075 245.015C779.383 244.869 779.623 244.663 779.795 244.398C779.971 244.133 780.059 243.822 780.059 243.464C780.059 243.119 779.983 242.819 779.83 242.564C779.678 242.308 779.462 242.11 779.184 241.967C778.909 241.825 778.584 241.753 778.21 241.753C777.858 241.753 777.527 241.818 777.215 241.947C776.907 242.073 776.655 242.257 776.46 242.499C776.264 242.738 776.158 243.026 776.141 243.364H774.948C774.968 242.831 775.129 242.363 775.43 241.962C775.732 241.558 776.126 241.243 776.614 241.018C777.104 240.792 777.643 240.679 778.229 240.679C778.859 240.679 779.399 240.807 779.85 241.062C780.301 241.314 780.647 241.647 780.889 242.062C781.131 242.476 781.252 242.923 781.252 243.404C781.252 243.977 781.101 244.466 780.8 244.871C780.501 245.275 780.095 245.555 779.582 245.711V245.79C780.225 245.896 780.727 246.17 781.088 246.611C781.449 247.048 781.63 247.59 781.63 248.236C781.63 248.79 781.479 249.287 781.178 249.728C780.879 250.165 780.472 250.51 779.955 250.762C779.438 251.014 778.849 251.14 778.19 251.14ZM787.78 251V240.819H791.22C792.019 240.819 792.672 240.963 793.179 241.251C793.689 241.536 794.067 241.922 794.312 242.41C794.558 242.897 794.68 243.44 794.68 244.04C794.68 244.64 794.558 245.185 794.312 245.676C794.071 246.166 793.696 246.558 793.189 246.849C792.682 247.138 792.032 247.282 791.24 247.282H788.774V246.188H791.2C791.747 246.188 792.186 246.094 792.518 245.905C792.849 245.716 793.089 245.46 793.239 245.139C793.391 244.814 793.467 244.448 793.467 244.04C793.467 243.633 793.391 243.268 793.239 242.947C793.089 242.625 792.848 242.373 792.513 242.191C792.178 242.005 791.734 241.912 791.18 241.912H789.013V251H787.78ZM796.667 240.819H798.138L801.598 249.27H801.718L805.178 240.819H806.65V251H805.496V243.265H805.397L802.215 251H801.101L797.919 243.265H797.82V251H796.667V240.819Z" fill="#616B7C"/>
<line x1="55" y1="287.5" x2="1216" y2="287.501" stroke="#F2F2F8"/>
<rect x="55.5" y="133.5" width="1160" height="258" rx="15.5" stroke="#F2F2F8"/>
</g>
</g>
</g>
<rect x="0.5" y="0.500488" width="993" height="319" rx="16.5" stroke="#F2F2F8"/>
<defs>
<filter id="filter0_d_1158_81501" x="901" y="-90.9995" width="504" height="136" filterUnits="userSpaceOnUse" color-interpolation-filters="sRGB">
<feFlood flood-opacity="0" result="BackgroundImageFix"/>
<feColorMatrix in="SourceAlpha" type="matrix" values="0 0 0 0 0 0 0 0 0 0 0 0 0 0 0 0 0 0 127 0" result="hardAlpha"/>
<feOffset dy="16"/>
<feGaussianBlur stdDeviation="16"/>
<feColorMatrix type="matrix" values="0 0 0 0 0.215686 0 0 0 0 0.231373 0 0 0 0 0.301961 0 0 0 0.04 0"/>
<feBlend mode="normal" in2="BackgroundImageFix" result="effect1_dropShadow_1158_81501"/>
<feBlend mode="normal" in="SourceGraphic" in2="effect1_dropShadow_1158_81501" result="shape"/>
</filter>
<filter id="filter1_d_1158_81501" x="23" y="117" width="1225" height="323" filterUnits="userSpaceOnUse" color-interpolation-filters="sRGB">
<feFlood flood-opacity="0" result="BackgroundImageFix"/>
<feColorMatrix in="SourceAlpha" type="matrix" values="0 0 0 0 0 0 0 0 0 0 0 0 0 0 0 0 0 0 127 0" result="hardAlpha"/>
<feOffset dy="16"/>
<feGaussianBlur stdDeviation="16"/>
<feColorMatrix type="matrix" values="0 0 0 0 0.215686 0 0 0 0 0.231373 0 0 0 0 0.301961 0 0 0 0.04 0"/>
<feBlend mode="normal" in2="BackgroundImageFix" result="effect1_dropShadow_1158_81501"/>
<feBlend mode="normal" in="SourceGraphic" in2="effect1_dropShadow_1158_81501" result="shape"/>
</filter>
<filter id="filter2_d_1158_81501" x="548" y="152" width="80" height="80" filterUnits="userSpaceOnUse" color-interpolation-filters="sRGB">
<feFlood flood-opacity="0" result="BackgroundImageFix"/>
<feColorMatrix in="SourceAlpha" type="matrix" values="0 0 0 0 0 0 0 0 0 0 0 0 0 0 0 0 0 0 127 0" result="hardAlpha"/>
<feOffset dy="16"/>
<feGaussianBlur stdDeviation="16"/>
<feColorMatrix type="matrix" values="0 0 0 0 0.215686 0 0 0 0 0.231373 0 0 0 0 0.301961 0 0 0 0.02 0"/>
<feBlend mode="normal" in2="BackgroundImageFix" result="effect1_dropShadow_1158_81501"/>
<feBlend mode="normal" in="SourceGraphic" in2="effect1_dropShadow_1158_81501" result="shape"/>
</filter>
<clipPath id="clip0_1158_81501">
<rect x="1" y="1.00049" width="992" height="318" rx="16" fill="white"/>
</clipPath>
<clipPath id="clip1_1158_81501">
<rect width="1725" height="1037" fill="white" transform="translate(-328 -163)"/>
</clipPath>
</defs>
</svg>
