<svg width="482" height="181" viewBox="0 0 482 181" fill="none" xmlns="http://www.w3.org/2000/svg">
<g clip-path="url(#clip0_1158_81633)">
<rect x="1" y="1.00049" width="480" height="179" rx="16" fill="#FCFCFF"/>
<rect x="-161.5" y="0.0505371" width="200" height="1" fill="#F2F2F8"/>
<rect x="38.5" y="0.0505371" width="180" height="1" fill="#F2F2F8"/>
<rect x="218.5" y="0.0505371" width="180" height="1" fill="#F2F2F8"/>
<rect x="398.5" y="0.0505371" width="200" height="1" fill="#F2F2F8"/>
<rect x="-161.5" y="80.0505" width="200" height="1" fill="#F2F2F8"/>
<rect width="200" height="79.1011" transform="translate(-161.5 1)" fill="white"/>
<rect x="38.5" y="80.0505" width="180" height="1" fill="#F2F2F8"/>
<rect width="180" height="79.1011" transform="translate(38.5 1)" fill="white"/>
<rect x="70.5" y="24.5505" width="104" height="32" rx="16" fill="#F2F2F8"/>
<path d="M89.0552 40.1244L88.0012 40.4227C87.935 40.247 87.8372 40.0763 87.7079 39.9106C87.582 39.7416 87.4096 39.6024 87.1909 39.493C86.9721 39.3836 86.6921 39.3289 86.3507 39.3289C85.8833 39.3289 85.4939 39.4367 85.1824 39.6521C84.8741 39.8642 84.72 40.1343 84.72 40.4625C84.72 40.7541 84.8261 40.9845 85.0382 41.1535C85.2503 41.3226 85.5817 41.4634 86.0325 41.5761L87.166 41.8545C87.8488 42.0202 88.3575 42.2738 88.6923 42.6152C89.027 42.9532 89.1944 43.3891 89.1944 43.9227C89.1944 44.3602 89.0685 44.7513 88.8166 45.096C88.568 45.4407 88.22 45.7125 87.7725 45.9113C87.3251 46.1102 86.8047 46.2096 86.2115 46.2096C85.4326 46.2096 84.7879 46.0406 84.2775 45.7025C83.7671 45.3645 83.444 44.8706 83.3081 44.221L84.4217 43.9426C84.5278 44.3536 84.7283 44.6618 85.0233 44.8673C85.3216 45.0728 85.711 45.1755 86.1916 45.1755C86.7385 45.1755 87.1726 45.0595 87.4941 44.8275C87.819 44.5922 87.9814 44.3105 87.9814 43.9824C87.9814 43.7172 87.8886 43.4951 87.7029 43.3162C87.5173 43.1339 87.2323 42.998 86.8478 42.9085L85.5751 42.6102C84.8758 42.4445 84.362 42.1876 84.0339 41.8396C83.7091 41.4883 83.5467 41.0491 83.5467 40.5221C83.5467 40.0913 83.6677 39.7101 83.9096 39.3787C84.1549 39.0472 84.488 38.787 84.9089 38.5981C85.3332 38.4092 85.8137 38.3147 86.3507 38.3147C87.1064 38.3147 87.6996 38.4805 88.1305 38.8119C88.5647 39.1433 88.8729 39.5808 89.0552 40.1244ZM94.0629 46.2096C93.3469 46.2096 92.7305 46.0406 92.2134 45.7025C91.6964 45.3645 91.2987 44.8988 91.0202 44.3055C90.7418 43.7122 90.6026 43.0344 90.6026 42.2721C90.6026 41.4966 90.7451 40.8121 91.0302 40.2189C91.3185 39.6223 91.7196 39.1566 92.2333 38.8218C92.7504 38.4838 93.3536 38.3147 94.043 38.3147C94.5799 38.3147 95.0638 38.4142 95.4947 38.613C95.9255 38.8119 96.2785 39.0903 96.5536 39.4483C96.8287 39.8062 96.9994 40.2238 97.0657 40.7011H95.8924C95.8029 40.3531 95.604 40.0449 95.2958 39.7764C94.9909 39.5046 94.5799 39.3687 94.0629 39.3687C93.6055 39.3687 93.2044 39.488 92.8597 39.7267C92.5183 39.962 92.2515 40.2951 92.0593 40.726C91.8704 41.1535 91.7759 41.6557 91.7759 42.2324C91.7759 42.8223 91.8687 43.336 92.0543 43.7735C92.2433 44.211 92.5084 44.5508 92.8498 44.7927C93.1945 45.0347 93.5988 45.1557 94.0629 45.1557C94.3678 45.1557 94.6445 45.1026 94.8931 44.9966C95.1417 44.8905 95.3522 44.738 95.5245 44.5392C95.6969 44.3403 95.8195 44.1017 95.8924 43.8233H97.0657C96.9994 44.274 96.8353 44.68 96.5735 45.0413C96.315 45.3993 95.9719 45.6843 95.5444 45.8964C95.1201 46.1052 94.6263 46.2096 94.0629 46.2096ZM99.9542 41.4568V46.0505H98.7809V35.8687H99.9542V39.6074H100.054C100.233 39.2129 100.501 38.8997 100.859 38.6677C101.22 38.4324 101.701 38.3147 102.301 38.3147C102.821 38.3147 103.277 38.4191 103.668 38.628C104.059 38.8334 104.362 39.15 104.578 39.5775C104.797 40.0018 104.906 40.542 104.906 41.1983V46.0505H103.733V41.2778C103.733 40.6713 103.575 40.2023 103.26 39.8708C102.949 39.5361 102.516 39.3687 101.963 39.3687C101.578 39.3687 101.234 39.4499 100.929 39.6123C100.627 39.7747 100.388 40.0117 100.213 40.3233C100.04 40.6348 99.9542 41.0127 99.9542 41.4568ZM110.254 46.2096C109.518 46.2096 108.884 46.0472 108.35 45.7224C107.82 45.3943 107.41 44.9369 107.122 44.3503C106.837 43.7603 106.694 43.0742 106.694 42.292C106.694 41.5098 106.837 40.8204 107.122 40.2238C107.41 39.6239 107.811 39.1566 108.325 38.8218C108.842 38.4838 109.445 38.3147 110.135 38.3147C110.532 38.3147 110.925 38.381 111.313 38.5136C111.701 38.6462 112.054 38.8616 112.372 39.1599C112.69 39.4549 112.944 39.846 113.133 40.3332C113.322 40.8204 113.416 41.4203 113.416 42.1329V42.6301H107.53V41.6159H112.223C112.223 41.185 112.137 40.8005 111.964 40.4625C111.795 40.1244 111.553 39.8576 111.238 39.662C110.927 39.4665 110.559 39.3687 110.135 39.3687C109.667 39.3687 109.263 39.4847 108.922 39.7167C108.584 39.9454 108.323 40.2437 108.141 40.6116C107.959 40.9795 107.868 41.3739 107.868 41.7949V42.471C107.868 43.0477 107.967 43.5366 108.166 43.9376C108.368 44.3353 108.648 44.6386 109.006 44.8474C109.364 45.0529 109.78 45.1557 110.254 45.1557C110.562 45.1557 110.841 45.1126 111.089 45.0264C111.341 44.9369 111.558 44.8043 111.741 44.6287C111.923 44.4497 112.064 44.2276 112.163 43.9625L113.297 44.2807C113.177 44.6651 112.977 45.0032 112.695 45.2949C112.413 45.5832 112.065 45.8086 111.651 45.971C111.237 46.1301 110.771 46.2096 110.254 46.2096ZM118.084 46.2096C117.448 46.2096 116.886 46.0489 116.399 45.7274C115.912 45.4026 115.531 44.9452 115.256 44.3552C114.98 43.7619 114.843 43.061 114.843 42.2522C114.843 41.4502 114.98 40.7541 115.256 40.1642C115.531 39.5742 115.913 39.1185 116.404 38.797C116.894 38.4755 117.461 38.3147 118.104 38.3147C118.601 38.3147 118.994 38.3976 119.282 38.5633C119.574 38.7257 119.796 38.9113 119.949 39.1201C120.104 39.3256 120.225 39.4947 120.312 39.6272H120.411V35.8687H121.584V46.0505H120.451V44.8772H120.312C120.225 45.0164 120.103 45.1921 119.944 45.4042C119.785 45.613 119.558 45.8003 119.263 45.966C118.968 46.1284 118.575 46.2096 118.084 46.2096ZM118.243 45.1557C118.714 45.1557 119.112 45.033 119.437 44.7878C119.761 44.5392 120.008 44.1961 120.177 43.7586C120.346 43.3178 120.431 42.8091 120.431 42.2324C120.431 41.6623 120.348 41.1635 120.182 40.7359C120.017 40.305 119.771 39.9703 119.447 39.7316C119.122 39.4897 118.721 39.3687 118.243 39.3687C117.746 39.3687 117.332 39.4963 117.001 39.7515C116.672 40.0034 116.425 40.3465 116.26 40.7807C116.097 41.2115 116.016 41.6954 116.016 42.2324C116.016 42.7759 116.099 43.2698 116.265 43.7139C116.434 44.1547 116.682 44.506 117.01 44.7679C117.342 45.0264 117.753 45.1557 118.243 45.1557ZM128.709 42.9284V38.4142H129.882V46.0505H128.709V44.7579H128.629C128.45 45.1457 128.172 45.4755 127.794 45.7473C127.416 46.0157 126.939 46.15 126.362 46.15C125.885 46.15 125.461 46.0456 125.089 45.8368C124.718 45.6246 124.426 45.3065 124.214 44.8822C124.002 44.4547 123.896 43.9161 123.896 43.2664V38.4142H125.069V43.1869C125.069 43.7437 125.225 44.1878 125.537 44.5193C125.852 44.8507 126.253 45.0164 126.74 45.0164C127.032 45.0164 127.328 44.9419 127.63 44.7927C127.935 44.6436 128.19 44.4149 128.395 44.1066C128.604 43.7984 128.709 43.4057 128.709 42.9284ZM133.204 35.8687V46.0505H132.031V35.8687H133.204ZM138.555 46.2096C137.819 46.2096 137.184 46.0472 136.651 45.7224C136.12 45.3943 135.711 44.9369 135.423 44.3503C135.138 43.7603 134.995 43.0742 134.995 42.292C134.995 41.5098 135.138 40.8204 135.423 40.2238C135.711 39.6239 136.112 39.1566 136.626 38.8218C137.143 38.4838 137.746 38.3147 138.436 38.3147C138.833 38.3147 139.226 38.381 139.614 38.5136C140.002 38.6462 140.355 38.8616 140.673 39.1599C140.991 39.4549 141.244 39.846 141.433 40.3332C141.622 40.8204 141.717 41.4203 141.717 42.1329V42.6301H135.83V41.6159H140.524C140.524 41.185 140.437 40.8005 140.265 40.4625C140.096 40.1244 139.854 39.8576 139.539 39.662C139.228 39.4665 138.86 39.3687 138.436 39.3687C137.968 39.3687 137.564 39.4847 137.222 39.7167C136.884 39.9454 136.624 40.2437 136.442 40.6116C136.26 40.9795 136.169 41.3739 136.169 41.7949V42.471C136.169 43.0477 136.268 43.5366 136.467 43.9376C136.669 44.3353 136.949 44.6386 137.307 44.8474C137.665 45.0529 138.081 45.1557 138.555 45.1557C138.863 45.1557 139.142 45.1126 139.39 45.0264C139.642 44.9369 139.859 44.8043 140.041 44.6287C140.224 44.4497 140.365 44.2276 140.464 43.9625L141.597 44.2807C141.478 44.6651 141.278 45.0032 140.996 45.2949C140.714 45.5832 140.366 45.8086 139.952 45.971C139.538 46.1301 139.072 46.2096 138.555 46.2096Z" fill="#4F5769"/>
<path d="M152.235 35.0832C152.517 34.7587 152.864 34.4985 153.255 34.3203C153.646 34.1421 154.071 34.0501 154.5 34.0505C155.405 34.0505 156.215 34.4505 156.765 35.0832C157.193 35.0526 157.623 35.1146 158.026 35.2649C158.428 35.4153 158.793 35.6505 159.097 35.9545C159.401 36.2579 159.636 36.6231 159.786 37.0254C159.936 37.4276 159.998 37.8575 159.968 38.2859C160.292 38.5672 160.552 38.9151 160.731 39.3059C160.909 39.6966 161 40.1211 161 40.5505C161 40.98 160.908 41.4045 160.73 41.7953C160.552 42.1861 160.292 42.5339 159.967 42.8152C159.998 43.2436 159.936 43.6734 159.785 44.0757C159.635 44.478 159.4 44.8432 159.096 45.1465C158.793 45.4505 158.427 45.6856 158.025 45.8359C157.623 45.9863 157.193 46.0483 156.765 46.0179C156.483 46.3424 156.136 46.6026 155.745 46.7808C155.354 46.9589 154.929 47.0509 154.5 47.0505C154.071 47.0509 153.646 46.9589 153.255 46.7808C152.864 46.6026 152.517 46.3424 152.235 46.0179C151.807 46.0486 151.377 45.9867 150.975 45.8364C150.572 45.6862 150.207 45.4511 149.903 45.1472C149.599 44.8438 149.364 44.4784 149.214 44.0761C149.063 43.6737 149.001 43.2437 149.032 42.8152C148.708 42.5338 148.448 42.186 148.269 41.7952C148.091 41.4045 148 40.98 148 40.5505C148 39.6459 148.4 38.8352 149.033 38.2859C149.002 37.8575 149.064 37.4276 149.215 37.0254C149.365 36.6231 149.6 36.2579 149.904 35.9545C150.207 35.6506 150.573 35.4154 150.975 35.2651C151.377 35.1147 151.807 35.0527 152.235 35.0832ZM156.907 39.3412C156.947 39.2879 156.976 39.2271 156.992 39.1625C157.008 39.0979 157.011 39.0306 157.001 38.9648C156.991 38.8989 156.968 38.8358 156.933 38.779C156.898 38.7223 156.852 38.6731 156.798 38.6343C156.743 38.5956 156.682 38.568 156.617 38.5534C156.552 38.5387 156.485 38.5371 156.419 38.5488C156.353 38.5605 156.291 38.5852 156.235 38.6215C156.179 38.6577 156.131 38.7048 156.093 38.7599L153.936 41.7799L152.853 40.6972C152.759 40.6089 152.633 40.5608 152.504 40.5631C152.374 40.5654 152.251 40.6178 152.159 40.7095C152.067 40.8011 152.015 40.9247 152.013 41.0542C152.01 41.1837 152.058 41.3091 152.147 41.4039L153.647 42.9039C153.698 42.9552 153.76 42.9947 153.828 43.0196C153.896 43.0446 153.969 43.0545 154.041 43.0485C154.113 43.0425 154.184 43.0209 154.247 42.9851C154.31 42.9493 154.364 42.9002 154.407 42.8412L156.907 39.3412Z" fill="#4F5769"/>
<rect x="218.5" y="80.0505" width="180" height="1" fill="#F2F2F8"/>
<rect width="180" height="79.1011" transform="translate(218.5 1)" fill="white"/>
<path d="M259.926 39.0505H258.693C258.62 38.6959 258.493 38.3843 258.31 38.1159C258.131 37.8474 257.913 37.622 257.654 37.4397C257.399 37.2541 257.116 37.1149 256.804 37.0221C256.492 36.9293 256.168 36.8829 255.83 36.8829C255.213 36.8829 254.655 37.0387 254.154 37.3503C253.657 37.6618 253.261 38.1208 252.966 38.7274C252.674 39.3339 252.528 40.078 252.528 40.9596C252.528 41.8413 252.674 42.5853 252.966 43.1919C253.261 43.7984 253.657 44.2574 254.154 44.569C254.655 44.8806 255.213 45.0363 255.83 45.0363C256.168 45.0363 256.492 44.9899 256.804 44.8971C257.116 44.8043 257.399 44.6668 257.654 44.4845C257.913 44.2989 258.131 44.0718 258.31 43.8034C258.493 43.5316 258.62 43.22 258.693 42.8687H259.926C259.833 43.3891 259.664 43.8548 259.419 44.2657C259.174 44.6767 258.869 45.0264 258.504 45.3147C258.14 45.5998 257.73 45.8169 257.276 45.966C256.826 46.1152 256.343 46.1897 255.83 46.1897C254.961 46.1897 254.189 45.9776 253.513 45.5534C252.837 45.1291 252.305 44.5259 251.917 43.7437C251.529 42.9615 251.335 42.0335 251.335 40.9596C251.335 39.8858 251.529 38.9577 251.917 38.1755C252.305 37.3933 252.837 36.7901 253.513 36.3659C254.189 35.9416 254.961 35.7295 255.83 35.7295C256.343 35.7295 256.826 35.8041 257.276 35.9532C257.73 36.1024 258.14 36.3211 258.504 36.6095C258.869 36.8945 259.174 37.2425 259.419 37.6535C259.664 38.0612 259.833 38.5269 259.926 39.0505ZM261.919 46.0505V35.8687H263.151V44.9568H267.884V46.0505H261.919ZM271.026 35.8687V46.0505H269.794V35.8687H271.026Z" fill="#616B7C"/>
<rect x="398.5" y="80.0505" width="200" height="1" fill="#F2F2F8"/>
<rect width="200" height="79.1011" transform="translate(398.5 1)" fill="white"/>
<path d="M434.875 46.1897C434.126 46.1897 433.488 45.9859 432.961 45.5782C432.434 45.1673 432.031 44.5723 431.753 43.7934C431.474 43.0112 431.335 42.0666 431.335 40.9596C431.335 39.8592 431.474 38.9196 431.753 38.1407C432.035 37.3585 432.439 36.7619 432.966 36.351C433.496 35.9367 434.133 35.7295 434.875 35.7295C435.617 35.7295 436.252 35.9367 436.779 36.351C437.309 36.7619 437.714 37.3585 437.992 38.1407C438.274 38.9196 438.415 39.8592 438.415 40.9596C438.415 42.0666 438.276 43.0112 437.997 43.7934C437.719 44.5723 437.316 45.1673 436.789 45.5782C436.262 45.9859 435.624 46.1897 434.875 46.1897ZM434.875 45.096C435.617 45.096 436.194 44.738 436.605 44.0221C437.016 43.3062 437.222 42.2854 437.222 40.9596C437.222 40.078 437.127 39.3273 436.938 38.7075C436.753 38.0877 436.484 37.6154 436.133 37.2906C435.785 36.9658 435.366 36.8034 434.875 36.8034C434.139 36.8034 433.564 37.1663 433.15 37.8922C432.736 38.6147 432.528 39.6372 432.528 40.9596C432.528 41.8413 432.621 42.5903 432.807 43.2068C432.992 43.8233 433.259 44.2923 433.607 44.6137C433.959 44.9352 434.381 45.096 434.875 45.096ZM443.884 35.8687V46.0505H442.651V37.1613H442.591L440.105 38.8119V37.5591L442.651 35.8687H443.884ZM447.687 44.748C447.442 44.748 447.231 44.6601 447.055 44.4845C446.88 44.3088 446.792 44.0984 446.792 43.8531C446.792 43.6078 446.88 43.3974 447.055 43.2217C447.231 43.046 447.442 42.9582 447.687 42.9582C447.932 42.9582 448.143 43.046 448.318 43.2217C448.494 43.3974 448.582 43.6078 448.582 43.8531C448.582 44.0155 448.54 44.1646 448.457 44.3005C448.378 44.4364 448.27 44.5458 448.134 44.6287C448.002 44.7082 447.853 44.748 447.687 44.748ZM447.687 39.5974C447.442 39.5974 447.231 39.5096 447.055 39.3339C446.88 39.1583 446.792 38.9478 446.792 38.7025C446.792 38.4573 446.88 38.2468 447.055 38.0711C447.231 37.8955 447.442 37.8076 447.687 37.8076C447.932 37.8076 448.143 37.8955 448.318 38.0711C448.494 38.2468 448.582 38.4573 448.582 38.7025C448.582 38.8649 448.54 39.0141 448.457 39.15C448.378 39.2859 448.27 39.3952 448.134 39.4781C448.002 39.5576 447.853 39.5974 447.687 39.5974ZM453.988 46.1897C453.239 46.1897 452.601 45.9859 452.074 45.5782C451.547 45.1673 451.145 44.5723 450.866 43.7934C450.588 43.0112 450.449 42.0666 450.449 40.9596C450.449 39.8592 450.588 38.9196 450.866 38.1407C451.148 37.3585 451.552 36.7619 452.079 36.351C452.609 35.9367 453.246 35.7295 453.988 35.7295C454.731 35.7295 455.365 35.9367 455.892 36.351C456.423 36.7619 456.827 37.3585 457.105 38.1407C457.387 38.9196 457.528 39.8592 457.528 40.9596C457.528 42.0666 457.389 43.0112 457.11 43.7934C456.832 44.5723 456.429 45.1673 455.902 45.5782C455.375 45.9859 454.737 46.1897 453.988 46.1897ZM453.988 45.096C454.731 45.096 455.307 44.738 455.718 44.0221C456.129 43.3062 456.335 42.2854 456.335 40.9596C456.335 40.078 456.24 39.3273 456.051 38.7075C455.866 38.0877 455.597 37.6154 455.246 37.2906C454.898 36.9658 454.479 36.8034 453.988 36.8034C453.252 36.8034 452.677 37.1663 452.263 37.8922C451.849 38.6147 451.642 39.6372 451.642 40.9596C451.642 41.8413 451.734 42.5903 451.92 43.2068C452.106 43.8233 452.373 44.2923 452.721 44.6137C453.072 44.9352 453.494 45.096 453.988 45.096ZM462.599 46.1897C462.016 46.1897 461.49 46.0737 461.023 45.8417C460.556 45.6097 460.181 45.2915 459.9 44.8872C459.618 44.4828 459.464 44.0221 459.437 43.5051H460.63C460.677 43.9658 460.886 44.3469 461.257 44.6485C461.631 44.9468 462.079 45.096 462.599 45.096C463.017 45.096 463.388 44.9982 463.713 44.8027C464.041 44.6071 464.298 44.3387 464.483 43.9973C464.672 43.6526 464.767 43.2631 464.767 42.8289C464.767 42.3848 464.669 41.9887 464.473 41.6407C464.281 41.2894 464.016 41.0127 463.678 40.8105C463.34 40.6083 462.954 40.5056 462.52 40.5022C462.208 40.4989 461.888 40.547 461.56 40.6464C461.232 40.7425 460.962 40.8668 460.75 41.0193L459.596 40.8801L460.213 35.8687H465.502V36.9625H461.247L460.889 39.9653H460.949C461.157 39.7996 461.419 39.662 461.734 39.5527C462.049 39.4433 462.377 39.3886 462.718 39.3886C463.342 39.3886 463.897 39.5378 464.384 39.836C464.874 40.131 465.259 40.5354 465.537 41.0491C465.819 41.5628 465.96 42.1495 465.96 42.8091C465.96 43.4587 465.814 44.0387 465.522 44.5491C465.234 45.0562 464.836 45.4573 464.329 45.7522C463.822 46.0439 463.245 46.1897 462.599 46.1897ZM467.955 46.0505V38.4142H469.088V39.6074H469.188C469.347 39.1997 469.604 38.8832 469.958 38.6578C470.313 38.4291 470.739 38.3147 471.236 38.3147C471.74 38.3147 472.159 38.4291 472.494 38.6578C472.832 38.8832 473.095 39.1997 473.284 39.6074H473.364C473.559 39.2129 473.853 38.8997 474.244 38.6677C474.635 38.4324 475.104 38.3147 475.651 38.3147C476.334 38.3147 476.892 38.5285 477.326 38.9561C477.76 39.3803 477.977 40.0415 477.977 40.9397V46.0505H476.804V40.9397C476.804 40.3763 476.65 39.9736 476.342 39.7316C476.034 39.4897 475.671 39.3687 475.253 39.3687C474.716 39.3687 474.3 39.5311 474.005 39.8559C473.71 40.1774 473.563 40.5851 473.563 41.0789V46.0505H472.369V40.8204C472.369 40.3862 472.229 40.0366 471.947 39.7714C471.665 39.503 471.302 39.3687 470.858 39.3687C470.553 39.3687 470.268 39.4499 470.003 39.6123C469.741 39.7747 469.529 40.0001 469.367 40.2885C469.208 40.5735 469.128 40.9033 469.128 41.2778V46.0505H467.955Z" fill="#616B7C"/>
<rect x="-161.5" y="160.051" width="200" height="1" fill="#F2F2F8"/>
<rect width="200" height="79.1011" transform="translate(-161.5 81)" fill="white"/>
<rect x="38.5" y="160.051" width="180" height="1" fill="#F2F2F8"/>
<rect width="180" height="79.1011" transform="translate(38.5 81)" fill="white"/>
<rect x="70.5" y="104.551" width="81" height="32" rx="16" fill="#F2F2F8"/>
<path d="M88.2353 115.083C88.5166 114.759 88.8645 114.499 89.2552 114.32C89.646 114.142 90.0705 114.05 90.5 114.051C91.4047 114.051 92.2153 114.451 92.7647 115.083C93.1931 115.053 93.6232 115.115 94.0255 115.265C94.4279 115.415 94.7932 115.65 95.0967 115.955C95.4006 116.258 95.6357 116.623 95.7861 117.025C95.9364 117.428 95.9985 117.858 95.968 118.286C96.2924 118.567 96.5525 118.915 96.7305 119.306C96.9086 119.697 97.0005 120.121 97 120.551C97.0004 120.98 96.9084 121.405 96.7302 121.795C96.552 122.186 96.2919 122.534 95.9673 122.815C95.9978 123.244 95.9357 123.673 95.7854 124.076C95.6351 124.478 95.3999 124.843 95.096 125.147C94.7926 125.45 94.4274 125.686 94.0252 125.836C93.6229 125.986 93.193 126.048 92.7647 126.018C92.4834 126.342 92.1355 126.603 91.7448 126.781C91.354 126.959 90.9295 127.051 90.5 127.051C90.0705 127.051 89.646 126.959 89.2552 126.781C88.8645 126.603 88.5166 126.342 88.2353 126.018C87.8069 126.049 87.3769 125.987 86.9745 125.836C86.5722 125.686 86.2068 125.451 85.9033 125.147C85.5993 124.844 85.3641 124.478 85.2138 124.076C85.0635 123.674 85.0015 123.244 85.032 122.815C84.7076 122.534 84.4476 122.186 84.2695 121.795C84.0914 121.404 83.9995 120.98 84 120.551C84 119.646 84.4 118.835 85.0327 118.286C85.0022 117.858 85.0642 117.428 85.2145 117.025C85.3649 116.623 85.6 116.258 85.904 115.955C86.2074 115.651 86.5726 115.415 86.9748 115.265C87.3771 115.115 87.807 115.053 88.2353 115.083ZM92.9067 119.341C92.9467 119.288 92.9756 119.227 92.9918 119.163C93.008 119.098 93.0111 119.031 93.0009 118.965C92.9907 118.899 92.9675 118.836 92.9326 118.779C92.8976 118.722 92.8517 118.673 92.7975 118.634C92.7433 118.596 92.6819 118.568 92.6169 118.553C92.5519 118.539 92.4846 118.537 92.419 118.549C92.3534 118.561 92.2908 118.585 92.2349 118.621C92.1789 118.658 92.1308 118.705 92.0933 118.76L89.936 121.78L88.8533 120.697C88.7586 120.609 88.6332 120.561 88.5037 120.563C88.3741 120.565 88.2505 120.618 88.1589 120.709C88.0673 120.801 88.0148 120.925 88.0126 121.054C88.0103 121.184 88.0583 121.309 88.1467 121.404L89.6467 122.904C89.698 122.955 89.7599 122.995 89.828 123.02C89.8961 123.045 89.9689 123.054 90.0412 123.048C90.1135 123.043 90.1836 123.021 90.2468 122.985C90.3099 122.949 90.3644 122.9 90.4067 122.841L92.9067 119.341Z" fill="#4F5769"/>
<path d="M106.846 126.21C106.11 126.21 105.475 126.047 104.942 125.722C104.411 125.394 104.002 124.937 103.714 124.35C103.429 123.76 103.286 123.074 103.286 122.292C103.286 121.51 103.429 120.82 103.714 120.224C104.002 119.624 104.403 119.157 104.917 118.822C105.434 118.484 106.037 118.315 106.727 118.315C107.124 118.315 107.517 118.381 107.905 118.514C108.293 118.646 108.646 118.862 108.964 119.16C109.282 119.455 109.536 119.846 109.724 120.333C109.913 120.82 110.008 121.42 110.008 122.133V122.63H104.121V121.616H108.815C108.815 121.185 108.728 120.801 108.556 120.462C108.387 120.124 108.145 119.858 107.83 119.662C107.519 119.466 107.151 119.369 106.727 119.369C106.259 119.369 105.855 119.485 105.513 119.717C105.175 119.945 104.915 120.244 104.733 120.612C104.551 120.98 104.46 121.374 104.46 121.795V122.471C104.46 123.048 104.559 123.537 104.758 123.938C104.96 124.335 105.24 124.639 105.598 124.847C105.956 125.053 106.372 125.156 106.846 125.156C107.154 125.156 107.433 125.113 107.681 125.026C107.933 124.937 108.15 124.804 108.332 124.629C108.515 124.45 108.656 124.228 108.755 123.962L109.888 124.281C109.769 124.665 109.569 125.003 109.287 125.295C109.005 125.583 108.657 125.809 108.243 125.971C107.829 126.13 107.363 126.21 106.846 126.21ZM117.805 118.414L114.981 126.051H113.787L110.964 118.414H112.236L114.344 124.499H114.424L116.532 118.414H117.805ZM122.281 126.21C121.546 126.21 120.911 126.047 120.377 125.722C119.847 125.394 119.438 124.937 119.149 124.35C118.864 123.76 118.722 123.074 118.722 122.292C118.722 121.51 118.864 120.82 119.149 120.224C119.438 119.624 119.839 119.157 120.352 118.822C120.869 118.484 121.473 118.315 122.162 118.315C122.56 118.315 122.953 118.381 123.34 118.514C123.728 118.646 124.081 118.862 124.399 119.16C124.718 119.455 124.971 119.846 125.16 120.333C125.349 120.82 125.443 121.42 125.443 122.133V122.63H119.557V121.616H124.25C124.25 121.185 124.164 120.801 123.992 120.462C123.823 120.124 123.581 119.858 123.266 119.662C122.954 119.466 122.586 119.369 122.162 119.369C121.695 119.369 121.29 119.485 120.949 119.717C120.611 119.945 120.351 120.244 120.169 120.612C119.986 120.98 119.895 121.374 119.895 121.795V122.471C119.895 123.048 119.994 123.537 120.193 123.938C120.396 124.335 120.676 124.639 121.034 124.847C121.392 125.053 121.807 125.156 122.281 125.156C122.59 125.156 122.868 125.113 123.117 125.026C123.369 124.937 123.586 124.804 123.768 124.629C123.95 124.45 124.091 124.228 124.191 123.962L125.324 124.281C125.205 124.665 125.004 125.003 124.722 125.295C124.441 125.583 124.093 125.809 123.678 125.971C123.264 126.13 122.798 126.21 122.281 126.21ZM128.401 121.457V126.051H127.228V118.414H128.362V119.607H128.461C128.64 119.22 128.912 118.908 129.276 118.673C129.641 118.434 130.112 118.315 130.688 118.315C131.205 118.315 131.658 118.421 132.046 118.633C132.433 118.842 132.735 119.16 132.95 119.587C133.166 120.012 133.274 120.549 133.274 121.198V126.051H132.1V121.278C132.1 120.678 131.945 120.211 131.633 119.876C131.321 119.538 130.894 119.369 130.35 119.369C129.976 119.369 129.641 119.45 129.346 119.612C129.054 119.775 128.824 120.012 128.655 120.323C128.486 120.635 128.401 121.013 128.401 121.457ZM138.739 118.414V119.408H134.781V118.414H138.739ZM135.935 116.585H137.108V123.863C137.108 124.194 137.156 124.443 137.252 124.609C137.352 124.771 137.478 124.881 137.63 124.937C137.786 124.99 137.95 125.016 138.122 125.016C138.251 125.016 138.357 125.01 138.44 124.997C138.523 124.98 138.589 124.967 138.639 124.957L138.878 126.011C138.798 126.041 138.687 126.07 138.545 126.1C138.402 126.133 138.222 126.15 138.003 126.15C137.671 126.15 137.347 126.079 137.028 125.936C136.714 125.794 136.452 125.577 136.243 125.285C136.037 124.993 135.935 124.625 135.935 124.181V116.585Z" fill="#4F5769"/>
<rect x="218.5" y="160.051" width="180" height="1" fill="#F2F2F8"/>
<rect width="180" height="79.1011" transform="translate(218.5 81)" fill="white"/>
<path d="M259.926 119.051H258.693C258.62 118.696 258.493 118.384 258.31 118.116C258.131 117.847 257.913 117.622 257.654 117.44C257.399 117.254 257.116 117.115 256.804 117.022C256.492 116.929 256.168 116.883 255.83 116.883C255.213 116.883 254.655 117.039 254.154 117.35C253.657 117.662 253.261 118.121 252.966 118.727C252.674 119.334 252.528 120.078 252.528 120.96C252.528 121.841 252.674 122.585 252.966 123.192C253.261 123.798 253.657 124.257 254.154 124.569C254.655 124.881 255.213 125.036 255.83 125.036C256.168 125.036 256.492 124.99 256.804 124.897C257.116 124.804 257.399 124.667 257.654 124.484C257.913 124.299 258.131 124.072 258.31 123.803C258.493 123.532 258.62 123.22 258.693 122.869H259.926C259.833 123.389 259.664 123.855 259.419 124.266C259.174 124.677 258.869 125.026 258.504 125.315C258.14 125.6 257.73 125.817 257.276 125.966C256.826 126.115 256.343 126.19 255.83 126.19C254.961 126.19 254.189 125.978 253.513 125.553C252.837 125.129 252.305 124.526 251.917 123.744C251.529 122.962 251.335 122.033 251.335 120.96C251.335 119.886 251.529 118.958 251.917 118.176C252.305 117.393 252.837 116.79 253.513 116.366C254.189 115.942 254.961 115.73 255.83 115.73C256.343 115.73 256.826 115.804 257.276 115.953C257.73 116.102 258.14 116.321 258.504 116.609C258.869 116.895 259.174 117.243 259.419 117.654C259.664 118.061 259.833 118.527 259.926 119.051ZM261.919 126.051V115.869H263.151V124.957H267.884V126.051H261.919ZM271.026 115.869V126.051H269.794V115.869H271.026Z" fill="#616B7C"/>
<rect x="398.5" y="160.051" width="200" height="1" fill="#F2F2F8"/>
<rect width="200" height="79.1011" transform="translate(398.5 81)" fill="white"/>
<path d="M434.875 126.19C434.126 126.19 433.488 125.986 432.961 125.578C432.434 125.167 432.031 124.572 431.753 123.793C431.474 123.011 431.335 122.067 431.335 120.96C431.335 119.859 431.474 118.92 431.753 118.141C432.035 117.359 432.439 116.762 432.966 116.351C433.496 115.937 434.133 115.73 434.875 115.73C435.617 115.73 436.252 115.937 436.779 116.351C437.309 116.762 437.714 117.359 437.992 118.141C438.274 118.92 438.415 119.859 438.415 120.96C438.415 122.067 438.276 123.011 437.997 123.793C437.719 124.572 437.316 125.167 436.789 125.578C436.262 125.986 435.624 126.19 434.875 126.19ZM434.875 125.096C435.617 125.096 436.194 124.738 436.605 124.022C437.016 123.306 437.222 122.285 437.222 120.96C437.222 120.078 437.127 119.327 436.938 118.707C436.753 118.088 436.484 117.615 436.133 117.291C435.785 116.966 435.366 116.803 434.875 116.803C434.139 116.803 433.564 117.166 433.15 117.892C432.736 118.615 432.528 119.637 432.528 120.96C432.528 121.841 432.621 122.59 432.807 123.207C432.992 123.823 433.259 124.292 433.607 124.614C433.959 124.935 434.381 125.096 434.875 125.096ZM443.884 115.869V126.051H442.651V117.161H442.591L440.105 118.812V117.559L442.651 115.869H443.884ZM447.687 124.748C447.442 124.748 447.231 124.66 447.055 124.484C446.88 124.309 446.792 124.098 446.792 123.853C446.792 123.608 446.88 123.397 447.055 123.222C447.231 123.046 447.442 122.958 447.687 122.958C447.932 122.958 448.143 123.046 448.318 123.222C448.494 123.397 448.582 123.608 448.582 123.853C448.582 124.015 448.54 124.165 448.457 124.301C448.378 124.436 448.27 124.546 448.134 124.629C448.002 124.708 447.853 124.748 447.687 124.748ZM447.687 119.597C447.442 119.597 447.231 119.51 447.055 119.334C446.88 119.158 446.792 118.948 446.792 118.703C446.792 118.457 446.88 118.247 447.055 118.071C447.231 117.895 447.442 117.808 447.687 117.808C447.932 117.808 448.143 117.895 448.318 118.071C448.494 118.247 448.582 118.457 448.582 118.703C448.582 118.865 448.54 119.014 448.457 119.15C448.378 119.286 448.27 119.395 448.134 119.478C448.002 119.558 447.853 119.597 447.687 119.597ZM454.108 126.19C453.451 126.19 452.866 126.077 452.353 125.852C451.842 125.626 451.436 125.313 451.135 124.912C450.836 124.508 450.674 124.039 450.647 123.505H451.9C451.927 123.833 452.039 124.117 452.238 124.355C452.437 124.591 452.697 124.773 453.019 124.902C453.34 125.031 453.697 125.096 454.088 125.096C454.525 125.096 454.913 125.02 455.251 124.867C455.589 124.715 455.854 124.503 456.047 124.231C456.239 123.959 456.335 123.644 456.335 123.286C456.335 122.912 456.242 122.582 456.056 122.297C455.871 122.009 455.599 121.783 455.241 121.621C454.883 121.458 454.446 121.377 453.929 121.377H453.113V120.283H453.929C454.333 120.283 454.688 120.211 454.993 120.065C455.301 119.919 455.541 119.713 455.713 119.448C455.889 119.183 455.977 118.872 455.977 118.514C455.977 118.169 455.901 117.869 455.748 117.614C455.596 117.359 455.38 117.16 455.102 117.017C454.827 116.875 454.502 116.803 454.127 116.803C453.776 116.803 453.445 116.868 453.133 116.997C452.825 117.123 452.573 117.307 452.377 117.549C452.182 117.788 452.076 118.076 452.059 118.414H450.866C450.886 117.881 451.047 117.413 451.348 117.012C451.65 116.608 452.044 116.293 452.532 116.068C453.022 115.842 453.561 115.73 454.147 115.73C454.777 115.73 455.317 115.857 455.768 116.112C456.219 116.364 456.565 116.697 456.807 117.112C457.049 117.526 457.17 117.973 457.17 118.454C457.17 119.027 457.019 119.516 456.718 119.921C456.419 120.325 456.013 120.605 455.5 120.761V120.84C456.143 120.946 456.645 121.22 457.006 121.661C457.367 122.098 457.548 122.64 457.548 123.286C457.548 123.84 457.397 124.337 457.096 124.778C456.797 125.215 456.39 125.56 455.873 125.812C455.355 126.064 454.767 126.19 454.108 126.19ZM462.902 126.19C462.153 126.19 461.515 125.986 460.988 125.578C460.461 125.167 460.059 124.572 459.78 123.793C459.502 123.011 459.363 122.067 459.363 120.96C459.363 119.859 459.502 118.92 459.78 118.141C460.062 117.359 460.466 116.762 460.993 116.351C461.524 115.937 462.16 115.73 462.902 115.73C463.645 115.73 464.279 115.937 464.806 116.351C465.337 116.762 465.741 117.359 466.02 118.141C466.301 118.92 466.442 119.859 466.442 120.96C466.442 122.067 466.303 123.011 466.025 123.793C465.746 124.572 465.343 125.167 464.816 125.578C464.289 125.986 463.651 126.19 462.902 126.19ZM462.902 125.096C463.645 125.096 464.221 124.738 464.632 124.022C465.043 123.306 465.249 122.285 465.249 120.96C465.249 120.078 465.154 119.327 464.966 118.707C464.78 118.088 464.511 117.615 464.16 117.291C463.812 116.966 463.393 116.803 462.902 116.803C462.167 116.803 461.592 117.166 461.177 117.892C460.763 118.615 460.556 119.637 460.556 120.96C460.556 121.841 460.649 122.59 460.834 123.207C461.02 123.823 461.287 124.292 461.635 124.614C461.986 124.935 462.408 125.096 462.902 125.096ZM468.351 126.051V118.414H469.485V119.607H469.584C469.743 119.2 470 118.883 470.355 118.658C470.709 118.429 471.135 118.315 471.632 118.315C472.136 118.315 472.556 118.429 472.89 118.658C473.228 118.883 473.492 119.2 473.681 119.607H473.76C473.956 119.213 474.249 118.9 474.64 118.668C475.031 118.432 475.5 118.315 476.047 118.315C476.73 118.315 477.288 118.529 477.723 118.956C478.157 119.38 478.374 120.042 478.374 120.94V126.051H477.201V120.94C477.201 120.376 477.047 119.974 476.738 119.732C476.43 119.49 476.067 119.369 475.65 119.369C475.113 119.369 474.697 119.531 474.402 119.856C474.107 120.177 473.959 120.585 473.959 121.079V126.051H472.766V120.82C472.766 120.386 472.625 120.037 472.343 119.771C472.062 119.503 471.699 119.369 471.255 119.369C470.95 119.369 470.665 119.45 470.4 119.612C470.138 119.775 469.926 120 469.763 120.288C469.604 120.574 469.525 120.903 469.525 121.278V126.051H468.351Z" fill="#616B7C"/>
<rect width="200" height="79.1011" transform="translate(-161.5 161)" fill="white"/>
<rect width="180" height="79.1011" transform="translate(38.5 161)" fill="white"/>
<rect width="180" height="79.1011" transform="translate(218.5 161)" fill="white"/>
<path d="M398.5 161H598.5V224.101C598.5 232.938 591.337 240.101 582.5 240.101H398.5V161Z" fill="white"/>
</g>
<rect x="0.5" y="0.500488" width="481" height="180" rx="16.5" stroke="#F2F2F8"/>
<defs>
<clipPath id="clip0_1158_81633">
<rect x="1" y="1.00049" width="480" height="179" rx="16" fill="white"/>
</clipPath>
</defs>
</svg>
