<svg width="482" height="181" viewBox="0 0 482 181" fill="none" xmlns="http://www.w3.org/2000/svg">
<g clip-path="url(#clip0_1158_81621)">
<rect x="1" y="1.00049" width="480" height="179" rx="16" fill="#FCFCFF"/>
<rect x="-140" y="6.13013" width="200" height="1" fill="#F2F2F8"/>
<path d="M-140 -47H60V6.26027H-140V-47Z" fill="white"/>
<rect x="60" y="6.13013" width="180" height="1" fill="#F2F2F8"/>
<path d="M60 -47H240V6.26027H60V-47Z" fill="white"/>
<rect x="240" y="6.13013" width="180" height="1" fill="#F2F2F8"/>
<path d="M240 -47H420V6.26027H240V-47Z" fill="white"/>
<rect x="420" y="6.13013" width="200" height="1" fill="#F2F2F8"/>
<path d="M420 -47H604C612.837 -47 620 -39.8366 620 -31V6.26027H420V-47Z" fill="white"/>
<rect x="-140" y="86.0505" width="200" height="1" fill="#F2F2F8"/>
<rect width="200" height="79.1011" transform="translate(-140 7)" fill="white"/>
<rect x="60" y="86.0505" width="180" height="1" fill="#F2F2F8"/>
<rect width="180" height="79.1011" transform="translate(60 7)" fill="white"/>
<rect x="92" y="30.5505" width="51" height="32" rx="16" fill="#F2F2F8"/>
<path d="M106.26 47.4568V52.0505H105.087V41.8687H106.26V45.6074H106.359C106.538 45.2129 106.807 44.8997 107.165 44.6677C107.526 44.4324 108.007 44.3147 108.606 44.3147C109.127 44.3147 109.583 44.4191 109.974 44.628C110.365 44.8334 110.668 45.15 110.883 45.5775C111.102 46.0018 111.212 46.542 111.212 47.1983V52.0505H110.038V47.2778C110.038 46.6713 109.881 46.2023 109.566 45.8708C109.254 45.5361 108.822 45.3687 108.268 45.3687C107.884 45.3687 107.539 45.4499 107.234 45.6123C106.933 45.7747 106.694 46.0117 106.518 46.3233C106.346 46.6348 106.26 47.0127 106.26 47.4568ZM116.679 44.4142V45.4085H112.722V44.4142H116.679ZM113.875 42.5846H115.048V49.863C115.048 50.1945 115.096 50.4431 115.193 50.6088C115.292 50.7712 115.418 50.8806 115.57 50.9369C115.726 50.9899 115.89 51.0164 116.063 51.0164C116.192 51.0164 116.298 51.0098 116.381 50.9966C116.464 50.98 116.53 50.9667 116.58 50.9568L116.818 52.0108C116.739 52.0406 116.628 52.0704 116.485 52.1003C116.343 52.1334 116.162 52.15 115.943 52.15C115.612 52.15 115.287 52.0787 114.969 51.9362C114.654 51.7937 114.392 51.5766 114.183 51.2849C113.978 50.9932 113.875 50.6253 113.875 50.1812V42.5846ZM121.765 44.4142V45.4085H117.808V44.4142H121.765ZM118.961 42.5846H120.134V49.863C120.134 50.1945 120.182 50.4431 120.278 50.6088C120.378 50.7712 120.504 50.8806 120.656 50.9369C120.812 50.9899 120.976 51.0164 121.149 51.0164C121.278 51.0164 121.384 51.0098 121.467 50.9966C121.55 50.98 121.616 50.9667 121.666 50.9568L121.904 52.0108C121.825 52.0406 121.714 52.0704 121.571 52.1003C121.429 52.1334 121.248 52.15 121.029 52.15C120.698 52.15 120.373 52.0787 120.055 51.9362C119.74 51.7937 119.478 51.5766 119.269 51.2849C119.064 50.9932 118.961 50.6253 118.961 50.1812V42.5846ZM123.53 54.9142V44.4142H124.663V45.6272H124.803C124.889 45.4947 125.008 45.3256 125.161 45.1201C125.316 44.9113 125.538 44.7257 125.827 44.5633C126.118 44.3976 126.513 44.3147 127.01 44.3147C127.653 44.3147 128.22 44.4755 128.71 44.797C129.201 45.1185 129.584 45.5742 129.859 46.1642C130.134 46.7541 130.271 47.4502 130.271 48.2522C130.271 49.061 130.134 49.7619 129.859 50.3552C129.584 50.9452 129.203 51.4026 128.715 51.7274C128.228 52.0489 127.666 52.2096 127.03 52.2096C126.539 52.2096 126.147 52.1284 125.852 51.966C125.557 51.8003 125.33 51.613 125.171 51.4042C125.011 51.1921 124.889 51.0164 124.803 50.8772H124.703V54.9142H123.53ZM124.683 48.2324C124.683 48.8091 124.768 49.3178 124.937 49.7586C125.106 50.1961 125.353 50.5392 125.678 50.7878C126.002 51.033 126.4 51.1557 126.871 51.1557C127.361 51.1557 127.771 51.0264 128.099 50.7679C128.43 50.506 128.679 50.1547 128.845 49.7139C129.014 49.2698 129.098 48.7759 129.098 48.2324C129.098 47.6954 129.015 47.2115 128.85 46.7807C128.687 46.3465 128.44 46.0034 128.109 45.7515C127.781 45.4963 127.368 45.3687 126.871 45.3687C126.394 45.3687 125.993 45.4897 125.668 45.7316C125.343 45.9703 125.098 46.305 124.932 46.7359C124.766 47.1635 124.683 47.6623 124.683 48.2324Z" fill="#4F5769"/>
<rect x="240" y="86.0505" width="180" height="1" fill="#F2F2F8"/>
<rect width="180" height="79.1011" transform="translate(240 7)" fill="white"/>
<path d="M273.233 41.8687H274.705L278.165 50.3204H278.284L281.744 41.8687H283.216V52.0505H282.062V44.3147H281.963L278.781 52.0505H277.668L274.486 44.3147H274.386V52.0505H273.233V41.8687ZM287.776 52.2295C287.292 52.2295 286.853 52.1384 286.459 51.9561C286.064 51.7705 285.751 51.5037 285.519 51.1557C285.287 50.8043 285.171 50.3801 285.171 49.8829C285.171 49.4454 285.257 49.0908 285.43 48.819C285.602 48.5439 285.832 48.3285 286.121 48.1727C286.409 48.0169 286.727 47.9009 287.075 47.8247C287.426 47.7451 287.779 47.6822 288.134 47.6358C288.598 47.5761 288.974 47.5314 289.263 47.5015C289.554 47.4684 289.766 47.4137 289.899 47.3375C290.035 47.2612 290.103 47.1287 290.103 46.9397V46.9C290.103 46.4094 289.969 46.0283 289.7 45.7565C289.435 45.4847 289.032 45.3488 288.492 45.3488C287.932 45.3488 287.493 45.4715 287.175 45.7167C286.856 45.962 286.633 46.2238 286.503 46.5022L285.39 46.1045C285.589 45.6405 285.854 45.2792 286.185 45.0207C286.52 44.7589 286.885 44.5766 287.279 44.4738C287.677 44.3678 288.068 44.3147 288.452 44.3147C288.698 44.3147 288.979 44.3446 289.297 44.4042C289.619 44.4606 289.929 44.5782 290.227 44.7572C290.529 44.9362 290.779 45.2063 290.978 45.5676C291.177 45.9289 291.276 46.4128 291.276 47.0193V52.0505H290.103V51.0164H290.043C289.964 51.1822 289.831 51.3595 289.645 51.5484C289.46 51.7373 289.213 51.8981 288.905 52.0307C288.596 52.1632 288.22 52.2295 287.776 52.2295ZM287.955 51.1755C288.419 51.1755 288.81 51.0844 289.128 50.9021C289.45 50.7198 289.692 50.4845 289.854 50.1961C290.02 49.9078 290.103 49.6045 290.103 49.2863V48.2125C290.053 48.2721 289.944 48.3268 289.775 48.3765C289.609 48.4229 289.417 48.4644 289.198 48.5008C288.983 48.534 288.772 48.5638 288.567 48.5903C288.364 48.6135 288.2 48.6334 288.074 48.65C287.769 48.6897 287.484 48.7544 287.219 48.8439C286.957 48.93 286.745 49.061 286.583 49.2366C286.424 49.409 286.344 49.6443 286.344 49.9426C286.344 50.3503 286.495 50.6585 286.797 50.8673C287.102 51.0728 287.488 51.1755 287.955 51.1755ZM294.591 47.4568V52.0505H293.418V44.4142H294.551V45.6074H294.651C294.83 45.2196 295.101 44.908 295.466 44.6727C295.83 44.4341 296.301 44.3147 296.878 44.3147C297.395 44.3147 297.847 44.4208 298.235 44.6329C298.623 44.8417 298.924 45.1599 299.14 45.5875C299.355 46.0117 299.463 46.5486 299.463 47.1983V52.0505H298.29V47.2778C298.29 46.6779 298.134 46.2106 297.822 45.8758C297.511 45.5378 297.083 45.3687 296.54 45.3687C296.165 45.3687 295.83 45.4499 295.536 45.6123C295.244 45.7747 295.013 46.0117 294.844 46.3233C294.675 46.6348 294.591 47.0127 294.591 47.4568ZM306.42 48.9284V44.4142H307.593V52.0505H306.42V50.7579H306.34C306.161 51.1457 305.883 51.4755 305.505 51.7473C305.127 52.0157 304.65 52.15 304.073 52.15C303.596 52.15 303.171 52.0456 302.8 51.8368C302.429 51.6246 302.137 51.3065 301.925 50.8822C301.713 50.4547 301.607 49.9161 301.607 49.2664V44.4142H302.78V49.1869C302.78 49.7437 302.936 50.1878 303.248 50.5193C303.563 50.8507 303.964 51.0164 304.451 51.0164C304.742 51.0164 305.039 50.9419 305.341 50.7927C305.646 50.6436 305.901 50.4149 306.106 50.1066C306.315 49.7984 306.42 49.4057 306.42 48.9284ZM311.989 52.2295C311.505 52.2295 311.066 52.1384 310.672 51.9561C310.277 51.7705 309.964 51.5037 309.732 51.1557C309.5 50.8043 309.384 50.3801 309.384 49.8829C309.384 49.4454 309.47 49.0908 309.642 48.819C309.815 48.5439 310.045 48.3285 310.333 48.1727C310.622 48.0169 310.94 47.9009 311.288 47.8247C311.639 47.7451 311.992 47.6822 312.347 47.6358C312.811 47.5761 313.187 47.5314 313.475 47.5015C313.767 47.4684 313.979 47.4137 314.112 47.3375C314.248 47.2612 314.316 47.1287 314.316 46.9397V46.9C314.316 46.4094 314.181 46.0283 313.913 45.7565C313.648 45.4847 313.245 45.3488 312.705 45.3488C312.145 45.3488 311.706 45.4715 311.387 45.7167C311.069 45.962 310.846 46.2238 310.716 46.5022L309.603 46.1045C309.801 45.6405 310.067 45.2792 310.398 45.0207C310.733 44.7589 311.097 44.5766 311.492 44.4738C311.89 44.3678 312.281 44.3147 312.665 44.3147C312.91 44.3147 313.192 44.3446 313.51 44.4042C313.832 44.4606 314.142 44.5782 314.44 44.7572C314.742 44.9362 314.992 45.2063 315.191 45.5676C315.39 45.9289 315.489 46.4128 315.489 47.0193V52.0505H314.316V51.0164H314.256C314.176 51.1822 314.044 51.3595 313.858 51.5484C313.673 51.7373 313.426 51.8981 313.118 52.0307C312.809 52.1632 312.433 52.2295 311.989 52.2295ZM312.168 51.1755C312.632 51.1755 313.023 51.0844 313.341 50.9021C313.663 50.7198 313.905 50.4845 314.067 50.1961C314.233 49.9078 314.316 49.6045 314.316 49.2863V48.2125C314.266 48.2721 314.157 48.3268 313.988 48.3765C313.822 48.4229 313.63 48.4644 313.411 48.5008C313.195 48.534 312.985 48.5638 312.779 48.5903C312.577 48.6135 312.413 48.6334 312.287 48.65C311.982 48.6897 311.697 48.7544 311.432 48.8439C311.17 48.93 310.958 49.061 310.796 49.2366C310.637 49.409 310.557 49.6443 310.557 49.9426C310.557 50.3503 310.708 50.6585 311.01 50.8673C311.315 51.0728 311.701 51.1755 312.168 51.1755ZM318.804 41.8687V52.0505H317.631V41.8687H318.804Z" fill="#616B7C"/>
<rect x="420" y="86.0505" width="200" height="1" fill="#F2F2F8"/>
<rect width="200" height="79.1011" transform="translate(420 7)" fill="white"/>
<path d="M456.375 52.1897C455.626 52.1897 454.988 51.9859 454.461 51.5782C453.934 51.1673 453.531 50.5723 453.253 49.7934C452.974 49.0112 452.835 48.0666 452.835 46.9596C452.835 45.8592 452.974 44.9196 453.253 44.1407C453.535 43.3585 453.939 42.7619 454.466 42.351C454.996 41.9367 455.633 41.7295 456.375 41.7295C457.117 41.7295 457.752 41.9367 458.279 42.351C458.809 42.7619 459.214 43.3585 459.492 44.1407C459.774 44.9196 459.915 45.8592 459.915 46.9596C459.915 48.0666 459.776 49.0112 459.497 49.7934C459.219 50.5723 458.816 51.1673 458.289 51.5782C457.762 51.9859 457.124 52.1897 456.375 52.1897ZM456.375 51.096C457.117 51.096 457.694 50.738 458.105 50.0221C458.516 49.3062 458.722 48.2854 458.722 46.9596C458.722 46.078 458.627 45.3273 458.438 44.7075C458.253 44.0877 457.984 43.6154 457.633 43.2906C457.285 42.9658 456.866 42.8034 456.375 42.8034C455.639 42.8034 455.064 43.1663 454.65 43.8922C454.236 44.6147 454.028 45.6372 454.028 46.9596C454.028 47.8413 454.121 48.5903 454.307 49.2068C454.492 49.8233 454.759 50.2923 455.107 50.6137C455.459 50.9352 455.881 51.096 456.375 51.096ZM465.125 52.1897C464.376 52.1897 463.738 51.9859 463.211 51.5782C462.684 51.1673 462.281 50.5723 462.003 49.7934C461.724 49.0112 461.585 48.0666 461.585 46.9596C461.585 45.8592 461.724 44.9196 462.003 44.1407C462.285 43.3585 462.689 42.7619 463.216 42.351C463.746 41.9367 464.383 41.7295 465.125 41.7295C465.867 41.7295 466.502 41.9367 467.029 42.351C467.559 42.7619 467.964 43.3585 468.242 44.1407C468.524 44.9196 468.665 45.8592 468.665 46.9596C468.665 48.0666 468.526 49.0112 468.247 49.7934C467.969 50.5723 467.566 51.1673 467.039 51.5782C466.512 51.9859 465.874 52.1897 465.125 52.1897ZM465.125 51.096C465.867 51.096 466.444 50.738 466.855 50.0221C467.266 49.3062 467.472 48.2854 467.472 46.9596C467.472 46.078 467.377 45.3273 467.188 44.7075C467.003 44.0877 466.734 43.6154 466.383 43.2906C466.035 42.9658 465.616 42.8034 465.125 42.8034C464.389 42.8034 463.814 43.1663 463.4 43.8922C462.986 44.6147 462.778 45.6372 462.778 46.9596C462.778 47.8413 462.871 48.5903 463.057 49.2068C463.242 49.8233 463.509 50.2923 463.857 50.6137C464.209 50.9352 464.631 51.096 465.125 51.096ZM471.429 50.748C471.184 50.748 470.973 50.6601 470.798 50.4845C470.622 50.3088 470.534 50.0984 470.534 49.8531C470.534 49.6078 470.622 49.3974 470.798 49.2217C470.973 49.046 471.184 48.9582 471.429 48.9582C471.674 48.9582 471.885 49.046 472.06 49.2217C472.236 49.3974 472.324 49.6078 472.324 49.8531C472.324 50.0155 472.282 50.1646 472.2 50.3005C472.12 50.4364 472.012 50.5458 471.876 50.6287C471.744 50.7082 471.595 50.748 471.429 50.748ZM471.429 45.5974C471.184 45.5974 470.973 45.5096 470.798 45.3339C470.622 45.1583 470.534 44.9478 470.534 44.7025C470.534 44.4573 470.622 44.2468 470.798 44.0711C470.973 43.8955 471.184 43.8076 471.429 43.8076C471.674 43.8076 471.885 43.8955 472.06 44.0711C472.236 44.2468 472.324 44.4573 472.324 44.7025C472.324 44.8649 472.282 45.0141 472.2 45.15C472.12 45.2859 472.012 45.3952 471.876 45.4781C471.744 45.5576 471.595 45.5974 471.429 45.5974ZM477.73 52.1897C476.981 52.1897 476.343 51.9859 475.816 51.5782C475.289 51.1673 474.887 50.5723 474.608 49.7934C474.33 49.0112 474.191 48.0666 474.191 46.9596C474.191 45.8592 474.33 44.9196 474.608 44.1407C474.89 43.3585 475.294 42.7619 475.821 42.351C476.352 41.9367 476.988 41.7295 477.73 41.7295C478.473 41.7295 479.108 41.9367 479.635 42.351C480.165 42.7619 480.569 43.3585 480.848 44.1407C481.129 44.9196 481.27 45.8592 481.27 46.9596C481.27 48.0666 481.131 49.0112 480.853 49.7934C480.574 50.5723 480.172 51.1673 479.645 51.5782C479.118 51.9859 478.48 52.1897 477.73 52.1897ZM477.73 51.096C478.473 51.096 479.05 50.738 479.461 50.0221C479.872 49.3062 480.077 48.2854 480.077 46.9596C480.077 46.078 479.983 45.3273 479.794 44.7075C479.608 44.0877 479.34 43.6154 478.988 43.2906C478.64 42.9658 478.221 42.8034 477.73 42.8034C476.995 42.8034 476.42 43.1663 476.005 43.8922C475.591 44.6147 475.384 45.6372 475.384 46.9596C475.384 47.8413 475.477 48.5903 475.662 49.2068C475.848 49.8233 476.115 50.2923 476.463 50.6137C476.814 50.9352 477.237 51.096 477.73 51.096ZM486.739 41.8687V52.0505H485.506V43.1613H485.446L482.961 44.8119V43.5591L485.506 41.8687H486.739ZM495.096 46.1244L494.042 46.4227C493.976 46.247 493.878 46.0763 493.749 45.9106C493.623 45.7416 493.451 45.6024 493.232 45.493C493.013 45.3836 492.733 45.3289 492.392 45.3289C491.924 45.3289 491.535 45.4367 491.223 45.6521C490.915 45.8642 490.761 46.1343 490.761 46.4625C490.761 46.7541 490.867 46.9845 491.079 47.1535C491.291 47.3226 491.623 47.4634 492.074 47.5761L493.207 47.8545C493.89 48.0202 494.399 48.2738 494.733 48.6152C495.068 48.9532 495.235 49.3891 495.235 49.9227C495.235 50.3602 495.109 50.7513 494.858 51.096C494.609 51.4407 494.261 51.7125 493.814 51.9113C493.366 52.1102 492.846 52.2096 492.252 52.2096C491.474 52.2096 490.829 52.0406 490.319 51.7025C489.808 51.3645 489.485 50.8706 489.349 50.221L490.463 49.9426C490.569 50.3536 490.769 50.6618 491.064 50.8673C491.363 51.0728 491.752 51.1755 492.233 51.1755C492.779 51.1755 493.214 51.0595 493.535 50.8275C493.86 50.5922 494.022 50.3105 494.022 49.9824C494.022 49.7172 493.93 49.4951 493.744 49.3162C493.558 49.1339 493.273 48.998 492.889 48.9085L491.616 48.6102C490.917 48.4445 490.403 48.1876 490.075 47.8396C489.75 47.4883 489.588 47.0491 489.588 46.5221C489.588 46.0913 489.709 45.7101 489.951 45.3787C490.196 45.0472 490.529 44.787 490.95 44.5981C491.374 44.4092 491.855 44.3147 492.392 44.3147C493.147 44.3147 493.741 44.4805 494.172 44.8119C494.606 45.1433 494.914 45.5808 495.096 46.1244Z" fill="#616B7C"/>
<rect x="-140" y="166.051" width="200" height="1" fill="#F2F2F8"/>
<rect width="200" height="79.1011" transform="translate(-140 87)" fill="white"/>
<rect x="60" y="166.051" width="180" height="1" fill="#F2F2F8"/>
<rect width="180" height="79.1011" transform="translate(60 87)" fill="white"/>
<rect x="92" y="110.551" width="84" height="32" rx="16" fill="#F2F2F8"/>
<path d="M110.555 126.124L109.501 126.423C109.435 126.247 109.337 126.076 109.208 125.911C109.082 125.742 108.91 125.602 108.691 125.493C108.472 125.384 108.192 125.329 107.851 125.329C107.383 125.329 106.994 125.437 106.682 125.652C106.374 125.864 106.22 126.134 106.22 126.462C106.22 126.754 106.326 126.984 106.538 127.154C106.75 127.323 107.082 127.463 107.532 127.576L108.666 127.855C109.349 128.02 109.858 128.274 110.192 128.615C110.527 128.953 110.694 129.389 110.694 129.923C110.694 130.36 110.568 130.751 110.317 131.096C110.068 131.441 109.72 131.712 109.273 131.911C108.825 132.11 108.305 132.21 107.711 132.21C106.933 132.21 106.288 132.041 105.778 131.703C105.267 131.364 104.944 130.871 104.808 130.221L105.922 129.943C106.028 130.354 106.228 130.662 106.523 130.867C106.822 131.073 107.211 131.176 107.692 131.176C108.238 131.176 108.673 131.06 108.994 130.828C109.319 130.592 109.481 130.31 109.481 129.982C109.481 129.717 109.389 129.495 109.203 129.316C109.017 129.134 108.732 128.998 108.348 128.908L107.075 128.61C106.376 128.444 105.862 128.188 105.534 127.84C105.209 127.488 105.047 127.049 105.047 126.522C105.047 126.091 105.168 125.71 105.41 125.379C105.655 125.047 105.988 124.787 106.409 124.598C106.833 124.409 107.314 124.315 107.851 124.315C108.606 124.315 109.2 124.48 109.631 124.812C110.065 125.143 110.373 125.581 110.555 126.124ZM115.563 132.21C114.847 132.21 114.23 132.041 113.713 131.703C113.196 131.364 112.799 130.899 112.52 130.306C112.242 129.712 112.103 129.034 112.103 128.272C112.103 127.497 112.245 126.812 112.53 126.219C112.819 125.622 113.22 125.157 113.733 124.822C114.25 124.484 114.854 124.315 115.543 124.315C116.08 124.315 116.564 124.414 116.995 124.613C117.426 124.812 117.779 125.09 118.054 125.448C118.329 125.806 118.499 126.224 118.566 126.701H117.392C117.303 126.353 117.104 126.045 116.796 125.776C116.491 125.505 116.08 125.369 115.563 125.369C115.105 125.369 114.704 125.488 114.36 125.727C114.018 125.962 113.752 126.295 113.559 126.726C113.37 127.154 113.276 127.656 113.276 128.232C113.276 128.822 113.369 129.336 113.554 129.774C113.743 130.211 114.008 130.551 114.35 130.793C114.694 131.035 115.099 131.156 115.563 131.156C115.868 131.156 116.145 131.103 116.393 130.997C116.642 130.89 116.852 130.738 117.025 130.539C117.197 130.34 117.319 130.102 117.392 129.823H118.566C118.499 130.274 118.335 130.68 118.074 131.041C117.815 131.399 117.472 131.684 117.044 131.896C116.62 132.105 116.126 132.21 115.563 132.21ZM121.454 127.457V132.051H120.281V121.869H121.454V125.607H121.554C121.733 125.213 122.001 124.9 122.359 124.668C122.72 124.432 123.201 124.315 123.801 124.315C124.321 124.315 124.777 124.419 125.168 124.628C125.559 124.833 125.862 125.15 126.078 125.578C126.297 126.002 126.406 126.542 126.406 127.198V132.051H125.233V127.278C125.233 126.671 125.075 126.202 124.76 125.871C124.449 125.536 124.016 125.369 123.463 125.369C123.078 125.369 122.734 125.45 122.429 125.612C122.127 125.775 121.888 126.012 121.713 126.323C121.54 126.635 121.454 127.013 121.454 127.457ZM131.754 132.21C131.018 132.21 130.384 132.047 129.85 131.722C129.32 131.394 128.91 130.937 128.622 130.35C128.337 129.76 128.194 129.074 128.194 128.292C128.194 127.51 128.337 126.82 128.622 126.224C128.91 125.624 129.311 125.157 129.825 124.822C130.342 124.484 130.945 124.315 131.635 124.315C132.032 124.315 132.425 124.381 132.813 124.514C133.201 124.646 133.554 124.862 133.872 125.16C134.19 125.455 134.444 125.846 134.633 126.333C134.822 126.82 134.916 127.42 134.916 128.133V128.63H129.03V127.616H133.723C133.723 127.185 133.637 126.801 133.464 126.462C133.295 126.124 133.053 125.858 132.738 125.662C132.427 125.466 132.059 125.369 131.635 125.369C131.167 125.369 130.763 125.485 130.422 125.717C130.084 125.945 129.823 126.244 129.641 126.612C129.459 126.98 129.368 127.374 129.368 127.795V128.471C129.368 129.048 129.467 129.537 129.666 129.938C129.868 130.335 130.148 130.639 130.506 130.847C130.864 131.053 131.28 131.156 131.754 131.156C132.062 131.156 132.341 131.113 132.589 131.026C132.841 130.937 133.058 130.804 133.241 130.629C133.423 130.45 133.564 130.228 133.663 129.962L134.797 130.281C134.677 130.665 134.477 131.003 134.195 131.295C133.913 131.583 133.565 131.809 133.151 131.971C132.737 132.13 132.271 132.21 131.754 132.21ZM139.584 132.21C138.948 132.21 138.386 132.049 137.899 131.727C137.412 131.403 137.031 130.945 136.756 130.355C136.48 129.762 136.343 129.061 136.343 128.252C136.343 127.45 136.48 126.754 136.756 126.164C137.031 125.574 137.413 125.118 137.904 124.797C138.394 124.475 138.961 124.315 139.604 124.315C140.101 124.315 140.494 124.398 140.782 124.563C141.074 124.726 141.296 124.911 141.449 125.12C141.604 125.326 141.725 125.495 141.812 125.627H141.911V121.869H143.084V132.051H141.951V130.877H141.812C141.725 131.016 141.603 131.192 141.444 131.404C141.285 131.613 141.058 131.8 140.763 131.966C140.468 132.128 140.075 132.21 139.584 132.21ZM139.743 131.156C140.214 131.156 140.612 131.033 140.937 130.788C141.261 130.539 141.508 130.196 141.677 129.759C141.846 129.318 141.931 128.809 141.931 128.232C141.931 127.662 141.848 127.163 141.682 126.736C141.517 126.305 141.271 125.97 140.947 125.732C140.622 125.49 140.221 125.369 139.743 125.369C139.246 125.369 138.832 125.496 138.501 125.752C138.172 126.003 137.925 126.346 137.76 126.781C137.597 127.212 137.516 127.695 137.516 128.232C137.516 128.776 137.599 129.27 137.765 129.714C137.934 130.155 138.182 130.506 138.51 130.768C138.842 131.026 139.253 131.156 139.743 131.156ZM150.209 128.928V124.414H151.382V132.051H150.209V130.758H150.129C149.95 131.146 149.672 131.475 149.294 131.747C148.916 132.016 148.439 132.15 147.862 132.15C147.385 132.15 146.961 132.046 146.589 131.837C146.218 131.625 145.926 131.306 145.714 130.882C145.502 130.455 145.396 129.916 145.396 129.266V124.414H146.569V129.187C146.569 129.744 146.725 130.188 147.037 130.519C147.352 130.851 147.753 131.016 148.24 131.016C148.532 131.016 148.828 130.942 149.13 130.793C149.435 130.644 149.69 130.415 149.895 130.107C150.104 129.798 150.209 129.406 150.209 128.928ZM154.704 121.869V132.051H153.531V121.869H154.704ZM160.055 132.21C159.319 132.21 158.684 132.047 158.151 131.722C157.62 131.394 157.211 130.937 156.923 130.35C156.638 129.76 156.495 129.074 156.495 128.292C156.495 127.51 156.638 126.82 156.923 126.224C157.211 125.624 157.612 125.157 158.126 124.822C158.643 124.484 159.246 124.315 159.936 124.315C160.333 124.315 160.726 124.381 161.114 124.514C161.502 124.646 161.855 124.862 162.173 125.16C162.491 125.455 162.744 125.846 162.933 126.333C163.122 126.82 163.217 127.42 163.217 128.133V128.63H157.33V127.616H162.024C162.024 127.185 161.937 126.801 161.765 126.462C161.596 126.124 161.354 125.858 161.039 125.662C160.728 125.466 160.36 125.369 159.936 125.369C159.468 125.369 159.064 125.485 158.722 125.717C158.384 125.945 158.124 126.244 157.942 126.612C157.76 126.98 157.669 127.374 157.669 127.795V128.471C157.669 129.048 157.768 129.537 157.967 129.938C158.169 130.335 158.449 130.639 158.807 130.847C159.165 131.053 159.581 131.156 160.055 131.156C160.363 131.156 160.642 131.113 160.89 131.026C161.142 130.937 161.359 130.804 161.541 130.629C161.724 130.45 161.865 130.228 161.964 129.962L163.097 130.281C162.978 130.665 162.778 131.003 162.496 131.295C162.214 131.583 161.866 131.809 161.452 131.971C161.038 132.13 160.572 132.21 160.055 132.21Z" fill="#4F5769"/>
<rect x="240" y="166.051" width="180" height="1" fill="#F2F2F8"/>
<rect width="180" height="79.1011" transform="translate(240 87)" fill="white"/>
<path d="M281.426 125.051H280.193C280.12 124.696 279.993 124.384 279.81 124.116C279.631 123.847 279.413 123.622 279.154 123.44C278.899 123.254 278.616 123.115 278.304 123.022C277.992 122.929 277.668 122.883 277.33 122.883C276.713 122.883 276.155 123.039 275.654 123.35C275.157 123.662 274.761 124.121 274.466 124.727C274.174 125.334 274.028 126.078 274.028 126.96C274.028 127.841 274.174 128.585 274.466 129.192C274.761 129.798 275.157 130.257 275.654 130.569C276.155 130.881 276.713 131.036 277.33 131.036C277.668 131.036 277.992 130.99 278.304 130.897C278.616 130.804 278.899 130.667 279.154 130.484C279.413 130.299 279.631 130.072 279.81 129.803C279.993 129.532 280.12 129.22 280.193 128.869H281.426C281.333 129.389 281.164 129.855 280.919 130.266C280.674 130.677 280.369 131.026 280.004 131.315C279.64 131.6 279.23 131.817 278.776 131.966C278.326 132.115 277.843 132.19 277.33 132.19C276.461 132.19 275.689 131.978 275.013 131.553C274.337 131.129 273.805 130.526 273.417 129.744C273.029 128.962 272.835 128.033 272.835 126.96C272.835 125.886 273.029 124.958 273.417 124.176C273.805 123.393 274.337 122.79 275.013 122.366C275.689 121.942 276.461 121.73 277.33 121.73C277.843 121.73 278.326 121.804 278.776 121.953C279.23 122.102 279.64 122.321 280.004 122.609C280.369 122.895 280.674 123.243 280.919 123.654C281.164 124.061 281.333 124.527 281.426 125.051ZM283.419 132.051V121.869H284.651V130.957H289.384V132.051H283.419ZM292.526 121.869V132.051H291.294V121.869H292.526Z" fill="#616B7C"/>
<rect x="420" y="166.051" width="200" height="1" fill="#F2F2F8"/>
<rect width="200" height="79.1011" transform="translate(420 87)" fill="white"/>
<path d="M456.375 132.19C455.626 132.19 454.988 131.986 454.461 131.578C453.934 131.167 453.531 130.572 453.253 129.793C452.974 129.011 452.835 128.067 452.835 126.96C452.835 125.859 452.974 124.92 453.253 124.141C453.535 123.359 453.939 122.762 454.466 122.351C454.996 121.937 455.633 121.73 456.375 121.73C457.117 121.73 457.752 121.937 458.279 122.351C458.809 122.762 459.214 123.359 459.492 124.141C459.774 124.92 459.915 125.859 459.915 126.96C459.915 128.067 459.776 129.011 459.497 129.793C459.219 130.572 458.816 131.167 458.289 131.578C457.762 131.986 457.124 132.19 456.375 132.19ZM456.375 131.096C457.117 131.096 457.694 130.738 458.105 130.022C458.516 129.306 458.722 128.285 458.722 126.96C458.722 126.078 458.627 125.327 458.438 124.707C458.253 124.088 457.984 123.615 457.633 123.291C457.285 122.966 456.866 122.803 456.375 122.803C455.639 122.803 455.064 123.166 454.65 123.892C454.236 124.615 454.028 125.637 454.028 126.96C454.028 127.841 454.121 128.59 454.307 129.207C454.492 129.823 454.759 130.292 455.107 130.614C455.459 130.935 455.881 131.096 456.375 131.096ZM465.384 121.869V132.051H464.151V123.161H464.091L461.605 124.812V123.559L464.151 121.869H465.384ZM469.187 130.748C468.942 130.748 468.731 130.66 468.555 130.484C468.38 130.309 468.292 130.098 468.292 129.853C468.292 129.608 468.38 129.397 468.555 129.222C468.731 129.046 468.942 128.958 469.187 128.958C469.432 128.958 469.643 129.046 469.818 129.222C469.994 129.397 470.082 129.608 470.082 129.853C470.082 130.015 470.04 130.165 469.957 130.301C469.878 130.436 469.77 130.546 469.634 130.629C469.502 130.708 469.353 130.748 469.187 130.748ZM469.187 125.597C468.942 125.597 468.731 125.51 468.555 125.334C468.38 125.158 468.292 124.948 468.292 124.703C468.292 124.457 468.38 124.247 468.555 124.071C468.731 123.895 468.942 123.808 469.187 123.808C469.432 123.808 469.643 123.895 469.818 124.071C469.994 124.247 470.082 124.457 470.082 124.703C470.082 124.865 470.04 125.014 469.957 125.15C469.878 125.286 469.77 125.395 469.634 125.478C469.502 125.558 469.353 125.597 469.187 125.597ZM475.488 132.19C474.739 132.19 474.101 131.986 473.574 131.578C473.047 131.167 472.645 130.572 472.366 129.793C472.088 129.011 471.949 128.067 471.949 126.96C471.949 125.859 472.088 124.92 472.366 124.141C472.648 123.359 473.052 122.762 473.579 122.351C474.109 121.937 474.746 121.73 475.488 121.73C476.231 121.73 476.865 121.937 477.392 122.351C477.923 122.762 478.327 123.359 478.605 124.141C478.887 124.92 479.028 125.859 479.028 126.96C479.028 128.067 478.889 129.011 478.61 129.793C478.332 130.572 477.929 131.167 477.402 131.578C476.875 131.986 476.237 132.19 475.488 132.19ZM475.488 131.096C476.231 131.096 476.807 130.738 477.218 130.022C477.629 129.306 477.835 128.285 477.835 126.96C477.835 126.078 477.74 125.327 477.551 124.707C477.366 124.088 477.097 123.615 476.746 123.291C476.398 122.966 475.979 122.803 475.488 122.803C474.752 122.803 474.177 123.166 473.763 123.892C473.349 124.615 473.142 125.637 473.142 126.96C473.142 127.841 473.234 128.59 473.42 129.207C473.606 129.823 473.873 130.292 474.221 130.614C474.572 130.935 474.994 131.096 475.488 131.096ZM484.099 132.19C483.516 132.19 482.99 132.074 482.523 131.842C482.056 131.61 481.681 131.292 481.4 130.887C481.118 130.483 480.964 130.022 480.937 129.505H482.13C482.177 129.966 482.386 130.347 482.757 130.649C483.131 130.947 483.579 131.096 484.099 131.096C484.517 131.096 484.888 130.998 485.213 130.803C485.541 130.607 485.798 130.339 485.983 129.997C486.172 129.653 486.267 129.263 486.267 128.829C486.267 128.385 486.169 127.989 485.973 127.641C485.781 127.289 485.516 127.013 485.178 126.81C484.84 126.608 484.454 126.506 484.02 126.502C483.708 126.499 483.388 126.547 483.06 126.646C482.732 126.743 482.462 126.867 482.25 127.019L481.096 126.88L481.713 121.869H487.002V122.962H482.747L482.389 125.965H482.449C482.657 125.8 482.919 125.662 483.234 125.553C483.549 125.443 483.877 125.389 484.218 125.389C484.842 125.389 485.397 125.538 485.884 125.836C486.374 126.131 486.759 126.535 487.037 127.049C487.319 127.563 487.46 128.149 487.46 128.809C487.46 129.459 487.314 130.039 487.022 130.549C486.734 131.056 486.336 131.457 485.829 131.752C485.322 132.044 484.745 132.19 484.099 132.19ZM489.455 132.051V124.414H490.588V125.607H490.688C490.847 125.2 491.104 124.883 491.458 124.658C491.813 124.429 492.239 124.315 492.736 124.315C493.24 124.315 493.659 124.429 493.994 124.658C494.332 124.883 494.595 125.2 494.784 125.607H494.864C495.059 125.213 495.353 124.9 495.744 124.668C496.135 124.432 496.604 124.315 497.151 124.315C497.834 124.315 498.392 124.529 498.826 124.956C499.26 125.38 499.477 126.042 499.477 126.94V132.051H498.304V126.94C498.304 126.376 498.15 125.974 497.842 125.732C497.534 125.49 497.171 125.369 496.753 125.369C496.216 125.369 495.8 125.531 495.505 125.856C495.21 126.177 495.063 126.585 495.063 127.079V132.051H493.869V126.82C493.869 126.386 493.729 126.037 493.447 125.771C493.165 125.503 492.802 125.369 492.358 125.369C492.053 125.369 491.768 125.45 491.503 125.612C491.241 125.775 491.029 126 490.867 126.288C490.708 126.574 490.628 126.903 490.628 127.278V132.051H489.455Z" fill="#616B7C"/>
<rect width="200" height="79.1011" transform="translate(-140 167)" fill="white"/>
<rect width="180" height="79.1011" transform="translate(60 167)" fill="white"/>
<rect width="180" height="79.1011" transform="translate(240 167)" fill="white"/>
<rect width="200" height="79.1011" transform="translate(420 167)" fill="white"/>
</g>
<rect x="0.5" y="0.500488" width="481" height="180" rx="16.5" stroke="#F2F2F8"/>
<defs>
<clipPath id="clip0_1158_81621">
<rect x="1" y="1.00049" width="480" height="179" rx="16" fill="white"/>
</clipPath>
</defs>
</svg>
