<svg width="24" height="24" viewBox="0 0 24 24" fill="none" xmlns="http://www.w3.org/2000/svg">
<path d="M18.0162 21H5.98378C4.33587 21 3 19.6641 3 18.0162V5.98378C3 4.33587 4.33587 3 5.98378 3H18.0162C19.6641 3 21 4.33587 21 5.98378V18.0162C21 19.6641 19.6641 21 18.0162 21Z" fill="#00AEEF"/>
<path d="M12.2123 10.5786C11.2758 10.5786 10.4609 11.1054 10.0505 11.8788C9.63991 11.1054 8.82541 10.5786 7.88828 10.5786C7.35853 10.578 6.84298 10.7498 6.41945 11.0681V9.00628C6.41709 8.87811 6.36446 8.756 6.27291 8.66627C6.18135 8.57655 6.0582 8.52639 5.93001 8.52661C5.66268 8.52661 5.44752 8.73987 5.44141 9.00628V13.0663H5.4419C5.46348 14.3993 6.54981 15.4732 7.88828 15.4732C8.82541 15.4732 9.63991 14.9459 10.0505 14.1733C10.4609 14.9459 11.2758 15.4732 12.2123 15.4732C13.5634 15.4732 14.6595 14.3776 14.6595 13.0254C14.6595 11.6739 13.5634 10.5786 12.2123 10.5786ZM7.88828 14.4934C7.07751 14.4934 6.41945 13.8366 6.41945 13.0258C6.41945 12.2152 7.07751 11.5583 7.88828 11.5583C8.69899 11.5583 9.35564 12.2152 9.35564 13.0254C9.35564 13.8364 8.69899 14.4934 7.88828 14.4934ZM12.2123 14.4934C11.4013 14.4934 10.7437 13.8364 10.7437 13.0254C10.7437 12.2152 11.4013 11.5583 12.2123 11.5583C13.0229 11.5583 13.6801 12.2152 13.6801 13.0254C13.6801 13.8364 13.0229 14.4934 12.2123 14.4934Z" fill="white"/>
<path d="M18.4568 14.6538L17.1266 13.0222L18.4584 11.3875C18.6268 11.1718 18.5785 10.8707 18.346 10.7107C18.1133 10.5494 17.7868 10.5907 17.6067 10.7999V10.7997L16.4609 12.2039L15.3161 10.7997V10.7999C15.1379 10.5907 14.8093 10.5494 14.5773 10.7107C14.3453 10.8708 14.2968 11.1718 14.466 11.3875H14.4655L15.795 13.0222L14.4655 14.6538H14.466C14.2968 14.8702 14.3453 15.1704 14.5773 15.331C14.8093 15.4917 15.1379 15.4508 15.3161 15.2412L16.4609 13.8389L17.6051 15.2412C17.7854 15.4508 18.1118 15.4917 18.3445 15.331C18.577 15.1704 18.6255 14.8702 18.4568 14.6538Z" fill="white"/>
</svg>
