<svg width="24" height="24" viewBox="0 0 24 24" fill="none" xmlns="http://www.w3.org/2000/svg">
<path d="M3 9.17143C3 7.01123 3 5.93112 3.4204 5.10604C3.7902 4.38027 4.38027 3.7902 5.10604 3.4204C5.93112 3 7.01123 3 9.17143 3H14.8286C16.9888 3 18.0689 3 18.894 3.4204C19.6197 3.7902 20.2098 4.38027 20.5796 5.10604C21 5.93112 21 7.01123 21 9.17143V14.8286C21 16.9888 21 18.0689 20.5796 18.894C20.2098 19.6197 19.6197 20.2098 18.894 20.5796C18.0689 21 16.9888 21 14.8286 21H9.17143C7.01123 21 5.93112 21 5.10604 20.5796C4.38027 20.2098 3.7902 19.6197 3.4204 18.894C3 18.0689 3 16.9888 3 14.8286V9.17143Z" fill="url(#paint0_linear_504_11905)"/>
<path d="M17.2661 8.26667C16.3028 7.46667 15.1468 7.06667 13.9266 7L13.7339 7.2C14.8257 7.46667 15.789 8 16.6881 8.73333C15.5963 8.13333 14.3761 7.73333 13.0917 7.6C12.7064 7.53333 12.3853 7.53333 12 7.53333C11.6147 7.53333 11.2936 7.53333 10.9083 7.6C9.62385 7.73333 8.40367 8.13333 7.31193 8.73333C8.21101 8 9.17431 7.46667 10.2661 7.2L10.0734 7C8.85321 7.06667 7.69725 7.46667 6.73395 8.26667C5.6422 10.4 5.06422 12.8 5 15.2667C5.9633 16.3333 7.31193 17 8.72477 17C8.72477 17 9.17431 16.4667 9.49541 16C8.66055 15.8 7.88991 15.3333 7.37615 14.6C7.82569 14.8667 8.27523 15.1333 8.72477 15.3333C9.30275 15.6 9.88073 15.7333 10.4587 15.8667C10.9725 15.9333 11.4862 16 12 16C12.5138 16 13.0275 15.9333 13.5413 15.8667C14.1193 15.7333 14.6972 15.6 15.2752 15.3333C15.7248 15.1333 16.1743 14.8667 16.6239 14.6C16.1101 15.3333 15.3394 15.8 14.5046 16C14.8257 16.4667 15.2752 17 15.2752 17C16.6881 17 18.0367 16.3333 19 15.2667C18.9358 12.8 18.3578 10.4 17.2661 8.26667ZM9.88073 14.0667C9.23853 14.0667 8.66055 13.4667 8.66055 12.7333C8.66055 12 9.23853 11.4 9.88073 11.4C10.5229 11.4 11.1009 12 11.1009 12.7333C11.1009 13.4667 10.5229 14.0667 9.88073 14.0667ZM14.1193 14.0667C13.4771 14.0667 12.8991 13.4667 12.8991 12.7333C12.8991 12 13.4771 11.4 14.1193 11.4C14.7615 11.4 15.3394 12 15.3394 12.7333C15.3394 13.4667 14.7615 14.0667 14.1193 14.0667Z" fill="white"/>
<defs>
<linearGradient id="paint0_linear_504_11905" x1="12" y1="3" x2="12" y2="21" gradientUnits="userSpaceOnUse">
<stop stop-color="#687EC9"/>
<stop offset="1" stop-color="#5971C3"/>
</linearGradient>
</defs>
</svg>
