<svg width="24" height="24" viewBox="0 0 24 24" fill="none" xmlns="http://www.w3.org/2000/svg">
<path fill-rule="evenodd" clip-rule="evenodd" d="M11.6666 12C11.6666 10.159 13.159 8.66663 15 8.66663C16.8409 8.66663 18.3333 10.159 18.3333 12C18.3333 13.8409 16.8409 15.3333 15 15.3333C13.159 15.3333 11.6666 13.8409 11.6666 12Z" fill="#1ABCFE"/>
<path fill-rule="evenodd" clip-rule="evenodd" d="M5 18.6667C5 16.8258 6.49238 15.3334 8.33333 15.3334H11.6667V18.6667C11.6667 20.5077 10.1743 22 8.33333 22C6.49238 22 5 20.5077 5 18.6667Z" fill="#0ACF83"/>
<path fill-rule="evenodd" clip-rule="evenodd" d="M11.6666 2V8.66667H15C16.8409 8.66667 18.3333 7.17428 18.3333 5.33333C18.3333 3.49238 16.8409 2 15 2H11.6666Z" fill="#FF7262"/>
<path fill-rule="evenodd" clip-rule="evenodd" d="M5 5.33333C5 7.17428 6.49238 8.66667 8.33333 8.66667H11.6667V2H8.33333C6.49238 2 5 3.49238 5 5.33333Z" fill="#F24E1E"/>
<path fill-rule="evenodd" clip-rule="evenodd" d="M5 12C5 13.8409 6.49238 15.3333 8.33333 15.3333H11.6667V8.66663H8.33333C6.49238 8.66663 5 10.159 5 12Z" fill="#A259FF"/>
</svg>
