<svg width="24" height="24" viewBox="0 0 24 24" fill="none" xmlns="http://www.w3.org/2000/svg">
<path d="M12.1835 6.47996C13.9079 6.47996 15.0712 7.20996 15.7344 7.82L18.3263 5.33999C16.7345 3.89 14.663 3 12.1835 3C8.5916 3 5.48956 5.01998 3.97937 7.95994L6.94874 10.22C7.6937 8.04998 9.75491 6.47996 12.1835 6.47996Z" fill="#EB4335"/>
<path d="M6.95913 13.7801C6.76525 13.2201 6.65305 12.62 6.65305 12.0001C6.65305 11.38 6.76525 10.78 6.94893 10.2201L6.94379 10.1008L4.07348 7.91626L3.97956 7.96004C3.35715 9.18005 3 10.5501 3 12.0001C3 13.45 3.35715 14.82 3.97956 16.04L6.95913 13.7801Z" fill="#FBBC05"/>
<path d="M12.1834 21C14.6629 21 16.7445 20.1999 18.265 18.8199L15.367 16.6199C14.5915 17.1499 13.5507 17.5199 12.1834 17.5199C9.75488 17.5199 7.69368 15.9499 6.95892 13.7799L6.85122 13.7889L4.01644 15.9389L3.97937 16.0399C5.48955 18.9799 8.59157 21 12.1834 21Z" fill="#34A853"/>
<path d="M21.0004 12.1997C21.0004 11.4597 20.9391 10.9197 20.8065 10.3597H12.1841V13.6997H17.2452C17.1432 14.5297 16.5922 15.7797 15.3677 16.6197L15.3506 16.7315L18.0768 18.8012L18.2657 18.8197C20.0003 17.2497 21.0004 14.9397 21.0004 12.1997Z" fill="#4285F4"/>
</svg>
