<svg width="24" height="24" viewBox="0 0 24 24" fill="none" xmlns="http://www.w3.org/2000/svg">
<rect x="3" y="3" width="18" height="18" rx="6" fill="#1275B1"/>
<path d="M9.41237 8.20868C9.41237 8.87621 8.87234 9.41736 8.20619 9.41736C7.54003 9.41736 7 8.87621 7 8.20868C7 7.54114 7.54003 7 8.20619 7C8.87234 7 9.41237 7.54114 9.41237 8.20868Z" fill="white"/>
<path d="M7.16495 10.3058H9.2268V17H7.16495V10.3058Z" fill="white"/>
<path d="M12.5464 10.3058H10.4845V17H12.5464C12.5464 17 12.5464 14.8926 12.5464 13.5749C12.5464 12.784 12.7984 11.9897 13.8041 11.9897C14.9407 11.9897 14.9338 13.0247 14.9285 13.8265C14.9216 14.8746 14.9381 15.9442 14.9381 17H17V13.4669C16.9825 11.211 16.4339 10.1715 14.6289 10.1715C13.5569 10.1715 12.8925 10.6929 12.5464 11.1646V10.3058Z" fill="white"/>
</svg>
