<svg width="24" height="24" viewBox="0 0 24 24" fill="none" xmlns="http://www.w3.org/2000/svg">
<path d="M17.7413 7.58116C17.957 6.17435 17.7413 5.23647 16.9861 4.37074C16.1589 3.39679 14.6486 3 12.7066 3H7.13258C6.737 3 6.41335 3.28858 6.34143 3.68537L4.00392 18.4749C3.96796 18.7635 4.18373 19.016 4.47142 19.016H7.92374L7.67201 20.5311C7.63604 20.7836 7.81585 21 8.10355 21H11.0164C11.3761 21 11.6637 20.7475 11.6997 20.4228L12.3111 16.5992C12.347 16.2745 12.6707 16.022 12.9943 16.022H13.4259C16.2309 16.022 18.4605 14.8677 19.1078 11.5491C19.3595 10.1784 19.2516 8.98798 18.5324 8.19439C18.3166 7.94188 18.0649 7.76152 17.7413 7.58116Z" fill="#009CDE"/>
<path d="M17.7413 7.58116C17.957 6.17435 17.7413 5.23647 16.9861 4.37074C16.1589 3.39679 14.6486 3 12.7066 3H7.13258C6.737 3 6.41335 3.28858 6.34143 3.68537L4.00392 18.4749C3.96796 18.7635 4.18373 19.016 4.47142 19.016H7.92374L8.75085 13.6774C8.82278 13.2806 9.14643 12.992 9.54201 12.992H11.1962C14.4328 12.992 16.9501 11.6934 17.6693 7.86974C17.7053 7.79759 17.7053 7.68938 17.7413 7.58116Z" fill="#012169"/>
<path d="M9.72182 7.61723C9.75778 7.36473 10.0814 7.04008 10.4051 7.04008H14.7924C15.2959 7.04008 15.7993 7.07615 16.2309 7.1483C16.6264 7.22044 17.3457 7.4008 17.7053 7.61723C17.9211 6.21042 17.7053 5.27254 16.9501 4.40681C16.1589 3.39679 14.6486 3 12.7066 3H7.13258C6.737 3 6.41335 3.28858 6.34143 3.68537L4.00392 18.4749C3.96796 18.7635 4.18373 19.016 4.47142 19.016H7.92374L9.72182 7.61723Z" fill="#003087"/>
</svg>
