<svg width="24" height="24" viewBox="0 0 24 24" fill="none" xmlns="http://www.w3.org/2000/svg">
<ellipse cx="8.46429" cy="8.14286" rx="5.46429" ry="5.14286" fill="#184AA9"/>
<circle cx="15.8571" cy="15.8571" r="5.14286" fill="#2173F0"/>
<circle cx="12" cy="12" r="8.35714" fill="url(#paint0_linear_504_11889)"/>
<path d="M12.0443 7.5C13.4029 7.5 15.2143 8.14286 14.7615 9C14.1425 10.1715 12.95 9 12.0443 9C11.1385 9 10.6857 9.42857 10.6857 9.85714C10.6857 10.2857 10.9121 10.7143 12.0443 11.1429C13.1764 11.5714 15.2143 12.2143 15.2143 13.9286C15.2143 15.6429 13.6293 16.5 11.5914 16.5C9.76582 16.5 8.42131 15.6429 8.87418 14.7857C9.39498 13.8 10.6857 15 11.5914 15C12.4971 15 13.4029 14.7857 13.4029 13.9286C13.4029 13.0714 12.0442 12.8571 11.1385 12.4286C10.0063 11.8928 8.87416 11.3571 8.87416 9.85714C8.87416 8.35714 10.6857 7.5 12.0443 7.5Z" fill="white"/>
<defs>
<linearGradient id="paint0_linear_504_11889" x1="5.49997" y1="6.89282" x2="18.0357" y2="17.3392" gradientUnits="userSpaceOnUse">
<stop stop-color="#297AC0"/>
<stop offset="1" stop-color="#48B0F9"/>
</linearGradient>
</defs>
</svg>
