<svg width="24" height="24" viewBox="0 0 24 24" fill="none" xmlns="http://www.w3.org/2000/svg">
<path d="M18.2693 11.3075C19.2251 11.3075 20 10.5327 20 9.5769C20 8.6211 19.2251 7.84628 18.2693 7.84628C17.3134 7.84628 16.5384 8.62117 16.5384 9.57705V11.3075H18.2693ZM13.423 11.3075C14.3789 11.3075 15.1538 10.5326 15.1538 9.57675V4.73089C15.1538 3.77501 14.3789 3.00012 13.423 3.00012C12.4672 3.00012 11.6923 3.77501 11.6923 4.73089V9.57675C11.6923 10.5326 12.4672 11.3075 13.423 11.3075Z" fill="#2EB67D"/>
<path d="M3.73067 12.6925C2.77487 12.6925 2.00005 13.4673 2.00005 14.4231C2.00005 15.3789 2.77495 16.1537 3.73074 16.1537C4.68662 16.1537 5.46158 15.3788 5.46158 14.423V12.6925H3.73067ZM8.57697 12.6925C7.62109 12.6925 6.8462 13.4674 6.8462 14.4233V19.2691C6.8462 20.225 7.62109 20.9999 8.57697 20.9999C9.53285 20.9999 10.3077 20.225 10.3077 19.2691V14.4233C10.3077 13.4674 9.53285 12.6925 8.57697 12.6925Z" fill="#E01E5A"/>
<path d="M11.6926 19.2693C11.6926 20.2251 12.4674 21 13.4232 21C14.379 21 15.1538 20.2251 15.1538 19.2693C15.1538 18.3134 14.379 17.5384 13.4231 17.5384L11.6926 17.5384L11.6926 19.2693ZM11.6926 14.423C11.6926 15.3789 12.4675 16.1538 13.4234 16.1538L18.2692 16.1538C19.2251 16.1538 20 15.3789 20 14.423C20 13.4672 19.2251 12.6923 18.2692 12.6923L13.4234 12.6923C12.4675 12.6923 11.6926 13.4672 11.6926 14.423Z" fill="#ECB22E"/>
<path d="M10.3074 4.73067C10.3074 3.77487 9.53257 3.00005 8.57678 3.00005C7.62098 3.00005 6.84616 3.77495 6.84616 4.73074C6.84616 5.68662 7.62105 6.46158 8.57693 6.46158L10.3074 6.46158L10.3074 4.73067ZM10.3074 9.57697C10.3074 8.62109 9.5325 7.8462 8.57663 7.8462L3.73077 7.8462C2.77489 7.8462 2 8.62109 2 9.57697C2 10.5328 2.77489 11.3077 3.73077 11.3077L8.57663 11.3077C9.53251 11.3077 10.3074 10.5328 10.3074 9.57697Z" fill="#36C5F0"/>
</svg>
