<svg width="24" height="24" viewBox="0 0 24 24" fill="none" xmlns="http://www.w3.org/2000/svg">
<path d="M15.4082 2.78478H12.9664V15.2122C12.9664 15.6491 12.9664 16.0703 12.815 16.4912C12.5683 17.1629 12.0438 17.7694 11.3446 18.0385C10.295 18.4426 9.47458 18.3978 8.49583 17.778C8.25286 17.6177 8.03918 17.42 7.8634 17.1929C8.69728 17.6192 9.44365 17.6118 10.3683 17.2561C11.067 16.987 11.5924 16.3804 11.8382 15.7084C11.9921 15.2887 11.99 14.8662 11.99 14.4298V2H15.3618C15.3618 2 15.3239 2.30892 15.4082 2.78478ZM20.0256 6.4934V7.18496C19.6298 7.0946 19.2461 6.96098 18.882 6.78672C18.1767 6.44932 17.6273 5.89974 17.5199 5.78857C17.6446 5.86702 17.7739 5.9384 17.9073 6.00232C18.7648 6.41266 19.6093 6.53513 20.0256 6.4934Z" fill="#69C9D0"/>
<path d="M7.88474 10.0939C7.2595 10.3253 6.67883 10.6548 6.16652 11.069C5.58579 11.5501 5.09667 12.1242 4.72098 12.7657C4.57895 12.9998 4.04175 13.9378 3.97623 15.4649C3.9392 16.3304 4.21023 17.224 4.33924 17.5961C4.3391 17.597 4.3391 17.598 4.33924 17.5989C4.42064 17.8111 4.73848 18.5615 5.25899 19.1981C5.41019 19.3826 5.57229 19.5587 5.7445 19.7254C5.19273 19.3597 4.70064 18.9175 4.2843 18.4133C3.76827 17.7841 3.45002 17.0415 3.367 16.8223C3.3669 16.8207 3.3669 16.8192 3.367 16.8176V16.8149C3.23759 16.4431 2.96573 15.5492 3.00358 14.6825C3.0691 13.1554 3.6063 12.2181 3.74833 11.9833C4.12391 11.3417 4.61304 10.7676 5.19387 10.2866C5.70607 9.87224 6.28677 9.54268 6.91209 9.31144C7.30212 9.15634 7.70845 9.04192 8.12403 8.97015C8.75034 8.86536 9.39001 8.85628 10.0193 8.94323V9.66483C9.28575 9.67633 8.56127 9.82196 7.88474 10.0939Z" fill="#69C9D0"/>
<path d="M3.36719 16.818V16.8199L3.42778 16.9842C3.42082 16.965 3.3983 16.9069 3.36719 16.818Z" fill="#69C9D0"/>
<path d="M20.026 7.18484V9.68546C20.026 9.68546 18.8414 9.63905 17.9639 9.41594C16.7394 9.1039 15.9519 8.6253 15.9519 8.6253C15.9519 8.6253 15.4086 8.28401 15.3647 8.25982V14.8525C15.3647 15.2195 15.2641 16.1365 14.9577 16.9006C14.5576 17.9011 13.9403 18.5576 13.8267 18.6918C13.8267 18.6918 13.0755 19.5791 11.7512 20.1767C10.5576 20.7157 9.50922 20.7021 9.19545 20.7157C9.19545 20.7157 7.38363 20.7875 5.75251 19.7277L5.74437 19.7219C5.57216 19.5551 5.41006 19.3791 5.25886 19.1945C4.73835 18.5599 4.41929 17.8095 4.33911 17.5953C4.33897 17.5944 4.33897 17.5935 4.33911 17.5926C4.21011 17.2205 3.93907 16.3269 3.9761 15.4613C4.04162 13.9343 4.57882 12.997 4.72085 12.7622C5.09701 12.1219 5.58625 11.549 6.1668 11.069C6.6791 10.6548 7.25978 10.3252 7.88501 10.0938C8.56091 9.82216 9.28468 9.67654 10.0175 9.66479V12.1962C10.0175 12.1962 8.67697 11.7711 7.60421 12.5239C6.85417 13.0809 6.45615 13.6242 6.33895 14.5947C6.33406 15.3088 6.51679 16.3195 7.51915 16.9935C7.63609 17.0676 7.75085 17.1334 7.86344 17.1908C8.03856 17.4185 8.25169 17.6168 8.49424 17.7779C9.4734 18.3977 10.2938 18.441 11.343 18.0384C12.0426 17.7693 12.5692 17.1628 12.8134 16.4907C12.9668 16.071 12.9648 15.6486 12.9648 15.2117V2.78467H15.4066C15.5075 3.35843 15.7867 4.1752 16.5249 4.98417C16.8211 5.28962 17.1546 5.55967 17.5183 5.78846C17.6258 5.89962 18.1752 6.4492 18.8804 6.7866C19.2451 6.961 19.6295 7.09462 20.026 7.18484Z" fill="black"/>
<path d="M6.33786 14.5947C6.45507 13.6242 6.85308 13.0809 7.60312 12.5239C8.67629 11.7695 10.0168 12.1962 10.0168 12.1962V9.66479C10.3427 9.65646 10.6688 9.67578 10.9911 9.72252V12.9802C10.9911 12.9802 9.65098 12.5535 8.57781 13.3083C7.82818 13.8649 7.42935 14.4086 7.31255 15.3791C7.30889 15.906 7.40778 16.5948 7.86318 17.1905C7.75058 17.1327 7.63582 17.0669 7.51888 16.9931C6.51571 16.3195 6.33298 15.3088 6.33786 14.5947ZM16.5263 4.98417C15.788 4.1752 15.5089 3.35843 15.4079 2.78467H16.3366C16.3366 2.78467 16.1515 4.2891 17.501 5.76856L17.5197 5.78846C17.156 5.55967 16.8224 5.28962 16.5263 4.98417ZM21.0001 7.27767V10.4699C21.0001 10.4699 19.815 10.4234 18.938 10.2003C17.7134 9.88829 16.9263 9.4097 16.9263 9.4097C16.9263 9.4097 16.3826 9.0684 16.3387 9.04461V15.6365C16.3387 16.0035 16.2381 16.9201 15.9317 17.6846C15.5316 18.6847 14.9143 19.3412 14.8007 19.4754C14.8007 19.4754 14.0499 20.3627 12.7252 20.9603C11.5312 21.4994 10.4828 21.4857 10.1695 21.4994C10.1695 21.4994 8.35723 21.5711 6.72652 20.5114C6.37389 20.2778 6.04472 20.0132 5.74329 19.7211L5.75143 19.727C7.38255 20.7867 9.19436 20.715 9.19436 20.715C9.50813 20.7013 10.5565 20.715 11.7501 20.1759C13.0736 19.5783 13.8256 18.691 13.8256 18.691C13.938 18.5568 14.5582 17.9003 14.9566 16.8999C15.2622 16.1358 15.3636 15.2187 15.3636 14.8517V8.2606C15.4075 8.28479 15.9508 8.62608 15.9508 8.62608C15.9508 8.62608 16.7383 9.10507 17.9629 9.41672C18.8403 9.63983 20.025 9.68624 20.025 9.68624V7.18484C20.4303 7.27572 20.7758 7.3003 21.0001 7.27767Z" fill="#EE1D52"/>
</svg>
