<svg width="24" height="24" viewBox="0 0 24 24" fill="none" xmlns="http://www.w3.org/2000/svg">
<path d="M5.41451 6.08866L3 8.33108L3.83544 9.40889C4.20749 9.17193 4.95159 8.55377 5.28342 8.55377C6.02752 8.55377 6.69644 10.6195 7.33472 12.8912C7.90788 14.9311 8.50114 20 11.2362 20C14.3836 20 21 11.2943 21 7.41963C21 6.01763 20.7285 4 18.0035 4C15.0834 4 13.6468 6.88738 13.2935 8.33108C13.5476 8.15746 14.2395 8.04172 14.6207 8.04172C16.1739 8.04172 15.8422 9.69124 15.6304 10.3567C15.4186 11.0222 13.7903 14.2626 12.9122 14.2626C11.8391 14.2626 11.2037 9.48844 10.8931 7.41963C10.5824 5.35083 9.77759 4.22239 8.54916 4.22239C7.56641 4.22239 6.04991 5.46657 5.41451 6.08866Z" fill="#3CB9E6"/>
</svg>
