<svg width="24" height="24" viewBox="0 0 24 24" fill="none" xmlns="http://www.w3.org/2000/svg">
<path d="M16.5017 3.71794C16.5017 3.15289 15.8691 3.15288 15.5879 3.22352C15.9815 2.91274 16.4431 2.98809 16.6071 3.08226L20.4085 4.94623C20.7707 5.12384 21.0005 5.49339 21.0005 5.89837V18.1606C21.0005 18.571 20.7646 18.9445 20.3951 19.1192L16.818 20.8106C16.572 20.9165 16.0378 21.1779 15.5879 20.8106C16.1502 20.9165 16.4548 20.5163 16.5017 20.2455V3.71794Z" fill="url(#paint0_linear_506_12184)"/>
<path d="M15.6327 3.2133C15.9311 3.15432 16.5009 3.18167 16.5009 3.71791V7.9387L4.97584 16.6576C4.7744 16.81 4.49089 16.7847 4.31931 16.5991L3.13148 15.3137C2.9454 15.1124 2.95842 14.7972 3.16047 14.612L15.5871 3.22348L15.6327 3.2133Z" fill="url(#paint1_linear_506_12184)"/>
<path d="M16.5009 16.0955L4.97584 7.37654C4.7744 7.22414 4.49089 7.24943 4.31931 7.4351L3.13148 8.72043C2.9454 8.92179 2.95842 9.23698 3.16047 9.42215L15.5871 20.8107C16.1494 20.9166 16.454 20.5164 16.5009 20.2456V16.0955Z" fill="url(#paint2_linear_506_12184)"/>
<defs>
<linearGradient id="paint0_linear_506_12184" x1="18.2942" y1="3" x2="18.2942" y2="21" gradientUnits="userSpaceOnUse">
<stop stop-color="#32B5F1"/>
<stop offset="1" stop-color="#2B9FED"/>
</linearGradient>
<linearGradient id="paint1_linear_506_12184" x1="16.5009" y1="5.27177" x2="3.65662" y2="16.053" gradientUnits="userSpaceOnUse">
<stop stop-color="#0F6FB3"/>
<stop offset="0.270551" stop-color="#1279B7"/>
<stop offset="0.421376" stop-color="#1176B5"/>
<stop offset="0.618197" stop-color="#0E69AC"/>
<stop offset="0.855344" stop-color="#0F70AF"/>
<stop offset="1" stop-color="#0F6DAD"/>
</linearGradient>
<linearGradient id="paint2_linear_506_12184" x1="3.74263" y1="8.13246" x2="16.5508" y2="18.7374" gradientUnits="userSpaceOnUse">
<stop stop-color="#1791D2"/>
<stop offset="1" stop-color="#1173C5"/>
</linearGradient>
</defs>
</svg>
