<svg width="24" height="24" viewBox="0 0 24 24" fill="none" xmlns="http://www.w3.org/2000/svg">
<path fill-rule="evenodd" clip-rule="evenodd" d="M12 21C16.9706 21 21 16.9706 21 12C21 7.02944 16.9706 3 12 3C7.02944 3 3 7.02944 3 12C3 13.6141 3.42493 15.129 4.16902 16.4389L3 21L7.70241 19.9096C8.97946 20.6049 10.4436 21 12 21ZM12 19.6154C16.2059 19.6154 19.6154 16.2059 19.6154 12C19.6154 7.79414 16.2059 4.38462 12 4.38462C7.79414 4.38462 4.38462 7.79414 4.38462 12C4.38462 13.6239 4.89289 15.1291 5.75904 16.3651L5.07692 18.9231L7.67996 18.2723C8.90745 19.1194 10.3958 19.6154 12 19.6154Z" fill="#BFC8D0"/>
<path d="M20 11C20 15.4183 16.4183 19 12 19C10.3148 19 8.75126 18.4789 7.46177 17.5891L4.72727 18.2727L5.44384 15.5856C4.53395 14.2871 4 12.7059 4 11C4 6.58172 7.58172 3 12 3C16.4183 3 20 6.58172 20 11Z" fill="url(#paint0_linear_504_11800)"/>
<path fill-rule="evenodd" clip-rule="evenodd" d="M12 20C16.9706 20 21 15.9706 21 11C21 6.02944 16.9706 2 12 2C7.02944 2 3 6.02944 3 11C3 12.6141 3.42493 14.129 4.16902 15.4389L3 20L7.70241 18.9096C8.97946 19.6049 10.4436 20 12 20ZM12 18.6154C16.2059 18.6154 19.6154 15.2059 19.6154 11C19.6154 6.79414 16.2059 3.38462 12 3.38462C7.79414 3.38462 4.38462 6.79414 4.38462 11C4.38462 12.6239 4.89289 14.1291 5.75904 15.3651L5.07692 17.9231L7.67996 17.2723C8.90745 18.1194 10.3958 18.6154 12 18.6154Z" fill="white"/>
<path d="M10.2868 7.36353C10.0821 6.96557 9.76814 7.0008 9.45092 7.0008C8.88399 7.0008 8 7.65811 8 8.88143C8 9.88401 8.45641 10.9815 9.99437 12.6232C11.4786 14.2076 13.4288 15.0272 15.0479 14.9993C16.6669 14.9714 17 13.6228 17 13.1674C17 12.9655 16.8706 12.8648 16.7814 12.8374C16.2297 12.5811 15.2121 12.1036 14.9806 12.0139C14.7491 11.9241 14.6282 12.0455 14.553 12.1115C14.3431 12.3052 13.9268 12.876 13.7843 13.0044C13.6418 13.1328 13.4294 13.0678 13.341 13.0193C13.0156 12.8929 12.1335 12.5131 11.4303 11.8533C10.5607 11.0373 10.5096 10.7566 10.3458 10.5067C10.2147 10.3067 10.3109 10.1841 10.3589 10.1305C10.5463 9.92121 10.805 9.59812 10.921 9.43757C11.037 9.27702 10.9449 9.03326 10.8897 8.88144C10.652 8.22849 10.4506 7.6819 10.2868 7.36353Z" fill="white"/>
<defs>
<linearGradient id="paint0_linear_504_11800" x1="19" y1="5" x2="4" y2="19" gradientUnits="userSpaceOnUse">
<stop stop-color="#5BD066"/>
<stop offset="1" stop-color="#27B43E"/>
</linearGradient>
</defs>
</svg>
