<svg width="20" height="20" viewBox="0 0 20 20" fill="none" xmlns="http://www.w3.org/2000/svg">
<path fill-rule="evenodd" clip-rule="evenodd" d="M15.3044 15.6686C13.7527 16.8634 11.5042 17.5 9.56855 17.5C6.84883 17.5 4.40952 16.4521 2.56057 14.7074C2.41989 14.5702 2.54556 14.3832 2.72 14.4899C4.71525 15.7029 7.18645 16.4325 9.7308 16.4325C11.5683 16.4237 13.3859 16.0356 15.0793 15.2906C15.3419 15.174 15.5623 15.4703 15.3044 15.6691V15.6686ZM15.9496 14.8978C15.7527 14.6334 14.6385 14.773 14.1396 14.8342C13.9872 14.8538 13.9642 14.7152 14.1011 14.6158C14.9921 13.9645 16.4429 14.152 16.6126 14.3709C16.7824 14.5898 16.5686 16.1142 15.7358 16.8409C15.6078 16.9526 15.4858 16.8933 15.5482 16.7449C15.7358 16.2572 16.155 15.1632 15.9562 14.8978" fill="currentcolor"/>
<path fill-rule="evenodd" clip-rule="evenodd" d="M10.6507 9.01836C10.6507 9.81388 10.6697 10.4773 10.292 11.1835C9.98282 11.7571 9.49695 12.1111 8.9647 12.1111C8.22839 12.1111 7.79684 11.514 7.79684 10.6324C7.79684 8.89283 9.26152 8.57641 10.6511 8.57641V9.01836H10.6507ZM12.5858 13.9946C12.459 14.1154 12.2757 14.1239 12.1326 14.0435C11.4965 13.4807 11.3799 13.2193 11.0319 12.6824C9.97973 13.8249 9.23237 14.1667 7.87017 14.1667C6.25443 14.1667 5 13.1069 5 10.9851C5 9.3282 5.84144 8.19981 7.04507 7.6483C8.08616 7.16027 9.54068 7.0747 10.6516 6.94306V6.68447C10.6516 6.19926 10.6869 5.62471 10.4175 5.2058C10.1856 4.82967 9.73723 4.67451 9.34103 4.67451C8.61001 4.67451 7.95983 5.07415 7.80082 5.9007C7.76858 6.08877 7.64181 6.26555 7.46645 6.27401L5.60204 6.05209C5.44568 6.01448 5.27076 5.88001 5.31626 5.62895C5.74691 3.22405 7.78624 2.5 9.61002 2.5C10.5433 2.5 11.7629 2.76423 12.4987 3.5165C13.4321 4.44413 13.3433 5.6816 13.3433 7.02863V10.2107C13.3433 11.167 13.7156 11.5859 14.0663 12.1031C14.1878 12.2912 14.2147 12.5075 14.0584 12.6457C13.5633 13.0913 13.0733 13.5431 12.5884 14.0012L12.5858 13.9955" fill="currentcolor"/>
</svg>
