<svg width="20" height="20" viewBox="0 0 20 20" fill="none" xmlns="http://www.w3.org/2000/svg">
<path d="M14.2793 8.50846L15.5927 6.23326C15.6669 6.10571 15.622 5.94369 15.4962 5.86957C15.3704 5.79546 15.2066 5.83855 15.1342 5.9661L13.8036 8.2706C12.7884 7.80694 11.6456 7.54839 10.4167 7.54839C9.18771 7.54839 8.04494 7.80693 7.02971 8.2706L5.69907 5.9661C5.62495 5.83855 5.46293 5.79546 5.33538 5.86957C5.20783 5.94369 5.16474 6.10571 5.23885 6.23326L6.55226 8.50846C4.28741 9.73569 2.75337 12.0281 2.5 14.7118H18.3333C18.08 12.0281 16.5459 9.73567 14.2793 8.50846ZM6.78151 12.4883C6.41438 12.4883 6.11791 12.1901 6.11791 11.8247C6.11791 11.4576 6.4161 11.1611 6.78151 11.1611C7.14864 11.1611 7.44511 11.4593 7.44511 11.8247C7.44684 12.1901 7.14864 12.4883 6.78151 12.4883ZM14.0501 12.4883C13.683 12.4883 13.3865 12.1901 13.3865 11.8247C13.3865 11.4576 13.6847 11.1611 14.0501 11.1611C14.4172 11.1611 14.7137 11.4593 14.7137 11.8247C14.7154 12.1901 14.4172 12.4883 14.0501 12.4883Z" fill="currentcolor"/>
</svg>
