<svg width="20" height="20" viewBox="0 0 20 20" fill="none" xmlns="http://www.w3.org/2000/svg">
<path d="M16.3698 14.6551C16.1154 15.2374 15.8143 15.7734 15.4655 16.2661C14.99 16.9379 14.6007 17.4029 14.3007 17.6612C13.8356 18.085 13.3373 18.3021 12.8037 18.3144C12.4206 18.3144 11.9586 18.2064 11.4209 17.9873C10.8813 17.7692 10.3855 17.6612 9.93215 17.6612C9.45668 17.6612 8.94674 17.7692 8.40129 17.9873C7.85501 18.2064 7.41494 18.3206 7.07847 18.3319C6.56677 18.3535 6.05672 18.1303 5.54761 17.6612C5.22267 17.3803 4.81623 16.8988 4.32933 16.2168C3.80693 15.4884 3.37745 14.6438 3.04098 13.6808C2.68064 12.6407 2.5 11.6336 2.5 10.6585C2.5 9.54155 2.74355 8.57821 3.23138 7.77093C3.61477 7.12249 4.12482 6.61098 4.76318 6.23548C5.40154 5.85998 6.09129 5.66863 6.83409 5.65638C7.24053 5.65638 7.77352 5.78097 8.43586 6.02582C9.09634 6.27149 9.52042 6.39607 9.70636 6.39607C9.84536 6.39607 10.3165 6.2504 11.1151 5.95997C11.8704 5.69064 12.5078 5.57912 13.03 5.62305C14.445 5.73622 15.5081 6.28898 16.2151 7.28483C14.9496 8.04468 14.3236 9.10895 14.336 10.4742C14.3474 11.5377 14.7367 12.4226 15.5019 13.1253C15.8486 13.4514 16.2358 13.7035 16.6667 13.8825C16.5732 14.151 16.4746 14.4082 16.3698 14.6551ZM13.1245 2.00012C13.1245 2.83364 12.8172 3.6119 12.2047 4.33225C11.4655 5.1886 10.5715 5.68344 9.60192 5.60536C9.58956 5.50536 9.5824 5.40011 9.5824 5.28952C9.5824 4.48934 9.93392 3.63299 10.5582 2.9328C10.8698 2.57829 11.2662 2.28351 11.7469 2.04836C12.2265 1.81673 12.6802 1.68862 13.1068 1.66669C13.1193 1.77812 13.1245 1.88955 13.1245 2.0001V2.00012Z" fill="currentcolor"/>
</svg>
