<svg width="20" height="20" viewBox="0 0 20 20" fill="none" xmlns="http://www.w3.org/2000/svg">
<path d="M6.7421 3.22207C6.84188 2.92641 7.11914 2.72736 7.43118 2.72736H11.9999L7.25784 16.7781C7.15805 17.0738 6.88079 17.2728 6.56876 17.2728H3.013C2.51544 17.2728 2.1648 16.7844 2.32391 16.313L6.7421 3.22207Z" fill="currentcolor"/>
<path d="M14.0459 12.1818H6.84548C6.54294 12.1818 6.39687 12.5524 6.61804 12.7588L11.2448 17.0771C11.3795 17.2028 11.5568 17.2728 11.741 17.2728H15.818L14.0459 12.1818Z" fill="currentcolor"/>
<path d="M13.2579 3.22194C13.1582 2.92629 12.8809 2.72723 12.5688 2.72723H7.45459H7.47792C7.78996 2.72723 8.06723 2.92629 8.16701 3.22194L12.5852 16.3129C12.7443 16.7843 12.3936 17.2727 11.8961 17.2727H11.8182H16.987C17.4846 17.2727 17.8352 16.7843 17.6761 16.3129L13.2579 3.22194Z" fill="currentcolor"/>
</svg>
