<svg width="20" height="20" viewBox="0 0 20 20" fill="none" xmlns="http://www.w3.org/2000/svg">
<path d="M6.27191 5C6.72892 5 7.15078 5.03534 7.53748 5.14134C7.92418 5.21201 8.24057 5.35336 8.5218 5.53004C8.80304 5.70671 9.01397 5.95406 9.15458 6.27208C9.2952 6.59011 9.36551 6.9788 9.36551 7.40283C9.36551 7.89753 9.26005 8.32155 9.01397 8.63958C8.80304 8.9576 8.45149 9.24028 8.02964 9.4523C8.62727 9.62898 9.08427 9.947 9.36551 10.371C9.64675 10.7951 9.82252 11.3251 9.82252 11.9258C9.82252 12.4205 9.71706 12.8445 9.54128 13.1979C9.36551 13.5512 9.08428 13.8693 8.76788 14.0813C8.45149 14.2933 8.06479 14.47 7.64294 14.576C7.22108 14.682 6.79923 14.7527 6.37738 14.7527H1.66667V5H6.27191ZM5.99068 8.9576C6.37738 8.9576 6.69377 8.85159 6.93985 8.67491C7.18593 8.49823 7.29139 8.18021 7.29139 7.79152C7.29139 7.57951 7.25624 7.36749 7.18593 7.22615C7.11562 7.08481 7.01016 6.9788 6.86954 6.87279C6.72892 6.80212 6.5883 6.73145 6.41253 6.69611C6.23676 6.66078 6.06099 6.66078 5.85006 6.66078H3.81109V8.9576H5.99068ZM6.09614 13.1272C6.30707 13.1272 6.51799 13.0919 6.69377 13.0565C6.86954 13.0212 7.04531 12.9505 7.18593 12.8445C7.32655 12.7385 7.43201 12.6325 7.53748 12.4558C7.60778 12.2792 7.67809 12.0671 7.67809 11.8198C7.67809 11.3251 7.53748 10.9717 7.25624 10.7244C6.975 10.5124 6.5883 10.4064 6.13129 10.4064H3.81109V13.1272H6.09614ZM12.881 13.0919C13.1622 13.3746 13.5841 13.5159 14.1465 13.5159C14.5332 13.5159 14.8848 13.4099 15.166 13.2332C15.4472 13.0212 15.623 12.8092 15.6933 12.5972H17.4159C17.1347 13.4452 16.7128 14.0459 16.1503 14.4346C15.5879 14.788 14.9199 15 14.1114 15C13.5489 15 13.0567 14.894 12.5997 14.7173C12.1427 14.5406 11.7912 14.2933 11.4748 13.9399C11.1584 13.6219 10.9123 13.2332 10.7717 12.7739C10.5959 12.3145 10.5256 11.8198 10.5256 11.2544C10.5256 10.7244 10.5959 10.2297 10.7717 9.77032C10.9475 9.31095 11.1935 8.92226 11.5099 8.5689C11.8263 8.25088 12.213 7.9682 12.6349 7.79152C13.0919 7.61484 13.5489 7.50883 14.1114 7.50883C14.709 7.50883 15.2363 7.61484 15.6933 7.86219C16.1503 8.10954 16.5019 8.39223 16.7831 8.81625C17.0644 9.20495 17.2753 9.66431 17.4159 10.159C17.4862 10.6537 17.5214 11.1484 17.4862 11.7138H12.3888C12.3888 12.2792 12.5997 12.8092 12.881 13.0919ZM15.0957 9.38163C14.8496 9.13428 14.4629 8.99293 14.0059 8.99293C13.6895 8.99293 13.4434 9.0636 13.2325 9.16961C13.0216 9.27562 12.881 9.41696 12.7403 9.5583C12.5997 9.69965 12.5294 9.87633 12.4943 10.053C12.4591 10.2297 12.424 10.371 12.424 10.5124H15.5879C15.5176 9.98233 15.3418 9.62898 15.0957 9.38163ZM12.0021 5.67138H15.9394V6.62544H12.0021V5.67138Z" fill="currentcolor"/>
</svg>
