<svg width="20" height="20" viewBox="0 0 20 20" fill="none" xmlns="http://www.w3.org/2000/svg">
<path d="M2.9868 2.50004C2.91665 2.49904 2.84716 2.51506 2.7832 2.54699C2.71924 2.57892 2.66236 2.62598 2.61656 2.68487C2.57076 2.74375 2.53715 2.81303 2.51808 2.88785C2.49902 2.96266 2.49497 3.04119 2.50621 3.11792L4.54638 16.8425C4.5718 17.0104 4.6498 17.1631 4.7667 17.2736C4.8836 17.3842 5.03191 17.4456 5.18558 17.447H14.973C15.0882 17.4486 15.2001 17.4043 15.2883 17.3222C15.3765 17.2401 15.4352 17.1256 15.4536 16.9996L17.4938 3.12059C17.505 3.04386 17.501 2.96533 17.4819 2.89053C17.4628 2.81573 17.4292 2.74646 17.3834 2.68759C17.3376 2.62872 17.2807 2.58167 17.2167 2.54976C17.1528 2.51784 17.0833 2.50183 17.0132 2.50284L2.9868 2.50004ZM11.5776 12.4193H8.45364L7.60778 7.52229H12.3345L11.5776 12.4193Z" fill="currentcolor"/>
<path d="M16.832 7.51526H12.3252L11.5688 12.4084H8.44742L4.76178 17.2563C4.8786 17.3683 5.02753 17.4305 5.18195 17.4319H14.964C15.0791 17.4336 15.1909 17.3893 15.279 17.3073C15.3672 17.2252 15.4258 17.1108 15.4442 16.9849L16.832 7.51526Z" fill="currentcolor"/>
</svg>
