<svg width="20" height="20" viewBox="0 0 20 20" fill="none" xmlns="http://www.w3.org/2000/svg">
<path fill-rule="evenodd" clip-rule="evenodd" d="M9.96578 2.5C5.83316 2.5 2.5 5.81706 2.5 10.1548C2.5 12.4039 3.70305 14.5769 5.39488 15.8825C5.72066 16.1339 6.10867 16.1109 6.33109 15.8953C6.51848 15.7136 6.50301 15.2763 6.15449 14.9698C4.80203 13.7805 3.86699 11.98 3.86699 10.1815C3.86699 6.95142 6.73504 4.23364 9.9659 4.23364C13.8985 4.23364 16.0014 7.42719 16.0014 10.1341C16.0014 11.788 15.1926 13.785 13.7325 15.0588C13.7348 15.053 14.0358 14.461 14.0358 13.308C14.0358 11.3454 12.7922 10.2822 11.3492 10.2822C10.3046 10.2822 9.67914 10.6557 9.25352 11.0038C9.25352 10.2044 9.28023 8.71131 9.28023 8.71131C9.28023 7.7259 8.935 6.93712 7.73184 6.91989C7.03539 6.91005 6.51859 7.22938 6.19633 7.95148C6.0802 8.22229 6.12297 8.51655 6.35254 8.6499C6.5425 8.76018 6.85492 8.67838 7.00949 8.47213C7.11273 8.34323 7.17063 8.31569 7.26039 8.32542C7.40816 8.34135 7.41379 8.57948 7.41965 8.73182C7.4241 8.84877 7.53777 10.5475 7.47555 14.9129C7.47555 16.117 8.41996 17.5 10.6812 17.5C11.6547 17.5 12.4022 17.2279 13.4882 16.6109C15.1411 15.6714 17.5 13.5881 17.5 10.0643C17.5 5.66132 13.9342 2.5 9.96578 2.5ZM10.675 15.8125C9.83324 15.8273 9.2193 15.5567 9.18168 14.821C9.16762 14.5449 9.17207 14.2509 9.18555 14.0736C9.26699 12.9985 10.0187 12.2251 10.7609 12.0766C11.6839 11.892 12.2987 12.3141 12.2987 13.5224C12.2986 14.3389 12.072 15.788 10.675 15.8125Z" fill="currentcolor"/>
</svg>
