<svg width="20" height="20" viewBox="0 0 20 20" fill="none" xmlns="http://www.w3.org/2000/svg">
<path fill-rule="evenodd" clip-rule="evenodd" d="M4.98648 17.5H15.0135C16.3868 17.5 17.5 16.3868 17.5 15.0135V4.98648C17.5 3.61322 16.3868 2.5 15.0135 2.5H4.98648C3.61322 2.5 2.5 3.61322 2.5 4.98648V15.0135C2.5 16.3868 3.61322 17.5 4.98648 17.5ZM10.1769 8.81551C9.3965 8.81551 8.7174 9.25449 8.37539 9.89897C8.03326 9.25449 7.35451 8.81551 6.57357 8.81551C6.13211 8.81504 5.70248 8.9582 5.34955 9.22338V7.50524C5.34758 7.39843 5.30372 7.29667 5.22742 7.22189C5.15112 7.14712 5.0485 7.10532 4.94167 7.10551C4.7189 7.10551 4.5396 7.28323 4.53451 7.50524V10.8886H4.53492C4.5529 11.9994 5.45818 12.8943 6.57357 12.8943C7.35451 12.8943 8.03326 12.4549 8.37539 11.8111C8.7174 12.4549 9.3965 12.8943 10.1769 12.8943C11.3029 12.8943 12.2162 11.9813 12.2162 10.8545C12.2162 9.72828 11.3029 8.81551 10.1769 8.81551ZM6.57357 12.0778C5.89792 12.0778 5.34955 11.5305 5.34955 10.8548C5.34955 10.1793 5.89792 9.63196 6.57357 9.63196C7.24916 9.63196 7.79636 10.1793 7.79636 10.8545C7.79636 11.5303 7.24916 12.0778 6.57357 12.0778ZM10.1769 12.0778C9.50109 12.0778 8.95312 11.5303 8.95312 10.8545C8.95312 10.1793 9.50109 9.63196 10.1769 9.63196C10.8524 9.63196 11.4001 10.1793 11.4001 10.8545C11.4001 11.5303 10.8524 12.0778 10.1769 12.0778ZM15.3807 12.2115L14.2722 10.8519L15.382 9.48956C15.5223 9.30986 15.4821 9.0589 15.2884 8.9256C15.0944 8.79113 14.8223 8.82558 14.6723 8.99995V8.99972L13.7174 10.17L12.7635 8.99972V8.99995C12.6149 8.82558 12.3411 8.79113 12.1477 8.9256C11.9544 9.05902 11.914 9.30986 12.055 9.48956H12.0546L13.1625 10.8519L12.0546 12.2115H12.055C11.914 12.3918 11.9544 12.642 12.1477 12.7759C12.3411 12.9097 12.6149 12.8756 12.7635 12.701L13.7174 11.5324L14.6709 12.701C14.8211 12.8756 15.0931 12.9097 15.2871 12.7759C15.4809 12.642 15.5213 12.3918 15.3807 12.2115Z" fill="currentcolor"/>
</svg>
