<svg width="20" height="20" viewBox="0 0 20 20" fill="none" xmlns="http://www.w3.org/2000/svg">
<path d="M7.19685 10.0004C7.19685 11.5461 8.45423 12.8034 9.99981 12.8034C11.5453 12.8034 12.8026 11.546 12.8026 10.0004C12.8026 8.45475 11.5453 7.19727 9.99981 7.19727C8.45423 7.19727 7.19685 8.45475 7.19685 10.0004Z" fill="currentcolor"/>
<path d="M16.4541 6.30039C16.4759 6.26197 16.4755 6.21481 16.453 6.17679C15.8001 5.07713 14.871 4.15602 13.7661 3.51304C12.6273 2.85029 11.325 2.5 10 2.5C7.70703 2.5 5.57006 3.52912 4.13705 5.3235C4.10543 5.36304 4.10129 5.41788 4.12662 5.4617L6.23792 9.11877C6.26005 9.15713 6.30087 9.18025 6.34435 9.18025C6.34985 9.18025 6.35546 9.17985 6.36102 9.17912C6.41049 9.17238 6.45097 9.13637 6.46346 9.08803C6.87977 7.47485 8.33407 6.34819 10 6.34819C10.1034 6.34819 10.2102 6.35291 10.3175 6.36206C10.321 6.36241 10.3245 6.36255 10.328 6.36255H16.3472C16.3914 6.36255 16.4323 6.33885 16.4541 6.30039Z" fill="currentcolor"/>
<path d="M11.1082 13.5627C11.0777 13.5232 11.0264 13.5063 10.9781 13.5196C10.6605 13.6081 10.3315 13.6529 9.99994 13.6529C8.59137 13.6529 7.29317 12.8267 6.69253 11.5481C6.69106 11.545 6.68944 11.5419 6.68771 11.5389L3.67593 6.32204C3.65399 6.28392 3.61337 6.26056 3.56945 6.26056C3.56926 6.26056 3.56901 6.26056 3.56881 6.26056C3.52465 6.26081 3.48398 6.28466 3.46234 6.32312C2.83279 7.44033 2.49998 8.71198 2.49998 10.0006C2.49998 11.8083 3.15211 13.5545 4.33622 14.9175C5.50857 16.2668 7.12256 17.1548 8.881 17.418C8.88709 17.4189 8.89319 17.4193 8.89924 17.4193C8.94267 17.4193 8.98349 17.3962 9.00567 17.3578L11.1175 13.6996C11.1425 13.6563 11.1388 13.6022 11.1082 13.5627Z" fill="currentcolor"/>
<path d="M16.8692 7.18304H12.641C12.591 7.18304 12.546 7.21329 12.5272 7.25953C12.5083 7.30576 12.5192 7.35888 12.5549 7.3938C13.2624 8.08739 13.652 9.01313 13.652 10.0005C13.652 10.748 13.4264 11.4674 12.9997 12.0809C12.9977 12.0838 12.9959 12.0867 12.9942 12.0897L9.97718 17.3156C9.9551 17.3538 9.95525 17.401 9.97752 17.4392C9.99961 17.4769 10.04 17.5 10.0837 17.5C10.0841 17.5 10.0846 17.5 10.085 17.5C12.0704 17.4779 13.9335 16.6879 15.331 15.2758C16.7296 13.8625 17.4999 11.989 17.4999 10.0005C17.4999 9.05537 17.3262 8.13372 16.9836 7.2611C16.9651 7.21398 16.9197 7.18304 16.8692 7.18304Z" fill="currentcolor"/>
</svg>
