<svg width="20" height="20" viewBox="0 0 20 20" fill="none" xmlns="http://www.w3.org/2000/svg">
<path fill-rule="evenodd" clip-rule="evenodd" d="M17.1222 5.83335C17.0059 5.632 16.8456 5.45616 16.6693 5.35433L10.5466 1.81944C10.1939 1.61577 9.61667 1.61577 9.26398 1.81944L3.14131 5.35433C2.78856 5.55795 2.5 6.05783 2.5 6.46512V13.5349C2.5 13.7386 2.57217 13.9654 2.68842 14.1667L2.6884 14.1667C2.8046 14.368 2.96496 14.5439 3.14128 14.6457L9.26395 18.1806C9.61665 18.3843 10.1939 18.3843 10.5466 18.1806L16.6692 14.6457C16.8456 14.5439 17.0059 14.368 17.1221 14.1667L13.1255 11.8592L14.1807 12.4698C13.3002 13.9916 11.662 14.9369 9.90532 14.9369C7.18313 14.9369 4.96847 12.7222 4.96847 10.0001C4.96847 7.27786 7.18313 5.06319 9.90532 5.06319C11.6619 5.06319 13.3001 6.00845 14.1806 7.53007L12.044 8.76642C11.6034 8.00478 10.7838 7.53162 9.90532 7.53162C8.5442 7.53162 7.43689 8.63893 7.43689 10.0001C7.43689 11.3611 8.5442 12.4685 9.90532 12.4685C10.7835 12.4685 11.6027 11.9957 12.0436 11.2346L9.9053 10L9.90533 10L12.0436 11.2346L12.0442 11.2335L13.1047 11.8472L17.1222 14.1667C17.2384 13.9654 17.3106 13.7386 17.3106 13.5349V6.46508C17.3106 6.26141 17.2385 6.03465 17.1222 5.83335L15.7843 6.60579L17.1222 5.83335ZM14.8421 9.72579H14.2936V9.17727H13.7451V9.72579H13.1965V10.2743H13.7451V10.8229H14.2936V10.2743H14.8421V9.72579ZM16.3506 9.17727V9.72579H16.8992V10.2743H16.3506V10.8229H15.8022V10.2743H15.2536V9.72579H15.8022V9.17727H16.3506Z" fill="currentcolor"/>
</svg>
