<svg width="20" height="20" viewBox="0 0 20 20" fill="none" xmlns="http://www.w3.org/2000/svg">
<path fill-rule="evenodd" clip-rule="evenodd" d="M3.61228 17.5H16.3877V17.4977C16.6822 17.4961 16.9643 17.3784 17.1725 17.1702C17.3808 16.9619 17.4985 16.6799 17.5 16.3854V3.60994C17.4988 3.31554 17.3811 3.03359 17.1727 2.82564C16.9643 2.61768 16.6821 2.50062 16.3877 2.5H3.61228C3.31748 2.50062 3.03492 2.61801 2.82646 2.82647C2.618 3.03492 2.50062 3.31748 2.5 3.61229V16.3877C2.50062 16.6825 2.618 16.9651 2.82646 17.1735C3.03492 17.382 3.31748 17.4994 3.61228 17.5ZM14.6582 15.9273V3.98712L12.1301 4.49392V8.20301C11.4639 7.54385 10.5672 7.1716 9.51871 7.1716C7.3579 7.1716 5.33915 9.15379 5.33915 11.6057C5.33915 14.0577 7.2257 16.0127 9.51871 16.0127C10.5672 16.0127 11.4639 15.6601 12.1301 15.0131V15.9273H14.6582ZM11.5983 13.0684C11.1988 13.468 10.6569 13.6927 10.0918 13.6932C9.52675 13.6927 8.98494 13.468 8.58536 13.0684C8.18578 12.6688 7.96107 12.127 7.96058 11.5619C7.96101 10.9968 8.18569 10.4549 8.58528 10.0553C8.98487 9.65563 9.52671 9.43089 10.0918 9.4304C10.657 9.43089 11.1988 9.65563 11.5984 10.0553C11.998 10.4549 12.2227 10.9968 12.2231 11.5619C12.2226 12.127 11.9979 12.6688 11.5983 13.0684Z" fill="currentcolor"/>
</svg>
