<svg width="20" height="20" viewBox="0 0 20 20" fill="none" xmlns="http://www.w3.org/2000/svg">
<path fill-rule="evenodd" clip-rule="evenodd" d="M13.3238 5.10272L12.312 5.10271L12.2945 5.10275L4.9464 5.10276L15.0319 15.5136L17.5 15.5136V9.12783L13.687 5.32863C13.5661 5.20324 13.4488 5.13688 13.3238 5.10272ZM12.7133 4.43147C12.7437 4.42942 12.7748 4.4274 12.8064 4.42558L11.2599 2.8398C11.1634 2.77012 11.0077 2.68574 10.8242 2.61755C10.6292 2.54506 10.4273 2.5 10.2568 2.5C9.89894 2.5 9.57931 2.55575 9.39743 2.63761L5.59736 4.45207L12.2945 4.45207C12.4141 4.45207 12.5298 4.44409 12.6549 4.43547L12.7133 4.43147ZM14.572 15.971L4.4863 5.57969V14.4111L8.07806 18.3333L14.572 18.3334V15.971ZM1.80959 10.383C1.74158 10.5742 1.66669 10.8652 1.66669 11.0233C1.66669 11.3744 1.8722 11.6997 2.13032 12.0469L3.83562 13.7522V6.19651L1.80959 10.383Z" fill="currentcolor"/>
</svg>
