<svg width="20" height="20" viewBox="0 0 20 20" fill="none" xmlns="http://www.w3.org/2000/svg">
<path d="M9.4097 2.50386C9.37465 2.50755 9.26213 2.52046 9.16067 2.52968C7.71813 2.68094 6.29773 3.2915 5.13927 4.26176C4.92529 4.43884 4.4383 4.92582 4.26121 5.13979C3.30197 6.28529 2.74119 7.57097 2.53459 9.09277C2.48847 9.43033 2.48847 10.5703 2.53459 10.9079C2.74119 12.4297 3.30197 13.7153 4.26121 14.8608C4.4383 15.0748 4.92529 15.5618 5.13927 15.7389C6.28482 16.6981 7.57056 17.2588 9.09242 17.4654C9.42999 17.5115 10.57 17.5115 10.9076 17.4654C12.4294 17.2588 13.7152 16.6981 14.8607 15.7389C15.0747 15.5618 15.5617 15.0748 15.7388 14.8608C16.698 13.7153 17.2588 12.4297 17.4654 10.9079C17.5115 10.5703 17.5115 9.43033 17.4654 9.09277C17.2588 7.57097 16.698 6.28529 15.7388 5.13979C15.5617 4.92582 15.0747 4.43884 14.8607 4.26176C13.7189 3.30626 12.4202 2.73812 10.9186 2.53706C10.7563 2.51492 10.5202 2.5057 10.083 2.50201C9.74912 2.49832 9.44475 2.50017 9.4097 2.50386ZM9.50194 3.30072C9.50194 3.51654 9.51669 3.98507 9.53699 4.42962C9.54805 4.64728 9.56097 4.95902 9.5665 5.12134C9.58679 5.69686 9.64767 7.20759 9.65689 7.34224L9.66611 7.4769L9.5831 7.46768C9.53699 7.46399 9.49456 7.45292 9.48718 7.44739C9.48165 7.44001 9.46873 7.31273 9.46135 7.16332C9.42815 6.50664 9.31931 3.95925 9.30825 3.58664L9.29718 3.17714L9.34883 3.16976C9.3765 3.16607 9.42262 3.16053 9.45213 3.15869L9.50194 3.15685V3.30072ZM11.2673 3.25645C11.2691 3.2583 11.2747 3.81537 11.2802 4.49418C11.2876 5.17484 11.2968 5.7854 11.3023 5.85181C11.3079 5.92006 11.306 5.97908 11.2968 5.98277C11.2894 5.98831 11.2433 5.98831 11.1972 5.98277L11.1123 5.9754L11.0994 5.43862C11.092 5.14163 11.0828 4.8133 11.0791 4.70631C11.0644 4.37982 11.0515 3.27121 11.0625 3.24354C11.0699 3.22325 11.0902 3.22141 11.1677 3.23432C11.2212 3.24539 11.2654 3.25461 11.2673 3.25645ZM7.00055 3.87439C7.01162 3.891 7.09832 4.90737 7.20531 6.23733C7.24036 6.68926 7.27541 7.10245 7.28094 7.15409C7.29017 7.24817 7.28832 7.25186 7.22929 7.28875C7.19609 7.30904 7.16289 7.32564 7.15551 7.32564C7.14997 7.32564 7.1389 7.27768 7.13337 7.21866C7.10754 6.97886 7.00793 5.82045 6.93783 4.983C6.89725 4.49049 6.86036 4.04963 6.85482 4.00167C6.8456 3.92051 6.84745 3.91313 6.89541 3.88731C6.95444 3.85595 6.98764 3.85041 7.00055 3.87439ZM12.079 4.24516C12.1306 4.26361 12.1361 4.27283 12.1472 4.37797C12.1657 4.56243 12.1601 5.44415 12.1398 5.44415C12.0863 5.44415 11.9756 5.38143 11.9664 5.34639C11.9609 5.32425 11.9554 5.06232 11.9554 4.76534C11.9554 4.16584 11.948 4.20089 12.079 4.24516ZM8.67183 4.33186C8.67183 4.38166 8.68474 4.65651 8.6995 4.94611C8.71426 5.23571 8.73086 5.60279 8.73824 5.76142C8.75115 6.08238 8.75484 6.07131 8.63125 6.07869C8.57037 6.08054 8.57037 6.08054 8.56669 5.98831C8.563 5.93666 8.55377 5.77618 8.5427 5.62861C8.53348 5.48104 8.51134 5.16193 8.49659 4.91844C8.48183 4.67495 8.46338 4.43331 8.45785 4.38166C8.44678 4.28943 8.44863 4.28574 8.49843 4.26729C8.52795 4.25623 8.5796 4.247 8.6128 4.247C8.67183 4.24516 8.67183 4.24516 8.67183 4.33186ZM13.789 4.58457L13.8517 4.61039L13.8646 4.85757C13.8701 4.99222 13.8738 5.28367 13.8701 5.50318L13.8646 5.9053L13.7871 5.86656L13.7096 5.82967L13.7041 5.21726C13.7004 4.8797 13.7023 4.59379 13.706 4.58088C13.7133 4.55321 13.7133 4.55321 13.789 4.58457ZM10.4206 4.82621C10.4317 4.83728 10.4575 5.73191 10.4593 6.18568L10.4612 6.45868L10.3745 6.44577C10.3247 6.44023 10.2841 6.4347 10.2822 6.43286C10.2767 6.42917 10.2214 5.06232 10.2214 4.92951V4.79301L10.3154 4.80407C10.3689 4.81145 10.4151 4.82067 10.4206 4.82621ZM14.6689 4.95718C14.691 4.983 14.6947 5.38697 14.7002 7.61524C14.7058 10.1737 14.7058 10.2401 14.6726 10.2401C14.6523 10.2401 14.6246 10.229 14.608 10.2161C14.5803 10.1958 14.5766 9.97264 14.5674 7.78679C14.56 6.46237 14.5508 5.25969 14.5453 5.11397L14.5342 4.84834L14.5877 4.88708C14.6191 4.90922 14.6541 4.94057 14.6689 4.95718ZM13.0142 5.33532C13.0234 5.3427 13.0327 5.44784 13.0345 5.56774C13.0437 5.9754 13.0456 8.47483 13.0363 8.48221C13.0327 8.4859 12.9994 8.47667 12.9626 8.46192L12.8961 8.43425V6.86449V5.29658L12.9478 5.30765C12.9755 5.31503 13.005 5.3261 13.0142 5.33532ZM7.92289 5.43862C7.92843 5.48842 7.93765 5.60094 7.94318 5.69317C7.94872 5.78356 7.96163 5.99015 7.9727 6.15063C7.99483 6.47528 7.99115 6.49557 7.886 6.49557C7.83066 6.49557 7.82328 6.49004 7.8159 6.4347C7.79745 6.32587 7.73289 5.41833 7.74211 5.40357C7.75134 5.39066 7.84726 5.35745 7.89153 5.35376C7.9026 5.35192 7.91736 5.39066 7.92289 5.43862ZM4.87179 5.90899C4.89209 6.10452 4.93267 6.51402 4.96218 6.81838C4.99354 7.12274 5.01937 7.38098 5.01937 7.39205C5.01937 7.41418 4.87733 7.48428 4.86257 7.46952C4.85335 7.4603 4.66888 5.82783 4.66888 5.75404C4.66888 5.70977 4.81092 5.52347 4.82937 5.54376C4.8349 5.54745 4.85335 5.71162 4.87179 5.90899ZM12.1048 6.10267L12.1583 6.13403L12.1601 6.53246C12.162 6.75013 12.1657 6.99361 12.1657 7.07293C12.1693 7.23895 12.149 7.26662 12.0494 7.23157L11.9923 7.21128V7.05264C11.9923 6.9641 11.9867 6.7077 11.9793 6.48082L11.9683 6.07131H12.0107C12.0328 6.07131 12.0753 6.08607 12.1048 6.10267ZM5.68161 6.81838C5.71481 7.17254 5.76831 7.77019 5.80336 8.14649L5.86608 8.82899L5.79413 8.90093L5.72404 8.97287L5.71112 8.82715C5.70374 8.74599 5.66685 8.36969 5.62811 7.9897C5.58937 7.60971 5.53403 7.05818 5.50636 6.76488L5.45471 6.23364L5.52666 6.16723C5.59122 6.10636 5.5986 6.10452 5.61151 6.13772C5.61889 6.15617 5.65025 6.46237 5.68161 6.81838ZM4.29994 7.04157C4.34053 7.40496 4.44752 8.37153 4.53975 9.18869C4.63199 10.0058 4.71869 10.7935 4.73529 10.9411C4.75005 11.0886 4.77587 11.3118 4.79063 11.4391C4.81645 11.6549 4.81645 11.6697 4.78694 11.6918C4.74267 11.725 4.72422 11.7213 4.72422 11.6826C4.72422 11.666 4.70762 11.5258 4.68733 11.3745C4.65412 11.1218 4.59878 10.6939 4.47519 9.73285C4.44936 9.53916 4.39956 9.15364 4.36451 8.87511C4.32761 8.59657 4.27412 8.18154 4.2446 7.95281C4.21509 7.72408 4.16528 7.33302 4.13392 7.08031C4.10072 6.82944 4.08043 6.60625 4.08596 6.58227C4.09887 6.53246 4.20771 6.35907 4.21878 6.37014C4.22247 6.37567 4.25936 6.67634 4.29994 7.04157ZM3.73547 7.8366C3.76314 8.05795 3.81479 8.46192 3.84984 8.73676C3.88489 9.00976 3.92916 9.35101 3.94946 9.49305L3.9845 9.75129L3.94577 9.7845C3.92363 9.80294 3.90149 9.81032 3.89412 9.80294C3.88674 9.79556 3.87198 9.72178 3.86091 9.64062C3.84984 9.55945 3.78159 9.08539 3.7078 8.58919L3.57683 7.68534L3.61926 7.55991C3.64139 7.49166 3.66538 7.43632 3.67091 7.43632C3.67829 7.43632 3.70596 7.61709 3.73547 7.8366ZM13.8628 7.59495C13.8886 7.62078 13.8923 7.73514 13.8923 8.58182V9.53916H13.8406C13.7281 9.53916 13.7299 9.56683 13.7226 8.5191L13.717 7.56544H13.7761C13.8074 7.56544 13.848 7.57835 13.8628 7.59495ZM9.82476 7.92514C10.2417 7.98785 10.6051 8.10406 10.9648 8.28852C11.1972 8.40842 11.3079 8.49143 11.5661 8.73861C11.9498 9.10568 12.1859 9.42664 12.4073 9.88041C12.7301 10.5408 12.8556 11.1255 13.0142 12.6934C13.0861 13.3962 13.1802 14.6708 13.2005 15.1929C13.206 15.3441 13.219 15.5931 13.23 15.7462C13.2503 16.0709 13.2743 16.0266 12.9884 16.165C12.5918 16.3568 12.2099 16.4896 11.7063 16.6132C11.0902 16.7645 10.6918 16.8124 10.083 16.8143L9.64029 16.8161L9.64398 16.604C9.64398 16.4878 9.65505 16.2166 9.66611 16.0045C9.72145 14.977 9.71039 13.6803 9.63844 12.9609C9.59786 12.5477 9.51854 12.046 9.47427 11.9353C9.46504 11.9113 9.50747 11.891 9.69009 11.8283C10.024 11.7121 10.3136 11.5664 10.3579 11.4944C10.4372 11.3579 10.2951 11.1624 10.1144 11.1624C10.083 11.1624 9.98893 11.1956 9.90223 11.2344C9.48902 11.4243 8.66076 11.6475 8.18299 11.6973C7.85279 11.7324 7.33997 11.7121 6.98395 11.6475C6.79026 11.6125 6.44346 11.4815 6.15385 11.3321C5.81996 11.1587 5.6152 10.9281 5.55433 10.6551C5.52112 10.5076 5.53034 10.2124 5.57277 10.0464C5.61889 9.86381 5.74802 9.59819 5.86608 9.44324C6.39181 8.75152 7.47648 8.15202 8.58882 7.94174C8.943 7.87533 9.44475 7.86796 9.82476 7.92514ZM15.5156 7.98232C15.582 8.00999 15.5894 8.01737 15.5894 8.08008C15.5931 8.58366 15.582 9.73469 15.5728 9.78265C15.5709 9.79925 15.475 9.8011 15.4344 9.78634C15.4086 9.77712 15.4049 9.67751 15.4049 8.86404C15.4049 8.28115 15.4123 7.95281 15.4234 7.95281C15.4326 7.95281 15.475 7.96572 15.5156 7.98232ZM16.3217 8.99501L16.3881 9.02268L16.3752 10.55C16.3604 12.4961 16.3586 12.5532 16.2885 12.7211C16.1741 12.9959 16.1797 13.0513 16.1907 11.8449C16.1944 11.2417 16.2037 10.6312 16.2073 10.4891C16.211 10.3471 16.2147 9.94682 16.2166 9.59819C16.2166 9.17762 16.2221 8.96734 16.235 8.96734C16.2461 8.96734 16.2848 8.98025 16.3217 8.99501ZM5.22782 9.45431C5.23889 9.60372 5.2352 9.61848 5.1817 9.73654L5.12267 9.86197L5.10053 9.67751C5.06549 9.38237 5.06549 9.36946 5.13558 9.32519C5.16694 9.30305 5.20015 9.2883 5.20568 9.29199C5.21122 9.29568 5.22228 9.36946 5.22782 9.45431ZM4.08781 10.5666C4.10441 10.7179 4.23354 11.7213 4.29994 12.2138C4.39956 12.9757 4.40694 13.0845 4.36266 13.0384C4.35713 13.0328 4.3147 12.7764 4.27043 12.4684C3.98266 10.4799 3.9845 10.4928 4.00849 10.4781C4.05829 10.4449 4.07489 10.4633 4.08781 10.5666ZM5.41597 11.4114C5.42704 11.4575 5.48054 11.9574 5.48054 12.0183C5.48054 12.07 5.41413 12.1179 5.38462 12.0884C5.37539 12.0792 5.35141 11.9224 5.33296 11.7416C5.31267 11.559 5.29238 11.369 5.28685 11.3192L5.27578 11.227L5.34034 11.3008C5.37724 11.3413 5.41044 11.3911 5.41597 11.4114ZM6.90463 12.1068C6.92492 12.1253 6.93783 12.1991 6.95444 12.3983C6.98211 12.758 6.9858 12.7303 6.91016 12.7303C6.83269 12.7303 6.83453 12.7359 6.80871 12.4112C6.78288 12.081 6.78288 12.0847 6.83269 12.0847C6.85667 12.0847 6.88803 12.0958 6.90463 12.1068ZM8.36561 12.1345C8.3693 12.153 8.37853 12.2636 8.38591 12.3798C8.39144 12.4961 8.40804 12.758 8.4228 12.9609C8.47445 13.7061 8.4763 13.8002 8.44494 13.8002C8.40989 13.8002 8.4062 13.7725 8.36561 13.2468C8.35086 13.0291 8.32319 12.6861 8.30474 12.485C8.28814 12.2839 8.27707 12.1161 8.2826 12.1124C8.3029 12.0902 8.35639 12.1068 8.36561 12.1345ZM4.89762 12.4887C4.90869 12.5053 4.97879 13.0956 5.06549 13.9016C5.09131 14.1451 5.11714 14.3794 5.12267 14.4237L5.13189 14.503L5.08578 14.4735C5.05073 14.4495 5.03782 14.4255 5.03782 14.3831C5.03782 14.2669 4.95849 13.5014 4.89762 13.0328C4.86257 12.7672 4.8349 12.533 4.8349 12.5108C4.8349 12.4721 4.87917 12.4573 4.89762 12.4887ZM15.5433 13.2597L15.5303 14.0308L15.4842 14.099C15.3791 14.254 15.3846 14.2835 15.3901 13.4202L15.3938 12.6289L15.4621 12.5588C15.499 12.5219 15.5359 12.4905 15.5433 12.4905C15.5488 12.4905 15.5488 12.8373 15.5433 13.2597ZM13.8369 14.4827C13.8462 15.5544 13.8443 15.6374 13.8148 15.6706C13.7963 15.6909 13.7797 15.7038 13.7742 15.6983C13.7613 15.6835 13.7429 13.3464 13.7576 13.3335C13.765 13.3261 13.7834 13.3224 13.8 13.3243C13.824 13.3298 13.8296 13.4608 13.8369 14.4827ZM7.81221 13.7485C7.82512 13.8629 7.87124 14.4108 7.88969 14.669C7.90076 14.8424 7.90076 14.8479 7.86017 14.8608C7.83804 14.8682 7.81221 14.8664 7.80483 14.8571C7.79192 14.8442 7.75134 14.4347 7.70153 13.8039L7.68862 13.6526H7.7458C7.7993 13.6526 7.80299 13.6563 7.81221 13.7485ZM6.36229 14.3942C6.37521 14.4071 6.38443 14.4532 6.38443 14.4993C6.38443 14.5473 6.40657 14.7963 6.43055 15.0545C6.50065 15.761 6.50618 15.8569 6.47482 15.8385C6.42686 15.8108 6.38443 15.7684 6.39365 15.7573C6.39734 15.7499 6.38996 15.6577 6.37521 15.5526C6.36229 15.4456 6.34569 15.2722 6.33831 15.1652C6.33094 15.0582 6.31433 14.8627 6.29958 14.7317C6.26453 14.4089 6.26637 14.372 6.30695 14.372C6.3254 14.372 6.34938 14.3812 6.36229 14.3942ZM7.23483 15.6356C7.24036 15.6762 7.25143 15.8274 7.25881 15.9713C7.27172 16.248 7.26619 16.2683 7.19056 16.2111C7.16842 16.1945 7.15366 16.1244 7.13153 15.9141C7.09279 15.5341 7.09094 15.5489 7.16289 15.5563C7.21638 15.5618 7.22376 15.5692 7.23483 15.6356Z" fill="currentcolor"/>
<path d="M6.57644 8.80863C6.38454 8.89166 6.36978 9.15181 6.55061 9.24406C6.68161 9.31049 6.81446 9.27912 6.88273 9.16473C7.01189 8.95439 6.80155 8.71084 6.57644 8.80863Z" fill="currentcolor"/>
<path d="M7.82651 8.98561C7.64938 9.09446 7.64938 9.35646 7.82651 9.46532C8.0018 9.57049 8.22876 9.43211 8.22876 9.22177C8.22876 9.01882 7.99627 8.88228 7.82651 8.98561Z" fill="currentcolor"/>
</svg>
