<svg width="20" height="20" viewBox="0 0 20 20" fill="none" xmlns="http://www.w3.org/2000/svg">
<path d="M9.87211 17.5C7.99057 17.5 6.2702 16.8293 4.94009 15.7199L1.66669 16.1561L2.9313 13.1116C2.4907 12.1632 2.24352 11.1104 2.24352 10C2.24352 5.85811 5.65897 2.5 9.87211 2.5C14.0849 2.5 17.5 5.85811 17.5 10C17.5 14.1427 14.085 17.5 9.87211 17.5ZM14.0374 9.97856V9.95767C14.0374 7.79344 12.4728 6.25022 9.77495 6.25022H6.86116V13.7502H9.73178C12.4506 13.7503 14.0374 12.1427 14.0374 9.97856ZM9.80707 11.9076H8.9548V8.09344H9.80707C11.0588 8.09344 11.8897 8.78956 11.8897 9.99011V10.011C11.8897 11.2217 11.0588 11.9076 9.80707 11.9076Z" fill="currentcolor"/>
</svg>
