<svg width="20" height="20" viewBox="0 0 20 20" fill="none" xmlns="http://www.w3.org/2000/svg">
<path fill-rule="evenodd" clip-rule="evenodd" d="M10 17.5C14.1421 17.5 17.5 14.1421 17.5 10C17.5 5.85786 14.1421 2.5 10 2.5C5.85786 2.5 2.5 5.85786 2.5 10C2.5 14.1421 5.85786 17.5 10 17.5ZM10.303 5H11.3636V6.07843H10.303V5ZM8.18182 6.61765H7.12121V7.69607H8.18182V6.61765ZM5.00082 10.3606C5.09144 11.925 6.00772 14.1667 9.24242 14.1667C12.8485 14.1667 14.4571 11.4706 14.8106 10.1226C15.2525 10.1226 16.2424 9.85295 16.6667 8.77452C16.4015 8.5049 15.3409 8.5049 14.8106 8.77452C14.8106 8.34314 14.5455 7.42647 14.0152 7.15686C13.6616 7.51634 13.1136 8.45098 13.75 9.31372C13.4849 9.85292 12.7778 9.85293 12.4243 9.85294H5.50002C5.21924 9.85294 4.98431 10.0755 5.00082 10.3606ZM5.5303 8.23529H6.59091V9.31372H5.5303V8.23529ZM7.12121 8.23529H8.18182V9.31372H7.12121V8.23529ZM8.71212 8.23529H9.77273V9.31372H8.71212V8.23529ZM10.303 8.23529H11.3636V9.31372H10.303V8.23529ZM11.8939 8.23529H12.9545V9.31372H11.8939V8.23529ZM9.77273 6.61765H8.71212V7.69607H9.77273V6.61765ZM11.3636 6.61765H10.303V7.69607H11.3636V6.61765Z" fill="currentcolor"/>
</svg>
