<svg width="20" height="20" viewBox="0 0 20 20" fill="none" xmlns="http://www.w3.org/2000/svg">
<path d="M2.11419 11.4506C2.03186 11.4491 1.9535 11.4666 1.88273 11.4961L1.88272 11.4961L1.88004 11.4973C1.80903 11.5285 1.74338 11.5732 1.68861 11.6306C1.6336 11.6857 1.58949 11.7514 1.56033 11.8248L1.56032 11.8248L1.5599 11.8259C1.53226 11.897 1.51699 11.9728 1.51678 12.0499M2.11419 11.4506C2.19242 11.4508 2.27088 11.4658 2.34525 11.4985C2.4156 11.5294 2.48067 11.5736 2.53514 11.6302C2.59337 11.6857 2.6364 11.7513 2.66696 11.8217L2.66764 11.8233L2.66763 11.8233C2.69841 11.8964 2.71358 11.9742 2.71358 12.0528C2.71358 12.1314 2.69841 12.2092 2.66763 12.2823C2.63779 12.3532 2.59408 12.4194 2.53559 12.4748C2.48086 12.5303 2.4156 12.5743 2.34364 12.6044L2.28583 12.466L2.34364 12.6044C2.27124 12.6346 2.19351 12.6501 2.11504 12.6499M2.11419 11.4506C2.11473 11.4506 2.11528 11.4506 2.11582 11.4506L2.11265 11.6006V11.4506C2.11316 11.4506 2.11368 11.4506 2.11419 11.4506ZM2.11504 12.6499C2.03569 12.6513 1.9569 12.6362 1.88366 12.6056C1.81054 12.5751 1.74454 12.5297 1.68988 12.4724C1.6348 12.4173 1.59146 12.3523 1.56146 12.281C1.53089 12.2084 1.5153 12.1301 1.51678 12.0499M2.11504 12.6499C2.11439 12.6499 2.11374 12.6499 2.11309 12.6499L2.11391 12.4999L2.11697 12.6499C2.11633 12.6499 2.11568 12.6499 2.11504 12.6499ZM1.51678 12.0499C1.51679 12.0494 1.51681 12.0488 1.51682 12.0483L1.66678 12.0515H1.51678C1.51678 12.051 1.51678 12.0504 1.51678 12.0499ZM4.58063 12.4218V8.2635C4.58248 8.19874 4.5832 8.13401 4.58284 8.0693L7.4485 12.5033L7.49282 12.5718H7.57448H8.40414H8.55414V12.4218V6.66669V6.51669H8.40414H7.73028H7.58028V6.66669V10.7121C7.57823 10.8044 7.5783 10.8967 7.58044 10.9891L4.7596 6.58577L4.71534 6.51669H4.6333H3.75677H3.60677V6.66669V12.4218V12.5718H3.75677H4.43063H4.58063V12.4218ZM13.123 11.7904L13.1239 11.6395H12.973H10.7417V9.94555H12.6753H12.8253V9.79555V9.18842V9.03842H12.6753H10.7417V7.42634H12.8273H12.9773V7.27634V6.66669V6.51669H12.8273H9.90133H9.75133V6.66669V12.4218V12.5718H9.90133H12.9692H13.1183L13.1192 12.4227L13.123 11.7904ZM13.4885 6.51669H13.3385V6.66669V7.27634V7.42634H13.4885H14.9978V12.4218V12.5718H15.1478H15.8217H15.9717V12.4218V7.42634H17.5H17.65V7.27634V6.66669V6.51669H17.5H13.4885Z" fill="currentcolor" stroke="currentcolor" stroke-width="0.3"/>
</svg>
