<svg width="20" height="20" viewBox="0 0 20 20" fill="none" xmlns="http://www.w3.org/2000/svg">
<path fill-rule="evenodd" clip-rule="evenodd" d="M10 2.5C5.85955 2.5 2.5 5.85955 2.5 10C2.5 14.1405 5.85955 17.5 10 17.5C14.1323 17.5 17.5 14.1405 17.5 10C17.5 5.85955 14.1323 2.5 10 2.5ZM14.9539 5.95716C15.8487 7.04718 16.3856 8.43817 16.4019 9.94305C16.1904 9.90241 14.0754 9.47125 11.9441 9.7397C11.8953 9.63395 11.8547 9.52005 11.8059 9.40619C11.6757 9.09709 11.5293 8.77984 11.3829 8.47886C13.7418 7.519 14.8156 6.13612 14.9539 5.95716ZM10 3.60629C11.6269 3.60629 13.1155 4.21638 14.2462 5.21692C14.1323 5.37961 13.1643 6.673 10.8866 7.52711C9.8373 5.59924 8.67409 4.02115 8.49513 3.77711C8.97503 3.66323 9.47941 3.60629 10 3.60629ZM7.27497 4.20824C7.44578 4.43601 8.58461 6.02223 9.65022 7.90942C6.65673 8.70662 4.01302 8.69036 3.72831 8.69036C4.14317 6.70553 5.48536 5.05423 7.27497 4.20824ZM3.59002 10.0082C3.59002 9.94305 3.59002 9.87798 3.59002 9.81292C3.86659 9.82103 6.97397 9.86172 10.1708 8.90186C10.3579 9.25975 10.5287 9.6258 10.6915 9.99184C10.6101 10.0163 10.5206 10.0407 10.4393 10.0651C7.13666 11.1307 5.37961 14.0428 5.23319 14.2869C4.21638 13.1562 3.59002 11.6513 3.59002 10.0082ZM10 16.41C8.5195 16.41 7.15293 15.9056 6.07104 15.0596C6.18492 14.8238 7.48642 12.3183 11.0981 11.0575C11.1144 11.0493 11.1226 11.0493 11.1388 11.0412C12.0417 13.3758 12.4078 15.3362 12.5054 15.8975C11.7326 16.231 10.8866 16.41 10 16.41ZM13.571 15.3118C13.506 14.9214 13.1643 13.0504 12.3265 10.7484C14.3357 10.4311 16.0927 10.9517 16.3124 11.025C16.0358 12.8064 15.0108 14.3438 13.571 15.3118Z" fill="currentcolor"/>
</svg>
