<svg width="20" height="20" viewBox="0 0 20 20" fill="none" xmlns="http://www.w3.org/2000/svg">
<path d="M16.1905 13.0803C16.1319 13.4403 15.7301 16.7634 15.6715 17.5C11.7247 17.3561 8.30894 17.3412 3.33331 17.5V16.6463C4.85534 16.3466 5.36327 16.3777 5.37574 15.466C5.43578 13.0444 5.49373 7.29153 5.37574 4.68469C5.34128 3.73181 4.96962 3.78857 3.33331 3.4794V2.62559C5.80717 2.70455 11.9025 2.91185 15.4873 2.5C15.3702 3.7807 15.2279 6.73547 15.2279 6.73547H14.4495C14.0794 5.30133 13.8214 3.70536 12.6163 3.70536H8.02925C7.68606 3.70536 7.66929 3.82256 7.66929 4.03181V9.51454C9.61125 9.53125 10.6324 9.43082 10.6324 9.43082C11.6292 9.39894 11.5552 9.14616 11.9969 7.24609H12.859C12.7115 10.6395 12.7281 9.31627 12.8004 12.6116H11.9383C11.6318 11.2694 11.6348 10.5677 10.6157 10.5525C10.6157 10.5525 9.89584 10.4855 7.66925 10.4855V15.1395C7.66925 16.0101 8.14643 16.4202 9.15085 16.4202H12.1392C14.2698 16.4202 14.3679 15.5833 15.4456 13.0803H16.1905V13.0803Z" fill="currentcolor"/>
</svg>
