<svg width="20" height="20" viewBox="0 0 20 20" fill="none" xmlns="http://www.w3.org/2000/svg">
<path fill-rule="evenodd" clip-rule="evenodd" d="M7.25495 1.66669H12.7451C14.4499 1.66669 15.8333 3.01061 15.8333 4.66671C15.8333 5.82726 15.1539 6.83447 14.1607 7.33333C15.1539 7.83221 15.8333 8.83945 15.8333 10C15.8333 11.6561 14.4499 13 12.7451 13C11.7753 13 10.9095 12.5652 10.3432 11.8854V15.3333C10.3432 16.9894 8.95976 18.3334 7.25495 18.3334C5.55013 18.3334 4.16667 16.9894 4.16667 15.3333C4.16667 14.1728 4.84607 13.1655 5.83936 12.6667C4.84607 12.1678 4.16667 11.1605 4.16667 10C4.16667 8.83945 4.84606 7.83221 5.83934 7.33333C4.84607 6.83447 4.16667 5.82726 4.16667 4.66671C4.16667 3.01061 5.55013 1.66669 7.25495 1.66669ZM4.85294 4.66671C4.85294 3.37881 5.92915 2.33335 7.25495 2.33335H9.65678V6.99998H7.25495L7.2475 6.99999C5.92511 6.99608 4.85294 5.95219 4.85294 4.66671ZM9.65695 9.96827C9.65684 9.97883 9.65678 9.98941 9.65678 10C9.65678 10.0106 9.65684 10.0212 9.65695 10.0317V12.3333H7.25493C5.92915 12.3333 4.85294 11.2879 4.85294 10C4.85294 8.71449 5.92515 7.67053 7.24756 7.66666L7.25495 7.66666H9.65678L9.65695 9.96827ZM10.3432 10.0279V9.97205C10.3586 8.70019 11.4235 7.67179 12.7352 7.66666H12.7451C12.7475 7.66666 12.75 7.66666 12.7524 7.66666C14.0748 7.67053 15.1471 8.71449 15.1471 10C15.1471 11.2879 14.0709 12.3334 12.7451 12.3334C11.4289 12.3334 10.3587 11.303 10.3432 10.0279ZM10.8044 7.66666C10.635 7.79984 10.4803 7.95006 10.3432 8.11464V7.66666H10.8044ZM12.7525 6.99999C12.75 6.99998 12.7475 6.99998 12.7451 6.99998C12.7413 6.99998 12.7376 6.99999 12.7338 7H10.3432V2.33335H12.7451C14.0709 2.33335 15.1471 3.37881 15.1471 4.66671C15.1471 5.95219 14.0749 6.99608 12.7525 6.99999ZM7.25495 13C5.92915 13 4.85294 14.0454 4.85294 15.3333C4.85294 16.6212 5.92915 17.6667 7.25495 17.6667C8.58074 17.6667 9.65695 16.6212 9.65695 15.3333V13H7.25495Z" fill="currentcolor" stroke="#2D2D31"/>
</svg>
