<svg width="20" height="20" viewBox="0 0 20 20" fill="none" xmlns="http://www.w3.org/2000/svg">
<path d="M16.9556 7.53165C16.6126 6.77215 15.9756 5.96519 15.4365 5.68038C15.8776 6.48734 16.1226 7.2943 16.2206 7.91139C15.3875 5.87025 13.9175 5.01582 12.7414 3.21203C12.6924 3.11709 12.6434 3.02215 12.5454 2.92722C12.4964 2.87975 12.4964 2.83228 12.4474 2.78481C12.3984 2.68987 12.3494 2.59494 12.3494 2.5C10.6833 3.44937 9.99731 5.11076 9.8013 6.15506C9.26228 6.20253 8.77226 6.29747 8.33124 6.53481C8.23324 6.58228 8.18423 6.67722 8.23324 6.77215C8.28224 6.86709 8.38024 6.91456 8.47825 6.86709C8.87026 6.67722 9.31128 6.58228 9.8013 6.53481H9.8503C9.8993 6.53481 9.99731 6.53481 10.0463 6.53481C10.3893 6.53481 10.7813 6.58228 11.1244 6.67722H11.1734C11.2224 6.67722 11.2714 6.72468 11.3694 6.72468C11.4184 6.72468 11.4674 6.77215 11.5164 6.77215C11.5654 6.77215 11.5654 6.81962 11.6144 6.81962C11.6634 6.81962 11.7124 6.86709 11.7614 6.91456L11.8104 6.96203C11.8594 7.00949 11.9084 7.00949 11.9574 7.05696C12.0064 7.05696 12.0064 7.10443 12.0554 7.10443C12.5944 7.43671 13.0354 7.86392 13.3784 8.43354C12.9864 8.14873 12.2514 7.91139 11.5654 8.00633C14.2605 9.33544 13.5255 13.8449 9.8013 13.6551C9.45829 13.6551 9.11527 13.5601 8.82126 13.4652C8.72326 13.4177 8.67425 13.4177 8.57625 13.3703C8.52725 13.3703 8.47825 13.3228 8.42924 13.3228C7.49821 12.8481 6.76318 11.9937 6.66517 10.9494C6.66517 10.9494 7.00819 9.71519 9.16427 9.71519C9.40928 9.71519 10.0463 9.0981 10.0463 8.90823C10.0463 8.86076 8.72326 8.33861 8.23324 7.86392C7.93922 7.62658 7.84122 7.48418 7.69421 7.38924C7.64521 7.34177 7.54721 7.2943 7.49821 7.24684C7.3512 6.67722 7.3022 6.06013 7.49821 5.44304C6.71417 5.72785 6.07715 6.25 5.63613 6.72468C5.34212 6.34494 5.39112 5.15823 5.39112 4.92089C5.39112 4.92089 5.14611 5.01582 5.14611 5.06329C4.9011 5.2057 4.60709 5.44304 4.41108 5.63291C4.16607 5.87025 3.92106 6.15506 3.72505 6.43987C3.23503 7.10443 2.89202 7.86392 2.69601 8.62342C2.69601 8.62342 2.64701 8.90823 2.598 9.28797C2.598 9.33544 2.598 9.38291 2.549 9.47785C2.549 9.62025 2.5 9.76266 2.5 9.90506C2.5 10 2.5 10.0475 2.5 10.1424V10.1899C2.5 14.2722 5.83214 17.5 9.99731 17.5C13.7215 17.5 16.8086 14.8892 17.3966 11.4241C17.3966 11.3291 17.3966 11.2342 17.4456 11.1392C17.5926 9.95253 17.4456 8.62342 16.9556 7.53165Z" fill="currentcolor"olor"olor"/>
</svg>
