<svg width="20" height="20" viewBox="0 0 20 20" fill="none" xmlns="http://www.w3.org/2000/svg">
<path fill-rule="evenodd" clip-rule="evenodd" d="M10 2.5C5.85775 2.5 2.5 5.94245 2.5 10.1902C2.5 13.5874 4.64875 16.4702 7.62925 17.4866C8.00425 17.5572 8.14075 17.32 8.14075 17.1158C8.14075 16.9339 8.13475 16.4494 8.131 15.8084C6.0445 16.2729 5.60425 14.7773 5.60425 14.7773C5.26375 13.8883 4.77175 13.6519 4.77175 13.6519C4.09075 13.1759 4.8235 13.1851 4.8235 13.1851C5.57575 13.2388 5.97175 13.9774 5.97175 13.9774C6.64075 15.152 7.7275 14.8127 8.15425 14.6161C8.22325 14.1194 8.41675 13.7808 8.63125 13.5889C6.96625 13.3947 5.215 12.7344 5.215 9.78794C5.215 8.94883 5.5075 8.26172 5.98675 7.72432C5.9095 7.53009 5.65225 6.74778 6.06025 5.68987C6.06025 5.68987 6.69025 5.48258 8.12275 6.47755C8.73458 6.30674 9.36583 6.21974 10 6.21882C10.6375 6.2219 11.2787 6.30711 11.878 6.47755C13.3097 5.48258 13.9382 5.6891 13.9382 5.6891C14.3477 6.74778 14.0897 7.53009 14.0132 7.72432C14.4932 8.26172 14.7842 8.94883 14.7842 9.78794C14.7842 12.7421 13.03 13.3924 11.3597 13.5828C11.629 13.82 11.8682 14.2891 11.8682 15.0069C11.8682 16.0341 11.8593 16.864 11.8593 17.1158C11.8593 17.3216 11.9942 17.5611 12.3752 17.4858C13.8687 16.9731 15.167 15.9929 16.0866 14.6837C17.0062 13.3746 17.5006 11.8027 17.5 10.1902C17.5 5.94245 14.1415 2.5 10 2.5Z" fill="currentcolor"/>
</svg>
