<svg width="20" height="20" viewBox="0 0 20 20" fill="none" xmlns="http://www.w3.org/2000/svg">
<path d="M16.9902 7.95153H13.0216L14.7271 2.70257C14.8149 2.43244 15.197 2.43251 15.2847 2.70257L16.9902 7.95153Z" fill="currentcolor"/>
<path d="M16.9904 7.95166L17.8509 10.6001C17.9294 10.8416 17.8434 11.1062 17.6379 11.2555L10.1901 16.6667L16.9904 7.95166Z" fill="currentcolor"/>
<path d="M10.1901 16.6667L13.0218 7.95166H16.9904L10.1901 16.6667Z" fill="currentcolor"/>
<path d="M3.38971 7.95153H7.35826L5.65272 2.70257C5.565 2.43244 5.18289 2.43251 5.09517 2.70257L3.38971 7.95153Z" fill="currentcolor"/>
<path d="M3.38924 7.95166L2.52874 10.6001C2.45025 10.8416 2.53621 11.1062 2.7417 11.2555L10.1895 16.6667L3.38924 7.95166Z" fill="currentcolor"/>
<path d="M10.1899 16.6667L7.35825 7.95166H3.38971L10.1899 16.6667Z" fill="currentcolor"/>
<path d="M10.1897 16.6667L13.0214 7.95166H7.35803L10.1897 16.6667Z" fill="currentcolor"/>
</svg>
