<svg width="20" height="20" viewBox="0 0 20 20" fill="none" xmlns="http://www.w3.org/2000/svg">
<path fill-rule="evenodd" clip-rule="evenodd" d="M13.0861 6.59278C12.2962 5.85424 11.2419 5.4519 10.1511 5.46844C8.15504 5.46844 6.4598 6.78842 5.85535 8.56586V8.5659C5.53486 9.49734 5.53486 10.5059 5.85535 11.4374H5.85816C6.46541 13.2121 8.15785 14.5321 10.1539 14.5321C11.1843 14.5321 12.0688 14.2737 12.7544 13.8174V13.8156C13.5613 13.292 14.1123 12.468 14.2838 11.5366H10.1511V8.64858H17.3679C17.4578 9.15013 17.5 9.6627 17.5 10.1725C17.5 12.4536 16.6683 14.3821 15.2213 15.6883L15.2228 15.6895C13.9549 16.8359 12.2146 17.5 10.1511 17.5C7.25821 17.5 4.61273 15.9017 3.31388 13.3691V13.3691C2.2287 11.25 2.22871 8.75329 3.31389 6.63413H3.3139L3.31388 6.63411C4.61273 4.09883 7.25821 2.50051 10.1511 2.50051C12.0516 2.47846 13.8874 3.17842 15.2706 4.45157L13.0861 6.59278Z" fill="currentcolor"/>
</svg>
