<svg width="20" height="20" viewBox="0 0 20 20" fill="none" xmlns="http://www.w3.org/2000/svg">
<path d="M10.0015 3.85085C12.0058 3.85085 12.2431 3.85964 13.0314 3.8948C13.7639 3.92704 14.1595 4.05011 14.4232 4.15267C14.7719 4.28746 15.0239 4.45155 15.2847 4.71235C15.5484 4.97607 15.7096 5.22514 15.8444 5.57384C15.947 5.83757 16.07 6.23608 16.1023 6.96572C16.1374 7.75689 16.1462 7.99424 16.1462 9.99561C16.1462 11.9999 16.1374 12.2373 16.1023 13.0255C16.07 13.7581 15.947 14.1536 15.8444 14.4174C15.7096 14.7661 15.5455 15.0181 15.2847 15.2789C15.021 15.5426 14.7719 15.7038 14.4232 15.8385C14.1595 15.9411 13.761 16.0642 13.0314 16.0964C12.2402 16.1316 12.0028 16.1404 10.0015 16.1404C7.99717 16.1404 7.75982 16.1316 6.97158 16.0964C6.23901 16.0642 5.84343 15.9411 5.5797 15.8385C5.231 15.7038 4.979 15.5397 4.71821 15.2789C4.45448 15.0151 4.29332 14.7661 4.15853 14.4174C4.05597 14.1536 3.9329 13.7551 3.90066 13.0255C3.8655 12.2343 3.85671 11.997 3.85671 9.99561C3.85671 7.99131 3.8655 7.75396 3.90066 6.96572C3.9329 6.23315 4.05597 5.83757 4.15853 5.57384C4.29332 5.22514 4.45741 4.97314 4.71821 4.71235C4.98193 4.44862 5.231 4.28746 5.5797 4.15267C5.84343 4.05011 6.24194 3.92704 6.97158 3.8948C7.75982 3.85964 7.99717 3.85085 10.0015 3.85085ZM10.0015 2.5C7.96494 2.5 7.71 2.50879 6.91004 2.54395C6.11301 2.57912 5.56505 2.70805 5.09035 2.89265C4.59514 3.08605 4.17611 3.34098 3.76001 3.76001C3.34098 4.17611 3.08605 4.59514 2.89265 5.08742C2.70805 5.56505 2.57912 6.11008 2.54395 6.90711C2.50879 7.71 2.5 7.96493 2.5 10.0015C2.5 12.038 2.50879 12.2929 2.54395 13.0929C2.57912 13.8899 2.70805 14.4379 2.89265 14.9126C3.08605 15.4078 3.34098 15.8268 3.76001 16.2429C4.17611 16.659 4.59514 16.9169 5.08742 17.1073C5.56505 17.292 6.11008 17.4209 6.90711 17.456C7.70707 17.4912 7.962 17.5 9.99854 17.5C12.0351 17.5 12.29 17.4912 13.09 17.456C13.887 17.4209 14.4349 17.292 14.9097 17.1073C15.4019 16.9169 15.821 16.659 16.2371 16.2429C16.6532 15.8268 16.911 15.4078 17.1015 14.9155C17.2861 14.4379 17.415 13.8929 17.4502 13.0958C17.4854 12.2959 17.4941 12.0409 17.4941 10.0044C17.4941 7.96787 17.4854 7.71293 17.4502 6.91297C17.415 6.11594 17.2861 5.56798 17.1015 5.09328C16.9169 4.59514 16.6619 4.17611 16.2429 3.76001C15.8268 3.34391 15.4078 3.08605 14.9155 2.89559C14.4379 2.71098 13.8929 2.58205 13.0958 2.54688C12.2929 2.50879 12.038 2.5 10.0015 2.5Z" fill="currentcolor"/>
<path d="M10.0015 6.14819C7.8741 6.14819 6.14818 7.87412 6.14818 10.0015C6.14818 12.1289 7.8741 13.8548 10.0015 13.8548C12.1288 13.8548 13.8548 12.1289 13.8548 10.0015C13.8548 7.87412 12.1288 6.14819 10.0015 6.14819ZM10.0015 12.501C8.62132 12.501 7.50196 11.3816 7.50196 10.0015C7.50196 8.62133 8.62132 7.50197 10.0015 7.50197C11.3816 7.50197 12.501 8.62133 12.501 10.0015C12.501 11.3816 11.3816 12.501 10.0015 12.501Z" fill="currentcolor"/>
<path d="M14.9067 5.99578C14.9067 6.49393 14.5023 6.89537 14.0071 6.89537C13.509 6.89537 13.1075 6.491 13.1075 5.99578C13.1075 5.49764 13.5119 5.09619 14.0071 5.09619C14.5023 5.09619 14.9067 5.50057 14.9067 5.99578Z" fill="currentcolor"/>
</svg>
