<svg width="20" height="20" viewBox="0 0 20 20" fill="none" xmlns="http://www.w3.org/2000/svg">
<path fill-rule="evenodd" clip-rule="evenodd" d="M10 17.5C14.1438 17.5 17.5 14.14 17.5 10C17.5 5.85625 14.1438 2.5 10 2.5C5.85625 2.5 2.5 5.85625 2.5 10C2.5 14.14 5.85625 17.5 10 17.5ZM5.04525 12.4197H5.85003V8.87216H5.04525V12.4197ZM5.44602 8.40696C5.69489 8.40696 5.89528 8.20616 5.89528 7.95515C5.89528 7.69746 5.69489 7.5 5.44602 7.5C5.20039 7.5 5 7.69746 5 7.95515C5 8.20616 5.20039 8.40696 5.44602 8.40696ZM8.66193 7.51004C7.30123 7.51004 6.44796 8.47055 6.44796 10.0067C6.44796 11.5428 7.30123 12.5 8.66193 12.5C10.0194 12.5 10.8727 11.5428 10.8727 10.0067C10.8727 8.47055 10.0194 7.51004 8.66193 7.51004ZM8.66193 8.24632C9.49257 8.24632 10.0226 8.92905 10.0226 10.0067C10.0226 11.081 9.49257 11.7637 8.66193 11.7637C7.82805 11.7637 7.30123 11.081 7.30123 10.0067C7.30123 8.92905 7.82805 8.24632 8.66193 8.24632ZM13.161 12.5C12.0879 12.5 11.3833 11.9511 11.3478 11.0609H12.1558C12.2075 11.506 12.6374 11.7972 13.2062 11.7972C13.7686 11.7972 14.1597 11.5094 14.1597 11.1078C14.1597 10.7597 13.9205 10.5589 13.3323 10.415L12.7279 10.2677C11.8681 10.0636 11.4609 9.63521 11.4609 8.94578C11.4609 8.08902 12.1816 7.51004 13.1965 7.51004C14.2243 7.51004 14.903 8.08568 14.9224 8.93574H14.1273C14.0886 8.48394 13.7233 8.21285 13.19 8.21285C12.6632 8.21285 12.3077 8.48059 12.3077 8.8822C12.3077 9.20348 12.5436 9.3909 13.1157 9.53146L13.6522 9.65863C14.5992 9.88286 15 10.2878 15 11.0074C15 11.9244 14.2889 12.5 13.161 12.5Z" fill="currentcolor"/>
</svg>
