<svg width="20" height="20" viewBox="0 0 20 20" fill="none" xmlns="http://www.w3.org/2000/svg">
<path d="M10.2363 5.66909C14.0107 2.73888 12.0736 0.833313 12.0736 0.833313C12.3618 3.86255 8.9548 4.5778 8.04154 6.6594C7.41835 8.07983 8.46826 9.32358 10.235 10.8911C10.0788 10.5439 9.83793 10.2066 9.59405 9.86505C8.76228 8.7002 7.89577 7.48671 10.2363 5.66909Z" fill="currentcolor"/>
<path d="M10.8388 11.5337C10.8388 11.5337 11.9744 10.6175 11.0751 9.59938C8.02673 6.14532 14.4092 4.5778 14.4092 4.5778C10.5124 6.45506 11.0942 7.56935 12.0736 8.923C13.1223 10.3745 10.8388 11.5337 10.8388 11.5337Z" fill="currentcolor"/>
<path d="M14.1827 14.2657C17.6805 12.4784 16.0632 10.7607 14.9344 10.9921C14.6577 11.0487 14.5344 11.0978 14.5344 11.0978C14.5344 11.0978 14.6371 10.9396 14.8333 10.8711C17.0664 10.0991 18.7839 13.1482 14.1124 14.3558C14.1124 14.3558 14.1665 14.3083 14.1827 14.2657Z" fill="currentcolor"/>
<path d="M6.90433 12.0035C4.71583 11.7161 8.10426 10.9247 8.10426 10.9247C8.10426 10.9247 6.7884 10.8374 5.17004 11.6067C3.25641 12.5169 9.90357 12.9309 13.3445 12.041C13.7022 11.8008 14.1966 11.5926 14.1966 11.5926C14.1966 11.5926 12.7886 11.8399 11.3863 11.9562C9.67046 12.0976 7.82838 12.1251 6.90433 12.0035Z" fill="currentcolor"/>
<path d="M7.73696 13.7101C6.51658 13.586 7.31566 13.0043 7.31566 13.0043C4.15773 14.035 9.07266 15.2038 13.4853 13.935C13.0163 13.7723 12.718 13.475 12.718 13.475C10.5614 13.8833 9.31512 13.8702 7.73696 13.7101Z" fill="currentcolor"/>
<path d="M8.2687 15.5568C7.04923 15.419 7.76168 15.0115 7.76168 15.0115C4.89505 15.7992 9.50531 17.4265 13.155 15.8883C12.5572 15.6597 12.1292 15.3958 12.1292 15.3958C10.5011 15.6988 9.74606 15.7226 8.2687 15.5568Z" fill="currentcolor"/>
<path d="M15.9023 16.4962C15.9023 16.4962 16.4296 16.9234 15.3217 17.2539C13.2151 17.8814 6.55364 18.0709 4.70312 17.2789C4.03791 16.9943 5.28537 16.5994 5.67778 16.5165C6.08702 16.4292 6.32088 16.4455 6.32088 16.4455C5.5811 15.933 1.53922 17.4518 4.2678 17.8867C11.7091 19.0734 17.8325 17.3523 15.9023 16.4962Z" fill="currentcolor"/>
<path d="M17.0833 17.4296C16.9612 18.9918 11.8054 19.3204 8.44798 19.109C6.25767 18.9709 5.8187 18.6257 5.81227 18.6207C7.90856 18.9606 11.4429 19.0224 14.3086 18.4921C16.8486 18.0218 17.0833 17.4296 17.0833 17.4296Z" fill="currentcolor"/>
</svg>
