<svg width="20" height="20" viewBox="0 0 20 20" fill="none" xmlns="http://www.w3.org/2000/svg">
<path fill-rule="evenodd" clip-rule="evenodd" d="M17.5 2.5H2.5V17.5H17.5V2.5ZM13.0148 14.3679L11.9298 15.1371C12.0189 15.3697 12.5533 16.6667 14.5695 16.6667C16.0704 16.6667 16.6667 15.4336 16.6667 14.672C16.6667 13.1515 15.8084 12.6685 15.2254 12.3733C15.1121 12.3159 14.9789 12.2608 14.839 12.2029C14.3041 11.9815 13.6707 11.7194 13.6707 11.1345C13.6707 10.926 13.7922 10.4681 14.3752 10.4681C14.6112 10.4681 14.9946 10.6336 15.2254 11.1345L16.278 10.3473C15.7072 9.19797 14.5609 9.16667 14.3225 9.16667C13.9582 9.16667 12.3468 9.37239 12.3468 11.1613C12.3468 12.7854 13.7156 13.3457 14.0866 13.4976C14.1171 13.5101 14.1408 13.5198 14.1565 13.5271C14.1872 13.5414 14.232 13.5578 14.2863 13.5776C14.6199 13.6994 15.3144 13.9529 15.3144 14.672C15.3144 14.9359 14.9987 15.3339 14.3185 15.3339C13.6383 15.3339 13.0999 14.6541 13.0148 14.3679ZM7.79755 14.5211L6.66667 15.2899C6.76794 15.7101 7.39246 16.6667 8.89467 16.6667C10.5285 16.6667 10.8988 15.2363 10.8762 14.5211V9.33584H9.48543V14.5211C9.48543 14.7848 9.22972 15.3346 8.7301 15.3346C8.23049 15.3346 7.88616 14.8071 7.79755 14.5211Z" fill="currentcolor"/>
</svg>
