<svg width="20" height="20" viewBox="0 0 20 20" fill="none" xmlns="http://www.w3.org/2000/svg">
<path fill-rule="evenodd" clip-rule="evenodd" d="M2.71799 3.59202C2.5 4.01984 2.5 4.57989 2.5 5.7V14.3C2.5 15.4201 2.5 15.9802 2.71799 16.408C2.90973 16.7843 3.21569 17.0903 3.59202 17.282C4.01984 17.5 4.5799 17.5 5.7 17.5H14.3C15.4201 17.5 15.9802 17.5 16.408 17.282C16.7843 17.0903 17.0903 16.7843 17.282 16.408C17.5 15.9802 17.5 15.4201 17.5 14.3V5.7C17.5 4.5799 17.5 4.01984 17.282 3.59202C17.0903 3.21569 16.7843 2.90973 16.408 2.71799C15.9802 2.5 15.4201 2.5 14.3 2.5H5.7C4.5799 2.5 4.01984 2.5 3.59202 2.71799C3.21569 2.90973 2.90973 3.21569 2.71799 3.59202ZM7.84364 6.84056C7.84364 7.39684 7.39362 7.8478 6.83849 7.8478C6.28336 7.8478 5.83333 7.39684 5.83333 6.84056C5.83333 6.28429 6.28336 5.83333 6.83849 5.83333C7.39362 5.83333 7.84364 6.28429 7.84364 6.84056ZM5.97079 8.58815H7.689V14.1667H5.97079V8.58815ZM8.73711 8.58815H10.4553V9.30386C10.7437 8.91075 11.2974 8.47624 12.1907 8.47624C13.6949 8.47624 14.1521 9.34249 14.1667 11.2225V14.1667H12.4485C12.4485 13.8029 12.4461 13.4372 12.4437 13.0715V13.0714V13.0713C12.4404 12.5527 12.4371 12.0343 12.4404 11.5221C12.4449 10.8539 12.4506 9.99139 11.5034 9.99139C10.6654 9.99139 10.4553 10.6533 10.4553 11.3124V14.1667H8.73711V8.58815Z" fill="currentcolor"/>
</svg>
