<svg width="20" height="20" viewBox="0 0 20 20" fill="none" xmlns="http://www.w3.org/2000/svg">
<path d="M9.33109 5.73913C9.33109 5.79431 9.27589 5.79431 9.27589 5.79431H9.22069C9.1655 5.79431 9.1655 5.73913 9.1103 5.68395C9.1103 5.68395 9.05511 5.62877 9.05511 5.57358C9.05511 5.5184 9.05511 5.5184 9.1103 5.5184L9.22069 5.57358C9.27589 5.62877 9.33109 5.68395 9.33109 5.73913ZM8.33755 5.18731C8.33755 4.9114 8.22716 4.74585 8.06157 4.74585C8.06157 4.74585 8.06157 4.80103 8.00638 4.80103V4.9114H8.17197C8.17197 5.02176 8.22716 5.07694 8.22716 5.18731H8.33755ZM10.2694 4.9114C10.3798 4.9114 10.435 5.02176 10.4902 5.18731H10.6006C10.5454 5.13213 10.5454 5.07694 10.5454 5.02176C10.5454 4.96658 10.5454 4.9114 10.4902 4.85622C10.435 4.80103 10.3798 4.74585 10.3246 4.74585C10.3246 4.74585 10.2694 4.80103 10.2142 4.80103C10.2142 4.85622 10.2694 4.85622 10.2694 4.9114ZM8.61354 5.79431C8.55834 5.79431 8.55834 5.79431 8.55834 5.73913C8.55834 5.68395 8.55834 5.62877 8.61354 5.57358C8.72393 5.57358 8.77912 5.5184 8.77912 5.5184C8.83432 5.5184 8.83432 5.57358 8.83432 5.57358C8.83432 5.62877 8.77912 5.68395 8.66873 5.79431H8.61354ZM8.00638 5.73913C7.78559 5.62877 7.7304 5.46322 7.7304 5.18731C7.7304 5.02176 7.7304 4.9114 7.84079 4.80103C7.89598 4.69067 8.00638 4.63549 8.11677 4.63549C8.22716 4.63549 8.28236 4.69067 8.39275 4.80103C8.44795 4.96658 8.50314 5.13213 8.50314 5.29767V5.35285V5.40804H8.55834V5.35285C8.61354 5.35285 8.61354 5.24249 8.61354 5.02176C8.61354 4.85622 8.61354 4.69067 8.50314 4.52512C8.39275 4.35958 8.28236 4.24921 8.06157 4.24921C7.89598 4.24921 7.7304 4.35958 7.6752 4.52512C7.56481 4.74585 7.54273 4.9114 7.54273 5.18731C7.54273 5.40804 7.62 5.62877 7.84079 5.84949C7.89598 5.79431 7.95118 5.79431 8.00638 5.73913ZM14.9059 13.5198C14.9611 13.5198 14.9611 13.4977 14.9611 13.4481C14.9611 13.3267 14.9059 13.1832 14.7403 13.0232C14.5747 12.8576 14.2987 12.7528 13.9676 12.7086C13.9124 12.7031 13.8572 12.7031 13.8572 12.7031C13.802 12.6921 13.802 12.6921 13.7468 12.6921C13.6916 12.6866 13.5812 12.6755 13.526 12.6645C13.6916 12.1513 13.7468 11.6988 13.7468 11.3015C13.7468 10.7497 13.6364 10.3634 13.4156 10.0323C13.1948 9.70121 12.974 9.53566 12.6981 9.48048C12.6429 9.53566 12.6429 9.53566 12.6429 9.59084C12.9188 9.70121 13.1948 9.92194 13.3604 10.253C13.526 10.6393 13.5812 10.9704 13.5812 11.3567C13.5812 11.6657 13.526 12.1237 13.3052 12.7086C13.0844 12.7969 12.8636 13.0011 12.6981 13.3212C12.6981 13.3708 12.6981 13.3984 12.7533 13.3984C12.7533 13.3984 12.8084 13.3487 12.8636 13.2549C12.974 13.1611 13.0292 13.0673 13.1396 12.9735C13.3052 12.8797 13.4156 12.83 13.5812 12.83C13.8572 12.83 14.1332 12.8687 14.2987 12.9459C14.5195 13.0177 14.6299 13.0949 14.6851 13.1832C14.7403 13.266 14.7955 13.3432 14.8507 13.415C14.8507 13.4867 14.9059 13.5198 14.9059 13.5198ZM9.82785 5.5184C9.77266 5.46322 9.77266 5.35285 9.77266 5.24249C9.77266 5.02176 9.77266 4.9114 9.88305 4.74585C9.99344 4.63549 10.1038 4.5803 10.2142 4.5803C10.3798 4.5803 10.4902 4.69067 10.6006 4.80103C10.6558 4.96658 10.711 5.07694 10.711 5.24249C10.711 5.5184 10.6006 5.68395 10.3798 5.73913C10.3798 5.73913 10.435 5.79431 10.4902 5.79431C10.6006 5.79431 10.6558 5.84949 10.7662 5.90468C10.8214 5.57358 10.8766 5.35285 10.8766 5.07694C10.8766 4.74585 10.8214 4.52512 10.711 4.35958C10.5454 4.19403 10.3798 4.13885 10.159 4.13885C9.99344 4.13885 9.82785 4.19403 9.66226 4.30439C9.55187 4.46994 9.49668 4.5803 9.49668 4.74585C9.49668 5.02176 9.55187 5.24249 9.66226 5.46322C9.71746 5.46322 9.77266 5.5184 9.82785 5.5184ZM10.4902 6.40132C9.77266 6.89795 9.22069 7.11868 8.77912 7.11868C8.39275 7.11868 8.00638 6.95314 7.6752 6.67723C7.7304 6.78759 7.78559 6.89795 7.84079 6.95314L8.17197 7.28423C8.39275 7.50496 8.66873 7.61532 8.94471 7.61532C9.33109 7.61532 9.77266 7.39459 10.3246 7.00832L10.8214 6.67723C10.9318 6.56686 11.0422 6.4565 11.0422 6.29095C11.0422 6.23577 11.0422 6.18059 10.987 6.18059C10.9318 6.07022 10.6558 5.90468 10.1038 5.73913C9.60707 5.5184 9.22069 5.40804 8.99991 5.40804C8.83432 5.40804 8.55834 5.5184 8.17197 5.73913C7.84079 5.95986 7.62 6.18059 7.62 6.40132C7.62 6.40132 7.6752 6.4565 7.7304 6.56686C8.06157 6.84277 8.39275 7.00832 8.72393 7.00832C9.1655 7.00832 9.71746 6.78759 10.435 6.23577V6.34613C10.4902 6.34613 10.4902 6.40132 10.4902 6.40132ZM11.7597 17.5481C11.9805 17.9631 12.3669 18.1717 12.8084 18.1717C12.9188 18.1717 13.0292 18.1551 13.1396 18.122C13.25 18.0999 13.3604 18.0613 13.4156 18.0172C13.4708 17.9785 13.526 17.9399 13.5812 17.8958C13.6916 17.8571 13.6916 17.8295 13.7468 17.8019L14.6851 16.9908C14.9059 16.8147 15.1267 16.6608 15.4027 16.5272C15.6235 16.3948 15.8442 16.3065 15.9546 16.2568C16.1202 16.2127 16.2306 16.1465 16.341 16.0582C16.3962 15.9754 16.4514 15.8706 16.4514 15.7381C16.4514 15.5781 16.341 15.4567 16.2306 15.3684C16.1202 15.2801 16.0098 15.2194 15.8994 15.1808C15.789 15.1422 15.6787 15.0539 15.5131 14.9049C15.4027 14.7614 15.2923 14.5628 15.2371 14.3034L15.1819 13.9833C15.1267 13.8344 15.1267 13.724 15.0715 13.6633C15.0715 13.6467 15.0715 13.6412 15.0163 13.6412C14.9611 13.6412 14.8507 13.6909 14.7955 13.7847C14.6851 13.8785 14.5747 13.9833 14.4643 14.0937C14.4091 14.2041 14.2436 14.3034 14.1332 14.3972C13.9676 14.491 13.802 14.5407 13.6916 14.5407C13.25 14.5407 13.0292 14.4193 12.8636 14.182C12.7533 14.0054 12.6981 13.8012 12.6429 13.5695C12.5325 13.4757 12.4773 13.426 12.3669 13.426C12.0909 13.426 11.9805 13.713 11.9805 14.2924V14.4745V15.1146V15.6057V15.843V16.0085C11.9805 16.0582 11.9253 16.1686 11.9253 16.3396C11.8701 16.5107 11.8701 16.7049 11.8701 16.9246L11.7597 17.5371V17.5465V17.5481ZM3.75627 17.2545C4.26959 17.3296 4.86019 17.4902 5.52807 17.7352C6.19594 17.978 6.60439 18.1049 6.75342 18.1049C7.1398 18.1049 7.45993 17.9338 7.72488 17.6033C7.78007 17.4962 7.78007 17.3704 7.78007 17.2258C7.78007 16.7044 7.46545 16.0449 6.83622 15.2448L6.46088 14.7427C6.38361 14.6378 6.28977 14.4778 6.16834 14.2626C6.05243 14.0474 5.94756 13.8818 5.86476 13.7659C5.79301 13.639 5.6771 13.5121 5.52807 13.3852C5.38456 13.2582 5.21897 13.1755 5.03682 13.1313C4.805 13.1755 4.64493 13.2527 4.56765 13.3576C4.49038 13.4624 4.44622 13.5783 4.43518 13.6997C4.41862 13.8156 4.3855 13.8928 4.33031 13.9315C4.27511 13.9646 4.18128 13.9922 4.05433 14.0198C4.02673 14.0198 3.97705 14.0198 3.9053 14.0253H3.75627C3.46373 14.0253 3.26502 14.0584 3.16015 14.1136C3.02216 14.2736 2.9504 14.4557 2.9504 14.6488C2.9504 14.7371 2.97248 14.8861 3.01664 15.0958C3.06079 15.3 3.08287 15.4655 3.08287 15.5814C3.08287 15.8077 3.01664 16.0339 2.87865 16.2602C2.74066 16.4974 2.6689 16.674 2.6689 16.7998C2.7241 17.0139 3.08839 17.1646 3.75627 17.2529V17.2545ZM5.5943 12.2368C5.5943 11.8561 5.69365 11.4367 5.89788 10.94C6.09659 10.4434 6.29529 10.1123 6.48848 9.89159C6.47744 9.8364 6.44984 9.8364 6.40569 9.8364L6.35049 9.78122C6.19042 9.94677 5.99723 10.333 5.76541 10.8849C5.53359 11.3815 5.41215 11.8395 5.41215 12.1761C5.41215 12.4244 5.47287 12.6397 5.58326 12.8273C5.70469 13.0094 5.99723 13.2743 6.46088 13.6109L7.04596 13.9916C7.66968 14.5324 8.00086 14.9076 8.00086 15.1284C8.00086 15.2443 7.94566 15.3601 7.78007 15.4871C7.66968 15.6195 7.52065 15.6857 7.3937 15.6857C7.38266 15.6857 7.37714 15.6967 7.37714 15.7243C7.37714 15.7299 7.43234 15.8402 7.54825 16.0554C7.78007 16.37 8.27684 16.5245 8.93919 16.5245C10.1535 16.5245 11.0918 16.0278 11.8094 15.0346C11.8094 14.7587 11.8094 14.5876 11.7542 14.5159V14.3117C11.7542 13.953 11.8094 13.6826 11.9198 13.506C12.0302 13.3294 12.1406 13.2467 12.3062 13.2467C12.4166 13.2467 12.5269 13.2853 12.6373 13.3681C12.6925 12.9432 12.6925 12.5734 12.6925 12.2423C12.6925 11.7402 12.6925 11.3263 12.5821 10.94C12.5269 10.609 12.4166 10.333 12.3062 10.1123C12.1958 9.94677 12.0854 9.78122 11.975 9.61568C11.8646 9.45013 11.8094 9.28458 11.699 9.11904C11.6438 8.89831 11.5886 8.73276 11.5886 8.45685C11.423 8.18094 11.3126 7.90503 11.147 7.62912C11.0366 7.35321 10.9263 7.0773 10.8159 6.85657L10.3191 7.24284C9.76714 7.62912 9.32557 7.79466 8.93919 7.79466C8.60802 7.79466 8.33204 7.73948 8.16645 7.51875L7.83527 7.24284C7.83527 7.40839 7.78007 7.62912 7.66968 7.84985L7.32194 8.51203C7.16739 8.89831 7.0846 9.11904 7.06804 9.28458C7.04596 9.39495 7.0294 9.50531 7.01836 9.50531L6.60439 10.333C6.1573 11.1608 5.931 11.9278 5.931 12.5624C5.931 12.6893 5.94204 12.8218 5.96412 12.9542C5.71573 12.7831 5.5943 12.5458 5.5943 12.2368ZM9.54635 17.4571C8.8288 17.4571 8.27684 17.5542 7.89047 17.7468V17.7302C7.61448 18.0613 7.30538 18.2324 6.87485 18.2324C6.60439 18.2324 6.17938 18.1275 5.60534 17.9178C5.02578 17.7192 4.51245 17.5669 4.06537 17.4664C4.02121 17.4537 3.92186 17.435 3.76179 17.4096C3.60724 17.3848 3.46373 17.3594 3.33678 17.334C3.22086 17.3092 3.08839 17.2716 2.94488 17.2209C2.80689 17.1773 2.6965 17.1204 2.6137 17.0515C2.53753 16.9819 2.5 16.9036 2.5 16.8158C2.5 16.7276 2.51877 16.6332 2.5563 16.5328C2.59163 16.4721 2.63026 16.4114 2.6689 16.3562C2.70754 16.2955 2.74066 16.2403 2.76273 16.1851C2.79585 16.1354 2.81793 16.0858 2.84001 16.0306C2.86209 15.9809 2.88417 15.9313 2.89521 15.8706C2.90624 15.8154 2.91728 15.7602 2.91728 15.705C2.91728 15.6498 2.89521 15.4843 2.85105 15.1918C2.80689 14.9049 2.78481 14.7228 2.78481 14.6455C2.78481 14.4027 2.84001 14.2096 2.96144 14.0716C3.08287 13.9337 3.19878 13.8619 3.32022 13.8619H3.95497C4.00465 13.8619 4.08192 13.8344 4.19784 13.7681C4.23647 13.6798 4.26959 13.6081 4.29167 13.5419C4.31927 13.4757 4.33031 13.426 4.34135 13.4039C4.35239 13.3708 4.36343 13.3377 4.37446 13.3101C4.39654 13.2715 4.42414 13.2273 4.46278 13.1832C4.41862 13.128 4.39654 13.0563 4.39654 12.968C4.39654 12.9073 4.39654 12.8521 4.40758 12.819C4.40758 12.6203 4.50142 12.3389 4.70012 11.9692L4.89331 11.6215C5.05338 11.3236 5.17481 11.1028 5.26312 10.8821C5.35696 10.6614 5.45631 10.3303 5.5667 9.88883C5.65502 9.50255 5.86476 9.11628 6.19594 8.73L6.60991 8.23336C6.89693 7.90227 7.0846 7.62636 7.18947 7.40563C7.29435 7.1849 7.34954 6.90899 7.34954 6.68826C7.34954 6.5779 7.32194 6.24681 7.26123 5.69498C7.20603 5.14316 7.17843 4.59134 7.17843 4.0947C7.17843 3.70843 7.21155 3.43252 7.28331 3.1566C7.35506 2.88069 7.48201 2.60478 7.66968 2.38406C7.83527 2.16333 8.05605 1.9426 8.38723 1.83223C8.71841 1.72187 9.10478 1.66669 9.54635 1.66669C9.71194 1.66669 9.87753 1.66669 10.0431 1.72187C10.2087 1.72187 10.4295 1.77705 10.7055 1.88742C10.9263 1.99778 11.147 2.10814 11.3126 2.27369C11.5334 2.43924 11.699 2.71515 11.8646 2.99106C11.975 3.32215 12.0854 3.65324 12.1406 4.0947C12.1958 4.37061 12.1958 4.64652 12.251 5.0328C12.251 5.36389 12.3062 5.58462 12.3062 5.75017C12.3614 5.91571 12.3614 6.13644 12.4166 6.41235C12.4718 6.63308 12.5269 6.85381 12.6373 7.01936C12.7477 7.24008 12.8581 7.46081 13.0237 7.68154C13.1893 7.95745 13.4101 8.23336 13.6309 8.56446C14.1276 9.11628 14.514 9.72328 14.7348 10.3303C15.0108 10.8821 15.1764 11.5995 15.1764 12.3665C15.1764 12.7473 15.1212 13.117 15.0108 13.4757C15.1212 13.4757 15.1764 13.5198 15.2316 13.5971C15.2868 13.6743 15.342 13.8399 15.3972 14.0992L15.4523 14.5076C15.5075 14.629 15.5627 14.7449 15.7283 14.8442C15.8387 14.9435 15.9491 15.0263 16.1147 15.0925C16.2251 15.1477 16.3907 15.2249 16.5011 15.3243C16.6115 15.4346 16.6667 15.5505 16.6667 15.6719C16.6667 15.8595 16.6115 15.9975 16.5011 16.0968C16.3907 16.2072 16.2803 16.2844 16.1147 16.3341C16.0043 16.3893 15.7835 16.4997 15.4523 16.6553C15.1764 16.8186 14.9004 17.0167 14.6244 17.2512L14.0724 17.7208C13.8517 17.936 13.6309 18.0906 13.4653 18.1844C13.2997 18.2837 13.0789 18.3334 12.8581 18.3334L12.4718 18.2892C12.0302 18.1733 11.7542 17.9526 11.5886 17.616C10.7055 17.5089 9.98792 17.456 9.54635 17.456" fill="currentcolor"/>
</svg>
