<svg width="20" height="20" viewBox="0 0 20 20" fill="none" xmlns="http://www.w3.org/2000/svg">
<path d="M4.28125 6.53648C4.28125 6.35419 4.1875 6.1719 4.09375 6.08075L2.6875 4.44012V4.16669H7L10.375 11.3672L13.375 4.16669H17.5V4.44012L16.2813 5.53387C16.1875 5.62502 16.0938 5.71617 16.1875 5.89846V14.1016C16.1875 14.1927 16.1875 14.375 16.2813 14.4662L17.4062 15.5599V15.8334H11.5V15.5599L12.7188 14.375C12.8125 14.2839 12.8125 14.1927 12.8125 14.0104V7.35679L9.4375 15.6511H9.0625L5.125 7.35679V12.9167C5.125 13.1901 5.21875 13.3724 5.3125 13.5547L6.90625 15.3776V15.6511H2.5V15.3776L4.09375 13.5547C4.28125 13.3724 4.375 13.1901 4.28125 12.9167V6.53648Z" fill="currentcolor"/>
</svg>
