<svg width="20" height="20" viewBox="0 0 20 20" fill="none" xmlns="http://www.w3.org/2000/svg">
<path d="M9.15958 12.5782C8.64245 11.9979 8.2902 11.3045 8.17779 10.5281C7.95295 10.8748 7.76558 11.2517 7.63068 11.6587C6.94117 13.7314 8.14031 16.3167 10.1788 17.0704C11.9326 17.6583 13.9037 16.6106 15.2002 15.465C15.3951 15.2012 16.9315 13.8369 16.1671 13.6862C13.9037 14.8545 10.9058 14.5228 9.15958 12.5782ZM9.60926 8.19915C10.3887 8.19161 9.63924 7.87505 9.31697 7.63386C8.53753 7.20424 7.62318 6.9932 6.73882 6.9932C3.85339 7.02335 1.76613 8.8398 2.74418 11.8471C3.44868 14.7715 5.97437 17.1231 8.95723 17.5C7.42083 16.5277 6.49149 14.7037 6.49149 12.8873C6.55145 10.9804 7.72061 8.74182 9.60926 8.19915ZM3.10392 7.20424C5.38229 5.51592 9.00969 5.65158 10.9733 7.77706C11.7377 8.61369 12.2624 10.0382 11.5654 11.0708C10.2613 12.4878 13.8737 12.6762 14.6456 12.4652C17.4486 11.9225 18.1906 8.64384 16.8566 6.38269C15.5825 3.82006 12.757 2.47844 9.98399 2.50105C6.94117 2.44829 4.20563 4.38534 3.10392 7.20424Z" fill="currentcolor"/>
</svg>
