<svg width="20" height="20" viewBox="0 0 20 20" fill="none" xmlns="http://www.w3.org/2000/svg">
<path d="M15.7081 12.7075C15.1826 14.5723 14.0748 16.2261 12.5706 17.5C10.9239 15.938 9.63165 14.7121 8.61749 13.7501" stroke="currentcolor"/>
<path d="M15.6085 7.26054C15.0498 5.41504 13.9855 3.7783 12.5706 2.5C11.0547 4.0338 9.83921 5.26374 8.8645 6.25" stroke="currentcolor"/>
<path d="M10.6031 8.4818L17.4194 6.37097C17.7855 7.51118 17.9839 8.73146 17.9839 10C17.9839 11.2685 17.7855 12.4888 17.4194 13.629L10.6031 11.7821" stroke="currentcolor"/>
<path fill-rule="evenodd" clip-rule="evenodd" d="M4.5 5.40326C3.39543 5.40326 2.5 6.29869 2.5 7.40326V12.1129C2.5 13.2175 3.39543 14.1129 4.5 14.1129H9.20968C10.3142 14.1129 11.2097 13.2175 11.2097 12.1129V7.40326C11.2097 6.29869 10.3142 5.40326 9.20968 5.40326H4.5ZM5.60596 7.33868L6.74667 9.2701H6.95543L8.09614 7.33868H9.27413L7.41022 10.4561V12.1774H6.29188V10.4561L4.43542 7.33868H5.60596Z" fill="currentcolor"/>
</svg>
