<svg width="20" height="20" viewBox="0 0 20 20" fill="none" xmlns="http://www.w3.org/2000/svg">
<path d="M10.2222 2.66003C9.83543 2.44618 9.33124 2.44714 8.94415 2.66003C7.00547 3.71193 5.06679 4.76415 3.12778 5.81557C2.75047 6.01072 2.49599 6.4091 2.50005 6.82259V13.1783C2.49732 13.5998 2.76493 14.0021 3.15196 14.1945C3.70891 14.4859 4.25002 14.8068 4.81703 15.0787C5.47201 15.3951 6.29145 15.4651 6.95443 15.1351C7.49259 14.8616 7.73162 14.2533 7.73095 13.6943C7.73528 11.5967 7.73162 9.49914 7.73262 7.40159C7.7454 7.30837 7.67424 7.20873 7.57082 7.21098C7.32306 7.20713 7.07497 7.20873 6.82722 7.21033C6.73359 7.20163 6.64223 7.27808 6.6493 7.3706C6.64596 9.45464 6.64996 11.5393 6.64729 13.6237C6.65269 13.912 6.45458 14.1891 6.17196 14.2865C5.51924 14.5114 3.65621 13.3221 3.65621 13.3221C3.58784 13.2909 3.54442 13.218 3.55112 13.1456C3.55112 11.0487 3.55145 8.95177 3.55112 6.85518C3.54172 6.77066 3.59471 6.69454 3.67366 6.66002C5.60595 5.61432 7.53724 4.566 9.46952 3.51966C9.53661 3.47562 9.6302 3.47575 9.69715 3.51998C11.6294 4.566 13.5611 5.61336 15.4937 6.65912C15.5729 6.69357 15.6236 6.77098 15.6156 6.85518C15.6152 8.95177 15.6162 11.0487 15.6149 13.1453C15.6206 13.2195 15.5816 13.2914 15.5111 13.324C13.5969 14.364 11.6609 15.3705 9.76394 16.4408C9.68118 16.4875 9.58744 16.5403 9.49471 16.4889C8.99586 16.2176 8.50307 15.9358 8.00589 15.6619C7.95185 15.6287 7.88302 15.6145 7.82664 15.6515C7.60368 15.767 7.39405 15.8606 7.13808 15.9602C6.77853 16.1002 6.836 16.1574 7.16021 16.3431C7.74168 16.6666 8.3241 16.9889 8.90551 17.3127C9.28826 17.5476 9.80257 17.5643 10.1977 17.3472C12.1367 16.2967 14.075 15.2448 16.0144 14.1943C16.4004 14.0007 16.6694 13.6001 16.6666 13.1782V6.82259C16.6704 6.41748 16.4256 6.02621 16.0597 5.82817C14.1143 4.77115 12.1679 3.71642 10.2222 2.66003Z" fill="currentcolor"/>
<path d="M13.1478 7.43192C12.3868 7.03162 11.4814 7.0103 10.6358 7.06261C10.0248 7.12196 9.38224 7.28773 8.9371 7.71831C8.48056 8.1512 8.3812 8.85018 8.59804 9.41529C8.75345 9.81457 9.1446 10.0743 9.54909 10.2116C10.0702 10.3925 10.6174 10.4484 11.1649 10.5043C11.6642 10.5553 12.1637 10.6064 12.6436 10.7522C12.8397 10.8161 13.068 10.9138 13.128 11.1235C13.1834 11.3719 13.1227 11.6606 12.9176 11.8331C12.2661 12.3401 10.454 12.2624 9.81031 11.8634C9.5501 11.6934 9.43795 11.3925 9.39236 11.1058C9.3873 11.0164 9.31413 10.9345 9.21543 10.9412C8.96834 10.9384 8.72125 10.939 8.47416 10.9409C8.38793 10.9338 8.2983 10.9941 8.29357 11.0806C8.24281 12.394 9.46965 12.9666 10.6207 13.0927C11.2783 13.1543 11.9504 13.1508 12.598 13.012C13.0848 12.903 13.5728 12.7024 13.9079 12.3337C14.3212 11.8857 14.4024 11.2187 14.2171 10.6606C14.0754 10.2442 13.6705 9.97713 13.2566 9.83973C12.6938 9.64997 12.0267 9.54799 11.517 9.50025C10.776 9.43085 9.89547 9.4592 9.68576 8.98048C9.60214 8.72982 9.67331 8.41858 9.90761 8.2644C10.5275 7.85098 11.7891 7.90588 12.4311 8.21472C12.7259 8.35987 12.8967 8.65791 12.9672 8.95884C12.9803 9.04726 13.0408 9.13946 13.1449 9.13562C13.3902 9.14043 13.6356 9.1369 13.881 9.13722C13.9653 9.14304 14.0576 9.09624 14.0741 9.01141C14.0637 8.38246 13.737 7.73867 13.1478 7.43192Z" fill="currentcolor"/>
</svg>
