<svg width="20" height="20" viewBox="0 0 20 20" fill="none" xmlns="http://www.w3.org/2000/svg">
<path fill-rule="evenodd" clip-rule="evenodd" d="M5.0866 5.27591C5.57294 5.67602 5.75539 5.64549 6.66867 5.58379L15.2785 5.0603C15.4611 5.0603 15.3093 4.87584 15.2484 4.84519L13.8185 3.79847C13.5445 3.58308 13.1795 3.33641 12.4798 3.39811L4.14292 4.01383C3.83887 4.04436 3.77815 4.19829 3.89923 4.32167L5.0866 5.27591ZM5.60352 7.30768V16.4807C5.60352 16.9737 5.84681 17.1581 6.3944 17.1276L15.8566 16.5732C16.4045 16.5427 16.4655 16.2036 16.4655 15.8031V6.69168C16.4655 6.29186 16.3136 6.07625 15.9782 6.10702L6.09014 6.69168C5.72521 6.72274 5.60349 6.90757 5.60349 7.30768H5.60352ZM14.9446 7.79973C15.0053 8.07705 14.9446 8.35412 14.6702 8.3853L14.2143 8.47728V15.2494C13.8185 15.4648 13.4534 15.588 13.1493 15.588C12.6623 15.588 12.5403 15.4339 12.1755 14.9725L9.19338 10.2319V14.8185L10.1371 15.0341C10.1371 15.0341 10.1371 15.588 9.37571 15.588L7.27683 15.7113C7.21586 15.588 7.27683 15.2804 7.48974 15.2188L8.03745 15.0651V9.00073L7.27699 8.93903C7.21599 8.66171 7.36789 8.26186 7.79415 8.23083L10.0458 8.07714L13.1493 12.8794V8.63119L12.358 8.53924C12.2973 8.20021 12.5403 7.95405 12.8446 7.92352L14.9446 7.79973ZM3.44294 3.18275L12.1147 2.53611C13.1796 2.44363 13.4536 2.50558 14.1229 2.99788L16.891 4.96795C17.3478 5.30672 17.5 5.39895 17.5 5.76825V16.5732C17.5 17.2504 17.2564 17.6508 16.4046 17.7121L6.33414 18.3279C5.69476 18.3588 5.39046 18.2665 5.05562 17.8353L3.01714 15.1572C2.6519 14.6642 2.5 14.2954 2.5 13.8639V4.25975C2.5 3.70599 2.74369 3.24405 3.44294 3.18275Z" fill="currentcolor"/>
</svg>
