<svg width="20" height="20" viewBox="0 0 20 20" fill="none" xmlns="http://www.w3.org/2000/svg">
<path d="M16.4248 8.63917C16.7651 7.61776 16.6479 6.49885 16.1037 5.56979C15.2852 4.14479 13.6399 3.41167 12.033 3.75667C11.3182 2.95135 10.2912 2.49339 9.21446 2.49995C7.57196 2.4962 6.11461 3.5537 5.6093 5.11651C4.55414 5.3326 3.64336 5.99307 3.11039 6.92917C2.28586 8.35042 2.47383 10.142 3.57539 11.3607C3.23508 12.3821 3.35227 13.501 3.89649 14.4301C4.71492 15.8551 6.36024 16.5882 7.96711 16.2432C8.68149 17.0485 9.70899 17.5065 10.7857 17.4995C12.4291 17.5037 13.887 16.4453 14.3923 14.881C15.4474 14.6649 16.3582 14.0045 16.8912 13.0684C17.7148 11.6471 17.5263 9.85698 16.4252 8.63823L16.4248 8.63917ZM10.7866 16.5193C10.129 16.5203 9.49196 16.2901 8.98711 15.8687C9.01008 15.8565 9.04992 15.8345 9.07571 15.8185L12.0626 14.0935C12.2154 14.0068 12.3091 13.8442 12.3082 13.6684V9.4576L13.5705 10.1865C13.5841 10.1931 13.593 10.2062 13.5949 10.2212V13.7082C13.593 15.2589 12.3373 16.516 10.7866 16.5193ZM4.74727 13.9398C4.41774 13.3707 4.29914 12.7037 4.41211 12.0564C4.43414 12.0695 4.47305 12.0934 4.50071 12.1093L7.48758 13.8343C7.63899 13.9229 7.82649 13.9229 7.97836 13.8343L11.6248 11.7287V13.1865C11.6257 13.2015 11.6187 13.216 11.607 13.2254L8.58774 14.9687C7.24289 15.7431 5.52539 15.2828 4.74774 13.9398H4.74727ZM3.96117 7.41995C4.2893 6.84995 4.80727 6.41401 5.42414 6.1876C5.42414 6.21338 5.42274 6.25885 5.42274 6.29073V9.7412C5.4218 9.91651 5.51555 10.0792 5.66789 10.1659L9.3143 12.271L8.05196 12.9999C8.0393 13.0084 8.02336 13.0098 8.0093 13.0037L4.98961 11.259C3.64758 10.4818 3.18727 8.76479 3.96071 7.42042L3.96117 7.41995ZM14.3327 9.83354L10.6863 7.72792L11.9487 6.99948C11.9613 6.99104 11.9773 6.98963 11.9913 6.99573L15.011 8.73901C16.3554 9.51573 16.8162 11.2356 16.0395 12.5799C15.7109 13.149 15.1934 13.5849 14.577 13.8118V10.2582C14.5784 10.0829 14.4851 9.92073 14.3332 9.83354H14.3327ZM15.589 7.9426C15.567 7.92901 15.528 7.90557 15.5004 7.88964L12.5135 6.16463C12.3621 6.07604 12.1746 6.07604 12.0227 6.16463L8.37633 8.27026V6.81245C8.37539 6.79745 8.38242 6.78292 8.39414 6.77354L11.4134 5.03167C12.7582 4.25588 14.4776 4.7176 15.2529 6.06292C15.5805 6.63104 15.6991 7.2962 15.588 7.9426H15.589ZM7.69008 10.5409L6.42727 9.81198C6.41367 9.80542 6.40477 9.79229 6.40289 9.77729V6.29026C6.40383 4.73776 7.66336 3.47963 9.21586 3.48057C9.87258 3.48057 10.5082 3.7112 11.013 4.1312C10.9901 4.14338 10.9507 4.16542 10.9245 4.18135L7.93758 5.90635C7.78477 5.99307 7.69102 6.15526 7.69196 6.33104L7.69008 10.5399V10.5409ZM8.37586 9.06245L10.0001 8.12448L11.6243 9.06198V10.9374L10.0001 11.8749L8.37586 10.9374V9.06245Z" fill="currentcolor"/>
</svg>
