<svg width="20" height="20" viewBox="0 0 20 20" fill="none" xmlns="http://www.w3.org/2000/svg">
<path d="M17.5 10C17.5 11.8639 16.8077 13.6614 15.5573 15.0438C14.307 16.4261 12.5877 17.2947 10.7331 17.4811V2.51636C12.5882 2.70282 14.3077 3.57182 15.5582 4.95468C16.8086 6.33755 17.5006 8.13565 17.5 10ZM2.5 10.7545V17.4837H9.23038C9.05641 15.758 8.29138 14.1455 7.06486 12.9192C5.83834 11.6929 4.22569 10.9282 2.5 10.7545ZM2.5 9.24548H9.23038V2.51887C7.50508 2.69243 5.89274 3.45679 4.66626 4.68257C3.43979 5.90836 2.67452 7.52028 2.5 9.24548Z" fill="currentcolor"/>
</svg>
