<svg width="20" height="20" viewBox="0 0 20 20" fill="none" xmlns="http://www.w3.org/2000/svg">
<path d="M10 2.5C5.85742 2.5 2.5 5.85742 2.5 10C2.5 13.1787 4.47754 15.8916 7.2666 16.9844C7.20215 16.3896 7.14062 15.4814 7.29297 14.834C7.43066 14.248 8.17188 11.1074 8.17188 11.1074C8.17188 11.1074 7.94629 10.6592 7.94629 9.99414C7.94629 8.95117 8.5498 8.17188 9.30273 8.17188C9.94141 8.17188 10.252 8.65234 10.252 9.22949C10.252 9.87402 9.8418 10.835 9.63086 11.7256C9.45508 12.4727 10.0059 13.082 10.7412 13.082C12.0742 13.082 13.0996 11.6758 13.0996 9.64844C13.0996 7.85254 11.8105 6.5957 9.96777 6.5957C7.83496 6.5957 6.58105 8.19531 6.58105 9.85059C6.58105 10.4951 6.83008 11.1865 7.14062 11.5615C7.20215 11.6348 7.21094 11.7021 7.19336 11.7754C7.1377 12.0127 7.00879 12.5225 6.98535 12.625C6.95312 12.7627 6.87695 12.792 6.7334 12.7246C5.7959 12.2881 5.20996 10.9199 5.20996 9.81836C5.20996 7.45117 6.92969 5.28027 10.1641 5.28027C12.7656 5.28027 14.7871 7.13477 14.7871 9.61328C14.7871 12.1973 13.1582 14.2773 10.8965 14.2773C10.1377 14.2773 9.42285 13.8818 9.17676 13.416C9.17676 13.416 8.80176 14.8486 8.71094 15.2002C8.54102 15.8506 8.08398 16.668 7.7793 17.166C8.48242 17.3828 9.22656 17.5 10 17.5C14.1426 17.5 17.5 14.1426 17.5 10C17.5 5.85742 14.1426 2.5 10 2.5Z" fill="currentcolor"/>
</svg>
