<svg width="20" height="20" viewBox="0 0 20 20" fill="none" xmlns="http://www.w3.org/2000/svg">
<path d="M14.7798 4.47175C12.175 1.85311 7.94231 1.84253 5.32408 4.44159L5.29335 4.47232C2.67929 7.10186 2.68012 11.3794 5.29492 14.008L9.33372 18.0677C9.41744 18.1521 9.51693 18.219 9.62646 18.2646C9.73599 18.3102 9.8534 18.3335 9.97195 18.3333C10.2028 18.3333 10.4344 18.245 10.6106 18.0677C10.9627 17.7132 10.9627 17.1384 10.6106 16.784L6.57117 12.724C4.66617 10.8091 4.66007 7.69581 6.55346 5.77285L6.5719 5.75468C8.48325 3.83429 11.5927 3.83487 13.5028 5.75531C15.0714 7.33236 15.2965 10.0312 14.0254 12.0338C13.7574 12.456 13.8809 13.0172 14.3009 13.2868C14.7218 13.5572 15.2793 13.4325 15.5472 13.0104C17.2914 10.2627 16.9686 6.67207 14.7798 4.47175ZM13.1635 14.2162C13.5159 14.5707 13.5163 15.1456 13.1635 15.4996C13.08 15.5841 12.9806 15.6512 12.8712 15.6969C12.7617 15.7426 12.6443 15.7661 12.5258 15.766C12.4071 15.7661 12.2895 15.7427 12.1798 15.6971C12.0701 15.6514 11.9704 15.5845 11.8865 15.5001L7.84789 11.4403C6.64137 10.227 6.64137 8.25237 7.84789 7.03876C8.43252 6.45157 9.20971 6.12787 10.0364 6.12787H10.0373C10.8639 6.12787 11.6412 6.45199 12.2254 7.04012C12.6205 7.43706 12.9014 7.93416 13.0382 8.47864C13.175 9.02312 13.1625 9.59468 13.0023 10.1326C12.8587 10.613 12.3567 10.8865 11.8787 10.7427C11.4009 10.5995 11.1289 10.0936 11.2713 9.613C11.3384 9.38879 11.3438 9.15049 11.2869 8.92344C11.2301 8.69638 11.1131 8.48907 10.9484 8.32353C10.7048 8.07831 10.3814 7.94338 10.0369 7.94322H10.0364C9.69179 7.94322 9.36846 8.078 9.12471 8.32264C8.6219 8.82814 8.6219 9.65091 9.12471 10.1565L13.1635 14.2161" fill="currentcolor"/>
</svg>
