<svg width="20" height="20" viewBox="0 0 20 20" fill="none" xmlns="http://www.w3.org/2000/svg">
<path fill-rule="evenodd" clip-rule="evenodd" d="M8.40163 2.5C7.22464 2.5 6.27049 3.42386 6.27049 4.56349V5.99206H9.95901V6.38889H4.63115C3.45415 6.38889 2.5 7.31274 2.5 8.45238L2.5 11.5476C2.5 12.6872 3.45415 13.6111 4.63115 13.6111H5.86065V11.8651C5.86065 10.7254 6.8148 9.80158 7.9918 9.80158H11.9262C12.9221 9.80158 13.7295 9.01986 13.7295 8.05555V4.56349C13.7295 3.42386 12.7754 2.5 11.5984 2.5H8.40163ZM7.90983 5.03968C8.31725 5.03968 8.64754 4.71988 8.64754 4.3254C8.64754 3.93091 8.31725 3.61111 7.90983 3.61111C7.50241 3.61111 7.17213 3.93091 7.17213 4.3254C7.17213 4.71988 7.50241 5.03968 7.90983 5.03968Z" fill="currentcolor"/>
<path fill-rule="evenodd" clip-rule="evenodd" d="M11.5981 17.4999C12.7751 17.4999 13.7292 16.576 13.7292 15.4364V14.0078L10.0407 14.0078L10.0407 13.611L15.3686 13.611C16.5456 13.611 17.4997 12.6872 17.4997 11.5475V8.45228C17.4997 7.31265 16.5456 6.38879 15.3686 6.38879L14.139 6.38879V8.13482C14.139 9.27446 13.1849 10.1983 12.0079 10.1983L8.07348 10.1983C7.07756 10.1983 6.2702 10.98 6.2702 11.9443L6.2702 15.4364C6.2702 16.576 7.22435 17.4999 8.40135 17.4999H11.5981ZM12.0899 14.9602C11.6824 14.9602 11.3522 15.28 11.3522 15.6745C11.3522 16.069 11.6824 16.3888 12.0899 16.3888C12.4973 16.3888 12.8276 16.069 12.8276 15.6745C12.8276 15.28 12.4973 14.9602 12.0899 14.9602Z" fill="currentcolor"/>
</svg>
