<svg width="20" height="20" viewBox="0 0 20 20" fill="none" xmlns="http://www.w3.org/2000/svg">
<path fill-rule="evenodd" clip-rule="evenodd" d="M17.5 10C17.5 14.1421 14.1421 17.5 10 17.5C5.85786 17.5 2.5 14.1421 2.5 10C2.5 5.85786 5.85786 2.5 10 2.5C14.1421 2.5 17.5 5.85786 17.5 10ZM13.9037 8.90353C14.5089 8.90353 15.0002 9.39476 15.0002 10C15.0002 10.4474 14.7282 10.8334 14.3686 11.0088C14.3861 11.1141 14.3949 11.2193 14.3949 11.3334C14.3949 13.0176 12.4388 14.3772 10.0177 14.3772C7.59665 14.3772 5.64051 13.0176 5.64051 11.3334C5.64051 11.2193 5.64928 11.1053 5.66682 11C5.28086 10.8246 5.0177 10.4474 5.0177 10C5.0177 9.39476 5.50893 8.90353 6.11419 8.90353C6.40367 8.90353 6.67559 9.02634 6.86858 9.21055C7.62296 8.65792 8.66682 8.31581 9.83349 8.28073L10.3861 5.66669C10.4037 5.61406 10.43 5.5702 10.4738 5.54388C10.5177 5.51757 10.5703 5.5088 10.623 5.51757L12.4388 5.90353C12.5616 5.64037 12.8247 5.46494 13.1317 5.46494C13.5616 5.46494 13.9124 5.81581 13.9124 6.24564C13.9124 6.67546 13.5616 7.02634 13.1317 7.02634C12.7107 7.02634 12.3686 6.69301 12.351 6.28073L10.7282 5.93862L10.2282 8.28073C11.3686 8.32458 12.4037 8.67546 13.1493 9.21055C13.3423 9.01757 13.6054 8.90353 13.9037 8.90353ZM8.28086 10C7.85103 10 7.50016 10.3509 7.50016 10.7807C7.50016 11.2106 7.85103 11.5614 8.28086 11.5614C8.71068 11.5614 9.06156 11.2106 9.06156 10.7807C9.06156 10.3509 8.71068 10 8.28086 10ZM10.0089 13.4123C10.3072 13.4123 11.3247 13.3772 11.8598 12.8421C11.9388 12.7632 11.9388 12.6404 11.8773 12.5527C11.7984 12.4737 11.6668 12.4737 11.5879 12.5527C11.2458 12.886 10.5352 13.0088 10.0177 13.0088C9.50016 13.0088 8.78086 12.886 8.44752 12.5527C8.36858 12.4737 8.237 12.4737 8.15805 12.5527C8.0791 12.6316 8.0791 12.7632 8.15805 12.8421C8.68437 13.3684 9.71068 13.4123 10.0089 13.4123ZM10.9388 10.7807C10.9388 11.2106 11.2896 11.5614 11.7195 11.5614C12.1493 11.5614 12.5002 11.2106 12.5002 10.7807C12.5002 10.3509 12.1493 10 11.7195 10C11.2896 10 10.9388 10.3509 10.9388 10.7807Z" fill="currentcolor"/>
</svg>
