<svg width="20" height="20" viewBox="0 0 20 20" fill="none" xmlns="http://www.w3.org/2000/svg">
<path fill-rule="evenodd" clip-rule="evenodd" d="M10 2.5C5.85705 2.5 2.5 5.85705 2.5 10C2.5 14.143 5.85705 17.5 10 17.5C14.143 17.5 17.5 14.143 17.5 10C17.5 5.85705 14.143 2.5 10 2.5ZM11.1654 3.53976L11.3949 3.58598L11.1203 4.96485L10.8908 4.91889L11.1654 3.53976ZM8.83457 16.4578L8.60509 16.4115L8.87969 15.0327L9.10919 15.0786L8.83457 16.4578ZM11.7924 3.68509L12.0164 3.75346L11.8121 4.4267L11.5881 4.35834L11.7924 3.68509ZM8.20755 16.3141L7.9836 16.2457L8.18788 15.5725L8.41185 15.6408L8.20755 16.3141ZM12.6204 3.98125L12.082 5.28067L11.8655 5.19072L12.4036 3.8913L12.6204 3.98127V3.98125ZM7.38152 16.0179L7.91964 14.7188L8.13613 14.8087L7.59801 16.1079L7.38152 16.0179V16.0179ZM12.99 4.1568L13.1959 4.26723L12.8651 4.88706L12.6589 4.77632L12.99 4.1568ZM7.01001 15.8427L6.80404 15.7319L7.13596 15.1124L7.34221 15.2229L7.01001 15.8427ZM15.8437 7.00975L15.2245 7.34139L15.114 7.13514L15.7327 6.8035C15.6663 6.68396 15.5959 6.56661 15.5218 6.45166L14.353 7.2337L14.2246 7.03771L15.3936 6.25567C15.315 6.14411 15.2333 6.03644 15.1481 5.92764L14.6063 6.37305L14.4571 6.19117L14.9989 5.74577C14.9106 5.64278 14.817 5.54312 14.7231 5.44403L14.3564 5.81083L10.9376 10.9379L5.81027 14.357L5.44124 14.7238C5.54062 14.8176 5.64112 14.9112 5.74577 14.9992L6.19117 14.4574L6.37305 14.6066L5.92764 15.1484C6.03365 15.2328 6.14411 15.3126 6.25567 15.3912L7.03216 14.2221L7.22814 14.3506L6.44613 15.5193C7.26911 16.05 8.21474 16.4013 9.23514 16.5187L9.30269 15.8186L9.53687 15.8418L9.46933 16.5419C9.60691 16.5541 9.742 16.5596 9.87986 16.5627V15.1562H10.1143V16.5627C10.2522 16.5596 10.39 16.5533 10.5251 16.5419L10.4551 15.8418L10.6893 15.8186L10.7593 16.5187C10.8969 16.5026 11.0317 16.4819 11.1668 16.4578L10.8925 15.0803L11.1223 15.0344L11.3963 16.4124C11.5308 16.3833 11.662 16.349 11.7933 16.3116L11.5887 15.6389L11.8127 15.5706L12.0172 16.2438L11.7982 16.3108C12.0045 16.2521 12.2055 16.1832 12.4028 16.1059L11.8655 14.8087L12.082 14.7187L12.6196 16.0162C12.745 15.962 12.8668 15.9036 12.988 15.8416L12.6567 15.2229L12.8629 15.1124L13.1946 15.7317C13.3147 15.6649 13.4335 15.5963 13.5483 15.5218L12.7663 14.3531L12.9623 14.2246L13.7443 15.3936C13.8559 15.315 13.9636 15.2334 14.0724 15.1481L13.627 14.6064L13.8088 14.4572L14.2542 15.0017C14.3561 14.9136 14.4569 14.8201 14.556 14.726L13.5633 13.7333L13.7299 13.5663L14.7229 14.5593C14.8167 14.4597 14.9103 14.3606 14.9986 14.2545L14.4569 13.8091L14.6061 13.6272L15.1478 14.0727L15.1484 14.0724C15.2328 13.9636 15.3153 13.8559 15.3912 13.7499L14.2221 12.9678L14.3506 12.7719L15.5193 13.5539C15.7103 13.258 15.8762 12.9449 16.0184 12.6193L14.7193 12.0814L14.8093 11.865L16.1087 12.4031C16.3124 11.8857 16.4528 11.3376 16.5186 10.7649L15.8186 10.6973L15.8418 10.4631L16.5419 10.5307C16.5541 10.3931 16.5596 10.258 16.5627 10.1202L15.1561 10.1199V9.88569H16.5627C16.5596 9.74784 16.5533 9.60998 16.5419 9.47488L15.8418 9.54491L15.8186 9.31073L16.5186 9.24069C16.4295 8.46254 16.2009 7.70681 15.8438 7.00975H15.8437ZM4.16064 12.99L4.77934 12.6586L4.8898 12.8649L4.27082 13.1965C4.33668 13.3166 4.40535 13.4337 4.47981 13.5483L5.64885 12.7663L5.77813 12.9623L4.60909 13.7443V13.7435C4.6877 13.8551 4.76659 13.9658 4.85188 14.0715L5.39362 13.6261L5.54282 13.808L5.00109 14.2534C5.08938 14.3556 5.18296 14.4561 5.2768 14.5554L5.6436 14.1886L9.06234 9.06133L14.1897 5.64252L14.5645 5.27573C14.4649 5.18188 14.3658 5.08832 14.2597 5.00001L13.8143 5.54177L13.6324 5.39256L14.0779 4.85078C13.9732 4.76664 13.8614 4.68691 13.7498 4.60802L12.9678 5.77703L12.7718 5.64777L13.5539 4.47873C12.7309 3.94834 11.7852 3.59678 10.7648 3.47966L10.6973 4.17974L10.4631 4.15623L10.5306 3.45616C10.3931 3.44425 10.258 3.43844 10.1201 3.43567V4.84192H9.8848V3.43567C9.74694 3.43844 9.60911 3.44481 9.47402 3.45616L9.54433 4.15623L9.31012 4.17977L9.2398 3.47969C8.22081 3.59678 7.2741 3.94558 6.45107 4.47625L7.23311 5.64527L7.03713 5.77455L6.25509 4.60553C6.14352 4.68524 6.03557 4.7669 5.92705 4.85216L6.37218 5.39392L6.19059 5.54312L5.74518 4.9986C5.64191 5.08691 5.54254 5.18048 5.44316 5.27432L6.43614 6.26702L6.26922 6.43394L5.27624 5.44124C5.1824 5.54062 5.08884 5.64112 5.0008 5.74577L5.54254 6.19117L5.39334 6.37305L4.85158 5.92764C4.76716 6.03365 4.68742 6.14411 4.60881 6.25567L5.78062 7.03216L5.65134 7.22816L4.4823 6.44613C4.40681 6.56324 4.33517 6.6828 4.26749 6.8046L4.88702 7.13486L4.7763 7.34221L4.15703 7.01111C4.09535 7.13213 4.03738 7.25501 3.9832 7.37957L5.28234 7.918L5.19236 8.13447L3.8935 7.59634C3.84311 7.72366 3.79745 7.85322 3.75482 7.98445L4.42666 8.18873L4.35829 8.41267L3.68753 8.20893C3.65045 8.33959 3.61834 8.47166 3.589 8.60563L4.96398 8.87969L4.91774 9.10916L3.54276 8.83541C3.51838 8.96716 3.49874 9.10115 3.48297 9.23514L4.18333 9.30266L4.1598 9.53687L3.45972 9.46933C3.44753 9.60691 3.442 9.742 3.43923 9.87986L4.84548 9.88014V10.1143H3.43923C3.442 10.2522 3.44838 10.39 3.45972 10.5251L4.1598 10.4551L4.18333 10.6893L3.48297 10.7593C3.49874 10.8961 3.52007 11.0306 3.5436 11.1646L4.91887 10.8908L4.9648 11.1203L3.589 11.3944C3.61806 11.5292 3.65294 11.6615 3.69002 11.793L4.35911 11.5898L4.4275 11.8138L3.7573 12.0172C3.79929 12.1473 3.84536 12.276 3.89545 12.4031L5.1907 11.8666L5.28067 12.0831L3.98486 12.6199C4.03912 12.7458 4.09834 12.8684 4.16064 12.99ZM16.0179 7.38154L16.1078 7.59801L14.8087 8.13616L14.7187 7.91969L16.0179 7.38154ZM16.3132 8.20841L15.64 8.41298L15.5716 8.18903L16.2449 7.98447L16.3132 8.20841ZM16.4577 8.83459L15.0786 9.10919L15.0327 8.87971L16.4115 8.60509L16.4577 8.83459ZM16.4126 11.395L15.0337 11.1203L15.0797 10.8908L16.4588 11.1654L16.4126 11.3949V11.395ZM16.2449 12.0164L15.5716 11.8121L15.64 11.5882L16.3132 11.7925L16.2449 12.0164ZM3.90156 7.5756L3.9824 7.38154C3.9545 7.44583 3.92755 7.51052 3.90156 7.5756ZM15.7311 13.1959L15.1102 12.8651L15.2206 12.6589L15.8415 12.99L15.7311 13.1959ZM6.80102 4.26728L7.00727 4.15682L7.33945 4.77637L7.1332 4.88709L6.80102 4.26728ZM7.59801 3.89301L8.13613 5.19243L7.91966 5.28238L7.38154 3.98324L7.59801 3.89301ZM8.20757 3.68512L8.41185 4.35836L8.18791 4.42673L7.9836 3.75348L8.20757 3.68512ZM8.8357 3.54173L9.11029 4.92058L8.88079 4.96682L8.6062 3.58766L8.83567 3.54173H8.8357ZM16.5391 9.42646L16.5242 9.27088C16.5272 9.32319 16.5328 9.37274 16.5391 9.42646ZM15.5135 6.43759L15.4075 6.27925C15.4421 6.33156 15.4775 6.38416 15.5135 6.43759ZM15.1066 5.87786L15.0418 5.79895C15.0651 5.82524 15.0858 5.85154 15.1066 5.87786ZM14.198 4.95548L14.1194 4.8907C14.1485 4.91395 14.172 4.93443 14.198 4.95548ZM13.7208 4.59145L13.5625 4.48654C13.6148 4.52252 13.6685 4.55685 13.7208 4.59145ZM10.7291 3.47887L10.5708 3.46394C10.6231 3.46698 10.6768 3.47252 10.7291 3.47889V3.47887ZM9.42639 3.46089L9.26805 3.47584C9.32038 3.4728 9.3727 3.46727 9.42639 3.46089ZM6.43752 4.48652L6.27918 4.59145C6.33152 4.55573 6.38411 4.52141 6.43752 4.48654V4.48652ZM5.87779 4.89346L5.80195 4.95548C5.82796 4.93499 5.85149 4.91423 5.87779 4.89346ZM4.95541 5.80199L4.89062 5.88063C4.9139 5.85433 4.93438 5.82803 4.95541 5.80199ZM4.5914 6.27925L4.48647 6.43759C4.52247 6.38526 4.55678 6.33266 4.5914 6.27925ZM3.47884 9.27086L3.46391 9.4292C3.46696 9.37687 3.47249 9.32427 3.47884 9.27086ZM3.46087 10.5747L3.47582 10.733C3.47277 10.6807 3.46722 10.6273 3.46087 10.5747ZM4.48649 13.5597L4.59142 13.718C4.5557 13.6685 4.52137 13.6159 4.48649 13.5597ZM4.95543 14.1981C4.93495 14.172 4.91418 14.1485 4.89344 14.1222L4.95543 14.1981ZM5.80197 15.0446L5.87781 15.1066C5.85152 15.0861 5.82798 15.0656 5.80197 15.0446ZM6.2792 15.4056L6.43755 15.5116C6.38523 15.4798 6.33264 15.444 6.2792 15.4056ZM9.27084 16.5212L9.42918 16.5361C9.37687 16.5331 9.32427 16.5275 9.27084 16.5212V16.5212ZM10.5747 16.5392L10.7303 16.5242C10.6779 16.5273 10.6281 16.5328 10.5747 16.5392H10.5747ZM13.5625 15.5135L13.7208 15.4075C13.6685 15.4421 13.6148 15.4775 13.5625 15.5135ZM14.1222 15.1066L14.2011 15.0418C14.1748 15.0651 14.1485 15.0858 14.1222 15.1066ZM14.6351 14.6462L14.6462 14.6352L14.6351 14.6462ZM15.0446 14.1981L15.1094 14.1194C15.0861 14.1457 15.0656 14.172 15.0446 14.1981ZM16.5391 10.5708C16.5336 10.6231 16.5306 10.6769 16.5242 10.7292L16.5391 10.5708ZM15.5135 13.5625C15.4786 13.6148 15.4432 13.6685 15.4075 13.7208L15.5135 13.5625Z" fill="currentcolor"/>
</svg>
