<svg width="20" height="20" viewBox="0 0 20 20" fill="none" xmlns="http://www.w3.org/2000/svg">
<path d="M10.069 14.3519C7.54599 14.3519 6.42464 13.0556 6.42464 12.1296C6.42464 11.9444 6.51813 11.6667 6.70502 11.5741C6.8919 11.3889 7.07877 11.3889 7.26566 11.3889C8.29355 11.3889 8.01321 12.963 10.069 12.963C11.0969 12.963 11.6576 12.3148 11.6576 11.7593C11.6576 11.3889 11.4706 11.0185 10.8165 10.8333L8.5739 10.2778C6.79846 9.81481 6.51812 8.7963 6.51812 7.96296C6.51812 6.01852 8.29357 5.37037 9.97557 5.37037C11.4707 5.37037 13.3395 6.2037 13.3395 7.31481C13.3395 7.77778 12.9658 8.05556 12.4051 8.05556C11.4707 8.05556 11.6576 6.75926 9.78867 6.75926C8.85422 6.75926 8.387 7.22222 8.387 7.77778C8.387 8.33333 9.13452 8.61111 9.69519 8.7037L11.3772 9.07407C13.1527 9.44444 13.6199 10.5556 13.6199 11.4815C13.6199 13.2407 12.4051 14.3519 10.069 14.3519ZM16.9839 11.1111C17.0773 10.7407 17.0773 10.2778 17.0773 9.90741C17.0773 7.87037 16.1429 5.92593 14.5543 4.53704C12.9657 3.14815 10.8165 2.68519 8.76074 2.96296C8.20008 2.68519 7.45257 2.5 6.70502 2.5C5.20991 2.5 3.80822 3.33333 3.06067 4.62963C2.31311 5.92593 2.31311 7.5 3.06067 8.7963C2.68689 11.0185 3.34098 13.3333 5.02297 15C6.61153 16.5741 8.94767 17.3148 11.1903 16.9444C11.8444 17.3148 12.4986 17.5 13.2461 17.5C14.7412 17.5 16.1429 16.6667 16.8904 15.3704C17.638 13.9815 17.7314 12.4074 16.9839 11.1111Z" fill="currentcolor"/>
</svg>
