<svg width="20" height="20" viewBox="0 0 20 20" fill="none" xmlns="http://www.w3.org/2000/svg">
<path fill-rule="evenodd" clip-rule="evenodd" d="M10 17.5C14.1421 17.5 17.5 14.1421 17.5 10C17.5 5.85786 14.1421 2.5 10 2.5C5.85786 2.5 2.5 5.85786 2.5 10C2.5 14.1421 5.85786 17.5 10 17.5ZM12.4822 13.2672C12.692 13.3937 12.9606 13.3347 13.0865 13.1239C13.2124 12.913 13.1452 12.6431 12.9354 12.5166C11.0891 11.3781 8.78956 11.1166 6.11236 11.7323C5.87737 11.7829 5.7347 12.019 5.78505 12.2552C5.83541 12.4913 6.0704 12.6347 6.30539 12.5841C8.75599 12.0275 10.8289 12.2552 12.4822 13.2672ZM13.1872 11.3865C13.4474 11.5383 13.7831 11.4624 13.9425 11.201C14.102 10.9395 14.0181 10.6022 13.7747 10.4503C11.601 9.10937 8.42868 8.73829 5.87737 9.5142C5.58363 9.59854 5.42418 9.90215 5.5081 10.1973C5.59203 10.4841 5.89416 10.6443 6.18789 10.56C8.42029 9.87685 11.2989 10.2142 13.1872 11.3865ZM5.85219 8.37563C8.01745 7.7178 11.7521 7.8443 14.0181 9.19371C14.3286 9.38769 14.7314 9.27805 14.9077 8.95757C15.0923 8.64552 14.9916 8.24069 14.6811 8.05515C12.0794 6.50333 7.95031 6.35152 5.46614 7.11056C5.12205 7.2202 4.92063 7.59129 5.02973 7.93708C5.13883 8.2913 5.5081 8.48527 5.85219 8.37563Z" fill="currentcolor"/>
</svg>
