<svg width="20" height="20" viewBox="0 0 20 20" fill="none" xmlns="http://www.w3.org/2000/svg">
<path fill-rule="evenodd" clip-rule="evenodd" d="M17.5 10C17.5 14.1421 14.1421 17.5 10 17.5C5.85786 17.5 2.5 14.1421 2.5 10C2.5 5.85786 5.85786 2.5 10 2.5C14.1421 2.5 17.5 5.85786 17.5 10ZM10.2688 8.03683C9.53936 8.34025 8.08141 8.96825 5.89501 9.92083C5.53997 10.062 5.35399 10.2001 5.33706 10.3352C5.30844 10.5634 5.59427 10.6533 5.9835 10.7757C6.03644 10.7923 6.0913 10.8096 6.14754 10.8279C6.53047 10.9524 7.04559 11.098 7.31338 11.1038C7.55629 11.109 7.82741 11.0089 8.12673 10.8033C10.1695 9.42438 11.2241 8.72738 11.2903 8.71236C11.337 8.70175 11.4017 8.68843 11.4456 8.7274C11.4894 8.76638 11.4851 8.8402 11.4805 8.86C11.4521 8.98071 10.3302 10.0238 9.74953 10.5636C9.56852 10.7319 9.44012 10.8513 9.41388 10.8785C9.35508 10.9396 9.29515 10.9974 9.23756 11.0529C8.8818 11.3958 8.61502 11.653 9.25233 12.073C9.5586 12.2748 9.80368 12.4417 10.0482 12.6082C10.3152 12.7901 10.5815 12.9714 10.9261 13.1973C11.0139 13.2548 11.0977 13.3146 11.1794 13.3728C11.4901 13.5944 11.7693 13.7934 12.1142 13.7616C12.3146 13.7432 12.5216 13.5548 12.6267 12.9927C12.8752 11.6645 13.3636 8.78653 13.4765 7.60061C13.4864 7.49671 13.4739 7.36373 13.4639 7.30536C13.4539 7.24699 13.4331 7.16382 13.3572 7.10225C13.2673 7.02934 13.1286 7.01396 13.0666 7.01505C12.7845 7.02002 12.3517 7.17051 10.2688 8.03683Z" fill="currentcolor"/>
</svg>
