<svg width="20" height="20" viewBox="0 0 20 20" fill="none" xmlns="http://www.w3.org/2000/svg">
<path d="M9.31164 5.00977H2.72547C2.59422 5.00977 2.5 5.08477 2.5 5.20711V6.89836C2.5 6.97336 2.54688 7.04836 2.63125 7.07695L2.725 7.10508H6.72813V14.9032C6.72813 15.0251 6.82188 15.1099 6.95359 15.1099H9.3025C9.43375 15.1099 9.52797 15.0255 9.52797 14.9032V5.20711C9.53734 5.08523 9.44359 5.00977 9.31188 5.00977" fill="currentcolor"/>
<path d="M17.2834 5.00023H10.6975C10.5662 5.00023 10.472 5.07523 10.472 5.19758V14.903C10.472 15.0249 10.5657 15.1004 10.6975 15.1004H13.0464C13.1776 15.1004 13.2718 15.016 13.2718 14.903V7.10469H17.2743C17.3118 7.10469 17.3399 7.09531 17.368 7.08594C17.4524 7.05781 17.4992 6.98281 17.4992 6.89797V5.20672C17.5086 5.08484 17.4149 5 17.2832 5" fill="currentcolor"/>
</svg>
