<svg width="20" height="20" viewBox="0 0 20 20" fill="none" xmlns="http://www.w3.org/2000/svg">
<path d="M9.66669 7.94446C9.66669 8.88891 8.88891 9.66669 7.94446 9.66669C7.00002 9.66669 6.22224 8.88891 6.22224 7.94446C6.22224 7.00002 7.00002 6.22224 7.94446 6.22224C8.88891 6.22224 9.66669 7.00002 9.66669 7.94446ZM7.94446 10.3334C7.00002 10.3334 6.22224 11.1111 6.22224 12.0556C6.22224 13 7.00002 13.7778 7.94446 13.7778C8.88891 13.7778 9.66669 13 9.66669 12.0556C9.66669 11.1111 8.88891 10.3334 7.94446 10.3334ZM18.3334 10C18.3334 14.6111 14.6111 18.3334 10 18.3334C5.38891 18.3334 1.66669 14.6111 1.66669 10C1.66669 5.38891 5.38891 1.66669 10 1.66669C14.6111 1.66669 18.3334 5.38891 18.3334 10ZM16.1111 10C16.1111 6.61113 13.3889 3.88891 10 3.88891C6.61113 3.88891 3.88891 6.61113 3.88891 10C3.88891 13.3889 6.61113 16.1111 10 16.1111C13.3889 16.1111 16.1111 13.3889 16.1111 10ZM12.0556 10.3334C11.1111 10.3334 10.3334 11.1111 10.3334 12.0556C10.3334 13 11.1111 13.7778 12.0556 13.7778C13 13.7778 13.7778 13 13.7778 12.0556C13.7778 11.1111 13 10.3334 12.0556 10.3334ZM12.0556 6.22224C11.1111 6.22224 10.3334 7.00002 10.3334 7.94446C10.3334 8.88891 11.1111 9.66669 12.0556 9.66669C13 9.66669 13.7778 8.88891 13.7778 7.94446C13.7778 7.00002 13 6.22224 12.0556 6.22224Z" fill="currentcolor"/>
</svg>
