<svg width="20" height="20" viewBox="0 0 20 20" fill="none" xmlns="http://www.w3.org/2000/svg">
<path d="M6.90984 16.6666C13.1976 16.6666 16.6377 11.5364 16.6377 7.08879C16.6377 6.94457 16.6344 6.79714 16.6279 6.65291C17.2971 6.17642 17.8747 5.58621 18.3333 4.91003C17.7101 5.18304 17.0484 5.36135 16.3708 5.43885C17.0842 5.01779 17.6184 4.35632 17.8744 3.57706C17.2032 3.9687 16.4692 4.24497 15.7038 4.39402C15.1881 3.85452 14.5062 3.49731 13.7637 3.37761C13.0211 3.25791 12.2592 3.38239 11.5957 3.73181C10.9322 4.08123 10.404 4.63613 10.093 5.31071C9.78188 5.98528 9.70516 6.74197 9.87468 7.46378C8.51562 7.39663 7.18607 7.04903 5.97221 6.44351C4.75836 5.83799 3.68729 4.98807 2.82846 3.94885C2.39195 4.68983 2.25838 5.56665 2.45489 6.40111C2.6514 7.23558 3.16324 7.96506 3.8864 8.44131C3.3435 8.42434 2.81249 8.28042 2.33724 8.02145V8.06312C2.33676 8.84072 2.6098 9.5945 3.10994 10.1963C3.61009 10.7981 4.30648 11.2108 5.08073 11.3643C4.57782 11.4998 4.04999 11.5195 3.53809 11.422C3.75657 12.0907 4.18165 12.6756 4.75401 13.095C5.32637 13.5145 6.01745 13.7475 6.7308 13.7616C5.51974 14.6983 4.02374 15.2063 2.48373 15.2039C2.21062 15.2035 1.93778 15.187 1.66667 15.1545C3.23116 16.1427 5.05107 16.6676 6.90984 16.6666Z" fill="currentcolor"/>
</svg>
