<svg width="20" height="20" viewBox="0 0 20 20" fill="none" xmlns="http://www.w3.org/2000/svg">
<path d="M2.5 6.90237L3.15295 7.76022C3.15295 7.76022 4.36558 6.71174 4.83197 7.28364C5.20509 7.76022 6.88411 13.8605 7.3505 15.0043C7.8169 15.9575 9.1228 17.2919 10.522 16.3387C11.9212 15.3856 16.5851 11.3823 17.4246 6.5211C18.2641 1.75526 11.8279 2.70843 11.1749 6.90237C12.7607 5.85389 13.6935 7.28364 12.7607 8.99934C11.9212 10.6197 11.0817 11.7635 10.7085 11.7635C10.3354 11.7635 9.96231 10.6197 9.49592 8.71339C9.02952 6.61642 9.02952 2.99438 6.97739 3.47097C5.01853 3.85223 2.5 6.90237 2.5 6.90237Z" fill="currentcolor"/>
</svg>
