<svg width="20" height="20" viewBox="0 0 20 20" fill="none" xmlns="http://www.w3.org/2000/svg">
<path fill-rule="evenodd" clip-rule="evenodd" d="M2.61529 7.32946C2.5 7.90905 2.5 8.60603 2.5 10C2.5 11.394 2.5 12.0909 2.61529 12.6705C3.08873 15.0507 4.94931 16.9113 7.32946 17.3847C7.90905 17.5 8.60603 17.5 10 17.5C11.394 17.5 12.0909 17.5 12.6705 17.3847C15.0507 16.9113 16.9113 15.0507 17.3847 12.6705C17.5 12.0909 17.5 11.394 17.5 10C17.5 8.60603 17.5 7.90905 17.3847 7.32946C16.9113 4.94931 15.0507 3.08873 12.6705 2.61529C12.0909 2.5 11.394 2.5 10 2.5C8.60603 2.5 7.90905 2.5 7.32946 2.61529C4.94931 3.08873 3.08873 4.94931 2.61529 7.32946ZM13.3887 11.0812C13.3298 11.2477 13.3539 11.4121 13.4617 11.5745C13.599 11.7458 13.751 11.92 13.9046 12.0962C14.3593 12.6173 14.8283 13.1549 14.9734 13.6814C15.0246 14.01 14.781 14.1322 14.5337 14.1322L13.2016 14.1565C13.1182 14.1768 13.0211 14.1667 12.9103 14.1261C12.5263 13.9857 12.2756 13.6493 12.0227 13.3099C11.8604 13.0922 11.6972 12.8732 11.4974 12.7042C11.3979 12.62 11.2778 12.5625 11.1619 12.6311C10.9002 12.7839 10.8935 13.0778 10.8868 13.3756C10.8817 13.6007 10.8766 13.8279 10.7612 13.9979C10.6089 14.1858 10.3135 14.1619 10.0725 14.1425C10.0049 14.137 9.94164 14.1319 9.88696 14.1319C7.39449 14.2313 5.7694 10.2613 5.02679 8.21309C4.93796 7.93635 5.07803 7.79899 5.32865 7.79899L6.75443 7.78687C6.90683 7.81644 7.05146 7.9166 7.10827 8.09131C7.32176 8.67156 8.0989 10.7647 8.58084 10.7647C9.06278 10.7647 8.94219 8.63187 8.77856 8.23148C8.69182 8.09346 8.54445 8.00617 8.33627 7.96968C8.29118 7.96166 8.29989 7.9129 8.36235 7.82356C8.58084 7.51102 9.91994 7.41861 10.5063 7.57387C10.6222 7.60792 10.7355 7.66838 10.7873 7.80225C10.9045 8.10767 10.8776 8.62187 10.8503 9.14247C10.8166 9.78761 10.7823 10.4426 11.0213 10.7222C11.1135 10.749 11.164 10.7521 11.245 10.6795C11.8607 9.98971 12.2808 8.91637 12.6241 8.03684C12.6682 7.90754 12.7387 7.84399 12.8477 7.81451C13.0373 7.81451 13.2425 7.81546 13.4541 7.81643C13.8976 7.81847 14.369 7.82064 14.7836 7.81451C15.4248 7.81451 14.4969 9.27609 13.8713 10.2613C13.6276 10.6451 13.4299 10.9566 13.3887 11.0812Z" fill="currentcolor"/>
</svg>
