<svg width="20" height="20" viewBox="0 0 20 20" fill="none" xmlns="http://www.w3.org/2000/svg">
<path fill-rule="evenodd" clip-rule="evenodd" d="M15.25 4.65625C13.8438 3.25 11.9688 2.5 10 2.5C5.875 2.5 2.5 5.875 2.5 10C2.5 11.3125 2.87501 12.625 3.53126 13.75L2.5 17.5L6.43751 16.4688C7.56251 17.0312 8.78125 17.4062 10 17.4062C14.125 17.4062 17.5 14.0312 17.5 9.90625C17.5 7.9375 16.6563 6.0625 15.25 4.65625ZM10 16.1875C8.875 16.1875 7.75001 15.9063 6.81251 15.3438L6.62499 15.25L4.28124 15.9062L4.93751 13.6562L4.74999 13.375C4.09374 12.3438 3.81249 11.2188 3.81249 10.0938C3.81249 6.71875 6.625 3.90625 10 3.90625C11.6875 3.90625 13.1875 4.5625 14.4063 5.6875C15.625 6.90625 16.1875 8.40625 16.1875 10.0938C16.1875 13.375 13.4688 16.1875 10 16.1875ZM13.375 11.5C13.1875 11.4062 12.25 10.9375 12.0625 10.9375C11.875 10.8438 11.7812 10.8438 11.6875 11.0312C11.5937 11.2188 11.2188 11.5938 11.125 11.7812C11.0313 11.875 10.9375 11.875 10.75 11.875C10.5625 11.7812 10 11.5938 9.25001 10.9375C8.68751 10.4688 8.31251 9.8125 8.21876 9.625C8.12501 9.4375 8.21876 9.34375 8.31251 9.25C8.40626 9.15625 8.5 9.0625 8.59375 8.96875C8.6875 8.875 8.68751 8.78125 8.78126 8.6875C8.87501 8.59375 8.78126 8.5 8.78126 8.40625C8.78126 8.3125 8.40626 7.375 8.21876 7C8.12501 6.71875 7.93751 6.71875 7.84376 6.71875C7.75001 6.71875 7.65624 6.71875 7.46874 6.71875C7.37499 6.71875 7.18749 6.71875 6.99999 6.90625C6.81249 7.09375 6.34376 7.5625 6.34376 8.5C6.34376 9.4375 6.99999 10.2812 7.09374 10.4688C7.18749 10.5625 8.40624 12.5312 10.2812 13.2812C11.875 13.9375 12.1563 13.75 12.5313 13.75C12.9063 13.75 13.6562 13.2812 13.75 12.9062C13.9375 12.4375 13.9375 12.0625 13.8438 12.0625C13.75 11.5938 13.5625 11.5938 13.375 11.5Z" fill="currentcolor"/>
</svg>
