<svg width="20" height="20" viewBox="0 0 20 20" fill="none" xmlns="http://www.w3.org/2000/svg">
<path fill-rule="evenodd" clip-rule="evenodd" d="M10 17.5C14.1421 17.5 17.5 14.1421 17.5 10C17.5 5.85786 14.1421 2.5 10 2.5C5.85786 2.5 2.5 5.85786 2.5 10C2.5 14.1421 5.85786 17.5 10 17.5ZM7.79231 14.5545C6.10513 13.7333 4.93846 12.0058 4.93846 10C4.93847 9.29017 5.08832 8.58833 5.37821 7.94038L7.79231 14.5545ZM11.6827 14.7744C11.1532 14.9583 10.5878 15.0615 10 15.0615C9.50192 15.0615 9.0218 14.9897 8.57308 14.8551L10.0897 10.4442L11.6468 14.7071L11.6827 14.7744ZM12.5263 13.0692L10.6955 7.62628C11.0051 7.60833 11.2788 7.57692 11.2788 7.57692C11.5526 7.54551 11.5167 7.14615 11.2429 7.15962C11.2429 7.15962 10.4263 7.22692 9.8968 7.22692C9.39872 7.22692 8.5641 7.15962 8.5641 7.15962C8.29038 7.14615 8.25897 7.56346 8.53269 7.58141C8.70871 7.60156 8.88528 7.61652 9.06218 7.62628L9.85192 9.7891L8.74359 13.1096L6.89487 7.62628C7.20449 7.61282 7.47821 7.57692 7.47821 7.57692C7.75192 7.54551 7.72051 7.14615 7.44231 7.15962C7.44231 7.15962 6.62564 7.22692 6.09615 7.22692L5.77308 7.21795C6.2335 6.51742 6.86085 5.94234 7.59869 5.54444C8.33653 5.14654 9.16171 4.93831 10 4.93846C11.2661 4.93635 12.4866 5.41047 13.4192 6.26667H13.3564C12.8538 6.26667 12.5038 6.69744 12.5038 7.1641C12.5038 7.54976 12.7114 7.88451 12.9509 8.27078C12.9678 8.29799 12.9848 8.32545 13.0019 8.35321C13.1904 8.68526 13.4147 9.11603 13.4147 9.74423C13.4147 10.1472 13.2724 10.6079 13.0804 11.2295C13.065 11.2793 13.0493 11.3301 13.0333 11.3821L12.5263 13.0692ZM14.3872 12.5237C13.9454 13.2914 13.3099 13.9298 12.5442 14.375L14.0923 9.90577C14.4022 9.16947 14.5225 8.36724 14.4423 7.57244C14.8372 8.29487 15.0615 9.12051 15.0615 10C15.0614 10.8857 14.8289 11.7559 14.3872 12.5237ZM5.87521 14.1248C6.96917 15.2188 8.4529 15.8333 10 15.8333C11.5471 15.8333 13.0308 15.2188 14.1248 14.1248C15.2188 13.0308 15.8333 11.5471 15.8333 10C15.8333 8.4529 15.2188 6.96917 14.1248 5.87521C13.0308 4.78125 11.5471 4.16667 10 4.16667C8.4529 4.16667 6.96917 4.78125 5.87521 5.87521C4.78125 6.96917 4.16667 8.4529 4.16667 10C4.16667 11.5471 4.78125 13.0308 5.87521 14.1248Z" fill="currentcolor"/>
</svg>
