<svg width="20" height="20" viewBox="0 0 20 20" fill="none" xmlns="http://www.w3.org/2000/svg">
<path fill-rule="evenodd" clip-rule="evenodd" d="M2.5 2.5H17.5V17.5H2.5V2.5ZM6.90002 6.15002L9.50002 11V14.15H10.5V11.05L13.1 6.15002H12L10.5 9.20002C10.4 9.35002 10.3 9.50002 10.25 9.65002C10.2212 9.76514 10.1759 9.84712 10.1331 9.92458C10.1015 9.9817 10.0712 10.0364 10.05 10.1C10.025 10.075 10.0125 10.0375 10 10C9.98752 9.96252 9.97502 9.92502 9.95002 9.90002C9.92502 9.85002 9.91252 9.81252 9.90002 9.77502C9.88752 9.73752 9.87502 9.70002 9.85002 9.65002V9.60002L9.80002 9.55002C9.78093 9.51183 9.76912 9.48093 9.75904 9.45453C9.74273 9.41183 9.73093 9.38093 9.70002 9.35002C9.65002 9.30002 9.60002 9.25002 9.60002 9.20002L8.10002 6.15002H6.90002Z" fill="currentcolor"/>
</svg>
