<svg width="20" height="20" viewBox="0 0 20 20" fill="none" xmlns="http://www.w3.org/2000/svg">
<path d="M18.1673 6.69598C18.1673 6.69598 18.0046 5.5469 17.5033 5.04234C16.8685 4.37828 16.1589 4.37502 15.8333 4.33596C13.5026 4.16669 10.0033 4.16669 10.0033 4.16669H9.99675C9.99675 4.16669 6.4974 4.16669 4.16667 4.33596C3.84115 4.37502 3.13151 4.37828 2.49675 5.04234C1.99544 5.5469 1.83594 6.69598 1.83594 6.69598C1.83594 6.69598 1.66667 8.0469 1.66667 9.39455V10.6576C1.66667 12.0052 1.83268 13.3561 1.83268 13.3561C1.83268 13.3561 1.99544 14.5052 2.49349 15.0098C3.12826 15.6738 3.96159 15.6511 4.33268 15.7227C5.66732 15.8496 10 15.8887 10 15.8887C10 15.8887 13.5026 15.8822 15.8333 15.7162C16.1589 15.6771 16.8685 15.6738 17.5033 15.0098C18.0046 14.5052 18.1673 13.3561 18.1673 13.3561C18.1673 13.3561 18.3333 12.0085 18.3333 10.6576V9.39455C18.3333 8.0469 18.1673 6.69598 18.1673 6.69598ZM8.278 12.1908V7.50653L12.7799 9.85679L8.278 12.1908Z" fill="currentcolor"/>
</svg>
